<svg xmlns="http://www.w3.org/2000/svg" xmlns:xlink="http://www.w3.org/1999/xlink" viewBox="0 0 281.64 77.21"><defs><linearGradient id="b" x1="242.18" y1="2.34" x2="242.18" y2="76.11" gradientUnits="userSpaceOnUse"><stop offset="0" stop-color="#6dcff6"/><stop offset="1" stop-color="#009bdf"/></linearGradient><linearGradient id="a" x1="23.86" y1="13.64" x2="23.86" y2="67.84" gradientUnits="userSpaceOnUse"><stop offset="0" stop-color="#6dcff6"/><stop offset="1" stop-color="#009bdf"/></linearGradient><linearGradient id="f" x1="77.08" y1="14.82" x2="77.08" y2="66.51" xlink:href="#a"/><linearGradient id="g" x1="128.57" y1="13.79" x2="128.57" y2="67.99" xlink:href="#a"/><linearGradient id="h" x1="177.23" y1="14.9" x2="177.23" y2="66.58" xlink:href="#a"/><radialGradient id="c" cx="249.83" cy="30.06" fx="249.83" fy="30.06" r="44.63" gradientTransform="rotate(17.8 228.68 26.75) scale(1 .77961)" gradientUnits="userSpaceOnUse"><stop offset=".17" stop-color="#c3d941"/><stop offset=".75" stop-color="#fff7e7"/><stop offset="1" stop-color="#c3d941"/></radialGradient><radialGradient id="d" cx="243.03" cy="38.61" fx="243.03" fy="38.61" r="38.61" gradientUnits="userSpaceOnUse"><stop offset=".22" stop-color="#00c0e8"/><stop offset=".67" stop-color="#fff"/><stop offset="1" stop-color="#00aeef"/></radialGradient><radialGradient id="e" cx="250.44" cy="42.14" fx="250.44" fy="42.14" r="31.01" gradientTransform="rotate(32.62 234.56 37.5) scale(1 .77961)" gradientUnits="userSpaceOnUse"><stop offset=".22" stop-color="#00c0f3"/><stop offset=".74" stop-color="#fff"/><stop offset="1" stop-color="#00a2e5"/></radialGradient></defs><circle cx="242.18" cy="39.23" r="36.89" fill="url(#b)"/><path d="m237.94 46.52 1.05-7.8 6.57.88c.56.08 1.15.12 1.77.13.62 0 1.22-.07 1.79-.24a3.9 3.9 0 0 0 1.5-.82c.43-.38.7-.9.83-1.56.13-.97-.24-1.87-1.1-2.7s-2.17-1.37-3.87-1.6c-.75-.1-1.46-.12-2.15-.06s-1.32.2-1.9.42-1.07.56-1.47 1c-.4.43-.64 1-.74 1.7l-10.58-1.42a12.08 12.08 0 0 1 2.34-5.83 12.36 12.36 0 0 1 4.33-3.5 15.86 15.86 0 0 1 5.5-1.5 25.86 25.86 0 0 1 11.57 1.53c1.89.69 3.56 1.62 5 2.8a12.38 12.38 0 0 1 3.4 4.3c.8 1.7 1.06 3.67.76 5.9a8 8 0 0 1-1.95 4.16 8.42 8.42 0 0 1-4.24 2.66c2.15 1.16 3.57 2.57 4.25 4.23.69 1.66.9 3.38.67 5.16-.31 2.3-1.13 4.15-2.45 5.54s-2.89 2.44-4.7 3.14c-1.82.7-3.78 1.12-5.9 1.25-2.11.13-4.12.07-6.01-.19a25.63 25.63 0 0 1-5.87-1.52 17.28 17.28 0 0 1-5.11-3.05 12.38 12.38 0 0 1-3.37-4.7 12.63 12.63 0 0 1-.64-6.58l10.8 1.45a4.02 4.02 0 0 0 1.6 3.93c.56.44 1.23.79 1.98 1.06.76.28 1.55.47 2.36.58.67.09 1.34.1 2.01.01a6.07 6.07 0 0 0 1.83-.5 4 4 0 0 0 1.39-1.02c.37-.44.6-.98.7-1.61.03-.26.04-.62.02-1.07a2.71 2.71 0 0 0-.49-1.4 4.6 4.6 0 0 0-1.5-1.34 7.72 7.72 0 0 0-2.9-.87l-7.08-.95Z" fill="#fff"/><path d="M242.32.88a37.62 37.62 0 1 0 0 75.23 37.62 37.62 0 0 0 0-75.23Zm30.84 42.26v.12a29.24 29.24 0 0 0-9.58-21.54 28.7 28.7 0 0 1 9.58 21.42Zm-57.55 0c0-10.2 5.3-19.15 13.3-24.26a29.32 29.32 0 0 1 42.61 26.14c0 7.66-3.28 14.46-8.1 19.69a28.78 28.78 0 0 1-47.82-21.56Z" fill="url(#c)"/><path d="M243.03 0a38.6 38.6 0 1 0 0 77.21 38.6 38.6 0 0 0 0-77.21Zm2.12 72.9a29.53 29.53 0 1 1 0-59.06 29.53 29.53 0 0 1 0 59.07Z" fill="url(#d)"/><path d="M245.15 13.84a29.38 29.38 0 0 0-21.65 9.51 29.34 29.34 0 0 1 20-7.86 29.53 29.53 0 0 1 21.7 49.57 29.53 29.53 0 0 0-20.04-51.22Z" fill="url(#e)"/><g><path d="M47.72 59.8c-2.87 2.9-6 4.96-9.38 6.2a31.37 31.37 0 0 1-10.81 1.84c-4.94 0-9.14-.74-12.62-2.22a23.6 23.6 0 0 1-8.51-5.9 23.17 23.17 0 0 1-4.85-8.57A33.25 33.25 0 0 1 0 41.04c0-3.3.54-6.59 1.62-9.86a25.38 25.38 0 0 1 5.03-8.83 25.38 25.38 0 0 1 8.59-6.3c3.45-1.6 7.54-2.4 12.29-2.4 3.64 0 7.08.65 10.31 1.98A28.4 28.4 0 0 1 47 21.88l-8.76 8.83a14.82 14.82 0 0 0-5.47-3.6 16.36 16.36 0 0 0-5.24-.92 13 13 0 0 0-6.22 1.37 12.4 12.4 0 0 0-4.17 3.56 14.4 14.4 0 0 0-2.33 4.8 18.65 18.65 0 0 0 0 10.22c.47 1.7 1.24 3.25 2.3 4.63a11.82 11.82 0 0 0 4.13 3.37c1.7.86 3.8 1.3 6.29 1.3a16.5 16.5 0 0 0 5.86-1.22c1.02-.42 2.05-.96 3.08-1.63 1.03-.66 2-1.46 2.92-2.4l8.33 9.6Z" fill="url(#a)"/><path d="M88.26 58.02h-22.5l-3.3 8.49h-15.1l22.57-51.69H84.3l22.5 51.69H91.56l-3.3-8.5ZM77.04 29.3l-6.46 16.46h12.86l-6.4-16.46Z" fill="url(#f)"/><path d="M140.71 29.15c-1.72-1.33-3.56-2.25-5.53-2.77s-4.05-.78-6.25-.78c-.86 0-1.7.08-2.52.22-.81.15-1.54.37-2.19.67s-1.16.69-1.55 1.18a2.8 2.8 0 0 0-.57 1.77c0 .89.2 1.6.61 2.14.4.55.97.98 1.69 1.3.72.32 1.6.55 2.62.7 1.03.15 2.17.3 3.42.44 2.49.3 4.96.79 7.4 1.48 2.44.69 4.62 1.7 6.54 3.03a15.68 15.68 0 0 1 4.67 5.09 14.8 14.8 0 0 1 1.8 7.53c0 2.95-.62 5.5-1.87 7.6s-2.89 3.86-4.92 5.21A22.41 22.41 0 0 1 137 67c-2.66.66-5.4 1-8.23 1-2.25 0-4.37-.11-6.36-.34a23.96 23.96 0 0 1-5.67-1.32c-1.8-.67-3.56-1.6-5.29-2.81a32.29 32.29 0 0 1-5.17-4.62l7.83-9.23a19.67 19.67 0 0 0 7.66 4.77c1.27.42 2.5.7 3.7.85 1.2.14 2.32.22 3.38.22 2.34 0 4.25-.4 5.7-1.22 1.47-.81 2.2-1.93 2.2-3.36 0-2.6-2.8-4.18-8.4-4.73a55.5 55.5 0 0 1-7.84-1.25 20.8 20.8 0 0 1-6.54-2.7 12.98 12.98 0 0 1-4.46-4.9c-1.1-2.07-1.65-4.7-1.65-7.9 0-2.71.6-5.06 1.8-7.06 1.2-2 2.77-3.62 4.74-4.87a22.17 22.17 0 0 1 6.72-2.8 32.7 32.7 0 0 1 7.8-.93c3.78 0 7.18.47 10.2 1.4a25.8 25.8 0 0 1 8.63 4.73l-7.05 9.23Z" fill="url(#g)"/><path d="M186.36 66.58V47.1h-18.11v19.5h-14.23v-51.7h14.23v19.65h18.1V14.9h14.1v51.68h-14.1Z" fill="url(#h)"/></g></svg>