<svg xmlns="http://www.w3.org/2000/svg" xmlns:xlink="http://www.w3.org/1999/xlink" viewBox="0 0 280.521 77.932"><defs><linearGradient id="a" x1="240.719" y1="1.508" x2="240.719" y2="75.446" gradientUnits="userSpaceOnUse"><stop offset="0" stop-color="#b0d235"/><stop offset="1" stop-color="#6cb640"/></linearGradient><linearGradient id="b" x1="99.185" y1="10.773" x2="99.185" y2="64.606" xlink:href="#a"/><linearGradient id="c" x1="99.185" y1="10.773" x2="99.185" y2="64.606" xlink:href="#a"/><linearGradient id="d" x1="99.185" y1="10.773" x2="99.185" y2="64.606" xlink:href="#a"/><linearGradient id="e" x1="99.185" y1="10.773" x2="99.185" y2="64.606" xlink:href="#a"/><radialGradient id="f" cx="240.927" cy="39.511" fx="240.927" fy="39.511" r="38.034" gradientUnits="userSpaceOnUse"><stop offset=".222" stop-color="#00baf2"/><stop offset=".665" stop-color="#fff"/><stop offset="1" stop-color="#00aeef"/></radialGradient><radialGradient id="g" cx="248.073" cy="43.221" fx="248.073" fy="43.221" r="30.072" gradientTransform="rotate(17.797 217.654 38.459) scale(1 .77961)" gradientUnits="userSpaceOnUse"><stop offset=".222" stop-color="#9ddcf9"/><stop offset=".74" stop-color="#fff"/><stop offset="1" stop-color="#00aeef"/></radialGradient><radialGradient id="h" cx="241.555" cy="38.966" fx="241.555" fy="38.966" r="38.966" gradientUnits="userSpaceOnUse"><stop offset=".222" stop-color="#cfdd3d"/><stop offset=".665" stop-color="#fff"/><stop offset="1" stop-color="#a4cd39"/></radialGradient><radialGradient id="i" cx="249.027" cy="42.535" fx="249.027" fy="42.535" r="30.656" gradientTransform="rotate(17.797 219.09 37.848) scale(1 .77961)" gradientUnits="userSpaceOnUse"><stop offset=".222" stop-color="#c3d941"/><stop offset=".74" stop-color="#fef9fb"/><stop offset="1" stop-color="#c3d941"/></radialGradient></defs><circle cx="240.719" cy="38.477" r="36.969" fill="url(#a)"/><path d="M47.229 56.487c-2.846 2.877-5.94 4.926-9.283 6.143-3.343 1.219-6.911 1.829-10.704 1.829-4.884 0-9.046-.731-12.483-2.194-3.439-1.463-6.248-3.413-8.428-5.851-2.182-2.438-3.782-5.267-4.802-8.485A32.96 32.96 0 0 1 0 37.91c0-3.267.534-6.521 1.6-9.765a25.144 25.144 0 0 1 4.98-8.74c2.251-2.584 5.085-4.669 8.5-6.254 3.413-1.584 7.467-2.377 12.162-2.377 3.603 0 7.006.656 10.207 1.968 3.2 1.312 6.223 3.376 9.068 6.192l-8.677 8.744c-1.803-1.758-3.605-2.943-5.406-3.553-1.802-.61-3.533-.917-5.192-.917-2.418 0-4.47.453-6.153 1.356-1.684.906-3.058 2.078-4.125 3.52a14.274 14.274 0 0 0-2.312 4.767c-.474 1.735-.71 3.434-.71 5.096s.236 3.336.71 5.024a13.51 13.51 0 0 0 2.276 4.582c1.043 1.369 2.407 2.481 4.09 3.336 1.683.856 3.758 1.283 6.224 1.283.853 0 1.778-.097 2.774-.292.995-.194 2.003-.5 3.023-.914a18.47 18.47 0 0 0 3.058-1.61c1.02-.658 1.98-1.45 2.88-2.376l8.252 9.508Z" fill="url(#b)"/><path d="M87.343 54.731H65.08l-3.271 8.412H46.872l22.334-51.2H83.43l22.263 51.2H90.615l-3.272-8.412ZM76.247 26.28 69.846 42.59h12.732l-6.33-16.31Z" fill="url(#c)"/><path d="M138.554 26.133c-1.706-1.317-3.532-2.23-5.477-2.743s-4.007-.768-6.188-.768c-.853 0-1.683.073-2.49.22-.806.146-1.528.365-2.168.658s-1.15.683-1.53 1.17c-.38.488-.569 1.073-.569 1.755 0 .878.201 1.585.605 2.122.402.537.96.962 1.671 1.28.712.318 1.576.548 2.597.694 1.019.147 2.145.293 3.378.44 2.465.291 4.908.78 7.327 1.462 2.418.684 4.574 1.683 6.472 3 1.896 1.315 3.437 2.997 4.623 5.046 1.185 2.047 1.778 4.534 1.778 7.46s-.616 5.438-1.85 7.534-2.856 3.815-4.87 5.156c-2.017 1.342-4.34 2.34-6.972 2.999a33.436 33.436 0 0 1-8.144.988c-2.229 0-4.327-.11-6.295-.33a23.696 23.696 0 0 1-5.619-1.316c-1.778-.658-3.52-1.584-5.228-2.78-1.707-1.194-3.413-2.717-5.12-4.571l7.752-9.143c1.233 1.22 2.49 2.207 3.77 2.963 1.28.756 2.548 1.34 3.805 1.754 1.256.416 2.477.696 3.663.842 1.185.146 2.3.22 3.343.22 2.323 0 4.207-.402 5.654-1.207s2.17-1.913 2.17-3.328c0-2.584-2.774-4.144-8.321-4.681a54.87 54.87 0 0 1-7.753-1.244c-2.466-.585-4.624-1.474-6.473-2.67-1.85-1.194-3.32-2.815-4.41-4.863-1.091-2.049-1.636-4.657-1.636-7.827 0-2.68.593-5.01 1.779-6.985a14.521 14.521 0 0 1 4.694-4.827c1.944-1.243 4.16-2.17 6.65-2.78 2.49-.609 5.061-.914 7.717-.914 3.746 0 7.113.464 10.1 1.39 2.988.927 5.833 2.487 8.536 4.681l-6.97 9.143Z" fill="url(#d)"/><path d="M184.43 63.216v-19.31h-17.924v19.31h-14.083v-51.2h14.083v19.456h17.923V12.016h13.941v51.2h-13.94Z" fill="url(#e)"/><g><path d="M240.927 1.477c-21.005 0-38.034 17.028-38.034 38.034s17.029 38.033 38.034 38.033 38.034-17.028 38.034-38.033-17.029-38.034-38.034-38.034Zm2.084 71.825c-16.069 0-29.094-13.025-29.094-29.094s13.025-29.094 29.094-29.094 29.093 13.026 29.093 29.094-13.025 29.094-29.093 29.094Z" fill="url(#f)"/><path d="M242.814 15.19c-8.492 0-16.053 3.741-21.397 9.52 5.216-4.823 12.106-7.894 19.77-7.894 16.156 0 29.253 13.097 29.253 29.253 0 7.664-2.951 14.636-7.774 19.852 5.78-5.344 9.401-12.987 9.401-21.479 0-16.156-13.097-29.253-29.253-29.253Z" fill="url(#g)"/></g><g><path d="M241.555 0c-21.52 0-38.966 17.446-38.966 38.966s17.446 38.966 38.966 38.966 38.966-17.446 38.966-38.966S263.076 0 241.555 0Zm2.135 73.586c-16.462 0-29.807-13.345-29.807-29.807s13.345-29.807 29.807-29.807 29.807 13.345 29.807 29.807-13.345 29.807-29.807 29.807Z" fill="url(#h)"/><path d="M243.69 13.972c-8.653 0-16.403 4.399-21.848 10.288 5.315-4.915 12.38-8.63 20.19-8.63 16.462 0 29.807 13.345 29.807 29.807 0 7.81-3.007 14.913-7.92 20.228 5.888-5.445 9.578-13.233 9.578-21.886 0-16.462-13.345-29.807-29.807-29.807Z" fill="url(#i)"/></g><path d="m255.244 29.363-3.146 21.387 3.791.557-1.16 7.887-3.79-.558-.9 6.118-9.404-1.383.9-6.118-18.05-2.654.562-8.388 21.944-18.208 9.253 1.36Zm-12.55 20.003 1.361-9.252-9.754 8.018 8.393 1.234Z" fill="#fff"/></svg>