<svg id="Layer_2" xmlns="http://www.w3.org/2000/svg" viewBox="0 0 175.6 131.8"><defs><filter id="drop-shadow-1" filterUnits="userSpaceOnUse"><feOffset dx="1.4" dy="1.4"/><feGaussianBlur result="blur"/><feFlood flood-color="#000" flood-opacity=".1"/><feComposite in2="blur" operator="in"/><feComposite in="SourceGraphic"/></filter><filter id="drop-shadow-2" filterUnits="userSpaceOnUse"><feOffset dx="1.4" dy="1.4"/><feGaussianBlur result="blur-2"/><feFlood flood-color="#000" flood-opacity=".1"/><feComposite in2="blur-2" operator="in"/><feComposite in="SourceGraphic"/></filter><style>.cls-1{fill:#fff}.cls-6{fill:#213260}.cls-7{fill:#0047ba}.cls-8{stroke:#213260}.cls-8,.cls-9{stroke-linejoin:round;stroke-width:2px}.cls-10,.cls-8,.cls-9{fill:none}.cls-9{stroke:#001689}</style></defs><g id="Full_Color"><path fill="#001689" d="m11 63 75.7-52.8 75.1 54.2-75.4 57.5L11 63z"/><path d="M114.8 100.2c0-1.2.5-3.1.9-3.9.5-1 .5-.7.6-2 0-1.4-1.6-3.8-1.4-4.6.2-.9-.1-1.7-.4-2.4-.4-.7-.9-1.2-.8-2 0-1 .4-1.3 1.4-2 1-.6.2-.6 0-1.4-.1-.9 1-.7 2-1 1-.3-.3-3.2-.2-4.7 0-1.6 0 0 .6-.4l2.8-1c1.9-.9-.5-1.1-1-2.1-.4-1 0-.7.4-2 .4-1.4 1-.5 2.1-1 1-.5.5-.5.6-1.7 0-1.2.2-1.3 1-1.5.9-.1 2-1 2.5-1.4.5-.5.2-.9-.1-1.9-.4-1 0 0 .2-1.2l.4-1.8c.2-1.2 0 0-.7-.7-.6-.7.4-.5.7-1.7.4-1.2.7-.5 1.3-1.7.5-1.1 1-1 3-1.7 2.2-.8.3-1.5.4-2.7v-.4c0-.9.3-1.3 1.2-2.1 1-1 .7-.9 2.4-1.5 1.8-.6 0-1.2 1.1-2.3 1-1.2-1.6-2-2.3-2.3-.6-.4-.8-1.2-.2-2.4.5-1.2.6.2 2.2.6 1.5.4.2-.9-.2-1.7-.3-.9.8-1.2 1.8-2.3 1-1.2 0-1-.3-2-.3-1.1 1.1-1.6 2.3-2.2 1.2-.6.7-.7 1.4-1.8.8-1.2-.4-.9.2-1.4.7-.5.7-.5.8-1.1l-.2-1.3-9 .6c-1 0-2.9.3-3-1.3-.1-1.5 2.5-2.8 3.7-4.6 1.3-1.8 1.2-4.2-.5-5.4-1.6-1.3-9.3-.8-14.7-.5-4.9.3-58.5.6-69.9.7v1.4c.3 4.4 2 15.7 2.7 22.2.8 6.5 0 24 .1 29.5.1 3.4-.3 10.6-.6 15.6l.4.4c.4.7.7 1.7 1.7 1.5 1-.3 1.5-.7 2.8-.5 1.3.2 2.5 0 3 .7.3.2.3 5.6.3 12 9.3.4 36.4 1.2 56.5.4Z" fill="#db0032" stroke="#fff" filter="url(#drop-shadow-1)" stroke-miterlimit="10"/><path d="M2 62.9 85.6 1.2c1.3-1 3.1-1 4.5 0L173.6 63c2 1.5 2 4.6 0 6L90 130.7c-1.4 1-3.2 1-4.5 0L2 69c-2-1.5-2-4.6 0-6.1Zm88 49 58.4-43c2-1.4 2-4.5 0-6L90 19.9c-1.4-1-3.2-1-4.5 0l-58.3 43c-2.1 1.5-2.1 4.6 0 6l58.3 43c1.3 1 3.1 1 4.5 0Z" stroke-miterlimit="10" stroke="#0047ba" fill="#fff"/><path class="cls-7" d="M85.9 4.6 6.3 63.3a3.2 3.2 0 0 0 0 5.2l79.6 58.8c1.1.8 2.7.8 3.8 0l79.6-58.8c1.8-1.3 1.8-3.9 0-5.2L89.7 4.6a3.2 3.2 0 0 0-3.8 0Zm-64 58.7 64-47.3c1.1-.8 2.7-.8 3.8 0l64.1 47.3c1.8 1.3 1.8 4 0 5.2l-64 47.3c-1.2.9-2.8.9-4 0l-64-47.3a3.2 3.2 0 0 1 0-5.2Z"/><path class="cls-1" d="m87.8 6.7.8 2.1h2.1L89 10.1l.7 2.1-1.8-1.2-1.8 1.3.6-2.1L85 8.9l2.1-.1.7-2.1zM96.7 12.3l1.2 1.8 2.1-.5-1.4 1.7 1.2 1.9-2.1-.8-1.4 1.6.1-2.1-2-.9 2.1-.6.2-2.1zM107.9 20.9l1.2 1.8 2.1-.5-1.4 1.7 1.1 1.9-2-.8-1.4 1.7.1-2.2-2-.8 2.1-.6.2-2.2zM119 29.6l1.2 1.8 2.1-.5-1.3 1.7 1.1 1.9-2-.8-1.4 1.6.1-2.1-2.1-.9 2.1-.6.2-2.1zM130.4 37.7l1.2 1.9 2.1-.5-1.3 1.7 1.1 1.8-2-.7-1.5 1.6.1-2.2-2-.8 2.1-.6.2-2.2zM142.1 46.1l1.2 1.8 2.2-.5-1.4 1.7 1.1 1.9-2-.8-1.4 1.7.1-2.2-2-.8 2.1-.6.1-2.2zM152.6 54.3l1.2 1.8 2.1-.5-1.4 1.7 1.1 1.9-2-.8-1.4 1.6.1-2.1-2-.9 2.1-.5.2-2.2zM78.9 12.3l-1.2 1.8-2.2-.5 1.4 1.7-1.1 1.9 2-.8 1.4 1.6-.1-2.1 2-.9-2.1-.6-.1-2.1zM67.7 20.9l-1.2 1.8-2.1-.5 1.3 1.7-1.1 1.9 2-.8 1.5 1.7-.1-2.2 2-.8-2.1-.6-.2-2.2zM56.5 29.6l-1.2 1.8-2.1-.5 1.4 1.7-1.2 1.9 2.1-.8 1.4 1.6-.1-2.1 2-.9-2.1-.6-.2-2.1zM45.1 37.7l-1.2 1.9-2.1-.5 1.4 1.7-1.2 1.8 2.1-.7 1.4 1.6-.1-2.2 2-.8-2.1-.6-.2-2.2zM33.4 46.1l-1.2 1.8-2.1-.5 1.3 1.7-1.1 1.9 2.1-.8 1.4 1.7-.1-2.2 2-.8-2.1-.6-.2-2.2zM23 54.3l-1.2 1.8-2.1-.5 1.3 1.7-1.1 1.9 2-.8 1.5 1.6-.1-2.1 2-.9-2.1-.5-.2-2.2z"/><path class="cls-10" d="m41.3 49-23 17 25.6 18.8-.3-2.7c-.6-5.9-1.1-23.6-2.3-33.2ZM142 54.7l-.4.2c-2.5 1.2-3.1 1-3.7 2.5-.5 1.5-1 .7-1.4 2.2-.3 1.5-1.6 1.3-.7 2.1.9.9 1-.6.9.9l-.3 2.3c-.2 1.5-.7.2-.2 1.5.5 1.2 1 1.6.3 2.3-.6.7-1.8 1.8-2.8 2-1 .3-1.3.5-1.2 2 0 1.5.7 1.4-.6 2.1-1.2.7-2-.3-2.4 1.4-.4 1.7-1 1.3-.3 2.5.6 1.3 3.6 1.4 1.3 2.5l-3.3 1.7c-.8.4-.9-1.5-.8.4 0 1.3 1 3.3 1 4.7l30-22L142 54.6ZM87.8 117.2l.8-.6-1.5.1.7.5Z"/><path class="cls-1" d="m11 63 1.2 1.8 2.1-.4-1.4 1.7 1.2 1.8-2.1-.7-1.4 1.6.1-2.2-2-.8 2.1-.6.2-2.2zM22.1 71.7l1.2 1.8 2.2-.5-1.4 1.7 1.1 1.9-2-.8-1.4 1.6.1-2.1-2-.9 2.1-.5.1-2.2zM33.3 80.3l1.2 1.8 2.1-.5-1.3 1.8 1.1 1.8-2-.8-1.4 1.7.1-2.2-2.1-.8 2.1-.6.2-2.2zM44.7 88.5l1.2 1.8 2.1-.5-1.3 1.7 1.1 1.9-2-.8-1.5 1.7.1-2.2-2-.8 2.1-.6.2-2.2zM56.4 96.9l1.2 1.8 2.2-.5-1.4 1.7 1.1 1.8-2-.7-1.4 1.6.1-2.1-2-.9 2.1-.6.1-2.1zM66.8 105l1.2 1.9 2.2-.5-1.4 1.7 1.1 1.8-2-.7-1.4 1.6.1-2.2-2-.8 2.1-.6.1-2.2zM78 113.1l1.2 1.8 2.1-.5-1.3 1.7 1.1 1.9-2-.8-1.4 1.7v-2.2l-2-.9 2.1-.5.2-2.2zM165.1 63l-1.2 1.8-2.1-.4 1.3 1.7-1.1 1.8 2-.7 1.4 1.6-.1-2.2 2.1-.8-2.1-.6-.2-2.2zM153.9 71.7l-1.2 1.8-2.1-.5 1.3 1.7-1.1 1.9 2-.8 1.5 1.6-.1-2.1 2-.9-2.1-.5-.2-2.2zM142.7 80.3l-1.2 1.8-2.1-.5 1.4 1.8-1.2 1.8 2.1-.8 1.4 1.7-.1-2.2 2-.8-2.1-.6-.2-2.2zM131.3 88.5l-1.2 1.8-2.1-.5 1.4 1.7-1.2 1.9 2.1-.8 1.4 1.7-.1-2.2 2-.8-2.1-.6-.2-2.2zM119.6 96.9l-1.2 1.8-2.1-.5 1.3 1.7-1.1 1.8 2.1-.7 1.4 1.6-.1-2.1 2-.9-2.1-.6-.2-2.1zM109.2 105l-1.2 1.9-2.1-.5 1.3 1.7-1.1 1.8 2-.7 1.5 1.6-.1-2.2 2-.8-2.1-.6-.2-2.2zM98 113.1l-1.2 1.8-2.1-.5 1.4 1.7-1.2 1.9 2.1-.8 1.4 1.7-.1-2.2 2-.9-2.1-.5-.2-2.2z"/><path d="m119.6 61.4-4.8-2.6-36.4-2.5L50.7 70c-.2-5.4.7-23 0-29.5-.9-6.5-2.5-17.8-2.7-22.2V17c11.3 0 65-.4 69.8-.7 5.4-.3 13-.8 14.7.5 1.7 1.2 1.8 3.6.5 5.4-1.2 1.8-3.8 3.1-3.7 4.6.1 1.6 2 1.3 3 1.3l9-.6.2 1.3c0 .6 0 .6-.8 1.1-.6.5.6.2-.2 1.4-.7 1.1-.2 1.2-1.4 1.8-1.2.6-2.6 1.1-2.3 2.1.4 1 1.4 1 .3 2-1 1.2-2 1.5-1.8 2.4.4.8 1.7 2 .2 1.7-1.6-.4-1.7-1.8-2.2-.6-.6 1.2-.4 2 .2 2.4.7.4 3.4 1.1 2.3 2.3-1 1.1.7 1.7-1 2.3-1.8.6-1.4.5-2.5 1.5-1 .8-1.1 1.2-1.2 2.1v.4c0 1.2 1.8 1.9-.3 2.7-2 .8-2.6.6-3.1 1.7-.6 1.2-.9.5-1.3 1.7-.3 1.2-1.3 1-.7 1.7.7.7.9-.5.7.7L126 62l-6.4-.6Z" filter="url(#drop-shadow-2)" fill="#db0032" stroke="#fff" stroke-miterlimit="10"/><circle cx="61.1" cy="66.2" r="9.1" fill="#db0032"/><circle class="cls-7" cx="133.5" cy="65.6" r="9.1"/><g><path class="cls-6" d="M38 56.8 37.4 75l11.5-.2-.2 5.8-18.3.3.8-24 6.8-.1ZM77.2 68c-.1 2-.5 3.8-1.2 5.4a11.9 11.9 0 0 1-7.2 6.5 17 17 0 0 1-10.8.2c-1.6-.5-3-1.3-4.1-2.4-1.2-1-2-2.3-2.6-3.8-.6-1.6-1-3.4-.8-5.4 0-2 .4-3.7 1.1-5.3a12 12 0 0 1 7.2-6.5c1.6-.7 3.5-1 5.4-1 2 0 3.8.2 5.4.7 1.6.5 3 1.3 4.1 2.4s2 2.3 2.7 3.9c.6 1.5.8 3.3.8 5.3Zm-6.8.1c0-2-.5-3.7-1.6-4.9a6 6 0 0 0-4.8-1.7c-1 0-1.8.2-2.6.6a6.4 6.4 0 0 0-3.6 3.6c-.3.8-.5 1.7-.5 2.7 0 1 0 2 .3 2.7s.8 1.6 1.3 2.1c.6.6 1.3 1 2 1.4.9.3 1.7.4 2.7.4a6.3 6.3 0 0 0 6.2-4.1c.4-.8.5-1.8.6-2.8ZM85 61.4l-7 .2.1-5.6 20.9-.4-.2 5.6-7 .1-.7 18.4-6.7.1.6-18.4ZM108.2 61l-7 .1.2-5.6 20.8-.4-.2 5.6-7 .2-.7 18.4h-6.7l.6-18.3ZM149 66.6a11.9 11.9 0 0 1-8.3 11.9 17 17 0 0 1-10.8.2c-1.6-.5-3-1.3-4.1-2.4-1.2-1-2-2.3-2.6-3.9a14 14 0 0 1 .3-10.6 12 12 0 0 1 7.2-6.6c1.6-.6 3.4-.9 5.4-1 2 0 3.8.3 5.4.8 1.6.5 3 1.3 4.1 2.4s2 2.3 2.7 3.9c.6 1.5.8 3.3.8 5.3Zm-6.7.1c0-2-.5-3.7-1.6-4.9a6 6 0 0 0-4.8-1.7 6.4 6.4 0 0 0-6.2 4.2c-.3.8-.5 1.7-.6 2.7 0 1 .1 1.9.4 2.7s.8 1.5 1.3 2.1 1.3 1 2 1.4c.8.3 1.7.4 2.7.4a6.3 6.3 0 0 0 6.2-4.1c.3-.9.5-1.8.6-2.8Z"/><path class="cls-8" d="M38 56.8 37.4 75l11.5-.2-.2 5.8-18.3.3.8-24 6.8-.1ZM77.2 68c-.1 2-.5 3.8-1.2 5.4a11.9 11.9 0 0 1-7.2 6.5 17 17 0 0 1-10.8.2c-1.6-.5-3-1.3-4.1-2.4-1.2-1-2-2.3-2.6-3.8-.6-1.6-1-3.4-.8-5.4 0-2 .4-3.7 1.1-5.3a12 12 0 0 1 7.2-6.5c1.6-.7 3.5-1 5.4-1 2 0 3.8.2 5.4.7 1.6.5 3 1.3 4.1 2.4s2 2.3 2.7 3.9c.6 1.5.8 3.3.8 5.3Zm-6.8.1c0-2-.5-3.7-1.6-4.9a6 6 0 0 0-4.8-1.7c-1 0-1.8.2-2.6.6a6.4 6.4 0 0 0-3.6 3.6c-.3.8-.5 1.7-.5 2.7 0 1 0 2 .3 2.7s.8 1.6 1.3 2.1c.6.6 1.3 1 2 1.4.9.3 1.7.4 2.7.4a6.3 6.3 0 0 0 6.2-4.1c.4-.8.5-1.8.6-2.8ZM85 61.4l-7 .2.1-5.6 20.9-.4-.2 5.6-7 .1-.7 18.4-6.7.1.6-18.4ZM108.2 61l-7 .1.2-5.6 20.8-.4-.2 5.6-7 .2-.7 18.4h-6.7l.6-18.3ZM149 66.6a11.9 11.9 0 0 1-8.3 11.9 17 17 0 0 1-10.8.2c-1.6-.5-3-1.3-4.1-2.4-1.2-1-2-2.3-2.6-3.9a14 14 0 0 1 .3-10.6 12 12 0 0 1 7.2-6.6c1.6-.6 3.4-.9 5.4-1 2 0 3.8.3 5.4.8 1.6.5 3 1.3 4.1 2.4s2 2.3 2.7 3.9c.6 1.5.8 3.3.8 5.3Zm-6.7.1c0-2-.5-3.7-1.6-4.9a6 6 0 0 0-4.8-1.7 6.4 6.4 0 0 0-6.2 4.2c-.3.8-.5 1.7-.6 2.7 0 1 .1 1.9.4 2.7s.8 1.5 1.3 2.1 1.3 1 2 1.4c.8.3 1.7.4 2.7.4a6.3 6.3 0 0 0 6.2-4.1c.3-.9.5-1.8.6-2.8Z"/><path class="cls-6" d="M38 56.8 37.4 75l11.5-.2-.2 5.8-18.3.3.8-24 6.8-.1ZM77.2 68c-.1 2-.5 3.8-1.2 5.4a11.9 11.9 0 0 1-7.2 6.5 17 17 0 0 1-10.8.2c-1.6-.5-3-1.3-4.1-2.4-1.2-1-2-2.3-2.6-3.8-.6-1.6-1-3.4-.8-5.4 0-2 .4-3.7 1.1-5.3a12 12 0 0 1 7.2-6.5c1.6-.7 3.5-1 5.4-1 2 0 3.8.2 5.4.7 1.6.5 3 1.3 4.1 2.4s2 2.3 2.7 3.9c.6 1.5.8 3.3.8 5.3Zm-6.8.1c0-2-.5-3.7-1.6-4.9a6 6 0 0 0-4.8-1.7c-1 0-1.8.2-2.6.6a6.4 6.4 0 0 0-3.6 3.6c-.3.8-.5 1.7-.5 2.7 0 1 0 2 .3 2.7s.8 1.6 1.3 2.1c.6.6 1.3 1 2 1.4.9.3 1.7.4 2.7.4a6.3 6.3 0 0 0 6.2-4.1c.4-.8.5-1.8.6-2.8ZM85 61.4l-7 .2.1-5.6 20.9-.4-.2 5.6-7 .1-.7 18.4-6.7.1.6-18.4ZM108.2 61l-7 .1.2-5.6 20.8-.4-.2 5.6-7 .2-.7 18.4h-6.7l.6-18.3ZM149 66.6a11.9 11.9 0 0 1-8.3 11.9 17 17 0 0 1-10.8.2c-1.6-.5-3-1.3-4.1-2.4-1.2-1-2-2.3-2.6-3.9a14 14 0 0 1 .3-10.6 12 12 0 0 1 7.2-6.6c1.6-.6 3.4-.9 5.4-1 2 0 3.8.3 5.4.8 1.6.5 3 1.3 4.1 2.4s2 2.3 2.7 3.9c.6 1.5.8 3.3.8 5.3Zm-6.7.1c0-2-.5-3.7-1.6-4.9a6 6 0 0 0-4.8-1.7 6.4 6.4 0 0 0-6.2 4.2c-.3.8-.5 1.7-.6 2.7 0 1 .1 1.9.4 2.7s.8 1.5 1.3 2.1 1.3 1 2 1.4c.8.3 1.7.4 2.7.4a6.3 6.3 0 0 0 6.2-4.1c.3-.9.5-1.8.6-2.8Z"/><g><path class="cls-1" d="M35.8 54.6 35.2 73l11.5-.3-.2 5.8-18.3.4.8-24 6.8-.2ZM75 65.8c0 2-.4 3.8-1.1 5.4a11.9 11.9 0 0 1-7.2 6.5 17 17 0 0 1-10.8.3 10.3 10.3 0 0 1-6.8-6.3c-.6-1.5-.9-3.3-.8-5.3 0-2 .4-3.8 1.1-5.3a12 12 0 0 1 7.2-6.6c1.7-.6 3.5-1 5.5-1s3.7.2 5.3.8c1.7.5 3 1.3 4.2 2.3s2 2.4 2.6 4c.6 1.5.9 3.3.8 5.2Zm-6.8.2c0-2-.5-3.7-1.6-5a6 6 0 0 0-4.7-1.6 6.4 6.4 0 0 0-6.2 4.2 7.4 7.4 0 0 0-.2 5.5 5.7 5.7 0 0 0 3.3 3.3c.8.3 1.7.5 2.6.5 1 0 2-.2 2.7-.6a6.3 6.3 0 0 0 3.6-3.6c.3-.8.5-1.7.5-2.7ZM82.8 59.3l-7 .1.2-5.6 20.8-.4-.2 5.6-7 .1-.6 18.5h-6.8l.6-18.3ZM106 58.8l-7 .2.2-5.6L120 53l-.2 5.6h-7l-.6 18.5-6.8.1.6-18.4ZM146.9 64.4c0 2-.4 3.8-1.2 5.4a11.9 11.9 0 0 1-7.1 6.5 17 17 0 0 1-10.8.2c-1.7-.5-3-1.3-4.2-2.3-1.1-1-2-2.4-2.6-4-.6-1.5-.9-3.2-.8-5.3 0-2 .4-3.7 1.1-5.2a12 12 0 0 1 7.2-6.6c1.7-.6 3.5-1 5.5-1s3.7.2 5.3.7c1.7.6 3 1.4 4.2 2.4s2 2.4 2.6 4c.6 1.5.9 3.2.8 5.2Zm-6.8.2c0-2.1-.5-3.7-1.6-5a6 6 0 0 0-4.7-1.7c-1 0-1.9.2-2.7.6a6.4 6.4 0 0 0-3.5 3.6c-.4.8-.6 1.7-.6 2.7 0 1 0 2 .4 2.8s.7 1.5 1.3 2 1.2 1 2 1.4c.8.3 1.7.5 2.6.4a6.3 6.3 0 0 0 6.2-4.1c.4-.8.6-1.7.6-2.7Z"/><g><path class="cls-9" d="M35.8 54.6 35.2 73l11.5-.3-.2 5.8-18.3.4.8-24 6.8-.2ZM75 65.8c0 2-.4 3.8-1.1 5.4a11.9 11.9 0 0 1-7.2 6.5 17 17 0 0 1-10.8.3 10.3 10.3 0 0 1-6.8-6.3c-.6-1.5-.9-3.3-.8-5.3 0-2 .4-3.8 1.1-5.3a12 12 0 0 1 7.2-6.6c1.7-.6 3.5-1 5.5-1s3.7.2 5.3.8c1.7.5 3 1.3 4.2 2.3s2 2.4 2.6 4c.6 1.5.9 3.3.8 5.2Zm-6.8.2c0-2-.5-3.7-1.6-5a6 6 0 0 0-4.7-1.6 6.4 6.4 0 0 0-6.2 4.2 7.4 7.4 0 0 0-.2 5.5 5.7 5.7 0 0 0 3.3 3.3c.8.3 1.7.5 2.6.5 1 0 2-.2 2.7-.6a6.3 6.3 0 0 0 3.6-3.6c.3-.8.5-1.7.5-2.7ZM82.8 59.3l-7 .1.2-5.6 20.8-.4-.2 5.6-7 .1-.6 18.5h-6.8l.6-18.3ZM106 58.8l-7 .2.2-5.6L120 53l-.2 5.6h-7l-.6 18.5-6.8.1.6-18.4ZM146.9 64.4c0 2-.4 3.8-1.2 5.4a11.9 11.9 0 0 1-7.1 6.5 17 17 0 0 1-10.8.2c-1.7-.5-3-1.3-4.2-2.3-1.1-1-2-2.4-2.6-4-.6-1.5-.9-3.2-.8-5.3 0-2 .4-3.7 1.1-5.2a12 12 0 0 1 7.2-6.6c1.7-.6 3.5-1 5.5-1s3.7.2 5.3.7c1.7.6 3 1.4 4.2 2.4s2 2.4 2.6 4c.6 1.5.9 3.2.8 5.2Zm-6.8.2c0-2.1-.5-3.7-1.6-5a6 6 0 0 0-4.7-1.7c-1 0-1.9.2-2.7.6a6.4 6.4 0 0 0-3.5 3.6c-.4.8-.6 1.7-.6 2.7 0 1 0 2 .4 2.8s.7 1.5 1.3 2 1.2 1 2 1.4c.8.3 1.7.5 2.6.4a6.3 6.3 0 0 0 6.2-4.1c.4-.8.6-1.7.6-2.7Z"/></g><g><path class="cls-1" d="M35.8 54.6 35.2 73l11.5-.3-.2 5.8-18.3.4.8-24 6.8-.2ZM75 65.8c0 2-.4 3.8-1.1 5.4a11.9 11.9 0 0 1-7.2 6.5 17 17 0 0 1-10.8.3 10.3 10.3 0 0 1-6.8-6.3c-.6-1.5-.9-3.3-.8-5.3 0-2 .4-3.8 1.1-5.3a12 12 0 0 1 7.2-6.6c1.7-.6 3.5-1 5.5-1s3.7.2 5.3.8c1.7.5 3 1.3 4.2 2.3s2 2.4 2.6 4c.6 1.5.9 3.3.8 5.2Zm-6.8.2c0-2-.5-3.7-1.6-5a6 6 0 0 0-4.7-1.6 6.4 6.4 0 0 0-6.2 4.2 7.4 7.4 0 0 0-.2 5.5 5.7 5.7 0 0 0 3.3 3.3c.8.3 1.7.5 2.6.5 1 0 2-.2 2.7-.6a6.3 6.3 0 0 0 3.6-3.6c.3-.8.5-1.7.5-2.7ZM82.8 59.3l-7 .1.2-5.6 20.8-.4-.2 5.6-7 .1-.6 18.5h-6.8l.6-18.3ZM106 58.8l-7 .2.2-5.6L120 53l-.2 5.6h-7l-.6 18.5-6.8.1.6-18.4ZM146.9 64.4c0 2-.4 3.8-1.2 5.4a11.9 11.9 0 0 1-7.1 6.5 17 17 0 0 1-10.8.2c-1.7-.5-3-1.3-4.2-2.3-1.1-1-2-2.4-2.6-4-.6-1.5-.9-3.2-.8-5.3 0-2 .4-3.7 1.1-5.2a12 12 0 0 1 7.2-6.6c1.7-.6 3.5-1 5.5-1s3.7.2 5.3.7c1.7.6 3 1.4 4.2 2.4s2 2.4 2.6 4c.6 1.5.9 3.2.8 5.2Zm-6.8.2c0-2.1-.5-3.7-1.6-5a6 6 0 0 0-4.7-1.7c-1 0-1.9.2-2.7.6a6.4 6.4 0 0 0-3.5 3.6c-.4.8-.6 1.7-.6 2.7 0 1 0 2 .4 2.8s.7 1.5 1.3 2 1.2 1 2 1.4c.8.3 1.7.5 2.6.4a6.3 6.3 0 0 0 6.2-4.1c.4-.8.6-1.7.6-2.7Z"/></g></g></g></g></svg>