<svg xmlns="http://www.w3.org/2000/svg" viewBox="0 0 527.63 249.44"><defs><style>.cls-1,.cls-2,.cls-3{fill:#fff}.cls-2,.cls-3{stroke-width:6.12073px;stroke:#fff}.cls-3{stroke-width:5.5814px}.cls-9{fill:#d1d3d4}.cls-10{fill:#0079c1}.cls-11{fill:#ee3124}</style></defs><g style="isolation:isolate"><g id="Layer_2"><g id="Layer_1-2"><path d="M35.32 99.68c73.24-4.5 59.28 54.7 155.54 111.4 88.39 52.02 177.68 33.6 214.22 18.74 56.07-22.8 97.75-21.15 113.22-13.41 0 0-14.41-105.07-189.01-180.65C154.69-39.82 35.32 99.68 35.32 99.68" stroke="#d1d3d4" stroke-linecap="round" stroke-linejoin="round" stroke-width="7.81" fill="#fff"/><path class="cls-9" d="M32.44 101.36s54.34-54.3 147.14-68.76c66.68-10.42 210.6 24.82 305.98 128.84 39.61 43.7 37.78 58.97 37.78 58.97s-45.51-30.86-116.3-2.08c-36.52 14.85-125.82 33.28-214.2-18.74-96.27-56.7-87.17-102.74-160.4-98.23Z"/><path d="M63.07 86.46S110.6 24.4 198.01 10.79C260.82.97 395.03 37.45 482.07 142.21c36.14 44 36.23 66.27 36.23 66.27s-44.15-38.26-111.24-10.13c-34.63 14.51-118.85 32.13-200.56-20.62-88.98-57.5-74.6-95.13-143.43-91.27Z" stroke="#e6e7e8" stroke-width="18.51" fill="#fff"/><path d="M32.44 90.68S110.6 24.41 198 10.8C260.82.97 395.03 37.45 482.07 142.21c36.14 44 34.15 66.49 34.15 66.49s-42.07-38.48-109.16-10.35c-34.63 14.51-118.85 32.13-200.56-20.62-88.98-57.5-105.25-90.92-174.06-87.05Z" stroke-width="2.12" stroke="#fff" fill="#fff"/><path class="cls-1" d="M45.47 86.47c18.26-6.24 67.18-21.4 126.73-27.48a.42.42 0 0 1-.1.04S221.21 91.26 272 168.4c-36.72-59.06-82.37-100.26-95-109.85a464.1 464.1 0 0 1 63.62-1.66c7.97 6.3 77.35 62.12 110.93 114.41-10.74-25.89-79.04-95.43-107.2-114.25 24.54 1.37 49.48 5 73.72 11.94a392.7 392.7 0 0 1 12.6 3.82c3.3 2.59 43.52 34.93 65.92 76.48-4.79-16.65-31.38-50.37-60.18-74.6 99.48 33.26 151.8 92.44 175.94 121.26 0 0-60.26-87.95-179.07-125.14 1.41-3.64 6.41-14.55 17.08-18.53-12.4 2.38-18.08 14.35-19.47 17.8a358.54 358.54 0 0 0-89.86-15.24c2.19-6.53 13.04-22.45 17.95-28.74-10.48 6.36-20.64 28.43-20.64 28.43l.05.24c-1.54-.07-2.99-.15-4.49-.18-22.3-.5-42.41.16-60.57 1.65 2.54-4.62 15.57-21.95 24.26-30.23-13.6 8.22-28.02 30-28.02 30s.14.22.42.5C101.49 62.44 62.22 79.76 45.47 86.46Zm-7.7 2.71c1.6-.33 4.17-1.3 7.7-2.71-4.97 1.65-7.7 2.71-7.7 2.71Z"/><path class="cls-9" d="M45.2 85.23c18.22-6.22 67.16-21.4 126.73-27.45-.03.03-.07.01-.07.01s49.07 32.24 99.86 109.43c-36.7-59.12-82.33-100.28-94.95-109.88a463.83 463.83 0 0 1 63.58-1.68c7.99 6.32 77.36 62.1 110.94 114.43-10.77-25.94-79.03-95.43-107.2-114.24 24.54 1.36 49.44 4.98 73.73 11.93 4.28 1.21 8.47 2.48 12.6 3.8 3.24 2.6 43.5 34.95 65.88 76.52-4.75-16.67-31.35-50.44-60.15-74.64 99.46 33.29 151.81 92.44 175.92 121.27 0 0-60.24-87.95-179.05-125.14 1.4-3.63 6.4-14.56 17.07-18.54-12.4 2.38-18.06 14.34-19.44 17.8a358.95 358.95 0 0 0-89.89-15.24c2.2-6.5 13.07-22.41 17.95-28.75-10.46 6.38-20.67 28.44-20.67 28.44l.07.22-4.51-.15c-22.27-.51-42.38.16-60.51 1.65 2.5-4.6 15.53-21.92 24.23-30.25-13.6 8.23-27.99 30-27.99 30s.11.25.39.5C101.19 61.25 61.95 78.52 45.2 85.23Zm-7.69 2.74c1.57-.34 4.14-1.32 7.7-2.74a197.3 197.3 0 0 0-7.7 2.74Z"/><path class="cls-9" d="M507.85 196.76s-44.15-27.5-80.95-13.75c-36.77 13.74-78.75 26.6-110.56 18.41 25.47.08 36.12 5.5 103.39-22.14 32.37-13.33 75.6 6.22 88.12 17.48Z"/><path d="M280.92 200.5S232 190.63 166.3 137.75c-33.4-26.89-86.03-62.29-121.1-52.51 18.1-.83 52.5 1.9 120.12 54.97 32.83 27 79.68 53.73 115.6 60.3Z" style="mix-blend-mode:multiply" fill="#d1d3d4"/><path class="cls-1" d="M512.07 194.73s-26.18-71.17-131.61-135.82c-60.87-33.97-114.87-41.73-114.87-41.73S356.6 30.48 434 99.78c25.76 23.07 52.42 45.99 78.06 94.95Z"/><g><path class="cls-3" d="m63.48 80.15 3.82 5.26V60.76c0-.54.2-1 .6-1.4a2 2 0 0 1 1.47-.61h13.07a2 2 0 0 1 1.47.6c.4.4.6.87.6 1.4v48.5c0 .54-.2 1.01-.6 1.41-.4.4-.9.6-1.47.6h-15c-.23 0-.52-.08-.88-.23a2.04 2.04 0 0 1-.8-.57L46.86 85v24.26c0 .53-.2 1-.6 1.4-.4.4-.89.6-1.47.6H31.73c-.54 0-1-.2-1.4-.6-.4-.4-.61-.87-.61-1.4v-48.5c0-.54.2-1 .6-1.4.4-.41.87-.61 1.4-.61H46.6c.27 0 .6.09.97.26.38.18.61.39.7.6L54 67.43c1.85 2.53 3.74 5.06 5.66 7.6 1.3 1.7 2.57 3.41 3.82 5.13ZM116.43 109.26a7.76 7.76 0 0 1-.7-.74c-2.01 1.03-4.15 1.87-6.43 2.54-2.28.67-4.6 1-6.97 1-4.64 0-8.18-1.09-10.62-3.28-2.43-2.18-3.65-5.13-3.65-8.84 0-3.97 1.86-7.23 5.56-9.78 1.83-1.2 3.9-2.13 6.2-2.78a24 24 0 0 1 7.67-.77l5.63.27c-.05-1.38-.52-2.41-1.41-3.08-.9-.67-2.12-1-3.68-1-1.17 0-2.28.08-3.35.26-1.08.18-2.17.5-3.29.94-1.02.4-1.96.78-2.8 1.14-.86.36-1.66.71-2.42 1.07-.5.27-1.02.3-1.57.1-.56-.2-.96-.57-1.18-1.1l-2.54-5.83a1.99 1.99 0 0 1-.04-1.2c.12-.45.28-.79.5-1.01a11.8 11.8 0 0 1 2.32-1.51 34.66 34.66 0 0 1 9.41-3.31 30.5 30.5 0 0 1 5.83-.54c3.3 0 6.16.3 8.57.9 2.41.6 4.4 1.56 5.96 2.85a11.59 11.59 0 0 1 3.49 5.06 22.05 22.05 0 0 1 1.13 7.53v13.74l.47.4.47.33a1.98 1.98 0 0 1 1.94 1.27 1.86 1.86 0 0 1-.67 2.21l-7.1 5.9a8.9 8.9 0 0 1-5.89-2l-.84-.74Zm-4.12-9.01 1-.44v-3.15h-.2c-6.83 0-10.24 1.1-10.24 3.28 0 1.12 1.14 1.68 3.41 1.68 1.75 0 3.35-.3 4.83-.87l1.2-.5ZM151.83 100.04c.32.43.72.64 1.21.64 1.12 0 2.12-.16 3.01-.47.9-.31 1.59-.58 2.08-.8a1.72 1.72 0 0 1 1.84.13 2 2 0 0 1 .84 1.74v7.98c0 .35-.11.72-.33 1.1-.23.38-.5.61-.8.7a8.7 8.7 0 0 1-1.72.6 44.3 44.3 0 0 1-5.33 1.14c-.89.14-1.78.2-2.67.2-4.78 0-8.25-.91-10.42-2.74-2.16-1.83-3.25-4.91-3.25-9.24V83.93h-5.42c-.5 0-.94-.2-1.34-.6a2 2 0 0 1-.6-1.47v-7.17c0-.58.2-1.06.6-1.44.4-.38.85-.57 1.34-.57h5.42v-8.3c0-.5.17-.95.5-1.34.34-.4.73-.63 1.18-.68l11.18-1.94a1.7 1.7 0 0 1 1.61.44c.45.42.67.95.67 1.57l-.06 10.25h7.5a1.96 1.96 0 0 1 1.94 2.01v7.17c0 .58-.2 1.07-.57 1.47-.38.4-.84.6-1.37.6h-7.5v14.2c0 .85.15 1.49.46 1.91ZM202.07 109.26a1.95 1.95 0 0 1-1.94 2h-8.84c-.36 0-.73-.1-1.1-.33-.39-.22-.62-.5-.71-.8l-1.07-2.15a28.42 28.42 0 0 1-6.13 3.02 21.24 21.24 0 0 1-6.94 1.07c-4.33 0-7.58-1.17-9.74-3.52-2.17-2.34-3.25-5.75-3.25-10.21V74.69c0-.54.2-1 .6-1.37.4-.38.87-.57 1.41-.57h11.46c.53 0 1 .19 1.4.57.4.38.6.83.6 1.37v20.7c0 2.95.85 4.42 2.55 4.42.35 0 .81-.05 1.37-.17.56-.11 1.2-.3 1.91-.57h-.06c.57-.27 1.12-.5 1.64-.7.5-.2.99-.41 1.44-.64V74.7c0-.54.2-1 .6-1.37.4-.38.87-.57 1.4-.57h11.46c.54 0 1 .19 1.37.57.38.38.57.83.57 1.37v34.57ZM206.9 111.26a1.94 1.94 0 0 1-1.88-2V74.69c0-.54.19-1 .57-1.37.38-.38.81-.57 1.3-.57h7.84c.36 0 .72.13 1.07.4.36.27.58.58.67.94l1.41 4.62a20.83 20.83 0 0 1 4.72-5.06 8.68 8.68 0 0 1 5.2-1.77c.8 0 1.56.16 2.27.5a8.8 8.8 0 0 1 4.15 4.05l-2.8 10.85c-.23.85-.72 1.37-1.48 1.54-.76.18-1.4-.08-1.94-.8-1.17-1.52-2.24-2.28-3.22-2.28-.8 0-1.7.5-2.68 1.48a20.6 20.6 0 0 0-2.21 2.47v19.57a1.95 1.95 0 0 1-1.94 2h-11.06ZM259.71 109.26a7.5 7.5 0 0 1-.7-.74c-2 1.03-4.15 1.87-6.43 2.54-2.28.67-4.6 1-6.97 1-4.64 0-8.18-1.09-10.61-3.28-2.44-2.18-3.65-5.13-3.65-8.84 0-3.97 1.85-7.23 5.56-9.78 1.83-1.2 3.9-2.13 6.19-2.78a24 24 0 0 1 7.67-.77l5.63.27c-.05-1.38-.52-2.41-1.4-3.08-.9-.67-2.13-1-3.7-1-1.15 0-2.27.08-3.34.26-1.07.18-2.17.5-3.28.94-1.03.4-1.97.78-2.82 1.14-.85.36-1.65.71-2.41 1.07-.5.27-1.02.3-1.57.1-.56-.2-.95-.57-1.18-1.1l-2.54-5.83a1.98 1.98 0 0 1-.04-1.2c.12-.45.28-.79.5-1.01.5-.45 1.27-.95 2.32-1.51a34.63 34.63 0 0 1 9.41-3.31c1.83-.36 3.78-.54 5.83-.54 3.3 0 6.16.3 8.57.9 2.41.6 4.4 1.56 5.96 2.85a11.57 11.57 0 0 1 3.49 5.06 22.04 22.04 0 0 1 1.14 7.53v13.74l.46.4.47.33c.5 0 .9.13 1.24.37a1.95 1.95 0 0 1 .77 2.04c-.09.4-.33.76-.73 1.07l-7.1 5.9a8.9 8.9 0 0 1-5.9-2l-.84-.74Zm-4.12-9.01 1-.44v-3.15h-.2c-6.82 0-10.24 1.1-10.24 3.28 0 1.12 1.14 1.68 3.42 1.68 1.74 0 3.35-.3 4.82-.87l1.2-.5ZM289.15 58.75c.45 0 .83.2 1.14.6.31.4.47.87.47 1.4v48.5c0 .54-.16 1.01-.47 1.41-.31.4-.7.6-1.14.6h-10.78c-.5 0-.9-.2-1.2-.6-.32-.4-.48-.87-.48-1.4v-48.5c0-.54.16-1 .47-1.4.31-.41.72-.61 1.2-.61h10.8Z"/><g><path class="cls-3" d="M350.62 101.92a15.2 15.2 0 0 1-4.69 5.56 22.06 22.06 0 0 1-7.43 3.42 38.41 38.41 0 0 1-9.89 1.17 72.54 72.54 0 0 1-13.86-1.34v.07a79.4 79.4 0 0 1-3.32-.64c-.91-.2-1.62-.35-2.1-.44-.4-.08-.77-.3-1.08-.67a2.06 2.06 0 0 1-.53-1.13l-1.08-12.73c-.09-.85.18-1.49.8-1.91.63-.43 1.33-.46 2.08-.1a90.8 90.8 0 0 0 9.12 3.68 34.84 34.84 0 0 0 10.91 2.01c2.01 0 3.63-.24 4.86-.74 1.23-.49 1.84-1.2 1.84-2.14 0-.5-.36-.98-1.07-1.47-1.16-.72-3.8-1.48-7.9-2.28-7.73-1.56-13.09-3.6-16.08-6.1-3.26-2.68-4.9-6.43-4.9-11.25 0-5.63 2-9.9 6-12.8 4-2.9 9.57-4.35 16.72-4.35 3.12 0 6.45.32 9.98.94 1.7.31 3.18.6 4.45.87 1.28.27 2.34.54 3.18.8.36.1.69.32.98.67.29.36.45.72.5 1.08l1.34 11.72c.09.85-.18 1.5-.8 1.97-.63.47-1.32.5-2.08.1a56.62 56.62 0 0 0-4.36-1.87 68.56 68.56 0 0 0-4.75-1.6 33 33 0 0 0-8.91-1.42c-2.01 0-3.56.16-4.66.47-1.1.32-1.64.85-1.64 1.61 0 .72.56 1.27 1.68 1.68 1.02.35 2.27.75 3.75 1.17 1.47.42 3.21.81 5.22 1.17 7.24 1.43 12.2 3.48 14.87 6.16 3 2.86 4.5 6.52 4.5 10.99 0 2.9-.56 5.46-1.65 7.67ZM379.53 100.04c.3.43.7.64 1.2.64 1.12 0 2.12-.16 3.01-.47.9-.31 1.59-.58 2.08-.8a1.72 1.72 0 0 1 1.84.13c.56.4.84.98.84 1.74v7.98c0 .35-.11.72-.33 1.1-.23.38-.5.61-.8.7a8.7 8.7 0 0 1-1.72.6 43.86 43.86 0 0 1-5.33 1.14c-.89.14-1.78.2-2.67.2-4.78 0-8.25-.91-10.42-2.74-2.16-1.83-3.25-4.91-3.25-9.24V83.93h-5.42c-.5 0-.94-.2-1.34-.6a2 2 0 0 1-.6-1.47v-7.17c0-.58.2-1.06.6-1.44.4-.38.85-.57 1.34-.57h5.42v-8.3c0-.5.17-.95.5-1.34.34-.4.73-.63 1.18-.68l11.18-1.94a1.7 1.7 0 0 1 1.61.44c.45.42.67.95.67 1.57l-.07 10.25h7.5a1.95 1.95 0 0 1 1.94 2.01v7.17c.01.58-.18 1.07-.56 1.47-.38.4-.84.6-1.37.6h-7.5v14.2c0 .85.15 1.49.47 1.91ZM419.01 109.26a7.43 7.43 0 0 1-.7-.74 36.87 36.87 0 0 1-6.43 2.54c-2.28.67-4.6 1-6.97 1-4.64 0-8.18-1.09-10.62-3.28-2.43-2.18-3.65-5.13-3.65-8.84 0-3.97 1.86-7.23 5.56-9.78a22 22 0 0 1 6.2-2.78 24 24 0 0 1 7.67-.77l5.63.27c-.05-1.38-.52-2.41-1.41-3.08-.9-.67-2.12-1-3.69-1-1.16 0-2.27.08-3.35.26-1.07.18-2.16.5-3.28.94-1.03.4-1.96.78-2.81 1.14-.85.36-1.65.71-2.41 1.07-.5.27-1.02.3-1.58.1-.55-.2-.95-.57-1.17-1.1l-2.54-5.83a1.98 1.98 0 0 1-.04-1.2c.11-.45.28-.79.5-1.01.5-.45 1.27-.95 2.32-1.51a34.56 34.56 0 0 1 9.41-3.31 30.5 30.5 0 0 1 5.83-.54c3.3 0 6.16.3 8.57.9 2.41.6 4.4 1.56 5.96 2.85a11.59 11.59 0 0 1 3.48 5.06 22.04 22.04 0 0 1 1.14 7.53v13.74l.47.4.47.33a2.03 2.03 0 0 1 1.95 1.27c.13.36.15.74.06 1.14-.09.4-.33.76-.74 1.07l-7.1 5.9a8.9 8.9 0 0 1-5.89-2l-.84-.74Zm-4.12-9.01 1-.44v-3.15h-.2c-6.83 0-10.24 1.1-10.24 3.28 0 1.12 1.14 1.68 3.41 1.68 1.74 0 3.35-.3 4.82-.87l1.21-.5ZM454.41 100.04c.31.43.72.64 1.21.64a9.1 9.1 0 0 0 3.01-.47c.9-.31 1.59-.58 2.08-.8a1.72 1.72 0 0 1 1.84.13c.56.4.84.98.84 1.74v7.98c0 .35-.11.72-.33 1.1-.23.38-.5.61-.8.7-.46.23-1.03.43-1.72.6a44.35 44.35 0 0 1-5.33 1.14c-.89.14-1.78.2-2.67.2-4.78 0-8.25-.91-10.42-2.74-2.16-1.83-3.25-4.91-3.25-9.24V83.93h-5.42c-.5 0-.94-.2-1.34-.6a2 2 0 0 1-.6-1.47v-7.17c0-.58.2-1.06.6-1.44.4-.38.85-.57 1.34-.57h5.42v-8.3c0-.5.17-.95.5-1.34.34-.4.73-.63 1.18-.68l11.18-1.94c.63-.13 1.16.01 1.61.44.45.42.67.95.67 1.57l-.07 10.25h7.5a1.95 1.95 0 0 1 1.94 2.01v7.17c0 .58-.18 1.07-.56 1.47-.38.4-.84.6-1.38.6h-7.5v14.2c0 .85.16 1.49.47 1.91ZM498.96 108.72c-.8.54-1.73 1-2.78 1.4-1.05.4-2.18.75-3.38 1.04a33.23 33.23 0 0 1-7.64.9c-6.56 0-11.82-1.82-15.74-5.48-3.93-3.67-5.9-8.76-5.9-15.28 0-5.62 1.76-10.27 5.3-13.93 3.52-3.7 7.99-5.56 13.39-5.56s9.78 1.87 13.13 5.63c3.21 3.61 4.82 8.37 4.82 14.26v2.95c0 .54-.19 1-.57 1.4-.37.41-.83.61-1.37.61h-19.09c.36.76.76 1.34 1.2 1.74 1.35 1.34 3.64 2.01 6.9 2.01 1.61 0 3.15-.2 4.63-.6.8-.22 1.43-.4 1.87-.54.45-.13.76-.24.94-.33.5-.22 1-.22 1.5 0 .52.22.89.58 1.11 1.07l2.48 6.3-.8 2.4Zm-20.43-20.97h6.96a8.3 8.3 0 0 0-1.13-3.65c-.59-.87-1.32-1.3-2.22-1.3-1.2 0-2.1.6-2.67 1.8-.45.85-.76 1.9-.94 3.15Z"/></g><g><path class="cls-10" d="m63.48 80.15 3.82 5.26V60.76c0-.54.2-1 .6-1.4a2 2 0 0 1 1.47-.61h13.07a2 2 0 0 1 1.47.6c.4.4.6.87.6 1.4v48.5c0 .54-.2 1.01-.6 1.41-.4.4-.9.6-1.47.6h-15c-.23 0-.52-.08-.88-.23a2.04 2.04 0 0 1-.8-.57L46.86 85v24.26c0 .53-.2 1-.6 1.4-.4.4-.89.6-1.47.6H31.73c-.54 0-1-.2-1.4-.6-.4-.4-.61-.87-.61-1.4v-48.5c0-.54.2-1 .6-1.4.4-.41.87-.61 1.4-.61H46.6c.27 0 .6.09.97.26.38.18.61.39.7.6L54 67.43c1.85 2.53 3.74 5.06 5.66 7.6 1.3 1.7 2.57 3.41 3.82 5.13ZM116.43 109.26a7.76 7.76 0 0 1-.7-.74c-2.01 1.03-4.15 1.87-6.43 2.54-2.28.67-4.6 1-6.97 1-4.64 0-8.18-1.09-10.62-3.28-2.43-2.18-3.65-5.13-3.65-8.84 0-3.97 1.86-7.23 5.56-9.78 1.83-1.2 3.9-2.13 6.2-2.78a24 24 0 0 1 7.67-.77l5.63.27c-.05-1.38-.52-2.41-1.41-3.08-.9-.67-2.12-1-3.68-1-1.17 0-2.28.08-3.35.26-1.08.18-2.17.5-3.29.94-1.02.4-1.96.78-2.8 1.14-.86.36-1.66.71-2.42 1.07-.5.27-1.02.3-1.57.1-.56-.2-.96-.57-1.18-1.1l-2.54-5.83a1.99 1.99 0 0 1-.04-1.2c.12-.45.28-.79.5-1.01a11.8 11.8 0 0 1 2.32-1.51 34.66 34.66 0 0 1 9.41-3.31 30.5 30.5 0 0 1 5.83-.54c3.3 0 6.16.3 8.57.9 2.41.6 4.4 1.56 5.96 2.85a11.59 11.59 0 0 1 3.49 5.06 22.05 22.05 0 0 1 1.13 7.53v13.74l.47.4.47.33a1.98 1.98 0 0 1 1.94 1.27 1.86 1.86 0 0 1-.67 2.21l-7.1 5.9a8.9 8.9 0 0 1-5.89-2l-.84-.74Zm-4.12-9.01 1-.44v-3.15h-.2c-6.83 0-10.24 1.1-10.24 3.28 0 1.12 1.14 1.68 3.41 1.68 1.75 0 3.35-.3 4.83-.87l1.2-.5ZM151.83 100.04c.32.43.72.64 1.21.64 1.12 0 2.12-.16 3.01-.47.9-.31 1.59-.58 2.08-.8a1.72 1.72 0 0 1 1.84.13 2 2 0 0 1 .84 1.74v7.98c0 .35-.11.72-.33 1.1-.23.38-.5.61-.8.7a8.7 8.7 0 0 1-1.72.6 44.3 44.3 0 0 1-5.33 1.14c-.89.14-1.78.2-2.67.2-4.78 0-8.25-.91-10.42-2.74-2.16-1.83-3.25-4.91-3.25-9.24V83.93h-5.42c-.5 0-.94-.2-1.34-.6a2 2 0 0 1-.6-1.47v-7.17c0-.58.2-1.06.6-1.44.4-.38.85-.57 1.34-.57h5.42v-8.3c0-.5.17-.95.5-1.34.34-.4.73-.63 1.18-.68l11.18-1.94a1.7 1.7 0 0 1 1.61.44c.45.42.67.95.67 1.57l-.06 10.25h7.5a1.96 1.96 0 0 1 1.94 2.01v7.17c0 .58-.2 1.07-.57 1.47-.38.4-.84.6-1.37.6h-7.5v14.2c0 .85.15 1.49.46 1.91ZM202.07 109.26a1.95 1.95 0 0 1-1.94 2h-8.84c-.36 0-.73-.1-1.1-.33-.39-.22-.62-.5-.71-.8l-1.07-2.15a28.42 28.42 0 0 1-6.13 3.02 21.24 21.24 0 0 1-6.94 1.07c-4.33 0-7.58-1.17-9.74-3.52-2.17-2.34-3.25-5.75-3.25-10.21V74.69c0-.54.2-1 .6-1.37.4-.38.87-.57 1.41-.57h11.46c.53 0 1 .19 1.4.57.4.38.6.83.6 1.37v20.7c0 2.95.85 4.42 2.55 4.42.35 0 .81-.05 1.37-.17.56-.11 1.2-.3 1.91-.57h-.06c.57-.27 1.12-.5 1.64-.7.5-.2.99-.41 1.44-.64V74.7c0-.54.2-1 .6-1.37.4-.38.87-.57 1.4-.57h11.46c.54 0 1 .19 1.37.57.38.38.57.83.57 1.37v34.57ZM206.9 111.26a1.94 1.94 0 0 1-1.88-2V74.69c0-.54.19-1 .57-1.37.38-.38.81-.57 1.3-.57h7.84c.36 0 .72.13 1.07.4.36.27.58.58.67.94l1.41 4.62a20.83 20.83 0 0 1 4.72-5.06 8.68 8.68 0 0 1 5.2-1.77c.8 0 1.56.16 2.27.5a8.8 8.8 0 0 1 4.15 4.05l-2.8 10.85c-.23.85-.72 1.37-1.48 1.54-.76.18-1.4-.08-1.94-.8-1.17-1.52-2.24-2.28-3.22-2.28-.8 0-1.7.5-2.68 1.48a20.6 20.6 0 0 0-2.21 2.47v19.57a1.95 1.95 0 0 1-1.94 2h-11.06ZM259.71 109.26a7.5 7.5 0 0 1-.7-.74c-2 1.03-4.15 1.87-6.43 2.54-2.28.67-4.6 1-6.97 1-4.64 0-8.18-1.09-10.61-3.28-2.44-2.18-3.65-5.13-3.65-8.84 0-3.97 1.85-7.23 5.56-9.78 1.83-1.2 3.9-2.13 6.19-2.78a24 24 0 0 1 7.67-.77l5.63.27c-.05-1.38-.52-2.41-1.4-3.08-.9-.67-2.13-1-3.7-1-1.15 0-2.27.08-3.34.26-1.07.18-2.17.5-3.28.94-1.03.4-1.97.78-2.82 1.14-.85.36-1.65.71-2.41 1.07-.5.27-1.02.3-1.57.1-.56-.2-.95-.57-1.18-1.1l-2.54-5.83a1.98 1.98 0 0 1-.04-1.2c.12-.45.28-.79.5-1.01.5-.45 1.27-.95 2.32-1.51a34.63 34.63 0 0 1 9.41-3.31c1.83-.36 3.78-.54 5.83-.54 3.3 0 6.16.3 8.57.9 2.41.6 4.4 1.56 5.96 2.85a11.57 11.57 0 0 1 3.49 5.06 22.04 22.04 0 0 1 1.14 7.53v13.74l.46.4.47.33c.5 0 .9.13 1.24.37a1.95 1.95 0 0 1 .77 2.04c-.09.4-.33.76-.73 1.07l-7.1 5.9a8.9 8.9 0 0 1-5.9-2l-.84-.74Zm-4.12-9.01 1-.44v-3.15h-.2c-6.82 0-10.24 1.1-10.24 3.28 0 1.12 1.14 1.68 3.42 1.68 1.74 0 3.35-.3 4.82-.87l1.2-.5ZM289.15 58.75c.45 0 .83.2 1.14.6.31.4.47.87.47 1.4v48.5c0 .54-.16 1.01-.47 1.41-.31.4-.7.6-1.14.6h-10.78c-.5 0-.9-.2-1.2-.6-.32-.4-.48-.87-.48-1.4v-48.5c0-.54.16-1 .47-1.4.31-.41.72-.61 1.2-.61h10.8Z"/><g><path class="cls-10" d="M350.62 101.92a15.2 15.2 0 0 1-4.69 5.56 22.06 22.06 0 0 1-7.43 3.42 38.41 38.41 0 0 1-9.89 1.17 72.54 72.54 0 0 1-13.86-1.34v.07a79.4 79.4 0 0 1-3.32-.64c-.91-.2-1.62-.35-2.1-.44-.4-.08-.77-.3-1.08-.67a2.06 2.06 0 0 1-.53-1.13l-1.08-12.73c-.09-.85.18-1.49.8-1.91.63-.43 1.33-.46 2.08-.1a90.8 90.8 0 0 0 9.12 3.68 34.84 34.84 0 0 0 10.91 2.01c2.01 0 3.63-.24 4.86-.74 1.23-.49 1.84-1.2 1.84-2.14 0-.5-.36-.98-1.07-1.47-1.16-.72-3.8-1.48-7.9-2.28-7.73-1.56-13.09-3.6-16.08-6.1-3.26-2.68-4.9-6.43-4.9-11.25 0-5.63 2-9.9 6-12.8 4-2.9 9.57-4.35 16.72-4.35 3.12 0 6.45.32 9.98.94 1.7.31 3.18.6 4.45.87 1.28.27 2.34.54 3.18.8.36.1.69.32.98.67.29.36.45.72.5 1.08l1.34 11.72c.09.85-.18 1.5-.8 1.97-.63.47-1.32.5-2.08.1a56.62 56.62 0 0 0-4.36-1.87 68.56 68.56 0 0 0-4.75-1.6 33 33 0 0 0-8.91-1.42c-2.01 0-3.56.16-4.66.47-1.1.32-1.64.85-1.64 1.61 0 .72.56 1.27 1.68 1.68 1.02.35 2.27.75 3.75 1.17 1.47.42 3.21.81 5.22 1.17 7.24 1.43 12.2 3.48 14.87 6.16 3 2.86 4.5 6.52 4.5 10.99 0 2.9-.56 5.46-1.65 7.67ZM379.53 100.04c.3.43.7.64 1.2.64 1.12 0 2.12-.16 3.01-.47.9-.31 1.59-.58 2.08-.8a1.72 1.72 0 0 1 1.84.13c.56.4.84.98.84 1.74v7.98c0 .35-.11.72-.33 1.1-.23.38-.5.61-.8.7a8.7 8.7 0 0 1-1.72.6 43.86 43.86 0 0 1-5.33 1.14c-.89.14-1.78.2-2.67.2-4.78 0-8.25-.91-10.42-2.74-2.16-1.83-3.25-4.91-3.25-9.24V83.93h-5.42c-.5 0-.94-.2-1.34-.6a2 2 0 0 1-.6-1.47v-7.17c0-.58.2-1.06.6-1.44.4-.38.85-.57 1.34-.57h5.42v-8.3c0-.5.17-.95.5-1.34.34-.4.73-.63 1.18-.68l11.18-1.94a1.7 1.7 0 0 1 1.61.44c.45.42.67.95.67 1.57l-.07 10.25h7.5a1.95 1.95 0 0 1 1.94 2.01v7.17c.01.58-.18 1.07-.56 1.47-.38.4-.84.6-1.37.6h-7.5v14.2c0 .85.15 1.49.47 1.91ZM419.01 109.26a7.43 7.43 0 0 1-.7-.74 36.87 36.87 0 0 1-6.43 2.54c-2.28.67-4.6 1-6.97 1-4.64 0-8.18-1.09-10.62-3.28-2.43-2.18-3.65-5.13-3.65-8.84 0-3.97 1.86-7.23 5.56-9.78a22 22 0 0 1 6.2-2.78 24 24 0 0 1 7.67-.77l5.63.27c-.05-1.38-.52-2.41-1.41-3.08-.9-.67-2.12-1-3.69-1-1.16 0-2.27.08-3.35.26-1.07.18-2.16.5-3.28.94-1.03.4-1.96.78-2.81 1.14-.85.36-1.65.71-2.41 1.07-.5.27-1.02.3-1.58.1-.55-.2-.95-.57-1.17-1.1l-2.54-5.83a1.98 1.98 0 0 1-.04-1.2c.11-.45.28-.79.5-1.01.5-.45 1.27-.95 2.32-1.51a34.56 34.56 0 0 1 9.41-3.31 30.5 30.5 0 0 1 5.83-.54c3.3 0 6.16.3 8.57.9 2.41.6 4.4 1.56 5.96 2.85a11.59 11.59 0 0 1 3.48 5.06 22.04 22.04 0 0 1 1.14 7.53v13.74l.47.4.47.33a2.03 2.03 0 0 1 1.95 1.27c.13.36.15.74.06 1.14-.09.4-.33.76-.74 1.07l-7.1 5.9a8.9 8.9 0 0 1-5.89-2l-.84-.74Zm-4.12-9.01 1-.44v-3.15h-.2c-6.83 0-10.24 1.1-10.24 3.28 0 1.12 1.14 1.68 3.41 1.68 1.74 0 3.35-.3 4.82-.87l1.21-.5ZM454.41 100.04c.31.43.72.64 1.21.64a9.1 9.1 0 0 0 3.01-.47c.9-.31 1.59-.58 2.08-.8a1.72 1.72 0 0 1 1.84.13c.56.4.84.98.84 1.74v7.98c0 .35-.11.72-.33 1.1-.23.38-.5.61-.8.7-.46.23-1.03.43-1.72.6a44.35 44.35 0 0 1-5.33 1.14c-.89.14-1.78.2-2.67.2-4.78 0-8.25-.91-10.42-2.74-2.16-1.83-3.25-4.91-3.25-9.24V83.93h-5.42c-.5 0-.94-.2-1.34-.6a2 2 0 0 1-.6-1.47v-7.17c0-.58.2-1.06.6-1.44.4-.38.85-.57 1.34-.57h5.42v-8.3c0-.5.17-.95.5-1.34.34-.4.73-.63 1.18-.68l11.18-1.94c.63-.13 1.16.01 1.61.44.45.42.67.95.67 1.57l-.07 10.25h7.5a1.95 1.95 0 0 1 1.94 2.01v7.17c0 .58-.18 1.07-.56 1.47-.38.4-.84.6-1.38.6h-7.5v14.2c0 .85.16 1.49.47 1.91ZM498.96 108.72c-.8.54-1.73 1-2.78 1.4-1.05.4-2.18.75-3.38 1.04a33.23 33.23 0 0 1-7.64.9c-6.56 0-11.82-1.82-15.74-5.48-3.93-3.67-5.9-8.76-5.9-15.28 0-5.62 1.76-10.27 5.3-13.93 3.52-3.7 7.99-5.56 13.39-5.56s9.78 1.87 13.13 5.63c3.21 3.61 4.82 8.37 4.82 14.26v2.95c0 .54-.19 1-.57 1.4-.37.41-.83.61-1.37.61h-19.09c.36.76.76 1.34 1.2 1.74 1.35 1.34 3.64 2.01 6.9 2.01 1.61 0 3.15-.2 4.63-.6.8-.22 1.43-.4 1.87-.54.45-.13.76-.24.94-.33.5-.22 1-.22 1.5 0 .52.22.89.58 1.11 1.07l2.48 6.3-.8 2.4Zm-20.43-20.97h6.96a8.3 8.3 0 0 0-1.13-3.65c-.59-.87-1.32-1.3-2.22-1.3-1.2 0-2.1.6-2.67 1.8-.45.85-.76 1.9-.94 3.15Z"/></g></g></g><g><path class="cls-2" d="M50.02 119.03c.68 0 1.26.26 1.75.77.48.51.72 1.14.72 1.88v43.91c0 6.96-2.39 12.68-7.17 17.18-4.67 4.33-10.74 6.5-18.2 6.5-3.99 0-8.12-.69-12.39-2.06-2.1-.68-3.8-1.25-5.08-1.7a16.7 16.7 0 0 1-2.78-1.2 2.56 2.56 0 0 1-.81-.9 3.57 3.57 0 0 1-.47-1.07L3.1 162.86a2.53 2.53 0 0 1 1.4-2.82 2.53 2.53 0 0 1 3.03.68c.92 1.09 2.75 2.4 5.48 3.93a16.14 16.14 0 0 0 8.12 2.14c5.35 0 8.03-2.45 8.03-7.35v-37.76c0-.74.25-1.37.77-1.88.51-.51 1.1-.77 1.8-.77h18.28ZM122.22 186.7c-.4 0-.85-.14-1.33-.43a2.24 2.24 0 0 1-.98-1.02l-4.36-8.38H83.51l-4.36 8.38c-.23.4-.57.74-1.02 1.02-.46.29-.91.43-1.37.43H59.07c-1.14 0-1.96-.4-2.48-1.2-.5-.8-.48-1.68.09-2.65l35.12-61.77a2.4 2.4 0 0 1 1.02-.94 2.8 2.8 0 0 1 1.28-.43h15.13c.4 0 .82.14 1.28.43.45.29.8.63 1.03 1.02l33.06 61.78c.46.97.46 1.84 0 2.6-.46.77-1.25 1.16-2.4 1.16h-19.98Zm-30.34-24.87h15.9l-7.7-14.86-8.2 14.86ZM161.69 153.72c0 2.62.47 4.97 1.4 7.05a15.35 15.35 0 0 0 3.98 5.34c3.65 3.07 8.66 4.61 15.04 4.61 4.38 0 8.63-.51 12.73-1.54h-.17l5.85-1.7a46.94 46.94 0 0 0 4.66-1.63 2.54 2.54 0 0 1 2.48.26 2.54 2.54 0 0 1 1.1 2.22l-.25 12.81c0 .46-.17.93-.51 1.42-.34.48-.74.8-1.2.98a65.85 65.85 0 0 1-12.86 3.16c-4.64.68-9.67 1.03-15.08 1.03-12.59 0-22.44-2.85-29.56-8.55-7.46-5.8-11.2-14.13-11.2-24.95 0-5.81.89-10.94 2.66-15.38a28.94 28.94 0 0 1 7.77-11.2 34.33 34.33 0 0 1 12.56-6.87c4.96-1.56 10.6-2.35 16.92-2.35 5.52 0 10.45.36 14.78 1.07 4.33.71 8.03 1.58 11.1 2.6.46.12.86.4 1.2.86.34.46.54.91.6 1.37l.94 12.56c.11 1.02-.2 1.8-.94 2.35-.74.54-1.57.64-2.48.3-2.5-.92-5.72-1.88-9.65-2.9a53.3 53.3 0 0 0-5.77-1.2c-1.9-.29-3.83-.43-5.77-.43-6.38 0-11.35 1.62-14.9 4.87-3.57 3.24-5.35 7.86-5.35 13.84h-.08ZM215.09 186.7c-.69 0-1.28-.26-1.8-.77a2.47 2.47 0 0 1-.77-1.8v-61.86c0-.68.26-1.27.77-1.79a2.46 2.46 0 0 1 1.8-.77h18.54c.68 0 1.28.26 1.8.77.5.52.76 1.11.76 1.8v21.27l20.17-22.98c.17-.17.48-.36.94-.56.45-.2.8-.3 1.02-.3h19.83c.56 0 1.08.14 1.53.43.46.29.79.66.98 1.11.2.46.27.94.22 1.45-.06.51-.29.97-.68 1.37l-24.02 26.4 32.56 31.79a3 3 0 0 1 .85 1.45c.12.51.07 1-.12 1.45-.2.46-.52.83-.94 1.11a2.8 2.8 0 0 1-1.59.43h-22.98c-.23 0-.55-.08-.98-.26a5.08 5.08 0 0 1-.9-.42L236.2 160.8v23.33c0 .68-.25 1.28-.77 1.8-.5.5-1.1.76-1.79.76H215.1ZM316.85 162.78v21.36c0 .68-.26 1.28-.77 1.8-.51.5-1.14.76-1.88.76H296.1c-.69 0-1.3-.26-1.84-.77a2.4 2.4 0 0 1-.81-1.8v-61.86c0-.68.25-1.27.77-1.79a2.46 2.46 0 0 1 1.79-.77h25.2c5.42 0 10.17.39 14.28 1.16 4.1.76 7.51 2 10.25 3.71a16.83 16.83 0 0 1 6.2 6.63c1.39 2.7 2.09 5.96 2.09 9.78 0 7.57-2.4 13.14-7.18 16.7-4.78 3.56-11.85 5.29-21.19 5.17l-8.8-.08Zm-.09-27.43v12.13l4.36.17c6.9.29 10.34-1.8 10.34-6.24a5.7 5.7 0 0 0-2.56-5c-1.71-1.16-4.1-1.63-7.18-1.4l-4.96.34ZM427.92 179.18c-6.78 5.7-16.77 8.55-29.99 8.55-13.21 0-23.21-2.85-29.99-8.55-6.78-5.7-10.16-14.38-10.16-26.06 0-11.68 3.38-20.38 10.16-26.1 6.78-5.73 16.78-8.59 30-8.59 13.2 0 23.2 2.86 29.98 8.59 6.78 5.72 10.17 14.42 10.17 26.1 0 11.68-3.39 20.37-10.17 26.06Zm-17.73-37.12c-2.81-2.48-6.9-3.72-12.26-3.72-5.35 0-9.43 1.24-12.21 3.72-2.8 2.47-4.2 6.16-4.2 11.06s1.4 8.59 4.2 11.06c2.78 2.48 6.86 3.72 12.21 3.72 5.36 0 9.45-1.24 12.26-3.72 2.82-2.47 4.23-6.16 4.23-11.06s-1.4-8.59-4.23-11.06ZM465.26 186.7c-.68 0-1.28-.26-1.8-.77a2.47 2.47 0 0 1-.76-1.8v-47.58H445c-.74 0-1.35-.26-1.83-.77a2.64 2.64 0 0 1-.73-1.88v-11.63c0-.68.24-1.27.73-1.79.48-.51 1.1-.77 1.83-.77h59.13c.74 0 1.36.26 1.88.77.51.52.76 1.11.76 1.8v11.62c0 .74-.25 1.36-.76 1.88-.52.5-1.14.77-1.88.77h-17.6v47.59a2.55 2.55 0 0 1-2.57 2.56h-18.71Z"/><g><path class="cls-11" d="M50.02 119.03c.68 0 1.26.26 1.75.77.48.51.72 1.14.72 1.88v43.91c0 6.96-2.39 12.68-7.17 17.18-4.67 4.33-10.74 6.5-18.2 6.5-3.99 0-8.12-.69-12.39-2.06-2.1-.68-3.8-1.25-5.08-1.7a16.7 16.7 0 0 1-2.78-1.2 2.56 2.56 0 0 1-.81-.9 3.57 3.57 0 0 1-.47-1.07L3.1 162.86a2.53 2.53 0 0 1 1.4-2.82 2.53 2.53 0 0 1 3.03.68c.92 1.09 2.75 2.4 5.48 3.93a16.14 16.14 0 0 0 8.12 2.14c5.35 0 8.03-2.45 8.03-7.35v-37.76c0-.74.25-1.37.77-1.88.51-.51 1.1-.77 1.8-.77h18.28ZM122.22 186.7c-.4 0-.85-.14-1.33-.43a2.24 2.24 0 0 1-.98-1.02l-4.36-8.38H83.51l-4.36 8.38c-.23.4-.57.74-1.02 1.02-.46.29-.91.43-1.37.43H59.07c-1.14 0-1.96-.4-2.48-1.2-.5-.8-.48-1.68.09-2.65l35.12-61.77a2.4 2.4 0 0 1 1.02-.94 2.8 2.8 0 0 1 1.28-.43h15.13c.4 0 .82.14 1.28.43.45.29.8.63 1.03 1.02l33.06 61.78c.46.97.46 1.84 0 2.6-.46.77-1.25 1.16-2.4 1.16h-19.98Zm-30.34-24.87h15.9l-7.7-14.86-8.2 14.86ZM161.69 153.72c0 2.62.47 4.97 1.4 7.05a15.35 15.35 0 0 0 3.98 5.34c3.65 3.07 8.66 4.61 15.04 4.61 4.38 0 8.63-.51 12.73-1.54h-.17l5.85-1.7a46.94 46.94 0 0 0 4.66-1.63 2.54 2.54 0 0 1 2.48.26 2.54 2.54 0 0 1 1.1 2.22l-.25 12.81c0 .46-.17.93-.51 1.42-.34.48-.74.8-1.2.98a65.85 65.85 0 0 1-12.86 3.16c-4.64.68-9.67 1.03-15.08 1.03-12.59 0-22.44-2.85-29.56-8.55-7.46-5.8-11.2-14.13-11.2-24.95 0-5.81.89-10.94 2.66-15.38a28.94 28.94 0 0 1 7.77-11.2 34.33 34.33 0 0 1 12.56-6.87c4.96-1.56 10.6-2.35 16.92-2.35 5.52 0 10.45.36 14.78 1.07 4.33.71 8.03 1.58 11.1 2.6.46.12.86.4 1.2.86.34.46.54.91.6 1.37l.94 12.56c.11 1.02-.2 1.8-.94 2.35-.74.54-1.57.64-2.48.3-2.5-.92-5.72-1.88-9.65-2.9a53.3 53.3 0 0 0-5.77-1.2c-1.9-.29-3.83-.43-5.77-.43-6.38 0-11.35 1.62-14.9 4.87-3.57 3.24-5.35 7.86-5.35 13.84h-.08ZM215.09 186.7c-.69 0-1.28-.26-1.8-.77a2.47 2.47 0 0 1-.77-1.8v-61.86c0-.68.26-1.27.77-1.79a2.46 2.46 0 0 1 1.8-.77h18.54c.68 0 1.28.26 1.8.77.5.52.76 1.11.76 1.8v21.27l20.17-22.98c.17-.17.48-.36.94-.56.45-.2.8-.3 1.02-.3h19.83c.56 0 1.08.14 1.53.43.46.29.79.66.98 1.11.2.46.27.94.22 1.45-.06.51-.29.97-.68 1.37l-24.02 26.4 32.56 31.79a3 3 0 0 1 .85 1.45c.12.51.07 1-.12 1.45-.2.46-.52.83-.94 1.11a2.8 2.8 0 0 1-1.59.43h-22.98c-.23 0-.55-.08-.98-.26a5.08 5.08 0 0 1-.9-.42L236.2 160.8v23.33c0 .68-.25 1.28-.77 1.8-.5.5-1.1.76-1.79.76H215.1ZM316.85 162.78v21.36c0 .68-.26 1.28-.77 1.8-.51.5-1.14.76-1.88.76H296.1c-.69 0-1.3-.26-1.84-.77a2.4 2.4 0 0 1-.81-1.8v-61.86c0-.68.25-1.27.77-1.79a2.46 2.46 0 0 1 1.79-.77h25.2c5.42 0 10.17.39 14.28 1.16 4.1.76 7.51 2 10.25 3.71a16.83 16.83 0 0 1 6.2 6.63c1.39 2.7 2.09 5.96 2.09 9.78 0 7.57-2.4 13.14-7.18 16.7-4.78 3.56-11.85 5.29-21.19 5.17l-8.8-.08Zm-.09-27.43v12.13l4.36.17c6.9.29 10.34-1.8 10.34-6.24a5.7 5.7 0 0 0-2.56-5c-1.71-1.16-4.1-1.63-7.18-1.4l-4.96.34ZM427.92 179.18c-6.78 5.7-16.77 8.55-29.99 8.55-13.21 0-23.21-2.85-29.99-8.55-6.78-5.7-10.16-14.38-10.16-26.06 0-11.68 3.38-20.38 10.16-26.1 6.78-5.73 16.78-8.59 30-8.59 13.2 0 23.2 2.86 29.98 8.59 6.78 5.72 10.17 14.42 10.17 26.1 0 11.68-3.39 20.37-10.17 26.06Zm-17.73-37.12c-2.81-2.48-6.9-3.72-12.26-3.72-5.35 0-9.43 1.24-12.21 3.72-2.8 2.47-4.2 6.16-4.2 11.06s1.4 8.59 4.2 11.06c2.78 2.48 6.86 3.72 12.21 3.72 5.36 0 9.45-1.24 12.26-3.72 2.82-2.47 4.23-6.16 4.23-11.06s-1.4-8.59-4.23-11.06ZM465.26 186.7c-.68 0-1.28-.26-1.8-.77a2.47 2.47 0 0 1-.76-1.8v-47.58H445c-.74 0-1.35-.26-1.83-.77a2.64 2.64 0 0 1-.73-1.88v-11.63c0-.68.24-1.27.73-1.79.48-.51 1.1-.77 1.83-.77h59.13c.74 0 1.36.26 1.88.77.51.52.76 1.11.76 1.8v11.62c0 .74-.25 1.36-.76 1.88-.52.5-1.14.77-1.88.77h-17.6v47.59a2.55 2.55 0 0 1-2.57 2.56h-18.71Z"/></g><path class="cls-1" d="M412.05 171.86Zm17.19-32.8a.14.14 0 0 1-.02-.05l-.05-.13-.02-.05-.05-.06-.16-.13-.06-.06-.12-.1-.04-.02-.11-.06-.12-.08-.05-.04-.04-.07-.01-.03-.01-.06.01-.14v-.01l-.11-.1-.03-.05-.02-.04h-.41l-.39.02-.6.01-.11.01h-.08l-.23.01h-.05l-.5.02H425.58l-.26.02-.65.02h-.55l-.08.01h-.09l-.08.01h-.36l-.2.02h-.2l-.59.02h-.45l-.01.02v-.01H422l-.52.01-.04.01h-.39l.07-.11.05-.08.02-.05v-.01l.08-.06.06-.1v-.04l.01-.04.02-.05v-.1h.02l.04-.03.04-.04.02-.01.01-.05v-.1h.01v-.03l.03-.09.13-.05.03-.06v-.05l-.02-.02v-.02l-.01-.06v-.01l.01-.03.01-.01.07-.06H421.83v-.01l.07-.05.02-.06v-.05l.03-.09.01-.01h.01l.02-.01.15-.05h.07l.06-.04.05-.1h.1l.04-.03.03-.04.02-.05.03-.02.06-.02.01-.03.03-.08v-.09l-.04-.07.05-.1v-.04l.01-.06.1-.16h.06l.02.02h.02l.08-.05.04-.06v-.01h-.01v-.05l.02-.01h.03l.02-.05v-.02h.06l.01-.05.01-.01.02.01h.03l.01-.01.03-.04.07-.03.06-.04.07-.03h.03l.02.02.04-.02.01-.05.1-.11v-.01h.06l.03.01h.03l.05-.04h.01l.02-.06-.01-.02h-.02l-.03-.06-.01-.03.01-.01h.05v-.02h.01l.06-.13v-.04c.02-.01.02-.03.02-.03v-.01l.02-.08.02-.02h.09l.05-.04.1-.03h.08v-.02l.09-.12-.03-.1.07-.07.01-.01.06-.11v-.01l-.02-.06v-.02l-.03-.05-.08-.08h-.02v.01h-.02l-.01-.03v-.01l-.02-.01.01-.05.03-.04.02-.04v-.04h.01v-.01l-.02-.02v-.07h.03v-.04l-.03-.05v-.02l.02-.01h.01l.04-.08.05-.05.01-.08v-.02l.01-.08v-.12l-.06-.09-.04-.06h-.01l-.03-.04-.01-.02-.01-.02h-.01l-.02-.02-.15-.05h-.16l-.07-.02v-.03l-.07-.03-.08-.01-.03-.04h-.04v.01h-.04v-.02h.02v-.01l.01-.01v-.04l.01-.03h-.01l-.02.01h-.02l-.05-.05v-.09H423.62v-.01l.03-.06h.01v-.03l-.01-.04-.01-.01v-.01l-.01-.06v-.06l-.01.01v-.06l-.03-.03-.02-.04v-.03h-.16v-.05l.03-.06.01-.01.04.01.02.01h.04v-.08h-.06l-.12-.04v-.03l.02-.04v-.01l-.02-.02v-.02h.02l.01-.02v-.02h-.03v-.05h.05v-.04h-.83l-.17.01h-.22l-.3.01h-.53l-.95.02H420.26l-.3.01h-.37l-.83.02H418.05l-.1.01h-.49l-.2.01-.6.01h-.94l-.15.01-.1.01H414.13l-.1.02h-1.17l-.2.01-1 .02h-.2l-1.01.01h-.87l-.01.01h-.79l-.24-.02H407.24l-.15.01h-.13.01-2.15l-.3.01h-.03.01H400.11v.01h-.97l-.22.01h-.16l-.39-.01h-.15l-.11-.01h-4.97l-.25-.02h-1.08l-.6-.02h-.22.01-1.47l-.83-.03H388.47h.02-.79l-.1-.01h-.5l-.23-.01h-.35l-.17-.01h-.85l-1.05-.03h-.23.01-.4l-.18-.01h-.02l-.89-.01h.01-.07l-.29-.01h-.45l-.17-.01h.01H381.3l-.08-.01h-.37l-.8-.02h-.26l-.11-.01h-.23l-.49-.02h-.23l-.8-.02h-.08l-.1-.01h-.48l-.12-.01h-.24l-.25-.02h-.7l-.06-.01h-.31l-.43-.01h-.04l-.35-.02h-.05l-.63-.01h-.01l.02.19.01.11.01.06v.05l.01.1.03.27.02.2v.07l.04.23v.05l.01.1v.06a.1.1 0 0 1 .01.04l.01.12.01.02.03.39v.07l.07.6.01.12.02.13v.04l.03.22v.01l.02.17v.01l.02.12V134.58l.01.04.02.11v.15h.01l.02.2v.1l.01.03.01.05v.03l.01.04v.06l.02.1v-.01.08l.03.13V135.8l.07.56h.01v.01l.03.33.04.36.08.6v.07l.02.08v.12l.04.3.04.28v.05l.02.08v.06l.04.35v.07-.01l.05.39.03.26v.09l.01.02.01.01v.17l.03.1v.13h.01l.01.14.01.04v.01l.01.08v.07l.03.16.01.11v.05l.02.1v.04l.05.4v.05l.03.26v.1l.02.02h-.01l.1.82v.07l.01.04v.02l.05.47v.04l.02.04v.08l.04.3.03.27v.02l.01.09.05.49v.02l.04.3.02.2v.07l.01.02v.03l.02.07.04.34.03.27h.02l-.01.03v.01l.01.06-.01.03-.02.06v.16l.01.09v.24l-.01.03V146.85l-.02.14v.16l-.01.02V147.3l-.02.2v.16-.01.07l-.01.02v.04l-.02.3-.01.1-.01.04v.25l-.01.14v.03-.01.1l-.02.06V149.24l-.03.48-.02.12v.12l-.03.67-.05.84v.04l-.02.27-.02.6-.04.52V153.2l-.01.19v.11l-.02.3-.04.64v.25l-.02.2v.14l-.01.04v.02l-.01.1-.01.18v.14l-.01.16v.1-.01.01l-.01.1-.03.5v-.01.26l-.01.1v.04l-.04.91v.04h-.01v.14l-.02.3v.08l-.04.82v.05l-.02.32v.21l-.01.02-.01.34v.03l-.02.23v.1l-.06 1.4-.02.24-.01.17v.07l-.02.33v.27l-.01.16-.02.36-.02.4-.05 1.11v.03l-.04.86v.04l-.01.18v.04l-.05.77V167.12h-.01v.07l-.02.29v.09l-.01.28v.1l-.02.09-.01.45V168.56l-.02.2V168.88l-.01.14v.08l-.02.27v.05l-.02.33v.14l-.01.2h.11l.1.04.01-.01.01-.01.04-.08.03-.02h.05l.07.03.02.04v.06l-.02.02-.12.03-.03.01v.08h.01v.01l.06.02h.03v.09l-.03.03-.08.06-.08.04-.03.04v.03l.04.03.1.01h.01l.04.09h.01l.02.01h.03v.01h.08l.03-.04.12.04.02.03.02.04.14.24h.01l.03.01H375.55l.07-.04.13-.14.04-.02.04.04.01.05v.09l-.02.02-.03.03-.07.02h-.04l-.03.02-.03.02-.03.03v.06l.02.02.06.04.03.06.04.02.05.02h.11v-.01h.13l.02.03h.03l.08-.07.02-.03v-.02l-.05-.11v-.03l.07-.07h.09l.04.06v.01l.01.07.01.03.01.02h.01l.01.01.03.02.04.02.05.02.1-.04h.01l.04-.05v-.05l.04-.12.03-.07.03-.04.06-.06.05-.02h.06l.02.02.02.05v.04l-.02.03-.1.06-.01.06v.06l.02.02H377l.02-.01.02-.04.02-.02v-.03l.07-.11.02-.05.07-.07.06-.05.07-.05h.07l.04.03.01.02-.01.08-.02.04v.01l-.07.05-.07.1v.01l-.02.05v.04h.01v.02h.01l.14.05.05.02h.01l.07-.02.04-.01.04-.02.06-.1.07-.05h.06v.06h.01l.01.07.02.02h.02v.01h.01l.04-.01.02-.02.01-.06-.02-.1-.02-.05-.02-.01-.05-.02h-.04l-.04.02h-.04l-.06-.04-.01-.04v-.02l.03-.03.02-.01h.03l.06.03.02.01h.07l.01-.01.02-.01.04-.07.04-.05.05-.04.03.03.06.02.16.03.02.01-.02.1v.02l.05.05h.05l.04-.06.04-.02h.04v.06l-.04.03-.04.03-.02.02v.05l.02.03.04.01h.02l.07-.08h.03l.01.03.02.15.01.06v.01l.03.02h.02l.03-.01v-.01l.04-.1V171.16h.09l.1-.04h.01l.04-.04h.03l.1-.03h.08l.1.04v-.02h.06v.06l.01.01h.07l.05.02.01.01v.1l-.05.02h-.02l-.06-.02H379.33v.01l-.01.01v.05h.01l.03.02.04.03.04.02.07-.01.05-.03.02.02h.05l.02-.02V172.24l-.01.26v.78l-.01.1-.01.09v.38l-.01.18v.38l-.02.81V175.63l-.01.36v.2l-.02.55v.36l-.02.57v.18l-.01.81h.2l.84.02.65.01h.05l.88.02h.12l.93.02h.55l.75.02.92.02h.48l.26.01h.33l.49.01h.04l.17.01h.43l.37.01.8.01h.44l.04.01h.89l.2.02h.01v-.01h.35l.94.02H392.02l.1.01h.66l.3.02h.27l.15.01h.4l.73.02H395.1l1.87.04h1.04l.55.03v-.01l.25.01h.4-.01.5l.81.02h-.01.4l1.37.02h1.06l.3.01h1.75l-.01-.01.53.01.23-.01h6.55V178.93l.05-.11.06-.06.09-.03.08-.02.05-.02.1-.07.04-.06.02-.11.04-.12v-.01l-.02-.04-.03-.07-.14-.1-.07-.07a.18.18 0 0 1-.03-.03l-.05-.03-.13-.05v-.01h-.06l-.06-.02-.03-.03-.01-.03-.08-.09-.05-.03-.02-.01-.1-.04h-.02l-.02-.03-.02-.03v-.01l-.01-.16v-.05l.07-.14.03-.03.05-.04.06-.03.17-.02.08.01.02.02.09.08v.04l.03.01.07.02H413.27l.11-.03.13-.07.04-.04.02-.08.02-.14v-.08l.01-.26v-.01l-.03-.23v-.01l-.04-.15-.02-.15h.01l.06-.01h.04l.03-.03v-.04l.02-.01h.08v-.03l.03-.05h.03l.02-.06.1-.12.04-.07h.01l.03-.12.03-.07.01-.06v-.07l-.01-.06-.03-.05-.05-.03-.07-.02h-.16l-.06.05-.03.02-.01.01-.03.03-.02.07-.05.22-.01.04-.04.06-.02.12-.02.05h-.03l-.07-.05-.04-.05-.05-.1v-.02l-.01-.01-.03-.08v-.01l-.01-.01-.11-.08v-.01l.02-.08v-.07l-.16-.23-.02-.04v-.2l-.03-.2v-.02l.02-.04V174.3l.01-.02.18-.13.05-.05.18-.22.06-.07.05-.06.04-.03.01-.01a15 15 0 0 1 .08-.08l.09-.1h.01l.14-.21.03-.08.01-.02.01-.23-.02-.06v-.02l-.06-.03-.03-.02h-.12l-.04.01-.05.04-.04.04-.02.03-.03.05-.02.06-.01.06v.11l-.03.1-.03.1-.1.13-.08.07-.1.09-.17.12h-.01l-.14.02-.13.01-.07-.02-.06-.02-.06-.03-.1-.06-.02-.02-.14-.1-.04-.05v-.02l-.01-.04v-.04l.04-.07.03-.04.04-.02h.09l.08-.02.06.03h.04l.03-.01.12-.06.18-.07h.09l.08-.04.02-.02v-.03l.02-.03.09-.1.02-.08v-.06l-.01-.09-.06-.17-.14-.11-.23-.16H412.58v.02l-.03.03v.13l-.03.1v.01l.05.13.03.13-.09.12-.05.05a.17.17 0 0 0-.06.03l-.1.03-.04.01-.07.02H412.04l-.04-.02-.16-.04-.01-.03.02-.02v-.03l.01-.13.01-.04.1-.09h.04l.04-.02.09-.06.01-.02.02-.04.07-.14.04-.07.08-.06.03-.05.01-.06v-.05l-.01-.03-.01-.04-.33-.26-.04-.04-.08-.13-.04-.08-.02-.01-.01-.06-.01-.07.01-.04.01-.01.03-.05.05-.04h.05l.19-.05.06-.01.1-.06.1-.07.02-.02h.03l.17.02h.04l.06-.03h.01l.15-.1V171l.04-.05.03-.03v-.03l.01-.1v-.06l-.04-.11v-.01l-.05-.08h-.01l-.13-.1-.15-.13-.08-.07h-.03l-.05-.04h-.02l-.06-.03h-.03l-.27-.07-.08-.03H412l-.02-.02-.03-.03-.04-.06-.02-.03-.02-.09.02-.08.03-.06v-.01l.05-.06.09-.07.01-.01h.01l.01-.01.04-.02h.02l.05-.02h.12l.17-.02.1-.03.05-.02h.02l.15.19.05.04.12.18.03.03.34.18.08.03.07.01h.04l.06-.01.13-.06.1-.05.1-.02h.04l.1-.05.03-.02.04-.08V169.67h-.02v-.02h-.04v-.05l-.03-.05-.02-.05-.07-.08-.06-.04-.03-.03-.02-.01v-.01l-.02-.02h-.02l-.05-.02h-.04l-.08.02-.17.1-.1.03h-.06l-.02.01H413.15l-.1-.05-.07-.08-.14-.17-.02-.02V169l.03-.14-.01-.03v-.04l.03-.05V168.68l-.02-.02h-.01l-.01-.03v-.05l.03-.09.03-.04.03-.04.03-.04.02-.02h.05l.06.02.06.05.04.03h.01l.02.03.04.05h.02l.2-.07.04-.01.28-.02.08-.01.31.2h.04l.12-.02.14-.06.07-.06.03-.05.02-.04.01-.06v-.05l-.03-.06-.1-.09-.09-.05-.14-.01-.05-.02-.21-.1-.05-.03-.03-.05-.04-.07-.04-.07-.1-.11-.03-.04-.05-.13-.01-.1v-.07l.02-.07.1-.15.08-.07.2-.22.12-.13.1-.15.08-.09v-.05l-.03-.04-.08-.06-.03-.01-.15-.08-.13-.05-.36-.08-.01-.02-.05-.01-.04-.03-.02-.04v-.03.01l-.01-.05v-.1l.02-.03.05-.06.05-.04.04-.02.05-.01h.26l.06-.04.04-.03.07-.08.16-.11.08.12.1.24.02.08.03.06.06.04.08.03.05.01h.07l.07-.03.03-.01.03-.03.02-.03.02-.12v-.05l-.1-.16-.09-.06-.02-.05-.1-.26.07-.03h.06l.07-.01.14.01.1.03h.08l.09-.02.12-.05h.03l.08.02.17-.03.08-.04V165l.03-.03.02-.03V164.83l-.02-.08v-.1l.01-.04.02-.04c.03-.02.05-.07.05-.07l.09-.11.02-.06.01-.06v-.08l-.06-.09-.03-.02-.04-.02-.06-.02h-.07l-.08.05-.15.03h-.04l-.05-.02-.28-.2-.02-.04-.08-.1v-.01l-.04-.07v-.07l.04-.13.2-.13.3-.24h.01l.07.02.11.04.13.13.07.05.1.07.04.03.13.03.06.01h.02l.11-.01.07-.03.05-.03.04-.03.07-.08.05-.08.04-.07v-.09l-.01-.1v-.02l-.02-.02-.02-.04h-.01l-.04-.02-.13-.02h-.11l-.11-.02-.1-.01-.03.01-.06.03-.07.02h-.04v-.01l-.04-.02H415.76l-.06.04-.05-.04-.23-.12-.04-.04-.2-.24-.03-.06-.02-.1V162.13l.04-.05.04-.06h.01l.07-.03.12.01.06.02.02.01.02.04.05.15.01.04.05.04.17.11.14.04h.12v.02h.02l.02.02.05.03h.02l.02-.05.03-.08.01-.02v-.02l.01-.04v-.18l.02-.17v-.02l.03-.13.01-.04v.01-.04l.02-.04v-.01l.01-.03.01-.02h.01v-.02h.01l.05-.04.05-.03.09-.02.02-.01.07-.03h.08l.17.02h.19a3.05 3.05 0 0 0 .12-.1l.02-.02.1-.17v-.01l.03-.06V161.06l-.02-.08-.02-.07h-.02c0-.04-.01-.04-.02-.05l-.01-.03h-.01v-.01l-.03-.02-.15-.12-.02-.04-.01-.03v-.19l.02-.02.04-.03.06-.04.08-.02.1.02.09.02.05.02h.2l.13-.03.1-.04h.1v.03l.02.05v.14l-.12.2-.02.12.02.1.02.04.05.04.09.04h.1l.08-.03v-.01l.04-.09v-.07l-.03-.1-.07-.18v-.11l.12-.21v-.01l-.04-.05.2-.11.07-.04.04-.01.14-.03.05-.03.38-.27.05-.06h.01l.04-.07.01-.02v-.01a.2.2 0 0 0 .02-.04l.02-.06.01-.06v-.01l-.01-.03v-.05h-.01l-.07-.15-.04-.04-.07-.05-.03-.04-.03-.12-.02-.2v-.1l.02-.07.01-.05.03-.04.03-.12v-.02l.02-.01v-.03l.11-.11.16-.1.1-.09.03-.03.02-.07.01-.04v-.03l-.06-.17-.04-.07-.1-.11a.75.75 0 0 1-.14-.15l-.05-.1-.08-.13-.07-.16-.02-.14.04-.14.01-.06v-.04l-.01-.05-.01-.06-.03-.18v-.08l.06-.13.04-.05.06-.04.07-.1.05-.03.08-.03.04.01.03.02.03.04.05.05.04.06.01.03.01.13-.02.04-.11.1-.03.05-.01.06-.01.12v.07l.03.06.05.07.04.03.08.01h.14l.08-.04.1-.07.06-.07.07-.1.1-.1.09-.06.1-.13.05-.07.03-.14v-.09h-.01l-.04-.06-.04-.04-.05-.02h-.24l-.15.04-.05.01H419.65l-.1-.01-.08-.05-.11-.12-.12-.14-.02-.03v-.14l.02-.05.02-.02.04-.04h.05l.04-.01.02-.01.03-.02.02-.02.02-.06.02-.03v-.16l-.06-.13-.01-.08v-.07l.04-.1.04-.06.04-.04.05-.02h.01v-.01h.02l.08-.02h.1l.02.08.1.22.04.07v.07l-.01.01-.05.07-.12.08v.01l-.03.06-.02.07v.06l.02.07.03.08.03.04h.01l.14.07h.14l.1-.01.11-.04.14-.07.03-.04v-.01l.02-.03v-.05l.01-.01v-.02l.01-.04a.4.4 0 0 1-.03-.1l-.06-.13-.13-.22-.04-.11v-.19a.13.13 0 0 0 .02-.04l.02-.02.04-.06.07-.05.03-.08v-.04l-.09-.15-.12-.2-.08-.1v-.01l-.02-.05-.02-.11v-.11l.06-.08.04-.05.1-.07h.01l.07-.01h.07l.1.05c.02 0 .04.02.05.03l.03.02.02.02.01.03.07.13v.04l.01.01v.03l-.03.09v.05l.02.08.02.1v.01l.05.09.02.01.08.02h.05l.03-.02h.01l.06-.03.02-.01h-.01.01l.22-.14.31-.1.04-.03.1-.07.09.1.1.08.05.02.08.02.01-.01.04-.02.03-.06.02-.05v-.03l-.01-.04h-.01v-.01l-.01-.02-.1-.14.04-.05.09-.07.25-.14.32-.24.02-.03.03-.07.01-.09v-.23l-.01-.05a.1.1 0 0 0-.01-.04v.02-.04l-.02-.02-.03-.05-.03-.05h-.01l-.03-.02h-.02l-.01-.01-.21-.1-.05-.03-.06-.07-.06-.03-.04-.02-.07-.07-.03-.05-.05-.15v-.08l-.01-.03v-.08l.03-.11.06-.15.05-.13.01-.03.01-.01.03-.02.3.02.03.01v.03l.01.01.06.03.3.03.06.02.1.05h.08l.1-.08.04-.07.03-.07v-.12l-.01-.07v-.08l.13-.4.05-.28.03-.09.02-.02.01-.01.05-.06.02-.01.06-.05.04-.03.13-.06h.02l.05.01.33.2.1.03.1-.03h.02l.03-.02.03-.02.14-.14.05-.06.02-.02v-.04l-.03-.14v-.01h-.01v-.02h-.02l-.21-.04-.05-.02-.06-.03a.94.94 0 0 1-.05-.04l-.03-.02v-.01h-.01l-.01-.02-.02-.02v-.02l-.01-.07v-.04h-.02v-.01l-.04-.04-.04-.08v-.04l.02-.11.08-.01.13.04h.02v-.05l.03-.05.04-.1v-.03l.02-.02H424.57l.01-.01.02-.02v-.1l-.03-.06-.01-.05h-.01l-.04-.06-.05-.09-.08-.1-.02-.01-.06-.04-.06-.02H424.1v.01l-.1.03-.08.01-.14-.05-.08-.08-.1-.17-.02-.06v-.05l.04-.15.02-.04.02-.04.03-.02.06-.03.04-.01.12.05.08-.02.1-.06h.02l.05.02.08-.03.02-.26.04-.1v-.02l-.08-.13h.04l.07-.12.04-.08.04-.04v-.01h.03l.02-.04h.01l.05-.08.08-.18v-.01l-.01-.01h-.04l-.09-.09-.06-.02-.04-.04-.09-.08-.02-.03-.05-.06-.02-.02-.05-.02-.14-.03h-.01l-.05.01-.03.02-.04.05-.02.02-.02.03v.12l.03.1.1.15v.01l-.12.03h-.24l-.07-.04-.07-.06-.01-.04.08-.34v-.12l.03-.05.29-.19v-.01h.02l.01-.01.1-.07h.02l.01-.09.05-.16.03-.08.02-.04.04-.05.07-.07h.08l.03-.02h.16l.05.02.04.03.02.02.03.03.05.06.01.02v.06l-.04.14-.03.15v.07l.04.14v.01l.1.1v.07l.02.03v.01h.09l.03-.04.02-.03.02-.04.01-.05.01-.03h.01l.03-.02.1-.06v-.02l.02-.1.02-.03v-.14l.03-.09.02-.04.03-.1v-.04l-.02-.02v-.01l-.16-.14-.1-.15v-.01l-.03-.05-.03-.11-.02-.15v-.1l.04-.1.02-.03.02-.08.02-.14.03-.04.05-.04.05-.03.05-.01h.08l.03-.02.04-.02.03-.02.09-.02h.01l.07.01h.04l.15.1.2.15.02.04.02.06v.02h-.01l-.01.04v.05l.01.01.06.05.03.03h.05l.1.01h.01l.12.05.04.01.04-.01h.01l.03-.04.03-.04.02-.03.04-.15v-.02h-.01v-.02h-.01l-.04-.01-.02-.01v-.12l-.04-.03-.04-.01h-.07l-.06-.01-.14-.07-.03-.05-.04-.05-.08-.16-.02-.07-.02-.07v-.07l.03-.05.04-.04.06-.06h.01l.14-.1.14-.05.08-.07h.07l.08.02h.05l.2-.16.13-.06.07-.04.01-.01h.01v-.04h.01l.01-.01v-.03l.02-.05.01-.08v-.11l-.03-.07-.05-.08h-.01l-.02-.01H426.85l-.04.01-.02.01-.02.01-.02.02h-.01l-.01.02h-.01l-.02.03-.03.07v.02h-.01l-.01.02-.01.01h-.02l-.03.03-.1.02h-.08l-.1-.02-.09-.04-.08-.05h-.01c0-.02-.02-.03-.02-.03l-.06-.05-.06-.13-.08-.1-.04-.06-.03-.05V142h-.01v-.22l-.02-.1-.01-.07v-.05l.02-.08.03-.04.04-.04.06-.03.32-.2.03-.03.03-.03h.06l.2.12.05.07.06.05h.05l.1-.09a.83.83 0 0 0 .07-.03l.11-.08H427.2l.08-.01.04-.01.07-.05.02-.02.04-.04.11-.16.02-.05v-.04l-.03-.08.04-.07.16-.17.17-.06v-.03h.01l.09.01.16.06h.1l.12-.05.03-.03.16-.1.02-.02.02-.05V140.05l-.01-.01-.01-.02-.06-.05-.23-.12h-.01l-.15-.04-.05-.02h-.02l-.16-.07-.06-.04v-.01l-.04-.05-.02-.03v-.06l.01-.06v-.02h.01v-.03l.03-.09.04-.07.08-.06.02-.02h.02l.01-.01.22-.1.2-.03h.01l.3.12.08.1.05.05.08.03h.05l.08-.03.02-.02h.01l.05-.05.04-.06.02-.12Z"/></g></g></g></g></svg>