<svg viewBox="0 0 179.518 30.507" xmlns="http://www.w3.org/2000/svg"><defs><style>.cls-1{fill:#fff}.cls-2,.cls-4{fill:none;stroke:#000}.cls-2{stroke-width:1.037px}.cls-4{stroke-width:.483px}</style></defs><g id="Group_210" data-name="Group 210" transform="translate(-112.482 -129.478)"><path id="Path_599" data-name="Path 599" class="cls-1" d="M196.704 147.234c0 6.952-7.526 11.297-13.547 7.821-6.02-3.476-6.02-12.166 0-15.642a9.03 9.03 0 0113.547 7.821"/><circle id="Ellipse_5" data-name="Ellipse 5" class="cls-1" cx="127.353" cy="144.764" r="14.058"/><circle id="Ellipse_6" data-name="Ellipse 6" class="cls-2" cx="127.353" cy="144.764" r="14.058"/><path id="Path_600" data-name="Path 600" class="cls-1" d="M171.4 144.763c-.065 10.822-11.821 17.514-21.16 12.047-9.339-5.468-9.258-18.995.147-24.349a14.058 14.058 0 016.956-1.841c7.794.008 14.097 6.349 14.057 14.143"/><path id="Path_601" data-name="Path 601" class="cls-2" d="M171.4 144.763c-.065 10.822-11.821 17.514-21.16 12.047-9.339-5.468-9.258-18.995.147-24.349a14.058 14.058 0 016.956-1.841c7.794.008 14.097 6.349 14.057 14.143z"/><path id="Path_602" data-name="Path 602" class="cls-1" d="M201.9 144.763c-.066 10.822-11.821 17.514-21.16 12.046-9.339-5.467-9.257-18.994.147-24.348a14.057 14.057 0 016.87-1.841c7.828-.04 14.183 6.315 14.143 14.143"/><path id="Path_603" data-name="Path 603" class="cls-2" d="M201.9 144.763c-.066 10.822-11.821 17.514-21.16 12.046-9.339-5.467-9.257-18.994.147-24.348a14.057 14.057 0 016.87-1.841c7.828-.04 14.183 6.315 14.143 14.143z"/><path id="Path_604" data-name="Path 604" class="cls-1" d="M232.316 144.763c.001 10.822-11.714 17.586-21.086 12.176-9.373-5.41-9.373-18.937-.002-24.349a14.066 14.066 0 017.031-1.884c7.761.007 14.051 6.297 14.058 14.058"/><circle id="Ellipse_7" data-name="Ellipse 7" class="cls-2" cx="218.259" cy="144.764" r="14.058"/><path id="Path_605" data-name="Path 605" class="cls-1" d="M261.879 144.763c.001 10.822-11.714 17.586-21.086 12.176-9.373-5.41-9.373-18.937-.002-24.349a14.066 14.066 0 017.031-1.884c7.761.007 14.051 6.297 14.058 14.058"/><path id="Path_606" data-name="Path 606" class="cls-2" d="M261.879 144.763c.001 10.822-11.714 17.586-21.086 12.176-9.373-5.41-9.373-18.937-.002-24.349a14.066 14.066 0 017.031-1.884c7.76.008 14.049 6.297 14.057 14.057z"/><path id="Path_607" data-name="Path 607" d="M291.187 144.764c0 10.822-11.715 17.586-21.087 12.175-9.372-5.411-9.372-18.939 0-24.35a14.059 14.059 0 017.03-1.883c7.761.007 14.051 6.297 14.058 14.058" fill="#e31d1a"/><path id="Path_608" data-name="Path 608" d="M128.713 143.823a2.2 2.2 0 002.471-2.13c0-1.534-1.96-1.789-3.067-1.789h-1.531c0 1.193-.085 2.641-.085 3.834.735.069 1.474.098 2.212.085m-6.9 8.946c-1.02-7.836-.509-12.266.428-16.27a59.277 59.277 0 016.731-.085c4.43.085 6.816 2.471 6.986 5.623.085 3.323-2.13 5.538-6.731 5.623h-2.726c0 1.7.085 3.408.085 5.027-1.588.113-3.18.142-4.771.085"/><path id="Path_609" data-name="Path 609" class="cls-4" d="M128.713 143.823a2.2 2.2 0 002.471-2.13c0-1.534-1.96-1.789-3.067-1.789h-1.531c0 1.193-.085 2.641-.085 3.834.735.069 1.474.098 2.212.085zm-6.9 8.946c-1.02-7.836-.509-12.266.428-16.27a59.277 59.277 0 016.731-.085c4.43.085 6.816 2.471 6.986 5.623.085 3.323-2.13 5.538-6.731 5.623h-2.726c0 1.7.085 3.408.085 5.027a44.708 44.708 0 01-4.773.084z"/><path id="Path_610" data-name="Path 610" d="M154.019 144.252c0 2.045.682 4.6 3.152 4.6 2.215 0 3.152-1.96 3.152-4.6 0-2.13-.937-4.515-3.237-4.43-2.3 0-3.067 2.471-3.067 4.43m11.587 0c0 6.493-7.029 10.552-12.653 7.305-5.623-3.247-5.623-11.363 0-14.61a8.445 8.445 0 014.219-1.13 8.539 8.539 0 018.435 8.435"/><path id="Path_611" data-name="Path 611" d="M154.019 144.252c0 2.045.682 4.6 3.152 4.6 2.215 0 3.152-1.96 3.152-4.6 0-2.13-.937-4.515-3.237-4.43-2.3-.005-3.067 2.47-3.067 4.43zm11.587 0c0 6.493-7.029 10.552-12.653 7.305-5.623-3.247-5.623-11.363 0-14.61a8.445 8.445 0 014.219-1.13 8.539 8.539 0 018.434 8.435z" stroke-width=".475" fill="none" stroke="#000"/><path id="Path_612" data-name="Path 612" d="M192.188 146.297a28.178 28.178 0 001.108-9.457c2.13.085 2.215.085 3.749.085 1.022 4.515-.341 10.224-3.067 15.847-1.7.085-2.9 0-4.43.085-.341-3.238-1.022-6.475-1.619-9.8h-.085a97.789 97.789 0 00-1.619 9.8 31.404 31.404 0 01-4 0c-2.726-5.538-4.43-11.076-3.067-15.932 1.874.085 1.96 0 3.578 0a30.265 30.265 0 00.937 9.457h.085c.511-3.408 1.534-6.134 2.386-9.627a28.855 28.855 0 013.834 0c.767 3.493 1.619 6.134 2.215 9.542"/><path id="Path_613" data-name="Path 613" d="M192.188 146.297h0a28.178 28.178 0 001.108-9.457c2.13.085 2.215.085 3.749.085 1.022 4.515-.341 10.224-3.067 15.847-1.7.085-2.9 0-4.43.085-.341-3.238-1.022-6.475-1.619-9.8h-.085a97.789 97.789 0 00-1.619 9.8 31.404 31.404 0 01-4 0c-2.726-5.538-4.43-11.076-3.067-15.932 1.874.085 1.96 0 3.578 0a30.265 30.265 0 00.937 9.457h.085c.511-3.408 1.534-6.134 2.386-9.627a28.855 28.855 0 013.834 0c.758 3.493 1.613 6.134 2.21 9.542z" stroke-width=".444" fill="none" stroke="#000"/><path id="Path_614" data-name="Path 614" d="M212.891 152.346a34.406 34.406 0 010-15.591 39.994 39.994 0 0111.5 0 24.67 24.67 0 011.022 3.578c-2.812-.085-5.282-.17-7.923-.085v2.386c2.215 0 4.515 0 6.731.085v3.748c-2.215.085-4.515.085-6.731.085v2.556c2.726 0 5.453 0 8.179-.256a12.706 12.706 0 01-.682 3.663 47.81 47.81 0 01-12.1-.17"/><path id="Path_615" data-name="Path 615" class="cls-4" d="M212.891 152.346a34.406 34.406 0 010-15.591 39.994 39.994 0 0111.5 0 24.67 24.67 0 011.022 3.578c-2.812-.085-5.282-.17-7.923-.085v2.386c2.215 0 4.515 0 6.731.085v3.748c-2.215.085-4.515.085-6.731.085v2.556c2.726 0 5.453 0 8.179-.256a12.706 12.706 0 01-.682 3.663 47.825 47.825 0 01-12.096-.169z"/><path id="Path_616" data-name="Path 616" d="M245.947 143.573h2.13c1.7 0 2.556-.426 2.556-1.619s-.937-1.789-2.215-1.789h-2.471c.085 1.108 0 2.3 0 3.408m.085 3.323c0 1.96.085 3.919.17 5.879a18.74 18.74 0 01-4.515-.341 26.731 26.731 0 01.426-15.932 31.426 31.426 0 016.3-.426c5.027.085 6.816 2.13 7.071 5.112a3.427 3.427 0 01-2.726 3.749c1.7.6 3.152 1.108 2.9 4.26-.17 2.045-.767 2.812-.085 2.726 0 .17-.085.341-.085.511-1.874.256-3.067.17-4.771.341a9.943 9.943 0 01-.085-2.641c.085-2.215-.341-3.237-2.811-3.237h-1.789"/><path id="Path_617" data-name="Path 617" d="M245.947 143.573h2.13c1.7 0 2.556-.426 2.556-1.619s-.937-1.789-2.215-1.789h-2.471c.086 1.108 0 2.298 0 3.408zm.085 3.323c0 1.96.085 3.919.17 5.879a18.74 18.74 0 01-4.515-.341 26.731 26.731 0 01.426-15.932 31.426 31.426 0 016.3-.426c5.027.085 6.816 2.13 7.071 5.112a3.427 3.427 0 01-2.726 3.749c1.7.6 3.152 1.108 2.9 4.26-.17 2.045-.767 2.812-.085 2.726 0 .17-.085.341-.085.511-1.874.256-3.067.17-4.771.341a9.943 9.943 0 01-.085-2.641c.085-2.215-.341-3.237-2.811-3.237z" stroke-width=".48" fill="none" stroke="#000"/><path id="Path_618" data-name="Path 618" class="cls-1" d="M267.076 145.274c.014.628.071 1.254.17 1.874.287-.014.574.015.852.085.511 0 .852-.17.767-.937-.085-.937-.511-.937-1.193-1.022h-.6m.17-3.578c-.099.562-.155 1.13-.17 1.7h.852c.426 0 .682-.256.767-.852.085-.767-.256-.852-.682-.767a2.363 2.363 0 00-.767-.085m-1.278 7.583a16.685 16.685 0 010-9.8c.937-.085 1.789-.085 2.726-.17 1.278-.085 2.13.511 1.874 2.556a3.617 3.617 0 01-.937 2.3 2.794 2.794 0 011.108 2.386c.17 2.386-.511 3.067-1.96 2.982l-2.812-.256"/><path id="Path_619" data-name="Path 619" class="cls-1" d="M274.659 142.378a28.07 28.07 0 00-.767 3.663h1.619a70.136 70.136 0 01-.852-3.663m-3.493 6.986a29.662 29.662 0 012.556-10.053h2.386c.682 3.408 1.789 6.816 2.556 10.224h-2.3c-.085-.426-.256-.937-.341-1.363h-2.471a6.91 6.91 0 00-.085 1.363 20.823 20.823 0 00-2.3-.17"/><path id="Path_620" data-name="Path 620" class="cls-1" d="M279.515 149.534c.17-3.377.17-6.761 0-10.138h2.215c.34 2.57.426 5.167.256 7.753h3.152a21.847 21.847 0 01-.426 2.3c-1.789 0-3.493.085-5.2.085"/><path id="Path_621" data-name="Path 621" class="cls-1" d="M285.224 149.364a22.756 22.756 0 000-9.883c.6.014 1.197.071 1.789.17.623 2.392.739 4.888.341 7.327h2.3c-.204.755-.46 1.495-.767 2.215-1.278.085-2.3.085-3.663.17"/></g></svg>