<svg viewBox="0 0 139.515 70.366" xmlns="http://www.w3.org/2000/svg"><defs><style>.cls-1{fill:#004785}.cls-2{fill:#fff}.cls-3{fill:#fdb924}</style></defs><path id="Path_483" data-name="Path 483" class="cls-1" d="M0 18.6v5.916h4.578v22.607c-.845-.07-4.578-.07-4.578-.07v5.916h18.029v-5.917h-5.352V40.5h5.845c5.352 0 12.395-1.2 12.395-11.2 0-9.578-7.113-10.7-12.395-10.7H0zm15.775 5.845c2.324 0 4.578 0 5.845 1.268a5.42 5.42 0 011.2 3.873c0 4.155-2.676 5-6.9 5h-3.24V24.445z" transform="translate(0 -5.5)"/><g id="Group_102" data-name="Group 102" transform="translate(32.466 22.466)"><path id="Path_484" data-name="Path 484" class="cls-1" d="M46.1 31.97v5.63h3.31v13.6H46.1v5.634h14.437V51.2h-3.31V31.9H46.1z" transform="translate(-46.1 -31.9)"/></g><g id="Group_103" data-name="Group 103" transform="translate(73.173 12.324)"><path id="Path_485" data-name="Path 485" class="cls-1" d="M103.9 17.5v5.634h3.31v23.8h-3.31v5.634h13.944v-5.63h-2.817v-2.394c.352-.282 2.958-2.324 3.592-2.817.493.7 2.676 4.155 3.38 5.282H119.6v5.634h14.02v-5.635h-3.028c-.282-.423-5.916-9.015-6.409-9.719.7-.493 5-3.662 5.212-3.873h2.887v-5.634H117.7v5.634h2.324c-1.338 1.056-4.014 3.1-5.071 3.944V17.57H103.9z" transform="translate(-103.9 -17.5)"/></g><g id="Group_105" data-name="Group 105" transform="translate(47.608 21.832)"><g id="Group_104" data-name="Group 104"><path id="Path_486" data-name="Path 486" class="cls-1" d="M67.6 44.663c0 5.845 3.38 12.677 12.958 12.677 6.338 0 10.634-3.662 11.127-9.508l.07-.563h-7.182l-.07.493a3.685 3.685 0 01-3.873 3.662c-3.24 0-4.93-2.465-4.93-7.395 0-3.38.845-7.395 4.789-7.395 2.958 0 4.226 1.409 4.366 4.859v.493h6.409V31.7h-6.128v1.9a8.063 8.063 0 00-6.057-2.6C71.826 31 67.6 36 67.6 44.663z" transform="translate(-67.6 -31)"/></g></g><g id="Group_106" data-name="Group 106" transform="translate(32.748 8.168)"><path id="Path_487" data-name="Path 487" class="cls-2" d="M58.895 17.8a6.2 6.2 0 11-6.2-6.2 6.162 6.162 0 016.2 6.2z" transform="translate(-46.5 -11.598)"/></g><g id="Group_107" data-name="Group 107" transform="translate(32.748 8.168)"><path id="Path_488" data-name="Path 488" class="cls-3" d="M58.895 17.8a6.2 6.2 0 11-6.2-6.2 6.162 6.162 0 016.2 6.2z" transform="translate(-46.5 -11.598)"/></g><g id="Group_108" data-name="Group 108" transform="translate(33.605 8.983)"><path id="Path_489" data-name="Path 489" d="M56.578 23.971c-1.831.845-7.536.141-8.8-5.071-.493 3.873 2.183 6.55 5.141 6.55a5.006 5.006 0 003.659-1.479z" transform="translate(-47.716 -14.572)"/><path id="Path_490" data-name="Path 490" d="M60.173 15.6c-.916-3.1-4.155-2.887-4.578-2.817-.211.074 2.818.426 4.578 2.817z" transform="translate(-50.043 -12.755)"/></g><path id="Path_491" data-name="Path 491" class="cls-2" d="M54.406 15.4c1.549.211 2.606 2.465 2.606 2.465S54.9 16.1 53.35 16.175c-.563.141 1.056-.775 1.056-.775z" transform="translate(-15.743 -4.554)"/><path id="Path_492" data-name="Path 492" class="cls-3" d="M78.2 5a5 5 0 11-5-5 5.02 5.02 0 015 5z" transform="translate(-20.17)"/><g id="Group_109" data-name="Group 109" transform="translate(48.907 .886)"><path id="Path_493" data-name="Path 493" d="M76.456 10.114c-1.409.7-5.916.141-6.972-4.014-.352 3.1 1.761 5.212 4.085 5.212a4.265 4.265 0 002.887-1.198z" transform="translate(-69.445 -2.69)"/><path id="Path_494" data-name="Path 494" d="M79.189 3.541A3.289 3.289 0 0075.6 1.288a6.067 6.067 0 013.589 2.253z" transform="translate(-71.263 -1.258)"/></g><path id="Path_495" data-name="Path 495" class="cls-2" d="M75.509 4.1c1.268.211 2.042 1.972 2.042 1.972s-1.62-1.409-2.887-1.338c-.423.066.845-.634.845-.634z" transform="translate(-22.056 -1.212)"/><path id="Path_496" data-name="Path 496" class="cls-2" d="M90.5 7.851a3.451 3.451 0 113.451 3.449A3.456 3.456 0 0190.5 7.851z" transform="translate(-26.765 -1.301)"/><path id="Path_497" data-name="Path 497" class="cls-3" d="M97.729 7.614A4.014 4.014 0 1193.714 3.6a4.012 4.012 0 014.015 4.014z" transform="translate(-26.528 -1.065)"/><g id="Group_110" data-name="Group 110" transform="translate(63.705 3.237)"><path id="Path_498" data-name="Path 498" d="M96.121 11.74a4.572 4.572 0 01-5.634-3.24 3.559 3.559 0 003.31 4.226 3.041 3.041 0 002.324-.986z" transform="translate(-90.456 -5.751)"/><path id="Path_499" data-name="Path 499" d="M98.357 6.43A2.8 2.8 0 0095.4 4.6a4.714 4.714 0 012.957 1.83z" transform="translate(-91.917 -4.597)"/></g><path id="Path_500" data-name="Path 500" class="cls-2" d="M95.492 6.9c.986.141 1.69 1.62 1.69 1.62a4.4 4.4 0 00-2.324-1.056c-.422-.001.634-.564.634-.564z" transform="translate(-28.024 -2.041)"/><path id="Path_501" data-name="Path 501" class="cls-1" d="M177.648 54.241a10.424 10.424 0 005.282-9.367 12.389 12.389 0 00-7.676-11.761A18.165 18.165 0 00166.38 31c-10.282 0-15.916 5.352-15.916 15v1.62l1.268.634h11.9v-1.9c0-1.549.423-2.887 3.38-2.887a3.568 3.568 0 01.916.141 2.6 2.6 0 01.775 1.9c0 1.056 0 4.3-5.916 4.3h-1.9v9.085l1.268.634h1.9a10.264 10.264 0 013.592.493 3.652 3.652 0 011.549 3.24c0 2.183-1.338 3.662-3.31 3.662a3.5 3.5 0 01-1.268-.141 4.169 4.169 0 01-.775-2.887V62.2l-1.268-.634H149.97l-.07 1.9v.775c0 6.268 2.817 10.775 7.888 13.029a19.171 19.171 0 009.648 2.254c9.86 0 16.409-5.775 16.409-14.367.071-5.142-2.324-9.085-6.197-10.916z" transform="translate(-44.332 -9.168)"/><path id="Path_502" data-name="Path 502" class="cls-3" d="M167.06 33.3c8.169 0 13.663 4.648 13.663 11.55 0 4.578-2.817 8.169-7.606 9.367v.423c5.282.563 8.522 4.648 8.522 10.423 0 7.606-5.916 12.747-14.789 12.747-9.3 0-14.649-4.719-14.649-12.958 0 0 .07-.845.07-.986h9.367v.07c0 3.592 1.62 5.282 5 5.282 2.887 0 4.93-2.183 4.93-5.282 0-3.873-2.887-6.057-8.1-6.057h-.282v-5.846h.282c6.268 0 7.536-3.24 7.536-5.916 0-2.606-1.831-4.3-4.648-4.3-3.24 0-5 1.549-5 4.578v.282h-8.662c.14-8.729 5.07-13.377 14.366-13.377z" transform="translate(-45.012 -9.848)"/></svg>