<svg xmlns="http://www.w3.org/2000/svg" viewBox="0 0 213.34 132.03"><g data-name="Layer 2"><g data-name="Layer 1"><path d="M62.2 120.8c-3.8 6.8-10.9 7.7-17.2 10.4-3.4 1.5-5.3.5-7.1-2.4-5.2-8.5-10.6-16.9-15.9-25.4l-1.4-2.1c-2.4.7-4.7 1.4-7.1 2.2-2.8.9-4.8.2-6.2-2.5-1.8-3.4-3.7-6.8-5.5-10.2-1.9-3.6-1.1-5.5 2.9-6.7 3.8-1.2 7.7-2.1 11.8-3.2-.7-12.8-1.3-25.7-2-38.5-3.2-.9-6.4-.8-9.5-.9-3.4-.1-5.1-1.6-5-5.1.1-3.7 0-7.5 0-11.2s1.5-5 5.1-4.7C18 21.7 31.2 22 43.8 24.8c6 1.3 11.6 1.1 17.4 1.3 6.5.2 12.3 2.9 18.7 5.1.8-6-2.1-13.5 7.5-15.2-2.6-4.3-3.5-8.1-2.2-12.3C86 1 87.4-.4 90.1.1c6.2 1 12.3 2.1 18.4 3.3a3.75 3.75 0 013.2 4.4c-.1 1.4-.1 3-.8 4-3.2 4.7-.5 9.6-.7 14.9 3.3-.2 6.4-.3 9.4-.5 7.2-.4 14.3-.5 20.9 2.8a2.42 2.42 0 002.7-.2c6-3.6 12.7-1.8 19-1.4 2.9.2 4.6 3.9 7.2 5.6.3-.2.6-.3.6-.5 2.5-6.2 7.1-8.5 13.7-8.9 7.8-.5 15.6-2 23.4-3 5-.6 6.5.8 6.2 5.7-.2 2.9-.3 5.7-.5 8.6-.1 1 .2 2.3-.7 2.8-4.3 2.5-2.9 6.6-3 10.3-.1 2.6-.2 5.2-.5 7.9-.2 2.4-.6 4.7 1.4 6.6 1 .9.7 2.4.6 3.6-.4 5.1.1 10.3-1.5 15.2a2.46 2.46 0 001.1 2.9c3 2.3 2.9 4.8 1 7.8a94.16 94.16 0 00-4.9 8.8c-1.5 3.1-3.7 3.8-6.8 2.7-2.3-.8-4.7-1.4-7.2-2.1-5.4 8.8-10.7 17.4-16 26-3.3 5.4-3.4 5.4-9.1 3.4-1.2-.4-2.3-.8-3.5-1.3-4.5-1.8-8.7-3.4-13.9-1.1-4 1.8-8.8 1-12.9-.5-7.3-2.7-14.9-2.3-22.4-2.9a111.38 111.38 0 00-21.6.3c-.2 0-.5.1-.7.1-5.7-2.4-11.1.6-16.6 1.4-4.8.7-8.6.4-11.4-3.9a7.75 7.75 0 00-2-2.1z" fill="#162b4c"/><path d="M106.8 90.5c-.3-.2-.5-.9-1-.4-.1.1.2.7.3 1.1 3.3 9 2.5 18 .6 27.1-.4 1.8-.1 2.6 1.8 2.6a122.39 122.39 0 0116.1.7c1.2-1.4.5-2.7.7-3.9 2-9.2-.1-14.7-7.6-19.9-3.6-2.5-7.3-4.9-10.9-7.3zM71.6 100.5c-3.5-6.2-6.5-11.6-9.6-17-.7-1.2-1.1-2.6-2.8-2.7a45.39 45.39 0 00-13.2.5c7.9 13.7 15.7 27.1 23.4 40.5a2 2 0 002.4 1.2c3.4-.6 6.8-1.1 10.4-1.7.6-5-.6-9.8-.3-15.5 3 4.8 5.5 8.9 8 13 .6 1 1 2.3 2.7 2.2 3.1-.2 6.1-.3 9.4-.5-1.8-10.8-3.6-20.9-5.2-31.1-1.6-9.6-1.6-9.7-11.4-9a3.37 3.37 0 00-1.2.4c.8 6.2 3.2 12.1 3.7 19.3-2.4-3.6-4.2-6.4-6-9.1-3.6-5.4-4-5.6-10.7-4.2-.5 4.3 1.3 8.4.4 13.7zM206.7 64.3h-17.1c.1-2.6-.4-4.9.6-7 4.8-.3 9.5-.6 14.5-1-.1-3.8 1-7.3.4-10.6h-15.9c.1-2.6.3-5 .4-7.6 5.5-.7 10.8-1.3 16.1-2 1.4-.2 3.3.2 3.3-2.1v-9.8c-10 1.4-19.9 2.7-29.8 4.1-1.8.2-2 1.4-2 2.9 0 3.5-.1 7-.1 10.5v33.6c9.6.8 19.2 1.5 28.9 2.3.2-4.6.5-8.6.7-13.3zM72.6 54.8c5.4-3.2 6.9-7.8 5.9-13.3-1.1-5.8-4.9-9.2-10.5-10.5-6.4-1.6-12.8-1.2-19.6 0 .5 14.5.9 28.7 1.4 43.4l11.6-.6V61.1a71.16 71.16 0 016.8 10.4c.6 1 1 2.3 2.6 2.3h12.7c-3.8-6.6-7.2-12.7-10.9-19zM43.9 28.2c-13.3-1.3-26.4-2.7-39.7-4v13.1c4.7 1 9.4.1 14 1.4.7 13 1.4 25.9 2.1 39.1 5.2-.8 10-1.6 15.1-2.4-.7-12-1.4-23.6-2.1-35.4h10.6zM130.5 111.2c-.8 2.3-.5 4.7-.9 7s.5 3.6 2.8 4.3a41.86 41.86 0 0013.6 2.4c5.9-.1 9.9-2.9 12.3-8.2s.4-9.7-3.2-13.6a36.82 36.82 0 00-8-6.1c-1.7-1-2.9-2.6-2.1-4.7s2.7-2.3 4.6-2.2c3 .1 5.6 1.7 8.5 2.6 1.5-3.2 3.3-6 4.1-9.3-6.4-3.3-15.7-5.1-22.3-4.4-10.1 1-14.4 10.2-8.8 18.5a33.66 33.66 0 004.7 5.3 66.52 66.52 0 005.9 4.6c1.7 1.3 2.9 3 2 5.2s-3.1 1.7-4.9 1.2c-2.8-.8-5.5-1.7-8.3-2.6zM208.7 88.2c-1.1-.4-2-.8-3-1.1a133 133 0 00-31.3-5.2c-7-.4-9.2 1.7-10.2 8.9 3.8.7 7.7 1.4 11.8 2.1-5.9 10.3-11.6 20.2-17.5 30.4 4.4 1.6 8.4 3 12.7 4.6 5.9-9.6 11.8-19 17.5-28.5 1.2-2 2.3-2.9 4.7-1.9a73.63 73.63 0 008.7 2.5c2.3-4 4.4-7.8 6.6-11.8zM11.3 100.1C13.8 99.3 16 99 18 98c3.5-1.7 5.2-.4 7 2.7 5.5 9.2 11.3 18.2 17.1 27.3 4.3-1.6 8.4-3.1 12.6-4.6-6.1-10.3-11.9-20.2-17.9-30.4 3.7-.8 6.9-1.5 10.3-2.2a51.18 51.18 0 01-3-5.5c-1.1-2.9-3-3.7-6.1-3.3-9.8 1-19.7 2.3-29.3 5-1.3.3-2.7.3-3.7 1.7 2 3.7 4.1 7.4 6.3 11.4zM126.4 59.3c4.4-.8 8.4-1.8 11.7-4.4 5.2-4.1 6.2-9.7 5-15.8-1.1-5.2-4.9-7.6-9.8-8.5-6.8-1.3-13.6-.4-20.7-.1.4 14.7.9 29 1.3 43.3h12.5zM160.8 61.3V31h-13.6v42.8h25.1v-12c-3.9-.1-7.6-.3-11.5-.5zM103.6 31.2c-5.9-.5-11.3-.9-16.7-1.3a1.82 1.82 0 00-2.1.9c-3.7 6.4-1.9 17.8 4 22.7 4.5 3.7 9.5 6.8 15.2 10.8-2.5-6-3.4-11.3-2.8-16.7s1.6-10.8 2.4-16.4zM87.4 56.3c4.7 18.4 16.5 30.6 32.2 39.4C117 76 102.6 66 87.4 56.3zM100.8 14.8c7-4.4 7-4.4 6.4-7.8-5.9-1-11.9-2.1-18-3.2-.2 2-1.2 3.3-.4 4.9 2.8.5 5.6 1.1 9.2 1.8-2.1 1.1-3.3 1.7-4.5 2.3s-2.3.9-1.9 2.7c.3 1.6 1.3 1.9 2.6 2.1a9 9 0 012.2.6c1.3.5 2.8 1.1 2.2 2.8-.5 1.5-2 1.7-3.5 1.4-2.4-.4-4.2-1.9-6-3.6-1.7 1.2-3.5 1.7-4.7 3.2 3.9 5 11.3 7.8 17 5.2 4.8-2.2 5.9-7.4 2.1-10.5-.8-.7-1.8-1.2-2.7-1.9z" fill="#162b4c"/><path d="M71.6 100.5c.9-5.4-.9-9.5-.6-13.7 6.7-1.3 7.1-1.2 10.7 4.2 1.8 2.8 3.7 5.5 6 9.1-.5-7.2-2.8-13.1-3.7-19.3a8.4 8.4 0 011.2-.4c9.8-.7 9.9-.6 11.4 9 1.7 10.2 3.4 20.4 5.2 31.1-3.3.2-6.4.3-9.4.5-1.6.1-2.1-1.2-2.7-2.2-2.5-4.1-5-8.2-8-13-.3 5.7.9 10.5.3 15.5-3.5.6-6.9 1.1-10.4 1.7a2.09 2.09 0 01-2.4-1.2C61.5 108.4 53.7 95 45.8 81.3a45.63 45.63 0 0113.2-.5c1.7.1 2.2 1.5 2.8 2.7 3.2 5.4 6.3 10.8 9.8 17z" fill="#a0cb3a"/><path d="M206.7 64.3c-.3 4.7-.5 8.7-.7 13.2-9.7-.8-19.3-1.6-28.9-2.3V41.6c0-3.5.1-7 .1-10.5 0-1.5.2-2.7 2-2.9 9.9-1.3 19.7-2.7 29.8-4.1v9.8c0 2.3-2 1.9-3.3 2.1-5.3.7-10.6 1.3-16.1 2-.1 2.6-.3 4.9-.4 7.6h15.9c.6 3.4-.5 6.9-.4 10.6-5 .3-9.7.7-14.5 1-1 2.2-.5 4.4-.6 7 5.7.1 11.2.1 17.1.1zM72.6 54.8c3.6 6.4 7.1 12.4 10.8 19H70.7c-1.6 0-2-1.3-2.6-2.3a71.16 71.16 0 00-6.8-10.4v12.7c-4 .2-7.5.4-11.6.6-.5-14.7-.9-28.9-1.4-43.4 6.8-1.2 13.2-1.6 19.6 0 5.5 1.4 9.4 4.7 10.5 10.5 1.2 5.5-.4 10.1-5.8 13.3zM61 48.1c3-.3 5.4-1.2 5.5-4.4.1-3.5-2.7-3.9-5.5-4.3a36.17 36.17 0 000 8.7zM43.9 28.2V40H33.3c.7 11.8 1.4 23.4 2.1 35.4-5.1.8-9.8 1.6-15.1 2.4-.7-13.2-1.4-26.1-2.1-39.1-4.6-1.3-9.3-.4-14-1.4V24.2c13.3 1.3 26.4 2.6 39.7 4z" fill="#f07d25"/><path d="M130.5 111.2c2.8.9 5.5 1.8 8.3 2.6 1.8.5 3.9 1 4.9-1.2s-.3-3.8-2-5.2c-1.9-1.6-4.1-2.9-5.9-4.6a33.66 33.66 0 01-4.7-5.3c-5.7-8.3-1.3-17.5 8.8-18.5 6.6-.7 15.9 1.1 22.3 4.4-.8 3.2-2.6 6.1-4.1 9.3-2.9-1-5.5-2.6-8.5-2.6-2-.1-3.9 0-4.6 2.2s.5 3.7 2.1 4.7a36.82 36.82 0 018 6.1c3.6 4 5.6 8.3 3.2 13.6s-6.4 8.1-12.3 8.2a42.33 42.33 0 01-13.6-2.4c-2.3-.7-3.2-2-2.8-4.3s0-4.7.9-7zM208.7 88.2l-6.5 11.8a79.56 79.56 0 01-8.7-2.5c-2.4-1-3.5-.1-4.7 1.9-5.7 9.5-11.5 18.9-17.5 28.5-4.3-1.5-8.3-3-12.7-4.6 5.9-10.2 11.5-20.1 17.5-30.4-4.2-.7-8-1.4-11.8-2.1 1-7.2 3.2-9.3 10.2-8.9a133 133 0 0131.3 5.2c.8.3 1.7.7 2.9 1.1zM11.3 100.1C9.1 96.1 7 92.4 5 88.7c1-1.4 2.4-1.3 3.7-1.7 9.6-2.7 19.5-4 29.5-5.1 3-.3 4.9.4 6.1 3.3a51.18 51.18 0 003 5.5c-3.5.7-6.6 1.4-10.3 2.2 6 10.2 11.9 20.2 17.9 30.4-4.3 1.6-8.3 3-12.6 4.6-5.8-9.2-11.6-18.2-17.1-27.3-1.8-3.1-3.5-4.4-7-2.7a62.09 62.09 0 01-6.9 2.2z" fill="#a0cb3a"/><path d="M126.4 59.3v14.4h-12.5c-.4-14.3-.9-28.5-1.3-43.3 7.1-.3 13.9-1.2 20.7.1 4.9.9 8.7 3.3 9.8 8.5 1.2 6.1.2 11.7-5 15.8-3.4 2.7-7.3 3.7-11.7 4.5zm-.4-11c2.8-.7 5.3-1.4 5.3-4.7s-2.6-3.8-5.3-4.1a28.84 28.84 0 000 8.8zM160.8 61.3c3.9.2 7.6.4 11.5.5v12h-25.1V31h13.6zM103.6 31.2c-.8 5.7-1.8 11-2.4 16.5s.3 10.6 2.8 16.7c-5.7-4-10.7-7.1-15.2-10.8-6-4.9-7.7-16.3-4-22.7a1.82 1.82 0 012.1-.9c5.4.3 10.9.7 16.7 1.2z" fill="#f07d25"/><path d="M106.8 90.5c3.6 2.4 7.3 4.8 10.9 7.3 7.5 5.2 9.6 10.7 7.6 19.9-.3 1.2.5 2.5-.7 3.9-5.2-.7-10.6-.6-16.1-.7-1.9 0-2.2-.8-1.8-2.6 1.9-9.1 2.7-18.1-.6-27.1a4.62 4.62 0 01.7-.7z" fill="#a0cb3a"/><path d="M87.4 56.3C102.6 66 117 76 119.6 95.7c-15.7-8.8-27.5-21-32.2-39.4zM100.8 14.8a27.5 27.5 0 012.8 1.9c3.8 3.1 2.6 8.3-2.1 10.5-5.7 2.7-13.1-.2-17-5.2 1.2-1.5 3-2 4.7-3.2 1.7 1.7 3.5 3.2 6 3.6 1.5.2 2.9.1 3.5-1.4.6-1.8-.9-2.3-2.2-2.8a7.94 7.94 0 00-2.2-.6c-1.4-.1-2.3-.5-2.6-2.1-.3-1.8.8-2.1 1.9-2.7s2.4-1.3 4.5-2.3c-3.6-.7-6.4-1.3-9.2-1.8-.8-1.6.3-3 .4-4.8 6.1 1.1 12 2.1 18 3.2.5 3.4.5 3.4-6.5 7.7z" fill="#f4bf18"/><path d="M106.1 91.2c-.1-.4-.4-1-.3-1.1.5-.4.7.2 1 .4a4.62 4.62 0 00-.7.7z" fill="#a0cb3a"/><path d="M61 48.1a31.69 31.69 0 010-8.7c2.8.5 5.6.9 5.5 4.3 0 3.2-2.5 4.2-5.5 4.4zM126 48.3a32.41 32.41 0 010-8.8c2.7.3 5.3.8 5.3 4.1s-2.5 4-5.3 4.7z" fill="#162b4c"/></g></g></svg>