<svg viewBox="0.069 -0.045 198.643 146.104" xmlns="http://www.w3.org/2000/svg" xmlns:xlink="http://www.w3.org/1999/xlink"><defs><linearGradient id="e" x1="91.06" y1="94.01" x2="116.84" y2="23.17" gradientUnits="userSpaceOnUse"><stop offset="0" stop-color="#dd5d1b"/><stop offset=".04" stop-color="#e1691c"/><stop offset=".13" stop-color="#ea7f1f"/><stop offset=".24" stop-color="#f19121"/><stop offset=".38" stop-color="#f69d23"/><stop offset=".56" stop-color="#f8a424"/><stop offset="1" stop-color="#f9a624"/></linearGradient><linearGradient id="g" x1="90.48" y1="47.21" x2="113.44" y2="24.24" gradientUnits="userSpaceOnUse"><stop offset="0" stop-color="#ffd033" stop-opacity="0"/><stop offset="1" stop-color="#ffd033"/></linearGradient><linearGradient id="h" x1="72" y1="58.85" x2="138.7" y2="58.85" gradientUnits="userSpaceOnUse"><stop offset="0" stop-color="#c15911"/><stop offset=".02" stop-color="#c15d10"/><stop offset=".11" stop-color="#c3680d"/><stop offset=".2" stop-color="#c36c0c"/><stop offset=".26" stop-color="#c25f0f"/><stop offset=".32" stop-color="#c15911"/><stop offset=".37" stop-color="#c25f0f"/><stop offset=".5" stop-color="#c3690d"/><stop offset=".67" stop-color="#c36c0c"/><stop offset=".71" stop-color="#be5e0f"/><stop offset=".76" stop-color="#ba5211"/><stop offset=".83" stop-color="#b84b13"/><stop offset="1" stop-color="#b74913"/></linearGradient><linearGradient id="b" x1="92.46" y1="20.62" x2="92.08" y2="18.43" gradientUnits="userSpaceOnUse"><stop offset="0" stop-color="#00c9f1"/><stop offset="1" stop-color="#0076a0"/></linearGradient><linearGradient id="a" x1="85.63" y1="49.47" x2="88.66" y2="48.83" gradientUnits="userSpaceOnUse"><stop offset="0" stop-color="#0076a0"/><stop offset="1" stop-color="#00c9f1"/></linearGradient><linearGradient id="i" x1="120.26" y1="73.11" x2="119.71" y2="69.94" xlink:href="#a"/><linearGradient id="j" x1="144.03" y1="56.08" x2="146.04" y2="55.65" xlink:href="#b"/><linearGradient id="k" x1="106.82" y1="33.92" x2="108.56" y2="33.55" xlink:href="#b"/><linearGradient id="l" x1="127.1" y1="48.38" x2="126.78" y2="46.6" xlink:href="#b"/><linearGradient id="m" x1="98.6" y1="50.73" x2="93.32" y2="20.78" gradientUnits="userSpaceOnUse"><stop offset=".28" stop-color="#7fd9f8"/><stop offset=".33" stop-color="#73d7f8"/><stop offset=".55" stop-color="#42d0f7"/><stop offset=".74" stop-color="#1ecaf6"/><stop offset=".9" stop-color="#08c7f5"/><stop offset="1" stop-color="#00c6f5"/></linearGradient><linearGradient id="n" x1="126.47" y1="51.87" x2="126.07" y2="49.59" gradientUnits="userSpaceOnUse"><stop offset="0" stop-color="#0accf6"/><stop offset="1" stop-color="#7fd9f8"/></linearGradient><linearGradient id="o" x1="93.22" y1="23.09" x2="92.85" y2="20.97" gradientUnits="userSpaceOnUse"><stop offset="0" stop-color="#23cef6"/><stop offset=".2" stop-color="#48d4f7"/><stop offset=".44" stop-color="#6edbf8"/><stop offset=".66" stop-color="#89dff9"/><stop offset=".85" stop-color="#99e2fa"/><stop offset="1" stop-color="#9fe3fa"/></linearGradient><radialGradient id="c" cx="103.95" cy="58.59" r="56.18" gradientUnits="userSpaceOnUse"><stop offset=".65" stop-color="#fef100"/><stop offset="1" stop-color="#ffd600"/></radialGradient><radialGradient id="d" cx="103.95" cy="58.59" r="56.18" gradientUnits="userSpaceOnUse"><stop offset=".66" stop-color="#ab8b00"/><stop offset=".75" stop-color="#dcad09" stop-opacity="0"/></radialGradient><radialGradient id="f" cx="103.95" cy="58.59" r="37.68" gradientUnits="userSpaceOnUse"><stop offset="0" stop-color="#ffca09"/><stop offset="1" stop-color="#ffca09" stop-opacity="0"/></radialGradient></defs><path d="M162 47.28a2.371 2.371 0 0 0-2.36-.89c-7.47-1.42-11.69-3.31-12.54-5.62-.85-2.31 1-6.11 5.62-11.8.392-.296.685-.704.84-1.17l.06-.19c.565-1.735-.96-3.43-2.745-3.052a2.38 2.38 0 0 0-.875.382c-7.4 1.74-12 1.73-13.74 0-1.74-1.73-1.55-6 .33-13.07.24-.425.342-.915.29-1.4v-.2c-.147-1.811-2.199-2.784-3.693-1.751a2.35 2.35 0 0 0-.697.751c-6.06 4.6-10.29 6.47-12.57 5.56-2.28-.91-3.92-4.83-5.07-12.06a2.443 2.443 0 0 0-.31-1.41l-.1-.17c-.874-1.602-3.153-1.657-4.104-.1A2.372 2.372 0 0 0 110 2.1c-3.66 6.67-6.76 10.1-9.22 10.19-2.46.09-5.49-2.85-9.48-9a2.45 2.45 0 0 0-.85-1.16L90.31 2c-1.478-1.069-3.56-.137-3.746 1.678-.033.321 0 .645.096.952-.64 7.58-2.07 12-4.28 13.06-2.21 1.06-6.18-.37-12.33-4.35a2.37 2.37 0 0 0-1.24-.72h-.2c-1.784-.383-3.313 1.309-2.752 3.046.1.311.265.599.482.844 2.5 7.18 3 11.78 1.4 13.67-1.6 1.89-5.79 2.17-13 1a2.376 2.376 0 0 0-1.42-.14h-.2c-1.784.38-2.489 2.549-1.268 3.904.215.239.476.431.768.566 5.21 5.55 7.51 9.56 6.84 11.92-.67 2.36-4.46 4.39-11.46 6.3a2.329 2.329 0 0 0-1.36.45l-.16.11c-1.478 1.069-1.244 3.338.421 4.083.295.133.615.203.939.207 7 3 10.75 5.67 11.1 8.11.35 2.44-2.26 5.76-8 10.37a2.422 2.422 0 0 0-1.06 1l-.1.17c-.925 1.572.199 3.557 2.023 3.572.336.003.669-.066.977-.202 7.61-.17 12.13.8 13.44 2.89 1.31 2.09.27 6.18-3 12.71-.35.39-.558.887-.59 1.41-.314 1.797 1.436 3.26 3.149 2.633.36-.132.683-.349.941-.633 6.88-3.25 11.4-4.2 13.45-2.83 2.05 1.37 2.76 5.54 2.39 12.85a2.405 2.405 0 0 0 0 1.43l.07.2a2.36 2.36 0 0 0 2.55 1.62 2.39 2.39 0 0 0 2-1.59c5-5.77 8.71-8.48 11.13-8.06 2.42.42 4.78 3.94 7.42 10.77.05.489.257.948.59 1.31l.13.15a2.394 2.394 0 0 0 1.77.79 2.38 2.38 0 0 0 2.35-2.6c2.2-7.28 4.52-11.28 6.9-11.88 2.38-.6 6 1.65 11.15 6.82.244.436.618.786 1.07 1l.19.08c1.681.708 3.499-.669 3.271-2.48a2.38 2.38 0 0 0-.271-.84c-1-7.55-.46-12.15 1.47-13.67 1.93-1.52 6.12-.92 13 1.7.399.28.873.434 1.36.44h.21c1.824.005 2.97-1.966 2.063-3.549a2.381 2.381 0 0 0-.653-.731c-3.94-6.5-5.36-10.9-4.21-13.08 1.15-2.18 5.22-3.33 12.53-3.72.477.101.974.048 1.42-.15l.19-.09a2.36 2.36 0 0 0 1.35-2.7 2.4 2.4 0 0 0-1.8-1.78c-6.25-4.34-9.33-7.78-9.17-10.23.16-2.45 3.41-5.16 9.93-8.5.482-.102.92-.354 1.25-.72l.13-.15a2.37 2.37 0 0 0 .05-3.14Zm-2 1.58h-.12C144.91 56.35 144 62 158.91 72.23h.28l-.19.08-.09-.07c-16.69.8-19.86 5.6-10.36 21l.26.1h-.2l-.06-.1c-15.57-6.06-20.42-3-18 15l.2.2-.19-.08v-.12c-11.76-11.86-17.45-11-22.53 6.35 0 .09.06.18.1.27l-.14-.15a.602.602 0 0 1 0-.12c-5.92-15.62-11.47-17.15-23.17-3.36v.28l-.06-.19.08-.09c1-16.68-3.49-20.34-19.8-12.5-.037.086-.081.17-.13.25v-.2h.11c7.65-14.84 5.08-20-13-19.46l-.22.17.1-.17h.12c13-10.46 12.77-16.21-4-23.08l-.27.08.25-.22h.11c16.15-4.25 18.26-9.6 5.76-22.69h-.27.19l.08.08c16.49 2.69 20.59-1.34 14.5-18.38l-.24-.15h.2v.11c14 9.16 19.36 7.14 20.72-10.9l-.15-.23.16.12v.11c9 14.05 14.78 14.4 23.36-1.52v-.28l.1.17-.06.11c2.54 16.51 7.64 19.16 22 8.1 0-.09.05-.18.08-.27v.2l-.1.07c-4.39 16.12-.81 20.62 16.77 16.34l.18-.22-.07.2h-.11C140.59 40 142 45.6 159.83 48.84l.25-.13Z" fill="#fff"/><path d="M64.92 98.93c7.83-15.07 5.31-20.27-13-19.71l-.1.17C65.11 68.8 64.92 63 48 56.1l-.16.12c16.44-4.27 18.61-9.63 6-22.85h-.19C70.33 36.2 74.5 32.19 68.31 15h-.2c14.18 9.36 19.61 7.39 21-10.86l-.16-.12c9.14 14.32 14.9 14.73 23.57-1.4l-.1-.17c2.53 16.8 7.62 19.52 22.1 8.31v-.2c-4.53 16.38-1 20.94 16.8 16.59l.07-.2c-10.8 13.12-9.41 18.73 8.61 22l.13-.15C144.89 56.31 143.87 62 159 72.3l.19-.08c-17 .75-20.21 5.54-10.58 21.11h.2c-15.81-6.21-20.72-3.16-18.25 15l.19.08c-11.92-12.1-17.65-11.31-22.77 6.27l.14.15c-6-15.91-11.52-17.51-23.35-3.54l.06.19c1-17-3.4-20.68-19.89-12.73" fill="url(#c)"/><path d="M64.92 98.93c7.83-15.07 5.31-20.27-13-19.71l-.1.17C65.11 68.8 64.92 63 48 56.1l-.16.12c16.44-4.27 18.61-9.63 6-22.85h-.19C70.33 36.2 74.5 32.19 68.31 15h-.2c14.18 9.36 19.61 7.39 21-10.86l-.16-.12c9.14 14.32 14.9 14.73 23.57-1.4l-.1-.17c2.53 16.8 7.62 19.52 22.1 8.31v-.2c-4.53 16.38-1 20.94 16.8 16.59l.07-.2c-10.8 13.12-9.41 18.73 8.61 22l.13-.15C144.89 56.31 143.87 62 159 72.3l.19-.08c-17 .75-20.21 5.54-10.58 21.11h.2c-15.81-6.21-20.72-3.16-18.25 15l.19.08c-11.92-12.1-17.65-11.31-22.77 6.27l.14.15c-6-15.91-11.52-17.51-23.35-3.54l.06.19c1-17-3.4-20.68-19.89-12.73" fill="url(#d)"/><circle cx="103.95" cy="58.59" r="37.68" fill="url(#e)"/><circle cx="103.95" cy="58.59" r="37.68" fill="url(#f)"/><ellipse cx="101.96" cy="35.72" rx="20.41" ry="10.52" fill="url(#g)"/><path d="m89.8 82.07-11-51.54a37.65 37.65 0 0 0-6.78 8c7.93 10.27 14.64 26.23 14.84 48.59 0 0 21.61-11.51 47.64-6.55a37.527 37.527 0 0 0 4.22-7.5Z" fill="url(#h)"/><path fill="#0077a3" d="m77.57 24.9 2.06-4.11 25.07-4.58 7.27 33.16 31.45-5.69 5.17 23.74-2.01 4.28-56.77 10.4-12.24-57.2Z"/><path fill="url(#b)" d="m103.68 18.59.97-2.38-25.12 4.59 3.23 1.53 20.92-3.74Z"/><path fill="url(#a)" d="m82.76 22.33-3.23-1.53 12.33 57.32 2.31-3.39-11.41-52.4Z"/><path fill="url(#i)" d="m146.09 65.29-51.92 9.44-2.31 3.39 56.73-10.46-2.5-2.37Z"/><path fill="url(#j)" d="m143.37 43.68-1.54 2.08 4.26 19.53 2.5 2.37-5.22-23.98Z"/><path fill="url(#k)" d="m104.65 16.21-.97 2.38 6.83 32.71 1.41-1.93-7.27-33.16Z"/><path fill="url(#l)" d="m111.92 49.37-1.41 1.93.09-.01 31.23-5.53 1.54-2.08-31.45 5.69Z"/><path fill="#00bcf2" d="m94.17 74.73 51.92-9.44-4.26-19.53-31.32 5.54-6.83-32.71-20.92 3.74 11.41 52.4Z"/><path d="m107.8 43.53-5.29-24.37-19.32 3.53 6.58 29.6c2.91-3.39 9.23-9.22 18.03-8.76Z" fill="url(#m)"/><path d="M141.67 47v-.18l-31.12 5.57c.93 2.46 29.58-1.81 31.12-5.39Z" fill="url(#n)"/><path d="M94.73 74.06 145 65c-.56-2.75-51.08 4.73-50.27 9.06Z" fill="#54b9ec"/><path d="M102.51 19.27 83.19 22.8c.23 2.68 20.49-.8 19.32-3.53Z" fill="url(#o)"/><path fill="#fff" d="M98.88 90.563h10.183v17.568H98.88zm-17.684 7.851h7.618v14.148h-7.618z"/><path d="m2.668 114.735 2.318-.005 1.522-.001c.402.025.576.039.885-.017.129-.328.209-.662.263-1.039l4.748-21.388-4.477.009 2.34-11.252 18.609-.039c2.746-.06 5.668.251 8.353.894 1.944.511 4.074 1.534 5.698 2.719 2.105 1.685 4.049 4.132 5.237 6.552a21.729 21.729 0 0 1 1.693 7.009c.157-.174.317-.344.48-.511 3.553-3.717 8.949-6.125 14.086-6.289 1.723-.008 3.804.342 5.449.874a18.65 18.65 0 0 1 2.317 1.14l1.026-1.363 11.877-.025-.466 1.887.831-.081a59.206 59.206 0 0 0 5.644-.819c-.61-.549-1.169-1.18-1.563-1.788-.568-1.071-.987-2.652-1.036-3.864.068-1.362.542-3.019 1.192-4.209.731-1.177 2.002-2.447 3.183-3.187 1.242-.636 2.845-1.04 4.211-1.099 1.895.047 4.288 1.045 5.674 2.347.24.306.467.65.674 1.021l.26-.985 2.189-.05a30.547 30.547 0 0 0 5.168-.549 46.189 46.189 0 0 0 6.257-1.677l.454-.156 7.1-.014-.796 3.564-2.527 11.31a42.803 42.803 0 0 0 11.086-2.268l.451-.155 7.278-.016-.806 3.571-4.046 17.925c.955-.967 1.653-2.034 2.22-3.353a31.808 31.808 0 0 0 2.537-7.873l2.133-9.604 14.902-.032-6.863 29.404c-1.328 5.395-4.045 9.917-7.594 12.728-3.968 2.859-9.301 4.47-15.125 4.541-4.096-.027-7.748-.905-10.133-2.385-2.291-1.685-3.875-4.349-4.116-6.795.07-1.036.437-2.22.975-3.267-.93.2-1.872.319-2.765.347-2.379-.015-5.211-1.08-7.014-2.635a8.973 8.973 0 0 1-.995-1.29c-3.015 2.421-6.474 3.826-9.778 3.965-1.61.002-3.58-.423-5.065-1.074-1.34-.738-2.733-2.023-3.581-3.282a22.966 22.966 0 0 1-4.734 3.082c-1.838.787-4.09 1.272-6.084 1.316-1.397-.012-3.078-.342-4.379-.858-1.015-.465-2.127-1.223-2.996-2.027l2.584-3.109a18.636 18.636 0 0 1-2.915 2.789c-.046-.046-.09-.093-.134-.139-.847-1.005-1.642-2.46-2.03-3.716l1.366 4.431a19.053 19.053 0 0 1-3.937 1.984 16.151 16.151 0 0 1-4.393.68c-2.27-.002-4.93-.711-6.911-1.822-1.853-1.206-3.654-3.186-4.692-5.138a17.429 17.429 0 0 1-1.207-3.648 24.85 24.85 0 0 1-2.245 2.68c-2.406 2.339-5.621 4.373-8.748 5.589a36.013 36.013 0 0 1-11.708 1.744l-22.01.047Zm114.865-3.141.704-.768 2.289 2.734c.082-.444.174-.882.277-1.306l1.655-7.398-3.422.007ZM103.775 94.91l-4.049 16.648.675-.703 1.961 2.421c.032-.151.066-.301.101-.448l4.545-20.409-2.629.006Zm-23.66 17.265 1.107-1.143 2.987 3.473a32.11 32.11 0 0 1 .448-2.222l1.755-7.238-4.54.009Zm-70.54 7.956 12.523-.027c3.397.117 6.595-.343 9.797-1.429 2.551-.939 4.59-2.245 6.518-4.202 1.894-1.87 3.181-3.881 4.085-6.39 1.104-2.764 1.612-5.485 1.565-8.46.071-2.175-.291-4.06-1.212-6.032-.825-1.832-1.88-3.147-3.487-4.349-1.116-.872-2.144-1.361-3.536-1.675a24.022 24.022 0 0 0-6.835-.725l-13.044.028.327.106.142.117c.97.803 1.953 2.562 2.128 3.808-.089.776-.254 1.869-.434 2.617l-4.754 21.421a11.877 11.877 0 0 1-1.012 2.95l-.124.25-.108.127c-.593.693-1.631 1.447-2.539 1.865ZM28.113 87.2c2.031-.08 4.413.387 6.264 1.227l.151.068.114.077c1.492 1.002 2.979 2.747 3.739 4.375.784 1.986 1.206 4.335 1.179 6.444 0 3.839-.876 7.873-2.503 11.36-1.122 2.405-3.03 4.84-5.079 6.526-2.178 1.526-5.398 2.469-8.779 2.527l-1.51-.004c-.792.035-2.081-.16-2.852-.365-.498-.271-1.307-.845-1.601-1.276-.296-.431-.537-1.399-.608-1.964l-.01-.083.027-.231c.075-.636.209-1.282.377-1.873l5.985-26.803 2.335-.005Zm-.424 5.835-4.674 20.93.17-.001c2.613.046 4.065-.294 5.249-1.328 1.536-1.182 2.528-2.462 3.293-4.271 1.41-2.857 2.067-5.757 1.993-8.942.087-1.514-.127-2.85-.731-4.233-.286-.858-.534-1.141-1.158-1.508-1.14-.6-2.067-.782-3.354-.654Zm46.613 7.257h-1.417l.711.564-.371 1.756a39.08 39.08 0 0 1-3.275 9.374c-.22.446-.468.894-.739 1.339l.973 4.563c.135.635.291.921.752 1.378.435.54.748.768 1.398 1.008.72.337 1.217.434 2.014.39 1.112.02 2.044-.123 3.015-.484-.869-.153-2.021-.542-2.625-.95-.605-.715-1.267-2.19-1.381-3.141.099-.951.299-2.173.541-3.092l3.734-15.138-1.499.003Zm-9.792-3.076c-3.972-.092-7.272 1.366-9.857 4.384-3.053 2.83-4.607 6.441-4.435 10.601-.086 1.751.215 3.255 1.012 4.806.578 1.28 1.26 2.034 2.49 2.725 1.22.786 2.269 1.061 3.73.969a7.46 7.46 0 0 0 2.753-.404 8.493 8.493 0 0 0 1.59-.699 8.91 8.91 0 0 1-1.448.242c-1.595-.17-3.625-1.219-4.69-2.414-.901-1.351-1.536-3.23-1.554-4.861.036-3.436 1.1-7.18 2.871-10.12 1.872-2.791 4.718-4.703 7.632-5.232l-.094.003Zm2.075 5.888c-.429-.2-.536-.201-1.009-.174-1.655-.229-2.454.401-3.637 2.586-1.441 2.188-2.073 4.392-1.998 7.011-.113.639-.061.952.396 1.412.031.315.035.065.036.069.572.043.745-.02 1.198-.476 1.441-1.179 2.337-2.373 3.111-4.066 1.322-2.575 1.808-3.307 2.382-6.145-.151-.074.284.103-.479-.217Zm28.613-5.952v.898a68.548 68.548 0 0 1-5.827 1.149l4.471-.01-3.509 14.47a23.398 23.398 0 0 0-.487 2.632 10.9 10.9 0 0 0-.157 1.475c-.038.628.038.649.434 1.138.329.649.63.983 1.304 1.259.808.413 1.388.532 2.328.462 1.059.054 2.04-.083 2.997-.441-.869-.118-2.07-.563-2.739-1.034-.535-.705-1.158-2.149-1.249-3.023.123-.948.348-2.201.596-3.097l3.755-15.444 1.862-.57c-.613.187-1.231.367-1.855.538l.099-.406Zm2.176-12.48c-.641-.057-1.1.004-1.636.36-.548.258-.72.432-.977.997-.352.483-.462.781-.42 1.365-.051.431-.033.5.235.855.177.417.224.464.649.62.393.274.552.358 1.029.316.515.031.684-.022 1.131-.363.57-.262.858-.507 1.118-1.078.337-.486.411-.734.364-1.323.114-.682.05-.91-.455-1.341-.325-.553-.4-.584-1.038-.408Zm20.11.357a53.852 53.852 0 0 1-5.311 1.33c-.411.077-.828.147-1.251.211l3.374-.007-6.137 27.553a13.297 13.297 0 0 0-.435 3.1c-.145 1.114.082 1.668.973 2.352.814.932 1.502 1.19 2.732 1.02 1.039.02 1.946-.118 2.864-.47-.804-.183-1.8-.561-2.338-.94-.574-.725-1.176-2.171-1.265-3.079.076-.807.235-1.79.424-2.555Zm4.627 37.459a10.158 10.158 0 0 1-.243-.325l-.279.231c.172.026.347.058.522.094Zm10.861-25.081a51.285 51.285 0 0 1-6.984 1.601l3.764-.008-3.255 14.552a16.26 16.26 0 0 0-.513 3.475c-.041.774.077.976.535 1.601.353.719.714 1.118 1.411 1.458.801.427 1.369.548 2.341.462a7.767 7.767 0 0 0 2.64-.371 6.349 6.349 0 0 0 1.28-.503c-.982-.027-2.36-.384-3.2-.841-.78-.778-1.713-2.501-1.847-3.614.093-1.004.286-2.228.531-3.197Zm10.817 12.634-1.522 9.344a24.274 24.274 0 0 1-1.688 5.693c-.692 1.421-1.762 2.975-2.854 4.119-1.076 1.053-2.539 2.064-3.909 2.688-.338.143-.7.274-1.075.39 2.555-.497 4.681-1.461 6.593-2.966 2.788-1.958 4.411-4.807 5.413-9.384l5.185-22.22-2.85.006-1.111 5.004a40.621 40.621 0 0 1-2.182 7.326Zm-16.04 22.641a10.065 10.065 0 0 1-2.034-.598c-1.088-.626-2.441-1.71-3.243-2.676-.4-.553-.727-.872-1.253-1.218-.157-.071-.152-.082-.548-.046-.571-.122-.656-.102-.987.378-.457.242-.514.269-.38.769-.231.872.07 1.155 1.539 2.002 1.389 1.054 3.401 1.432 6.859 1.389h.047Zm35.583-37.3c.332-2.814 1.511-5.933 3.086-8.289 1.683-2.175 4.178-4.141 6.685-5.271 2.896-1.197 6.258-1.844 9.373-1.819 4.572.048 8.663 1.273 11.519 3.368 2.626 2.098 4.531 5.793 4.717 9.159-.051 2.007-.706 4.348-1.702 6.089-.644 1.013-1.515 2.03-2.475 2.923l-7.197-1.902c1.754.463 3.806 1.406 5.334 2.385.213.17.426.356.635.554-.327.249-.657.48-.986.687a22.948 22.948 0 0 1-4.943 2.026l6.749-1.856a12.144 12.144 0 0 1 1.618 2.353c.649 1.394 1.082 3.246 1.128 4.79-.089 2.676-1.066 5.688-2.563 7.907-1.783 2.411-4.471 4.562-7.212 5.774-3.212 1.335-6.891 2.063-10.373 2.026-5.088-.048-9.725-1.448-13.013-3.889-3.15-2.597-5.083-6.077-5.312-9.374.043-1.798.866-4.045 1.994-5.459 1.3-1.206 3.504-2.129 5.27-2.22 1.565.093 3.468.684 4.639 1.687.291.249.575.55.847.887l2.09-9.337-10.288.023Zm9.685 15.905c.441 1.295.6 1.788.632 1.836.174.372.288.512.608.771.359.367.598.502 1.09.65.566.24.955.301 1.569.27.973.05 1.632-.128 2.466-.632.779-.335 1.101-.647 1.458-1.405.468-.76.588-1.387.527-2.278.166-.898.028-1.208-.727-1.675-.969-.875-1.801-1.05-3.094-.865l-.968.032-5.363.009c.734.934 1.373 2.13 1.802 3.287Zm2.98-14.6 2.583-.002c1.354.083 2.286.012 3.583-.383.539-.117.576-.238.884-.68.308-.442.408-.573.331-1.119.069-.445.058-.48-.203-.785-.245-.463-.351-.495-.861-.615-.833-.359-1.548-.468-2.454-.419-.995-.039-1.764.122-2.673.528-.68.214-.913.381-1.278.822-.541.728-.792 1.304-.957 2.231l-.075.424Zm-5.98-3.938c.333-.764.3-.864 1.158-2.133.962-1.048 2.585-2.296 3.897-2.848a14.505 14.505 0 0 1 4.795-.923c1.474.001 3.163.302 4.548.81 1.272.547 2.718 1.664 3.567 2.76.649 1.118 1.184 2.851 1.235 4.139-.072 1.462-.588 3.271-1.378 4.406l-.032.044a14.086 14.086 0 0 0 1.63-.816c1.21-.681 1.898-1.394 2.582-2.602.679-1.01.91-1.819.854-3.034.139-2.043-.564-3.4-2.318-4.464-1.843-1.609-4.306-2.31-8.072-2.245-2.517-.087-4.783.334-7.088 1.351-1.848.738-3.133 1.745-4.282 3.372-1.205 1.681-.913 1.414-1.231 2.183Zm15.005 12.344c1.204 1.545 2.102 3.721 2.182 5.531-.04 1.614-.507 3.506-1.245 4.962-.876 1.439-2.403 2.94-3.869 3.77-.879.442-1.916.795-2.963 1.021a18.016 18.016 0 0 0 5.689-1.492c2.048-.799 3.507-1.96 4.735-3.784 1.098-1.426 1.536-2.75 1.483-4.549.031-.87-.098-1.41-.526-2.18-.319-.771-.664-1.218-1.355-1.687-1.101-.746-1.949-1.077-3.245-1.383Zm-10.241 15.32a11.31 11.31 0 0 1-1.472-.397 11.193 11.193 0 0 1-2.985-1.805 10.845 10.845 0 0 1-1.827-2.34c-.152-.328-.545-1.343-1.008-2.7-.322-1.035-.548-1.33-.985-1.704-.374-.32-.285-.372-.877-.286-.564-.145-.668-.139-.951.348-.526.428-.586.595-.443 1.282-.197 1.843.647 3.211 3.08 4.988 1.938 1.628 4.247 2.438 7.468 2.614Z" fill="#fff"/><path class="de" d="m3.742 123.063 1.25-5.413 1.402-.003a8.213 8.213 0 0 0 2.015-.17 2.465 2.465 0 0 0 1.343-.928 7.803 7.803 0 0 0 .755-2.243l4.76-21.446c.164-.664.285-1.337.36-2.017a1.398 1.398 0 0 0-.689-1.233 4.43 4.43 0 0 0-1.95-.246l-1.47.003 1.125-5.41 16.267-.034a28.613 28.613 0 0 1 7.618.809 12.75 12.75 0 0 1 4.608 2.19 15.003 15.003 0 0 1 4.363 5.44 17.012 17.012 0 0 1 1.484 7.24 25.7 25.7 0 0 1-1.75 9.504 21.05 21.05 0 0 1-4.754 7.431 21.72 21.72 0 0 1-7.616 4.893 31.247 31.247 0 0 1-10.759 1.594ZM25.348 90.12l-5.495 24.607c-.15.476-.251.968-.305 1.468 0 .23.142.438.358.523.51.152 1.04.209 1.568.17l1.718-.004c2.997-.006 5.336-.65 7.017-1.93a14.453 14.453 0 0 0 4.183-5.396A22.938 22.938 0 0 0 36.64 99.39a12.786 12.786 0 0 0-.958-5.329 6.482 6.482 0 0 0-2.573-3.004 9.687 9.687 0 0 0-4.814-.943Zm47.498 7.252 1.828-2.427 6.688-.014-4.634 18.785c-.22.808-.37 1.633-.452 2.466-.01.315.124.619.362.83.251.215.575.33.907.318a3.713 3.713 0 0 0 1.527-.48 8.845 8.845 0 0 0 2.021-1.49l3.175 3.692a17.568 17.568 0 0 1-4.95 3.47 12.226 12.226 0 0 1-4.926 1.062 7.935 7.935 0 0 1-3.2-.623 6.873 6.873 0 0 1-2.431-1.747 6.363 6.363 0 0 1-1.392-2.548 13.717 13.717 0 0 1-2.948 2.697 13.391 13.391 0 0 1-3.328 1.715c-1.156.37-2.361.554-3.573.542a9.932 9.932 0 0 1-5.311-1.39 9.7 9.7 0 0 1-3.596-3.928 13.113 13.113 0 0 1-1.315-6.063 17.34 17.34 0 0 1 5.197-12.606 16.35 16.35 0 0 1 11.96-5.336 12.86 12.86 0 0 1 4.35.672 14.517 14.517 0 0 1 4.04 2.403Zm-2.48 4.648a11.442 11.442 0 0 0-2.607-1.59 5.88 5.88 0 0 0-2.189-.42c-2.447.006-4.486 1.33-6.116 3.973a15.932 15.932 0 0 0-2.433 8.563 4.89 4.89 0 0 0 .988 3.156 2.93 2.93 0 0 0 2.357 1.218 5.079 5.079 0 0 0 3.024-1.104 15.358 15.358 0 0 0 3.926-5.09 34.836 34.836 0 0 0 3.05-8.706Zm27.752-7.794 2.82-.006-4.752 19.545a16.4 16.4 0 0 0-.504 2.463c-.01.288.1.567.305.77.217.199.508.306.805.291.912-.002 2.054-.677 3.422-2.025l3.013 3.72c-2.953 3.029-6.077 4.55-9.378 4.559a8.145 8.145 0 0 1-3.713-.763 6.028 6.028 0 0 1-2.438-2.25 5.48 5.48 0 0 1-.927-2.884c.024-.583.084-1.162.18-1.737.13-.986.31-1.967.544-2.938l2.632-10.854-5.707.012 1.324-5.414a63.102 63.102 0 0 0 12.374-2.49Zm-.908-12.469a4.243 4.243 0 0 1 3.364 1.367 4.838 4.838 0 0 1 1.213 3.305 5.533 5.533 0 0 1-.739 2.747 5.596 5.596 0 0 1-2.111 2.12c-.797.5-1.715.78-2.658.805a4.974 4.974 0 0 1-2.398-.64 4.522 4.522 0 0 1-1.823-1.734 4.622 4.622 0 0 1-.636-2.353 5.491 5.491 0 0 1 .793-2.775 5.586 5.586 0 0 1 2.083-2.106 5.828 5.828 0 0 1 2.912-.736Zm24.008-.05-7.261 32.506c-.172.664-.29 1.34-.35 2.024-.014.296.101.583.317.785.208.19.481.292.76.284a2.83 2.83 0 0 0 1.308-.422 8.806 8.806 0 0 0 2.144-1.63l3.02 3.606a18.279 18.279 0 0 1-4.96 3.612 11.247 11.247 0 0 1-4.64 1.033 6.649 6.649 0 0 1-4.875-1.826 6.095 6.095 0 0 1-1.876-4.522c.036-1.239.207-2.473.504-3.676l5.343-23.99-6.119.014 1.426-5.41a35.262 35.262 0 0 0 5.65-.601 51.144 51.144 0 0 0 6.645-1.781Zm4.887 20.221-6.061.013 1.445-5.357a47.505 47.505 0 0 0 12.081-2.434l3.132-.007-4.187 18.557a15.86 15.86 0 0 0-.453 2.624c-.015.416.179.81.514 1.056.438.283.955.418 1.474.383a4.274 4.274 0 0 0 2.572-1.112 14.807 14.807 0 0 0 3.746-5.055 35.816 35.816 0 0 0 2.744-8.478l1.626-7.322 8.876-.019-6.024 25.812c-1.165 4.986-3.333 8.67-6.502 11.055-3.507 2.628-7.967 3.947-13.38 3.958-3.777.008-6.609-.62-8.496-1.887-1.88-1.266-2.825-2.73-2.828-4.391a3.845 3.845 0 0 1 1.259-2.89 4.248 4.248 0 0 1 3.041-1.21 4.735 4.735 0 0 1 2.093.497 8.562 8.562 0 0 1 1.985 1.875 7.144 7.144 0 0 0 2.187 1.842 5.39 5.39 0 0 0 2.41.503 8.217 8.217 0 0 0 3.273-.725 9.579 9.579 0 0 0 3.008-2.064 11.942 11.942 0 0 0 2.275-3.27 19.378 19.378 0 0 0 1.467-4.947 14.368 14.368 0 0 1-2.74 2.64 10.552 10.552 0 0 1-2.875 1.393 11.444 11.444 0 0 1-3.374.497 7.965 7.965 0 0 1-3.862-.818 6.598 6.598 0 0 1-2.481-2.46 6.363 6.363 0 0 1-.983-3.29c.06-1.343.255-2.676.58-3.983Zm45.99-6.264-5.858.013a14.597 14.597 0 0 1 2.523-6.84 13.454 13.454 0 0 1 5.487-4.328 19.91 19.91 0 0 1 8.23-1.586c4.17-.009 7.43.923 9.781 2.793a8.48 8.48 0 0 1 3.534 6.819 8.748 8.748 0 0 1-1.277 4.567 10.758 10.758 0 0 1-3.636 3.625 18.08 18.08 0 0 1-4.256 1.744 14.139 14.139 0 0 1 4.29 1.884 7.327 7.327 0 0 1 2.206 2.71 7.892 7.892 0 0 1 .834 3.49 10.905 10.905 0 0 1-2.022 6.238 13.937 13.937 0 0 1-5.968 4.777 22.383 22.383 0 0 1-9.244 1.796c-4.676.01-8.41-1.079-11.206-3.268-2.792-2.187-4.192-4.569-4.197-7.149a4.73 4.73 0 0 1 1.214-3.394 4.071 4.071 0 0 1 3.09-1.294c2.167-.005 3.711 1.316 4.633 3.968.452 1.326.728 2.08.82 2.268.312.585.723 1.11 1.214 1.553a6.061 6.061 0 0 0 2.03 1.226 7.134 7.134 0 0 0 2.586.458 7.953 7.953 0 0 0 3.824-.96 6.477 6.477 0 0 0 2.667-2.584 7.343 7.343 0 0 0 .892-3.615 5.068 5.068 0 0 0-1.78-3.991 7.417 7.417 0 0 0-5.06-1.543l-.873.03-1.794.003 1.224-5.467 2.442-.005a14.564 14.564 0 0 0 4.716-.556 4.767 4.767 0 0 0 3.137-4.504 4.402 4.402 0 0 0-.705-2.449 4.716 4.716 0 0 0-2.21-1.707 8.998 8.998 0 0 0-3.494-.622 9.604 9.604 0 0 0-3.75.722 6.472 6.472 0 0 0-2.578 1.814 9.066 9.066 0 0 0-1.466 3.364Z" fill="#00aeef" paint-order="stroke"/><path class="df" d="M5.458 142.006a4.068 4.068 0 0 1-3.274-1.387 6.25 6.25 0 0 1-.869-5.624c.21-.587.522-1.133.924-1.61a4.308 4.308 0 0 1 1.446-1.118 4.244 4.244 0 0 1 1.895-.427 3.696 3.696 0 0 1 2.308.679c.584.431.916 1.125.89 1.852.006.304-.075.604-.234.864a.843.843 0 0 1-.772.377 1.28 1.28 0 0 1-.895-.292.874.874 0 0 1-.318-.652 3.7 3.7 0 0 1 .117-.902c.061-.224.107-.449.137-.678a.874.874 0 0 0-.522-.404 2.621 2.621 0 0 0-.746-.1 2.057 2.057 0 0 0-.892.2 2.31 2.31 0 0 0-.824.738 3.976 3.976 0 0 0-.584 1.321 7.66 7.66 0 0 0-.223 1.985 5.066 5.066 0 0 0 .807 2.965 2.468 2.468 0 0 0 2.113 1.147 2.628 2.628 0 0 0 1.587-.463 4.53 4.53 0 0 0 1.184-1.385l.624.409a5.037 5.037 0 0 1-1.699 1.829 4.018 4.018 0 0 1-2.18.676Zm13.363-.439a13.79 13.79 0 0 1-.806.269c-.256.073-.52.107-.786.104a1.932 1.932 0 0 1-1.218-.356 1.644 1.644 0 0 1-.582-1.04h-.059a4.782 4.782 0 0 1-1.362 1.075 3.82 3.82 0 0 1-1.756.373 2.486 2.486 0 0 1-1.783-.663 2.299 2.299 0 0 1-.701-1.74 3.02 3.02 0 0 1 .157-.998c.103-.292.262-.56.468-.791.182-.211.401-.388.645-.524.242-.141.494-.264.752-.367.294-.111.887-.316 1.784-.617.621-.19 1.227-.427 1.813-.704l-.001-.969a4.184 4.184 0 0 0-.053-.488 2.046 2.046 0 0 0-.231-.683 1.96 1.96 0 0 0-.553-.631 1.655 1.655 0 0 0-1.011-.269 2.252 2.252 0 0 0-.836.153 1.473 1.473 0 0 0-.542.319c.01.194.04.387.092.575.06.231.091.467.094.704a.84.84 0 0 1-.308.626 1.207 1.207 0 0 1-.854.284.803.803 0 0 1-.719-.346 1.374 1.374 0 0 1 .086-1.639 3.25 3.25 0 0 1 .826-.734c.334-.2.692-.355 1.066-.463a4.175 4.175 0 0 1 1.221-.192c.48-.005.959.032 1.432.113.403.072.782.236 1.11.481.34.251.601.591.758.983.189.511.278 1.053.26 1.597.001.932-.008 1.758-.027 2.479-.019.72-.029 1.506-.028 2.36-.01.21.035.419.131.606.1.161.24.292.407.381a.99.99 0 0 0 .464.098 23 23 0 0 0 .65.009Zm-3.414-5.159c-.554.164-1.039.324-1.456.481a5.89 5.89 0 0 0-1.164.589 2.648 2.648 0 0 0-.771.789 2.011 2.011 0 0 0-.283 1.082c-.038.442.118.877.426 1.195.299.26.684.397 1.081.38.431.011.856-.108 1.221-.338.34-.213.64-.484.889-.798Z" fill="#f8971d"/><path class="cl" d="M54.278 139.455a4.949 4.949 0 0 1-1.623 1.839c-.69.46-1.505.699-2.335.684a4.75 4.75 0 0 1-2.038-.409 4.003 4.003 0 0 1-1.443-1.113 4.767 4.767 0 0 1-.846-1.641 6.902 6.902 0 0 1-.279-1.984 5.828 5.828 0 0 1 .296-1.843 5.16 5.16 0 0 1 .874-1.628c.376-.467.848-.85 1.383-1.121a3.992 3.992 0 0 1 1.851-.426 4.463 4.463 0 0 1 1.809.332c.475.2.893.511 1.223.908.309.381.536.818.669 1.289.152.524.226 1.067.221 1.613v.644l-6.382.005c-.006.58.055 1.16.182 1.726.108.483.302.945.573 1.359.252.377.595.686.997.896.455.229.958.341 1.467.327a2.697 2.697 0 0 0 1.499-.407c.518-.387.935-.89 1.216-1.471Zm-2.163-3.674a7.767 7.767 0 0 0-.094-1.17 3.583 3.583 0 0 0-.299-1.043 1.992 1.992 0 0 0-.616-.729c-.297-.2-.65-.299-1.007-.283a2.096 2.096 0 0 0-1.705.854 3.97 3.97 0 0 0-.736 2.373Zm9.652-2.46c.005.312-.08.62-.245.886a.83.83 0 0 1-.752.386 1.144 1.144 0 0 1-.836-.284.863.863 0 0 1-.289-.626 2.126 2.126 0 0 1 .034-.39c.023-.117.044-.235.065-.352a2.176 2.176 0 0 0-1.076.372 3.168 3.168 0 0 0-1.046 1.058l.004 5.609c-.008.195.037.388.133.558a.795.795 0 0 0 .415.322c.204.076.415.124.63.145.258.034.481.056.671.069v.646l-5.083.002v-.645l.463-.04c.141-.009.282-.035.415-.077a.701.701 0 0 0 .406-.308c.095-.175.141-.373.132-.571l-.004-5.946a1.336 1.336 0 0 0-.142-.595 1.188 1.188 0 0 0-.397-.469 1.317 1.317 0 0 0-.439-.171 4.016 4.016 0 0 0-.547-.073v-.645l3.205-.216.138.136v1.359h.049c.361-.491.82-.901 1.348-1.203a2.84 2.84 0 0 1 1.358-.412c.376-.014.741.131 1.002.401.267.293.407.678.388 1.074Zm.495 11.544a1.17 1.17 0 0 1 .268-.798.852.852 0 0 1 .668-.307c.187-.005.372.035.539.116.15.077.285.179.401.301.117.122.222.254.312.397.111.168.2.306.265.417a3.905 3.905 0 0 0 1.167-1.376 11.2 11.2 0 0 0 .98-1.951 482.627 482.627 0 0 0-3.257-7.924 1.417 1.417 0 0 0-.626-.699 2.636 2.636 0 0 0-.881-.316l-.001-.646 4.401-.002.001.684c-.24.014-.476.056-.705.122-.273.076-.41.162-.41.26a.775.775 0 0 0 .045.196c.029.091.063.184.102.283.247.644.624 1.573 1.133 2.787.507 1.215.901 2.186 1.18 2.916.294-.699.598-1.42.914-2.165.317-.746.67-1.627 1.06-2.642.046-.124.112-.295.197-.513.075-.179.117-.368.125-.561 0-.17-.147-.329-.443-.475a2.719 2.719 0 0 0-.847-.268l-.001-.626 3.58-.001v.607a2.35 2.35 0 0 0-.771.337c-.318.19-.568.475-.713.816a264.477 264.477 0 0 0-2.065 4.917c-.44 1.096-.897 2.185-1.372 3.267a18 18 0 0 1-1.097 2.136 6.449 6.449 0 0 1-.943 1.208 2.75 2.75 0 0 1-.816.553 2.083 2.083 0 0 1-.757.141 1.819 1.819 0 0 1-1.197-.361 1.052 1.052 0 0 1-.436-.83Zm-16.204-3.558a15.06 15.06 0 0 1-1.202.446c-.451.13-.919.191-1.388.181a2.078 2.078 0 0 1-1.706-.611 2.674 2.674 0 0 1-.493-1.724l-.004-6.53-1.74.002-.001-.939 1.779-.001-.002-3.001 1.779-.002.001 3.001h2.766l.001.938-2.746.001.003 5.386c-.003.338.012.676.044 1.012.023.248.095.489.212.709.105.191.27.342.469.429.266.108.552.157.84.146.163 0 .403-.014.719-.043.225-.015.451-.052.669-.113Zm-21.763.434-4.702.002v-.644l.48-.046c.141-.011.282-.036.419-.073a.721.721 0 0 0 .41-.308c.099-.174.146-.374.138-.573l-.007-11.17a1.48 1.48 0 0 0-.153-.66 1.274 1.274 0 0 0-.395-.484 1.987 1.987 0 0 0-.645-.215 5.998 5.998 0 0 0-.754-.117v-.626l3.626-.217.137.146.009 13.225c-.008.196.036.39.127.563.095.156.24.275.411.337.136.062.278.112.424.146.156.035.315.058.474.068Zm9.412-4.923c0 .679-.109 1.353-.323 1.999a4.779 4.779 0 0 1-.919 1.668c-.424.503-.96.9-1.564 1.163a5.011 5.011 0 0 1-1.997.383 4.517 4.517 0 0 1-1.751-.347 4.388 4.388 0 0 1-1.478-1.01 4.83 4.83 0 0 1-1.013-1.598 5.639 5.639 0 0 1-.378-2.115 5.263 5.263 0 0 1 1.314-3.697 4.455 4.455 0 0 1 3.448-1.438 4.447 4.447 0 0 1 3.343 1.361 5.014 5.014 0 0 1 1.318 3.631Zm-2.024.02a8.841 8.841 0 0 0-.148-1.548 4.876 4.876 0 0 0-.441-1.383 2.718 2.718 0 0 0-.824-.973 2.077 2.077 0 0 0-1.243-.365 2.199 2.199 0 0 0-1.288.372 2.73 2.73 0 0 0-.866 1.017 4.495 4.495 0 0 0-.439 1.36c-.084.487-.126.98-.128 1.475a9.43 9.43 0 0 0 .153 1.735c.09.496.254.975.486 1.422.198.389.486.725.838.982.369.247.805.371 1.248.356.818 0 1.566-.456 1.939-1.184a6.313 6.313 0 0 0 .713-3.266Zm8.166 4.473c-.423.176-.824.325-1.202.446-.451.13-.919.191-1.388.181a2.086 2.086 0 0 1-1.706-.611 2.666 2.666 0 0 1-.495-1.724l-.004-6.53-1.739.002-.001-.939 1.779-.001-.001-3.001 1.778-.002.002 3.001 2.766-.001.001.939-2.747.001.003 5.385c-.003.338.012.677.046 1.013.022.248.093.488.209.709.107.19.272.341.47.429.267.108.554.157.841.146.163 0 .401-.015.718-.044.227-.014.45-.052.669-.112Z" fill="#00aeef"/></svg>