<svg viewBox="0.01 -0.02 200.42 168.705" xmlns="http://www.w3.org/2000/svg" xmlns:xlink="http://www.w3.org/1999/xlink"><defs><linearGradient id="e" x1="89.99" y1="102.66" x2="118.15" y2="25.3" gradientUnits="userSpaceOnUse"><stop offset="0" stop-color="#dd5d1b"/><stop offset=".04" stop-color="#e1691c"/><stop offset=".13" stop-color="#ea7f1f"/><stop offset=".24" stop-color="#f19121"/><stop offset=".38" stop-color="#f69d23"/><stop offset=".56" stop-color="#f8a424"/><stop offset="1" stop-color="#f9a624"/></linearGradient><linearGradient id="g" x1="89.36" y1="51.55" x2="114.44" y2="26.47" gradientUnits="userSpaceOnUse"><stop offset="0" stop-color="#ffd033" stop-opacity="0"/><stop offset="1" stop-color="#ffd033"/></linearGradient><linearGradient id="h" x1="69.18" y1="64.26" x2="142.02" y2="64.26" gradientUnits="userSpaceOnUse"><stop offset="0" stop-color="#c15911"/><stop offset=".02" stop-color="#c15d10"/><stop offset=".11" stop-color="#c3680d"/><stop offset=".2" stop-color="#c36c0c"/><stop offset=".26" stop-color="#c25f0f"/><stop offset=".32" stop-color="#c15911"/><stop offset=".37" stop-color="#c25f0f"/><stop offset=".5" stop-color="#c3690d"/><stop offset=".67" stop-color="#c36c0c"/><stop offset=".71" stop-color="#be5e0f"/><stop offset=".76" stop-color="#ba5211"/><stop offset=".83" stop-color="#b84b13"/><stop offset="1" stop-color="#b74913"/></linearGradient><linearGradient id="b" x1="91.53" y1="22.51" x2="91.11" y2="20.13" gradientUnits="userSpaceOnUse"><stop offset="0" stop-color="#00c9f1"/><stop offset="1" stop-color="#0076a0"/></linearGradient><linearGradient id="a" x1="84.07" y1="54.03" x2="87.38" y2="53.32" gradientUnits="userSpaceOnUse"><stop offset="0" stop-color="#0076a0"/><stop offset="1" stop-color="#00c9f1"/></linearGradient><linearGradient id="i" x1="121.89" y1="79.84" x2="121.28" y2="76.38" xlink:href="#a"/><linearGradient id="j" x1="147.84" y1="61.24" x2="150.04" y2="60.77" xlink:href="#b"/><linearGradient id="k" x1="107.2" y1="37.04" x2="109.1" y2="36.64" xlink:href="#b"/><linearGradient id="l" x1="129.35" y1="52.83" x2="129.01" y2="50.89" xlink:href="#b"/><linearGradient id="m" x1="98.23" y1="55.4" x2="92.46" y2="22.69" gradientUnits="userSpaceOnUse"><stop offset=".28" stop-color="#7fd9f8"/><stop offset=".33" stop-color="#73d7f8"/><stop offset=".55" stop-color="#42d0f7"/><stop offset=".74" stop-color="#1ecaf6"/><stop offset=".9" stop-color="#08c7f5"/><stop offset="1" stop-color="#00c6f5"/></linearGradient><linearGradient id="n" x1="128.66" y1="56.65" x2="128.22" y2="54.15" gradientUnits="userSpaceOnUse"><stop offset="0" stop-color="#0accf6"/><stop offset="1" stop-color="#7fd9f8"/></linearGradient><linearGradient id="o" x1="92.35" y1="25.22" x2="91.95" y2="22.9" gradientUnits="userSpaceOnUse"><stop offset="0" stop-color="#23cef6"/><stop offset=".2" stop-color="#48d4f7"/><stop offset=".44" stop-color="#6edbf8"/><stop offset=".66" stop-color="#89dff9"/><stop offset=".85" stop-color="#99e2fa"/><stop offset="1" stop-color="#9fe3fa"/></linearGradient><radialGradient id="c" cx="104.07" cy="63.98" r="61.34" gradientUnits="userSpaceOnUse"><stop offset=".65" stop-color="#fef100"/><stop offset="1" stop-color="#ffd600"/></radialGradient><radialGradient id="d" cx="104.07" cy="63.98" r="61.34" gradientUnits="userSpaceOnUse"><stop offset=".66" stop-color="#ab8b00"/><stop offset=".75" stop-color="#dcad09" stop-opacity="0"/></radialGradient><radialGradient id="f" cx="104.07" cy="63.98" r="41.15" gradientUnits="userSpaceOnUse"><stop offset="0" stop-color="#ffca09"/><stop offset="1" stop-color="#ffca09" stop-opacity="0"/></radialGradient></defs><path d="M167.43 51.63a2.58 2.58 0 0 0-2.58-1c-8.16-1.56-12.76-3.62-13.69-6.14-.93-2.52 1.11-6.67 6.13-12.89.434-.315.756-.76.92-1.27l.07-.21a2.6 2.6 0 0 0-1.22-3.07 2.56 2.56 0 0 0-2.74.16c-8.09 1.9-13.14 1.89-15 0-1.86-1.89-1.7-6.54.36-14.27.268-.466.38-1.006.32-1.54v-.22c-.245-1.979-2.54-2.95-4.131-1.749a2.59 2.59 0 0 0-.669.749c-6.62 5-11.23 7.07-13.73 6.07S117.23 10.92 116 3a2.594 2.594 0 0 0-.33-1.53l-.11-.19c-.993-1.729-3.485-1.735-4.486-.011-.18.31-.294.654-.334 1.011-4 7.29-7.38 11-10.06 11.13-2.68.13-6-3.12-10.37-9.82a2.5 2.5 0 0 0-.92-1.26l-.18-.13c-1.608-1.178-3.889-.173-4.105 1.809-.039.357-.003.718.105 1.061-.7 8.28-2.27 13.07-4.67 14.26-2.4 1.19-6.75-.41-13.46-4.76a2.61 2.61 0 0 0-1.36-.77l-.22-.05c-1.933-.458-3.636 1.348-3.066 3.251.111.371.305.713.566.999 2.73 7.85 3.25 12.87 1.53 14.93-1.72 2.06-6.33 2.37-14.23 1.13a2.51 2.51 0 0 0-1.56-.15h-.21c-1.959.37-2.784 2.722-1.484 4.233.26.303.587.541.954.697 5.69 6 8.2 10.43 7.47 13-.73 2.57-4.82 4.74-12.54 6.82a2.598 2.598 0 0 0-1.49.49l-.17.13c-1.64 1.134-1.437 3.618.366 4.471A2.6 2.6 0 0 0 42.74 64c7.67 3.21 11.74 6.19 12.12 8.84.38 2.65-2.47 6.29-8.67 11.34-.48.207-.884.556-1.16 1l-.11.19c-1.006 1.712.219 3.872 2.205 3.887.363.003.722-.071 1.055-.217 8.31-.18 13.24.88 14.67 3.16 1.43 2.28.31 6.75-3.32 13.88a2.646 2.646 0 0 0-.64 1.54c-.3 1.971 1.646 3.528 3.503 2.803a2.59 2.59 0 0 0 .967-.663c7.51-3.54 12.45-4.58 14.68-3.09 2.23 1.49 3 6 2.62 14a2.628 2.628 0 0 0 0 1.57l.07.21c.624 1.894 3.064 2.402 4.392.915.237-.265.417-.577.528-.915 5.42-6.29 9.51-9.25 12.16-8.79 2.65.46 5.19 4.34 8.09 11.84a2.51 2.51 0 0 0 .65 1.43l.14.17c1.348 1.48 3.792.945 4.399-.962.107-.335.145-.688.111-1.038 2.39-8 4.93-12.32 7.53-13 2.6-.68 6.51 1.8 12.18 7.44.276.443.681.792 1.16 1l.21.09c1.821.812 3.838-.651 3.632-2.634a2.595 2.595 0 0 0-.322-1.006c-1.05-8.24-.51-13.26 1.6-14.92 2.11-1.66 6.68-1 14.15 1.85.434.312.955.48 1.49.48h.23c1.986.01 3.239-2.133 2.255-3.858a2.58 2.58 0 0 0-.715-.802c-4.31-7.11-5.85-11.91-4.6-14.29 1.25-2.38 5.7-3.63 13.68-4.06.525.104 1.07.045 1.56-.17l.2-.09c1.82-.813 2.078-3.292.464-4.462a2.599 2.599 0 0 0-.944-.428c-6.83-4.74-10.2-8.5-10-11.18.2-2.68 3.72-5.64 10.84-9.28a2.55 2.55 0 0 0 1.36-.79l.15-.16a2.6 2.6 0 0 0 .12-3.2Zm-2.21 1.73h-.13c-16.29 8.21-17.32 14.41-1 25.55h.3l-.2.09-.1-.07c-18.22.87-21.69 6.11-11.31 22.92l.28.11h-.22l-.06-.11c-17-6.61-22.3-3.23-19.66 16.35l.21.21-.2-.09v-.12c-12.84-13-19.06-12-24.61 6.93l.11.29-.15-.16a.706.706 0 0 0 0-.13C102.05 108 96 106.35 83.21 121.41v.31l-.06-.21a.387.387 0 0 1 .08-.1c1-18.21-3.81-22.21-21.62-13.65l-.14.28v-.22l.11-.06C70 91.55 67.14 85.93 47.39 86.51l-.24.19.11-.19h.13c14.23-11.42 14-17.7-4.32-25.2l-.3.08.18-.13.12.05C60.71 56.67 63 50.82 49.36 36.53l-.3-.05h.22l.08.09c18 2.94 22.49-1.47 15.83-20.07l-.25-.17.21.05c.004.04.004.08 0 .12 15.26 10 21.14 7.8 22.63-11.9 0-.09-.11-.17-.17-.26l.18.13v.13c9.9 15.3 16.21 15.68 25.54-1.71v-.3l.11.19-.06.11c2.77 18 8.35 20.93 24 8.85 0-.1.05-.19.08-.29v.22l-.1.07c-4.81 17.6-.89 22.52 18.31 17.84l.19-.23-.07.21h-.12c-11.55 14.13-10 20.21 9.46 23.75l.28-.14Z" fill="#fff"/><path d="M61.45 108C70 91.57 67.24 85.9 47.26 86.51l-.11.19C61.66 75.13 61.45 68.83 43 61.26l-.18.13c18-4.67 20.33-10.51 6.51-25h-.22c18.3 3.05 22.85-1.33 16.09-20.14l-.21-.05c15.43 10.31 21.36 8.16 22.84-11.77l-.18-.13c10 15.64 16.28 16.09 25.74-1.52l-.11-.19c2.77 18.34 8.33 21.31 24.14 9.08v-.22c-4.94 17.88-1.07 22.86 18.35 18.11l.07-.21c-11.79 14.32-10.27 20.45 9.4 24l.15-.17c-16.6 8.3-17.7 14.51-1.18 25.76l.2-.09c-18.53.83-22.07 6.06-11.55 23h.22c-17.27-6.78-22.62-3.44-19.93 16.36l.2.09c-13-13.21-19.26-12.35-24.86 6.85l.15.16c-6.53-17.31-12.64-19.06-25.51-3.8l.06.21c1.12-18.52-3.71-22.59-21.71-13.9" fill="url(#c)"/><path d="M61.45 108C70 91.57 67.24 85.9 47.26 86.51l-.11.19C61.66 75.13 61.45 68.83 43 61.26l-.18.13c18-4.67 20.33-10.51 6.51-25h-.22c18.3 3.05 22.85-1.33 16.09-20.14l-.21-.05c15.43 10.31 21.36 8.16 22.84-11.77l-.18-.13c10 15.64 16.28 16.09 25.74-1.52l-.11-.19c2.77 18.34 8.33 21.31 24.14 9.08v-.22c-4.94 17.88-1.07 22.86 18.35 18.11l.07-.21c-11.79 14.32-10.27 20.45 9.4 24l.15-.17c-16.6 8.3-17.7 14.51-1.18 25.76l.2-.09c-18.53.83-22.07 6.06-11.55 23h.22c-17.27-6.78-22.62-3.44-19.93 16.36l.2.09c-13-13.21-19.26-12.35-24.86 6.85l.15.16c-6.53-17.31-12.64-19.06-25.51-3.8l.06.21c1.12-18.52-3.71-22.59-21.71-13.9" fill="url(#d)"/><circle cx="104.07" cy="63.98" r="41.15" fill="url(#e)"/><circle cx="104.07" cy="63.98" r="41.15" fill="url(#f)"/><ellipse cx="101.9" cy="39.01" rx="22.29" ry="11.49" fill="url(#g)"/><path d="m88.62 89.63-12-56.29a41.62 41.62 0 0 0-7.4 8.79c8.66 11.22 16 28.64 16.21 53.06 0 0 23.59-12.57 52-7.15a41.638 41.638 0 0 0 4.57-8.19Z" fill="url(#h)"/><path fill="#0077a3" d="m75.27 27.19 2.24-4.49 27.38-5 7.94 36.21 34.34-6.21 5.65 25.93-2.19 4.67-62 11.35-13.36-62.46Z"/><path fill="url(#b)" d="m103.77 20.3 1.06-2.6-27.42 5.01 3.52 1.67 22.84-4.08Z"/><path fill="url(#a)" d="m80.93 24.38-3.52-1.67 13.45 62.6 2.53-3.71-12.46-57.22Z"/><path fill="url(#i)" d="m150.09 71.3-56.7 10.3-2.53 3.71 61.96-11.43-2.73-2.58Z"/><path fill="url(#j)" d="m147.12 47.7-1.68 2.26 4.65 21.34 2.73 2.58-5.7-26.18Z"/><path fill="url(#k)" d="m104.83 17.7-1.06 2.6 7.47 35.72 1.54-2.11-7.95-36.21Z"/><path fill="url(#l)" d="m112.78 53.91-1.54 2.11.09-.01 34.11-6.05 1.68-2.26-34.34 6.21Z"/><path fill="#00bcf2" d="m93.39 81.6 56.7-10.3-4.65-21.34-34.2 6.06-7.47-35.72-22.84 4.08L93.39 81.6Z"/><path d="m108.27 47.53-5.77-26.6-21.1 3.85 7.19 32.32c3.17-3.7 10.09-10.1 19.68-9.57Z" fill="url(#m)"/><path d="M145.26 51.36v-.2l-34 6.08c1.03 2.66 32.32-2.01 34-5.88Z" fill="url(#n)"/><path d="M94 80.87 148.94 71c-.65-3-55.83 5.15-54.94 9.87Z" fill="#59d0f6"/><path d="m102.5 21-21.1 3.9c.25 2.92 22.37-.9 21.1-3.9Z" fill="url(#o)"/><path d="M.01 95.66h21.109c5.014-.002 10.198 1.715 13.948 4.583 3.749 2.867 6.742 7.336 8.054 12.176a34.79 34.79 0 0 1 .98 4.993 21.353 21.353 0 0 1 2.125-3.231c3.511-4.065 8.974-6.803 14.319-7.194 5.053-.338 10.349 1.201 14.12 4.053 3.31 2.505 5.99 6.453 7.295 10.752v-12.831l-.095-1.964a8.258 8.258 0 0 1-.005-.665c0-1.705-.034-3.813.153-5.764.671-2.443 2.701-4.899 4.719-5.635 2.017-.737 5.153-.166 7.24 1.269.494.474.954 1.088 1.348 1.767V92.28h14.79v38.85c0 .762.089 1.392.289 2.127.041.51.134.511.521.828.387.316.406.408.915.347l.088-.01.224.04c.467.084 1.04.08 1.837.122l.11.006a24.666 24.666 0 0 1-.284-3.66v-19.795l.219 1.081c-.156-.769-.254-1.529-.245-1.698l.13-2.708h14.566V131.19c-.054.947.092 1.573.548 2.404.3.923.787 1.227 1.753 1.311 1.25.468 2.131.387 3.282-.293.782-.313 1.051-.654 1.469-1.361.417-.707.582-1.244.478-2.081V107.8h14.7v2.85l-.001 36.733c.001 3.951-1.414 8.269-3.738 11.465-2.531 3.103-6.495 5.486-10.419 6.267-4.058.765-8.669.252-12.478-1.408-4.843-2.42-8.699-7.464-9.764-12.771l-.528-2.632c-3.192.338-6.871-.036-9.779-1.411-3.043-1.439-5.911-4.491-7.453-8.353v9.87H82.981v.01H68.74l4.738-4.312-1.045.95c-2.824 2.352-6.734 3.883-10.387 4.087-4.931.205-10.245-1.717-13.905-5.036-2.769-2.632-4.871-6.166-5.968-9.901-1.153 2.792-2.906 5.496-4.967 7.626-3.337 3.266-8.014 5.594-12.633 6.279-1.532.21-3.174.325-4.723.327H3.561l-3.551.052Zm5.7 47.048-2.212.032H19.85a26.756 26.756 0 0 0 3.937-.273c3.723-.411 6.788-1.924 9.367-4.641 2.002-1.969 3.31-4.124 4.133-6.809 1.923-5.635 2.044-11.327.352-17.036-.899-3.926-2.992-6.884-6.035-9.21-3.043-2.327-6.358-3.572-10.383-3.411H5.71Zm4.612-38.178c.201-.119.541-.29.725-.365l.434-.179.567.004c3.132.021 6.393-.086 9.705.105 2.922.222 5.88 1.198 7.907 2.788 2.027 1.591 3.668 4.224 4.572 7.003 1.714 5.571 1.549 11.905-.492 17.366-.937 2.454-2.753 4.908-4.783 6.344-2.031 1.435-4.811 2.326-7.438 2.391-3.172.141-6.337.083-9.399.083H9.01v-36.01h2.108Zm2.387 5.162-.126.068h2.127v24.61h-2.59c3.118 0 6.153.062 9.141-.077 1.719.079 3.051-.394 4.405-1.352 1.354-.957 2.195-1.925 2.694-3.573 1.847-4.509 2.016-9.151.438-13.761-.568-2.065-1.36-3.221-2.658-4.24-1.298-1.019-2.565-1.513-4.713-1.582-2.827-.174-5.72-.09-8.718-.093Zm110.836 37.918a16.989 16.989 0 0 1-6.865-6.164v6.164Zm-4.035-34.1v17.42a15.91 15.91 0 0 0 .421 3.907c.931 4.761 3.069 7.364 7.789 8.335 2.891.982 5.444.793 8.024-.84.457-.314.959-.668 1.539-1.038l4.39-2.803-.013 5.209c-.004 1.554.112 3.271-.008 5.074-.218 2.387-1.62 5.014-3.431 6.582-1.353.913-3.308 1.63-4.921 1.784-1.945.133-4.24-.296-6.017-1.152-1.575-1.039-1.915-1.621-2.601-2.678h-3.831c1.073 2.356 1.836 3.657 5.611 5.221 2.934 1.417 5.822 1.735 8.999.991 2.946-.413 5.251-1.75 7-4.158 1.876-2.351 2.689-4.854 2.55-7.867l-.001-33.997h-3.3v17.67c.016 1.69-.454 3.595-1.269 4.977-.815 1.382-2.373 2.775-3.859 3.578-2.166.964-5.013 1.214-7.299.675-2.079-.641-4.285-2.395-5.37-4.291-.681-1.466-1.115-3.38-1.133-4.999v-17.6Zm38.2 21.72v-7.961c.044-.749.368-1.898.706-2.564a6589.978 6589.978 0 0 1 10.263-16.304c3.067-4.881 6.027-9.567 9.107-14.455.361-.539 1.075-1.332 1.606-1.614.532-.282 1.591-.428 2.242-.424l-2.826-.018h16.172v31.9h5.45V138h-5.44v10.34h-14.84v-10.26h-22.44Zm28.14-2.85v10.26h3.44V132.3h5.44v-2.81h-5.45v-31.9h-7.074c-2.883 4.577-5.844 9.298-8.703 13.847a6373.508 6373.508 0 0 0-10.093 16.034v4.909Zm-20.73-2.87 16.555-26.216L185.77 105v24.51Zm14.95-12.999-4.61 7.299h4.61ZM77.119 142.72l.062 2.22-.001-16.34a19.67 19.67 0 0 0-.362-3.957c-.621-3.947-2.593-6.788-5.592-9.057-3-2.269-6.266-3.394-10.234-2.918-4.219.078-7.785 1.811-10.372 5.144-3.017 3.427-4.215 7.48-3.532 11.995.226 4.039 1.861 7.467 4.92 10.115 2.661 2.711 5.916 3.918 9.695 3.535 2.713.005 4.994-.849 6.984-2.695l.955-.87 4.768-4.339v7.167Zm-21.605-25.207c2.304-1.555 5.476-2.408 8.013-2.087 2.537.322 5.387 1.935 7.23 4.01 2.08 2.644 3.304 6.28 3.144 9.383-.16 3.103-1.833 6.673-4.173 9.089-2.75 2.256-6.744 3.356-9.836 2.756-3.091-.6-6.373-3.108-8.082-6.223-.908-1.858-1.468-4.239-1.489-6.326.184-3.873 1.886-7.902 5.193-10.602Zm.505 10.728c-.054 1.381.195 2.414.877 3.63.774 2.025 2.13 2.818 4.083 3.198 1.952.379 3.42.231 4.894-1.357 1.665-1.472 2.226-3.061 2.336-5.186.109-2.124-.293-3.792-1.829-5.44-.951-1.355-2.016-1.808-3.57-2.005-1.554-.197-2.658-.053-3.917 1.021-2.33 1.42-2.878 3.212-2.874 6.139Zm54.961 11.885 1.31.073a16.111 16.111 0 0 1-.997-.101l-.006-.001.318.031c-1.449-.14-3.244-.771-4.297-1.634-1.052-.862-2.024-2.495-2.446-3.888a16.486 16.486 0 0 1-.452-3.396V97.98h-3.39v33.59a13.299 13.299 0 0 0 .89 5.029c.878 2.818 2.355 4.112 4.53 5.141 2.173 1.027 2.924 1.064 4.54 1.069ZM90.85 113.53h-3.19v29.18h3.19Zm-3.321-9.55h3.377l-.006-2.29c.101-.703.027-.764-.588-1.118-.569-.788-.795-.588-1.625-.285s-1.133.296-1.06 1.265c-.091.815-.105 1.6-.098 2.428Z" fill="#fff"/><path d="M2.86 145.6V98.51h18.31a19.45 19.45 0 0 1 19.21 14.69 31.841 31.841 0 0 1-.38 18.69 19.995 19.995 0 0 1-4.82 7.94 18.942 18.942 0 0 1-11 5.46c-1.435.2-2.881.301-4.33.3H3.54Zm9-38.69v30.31h.26c3.09 0 6.19.06 9.27-.08a10.2 10.2 0 0 0 9.66-6.83 23.221 23.221 0 0 0 .46-15.58c-1.47-4.85-4.85-7.5-9.92-7.79-3.18-.19-6.37-.08-9.56-.1a.679.679 0 0 0-.14.07Zm104.77 3.75h9v20.49a8.07 8.07 0 0 0 .84 3.7 5.23 5.23 0 0 0 3.51 2.79 7.363 7.363 0 0 0 5.34-.47 6.35 6.35 0 0 0 3.54-6v-20.52h9v36.79a15.473 15.473 0 0 1-3.14 9.66 14.002 14.002 0 0 1-8.67 5.21c-3.628.767-7.407.35-10.78-1.19a14.389 14.389 0 0 1-8.15-10.66h9.29a4.51 4.51 0 0 0 2.19 3 7.85 7.85 0 0 0 4.49.84 6.295 6.295 0 0 0 3.39-1.2 5.997 5.997 0 0 0 2.33-4.54c.12-1.59 0-3.2 0-4.86-.52.33-1 .67-1.48 1a13.12 13.12 0 0 1-10.33 1.23c-5.44-1.42-8.61-5.1-9.85-10.47a20.24 20.24 0 0 1-.49-4.53v-19.81c-.05-.12-.04-.26-.03-.46Zm43.93 24.57v-8.01a1.872 1.872 0 0 1 .27-1c3.413-5.44 6.833-10.873 10.26-16.3 3.067-4.88 6.14-9.763 9.22-14.65a1.001 1.001 0 0 1 1-.53h10.82v31.9h5.45v8.51h-5.44v10.34H183v-10.26Zm22.36-28.33-.12-.05-12.51 19.81h12.63ZM80.05 145.57h-8.49V142l-1 .91a13.782 13.782 0 0 1-8.66 3.39 15.54 15.54 0 0 1-11.81-4.27 18.002 18.002 0 0 1-5.83-11.87A18.51 18.51 0 0 1 48.42 116a16.997 16.997 0 0 1 12.31-6.17c9.044-.835 17.233 5.36 18.89 14.29.276 1.477.413 2.977.41 4.48v16.26Zm-26.88-17.38a10.57 10.57 0 0 0 1.2 5c2.48 5.146 9.215 6.454 13.44 2.61a10.67 10.67 0 0 0 .75-14.55 8.29 8.29 0 0 0-11.36-1.44c-2.82 2.06-3.94 4.98-4.03 8.38Zm60.66 9.24v8c-5.91.83-12.18-1.18-14.6-7.86a17.767 17.767 0 0 1-1.06-6V95.13h9.09v36.04c.013.931.137 1.858.37 2.76a4.392 4.392 0 0 0 4.09 3.35c.66.1 1.37.11 2.11.15Zm-20.13 8.13h-8.89v-34.88h8.89Zm.01-38.73h-9a3.922 3.922 0 0 1 0-.46c0-1.77-.07-3.56.11-5.31.598-3.412 4.666-4.897 7.322-2.673a4.502 4.502 0 0 1 1.608 3.303v4.92a1.372 1.372 0 0 1-.04.22Z" paint-order="stroke" fill="#00aeef"/><path d="M22.08 163.3c0-.29-.22-.22-.38-.24-1.16-.07-1.45-.35-1.43-1.54 0-1.73.07-3.45.07-5.19a2.74 2.74 0 0 0-1.66-2.86 5.301 5.301 0 0 0-5.09.59 2.001 2.001 0 0 0-.89 1.22 1.16 1.16 0 0 0 1.77 1.32 1 1 0 0 0 .48-1.18c0-.25-.09-.48-.14-.71a.36.36 0 0 1 .18-.45c1.246-.932 3.036-.198 3.27 1.34.056.404.086.812.09 1.22a.52.52 0 0 1-.39.59l-2.29.82c-.781.22-1.533.532-2.24.93a2.86 2.86 0 0 0-1.2 3.15 2.47 2.47 0 0 0 2.28 1.9 4.078 4.078 0 0 0 3.07-.86l.76-.64c.6 1.25 1.18 1.61 2.43 1.46a6.79 6.79 0 0 0 1.07-.28c.31-.13.24-.36.24-.59Zm-3.82-1.63a.422.422 0 0 1-.1.28 2.78 2.78 0 0 1-2.29 1.1c-1.24-.05-1.87-1.05-1.49-2.37a2.454 2.454 0 0 1 1-1.36 10.298 10.298 0 0 1 2.86-1.18ZM4.7 158.52a5.921 5.921 0 0 0 .82 3.17 2.9 2.9 0 0 0 4.6.46c.222-.227.426-.471.61-.73.16-.25.27-.4.61-.18.34.22.28.36.1.62a4.83 4.83 0 0 1-7.24 1.22 5.456 5.456 0 0 1-1.67-3.67 5.52 5.52 0 0 1 3.26-5.94 4.32 4.32 0 0 1 4.42.5 2.36 2.36 0 0 1 .75 2.58 1 1 0 0 1-1.27.68 1.11 1.11 0 0 1-1.06-1.11c.011-.407.078-.811.2-1.2.13-.47-.07-.73-.52-.88a2.34 2.34 0 0 0-2.84 1.15 6.418 6.418 0 0 0-.77 3.33Z" fill="#fa9d0f"/><path d="M46.81 158.43v-3.49c0-.34-.07-.47-.43-.45h-4c-.25 0-.45 0-.45.34.06 2.18-.07 4.37.07 6.55a1.39 1.39 0 0 0 1.61 1.49c.42 0 .81-.07 1.22-.09.13 0 .36-.18.36.11s.16.5-.16.64a5.62 5.62 0 0 1-3.49.54 1.8 1.8 0 0 1-1.51-1.56 5.824 5.824 0 0 1-.1-1.11v-6.46c0-.36-.09-.52-.47-.47a5.063 5.063 0 0 1-1 0c-.16 0-.41.11-.46-.1a2.693 2.693 0 0 1 0-.85s.11-.07.18-.07c.106-.01.214-.01.32 0 .46 0 1.09.22 1.36-.1s.07-.92.09-1.38c.02-.46 0-.95 0-1.44 0-.26.07-.39.36-.37.5 0 1.14-.2 1.48.09.34.29.07.93.11 1.41.04.48 0 .92 0 1.38 0 .46.11.41.43.41h4c.34 0 .46-.07.44-.43v-2.43c0-.32.07-.45.41-.43a9.77 9.77 0 0 0 1.21 0c.29 0 .36.09.36.36V153c0 .36.11.45.45.43h2.22c.45 0 .36.27.36.52s.09.55-.36.53h-2.27c-.31 0-.4.09-.38.4v6.14c0 1.43.54 1.9 2 1.84.31 0 .59-.07.9-.09.14 0 .35-.12.37.13.02.25.15.5-.18.64a5.733 5.733 0 0 1-3.43.54 1.92 1.92 0 0 1-1.61-2.11c-.08-1.15 0-2.33-.06-3.51Zm29.25 2.9c.84-1.94 1.61-3.76 2.33-5.62.35-.93.23-1.15-.7-1.47l-.31-.09c-.28-.07-.18-.3-.18-.48s.17-.24.33-.24h3.22c.16 0 .37-.05.37.24s0 .41-.25.5a2.67 2.67 0 0 0-1.63 1.68c-1.37 3.17-2.57 6.39-4.08 9.51a9.324 9.324 0 0 1-1.62 2.45 2.45 2.45 0 0 1-2.55.78 1.43 1.43 0 0 1-1-.75 1.21 1.21 0 0 1 .23-1.38 1.1 1.1 0 0 1 1.33-.14c.359.225.656.538.86.91.12.22.25.29.44.09a10.417 10.417 0 0 0 2.08-3.32c.07-.16-.05-.31-.11-.45-1.11-2.67-2.22-5.33-3.31-8A2.05 2.05 0 0 0 70 154.2c-.34-.09-.34-.28-.34-.53s.26-.25.43-.25h4c.22 0 .43 0 .41.3-.02.3 0 .48-.37.48-.161.013-.32.05-.47.11-.3.09-.45.25-.3.59.94 2.1 1.8 4.21 2.7 6.43Zm-49.53-6.39v6.71c0 1.07.2 1.34 1.26 1.54.32.05.32.21.34.46.02.25-.17.29-.38.29h-4.44c-.21 0-.37 0-.37-.29s0-.41.35-.44c1.11-.13 1.26-.27 1.26-1.38v-11.37c0-1.45-.27-1.79-1.7-2-.31 0-.47-.1-.45-.46.02-.36.28-.29.48-.31 1-.07 2.08-.1 3.12-.19.41 0 .55.09.55.52-.03 2.26-.02 4.59-.02 6.92Zm38.29.06a6.126 6.126 0 0 1 1.27-1.2 3.727 3.727 0 0 1 1.41-.57 1.518 1.518 0 0 1 1.63.63 1.81 1.81 0 0 1 0 1.9 1.061 1.061 0 0 1-1.27.35 1 1 0 0 1-.77-1 1.687 1.687 0 0 1 0-.46c.07-.27 0-.3-.25-.29a2.46 2.46 0 0 0-2 2.22v4.82c0 1.41.18 1.64 1.62 1.75.35 0 .44.16.42.48-.02.32-.08.27-.28.27h-5c-.23 0-.32-.09-.31-.3.01-.21 0-.41.25-.43.143.01.287.01.43 0a.9.9 0 0 0 .9-1v-6.52a1.33 1.33 0 0 0-1.24-1.39c-.25 0-.44-.06-.44-.43s.25-.36.48-.38c.91 0 1.83-.09 2.74-.18.39 0 .5.13.48.49-.062.41-.086.825-.07 1.24Zm-26.46 2.25a4.67 4.67 0 0 0-3.5-3.9 5 5 0 0 0-5.46 1.55 5.91 5.91 0 0 0-1.08 5.44 4.73 4.73 0 0 0 3.68 3.74 4.92 4.92 0 0 0 5-1.43 6.001 6.001 0 0 0 1.45-4.1 8.079 8.079 0 0 0-.09-1.3Zm-2.66 4.47c-.621 1.838-2.999 2.314-4.28.858a2.534 2.534 0 0 1-.47-.788 7.76 7.76 0 0 1-.59-3.86 5.821 5.821 0 0 1 .61-2.49 2.55 2.55 0 0 1 2.47-1.44 2.46 2.46 0 0 1 2.26 1.65c.403.982.591 2.039.55 3.1a7.284 7.284 0 0 1-.55 2.97Zm25.02-.52c-.41-.27-.48 0-.61.27a3 3 0 0 1-3.11 1.58 3.18 3.18 0 0 1-2.79-2.38 9.193 9.193 0 0 1-.32-1.87c0-.35.09-.44.43-.44h6.17c.32 0 .45-.07.43-.42-.02-.35 0-.87-.09-1.32a3.79 3.79 0 0 0-2.08-3.06A4.72 4.72 0 0 0 53 154.9a6.302 6.302 0 0 0-1.13 5 4.79 4.79 0 0 0 3.71 4.24 4.92 4.92 0 0 0 5.37-2.18c.15-.38.13-.54-.23-.76Zm-6.87-4a3.877 3.877 0 0 1 1-2.57c1.089-1.195 3.063-.762 3.553.778a7.251 7.251 0 0 1 .277 1.762c0 .28-.1.32-.34.32h-4.17c-.17-.03-.36-.03-.32-.3Z" fill="#00aeef"/></svg>