<svg viewBox="-0.009 -0.114 199.639 125.867" xmlns="http://www.w3.org/2000/svg" xmlns:xlink="http://www.w3.org/1999/xlink"><defs><linearGradient id="linear-gradient" x1="94.31" y1="80.96" x2="116.52" y2="19.95" gradientUnits="userSpaceOnUse"><stop offset="0" stop-color="#dd5d1b"/><stop offset=".04" stop-color="#e1691c"/><stop offset=".13" stop-color="#ea7f1f"/><stop offset=".24" stop-color="#f19121"/><stop offset=".38" stop-color="#f69d23"/><stop offset=".56" stop-color="#f8a424"/><stop offset="1" stop-color="#f9a624"/></linearGradient><linearGradient id="linear-gradient-2" x1="93.81" y1="40.65" x2="113.59" y2="20.88" gradientUnits="userSpaceOnUse"><stop offset="0" stop-color="#ffd033" stop-opacity="0"/><stop offset="1" stop-color="#ffd033"/></linearGradient><linearGradient id="linear-gradient-3" x1="77.9" y1="50.68" x2="135.34" y2="50.68" gradientUnits="userSpaceOnUse"><stop offset="0" stop-color="#c15911"/><stop offset=".02" stop-color="#c15d10"/><stop offset=".11" stop-color="#c3680d"/><stop offset=".2" stop-color="#c36c0c"/><stop offset=".26" stop-color="#c25f0f"/><stop offset=".32" stop-color="#c15911"/><stop offset=".37" stop-color="#c25f0f"/><stop offset=".5" stop-color="#c3690d"/><stop offset=".67" stop-color="#c36c0c"/><stop offset=".71" stop-color="#be5e0f"/><stop offset=".76" stop-color="#ba5211"/><stop offset=".83" stop-color="#b84b13"/><stop offset="1" stop-color="#b74913"/></linearGradient><linearGradient id="linear-gradient-4" x1="95.52" y1="17.75" x2="95.19" y2="15.87" gradientUnits="userSpaceOnUse"><stop offset="0" stop-color="#00c9f1"/><stop offset="1" stop-color="#0076a0"/></linearGradient><linearGradient id="linear-gradient-5" x1="89.64" y1="42.61" x2="92.25" y2="42.05" gradientUnits="userSpaceOnUse"><stop offset="0" stop-color="#0076a0"/><stop offset="1" stop-color="#00c9f1"/></linearGradient><linearGradient id="linear-gradient-6" x1="119.47" y1="62.96" x2="118.98" y2="60.23" xlink:href="#linear-gradient-5"/><linearGradient id="linear-gradient-7" x1="139.93" y1="48.3" x2="141.67" y2="47.93" xlink:href="#linear-gradient-4"/><linearGradient id="linear-gradient-8" x1="107.89" y1="29.21" x2="109.39" y2="28.89" xlink:href="#linear-gradient-4"/><linearGradient id="linear-gradient-9" x1="125.35" y1="41.66" x2="125.08" y2="40.13" xlink:href="#linear-gradient-4"/><linearGradient id="linear-gradient-10" x1="100.81" y1="43.69" x2="96.26" y2="17.9" gradientUnits="userSpaceOnUse"><stop offset=".28" stop-color="#7fd9f8"/><stop offset=".33" stop-color="#73d7f8"/><stop offset=".55" stop-color="#42d0f7"/><stop offset=".74" stop-color="#1ecaf6"/><stop offset=".9" stop-color="#08c7f5"/><stop offset="1" stop-color="#00c6f5"/></linearGradient><linearGradient id="linear-gradient-11" x1="124.81" y1="44.67" x2="124.46" y2="42.71" gradientUnits="userSpaceOnUse"><stop offset="0" stop-color="#0accf6"/><stop offset="1" stop-color="#7fd9f8"/></linearGradient><linearGradient id="linear-gradient-12" x1="96.18" y1="19.89" x2="95.85" y2="18.06" gradientUnits="userSpaceOnUse"><stop offset="0" stop-color="#23cef6"/><stop offset=".2" stop-color="#48d4f7"/><stop offset=".44" stop-color="#6edbf8"/><stop offset=".66" stop-color="#89dff9"/><stop offset=".85" stop-color="#99e2fa"/><stop offset="1" stop-color="#9fe3fa"/></linearGradient><radialGradient id="radial-gradient" cx="105.42" cy="50.46" r="48.38" gradientUnits="userSpaceOnUse"><stop offset=".65" stop-color="#fef100"/><stop offset="1" stop-color="#ffd600"/></radialGradient><radialGradient id="radial-gradient-2" cx="105.42" cy="50.46" r="48.38" gradientUnits="userSpaceOnUse"><stop offset=".66" stop-color="#ab8b00"/><stop offset=".75" stop-color="#dcad09" stop-opacity="0"/></radialGradient><radialGradient id="radial-gradient-3" cx="105.42" cy="50.46" r="32.45" gradientUnits="userSpaceOnUse"><stop offset="0" stop-color="#ffca09"/><stop offset="1" stop-color="#ffca09" stop-opacity="0"/></radialGradient><style>.cls-1{fill:#fff}</style></defs><path class="cls-1" d="M155.38 40.71a2.05 2.05 0 0 0-2-.76c-6.44-1.23-10.07-2.85-10.8-4.84-.73-1.99.88-5.26 4.84-10.16.337-.252.588-.601.72-1l.06-.16c.589-1.423-.583-2.949-2.109-2.748-.376.05-.73.205-1.021.448-6.38 1.5-10.36 1.49-11.83 0-1.47-1.49-1.34-5.16.28-11.25.209-.377.287-.814.22-1.24v-.18c-.039-1.539-1.729-2.459-3.043-1.656-.327.2-.59.491-.757.836-5.22 4-8.86 5.58-10.82 4.79-1.96-.79-3.32-4.17-4.32-10.4a2.005 2.005 0 0 0-.26-1.2l-.09-.19c-.682-1.38-2.603-1.504-3.457-.223a1.998 1.998 0 0 0-.333 1.003c-3.16 5.74-5.83 8.69-7.94 8.77-2.11.08-4.72-2.42-8.18-7.71a2 2 0 0 0-.73-1l-.14-.11c-1.174-.996-2.986-.348-3.262 1.167-.067.371-.028.753.112 1.103-.54 6.53-1.78 10.32-3.68 11.25-1.9.93-5.32-.32-10.61-3.75a2.12 2.12 0 0 0-1.08-.61h-.17c-1.463-.478-2.896.807-2.578 2.313a2 2 0 0 0 .578 1.037c2.15 6.19 2.56 10.14 1.2 11.77-1.36 1.63-5 1.87-11.22.89a2.058 2.058 0 0 0-1.23-.12h-.17c-1.526.206-2.256 1.987-1.315 3.205.231.298.541.525.895.655 4.48 4.77 6.47 8.22 5.89 10.26-.58 2.04-3.8 3.74-9.89 5.38-.42.01-.828.146-1.17.39l-.14.1c-1.303.82-1.23 2.743.132 3.462.319.168.678.247 1.038.228 6.05 2.54 9.26 4.89 9.56 7 .3 2.11-2 5-6.84 8.94a1.998 1.998 0 0 0-.92.83l-.09.15c-.869 1.271-.036 3.006 1.499 3.123.374.029.749-.049 1.081-.223 6.55-.15 10.44.69 11.57 2.48 1.13 1.79.24 5.33-2.62 11a2.1 2.1 0 0 0-.5 1.21c-.349 1.499 1.056 2.815 2.529 2.367.392-.119.738-.355.991-.677 5.93-2.79 9.82-3.61 11.58-2.43 1.76 1.18 2.43 4.69 2.16 10.98a2.097 2.097 0 0 0 0 1.24l.05.16c.374 1.493 2.225 2.022 3.331.951.268-.26.458-.589.549-.951 4.28-5 7.5-7.3 9.59-6.93 2.09.37 4.11 3.38 6.38 9.27a2 2 0 0 0 .51 1.12l.11.13c.386.44.945.688 1.53.68a2.101 2.101 0 0 0 1-.29 2.07 2.07 0 0 0 1-1.94c1.89-6.28 3.88-9.72 5.94-10.24 2.06-.52 5.13 1.42 9.6 5.88a2.1 2.1 0 0 0 .92.82l.16.07c1.357.727 2.992-.288 2.943-1.827a2 2 0 0 0-.333-1.043c-.82-6.5-.4-10.46 1.27-11.76 1.67-1.3 5.27-.8 11.16 1.46.342.243.751.372 1.17.37h.18c1.536.11 2.614-1.484 1.942-2.869a1.998 1.998 0 0 0-.722-.811c-3.4-5.6-4.62-9.39-3.63-11.26.99-1.87 4.49-2.87 10.79-3.21.41.082.836.036 1.22-.13l.16-.07c1.449-.521 1.791-2.415.615-3.409a1.996 1.996 0 0 0-.995-.451c-5.38-3.74-8-6.7-7.9-8.81.1-2.11 2.94-4.45 8.56-7.32.41-.096.783-.312 1.07-.62l.11-.13a2.05 2.05 0 0 0 .1-2.58Zm-1.74 1.37h-.1c-12.85 6.47-13.66 11.36-.79 20.15h.24l-.16.07h-.08c-14.37.68-17.11 4.82-8.92 18.08l.22.08h-.17a.357.357 0 0 1 0-.08c-13.41-5.22-17.59-2.56-15.51 12.89l.17.17-.15-.07v-.1c-10.12-10.22-15-9.49-19.4 5.47 0 .07 0 .14.08.22l-.11-.13v-.09c-5.1-13.46-9.87-14.78-20-2.9.016.053.029.106.04.16v-.17l.06-.07c.82-14.36-3-17.52-17-10.76a2.096 2.096 0 0 0-.11.21V85h.1c6.58-12.79 4.37-17.23-11.2-16.77l-.19.15.09-.15h.1c11.22-9 11-13.95-3.41-19.87l-.24.06.14-.1h.1c13.91-3.66 15.72-8.27 5-19.54h-.24.17l.07.07C76.47 31.12 80 27.65 74.76 13l-.2-.13h.16v.1c12 7.89 16.67 6.15 17.84-9.39l-.13-.2.14.1v.1c7.78 12.1 12.73 12.41 20.12-1.31.005-.08.005-.16 0-.24l.09.15v.09c2.19 14.22 6.58 16.5 18.92 7V9v.2l-.07.06c-3.79 13.88-.71 17.76 14.43 14.07.06-.06.1-.12.16-.19l-.06.17h-.1c-9.1 11.14-7.86 15.94 7.47 18.73l.22-.11Z"/><path d="M71.81 85.2c6.74-13 4.56-17.46-11.19-17l-.09.15C72 59.25 71.8 54.28 57.21 48.31l-.14.1c14.16-3.68 16-8.29 5.13-19.67h-.17c14.44 2.4 18-1.05 12.69-15.89h-.16c12.2 8.06 16.88 6.36 18-9.36l-.14-.1c7.87 12.33 12.84 12.69 20.3-1.2l-.04-.19c2.18 14.47 6.57 16.81 19 7.16V9c-3.9 14.1-.84 18 14.47 14.28l.06-.17c-9.3 11.3-8.1 16.13 7.41 18.94l.12-.13c-13.09 6.54-14 11.44-.93 20.31l.16-.07c-14.62.66-17.41 4.78-9.11 18.18h.17c-13.62-5.35-17.84-2.71-15.71 12.91l.15.07c-10.26-10.43-15.19-9.74-19.6 5.39l.11.13c-5.13-13.7-9.92-15.08-20.1-3.05L89 96c.88-14.6-2.93-17.81-17.13-11" fill="url(#radial-gradient)"/><path d="M71.81 85.2c6.74-13 4.56-17.46-11.19-17l-.09.15C72 59.25 71.8 54.28 57.21 48.31l-.14.1c14.16-3.68 16-8.29 5.13-19.67h-.17c14.44 2.4 18-1.05 12.69-15.89h-.16c12.2 8.06 16.88 6.36 18-9.36l-.14-.1c7.87 12.33 12.84 12.69 20.3-1.2l-.04-.19c2.18 14.47 6.57 16.81 19 7.16V9c-3.9 14.1-.84 18 14.47 14.28l.06-.17c-9.3 11.3-8.1 16.13 7.41 18.94l.12-.13c-13.09 6.54-14 11.44-.93 20.31l.16-.07c-14.62.66-17.41 4.78-9.11 18.18h.17c-13.62-5.35-17.84-2.71-15.71 12.91l.15.07c-10.26-10.43-15.19-9.74-19.6 5.39l.11.13c-5.13-13.7-9.92-15.08-20.1-3.05L89 96c.88-14.6-2.93-17.81-17.13-11" fill="url(#radial-gradient-2)"/><circle cx="105.42" cy="50.46" r="32.45" fill="url(#linear-gradient)"/><circle cx="105.42" cy="50.46" r="32.45" fill="url(#radial-gradient-3)"/><ellipse cx="103.7" cy="30.77" rx="17.57" ry="9.06" fill="url(#linear-gradient-2)"/><path d="M93.23 70.68 83.74 26.3a32.549 32.549 0 0 0-5.84 6.92c6.83 8.85 12.61 22.59 12.78 41.85 0 0 18.61-9.91 41-5.64a31.963 31.963 0 0 0 3.66-6.43Z" fill="url(#linear-gradient-3)"/><path fill="#0077a3" d="m82.7 21.44 1.77-3.53 21.59-3.95 6.26 28.56 27.08-4.9 4.46 20.44-1.73 3.69-48.89 8.95L82.7 21.44Z"/><path fill="url(#linear-gradient-4)" d="m105.18 16.01.84-2.05-21.63 3.95 2.78 1.32 18.01-3.22Z"/><path fill="url(#linear-gradient-5)" d="m87.17 19.23-2.78-1.32L95 67.28l1.99-2.93-9.82-45.12Z"/><path fill="url(#linear-gradient-6)" d="m141.71 56.23-44.72 8.12L95 67.28l48.86-9.02-2.15-2.03Z"/><path fill="url(#linear-gradient-7)" d="m139.36 37.62-1.32 1.78 3.67 16.83 2.15 2.03-4.5-20.64Z"/><path fill="url(#linear-gradient-8)" d="m106.02 13.96-.84 2.05 5.89 28.17 1.21-1.66-6.26-28.56Z"/><path fill="url(#linear-gradient-9)" d="m112.28 42.52-1.21 1.66.07-.01 26.9-4.77 1.32-1.78-27.08 4.9Z"/><path fill="#00bcf2" d="m96.99 64.35 44.72-8.12-3.67-16.83-26.97 4.78-5.89-28.17-18.01 3.22 9.82 45.12Z"/><path d="m108.73 37.49-4.56-21-16.63 3L93.21 45c2.5-2.88 7.96-7.91 15.52-7.51Z" fill="url(#linear-gradient-10)"/><path d="M137.9 40.5v-.16l-26.8 4.8c.8 2.1 25.48-1.58 26.8-4.64Z" fill="url(#linear-gradient-11)"/><path d="M97.48 63.78 140.8 56c-.51-2.39-44.02 4.06-43.32 7.78Z" fill="#59d0f6"/><path d="m104.17 16.59-16.63 3c.2 2.35 17.64-.59 16.63-3Z" fill="url(#linear-gradient-12)"/><path class="cls-1" d="M197.21 77.56h-6.82a2.756 2.756 0 0 0-1.56.46c-.402-.28-.88-.43-1.37-.43h-7a2.44 2.44 0 0 0-1.8.8 6.644 6.644 0 0 0-2.06-.94 9.324 9.324 0 0 0-2.31-.3 7.66 7.66 0 0 0-.83 0l.57-3.71c.01-.14.01-.28 0-.42a2.41 2.41 0 0 0-2.41-2.41h-7a2.41 2.41 0 0 0-2.39 2l-.9 5.9a5.698 5.698 0 0 0-1.13-.64 7.714 7.714 0 0 0-3.09-.68 6.56 6.56 0 0 0-2.56.51 2.487 2.487 0 0 0-.87-.16h-6.89a2.4 2.4 0 0 0-2.23 1.5 7.115 7.115 0 0 0-3.22-1.48 22.813 22.813 0 0 0-4.69-.49 25.841 25.841 0 0 0-4.66.44 7.225 7.225 0 0 0-2.3.82 6.58 6.58 0 0 0-4.94-7.17 15.764 15.764 0 0 0-4.09-.6h-10.87a2.41 2.41 0 0 0-2.39 2l-1.26 8.24-.6 3.86h-.08a2.636 2.636 0 0 0-.87.16 6.478 6.478 0 0 0-1.64-.28h-.52a6.304 6.304 0 0 0-3.53 1c-.095.06-.185.127-.27.2a2.398 2.398 0 0 0-1.87 0 1.334 1.334 0 0 0-.24.11 5.404 5.404 0 0 0-.6-2.27 5.549 5.549 0 0 0-4.91-2.93 5.52 5.52 0 0 0-4.38 2.13h-4.15l.19-.67c.11-.36.21-.73.31-1.08 0-.17.09-.34.14-.51a2.41 2.41 0 0 0-2.32-3.06h-7.13a2.414 2.414 0 0 0-1.34.41 2.37 2.37 0 0 0-1.33-.29h-5.54c.14-.93.29-1.88.42-2.79l.21-1.4a2.4 2.4 0 0 0-1.59-2.64 2.583 2.583 0 0 0-.94-.18h-6.51a2.735 2.735 0 0 0-1.72.57 2.386 2.386 0 0 0-1.52-.54h-6.7a2.774 2.774 0 0 0-1.53.44 2.702 2.702 0 0 0-1.18 1.89c-.16 1.06-.33 2.1-.5 3.2-.06.4-.12.79-.19 1.19-.058.414-.013.837.13 1.23a2.35 2.35 0 0 0-.43.9 7.333 7.333 0 0 0-3.83-1.89 23.182 23.182 0 0 0-4.35-.42 25.512 25.512 0 0 0-4.54.42 7.852 7.852 0 0 0-2.65 1v-.19A6.847 6.847 0 0 0 27 73.89a6.73 6.73 0 0 0-3.7-2.65 14.912 14.912 0 0 0-4.12-.65H8.53A2.76 2.76 0 0 0 5.72 73c-.14 1.09-.32 2.21-.48 3.29l-.1.61c-.3 1.93-.59 3.86-.89 5.79l-1.2 7.76c-.92 6-1.85 12-2.67 17.39l-.24 1.67c0 .25-.08.5-.11.76A2.39 2.39 0 0 0 1.74 113c.275.101.567.152.86.15h3.84c3 0 6.12 0 9.2-.11a8.657 8.657 0 0 0 5.6-2.13c.232-.208.449-.432.65-.67a5.643 5.643 0 0 0 1.72 1.76 7.373 7.373 0 0 0 4.27 1.39c1-.007 1.99-.2 2.92-.57.315.141.655.216 1 .22h6.94a2.438 2.438 0 0 0 1.16-.3c.349.191.742.291 1.14.29H48a2.4 2.4 0 0 0 1.5-.53c.233.174.493.309.77.4.284.107.586.162.89.16h4.66c-.14.94-.28 1.89-.43 2.87-.07.43-.13.87-.2 1.3a2.42 2.42 0 0 0 2.4 2.77h8.78a6.78 6.78 0 0 0 6.11-3.84 14.49 14.49 0 0 0 1.08-2.65c.5-1.69 1-3.39 1.49-5.09.304.187.645.307 1 .35h19.53a3.11 3.11 0 0 0 2-.78l1-.91c.52-.48 1-.93 1.5-1.33a23.644 23.644 0 0 1 2.46-1.73c-.18 1.17-.36 2.32-.53 3.46-.1.63-.19 1.25-.29 1.9 0 .3-.09.59-.13.9a2.39 2.39 0 0 0 2.41 2.82h7.66c1.8 0 3.65 0 5.49-.09a8.858 8.858 0 0 0 5.4-1.91 8.285 8.285 0 0 0 1-1c.291.513.658.978 1.09 1.38a7.006 7.006 0 0 0 3.33 1.6 23.02 23.02 0 0 0 4.69.48c1.53-.006 3.056-.15 4.56-.43a7.89 7.89 0 0 0 2.83-1.09c0 .08.11.15.17.23a2.43 2.43 0 0 0 1.83.84H149a2.42 2.42 0 0 0 2.37-2v-.16c0-.14.03-.3.09-.48l.42-2.76c.16-1 .31-2.09.47-3.14l.48-3.1c.32-2.1.65-4.23 1-6.38h4.95l-2.33 15.21a2.41 2.41 0 0 0 2.38 2.78h6.92c.305 0 .607-.058.89-.17.958.477 2.01.737 3.08.76h.33a8.985 8.985 0 0 0 2.13-.24l-.14.9-.44 2.92a2.41 2.41 0 0 0 1.86 2.71c.225.06.457.091.69.09h8.45a7.618 7.618 0 0 0 3.11-.68 6.35 6.35 0 0 0 2.63-2.3 11.869 11.869 0 0 0 1.43-2.92c.87-2.83 1.71-5.72 2.51-8.51l.61-2.08 2.55-8.79c1-3.32 2-6.75 2.94-10.12.25-.86.52-1.73.78-2.57l.36-1.21c.072-.226.109-.462.11-.7V80a2.41 2.41 0 0 0-2.42-2.44Z"/><path d="m76.32 106.39.53-1.85c1 .28 2 .59 2.93.81a13 13 0 0 0 7.4-.13 8.157 8.157 0 0 0 3-1.79.727.727 0 0 0 .23-.39 8.421 8.421 0 0 0-2.1-5.54c-.06.29-.1.5-.16.7a5.19 5.19 0 0 1-3.75 3.53c-.326.1-.661.17-1 .21a.8.8 0 0 0-.82.78c0 .27.43.61.84.72.56.15 1.11.37 1.68.53.221.069.459.069.68 0a5.06 5.06 0 0 0 3.64-3.33.899.899 0 0 1 .09-.16 1.7 1.7 0 0 1-.24 2.34 6.929 6.929 0 0 1-4.69 2c-.75.08-1.51.07-2.26.1-.26 0-.57-.06-.47.46L77 104.11l.13-.59 1.69.44.36-2-1.4-.59.24-.83 1.39.37.59-1.81-1.73.82c.06-.49.14-.91.84-1l-.49-.13c0-.43.14-.64.58-.58a1.35 1.35 0 0 0 1.7-1c.123-.296.285-.575.48-.83l-2.15.25.45-1.69H84l-1.24 1.36 2.15.54c.27-.4.56-.79.81-1.22a.83.83 0 0 0-.2-1.23A11.76 11.76 0 0 0 81.43 92l-.85-.3c.14-.5.26-1 .43-1.47 0-.12.26-.22.41-.24.85-.13 1.71-.24 2.57-.34.44 0 .68-.23.68-.7a7.467 7.467 0 0 1 .06-1.32l.19.4a17.495 17.495 0 0 0 3.83 5.43c.323.335.757.541 1.22.58l3.46.18c.28 0 .7 0 .65-.36a1.153 1.153 0 0 0-.61-.79c-.8-.26-1.66-.36-2.48-.57-1.19-.31-1.15-.34-1.35-1.55A16.194 16.194 0 0 0 89 88.5a4.52 4.52 0 0 0-4.72-2.82c-.64 0-1.28.06-1.94.09-.06-.37.1-.49.44-.5 1.41 0 2.82-.11 4.23-.07a1.34 1.34 0 0 0 1.33-.71 3.15 3.15 0 0 1 3.49-1.32 3 3 0 0 1 2.06 3.93.68.68 0 0 0 .2.87c.24.21.44.46.66.69v.13c-.48 0-1-.05-1.45-.1a1 1 0 0 0-1.05.68c0 .15-.09.3-.14.46-.19.55-.23.56-.72.28a.634.634 0 0 0-.45 0c-.1 0-.18.12-.26.2-.08.08-.54.29-.43.71.11.42.09.81.65.91.56.1 1.15.29 1.73.4.13 0 .29-.11.44-.17-.11-.15-.19-.38-.33-.41-.55-.14-1.11-.21-1.68-.32a6.169 6.169 0 0 1 5.33-.85c-.24-.58-.67-.71-2-.59a4.313 4.313 0 0 1 3.17-1.25l.1-.78c1.5 1.09 3 .17 4.49.16a2.819 2.819 0 0 0-2-.56 4.257 4.257 0 0 1 2.66-.57 4.458 4.458 0 0 1 2.46.92l.14-.8c.73.52 1.41 1 2.11 1.48.274.189.59.309.92.35.22 0 .64-.14.67-.28a.939.939 0 0 0-.24-.79 6.817 6.817 0 0 0-1.35-.57 2.21 2.21 0 0 0-.46 0v-.17a7.454 7.454 0 0 1 1.25 0 8.84 8.84 0 0 1 2 .5 1.42 1.42 0 0 1 1 1.75h.12l.53-.65c.51.47.37 1.06-.52 1.86.033.169.076.336.13.5.04.152.115.293.22.41 2.585 1.692 5 3.631 7.21 5.79.21.168.463.275.73.31a1.32 1.32 0 0 1 .84 2 2.72 2.72 0 0 0-.35.82 1.58 1.58 0 0 1-2 .89l-.31-.16c.18.56-.2.68-.55.8-.2.06-.41.07-.61.13a.67.67 0 0 1-.94-.44 2.192 2.192 0 0 0-1.65-1.2c-.3-.07-.65.14-1 .14a1.139 1.139 0 0 1-.72-.2 1.486 1.486 0 0 0-1.07-.29c-.9.05-1.8.1-2.69.12a2.601 2.601 0 0 1-1-.1 2.482 2.482 0 0 0-1.72 0 19.363 19.363 0 0 0-7.29 3.87c-.9.72-1.72 1.54-2.58 2.3a.721.721 0 0 1-.46.18H76.69a2.907 2.907 0 0 1-.37-.07Zm16.32-22.28.06.15c.439.673.607 1.488.47 2.28.19-.09.37-.13.37-.18a2.598 2.598 0 0 0-.79-2.16l-.11-.09v-.07.06Zm20.43 10.61a.84.84 0 0 0-.06-1.35 1.718 1.718 0 0 0-1.77-.06.9.9 0 0 0-.21 1.46 1.43 1.43 0 0 0 2-.06Zm.78-1.07-.06-.07v.12a1.38 1.38 0 0 1-1 1.74 3.485 3.485 0 0 1-1.54.08 1.62 1.62 0 0 1-1.18-1.13l-.75.71c.94.75 1.87 1.47 2.76 2.21a2 2 0 0 0 1.73.72l.08.06.07.63c.82-.71 1.59-1.35 2.33-2a.75.75 0 0 0 0-1.12c-.79-.69-1.62-1.31-2.44-1.95Zm-26.8 1.77.31.26a14.91 14.91 0 0 1 4.52 5.47c.156.333.358.643.6.92a2.27 2.27 0 0 0 2.52.86 7.776 7.776 0 0 0 1.47-.58 37.102 37.102 0 0 1 6.42-2.67c1-.27 1.94-.51 2.84-.74l-.59-1.94-.26-.1-4.57-1.48a2.004 2.004 0 0 0-1.6-.08 8.143 8.143 0 0 1-2.25.37l-.09-.07v-.48h-2a13.854 13.854 0 0 1-4.64-.16 3.868 3.868 0 0 0-2.68.42Zm7.38-3v.1h2.83c.172-.022.347-.001.51.06.85.55 1.7 1.13 2.57 1.72l-.4.38 5.35 1.77c.082-.224.183-.442.3-.65a.48.48 0 0 0-.11-.74c-.33-.29-.62-.62-1-1l2.88-2.55 1 1 1.91-1.43-.06-.12a.99.99 0 0 0-.35.09 3.003 3.003 0 0 1-2.24.19 6.061 6.061 0 0 0-1.18-.22 29.686 29.686 0 0 0-7.53.37c-1.45.36-2.91.73-4.48 1.05ZM83.56 99c-.42-.1-.79-.22-1.17-.27-1.25-.2-1-.5-1.53.82-.53 1.32-.88 2.73-1.29 4.1 0 .18 0 .49.06.56a1.12 1.12 0 0 0 1.67-.54c.19-.49.39-1 .62-1.45.52-1.09 1.08-2.14 1.64-3.22Zm31.54 0 3.37 1.82c.37.2 1.25-.1 1.26-.47a2.25 2.25 0 0 1 .45-1 .82.82 0 0 0-.64-1.25 3.448 3.448 0 0 1-1-.5c-.31-.22-.607-.457-.89-.71Zm-7.68-2.78 2-1.89c-.64-.66-1.24-1.3-1.87-1.91a.42.42 0 0 0-.43 0c-.65.56-1.28 1.14-2 1.78Zm-9.08-2.37h.09c-.1-.12-.29-.23-.3-.36 0-.52-.41-.49-.72-.47-1 .06-1.91.17-3 .26.181.283.388.547.62.79a2.57 2.57 0 0 0 2.31.51c.22 0 .48-.17.56.18l-.88.47.07.15c.41-.1.84-.18 1.24-.32a.34.34 0 0 0 .19-.54 3.235 3.235 0 0 1-.18-.67Zm7.58 2.83 6 2 .07-.14-3.57-2.62-1.19 1.08-1.17-1.3Zm-22.33 3.84c2.31-.64 3.67-2.75 2.71-4.1a11.774 11.774 0 0 0-2.71 4.1Zm22.52-3.21a2.92 2.92 0 0 0 2.46 2c1.06.07 2.13.1 3.33.15-.14-.15-.21-.29-.31-.33-1.8-.61-3.59-1.2-5.48-1.82Zm-15.56-8-.14-1.79h-.54a.625.625 0 0 0 0-.22 7.751 7.751 0 0 0-.51-.76.44.44 0 0 0-.28.07c-.06.304-.06.616 0 .92.32.85.69 1.68 1 2.52.51-.08.88-1 1.62-.23v-.57Zm-9 8.78 1.16.25c1.18.27 1.18.27 1.76-.81v-.17c-.66-.16-1.33-.32-2-.46a.34.34 0 0 0-.31.14c-.16.33-.39.68-.62 1.06Zm31-5.45c-.46-.29-.8-.53-1.16-.73a.377.377 0 0 0-.34 0c-.68.43-1.35.88-2 1.28l1 1.11c.31-1.3.84-1.66 2.5-1.65Zm-3-1.85-2.87-2.18-.2-.13c.07 1.52 1.83 3.19 3.04 2.32Zm-21.1-5.63v.18a11.918 11.918 0 0 0 4.9 2.1l.14-.43c-.81-.23-1.6-.4-2.34-.69-.74-.29-1.44-.68-2.16-1a2.562 2.562 0 0 0-.57-.15ZM101.56 89c.76.295 1.504.628 2.23 1a1.851 1.851 0 0 0 1.8.32 7.34 7.34 0 0 0-4.03-1.32Zm12.78 10.89c.605.332 1.178.72 1.71 1.16a1 1 0 0 0 1.33.19c-.94-.76-1.71-1.71-3.04-1.33Zm-.86.17v-1.47c-.69-.06-1.07.21-1.06.73.01.52.38.8 1.06.76Zm-14-10.75a24.12 24.12 0 0 1 2.27 1 1.54 1.54 0 0 0 1.39.13 8.17 8.17 0 0 0-3.66-1.11Zm-5.64 1.56c.578.117 1.146.277 1.7.48.52.201 1.1.175 1.6-.07a6.68 6.68 0 0 0-3.3-.39Zm-11.47 12.45-.33 1h2.31c-.62-.47-1.53-.06-1.98-1Zm8.77-16a5.194 5.194 0 0 0 2.89 1c-.22-.19-.35-.39-.52-.44-.78-.19-1.57-.35-2.37-.53Zm7 2.92a1.13 1.13 0 0 0 1.68.43 2 2 0 0 0-1.65-.4Zm11.46-.12c.18 0 .42.12.56 0a1.22 1.22 0 0 0 .84-1.02Zm4.4 9.48.67-.23a1.243 1.243 0 0 0-.38-.23c-.19-.04-.42-.01-.29.46Zm35 11.07h-6.92c1.57-10.25 3.13-20.46 4.7-30.69h6.89l-.15 1.33.74-.61a4.53 4.53 0 0 1 5-.59 3.34 3.34 0 0 1 2 3.41 39.789 39.789 0 0 1-.44 4.06c-.23 1.7-.51 3.39-.77 5.1h-6.2c.12-.86.24-1.69.37-2.52.15-1.06.31-2.13.46-3.19a1.812 1.812 0 0 0 0-.52c0-.37-.13-.7-.56-.79a.89.89 0 0 0-1.09.49 9.344 9.344 0 0 0-.49 1.8c-.85 5.42-1.67 10.84-2.5 16.26l-.9 5.9c-.05.18-.09.37-.14.56ZM63.71 73c-.22 1.49-.44 3-.67 4.46-.6 3.88-1.203 7.76-1.81 11.64-.667 4.3-1.333 8.593-2 12.88-.43 2.75-.86 5.51-1.27 8.27 0 .24-.06.42-.38.42h-6.41a1.706 1.706 0 0 1-.2-.06l.36-2.41c.667-4.32 1.333-8.653 2-13 .7-4.533 1.397-9.063 2.09-13.59.433-2.773.857-5.547 1.27-8.32 0-.24.09-.37.37-.37h6.5a.72.72 0 0 1 .15.08Zm-17.96 7h7c-1.587 10.213-3.17 20.433-4.75 30.66h-6.94c1.56-10.23 3.12-20.43 4.69-30.66Zm.34-2.34c.24-1.51.47-3 .69-4.41 0-.32.26-.27.46-.27h6.57c-.23 1.51-.46 3-.7 4.41a.4.4 0 0 1-.27.24Zm151.12 2.5c-.39 1.27-.78 2.53-1.15 3.8-1.84 6.313-3.673 12.62-5.5 18.92-1 3.52-2 7.05-3.1 10.55a9.236 9.236 0 0 1-1.15 2.31 4.3 4.3 0 0 1-3.76 1.89h-8.56c.27-1.73.53-3.45.8-5.25h3.98c1.35 0 1.9-.56 1.94-1.92.04-1.36 0-2.5 0-3.76 0-2.42-.07-4.84-.1-7.27 0-3.86-.07-7.73-.12-11.6 0-2.42-.06-4.84-.09-7.27V80h7c-.65 7.37-1.05 14.73-2.24 22 .68.12.67.12.76-.47.78-5.54 1.75-11 3-16.5.36-1.56.68-3.13 1-4.7.05-.22.1-.38.39-.37h6.84ZM2.41 110.64c.12-.81.23-1.61.36-2.41.88-5.8 1.767-11.6 2.66-17.4.7-4.507 1.397-9.02 2.09-13.54.21-1.32.41-2.63.59-4 0-.29.15-.37.43-.37h10.6a12.54 12.54 0 0 1 3.44.54 4.12 4.12 0 0 1 3.08 4.58c-.15 1.84-.44 3.66-.71 5.49-.51 3.5-1.06 7-1.6 10.5-.58 3.69-1.12 7.38-1.74 11.07a6 6 0 0 1-6.06 5.39c-4.31.15-8.63.09-12.95.12-.04.08-.09.05-.19.03Zm9-6.09h.54c1.52 0 1.85-.3 2.09-1.81.56-3.56 1.107-7.123 1.64-10.69.467-3.067.93-6.137 1.39-9.21.14-.91.27-1.81.35-2.72.05-.57-.19-.83-.76-.92-.57-.09-.88-.07-1.35-.1Zm154.59 4.8-.25 1.32h-6.92c1.933-12.58 3.86-25.137 5.78-37.67h7l-1.22 8 .71-.47a5.728 5.728 0 0 1 4.84-.73 3.79 3.79 0 0 1 2.9 4.24c-.3 2.37-.67 4.73-1 7.1-.56 3.72-1.13 7.44-1.71 11.16-.26 1.63-.49 3.27-.9 4.87a6.888 6.888 0 0 1-1.21 2.42 4.69 4.69 0 0 1-4.19 1.7 5 5 0 0 1-3.83-1.94Zm.84-5.71c0 1.07.31 1.41 1.06 1.29a.9.9 0 0 0 .77-.76c.19-.85.34-1.72.48-2.59.6-3.8 1.19-7.597 1.77-11.39.19-1.19.36-2.38.52-3.57a.78.78 0 0 0-.56-.94.88.88 0 0 0-1.14.46 3.101 3.101 0 0 0-.3 1l-2 12.67Zm-51.93-11.82c-.47-.34-.91-.62-1.3-.95-.09-.07-.1-.33 0-.47a2.55 2.55 0 0 0-.4-2.7 1.545 1.545 0 0 0-.35-.33c-1.47-1-3-1.94-4.83-1.83l-.12-.06c.667-4.153 1.31-8.32 1.93-12.5h10.83c1.167.016 2.327.184 3.45.5a4.22 4.22 0 0 1 3.19 4.92c-.35 2.86-.79 5.71-1.21 8.57-.55 3.67-1.13 7.35-1.7 11-.4 2.54-.71 5.09-1.25 7.59a5.94 5.94 0 0 1-6 5c-2.36.1-4.72.08-7.08.1H104c.14-1 .28-1.87.42-2.78.273-1.78.55-3.553.83-5.32 0-.28.06-.71.23-.78.408-.258.89-.371 1.37-.32a10.5 10.5 0 0 0 3.58.09 3.002 3.002 0 0 1 1.62.27c.413.155.842.259 1.28.31l-.34 2.33a1.92 1.92 0 0 0 2.46-1 4.198 4.198 0 0 0 3.13-.52c.202-.091.419-.145.64-.16a2.739 2.739 0 0 0 2.46-2c.212-.478.393-.969.54-1.47a2.7 2.7 0 0 0-2.11-3.17.874.874 0 0 1-.36-.21c-.83-.74-1.64-1.49-2.47-2.22a.56.56 0 0 1-.21-.61c.62-4 1.237-8.023 1.85-12.07v-.43c.08-1.16-.17-1.43-1.32-1.47-.74 0-.75 0-.86.68a9304.2 9304.2 0 0 0-1.79 11.6c.05.1.05.21-.04.41Zm-76.15 18.85h-6.94l.14-1.25c-.436.33-.894.631-1.37.9a5.21 5.21 0 0 1-5.6-.25 3.63 3.63 0 0 1-1.42-3.72c.33-2.55.73-5.1 1.08-7.66a5.14 5.14 0 0 1 3.21-4.18c2.14-1 4.27-2 6.41-3a.8.8 0 0 0 .54-.69c.21-1.45.45-2.89.67-4.33.02-.223.02-.447 0-.67a.79.79 0 0 0-.67-.82.77.77 0 0 0-.95.47 16.809 16.809 0 0 0-.5 2.09c-.17 1-.29 1.9-.43 2.87H26c.21-1.5.39-3 .64-4.48a23.32 23.32 0 0 1 .59-2.57 4.71 4.71 0 0 1 3.93-3.52 21.479 21.479 0 0 1 8 0c2.87.57 4 2.28 3.55 5.19-.75 5.33-1.61 10.65-2.42 16l-1.38 9.08c-.08.18-.12.35-.15.54Zm-4.94-13.2-1.46.7a1.45 1.45 0 0 0-.82 1.17c-.11.76-.25 1.51-.36 2.27-.11.76-.23 1.56-.26 2.34a.86.86 0 0 0 1.3.84c.288-.218.484-.535.55-.89.24-1.19.41-2.39.61-3.59.14-.92.28-1.83.44-2.84ZM135 99.44h7c-.14.89-.25 1.76-.4 2.62-.28 1.61-.54 3.23-.87 4.83a4.552 4.552 0 0 1-3.91 3.84 21.373 21.373 0 0 1-8.32 0c-1.74-.36-3-1.3-3.24-3.2a9.816 9.816 0 0 1 0-2.54c.62-4.35 1.28-8.69 1.94-13 .37-2.44.75-4.88 1.18-7.31.148-.72.376-1.421.68-2.09a4.261 4.261 0 0 1 3.34-2.61c2.78-.55 5.64-.55 8.42 0 2.56.54 3.52 2.08 3.27 4.63-.3 3-.79 5.94-1.21 8.91-.14 1-.3 2-.46 3h-8.93c-.16.94-.32 1.85-.46 2.76-.26 1.6-.52 3.2-.77 4.79-.015.21-.015.42 0 .63a.83.83 0 0 0 .74 1 .85.85 0 0 0 1.11-.65c.23-1 .39-2.11.57-3.17.11-.82.21-1.61.32-2.44Zm1.33-8.44c.1-.72.19-1.4.29-2.08.14-.92.29-1.83.42-2.75a.89.89 0 0 0-.53-1.11.91.91 0 0 0-1.17.38c-.142.248-.24.519-.29.8-.18 1-.33 2.09-.49 3.14-.08.53-.15 1.06-.23 1.62Zm-78.74 26.63c.25-1.68.51-3.33.74-5 0-.32.22-.29.43-.29h3.62c1.21 0 1.91-.59 1.92-1.89 0-2.31 0-4.62-.07-6.93V98.9c0-3.93-.08-7.86-.11-11.8v-7.11H71c-.65 7.36-1 14.73-2.24 22a.82.82 0 0 0 .21 0h.5A220.142 220.142 0 0 1 73.67 80h7.13c-.16.54-.29 1.06-.44 1.57-3.04 10.42-6.077 20.85-9.11 31.29a11.829 11.829 0 0 1-.91 2.21 4.4 4.4 0 0 1-4 2.54c-2.91.06-5.8.02-8.75.02ZM30.44 119.14v-2.27c0-.23 0-.31-.27-.3h-2.59c-.17 0-.3 0-.3.23v4.26a.9.9 0 0 0 1.05 1c.27 0 .53 0 .79-.06.09 0 .24-.11.24.07s.1.33-.11.42a3.64 3.64 0 0 1-2.27.35 1.15 1.15 0 0 1-1-1 3.48 3.48 0 0 1-.07-.72v-4.21c0-.24-.06-.34-.31-.31-.203.02-.407.02-.61 0-.11 0-.27.07-.31-.07a2.026 2.026 0 0 1 0-.55h.12c.07-.005.14-.005.21 0 .3 0 .71.14.89-.07.18-.21 0-.6.05-.9.02-.31.02-.62 0-.93 0-.18.05-.26.24-.25.19.01.74-.13 1 .06s0 .61.07.92c.07.31 0 .6 0 .9 0 .3.07.27.28.27h2.62c.22 0 .3-.05.29-.28v-1.59c0-.21.05-.29.27-.28.263.015.527.015.79 0 .19 0 .23.06.23.23v1.63c0 .23.07.29.29.28h1.45c.29 0 .23.18.23.34 0 .16.06.36-.23.35H32c-.2 0-.26.06-.25.26v4c0 .93.35 1.23 1.27 1.2.2 0 .38-.05.58-.06.2-.01.23-.08.25.08.02.16.09.33-.12.42a3.69 3.69 0 0 1-2.24.35 1.25 1.25 0 0 1-1.05-1.37c-.05-.75 0-1.52 0-2.29ZM49.5 121c.55-1.26 1-2.45 1.52-3.66.23-.61.15-.75-.46-1l-.2-.06c-.18 0-.11-.2-.11-.31 0-.11.1-.15.21-.15h2.1c.1 0 .24 0 .24.15s0 .27-.16.32a1.75 1.75 0 0 0-1.06 1.1c-.9 2.06-1.68 4.16-2.66 6.19a5.926 5.926 0 0 1-1.06 1.6 1.58 1.58 0 0 1-1.66.51.997.997 0 0 1-.64-.49.78.78 0 0 1 .15-.89.7.7 0 0 1 .86-.1c.24.143.434.351.56.6.09.14.17.18.3.06a7.003 7.003 0 0 0 1.34-2.19c0-.1 0-.19-.07-.29a334.733 334.733 0 0 1-2.16-5.21 1.34 1.34 0 0 0-1-.86c-.22-.06-.22-.19-.22-.35 0-.16.16-.17.28-.17h2.63c.14 0 .28 0 .26.2-.02.2 0 .32-.24.32a.775.775 0 0 0-.3.07c-.2.06-.3.16-.2.38.61 1.45 1.17 2.81 1.75 4.23Zm-32.27-4.13v4.37c0 .7.13.87.82 1 .21 0 .21.14.22.3.01.16-.11.19-.25.19h-2.89c-.14 0-.24 0-.24-.19s0-.26.23-.29c.72-.08.82-.17.82-.89V114c0-1-.18-1.17-1.11-1.33-.2 0-.3-.07-.29-.3.01-.23.18-.19.31-.2.68-.05 1.35-.07 2-.13.27 0 .36.06.36.34.01 1.45.02 2.97.02 4.49Zm24.95.02c.235-.301.515-.564.83-.78.276-.191.59-.321.92-.38a1 1 0 0 1 1.06.41 1.2 1.2 0 0 1 0 1.24.7.7 0 0 1-.83.23.62.62 0 0 1-.5-.62c-.01-.1-.01-.2 0-.3 0-.17 0-.2-.16-.19a1.599 1.599 0 0 0-1.3 1.5v3.14c0 .92.12 1.07 1 1.14.23 0 .29.11.28.31-.01.2-.06.18-.19.18h-3.22c-.16 0-.21-.06-.2-.2.01-.14 0-.27.16-.28h.28a.58.58 0 0 0 .58-.64v-4.25a.87.87 0 0 0-.8-.91c-.16 0-.29 0-.29-.28s.16-.23.31-.24c.6 0 1.19-.06 1.79-.12.25 0 .32.08.31.32-.028.239-.038.48-.03.72Zm-17.24 1.48a3.06 3.06 0 0 0-2.29-2.54 3.22 3.22 0 0 0-3.55 1 3.829 3.829 0 0 0-.7 3.55 3.06 3.06 0 0 0 2.36 2.43 3.221 3.221 0 0 0 3.32-.93 3.85 3.85 0 0 0 .94-2.67 4.828 4.828 0 0 0-.08-.84Zm-1.74 2.92c-.423 1.189-1.976 1.474-2.794.513a1.644 1.644 0 0 1-.296-.513 5.049 5.049 0 0 1-.38-2.52 3.648 3.648 0 0 1 .39-1.62 1.66 1.66 0 0 1 1.61-1 1.61 1.61 0 0 1 1.47 1.08c.263.633.386 1.315.36 2a4.797 4.797 0 0 1-.36 2.06Zm16.31-.29c-.27-.18-.32 0-.4.17a2 2 0 0 1-2 1 2.08 2.08 0 0 1-1.82-1.55 5.677 5.677 0 0 1-.21-1.22c0-.23.06-.29.28-.29h4c.21 0 .29 0 .28-.27-.01-.27 0-.57-.06-.86a2.48 2.48 0 0 0-1.35-2 3.07 3.07 0 0 0-3.75.87 4.091 4.091 0 0 0-.74 3.23 3.131 3.131 0 0 0 2.41 2.77 3.21 3.21 0 0 0 3.5-1.43c.1-.23.09-.33-.14-.42ZM35 118.33a2.519 2.519 0 0 1 .69-1.67 1.36 1.36 0 0 1 2.305.485c.009.028.018.056.025.085.098.352.152.715.16 1.08 0 .19-.07.21-.22.21h-2.72c-.13-.01-.24-.01-.24-.19Z" fill="#00aeef"/><path d="M3 119.2a4.002 4.002 0 0 0 .54 2.06 1.89 1.89 0 0 0 3 .31 4.28 4.28 0 0 0 .39-.48c.11-.17.18-.26.4-.12.22.14.19.23.07.41a3.15 3.15 0 0 1-4.72.79c-1.802-1.909-1.307-5.007 1-6.26a2.78 2.78 0 0 1 2.88.33c.5.397.696 1.066.49 1.67a.67.67 0 0 1-.82.45.72.72 0 0 1-.69-.73 2.99 2.99 0 0 1 .13-.78c.08-.3 0-.47-.34-.57a1.54 1.54 0 0 0-1.83.72 4.394 4.394 0 0 0-.5 2.2Zm11.33 3.11c0-.18-.14-.14-.25-.15-.76 0-.94-.23-.93-1v-3.39a1.789 1.789 0 0 0-1.09-1.86 3.44 3.44 0 0 0-3.31.38c-.287.184-.495.47-.58.8a.74.74 0 0 0 .28.86c.262.18.608.18.87 0a.67.67 0 0 0 .32-.77c0-.16-.06-.31-.1-.47a.24.24 0 0 1 .12-.29 1.35 1.35 0 0 1 2.13.88c.036.262.056.526.06.79a.34.34 0 0 1-.26.38c-.5.18-1 .37-1.49.54a7.155 7.155 0 0 0-1.46.61 1.87 1.87 0 0 0-.78 2 1.61 1.61 0 0 0 1.48 1.24 2.71 2.71 0 0 0 2-.56l.49-.42c.4.81.77 1 1.59.95.236-.047.47-.107.7-.18.25-.04.21-.19.21-.34Zm-2.49-1.06a.281.281 0 0 1-.07.19 1.808 1.808 0 0 1-1.49.71c-.8-.05-1.2-.69-1-1.54a1.58 1.58 0 0 1 .67-.89 6.779 6.779 0 0 1 1.86-.77Z" fill="#fa9d0f"/></svg>