<svg viewBox="-0.072 -0.029 205.398 133.629" xmlns="http://www.w3.org/2000/svg" xmlns:xlink="http://www.w3.org/1999/xlink"><defs><linearGradient id="e" x1="87.39" y1="82.39" x2="109.98" y2="20.3" gradientUnits="userSpaceOnUse"><stop offset="0" stop-color="#dd5d1b"/><stop offset=".04" stop-color="#e1691c"/><stop offset=".13" stop-color="#ea7f1f"/><stop offset=".24" stop-color="#f19121"/><stop offset=".38" stop-color="#f69d23"/><stop offset=".56" stop-color="#f8a424"/><stop offset="1" stop-color="#f9a624"/></linearGradient><linearGradient id="g" x1="86.88" y1="41.37" x2="107.01" y2="21.24" gradientUnits="userSpaceOnUse"><stop offset="0" stop-color="#ffd033" stop-opacity="0"/><stop offset="1" stop-color="#ffd033"/></linearGradient><linearGradient id="h" x1="70.68" y1="51.58" x2="129.14" y2="51.58" gradientUnits="userSpaceOnUse"><stop offset="0" stop-color="#c15911"/><stop offset=".02" stop-color="#c15d10"/><stop offset=".11" stop-color="#c3680d"/><stop offset=".2" stop-color="#c36c0c"/><stop offset=".26" stop-color="#c25f0f"/><stop offset=".32" stop-color="#c15911"/><stop offset=".37" stop-color="#c25f0f"/><stop offset=".5" stop-color="#c3690d"/><stop offset=".67" stop-color="#c36c0c"/><stop offset=".71" stop-color="#be5e0f"/><stop offset=".76" stop-color="#ba5211"/><stop offset=".83" stop-color="#b84b13"/><stop offset="1" stop-color="#b74913"/></linearGradient><linearGradient id="b" x1="88.62" y1="18.07" x2="88.28" y2="16.15" gradientUnits="userSpaceOnUse"><stop offset="0" stop-color="#00c9f1"/><stop offset="1" stop-color="#0076a0"/></linearGradient><linearGradient id="a" x1="82.63" y1="43.36" x2="85.29" y2="42.79" gradientUnits="userSpaceOnUse"><stop offset="0" stop-color="#0076a0"/><stop offset="1" stop-color="#00c9f1"/></linearGradient><linearGradient id="i" x1="112.99" y1="64.08" x2="112.5" y2="61.3" xlink:href="#a"/><linearGradient id="j" x1="133.81" y1="49.15" x2="135.58" y2="48.78" xlink:href="#b"/><linearGradient id="k" x1="101.2" y1="29.73" x2="102.73" y2="29.4" xlink:href="#b"/><linearGradient id="l" x1="118.97" y1="42.4" x2="118.7" y2="40.84" xlink:href="#b"/><linearGradient id="m" x1="94" y1="44.46" x2="89.37" y2="18.21" gradientUnits="userSpaceOnUse"><stop offset=".28" stop-color="#7fd9f8"/><stop offset=".33" stop-color="#73d7f8"/><stop offset=".55" stop-color="#42d0f7"/><stop offset=".74" stop-color="#1ecaf6"/><stop offset=".9" stop-color="#08c7f5"/><stop offset="1" stop-color="#00c6f5"/></linearGradient><linearGradient id="n" x1="118.42" y1="45.46" x2="118.07" y2="43.46" gradientUnits="userSpaceOnUse"><stop offset="0" stop-color="#0accf6"/><stop offset="1" stop-color="#7fd9f8"/></linearGradient><linearGradient id="o" x1="89.28" y1="20.24" x2="88.96" y2="18.38" gradientUnits="userSpaceOnUse"><stop offset="0" stop-color="#23cef6"/><stop offset=".2" stop-color="#48d4f7"/><stop offset=".44" stop-color="#6edbf8"/><stop offset=".66" stop-color="#89dff9"/><stop offset=".85" stop-color="#99e2fa"/><stop offset="1" stop-color="#9fe3fa"/></linearGradient><radialGradient id="c" cx="98.69" cy="51.35" r="49.23" gradientUnits="userSpaceOnUse"><stop offset=".65" stop-color="#fef100"/><stop offset="1" stop-color="#ffd600"/></radialGradient><radialGradient id="d" cx="98.69" cy="51.35" r="49.23" gradientUnits="userSpaceOnUse"><stop offset=".66" stop-color="#ab8b00"/><stop offset=".75" stop-color="#dcad09" stop-opacity="0"/></radialGradient><radialGradient id="f" cx="98.69" cy="51.35" r="33.03" gradientUnits="userSpaceOnUse"><stop offset="0" stop-color="#ffca09"/><stop offset="1" stop-color="#ffca09" stop-opacity="0"/></radialGradient></defs><path d="M149.54 41.43a2.09 2.09 0 0 0-2.07-.77c-6.55-1.25-10.25-2.91-11-4.93-.75-2.02.89-5.35 4.92-10.34.341-.252.599-.6.74-1l.05-.17c.515-1.516-.805-3.021-2.376-2.708a2.07 2.07 0 0 0-.804.348c-6.49 1.53-10.54 1.52-12 0-1.46-1.52-1.36-5.25.29-11.45.21-.374.301-.803.26-1.23V9c-.167-1.592-1.995-2.407-3.291-1.466a2.088 2.088 0 0 0-.569.626c-5.31 4-9 5.68-11 4.87-2-.81-3.38-4.24-4.39-10.58a2 2 0 0 0-.3-1.25l-.12-.2c-.809-1.382-2.81-1.37-3.603.021-.136.24-.224.505-.257.779-3.21 5.85-5.93 8.85-8.08 8.93-2.15.08-4.82-2.5-8.32-7.88a1.995 1.995 0 0 0-.74-1l-.14-.11c-1.295-.942-3.124-.13-3.292 1.463-.03.281-.002.566.082.837-.55 6.65-1.81 10.5-3.75 11.45-1.94.95-5.41-.3-10.78-3.79a2.101 2.101 0 0 0-1.09-.62h-.17c-1.565-.34-2.91 1.142-2.422 2.667.087.274.231.527.422.743 2.2 6.3 2.61 10.32 1.23 12-1.38 1.68-5.08 1.9-11.42.91a1.997 1.997 0 0 0-1.25-.13h-.17c-1.566.336-2.18 2.241-1.106 3.429.186.206.413.374.666.491 4.57 4.86 6.59 8.37 6 10.44-.59 2.07-3.86 3.81-10.06 5.48a2.06 2.06 0 0 0-1.19.39l-.15.1a2.09 2.09 0 0 0-.66 2.57 2.06 2.06 0 0 0 1.86 1.19c6.15 2.59 9.42 5 9.73 7.11.31 2.11-2 5-7 9.09a2.124 2.124 0 0 0-.93.85l-.09.15c-.798 1.388.205 3.12 1.806 3.117.28 0 .557-.057.814-.167 6.67-.15 10.63.7 11.78 2.53 1.15 1.83.24 5.42-2.67 11.14-1.155 1.182-.597 3.17 1.003 3.579A2.148 2.148 0 0 0 66 88.18c6-2.84 10-3.68 11.79-2.47 1.79 1.21 2.42 4.85 2.1 11.26-.13.407-.13.843 0 1.25l.06.17c.489 1.517 2.437 1.935 3.505.753a2.07 2.07 0 0 0 .435-.753c4.36-5 7.64-7.43 9.76-7.06 2.12.37 4.19 3.45 6.5 9.44.044.425.223.824.51 1.14l.12.13a2.05 2.05 0 0 0 1.55.69 2 2 0 0 0 1.07-.3 2.07 2.07 0 0 0 1-2c1.92-6.38 4-9.89 6-10.41 2-.52 5.23 1.44 9.77 6 .218.371.547.665.94.84l.16.07c1.403.755 3.098-.292 3.05-1.885A2.073 2.073 0 0 0 124 94c-.84-6.62-.41-10.65 1.29-12 1.7-1.35 5.36-.81 11.36 1.49.348.246.764.378 1.19.38h.16a2.07 2.07 0 0 0 2-1.69 2 2 0 0 0-.8-2.05c-3.46-5.71-4.7-9.56-3.69-11.47 1.01-1.91 4.57-2.92 11-3.26a2.08 2.08 0 0 0 1.25-.14l.16-.07c1.463-.651 1.673-2.641.378-3.583a2.08 2.08 0 0 0-.768-.347c-5.48-3.8-8.18-6.81-8-9 .18-2.19 3-4.53 8.71-7.45a2 2 0 0 0 1.08-.64l.12-.13a2.08 2.08 0 0 0 .1-2.61Zm-1.78 1.39h-.1c-13.07 6.59-13.9 11.56-.81 20.5h.25l-.16.07-.09-.06c-14.62.7-17.4 4.91-9.07 18.41l.23.08h-.18l-.05-.08c-13.65-5.31-17.9-2.6-15.78 13.11l.17.18-.16-.08v-.1c-10.31-10.4-15.29-9.65-19.75 5.57l.09.23-.12-.13v-.1c-5.18-13.69-10-15-20.31-3 .005.083.005.167 0 .25l-.05-.17.06-.08c.84-14.62-3.06-17.82-17.35-11 0 .07-.07.14-.11.22v-.18h.09C71.3 73.48 69.05 69 53.2 69.43l-.19.15.09-.15h.1c11.42-9.16 11.2-14.2-3.47-20.23l-.24.07.14-.11h.1c14.15-3.72 16-8.41 5.05-19.88h-.24.17l.07.08c14.45 2.35 18-1.18 12.71-16.11l-.21-.14h.17v.1c12.24 8 17 6.26 18.16-9.55l-.14-.21.14.11v.1C93.56 16 98.6 16.28 106.12 2.32v-.24l.09.15v.09c2.22 14.47 6.7 16.8 19.25 7.1l.06-.23v.17l-.08.06c-3.85 14.13-.71 18.07 14.69 14.32.06-.06.1-.12.16-.19l-.06.17h-.1c-9.26 11.34-8 16.22 7.6 19.06.076-.031.15-.067.22-.11Z" paint-order="stroke" fill="#fff"/><path d="M64.48 86.71c6.86-13.22 4.65-17.77-11.38-17.28l-.09.15c11.64-9.28 11.47-14.34-3.38-20.42l-.14.11c14.41-3.74 16.31-8.44 5.22-20h-.17c14.69 2.44 18.33-1.07 12.91-16.17h-.17c12.42 8.21 17.19 6.48 18.37-9.51l-.14-.11c8 12.55 13.07 12.91 20.66-1.22l-.09-.15c2.22 14.72 6.69 17.1 19.37 7.28v-.17c-4 14.35-.85 18.34 14.73 14.53l.06-.17C130.76 35.05 132 40 147.76 42.82l.12-.13c-13.32 6.66-14.2 11.64-.94 20.67l.16-.07c-14.87.67-17.71 4.86-9.27 18.5h.17c-13.86-5.44-18.16-2.76-16 13.13l.16.08c-10.44-10.61-15.46-9.92-20 5.49l.12.13c-5.23-13.94-10.1-15.35-20.46-3.1l.05.17c.9-14.87-3-18.13-17.43-11.16" fill="url(#c)" paint-order="stroke"/><path d="M64.48 86.71c6.86-13.22 4.65-17.77-11.38-17.28l-.09.15c11.64-9.28 11.47-14.34-3.38-20.42l-.14.11c14.41-3.74 16.31-8.44 5.22-20h-.17c14.69 2.44 18.33-1.07 12.91-16.17h-.17c12.42 8.21 17.19 6.48 18.37-9.51l-.14-.11c8 12.55 13.07 12.91 20.66-1.22l-.09-.15c2.22 14.72 6.69 17.1 19.37 7.28v-.17c-4 14.35-.85 18.34 14.73 14.53l.06-.17C130.76 35.05 132 40 147.76 42.82l.12-.13c-13.32 6.66-14.2 11.64-.94 20.67l.16-.07c-14.87.67-17.71 4.86-9.27 18.5h.17c-13.86-5.44-18.16-2.76-16 13.13l.16.08c-10.44-10.61-15.46-9.92-20 5.49l.12.13c-5.23-13.94-10.1-15.35-20.46-3.1l.05.17c.9-14.87-3-18.13-17.43-11.16" fill="url(#d)" paint-order="stroke"/><circle cx="98.69" cy="51.35" r="33.03" fill="url(#e)" paint-order="stroke"/><circle cx="98.69" cy="51.35" r="33.03" fill="url(#f)" paint-order="stroke"/><ellipse cx="96.94" cy="31.31" rx="17.89" ry="9.22" fill="url(#g)" paint-order="stroke"/><path d="m86.29 71.93-9.67-45.17a33.45 33.45 0 0 0-5.94 7.05c6.95 9 12.84 23 13 42.58 0 0 18.94-10.08 41.76-5.73a32.852 32.852 0 0 0 3.69-6.58Z" fill="url(#h)" paint-order="stroke"/><path fill="#0077a3" d="m75.57 21.82 1.8-3.6 21.97-4.01 6.38 29.06 27.56-4.99 4.53 20.81-1.76 3.75-49.76 9.11-10.72-50.13Z" paint-order="stroke"/><path fill="url(#b)" d="m98.45 16.29.85-2.08-22.01 4.02 2.82 1.34 18.34-3.28Z" paint-order="stroke"/><path fill="url(#a)" d="m80.11 19.57-2.82-1.34 10.8 50.24 2.02-2.98-10-45.92Z" paint-order="stroke"/><path fill="url(#i)" d="m135.62 57.22-45.51 8.27-2.02 2.98 49.72-9.18-2.19-2.07Z" paint-order="stroke"/><path fill="url(#j)" d="m133.23 38.28-1.34 1.82 3.73 17.12 2.19 2.07-4.58-21.01Z" paint-order="stroke"/><path fill="url(#k)" d="m99.3 14.21-.85 2.08 5.99 28.67 1.23-1.69-6.37-29.06Z" paint-order="stroke"/><path fill="url(#l)" d="m105.67 43.27-1.23 1.69.08-.01 27.37-4.85 1.34-1.82-27.56 4.99Z" paint-order="stroke"/><path fill="#00bcf2" d="m90.11 65.49 45.51-8.27-3.73-17.12-27.45 4.86-5.99-28.67-18.34 3.28 10 45.92Z" paint-order="stroke"/><path d="m102.06 38.15-4.64-21.36-16.93 3.1 5.77 25.93c2.55-2.96 8.1-8.07 15.8-7.67Z" fill="url(#m)" paint-order="stroke"/><path d="M131.74 41.22v-.16l-27.27 4.88c.81 2.13 25.93-1.61 27.27-4.72Z" fill="url(#n)" paint-order="stroke"/><path d="M90.61 64.9 134.7 57c-.52-2.45-44.81 4.12-44.09 7.9Z" fill="#59d0f6" paint-order="stroke"/><path d="M97.42 16.89 80.49 20c.21 2.33 17.96-.71 16.93-3.11Z" fill="url(#o)" paint-order="stroke"/><path d="M122.866 112.038c-.19.58-.352 1.036-.514 1.523l-.453 1.359-.02-.009.601-2.141c-.21.748-.621 1.741-.874 1.984-.009.008-.018.017-.029.025a13.808 13.808 0 0 1-1.983-1.09l1.751 1.242c-.405.222-1.102.473-1.635.609h-5.21v-.542c-1.325.82-3.188 1.17-4.862 1.151-1.466-.076-3.235-.638-4.321-1.479a5.547 5.547 0 0 1-.566-.505l.856-.958-.131.132c-.261.243-.543.479-.841.704-.578-.619-1.069-1.384-1.434-2.17l.989 2.489c-1.11.758-2.387 1.351-3.569 1.602-1.675.356-3.933.111-5.632-.477-1.227-.624-2.406-1.686-3.289-2.901-.661.979-1.455 1.854-2.289 2.492-1.564.847-3.528 1.288-5.258 1.241-1.325-.023-3.021-.444-4.23-1.001a8.018 8.018 0 0 1-.793-.583v.545H68.74v1.488l-1.572.624c-18.108 7.182-38.205 9.195-57.377 5.747l-2.051-.368v-4.721h3.44c.592.026 1.035.1 1.219.11 3.212.285 6.376.351 9.597.202a91.535 91.535 0 0 0 15.084-1.811 101.32 101.32 0 0 0 4.709-1.081 6.37 6.37 0 0 1-1.388-.812 25.894 25.894 0 0 1-.588-.476l.023-.023c.009.002.014 0 .009-.01.146-.15.249-.277-.065-.014l.006.003-.01.011-.006-.006-.052.044c-2.729 1.948-6.926 2.422-10.021 1.131-1.927-1.073-3.645-3.143-4.249-5.266-.535-2.012-.571-4.46-.098-6.489.519-1.578 1.604-3.108 2.96-4.221a3.778 3.778 0 0 1-.137-.104c-.983-.788-1.831-2.364-2.137-3.703a9.335 9.335 0 0 1-.085-.915H23.66v10.74h-7.07v.27c.499-.005 1.044-.028 1.66-.03l2.5-.007v9.687H-.05v-9.59h2.5c.526 0 .999.004 1.451-.016L3.9 105.6l.011-20.585c-.436-.01-.891 0-1.451-.005l-2.449-.022-.083-9.608H30.5v11.012c.317-.18.639-.34.96-.476 2.52-.907 5.47-1.262 8.126-.983 1.604.148 3.355.644 4.808 1.374 2.069 1.229 3.817 3.706 4.256 6.083v-6.62h13.855l-1.787 2.059.19-.189c1.436-1.24 3.459-2.243 5.241-2.513 1.781-.271 4.153.158 5.892.916.259.163.512.348.759.551v-.24l1.949-.232c.997-.12 1.222-.41 1.718-1.079.502-.679.763-1.395 1.048-2.523a33.35 33.35 0 0 0 .57-3.506l-.015.139v.137c0-.2.064-.785.198-1.391l.379-1.709h8.493v9.53H92v3.773c.948-1.534 2.755-2.962 4.537-3.66.14-.051.282-.099.424-.146l4.739-2.708.701-.399a125.336 125.336 0 0 1 24.678-9.821 94.327 94.327 0 0 1 13.683-2.662 76.58 76.58 0 0 1 11.805-.435c3.892.139 8.064.81 11.818 1.845.176.066.187.078.366.116.356.102.881.332 1.337.631l3.882.272c3.01.201 5.945.422 8.891.611 3.933.307 7.766.25 11.685-.172 2.331-.263 4.682-.743 7.146-1.151l.238-.04.032.01c.012.004-.12.04-.206.061 1.181-.206 2.929.008 3.72.678.753.639 1.353 2.232 1.484 3.349-.082 1.428-.708 3.182-1.549 4.34-1.388 1.724-3.287 3.279-5.269 4.282a27.058 27.058 0 0 1-4.529 1.774c.756.208 1.5.447 2.227.718 3.115 1.172 6.084 3.347 7.988 5.888 1.904 2.542 3.134 5.94 3.401 9.231.37 3.478-.326 7.361-1.887 10.519-1.917 3.43-5.133 6.454-8.674 8.156a29.72 29.72 0 0 1-10.674 2.685 33.862 33.862 0 0 1-10.827-.966c-2.748-.71-5.57-2.193-7.716-4.048-2.8-2.676-4.523-6.831-4.469-10.678.103-2.31 1.072-4.864 2.526-6.436a8.849 8.849 0 0 1 1.584-1.337h-1.228l.15-2.642.65-11.362-1.12-.281c-1.224-.306-2.402-.625-3.544-.895a60.023 60.023 0 0 0-11.302-1.653 58.547 58.547 0 0 0-17.002 1.678c-.749.187-1.494.381-2.236.584 1.088.335 2.137.793 3.079 1.356l-1.928-1.169.035-.106h7.164v.25h13.49v.01h10.6V95h-2.5l-.185-.002c-.25-.099-.048-.08-.252.082-.203.161-.176-.039-.137.227l.006.039-.078.247a963.996 963.996 0 0 1-3.527 10.943c-1.229 3.795-2.423 7.536-3.721 11.339-.669 2.061-1.855 4.214-3.231 5.886-1.969 1.982-5.119 3.11-7.489 2.718-2.37-.393-4.968-2.457-6.2-4.954-.886-2.231-.983-5.054-.271-7.397-1.543 1.015-3.494 1.738-5.398 2.01-2.286.17-4.793-.281-6.999-1.21Zm-7.814-12.121c-.422-.991-.658-2.104-.755-3.2l-.566-.789c.01 1.758.004 3.522-.004 5.282h2.045a7.467 7.467 0 0 1-.72-1.293Zm22.758-1.547h-1.688c.652.669 1.21 1.403 1.598 2.141.837 1.59 1.208 3.762 1.058 5.635a12.53 12.53 0 0 1-1.203 4.227c.099-.049.198-.092.297-.129 1.141-.436 2.883-.356 4.254.069-1.468-4.362-2.881-8.735-4.316-13.079Zm-23.514-4.008c.15-1.351.632-2.757 1.342-4.045-.704.308-1.406.625-2.105.951l.402-.235c-.162.075-.356.15-.565.218.231.823.351 1.688.34 2.522.01.71.017 1.422.021 2.135l.565.795a13.45 13.45 0 0 1 0-2.341Zm14.432 16.772c1.591-.184 2.563-.75 3.529-1.732 1.018-1.037 1.523-1.983 1.537-3.626.196-1.103.007-1.977-.498-2.935-.505-.959-.981-1.532-2.002-1.994a29.559 29.559 0 0 0-3.819-1.497c-1.075-.429-2.491-.93-3.723-1.534-.307-.207-.94-.683-1.202-.958-.847-1.267-1.335-3.319-.936-4.523.292-.885 1.243-1.853 2.296-2.507-.878.144-1.681.49-2.492 1.08-1.493.898-2.139 2.039-2.134 3.79-.148 1.271-.061 2.252.369 3.26.432 1.015.81 1.6 2.073 2.105 1.513.749 3.217 1.264 5.064 1.984.726.278 1.552.573 2.387.954.615.342 1.445 1.01 1.791 1.569.347.559.531 1.431.597 2.118-.039 1.097-.413 2.494-1.055 3.255-.387.459-1.064.884-1.782 1.191ZM91.13 98.68s.964.06 1.587.558c.089.071.186.189.282.336.088-.078.178-.154.268-.228a4.148 4.148 0 0 1-.303-.231c-.898-.765-1.665-2.23-1.96-3.468a8.836 8.836 0 0 1-.103-.717h-3.327l-.39-2.329a.212.212 0 0 0 .006.049v6.03Zm-39.509-3.717a29.62 29.62 0 0 1-.471.007l-2.34.009v6.251h2.81Zm33.794 16.379c-.477-.093-.948-.242-1.292-.47-.536-.355-1.162-1.271-1.451-1.913a10.058 10.058 0 0 1-.479-2.394L82.19 92.65c-.008-.158-.002-.232.006-.391l.077-1.539h-.133v-6.214c-.372 1.194-.914 2.512-1.654 3.512-.527.711-1.319 1.394-2.253 1.952H80.5v14.814c.018 1.301.13 2.494.362 3.781 0 1.193.406 1.93 1.505 2.393.599.312 1.006.405 1.754.362.467.067.893.078 1.294.022Zm76.504-31.201c.108-1.34.217-2.683.336-4.041a42.969 42.969 0 0 0-9.868-1.441 68.882 68.882 0 0 0-11.048.404 86.186 86.186 0 0 0-12.934 2.517 116.996 116.996 0 0 0-18.365 6.777 13.104 13.104 0 0 1 2.589 1.828 108.228 108.228 0 0 1 17.855-6.19 66.711 66.711 0 0 1 18.447-1.823 68.34 68.34 0 0 1 12.988 1.969Zm-141.037.239c.948.248 1.889.674 2.561 1.205.817.647 1.591 1.779 2.057 2.861V80.38Zm-9.262 0H6.379c.579.226 1.149.561 1.494.94.562.617.914 1.755 1.015 2.489L8.9 105.6c-.003.465-.044.998-.113 1.489l-.026.121c-.165.785-.663 1.934-1.194 2.415-.282.256-.749.484-1.244.655h1.409l2.651-.297-2.565.297h6.252c-.483-.189-.929-.445-1.231-.735-.56-.539-1.035-1.799-1.159-2.666l.313 2.193-.281-1.832a11.38 11.38 0 0 1-.122-1.52V94.743l.698-.071-.668-.071Zm4.505 14.272c.575.122 1.11.315 1.527.587.363.237.704.583 1.008.987v-3.065a3.876 3.876 0 0 1-.585.61c-.495.408-1.195.702-1.95.881Zm165.403 16.76c1.361-.731 2.253-1.65 2.71-3.214 1.087-2.433 1.161-4.775.244-7.277-.492-2.174-1.488-2.73-3.018-3.154-1.504-.418-2.731-.28-3.972.489-.409.225-.609.345-.967.652a5.075 5.075 0 0 1-.61.384c.181.08.358.164.53.253 2.32 1.458 4.094 4.397 4.224 7.134.012.783-.062 1.688-.201 2.459-.237 1.01-.767 2.183-1.413 3.029.843-.019 1.614-.293 2.473-.755Zm-13.48-.106 4.533-1.255c.577-.16 1.086-.285 1.528-.4.482-.049.646-.178.976-.52.33-.342.435-.423.467-.907.104-.504.139-.904.119-1.423.21-1.427-.261-2.342-1.607-2.86-1.215-.759-2.302-.962-3.702-.663-1.354.002-2.312.513-3.184 1.456-.873.942-1.3 1.72-1.198 3.069-.273 2.781.647 5.151 2.807 6.924 1.645 1.507 3.386 2.42 5.566 2.914a26.508 26.508 0 0 0 9.28.837c3.149-.131 6.076-.853 8.915-2.227 2.875-1.252 4.953-3.183 6.38-5.975 1.313-2.439 1.739-4.869 1.332-7.62-.092-2.577-.944-4.796-2.434-6.784-1.489-1.988-3.219-3.365-5.666-4.177-2.971-1.159-5.95-1.626-9.132-1.409-1.952.018-3.73.347-5.539 1.077-.524.217-1.07.502-1.789.836l-3.747 1.74.596-12.308 3.951.349c3.008.36 6.006.484 9.028.363 2.993-.165 5.661-.897 8.331-2.297 1.503-.699 2.636-1.603 3.628-2.931.088-.087.162-.163.224-.234-2.132.366-4.343.789-6.606 1.053-4.15.437-8.448.504-12.609.19-2.797-.18-5.536-.385-8.343-.575 0 0 .047-.821 0 0l-.519-.035.519.037c-.363 6.402-.66 11.555-.996 17.449h4.269c.506-.393 1.122-.82 1.63-1.11 2.048-1.05 5.229-1.639 7.745-.942 2.49.691 5.137 3.082 6.435 6.426 1.039 3.375.902 7.349-.337 10.63-.957 2.393-2.9 4.682-5.005 5.813-2.104 1.131-5.089 1.489-7.616.962-1.631-.429-3.409-1.358-4.693-2.455ZM64.52 96.576a7.195 7.195 0 0 0-.292-1.86.126.126 0 0 1-.031.027.665.665 0 0 1-.15-.16.696.696 0 0 1-.006.215c-.419.485-.501.708-.494 1.349-.049.917-.047 1.763-.047 2.693v7.26h1.02Zm-9.418-5.806c.058.04.112.081.161.124.605.527 1.14 1.828 1.286 2.731l.031.188c.028.319.043.652.039.937l.001 11.63c0 .312-.021.661-.059.998l-.034.187c-.151.826-.652 2.037-1.205 2.535a1.993 1.993 0 0 1-.284.21h5.127a2.666 2.666 0 0 1-.561-.43c-.751-.773-1.075-2.252-1.104-3.27v-7.77l.001-.741-.401.471v-7.8Zm11.151-.577c.502.204.98.466 1.322.769.612.539 1.215 1.63 1.477 2.461.273.984.426 2.039.467 3.062l.001 9.815a11.63 11.63 0 0 1-.149 1.648c-.173.715-.629 1.64-1.119 2.094a2.23 2.23 0 0 1-.318.238h5.008a2.733 2.733 0 0 1-.486-.386c-.838-.851-1.121-2.465-1.136-3.624v-9.64a15.575 15.575 0 0 0-.442-4.419c-.07-.95-.365-1.434-1.248-1.79-.94-.475-1.641-.517-2.73-.351a7.946 7.946 0 0 0-.647.123Zm81.834 22.147c.289-.881.577-1.764.864-2.648l-1.689-5.002c-.246-.728-.468-1.362-.683-2.008-.876-2.619-1.781-5.241-2.639-7.906-.196-.845-.225-2.434.346-3.252.204-.293.512-.549.859-.764h-5.277c.616.449 1.277 1.326 1.615 2.011.28.611.488 1.144.704 1.775 1.934 5.833 3.805 11.686 5.796 17.459.038.11.072.221.104.335Zm6.933-20.267c.26-.363.545-.68.836-.911.178-.141.387-.272.616-.392h-2.428c.237.153.444.33.599.532.167.217.29.482.377.771Zm1.88-1.503c.795-.334 2.5-.57 2.5-.57h-2.5Zm-18.254 26.281 1.299.252c.26.05.421.113.516.168a.754.754 0 0 1-.044-.13c.348-.531.442-.904.257-1.514.113-.461.128-.626-.328-.689-.333-.294-.278-.181-.692-.023-.414.158-.45.034-.503.495a4.986 4.986 0 0 0-.505 1.441Zm-91.375-6.156c-.692-.047-1.741-.453-2.229-.936-.455-.451-.86-1.393-1.019-2.017a13.59 13.59 0 0 1-.213-2.208V94.82a11.254 11.254 0 0 0-.1-1.682c.02-1.259-.419-1.948-1.6-2.383a6.587 6.587 0 0 0-1.495-.627c.927 1.062 1.559 2.636 1.748 4.091a8.07 8.07 0 0 1-.123 1.89l.408-.269-.394 5.028c-.088 1.123.033 2.394-.031 3.837l.532 4.84c.072.65.262.805.757 1.198.495.394.689.544 1.338.467 1.105.113 1.656-.001 2.206-.367.079-.052.15-.1.215-.148Zm-14.888-8.029c-1.298.21-2.023.846-2.193 2.149-.393 1.368-.375 2.493.062 3.853.124 1.117.569 1.777 1.628 2.152 1.499.92 2.863.907 4.144-.047-.918-.171-1.79-.509-2.337-.982-.954-.823-1.604-2.565-1.691-3.999.056-1.161.584-2.446 1.339-3.458-.322.106-.64.216-.952.332Zm-1.476-9.527c-.132.45-.131.896.044 1.497-.039.414.034.448.347.698.313.251.229.322.624.193.359.087.27.047.512-.214.243-.26.29-.112.177-.465l-.072-.223.092-.162a.385.385 0 0 1 .07-.096c-.018.003-.057-.006-.115-.088-.058-.082-.053-.122-.044-.137a.41.41 0 0 1-.115.033l-.134.024-.134-.097a37.228 37.228 0 0 1-1.252-.963Zm6.172 12.296c-.337.05-.275-.069-.102.273l.109.216-.093.101c.347.131.253.231.087-.17l-.024-.056.075-.223c.018-.052.035-.106.05-.16 0 0 1.035-.738.008-.029.33-1.22-.11.048-.11.048Zm58.65-11.92c-.029.329.02.679.163 1.107-.031.369.04.452.313.685.274.233.158.286.517.196.081.005.057.009.177-.036.635.035.457-.059.596-.62.139-.56.34-.561-.238-.825l-.219-.1.603.403a3.14 3.14 0 0 0-.757-.385Zm9.834-3.366c.751.876 1.36 2.18 1.591 3.306.192 1.322.14 2.901-.353 4.044-.17.394-.429.789-.746 1.164l2.677 1.607c.009-2.166.01-4.32-.022-6.422.135-.899-.078-1.52-.591-2.228-.513-.708-.859-1.051-1.755-1.202-.267-.1-.534-.189-.801-.269Zm-8.196 12.516c-1.298.201-2.041.837-2.206 2.139-.425 1.459-.388 2.666.127 4.095.2 1.102.652 1.664 1.701 2.007.923.388 1.583.382 2.593.167.374-.079.698-.168.994-.288a5.015 5.015 0 0 1-.131-.032c-1.413-.65-2.834-2.275-3.316-3.742-.224-.954-.21-2.121.08-2.991.175-.525.543-1.118.972-1.644-.276.093-.547.189-.814.289Zm9.924 6.095c.096.181.222.456.285.623.082.617.325.964.802 1.334.477.369.651.508 1.27.433 1.135.086 1.663-.034 2.224-.406.068-.045.13-.087.188-.129-.666-.106-1.507-.359-1.93-.706-.477-.392-.979-1.409-1.173-2.073l-.024-.081a11.79 11.79 0 0 1-.222-1.739c.001-.895.003-1.795.007-2.696h-1.529c-.012.819-.018 1.649-.023 2.48a6.703 6.703 0 0 1-.512 1.762Zm-5.116-3.375-.125.092a.236.236 0 0 1-.091.017c.008.007.019.032-.006.107-.02.059-.039.078-.053.081a.345.345 0 0 1 .051.058l.115.156-.019.045c.139-.09.181-.186.127-.421l.001-.135Z" fill="#fff"/><path d="M120.49 111.26c-.18.55-.34 1-.51 1.51 0 .11-.18.27-.27.27H117v-9.14h3.09c.417.932.891 1.837 1.42 2.71a5.35 5.35 0 0 0 5.64 2.46 2.09 2.09 0 0 0 1.93-2.29 1.58 1.58 0 0 0-.93-1.5c-.73-.34-1.5-.61-2.26-.9-1.76-.69-3.57-1.25-5.26-2.07-3.32-1.62-4.14-4.78-3.84-7.78a7.548 7.548 0 0 1 3.21-5.68 9.363 9.363 0 0 1 5.65-1.57c2.03.025 4.012.621 5.72 1.72l.61.37.46-1.36h2.87v7.86h-2.7c-.13 0-.28-.19-.36-.33a7.997 7.997 0 0 0-2.68-3 5.36 5.36 0 0 0-4-.83c-1.598.331-2.239 2.267-1.153 3.486.132.149.285.278.453.384 1.08.54 2.24.94 3.37 1.39a35.082 35.082 0 0 1 4.21 1.66 7.24 7.24 0 0 1 3.84 7.29c-.24 4.16-3.22 7.22-7.62 7.73a11.34 11.34 0 0 1-7.63-2Zm-32.62-10.08h3.26s.05 0 .05.08a37.12 37.12 0 0 1-.29 7.06 6.469 6.469 0 0 1-2.74 4.6 6.777 6.777 0 0 1-4 .9 6.624 6.624 0 0 1-3-.68A5.47 5.47 0 0 1 78.4 109a26.532 26.532 0 0 1-.4-4.2V92.47h-2.7v-3.91c2.92-.66 4-2.93 4.65-5.47.271-1.255.478-2.524.62-3.8 0-.2 0-.39.07-.6h4v9.53h4.86v4.21h-4.81a1.615 1.615 0 0 0 0 .22v13.79c.03.598.151 1.188.36 1.75a1.13 1.13 0 0 0 1.18.78 1.09 1.09 0 0 0 1.16-.8c.231-.926.388-1.869.47-2.82.08-1.23 0-2.48 0-3.72Zm-21.63 13.89a101.735 101.735 0 0 1-56 5.61v-.13h.94c.34 0 .68.07 1 .1a74.5 74.5 0 0 0 9.91.21A95.497 95.497 0 0 0 37.58 119a103.47 103.47 0 0 0 13.73-3.82 3.35 3.35 0 0 1 1.13-.2h13.8Zm97.91-31.78c-1.2-.3-2.38-.62-3.56-.9a64.063 64.063 0 0 0-11.77-1.72 62.585 62.585 0 0 0-17.73 1.75A104.166 104.166 0 0 0 112.48 89a.53.53 0 0 1-.79-.21 8.848 8.848 0 0 0-5.81-3.27c-1-.17-1.93-.25-2.94-.37l.63-.36a121.139 121.139 0 0 1 24.17-9.62 90.187 90.187 0 0 1 13.31-2.59c3.79-.44 7.608-.58 11.42-.42 3.744.125 7.461.696 11.07 1.7.245.088.496.162.75.22.48.09.63.34.58.84-.25 2.73-.46 5.45-.68 8.18-.01.05-.03.11-.04.19ZM2.45 77.88H28v14.24h-3.56c-.09-.93-.12-1.86-.28-2.77a27.096 27.096 0 0 0-.86-3.69 4.12 4.12 0 0 0-3.79-3c-1.78-.14-3.57-.13-5.39-.19v9.89c1.9.34 3.25-.77 3.49-2.87.09-.84.13-1.68.19-2.54h3.36v15.91h-3.37c-.06-.82-.1-1.63-.17-2.44a8.678 8.678 0 0 0-.22-1.24c-.4-1.76-1.47-2.44-3.31-2.18v8.72c0 .375.03.75.09 1.12a1.28 1.28 0 0 0 1.31 1.26c.91.06 1.82 0 2.76 0v4.68H2.45v-4.59c.87 0 1.75 0 2.63-.11A1.18 1.18 0 0 0 6.27 107c.089-.461.132-.93.13-1.4V84.05c-.09-.93-.45-1.37-1.38-1.47-.93-.1-1.69-.06-2.53-.07Zm170.8 34.58a8.314 8.314 0 0 0 3.62 1.89 8.19 8.19 0 0 0 9.68-5.2c1.18-2.866 1.29-6.06.31-9-1.79-5.52-7.29-5.9-10.58-4.08a9.555 9.555 0 0 0-1.45 1 1.63 1.63 0 0 1-1.18.43h-7.14c.43-7.55.86-15 1.29-22.62l2 .14c3 .2 5.91.42 8.87.61 4.047.31 8.114.25 12.15-.18 2.44-.28 4.86-.77 7.28-1.17a2.02 2.02 0 0 0 .43-.07c1-.36 1.9.4 1.93 1.64a4.53 4.53 0 0 1-1 2.8 12.722 12.722 0 0 1-4.46 3.62 23.706 23.706 0 0 1-9.36 2.57 59.739 59.739 0 0 1-9.36-.37l-1.36-.12-.27 5.58c.67-.31 1.27-.62 1.89-.88a18.358 18.358 0 0 1 6.34-1.26A24.423 24.423 0 0 1 193 89.34a14.71 14.71 0 0 1 9.74 13 15.59 15.59 0 0 1-1.6 9.1 16.256 16.256 0 0 1-7.52 7.07 25.79 25.79 0 0 1-9.79 2.46 30.219 30.219 0 0 1-10.07-.9 15.576 15.576 0 0 1-6.64-3.48 11 11 0 0 1-3.64-8.78 7 7 0 0 1 6.48-7 8.16 8.16 0 0 1 5.29.93 5.559 5.559 0 0 1 2.92 5 9.08 9.08 0 0 1-.16 1.94 4.27 4.27 0 0 1-3.27 3.39c-.46.12-.95.24-1.49.39ZM51.15 92.47v-4.2h9.45v3.51c.67-.78 1.26-1.6 2-2.3a7.45 7.45 0 0 1 8.23-1.25 4.997 4.997 0 0 1 2.48 3.4c.391 1.637.562 3.318.51 5v9.64c0 1.93.36 2.29 2.26 2.3h.55v4.21H64.7v-4.18c.39 0 .76 0 1.13-.09a1.14 1.14 0 0 0 1.08-1c.071-.399.108-.804.11-1.21v-9.74a10.416 10.416 0 0 0-.4-2.56 2.24 2.24 0 0 0-1.94-1.71 2.658 2.658 0 0 0-2.63 1 5.199 5.199 0 0 0-1 2.73C61 97 61 97.91 61 98.84v7.77c0 1.5.42 1.91 1.92 2h.33v4.2H51.16v-4.19c.56 0 1.11 0 1.65-.08a1.16 1.16 0 0 0 1.22-1.1c.065-.35.095-.705.09-1.06V94.69a5.312 5.312 0 0 0-.07-1 1.25 1.25 0 0 0-1.39-1.21c-.48-.04-.97-.01-1.51-.01Zm88.68 27.13a2.08 2.08 0 0 0 3.12.76 6.76 6.76 0 0 0 2.33-3.12c.09-.2.14-.4.23-.59a4.76 4.76 0 0 0 .11-3.83c-2-5.8-3.87-11.65-5.8-17.47a17.232 17.232 0 0 0-.67-1.68 1.77 1.77 0 0 0-1.87-1.12h-.76v-4.29h12.28v4.26h-.4c-.36-.02-.72-.02-1.08 0-1 .15-1.29.51-1 1.49.85 2.64 1.75 5.25 2.63 7.88.21.63.43 1.26.68 2 .2-.6.36-1.1.51-1.59.84-2.73 1.68-5.45 2.5-8.18.38-1.28.09-1.62-1.24-1.65h-1v-4.2h9v4.23h-.08a2.88 2.88 0 0 0-2.95 2.34 952.909 952.909 0 0 1-3.52 10.92c-1.23 3.8-2.44 7.59-3.73 11.37a14.452 14.452 0 0 1-2.74 5c-2.752 3.198-7.914 2.344-9.49-1.57a7.487 7.487 0 0 1-.06-6.08 3.38 3.38 0 0 1 4.64-1.77 3.07 3.07 0 0 1 1.66 2.45 4.67 4.67 0 0 1-.43 3c-.5 1.12-1.35 1.51-2.87 1.44Zm-91.48-15.87h2.49v2.34a25.555 25.555 0 0 1-.46 3.82c-.67 2.82-2.66 4-5.53 3.82a4.65 4.65 0 0 1-4.53-3.6 20.782 20.782 0 0 1-2.17 2.13 6.91 6.91 0 0 1-7.36.83 5.45 5.45 0 0 1-2.94-3.71 9.858 9.858 0 0 1-.08-5.17 5.46 5.46 0 0 1 3.75-3.87c1.55-.57 3.16-1 4.74-1.5.418-.132.828-.286 1.23-.46a3.59 3.59 0 0 0 2.39-3.9c-.13-2.63-2.1-4.07-4.94-3.73a3.671 3.671 0 0 0-2.09.89s.07.1.1.11a2.76 2.76 0 0 1 2.16 3.06 3.16 3.16 0 0 1-3 3.23 3.39 3.39 0 0 1-3.61-2.89 6.05 6.05 0 0 1 3.83-6.87 14.81 14.81 0 0 1 7-.84c1.37.092 2.705.47 3.92 1.11a5.458 5.458 0 0 1 2.94 4.29c.085.663.125 1.331.12 2v10.71c.001.587.058 1.173.17 1.75.12.64.44.93.9.92.46-.01.8-.29.86-1 .09-.93.09-1.88.12-2.82 0-.17-.01-.38-.01-.65Zm-8.59-3-.7.46c-1.11.72-2.25 1.42-3.35 2.18a2.802 2.802 0 0 0-1.23 2.47 2.45 2.45 0 0 0 3 2.59 2.65 2.65 0 0 0 2.08-2.26c.44-1.8.09-3.59.2-5.48Zm58.03-9.12a6.77 6.77 0 0 1 1.2.61c1.864 1.793 1.087 4.932-1.398 5.649a3.382 3.382 0 0 1-.842.131 3.309 3.309 0 0 1-3.29-2.8 5.94 5.94 0 0 1 3.88-7A14.067 14.067 0 0 1 107 88a5.66 5.66 0 0 1 4.21 5.81c.06 4 0 8.08 0 12.12.018.52.092 1.036.22 1.54a.81.81 0 0 0 .84.69.8.8 0 0 0 .81-.71c.088-.496.141-.997.16-1.5v-2.24h2.39v.06c.134 2.008.01 4.024-.37 6-.76 2.86-2.72 4-5.61 3.88a4.569 4.569 0 0 1-4.43-3.43 1.362 1.362 0 0 0-.1-.22c-.47.53-.9 1.08-1.4 1.56A7.271 7.271 0 0 1 96 113.2a5.56 5.56 0 0 1-3.09-3.53 9.86 9.86 0 0 1-.17-5.49 5.43 5.43 0 0 1 3.76-3.86c1.65-.61 3.35-1.07 5-1.6.401-.136.795-.293 1.18-.47 1.82-.83 2.38-2.33 2-4.44a3.6 3.6 0 0 0-3.55-3.11 4.907 4.907 0 0 0-2.93.58c-.11.1-.2.22-.41.33Zm7 9.21-.15-.09c-1.36.91-2.76 1.76-4.08 2.74a2.729 2.729 0 0 0-1 3 2.488 2.488 0 0 0 1.67 1.91 2.319 2.319 0 0 0 2.44-.63 3.05 3.05 0 0 0 1-2.09c.01-1.66.02-3.23.08-4.84ZM103 125.31v-2.81c0-.28-.06-.38-.34-.37h-3.21c-.2 0-.36 0-.36.28 0 1.76-.06 3.52.06 5.28a1.12 1.12 0 0 0 1.3 1.2c.33 0 .65-.06 1-.07.1 0 .29-.15.29.08 0 .23.13.41-.13.52a4.504 4.504 0 0 1-2.82.43 1.44 1.44 0 0 1-1.21-1.25 4.451 4.451 0 0 1-.08-.9v-5.2c0-.29-.08-.42-.38-.38a4.82 4.82 0 0 1-.76 0c-.13 0-.34.09-.38-.09a2.15 2.15 0 0 1 0-.67s.09-.06.14-.06c.086-.01.174-.01.26 0 .38 0 .88.17 1.1-.09.22-.26.06-.73.07-1.11.02-.383.02-.767 0-1.15 0-.22.06-.32.29-.31.41 0 .93-.16 1.2.07.27.23.06.76.09 1.14.03.38 0 .74 0 1.12 0 .38.08.33.34.33h3.25c.27 0 .37-.06.36-.35v-2c0-.26 0-.36.33-.35a6.42 6.42 0 0 0 1 0c.23 0 .29.07.29.29v2c0 .29.09.36.36.34h1.79c.36 0 .29.22.29.42 0 .2.07.44-.29.43h-1.83c-.25 0-.32.07-.3.31v5c0 1.16.43 1.53 1.57 1.49.25 0 .48-.06.73-.07.25-.01.28-.1.3.1.02.2.11.4-.15.52-.855.43-1.824.58-2.77.43a1.55 1.55 0 0 1-1.29-1.7c-.06-.93 0-1.88-.05-2.83Zm23.54 2.34c.68-1.56 1.3-3 1.88-4.53.28-.75.18-.93-.57-1.19l-.24-.07c-.23-.06-.15-.24-.15-.39 0-.15.13-.19.26-.19h2.6c.13 0 .3 0 .3.19s0 .33-.2.4a2.16 2.16 0 0 0-1.31 1.36c-1.11 2.56-2.08 5.15-3.29 7.66a7.483 7.483 0 0 1-1.31 2 2 2 0 0 1-2.05.64 1.232 1.232 0 0 1-.8-.61 1 1 0 0 1 .19-1.11.88.88 0 0 1 1.07-.12c.293.179.532.435.69.74.1.17.2.23.36.07a8.39 8.39 0 0 0 1.66-2.7c.06-.13 0-.24-.09-.36-.89-2.15-1.79-4.3-2.67-6.45a1.67 1.67 0 0 0-1.18-1.07c-.27-.07-.27-.23-.27-.43 0-.2.2-.2.34-.2H125c.17 0 .35 0 .33.24-.02.24 0 .39-.3.39-.13.011-.259.041-.38.09-.24.07-.36.2-.24.48.72 1.68 1.41 3.37 2.13 5.16Zm-39.93-5.15v5.41c0 .86.16 1.08 1 1.24.26 0 .26.17.28.37.02.2-.13.23-.31.23H84c-.18 0-.31 0-.31-.23s0-.33.29-.36c.9-.1 1-.21 1-1.11v-9.16c0-1.17-.21-1.44-1.37-1.65-.24 0-.37-.08-.36-.37.01-.29.23-.23.39-.25.84-.06 1.67-.08 2.51-.16.33 0 .45.08.45.42 0 1.86.01 3.74.01 5.62Zm9.54 1.86a3.79 3.79 0 0 0-2.83-3.15 4.002 4.002 0 0 0-4.4 1.26 4.74 4.74 0 0 0-.86 4.38 3.809 3.809 0 0 0 2.93 3 4 4 0 0 0 4.09-1.16 4.81 4.81 0 0 0 1.17-3.3 6.133 6.133 0 0 0-.1-1.03ZM94 128a2 2 0 0 1-2.21 1.36 1.998 1.998 0 0 1-1.61-1.3 6.278 6.278 0 0 1-.48-3.11 4.65 4.65 0 0 1 .49-2 2.051 2.051 0 0 1 2-1.2A2 2 0 0 1 94 123c.329.791.483 1.644.45 2.5A5.823 5.823 0 0 1 94 128Zm20.17-.45c-.33-.22-.39 0-.49.21a2.42 2.42 0 0 1-2.54 1.27 2.58 2.58 0 0 1-2.25-1.92 7.562 7.562 0 0 1-.26-1.5c0-.29.07-.36.35-.36h4.98c.26 0 .36-.06.34-.33-.02-.27 0-.71-.07-1.07a3.091 3.091 0 0 0-1.67-2.47 3.83 3.83 0 0 0-4.65 1.09 5.062 5.062 0 0 0-.91 4 3.85 3.85 0 0 0 3 3.42 4 4 0 0 0 4.33-1.76c.15-.28.13-.41-.16-.58Zm-5.54-3.24a3.159 3.159 0 0 1 .85-2.07 1.69 1.69 0 0 1 2.89.7c.115.438.182.887.2 1.34 0 .24-.08.26-.27.26h-3.41c-.16-.01-.29-.01-.26-.23Zm8.85-1.79a4.788 4.788 0 0 1 1-1 2.934 2.934 0 0 1 1.14-.46 1.229 1.229 0 0 1 1.32.5 1.48 1.48 0 0 1 0 1.53.85.85 0 0 1-1 .29.76.76 0 0 1-.62-.77 2.078 2.078 0 0 1 0-.37c.06-.22 0-.25-.2-.23a2 2 0 0 0-1.61 1.79v3.88c0 1.14.14 1.33 1.3 1.41.28 0 .36.13.34.39-.02.26-.07.22-.23.22h-4c-.19 0-.26-.07-.25-.25.01-.18 0-.33.2-.34.2-.01.23 0 .35 0a.72.72 0 0 0 .72-.8v-5.25a1.07 1.07 0 0 0-1-1.12c-.21 0-.37 0-.37-.35s.21-.29.39-.3c.74 0 1.48-.07 2.21-.15.32 0 .41.1.39.39a5.056 5.056 0 0 0-.08.99Z" fill="#00aeef" paint-order="stroke"/><path d="M83 129.23c0-.23-.17-.17-.3-.18-.94-.06-1.17-.29-1.16-1.24 0-1.4.06-2.79.06-4.19a2.2 2.2 0 0 0-1.34-2.31 4.24 4.24 0 0 0-4.1.48c-.362.226-.62.585-.72 1a.94.94 0 0 0 .35 1.07 1 1 0 0 0 1.08 0 .84.84 0 0 0 .39-1 5.064 5.064 0 0 0-.12-.57.28.28 0 0 1 .15-.36c.996-.812 2.499-.241 2.704 1.028L80 123c0 .32 0 .65.07 1a.43.43 0 0 1-.32.48c-.62.21-1.22.44-1.85.66a8.393 8.393 0 0 0-1.8.75 2.3 2.3 0 0 0-1 2.54 2 2 0 0 0 1.82 1.57 3.33 3.33 0 0 0 2.48-.69l.6-.52c.5 1 1 1.3 2 1.18a6.9 6.9 0 0 0 .86-.23c.22-.13.14-.32.14-.51Zm-3-1.31a.328.328 0 0 1-.09.23A2.208 2.208 0 0 1 78 129c-1-.06-1.48-.85-1.19-1.9.13-.454.422-.845.82-1.1a7.806 7.806 0 0 1 2.31-1Zm-11-2.54a4.891 4.891 0 0 0 .66 2.56 2.34 2.34 0 0 0 3.71.37 4.69 4.69 0 0 0 .49-.59c.13-.2.22-.32.49-.15s.23.29.09.51a3.9 3.9 0 0 1-5.84 1c-2.272-2.361-1.631-6.245 1.28-7.75a3.462 3.462 0 0 1 3.56.41 1.89 1.89 0 0 1 .61 2.07.83.83 0 0 1-1 .55.89.89 0 0 1-.86-.89 4.03 4.03 0 0 1 .16-1 .53.53 0 0 0-.42-.71 1.9 1.9 0 0 0-2.29.93 5.185 5.185 0 0 0-.64 2.69Z" paint-order="stroke" fill="#fa9d0f"/></svg>