<svg viewBox="5.57 0.028 778.571 386.776" xmlns="http://www.w3.org/2000/svg" xmlns:xlink="http://www.w3.org/1999/xlink"><defs><linearGradient id="linear-gradient" x1="260.53" y1="235.7" x2="325.18" y2="58.08" gradientUnits="userSpaceOnUse"><stop offset="0" stop-color="#dd5d1b"/><stop offset=".04" stop-color="#e1691c"/><stop offset=".13" stop-color="#ea7f1f"/><stop offset=".24" stop-color="#f19121"/><stop offset=".38" stop-color="#f69d23"/><stop offset=".56" stop-color="#f8a424"/><stop offset="1" stop-color="#f9a624"/></linearGradient><linearGradient id="linear-gradient-2" x1="259.08" y1="118.36" x2="316.66" y2="60.78" gradientUnits="userSpaceOnUse"><stop offset="0" stop-color="#ffd033" stop-opacity="0"/><stop offset="1" stop-color="#ffd033"/></linearGradient><linearGradient id="linear-gradient-3" x1="212.75" y1="147.55" x2="379.99" y2="147.55" gradientUnits="userSpaceOnUse"><stop offset="0" stop-color="#c15911"/><stop offset=".02" stop-color="#c15d10"/><stop offset=".11" stop-color="#c3680d"/><stop offset=".2" stop-color="#c36c0c"/><stop offset=".26" stop-color="#c25f0f"/><stop offset=".32" stop-color="#c15911"/><stop offset=".37" stop-color="#c25f0f"/><stop offset=".5" stop-color="#c3690d"/><stop offset=".67" stop-color="#c36c0c"/><stop offset=".71" stop-color="#be5e0f"/><stop offset=".76" stop-color="#ba5211"/><stop offset=".83" stop-color="#b84b13"/><stop offset="1" stop-color="#b74913"/></linearGradient><linearGradient id="linear-gradient-4" x1="264.06" y1="51.69" x2="263.1" y2="46.21" gradientUnits="userSpaceOnUse"><stop offset="0" stop-color="#00c9f1"/><stop offset="1" stop-color="#0076a0"/></linearGradient><linearGradient id="linear-gradient-5" x1="246.93" y1="124.04" x2="254.53" y2="122.43" gradientUnits="userSpaceOnUse"><stop offset="0" stop-color="#0076a0"/><stop offset="1" stop-color="#00c9f1"/></linearGradient><linearGradient id="linear-gradient-6" x1="333.76" y1="183.3" x2="332.36" y2="175.36" xlink:href="#linear-gradient-5"/><linearGradient id="linear-gradient-7" x1="393.35" y1="140.61" x2="398.39" y2="139.54" gradientTransform="matrix(2.29078 0 0 2.29078 7.57 165.569)" xlink:href="#linear-gradient-4"/><linearGradient id="linear-gradient-8" x1="300.06" y1="85.04" x2="304.42" y2="84.12" gradientTransform="matrix(2.29078 0 0 2.29078 7.57 165.569)" xlink:href="#linear-gradient-4"/><linearGradient id="linear-gradient-9" x1="350.9" y1="121.29" x2="350.11" y2="116.84" xlink:href="#linear-gradient-4"/><linearGradient id="linear-gradient-10" x1="279.45" y1="127.19" x2="266.21" y2="52.11" gradientUnits="userSpaceOnUse"><stop offset=".28" stop-color="#7fd9f8"/><stop offset=".33" stop-color="#73d7f8"/><stop offset=".55" stop-color="#42d0f7"/><stop offset=".74" stop-color="#1ecaf6"/><stop offset=".9" stop-color="#08c7f5"/><stop offset="1" stop-color="#00c6f5"/></linearGradient><linearGradient id="linear-gradient-11" x1="349.32" y1="130.06" x2="348.31" y2="124.33" gradientUnits="userSpaceOnUse"><stop offset="0" stop-color="#0accf6"/><stop offset="1" stop-color="#7fd9f8"/></linearGradient><linearGradient id="linear-gradient-12" x1="265.96" y1="57.9" x2="265.02" y2="52.58" gradientUnits="userSpaceOnUse"><stop offset="0" stop-color="#23cef6"/><stop offset=".2" stop-color="#48d4f7"/><stop offset=".44" stop-color="#6edbf8"/><stop offset=".66" stop-color="#89dff9"/><stop offset=".85" stop-color="#99e2fa"/><stop offset="1" stop-color="#9fe3fa"/></linearGradient><linearGradient id="gradient-2" x1="312.96" y1="22.34" x2="312.96" y2="74.42" gradientTransform="matrix(2.29078 0 0 -2.29078 7.57 381.36)" gradientUnits="userSpaceOnUse"><stop offset="0" stop-color="#8f1a26"/><stop offset=".04" stop-color="#8f1a26" stop-opacity=".83"/><stop offset=".1" stop-color="#8f1a26" stop-opacity=".61"/><stop offset=".16" stop-color="#8f1a26" stop-opacity=".42"/><stop offset=".24" stop-color="#8f1a26" stop-opacity=".26"/><stop offset=".32" stop-color="#8f1a26" stop-opacity=".14"/><stop offset=".43" stop-color="#8f1a26" stop-opacity=".06"/><stop offset=".58" stop-color="#8f1a26" stop-opacity=".01"/><stop offset="1" stop-color="#8f1a26" stop-opacity="0"/></linearGradient><linearGradient id="linear-gradient-2-1" x1="198.36" y1="22.57" x2="198.36" y2="74.65" gradientTransform="matrix(2.29078 0 0 -2.29078 7.57 381.36)" xlink:href="#gradient-4"/><linearGradient id="gradient-4" x1="255.66" y1="22.57" x2="255.66" y2="74.65" gradientTransform="matrix(2.3502 0 0 -2.3502 -7.55 384.958)" gradientUnits="userSpaceOnUse"><stop offset="0" stop-color="#939392"/><stop offset=".04" stop-color="#939392" stop-opacity=".8"/><stop offset=".1" stop-color="#939392" stop-opacity=".59"/><stop offset=".17" stop-color="#939392" stop-opacity=".4"/><stop offset=".24" stop-color="#939392" stop-opacity=".25"/><stop offset=".33" stop-color="#939392" stop-opacity=".14"/><stop offset=".43" stop-color="#939392" stop-opacity=".06"/><stop offset=".58" stop-color="#939392" stop-opacity=".01"/><stop offset="1" stop-color="#939392" stop-opacity="0"/></linearGradient><linearGradient id="linear-gradient-2-2" x1="141" y1="22.57" x2="141" y2="74.65" gradientTransform="matrix(2.29078 0 0 -2.29078 7.57 381.36)" xlink:href="#gradient-4"/><linearGradient id="linear-gradient-2-3" x1="83.4" y1="22.57" x2="83.4" y2="74.65" gradientTransform="matrix(2.29078 0 0 -2.29078 7.57 381.36)" xlink:href="#gradient-4"/><linearGradient id="linear-gradient-2-4" x1="26.04" y1="22.57" x2="26.04" y2="74.65" gradientTransform="matrix(2.29078 0 0 -2.29078 7.57 381.36)" xlink:href="#gradient-4"/><linearGradient id="gradient-5" x1="255.66" y1="22.57" x2="255.66" y2="74.65" gradientTransform="matrix(2.3502 0 0 -2.3502 -139.486 384.436)" gradientUnits="userSpaceOnUse"><stop offset="0" stop-color="#939392"/><stop offset=".04" stop-color="#939392" stop-opacity=".8"/><stop offset=".1" stop-color="#939392" stop-opacity=".59"/><stop offset=".17" stop-color="#939392" stop-opacity=".4"/><stop offset=".24" stop-color="#939392" stop-opacity=".25"/><stop offset=".33" stop-color="#939392" stop-opacity=".14"/><stop offset=".43" stop-color="#939392" stop-opacity=".06"/><stop offset=".58" stop-color="#939392" stop-opacity=".01"/><stop offset="1" stop-color="#939392" stop-opacity="0"/></linearGradient><linearGradient id="gradient-6" x1="255.66" y1="22.57" x2="255.66" y2="74.65" gradientTransform="matrix(2.3502 0 0 -2.3502 -270.201 384.127)" gradientUnits="userSpaceOnUse"><stop offset="0" stop-color="#939392"/><stop offset=".04" stop-color="#939392" stop-opacity=".8"/><stop offset=".1" stop-color="#939392" stop-opacity=".59"/><stop offset=".17" stop-color="#939392" stop-opacity=".4"/><stop offset=".24" stop-color="#939392" stop-opacity=".25"/><stop offset=".33" stop-color="#939392" stop-opacity=".14"/><stop offset=".43" stop-color="#939392" stop-opacity=".06"/><stop offset=".58" stop-color="#939392" stop-opacity=".01"/><stop offset="1" stop-color="#939392" stop-opacity="0"/></linearGradient><linearGradient id="gradient-7" x1="255.66" y1="22.57" x2="255.66" y2="74.65" gradientTransform="matrix(2.3502 0 0 -2.3502 -402.535 383.981)" gradientUnits="userSpaceOnUse"><stop offset="0" stop-color="#939392"/><stop offset=".04" stop-color="#939392" stop-opacity=".8"/><stop offset=".1" stop-color="#939392" stop-opacity=".59"/><stop offset=".17" stop-color="#939392" stop-opacity=".4"/><stop offset=".24" stop-color="#939392" stop-opacity=".25"/><stop offset=".33" stop-color="#939392" stop-opacity=".14"/><stop offset=".43" stop-color="#939392" stop-opacity=".06"/><stop offset=".58" stop-color="#939392" stop-opacity=".01"/><stop offset="1" stop-color="#939392" stop-opacity="0"/></linearGradient><linearGradient id="gradient-8" x1="255.66" y1="22.57" x2="255.66" y2="74.65" gradientTransform="matrix(2.3502 0 0 -2.3502 -534.178 383.818)" gradientUnits="userSpaceOnUse"><stop offset="0" stop-color="#939392"/><stop offset=".04" stop-color="#939392" stop-opacity=".8"/><stop offset=".1" stop-color="#939392" stop-opacity=".59"/><stop offset=".17" stop-color="#939392" stop-opacity=".4"/><stop offset=".24" stop-color="#939392" stop-opacity=".25"/><stop offset=".33" stop-color="#939392" stop-opacity=".14"/><stop offset=".43" stop-color="#939392" stop-opacity=".06"/><stop offset=".58" stop-color="#939392" stop-opacity=".01"/><stop offset="1" stop-color="#939392" stop-opacity="0"/></linearGradient><radialGradient id="radial-gradient" cx="292.86" cy="146.89" r="140.84" gradientUnits="userSpaceOnUse"><stop offset=".65" stop-color="#fef100"/><stop offset="1" stop-color="#ffd600"/></radialGradient><radialGradient id="radial-gradient-2" cx="292.86" cy="146.89" r="140.84" gradientUnits="userSpaceOnUse"><stop offset=".66" stop-color="#ab8b00"/><stop offset=".75" stop-color="#dcad09" stop-opacity="0"/></radialGradient><radialGradient id="radial-gradient-3" cx="292.86" cy="146.89" r="94.48" gradientUnits="userSpaceOnUse"><stop offset="0" stop-color="#ffca09"/><stop offset="1" stop-color="#ffca09" stop-opacity="0"/></radialGradient><radialGradient id="gradient-1" cx="312.96" cy="48.38" r="26.04" gradientTransform="matrix(2.29078 0 0 -2.29078 7.57 381.36)" gradientUnits="userSpaceOnUse"><stop offset="0" stop-color="#e42f43"/><stop offset="1" stop-color="#da2d3f"/></radialGradient><radialGradient id="gradient-3" cx="255.66" cy="48.61" r="26.04" gradientTransform="matrix(2.29078 0 0 -2.29078 7.57 381.36)" gradientUnits="userSpaceOnUse"><stop offset="0" stop-color="#fff"/><stop offset=".7" stop-color="#fdfdfd"/><stop offset=".95" stop-color="#f6f6f6"/><stop offset="1" stop-color="#f4f4f4"/></radialGradient><radialGradient id="radial-gradient-2-1" cx="198.36" cy="48.61" r="26.04" gradientTransform="matrix(2.29078 0 0 -2.29078 7.57 381.36)" xlink:href="#gradient-3"/><radialGradient id="radial-gradient-2-2" cx="141" cy="48.61" r="26.04" gradientTransform="matrix(2.29078 0 0 -2.29078 7.57 381.36)" xlink:href="#gradient-3"/><radialGradient id="radial-gradient-2-3" cx="83.4" cy="48.61" r="26.04" gradientTransform="matrix(2.29078 0 0 -2.29078 7.57 381.36)" xlink:href="#gradient-3"/><radialGradient id="radial-gradient-2-4" cx="26.04" cy="48.61" r="26.04" gradientTransform="matrix(2.29078 0 0 -2.29078 7.57 381.36)" xlink:href="#gradient-3"/><style>.cls-1{fill:none}.cls-21{clip-path:url(#clip-path)}.cls-22{clip-path:url(#clip-path-2)}.cls-23{clip-path:url(#clip-path-3)}.cls-24{clip-path:url(#clip-path-4)}.cls-25{clip-path:url(#clip-path-5)}.cls-26{clip-path:url(#clip-path-6)}.cls-27{clip-path:url(#clip-path-7)}.cls-28{clip-path:url(#clip-path-8)}.cls-29{clip-path:url(#clip-path-9)}.cls-30{clip-path:url(#clip-path-10)}.cls-31{clip-path:url(#clip-path-11)}.cls-32{clip-path:url(#clip-path-12)}.cls-33{fill:#101820}.cls-34{fill:url(#radial-gradient-4)}.cls-35{fill:url(#radial-gradient-5)}.cls-36{fill:url(#radial-gradient-6)}.cls-37{fill:url(#radial-gradient-7)}.cls-38{fill:url(#radial-gradient-8)}.cls-39{fill:url(#radial-gradient-9)}</style></defs><path d="M438.32 118.53a5.93 5.93 0 0 0-5.9-2.22c-18.75-3.57-29.32-8.31-31.42-14.09-2.07-5.62 2.54-15.31 14.08-29.59a6 6 0 0 0 2.1-2.93l.16-.48a5.94 5.94 0 0 0-9.09-6.68c-18.58 4.36-30.16 4.34-34.46-.08s-3.9-15 .83-32.76a6 6 0 0 0 .73-3.52l-.05-.51a5.94 5.94 0 0 0-11-2.41c-15.23 11.54-25.83 16.23-31.55 13.94-5.56-2.23-9.67-12.14-12.57-30.27a6 6 0 0 0-.76-3.51l-.25-.42a5.95 5.95 0 0 0-11.06 2.28C298.93 22 291.16 30.58 285 30.81c-6 .2-13.77-7.15-23.79-22.53a6 6 0 0 0-2.13-2.91l-.41-.3a5.94 5.94 0 0 0-9.17 6.58c-1.58 19-5.19 30-10.72 32.75-5.37 2.63-15.49-.94-30.9-10.92a5.94 5.94 0 0 0-3.13-1.78l-.49-.11a5.94 5.94 0 0 0-5.7 9.74c6.28 18 7.47 29.54 3.52 34.27s-14.53 5.46-32.67 2.61a5.89 5.89 0 0 0-3.57-.36l-.5.1a5.94 5.94 0 0 0-1.25 11.22c13.07 13.9 18.84 24 17.16 29.87-1.64 5.76-11.06 10.89-28.79 15.67a5.92 5.92 0 0 0-3.41 1.12l-.41.3a5.94 5.94 0 0 0 3.42 10.75c17.59 7.39 26.95 14.22 27.83 20.32.85 5.92-5.68 14.44-19.93 26a5.87 5.87 0 0 0-2.66 2.42l-.26.43a5.95 5.95 0 0 0 7.51 8.44c19.07-.42 30.4 2 33.68 7.24 3.18 5.06.69 15.5-7.62 31.87a6.09 6.09 0 1 0 8.78 8.45c17.25-8.13 28.59-10.52 33.71-7.09 5 3.34 6.94 13.88 6 32.22a6 6 0 0 0 0 3.59l.15.48a5.94 5.94 0 0 0 11.29.08c12.46-14.46 21.85-21.25 27.92-20.19 5.9 1 12 9.86 18.59 27a6 6 0 0 0 1.47 3.28l.34.37a5.94 5.94 0 0 0 10.34-4.52c5.5-18.27 11.32-28.29 17.3-29.8 5.8-1.46 15 4.13 28 17.1a5.9 5.9 0 0 0 2.69 2.39l.46.21a5.94 5.94 0 0 0 7.6-8.34c-2.4-18.93-1.16-30.45 3.68-34.26s15.35-2.31 32.5 4.25a5.88 5.88 0 0 0 3.42 1.1h.52a5.94 5.94 0 0 0 3.54-10.71c-9.89-16.32-13.45-27.34-10.57-32.79s13.08-8.36 31.41-9.34a6 6 0 0 0 3.58-.39l.46-.21a5.94 5.94 0 0 0-1.11-11.23c-15.67-10.88-23.41-19.51-23-25.65.4-6 8.55-13 24.89-21.31a5.9 5.9 0 0 0 3.12-1.82l.33-.37a5.94 5.94 0 0 0 .3-7.57Zm-5.06 4h-.29c-37.4 18.84-39.78 33.07-2.31 58.65h.7l-.47.21-.23-.17c-41.84 2-49.8 14-26 52.64l.66.25h-.5c-.06-.09-.1-.17-.16-.25-39-15.19-51.19-7.43-45.13 37.52l.5.5-.46-.21a2.89 2.89 0 0 1 0-.29c-29.48-29.75-43.75-27.61-56.5 15.93l.26.65-.34-.38a2.76 2.76 0 0 0 .08-.27c-14.83-39.17-28.73-43-58.08-8.44v.7l-.16-.48.2-.22c2.38-41.81-8.76-51-49.64-31.33l-.32.63.06-.5.26-.13c19.18-37.23 12.74-50.14-32.6-48.81l-.55.44.26-.43h.29c32.67-26.21 32-40.62-9.93-57.85l-.68.18.41-.29.27.11c40.5-10.65 45.78-24.08 14.46-56.89l-.7-.11.5-.1.2.21c41.33 6.74 51.62-3.37 36.34-46.09l-.66-.51.5.11.09.27c35 23 48.54 17.92 52-27.32-.12-.2-.25-.38-.38-.59l.41.3v.29c22.65 35.23 37.06 36.11 58.58-3.83 0-.23-.08-.45-.11-.69l.25.44-.14.25C320.49 48 333.29 54.69 369.19 27l.18-.68.05.5-.23.18c-11 40.4-2 51.69 42 41l.44-.55-.16.48-.28.07c-26.51 32.42-22.89 46.39 21.74 54.52l.62-.32Z" fill="#fff"/><path d="M195 248.05c19.63-37.8 13.3-50.83-32.57-49.43l-.26.43c33.31-26.54 32.83-41-9.65-58.4l-.41.29c41.22-10.7 46.67-24.13 14.94-57.28l-.5.1c42 7 52.46-3.06 36.95-46.25l-.5-.11c35.55 23.47 49.17 18.54 52.57-27.23l-.41-.3c22.92 35.9 37.37 36.94 59.1-3.49l-.26-.44c6.33 42.12 19.12 48.94 55.4 20.84l-.05-.5c-11.35 41.06-2.42 52.49 42.16 41.58l.16-.48c-27.06 32.89-23.58 47 21.59 55.12l.33-.37c-38.09 19-40.63 33.31-2.7 59.14l.47-.21C388.81 183 380.68 195 404.84 234h.5c-39.64-15.57-51.94-7.91-45.75 37.56l.46.21c-29.89-30.35-44.24-28.36-57.08 15.7l.34.38C288.35 248 274.43 244 244.77 279l.16.48c2.56-42.51-8.53-51.84-49.86-31.9" fill="url(#radial-gradient)"/><path d="M195 248.05c19.63-37.8 13.3-50.83-32.57-49.43l-.26.43c33.31-26.54 32.83-41-9.65-58.4l-.41.29c41.22-10.7 46.67-24.13 14.94-57.28l-.5.1c42 7 52.46-3.06 36.95-46.25l-.5-.11c35.55 23.47 49.17 18.54 52.57-27.23l-.41-.3c22.92 35.9 37.37 36.94 59.1-3.49l-.26-.44c6.33 42.12 19.12 48.94 55.4 20.84l-.05-.5c-11.35 41.06-2.42 52.49 42.16 41.58l.16-.48c-27.06 32.89-23.58 47 21.59 55.12l.33-.37c-38.09 19-40.63 33.31-2.7 59.14l.47-.21C388.81 183 380.68 195 404.84 234h.5c-39.64-15.57-51.94-7.91-45.75 37.56l.46.21c-29.89-30.35-44.24-28.36-57.08 15.7l.34.38C288.35 248 274.43 244 244.77 279l.16.48c2.56-42.51-8.53-51.84-49.86-31.9" fill="url(#radial-gradient-2)"/><circle cx="292.86" cy="146.89" r="94.48" fill="url(#linear-gradient)"/><circle cx="292.86" cy="146.89" r="94.48" fill="url(#radial-gradient-3)"/><ellipse cx="287.87" cy="89.57" rx="51.17" ry="26.39" fill="url(#linear-gradient-2)"/><path d="M257.38 205.78 229.74 76.56a94.7 94.7 0 0 0-17 20.16c19.88 25.76 36.71 65.76 37.22 121.82 0 0 54.17-28.85 119.45-16.41A94.48 94.48 0 0 0 380 183.32Z" fill="url(#linear-gradient-3)"/><path fill="#0077a3" d="m226.73 62.42 5.15-10.29 62.85-11.48 18.24 83.13 78.84-14.27 12.98 59.54-5.04 10.72-142.34 26.07-30.68-143.42z"/><path fill="url(#linear-gradient-4)" d="m292.18 46.61 2.44-5.96-62.97 11.5 8.08 3.83 52.45-9.37z"/><path fill="url(#linear-gradient-5)" d="m239.73 55.98-8.08-3.83 30.89 143.71 5.79-8.51-28.6-131.37z"/><path fill="url(#linear-gradient-6)" d="m398.51 163.69-130.18 23.66-5.79 8.51 142.25-26.24-6.28-5.93z"/><path fill="url(#linear-gradient-7)" d="m391.69 109.51-3.85 5.21 10.67 48.97 6.28 5.93-13.1-60.11z"/><path fill="url(#linear-gradient-8)" d="m294.62 40.65-2.44 5.96 17.14 82.02 3.53-4.85-18.23-83.13z"/><path fill="url(#linear-gradient-9)" d="m312.85 123.78-3.53 4.85.22-.04 78.3-13.87 3.85-5.21-78.84 14.27z"/><path fill="#00bcf2" d="m268.33 187.35 130.18-23.66-10.67-48.97-78.52 13.91-17.14-82.02-52.45 9.37 28.6 131.37z"/><path d="M302.51 109.13 289.25 48l-48.43 8.85 16.49 74.2c7.3-8.44 23.18-23.05 45.2-21.92Z" fill="url(#linear-gradient-10)"/><path d="m387.42 117.91-.09-.46-78 14c2.41 6.07 74.25-4.64 78.09-13.54Z" fill="url(#linear-gradient-11)"/><path d="M269.74 185.67 395.89 163c-1.51-6.93-128.19 11.84-126.15 22.67Z" fill="#59d0f6"/><path d="m289.25 48.31-48.43 8.85c.57 6.72 51.36-1.98 48.43-8.85Z" fill="url(#linear-gradient-12)"/><path d="M691.71 361.12v-8.71c0-.85-.18-1.17-1.07-1.12q-5 .06-9.92 0c-.63 0-1.12-.05-1.12.85.13 5.45-.18 10.9.18 16.36.18 2.59 1.38 3.71 4 3.71 1 0 2-.18 3-.23.31 0 .89-.44.89.27 0 .54.41 1.25-.4 1.61a13.94 13.94 0 0 1-8.71 1.34 4.45 4.45 0 0 1-3.76-3.89 14.07 14.07 0 0 1-.27-2.77q-.06-8 0-16.13c0-.9-.22-1.3-1.16-1.17a13.4 13.4 0 0 1-2.37 0c-.4 0-1 .27-1.16-.26a6.49 6.49 0 0 1 0-2.11c0-.08.27-.17.45-.17a4.28 4.28 0 0 1 .8 0c1.16-.09 2.73.53 3.4-.27s.18-2.28.22-3.44.05-2.37 0-3.58c0-.67.18-1 .9-.94 1.25.09 2.86-.49 3.71.22s.17 2.33.26 3.54.05 2.28 0 3.44c0 .85.27 1 1.08 1q5-.07 10 0c.85 0 1.17-.18 1.12-1.08v-6.08c0-.8.18-1.11 1-1.07a22 22 0 0 0 3 0c.72 0 .9.22.9.9v6.21c0 .89.27 1.12 1.12 1.07 1.83 0 3.71.05 5.54 0 1.12-.05.9.67.9 1.29s.22 1.39-.9 1.34h-5.67c-.76 0-1 .22-.94 1v15.33c0 3.58 1.34 4.74 4.88 4.61.76-.05 1.47-.18 2.23-.22.36 0 .89-.32.94.31s.36 1.25-.45 1.61a14.3 14.3 0 0 1-8.58 1.34c-2.59-.49-4-2.33-4-5.28s-.09-5.81-.14-8.76ZM764.75 368.36c2.1-4.82 4-9.38 5.81-14 .9-2.33.58-2.86-1.74-3.67-.27-.09-.49-.13-.76-.22-.71-.18-.45-.76-.45-1.21 0-.62.41-.58.81-.58h8c.41 0 .94-.13.94.58 0 .54.09 1-.62 1.25-2.1.67-3.22 2.24-4.07 4.21-3.44 7.91-6.44 15.95-10.19 23.73a22.74 22.74 0 0 1-4.07 6.13 6.1 6.1 0 0 1-6.35 2 3.76 3.76 0 0 1-2.46-1.87 3 3 0 0 1 .59-3.45 2.71 2.71 0 0 1 3.3-.35 5.74 5.74 0 0 1 2.15 2.28c.31.53.62.71 1.12.22a26.2 26.2 0 0 0 5.14-8.36c.18-.4-.14-.76-.27-1.12q-4.15-10-8.27-20a5.18 5.18 0 0 0-3.67-3.31c-.85-.22-.85-.71-.85-1.34 0-.8.63-.62 1.08-.62h10c.54 0 1.08-.05 1 .76s0 1.2-.94 1.2a3.76 3.76 0 0 0-1.16.27c-.76.23-1.12.63-.76 1.48 2.31 5.22 4.46 10.45 6.69 15.99ZM641.07 352.41v16.76c0 2.68.49 3.35 3.13 3.84.8.14.8.54.85 1.17s-.41.71-.94.71H633c-.54 0-.94 0-.94-.71s.09-1 .9-1.12c2.77-.32 3.13-.67 3.13-3.44v-28.39c0-3.62-.68-4.47-4.25-5.09-.76-.14-1.16-.27-1.12-1.17s.72-.71 1.21-.76c2.59-.18 5.18-.26 7.78-.49 1-.09 1.38.23 1.38 1.3-.09 5.76-.02 11.58-.02 17.39ZM586.53 361.35a14.93 14.93 0 0 0 2.06 7.91 7.25 7.25 0 0 0 11.49 1.16 15.87 15.87 0 0 0 1.52-1.83c.4-.63.67-1 1.52-.45s.71.89.26 1.57c-4.06 6.39-12.65 7.82-18.1 3-2.73-2.41-3.71-5.63-4.16-9.16-.8-6.44 2.51-12.74 8.14-14.84 3.8-1.47 7.6-1.38 11 1.25a5.91 5.91 0 0 1 1.88 6.44 2.6 2.6 0 0 1-3.18 1.7 2.75 2.75 0 0 1-2.63-2.77 11.27 11.27 0 0 1 .49-3 1.63 1.63 0 0 0-1.3-2.19 5.85 5.85 0 0 0-7.1 2.86c-1.53 2.58-1.8 5.44-1.89 8.35ZM736.68 352.5a15.16 15.16 0 0 1 3.17-3 9.15 9.15 0 0 1 3.54-1.43 3.79 3.79 0 0 1 4.06 1.56 4.52 4.52 0 0 1 0 4.74 2.65 2.65 0 0 1-3.17.9 2.38 2.38 0 0 1-1.93-2.37 4.83 4.83 0 0 1 .09-1.16c.18-.67-.09-.76-.62-.72a6.13 6.13 0 0 0-5 5.54v12c0 3.53.45 4.11 4 4.38.9.09 1.12.4 1.08 1.21 0 .53-.23.67-.72.67h-12.59c-.58 0-.8-.23-.76-.76s-.09-1 .63-1.08a7.85 7.85 0 0 0 1.07-.09 2.23 2.23 0 0 0 2.23-2.45v-16.28a3.31 3.31 0 0 0-3.08-3.48c-.63-.09-1.12-.14-1.12-1.08s.63-.89 1.21-.93c2.28-.14 4.56-.23 6.84-.45 1-.09 1.25.31 1.2 1.21a17.16 17.16 0 0 0-.13 3.07ZM629.94 373.28c0-.71-.54-.54-.94-.58-2.91-.18-3.62-.89-3.58-3.84.05-4.34.18-8.63.18-13 0-3.13-.94-6-4.16-7.15a13.15 13.15 0 0 0-12.69 1.48 5.16 5.16 0 0 0-2.24 3 2.91 2.91 0 0 0 4.43 3.3 2.54 2.54 0 0 0 1.21-2.95c-.09-.62-.23-1.2-.36-1.78a.89.89 0 0 1 .45-1.12c2.72-1.61 7.28-1.43 8.18 3.35.17 1 .13 2 .22 3a1.3 1.3 0 0 1-1 1.47c-1.93.68-3.8 1.39-5.73 2.06a25.24 25.24 0 0 0-5.58 2.33 7.12 7.12 0 0 0-3 7.86 6.13 6.13 0 0 0 5.68 4.74 10.26 10.26 0 0 0 7.69-2.14l1.87-1.61c1.52 3.13 2.95 4 6.08 3.66a20.55 20.55 0 0 0 2.69-.71c.78-.21.6-.79.6-1.37Zm-9.52-4.07a1.09 1.09 0 0 1-.27.72 6.92 6.92 0 0 1-5.72 2.73c-3.09-.18-4.61-2.64-3.71-5.91a6.1 6.1 0 0 1 2.54-3.39 25 25 0 0 1 7.16-2.95ZM670.61 358.17c-1-4.91-3.8-8.45-8.76-9.74-5.23-1.39-10-.45-13.63 3.89-3.31 4-3.89 8.71-2.68 13.59s4.2 8.18 9.07 9.34 9.21.18 12.7-3.58c2.63-2.86 3.53-6.39 3.62-10.23a20.12 20.12 0 0 0-.32-3.27ZM664 369.35c-1.43 3.17-3.66 4.56-6.84 4.2-2.5-.27-4-1.88-5-4a19.44 19.44 0 0 1-1.48-9.66 14.44 14.44 0 0 1 1.52-6.21c1.34-2.42 3.27-3.85 6.17-3.71s4.56 1.7 5.63 4.11a21.72 21.72 0 0 1 0 15.29Z"/><path d="M726.44 368.05c-1-.67-1.2.09-1.52.67a7.52 7.52 0 0 1-7.86 3.94c-3.67-.41-5.81-2.6-7-6a23.69 23.69 0 0 1-.8-4.65c-.09-.89.22-1.12 1.07-1.12 2.55.05 5.1 0 7.65 0h7.77c.81 0 1.12-.17 1.08-1-.09-1.08-.09-2.19-.23-3.31-.53-3.35-2-6.08-5.18-7.65a11.8 11.8 0 0 0-14.4 3.36c-2.81 3.66-3.48 7.86-2.81 12.38.8 5.54 4.2 9.48 9.25 10.59a12.28 12.28 0 0 0 13.41-5.45c.51-.81.47-1.22-.43-1.76Zm-17.16-10c.27-2.42.8-4.7 2.64-6.44a5.24 5.24 0 0 1 8.94 2.19 18.84 18.84 0 0 1 .62 4.16c0 .71-.27.8-.85.8h-10.55c-.49-.05-.89-.05-.8-.76Z"/><path d="M724.582 210.88c32.891 0 59.559 26.668 59.559 59.562 0 32.892-26.668 59.56-59.559 59.56-32.895 0-59.561-26.668-59.561-59.56 0-32.894 26.666-59.562 59.561-59.562Z" fill="url(#gradient-1)"/><path d="M724.582 210.88c32.891 0 59.559 26.668 59.559 59.562 0 32.892-26.668 59.56-59.559 59.56-32.895 0-59.561-26.668-59.561-59.56 0-32.894 26.666-59.562 59.561-59.562Z" fill="url(#gradient-2)"/><path d="M593.227 210.354c32.894 0 59.561 26.667 59.561 59.561 0 32.893-26.667 59.559-59.561 59.559-32.893 0-59.559-26.666-59.559-59.559 0-32.894 26.666-59.561 59.559-59.561Z" fill="url(#gradient-3)"/><path d="M461.966 210.354c32.894 0 59.561 26.667 59.561 59.561 0 32.893-26.667 59.559-59.561 59.559-32.893 0-59.558-26.666-59.558-59.559 0-32.894 26.665-59.561 59.558-59.561Z" fill="url(#radial-gradient-2-1)"/><path d="M461.966 210.354c32.894 0 59.561 26.667 59.561 59.561 0 32.893-26.667 59.559-59.561 59.559-32.893 0-59.558-26.666-59.558-59.559 0-32.894 26.665-59.561 59.558-59.561Z" fill="url(#linear-gradient-2-1)"/><path d="M330.567 210.354c32.894 0 59.56 26.667 59.56 59.561 0 32.893-26.666 59.559-59.56 59.559-32.893 0-59.559-26.666-59.559-59.559 0-32.894 26.666-59.561 59.559-59.561Z" fill="url(#radial-gradient-2-2)"/><path d="M330.567 210.354c32.894 0 59.56 26.667 59.56 59.561 0 32.893-26.666 59.559-59.56 59.559-32.893 0-59.559-26.666-59.559-59.559 0-32.894 26.666-59.561 59.559-59.561Z" fill="url(#linear-gradient-2-2)"/><path d="M198.619 210.354c32.895 0 59.56 26.667 59.56 59.561 0 32.893-26.665 59.559-59.56 59.559-32.894 0-59.56-26.666-59.56-59.559 0-32.894 26.666-59.561 59.56-59.561Z" fill="url(#radial-gradient-2-3)"/><path d="M198.619 210.354c32.895 0 59.56 26.667 59.56 59.561 0 32.893-26.665 59.559-59.56 59.559-32.894 0-59.56-26.666-59.56-59.559 0-32.894 26.666-59.561 59.56-59.561Z" fill="url(#linear-gradient-2-3)"/><path d="M67.129 210.354c32.893 0 59.559 26.667 59.559 59.561 0 32.893-26.666 59.559-59.559 59.559-32.894 0-59.561-26.666-59.561-59.559 0-32.894 26.667-59.561 59.561-59.561Z" fill="url(#radial-gradient-2-4)"/><path d="M67.129 210.354c32.893 0 59.559 26.667 59.559 59.561 0 32.893-26.666 59.559-59.559 59.559-32.894 0-59.561-26.666-59.561-59.559 0-32.894 26.667-59.561 59.561-59.561Z" fill="url(#linear-gradient-2-4)"/><path d="M674.71 290.692c-4.741-15.348-3.711-28.864 0-43.09 3.941-.229 7.881-.413 11.821-.572 5.612-.228 9.163 2.084 8.247 11.178a16.853 16.853 0 0 1-4.032 9.92c2.886 1.328 4.445 5.634 4.833 10.629.826 10.286-2.29 13.744-8.796 13.08-4.01-.275-8.018-.801-12.073-1.145Zm5.543-33.263a67.038 67.038 0 0 0-.892 7.353h3.665c1.764 0 3.069-1.283 3.346-3.915.365-3.484-1.239-3.552-3.095-3.53Zm-.937 15.418a70.71 70.71 0 0 0 .891 8.199l3.781.184c2.131 0 3.597-.55 3.276-3.94-.32-3.962-2.291-4.283-5.154-4.375Zm17.982 18.189c.206-14.524 5.314-29.278 11.247-44.167l10.494-.138c2.815 14.867 7.924 29.781 11.269 44.74h-10.309a578.757 578.757 0 0 1-1.558-5.912h-10.743a100.78 100.78 0 0 0-.436 5.842Zm15.416-30.812c-1.374 5.338-2.588 10.653-3.505 16.035h7.033c-1.329-5.313-2.566-10.743-3.528-16.035Zm21.029 31.338c.803-14.865.803-29.76 0-44.624h9.554a169.941 169.941 0 0 1 1.053 34.132l13.951-.183a101.6 101.6 0 0 1-1.902 10.194c-7.422.344-15.05.481-22.656.481Zm25.406-.526a102.836 102.836 0 0 0 .182-43.525c2.453.137 5.408.457 7.858.641a75.24 75.24 0 0 1 1.444 32.186h10.033a67.17 67.17 0 0 1-3.437 9.826c-5.796.458-10.217.504-16.08.872Z" fill="#fff"/><path d="M73.359 234.293c-3.047 0-5.841 0-8.521-.161a139.677 139.677 0 0 0-21.235.527h-.642l-.183.641c-3.826 15.395-6.736 34.683-1.971 71.587v.917h1.696c3.688 0 7.123.206 10.606.206 3.116 0 6.276 0 9.69-.298h.916v-.916c-.183-7.102-.183-14.226-.183-21.213h10.79c10.995-.138 19.218-2.978 24.489-8.453a23.228 23.228 0 0 0 5.954-17.112c-.618-15.508-12.645-25.313-31.406-25.725Zm8.5 24.305a7.543 7.543 0 0 1-2.109 5.452 10.86 10.86 0 0 1-7.697 2.84h-8.682c0-2.726.115-5.68.184-8.567 0-2.291 0-4.353.16-6.391h5.704c3.781-.046 12.44.549 12.44 6.688Zm117.035-26.596a37.412 37.412 0 0 0-34.889 23.137 37.04 37.04 0 0 0-2.954 14.409c.274 22.06 16.034 38.256 37.775 38.507 21.094.002 38.12-17.233 37.865-38.324-.136-20.807-16.991-37.629-37.797-37.729Zm-12.829 37.592c0-8.934 3.322-18.464 12.668-18.51h.458a10.54 10.54 0 0 1 7.514 2.977c3.253 3.184 5.225 9.004 5.225 15.533 0 7.169-1.697 19.219-12.922 19.265-12.027.046-12.943-14.73-12.943-19.219Zm185.324-33.011h-.686c-5.797-.182-6.873-.206-12.944-.342h-4.444v.961a130.57 130.57 0 0 1-3.803 37.455c-1.58-8.866-3.688-16.907-5.887-25.336-1.053-4.101-2.153-8.316-3.254-12.829l-.159-.619h-.64a163.57 163.57 0 0 0-17.067 0h-.665l-.161.619c-1.374 5.68-2.886 10.904-4.33 16.035-2.13 7.4-4.146 14.432-5.612 22.198a130.936 130.936 0 0 1-3.092-37.661v-.938h-17.158l-.183.687c-4.926 18.623-.596 41.004 13.743 70.464l.253.481h.527c4.742 0 7.17.16 9.507.16 2.336 0 4.26 0 8.109-.137h.779v-.779c1.261-12.828 3.826-26.046 6.345-38.944 2.566 12.806 5.154 26.025 6.437 38.944v.825h.825c3.62-.161 6.872-.161 10.125-.161h9.692l.226-.503c12.761-26.345 17.526-51.131 13.449-69.754Zm85.034 52.688v-9.415c9.483 0 19.127 0 28.657-.228h.916v-18.143h-.962a914.74 914.74 0 0 0-28.634-.253v-8.383c7.514 0 14.775 0 22.449.32l11.455.251h1.145l-.184-1.122a82.984 82.984 0 0 0-4.42-15.715l-.208-.549h-.572a179.002 179.002 0 0 0-50.695 0h-.733l-.137.664a154.693 154.693 0 0 0 0 68.586l.16.642h.641a207.51 207.51 0 0 0 27.169 1.946c8.675-.036 17.34-.648 25.933-1.832h.572l.205-.527a57.682 57.682 0 0 0 3.231-16.242v-1.1h-1.123c-11.522.85-23.274 1.1-34.865 1.1Zm170.64 2.52c1.031-12.92-4.055-16.218-10.653-18.784a15.714 15.714 0 0 0 10.194-16.539c-1.305-15.12-11.775-22.702-32.07-23.183h-3.941a109.298 109.298 0 0 0-23.846 1.741h-.551l-.16.526c-7.971 23.687-8.704 49.275-1.97 70.236l.161.55h.572a89.426 89.426 0 0 0 16.037 1.374h4.74v-.985c-.388-8.154-.526-16.517-.641-24.603v-.229h6.3c4.582 0 7.537.825 9.163 2.566 2.062 2.131 2.291 5.818 2.291 10.72a47.374 47.374 0 0 0 .458 11.798l.229.733h.755c2.293-.161 4.582-.229 6.713-.297 4.824-.046 9.643-.368 14.431-.963h.688l.687-3.963-1.305.229c.096-.88.249-1.752.458-2.612a62.955 62.955 0 0 0 1.443-8.247Zm-23.39-32.3a5.324 5.324 0 0 1-.25 1.994 5.148 5.148 0 0 1-1.033 1.718c-1.487 1.511-4.444 2.29-9.163 2.29h-8.383c0-4.054 0-8.248.206-12.76 3.323 0 6.688-.137 9.964-.137 5.361.023 8.567 2.543 8.659 6.895Z"/><path d="M593.3 209.516c33.747 0 61.107 27.36 61.107 61.106s-27.36 61.104-61.107 61.104c-33.745 0-61.103-27.358-61.103-61.104 0-33.746 27.358-61.106 61.103-61.106Z" fill="url(#gradient-4)" stroke="#9c9a9f" paint-order="fill" stroke-dashoffset="6" stroke-width="3"/><path d="M461.365 208.995c33.747 0 61.107 27.36 61.107 61.106s-27.36 61.104-61.107 61.104c-33.745 0-61.103-27.358-61.103-61.104 0-33.746 27.358-61.106 61.103-61.106Z" stroke="#9c9a9f" paint-order="fill" stroke-dashoffset="6" stroke-width="3" fill="url(#gradient-5)"/><path d="M330.65 208.686c33.747 0 61.107 27.36 61.107 61.106s-27.36 61.104-61.107 61.104c-33.745 0-61.103-27.358-61.103-61.104 0-33.746 27.358-61.106 61.103-61.106Z" stroke="#9c9a9f" paint-order="fill" stroke-dashoffset="6" stroke-width="3" fill="url(#gradient-6)"/><path d="M198.316 208.54c33.747 0 61.107 27.36 61.107 61.106s-27.36 61.104-61.107 61.104c-33.745 0-61.103-27.358-61.103-61.104 0-33.746 27.358-61.106 61.103-61.106Z" stroke="#9c9a9f" paint-order="fill" stroke-dashoffset="6" stroke-width="3" fill="url(#gradient-7)"/><path d="M66.673 208.377c33.747 0 61.107 27.36 61.107 61.106s-27.36 61.104-61.107 61.104c-33.745 0-61.103-27.358-61.103-61.104 0-33.746 27.358-61.106 61.103-61.106Z" stroke="#9c9a9f" paint-order="fill" stroke-dashoffset="6" stroke-width="3" fill="url(#gradient-8)"/></svg>