<svg viewBox="0.893 0.001 2532.663 1525.957" xmlns="http://www.w3.org/2000/svg" xmlns:xlink="http://www.w3.org/1999/xlink"><defs><linearGradient id="linear-gradient" x1="1188.76" y1="993.9" x2="1461.36" y2="244.94" gradientUnits="userSpaceOnUse"><stop offset="0" stop-color="#dd5d1b"/><stop offset=".04" stop-color="#e1691c"/><stop offset=".13" stop-color="#ea7f1f"/><stop offset=".24" stop-color="#f19121"/><stop offset=".38" stop-color="#f69d23"/><stop offset=".56" stop-color="#f8a424"/><stop offset="1" stop-color="#f9a624"/></linearGradient><linearGradient id="linear-gradient-2" x1="1182.62" y1="499.1" x2="1425.44" y2="256.29" gradientUnits="userSpaceOnUse"><stop offset="0" stop-color="#ffd033" stop-opacity="0"/><stop offset="1" stop-color="#ffd033"/></linearGradient><linearGradient id="linear-gradient-3" x1="987.26" y1="622.2" x2="1692.49" y2="622.2" gradientUnits="userSpaceOnUse"><stop offset="0" stop-color="#c15911"/><stop offset=".02" stop-color="#c15d10"/><stop offset=".11" stop-color="#c3680d"/><stop offset=".2" stop-color="#c36c0c"/><stop offset=".26" stop-color="#c25f0f"/><stop offset=".32" stop-color="#c15911"/><stop offset=".37" stop-color="#c25f0f"/><stop offset=".5" stop-color="#c3690d"/><stop offset=".67" stop-color="#c36c0c"/><stop offset=".71" stop-color="#be5e0f"/><stop offset=".76" stop-color="#ba5211"/><stop offset=".83" stop-color="#b84b13"/><stop offset="1" stop-color="#b74913"/></linearGradient><linearGradient id="linear-gradient-4" x1="1203.65" y1="217.95" x2="1199.57" y2="194.85" gradientUnits="userSpaceOnUse"><stop offset="0" stop-color="#00c9f1"/><stop offset="1" stop-color="#0076a0"/></linearGradient><linearGradient id="linear-gradient-5" x1="1131.39" y1="523.07" x2="1163.44" y2="516.25" gradientUnits="userSpaceOnUse"><stop offset="0" stop-color="#0076a0"/><stop offset="1" stop-color="#00c9f1"/></linearGradient><linearGradient id="linear-gradient-6" x1="1497.56" y1="772.97" x2="1491.65" y2="739.46" xlink:href="#linear-gradient-5"/><linearGradient id="linear-gradient-7" x1="1748.81" y1="592.93" x2="1770.1" y2="588.41" xlink:href="#linear-gradient-4"/><linearGradient id="linear-gradient-8" x1="1355.42" y1="358.62" x2="1373.82" y2="354.71" xlink:href="#linear-gradient-4"/><linearGradient id="linear-gradient-9" x1="1569.81" y1="511.48" x2="1566.5" y2="492.72" xlink:href="#linear-gradient-4"/><linearGradient id="linear-gradient-10" x1="1268.54" y1="536.33" x2="1212.71" y2="219.72" gradientUnits="userSpaceOnUse"><stop offset=".28" stop-color="#7fd9f8"/><stop offset=".33" stop-color="#73d7f8"/><stop offset=".55" stop-color="#42d0f7"/><stop offset=".74" stop-color="#1ecaf6"/><stop offset=".9" stop-color="#08c7f5"/><stop offset="1" stop-color="#00c6f5"/></linearGradient><linearGradient id="linear-gradient-11" x1="1563.16" y1="548.45" x2="1558.9" y2="524.29" gradientUnits="userSpaceOnUse"><stop offset="0" stop-color="#0accf6"/><stop offset="1" stop-color="#7fd9f8"/></linearGradient><linearGradient id="linear-gradient-12" x1="1211.64" y1="244.16" x2="1207.69" y2="221.74" gradientUnits="userSpaceOnUse"><stop offset="0" stop-color="#23cef6"/><stop offset=".2" stop-color="#48d4f7"/><stop offset=".44" stop-color="#6edbf8"/><stop offset=".66" stop-color="#89dff9"/><stop offset=".85" stop-color="#99e2fa"/><stop offset="1" stop-color="#9fe3fa"/></linearGradient><radialGradient id="radial-gradient" cx="1325.06" cy="619.42" r="593.92" gradientUnits="userSpaceOnUse"><stop offset=".65" stop-color="#fef100"/><stop offset="1" stop-color="#ffd600"/></radialGradient><radialGradient id="radial-gradient-2" cx="1325.06" cy="619.42" r="593.92" gradientUnits="userSpaceOnUse"><stop offset=".66" stop-color="#ab8b00"/><stop offset=".75" stop-color="#dcad09" stop-opacity="0"/></radialGradient><radialGradient id="radial-gradient-3" cx="1325.06" cy="619.42" r="398.41" gradientUnits="userSpaceOnUse"><stop offset="0" stop-color="#ffca09"/><stop offset="1" stop-color="#ffca09" stop-opacity="0"/></radialGradient><style>.cls-21{fill:#01bcf1}</style></defs><path d="M1938.48 499.84a25.06 25.06 0 0 0-24.91-9.39c-79-15-123.63-35-132.58-59.41-8.7-23.69 10.73-64.55 59.37-124.78a25 25 0 0 0 8.87-12.33l.67-2c5.993-18.329-10.103-36.271-28.973-32.297a25.047 25.047 0 0 0-9.367 4.107c-78.32 18.41-127.18 18.3-145.28-.34-17.59-18.11-16.46-63.34 3.49-138.15a24.995 24.995 0 0 0 3.08-14.85l-.21-2.11c-1.985-19.189-23.998-29.033-39.624-17.719a25.056 25.056 0 0 0-6.866 7.529c-64.06 48.68-108.73 68.46-132.86 58.78-23.43-9.39-40.8-51.17-53-127.62a25.004 25.004 0 0 0-3.21-14.81l-1.08-1.87c-9.6-16.724-33.704-16.784-43.388-.108a25.058 25.058 0 0 0-3.222 9.708c-38.73 70.53-71.5 106.77-97.47 107.74-25.25.84-58.08-30.15-100.32-95a25.056 25.056 0 0 0-9-12.25l-1.72-1.25c-15.592-11.36-37.634-1.582-39.677 17.601a25.066 25.066 0 0 0 1.007 10.149c-6.69 80.17-21.89 126.6-45.21 138.06-22.67 11.13-65.33-3.93-130.31-46a25.122 25.122 0 0 0-13.18-7.53l-2.08-.44c-18.862-4.012-34.993 13.899-29.037 32.239a25.05 25.05 0 0 0 5.037 8.831c26.5 76 31.5 124.57 14.85 144.52-16.17 19.38-61.28 23-137.75 11a25 25 0 0 0-15.09-1.52l-2.09.43c-18.861 4.052-26.263 27.001-13.324 41.31a25.064 25.064 0 0 0 8.054 5.93c55.1 58.62 79.44 101 72.34 126-6.89 24.29-46.62 45.92-121.39 66a25.11 25.11 0 0 0-14.38 4.74l-1.72 1.26c-15.673 11.168-13.38 35.114 4.129 43.104a25.004 25.004 0 0 0 10.281 2.256c74.18 31.14 113.65 60 117.34 85.67 3.58 25-23.92 60.91-84 109.71A25.098 25.098 0 0 0 753.42 825l-1.07 1.84c-9.655 16.701 2.391 37.591 21.682 37.602 3.429.002 6.821-.7 9.968-2.062 80.41-1.74 128.2 8.53 142 30.53 13.44 21.37 2.93 65.37-32.13 134.4-14.043 13.925-7.746 37.829 11.335 43.029a25.692 25.692 0 0 0 25.665-7.399c72.77-34.29 120.59-44.36 142.17-29.88 21 14.06 29.27 58.54 25.31 135.86a25 25 0 0 0 .07 15.15l.65 2c5.786 18.355 29.272 23.563 42.274 9.374a24.981 24.981 0 0 0 5.316-9.074c52.54-60.94 92.13-89.59 117.74-85.12 24.87 4.31 299.559-364.23 518.29-94.15a24.995 24.995 0 0 0 14.42 4.62h2.2c19.291-.007 31.34-20.895 21.688-37.598a25.042 25.042 0 0 0-6.758-7.582c-41.71-68.79-56.71-115.3-44.57-138.27 11.79-22.32 55.16-35.22 132.46-39.38a25.126 25.126 0 0 0 15.07-1.64l1.94-.86c17.643-7.784 20.242-31.748 4.68-43.135a25.05 25.05 0 0 0-9.35-4.235c-66.09-45.88-98.71-82.26-97-108.19 1.69-25.19 36.05-54.61 105-89.85a24.999 24.999 0 0 0 13.12-7.65l1.43-1.58c8.081-8.908 8.694-22.301 1.46-31.91Zm-21.37 16.74-1.21-.23c-157.72 79.45-167.74 139.47-9.76 247.32 1 0 1.95-.11 3-.15l-1.95.86-1-.71c-176.4 8.44-210 59.19-109.51 222 .93.36 1.82.68 2.76 1.05h-2.13c-.22-.36-.41-.7-.63-1.05-273.432-148.105-549.79 43.92-673.62 189.77-.06 1-.09 1.94-.15 3l-.66-2 .81-.93c10.05-176.32-36.91-215-209.31-132.12-.46.89-.88 1.74-1.34 2.64l.22-2.11c.38-.19.74-.35 1.12-.53 80.9-157 53.73-211.43-137.48-205.83-.78.63-1.51 1.24-2.3 1.87l1.07-1.84h1.23C914.08 727 911.4 666.22 734.45 593.57c-1 .26-1.88.52-2.86.77l1.72-1.24 1.14.47c170.79-44.92 193.08-101.54 61-239.89-1-.16-1.93-.29-2.93-.46l2.09-.44c.29.31.55.6.84.9 174.3 28.43 217.69-14.23 153.27-194.35-.84-.55-1.64-1.05-2.48-1.61l2.07.45c.15.39.27.76.41 1.16 147.67 96.86 204.66 75.54 219.07-115.21-.54-.85-1.07-1.63-1.61-2.48l1.71 1.25c0 .42-.07.81-.1 1.23 95.51 148.55 156.24 152.25 247-16.15-.15-1-.31-1.92-.46-2.92l1 1.85c-.19.37-.39.7-.59 1.07 26.83 174.56 80.81 202.64 232.21 85.72.26-1 .49-1.89.76-2.86l.22 2.11-1 .75c-46.49 170.37-8.6 218 177.26 172.74.64-.77 1.22-1.52 1.86-2.3l-.66 2-1.2.28c-111.77 136.74-96.51 195.64 91.68 229.92.9-.45 1.73-.9 2.64-1.35l-1.4 1.6Z" fill="#fff"/><path d="M912.46 1046c82.77-159.4 56.07-214.35-137.37-208.44l-1.09 1.83c140.45-111.95 138.41-173-40.71-246.29l-1.72 1.24c173.84-45.15 196.82-101.76 63-241.56l-2.08.44c177.18 29.46 221.19-12.91 155.79-195.05l-2.07-.45c149.87 99 207.31 78.17 221.65-114.83l-1.71-1.25c96.65 151.36 157.6 155.74 249.19-14.74l-1-1.85c26.72 177.61 80.63 206.38 233.65 87.89l-.22-2.11c-47.82 173.12-10.28 221.32 177.7 175.32l.66-2c-114.1 138.71-99.41 198 91 232.45l1.43-1.58c-160.66 80.3-171.36 140.46-11.39 249.38l1.95-.86c-179.43 8-213.68 58.61-111.84 223.18h2.13c-164.212-105.229-410.182-54.29-431.69 225.51l1.42 1.58c-63.07-168.17-121.77-185.1-246.82-37.39l.66 2c10.78-179.28-36-218.63-210.28-134.54" fill="url(#radial-gradient)"/><path d="M912.46 1046c82.77-159.4 56.07-214.35-137.37-208.44l-1.09 1.83c140.45-111.95 138.41-173-40.71-246.29l-1.72 1.24c173.84-45.15 196.82-101.76 63-241.56l-2.08.44c177.18 29.46 221.19-12.91 155.79-195.05l-2.07-.45c149.87 99 207.31 78.17 221.65-114.83l-1.71-1.25c96.65 151.36 157.6 155.74 249.19-14.74l-1-1.85c26.72 177.61 80.63 206.38 233.65 87.89l-.22-2.11c-47.82 173.12-10.28 221.32 177.7 175.32l.66-2c-114.1 138.71-99.41 198 91 232.45l1.43-1.58c-160.66 80.3-171.36 140.46-11.39 249.38l1.95-.86c-179.43 8-213.68 58.61-111.84 223.18h2.13c-220.611-173.502-414.14-81.995-431.69 225.51l1.42 1.58c-63.07-168.17-121.77-185.1-246.82-37.39l.66 2c10.78-179.28-36-218.63-210.28-134.54" fill="url(#radial-gradient-2)"/><circle cx="1325.06" cy="619.42" r="398.41" fill="url(#linear-gradient)"/><circle cx="1325.06" cy="619.42" r="398.41" fill="url(#radial-gradient-3)"/><ellipse cx="1304.03" cy="377.69" rx="215.76" ry="111.27" fill="url(#linear-gradient-2)"/><path d="m1175.48 867.73-116.56-544.91a400.867 400.867 0 0 0-71.66 85c83.85 108.64 154.8 277.3 157 513.71 0 0 228.43-121.65 503.7-69.21a398.724 398.724 0 0 0 44.58-79.3Z" fill="url(#linear-gradient-3)"/><path fill="#0077a3" d="m1046.2 263.24 21.71-43.43 265.07-48.4 76.9 350.56 332.46-60.16 54.73 251.04-21.26 45.23L1175.57 868 1046.2 263.24Z"/><path fill="url(#linear-gradient-4)" d="m1322.19 196.54 10.28-25.13-265.52 48.49 34.09 16.15 221.15-39.51Z"/><path fill="url(#linear-gradient-5)" d="m1101.04 236.05-34.09-16.15 130.28 606.03 24.41-35.87-120.6-554.01Z"/><path fill="url(#linear-gradient-6)" d="m1770.61 690.27-548.97 99.79-24.41 35.87 599.84-110.65-26.46-25.01Z"/><path fill="url(#linear-gradient-7)" d="m1741.83 461.81-16.23 21.93 45.01 206.53 26.46 25.01-55.24-253.47Z"/><path fill="url(#linear-gradient-8)" d="m1332.47 171.41-10.28 25.13 72.29 345.86 14.89-20.43-76.9-350.56Z"/><path fill="url(#linear-gradient-9)" d="m1409.37 521.97-14.89 20.43.92-.16 330.2-58.5 16.23-21.93-332.46 60.16Z"/><path fill="#00bcf2" d="m1221.64 790.06 548.97-99.79-45.01-206.53-331.12 58.66-72.29-345.86-221.15 39.51 120.6 554.01Z"/><path d="m1365.78 460.21-55.94-257.61-204.23 37.31 69.56 312.88c30.77-35.79 97.74-97.41 190.61-92.58Z" fill="url(#linear-gradient-10)"/><path d="m1723.83 497.23-.36-2-329 58.94c10.2 25.73 313.16-19.43 329.36-56.94Z" fill="url(#linear-gradient-11)"/><path d="m1227.59 783 531.93-95.67c-6.33-29.21-540.52 49.94-531.93 95.67Z" fill="#59d0f6"/><path d="m1309.84 203.73-204.23 37.32c2.44 28.32 216.58-8.35 204.23-37.32Z" fill="url(#linear-gradient-12)"/><path d="m1388.817 927.382 4.045-17.942h75.691l.489 1.371a554.215 554.215 0 0 1 19.932-5.48c37.862-9.403 78.52-14.176 118.311-11.427 58.602 4.9 114.557 27.25 159.258 67.458 17.409 16.21 33.637 35.732 46.395 55.805 1.06 1.765 1.99 3.457 2.856 5.08l1.894-8.547h47.866c3.341-14.366 5.274-22.683 9.955-42.786l3.209-13.78 135.535-33.03-5.979 34.512c-5.082 29.342-7.837 36.96-12.044 54.364h79.34l-.148.37h14.645c3.273-14.071 5.108-22.054 9.778-42.364l3.183-13.843 138.491-33.64-8.468 36.381c-6.55 28.139-8.329 35.792-12.403 53.246h78.993l-7.363 18.483c1.05-.644 2.104-1.271 3.162-1.882 21.879-12.63 49.351-20.416 76.941-22.541 20.682-1.272 43.365.333 64.085 5.876 24.524 7.313 47.655 20.799 62.827 37.619 15.183 16.833 26.11 40.964 31.104 65.368 6.896 39.271 2.393 80.204-12.459 112.529-12.741 27.732-35.02 53.336-61.845 72.346 7.629 1.858 15.209 4.436 22.557 7.832l15.792 7.301-3.649 17.831c-2.102 10.268-4.16 20.29-6.307 30.815l-5.337 26.164-24.898-9.088-.197-.072c5.841 4.749 12.256 10.989 17.625 18.64 6.865 13.431 11 34.221 7.637 50.438-1.678 8.09-5.823 18.331-10.933 25.797-4.994 7.298-13.717 15.401-22.251 20.935-14.954 8.703-32.77 14.632-48.391 15.928-15.601 1.294-33.34-1.283-48.731-5.833-7.298-2.337-13.71-5.19-20.064-7.627l-7.952-3.05a84.21 84.21 0 0 1-3.646 2.242c-15.966 8.149-34.915 14.022-51.998 14.937-17.094.916-37.021-3.126-54.203-10.563a74.88 74.88 0 0 1-5.436-3.062l-.563 10.507H2059.04l14.199-64.537c-7.358 2.85-14.61 4.833-20.836 5.992-10.408 1.754-8.593 1.253-12.717 1.681-2.883 12.94-4.554 20.441-8.667 38.889l-4.012 17.995h-86.563l6.084-27.901c11.994-54.999 23.87-109.499 35.863-164.485a280.453 280.453 0 0 1-9.422 3.093c-24.264 7.196-50.632 10.122-75.319 9.493-12.006-.566-25.36-3.36-35.188-7.733-10.058-4.476-20.855-12.49-27.709-20.535-6.868-8.06-13.083-20.085-15.773-30.788a68.988 68.988 0 0 1-1.399-7.342 218.264 218.264 0 0 1-15.121 17.155c-18.058 17.632-40.167 31.728-61.997 39.432-21.809 7.697-47.33 10.721-71.651 9.798-26.029-1.422-52.301-7.948-72.857-19.967l-24.913-32.201-5.709 31.789-3.688 15.052h-259.744l6.146-27.941 35.228-160.146-2.704 5.024-17.179-4.177c-12.007-2.92-20.39-5.945-27.859-6.533-4.52-1.184-4.581-.539-7.988 1.354-3.48 1.933-5.172 3.419-8.398 8.479-8.198 11.48-12.693 22.924-16.044 37.235-8.947 36.924-17.18 74.194-25.772 111.56-1.348 5.787-2.753 11.55-4.17 17.486l-4.215 17.659h-132.882l4.017-18.094c-.584.266-1.171.53-1.761.793-35.44 15.647-76.421 23.793-115.146 22.89-33.052-1.842-66.656-15.821-88.041-36.834-10.767-10.58-20.802-25.015-27.051-39.153-1.683-3.807-3.203-7.881-4.544-12.127a173.286 173.286 0 0 1-3.72 5.947c-17.019 24.849-39.247 46.542-63.434 60.079-24.184 13.534-54.629 21.164-85.488 21.986-20.298.231-25.894-.862-39.478-3.506-10.004 46.016-14.719 67.422-24.618 112.746l-3.951 18.093H508.61l6.276-28.026 25.138-112.268-75.362 16.709-7.376-15.81a117.359 117.359 0 0 1-4.252-10.417l9.958-8.591c-.491.399-.986.797-1.484 1.194a154.053 154.053 0 0 1-8.843 6.343c-1.679-4.868-3.002-9.642-4.108-14.246l3.071 14.931c-12.505 8.184-26.382 14.744-39.662 18.366-16.907 4.61-36.906 5.611-55.181 3.468-15.61-2.415-32.484-9.042-43.558-18.337-11.049-9.274-20.548-24.658-25.821-39.587a126.827 126.827 0 0 1-1.006-3.524c-14.482 17.414-34.477 31.965-55.024 42.2-41.83 19.375-88.016 22.945-130.692 18.273-28.268-3.497-55.759-12.391-80.436-24.259-.826-.371.15.01-.74-.126l-18.089-2.754-.526-29.536 3.046-5.432c9.88-17.621 19.775-35.266 29.663-52.894 1.659-2.948 3.314-5.8 4.97-8.704l10.29-18.041 18.971 8.395c11.998 5.309 22.132 10.473 32.208 14.119 21.895 8.529 39.751 10.534 60.798 2.898 4.023-1.286 6.578-2.715 10.028-5.491 3.839-1.805 3.045-1.972 3.861-5.597.823-3.656 1.481-3.791-1.156-7.386-2.931-6.967-6.644-10.172-13.999-14.71a3381.439 3381.439 0 0 0-53.357-34.182c-19.909-13.04-36.476-31.463-44.576-50.229-8.094-18.751-10.328-42.574-8.091-64.503 4.005-29.959 16.267-57.894 33.675-76.775 17.394-18.866 43.172-33.466 69.842-41.486 52.75-15.865 109.485-9.4 159.57 10.634 4.06 1.856 7.191 3.668 9.801 4.994l15.6 7.922-3.772 17.351a34506.577 34506.577 0 0 0-15.14 70.063l-1.306 6.071 3.697-16.05h135.149l-6.422 28.121c-3.836 16.794-7.55 32.898-11.179 48.949-8.508 37.668-17.051 74.854-25.169 112.421-1.084 4.75-1.275 8.28-.74 12.977 3.602.301 4.104-.195 7.078-1.744 3.009-1.567 4.434-2.597 7.348-6.115 11.123-11.317 14.829-24.901 19.005-43.081 10.255-44.164 20.256-88.414 30.531-133.4l4.084-17.878H620.04l-1.541 6.772 2.278-.457c12.819-2.572 27.146-6.207 42.318-8.321 18.242-2.445 37.885-4.815 57.361-5.201 33.442-.453 70.99 4.605 103.993 22.915 15.208 9.259 29.775 22.166 39.393 35.796 6.85 9.707 12.485 21.63 16.438 33.935 12.345-21.957 28.251-41.859 46.478-56.3 21.743-17.228 50.855-29.482 81.614-34.522 21.387-3.056 45.653-2.439 67.507 2.743 23.55 6.382 46.076 19.166 59.849 35.529 6.547 7.779 11.964 17.361 16.101 27.879l9.567-43.102 3.999-18.016h104.118l-4.329-5.835 14.554-8.863c34.107-20.771 69.263-40.181 105.782-56.706 1.273-5.735 2.237-10.083 3.297-14.784Zm789.943 466.295c5.424-23.685 10.568-47.481 15.895-71.691-2.541.715-5.093 1.39-7.656 2.026l-.666 3.027c-9.78 44.481-15.45 70.258-23.244 105.691h9.324c.769-14.535 3.849-27.995 6.347-39.053Zm-135.526-121.608c-2.596-10.521-2.843-24.417-1.033-36.569 4.747-27.891 11.575-55.154 17.396-81.63 2.472-11.239 4.998-22.207 7.505-33.1h-48.556l.019-.09h-44.12c-2.397 11.075-3.47 16.098-7.169 32.925-4.438 20.293-8.988 40.41-13.313 60.514 5.947-1.048 12.509-3.412 20.668-5.727 2.32-.363 5.372-2.221 11.774-4.916l22.629-9.527 7.923 23.42c3.151 9.316 6.216 18.226 9.197 27.232 2.973 8.978 5.901 18.095 8.968 27.525l5.645 17.356-14.864 8.984c9.533-.094 19.386-.147 29.361.288l.434.023c-5.524-7.749-10.239-17.69-12.464-26.708Zm209.515 24.666-2.797 1.741c-.288.18-.598.375-.928.584h6.554c-.959-.765-1.903-1.54-2.829-2.325Zm-53.884-176.255c-1.715 7.801-2.121 9.628-5.098 23.223-5.075 23.165-10.307 47.043-15.378 70.295 3.703-.449 7.325-1.207 11.316-2.334 5.162-1.11 10.74-3.815 18.961-7.082-1.908-18.008-1.596-36.455 1.455-53.33 1.831-10.129 4.842-20.529 8.846-30.772h-20.102Zm-712.062-20.86 45.979 60.395m-7.916 53.431c1.954-16.223 13.71-85.189 19.552-99.227 8.419-20.234 22.113-39.775 39.39-56.906l.64-12.576c.475-9.328 1.271-17.683 1.192-25.335.41-8.305-.958-13.737-5.234-20.847-2.829-6.226-5.427-8.047-10.928-11.356-5.53-3.326-10.628-5.06-18.8-6.656-12.405-2.771-24.265-3.019-37.196-1.963-9.628 43.691-42.992 192.664-51.416 230.871m125.903 1.096-4.018 18.303 17.667 27.764-1.143-.005c4.804 5.22 10.254 9.577 16.566 13.617 15.209 9.733 31.159 14.286 53.827 15.027 20.449 1.077 37.108-1.159 54.286-7.222 17.158-6.056 30.841-14.218 44.783-28.584 20.831-20.26 31.727-39.853 37.587-63.597 5.863-23.761 5.251-46.735-2.662-74.789-.428-1.582-.879-3.196-1.392-5.042-1.245-2.103-2.51-4.088-3.979-6.761-5.31-11.003-11.044-17.96-19.494-25.1-8.45-7.139-16.463-11.699-28.236-15.344-17.958-6.245-34.981-7.089-55.165-5.487-25.163 1.554-44.819 7.377-63.83 22.238-23.183 16.691-36.639 34.12-45.879 56.326-9.245 22.218-12.118 44.561-8.705 72.952.206 2.018.444 3.877.709 5.66l9.078.044Zm-125.5-.609 63.349.308m-155.311-196.254a1073.882 1073.882 0 0 0-8.273 3.141 106.894 106.894 0 0 1 6.829 3.425l1.444-6.566Zm372.47-30.422 6.704 12.555c20.001 4.54-6.704-12.555-6.704-12.555Zm-9.882 9.484c-36.971-34.249-78.391-49.985-129.238-53.278a275.527 275.527 0 0 0-30.629-.761c6.955 2.238 13.95 5.15 19.961 8.766 9.977 6.001 20.589 17.006 27.576 28.705 4.225 8.264 7.488 18.319 9.3 28.241 0 0-11.565 8.369.538 3.227.603 3.996.959 7.935 1.036 11.691-.002.673-.007 1.344-.016 2.012l.7-14.425c22.418-9.321 45.499-14.948 67.858-15.911 10.713-.461 21.74.137 32.914 1.733Zm397.604 48.561-4.17 17.735h-47.559l-3.353 15.42h42.925l-.565 23.367a91.609 91.609 0 0 1-.77 9.518c-4.12 18.298-8.726 38.089-12.684 56.095-5.979 27.144-12.589 53.288-16.962 79.397-1.505 7.548-1.126 11.985.333 17.902 1.392 5.64 2.645 8.076 6.126 12.15 3.497 4.093 5.914 5.868 11.471 8.307 5.808 2.55 10.511 3.791 18.382 3.835 31.295 1.342 58.41-4.315 85.882-17.21l-4.405-13.09c-.822.232-2.153.604-4.224 1.181-9.494 2.447-20.483 4.009-30.343 4.284-4.523-.177-11.4-1.155-15.389-2.71-4.246-1.656-10.088-5.567-13.145-8.736-5.815-6.031-9.946-17.955-11.021-26.3.007-4.502.657-11.523 1.67-15.913 5.362-24.599 10.547-48.396 15.935-72.99 2.983-13.625 5.984-27.238 9.072-41.307l3.965-18.07h63.822c2.666-6.688 2.144-5.384 6.112-15.35h-69.166l6.619-28.247c6.345-27.082 7.01-29.977 10.521-45.045l-38.287 9.3c-3.57 15.506-6.019 26.181-10.792 46.477Zm-725.429 214.047 6.141-27.819a688351.972 688351.972 0 0 0 51.748-234.655c-13.56 2.815-13.657 2.508-43.624 12.033-21.83 99.258-39.25 178.441-60.416 274.659h166.471c.308-1.303-.637 2.995.893-3.892 3.542-15.749 2.93-13.143 4.373-19.717l-125.586-.609Zm-132.71-234.847c.509-.363 1.021-.72 1.534-1.071l-1.534-2.068v3.139Zm-79.933 259.065c8.508-37.014 16.754-74.312 25.77-111.535 4.389-17.529 12.265-36.564 22.799-52.399 2.473-3.483 5.51-7.165 8.879-10.638l-23.515-6.546v-39.192h-24.255c-17.817 80.265-31.202 140.545-48.909 220.31h39.231Zm81.774-190.424c8.214-2.504 17.951-3.603 26.569-3.025 12.123 1.639 10.897 1.896 16.026 3.145 6.639-12.311 11.947-22.139 18.988-35.179-3.746-.956-8.017-1.127-13.965-1.416-8.095-.775-12.239.048-18.047 2.483-5.776 2.42-8.875 4.396-13.392 10.606-5.032 6.157-9.511 13.735-15.306 22.147-.292.419-.584.832-.873 1.239Zm-983.983-50.042c-6.819-3.391-12.138-6.286-17.29-8.567-24.278-11.18-45.059-16.422-69.685-11.158-5.078.82-6.84 1.411-9.36 2.974-2.442 1.514-2.153.08-2.481 3.034-1.972 3.917-1.603 4.07-1.029 6.994.571 2.909.242 3.124 3.505 5.917 5.185 5.427 10.069 9.436 16.438 13.501 17.172 11.292 35.797 21.905 54.163 34.108 14.443 10.032 27.758 23.973 35.641 38.082l.005.01c3.064-13.751 6.143-27.463 9.162-41.131 2.292-10.221 4.658-20.408 7.069-30.768l-26.138-12.996ZM68.216 1246.696l-13.272 23.666c16.502 6.754 33.37 11.459 51.001 13.318 38.632 4.565 72.109 3.16 105.319-13.945 20.358-9.61 33.947-20.583 44.457-36.532 10.548-16.005 15.529-31.809 13.015-56.124-.721-12.473-3.319-20.939-8.573-30.343-5.25-9.396-10.704-15.745-21.042-22.273-16.986-11.35-35.429-21.844-53.837-33.892-8.427-5.575-17.176-12.785-24.269-19.982-6.921-7.793-13.689-19.404-15.58-29.035-1.889-9.616-.085-22.797 3.342-32.65 4.792-10.106 13.342-20.546 21.062-25.334 7.643-4.74 17.935-7.746 25.585-9.177 30.642-4.625 61.781.711 88.821 11.281 0 0-2.009 9.341.006.003 2.619 1.024 5.2 2.097 7.738 3.215.226.102.45.205.675.308l-8.288-4.102c1.674-7.759 3.339-15.462 5-23.128-40.159-15.076-78.092-17.556-119.062-5.235-21.81 6.56-36.652 14.93-49.27 28.617-12.605 13.671-19.748 27.87-21.793 50.821-2.212 16.929-.747 28.609 4.622 41.045 5.362 12.422 12.02 20.874 26.711 29.444a3476.95 3476.95 0 0 1 54.163 34.698c10.945 7.442 22.551 19.415 29.76 32.228 5.002 11.313 7.617 27.287 5.097 38.474-2.526 11.217-11.909 24.588-21.621 32.643-6.434 4.634-14.853 9.131-22.356 11.888-30.127 8.739-63.623 6.572-91.528-3.298-5.473-2.057-10.753-4.31-15.883-6.599Zm1782.958-171.426h43.953l-1.282 24.083c-.168 3.148-.568 6.94-1.058 10.047-4.136 17.991-8.737 37.113-12.687 54.768-6 27.084-12.561 53.196-16.906 79.31-1.47 7.335-1.071 11.624.399 17.475 1.407 5.599 2.687 8.074 6.174 12.167 3.501 4.109 5.919 5.902 11.397 8.34 5.709 2.54 10.211 3.766 17.845 3.78 21.551.75 40.523-1.183 60.518-7.505 15.326-4.659 12.675-1.16 25.952-9.556-1.002-3.074-.086-.338-2.993-9.12-.437-1.319-.877-2.639-1.319-3.961l6.845-2.734c-.37.123-.745.245-1.123.364-1.875.525-3.863 1.099-5.948 1.694-2.423-7.231-.009.003-.009.003-8.026 2.288-17.502 4.875-27.551 6.043-6.213.369-14.412-.194-19.777-1.907-5.975-1.908-14.021-7.247-17.928-12.012-3.855-4.704-7.447-13.295-8.328-19.314-.795-5.432-.252-13.233.869-19.176 4.61-21.556 9.463-42.977 14.124-64.293 3.68-16.743 7.307-33.582 11.07-50.955l3.927-18.131h63.92c2.739-6.826 2.247-5.604 6.296-15.7h-68.243l5.614-27.552c5.818-28.554 7.108-30.935 10.651-45.678l-38.473 9.376c-3.599 15.464-6.101 26.223-10.881 46.782l-4.136 17.792h-47.47l-3.442 15.57Zm-87.083 133.573c-7.733 18.079-22.808 36.521-41.713 47.367-10.396 4.976-23.284 8.581-33.494 8.969-10.491.4-23.419-2.249-32.487-6.573-9.09-4.335-19.338-12.798-25.526-21.297-6.021-8.27-11.068-20.836-13.381-32.223-2.994-18.126-2.936-38.376 1.178-55.543 4.116-17.171 13.549-35.616 25.482-50.587 7.951-8.99 19.511-17.555 29.575-21.517 10.153-3.997 23.714-5.815 34.209-4.872 10.52.947 23.526 5.184 32.667 10.927 9.097 5.716 18.776 16.399 24.689 26.665 5.676 12.053 8.607 27.161 8.459 46.136.275 17.455-3.293 36.327-9.658 52.548Zm-36.33-51.898c.521-14.819.162-20.183-3.222-25.45-2.085-4.961-3.971-6.261-8.41-9.05-4.395-2.761-6.907-3.576-12.315-4.062-5.434-.489-8.213-.12-13.238 1.859-5.115 2.013-7.569 3.21-10.903 7.939-9.064 10.528-13.342 19.862-16.272 32.084-2.93 12.225-3.257 22.985-.611 36.829.817 6.353 2.279 9.032 5.269 13.139 2.823 3.877 4.089 4.922 8.139 6.853 4.072 1.942 5.91 2.318 10.935 2.127 5.307-.202 8.682-.803 14.424-4.021 11.094-4.374 15.27-10.912 19.866-23.533 5.04-11.623 6.972-22.061 6.337-34.714h.001Zm-1090.382 110.98 24.811 9.922c16.461 6.583 30.591 7.895 47.973 7.526 25.41-.078 44.627-5.428 63.756-16.134 19.125-10.703 33.861-24.509 47.723-45.6 10.842-15.582 16.006-30.077 18.837-47.568 2.835-17.508 2.311-33.973-1.446-53.105-2.172-12.766-6.053-21.494-12.775-31.02-6.732-9.54-13.754-16.222-25.205-22.713-23.817-15.25-49.289-17.113-79.847-16.526-17.023.214-33.983 2.384-52.001 4.799-12.468 1.586-16.138 2.773-24.647 4.653-28.142 125.584-51.316 229.099-78.508 350.541h39.762c8.574-39.24 15.796-72.232 25.793-118.216l5.774-26.559Zm161.059-121.923c1.328 17.698-.877 37.143-6.822 52.693-5.942 15.541-17.326 31.581-30.302 43.963-13.057 11.249-31.819 20.281-48.289 22.503-16.393 2.211-36.916-1.302-52.957-8.43l-16.473-7.321 36.873-170.356 13.612-3.305c11.743-2.852 25.481-3.929 36.297-2.492 11.045 1.467 23.819 6.096 32.824 11.909 9.042 5.836 18.622 15.756 24.269 25.444 5.522 9.472 9.583 23.054 10.968 35.392Zm-50.708-12.225c-2.891-4.959-4.83-6.964-9.476-9.963-4.682-3.022-7.765-4.138-13.933-4.957-6.397-.85-3.581-.504-5.28-.57l-22.055 101.895c3.095.114-.218.756 9.889-.608 10.03-1.353 16.377-3.551 23.21-10.691 9.653-8.548 14.561-16.145 18.564-26.615 4-10.463 5.394-19.4 3.974-32.139-.381-7.38-1.878-11.179-4.893-16.352Zm-393.349-40.571c-8.553 38.708-17.408 76.99-25.054 115.416-3.828 18.094-4.195 32.989 1.807 49.529 2.737 9.601 5.818 13.722 11.666 18.631 5.824 4.887 10.164 7.12 19.834 7.945 13.973 1.997 24.872 1.148 37.23-2.222 12.365-3.371 22.131-8.112 33.085-17.074 3.708-2.905 7.376-6.129 11.36-9.653-7.391 3.545-17.835 5.91-26.69 6.35-10.215-.403-23.914-4.048-31.354-10.429-3.868-3.317-8.456-9.474-10.616-14.201-2.017-4.415-3.576-11.1-4.192-16.243-.724-8.528-.224-18.754 1.348-27.196 8.182-37.853 16.899-75.865 25.39-113.457 3.651-16.148 3.162-13.924 4.765-20.932h-40.865c-2.656 11.411-3.967 16.818-7.714 33.536Zm115.999 139.912 11.078-9.589 7.632 38.802c3.085 15.687 2.291 13.871 3.36 19.506l29.012-6.433c-1.337-20.295 1.12-40.728 5.08-58.695 10.938-48.942 22.395-97.705 33.582-146.39 2.882-12.545 1.578-6.916 2.362-10.399h-40.603c-8.852 38.834-16.204 71.386-26.489 115.682-4.334 18.406-11.99 39.482-25.014 57.516Zm1948.983 36.887c27.464-15.101 44.867-34.706 56.776-60.627 11.936-25.98 15.728-52.571 9.064-84.75-3.226-18.936-9.379-31.281-20.068-43.133-10.701-11.865-22.23-19.273-41.096-24.14-15.978-4.735-30.907-5.534-48.606-4.266-22.647 1.245-39.812 6.56-56.993 16.48-17.173 9.914-30.327 22.139-42.762 40.876-11.291 16.105-17.062 31.126-20.291 48.99-3.23 17.867-2.977 34.478 1.01 53.883 3.36 18.968 9.697 31.207 20.54 43.025 10.852 11.827 22.596 19.255 41.334 24.337 11.132 3.541 22.997 4.056 37.316 6.205 24.309-.861 43.547-4.663 63.776-16.88Zm9.277-39.04c-8.93 11.536-21.709 22.415-34.01 27.586-12.305 5.173-28.92 6.701-43.25 5.126-14.144-2.642-30.664-10.753-39.981-21.245-9.068-10.213-15.951-27.301-18.143-42.964-1.603-16.395-.978-34.685 2.825-50.54 3.804-15.86 12.058-33.151 22.635-47.421 6.742-8.245 16.605-16.564 25.384-20.991 8.832-4.455 20.786-7.557 30.394-8.074 9.633-.519 21.865 1.313 31.011 4.841 9.127 3.52 19.716 10.988 27.028 18.604 10.043 12.634 16.42 29.72 17.975 43.665.424 6.412.13 12.178.162 15.912-.314 24.24-6.399 52.273-22.03 75.501Zm-23.969-75.72c.034-5.378.417-8.917.022-11.576-.449-8.671-1.069-12.51-6.446-17.116-2.893-3.789-4.808-4.621-9.296-6.352-4.47-1.724-6.965-2.096-11.985-1.826-5.045.272-7.668.951-12.151 3.212-4.537 2.289-6.728 3.621-9.591 7.905-7.932 9.88-11.649 18.645-14.412 30.165-2.765 11.525-3.306 21.93-1.81 34.984.409 8.906 2.467 12.375 6.794 17.247 4.078 4.593 5.406 6.106 11.682 6.195 8.729 1.514 13.022.713 19.325-1.937 6.306-2.651 9.832-5.083 14.771-12.423 11.527-13.692 13.147-28.223 13.097-48.478Zm-1294.172 60.589 6.194 17.121 3.843-17.31-10.037.189Zm4.299-100.354c-.955-17.92-5.399-28.517-14.263-39.049-8.86-10.527-18.381-16.65-35.828-20.529-16.725-4.497-31.986-4.683-49.479-1.879-25.021 3.39-42.789 11.531-59.903 25.091-17.129 13.571-29.532 29.773-40.19 52.804-11.547 22.861-13.501 45.873-12.216 73.36.305 12.163 2.713 21.375 7.236 31.607 4.481 10.138 9.496 17.35 17.219 24.94 15.598 15.327 32.741 23.777 57.188 23.665 33.533 1.336 64.384-4.792 94.858-18.849 5.98-2.633.355-.157.467-.207l-4.464-12.34c-9.831 3.021-12.591 4.231-29.77 8.417-19.093 4.334-42.87 4.386-63.838-2.649-12.569-5.347-26.09-15.425-32.659-26.073-6.603-10.704-9.387-27.584-8.129-41.362l1.777-19.457 164.687-3.088c5.131-17.978 8.966-38.746 7.307-54.402Zm-163.194 14.031c5.115-17.16 15.874-34.871 28.206-44.806 12.534-10.097 32.356-16.181 49.3-16.361 7.711.463 17.082 2.357 23.362 5.209 6.667 3.029 14.649 9.373 18.877 15.059 4.223 5.679 8.003 15.132 9 22.39.938 6.833.077 16.419-1.663 23.959-.994 3.382-1.979 5.979-2.571 7.805l-5.061 15.624H942.996l8.608-28.879Zm82.724-6.64-1.783 5.143c1.128-3.254 1.631-4.254 1.629-4.642.055-.174.106-.341.154-.501Zm1245.336 202.545c-.519 3.414-1.015 7.88-2.016 12.864-6.366 29.07-12.901 58.049-19.116 87.002-1.082 4.603-1.13 5.894-.656 8.26.053.264.068.47.057.629.099.002.212.011.341.028 1.817 2.324.825 1.258 3.775 1.208 3.079-.052 4.719-.429 9.201-2.667 1.995-.595 1.416-.517 2.726-2.117 1.309-1.6 1.461-1.468 1.65-3.541 4.151-15.771 7.83-31.61 11.496-47.769 4.237-18.642 8.287-37.36 12.459-56.383a161.828 161.828 0 0 1-18.365-7.723l-1.552 10.209Zm54.545 19.604c1.936-9.104-.02 0-.02 0h.02Zm-290.657 31.319.001-.112c-1.242.054-2.889.141-5.083.163l5.082-.051Zm333.082 57.506c-2.066-1.293-4.091-2.485-6.133-3.556a75.024 75.024 0 0 1-6.872-4.739c-.272 1.16-.547 2.321-.824 3.481 5.055 1.749 9.57 3.38 13.829 4.814Zm65.245-90.415-1.189 5.826c.084-.409.229-1.111 1.194-5.824l-.005-.002Zm2.709-13.279c1.016.237 2.02.489 3.012.754l-2.96-1.011-.052.257Zm-282.644 148.579c-.03.269-.024.354.066 0h-.066Zm-.129 0h-.009l-1.131 5.987c.548-2.9.909-4.794 1.14-5.987Zm-811.19-481.125h33.642v41.558h-33.642v-41.558Z" fill="#fff"/><path class="cls-21" d="M1407.254 950.39c1.65-7.43 2.76-12.45 4-17.95h41.27c.15.3.31.6.47.89l-45.74 17.06Zm391.266 88.37c-66.47-35.71-129.43-31.89-191.1 7.12.44-8.84 1.25-17.6 1.22-26.35a66.177 66.177 0 0 0-8.05-32c-9.82-17.94-26.43-25.66-45.3-29.52-18.47-3.78-37.16-3.34-55.77-1.09-68.59 8.31-132.41 32.49-195.53 59a72.758 72.758 0 0 1-7.28 2.85c-1.16.34-2.56-.1-5-.26 64.4-39.26 130.23-72.65 202.86-90.87 36.44-9.14 73.44-13.6 111-10.8 55.24 4.13 104.25 23.46 145.37 61.42a253.477 253.477 0 0 1 42.54 51.17c1.62 2.57 2.94 5.44 5.04 9.33Zm323.74-62.62 88.39-21.47c-6.55 28.14-12.65 54.36-19 81.46h74.07c-8.43 21.16-16.32 41-24.44 61.35h-60.91c-3.09 14.08-6.09 27.69-9.07 41.3a68717.583 68717.583 0 0 0-16.12 73.77 32.281 32.281 0 0 0-1 8.72c.64 9.86 6.31 16.26 16.16 16.24a103.999 103.999 0 0 0 25.05-3.56c7.84-2 15.29-5.57 24.14-8.92 6 17.89 12 35.67 18.14 54-2.47 1.56-4.51 3-6.73 4.2-33.77 17.61-69.53 26.29-107.78 25.1-40-1.24-64.91-29.6-58.28-69 4.56-27 11.28-53.71 17.18-80.52 4-18.19 8.3-36.32 12.39-54.49.318-2.17.495-4.358.53-6.55h-47.9c4.55-20.94 8.87-40.79 13.35-61.42h47.88c4.76-20.24 9.28-39.9 13.95-60.21Zm-562.81 257.05c-3.5 15.94-6.94 31.89-10.52 47.81-1.63 7.3-3.53 14.54-5.33 21.88h-213.09c23.24-105.65 46.32-210.56 69.43-315.64 30.39-9.65 60.45-17.94 92.93-22-19.72 89.49-39.17 177.72-59 267.56l125.72.61Zm-348.66 69.69h-86.06c19.81-89.24 39.45-177.69 59.12-266.31h65.71v44.72l1.94.54c1.62-2.23 3.29-4.43 4.86-6.7 5.4-7.8 10.34-16 16.23-23.39 13-16.32 30-23.08 50.93-21.71 13.46.88 25.8 4 36.81 11.81a72.869 72.869 0 0 1 5.76 5.21c-12.74 23.6-25.39 47-37.35 69.22-11-2.63-20.62-5.88-30.47-7-16.69-2-29 6.34-38.09 19.66-9.37 13.66-15.56 28.91-19.43 44.83-9 37.15-17.25 74.49-25.82 111.76-1.32 5.67-2.71 11.37-4.14 17.36ZM24 1278.52c9.88-17.62 19.763-35.243 29.65-52.87 1.58-2.81 3.2-5.6 4.9-8.58 11.47 5.06 22.26 10.49 33.52 14.65 24.9 9.2 50.37 11.38 76 3.15a59.702 59.702 0 0 0 16.33-8.72c13.55-9.86 17.28-27.16 9.64-42.07-5.07-9.89-12.73-17.48-21.88-23.47a3425.413 3425.413 0 0 0-53.76-34.44c-34.6-21.61-46.45-53.75-42-92.61 6.05-52.91 38.81-84.27 87.29-98.85 48.48-14.58 97.16-9.4 144.1 9.84 2.4 1 4.63 2.39 8 4.15-5 23-10 46.18-15.15 70.11-6.47-3.21-12.18-6.29-18.08-8.94-26.51-11.92-54-18-83.12-12.83-12.73 2.25-24.13 7.2-29.25 20.26-5.4 13.77-2.87 26.67 7.32 37.26a119.043 119.043 0 0 0 20.39 16.78c17.79 11.67 36.32 22.22 54 34 24.78 16.56 37.54 40.58 39.77 70 4.28 56.43-25.48 93.26-70.35 115.08-37.52 18.24-77.34 20.73-118 16.11-26-3-50.38-11-73.79-22.47a32.757 32.757 0 0 0-5.46-1.61Zm1535.61-45.16c-1.45-8.67-3.33-17.3-4.29-26-6.81-61.95 13.11-112.77 63.76-150.28 22.41-16.59 48.06-24.64 75.82-26.69 21.77-1.61 43.21-.23 64 6.56 27.38 8.94 48.08 26.1 61.15 52 .68 1.36 1.57 2.63 3.31 5.52 4.44-20 8.51-38.45 12.79-57.77h47.67c4.78-20.56 9.41-40.47 14.09-60.57l87.69-21.37c-4.75 27.93-12.58 53.73-18.13 81.22h74.09c-8.61 21.46-16.58 41.35-24.75 61.7h-60.92c-3.76 17.36-7.39 34.21-11.08 51-4.68 21.4-9.52 42.76-14.1 64.18-3.53 16.54 4 26.18 20.62 24.7 9.94-.89 19.71-4.26 29.43-7 4.63-1.28 9-3.59 14.41-5.82 3.17 9.37 6.21 18.21 9.15 27.09 2.94 8.88 5.85 17.94 8.93 27.41-15.08 9.3-30.79 15.52-47 20.49-22.13 6.76-44.8 9.19-67.92 8.5-39.28-1.16-64.3-29.84-57.82-68.55 4.53-27 11.21-53.72 17.14-80.51 4-17.87 8.34-35.65 12.44-53.49.402-2.453.663-4.927.78-7.41h-45.68c.69 2.5 1.29 4.63 1.87 6.77 16.61 61.24 4.46 115.39-40.86 160.67-32 32-71.59 44.52-116.36 42.52-50.29-2.25-87.69-23.62-107.63-71.44-.57-1.38-1.79-2.48-2.71-3.71Zm191.14-77.11c.36-17-1.31-26.77-5.84-35.43-16-30.48-60.43-34.69-83-7.25-21 25.5-27.41 55.55-21.77 87.52 6.26 35.48 39.55 51 71.83 34.61 15-7.61 24.64-20.12 30.8-35.48a107.314 107.314 0 0 0 7.98-43.97ZM654.08 1299.37c-10 46-19.85 91-29.75 136.33h-87c29.3-130.85 58.47-261.15 88-392.92 13.42-2.71 27-6.22 40.82-8.07 18.13-2.43 36.43-4.7 54.68-5 32-.52 63.51 2.94 91.92 19.72 26.66 15.75 43.18 39.18 48.88 69.25 7.9 41.65 3.21 81.93-20.9 117.79-30.88 45.94-73.93 71-130.2 71.9-18.84.3-37.21-1.75-56.45-9ZM699.9 1098l-29.87 138c25.45 12.23 55.78 8.16 75.67-10.23 22.63-20.93 32.58-47.27 29.83-77.71-3.53-39.44-37.4-60.06-75.63-50.06Zm-356.08-61.33h88c-3.83 16.77-7.55 32.9-11.19 49-8.5 37.63-17.13 75.23-25.28 112.94a68.368 68.368 0 0 0-1 20.45c1.26 13.56 9.44 20.23 23 20.07 13-.15 23.18-6.19 31.51-15.67 13.38-15.23 19.65-33.81 24.13-53.06 10.27-44.23 20.28-88.52 30.55-133.48h87.68c-3 13.19-5.77 25.88-8.68 38.55-11.2 48.74-22.64 97.43-33.55 146.25-4.5 20.16-6.95 40.63-3.66 61.36.5 3.17.44 6.42.68 10.44l-68.33 15.15c-6.92-13.27-8.23-27.32-11.14-41.81-6.7 5.79-12.8 11.45-19.31 16.6-25.73 20.38-55.27 28.22-87.52 24.08-25.28-3.24-42.43-17.72-50.44-42.25-6.57-20.12-6.55-40.83-2.5-61.16 7.72-38.77 16.63-77.31 25.16-115.92 3.78-16.86 7.78-33.7 11.89-51.54Zm2010.36 273.27c-14.14-2.31-28.7-3.2-42.35-7.18-42.83-12.5-69.41-41.48-78-85-8.4-42.68-2.08-83.68 22.83-120.25 28-41.17 67-64 117.24-67.37 19.19-1.27 38-.07 56.35 5.07 43.39 12.18 69.33 41.79 77.55 85.13 13.56 71.45-16.59 135.05-77 169.62-23.52 13.48-49.27 19.04-76.62 19.98Zm73.49-154.61c0-4.58.34-9.19-.07-13.73-1-11.31-4.5-21.76-12.21-30.38-20.41-22.81-59.21-20.78-78.42 4.28-18.51 24.15-23.94 52.11-20.84 81.56 2.6 24.57 17.88 41.09 38.3 43.82 23.06 3.09 41.81-4.66 55.68-23.54 13.58-18.46 17.43-39.75 17.56-62.01Zm-1303.86 37.25-160 3c-2.75 19.87 7.15 35.56 26.17 42.78 16.56 6.29 33.56 5.81 50.29 1.79 16.16-3.89 32-9.29 49.34-14.45l19 52.52c-6.85 3.27-13.22 6.5-19.74 9.39a237.643 237.643 0 0 1-105 20.87c-57.5-1.73-101.5-44.86-103.93-102.23-1.23-29.2 1.82-57.62 14.41-84.18 23.69-50 61.67-82.36 117.45-90.79 19.44-2.93 39.2-2.53 58.49 2.31 41 10.26 64.1 37.82 67.43 80 1.53 18.56-5.61 59.86-13.91 78.99Zm-150-57.19h80.52c.86-2.54 1.61-4.35 2.1-6.23 5.62-21.87-5.68-37.05-28.12-37.83-25.57-.89-47.13 16.3-54.47 44.06Zm1244.38 186.67h38.72c-.59 4-.94 7.67-1.73 11.3-6.35 29-12.89 58-19.13 87.07-2.59 12-2.18 24.27 8.5 32.22 11.31 8.4 24.25 6.63 36.41.94a30.75 30.75 0 0 0 16.91-20.66c4.23-16.09 8-32.3 11.68-48.52 4.7-20.68 9.16-41.4 13.78-62.39h39.26c-3.43 16.14-6.67 31.69-10.07 47.21-4.47 20.42-8.7 40.9-13.72 61.19-4.91 19.83-13 38.34-32.15 48.4-27.81 14.62-56.94 17-86 3.79-15.86-7.19-23.54-21.16-25.31-38.29-1.61-15.61 2.44-30.51 5.84-45.51 5.82-25.42 11.31-50.91 17.01-76.75Zm-197.32 110.76a216101.97 216101.97 0 0 1-12.3 55.2H1969c12.09-55.44 24.06-110.37 36.15-165.8 2.75-.24 5.27-.63 7.8-.64 13.76-.06 27.54-.48 41.27.15 7.73.35 15.76 1.42 23 4 23 8.3 29.73 26.17 28.42 46.26-2.47 38-32.71 53.57-57.2 57.81-8.95 1.59-18.09 2.03-27.57 3.02Zm6.6-30.17c5.88-.4 10.76-.2 15.4-1.15 15.76-3.21 23-12 23.49-27.82.38-11.56-6.3-19.24-17.89-20.29-3.17-.29-6.39 0-10 0-3.7 16.44-7.2 32.19-11 49.26Zm325.29 47.25c9.16 3.11 17.34 6.25 25.74 8.62 8.4 2.37 17 1.32 25.05-1.83 13.06-5.09 15.81-17.06 6.26-27.34a50.995 50.995 0 0 0-9.22-7.25c-6.26-4.17-12.48-8.45-19.07-12-27.85-15.2-24.71-52.83-8.93-69.86 9.72-10.48 21.55-17.07 35.59-19.13 20.38-3 40.33-1.83 60.08 8.17-2.1 10.26-4.16 20.29-6.31 30.83-7.77-2.76-14.28-6-21.15-7.28a119.351 119.351 0 0 0-24.29-1.43c-6.74.16-11.79 4-13.83 10.65-2 6.36.29 12 5.28 15.77 7.8 5.9 16.1 11.16 24.33 16.46 7.44 4.8 14.8 9.42 19.43 17.5 11 19.21 8.38 50.33-17.54 66.09-24.83 15.11-51.26 16.06-78.45 7.75-5.86-1.79-11.48-4.37-18.48-7.08 5.62-10.42 10.68-19.74 15.51-28.64Zm-265.11 38.1 36.5-165.9h39.72c-9.78 44.48-19.48 88.58-29.39 133.63h54.79c.74 11.84-4.29 21.59-5.83 32.27Z" fill="#00aeef" paint-order="stroke" stroke-width="46"/><path class="cls-21" d="M1372.2 1426.64c0-11.26-.18-22.53 0-33.8 0-3.29-.7-4.5-4.16-4.33-12.827.173-25.653.173-38.48 0-2.43 0-4.34-.17-4.34 3.29.52 21.15-.69 42.3.7 63.44.69 10.06 5.37 14.39 15.6 14.39 4 0 7.8-.69 11.78-.87 1.22 0 3.47-1.73 3.47 1 0 2.08 1.56 4.86-1.56 6.24-10.75 5-21.84 7.46-33.8 5.2-8.49-1.56-13-7.1-14.56-15.08a55.22 55.22 0 0 1-1-10.74c-.17-20.8-.17-41.6 0-62.58 0-3.46-.87-5-4.51-4.5a55.176 55.176 0 0 1-9.18 0c-1.56 0-4 1-4.51-1-.69-2.6-.17-5.38 0-8.15 0-.35 1-.69 1.73-.69a18.06 18.06 0 0 1 3.12 0c4.51-.35 10.58 2.08 13.18-1 2.77-3 .69-8.84.86-13.35.18-4.68.18-9.18 0-13.86 0-2.6.7-3.82 3.47-3.64 4.85.34 11.09-1.91 14.39.86 3.12 2.78.69 9 1 13.69.17 4.51.17 8.84 0 13.35-.18 3.29 1 4 4.16 4 13-.18 26-.18 39 0 3.29 0 4.5-.7 4.33-4.16-.17-7.8 0-15.78-.17-23.57 0-3.12.69-4.34 4-4.16 3.926.255 7.864.255 11.79 0 2.77-.18 3.47.86 3.47 3.46-.18 8 .17 16.12-.18 24.09-.17 3.47 1 4.34 4.34 4.16 7.1-.17 14.38.18 21.49-.17 4.33-.17 3.47 2.6 3.47 5s.86 5.37-3.47 5.2c-7.28-.18-14.73 0-22-.18-2.95 0-3.82.87-3.64 3.82.17 19.76 0 39.69.17 59.45.17 13.87 5.2 18.37 18.89 17.85 3-.17 5.72-.69 8.67-.86 1.39 0 3.47-1.22 3.64 1.21.17 2.08 1.39 4.85-1.73 6.24-10.58 4.68-21.67 7.45-33.28 5.2-10.06-1.91-15.43-9-15.6-20.45-.7-11.1-.35-22.54-.52-34h-.03Zm283.22 28.08c8.14-18.72 15.6-36.4 22.53-54.42 3.47-9 2.25-11.1-6.76-14.22-1-.34-1.91-.52-3-.86-2.77-.7-1.73-3-1.73-4.68-.17-2.43 1.56-2.26 3.12-2.26h31.2c1.56 0 3.64-.52 3.64 2.26 0 2.08.35 4-2.43 4.85-8.14 2.6-12.48 8.67-15.77 16.29-13.35 30.68-25 61.88-39.52 92-4.16 8.67-9 16.82-15.77 23.75-6.76 7.1-14.74 10.22-24.61 7.62a14.46 14.46 0 0 1-9.54-7.27c-2.25-4.16-1.21-9.88 2.26-13.35 3.29-3.29 8.14-3.81 12.82-1.39 3.81 2.08 6.24 5.38 8.32 8.84 1.21 2.08 2.43 2.78 4.33.87 9.19-9.36 14.91-20.63 19.94-32.41.69-1.56-.52-3-1-4.34a21249.038 21249.038 0 0 1-32.07-77.48c-2.77-6.76-7.28-11.09-14.21-12.82-3.29-.87-3.29-2.78-3.29-5.2.17-3.12 2.42-2.43 4.16-2.43h39c2.08 0 4.16-.17 4 3-.17 2.6 0 4.68-3.64 4.68a14.183 14.183 0 0 0-4.51 1c-2.94.86-4.33 2.42-2.94 5.72 8.48 20.53 16.8 40.76 25.47 62.25Zm-479.61-61.88v65c0 10.4 1.91 13 12.14 14.91 3.12.52 3.12 2.08 3.29 4.51.17 2.94-1.56 2.77-3.64 2.77h-43c-2.08 0-3.64 0-3.64-2.77 0-2.43.35-4 3.47-4.34 10.75-1.21 12.13-2.6 12.13-13.34v-110.07c0-14-2.6-17.33-16.46-19.76-2.95-.52-4.51-1-4.34-4.5.18-3.82 2.78-2.78 4.68-3 10.06-.69 20.11-1 30.16-1.91 4-.34 5.38.87 5.38 5-.34 22.44-.17 44.97-.17 67.5Zm370.76.35a58.363 58.363 0 0 1 12.3-11.61 35.114 35.114 0 0 1 13.7-5.55c6.41-1 12 .52 15.77 6.07 3.47 5 3.29 13.34-.17 18.37-3.13 4.51-7.63 4.68-12.31 3.47-4.51-1.22-7.28-4.16-7.45-9.19a19.439 19.439 0 0 1 .34-4.51c.69-2.6-.34-2.94-2.42-2.77-9.71 1-19.42 11.61-19.42 21.49v46.63c0 13.69 1.74 16 15.6 17 3.47.34 4.34 1.56 4.16 4.68-.17 2.08-.86 2.6-2.77 2.6h-48.71c-2.25 0-3.12-.87-2.94-2.95.17-1.91-.35-4 2.42-4.16a32.375 32.375 0 0 0 4.16-.35c5.9-.86 8.5-3.64 8.67-9.53.17-21 .17-41.95 0-63.09 0-7.63-4.33-12.14-12-13.52-2.43-.35-4.33-.52-4.33-4.16 0-3.82 2.42-3.47 4.68-3.64 8.84-.52 17.68-.87 26.52-1.74 3.81-.34 4.85 1.22 4.68 4.68-.66 3.81-.48 7.1-.48 11.78Zm-256.19 22.01c-4-19.06-14.73-32.76-34-37.78-20.28-5.38-38.82-1.74-52.86 15.08-12.83 15.42-15.08 33.8-10.4 52.69 4.5 18.72 16.29 31.72 35.18 36.23 18.55 4.5 35.71.69 49.23-13.87 10.22-11.09 13.69-24.79 14-39.69a78.672 78.672 0 0 0-1.15-12.66Zm-25.82 43.34c-5.55 12.3-14.21 17.68-26.52 16.29-9.71-1-15.43-7.28-19.41-15.6-5.55-12-6.59-24.61-5.72-37.44.52-8.32 1.73-16.64 5.89-24.09 5.2-9.36 12.65-14.91 23.92-14.39 10.92.35 17.68 6.59 21.84 16 4.33 9.53 5.37 19.58 5.37 30 0 9.99-1.21 19.87-5.37 29.23Zm242.31-5.03c-4-2.6-4.68.35-5.89 2.6-6.93 11.61-17.16 16.81-30.51 15.25-14.21-1.56-22.53-10-27-23-1.9-5.89-2.42-12-3.12-18-.34-3.46.87-4.33 4.16-4.33 9.88.17 19.76 0 29.64 0 10.06 0 20.11-.17 30.16 0 3.12 0 4.34-.69 4.16-4-.34-4.16-.34-8.49-.86-12.82-2.08-13-7.8-23.58-20.11-29.64-19.07-9.36-43-3.82-55.81 13-10.92 14.21-13.52 30.5-10.92 48 3.12 21.49 16.29 36.75 35.88 41.08 21 4.68 40.38-3.29 52-21.15 1.86-3.35 1.69-4.91-1.78-6.99Zm-66.56-38.83c1-9.36 3.12-18.2 10.23-25 12-11.61 29.64-7.28 34.67 8.5 1.73 5.2 1.9 10.74 2.42 16.12.18 2.77-1 3.12-3.29 3.12h-40.91c-1.9-.14-3.43-.14-3.12-2.74Z" fill="#00aeef"/><path d="M1132.65 1473.79c0-2.77-2.08-2.08-3.64-2.25-11.26-.7-14-3.47-13.86-14.91.17-16.81.69-33.45.69-50.27-.17-12.13-3.64-23.22-16.12-27.73-17.16-6.24-34-5-49.22 5.72-4.16 3-7.46 6.59-8.67 11.79-1.21 5-.17 9.7 4.16 12.82 4.16 3.12 8.84 2.26 13 0 4.51-2.42 5.55-6.76 4.68-11.44-.35-2.42-.87-4.68-1.39-6.93a3.45 3.45 0 0 1 1.74-4.33c10.57-6.24 28.25-5.55 31.71 13 .7 3.81.52 7.8.87 11.78.17 3.12-1 4.68-3.81 5.72-7.46 2.6-14.73 5.38-22.19 8-7.46 2.62-14.9 4.68-21.66 9-10.06 6.41-14.39 17.85-11.62 30.51 2.26 10 10.4 17.16 22 18.37a39.593 39.593 0 0 0 29.81-8.32l7.28-6.24c5.89 12.13 11.44 15.6 23.57 14.21 3.47-.34 6.93-1.9 10.4-2.77 2.97-1.22 2.27-3.52 2.27-5.73Zm-36.91-15.79a4.222 4.222 0 0 1-1 2.77c-5.89 6.76-13 11.09-22.18 10.57-12-.69-17.85-10.22-14.39-22.88 1.56-5.72 5.2-9.88 9.88-13.17 8.32-5.72 18-8.49 27.73-11.44-.04 11.63-.04 22.9-.04 34.15Zm-131.39-30.49c.35 10.75 1.91 21.32 8 30.68 10.58 16 31 18 44.55 4.51a58.492 58.492 0 0 0 5.89-7.11c1.56-2.43 2.6-3.81 5.9-1.73 3.12 2.08 2.77 3.46 1 6.06-15.78 24.79-49.06 30.34-70.2 11.79-10.58-9.36-14.39-21.84-16.12-35.53-3.12-25 9.7-49.4 31.54-57.55 14.74-5.72 29.47-5.37 42.82 4.85 7.45 5.72 10.4 16.82 7.28 25-2.08 5.38-6.24 7.63-12.31 6.59-6.59-1-10.23-5-10.23-10.75a43.982 43.982 0 0 1 1.91-11.61c1.21-4.51-.69-7.11-5-8.49-10.92-3.47-21.32.52-27.56 11.09-6.08 9.84-7.12 20.93-7.47 32.2Z" fill="#fa9d0f"/></svg>