<svg xmlns="http://www.w3.org/2000/svg" viewBox="27.25 183.14 332.87 118.24"><defs><clipPath id="a"><path fill="none" stroke="#000" d="M8.53 169.07h452.71V329.9H8.52z"/></clipPath></defs><g clip-path="url(#a)" data-name="Layer 2" transform="matrix(0.7352699637413025, 0, 0, 0.7352699637413025, 20.983000114306805, 58.82500163950026)"><g data-name="Layer 1"><path d="M237.25-16.33h-1.53a269.24 269.24 0 0 0-33.45 2.3C60.93 4.6-38.53 131.98-19.43 269.9c17.35 125.07 126.7 218.42 256.05 218.6a270.64 270.64 0 0 0 34.98-2.3C413.2 467.34 512.3 340.1 493 201.96 475.61 77.72 367.4-15.25 238.86-16.33h-1.62Z" class="cls-1" style="fill:#229ac8"/><path fill="#fff" d="M362 257.47h14v19h19v14h-19v19h-14v-19h-19v-14h19ZM71.12 227.42c-5 6.94-15 12.38-24.67 12.38-15.68 0-25.21-11.8-25.21-26.9 0-16.73 11.33-27 25.82-27 10.72 0 19 6.08 22.9 16.1l-8.48 5.6-7.32-5.52c-3.16-2.37-5.09-3.23-7.94-3.23-6.33 0-10.64 5.68-10.64 13.72 0 8.68 4.93 13.65 12.33 13.65a22.45 22.45 0 0 0 9.86-2.51l8.33-3.87Zm29.65 12.38c-14.34 0-26.37-10.57-26.37-26.9s12-27 26.37-27 26.36 10.66 26.36 27-11.99 26.9-26.36 26.9Zm0-40.16c-7.71 0-12 5-12 13.26s4.32 13.18 12 13.18 12-4.9 12-13.18-4.26-13.26-12-13.26Zm33.71-12.93h13.72v40.71h25.06V239h-38.78Zm66.15 53.09c-14.34 0-26.37-10.57-26.37-26.9s12-27 26.37-27 26.37 10.66 26.37 27-12 26.9-26.37 26.9Zm0-40.16c-7.71 0-12 5-12 13.26s4.32 13.18 12 13.18 12-4.9 12-13.18-4.29-13.26-12-13.26ZM244.77 239H231v-52.29h22.35c8.56 0 14.19 1.41 17.74 5 2.77 2.85 4.39 7 4.39 12.23a19.1 19.1 0 0 1-8.48 16.18L278.49 239h-13.65a2.08 2.08 0 0 1-2.31-1.35l-7.76-13.55c-.85-1.42-1-1.58-2.47-1.58h-7.53Zm12.9-27.6a2.76 2.76 0 0 0 2.78-1.42 11.57 11.57 0 0 0 1.15-5.36 7.23 7.23 0 0 0-1.46-4.66c-1.23-1.18-3.16-1.5-6.55-1.5h-8.82v12.94Zm42.4-24.69h13.7c.92 0 1.23.07 1.62 1.18l20.3 51.11h-13.11c-.92 0-1.31-.16-1.69-1.19l-2.78-7.49h-20.43l-2.47 7.49c-.31 1-.69 1.19-1.62 1.19H281Zm7.32 13.29c-.54 2.84-2.08 7.65-4.54 14.91l-1.39 4.42H314l-1.59-4.33c-2.86-7.73-4.32-12-4.94-14.91ZM341 239v-52.29h18.66c10.49 0 18.66 2.28 24.06 7.81 4.08 4.18 6.47 10.33 6.47 18.38s-2.42 14.1-6.42 18.3c-5.4 5.53-13.57 7.82-24.06 7.82Zm18.28-12.08c5.93 0 10.1-.63 12.87-3.15 2.39-2.13 3.78-5.52 3.78-10.89s-1.39-8.84-3.78-11c-2.77-2.52-6.94-3.15-12.87-3.15h-4.51v28.16Zm62.05 12.88C407 239.8 395 229.23 395 212.9s12-27 26.37-27 26.37 10.66 26.37 27-12.07 26.9-26.41 26.9Zm0-40.16c-7.71 0-12 5-12 13.26s4.32 13.18 12 13.18 12-4.9 12-13.18-4.33-13.26-12-13.26Zm-342.2 60.47h13.73v40.71h25v11.6H79.13Zm66.15 53.1c-14.34 0-26.37-10.57-26.37-26.91s12-27 26.37-27 26.37 10.65 26.37 27-12.03 26.91-26.37 26.91Zm0-40.16c-7.71 0-12 5-12 13.25s4.32 13.18 12 13.18 12-4.89 12-13.18-4.28-13.25-12-13.25Zm44.86-1.34H173v-11.6h48v11.6h-17.13v40.71h-13.73Zm53.5 0h-17.11v-11.6h48v11.6h-17.16v40.71h-13.73Zm58.6 41.5c-14.34 0-26.37-10.57-26.37-26.91s12-27 26.37-27 26.37 10.65 26.37 27-12.03 26.91-26.37 26.91Zm0-40.16c-7.71 0-12 5-12 13.25s4.31 13.18 12 13.18 12-4.89 12-13.18-4.24-13.25-12-13.25Z" class="cls-3"/></g></g></svg>