<svg xmlns="http://www.w3.org/2000/svg" viewBox="113.47 202.23 176.75 51.42"><defs><clipPath id="a"><path fill="none" stroke="#000" d="M17.37 47.42h77.72v22.62H17.37z"/></clipPath></defs><g fill="none" fill-rule="evenodd" clip-path="url(#a)" transform="matrix(2.2741899490356445, 0, 0, 2.2741899490356445, 73.9739990234375, 94.379997253418)"><path fill="#96BC3F" d="M104.1 23.05A57.62 57.62 0 0 0 65.66.9a58.64 58.64 0 0 0-7.6-.5A58.11 58.11 0 0 0 .62 50.87a58.06 58.06 0 0 0 57.57 65.52 58.12 58.12 0 0 0 57.44-50.47 57.61 57.61 0 0 0-11.52-42.87"/><path fill="#FEFEFE" d="M30.66 61.32c-.9.4-1.6.58-2.34.58-1.78 0-2.84-1.15-2.84-3.08 0-1.82 1-3.1 2.43-3.1.63 0 1.06.17 1.83.74l1.89 1.39 2.3-1.48-.06-.14a5.95 5.95 0 0 0-5.76-3.95c-3.81 0-6.48 2.72-6.48 6.62 0 3.88 2.6 6.6 6.33 6.6a8.08 8.08 0 0 0 6.17-3.04l.07-.1-1.37-2.03-2.17.99ZM41.3 56.5c.2.7.55 1.64 1.04 2.94l.3.83h-2.57l.27-.83c.44-1.25.76-2.23.96-2.94m1.53-4.03h-3.46l-4.71 12.6-.09.23h3.34c.28 0 .46-.06.57-.4l.56-1.67h4.74l.64 1.68c.12.33.3.4.57.4h3.46L43.4 52.86c-.12-.34-.27-.4-.56-.4m13.14 4.6-1.17-.28c-1.12-.28-1.5-.46-1.5-.74 0-.35.46-.46 1.9-.46.56 0 1.4.05 2.5.15l1.68.16.61-2.58-.13-.06a11.7 11.7 0 0 0-4.67-.98c-3.48 0-5.48 1.4-5.48 3.85 0 2.6 2.12 3.47 4.4 4.03l1.25.3c1.31.31 1.64.48 1.64.88 0 .56-.61.84-1.8.84-.81 0-2-.15-3.38-.43l-1.47-.29-.89 2.5.13.08c1.61.9 3.73 1.45 5.66 1.45 3.31 0 5.37-1.7 5.37-4.41 0-2.44-1.56-3.26-4.65-4.01m14.86.05h-4.64v-4.65h-3.7V65.3h3.7v-4.95h4.64v4.95h3.7V52.47h-3.7m15.55 4.33c-.72 0-1.5.14-2.18.4.03-.3.04-.71.04-1.22v-.41h5.7v-3.1H80.9v6.37c0 .28.04.4.33.56l1.34.76c.32.18.52.2.82.06.67-.3 1.54-.51 2.17-.51.58 0 1.55.15 1.55 1.14 0 .82-.67 1.34-1.76 1.34a7.9 7.9 0 0 1-2.34-.47l-1.76-.57-1.19 2.19.1.1a8.5 8.5 0 0 0 5.41 2.05c3.15 0 5.26-1.86 5.26-4.62 0-2.47-1.74-4.07-4.45-4.07"/></g></svg>