<svg xmlns="http://www.w3.org/2000/svg" viewBox="16.21 13.17 885.51 414.62"><defs><radialGradient id="c" cx="0" cy="0" r="1" gradientTransform="translate(203.051 134.622) scale(78.1613 78.1682)" gradientUnits="userSpaceOnUse"><stop stop-color="#fff"/><stop offset=".08" stop-color="#FFFDF4"/><stop offset=".2" stop-color="#FFF8D9"/><stop offset=".37" stop-color="#FFF0AD"/><stop offset=".57" stop-color="#FFE570"/><stop offset=".79" stop-color="#FFD723"/><stop offset=".88" stop-color="#FFD100"/></radialGradient><clipPath id="a"><path fill="#fff" d="M0-3h918v447H0z"/></clipPath></defs><g clip-path="url(#a)" transform="matrix(1, 0, 0, 1, 0, -1.4210854715202004e-14)"><path fill="#fff" d="M276.14 383.65c-26.82-4-57.1-11.3-89.2-21.96a614.63 614.63 0 0 1-39.56-14.64c21.27 13.44 48.3 25.45 77.11 34a287.2 287.2 0 0 0 38.62 9.26c4.43.73 7.93 1.24 11.85 1.66l1.18-8.32ZM629.71 208.49l31.92.02v-7.04l-31.97-.02.05 7.04ZM668.63 159.13l.04 42.34-.04 11.34 5.03-.07v13.81a79.72 79.72 0 0 0 14.32 24.26c11.94 13.65 27.97 21.03 45.44 21.03 1.29 0 2.57-.04 3.85-.12 15.7-.96 30.9-9.09 42.34-22.25-10.3 8.98-22.62 14.43-35.3 15.2-1.28.09-2.58.13-3.85.13-17.47 0-33.5-7.38-45.44-21.03-14.07-16.07-21.49-39.16-21.47-66.77 0-28.42 7.5-52.31 21.24-68.34l-1.18 1c-12.71 11.45-21.25 28.56-24.97 49.45l-.01.02ZM751.01 159.84l19.11.6 26.3-12.33-.65-4.11c-.08-.27-.18-.51-.26-.77l-34.39 16.76-1.12-3.11c-2.54-7.01-7.3-11.22-13.03-11.54-4.05-.23-7.71 1.17-10.87 4.15a23.13 23.13 0 0 0-3.7 4.6 13.81 13.81 0 0 1 7.53-1.71c4.52.25 8.4 2.94 11.09 7.47v-.01ZM368.8 337.2l3.07 8.06c.35-2.02.79-4.02 1.34-5.99l11.12-38.63-5.1.28-10.44 36.28Z"/><path fill="#fff" d="m733.26 166.49-.4 39.96c.66.87 1.33 1.67 2.06 2.37a15.54 15.54 0 0 0 3.8 2.8l11.78-.03a14.5 14.5 0 0 0 7.05-7.04l-17.68.04.36-37.85-6.96-.25h-.01ZM666.63 266.69l-97.33 5.71-2.62-192.54-7.15-.74 2.1 153.97 6.06 39.4-5.51.32.08 6.62 104.37-6.12v-6.62ZM629.32 143.23l35.85 2.1v-7.44l-35.9-2.1.05 7.44ZM883.72 289.15c-.51.04-1.31.2-1.5.9.26.06.6.14.84.18l4.73 1.03c1.34.28 2.71.69 4.06 1.24v-.05c-2.96-2.45-5.54-3.5-8.14-3.3h.01ZM875.68 317.96s2.34-.34 2.4-1.81v-.04c-.3-.07-.74-.14-1.04-.18l-4.35-.58a19.58 19.58 0 0 1-7.74-2.66l1.15 1.08c3.39 3.1 6.6 4.53 9.58 4.18ZM854.92 284.53l-1.52 50.36 8.19-24.85c-3.18-3.27-5.27-8.12-5.06-14.9.23-7.4 2.52-13.54 5.95-18.36a29.67 29.67 0 0 0-7.56 7.75ZM789.1 266.13l44.4-2.6 1.14-6.7-38.5 2.27 37.5-151.56-5.16-.54-22.98 92.93a96.2 96.2 0 0 1-4.4 17.77l-11.97 48.42-.02.01ZM897.02 253.19l-30.7 1.81-2.5-17.74-20.14.8-1.16 6.8 14.27-.56 2.51 17.73 38.92-2.3-1.2-6.54ZM828.8 297.24a85.25 85.25 0 0 1 0-3.71l.5-18.02-6.86.4-.2 7.37 6.56 13.98v-.02ZM391.57 187.77c-1.1-4.01-2.12-7.87-3.02-11.66a470.7 470.7 0 0 1-.46 9.93l-.94 16.77 27.88 85.26 45.3-2.67 1.74-6.72-40.01 2.35-30.5-93.27.01.01ZM739.99 360.15c-9.38 0-17.84-2.99-24.3-8.65-8.17-7.19-12.46-17.97-12.39-31.18.07-12 4.1-22.87 10.81-31.24a47.2 47.2 0 0 0-14.89 21.2l-.15 34.07a34.68 34.68 0 0 0 9.58 14.2c6.45 5.67 14.92 8.64 24.3 8.64 2.04 0 4.13-.15 6.24-.43a45.4 45.4 0 0 0 29.57-16.56 45.82 45.82 0 0 1-22.53 9.53c-2.12.28-4.2.43-6.24.43v-.01ZM502.89 276.3l-9.87-96.85c-.3 1.3-.6 2.58-.94 3.83l-4.6 17.75 8.37 82.3 64.8-3.8-1.01-6.57-56.75 3.34ZM599.08 378.2l-1.05-89.62-7.1.4.64 55.34 3.94-.43.48 34.73-4.01.54.06 6.08 63.24-8.47-.01-6.1-56.19 7.53ZM815.71 321.43l-.01 1.46-.45 18.72 6.43 12.85 24.42-3.27.19-6.12-17.57 2.35-13-25.99ZM872.59 342.3c-6.09 0-12.4-1.48-17.63-4.2l-1.63-.86-.2 6.9-5.64.76.45.24a39.01 39.01 0 0 0 17.62 4.2 29.78 29.78 0 0 0 24.69-12.54 29.52 29.52 0 0 1-17.65 5.5h-.01ZM525.45 388.08l-2.32-95.28-7.19.4 2.47 101.92 70.54-9.46-.08-6.08-63.42 8.5ZM789.1 277.78l-6.9.4-.27 13.6c3.1 6.14 4.68 13.37 4.53 21.2a50.52 50.52 0 0 1-5.4 22.02l-.5 24.97 27.48-3.67.15-6.11-20.58 2.76 1.51-75.15-.01-.02ZM664.58 284.81l-7.04.4.04 51.89 4.67-.52.07 33.15-4.72.63v6.1l34.37-4.6.02-6.12-27.35 3.68-.06-84.6ZM294.95 305.7l-7.85-.06-17.18 122.14 57.89-7.1.4-6.15-49.48 6.63 16.22-115.46ZM444.76 147.24l18.1-78.15-5.28-.55-19.28 83.2 3.57 13.23c.71-6.01 1.6-12.01 2.89-17.74v.01ZM468.74 395.68l-3.42-99.6-7.25.4 3.65 106.22 45.22-6.04-.16-6.08-38.04 5.1ZM413.68 403.05l-7.01-46.21-5.53 17.03 5.51 36.23 47.47-6.37-1.36-5.9-39.08 5.22ZM338.48 364.7l-.35-.9v.04l-1.3 19.73 15.4 33.82 31.41-4.23 2.07-6.36-26.44 3.55-20.79-45.65Z"/><path fill="#fff" d="m572.23 269.26 98.45-5.79v-47.7l-43.88.68-.13-17.98 39.03.04-.04-46.38-39.27-1.68-.1-17.81 42.95 2.5-.04-49.42-99.62-10.33 2.65 193.87ZM697.24 241.84c12.37 14.15 29.03 21 46.88 19.9 17.56-1.06 35.5-11.92 47.05-30.4 12.6-20 12.96-41.18 13.7-66.6l-61.64-2.21-.38 39.1 18.78-.05a17.72 17.72 0 0 1-16.9 14.4c-13.85.2-22-17-21.86-35.55.13-20.44 8.92-38.93 24.28-38.08 6.74.4 12.6 5.08 15.65 13.5l37.16-18.1C792.13 109.8 766.1 93.13 746.1 91c-38.3-4.07-69.59 27.97-69.6 86.04-.02 28.24 8.01 50.25 20.74 64.8h-.01ZM837.76 103.19 800 255.89l38-2.23 3.17-18.48 25.21-1 2.5 17.67 32.84-1.93-26.47-142.85-37.5-3.88h.01ZM848.1 200l7.27-45.06 1.23.06c.46 6.31.9 12.83 1.71 19.11l3.23 25.9H848.1ZM468.18 292.26l3.43 100.02 39.32-5.25-2.68-97.04-40.07 2.27ZM592.99 376.03l-.4-28.83-28.79 3.15-1.16-63.45-36.63 2.07 2.34 95.72 64.64-8.66ZM602.01 374.81l57.34-7.68-.06-27.24-25.56 2.8-.4-59.77-32.37 1.82 1.05 90.07ZM667.62 366.03l28.43-3.81.33-82.86-28.83 1.61.07 85.06ZM812.36 308.1l18.07 36.09 19.8-2.66 2.15-71-20 1.12-.6 21.93c-.16 6.18.6 12.35 1.3 18.32l-.63.07-18.44-39.27-21.85 1.25-1.51 75.58 21.52-2.88.57-23.83c.12-4.87-.42-9.6-1.03-14.64l.66-.06v-.01ZM887.18 294.15l-4.23-.92c-1.45-.34-3.8-.51-3.73-3.08.12-2.84 2.6-3.85 4.26-3.97 4.08-.33 7.62 1.67 10.7 4.3l5.65-17.76a23.12 23.12 0 0 0-16.11-5.06c-11.58.65-23.7 10.73-24.23 27.54-.34 11.03 5.99 16.25 13.58 17.2l3.83.52c1.73.27 4.23.27 4.13 3.35-.12 3.1-3.15 4.42-5.03 4.63-4.43.52-8.55-1.86-11.95-4.97l-.98-.92-6.74 20.45a36.13 36.13 0 0 0 20.51 3.58c11.22-1.51 22.53-10.86 23.13-26.8.44-11.39-4.97-16.43-12.8-18.1ZM388.55 296.74l-12.49 43.34c-1.32 4.7-1.92 9.77-2.54 14.56l-1.21.09-21.33-55.88-52.48 2.97-16.28 115.87 49.83-6.68 3.12-47.38c.3-4.43.4-8.98.5-13.41l1.64-.15c.65 4.63 2.15 8.89 3.88 13.39l19.87 43.65 27.38-3.68 15.9-49.03c1.18-3.47 1.84-7.17 2.52-10.71l.82-.08 8.53 56.1 41.35-5.53-23.13-100.03-45.86 2.58-.02.01ZM746.87 275.23c-21.76 1.19-40.43 19.19-40.6 45.1-.14 26.22 17.99 39.36 39.56 36.44 20.7-2.8 37.18-19.5 37.64-43.84.46-24.03-15.75-38.85-36.62-37.7h.02ZM38.1 124.01c12.34 57.57 43.22 103.53 70.47 132.11a304.97 304.97 0 0 1-27.66-45.9c-20.71-38.3-25.4-93.65-16.33-116.73-8.36 8.23-13.34 11.54-26.46 30.51l-.02.01ZM492.56 52.72c7.26.77 9.4-3.88 9.73-10.22l.14-1.99-6.56-.7c-.13 2.22.29 8.03-3.3 7.65-4.45-.47-4.7-5.2-4.7-8.08V29.7c0-2.7-.41-8.84 4.7-8.3 3.22.34 2.98 4.5 3.26 6.78l6.42.68c.06-.87-.04-1.77-.13-2.66-.46-6-3.72-9.32-9.54-10.04-10.42-1.1-11.12 5.42-11.4 14.27v4.98c0 9.3.71 16.16 11.4 17.3h-.01ZM518.71 55.51c10.7 1.14 11.4-5.56 11.4-14.87v-4.98c-.3-8.92-.98-15.6-11.4-16.7-10.42-1.1-11.12 5.42-11.39 14.27v4.97c0 9.3.7 16.16 11.4 17.31Zm0-31.3c4.84.5 4.7 6.68 4.7 9.47v8.93c0 3.35-.04 8.13-4.7 7.63-4.47-.47-4.7-5.2-4.7-8.08V32.5c0-2.7-.42-8.84 4.7-8.3v.01ZM554.67 53.4l-12.1-1.3V22.31l-6.5-.68v34.89l18.6 1.98V53.4ZM570.4 61.03c10.7 1.13 11.39-5.57 11.39-14.88v-4.97c-.29-8.92-.98-15.6-11.4-16.7-10.41-1.12-11.12 5.41-11.38 14.26v4.98c0 9.3.7 16.16 11.39 17.3Zm0-31.31c4.83.51 4.7 6.69 4.7 9.47v8.93c0 3.35-.04 8.14-4.7 7.64-4.46-.48-4.7-5.2-4.7-8.08V38c0-2.7-.43-8.84 4.7-8.28ZM594.16 47.7l1.17.12c1.86.2 3.76.36 5.54 1.06 2.23.89 2.18 3.8 2.23 5.96.04 2.34-.1 6.6.7 8.92l7.16.77v-.65c-1.58-1.2-1.4-9.73-1.4-11.18 0-3.35-1.15-5.93-5.02-6.86v-.1c4.38-.13 5.35-4.04 5.35-7.85 0-6.42-4.28-8.84-9.9-9.43l-12.33-1.31v34.9l6.52.68V47.7h-.02Zm0-14.74 4.84.51c2.47.31 4.1 1.14 4.1 5.04 0 3.49-1.68 4.7-3.82 4.63l-5.12-.55v-9.63ZM622.12 56.88l7.63.8 1.72 9.04 6.97.74-7.9-35.73-8.8-.93-8.32 34 6.97.74 1.72-8.66h.01Zm2.97-14.72c.33-1.6.46-3.16.65-4.77.06-.78.14-1.57.23-2.3h.1c.1.77.19 1.57.23 2.37.19 1.65.32 3.24.65 4.9l1.76 10.1-5.58-.6 1.96-9.7ZM659.1 68.73c5.34-2.54 5.34-10.5 5.34-17.4 0-5.76-.42-9.67-1.9-12.25a9.2 9.2 0 0 0-6.75-4.67l-13.58-1.45v34.9l12.06 1.28c1.63.17 3.39.27 4.83-.42v.01Zm-7.54-4.99-2.83-.3V38.8l4.28.46c3.9.42 4.74 3.77 4.74 12 0 10.1-.38 13.12-6.19 12.5v-.02ZM681.52 72.9c10.7 1.13 11.4-5.58 11.4-14.89v-4.97c-.3-8.92-.98-15.6-11.4-16.7-10.42-1.11-11.12 5.42-11.39 14.27v4.97c0 9.3.7 16.16 11.4 17.31Zm0-31.32c4.84.51 4.7 6.69 4.7 9.47V60c0 3.35-.04 8.13-4.7 7.63-4.47-.47-4.7-5.2-4.7-8.08v-9.68c0-2.7-.42-8.83 4.7-8.28ZM729.1 72.01 717 70.73V40.95l-6.5-.7v34.9l18.6 1.99V72ZM744.83 79.65c10.7 1.15 11.39-5.57 11.39-14.88V59.8c-.29-8.92-.98-15.6-11.4-16.7-10.41-1.11-11.11 5.41-11.38 14.26v4.98c0 9.3.7 16.17 11.39 17.3Zm0-31.31c4.83.51 4.7 6.69 4.7 9.47v8.93c0 3.35-.04 8.14-4.7 7.64-4.48-.47-4.7-5.2-4.7-8.08v-9.68c0-2.7-.42-8.84 4.7-8.3v.02ZM767.43 81.23l6.52.69V52.15l7.58.8v-5.11l-21.73-2.31v5.1l7.63.83v29.77ZM790.69 83.7l6.51.7V54.65l7.58.8v-5.12L783.05 48v5.12l7.64.81V83.7ZM826.83 82.45l-11.82-1.26V70.45l10.89 1.16v-5.12L815 65.32v-8.78l11.83 1.26v-5.12l-18.33-1.96V85.6l18.33 1.96v-5.12ZM838.36 73.77l1.16.12c1.87.2 3.77.35 5.54 1.06 2.23.89 2.19 3.8 2.23 5.96.05 2.33-.1 6.59.7 8.91l7.16.77v-.64c-1.58-1.2-1.39-9.73-1.39-11.18 0-3.35-1.16-5.93-5.02-6.86v-.1c4.37-.13 5.35-4.04 5.35-7.85 0-6.42-4.29-8.84-9.9-9.43l-12.33-1.31V88.1l6.51.69V73.77h-.01Zm0-14.74 4.84.51c2.45.31 4.09 1.14 4.09 5.04 0 3.49-1.67 4.7-3.81 4.62l-5.12-.54v-9.63ZM866 91.74l6.5.7V77.58l9.22-19.06-7.12-.76-3.12 7.58c-.79 1.87-1.68 3.73-2.14 6.38h-.1c-.28-1.9-.83-3.73-1.53-5.53l-3.68-9.55-7.12-.76 9.07 21.02v14.83h.01Z"/><path fill="#FED103" d="M186.94 361.69a614.63 614.63 0 0 1-39.56-14.64c21.27 13.44 48.3 25.45 77.11 34a287.2 287.2 0 0 0 38.62 9.26c4.43.73 7.93 1.24 11.85 1.66l1.18-8.32c-26.82-4-57.1-11.3-89.2-21.96Z"/><path fill="#7B8689" d="m629.71 208.49 31.92.02v-7.04l-31.97-.02.05 7.04ZM668.67 201.49l-.04 11.33 5.03-.06v13.8a79.72 79.72 0 0 0 14.32 24.26c11.94 13.65 27.97 21.03 45.44 21.03 1.29 0 2.57-.04 3.85-.12 15.7-.96 30.9-9.08 42.34-22.24-10.3 8.97-22.62 14.43-35.3 15.2-1.28.08-2.58.12-3.85.12-17.47 0-33.48-7.38-45.44-21.03-14.07-16.06-21.49-39.16-21.47-66.77 0-28.41 7.5-52.3 21.24-68.33l-1.18 1c-12.71 11.43-21.25 28.55-24.97 49.44l.04 42.34-.01.03ZM760 156.88c-2.54-7.01-7.3-11.22-13.03-11.54-4.05-.23-7.71 1.17-10.87 4.15a23.1 23.1 0 0 0-3.7 4.6 13.84 13.84 0 0 1 7.53-1.71c4.52.25 8.4 2.94 11.09 7.47l19.1.6 26.3-12.33-.65-4.1c-.07-.28-.18-.52-.26-.78L761.12 160l-1.12-3.1v-.02ZM371.86 345.26c.35-2.02.78-4.02 1.34-5.99l11.12-38.63-5.1.28-10.44 36.27 3.08 8.05v.02Z"/><path fill="#7B8689" d="m733.26 166.49-.4 39.96c.66.86 1.33 1.67 2.06 2.37a15.54 15.54 0 0 0 3.8 2.8l11.78-.03a14.5 14.5 0 0 0 7.05-7.04l-17.68.04.36-37.85-6.96-.25h-.01ZM567.7 272.49l-5.52.32.08 6.62 104.37-6.12v-6.62l-97.33 5.71-2.62-192.54-7.15-.74 2.1 153.97 6.06 39.4ZM629.32 143.23l35.85 2.1v-7.44l-35.9-2.1.05 7.44ZM891.88 292.5v-.05c-2.96-2.45-5.54-3.5-8.15-3.3-.51.04-1.3.2-1.5.9l.84.18 4.73 1.03c1.34.28 2.72.69 4.07 1.24h.01ZM875.68 317.96s2.34-.34 2.4-1.81v-.04c-.3-.07-.74-.14-1.04-.18l-4.35-.58a19.58 19.58 0 0 1-7.74-2.66l1.15 1.08c3.39 3.1 6.6 4.53 9.58 4.18ZM861.6 310.03c-3.18-3.27-5.27-8.13-5.05-14.9.23-7.4 2.5-13.55 5.94-18.36a29.68 29.68 0 0 0-7.55 7.74l-1.53 50.37 8.19-24.85ZM801.08 217.72l-11.98 48.41 44.4-2.6 1.14-6.7-38.5 2.27 37.5-151.56-5.16-.54-22.98 92.93a96.2 96.2 0 0 1-4.4 17.77l-.02.02ZM863.83 237.27l-20.15.78-1.16 6.81 14.27-.56 2.51 17.73 38.92-2.3-1.2-6.54-30.7 1.81-2.5-17.73ZM828.8 297.24a85.25 85.25 0 0 1 0-3.71l.5-18.02-6.86.4-.2 7.37 6.56 13.98v-.02ZM462.08 278.69l-40 2.35-30.5-93.27c-1.1-4.01-2.13-7.87-3.03-11.66a470.7 470.7 0 0 1-.46 9.93l-.94 16.77 27.88 85.26 45.3-2.67 1.74-6.72h.01ZM746.23 359.72c-2.12.28-4.2.43-6.24.43-9.38 0-17.84-2.99-24.3-8.65-8.17-7.19-12.46-17.97-12.39-31.18.07-12 4.1-22.87 10.81-31.24a47.2 47.2 0 0 0-14.89 21.2l-.15 34.07a34.68 34.68 0 0 0 9.58 14.2c6.45 5.67 14.92 8.64 24.3 8.64 2.04 0 4.13-.15 6.24-.43a45.4 45.4 0 0 0 29.57-16.56 45.82 45.82 0 0 1-22.53 9.53v-.01ZM559.65 272.96l-56.75 3.34-9.86-96.85c-.3 1.3-.61 2.58-.95 3.83l-4.6 17.75 8.37 82.3 64.8-3.8-1-6.57ZM599.08 378.2l-1.05-89.62-7.1.4.64 55.34 3.94-.43.48 34.73-4.01.54.06 6.08 63.24-8.47-.01-6.1-56.19 7.53ZM828.71 347.42l-13.01-25.99c0 .49 0 .97-.02 1.46l-.44 18.72 6.43 12.85 24.42-3.27.19-6.12-17.57 2.35ZM877.25 341.99a38.93 38.93 0 0 1-22.28-3.9l-1.64-.85-.2 6.9-5.64.76.45.24a39.01 39.01 0 0 0 17.62 4.2 29.78 29.78 0 0 0 24.69-12.54 29.52 29.52 0 0 1-12.99 5.19h-.01ZM525.45 388.08l-2.32-95.28-7.19.4 2.47 101.92 70.54-9.46-.08-6.08-63.42 8.5ZM787.6 352.93l1.5-75.15-6.9.4-.27 13.6c3.1 6.14 4.68 13.37 4.53 21.2a50.52 50.52 0 0 1-5.4 22.02l-.5 24.97 27.48-3.67.15-6.11-20.58 2.76-.02-.02ZM664.64 369.42l-.06-84.6-7.04.38.04 51.9 4.67-.52.07 33.15-4.72.63v6.1l34.37-4.6.02-6.12-27.35 3.68ZM376 283.73l-78.2 4.58 26.56-233.57-7.93-.67L289 295.3l86.62-4.93.37-6.65ZM278.73 421.16l16.22-115.47-7.85-.06-17.18 122.15 57.89-7.1.4-6.15-49.48 6.63ZM441.88 164.99c.72-6.02 1.6-12.02 2.9-17.75l18.1-78.15-5.28-.55-19.29 83.2 3.57 13.23v.02ZM468.74 395.68l-3.42-99.6-7.25.4 3.65 106.22 45.22-6.04-.16-6.08-38.04 5.1ZM413.68 403.05l-7.01-46.21-5.53 17.03 5.51 36.23 47.47-6.37-1.36-5.9-39.08 5.22ZM359.26 410.35l-20.78-45.65-.35-.9v.04l-1.3 19.73 15.4 33.82 31.41-4.23 2.07-6.36-26.44 3.55Z"/><path fill="#E31F26" d="m327.85 50.32 82.36 8.54 31.62 117.34 1.8.04c1-9.36 2-19.3 4.03-28.34l19.27-83.14 66.89 6.93 30.44 198.04-58.7 3.45-11.3-111.1-1.2-.04c-1.05 6.84-2.08 13.93-3.83 20.49l-24.18 93.02-40.86 2.4-29.78-91.1c-2.58-9.46-4.88-18.36-5.8-27.88l-2.52-.08c-.23 8.92-.44 18.11-.94 26.99l-5.3 94.65-78.69 4.6 26.7-234.82-.01.01ZM569.59 75.4l99.6 10.32.05 49.43-42.96-2.52.11 17.82 39.27 1.69.04 46.37-39.03-.04.13 17.98 43.88-.68v47.7l-98.45 5.79-2.64-193.87ZM804.88 164.76c-.75 25.42-1.11 46.58-13.7 66.6-11.56 18.48-29.5 29.32-47.06 30.4-17.85 1.1-34.5-5.76-46.88-19.9-12.73-14.55-20.76-36.58-20.75-64.82 0-58.07 31.3-90.1 69.6-86.04 20 2.14 46.03 18.82 53.85 46.77l-37.16 18.1c-3.05-8.42-8.9-13.11-15.64-13.5-15.35-.86-24.15 17.63-24.28 38.08-.14 18.55 8 35.75 21.86 35.54a17.74 17.74 0 0 0 16.9-14.4l-18.78.04.38-39.09 61.64 2.22h.01ZM848.09 200.01l7.27-45.06 1.23.06c.46 6.31.9 12.83 1.71 19.11l3.23 25.9H848.1Zm-6.92 35.18 25.21-1 2.5 17.68 32.84-1.94-26.47-142.85-37.5-3.88-37.77 152.7 38-2.22 3.17-18.5h.02Z"/><path fill="#2C2B7C" d="m468.18 292.26 40.07-2.27 2.68 97.04-39.32 5.25-3.44-100.02ZM526 288.97l36.64-2.07 1.16 63.45 28.8-3.15.39 28.83-64.64 8.66-2.34-95.72ZM600.96 284.74l32.38-1.82.39 59.77 25.56-2.8.06 27.25L602 374.8l-1.05-90.07ZM667.55 280.97l28.83-1.6-.33 82.85-28.43 3.8-.07-85.05ZM792.16 273.95l21.85-1.25L832.45 312l.63-.07c-.7-5.96-1.46-12.14-1.3-18.32l.6-21.94 20-1.12-2.14 71-19.81 2.66-18.07-36.08-.66.06c.6 5.04 1.15 9.77 1.02 14.64l-.56 23.83-21.53 2.88 1.53-75.58ZM863.09 315.01l.97.92c3.4 3.11 7.53 5.47 11.96 4.97 1.88-.21 4.91-1.53 5.02-4.63.1-3.08-2.4-3.08-4.13-3.35l-3.82-.52c-7.59-.95-13.92-6.17-13.59-17.2.53-16.82 12.64-26.9 24.23-27.54a23.12 23.12 0 0 1 16.1 5.06l-5.64 17.77c-3.08-2.64-6.63-4.64-10.7-4.31-1.68.12-4.15 1.13-4.26 3.97-.07 2.57 2.29 2.74 3.73 3.08l4.23.92c7.82 1.66 13.24 6.69 12.81 18.1-.62 15.93-11.92 25.28-23.13 26.8-6.68.88-14.46-.44-20.51-3.59l6.74-20.45h-.01ZM298.5 301.82l52.48-2.97 21.32 55.88 1.22-.1c.62-4.78 1.23-9.86 2.54-14.55l12.49-43.34 45.86-2.58 23.12 100.03-41.35 5.54-8.53-56.1-.82.07c-.68 3.54-1.34 7.25-2.51 10.72l-15.9 49.03-27.38 3.67-19.88-43.65c-1.73-4.5-3.23-8.75-3.88-13.39l-1.63.15c-.11 4.43-.22 8.99-.5 13.42l-3.13 47.38-49.83 6.67 16.28-115.86.03-.02ZM746.87 275.23c-21.76 1.19-40.43 19.19-40.6 45.1-.14 26.22 17.99 39.36 39.56 36.44 20.7-2.8 37.18-19.5 37.64-43.84.46-24.03-15.75-38.85-36.62-37.7"/><path fill="#fff" d="m743.77 307.6 6.25-21.34 6.97 20.3 17.8-1.45-13.74 13.24 6.13 18.38-15.83-9.26-18.58 17.75 7.04-24.09-20.52-11.75 24.48-1.77Z"/><mask id="b" width="202" height="202" x="145" y="52" maskUnits="userSpaceOnUse" style="mask-type:luminance"><path fill="#fff" d="M145.84 153.4c0 55.5 45 100.5 100.49 100.5 55.5 0 100.5-45 100.5-100.5 0-55.48-45-100.5-100.5-100.5s-100.5 45-100.5 100.5Z"/></mask><g mask="url(#b)"><path fill="url(#c)" d="M346.83 52.9h-201v201.02h201V52.89Z"/></g><path fill="#FED103" d="M243.7 273.15c-10.5.46-20.73-.07-30.56-1.47a94.36 94.36 0 0 0 61.21 12.9 82.5 82.5 0 0 0 28.27-7.84 80.42 80.42 0 0 0 9.37-5.25l2.14-1.53.87-.65a94.96 94.96 0 0 0 16.4-14 95.3 95.3 0 0 0 18.27-28.08l.25-.53.72-1.63a87.06 87.06 0 0 0 3.23-9.42c-19.22 32.04-60.9 55.32-110.18 57.5Z"/><path fill="#2C2B7C" d="m324.85 151.77 1.7-18.58L316.43 146 302.5 136l5.42-17.84 15.14 3.18-11.77-14.18 5-15.97-12.59 6.84-13.66-16.49 4.78 21.6-14.46 7.77-11.47-18.95 11.93-15.1-20.37 1.06-13.77-23.12-.15 23.86-26.9 1.42 27.1 14.34-.3 24.4-27.84-.1-13.56-28.06-7.94 27.9-39.82-.47 34.78 18.17-8.97 31.46 28.5-21.64 25.7 13.64-11.7 26.33-35.07 1.49 26.63 17.37-14.5 31.9 28.72-22.63 21.33 13.9-5.7-26.6 20.92-16.3 13.28 17.19L268.8 227l20.51-14.03 11.7 15.45-1-22.78 15.79-10.82-16.61-3.56-.84-21.64 16.07-4.01 7.55 17.73 1.83-20.03 12.95-3.08-11.89-8.43-.01-.03Zm-26.92 17.6L288 188.72l-20.12-4.22-24.24.76-5.57-25.73-11.6-24.56 20.38-15.73 14.07-17.19 19.2 10.06 17.46 3.92 4.47 20.15 7.6 18.24-11.72 14.95h.01Z"/><path fill="#E31F26" d="M64.56 93.49c-9.07 23.06-4.38 78.42 16.34 116.73a306.03 306.03 0 0 0 27.66 45.9c-27.26-28.58-58.13-74.54-70.47-132.1 13.13-19 18.1-22.3 26.46-30.52l.01-.01Z"/><path fill="#FED103" d="M205.33 45.9c4.96-2 8.27-2.86 13.54-4.18-11.86-6.67-101.77-54.4-167.98-9.54-55.9 37.86-28.86 116.45-22.92 131.74 16.28 44.42 48.78 89.51 91.48 127 41.44 36.36 90.34 58.74 135.31 69.68l.48-1.34c-27.58-13.22-52.6-35.2-77.39-56.96C105.07 238.42 65.7 153.35 82.17 97.24a341.11 341.11 0 0 1 51.35 31.56c.8-3.46 1.74-6.88 2.83-10.22a346.55 346.55 0 0 0-55-32.74l-4.88-2.31-1.87 5.06C63.9 117.66 67.58 155.7 85 195.66c17.45 40.02 48.11 80.53 86.34 114.07a378.95 378.95 0 0 0 33.94 26.6c-27.32-13.06-54.41-31.05-79.28-52.87-41.48-36.4-73-80.08-88.75-123.05C31.75 146.25 6.8 74 56.45 40.34 75.02 27.77 96 23.3 116.48 23.3c37 0 72.36 14.62 88.87 22.6h-.02Z"/><path fill="#FED103" d="M189.85 53.34c-20.72-8.14-52.4-19.81-73.1-19.81-20.7 0-39.84 5.23-55.04 15.52a53.99 53.99 0 0 0-4.35 3.27l-.14.13c-.71.59-1.43 1.2-2.17 1.89l-.38.34a57.5 57.5 0 0 0-3.05 3.04c-.46.5-.9 1.02-1.35 1.55l-.07.08c-.37.43-.75.87-1.1 1.3-.48.6-.97 1.24-1.44 1.88l-.33.44-.19.26c-10.18 14.35-12.56 32.23-11.58 49a91.11 91.11 0 0 1 8.07-10.72c8.2-9.35 19.74-21.77 31.44-27.28l7.84 3.7 2.54 1.2c13.38 6.33 37.55 19.65 54.42 30.11a117.2 117.2 0 0 1 50-55.88l-.02-.02Z"/><path fill="#E31F26" d="M123.77 145.65c0-33.9 14.45-64.4 37.5-85.73a98.04 98.04 0 0 0-50.43 85.73 98.04 98.04 0 0 0 50.43 85.73 116.5 116.5 0 0 1-37.5-85.73Z"/><path fill="#231F20" d="m502.43 40.51-.14 1.99c-.32 6.34-2.47 11-9.73 10.22-10.7-1.15-11.39-8.02-11.39-17.31v-4.98c.29-8.85.98-15.39 11.4-14.27 5.8.72 9.06 4.04 9.53 10.04.1.9.2 1.79.14 2.66l-6.42-.68c-.28-2.26-.04-6.42-3.25-6.77-5.13-.55-4.7 5.59-4.7 8.3v9.67c0 2.88.22 7.6 4.7 8.08 3.57.38 3.16-5.43 3.3-7.65l6.55.7ZM507.32 33.22c.28-8.86.97-15.4 11.4-14.27 10.4 1.1 11.11 7.8 11.38 16.7v4.97c0 9.3-.7 16.02-11.39 14.88-10.7-1.15-11.39-8.01-11.39-17.31v-4.97Zm6.69 8.96c0 2.87.23 7.6 4.7 8.08 4.65.5 4.7-4.29 4.7-7.64V33.7c0-2.78.14-8.96-4.7-9.47-5.12-.54-4.7 5.6-4.7 8.3v9.67-.01ZM536.06 56.53v-34.9l6.51.7v29.76l12.1 1.3v5.12l-18.6-1.98ZM559 38.74c.27-8.85.96-15.39 11.38-14.27 10.42 1.11 11.12 7.8 11.4 16.7v4.98c0 9.3-.71 16.01-11.4 14.88C559.68 59.88 559 53 559 43.72v-4.98Zm6.7 8.95c0 2.88.22 7.6 4.7 8.08 4.64.5 4.7-4.28 4.7-7.63V39.2c0-2.78.13-8.96-4.7-9.47-5.13-.54-4.7 5.6-4.7 8.28v9.68ZM594.16 47.7v15.03l-6.51-.69v-34.9l12.32 1.32c5.64.6 9.9 3.01 9.9 9.43 0 3.81-.97 7.72-5.34 7.85v.1c3.86.92 5.02 3.51 5.02 6.86 0 1.45-.18 9.99 1.4 11.18v.65l-7.17-.77c-.8-2.31-.64-6.58-.7-8.92-.04-2.15 0-5.07-2.23-5.96-1.77-.7-3.67-.85-5.54-1.06l-1.16-.12h.01Zm0-5.12 5.13.54c2.13.1 3.8-1.12 3.8-4.62 0-3.9-1.63-4.73-4.09-5.04l-4.84-.51v9.63ZM613.42 64.78l8.32-34 8.8.94 7.9 35.73-6.97-.75-1.72-9.02-7.63-.82-1.72 8.67-6.97-.75h-.01Zm9.71-12.92 5.59.6-1.77-10.1c-.33-1.66-.47-3.25-.65-4.9-.06-.8-.14-1.6-.23-2.35h-.1c-.1.73-.19 1.5-.23 2.3-.19 1.6-.32 3.17-.65 4.77l-1.96 9.7v-.02ZM642.21 67.85V32.96l13.58 1.45a9.17 9.17 0 0 1 6.75 4.67c1.48 2.58 1.9 6.49 1.9 12.26 0 6.89 0 14.84-5.35 17.39-1.45.69-3.22.58-4.84.42l-12.05-1.29h.01Zm9.35-4.1c5.82.61 6.2-2.41 6.2-12.5 0-8.24-.85-11.59-4.75-12l-4.28-.47v24.65l2.83.3v.01ZM670.12 50.6c.28-8.86.97-15.4 11.39-14.28 10.41 1.11 11.12 7.8 11.39 16.7V58c0 9.3-.7 16.01-11.4 14.88-10.7-1.15-11.38-8.02-11.38-17.31v-4.98Zm6.7 8.95c0 2.88.23 7.61 4.7 8.09 4.65.5 4.7-4.29 4.7-7.64v-8.93c0-2.79.14-8.96-4.7-9.48-5.12-.54-4.7 5.6-4.7 8.29v9.67ZM710.5 75.15v-34.9l6.5.7v29.77l12.1 1.3v5.12l-18.6-2ZM733.42 57.36c.29-8.85.98-15.39 11.4-14.27 10.41 1.11 11.11 7.8 11.38 16.7v4.98c0 9.3-.7 16.03-11.39 14.88-10.7-1.14-11.39-8.01-11.39-17.31v-4.98Zm6.7 8.95c0 2.88.23 7.6 4.7 8.08 4.65.5 4.7-4.28 4.7-7.63v-8.94c0-2.78.14-8.96-4.7-9.47-5.12-.54-4.7 5.6-4.7 8.3v9.67ZM759.8 45.53l21.73 2.32v5.12l-7.58-.8v29.76l-6.52-.69V51.47l-7.63-.8v-5.14ZM783.05 48l21.73 2.32v5.13l-7.58-.81V84.4l-6.51-.7V53.96l-7.64-.81V48ZM808.5 85.6V50.73l18.32 1.96v5.12L815 56.54v8.8l10.89 1.16v5.12l-10.9-1.16V81.2l11.83 1.26v5.12l-18.32-1.96v-.01ZM838.36 73.77V88.8l-6.51-.7V53.23l12.32 1.3c5.63.62 9.9 3.02 9.9 9.44 0 3.81-.97 7.72-5.35 7.85v.1c3.87.91 5.03 3.5 5.03 6.86 0 1.45-.19 9.99 1.4 11.18v.64l-7.17-.77c-.8-2.3-.65-6.58-.7-8.91-.04-2.15 0-5.07-2.23-5.96-1.77-.7-3.68-.87-5.54-1.06l-1.16-.12Zm0-5.1 5.12.53c2.13.1 3.81-1.12 3.81-4.62 0-3.9-1.63-4.73-4.1-5.04l-4.83-.51v9.63ZM867.72 66.2c.7 1.8 1.26 3.62 1.54 5.52h.1c.46-2.64 1.35-4.5 2.13-6.37l3.12-7.58 7.12.76-9.21 19.06v14.84l-6.52-.69V76.91l-9.06-21.02 7.12.76 3.67 9.55h-.01Z"/></g></svg>