<svg xmlns="http://www.w3.org/2000/svg" viewBox="116.55 161.65 164.43 51.73"><defs><clipPath id="a"><path fill="none" stroke="#000" d="M21.48 46.88h71.88V69.5H21.47z"/></clipPath></defs><g fill="none" fill-rule="evenodd" clip-path="url(#a)" transform="matrix(2.287489891052246, 0, 0, 2.287489891052246, 67.4280024085641, 54.41400227567556)"><path fill="#4D3A80" d="M115.2 46.2a58.09 58.09 0 0 0-20.5-33.1A58.17 58.17 0 0 0 58.55.4c-4.09 0-8.21.43-12.25 1.3A57.6 57.6 0 0 0 9.8 26.93 57.6 57.6 0 0 0 1.8 70.59a58.09 58.09 0 0 0 20.49 33.1 58.18 58.18 0 0 0 36.15 12.7 58.05 58.05 0 0 0 56.74-70.2"/><path fill="#FEFEFE" d="M33.86 57.76c-.13.21-.21.26-.49.26h-2.91v-2.97h1.82c.9 0 1.29.09 1.53.33.18.18.3.6.3 1.04 0 .44-.08 1.06-.25 1.34M32.3 51.9h-5.56v12.83h3.7v-3.67h2.28c1.87 0 3.05-.38 3.94-1.28a4.71 4.71 0 0 0 1.18-3.38c0-1.37-.37-2.44-1.12-3.19-.9-.9-2.27-1.31-4.42-1.31m7.44 12.83h3.7V51.9h-3.7m14.8 8.84c-.9.41-1.59.6-2.33.6-1.78 0-2.84-1.16-2.84-3.09 0-1.83 1-3.1 2.42-3.1.64 0 1.06.17 1.84.74l1.88 1.39 2.3-1.48-.06-.14a5.94 5.94 0 0 0-5.75-3.95c-3.82 0-6.48 2.72-6.48 6.62 0 3.88 2.6 6.6 6.33 6.6a8.1 8.1 0 0 0 6.16-3.04l.08-.1-1.38-2.03-2.17.99Zm17.12-6.83-2.19-2.23-5.91 5.34V51.9h-3.72v12.83h3.72v-4.47a5.96 5.96 0 0 0 1.47-.69l2.86 4.72c.25.42.48.44.84.44h3.63l-4.6-7.39 3.9-3.43Zm15.82 4.1a3.68 3.68 0 0 0 1.14-2.6c0-2.28-1.84-3.7-4.8-3.7-1.78 0-3.67.67-5.16 1.84l-.12.1 1.07 2.27 1.87-.53c.9-.26 1.59-.37 2.14-.37 1.03 0 1.45.3 1.45 1.03 0 .28-.08.59-.15.72-.05.09-.08.12-.32.12h-2.72v2.4c0 .49.45.49.61.49h1.7c.51 0 .8.06.93.2.1.1.15.3.15.55 0 .27 0 1.08-1.63 1.08-.8 0-1.52-.14-2.6-.53l-1.79-.65-1.23 2.12.1.1a8.08 8.08 0 0 0 5.75 2.27c3.08 0 5.16-1.7 5.16-4.26a2.9 2.9 0 0 0-1.55-2.65"/></g></svg>