<svg xmlns="http://www.w3.org/2000/svg" viewBox="0.12 0.88 947.82 265.44"><defs><radialGradient id="c" cx="312.96" cy="48.38" r="26.04" gradientTransform="matrix(1, 0, 0, -1, 18.797364, 247.686068)" gradientUnits="userSpaceOnUse"><stop offset="0" stop-color="#e42f43"/><stop offset="1" stop-color="#da2d3f"/></radialGradient><radialGradient id="a" cx="255.66" cy="48.61" r="26.04" gradientTransform="matrix(1, 0, 0, -1, 18.797364, 247.686068)" gradientUnits="userSpaceOnUse"><stop offset="0" stop-color="#fff"/><stop offset=".7" stop-color="#fdfdfd"/><stop offset=".95" stop-color="#f6f6f6"/><stop offset="1" stop-color="#f4f4f4"/></radialGradient><radialGradient id="e" cx="198.36" cy="48.61" r="26.04" gradientTransform="matrix(1, 0, 0, -1, 18.797364, 247.686068)" href="#a"/><radialGradient id="g" cx="141" cy="48.61" r="26.04" gradientTransform="matrix(1, 0, 0, -1, 18.797364, 247.686068)" href="#a"/><radialGradient id="i" cx="83.4" cy="48.61" r="26.04" gradientTransform="matrix(1, 0, 0, -1, 18.797364, 247.686068)" href="#a"/><radialGradient id="k" cx="26.04" cy="48.61" r="26.04" gradientTransform="matrix(1, 0, 0, -1, 18.797364, 247.686068)" href="#a"/><linearGradient id="d" x1="312.96" x2="312.96" y1="22.34" y2="74.42" gradientTransform="matrix(1, 0, 0, -1, 18.797364, 247.686068)" gradientUnits="userSpaceOnUse"><stop offset="0" stop-color="#8f1a26"/><stop offset=".04" stop-color="#8f1a26" stop-opacity=".83"/><stop offset=".1" stop-color="#8f1a26" stop-opacity=".61"/><stop offset=".16" stop-color="#8f1a26" stop-opacity=".42"/><stop offset=".24" stop-color="#8f1a26" stop-opacity=".26"/><stop offset=".32" stop-color="#8f1a26" stop-opacity=".14"/><stop offset=".43" stop-color="#8f1a26" stop-opacity=".06"/><stop offset=".58" stop-color="#8f1a26" stop-opacity=".01"/><stop offset="1" stop-color="#8f1a26" stop-opacity="0"/></linearGradient><linearGradient id="b" x1="255.66" x2="255.66" y1="22.57" y2="74.65" gradientTransform="matrix(1, 0, 0, -1, 18.797364, 247.686068)" gradientUnits="userSpaceOnUse"><stop offset="0" stop-color="#939392"/><stop offset=".04" stop-color="#939392" stop-opacity=".8"/><stop offset=".1" stop-color="#939392" stop-opacity=".59"/><stop offset=".17" stop-color="#939392" stop-opacity=".4"/><stop offset=".24" stop-color="#939392" stop-opacity=".25"/><stop offset=".33" stop-color="#939392" stop-opacity=".14"/><stop offset=".43" stop-color="#939392" stop-opacity=".06"/><stop offset=".58" stop-color="#939392" stop-opacity=".01"/><stop offset="1" stop-color="#939392" stop-opacity="0"/></linearGradient><linearGradient id="f" x1="198.36" x2="198.36" y1="22.57" y2="74.65" gradientTransform="matrix(1, 0, 0, -1, 18.797364, 247.686068)" href="#b"/><linearGradient id="h" x1="141" x2="141" y1="22.57" y2="74.65" gradientTransform="matrix(1, 0, 0, -1, 18.797364, 247.686068)" href="#b"/><linearGradient id="j" x1="83.4" x2="83.4" y1="22.57" y2="74.65" gradientTransform="matrix(1, 0, 0, -1, 18.797364, 247.686068)" href="#b"/><linearGradient id="l" x1="26.04" x2="26.04" y1="22.57" y2="74.65" gradientTransform="matrix(1, 0, 0, -1, 18.797364, 247.686068)" href="#b"/></defs><path fill="#fff" d="M945.27 221.29H793.21v42.69h152.06v-42.69Z"/><path fill="#121921" d="M567.53 219.92v46.4h379.1v-46.4h-379.1Zm375.54 42.85H797.43v-39.29h145.64v39.29Z"/><path fill="#fff" fill-rule="evenodd" d="M578.37 226.41h17.84c3.88 0 6.79.92 8.72 2.77 1.93 1.85 2.9 4.48 2.9 7.88 0 3.4-1.05 6.25-3.16 8.22-2.11 1.97-5.33 2.96-9.65 2.96h-5.87v12.89h-10.78V226.4v.01Zm10.77 14.81h2.63c2.07 0 3.51-.35 4.36-1.08a3.49 3.49 0 0 0 1.25-2.75 3.8 3.8 0 0 0-1.09-2.77c-.72-.76-2.09-1.14-4.09-1.14h-3.05v7.75l-.01-.01ZM615.59 242.84c0-5.67 1.58-10.08 4.74-13.23 3.16-3.16 7.56-4.74 13.19-4.74s10.23 1.56 13.36 4.66c3.12 3.1 4.69 7.44 4.69 13.03 0 4.06-.68 7.39-2.05 9.99a14.7 14.7 0 0 1-5.92 6.06c-2.58 1.45-5.8 2.17-9.65 2.17-3.85 0-7.16-.63-9.72-1.87a14.68 14.68 0 0 1-6.24-5.93c-1.59-2.7-2.39-6.07-2.39-10.13l-.01-.01Zm10.73.05c0 3.51.65 6.03 1.95 7.56a6.63 6.63 0 0 0 5.32 2.3c2.24 0 4.09-.75 5.35-2.25 1.26-1.5 1.9-4.19 1.9-8.07 0-3.28-.67-5.66-1.98-7.17a6.78 6.78 0 0 0-5.37-2.26c-2.27 0-3.9.76-5.21 2.3-1.31 1.53-1.97 4.06-1.97 7.6l.01-.01ZM658.5 226.24h10.19l3.67 19.4 5.35-19.4h10.16l5.38 19.4 3.67-19.4h10.14l-7.65 34.72h-10.52l-6.09-21.86-6.06 21.86h-10.52l-7.72-34.72ZM716.73 226.25h28.75v7.42h-18v5.52h16.7v7.08h-16.7v6.84H746v7.86h-29.27v-34.72ZM755.41 260.97v-34.72h17.88c3.32 0 5.85.28 7.6.86a8.1 8.1 0 0 1 4.24 3.16 9.53 9.53 0 0 1 1.61 5.62 9.7 9.7 0 0 1-1.23 4.99 9.6 9.6 0 0 1-3.39 3.4c-.92.55-2.17 1.01-3.76 1.37 1.27.43 2.21.86 2.8 1.29.39.28.96.89 1.71 1.82a13.5 13.5 0 0 1 1.5 2.16l5.19 10.07h-12.12l-5.74-10.61c-.73-1.37-1.37-2.27-1.95-2.68a4.5 4.5 0 0 0-2.62-.8h-.95v14.09h-10.77v-.02Zm10.77-20.66h4.53c.48 0 1.43-.15 2.84-.47a2.85 2.85 0 0 0 1.74-1.09 3.2 3.2 0 0 0 .67-2.02c0-1.12-.35-1.98-1.07-2.58-.72-.61-2.05-.9-4-.9h-4.72v7.05l.01.01Z" clip-rule="evenodd"/><path fill="#121921" fill-rule="evenodd" d="M811.74 229.88v13.14h5.72c3.19 0 5.54-.52 7.05-1.58 1.52-1.06 2.28-2.69 2.28-4.9 0-2.21-.77-3.99-2.3-5.05-1.52-1.07-3.98-1.6-7.36-1.6h-5.4v-.01Zm-3.87-3.39h8.38a40 40 0 0 1 5.77.33c1.46.22 2.65.57 3.6 1.07 1.75.92 3.08 2.1 4 3.57a8.94 8.94 0 0 1 1.4 4.94c0 1.83-.41 3.34-1.25 4.82a9.37 9.37 0 0 1-3.52 3.52c-1.05.61-2.3 1.07-3.75 1.34a31.5 31.5 0 0 1-5.57.41h-5.2v14.5h-3.87v-34.5ZM856.34 260.49h-17.79v-34.48h3.91v31.15h13.88v3.33ZM866.62 260.05h-4.09l15.32-34.49h4.66l15.27 34.49h-4.14l-4.72-10.83h-17.58l-4.72 10.83Zm20.94-13.93-7.49-17.32-7.38 17.32h14.87ZM919.87 248.45v12.67h-3.83V248.4l-12.6-21.76h4.45l10.08 17.9 10.18-17.9h4.32l-12.6 21.81Z" clip-rule="evenodd"/><path d="M36.12 13.66c-1.1-5.56-5.56-8.38-11.02-8.38-9.37 0-13.33 7.71-13.33 15.92 0 8.98 3.97 16.47 13.39 16.47 6.89 0 10.85-4.85 11.35-11.35h5.23c-1 9.81-7.11 15.76-17.03 15.76-12.23 0-18.18-9.04-18.18-20.5S13.03.88 25.15.88c8.2 0 14.99 4.41 16.2 12.78h-5.23ZM64.88.88c12.51 0 18.84 9.92 18.84 20.61S77.38 42.1 64.88 42.1s-18.84-9.92-18.84-20.61S52.37.88 64.88.88Zm0 36.81c9.59 0 13.61-8.27 13.61-16.2s-4.02-16.2-13.61-16.2-13.61 8.26-13.61 16.2c0 7.94 4.02 16.2 13.61 16.2ZM90.1 1.82h5.24v34.93h20.83v4.41H90.1V1.82ZM137.39.88c12.51 0 18.84 9.92 18.84 20.61s-6.34 20.61-18.84 20.61-18.84-9.92-18.84-20.61S124.88.88 137.39.88Zm0 36.81c9.59 0 13.61-8.27 13.61-16.2s-4.02-16.2-13.61-16.2-13.61 8.26-13.61 16.2c0 7.94 4.02 16.2 13.61 16.2ZM162.62 1.82h18.51c7.38 0 11.96 4.02 11.96 10.3 0 4.74-2.09 8.65-6.83 9.97v.11c4.57.88 5.51 4.24 5.9 8.1.33 3.86.11 8.15 2.31 10.85h-5.84c-1.49-1.6-.66-5.84-1.43-9.7-.55-3.86-1.49-7.11-6.56-7.11h-12.78v16.81h-5.23V1.82h-.01Zm16.15 18.12c4.9 0 9.09-1.27 9.09-7 0-3.86-2.09-6.72-7-6.72h-13v13.72h10.91ZM211.05 1.82h5.79l15.37 39.34h-5.79l-4.3-11.85h-16.64l-4.41 11.85h-5.4l15.38-39.34Zm-3.91 23.08h13.33l-6.56-18.35h-.11l-6.67 18.35h.01ZM236.07 1.82h13.5c12.12 0 18.9 6.06 18.9 18.73 0 12.67-5.79 20.61-18.9 20.61h-13.5V1.82Zm5.23 34.93h8.71c3.58 0 13.22-.99 13.22-15.48 0-9.37-3.47-15.04-13.11-15.04h-8.82v30.53-.01ZM291.5.88c12.51 0 18.84 9.92 18.84 20.61S304 42.1 291.5 42.1s-18.84-9.92-18.84-20.61S279 .88 291.5.88Zm0 36.81c9.59 0 13.61-8.27 13.61-16.2s-4.02-16.2-13.61-16.2-13.61 8.26-13.61 16.2c0 7.94 4.02 16.2 13.61 16.2Z" style="fill:#000" transform="matrix(1.0000000000000002, 0, 0, 1.0000000000000002, 0, 0)"/><g><path d="M331.8 173.27a26 26 0 1 1 0 52 26 26 0 0 1 0-52Z" style="fill:url(#c)" transform="matrix(2.7958819866180424, 0, 0, 2.7958819866180424, -52.435547656350536, -427.258734393995)"/><path d="M331.8 173.27a26 26 0 1 1 0 52 26 26 0 0 1 0-52Z" style="fill:url(#d)" transform="matrix(2.7958819866180424, 0, 0, 2.7958819866180424, -52.435547656350536, -427.258734393995)"/><path d="M274.46 173.04a26 26 0 1 1-.01 52 26 26 0 0 1 .01-52Z" style="fill:url(#a)" transform="matrix(2.7958819866180424, 0, 0, 2.7958819866180424, -52.435547656350536, -427.258734393995)"/><path d="M274.46 173.04a26 26 0 1 1-.01 52 26 26 0 0 1 .01-52Z" style="fill:url(#b)" transform="matrix(2.7958819866180424, 0, 0, 2.7958819866180424, -52.435547656350536, -427.258734393995)"/><path d="M217.16 173.04a26 26 0 1 1 0 52 26 26 0 0 1 0-52Z" style="fill:url(#e)" transform="matrix(2.7958819866180424, 0, 0, 2.7958819866180424, -52.435547656350536, -427.258734393995)"/><path d="M217.16 173.04a26 26 0 1 1 0 52 26 26 0 0 1 0-52Z" style="fill:url(#f)" transform="matrix(2.7958819866180424, 0, 0, 2.7958819866180424, -52.435547656350536, -427.258734393995)"/><path d="M159.8 173.04a26 26 0 1 1 0 52 26 26 0 0 1 0-52Z" style="fill:url(#g)" transform="matrix(2.7958819866180424, 0, 0, 2.7958819866180424, -52.435547656350536, -427.258734393995)"/><path d="M159.8 173.04a26 26 0 1 1 0 52 26 26 0 0 1 0-52Z" style="fill:url(#h)" transform="matrix(2.7958819866180424, 0, 0, 2.7958819866180424, -52.435547656350536, -427.258734393995)"/><path d="M102.2 173.04a26 26 0 1 1 0 52 26 26 0 0 1 0-52Z" style="fill:url(#i)" transform="matrix(2.7958819866180424, 0, 0, 2.7958819866180424, -52.435547656350536, -427.258734393995)"/><path d="M102.2 173.04a26 26 0 1 1 0 52 26 26 0 0 1 0-52Z" style="fill:url(#j)" transform="matrix(2.7958819866180424, 0, 0, 2.7958819866180424, -52.435547656350536, -427.258734393995)"/><path d="M44.8 173.04a26 26 0 1 1 0 52 26 26 0 0 1 0-52Z" style="fill:url(#k)" transform="matrix(2.7958819866180424, 0, 0, 2.7958819866180424, -52.435547656350536, -427.258734393995)"/><path d="M44.8 173.04a26 26 0 1 1 0 52 26 26 0 0 1 0-52Z" style="fill:url(#l)" transform="matrix(2.7958819866180424, 0, 0, 2.7958819866180424, -52.435547656350536, -427.258734393995)"/><path d="M310.03 208.1c-2.07-6.7-1.62-12.6 0-18.8 1.72-.1 3.44-.18 5.16-.25 2.45-.1 4 .9 3.6 4.88a7.36 7.36 0 0 1-1.76 4.33c1.26.58 1.94 2.46 2.11 4.64.36 4.49-1 6-3.84 5.7-1.75-.11-3.5-.34-5.27-.5Zm2.42-14.51a28.87 28.87 0 0 0-.39 3.2h1.6c.77 0 1.34-.55 1.46-1.7.16-1.52-.54-1.55-1.35-1.54l-1.32.04Zm-.4 6.73c.05 1.2.18 2.4.38 3.58l1.65.08c.93 0 1.57-.24 1.43-1.72-.14-1.73-1-1.87-2.25-1.91l-1.22-.03Zm7.84 7.94c.1-6.34 2.32-12.78 4.91-19.28l4.58-.06c1.23 6.49 3.46 13 4.92 19.53h-4.5l-.68-2.58h-4.69c-.09.85-.15 1.7-.19 2.55l-4.35-.16Zm6.73-13.45a85.75 85.75 0 0 0-1.53 7h3.07c-.58-2.32-1.12-4.7-1.54-7Zm9.18 13.68c.35-6.5.35-13 0-19.48h4.17c.65 4.94.8 9.93.46 14.9l6.1-.08c-.22 1.5-.49 2.98-.84 4.45-3.24.15-6.57.2-9.89.2Zm11.1-.23a45.07 45.07 0 0 0 .07-19c1.07.06 2.36.2 3.43.28a32.99 32.99 0 0 1 .63 14.05h4.38c-.39 1.46-.89 2.9-1.5 4.29-2.53.2-4.46.22-7.02.38Z" class="cls-13" style="fill:#fff" transform="matrix(2.7958819866180424, 0, 0, 2.7958819866180424, -52.435547656350536, -427.258734393995)"/><path d="M47.52 183.49c-1.33 0-2.55 0-3.72-.07-3.1-.16-6.2-.08-9.27.23h-.28l-.08.28c-1.67 6.72-2.94 15.14-.86 31.25v.4h.74c1.6 0 3.1.09 4.63.09 1.36 0 2.74 0 4.23-.13h.4v-.4c-.08-3.1-.08-6.21-.08-9.26h4.7c4.8-.06 8.4-1.3 10.7-3.7a10.14 10.14 0 0 0 2.6-7.46c-.27-6.77-5.52-11.05-13.71-11.23Zm3.7 10.6a3.3 3.3 0 0 1-.91 2.39 4.74 4.74 0 0 1-3.36 1.24h-3.8c0-1.2.06-2.48.09-3.74 0-1 0-1.9.07-2.8h2.49c1.65-.01 5.43.25 5.43 2.93v-.01Zm51.1-11.6a16.33 16.33 0 0 0-15.23 10.1 16.17 16.17 0 0 0-1.3 6.29c.13 9.63 7 16.7 16.5 16.8 9.2 0 16.64-7.52 16.53-16.72a16.58 16.58 0 0 0-16.5-16.47Zm-5.6 16.4c0-3.9 1.45-8.05 5.53-8.07h.2a4.6 4.6 0 0 1 3.28 1.3c1.42 1.39 2.28 3.93 2.28 6.78 0 3.13-.74 8.39-5.64 8.4-5.25.03-5.65-6.42-5.65-8.38v-.02Zm80.9-14.4h-.3c-2.53-.08-3-.1-5.65-.15h-1.94v.42c.24 5.5-.32 11-1.66 16.35-.7-3.87-1.61-7.38-2.57-11.06-.46-1.8-.94-3.63-1.42-5.6l-.07-.27h-.28a71.2 71.2 0 0 0-7.45 0h-.3l-.06.27c-.6 2.48-1.26 4.76-1.9 7a104 104 0 0 0-2.44 9.69 57.11 57.11 0 0 1-1.35-16.44v-.41h-7.5l-.07.3c-2.15 8.13-.26 17.9 6 30.76l.1.2h.24c2.07 0 3.13.08 4.15.08 1.02 0 1.86 0 3.54-.06h.34v-.34c.55-5.6 1.67-11.37 2.77-17 1.12 5.59 2.25 11.36 2.8 17v.36h.37c1.58-.07 3-.07 4.42-.07h4.23l.1-.22c5.57-11.5 7.65-22.32 5.87-30.45l.03-.36Zm37.12 23v-4.11c4.14 0 8.35 0 12.5-.1h.4v-7.92h-.41c-4.1-.1-8.31-.14-12.5-.11v-3.66c3.28 0 6.45 0 9.8.14l5 .1h.5l-.08-.48a36.55 36.55 0 0 0-1.93-6.86l-.1-.24h-.24a78.13 78.13 0 0 0-22.13 0h-.32l-.06.29a67.54 67.54 0 0 0 0 29.94l.07.28h.28c3.93.54 7.89.82 11.86.85 3.78-.02 7.56-.29 11.32-.8h.25l.09-.23c.8-2.29 1.28-4.68 1.41-7.1v-.47h-.49c-5.03.37-10.16.48-15.22.48Zm74.5 1.1c.44-5.64-1.78-7.08-4.66-8.2a6.86 6.86 0 0 0 4.45-7.22c-.57-6.6-5.14-9.91-14-10.12h-1.72c-3.49-.13-6.98.12-10.4.76h-.25l-.07.23c-3.48 10.34-3.8 21.5-.86 30.66l.07.24h.25c2.31.4 4.65.6 7 .6h2.07v-.43c-.17-3.56-.23-7.21-.28-10.74v-.1h2.75c2 0 3.3.36 4 1.12.9.93 1 2.54 1 4.68-.15 1.71-.08 3.44.2 5.15l.1.32h.33c1-.07 2-.1 2.93-.13 2.1-.02 4.21-.16 6.3-.42h.3l.3-1.73-.57.1c.04-.39.1-.77.2-1.14.3-1.19.5-2.4.63-3.6l-.08-.03Zm-10.22-14.1c.01.29-.02.59-.1.87-.1.27-.27.53-.46.75-.65.66-1.94 1-4 1h-3.66c0-1.77 0-3.6.1-5.57 1.44 0 2.91-.06 4.34-.06 2.34 0 3.74 1.1 3.78 3Z" class="cls-14" style="fill:#101820" transform="matrix(2.7958819866180424, 0, 0, 2.7958819866180424, -52.435547656350536, -427.258734393995)"/></g></svg>