<svg viewBox="49.5 127.1 275.1 171.7" xmlns="http://www.w3.org/2000/svg"><path fill="#524FA1" d="M276.3 149.6c68.9 0 128 6.4 185.6 23.4 30.7 9 60.1 20.8 86.6 39.1a131.7 131.7 0 0 1 29.8 27.6c21.6 28 21.1 59.7-1.3 87-16.3 20.1-37.9 33.3-60.7 44.5l-13.1 6.3c2 4 4.3 8.1 6.3 12.3a102 102 0 1 1-194 34c1-9 1-9-7.9-8.8-35.9 1-71.7-.3-107.3-4.7-50.8-6.3-100.3-17.4-146.8-39.6-19.8-9.4-38.1-21-53.6-36.8-31-31.6-31.2-71.3-.1-103 20-20.6 44.8-33.9 71-44.6 38.5-15.8 78.7-25 119.8-30.6 31.3-4.2 62.9-6.3 85.7-6.1Z" transform="matrix(.44537 0 0 .44537 60 60.4)"/><path fill="#EC1C24" d="M284.7 162.2c60.2.4 118.8 6.6 175.9 23.9 31 9.3 60.7 21.4 86.6 41.2a110 110 0 0 1 20.2 19.6c19 24.3 18.5 49.6-1.7 73-16.5 19.2-37.7 31.5-60.1 42-10.5 5-10.5 4.6-19.2-3.5a99.2 99.2 0 0 0-59.9-26.7 100 100 0 0 0-79.3 27 94.4 94.4 0 0 0-25.6 38.5c-1.2 3.4-3.1 4.7-6.6 4.8-64.1 2-127.6-2.5-189.8-19-33.2-8.8-65.2-20.4-94-39.9-10.3-7-19.7-14.9-27.5-24.7-19.7-24.6-19-51 2-74.7 17.2-19.4 39-32 62.3-42.3a459.3 459.3 0 0 1 121.3-32.6c31.9-4.5 64-6.3 95.4-6.6Z" transform="matrix(.44537 0 0 .44537 60 60.4)"/><path fill="#FEFEFE" d="M382.8 421.7c11.5-4.3 22.5-5.6 33.7-5.8 18.2-.3 36.1 1.6 52.6 10.4 10.2 5.5 17.5 13 16.7 25.7-.6 9.2-5.6 16-12.6 21.3a73 73 0 0 1-33.8 13c-24.6 4-49 3.9-73.1-3.4-6.6-2-12.9-5-18.4-9.1-2.4-2-4.4-4-6.1-6.6-1.8-2.6-4.2-6-3-8.7 1.2-2.7 5-1 7.7-1 9.9-.2 19.8 0 29.7-.2 2.7 0 4.5.3 5.8 3.3 2.3 5.3 7.2 7.8 12.5 9.2a58.3 58.3 0 0 0 32.2-.3c2.2-.7 4.4-1.7 6.3-3 5.6-3.3 9.5-8 9.3-15-.1-6.9-4.2-11.4-10-14.4-9.3-4.8-19.4-5.1-29.5-4.1-6.8.7-13.5 2.2-19.2 6.7-.8.6-1.7.8-2.7.8h-36.3l12.8-50.8c2.2-8.8 2.3-8.8 11.3-8.8h104c3.8 0 5.7.6 5.2 4.8-.6 4.1 1.7 9.5-1 12.1-2.5 2.6-8 .8-12 .8h-69.5c-3.7 0-5.7.7-6.6 4.7-1.5 6-3.8 11.6-6 18.4Z" transform="matrix(.44537 0 0 .44537 60 60.4)"/><path fill="#FED41D" d="m305.6 216-13.8 10.7c-7 5.4-14 11-21.2 16.3-4.3 3.2-7 2.2-8-3-.7-4-3.5-5.6-6.5-7.1a110 110 0 0 0-33.7-9.3 192.2 192.2 0 0 0-76.8 2.7 90.1 90.1 0 0 0-33.8 16c-29 22.8-28.2 61.2 1.9 82.7a107.3 107.3 0 0 0 48.6 17.8c27.6 4 55 2.8 82-4.8 6.6-2 13-4.3 18.7-8.5 2.2-1.5 4.1-3.5 4.4-6.4.4-5 2.2-6 6.6-3.1l23.2 16 14 9.5c-.8 1.1-1.6 1.5-2.5 1.4-11.6-1.3-22 3.7-32.5 7.4a247.7 247.7 0 0 1-69.3 13 274 274 0 0 1-97.8-10.4c-22.5-7-43.3-17.4-58.4-36.4-21-26.6-18.3-58.1 6.6-82.2 17.3-16.8 38.5-26 61.3-31.9 34.2-8.8 69-10 104.2-6.6 21.1 2 41.5 7.3 61.5 14 5 1.6 9.9 3.4 15.1 1 2-.8 3.4.6 6.2 1.1ZM429.9 312H395c2.1-2.1 5.5-1.6 6-4.2.3-2.2.2-4.7.2-7 0-16-.1-32.2.1-48.2 0-4.6-.6-8-5.5-9.5h34c-5.5 1.5-5.7 5.4-5.5 9.8.3 5 .2 10 0 15.1 0 2.6.7 3.6 3.4 3.5h50.8c2.5 0 3.6-.7 3.5-3.4 0-6.4-.2-12.8 0-19.1.1-3.7-2.3-4.4-4.8-5.9H512c-2.5 1.7-5.6 1.5-6 4-.4 2-.3 4.3-.3 6.5 0 16.4.1 32.8-.1 49.2 0 4.4.4 7.7 5.4 9.1H477c5.4-1.5 5-5.6 5-9.7-.2-5.5-.2-11 0-16.6 0-3-.6-4.1-4-4h-50.2c-3 0-3.6 1-3.6 3.7.2 5.6.3 11.1 0 16.6-.1 4.7 0 8.6 5.7 10.1Z" transform="matrix(.44537 0 0 .44537 60 60.4)"/><path fill="#FED41D" d="m272.1 304.3 13-11.7c1.7-1.6 3.4-2.1 4.2.5 1 3.4 3.7 4.3 6.3 5.1a106 106 0 0 0 50 3.5c2.5-.4 4.8-1.7 7-2.8 2.7-1.4 4.5-3.7 4.3-6.8-.2-3.3-2.8-4.4-5.4-5.3-8.1-2.9-16.7-3.4-25.1-4.1-10.7-1-21.4-1.7-31.9-4.1-4.6-1.1-9-2.5-13-5.2-7.2-4.9-8.1-12.9-2.2-19.4 4.2-4.6 9.7-7 15.6-8.6 17-4.9 34.4-4.2 51.8-2.4 8 .8 15.9 2.2 23.6 4.7 2.4.8 5-1 7 .7l-12 12.6c-1 1-2.5 1-3.2 0-4-6.4-10.8-6.9-17.1-7.8-12.2-1.9-24.3-2.1-36.5.4a35 35 0 0 0-7 2.3c-2.3 1-4.1 2.5-4.1 5.3s2 4.3 4 5.2c6.6 3 13.6 3.6 20.6 4.3 13.2 1.5 26.4 1.9 39.3 5.2 4.8 1.2 9.7 2.7 13.6 6.1 6.2 5.5 6.6 13 .8 19-6.9 7.1-16.1 9.4-25.4 10.8a155.5 155.5 0 0 1-64.6-3.7c-4.2-1-8.3-2-12.6-2.3l-1-1.5ZM187.8 243h39.3c-5.2 2.7-3.3 5.3-1.8 7.6l35.7 55.8c1.6 2.4 3.7 3.7 6 5.5h-31.4c3.8-2 2.9-3.8 1.5-5.9-7.9-12.4-7.9-12.4-22.4-12.4-9.3 0-18.5.2-27.7 0-3.4-.2-5.7 1-7.4 3.8a84.2 84.2 0 0 1-5.5 7.8c-2.2 2.7-2.9 5 2 6a92.6 92.6 0 0 1-30.6.2c6.6-1.8 8.8-7.3 11.8-12l32.2-49.1c1.6-2.3 4-4.6-1.7-7.3Z" transform="matrix(.44537 0 0 .44537 60 60.4)"/><path fill="#EC1C24" d="m205.7 256.1 16.6 27.2H189l16.7-27.2Z" transform="matrix(.44537 0 0 .44537 60 60.4)"/></svg>