<svg viewBox="52.5 133.3 297.2 163.3" xmlns="http://www.w3.org/2000/svg"><g transform="matrix(.27252 0 0 .27252 -7.5 93.2)"><path d="M1297.3 176.1a67 67 0 0 0-49-26.9c-3.7-.8-10.7-2-19.7-2a82 82 0 0 0-62 26.3c-22.5 24.7-31.3 64.8-26.2 119.1.7 7.3 1.1 13.9 1.1 20.1.4 28.3.4 100.9-7.4 166.5-.4 3.2-4.7 3.8-6 .9-2.8-6.5-6.1-12.8-10.1-19-18.6-29-48.2-51-83.4-61.9a159.5 159.5 0 0 0-47.2-7.2c-19.8 0-39.1 3.9-56.4 11.3a10 10 0 0 1-13.8-8.5 16.5 16.5 0 0 0-18.3-15.3l-7.6.9c-6.4.7-12.2-4-12.7-10.5l-3.2-40.5c-.6-8-8.1-13.6-15.9-11.9l-21.3 4.4a23.8 23.8 0 0 0-16 11.8c-25.1 46.3-62.6 55.8-76.2 57.8l.2-4.3a15 15 0 0 0-16.1-15.8l-19.7 1.4c-6.9.5-13.3 4-17.4 9.6-31 42.5-69.9 47.1-85.1 47.1l-3.3-.1c-3.2-.4-6.2-1.6-8.6-3.8a139.2 139.2 0 0 0-92.5-33.7c-12.8 0-25.8 1.6-38.5 4.7-28.3 7-53.7 21.3-72.9 40.6a4.5 4.5 0 0 1-7.7-2.8l-6.7-64a20.6 20.6 0 0 0-23.1-18.3l-121.5 15.5c-8.2 1-13.9 8.7-12.7 16.8l4.4 28.7a16.9 16.9 0 0 0 16.6 14.3h3.8l19 184.7-1.7.2a20.7 20.7 0 0 0-18.7 22.3l1.6 19.7c.9 10.9 10.5 19 21.4 17.9L406.6 659a23.3 23.3 0 0 0 20.8-27.1l-1.2-7.1c18 7.9 37.9 12 58.5 12 12.8 0 25.8-1.6 38.5-4.7a155 155 0 0 0 68.3-36.2l-.1 1.5a56.1 56.1 0 0 0 15.9 42.1c21.4 22 58 25.3 78 25.3 4 0 6.7-.1 7.7-.2l1.2-.1 1.3-.2c43.9-7.6 64.2-31.2 73.6-51.9 2.4-5.4 8.8-7.6 14.1-5a105 105 0 0 0 45.4 9c17 0 30.3-2.7 30.9-2.8l1.2-.2 1.2-.4a121 121 0 0 0 26.3-11.6c7-4.2 15.9-3.5 22.3 1.6a159.5 159.5 0 0 0 132.4 31.6c4.4-1 8.2 3 7 7.3a82.6 82.6 0 0 0 74.5 104.3 82.3 82.3 0 0 0 66.1-136.8 21.9 21.9 0 0 1-5.3-18.6c.4-1.8 35.6-177 83.1-245.9a246 246 0 0 0 37.7-83.2c8.4-37.1 5.5-65.8-8.7-85.6zM880.6 442.9l-.1-1.9 1.8-.3-1.7 2.2zm-133.4 90.2-12.4 2.4 1.8-39.1 7.1-.3 3.5 37z"/><path fill="#FFEC01" d="m260.3 629.7 22.4-2.1-22.4-217.3h-19l-4-26 122.5-15.6 25.8 247.5h21.1l4.2 25.1-148.5 14.1z"/><path fill="#ED1B24" d="m244.7 389.9 109.4-14 25.7 246.7h21.5l2.1 12.9-135.1 12.9-1.1-12.9 22.5-2.1-23.6-229.6h-19.3z"/><path fill="#FFEC01" d="M484.1 619.6c-53.6 0-98.7-31.2-109.7-75.9-13.8-55.7 28.5-114.2 94.2-130.4 11.3-2.8 22.9-4.2 34.4-4.2 53.6 0 98.7 31.2 109.7 75.9a96 96 0 0 1-17.6 80.5 133.9 133.9 0 0 1-76.6 49.9 149.2 149.2 0 0 1-34.4 4.2z"/><ellipse transform="rotate(-13.9 493.6 514.3)" fill="#ED1B24" cx="493.5" cy="514.3" rx="116.3" ry="97.6"/><path fill="#FFEC01" d="M1009.9 620.7c-14.1 0-28.3-2.2-42.1-6.4-64.8-20-103.7-80.8-86.8-135.5 12.8-41.6 55.4-69.5 105.9-69.5 14.1 0 28.3 2.2 42.1 6.4 64.8 20 103.7 80.8 86.8 135.5-12.8 41.6-55.4 69.5-105.9 69.5z"/><ellipse transform="rotate(17.1 998.3 515)" fill="#ED1B24" cx="998.4" cy="515" rx="116.5" ry="97.5"/><path fill="#FFEC01" d="M992.7 589.5h-1.1l-1.5-.1a14.4 14.4 0 0 1-13.3-15.5l9.8-125.1c.6-7.5 6.9-13.4 14.4-13.4h1.1l1.5.1c8 .6 13.9 7.6 13.3 15.6l-9.8 125.1a14.6 14.6 0 0 1-14.4 13.3z"/><path d="m996.4 583.4-10.1-.8c-2.1-.2-3.6-2-3.4-4l10.5-133.7c.2-2.1 2-3.6 4-3.4l10.1.8c2.1.2 3.6 2 3.4 4L1000.4 580c-.2 2-2 3.5-4 3.4z"/><path fill="#FFEC01" d="M510.3 591.9c-6.8 0-12.6-4.6-14.1-11.2l-29.4-125.2c-.9-3.8-.2-7.6 1.8-10.9 2-3.3 5.2-5.6 9-6.5l1.5-.3a14.4 14.4 0 0 1 17.4 10.8l29.4 125.2c1.8 7.8-3 15.6-10.8 17.4l-1.5.3c-1.1.3-2.2.4-3.3.4z"/><path d="m517.7 583.9-9.8 2.3c-2 .5-4-.8-4.5-2.8l-31.3-133.6c-.5-2 .8-4 2.8-4.5l9.8-2.3c2-.5 4 .8 4.5 2.8l31.3 133.6c.5 2-.8 4.1-2.8 4.5z"/><path fill="#FFEC01" d="M684.7 647.4c-17.3 0-48.7-2.6-65.7-20.1a39.4 39.4 0 0 1-11.1-29.6l8.2-125.6-21.1-4.9v-21.6l7.2.8s1.9.2 5.2.2c17.9 0 63.3-5.3 99-54.1l1.8-2.4 20.3-1.4-3.6 65.7 36.5.7-1.5 23.3-40 1.4-8.1 125.6c1.2 2.3 3.2 5 4.7 5 .3 0 8.5-.4 21.3-36l1.3-3.6 20-3.1.5 7c0 .6 3.1 60.3-67.5 72.5l-.3.1h-.3l-6.8.1z"/><path fill="#ED1B24" d="M601.5 452.8s63.6 7.2 110.1-56.5l10-.7-3.6 65.1 36.5.7-.7 10.7-40 1.4-8.6 133s14.3 37.2 38.6-30l9.3-1.4s3.6 54.3-62.2 65.8c0 0-77.9 5-76.5-42.9l8.6-130.9-21.5-5v-9.3z"/><path fill="#FFEC01" d="M828.1 598.9c-37.1 0-59-14.4-61.7-40.5l-8.5-125.6-21.6-2.1-2.9-21.4 7.2-.2c2.5-.1 60.9-2.3 96.1-67.2l1.4-2.6 19.9-4.1 5.1 65.6 36.3-4.1 1.5 23.3-39.5 6.7 8.6 125.6c1.4 2.1 3.7 4.3 5.1 4.3.1 0 8.3-.4 16.5-38.6l.8-3.7 19.4-5.7 1.4 6.9c.1.6 11.1 59.3-57.3 80.9l-.3.1-.3.1c-.2 0-12.2 2.3-27.2 2.3z"/><path fill="#ED1B24" d="M740.8 415.6s64-1.3 101.7-70.6l9.8-2 5.1 65 36.2-4.1.7 10.7-39.5 6.7 9.1 133s19.1 35 34.3-34.9l9-2.6s10.7 53.4-52.9 73.4c0 0-76.6 15.3-81.5-32.4L764 426.9l-21.9-2.1-1.3-9.2z"/><path fill="#FFEC01" d="m1127 582.9 2.7-6.7c28.6-70.2 28.9-219.6 28.4-263.7a287 287 0 0 0-1.2-21.5c-4.7-49.3 2.7-84.9 21.8-106a65.2 65.2 0 0 1 49.3-20.7c8.5 0 14.9 1.4 16.8 1.8a51 51 0 0 1 38 19.9c11.2 15.7 13.2 39.7 5.9 71.4a225 225 0 0 1-35.1 77.3c-49.4 71.6-85.4 250.5-85.8 252.3l-1.4 6.8-39.4-10.9z"/><path fill="#ED1B24" d="m1135.6 578.7 25.7 7.2s36.1-181.1 86.8-254.7a222.7 222.7 0 0 0 34.1-75.2c8.6-37.2 7.5-78.8-38.7-83.5 0 0-93.9-25.4-80.4 117.9.7 7.3 1.2 14.7 1.3 22 .7 44.5.3 194.8-28.8 266.3z"/><path fill="#FFEC01" d="M1128.5 728.8a65.2 65.2 0 1 1 .1-130.3 65.2 65.2 0 0 1-.1 130.3z"/><circle fill="#ED1B24" cx="1128.5" cy="663.7" r="58.6"/></g></svg>