<svg id="b" xmlns="http://www.w3.org/2000/svg" xmlns:xlink="http://www.w3.org/1999/xlink" viewBox="0 0 156.35 168.14"><defs><linearGradient id="d" x1="7.12" y1="152.17" x2="37.38" y2="152.17" gradientUnits="userSpaceOnUse"><stop offset="0" stop-color="#f47920"/><stop offset="0" stop-color="#524fa1"/><stop offset="1" stop-color="#2e3192"/></linearGradient><linearGradient id="e" x1="21.89" y1="161.95" x2="21.89" y2="141.55" gradientUnits="userSpaceOnUse"><stop offset=".08" stop-color="#faa61a"/><stop offset=".89" stop-color="#f47920"/></linearGradient><linearGradient id="f" x1="34.3" y1="152.57" x2="43.98" y2="152.57" gradientUnits="userSpaceOnUse"><stop offset="0" stop-color="#524fa1"/><stop offset="1" stop-color="#2e3192"/></linearGradient><linearGradient id="g" x1="38.64" y1="158.67" x2="38.64" y2="145.96" xlink:href="#e"/><linearGradient id="h" x1="32.32" y1="137.15" x2="48.8" y2="137.15" xlink:href="#f"/><linearGradient id="i" x1="40.06" y1="141.69" x2="40.06" y2="132.2" gradientUnits="userSpaceOnUse"><stop offset=".08" stop-color="#7e78b8"/><stop offset="1" stop-color="#524fa1"/></linearGradient><linearGradient id="j" x1="44.53" y1="152.63" x2="60.93" y2="152.63" xlink:href="#f"/><linearGradient id="k" x1="52.23" y1="161.62" x2="52.23" y2="143.48" xlink:href="#e"/><linearGradient id="l" x1="57.31" y1="149.56" x2="79.39" y2="149.56" xlink:href="#f"/><linearGradient id="m" x1="67.85" y1="158.25" x2="67.85" y2="139.65" xlink:href="#e"/><linearGradient id="n" x1="87.19" y1="153.02" x2="108.27" y2="153.02" xlink:href="#f"/><linearGradient id="o" x1="97.22" y1="161.78" x2="97.22" y2="143.21" gradientUnits="userSpaceOnUse"><stop offset=".08" stop-color="#faa61a"/><stop offset="1" stop-color="#f47920"/></linearGradient><linearGradient id="p" x1="102.34" y1="149.12" x2="130.11" y2="149.12" xlink:href="#f"/><linearGradient id="q" x1="115.78" y1="157.56" x2="115.78" y2="140.12" xlink:href="#o"/><linearGradient id="r" x1="124.65" y1="152.96" x2="141.05" y2="152.96" xlink:href="#f"/><linearGradient id="s" x1="132.34" y1="162.04" x2="132.34" y2="143.28" xlink:href="#o"/><linearGradient id="t" x1="136.92" y1="149.37" x2="153.32" y2="149.37" xlink:href="#f"/><linearGradient id="u" x1="144.61" y1="158.45" x2="144.61" y2="139.68" xlink:href="#o"/><style>.ak{fill:#26247b}.am{fill:#524fa1}.an{fill:#f47920}.ap{fill:#ffd520}.as{fill:#ed1c24}</style></defs><g id="c"><path class="am" d="M123.53 38.97s-31.96 8.97-31.6 8.64c1.93-1.7 8.1-33.72 8.1-33.72L92.26 16s-2.64 12.63-4.11 19.12c-1.07 5.78-7.32 6.3-6.21 1.2l3.86-18.67-7.16 1.91s-3.49 17.16-4.65 21.69c-.56 2.22-2.8 1.54-2.41-1.39.02-.26 4.06-19.5 4.06-19.5l-5.8 1.57-.95 3.12c-2.84-3.89-7.86-1.22-10.41 1.26a32.07 32.07 0 0 0-5.76 9.2c-1.77 4.06-2.36 8.52-4.13 12.58-.65 1.6-2.38 1.36-2.25-.35.1-3.6 8.33-40 8.33-40l-6.6-2.75-8.24 39.27s-.54 2.67-.8 4.26c-1.2 5.88.15 9.57 4.28 9.24 4.4-.35 7.17-4.44 8.36-6.2 1.03 1.16 2.36 2.77 3.88 3.08 5.15.14 8-3.87 11.38-8.98.17 2.18 1.23 4.01 3.5 4.58 3.43.74 6.43-4.52 6.4-4.63.21 2.24 4.17 3.27 6.62 1.08-.94 2.5-1 3.38-3.34 4 .11-.02-34.83 9.05-52.02 14.4-19.8 5.46-26 11.67-25.45 17.26.39 3.9 10.14 17.54 56.89-5.67.79-.4 17.02-8.27 23.03-15.26 11.2-2.31 38.17-6.27 38.17-6.27l2.81-16.17Zm-59.39.61c-.81 2.06-3.42 7.02-6.25 6.5-2.39-.44-.45-6.33.4-8.47.73-1.82 3.5-6.5 5.4-6.99 4.3-1.1 1.41 6.55.45 8.96Zm6.26 24.3c-7.01 3.45-18.25 8.63-28.67 11.95-13.37 4.82-29.13 7.5-28.93 4.13.18-3.05 17.92-7.7 27.28-10.23 7.02-1.9 31.23-6.46 30.32-5.85Z"/><path class="am" d="M17.32 91.09c-4.95 0-8.42-1.02-10.86-2.37-3.42-1.89-4.84-4.55-5-6.26-.72-7.27 8.13-13.5 26.3-18.52a925.32 925.32 0 0 1 28.55-8.14c-.26 0-.53.02-.8 0-1.56-.3-2.75-1.32-3.73-2.36-1.57 2.13-4.33 5.17-8.39 5.49-2.33.18-3.69-.75-4.41-1.57-1.58-1.78-1.96-4.92-1.12-9.08.25-1.57.8-4.26.8-4.26l8.53-40.68 8.84 3.69-.22.97c-2.23 9.85-7.95 35.68-8.28 39.53.84-1.95 1.4-3.95 1.98-6.06.59-2.13 1.2-4.33 2.12-6.44a33.39 33.39 0 0 1 5.97-9.53c1.97-1.92 5.1-3.82 8.05-3.58.98.08 1.88.4 2.66.93l.58-1.9 8.29-2.24-.4 1.89c-1.09 5.22-3.95 18.88-4.05 19.44-.07.52-.02.87.05 1.09l.06-.18c1.14-4.46 4.6-21.46 4.63-21.64l.15-.71 9.72-2.6-4.25 20.55c-.2.9-.12 1.61.21 1.9.24.22.66.24 1.12.08.93-.32 2.16-1.46 2.56-3.63 1.48-6.53 4.1-19.14 4.11-19.15l.15-.7 10.32-2.8-.36 1.86c-1.56 8.09-4.99 25.2-7.25 31.8 5.35-1.4 19.42-5.32 29.26-8.08l1.8-.5-3.27 18.86-.85.12c-.26.04-26.45 3.89-37.72 6.17-5.66 6.32-18.97 13.19-22.96 15.17-20.6 10.22-34.08 13.43-42.89 13.44Zm64.2-39.65.02.09-1.21.32c-3.6.93-35.69 9.31-51.9 14.36C7.34 72.03 3.4 78.13 3.8 82.23c.09.85 1 2.87 3.8 4.43 5.15 2.84 18.68 5.2 51.4-11.04 4.12-2.05 17.45-8.92 22.65-14.98l.26-.3.4-.09c9.99-2.06 32.73-5.46 37.4-6.15l2.34-13.49q-30.6 8.59-31.15 7.57l-.45-.82.7-.63c1.1-1.46 4.55-16.83 7.37-31.2l-5.27 1.42c-.57 2.75-2.7 12.85-3.96 18.42-.57 3.13-2.5 4.85-4.1 5.4a3.44 3.44 0 0 1-3.46-.55c-.58-.52-1.48-1.75-.95-4.16l3.47-16.78-4.61 1.22c-.68 3.34-3.48 17-4.51 21.03-.45 1.76-1.75 2.35-2.74 2.17-1.19-.23-2.32-1.58-2-4 .02-.18 1.26-6.14 3.69-17.7l-3.31.9-1.45 4.75-1.4-1.91a3.29 3.29 0 0 0-2.47-1.47c-2.03-.22-4.56 1.32-6.16 2.88a30.89 30.89 0 0 0-5.48 8.79 45.56 45.56 0 0 0-2.03 6.16c-.59 2.14-1.2 4.34-2.12 6.45-.51 1.28-1.68 2.01-2.84 1.73-.92-.21-1.79-1.11-1.66-2.64.09-3.33 6.8-33.27 8.13-39.2l-4.37-1.82-7.95 37.87s-.53 2.64-.79 4.21c-.69 3.4-.48 5.9.56 7.09.55.62 1.35.88 2.47.78 3.81-.3 6.37-4.06 7.46-5.67l.86-1.25 1.25 1.37c.83.95 1.97 2.24 3 2.45 4.13.15 6.63-3.14 10.15-8.47l1.9-2.87.26 3.42c.11 1.34.65 3.04 2.61 3.53 2.3.5 4.77-3.37 5.02-3.9l.8.36 1.43-.27c.02.07.03.14.03.22H78c.04.4.41.77 1 1 1 .39 2.52.33 3.67-.7l1.89 1.3-.28.77c-.6 1.65-1.04 2.83-2.75 3.58Zm-15.06-2.99c-1.78 2.59-3.72 4.97-6.25 6.3 9.75-2.64 17.82-4.75 19.52-5.2a3.4 3.4 0 0 0 1.3-.54c-1.05.14-2.08 0-2.9-.32a4.5 4.5 0 0 1-1.35-.82 16 16 0 0 1-.9 1.06c-1.86 2.01-3.83 2.86-5.71 2.45a5.5 5.5 0 0 1-3.71-2.93Zm-49.68 34.2c-1.93 0-3.43-.27-4.26-.9a2.13 2.13 0 0 1-.9-1.86c.17-2.9 6.49-5.47 27.04-11l1.12-.3c3.66-1 11.58-2.61 17.76-3.8 13.44-2.57 13.49-2.47 13.96-1.43l.41.92-1 .66c-7.47 3.68-18.54 8.74-28.82 12.01-7.52 2.71-18.85 5.7-25.31 5.7Zm45.91-16.41c-7.37 1.34-18 3.47-22.3 4.63l-1.11.3c-6.65 1.79-24.31 6.54-25.32 8.93 1.31 1.13 13.7-.46 27.37-5.38 7.25-2.3 14.9-5.51 21.36-8.48ZM58.33 47.3c-.21 0-.43-.02-.65-.06A2.35 2.35 0 0 1 56 46.02c-1.26-2.29.6-7.35 1.2-8.85s3.55-7.02 6.2-7.69c1.63-.42 2.54.14 3.02.68.81.93 1.57 2.96-1.18 9.86-.31.78-3.01 7.28-6.91 7.28Zm6.14-15.6c-.1 0-.26.01-.48.07-1.18.3-3.76 4.19-4.6 6.28-1.45 3.62-1.73 6.44-1.3 6.87 1.65.33 3.92-3.16 4.96-5.77 2.51-6.32 1.6-7.42 1.59-7.43-.01 0-.07-.02-.17-.02Z"/><path class="am" d="M20.35 56.17c-4.22 11.92-18.32 12-18.74 11.75.73-1.27.75-4.74.75-4.74s3.88-.74 5.67-2c3.81-2.7 4.83-6.44 5.94-9.85 2.6-7.96 3.3-15.44 6.95-23.38 1.51-3.28 3.02-4.76 4.58-6.97-.04-.11 2.43 4.6 2.35 4.74-2.08 3.6-3.72 7.46-3.82 11.07-.1 1.62-.2 3.1-.33 4.49 0 0 13.3-12.87 4.33-22.6-4.62-5.01-14.22-2.26-17.3 3.6-2.63 4.98-1.64 11.19.13 16.44l-2.48 6.76C4.71 37.15 1.33 28.16 6.4 19.5c5.4-9.22 21.31-14.89 29.95-4.14C44.97 26.12 37.37 44 22.73 49.5l-2.38 6.68Z"/><path class="am" d="M2.47 69.16c-.7 0-1.22-.08-1.46-.22L0 68.35l.58-1.01c.4-.69.6-2.9.6-4.16v-.97l.96-.19c1-.19 3.92-.9 5.2-1.81 3.26-2.3 4.3-5.5 5.3-8.6l.21-.65c1-3.03 1.72-6.05 2.42-8.97 1.13-4.7 2.3-9.56 4.58-14.53 1.15-2.5 2.3-4.01 3.43-5.48.41-.54.83-1.08 1.25-1.68l.8-1.16 1 1c.04.04 3.23 5 2.54 6.18-2.38 4.13-3.58 7.57-3.66 10.5l-.07 1.06c3.19-4.02 7.93-12 2.02-18.4-1.61-1.75-4.08-2.52-6.94-2.14-3.57.47-6.97 2.67-8.45 5.48-2.03 3.87-1.96 9.09.21 15.52l.14.4-3.64 9.9-1.18-2.68C3.44 37.2.1 27.9 5.37 18.9 8.76 13.13 15.72 8.9 22.71 8.38a16.58 16.58 0 0 1 14.55 6.24c3.76 4.7 4.86 10.85 3.07 17.35A28.34 28.34 0 0 1 23.66 50.4l-2.2 6.17c-2.33 6.58-7.48 9.67-11.38 11.1-2.75 1.01-5.8 1.49-7.61 1.49Zm1.04-5.02c-.03.72-.11 1.7-.3 2.6C6.7 66.49 16 64.93 19.25 55.78l2.56-7.2.52-.2a25.93 25.93 0 0 0 15.74-17.04c1.57-5.74.64-11.15-2.64-15.24-3.94-4.9-9-5.62-12.54-5.36-6.15.45-12.5 4.3-15.47 9.36-4.2 7.2-2.26 14.6.89 22.2l1.31-3.6c-2.26-6.9-2.23-12.6.07-16.98 1.85-3.5 5.87-6.15 10.24-6.72 3.59-.47 6.86.58 8.98 2.88 7.72 8.36.51 19.52-4.38 24.25l-2.29 2.21.3-3.17c.12-1.37.23-2.84.32-4.45.09-3.17 1.3-6.82 3.7-11.1-.27-.56-.77-1.57-1.22-2.43l-.17.23c-1.1 1.42-2.13 2.77-3.16 5.02-2.2 4.77-3.28 9.3-4.43 14.1-.72 2.97-1.45 6.03-2.47 9.16l-.21.63c-1.07 3.3-2.29 7.05-6.18 9.8-1.43 1.02-3.85 1.7-5.2 2.01Z"/><path class="am" d="M80.11 131.9a52.16 52.16 0 1 0 0-104.3 52.16 52.16 0 0 0 0 104.3Z"/><path d="m62.72 95.4 30.84-20.5h.27c-.52 1.46-3.54 8.87-7.6 20.34l-23.5.15Zm52.58-.36-10.49.07 10.47-29.57-21.1.14-44.84 29.01-2.85 8.04 37.17-.26-3.7 10.48 18.58-.13 3.7-10.47 10.5-.07 2.56-7.24Z" fill="#fff"/><g><path class="ap" d="M128.55 35.63s-31.96 8.98-31.6 8.65c1.93-1.72 8.1-33.73 8.1-33.73l-7.79 2.1s-2.62 12.63-4.1 19.12c-1.06 5.79-7.31 6.3-6.21 1.2l3.86-18.66-7.16 1.9S80.15 33.37 79 37.9c-.56 2.22-2.8 1.54-2.42-1.39.03-.25 4.06-19.49 4.06-19.49l-5.79 1.56-.95 3.13c-2.84-3.9-7.85-1.22-10.41 1.25a32.17 32.17 0 0 0-5.76 9.2c-1.77 4.07-2.36 8.53-4.13 12.59-.65 1.6-2.38 1.36-2.25-.35.1-3.61 8.33-40 8.33-40l-6.6-2.76-8.24 39.27s-.54 2.66-.8 4.26c-1.2 5.88.15 9.57 4.28 9.24 4.4-.35 7.17-4.44 8.36-6.2 1.03 1.16 2.37 2.77 3.88 3.08 5.14.13 8-3.86 11.37-8.99.19 2.19 1.24 4.02 3.51 4.59 3.42.74 6.43-4.51 6.4-4.62.22 2.23 4.16 3.25 6.62 1.08-.94 2.49-1 3.37-3.34 4 .12-.03-34.83 9.04-52.02 14.4C13.3 67.2 7.1 73.42 7.65 79c.39 3.9 10.14 17.54 56.89-5.67.79-.4 17.03-8.28 23.03-15.27 11.2-2.3 38.17-6.27 38.17-6.27l2.8-16.17Zm-59.39.61c-.82 2.06-3.42 7.03-6.24 6.5-2.39-.44-.46-6.33.4-8.47.72-1.82 3.5-6.5 5.4-6.99 4.3-1.1 1.4 6.56.44 8.96Zm6.26 24.3C68.41 64 57.17 69.18 46.75 72.5 33.38 77.3 17.62 80 17.8 76.62c.19-3.04 17.93-7.7 27.3-10.23 7-1.89 31.22-6.46 30.31-5.85Z"/><path class="an" d="M22.34 87.75c-4.95 0-8.43-1.01-10.87-2.36-3.42-1.9-4.83-4.56-5-6.27-.71-7.27 8.14-13.5 26.31-18.51a911.92 911.92 0 0 1 28.56-8.15c-.26.01-.53.02-.81 0-1.56-.3-2.75-1.32-3.73-2.35-1.58 2.13-4.33 5.16-8.38 5.48-2.34.19-3.7-.75-4.42-1.57-1.58-1.78-1.96-4.92-1.12-9.08.25-1.57.8-4.26.8-4.26L52.2 0l8.84 3.7-.22.96c-2.23 9.87-7.96 35.74-8.28 39.54.84-1.95 1.4-3.95 1.98-6.06.59-2.14 1.2-4.34 2.12-6.45a33.5 33.5 0 0 1 5.97-9.53c1.98-1.92 5.1-3.86 8.06-3.58.97.09 1.87.4 2.65.94l.58-1.91 8.28-2.23-.4 1.88c-1.09 5.23-3.95 18.92-4.04 19.44-.07.52-.02.87.05 1.1l.05-.19c1.14-4.46 4.6-21.46 4.64-21.64l.15-.71 9.72-2.59-4.26 20.54c-.2.9-.11 1.61.22 1.91.24.2.66.24 1.13.08.92-.32 2.15-1.47 2.55-3.64 1.49-6.53 4.1-19.14 4.1-19.15l.16-.7 10.31-2.79-.36 1.86c-1.56 8.08-4.98 25.2-7.25 31.8 5.36-1.4 19.43-5.32 29.27-8.09l1.8-.5-3.27 18.86-.85.12c-.26.04-26.45 3.9-37.72 6.18-5.67 6.34-18.99 13.2-22.99 15.17-20.57 10.22-34.05 13.43-42.86 13.43Zm64.2-39.64.01.09-1.35.35c-5.92 1.54-36.21 9.48-51.75 14.33-21.1 5.81-25.03 11.91-24.62 16.01.08.85.98 2.88 3.79 4.43 5.15 2.85 18.67 5.2 51.4-11.04 4.1-2.03 17.43-8.89 22.65-14.98l.26-.3.4-.08c9.99-2.06 32.72-5.47 37.4-6.16l2.33-13.49q-30.58 8.6-31.14 7.58l-.45-.81.7-.64c1.1-1.46 4.55-16.83 7.36-31.21l-5.26 1.41a1342.5 1342.5 0 0 1-3.96 18.43c-.57 3.13-2.5 4.85-4.1 5.4a3.44 3.44 0 0 1-3.45-.54c-.59-.52-1.49-1.75-.97-4.17l3.48-16.78-4.61 1.22c-.68 3.34-3.48 17-4.52 21.03-.44 1.76-1.72 2.35-2.73 2.17-1.19-.23-2.32-1.58-2-4 .02-.18 1.26-6.14 3.68-17.7l-3.3.89-1.45 4.76-1.4-1.9a3.29 3.29 0 0 0-2.46-1.48c-2.04-.14-4.56 1.32-6.17 2.88a30.97 30.97 0 0 0-5.48 8.8c-.87 1.98-1.43 4-2.02 6.16-.6 2.13-1.2 4.34-2.13 6.45-.51 1.28-1.7 1.99-2.84 1.73-.91-.21-1.78-1.12-1.66-2.65.09-3.33 6.8-33.27 8.13-39.2l-4.37-1.82-7.95 37.88s-.53 2.62-.79 4.2c-.69 3.4-.48 5.9.56 7.09.55.62 1.36.9 2.47.79 3.8-.3 6.36-4.06 7.46-5.66l.85-1.25 1.23 1.33c.84.96 2 2.26 3.03 2.47 4.15.01 6.74-3.3 10.15-8.48l1.88-2.85.28 3.4c.16 1.96 1.04 3.15 2.62 3.54 2.3.5 4.76-3.36 5.01-3.9l.79.37 1.44-.3a.9.9 0 0 1 .03.24h.01c.04.4.42.77 1 1 1 .4 2.52.33 3.66-.69l1.89 1.3-.28.76c-.6 1.65-1.03 2.83-2.75 3.59Zm-15.06-3c-1.78 2.58-3.71 4.98-6.25 6.3 9.03-2.44 16.7-4.44 19.37-5.14a3.9 3.9 0 0 0 1.43-.6c-1.05.14-2.07 0-2.88-.32-.52-.2-.97-.48-1.35-.81-.31.4-.63.76-.85 1-1.88 2.05-3.87 2.92-5.76 2.5a5.5 5.5 0 0 1-3.7-2.93ZM21.8 79.31c-1.93 0-3.43-.27-4.26-.89a2.14 2.14 0 0 1-.9-1.87c.17-2.86 6.75-5.54 27.1-11.02l1.06-.28c3.68-1 11.58-2.6 17.76-3.8 13.44-2.57 13.49-2.47 13.96-1.43l.41.91-.99.67c-7.48 3.68-18.56 8.75-28.83 12.02-7.52 2.71-18.84 5.69-25.3 5.69Zm45.95-16.43c-7.34 1.34-17.93 3.46-22.34 4.65l-1.05.29c-6.67 1.79-24.37 6.55-25.38 8.95 1.31 1.12 13.7-.46 27.37-5.38a196.3 196.3 0 0 0 21.4-8.5Zm-4.4-18.92c-.22 0-.43-.02-.65-.06a2.34 2.34 0 0 1-1.67-1.22c-1.27-2.3.6-7.35 1.2-8.85.58-1.5 3.52-7 6.2-7.7 1.62-.4 2.53.15 3 .7.82.93 1.59 2.96-1.17 9.85-.31.78-3.03 7.28-6.91 7.28Zm6.13-15.6c-.1 0-.26.01-.47.07-1.19.3-3.77 4.2-4.6 6.27-1.43 3.58-1.72 6.46-1.29 6.88 1.68.3 3.94-3.26 4.95-5.77 2.5-6.28 1.6-7.41 1.6-7.42-.02-.01-.07-.03-.2-.03Z"/><g><path class="ap" d="M25.38 52.84c-4.23 11.91-18.33 12-18.75 11.75.73-1.28.75-4.74.75-4.74s3.89-.75 5.67-2.01c3.8-2.7 4.83-6.44 5.94-9.85 2.6-7.97 3.3-15.45 6.96-23.38 1.5-3.27 3-4.76 4.57-6.97-.03-.1 2.43 4.6 2.35 4.74-2.08 3.62-3.72 7.46-3.82 11.07-.1 1.63-.2 3.1-.33 4.5 0 0 13.3-12.88 4.33-22.6-4.62-5.02-14.23-2.26-17.3 3.59-2.63 4.98-1.64 11.2.13 16.45l-2.48 6.76c-3.67-8.33-7.06-17.33-1.98-25.99 5.4-9.22 21.3-14.88 29.93-4.13C50 22.78 42.4 40.66 27.75 46.16c0 0-1.5 4.19-2.37 6.68Z"/><path class="an" d="M7.49 65.82c-.7 0-1.22-.07-1.46-.21L5.02 65 5.6 64c.4-.69.59-2.89.6-4.16v-.97l.95-.18c1.02-.2 3.93-.9 5.22-1.82 3.25-2.3 4.29-5.5 5.3-8.6l.2-.65c.99-3.02 1.71-6.03 2.4-8.94 1.14-4.71 2.3-9.58 4.6-14.56 1.16-2.52 2.34-4.05 3.47-5.53.4-.52.8-1.05 1.21-1.63l.82-1.16 1 1.02c.03.04 3.23 5 2.5 6.18-2.36 4.12-3.56 7.56-3.64 10.48l-.06 1.06c3.18-4.02 7.92-12 2.02-18.4-1.62-1.75-4.1-2.51-6.95-2.14-3.57.47-6.97 2.67-8.45 5.48-2.03 3.87-1.96 9.09.21 15.53l.13.4-3.62 9.9-1.19-2.68c-3.86-8.76-7.2-18.05-1.92-27.06 3.38-5.78 10.34-10 17.33-10.52a16.56 16.56 0 0 1 14.54 6.24c3.77 4.68 4.86 10.84 3.09 17.33a28.34 28.34 0 0 1-16.68 18.45l-2.19 6.17c-2.33 6.57-7.48 9.66-11.38 11.1-2.75 1-5.8 1.48-7.62 1.48Zm1.04-5.02c-.03.72-.11 1.7-.3 2.6 3.5-.25 12.79-1.81 16.03-10.96l2.56-7.19.51-.2A25.94 25.94 0 0 0 43.08 28c1.57-5.74.63-11.16-2.65-15.23-3.94-4.9-8.98-5.63-12.53-5.37-6.15.46-12.5 4.3-15.46 9.36-4.22 7.2-2.28 14.61.88 22.2l1.31-3.6c-2.26-6.89-2.23-12.6.07-16.98 1.85-3.5 5.87-6.15 10.24-6.72 3.59-.46 6.86.59 8.98 2.89 7.72 8.35.51 19.51-4.38 24.24l-2.29 2.22.3-3.18c.12-1.37.23-2.84.32-4.45.09-3.17 1.3-6.81 3.7-11.1-.27-.56-.77-1.56-1.22-2.43l-.14.18c-1.1 1.44-2.14 2.8-3.2 5.07-2.19 4.78-3.28 9.32-4.43 14.13-.71 2.96-1.45 6.02-2.46 9.13l-.21.64c-1.07 3.3-2.29 7.04-6.18 9.8-1.43 1.01-3.85 1.69-5.2 2Z"/></g></g><g><path class="as" d="M16.18 136.1v.06c-.15 1.72-1.27 3.25-2.7 3.56-.68.14-1.41-.07-1.8-.85a3.27 3.27 0 0 1-2.04 1.67c-.92.2-1.64-.48-1.48-2.09l.35-3.6 1.93-.42-.36 3.72c-.05.47.15.59.38.54.38-.08.85-.73.96-1.84l.26-2.69 1.93-.4-.28 2.9c-.09.9.09 1.4.63 1.28.69-.15 1.07-.92 1.19-1.8a1.53 1.53 0 0 1-1.21-1.6c.01-.73.4-1.11.84-1.2.74-.16 1.3.58 1.4 1.87a2 2 0 0 0 1.2-1.1l.62.33a2.94 2.94 0 0 1-1.82 1.66Z"/><path class="as" d="M19.06 136.32c-.04.4.1.51.3.47.44-.1 1.04-.88 1.44-1.98l.62.33c-.58 1.57-1.65 3.23-3 3.52-.95.2-1.43-.46-1.3-1.77l.38-3.97 1.93-.4-.37 3.8Zm-1.7-5.59c-.03-.72.45-1.43 1.1-1.57.67-.14 1.24.34 1.28 1.07.04.74-.43 1.44-1.1 1.58-.64.14-1.23-.34-1.27-1.08Z"/><path class="as" d="M25.18 134.33c-.63 1.7-1.88 3.3-3.22 3.58-1.02.21-1.5-.46-1.38-1.77l.27-2.78-.67.15.11-1.18.68-.15.22-2.32 1.93-.41-.22 2.32 1.17-.25-.11 1.18-1.18.25-.26 2.63c-.03.4.12.5.33.46.52-.1 1.3-.9 1.72-2.03l.61.32Z"/><path class="as" d="M31.78 132.92c-.58 1.58-1.64 3.24-3 3.53-.95.2-1.47-.43-1.3-1.77l.23-1.97c.05-.4-.09-.53-.26-.5-.22.05-.7.52-1.12 2.1l-.25 2.55-1.93.41 1.14-11.78 1.93-.42-.69 7.12c.51-.97 1.2-1.62 1.96-1.78.88-.19 1.3.53 1.18 1.55l-.26 2.16c-.05.4.12.5.3.46.45-.1 1.05-.89 1.45-1.98l.62.32Z"/><path class="ak" d="m30.43 141.67-.23-.02c-.84 0-.92.24-1.55 2.16l-1.64 5.04-2.13-3.22-1.88 3.21-1.9-5.74-3.03-2.53-7.94 6.59 5.4 16.96 3.04 2.52.59.12q4.33.93 4.45.93h.7l.82-1.57 2.13 1.8 7.27-.56 5.91-23.63-10-2.06Z"/><path d="m8.64 145.29 8.73-3.23c1.06 3.01 2.25 7.13 2.25 7.13l2.29-3.9 2.42 3.68 2.83-8.7L36 142.1l-5.42 21.65-5.77.45-2.47-3.59-1.75 3.4-4.22-.9-7.72-17.81Z" stroke="url(#d)" stroke-width="2.28" fill="none" stroke-miterlimit="10"/><path class="an" d="m8.64 145.29 8.73-3.23c1.06 3.01 2.25 7.13 2.25 7.13l2.29-3.9 2.42 3.68 2.83-8.7L36 142.1l-5.42 21.65-5.77.45-2.47-3.59-1.75 3.4-4.22-.9-7.72-17.81Z"/><path d="m21.64 157.27-2.35 4.57-2.4-.51-6.8-15.71 5.88-2.18c.89 2.68 2.69 8.9 2.69 8.9l2.81-4.8 2.8 4.24 3.37-10.32 6.06 1.24-4.79 19.16-3.89.3-3.38-4.9Z" fill="url(#e)"/><path class="ak" d="m37.34 145.75-3.02 16.16 3.02 2.53h9.68v-18.69h-9.68z"/><path d="M35.44 160.77v-16.41h7.4v16.41h-7.4Z" stroke-width="2.28" fill="none" stroke-miterlimit="10" stroke="url(#f)"/><path class="an" d="M35.44 160.77v-16.41h7.4v16.41h-7.4Z"/><path fill="url(#g)" d="M36.39 145.31h4.5v13.51h-4.5z"/><path d="m47.65 134.3-.09-.09-.08-.08-.1-.1-.08-.08-.1-.09-.08-.09-.09-.09-.09-.09-.08-.08-.1-.1-.08-.08-.1-.09-.08-.09-.09-.09-.09-.09-.09-.08-.08-.1-.1-.08-.08-.09a6.67 6.67 0 0 0-1.84-1.33 8.19 8.19 0 0 0-3.66-.82c-2 0-3.71.63-5.08 1.86a6.27 6.27 0 0 0-2.06 4.86c0 1.9.62 3.45 1.83 4.64l.1.08.08.1.09.08.09.09.09.09.09.09.08.09.1.08.08.1.09.08.09.1.09.08.09.09.08.09.1.09.08.08.1.1.08.08.09.09.3.29a7.42 7.42 0 0 0 5.1 1.8c2.02 0 3.76-.6 5.18-1.8a6.05 6.05 0 0 0 2.14-4.84 6.38 6.38 0 0 0-1.92-4.66Z" stroke="#26247b" stroke-width="2.02" fill="#26247b" stroke-miterlimit="10"/><path d="M33.46 137.19c0-1.96.67-3.54 2.02-4.76a7.16 7.16 0 0 1 4.99-1.83c1.32 0 2.52.27 3.6.8a6.47 6.47 0 0 1 2.61 2.33c.66 1.01.99 2.16.99 3.46a5.9 5.9 0 0 1-2.1 4.73c-1.4 1.2-3.1 1.78-5.1 1.78s-3.67-.59-5-1.78a6.02 6.02 0 0 1-2-4.73Z" stroke="url(#h)" stroke-width="2.28" fill="none" stroke-miterlimit="10"/><path class="am" d="M33.46 137.19c0-1.96.67-3.54 2.02-4.76a7.16 7.16 0 0 1 4.99-1.83c1.32 0 2.52.27 3.6.8a6.47 6.47 0 0 1 2.61 2.33c.66 1.01.99 2.16.99 3.46a5.9 5.9 0 0 1-2.1 4.73c-1.4 1.2-3.1 1.78-5.1 1.78s-3.67-.59-5-1.78a6.02 6.02 0 0 1-2-4.73Z"/><path d="M39.96 141.74a5.8 5.8 0 0 1-4.03-1.41 4.6 4.6 0 0 1-1.52-3.65c0-1.54.5-2.74 1.54-3.68a5.7 5.7 0 0 1 4.01-1.45c1.1 0 2.07.22 2.96.66a4.99 4.99 0 0 1 2.04 1.8c.5.78.74 1.66.74 2.67 0 1.54-.51 2.73-1.58 3.63a6.15 6.15 0 0 1-4.16 1.43Z" fill="url(#i)"/><path class="ak" d="M57.29 158.24v-15.72l-3.02-2.55-6.7 3.26v24.58l16.4-.95v-9.09l-6.68.47z"/><path d="M45.7 164.05v-22.27l7.4-.55v15.73l6.67-.48v6.76l-14.08.81Z" stroke="url(#j)" stroke-width="2.32" fill="none" stroke-miterlimit="10"/><path class="an" d="M45.7 164.05v-22.27l7.4-.55v15.73l6.67-.48v6.76l-14.08.81Z"/><path fill="url(#k)" d="m46.64 142.62 4.5-.33v15.73l6.67-.48v3.82l-11.17.64v-19.38z"/><path class="ak" d="M81.55 146.34a9.22 9.22 0 0 0-2.6-3.8l-3.04-2.55s.18.76-.71.48a15.13 15.13 0 0 0-5.69-.64l-9.16.43-3.02 21.58 3.02 2.55 10.66-.54a11.6 11.6 0 0 0 8.23-3.57c2.12-2.23 3.19-5.14 3.19-8.64 0-1.99-.3-3.77-.88-5.3Zm-8.85 5.64c0 1.03-.27 1.76-.84 2.25-.47.41-1.06.68-1.79.8v-6.06c1.87.06 2.63.94 2.63 3.01Z"/><g><path d="M58.47 160.64v-21.8l8.06-.38a13.9 13.9 0 0 1 5.28.58c1.27.41 2.39 1.03 3.36 1.85a8.04 8.04 0 0 1 2.26 3.34c.54 1.4.8 3.03.8 4.88 0 3.21-.95 5.82-2.87 7.84a10.43 10.43 0 0 1-7.44 3.21l-9.45.48Zm7.41-6.9s.22 0 .47 0a5.1 5.1 0 0 0 3.24-1.16c.82-.72 1.24-1.76 1.24-3.13 0-2.77-1.32-4.16-3.96-4.17h-.99v8.46Z" stroke="url(#l)" stroke-width="2.32" fill="none" stroke-miterlimit="10"/><path class="an" d="M58.47 160.64v-21.8l8.06-.38a13.9 13.9 0 0 1 5.28.58c1.27.41 2.39 1.03 3.36 1.85a8.04 8.04 0 0 1 2.26 3.34c.54 1.4.8 3.03.8 4.88 0 3.21-.95 5.82-2.87 7.84a10.43 10.43 0 0 1-7.44 3.21l-9.45.48Zm7.41-6.9s.22 0 .47 0a5.1 5.1 0 0 0 3.24-1.16c.82-.72 1.24-1.76 1.24-3.13 0-2.77-1.32-4.16-3.96-4.17h-.99v8.46Z"/><path d="m59.42 139.72 6.67-.31a12.53 12.53 0 0 1 4.76.52c1.09.34 2.05.87 2.87 1.56.78.67 1.4 1.59 1.84 2.75.47 1.23.71 2.7.71 4.37 0 2.84-.8 5.08-2.47 6.83a8.96 8.96 0 0 1-6.44 2.76l-7.94.4v-18.88Zm4.5 3.6v11.27l1.37.1h.64a6.51 6.51 0 0 0 4.1-1.52 5.31 5.31 0 0 0 1.75-4.22c0-3.57-1.97-5.62-5.41-5.63h-2.45Z" fill="url(#m)"/></g><path class="ak" d="M109.8 155.94c-.34-.32-.71-.6-1.08-.8a8.29 8.29 0 0 0 1.71-4.98c0-1.54-.52-3.14-1.98-4.5-1.41-1.32-3.81-4.18-7.77-4.18-2.47 0-5.69 2.3-9.41 2.69l-1.04.1-3.02 20.7 3.02 2.54h12.2c1.05 0 2.08-.12 3.04-.36a9.97 9.97 0 0 0 2.8-1.17 6.18 6.18 0 0 0 2.22-2.38c.54-1 .81-2.16.81-3.47 0-1.3-.47-3.17-1.5-4.19Zm-9.44 2.35c.26.05.26.06.33.18.03.08.04.35 0 .54-.02.06-.03.1-.14.23-.03.04-.05.06-.15.08l-.45.04v-1.1l.41.03Zm-.4-5.49v-1.09a4 4 0 0 1 .53.04c.1.03.15.07.18.14 0 0 .04.08.04.31 0 .2-.04.36-.1.42a.61.61 0 0 1-.17.15l-.49.03Z"/><g><path d="M88.35 142.8c3.7-.39 6.77-.57 9.22-.57 5.78 0 8.67 1.8 8.67 5.4a7.1 7.1 0 0 1-.8 3.23 3.77 3.77 0 0 1-2.15 2.02s1.62.35 2.66 1.36c.73.72 1.16 2.24 1.16 3.36 0 1.12-.23 2.1-.67 2.92a5.01 5.01 0 0 1-1.82 1.94c-.76.47-1.58.81-2.46 1.03-.88.22-1.8.33-2.77.33H88.35V142.8Zm7.4 8.67s1.55-.03 1.85-.09c.3-.06.58-.23.84-.51.26-.29.39-.69.39-1.2 0-.32-.04-.6-.15-.82a1.41 1.41 0 0 0-.9-.74c-.47-.13-2.02-.1-2.02-.1v3.46Zm0 6.56s1.5-.02 1.86-.1c.36-.09.6-.25.79-.47.18-.22.3-.41.38-.73.08-.34.1-.95-.1-1.33-.31-.58-.74-.7-1.13-.78s-1.8-.04-1.8-.04v3.45Z" stroke-width="2.32" stroke="url(#n)" fill="none" stroke-miterlimit="10"/><path class="an" d="M88.35 142.8c3.7-.39 6.77-.57 9.22-.57 5.78 0 8.67 1.8 8.67 5.4a7.1 7.1 0 0 1-.8 3.23 3.77 3.77 0 0 1-2.15 2.02s1.62.35 2.66 1.36c.73.72 1.16 2.24 1.16 3.36 0 1.12-.23 2.1-.67 2.92a5.01 5.01 0 0 1-1.82 1.94c-.76.47-1.58.81-2.46 1.03-.88.22-1.8.33-2.77.33H88.35V142.8Zm7.4 8.67s1.55-.03 1.85-.09c.3-.06.58-.23.84-.51.26-.29.39-.69.39-1.2 0-.32-.04-.6-.15-.82a1.41 1.41 0 0 0-.9-.74c-.47-.13-2.02-.1-2.02-.1v3.46Zm0 6.56s1.5-.02 1.86-.1c.36-.09.6-.25.79-.47.18-.22.3-.41.38-.73.08-.34.1-.95-.1-1.33-.31-.58-.74-.7-1.13-.78s-1.8-.04-1.8-.04v3.45Z"/></g><path d="M104.42 154.78c-.59-.58-1.7-1.09-1.9-1.17s-1.64-.6-2.25-.78c-.64-.19-1.64-.3-1.64-.3s2.73-.75 3.3-1.15 1.36-.99 1.71-1.68c.43-.85.63-1.7.63-2.58 0-1.08 0-3.94-7.2-3.94a86 86 0 0 0-7.77.43v18.25h9.59c.84 0 1.65-.1 2.41-.29a7.35 7.35 0 0 0 2.06-.85c.54-.34.96-.8 1.29-1.4a4.66 4.66 0 0 0-.23-4.54Zm-10.62-8.69 1.41-.03h.58a7 7 0 0 1 1.87.14 2.86 2.86 0 0 1 2.12 2.97c0 .88-.26 1.6-.77 2.17-.47.52-1.02.85-1.64.97-.28.05-.99.09-2.1.1l-1.47.03v-6.35Zm5.9 10.46a3.02 3.02 0 0 1-.7 1.34c-.4.49-.94.8-1.58.95a18.26 18.26 0 0 1-2.01.14c-.57 0-1.6-.03-1.6-.03l-.01-.82v-5.47l1.41-.04.77-.01c.49 0 .8.01 1 .03l.77.15.24.08c.47.2 1.04.56 1.46 1.33.52.95.3 2.12.24 2.35Z" fill="url(#o)"/><path class="ak" d="m124.57 139.33-3.06-2.5-7.64 3.16-11.5 21.44 3 2.53 1.76-.1c.04-.01 4.47-.29 8.97-.62l.8-.06.74-2.52h1.92l-.05.1 3.04 2.54 10.6-.66-8.58-23.3Zm-4.95 13.89.14-.64.14.64h-.28Z"/><g><path d="m111.67 138.57 9.08-.56 7.73 21.04-8.1.5-.72-2.58h-5.93l-.76 2.58c-4.54.34-8.95.62-8.95.62l7.65-21.6Zm3.48 13.28h3.15l-1.6-7.25-1.55 7.25Z" stroke="url(#p)" stroke-width="2.32" fill="none" stroke-miterlimit="10"/><path class="an" d="m111.67 138.57 9.08-.56 7.73 21.04-8.1.5-.72-2.58h-5.93l-.76 2.58c-4.54.34-8.95.62-8.95.62l7.65-21.6Zm3.48 13.28h3.15l-1.6-7.25-1.55 7.25Z"/><path d="m112.21 139.46 7.04-.43 6.68 18.18-4.97.31-.7-2.51h-8.12l-.78 2.66-5.74.4 6.6-18.61Zm.63 13.34h6.77l-3.4-14.57-3.37 14.57Z" fill="url(#q)"/></g><g><path class="ak" d="M137.41 158.57v-15.73l-3.03-2.55-6.69 3.26-3 22.04 3 2.55 16.39-.95v-9.1l-6.67.48z"/><path d="M125.81 164.38V142.1l7.4-.54v15.72l6.68-.47v6.75l-14.08.82Z" stroke="url(#r)" stroke-width="2.32" fill="none" stroke-miterlimit="10"/><path class="an" d="M125.81 164.38V142.1l7.4-.54v15.72l6.68-.47v6.75l-14.08.82Z"/><path fill="url(#s)" d="m126.76 142.95 4.49-.33v15.72l6.68-.48v3.82l-11.17.65v-19.38z"/></g><g><path class="ak" d="M149.68 154.98v-15.73l-3.03-2.55-6.69 3.26-3 22.03 3 2.55 16.39-.95v-9.09l-3.04-2.54-3.63 3.02z"/><path d="M138.08 160.79V138.5l7.4-.54v15.72l6.68-.47v6.75l-14.08.82Z" stroke="url(#t)" stroke-width="2.32" fill="none" stroke-miterlimit="10"/><path class="an" d="M138.08 160.79V138.5l7.4-.54v15.72l6.68-.47v6.75l-14.08.82Z"/><path fill="url(#u)" d="m139.03 139.36 4.49-.33v15.72l6.68-.48v3.82l-11.17.65v-19.38z"/></g></g></g></svg>