<svg id="a" xmlns="http://www.w3.org/2000/svg" xmlns:xlink="http://www.w3.org/1999/xlink" viewBox="0 0 155.11 166.51"><defs><linearGradient id="b" x1="5.87" y1="150.54" x2="36.13" y2="150.54" gradientUnits="userSpaceOnUse"><stop offset="0" stop-color="#f47920"/><stop offset="0" stop-color="#524fa1"/><stop offset="1" stop-color="#2e3192"/></linearGradient><linearGradient id="c" x1="20.65" y1="160.32" x2="20.65" y2="139.92" gradientUnits="userSpaceOnUse"><stop offset=".08" stop-color="#faa61a"/><stop offset=".89" stop-color="#f47920"/></linearGradient><linearGradient id="d" x1="33.05" y1="150.94" x2="42.73" y2="150.94" gradientUnits="userSpaceOnUse"><stop offset="0" stop-color="#524fa1"/><stop offset="1" stop-color="#2e3192"/></linearGradient><linearGradient id="e" x1="37.39" y1="157.04" x2="37.39" y2="144.34" xlink:href="#c"/><linearGradient id="f" x1="31.08" y1="135.53" x2="47.56" y2="135.53" xlink:href="#d"/><linearGradient id="g" x1="38.81" y1="140.07" x2="38.81" y2="130.57" gradientUnits="userSpaceOnUse"><stop offset=".08" stop-color="#7e78b8"/><stop offset="1" stop-color="#524fa1"/></linearGradient><linearGradient id="h" x1="43.28" y1="151.01" x2="59.68" y2="151.01" xlink:href="#d"/><linearGradient id="i" x1="50.98" y1="160" x2="50.98" y2="141.86" xlink:href="#c"/><linearGradient id="j" x1="56.07" y1="147.94" x2="78.15" y2="147.94" xlink:href="#d"/><linearGradient id="k" x1="66.6" y1="156.62" x2="66.6" y2="138.02" xlink:href="#c"/><linearGradient id="l" x1="85.94" y1="151.4" x2="107.02" y2="151.4" xlink:href="#d"/><linearGradient id="m" x1="95.98" y1="160.15" x2="95.98" y2="141.58" gradientUnits="userSpaceOnUse"><stop offset=".08" stop-color="#faa61a"/><stop offset="1" stop-color="#f47920"/></linearGradient><linearGradient id="n" x1="101.09" y1="147.49" x2="128.86" y2="147.49" xlink:href="#d"/><linearGradient id="o" x1="114.53" y1="155.93" x2="114.53" y2="138.5" xlink:href="#m"/><linearGradient id="p" x1="123.4" y1="151.33" x2="139.8" y2="151.33" xlink:href="#d"/><linearGradient id="q" x1="131.1" y1="160.41" x2="131.1" y2="141.65" xlink:href="#m"/><linearGradient id="r" x1="135.67" y1="147.74" x2="152.07" y2="147.74" xlink:href="#d"/><linearGradient id="s" x1="143.37" y1="156.82" x2="143.37" y2="138.06" xlink:href="#m"/><style>.ai{fill:#26247b}.ak{fill:#524fa1}.al{fill:#f47920}.ao{fill:#ed1c24}</style></defs><path class="ak" d="M79.04 130.3a51.63 51.63 0 1 0 0-103.25 51.63 51.63 0 0 0 0 103.26Z"/><path class="ak" d="M122.02 38.3s-31.64 8.89-31.28 8.57c1.91-1.7 8.03-33.39 8.03-33.39l-8.3 2.25s-2.3 12.36-3.77 18.79c-1.05 5.72-6.95 6.21-5.86 1.16l3.82-18.48-7.09 1.88s-3.45 17-4.6 21.48c-.55 2.2-2.77 1.52-2.4-1.38.04-.25 4.03-19.3 4.03-19.3l-5.74 1.55-.94 3.1c-2.81-3.86-7.78-1.22-10.3 1.24a31.91 31.91 0 0 0-5.7 9.1c-1.76 4.03-2.34 8.44-4.1 12.46-.63 1.59-2.35 1.35-2.22-.35.1-3.57 8.24-39.59 8.24-39.59l-6.53-2.73-8.16 38.87s-.54 2.64-.8 4.23c-1.17 5.81.16 9.47 4.25 9.14 4.35-.35 7.1-4.4 8.28-6.14 1.02 1.15 2.34 2.75 3.84 3.05 5.08.13 7.92-3.82 11.25-8.9.19 2.16 1.22 3.98 3.47 4.54 3.4.74 6.37-4.46 6.34-4.58.21 2.22 4.13 3.24 6.56 1.07-.93 2.47-1 3.34-3.31 3.97.11-.03-34.48 8.95-51.5 14.25-19.6 5.4-25.74 11.56-25.2 17.08.39 3.87 10.04 17.36 56.32-5.6.78-.4 16.86-8.2 22.8-15.12 11.09-2.28 37.8-6.2 37.8-6.2l2.77-16.01Zm-58.79.62c-.81 2.03-3.38 6.94-6.18 6.43-2.36-.44-.45-6.27.4-8.39.71-1.8 3.46-6.43 5.34-6.91 4.26-1.09 1.4 6.48.44 8.87Zm6.2 24.05c-6.95 3.41-18.07 8.54-28.39 11.83-13.23 4.77-28.83 7.42-28.64 4.08.18-3.01 17.75-7.62 27.02-10.12 6.94-1.88 30.9-6.4 30-5.8Z"/><path class="ak" d="M16.89 89.7c-4.87 0-8.28-.99-10.68-2.31-3.31-1.84-4.68-4.4-4.84-6.05-.7-7.09 8.02-13.18 25.9-18.12 8.77-2.73 22.31-6.46 32.13-9.11 13.7-3.7 17.94-4.84 19.4-5.05l-.02-.09c.94-.26 1.36-.48 1.69-1-1.2.27-2.4.14-3.32-.22a4.16 4.16 0 0 1-1.44-.92c-.5.67-1.02 1.22-1.03 1.24-1.78 1.91-3.67 2.72-5.44 2.33a5.25 5.25 0 0 1-3.68-3.1c-2.72 4-5.81 7.55-10.87 7.49-1.55-.3-2.74-1.4-3.72-2.46-1.51 2.09-4.24 5.22-8.3 5.54-2.22.18-3.52-.71-4.2-1.5-1.52-1.7-1.89-4.75-1.07-8.8.25-1.57.8-4.23.8-4.23L46.6 3.3l8.37 3.5-.18.8C52 20.03 46.65 44.26 46.58 47c-.02.29.02.41.04.44-.02-.04.16-.13.3-.48a46.19 46.19 0 0 0 2-6.13c.6-2.1 1.2-4.28 2.1-6.36a33 33 0 0 1 5.88-9.38c1.92-1.86 4.95-3.71 7.81-3.48 1.02.1 1.95.45 2.76 1.05l.62-2.04 7.79-2.1-.33 1.55c-1.09 5.2-3.93 18.78-4.01 19.26-.13 1 .16 1.5.28 1.55-.04-.02.11-.17.21-.57 1.12-4.42 4.55-21.26 4.59-21.43l.12-.6 9.2-2.43-4.15 20.01c-.21 1-.12 1.79.26 2.12.25.22.66.26 1.12.1.93-.32 2.16-1.5 2.58-3.75 1.44-6.37 3.73-18.67 3.75-18.79l.12-.6 10.4-2.82-.3 1.54c-1.57 8.15-5.06 25.6-7.28 31.8 5.04-1.32 19.35-5.3 29.32-8.1l1.49-.42-3.17 18.23-.7.1c-.26.04-26.29 3.87-37.42 6.13-5.58 6.29-18.8 13.08-22.76 15.04C38.87 86.54 25.57 89.7 16.89 89.7Zm64.8-44.48 1.56 1.07-.28.75c-.71 1.95-1.14 3.12-3.69 3.81-.33.09-34.45 8.94-51.46 14.24-21 5.8-24.92 11.93-24.51 16.06.1.94 1 2.96 3.85 4.53 5.12 2.85 18.58 5.2 51.05-10.92 8.23-4.06 18.36-10.05 22.5-14.87l.22-.26.32-.06c9.99-2.06 32.87-5.48 37.16-6.11l2.39-13.8q-30.44 8.55-30.91 7.68l-.37-.68.58-.52c1.12-1.36 4.6-16.86 7.41-31.3l-6.2 1.67c-.48 2.56-2.4 12.66-3.65 18.22-.56 3.04-2.36 4.69-3.85 5.2-1.15.4-2.26.22-3.05-.48-.55-.48-1.38-1.64-.88-3.98l3.5-16.92-4.98 1.32c-.63 3.09-3.45 16.9-4.48 20.93-.42 1.63-1.54 2.17-2.48 2-1.09-.2-2.12-1.47-1.83-3.74.03-.24 2.2-10.64 3.7-17.82l-3.67 1-1.35 4.44-1.15-1.58a3.45 3.45 0 0 0-2.6-1.53c-2.04-.16-4.62 1.33-6.24 2.9a30.9 30.9 0 0 0-5.48 8.77 46.03 46.03 0 0 0-2.01 6.12 47.49 47.49 0 0 1-2.1 6.36c-.46 1.18-1.53 1.85-2.58 1.6-.83-.19-1.61-1.02-1.5-2.41.09-3.32 6.85-33.47 8.08-38.93l-4.7-1.96-7.9 37.71s-.54 2.61-.8 4.18c-.68 3.42-.47 5.96.61 7.17.59.67 1.43.94 2.6.85 3.87-.3 6.44-4.08 7.53-5.69l.7-1.03 1.08 1.16c.9 1.01 2 2.27 3.08 2.49 4.28.18 6.85-3.3 10.25-8.48l1.55-2.36.23 2.81c.12 1.4.7 3.17 2.74 3.67 2.27.51 4.82-3.15 5.19-3.97l.65.3 1.2-.23.02.18c.07.67.81 1.03 1.12 1.16 1.04.4 2.63.34 3.83-.72Zm-65.4 36.12c-1.85 0-3.27-.26-4.05-.83a1.92 1.92 0 0 1-.81-1.68c.18-3.04 9.1-6 26.58-10.7l1.15-.31c3.63-.98 11.46-2.58 17.57-3.76 13.16-2.52 13.22-2.38 13.6-1.53l.35.76-.82.55c-7.4 3.64-18.36 8.65-28.52 11.89-7.72 2.78-18.82 5.6-25.05 5.6Zm46.97-16.5c-7.26 1.3-18.96 3.6-23.6 4.86l-1.14.3c-6.7 1.81-24.47 6.6-25.15 8.96.95 1.3 12.88.14 27.34-5.08 7.7-2.45 15.86-5.93 22.55-9.04Zm-5.79-18.48c-.2 0-.4-.02-.6-.05-.66-.13-1.19-.51-1.52-1.11-1.2-2.19.6-7.14 1.19-8.6.56-1.4 3.5-6.86 6.01-7.5 1.51-.38 2.35.13 2.79.63.77.87 1.48 2.82-1.2 9.55-.3.76-2.95 7.08-6.67 7.08Zm6.08-15.44c-.2 0-.42.05-.52.07-1.24.32-3.82 4.18-4.68 6.33-1.04 2.61-1.85 5.93-1.3 6.94 1.95.46 4.23-3.09 5.28-5.7 2.48-6.22 1.65-7.43 1.55-7.55-.07-.07-.2-.1-.33-.1Z"/><path class="ak" d="M19.89 55.34C15.7 67.14 1.75 67.21 1.33 66.97c.72-1.26.74-4.7.74-4.7s3.84-.73 5.62-1.98c3.76-2.67 4.78-6.38 5.87-9.75 2.58-7.88 3.28-15.29 6.89-23.14 1.49-3.24 2.99-4.7 4.53-6.9-.03-.1 2.4 4.55 2.32 4.7-2.05 3.57-3.68 7.37-3.78 10.95-.1 1.6-.2 3.07-.32 4.45 0 0 13.17-12.75 4.29-22.38C22.9 13.26 13.4 16 10.36 21.78c-2.6 4.93-1.63 11.08.13 16.29l-2.45 6.69c-3.64-8.24-7-17.15-1.97-25.72C11.4 9.9 27.16 4.3 35.7 14.94c8.54 10.64 1.02 28.35-13.47 33.8l-2.35 6.6Z"/><path class="ak" d="M2.17 67.99c-.66 0-1.14-.07-1.34-.18L0 67.32l.48-.84c.41-.7.6-2.89.62-4.21v-.8l.79-.15c1.01-.2 3.92-.9 5.23-1.83 3.28-2.32 4.32-5.53 5.32-8.64l.2-.61c.98-3.01 1.7-6.01 2.4-8.9 1.11-4.65 2.27-9.45 4.52-14.35a26.02 26.02 0 0 1 3.38-5.38c.41-.54.82-1.08 1.24-1.67l.67-.95.82.82c.03.04 3.06 4.86 2.48 5.87-2.38 4.14-3.58 7.57-3.66 10.5l-.1 1.65c3.16-3.83 8.58-12.23 2.38-18.95-1.65-1.78-4.14-2.57-7.04-2.18-3.6.48-7.02 2.7-8.51 5.53-2.04 3.87-1.98 9.1.2 15.53l.1.32-3.4 9.28-.97-2.2C3.34 36.53.05 27.38 5.23 18.54c3.31-5.67 10.15-9.82 17-10.32a16.24 16.24 0 0 1 14.23 6.1c3.7 4.6 4.76 10.63 3.02 17-2.22 8.08-8.5 15-16.48 18.15l-2.2 6.19c-2.28 6.45-7.33 9.47-11.16 10.87A23.97 23.97 0 0 1 2.17 68Zm.85-4.92A18 18 0 0 1 2.68 66c3.3-.21 12.98-1.65 16.3-10.99l2.49-7.03.42-.16a25.88 25.88 0 0 0 15.7-17.01c1.58-5.75.64-11.17-2.64-15.26-3.96-4.92-9.02-5.63-12.58-5.38-6.14.45-12.5 4.3-15.46 9.36-4.3 7.35-2.2 14.89 1.06 22.6l1.49-4.08c-2.24-6.8-2.23-12.43.03-16.72 1.8-3.43 5.73-6 10-6.56 3.52-.46 6.62.53 8.71 2.8 9.42 10.2-4.18 23.6-4.32 23.73L22 43.12l.23-2.61c.12-1.37.23-2.82.32-4.41.08-3.14 1.29-6.74 3.68-11-.27-.6-.9-1.82-1.39-2.77l-.35.46c-1.1 1.42-2.12 2.77-3.16 5.01-2.17 4.73-3.25 9.23-4.4 13.99-.7 2.93-1.43 5.97-2.44 9.06l-.2.6c-1.04 3.25-2.23 6.94-6.04 9.63-1.43 1.01-3.95 1.7-5.23 1.99Z"/><g><path class="al" d="M127 35.01s-31.65 8.88-31.29 8.55c1.9-1.7 8.03-33.38 8.03-33.38l-7.72 2.08s-2.6 12.5-4.06 18.92c-1.05 5.73-7.24 6.24-6.15 1.2l3.82-18.48-7.09 1.88s-3.45 16.99-4.6 21.48c-.56 2.19-2.77 1.52-2.4-1.38.04-.25 4.03-19.3 4.03-19.3l-5.73 1.55-.95 3.1c-2.8-3.86-7.77-1.22-10.3 1.24a31.83 31.83 0 0 0-5.7 9.1c-1.76 4.02-2.34 8.44-4.1 12.46-.63 1.59-2.35 1.35-2.22-.35.1-3.57 8.24-39.6 8.24-39.6l-6.53-2.73-8.16 38.88s-.54 2.64-.8 4.22c-1.17 5.82.16 9.47 4.25 9.15 4.35-.35 7.1-4.4 8.28-6.14 1.01 1.15 2.33 2.74 3.84 3.04 5.09.14 7.92-3.82 11.26-8.89.18 2.16 1.21 3.98 3.47 4.54 3.38.74 6.36-4.47 6.33-4.58.22 2.22 4.12 3.23 6.56 1.07-.94 2.47-1 3.34-3.3 3.97.1-.03-34.5 8.94-51.51 14.24-19.6 5.4-25.74 11.56-25.2 17.09.39 3.86 10.04 17.37 56.32-5.61.78-.4 16.86-8.19 22.8-15.11 11.1-2.29 37.8-6.2 37.8-6.2L126.98 35Zm-58.8.6c-.81 2.04-3.39 6.95-6.19 6.44-2.35-.44-.44-6.27.4-8.4.72-1.8 3.47-6.43 5.35-6.9 4.26-1.1 1.4 6.47.44 8.86Zm6.2 24.05c-6.95 3.42-18.07 8.55-28.38 11.83-13.24 4.78-28.84 7.43-28.65 4.09.18-3.01 17.75-7.63 27.02-10.13 6.94-1.87 30.9-6.39 30-5.79Z"/><path class="ao" d="M21.86 86.4c-4.86 0-8.28-.99-10.68-2.31-3.31-1.84-4.68-4.41-4.84-6.06-.7-7.08 8.01-13.18 25.9-18.12a1018.7 1018.7 0 0 1 32.13-9.1c13.7-3.7 17.94-4.85 19.4-5.05l-.02-.1c.94-.25 1.36-.47 1.69-1a5.8 5.8 0 0 1-3.32-.21 4.16 4.16 0 0 1-1.44-.92c-.43.58-.87 1.06-.96 1.16-1.81 1.97-3.72 2.8-5.51 2.41a5.27 5.27 0 0 1-3.68-3.1c-2.72 4-5.77 7.55-10.87 7.48-1.55-.3-2.74-1.39-3.72-2.45-1.51 2.09-4.24 5.22-8.3 5.54-2.22.2-3.51-.71-4.2-1.5-1.52-1.7-1.89-4.75-1.07-8.81.25-1.56.8-4.22.8-4.22L51.57 0l8.37 3.5-.18.8c-2.8 12.43-8.14 36.66-8.21 39.4-.03.3.02.42.04.45-.02-.04.16-.14.3-.49.86-1.97 1.44-4.08 2-6.12.6-2.1 1.2-4.29 2.1-6.36a32.92 32.92 0 0 1 5.88-9.38c1.92-1.86 4.95-3.7 7.81-3.48 1.02.09 1.96.45 2.76 1.05l.62-2.04 7.79-2.1-.33 1.55c-1.09 5.2-3.93 18.8-4.01 19.26-.13 1 .16 1.49.28 1.54-.04-.02.11-.17.22-.57 1.12-4.4 4.54-21.25 4.58-21.42l.12-.6 9.2-2.44-4.15 20.02c-.21.98-.1 1.73.28 2.07.3.26.77.3 1.3.12C89.36 34.4 90.6 33.24 91 31c1.45-6.38 4.04-18.82 4.07-18.95l.12-.58 9.8-2.65-.3 1.53c-1.57 8.16-5.07 25.62-7.28 31.8 5.04-1.31 19.35-5.3 29.32-8.09l1.49-.42-3.17 18.22-.7.1c-.26.04-26.29 3.87-37.42 6.14-5.6 6.31-18.82 13.1-22.78 15.04C43.83 83.24 30.55 86.4 21.86 86.4Zm64.8-44.49 1.56 1.07-.28.76c-.71 1.94-1.14 3.12-3.68 3.8-.35.1-34.55 8.98-51.47 14.24-21 5.8-24.92 11.93-24.51 16.06.09.95 1 2.97 3.85 4.54 5.13 2.84 18.58 5.2 51.06-10.93 2.9-1.42 17.12-8.6 22.49-14.87l.22-.25.32-.07c10-2.05 32.86-5.47 37.15-6.1l2.4-13.8q-30.44 8.54-30.91 7.68l-.38-.68.59-.52c1.11-1.37 4.6-16.87 7.41-31.31l-5.63 1.52c-.53 2.55-2.67 12.78-3.94 18.35-.56 3.02-2.4 4.67-3.93 5.2-1.2.42-2.41.23-3.23-.5-.55-.48-1.39-1.64-.9-3.93l3.5-16.93-4.98 1.33c-.62 3.08-3.45 16.89-4.48 20.93-.42 1.63-1.55 2.18-2.49 2-1.08-.22-2.11-1.48-1.82-3.75.03-.24 2.4-11.53 3.7-17.81l-3.67.99-1.36 4.44-1.15-1.57a3.44 3.44 0 0 0-2.58-1.54c-2.09-.19-4.64 1.33-6.26 2.9a30.81 30.81 0 0 0-5.47 8.77 45.66 45.66 0 0 0-2.01 6.13c-.59 2.1-1.19 4.28-2.1 6.36-.46 1.17-1.53 1.84-2.58 1.6-.82-.2-1.6-1.01-1.5-2.41.09-3.33 6.85-33.48 8.08-38.94l-4.7-1.96-7.9 37.72s-.54 2.6-.79 4.18c-.7 3.42-.48 5.96.6 7.17.59.66 1.43.94 2.6.85 3.87-.31 6.44-4.08 7.54-5.7l.7-1.03 1.06 1.15c.9 1.02 2 2.28 3.09 2.5 4.3.03 6.84-3.3 10.25-8.47l1.55-2.35.24 2.8c.11 1.4.69 3.16 2.73 3.67 2.41.54 4.94-3.42 5.19-3.97l.65.3 1.19-.24.02.19h.02c.06.67.8 1.03 1.11 1.15a3.8 3.8 0 0 0 3.83-.72Zm-65.4 36.13c-1.85 0-3.27-.26-4.04-.83a1.92 1.92 0 0 1-.82-1.69c.18-3.04 9.1-5.99 26.62-10.7l1.11-.3c3.63-.99 11.46-2.59 17.57-3.76 13.15-2.53 13.22-2.4 13.6-1.53l.35.75-.83.56c-7.37 3.63-18.31 8.64-28.5 11.88-7.72 2.79-18.83 5.62-25.06 5.62Zm46.98-16.51c-7.27 1.3-18.97 3.61-23.6 4.87l-1.11.3c-6.7 1.8-24.51 6.6-25.19 8.96.95 1.3 12.87.14 27.35-5.08a198.47 198.47 0 0 0 22.55-9.05Zm-5.8-18.47c-.2 0-.4-.02-.6-.06a2.14 2.14 0 0 1-1.52-1.1c-1.2-2.19.6-7.14 1.19-8.6.56-1.41 3.49-6.86 6.01-7.5 1.51-.39 2.35.12 2.79.62.77.88 1.48 2.83-1.2 9.55-.3.76-2.94 7.09-6.67 7.09Zm6.08-15.45c-.2 0-.42.05-.52.08-1.24.31-3.82 4.18-4.68 6.33-1.23 3.07-1.78 6.05-1.3 6.93 1.94.43 4.23-3.08 5.28-5.7 2.01-5.05 1.92-7.11 1.54-7.54-.06-.07-.18-.1-.32-.1Z"/><g><path class="al" d="M24.86 52.04C20.67 63.84 6.72 63.9 6.3 63.67c.72-1.26.74-4.7.74-4.7s3.84-.73 5.61-1.98c3.78-2.68 4.79-6.38 5.89-9.75 2.57-7.88 3.27-15.29 6.88-23.15 1.49-3.23 2.99-4.7 4.53-6.9-.04-.1 2.4 4.56 2.33 4.7-2.06 3.58-3.7 7.38-3.8 10.96-.09 1.6-.18 3.06-.3 4.44 0 0 13.16-12.74 4.28-22.37-4.59-4.96-14.09-2.23-17.14 3.56-2.6 4.93-1.62 11.08.14 16.28l-2.45 6.7c-3.65-8.24-7-17.16-1.97-25.73C16.38 6.61 32.13 1 40.68 11.63c8.54 10.65 1.02 28.35-13.48 33.8l-2.34 6.6Z"/><path class="ao" d="M7.14 64.69c-.66 0-1.14-.06-1.33-.18l-.84-.49.48-.84c.41-.71.6-2.9.62-4.21v-.8l.79-.15c1.01-.2 3.92-.9 5.23-1.83 3.28-2.33 4.32-5.54 5.32-8.65l.2-.6c.98-3.01 1.7-6 2.4-8.9 1.11-4.64 2.27-9.44 4.52-14.35 1.13-2.46 2.28-3.95 3.4-5.4l1.22-1.65.66-.94.82.8c.04.04 3.05 4.89 2.5 5.87-2.39 4.15-3.59 7.58-3.67 10.5l-.1 1.65c3.16-3.83 8.58-12.22 2.38-18.94-1.65-1.78-4.15-2.56-7.03-2.18-3.6.47-7.03 2.7-8.52 5.54-2.05 3.87-1.98 9.1.2 15.5l.1.33-3.4 9.29-.97-2.2c-3.81-8.63-7.1-17.78-1.92-26.62 3.31-5.66 10.14-9.81 17-10.32 5.69-.4 10.74 1.75 14.24 6.1 3.68 4.6 4.75 10.63 3 17-2.2 8.09-8.5 15-16.47 18.16l-2.2 6.19c-2.28 6.44-7.32 9.46-11.14 10.87a23.98 23.98 0 0 1-7.5 1.45Zm.85-4.92c-.03.77-.12 1.92-.34 2.93 3.3-.21 12.98-1.66 16.3-10.99l2.49-7.03.42-.16a25.9 25.9 0 0 0 15.7-17.02c1.58-5.74.64-11.16-2.64-15.25-3.96-4.92-9.02-5.64-12.58-5.38-6.15.45-12.5 4.3-15.46 9.35-4.3 7.35-2.2 14.9 1.05 22.61l1.5-4.08c-2.25-6.8-2.23-12.42.03-16.72 1.8-3.43 5.73-6 10-6.56 3.53-.47 6.62.53 8.71 2.8 9.42 10.2-4.18 23.58-4.32 23.72l-1.9 1.83.25-2.62a129 129 0 0 0 .32-4.4c.08-3.14 1.3-6.74 3.68-11-.27-.6-.9-1.82-1.39-2.78l-.34.45c-1.1 1.43-2.13 2.78-3.17 5.03-2.17 4.74-3.25 9.24-4.4 14-.7 2.93-1.43 5.96-2.44 9.04l-.2.6c-1.04 3.25-2.23 6.94-6.04 9.64-1.43 1.01-3.95 1.7-5.23 1.99Z"/></g></g><path d="M83.06 114.37c-12.38-.25-20.44-3.7-21.71-9.62-.6-2.4-.49-3.5.56-7.26l17.22-.57c-1.45 5.15.78 7.58 7.12 7.7 4.8.1 8.52-1.92 9.71-5.26 1.4-3.89-1.44-5.98-8.37-6.33l2.72-7.65c5.86-.16 9.85-2.1 10.94-5.17 1.04-2.92-.95-4.92-5.17-5-4.32-.1-7.59 1.73-9.22 5.2l-17.32-1.05c4.14-9.16 15.1-13.84 31.71-13.51 15.65.32 23.92 5.6 21.14 13.38-1.76 4.94-6.58 8.42-13.68 9.89 7.4 1.47 10.47 5.6 8.41 11.37-3.22 9.04-16.1 14.24-34.06 13.88Z" fill="#fff"/><g><path class="ao" d="M14.93 134.47v.06c-.14 1.72-1.26 3.26-2.7 3.56-.68.15-1.4-.06-1.8-.84a3.27 3.27 0 0 1-2.04 1.66c-.92.2-1.64-.47-1.48-2.08l.35-3.61 1.93-.42-.36 3.72c-.04.48.15.6.38.54.39-.08.86-.72.96-1.83l.27-2.7 1.93-.4-.29 2.9c-.08.9.09 1.4.63 1.28.69-.14 1.07-.91 1.2-1.8a1.53 1.53 0 0 1-1.22-1.6c.02-.72.41-1.1.85-1.2.74-.16 1.3.58 1.4 1.87a2 2 0 0 0 1.2-1.09l.61.32a2.94 2.94 0 0 1-1.82 1.66Z"/><path class="ao" d="M17.8 134.7c-.03.4.12.5.3.46.45-.1 1.05-.88 1.46-1.97l.61.32c-.58 1.58-1.64 3.24-3 3.53-.95.2-1.43-.46-1.3-1.78l.38-3.96 1.93-.41-.37 3.8Zm-1.68-5.6c-.04-.72.44-1.42 1.1-1.56.67-.15 1.23.33 1.27 1.06.04.74-.43 1.44-1.1 1.59-.64.13-1.23-.34-1.27-1.08Z"/><path class="ao" d="M23.94 132.7c-.64 1.7-1.89 3.3-3.23 3.58-1.01.22-1.5-.45-1.38-1.77l.28-2.77-.68.14.11-1.18.68-.14.23-2.33 1.93-.41-.23 2.32 1.17-.25-.11 1.18-1.18.25-.25 2.63c-.04.4.11.51.32.47.52-.11 1.3-.9 1.72-2.04l.62.33Z"/><path class="ao" d="M30.53 131.3c-.58 1.57-1.64 3.23-3 3.53-.95.2-1.46-.43-1.3-1.77l.24-1.97c.05-.4-.1-.54-.27-.5-.22.05-.7.51-1.12 2.09l-.25 2.56-1.92.4 1.13-11.78 1.93-.41-.68 7.11c.5-.96 1.2-1.61 1.95-1.77.89-.2 1.3.52 1.18 1.54l-.26 2.16c-.05.4.12.5.31.46.44-.1 1.04-.88 1.45-1.97l.61.32Z"/><path class="ai" d="m29.18 140.05-.23-.03c-.84 0-.92.25-1.54 2.16l-1.65 5.04-2.12-3.21-1.88 3.2-1.9-5.74-3.04-2.53-7.94 6.6 5.4 16.95 3.05 2.52.58.13q4.33.92 4.46.92h.7l.81-1.57 2.14 1.81 7.26-.56 5.91-23.64-10-2.05Z"/><path d="m7.4 143.66 8.72-3.22c1.06 3 2.25 7.13 2.25 7.13l2.3-3.9 2.41 3.67 2.83-8.69 8.83 1.81-5.41 21.66-5.77.44-2.48-3.59-1.75 3.4-4.21-.9-7.72-17.8Z" stroke="url(#b)" stroke-width="2.28" fill="none" stroke-miterlimit="10"/><path class="al" d="m7.4 143.66 8.72-3.22c1.06 3 2.25 7.13 2.25 7.13l2.3-3.9 2.41 3.67 2.83-8.69 8.83 1.81-5.41 21.66-5.77.44-2.48-3.59-1.75 3.4-4.21-.9-7.72-17.8Z"/><path d="m20.4 155.64-2.36 4.57-2.4-.5-6.8-15.72 5.88-2.18c.89 2.68 2.7 8.9 2.7 8.9s2.52-4.3 2.8-4.8l2.8 4.25 3.37-10.33 6.06 1.25-4.79 19.16-3.89.3-3.37-4.9Z" fill="url(#c)"/><path class="ai" d="m36.09 144.12-3.02 16.17 3.02 2.53h9.68v-18.7h-9.68z"/><path d="M34.19 159.15v-16.42h7.4v16.42h-7.4Z" stroke="url(#d)" stroke-width="2.28" fill="none" stroke-miterlimit="10"/><path class="al" d="M34.19 159.15v-16.42h7.4v16.42h-7.4Z"/><path fill="url(#e)" d="M35.14 143.68h4.5v13.51h-4.5z"/><path d="m46.4 132.68-.08-.1-.1-.08-.08-.09-.09-.09-.09-.09-.09-.08-.09-.1-.08-.08-.1-.09-.08-.09-.09-.09-.09-.09-.09-.08-.09-.1-.08-.08-.1-.09-.08-.09-.09-.09-.09-.09a6.67 6.67 0 0 0-1.83-1.33 8.19 8.19 0 0 0-3.67-.82c-2 0-3.71.63-5.08 1.87a6.27 6.27 0 0 0-2.06 4.85c0 1.9.62 3.46 1.84 4.64l.09.09.08.09.1.09.08.08.09.1.09.08.09.1.09.08.08.09.1.09.08.09.09.08.09.1.09.08.09.09.08.09.1.09.08.09.09.08.3.3a7.42 7.42 0 0 0 5.1 1.8c2.02 0 3.76-.6 5.18-1.8a6.05 6.05 0 0 0 2.14-4.85 6.38 6.38 0 0 0-1.91-4.65Z" stroke="#26247b" stroke-width="2.02" fill="#26247b" stroke-miterlimit="10"/><path d="M32.21 135.56c0-1.95.68-3.54 2.02-4.75a7.16 7.16 0 0 1 5-1.83c1.31 0 2.51.27 3.6.8a6.47 6.47 0 0 1 2.6 2.33c.66 1 .99 2.16.99 3.45a5.9 5.9 0 0 1-2.1 4.74c-1.4 1.18-3.1 1.78-5.1 1.78s-3.67-.6-5-1.78a6.02 6.02 0 0 1-2-4.74Z" stroke-width="2.28" fill="none" stroke-miterlimit="10" stroke="url(#f)"/><path class="ak" d="M32.21 135.56c0-1.95.68-3.54 2.02-4.75a7.16 7.16 0 0 1 5-1.83c1.31 0 2.51.27 3.6.8a6.47 6.47 0 0 1 2.6 2.33c.66 1 .99 2.16.99 3.45a5.9 5.9 0 0 1-2.1 4.74c-1.4 1.18-3.1 1.78-5.1 1.78s-3.67-.6-5-1.78a6.02 6.02 0 0 1-2-4.74Z"/><path d="M38.72 140.12a5.8 5.8 0 0 1-4.04-1.42 4.6 4.6 0 0 1-1.52-3.65c0-1.53.5-2.73 1.54-3.67a5.7 5.7 0 0 1 4.02-1.45c1.1 0 2.07.21 2.96.65a4.99 4.99 0 0 1 2.03 1.81c.5.78.75 1.65.75 2.66 0 1.54-.52 2.73-1.59 3.63a6.15 6.15 0 0 1-4.15 1.44Z" fill="url(#g)"/><path class="ai" d="M56.05 156.62v-15.73l-3.03-2.55-6.7 3.26v24.58l16.4-.94v-9.1l-6.67.48z"/><path d="M44.44 162.43v-22.28l7.41-.54v15.72l6.67-.47v6.75l-14.08.82Z" stroke="url(#h)" stroke-width="2.32" fill="none" stroke-miterlimit="10"/><path class="al" d="M44.44 162.43v-22.28l7.41-.54v15.72l6.67-.47v6.75l-14.08.82Z"/><path fill="url(#i)" d="m45.39 141 4.5-.33v15.72l6.67-.48v3.82l-11.17.65V141z"/><path class="ai" d="M80.3 144.72a9.22 9.22 0 0 0-2.6-3.8c-.4-.35-3.04-2.56-3.04-2.56s.18.77-.71.48a15.13 15.13 0 0 0-5.69-.64l-9.16.44-3.01 21.57 3.01 2.55 10.66-.54a11.6 11.6 0 0 0 8.23-3.57c2.12-2.23 3.2-5.13 3.2-8.63 0-2-.3-3.78-.89-5.3Zm-8.84 5.64c0 1.02-.28 1.76-.84 2.25-.48.4-1.07.67-1.8.8v-6.06c1.87.05 2.64.94 2.64 3Z"/><g><path d="M57.23 159.01v-21.8l8.05-.38c.24-.02.58-.02 1.02-.02 1.57 0 2.99.2 4.26.6 1.27.41 2.4 1.03 3.36 1.85a8.04 8.04 0 0 1 2.26 3.34c.54 1.4.8 3.03.8 4.89 0 3.2-.95 5.82-2.86 7.83a10.43 10.43 0 0 1-7.45 3.22l-9.44.47Zm7.4-6.9s.22.01.48 0a5.1 5.1 0 0 0 3.23-1.16c.83-.71 1.24-1.75 1.24-3.12 0-2.78-1.32-4.17-3.96-4.18h-.99v8.46Z" stroke="url(#j)" stroke-width="2.32" fill="none" stroke-miterlimit="10"/><path class="al" d="M57.23 159.01v-21.8l8.05-.38c.24-.02.58-.02 1.02-.02 1.57 0 2.99.2 4.26.6 1.27.41 2.4 1.03 3.36 1.85a8.04 8.04 0 0 1 2.26 3.34c.54 1.4.8 3.03.8 4.89 0 3.2-.95 5.82-2.86 7.83a10.43 10.43 0 0 1-7.45 3.22l-9.44.47Zm7.4-6.9s.22.01.48 0a5.1 5.1 0 0 0 3.23-1.16c.83-.71 1.24-1.75 1.24-3.12 0-2.78-1.32-4.17-3.96-4.18h-.99v8.46Z"/><path d="m58.18 138.1 6.67-.32c.17-.01.44-.02.94-.02 1.41 0 2.7.18 3.82.54 1.08.34 2.04.87 2.86 1.57.78.66 1.4 1.58 1.85 2.75.47 1.22.7 2.7.7 4.36 0 2.85-.8 5.08-2.47 6.83a8.96 8.96 0 0 1-6.44 2.77l-7.93.4V138.1Zm4.5 3.6-.01 11.27 1.37.09h.64a6.51 6.51 0 0 0 4.1-1.51 5.31 5.31 0 0 0 1.75-4.23c0-3.56-1.97-5.62-5.4-5.63h-2.46Z" fill="url(#k)"/></g><path class="ai" d="M108.55 154.32c-.34-.33-.7-.6-1.08-.81a8.29 8.29 0 0 0 1.71-4.98c0-1.54-.52-3.14-1.98-4.5-1.4-1.32-3.81-4.18-7.76-4.18-2.48 0-5.7 2.31-9.42 2.7l-1.04.1-3.02 20.7 3.02 2.53h12.2c1.06 0 2.08-.12 3.05-.36a9.97 9.97 0 0 0 2.78-1.16 6.18 6.18 0 0 0 2.24-2.38c.53-1 .8-2.17.8-3.47 0-1.31-.47-3.18-1.5-4.2Zm-9.43 2.34c.25.05.26.07.32.18.03.09.04.36 0 .54-.02.07-.02.1-.14.24-.03.03-.05.05-.15.08l-.45.03v-1.09l.41.02Zm-.42-5.48v-1.1a4 4 0 0 1 .54.05c.1.02.15.07.19.13 0 0 .03.08.03.32 0 .2-.03.35-.1.41a.61.61 0 0 1-.17.15l-.48.04Z"/><g><path d="M87.1 141.17c3.7-.38 6.78-.57 9.23-.57 5.77 0 8.66 1.8 8.66 5.4a7.1 7.1 0 0 1-.79 3.23 3.77 3.77 0 0 1-2.16 2.03s1.62.34 2.66 1.36c.73.71 1.16 2.24 1.16 3.36 0 1.12-.22 2.09-.67 2.92a5.01 5.01 0 0 1-1.82 1.94c-.76.47-1.58.8-2.46 1.03-.88.22-1.8.33-2.76.33H87.1v-21.03Zm7.41 8.67s1.54-.03 1.84-.08c.3-.06.58-.23.84-.52.26-.29.4-.68.4-1.2 0-.32-.05-.6-.16-.81a1.41 1.41 0 0 0-.9-.75c-.47-.13-2.02-.09-2.02-.09v3.45Zm0 6.57s1.49-.03 1.85-.11c.36-.08.6-.25.79-.47.18-.22.31-.41.38-.72.08-.34.11-.95-.1-1.34-.31-.57-.73-.7-1.13-.77s-1.79-.04-1.79-.04v3.45Z" stroke="url(#l)" stroke-width="2.32" fill="none" stroke-miterlimit="10"/><path class="al" d="M87.1 141.17c3.7-.38 6.78-.57 9.23-.57 5.77 0 8.66 1.8 8.66 5.4a7.1 7.1 0 0 1-.79 3.23 3.77 3.77 0 0 1-2.16 2.03s1.62.34 2.66 1.36c.73.71 1.16 2.24 1.16 3.36 0 1.12-.22 2.09-.67 2.92a5.01 5.01 0 0 1-1.82 1.94c-.76.47-1.58.8-2.46 1.03-.88.22-1.8.33-2.76.33H87.1v-21.03Zm7.41 8.67s1.54-.03 1.84-.08c.3-.06.58-.23.84-.52.26-.29.4-.68.4-1.2 0-.32-.05-.6-.16-.81a1.41 1.41 0 0 0-.9-.75c-.47-.13-2.02-.09-2.02-.09v3.45Zm0 6.57s1.49-.03 1.85-.11c.36-.08.6-.25.79-.47.18-.22.31-.41.38-.72.08-.34.11-.95-.1-1.34-.31-.57-.73-.7-1.13-.77s-1.79-.04-1.79-.04v3.45Z"/></g><path d="M103.18 153.15c-.6-.58-1.7-1.08-1.91-1.17s-1.64-.59-2.25-.77c-.63-.2-1.64-.3-1.64-.3s2.73-.76 3.3-1.16 1.37-.99 1.71-1.68c.43-.84.64-1.69.64-2.58 0-1.08 0-3.94-7.21-3.94a86 86 0 0 0-7.77.43v18.25h9.59c.84 0 1.65-.1 2.41-.28a7.35 7.35 0 0 0 2.06-.86c.54-.33.97-.79 1.3-1.4a4.66 4.66 0 0 0-.23-4.54Zm-10.63-8.68 1.42-.04h.57a7 7 0 0 1 1.88.15 2.86 2.86 0 0 1 2.11 2.96c0 .88-.26 1.61-.76 2.17-.48.53-1.03.85-1.65.97-.28.05-.98.1-2.1.1l-1.47.03v-6.34Zm5.9 10.45a3.02 3.02 0 0 1-.7 1.35c-.4.48-.94.8-1.58.94a18.26 18.26 0 0 1-2.01.14c-.57 0-1.6-.03-1.6-.03l-.01-.82v-5.47l1.42-.04h.76c.49 0 .8 0 1.01.03l.76.14.24.09c.47.19 1.04.55 1.46 1.32.52.96.3 2.13.25 2.35Z" fill="url(#m)"/><path class="ai" d="m123.33 137.7-3.07-2.5-7.64 3.16-11.5 21.45 3 2.53 1.76-.11c.04 0 4.47-.28 8.97-.62l.8-.06.74-2.52h1.92l-.05.1 3.04 2.54 10.6-.66-8.57-23.3Zm-4.96 13.9.14-.64.14.63h-.28Z"/><g><path d="m110.42 136.94 9.08-.55 7.73 21.03-8.1.5-.72-2.57h-5.92l-.76 2.58c-4.54.33-8.96.61-8.96.61l7.65-21.6Zm3.48 13.28h3.15l-1.59-7.25-1.56 7.25Z" stroke-width="2.32" stroke="url(#n)" fill="none" stroke-miterlimit="10"/><path class="al" d="m110.42 136.94 9.08-.55 7.73 21.03-8.1.5-.72-2.57h-5.92l-.76 2.58c-4.54.33-8.96.61-8.96.61l7.65-21.6Zm3.48 13.28h3.15l-1.59-7.25-1.56 7.25Z"/><path d="m110.97 137.83 7.03-.43 6.69 18.19-4.98.3-.7-2.5h-8.12l-.78 2.65-5.73.4 6.59-18.6Zm.62 13.34h6.77l-3.4-14.56-3.37 14.56Z" fill="url(#o)"/></g><g><path class="ai" d="M136.16 156.94v-15.72l-3.03-2.55-6.69 3.26-3 22.03 3 2.55 16.4-.95v-9.09l-6.68.47z"/><path d="M124.56 162.75v-22.27l7.4-.55v15.73l6.68-.48v6.76l-14.08.81Z" stroke="url(#p)" stroke-width="2.32" fill="none" stroke-miterlimit="10"/><path class="al" d="M124.56 162.75v-22.27l7.4-.55v15.73l6.68-.48v6.76l-14.08.81Z"/><path fill="url(#q)" d="m125.51 141.32 4.5-.33v15.73l6.67-.48v3.82l-11.17.64v-19.38z"/></g><g><path class="ai" d="M148.43 153.35v-15.73l-3.03-2.54-6.69 3.26-3 22.03 3 2.55 16.4-.95v-9.09l-3.05-2.55-3.63 3.02z"/><path d="M136.83 159.16V136.9l7.4-.55v15.73l6.68-.48v6.76l-14.08.81Z" stroke="url(#r)" stroke-width="2.32" fill="none" stroke-miterlimit="10"/><path class="al" d="M136.83 159.16V136.9l7.4-.55v15.73l6.68-.48v6.76l-14.08.81Z"/><path fill="url(#s)" d="m137.78 137.73 4.5-.33v15.72l6.67-.47v3.82l-11.17.64v-19.38z"/></g></g></svg>