<svg viewBox="6 11.45 271.321 183.371" xmlns="http://www.w3.org/2000/svg"><path d="M244.26 102.19V135h-22.11v35.34h-41.31V135h-74.12V98.77l75.82-87.32h39.61v90.74zm-62.21 0V50.9h-.49l-42.77 51.3z" fill="#ec1c24"/><path d="M6 122.45h21.53c12.88 0 19.57 8.71 19.57 23.37 0 13.16-6.5 23.37-18.89 23.37H6zm4.58 42.3h16.76c7.93 0 14.8-4.58 14.8-18.92 0-12.37-4.58-18.92-14.8-18.92H10.62zM98.07 151.39c-1 10.48-9.17 19-21.87 19-14.37 0-23.54-9.56-23.54-24.55 0-10.67 6.26-24.55 23.54-24.55 9.66 0 20.13 4.65 21.49 17h-4.57c-1.36-8.9-8.92-12.51-16.91-12.51-11 0-18.58 6.48-18.58 20.1 0 10.41 5.14 20.1 18.58 20.1 10.53 0 15.73-5.63 17.28-14.54z" fill="#231f20"/><path fill="#fff" stroke="#231f20" stroke-miterlimit="5" stroke-width="4.871" d="M238.28 138.65l31.69.3-25.28 19.11 9.51 30.23-25.99-18.13-25.81 18.39 9.22-30.32-25.47-18.87 31.69-.61 10.07-30.05 10.37 29.95z"/></svg>