<svg viewBox="8.87 14.28 269.88 177.952" xmlns="http://www.w3.org/2000/svg"><path d="M147.79 123.25c.24 12.46 14.73 19.71 27 19.71 15.94 0 28-10 28-25.37s-9.66-26.05-26.56-26.05c-11.59 0-20.28 2.49-26.8 12H112.3l16.42-89.26H235v32.63h-74.65l-6.28 28.77h.48c8.45-7.7 20-11.33 32.84-11.33 34.53 0 56.5 18.58 56.5 51.42 0 39-29.94 58.45-69.06 58.45-36.7 0-65.67-13.14-68.09-51z" fill="#ec1c24"/><path d="M8.87 120h21.36c12.8 0 19.45 8.65 19.45 23.22 0 13.08-6.46 23.22-18.77 23.22h-22zm4.55 42H30c7.88 0 14.71-4.55 14.71-18.8 0-12.3-4.55-18.8-14.71-18.8H13.43zM100.33 148.79c-1 10.41-9.11 18.87-21.73 18.87-14.28 0-23.39-9.5-23.39-24.4 0-10.6 6.22-24.4 23.39-24.4 9.6 0 20 4.62 21.36 16.85H95.4c-1.35-8.85-8.86-12.43-16.8-12.43-10.89 0-18.46 6.44-18.46 20 0 10.34 5.11 20 18.46 20 10.46 0 15.63-5.59 17.17-14.44z" fill="#231f20"/><path fill="#fff" stroke="#231f20" stroke-miterlimit="5" stroke-width="4.871" d="M239.64 136.14l31.49.3-25.12 18.98 9.45 30.04-25.83-18.02-25.64 18.27 9.16-30.12-25.31-18.75 31.49-.6 10.01-29.86 10.3 29.76z"/></svg>