<svg viewBox="6.93 9.3 271.82 187.843" xmlns="http://www.w3.org/2000/svg"><path d="M161.39 73.94c3.69-.23 7.38.46 11.07.23 12.3 0 27.8-3 27.8-16.85 0-10.39-11.07-16.16-24.6-16.16-17 0-26.82 8.31-26.57 22.85H110c1-36 28.79-54.71 65.44-54.71 29.77 0 64 11.77 64 44.55 0 14.08-8.12 28.85-23.87 31.39v.46c19.68 4.85 29.28 18 29.28 36.93 0 36.47-35.43 51.71-69.38 51.71-40.1 0-72.58-19.16-70.12-60.48h39.12c-.49 19.16 9.6 28.62 30.75 28.62 14.27 0 27.8-5.77 27.8-19.85 0-17.77-13.78-21.93-30.51-21.93-3.69 0-7.38.23-11.07.46z" fill="#ec1c24"/><path d="M6.93 123.77h21.76c13 0 19.82 8.82 19.82 23.67 0 13.32-6.59 23.67-19.13 23.67H6.93zm4.64 42.82H28.5c8 0 15-4.64 15-19.16 0-12.53-4.64-19.16-15-19.16H11.57zM100.12 153.07c-1 10.61-9.28 19.23-22.14 19.23-14.55 0-23.83-9.68-23.83-24.86 0-10.81 6.33-24.86 23.83-24.86 9.78 0 20.38 4.71 21.76 17.17H95.1c-1.38-9-9-12.66-17.12-12.66-11.1 0-18.81 6.56-18.81 20.35 0 10.54 5.21 20.35 18.81 20.35 10.66 0 15.93-5.7 17.5-14.72z" fill="#231f20"/><path fill="#fff" stroke="#231f20" stroke-miterlimit="5" stroke-width="4.871" d="M238.99 140.17l32.08.31-25.59 19.34 9.63 30.61-26.32-18.36-26.13 18.62 9.33-30.7-25.78-19.1 32.08-.61 10.2-30.43 10.5 30.32z"/></svg>