<svg xmlns="http://www.w3.org/2000/svg" id="b" viewBox="0 0 447.2 214.31"><defs><radialGradient id="e" cx="-77.9" cy="870.21" r="1.67" fx="-77.9" fy="870.21" gradientTransform="translate(1942.669 20602.853) scale(23.606 -23.606)" gradientUnits="userSpaceOnUse"><stop offset="0" stop-color="#fff"/><stop offset=".07" stop-color="#fffdf4"/><stop offset=".2" stop-color="#fff8d9"/><stop offset=".37" stop-color="#fff0ad"/><stop offset=".56" stop-color="#ffe570"/><stop offset=".79" stop-color="#ffd723"/><stop offset=".88" stop-color="#ffd100"/></radialGradient><clipPath id="d"><path d="M65.46 75.76a50.76 50.76 0 1 0 101.52 0 50.76 50.76 0 0 0-101.52 0" style="fill:none"/></clipPath><style>.g{fill:#ffd100}.h{fill:#7b8689}.k{fill:#e31f26}.n{fill:#2c2b7c}</style></defs><g id="c"><path d="M86.22 180.93a305.42 305.42 0 0 1-19.98-7.4c10.75 6.79 24.4 12.86 38.94 17.18a144.74 144.74 0 0 0 19.5 4.67c2.25.38 4.01.63 6 .85l.59-4.2c-13.55-2.03-28.84-5.72-45.05-11.1" class="g"/><path d="m309.83 103.57 16.12.02v-3.56l-16.14-.01.02 3.55zM329.5 100.03l-.02 5.73 2.54-.03v6.98a40.23 40.23 0 0 0 7.23 12.24c6.04 6.9 14.13 10.62 22.95 10.62.65 0 1.3-.02 1.95-.06 7.93-.48 15.6-4.58 21.38-11.23-5.2 4.54-11.43 7.29-17.83 7.68-.65.04-1.3.06-1.94.06-8.83 0-16.92-3.73-22.95-10.62-7.1-8.12-10.86-19.77-10.85-33.71 0-14.36 3.79-26.42 10.73-34.51l-.6.5c-6.41 5.78-10.72 14.42-12.6 24.97l.02 21.38ZM375.63 77.51c-1.29-3.54-3.69-5.66-6.58-5.83a7.2 7.2 0 0 0-5.5 2.1c-.67.63-1.3 1.42-1.85 2.31a6.96 6.96 0 0 1 3.8-.86c2.27.13 4.23 1.49 5.6 3.78l9.64.3 13.29-6.22-.34-2.08c-.03-.13-.09-.26-.12-.4l-17.37 8.47-.57-1.57ZM179.61 172.64c.18-1.02.4-2.03.68-3.02l5.62-19.51-2.58.14-5.27 18.32 1.55 4.07Z" class="h"/><path d="m362.13 82.36-.2 20.18c.33.44.67.85 1.04 1.2a7.9 7.9 0 0 0 1.91 1.42l5.95-.02a7.35 7.35 0 0 0 3.56-3.55l-8.93.02.18-19.12-3.51-.12ZM278.51 135.89l-2.78.17.04 3.34 52.7-3.09v-3.35l-49.15 2.89L278 38.62l-3.61-.37 1.06 77.75 3.06 19.89zM309.63 70.62l18.11 1.06v-3.76l-18.13-1.06.02 3.76zM442.23 146v-.03c-1.5-1.24-2.8-1.77-4.12-1.67-.25.02-.66.1-.75.45l.42.1 2.4.52c.67.14 1.37.34 2.05.62ZM434.05 158.85c.01 0 1.18-.17 1.21-.9v-.03l-.52-.09-2.2-.29a9.97 9.97 0 0 1-3.9-1.34l.57.54c1.71 1.57 3.34 2.29 4.84 2.11ZM426.94 154.85c-1.6-1.65-2.66-4.1-2.56-7.53a16.61 16.61 0 0 1 3-9.26 14.97 14.97 0 0 0-3.8 3.9l-.78 25.44 4.14-12.55ZM396.37 108.23l-6.04 24.46 22.4-1.32.59-3.38-19.44 1.14L412.8 52.6l-2.6-.27-11.61 46.93a48.38 48.38 0 0 1-2.22 8.98ZM428.06 118.1l-10.17.41-.59 3.43 7.21-.28 1.27 8.95 19.66-1.16-.62-3.31-15.49.92-1.27-8.96zM410.38 148.4a35.7 35.7 0 0 1 0-1.89l.25-9.1-3.47.2-.1 3.72 3.32 7.06ZM225.18 139.02l-20.2 1.19-15.41-47.1c-.56-2.03-1.07-3.97-1.53-5.89-.06 1.69-.13 3.36-.23 5.02l-.47 8.47 14.08 43.05 22.88-1.34.88-3.4ZM368.68 179.94c-1.07.14-2.13.21-3.16.21-4.73 0-9-1.5-12.26-4.37-4.14-3.63-6.3-9.07-6.26-15.74a25.29 25.29 0 0 1 5.46-15.77c-3.38 2.71-6 6.4-7.52 10.7l-.07 17.2a17.5 17.5 0 0 0 4.83 7.17c3.26 2.86 7.53 4.37 12.27 4.37 1.03 0 2.08-.07 3.15-.22a22.92 22.92 0 0 0 14.93-8.36 23.1 23.1 0 0 1-11.37 4.8ZM274.45 136.13l-28.66 1.69-4.99-48.91c-.14.65-.3 1.3-.47 1.93L238 99.8l4.23 41.57 32.73-1.92-.51-3.32ZM294.36 189.28l-.53-45.26-3.59.2.33 27.95 1.99-.22.24 17.54-2.03.27.04 3.07 31.93-4.28v-3.07l-28.38 3.8zM410.33 173.73l-6.57-13.12v.73l-.23 9.45 3.25 6.5 12.33-1.66.1-3.09-8.88 1.19ZM434.84 170.99a19.69 19.69 0 0 1-11.25-1.97l-.82-.43-.1 3.49-2.86.38.23.11a19.68 19.68 0 0 0 11.25 1.97c3.66-.5 7.55-2.56 10.11-6.17a14.94 14.94 0 0 1-6.56 2.62ZM257.18 194.26l-1.17-48.11-3.64.2 1.26 51.47 35.62-4.78-.04-3.07-32.03 4.29zM389.57 176.51l.76-37.95-3.48.2-.14 6.87a22.72 22.72 0 0 1 2.28 10.7 25.55 25.55 0 0 1-2.72 11.13l-.26 12.6 13.88-1.85.07-3.09-10.4 1.4ZM327.47 184.84l-.03-42.73-3.56.2.02 26.21 2.37-.26.03 16.74-2.38.32v3.07l17.35-2.33.01-3.07-13.81 1.85zM181.7 141.57l-39.49 2.31 13.41-117.95-4-.33-13.86 121.82 43.75-2.5.19-3.35zM132.58 210.97l8.19-58.31-3.97-.03-8.67 61.68 29.24-3.59.2-3.1-24.99 3.35zM214.97 81.6c.37-3.03.8-6.06 1.46-8.96l9.14-39.46-2.66-.27-9.74 42.02 1.8 6.68ZM228.54 198.1l-1.72-50.3-3.67.21 1.84 53.64 22.84-3.06-.08-3.06-19.21 2.57zM200.73 201.83l-3.54-23.34-2.79 8.59 2.78 18.3 23.98-3.21-.69-2.99-19.74 2.65zM173.25 205.51l-10.5-23.05-.17-.46v.02l-.66 9.97 7.78 17.08 15.86-2.14 1.04-3.21-13.35 1.8Z" class="h"/><path d="m157.38 23.7 41.6 4.31 15.96 59.26.91.02c.51-4.73 1.01-9.75 2.04-14.32l9.73-41.99 33.78 3.5 15.38 100.01-29.65 1.74-5.71-56.1-.6-.02c-.54 3.45-1.05 7.04-1.94 10.35l-12.21 46.97-20.63 1.22-15.05-46c-1.3-4.78-2.46-9.28-2.93-14.08l-1.27-.04c-.12 4.5-.22 9.14-.48 13.63l-2.67 47.8-39.74 2.32L157.38 23.7ZM279.46 36.36l50.32 5.21.01 24.97-21.69-1.27.05 8.99 19.83.86.02 23.41-19.7-.01.06 9.07 22.16-.34.01 24.09-49.73 2.92-1.34-97.9zM398.3 81.49c-.38 12.83-.57 23.52-6.93 33.62-5.83 9.34-14.9 14.81-23.76 15.35-9.01.56-17.42-2.9-23.68-10.05-6.42-7.34-10.48-18.46-10.47-32.72 0-29.32 15.8-45.5 35.15-43.45 10.1 1.08 23.25 9.5 27.2 23.62L377.03 77c-1.54-4.25-4.5-6.62-7.9-6.82-7.76-.43-12.2 8.9-12.26 19.23-.07 9.37 4.05 18.06 11.04 17.94a8.95 8.95 0 0 0 8.54-7.27l-9.49.02.2-19.74 31.12 1.12ZM420.12 99.3l3.67-22.77.62.04c.23 3.19.46 6.47.87 9.65l1.63 13.07h-6.8Zm-3.5 17.75 12.74-.5 1.26 8.93 16.58-.98-13.36-72.14-18.94-1.96-19.08 77.12 19.2-1.13 1.6-9.34Z" class="k"/><path d="m228.25 145.87 20.24-1.14 1.36 49-19.87 2.66-1.73-50.52zM257.46 144.22l18.5-1.05.59 32.04 14.54-1.59.19 14.56-32.64 4.37-1.18-48.33zM295.31 142.08l16.35-.92.2 30.18 12.91-1.41.02 13.76-28.95 3.87-.53-45.48zM328.94 140.18l14.56-.82-.17 41.84-14.36 1.92-.03-42.94zM391.87 136.63l11.03-.63 9.32 19.84.31-.04c-.35-3.01-.73-6.13-.65-9.25l.3-11.07 10.1-.57-1.08 35.85-10 1.34-9.13-18.22-.33.03c.3 2.54.57 4.93.52 7.4l-.29 12.03-10.87 1.45.77-38.16ZM427.69 157.37l.49.46c1.72 1.57 3.8 2.77 6.04 2.51.95-.1 2.48-.78 2.54-2.34.05-1.56-1.21-1.56-2.09-1.7l-1.93-.25c-3.83-.48-7.03-3.11-6.86-8.69.27-8.49 6.39-13.58 12.24-13.9 3-.17 5.69.65 8.13 2.55l-2.85 8.97c-1.56-1.33-3.35-2.34-5.4-2.17-.85.06-2.1.57-2.16 2-.03 1.3 1.16 1.4 1.88 1.56l2.14.46c3.95.84 6.69 3.38 6.47 9.14-.31 8.05-6.02 12.77-11.69 13.53a18.2 18.2 0 0 1-10.35-1.8l3.4-10.33ZM142.56 150.7l26.5-1.49 10.77 28.21.62-.04c.31-2.42.62-4.98 1.28-7.36l6.3-21.88 23.17-1.3 11.68 50.5-20.88 2.8-4.31-28.33-.41.04c-.35 1.79-.68 3.66-1.27 5.41l-8.03 24.76-13.83 1.86-10.03-22.04a30.45 30.45 0 0 1-1.96-6.77l-.83.08c-.05 2.23-.1 4.53-.25 6.77l-1.58 23.92-25.16 3.38 8.22-58.51ZM369 137.28c-10.99.6-20.42 9.69-20.5 22.77-.08 13.24 9.08 19.87 19.98 18.4 10.45-1.4 18.78-9.84 19.01-22.14.23-12.13-7.95-19.62-18.5-19.03" class="n"/><path d="m367.44 153.62 3.15-10.78 3.52 10.26 8.99-.73-6.94 6.68 3.1 9.28-8-4.67-9.38 8.96 3.55-12.16-10.36-5.94 12.37-.9z" style="fill:#fff"/><g style="clip-path:url(#d)"><path d="M65.46 25h101.5v101.51H65.46z" style="fill:url(#e)"/></g><path d="M114.89 136.23a83.5 83.5 0 0 1-15.43-.75 47.66 47.66 0 0 0 30.91 6.52 41.78 41.78 0 0 0 20.09-7.39l.44-.32a48.17 48.17 0 0 0 16.78-19.62l.73-1.63.12-.27.37-.82a43.24 43.24 0 0 0 1.63-4.76c-9.71 16.18-30.76 27.94-55.64 29.04" class="g"/><path d="m155.87 74.93.86-9.38-5.12 6.48-7.04-5.06 2.74-9 7.65 1.6L149 52.4l2.53-8.07-6.35 3.45-6.9-8.33 2.4 10.91-7.3 3.92-5.8-9.57 6.03-7.63-10.29.54-6.95-11.68-.07 12.06-13.6.71 13.7 7.24-.15 12.33-14.07-.06-6.84-14.16-4.02 14.09-20.1-.24 17.56 9.18-4.53 15.88 14.4-10.92 12.97 6.88-5.9 13.3L88 93l13.44 8.77-7.32 16.11 14.5-11.43 10.78 7.02-2.88-13.43 10.56-8.24 6.71 8.68-6.25 12.44 10.36-7.08 5.91 7.8-.5-11.5 7.97-5.46-8.39-1.8-.42-10.93 8.11-2.03 3.82 8.96.92-10.12 6.54-1.56-6-4.26Zm-13.6 8.88-5.02 9.78-10.16-2.13-12.25.38-2.81-13-5.86-12.4 10.3-7.94 7.1-8.68 9.7 5.08 8.82 1.98 2.26 10.17 3.84 9.22-5.92 7.55Z" class="n"/><path d="M24.42 45.5c-4.58 11.65-2.21 39.6 8.25 58.95a154.3 154.3 0 0 0 13.97 23.18c-13.76-14.44-29.36-37.64-35.58-66.71 6.63-9.6 9.14-11.26 13.36-15.42Z" class="k"/><path d="M95.5 21.47a45.12 45.12 0 0 1 6.85-2.11c-6-3.37-51.4-27.48-84.84-4.82C-10.72 33.66 2.93 73.35 5.94 81.07c8.22 22.42 24.63 45.2 46.2 64.13 20.93 18.36 45.63 29.66 68.34 35.18l.24-.67c-13.93-6.67-26.57-17.78-39.08-28.76C44.88 118.69 24.99 75.73 33.3 47.4a171.6 171.6 0 0 1 25.93 15.93c.4-1.75.88-3.47 1.44-5.15A174.38 174.38 0 0 0 32.9 41.64l-2.47-1.16-.94 2.56c-5.41 14.68-3.55 33.88 5.25 54.06 8.81 20.2 24.3 40.66 43.6 57.6a192.49 192.49 0 0 0 17.14 13.43 177.34 177.34 0 0 1-40.04-26.7C34.49 123.06 18.58 101 10.62 79.3c-2.78-7.14-15.39-43.63 9.7-60.62 9.37-6.35 19.96-8.62 30.3-8.62 18.69 0 36.55 7.39 44.89 11.41Z" class="g"/><path d="M87.7 25.23c-10.47-4.1-26.47-10-36.92-10-10.77 0-20.12 2.63-27.8 7.84-.54.36-1.1.77-1.75 1.28l-.45.37-.07.06c-.36.3-.72.6-1.1.95l-.19.17-.34.31c-.4.39-.8.8-1.2 1.22l-.69.79-.03.04a25.86 25.86 0 0 0-1.28 1.6l-.16.22-.1.14c-5.14 7.24-6.35 16.27-5.84 24.74 1.22-1.9 2.57-3.7 4.07-5.41 4.14-4.72 9.97-11 15.88-13.78l3.96 1.87 1.28.6c6.75 3.2 18.96 9.92 27.48 15.2a59.21 59.21 0 0 1 25.24-28.21Z" class="g"/><path d="M54.32 71.84c0-17.1 7.3-32.51 18.94-43.29a49.51 49.51 0 0 0 0 86.59 58.83 58.83 0 0 1-18.94-43.3Z" class="k"/></g><g id="f"><path d="m210.6 0 7.7.81c6.2.66 10.46 5.4 10.43 10.98v.06c-.02 5.58-4.33 9.47-10.53 8.8l-7.7-.8.1-19.85Zm4.32 4.4-.06 11.96 3.36.36c3.55.37 5.96-1.78 5.97-5.3v-.06a6.41 6.41 0 0 0-5.92-6.6l-3.35-.36ZM230.74 12.11v-.05c.03-5.65 4.28-9.82 10.34-9.18 3.72.4 5.94 1.88 7.77 3.89l-2.78 2.9c-1.52-1.54-3.06-2.56-5.04-2.77-3.32-.35-5.73 2.18-5.75 5.58v.06c-.01 3.4 2.31 6.48 5.7 6.84 2.25.24 3.64-.52 5.2-1.78l2.74 3.1c-2.04 1.97-4.3 3.1-8.1 2.7a11.3 11.3 0 0 1-10.08-11.28ZM258.96 5.11l4.34.46-.07 15.88 9.84 1.04-.02 3.97-14.18-1.5.09-19.85ZM273.38 16.62v-.06c.02-5.64 4.47-9.79 10.56-9.14 6.1.64 10.44 5.67 10.41 11.3v.06c-.02 5.65-4.47 9.8-10.56 9.15a11.47 11.47 0 0 1-10.41-11.3Zm16.44 1.74v-.06a6.8 6.8 0 0 0-5.95-6.87c-3.5-.37-5.94 2.16-5.95 5.56v.06a6.8 6.8 0 0 0 5.95 6.86c3.5.37 5.93-2.15 5.95-5.55ZM301.01 13.59l-6-.64.01-4.02 16.36 1.73-.02 4.02-6-.63-.08 15.82-4.34-.46.07-15.82ZM318.3 15.41l-6-.63.01-4.03 16.35 1.73-.01 4.03-6.01-.64-.07 15.82-4.34-.46.07-15.82ZM331 12.73l14.9 1.57-.02 3.89-10.58-1.12-.02 4.03 9.3.98-.01 3.88-9.3-.98-.02 4.17 10.71 1.13-.02 3.89-15.02-1.6.09-19.84ZM348.92 14.62l9.02.96c2.5.26 4.45 1.18 5.74 2.62a6.86 6.86 0 0 1 1.67 4.71v.06c-.02 3.2-1.74 5.04-4.26 5.7l4.79 7.6-5.08-.53-4.2-6.8-3.4-.36-.04 6.35-4.34-.46.1-19.85Zm8.69 10.57c2.11.22 3.33-.78 3.34-2.46v-.05c0-1.88-1.28-2.98-3.4-3.2l-4.31-.46-.03 5.7 4.4.47ZM373.1 29.2l-7.52-12.81 5.08.53 4.67 8.47 4.83-7.46 4.93.52-7.64 11.13-.03 7.91-4.35-.46.04-7.82Z" class="n"/></g></svg>