<svg xmlns="http://www.w3.org/2000/svg" viewBox="0 0 640 232"><path d="M351.22 38.29h36v22.83h-36zM12.31 0h28.47l10.5 41.1H52a88.83 88.83 0 011.9-10.38L62.49 0h28.16l12.52 78.24H76.42l-3.74-42.85h-.51a66.38 66.38 0 01-1.82 7.78l-11 35.07H43.21l-9.89-33.1a54.93 54.93 0 01-1.72-9.75h-.91c-.2 3.11-.4 6.32-.71 9.44l-3.23 33.41H0zm170.21 0v46.29c0 22.82-13.93 33.2-35.24 33.2s-35.23-10.38-35.23-33.2V0h27.66v43.58c0 6.12.2 11.52 7.57 11.52s7.57-5.39 7.57-11.52V0zm14.61 0h27.66v53.13H248v25.11h-50.87zm47.79 0h58.15v25.43l-15.24-.73v53.54h-27.66V24.7l-15.24.73zm68.02 0h27.66v78.24h-27.66zm106.84 0l9.59 46.7h.63a99.66 99.66 0 012.32-14.43L440.38 0h21.2L472 46.7h.6a104.38 104.38 0 011.92-13.8L482.17 0h28.77l-26.85 78.24H460l-8.72-42.54h-.91A75.35 75.35 0 01449 47.53l-7.67 30.72h-23.56L391.12 0zm97.42 0h27.67v78.24H517.2zm40.08 0h26.56l24.83 43.38h.8c-1.11-6.54-2.32-13.28-2.32-19.92V0h26.45v78.24h-26.45l-24.32-41.09H582a94.5 94.5 0 011.72 15.67v25.42h-26.44zM11.14 94.36h49.28v92h41.38v43.48H11.14zm174.34 42.41c15.64 0 25.37 12 25.37 26.41 0 15.45-10.43 26-25.37 26s-25.38-10.6-25.38-26c0-14.37 9.71-26.41 25.38-26.41zm0-44.57c-41.22 0-75 27.67-75 70.25 0 43.48 33.63 69.54 75 69.54s75-26.06 75-69.54c0-42.57-33.79-70.24-75-70.24zm83.11 2.16h103.65v44L345 137.13v92.71h-49.23v-92.71l-27.18 1.26zm112.05 0h103.61v44l-27.15-1.26v92.71h-49.3v-92.68l-27.17 1.26zM565 136.77c15.64 0 25.36 12 25.36 26.41 0 15.45-10.43 26-25.36 26s-25.38-10.6-25.38-26c-.01-14.37 9.7-26.41 25.38-26.41zm0-44.57c-41.22 0-75 27.67-75 70.25 0 43.48 33.63 69.54 75 69.54s75-26.06 75-69.54c0-42.57-33.82-70.24-75-70.24z" fill="#ef3e42"/></svg>