<svg xmlns="http://www.w3.org/2000/svg" viewBox="15.4 107.2 453.9 101.7"><path d="M50.9 135h3.4c6 0 13.6.4 13.6 8.3s-7 9.3-13.5 9.3h-3.7V135h.1Zm-35.5 73.7h35.5V178h18.9c20.5 0 33.4-13 33.4-33.5 0-20.6-17.5-37.2-41.2-37.2H15.4v101.4-.1Zm94.8-101.5H147V176h30.8v32.5h-67.7V107.2Zm117.2 64.7 6.7-31h1.3c.7 4.5 1.3 8.8 2.4 13.1l4.4 17.9h-14.8Zm-6.7 24h27.9l3.3 12.7h39l-36-101.4h-40.7l-35.3 101.4h39l3-12.6h-.2Zm87.5-88.7 11.2 26.5h1c1.2-3.2 2.1-6.4 3.4-9.6l7.3-16.9h41.3l-34.7 57.6v43.7h-36v-43.7l-35.2-57.6h41.7Zm87.5.3h67.5V135h-42.5a33 33 0 0 1-3.1 11.5h.8c2.1-2.3 6-5.2 15.5-5.2 9.6 0 19.5 2.6 26.6 9.3a30.4 30.4 0 0 1 8.8 21.9c0 8-2.2 15.5-10.3 23.4a52 52 0 0 1-37 13c-17.3 0-16.4-1.4-23.5-3.1-5.4-1.3-10.6-2.8-16.3-5l4-27a70.4 70.4 0 0 0 29.3 8.3c8.8 0 7.1 0 11.8-1.8 5.5-2.4 6.2-6.3 6.2-8 0-2.6-1.3-6.1-6.3-8.3a35.5 35.5 0 0 0-14.2-2.4c-5.3 0-15.5.8-25.9 4.4l8.7-58.6Z" class="cls-1" style="fill:#007cc3;stroke-width:0"/></svg>