<svg viewBox="0 0 605.44 134.95" xmlns="http://www.w3.org/2000/svg"><path d="M45.65 37.83h4.5c7.78 0 17.46.52 17.46 10.76 0 10.58-9 12-17.29 12h-4.67zM0 132.92h45.65V93.53h24.2c26.45 0 43.05-16.66 43.05-43.38C112.91 17.7 90.43 2.08 60 2.08H0zM125.87 2.08h47.38v88.85H213v42h-87.13zm150.78 83.47l8.65-39.91h1.7c.86 5.55 1.73 11.28 3.11 16.83l5.53 23.08zm-8.47 31.06H304l4.32 16.31h50.14L311.92 2.08h-52.39l-45.3 130.83h50.14zM392.42 2.08l14.52 34.18h1.38c1.38-4.17 2.59-8.33 4.32-12.32L422 2.08h53.25l-44.62 74.44v56.4h-46.34v-56.4L338.82 2.08zM532.3 87.11c-.35 7.81 5.53 14.75 13.49 14.75 6.4 0 12.8-5.38 12.8-12a12.25 12.25 0 00-11.93-12.15 38 38 0 00-6.4.69V51.19l3.8.35c5.19.52 9.86-4 9.86-9.37s-4-8.68-9.17-8.68c-5.36 0-8.82 4.86-8.3 10.06h-46.68C492.7 10.76 516.39 0 546.13 0c22 0 53.78 10.24 53.78 37.48 0 10.76-6.05 21-16.08 25.33v1c13.66 3.47 21.61 15.62 21.61 29.5 0 31.75-33.2 41.64-59 41.64-31.81 0-60.34-12.15-61.9-47.89z" fill="#007cc3"/></svg>