<svg viewBox="0 0.52 612.76 131.48" xmlns="http://www.w3.org/2000/svg"><g fill="#007cc3"><path d="M46 36.47h4.53c7.84 0 17.59.52 17.59 10.81 0 10.63-9.05 12-17.41 12H46zM0 132h46V92.43h24.33c26.64 0 43.35-16.74 43.35-43.58 0-32.6-22.63-48.29-53.27-48.29H0zM126.74.56h47.7v89.26h40V132h-87.7zm151.8 83.85l8.71-40.09H289c.87 5.58 1.74 11.33 3.13 16.91l5.57 23.19zM270 115.62h36l4.4 16.38h50.49L314.06.56h-52.75L215.7 132h50.48zM395 .56l14.61 34.34H411c1.39-4.18 2.61-8.37 4.36-12.38l9.4-22h53.62l-44.92 74.82V132H386.8V75.34L341 .56zm151.44 50.56a52.18 52.18 0 007.31-11l1 .7a33.22 33.22 0 00-2.09 10.81v19.7l-23.16 1.22v-.7zm-60.41 56l66.67-1.39L551 132h45.27L595 105.68l17.76 1.39v-37l-16.53 1.22V.56h-56.4l-53.83 72z"/></g></svg>