<svg viewBox="9 8.65 324 330.07" xmlns="http://www.w3.org/2000/svg"><defs><style>.cls-1{fill:#fff}.cls-2{fill:#ef8b22}.cls-3{fill:#ff671d}.cls-4{fill:#ca3625}.cls-5{fill:#00ce7c}.cls-6{fill:#006937}.cls-7{fill:#00685f}</style></defs><path class="cls-1" d="M209.81 72.08h-.07a22.52 22.52 0 0 1 2.54 2.14 20.52 20.52 0 0 0-2.47-2.14Zm-15.16-15.4a10.49 10.49 0 0 0 .62 3.14 10.06 10.06 0 0 1-.58-3.15Zm0 38.83Zm-.21-1.39Zm-3.89-28.53-.55-.1Zm-14.38 26.79.27.29-.25-.29ZM194.23 53.67l-.19-.47c-.06-.15-.09-.17-.13-.26a4.24 4.24 0 0 0-.38-.56 5 5 0 0 0-.92-.31 7.08 7.08 0 0 0-3.07 0 9 9 0 0 0-3.1 1.29 10.64 10.64 0 0 0-2.51 2.23 10.28 10.28 0 0 0-1.73 2.9 8.87 8.87 0 0 0-.61 3.19 5.82 5.82 0 0 0 .22 1.76l.4.15c.35.13.73.25 1.14.37s.68.2 1.06.29a1.27 1.27 0 0 1 0-.36 8.2 8.2 0 0 1 .64-3.2 10.4 10.4 0 0 1 4.23-5.12 9 9 0 0 1 3.1-1.31 8.3 8.3 0 0 1 2-.15 4.42 4.42 0 0 0-.15-.44Zm27.39-10a23.83 23.83 0 0 0-6.8-8.65c-.48-.37-1-.7-1.49-1a23.62 23.62 0 0 1 5.48 7.45 27.89 27.89 0 0 1 2.49 11.84c0 6.57-5.32 13-11.91 14.44a10.68 10.68 0 0 1-6.91-.73 9.71 9.71 0 0 0 9.72 3c6.59-1.4 11.94-7.88 11.94-14.47a27.91 27.91 0 0 0-2.52-11.87Zm-27 51.75a1.41 1.41 0 0 1 0-.2v-.23a.79.79 0 0 0 0-.17v-.18a3.15 3.15 0 0 0-.14-.52 26.5 26.5 0 0 0-4-1.16c-2.17-.5-4.77-1-7.6-1.45A51.59 51.59 0 0 1 170.69 88a25.82 25.82 0 0 1-3.29-1.85 22.13 22.13 0 0 0 6.12 4 50.05 50.05 0 0 0 12.12 3.49c2.81.52 5.43 1 7.57 1.46.51.11 1 .23 1.43.34Zm-10.24 8.24a9.22 9.22 0 0 0-5-8.62 9.75 9.75 0 0 1 2.2 6.39 7.1 7.1 0 0 0 .61 3c.13.29.35.54.5.81.21.1.44.17.66.25l.27.07c.35 0 .69.08 1.06.1a7.69 7.69 0 0 1-.28-1.99Z"/><path class="cls-1" d="M194.7 56.67a9.16 9.16 0 0 0-2.57 1.14 10.4 10.4 0 0 0-2.54 2.23 11.25 11.25 0 0 0-1.7 2.9 8.07 8.07 0 0 0-.5 2l2.36.45.29.06.55.11a2 2 0 0 1 .11-.42 11.45 11.45 0 0 1 1.72-2.88 10.3 10.3 0 0 1 2.46-2.26l.39-.22a10.06 10.06 0 0 1-.57-3.11Zm32.56-8.57a23.16 23.16 0 0 0-6.83-8.62 10.73 10.73 0 0 0-1.46-1 23 23 0 0 1 5.45 7.46 27.75 27.75 0 0 1 2.52 11.8c0 6.57-5.35 13.06-11.91 14.46a10.88 10.88 0 0 1-5.22-.11h-.07a22.52 22.52 0 0 1 2.54 2.14 10.56 10.56 0 0 0 5.53.18c6.61-1.41 11.94-7.88 11.94-14.41a28 28 0 0 0-2.49-11.9Zm-38.81 47.84a51.16 51.16 0 0 1-12.12-3.49.46.46 0 0 0-.14-.07l.27.29a3 3 0 0 1 .23.27 6.6 6.6 0 0 1 .5.68c.64.38 1.3.74 2 1a51.58 51.58 0 0 0 12.13 3.48l2.91.54a7.29 7.29 0 0 0 .37-1.62c-1.86-.34-3.93-.67-6.15-1.08ZM185 99.47a10 10 0 0 1 2.17 5.89 8.9 8.9 0 0 0 2.2-.92 8.73 8.73 0 0 0-4.37-4.97ZM229.75 99.67a34.23 34.23 0 0 1-.64 6.52 37.89 37.89 0 0 1-1.85 6.39 42.36 42.36 0 0 1-6.83 11.54 43 43 0 0 1-10.09 9A38.23 38.23 0 0 1 198 138.2a32 32 0 0 1-6.57.7 27.71 27.71 0 0 1-5.76-.59 24.35 24.35 0 0 1-10.11-4.66c-.46-.39-.91-.77-1.33-1.19a24.35 24.35 0 0 0 8.61 3.64 29.83 29.83 0 0 0 12.36-.13 36.43 36.43 0 0 0 6.39-2 38.64 38.64 0 0 0 6-3.12 43.27 43.27 0 0 0 10.09-8.94 42 42 0 0 0 6.79-11.56 35.6 35.6 0 0 0 2.52-12.91 28.87 28.87 0 0 0-.74-6.66 20.82 20.82 0 0 0-5.34-9.78c-.27-.27-.53-.47-.8-.71a21.33 21.33 0 0 1 3.6 2.92A20.64 20.64 0 0 1 229 93a28.29 28.29 0 0 1 .75 6.67Z"/><path class="cls-1" d="M174.34 129.46a24.34 24.34 0 0 1-10.08-4.65 23.82 23.82 0 0 1-6.83-8.65 28.41 28.41 0 0 1-2.49-11.83v-.07c0-6.57 5.35-13 11.91-14.41a9.76 9.76 0 0 1 9.34 2.53l.27.29a3 3 0 0 1 .23.27 9.89 9.89 0 0 1 2.09 6.31 7.58 7.58 0 0 0 .63 3 5.64 5.64 0 0 0 1.73 2.14 6.15 6.15 0 0 0 2.24 1.13l.27.07a7.93 7.93 0 0 0 3.1 0 9.34 9.34 0 0 0 3.07-1.26 11.5 11.5 0 0 0 2.51-2.27A10.13 10.13 0 0 0 194 99.1a9.06 9.06 0 0 0 .6-3.22V95a.79.79 0 0 0 0-.17v-.18a2.35 2.35 0 0 0-.14-.53c0-.1-.09-.18-.13-.27a2.37 2.37 0 0 0-1-1 7.92 7.92 0 0 0-1.75-.91 28.49 28.49 0 0 0-4-1.2c-2.15-.47-4.77-.9-7.57-1.42a52.14 52.14 0 0 1-12.13-3.48A23.51 23.51 0 0 1 161 81a20.81 20.81 0 0 1-5.29-9.76 27.2 27.2 0 0 1-.74-6.54v-.26a35.8 35.8 0 0 1 2.49-12.76 43.25 43.25 0 0 1 16.88-20.48 37.72 37.72 0 0 1 12.26-5.12.49.49 0 0 1 .18 0 30.13 30.13 0 0 1 12.32-.11 24 24 0 0 1 10.08 4.65 23.47 23.47 0 0 1 6.8 8.66 27.94 27.94 0 0 1 2.52 11.83c0 6.58-5.35 13-11.92 14.44-5.26 1.12-9.73-1.32-11.31-5.7a10.06 10.06 0 0 1-.58-3.15v-.53a7.09 7.09 0 0 0-.41-2.48l-.19-.47-.13-.26a5.68 5.68 0 0 0-1.6-1.91 6.11 6.11 0 0 0-2.51-1.17 7.08 7.08 0 0 0-3.07 0 8.84 8.84 0 0 0-3.1 1.29 10.64 10.64 0 0 0-2.51 2.23 10.28 10.28 0 0 0-1.73 2.9 9.59 9.59 0 0 0-.63 3.2 4.51 4.51 0 0 0 .34 2 2.83 2.83 0 0 0 1 1 10.7 10.7 0 0 0 1.73.89l.4.15a36.24 36.24 0 0 0 3.62 1.03c1.17.27 2.46.51 3.85.76l.29.06.55.11 2.89.52a51.64 51.64 0 0 1 12.12 3.49 25.23 25.23 0 0 1 4.26 2.49h-.07a22.52 22.52 0 0 1 2.54 2.14l.16.16a20.61 20.61 0 0 1 5.27 9.77 27.14 27.14 0 0 1 .77 6.66 35.91 35.91 0 0 1-2.53 12.98 42.26 42.26 0 0 1-6.8 11.54 43.47 43.47 0 0 1-10.08 9 39.63 39.63 0 0 1-6 3.12 37.42 37.42 0 0 1-6.38 2 29.5 29.5 0 0 1-12.4.09Z"/><path class="cls-1" d="M180 133.89a23.75 23.75 0 0 1-10.09-4.68 13.54 13.54 0 0 1-1.35-1.16 24.43 24.43 0 0 0 8.63 3.61 29.39 29.39 0 0 0 12.34-.12 36.55 36.55 0 0 0 6.38-2 40.46 40.46 0 0 0 6-3.12 43 43 0 0 0 16.91-20.5A35.61 35.61 0 0 0 221.3 93a27.64 27.64 0 0 0-.76-6.64 20.55 20.55 0 0 0-5.27-9.78c-.24-.26-.53-.48-.77-.72a22 22 0 0 1 3.6 2.93 21.13 21.13 0 0 1 5.29 9.76 28.39 28.39 0 0 1 .75 6.66 36 36 0 0 1-2.52 12.91 43 43 0 0 1-16.91 20.49 37.62 37.62 0 0 1-12.34 5.12h-.06a29.69 29.69 0 0 1-12.31.16ZM267.35 52.65l2.77-.59ZM298.25 18.61v78.51c0 6.52-5.26 12.89-11.77 14.27s-11.78-2.76-11.78-9.27V80.21l-10.15 2.16v27.48c0 6.5-5.26 12.9-11.77 14.27a9.48 9.48 0 0 1-9.58-2.93 10.42 10.42 0 0 0 6.81.75c6.48-1.39 11.77-7.78 11.77-14.3V80.17l12.92-2.75v-2.78L259 78v27.48c0 6.53-5.29 12.9-11.78 14.29s-11.8-2.76-11.8-9.28V32c0-6.49 5.29-12.9 11.8-14.27S259 20.47 259 26.94v27.48l2.77-.59 2.77-.58 2.8-.59 2.77-.59 4.58-1V23.61c0-6.49 5.26-12.89 11.78-14.27s11.78 2.78 11.78 9.27Z"/><path class="cls-1" d="M298.85 14.45a9.68 9.68 0 0 1 2.15 6.37v78.49c0 6.53-5.26 12.9-11.74 14.27a10.35 10.35 0 0 1-6.83-.73 9.55 9.55 0 0 0 9.6 2.93c6.49-1.38 11.77-7.78 11.77-14.27V23a9.19 9.19 0 0 0-4.95-8.55Zm-39.24 8.33a9.87 9.87 0 0 1 2.17 6.37v24.68l2.77-.58V31.33a9.25 9.25 0 0 0-4.94-8.55Z"/><path class="cls-1" d="M304.43 18.83a9.86 9.86 0 0 1 2.19 6.36v78.5c0 6.52-5.31 12.9-11.8 14.27a10.15 10.15 0 0 1-6.8-.72 9.52 9.52 0 0 0 9.57 2.93c6.52-1.39 11.8-7.78 11.8-14.27V27.37a9.25 9.25 0 0 0-4.96-8.54Zm-37.08 65.74V112c0 6.51-5.26 12.88-11.8 14.27a10.15 10.15 0 0 1-6.8-.72 9.58 9.58 0 0 0 9.6 2.93c6.52-1.39 11.77-7.78 11.77-14.27V86.75l4.58-1V83Zm-2.17-57.39a9.79 9.79 0 0 1 2.17 6.35v19.13l2.77-.59V35.72a9.21 9.21 0 0 0-4.94-8.54ZM121.34 100.07 116.77 83a1.55 1.55 0 0 0-1.94-1.09 2.61 2.61 0 0 0-1.92 1.91l-4.58 19a1.93 1.93 0 0 0 .35 1.64 1.72 1.72 0 0 0 1.6.42l9.12-1.88a2.59 2.59 0 0 0 1.6-1.1 2.3 2.3 0 0 0 .34-1.83Zm-4.94-.46-3.57.75 2-8.34 2 7.49ZM125.73 132.76v.14a.6.6 0 0 1 0-.14Zm-.67-2.54.67 2.54-.66-2.54Zm-.71-2.68-.27-1Zm-43.49 8.31a13.49 13.49 0 0 0-.46 3.36 10.5 10.5 0 0 0 1 4.57c.21-.46.39-.92.58-1.38a13.63 13.63 0 0 0 1-4.83 10.14 10.14 0 0 0-1.22-4.95Z"/><path class="cls-1" d="m148.83 121.41-22.46-75c-1.46-4.87-6.17-7.42-11.54-6.29a15.83 15.83 0 0 0-11.52 11.2l-21.6 81.35a10.14 10.14 0 0 1 1.22 4.95 13.63 13.63 0 0 1-1 4.83c-.19.46-.37.92-.58 1.38a9.09 9.09 0 0 0 7.76 5.11 11.94 11.94 0 0 0 3.24-.27 15.85 15.85 0 0 0 11.52-11.17l2.85-11.84 16.15-3.43.71 2.69.45 1.67.27 1 .71 2.68.66 2.54a.6.6 0 0 0 .09.13c1.56 4.93 6.31 7.28 11.5 6.19a14.57 14.57 0 0 0 3.25-1.12c5.29-2.63 8.75-8.16 8.75-13.41a11.53 11.53 0 0 0-.43-3.19Zm-40.5-18.57 4.58-19a2.61 2.61 0 0 1 1.92-1.91 1.55 1.55 0 0 1 1.94 1.07l4.57 17.06a2.3 2.3 0 0 1-.34 1.79 2.59 2.59 0 0 1-1.6 1.1l-9.12 1.94a1.72 1.72 0 0 1-1.6-.42 1.93 1.93 0 0 1-.35-1.63Z"/><path class="cls-1" d="m116.61 98.66-.21 1 .45-.1Zm37.88 27.22L132 50.8a9 9 0 0 0-4.6-5.52 9.22 9.22 0 0 1 1.78 3.3l22.43 75.08a10.37 10.37 0 0 1 .45 3.14c0 5.24-3.46 10.77-8.73 13.38a13.5 13.5 0 0 1-3.24 1.14 10.44 10.44 0 0 1-6.92-.76c2.21 2.69 5.85 3.81 9.74 3a12.63 12.63 0 0 0 3.24-1.13c5.27-2.62 8.76-8.17 8.76-13.39a11 11 0 0 0-.42-3.16Zm-30.41.66-.45-1.67-14 3-2.85 11.84a15.85 15.85 0 0 1-11.52 11.18 12.66 12.66 0 0 1-3.25.24 10.35 10.35 0 0 1-3.67-1 9.2 9.2 0 0 0 6.49 3.22 11.71 11.71 0 0 0 3.28-.27 15.8 15.8 0 0 0 11.49-11.16l2.87-11.84 11.92-2.54Z"/><path class="cls-1" d="m160.13 130.32-22.43-75a9.07 9.07 0 0 0-4.59-5.54 9 9 0 0 1 1.75 3.32l22.45 75.05a11.08 11.08 0 0 1 .46 3.16c0 5.22-3.46 10.75-8.75 13.38a13.92 13.92 0 0 1-3.22 1.13 10.72 10.72 0 0 1-7-.73 9.81 9.81 0 0 0 9.76 3 13.87 13.87 0 0 0 3.25-1.14c5.29-2.62 8.72-8.14 8.72-13.38a10.57 10.57 0 0 0-.4-3.25Zm-34.4 2.44-.66-2.54-9.81 2.08-2.84 11.83a15.88 15.88 0 0 1-11.52 11.19 11.28 11.28 0 0 1-3.28.24 9.7 9.7 0 0 1-3.64-1 9.08 9.08 0 0 0 6.49 3.2 11.45 11.45 0 0 0 3.25-.24 15.89 15.89 0 0 0 11.54-11.19l2.82-11.82 7.71-1.64a.6.6 0 0 1-.06-.11ZM177 183.69a12.63 12.63 0 0 0-7.4-4.52 15.61 15.61 0 0 0-6.52.07 20.63 20.63 0 0 0-9.37 4.85 22.91 22.91 0 0 0-6.1 8.7 18.8 18.8 0 0 0-1.31 6.79v55.94a14 14 0 0 0 2.86 8.76 12.59 12.59 0 0 0 7.39 4.52 15.66 15.66 0 0 0 6.53-.07 20.71 20.71 0 0 0 9.37-4.84 23 23 0 0 0 6.1-8.7 19.29 19.29 0 0 0 1.31-6.8v-55.93a14 14 0 0 0-2.86-8.77Zm-2.73 65.88a12.43 12.43 0 0 1-.88 4.54 15.21 15.21 0 0 1-4.06 5.8 13.53 13.53 0 0 1-6.25 3.22 10.5 10.5 0 0 1-4.35.06 4.42 4.42 0 0 1-.65-.17 8.33 8.33 0 0 1-4.28-2.85 9.18 9.18 0 0 1-1.9-5.85V198.4a12.47 12.47 0 0 1 .87-4.54 15.13 15.13 0 0 1 4.07-5.79 13.58 13.58 0 0 1 6.24-3.24 10.47 10.47 0 0 1 4.35 0 8.42 8.42 0 0 1 4.94 3 9.28 9.28 0 0 1 1.9 5.85Z"/><path class="cls-1" d="M163 296.72H163.17a53.48 53.48 0 0 0 17.37-7.21 61.13 61.13 0 0 0 19.67-20.38 52.77 52.77 0 0 0 7.65-26.46v-56.16a39.57 39.57 0 0 0-3.52-16.67 33.05 33.05 0 0 0-16.2-16.23 39.63 39.63 0 0 0-24.91-2.36h-.09a1.59 1.59 0 0 0-.28.06 53.33 53.33 0 0 0-17.17 7.17 61.1 61.1 0 0 0-19.69 20.4 52.86 52.86 0 0 0-7.66 26.63 1.09 1.09 0 0 0 0 .18v55.76a39.68 39.68 0 0 0 3.51 16.68A33.09 33.09 0 0 0 138 294.37c7.14 3.29 15.78 4.28 25 2.35Zm-9.3-112.63a20.63 20.63 0 0 1 9.37-4.85 15.61 15.61 0 0 1 6.52-.07 12.63 12.63 0 0 1 7.4 4.52 14 14 0 0 1 2.86 8.77v55.93a19.29 19.29 0 0 1-1.31 6.8 23 23 0 0 1-6.1 8.7 20.71 20.71 0 0 1-9.37 4.84 15.66 15.66 0 0 1-6.53.07 12.59 12.59 0 0 1-7.39-4.52 14 14 0 0 1-2.86-8.76v-55.94a18.8 18.8 0 0 1 1.31-6.79 22.91 22.91 0 0 1 6.1-8.7Z"/><path class="cls-1" d="M172.68 188.29a8.33 8.33 0 0 0-1.29-.39 10.48 10.48 0 0 0-4.35 0 13.84 13.84 0 0 0-6.25 3.23 15.4 15.4 0 0 0-4.06 5.8 12.48 12.48 0 0 0-.88 4.54v55.92a9.3 9.3 0 0 0 1.59 5.37l.63.21a4.42 4.42 0 0 0 .65.17 9 9 0 0 0 1.48.14 10 10 0 0 1-.38-2.77v-55.87a12.35 12.35 0 0 1 .88-4.54 15.15 15.15 0 0 1 4.06-5.79 13.61 13.61 0 0 1 6.24-3.23 10.65 10.65 0 0 1 2.87-.23 9 9 0 0 0-1.19-2.56Z"/><path class="cls-1" d="M168.73 197.43a15.21 15.21 0 0 0-4.07 5.79 12.78 12.78 0 0 0-.88 4.55v55.16a13.63 13.63 0 0 0 4-1.81v-50.23a12.47 12.47 0 0 1 .87-4.54 15.24 15.24 0 0 1 4.07-5.8 16.3 16.3 0 0 1 1.57-1.2v-4.94a13.63 13.63 0 0 0-5.56 3.02ZM286.32 160.46a12.63 12.63 0 0 0-7.4-4.53 15.83 15.83 0 0 0-6.53.07l-14 3a3.67 3.67 0 0 0-2 1.25 3.48 3.48 0 0 0-.82 2.16v41.94a2.24 2.24 0 0 0 .83 1.8 2.37 2.37 0 0 0 2 .4l14-3a20.73 20.73 0 0 0 9.37-4.85 22.84 22.84 0 0 0 6.1-8.69 18.91 18.91 0 0 0 1.31-6.81v-14a13.9 13.9 0 0 0-2.86-8.74Zm-2.74 23.93a12.68 12.68 0 0 1-.87 4.54 15.3 15.3 0 0 1-4.08 5.8 13.75 13.75 0 0 1-6.24 3.23l-3.26.69-4 .84-4 .84V164l11.19-2.38a10.32 10.32 0 0 1 4.35 0 8.43 8.43 0 0 1 4.94 3 9.15 9.15 0 0 1 1.9 5.83Z"/><path class="cls-1" d="M282 165.06a7.83 7.83 0 0 0-1.3-.39 10.27 10.27 0 0 0-4.34.05l-11.19 2.38v32.39l4-.84v-28.43l11.19-2.38a11.11 11.11 0 0 1 2.87-.22 9 9 0 0 0-1.23-2.56Z"/><path class="cls-1" d="M273.1 173.34v24.41a13.4 13.4 0 0 0 4-1.82v-19.46l6.51-1.38v-4Z"/><path class="cls-1" d="M244.43 279.4c9.27-2 16.77-11.08 16.77-20.35v-25.16l11.19-2.38a53 53 0 0 0 17.42-7.23 61 61 0 0 0 19.68-20.37 53 53 0 0 0 7.64-26.47 1.09 1.09 0 0 0 0-.18v-14a39.42 39.42 0 0 0-3.53-16.67 33 33 0 0 0-16.19-16.23c-7.09-3.29-15.73-4.28-24.9-2.36h-.11l-.26.06-27.71 5.94a21.58 21.58 0 0 0-11.86 7.44 20.7 20.7 0 0 0-4.92 12.91v111.84c0 9.27 7.51 15.18 16.78 13.21Zm34.49-123.47a12.63 12.63 0 0 1 7.4 4.53 13.9 13.9 0 0 1 2.85 8.76v14a18.91 18.91 0 0 1-1.31 6.81 22.84 22.84 0 0 1-6.1 8.69 20.73 20.73 0 0 1-9.37 4.85l-14 3a2.37 2.37 0 0 1-2-.4 2.24 2.24 0 0 1-.83-1.8v-41.99a3.48 3.48 0 0 1 .82-2.16 3.67 3.67 0 0 1 2-1.25l14-3a15.83 15.83 0 0 1 6.54-.04ZM67.67 206.93a12.59 12.59 0 0 0-7.4-4.52 15.61 15.61 0 0 0-6.52.07l-14 3a3.63 3.63 0 0 0-2 1.24 3.48 3.48 0 0 0-.82 2.16v42a2.23 2.23 0 0 0 .82 1.79 2.37 2.37 0 0 0 2 .41l14-3a20.76 20.76 0 0 0 9.37-4.84 22.74 22.74 0 0 0 6.09-8.7 18.61 18.61 0 0 0 1.32-6.8v-14a14 14 0 0 0-2.86-8.81Zm-2.74 23.94a12.51 12.51 0 0 1-.87 4.54A15.21 15.21 0 0 1 60 241.2a13.71 13.71 0 0 1-6.24 3.23l-3.26.69-4 .84-4 .85v-36.36l11.19-2.38a10.66 10.66 0 0 1 4.35 0A8.49 8.49 0 0 1 63 211a9.17 9.17 0 0 1 1.89 5.84Z"/><path class="cls-1" d="M63.36 211.53a9.3 9.3 0 0 0-1.3-.39 10.44 10.44 0 0 0-4.34.05l-11.19 2.38V246l4-.84V216.7l11.19-2.38a10.65 10.65 0 0 1 2.87-.23 9 9 0 0 0-1.23-2.56Z"/><path class="cls-1" d="M25.79 325.87c9.26-2 16.77-11.08 16.77-20.34v-25.17L53.75 278a53.26 53.26 0 0 0 17.42-7.23 61 61 0 0 0 19.67-20.38 53 53 0 0 0 7.65-26.47v-14.18A39.48 39.48 0 0 0 95 193.07a33 33 0 0 0-16.2-16.22 39.6 39.6 0 0 0-24.9-2.36h-.1l-.27.05-27.71 5.9a21.57 21.57 0 0 0-11.87 7.43A20.81 20.81 0 0 0 9 200.81v111.85c0 9.28 7.52 15.18 16.79 13.21ZM37 208.85a3.48 3.48 0 0 1 .82-2.16 3.63 3.63 0 0 1 2-1.24l14-3a15.61 15.61 0 0 1 6.52-.07 12.59 12.59 0 0 1 7.4 4.52 14 14 0 0 1 2.86 8.76v14a18.61 18.61 0 0 1-1.32 6.8 22.74 22.74 0 0 1-6.09 8.7 20.76 20.76 0 0 1-9.44 4.84l-14 3a2.37 2.37 0 0 1-2-.41 2.23 2.23 0 0 1-.75-1.79Z"/><path class="cls-1" d="M54.46 219.82v24.4a13.24 13.24 0 0 0 4-1.81v-19.47l6.5-1.38v-4Z"/><path class="cls-2" d="M169.59 179.17a15.61 15.61 0 0 0-6.52.07 20.63 20.63 0 0 0-9.37 4.85 22.77 22.77 0 0 0-6.09 8.7 18.77 18.77 0 0 0-1.32 6.79v55.94a13.93 13.93 0 0 0 2.86 8.76 12.65 12.65 0 0 0 7.39 4.53 15.84 15.84 0 0 0 6.53-.08 20.55 20.55 0 0 0 9.36-4.85 22.76 22.76 0 0 0 6.11-8.69 19.07 19.07 0 0 0 1.31-6.8v-55.93a13.9 13.9 0 0 0-2.86-8.77 12.63 12.63 0 0 0-7.4-4.52Zm4.67 70.41a12.67 12.67 0 0 1-.87 4.53 15.35 15.35 0 0 1-4.07 5.8 13.69 13.69 0 0 1-6.25 3.23 10.49 10.49 0 0 1-4.35.05 8.43 8.43 0 0 1-4.93-3 9.18 9.18 0 0 1-1.9-5.85V198.4a12.47 12.47 0 0 1 .87-4.54 15.24 15.24 0 0 1 4.07-5.8 13.66 13.66 0 0 1 6.24-3.23 10.66 10.66 0 0 1 4.35-.05 8.49 8.49 0 0 1 4.94 3 9.28 9.28 0 0 1 1.9 5.85Z"/><path class="cls-2" d="M188.1 153.61c-7.1-3.3-15.74-4.29-24.91-2.36h-.09l-.28.06a53.33 53.33 0 0 0-17.17 7.17 61.19 61.19 0 0 0-19.65 20.4 52.86 52.86 0 0 0-7.66 26.63 1.09 1.09 0 0 0 0 .18v55.76a39.53 39.53 0 0 0 3.52 16.68A33 33 0 0 0 138 294.37c7.1 3.29 15.74 4.28 24.91 2.35H163.08a53.27 53.27 0 0 0 17.37-7.21 61.13 61.13 0 0 0 19.67-20.38 52.77 52.77 0 0 0 7.65-26.46 1.21 1.21 0 0 0 0-.19v-55.97a39.45 39.45 0 0 0-3.53-16.67 33 33 0 0 0-16.14-16.23Zm14.12 90a46.32 46.32 0 0 1-6.69 23.3 53.53 53.53 0 0 1-17.21 17.83 47.11 47.11 0 0 1-15.17 6.31h-.12a34.57 34.57 0 0 1-21.86-2A28.88 28.88 0 0 1 127 274.86a34.38 34.38 0 0 1-3.08-14.58v-55.94a46.22 46.22 0 0 1 6.69-23.34 53.47 53.47 0 0 1 17.21-17.84 46.47 46.47 0 0 1 15.09-6.29l.33-.07a34.56 34.56 0 0 1 21.76 2.11 28.86 28.86 0 0 1 14.18 14.2 34.46 34.46 0 0 1 3.08 14.59v55.93l-.04.02Z"/><path class="cls-3" d="M212.22 176.08a39.5 39.5 0 0 1 3.53 16.68v55.93a1.09 1.09 0 0 1 0 .18 52.83 52.83 0 0 1-7.65 26.47 61.12 61.12 0 0 1-19.67 20.38 53.24 53.24 0 0 1-17.37 7.2h-.11c-9.17 1.93-17.81 1-24.91-2.35a33.22 33.22 0 0 1-8.47-5.67 33.77 33.77 0 0 0 4.51 2.55c7.09 3.29 15.73 4.28 24.9 2.35h.18a53.32 53.32 0 0 0 17.36-7.2 61.24 61.24 0 0 0 19.68-20.38 52.93 52.93 0 0 0 7.65-26.47v-56.12a39.45 39.45 0 0 0-3.59-16.63 33.6 33.6 0 0 0-7.72-10.56 33.1 33.1 0 0 1 11.68 13.64ZM167 188a13.64 13.64 0 0 0-6.25 3.23 15.18 15.18 0 0 0-4.06 5.79 12.48 12.48 0 0 0-.88 4.54v55.92a9.19 9.19 0 0 0 1.59 5.36 7.9 7.9 0 0 0 1.28.39 9 9 0 0 0 1.48.14 10 10 0 0 1-.38-2.76v-55.96a12.56 12.56 0 0 1 .87-4.55 15.28 15.28 0 0 1 4.07-5.79 13.56 13.56 0 0 1 6.24-3.23 10.61 10.61 0 0 1 2.86-.23 8.45 8.45 0 0 0-1.19-2.56 9 9 0 0 0-1.28-.39 10.5 10.5 0 0 0-4.35.1Z"/><path class="cls-4" d="M220.15 182.33a39.45 39.45 0 0 1 3.53 16.67v55.93a1.21 1.21 0 0 1 0 .19 52.77 52.77 0 0 1-7.68 26.46A61 61 0 0 1 196.35 302a53.3 53.3 0 0 1-17.35 7.17h-.18c-9.17 1.93-17.81.94-24.91-2.35a33.2 33.2 0 0 1-8.46-5.68 32 32 0 0 0 4.5 2.55c7.09 3.3 15.74 4.29 24.9 2.35h.15a53.48 53.48 0 0 0 17.37-7.21 61.13 61.13 0 0 0 19.67-20.38 52.9 52.9 0 0 0 7.67-26.45v-56.12a39.42 39.42 0 0 0-3.53-16.67 33.45 33.45 0 0 0-7.72-10.56 33 33 0 0 1 11.69 13.68Zm-55.49 20.89a12.78 12.78 0 0 0-.88 4.55v55.16a13.63 13.63 0 0 0 4-1.81v-50.23a12.47 12.47 0 0 1 .87-4.54 15.24 15.24 0 0 1 4.07-5.8 14.83 14.83 0 0 1 1.57-1.2v-4.94a13.74 13.74 0 0 0-5.54 3 15.37 15.37 0 0 0-4.09 5.81Z"/><path class="cls-2" d="M313.61 146.6a33 33 0 0 0-16.19-16.23 39.6 39.6 0 0 0-24.9-2.36h-.1l-.27.06-27.72 5.93a21.64 21.64 0 0 0-11.87 7.44 20.74 20.74 0 0 0-4.91 12.91v111.84c0 9.27 7.51 15.18 16.78 13.21s16.77-11.08 16.77-20.34v-25.17l11.19-2.37a53.62 53.62 0 0 0 17.43-7.23 61.22 61.22 0 0 0 19.67-20.38 52.86 52.86 0 0 0 7.64-26.47v-14.18a39.42 39.42 0 0 0-3.52-16.66Zm-2.06 31.86a46.27 46.27 0 0 1-6.69 23.3 53.5 53.5 0 0 1-17.22 17.84 46.57 46.57 0 0 1-15.24 6.32l-14 3a3.66 3.66 0 0 0-2 1.24 3.51 3.51 0 0 0-.82 2.16v28c0 6.18-5 12.23-11.18 13.56s-11.18-2.63-11.19-8.81V153.14a13.84 13.84 0 0 1 3.28-8.61 14.43 14.43 0 0 1 7.89-4.95l28-6h.16a34.65 34.65 0 0 1 21.73 2.08 28.9 28.9 0 0 1 14.18 14.2 34.35 34.35 0 0 1 3.08 14.54v14Z"/><path class="cls-2" d="M278.92 155.93a15.83 15.83 0 0 0-6.53.07l-14 3a3.68 3.68 0 0 0-2 1.25 3.48 3.48 0 0 0-.82 2.16v41.94a2.23 2.23 0 0 0 .83 1.8 2.35 2.35 0 0 0 2 .4l14-3a20.63 20.63 0 0 0 9.37-4.85 22.84 22.84 0 0 0 6.1-8.69 18.91 18.91 0 0 0 1.31-6.81v-14a13.94 13.94 0 0 0-2.85-8.76 12.7 12.7 0 0 0-7.41-4.51Zm4.66 28.46a12.68 12.68 0 0 1-.87 4.54 15.38 15.38 0 0 1-4.07 5.8 13.69 13.69 0 0 1-6.25 3.23l-11.19 2.37V164l11.19-2.38a10.32 10.32 0 0 1 4.35 0 8.49 8.49 0 0 1 4.94 3 9.15 9.15 0 0 1 1.9 5.83Z"/><path class="cls-3" d="M325.07 169.51v14a1.21 1.21 0 0 1 0 .19 52.92 52.92 0 0 1-7.64 26.47 61.28 61.28 0 0 1-19.67 20.37 53.4 53.4 0 0 1-17.43 7.23l-11.18 2.37v25.16c0 9.27-7.51 18.37-16.78 20.34-5.65 1.2-10.63-.53-13.67-4.16a14.75 14.75 0 0 0 9.71 1c9.26-2 16.77-11.08 16.77-20.34V237l11.19-2.37a53.26 53.26 0 0 0 17.42-7.23 61.13 61.13 0 0 0 19.66-20.4 53 53 0 0 0 7.65-26.47v-14.14a39.45 39.45 0 0 0-3.52-16.67 33.48 33.48 0 0 0-7.73-10.56 33.09 33.09 0 0 1 11.69 13.69 39.41 39.41 0 0 1 3.53 16.66Zm-48.71-4.79-11.19 2.38v32.39l4-.84v-28.43l11.18-2.38a11.11 11.11 0 0 1 2.87-.22 8.83 8.83 0 0 0-1.19-2.56 8.13 8.13 0 0 0-1.3-.39 10.44 10.44 0 0 0-4.37.05Z"/><path class="cls-4" d="M333 175.76v14a1.09 1.09 0 0 1 0 .18 52.86 52.86 0 0 1-7.64 26.47 61.22 61.22 0 0 1-19.67 20.38 53.53 53.53 0 0 1-17.44 7.21l-11.18 2.37v25.17c0 9.26-7.51 18.37-16.78 20.34-5.65 1.2-10.63-.54-13.67-4.17a14.68 14.68 0 0 0 9.71 1c9.26-2 16.77-11.08 16.77-20.35v-25.1l11.19-2.38a53 53 0 0 0 17.42-7.23 61.09 61.09 0 0 0 19.67-20.37 52.9 52.9 0 0 0 7.62-26.47v-14.17a39.42 39.42 0 0 0-3.49-16.64 33.32 33.32 0 0 0-7.73-10.56 33 33 0 0 1 11.69 13.68 39.45 39.45 0 0 1 3.53 16.64Zm-59.9 22a13.4 13.4 0 0 0 4-1.82v-19.47l6.51-1.39v-4l-10.48 2.23Z"/><path class="cls-2" d="M95 193.08a33 33 0 0 0-16.2-16.23c-7.09-3.3-15.72-4.29-24.9-2.36h-.1a1.52 1.52 0 0 0-.27.06l-27.71 5.89a21.62 21.62 0 0 0-11.87 7.43A20.84 20.84 0 0 0 9 200.81v111.85c0 9.27 7.52 15.18 16.79 13.21s16.77-11.08 16.77-20.34v-25.17L53.75 278a53.26 53.26 0 0 0 17.42-7.23 61.19 61.19 0 0 0 19.67-20.37 53 53 0 0 0 7.65-26.47v-14.18A39.42 39.42 0 0 0 95 193.08Zm-2.1 31.86a46.28 46.28 0 0 1-6.68 23.3A53.69 53.69 0 0 1 69 266.08a47 47 0 0 1-15.24 6.32l-14 3a3.57 3.57 0 0 0-2 1.24 3.46 3.46 0 0 0-.82 2.15v28c0 6.18-5 12.24-11.18 13.57s-11.18-2.64-11.19-8.82V199.62a13.82 13.82 0 0 1 3.31-8.62 14.47 14.47 0 0 1 7.89-5l28-5.94h.16a34.59 34.59 0 0 1 21.73 2.08 28.88 28.88 0 0 1 14.18 14.19 34.72 34.72 0 0 1 3.08 14.54v14Z"/><path class="cls-2" d="M60.27 202.41a15.61 15.61 0 0 0-6.52.07l-14 3a3.63 3.63 0 0 0-2 1.24 3.48 3.48 0 0 0-.82 2.16v42a2.23 2.23 0 0 0 .82 1.79 2.33 2.33 0 0 0 2 .4l14-3a20.76 20.76 0 0 0 9.37-4.84 22.85 22.85 0 0 0 6.09-8.7 18.61 18.61 0 0 0 1.32-6.8v-14a14 14 0 0 0-2.86-8.76 12.63 12.63 0 0 0-7.4-4.56Zm4.66 28.46a12.51 12.51 0 0 1-.87 4.54A15.21 15.21 0 0 1 60 241.2a13.71 13.71 0 0 1-6.24 3.23l-11.19 2.38v-36.36l11.19-2.38a10.66 10.66 0 0 1 4.35 0A8.49 8.49 0 0 1 63 211a9.25 9.25 0 0 1 1.89 5.84Z"/><path class="cls-3" d="M106.42 216v14.17a53 53 0 0 1-7.65 26.47A61 61 0 0 1 79.1 277a53.24 53.24 0 0 1-17.42 7.22l-11.19 2.38v25.17c0 9.26-7.5 18.37-16.77 20.34-5.65 1.2-10.63-.54-13.68-4.17a14.69 14.69 0 0 0 9.71 1.06c9.27-2 16.78-11.08 16.78-20.35v-25.17l11.19-2.37a53.14 53.14 0 0 0 17.42-7.23 61.19 61.19 0 0 0 19.67-20.37 52.89 52.89 0 0 0 7.64-26.51 1.15 1.15 0 0 0 0-.19v-14a39.42 39.42 0 0 0-3.53-16.67 33.45 33.45 0 0 0-7.72-10.56 33.13 33.13 0 0 1 11.69 13.68 39.45 39.45 0 0 1 3.53 16.74Zm-48.7-4.79-11.19 2.37V246l4-.84V216.7l11.19-2.38a10.61 10.61 0 0 1 2.86-.23 8.68 8.68 0 0 0-1.18-2.56 10.88 10.88 0 0 0-1.3-.39 10.45 10.45 0 0 0-4.38.06Z"/><path class="cls-4" d="M114.36 222.24v14.19a52.93 52.93 0 0 1-7.65 26.47A61.09 61.09 0 0 1 87 283.25a53.26 53.26 0 0 1-17.42 7.23l-11.19 2.37V318c0 9.27-7.5 18.37-16.77 20.34C36 339.56 31 337.83 28 334.2a14.76 14.76 0 0 0 9.71 1c9.27-2 16.78-11.08 16.78-20.34v-25.13l11.19-2.37a53.57 53.57 0 0 0 17.42-7.23 61.13 61.13 0 0 0 19.67-20.38 52.86 52.86 0 0 0 7.64-26.47 1.09 1.09 0 0 0 0-.18v-14a39.3 39.3 0 0 0-3.53-16.67 33.45 33.45 0 0 0-7.72-10.56 33 33 0 0 1 11.69 13.69 39.42 39.42 0 0 1 3.51 16.68Zm-59.9 22a13 13 0 0 0 4-1.81v-19.49l6.51-1.38v-4l-10.47 2.23Z"/><path class="cls-1" d="M48.72 82.69a9.7 9.7 0 0 0 .55 1 11.3 11.3 0 0 1-.55-1Zm7.42 5.15a9.39 9.39 0 0 1-4.88-1.94 9.25 9.25 0 0 0 4.93 1.95Z"/><path class="cls-1" d="m48.72 82.69-.1-.2a4.49 4.49 0 0 0-.37-.59 6.77 6.77 0 0 0-4-.27 9.78 9.78 0 0 0-4.45 2.31A11.24 11.24 0 0 0 36.91 88a9 9 0 0 0-.6 3.22v39.62a6.67 6.67 0 0 0 1.11 3.81 8.06 8.06 0 0 0 .92.28l.51.08h.52a8.34 8.34 0 0 1-.26-2V93.46a8.39 8.39 0 0 1 .63-3.21 10.67 10.67 0 0 1 2.88-4.11 10.08 10.08 0 0 1 4.44-2.31 7 7 0 0 1 2.21-.13 11.3 11.3 0 0 1-.55-1.01Zm27.53-9.49A23.61 23.61 0 0 0 68 63.51 24.35 24.35 0 0 1 73.45 71a10.61 10.61 0 0 1 .92 4.44 15.44 15.44 0 0 1-7.26 12.51 14.29 14.29 0 0 1-4.6 1.91 10.59 10.59 0 0 1-6.89-.74 9.7 9.7 0 0 0 9.69 3 14.29 14.29 0 0 0 4.62-1.92 15.39 15.39 0 0 0 7.27-12.57 10.4 10.4 0 0 0-.95-4.43ZM77.2 132.71a13.37 13.37 0 0 1-1 4.83 42.91 42.91 0 0 1-11.47 16.4 39.71 39.71 0 0 1-17.72 9.18H47a28.06 28.06 0 0 1-17.67-1.65 23.81 23.81 0 0 1-6-4 26.69 26.69 0 0 0 3.22 1.82 28.11 28.11 0 0 0 17.67 1.64h.08a39.52 39.52 0 0 0 17.7-9.2 43.06 43.06 0 0 0 11.46-16.4 13.49 13.49 0 0 0 .92-4.83 9.66 9.66 0 0 0-2.19-6.36 9.23 9.23 0 0 1 5.01 8.57Z"/><path class="cls-1" d="M23.68 157a23.3 23.3 0 0 1-11.46-11.49 28 28 0 0 1-2.52-11.77V94.06a37.19 37.19 0 0 1 5.45-18.85 42.42 42.42 0 0 1 13.92-14.43 37.81 37.81 0 0 1 12.2-5.11h.19a28.37 28.37 0 0 1 17.65 1.67A23.34 23.34 0 0 1 70.62 68.8a10.38 10.38 0 0 1 .95 4.41 15.39 15.39 0 0 1-7.26 12.51 14 14 0 0 1-4.62 1.91 11.55 11.55 0 0 1-3.54.22 9.39 9.39 0 0 1-4.88-1.94 8.63 8.63 0 0 1-1.95-2.2 11.3 11.3 0 0 1-.59-1l-.1-.2a5.73 5.73 0 0 0-2.78-2.65 6.87 6.87 0 0 0-4.41-.43A9.56 9.56 0 0 0 37 81.72a10.61 10.61 0 0 0-2.88 4.08 9 9 0 0 0-.64 3.25v39.63a6.53 6.53 0 0 0 1.38 4.12 5.87 5.87 0 0 0 3.48 2.2l.51.08h.52a7.82 7.82 0 0 0 2.06-.17 9.36 9.36 0 0 0 3-1.22l.33-.21a8.84 8.84 0 0 0 1.1-.86 10.8 10.8 0 0 0 2.88-4.1 15.68 15.68 0 0 1 11-9.61 11.08 11.08 0 0 1 4.62 0c4.54.94 7.26 4.78 7.26 9.42a13 13 0 0 1-.95 4.83 42.75 42.75 0 0 1-11.51 16.34 41.84 41.84 0 0 1-8.3 5.75 36.67 36.67 0 0 1-9.43 3.44A28 28 0 0 1 23.68 157Z"/><path class="cls-1" d="M56.15 87.85a9.39 9.39 0 0 1-4.88-1.94 8.5 8.5 0 0 0-1.36.16 9.84 9.84 0 0 0-4.44 2.29 10.78 10.78 0 0 0-2.88 4.12 8.94 8.94 0 0 0-.63 3.2v39.1a10 10 0 0 0 2.5-1.07l.33-.21V97.91a8.51 8.51 0 0 1 .63-3.25 10.36 10.36 0 0 1 2.85-4.1 9.79 9.79 0 0 1 4.44-2.28 6.88 6.88 0 0 1 4 .26l-.56-.69Zm21.66 40.69a10 10 0 0 1 2.19 6.39 13.39 13.39 0 0 1-.92 4.82 43.16 43.16 0 0 1-11.47 16.38 39.48 39.48 0 0 1-17.72 9.19h-.06a28 28 0 0 1-17.67-1.66 24.08 24.08 0 0 1-3.2-1.81 23.74 23.74 0 0 0 6 4 27.89 27.89 0 0 0 17.64 1.69h.06a39.17 39.17 0 0 0 17.72-9.21A42.9 42.9 0 0 0 81.87 142a13.48 13.48 0 0 0 1-4.84 9.3 9.3 0 0 0-5.06-8.62Zm4.06-50.89A23.09 23.09 0 0 0 73.58 68a23.37 23.37 0 0 1 5.47 7.46 10.63 10.63 0 0 1 1 4.44 15.41 15.41 0 0 1-7.27 12.51 13.86 13.86 0 0 1-4.62 1.92 10.32 10.32 0 0 1-6.84-.76 9.68 9.68 0 0 0 9.64 3 13.66 13.66 0 0 0 4.65-1.93 15.36 15.36 0 0 0 7.27-12.46 10.42 10.42 0 0 0-1.01-4.53Z"/><path class="cls-5" d="M209.08 30.16A23.93 23.93 0 0 0 199 25.52a29.91 29.91 0 0 0-12.31.11h-.18a38 38 0 0 0-12.26 5.13 43.2 43.2 0 0 0-16.92 20.49 36.23 36.23 0 0 0-2.5 12.75 1.2 1.2 0 0 0 0 .27 27.71 27.71 0 0 0 .75 6.54 20.69 20.69 0 0 0 5.29 9.75 23.55 23.55 0 0 0 6.91 4.81 52 52 0 0 0 12.13 3.48c2.8.52 5.42.94 7.56 1.41a29.49 29.49 0 0 1 4 1.21 8 8 0 0 1 1.75.9 2.45 2.45 0 0 1 .95 1 3.78 3.78 0 0 1 .34 2 8.85 8.85 0 0 1-.61 3.22 10.38 10.38 0 0 1-1.72 2.87 11.46 11.46 0 0 1-2.51 2.26 9.22 9.22 0 0 1-3.07 1.26 7.57 7.57 0 0 1-3.1 0 6.21 6.21 0 0 1-2.51-1.19 5.72 5.72 0 0 1-1.73-2.14 7.63 7.63 0 0 1-.63-3c0-6.59-5.32-10.8-11.91-9.4s-11.89 7.84-11.92 14.42v.07a28.6 28.6 0 0 0 2.49 11.83 23.91 23.91 0 0 0 6.83 8.64 24.45 24.45 0 0 0 10.09 4.66 29.51 29.51 0 0 0 12.36-.15 37.64 37.64 0 0 0 12.43-4.94 43.09 43.09 0 0 0 10.09-9 42.51 42.51 0 0 0 6.8-11.54 35.86 35.86 0 0 0 2.51-12.89 27.28 27.28 0 0 0-.76-6.67 20.61 20.61 0 0 0-5.28-9.68 23.43 23.43 0 0 0-6.91-4.78 51.59 51.59 0 0 0-12.12-3.48c-2.84-.53-5.43-1-7.58-1.44a30.8 30.8 0 0 1-4-1.18 11.86 11.86 0 0 1-1.75-.9 2.92 2.92 0 0 1-1-1.05 4.45 4.45 0 0 1-.34-2 9.54 9.54 0 0 1 .63-3.2A10 10 0 0 1 181 53a10.68 10.68 0 0 1 2.51-2.24 8.93 8.93 0 0 1 3.1-1.28 7.08 7.08 0 0 1 3.07 0 6.22 6.22 0 0 1 2.51 1.16 5.67 5.67 0 0 1 1.72 2.18 6.75 6.75 0 0 1 .61 3c0 6.58 5.35 10.77 11.94 9.37s11.91-7.86 11.91-14.44a28 28 0 0 0-2.51-11.83 23.74 23.74 0 0 0-6.78-8.76Zm5.34 21.35a10.36 10.36 0 0 1-7.94 9.63c-4.39.94-7.94-1.87-8-6.25a10.41 10.41 0 0 0-.92-4.45 8.89 8.89 0 0 0-6.33-5 11.48 11.48 0 0 0-4.63 0 14.21 14.21 0 0 0-4.6 1.99 15.52 15.52 0 0 0-3.79 3.36 16.37 16.37 0 0 0-2.56 4.32 13.69 13.69 0 0 0-.93 4.84 8 8 0 0 0 .69 3.6 5.86 5.86 0 0 0 1.93 2.1 9.7 9.7 0 0 0 2.33 1.23 28 28 0 0 0 4.5 1.34c2.3.53 4.92 1 7.7 1.47a48.41 48.41 0 0 1 11.39 3.24 20.54 20.54 0 0 1 6 4.2l1.56-1.6-1.56 1.6a17.48 17.48 0 0 1 4.5 8.28 23.8 23.8 0 0 1 .66 5.63v.22a31.44 31.44 0 0 1-2.19 11.26 37.09 37.09 0 0 1-6 10.11 38.69 38.69 0 0 1-8.84 7.84 33 33 0 0 1-10.8 4.46h-.06a26.21 26.21 0 0 1-10.72.1A21.65 21.65 0 0 1 167 121a20.57 20.57 0 0 1-6-7.58 24.48 24.48 0 0 1-2.19-10.23v-.12a10.37 10.37 0 0 1 7.94-9.64c4.39-.92 7.94 1.88 7.94 6.27a10.59 10.59 0 0 0 .93 4.43 9.19 9.19 0 0 0 2.56 3.25 9.44 9.44 0 0 0 3.79 1.76 11.14 11.14 0 0 0 4.66-.07 13.29 13.29 0 0 0 4.6-1.91 16.33 16.33 0 0 0 3.81-3.37 16 16 0 0 0 2.55-4.33 13.16 13.16 0 0 0 .92-4.83 7.72 7.72 0 0 0-.68-3.59 5.69 5.69 0 0 0-1.91-2.13 12.23 12.23 0 0 0-2.36-1.22 35.07 35.07 0 0 0-4.47-1.36c-2.3-.52-4.92-.92-7.7-1.45A46.85 46.85 0 0 1 170 81.61a20 20 0 0 1-6-4.17 17.8 17.8 0 0 1-4.53-8.31 25.65 25.65 0 0 1-.63-5.8v-.11A31.46 31.46 0 0 1 161 52a36.25 36.25 0 0 1 6-10.09 36.72 36.72 0 0 1 8.84-7.84 32.77 32.77 0 0 1 10.72-4.47h.16a26.18 26.18 0 0 1 10.75-.1 20.91 20.91 0 0 1 8.84 4.09 20.1 20.1 0 0 1 6 7.56 24.59 24.59 0 0 1 2.19 10.35Z"/><path class="cls-6" d="M223.29 88.15a28.8 28.8 0 0 1 .74 6.66 36 36 0 0 1-2.51 12.91 43.06 43.06 0 0 1-16.92 20.48 37.29 37.29 0 0 1-12.33 5.13h-.06a29.51 29.51 0 0 1-12.33.12 23.85 23.85 0 0 1-10.09-4.67 16.64 16.64 0 0 1-1.35-1.17 24.26 24.26 0 0 0 8.63 3.62 29.56 29.56 0 0 0 12.34-.12A38.46 38.46 0 0 0 201.8 126a42.89 42.89 0 0 0 16.91-20.5 35.53 35.53 0 0 0 2.49-12.88 27.23 27.23 0 0 0-.77-6.65 20.42 20.42 0 0 0-5.27-9.78c-.23-.25-.52-.47-.76-.71a22.48 22.48 0 0 1 3.6 2.92 21.17 21.17 0 0 1 5.29 9.75Zm-38.7 17.09a7.76 7.76 0 0 1-.29-2 9.23 9.23 0 0 0-5-8.61 9.75 9.75 0 0 1 2.2 6.39 7 7 0 0 0 .61 3c.13.29.35.54.5.81a6 6 0 0 0 .93.31c.34.05.68.07 1.05.1Zm9.74-11.54a27.59 27.59 0 0 0-4-1.17c-2.17-.5-4.77-.94-7.6-1.44a52.07 52.07 0 0 1-12.12-3.48 25.91 25.91 0 0 1-3.29-1.86 22.17 22.17 0 0 0 6.12 4.06 50.05 50.05 0 0 0 12.12 3.49c2.81.52 5.43 1 7.57 1.46.51.1 1 .22 1.43.34a4.16 4.16 0 0 0-.21-1.38Zm20.38-59.09c-.47-.37-1-.69-1.48-1a24 24 0 0 1 5.48 7.39 27.91 27.91 0 0 1 2.49 11.85c0 6.58-5.32 13-11.91 14.44a10.61 10.61 0 0 1-6.91-.73 9.7 9.7 0 0 0 9.71 3c6.6-1.4 11.94-7.87 11.94-14.46a27.85 27.85 0 0 0-2.51-11.81 23.8 23.8 0 0 0-6.81-8.68ZM193.43 52a4.83 4.83 0 0 0-.93-.3 7.08 7.08 0 0 0-3.07 0 9 9 0 0 0-3.09 1.3 10.7 10.7 0 0 0-2.52 2.24 10.29 10.29 0 0 0-1.72 2.89 8.75 8.75 0 0 0-.61 3.2 6.46 6.46 0 0 0 .21 1.76 23.35 23.35 0 0 0 2.6.81 1.31 1.31 0 0 1 0-.36 8.37 8.37 0 0 1 .63-3.2 10.58 10.58 0 0 1 4.24-5.13 9.36 9.36 0 0 1 3.1-1.31 8.24 8.24 0 0 1 2-.14 5.14 5.14 0 0 0-.35-1 4.07 4.07 0 0 0-.49-.76Z"/><path class="cls-7" d="M228.9 92.59a28.29 28.29 0 0 1 .75 6.67 35.93 35.93 0 0 1-2.49 12.9 43.53 43.53 0 0 1-16.92 20.5 38.16 38.16 0 0 1-12.33 5.13h-.06a30 30 0 0 1-12.33.11 24.28 24.28 0 0 1-10.12-4.67c-.45-.38-.9-.76-1.32-1.19a24.2 24.2 0 0 0 8.6 3.64 29.66 29.66 0 0 0 12.36-.13 37.92 37.92 0 0 0 12.37-5.11 43 43 0 0 0 10.08-9 42 42 0 0 0 6.8-11.55A35.6 35.6 0 0 0 226.84 97a29 29 0 0 0-.74-6.67 20.85 20.85 0 0 0-5.3-9.75c-.26-.27-.53-.48-.79-.72a22.32 22.32 0 0 1 3.6 2.93 20.59 20.59 0 0 1 5.29 9.8Zm-44 6.47a10 10 0 0 1 2.17 5.89 9.33 9.33 0 0 0 2.2-.93 8.71 8.71 0 0 0-4.36-4.96Zm-5.9-4.81a50.57 50.57 0 0 0 12.12 3.48l2.92.54a8 8 0 0 0 .37-1.61c-1.81-.4-3.87-.73-6.09-1.14A50.69 50.69 0 0 1 176.23 92l-.16-.06a7.14 7.14 0 0 1 1 1.24 20.52 20.52 0 0 0 1.93 1.07Zm41.3-55.19a10.41 10.41 0 0 0-1.46-1 23 23 0 0 1 5.45 7.46 27.71 27.71 0 0 1 2.52 11.79c0 6.58-5.35 13.07-11.91 14.47a10.94 10.94 0 0 1-5.3-.13 20.74 20.74 0 0 1 2.54 2.14 10.67 10.67 0 0 0 5.56.18c6.59-1.38 11.92-7.86 11.92-14.42a28 28 0 0 0-2.49-11.83 23.22 23.22 0 0 0-6.8-8.66ZM192 57.4a10.7 10.7 0 0 0-2.55 2.24 11.33 11.33 0 0 0-1.69 2.9 7.69 7.69 0 0 0-.5 2l3.2.62a2 2 0 0 1 .11-.42 11.51 11.51 0 0 1 1.72-2.89 10.06 10.06 0 0 1 2.51-2.23l.4-.23a9.68 9.68 0 0 1-.58-3.15A9.66 9.66 0 0 0 192 57.4Z"/><path class="cls-5" d="M286.38 8.92c-6.52 1.39-11.78 7.78-11.78 14.27v27.48L258.9 54V26.53c0-6.48-5.28-10.65-11.77-9.26s-11.8 7.78-11.8 14.27v78.51c0 6.52 5.29 10.65 11.8 9.28s11.75-7.76 11.77-14.29V77.56l15.7-3.34v27.49c0 6.51 5.26 10.66 11.78 9.27s11.77-7.76 11.77-14.27V18.2c0-6.49-5.26-10.67-11.77-9.28Zm7.84 88.61a10.26 10.26 0 0 1-7.84 9.54c-4.32.89-7.85-1.86-7.85-6.2V71.43a1.52 1.52 0 0 0-.58-1.25 1.69 1.69 0 0 0-1.39-.3l-19.62 4.17a2.59 2.59 0 0 0-1.38.89 2.36 2.36 0 0 0-.58 1.51v29.43a10.32 10.32 0 0 1-7.85 9.53c-4.34.89-7.85-1.85-7.85-6.19V30.7a10.23 10.23 0 0 1 7.85-9.51c4.32-.92 7.82 1.84 7.85 6.18v29.44a1.6 1.6 0 0 0 .58 1.28 1.63 1.63 0 0 0 1.38.26l19.62-4.17a2.49 2.49 0 0 0 1.39-.85 2.45 2.45 0 0 0 .58-1.53V22.35a10.25 10.25 0 0 1 7.85-9.51c4.34-.91 7.84 1.85 7.84 6.18Z"/><path class="cls-6" d="m264.45 52.83-2.77.59V28.74a9.82 9.82 0 0 0-2.18-6.37 9.23 9.23 0 0 1 4.95 8.55Zm-2.77 26.93v27.47c0 6.52-5.29 12.91-11.78 14.29a10.34 10.34 0 0 1-6.8-.74 9.5 9.5 0 0 0 9.58 2.93c6.51-1.38 11.77-7.77 11.77-14.28V82l10.15-2.16V77ZM298.75 14a9.7 9.7 0 0 1 2.17 6.37v78.52c0 6.53-5.26 12.9-11.75 14.28a10.33 10.33 0 0 1-6.82-.74 9.53 9.53 0 0 0 9.6 2.93c6.49-1.37 11.77-7.77 11.77-14.27V22.58a9.2 9.2 0 0 0-4.97-8.58Z"/><path class="cls-7" d="m270 51.66-2.77.58V33.12a9.82 9.82 0 0 0-2.17-6.36 9.23 9.23 0 0 1 4.94 8.55Zm-2.77 32.49v27.47c0 6.51-5.26 12.88-11.8 14.27a10.15 10.15 0 0 1-6.8-.72 9.55 9.55 0 0 0 9.6 2.93c6.51-1.38 11.77-7.78 11.77-14.27v-27.5l4.58-1v-2.75Zm37.07-65.73a9.77 9.77 0 0 1 2.2 6.35v78.5c0 6.52-5.31 12.9-11.8 14.28a10.21 10.21 0 0 1-6.8-.72 9.54 9.54 0 0 0 9.57 2.93c6.52-1.39 11.8-7.78 11.8-14.27V27a9.24 9.24 0 0 0-4.95-8.58Z"/><path class="cls-5" d="M64.31 118.88a11.08 11.08 0 0 0-4.62.05 15.65 15.65 0 0 0-11 9.59 10.87 10.87 0 0 1-2.88 4.11 9.74 9.74 0 0 1-4.41 2.29 7.69 7.69 0 0 1-3.09 0 5.87 5.87 0 0 1-3.48-2.16 6.5 6.5 0 0 1-1.38-4.11v-39.6a9 9 0 0 1 .64-3.25A10.65 10.65 0 0 1 37 81.71a9.72 9.72 0 0 1 4.43-2.29 6.75 6.75 0 0 1 4.41.42 5.79 5.79 0 0 1 2.88 2.85c1.93 4.15 6.32 5.93 11 4.94a14 14 0 0 0 4.62-1.91 15.41 15.41 0 0 0 7.26-12.51 10.38 10.38 0 0 0-.95-4.41 23.38 23.38 0 0 0-11.49-11.51 28.37 28.37 0 0 0-17.65-1.67h-.18a38 38 0 0 0-12.21 5.11A42.48 42.48 0 0 0 15.15 75.2a37.24 37.24 0 0 0-5.44 18.86v39.68a28 28 0 0 0 2.51 11.81A23.3 23.3 0 0 0 23.68 157a28 28 0 0 0 17.67 1.66h.08a39.36 39.36 0 0 0 17.73-9.19 42.86 42.86 0 0 0 11.46-16.37 13 13 0 0 0 .95-4.83c0-4.61-2.72-8.45-7.26-9.39ZM67 132.36a37.53 37.53 0 0 1-10.06 14.31 34.61 34.61 0 0 1-15.45 8.06h-.14a24.78 24.78 0 0 1-15.45-1.48 20.5 20.5 0 0 1-10-10.07 24.44 24.44 0 0 1-2.19-10.31V93.24a33 33 0 0 1 4.73-16.5A38.12 38.12 0 0 1 30.63 64.1a31.85 31.85 0 0 1 10.75-4.48.24.24 0 0 1 .11 0A24.65 24.65 0 0 1 56.94 61 20.68 20.68 0 0 1 67 71.11a7 7 0 0 1 .61 2.89 10.28 10.28 0 0 1-4.83 8.35 9.48 9.48 0 0 1-3.09 1.29 6.29 6.29 0 0 1-7.32-3.28 8.68 8.68 0 0 0-4.31-4.32 10.4 10.4 0 0 0-6.63-.62 14.65 14.65 0 0 0-6.65 3.44 15.92 15.92 0 0 0-4.31 6.16 13.69 13.69 0 0 0-.95 4.82v39.64a10 10 0 0 0 2 6.2 8.93 8.93 0 0 0 5.25 3.21 10.93 10.93 0 0 0 4.62-.05 14.78 14.78 0 0 0 6.63-3.44 16.59 16.59 0 0 0 4.34-6.16 10.42 10.42 0 0 1 7.29-6.4 7.66 7.66 0 0 1 3.09 0 6.1 6.1 0 0 1 4.83 6.27 9.54 9.54 0 0 1-.57 3.25Z"/><path class="cls-6" d="M48.72 82.69a11.3 11.3 0 0 0 .59 1 6.92 6.92 0 0 0-2.25.12 9.88 9.88 0 0 0-4.44 2.31 10.49 10.49 0 0 0-2.88 4.11 8.39 8.39 0 0 0-.63 3.21v39.63a7.87 7.87 0 0 0 .26 2c-.34 0-.71-.07-1-.13a7.49 7.49 0 0 1-.92-.28 6.67 6.67 0 0 1-1.11-3.81v-39.6a8.77 8.77 0 0 1 .58-3.25 11 11 0 0 1 2.88-4.09 9.5 9.5 0 0 1 4.43-2.3 6.72 6.72 0 0 1 4 .26 4.84 4.84 0 0 1 .49.82Zm23.46 41.45a9.67 9.67 0 0 1 2.19 6.37 13.47 13.47 0 0 1-.92 4.82A43.13 43.13 0 0 1 62 151.73a39.68 39.68 0 0 1-17.73 9.17h-.08a28.11 28.11 0 0 1-17.67-1.64 25.94 25.94 0 0 1-3.22-1.82 24.12 24.12 0 0 0 6 4 28.13 28.13 0 0 0 17.7 1.68h.08a39.66 39.66 0 0 0 17.72-9.18 42.73 42.73 0 0 0 11.47-16.4 13.58 13.58 0 0 0 1-4.83 9.23 9.23 0 0 0-5.09-8.57Zm2.19-48.71a15.44 15.44 0 0 1-7.26 12.51 14 14 0 0 1-4.6 1.91 10.6 10.6 0 0 1-6.89-.74 9.68 9.68 0 0 0 9.69 3 14.52 14.52 0 0 0 4.63-1.92 15.41 15.41 0 0 0 7.26-12.56 10.59 10.59 0 0 0-1-4.43 23.52 23.52 0 0 0-8.2-9.68A24 24 0 0 1 73.45 71a10.61 10.61 0 0 1 .92 4.43Z"/><path class="cls-6" d="m56.15 87.85.55.69a6.88 6.88 0 0 0-4-.26 9.79 9.79 0 0 0-4.44 2.28 10.36 10.36 0 0 0-2.85 4.1 8.51 8.51 0 0 0-.63 3.25v35.58a9.83 9.83 0 0 1-2.83 1.28v-39.1a8.94 8.94 0 0 1 .63-3.2 10.78 10.78 0 0 1 2.88-4.12 9.84 9.84 0 0 1 4.44-2.29 9 9 0 0 1 1.4-.16 9.45 9.45 0 0 0 4.85 1.95Zm21.66 40.69a10 10 0 0 1 2.19 6.39 13.16 13.16 0 0 1-.93 4.82 43 43 0 0 1-11.46 16.38 39.38 39.38 0 0 1-17.72 9.19h-.06a28.07 28.07 0 0 1-17.67-1.65 26.54 26.54 0 0 1-3.2-1.81 24.1 24.1 0 0 0 6 4 27.92 27.92 0 0 0 17.65 1.69.08.08 0 0 0 .05 0h.06a39.09 39.09 0 0 0 17.72-9.22A43 43 0 0 0 81.88 142a13.58 13.58 0 0 0 1-4.83 9.29 9.29 0 0 0-5.07-8.63Zm-5.07-36.18a14.21 14.21 0 0 1-4.63 1.92 10.39 10.39 0 0 1-6.84-.76 9.66 9.66 0 0 0 9.64 3 13.66 13.66 0 0 0 4.65-1.93 15.36 15.36 0 0 0 7.27-12.47 10.56 10.56 0 0 0-1-4.43 23.18 23.18 0 0 0-8.3-9.7A23.37 23.37 0 0 1 79 75.45a10.63 10.63 0 0 1 1 4.44 15.42 15.42 0 0 1-7.26 12.47Z"/><path class="cls-5" d="M116.67 82.59a1.57 1.57 0 0 0-1.94-1.09 2.62 2.62 0 0 0-1.92 1.92l-4.57 19a1.9 1.9 0 0 0 .34 1.63 1.72 1.72 0 0 0 1.6.43l9.12-1.95a2.54 2.54 0 0 0 1.6-1.1 2.32 2.32 0 0 0 .34-1.78ZM112.73 100l2-8.34 2 7.49Z"/><path class="cls-5" d="M126.27 46c-1.46-4.88-6.17-7.42-11.54-6.3a15.86 15.86 0 0 0-11.52 11.21l-22.46 84.53a13.87 13.87 0 0 0-.45 3.35c0 5.25 3.46 9.29 8.75 9.69a12.39 12.39 0 0 0 3.25-.27A15.87 15.87 0 0 0 103.82 137l2.84-11.84 16.15-3.43 2.82 10.57c1.52 5 6.31 7.44 11.55 6.33a14.53 14.53 0 0 0 3.25-1.11c5.29-2.64 8.75-8.17 8.75-13.41a11.24 11.24 0 0 0-.46-3.16Zm13.09 88a9.34 9.34 0 0 1-2.18.77c-3.49.73-6.68-.91-7.66-4.22l-3.19-11.95a1.6 1.6 0 0 0-2-1.09l-19.29 4.1a2.61 2.61 0 0 0-1.91 1.92L100 136.81a10.51 10.51 0 0 1-7.66 7.42 7.59 7.59 0 0 1-2.18.16 6.18 6.18 0 0 1-5.83-6.45 7.36 7.36 0 0 1 .32-2.22l22.45-84.61a10.63 10.63 0 0 1 7.67-7.47c3.59-.75 6.73 1 7.68 4.21l22.48 75.05a7.86 7.86 0 0 1 .27 2.1 10.42 10.42 0 0 1-5.84 8.93Z"/><path class="cls-6" d="m123.53 124.45.72 2.68-11.92 2.54-2.87 11.84A15.83 15.83 0 0 1 98 152.67a12.15 12.15 0 0 1-3.28.26 9.17 9.17 0 0 1-6.49-3.21 10.35 10.35 0 0 0 3.67 1 12.63 12.63 0 0 0 3.25-.24 15.86 15.86 0 0 0 11.52-11.19l2.84-11.84Zm8.41-74.06a9 9 0 0 0-4.6-5.52 9.14 9.14 0 0 1 1.78 3.3l22.43 75.07a10.42 10.42 0 0 1 .45 3.14c0 5.24-3.46 10.78-8.73 13.39a13.94 13.94 0 0 1-3.24 1.14 10.51 10.51 0 0 1-6.92-.76c2.21 2.69 5.85 3.8 9.74 3a13.44 13.44 0 0 0 3.24-1.13c5.27-2.62 8.75-8.17 8.75-13.4a11.09 11.09 0 0 0-.45-3.14Zm-15.43 47.86-.22.94.46-.09Z"/><path class="cls-7" d="M125.63 132.34c0 .06.06.09.08.13l-7.71 1.65-2.85 11.88a15.88 15.88 0 0 1-11.55 11.19 12.13 12.13 0 0 1-3.24.24 9.07 9.07 0 0 1-6.49-3.21 9.51 9.51 0 0 0 3.64 1 11.31 11.31 0 0 0 3.28-.24 15.83 15.83 0 0 0 11.51-11.19l2.85-11.82 9.85-2.17Zm12-77.48a9.1 9.1 0 0 0-4.6-5.55 9.15 9.15 0 0 1 1.76 3.33l22.45 75a11.55 11.55 0 0 1 .45 3.16c0 5.23-3.45 10.76-8.75 13.39a14 14 0 0 1-3.22 1.12 10.69 10.69 0 0 1-6.94-.73 9.82 9.82 0 0 0 9.76 3 14.34 14.34 0 0 0 3.25-1.14c5.29-2.63 8.72-8.15 8.72-13.38a10.48 10.48 0 0 0-.45-3.17Z"/></svg>