<svg xmlns="http://www.w3.org/2000/svg" id="b" viewBox="0 0 330.71 163.95"><defs><linearGradient id="f" x1="235.49" x2="235.49" y1="150.79" y2="63.49" gradientUnits="userSpaceOnUse"><stop offset="0" stop-color="#262669"/><stop offset=".33" stop-color="#0f62a7"/><stop offset=".68" stop-color="#5c9ad3"/><stop offset="1" stop-color="#0f62a7"/></linearGradient><linearGradient id="h" x1="103.46" x2="103.46" y1="141.19" y2="68.66" gradientUnits="userSpaceOnUse"><stop offset=".18" stop-color="#a32825"/><stop offset=".54" stop-color="#d43a3f"/><stop offset=".66" stop-color="#cc373b"/><stop offset=".85" stop-color="#b82f30"/><stop offset="1" stop-color="#a32825"/></linearGradient><radialGradient id="d" cx="244.72" cy="81.97" r="84" fx="244.72" fy="81.97" gradientUnits="userSpaceOnUse"><stop offset="0" stop-color="#f5c836"/><stop offset=".96" stop-color="#f8991d"/></radialGradient><style>.k{fill:#262669}</style></defs><path id="c" d="M330.5 62.32a4.2 4.2 0 0 0-3.4-2.87l-54.31-7.9-24.28-49.2a4.07 4.07 0 0 0-2.06-2 4.26 4.26 0 0 0-5.51 2l-24.29 49.2-.35.06-42.89 6.82c-.46.1-.38.78.09.78l43.78.21c.56 0 1.12-.03 1.67-.11l.78-.12a4.21 4.21 0 0 0 3.22-2.3l21.77-44.13 21.77 44.12a4.2 4.2 0 0 0 3.18 2.3l48.7 7.08-35.25 34.36a4.2 4.2 0 0 0-1.2 3.72l8.31 48.5-.02-.02.17 1-27.42-7.36c-.45-.12-.7.51-.28.73l25.12 13.4 5.36 2.82a4.2 4.2 0 0 0 6.25-4.38l-9.27-54.08 39.3-38.3a4.2 4.2 0 0 0 1.06-4.33Zm-40.7 40.64v.05-.05Z" style="fill:url(#d)"/><path id="e" d="M255.87 142.84a38.5 38.5 0 0 1-10.8 5.85 36.25 36.25 0 0 1-12.16 2.1 35.72 35.72 0 0 1-25-9.77 88.77 88.77 0 0 1-5.45-5.56 2.64 2.64 0 0 1-.67-1.99 3.2 3.2 0 0 1 .98-2.1l10.67-10.18c.6-.55 1.23-.8 1.9-.77.65.04 1.26.34 1.83.88.63.7 1.43 1.48 2.39 2.34.96.86 2.14 1.68 3.54 2.46s2.97 1.42 4.72 1.93c1.74.51 3.7.76 5.88.76 3.75 0 6.74-.97 8.97-2.92 2.24-1.95 3.5-4.41 3.82-7.38.12-1.17.05-2.34-.22-3.5a9.25 9.25 0 0 0-1.47-3.28 9.04 9.04 0 0 0-3.06-2.64 11.97 11.97 0 0 0-4.89-1.34c-2.94-.24-5.35.06-7.23.87a24.32 24.32 0 0 0-5.1 2.99c-.69.54-1.49.9-2.4 1.05-.91.16-1.7.08-2.37-.23l-10.1-4.1a2.64 2.64 0 0 1-1.67-1.46 3.05 3.05 0 0 1-.17-2.28L219 66.18c.23-.78.69-1.42 1.37-1.93.68-.5 1.4-.76 2.19-.76h44.11a2.49 2.49 0 0 1 2.51 2.82l-1.69 16.13a3.07 3.07 0 0 1-1.03 2 3 3 0 0 1-2.07.82h-25.05c-.78 0-1.48.23-2.12.68-.63.46-1.06.98-1.27 1.6-.22.6-.14 1.1.25 1.48.39.38.98.5 1.78.33.55-.07 1.06-.11 1.53-.11h1.29c9.75 0 17.03 2.73 21.84 8.19 4.8 5.46 6.7 13.14 5.65 23.05a32.15 32.15 0 0 1-3.86 12.23 33.93 33.93 0 0 1-8.55 10.12Z" style="fill:url(#f)"/><path id="g" d="M7.45 69.49h19.8l-.92 8.75h-9.38l-2.02 19.18h8.13l-.85 8.13h-8.13l-3.66 34.81H0L7.45 69.5Zm27.93 0h11.25l2.14 70.87H38.25l-.02-11.67h-6.88l-2.48 11.67H18.34l17.04-70.87Zm2.86 51.07.11-6.98c0-6.99 1-25.33 1-25.33h-.63s-2.87 18.34-4.33 25.32l-1.36 6.99h5.21Zm21-51.07h8.55l8.02 41.69.32-.1s-.04-23.35.62-29.71L78 69.49h10.42l-7.44 70.87h-8.55l-8.02-41.69-.32.1s.06 23.14-.61 29.6l-1.26 11.99H51.79l7.45-70.87Zm38.9 8.75h-7.3l.92-8.75h25.01l-.92 8.75h-7.3l-6.52 62.12H91.6l6.53-62.12Zm25.61-8.75h11.26l2.14 70.87h-10.53l-.02-11.67h-6.88l-2.48 11.67h-10.52l17.04-70.87Zm2.87 51.07.1-6.98c.01-6.99 1-25.33 1-25.33h-.62s-2.87 18.34-4.33 25.32l-1.36 6.99h5.2Zm15.18-5.63h10.42c-.93 8.86-1.16 11.05-1.02 14.7.11 1.87.64 2.8 2.3 2.8 1.47 0 2.39-.83 2.9-2.7.33-1.15.98-4.38 1.3-7.5.59-5.53.34-6.16-1.4-8.45l-7.93-9.8c-3.04-3.75-4.56-8.12-3.59-17.4.35-3.34 1.04-7.92 2.73-11.05 2.7-4.9 6.87-6.88 12.7-6.88 5.63 0 10.08 2.3 11.37 6.88 1.07 3.65.13 12.61-.71 20.64h-10.42c.68-6.46 1.55-13.76 1.4-16.36-.11-1.88-1.1-2.4-2.56-2.4s-2.58.73-3.06 2.4a50.6 50.6 0 0 0-1.03 6.77c-.66 6.25-.18 7.71 1.74 10.21l8.03 9.9c2.86 3.55 4.06 6.99 3.25 14.7-.3 2.92-1.05 8.96-3.13 12.92-2.48 4.7-6.14 6.88-12.5 6.88-5.73 0-9.87-2.29-11.37-6.88-1.17-3.75-.68-7.4.58-19.38Zm38.87 1.04L174.6 69.5h10.32l1.89 17.72c.44 3.75.07 16.15.07 16.15h.63s2.24-12.4 3.47-16.15l5.61-17.72h10.32l-15.83 46.48-2.56 24.39H178.1l2.57-24.39Z" style="fill:url(#h)"/><g id="i"><path d="m91.56 153.2 1.08-.02.34 3.44H93l1.54-3.47 1.1-.02.25 3.44h.03l1.6-3.47 1.1-.02-2.4 4.81-1.1.02-.27-3.47h-.02l-1.53 3.5-1.1.02-.64-4.76ZM98.8 153.08l1.05-.02-.9 4.8h-1.06l.9-4.78Zm.35-1.82 1.04-.02-.19 1-1.04.02.19-1ZM101.04 151.61l1.02-.01-.27 1.43.95-.01-.15.79-.95.01-.45 2.34c-.05.2-.09.41-.09.52 0 .2.07.35.39.35.16 0 .36-.01.56-.06l-.16.78c-.27.07-.6.11-.87.12-.76 0-.96-.43-.96-.88 0-.18.04-.45.05-.53l.5-2.62-.82.01.15-.79h.83l.27-1.45ZM103.34 151.19l1.05-.02-.48 2.5h.02c.36-.48.96-.82 1.56-.82.96-.02 1.4.47 1.42 1.24 0 .17 0 .42-.04.59l-.6 3.06-1.04.01.56-2.95c.03-.16.07-.32.07-.45 0-.15.02-.68-.74-.67-.42 0-.74.22-1 .48a2.2 2.2 0 0 0-.5 1.03l-.49 2.6-1.05.01 1.26-6.61ZM113.05 157.26c-.22 1.12.9 2.02 1.97 1.95.64-.03 1.1-.3 1.42-.84h3.77l-.29.68c-.47 1.15-2.07 2.54-4.97 2.56-3.06.02-5.72-1.66-5.7-5.14 0-2.9 1.98-5.28 5.55-5.32 2.97-.01 5.55 2.02 5.7 5.11v1h-7.45Zm1.83-3.7c-.93 0-1.71.43-1.75 1.67h3.5c-.02-.94-.75-1.65-1.75-1.67ZM120.79 161.46v-2.72l4.53-4.47h-4.14v-2.98h9.13v2.82l-4.4 4.38h4.59v2.97h-9.71Z" class="k"/><path d="M132.95 154.24c.11-.28.3-.76.3-1.07 0-.18-.08-.46-.32-.46-.47 0-1.3 1.23-1.57 1.57l-.53.72-.63-.32c1.45-2.15 2.5-3.48 3.67-3.48.9 0 1.23.8 1.23 1.51 0 .82-.67 2.4-1 3.2l-1.04 2.33.05.05 2.55-4.07c.71-.99 2.12-3.02 3.6-3.02.98 0 1.45.7 1.45 1.53 0 .86-.65 2.35-1 3.18l-1.08 2.33.04.05.18-.35c1-1.63 3.85-6.74 6.1-6.74.99 0 1.37.65 1.37 1.49 0 1.03-.56 2.23-.94 3.22l-1.25 3.2c-.11.26-.25.6-.25.88 0 .14.14.24.3.24.4 0 1.09-.7 2.14-2.27l.63.32c-.79 1.03-2.02 3.2-3.56 3.2-.85 0-1.39-.58-1.39-1.3 0-.59.3-1.3.52-1.84l1.6-4.1c.12-.24.34-.75.34-1 0-.29-.18-.53-.49-.53-.36 0-1.34.44-4.07 4.69l-2.46 3.86h-1.63l2.73-7.02c.11-.28.31-.79.31-1.09 0-.24-.15-.44-.44-.44-.63 0-.9 0-3.65 4.25l-2.77 4.3h-1.7l2.66-7.02Z" class="k"/><path d="M155.75 151.42h2l-1.7 4.25c-.25.64-1.37 3.46-1.37 3.98 0 .15.09.33.29.33.38 0 1.23-.7 2.21-2.28l.58.32c-1.43 2.2-2.46 3.47-3.66 3.47-.78 0-1.27-.53-1.27-1.21 0-.52.13-.92.3-1.37l-.04-.04c-.65 1.35-1.81 2.62-3.62 2.62-1.76 0-2.57-1.35-2.57-2.78 0-2.9 3-7.5 6.6-7.5 1 0 1.58.32 1.96 1.16l.3-.95Zm-.92 1.8c0-.6-.33-1.11-1.07-1.11-1.6 0-2.73 1.5-3.37 2.66-.65 1.12-1.44 3.2-1.44 4.46 0 .6.36 1.23 1.1 1.23 2.2 0 4.78-5.53 4.78-7.24Z" class="k"/><path d="m162.9 148-1.03 3.42h2.15l-.36 1.1h-2.12l-1.9 6.55c-.07.22-.2.65-.2.86 0 .12.09.3.27.3.67 0 1.72-1.62 2.05-2.13l.67.44c-.69 1.05-1.96 2.94-3.48 2.94-.9 0-1.32-.54-1.32-1.32 0-.69.3-1.62.5-2.3l1.53-5.33h-1.9l.34-1.1h1.9l1.2-3.43h1.7Z" class="k"/><path d="M170.08 158.9c-.94 1.12-2.7 2.58-4.32 2.58a3.09 3.09 0 0 1-3.08-3.16c0-3.01 3.35-7.12 6.24-7.12 1.2 0 2.16.83 2.16 1.95 0 .6-.42 1.25-1.16 1.25-.6 0-.94-.56-.94-1.05 0-.22.07-.44.07-.66a.57.57 0 0 0-.58-.58c-1.14 0-3.73 3.8-3.73 6.92 0 .72.22 1.55 1.2 1.55 1.34 0 2.73-1.25 3.55-2.11l.59.44ZM173.56 149.05c.07-.24.2-.67.2-.9 0-.45-.24-.6-1.47-.51l.18-.66 3.69-.59-3.29 11.1.05.03c.89-1.49 3.7-6.32 5.65-6.32.9 0 1.45.77 1.45 1.53 0 .58-.33 1.57-.56 2.13l-1.7 4.5c-.06.15-.17.41-.17.57s.1.3.29.3c.67 0 1.76-1.76 2.14-2.29l.65.35c-.78 1.06-2.03 3.2-3.66 3.2-.87 0-1.25-.7-1.25-1.4 0-.5.24-1.12.42-1.58l1.58-4.13c.14-.34.34-.85.34-1.19 0-.22-.11-.48-.38-.48-.74 0-2.46 2.4-2.68 2.78-1.48 2.6-2.55 4.1-3.26 5.77h-1.84l3.63-12.21Z" class="k"/></g></svg>