<svg viewBox="0.01 0 694.973 315.133" xmlns="http://www.w3.org/2000/svg"><defs><style>.cls-1{fill:#00a473}.cls-2{fill:#ec0048}.cls-4{fill:#fff}</style></defs><path class="cls-1" d="M194.24 79.71c13.58-.13 25 1.92 35.84 6.81a65.004 65.004 0 0 1 27.17 22.36c9.14 13.13 12.94 27.72 12.63 43.57-.27 14-4.07 27.16-10.2 39.63a108.699 108.699 0 0 1-59.8 53.29 99.616 99.616 0 0 1-37.74 5.95c-13.92-.55-27.09-3.89-38.93-11.48a63.906 63.906 0 0 1-20.06-20.15 68.121 68.121 0 0 1-9.5-24.05 104.524 104.524 0 0 1-1.22-16.31c-.18-10.17 2.34-20 5.59-29.45a93.69 93.69 0 0 1 14.53-27.16 113.899 113.899 0 0 1 36.22-31.07 100.433 100.433 0 0 1 26.44-9.75 89.866 89.866 0 0 1 19.03-2.19Zm31 72.26c-.54-4.08-.8-8.23-1.69-12.23a26.762 26.762 0 0 0-9.14-15.46c-8.29-6.74-17.82-8.78-28.3-7.08-10.66 1.73-19.37 7.07-27 14.37a70.26 70.26 0 0 0-18.44 29c-3.34 10.08-4.61 20.29-1.83 30.75a30.315 30.315 0 0 0 5.89 11.9c7.95 9.43 18.55 12.43 30.36 11.13 8.89-1 16.62-5.22 23.54-10.74a72.006 72.006 0 0 0 16.41-18.79A66.297 66.297 0 0 0 225.26 152ZM613.54 190.18c-2.16 3.81-4.22 7.67-6.49 11.41a102.985 102.985 0 0 1-16.85 20.47 95.298 95.298 0 0 1-25.82 18.12c-5.29 2.44-10.62 5-16.19 6.62a137.882 137.882 0 0 1-19.87 4 80.556 80.556 0 0 1-30.53-1.8c-17-4.26-31-13.13-40.81-27.77a68.484 68.484 0 0 1-11-28.78c-1.64-11.53-.5-22.77 2.4-34a102.41 102.41 0 0 1 14.49-32.14 112.27 112.27 0 0 1 14.61-17 105.346 105.346 0 0 1 29-20.11 96.25 96.25 0 0 1 29.36-8.61 98.945 98.945 0 0 1 23.51-.44c16.09 1.85 30.5 7.58 42.42 18.93a68.702 68.702 0 0 1 17.37 27.44c1.18 3.32.95 5.62-1.73 8.4-7.14 7.42-13.81 15.31-20.64 23-4.55 5.13-9.14 10.21-13.58 15.42-2.77 3.26-3 7-1.08 10.77a9.33 9.33 0 0 0 8.67 5.35c6.73.08 13.47 0 20.2 0h2.23Zm-70.15-73.71c-3-.2-9.4 1.45-13.42 3.11-10.63 4.41-19 11.69-25.84 20.79a69.258 69.258 0 0 0-13.06 29.73 46.586 46.586 0 0 0 1.28 23.27c2.07 6.28 5.58 11.7 11.07 15.33 11.17 7.4 23.22 7.74 35.29 2.63 11.11-4.7 19.68-12.76 26.56-22.55 9.47-13.49 14.27-28.28 11.93-44.94-1.11-7.86-4.12-14.74-10.33-19.92-6.21-5.18-13.68-7.17-23.48-7.45Z"/><path class="cls-2" d="M420.72 274c-.41 2.28-.74 4.31-1.15 6.32-1.65 8.2-3.37 16.38-4.94 24.6-.36 1.86-1.17 2.36-3 2.36-65.533-.047-131.063-.047-196.59 0-68.167 0-136.337.043-204.51.13-4.65 0-7.95-3-9.77-8.46-1.52-4.51-.37-8.82.31-13.22a16.816 16.816 0 0 1 3.12-8.16 9.44 9.44 0 0 1 7.81-3.75c27.513.04 55.02.067 82.52.08l321.79.1Zm-52.11 17.35.46.09c.085 1.226.252 2.446.5 3.65a3.06 3.06 0 0 0 1.23 2 1.94 1.94 0 0 0 2.59-1.21c1.34-2.84 2.77-5.64 4.11-8.48.22-.46.42-1.24.19-1.52a1.69 1.69 0 0 0-1.53-.33 3.277 3.277 0 0 0-1.67 1.24c-.79 1.36-1.39 2.84-2.07 4.27a14.355 14.355 0 0 1-.77-3.95c-.1-1.29-.87-1.91-2-1.55a4.004 4.004 0 0 0-2.05 1.59 33.06 33.06 0 0 0-1.92 3.92l-.54-.11v-3.69c0-1.41-.67-1.88-2-1.8-1.33.08-1.4 1-1.31 2 .23 2.5.45 5 .73 7.5.1.86-.14 2 1.26 2.17a2.37 2.37 0 0 0 2.79-1.64c.6-1.44 1.33-2.78 2-4.15Zm29.72 1.15c1.46-.24 1.94.43 1.6 1.82a2.333 2.333 0 0 0-.14 1.11c.21.6.48 1.44.95 1.62.81.32 1.78.22 2-1 .57-3 1.17-6.05 1.71-9.07.2-1.17-.43-1.57-1.54-1.53-2 .07-1.62 1.7-1.82 2.79-.33 1.83-1.65 1.44-2.76 1.39-1.51-.05-.88-1.19-.82-2 .06-.81.45-1.95-1-2.16-1.45-.21-2 .37-2.19 1.69-.33 2.17-.85 4.32-1.09 6.5-.13 1.16-1.59 2.87.63 3.43s2.12-1.37 2.45-2.74c.036-.118.063-.238.08-.36a1.48 1.48 0 0 1 1.94-1.49Zm-9.76-7a14.667 14.667 0 0 0-3.19.06c-.62.14-1.1.91-1.64 1.4.44.46.83 1.24 1.34 1.33 1.12.19 1.34.73 1.17 1.69a471.53 471.53 0 0 0-.91 5.2c-.15.89-.35 1.83 1 2 1.14.13 2-.17 2.16-1.49.16-1.32.45-2.86.74-4.28.29-1.42.34-3.37 2.79-3.23.33 0 .88-1 1-1.66 0-.24-.78-.89-1.26-1a22.937 22.937 0 0 0-3.2-.05Zm-10.09 11.62c1.93.2 2.36-.63 2.55-1.73.44-2.67.9-5.33 1.34-8 .14-.8.44-1.72-.81-1.88-1.06-.13-2.08-.05-2.32 1.3-.52 3-1.07 5.93-1.47 8.92-.07.49.57 1.1.71 1.36Z"/><path class="cls-1" d="M331.4 120a32.085 32.085 0 0 1 3.35 2c3.11 2.31 3.64 5.55 3 9.12-1 5.82-2.07 11.63-3.09 17.45a36263.183 36263.183 0 0 0-7.81 44.37c-1.78 10.08-3.64 20.15-5.43 30.23-1.24 7-2.43 14-3.62 21a4.29 4.29 0 0 1-4.47 4h-34c-2.29 0-3.55-1.38-3.19-3.64 1-6.38 2.17-12.74 3.28-19.11 1.42-8.173 2.847-16.343 4.28-24.51a5693.98 5693.98 0 0 1 3.48-19.66c1.46-8.22 2.94-16.44 4.39-24.66 1.84-10.387 3.67-20.777 5.49-31.17.74-4.16-.68-5.87-4.94-6-4.26-.13-8.55-.11-12.81-.37-3.68-.22-6.12-2.46-7.7-5.62a69.978 69.978 0 0 0-12.28-17.52c-2.66-2.74-5.69-5.13-8.59-7.63-1.07-.93-2.64-1.59-2.09-3.4.55-1.81 2.1-2 3.68-2 4.34 0 8.68.18 13 .17 31.887-.06 63.783-.13 95.69-.21 2.83 0 5.66.15 8.48.25.457.067.909.171 1.35.31a2.85 2.85 0 0 1-.19 1c-2.37 3.45-2.82 7.46-3.48 11.43-.9 5.5-1.87 11-3 16.46a9.73 9.73 0 0 1-9.23 7.29c-7.11 0-14.21-.12-21.32-.16-.78 0-1.56.14-2.33.21ZM424.83 119.66a30.097 30.097 0 0 1 4.46 3 8.44 8.44 0 0 1 2.25 7.83c-2.31 13.18-4.69 26.34-7 39.53-1.76 10.07-3.43 20.17-5.21 30.25-2 11.25-4.07 22.5-6.09 33.75-.61 3.39-1.16 6.8-1.75 10.21a4.35 4.35 0 0 1-4.55 3.91h-33.23c-3 0-4.26-1.62-3.76-4.47 2.11-12.06 4.19-24.13 6.33-36.18 2.14-12.05 4.42-24.35 6.58-36.54a5649.84 5649.84 0 0 0 7.82-44.73c.142-.806.219-1.622.23-2.44 0-2.51-1.34-4.07-3.86-4.15-4.41-.14-8.81-.15-13.22-.2-2.78 0-2.93-.44-1.79-3a27.096 27.096 0 0 0 1.9-6c1.33-6.77 2.42-13.59 3.77-20.35a9.11 9.11 0 0 1 9.43-7.11c1.57.08 3.14.13 4.71.13h97.07a7.306 7.306 0 0 1 1.69.11 1.43 1.43 0 0 1 .79 2.54c-1 1-2.19 1.68-3.27 2.53-7.17 5.63-14.43 11.15-21.45 17a70.13 70.13 0 0 0-8 8.24 16.133 16.133 0 0 1-12.87 6h-18.32c-.73-.12-1.49.01-2.66.14ZM66 248.09H23.89a17 17 0 0 1-11.07-3.61 16.27 16.27 0 0 1-6.2-15.89c1.6-10.3 3.42-20.57 5.22-30.84 2-11.14 4-22.26 6-33.39 1-5.81 1.95-11.64 3-17.45 1.66-9.34 3.4-18.67 5.06-28 1.37-7.73 2.68-15.47 4-23.2.59-3.4 1.22-6.8 1.78-10.21a2.7 2.7 0 0 1 2.4-2.5 13.063 13.063 0 0 1 2.25-.21h26.4c2.83 0 5.66.06 8.48.12 1.94 0 2.5.79 2.15 2.81-1.887 10.78-3.773 21.54-5.66 32.28-1.35 7.73-2.65 15.48-4 23.21-1.3 7.36-2.68 14.7-4 22-1 5.44-1.84 10.89-2.81 16.33-1.67 9.45-3.39 18.89-5.09 28.34-.41 2.31.5 3.56 2.84 3.61 4 .08 8 0 12.06.07 5.47.11 10.93.2 16.39.54 3.11.19 5.26 2.15 6.82 4.79 2.15 3.61 4.19 7.3 6.55 10.78 4.2 6.18 9.67 11.18 15.5 15.81.84.67 1.73 1.42 1 2.47a8.466 8.466 0 0 1-2.45 2c-.32.2-.86.05-1.3.05H66Z"/><path d="M623.92 85.65c3.71 0 7.42.07 11.13 0a3.94 3.94 0 0 1 4.05 2.73c2.44 5.66 4.887 11.327 7.34 17 1.39 3.21 3.88 3.73 6.08 1 3-3.72 5.68-7.67 8.52-11.51 1.84-2.47 3.73-4.9 5.56-7.38a4.15 4.15 0 0 1 3.56-1.76c7.36 0 14.72-.1 22.08 0a3.357 3.357 0 0 1 2.58 1.27 3.522 3.522 0 0 1-.42 3c-3.48 4.53-7.15 8.91-10.72 13.38-5.06 6.32-10.1 12.653-15.12 19-2.1 2.66-4.15 5.37-6.26 8a2.63 2.63 0 0 0-.32 3.26c6.15 11.48 12.23 23 18.35 34.46 1.66 3.1 3.4 6.16 5.08 9.25 1.68 3.09.77 4.6-2.78 4.66-6.92.1-13.85.06-20.76.21-2.76.06-4.34-1-5.51-3.55-3.54-7.77-7.29-15.45-11-23.13-1.6-3.29-4.12-3.62-6.49-.89a4880.576 4880.576 0 0 0-21.78 25.3 5.15 5.15 0 0 1-4.19 2.08c-6.48 0-13 .15-19.44.15-1.76 0-4 .38-4.8-1.71-.8-2.09 1.11-3.12 2.24-4.4 3.91-4.44 7.78-8.9 11.72-13.32a7326.09 7326.09 0 0 1 26.43-29.5 4.43 4.43 0 0 0 .79-5.64c-3.44-6.43-6.92-12.84-10.33-19.29-2.73-5.16-5.38-10.37-8.08-15.54-.56-1.06-1.14-2.11-1.77-3.12-1.08-1.749.138-4.011 2.192-4.072a2.88 2.88 0 0 1 .208.002c4 .18 7.92 0 11.89 0Z" style="fill:#ff6b00"/><path class="cls-2" d="M517.44 274c.14 3 .14 3 3.15 3.07 3.01.07 3.28.29 2.66 3.31-.25 1.2.23 1.61 1.25 2.09 1.29.72 2.538 1.511 3.74 2.37a18.675 18.675 0 0 0 3.29 1.71c.27.1 1.16-.73 1.29-1.25.7-2.8 1.29-5.64 1.81-8.48.21-1.14.69-1.66 1.86-1.62 1.17.04 2.39 0 3.59 0 1.38 0 2.79-.16 2.25 2-.06.24.73.9 1.2 1 .815.07 1.635.07 2.45 0 1.9 0 2.45.67 2.27 2.57-.22 2.31-.24 2.2 2.08 1.76 4.25-.81 8.42-1.1 11.72 2.59.63.519 1.344.928 2.11 1.21a8 8 0 0 1 4.41 9.24c-.93 3.82-2 7.61-3.18 11.36a3.36 3.36 0 0 1-1.94 1.81 21.627 21.627 0 0 1-13.9.33c-1.69-.58-3.1-2-4.6-3.12-.505-.491-.96-1.03-1.36-1.61-.35 1.26-.63 2.11-.8 3a2.41 2.41 0 0 1-2.57 2.25h-6.79c-2.26 0-2.19-1.62-2.37-3.25-.35.139-.685.313-1 .52-3.63 3.24-7.82 3.48-12.39 2.64-2-.36-4.11.1-6.17.06-5-.09-10-.32-15.05-.33-1.86 0-3.72.54-5.59.65-3.2.19-5.81-.9-7.37-3.88-.57-1.09-1.13-.87-1.9-.2-5.28 4.51-11.28 5.09-17.71 3.14a8.001 8.001 0 0 1-4.94-4.38c-.21-.44-.48-.85-.82-1.44a9.285 9.285 0 0 0-1.22 1 14.848 14.848 0 0 1-11.29 5.28c-4.83.21-9.68.09-14.53.09-1.62 0-2.27-.86-1.93-2.46.13-.62.21-1.24.36-1.85.33-1.34.48-2.51-1.43-2.74-.27 0-.69-1-.6-1.42 1.57-7.89 3.23-15.76 4.81-23.65.34-1.65 1.15-2.26 2.86-2.2 3.52.13 7 0 10.57.06a10.76 10.76 0 0 1 7.84 3.12 27.761 27.761 0 0 0 3.16 2 7.998 7.998 0 0 1 2.47 2.28c1 1.83 2 1.59 3.66.9a16.72 16.72 0 0 1 11.44-.89 18.06 18.06 0 0 1 4 2.24c.37.22.6.68 1 .88 2.84 1.49 3.54 1.92 4-1.48.17-1.4.86-1.92 2.28-1.8 1.382.07 2.768.07 4.15 0 .93 0 1.45.33 1.27 1.35-.24 1.37.48 1.81 1.7 1.81.753-.059 1.51-.042 2.26.05 1.7.33 2.59-.22 2.81-2a1.698 1.698 0 0 1 1.15-1.15c2.12-.12 4.24-.06 6.43-.06-.013.382.013.764.08 1.14.22.66.34 1.72.77 1.88 1.21.44 1.76-.39 2-1.56.55-2.71 1.24-5.39 1.73-8.12a2 2 0 0 1 2.43-1.9c1.65.13 3.29.08 5.09.08Zm-79.06 34.25v-.12c2.32 0 4.66.13 7 0 4.8-.34 9-2 11.54-6.38a22.996 22.996 0 0 0 3.08-12.31c-.16-5.59-3.38-9.29-9-9.68-4.38-.31-8.79-.24-13.19-.15a2.58 2.58 0 0 0-1.91 1.52c-1.88 8.46-3.62 16.95-5.44 25.43-.28 1.34.28 1.69 1.47 1.67 2.17-.03 4.31 0 6.45 0Zm82.28-21.1a5.215 5.215 0 0 1 0-.81c.43-2 .82-3.94 1.34-5.88.38-1.44.07-2.18-1.55-2.13h-4c-2.85 0-3 .09-3.55 3-.733 3.5-1.457 7.003-2.17 10.51-1 4.92-2 9.83-3 14.77-.1.51.44 1.64.72 1.65a21.33 21.33 0 0 0 6.35-.2 4.476 4.476 0 0 1 2.74.06c3.66 1.06 7.25 1 10.45-1.31 3.72-2.65 5-6.64 5.51-10.93.75-6.25-2.54-9.69-8.87-9.26-1.22-.01-2.5.28-3.97.51Zm-29.37-.15a9.199 9.199 0 0 0-2.63.06c-.72.21-1.76.8-1.89 1.4-1 4.59-2.09 9.2-2.7 13.87-.48 3.59 2.08 6.24 5.71 6.23 2.06-.126 4.109-.4 6.13-.82.405-.13.825-.204 1.25-.22 2 .24 3.9.55 5.85.83 1.95.28 2.81-.66 3.17-2.54.92-4.88 1.95-9.73 3-14.59.88-4.12 1.67-4.33-3.51-4.22-5 .11-4.21-.74-5.26 4.42-.53 2.64-1.08 5.29-1.68 7.93a3.59 3.59 0 0 1-4.17 2.59c-2.07-.54-1.36-2.15-1.15-3.41.41-2.35 1-4.68 1.51-7 1.02-4.53 1.08-4.53-3.63-4.53Zm-21.72 21.9c8.89-.27 13.88-4.52 14.82-12.83.56-5-2.18-8.55-7.18-9.33a28.1 28.1 0 0 0-2.25-.23c-9.06-.57-15.19 4.62-15.7 13.27-.22 3.75 1.4 6.58 4.85 7.88 1.789.541 3.613.956 5.46 1.24Zm82.95-7.74.23-.65c.53-.087 1.064-.144 1.6-.17h8.29c4.2 0 4.2 0 4.84-4.26.77-5.14-1.9-8.87-7.09-9.39-9.4-.92-13.95 3.51-15.59 11.62-1.08 5.3 1.86 9.5 7 10.06a36.64 36.64 0 0 0 8.81-.27c3.52-.5 3.55-.77 4.06-4.3.25-1.78 0-1.84-1.78-1.66a62.543 62.543 0 0 1-7.85.32c-.83-.05-1.67-.85-2.52-1.3ZM537 308.24h1.32c2.85 0 2.86 0 3.43-2.77.65-3.13 1.27-6.27 1.92-9.41 1-4.79 2-9.58 3.07-14.36.36-1.61-.22-2.22-1.81-2.18-1.59.04-2.89.07-4.33 0-1.62-.11-2.34.55-2.66 2.16-1.47 7.39-3.08 14.75-4.58 22.13-.87 4.29-1.85 4.53 3.64 4.43Z"/><path class="cls-1" d="M177.87 56.7c-11.15 1-22.56-6.64-25.82-17.42-2.92-9.69-1.82-19 4-27.36A26.998 26.998 0 0 1 173 .85c7.76-1.72 15.18-.95 22 3.42 7.42 4.77 11.19 11.8 11.78 20.44.69 10.13-2.5 18.89-10.43 25.51a27.715 27.715 0 0 1-16.18 6.47c-.79.06-1.54.01-2.3.01ZM198.73 28c0-5.54-1.29-10.31-3.23-13.09-6.35-9.07-18.5-10.49-27.8-4.11-6.52 4.49-8.85 11.16-9 18.76-.09 4.69.86 9.17 3.7 13 6 8.05 15.53 9.14 23.57 5.69C195 44.37 198.52 36.62 198.73 28ZM337.82 56.13c-2.89 0-5.78-.06-8.67 0-1.55 0-1.83-.68-1.59-2 1-5.56 2-11.127 3-16.7 2-11.38 4-22.767 6-34.16.44-2.66.44-2.7 3.24-2.66 4.84.08 9.71-.09 14.51.36 11.58 1.1 19.89 8.08 21.39 20.13.91 7.32 0 14.34-3.62 20.81a26.141 26.141 0 0 1-12.78 11.27c-6.89 3-14.16 3.11-21.48 2.95Zm4.18-6.66v.14c2.13-.15 4.28-.16 6.39-.45 7.61-1.06 13.79-4.45 17.09-11.68a27.864 27.864 0 0 0 1.74-17.7C366 14 362.5 10 356.8 8.55c-3.8-.94-7.8-.9-11.8-1.24-1.25-.11-1.52.83-1.7 1.83a3436.275 3436.275 0 0 1-3 17.05c-1.22 6.927-2.45 13.863-3.69 20.81-.39 2.2-.1 2.51 2.19 2.52ZM264.79 56c-2.73 0-5.14.07-7.54-.06-.45 0-1-.74-1.26-1.26-1.84-3.43-3.71-6.85-5.38-10.36-.92-1.94-2-3-4.33-2.76-2.261.13-4.529.13-6.79 0-1.31 0-1.88.48-2.1 1.81-.63 3.71-1.47 7.39-2.09 11.11a1.65 1.65 0 0 1-2 1.63c-1.32-.05-2.65-.06-4 0-1.49.08-2-.38-1.68-2 1.91-10.51 3.71-21 5.56-31.55 1.18-6.75 2.41-13.48 3.57-20.23.19-1.13.62-1.73 1.79-1.71 4.72.09 9.47-.16 14.15.32 6.93.71 12.61 3.71 15.67 10.46a19.366 19.366 0 0 1 1.47 9.58c-.39 5.28-1.89 10.19-5.91 13.88a25.995 25.995 0 0 1-5.92 4.01c-1.51.75-1.63 1.38-.9 2.71 2.31 4.18 4.56 8.4 6.82 12.61.27.47.48.98.87 1.81Zm-20.2-21.14c1.379.07 2.761.07 4.14 0 5.27-.59 9.37-2.86 11.6-7.86a16.926 16.926 0 0 0 1.34-9.57c-.81-5.39-3.64-8.46-9-9.49a63.932 63.932 0 0 0-6.94-.52c-1.58-.12-2.29.68-2.52 2.15-.23 1.47-.54 3.1-.81 4.64-1.1 6.307-2.197 12.62-3.29 18.94-.24 1.39.32 2 1.73 1.93ZM439.18 56.17c-2.43 0-4.44.12-6.42-.07a2.58 2.58 0 0 1-1.76-1.44 36.627 36.627 0 0 1-1.27-4.92 1.85 1.85 0 0 0-2.06-1.7c-7.49.09-15 .1-22.46.24a3.099 3.099 0 0 0-2 1.29c-1.1 1.59-1.95 3.36-3 5-.38.59-1 1.38-1.58 1.42-2.09.17-4.21.07-6.88.07 11.1-18.88 22-37.33 32.82-55.79h.71c4.56 18.47 9.16 36.92 13.9 55.9Zm-16.95-39.8c-.59.89-.92 1.32-1.19 1.79-4 7.1-8 14.207-12 21.32-1 1.77-.85 2.22 1.16 2.24h13c4.83 0 4.82.73 3.61-4.71-1.41-6.3-2.6-12.65-3.9-19a12.757 12.757 0 0 0-.68-1.64ZM63.38.69h14.91c1.19 0 1.62.38 1.35 1.56-.3 1.35-.55 2.71-.79 4.08s-1.25 1.19-2.18 1.2c-7.11 0-14.22.12-21.33 0-2 0-2.64.65-2.93 2.47a548.48 548.48 0 0 1-3.13 18.41c-.34 1.83.33 2.46 2 2.47l17.16.12h1.89c1.33-.08 1.76.44 1.55 1.81-.76 5.17-.86 5.19-6 4.86-3.19-.2-6.41 0-9.61 0-2.14 0-4.27-.08-6.41-.12-1.65 0-2.44.71-2.69 2.42-.7 4.6-1.62 9.16-2.33 13.75-.29 1.88-1 2.85-3 2.58a27.798 27.798 0 0 0-3 0c-2.16 0-2.36-.29-2-2.49 3-17 6-34 8.93-51.08C46.07.47 47.58.6 49 .59c4.78-.06 9.56 0 14.34 0ZM117.7 49.25h10.57c1.42 0 2 .44 1.62 1.89-.13.48-.17 1-.27 1.48-.67 3.58-.67 3.61-4.43 3.57-5.78-.05-11.57-.18-17.35-.2-3.46 0-6.92.1-10.37.23-1.5.06-1.78-.46-1.52-1.9 2.6-14.66 5.12-29.33 7.69-44 .47-2.66 1.08-5.29 1.55-8A1.61 1.61 0 0 1 107.1.79h2.83c3.32 0 3.4 0 2.83 3.31-1.27 7.43-2.63 14.85-4 22.27A1888.295 1888.295 0 0 1 105 47.15c-.3 1.63.34 2.14 1.9 2.11h10.76Z"/><path class="cls-2" d="M642.18 306.65c-1.37.39-2.54.81-3.75 1.05a16.178 16.178 0 0 1-3.18.34c-4.07 0-6.57-2.64-5.91-6.67.66-4.03 1.68-8.24 2.51-12.37a1.67 1.67 0 0 1 2-1.54c1.86.07 3.74 0 5.89 0-.14.9-.22 1.55-.35 2.19-.61 3-1.26 6-1.84 9.05-.51 2.63-.18 3.44 1.42 3.81 1.94.44 4.55-1 5-2.78.68-3.06 1.25-6.15 1.89-9.22.64-3.07.65-3 3.72-3 4.52 0 4.55 0 3.65 4.4-.9 4.4-1.9 9-2.85 13.46-1.14 5.33-4.48 8.54-9.79 9.35a83.27 83.27 0 0 1-9.76.4c-1.32 0-1.84-.59-1.52-1.89.06-.24.1-.49.15-.74.57-2.76.57-2.63 3.44-2.55a42.449 42.449 0 0 0 6.75-.41c1.77-.26 2.35-1.06 2.53-2.88Z"/><path class="cls-1" d="M294.84 56c-4.82.38-4 .11-3.37-3.49 2.62-14.52 5.15-29.06 7.72-43.59.39-2.23.81-4.45 1.18-6.68a1.71 1.71 0 0 1 1.89-1.65h4.53c1.53 0 1.54.74 1.32 1.93-1.33 7.41-2.59 14.84-3.9 22.25-1.627 9.28-3.267 18.56-4.92 27.84-.1.55-.28 1.1-.33 1.66-.15 1.53-.94 2.06-2.43 1.77a8.758 8.758 0 0 0-1.69-.04Z"/><path class="cls-2" d="M567.77 307.68c.52-2.75.94-5.14 1.43-7.51 1.23-5.91 2.55-11.8 3.73-17.72.34-1.72 1.05-2.4 2.88-2.34 3.77.14 7.55 0 11.33 0 5.84 0 9.37 4.34 8 10-1.59 6.59-5.21 10.19-12.16 10-1.93-.06-4.42-.55-5.65.42-1.23.97-1.24 3.51-1.62 5.39-.26 1.29-.83 1.8-2.17 1.72-1.79-.04-3.6.04-5.77.04Zm13.79-13.4c.626.035 1.254.035 1.88 0 2.49-.26 4.15-2.68 3.95-5.71-.12-1.93-1-2.49-4-2.49-.626.035-1.254.035-1.88 0-1.27-.13-1.83.5-2 1.67-.28 1.54-.57 3.09-1 4.6-.43 1.51.25 2.09 1.72 2 .45-.09.89-.07 1.33-.07ZM630.16 287.75c-1.07 5.16-2.09 10.13-3.11 15.09-.005.06-.005.12 0 .18-1.3 5.62.11 4.52-6.18 4.64h-.37c-2-1.83-3.78-.12-5.65.18-.31.05-.61.14-.92.17-6.51.8-9.64-2.38-8.78-8.88.93-6.93 6.34-12.44 12.58-11.88 3.79.34 7.53 0 11.28.27.387.055.771.132 1.15.23Zm-15.06 15.09c3.34-.37 4.55-.95 4.94-3.41.266-1.032.48-2.077.64-3.13.05-1 .11-2.71-.41-3a5.15 5.15 0 0 0-3.7-.25c-2.58.94-4.35 5.29-3.28 7.84.36.9 1.38 1.51 1.81 1.95ZM593.79 307.69c.55-2.83 1-5.34 1.54-7.84 1.24-6 2.55-11.91 3.75-17.88.28-1.38.87-2 2.27-1.85 1.256.075 2.514.075 3.77 0 1.4-.07 1.94.37 1.61 1.87-1.68 7.853-3.32 15.72-4.92 23.6-.32 1.56-1.07 2.24-2.71 2.11-1.64-.13-3.35-.01-5.31-.01Z"/><path class="cls-4" d="M368.61 291.35c-.67 1.37-1.4 2.71-2 4.12a2.37 2.37 0 0 1-2.79 1.64c-1.4-.19-1.16-1.31-1.26-2.17-.28-2.5-.5-5-.73-7.5-.09-1-.08-1.92 1.31-2 1.39-.08 2 .39 2 1.8v3.69l.54.11a33.06 33.06 0 0 1 1.92-3.92 4.004 4.004 0 0 1 2.05-1.59c1.14-.36 1.91.26 2 1.55.07 1.346.329 2.676.77 3.95.68-1.43 1.28-2.91 2.07-4.27a3.277 3.277 0 0 1 1.67-1.24 1.69 1.69 0 0 1 1.53.33c.23.28 0 1.06-.19 1.52-1.34 2.84-2.77 5.64-4.11 8.48a1.94 1.94 0 0 1-2.59 1.21 3.06 3.06 0 0 1-1.23-2 27.537 27.537 0 0 1-.5-3.65ZM398.33 292.5a1.48 1.48 0 0 0-1.94 1.5 2.339 2.339 0 0 1-.08.36c-.33 1.37-.31 3.27-2.45 2.74-2.14-.53-.76-2.27-.63-3.43.24-2.18.76-4.33 1.09-6.5.2-1.32.88-1.88 2.19-1.69 1.31.19 1.09 1.23 1 2.16-.09.93-.69 1.93.82 2 1.11.05 2.43.44 2.76-1.39.2-1.09-.13-2.72 1.82-2.79 1.11 0 1.74.36 1.54 1.53-.54 3-1.14 6-1.71 9.07-.22 1.23-1.19 1.33-2 1-.47-.18-.74-1-.95-1.62a2.333 2.333 0 0 1 .14-1.11c.34-1.4-.14-2.07-1.6-1.83ZM388.57 285.47a22.926 22.926 0 0 1 3.21 0c.48.06 1.31.71 1.26 1-.14.62-.69 1.68-1 1.66-2.45-.14-2.47 1.67-2.79 3.23-.32 1.56-.54 2.84-.74 4.28-.2 1.44-1 1.62-2.16 1.49-1.34-.16-1.14-1.1-1-2 .3-1.74.603-3.473.91-5.2.17-1-.05-1.5-1.17-1.69-.51-.09-.9-.87-1.34-1.33.54-.49 1-1.26 1.64-1.4a14.667 14.667 0 0 1 3.19-.06ZM378.48 297.09c-.14-.26-.78-.87-.71-1.38.4-3 1-5.95 1.47-8.92.24-1.35 1.26-1.43 2.32-1.3 1.25.16.95 1.08.81 1.88-.44 2.66-.9 5.32-1.34 8-.19 1.09-.62 1.92-2.55 1.72ZM438.38 308.23h-6.42c-1.19 0-1.75-.33-1.47-1.67 1.82-8.48 3.56-17 5.44-25.43a2.58 2.58 0 0 1 1.91-1.52c4.4-.09 8.81-.16 13.19.15 5.62.39 8.84 4.09 9 9.68a23 23 0 0 1-3.14 12.26c-2.53 4.41-6.74 6-11.54 6.38-2.31.16-4.65 0-7 0Zm2.24-7.28c4.53 1.2 7.94-.47 9.43-4.51.372-1.069.659-2.166.86-3.28 1-5.21-.1-6.58-5.42-6.79-1.39-.06-2.07.37-2.34 1.76-.58 3.08-1.3 6.14-1.94 9.21-.21 1.21-.4 2.43-.59 3.66ZM520.66 287.13c1.47-.23 2.75-.52 4-.61 6.33-.43 9.62 3 8.87 9.26-.51 4.29-1.79 8.28-5.51 10.93-3.2 2.28-6.79 2.37-10.45 1.31a4.476 4.476 0 0 0-2.74-.06 21.33 21.33 0 0 1-6.35.2c-.28 0-.82-1.14-.72-1.65.92-4.94 2-9.85 3-14.77.72-3.507 1.443-7.01 2.17-10.51.59-2.86.7-3 3.55-3 1.32 0 2.64.06 4 0 1.62-.05 1.93.69 1.55 2.13-.52 1.94-.91 3.92-1.34 5.88a5.09 5.09 0 0 0-.03.89Zm4.15 8.55a6.72 6.72 0 0 0-.84-1.9c-1.33-1.44-4.73-.48-5.2 1.42-.33 1.34-.6 2.69-.89 4-.41 1.9.38 3.07 2.29 2.78a5 5 0 0 0 3.12-1.91c.83-1.21 1.04-2.87 1.52-4.39ZM491.29 287c4.66 0 4.65 0 3.62 4.53-.53 2.32-1.1 4.65-1.51 7-.21 1.26-.92 2.87 1.15 3.41a3.59 3.59 0 0 0 4.17-2.59c.6-2.64 1.15-5.29 1.68-7.93 1.05-5.16.24-4.31 5.26-4.42 5.18-.11 4.39.1 3.51 4.22-1 4.86-2.07 9.71-3 14.59-.36 1.88-1.21 2.82-3.17 2.54-1.96-.28-3.89-.59-5.85-.83-.425.016-.845.09-1.25.22-2.021.42-4.07.694-6.13.82-3.63 0-6.19-2.64-5.71-6.23.61-4.67 1.67-9.28 2.7-13.87.13-.6 1.17-1.19 1.89-1.4a9.197 9.197 0 0 1 2.64-.06Z"/><path class="cls-4" d="M469.57 308.9a39.712 39.712 0 0 1-5.46-1.24c-3.45-1.3-5.07-4.13-4.85-7.88.51-8.65 6.64-13.84 15.7-13.27.75.05 1.51.12 2.25.23 5 .78 7.74 4.34 7.18 9.33-.94 8.31-5.93 12.56-14.82 12.83Zm6.32-12.9c-.32-1.59-.45-3-2.09-3.51a3.55 3.55 0 0 0-4.23 1.6 18.315 18.315 0 0 0-1.47 4.6 2.64 2.64 0 0 0 1.76 3.32 3.29 3.29 0 0 0 4-1.28 35.445 35.445 0 0 0 2.03-4.73ZM552.52 301.16c.85.45 1.69 1.25 2.56 1.28a62.543 62.543 0 0 0 7.85-.32c1.82-.18 2-.12 1.78 1.66-.51 3.53-.54 3.8-4.06 4.3a36.64 36.64 0 0 1-8.81.27c-5.18-.56-8.12-4.76-7-10.06 1.64-8.11 6.19-12.54 15.59-11.62 5.19.52 7.86 4.25 7.09 9.39-.64 4.25-.64 4.25-4.84 4.26h-8.29c-.536.026-1.07.083-1.6.17Zm1.29-6c1.88 0 3.55.05 5.21 0a1.37 1.37 0 0 0 1-.84 1.629 1.629 0 0 0-.46-1.3c-1.56-1.41-4.95-.3-5.75 2.17ZM537 308.24c-5.5.1-4.52-.14-3.64-4.45 1.5-7.38 3.11-14.74 4.58-22.13.32-1.61 1-2.27 2.66-2.16 1.44.09 2.89.07 4.33 0s2.17.57 1.81 2.18c-1.06 4.78-2.06 9.57-3.07 14.36-.65 3.14-1.27 6.28-1.92 9.41-.57 2.77-.58 2.77-3.43 2.77Z"/><path class="cls-2" d="M440.62 301c.19-1.18.35-2.4.59-3.61.64-3.07 1.36-6.13 1.94-9.21.27-1.39 1-1.82 2.34-1.76 5.32.21 6.46 1.58 5.42 6.79a21.708 21.708 0 0 1-.86 3.28c-1.49 3.99-4.9 5.66-9.43 4.51Zm2.39-5.58.67.25c2.43-1.25 3.1-3.66 3.64-6.09a2.371 2.371 0 0 0-.59-1.6c-.77.1-2 .3-2.17.77-.69 2.12-1.06 4.39-1.56 6.62ZM524.81 295.68c-.48 1.52-.69 3.18-1.52 4.42a5 5 0 0 1-3.12 1.91c-1.91.29-2.7-.88-2.29-2.78.29-1.34.56-2.69.89-4 .47-1.9 3.87-2.86 5.2-1.42.374.577.658 1.207.84 1.87ZM475.89 296a35.395 35.395 0 0 1-2 4.73 3.29 3.29 0 0 1-4 1.28 2.64 2.64 0 0 1-1.76-3.32 18.315 18.315 0 0 1 1.47-4.6 3.55 3.55 0 0 1 4.23-1.6c1.61.51 1.74 1.89 2.06 3.51ZM553.81 295.19c.8-2.47 4.16-3.58 5.72-2.18.338.344.507.82.46 1.3a1.37 1.37 0 0 1-1 .84c-1.63.09-3.3.04-5.18.04Z"/></svg>