<svg xmlns="http://www.w3.org/2000/svg" id="Layer_2" data-name="Layer 2" viewBox="0 0 155.82 77.69"><defs><radialGradient id="radial-gradient" cx="-297.8" cy="-419.01" r=".58" fx="-297.8" fy="-419.01" gradientTransform="translate(7065.95618 9915.3761) scale(23.606)" gradientUnits="userSpaceOnUse"><stop offset="0" stop-color="#fff"/><stop offset=".07" stop-color="#fffdf4"/><stop offset=".2" stop-color="#fff8d9"/><stop offset=".37" stop-color="#fff0ad"/><stop offset=".56" stop-color="#ffe570"/><stop offset=".79" stop-color="#ffd723"/><stop offset=".88" stop-color="#ffd100"/></radialGradient><clipPath id="clippath"><circle cx="40.5" cy="29.41" r="17.69" style="fill:none"/></clipPath><style>.cls-1{fill:#f8d000}.cls-3{fill:#160b8b}.cls-6{fill:#e2211c}.cls-7{fill:#79858b}</style></defs><g id="Layer_2-2" data-name="Layer 2"><g id="c"><path d="M30.04 66.06c-2.35-.78-4.67-1.64-6.96-2.58a55.8 55.8 0 0 0 13.57 5.98 50.43 50.43 0 0 0 8.88 1.93l.21-1.47a94.75 94.75 0 0 1-15.7-3.86" class="cls-1"/><path d="M107.96 39.1h5.61v-1.23h-5.62v1.23Zm6.85-1.23v2l.88-.02v2.44c.58 1.56 1.43 3 2.52 4.27a10.5 10.5 0 0 0 8.67 3.67c2.77-.17 5.44-1.6 7.45-3.91a10.47 10.47 0 0 1-6.89 2.7c-3.07 0-5.9-1.3-8-3.7-2.47-2.83-3.78-6.9-3.77-11.75 0-5 1.32-9.2 3.74-12.03l-.21.18c-2.24 2.01-3.74 5.03-4.4 8.7l.01 7.45Zm16.07-7.85c-.45-1.23-1.28-1.97-2.29-2.03a2.5 2.5 0 0 0-1.92.73c-.23.22-.45.5-.64.81.4-.22.86-.33 1.32-.3.8.05 1.48.52 1.96 1.31l3.35.1 4.63-2.16-.11-.72-.05-.14-6.05 2.95-.2-.55Zm-68.3 33.15c.07-.36.14-.7.24-1.05l1.96-6.8-.9.05-1.84 6.38.54 1.42Z" class="cls-7"/><path d="m126.18 31.72-.07 7.02a3.29 3.29 0 0 0 1.03.92h2.07c.55-.26.99-.7 1.24-1.25h-3.11l.06-6.65-1.22-.04ZM97.04 50.37l-.97.05.02 1.17 18.36-1.08v-1.17l-17.12 1.01-.46-33.88-1.26-.13.37 27.1 1.06 6.93Zm10.85-22.75 6.3.37v-1.3l-6.31-.38v1.31Zm46.2 26.27v-.01c-.52-.44-.98-.62-1.44-.59-.08.01-.23.04-.26.16l.15.04.83.18c.24.05.48.12.72.21Zm-2.85 4.47s.41-.06.42-.31v-.01l-.18-.03-.77-.1a3.47 3.47 0 0 1-1.36-.47l.2.19c.6.55 1.17.8 1.69.73Zm-2.48-1.39a3.47 3.47 0 0 1-.89-2.62 5.79 5.79 0 0 1 1.04-3.23c-.52.37-.96.83-1.32 1.36l-.27 8.86 1.44-4.37Zm-10.65-16.24-2.1 8.52 7.8-.46.2-1.18-6.77.4 6.6-26.67-.9-.1-4.05 16.36a16.86 16.86 0 0 1-.78 3.13Zm11.04 3.44-3.54.14-.2 1.2 2.5-.1.45 3.11 6.85-.4-.22-1.15-5.4.32-.44-3.12ZM143 54.72v-.66l.09-3.17-1.21.07-.04 1.3 1.16 2.46Zm-64.53-3.26-7.04.4-5.37-16.4c-.2-.7-.37-1.39-.53-2.05-.02.58-.04 1.17-.08 1.74l-.16 2.96 4.9 15 7.97-.47.31-1.19Zm50 14.25c-.37.05-.74.08-1.1.08a6.38 6.38 0 0 1-4.27-1.52c-1.44-1.27-2.2-3.17-2.18-5.5 0-1.99.66-3.92 1.9-5.49a8.31 8.31 0 0 0-2.62 3.73l-.02 6a6.1 6.1 0 0 0 1.68 2.5 6.38 6.38 0 0 0 4.27 1.52 7.99 7.99 0 0 0 6.3-2.99 8.05 8.05 0 0 1-3.96 1.67ZM95.63 50.45l-9.99.59-1.74-17.05c-.04.23-.1.46-.16.68l-.81 3.12 1.47 14.48 11.4-.67-.17-1.15Zm6.94 18.52-.19-15.77-1.25.07.12 9.74.69-.08.08 6.11-.7.1v1.06l11.13-1.49v-1.07l-9.88 1.33Zm40.4-5.42-2.29-4.57v.25l-.08 3.3 1.14 2.26 4.3-.58.03-1.08-3.1.42Zm8.54-.96a6.86 6.86 0 0 1-3.92-.68l-.28-.15-.04 1.21-1 .14.09.04c1.2.6 2.57.85 3.92.68a5.24 5.24 0 0 0 3.52-2.15 5.2 5.2 0 0 1-2.29.91Zm-61.9 8.11-.4-16.76-1.27.07.43 17.93 12.42-1.66-.02-1.07-11.16 1.5Zm46.13-6.18.27-13.23-1.22.07-.05 2.4c.57 1.16.84 2.44.8 3.73a8.9 8.9 0 0 1-.95 3.87l-.09 4.4 4.84-.65.02-1.08-3.62.5v-.01Zm-21.64 2.9V52.53l-1.25.07v9.13l.83-.09.02 5.84-.83.1v1.08l6.04-.81v-1.07l-4.8.64ZM63.31 52.34l-13.76.8 4.67-41.09-1.39-.12L48 54.38l15.25-.87.06-1.17ZM46.2 76.52l2.85-20.31-1.38-.01-3.02 21.49 10.18-1.25.07-1.08-8.7 1.16Zm28.7-45.07c.13-1.06.28-2.11.51-3.12l3.19-13.75-.93-.1-3.4 14.64.63 2.33Zm4.73 40.59-.6-17.53-1.28.08.65 18.69 7.95-1.07-.02-1.07-6.7.9Zm-9.69 1.3-1.23-8.13-.97 2.99.97 6.38 8.35-1.12-.24-1.04-6.88.92Zm-9.57 1.28L56.7 66.6l-.06-.16-.23 3.48 2.71 5.95 5.53-.74.36-1.12-4.65.63Z" class="cls-7"/><path d="m54.84 11.28 14.5 1.5 5.55 20.64.32.01c.18-1.65.35-3.4.71-4.99l3.4-14.63 11.76 1.22 5.36 34.85-10.33.6-1.99-19.54-.2-.01c-.2 1.2-.37 2.45-.68 3.6L78.98 50.9l-7.19.42-5.24-16.03a29.28 29.28 0 0 1-1.02-4.9l-.44-.01c-.05 1.57-.08 3.18-.17 4.75l-.93 16.65-13.85.81 4.7-41.31Zm42.53 4.4 17.54 1.82v8.7l-7.56-.44.02 3.13 6.91.3v8.16h-6.86l.02 3.15 7.73-.11v8.39L97.84 49.8l-.47-34.12Zm41.41 15.73c-.13 4.47-.2 8.2-2.41 11.72-2.03 3.25-5.2 5.15-8.28 5.35a9.95 9.95 0 0 1-8.25-3.51c-2.24-2.56-3.65-6.43-3.65-11.4 0-10.22 5.5-15.85 12.25-15.14a11.7 11.7 0 0 1 9.47 8.23l-6.54 3.18c-.53-1.48-1.56-2.3-2.75-2.37-2.7-.15-4.25 3.1-4.27 6.7-.02 3.26 1.41 6.3 3.85 6.25a3.12 3.12 0 0 0 2.97-2.53h-3.3l.07-6.87 10.84.39Zm7.6 6.2 1.28-7.93.22.01c.08 1.12.16 2.26.3 3.37l.57 4.55h-2.37Zm-1.21 6.2 4.43-.18.44 3.1 5.78-.33-4.65-25.14-6.6-.68-6.65 26.87 6.69-.4.56-3.25Z" class="cls-6"/><path d="m79.53 53.84 7.05-.4.48 17.08-6.93.92-.6-17.6Zm10.18-.57 6.44-.37.21 11.16 5.07-.55.06 5.07-11.37 1.53-.41-16.84Zm13.19-.75 5.7-.32.06 10.52 4.5-.5v4.8l-10.08 1.35-.18-15.85Zm11.72-.66 5.07-.29-.06 14.58-5 .67-.01-14.96Zm21.92-1.24 3.85-.22 3.24 6.92.11-.02c-.12-1.05-.25-2.13-.23-3.22l.1-3.86 3.53-.2-.38 12.5-3.48.46-3.18-6.35-.12.01c.1.9.2 1.72.18 2.58l-.1 4.2-3.79.5.27-13.3Zm12.48 7.23.17.16c.6.55 1.33.96 2.1.87.34-.03.87-.27.9-.81.01-.54-.43-.54-.73-.6l-.68-.08c-1.33-.17-2.45-1.09-2.39-3.03.1-2.96 2.23-4.73 4.27-4.84a4.08 4.08 0 0 1 2.83.89l-1 3.12c-.54-.46-1.16-.81-1.87-.76-.3.03-.74.2-.76.7 0 .45.4.49.66.55l.74.16c1.38.29 2.33 1.17 2.26 3.18a4.76 4.76 0 0 1-4.08 4.71 6.34 6.34 0 0 1-3.6-.62l1.18-3.6Zm-99.35-2.32 9.24-.53 3.75 9.84.22-.02c.1-.84.21-1.73.44-2.56l2.2-7.63 8.07-.45 4.07 17.6-7.28.97-1.5-9.87-.14.01c-.12.63-.24 1.28-.44 1.89l-2.8 8.63-4.82.64-3.5-7.68a10.6 10.6 0 0 1-.68-2.35l-.29.02c-.01.78-.03 1.59-.08 2.36l-.55 8.34-8.77 1.17 2.86-20.38Zm78.9-4.68c-3.83.2-7.11 3.37-7.14 7.93-.03 4.62 3.16 6.93 6.96 6.41 3.64-.48 6.55-3.43 6.63-7.71.08-4.23-2.77-6.84-6.45-6.63" class="cls-3"/><path d="m128.03 56.55 1.1-3.76 1.22 3.57 3.14-.25-2.42 2.32 1.08 3.24-2.79-1.63-3.27 3.12 1.24-4.24-3.61-2.06 4.31-.31Z" style="fill:#fff"/><g style="clip-path:url(#clippath)"><path d="M22.8 11.73h35.38V47.1H22.8V11.73Z" style="fill:url(#radial-gradient)"/></g><path d="M40.03 50.48c-1.8.08-3.6 0-5.37-.26a16.6 16.6 0 0 0 10.77 2.27 14.56 14.56 0 0 0 7-2.57l.15-.11a16.78 16.78 0 0 0 5.85-6.84l.25-.57.04-.1.13-.28c.22-.54.41-1.1.57-1.66C56.04 46 48.7 50.1 40.03 50.48" class="cls-1"/><path d="m54.31 29.13.3-3.28-1.78 2.26-2.46-1.76.96-3.14 2.66.56-2.07-2.5.88-2.8-2.21 1.2-2.4-2.9.83 3.8-2.54 1.36-2.02-3.33 2.1-2.66-3.59.19-2.42-4.07-.02 4.2-4.74.25 4.77 2.52-.05 4.3-4.9-.03-2.39-4.93-1.4 4.91-7-.08 6.12 3.2-1.58 5.53 5.02-3.8 4.52 2.39-2.06 4.63-6.17.27 4.68 3.05-2.55 5.61 5.05-3.98 3.76 2.45-1-4.68L44.27 35l2.34 3.02-2.18 4.34 3.61-2.47 2.06 2.72-.17-4 2.78-1.91-2.93-.63-.14-3.8 2.82-.71 1.33 3.12.32-3.53 2.28-.54-2.09-1.49Zm-4.74 3.1-1.75 3.4-3.54-.75-4.26.14-.98-4.53-2.05-4.33 3.6-2.76 2.47-3.03 3.38 1.77 3.07.7.79 3.54 1.34 3.21-2.07 2.63Z" class="cls-3"/><path d="M8.51 18.87c-1.6 4.06-.77 13.8 2.87 20.54a53.76 53.76 0 0 0 4.87 8.08 49.52 49.52 0 0 1-12.4-23.25c2.31-3.34 3.19-3.92 4.66-5.37Z" class="cls-6"/><path d="M33.28 10.5c.77-.31 1.57-.56 2.38-.74C33.57 8.6 17.76.2 6.1 8.08c-9.83 6.66-5.08 20.49-4.03 23.18 2.86 7.82 8.58 15.75 16.1 22.35a56.8 56.8 0 0 0 23.81 12.26l.08-.24c-4.85-2.32-9.25-6.2-13.61-10.02C15.64 44.37 8.7 29.41 11.6 19.53a59.8 59.8 0 0 1 9.04 5.55c.14-.6.3-1.2.5-1.8a60.76 60.76 0 0 0-9.68-5.76l-.86-.4-.32.89c-1.89 5.11-1.24 11.8 1.83 18.84 3.07 7.04 8.46 14.17 15.19 20.07 1.9 1.67 3.9 3.23 5.97 4.67a61.8 61.8 0 0 1-13.95-9.3C12.02 45.9 6.47 38.2 3.7 30.64c-.97-2.49-5.36-15.2 3.38-21.12a18.5 18.5 0 0 1 10.56-3c6.51 0 12.73 2.57 15.64 3.97Z" class="cls-1"/><path d="M30.56 11.8c-3.65-1.42-9.22-3.48-12.87-3.48-3.75 0-7 .92-9.68 2.73-.19.13-.39.27-.61.45l-.16.13-.02.02-.39.33-.06.06-.12.1-.42.44-.24.27-.01.01c-.16.18-.3.37-.45.56l-.05.08-.04.04c-1.79 2.53-2.2 5.68-2.03 8.62.42-.66.9-1.28 1.42-1.88 1.44-1.64 3.47-3.83 5.53-4.8l1.38.65.45.2c2.35 1.12 6.6 3.47 9.57 5.3a20.63 20.63 0 0 1 8.8-9.82Z" class="cls-1"/><path d="M18.93 28.05a20.5 20.5 0 0 1 6.6-15.09 17.25 17.25 0 0 0 0 30.17 20.5 20.5 0 0 1-6.6-15.08Z" class="cls-6"/></g><path d="m59.97 1.9-2.57-.23v1.5l2.38.2V4.9l-2.38-.2v3.24l-1.84-.16.01-7.77 4.4.38v1.51ZM64.08.87l-.01 6.25 2.46.21v1.52l-4.3-.37.02-7.77 1.83.16ZM75.97 3.05a4.36 4.36 0 0 1 1.23 3.04c0 1.03-.38 2.06-1.24 2.8-.74.64-1.74 1-3.07.88a4.82 4.82 0 0 1-3.09-1.4 4.28 4.28 0 0 1-1.23-3c0-1.12.51-2.2 1.23-2.84a4 4 0 0 1 3.1-.88c1.24.1 2.27.57 3.07 1.4Zm-4.82.77c-.34.3-.7.84-.7 1.7a2.58 2.58 0 0 0 2.42 2.6c.81.06 1.38-.18 1.76-.52.31-.26.7-.78.7-1.67 0-.8-.34-1.43-.7-1.81-.39-.4-1.02-.75-1.74-.81-.7-.06-1.31.13-1.74.51ZM82.41 2.82c1.01.09 1.64.47 2.02.85.34.35.7.93.69 1.8 0 .49-.1 1.08-.62 1.53-.27.23-.67.43-1.1.5l2.43 3.39-2.24-.2-2.14-3.24v3.06l-1.83-.16V2.58l2.79.24Zm-.96 3.45.42.04c.33.02.79.03 1.1-.25.13-.11.3-.35.3-.73 0-.44-.22-.7-.37-.82-.3-.25-.78-.31-1.01-.33l-.43-.04v2.13ZM89.83 3.45l-.02 7.77-1.83-.16L88 3.3l1.84.16ZM95.03 4c1.05.09 2.16.34 3.13 1.34a4 4 0 0 1 1.14 2.88c0 1.22-.43 2.07-1.09 2.66-1.1.99-2.46.95-3.13.9l-2.57-.23.02-7.77 2.5.22Zm-.68 6.2.49.04c.38.03 1.21.07 1.8-.37.43-.31.78-.95.78-1.81 0-.84-.34-1.4-.65-1.73a2.87 2.87 0 0 0-1.93-.83l-.49-.04v4.74ZM105.84 11.5l-3-.25-.6 1.41-1.9-.16 3.2-7.5 1.68.15 3.12 8.04-1.9-.17-.6-1.52Zm-.5-1.41-.97-2.7-.99 2.53 1.96.17Z" class="cls-3"/></g></svg>