<svg viewBox="3.5 108.097 618.803 343.492" xmlns="http://www.w3.org/2000/svg"><defs><clipPath id="c"><path class="cls-1" fill="none" d="M39.38 123.52h123.86v27.75H39.38z"/></clipPath></defs><radialGradient id="a" cx="452.073" cy="280" r="171.095" gradientUnits="userSpaceOnUse"><stop offset=".54" stop-color="#fff"/><stop offset=".578" stop-color="#fdebee"/><stop offset=".655" stop-color="#f6b9c4"/><stop offset=".764" stop-color="#ec687f"/><stop offset=".811" stop-color="#e74360"/></radialGradient><radialGradient id="b" cx="453.486" cy="276.889" r="97.26" gradientUnits="userSpaceOnUse"><stop offset=".695" stop-color="#fff"/><stop offset=".785" stop-color="#fcfcfc"/><stop offset=".85" stop-color="#f3f3f3"/><stop offset=".907" stop-color="#e3e4e5"/><stop offset=".96" stop-color="#cdced0"/><stop offset="1" stop-color="#b6b8ba"/></radialGradient><path fill="url(#a)" d="M546.8 339.8c3 .2 6 .6 9 1.1 10.8 1.8 20.8 5 29.3 9.1 2.3 1.1 4.3 1.7 4.6 1.2.3-.5-1.3-1.9-3.4-3.3-8-5-16-11.7-23.3-19.9-2.5-2.8-4.7-5.6-6.8-8.5-3.5-4.9-.8-12.6 6.1-15.9 6.6-3.2 13.9-5.8 21.7-7.9 11.6-3 22.9-4.2 33.2-3.8 2.8.1 5-.2 5.1-.9.1-.6-2.1-1.4-4.9-1.7-10.2-1.5-21.2-4.6-32-9.6-6.2-2.8-11.9-6.1-17.1-9.6-6.4-4.3-8.1-11.4-4.3-14.6 2.3-1.9 4.7-3.8 7.2-5.6 8.9-6.4 18.2-11.2 27.1-14.3 2.4-.8 4.2-1.9 4.1-2.4-.2-.6-2.3-.5-4.7.1-9.2 2.1-19.6 3-30.5 2.4-3.7-.2-7.3-.6-10.8-1.2-5.9-.9-9.4-8.4-6.9-15.6 2.4-6.9 5.7-13.9 9.8-20.9 6.1-10.3 33-36.9 32.6-37.4-.4-.5-31.7 20.9-43 25-6.4 2.4-12.7 4.1-18.9 5.3-7.5 1.5-13.8-2.3-13.4-7.3.2-3 .6-6 1.1-9 1.8-10.8 5-20.8 9.1-29.3 1.1-2.3 1.7-4.3 1.2-4.6-.5-.3-1.9 1.3-3.3 3.4-5 8-11.7 16-19.9 23.3-2.8 2.5-5.6 4.7-8.5 6.8-4.9 3.5-12.6.8-15.9-6.1-3.2-6.6-5.8-13.9-7.9-21.7-3-11.6-4.2-22.9-3.8-33.2.1-2.8-.2-5-.9-5.1-.7-.1-1.4 2.1-1.7 4.9-1.5 10.2-4.6 21.2-9.6 32-2.8 6.2-6.1 11.9-9.6 17.1-4.3 6.4-11.4 8.1-14.6 4.3-1.9-2.3-3.8-4.7-5.6-7.2-6.4-8.9-11.2-18.2-14.3-27.1-.8-2.4-1.9-4.2-2.4-4.1-.6.2-.5 2.3.1 4.7 2.1 9.2 3.1 19.6 2.4 30.5-.2 3.7-.6 7.3-1.2 10.8-.9 5.9-8.4 9.5-15.6 6.9-6.9-2.4-13.9-5.7-20.9-9.8-10.3-6.1-19.2-13.2-26.2-20.8-1.9-2-3.7-3.4-4.2-3-.5.4.6 2.5 2.2 4.7 6.2 8.2 11.7 18.2 15.9 29.5 2.4 6.4 4.1 12.7 5.3 18.9 1.5 7.5-2.3 13.8-7.3 13.4-3-.2-6-.6-9-1.1-10.8-1.8-20.8-5-29.3-9.1-2.3-1.1-4.3-1.7-4.6-1.2-.3.5 1.3 1.9 3.4 3.3 8 5 16 11.7 23.3 19.9 2.5 2.8 4.7 5.6 6.8 8.5 3.5 4.9 16.1 27.7 9.2 31-6.6 3.2 4 5.6-3.8 7.6s-59.4-11.5-70.6-10.8c-5.1.3-5.2 1.3-.2 2.3 11 2.3 28.9 6.2 36.2 9.6 6.2 2.8 11.9 6.1 17.1 9.6 6.4 4.3 8.1 11.4 4.3 14.6-2.3 1.9-4.7 3.8-7.2 5.6-8.9 6.4-18.2 11.2-27.1 14.3-2.4.8-4.2 1.9-4.1 2.4.2.6 2.3.4 4.7-.1 9.2-2.1 19.6-3.1 30.5-2.4 3.7.2 7.3.6 10.8 1.2 5.9.9 9.5 8.4 6.9 15.6-2.4 6.9-5.7 13.9-9.8 20.9-6.1 10.3-13.2 19.2-20.8 26.2-2 1.9-3.4 3.7-3 4.2.4.5 2.5-.5 4.7-2.2 8.2-6.2 18.2-11.7 29.5-15.8 6.4-2.4 12.7-4.1 18.9-5.3 7.5-1.5 13.8 2.3 13.4 7.3-.2 3-.6 6-1.1 9-1.8 10.8-4.9 20.8-9.1 29.3-1.1 2.3-1.7 4.3-1.2 4.6.5.3 1.9-1.3 3.3-3.4 5-8 11.7-16 19.9-23.3 2.8-2.5 5.6-4.7 8.5-6.8 4.9-3.5 12.6-.8 15.9 6.1 3.2 6.6 5.8 13.9 7.9 21.7 2.1 8 3.1 28.6 3.6 40.6.2 5.1 1.1 5.2 2.1.2 2.5-11.8 6.9-31.9 10.4-39.4 2.8-6.2 6.1-11.9 9.6-17.1 4.3-6.4 11.4-8.1 14.6-4.3 1.9 2.3 3.8 4.7 5.6 7.2 6.4 8.9 11.2 18.2 14.3 27.1.8 2.4 1.9 4.2 2.4 4.1.6-.2.4-2.3-.1-4.7-2.1-9.2-3-19.6-2.4-30.5.2-3.7.6-7.3 1.2-10.8.9-5.9 8.4-9.4 15.6-6.9 6.9 2.4 13.9 5.7 20.9 9.8 10.3 6.1 19.2 13.2 26.2 20.8 1.9 2 3.7 3.4 4.2 3 .5-.4-.5-2.5-2.2-4.7-6.2-8.3-11.7-18.2-15.8-29.5-2.4-6.4-4.1-12.7-5.3-18.9-1.6-7.4 2.1-13.7 7.1-13.3Z"/><circle fill="#FFF" cx="453.5" cy="276.9" r="105"/><circle fill="url(#b)" cx="453.5" cy="276.9" r="97.3"/><path d="M399.3 317c1-13.6 2.9-29.7 2.9-29.7 48.5-5.7 73.2-16.6 75.3-33 1.1-8.5-4.6-15.4-15-16.7-14.9-1.9-22.3 8.3-22.5 23.1 0 0-14.2-2.3-33.9-4.5.7-30.1 23.8-47.1 61.4-42.3 34.8 4.5 49.2 21.9 46.5 43.4-3.2 25.1-29.8 38.3-66 41.1 34.8 4.3 57.8 5.4 57.8 5.4-2.2 16.1-3.2 27.6-3.2 27.6-72.4-10.7-103.3-14.4-103.3-14.4z"/><path fill="#FFF" d="M360.2 281.7c6.5-8.1 16.8-21 30.6-37.7l14.5-17.5-22.7-.6c-.1 0-11.7-.3-32.7-1.6l-5.9-.4-3.6 4.7c-.1.1-6.5 8.5-18.4 23.7 0-3.9.1-8 .1-12.3l.1-11.3-11.3.1c-.1 0-12.9.1-28.3-.1l-11.3-.2v11.1c-11.1-9.6-26.5-14.9-44.9-14.9-21 0-38 6.8-49.6 18.8v-5.7l-.1-11.1-11.1.1c-15.3.1-25 .1-28.1.1-6.7-20.5-27.2-39-79-39-13.1 0-27.9 1.2-45.4 3.6l-9.6 1.3.1 9.7c.5 72.4 0 135.1 0 135.7l-.1 11.4 11.4-.3c14.2-.3 35.6-.2 35.7-.2l11.3.1-.5-46.8c1.6.1 3.1.1 4.6.1 26.9 0 47.2-6.7 59.8-19 .2 32.4.2 54.5.2 54.8v11.3l11.3-.2c15.3-.3 29.1-.1 29.1-.1l11.3.1-.1-11.3v-4.6c11.7 11.7 28.8 18.3 49.8 18.3 17.9 0 32.9-4.8 44-13.3v9.4l11.3-.3c.1 0 12.5-.3 28.5-.1l11.4.1-.3-11.4s-.1-4.6-.2-13.3l1.1-1.3c.3-.4.7-.8 1-1.3 4.9 8 10.5 17.2 16.3 26.8l3.6 6 7-.7c.1 0 10-1 31.5-1.4l19.8-.4-10.7-16.6c-.1-.2-13.7-21.3-31.5-52.3Z"/><g fill="#E74360"><path d="M14.8 202.4c16.4-2.3 31-3.5 43.9-3.5 46.5 0 70.8 15.6 70.8 46.9 0 33.6-27.6 45.7-63.5 45.7-5.1 0-10.3-.3-15.7-.9l.5 47.5s-21.7-.2-36 .2c0 0 .5-62.6 0-135.9zm35 62.6c5.4.7 10.3 1.1 14.9 1.1 19.9 0 30.4-6.5 30.4-21.3 0-12.1-8.2-19.9-31.3-19.9-4.2 0-8.9.3-14.2 1.1 0 11.9 0 20.1.2 39z"/><path d="M14.8 202.4c16.4-2.3 31-3.5 43.9-3.5 46.5 0 70.8 15.6 70.8 46.9 0 33.6-27.6 45.7-63.5 45.7-5.1 0-10.3-.3-15.7-.9l.5 47.5s-21.7-.2-36 .2c0 0 .5-62.6 0-135.9zm35 62.6c5.4.7 10.3 1.1 14.9 1.1 19.9 0 30.4-6.5 30.4-21.3 0-12.1-8.2-19.9-31.3-19.9-4.2 0-8.9.3-14.2 1.1 0 11.9 0 20.1.2 39zm86.8-27.1s10.5 0 29.3-.1c0 0 .3 48.1.7 100.4 0 0-14-.1-29.5.1 0 0 0-44.2-.5-100.4zm34.8 50.3c0-32.2 20.9-52.4 55.2-52.4 31.8 0 49.1 17.5 52.4 40.2-23.7 1.4-32.1 1.7-32.1 1.7-1.7-12.3-9.8-18.8-21.1-18.8-15.3 0-23.1 12.4-23.1 28.9 0 16.8 8.5 29.3 24 29.3 12 0 20.2-6.9 22.2-21.4 21.1.7 32.2 1.6 32.2 1.6-2 27.2-22 43.5-53.7 43.5-32.9 0-56-18.2-56-52.6zm154.3 13.4c-6.4 7.4-11.4 13.6-14.6 17.3.1 11.4.3 17.5.3 17.5-16.3-.1-28.9.1-28.9.1v-96.8c15.6.3 28.6.1 28.6.1-.1 17.2-.1 31.5-.1 44.4 24.8-31.4 38.3-49 38.3-49 21.5 1.3 33.1 1.6 33.1 1.6-17.9 21.7-29.9 36.8-35.4 43.8 19.9 35.3 35.5 59.4 35.5 59.4-22.4.4-32.4 1.4-32.4 1.4-10.9-18-19.2-31.5-24.4-39.8z"/></g><path class="cls-3" fill="#fff" d="m250.026 370.175 13.741 1.255-1.273 13.984-13.741-1.254 1.273-13.985z"/><g class="cls-7" transform="matrix(1.87206 0 0 1.87206 7.256 111.137)" clip-path="url(#c)"><path class="cls-8" d="M144.56 148.29a7.16 7.16 0 0 1-3.49-.85 9.7 9.7 0 0 1-6.7-15.57 9 9 0 0 1 5-5.14 10.4 10.4 0 0 1 4.49-1c.57 0 1.17 0 1.9.11.4 0 .77.1 1.12.16a8.62 8.62 0 0 0 1.22.14 1.14 1.14 0 0 0 1.07-.58 1.45 1.45 0 0 1 1.55-.55 1.46 1.46 0 0 1 1.1 1.23 5.2 5.2 0 0 1-.43 3.21h.53a17 17 0 0 0 7.79-1.65 1.44 1.44 0 0 1 .6-.13 1.52 1.52 0 0 1 .82.25 1.47 1.47 0 0 1 .66 1.25 3.77 3.77 0 0 1-.58 1.9 18.43 18.43 0 0 1-3.51 4.3l.59.39.49.31a1.46 1.46 0 0 1 .65 1.54 1.49 1.49 0 0 1-1.2 1.17 3 3 0 0 0-2.11 1.43 7 7 0 0 1-1.66 1.65 1.41 1.41 0 0 1-.11.73c-.94 2.26-5.32 5.66-9.76 5.66Z" fill="#fff" fill-rule="evenodd"/><path class="cls-3" d="M150.33 123.52a3 3 0 0 0-2.33 1.18 7.52 7.52 0 0 1-.88-.12c-.36-.06-.77-.12-1.21-.17a19.64 19.64 0 0 0-2-.11 11.87 11.87 0 0 0-5.11 1.08 10.48 10.48 0 0 0-5.66 5.77 11.18 11.18 0 0 0 7.57 17.73 8.76 8.76 0 0 0 3.93.89 13.35 13.35 0 0 0 6.88-2.16c1-.61 3.35-2.26 4.24-4.41a2.43 2.43 0 0 0 .17-.52 9.79 9.79 0 0 0 1.4-1.51c.58-.73.66-.81 1.19-.9a3 3 0 0 0 1.48-5.07 18.68 18.68 0 0 0 2.49-3.35 5.27 5.27 0 0 0 .77-2.58 2.94 2.94 0 0 0-1.33-2.51 2.89 2.89 0 0 0-1.63-.49 3 3 0 0 0-1.2.25 15.24 15.24 0 0 1-5.8 1.48 8.1 8.1 0 0 0 0-1.89 3 3 0 0 0-2.2-2.46 2.62 2.62 0 0 0-.73-.1Zm-5.21 21.58h-.07m5.21-18.62c.25 1.84-.29 2.66-1.79 4.34 1.25.1 2.35.15 3.35.15a18.45 18.45 0 0 0 8.39-1.78 2.43 2.43 0 0 1-.4 1.23 16.88 16.88 0 0 1-3.47 4.13 18.85 18.85 0 0 1-2 1.48h.45c1.27 0 1.93.58 3.14 1.35-2.74.45-2.81 2.45-4.57 3.45a5.44 5.44 0 0 1-3 .87h-.25a2.11 2.11 0 0 0 1.5.66 4.63 4.63 0 0 0 1.37-.28c-.75 1.79-4.69 4.75-8.4 4.75a5.78 5.78 0 0 1-3-.81 8.22 8.22 0 0 1-5.83-13.42.93.93 0 0 0 0-.13 7.5 7.5 0 0 1 4.22-4.38 8.92 8.92 0 0 1 3.88-.82c.57 0 1.15 0 1.75.1.89.09 1.72.31 2.49.31a2.59 2.59 0 0 0 2.26-1.18" fill="#fff"/></g><path class="cls-3" d="M228.422 373.227c-1.086 5.616 1.872 10.914 6.384 11.813 4.512.898 9.248-2.958 10.334-8.593 1.085-5.635-1.779-10.933-6.403-11.813-4.624-.88-9.229 2.958-10.315 8.593Z" fill="#fff"/><path class="cls-3" d="M228.591 364.26c-.843-4.325.43-8.2 2.883-8.687 2.452-.486 5.092 2.64 5.934 6.946.842 4.305-.449 8.199-2.883 8.686-2.434.487-5.092-2.639-5.934-6.945Z" fill="#fff"/><path class="cls-3" d="M246.768 364.578c1.423-4.137.693-8.162-1.647-8.986-2.34-.824-5.429 1.872-6.852 6.066-1.423 4.193-.711 8.181 1.648 8.985 2.358.805 5.41-1.872 6.851-6.065Z" fill="#fff"/><g class="cls-7" transform="matrix(1.87206 0 0 1.87206 7.256 111.137)" clip-path="url(#c)"><path class="cls-3" d="M51.26 143a2.87 2.87 0 1 0-3.11 4.72 2.87 2.87 0 1 0 3.11-4.72Z" fill="#fff"/><path class="cls-3" d="M45.46 146.39c-1.75.64-2.81 2.17-2.35 3.42s2.25 1.73 4 1.09 2.81-2.17 2.35-3.42-2.25-1.73-4-1.09Z" fill="#fff"/><path class="cls-3" d="M53.59 146.39c1.76.64 2.81 2.17 2.35 3.42s-2.24 1.73-4 1.09-2.8-2.17-2.35-3.42 2.25-1.73 4-1.09ZM41.74 150a1.2 1.2 0 0 1-.91-.43 1.23 1.23 0 0 1-.25-1l3-16a1.18 1.18 0 0 1 1.16-1h9a1.18 1.18 0 0 1 1.26 1.5l-.67 3.32a1.18 1.18 0 0 1-1.16 1H49l-.17.86h3.41a1.17 1.17 0 0 1 .91.43 1.18 1.18 0 0 1 .26 1l-.62 3.27a1.18 1.18 0 0 1-1.16 1h-3.84l-1 5.21a1.19 1.19 0 0 1-1.16 1Z" fill="#fff"/><path class="cls-3" d="M53.83 135.21Zm0-4.73h-9a2.38 2.38 0 0 0-2.33 1.92l-3 16a2.37 2.37 0 0 0 2.32 2.81h3.89a2.37 2.37 0 0 0 2.29-1.95l.82-4.24h2.88a2.37 2.37 0 0 0 2.3-1.93l.6-3.19a2.24 2.24 0 0 0 .06-.52 2.29 2.29 0 0 0-.31-1.16 2.35 2.35 0 0 0 1.16-1.6l.67-3.31a2.41 2.41 0 0 0-.49-2 2.36 2.36 0 0 0-1.83-.87ZM53.82 132.84l-.67 3.32h-5.1l-.64 3.22h4.85l-.61 3.27h-4.84l-1.18 6.16h-3.89l3-16h9" fill="#fff"/></g><path class="cls-3" d="M107.131 391.948a2.21 2.21 0 0 1-2.171-2.64l5.616-29.953a2.246 2.246 0 0 1 2.171-1.872h7.283c.66 0 1.284.296 1.703.805.446.513.62 1.207.468 1.872l-5.616 29.953a2.228 2.228 0 0 1-2.172 1.872Z" fill="#fff"/><path class="cls-3" d="M120.086 364.26Zm0-8.855h-7.283a4.435 4.435 0 0 0-4.343 3.594l-5.616 29.953a4.438 4.438 0 0 0 4.343 5.261h7.283a4.44 4.44 0 0 0 4.343-3.595l5.616-29.953a4.417 4.417 0 0 0-4.343-5.241Zm0 4.418-5.616 29.953h-7.339l5.616-29.953h7.283" fill="#fff"/><path class="cls-3" d="M132.966 370.662a2.378 2.378 0 0 0 1.872-2.359c0-.505-.45-.767-1.292-.767l-.562 3.126Zm1.366 21.286a2.25 2.25 0 0 1-2.153-1.648 60.893 60.893 0 0 1-.767-7.488 5.018 5.018 0 0 0-.412-2.097l-1.779 9.361a2.21 2.21 0 0 1-2.152 1.872h-7.17a2.258 2.258 0 0 1-1.704-.805 2.313 2.313 0 0 1-.468-1.872l5.616-29.317a2.228 2.228 0 0 1 1.666-1.741 39.27 39.27 0 0 1 8.5-.805c3.154-.225 6.303.5 9.042 2.078a8.738 8.738 0 0 1 4.305 7.713 10.56 10.56 0 0 1-5.073 9.248 11.938 11.938 0 0 1 1.142 4.474c.094.899.187 1.872.262 2.977.09 1.67.283 3.332.58 4.979a2.298 2.298 0 0 1-.262 2.06 2.172 2.172 0 0 1-1.872.973Z" fill="#fff"/><path class="cls-3" d="M133.49 355.218a41.289 41.289 0 0 0-9.005.88 4.4 4.4 0 0 0-3.332 3.482l-5.616 29.316a4.438 4.438 0 0 0 4.343 5.261h7.189a4.424 4.424 0 0 0 3.631-1.872 4.487 4.487 0 0 0 3.651 1.872h7.357c3.052-.043 5.143-3.093 4.081-5.954-.168-.692-.337-2.957-.468-4.474 0-1.011-.168-2.078-.262-3.033a16.485 16.485 0 0 0-.655-3.482 12.745 12.745 0 0 0 4.586-9.996 10.89 10.89 0 0 0-5.316-9.585 18.71 18.71 0 0 0-10.24-2.434Zm-3.201 17.747h1.872a4.7 4.7 0 0 0 4.886-4.662c0-1.872-1.423-2.976-3.501-2.976-.627-.015-1.252.03-1.872.131l-1.367 7.488m3.202-13.31c2.725-.189 5.447.41 7.843 1.722a6.552 6.552 0 0 1 3.277 5.86 8.762 8.762 0 0 1-6.422 8.518v.131c1.592.805 2.266 2.583 2.528 5.279.127 2.87.453 5.728.973 8.555h-7.376a54.68 54.68 0 0 1-.711-7.001c-.187-3.408-1.161-4.344-3.239-4.344h-1.198l-2.115 11.364h-7.17l5.616-29.317a37.907 37.907 0 0 1 7.994-.749" fill="#fff"/><path class="cls-3" d="M145.228 391.948a2.258 2.258 0 0 1-1.704-.805 2.313 2.313 0 0 1-.468-1.872l5.616-29.953a2.248 2.248 0 0 1 2.191-1.873h17.073a2.208 2.208 0 0 1 2.19 2.809l-1.254 6.215a2.21 2.21 0 0 1-2.172 1.872h-7.806l-.169.861h6.609c.664 0 1.295.294 1.722.805.429.522.593 1.211.449 1.872l-1.198 6.122a2.21 2.21 0 0 1-2.172 1.872h-7.488l-.318 1.61h7.732a2.207 2.207 0 0 1 2.171 2.639l-1.179 5.954a2.21 2.21 0 0 1-2.172 1.872Z" fill="#fff"/><path class="cls-3" d="M167.992 364.26Zm0-8.855h-17.073a4.456 4.456 0 0 0-4.362 3.594l-5.616 29.953a4.438 4.438 0 0 0 4.343 5.261h17.653a4.419 4.419 0 0 0 4.344-3.595l1.179-6.103a4.395 4.395 0 0 0-1.086-4.006 4.153 4.153 0 0 0 1.105-2.171l1.198-6.122a4.378 4.378 0 0 0-.262-2.546 4.386 4.386 0 0 0 1.722-2.714l1.217-6.047c.075-.339.114-.684.112-1.03a4.417 4.417 0 0 0-4.418-4.418ZM167.973 359.842l-1.254 6.215h-9.697l-1.049 5.298h9.361l-1.199 6.122h-9.285l-1.198 6.028h10.427l-1.198 6.252h-17.653l5.616-29.953h17.073m0 0" fill="#fff"/><path class="cls-3" d="M180.572 369.127c.749-.15 1.479-.468 1.479-1.217 0-.187 0-.543-1.03-.543h-.131l-.318 1.76Zm-2.565 12.88c.955-.112 2.453-.524 2.453-1.872 0-.524 0-1.123-1.872-1.198l-.581 3.051Zm-3.145 10.109a41.343 41.343 0 0 1-7.956-.58 2.212 2.212 0 0 1-1.722-2.584l5.504-28.998a2.228 2.228 0 0 1 1.722-1.76 41.218 41.218 0 0 1 8.218-.749c3.003-.2 5.998.45 8.649 1.873a8.402 8.402 0 0 1 4.512 7.488 9.1 9.1 0 0 1-3.744 7.488 9.008 9.008 0 0 1 2.34 6.253 10.502 10.502 0 0 1-4.905 8.742c-2.92 2.003-6.927 2.921-12.655 2.921Z" fill="#fff"/><path class="cls-3" d="M180.628 355.218a42.797 42.797 0 0 0-8.686.823 4.402 4.402 0 0 0-3.426 3.501l-5.504 28.998a4.44 4.44 0 0 0 3.464 5.167c2.77.472 5.578.68 8.386.618 6.197 0 10.596-1.048 13.891-3.295a12.652 12.652 0 0 0 5.878-10.577 11.563 11.563 0 0 0-1.591-5.99 11.239 11.239 0 0 0 2.977-7.676 10.633 10.633 0 0 0-5.616-9.36 18.335 18.335 0 0 0-9.754-2.191Zm-3.369 29.054c2.92 0 5.41-1.423 5.41-4.118 0-2.696-1.872-3.426-4.568-3.426h-1.329l-1.423 7.488c.622.079 1.247.11 1.872.094m.618-12.824h1.46c3.108 0 4.924-1.367 4.924-3.538 0-1.704-1.236-2.752-3.239-2.752a7.78 7.78 0 0 0-1.984.168l-1.161 6.122m2.752-11.794a13.84 13.84 0 0 1 7.488 1.591 6.192 6.192 0 0 1 3.407 5.616 7.487 7.487 0 0 1-5.766 7.095v.15a6.402 6.402 0 0 1 4.4 6.421 8.296 8.296 0 0 1-3.95 6.927c-2.528 1.722-6.253 2.527-11.401 2.527a39.297 39.297 0 0 1-7.488-.543l5.503-28.998a38.747 38.747 0 0 1 7.769-.711" fill="#fff"/><path class="cls-3" d="M207.904 391.948a2.21 2.21 0 0 1-2.209-2.153l-.131-4.606h-3.388l-2.097 5.355a2.228 2.228 0 0 1-2.059 1.404h-7.638c-1.601-.014-2.668-1.661-2.022-3.127l13.535-29.953a2.187 2.187 0 0 1 2.022-1.31h9.267a2.208 2.208 0 0 1 2.209 2.04l2.265 29.953a2.21 2.21 0 0 1-2.209 2.397Z" fill="#fff"/><path class="cls-3" d="M213.184 355.405h-9.23a4.434 4.434 0 0 0-4.043 2.602l-13.517 29.953c-1.336 2.928.807 6.257 4.025 6.253h7.582a4.443 4.443 0 0 0 4.119-2.79l1.348-3.388v1.872a4.42 4.42 0 0 0 4.418 4.306h7.488a4.419 4.419 0 0 0 4.418-4.755l-2.265-29.953a4.415 4.415 0 0 0-4.4-4.081Zm-10.521 22.165h4.904l-.131-5.616c0-1.685 0-4.493-.131-6.44h-.093c-.749 1.872-1.629 4.793-2.34 6.44l-2.266 5.616m10.521-17.747 2.247 29.953h-7.488l-.188-6.739h-7.039l-2.714 6.739h-7.563l13.535-29.953h9.267" fill="#fff"/><path class="cls-3" d="M218.369 391.948a2.214 2.214 0 0 1-1.703-.805 2.172 2.172 0 0 1-.468-1.872l5.616-29.953a2.23 2.23 0 0 1 2.171-1.873h7.283c.659.006 1.282.3 1.703.805a2.26 2.26 0 0 1 .468 1.872l-3.987 20.93h7.263c.661 0 1.285.296 1.704.805.44.517.614 1.21.468 1.872l-1.198 6.328a2.21 2.21 0 0 1-2.172 1.872Z" fill="#fff"/><path class="cls-3" d="M231.324 364.26Zm0-8.855h-7.282a4.436 4.436 0 0 0-4.344 3.594l-5.616 29.953a4.438 4.438 0 0 0 4.343 5.261h17.223a4.456 4.456 0 0 0 4.362-3.613l1.161-6.197a3.99 3.99 0 0 0 .112-.955 4.436 4.436 0 0 0-4.437-4.436h-4.586l3.482-18.309a4.417 4.417 0 0 0-4.343-5.242ZM231.324 359.917l-4.493 23.569h9.941l-1.199 6.327h-17.204l5.616-29.953h7.283" fill="#fff"/><path class="cls-3" d="M238.943 391.948a2.256 2.256 0 0 1-1.703-.805 2.306 2.306 0 0 1-.468-1.872l5.616-29.953a2.246 2.246 0 0 1 2.19-1.873h7.264c.66 0 1.284.296 1.703.805.446.513.62 1.208.468 1.872l-3.969 20.93h7.264c.659.006 1.282.3 1.704.805.423.524.593 1.21.468 1.872l-1.198 6.328a2.25 2.25 0 0 1-2.172 1.872Z" fill="#fff"/><path class="cls-3" d="M251.898 364.26Zm0-8.855h-7.264a4.456 4.456 0 0 0-4.362 3.594l-5.616 29.953a4.438 4.438 0 0 0 4.343 5.261h17.242a4.439 4.439 0 0 0 4.343-3.613l1.161-6.197a3.99 3.99 0 0 0 .112-.955 4.435 4.435 0 0 0-4.418-4.436h-4.605l3.482-18.309a4.417 4.417 0 0 0-4.343-5.242ZM251.898 359.917l-4.474 23.569h9.94l-1.198 6.327h-17.223l5.616-29.953h7.264" fill="#fff"/><path class="cls-9" fill="#ffb600" d="m85.097 390.15 5.766-30.402h17.466l-1.348 6.721h-9.566l-1.104 5.522h9.079l-1.235 6.627h-9.061l-2.209 11.532h-7.788z"/><path class="cls-9" d="M108.629 359.505H90.657v.412l-5.616 29.953-.113.599h8.294v-.412l2.022-11.214h9.06v-.393l1.161-6.122.112-.599H96.61l1.011-5.036h9.566v-.393l1.236-6.215.112-.599Zm-.599.505-1.255 6.197h-9.566l-1.198 6.046h9.08l-1.142 6.122h-9.061l-2.209 11.532h-7.283l5.617-29.953h16.848M106.832 390.15l5.766-30.402h7.787l-5.766 30.402h-7.787z" fill="#ffb600"/><path class="cls-9" d="M120.685 359.505h-8.293v.412l-5.617 29.953-.112.599h8.293v-.412l5.617-29.953.112-.599Zm-.599.505-5.616 29.953h-7.339l5.616-29.953h7.283M132.235 372.89a4.437 4.437 0 0 0 4.643-4.418c0-1.648-1.292-2.715-3.257-2.715a12.998 12.998 0 0 0-1.741.094l-1.292 7.039Zm1.873 17.26v-.187a52.558 52.558 0 0 1-.731-7.057c-.168-3.445-1.179-4.1-2.976-4.1h-.992l-2.153 11.27h-7.676l5.617-29.766h.149a37.402 37.402 0 0 1 8.05-.768 13.875 13.875 0 0 1 7.975 1.779 6.693 6.693 0 0 1 3.407 6.046 8.876 8.876 0 0 1-6.234 8.631c1.348.842 2.041 2.452 2.322 5.279 0 .917.168 1.872.262 2.958a32.18 32.18 0 0 0 .692 5.616l.225.225Z" fill="#ffb600"/><path class="cls-9" d="M132.086 366.076h1.535c1.872 0 2.995.973 2.995 2.471a4.175 4.175 0 0 1-4.381 4.156h-1.422l1.198-6.552Zm1.404-6.74a37.912 37.912 0 0 0-8.106.768h-.319v.318l-5.616 29.317-.112.599h8.162v-.412l2.059-10.952h.787c1.685 0 2.564.599 2.733 3.875.084 2.385.329 4.761.73 7.114v.375h8.612l-.263-.693a30.514 30.514 0 0 1-.692-5.466c0-1.011-.169-2.06-.262-2.958a7.075 7.075 0 0 0-2.06-5.205 9.114 9.114 0 0 0 5.972-8.686 6.998 6.998 0 0 0-3.519-6.271 14.165 14.165 0 0 0-8.106-1.873Zm-3.201 13.891h1.872a4.7 4.7 0 0 0 4.886-4.661c0-1.873-1.423-2.958-3.501-2.958-.627-.015-1.252.03-1.872.131l-1.367 7.488m3.202-13.31a14.255 14.255 0 0 1 7.843 1.741 6.493 6.493 0 0 1 3.277 5.84 8.742 8.742 0 0 1-6.422 8.518v.15c1.592.786 2.266 2.565 2.528 5.279a63.23 63.23 0 0 0 .973 8.556h-7.376a54.97 54.97 0 0 1-.711-7.021c-.187-3.407-1.161-4.343-3.239-4.343h-1.198l-2.115 11.27h-7.17l5.616-29.316a36.501 36.501 0 0 1 7.994-.768M144.928 390.15l5.785-30.402h17.578l-1.347 6.721h-9.716l-.955 4.774h9.323l-1.311 6.627h-9.229l-1.086 5.541h10.428l-1.311 6.739h-18.159z" fill="#ffb600"/><path class="cls-9" d="M168.591 359.505h-18.103v.412l-5.616 29.953-.112.599h18.72l.094-.412 1.198-6.253.112-.599H154.27l.992-5.036h9.248l.093-.393 1.199-6.122.112-.599h-9.36l.861-4.287h9.716v-.393l1.235-6.215.113-.599Zm-.599.505-1.254 6.197h-9.716l-1.067 5.279h9.36l-1.198 6.14h-9.267l-1.198 6.028h10.427l-1.198 6.253h-17.653l5.616-29.953h17.073M179.337 371.355c2.939 0 4.68-1.236 4.68-3.295 0-1.535-1.142-2.509-2.996-2.509a9.722 9.722 0 0 0-1.778.132l-1.067 5.616Zm-3.745 12.767c.538.03 1.075.03 1.61 0 2.565 0 5.167-1.198 5.167-3.875 0-2.134-1.422-3.164-4.324-3.164h-1.123l-1.18 7.058Zm-.786 6.197a40.318 40.318 0 0 1-7.488-.543h-.243l5.616-29.41h.15c2.579-.492 5.2-.732 7.825-.712 2.66-.177 5.316.386 7.675 1.629a6.399 6.399 0 0 1 3.538 5.766 7.634 7.634 0 0 1-5.466 7.17 6.7 6.7 0 0 1 4.044 6.496 8.574 8.574 0 0 1-4.063 7.114c-2.527 1.741-6.29 2.583-11.532 2.583Z" fill="#ffb600"/><path class="cls-9" d="M179.486 365.926a8.232 8.232 0 0 1 1.554 0c1.723 0 2.752.842 2.752 2.246 0 1.872-1.666 3.052-4.437 3.052h-.861l.992-5.298Zm1.161-6.59a40.29 40.29 0 0 0-7.863.712h-.337v.318l-5.503 29.017-.094.487h.487c2.512.415 5.056.599 7.6.542 5.279 0 9.117-.861 11.682-2.62a8.786 8.786 0 0 0 4.1-7.077 6.977 6.977 0 0 0-3.744-6.477 7.734 7.734 0 0 0 5.073-7.189 6.66 6.66 0 0 0-3.744-5.99 14.337 14.337 0 0 0-7.769-1.648Zm-2.752 12.3h1.46c3.108 0 4.924-1.386 4.924-3.557 0-1.685-1.236-2.752-3.239-2.752a6.869 6.869 0 0 0-1.984.187l-1.161 6.122m2.752-11.813c2.598-.178 5.193.38 7.488 1.61a6.17 6.17 0 0 1 3.407 5.616 7.488 7.488 0 0 1-5.765 7.095v.131a6.436 6.436 0 0 1 4.436 6.44 8.29 8.29 0 0 1-3.95 6.908c-2.527 1.741-6.252 2.527-11.401 2.527a39.629 39.629 0 0 1-7.488-.524l5.504-29.017a38.807 38.807 0 0 1 7.769-.711M207.343 377.495l-.131-5.41v-5.354l-.618 1.778c-.468 1.33-.955 2.696-1.367 3.744l-2.115 5.317Zm.318 12.655-.187-6.739h-6.627l-2.64 6.665h-8.218l13.834-30.328h9.623l2.227 30.328Z" fill="#ffb600"/><path class="cls-9" d="m203.355 377.252 2.003-4.999c.412-.954.88-2.321 1.348-3.744l.169-.449c0 1.442 0 2.902.093 3.969l.113 5.148Zm10.24-17.747H203.58l-.131.299-13.516 29.953-.319.712h8.687l.131-.319 2.583-6.44h6.215l.169 6.272v.487h8.518v-.543l-2.265-29.953v-.468Zm-10.97 18.252h4.942l-.131-5.616c0-1.685 0-4.474-.131-6.421h-.093c-.749 1.872-1.629 4.792-2.34 6.421l-2.266 5.616m10.521-17.747 2.247 29.953h-7.488l-.188-6.739h-7.039l-2.714 6.739h-7.563l13.535-29.953h9.267M218.07 390.15l5.766-30.402h7.787l-4.474 23.569h9.922l-1.292 6.833H218.07z" fill="#ffb600"/><path class="cls-9" d="M231.904 359.505h-8.293v.412l-5.616 29.953-.113.599h18.216v-.412l1.198-6.347.112-.599h-9.941l4.437-22.989.113-.599Zm-.599.505-4.493 23.551h9.941l-1.198 6.346H218.35l5.617-29.953h7.282M238.644 390.15l5.784-30.402h7.769l-4.474 23.569h9.941l-1.292 6.833h-17.728z" fill="#ffb600"/><path class="cls-9" d="M252.497 359.505h-8.293v.412l-5.617 29.953-.112.599h18.234v-.412l1.198-6.347.112-.599h-9.94l4.306-22.989.112-.599Zm-.599.505-4.474 23.551h9.94l-1.198 6.346h-17.223l5.616-29.953h7.264" fill="#ffb600"/><path class="cls-10" d="M278.949 382.587h.15-.094Zm14.565-5.616c-2.247.711-3.595.861-5.336-.711 2.168.14 4.323-.423 6.141-1.61 3.276-1.872 3.407-5.616 8.48-6.421-2.49-1.592-3.744-2.734-6.664-2.453a35.7 35.7 0 0 0 3.744-2.752 32.005 32.005 0 0 0 6.44-7.694 4.586 4.586 0 0 0 .749-2.265c-5.823 2.583-10.802 3.912-21.829 3.014 2.808-3.127 3.744-4.643 3.333-8.05-2.453 3.332-5.411 1.872-8.818 1.61a18.887 18.887 0 0 0-10.446 1.329 13.942 13.942 0 0 0-7.844 8.162.654.654 0 0 0 0 .225c-7.46 9.089-2.284 22.847 9.319 24.764.498.08.998.138 1.502.172 7.9 4.811 19.469-3.052 21.248-7.32Z" fill="#ffb600" fill-rule="evenodd"/><g class="cls-7" transform="matrix(1.87206 0 0 1.87206 7.256 111.137)" clip-path="url(#c)"><path class="cls-11" d="M145.13 145h.08-.05Zm7.78-3c-1.2.38-1.92.46-2.85-.38a5.36 5.36 0 0 0 3.28-.86c1.75-1 1.82-3 4.53-3.43-1.33-.85-2-1.46-3.56-1.31a19 19 0 0 0 2-1.47 17.1 17.1 0 0 0 3.44-4.11 2.45 2.45 0 0 0 .4-1.21c-3.11 1.38-5.77 2.09-11.66 1.61 1.5-1.67 2-2.48 1.78-4.3-1.31 1.78-2.89 1-4.71.86a10.1 10.1 0 0 0-5.58.71 7.45 7.45 0 0 0-4.19 4.36.34.34 0 0 0 0 .12 8.16 8.16 0 0 0 5.78 13.32c4.22 2.57 10.4-1.63 11.35-3.91Z" fill="none" stroke="#fdb927" stroke-miterlimit="10" stroke-width="1.17"/></g><path class="cls-12" d="M276.347 380.116h.112Zm11.42-3.744c-1.76.449-2.79.524-4.063-.768a7.73 7.73 0 0 0 4.774-.992c2.602-1.291 2.845-4.137 6.796-4.586-1.873-1.311-2.752-2.247-5.036-2.153a25.893 25.893 0 0 0 3.032-1.872 24.02 24.02 0 0 0 5.261-5.616c.384-.5.618-1.097.674-1.723-4.568 1.741-8.462 2.565-16.849 1.423 2.284-2.284 3.127-3.407 2.902-6.065-2.022 2.489-4.25 1.291-6.852.898a14.448 14.448 0 0 0-8.087.599 10.634 10.634 0 0 0-6.365 5.935v.187c-6.101 6.683-2.677 17.466 6.163 19.408.376.082.756.146 1.138.192 5.86 4.025 15.089-1.553 16.624-4.755Z" fill="#ff9015" fill-rule="evenodd"/><path class="cls-13" d="M276.347 380.116h.112Zm11.42-3.744c-1.76.449-2.79.524-4.063-.768a7.73 7.73 0 0 0 4.774-.992c2.602-1.291 2.845-4.137 6.796-4.586-1.873-1.311-2.752-2.247-5.036-2.153a25.893 25.893 0 0 0 3.032-1.872 24.02 24.02 0 0 0 5.261-5.616c.384-.5.618-1.097.674-1.723-4.568 1.741-8.462 2.565-16.849 1.423 2.284-2.284 3.127-3.407 2.902-6.065-2.022 2.489-4.25 1.291-6.852.898a14.448 14.448 0 0 0-8.087.599 10.634 10.634 0 0 0-6.365 5.935v.187c-6.101 6.683-2.677 17.466 6.163 19.408.376.082.756.146 1.138.192 5.86 4.025 15.089-1.553 16.624-4.755Z" fill="none" stroke="#f7901e" stroke-miterlimit="10" stroke-width=".15"/><path class="cls-14" d="M283.985 369.483c0 9.064-9.811 14.729-17.663 10.197-7.849-4.532-7.849-15.864 0-20.396a11.77 11.77 0 0 1 5.888-1.576c6.507-.012 11.786 5.266 11.775 11.775Z" fill="#ff4d00" fill-rule="evenodd"/><path class="cls-6" d="M20.735 365.514h8.144c4.137 0 6.852 2.115 6.14 6.515a6.57 6.57 0 0 1-6.777 5.859h-3.276l-.861 5.317h-6.159Zm4.961 7.919h.637c1.123 0 2.359-.187 2.565-1.629.206-1.441-1.068-1.441-2.135-1.441h-.599ZM37.809 365.514h6.421l-1.872 12.019h5.391l-.898 5.616H35.019ZM67.649 365.514l-1.666 10.465c-.824 5.167-4.399 7.488-9.36 7.488-4.961 0-7.825-2.34-7.002-7.488l1.666-10.465h6.515l-1.572 9.866c-.206 1.385-.356 2.602 1.366 2.602 1.723 0 1.872-1.217 2.153-2.602l1.573-9.866ZM69.727 376.971l.3.262a5.81 5.81 0 0 0 3.744 1.61c.636 0 1.666-.262 1.872-1.048.206-.786-.693-.88-1.292-.992l-1.235-.225c-2.434-.449-4.325-1.872-3.875-4.699.655-4.193 4.867-6.552 8.705-6.552a9.342 9.342 0 0 1 5.354 1.554l-2.509 4.474a5.71 5.71 0 0 0-3.519-1.329c-.562 0-1.423.206-1.535.936-.113.73.674.749 1.16.861l1.386.337c2.639.599 4.362 2.059 3.894 5.054-.656 4.231-4.83 6.309-8.649 6.309a14.325 14.325 0 0 1-6.553-1.61Z" fill="#e54360"/></svg>