<svg viewBox="86.9 134.097 618.303 343.792" xmlns="http://www.w3.org/2000/svg"><defs><clipPath id="c" transform="translate(0 .36)"><path class="cls-1" fill="none" d="M40.29 124.51h123.67v27.7H40.29z"/></clipPath></defs><radialGradient id="a" cx="534.731" cy="306" r="171.168" gradientUnits="userSpaceOnUse"><stop offset=".54" stop-color="#fff"/><stop offset=".576" stop-color="#e8eef2"/><stop offset=".65" stop-color="#b6cedc"/><stop offset=".755" stop-color="#6aa5bf"/><stop offset=".798" stop-color="#4296b4"/></radialGradient><radialGradient id="b" cx="536.947" cy="304.491" r="97.302" gradientUnits="userSpaceOnUse"><stop offset=".695" stop-color="#fff"/><stop offset=".781" stop-color="#fafbfb"/><stop offset=".842" stop-color="#f2f2f3"/><stop offset=".896" stop-color="#e4e5e6"/><stop offset=".946" stop-color="#d2d3d5"/><stop offset=".992" stop-color="#babcbe"/><stop offset="1" stop-color="#b6b8ba"/></radialGradient><path fill="url(#a)" d="M629.5 365.9c3 .2 6 .6 9 1.1 10.8 1.8 20.8 5 29.3 9.1 2.3 1.1 4.3 1.7 4.6 1.2.3-.5-1.3-1.9-3.4-3.3-8-5-16-11.7-23.3-19.9-2.5-2.8-4.7-5.6-6.8-8.5-3.5-4.9-.8-12.6 6.2-15.9 6.6-3.2 13.9-5.8 21.7-7.9 11.6-3 22.9-4.2 33.3-3.8 2.8.1 5-.2 5.1-.9.1-.6-2.1-1.4-4.9-1.7-10.2-1.5-21.2-4.6-32.1-9.6-6.2-2.8-11.9-6.1-17.1-9.6-6.4-4.3-8.1-11.4-4.3-14.6 2.3-1.9 4.7-3.8 7.2-5.6 8.9-6.4 18.2-11.2 27.1-14.3 2.4-.8 4.2-1.9 4.1-2.4-.2-.6-2.3-.5-4.7.1-9.2 2.1-19.6 3-30.6 2.4-3.7-.2-7.3-.6-10.8-1.2-5.9-.9-9.4-8.4-6.9-15.6 2.4-6.9 5.7-13.9 9.8-20.9 6.1-10.3 33-36.9 32.6-37.4-.4-.5-31.7 20.9-43 25-6.4 2.4-12.7 4.1-18.9 5.3-7.5 1.5-13.8-2.3-13.4-7.3.2-3 .6-6 1.1-9 1.8-10.8 5-20.8 9.1-29.3 1.1-2.3 1.7-4.3 1.2-4.6-.5-.3-1.9 1.3-3.3 3.4-5 8-11.7 16-19.9 23.3-2.8 2.5-5.6 4.7-8.5 6.8-4.9 3.5-12.6.8-15.9-6.1-3.2-6.6-5.8-13.9-7.9-21.7-3-11.6-4.2-23-3.9-33.3.1-2.8-.2-5-.9-5.1-.7-.1-1.4 2.1-1.7 4.9-1.5 10.2-4.6 21.2-9.6 32.1-2.8 6.2-6.1 11.9-9.6 17.1-4.3 6.4-11.4 8.1-14.6 4.3-1.9-2.3-3.8-4.7-5.6-7.2-6.4-8.9-11.2-18.2-14.3-27.1-.8-2.4-1.9-4.2-2.4-4.1-.6.2-.5 2.3.1 4.7 2.1 9.2 3.1 19.6 2.4 30.6-.2 3.7-.6 7.3-1.2 10.8-.9 5.9-8.4 9.5-15.6 6.9-6.9-2.4-13.9-5.7-20.9-9.8-10.3-6.1-19.2-13.2-26.2-20.8-1.9-2-3.7-3.4-4.2-3-.5.4.6 2.5 2.2 4.7 6.2 8.3 11.7 18.2 15.9 29.5 2.4 6.4 4.1 12.7 5.3 18.9 1.5 7.5-2.3 13.8-7.3 13.4-3-.2-6-.6-9-1.1-10.8-1.8-20.8-5-29.3-9.1-2.3-1.1-4.3-1.7-4.6-1.2-.3.5 1.3 1.9 3.4 3.3 8 5 16 11.7 23.3 19.9 2.5 2.8 4.7 5.6 6.8 8.5 3.5 4.9 16.1 27.7 9.2 31.1-6.6 3.2 4 5.6-3.8 7.6s-59.4-11.5-70.6-10.8c-5.1.3-5.2 1.3-.2 2.3 11 2.3 28.9 6.2 36.2 9.6 6.2 2.8 11.9 6.1 17.1 9.6 6.4 4.3 8.1 11.4 4.3 14.6-2.3 1.9-4.7 3.8-7.2 5.6-8.9 6.4-18.2 11.2-27.1 14.3-2.4.8-4.2 1.9-4.1 2.4.2.6 2.3.4 4.7-.1 9.2-2.1 19.6-3.1 30.6-2.4 3.7.2 7.3.6 10.8 1.2 5.9.9 9.5 8.4 6.9 15.6-2.4 6.9-5.7 13.9-9.8 20.9-6.1 10.3-13.2 19.2-20.8 26.2-2 1.9-3.4 3.7-3 4.2.4.5 2.5-.5 4.7-2.2 8.3-6.2 18.2-11.7 29.5-15.9 6.4-2.4 12.7-4.1 18.9-5.3 7.5-1.5 13.8 2.3 13.4 7.3-.2 3-.6 6-1.1 9-1.8 10.8-5 20.8-9.1 29.3-1.1 2.3-1.7 4.3-1.2 4.6.5.3 1.9-1.3 3.3-3.4 5-8 11.7-16 19.9-23.3 2.8-2.5 5.6-4.7 8.5-6.8 4.9-3.5 12.6-.8 15.9 6.1 3.2 6.6 5.8 13.9 7.9 21.7 2.1 8 3.1 28.6 3.6 40.7.2 5.1 1.1 5.2 2.1.2 2.5-11.8 6.9-31.9 10.4-39.4 2.8-6.2 6.1-11.9 9.6-17.1 4.3-6.4 11.4-8.1 14.6-4.3 1.9 2.3 3.8 4.7 5.6 7.2 6.4 8.9 11.2 18.2 14.3 27.1.8 2.4 1.9 4.2 2.4 4.1.6-.2.4-2.3-.1-4.7-2.1-9.2-3-19.6-2.4-30.6.2-3.7.6-7.3 1.2-10.8.9-5.9 8.4-9.5 15.6-6.9 6.9 2.4 13.9 5.7 20.9 9.8 10.3 6.1 19.2 13.2 26.2 20.8 1.9 2 3.7 3.4 4.2 3 .5-.4-.5-2.5-2.2-4.7-6.2-8.3-11.7-18.2-15.9-29.5-2.4-6.4-4.1-12.7-5.3-18.9-1.5-7.6 2.2-13.8 7.2-13.4Z"/><circle fill="#FFF" cx="536.9" cy="304.5" r="105"/><circle fill="url(#b)" cx="536.9" cy="304.5" r="97.3"/><path d="M485.8 315.5c22.3 2.7 34.6 4.1 34.6 4.1.1 10.2 7.5 17.8 20.2 19.4 10.8 1.4 21.6-2.9 23-13.7 1.2-9.4-4.9-17.1-18.5-18.9-9.8-1.2-17.3 1.4-22.2 7.4 0 0-13.6-3-33.3-6.3 0 0 4.6-26.9 9.3-62.8 0 0 37 4.7 101 11.8 0 0-1.5 9.1-3.5 24.7 0 0-30.8-4.1-70.2-8.1-.8 5.2-1.8 11.7-2.9 19.9 7.8-4.2 20.7-6.9 34.5-5.2 31.6 4 43.5 22.6 40.9 43.2-3.4 26.6-29.8 35.8-61.2 31.8-34.4-4.4-52.3-20.7-51.7-47.3z"/><path fill="#FFF" d="M443.6 309.3c6.5-8.1 16.8-21 30.6-37.8l14.5-17.5-22.7-.6c-.1 0-11.7-.3-32.7-1.6l-5.9-.4-3.6 4.7c-.1.1-6.5 8.5-18.4 23.7 0-3.9 0-8 .1-12.3l.1-11.3-11.3.1c-.1 0-12.9.1-28.3-.1l-11.3-.2v11.1c-11.1-9.6-26.5-14.9-44.9-14.9-21 0-38 6.8-49.6 18.8v-5.7l-.1-11.1-11.1.1c-15.2.1-25 .1-28.1.1-11.2-33.5-52.8-39-79-39-13 0-27.9 1.2-45.4 3.6l-9.6 1.3.1 9.7c.5 72.4 0 135.1 0 135.8l-.1 11.4 11.4-.3c5.8-.1 13.8-.2 23.1-.2H134l11.3.1-.5-46.9c1.6.1 3.1.1 4.6.1 26.9 0 47.3-6.7 59.9-19 .2 32.4.2 54.6.2 54.9v11.3l11.3-.2c15.3-.3 29.1-.1 29.2-.1l11.3.1-.1-11.3v-4.6c11.7 11.7 28.8 18.3 49.8 18.3 17.9 0 32.9-4.8 44-13.3v9.4l11.3-.3c.1 0 12.6-.3 28.6-.1l11.4.1-.3-11.4s-.1-4.6-.2-13.3c.3-.4.7-.8 1.1-1.3.3-.4.7-.8 1.1-1.3 4.9 8 10.5 17.2 16.3 26.8l3.6 6 7-.7c.1 0 10-1 31.5-1.4l19.9-.4-10.8-16.7c-.5-.1-14.1-21.2-31.9-52.2z"/><path d="M98.1 230c16.4-2.3 31-3.5 43.9-3.5 46.6 0 70.9 15.6 70.9 46.9 0 33.6-27.7 45.7-63.5 45.7-5.1 0-10.3-.3-15.8-.9l.5 47.6s-21.7-.2-36.1.2c.1-.1.6-62.7.1-136zm35 62.6c5.4.7 10.3 1.1 14.9 1.1 19.9 0 30.5-6.5 30.5-21.4 0-12.1-8.2-19.9-31.3-19.9-4.2 0-8.9.3-14.2 1.1-.1 12-.1 20.2.1 39.1zm86.8-27.1s10.6 0 29.3-.1c0 0 .3 48.1.7 100.4 0 0-14-.1-29.5.1.1 0 .1-44.2-.5-100.4zm34.8 50.3c0-32.2 21-52.5 55.2-52.5 31.8 0 49.1 17.5 52.5 40.2-23.7 1.4-32.1 1.7-32.1 1.7-1.7-12.3-9.8-18.8-21.1-18.8-15.3 0-23.1 12.4-23.1 28.9 0 16.8 8.5 29.3 24 29.3 12 0 20.2-6.9 22.3-21.4 21.1.7 32.2 1.6 32.2 1.6-2 27.2-22 43.5-53.8 43.5-33 .1-56.1-18.1-56.1-52.5zm154.4 13.4c-6.4 7.4-11.4 13.6-14.6 17.3.1 11.4.3 17.5.3 17.5-16.3-.1-28.9.1-28.9.1v-96.8c15.6.3 28.6.1 28.6.1-.1 17.2-.1 31.5-.1 44.4 24.9-31.4 38.3-49 38.3-49 21.5 1.3 33.1 1.6 33.1 1.6-17.9 21.7-29.9 36.9-35.4 43.8 19.9 35.3 35.6 59.4 35.6 59.4-22.4.4-32.4 1.4-32.4 1.4-10.9-17.9-19.3-31.5-24.5-39.8z" fill="#4296B4"/><g><path class="cls-4" fill="#fff" d="m333.555 397.503 13.832 1.266-1.285 14.097-13.85-1.266 1.303-14.097z"/><g class="cls-9" transform="matrix(1.88957 0 0 1.88957 87.042 133.531)" clip-path="url(#c)"><path class="cls-10" d="M145.3 149.6a7.14 7.14 0 0 1-3.48-.85 9.69 9.69 0 0 1-6.69-15.55 9 9 0 0 1 5-5.13 10.4 10.4 0 0 1 4.49-.95 17 17 0 0 1 1.9.11c.39 0 .76.1 1.11.16a8.78 8.78 0 0 0 1.22.14 1.14 1.14 0 0 0 1.07-.58 1.49 1.49 0 0 1 1.19-.6 1.47 1.47 0 0 1 .36 0 1.49 1.49 0 0 1 1.1 1.23 5.27 5.27 0 0 1-.44 3.21h.54a16.93 16.93 0 0 0 7.78-1.65 1.54 1.54 0 0 1 .6-.13 1.49 1.49 0 0 1 .81.25 1.47 1.47 0 0 1 .66 1.25 3.7 3.7 0 0 1-.58 1.89 17.94 17.94 0 0 1-3.51 4.3l.6.38c.15.11.31.21.49.32a1.49 1.49 0 0 1 .65 1.54 1.47 1.47 0 0 1-1.2 1.16 3 3 0 0 0-2.11 1.44 7 7 0 0 1-1.66 1.64 1.42 1.42 0 0 1-.11.73c-.94 2.25-5.3 5.65-9.75 5.65Z" fill="#fff" fill-rule="evenodd"/><path class="cls-4" d="M151.07 124.87a3 3 0 0 0-2.36 1.18 7.81 7.81 0 0 1-.88-.12c-.36-.06-.76-.13-1.2-.17a19.88 19.88 0 0 0-2-.12 11.86 11.86 0 0 0-5.1 1.09 10.43 10.43 0 0 0-5.66 5.76 11.17 11.17 0 0 0 7.57 17.7 8.67 8.67 0 0 0 3.91.88 13.35 13.35 0 0 0 6.87-2.14c1-.62 3.35-2.27 4.24-4.41a2.63 2.63 0 0 0 .17-.52 10.32 10.32 0 0 0 1.4-1.51c.58-.72.66-.81 1.19-.9a3 3 0 0 0 1.53-5.06 18.6 18.6 0 0 0 2.48-3.35 5.27 5.27 0 0 0 .77-2.58 3 3 0 0 0-1.33-2.51 2.88 2.88 0 0 0-1.62-.49 2.93 2.93 0 0 0-1.2.25 15.43 15.43 0 0 1-5.85 1.51 7.6 7.6 0 0 0 0-1.89 3 3 0 0 0-2.19-2.47 3.1 3.1 0 0 0-.73-.09Zm-5.2 21.54h-.07m5.2-18.59c.25 1.84-.29 2.65-1.79 4.33 1.25.11 2.35.15 3.35.15a18.44 18.44 0 0 0 8.38-1.77 2.49 2.49 0 0 1-.41 1.22 17.05 17.05 0 0 1-3.46 4.13 18.85 18.85 0 0 1-2 1.48h.45c1.27 0 1.93.58 3.13 1.35-2.73.45-2.79 2.44-4.56 3.44a5.41 5.41 0 0 1-3.05.87h-.25a2.14 2.14 0 0 0 1.51.66 4.57 4.57 0 0 0 1.36-.28c-.74 1.79-4.68 4.75-8.39 4.75a5.69 5.69 0 0 1-3-.82 8.22 8.22 0 0 1-5.82-13.4.56.56 0 0 0 0-.12 7.5 7.5 0 0 1 4.22-4.38 9 9 0 0 1 3.87-.82c.57 0 1.15 0 1.75.1.88.09 1.71.31 2.48.31a2.59 2.59 0 0 0 2.26-1.18" fill="#fff"/></g><path class="cls-4" d="M311.768 400.508c-1.096 5.668 1.776 11.016 6.444 11.904 4.667.888 9.296-2.985 10.392-8.654 1.096-5.669-1.776-11.016-6.443-11.904-4.667-.889-9.297 2.985-10.393 8.654Z" fill="#fff"/><path class="cls-4" d="M311.9 391.532c-.85-4.346.435-8.276 2.891-8.748 2.457-.473 5.14 2.645 5.99 6.991.85 4.346-.434 8.257-2.89 8.749-2.457.491-5.14-2.646-5.99-6.992Z" fill="#fff"/><path class="cls-4" d="M330.248 391.854c1.436-4.176.7-8.239-1.663-9.051-2.362-.813-5.46 1.89-6.897 6.103-1.436 4.214-.699 8.238 1.663 9.05 2.362.813 5.442-1.889 6.897-6.102Z" fill="#fff"/><g class="cls-9" transform="matrix(1.88957 0 0 1.88957 87.042 133.531)" clip-path="url(#c)"><path class="cls-4" d="M52.15 144.36a2.87 2.87 0 1 0-3.1 4.71 2.87 2.87 0 1 0 3.1-4.71Z" fill="#fff"/><path class="cls-4" d="M46.36 147.7c-1.75.64-2.8 2.17-2.35 3.41s2.25 1.74 4 1.09 2.8-2.16 2.35-3.41-2.25-1.73-4-1.09Z" fill="#fff"/><path class="cls-4" d="M54.48 147.7c1.75.64 2.8 2.17 2.35 3.41s-2.24 1.74-4 1.09-2.8-2.16-2.34-3.41 2.24-1.73 4-1.09ZM42.65 151.3a1.19 1.19 0 0 1-.91-.42 1.24 1.24 0 0 1-.25-1l3-15.94a1.18 1.18 0 0 1 1.16-1h9a1.2 1.2 0 0 1 .91.43 1.18 1.18 0 0 1 .24 1l-.66 3.31a1.18 1.18 0 0 1-1.16.95h-4.07l-.17.86h3.42a1.17 1.17 0 0 1 1.15 1.39l-.61 3.27a1.18 1.18 0 0 1-1.16 1h-3.85l-1 5.2a1.18 1.18 0 0 1-1.16.95Z" fill="#fff"/><path class="cls-4" d="M54.72 136.54Zm0-4.72h-9a2.36 2.36 0 0 0-2.32 1.92l-3 15.94a2.35 2.35 0 0 0 2.32 2.8h3.88a2.37 2.37 0 0 0 2.32-1.91l.81-4.24h2.88a2.37 2.37 0 0 0 2.32-1.92l.6-3.19a2.16 2.16 0 0 0 .06-.51 2.43 2.43 0 0 0-.31-1.17 2.34 2.34 0 0 0 1.16-1.59l.66-3.31a2.36 2.36 0 0 0-2.31-2.82ZM54.72 134.18l-.67 3.31h-5.11l-.63 3.22h4.85l-.62 3.26h-4.83l-1.18 6.15h-3.88l3-15.94h9" fill="#fff"/></g><path class="cls-4" d="M189.532 419.422a2.25 2.25 0 0 1-1.72-.793 2.344 2.344 0 0 1-.472-1.89l5.669-30.12a2.229 2.229 0 0 1 2.192-1.89h7.331a2.25 2.25 0 0 1 1.72.794c.423.531.597 1.221.472 1.89l-5.669 30.12a2.229 2.229 0 0 1-2.192 1.89Z" fill="#fff"/><path class="cls-4" d="M202.589 391.532Zm0-8.918h-7.332a4.46 4.46 0 0 0-4.289 3.628l-5.669 30.12a4.533 4.533 0 0 0 .945 3.778 4.482 4.482 0 0 0 3.44 1.607h7.33a4.46 4.46 0 0 0 4.384-3.628l5.67-30.12c.536-2.751-1.58-5.308-4.385-5.291Zm0 4.459-5.669 30.12h-7.388l5.669-30.12h7.331" fill="#fff"/><path class="cls-4" d="M215.532 397.995a2.4 2.4 0 0 0 1.89-2.381c0-.51-.435-.775-1.304-.775l-.586 3.156Zm1.38 21.427a2.249 2.249 0 0 1-2.154-1.644 61.452 61.452 0 0 1-.775-7.558 5.076 5.076 0 0 0-.416-2.21l-1.89 9.447a2.211 2.211 0 0 1-2.191 1.89H202.4a2.25 2.25 0 0 1-1.72-.794 2.344 2.344 0 0 1-.472-1.89l5.669-29.552a2.193 2.193 0 0 1 1.663-1.739 39.47 39.47 0 0 1 8.56-.831 15.989 15.989 0 0 1 9.126 2.097 8.824 8.824 0 0 1 4.327 7.785 10.622 10.622 0 0 1-5.102 9.316 12.106 12.106 0 0 1 1.153 4.497c.094.926.189 1.89.264 3.005.09 1.685.286 3.365.586 5.026a2.32 2.32 0 0 1-.264 2.078 2.227 2.227 0 0 1-1.89.964Z" fill="#fff"/><path class="cls-4" d="M216.08 382.425c-3.04-.038-6.075.26-9.05.888a4.437 4.437 0 0 0-3.364 3.495l-5.669 29.553a4.441 4.441 0 0 0 4.365 5.291h7.2a4.439 4.439 0 0 0 3.665-1.89 4.459 4.459 0 0 0 3.666 1.89h7.426c3.06.008 5.217-2.999 4.233-5.895-.17-.7-.36-2.986-.473-4.498 0-1.039-.17-2.116-.264-3.08a16.668 16.668 0 0 0-.662-3.495 12.865 12.865 0 0 0 4.61-10.072c.08-3.949-1.97-7.637-5.366-9.655a18.733 18.733 0 0 0-10.317-2.457Zm-3.212 17.875h1.89a4.723 4.723 0 0 0 4.913-4.686c0-1.89-1.418-3.005-3.534-3.005-.633-.015-1.266.03-1.89.133l-1.379 7.558m3.212-13.416c2.752-.18 5.495.423 7.918 1.738a6.614 6.614 0 0 1 3.306 5.915 8.824 8.824 0 0 1-6.48 8.578v.133c1.605.812 2.286 2.588 2.55 5.328.138 2.891.467 5.77.983 8.617h-7.426a55.039 55.039 0 0 1-.718-7.067c-.17-3.44-1.153-4.365-3.25-4.365h-1.21l-2.154 11.337h-7.2l5.67-29.553a38.378 38.378 0 0 1 8.05-.756" fill="#fff"/><path class="cls-4" d="M227.928 419.422a2.25 2.25 0 0 1-1.72-.793 2.344 2.344 0 0 1-.472-1.89l5.669-30.12a2.229 2.229 0 0 1 2.192-1.89h17.27a2.266 2.266 0 0 1 1.72.813c.433.528.599 1.225.453 1.89l-1.247 6.254a2.23 2.23 0 0 1-2.192 1.796h-7.955l-.17.85h6.651a2.21 2.21 0 0 1 2.192 2.664l-1.209 6.179a2.23 2.23 0 0 1-2.173 1.795h-7.558l-.321 1.625h7.803a2.23 2.23 0 0 1 2.173 2.646l-1.114 6.405a2.248 2.248 0 0 1-2.192 1.89Z" fill="#fff"/><path class="cls-4" d="M250.867 391.532Zm0-8.918h-17.214a4.46 4.46 0 0 0-4.383 3.628l-5.67 30.12c-.536 2.75 1.58 5.307 4.385 5.29h17.78a4.439 4.439 0 0 0 4.365-3.609l1.19-6.16a4.4 4.4 0 0 0-1.096-4.025 4.576 4.576 0 0 0 1.116-2.192l1.21-6.16c.17-.869.077-1.77-.265-2.588a4.457 4.457 0 0 0 1.738-2.721l1.21-6.104a3.8 3.8 0 0 0 .132-1.02 4.46 4.46 0 0 0-4.46-4.46ZM250.867 387.13l-1.322 6.197h-9.732l-1.058 5.31h9.448l-1.19 6.179h-9.392l-1.19 6.084h10.506l-1.171 6.293h-17.838l5.669-30.12h17.27m0 0" fill="#fff"/><path class="cls-4" d="M263.527 396.445c.775-.151 1.512-.491 1.512-1.247 0-.189 0-.529-1.04-.529h-.131l-.34 1.776Zm-2.645 12.982c.964-.133 2.475-.53 2.475-1.89 0-.53 0-1.115-1.89-1.19l-.585 3.08Zm-3.099 10.109a43.103 43.103 0 0 1-8.012-.586 2.23 2.23 0 0 1-1.738-2.608l5.555-29.231c.16-.883.841-1.578 1.72-1.758a41.44 41.44 0 0 1 8.295-.774c3.023-.19 6.04.465 8.71 1.89a8.484 8.484 0 0 1 4.555 7.558 9.127 9.127 0 0 1-3.78 7.463 9.11 9.11 0 0 1 2.363 6.312 10.563 10.563 0 0 1-4.951 8.805c-2.929 2.003-6.991 2.948-12.755 2.948Z" fill="#fff"/><path class="cls-4" d="M263.603 382.425a44.704 44.704 0 0 0-8.749.812 4.497 4.497 0 0 0-3.42 3.534l-5.668 29.231a4.46 4.46 0 0 0 3.495 5.197c2.787.495 5.616.71 8.447.642 6.235 0 10.695-1.058 14.02-3.326a12.77 12.77 0 0 0 5.915-10.657 11.7 11.7 0 0 0-1.607-6.046c1.935-2.107 3.001-4.868 2.986-7.729a10.675 10.675 0 0 0-5.669-9.448 18.441 18.441 0 0 0-9.826-2.21Zm-3.401 29.269c2.948 0 5.46-1.417 5.46-4.157s-1.889-3.44-4.61-3.44h-1.341l-1.437 7.56c.63.039 1.26.039 1.89 0m.718-12.907h1.474c3.137 0 4.97-1.379 4.97-3.57 0-1.701-1.248-2.76-3.27-2.76a7.921 7.921 0 0 0-2.002.17l-1.172 6.16m2.778-11.885c2.62-.181 5.238.376 7.558 1.606a6.256 6.256 0 0 1 3.439 5.669 7.56 7.56 0 0 1-5.801 7.161v.133a6.483 6.483 0 0 1 4.422 6.48 8.372 8.372 0 0 1-3.987 6.973c-2.551 1.739-6.293 2.551-11.489 2.551a39.403 39.403 0 0 1-7.558-.548l5.536-29.288a38.963 38.963 0 0 1 7.823-.718" fill="#fff"/><path class="cls-4" d="M291.115 419.422a2.212 2.212 0 0 1-2.21-2.173l-.133-4.61h-3.42l-2.173 5.385a2.211 2.211 0 0 1-2.06 1.398h-7.558c-1.616.002-2.698-1.66-2.04-3.136l13.642-30.139a2.231 2.231 0 0 1 2.04-1.304h9.297a2.211 2.211 0 0 1 2.211 2.06l2.287 30.12a2.267 2.267 0 0 1-.586 1.7 2.234 2.234 0 0 1-1.644.7Z" fill="#fff"/><path class="cls-4" d="M296.368 382.614h-9.297a4.46 4.46 0 0 0-4.062 2.607l-13.643 30.139c-1.33 2.95.826 6.29 4.063 6.292h7.558a4.459 4.459 0 0 0 4.138-2.797l1.36-3.42v1.89a4.442 4.442 0 0 0 4.441 4.327h7.558a4.459 4.459 0 0 0 4.46-4.78l-2.287-30.234a4.46 4.46 0 0 0-4.44-4.119Zm-10.6 22.334h5.007l-.132-5.668c0-1.701 0-4.517-.133-6.482h-.094c-.756 1.89-1.644 4.838-2.362 6.482l-2.286 5.668m10.6-17.875 2.268 30.12h-7.559l-.17-6.784h-7.104l-2.721 6.784h-7.559l13.643-30.12h9.297" fill="#fff"/><path class="cls-4" d="M301.64 419.422a2.211 2.211 0 0 1-2.192-2.645l5.669-30.12a2.21 2.21 0 0 1 2.173-1.89h7.331a2.211 2.211 0 0 1 2.192 2.646l-4.006 21.088h7.313a2.211 2.211 0 0 1 1.72.812c.45.518.625 1.22.472 1.89l-1.19 6.386a2.248 2.248 0 0 1-2.192 1.89Z" fill="#fff"/><path class="cls-4" d="M314.678 391.532Zm0-8.918h-7.331a4.44 4.44 0 0 0-4.365 3.628l-5.67 30.12c-.536 2.75 1.58 5.307 4.385 5.29h17.346a4.44 4.44 0 0 0 4.365-3.628l1.19-6.236c.076-.32.114-.651.114-.982a4.46 4.46 0 0 0-4.46-4.46h-4.63l3.497-18.442c.536-2.75-1.58-5.307-4.384-5.29ZM314.66 387.073l-4.516 23.733h10.015l-1.19 6.387H301.62l5.669-30.12h7.331" fill="#fff"/><path class="cls-4" d="M322.369 419.422a2.25 2.25 0 0 1-1.72-.793 2.344 2.344 0 0 1-.472-1.89l5.668-30.12a2.229 2.229 0 0 1 2.192-1.89h7.332a2.211 2.211 0 0 1 2.192 2.646l-4.006 21.088h7.313c.665 0 1.296.298 1.719.812.442.524.616 1.221.472 1.89l-1.209 6.387a2.211 2.211 0 0 1-2.192 1.89Z" fill="#fff"/><path class="cls-4" d="M335.426 391.532Zm0-8.918h-7.332a4.46 4.46 0 0 0-4.384 3.628l-5.668 30.12a4.533 4.533 0 0 0 .944 3.778 4.482 4.482 0 0 0 3.44 1.607h17.346a4.44 4.44 0 0 0 4.251-3.723l1.172-6.236c.075-.32.113-.651.113-.982a4.46 4.46 0 0 0-4.46-4.46h-4.629l3.515-18.442c.536-2.75-1.58-5.307-4.384-5.29Zm0 4.459-4.517 23.733h10.015l-1.21 6.387H322.37l5.668-30.12h7.332" fill="#fff"/><path class="cls-11" fill="#ffb600" d="m167.33 417.646 5.82-30.649h17.591l-1.36 6.765h-9.656l-1.096 5.574h9.165l-1.266 6.67H177.4l-2.23 11.64h-7.842z"/><path class="cls-11" d="M190.968 386.733h-18.026v.416l-5.67 30.138-.113.586h8.352v-.397l2.098-11.167h9.126v-.397l1.172-6.179.113-.605h-9.089l1.002-5.064h9.656v-.396l1.379-6.255.113-.605Zm-.605.51-1.266 6.254h-9.58l-1.19 6.085h9.164l-1.171 6.179h-9.127l-2.23 11.62h-7.331l5.669-30.232h17.006M189.23 417.646l5.82-30.649h7.841l-5.82 30.65h-7.841z" fill="#ffb600"/><path class="cls-11" d="M203.194 386.733h-8.352v.416l-5.67 30.138-.112.586h8.351v-.397l5.67-30.139.113-.604Zm-.605.51-5.669 30.233h-7.388l5.669-30.233h7.331M214.833 400.224a4.459 4.459 0 0 0 4.667-4.44c0-1.663-1.284-2.74-3.287-2.74a13.04 13.04 0 0 0-1.739.094l-1.304 7.086Zm1.89 17.403v-.189a57.785 57.785 0 0 1-.718-7.104c-.17-3.496-1.19-4.158-3.005-4.158H212l-2.135 11.47h-7.766l5.668-30.006h.151a37.79 37.79 0 0 1 8.107-.775c2.808-.22 5.617.406 8.068 1.795a6.819 6.819 0 0 1 3.42 6.103 8.94 8.94 0 0 1-6.292 8.692c1.36.85 2.06 2.476 2.343 5.33 0 .906.189 1.889.265 2.966a32.15 32.15 0 0 0 .699 5.668l.15.34Z" fill="#ffb600"/><path class="cls-11" d="M214.682 393.365c.51-.034 1.02-.034 1.53 0 1.89 0 3.043.983 3.043 2.494a4.233 4.233 0 0 1-4.422 4.195h-1.36l1.21-6.613Zm1.398-6.802a38.323 38.323 0 0 0-8.106.85h-.321v.321l-5.669 29.553-.113.586h8.22v-.397l2.078-11.035h.794c1.7 0 2.588.605 2.758 3.893.085 2.407.331 4.805.737 7.18l.095.359h8.54l-.264-.68a32.479 32.479 0 0 1-.7-5.518c0-1.02-.17-2.06-.264-2.985a7.2 7.2 0 0 0-2.06-5.235 9.203 9.203 0 0 0 6.01-8.748 7.065 7.065 0 0 0-3.553-6.33 14.473 14.473 0 0 0-8.182-1.89Zm-3.212 13.907h1.89a4.705 4.705 0 0 0 4.913-4.686c0-1.89-1.418-2.986-3.534-2.986-.633-.015-1.266.03-1.89.133l-1.379 7.558m3.212-13.397a14.424 14.424 0 0 1 7.918 1.738 6.555 6.555 0 0 1 3.306 5.896 8.787 8.787 0 0 1-6.48 8.578v.151c1.605.794 2.286 2.59 2.55 5.31.14 2.897.467 5.782.983 8.636h-7.426a55.039 55.039 0 0 1-.718-7.067c-.17-3.44-1.153-4.384-3.25-4.384h-1.21L209.6 417.4h-7.2l5.67-29.552a38.378 38.378 0 0 1 8.05-.756M227.626 417.646l5.82-30.649h17.724l-1.36 6.765h-9.789l-.963 4.818h9.39l-1.322 6.67h-9.297l-1.096 5.575h10.506l-1.303 6.821h-18.31z" fill="#ffb600"/><path class="cls-11" d="M251.434 386.733h-18.196v.416l-5.669 30.138-.113.586h18.895v-.397l1.21-6.311.113-.586h-10.638l1.001-5.083h9.316v-.397l1.21-6.178.112-.605h-9.447l.869-4.308h9.788v-.397l1.55-6.198.113-.605Zm-.604.51-1.285 6.254h-9.732l-1.058 5.253h9.448l-1.19 6.16h-9.392l-1.19 6.085h10.506l-1.171 6.387h-17.838l5.669-30.233h17.27M262.3 398.75c2.947 0 4.704-1.247 4.704-3.325 0-1.569-1.152-2.532-3.004-2.532a9.732 9.732 0 0 0-1.89.132l-1.077 5.669Zm-3.78 12.868h1.625c2.589 0 5.196-1.209 5.196-3.892 0-2.154-1.417-3.193-4.346-3.193h-1.133l-1.342 7.048Zm-.794 6.236a40.347 40.347 0 0 1-7.558-.548h-.245l5.668-29.647h.17a40.38 40.38 0 0 1 7.88-.718 14.5 14.5 0 0 1 7.728 1.644 6.464 6.464 0 0 1 3.571 5.82 7.671 7.671 0 0 1-5.517 7.218 6.765 6.765 0 0 1 4.12 6.538 8.6 8.6 0 0 1-4.082 7.18c-2.551 1.757-6.368 2.607-11.64 2.607Z" fill="#ffb600"/><path class="cls-11" d="M260.126 404.778h.926c3.666 0 4.1 1.682 4.1 2.948 0 1.682-1.303 3.647-4.95 3.647h-1.323l1.247-6.576Zm2.306-11.564a8.363 8.363 0 0 1 1.568 0c1.72 0 2.759.85 2.759 2.268 0 1.89-1.663 3.06-4.46 3.06h-.869l1.002-5.233Zm1.171-6.651a40.958 40.958 0 0 0-7.936.718h-.321v.321l-5.612 29.326v.491l.49.095c2.499.414 5.029.599 7.56.548 5.328 0 9.182-.87 11.771-2.646a8.86 8.86 0 0 0 4.214-7.388 7.046 7.046 0 0 0-3.78-6.519 7.783 7.783 0 0 0 5.122-7.237 6.727 6.727 0 0 0-3.78-6.046 14.629 14.629 0 0 0-7.822-1.663Zm-3.401 25.414c2.948 0 5.46-1.436 5.46-4.157 0-2.72-1.889-3.439-4.61-3.439h-1.341l-1.437 7.559c.63.049 1.26.049 1.89 0m.624-12.925h1.473c3.137 0 4.97-1.38 4.97-3.571 0-1.7-1.247-2.778-3.269-2.778a7.01 7.01 0 0 0-2.003.189l-1.077 6.103m2.778-11.885c2.62-.19 5.241.367 7.558 1.606a6.256 6.256 0 0 1 3.439 5.669 7.556 7.556 0 0 1-5.801 7.142v.133a6.5 6.5 0 0 1 4.422 6.48 8.313 8.313 0 0 1-3.987 6.973c-2.551 1.758-6.293 2.551-11.489 2.551a41.49 41.49 0 0 1-7.558-.529l5.555-29.25c2.58-.486 5.198-.72 7.823-.7M290.51 404.873l-.132-5.461v-5.385l-.642 1.776c-.454 1.341-.945 2.74-1.36 3.779l-2.136 5.366Zm.322 12.754-.17-6.802h-6.69l-2.72 6.802h-8.22l13.87-30.63h9.693l2.324 30.65Z" fill="#ffb600"/><path class="cls-11" d="m286.505 404.627 2.003-5.045c.415-.945.907-2.343 1.379-3.685l.151-.453v3.987l.132 5.196Zm10.317-17.894h-10.09l-.133.302-13.624 30.139-.32.699h8.767l.113-.302 2.608-6.482h6.273l.17 6.293v.49h8.579v-.528l-2.287-30.233v-.473Zm-11.054 18.385h5.007l-.132-5.668c0-1.701 0-4.516-.133-6.482h-.094c-.756 1.89-1.644 4.819-2.362 6.482l-2.286 5.668m10.6-17.875 2.268 30.233h-7.559l-.17-6.802h-7.104l-2.721 6.802h-7.559l13.643-30.233h9.297M301.338 417.646l5.8-30.649H315l-4.516 23.752h10.015l-1.304 6.897h-17.856z" fill="#ffb600"/><path class="cls-11" d="M315.302 386.733h-8.371v.416l-5.669 30.138-.113.586h18.31v-.397l1.209-6.406.113-.585h-10.014l4.421-23.072.114-.605Zm-.624.51-4.516 23.733h10.015l-1.19 6.406H301.64l5.669-30.233h7.331M322.066 417.646l5.82-30.649h7.842l-4.516 23.752h10.015l-1.304 6.897h-17.857z" fill="#ffb600"/><path class="cls-11" d="M336.03 386.733h-8.352v.416l-5.668 30.138-.114.586h18.367v-.397l1.21-6.406.113-.585H331.57l4.346-23.072.113-.605Zm-.604.51-4.517 23.733h10.015l-1.21 6.406H322.37l5.668-30.233h7.332" fill="#ffb600"/><path class="cls-12" d="M362.692 410.088h.151-.094Zm14.682-5.669c-2.286.718-3.628.87-5.385-.718 2.18.144 4.35-.427 6.179-1.625 3.306-1.89 3.439-5.669 8.56-6.462-2.514-1.606-3.78-2.759-6.709-2.476a37.494 37.494 0 0 0 3.78-2.777 31.734 31.734 0 0 0 6.48-7.747c.456-.68.724-1.47.775-2.287-5.876 2.608-10.902 3.95-21.994 3.042 2.815-3.155 3.779-4.686 3.344-8.125-2.475 3.364-5.46 1.89-8.88 1.625a19.084 19.084 0 0 0-10.544 1.36 13.926 13.926 0 0 0-7.899 8.201v.227c-7.516 9.168-2.29 23.034 9.408 24.96.495.08.994.14 1.495.171 7.955 4.857 19.633-3.06 21.428-7.369Z" fill="#ffb600" fill-rule="evenodd"/><g class="cls-9" transform="matrix(1.88957 0 0 1.88957 87.042 133.531)" clip-path="url(#c)"><path class="cls-13" d="M145.88 146.36h.08-.05Zm7.77-3c-1.21.38-1.92.46-2.85-.38a5.33 5.33 0 0 0 3.27-.86c1.75-1 1.82-3 4.53-3.42-1.33-.85-2-1.46-3.55-1.31a19.92 19.92 0 0 0 2-1.47 16.79 16.79 0 0 0 3.43-4.1 2.45 2.45 0 0 0 .41-1.21c-3.11 1.38-5.77 2.09-11.64 1.61 1.49-1.67 2-2.48 1.77-4.3-1.31 1.78-2.89 1-4.7.86a10.1 10.1 0 0 0-5.58.72 7.37 7.37 0 0 0-4.18 4.34v.12a8.15 8.15 0 0 0 5.77 13.3c4.21 2.57 10.39-1.62 11.34-3.9Z" fill="none" stroke="#fdb927" stroke-miterlimit="10" stroke-width="1.17"/></g><path class="cls-14" d="M360.066 407.518h.113Zm11.507-3.78c-1.776.454-2.815.53-4.1-.774a7.777 7.777 0 0 0 4.818-1.001c2.627-1.304 2.872-4.157 6.84-4.61-1.89-1.342-2.777-2.268-5.064-2.193a27.817 27.817 0 0 0 3.061-1.89 24.571 24.571 0 0 0 5.291-5.668c.39-.5.626-1.105.68-1.738-4.61 1.757-8.54 2.588-17.006 1.455 2.287-2.306 3.137-3.44 2.91-6.123-2.04 2.495-4.27 1.304-6.897.907a14.75 14.75 0 0 0-8.163.586 10.786 10.786 0 0 0-6.405 6.009v.17c-6.145 6.759-2.668 17.635 6.256 19.578.369.08.739.142 1.113.187 5.914 4.062 15.117-1.568 16.76-4.8Z" fill="#ff9015" fill-rule="evenodd"/><path class="cls-15" d="M360.066 407.518h.113Zm11.507-3.78c-1.776.454-2.815.53-4.1-.774a7.777 7.777 0 0 0 4.818-1.001c2.627-1.304 2.872-4.157 6.84-4.61-1.89-1.342-2.777-2.268-5.064-2.193a27.817 27.817 0 0 0 3.061-1.89 24.571 24.571 0 0 0 5.291-5.668c.39-.5.626-1.105.68-1.738-4.61 1.757-8.54 2.588-17.006 1.455 2.287-2.306 3.137-3.44 2.91-6.123-2.04 2.495-4.27 1.304-6.897.907a14.75 14.75 0 0 0-8.163.586 10.786 10.786 0 0 0-6.405 6.009v.17c-6.145 6.759-2.668 17.635 6.256 19.578.369.08.739.142 1.113.187 5.914 4.062 15.117-1.568 16.76-4.8Z" fill="none" stroke="#f7901e" stroke-miterlimit="10" stroke-width=".2834355"/><path class="cls-16" d="M367.775 396.86c.015 9.15-9.88 14.885-17.811 10.322-7.933-4.562-7.95-16-.034-20.585a11.876 11.876 0 0 1 5.96-1.603c6.556 0 11.874 5.31 11.885 11.867Z" fill="#ff4d00" fill-rule="evenodd"/><path class="cls-8" d="M102.48 392.723h8.257c4.176 0 6.935 2.135 6.217 6.575a6.634 6.634 0 0 1-6.86 5.934h-3.325l-.832 5.404h-6.273Zm5.026 7.917h.642c1.134 0 2.4-.189 2.608-1.625.208-1.436-1.096-1.474-2.173-1.474h-.605ZM119.788 392.723h6.5l-1.89 12.15h5.461l-.888 5.668h-12.017ZM150.021 392.723l-1.682 10.581c-.831 5.234-4.478 7.559-9.448 7.559-4.97 0-7.936-2.381-7.104-7.559l1.7-10.581h6.463l-1.588 9.977c-.226 1.398-.359 2.626 1.38 2.626 1.738 0 1.89-1.228 2.173-2.626l1.587-9.977ZM152.137 404.211l.303.265a5.784 5.784 0 0 0 3.779 1.644c.642 0 1.7-.265 1.89-1.077.188-.813-.719-.87-1.304-1.002l-1.266-.226c-2.457-.454-4.365-1.89-3.912-4.762.662-4.233 4.913-6.614 8.806-6.614a9.448 9.448 0 0 1 5.423 1.569l-2.476 4.572a5.839 5.839 0 0 0-3.552-1.341c-.567 0-1.455.208-1.568.945-.114.737.68.755 1.19.869l1.398.34c2.646.623 4.403 2.097 3.93 5.14-.66 4.27-4.893 6.386-8.748 6.386a14.48 14.48 0 0 1-6.633-1.644Z" fill="#3f96b4"/></g></svg>