<svg viewBox="4.8 108.497 616.503 343.292" xmlns="http://www.w3.org/2000/svg"><defs><clipPath id="c"><path class="cls-1" fill="none" d="M40.72 121.56h125.36v28.09H40.72z"/></clipPath></defs><radialGradient id="a" cx="451.352" cy="280" r="170.701" gradientUnits="userSpaceOnUse"><stop offset=".535" stop-color="#fff"/><stop offset=".57" stop-color="#fef4eb"/><stop offset=".641" stop-color="#fcd9b9"/><stop offset=".74" stop-color="#f9ad68"/><stop offset=".809" stop-color="#f68c2c"/></radialGradient><radialGradient id="b" cx="453.562" cy="278.495" r="97.036" gradientUnits="userSpaceOnUse"><stop offset=".695" stop-color="#fff"/><stop offset=".785" stop-color="#fcfcfc"/><stop offset=".85" stop-color="#f3f3f3"/><stop offset=".906" stop-color="#e3e4e5"/><stop offset=".958" stop-color="#cdced0"/><stop offset="1" stop-color="#b5b7b9"/></radialGradient><path fill="url(#a)" d="M545.9 339.7c3 .2 6 .6 9 1.1 10.8 1.8 20.7 4.9 29.2 9.1 2.3 1.1 4.3 1.7 4.6 1.2.3-.5-1.3-1.9-3.4-3.3-8-5-16-11.7-23.2-19.9-2.5-2.8-4.7-5.6-6.8-8.5-3.5-4.9-.8-12.6 6.1-15.9 6.6-3.2 13.8-5.8 21.6-7.8 11.6-3 22.9-4.2 33.2-3.8 2.8.1 5-.2 5.1-.9.1-.6-2.1-1.4-4.9-1.7-10.2-1.4-21.1-4.6-32-9.6-6.2-2.8-11.9-6.1-17.1-9.6-6.3-4.3-8.1-11.3-4.3-14.6 2.3-1.9 4.6-3.8 7.2-5.6 8.9-6.4 18.1-11.2 27-14.2 2.4-.8 4.2-1.9 4.1-2.4-.2-.6-2.3-.5-4.7.1-9.2 2.1-19.5 3-30.5 2.4-3.7-.2-7.3-.6-10.8-1.2-5.9-.9-9.4-8.3-6.9-15.6 2.4-6.9 5.7-13.9 9.7-20.8 6.1-10.3 32.9-36.8 32.5-37.3-.4-.5-31.6 20.8-42.9 25-6.4 2.4-12.7 4.1-18.8 5.3-7.5 1.5-13.8-2.3-13.4-7.3.2-3 .6-6 1.1-9 1.8-10.8 4.9-20.7 9-29.2 1.1-2.3 1.7-4.3 1.2-4.6-.5-.3-1.9 1.3-3.3 3.4-5 8-11.7 16-19.9 23.2-2.8 2.5-5.6 4.7-8.5 6.8-4.9 3.5-12.6.8-15.9-6.1-3.2-6.6-5.8-13.8-7.8-21.6-3-11.6-4.2-22.9-3.8-33.2.1-2.8-.2-5-.9-5.1-.7-.1-1.4 2.1-1.7 4.9-1.5 10.2-4.6 21.1-9.6 32-2.8 6.2-6.1 11.9-9.6 17.1-4.3 6.3-11.3 8.1-14.6 4.3-1.9-2.3-3.8-4.7-5.6-7.2-6.4-8.9-11.2-18.1-14.2-27.1-.8-2.4-1.9-4.2-2.4-4.1-.6.2-.5 2.3.1 4.7 2.1 9.2 3 19.5 2.4 30.5-.2 3.7-.6 7.3-1.2 10.8-.9 5.9-8.3 9.4-15.6 6.9-6.9-2.4-13.9-5.7-20.8-9.7-10.3-6.1-19.2-13.2-26.2-20.7-1.9-2-3.7-3.4-4.2-3-.5.4.6 2.5 2.2 4.7 6.2 8.2 11.7 18.2 15.8 29.4 2.4 6.4 4.1 12.7 5.3 18.8 1.5 7.5-2.3 13.8-7.3 13.4-3-.2-6-.6-9-1.1-10.8-1.8-20.7-4.9-29.2-9.1-2.3-1.1-4.3-1.7-4.6-1.2-.3.5 1.3 1.9 3.4 3.3 8 5 16 11.7 23.2 19.9 2.5 2.8 4.7 5.6 6.8 8.5 3.5 4.9 16 27.7 9.1 31-6.6 3.2 4 5.6-3.8 7.6s-59.2-11.4-70.4-10.7c-5.1.3-5.1 1.3-.2 2.3 10.9 2.3 28.8 6.2 36.1 9.6 6.2 2.8 11.9 6.1 17.1 9.6 6.3 4.3 8.1 11.3 4.3 14.6-2.3 1.9-4.7 3.8-7.2 5.6-8.9 6.4-18.1 11.2-27 14.3-2.4.8-4.2 1.9-4.1 2.4.2.6 2.3.4 4.7-.1 9.2-2.1 19.5-3 30.5-2.4 3.7.2 7.3.6 10.8 1.2 5.9.9 9.4 8.3 6.9 15.6-2.4 6.9-5.7 13.9-9.7 20.8-6.1 10.3-13.2 19.2-20.7 26.2-2 1.9-3.4 3.7-3 4.2.4.5 2.5-.5 4.7-2.2 8.2-6.2 18.2-11.7 29.4-15.8 6.4-2.4 12.7-4.1 18.8-5.3 7.5-1.5 13.8 2.3 13.4 7.3-.2 3-.6 6-1.1 9-1.8 10.8-4.9 20.7-9 29.2-1.1 2.3-1.7 4.3-1.2 4.6.5.3 1.9-1.3 3.3-3.4 5-8 11.7-16 19.9-23.2 2.8-2.5 5.6-4.7 8.5-6.8 4.9-3.5 12.6-.8 15.9 6.1 3.2 6.6 5.8 13.8 7.8 21.6 2.1 8 3.1 28.5 3.6 40.5.2 5.1 1.1 5.2 2.1.2 2.5-11.8 6.9-31.8 10.3-39.3 2.8-6.2 6.1-11.9 9.6-17.1 4.3-6.3 11.3-8.1 14.6-4.3 1.9 2.3 3.8 4.6 5.6 7.2 6.4 8.9 11.2 18.1 14.2 27 .8 2.4 1.9 4.2 2.4 4.1.6-.2.4-2.3-.1-4.7-2.1-9.2-3-19.6-2.4-30.5.2-3.7.6-7.3 1.2-10.8.9-5.9 8.3-9.4 15.6-6.9 6.9 2.4 13.9 5.7 20.8 9.7 10.3 6.1 19.2 13.2 26.2 20.7 1.9 2 3.7 3.4 4.2 3 .5-.4-.5-2.5-2.2-4.7-6.2-8.2-11.7-18.2-15.8-29.4-2.4-6.4-4.1-12.7-5.3-18.8-1.3-7.7 2.4-14 7.4-13.6Z"/><circle fill="#FFF" cx="453.6" cy="278.5" r="104.7"/><circle fill="url(#b)" cx="453.6" cy="278.5" r="97"/><path d="M401.6 279.4s21.8 3.6 35.9 6c-2.6 11.7 5 18.8 19.6 20.7 13.3 1.7 22.8-1.5 23.8-9.2.7-5.4-2.6-9.4-11.1-12.7-7.5-2.5-17.2-4.1-28.3-4.7 0 0 .8-7.6 1.8-18.6 11.6 2.3 23.1 3.4 30.9 2.2 6.1-.9 10.7-3.7 11.4-9.1 1-8-6.3-13.4-18.9-15-14.5-1.9-22.7 3.7-23.6 14.2-21.7-3.6-35.1-5.1-35.1-5.1 1.9-24.7 24.7-37 61.7-32.3 31.6 4.1 52.7 19.9 50.1 40.3-1.6 12.3-13.3 19-26.4 20 14.2 4.3 23.7 14.3 22 27.8-3 23.5-30.2 30.3-61.3 26.3-36.6-4.5-58.5-22.1-52.5-50.8z"/><path fill="#FFF" d="M360.5 283.3c6.5-8.1 16.7-20.9 30.5-37.7l14.4-17.5-22.7-.6c-.1 0-11.6-.3-32.6-1.6l-5.9-.4-3.6 4.7c-.1.1-6.5 8.5-18.3 23.7 0-3.9 0-8 .1-12.3l.1-11.2-11.2.1H303c-4.7 0-12 0-19.9-.2l-11.2-.2v11c-11.1-9.5-26.5-14.8-44.7-14.8-20.9 0-37.9 6.7-49.5 18.6v-5.7l-.1-11-11 .1c-15.3.1-25 .1-28.1.1-3.6-10.5-10.3-19.1-19.9-25.5-13.6-8.9-33.4-13.5-58.8-13.5-13 0-27.8 1.2-45.3 3.6l-9.6 1.3.1 9.7c.5 72.2 0 134.8 0 135.4L4.8 351l11.4-.3c5.8-.1 13.7-.2 23.1-.2h12.5l11.2.1-.5-46.7c1.5.1 3 .1 4.5.1 26.8 0 47.1-6.6 59.7-18.9.2 32.3.2 54.4.2 54.7V351l11.2-.2c7.9-.1 15.4-.2 20.3-.2h8.8l11.2.1-.1-11.2V335c11.7 11.6 28.8 18.2 49.7 18.2 17.9 0 32.8-4.7 43.9-13.2v9.3l11.3-.3c.1 0 12.5-.3 28.5-.1l11.4.1-.3-11.4s-.1-4.6-.2-13.2c.3-.4.7-.8 1.1-1.3.3-.4.7-.8 1.1-1.3 4.9 8 10.5 17.2 16.3 26.8l3.6 6 7-.7c.1 0 9.9-1 31.4-1.4l19.8-.4-10.8-16.6c-.3-.2-13.9-21.3-31.6-52.2z"/><path d="M15.9 204.2c16.4-2.3 30.9-3.5 43.8-3.5 46.4 0 70.7 15.5 70.7 46.8 0 33.5-27.6 45.6-63.4 45.6-5.1 0-10.3-.3-15.7-.9l.5 47.4s-21.6-.2-36 .2c.1-.1.6-62.5.1-135.6zm34.9 62.4c5.4.7 10.3 1 14.8 1 19.9 0 30.4-6.5 30.4-21.3 0-12-8.2-19.9-31.2-19.9-4.2 0-8.9.3-14.1 1-.1 12.2-.1 20.4.1 39.2zm86.6-27s10.5 0 29.3-.1c0 0 .3 48 .7 100.2 0 0-14-.1-29.4.1-.1 0-.1-44.1-.6-100.2zm34.7 50.2c0-32.1 20.9-52.3 55.1-52.3 31.7 0 49 17.4 52.3 40.1-23.6 1.4-32 1.7-32 1.7-1.7-12.2-9.8-18.7-21-18.7-15.3 0-23.1 12.4-23.1 28.8 0 16.7 8.5 29.3 23.9 29.3 12 0 20.2-6.9 22.2-21.3 21 .7 32.1 1.6 32.1 1.6-2 27.1-21.9 43.4-53.6 43.4-32.8-.2-55.9-18.3-55.9-52.6zM326 303.2c-6.3 7.3-11.4 13.5-14.6 17.3.1 11.4.3 17.4.3 17.4-16.3-.1-28.8.1-28.8.1v-96.6c15.6.3 28.5.1 28.5.1-.1 17.2-.1 31.4-.1 44.3 24.8-31.3 38.2-48.9 38.2-48.9 21.5 1.3 33 1.6 33 1.6-17.9 21.6-29.8 36.8-35.3 43.7 19.9 35.2 35.5 59.2 35.5 59.2-22.3.4-32.3 1.4-32.3 1.4-10.8-17.9-19.2-31.4-24.4-39.6z" fill="#F68C2C"/><path class="cls-3" fill="#fff" d="m250.632 371.597 13.706 1.254-1.291 13.946-13.688-1.254 1.273-13.946z"/><g class="cls-7" transform="translate(6.911 119.63) scale(1.84469)" clip-path="url(#c)"><path class="cls-8" d="M147.17 146.63a7.35 7.35 0 0 1-3.53-.86 9.82 9.82 0 0 1-6.78-15.77 9.1 9.1 0 0 1 5-5.21 10.53 10.53 0 0 1 4.55-1 17.24 17.24 0 0 1 1.92.11c.4 0 .78.1 1.14.16a8.74 8.74 0 0 0 1.23.14 1.15 1.15 0 0 0 1.08-.58 1.51 1.51 0 0 1 1.21-.61 1.61 1.61 0 0 1 .37 0 1.5 1.5 0 0 1 1.11 1.25 5.36 5.36 0 0 1-.44 3.24h.54a17.22 17.22 0 0 0 7.89-1.67 1.41 1.41 0 0 1 .6-.13 1.47 1.47 0 0 1 .83.25 1.5 1.5 0 0 1 .67 1.27 3.91 3.91 0 0 1-.59 1.91 18.25 18.25 0 0 1-3.56 4.36l.61.39.49.32a1.5 1.5 0 0 1-.51 2.8 3 3 0 0 0-2.13 1.45 7.24 7.24 0 0 1-1.69 1.67 1.45 1.45 0 0 1-.1.74c-.95 2.28-5.38 5.73-9.89 5.73Z" fill="#fff" fill-rule="evenodd"/><path class="cls-3" d="M153 121.56a3 3 0 0 0-2.39 1.19 7.65 7.65 0 0 1-.89-.12c-.37-.06-.78-.13-1.23-.17a20.08 20.08 0 0 0-2.07-.12 12 12 0 0 0-5.17 1.1 10.56 10.56 0 0 0-5.73 5.84 11.31 11.31 0 0 0 7.66 17.94 8.83 8.83 0 0 0 4 .9 13.47 13.47 0 0 0 7-2.18c1-.62 3.39-2.29 4.3-4.46a2.49 2.49 0 0 0 .16-.53 9.58 9.58 0 0 0 1.42-1.53c.59-.73.67-.82 1.21-.91a3 3 0 0 0 1.55-5.13 18.91 18.91 0 0 0 2.51-3.39 5.38 5.38 0 0 0 .77-2.62 3 3 0 0 0-3-3 3 3 0 0 0-1.21.26 15.43 15.43 0 0 1-5.85 1.5 7.78 7.78 0 0 0-.05-1.91 3 3 0 0 0-2.23-2.5 3 3 0 0 0-.73-.09Zm-5.27 21.83h.05-.07m5.29-18.84c.25 1.86-.29 2.69-1.82 4.39 1.27.11 2.39.15 3.4.15a18.59 18.59 0 0 0 8.49-1.8 2.51 2.51 0 0 1-.41 1.25 17.28 17.28 0 0 1-3.51 4.18 19.24 19.24 0 0 1-2.06 1.5h.45c1.29 0 1.95.58 3.18 1.36-2.77.46-2.84 2.48-4.63 3.49a5.38 5.38 0 0 1-3.09.89h-.25a2.16 2.16 0 0 0 1.52.66 5 5 0 0 0 1.39-.27c-.76 1.8-4.75 4.8-8.51 4.8a5.8 5.8 0 0 1-3.07-.82 8.33 8.33 0 0 1-5.9-13.59.56.56 0 0 0 0-.12 7.6 7.6 0 0 1 4.27-4.44 9.12 9.12 0 0 1 3.93-.83c.58 0 1.16 0 1.77.1.9.09 1.74.32 2.52.32a2.63 2.63 0 0 0 2.29-1.2" fill="#fff"/></g><path class="cls-3" d="M229.086 374.567c-1.088 5.626 1.845 10.902 6.364 11.788 4.52.885 9.224-2.952 10.294-8.56 1.069-5.608-1.845-10.902-6.365-11.787-4.519-.886-9.223 2.951-10.293 8.559Z" fill="#fff"/><path class="cls-3" d="M229.252 365.676c-.849-4.299.443-8.172 2.859-8.652 2.417-.48 5.092 2.638 5.94 6.936.849 4.298-.443 8.172-2.878 8.652-2.435.479-5.091-2.62-5.921-6.936Z" fill="#fff"/><path class="cls-3" d="M247.367 366.008c1.439-4.133.701-8.154-1.642-8.966-2.343-.811-5.405 1.845-6.825 6.051-1.421 4.206-.701 8.154 1.642 8.965 2.342.812 5.386-1.845 6.825-6.05Z" fill="#fff"/><g class="cls-7" transform="translate(6.911 119.63) scale(1.84469)" clip-path="url(#c)"><path class="cls-3" d="M52.74 141.28a2.9 2.9 0 1 0-3.15 4.77 2.91 2.91 0 1 0 3.15-4.77Z" fill="#fff"/><path class="cls-3" d="M46.87 144.7c-1.77.65-2.84 2.2-2.38 3.46s2.28 1.76 4 1.11 2.84-2.2 2.38-3.46-2.27-1.76-4.05-1.11Z" fill="#fff"/><path class="cls-3" d="M55.11 144.7c1.77.65 2.84 2.2 2.37 3.46s-2.27 1.76-4 1.11-2.85-2.2-2.38-3.46 2.27-1.76 4-1.11ZM43.11 148.35a1.2 1.2 0 0 1-.92-.43 1.18 1.18 0 0 1-.25-1L45 130.77a1.18 1.18 0 0 1 1.17-1h9.16a1.22 1.22 0 0 1 .93.43 1.21 1.21 0 0 1 .25 1l-.68 3.35a1.2 1.2 0 0 1-1.17 1h-4.2l-.17.87h3.46a1.17 1.17 0 0 1 .92.43 1.2 1.2 0 0 1 .26 1l-.63 3.31a1.2 1.2 0 0 1-1.17 1h-3.9l-1 5.26a1.19 1.19 0 0 1-1.18 1Z" fill="#fff"/><path class="cls-3" d="M55.34 133.38Zm0-4.78h-9.16a2.4 2.4 0 0 0-2.35 2l-3.07 16.16a2.4 2.4 0 0 0 2.35 2.84H47a2.38 2.38 0 0 0 2.35-1.94l.83-4.3h2.92a2.4 2.4 0 0 0 2.35-1.95l.61-3.23a2.87 2.87 0 0 0 0-.52 2.36 2.36 0 0 0-.31-1.18 2.36 2.36 0 0 0 1.25-1.66l.67-3.36a2.4 2.4 0 0 0-2.35-2.86ZM55.34 131l-.67 3.36h-5.18l-.65 3.26h4.92l-.62 3.31h-4.9L47 147.16h-3.89L46.18 131h9.16" fill="#fff"/></g><path class="cls-3" d="M108.111 393.291a2.216 2.216 0 0 1-1.697-.794 2.176 2.176 0 0 1-.461-1.844l5.663-29.811a2.176 2.176 0 0 1 2.158-1.844h7.25a2.195 2.195 0 0 1 1.715.793c.421.515.591 1.192.462 1.845l-5.608 29.865a2.214 2.214 0 0 1-2.177 1.845Z" fill="#fff"/><path class="cls-3" d="M121.042 365.676Zm0-8.818h-7.268a4.427 4.427 0 0 0-4.335 3.689l-5.663 29.811a4.427 4.427 0 0 0 4.335 5.238h7.268a4.409 4.409 0 0 0 4.317-3.689l5.663-29.81a4.408 4.408 0 0 0-4.317-5.239Zm0 4.409-5.663 29.828h-7.268l5.663-29.81h7.268" fill="#fff"/><path class="cls-3" d="M133.863 372.077a2.399 2.399 0 0 0 1.955-2.362c0-.498-.442-.756-1.291-.756h-.092l-.572 3.118Zm1.365 21.214a2.196 2.196 0 0 1-2.121-1.642 60.492 60.492 0 0 1-.794-7.379 4.648 4.648 0 0 0-.405-2.177l-1.845 9.445a2.195 2.195 0 0 1-2.158 1.845h-7.047a2.196 2.196 0 0 1-1.697-.793 2.25 2.25 0 0 1-.48-1.845l5.534-29.238c.177-.855.83-1.53 1.679-1.734a39.282 39.282 0 0 1 8.467-.812 15.988 15.988 0 0 1 9.057 1.992 8.72 8.72 0 0 1 4.28 7.711 10.53 10.53 0 0 1-5.054 9.223 12.127 12.127 0 0 1 1.162 4.446c.092.904.166 1.937.258 2.97.068 1.671.258 3.337.572 4.981a2.301 2.301 0 0 1-.258 2.047 2.214 2.214 0 0 1-1.845.96Z" fill="#fff"/><path class="cls-3" d="M134.398 356.673a41.905 41.905 0 0 0-8.984.886 4.39 4.39 0 0 0-3.32 3.468l-5.534 29.238a4.387 4.387 0 0 0 .922 3.69 4.433 4.433 0 0 0 3.413 1.605h7.12a4.45 4.45 0 0 0 3.69-1.845 4.394 4.394 0 0 0 3.689 1.845h7.379c3.064.02 5.207-3.026 4.15-5.903-.166-.701-.35-2.952-.461-4.465-.092-1.033-.166-2.084-.276-3.043a15.614 15.614 0 0 0-.923-3.524 12.684 12.684 0 0 0 4.575-9.961 10.831 10.831 0 0 0-5.313-9.556 18.455 18.455 0 0 0-10.201-2.435Zm-3.191 17.691h1.937a4.666 4.666 0 0 0 4.87-4.649c0-1.844-1.402-2.951-3.487-2.951a10.31 10.31 0 0 0-1.955.129l-1.365 7.471m3.191-13.263a14.268 14.268 0 0 1 7.821 1.715 6.53 6.53 0 0 1 3.284 5.848 8.707 8.707 0 0 1-6.42 8.486v.129c1.587.811 2.251 2.582 2.528 5.275.125 2.865.446 5.719.959 8.541h-7.379a55.18 55.18 0 0 1-.701-6.991c-.184-3.413-1.162-4.335-3.228-4.335h-1.199l-2.121 11.326h-7.084l5.534-29.256a38.27 38.27 0 0 1 7.969-.738" fill="#fff"/><path class="cls-3" d="M146.112 393.291a2.196 2.196 0 0 1-1.697-.794 2.247 2.247 0 0 1-.48-1.844l5.663-29.811a2.195 2.195 0 0 1 2.177-1.844h17.026a2.25 2.25 0 0 1 1.716.793c.417.516.579 1.195.443 1.845l-1.236 6.179a2.213 2.213 0 0 1-2.159 1.845h-7.876l-.185.849h6.604a2.194 2.194 0 0 1 2.158 2.619l-1.18 6.106a2.232 2.232 0 0 1-2.177 1.845h-7.379l-.332 1.605h7.711a2.195 2.195 0 0 1 1.697.793c.423.514.598 1.19.48 1.845l-1.199 6.235a2.194 2.194 0 0 1-2.177 1.844Z" fill="#fff"/><path class="cls-3" d="M168.801 365.676Zm0-8.818h-17.026a4.408 4.408 0 0 0-4.335 3.689l-5.663 29.811a4.426 4.426 0 0 0 4.335 5.238h17.598a4.407 4.407 0 0 0 4.335-3.578l1.181-6.088c.064-.323.103-.649.11-.977a4.437 4.437 0 0 0-1.199-3.026c.574-.608.96-1.37 1.107-2.195l1.199-6.106a4.42 4.42 0 0 0-.258-2.546 4.519 4.519 0 0 0 1.716-2.693l1.199-6.05c.081-.332.125-.674.129-1.015a4.41 4.41 0 0 0-4.428-4.409Zm0 4.427-1.236 6.198h-9.684l-1.07 5.258h9.223l-1.199 6.106h-9.223l-1.125 6.013h10.385l-1.162 6.235h-17.598l5.663-29.81h17.026m0 0" fill="#fff"/><path class="cls-3" d="M181.345 370.509c.757-.148 1.495-.48 1.495-1.218 0-.184 0-.535-1.033-.535h-.13l-.332 1.845Zm-2.545 12.912c.959-.11 2.435-.516 2.435-1.844 0-.535 0-1.107-1.845-1.199l-.59 3.043Zm-3.136 10.091a43.262 43.262 0 0 1-7.932-.572 2.232 2.232 0 0 1-1.716-2.582l5.534-28.925a2.214 2.214 0 0 1 1.716-1.753 41.56 41.56 0 0 1 8.208-.756 16.008 16.008 0 0 1 8.615 1.845 8.413 8.413 0 0 1 4.52 7.378 9.107 9.107 0 0 1-3.69 7.379 9.098 9.098 0 0 1 2.325 6.235 10.46 10.46 0 0 1-4.889 8.726c-2.896 1.992-6.917 2.914-12.618 2.914Z" fill="#fff"/><path class="cls-3" d="M181.419 356.673a43.434 43.434 0 0 0-8.67.812 4.43 4.43 0 0 0-3.413 3.487l-5.534 28.943a4.427 4.427 0 0 0 3.45 5.146c2.765.475 5.569.685 8.375.628 6.161 0 10.57-1.052 13.853-3.302a12.653 12.653 0 0 0 5.867-10.552 11.71 11.71 0 0 0-1.587-5.977 11.233 11.233 0 0 0 2.952-7.637 10.554 10.554 0 0 0-5.534-9.352 18.448 18.448 0 0 0-9.722-2.196Zm-3.376 28.981c2.933 0 5.405-1.421 5.405-4.114 0-2.693-1.844-3.413-4.556-3.413h-1.328l-1.421 7.379c.613.079 1.229.109 1.845.092m.627-12.783h1.458c3.099 0 4.906-1.384 4.906-3.542 0-1.679-1.236-2.749-3.228-2.749a7.22 7.22 0 0 0-1.992.185l-1.144 6.106m2.749-11.77a13.696 13.696 0 0 1 7.508 1.587 6.176 6.176 0 0 1 3.412 5.534 7.378 7.378 0 0 1-5.755 7.065v.148a6.4 6.4 0 0 1 4.39 6.401 8.32 8.32 0 0 1-3.947 6.917c-2.528 1.716-6.235 2.509-11.364 2.509a41.721 41.721 0 0 1-7.489-.516l5.534-28.944a39.341 39.341 0 0 1 7.748-.701" fill="#fff"/><path class="cls-3" d="M208.61 393.291a2.176 2.176 0 0 1-2.195-2.14l-.129-4.575h-3.395l-2.139 5.331a2.177 2.177 0 0 1-2.048 1.384h-7.563c-1.611.014-2.688-1.655-2.011-3.118l13.503-29.81a2.16 2.16 0 0 1 1.992-1.291h9.224a2.211 2.211 0 0 1 2.213 2.029l2.251 29.828a2.215 2.215 0 0 1-2.195 2.362Z" fill="#fff"/><path class="cls-3" d="M213.83 356.858h-9.223a4.391 4.391 0 0 0-4.003 2.582l-13.503 29.811c-1.306 2.92.823 6.22 4.021 6.235h7.637a4.406 4.406 0 0 0 4.095-2.767l1.347-3.376v1.845a4.427 4.427 0 0 0 4.409 4.298h7.489a4.429 4.429 0 0 0 4.391-4.741l-2.251-29.829a4.427 4.427 0 0 0-4.409-4.077Zm-10.477 22.136h4.962l-.148-5.663c0-1.697 0-4.483-.129-6.42-.738 1.937-1.623 4.778-2.343 6.42l-2.25 5.663m10.478-17.709 2.269 29.829h-7.49l-.166-6.733h-7.047l-2.73 6.714h-7.563l13.429-29.81h9.224" fill="#fff"/><path class="cls-3" d="M219.051 393.291a2.215 2.215 0 0 1-1.697-.794 2.176 2.176 0 0 1-.461-1.844l5.663-29.811a2.176 2.176 0 0 1 2.158-1.844h7.25a2.198 2.198 0 0 1 1.697.793c.426.513.601 1.19.479 1.845l-4.021 20.918h7.379a2.215 2.215 0 0 1 2.177 2.62l-1.2 6.327a2.21 2.21 0 0 1-2.158 1.845Z" fill="#fff"/><path class="cls-3" d="M231.964 365.676Zm0-8.818h-7.25a4.409 4.409 0 0 0-4.335 3.689l-5.663 29.811a4.427 4.427 0 0 0 4.335 5.238h17.174a4.425 4.425 0 0 0 4.335-3.689l1.162-6.18c.074-.313.113-.636.111-.959a4.409 4.409 0 0 0-4.409-4.409h-4.593l3.468-18.262a4.387 4.387 0 0 0-.923-3.69 4.429 4.429 0 0 0-3.412-1.604Zm0 4.427-4.464 23.502h9.998l-1.181 6.327h-17.266l5.663-29.829h7.25" fill="#fff"/><path class="cls-3" d="M239.582 393.291a2.197 2.197 0 0 1-1.697-.794 2.25 2.25 0 0 1-.479-1.844l5.626-29.792a2.196 2.196 0 0 1 2.177-1.845h7.249c.655 0 1.277.292 1.697.793.428.511.6 1.192.462 1.845l-3.967 20.864h7.25c.655 0 1.277.291 1.697.793a2.27 2.27 0 0 1 .48 1.844l-1.199 6.328a2.213 2.213 0 0 1-2.177 1.844Z" fill="#fff"/><path class="cls-3" d="M252.495 365.676Zm0-8.818h-7.25a4.41 4.41 0 0 0-4.335 3.689l-5.663 29.811a4.427 4.427 0 0 0 4.335 5.238h17.156a4.407 4.407 0 0 0 4.335-3.689l1.181-6.18c.059-.315.09-.636.092-.959a4.409 4.409 0 0 0-4.409-4.409h-4.575l3.468-18.262a4.427 4.427 0 0 0-4.335-5.239ZM252.495 361.267l-4.464 23.501h9.906l-1.199 6.327h-17.156l5.663-29.81h7.25" fill="#fff"/><path class="cls-9" fill="#ffb600" d="m86.141 391.52 5.755-30.327h17.414l-1.347 6.696h-9.555l-1.088 5.516h9.057l-1.236 6.604h-9.039l-2.195 11.511h-7.766z"/><path class="cls-9" d="M109.605 360.953H91.767v.406l-5.811 29.81-.129.59h8.283v-.405l2.14-11.068h9.02v-.406l1.162-6.106.111-.591h-8.928l.996-5.017h9.555v-.406l1.236-6.198.111-.59Zm-.608.498-1.236 6.198h-9.556l-1.199 6.014h9.076l-1.144 6.069h-9.039l-2.287 11.529h-7.176l5.663-29.81h16.898M107.816 391.52l5.755-30.327h7.767l-5.756 30.327h-7.766z" fill="#ffb600"/><path class="cls-9" d="M121.633 360.953h-8.265v.406l-5.737 29.81-.129.59h8.246v-.405l5.663-29.811.111-.59Zm-.591.498-5.663 29.81h-7.268l5.663-29.81h7.268M133.144 374.29a4.408 4.408 0 0 0 4.63-4.39c0-1.66-1.273-2.712-3.247-2.712a10.821 10.821 0 0 0-1.734.092l-1.291 7.01Zm1.844 17.23v-.185a56.823 56.823 0 0 1-.719-7.047c-.166-3.449-1.181-4.095-2.97-4.095h-.996l-2.122 11.327h-7.637l5.663-29.7h.167a37.793 37.793 0 0 1 8.024-.756 14.099 14.099 0 0 1 7.969 1.752 6.79 6.79 0 0 1 3.376 6.051 8.835 8.835 0 0 1-6.217 8.596c1.347.849 2.048 2.454 2.324 5.276 0 .904.167 1.845.259 2.933.061 1.863.295 3.715.701 5.534l.129.351Z" fill="#ffb600"/><path class="cls-9" d="M132.996 367.502h1.531c1.845 0 2.988.977 2.988 2.472a4.167 4.167 0 0 1-4.371 4.15h-1.347l1.199-6.548Zm1.402-6.733a37.038 37.038 0 0 0-8.08.774h-.313v.314l-5.535 29.238-.11.591h8.135v-.406l2.011-10.847h.793c1.679 0 2.564.609 2.73 3.874a53.79 53.79 0 0 0 .719 7.084v.368h8.468l-.277-.682a32.496 32.496 0 0 1-.683-5.534c0-.996-.166-2.029-.258-2.933a7.154 7.154 0 0 0-2.048-5.184 9.225 9.225 0 0 0 5.959-8.67 6.97 6.97 0 0 0-3.524-6.253 14.07 14.07 0 0 0-8.079-1.845Zm-3.191 13.78h1.937a4.666 4.666 0 0 0 4.87-4.649c0-1.845-1.402-2.97-3.487-2.97a12.187 12.187 0 0 0-1.955.129l-1.365 7.49m3.191-13.282a14.293 14.293 0 0 1 7.821 1.734 6.506 6.506 0 0 1 3.284 5.829 8.76 8.76 0 0 1-6.42 8.504v.129c1.587.793 2.251 2.564 2.528 5.258.125 2.864.446 5.718.959 8.54h-7.379a54.456 54.456 0 0 1-.701-6.991c-.184-3.394-1.162-4.335-3.228-4.335h-1.199l-2.121 11.326h-7.084l5.534-29.238a38.15 38.15 0 0 1 7.969-.756M145.817 391.52l5.755-30.327h17.543l-1.347 6.696h-9.684l-.959 4.76h9.278l-1.291 6.622h-9.205l-1.088 5.516h10.404l-1.292 6.733h-18.114z" fill="#ffb600"/><path class="cls-9" d="M169.41 360.953h-18.041v.406l-5.755 29.81-.111.59h18.631v-.405l1.199-6.235.111-.591h-10.33l1.014-5.017h9.224v-.406l1.199-6.106.111-.59h-9.224l.867-4.262h9.685v-.405l1.236-6.199.11-.59Zm-.609.498-1.236 6.198h-9.684l-1.07 5.258h9.223l-1.199 6.106h-9.223l-1.125 6.013h10.385l-1.162 6.235h-17.598l5.663-29.81h17.026M180.128 372.796c2.914 0 4.667-1.236 4.667-3.302 0-1.531-1.144-2.49-2.988-2.49a8.33 8.33 0 0 0-1.845.129l-1.07 5.663Zm-3.69 12.728c.535.032 1.07.032 1.605 0 2.564 0 5.147-1.199 5.147-3.873 0-2.122-1.402-3.155-4.298-3.155h-1.125l-1.329 6.973Zm-.774 6.162c-2.52.055-5.04-.124-7.527-.535h-.239l5.534-29.349h.166a40.37 40.37 0 0 1 7.803-.701 14.11 14.11 0 0 1 7.637 1.623 6.367 6.367 0 0 1 3.542 5.737 7.598 7.598 0 0 1-5.535 7.157 6.678 6.678 0 0 1 4.059 6.475 8.522 8.522 0 0 1-4.04 7.102c-2.527 1.734-6.291 2.564-11.511 2.564Z" fill="#ffb600"/><path class="cls-9" d="M177.97 378.81h.922c3.689 0 4.058 1.66 4.058 2.896 0 1.679-1.291 3.689-4.907 3.689h-1.309l1.236-6.493Zm2.342-11.456a8.36 8.36 0 0 1 1.55 0c1.715 0 2.73.83 2.73 2.232 0 1.845-1.642 3.044-4.409 3.044h-.867l.996-5.184Zm1.162-6.585a39.556 39.556 0 0 0-7.858.719h-.314v.314l-5.534 28.943v.48l.48.11c2.505.412 5.043.591 7.582.535 5.276 0 9.076-.848 11.64-2.619a8.761 8.761 0 0 0 4.169-7.379 6.972 6.972 0 0 0-3.69-6.456 7.729 7.729 0 0 0 5.055-7.176 6.589 6.589 0 0 0-3.69-5.959 14.36 14.36 0 0 0-7.747-1.66Zm-3.431 25.051c2.933 0 5.405-1.402 5.405-4.114 0-2.712-1.844-3.394-4.556-3.394h-1.328l-1.421 7.378c.613.08 1.229.109 1.845.093m.627-12.784h1.458c3.099 0 4.906-1.365 4.906-3.542 0-1.679-1.236-2.73-3.228-2.73a8.226 8.226 0 0 0-1.992.166l-1.144 6.106m2.804-11.714a13.69 13.69 0 0 1 7.508 1.605 6.165 6.165 0 0 1 3.413 5.534 7.38 7.38 0 0 1-5.756 7.084v.129a6.42 6.42 0 0 1 4.391 6.419 8.285 8.285 0 0 1-3.948 6.9c-2.527 1.734-6.235 2.527-11.363 2.527a39.646 39.646 0 0 1-7.49-.535l5.534-28.925a39.132 39.132 0 0 1 7.748-.719M207.983 378.902l-.129-5.423V368.166a30.166 30.166 0 0 0-.628 1.845c-.461 1.328-.94 2.711-1.346 3.689l-2.122 5.313Zm.313 12.618-.184-6.733h-6.623l-2.693 6.733h-8.117l13.799-30.235h9.592l2.288 30.327Z" fill="#ffb600"/><path class="cls-9" d="m204.09 378.644 1.974-4.981c.424-.941.904-2.324 1.365-3.689 0-.148 0-.295.148-.461v3.966l.129 5.128Zm10.202-17.691h-9.999l-.129.295-13.503 29.811-.314.7h8.67l.13-.313 2.582-6.401h6.254l.166 6.235v.479h8.504v-.534l-2.269-29.811v-.461Zm-10.939 18.189h4.962l-.148-5.663c0-1.679 0-4.465-.129-6.42-.738 1.955-1.623 4.778-2.343 6.42l-2.25 5.663m10.478-17.691 2.269 29.81h-7.49l-.166-6.714h-7.047l-2.73 6.714h-7.563l13.485-29.81h9.223M218.756 391.52l5.755-30.327h7.766l-4.482 23.501h9.924l-1.291 6.826h-17.672z" fill="#ffb600"/><path class="cls-9" d="M232.572 360.953h-8.264v.406l-5.663 29.81-.111.59h18.189v-.405l1.199-6.328.111-.59h-9.906l4.353-22.893.111-.59Zm-.608.498-4.464 23.483h9.998l-1.181 6.327h-17.266l5.663-29.81h7.25M239.269 391.52l5.774-30.327h7.747l-4.464 23.501h9.906l-1.291 6.826h-17.672z" fill="#ffb600"/><path class="cls-9" d="M253.104 360.953h-8.227v.406l-5.664 29.81-.11.59h18.188v-.405l1.199-6.328.111-.59h-10.035l4.372-22.893.111-.59Zm-.609.498-4.464 23.483h9.906l-1.199 6.327h-17.156l5.663-29.81h7.25" fill="#ffb600"/><path class="cls-10" d="M279.483 384.03h.129-.092Zm14.518-5.626c-2.251.719-3.597.867-5.313-.701a10.095 10.095 0 0 0 6.106-1.623c3.283-1.845 3.394-5.534 8.467-6.383-2.49-1.586-3.689-2.73-6.641-2.453a38.143 38.143 0 0 0 3.69-2.749 31.349 31.349 0 0 0 6.419-7.674 4.643 4.643 0 0 0 .756-2.269c-5.81 2.583-10.791 3.911-21.767 3.025 2.786-3.117 3.782-4.63 3.32-8.043-2.453 3.339-5.404 1.956-8.799 1.624a18.762 18.762 0 0 0-10.422 1.328 13.855 13.855 0 0 0-7.822 8.117v.221c-7.438 9.07-2.267 22.791 9.307 24.697.492.081.987.136 1.485.169 7.877 4.815 19.424-3.025 21.195-7.286Z" fill="#ffb600" fill-rule="evenodd"/><g class="cls-7" transform="translate(6.911 119.63) scale(1.84469)" clip-path="url(#c)"><path class="cls-11" d="M147.76 143.33h.07-.05Zm7.87-3.05c-1.22.39-1.95.47-2.88-.38a5.47 5.47 0 0 0 3.31-.88c1.78-1 1.84-3 4.59-3.46-1.35-.86-2-1.48-3.6-1.33a20.51 20.51 0 0 0 2-1.49 17 17 0 0 0 3.48-4.16 2.53 2.53 0 0 0 .41-1.23c-3.15 1.4-5.85 2.12-11.8 1.64 1.51-1.69 2.05-2.51 1.8-4.36-1.33 1.81-2.93 1.06-4.77.88a10.17 10.17 0 0 0-5.65.72 7.51 7.51 0 0 0-4.24 4.4v.12a8.26 8.26 0 0 0 5.85 13.48c4.27 2.61 10.53-1.64 11.49-3.95Z" fill="none" stroke="#fdb927" stroke-miterlimit="10" stroke-width="1.19"/></g><path class="cls-12" d="M276.882 381.577h.111-.111Zm11.4-3.69c-1.845.443-2.804.517-4.077-.774a7.831 7.831 0 0 0 4.778-.978c2.583-1.291 2.841-4.132 6.77-4.575-1.845-1.328-2.748-2.25-5.017-2.158a28.642 28.642 0 0 0 3.025-1.956A24.156 24.156 0 0 0 299 361.82c.38-.498.616-1.092.682-1.715-4.574 1.734-8.448 2.564-16.86 1.42 2.269-2.269 3.099-3.394 2.878-6.051-2.011 2.472-4.225 1.292-6.826.886a14.49 14.49 0 0 0-8.08.609 10.698 10.698 0 0 0-6.327 5.921.637.637 0 0 0 0 .185c-6.084 6.674-2.66 17.432 6.161 19.363.373.081.748.146 1.126.19 5.866 4.022 15.052-1.549 16.602-4.741Z" fill="#ff9015" fill-rule="evenodd"/><path class="cls-13" d="M276.882 381.577h.111-.111Zm11.4-3.69c-1.845.443-2.804.517-4.077-.774a7.831 7.831 0 0 0 4.778-.978c2.583-1.291 2.841-4.132 6.77-4.575-1.845-1.328-2.748-2.25-5.017-2.158a28.642 28.642 0 0 0 3.025-1.956A24.156 24.156 0 0 0 299 361.82c.38-.498.616-1.092.682-1.715-4.574 1.734-8.448 2.564-16.86 1.42 2.269-2.269 3.099-3.394 2.878-6.051-2.011 2.472-4.225 1.292-6.826.886a14.49 14.49 0 0 0-8.08.609 10.698 10.698 0 0 0-6.327 5.921.637.637 0 0 0 0 .185c-6.084 6.674-2.66 17.432 6.161 19.363.373.081.748.146 1.126.19 5.866 4.022 15.052-1.549 16.602-4.741Z" fill="none" stroke="#ff9015" stroke-miterlimit="10"/><path class="cls-14" d="M284.501 370.859c0 9.047-9.792 14.699-17.627 10.177-7.834-4.523-7.834-15.831 0-20.354a11.76 11.76 0 0 1 5.876-1.574c6.489 0 11.751 5.262 11.751 11.751Z" fill="#ff4d00" fill-rule="evenodd"/><path class="cls-6" d="M21.945 366.967h8.099c4.113 0 6.825 2.103 6.124 6.475a6.548 6.548 0 0 1-6.752 5.847h-3.265l-.793 5.295H19.16Zm4.926 7.877h.627c1.125 0 2.361-.185 2.583-1.605.221-1.421-1.089-1.458-2.14-1.458h-.609ZM38.954 366.967h6.401l-1.845 11.972h5.368l-.885 5.645H36.187ZM68.708 366.967l-1.66 10.422c-.811 5.147-4.39 7.471-9.315 7.471-4.926 0-7.804-2.324-6.992-7.471l1.66-10.422h6.401l-1.568 9.814c-.202 1.383-.35 2.601 1.366 2.601 1.715 0 1.936-1.218 2.139-2.601l1.568-9.814ZM70.793 378.275l.314.258a5.722 5.722 0 0 0 3.689 1.623c.646 0 1.66-.258 1.845-1.051.184-.793-.701-.867-1.292-.996l-1.236-.222c-2.435-.442-4.298-1.844-3.855-4.685.664-4.169 4.833-6.512 8.67-6.512a9.227 9.227 0 0 1 5.331 1.55l-2.435 4.501a5.761 5.761 0 0 0-3.505-1.328c-.553 0-1.42.202-1.531.94-.11.738.664.738 1.162.849l1.384.332c2.601.609 4.335 2.066 3.874 5.054-.664 4.206-4.815 6.272-8.615 6.272a14.333 14.333 0 0 1-6.53-1.605Z" fill="#f88d2a"/></svg>