<svg viewBox="4 82.097 618.003 343.492" xmlns="http://www.w3.org/2000/svg"><defs><clipPath id="c"><path class="cls-1" fill="none" d="M39.63 126.08h121.35v27.19H39.63z"/></clipPath></defs><radialGradient id="a" cx="451.856" cy="306.157" r="170.948" gradientTransform="matrix(1 0 0 -1 0 560)" gradientUnits="userSpaceOnUse"><stop offset=".54" stop-color="#fff"/><stop offset=".571" stop-color="#ebf6f5"/><stop offset=".635" stop-color="#b9dfda"/><stop offset=".726" stop-color="#68bab1"/><stop offset=".803" stop-color="#1e988a"/></radialGradient><radialGradient id="b" cx="453.998" cy="307.5" r="97.3" gradientTransform="matrix(1 0 0 -1 0 560)" gradientUnits="userSpaceOnUse"><stop offset=".695" stop-color="#fff"/><stop offset=".785" stop-color="#fcfcfc"/><stop offset=".85" stop-color="#f3f3f3"/><stop offset=".906" stop-color="#e3e4e5"/><stop offset=".958" stop-color="#cdced0"/><stop offset="1" stop-color="#b5b7b9"/></radialGradient><path fill="url(#a)" d="M546.5 313.8c3 .2 6 .6 9 1.1 10.8 1.8 20.8 5 29.3 9.1 2.3 1.1 4.3 1.7 4.6 1.2.3-.5-1.3-1.9-3.4-3.3-8-5-16-11.7-23.3-19.9-2.5-2.8-4.7-5.6-6.8-8.5-3.5-4.9-.8-12.6 6.1-15.9 6.6-3.2 13.9-5.8 21.7-7.9 11.6-3 22.9-4.2 33.2-3.8 2.8.1 5-.2 5.1-.9.1-.6-2.1-1.4-4.9-1.7-10.2-1.5-21.2-4.6-32-9.6-6.2-2.8-11.9-6.1-17.1-9.6-6.4-4.3-8.1-11.4-4.3-14.6 2.3-1.9 4.7-3.8 7.2-5.6 8.9-6.4 18.2-11.2 27.1-14.3 2.4-.8 4.2-1.9 4.1-2.4-.2-.6-2.3-.5-4.7.1-9.2 2.1-19.6 3-30.5 2.4-3.7-.2-7.3-.6-10.8-1.2-5.9-.9-9.4-8.4-6.9-15.6 2.4-6.9 5.7-13.9 9.8-20.9 6.1-10.3 33-36.9 32.6-37.4-.4-.5-31.7 20.9-43 25-6.4 2.4-12.7 4.1-18.9 5.3-7.5 1.5-13.8-2.3-13.4-7.3.2-3 .6-6 1.1-9 1.8-10.8 5-20.8 9.1-29.3 1.1-2.3 1.7-4.3 1.2-4.6-.5-.3-1.9 1.3-3.3 3.4-5 8-11.7 16-19.9 23.3-2.8 2.5-5.6 4.7-8.5 6.8-4.9 3.5-12.6.8-15.9-6.1-3.2-6.6-5.8-13.9-7.9-21.7-3-11.6-4.2-22.9-3.8-33.2.1-2.8-.2-5-.9-5.1-.7-.1-1.4 2.1-1.7 4.9-1.5 10.2-4.6 21.2-9.6 32-2.8 6.2-6.1 11.9-9.6 17.1-4.3 6.4-11.4 8.1-14.6 4.3-1.9-2.3-3.8-4.7-5.6-7.2-6.4-8.9-11.2-18.2-14.3-27.1-.8-2.4-1.9-4.2-2.4-4.1-.6.2-.5 2.3.1 4.7 2.1 9.2 3.1 19.6 2.4 30.5-.2 3.7-.6 7.3-1.2 10.8-.9 5.9-8.4 9.5-15.6 6.9-6.9-2.4-13.9-5.7-20.9-9.8-10.3-6.1-19.2-13.2-26.2-20.8-1.9-2-3.7-3.4-4.2-3-.5.4.6 2.5 2.2 4.7 6.2 8.2 11.7 18.2 15.9 29.5 2.4 6.4 4.1 12.7 5.3 18.9 1.5 7.5-2.3 13.8-7.3 13.4-3-.2-6-.6-9-1.1-10.8-1.8-20.8-5-29.3-9.1-2.3-1.1-4.3-1.7-4.6-1.2-.3.5 1.3 1.9 3.4 3.3 8 5 16 11.7 23.3 19.9 2.5 2.8 4.7 5.6 6.8 8.5 3.5 4.9 16.1 27.7 9.2 31-6.6 3.2 4 5.6-3.8 7.6s-59.4-11.5-70.6-10.8c-5.1.3-5.2 1.3-.2 2.3 11 2.3 28.9 6.2 36.2 9.6 6.2 2.8 11.9 6.1 17.1 9.6 6.4 4.3 8.1 11.4 4.3 14.6-2.3 1.9-4.7 3.8-7.2 5.6-8.9 6.4-18.2 11.2-27.1 14.3-2.4.8-4.2 1.9-4.1 2.4.2.6 2.3.4 4.7-.1 9.2-2.1 19.6-3.1 30.5-2.4 3.7.2 7.3.6 10.8 1.2 5.9.9 9.5 8.4 6.9 15.6-2.4 6.9-5.7 13.9-9.8 20.9-6.1 10.3-13.2 19.2-20.8 26.2-2 1.9-3.4 3.7-3 4.2.4.5 2.5-.5 4.7-2.2 8.2-6.2 18.2-11.7 29.5-15.8 6.4-2.4 12.7-4.1 18.9-5.3 7.5-1.5 13.8 2.3 13.4 7.3-.2 3-.6 6-1.1 9-1.8 10.8-4.9 20.8-9.1 29.3-1.1 2.3-1.7 4.3-1.2 4.6.5.3 1.9-1.3 3.3-3.4 5-8 11.7-16 19.9-23.3 2.8-2.5 5.6-4.7 8.5-6.8 4.9-3.5 12.6-.8 15.9 6.1 3.2 6.6 5.8 13.9 7.9 21.7 2.1 8 3.1 28.6 3.6 40.6.2 5.1 1.1 5.2 2.1.2 2.5-11.8 6.9-31.9 10.4-39.4 2.8-6.2 6.1-11.9 9.6-17.1 4.3-6.4 11.4-8.1 14.6-4.3 1.9 2.3 3.8 4.7 5.6 7.2 6.4 8.9 11.2 18.2 14.3 27.1.8 2.4 1.9 4.2 2.4 4.1.6-.2.4-2.3-.1-4.7-2.1-9.2-3-19.6-2.4-30.5.2-3.7.6-7.3 1.2-10.8.9-5.9 8.4-9.4 15.6-6.9 6.9 2.4 13.9 5.7 20.9 9.8 10.3 6.1 19.2 13.2 26.2 20.8 1.9 2 3.7 3.4 4.2 3 .5-.4-.5-2.5-2.2-4.7-6.2-8.3-11.7-18.2-15.8-29.5-2.4-6.4-4.1-12.7-5.3-18.9-1.6-7.4 2.1-13.7 7.1-13.3Z"/><circle fill="#FFF" cx="454" cy="252.5" r="105"/><circle fill="url(#b)" cx="454" cy="252.5" r="97.3"/><path d="M465.3 285.9c-19.4-2.3-43.3-5.2-70.2-8.2 0 0 .6-7.3 2.8-24.6 38.1-36.9 60.4-59.4 60.4-59.4 33.7 5.4 48.9 7.1 48.9 7.1-3.7 27.7-6.5 48.1-8.5 65.3 0 0 5.9.8 14.7 1.6 0 0-1.4 10-3.2 24.1l-14.5-1.9c-1.5 12.7-2.1 19.2-2.1 19.2-20.2-2-31.1-3.8-31.1-3.8.9-6.8 1.8-13.1 2.8-19.4zm3.2-23.7c2.9-21.2 5-37.4 6.2-47.3-20.5 20.3-35.4 35.6-42.3 42.7l36.1 4.6z"/><path fill="#FFF" d="M360.7 257.3c6.5-8.1 16.8-21 30.6-37.7l14.5-17.5-22.7-.6c-.1 0-11.7-.3-32.7-1.6l-5.9-.4-3.6 4.7c-.1.1-6.5 8.5-18.4 23.7 0-3.9 0-8 .1-12.3l.1-11.3-11.3.1c-.1 0-12.9.1-28.3-.1l-11.3-.2v11.1c-11.1-9.6-26.5-14.9-44.9-14.9-21 0-38 6.8-49.6 18.8v-5.7l-.1-11.1-11.1.1c-15.2.1-25 .1-28.1.1-11.2-33.5-52.7-39-79-39-13 0-27.9 1.2-45.4 3.6L4 168.4l.1 9.7c.5 72.4 0 135.1 0 135.7v11.4l11.4-.3c5.8-.1 13.7-.2 23.1-.2h12.6l11.3.1L62 278c1.6.1 3.1.1 4.6.1 26.9 0 47.2-6.7 59.8-19 .2 32.4.2 54.5.2 54.8v11.3l11.3-.2c15.3-.3 29.1-.1 29.2-.1l11.3.1-.1-11.3v-4.6c11.7 11.7 28.8 18.3 49.8 18.3 17.9 0 32.9-4.8 44-13.3v9.4l11.3-.3c.1 0 12.5-.3 28.5-.1l11.4.1-.3-11.4s-.1-4.6-.2-13.3c.3-.4.7-.8 1.1-1.3.3-.4.7-.8 1.1-1.3 4.9 8 10.5 17.2 16.3 26.8l3.6 6 7-.7c.1 0 10-1 31.5-1.4l19.8-.4-10.8-16.7c-.3-.1-13.9-21.1-31.7-52.2z"/><path d="M15.3 178c16.4-2.3 31-3.5 43.9-3.5 46.5 0 70.8 15.6 70.8 46.9 0 33.6-27.6 45.7-63.5 45.7-5.1 0-10.3-.3-15.7-.9l.5 47.5s-21.7-.2-36 .2c0 0 .5-62.6 0-135.9zm35 62.6c5.4.7 10.3 1.1 14.9 1.1 19.9 0 30.4-6.5 30.4-21.3 0-12.1-8.2-19.9-31.3-19.9-4.2 0-8.9.3-14.2 1.1 0 11.9 0 20.1.2 39zm86.8-27.1s10.5 0 29.3-.1c0 0 .3 48.1.7 100.4 0 0-14-.1-29.5.1 0 0 0-44.2-.5-100.4zm34.8 50.3c0-32.2 20.9-52.4 55.2-52.4 31.8 0 49.1 17.5 52.4 40.2-23.7 1.4-32.1 1.7-32.1 1.7-1.7-12.3-9.8-18.8-21.1-18.8-15.3 0-23.1 12.4-23.1 28.9 0 16.8 8.5 29.3 24 29.3 12 0 20.2-6.9 22.2-21.4 21.1.7 32.2 1.6 32.2 1.6-2 27.2-22 43.5-53.7 43.5-32.9 0-56-18.2-56-52.6zm154.3 13.4c-6.4 7.4-11.4 13.6-14.6 17.3.1 11.4.3 17.5.3 17.5-16.3-.1-28.9.1-28.9.1v-96.8c15.6.3 28.6.1 28.6.1-.1 17.2-.1 31.5-.1 44.4 24.8-31.4 38.3-49 38.3-49 21.5 1.3 33.1 1.6 33.1 1.6-17.9 21.7-29.9 36.8-35.4 43.8 19.9 35.3 35.5 59.4 35.5 59.4-22.4.4-32.4 1.4-32.4 1.4-10.9-18-19.2-31.5-24.4-39.8z" fill="#1E988A"/><path class="cls-3" fill="#fff" d="m251.568 345.564 13.843 1.271-1.29 14.092-13.843-1.27 1.29-14.093z"/><g class="cls-7" transform="matrix(1.92525 0 0 1.92525 4.943 74.817)" clip-path="url(#c)"><path class="cls-8" d="M142.68 150.35a7.12 7.12 0 0 1-3.42-.83 9.5 9.5 0 0 1-6.56-15.26 8.76 8.76 0 0 1 4.86-5 10.16 10.16 0 0 1 4.4-.93c.56 0 1.15 0 1.87.1.39 0 .75.1 1.09.16a8.41 8.41 0 0 0 1.19.14 1.13 1.13 0 0 0 1.06-.57 1.45 1.45 0 0 1 1.16-.59 1.49 1.49 0 0 1 .36 0 1.44 1.44 0 0 1 1.08 1.2 5.15 5.15 0 0 1-.43 3.15h.52a16.61 16.61 0 0 0 7.64-1.62 1.52 1.52 0 0 1 .59-.12 1.45 1.45 0 0 1 1.44 1.47 3.68 3.68 0 0 1-.56 1.85 18 18 0 0 1-3.45 4.22l.59.38.47.31a1.44 1.44 0 0 1 .64 1.51 1.46 1.46 0 0 1-1.18 1.14 2.92 2.92 0 0 0-2.06 1.4 7.14 7.14 0 0 1-1.63 1.62 1.49 1.49 0 0 1-.11.72c-.92 2.2-5.21 5.54-9.56 5.54Z" fill="#fff" fill-rule="evenodd"/><path class="cls-3" d="M148.33 126.08a2.89 2.89 0 0 0-2.31 1.16 7.26 7.26 0 0 1-.86-.12c-.35-.06-.75-.12-1.19-.17-.76-.07-1.4-.11-2-.11a11.72 11.72 0 0 0-5 1.06 10.28 10.28 0 0 0-5.55 5.66 11 11 0 0 0 7.42 17.37 8.7 8.7 0 0 0 3.85.87 13.09 13.09 0 0 0 6.74-2.11c1-.6 3.28-2.22 4.16-4.32a3.13 3.13 0 0 0 .16-.52 9.87 9.87 0 0 0 1.37-1.47c.57-.72.65-.8 1.17-.89a2.89 2.89 0 0 0 1.5-5 18.4 18.4 0 0 0 2.44-3.28 5.15 5.15 0 0 0 .75-2.54 2.89 2.89 0 0 0-1.3-2.46 2.89 2.89 0 0 0-2.77-.23 14.9 14.9 0 0 1-5.66 1.45 8.36 8.36 0 0 0-.05-1.85 2.9 2.9 0 0 0-2.15-2.42 3 3 0 0 0-.72-.09Zm-5.1 21.14h.05-.07m5.1-18.24c.25 1.8-.28 2.6-1.76 4.25 1.23.1 2.32.15 3.29.15a18.13 18.13 0 0 0 8.23-1.75 2.48 2.48 0 0 1-.4 1.21 16.85 16.85 0 0 1-3.4 4 18.11 18.11 0 0 1-2 1.45h.44c1.25 0 1.89.56 3.08 1.32-2.69.45-2.75 2.4-4.48 3.38a5.3 5.3 0 0 1-3 .85h-.25a2.11 2.11 0 0 0 1.48.65 4.74 4.74 0 0 0 1.34-.27c-.73 1.75-4.59 4.65-8.23 4.65a5.56 5.56 0 0 1-3-.8A8.06 8.06 0 0 1 134 135s0-.08 0-.12a7.32 7.32 0 0 1 4.13-4.29 8.7 8.7 0 0 1 3.8-.8 17 17 0 0 1 1.72.09c.87.09 1.68.31 2.43.31a2.55 2.55 0 0 0 2.22-1.16" fill="#fff"/></g><path class="cls-3" d="M229.794 348.587c-1.079 5.775 1.79 10.993 6.449 11.898 4.659.904 9.299-2.985 10.397-8.664 1.097-5.68-1.791-11.012-6.431-11.898-4.64-.886-9.318 2.984-10.415 8.664Z" fill="#fff"/><path class="cls-3" d="M229.967 339.596c-.847-4.351.443-8.26 2.907-8.741 2.464-.481 5.121 2.657 5.988 6.989.866 4.331-.443 8.259-2.908 8.74-2.464.482-5.14-2.637-5.987-6.988Z" fill="#fff"/><path class="cls-3" d="M248.276 339.923c1.444-4.178.712-8.24-1.656-9.049-2.368-.808-5.448 1.925-6.892 6.103s-.712 8.24 1.656 9.049c2.368.809 5.448-1.925 6.892-6.103Z" fill="#fff"/><g class="cls-7" transform="matrix(1.92525 0 0 1.92525 4.943 74.817)" clip-path="url(#c)"><path class="cls-3" d="M51.27 145.17a2.81 2.81 0 1 0-3.05 4.62 2.81 2.81 0 1 0 3.05-4.62Z" fill="#fff"/><path class="cls-3" d="M45.58 148.49c-1.71.63-2.75 2.13-2.3 3.35s2.2 1.69 3.92 1.06 2.75-2.12 2.3-3.34-2.2-1.7-3.92-1.07Z" fill="#fff"/><path class="cls-3" d="M53.55 148.49c1.72.63 2.75 2.13 2.31 3.35s-2.21 1.69-3.92 1.06-2.75-2.12-2.31-3.34 2.2-1.7 3.92-1.07ZM41.94 152a1.16 1.16 0 0 1-1.14-1.37l3-15.65a1.15 1.15 0 0 1 1.13-.94h8.87a1.15 1.15 0 0 1 1.14 1.38l-.65 3.25a1.17 1.17 0 0 1-1.14.93h-4.08l-.17.84h3.35a1.17 1.17 0 0 1 .89.42 1.19 1.19 0 0 1 .25 1l-.61 3.2a1.15 1.15 0 0 1-1.13.94h-3.78l-1 5.1a1.17 1.17 0 0 1-1.14.94Z" fill="#fff"/><path class="cls-3" d="M53.78 137.53Zm0-4.63h-8.87a2.31 2.31 0 0 0-2.27 1.88l-3 15.65a2.32 2.32 0 0 0 2.27 2.75h3.81A2.31 2.31 0 0 0 48 151.3l.8-4.16h2.83a2.3 2.3 0 0 0 2.27-1.89l.59-3.12a2.1 2.1 0 0 0 .06-.51 2.34 2.34 0 0 0-.3-1.14 2.29 2.29 0 0 0 1.13-1.56l.65-3.25a2.32 2.32 0 0 0-2.27-2.77ZM53.78 135.21l-.65 3.25h-5l-.63 3.16h4.76l-.6 3.21h-4.75l-1.16 6h-3.81l3-15.65h8.87" fill="#fff"/></g><path class="cls-3" d="M107.598 367.454a2.211 2.211 0 0 1-1.733-.809 2.154 2.154 0 0 1-.462-1.829l5.776-30.13a2.216 2.216 0 0 1 2.195-1.81h7.277a2.22 2.22 0 0 1 1.713.809c.457.53.63 1.248.463 1.925l-5.776 30.131a2.232 2.232 0 0 1-2.195 1.809Z" fill="#fff"/><path class="cls-3" d="M120.651 339.596Zm0-8.914h-7.335a4.466 4.466 0 0 0-4.409 3.619l-5.776 30.13a4.448 4.448 0 0 0 .944 3.678 4.481 4.481 0 0 0 3.446 1.617h7.316a4.464 4.464 0 0 0 4.389-3.639l5.776-30.111a4.469 4.469 0 0 0-4.37-5.294Zm0 4.447-5.776 30.13h-7.316l5.776-30.13h7.316" fill="#fff"/><path class="cls-3" d="M133.608 346.064a2.406 2.406 0 0 0 1.925-2.387c0-.52-.443-.77-1.29-.77h-.096l-.578 3.157Zm1.386 21.39a2.209 2.209 0 0 1-2.156-1.656 59.259 59.259 0 0 1-.789-7.508 4.79 4.79 0 0 0-.405-2.195l-1.79 9.626a2.252 2.252 0 0 1-2.195 1.81h-7.201a2.206 2.206 0 0 1-1.713-.809 2.262 2.262 0 0 1-.481-1.829l5.641-29.552a2.212 2.212 0 0 1 1.675-1.752 39.937 39.937 0 0 1 8.567-.828 16.067 16.067 0 0 1 9.106 2.098 8.82 8.82 0 0 1 4.332 7.701 10.627 10.627 0 0 1-5.102 9.319 11.935 11.935 0 0 1 1.156 4.505c0 .905.173 1.925.269 3.003.077 1.687.27 3.366.578 5.025.25.687.156 1.454-.251 2.06a2.262 2.262 0 0 1-1.829.982Z" fill="#fff"/><path class="cls-3" d="M134.147 330.508a42.344 42.344 0 0 0-9.068.867 4.467 4.467 0 0 0-3.369 3.504l-5.622 29.552a4.466 4.466 0 0 0 4.37 5.295h7.201a4.43 4.43 0 0 0 3.658-1.925 4.496 4.496 0 0 0 3.677 1.925h7.412c3.085-.006 5.233-3.063 4.197-5.968-.173-.694-.346-2.985-.481-4.506 0-1.039-.173-2.117-.269-3.08a16.458 16.458 0 0 0-.655-3.504 12.828 12.828 0 0 0 4.621-10.069 10.921 10.921 0 0 0-5.372-9.626 18.687 18.687 0 0 0-10.3-2.445Zm-3.234 17.867h1.925a4.715 4.715 0 0 0 4.948-4.698c0-1.925-1.425-3.003-3.523-3.003a12.055 12.055 0 0 0-1.926.135l-1.386 7.566m3.235-13.477a14.313 14.313 0 0 1 7.893 1.752 6.57 6.57 0 0 1 3.312 5.891 8.84 8.84 0 0 1-6.469 8.587v.135c1.598.808 2.271 2.599 2.541 5.313.137 2.894.464 5.776.982 8.625h-7.451a51.168 51.168 0 0 1-.712-7.065c-.193-3.427-1.175-4.371-3.273-4.371h-1.213l-2.137 11.436h-7.201l5.641-29.533a37.507 37.507 0 0 1 8.048-.77" fill="#fff"/><path class="cls-3" d="M145.987 367.454a2.208 2.208 0 0 1-1.732-.809 2.151 2.151 0 0 1-.462-1.829l5.775-30.13a2.217 2.217 0 0 1 2.195-1.81h17.212a2.215 2.215 0 0 1 2.175 2.657l-1.251 6.257a2.233 2.233 0 0 1-2.176 1.791h-8.028l-.173.866h6.661a2.183 2.183 0 0 1 1.714.809c.444.537.622 1.244.481 1.925l-1.213 6.161a2.232 2.232 0 0 1-2.195 1.81h-7.47l-.308 1.617h7.701c.663 0 1.292.296 1.714.808a2.29 2.29 0 0 1 .481 1.926l-1.213 6.295a2.211 2.211 0 0 1-2.175 1.81Z" fill="#fff"/><path class="cls-3" d="M168.917 339.596Zm0-8.914h-17.212a4.466 4.466 0 0 0-4.293 3.619l-5.776 30.13a4.448 4.448 0 0 0 .944 3.678 4.481 4.481 0 0 0 3.446 1.617h17.751a4.446 4.446 0 0 0 4.37-3.62l1.174-6.16c.079-.32.118-.651.116-.982a4.488 4.488 0 0 0-1.194-3.042 4.682 4.682 0 0 0 1.117-2.176l1.194-6.18a4.407 4.407 0 0 0-.27-2.58 4.444 4.444 0 0 0 1.752-2.714l1.213-6.103c.079-.341.117-.69.115-1.04a4.447 4.447 0 0 0-4.447-4.447ZM168.917 335.129l-1.251 6.257h-9.8l-1.078 5.333h9.395l-1.213 6.161h-9.299l-1.193 6.084h10.492l-1.193 6.295h-17.79l5.776-30.13h17.212m0 0" fill="#fff"/><path class="cls-3" d="M181.585 344.505c.751-.135 1.502-.481 1.502-1.232 0-.193 0-.539-1.04-.539h-.134l-.328 1.771Zm-2.58 12.976c.963-.115 2.465-.52 2.465-1.925 0-.539 0-1.117-1.925-1.213l-.597 3.08Zm-3.176 10.185a42.458 42.458 0 0 1-8.009-.578 2.233 2.233 0 0 1-1.733-2.599l5.545-29.225a2.254 2.254 0 0 1 1.732-1.771 40.588 40.588 0 0 1 8.279-.771c3.023-.188 6.04.48 8.702 1.926a8.495 8.495 0 0 1 4.563 7.527 9.2 9.2 0 0 1-3.735 7.47 9.11 9.11 0 0 1 2.445 6.257 10.608 10.608 0 0 1-4.948 8.818c-2.926 1.925-6.969 2.927-12.745 2.927Z" fill="#fff"/><path class="cls-3" d="M181.643 330.508a44.472 44.472 0 0 0-8.76.809 4.45 4.45 0 0 0-3.446 3.523l-5.545 29.245a4.447 4.447 0 0 0 3.485 5.179c2.79.485 5.62.699 8.452.635 6.238 0 10.685-1.059 14.016-3.331a12.744 12.744 0 0 0 5.91-10.666 11.674 11.674 0 0 0-1.598-6.045 11.32 11.32 0 0 0 2.984-7.701 10.647 10.647 0 0 0-5.775-9.453 18.457 18.457 0 0 0-9.819-2.195Zm-3.427 29.245c2.965 0 5.468-1.444 5.468-4.159 0-2.714-1.925-3.446-4.602-3.446h-1.347l-1.444 7.605c.641.054 1.284.054 1.925 0m.635-12.918h1.483c3.119 0 4.948-1.387 4.948-3.581 0-1.695-1.252-2.773-3.254-2.773a8.23 8.23 0 0 0-1.925.173l-1.155 6.181m2.772-11.899a13.879 13.879 0 0 1 7.701 1.618 6.223 6.223 0 0 1 3.427 5.583 7.488 7.488 0 0 1-5.776 7.143v.134a6.472 6.472 0 0 1 4.236 6.488 8.396 8.396 0 0 1-3.985 6.97c-2.561 1.752-6.315 2.56-11.552 2.56a40.239 40.239 0 0 1-7.547-.539l5.545-29.244a40.039 40.039 0 0 1 7.816-.713" fill="#fff"/><path class="cls-3" d="M209.136 367.454a2.213 2.213 0 0 1-2.234-2.176l-.134-4.62h-3.427l-2.157 5.391a2.231 2.231 0 0 1-2.06 1.405h-7.701a2.213 2.213 0 0 1-1.925-3.138l13.631-30.13a2.217 2.217 0 0 1 2.041-1.31h9.279a2.237 2.237 0 0 1 2.234 2.06l2.271 30.131a2.157 2.157 0 0 1-.577 1.675 2.208 2.208 0 0 1-1.637.712Z" fill="#fff"/><path class="cls-3" d="M214.392 330.682h-9.222a4.45 4.45 0 0 0-4.063 2.618l-13.63 30.13a4.403 4.403 0 0 0 .308 4.255 4.46 4.46 0 0 0 3.735 2.041h7.701a4.447 4.447 0 0 0 4.12-2.811l1.367-3.408v1.925a4.466 4.466 0 0 0 4.466 4.352h7.547a4.447 4.447 0 0 0 4.447-4.794l-2.329-30.265a4.447 4.447 0 0 0-4.447-4.12Zm-10.589 22.333h5.005l-.134-5.776c0-1.694 0-4.524-.135-6.488-.77 1.925-1.656 4.832-2.368 6.488l-2.291 5.776m10.589-17.886 2.252 30.13h-7.547l-.192-6.796h-7.105l-2.714 6.796h-7.701l13.708-30.13h9.279" fill="#fff"/><path class="cls-3" d="M219.667 367.454a2.232 2.232 0 0 1-2.195-2.638l5.776-30.13a2.216 2.216 0 0 1 2.175-1.81h7.336a2.184 2.184 0 0 1 1.713.809c.452.531.63 1.244.481 1.925l-4.023 21.178h7.335c.658 0 1.284.289 1.713.789.449.534.62 1.248.462 1.926l-1.193 6.392a2.251 2.251 0 0 1-2.195 1.809Z" fill="#fff"/><path class="cls-3" d="M232.72 339.596Zm0-8.914h-7.335a4.45 4.45 0 0 0-4.371 3.619l-5.775 30.13a4.465 4.465 0 0 0 4.37 5.295h17.327a4.465 4.465 0 0 0 4.39-3.639l1.174-6.238a5.196 5.196 0 0 0 0-.982 4.43 4.43 0 0 0-4.447-4.447h-4.64l3.523-18.444a4.524 4.524 0 0 0-.962-3.677 4.457 4.457 0 0 0-3.427-1.617ZM232.72 335.129l-4.447 23.738h10.011l-1.213 6.392h-17.327l5.776-30.13h7.335" fill="#fff"/><path class="cls-3" d="M240.402 367.454a2.208 2.208 0 0 1-1.714-.809 2.154 2.154 0 0 1-.462-1.829l5.776-30.13a2.216 2.216 0 0 1 2.176-1.81h7.335a2.184 2.184 0 0 1 1.713.809c.453.531.63 1.244.482 1.925l-4.005 21.178h7.316c.658 0 1.284.289 1.713.789.445.538.622 1.244.482 1.926l-1.213 6.392a2.232 2.232 0 0 1-2.195 1.809Z" fill="#fff"/><path class="cls-3" d="M253.455 339.596Zm0-8.914h-7.335a4.45 4.45 0 0 0-4.371 3.619l-5.775 30.13a4.465 4.465 0 0 0 4.37 5.295h17.327a4.465 4.465 0 0 0 4.39-3.639l1.174-6.238c.071-.321.104-.65.097-.982a4.43 4.43 0 0 0-4.448-4.447h-4.64l3.524-18.444a4.456 4.456 0 0 0-.944-3.677 4.497 4.497 0 0 0-3.446-1.617ZM253.455 335.129l-4.505 23.738h10.011l-1.213 6.392h-17.327l5.776-30.13h7.335" fill="#fff"/><path class="cls-9" fill="#ffb600" d="m85.38 365.702 5.834-30.631h17.577l-1.347 6.758h-9.646l-1.116 5.564h9.164l-1.252 6.681h-9.125l-2.234 11.628H85.38z"/><path class="cls-9" d="M109.1 334.821H91.002v.404l-5.776 30.13-.115.597h8.394v-.423l2.156-11.205h9.107v-.405l1.174-6.18.116-.596H96.99l1.001-5.064h9.626v-.404l1.251-6.257.116-.597Zm-.617.501-1.251 6.257h-9.626l-1.213 6.064h9.164l-1.155 6.18h-9.145l-2.233 11.552h-7.336l5.776-30.13h17.077M107.29 365.702l5.814-30.631h7.836l-5.814 30.631h-7.836z" fill="#ffb600"/><path class="cls-9" d="M121.248 334.821h-8.356v.404l-5.776 30.13-.115.597h8.356v-.423l5.775-30.111.116-.597Zm-.597.501-5.776 30.13h-7.316l5.776-30.13h7.316M132.896 348.298a4.449 4.449 0 0 0 4.659-4.448c0-1.655-1.29-2.733-3.273-2.733a10.366 10.366 0 0 0-1.752.096l-1.309 7.085Zm1.925 17.327v-.193a57.1 57.1 0 0 1-.732-7.123c-.173-3.465-1.193-4.139-3.003-4.139h-1.001l-2.137 11.551h-7.701l5.775-30.014h.174a38.223 38.223 0 0 1 8.105-.771 14.22 14.22 0 0 1 8.048 1.791 6.82 6.82 0 0 1 3.407 6.103 8.892 8.892 0 0 1-6.276 8.683c1.367.866 2.079 2.483 2.349 5.333 0 .924.173 1.925.25 2.965.069 1.886.308 3.76.712 5.602l.135.347Z" fill="#ffb600"/><path class="cls-9" d="M132.742 341.425h1.54c1.829 0 3.022.981 3.022 2.483a4.216 4.216 0 0 1-4.408 4.197h-1.367l1.213-6.623Zm1.405-6.797a39.032 39.032 0 0 0-8.163.771h-.327v.327l-5.641 29.552-.116.597h8.26v-.423l2.06-11.032h.789c1.694 0 2.599.616 2.753 3.851.092 2.4.337 4.793.732 7.161l.115.386h8.529l-.27-.694a34.446 34.446 0 0 1-.693-5.525c0-1.001-.154-2.06-.25-2.965a7.133 7.133 0 0 0-2.079-5.237 9.224 9.224 0 0 0 6.007-8.76 7.03 7.03 0 0 0-3.543-6.314 14.2 14.2 0 0 0-8.163-1.926Zm-3.234 13.92h1.925a4.715 4.715 0 0 0 4.948-4.698c0-1.925-1.425-2.984-3.523-2.984-.645-.015-1.29.031-1.926.135l-1.386 7.547m3.235-13.477c2.743-.177 5.481.43 7.893 1.752a6.572 6.572 0 0 1 3.312 5.892 8.82 8.82 0 0 1-6.469 8.586v.135c1.598.809 2.271 2.599 2.541 5.333.119 2.938.435 5.864.943 8.76h-7.412a52.143 52.143 0 0 1-.712-7.066c-.193-3.446-1.175-4.39-3.273-4.39h-1.213l-2.137 11.552h-7.201l5.641-29.553a37.634 37.634 0 0 1 8.048-.77M145.679 365.702l5.815-30.631h17.712l-1.348 6.758h-9.78l-.982 4.813h9.395l-1.309 6.681h-9.299l-1.097 5.564h10.492l-1.309 6.815h-18.29z" fill="#ffb600"/><path class="cls-9" d="M169.514 334.821h-18.251v.404l-5.776 30.13-.116.597h18.81v-.423l1.213-6.296.115-.597h-10.396l1.02-5.063h9.299v-.424l1.213-6.16.116-.597h-9.357l.886-4.313h9.78v-.404l1.251-6.257.116-.597Zm-.597.501-1.251 6.257h-9.8l-1.078 5.313h9.395l-1.213 6.161h-9.299l-1.193 6.084h10.492l-1.193 6.392h-17.79l5.776-30.13h17.212M180.353 346.777c2.946 0 4.698-1.252 4.698-3.331 0-1.54-1.155-2.522-3.004-2.522a9.58 9.58 0 0 0-1.79.135l-1.078 5.776Zm-3.735 12.86c.539.033 1.078.033 1.617 0 2.599 0 5.218-1.212 5.218-3.85 0-2.137-1.425-3.196-4.351-3.196h-1.136l-1.348 7.046Zm-.789 6.238a41.55 41.55 0 0 1-7.701-.539h-.251l5.622-29.629h.173a39.71 39.71 0 0 1 7.875-.732c2.67-.177 5.339.397 7.701 1.656a6.42 6.42 0 0 1 3.581 5.775 7.703 7.703 0 0 1-5.506 7.239 6.764 6.764 0 0 1 4.12 6.527 8.626 8.626 0 0 1-4.101 7.181c-2.542 1.752-6.354 2.599-11.552 2.599Z" fill="#ffb600"/><path class="cls-9" d="M178.216 352.841h.924c3.658 0 4.101 1.695 4.101 2.946 0 1.694-1.309 3.658-4.967 3.658h-1.309l1.251-6.565Zm2.291-11.551a11.245 11.245 0 0 1 1.579 0c1.733 0 2.753.847 2.753 2.252 0 1.926-1.656 3.081-4.447 3.081h-.867l.982-5.256Zm1.175-6.642a40.442 40.442 0 0 0-7.933.731h-.327v.328l-5.545 29.225v.481l.482.116c2.545.414 5.123.595 7.701.539 5.333 0 9.183-.867 11.782-2.638a8.892 8.892 0 0 0 4.197-7.393 7.03 7.03 0 0 0-3.735-6.507 7.814 7.814 0 0 0 4.891-7.104 6.705 6.705 0 0 0-3.716-6.026 14.597 14.597 0 0 0-7.836-1.675Zm-3.466 25.298c2.965 0 5.468-1.425 5.468-4.159s-1.925-3.446-4.602-3.446h-1.347l-1.425 7.508c.641.054 1.284.054 1.925 0m.636-12.918h1.482c3.119 0 4.948-1.386 4.948-3.581 0-1.694-1.251-2.773-3.254-2.773a8.041 8.041 0 0 0-1.925.193l-1.155 6.161m2.772-11.898a14.049 14.049 0 0 1 7.701 1.617 6.262 6.262 0 0 1 3.427 5.583 7.529 7.529 0 0 1-5.775 7.162v.135a6.473 6.473 0 0 1 4.428 6.469 8.394 8.394 0 0 1-3.986 6.969c-2.56 1.752-6.315 2.561-11.551 2.561a40.239 40.239 0 0 1-7.547-.539l5.545-29.226a38.471 38.471 0 0 1 7.816-.731M208.558 352.938l-.135-5.468v-5.372l-.616 1.791c-.481 1.328-.962 2.715-1.367 3.677l-2.137 5.372Zm.327 12.764-.192-6.796h-6.681l-2.734 6.796h-8.201l13.862-30.631h9.626l2.31 30.631Z" fill="#ffb600"/><path class="cls-9" d="m204.554 352.687 1.925-5.025c.404-.962.905-2.348 1.367-3.696 0-.154 0-.308.154-.462v4.004l.135 5.179Zm10.319-17.866h-10.088l-.135.289-13.631 30.13-.327.712h8.702l.135-.327 2.599-6.469h6.276l.154 6.296v.5h8.587v-.539l-2.272-30.13v-.462Zm-11.07 18.367h5.005l-.134-5.776c0-1.694 0-4.505-.135-6.469-.77 1.926-1.656 4.813-2.368 6.469l-2.291 5.776m10.589-17.866 2.252 30.207h-7.547l-.192-6.796h-7.105l-2.753 6.796h-7.701l13.747-30.207h9.279M219.359 365.702l5.814-30.631h7.855l-4.524 23.719h10.03l-1.309 6.912h-17.866z" fill="#ffb600"/><path class="cls-9" d="M233.336 334.821h-8.356v.404l-5.775 30.13v.597h18.367v-.423l1.193-6.392.116-.597h-10.012l4.409-23.103.116-.597Zm-.616.501-4.447 23.738h10.011l-1.213 6.392h-17.327l5.776-30.13h7.335M240.094 365.702l5.833-30.631h7.836l-4.524 23.719h10.011l-1.29 6.912h-17.866z" fill="#ffb600"/><path class="cls-9" d="M254.071 334.821h-8.356v.404l-5.775 30.13-.116.597h18.367v-.423l1.194-6.392.115-.597h-10.011l4.409-23.103.115-.597Zm-.616.501-4.505 23.738h10.011l-1.213 6.392h-17.327l5.776-30.13h7.335" fill="#ffb600"/><path class="cls-10" d="M280.717 358.136h.154Zm14.67-5.68c-2.272.713-3.619.867-5.371-.731 2.179.138 4.347-.43 6.18-1.618 3.311-1.925 3.427-5.602 8.548-6.468-2.503-1.598-3.735-2.753-6.7-2.484a33.725 33.725 0 0 0 3.85-2.753 31.974 31.974 0 0 0 6.488-7.701c.459-.68.724-1.471.771-2.291-5.872 2.599-10.897 3.966-22.006 3.042 2.83-3.138 3.85-4.679 3.369-8.125-2.483 3.389-5.468 1.925-8.895 1.637a19.04 19.04 0 0 0-10.531 1.347 14.079 14.079 0 0 0-7.913 8.221v.212c-7.431 9.239-2.075 23.059 9.64 24.874.385.06.772.106 1.161.135 7.951 4.871 19.618-3.061 21.409-7.354Z" fill="#ffb600" fill-rule="evenodd"/><g class="cls-7" transform="matrix(1.92525 0 0 1.92525 4.943 74.817)" clip-path="url(#c)"><path class="cls-11" d="M143.24 147.16h.08Zm7.62-2.95c-1.18.37-1.88.45-2.79-.38a5.29 5.29 0 0 0 3.21-.84c1.72-1 1.78-2.91 4.44-3.36-1.3-.83-1.94-1.43-3.48-1.29a17.73 17.73 0 0 0 2-1.43 16.62 16.62 0 0 0 3.37-4 2.37 2.37 0 0 0 .4-1.19c-3.05 1.35-5.66 2.06-11.43 1.58 1.47-1.63 2-2.43 1.75-4.22-1.29 1.76-2.84 1-4.62.85a9.89 9.89 0 0 0-5.47.7 7.31 7.31 0 0 0-4.11 4.27v.11a8 8 0 0 0 5.61 12.99c4.13 2.53 10.19-1.59 11.12-3.82Z" fill="none" stroke="#fdb927" stroke-miterlimit="10" stroke-width="1.15"/></g><path class="cls-12" d="M278.079 355.575h.115-.115Zm11.551-3.85a3.596 3.596 0 0 1-4.12-.79 7.698 7.698 0 0 0 4.833-1.001c2.618-1.29 2.868-4.158 6.834-4.601-1.925-1.348-2.772-2.291-5.063-2.195a27.437 27.437 0 0 0 3.042-1.925 24.585 24.585 0 0 0 5.314-5.776 3.355 3.355 0 0 0 .673-1.733c-4.601 1.772-8.528 2.599-17.019 1.444 2.291-2.31 3.119-3.427 2.907-6.103-2.04 2.484-4.274 1.309-6.892.886a14.698 14.698 0 0 0-8.163.616 10.785 10.785 0 0 0-6.411 5.987 1.263 1.263 0 0 0 0 .174c-6.153 6.725-2.721 17.589 6.18 19.555.387.086.78.152 1.174.198 5.911 4.062 15.21-1.56 16.769-4.775Z" fill="#ff9015" fill-rule="evenodd"/><path class="cls-13" d="M278.079 355.575h.115-.115Zm11.551-3.85a3.596 3.596 0 0 1-4.12-.79 7.698 7.698 0 0 0 4.833-1.001c2.618-1.29 2.868-4.158 6.834-4.601-1.925-1.348-2.772-2.291-5.063-2.195a27.437 27.437 0 0 0 3.042-1.925 24.585 24.585 0 0 0 5.314-5.776 3.355 3.355 0 0 0 .673-1.733c-4.601 1.772-8.528 2.599-17.019 1.444 2.291-2.31 3.119-3.427 2.907-6.103-2.04 2.484-4.274 1.309-6.892.886a14.698 14.698 0 0 0-8.163.616 10.785 10.785 0 0 0-6.411 5.987 1.263 1.263 0 0 0 0 .174c-6.153 6.725-2.721 17.589 6.18 19.555.387.086.78.152 1.174.198 5.911 4.062 15.21-1.56 16.769-4.775Z" fill="none" stroke="#f7901e" stroke-miterlimit="10" stroke-width=".14"/><path class="cls-14" d="M285.799 344.832c0 9.145-9.899 14.861-17.818 10.289-7.92-4.573-7.92-16.003 0-20.575a11.886 11.886 0 0 1 5.939-1.593c6.566-.009 11.889 5.316 11.879 11.879Z" fill="#ff4d00" fill-rule="evenodd"/><path class="cls-6" d="M20.538 340.886h8.201c4.14 0 6.893 2.137 6.181 6.545a6.626 6.626 0 0 1-6.874 5.911h-3.253l-.828 5.352h-6.238Zm4.986 7.951h.597c1.136 0 2.387-.173 2.599-1.617.212-1.444-1.097-1.464-2.156-1.464h-.616ZM37.673 340.886h6.468l-1.925 12.09h5.429l-.904 5.776H34.92ZM67.784 340.886l-1.675 10.531c-.828 5.198-4.428 7.566-9.415 7.566-4.986 0-7.893-2.368-7.066-7.566l1.675-10.531h6.469l-1.578 9.915c-.212 1.405-.347 2.618 1.366 2.618 1.714 0 1.926-1.213 2.176-2.618l1.579-9.915ZM69.901 352.322l.308.25a5.762 5.762 0 0 0 3.851 1.636c.635 0 1.675-.269 1.81-1.059.134-.789-.693-.885-1.29-1.001l-1.252-.231c-2.464-.443-4.351-1.925-3.85-4.717.674-4.235 4.89-6.603 8.779-6.603a9.365 9.365 0 0 1 5.371 1.559l-2.445 4.563a5.79 5.79 0 0 0-3.542-1.348c-.578 0-1.444.212-1.56.944-.115.731.674.751 1.175.885l1.386.328c2.657.616 4.39 2.079 3.851 5.102-.655 4.254-4.871 6.353-8.722 6.353a14.343 14.343 0 0 1-6.584-1.637Z" fill="#18988b"/></svg>