<svg xmlns="http://www.w3.org/2000/svg" id="b" viewBox="0 0 207.184 92.427"><defs><radialGradient id="d" cx="146.528" cy="58.402" r="31.456" fx="166.445" fy="40.233" gradientUnits="userSpaceOnUse"><stop offset=".156" stop-color="#fff"/><stop offset=".231" stop-color="#fde6d0"/><stop offset=".315" stop-color="#fbcea2"/><stop offset=".396" stop-color="#fabb7e"/><stop offset=".471" stop-color="#f9ae65"/><stop offset=".539" stop-color="#f9a555"/><stop offset=".593" stop-color="#f9a350"/></radialGradient><style>.e,.f{fill:#7ac143}.e,.g{fill-rule:evenodd}.h{fill:#fff}.g,.i{fill:#00703c}.k{fill:#00a4e4}</style></defs><g id="c"><path d="M102.298 15.917 134.35 3.141s12.367 12.822 9.233 35.9c-3.135 23.076-2.266 17.117-2.266 17.117l-17.308 2.184s6.32-20.393-.448-29.223c-7.425-9.69-21.264-13.202-21.264-13.202Z" class="g"/><path d="M121.463 57.553c-.002-.002.147-.479.388-1.382a69 69 0 0 0 .887-3.757c.649-3.103 1.286-7.237 1.285-11.195.02-4.252-.794-8.211-2.578-10.478-5.761-7.63-16.758-11.399-19.287-12.096-.36-.105-.516-.143-.516-.143l.656-2.585.988 2.477-.988-2.477-.656 2.585-7.962-2.02L135.027 0l1.244 1.29c.256.266 10.472 10.962 10.487 30.355a57.81 57.81 0 0 1-.532 7.753c-.916 6.748-1.494 11.03-1.846 13.686l.087-.01-.512 3.473c0 .003-.021.15-.047.316-.031.198-.037.274-.094.552l-.005.012-.01.048c-.009.048-.023.12-.15.444-.086.145-.088.318-.586.845-.254.236-.81.725-1.856.75a2.673 2.673 0 0 1-1.504-.465l-19.466 2.457 1.226-3.953ZM111.29 16.477c4.611 2.205 10.27 5.667 14.389 11.02 2.932 3.89 3.654 8.902 3.675 13.722-.008 5.322-.972 10.558-1.767 13.983l11.32-1.427.086-.664c.344-2.585.939-7.005 1.947-14.43.334-2.478.484-4.824.484-7.035.007-13.415-5.476-22.126-7.888-25.31l-23.732 9.46c.482.211.976.438 1.486.68Z" class="i"/><path d="m85.194 48.951 21.637-26.883s17.071 5.091 25.683 26.729c8.612 21.638 6.441 16.023 6.441 16.023l-14 10.407s-4.521-20.864-14.752-25.229c-11.231-4.79-25.01-1.047-25.01-1.047Z" class="g"/><path d="M122.348 75.791a60.79 60.79 0 0 0-.455-1.832 71.943 71.943 0 0 0-1.432-4.7c-1.278-3.754-3.257-8.423-5.797-11.913-1.685-2.337-3.598-4.093-5.507-4.895-3.915-1.676-8.347-2.23-12.296-2.226-5.399-.004-9.858 1.018-10.79 1.253-.133.033-.178.046-.178.046l-7.93 2.154L105.875 19l1.717.51c.217.066 4.77 1.448 10.443 5.667 5.67 4.214 12.454 11.31 16.955 22.633a5713.787 5713.787 0 0 0 5.12 12.829l.07-.052 1.263 3.273c.007.017.166.431.257.684.019.064.023.047.087.29.014.107.059.122.076.64v.002c0 .7-.283 1.388-.779 1.884a2.684 2.684 0 0 1-1.887.78 4.816 4.816 0 0 1-.222-.012l-15.75 11.707-.877-4.045ZM111.25 47.546c3.204 1.378 5.695 3.869 7.734 6.67 2.035 2.813 3.631 5.996 4.891 9.005a73.756 73.756 0 0 1 2.651 7.512l9.157-6.804-.183-.455c-.963-2.396-2.63-6.568-5.466-13.69-6.516-16.386-18.079-22.685-22.345-24.532L91.671 45.155a52.996 52.996 0 0 1 5.19-.263c4.428.002 9.54.589 14.389 2.654Zm-23.98 3.076-2.076-1.672 2.076 1.672Z" class="i"/><path d="M102.298 15.917 134.35 3.141s12.367 12.822 9.233 35.9c-3.135 23.076-2.266 17.117-2.266 17.117l-17.308 2.184s6.32-20.393-.448-29.223c-7.425-9.69-21.264-13.202-21.264-13.202Z" class="e"/><path d="m85.194 48.951 21.637-26.883s17.071 5.091 25.683 26.729c8.612 21.638 6.441 16.023 6.441 16.023l-14 10.407s-4.521-20.864-14.752-25.229c-11.231-4.79-25.01-1.047-25.01-1.047Z" class="e"/><path d="m132.8 6.2-21.687 8.911s17.692 11.79 18.961 16.33c0 0 4.418-3.31 8.958-4.577 4.54-1.27-6.231-20.664-6.231-20.664Z" class="g"/><path d="M129.824 31.51c-.553-2.094-5.294-6.245-9.864-9.732-4.574-3.508-8.983-6.444-8.991-6.45l-.405-.272 22.14-9.097.212-.088.113.202c.002.028 7.356 13.196 7.38 18.677.009 1.152-.354 2.095-1.305 2.363-4.477 1.248-8.868 4.528-8.874 4.536l-.304.226-.102-.364Zm-9.549-10.142c4.385 3.382 8.905 7.195 9.928 9.66 1.048-.743 4.838-3.316 8.76-4.414.627-.175.916-.772.926-1.864.008-2.558-1.816-7.208-3.65-11.163-1.567-3.39-3.132-6.29-3.554-7.06l-21.025 8.64c1.19.806 4.848 3.31 8.615 6.2Zm12.3-15.043.226-.125-.227.125Z" class="i"/><path d="M107.274 26.436 93.814 42.27s18.666-1.343 28.673 10.653c0 0 .577-10.148 2.65-15.618.357-.934-17.863-10.867-17.863-10.867Z" class="g"/><path d="M122.289 53.088c-8.077-9.697-21.962-10.609-26.767-10.605-1.075 0-1.686.043-1.689.043l-.616.045 13.86-16.302.136-.16.185.1c.01.005 13.668 7.449 17.133 10.079.494.415.805.576.871.986a.31.31 0 0 1-.023.121c-2.05 5.4-2.635 15.526-2.632 15.541l-.037.659-.421-.507Zm-.018-.818c.165-2.295.835-10.269 2.596-14.989a.995.995 0 0 0-.11-.126 5.565 5.565 0 0 0-.54-.455c-.478-.363-1.172-.83-2.006-1.363-1.67-1.064-3.9-2.383-6.133-3.667a490.604 490.604 0 0 0-8.744-4.904L94.4 41.982c.284-.01.662-.018 1.122-.018 4.777.005 18.423.855 26.75 10.306Zm-15.12-25.605.123-.229-.124.229Z" class="i"/><path d="M112.287 30.255c.086.063.171.127.259.19.568.3-.376.823-.509 1.225l1.033.765c.457.243.647-1.325 1.156-.746.56.34-.457.91-.605 1.354 1.374 1.197 2.8 2.679 2.304 3.912-.834 2.065-3.367 1.04-2.898-.95.477-.388.972-.683 1.574-.234.181-.793-.71-1.427-1.235-2.118-.745.386-1.351 1.734-2.042 2.489 2.88 2.268 3.299 6.72-.505 7.431-1.184.222-2.458-.228-3.96-1.135-.568.049-.935 1.458-1.504 1.486-.837-.41.467-1.14.664-1.705.083-.396-.773-.651-1.065-.993-.481.368-.817 1.716-1.407 1.359-.513-.46.68-1.173.89-1.742-1.764-1.349-3.514-4.58-1.415-5.65.785-.4 2.508.358 2.55 1.69l-.765 1.033c-.602.023-1.053-.114-1.483-.698-.355 1.087.565 1.984 1.464 2.884.842-.51 1.543-1.988 2.33-2.874-4.591-2.993-.598-9.51 4.308-5.813.285-.388.574-.774.861-1.16Zm-1.502 1.486c-1.96-1.288-3.628 1.32-1.561 2.645.402-.863 1.898-1.89 1.561-2.645Zm-1.045 3.028c.2.354.797.997 1.067.99l1.914-2.582c-.387-.286-.774-.575-1.162-.861-.606.82-1.213 1.635-1.819 2.453Zm-4.402 5.941c.344.255.687.511 1.033.766.838-.54 1.545-1.97 2.33-2.873-.422-.322-.482-.697-1.066-.991l-2.297 3.098Zm1.773 1.116c1.255.716 2.456 1.062 3.373-.502.028-.81-.484-1.536-1.362-2.213-.669.906-1.339 1.81-2.01 2.715ZM135.2 12.694l.113.304c.311.56-.764.483-1.095.747l.446 1.206c.25.452 1.268-.756 1.374.006.284.59-.878.515-1.245.803.496 1.755.882 3.776-.207 4.536-1.831 1.273-3.393-.972-1.912-2.379.613-.065 1.19-.044 1.449.663.586-.563.184-1.585.121-2.446-.833-.087-2.076.711-3.07.965 1.176 3.476-.908 7.43-4.485 5.947-1.112-.464-1.932-1.534-2.693-3.117-.505-.268-1.58.711-2.073.424-.478-.805 1.014-.702 1.491-1.066.282-.288-.293-.969-.353-1.414-.604.044-1.622.99-1.92.37-.178-.667 1.21-.614 1.697-.976-.738-2.092-.438-5.755 1.906-5.5.875.092 1.902 1.669 1.21 2.807l-1.205.446c-.52-.308-.82-.672-.858-1.396-.895.72-.614 1.973-.355 3.216.986.034 2.382-.82 3.525-1.13-2.208-5.018 4.698-8.293 6.785-2.512l1.354-.504Zm-2.07.425c-.936-2.148-3.758-.875-2.753 1.364.808-.507 2.621-.548 2.754-1.364Zm-2.531 1.964c-.027.41.125 1.27.353 1.415 1.003-.373 2.009-.744 3.014-1.119-.166-.45-.335-.903-.503-1.354l-2.864 1.058Zm-6.933 2.568c.148.403.295.803.445 1.206.998.009 2.371-.805 3.524-1.13-.178-.5-.024-.847-.352-1.415-1.206.445-2.413.892-3.617 1.339Zm.875 1.904c.66 1.283 1.477 2.232 3.097 1.426.466-.666.435-1.553.069-2.597l-3.166 1.17Z" class="e"/><path d="m187.012 14.813 16.968 30.044s-11.043 13.977-34.332 13.973c-23.287-.002-17.267.058-17.267.058l-4.49-16.859s21.057 3.522 28.896-4.372c8.607-8.661 10.225-22.845 10.225-22.845Z" class="g"/><path d="m152.351 61.553-.322-.004c-.203-.006-.276 0-.562-.02-.098-.02-.045.026-.55-.103-.165-.077-.355-.04-1.001-.557a2.664 2.664 0 0 1-.902-1.998c.004-.48.125-.879.283-1.197l-5.047-18.957 4.08.682c0-.001.246.04.748.11s1.237.164 2.148.259c1.823.189 4.352.377 7.116.377 3.097.002 6.495-.242 9.487-.944 3.003-.692 5.532-1.86 7.065-3.425 6.79-6.734 9.045-18.136 9.395-20.734.056-.371.073-.531.073-.532l.932-8.16 21.89 38.754-1.11 1.406c-.234.316-11.844 14.803-35.988 14.984l-.006.002h-1.777c-6.043 0-9.967.004-12.466.01l.022.086-3.508-.04Zm2.067-5.376.254-.001c2.392-.007 6.549-.013 13.63-.013h1.407c17.594-.014 27.705-8.41 30.994-11.685l-12.558-22.233c-1.452 5.089-4.233 11.948-9.466 17.29-2.61 2.608-6.07 4.019-9.636 4.86-3.58.834-7.332 1.082-10.701 1.083a75.25 75.25 0 0 1-6.86-.326l2.936 11.025Z" class="i"/><path d="m149.357 7.333 31.614 13.826s-.434 17.807-19.053 31.796c-18.62 13.984-13.771 10.417-13.771 10.417l-13.718-10.78s18.95-9.833 20.478-20.855c1.675-12.094-5.55-24.404-5.55-24.404Z" class="g"/><path d="M145.691 65.663a2.687 2.687 0 0 1-.739-1.41l-15.425-12.122 3.674-1.905c0-.001.133-.07.418-.227.285-.155.705-.39 1.23-.694a70.77 70.77 0 0 0 4.162-2.614c3.286-2.218 7.272-5.352 9.974-8.72 1.815-2.24 3.006-4.544 3.28-6.599.156-1.124.226-2.262.226-3.398.034-8.583-4.202-17.085-5.227-18.92-.144-.264-.207-.371-.207-.371l2.3-1.35-2.3 1.35-4.157-7.085 40.78 17.834-.043 1.792c-.008.226-.145 4.978-2.727 11.562-2.578 6.576-7.646 14.986-17.39 22.3a5172.936 5172.936 0 0 0-11.036 8.303l.07.055-2.831 2.078-.258.189c-.166.117-.223.166-.464.32-.004.003-.007.006-.012.008l-.038.023c-.03.021-.07.05-.224.12a3.501 3.501 0 0 1-.14.062l-.057.025-.016.004c-.041.016-.082.03-.123.043-.081.03-.19.065-.37.091a2.677 2.677 0 0 1-2.33-.744Zm2.457-5.682c.125-.096.26-.196.399-.303 2.06-1.555 5.646-4.258 11.77-8.857 14.098-10.587 17.143-23.397 17.806-27.998L154.725 12.59c1.535 4.018 3.076 9.498 3.1 15.384 0 1.358-.085 2.738-.278 4.13-.49 3.456-2.238 6.512-4.408 9.216-2.18 2.702-4.834 5.078-7.407 7.08a73.682 73.682 0 0 1-6.556 4.532l8.972 7.048Z" class="i"/><path d="m187.012 14.813 16.968 30.044s-11.043 13.977-34.332 13.973c-23.287-.002-17.267.058-17.267.058l-4.49-16.859s21.057 3.522 28.896-4.372c8.607-8.661 10.225-22.845 10.225-22.845Z" class="e"/><path d="m149.357 7.333 31.614 13.826s-.434 17.807-19.053 31.796c-18.62 13.984-13.771 10.417-13.771 10.417l-13.718-10.78s18.95-9.833 20.478-20.855c1.675-12.094-5.55-24.404-5.55-24.404Z" class="e"/><path d="m200.113 45.023-11.385-19.98s-10.214 18.899-14.45 20.967c0 0 2.608 4.919 4.675 9.155 2.067 4.236 21.16-10.142 21.16-10.142Z" class="g"/><path d="M178.72 55.278c-2.065-4.231-4.667-9.137-4.673-9.148l-.123-.237.24-.117c1.977-.938 5.646-6.194 8.707-11.162 3.078-4.975 5.623-9.686 5.629-9.696l.222-.41 11.617 20.386-.226.13.226-.13.112.198-.182.138c-.04.006-14.437 10.93-19.754 10.974h-.03c-.782 0-1.452-.277-1.765-.926Zm.465-.227c.215.43.624.629 1.33.637 2.395.017 7.33-2.694 11.569-5.422a143.443 143.443 0 0 0 7.691-5.314l-11.042-19.378a219.057 219.057 0 0 1-5.423 9.314c-3 4.828-6.42 9.872-8.685 11.226.533 1.01 2.753 5.232 4.56 8.937Z" class="i"/><path d="m177.537 23.135-20.547-8.308s1.593 16.971-1.176 20.786c0 0 7.023 4.341 10.837 7.11 3.814 2.772 10.886-19.588 10.886-19.588Z" class="g"/><path d="M166.499 42.933c-3.8-2.759-10.812-7.094-10.823-7.101l-.236-.147.163-.224c1.21-1.632 1.595-6.266 1.582-10.677 0-5.087-.453-9.923-.453-9.933l-.04-.424 20.943 8.467-.098.24.098-.24.22.09-.07.228c-.007.01-3.525 11.156-6.97 16.786-1.165 1.867-2.264 3.187-3.465 3.222h-.006c-.296 0-.587-.098-.845-.287Zm.305-.419a.912.912 0 0 0 .546.187c.755.037 1.909-1.123 3.022-2.973 1.127-1.838 2.274-4.31 3.3-6.78 1.794-4.322 3.213-8.639 3.543-9.663l-19.93-8.059c.109 1.29.42 5.337.42 9.558-.012 4.287-.295 8.71-1.53 10.748 1.233.766 7.206 4.497 10.629 6.982Z" class="i"/><path d="M191.403 34.24c.086.065.173.13.261.193.568.296-.373.822-.504 1.225.344.254.689.51 1.035.762.457.242.643-1.327 1.15-.746.563.333-.452.908-.599 1.353 1.379 1.19 2.81 2.669 2.317 3.903-.83 2.07-3.368 1.053-2.9-.94.476-.39.966-.686 1.57-.238.181-.795-.713-1.426-1.239-2.111-.746.383-1.346 1.733-2.036 2.492 2.888 2.26 3.32 6.708-.484 7.431-1.181.225-2.458-.22-3.964-1.124-.567.05-.93 1.46-1.497 1.494-.841-.412.462-1.144.659-1.712.079-.394-.778-.647-1.069-.988-.48.37-.812 1.717-1.404 1.363-.514-.458.676-1.176.886-1.744-1.767-1.345-3.528-4.57-1.43-5.647.78-.4 2.507.351 2.554 1.683l-.764 1.036c-.602.027-1.052-.112-1.484-.696-.352 1.09.571 1.985 1.47 2.882.844-.512 1.54-1.993 2.325-2.88-4.6-2.98-.627-9.513 4.29-5.825l.857-1.165Zm-1.497 1.493c-1.962-1.283-3.622 1.331-1.552 2.65.398-.866 1.89-1.897 1.552-2.65Zm-1.036 3.03c.202.355.8.996 1.07.988.636-.862 1.27-1.725 1.908-2.589-.389-.285-.778-.57-1.166-.857a1136 1136 0 0 1-1.812 2.459Zm-4.386 5.954c.345.254.69.51 1.034.762.84-.54 1.542-1.973 2.326-2.88-.424-.318-.485-.694-1.07-.988l-2.29 3.106Zm1.778 1.111c1.258.71 2.46 1.054 3.372-.511.022-.808-.49-1.535-1.368-2.207-.67.905-1.336 1.813-2.004 2.718Z" class="e"/><path d="M178.197 59.303c-.49 17.24-15.065 30.812-32.556 30.314-17.488-.496-31.268-14.873-30.782-32.114.49-17.24 15.067-30.813 32.557-30.317 17.488.498 31.27 14.875 30.781 32.117Z" class="i"/><path d="M146.574 92.427c-.338 0-.674-.004-1.013-.015-18.676-.527-33.507-15.633-33.513-34.022 0-.32.005-.644.014-.966.532-18.486 15.867-33.052 34.423-33.05.331 0 .672.006 1.01.015 18.675.53 33.505 15.637 33.51 34.025 0 .322-.003.64-.01.955l-2.798-.067 2.797.079c-.533 18.481-15.861 33.048-34.416 33.046h-.004Zm-28.918-34.84c-.007.264-.01.53-.01.803-.007 15.3 12.376 27.983 28.068 28.428.288.008.575.012.86.012 15.59-.002 28.396-12.223 28.824-27.607.008-.278.013-.545.013-.809.005-15.3-12.378-27.984-28.085-28.431a27.905 27.905 0 0 0-.84-.012c-15.592.002-28.4 12.226-28.83 27.617Z" class="i"/><path d="M178.197 59.303c-.49 17.24-15.065 30.812-32.556 30.314-17.488-.496-31.268-14.873-30.782-32.114.49-17.24 15.067-30.813 32.557-30.317 17.488.498 31.27 14.875 30.781 32.117Z" style="fill:url(#d)"/><path d="M141.773 61.545c.772-4.856 1.233-7.299 1.984-10.664 1.147-4.93 2.826-10.359 4.148-13.207 1.581-3.526 3.081-5.075 5.27-5.507 1.284-.252 1.948-.068 2.096.687.061.302-.138.89-.458 1.66-.442.947-.96 2.697-1.601 5.02-.505 1.824-.962 3.483-1.284 5.035-1.041 4.284-1.58 7.92-2.543 15.794.466-.011.771-.072.996-.117 4.38-.86 6.1-.887 6.293.097.356 1.811-2.592 3.568-8.287 4.923-.604 4.904-.782 8.388-.523 12.496.255 5.281-.386 6.82-2.953 7.324-2.265.446-3.849-.42-4.263-2.533-.386-1.965-.26-8.108.303-14.022l.08-1.191c-3.596.862-7.357 2.073-10.576 3.255-.8.315-1.542.539-1.844.596-1.056.21-1.808-.819-2.267-3.16-1.53-7.778 1.31-22.455 5.847-29.7 1.442-2.243 3.575-3.76 5.99-4.235 1.36-.267 2.25-.13 2.37.474.074.379-.444 1.736-1.142 2.971-.866 1.583-1.534 2.967-2.175 4.897-.99 2.55-1.738 5.127-2.47 7.78a118.957 118.957 0 0 0-1.395 6.08c-.353 2.184-.435 3.77-.264 7.03 2.1-.49 2.854-.64 5.196-1.1l3.472-.683Z" class="i"/><path d="M140.4 86.155c-.978-.798-1.577-1.964-1.812-3.199-.201-1.073-.256-2.482-.262-4.32 0-2.405.13-5.43.38-8.52a102.663 102.663 0 0 0-7.527 2.448h-.001c-.9.347-1.604.573-2.162.687-.22.043-.446.064-.666.064-1.327.027-2.461-.885-2.965-1.766-.559-.9-.856-1.9-1.102-3.114-.318-1.622-.457-3.424-.457-5.354.038-8.462 2.576-19.38 6.598-25.885 1.714-2.672 4.328-4.567 7.352-5.16a8.14 8.14 0 0 1 1.562-.17c.542.007 1.103.054 1.754.36.64.274 1.372 1.058 1.521 1.962.035.2.042.344.042.467-.037.88-.239 1.293-.477 1.958a16.238 16.238 0 0 1-.928 1.937c-.838 1.533-1.425 2.75-2.023 4.548l-.016.049-.02.05c-.947 2.438-1.677 4.943-2.397 7.55a115.474 115.474 0 0 0-1.36 5.94 22.209 22.209 0 0 0-.317 3.845v.193c.781-.164 1.58-.32 2.778-.556l2.039-.4c.64-3.957 1.093-6.302 1.778-9.364 1.18-5.053 2.849-10.496 4.277-13.59.848-1.881 1.706-3.353 2.809-4.51 1.09-1.155 2.494-1.92 3.972-2.197a6.917 6.917 0 0 1 1.334-.147c.582.004 1.279.09 1.973.552.704.453 1.145 1.28 1.255 1.946.04.205.048.373.048.515-.05 1.058-.339 1.563-.626 2.339l-.022.05-.017.036c-.315.653-.854 2.406-1.48 4.692-.505 1.826-.952 3.448-1.253 4.906l-.006.028-.01.04c-.885 3.642-1.397 6.787-2.153 12.784 1.288-.218 2.32-.34 3.226-.345.68.009 1.315.049 2.047.374.737.282 1.524 1.188 1.648 2.06.046.23.069.466.067.698.003 1.048-.469 1.973-1.055 2.637-.593.678-1.316 1.195-2.16 1.668-1.389.77-3.139 1.42-5.282 2.002-.308 2.74-.456 5.006-.456 7.27 0 1.117.035 2.236.111 3.448.036.725.055 1.39.055 2.008-.016 2.015-.157 3.565-.942 4.994-.8 1.47-2.37 2.252-3.756 2.482a7.857 7.857 0 0 1-1.503.154h-.03c-1.191 0-2.42-.348-3.384-1.144Zm2.641-17.44-.002.015c-.338 3.553-.516 7.213-.516 9.906-.005 1.686.085 3.06.184 3.512.11.518.257.674.356.762.107.082.277.184.75.19.192 0 .426-.022.694-.074.843-.208.771-.253.918-.442.159-.229.406-1.167.39-2.915 0-.53-.014-1.132-.046-1.775a58.512 58.512 0 0 1-.12-3.681c0-2.865.224-5.71.654-9.203l.18-1.448 1.417-.337a27.602 27.602 0 0 0 3.64-1.065 75.71 75.71 0 0 0-.757.146 7.587 7.587 0 0 1-1.344.155l-2.433.064.295-2.416c.959-7.853 1.513-11.611 2.577-15.995.342-1.64.81-3.325 1.31-5.14.495-1.77.898-3.196 1.308-4.323-.217.14-.43.321-.67.563-.59.609-1.272 1.673-2.017 3.344-1.206 2.576-2.897 7.99-4.004 12.78-.743 3.329-1.19 5.693-1.958 10.537l-.23 1.447-4.913.967c-2.35.459-3.039.596-5.121 1.083l-2.442.572-.133-2.506a55.409 55.409 0 0 1-.088-2.906 26.593 26.593 0 0 1 .377-4.571l.01-.049.007-.033c.404-1.99.87-4.075 1.425-6.219.733-2.652 1.493-5.283 2.517-7.927.678-2.039 1.424-3.581 2.326-5.223l.05-.088c-1.429.52-2.712 1.55-3.663 3.023-3.382 5.316-5.983 16.062-5.946 23.636 0 1.724.13 3.281.38 4.546a7.23 7.23 0 0 0 .369 1.342c.268-.086.6-.201.916-.328l.024-.01.02-.008c3.28-1.203 7.104-2.436 10.808-3.325l2.773-.665-.272 4.082Z" class="i"/><path d="M141.074 60.846c.77-4.858 1.232-7.3 1.983-10.662 1.148-4.934 2.826-10.362 4.149-13.21 1.58-3.526 3.081-5.075 5.27-5.506 1.284-.252 1.948-.069 2.096.686.059.303-.14.89-.459 1.659-.441.95-.959 2.698-1.601 5.02-.504 1.825-.961 3.483-1.283 5.036-1.041 4.283-1.582 7.92-2.543 15.795.466-.012.77-.072.997-.118 4.38-.86 6.1-.884 6.293.096.355 1.812-2.593 3.569-8.288 4.924-.604 4.903-.782 8.39-.524 12.494.254 5.286-.385 6.82-2.951 7.325-2.268.447-3.849-.42-4.264-2.533-.387-1.965-.26-8.107.303-14.019l.079-1.193c-3.595.863-7.357 2.073-10.576 3.255-.8.316-1.541.538-1.843.597-1.058.207-1.809-.82-2.268-3.16-1.53-7.78 1.311-22.456 5.847-29.7 1.443-2.243 3.575-3.762 5.991-4.236 1.36-.267 2.25-.128 2.37.474.074.38-.446 1.736-1.143 2.971-.865 1.582-1.534 2.97-2.176 4.896-.988 2.55-1.736 5.127-2.469 7.783a117.532 117.532 0 0 0-1.394 6.078c-.354 2.185-.436 3.771-.265 7.032 2.1-.491 2.855-.64 5.196-1.1l3.473-.684Z" class="h"/><path d="M38.804 46.187v15.552c0 .538-.753.538-.808 0-.967-8.233-3.55-12.162-9.47-14.53-2.046-.807-5.276-.754-7.535.754-5.435 3.604-6.029 12.27-6.081 16.36-.109 3.713.753 13.454 5.758 16.952 2.314 1.67 5.65 1.883 8.18 1.022 5.113-1.936 7.427-6.402 9.472-13.723.162-.59.861-.43.861.055v15.66c0 .7-.86.754-.86 0 0-1.992-1.131-2.691-2.1-2.851-1.13-.217-4.628 1.453-5.704 1.83-1.4.43-4.09.806-5.705.806-5.974-.054-12.109-2.314-16.091-9.094-3.283-5.49-3.606-13.455-.431-19.376 3.552-6.672 9.58-9.686 15.5-10.009 1.775-.055 4.251.215 6.081.807.646.162 5.544 2.207 6.19 2.099 1.29-.16 2.743-2.906 2.743-2.314Z" class="i"/><path d="M33.86 88.68a7.617 7.617 0 0 1-.129-.154c-.385.16-.734.306-1.203.473l-.226.073c-1.24.375-2.429.588-3.71.776-1.275.175-2.52.295-3.78.3h-.055c-3.724-.033-7.716-.757-11.502-2.691-3.784-1.916-7.256-5.085-9.748-9.361C1.124 74.086.011 69.488 0 64.857c.006-4.12.9-8.316 2.928-12.107 2.26-4.266 5.467-7.555 9.079-9.73 3.614-2.186 7.582-3.282 11.452-3.492l.136-.005c.208-.007.428-.011.656-.011 2.315.02 4.81.288 7.346 1.067.32.089.448.142.646.21.22.076.44.158.68.249.474.18 1.024.392 1.586.604l.068.026.062-.056c.29-.234.615-.574 1.62-1.05a6.098 6.098 0 0 1 2.505-.535c.992-.017 2.333.302 3.39 1.029a6.141 6.141 0 0 1 2.09 2.384c.678 1.488.6 2.23.634 2.745V61.74c.027.976-.253 2.121-.804 3.14.746 1.076 1.2 2.44 1.181 3.75v15.66c.018 1.434-.508 3.176-1.715 4.49a6.492 6.492 0 0 1-4.802 2.13h-.077c-1.757 0-3.626-.842-4.8-2.228Zm-9.513-35.654c-.457.302-.91.769-1.369 1.538-.453.758-.869 1.8-1.178 2.962-.63 2.333-.802 5.081-.816 6.875l-.004.107c-.003.123-.005.27-.005.435-.069 2.334.663 7.643 2.092 9.993.443.798.867 1.218 1.081 1.36l.073.052c.137.127.785.38 1.532.37a3.82 3.82 0 0 0 1.026-.136c1.305-.549 1.917-1.059 2.858-2.432.921-1.394 1.892-3.806 2.833-7.21l-.012.042c.13-.498.34-1.028.634-1.545-.64-.93-1.047-2.034-1.138-3.064-.422-3.59-1.17-5.648-1.923-6.777-.77-1.12-1.568-1.831-3.734-2.737-.002 0-.35-.103-.743-.093a1.389 1.389 0 0 0-.064-.002c-.569 0-1.103.207-1.143.262Z" class="i"/><path d="M68.275 74.436c-3.487 3.015-4.97 3.484-7.573 3.058-1.554-.222-3.013-1.108-3.768-2.972-.159-.475-.27-.89-.508-2-4.79 2.605-9.674 4.289-13.037 1.656-2.056-1.48-2.428-3.63-1.986-5.55.958-4.339 5.89-5.167 9.65-6.104l6.953-1.898.403-2.832c.436-3.054.895-5.878-.2-6.542-.778-.508-1.888-.666-3.133-.277-3.022.93-2.996 3.143-4.368 6.006-.705 1.372-1.576 2.324-3.123 2.443-1.142.064-2.348-.219-3.061-1.171-.612-.882-.66-2.132-.217-3.26 1.101-2.958 6.375-4.19 8.485-4.683 2.213-.421 9.048-.695 11.476 1.749 2.118 2.226 1.446 5.36.98 8.634L63.77 71.076c-.35 2.443-.642 3.704.088 4.148.778.508 2.696-.635 3.877-1.374.5-.325.93.246.54.586ZM49.095 69.1c-.03 1.412.287 2.76 1.438 3.432 1.579.849 3.72.134 5.947-1.19l1.36-9.55c-2.345.571-4.591 1.215-5.637 1.802-2.6 1.556-3.052 3.531-3.107 5.506Z" class="i"/><path d="M62.16 83.703a15.003 15.003 0 0 1-2.338-.2 10.87 10.87 0 0 1-4.91-1.993c-.437-.319-.853-.68-1.242-1.075-1.901.659-3.944 1.104-6.205 1.14-2.495.028-5.387-.722-7.72-2.534-1.493-1.09-2.718-2.547-3.481-4.137a11.096 11.096 0 0 1-1.101-4.863c0-.95.112-1.858.309-2.723.453-2.123 1.535-4.078 2.873-5.488.256-.271.516-.525.78-.764a9.19 9.19 0 0 1-1.187-4.567 10.2 10.2 0 0 1 .703-3.7c.804-2.08 2.149-3.495 3.393-4.483 1.28-1.003 2.548-1.654 3.738-2.17 2.36-1.009 4.542-1.49 5.64-1.751l.242-.052c1.354-.25 2.897-.378 4.793-.385 1.729.004 3.653.12 5.679.56 2.001.478 4.25 1.132 6.45 3.256l.094.097a11.106 11.106 0 0 1 2.538 4.29c.473 1.487.596 2.877.597 4.095-.014 2.157-.354 3.877-.544 5.293l-.932 6.552c2.419.922 4.165 3.256 4.17 6.029.036 1.864-.937 3.786-2.18 4.839l-.071.062c-1.56 1.34-2.923 2.414-4.584 3.29-1.584.86-3.6 1.383-5.358 1.383h-.146ZM120.166 80.148c.842 0 .898 1.235 0 1.235h-14.523c-.899 0-.842-1.235 0-1.235 1.85 0 3.7-.279 3.7-3.364V64.896c0-2.131.225-5.048-1.513-6.28-.898-.618-2.861-1.403-8.356 2.242v15.926c0 3.085 1.85 3.364 3.7 3.364.84 0 .897 1.235 0 1.235H88.65c-.898 0-.84-1.235 0-1.235 1.795 0 3.703-.279 3.703-3.364V50.371c0-4.599-.17-5.16-4.15-6.45-.73-.224-.73-.785-.057-.896 3.42-.617 8.187-2.075 11.329-3.421v19.852c4.54-3.083 10.149-5.72 13.962-3.31 3.31 2.131 3.03 5.216 3.03 8.188v12.45c0 3.085 1.905 3.364 3.7 3.364Z" class="i"/><path d="M104.407 87.35c-.427.08-.843.117-1.233.107H88.648c-1.573.04-3.587-.664-4.876-2.058a6.668 6.668 0 0 1-1.85-4.618 6.696 6.696 0 0 1 1.774-4.553c.672-.76 1.595-1.354 2.58-1.725V50.37c.002-.248.002-.477 0-.688a7.049 7.049 0 0 1-2.689-1.592 6.478 6.478 0 0 1-2.015-4.671c-.036-2.053 1.115-3.975 2.303-4.904a6.768 6.768 0 0 1 3.19-1.467v-.002c2.778-.483 7.444-1.904 10.016-3.027a6.052 6.052 0 0 1 5.737.513 6.054 6.054 0 0 1 2.73 5.072v10.154a16.97 16.97 0 0 1 4.425-.626c2.145-.01 4.574.52 6.753 1.907 2.45 1.52 4.285 3.982 5.032 6.302.78 2.32.773 4.268.787 5.694 0 .485-.006.918-.006 1.297v10.173c.985.37 1.908.966 2.58 1.725a6.691 6.691 0 0 1 1.773 4.55 6.672 6.672 0 0 1-1.844 4.613c-1.286 1.394-3.3 2.104-4.882 2.064h-14.523l-.13.001a6.03 6.03 0 0 1-1.106-.107Zm15.759-1.126Zm0-5.497Zm-33.95-32.528h.002-.001Z" class="i"/><path d="M86.645 53.978c.255.818-.531.844-.678.521-2.053-4.58-3.388-6.584-8.104-6.941-1.02-.064-3.487.077-4.525 1.483-.65.8-.776 1.772-.394 2.747.74 2.234 3.949 2.747 6.1 3.37l1.921.592c3.604 1.035 6.989 2.151 8.028 5.652.694 2.353.562 5.975-2.374 8.647-3.972 3.567-11.223 3.247-16.18 2.18l-1.36-8.765c-.07-.67.611-.628.702-.299 1.63 5.92 4.268 8.016 8.99 8.429 1.308.09 4.14-.317 5.223-1.838.801-.985.924-2.52.463-3.713-.857-2.28-3.833-2.703-5.867-3.283l-1.39-.363c-4.518-1.168-8.179-2.762-8.762-6.76-.366-2.445-.085-5.18 2.655-7.041 4.013-2.614 9.995-2.556 14.157-1.016l1.395 6.398Z" class="i"/><path d="M69.163 78.169a6.085 6.085 0 0 1-4.728-5.01l-1.36-8.765-.037-.289a6.69 6.69 0 0 1-.038-.734c-.02-.84.18-1.912.68-2.936a12.301 12.301 0 0 1-1.25-3.896 17.228 17.228 0 0 1-.196-2.523c0-1.631.265-3.536 1.146-5.449.866-1.912 2.387-3.717 4.301-4.997l.095-.065c3.581-2.302 7.527-3.056 11.223-3.071 2.936.007 5.76.494 8.361 1.45a6.071 6.071 0 0 1 3.825 4.403l1.363 6.25c.132.513.22 1.09.22 1.734.013.386-.025.814-.115 1.258.943 1.178 1.724 2.576 2.166 4.156.375 1.278.595 2.668.596 4.18.04 3.348-1.253 7.562-4.738 10.702-2.093 1.876-4.502 2.965-6.832 3.605-2.342.637-4.656.85-6.862.851-2.842-.001-5.511-.36-7.82-.854Zm21.064-24.972 2.353-.513-2.353.513Z" class="i"/><path d="m75.46 40.909 2.83-.17.41 6.868-2.83.17z" class="i"/><path d="m69.808 48.14-.413-6.866a6.109 6.109 0 0 1 1.518-4.395 6.106 6.106 0 0 1 4.182-2.034l2.829-.17a6.073 6.073 0 0 1 6.426 5.699l.415 6.867-6.064.366 6.064-.366a6.12 6.12 0 0 1-1.519 4.395 6.118 6.118 0 0 1-4.18 2.034l-2.829.17a6.074 6.074 0 0 1-6.43-5.7ZM77.61 71.73l2.828-.157.348 6.218-2.829.158z" class="i"/><path d="M73.912 82.48a6.034 6.034 0 0 1-2.02-4.189l-.35-6.22 6.067-.342-6.066.341a6.11 6.11 0 0 1 1.536-4.388 6.108 6.108 0 0 1 4.19-2.016l2.828-.16a6.075 6.075 0 0 1 6.405 5.725l.348 6.218a6.073 6.073 0 0 1-5.72 6.406l-2.828.16a6.029 6.029 0 0 1-4.39-1.534Z" class="i"/><path d="M86.842 53.685c.255.819-.531.846-.677.522-2.052-4.578-3.388-6.584-8.105-6.942-1.02-.062-3.487.08-4.526 1.483-.649.8-.775 1.774-.392 2.747.739 2.236 3.95 2.75 6.1 3.372l1.922.59c3.603 1.037 6.987 2.154 8.026 5.655.694 2.352.562 5.974-2.375 8.646-3.97 3.566-11.22 3.247-16.18 2.181l-1.359-8.77c-.07-.665.613-.623.702-.295 1.629 5.92 4.268 8.017 8.99 8.428 1.308.09 4.14-.316 5.224-1.837.8-.986.922-2.519.462-3.713-.857-2.278-3.832-2.703-5.866-3.282l-1.391-.364c-4.519-1.168-8.177-2.762-8.761-6.76-.366-2.444-.085-5.179 2.653-7.041 4.015-2.615 9.997-2.557 14.158-1.015l1.395 6.395Z" class="h"/><path d="M69.927 75.24a3.384 3.384 0 0 1-2.627-2.785l-1.359-8.766-.016-.107c-.011-.108-.031-.272-.031-.504-.015-.795.283-1.892 1.068-2.685.054-.056.108-.109.164-.16-.931-1.228-1.61-2.72-1.828-4.385-.1-.66-.167-1.371-.167-2.121 0-1.345.217-2.844.897-4.318.67-1.472 1.825-2.861 3.364-3.896l.056-.036c2.985-1.929 6.446-2.625 9.748-2.635 2.617.004 5.162-.07 7.423.764v.52c1.08.397 1.879.802 2.125 1.925v.518l1.374 6.298c.092.349.148.723.148 1.114.016.568-.146 1.268-.492 1.894 1.164 1.093 2.152 2.53 2.652 4.283.304 1.031.486 2.178.486 3.415a11.62 11.62 0 0 1-3.842 8.695c-3.453 3.035-7.877 3.74-11.89 3.765-2.606 0-5.11-.336-7.253-.794Zm3.497-18.254c.976.674 2.701 1.316 4.824 1.854l1.393.363.071.02c1.243.427 3.732.627 6.141 2.57-.264-.655-.612-1.006-1.438-1.53-.92-.56-2.421-1.065-4.186-1.562l-.057-.017-1.876-.577c-.668-.195-1.674-.424-2.782-.783-1.022-.344-2.172-.777-3.305-1.643.21.483.55.819 1.215 1.305Zm14.413-3.517 2.303-.502-2.303.502ZM76.133 50.88v-.002.002Z" class="h"/><path d="m75.657 40.618 2.828-.17.413 6.868-2.828.17z" class="h"/><path d="m72.702 47.688-.414-6.867a3.396 3.396 0 0 1 .842-2.442 3.387 3.387 0 0 1 2.324-1.129l2.828-.17a3.372 3.372 0 0 1 3.57 3.165l.413 6.867-2.827.17 2.827-.17a3.35 3.35 0 0 1-.843 2.442 3.346 3.346 0 0 1-2.322 1.13l-2.829.17c-.068.003-.137.007-.204.007a3.373 3.373 0 0 1-3.365-3.173ZM77.804 71.439l2.829-.16.352 6.219-2.829.16z" class="h"/><path d="M75.906 80.175a3.356 3.356 0 0 1-1.12-2.327l-.35-6.22 3.37-.189-3.37.19a3.372 3.372 0 0 1 3.18-3.559l2.826-.16a3.375 3.375 0 0 1 3.56 3.18l.35 6.219a3.371 3.371 0 0 1-3.177 3.557l-2.828.161c-.067.003-.13.006-.197.006-.83 0-1.62-.3-2.244-.858ZM39.001 45.897v15.55c0 .54-.753.54-.807 0-.968-8.232-3.551-12.162-9.471-14.529-2.045-.807-5.275-.753-7.535.754-5.435 3.605-6.028 12.27-6.082 16.361-.108 3.711.754 13.453 5.76 16.95 2.314 1.67 5.65 1.885 8.18 1.024 5.113-1.939 7.426-6.405 9.472-13.724.16-.592.86-.43.86.053v15.661c0 .702-.86.755-.86 0 0-1.99-1.131-2.69-2.1-2.85-1.13-.216-4.627 1.452-5.704 1.829-1.4.43-4.091.807-5.704.807-5.975-.055-12.11-2.315-16.093-9.096-3.281-5.49-3.604-13.454-.43-19.373 3.552-6.674 9.58-9.688 15.5-10.01 1.776-.056 4.252.214 6.081.807.646.161 5.543 2.207 6.19 2.098 1.29-.16 2.743-2.905 2.743-2.313Z" class="h"/><path d="M36.094 86.616a3.919 3.919 0 0 1-.873-1.8 21.66 21.66 0 0 0-.664.248c-1.011.39-1.942.815-2.723 1.094l-.13.045c-1.963.572-4.586.93-6.726.955-3.396-.033-6.96-.691-10.298-2.396-3.337-1.694-6.39-4.46-8.66-8.343-2.096-3.517-3.119-7.673-3.123-11.854.001-3.722.818-7.493 2.611-10.836 4.093-7.76 11.386-11.463 18.294-11.795l.072-.003c.187-.007.378-.01.573-.01 2.05.011 4.413.28 6.571.952.237.066.36.113.542.176.2.07.417.152.66.245.485.182 1.064.407 1.658.63.564.22 1.185.444 1.694.62.178-.217.375-.47.618-.754.15-.16.248-.32.743-.694.3-.164.686-.592 2.027-.66a3.426 3.426 0 0 1 1.864.556c.588.383.966.897 1.169 1.301.399.832.365 1.283.382 1.603v15.551c.023.916-.397 2.052-1.18 2.762a3.812 3.812 0 0 1-.832.59c.433.174.835.43 1.194.761.725.66 1.21 1.735 1.196 2.778l-.001 15.658c.01.877-.306 1.907-1.015 2.676a3.792 3.792 0 0 1-2.802 1.245l-.042.001a3.775 3.775 0 0 1-2.799-1.302Zm-13.04-36.133c-1.699 1.095-2.95 3.335-3.664 6.056-.722 2.686-.888 5.63-.91 7.538l-.001.06c-.005.162-.009.333-.009.514-.004 1.768.24 4.818.988 7.576.719 2.796 2.036 5.148 3.38 6.02.72.533 1.9.886 3.113.88.697 0 1.388-.113 1.952-.297 1.862-.74 3.018-1.728 4.196-3.5 1.167-1.787 2.19-4.436 3.16-7.934a3.939 3.939 0 0 1 1.317-2.032 3.64 3.64 0 0 1 .629-.41 3.808 3.808 0 0 1-1.064-.647c-.728-.606-1.218-1.584-1.303-2.49-.448-3.836-1.26-6.336-2.35-7.988-1.097-1.65-2.484-2.743-5.007-3.773-.356-.148-1.027-.287-1.729-.283h-.043c-1.012 0-2.052.29-2.656.71ZM11.46 56.911c-1.195 2.218-1.817 4.929-1.815 7.654-.004 3.058.79 6.1 2.181 8.416.456.77.934 1.461 1.433 2.082-.113-.364-.22-.726-.32-1.086-.949-3.559-1.212-7.016-1.217-9.326 0-.243.004-.47.01-.675.033-2.187.19-5.613 1.136-9.175l.048-.176a17.841 17.841 0 0 0-1.456 2.286Z" class="h"/><path d="M68.473 74.144c-3.49 3.017-4.973 3.486-7.574 3.06-1.553-.224-3.012-1.11-3.768-2.974-.158-.476-.27-.89-.507-2-4.79 2.605-9.673 4.288-13.04 1.657-2.053-1.483-2.427-3.631-1.984-5.551.958-4.338 5.891-5.166 9.65-6.104l6.954-1.898.402-2.831c.437-3.056.895-5.878-.2-6.542-.778-.508-1.888-.667-3.133-.277-3.021.93-2.997 3.144-4.368 6.005-.704 1.371-1.576 2.325-3.123 2.444-1.141.064-2.348-.22-3.061-1.172-.612-.88-.66-2.132-.216-3.258 1.1-2.959 6.374-4.191 8.484-4.684 2.212-.421 9.049-.695 11.477 1.748 2.119 2.227 1.446 5.36.978 8.635l-1.477 10.383c-.348 2.442-.642 3.704.088 4.149.778.506 2.697-.637 3.878-1.375.5-.325.928.244.54.586Zm-19.18-5.335c-.03 1.412.287 2.76 1.438 3.432 1.578.85 3.72.133 5.947-1.19l1.36-9.551c-2.346.574-4.592 1.216-5.638 1.803-2.601 1.557-3.052 3.531-3.106 5.506Z" class="h"/><path d="M62.357 80.712a12.35 12.35 0 0 1-1.967-.173c-2.055-.244-4.306-1.5-5.67-3.625-2.242.96-4.579 1.643-7.059 1.67-2.048.017-4.27-.574-6.093-1.99-2.42-1.712-3.562-4.488-3.509-6.844 0-.757.094-1.486.246-2.14a8.952 8.952 0 0 1 2.21-4.23c.86-.916.795-1.592 1.772-2.116-.477-.342.111-.769-.268-1.278l-.072-.1c-.8-1.157-1.112-2.457-1.113-3.675 0-.92.173-1.821.508-2.686.565-1.507 1.56-2.587 2.563-3.382 1.015-.797 2.086-1.356 3.129-1.808 2.076-.888 4.11-1.348 5.187-1.602l.135-.029c1.097-.206 2.554-.334 4.285-.34 1.587.004 3.35.117 5.101.497 1.737.405 3.543.993 5.116 2.526l.053.054c1.892 1.958 2.42 4.513 2.39 6.522-.007 1.82-.315 3.444-.517 4.914l-1.321 9.287c.246-.05.503-.078.765-.078 2.057.004 3.765 1.668 3.767 3.752.02 1.084-.536 2.185-1.26 2.81l-.057.05c-1.486 1.279-2.72 2.232-4.067 2.94-1.299.696-2.79 1.075-4.164 1.075l-.09-.001Zm-2.09-7.753c.071-.87.224-1.66.359-2.648l1.476-10.381c.234-1.609.458-2.998.45-3.967-.017-.643-.07-1.025-.176-1.309-.1 1.108-.274 2.214-.428 3.323l-.404 2.833a3.42 3.42 0 0 1-.135.58c.007.194-.004.391-.032.587l-1.359 9.548a3.02 3.02 0 0 1-.044.242c.15.684.221.955.293 1.192ZM45.45 67.987c-.278.31-.434.569-.563 1.116-.053.227-.08.45-.078.647.052.635.079.857.75 1.4l.107.08c.199.15.395.269.608.36-.284-.926-.355-1.799-.358-2.6 0-.11 0-.205.003-.293h.001c.011-.365.033-.759.078-1.173a3.05 3.05 0 0 0-.548.463ZM120.363 79.858c.842 0 .898 1.233 0 1.233H105.84c-.899 0-.842-1.233 0-1.233 1.85 0 3.7-.28 3.7-3.366V64.605c0-2.131.225-5.048-1.515-6.283-.895-.615-2.859-1.4-8.355 2.244v15.926c0 3.085 1.851 3.366 3.702 3.366.84 0 .896 1.233 0 1.233H88.847c-.897 0-.841-1.233 0-1.233 1.794 0 3.702-.28 3.702-3.366V50.08c0-4.599-.168-5.16-4.15-6.45-.73-.224-.73-.785-.056-.896 3.421-.617 8.187-2.076 11.327-3.42v19.85c4.543-3.084 10.15-5.719 13.966-3.309 3.307 2.131 3.027 5.217 3.027 8.188v12.45c0 3.084 1.907 3.365 3.7 3.365Z" class="h"/><path d="M120.363 84.466H105.84a3.885 3.885 0 0 1-1.237-.186 3.86 3.86 0 0 1-1.233.186H88.847c-.972.022-2.161-.402-2.926-1.224a3.965 3.965 0 0 1-1.102-2.752 4.005 4.005 0 0 1 1.061-2.724c.721-.81 1.916-1.305 2.967-1.282.12 0 .228 0 .326-.005V50.08c.014-1.311-.769-1.716-.82-2.1l-.828-.496c-.27-.137.695-.367-.166-.642h.001a4.34 4.34 0 0 1-1.708-.995 3.759 3.759 0 0 1-1.184-2.719c-.02-1.181.638-2.286 1.335-2.834a4.137 4.137 0 0 1 1.995-.892c3.065-.55 7.735-1.978 10.545-3.191a3.356 3.356 0 0 1 3.185.286 3.36 3.36 0 0 1 1.516 2.817V53.33c2.217-1.028 4.595-1.748 7.127-1.789 1.745-.006 3.618.414 5.29 1.477 1.991 1.25 3.346 3.1 3.941 4.91.614 1.812.632 3.459.639 4.816 0 .457-.005.89-.005 1.299v12.436c.099.002.21.005.327.005 1.055-.023 2.25.473 2.965 1.282a4.002 4.002 0 0 1 1.06 2.724 3.98 3.98 0 0 1-1.096 2.75c-.746.802-1.895 1.226-2.854 1.226h-.075Zm0-1.235Zm-7-5.514a9.604 9.604 0 0 1-.076-1.225V64.043c0-.455.004-.89.004-1.299.008-1.19-.076-2.077-.27-2.619-.14-.352-.257-.61-.545-.9.042.143.079.284.11.421.314 1.34.332 2.543.338 3.566 0 .524-.01 1-.008 1.39v11.89c-.002.414-.025.822-.076 1.225h.522Zm-16.993 0a9.96 9.96 0 0 1-.076-1.225V60.566c0-.238.026-.474.075-.703a3.41 3.41 0 0 1-.074-.699V44.148c-.366.12-.735.235-1.106.348a3.6 3.6 0 0 1 .06.143c.342.805.484 1.575.565 2.311.105.984.107 1.958.11 3.13v26.412c-.001.412-.025.822-.077 1.225h.523Zm8.233-1.045c.41-.131.835-.197 1.237-.188.119 0 .227 0 .324-.005V64.603c0-.484.01-.95.01-1.391 0-.634-.024-1.212-.084-1.63a3.412 3.412 0 0 0-.075-.394c-.433.07-1.409.357-2.97 1.249v14.042c.098.003.207.005.325.005.024-.002.047-.002.07-.002.381 0 .779.067 1.163.19Z" class="h"/><path d="M86.842 53.685c.255.819-.531.846-.677.522-2.052-4.578-3.388-6.584-8.105-6.942-1.02-.062-3.487.08-4.526 1.483-.649.8-.775 1.774-.392 2.747.739 2.236 3.95 2.75 6.1 3.372l1.922.59c3.603 1.037 6.987 2.154 8.026 5.655.694 2.352.562 5.974-2.375 8.646-3.97 3.566-11.22 3.247-16.18 2.181l-1.359-8.77c-.07-.665.613-.623.702-.295 1.629 5.92 4.268 8.017 8.99 8.428 1.308.09 4.14-.316 5.224-1.837.8-.986.922-2.519.462-3.713-.857-2.278-3.832-2.703-5.866-3.282l-1.391-.364c-4.519-1.168-8.177-2.762-8.761-6.76-.366-2.444-.085-5.179 2.653-7.041 4.015-2.615 9.997-2.557 14.158-1.015l1.395 6.395Z" class="i"/><path d="m70.353 73.259-.91-.196-1.504-9.713-.005-.037a2.319 2.319 0 0 1-.013-.234c-.007-.414.14-.917.497-1.276.351-.363.82-.514 1.217-.512.64.008 1.362.338 1.645 1.225.777 2.83 1.756 4.57 2.94 5.637 1.18 1.063 2.666 1.607 4.843 1.802.074.006.169.008.278.008a7.74 7.74 0 0 0 2.177-.34c.76-.231 1.361-.617 1.575-.941l.021-.033.03-.035c.254-.304.43-.829.426-1.39a2.773 2.773 0 0 0-.18-.997c-.244-.649-.799-1.102-1.75-1.508-.934-.397-2.128-.644-3.193-.944l-1.387-.362c-2.317-.603-4.49-1.313-6.273-2.506-1.78-1.174-3.157-2.977-3.486-5.36a12.264 12.264 0 0 1-.145-1.822c-.032-2.239.817-4.834 3.396-6.55 2.54-1.65 5.637-2.303 8.645-2.307 2.38.001 4.711.414 6.719 1.156l.692.256 1.541 7.072c.058.199.092.41.092.628.01.434-.174.966-.546 1.305a1.735 1.735 0 0 1-1.188.465c-.57-.017-1.187-.228-1.574-.991-1.008-2.267-1.819-3.758-2.75-4.626-.925-.86-2.027-1.343-4.21-1.522a6.714 6.714 0 0 0-2.107.223c-.607.168-1.059.448-1.245.717l-.02.023-.018.025c-.228.287-.303.526-.307.811 0 .172.034.365.121.589l.015.036.012.036c.171.552.732 1.04 1.759 1.469 1 .42 2.288.702 3.454 1.036l1.9.584c1.817.525 3.661 1.077 5.29 2.04 1.623.946 3.042 2.415 3.657 4.53.25.845.404 1.81.404 2.843.008 2.319-.816 5.05-3.171 7.189-2.831 2.515-6.778 3.236-10.537 3.247-2.428-.002-4.805-.317-6.827-.75Zm3.275-2.18a8.54 8.54 0 0 1-1.22-.924 9.46 9.46 0 0 1-.814-.839l.23 1.483c.58.106 1.183.2 1.804.28Zm-3.772-17.354c0 .464.043.943.115 1.425.252 1.61 1 2.603 2.323 3.516 1.322.898 3.24 1.568 5.444 2.133l1.42.372c.94.272 2.25.526 3.526 1.058 1.259.519 2.619 1.42 3.23 3.039.239.622.356 1.285.356 1.956 0 .448-.053.905-.168 1.348 1.565-1.532 2.078-3.337 2.085-4.999a7.43 7.43 0 0 0-.292-2.077c-.424-1.388-1.216-2.228-2.446-2.975-1.224-.732-2.873-1.256-4.682-1.773l-1.9-.584c-1.005-.295-2.397-.584-3.724-1.133-1.288-.536-2.686-1.412-3.265-3.062a4.312 4.312 0 0 1-.302-1.559 3.797 3.797 0 0 1 .058-.678c-1.39 1.138-1.748 2.438-1.778 3.993Zm15.696.36.344-.105-.344.106Zm1.808-.513.8-.174-.8.174Zm-3.04-5.119-.03-.132a6.873 6.873 0 0 0-.144-.045c.06.058.116.117.173.177Z" class="i"/><path d="m75.657 40.618 2.828-.17.413 6.868-2.828.17z" class="i"/><path d="m74.228 39.351 5.523-.33.493 8.212-1.347.083 1.347-.083.083 1.349-5.525.331-.575-9.562Zm2.857 2.534.251 4.172.133-.008-.251-4.172-.133.008ZM77.804 71.439l2.829-.16.352 6.219-2.829.16z" class="i"/><path d="m76.457 71.514 1.348-.076.076 1.348-.076-1.348-1.348.076-.076-1.348 5.524-.31.504 8.913-5.525.313-.427-7.568Zm2.97 4.718.133-.005-.198-3.525-.133.008.198 3.522ZM39.001 45.897v15.55c0 .54-.753.54-.807 0-.968-8.232-3.551-12.162-9.471-14.529-2.045-.807-5.275-.753-7.535.754-5.435 3.605-6.028 12.27-6.082 16.361-.108 3.711.754 13.453 5.76 16.95 2.314 1.67 5.65 1.885 8.18 1.024 5.113-1.939 7.426-6.405 9.472-13.724.16-.592.86-.43.86.053v15.661c0 .702-.86.755-.86 0 0-1.99-1.131-2.69-2.1-2.85-1.13-.216-4.627 1.452-5.704 1.829-1.4.43-4.091.807-5.704.807-5.975-.055-12.11-2.315-16.093-9.096-3.281-5.49-3.604-13.454-.43-19.373 3.552-6.674 9.58-9.688 15.5-10.01 1.776-.056 4.252.214 6.081.807.646.161 5.543 2.207 6.19 2.098 1.29-.16 2.743-2.905 2.743-2.313Z" class="i"/><path d="M37.627 85.292a1.96 1.96 0 0 1-.46-1.295c-.007-.748-.188-1.034-.335-1.204-.146-.163-.36-.266-.644-.318s0 0-.007-.001c-.228-.02-1.36.298-2.355.702-1.052.407-2.049.853-2.665 1.073l-.034.012-.018.005c-1.623.486-4.29.856-6.111.865-6.286-.024-13.026-2.53-17.24-9.752-1.88-3.148-2.834-6.97-2.837-10.814.001-3.422.76-6.876 2.373-9.885 3.769-7.109 10.304-10.399 16.65-10.727.162-.004.33-.007.506-.007 1.864.005 4.149.277 6.026.878.306.088.63.215 1.125.4.521.196 1.158.443 1.804.685 1.06.412 2.301.827 2.717.932l.028-.017c.096-.061.24-.176.389-.326.307-.296.633-.708.906-1.05.214-.246.277-.393.672-.708.133-.075.3-.25.845-.278.482-.05 1.128.424 1.24.774.155.34.142.522.15.66v15.552a1.76 1.76 0 0 1-.545 1.285 1.738 1.738 0 0 1-1.189.468c-.796.046-1.703-.669-1.764-1.595-.47-4.01-1.33-6.838-2.67-8.885-1.342-2.043-3.174-3.426-5.958-4.548-.647-.258-1.539-.425-2.474-.423-1.349-.004-2.774.343-3.818 1.047-2.31 1.518-3.713 4.256-4.5 7.22-.79 2.952-.954 6.044-.979 8.057-.004.175-.008.37-.008.577-.002 1.931.249 5.103 1.056 8.102.797 3.014 2.19 5.792 4.153 7.136 1.153.839 2.732 1.264 4.297 1.261a8.375 8.375 0 0 0 2.647-.418c2.273-.88 3.846-2.233 5.2-4.304 1.349-2.077 2.413-4.906 3.414-8.5.156-.744.966-1.418 1.736-1.376.89.002 1.776.74 1.778 1.784v15.661c.003.458-.157.948-.488 1.314a1.759 1.759 0 0 1-1.305.58h-.017c-.475 0-.97-.221-1.291-.599Zm-27.95-29.34C8.3 58.512 7.62 61.541 7.62 64.565c-.002 3.396.86 6.77 2.46 9.439 2.504 4.232 5.806 6.536 9.41 7.623-2.42-2.018-3.761-5.115-4.594-8.175-.889-3.317-1.148-6.653-1.15-8.8 0-.234.004-.455.01-.637.029-2.1.188-5.388 1.068-8.693.739-2.758 1.99-5.592 4.212-7.662-3.685 1.32-7.048 3.965-9.36 8.292ZM36.64 79.814c.437.072.924.226 1.386.505V74.04c-.576 1.419-1.218 2.702-1.964 3.857A14.55 14.55 0 0 1 34.3 80.14c.634-.203 1.258-.348 1.888-.365.158 0 .318.011.453.038Zm-.196-28.57c.455.7.855 1.45 1.205 2.258v-4.427c-.329.21-.72.382-1.21.47a1.711 1.711 0 0 1-.242.018c-.52-.022-.848-.13-1.31-.271a12.875 12.875 0 0 1 1.557 1.952ZM68.473 74.144c-3.49 3.017-4.973 3.486-7.574 3.06-1.553-.224-3.012-1.11-3.768-2.974-.158-.476-.27-.89-.507-2-4.79 2.605-9.673 4.288-13.04 1.657-2.053-1.483-2.427-3.631-1.984-5.551.958-4.338 5.891-5.166 9.65-6.104l6.954-1.898.402-2.831c.437-3.056.895-5.878-.2-6.542-.778-.508-1.888-.667-3.133-.277-3.021.93-2.997 3.144-4.368 6.005-.704 1.371-1.576 2.325-3.123 2.444-1.141.064-2.348-.22-3.061-1.172-.612-.88-.66-2.132-.216-3.258 1.1-2.959 6.374-4.191 8.484-4.684 2.212-.421 9.049-.695 11.477 1.748 2.119 2.227 1.446 5.36.978 8.635l-1.477 10.383c-.348 2.442-.642 3.704.088 4.149.778.506 2.697-.637 3.878-1.375.5-.325.928.244.54.586Zm-19.18-5.335c-.03 1.412.287 2.76 1.438 3.432 1.578.85 3.72.133 5.947-1.19l1.36-9.551c-2.346.574-4.592 1.216-5.638 1.803-2.601 1.557-3.052 3.531-3.106 5.506Z" class="i"/><path d="M62.356 78.688c-.557 0-1.107-.061-1.647-.149a5.994 5.994 0 0 1-4.83-3.802l-.016-.044-.013-.037a10.487 10.487 0 0 1-.136-.433c-2.682 1.33-5.402 2.322-8.052 2.336-1.73.005-3.46-.47-4.866-1.578-1.917-1.359-2.732-3.384-2.711-5.231 0-.588.072-1.165.197-1.705.573-2.669 2.491-4.318 4.512-5.256 2.036-.96 4.289-1.401 6.1-1.858l6.098-1.665.278-1.952c.237-1.656.467-3.218.463-4.257a4.34 4.34 0 0 0-.058-.784 1.173 1.173 0 0 0-.054-.21c-.24-.145-.569-.247-.993-.247-.28 0-.599.045-.96.159-1.21.407-1.538.802-2.005 1.618-.443.82-.8 2.12-1.558 3.714-.728 1.515-2.086 3.039-4.25 3.174-.127.005-.253.011-.38.011-1.288.003-2.826-.39-3.864-1.76-.527-.762-.75-1.65-.75-2.523 0-.678.133-1.357.379-1.978.823-2.097 2.757-3.222 4.595-4.038 1.862-.798 3.783-1.24 4.847-1.49l.02-.004.034-.007c.904-.172 2.297-.3 3.906-.303 2.963.052 6.558.318 8.802 2.448 1.432 1.492 1.845 3.377 1.833 5.126-.003 1.565-.284 3.119-.496 4.629l-1.478 10.384c-.175 1.196-.322 2.112-.347 2.633.192-.064.43-.16.669-.285.532-.26 1.116-.613 1.57-.896.288-.192.656-.317 1.035-.317.957.002 1.74.773 1.741 1.727a1.77 1.77 0 0 1-.6 1.314l-.897-1.008.881 1.022c-2.792 2.434-4.691 3.522-6.977 3.522h-.022Zm-1.24-2.817c.476.076.882.116 1.24.116.258 0 .507-.02.76-.065a2.201 2.201 0 0 1-.674-.946c-.157-.421-.187-.81-.19-1.189.006-.905.194-1.877.379-3.191l1.477-10.384c.225-1.564.472-3.023.47-4.25-.012-1.405-.273-2.394-1.07-3.243-.524-.6-1.788-1.058-3.272-1.332.155.543.195 1.09.197 1.67-.005 1.38-.26 2.988-.49 4.636l-.528 3.71h-.001l-1.489 10.458.018.086c.227 1.06.321 1.406.452 1.807.599 1.389 1.523 1.916 2.72 2.117ZM45.954 65.23c-1.625.796-2.653 1.727-3.04 3.414-.084.366-.13.74-.13 1.107.022 1.154.386 2.15 1.633 3.072.934.725 1.97 1.031 3.245 1.037.781.006 1.643-.127 2.556-.367-.056-.027-.112-.057-.168-.086-.84-.486-1.406-1.25-1.707-2.034-.309-.786-.4-1.597-.402-2.382 0-.076.001-.146.003-.213l1.35.032-1.35-.037c-.003-1.448.334-3.191 1.524-4.713-1.255.318-2.483.675-3.514 1.17Zm4.686 3.761c0 .56.077 1.053.213 1.394.144.346.296.532.517.667.252.135.533.205.912.207.767.014 1.905-.368 3.152-1.05l.983-6.896c-1.528.421-2.82.853-3.324 1.149-2.16 1.366-2.337 2.557-2.449 4.384-.002.054-.004.102-.004.145ZM48.9 52.676c-1.6.666-2.854 1.635-3.14 2.522-.134.338-.2.693-.2 1.011 0 .412.108.752.24.943.291.402.87.635 1.675.639.077 0 .157-.003.203-.004.96-.105 1.345-.486 2.01-1.681.63-1.303.947-2.538 1.589-3.774a5.95 5.95 0 0 1 .334-.58c-.853.234-1.812.537-2.71.924ZM120.363 79.858c.842 0 .898 1.233 0 1.233H105.84c-.899 0-.842-1.233 0-1.233 1.85 0 3.7-.28 3.7-3.366V64.605c0-2.131.225-5.048-1.515-6.283-.895-.615-2.859-1.4-8.355 2.244v15.926c0 3.085 1.851 3.366 3.702 3.366.84 0 .896 1.233 0 1.233H88.847c-.897 0-.841-1.233 0-1.233 1.794 0 3.702-.28 3.702-3.366V50.08c0-4.599-.168-5.16-4.15-6.45-.73-.224-.73-.785-.056-.896 3.421-.617 8.187-2.076 11.327-3.42v19.85c4.543-3.084 10.15-5.719 13.966-3.309 3.307 2.131 3.027 5.217 3.027 8.188v12.45c0 3.084 1.907 3.365 3.7 3.365Z" class="i"/><path d="M120.363 82.44H105.84a2.06 2.06 0 0 1-1.235-.395 2.065 2.065 0 0 1-1.233.395H88.847c-.522.01-1.096-.206-1.467-.601a1.944 1.944 0 0 1-.536-1.35c.002-.475.166-.956.523-1.348.355-.397.93-.643 1.48-.633.835.012 1.51-.107 1.788-.308.247-.187.531-.41.563-1.708V50.08c.008-1.71-.043-2.807-.211-3.351-.188-.527-.232-.608-.894-1.001-.44-.236-1.14-.5-2.092-.808a2.362 2.362 0 0 1-.953-.538 1.74 1.74 0 0 1-.554-1.253c-.01-.528.28-1.02.608-1.281.333-.271.682-.39 1-.444 3.28-.586 8.022-2.037 11.038-3.333l1.88-.806v19.44c2.89-1.728 6.056-3.115 9.15-3.139 1.45-.004 2.901.332 4.195 1.155 1.645 1.046 2.643 2.437 3.123 3.867.488 1.43.528 2.848.53 4.156 0 .445-.005.878-.005 1.299v12.45c.032 1.296.317 1.52.563 1.707.277.201.952.32 1.787.308a2 2 0 0 1 1.478.633c.358.392.522.87.524 1.347a1.95 1.95 0 0 1-.535 1.35c-.363.389-.922.602-1.436.602h-.03Zm0-1.232Zm-4.068-1.467c-.65-.798-1.006-1.934-.983-3.249V64.043c0-.443.006-.877.006-1.299.004-1.24-.061-2.354-.382-3.277-.329-.922-.85-1.701-2.022-2.47-.799-.503-1.693-.73-2.743-.732-.781-.008-1.638.13-2.536.383.496.155.894.374 1.172.575 1.048.744 1.563 1.852 1.81 2.895.25 1.055.28 2.123.281 3.092 0 .5-.01.974-.01 1.395v11.887c.024 1.31-.32 2.447-.964 3.25h6.37Zm-17.008 0c-.646-.802-.99-1.938-.966-3.249v-35.19a66.301 66.301 0 0 1-6.82 2.119c.648.361 1.224.844 1.615 1.484.822 1.418.757 2.878.782 5.175v26.412c.024 1.315-.332 2.451-.98 3.25h6.369Zm5.318-.825a2.041 2.041 0 0 1 1.235-.408c.867.013 1.54-.11 1.8-.305.235-.177.52-.402.55-1.71V64.605c0-.458.01-.93.01-1.396.001-.897-.042-1.784-.208-2.461-.17-.69-.417-1.092-.731-1.314-.239-.15-.421-.276-1.011-.29-.8-.01-2.444.385-5.23 2.154v15.193c.032 1.309.315 1.532.55 1.711.26.195.935.318 1.802.305h.031c.427 0 .866.152 1.202.408Z" class="i"/><path d="M86.168 53.012c.255.818-.531.843-.678.52-2.052-4.579-3.389-6.583-8.106-6.942-1.02-.062-3.485.08-4.524 1.484-.651.801-.776 1.772-.393 2.747.738 2.236 3.948 2.747 6.1 3.372l1.92.59c3.605 1.037 6.99 2.152 8.028 5.654.695 2.35.562 5.974-2.375 8.646-3.97 3.567-11.221 3.247-16.18 2.18l-1.358-8.767c-.07-.668.611-.625.701-.297 1.63 5.92 4.27 8.016 8.992 8.427 1.306.09 4.14-.315 5.222-1.835.8-.986.922-2.52.463-3.713-.858-2.28-3.834-2.703-5.866-3.284l-1.392-.362c-4.518-1.168-8.178-2.762-8.76-6.76-.367-2.443-.086-5.18 2.652-7.041 4.015-2.616 9.996-2.558 14.159-1.016l1.395 6.397Z" class="f"/><path d="m74.98 39.944 2.829-.171.415 6.867-2.829.171zM77.132 70.762l2.829-.157.346 6.22-2.829.157zM38.326 45.22v15.553c0 .538-.753.538-.806 0-.969-8.233-3.552-12.162-9.471-14.529-2.047-.808-5.276-.754-7.536.753-5.435 3.606-6.027 12.27-6.081 16.36-.109 3.713.753 13.453 5.759 16.953 2.313 1.668 5.65 1.883 8.18 1.023 5.113-1.938 7.426-6.406 9.471-13.726.161-.59.862-.43.862.055v15.66c0 .701-.862.754-.862 0 0-1.989-1.13-2.69-2.098-2.851-1.13-.216-4.628 1.453-5.706 1.83-1.399.43-4.09.806-5.704.806-5.973-.053-12.11-2.314-16.091-9.093-3.283-5.491-3.606-13.454-.43-19.375 3.551-6.674 9.579-9.689 15.499-10.01 1.776-.054 4.251.215 6.08.807.646.161 5.545 2.207 6.19 2.1 1.292-.163 2.744-2.908 2.744-2.315Z" class="f"/><path d="M67.798 73.47c-3.488 3.016-4.971 3.485-7.573 3.057-1.554-.221-3.013-1.108-3.769-2.97-.158-.477-.27-.891-.507-2.001-4.79 2.605-9.674 4.289-13.038 1.656-2.056-1.482-2.428-3.63-1.985-5.55.956-4.338 5.89-5.166 9.649-6.103l6.954-1.899.403-2.832c.435-3.055.893-5.877-.2-6.542-.779-.507-1.888-.666-3.134-.276-3.02.929-2.997 3.141-4.367 6.005-.705 1.372-1.577 2.325-3.124 2.444-1.142.064-2.347-.22-3.062-1.17-.61-.883-.658-2.135-.215-3.262 1.1-2.959 6.374-4.191 8.485-4.683 2.211-.422 9.048-.696 11.476 1.748 2.118 2.227 1.445 5.361.977 8.636l-1.477 10.381c-.348 2.443-.64 3.704.09 4.149.778.508 2.695-.635 3.877-1.375.5-.324.928.245.54.587Zm-19.18-5.336c-.03 1.41.287 2.76 1.439 3.432 1.577.849 3.718.133 5.945-1.19l1.36-9.55c-2.345.573-4.59 1.214-5.636 1.803-2.602 1.557-3.053 3.53-3.108 5.505ZM119.69 79.184c.84 0 .896 1.232 0 1.232h-14.526c-.896 0-.84-1.232 0-1.232 1.852 0 3.701-.282 3.701-3.366V63.93c0-2.133.224-5.048-1.513-6.282-.898-.617-2.862-1.402-8.356 2.243v15.927c0 3.084 1.85 3.366 3.7 3.366.841 0 .898 1.232 0 1.232H88.172c-.897 0-.84-1.232 0-1.232 1.795 0 3.702-.282 3.702-3.366V49.404c0-4.598-.168-5.16-4.15-6.448-.728-.225-.728-.786-.056-.898 3.421-.617 8.188-2.075 11.329-3.42V58.49c4.541-3.085 10.15-5.72 13.965-3.31 3.308 2.132 3.027 5.217 3.027 8.188v12.45c0 3.084 1.906 3.366 3.701 3.366Z" class="k"/></g></svg>