<svg xmlns="http://www.w3.org/2000/svg" id="b" viewBox="0 0 278.12 101.816"><defs><style>.d{fill:#fff}.e{fill:#28903b}.f{fill:#92278f}.g{fill:#008eb0}.h{fill:#556292}</style></defs><g id="c"><path d="M186.459 9.975c2.224 7.087-1.717 14.634-8.8 16.863-7.088 2.22-14.632-1.722-16.858-8.803-2.224-7.087 1.717-14.634 8.8-16.857 7.087-2.227 14.631 1.716 16.858 8.797Z" class="h"/><path d="M219.271 22.01c4.287 13.647-3.304 28.184-16.95 32.467-13.647 4.287-28.184-3.304-32.468-16.95s3.305-28.181 16.955-32.467c13.643-4.284 28.18 3.307 32.463 16.95Z" class="d"/><path d="M217.42 22.594c3.96 12.62-3.062 26.065-15.68 30.029-12.627 3.964-26.071-3.056-30.032-15.68-3.964-12.62 3.056-26.065 15.68-30.029 12.624-3.964 26.068 3.056 30.032 15.68Z" style="fill:#a2cc95"/><path d="M217.42 22.594c3.96 12.62-3.062 26.065-15.68 30.029-12.627 3.964-26.071-3.056-30.032-15.68-3.964-12.62 3.056-26.065 15.68-30.029 12.624-3.964 26.068 3.056 30.032 15.68Z" class="g"/><path d="M275.923 40.01c7.869 25.058-6.068 51.745-31.122 59.608-25.058 7.87-51.744-6.064-59.61-31.122-7.87-25.055 6.064-51.744 31.124-59.611 25.055-7.866 51.742 6.068 59.608 31.125Z" class="d"/><path d="M273.562 42.043c7.458 23.752-5.751 49.05-29.5 56.509-23.756 7.456-49.054-5.751-56.51-29.505-7.456-23.751 5.748-49.049 29.505-56.508 23.75-7.456 49.048 5.751 56.505 29.504Z" class="f"/><path d="M229.062 48.55c5.555 0 10.8-1.142 12.548-7.67 1.653-6.172-2.844-8.464-8.311-8.464-3.615 0-6.6.621-9.89 3.351 4.051 0 6.94 1.414 5.73 5.908-1.152 4.32-5.728 6.257-9.613 6.257-4.579 0-6.97-3.26-5.718-7.93 3.003-11.2 16.087-14.64 25.262-14.64 8.994 0 22.237 2.555 19.143 14.107-1.96 7.32-7.992 10.406-14.845 11.64l-.047.178c6.976 1.94 12.015 4.844 9.627 13.756-3.542 13.223-15.132 16.308-28.265 16.308-11.198 0-22.62-2.115-19.292-14.548 1.54-5.73 5.587-8.993 11.226-8.993 4.058 0 6.674 2.735 5.543 6.965-1.157 4.322-4.94 6.258-8.997 6.258.984 1.942 5.566 3.264 7.86 3.264 6.434 0 13.74-1.938 15.841-9.785 2.104-7.846-3.079-8.904-9.691-8.904l1.89-7.057Z" class="d"/><path d="M207.58 1.111c8.58-1.654 21.849-2.21 37.804 3.781 15.826 5.939 23.106 18.165 13.781 11.446C243.078 4.748 216.837.114 207.58 1.11Z" class="g"/><path d="M174.023 4.45C185.4 2.224 200.8 1.145 223.206 8.924c4.321 1.5 23.616 17.024-.823 6.203-11.373-5.035-32.408-12.44-48.36-10.677Z" class="d"/><path d="M195.518 4.515c-3.85-.633-10.667-1.307-19.316-.47 9.762-1.674 22.975-2.484 42.2 3.361 3.705 1.127 20.202 11.918-.768 3.788-5.766-2.233-13.31-5.225-22.116-6.679Z" class="h"/><path d="M1.843 55.728C.513 59.381 0 62.492 0 65.124c0 4.154 1.283 7.113 2.67 9.097 3.281 4.684 9.425 7.26 17.302 7.26 12.887 0 22.807-6.954 27.217-19.076l1.148-3.147h-8.66l-.61 1.419c-1.944 4.511-6.297 12.082-13.601 12.082-1.55 0-1.796-.352-1.89-.487-.574-.817-1.365-4.218 3.67-18.05C32.69 39.27 36.308 39.27 37.67 39.27c3.709 0 4.668 5.338 4.822 9.815l.076 2.265h7.413l7.095-19.495h-8.061l-.583.569-1.856 1.782c-1.716-1.318-4.868-3.648-11.595-3.648-15.742 0-28.588 12.665-33.138 25.171Z" class="d"/><path d="m53.728 34.201-5.387 14.804h-3.507c-.161-4.74-1.254-12.08-7.164-12.08-3.507 0-7.523 2.471-12.626 16.498-6.947 19.084-4.255 21.685.422 21.685 7.725 0 12.817-6.688 15.756-13.507h3.763C40.711 73.36 31.397 79.134 19.972 79.134c-13.376 0-21.313-7.796-15.926-22.6 4.44-12.202 16.91-23.63 30.935-23.63 8.44 0 10.35 4.022 11.654 4.022.905 0 1.813-1.427 3.326-2.725h3.768Z" class="e"/><path d="M74.194 31.336 47.031 68.792c-1.462 2.018-4.167 3.293-7.618 3.592l-1.493.123-2.978 8.191H94.02l3.03-8.326H93.7c-2.499 0-2.973-.504-2.982-3.179l-.41-37.857H74.195Zm-6.942 23.678c.023 2.443.035 3.547.049 4.89h-3.462c1.3-1.867 1.766-2.532 3.413-4.89Zm-.048 13.605c-.012 1.315-.043 2.763-.21 3.223-.007-.015-.724.53-4.33.53h-4.09c-1.726 0-2.52-.179-2.89-.308l.03-.113c.29-.795.997-1.84 1.68-2.846 0 0 .184-.278.318-.486h9.492Z" class="d"/><path d="m38.292 78.351 1.323-3.635c4.56-.388 7.618-2.21 9.315-4.546l26.463-36.488H87.99l.382 35.52c.015 3.697 1.304 5.514 5.328 5.514l-1.323 3.635H61.34l1.323-3.635c4.87 0 6.112-.906 6.536-2.072.428-1.175.328-3.767.367-6.367H56.449c-.952 1.555-2.37 3.309-2.94 4.873-.827 2.268.26 3.566 5.065 3.566l-1.322 3.635h-18.96ZM59.344 62.25H69.67l-.147-14.414H69.4L59.344 62.25Z" class="e"/><path d="M125.093 24.132s-1.768 4.857-2.35 6.454c-9.428 1.566-17.048 7.432-20.043 15.67-.807 2.217-1.157 4.155-1.157 5.86 0 4.576 2.52 7.444 5.42 9.498-.325-.03-.633-.094-.976-.094-5.243 0-9.594 3.012-11.355 7.855-.371 1.02-.556 2.015-.556 2.984a7.17 7.17 0 0 0 1.186 3.965c1.828 2.818 5.514 4.427 8.959 5.156-.686 1.88-2.56 7.034-2.56 7.034h10.201s1.992-5.471 2.59-7.118c10.43-1.993 18.706-8.227 21.75-16.591.741-2.03 1.063-3.83 1.063-5.43 0-5.223-3.425-8.334-6.98-10.527.254.016.448.078.723.078 5.155 0 9.262-2.836 10.99-7.582.422-1.16.589-2.2.589-3.115 0-1.652-.555-2.9-1.139-3.76-1.804-2.649-5.343-3.734-8.396-4.167l2.244-6.17h-10.203Zm-3.461 18.78c0-.194.044-.397.123-.61.578-1.595 1.814-2.824 3.252-3.39-.178.372-.41.715-.55 1.099-.42 1.154-.586 2.16-.586 3.028 0 1.138.31 1.973.676 2.658-2.117-1.216-2.915-1.963-2.915-2.786Zm-8.65 27.453c.304-.838.454-1.68.454-2.496 0-1.076-.315-2.083-.828-2.986 2.92 1.58 4.043 2.497 4.043 3.654 0 .34-.087.701-.237 1.11-.799 2.195-2.9 3.305-4.938 3.615.53-.758 1.05-1.647 1.506-2.897Z" class="d"/><path d="M126.736 26.478h5.211l-2.147 5.9c5.508.138 12.262 1.92 9.993 8.163-1.645 4.53-5.417 6.038-8.782 6.038-4.05 0-5.65-2.194-4.352-5.76.528-1.444 1.416-2.95 2.666-4.116-.67-.413-1.678-.484-2.64-.484-3.017 0-5.963 2.058-7.135 5.286-3.094 8.499 20.141 6.86 14.451 22.503-3.223 8.847-12.16 13.988-21.307 15.363l-2.472 6.797h-5.212l2.398-6.59c-4.885-.342-12.895-3.017-10.57-9.396 1.371-3.776 4.69-6.315 9.15-6.315 4.184 0 5.863 2.744 4.79 5.698-1.62 4.46-3.9 4.117-4.3 5.212-.203.548 1.368.964 3.902.964 3.161 0 6.91-1.645 8.24-5.288 3.593-9.879-19.76-6.793-13.719-23.394 3.073-8.437 11.21-13.45 19.585-14.402l2.25-6.179Z" class="e"/><path d="m144.096 31.336-3.034 8.326h3.353c1.468 0 2.192.114 2.572.202-.044.19-.111.43-.246.804l-10.589 29.09c-.63 1.742-.947 2.614-5.35 2.614h-1.643l-3.03 8.326h60.512l3.026-8.326h-3.346c-1.47 0-2.188-.11-2.569-.2.044-.188.108-.436.246-.808l10.59-29.092c.634-1.74.95-2.61 5.348-2.61h1.64l3.03-8.326h-60.51Zm25.722 9.249c.267-.741.343-.833 1.477-.932l1.24-.102c-.338.925-3.288 9.029-4.123 11.329h-2.346a41138.95 41138.95 0 0 1 3.752-10.295ZM165.24 59.59c-1.43 3.934-4.315 11.857-4.315 11.857-.296.82-.472.863-1.257.937l-1.172.114c-.111-.015-.2-.026-.281-.038l4.684-12.87h2.341Z" class="d"/><path d="m172.429 33.682-1.325 3.633c-1.608.135-2.783.522-3.492 2.467l-4.895 13.444h7.336l4.892-13.444c.71-1.945-.187-2.332-1.438-2.467l1.327-3.633h26.423l-1.321 3.633c-5.004 0-6.466 1.17-7.553 4.154l-10.588 29.095c-1.087 2.983-.475 4.152 4.526 4.152l-1.324 3.635h-26.426l1.325-3.635c1.344-.126 2.525-.516 3.231-2.467l5.46-15.003h-7.33l-5.463 15.003c-.709 1.951.185 2.34 1.7 2.467l-1.325 3.635h-26.688l1.322-3.635c5.003 0 6.468-1.17 7.553-4.152l10.591-29.095c1.084-2.985.472-4.154-4.532-4.154l1.324-3.633h26.69Z" class="e"/><path d="M154.965 17.672c.179 1.76.132 4.497 2.22 7.262 2.072 2.743 5.579 3.346 3.733 1.915-3.182-2.474-5.607-7.32-5.953-9.177Z" class="f"/></g></svg>