<svg viewBox="48.6 32.5 303.5 304" xmlns="http://www.w3.org/2000/svg"><g><path fill="#0055A4" d="M295.2 68v.8c0 .7-.5 1.2-1.1 1.1-.5 0-.3-.4-.4-.7a32 32 0 0 0-3.1-8l-1-1.4c-1.3-1.4-2.3-3.1-4-4.3A7.9 7.9 0 0 0 282 54c-2.2-.3-3.8.8-5.1 2.4a9.6 9.6 0 0 0-2 5.8c-.3 5.2 1.8 9.3 5.5 12.8l6 4.5 4.5 3.2c1.9 1.4 3.3 3.2 4.6 5l.8 1c1.4 2.3 2.2 4.8 2.8 7.3a41.4 41.4 0 0 1-2.1 25.8 23 23 0 0 1-10 11 20 20 0 0 1-11.4 2.2c-3-.3-5.7-1.1-8.4-2.1l-2.2-.7c-1.5-.4-2.7.1-3.7 1.4-.3.3-.4.9-.9.8-.5-.1-.3-.8-.5-1.2-.2-1.9-.2-1.8-2-2l-15-2.2-1.3-.1-3.3-.5c-1-.2-1-.4-1.1-1.3v-2.8c0-.6.2-1 .8-1.3 1.3-.5 2-1.6 2.4-3 .7-2.1.6-4.4.3-6.6-.6-3.8-1.8-7.4-3.6-10.7l-1-1.5c-2-3-4.6-5.6-8.5-6.3-1.8-.3-2-.2-2.3 1.5-.9 5-2 9.9-2.7 14.8l-.6 6c-.1 1.1 0 2.2.2 3.2.2 1.1.8 2 2 2.5.6.3.8.7.8 1.4 0 2.3 0 2.3-2.2 2.3h-8.9c-1.2 0-2.5.3-3.8-.2-.5-.7-.2-1.5-.2-2.3 0-.3 0-.6.2-.8 1-.4 1.8-1.3 2.3-2.2a27 27 0 0 0 2.9-8.2l9-42.7 3.4-15.5c.2-1.1.4-2.3.3-3.5-.1-.9-.4-1.7-1.2-2.1-.2-.1-.2-.2-.3-.5-.3-2.5-.2-2.6 2.3-2.6h16.5c.7 0 1 .2.9.9v1c0 .7 0 1.1-.7 1.4-.5.2-.7.7-.7 1.3 0 2.3.5 4.6.9 7a1855.6 1855.6 0 0 0 7.6 42.7c1.1 6.3 2.2 12.6 3.5 18.9.3 1.5.8 3 1.4 4.4a6 6 0 0 0 1.2 2c.3-2.4-.2-4.6 0-6.9-.2-.6.1-1.3 0-2l-.6-14.6c0-.5 0-.9.6-1 .6-.1.9 0 1 .6.3 3.6 1 7 2.2 10.4l.4.9c.4.2.5.7.6 1a23 23 0 0 0 4.8 7.4c.2.3.5.6.6 1 1.9 1.6 4 2.7 6.5 2.8 3.6.1 6.4-1.4 8-4.7 2.2-4.2 2.2-8.5.5-13 0-.2-.2-.5-.5-.6-1.3-2.5-3.6-4-5.7-5.6l-7.5-6-.9-1c-1.5-1.5-3-3.2-4.4-5-2-2.7-3-5.8-3.6-9-1-4.5-1.5-9.1-1-13.8.9-6.2 2.6-12 6.9-16.8 2.8-3.3 6.4-5.2 10.7-5.5 2-.2 4 .2 6 .8l3.8 1.3c2.2.7 4 .1 5.3-1.7.2-.2.3-.6.7-.5.3 0 .2.3.2.5l.3 4.8v1.6c.4 1.3.3 2.5.4 3.8l.7 11v1c0 .4-.3.9-.1 1.3zM167.5 71.5c0-5.3.2-10.6-.2-16-.1-1.4-.4-2.9-1-4.3-.5-1.1-1-2.1-2.5-2.3-.3 0-.4-.2-.4-.5-.3-2.5-.3-2.5 2.2-2.5h10.5c.6 0 1 .1.8.7v1c0 .8.1 1.3-1 1.5-.6 0-1 .7-1.3 1.3v.7c-.8 2.2-1 4.4-1 6.7v.9c-.2.4-.2.8-.2 1.2v51c0 .3 0 .7.2 1.1 0 2 0 3.9.4 5.8.2 1 .3 2 .7 2.9.3 1 .8 1.7 1.8 2.2.5.2.7.6.7 1.1.2 2.3 0 2.4-2.2 2.4h-10c-1.8 0-2-.1-2-2 0-.6.2-1.2.9-1.6 2-.9 2.3-2.7 2.6-4.5.2-1.3.1-2.5 0-3.8v-1.2c-.6-4.2-1.9-8.2-3.8-12l-9-18.6-6.9-14-3.8-8c-.1.1-.1.4-.4.4 0 0 0-.1 0 0v51.5l.1 1.4.4.9.4 4.8c.1 1 .4 1.8.6 2.7.3 1 .8 1.9 2 2.2.5.1.6.4.7.9.2 2.3 0 2.6-2.2 3l-4.3.4c-.5.2-1 0-1.5.2-1.8.1-3.6.6-5.5 1-.3-.2-.6 0-.8.1-1.2.5-2.5.6-3.7.9l-8.8 1.8c-.4 0-.8.3-1.2 0l-6.3 1.3c-.6.2-.8 0-.7-.6v-.7c-.1-1 0-1.6 1-2 1.2-.3 1.7-1.5 2-2.6.7-1.9.7-3.8.6-5.7a85.2 85.2 0 0 0-4-19.6c-.2-.7-.4-1.5-1-2-1.5-2.1-3.2-4-5.5-5.2-1.2-.7-2.5-1-4-1.1-.7 0-1 .3-1.2 1l-2 10.2-2.8 14.6c-.6 3-1.1 6-1.4 9 0 1 0 2.1.3 3.2.2 1.1.8 2 1.9 2.5.6.3.8.7.8 1.3.1 2.4.2 2.4-2.2 3l-4.5 1.6c-.3.1-.6.3-1 .2-1.1 0-2.1.6-3.2 1-1.1.2-2.2.6-3.3 1-.5.2-.8.2-.7-.5v-.7c-.1-1 .1-1.7 1.1-2.3 1.2-.7 1.8-2 2.3-3.2 1.6-3.4 2.4-7 3-10.7 1.8-8.4 3.4-16.9 5-25.3l.1-1v-.1l.1-1.2 4.6-23.6c.4-2.3 1-4.5 1.2-6.8a75 75 0 0 0 1.3-6.7c.1-.3 0-.6.3-.9.7-1.9 1-4 1.4-5.9a9 9 0 0 0 .2-3.7c-.1-.7-.3-1.4-1-1.7-.5-.2-.3-.6-.4-.9 0-2.2 0-2.2 2.2-2.2h16.6c.7 0 1 .1.9.8v1.2c0 .6 0 1-.7 1.3-.5.2-.6.7-.7 1.2l.1.5c.5 6.4 1.8 12.7 2.9 19 2.5 15.7 5.3 31.3 8.3 47 .4 2 .9 4.2 1.7 6.2a8 8 0 0 0 1.2 2c.5.6 1 1 1.9.8.7-.6 1-1.5 1.2-2.4.5-1.7.7-3.5.7-5.4v-2.8l-.2-3.2V63l.2-4.8V57c0-2-.3-4-.9-5.8-.4-1.2-1-2.3-2.4-2.4-.2 0-.3-.2-.3-.4v-.2c-.2-2.5-.2-2.5 2.3-2.5h22.4c.9 0 1.1.3 1 1v.6c0 .9 0 1.6-.9 2-.3.2-.5.6-.5 1-.6 3.6 1.3 6.5 2.7 9.6l5.3 11.7c.4.9.9 1.7 1.2 2.6.1.3.3.5.2.8v-2.6c0-.3 0-.7.3-1z"/><path fill="#0055A4" d="m56 156.1-6.5 3.3c-.6.3-.8.3-.8-.5V155c0-.4 0-.6.5-.7 1.3 0 2-1 2.5-2 .8-1.6 1-3.3 1.2-5.1.3-2.7.4-5.4.4-8.1V53.7c0-3.8 0-7.6-.9-11.3-.1-.8-.4-1.6-.8-2.3-.5-1-1.2-1.7-2.3-1.8-.5 0-.7-.2-.6-.7v-2.2c0-.7.2-1 .9-1l5.1.1h35.5c1.7.2 3.2 0 3.8-2l.8 6.7c.3.3.3.7.4 1L97.6 61l.2 2.2c0 .9.2 1.8.3 2.6.2 1.2 0 1.4-.9 2-.8.4-1 .3-1.3-.5l-1.1-4.8c-1.1-3.7-2.5-7.2-4.7-10.4a18 18 0 0 0-5.2-5.3 12 12 0 0 0-9.3-1.7 5.4 5.4 0 0 0-4.2 4c-.4 1.4-.6 2.8-.7 4.2v13c0 1.2 0 1.2 1.2 1.3H78.7c2.7-.2 4.3-1.4 5-4 .8-2.4 1-4.8.7-7.3 0-1.2.5-1.4 1.4-1.4.6 0 1 .3 1 1l.6 8c0 1.6.2 3.2.3 4.7v1.1l1 12.5c0 2 .2 3.9.4 5.8 0 .4 0 .8-.2 1l.3 5.5c0 .3.3.9-.5.8-.5 0-1.2.4-1.3-.7-.3-3.4-.9-6.7-2.3-9.9l-.6-1c-.7-.6-1.1-1.6-1.8-2.4a9.7 9.7 0 0 0-8-3.2h-3.4c-.2 0-.4 0-.5.2-.2.3-.1.6-.1.9v49.4c.2 2.6.4 5.2.9 7.8a13 13 0 0 0 1.1 3.8c.6 1 1.3 1.7 2.4 1.9.2 0 .4 0 .5.2v.5c.5 3.8.5 3.3-2.4 4.8l-16 8.2c-.4.2-.8.5-1.2.4zM293.8 44.2l-.1-.2c-.6-1.8-1.6-3.1-3.3-4-.5-.2-.7-.5-.7-1v-2c0-.7.2-1 1-1h28.6c.8 0 1 .3 1 1v.2c0 1.3.3 3-1.7 3.4a8.2 8.2 0 0 0-1.3 3.7c-.1 2 0 4 .7 5.9l5.8 18.5 1.6 5 .8-1.9c.1-.3.2-.7.5-.9 1.7-4.3 3.2-8.7 4.6-13.2 1.3-4 2.7-8 3.3-12.2.2-1 .2-2 0-3-.4-1.4-1.1-2.3-2.5-2.6-.5-.1-.6-.3-.6-.8v-2.4c0-.5.2-.7.7-.7h15.2c.6 0 .8.2.7.8V38c.1 1.2 0 2.1-1.3 2.6l-.3.6a19.3 19.3 0 0 0-4.5 7.6 1818.5 1818.5 0 0 0-12.4 34.7l-1.5 4.2c-.5 1.2-.7 2.5-.7 3.9v46.7c0 3.1.3 6.2 1.2 9.2a6 6 0 0 0 3.5 4c.8 0 1.1.2 1 1v1.6c.1.3.3.7 0 1-.3.4-.8.1-1.1 0l-16.5-7.5-6-2.7c-.5-.2-1-.2-1.3-.7l-3.4-1.6c-.5-.2-.7-.4-.7-1v-2.5c0-.4.2-.5.5-.5 2.1-.1 3.3-1.4 4-3.2.6-1.6.9-3.4 1-5.2.3-2.7.4-5.4.4-8.1V90.6c0-.6 0-1.1-.3-1.7l-11.3-32.6-.4-.9c-.3-.3-.5-.7-.6-1.1-.4-1.5-1-2.9-1.5-4.3-.5-2-1.3-3.8-2.1-5.8zM209.1 121.6h.5c.5.4.3.9.3 1.3v1.1c0 .8.1 1.6-.1 2.4-.3.2-.6.2-1 .2h-22.5c-.7 0-1-.4-1-1v-3.2c0-.6.3-1 .9-1 2-.3 3-1.7 3.6-3.6.4-1.3.6-2.8.7-4.2l.2-3.4.2-.3.4-.3V61.3l-.1.1h-.4v-4.6c0-.5.4-1 0-1.4-.2-.4-.6-.5-1-.4-3.1.6-5.4 2.2-7 4.8a20.2 20.2 0 0 0-3 5.9c-.5 1.6-.9 3.3-1.2 5-.2 1.3-.3 1.4-1.5.9-.4-.3-.4-.7-.4-1.1l.2-2.4.3-2 1.2-10 .1-1.2.5-3.5c0-.3 0-.6.3-.9l.7-5.4c0-.2 0-.5.2-.7.7 1.3 2 1.7 3.3 1.6 5.4-.2 10.8 0 16.2 0h11.8c1.6 0 3-.3 4-1.8l.8 6.4c.4.6.4 1.4.5 2.2.4 4.6 1 9.1 1.5 13.7l-.1 1 .4 3.2c.1.8-.5.8-1 1-.6.2-.5-.4-.5-.7-.8-3.2-1.7-6.3-3.2-9.2-.2-.4-.3-.7-.6-1-1.4-1.5-2.5-3.3-4.3-4.3-1-.6-2-1-3.2-1.3-.6-.2-.9 0-.9.6V111.4c0 1.9.2 3.7.6 5.5.4 2 1 3.8 3.2 4.4.2 0 .3.2.4.3z"/><path fill="#EC1C23" d="M91.2 314.7c1 2 0 3.1-1.3 4.4a71 71 0 0 1-16 11.8 25.8 25.8 0 0 1-13.2 3.3c-4.7-.2-8.6-2-10.8-6.5a13.9 13.9 0 0 1-.6-10.1c1-3.9 3-7.3 5.4-10.4 4.5-6 10.2-10.6 16.4-14.7a56 56 0 0 1 13.8-7.1c2.1-.7 4.2-1.1 6.5-1 3.7.2 5.7 2.7 5.3 6.4-.5 3.4-2 6.4-4.2 9a54.4 54.4 0 0 1-18.2 15c-2.5 1-5.5-1.1-5.4-3.9 0-.8.5-1.5 1-2.1a27 27 0 0 1 5-4.7c1.5-1.1 3.1-2.2 4.8-3.2.4-.2.7-.3.8.3 0 .7.3.6.7.3 3-2.4 5.8-5 8-8.3.6-.7 1.1-1.5 1.3-2.5.3-1.3-.3-2-1.6-1.8-1 .1-1.8.4-2.6.9A61.4 61.4 0 0 0 62 311c-2.1 3.4-3.6 7-3.4 11a5.6 5.6 0 0 0 4.7 5.4c1.2.2 2.3.2 3.5 0 4.1-.4 7.8-2 11.4-3.9 4.2-2.3 8-5 11.7-8l1.3-1zM166 317.8a97 97 0 0 0-8.8 9.4 30 30 0 0 1-3.8 4c-1.5 1.1-2.7.8-3.1-1-.6-2.3-.4-4.7-.4-7 0-3.6 1.3-6.6 3.1-9.5 5.6-9 11.9-17.5 19.7-24.7a15 15 0 0 1 2.5-2c1.2-.7 3-.1 3.5 1 .3.5 0 1 0 1.3a204.8 204.8 0 0 1-17.3 23.7l-6.1 7c-.3.3-.5.7-.5 1.1l-.4 2.4c.5 0 .6-.4.8-.6 3.8-4 7.6-7.8 12-11 1-.8 2-1.6 3.2-2.1 1-.6 2-.4 2.8.4l.9 1c1 1 1 1.7.1 3-1.7 2.5-3.7 4.8-5.4 7.4-.5.8-1 1.7-1.3 2.6-.4 1.5.5 2.4 2 2 1.4-.4 2.6-1.3 3.7-2.1 1.8-1.3 3.4-2.7 5-4.2l.6-.6c.2 1.5.3 2.8-1 4-2.8 2.9-5.5 5.9-8.8 8.1-1.2.8-2.3 1.5-3.7 1.7-2 .5-3.6-.5-4.1-2.5a7 7 0 0 1 .3-4c1-3 2.7-5.4 4.3-7.9l.4-.7v-.3l-.2.1zM332 151.5c-1.8-.2-2.7-1.6-3.4-3.2-.8-2-1-4.3-1.2-6.5-.2-2.2-.2-4.4-.2-6.6V92.9c0-2.3.4-4.5 1.1-6.7l13.4-37.4c1-2.5 2-5 3.9-7a5 5 0 0 1 1.2-1.2h4.5c.6 0 .8.1.8.8v.1c.1 1.7-.1 3-1.7 4.1-2.3 1.6-3.3 4.2-4.3 6.7l-6.5 18-8.2 23.4a3 3 0 0 0-.2 1v46.7c0 3.4.2 6.8.9 10zM241.4 128.6l14.1 1.9 3.7.5c.6 0 1 .2.9 1l.1 2.5.7-1c1.2-1.6 2.4-2 4.4-1.5l5.1 1.6a21.3 21.3 0 0 0 15.4-.6c3.8-1.8 6.6-4.5 9-7.9 3-4.6 4.4-9.7 4.9-15 .5-5.3.1-10.5-1.3-15.5-.6-2.1-1.4-4-2.4-6 0-.2 0-.2.2-.2 3 2.7 4.8 6.1 5.9 10a39.7 39.7 0 0 1-1.2 27 22 22 0 0 1-11 12 20.6 20.6 0 0 1-14.7 1l-4.8-1.5c-3.2-1-4.1-.8-6.2 2.1l-.2-2.5c0-.6-.1-.9-.8-1l-10.9-1.5c-.9-.1-1.5 0-2 .9l-2.8 3.6h-10c0-.4.2-.6.4-.7l6-4.7c.2 0 0-.2.1-.1h-.4c-2.4-.1-2.4-.1-2.4-2.5 0-.7-.1-1.3.2-2zM143.2 60.5l3.2 6.7.6 1.3c.2.7.2 1.4.2 2v49c0 2.2.2 4.5.7 6.8.3 1.3.8 2.5 2.3 3 .3.1.5.4.5.7v2.1c0 .6-.5.8-1 .8l-3.5.5c-.2 0-.5 0-.8.2l2.6 2.1 2.5 1.9c.3.2.6.4.6.9h-10l-2.8-3.6c-.3-.5-.5-.5-1-.4l-19.2 4-2.2.5v-2.7c0-.2 0-.3.3-.4 1.5-.4 2.2-1.5 2.7-3l13-2.7c.2 0 .5 0 .8-.2h.5c1.6-.3 3-1 4.6-1h1.1c.5.1 1 .5 1.4-.2l5-.7c1.3-.1 1.3-.1 1.3-1.4v-.5c0-.8 0-1.3-1-1.5-.7 0-1-.7-1.4-1.3a14 14 0 0 1-1-4.9l-.2-3.6c-.3-.8-.3-1.6-.3-2.4v-50l.2-2h.3zM235.4 169.6l-8.9-1.7-2-.4c1-1.2 2.2-2 3.6-2.5l13.4-3.6 5.2-1.4c.5-.2 1-.3 1.5-.2 1.2.4 2.4 1 3.3 1.8.2.1.4.3.6.2.2-.1.2-.4.2-.6v-2.5l13-3.5 16.6-4.5c.2 0 .4-.2.7 0l-37.8 21.6-8.3-2.4c0-.5.4-.5.7-.6l8-3.5 2.2-.8 1-.4.6-.3.7-.2c.4-.3 1-.4 1.3-.7-.4.3-.9.3-1.3.6-.3 0-.5.2-.7.3l-.8.3-1 .4-2.2 1c-2.8 1-5.6 2.3-8.5 3.3a3 3 0 0 1-1 .3zM195 234.4c1.9 0 3.7-.2 5.6-.3l-1.6 12.1-2 16-2.3 17.1c0 .9-.2 1.8-.3 2.6 0 .2-.2.2-.3 0l-1.4-11.6-2.1-15.8-2.6-19.8 6.5-.2c.3.3.2.8.2 1.2v14.4-14.5c0-.4 0-.8.3-1.2zM88.9 141.3c1.8-.8 3.7-1.3 5.6-2 1.9-.5 1.9-.5 2-2.5 0-.7-.1-1.1-1-1.4-1.2-.4-1.7-1.6-2-2.9-.4-2.6 0-5.1.4-7.7 1.7-9.9 3.9-19.7 5.7-29.6.1-.5.4-.7 1-.7 3.5 0 6 1.7 8.3 4.1.7.7 1.4 1.4 1.6 2.4-1.8-1.2-3.7-2-5.8-2-.7 0-1 .3-1.1 1l-4.7 24a76 76 0 0 0-1.5 10.4c0 1.2 0 2.4.4 3.6.3 1 1 1.8 2 2 .5.2.7.5.7 1 0 2.3 0 2.3-2.2 3l-11.7 3.9c-.7.2-1 .1-1-.7v-.2c0-1.1 0-2 1.3-2.7 1-.6 1.7-1.7 2-3zM214.1 232.7l5.1-.7 6.4 23.5 5.1 19c.1.1 0 .2-.2.1L213 244l-6-10.4 6.8-.8c.6.6.8 1.4 1 2.2.5 1 1 1.9 1.3 2.9l1 2.1c0 .4.2.7.4 1a17.6 17.6 0 0 0 .9 2.2c0 .4.3.8.5 1.2l.1.4c0-.1 0-.3-.2-.4l-.5-1.3-.6-1.5c-.2-.2-.1-.5-.3-.7l-.4-1-1-2.1c-.4-1.4-1-2.7-1.6-4-.1-.4-.3-.7-.2-1zM209.1 121.6c-2.2-.4-3.4-1.8-4-4.6-.3-2-.4-4.1-.5-6.2V55.6c0-.8.2-1 1-.8 3.5.7 5.8 2.8 7.6 5.7v.3c-1.1-.7-2.4-1.2-3.7-1.5-.7-.1-1 0-1 .8v47.7c0 3.4 0 6.9.2 10.3l.4 3.5zM168.6 234.5c2 .1 4 0 6 .2 0 1-.7 1.8-1 2.7l-.3.9-.8 2 .8-2c.5-1.1.9-2.4 1.5-3.5 1-.3 1.8-.1 2.7-.1h3.4l-8.3 14.6-14.2 24.7c-.1.2-.2.6-.7.6l3.4-12.6 7.4-27 .1-.5z"/><path fill="#EC1C23" d="M135.2 126c-.4.5-.9.4-1.4 0a6.3 6.3 0 0 1-1.8-2.5c-1.2-2.8-1.7-5.8-2.2-8.7l-5-27.1-4-23.7-1.7-10.6c-.1-1-.2-2 0-3h4.7c.5 0 .7.2.7.8v1.2c0 .7 0 1.1-.7 1.5-.7.3-.8 1.1-.8 1.9-.1 1.8.3 3.6.6 5.4 1.6 9.5 3.1 19 4.8 28.4 2 11.4 3.9 22.7 6.2 34l.6 2.3zM259.5 118.6l.3 7.6c-1-.6-1.4-1.5-1.8-2.3-1.2-2.6-1.7-5.4-2.2-8.2L251.4 92l-5-28-1.8-11.4v-2.1h4.7c.5 0 .8 0 .7.7v1c0 .7 0 1.2-.7 1.7-1 .6-1 1.9-.8 2.9l1.6 10 5.5 31 3.6 19.4c.3.4.1 1 .3 1.4zM75.6 142.3c-1.8 0-2.6-1-3.3-2.5-.7-1.6-1-3.3-1.2-5-.2-2-.5-4-.5-6.1-.2-.6.2-1.1.1-1.7V79c.1-.4-.3-.8 0-1.3h.5c1.2.2 2.5.1 3.7 0 4.3-.1 8 2.1 9.6 5.9-3-1.7-6.3-1.4-9.6-1.4-.3 0-.5.1-.5.4v47.7c0 4 .4 8 1.2 12zM128.8 191c2.1-1 4.3-1.5 6.5-2.2 2.5-.7 5-1.5 7.7-2l13.5.3 27.4.5c.2 0 .4 0 .7.2l-3.9.8-25.4 5.5c-1.7.3-3.3-.1-5-.3l-17.5-2.3-4-.5zM147 206.2a20 20 0 0 1-4.8-3.5l13.1-7.5c1.5-.9 3.2-.9 4.8-1.1l21.2-3.9.5-.1c.7-.3 1.5-.4 2.2-.6.3 0 .5 0 .6.3 0 .5-.5.6-.8.7l-11.2 4.8-23.4 10.2c-.7.3-1.3.7-2.1.7zM236.9 228.4a28 28 0 0 1 4-1.2l9.3 12 10.9 14c.1.2.4.4.4 1l-3.3-2.6-28-21.5-.2-.1 6.4-1.5c.5 0 .7.6 1.1.8l1 1 .6.7c0-.2-.3-.4-.5-.6l-1-1c-.2-.3-.8-.5-.7-1zM56 156.1l8.9-4.6 10.1-5.2c.4-.2.6-.5.6-1v-2.6l1 2.2c.5 1 1.2 1.8 2.5 2 .4 0 .4.1.4.4v2.9c0 .5-.4.6-.7.8l-20.6 10.5-5 2.5c-.3.3-.5.3-.5-.3l-.1-4.1c0-.3 0-.6.4-.6 1.7-.2 2.5-1.4 3-2.9zM112.8 280.9l-1.6 7c-.1.6-.4.7-1 .7-.8 0-1.8.2-2.3-.2-.6-.4-.4-1.4-.6-2.2l-1.8-9.8c-.1-.7 0-.9.7-.9 2.3 0 2.3 0 2.7 2.4l.7 4.5c.5-.7.5-1.5.7-2.1l.9-4.1c.1-.5.3-.7.8-.7.8 0 1.8-.2 2.4.2.5.3.4 1.4.6 2.1l1.1 4.7c.4-1.1.4-2.1.6-3l.5-3.4c.1-.4.3-.6.7-.6h2c.6 0 .6.2.5.7l-2.1 11.6c-.1.6-.3.8-1 .8-.8-.1-1.8.3-2.4-.2-.6-.4-.5-1.5-.7-2.3L113 281h-.2zM143.8 232.2l10 1.3-9.8 7.6-16.2 12.5-.7.5h-.3l10.3-13.4 6.7-8.5zM88.9 89l-1.4-19.6.2-.9c.7-2.5.7-5.1.7-7.8 0-.5 0-1 .8-1.3 1-.3 1.5 0 1.6 1l.5 6.5.6 9.5.5 6.3.6 9.5c.1 2.1.4 4.2.3 6.4l-.1 1c-1.7.2-1.7.2-1.9-1.4-.3-2.9-.8-5.7-2-8.4l-.4-.9zM134 158.1c-.5 2.6-1.2 5.1-1.8 7.6l-18-10.3-8-4.5c.4-.3.7-.1 1 0L134 158zM326.7 71l-1.2 3.5h-.2l-1.8-5.8-5.7-18.3c-.7-2.4-1.1-4.8-.6-7.3.2-1 .6-2 1.4-2.5h4.8c.6 0 .9.2.8.9v1c0 1 .1 2-1.3 2.5-1.6.7-1.8 2.5-2 4-.1 2.8.7 5.3 1.4 7.8l4.4 14.1zM127.8 183.3l-2 7.3-22.3-2.8-4.6-.6v-.3l10.9-1.4 18-2.2zM280.3 74.9c-1.4-.7-2.2-2-3-3.2-2.7-3.9-3.7-8.1-2.2-12.7a8.3 8.3 0 0 1 2.5-4c2-1.7 4.5-1.9 7-.4a14 14 0 0 1 5 5.2 8.4 8.4 0 0 0-3.7-1.6c-2.8-.2-4.7 1.3-6 3.6-2.1 3.6-1.9 7.4-.5 11.1l.9 2zM139.5 282v-5.7c0-.6.1-.8.8-.8h1.9c.5 0 .7.2.7.7v3.2c0 .6.1.8.7.7h2.3c.5 0 .7-.2.7-.7v-3.2c0-.5 0-.8.6-.7.9 0 2-.3 2.5.2.6.5.2 1.6.2 2.4v9.6c0 .7-.2 1-1 .9h-1.8c-.5 0-.6-.2-.6-.6V284c0-.6-.1-.9-.8-.8-.9 0-2-.4-2.7.2-.6.5 0 1.7-.1 2.6v1.8c0 .6-.2.7-.8.7h-1.8c-.7 0-.8-.3-.8-.8V282zM97.6 63.1l-.9-7-1.9-16.3v-.6c1.5 0 2.5-.5 3.2-2l2.7 23.2c-.2 2.5-.7 5-1.5 7.5-.3-.2-.4-.6-.5-1-.4-1.2-.8-2.5-1-3.8zM308.2 144.2l10.4 4.6 13.8 6.2.6.3.1-1.2c.9 1.2 2 2 3.6 2 .2 0 .3.1.3.4v3.4l-6.7-3-21.4-9.6c-.5-.3-.8-.5-.7-1.1v-2zM218 66.7 216.4 51v-.5c1.2-.1 2.4-.5 3.2-1.9l.5 4.5 2.3 20.1.2 2.2c0 .3 0 .5-.4.7-.6.2-1 .3-1.1-.6a37 37 0 0 0-2.7-8.2c-.2-.1-.1-.4-.2-.6zM296.2 50l1.9 5.5.8 13.3.3 4.8c.1.8-.4.7-.9.9-.6.2-.5-.4-.6-.7-.6-2.2-1.3-4.4-2.3-6.5-.2 0-.2-.3-.3-.5l-1-15.8a4 4 0 0 1 2-1zM156.6 184.4c6.2-.8 12.5-1 18.7-.9 2.3.7 4.7 1 7 1.6l2.4.7-36.3.6h-3c3.4-.9 6.9-1.5 10.4-1.9.3 0 .5.1.8 0zM132.6 275.5h4.4c.5 0 .7.1.7.6v2.2c0 .4-.2.5-.5.5h-2c-.9-.2-1 .2-1 1v8c0 .7-.1.8-.7.8h-2c-.5 0-.7-.1-.6-.7v-8.3c0-.7-.2-1-.8-.8h-.1c-.8 0-2 .2-2.4-.2-.5-.5 0-1.6-.1-2.4 0-.6.1-.7.6-.7h4.5zM167.5 71.5v4h-.2l-2-4.5-6.8-14.8c-.6-1.3-1-2.7-1-4.3 0-.5 0-1 .3-1.4h4.3c1-.1 1.2.2 1 1.1v.7c.1.7 0 1.2-.7 1.8-1 .7-1 2-1 3.1.2 1.8 1 3.5 1.7 5.1l4 8.6.4.6zM267.4 185.4 266 184c2.4.1 4.8.5 7.2.9l16.4 2c.2.1.2.2 0 .3l-12.3 1.6-6.6.8-2.8-3.6-.5-.6zM261.5 217.9l4.8-3.8a13128.5 13128.5 0 0 1 16 9.4l-20.8-5.6zM122 282v-5.8c0-.5.2-.7.8-.7.8 0 2-.3 2.5.2.5.4.1 1.6.1 2.4v9.7c0 .6 0 .8-.7.8-.9-.1-2 .4-2.5-.2-.4-.5-.1-1.6-.1-2.4v-4zM190.4 199.3l1.2-2.7c.2 0 .3 0 .2.1l-2.2 12.5-.7 3.7-4.5.3c-.2-.5 0-.9.2-1.2l5.3-12.1c.1-.3.2-.5.5-.6z"/><path fill="#EC1C24" d="M194.1 212.4c-1.3.2-2.6.4-4 .4a23928.7 23928.7 0 0 0 3.7-16l.3 15.6z"/><path fill="#EC1C23" d="M199 211.5c-1.1.4-2.4.5-3.6.7l.2-15.5h.2l3.2 14.8z"/><path fill="#EC1C24" d="m198 196.9 5.8 13.4c-1.1.4-2.3.8-3.5 1l-2.5-13.8c0-.3-.2-.5.2-.6z"/><path fill="#EC1C23" d="M269 122.2c-3-2.5-4.8-5.8-6-9.4l-.3-6.3a1 1 0 0 1 1.2-1c.4 0 .3.4.3.6a47.7 47.7 0 0 0 4.5 15.3c.1.3.3.5.2.8z"/><path fill="#EB1D24" d="M270.2 95c2.5 1.6 4.7 3.6 7 5.5 1.6 1.4 3.6 2.3 4.9 4 .5.7 1.2 1.3 1.4 2.2-1.3-.6-2.3-1.5-3.3-2.4-2.5-2.2-5.4-4-7.7-6.4-.9-.8-1.7-1.8-2.5-2.7 0-.2 0-.2.2-.2z"/><path fill="#EA2A32" d="M108 222.2c.3.1.8 0 1 .6l-3 .8-.1-.2 2-1.2z"/><path fill="#E6868C" d="M145.3 186.3h3c-1.2.3-2.5.2-3.7.2.2-.2.5-.1.7-.2z"/><path fill="#5078C0" d="M209.8 124c0-.8.2-1.6-.2-2.3.7.4.2 1 .4 1.6v.7h-.2z"/><path fill="#ACB3D0" d="m259.5 118.6-.3-1.4.2-.6c.2.7.1 1.3 0 2z"/><path fill="#C7445C" d="M270.2 95s0 .2-.2.2l-.7-1 1 .8z"/><path fill="#FAC0C3" d="M289.6 187.2v-.3l.6.1c0 .4-.3.2-.6.2z"/><path fill="#F4A5A6" d="M326.9 317.8c.1-.2.3-.4.6-.5 0 .4-.2.6-.4.7-.1 0-.2 0-.2-.2z"/><path fill="#B7A9A5" d="m295.1 66.8.3.5c-.2.2-.1.5-.2.7-.2-.4-.2-.8 0-1.2z"/><path fill="#B73755" d="m296.2 88.4-.3.2c-.2-.3-.4-.5-.5-1l.8.8z"/><path fill="#F5D5D3" d="M98.9 186.9v.3c-.2 0-.6.2-.6-.2 0-.2.4-.1.6-.1z"/><path fill="#E44149" d="M198 196.9c-.2.1-.1.4-.2.6-.2-.3-.1-.6-.2-1 0-.1 0-.2.2-.1l.2.5z"/><path fill="#A6AAC2" d="m218 66.7.3.6-.1.2c-.2-.2-.2-.5-.1-.8z"/><path fill="#EC1C23" d="m191.8 196.7-.2-.2.2-.7c.3.3.2.6 0 1z"/><path fill="#FACCC5" d="M231.4 303.4c.2-.3.3-.5.7-.5 0 .2-.2.4-.4.5h-.3z"/><path fill="#F16578" d="m230.5 274.6.2-.2c.2.2.2.4.2.7-.3 0-.3-.3-.4-.5z"/><path fill="#E85061" d="M126.9 254h.2c-.1.3-.3.5-.6.5 0-.2.2-.4.4-.4z"/><path fill="#EC1C23" d="m197.8 196.4-.2.2c-.2-.3-.1-.5-.1-.8.2.1.2.4.3.6z"/><path fill="#F59FA9" d="m282.4 223.5.1-.2c.2 0 .5.1.4.3-.1.2-.4 0-.5 0z"/><path fill="#E8A5B1" d="m106 150.6-.1.1a1 1 0 0 1-.3-.2h.2c.1-.1.2 0 .3.1z"/><path fill="#EC1C23" d="m147.5 206.4 38-15c0 .5-.4.7-.6.8l-23.4 16.1c-1 .8-2.4.9-3.6 1.3-.6.2-1.2.2-1.7.5-3-.8-6-2-8.7-3.7zM186.4 193.7 171.5 209l-3.3 3.6c-2.8-.3-5.5-.7-8.1-1.4.7-1.2 1.6-2 2.8-2.8l23-14.8.3-.2c.2 0 .3.1.2.3zM232.3 158l-4.9 6.3c-.5.7-1.3 1-2 1.5l-2.4 1.5-7.1-.8c0-.4.2-.6.5-.8l6.7-7 1-.7h8.2zM169.3 212.7l18.5-17.8h.3l-10.2 15.8-1.5 2.5c-2.4 0-4.8-.2-7.1-.5zM214.5 158h8.4c0 .2 0 .4-.2.5-1.3 1.3-2.6 2.7-4 3.9-1.2 1-2.3 2.3-3.5 3.4-.2.2-.4.5-.8.5l-5-.2c-.1-.3 0-.5.1-.7l4.6-7.1c.1-.1.2-.3.4-.3zM177.6 213.2l12-17.3c.4 0 .3.1.2.3l-.4 1.2a2 2 0 0 0-.3 1l-.2 1-5.3 13c0 .4-.1.7-.5.9h-5.5zM207.2 158h6.2c0 .3-.1.6-.3.8l-4.5 6.5-.7.7-3.8-.1c0-.9.5-1.6.7-2.4l2-4.7c0-.3.1-.6.4-.8zM185.6 166.7l-3.1.4c-.3 0-.5-.2-.6-.5l-2.8-3.9-.3-.8.8-3.5c.1-.4.3-.5.7-.5h2c.3.3.4.6.5 1 1 2.2 1.8 4.4 2.7 6.7.1.3.3.7.1 1zM190 166.3c-1 .1-2 .3-2.9.2-.6-.4-.7-1.2-1-1.8l-2.6-5.8c-.1-.3-.3-.6-.1-.9h5c.3.2.4.6.4 1 .5 2 .8 4.2 1.2 6.3v1zM214 204.9l-11.1-11.4c0-.2 0-.3.2-.2l12.3 7.9.7.4a6.6 6.6 0 0 1-2.2 3.3zM201.2 194.6c1.4 1 2.6 2.3 3.9 3.5l7.9 7.7c-1 .9-2 1.5-3.3 2.1l-8-12.6c-.2-.2-.5-.4-.5-.7zM202.7 165.8h-3c-.3-.2-.2-.5-.2-.8l1.1-6c0-.4.2-.8.4-1h5c.3.3 0 .6 0 .8l-2.8 6.3c0 .3-.2.6-.5.7zM199.8 195.8l8.8 12.7c-1.1.6-2.3 1-3.5 1.4l-5.2-13-.3-.9c0-.2 0-.2.2-.2zM194 166c-.8.2-1.7.2-2.6.1-.4-.2-.4-.5-.5-.9l-1.4-6.3c0-.3-.2-.7.1-1h4.5l.3.9v6.2c0 .4 0 .8-.4 1zM195.3 158h4.5c.3.3.2.6.1 1l-1.4 6.1c0 .3 0 .6-.3.7-1 .2-1.8.1-2.7.1-.4-.6-.4-1.2-.4-1.9V159c0-.3 0-.7.2-1z"/><path fill="#EC1C24" d="m216.4 200.3-12.7-8.7c.4-.2.7 0 1 0l1 .3 8.7 3.4 1.2.7a7 7 0 0 1 .8 4.3z"/><path fill="#EB1D25" d="m214.3 194-8.4-3.6c-.2-.2-.5-.2-.7-.3l-.2-.2c0-.3.2-.3.4-.2l1.7.2c.4 0 .7 0 1 .2.2.2.4.2.7.1.5-.1 1 0 1.4.4 1.8.6 3 2 4.1 3.3z"/><path fill="#EC1D24" d="m181 167.4-3.8.7c.3-1.6.7-3.1 1.2-4.6h.3c.9 1.2 1.6 2.4 2.3 3.6v.3z"/><path fill="#FCF0EF" d="m195 234.4-.2 11.3h-.1l-.2-11.3h.5z"/><path fill="#F9E5E4" d="m216 238-2.4-5.2h.5l2 5c0 .1 0 .2-.2.2z"/><path fill="none" d="M194.7 136.4v.1-2.6 2.5zM217 133.1c0-.2.2-.4.3-.5l.1-.5-.1.3c0 .3-.2.5-.3.7l-.2.5.2-.5z"/><path fill="#EC1C23" d="M194.8 131.4v2.5-2.5zM194.7 136.5v1.3-1.3zM236 100.4c-1.1-1.4-2.3-2.7-3.7-3.7a9.8 9.8 0 0 0-6.3-2.2c-.5 0-.7.2-.8.7-1 5.9-2.5 11.7-3.1 17.7-.3 2.3-.7 4.7-.3 7 .2 1.3.5 2.5 1.7 3 1.2.4 1.3 1 1.2 2v.6c.1.7-.2.9-.8.9H215c-.4.2-.5.7-.8 1 0-.3 0-.7-.3-1H210c0-.1-.1-.1-.2 0H189.5c0 1 0 1.9-.2 2.8l-1.1 9.3h6.2c.2-.2.3-.4.3-.7v-6.3V137.9c0 .2.1.5.3.6h5.4c.2-.3.1-.6.1-1l-.7-5.3c0-.8 0-1 .8-1H211c.8 0 .9.2.4 1l-3 5.1c-.1.4-.4.8-.3 1.3h6.5l2-4.9h.2c0-.1 0-.3.2-.5l.3-.7.1-.3-.2.4-.2.6a2 2 0 0 0-.2.6v.1l-1.8 4.7h5.2l1.8-6.9c.2-.6.4-.7 1-.7h5c.2 0 .6.1.6-.2v-2.6c0-.2-.2-.3-.4-.3-1.5-.5-2.2-1.6-2.4-3-.5-2.8-.3-5.6.4-8.3 1.4-5.6 3-11.1 4.5-16.7.2-.7.5-.7 1.1-.6 1.6.3 3 1 4.4 2 .2-.4-.1-.6-.3-.9z"/><path fill="#F9DEDA" d="m215 138-.4.5h.4a.5.5 0 0 1 0-.5zM215.1 137.6l.1-.1 1.5-3.6v-.2.1l-1.6 3.8z"/><path fill="none" d="M172.2 132.3c.1.6.4 1.1.6 1.7l-.6-1.7z"/><path fill="#EC1C23" d="M177.3 131h1.5c2.3 0 2.4.3 2.3-2.5 0-.5-.2-.9-.7-1-.6-.3-1-.8-1.4-1.4a10 10 0 0 1-.8-2.3c-.8-3.7-.7-7.5-.8-11.2v-40c0-.3 0-.7-.2-1-.5-.2-.3-.6-.3-.9l.3-2.6c0-1.2 0-2.5.2-3.7l.2-2c0-2.6.3-5.1 1.1-7.6.3-1.4.5-2.9.6-4.3h-4.7l-.5 1c-.7 2.3-.8 4.7-.8 7V112.3c0 2.7.2 5.3.9 7.8.2 1.1.5 2.4 1.7 2.9 1.1.3 1 1 1 1.8v.8c.1.6-.2.7-.7.7H165c-.2.4 0 .8 0 1.1l2.8 10.3c.1.3.2.7.5.9h6.1l-1.6-4.3v-.2c-.2-.5-.5-1-.6-1.7l.7 1.7 2 4.5h5.5c.2-1-.5-1.5-.8-2.1l-2.7-4.7c-.3-.5-.2-.7.4-.6z"/><path fill="#F9E0DE" d="M174.8 234.8c-.2 1.3-1 2.4-1.4 3.7-.2 0-.3 0-.2-.2l1.4-3.6h.2z"/><path fill="#F99E9A" d="m236.9 228.4.9 1h-.3l-1-1h.4z"/><path fill="#CC2432" d="M156.6 184.4c-.2.4-.5.3-.8.1.3-.1.5-.1.8 0z"/><path fill="#A82B45" d="M267.4 185.4c.3 0 .5.3.5.6a.9.9 0 0 1-.5-.6z"/><path fill="#EC1C23" d="m227.5 83.8 3.2-17 1-4.4.6 3.2 1.6 8.6v1.3c0 2-.6 4-.9 6l-.6 3.2c0 .3 0 .7-.4 1a9.2 9.2 0 0 0-4.5-1.4v-.5zM215 126.4c-.2.5-.5 1-1.1 1.6v-1.6h1.1z"/><path fill="#474388" d="M210 126.3h-.2V124h.2v2.3z"/><path fill="#274C93" d="M227.5 83.8v.5c-.5-.1-.3-.3 0-.5z"/><path fill="#EC1C23" d="M106.4 85.7a9.3 9.3 0 0 0-4-1.4c-.5 0-.5-.2-.4-.6l2.3-12.3 1.5-8.2.3-1.2 2 11.4c.2.6.3 1.3.3 2 .2 1.2-.2 2.2-.4 3.3l-1.1 6c0 .4 0 .8-.5 1zM164.1 123l-4.5-16.5-1.6-6.2c0-.2-.2-.4.2-.4l7.1 12.3 1.1 1.8c.3.1.3.4.3.6.2 2.2.3 4.3-.7 6.4-.3.9-.9 1.6-1.9 2z"/><path fill="#0553A7" d="M143.2 60.5c-.4.2-.2.6-.2.9v53.5l-.3-.6c-.2-.3-.1-.7-.1-1V62.5l-.1-1c0-.5-.4-.9-.1-1.3.3.1.2.5.3.8.3-.3 0-.7.3-.8l.2.3z"/><path fill="#E21E2A" d="M173.3 58.6c.2 0 .3.2.2.4-.3 1-.1 2-.1 3v46.8c0 1.2.4 2.3 0 3.5-.2-.8-.2-1.6-.2-2.4V59.5l.1-1z"/><path fill="#00579B" d="M142.5 61.4c.3.3.1.7.1 1v52c-.3-.4-.1-.8-.1-1.2V61.4z"/><path fill="#EC1C23" d="M140.3 128.8c-.4 1-.4 1-1.4.2.4-.3.9-.2 1.4-.2z"/><path fill="#F9CAC8" d="M93.2 98.6h.2c0 .4 0 .8-.3 1v-1z"/><path fill="#274C93" d="M133.2 130h-.6c.2-.1.3-.4.6 0z"/><path fill="none" d="m200.2 308.8.4-.7.4-.5-.4.5-.4.7zM200.1 308.8l-.2.3.2-.3z"/><path fill="#EC1C23" d="m201.1 307.4-.1.2.1-.2zM339.8 319.3c-.4 0-.5.3-.6.4-2.1 2-4.2 4-6.7 5.5a7 7 0 0 1-2.2 1c-1.4.3-2.2-.6-1.9-2 .3-1.1 1-2.1 1.6-3.1l4.8-6.6c1.3-1.7 1.2-2.4-.3-4l-.6-.6c-.8-.6-1.5-.6-2.4-.3l-2.6 1.6c-4.1 3-7.7 6.5-11.2 10-.7.8-1.6 1.4-2.3 2 0-1.6.6-3.1 1.8-4.5 7-7.9 13.8-16 19.7-24.8 1-1.4 2-2.9 2.6-4.5.2-.4.4-1 .1-1.4a2.6 2.6 0 0 0-3.6-1 21 21 0 0 0-3.2 2.7 119.3 119.3 0 0 0-17.2 21.3 27.4 27.4 0 0 0-4.5 9.1c0 .2-.2.4-.3.5-2.5 2.1-5 4.2-8 5.6a9.7 9.7 0 0 1-5.5 1.1c-1.4-.2-2.4-1-2.9-2.3-.4-1.3-.7-2.6.4-3.8 2-2.1 4.1-4 6.6-5.4h.2l.2.7c.3 1.3 1 1.6 2.1 1.1.3 0 .6-.3.9-.5 1.9-1.5 3.3-3.4 4.3-5.6.3-.7.5-1.6.6-2.4 0-1.7-.7-2.6-2.4-2.8-.8-.2-1.7 0-2.6.2a24 24 0 0 0-8.8 4.8 17 17 0 0 0-6.2 8.7c0 .3-.2.4-.4.6-2.4 2-4.7 4.1-7.5 5.8-.7.4-1.4.8-2.2 1-1.3.3-2.2-.4-2.3-1.7 0-.7 0-1.3.2-2 .7-4 2.6-7.5 4.9-10.7.6-1 1.3-1.4 2.4-1.2 1.3.1 2.7 0 3.8-1 1.8-1.5 3.3-3.3 4.5-5.3.4-.7.2-1.1-.5-1.4-.8-.3-1.6-.4-2.4-.5l.1-.5 2.5-3c.5-.5 1-1.1.6-1.8-.4-.8-1.2-.8-2-.7-1.4.2-2.7.8-3.9 1.8-1.1 1-2.1 2.1-3 3.4-.3.5-.7.7-1.3.7l-3 .2c-1.2.2-2.4.4-3.3 1.3-1.5 1.4-2.6 3-3.5 4.8-.4.8-.2 1 .7 1 1.3 0 2.5.1 3.7.3.8 0 .8.2.4.7a88.3 88.3 0 0 1-7.3 8.3 27.3 27.3 0 0 1-5.8 4.7c-.9.4-1.7.8-2.7.7-1.1-.1-1.7-.8-1.6-1.9.1-.8.4-1.5.7-2.2 1-2 2.2-3.8 3.5-5.6.9-1.3 1-2.6.2-4-.9-1.5-.8-1.6.7-2.5.5-.3.9-.5.9-1.1 0-1.3-2-3.6-3.7-3.3-3.2.6-6.2 1.7-9.2 3-4.4 2-8.4 4.7-11.5 8.4a10.5 10.5 0 0 0-3 6.1c0 .3-.1.5-.3.7a38 38 0 0 1-7.6 5.5c-1 .6-2 1.1-3.1 1.2-1.3.1-1.8-.3-2-1.6-.2-2.3.4-4.5 1.2-6.7 1.9-4.9 4.8-9.2 7.8-13.4 2.4-3.3 5-6.4 7.6-9.6 2-2.3 2-4.5.5-7l-.5-.7c-1-1.3-1.6-1.5-3-.8-1.8 1-3.3 2.2-4.8 3.5a204.2 204.2 0 0 0-18.4 18l-.6.6c0 .1 0 .1 0 0 .2-.2.4-.4.4-.7l2.6-4.3a74 74 0 0 0 6-11.7 6 6 0 0 0 .4-3.3c-.7-3.5-3.1-4.6-6-2.7-2.8 1.8-5.3 4-7.7 6.3a118 118 0 0 0-10.7 11.7l-.2.2c0 .2-.2.3-.3.5l-.5.7-.3.3-.1.2.1-.2.3-.3.5-.7c0-.2.2-.3.3-.5l.1-.2c.2-.2.3-.4.3-.7l.8-1.4c1.7-3 3.2-6 4.2-9.4.8-2.9.7-5.6-1-8.2-1.2-1.8-2.1-2.3-4.2-1.7-4 1-7.6 2.8-11.2 4.5-.2.2-.5.5-1 .3l.6-.5 1.7-1.7c.2-.3.7-.5.3-1-.3-.3-.6 0-.9.2l-.2.1a13.6 13.6 0 0 0-6.7 11.3c-.3 2.9.4 3.3 3 2 3.2-1.4 6-3.4 9.2-5 1.3-.8 2.6-1.5 4-2 1-.3 1.5.2 1.5 1.2-.1 1-.5 1.8-.8 2.7-2.3 5.4-5.5 10.3-8.7 15.3-2 3.1-4.4 6-6.4 9.3-1.8 3-1.3 5.7.4 8.4.9 1.4 1.7 1.5 3 .3 1.3-1.3 2.4-2.8 3.4-4.3 3.6-5.3 7-10.6 10.9-15.7a74.8 74.8 0 0 1 14.6-15.1 120.3 120.3 0 0 1-10.2 18.1 133 133 0 0 0-6.2 9.8c-1.7 3-1.4 6-.1 9 .6 1.3 1 1.4 2 .4 1.6-1.3 3-2.9 4.2-4.4 4-4.7 7.7-9.4 11.7-14 3.8-4.2 7.8-8.2 12.1-11.8.1 0 .3-.2.3 0l-4.3 5.4a54 54 0 0 0-8.3 14.2c-1.3 3.7-1.3 7.4.3 11 .9 2 2.7 2.8 4.8 2.4l2.3-.7c4.9-2.2 9-5.6 12.6-9.5.2-.2.4-.6.8-.7.6 1.5 1.2 2.8 2 4 2 3 3 3.2 6 1.2 2.2-1.6 4-3.4 6-5.3l2-2c.2.4 0 .6 0 1l-1.1 4c-.3 1.7 0 3.3 1.4 4.4 1.5 1 3 .7 4.4 0 1.2-.6 2.2-1.4 3.2-2.3 2.6-2.3 5-4.8 7.4-7.4.4-.4.9-.9 1.5-1.2v.2l-.3.6c-1 2.4-2 4.8-1.8 7.5.2 2 1.4 3.3 3.4 3.5 2 .2 3.6-.6 5.2-1.5 3.2-1.8 5.8-4.1 8.4-6.6l1.8-1.7a12 12 0 0 0 3.4 8c1.5 1.5 3.2 2 5.2 1.5a13 13 0 0 0 3.8-1.6c3.1-2 5.7-4.4 8.2-7 .2-.2.4-.5.8-.6v.9c0 1.7 0 3.4.4 5 .4 1.8 1.6 2.3 3 1.1 1.1-.8 2-1.8 3-2.9 3-3.6 6.2-7.2 9.7-10.4 0 0 .2-.1.2 0 .1 0 0 0 0 .2-1.5 2.4-3 4.7-4.2 7.3a9 9 0 0 0-.9 4.7c.4 2.4 2 3.6 4.3 3a12 12 0 0 0 4.3-2.1c3-2.3 5.6-5 8.2-7.7 1.2-1.3 1.1-2.5 1-4zm-91.4 5.6-1.7 1c-1.2.5-2 0-2-1.2-.1-1.8.5-3.4 1.6-4.7 1.4-1.7 3.2-2.7 5.1-3.8 3-1.7 6.3-3 9.5-4.5l.5-.2c-4 5-8 9.7-13 13.4zM200.2 308.8zM199.9 309.1l-.2.2.2-.2zM90.3 52a13.5 13.5 0 0 0-7.2-3c-1.5 0-3 0-4.4.6-2 .7-3.2 2.3-3.8 4.4a19 19 0 0 0-.5 4.5v9.2H71c-.5 0-.5-.1-.5-.5 0-5.3-.3-10.6.1-16a8 8 0 0 1 1.5-4.3c1.3-1.8 3.2-2.3 5.3-2.4 3.9-.3 7.1 1.2 9.9 3.8 1.2 1 2.2 2.2 3 3.6z"/><path fill="#E71F20" d="M71 127.2c.1.5-.5.9-.4 1.5-.2-.6-.1-1.1-.1-1.7V78.6c0-.3-.2-.7.1-.9l.4.9c-.2.3-.1.6-.1 1v47.6z"/><path fill="#0254A1" d="M53.9 49v93.7c-.4-1-.2-92.9 0-93.8zM54.2 140.8c-.3-.3-.2-.7-.2-1V51.6c0-.5 0-1 .3-1.4.2.4 0 .9 0 1.2v88.3l-.1 1z"/><path fill="#0057AD" d="M54.2 140.8V52.6c0-.4-.2-.8.2-1.2v90c-.3-.2-.2-.4-.2-.6z"/><path fill="#ED1A2D" d="M75 77.7c-.7.4-1.3.1-1.9.2l-1.5.1c-.3.1-.4 0-.4-.3h3.7z"/><path fill="#DCD4E5" d="M87.4 68.6c.2 0 .2.1.3.2l-.2.6v-.8z"/><path fill="#EC1C23" d="M190.8 60.3a11 11 0 0 0-4.6 4.3c-2 3-3 6.6-3.7 10.2 0 .2 0 .5-.2.7-.1.3.2.9-.5.8-.5-.2-1-.3-1-1.2l1.4-11c.1-1.4.5-2.9.4-4.4a9.4 9.4 0 0 1 3.7-3.6 10 10 0 0 1 3.8-1.4c.6 0 .8.1.8.7v5z"/><path fill="#0056AD" d="M191.4 110h-.3c-.2-.3-.1-.6-.1-1V61.5h.4c.2.3.1.7.1 1v47.7z"/><path fill="#04549F" d="M191 61.4V110h-.1V61.4h.2z"/><path fill="#0A5296" d="M191.4 110V61.4c.3.3.2.6.2 1V109c0 .3.1.7-.2 1z"/><path fill="#04549F" d="M190.9 60.3v-5h.7c-.6.5-.6 1-.5 1.6V60c0 .2 0 .2-.2.2z"/><path fill="#AAC9D9" d="M177.2 64.4c.2.5-.1 1.1.2 1.7l-.2 2v-3.7z"/><path fill="#04549F" d="M191.4 61.4h-.3c0-.2 0-.4.3-.6v.6z"/><path fill="#EC1C23" d="M153.6 297.6v1.2l-2.2-1.1c-.5-.2-.6-.4-.3-1l1.8-3.2c-.3-.2-.6-.2-.9-.2-1 0-2.1-.2-3 .2-.9.4-1.1 1.6-1.6 2.5-.3.5-.6.6-1 .6-1.6 0-3.2.1-4.7.5a12.9 12.9 0 0 0-9.4 8.1c-1.1 3-.2 6 2.3 7.8l1.4.8c1 .7 1 .7.4 1.7l-4.4 7.8c-.9 1.6-.9 1.6-2.5.7-3-1.7-3.5-4.2-1.7-6.9.2-.2.7-.5.4-.8-.2-.3-.7-.2-1.1-.2h-.4c-1.8.5-2.5 1.9-3.2 3.3l-.3.8v-1l-.6.3c-2 1.8-3.8 3.6-6.1 5-.9.6-1.8 1-2.8 1-1.3 0-2-.6-1.8-1.9 0-1.4.7-2.6 1.4-3.8 1-1.5 1.8-3 2.8-4.3.9-1.2.9-2.3.2-3.6-1-1.6-.9-1.7.7-2.7l.1-.1c.6-.4.8-.9.5-1.5-.7-1.7-2-3.2-4.4-2.5a43.6 43.6 0 0 0-12.8 5.1 26.1 26.1 0 0 0-8.6 8.2c-1 1.5-1.6 3-1.3 4.9.4 3.1 1.8 5.7 4 8 .5.7 1.3.8 2.2.5 1-.4 1.8-.9 2.5-1.5 2.8-2 5-4.4 7.5-6.8.5 0 .2.2.2.4-.5 1.6-1 3.1-1.2 4.8-.2 1.6.1 3 1.5 4 1.3 1 2.6.8 4 .2 1.2-.5 2.3-1.4 3.3-2.3 2.4-2 4.5-4.3 6.6-6.5l1.7-1.7v.6c.2 3.3 1.5 5.7 4.8 6.8.6.2.5.4.3.8a331 331 0 0 0-2.6 4.5h3.5c.5 0 .8-.2 1-.6l1.8-3.2c.2-.5.5-.6 1-.6.9 0 1.8 0 2.7-.2 4.8-.9 8.9-3.1 11.9-7 2.3-3.1 2.3-6.7-.5-9.6-.9-1-1.9-2-3-2.7-.4-.3-.5-.6-.2-1l4.7-8.3c.3-.5.5-.4.9 0 .7.7 1.3 1.5 1.6 2.5.3 1 0 2-.3 3 1.8-.5 4-2.3 4.7-4 .9-2 .2-4.7-1.5-5.8zm-44.7 18.2a58.1 58.1 0 0 1-9.4 9c-.6.5-1.2 1-2 1.1-1 .4-1.5.1-1.7-.9-.4-1.3 0-2.6.7-3.8.9-1.6 2.3-2.7 3.7-3.7 3.8-2.3 7.8-4 11.8-5.9l.3.1-3.4 4.1zm32.7 6.3c-.8 2.3-3.6 3.8-6.8 3.5l5-8.7c1.6 1 2.4 3.5 1.8 5.2zm-.1-15.5-.7 1.2c-.3.4-.4.3-.7 0-1.5-1.9-1.7-4.5.6-6.2a7 7 0 0 1 4.5-1.7l-3.7 6.7z"/><path fill="#EB1E1F" d="M174.3 110h-.4c-.2-.3 0-.6 0-1V61c0-.3-.2-.7 0-1h.4v50z"/><path fill="#F2192B" d="M174.3 110V60c.2.2.1.6.1.8v50.4h-.1V110z"/><path fill="#E21E2A" d="M174 60v50c-.4-.2-.3-.6-.3-.9V61c0-.4 0-.7.2-1zM174 57.3c.3.4.3.8.1 1.3-.3-.5-.2-1 0-1.3z"/><path fill="#F1363C" d="m253.8 162.4-1.3.6c.4-.7.9-.6 1.3-.6z"/><path fill="#FCDDD9" d="M194.7 245.7h.1v1.5h-.1v-1.5z"/><path fill="#F45B5C" d="M194.8 248.7v1.3c-.2-.4-.2-.9-.1-1.3h.1z"/><path fill="#F79795" d="M194.8 248.7h-.1v-1.4l.1 1.4z"/><path fill="#F8CFCB" d="M216 238v-.3c.5.7.7 1.5 1 2.2 0 .2 0 .2-.2.2l-.9-2.1z"/><path fill="#F4988C" d="M218.2 243.2c-.4-.5-.6-1-.7-1.7h.1c.3.6.6 1 .6 1.7z"/><path fill="#F7706A" d="M218.3 243.2c.3.3.4.7.5 1.2a2 2 0 0 1-.6-1.2z"/><path fill="#F2BFAA" d="m216.8 240.1.2-.2.3.9v.3l-.5-1z"/><path fill="#FA464A" d="M218.8 244.4c.2.2.3.4.2.8-.2-.2-.3-.5-.2-.8z"/><path fill="#FAB2B2" d="M217.3 241.1v-.3c.2.2.2.5.3.7-.3 0-.3-.2-.3-.4z"/><path fill="#F8CBC3" d="m173.2 238.3.1.2c-.3.7-.5 1.5-1.1 2.1l1-2.3z"/><path fill="#F99F99" d="m171.4 242.6.6-1.6c0 .7-.2 1.3-.6 1.8v-.1z"/><path fill="#F4736E" d="M171.4 242.6v.2c0 .6-.4 1-.6 1.5 0-.6.3-1.2.6-1.7z"/><path fill="#F6191E" d="M74 82.4c.4 0 .2.4.2.6v47.7c0 .2.1.6-.2.8V82.3z"/><path fill="#E41F23" d="M74 82.4v49.1c-.3-.3-.2-.6-.2-1V83.4c0-.3 0-.7.2-1z"/><path fill="#ED1A2D" d="M71 127.2c-.3-.3-.2-.6-.2-1V79.6c0-.3-.1-.6.2-1v48.7z"/><path fill="#EC1C23" d="m185.1 189.7-.3.2c0 .1-.1.1-.2 0-.1-.2-.3-.1-.5-.2.2-.2.6-.1.9-.2.1 0 .2 0 .1.2z"/><path fill="#F8484B" d="M238.6 230.3c.5.2.7.8 1.2 1l-.2.3-1.2-1.3h.2z"/><path fill="#F97D7B" d="M238.6 230.3h-.2l-.9-.9h.3l.8.9z"/><path fill="#EC1C23" d="m186.4 193.7-.2-.2.6-.5s.4-.2.2.2l-.6.5zM185.1 189.7l-.1-.2c.1-.1.3-.2.6 0l-.5.2zM189.8 196.2l-.2-.4.5-.6c0 .4 0 .7-.3 1z"/><path fill="#E8444D" d="m188 195-.2-.1.6-.6v.3l-.3.3z"/><path fill="#EC1C23" d="M188.4 194.6v-.3c0-.2.1-.4.2-.3.2.2 0 .4-.2.6zM200.7 193.9c.3.1.5.3.5.7-.4 0-.4-.4-.5-.7zM199.8 195.8l-.2.2a1 1 0 0 1-.3-.8c.3.2.4.4.5.6z"/><path fill="#EB1D25" d="m205.4 189.7-.4.2h-.3l-.3-.2c0-.3.2-.2.3-.1l.7.1z"/><path fill="#EC1C23" d="m203 193.3-.1.2c-.3-.1-.5-.3-.7-.6.4-.1.5.3.8.2v.2z"/><path fill="#EB2D42" d="M158.2 99.9c-.2 0-.2.2-.2.4l-.4-1.1c.4.1.5.4.6.7z"/><path fill="#F4A499" d="m228.7 102 .2.3c0 .2-.2.4-.2.3-.2-.2-.1-.4 0-.6z"/><path fill="#0055A4" d="M244.8 172.3c3.8 1.4 7.5 2.8 11 4.7 3.4 1.8 6.7 4 9.6 6.5l.6.5c.6.3 1.1.7 1.5 1.3l.6.6c1 1.1 2 2.2 2.6 3.7a17.3 17.3 0 0 1 0 19.1c-1.2 2-2.8 3.7-4.4 5.4l-.3.5a33.8 33.8 0 0 1-4.5 3.2c-6.2 4-13 7-20 9.1-.3 0-.4.2-.6.3-.6.5-1.4.5-2 .8l-2 .5-.5.2c-1.7.3-3.3.8-5 1.2-.5 0-1 .2-1.4 0a244 244 0 0 1-11.6 2.4c-1.4.2-2.8.5-4.1.5l-.7.2-5.7.6-1-.1-6.3.5c-.7.4-1.5.4-2.2.4l-3.4.2h-.6c-1.7 0-3.4.3-5.2.2-.4 0-.8 0-1.2-.2h-7c-.6.5-1.2.4-1.8.3-1.4-.2-2.9-.1-4.3 0h-.3c-1.4-.2-2.7 0-4.1-.1-.6 0-1.3 0-1.9-.4l-10.2-.6-4.5-.3c-.6.2-1.2 0-1.7 0l-7.8-1c-.2 0-.5 0-.6-.4a180.5 180.5 0 0 1-34.8-9.4c-.4-.2-.8-.2-1-.6-3.1-1.5-6.4-2.4-9.9-2.4h-3.9v-.3l1-.4c14.7-6 29.5-11.8 44.2-17.7.8-.3 1.2-.3 1.7.3.3.4.7.8 1.2 1 .3 0 .6.3.9.6a27.5 27.5 0 0 0 4.4 3c2.8 1.5 5.7 2.8 8.7 3.7a54.4 54.4 0 0 0 11.9 2.4l1.2.1 6.9.5h6.8a5 5 0 0 1 1.5 0c1-.1 2.2 0 3.3-.2.4-.1.7-.1 1 .2.5 0 1 0 1.3-.2 1.3-.4 2.6-.6 4-.4l1.2-.2c1.2-.6 2.4-.7 3.7-.7.4 0 .9 0 1.3-.3.5-.5 1.2-.4 1.8-.6l1.5-.4 1.3-.4c1.2-.4 2.3-1 3.4-1.5l1.2-.5a17 17 0 0 0 3.3-2.2l1-.8c.9-1 1.7-2 2-3.3.2-.4.3-.8.3-1.3 0-1.4 0-2.8-.7-4-.3-.8-.8-1.5-1.4-2.2a12 12 0 0 0-3.9-3.3c-.3-.3-.6-.5-1-.6-1-.6-2.1-1.2-3.3-1.6l-.4-.2c-.7-.4-1.6-.5-2.3-1a53.8 53.8 0 0 0-9.5-2.3c-6-1-11.9-1.4-17.9-1.5h-.4c-.3.3-.7.3-1.1.3h-3a123.4 123.4 0 0 0-15.4 1c-3 .3-6 .9-8.8 1.4l-1.6.2-.9.1a4 4 0 0 0-1.6.4c-.2.3-.6.3-1 .4-4 1-7.8 2.1-11.7 3.4-.5.1-1 .1-1.4.3-1.1.1-2 .7-3.1 1-.2-.5.2-.9.1-1.3 0-1.6.6-3 1-4.5.2-1 .2-2 .9-2.9l4.4-17.6v-1l1.5-5.8c0-.3.2-.6.4-.8.8-2.7 1.4-5.5 2.1-8.3 1-3.4 1.8-6.8 2.6-10.2.2-1 .6-1.2 1.4-1l1-.1c.3-.4.8-.3 1.3-.3h58a281.8 281.8 0 0 1 14.1 0h5.7a1856.5 1856.5 0 0 1 25.9 0c.5 0 1-.1 1.3.3h3.8c.7 0 1 .2 1 1v19.2c.6 1 .4 2 .2 2.9-.1.6-.7.4-1 .1-1.1-.7-2.2-1.3-3.4-1.8a28.7 28.7 0 0 0-9.8-1.7H206a112.6 112.6 0 0 1-6.3 0 89.4 89.4 0 0 1-5.7 0h-5.7a110.2 110.2 0 0 1-6 0h-1.7c-.5 0-.8.2-1 .8l-.7 2.9-.4 1.6-1 3.7c0 .5 0 .6.5.5l2.8-.5 1.6-.2c1-.3 2-.3 3-.5.6 0 1.1 0 1.7-.2l2.8-.2 1.5-.2 2.6-.1h1.4l2.5-.1 1.9-.1h2.7l1.6.1h3.6l1.6.2c1.6-.1 3.3.1 5 .2.5.2 1 .1 1.5.2l7 .7 1.6.3c3.7.5 7.2 1.2 10.8 2l1.2.4c2.5.6 5 1.2 7.3 2 .4.2.8.3 1 .7z"/></g></svg>