<svg xmlns="http://www.w3.org/2000/svg" id="b" viewBox="0 0 338.79 174.9"><defs><style>.g,.h{stroke:#231f20}.n{fill:#ed1c24}.o{fill:#231f20}.g{stroke-width:.674px}.g,.h{fill:none}.s{fill:#c5731a}.t{fill:#27973e}.u{fill:#c4161c}.h{stroke-width:.7135px}.w{fill:#005798}</style></defs><g id="c"><path d="M331.33125,113.99803c-1.5381-12.9091-8.9677-22.2685-22.1123-27.9555,20.7471-9.8975,30.584-22.3106,29.4903-37.2417-.1748-2.38041-.5811-4.7149-1.2041-6.9805-2.378-20.2798-19.4063-33.9492-43.9121-35.0122-20.9043-.90671-36.7862,3.0957-44.7188,11.27-3.5635,3.6719-5.2715,8.0112-4.9385,12.5484,.0586,.8076,.1895,1.6376,.3916,2.4926l-36.1592-17.76171c-3.0361-1.49019-6.05949-.42139-7.3564,2.34571-1.83009,.3965-3.2588,1.9111-3.6826,4.2705l-1.043,5.8096c-.0117-.001-.0234-.0039-.0351-.0049l-1.3116-.1138c-.0009,0-.0019-.0005-.0019-.0005h-.002l-51.9653-4.5107c-1.2705-.1103-2.4541,.14109-3.4707,.6592l-.0952-6.8975c-.0513-3.707-3.1016-6.35061-6.7783-5.874l-65.2657,8.4609c-2.2119,.2867-3.8642,1.5987-4.6059,3.3702-1.6812,1.1401-2.625,3.0512-2.502,5.1845L11.46996,54.05763c-1.0356,.5542-1.8716,1.3481-2.4795,2.27879l-.7671,.41071c-3.4604,1.8515-4.8359,6.2294-3.0571,9.7275l37.2178,73.1973c1.7788,3.498,6.143,5,9.6977,3.3369l32.2173-15.06841c1.2564-.58789,2.3223-1.52929,3.1382-2.66309l.81441-.3808c2.39409-1.12011,4.07079-3.584,4.49269-6.2032,.3545,.044,.7095,.0704,1.0635,.0655l37.4272-.52741c1.3721-.01949,2.647-.43749,3.72861-1.13079l.03759,2.63079c.0561,3.92391,3.2695,7.66311,7.1406,8.30861l29.6113,4.9375c2.4541,.4092,4.8447-.5019,6.4424-2.206,3.249-.1338,6.1426-2.5264,6.7568-5.8194l1.751-9.3896c.167,.1015,.333,.2041,.5059,.292l25.874,13.1826c2.625,1.3369,5.7012,.874,7.81441-.9258,3.12889,.458,6.45409-1.04391,8.03519-3.875l12.9209-23.1396c5.8711,2.9912,12.8496,4.6738,20.9658,5.0273,3.9883,.1719,8.9258-.3125,14.8076-1.459,3.084,.9522,5.7764,2.1758,8.1016,3.6563,3.3164,3.4824,5.168,7.9629,5.5762,13.5195,.05371,.7441,.081,1.47559,.081,2.1934,0,7.1728-2.7275,13.0293-8.2998,17.8506-6.1523,5.3193-14.2139,7.8027-23.959,7.3798-10.9922-.4765-22.7021-4.0957-34.8076-10.7558-.8633-.4746-1.9443-.25-2.54689,.5293-4.80461,6.2226-7.00091,11.164-6.71291,15.10929,.3038,4.14071,2.7042,7.53911,7.2286,10.22171,4.98531,6.0127,18.3252,9.49029,40.04,10.4326,19.9229,.8633,36.90331-3.8984,50.9336-14.2871,14.0322-10.3886,20.4668-23.5381,19.3008-39.457-.1826-2.49321-.6113-4.8359-1.2315-7.0596Zm-32.2832-65.7207c.0352,.4776,.0528,.95409,.0528,1.4287,0,9.46539-6.9893,18.3877-20.7325,26.5557-5.0849-1.2451-10.4462-2.0381-15.9951-2.2788-1.7597-.0762-3.581-.0303-5.4424,.1147l11.7413-21.0273c1.9267-3.4502,.60151-7.6982-2.9454-9.4395l-4.4296-2.1757c8.1582-3.3555,16.4707-4.8531,24.9423-4.4859,3.9268,.1704,7.1934,.9663,9.8291,2.3618,1.7198,2.2496,2.70611,5.209,2.9795,8.9463Z" style="fill:#ccc"/><path d="M261.69555,37.58353l-57.5586-28.2725c-3.0361-1.4912-6.0596-.4219-7.3564,2.3452-1.8301,.3965-3.2588,1.91119-3.6827,4.2705l-1.0429,5.8091c-.0118-.001-.0235-.0039-.0352-.0049l-53.2808-4.624c-1.2705-.1103-2.4541,.1411-3.4707,.6587l-.0952-6.8975c-.0512-3.707-3.1015-6.3505-6.7783-5.8735L63.12916,13.45464c-2.2119,.2871-3.8643,1.5991-4.606,3.3706-1.6811,1.1401-2.625,3.0513-2.5019,5.1846L7.43876,48.01073c-1.0352,.5542-1.8716,1.34869-2.4795,2.2788l-.7671,.4107c-3.4605,1.8515-4.836,6.2295-3.0572,9.7275l37.2178,73.1973c1.7788,3.498,6.1431,5,9.6978,3.3369l32.2173-15.0684c1.25581-.5879,2.3217-1.5293,3.1377-2.66211l.8149-.38079c2.394-1.1201,4.0713-3.585,4.4927-6.2041,.35451,.04389,.7094,.0703,1.0634,.0654l37.4273-.5273c1.3721-.0196,2.647-.4375,3.7285-1.1309l.0376,2.6309c.0562,3.92379,3.2695,7.663,7.1406,8.3085l29.6114,4.9375c2.4541,.4092,4.84571-.5019,6.4433-2.207,3.2481-.1328,6.1416-2.5254,6.7559-5.8183l1.751-9.3897c.1669,.1016,.333,.2041,.5058,.292l25.874,13.1826c2.625,1.3369,5.7002,.874,7.8135-.92481,3.1289,.457,6.4551-1.04489,8.0361-3.876l39.7393-71.166c1.92681-3.45019,.6016-7.69769-2.9453-9.43989Z" class="o"/><path d="M1.13496,60.42773c-1.7788-3.498-.4033-7.876,3.0572-9.7275L54.07156,24.00494c3.4604-1.8516,7.124-.2657,8.1416,3.5244l22.6679,84.4492c1.01761,3.79-1.0586,8.252-4.6132,9.915l-32.2173,15.0684c-3.5547,1.6631-7.919,.1611-9.6978-3.3369L1.13496,60.42773Z" class="o"/><path d="M1.13496,60.42773c-1.7788-3.498-.4033-7.876,3.0572-9.7275L54.07156,24.00494c3.4604-1.8516,7.124-.2657,8.1416,3.5244l22.6679,84.4492c1.01761,3.79-1.0586,8.252-4.6132,9.915l-32.2173,15.0684c-3.5547,1.6631-7.919,.1611-9.6978-3.3369L1.13496,60.42773Z" class="h"/><path d="M89.77656,112.71193c-3.9238,.0557-8.0444-2.97851-9.1562-6.7422L56.26826,23.54204c-1.1118-3.7647,1.1631-7.2569,5.0552-7.7608L125.80836,7.41994c3.8921-.5039,7.1211,2.294,7.1748,6.2178l1.2573,91.3115c.0537,3.9238-3.11279,7.1797-7.0366,7.2354l-37.4273,.5273Z" class="o"/><path d="M89.77656,112.71193c-3.9238,.0557-8.0444-2.97851-9.1562-6.7422L56.26826,23.54204c-1.1118-3.7647,1.1631-7.2569,5.0552-7.7608L125.80836,7.41994c3.8921-.5039,7.1211,2.294,7.1748,6.2178l1.2573,91.3115c.0537,3.9238-3.11279,7.1797-7.0366,7.2354l-37.4273,.5273Z" class="h"/><path d="M138.11056,121.99313c-3.8711-.6455-7.0844-4.38471-7.1406-8.3085l-1.2515-87.6661c-.0561-3.9238,3.0957-6.8408,7.0035-6.4814l49.1328,4.5176c3.9082,.3593,6.5488,3.8154,5.8681,7.6806l-15.7256,89.3418c-.68059,3.86529-4.4042,6.4991-8.2753,5.8535l-29.6114-4.9375Z" class="o"/><path d="M138.11056,121.99313c-3.8711-.6455-7.0844-4.38471-7.1406-8.3085l-1.2515-87.6661c-.0561-3.9238,3.0957-6.8408,7.0035-6.4814l49.1328,4.5176c3.9082,.3593,6.5488,3.8154,5.8681,7.6806l-15.7256,89.3418c-.68059,3.86529-4.4042,6.4991-8.2753,5.8535l-29.6114-4.9375Z" class="h"/><path d="M91.58036,110.33983c-3.7071,.0518-7.59969-2.81441-8.6499-6.3701L58.35426,20.78614c-1.0503-3.5556,1.0986-6.8545,4.7749-7.331L128.39476,4.99414c3.6768-.4765,6.7271,2.167,6.7783,5.874l1.271,92.0977c.0513,3.707-2.9399,6.7832-6.6469,6.835l-38.2168,.539Z" class="n"/><path d="M91.58036,110.33983c-3.7071,.0518-7.59969-2.81441-8.6499-6.3701L58.35426,20.78614c-1.0503-3.5556,1.0986-6.8545,4.7749-7.331L128.39476,4.99414c3.6768-.4765,6.7271,2.167,6.7783,5.874l1.271,92.0977c.0513,3.707-2.9399,6.7832-6.6469,6.835l-38.2168,.539Z" class="g"/><path d="M78.34496,41.23242c-.9614-3.581-2.8008-7.71969-4.0879-9.19819-1.2876-1.4786-7.16839-.1075-8.8359,.7861-1.668,.8936-2.1734,4.5332-1.1226,8.0889l16.6099,56.2187c1.0508,3.5557,3.0874,7.9942,4.5259,9.8633,1.4384,1.8691,7.6435,3.32619,8.9907,3.3086,1.3472-.0186,1.6631-2.9639,.70161-6.5449l-16.78171-62.52251Z" class="u"/><path d="M183.17796,109.80763c-3.4971-1.78121-5.791-6.3994-5.0967-10.2627l15.0166-83.6182c.6944-3.8632,4.0772-5.4785,7.5176-3.5908l50.042,27.4531c3.4404,1.8877,4.8203,6.3047,3.0645,9.8155l-35.1202,70.2422c-1.7558,3.51069-6.0527,4.9248-9.5498,3.1435l-25.874-13.1826Z" class="o"/><path d="M183.17796,109.80763c-3.4971-1.78121-5.791-6.3994-5.0967-10.2627l15.0166-83.6182c.6944-3.8632,4.0772-5.4785,7.5176-3.5908l50.042,27.4531c3.4404,1.8877,4.8203,6.3047,3.0645,9.8155l-35.1202,70.2422c-1.7558,3.51069-6.0527,4.9248-9.5498,3.1435l-25.874-13.1826Z" class="h"/><path d="M128.49536,31.10642c-.875,1.94141-1.5449,6.56251-1.4888,10.26961l.93311,61.7109c.05619,3.707,.40819,6.7354,.78229,6.72949,.3735-.00589,2.2753-.75589,4.2255-1.665,1.9498-.91019,3.4498-8.61329,3.399-12.32039l-.84279-61.0488c-.05081-3.707-.38531-6.7666-.74271-6.79781-.3579-.03129-5.3911,1.18161-6.2656,3.122Z" class="u"/><path d="M140.22236,119.52053c-3.7695-.5928-6.9008-4.2002-6.9584-8.0147l-1.3316-88.0625c-.0576-3.8144,3.0054-6.66691,6.8066-6.33691l53.2808,4.625c3.8018,.33011,6.33991,3.669,5.6406,7.42l-16.7392,89.75391c-.6992,3.7509-4.35549,6.3349-8.125,5.74209l-32.5738-5.12689Z" style="fill:#33b44a"/><path d="M140.22236,119.52053c-3.7695-.5928-6.9008-4.2002-6.9584-8.0147l-1.3316-88.0625c-.0576-3.8144,3.0054-6.66691,6.8066-6.33691l53.2808,4.625c3.8018,.33011,6.33991,3.669,5.6406,7.42l-16.7392,89.75391c-.6992,3.7509-4.35549,6.3349-8.125,5.74209l-32.5738-5.12689Z" style="stroke-width:.6938px;fill:none;stroke:#231f20"/><path d="M4.55056,57.20023c-1.6802-3.3047-.3809-7.4404,2.8882-9.1895L58.01396,20.94334c3.269-1.749,6.7299-.25091,7.6909,3.32909l22.874,85.211c.9609,3.581-1,7.79591-4.3584,9.36621l-32.9316,15.4033c-3.3584,1.5703-7.481,.1514-9.1612-3.1533L4.55056,57.20023Z" style="fill:#006ab6"/><path d="M4.55056,57.20023c-1.6802-3.3047-.3809-7.4404,2.8882-9.1895L58.01396,20.94334c3.269-1.749,6.7299-.25091,7.6909,3.32909l22.874,85.211c.9609,3.581-1,7.79591-4.3584,9.36621l-32.9316,15.4033c-3.3584,1.5703-7.481,.1514-9.1612-3.1533L4.55056,57.20023Z" class="g"/><path d="M194.96996,23.63774c-1.8457-1.0674-3.7637-1.9766-4.2637-2.0205-.499-.044-1.0498,.2197-1.22459,.5849-.17481,.3662-1.09271,4.5254-1.84271,8.2666l-14.0381,69.9786c-.75,3.7412-1,8.7988-.5547,11.2392,.4443,2.4404,5.3193,6.4961,6.1836,6.8906,.8633,.3946,1.6035,.5996,1.6425,.4571,.0401-.1426,.69541-3.5987,1.3946-7.3496l14.0469-75.3125c.6992-3.751,.50191-11.667-1.3438-12.7344Z" class="t"/><path d="M184.46896,107.61913c-3.5947-1.6396-5.9004-6.1513-5.123-10.0254L196.27566,13.18754c.77729-3.874,4.31439-5.6182,7.86129-3.877l57.5586,28.2735c3.5469,1.7412,4.87211,5.9892,2.9453,9.43939l-39.7393,71.166c-1.9267,3.45021-6.4443,4.93071-10.039,3.29111l-30.3936-13.8614Z" style="fill:#ef8b22"/><path d="M184.46896,107.61913c-3.5947-1.6396-5.9004-6.1513-5.123-10.0254L196.27566,13.18754c.77729-3.874,4.31439-5.6182,7.86129-3.877l57.5586,28.2735c3.5469,1.7412,4.87211,5.9892,2.9453,9.43939l-39.7393,71.166c-1.9267,3.45021-6.4443,4.93071-10.039,3.29111l-30.3936-13.8614Z" style="stroke-width:.7184px;fill:none;stroke:#231f20"/><path d="M33.54466,59.48342c.8628-3.082,2.8662-6.418,6.4321-7.91209,5.3047-2.2227,10.5757-.46291,15.2056,5.9834,4.8057,6.6035,9.1616,17.8105,10.4146,24.3144,1.5776,8.6319,.1518,15.23729-6.022,17.82329-2.4087,1.01171-4.3145,.789-6.833-.08109-.8208-.33491-1.2075-.1767-.8594,.9277,1.3027,3.6456,7.1738,16.0342,9.7744,20.61239,0,0-6.0034,2.17771-11.82129,5.06831-4.2719-13.1728-20.2568-51.5879-27.3535-65.27731,0,0,4.5161-1.666,9.2564-3.877,0,0,.4956,1.71881,.8164,2.49021,.3647,.8682,.7495,.7061,.9897-.07221Zm9.0464,18.87891c3.8628,9.4883,7.2573,14.0742,10.2466,12.8203,2.9892-1.2529,2.2295-7.3945-1.4732-16.498-3.58-8.8145-7.0009-13.7295-10.0869-12.4356-3.1831,1.332-2.2666,7.2979,1.3135,16.1133Z" style="fill:#186ca1"/><path d="M34.98266,55.16703c.8623-3.0821,2.8657-6.416,6.4326-7.9102,5.3037-2.2217,10.5762-.4648,15.2036,5.9844,4.8067,6.6016,9.1626,17.8105,10.416,24.3115,1.5777,8.6358,.1524,15.2393-6.0205,17.8272-2.4106,1.0088-4.3144,.7871-6.8354-.085-.8198-.335-1.2031-.1748-.8584,.9268,1.3022,3.6494,7.1733,16.0381,9.772,20.6132,0,0-6.002,2.1797-11.81989,5.0704-4.27-13.17191-20.2548-51.58791-27.353-65.2774,0,0,4.5161-1.667,9.2588-3.876,0,0,.4922,1.7188,.8154,2.4903,.3623,.8681,.7481,.7041,.9888-.0752Zm9.0474,18.8808c3.8613,9.4883,7.2578,14.0723,10.2451,12.8194,2.9892-1.251,2.2295-7.3955-1.4741-16.4971-3.5777-8.8154-6.9991-13.7285-10.0835-12.4365-3.1822,1.331-2.2701,7.29779,1.3125,16.1142Z" class="w"/><path d="M34.98266,55.16703c.8623-3.0821,2.8657-6.416,6.4326-7.9102,5.3037-2.2217,10.5762-.4648,15.2036,5.9844,4.8067,6.6016,9.1626,17.8105,10.416,24.3115,1.5777,8.6358,.1524,15.2393-6.0205,17.8272-2.4106,1.0088-4.3144,.7871-6.8354-.085-.8198-.335-1.2031-.1748-.8584,.9268,1.3022,3.6494,7.1733,16.0381,9.772,20.6132,0,0-6.002,2.1797-11.81989,5.0704-4.27-13.17191-20.2548-51.58791-27.353-65.2774,0,0,4.5161-1.667,9.2588-3.876,0,0,.4922,1.7188,.8154,2.4903,.3623,.8681,.7481,.7041,.9888-.0752Zm9.0474,18.8808c3.8613,9.4883,7.2578,14.0723,10.2451,12.8194,2.9892-1.251,2.2295-7.3955-1.4741-16.4971-3.5777-8.8154-6.9991-13.7285-10.0835-12.4365-3.1822,1.331-2.2701,7.29779,1.3125,16.1142Z" class="w"/><path d="M34.98266,55.16703c.8623-3.0821,2.8657-6.416,6.4326-7.9102,5.3037-2.2217,10.5762-.4648,15.2036,5.9844,4.8067,6.6016,9.1626,17.8105,10.416,24.3115,1.5777,8.6358,.1524,15.2393-6.0205,17.8272-2.4106,1.0088-4.3144,.7871-6.8354-.085-.8198-.335-1.2031-.1748-.8584,.9268,1.3022,3.6494,7.1733,16.0381,9.772,20.6132,0,0-6.002,2.1797-11.81989,5.0704-4.27-13.17191-20.2548-51.58791-27.353-65.2774,0,0,4.5161-1.667,9.2588-3.876,0,0,.4922,1.7188,.8154,2.4903,.3623,.8681,.7481,.7041,.9888-.0752Zm9.0474,18.8808c3.8613,9.4883,7.2578,14.0723,10.2451,12.8194,2.9892-1.251,2.2295-7.3955-1.4741-16.4971-3.5777-8.8154-6.9991-13.7285-10.0835-12.4365-3.1822,1.331-2.2701,7.29779,1.3125,16.1142Z" class="o"/><path d="M104.31906,31.90234c.6304,5.4678-2.6928,9.0186-7.4936,9.5703-5.023,.5782-8.5591-2.6337-9.1509-7.7685-.5776-5.0215,2.2993-8.5215,7.4336-9.1104,4.7988-.5527,8.6182,2.1729,9.2109,7.3086Zm6.187,67.4815s-6.622,.4277-13.5175,1.4453c-.1426-14.0068-2.7173-37.34771-5.7032-51.4824,6.959-.461,12.9468-1.49031,12.9468-1.49031,.2783,13.20221,2.8447,37.44731,6.2739,51.52741Z" class="u"/><path d="M106.47636,29.02642c.6289,5.46771-2.6944,9.01751-7.4922,9.57031-5.02349,.5781-8.5601-2.6328-9.1504-7.7676-.5767-5.0225,2.2983-8.5215,7.4331-9.1123,4.7983-.5518,8.6181,2.1728,9.2095,7.30959Zm6.1875,67.48241s-6.6241,.4258-13.5186,1.4433c-.14159-14.0058-2.7173-37.3466-5.7012-51.4785,6.9585-.4638,12.9463-1.4941,12.9463-1.4941,.2774,13.2031,2.8438,37.4492,6.2735,51.5293Z" class="u"/><path d="M106.47636,29.02642c.6289,5.46771-2.6944,9.01751-7.4922,9.57031-5.02349,.5781-8.5601-2.6328-9.1504-7.7676-.5767-5.0225,2.2983-8.5215,7.4331-9.1123,4.7983-.5518,8.6181,2.1728,9.2095,7.30959Zm6.1875,67.48241s-6.6241,.4258-13.5186,1.4433c-.14159-14.0058-2.7173-37.3466-5.7012-51.4785,6.9585-.4638,12.9463-1.4941,12.9463-1.4941,.2774,13.2031,2.8438,37.4492,6.2735,51.5293Z" class="u"/><path d="M106.47636,29.02642c.6289,5.46771-2.6944,9.01751-7.4922,9.57031-5.02349,.5781-8.5601-2.6328-9.1504-7.7676-.5767-5.0225,2.2983-8.5215,7.4331-9.1123,4.7983-.5518,8.6181,2.1728,9.2095,7.30959Zm6.1875,67.48241s-6.6241,.4258-13.5186,1.4433c-.14159-14.0058-2.7173-37.3466-5.7012-51.4785,6.9585-.4638,12.9463-1.4941,12.9463-1.4941,.2774,13.2031,2.8438,37.4492,6.2735,51.5293Z" class="o"/><path d="M158.79806,54.03223c-3.3652-.1836-5.6943,9.44919-6.2119,18.9375-.542,9.97169,.3604,17.7285,3.8457,17.9199,2.88281,.1563,3.8154-5.9375,4.0293-12.0703,6.333,.9473,13.086,.834,13.086,.834-.668,3.457-.961,11.0293-2.6133,14.793-1.9151,4.2383-6.2471,8.57809-15.0176,8.1025-7.6865-.418-13.3638-4.583-15.6567-13.3818-2.2652-9.2793-.9205-22.9395,1.4453-31.0039,2.7861-9.1241,7.8764-16.3164,17.9653-15.7686,9.7314,.5264,13.1396,6.4971,14.0869,11.2451,.9414,4.8721,.208,11.7002,.457,15.9287,0,0-6.6972-.8466-13.0966-.5908,.6845-8.1572,.6826-14.7822-2.3194-14.9453Z" style="fill:#5ba043"/><path d="M161.67306,51.15433c-3.3633-.1807-5.6933,9.4482-6.2099,18.9404-.543,9.97069,.3613,17.7285,3.8457,17.918,2.88181,.1562,3.8154-5.9365,4.0273-12.0694,6.335,.9473,13.0869,.83209,13.0869,.83209-.6699,3.459-.9599,11.03221-2.6113,14.79591-1.917,4.2334-6.24709,8.57709-15.0176,8.0996-7.68549-.418-13.3642-4.582-15.6577-13.3799-2.2646-9.2783-.9219-22.9414,1.4468-31.0049,2.7842-9.123,7.875-16.3183,17.9629-15.7695,9.7324,.5273,13.1426,6.498,14.0879,11.248,.9375,4.8711,.208,11.6963,.459,15.9287,0,0-6.6993-.8476-13.0997-.5927,.6856-8.1553,.6817-14.7813-2.3203-14.9463Z" class="t"/><path d="M161.67306,51.15433c-3.3633-.1807-5.6933,9.4482-6.2099,18.9404-.543,9.97069,.3613,17.7285,3.8457,17.918,2.88181,.1562,3.8154-5.9365,4.0273-12.0694,6.335,.9473,13.0869,.83209,13.0869,.83209-.6699,3.459-.9599,11.03221-2.6113,14.79591-1.917,4.2334-6.24709,8.57709-15.0176,8.0996-7.68549-.418-13.3642-4.582-15.6577-13.3799-2.2646-9.2783-.9219-22.9414,1.4468-31.0049,2.7842-9.123,7.875-16.3183,17.9629-15.7695,9.7324,.5273,13.1426,6.498,14.0879,11.248,.9375,4.8711,.208,11.6963,.459,15.9287,0,0-6.6993-.8476-13.0997-.5927,.6856-8.1553,.6817-14.7813-2.3203-14.9463Z" class="t"/><path d="M161.67306,51.15433c-3.3633-.1807-5.6933,9.4482-6.2099,18.9404-.543,9.97069,.3613,17.7285,3.8457,17.918,2.88181,.1562,3.8154-5.9365,4.0273-12.0694,6.335,.9473,13.0869,.83209,13.0869,.83209-.6699,3.459-.9599,11.03221-2.6113,14.79591-1.917,4.2334-6.24709,8.57709-15.0176,8.0996-7.68549-.418-13.3642-4.582-15.6577-13.3799-2.2646-9.2783-.9219-22.9414,1.4468-31.0049,2.7842-9.123,7.875-16.3183,17.9629-15.7695,9.7324,.5273,13.1426,6.498,14.0879,11.248,.9375,4.8711,.208,11.6963,.459,15.9287,0,0-6.6993-.8476-13.0997-.5927,.6856-8.1553,.6817-14.7813-2.3203-14.9463Z" class="o"/><path d="M218.30586,110.67193s-6.332-2.5674-12.8847-4.544c.6777-5.4639,1.4638-14.25,1.3847-17.9736-.123-5.4248-2.083-4.3565-3.8476-.1904-1.6211,3.76849-3.8047,10.5781-5.0488,16.05849,0,0-5.8291-2.71869-12.2442-4.75479,6.541-14.0498,21.1738-53.9053,24.9649-67.1787,5.9629,2.6582,11.9863,4.5488,11.9863,4.5488-2.92679,6.0879-11.6992,27.3789-13.9307,34.6211-.8838,2.6972,.1612,3.1972,2.2471,1.5019,3.0752-2.5576,9.5762-9.2304,12.3691-12.2304,5.6924,2.7783,11.9131,4.74409,11.9131,4.74409-4.60939,3.67481-12.8525,10.81641-16.02539,14.24021-1.34471,1.5166-1.88181,2.6641-1.98531,4.7559-.2188,5.7422,.3535,18.7305,1.1015,26.4014Z" class="s"/><path d="M221.90256,107.79593s-6.333-2.5684-12.8838-4.5449c.67291-5.4629,1.46-14.2481,1.38091-17.97461-.12011-5.42289-2.085-4.35549-3.84671-.19149-1.6201,3.7696-3.8037,10.5801-5.0488,16.0586,0,0-5.8262-2.7168-12.2432-4.7539,6.542-14.0507,21.1738-53.9023,24.9649-67.1777,5.96481,2.6562,11.9873,4.5508,11.9873,4.5508-2.9258,6.0859-11.6983,27.3769-13.9297,34.6191-.88479,2.6963,.1611,3.1992,2.2451,1.502,3.0742-2.5586,9.58011-9.2305,12.3672-12.2295,5.6933,2.7793,11.915,4.74509,11.915,4.74509-4.6103,3.67191-12.8564,10.81641-16.0283,14.23831-1.34179,1.5176-1.8769,2.664-1.9814,4.7568-.2198,5.7412,.3545,18.7295,1.1015,26.4014Z" class="o"/><path d="M38.73606,52.26073c.8609-3.081,2.8648-6.414,6.4336-7.9082,5.3018-2.2226,10.5752-.4648,15.2017,5.9824,4.8081,6.6036,9.1635,17.8106,10.417,24.31449,1.5776,8.63281,.1508,15.23831-6.0191,17.82321-2.41159,1.00979-4.3174,.7881-6.8364-.083-.8198-.3349-1.2075-.1738-.8584,.92779,1.3022,3.64651,7.1733,16.03511,9.7739,20.61421,0,0-6.0039,2.17679-11.8213,5.0684-4.2719-13.1729-20.2563-51.5879-27.3545-65.2764,0,0,4.5157-1.666,9.2559-3.8789,0,0,.4951,1.7188,.8188,2.4912,.3638,.8682,.7486,.7061,.9888-.0752Zm9.0449,18.8809c3.8648,9.4883,7.2583,14.0752,10.2476,12.8213,2.9873-1.253,2.23-7.39551-1.4741-16.499-3.5786-8.81451-6.999-13.7286-10.0845-12.4356-3.1826,1.332-2.2695,7.2988,1.311,16.1133Z" style="fill:#cde7ca;stroke:#231f20;stroke-width:.9708px"/><path d="M110.10136,26.21874c.63031,5.4678-2.6944,9.0186-7.49469,9.5713-5.02,.5781-8.55951-2.6338-9.14791-7.76761-.5796-5.02339,2.2978-8.52139,7.4321-9.11319,4.7993-.55081,8.6187,2.1757,9.2105,7.3095Zm6.187,67.4854s-6.6216,.4228-13.5176,1.44329c-.14309-14.00779-2.7158-37.34859-5.7022-51.48039,6.9605-.4629,12.9488-1.4922,12.9488-1.4922,.2739,13.2012,2.8408,37.4492,6.271,51.5293Z" style="stroke-width:.9379px;fill:#cde7ca;stroke:#231f20"/><path d="M165.88406,47.89742c-3.3623-.18349-5.69439,9.44731-6.21,18.93751-.5439,9.9678,.3613,17.7266,3.8457,17.918,2.88091,.1572,3.8145-5.93551,4.0274-12.0693,6.333,.9463,13.0869,.833,13.0869,.833-.67,3.458-.961,11.0312-2.6123,14.7969-1.917,4.2343-6.24909,8.5742-15.0166,8.0957-7.68949-.4141-13.3653-4.5791-15.6582-13.3789-2.2647-9.2774-.92-22.9395,1.4472-31.00391,2.7832-9.12309,7.875-16.31739,17.9629-15.76959,9.7295,.5303,13.14161,6.4981,14.086,11.2461,.9414,4.874,.2089,11.6992,.4589,15.9307,0,0-6.6972-.8477-13.0976-.5928,.6836-8.1553,.6836-14.7832-2.3203-14.94341Z" style="stroke-width:1.0893px;fill:#cde7ca;stroke:#231f20"/><path d="M225.29616,105.16803s-6.3321-2.5684-12.8848-4.544c.6758-5.4648,1.4629-14.248,1.3848-17.97461-.125-5.42189-2.086-4.35549-3.8496-.19239-1.6231,3.7705-3.8047,10.582-5.04689,16.0606,0,0-5.83011-2.7159-12.24611-4.7549,6.543-14.0498,21.1719-53.90331,24.9648-67.1768,5.9659,2.6553,11.98831,4.5459,11.98831,4.5459-2.92581,6.0899-11.69921,27.3809-13.93261,34.624-.8809,2.6973,.165,3.1973,2.2471,1.503,3.0781-2.5606,9.5761-9.2305,12.3672-12.23241,5.69531,2.77921,11.9131,4.746,11.9131,4.746-4.6055,3.67191-12.8506,10.81651-16.0215,14.23741-1.3457,1.5185-1.8828,2.665-1.9854,4.7558-.2187,5.7442,.3545,18.7315,1.1016,26.4024Z" style="stroke-width:.878px;fill:#cde7ca;stroke:#231f20"/><path d="M236.29225,91.29883c-1.7149,3.55959-2.753,6.6563-2.30759,6.8818,.44529,.2256,3.22749-2.0371,5.15429-5.4873l4.26171-7.6333c1.92669-3.4497,3.32909-6.24461,3.11719-6.2104-.212,.0347-2.9278,2.5576-5.5538,5.50979l-4.6718,6.93941Zm5.23341-55.1025c1.80859,3.5127,5.42669,5.3047,8.039,3.9824,2.61229-1.3218,6.67969-5.273,3.13279-7.0147l-4.7783-2.34761c-3.5469-1.74169-6.7627-1.72409-7.1474,.03911l.1201,1.6401c.2099,2.8789,.63381,3.7007,.63381,3.7007Z" class="s"/><path d="M222.34786,139.25293c12.4336,6.8418,24.3282,10.5098,35.6846,11.002,10.32321,.4482,18.7705-2.1729,25.3545-7.8653,6.5781-5.6923,9.5469-12.9267,8.9043-21.7031-.8154-11.1172-7.0488-18.4707-18.6953-22.0684-5.8819,1.1465-10.8194,1.6309-14.8076,1.459-8.3975-.3652-15.5889-2.1406-21.583-5.33,2.3339-7.2774,6.5214-13.53671,12.5644-18.7789,4.0381-.81981,7.875-1.1523,11.5088-.9951,5.7588,.25,11.251,1.0498,16.4746,2.3955,15.6611-9.1391,23.0908-19.2197,22.2822-30.2451-.7558-10.3169-6.7011-15.7187-17.8271-16.2012-11.4053-.4946-22.5235,2.3843-33.3623,8.6373-2.4072-3.8467-3.7129-7.2085-3.9229-10.0874-.875-11.9146,14.51861-23.108,47.5752-21.6739,26.31841,1.1416,40.8457,16.7642,42.1797,34.9556,1.2256,16.72849-11.2578,30.2993-37.44729,40.709,19.67779,4.8213,30.11329,15.3388,31.30079,31.5478,1.166,15.919-5.2685,29.0684-19.30079,39.4571-14.03021,10.38859-31.01071,15.1503-50.93351,14.2871-27.4864-1.1924-41.56649-6.4453-42.25-15.7608-.2481-3.3955,1.8486-7.9756,6.3007-13.7412Z" style="fill:#231f20;stroke-width:1.2701px;stroke:#231f20"/><path d="M219.32446,134.21393c12.4336,6.8417,24.3281,10.5097,35.6846,11.0019,10.3232,.4482,18.7705-2.1728,25.3545-7.8652,6.57811-5.6924,9.5468-12.9268,8.9043-21.70321-.8155-11.11709-7.0489-18.47069-18.6954-22.06829-5.88179,1.1465-10.8193,1.6308-14.8076,1.459-8.3974-.3653-15.5888-2.14071-21.583-5.3301,2.334-7.2774,6.5215-13.53661,12.5645-18.7788,4.0381-.81981,7.875-1.1524,11.5088-.9951,5.7588,.25,11.2509,1.0498,16.4746,2.3955,15.6611-9.13921,23.0908-19.2198,22.2822-30.2451-.7559-10.3169-6.7012-15.7188-17.8272-16.2012-11.4052-.4946-22.5234,2.3843-33.3623,8.6372-2.4072-3.8467-3.71279-7.2085-3.92279-10.0874-.875-11.9146,14.51849-23.1079,47.57519-21.6738,26.3183,1.1416,40.8457,16.76409,42.1797,34.9555,1.2256,16.7285-11.2578,30.2993-37.4473,40.709,19.6777,4.8218,30.1133,15.3389,31.3008,31.5479,1.166,15.9189-5.2686,29.0683-19.3008,39.457-14.0303,10.38869-31.0107,15.1504-50.93359,14.2871-27.48631-1.19241-41.56641-6.4453-42.25-15.7607-.248-3.3955,1.84859-7.9756,6.30079-13.7412Z" class="n"/><path d="M244.84305,12.03124c-3.5635,3.6719-5.2715,8.0113-4.9385,12.5484,.2363,3.2407,1.61811,6.83979,4.2226,11.0019,.5713,.9126,1.7618,1.2095,2.6944,.6714,10.45311-6.0303,21.3125-8.8472,32.2763-8.3716,10.17581,.4414,15.2344,5.001,15.919,14.3492,.0351,.4775,.0527,.9541,.0527,1.4287,0,9.4653-6.9892,18.3877-20.7324,26.5556-5.085-1.2451-10.4463-2.0381-15.9951-2.2788-3.77639-.16361-7.8115,.1841-11.9942,1.0332-.3369,.0684-.6513,.22319-.9121,.44919-6.2949,5.46051-10.7217,12.08161-13.1582,19.67921-.29589,.9209,.1094,1.9229,.9649,2.376,6.2295,3.3145,13.7783,5.1856,22.4355,5.5625,4.0029,.1729,8.961-.30471,14.7149-1.3955,10.5957,3.4033,16.1347,9.9893,16.88081,20.1533,.05369,.7442,.08109,1.4756,.08109,2.1934,0,7.1728-2.7276,13.0293-8.2998,17.8506-6.1524,5.3193-14.2139,7.8027-23.959,7.3799-10.9922-.4766-22.7022-4.0957-34.8076-10.7559-.8633-.4746-1.9444-.25-2.5469,.5293-4.8047,6.2227-7.001,11.1641-6.7129,15.1094,.7783,10.5976,15.2227,16.3574,44.1582,17.6133,20.3018,.8808,37.8682-4.0586,52.21091-14.6778,13.44629-9.9551,20.24319-22.5469,20.24319-37.4726,0-1.2305-.0459-2.4756-.1387-3.7373-1.1347-15.4971-10.3418-26.147-27.3359-31.753,22.2852-9.9516,33.5703-22.7549,33.5703-38.1386,0-.7823-.0293-1.5708-.08789-2.3658-1.55861-21.2661-18.86421-35.7133-44.08691-36.8076-20.9043-.9067-36.78609,3.0957-44.7187,11.27Z" style="fill:#ed1c24;stroke-width:1.2701px;stroke:#231f20"/><path d="M130.81906,125.36033c0,3.4053-2.292,5.3496-5.2832,5.3496-3.126,0-5.07319-2.2226-5.07319-5.4199,0-3.1269,2.01849-5.0742,5.21379-5.0742,2.9883,0,5.1426,1.9473,5.1426,5.1445Zm-.9746,41.9063s-4.0996-.2061-8.4062-.0703c.90041-8.6153,.9716-23.1426,.1377-32.0371,4.3095,.207,8.0605,0,8.0605,0-.7627,8.1308-.9033,23.2129,.208,32.1074Zm3.1016-25.91021c1.247-5.35249,3.8183-9.66009,9.5898-9.66009,5.6973,0,8.2696,4.3076,9.5196,9.66009,1.11321,4.72661,1.5293,12.64851-.1397,17.92971-1.5283,5.0059-5.0029,7.2285-9.3799,7.2285-4.3789,0-7.9258-2.2226-9.4531-7.2285-1.5977-5.2812-1.249-13.2031-.1367-17.92971Zm12.5781,8.20121c0-5.5586-.9727-11.2598-2.9883-11.2598-2.0879,0-3.0595,5.7012-3.0595,11.2598,0,5.8369,.833,10.3555,3.0595,10.3555,2.1524,0,2.9883-4.5186,2.9883-10.3555Zm14.5957-18.0654c.2109,5.5576,1.043,15.9853,1.7373,19.667,.209,.9726,.626,.9726,.7647,0,.6279-3.8907,1.8095-13.6192,2.2255-18.2774,3.751,.2774,8.6167,0,8.6167,0,.419,5.0742,1.5284,14.6641,2.294,18.2774,.208,.9726,.6279,.90519,.76561,0,.69339-4.0996,1.59669-14.80281,1.80669-19.9453,3.2636,.208,7.5742,0,7.5742,0-1.6016,7.3691-4.37889,24.5332-5.42189,32.9433,0,0-4.86231-.2783-8.40821-.0693-.417-4.8672-1.8789-15.2881-2.6401-18.8369-.13869-.9004-.627-.9004-.836,0-.834,3.8242-2.084,13.1367-2.501,18.4882,0,0-4.3076-.1386-8.4091,0-1.041-7.7812-3.89359-25.2265-5.4219-32.247,3.7519,.209,7.8535,0,7.8535,0Zm28.0191,8.4394c1.5312-2.0869,4.3789-3.19821,7.71671-3.19821,3.05859,0,5.836,1.04491,7.504,3.33591,2.01749,2.8496,1.94719,7.1602,1.73819,13.2744-.207,4.5869-.1406,12.2998,.3496,17.5821,0,0-3.1289-.1377-6.6054,0,.14061-.69441,.2812-2.0147,.2812-2.5713,0-.4864-.2812-.625-.55659-.209-1.252,1.7363-3.68561,3.54489-6.39451,3.54489-4.5879,0-7.8516-2.98829-7.8516-8.20309,0-5.6973,3.1269-8.8926,8.3398-11.4658,3.6817-1.8057,5.209-3.335,5.209-5.5576,0-1.7383-.6933-2.9893-2.1543-2.9893-2.0859,0-2.5019,2.3643-2.2226,5.7685,0,0-3.4746-.3496-7.1602,0,.418-2.9892-.4141-6.2519,1.8067-9.3115Zm3.7539,22.2383c.1406,1.9463,1.5293,2.8477,3.13081,2.5029,2.709-.7656,3.61129-4.3115,3.05279-8.3418-.0665-.6953-.4161-.832-1.0391-.55661-2.7832,1.18361-5.3535,3.68551-5.1445,6.39551Z" class="o"/></g></svg>