<svg xmlns="http://www.w3.org/2000/svg" id="b" viewBox="0 0 355.73 181.88"><defs><style>.e,.g{stroke:#231f20}.e{stroke-width:.674px}.e,.g{fill:none}.q{fill:#c5731a}.r{fill:#27973e}.s{fill:#c4161c}.g{stroke-width:.7135px}.u{fill:#005798}.x{fill:#231f20}</style></defs><g id="c"><path d="M352.97975,110.42666c-.3789-5.4687-6.9825-8.8105-19.7959-10.0175l12.4043-44.2715,4.18451-12.6065c1.77149-5.1845,2.73249-9.4677,2.87989-12.84861,.12111-2.78709-.8174-4.96479-2.7851-6.54789-.5606-5.0029-5.127-7.70411-13.71979-8.07911-7.40041-.32419-14.75391,.78521-22.05071,3.32721-.03029,.6855-.0586,1.3643-.0899,2.0459-.4473,10.209-6.9111,36.0273-19.3945,77.4531-15.0625-.1719-25.7793-.2148-32.17089-.1308,7.62209-12.3067,15.26759-24.60841,22.94919-36.9102,12.0352-20.3037,18.1807-33.4053,18.4404-39.3105,.127-2.88971-.792-4.9454-2.7402-6.1719-.2559-4.0029-2.8652-6.1231-7.8418-6.3399-6.251-.2744-14.4844,2.3975-24.6953,8.0039-.5371,6.9668-1.9121,14.0957-4.1192,21.3789-.08-.0429-.1582-.0898-.2402-.1328l-56.8017-27.9004c-3.0831-1.5156-6.1524-.539-7.6123,2.127-1.8926,.35349-3.3711,1.8906-3.8028,4.3008l-1.0498,5.832c-.1465-.0215-.2861-.0488-.4365-.0625l-52.4697-4.5527c-1.4302-.125-2.7554,.1816-3.8736,.8017l-.0913-6.6826c-.05519-3.9219-3.28319-6.7187-7.1748-6.2168L66.39576,15.27626c-2.2066,.2852-3.8906,1.53229-4.7368,3.2422-1.8482,1.1143-2.9058,3.1192-2.772,5.3682L10.66426,49.69326c-1.0644,.57129-1.9296,1.3799-2.5669,2.3262l-1.0288,.5518c-3.4604,1.8506-4.8359,6.2295-3.0571,9.7265l37.2183,73.1973c1.7798,3.498,6.145,5.002,9.6982,3.3379l32.2168-15.0703c1.25491-.585,2.3218-1.5264,3.1377-2.6582l.4575-.21491c2.4785-1.16209,4.2364-3.68159,4.7285-6.38769,.3941,.05569,.7911,.0879,1.1856,.0791l37.4282-.52541c2.5606-.03509,4.7847-1.44429,6.0161-3.50089l.0386,2.416c.0591,4.04,3.3755,7.8584,7.3643,8.4844l31.7705,5.0009c3.8076,.5977,7.5-1.8691,8.4736-5.5488,0-.0019,.0029-.0019,.0039-.0039,.0049-.01371,.0156-.0664,.0273-.13871,.0352-.12889,.0704-.25579,.0938-.38859l1.6758-8.9883c.1679,.1015,.3349,.2011,.5058,.289l25.875,13.1827c2.6709,1.3603,5.8086,.8544,7.9258-1.0225,.16991,.0156,.33991,.0352,.5117,.041,.8164,3.43069,3.42,5.2461,7.8301,5.4375,1.54011,.0684,7.9922-.543,19.3506-1.8437,10.4561-1.1973,23.6221-1.5909,39.4873-1.1914l-4.8672,16.4648c-2.6611,8.9854-4.1113,16.3281-4.3584,22.0166-.1513,3.4473,.8389,6.1475,2.9492,8.126,1.1065,5.5644,6.1729,8.5537,15.2354,8.9502,7.2187,.3154,14.6953-1.0674,22.4297-4.1436-1.22849-3.71871-1.77049-7.1289-1.6387-10.22071,.2656-6.06049,3.1084-18.998,8.5391-38.81639,8.1308,1.125,15.37011,3.334,21.7148,6.6152,5.6211-8.9169,8.5166-15.25781,8.6817-19.00781,.09961-2.29289-.8155-4.23829-2.7383-5.83789Z" style="fill:#ccc"/><path d="M1.13496,55.82616c-1.7788-3.4981-.4033-7.876,3.0572-9.72761L54.07156,19.40326c3.4604-1.8516,7.124-.2656,8.1416,3.5244l22.6679,84.4492c1.01761,3.7901-1.0586,8.252-4.6132,9.9151l-32.2173,15.0683c-3.5547,1.6631-7.919,.1612-9.6978-3.3369L1.13496,55.82616Z" class="x"/><path d="M1.13496,55.82616c-1.7788-3.4981-.4033-7.876,3.0572-9.72761L54.07156,19.40326c3.4604-1.8516,7.124-.2656,8.1416,3.5244l22.6679,84.4492c1.01761,3.7901-1.0586,8.252-4.6132,9.9151l-32.2173,15.0683c-3.5547,1.6631-7.919,.1612-9.6978-3.3369L1.13496,55.82616Z" class="g"/><path d="M288.32 119.92c-17.74-.58-32.29-.22-43.65 1.07-11.36 1.3-17.81 1.91-19.35 1.84-5.64-.25-8.34-3.14-8.09-8.68.04-.88.2-2.21.51-4 .3-1.78.47-3.15.51-4.1 13.11-9.71 24.45-23.16 34.01-40.35 9.56-17.19 14.94-33.58 16.15-49.18 10.21-5.61 18.44-8.28 24.7-8 5.44.24 8.07 2.75 7.86 7.52-.26 5.91-6.4 19.01-18.44 39.31-8.76 14.03-17.48 28.05-26.16 42.09 3.68-.28 16.38-.3 38.1-.05 12.48-41.43 18.95-67.25 19.39-77.45.03-.68.06-1.36.09-2.05 7.3-2.54 14.65-3.65 22.05-3.33 9.45.42 14.05 3.63 13.78 9.63-.15 3.38-1.11 7.67-2.88 12.85l-4.19 12.61-13.72 48.96c16.19.9 24.14 4.62 23.85 11.16-.17 3.75-3.06 10.09-8.68 19.01-6.35-3.28-13.59-5.49-21.72-6.61-5.43 19.82-8.27 32.76-8.54 38.81-.13 3.09.41 6.5 1.64 10.22-7.74 3.08-15.21 4.46-22.43 4.14-10.64-.47-15.8-4.49-15.47-12.08.25-5.69 1.7-13.03 4.36-22.02l6.31-21.34ZM89.78 108.11c-3.92.06-8.04-2.98-9.16-6.74L56.27 18.94c-1.11-3.76 1.16-7.26 5.06-7.76L125.81 2.82c3.89-.5 7.12 2.29 7.17 6.22l1.26 91.31c.05 3.92-3.11 7.18-7.04 7.24l-37.43.53Z" class="x"/><path d="M89.77656,108.11026c-3.9238,.0557-8.0444-2.9785-9.1562-6.7422L56.26826,18.94036c-1.1118-3.7646,1.1631-7.25681,5.0552-7.7607L125.80836,2.81826c3.8921-.5039,7.1211,2.294,7.1748,6.2178l1.2573,91.31149c.0537,3.92391-3.11279,7.17971-7.0366,7.23541l-37.4273,.5273Z" class="g"/><path d="M138.11056,117.39155c-3.8711-.64549-7.0844-4.38479-7.1406-8.30859l-1.2515-87.666c-.0561-3.9239,3.0957-6.8408,7.0035-6.4815l49.1328,4.5176c3.9082,.3594,6.5488,3.8154,5.8681,7.6807l-15.7256,89.34179c-.68059,3.86521-4.4042,6.499-8.2753,5.85351l-29.6114-4.93751Z" class="x"/><path d="M138.11056,117.39155c-3.8711-.64549-7.0844-4.38479-7.1406-8.30859l-1.2515-87.666c-.0561-3.9239,3.0957-6.8408,7.0035-6.4815l49.1328,4.5176c3.9082,.3594,6.5488,3.8154,5.8681,7.6807l-15.7256,89.34179c-.68059,3.86521-4.4042,6.499-8.2753,5.85351l-29.6114-4.93751Z" class="g"/><path d="M91.58036,105.73826c-3.7071,.0517-7.59969-2.8145-8.6499-6.3702L58.35426,16.18455c-1.0503-3.55569,1.0986-6.85449,4.7749-7.33109L128.39476,.39255c3.6768-.47659,6.7271,2.167,6.7783,5.874l1.271,92.09761c.0513,3.7071-2.9399,6.7832-6.6469,6.835l-38.2168,.5391Z" style="fill:#ed1c24"/><path d="M91.58036,105.73826c-3.7071,.0517-7.59969-2.8145-8.6499-6.3702L58.35426,16.18455c-1.0503-3.55569,1.0986-6.85449,4.7749-7.33109L128.39476,.39255c3.6768-.47659,6.7271,2.167,6.7783,5.874l1.271,92.09761c.0513,3.7071-2.9399,6.7832-6.6469,6.835l-38.2168,.5391Z" class="e"/><path d="M78.34496,36.63076c-.9614-3.581-2.8008-7.7197-4.0879-9.19821-1.2876-1.47849-7.16839-.10739-8.8359,.78611-1.668,.8936-2.1734,4.5332-1.1226,8.08889l16.6099,56.21871c1.0508,3.5557,3.0874,7.9942,4.5259,9.86329,1.4384,1.86921,7.6435,3.32621,8.9907,3.30861,1.3472-.0185,1.6631-2.9638,.70161-6.5449l-16.78171-62.5225Z" class="s"/><path d="M183.17796,105.20596c-3.4971-1.7812-5.791-6.39941-5.0967-10.2627l15.0166-83.6181c.6944-3.8633,4.0772-5.4785,7.5176-3.5908l50.042,27.4531c3.4404,1.8877,4.8203,6.3047,3.0645,9.8154l-35.1202,70.2422c-1.7558,3.5107-6.0527,4.9248-9.5498,3.1436l-25.874-13.1827Z" class="x"/><path d="M183.17796,105.20596c-3.4971-1.7812-5.791-6.39941-5.0967-10.2627l15.0166-83.6181c.6944-3.8633,4.0772-5.4785,7.5176-3.5908l50.042,27.4531c3.4404,1.8877,4.8203,6.3047,3.0645,9.8154l-35.1202,70.2422c-1.7558,3.5107-6.0527,4.9248-9.5498,3.1436l-25.874-13.1827Z" class="g"/><path d="M128.49536,26.50486c-.875,1.9414-1.5449,6.5625-1.4888,10.2695l.93311,61.7109c.05619,3.7071,.40819,6.7354,.78229,6.7295,.3735-.0058,2.2753-.7558,4.2255-1.665,1.9498-.91021,3.4498-8.6133,3.399-12.3203l-.84279-61.04891c-.05081-3.707-.38531-6.76659-.74271-6.79779-.3579-.0313-5.3911,1.1816-6.2656,3.1221Z" class="s"/><path d="M140.22236,114.91886c-3.7695-.5927-6.9008-4.2002-6.9584-8.0146l-1.3316-88.0625c-.0576-3.8145,3.0054-6.667,6.8066-6.3369l53.2808,4.625c3.8018,.33,6.33991,3.6689,5.6406,7.4199l-16.7392,89.7539c-.6992,3.751-4.35549,6.335-8.125,5.7422l-32.5738-5.127Z" style="fill:#33b44a"/><path d="M140.22236,114.91886c-3.7695-.5927-6.9008-4.2002-6.9584-8.0146l-1.3316-88.0625c-.0576-3.8145,3.0054-6.667,6.8066-6.3369l53.2808,4.625c3.8018,.33,6.33991,3.6689,5.6406,7.4199l-16.7392,89.7539c-.6992,3.751-4.35549,6.335-8.125,5.7422l-32.5738-5.127Z" style="stroke-width:.6938px;fill:none;stroke:#231f20"/><path d="M4.55056,52.59855c-1.6802-3.30469-.3809-7.44039,2.8882-9.18939L58.01396,16.34176c3.269-1.749,6.7299-.251,7.6909,3.3291l22.874,85.2109c.9609,3.5811-1,7.7959-4.3584,9.3662l-32.9316,15.4033c-3.3584,1.5704-7.481,.1514-9.1612-3.1533L4.55056,52.59855Z" style="fill:#006ab6"/><path d="M4.55056,52.59855c-1.6802-3.30469-.3809-7.44039,2.8882-9.18939L58.01396,16.34176c3.269-1.749,6.7299-.251,7.6909,3.3291l22.874,85.2109c.9609,3.5811-1,7.7959-4.3584,9.3662l-32.9316,15.4033c-3.3584,1.5704-7.481,.1514-9.1612-3.1533L4.55056,52.59855Z" class="e"/><path d="M194.96996,19.03606c-1.8457-1.0674-3.7637-1.97651-4.2637-2.02051-.499-.04389-1.0498,.21971-1.22459,.585-.17481,.36621-1.09271,4.52541-1.84271,8.26661l-14.0381,69.9785c-.75,3.7412-1,8.7988-.5547,11.2392,.4443,2.4405,5.3193,6.4961,6.1836,6.89069,.8633,.39451,1.6035,.59961,1.6425,.457,.0401-.14259,.69541-3.59859,1.3946-7.34959l14.0469-75.3125c.6992-3.751,.50191-11.667-1.3438-12.7344Z" class="r"/><path d="M184.46896,103.01755c-3.5947-1.63969-5.9004-6.15139-5.123-10.02539L196.27566,8.58586c.77729-3.874,4.31439-5.6181,7.86129-3.8769l57.5586,28.2734c3.5469,1.74119,4.87211,5.9893,2.9453,9.4395l-39.7393,71.166c-1.9267,3.4502-6.4443,4.9306-10.039,3.291l-30.3936-13.86131Z" style="fill:#ef8b22"/><path d="M184.46896,103.01755c-3.5947-1.63969-5.9004-6.15139-5.123-10.02539L196.27566,8.58586c.77729-3.874,4.31439-5.6181,7.86129-3.8769l57.5586,28.2734c3.5469,1.74119,4.87211,5.9893,2.9453,9.4395l-39.7393,71.166c-1.9267,3.4502-6.4443,4.9306-10.039,3.291l-30.3936-13.86131Z" style="stroke-width:.7184px;fill:none;stroke:#231f20"/><path d="M263.89575,35.96676c-1.418-1.74421-3.8906-3.8155-5.4932-4.6026-1.6025-.7871-3.8232,1.6709-4.9345,5.4629,0,0-5.2637,17.9649-12.56839,31.0879-9.56251,17.1914-28.79591,35.4121-28.79591,35.4121-2.86909,2.7168-5.3115,5.98049-5.4287,7.252l-.3008,1.7832-.0322,.207c-.0352,.2168,1.7822,1.23629,4.0371,2.2656,2.2549,1.0284,6.0322,1.9073,8.39351,1.9532,2.36139,.0468,7.91019-6.3897,9.837-9.8399l32.32219-57.8838c1.92681-3.4502,4.38281-11.3535,2.9639-13.0976Z" class="q"/><path d="M33.54466,54.88176c.8628-3.082,2.8662-6.418,6.4321-7.9121,5.3047-2.2226,10.5757-.4629,15.2056,5.9834,4.8057,6.60349,9.1616,17.8106,10.4146,24.31449,1.5776,8.63181,.1518,15.23731-6.022,17.82321-2.4087,1.0117-4.3145,.7891-6.833-.0811-.8208-.3349-1.2075-.1767-.8594,.9278,1.3027,3.6455,7.1738,16.0342,9.7744,20.6123,0,0-6.0034,2.1777-11.8213,5.0683-4.2719-13.1728-20.2568-51.5878-27.3535-65.2773,0,0,4.5161-1.666,9.2564-3.877,0,0,.4956,1.71879,.8164,2.4903,.3647,.8681,.7495,.706,.9897-.0723Zm9.0464,18.8789c3.8628,9.4883,7.2573,14.0742,10.2466,12.8203,2.9892-1.2529,2.2295-7.3945-1.4732-16.498-3.58-8.8145-7.0009-13.7295-10.0869-12.4356-3.1831,1.3321-2.2666,7.2979,1.3135,16.1133Z" style="fill:#186ca1"/><path d="M34.98266,50.56536c.8623-3.082,2.8657-6.416,6.4326-7.9101,5.3037-2.22171,10.5762-.4649,15.2036,5.98429,4.8067,6.60161,9.1626,17.81061,10.416,24.31161,1.5777,8.6357,.1524,15.2392-6.0205,17.8271-2.4106,1.0088-4.3144,.7871-6.8354-.085-.8198-.3349-1.2031-.1748-.8584,.9268,1.3022,3.6494,7.1733,16.0381,9.772,20.6133,0,0-6.002,2.1797-11.8199,5.0703-4.27-13.1719-20.2548-51.5879-27.353-65.2774,0,0,4.5161-1.6669,9.2588-3.8759,0,0,.4922,1.7187,.8154,2.49019,.3623,.86821,.7481,.70411,.9888-.07519Zm9.0474,18.8809c3.8613,9.48829,7.2578,14.0722,10.2451,12.81929,2.9892-1.251,2.2295-7.39549-1.4741-16.49709-3.5777-8.8154-6.9991-13.7285-10.0835-12.4365-3.1822,1.3311-2.2701,7.2979,1.3125,16.1143Z" class="u"/><path d="M34.98266,50.56536c.8623-3.082,2.8657-6.416,6.4326-7.9101,5.3037-2.22171,10.5762-.4649,15.2036,5.98429,4.8067,6.60161,9.1626,17.81061,10.416,24.31161,1.5777,8.6357,.1524,15.2392-6.0205,17.8271-2.4106,1.0088-4.3144,.7871-6.8354-.085-.8198-.3349-1.2031-.1748-.8584,.9268,1.3022,3.6494,7.1733,16.0381,9.772,20.6133,0,0-6.002,2.1797-11.8199,5.0703-4.27-13.1719-20.2548-51.5879-27.353-65.2774,0,0,4.5161-1.6669,9.2588-3.8759,0,0,.4922,1.7187,.8154,2.49019,.3623,.86821,.7481,.70411,.9888-.07519Zm9.0474,18.8809c3.8613,9.48829,7.2578,14.0722,10.2451,12.81929,2.9892-1.251,2.2295-7.39549-1.4741-16.49709-3.5777-8.8154-6.9991-13.7285-10.0835-12.4365-3.1822,1.3311-2.2701,7.2979,1.3125,16.1143Z" class="u"/><path d="M34.98266,50.56536c.8623-3.082,2.8657-6.416,6.4326-7.9101,5.3037-2.22171,10.5762-.4649,15.2036,5.98429,4.8067,6.60161,9.1626,17.81061,10.416,24.31161,1.5777,8.6357,.1524,15.2392-6.0205,17.8271-2.4106,1.0088-4.3144,.7871-6.8354-.085-.8198-.3349-1.2031-.1748-.8584,.9268,1.3022,3.6494,7.1733,16.0381,9.772,20.6133,0,0-6.002,2.1797-11.8199,5.0703-4.27-13.1719-20.2548-51.5879-27.353-65.2774,0,0,4.5161-1.6669,9.2588-3.8759,0,0,.4922,1.7187,.8154,2.49019,.3623,.86821,.7481,.70411,.9888-.07519Zm9.0474,18.8809c3.8613,9.48829,7.2578,14.0722,10.2451,12.81929,2.9892-1.251,2.2295-7.39549-1.4741-16.49709-3.5777-8.8154-6.9991-13.7285-10.0835-12.4365-3.1822,1.3311-2.2701,7.2979,1.3125,16.1143Z" class="x"/><path d="M104.31906,27.30076c.6304,5.4677-2.6928,9.0185-7.4936,9.5703-5.023,.5781-8.5591-2.6338-9.1509-7.7686-.5776-5.0215,2.2993-8.5215,7.4336-9.1103,4.7988-.5528,8.6182,2.1728,9.2109,7.3086Zm6.187,67.4814s-6.622,.4277-13.5175,1.4453c-.1426-14.0068-2.7173-37.3476-5.7032-51.4824,6.959-.4609,12.9468-1.4902,12.9468-1.4902,.2783,13.2021,2.8447,37.4472,6.2739,51.5273Z" class="s"/><path d="M106.47636,24.42476c.6289,5.46779-2.6944,9.0176-7.4922,9.5703-5.02349,.5781-8.5601-2.6328-9.1504-7.7676-.5767-5.0224,2.2983-8.5215,7.4331-9.1123,4.7983-.5517,8.6181,2.1729,9.2095,7.3096Zm6.1875,67.4824s-6.6241,.4258-13.5186,1.44339c-.14159-14.00589-2.7173-37.34669-5.7012-51.47849,6.9585-.4639,12.9463-1.4942,12.9463-1.4942,.2774,13.2031,2.8438,37.4492,6.2735,51.5293Z" class="s"/><path d="M106.47636,24.42476c.6289,5.46779-2.6944,9.0176-7.4922,9.5703-5.02349,.5781-8.5601-2.6328-9.1504-7.7676-.5767-5.0224,2.2983-8.5215,7.4331-9.1123,4.7983-.5517,8.6181,2.1729,9.2095,7.3096Zm6.1875,67.4824s-6.6241,.4258-13.5186,1.44339c-.14159-14.00589-2.7173-37.34669-5.7012-51.47849,6.9585-.4639,12.9463-1.4942,12.9463-1.4942,.2774,13.2031,2.8438,37.4492,6.2735,51.5293Z" class="s"/><path d="M106.47636,24.42476c.6289,5.46779-2.6944,9.0176-7.4922,9.5703-5.02349,.5781-8.5601-2.6328-9.1504-7.7676-.5767-5.0224,2.2983-8.5215,7.4331-9.1123,4.7983-.5517,8.6181,2.1729,9.2095,7.3096Zm6.1875,67.4824s-6.6241,.4258-13.5186,1.44339c-.14159-14.00589-2.7173-37.34669-5.7012-51.47849,6.9585-.4639,12.9463-1.4942,12.9463-1.4942,.2774,13.2031,2.8438,37.4492,6.2735,51.5293Z" class="x"/><path d="M158.79806,49.43055c-3.3652-.18349-5.6943,9.44931-6.2119,18.93751-.542,9.9717,.3604,17.7286,3.8457,17.92,2.88281,.1562,3.8154-5.93751,4.0293-12.0703,6.333,.9472,13.086,.8339,13.086,.8339-.668,3.4571-.961,11.0293-2.6133,14.793-1.9151,4.2383-6.2471,8.5781-15.0176,8.1025-7.6865-.4179-13.3638-4.583-15.6567-13.3818-2.2652-9.2793-.9205-22.9394,1.4453-31.0039,2.7861-9.124,7.8764-16.3164,17.9653-15.7685,9.7314,.5263,13.1396,6.497,14.0869,11.2451,.9414,4.872,.208,11.7002,.457,15.9287,0,0-6.6972-.8467-13.0966-.5908,.6845-8.1573,.6826-14.7823-2.3194-14.94541Z" style="fill:#5ba043"/><path d="M161.67306,46.55266c-3.3633-.1806-5.6933,9.4483-6.2099,18.9404-.543,9.9707,.3613,17.7286,3.8457,17.918,2.88181,.1563,3.8154-5.93651,4.0273-12.0693,6.335,.9472,13.0869,.832,13.0869,.832-.6699,3.459-.9599,11.0322-2.6113,14.7959-1.917,4.2334-6.24709,8.5772-15.0176,8.0996-7.68549-.418-13.3642-4.582-15.6577-13.3799-2.2646-9.2783-.9219-22.9414,1.4468-31.00481,2.7842-9.12309,7.875-16.31839,17.9629-15.76959,9.7324,.5274,13.1426,6.4981,14.0879,11.2481,.9375,4.8711,.208,11.6963,.459,15.9287,0,0-6.6993-.8477-13.0997-.5928,.6856-8.1553,.6817-14.7812-2.3203-14.9463Z" class="r"/><path d="M161.67306,46.55266c-3.3633-.1806-5.6933,9.4483-6.2099,18.9404-.543,9.9707,.3613,17.7286,3.8457,17.918,2.88181,.1563,3.8154-5.93651,4.0273-12.0693,6.335,.9472,13.0869,.832,13.0869,.832-.6699,3.459-.9599,11.0322-2.6113,14.7959-1.917,4.2334-6.24709,8.5772-15.0176,8.0996-7.68549-.418-13.3642-4.582-15.6577-13.3799-2.2646-9.2783-.9219-22.9414,1.4468-31.00481,2.7842-9.12309,7.875-16.31839,17.9629-15.76959,9.7324,.5274,13.1426,6.4981,14.0879,11.2481,.9375,4.8711,.208,11.6963,.459,15.9287,0,0-6.6993-.8477-13.0997-.5928,.6856-8.1553,.6817-14.7812-2.3203-14.9463Z" class="r"/><path d="M161.67306,46.55266c-3.3633-.1806-5.6933,9.4483-6.2099,18.9404-.543,9.9707,.3613,17.7286,3.8457,17.918,2.88181,.1563,3.8154-5.93651,4.0273-12.0693,6.335,.9472,13.0869,.832,13.0869,.832-.6699,3.459-.9599,11.0322-2.6113,14.7959-1.917,4.2334-6.24709,8.5772-15.0176,8.0996-7.68549-.418-13.3642-4.582-15.6577-13.3799-2.2646-9.2783-.9219-22.9414,1.4468-31.00481,2.7842-9.12309,7.875-16.31839,17.9629-15.76959,9.7324,.5274,13.1426,6.4981,14.0879,11.2481,.9375,4.8711,.208,11.6963,.459,15.9287,0,0-6.6993-.8477-13.0997-.5928,.6856-8.1553,.6817-14.7812-2.3203-14.9463Z" class="x"/><path d="M218.30586,106.07026s-6.332-2.5674-12.8847-4.544c.6777-5.4638,1.4638-14.25,1.3847-17.9736-.123-5.4248-2.083-4.3564-3.8476-.1904-1.6211,3.7685-3.8047,10.5781-5.0488,16.0586,0,0-5.8291-2.7188-12.2442-4.7549,6.541-14.0498,21.1738-53.9053,24.9649-67.1787,5.9629,2.6582,11.9863,4.5488,11.9863,4.5488-2.92679,6.0879-11.6992,27.3789-13.9307,34.6211-.8838,2.6973,.1612,3.1973,2.2471,1.502,3.0752-2.5577,9.5762-9.2305,12.3691-12.2305,5.6924,2.7783,11.9131,4.7441,11.9131,4.7441-4.60939,3.67479-12.8525,10.8164-16.02539,14.2403-1.34471,1.5166-1.88181,2.664-1.98531,4.7558-.2188,5.7422,.3535,18.7305,1.1015,26.4014Z" class="q"/><path d="M221.90256,103.19426s-6.333-2.5683-12.8838-4.5449c.67291-5.4629,1.46-14.2481,1.38091-17.9746-.12011-5.4229-2.085-4.3555-3.84671-.1914-1.6201,3.7695-3.8037,10.5801-5.0488,16.0586,0,0-5.8262-2.7168-12.2432-4.7539,6.542-14.0508,21.1738-53.9024,24.9649-67.1778,5.96481,2.65629,11.9873,4.5508,11.9873,4.5508-2.9258,6.086-11.6983,27.377-13.9297,34.6192-.88479,2.6962,.1611,3.1992,2.2451,1.5019,3.0742-2.55861,9.58011-9.2305,12.3672-12.2295,5.6933,2.7793,11.915,4.7451,11.915,4.7451-4.6103,3.6719-12.8564,10.8164-16.0283,14.2383-1.34179,1.5176-1.8769,2.6641-1.9814,4.7569-.2198,5.7412,.3545,18.7294,1.1015,26.4013Z" class="x"/><path d="M38.73606,47.65916c.8609-3.0811,2.8648-6.4141,6.4336-7.9082,5.3018-2.2227,10.5752-.4649,15.2017,5.9824,4.8081,6.6035,9.1635,17.8105,10.417,24.3144,1.5776,8.63279,.1508,15.2383-6.0191,17.8233-2.4116,1.0097-4.3174,.7881-6.8364-.083-.8198-.335-1.2075-.1739-.8584,.9277,1.3022,3.6465,7.1733,16.0352,9.7739,20.6143,0,0-6.0039,2.1767-11.8213,5.0683-4.2719-13.17281-20.2563-51.5879-27.3545-65.2763,0,0,4.5157-1.6661,9.2559-3.879,0,0,.4951,1.7188,.8188,2.4913,.3638,.8681,.7486,.706,.9888-.0752Zm9.0449,18.8808c3.8648,9.4883,7.2583,14.0752,10.2476,12.8213,2.9873-1.2529,2.23-7.3955-1.4741-16.499-3.5786-8.8145-6.999-13.7285-10.0845-12.4356-3.1826,1.3321-2.2695,7.29889,1.311,16.1133Z" style="fill:#cde7ca;stroke:#231f20;stroke-width:.9708px"/><path d="M110.10136,21.61716c.63031,5.4677-2.6944,9.0185-7.49469,9.5713-5.02,.57809-8.55951-2.6338-9.14791-7.7676-.5796-5.0235,2.2978-8.5215,7.4321-9.11331,4.7993-.55079,8.6187,2.17581,9.2105,7.30961Zm6.187,67.4853s-6.6216,.4229-13.5176,1.4434c-.14309-14.0078-2.7158-37.3487-5.7022-51.4805,6.9605-.4629,12.9488-1.4922,12.9488-1.4922,.2739,13.2012,2.8408,37.4492,6.271,51.5293Z" style="stroke-width:.9379px;fill:#cde7ca;stroke:#231f20"/><path d="M165.88406,43.29586c-3.3623-.1836-5.69439,9.4472-6.21,18.9375-.5439,9.9678,.3613,17.7265,3.8457,17.9179,2.88091,.15729,3.8145-5.9355,4.0274-12.0693,6.333,.9463,13.0869,.833,13.0869,.833-.67,3.458-.961,11.0313-2.6123,14.7969-1.917,4.2344-6.24909,8.5742-15.0166,8.09569-7.68949-.41409-13.3653-4.57909-15.6582-13.37889-2.2647-9.2774-.92-22.9395,1.4472-31.0039,2.7832-9.1231,7.875-16.3174,17.9629-15.7695,9.7295,.5302,13.14161,6.498,14.086,11.246,.9414,4.8741,.2089,11.69929,.4589,15.9307,0,0-6.6972-.8476-13.0976-.5928,.6836-8.1552,.6836-14.7832-2.3203-14.9433Z" style="stroke-width:1.0893px;fill:#cde7ca;stroke:#231f20"/><path d="M225.29616,100.56636s-6.3321-2.5684-12.8848-4.544c.6758-5.46481,1.4629-14.248,1.3848-17.9746-.125-5.4218-2.086-4.3554-3.8496-.1923-1.6231,3.7705-3.8047,10.582-5.04689,16.0605,0,0-5.83011-2.7158-12.24611-4.7549,6.543-14.0498,21.1719-53.9033,24.9648-67.1767,5.9659,2.65519,11.98831,4.5459,11.98831,4.5459-2.92581,6.0898-11.69921,27.3808-13.93261,34.624-.8809,2.6972,.165,3.1972,2.2471,1.5029,3.0781-2.5605,9.5761-9.2305,12.3672-12.2324,5.69531,2.7793,11.9131,4.7461,11.9131,4.7461-4.6055,3.6719-12.8506,10.8164-16.0215,14.2373-1.3457,1.5185-1.8828,2.665-1.9854,4.7558-.2187,5.7442,.3545,18.7315,1.1016,26.4024Z" style="stroke-width:.878px;fill:#cde7ca;stroke:#231f20"/><path d="M285.59695,114.93355c-17.7422-.58109-32.295-.22559-43.6514,1.07521-11.3594,1.29979-17.8096,1.9101-19.3506,1.8427-5.6387-.249-8.3379-3.1367-8.0937-8.6826,.0371-.8799,.2002-2.2138,.5058-3.9961,.2949-1.7841,.4668-3.1543,.5069-4.0976,13.1123-9.7129,24.4521-23.1612,34.0146-40.34961,9.5674-17.18359,14.9492-33.57619,16.1523-49.17479,10.209-5.6084,18.4395-8.2764,24.6954-8.003,5.4433,.2373,8.06341,2.7432,7.85541,7.5176-.25781,5.9063-6.40431,19.0078-18.44141,39.3125-8.7588,14.0254-17.47459,28.05469-26.1582,42.0859,3.6865-.28221,16.3887-.3017,38.10261-.0546,12.47939-41.4278,18.95009-67.2442,19.39739-77.4532,.0293-.6816,.05861-1.3613,.0879-2.0449,7.3008-2.543,14.6543-3.6504,22.0488-3.3271,9.4532,.4131,14.04691,3.6279,13.7852,9.6338-.1475,3.38079-1.1094,7.6679-2.8779,12.8496l-4.1866,12.6074-13.7216,48.9599c16.1845,.8995,24.1377,4.6221,23.8525,11.1651-.1641,3.7519-3.0625,10.09179-8.6816,19.00779-6.3457-3.28129-13.584-5.48929-21.7168-6.61429-5.4297,19.8204-8.2725,32.7579-8.5372,38.8155-.1386,3.09179,.4063,6.5039,1.6397,10.2217-7.7354,3.07709-15.21579,4.458-22.4287,4.1435-10.6426-.4668-15.7988-4.4932-15.4668-12.082,.248-5.6895,1.6992-13.0332,4.3613-22.0196l6.3067-21.33881Z" style="fill:#ed1c24;stroke-width:1.3621px;stroke:#231f20"/><path d="M194.24 121.77c0 3.41-2.29 5.35-5.28 5.35-3.13 0-5.07-2.22-5.07-5.42 0-3.13 2.02-5.07 5.21-5.07 2.99 0 5.14 1.95 5.14 5.14Zm-.97 41.91s-4.1-.21-8.41-.07c.9-8.62.97-23.14.14-32.04 4.31.21 8.06 0 8.06 0-.76 8.13-.9 23.21.21 32.11ZM196.37 137.76c1.25-5.35 3.82-9.66 9.59-9.66 5.7 0 8.27 4.31 9.52 9.66 1.11 4.73 1.53 12.65-.14 17.93-1.53 5.01-5 7.23-9.38 7.23-4.38 0-7.93-2.22-9.45-7.23-1.6-5.28-1.25-13.2-.14-17.93Zm12.58 8.2c0-5.56-.97-11.26-2.99-11.26-2.09 0-3.06 5.7-3.06 11.26 0 5.84.83 10.36 3.06 10.36 2.15 0 2.99-4.52 2.99-10.36ZM223.54 127.9c.21 5.56 1.04 15.99 1.74 19.67.21.97.63.97.76 0 .63-3.89 1.81-13.62 2.23-18.28 3.75.28 8.62 0 8.62 0 .42 5.07 1.53 14.66 2.29 18.28.21.97.63.91.77 0 .69-4.1 1.6-14.8 1.81-19.95 3.26.21 7.58 0 7.58 0-1.6 7.37-4.38 24.53-5.42 32.94 0 0-4.86-.28-8.41-.07-.42-4.87-1.88-15.29-2.64-18.84-.14-.9-.63-.9-.84 0-.83 3.82-2.08 13.14-2.5 18.49 0 0-4.31-.14-8.41 0-1.04-7.78-3.89-25.23-5.42-32.25 3.75.21 7.85 0 7.85 0ZM251.56 136.34c1.53-2.09 4.38-3.2 7.72-3.2 3.06 0 5.84 1.05 7.5 3.34 2.02 2.85 1.95 7.16 1.74 13.27-.21 4.59-.14 12.3.35 17.58 0 0-3.13-.14-6.6 0 .14-.69.28-2.01.28-2.57 0-.49-.28-.62-.56-.21-1.25 1.74-3.69 3.55-6.39 3.55-4.59 0-7.85-2.99-7.85-8.2 0-5.7 3.13-8.89 8.34-11.47 3.68-1.81 5.21-3.33 5.21-5.56 0-1.74-.69-2.99-2.16-2.99-2.08 0-2.5 2.36-2.22 5.77 0 0-3.47-.35-7.16 0 .42-2.99-.41-6.25 1.81-9.31Zm3.75 22.24c.14 1.95 1.53 2.85 3.13 2.5 2.71-.77 3.61-4.31 3.05-8.34-.07-.7-.42-.83-1.04-.56-2.78 1.18-5.35 3.69-5.14 6.4Z" class="x"/></g></svg>