<svg xmlns="http://www.w3.org/2000/svg" xmlns:xlink="http://www.w3.org/1999/xlink" id="Layer_2" viewBox="0 0 145.92 120.74"><defs><linearGradient id="linear-gradient" x1="11.38" x2="11.38" y1="44.49" y2="78.61" gradientUnits="userSpaceOnUse"><stop offset=".28" stop-color="#27a9e1"/><stop offset=".67" stop-color="#1e76ba"/><stop offset="1" stop-color="#2a3b8f"/></linearGradient><linearGradient xlink:href="#linear-gradient" id="linear-gradient-2" x1="34.54" x2="34.54" y1="43.07" y2="79.22"/><linearGradient xlink:href="#linear-gradient" id="linear-gradient-3" x1="64.88" x2="64.88" y1="51.36" y2="79.22"/><linearGradient xlink:href="#linear-gradient" id="linear-gradient-4" x1="95.01" x2="95.01" y1="43.07"/><linearGradient xlink:href="#linear-gradient" id="linear-gradient-5" x1="125.54" x2="125.54" y1="51.17" y2="79.22"/><linearGradient id="linear-gradient-6" x1="18.32" x2="18.32" y1="119.51" y2="83.48" gradientUnits="userSpaceOnUse"><stop offset="0" stop-color="#39b54a"/><stop offset=".07" stop-color="#42b648"/><stop offset=".32" stop-color="#63bd45"/><stop offset=".57" stop-color="#7ac242"/><stop offset=".8" stop-color="#89c540"/><stop offset="1" stop-color="#8ec640"/></linearGradient><linearGradient xlink:href="#linear-gradient-6" id="linear-gradient-7" x1="56.14" x2="56.14" y1="117.49" y2="81.19"/><linearGradient xlink:href="#linear-gradient-6" id="linear-gradient-8" x1="127.11" x2="127.11" y1="112.78" y2="76.24"/><linearGradient xlink:href="#linear-gradient-6" id="linear-gradient-9" x1="91.52" x2="91.52" y1="119.78" y2="76.14"/><linearGradient xlink:href="#linear-gradient-6" id="linear-gradient-10" y1="119.83" y2="83.8"/><linearGradient xlink:href="#linear-gradient-6" id="linear-gradient-11" x1="56.14" x2="56.14" y1="117.81" y2="81.51"/><linearGradient xlink:href="#linear-gradient-6" id="linear-gradient-12" x1="127.11" x2="127.11" y1="113.09" y2="76.56"/><linearGradient xlink:href="#linear-gradient-6" id="linear-gradient-13" x1="91.52" x2="91.52" y1="120.1" y2="76.46"/><style>.cls-6{fill:#fff}</style></defs><g id="Layer_1-2"><path d="M23.33 46.72c2.4-4.12 3.95-8.58 8.63-10.63 6.26-2.75 9.48-8.4 13.01-13.77.64-.96 1.58-2.01 2.61-2.4 5.37-2.03 10.51-4.29 13.65-9.8l6.73 4.78c4.08-6.16 8.12-8.43 12.4-14.9.62 1.02 1.14 1.83 1.61 2.67 2.86 5.12 5.9 6.31 8.5 11.56 1.66 3.35 4.26 5.4 7.5 7.23l4.56-6.26c.77 1.03 1.48 1.8 1.98 2.68a18.85 18.85 0 0 0 10 8.73c.88.34 1.9 1.14 2.23 1.97 2.67 6.76 9.14 12.65 14.37 20.08-17.74-5.75-38.93 2.56-65.67-2.64-8.62-1.67-29.23 5.86-42.1.7ZM87.1 26.88c-2.55-1.37-4.38-2.17-5.98-3.3-.73-.51-2.99-3.89-2.93-4.71.32-4.24 2.47-2.42 2.85-6.65.18-2.04.03-4.11.03-6.17l-1.16-.18c-3.94 6.66-9.69 8.44-11.58 16.28-.73 3.02-2.42 4.84-5.08 6.29-4.48 2.44-8.81 5.17-13.21 7.78l.27.56 18.1-6.1c1.59 2.76-.36 3.2 1.48 6.4.24-3.5 3.87-4.08 3.97-6.72.06-1.56.55-2.39 2.27-2.49 3.38-.2 6.75-.6 10.97-.99Zm-52.7 10.3.92 1.24c3.02-1.73 6.67-2.88 8.93-5.31 4.11-4.42 8.62-7.43 14.64-8.1.75-.09 1.48-.3 2.21-.48 2.82-.69 5.05-2.91 5.03-6.08 0-1.15-2-2.3-3.12-3.4-.32-.31-.8-.45-1.48-.82-2.54 5.02-7.53 6.27-12.1 8.23a5.8 5.8 0 0 0-2.36 1.84c-3.51 4.96-6.1 10.75-12.67 12.89Zm75.47-9.62-7.57-8.77c-2.62 3.92-5.26 8.05-8.1 12.03a9.07 9.07 0 0 1-3.39 2.75c-2.57 1.22-5.29 2.14-7.95 3.2 4.67.14 9.2-.19 13.69-.7.74-.1 1.8-.9 2-1.58 1.42-4.6 4.9-6.03 9.2-6.41.9-.08 1.77-.43 2.12-.52Z" style="fill:#929496"/><path d="M5.36 44.49H17.4v34.12H5.36z" style="fill:url(#linear-gradient)"/><path d="M16.92 44.97v33.16H5.84V44.97h11.08m.96-.96h-13v35.08h13V44Z" class="cls-6"/><path d="M30.9 79.22c-1.65 0-3.2-.34-4.6-1.02a11.25 11.25 0 0 1-3.68-2.87 13.57 13.57 0 0 1-2.46-4.36 16.91 16.91 0 0 1-.87-5.59c0-2.19.3-4.12.9-5.84.6-1.72 1.42-3.22 2.44-4.46a10.88 10.88 0 0 1 3.66-2.9c1.4-.67 2.9-1.01 4.48-1.01 2.04 0 3.71.39 4.98 1.16.85.52 1.62 1.09 2.3 1.7V43.08H49.8V78.6H38.04l.03-2.46-.57.55a9.46 9.46 0 0 1-6.6 2.52ZM34.47 61a3.5 3.5 0 0 0-2.7 1.17 4.2 4.2 0 0 0-1.1 2.99c0 1.3.35 2.28 1.1 3.08a3.5 3.5 0 0 0 2.7 1.17 3.5 3.5 0 0 0 2.71-1.17 4.2 4.2 0 0 0 1.1-2.99 4.64 4.64 0 0 0-1.1-3.07 3.67 3.67 0 0 0-2.7-1.19Z" style="fill:url(#linear-gradient-2)"/><path d="M49.32 43.55v34.58h-10.8l.05-3.18c-.44.48-.9.94-1.4 1.4a8.94 8.94 0 0 1-6.27 2.4 9.96 9.96 0 0 1-4.39-.98A10.73 10.73 0 0 1 23 75.02a13.04 13.04 0 0 1-2.37-4.21 16.35 16.35 0 0 1-.85-5.43v-.09c0-2.05.29-3.92.87-5.59A13.81 13.81 0 0 1 23 55.39c1-1.2 2.16-2.12 3.5-2.77a9.7 9.7 0 0 1 4.27-.97c1.96 0 3.53.36 4.73 1.09 1.2.72 2.2 1.54 3.02 2.46V43.55h10.8M34.47 69.88a4 4 0 0 0 3.06-1.32 4.7 4.7 0 0 0 1.23-3.32v-.1a4.96 4.96 0 0 0-1.23-3.28 4.13 4.13 0 0 0-3.06-1.35 4 4 0 0 0-3.06 1.32 4.7 4.7 0 0 0-1.22 3.32v.1c0 1.32.4 2.42 1.22 3.3a4 4 0 0 0 3.06 1.33m15.81-27.3H37.56V53a10 10 0 0 0-6.8-2.31c-1.64 0-3.22.36-4.68 1.07-1.46.7-2.74 1.72-3.82 3.02a14.83 14.83 0 0 0-2.53 4.6 17.93 17.93 0 0 0-.92 5.91v.1c0 2.08.3 4.01.9 5.73.6 1.74 1.46 3.26 2.55 4.53a11.73 11.73 0 0 0 3.84 2.98c1.47.71 3.08 1.07 4.8 1.07a10.33 10.33 0 0 0 5.12-1.31 10 10 0 0 0 1.56-1.11l-.02.83-.01.98h12.73v-36.5Zm-15.8 26.35c-.96 0-1.73-.34-2.37-1.02a3.74 3.74 0 0 1-.97-2.67v-.1c0-1.08.32-1.95.97-2.66a3.05 3.05 0 0 1 2.36-1.02 3.16 3.16 0 0 1 2.35 1.03 3.97 3.97 0 0 1 .98 2.66v.1c0 1.08-.32 1.95-.97 2.66a3.05 3.05 0 0 1-2.36 1.02Z" class="cls-6"/><path d="M60.03 79.22c-1.28 0-2.48-.18-3.56-.54a8.09 8.09 0 0 1-2.87-1.64 7.35 7.35 0 0 1-1.88-2.66 9.27 9.27 0 0 1-.65-3.6c0-2.82.95-4.96 2.84-6.44 1.84-1.45 4.36-2.18 7.5-2.18a22.35 22.35 0 0 1 5.62.74 2.86 2.86 0 0 0-.97-2.15c-.66-.57-1.78-.85-3.33-.85-1.29 0-2.5.13-3.61.39-1.13.26-2.26.6-3.37 1.04l-.5.2-2.14-8.1.4-.15c1.53-.57 3.2-1.04 4.95-1.4a31.6 31.6 0 0 1 6.11-.52c2.7 0 4.96.28 6.76.85 1.82.57 3.34 1.46 4.53 2.65a8.84 8.84 0 0 1 2.2 3.6c.42 1.34.64 3 .64 4.94v15.2H66.99v-1.95a10.21 10.21 0 0 1-6.96 2.57Zm5.11-11.7c-.94 0-1.65.24-2.13.7-.47.46-.7 1.02-.7 1.71 0 .73.18 1.2.56 1.58.39.37.85.55 1.42.55.81 0 1.47-.3 2.01-.9.55-.62.83-1.5.83-2.6v-.75a6.34 6.34 0 0 0-1.99-.29Z" style="fill:url(#linear-gradient-3)"/><path d="M64.57 51.84c2.66 0 4.86.27 6.61.83 1.76.55 3.2 1.4 4.34 2.53a8.33 8.33 0 0 1 2.08 3.41c.41 1.3.62 2.89.62 4.79v14.73H67.46v-2.6a9.69 9.69 0 0 1-7.44 3.22c-1.22 0-2.36-.18-3.4-.53a7.58 7.58 0 0 1-2.7-1.54 6.83 6.83 0 0 1-1.76-2.48 8.76 8.76 0 0 1-.61-3.42v-.09c0-2.59.88-4.58 2.65-5.97 1.77-1.39 4.17-2.08 7.2-2.08a21.57 21.57 0 0 1 4.97.59c.48.11.86.23 1.14.35v-.42c0-1.2-.38-2.13-1.14-2.77-.75-.65-1.97-.97-3.64-.97-1.33 0-2.57.13-3.72.4-1.15.27-2.3.62-3.44 1.06l-1.89-7.15a31.46 31.46 0 0 1 4.88-1.37c1.74-.35 3.74-.52 6.01-.52m-.28 20.7c.95 0 1.74-.36 2.37-1.07.63-.7.95-1.68.95-2.91v-1.1a7.6 7.6 0 0 0-2.46-.43c-1.08.01-1.9.29-2.47.84a2.76 2.76 0 0 0-.85 2.06v.1c0 .75.23 1.36.7 1.82.48.46 1.07.69 1.76.69m.28-21.66c-2.32 0-4.4.18-6.2.54-1.78.35-3.47.83-5.03 1.41l-.8.3.21.85 1.9 7.15.27 1.04 1-.4c1.1-.42 2.2-.76 3.3-1.02a15.5 15.5 0 0 1 3.5-.38c1.42 0 2.46.26 3.03.75.35.29.58.67.7 1.14a28.2 28.2 0 0 0-3.27-.5c-.62-.06-1.22-.08-1.78-.08-3.24 0-5.86.77-7.8 2.29-2 1.57-3.01 3.83-3.01 6.72v.1c0 1.41.23 2.68.7 3.78a7.82 7.82 0 0 0 1.99 2.83 8.56 8.56 0 0 0 3.03 1.73c1.14.38 2.39.57 3.72.57a10.68 10.68 0 0 0 6.48-2.06v1.45h12.67v-15.7c0-1.98-.23-3.68-.66-5.07a9.31 9.31 0 0 0-2.33-3.8 11.44 11.44 0 0 0-4.72-2.77 23.37 23.37 0 0 0-6.9-.87Zm-.28 20.7c-.45 0-.8-.13-1.09-.42-.28-.27-.41-.63-.41-1.13v-.1c0-.56.17-1 .56-1.37.38-.37.98-.56 1.8-.56a6.68 6.68 0 0 1 1.5.18v.38c0 1-.23 1.74-.7 2.27-.46.51-.98.75-1.66.75Z" class="cls-6"/><path d="M97.49 78.6V64.54c0-.98-.24-1.74-.71-2.26a2.19 2.19 0 0 0-1.7-.76 2.4 2.4 0 0 0-1.78.78c-.52.52-.77 1.26-.77 2.24v14.08H80.77V43.07h11.76v11.37c.7-.72 1.52-1.38 2.45-1.97a9.17 9.17 0 0 1 4.96-1.3c2.86 0 5.15.9 6.82 2.66 1.65 1.76 2.49 4.2 2.49 7.24v17.54H97.49Z" style="fill:url(#linear-gradient-4)"/><path d="M92.05 43.55v12.17a11.94 11.94 0 0 1 3.19-2.84 8.66 8.66 0 0 1 4.7-1.23c2.74 0 4.9.83 6.47 2.5 1.57 1.68 2.36 3.99 2.36 6.92v17.06h-10.8v-13.6a3.7 3.7 0 0 0-.84-2.58c-.56-.62-1.24-.92-2.05-.92s-1.52.3-2.12.92-.91 1.48-.91 2.58v13.6h-10.8V43.55h10.8m.96-.96H80.29v36.5H93V64.53c0-.85.2-1.47.63-1.9.43-.44.89-.64 1.44-.64.54 0 .96.19 1.34.6.4.44.59 1.09.59 1.94V79.1h12.72V61.07c0-3.17-.88-5.72-2.62-7.57-1.76-1.86-4.17-2.81-7.17-2.81-2 0-3.76.46-5.21 1.38-.63.39-1.2.8-1.72 1.26V42.59Z" class="cls-6"/><path d="M125.49 79.22c-2.17 0-4.2-.37-6.03-1.1a14.56 14.56 0 0 1-4.75-3.01 13.8 13.8 0 0 1-3.09-4.44 13.35 13.35 0 0 1-1.1-5.38c0-1.99.38-3.8 1.13-5.5a14.06 14.06 0 0 1 7.86-7.5 16.03 16.03 0 0 1 6.07-1.12c2.17 0 4.2.37 6.03 1.1a13.81 13.81 0 0 1 7.84 7.45c.74 1.68 1.1 3.5 1.1 5.38 0 1.99-.37 3.8-1.12 5.5a14.06 14.06 0 0 1-7.89 7.5 16.1 16.1 0 0 1-6.05 1.12Zm0-18.1c-1.07 0-1.93.38-2.63 1.16a4.03 4.03 0 0 0-1.06 2.82c0 1.26.36 2.21 1.1 3a3.5 3.5 0 0 0 2.68 1.16c1.07 0 1.93-.37 2.63-1.15a4.03 4.03 0 0 0 1.06-2.82c0-1.26-.36-2.21-1.1-3a3.5 3.5 0 0 0-2.68-1.16Z" style="fill:url(#linear-gradient-5)"/><path d="M125.58 51.65c2.12 0 4.07.35 5.85 1.06a14 14 0 0 1 4.6 2.92A13.27 13.27 0 0 1 139 59.9a12.83 12.83 0 0 1 1.07 5.19v.1c0 1.83-.37 3.56-1.1 5.2a13.53 13.53 0 0 1-7.62 7.25c-1.8.73-3.76 1.1-5.87 1.1-2.12 0-4.07-.36-5.85-1.07a14.01 14.01 0 0 1-4.6-2.92 13.26 13.26 0 0 1-2.98-4.28 12.81 12.81 0 0 1-1.07-5.19v-.1c0-1.83.37-3.56 1.1-5.2a13.51 13.51 0 0 1 3-4.32 14.33 14.33 0 0 1 4.6-2.93 15.5 15.5 0 0 1 5.9-1.1m0 18.1c1.2 0 2.19-.44 2.98-1.31a4.53 4.53 0 0 0 1.18-3.14v-.1c0-1.28-.4-2.35-1.23-3.23a4 4 0 0 0-3.03-1.31c-1.2 0-2.2.44-2.98 1.31a4.53 4.53 0 0 0-1.19 3.14v.1c0 1.28.41 2.36 1.23 3.23a4 4 0 0 0 3.03 1.31m0-19.05c-2.26 0-4.36.39-6.25 1.16a14.53 14.53 0 0 0-8.12 7.75 13.74 13.74 0 0 0-1.17 5.6v.09c0 1.96.38 3.83 1.14 5.57a14.28 14.28 0 0 0 3.2 4.6 15.03 15.03 0 0 0 4.9 3.1 16.7 16.7 0 0 0 6.2 1.14c2.24 0 4.33-.39 6.24-1.16a14.55 14.55 0 0 0 8.14-7.75 13.75 13.75 0 0 0 1.18-5.6v-.09c0-1.95-.39-3.83-1.15-5.57a14.29 14.29 0 0 0-3.2-4.6 15.02 15.02 0 0 0-4.9-3.1 16.7 16.7 0 0 0-6.2-1.14Zm0 18.1c-.93 0-1.7-.34-2.33-1.02a3.6 3.6 0 0 1-.97-2.58v-.09c0-.98.3-1.8.94-2.5.6-.67 1.34-1 2.27-1 .93 0 1.7.34 2.33 1.02.66.7.97 1.54.97 2.57v.1c0 .98-.3 1.8-.93 2.5-.6.67-1.35 1-2.28 1Z" class="cls-6"/><path d="M19.98 119.47c-2.4.15-4.7-.14-6.9-.86a17.4 17.4 0 0 1-10.17-8.7 17.9 17.9 0 0 1-1.9-7.18l-.01-.1c-.16-2.56.16-4.97.96-7.22a17.31 17.31 0 0 1 9.12-10.08 19.02 19.02 0 0 1 7.1-1.8c1.9-.12 3.66 0 5.28.33 1.62.35 3.1.87 4.44 1.58a15.6 15.6 0 0 1 3.62 2.61c1.07 1.04 2 2.2 2.81 3.46l-9.15 6.15a9.43 9.43 0 0 0-2.62-2.87 5.95 5.95 0 0 0-3.88-.92 5.87 5.87 0 0 0-4.54 2.5c-.51.73-.9 1.56-1.15 2.5a8.98 8.98 0 0 0-.29 2.93v.1c.08 1.11.3 2.13.67 3.04.37.92.86 1.7 1.48 2.33a5.96 5.96 0 0 0 4.78 1.85 6.04 6.04 0 0 0 3.86-1.45c.93-.87 1.72-1.96 2.36-3.29l9.83 4.77c-.64 1.33-1.42 2.59-2.33 3.78s-2 2.25-3.28 3.17a17.81 17.81 0 0 1-4.4 2.27c-1.67.6-3.56.96-5.7 1.1Z" style="stroke:#fff;stroke-linejoin:round;stroke-width:1.91722px;fill:url(#linear-gradient-6)"/><path d="m48.27 81.9 11.4-.71 16.69 33.77-12.5.79-2.1-4.52-12.06.76-1.48 4.73-12.3.77L48.27 81.9Zm10.12 21.35-3.67-8.17-2.63 8.56 6.3-.4Z" style="fill:url(#linear-gradient-7);stroke:#fff;stroke-linejoin:round;stroke-width:1.91722px"/><path d="m109.26 78.34 11.5-.72.77 12.15 10.52-.66-.75-12.15 11.5-.72 2.16 34.44-11.51.72-.77-12.35-10.53.66.77 12.35-11.51.72-2.15-34.44Z" style="fill:url(#linear-gradient-8);stroke:#fff;stroke-linejoin:round;stroke-width:1.91722px"/><path d="M90.5 114.77a35.02 35.02 0 0 1-8.3-1.16 28.53 28.53 0 0 1-7.4-3.09l4.68-7.96a30.34 30.34 0 0 0 5.64 2.5c1.8.56 3.5.9 5.14 1.04l-.26-4.2c-2.26-.3-4.25-.69-6-1.17a15.15 15.15 0 0 1-4.4-1.93 8.8 8.8 0 0 1-2.8-2.95 9.58 9.58 0 0 1-1.16-4.22v-.1c-.1-1.55.09-3.02.56-4.4a9.44 9.44 0 0 1 2.31-3.68 12.93 12.93 0 0 1 4.1-2.66c1.66-.72 3.62-1.2 5.88-1.44l-.18-2.88 5.26-.33.19 3.04a26.5 26.5 0 0 1 12.14 3.35l-4.38 8a16.32 16.32 0 0 0-3.66-1.7 24.5 24.5 0 0 0-3.86-.94l.26 4.15c2.14.27 4.05.65 5.73 1.12 1.67.47 3.1 1.1 4.28 1.89a8.57 8.57 0 0 1 2.77 2.97c.67 1.2 1.06 2.65 1.17 4.37v.1a9.56 9.56 0 0 1-3.1 8.09c-1.09 1-2.42 1.84-4 2.51a20.27 20.27 0 0 1-5.35 1.4l.3 4.96-5.25.33-.31-5ZM89.2 87.74c-1.24.1-2.1.36-2.6.74s-.7.83-.67 1.34v.1c.04.54.3.96.8 1.25.49.29 1.4.51 2.73.66l-.26-4.1Zm5.83 18.42c1.17-.14 2-.4 2.46-.76.47-.37.69-.82.65-1.36v-.1a1.46 1.46 0 0 0-.74-1.23 7.41 7.41 0 0 0-2.63-.65l.26 4.1Z" style="fill:url(#linear-gradient-9);stroke:#fff;stroke-linejoin:round;stroke-width:1.91722px"/><path d="M19.98 119.79c-2.4.15-4.7-.14-6.9-.86a17.4 17.4 0 0 1-10.17-8.7 17.9 17.9 0 0 1-1.9-7.18l-.01-.1c-.16-2.56.16-4.97.96-7.22a17.31 17.31 0 0 1 9.12-10.08 19.02 19.02 0 0 1 7.1-1.8c1.9-.12 3.66 0 5.28.33 1.62.35 3.1.87 4.44 1.58a15.6 15.6 0 0 1 3.62 2.61c1.07 1.04 2 2.19 2.81 3.46l-9.15 6.15a9.43 9.43 0 0 0-2.62-2.87 5.95 5.95 0 0 0-3.88-.92 5.87 5.87 0 0 0-4.54 2.5c-.51.73-.9 1.56-1.15 2.5a8.98 8.98 0 0 0-.29 2.93v.1c.08 1.11.3 2.13.67 3.04.37.92.86 1.7 1.48 2.33a5.96 5.96 0 0 0 4.78 1.85 6.04 6.04 0 0 0 3.86-1.45c.93-.87 1.72-1.96 2.36-3.29l9.83 4.77a21.95 21.95 0 0 1-2.33 3.78c-.91 1.2-2 2.25-3.28 3.17a17.81 17.81 0 0 1-4.4 2.27c-1.67.6-3.56.96-5.7 1.1Z" style="fill:url(#linear-gradient-10)"/><path d="m48.27 82.22 11.4-.71 16.69 33.77-12.5.79-2.1-4.52-12.06.76-1.48 4.73-12.3.77 12.35-35.59Zm10.12 21.35-3.67-8.17-2.63 8.56 6.3-.4Z" style="fill:url(#linear-gradient-11)"/><path d="m109.26 78.66 11.5-.72.77 12.15 10.52-.66-.75-12.15 11.5-.72 2.16 34.44-11.51.72-.77-12.35-10.53.66.77 12.35-11.51.71-2.15-34.43Z" style="fill:url(#linear-gradient-12)"/><path d="M90.5 115.1a35.02 35.02 0 0 1-8.3-1.17 28.53 28.53 0 0 1-7.4-3.09l4.68-7.96a30.34 30.34 0 0 0 5.64 2.5c1.8.56 3.5.9 5.14 1.04l-.26-4.2c-2.26-.3-4.25-.69-6-1.17a15.15 15.15 0 0 1-4.4-1.93 8.8 8.8 0 0 1-2.8-2.95 9.58 9.58 0 0 1-1.16-4.22v-.1c-.1-1.55.09-3.02.56-4.4a9.44 9.44 0 0 1 2.31-3.68 12.93 12.93 0 0 1 4.1-2.66c1.66-.72 3.62-1.2 5.88-1.44l-.18-2.88 5.26-.33.19 3.04a26.5 26.5 0 0 1 12.14 3.35l-4.38 8a16.32 16.32 0 0 0-3.66-1.7A24.5 24.5 0 0 0 94 88.2l.26 4.15c2.14.27 4.05.65 5.73 1.12 1.67.47 3.1 1.1 4.28 1.89a8.57 8.57 0 0 1 2.77 2.97c.67 1.2 1.06 2.65 1.17 4.37v.1a9.56 9.56 0 0 1-3.1 8.09c-1.09 1-2.42 1.84-4 2.51a20.27 20.27 0 0 1-5.35 1.4l.3 4.96-5.25.33-.31-5ZM89.2 88.05c-1.24.1-2.1.36-2.6.74s-.7.83-.67 1.34v.1c.04.54.3.96.8 1.25.49.29 1.4.51 2.73.66l-.26-4.1Zm5.83 18.42c1.17-.14 2-.4 2.46-.76.47-.37.69-.82.65-1.36v-.1a1.46 1.46 0 0 0-.74-1.23 7.41 7.41 0 0 0-2.63-.65l.26 4.1Z" style="fill:url(#linear-gradient-13)"/></g></svg>