<svg id="b" xmlns="http://www.w3.org/2000/svg" viewBox="0 0 420.64 155.84"><defs><style>.e{fill:#007da5}</style></defs><g id="c"><path class="e" d="M342.73 152.16c-40.94 0-74.25-33.3-74.25-74.25 0-40.93 33.3-74.24 74.25-74.24 40.93 0 74.24 33.3 74.24 74.24s-33.3 74.25-74.24 74.25"/><path class="e" d="M342.73 7.34c38.9 0 70.57 31.66 70.57 70.58s-31.66 70.57-70.57 70.57c-38.92 0-70.58-31.66-70.58-70.57s31.66-70.58 70.58-70.58m0-7.34a77.92 77.92 0 1 0 0 155.83 77.92 77.92 0 0 0 0-155.83M37.03 106.02H19.4v25.56c0 3.66-.91 6.43-2.74 8.32a9.22 9.22 0 0 1-6.92 2.83c-2.92 0-5.27-.94-7.05-2.8C.89 138.04 0 135.3 0 131.67V61.95c0-4.03.97-6.91 2.92-8.64 1.96-1.73 5.06-2.6 9.3-2.6H37c7.32 0 12.96.54 16.9 1.61a25.74 25.74 0 0 1 10.14 5.13c2.84 2.4 5 5.32 6.48 8.78a29.48 29.48 0 0 1 2.22 11.67c0 9.23-3 16.22-8.98 20.98-5.98 4.76-14.89 7.14-26.73 7.14m-4.67-41.54H19.4v27.65h12.97c4.54 0 8.34-.45 11.39-1.35 3.04-.9 5.37-2.39 6.97-4.45 1.6-2.05 2.4-4.75 2.4-8.08 0-4-1.23-7.25-3.7-9.76-2.76-2.67-8.45-4-17.06-4M96.61 66.44c-2.47 0-4.6-.73-6.35-2.17-1.76-1.44-2.64-3.48-2.64-6.12 0-2.4.9-4.37 2.7-5.91a9.35 9.35 0 0 1 6.3-2.33c2.3 0 4.33.7 6.12 2.11 1.78 1.4 2.67 3.44 2.67 6.13 0 2.6-.87 4.62-2.6 6.09a9.3 9.3 0 0 1-6.2 2.2m8.8 17.36v48.68c0 3.38-.85 5.93-2.54 7.66-1.7 1.72-3.85 2.6-6.45 2.6s-4.73-.9-6.36-2.66c-1.62-1.77-2.44-4.3-2.44-7.6V84.3c0-3.33.82-5.84 2.44-7.53 1.63-1.69 3.75-2.53 6.36-2.53s4.75.84 6.45 2.53c1.69 1.69 2.54 4.03 2.54 7.03M187.42 121.9c0 2.1-.66 4.34-1.99 6.72a23.4 23.4 0 0 1-6.05 6.81 31.9 31.9 0 0 1-10.25 5.21 45.73 45.73 0 0 1-13.93 1.98c-10.98 0-19.54-3.04-25.69-9.1-6.15-6.07-9.22-14.2-9.22-24.41 0-6.91 1.4-13.02 4.22-18.33a29.44 29.44 0 0 1 12.21-12.3c5.33-2.9 11.7-4.36 19.13-4.36 4.6 0 8.82.64 12.66 1.92a33.55 33.55 0 0 1 9.76 4.94 24.13 24.13 0 0 1 6.12 6.45c1.41 2.28 2.12 4.4 2.12 6.39a6.6 6.6 0 0 1-2.38 5.12 8.4 8.4 0 0 1-5.76 2.1c-1.47 0-2.7-.36-3.67-1.08a17.37 17.37 0 0 1-3.3-3.5c-2.16-3.12-4.43-5.46-6.8-7.03-2.36-1.56-5.37-2.34-9.01-2.34-5.25 0-9.49 1.94-12.7 5.83-3.2 3.89-4.81 9.2-4.81 15.96 0 3.17.41 6.08 1.23 8.73a19.48 19.48 0 0 0 3.59 6.8 15.24 15.24 0 0 0 5.66 4.25 18 18 0 0 0 7.29 1.45c3.56 0 6.6-.78 9.14-2.34 2.54-1.57 4.79-3.95 6.74-7.17a16.58 16.58 0 0 1 3.52-4.44 6.9 6.9 0 0 1 4.62-1.6c2.17 0 3.97.78 5.4 2.34a7.32 7.32 0 0 1 2.15 5M242.1 135.02l-15.68-24.41-9.64 8.63v13.38c0 3.25-.9 5.74-2.7 7.49a8.66 8.66 0 0 1-6.2 2.62c-2.73 0-4.87-.87-6.43-2.59-1.56-1.73-2.34-4.27-2.34-7.65V60.7c0-3.73.76-6.58 2.27-8.53 1.52-1.95 3.69-2.93 6.5-2.93 2.73 0 4.9.88 6.5 2.65 1.6 1.76 2.4 4.37 2.4 7.83v40.8l19.98-19.86a48.2 48.2 0 0 1 5.67-5.05 8.13 8.13 0 0 1 4.75-1.36c2.21 0 4.06.67 5.53 2a6.5 6.5 0 0 1 2.22 5.03c0 2.47-2.41 5.76-7.23 9.87l-9.44 8.21 18.23 27.16a75.66 75.66 0 0 1 2.9 4.6c.58 1.04.88 2.04.88 2.98 0 2.68-.78 4.79-2.31 6.33-1.55 1.54-3.58 2.31-6.1 2.31-2.16 0-3.83-.55-5-1.66-1.18-1.11-2.76-3.13-4.76-6.05"/><path d="M366.65 90.15h7.28c1.83 0 3.03.25 3.6.74s.86 1.48.86 2.96v3.96c0 1.17-.23 1.95-.69 2.35-.45.4-1.54.61-3.25.61h-7.8v12.63c0 3 1.63 5.18 4.88 6.52 1.77.72 2.66 1.97 2.66 3.76v3.03c0 .98-.23 1.61-.69 1.88-.45.27-1.5.4-3.17.4h-36.1c-1.71 0-2.77-.23-3.17-.7-.4-.48-.6-2.05-.6-4.74 0-1.61.86-2.8 2.58-3.56 2.17-.99 3.25-2.35 3.25-4.1v-15.12h-33.95c-1.83 0-2.91-.17-3.26-.5-.34-.34-.51-1.11-.51-2.33l-.02-7.8c0-.8.08-1.44.25-1.92.18-.47 1.4-2.13 3.7-5l48.16-60.42a6.36 6.36 0 0 1 3.14-2.17c1.23-.38 3.48-.57 6.74-.57 3.15 0 4.96.15 5.42.44.46.29.69 1.09.69 2.38v67.27Zm-30.36-32.93-26.32 32.93h26.32V57.22Z" fill="#fff"/></g></svg>