<svg id="b" xmlns="http://www.w3.org/2000/svg" viewBox="0 0 248.26 91.97"><defs><style>.e{fill:#ed1c24}</style></defs><g id="c"><path class="e" d="M202.28 89.8c-24.17 0-43.83-19.65-43.83-43.81s19.66-43.82 43.83-43.82c24.16 0 43.81 19.65 43.81 43.82S226.44 89.8 202.28 89.8"/><path class="e" d="M202.28 4.33a41.7 41.7 0 0 1 41.65 41.65 41.7 41.7 0 0 1-41.65 41.66 41.7 41.7 0 0 1-41.66-41.66 41.7 41.7 0 0 1 41.66-41.65m0-4.33a45.98 45.98 0 1 0 0 91.97 45.98 45.98 0 0 0 0-91.97M21.86 62.57H11.44v15.09c0 2.16-.54 3.8-1.61 4.9a5.45 5.45 0 0 1-4.09 1.68c-1.72 0-3.1-.55-4.16-1.66C.53 81.48 0 79.86 0 77.72V36.56c0-2.38.58-4.08 1.73-5.1 1.15-1.02 2.98-1.53 5.49-1.53h14.62c4.32 0 7.64.32 9.97.95 2.31.6 4.3 1.62 5.98 3.03a13.69 13.69 0 0 1 3.83 5.18 17.4 17.4 0 0 1 1.31 6.89c0 5.45-1.77 9.57-5.3 12.38-3.53 2.8-8.79 4.21-15.77 4.21M19.1 38.06h-7.66v16.32h7.66a24 24 0 0 0 6.72-.8 7.87 7.87 0 0 0 4.11-2.63 7.55 7.55 0 0 0 1.42-4.77c0-2.35-.73-4.27-2.18-5.75-1.63-1.58-4.99-2.37-10.07-2.37M57.02 39.2a5.7 5.7 0 0 1-3.75-1.27 4.4 4.4 0 0 1-1.55-3.61c0-1.41.53-2.58 1.6-3.49a5.52 5.52 0 0 1 3.7-1.37c1.36 0 2.56.41 3.61 1.24 1.05.83 1.58 2.03 1.58 3.62 0 1.53-.51 2.73-1.54 3.6a5.48 5.48 0 0 1-3.65 1.29m5.2 10.25v28.73c0 2-.51 3.5-1.5 4.52-1 1.02-2.28 1.53-3.82 1.53s-2.78-.52-3.74-1.57c-.96-1.04-1.44-2.53-1.44-4.48V49.75c0-1.96.48-3.45 1.44-4.44.96-1 2.2-1.5 3.74-1.5s2.81.5 3.81 1.5 1.5 2.38 1.5 4.15M110.61 71.94c0 1.24-.39 2.57-1.17 3.97a13.84 13.84 0 0 1-3.57 4.02 18.83 18.83 0 0 1-6.05 3.08 27.04 27.04 0 0 1-8.22 1.16c-6.48 0-11.54-1.79-15.16-5.37C72.8 75.22 71 70.42 71 64.4c0-4.08.83-7.69 2.49-10.82a17.38 17.38 0 0 1 7.2-7.27c3.15-1.7 6.91-2.57 11.3-2.57 2.7 0 5.2.38 7.46 1.14a19.8 19.8 0 0 1 5.77 2.91 14.24 14.24 0 0 1 3.6 3.81 7.26 7.26 0 0 1 1.26 3.77c0 1.19-.47 2.2-1.4 3.02a4.96 4.96 0 0 1-3.4 1.24c-.88 0-1.6-.21-2.17-.64-.58-.42-1.23-1.1-1.95-2.06a15.38 15.38 0 0 0-4.01-4.15 9.47 9.47 0 0 0-5.32-1.38c-3.1 0-5.6 1.15-7.5 3.44-1.89 2.3-2.84 5.44-2.84 9.42 0 1.87.25 3.59.73 5.15.49 1.57 1.2 2.9 2.12 4.01a9 9 0 0 0 3.34 2.51c1.3.57 2.74.86 4.3.86 2.1 0 3.9-.46 5.4-1.38 1.5-.93 2.82-2.34 3.98-4.23.64-1.12 1.33-2 2.07-2.62a4.07 4.07 0 0 1 2.73-.95c1.28 0 2.34.46 3.19 1.38.84.93 1.26 1.91 1.26 2.95M142.89 79.7l-9.26-14.42-5.69 5.1v7.89c0 1.92-.53 3.39-1.59 4.42a5.1 5.1 0 0 1-3.66 1.55 4.87 4.87 0 0 1-3.8-1.53c-.92-1.02-1.37-2.52-1.37-4.51V35.82c0-2.2.44-3.88 1.34-5.04a4.57 4.57 0 0 1 3.83-1.73c1.61 0 2.89.53 3.83 1.57.95 1.04 1.42 2.58 1.42 4.62v24.08l11.8-11.72a28.45 28.45 0 0 1 3.34-2.98 4.8 4.8 0 0 1 2.8-.8c1.31 0 2.4.39 3.27 1.18.87.79 1.3 1.78 1.3 2.97 0 1.45-1.41 3.4-4.26 5.82l-5.57 4.85 10.76 16.02c.8 1.2 1.36 2.1 1.7 2.71.36.62.53 1.21.53 1.77 0 1.58-.46 2.82-1.37 3.73a4.86 4.86 0 0 1-3.59 1.37c-1.28 0-2.26-.33-2.96-.98-.69-.66-1.62-1.85-2.8-3.57"/><path d="M209.84 43.9c5.22 1.4 9.15 3.67 11.8 6.81a16.91 16.91 0 0 1 3.95 11.24c0 5.72-2.05 10.34-6.15 13.87-4.1 3.52-9.83 5.28-17.2 5.28-6.55 0-11.62-1.53-15.2-4.6a14.75 14.75 0 0 1-5.4-11.74c0-2.9.74-5.16 2.2-6.8a7.22 7.22 0 0 1 5.64-2.45c2.07 0 3.76.65 5.08 1.96a6.57 6.57 0 0 1 1.98 4.86c0 2.64-1.35 4.74-4.06 6.3a9 9 0 0 0-2.08 1.46c-.24.3-.36.69-.36 1.16 0 1.15.75 2.2 2.24 3.15 2.19 1.4 4.66 2.1 7.42 2.1 3.55 0 6.35-1.2 8.4-3.62 2.05-2.42 3.07-6.17 3.07-11.25 0-5.03-.94-8.75-2.83-11.16a8.75 8.75 0 0 0-7.2-3.63c-.7 0-1.61.11-2.75.33-1.1.19-1.95.28-2.52.28-.88 0-1.58-.24-2.09-.74-.5-.49-.76-1.18-.76-2.06 0-.99.27-1.72.81-2.22.54-.49 1.36-.73 2.47-.73.44 0 1.08.04 1.9.14 1.02.13 1.84.2 2.47.2 2.85 0 5.09-.99 6.7-2.96 1.58-1.94 2.38-5.18 2.38-9.72 0-4.55-.9-7.84-2.67-9.87-1.78-2.03-4.28-3.05-7.52-3.05-2.22 0-3.91.37-5.07 1.1-1.16.73-1.74 1.5-1.74 2.33 0 .41.08.74.24.98.17.24.64.66 1.41 1.26 1.56 1.2 2.58 2.25 3.08 3.12.5.87.76 1.9.76 3.07 0 1.91-.65 3.49-1.95 4.74s-2.93 1.89-4.88 1.89a6.69 6.69 0 0 1-5.17-2.32c-1.4-1.54-2.09-3.53-2.09-5.98 0-3.5 1.29-6.65 3.86-9.45 3.31-3.65 8.15-5.48 14.5-5.48 4.26 0 7.94.74 11.04 2.22a16.52 16.52 0 0 1 7.06 6c1.6 2.54 2.41 5.3 2.41 8.33 0 3.28-1.01 6.22-3.03 8.83-2.02 2.6-5.4 4.88-10.15 6.82" fill="#fff"/></g></svg>