<svg viewBox="5.289 5.28 200.99 85.06" xmlns="http://www.w3.org/2000/svg"><path d="M174.32 47.931a27.61 27.61 0 00-17.725 6.104 21.8 21.8 0 00-7.887 17.237c-.04.74-.04 1.482 0 2.222a.413.413 0 01-.317.44l-2.588.536c-.803.17-1.621.252-2.441.244a2.441 2.441 0 01-1.807-.586 1.891 1.891 0 01-.316-.775 1.92 1.92 0 01.047-.836l1.148-8.13a.39.39 0 01.39-.342h4.346l2.369-15.21h-4.249a.416.416 0 01-.293-.123.416.416 0 010-.317l1.123-8.082h-19.996l-1.123 8.18a.397.397 0 01-.148.262.392.392 0 01-.291.08h-8.667a.438.438 0 01-.293-.123.537.537 0 010-.317l1.123-8.082H96.729l-1.123 8.18a.391.391 0 01-.342.341h-3.662l-1.734 12.208a.39.39 0 11-.781 0C86.792 52.985 79.32 47.98 69.75 47.98a27.565 27.565 0 00-17.7 6.104 21.755 21.755 0 00-8.058 17.188 5.093 5.093 0 000 .61.44.44 0 01-.122.293.415.415 0 01-.293 0H29.123a.341.341 0 01-.293-.146.39.39 0 010-.318l4.664-33.277h-20.29L6.175 88.68h37.159l1.416-9.913a.415.415 0 01.342-.341.439.439 0 01.44.244c2.856 6.836 9.765 10.913 18.774 10.913 12.33 0 25.465-8.154 25.465-23.243.039-.61.039-1.221 0-1.831a.366.366 0 01.123-.317.317.317 0 01.292-.123h2.637a.39.39 0 01.318.147.489.489 0 010 .317L91.43 76.4a11.597 11.597 0 002.027 9.546c2.149 2.442 5.616 3.663 10.596 3.663 4.177.026 8.32-.744 12.208-2.271l.805-.342 1.807-12.94-2.441.44c-.803.17-1.621.253-2.442.244a2.445 2.445 0 01-1.807-.586 1.903 1.903 0 01-.268-1.612l1.147-8.13a.392.392 0 01.391-.342h8.692a.442.442 0 01.317.147.363.363 0 010 .317L120.778 76.4a11.584 11.584 0 002.026 9.546c2.124 2.442 5.591 3.663 10.596 3.663 4.177.026 8.32-.744 12.208-2.271l.805-.342 1.709-11.304c0-.488.171-.537.513-.586.342-.049.415 0 .513.464 1.904 8.618 9.4 13.94 19.752 13.94 12.354 0 25.465-8.154 25.465-23.242 0-10.767-8.253-18.336-20.045-18.336zM65.966 73.689c-1.905 0-2.564-2.1-2.564-3.882 0-3.174 2.026-5.957 4.37-5.957 1.88 0 2.442 2.075 2.442 3.882.17 3.076-1.807 5.957-4.248 5.957zm104.594 0c-1.88 0-2.564-2.1-2.564-3.882 0-3.174 2.051-5.957 4.371-5.957 1.88 0 2.441 2.075 2.441 3.882.195 3.076-1.855 5.957-4.175 5.957h-.073z" fill="#C2D500"/><path d="M206.035 5.302a.44.44 0 00-.464.122l-2.759 3.345a8.807 8.807 0 01-6.372 3.247h-4.712c-3.369 0-6.665 0-9.766-.17h-.269c-3.174 0-6.445-.147-9.766-.147-2.685 0-5.103 0-7.324.146a8.325 8.325 0 00-6.495 3.297 9.411 9.411 0 00-1.88 4.687c-.83 6.3-1.465 12.745-2.099 18.995v.244c0 .977-.269 2.442-.415 4.004l-.147 1.319c-.146 1.245-.268 2.441-.366 3.223l-.464 3.662a.413.413 0 00.22.415h.171a.314.314 0 00.293-.122l2.612-2.637s6.812-6.519 24.977-6.177h13.452a8.715 8.715 0 006.788-3.223 9.086 9.086 0 001.88-4.688c.83-6.372 1.489-12.842 2.124-19.117l.586-5.835.439-4.321a.386.386 0 00-.244-.269z" fill="#E65300"/><path d="M191.728 14.214c-3.394 0-6.714 0-9.937-.171-3.223-.171-6.495-.171-9.766-.171-2.661 0-5.079 0-7.325.17a6.252 6.252 0 00-4.883 2.442 7.466 7.466 0 00-1.44 3.663c-.83 6.323-1.49 12.818-2.1 19.068 0 1.172-.317 2.954-.513 4.712 0 1.025-.219 2.026-.317 2.856 2.295-1.806 9.766-6.42 25.733-6.128H194.56a6.74 6.74 0 005.151-2.441 7.033 7.033 0 001.441-3.662c.83-6.373 1.489-12.818 2.1-19.069.171-1.538.317-3.076.488-4.614a10.889 10.889 0 01-7.105 3.1c-1.636.22-3.198.245-4.907.245z" fill="#E65300"/><path d="M203.813 9.6a10.126 10.126 0 01-7.324 3.735h-4.761c-3.37 0-6.714 0-9.913-.171-3.198-.171-6.519-.171-9.766-.171-2.685 0-5.103 0-7.324.17a7.055 7.055 0 00-5.518 2.784A7.86 7.86 0 00157.62 20c-.855 6.324-1.489 12.818-2.124 19.117 0 1.123-.318 2.93-.513 4.664-.195 1.733-.317 2.93-.415 3.906v1.147l.806-.83s6.934-6.91 25.929-6.592H194.706a7.47 7.47 0 005.543-2.539 7.865 7.865 0 001.611-4.053c.83-6.397 1.489-12.842 2.1-19.068.195-1.953.39-3.907.61-5.835V8.574l-.757 1.025zm-9.375 31.202H181.058c-15.967-.293-23.438 4.321-25.733 6.128 0-.83.195-1.831.317-2.857.196-1.757.391-3.54.513-4.712.61-6.25 1.27-12.744 2.1-19.068a7.467 7.467 0 011.44-3.662 6.247 6.247 0 014.883-2.442c2.295 0 4.712-.17 7.325-.17 3.32 0 6.616 0 9.766.17 3.149.171 6.543.171 9.937.171h4.883a10.891 10.891 0 007.105-3.1c-.171 1.538-.318 3.076-.489 4.614-.61 6.25-1.269 12.696-2.1 19.068a7.024 7.024 0 01-1.44 3.663 6.733 6.733 0 01-5.127 2.197z" fill="#fff"/><path d="M172.44 63.85c-2.442 0-4.37 2.783-4.37 5.957 0 1.782.683 3.882 2.563 3.882 2.32 0 4.371-2.783 4.371-5.957 0-1.807-.684-3.882-2.564-3.882zm-1.807 9.033c-1.709 0-1.758-2.759-1.758-3.076 0-2.759 1.661-5.152 3.565-5.152s1.758 2.76 1.758 3.077c0 2.734-1.66 5.151-3.565 5.151zM67.846 63.85c-2.442 0-4.37 2.783-4.37 5.957 0 1.782.658 3.882 2.563 3.882 2.32 0 4.346-2.783 4.346-5.957 0-1.807-.66-3.882-2.54-3.882zm-1.88 9.033c-1.71 0-1.758-2.759-1.758-3.076 0-2.759 1.66-5.152 3.564-5.152 1.905 0 1.758 2.76 1.758 3.077.073 2.734-1.611 5.151-3.564 5.151zM26.51 74.421l4.713-33.741h-16.31L8.469 86.702h33.156l1.758-12.28H26.51z" fill="#3DAE2B"/><path d="M32.248 39.8H14.157L7.369 87.607h35.036l2.002-14.088h-16.87l4.711-33.717zM8.468 86.703l6.446-45.998h16.309L26.51 74.421h16.87L41.625 86.63l-33.156.073z" fill="#fff"/><path d="M69.701 49.933c-11.744 0-23.634 7.325-23.634 21.339 0 9.766 7.325 16.334 18.238 16.334 11.378 0 23.488-7.447 23.488-21.266 0-9.815-7.178-16.407-18.092-16.407zm-3.735 25.758c-2.735 0-4.542-2.442-4.542-5.86 0-4.297 2.906-7.934 6.348-7.934 2.71 0 4.541 2.441 4.541 5.86.074 4.272-2.832 7.934-6.347 7.934z" fill="#3DAE2B"/><path d="M83.056 53.57a20.386 20.386 0 00-13.428-4.54 26.442 26.442 0 00-17.09 5.835 20.706 20.706 0 00-7.52 16.407c0 10.303 7.666 17.237 19.117 17.237a26.27 26.27 0 0016.87-5.86 20.655 20.655 0 007.496-16.309 16.262 16.262 0 00-5.445-12.77zm-18.75 34.036c-10.914 0-18.239-6.568-18.239-16.334 0-14.014 11.89-21.339 23.634-21.339 10.816 0 18.092 6.592 18.092 16.407 0 13.819-12.061 21.266-23.488 21.266z" fill="#fff"/><path d="M67.846 61.872c-3.443 0-6.348 3.638-6.348 7.935 0 3.516 1.806 5.86 4.541 5.86 3.442 0 6.348-3.638 6.348-7.935 0-3.516-1.831-5.86-4.541-5.86zm-1.88 12.891c-2.442 0-3.663-2.441-3.663-4.883 0-3.808 2.442-7.056 5.47-7.056 2.44 0 3.637 2.442 3.637 4.883.074 3.833-2.417 7.056-5.444 7.056z" fill="#fff"/><path d="M114.161 76.716a4.224 4.224 0 01-3.296-1.294 3.784 3.784 0 01-.732-3.173l1.44-10.182h5.274l1.587-11.255h-5.249l1.171-8.52H98.462l-1.172 8.52h-4.028l-1.587 11.255h4.004l-2.1 14.65a9.766 9.766 0 001.685 7.91c1.709 1.978 4.761 2.979 9.082 2.979a30.98 30.98 0 0011.109-2.027l1.27-9.107c-.844.172-1.703.254-2.564.244z" fill="#3DAE2B"/><path d="M116.724 75.544a12.64 12.64 0 01-2.441.27 3.346 3.346 0 01-2.612-.977 2.952 2.952 0 01-.538-2.442l1.221-9.424h5.298l1.831-13.038h-5.273l1.172-8.545H97.705l-1.172 8.545h-4.028l-1.88 13.038h4.028l-1.83 13.575a10.5 10.5 0 001.781 8.667c1.88 2.173 5.176 3.296 9.766 3.296a31.935 31.935 0 0011.695-2.197h.244l1.49-10.865-.611.122-.464-.025zm-12.476 12.062c-4.321 0-7.324-1.001-9.082-2.98a9.765 9.765 0 01-1.587-7.958l2.1-14.65h-4.004l1.587-11.255h4.028l1.172-8.52h15.894l-1.172 8.52h5.25l-1.587 11.256h-5.274l-1.441 10.18a3.78 3.78 0 00.733 3.175 4.224 4.224 0 003.296 1.294c.82 0 1.638-.081 2.441-.245l-1.269 9.107a30.987 30.987 0 01-11.085 2.076z" fill="#fff"/><path d="M143.557 76.716a4.228 4.228 0 01-3.296-1.294 3.778 3.778 0 01-.757-3.174l1.44-10.18h4.688l1.611-11.256h-4.687l1.196-8.52h-15.894l-1.197 8.52h-4.883l-1.587 11.255h4.883l-2.099 14.65a9.75 9.75 0 001.587 7.91c1.709 1.978 4.883 2.979 9.107 2.979a30.98 30.98 0 0011.108-2.027l1.27-9.107c-.82.165-1.654.247-2.49.244z" fill="#3DAE2B"/><path d="M141.652 62.97h4.883l1.856-13.037h-4.81l1.197-8.545h-17.775l-1.196 8.545h-4.883l-1.831 13.038h4.883l-1.856 13.575a10.507 10.507 0 001.783 8.667c1.88 2.173 5.176 3.296 9.766 3.296a31.943 31.943 0 0011.695-2.197h.219l1.514-10.865-.61.122h-.367c-.803.17-1.62.26-2.441.269a3.39 3.39 0 01-2.637-.977 2.966 2.966 0 01-.513-2.442l1.123-9.448zm-8.008 24.636c-4.321 0-7.324-1.001-9.107-2.98a9.763 9.763 0 01-1.562-7.958l2.1-14.65h-4.883l1.587-11.255h4.883l1.196-8.52h15.894l-1.196 8.52h4.688l-1.612 11.256h-4.688l-1.44 10.18a3.778 3.778 0 00.757 3.175 4.224 4.224 0 003.296 1.294c.82-.001 1.638-.083 2.441-.245l-1.269 9.107a30.987 30.987 0 01-11.085 2.076z" fill="#fff"/><path d="M174.32 49.933c-11.744 0-23.634 7.325-23.634 21.339 0 9.766 7.325 16.334 18.214 16.334 11.377 0 23.487-7.447 23.487-21.266 0-9.815-7.251-16.407-18.067-16.407zm-3.687 25.758c-2.71 0-4.565-2.442-4.565-5.884 0-4.297 2.905-7.935 6.347-7.935 2.711 0 4.542 2.442 4.542 5.86.024 4.297-2.881 7.959-6.324 7.959z" fill="#3DAE2B"/><path d="M187.748 53.57a20.436 20.436 0 00-13.428-4.54 26.517 26.517 0 00-17.091 5.835 20.783 20.783 0 00-7.52 16.407c0 10.303 7.691 17.237 19.117 17.237a26.346 26.346 0 0016.896-5.86 20.654 20.654 0 007.495-16.309 16.337 16.337 0 00-5.469-12.77zM168.9 87.607c-10.89 0-18.214-6.568-18.214-16.334 0-14.014 11.89-21.339 23.634-21.339 10.816 0 18.067 6.592 18.067 16.407 0 13.819-12.11 21.266-23.487 21.266z" fill="#fff"/><path d="M172.44 61.872c-3.443 0-6.348 3.638-6.348 7.935 0 3.516 1.831 5.86 4.541 5.86 3.443 0 6.348-3.638 6.348-7.935 0-3.516-1.831-5.86-4.541-5.86zm-1.807 12.891c-2.441 0-3.638-2.441-3.638-4.883 0-3.808 2.442-7.056 5.445-7.056 2.441 0 3.638 2.442 3.638 4.883 0 3.833-2.491 7.056-5.445 7.056zM162.356 22.442v-.293a.488.488 0 01-.268-.562.638.638 0 01.39-.586l.147-.293.317-3.613a.588.588 0 01.537-.513h4.884l-.147 1.343h-3.736l-.317 3.003h3.003v1.343h-3.149l-.147 1.465a.21.21 0 00-.002.09.204.204 0 00.109.136.197.197 0 00.088.018h3.492v1.343h-3.931a1.342 1.342 0 01-1.343-1.514l.073-1.367zM173.221 21.001l2.198 4.322h-2.027l-1.294-2.76-1.904 2.76h-1.929L171.39 21l-2.197-4.419h1.904l1.367 2.954 1.978-2.856h1.904L173.221 21zM178.861 18.169a.195.195 0 00-.195-.244h-1.953v-1.343h6.03l-.146 1.343h-1.88a.316.316 0 00-.269.244l-.757 7.154h-1.636l.806-7.154zM183.598 22.442v-.293a.483.483 0 01-.342-.186.494.494 0 01-.098-.376.631.631 0 01.391-.586l.146-.293.489-3.613a.582.582 0 01.537-.513h2.1c2.441 0 3.271 1.074 3.076 2.808a2.984 2.984 0 01-1.587 2.441c.099.722.313 1.422.635 2.076a.194.194 0 00.171 0h.366a.54.54 0 01.528.399c.02.077.023.157.009.235 0 .66-.928.782-1.367.782-1.343 0-1.661-1.587-1.929-3.174h-1.465l-.317 3.052h-1.636l.293-2.76zm2.759-1.514c1.294 0 1.831-.635 1.928-1.538.098-.904-.317-1.465-1.611-1.465h-.952l-.318 3.003h.953zM191.557 22.442v-.293a.534.534 0 01-.269-.562.66.66 0 01.391-.586l.146-.293v-1.074a3.322 3.322 0 013.37-3.174 2.612 2.612 0 012.759 3.076l-.44 4.2c0 .195 0 .268.122.268h.44a.512.512 0 01.537.66c0 .683-.952.78-1.441.78-.488 0-1.416-.512-1.294-1.586l.171-1.587h-2.832l-.293 3.052h-1.636l.269-2.881zm4.883-2.808c0-1.05-.342-1.782-1.221-1.782s-1.489.732-1.611 1.782l-.147 1.294h2.857l.122-1.294zM161.819 35.015a2.195 2.195 0 002.1 1.392c1.05 0 1.758-.415 1.831-1.245.244-2.197-4.883-1.074-4.468-5.03a3.373 3.373 0 013.565-2.832c1.782 0 3.174.928 3.027 2.442a1.413 1.413 0 01-1.318 1.367.757.757 0 01-.83-.83c0-.415.244-.513.268-.708.025-.195-.586-.684-1.367-.684a1.415 1.415 0 00-1.538 1.294c-.22 2.027 4.883 1.319 4.541 4.883a3.562 3.562 0 01-3.857 3.125 3.417 3.417 0 01-3.37-1.806l1.416-1.368zM171.463 37.994h-1.977l.927-8.692c0-.22 0-.293-.146-.293h-.537a.658.658 0 01-.659-.78c0-.782 1.025-.953 1.709-.953a1.485 1.485 0 011.307.51 1.484 1.484 0 01.304 1.37l-.366 3.491h3.369l.439-5.2h1.978l-1.123 10.547h-1.978l.391-3.687h-3.247l-.391 3.687zM184.721 27.3a4.47 4.47 0 014.663 5.42 5.711 5.711 0 01-5.811 5.42 4.472 4.472 0 01-3.704-1.533 4.451 4.451 0 01-.952-1.827 4.453 4.453 0 01-.031-2.06 5.737 5.737 0 015.835-5.42zm-.977 9.18a3.786 3.786 0 003.662-3.76c.245-2.221-.879-3.76-2.856-3.76a3.809 3.809 0 00-3.687 3.76c-.146 2.222.879 3.76 2.881 3.76zM193.291 29.302a.27.27 0 00-.269-.268h-2.442l.171-1.636h7.325l-.171 1.636h-2.442a.299.299 0 00-.097.268l-.928 8.643h-1.978l.831-8.643z" fill="#fff"/><path d="M174.32 47.15a28.394 28.394 0 00-18.238 6.274 22.556 22.556 0 00-8.179 17.848v1.953l-1.856.39h-.366c-.722.162-1.458.244-2.198.245a1.782 1.782 0 01-1.196-.318 1.414 1.414 0 010-.976l1.099-7.789h4.346a.39.39 0 00.39-.341l2.295-16.017a.416.416 0 000-.317.439.439 0 00-.293-.122h-4.37l1.123-8.082a.435.435 0 000-.317.393.393 0 00-.317-.146h-20.777a.392.392 0 00-.391.341l-1.148 8.204h-7.886l1.123-8.082a.364.364 0 000-.317.337.337 0 00-.293-.146H96.387a.39.39 0 00-.39.341l-1.124 8.204h-3.662a.39.39 0 00-.39.342l-1.539 10.767c-2.881-7.471-10.23-12.012-19.532-12.012a28.272 28.272 0 00-18.214 6.274A22.56 22.56 0 0043.357 71.2v.317H29.758l4.663-33.278a.538.538 0 000-.317.464.464 0 00-.317-.122H12.863a.44.44 0 00-.415.342l-7.13 50.88a.44.44 0 000 .318.39.39 0 00.293.147H43.7a.39.39 0 00.39-.342l1.27-8.912c3.272 6.373 10.255 10.108 18.946 10.108 12.72 0 26.271-8.423 26.271-24.073.025-.488.025-.977 0-1.465h1.953l-1.636 11.426a12.352 12.352 0 002.198 10.181c2.173 2.686 5.908 3.931 11.157 3.931a34.035 34.035 0 0012.428-2.442l1.025-.414a.365.365 0 00.22-.318l1.904-13.721a.407.407 0 00-.118-.346.415.415 0 00-.346-.118l-2.612.488h-.391a9.957 9.957 0 01-2.197.244 1.829 1.829 0 01-1.196-.317 1.414 1.414 0 010-.977l1.123-7.788h7.861l-1.635 11.426a12.362 12.362 0 002.221 10.181c2.295 2.637 5.958 3.931 11.207 3.931a34.03 34.03 0 0012.427-2.441l1.001-.415a.42.42 0 00.244-.318l1.416-10.132c2.344 8.594 9.913 13.477 20.07 13.477 12.744 0 26.27-8.423 26.27-24.049 0-11.255-8.569-19.141-20.85-19.141zm-5.42 42.433c-10.352 0-17.848-5.322-19.752-13.94 0-.416-.171-.538-.513-.465-.342.073-.439 0-.513.586l-1.587 11.207-.805.342a32.819 32.819 0 01-12.208 2.27c-4.883 0-8.472-1.196-10.596-3.662a11.6 11.6 0 01-2.026-9.546l1.684-11.866a.364.364 0 000-.317.442.442 0 00-.317-.147h-8.643a.389.389 0 00-.391.342l-1.147 8.13a1.905 1.905 0 00.268 1.611 2.448 2.448 0 001.807.586c.82.01 1.639-.073 2.441-.244l2.442-.44-1.807 12.94-.805.343a32.819 32.819 0 01-12.208 2.27c-4.883 0-8.448-1.196-10.596-3.662a11.598 11.598 0 01-2.027-9.546l1.71-11.866a.489.489 0 000-.317.392.392 0 00-.318-.147h-2.88a.316.316 0 00-.294.122.366.366 0 00-.122.317c.038.61.038 1.222 0 1.832 0 15.088-13.135 23.243-25.465 23.243-8.911 0-15.919-4.078-18.775-10.914a.439.439 0 00-.44-.244.415.415 0 00-.341.342l-1.416 9.912H6.172l7.031-49.953h20.314L28.855 71.98a.39.39 0 000 .317.342.342 0 00.293.147H43.6a.415.415 0 00.293 0 .44.44 0 00.122-.293 5.095 5.095 0 010-.61 21.755 21.755 0 017.91-17.238A27.564 27.564 0 0169.629 48.2c9.644 0 17.09 5.005 19.337 13.062a.39.39 0 10.78 0l1.734-12.208h3.785a.39.39 0 00.39-.342l1.123-8.179h19.899l-1.123 8.082a.537.537 0 000 .317c.079.076.183.12.293.122h8.716a.39.39 0 00.39-.342l1.124-8.179h19.898l-1.123 8.082a.416.416 0 000 .317.414.414 0 00.293.122h4.248l-2.173 15.21h-4.199a.392.392 0 00-.391.343l-1.148 8.13a1.92 1.92 0 00-.047.836c.047.278.155.543.316.775a2.445 2.445 0 001.807.586c.82.008 1.639-.074 2.441-.244l2.588-.537a.418.418 0 00.318-.44 20.082 20.082 0 010-2.221 21.805 21.805 0 017.886-17.238 27.614 27.614 0 0117.725-6.103c11.793 0 20.045 7.568 20.045 18.409-.195 14.868-13.306 23.023-25.66 23.023z" fill="#3DAE2B"/></svg>