<svg viewBox="5.232 6.029 209.597 75.457" xmlns="http://www.w3.org/2000/svg"><path d="M36.66 42.75H23.659L13.41 80.914h29.206l3.3-12.157H29.691L36.66 42.75z" fill="#0093D0"/><path d="M67.871 42.207c-13.823 0-22.379 11.448-22.379 22.056 0 10.14 7.277 17.223 17.69 17.223 13.82 0 22.376-11.449 22.376-22.056.004-10.155-7.273-17.223-17.687-17.223zm-3.87 27.018c-3.557 0-5.44-1.883-5.44-5.444 0-4.416 3.475-9.342 8.462-9.342 3.558 0 5.44 1.883 5.44 5.44.015 4.42-3.46 9.346-8.462 9.346zM169.158 42.207c-13.824 0-22.38 11.448-22.38 22.056 0 10.14 7.273 17.223 17.69 17.223 13.82 0 22.376-11.449 22.376-22.056 0-10.155-7.273-17.223-17.686-17.223zm-3.856 27.033c-3.561 0-5.44-1.883-5.44-5.444 0-4.416 3.474-9.343 8.462-9.343 3.557 0 5.44 1.883 5.44 5.44 0 4.406-3.474 9.332-8.462 9.332v.015z" fill="#0093D0"/><path d="M120.536 42.75H88.659L85.39 55h9.882l-6.968 25.915h13.005l6.967-25.916h17.202l-6.961 25.916h13.001l6.968-25.916h9.892l3.277-12.25h-31.118z" fill="#0093D0"/><path d="M120.317 43.619H89.324l-2.803 10.51h9.882l-6.964 25.916h11.204l6.967-25.915H126.612l-6.96 25.915h11.2l6.964-25.915h9.893l2.813-10.511h-30.205zM14.543 80.045l9.78-36.426h11.205L28.56 69.628h16.217l-2.824 10.417h-27.41z" fill="#fff"/><path d="M16.526 78.521l8.966-33.382h8.052l-6.967 26.012H42.79l-2.002 7.37H16.526z" fill="#00A4E4"/><path d="M63.182 80.602c-9.903 0-16.82-6.723-16.82-16.353 0-10.188 8.225-21.201 21.51-21.201 9.903 0 16.82 6.723 16.82 16.353 0 10.202-8.225 21.2-21.51 21.2zm3.856-27.033c-5.498 0-9.343 5.39-9.343 10.212 0 4.014 2.3 6.314 6.31 6.314 5.498 0 9.343-5.39 9.343-10.216-.004-4.017-2.3-6.31-6.31-6.31z" fill="#fff"/><path d="M63.182 79.082c-9.008 0-15.297-6.109-15.297-14.833 0-9.458 7.64-19.667 19.987-19.667 9.005 0 15.297 6.109 15.297 14.834 0 9.457-7.644 19.666-19.987 19.666zm3.856-27.033c-6.396 0-10.852 6.184-10.852 11.732 0 4.834 3 7.837 7.83 7.837 6.396 0 10.852-6.187 10.852-11.739 0-4.83-3-7.83-7.83-7.83z" fill="#00A4E4"/><path d="M164.468 80.602c-9.903 0-16.82-6.723-16.82-16.353 0-10.188 8.221-21.201 21.51-21.201 9.899 0 16.817 6.723 16.817 16.353 0 10.202-8.222 21.2-21.507 21.2zm3.856-27.033c-5.498 0-9.343 5.39-9.343 10.212 0 4.014 2.3 6.314 6.31 6.314 5.498 0 9.343-5.39 9.343-10.216 0-4.017-2.3-6.31-6.31-6.31z" fill="#fff"/><path d="M164.468 79.082c-9.008 0-15.3-6.109-15.3-14.833 0-9.458 7.643-19.667 19.99-19.667 9.005 0 15.297 6.109 15.297 14.834 0 9.457-7.644 19.666-19.987 19.666zm3.856-27.033c-6.396 0-10.852 6.184-10.852 11.732 0 4.834 3 7.837 7.83 7.837 6.393 0 10.852-6.187 10.852-11.739 0-4.83-3.001-7.83-7.83-7.83zM91.422 78.521l6.968-25.915h-9.885l1.99-7.467h27.838l-1.998 7.467h-9.892l-6.968 25.915h-8.053zM121.596 78.521l6.96-25.915h-9.892l2.001-7.467h27.834l-1.994 7.467h-9.892l-6.968 25.915h-8.049z" fill="#00A4E4"/><path d="M201.394 13.158a579.727 579.727 0 01-4.514 7.755l-.564-7.453c-4.072.223-8.155.431-12.249.625.068.489.14.981.208 1.473-2.03-1.26-4.937-1.796-8.488-1.649-3.189.13-6.34.748-9.342 1.833-.719.266-1.432.528-2.138.787.505 2.01 1.009 4.025 1.512 6.047a12.62 12.62 0 00-1.397.636c.108-.661.161-1.33.158-2.001 0-3.532-1.305-6.27-3.989-8.304-3.033-2.29-7.546-3.263-13.385-3.044-3.55.13-7.101.24-10.651.334-.611 1.718-1.222 3.43-1.833 5.139-3.794.062-7.589.109-11.383.14-1.51 2.024-3.019 4.039-4.528 6.044l-.561-6.008c-7.093.038-14.185.027-21.276-.033L94.1 17.26c.943-2.58 1.888-5.152 2.835-7.716-4.073-.057-8.133-.14-12.182-.248a1931.433 1931.433 0 00-3.183 8.822c-2.43-2.102-5.894-3.277-10.087-3.389-3.755-.1-7.316.787-10.177 2.598.291-.851.579-1.7.87-2.544-4.053-.13-8.107-.273-12.16-.43a1483.03 1483.03 0 00-3.931 11.987c-.557 1.753-1.437 1.969-2.084 1.976h-.244c.028-.334.092-.664.19-.985a919.55 919.55 0 014.211-13.065c-4.055-.163-8.11-.344-12.163-.543-1.255 4-2.51 8.064-3.762 12.189a29.797 29.797 0 00-.55 2.098l-11.14.133c2.07-7.215 4.142-14.227 6.217-21.035-4.073-.338-8.145-.697-12.218-1.078a1480.417 1480.417 0 00-9.31 33.795c8.888-.658 17.782-1.23 26.684-1.714.32-1.06.64-2.112.96-3.165 1.628 2.156 4.448 3.234 7.905 3.061.955-.051 1.9-.215 2.817-.489 3.702-.172 7.405-.33 11.111-.474.618-1.897 1.236-3.782 1.854-5.656 1.977 3.694 6.508 5.75 12.153 5.57a18.738 18.738 0 006.623-1.34l-.277.783c4.06-.098 8.12-.18 12.181-.244l1.765-4.945 2.213 4.887c3.55-.045 7.1-.079 10.651-.1l-2.264 2.27 2.386 1.197c2.005 1.01 4.172 1.473 6.828 1.47 4.843 0 8.099-1.535 11.613-5.53 4.197-5.067 8.394-10.159 12.577-15.358a2188.187 2188.187 0 01-5.807 16.03c4.832.057 9.665.14 14.499.248 7.342.165 13.148-1.237 17.248-4.406.263-.201.522-.417.777-.64.65 3.457 4.362 6.027 9.199 6.246a13.739 13.739 0 003.086-.209c2.755.122 5.51.25 8.265.385-.853.941-1.704 1.876-2.555 2.803.791.513 1.585 1.03 2.375 1.556a13.93 13.93 0 006.806 2.27c4.833.389 8.078-1.174 11.585-6a423.219 423.219 0 0016.339-26.016c-4.467.302-8.946.583-13.435.844zm-14.446 21.456l-.154-.093-2.113-1.466c.479-1.517.951-3.044 1.416-4.582.292 2.041.576 4.088.851 6.141zm-36.763-8.983c-1.736 1.336-4.452 2.052-7.654 2.044 1.071-2.997 2.14-6.014 3.209-9.051h.952c2.257-.036 3.838.27 4.696.923a2.334 2.334 0 01.877 2.009 5.108 5.108 0 01-2.08 4.078v-.003zm-43.782 5.853l-2.875 2.846a4991.982 4991.982 0 01-4.732-9.702c2.635-1.56 5.264-3.116 7.887-4.671l2.156 12.825-.158-.072-2.278-1.226zm-35.43-8.265c.977 0 1.477.123 2.454 1.262l1.606 1.868a529.247 529.247 0 014.424-2.368c-.59 1.656-1.18 3.32-1.772 4.991l-3.19-3.234c-.787.503-1.574 1.01-2.362 1.52-1.38.91-2.127 1.194-3.198 1.2-.977 0-1.538-.517-1.538-1.437-.01-1.915 1.793-3.827 3.565-3.812l.01.01z" fill="#0093D0"/><path d="M6.364 38.876A1464.95 1464.95 0 0115.2 6.895c3.476.314 6.95.61 10.42.887a1476.286 1476.286 0 00-6.212 21.187c4.822-.08 9.65-.153 14.481-.223-.879 2.846-1.758 5.72-2.637 8.624-8.303.436-16.6.938-24.888 1.506z" fill="#fff"/><path d="M40.778 37.266c-5.092.262-8.51-2.515-8.51-6.996 0-1.28.389-2.764.805-4.169 1.198-3.924 2.396-7.789 3.594-11.595 3.454.158 6.907.303 10.36.434a1809.878 1809.878 0 00-3.953 12.193 5.14 5.14 0 00-.223 1.25c0 .413 0 .665 1.117.647 1.416 0 2.4-.87 2.925-2.515 1.25-3.862 2.504-7.673 3.76-11.434 3.449.127 6.902.246 10.359.359-2.32 6.825-4.644 13.8-6.975 20.928-3.457.124-6.914.263-10.37.416l.021-.06c-.941.31-1.92.492-2.91.542z" fill="#fff"/><path d="M68.713 36.281c-7.27.241-12.344-3.521-12.344-9.234 0-6.738 6.767-11.92 15.092-11.661 4.866.122 8.624 1.736 10.845 4.643l.895 1.168A704.914 704.914 0 0075.26 25.4l-1.114-1.294c-1.032-1.204-1.747-1.56-3.18-1.567-2.293-.025-4.45 2.142-4.45 4.46 0 1.293.946 2.12 2.408 2.105 1.283 0 2.232-.359 3.763-1.365l1.549-1.013a649.695 649.695 0 005.641 5.39l-1.38.945a16.943 16.943 0 01-9.784 3.22zM108.811 40.295a13.49 13.49 0 01-6.317-1.358l-1.653-.83c1.916-1.917 3.833-3.826 5.749-5.728l1.581.866c.396.21.832.333 1.28.36a.85.85 0 00.398-.055 5763.574 5763.574 0 00-2.903-17.384h10.489l.719 7.571c1.887-2.54 3.782-5.085 5.684-7.636 3.816-.034 7.633-.079 11.449-.136-5.203 6.507-10.403 12.824-15.588 19.105-3.346 3.78-6.386 5.222-10.888 5.225zM128.341 35.444a2882.009 2882.009 0 008.864-24.625c3.33-.082 6.659-.182 9.986-.302 5.61-.201 9.904.719 12.775 2.893 2.515 1.9 3.73 4.473 3.73 7.804 0 3.953-1.847 7.51-5.351 10.21-3.953 3.04-9.537 4.39-16.641 4.243-4.451-.093-8.905-.168-13.363-.223zm14.114-7.104c3.468.022 6.432-.758 8.344-2.231a5.72 5.72 0 002.336-4.571 2.925 2.925 0 00-1.132-2.49c-1.024-.78-2.814-1.143-5.311-1.1l-1.617.029c-1.227 3.478-2.454 6.93-3.683 10.356l1.063.007z" fill="#fff"/><path d="M130.328 34.341c2.68-7.38 5.366-14.85 8.056-22.408 2.939-.072 5.878-.156 8.815-.252 5.192-.169 9.127.676 11.696 2.62 2.21 1.674 3.288 3.952 3.288 6.931 0 3.594-1.696 6.85-4.905 9.325-3.647 2.814-8.883 4.082-15.566 3.953-3.795-.065-7.59-.121-11.384-.169zm12.127-4.848c3.878.033 7.219-.855 9.419-2.547a6.796 6.796 0 002.784-5.426 3.947 3.947 0 00-1.581-3.328c-1.322-1.002-3.467-1.47-6.385-1.408l-2.781.054c-1.502 4.25-3.006 8.46-4.51 12.63l3.054.026z" fill="#0093D0"/><path d="M168.928 36.817c-4.891-.212-8.438-2.98-8.438-6.616 0-3.327 2.43-5.936 6.3-7.219a513.132 513.132 0 00-1.502-6.065l1.484-.546a30.03 30.03 0 019.023-1.747c6.967-.316 10.959 2.29 10.959 7.223a11.57 11.57 0 01-.557 3.378c-1.221 4.007-2.445 7.96-3.672 11.858-3.373-.163-6.75-.314-10.13-.453 0-.043.029-.09.047-.137-1.15.273-2.333.382-3.514.324z" fill="#fff"/><path d="M168.928 35.574c-4.072-.159-6.918-2.35-6.918-5.355 0-4.013 4.036-6.748 10.033-6.827a23.79 23.79 0 015.969.7c.125-.382.192-.782.197-1.185 0-.46 0-1.85-3.758-1.797a19.576 19.576 0 00-5.775 1.046l-.489.169a954.729 954.729 0 00-1.171-4.736l.331-.119a27.764 27.764 0 018.433-1.595c6.109-.245 9.44 1.861 9.44 5.968a10.171 10.171 0 01-.51 3.026 1374.215 1374.215 0 01-3.367 10.812c-2.334-.098-4.666-.191-6.996-.28l.431-1.38a10.063 10.063 0 01-5.85 1.553zm4.312-8.287c-2.447 0-4.089.981-4.089 2.472 0 .945.991 1.6 2.468 1.635 2.26.05 4.492-1.394 5.193-3.395l.053-.158a13.837 13.837 0 00-3.625-.554z" fill="#0093D0"/><path d="M186.923 43.565a12.763 12.763 0 01-6.306-2.077l-1.628-1.078a331.44 331.44 0 005.724-6.396l1.578 1.078c.378.26.815.422 1.272.47.136.025.275.01.402-.042a3566.243 3566.243 0 00-2.899-20.752c3.478-.153 6.962-.315 10.453-.485.239 3.114.479 6.243.718 9.386a471.857 471.857 0 005.689-9.724c3.801-.208 7.603-.43 11.405-.665a421.924 421.924 0 01-15.545 24.59c-3.345 4.56-6.371 6.044-10.863 5.695z" fill="#fff"/><path d="M186.923 42.232a10.785 10.785 0 01-5.419-1.757l-.359-.24a516.024 516.024 0 003.888-4.352l.359.244c.647.449 1.401.72 2.185.787.773.04 1.262-.072 1.998-.841a6578.89 6578.89 0 00-2.778-20.033c2.444-.1 4.885-.204 7.324-.309.323 4.223.644 8.464.963 12.72a489.093 489.093 0 007.747-13.123c2.609-.127 5.215-.258 7.819-.395a417.95 417.95 0 01-14.154 22.142c-3.047 4.126-5.631 5.44-9.573 5.157z" fill="#0093D0"/><path d="M91.85 35.444c-.905-1.988-1.81-3.983-2.716-5.983l-.51.31c-.686 1.916-1.37 3.832-2.052 5.749-3.46.055-6.919.12-10.378.197 3.065-8.746 6.134-17.309 9.199-25.76 3.46.086 6.92.153 10.381.2-1.09 2.962-2.179 5.93-3.266 8.905 1.588-.985 3.179-1.967 4.772-2.947 4.832.036 9.666.052 14.503.047-4.672 2.764-9.343 5.502-14.015 8.265 1.778 3.655 3.557 7.297 5.337 10.924-3.752.019-7.503.05-11.255.093z" fill="#fff"/><path d="M92.946 34.301c-1.02-2.24-2.041-4.488-3.062-6.744l-2.605 1.566-1.88 5.272-7.222.118a2497.651 2497.651 0 018.387-23.4c2.396.05 4.802.095 7.22.133-1.342 3.651-2.683 7.316-4.022 10.996 2.693-1.677 5.385-3.347 8.078-5.009 3.21.021 6.42.034 9.63.036a5722.087 5722.087 0 00-11.488 6.78c1.658 3.414 3.315 6.812 4.97 10.195-2.669.014-5.337.034-8.006.057zM108.811 39.181a11.473 11.473 0 01-5.448-1.164l-.359-.187 3.888-3.888.359.19c.676.36 1.427.557 2.192.576a2.548 2.548 0 001.991-.766l-2.781-16.655h7.345c.323 3.435.645 6.87.966 10.306 2.592-3.445 5.181-6.903 7.765-10.374 2.616-.022 5.232-.048 7.848-.08-4.736 5.883-9.472 11.625-14.208 17.346-3.015 3.431-5.606 4.693-9.558 4.696zM68.712 35.106c-6.37.184-10.82-3.108-10.82-8.067 0-6.033 6.084-10.704 13.566-10.485 4.355.097 7.546 1.462 9.526 4.035l.197.259c-1.84.958-3.678 1.93-5.516 2.914l-.248-.287c-1.131-1.312-2.22-2.085-4.455-2.106-3.127-.043-5.969 2.641-5.969 5.634 0 1.966 1.617 3.313 3.931 3.281 1.894-.025 3.234-.661 4.747-1.664l.36-.222a403.544 403.544 0 003.776 3.593l-.305.208a14.927 14.927 0 01-8.79 2.907zM8.34 37.244a1413.287 1413.287 0 018.024-28.79c2.427.202 4.855.393 7.284.575a1238.551 1238.551 0 00-6.22 21.406c4.822-.115 9.647-.222 14.474-.32a741.285 741.285 0 00-1.797 5.972c-7.263.338-14.518.724-21.765 1.157zM40.778 35.972c-4.248.194-6.99-2.048-6.99-5.749 0-1.117.36-2.494.759-3.802a1210.38 1210.38 0 013.284-10.568c2.396.094 4.798.182 7.208.266-1.142 3.512-2.285 7.07-3.428 10.676a6.268 6.268 0 00-.273 1.592c0 1.3.888 1.94 2.638 1.908 2.874-.061 3.988-2.214 4.394-3.482 1.153-3.534 2.304-7.023 3.454-10.468 2.395.077 4.8.148 7.212.212a1718.817 1718.817 0 00-6.174 18.618c-2.395.079-4.8.164-7.215.255.14-.439.276-.873.416-1.308a10.36 10.36 0 01-5.285 1.85z" fill="#0093D0"/></svg>