<svg viewBox="6.553 5.76 209.209 96.089" xmlns="http://www.w3.org/2000/svg"><defs><linearGradient id="a" x1="174.738" y1="90.979" x2="174.738" y2="5.709" gradientUnits="userSpaceOnUse"><stop stop-color="#FFCD00"/><stop offset=".01" stop-color="#FFC901"/><stop offset=".19" stop-color="#F8970C"/><stop offset=".37" stop-color="#F36C16"/><stop offset=".55" stop-color="#EF4C1D"/><stop offset=".71" stop-color="#EC3423"/><stop offset=".87" stop-color="#EB2626"/><stop offset="1" stop-color="#EA2127"/></linearGradient></defs><path d="M174.738 14.318a40.882 40.882 0 00-40.88 40.88 40.881 40.881 0 0040.88 40.88h.144a40.878 40.878 0 0040.88-40.88 40.878 40.878 0 00-40.88-40.88h-.144z" fill="#fff" stroke="#EA2127" stroke-width="1.521" stroke-miterlimit="10"/><path d="M134.579 34.902l-17.771 1.49-8.921 10.22 1.756-9.618-13.539 1.154-1.323 8.056-.36-.553a16.063 16.063 0 00-15.703-7.022 23.302 23.302 0 00-16.448 8.585 25.685 25.685 0 00-2.212 3.318l-.746 1.347 1.924-10.749-13.49 1.154-1.972 10.966-.289-.986a10.893 10.893 0 00-3.607-5.339A15.27 15.27 0 0031.466 43.8c-.938 0-1.948 0-3.03.12l-12.697 1.083-7.022 38.931 13.539-1.13 1.803-10.147 4.185-.361a21.498 21.498 0 0013.177-5.267 14.732 14.732 0 001.54-1.707l.625-.793-2.982 16.592 13.49-1.13 3.03-16.833.24 1.443c1.42 8.56 8.056 13.875 17.338 13.875h2.044a20.32 20.32 0 0012.6-5.483l.578-.505-.842 4.665 13.539-1.13 1.563-8.873 3.15-3.439 5.411 11.446 14.428-1.226-9.956-19.983 17.362-19.045zM27.185 61.137h-1.082l.938-5.314 2.068-.169a3.656 3.656 0 012.766.53 1.37 1.37 0 01.505 1.01c.264 3.125-3.535 3.799-5.195 3.943zm63.749 5.771l-7.72-5.747-1.177 1.37a8.008 8.008 0 01-5.748 3.44h-.553a4.64 4.64 0 01-4.81-4.81 9.066 9.066 0 017.528-10.124 5.266 5.266 0 015.482 2.91l1.034 1.707 9.042-5.867-3.078 17.121z" fill="#fff"/><path d="M97.74 39.952l9.618-.818-2.621 14.044 13.009-14.934 12.024-1.01-14.909 16.424 9.282 18.613-10.124.89-6.084-12.842-5.459 5.964-1.394 7.96-9.619.817 6.276-35.108zM17.374 46.709l11.23-.962c5.603-.457 9.355.36 12.024 2.645a9.62 9.62 0 013.294 6.781c.722 8.537-5.747 14.429-15.895 15.27l-5.65.481L20.572 81l-9.62.817 6.421-35.108zM27.45 63.037c4.81-.41 7.214-2.742 6.95-5.988a3.342 3.342 0 00-1.179-2.405 5.506 5.506 0 00-4.184-.986l-3.535.289-1.635 9.282 3.583-.192zM49.26 43.968l9.62-.818-6.421 35.108-9.499.818 6.3-35.108zM59.096 63.037a21.065 21.065 0 0119.67-22.508 13.971 13.971 0 0114.669 7.502L85.57 53.13a7.214 7.214 0 00-7.214-3.823 11.038 11.038 0 00-9.282 12.192 6.614 6.614 0 007.455 6.492 9.932 9.932 0 007.07-4.112l6.901 5.146a18.228 18.228 0 01-13.827 7.647c-9.595.794-16.809-4.569-17.578-13.634z" fill="#008ED4"/><path d="M31.875 56.231a3.655 3.655 0 00-2.766-.408l-2.068.168-.938 5.338h1.082c1.66-.144 5.46-.817 5.195-3.895a1.37 1.37 0 00-.505-1.203zm-4.81 4.401h-.433l.818-4.28 1.66-.145a3.44 3.44 0 012.404.41.938.938 0 01.313.672c.288 2.622-3.175 3.343-4.69 3.343h-.072zM83.912 54.043a5.266 5.266 0 00-5.482-2.91 9.066 9.066 0 00-7.527 10.124 4.64 4.64 0 004.81 4.81h.552a8.007 8.007 0 005.748-3.44l1.178-1.37 7.719 5.747 3.054-17.025-9.018 5.844-1.034-1.78zm6.685 12.024l-7.478-5.555-1.467 1.755a7.5 7.5 0 01-5.41 3.174h-.506a4.185 4.185 0 01-4.328-4.28 8.562 8.562 0 017.07-9.619 4.81 4.81 0 015.001 2.67l1.299 2.14 8.513-5.339-2.694 15.054z" fill="#008ED4"/><path d="M135.806 34.18l-19.238 1.636h-.12l-7.84 8.993 1.564-8.464-14.597 1.226-1.275 7.07a16.833 16.833 0 00-15.846-6.733 23.735 23.735 0 00-16.833 8.777 27.463 27.463 0 00-1.563 2.164l1.539-8.488-14.549 1.226-1.539 9.426a11.207 11.207 0 00-3.27-4.545 15.75 15.75 0 00-10.773-3.342c-.962 0-1.996 0-3.078.144l-12.961 1.178-7.215 40.063 14.429-1.25 1.803-10.076 3.776-.313a22.171 22.171 0 0013.658-5.41c.337-.337.65-.65.962-1.01L40.1 81.768l14.428-1.25 2.597-14.428c1.9 8.055 8.513 12.985 17.578 12.985h2.092a21.113 21.113 0 0012.36-5.098l-.697 3.848 14.597-1.25 1.587-9.115 2.549-2.765 5.266 11.086 15.534-1.299-10.123-20.44 17.939-19.863zm-23.061 40.88l-5.411-11.446-3.15 3.439-1.563 8.873-13.539 1.13.89-4.545-.577.505a20.32 20.32 0 01-12.6 5.483H74.75c-9.282 0-15.919-5.314-17.337-13.875l-.24-1.443-3.03 16.833-13.491 1.13 2.982-16.592-.626.793a14.74 14.74 0 01-1.539 1.708 21.498 21.498 0 01-13.177 5.266l-4.233.337-1.803 10.075-13.539 1.13 7.022-38.956L28.436 43.8c1.082 0 2.092-.12 3.03-.12a15.27 15.27 0 0110.412 3.246 10.893 10.893 0 013.439 5.219l.288.985 1.972-10.965 13.539-1.154-1.924 10.749.745-1.347a25.669 25.669 0 012.213-3.318 23.3 23.3 0 0116.448-8.585A16.063 16.063 0 0194.3 45.53l.48.673 1.443-7.936 13.539-1.154-1.756 9.619 8.922-10.22 17.77-1.491-17.313 19.07 9.955 19.982-14.596.986z" fill="#008ED4"/><path d="M7.66 91.556l2.404-.456v.697a1.924 1.924 0 011.491-.818 1.947 1.947 0 012.164 2.068 3.413 3.413 0 01-3.078 4.016 1.876 1.876 0 01-1.443-.36L8.79 99.54l-2.237.192 1.106-8.176zM9.63 93.48l-.24 1.78c0 .192.264.264.625.24.36-.024 1.299-.745 1.178-2.14 0-.457-.264-.697-.649-.673a1.18 1.18 0 00-.914.793zM15.258 88.046l2.405-.457-1.25 8.897-2.333.216 1.178-8.656zM17.831 94.803a3.222 3.222 0 010-1.058l.433-3.03 2.405-.457-.53 3.27v.577c0 .12.193.457.506.433a1.202 1.202 0 00.913-.721l.53-3.487 2.284-.36-.77 4.183a3.319 3.319 0 000 .866c.031.318.139.623.313.89l-2.405.168a2.046 2.046 0 01-.192-.673 2.117 2.117 0 01-1.683.938 1.587 1.587 0 01-1.804-1.54zM25.045 95.404l-.216-1.491a4.809 4.809 0 002.14.289c.721 0 .986-.12.962-.337-.024-.216 0-.216-.577-.337h-.457c-1.01-.24-1.804-.553-1.876-1.443 0-1.298.914-2.188 2.91-2.404a3.294 3.294 0 012.164.505v1.418a4.809 4.809 0 00-2.164-.384c-.553 0-.721.192-.697.385.024.192.288.216.793.336h.481c1.058.24 1.635.697 1.683 1.467.12 1.347-1.178 2.092-3.078 2.236a3.824 3.824 0 01-2.068-.24z" fill="#F05A2A"/><path d="M209.918 48.753a72.432 72.432 0 00-1.346-4.81 30.116 30.116 0 00-5.363-8.849 88.678 88.678 0 01-3.27 9.042c-1.732 3.535-4.978 6.372-7.214 6.637a2.84 2.84 0 01-3.343-1.924c-.793-2.092 5.026-4.449 7.96-10.773a17.783 17.783 0 001.491-8.705 24.945 24.945 0 00-5.459-13.803c-7.623-9.619-23.398-10.292-27.486-9.619a8.275 8.275 0 014.545 8.753c-.337 4.81-.914 5.531-7.791 10.22a36.75 36.75 0 00-4.809 3.824v.192a21.905 21.905 0 00-7.215 18.42c0 1.515.962 5.747 1.059 6.132.096.385-.746 1.755-2.405-1.563-4.81-9.619 2.044-21.354 2.14-21.642a15.556 15.556 0 00-5.603 3.8 35.495 35.495 0 00-6.998 21.329 35.855 35.855 0 0035.927 35.565 35.825 35.825 0 0033.072-22.163 35.813 35.813 0 002.709-13.715 34.586 34.586 0 00-.601-6.348z" fill="url(#a)"/><path d="M34.16 86.266l10.868-.866-.432 3.463-6.517.625-.457 3.319 5.362-.433-.384 2.79-5.315.408-.793 5.94-4.377.337 2.044-15.583zM46.688 85.256l4.352-.337-1.948 15.655-4.352.337 1.948-15.655zM54.142 84.679l6.974-.553a4.544 4.544 0 015.458 3.944 5.363 5.363 0 01-3.583 5.338c.89.144 1.275 1.226 1.347 2.405l.12 1.539a2.188 2.188 0 001.01 1.996l-4.81.36a2.933 2.933 0 01-.697-1.996v-1.539c0-1.226-.312-1.875-1.274-1.803h-1.49l-.722 5.555-4.353.36 2.02-15.606zm3.896 3.126l-.505 4.088 2.14-.168a2.405 2.405 0 002.405-2.621c0-.938-.794-1.491-2.165-1.371l-1.875.072zM69.484 83.453l10.87-.842-.433 3.463-6.517.505-.41 2.91 5.363-.434-.408 2.838-5.339.409-.385 2.958 6.541-.505-.48 3.462-10.846.89 2.044-15.654zM82.59 82.419l6.757-.53c3.415-.264 5.074 1.13 5.242 3.295a3.991 3.991 0 01-2.67 4.088 2.741 2.741 0 012.406 2.645c.216 2.742-1.924 5.218-6.204 5.555l-7.623.601L82.59 82.42zm3.15 8.873l-.385 3.006 2.717-.217c1.491 0 2.068-1.01 1.996-1.875-.072-.866-.553-1.155-1.635-1.082l-2.693.168zm.77-5.747l-.41 2.981 2.405-.192a1.85 1.85 0 001.924-1.948c0-.77-.601-1.082-1.563-1.01l-2.357.169zM101.851 80.904l4.353-.337 3.198 15.222-4.112.336-.601-2.885-5.41.433-1.42 3.03-3.847.312 7.839-16.111zm-1.202 9.81l3.463-.264-1.034-4.81-2.429 5.075zM112.6 80.062l4.353-.36-1.587 12.191 6.877-.553-.481 3.463-11.206.89 2.044-15.631zM124.912 79.076l4.353-.337-1.587 12.168 6.901-.553-.505 3.487-11.206.89 2.044-15.655z" fill="#F05A2A"/><path d="M160.502 33.194l-1.659 9.042 17.698-1.49-12.865 12.215.962 6.397 2.885-.24c5.676-.482 9.331 1.153 9.619 4.808.289 3.656-3.27 6.878-8.296 7.215a11.594 11.594 0 01-10.629-4.425l-7.214 6.276c3.535 5.026 9.33 8.176 18.108 7.43 11.181-.937 19.093-8.969 18.275-18.42-.577-6.829-4.953-9.907-10.965-10.796l14.163-12.817 1.491-7.96-31.573 2.765z" fill="#fff"/></svg>