<svg viewBox="5.064 5.165 261.63 60.508" xmlns="http://www.w3.org/2000/svg"><path d="M263.222 51.534H144.443v13.464h118.779V51.534zM26.474 47.098c11.388 0 20.62-9.232 20.62-20.62 0-11.387-9.232-20.619-20.62-20.619-11.388 0-20.62 9.232-20.62 20.62 0 11.387 9.232 20.619 20.62 20.619z" fill="#fff"/><path d="M26.474 47.792A21.314 21.314 0 1147.69 26.575a21.353 21.353 0 01-21.217 21.217zm0-41.258A19.944 19.944 0 1046.399 26.48 19.963 19.963 0 0026.474 6.534z" fill="#231F20"/><path d="M91.071 26.479a20.619 20.619 0 11-41.237 0 20.619 20.619 0 0141.237 0z" fill="#fff"/><path d="M70.433 47.792a21.314 21.314 0 1121.313-21.217 21.333 21.333 0 01-21.313 21.217zm0-41.258A19.944 19.944 0 1090.396 26.48 19.964 19.964 0 0070.433 6.534z" fill="#231F20"/><path d="M115.144 47.098c11.387 0 20.619-9.232 20.619-20.62 0-11.387-9.232-20.619-20.619-20.619-11.388 0-20.62 9.232-20.62 20.62 0 11.387 9.232 20.619 20.62 20.619z" fill="#fff"/><path d="M115.144 47.792a21.315 21.315 0 01-15.168-36.385 21.314 21.314 0 0136.385 15.168 21.35 21.35 0 01-21.217 21.218zm0-41.258a19.943 19.943 0 00-14.129 34.04 19.941 19.941 0 0030.691-3.013 19.948 19.948 0 003.363-11.082 19.964 19.964 0 00-19.925-19.945z" fill="#231F20"/><path d="M180.377 26.479a20.614 20.614 0 01-12.742 19.055 20.618 20.618 0 01-19.29-36.228 20.616 20.616 0 0111.471-3.447 20.638 20.638 0 0120.561 20.62z" fill="#fff"/><path d="M159.816 47.792a21.315 21.315 0 01-15.168-36.385 21.318 21.318 0 0123.273-4.601 21.31 21.31 0 0113.112 19.769 21.352 21.352 0 01-21.217 21.217zm0-41.258a19.943 19.943 0 00-14.129 34.04 19.94 19.94 0 0021.738 4.333 19.943 19.943 0 0012.316-18.428 19.963 19.963 0 00-19.925-19.945z" fill="#231F20"/><path d="M223.738 26.479a20.617 20.617 0 01-24.642 20.223 20.615 20.615 0 01-16.201-16.2 20.622 20.622 0 0120.224-24.643 20.638 20.638 0 0120.619 20.62z" fill="#fff"/><path d="M203.119 47.792a21.315 21.315 0 01-15.168-36.385 21.318 21.318 0 0123.272-4.601 21.308 21.308 0 0113.113 19.769 21.352 21.352 0 01-21.217 21.217zm0-41.258a19.943 19.943 0 00-14.129 34.04 19.941 19.941 0 0030.691-3.013 19.94 19.94 0 003.363-11.082 19.963 19.963 0 00-19.925-19.945z" fill="#231F20"/><path d="M266.694 26.479a20.617 20.617 0 01-24.642 20.223 20.622 20.622 0 01-16.201-16.2 20.622 20.622 0 0120.223-24.643 20.639 20.639 0 0120.62 20.62z" fill="#E31837"/><path d="M22.211 38.63h-4.069v-.27c-1.582-12.345-.618-18.787.655-23.918v-.212h.232a49.16 49.16 0 017.04-.29h2.855c6.268.117 10.3 3.415 10.492 8.565a7.713 7.713 0 01-1.928 5.787 11.189 11.189 0 01-8.198 2.835h-3.626c0 2.334 0 4.726.115 7.079v.308h-.289a48.212 48.212 0 01-3.279.116zm3.55-18.729v4.996h2.815a3.55 3.55 0 002.566-.965 2.373 2.373 0 00.713-1.716c0-2.045-2.97-2.257-4.204-2.238l-1.89-.077zM70.298 38.63a12.537 12.537 0 01-12.634-12.885 12.634 12.634 0 0121.97-8.39 12.962 12.962 0 013.317 8.448A12.653 12.653 0 0170.298 38.63zm0-19.018h-.058c-3.125 0-4.244 3.202-4.244 6.191 0 1.505.309 6.424 4.302 6.443 3.992.019 4.3-4.05 4.32-6.443a7.426 7.426 0 00-1.755-5.188 3.492 3.492 0 00-2.43-1.003h-.135zM110.128 38.611h-3.336v-.154c-4.765-9.857-6.211-17.36-4.572-23.552v-.231h5.748v.309a44.005 44.005 0 001.042 12.537 75.732 75.732 0 011.929-7.426c.482-1.698.983-3.433 1.446-5.343v-.212h.212a46.988 46.988 0 015.787 0h.212v.212c.367 1.505.733 2.932 1.08 4.282.733 2.835 1.447 5.517 1.929 8.487a43.4 43.4 0 001.273-12.537v-.386h1.485c1.929 0 2.392 0 4.321.115h.232v.232c1.369 6.23-.232 14.505-4.495 23.32v.173H117.497v-.289c-.444-4.282-1.312-8.7-2.161-12.981-.848 4.282-1.697 8.699-2.121 12.981v.27h-.348l-2.739.193zM160.954 38.63a66.913 66.913 0 01-9.085-.656h-.231v-.212a51.67 51.67 0 010-22.934v-.231h.231a59.29 59.29 0 0116.935-.097h.193v.193a28.286 28.286 0 011.485 5.247v.385h-.385l-3.858-.096c-2.565 0-4.996-.135-7.503-.096v2.777h10.068V28.986h-.308c-3.183 0-6.404.096-9.645 0v3.125c3.858 0 7.716 0 11.67-.328h.367v.366a20.053 20.053 0 01-1.061 5.459v.174h-.193a65.576 65.576 0 01-8.68.848zM199.435 38.63a31.187 31.187 0 01-5.382-.463h-.193v-.173a38.576 38.576 0 01.598-23.494v-.173h.193a37.034 37.034 0 017.966-.579h1.312c6.789.154 10.281 2.7 10.724 7.715a5.243 5.243 0 01-3.414 5.478c2.199.85 3.858 1.93 3.569 6.289a23.8 23.8 0 01-.444 2.758 5.319 5.319 0 00-.154.848h.443l-.231 1.37h-.232a45.69 45.69 0 01-4.802.347c-.714 0-1.447 0-2.257.097h-.251v-.251a16.883 16.883 0 01-.154-3.954 4.877 4.877 0 00-.753-3.569 4.185 4.185 0 00-3.086-.868h-2.102v.097c0 2.7 0 5.478.212 8.217v.308h-1.601.039zm1.408-18.478v4.263h2.835a4.339 4.339 0 003.028-.772 1.652 1.652 0 00.425-1.234c0-1.447-1.1-2.296-2.894-2.296a66.08 66.08 0 00-3.394.039z" fill="#231F20"/><path d="M229.814 33.19a24.868 24.868 0 010-14.388c1.331 0 2.643-.155 3.858-.193 1.929 0 3.086.694 2.758 3.722a5.614 5.614 0 01-1.369 3.318 4.192 4.192 0 011.62 3.55c.27 3.433-.791 4.551-2.932 4.378-1.292-.116-2.585-.232-3.935-.386zm1.929-11.09c-.135.81-.231 1.64-.289 2.45h1.234c.579 0 1.022-.425 1.1-1.312.077-.887-.405-1.177-1.023-1.177l-1.022.039zm-.309 5.15c.03.898.114 1.793.251 2.681h1.254c.714 0 1.196-.174 1.099-1.312-.096-1.137-.771-1.427-1.716-1.465l-.888.096zM237.375 33.307a42.432 42.432 0 013.858-14.775h3.511c.925 4.976 2.642 9.972 3.857 14.948h-3.433l-.521-1.929h-3.568c0 .637-.116 1.293-.155 1.93l-3.549-.174zm5.15-10.3a65.492 65.492 0 00-1.176 5.323h2.353a87.506 87.506 0 01-1.177-5.323zM249.566 33.519c.27-4.967.27-9.944 0-14.91h3.202c.501 3.765.617 7.572.347 11.36h4.668a36.344 36.344 0 01-.637 3.415c-2.527.058-5.054.115-7.58.135zM258.053 33.287a34.165 34.165 0 000-14.524c.81 0 1.813.154 2.623.212a24.776 24.776 0 01.482 10.763h3.356a21.238 21.238 0 01-1.138 3.28c-1.89.154-3.375.173-5.323.27z" fill="#fff"/><path d="M226.741 55.006a3.38 3.38 0 00-1.253-1.118 3.46 3.46 0 00-1.138-.328 11.58 11.58 0 00-1.814-.097h-2.642v10.84h1.234v-4.648h1.621a10.85 10.85 0 001.755-.116c.413-.076.81-.22 1.176-.424a2.8 2.8 0 001.1-1.119c.268-.456.408-.976.405-1.504a2.888 2.888 0 00-.444-1.486zm-1.601 3.144a3.973 3.973 0 01-2.218.502h-1.794v-4.205h1.756a4.034 4.034 0 012.314.501 1.937 1.937 0 01.714 1.582 1.74 1.74 0 01-.81 1.543l.038.077z"/><path fill-rule="evenodd" clip-rule="evenodd" d="M235.575 64.072h-5.593v-10.84h1.215v9.798h4.378v1.042z" fill="#231F20"/><path d="M244.525 53.077h-1.466l-4.745 10.86h1.274l1.485-3.414h5.536l1.485 3.414h1.292l-4.861-10.86zm-3.105 6.481l2.334-5.458 2.276 5.458h-4.61z"/><path fill-rule="evenodd" clip-rule="evenodd" d="M256.118 60.272v3.993h-1.215v-3.993l-3.955-6.847h1.389l3.183 5.632 3.202-5.632h1.35l-3.954 6.847z" fill="#231F20"/><path fill-rule="evenodd" clip-rule="evenodd" d="M151.155 58.015h.83c.483.048.967-.075 1.369-.347a1.086 1.086 0 00.386-.868 1.168 1.168 0 00-.328-.868 1.812 1.812 0 00-1.292-.366h-.965v2.45zm11.689.521a3.688 3.688 0 00.617 2.373 2.09 2.09 0 001.679.733 2.12 2.12 0 001.678-.714c.47-.762.679-1.655.598-2.546a3.47 3.47 0 00-.541-2.257 2.167 2.167 0 00-1.697-.694 2.065 2.065 0 00-1.639.713 3.7 3.7 0 00-.618 2.392h-.077zm43.399-.81h1.428c.299-.027.596-.079.887-.154a.886.886 0 00.54-.328.985.985 0 00.212-.637.94.94 0 00-.328-.81 1.927 1.927 0 00-1.253-.29h-1.486v2.219zm-61.723-6.192v14.139h119.435V51.534H144.52zm11.573 7.716a4.301 4.301 0 01-3.028.926h-1.929v4.05h-3.376V53.347h5.613a3.856 3.856 0 012.739.868 3.854 3.854 0 010 5.073l-.019-.038zm14.1 2.276a4.412 4.412 0 01-1.929 1.929c-.94.485-1.99.718-3.047.675a7.1 7.1 0 01-3.048-.579 4.596 4.596 0 01-1.929-1.929 6.175 6.175 0 01-.752-3.182 5.94 5.94 0 019.837-4.186 5.544 5.544 0 011.408 4.186 6.472 6.472 0 01-.598 3.124l.058-.038zm15.2 2.642h-3.376l-1.929-6.866-1.929 6.866H174.9l-2.431-10.878h3.202l1.157 6.114 1.621-6.114h3.202l1.678 6.114 1.157-6.114h3.183l-2.276 10.878zm14.524 0h-9.259v-10.86h9.008v2.335h-5.671v1.736h5.247v2.218h-5.247v2.141h5.787l.135 2.43zm9.914 0l-1.794-3.337a2.65 2.65 0 00-.617-.848 1.369 1.369 0 00-.829-.251h-.29v4.436h-3.394v-10.86h5.632a7.72 7.72 0 012.392.27 2.587 2.587 0 011.331.985 3.382 3.382 0 01.115 3.337c-.261.44-.625.81-1.061 1.08-.375.2-.778.343-1.196.424.314.093.612.23.888.405.203.162.385.35.54.56.177.215.332.448.463.694l1.639 3.163-3.819-.058zm53.449.791h-48.183V52.21h48.221l-.038 12.75z"/><path d="M226.741 55.006a3.38 3.38 0 00-1.253-1.118 3.46 3.46 0 00-1.138-.328 11.58 11.58 0 00-1.814-.097h-2.642v10.84h1.234v-4.648h1.621a10.85 10.85 0 001.755-.116c.413-.076.81-.22 1.176-.424a2.8 2.8 0 001.1-1.119c.268-.456.408-.976.405-1.504a2.888 2.888 0 00-.444-1.486zm-1.601 3.144a3.973 3.973 0 01-2.218.502h-1.794v-4.205h1.756a4.034 4.034 0 012.314.501 1.937 1.937 0 01.714 1.582 1.74 1.74 0 01-.81 1.543l.038.077z"/><path fill-rule="evenodd" clip-rule="evenodd" d="M235.575 64.072h-5.593v-10.84h1.215v9.798h4.378v1.042z" fill="#231F20"/><path d="M244.525 53.077h-1.466l-4.745 10.86h1.274l1.485-3.414h5.536l1.485 3.414h1.292l-4.861-10.86zm-3.105 6.481l2.334-5.458 2.276 5.458h-4.61z"/><path fill-rule="evenodd" clip-rule="evenodd" d="M256.118 60.272v3.993h-1.215v-3.993l-3.955-6.847h1.389l3.183 5.632 3.202-5.632h1.35l-3.954 6.847z" fill="#231F20"/><path fill-rule="evenodd" clip-rule="evenodd" d="M151.155 58.015h.83c.483.048.967-.075 1.369-.347a1.086 1.086 0 00.386-.868 1.168 1.168 0 00-.328-.868 1.812 1.812 0 00-1.292-.366h-.965v2.45zm11.689.521a3.688 3.688 0 00.617 2.373 2.09 2.09 0 001.679.733 2.12 2.12 0 001.678-.714c.47-.762.679-1.655.598-2.546a3.47 3.47 0 00-.541-2.257 2.167 2.167 0 00-1.697-.694 2.065 2.065 0 00-1.639.713 3.7 3.7 0 00-.618 2.392h-.077zm43.399-.81h1.428c.299-.027.596-.079.887-.154a.886.886 0 00.54-.328.985.985 0 00.212-.637.94.94 0 00-.328-.81 1.927 1.927 0 00-1.253-.29h-1.486v2.219zm-61.723-6.192v14.139h119.435V51.534H144.52zm11.573 7.716a4.301 4.301 0 01-3.028.926h-1.929v4.05h-3.376V53.347h5.613a3.856 3.856 0 012.739.868 3.854 3.854 0 010 5.073l-.019-.038zm14.1 2.276a4.412 4.412 0 01-1.929 1.929c-.94.485-1.99.718-3.047.675a7.1 7.1 0 01-3.048-.579 4.596 4.596 0 01-1.929-1.929 6.175 6.175 0 01-.752-3.182 5.94 5.94 0 019.837-4.186 5.544 5.544 0 011.408 4.186 6.472 6.472 0 01-.598 3.124l.058-.038zm15.2 2.642h-3.376l-1.929-6.866-1.929 6.866H174.9l-2.431-10.878h3.202l1.157 6.114 1.621-6.114h3.202l1.678 6.114 1.157-6.114h3.183l-2.276 10.878zm14.524 0h-9.259v-10.86h9.008v2.335h-5.671v1.736h5.247v2.218h-5.247v2.141h5.787l.135 2.43zm9.914 0l-1.794-3.337a2.65 2.65 0 00-.617-.848 1.369 1.369 0 00-.829-.251h-.29v4.436h-3.394v-10.86h5.632a7.72 7.72 0 012.392.27 2.587 2.587 0 011.331.985 3.382 3.382 0 01.115 3.337c-.261.44-.625.81-1.061 1.08-.375.2-.778.343-1.196.424.314.093.612.23.888.405.203.162.385.35.54.56.177.215.332.448.463.694l1.639 3.163-3.819-.058zm53.449.791h-48.183V52.21h48.221l-.038 12.75z"/><path d="M226.741 55.006a3.38 3.38 0 00-1.253-1.118 3.46 3.46 0 00-1.138-.328 11.58 11.58 0 00-1.814-.097h-2.642v10.84h1.234v-4.648h1.621a10.85 10.85 0 001.755-.116c.413-.076.81-.22 1.176-.424a2.8 2.8 0 001.1-1.119c.268-.456.408-.976.405-1.504a2.888 2.888 0 00-.444-1.486zm-1.601 3.144a3.973 3.973 0 01-2.218.502h-1.794v-4.205h1.756a4.034 4.034 0 012.314.501 1.937 1.937 0 01.714 1.582 1.74 1.74 0 01-.81 1.543l.038.077z"/><path fill-rule="evenodd" clip-rule="evenodd" d="M235.575 64.072h-5.593v-10.84h1.215v9.798h4.378v1.042z" fill="#231F20"/><path d="M244.525 53.077h-1.466l-4.745 10.86h1.274l1.485-3.414h5.536l1.485 3.414h1.292l-4.861-10.86zm-3.105 6.481l2.334-5.458 2.276 5.458h-4.61z"/><path fill-rule="evenodd" clip-rule="evenodd" d="M256.118 60.272v3.993h-1.215v-3.993l-3.955-6.847h1.389l3.183 5.632 3.202-5.632h1.35l-3.954 6.847z" fill="#231F20"/><path fill-rule="evenodd" clip-rule="evenodd" d="M151.155 58.015h.83c.483.048.967-.075 1.369-.347a1.086 1.086 0 00.386-.868 1.168 1.168 0 00-.328-.868 1.812 1.812 0 00-1.292-.366h-.965v2.45zm11.689.521a3.688 3.688 0 00.617 2.373 2.09 2.09 0 001.679.733 2.12 2.12 0 001.678-.714c.47-.762.679-1.655.598-2.546a3.47 3.47 0 00-.541-2.257 2.167 2.167 0 00-1.697-.694 2.065 2.065 0 00-1.639.713 3.7 3.7 0 00-.618 2.392h-.077zm43.399-.81h1.428c.299-.027.596-.079.887-.154a.886.886 0 00.54-.328.985.985 0 00.212-.637.94.94 0 00-.328-.81 1.927 1.927 0 00-1.253-.29h-1.486v2.219zm-61.723-6.192v14.139h119.435V51.534H144.52zm11.573 7.716a4.301 4.301 0 01-3.028.926h-1.929v4.05h-3.376V53.347h5.613a3.856 3.856 0 012.739.868 3.854 3.854 0 010 5.073l-.019-.038zm14.1 2.276a4.412 4.412 0 01-1.929 1.929c-.94.485-1.99.718-3.047.675a7.1 7.1 0 01-3.048-.579 4.596 4.596 0 01-1.929-1.929 6.175 6.175 0 01-.752-3.182 5.94 5.94 0 019.837-4.186 5.544 5.544 0 011.408 4.186 6.472 6.472 0 01-.598 3.124l.058-.038zm15.2 2.642h-3.376l-1.929-6.866-1.929 6.866H174.9l-2.431-10.878h3.202l1.157 6.114 1.621-6.114h3.202l1.678 6.114 1.157-6.114h3.183l-2.276 10.878zm14.524 0h-9.259v-10.86h9.008v2.335h-5.671v1.736h5.247v2.218h-5.247v2.141h5.787l.135 2.43zm9.914 0l-1.794-3.337a2.65 2.65 0 00-.617-.848 1.369 1.369 0 00-.829-.251h-.29v4.436h-3.394v-10.86h5.632a7.72 7.72 0 012.392.27 2.587 2.587 0 011.331.985 3.382 3.382 0 01.115 3.337c-.261.44-.625.81-1.061 1.08-.375.2-.778.343-1.196.424.314.093.612.23.888.405.203.162.385.35.54.56.177.215.332.448.463.694l1.639 3.163-3.819-.058zm53.449.791h-48.183V52.21h48.221l-.038 12.75z"/></svg>