<svg viewBox="5.589 5.098 209.404 96.308" xmlns="http://www.w3.org/2000/svg"><defs><linearGradient id="a" x1="173.94" y1="90.625" x2="173.94" y2="5.102" gradientUnits="userSpaceOnUse"><stop stop-color="#FFCD00"/><stop offset=".03" stop-color="#FEC402"/><stop offset=".21" stop-color="#F9920C"/><stop offset=".38" stop-color="#F46715"/><stop offset=".55" stop-color="#F1461B"/><stop offset=".72" stop-color="#EE2F20"/><stop offset=".87" stop-color="#ED2123"/><stop offset="1" stop-color="#EC1C24"/></linearGradient></defs><path d="M173.892 13.813a40.909 40.909 0 100 81.817h.144a40.909 40.909 0 100-81.817h-.144z" fill="#fff" stroke="#EC1C24" stroke-width="1.516" stroke-miterlimit="10"/><path d="M133.705 34.412l-17.783 1.492-8.928 10.227 1.757-9.626-13.548 1.155-1.324 8.062-.36-.554a16.075 16.075 0 00-15.714-7.026 23.318 23.318 0 00-16.46 8.59 25.705 25.705 0 00-2.214 3.321l-.746 1.348 1.925-10.757-13.5 1.156-1.973 10.973-.289-.987a10.901 10.901 0 00-3.609-5.342 15.28 15.28 0 00-10.42-3.129c-.938 0-1.949 0-3.032.12L14.782 44.52l-7.027 38.96 13.548-1.132 1.805-10.155 4.187-.36a21.513 21.513 0 0013.187-5.27c.557-.53 1.072-1.1 1.54-1.71l.626-.793-2.984 16.604 13.5-1.131 3.031-16.845.241 1.444c1.42 8.567 8.062 13.885 17.35 13.885h2.046a20.334 20.334 0 0012.609-5.487l.578-.505-.843 4.668 13.548-1.13 1.564-8.88 3.153-3.442 5.414 11.455 14.438-1.227-9.962-19.998 17.374-19.058zM26.235 60.666h-1.082l.939-5.319 2.069-.168a3.657 3.657 0 012.767.53 1.372 1.372 0 01.506 1.01c.264 3.128-3.538 3.802-5.198 3.947zM90.03 66.44l-7.724-5.751-1.18 1.371a8.014 8.014 0 01-5.75 3.441h-.554a4.645 4.645 0 01-4.813-4.812 9.072 9.072 0 017.532-10.131 5.27 5.27 0 015.487 2.912l1.034 1.708 9.048-5.872-3.08 17.134z" fill="#fff"/><path d="M96.84 39.465l9.625-.818-2.623 14.053 13.018-14.943 12.032-1.01-14.919 16.435 9.288 18.625-10.13.89-6.089-12.85-5.462 5.968-1.396 7.965-9.625.819 6.28-35.134zM16.418 46.227l11.238-.962c5.607-.458 9.36.36 12.032 2.647a9.625 9.625 0 013.296 6.786c.722 8.542-5.75 14.438-15.906 15.28l-5.655.482-1.805 10.082-9.625.819 6.425-35.134zM26.5 62.567c4.812-.41 7.219-2.744 6.954-5.992a3.346 3.346 0 00-1.18-2.407 5.51 5.51 0 00-4.186-.986l-3.538.288-1.636 9.29 3.586-.193zM48.327 43.484l9.625-.818-6.425 35.133-9.505.818 6.305-35.133zM58.169 62.567a21.08 21.08 0 0119.684-22.524 13.981 13.981 0 0114.679 7.508l-7.869 5.101a7.22 7.22 0 00-7.22-3.826 11.045 11.045 0 00-9.288 12.2 6.618 6.618 0 007.46 6.498 9.938 9.938 0 007.075-4.115l6.906 5.15A18.24 18.24 0 0175.76 76.21c-9.601.794-16.82-4.572-17.59-13.644z" fill="#008ED4"/><path d="M30.928 55.757a3.658 3.658 0 00-2.767-.41l-2.07.169-.938 5.342h1.083c1.66-.144 5.462-.818 5.198-3.898a1.372 1.372 0 00-.506-1.203zm-4.812 4.403h-.433l.818-4.283 1.66-.145a3.44 3.44 0 012.406.41.939.939 0 01.313.673c.29 2.623-3.176 3.345-4.692 3.345h-.072zM83.003 53.567a5.27 5.27 0 00-5.487-2.912 9.072 9.072 0 00-7.532 10.13 4.645 4.645 0 004.813 4.814h.553a8.013 8.013 0 005.752-3.442l1.179-1.371 7.724 5.751L93.061 49.5l-9.024 5.847-1.034-1.78zm6.69 12.032l-7.484-5.56-1.468 1.758a7.51 7.51 0 01-5.415 3.176h-.505a4.186 4.186 0 01-4.332-4.283 8.567 8.567 0 017.075-9.626 4.813 4.813 0 015.006 2.671l1.299 2.142 8.519-5.342-2.696 15.064z" fill="#008ED4"/><path d="M134.932 33.69l-19.251 1.636h-.12l-7.845 9 1.564-8.47-14.606 1.227-1.276 7.075A16.844 16.844 0 0077.54 37.42a23.75 23.75 0 00-16.845 8.783 27.438 27.438 0 00-1.564 2.166l1.54-8.495-14.558 1.228-1.54 9.433a11.213 11.213 0 00-3.273-4.548 15.762 15.762 0 00-10.78-3.345c-.963 0-1.998 0-3.08.144l-12.971 1.18-7.22 40.09 14.439-1.252 1.805-10.082 3.778-.313a22.187 22.187 0 0013.668-5.415c.337-.337.65-.65.962-1.01l-2.743 15.328 14.439-1.251 2.599-14.438c1.9 8.061 8.518 12.994 17.59 12.994h2.094a21.129 21.129 0 0012.369-5.101l-.698 3.85 14.606-1.251 1.589-9.12 2.55-2.768 5.27 11.093 15.546-1.299-10.131-20.454 17.951-19.877zm-23.077 40.909l-5.414-11.455-3.153 3.441-1.564 8.88-13.548 1.13.89-4.547-.577.505a20.334 20.334 0 01-12.61 5.487h-2.045c-9.288 0-15.93-5.318-17.35-13.885l-.24-1.444-3.032 16.845-13.5 1.13 2.984-16.603-.626.794c-.468.609-.983 1.18-1.54 1.708a21.513 21.513 0 01-13.187 5.27l-4.235.337-1.805 10.083-13.548 1.13 7.027-38.983 12.705-1.106c1.083 0 2.094-.12 3.032-.12 3.755-.237 7.465.92 10.42 3.248a10.9 10.9 0 013.441 5.222l.289.986 1.973-10.973 13.548-1.155-1.925 10.757.746-1.348a25.687 25.687 0 012.214-3.32 23.318 23.318 0 0116.46-8.591 16.074 16.074 0 0115.713 7.026l.481.674 1.444-7.941 13.548-1.155-1.756 9.625 8.927-10.227 17.784-1.492L116.5 53.615l9.962 19.997-14.607.987z" fill="#008ED4"/><path d="M6.696 91.106l2.406-.457v.698a1.925 1.925 0 011.492-.818 1.948 1.948 0 012.166 2.07 3.416 3.416 0 01-3.08 4.018 1.877 1.877 0 01-1.444-.361l-.409 2.84-2.238.192 1.107-8.182zm1.973 1.925l-.24 1.781c0 .193.264.265.625.24.361-.023 1.3-.745 1.18-2.14 0-.458-.265-.699-.65-.675a1.18 1.18 0 00-.915.794zM14.3 87.593l2.407-.457-1.252 8.903-2.334.217 1.18-8.663zM16.875 94.355a3.227 3.227 0 010-1.059l.433-3.032 2.407-.457-.53 3.273v.577c0 .12.193.457.506.433a1.204 1.204 0 00.914-.722l.53-3.489 2.285-.36-.77 4.186a3.323 3.323 0 000 .867c.031.317.139.623.313.89l-2.406.168a2.044 2.044 0 01-.193-.673 2.119 2.119 0 01-1.684.938 1.589 1.589 0 01-1.805-1.54zM24.094 94.957l-.216-1.492a4.813 4.813 0 002.141.288c.722 0 .987-.12.963-.337-.024-.216 0-.216-.578-.336h-.457c-1.01-.241-1.805-.554-1.877-1.444 0-1.3.915-2.19 2.912-2.407a3.297 3.297 0 012.166.506v1.42a4.812 4.812 0 00-2.166-.386c-.553 0-.722.193-.698.385.024.193.289.217.794.337h.482c1.058.241 1.636.698 1.684 1.468.12 1.348-1.18 2.094-3.08 2.238a3.826 3.826 0 01-2.07-.24zM33.215 85.812l10.876-.866-.433 3.465-6.521.626-.457 3.32 5.366-.433-.385 2.792-5.318.409-.794 5.944-4.38.337 2.046-15.594zM45.752 84.802l4.355-.337-1.949 15.665-4.355.337 1.949-15.665zM53.212 84.224l6.978-.553a4.548 4.548 0 015.463 3.946 5.366 5.366 0 01-3.586 5.342c.89.145 1.275 1.227 1.348 2.407l.12 1.54a2.19 2.19 0 001.01 1.997l-4.812.361a2.936 2.936 0 01-.698-1.997v-1.54c0-1.228-.313-1.877-1.275-1.805h-1.492l-.722 5.559-4.356.36 2.022-15.617zm3.898 3.128l-.505 4.091 2.141-.168a2.406 2.406 0 002.407-2.623c0-.939-.794-1.492-2.166-1.372l-1.877.072zM68.564 82.997l10.877-.842-.433 3.465-6.521.505-.41 2.912 5.367-.433-.41 2.84-5.341.408-.385 2.96 6.545-.505-.481 3.465-10.853.89 2.045-15.665zM81.68 81.962l6.761-.53c3.417-.264 5.078 1.132 5.246 3.297a3.995 3.995 0 01-2.671 4.091 2.743 2.743 0 012.406 2.647c.217 2.744-1.925 5.222-6.208 5.56l-7.629.6 2.094-15.665zm3.151 8.88l-.385 3.008 2.72-.217c1.492 0 2.07-1.01 1.997-1.877-.072-.866-.553-1.155-1.636-1.083l-2.695.169zm.77-5.752l-.409 2.984 2.407-.192a1.853 1.853 0 001.925-1.95c0-.77-.602-1.082-1.564-1.01l-2.358.168zM100.954 80.446l4.356-.337 3.2 15.233-4.115.337-.601-2.888-5.415.433-1.42 3.032-3.85.313 7.845-16.123zm-1.203 9.818l3.465-.265-1.035-4.812-2.43 5.077zM111.711 79.604l4.355-.361-1.588 12.2 6.882-.553-.481 3.465-11.214.89 2.046-15.641zM124.031 78.617l4.356-.337-1.588 12.177 6.906-.554-.505 3.49-11.214.89 2.045-15.666z" fill="#F05A28"/><path d="M173.916 13.717h-.12a41.006 41.006 0 10.12 82.01h.144a41.011 41.011 0 0028.974-12.062 41.004 41.004 0 00-29.118-69.948z" fill="#fff" stroke="#EC1C24" stroke-width="1.516" stroke-miterlimit="10"/><path d="M209.218 48.273a46.169 46.169 0 00-1.372-4.813 29.418 29.418 0 00-5.366-8.904 83.389 83.389 0 01-3.273 9.072 11.881 11.881 0 01-7.219 6.642 2.863 2.863 0 01-3.369-1.901c-.77-2.094 5.053-4.476 7.989-10.805a17.926 17.926 0 001.492-8.687 25.131 25.131 0 00-5.462-13.885c-7.653-9.625-23.463-10.323-27.578-9.746a8.302 8.302 0 014.524 8.88c-.337 4.813-.914 5.559-7.796 10.251a38.92 38.92 0 00-4.813 3.826v.193a21.973 21.973 0 00-7.219 18.457c0 1.516.962 5.775 1.059 6.16.096.385-.746 1.757-2.407-1.564-4.813-9.625 2.046-21.417 2.142-21.802a15.888 15.888 0 00-5.631 3.802 35.873 35.873 0 00-3.151 37.472 35.882 35.882 0 0032.028 19.704 35.95 35.95 0 0035.783-36.096 34.83 34.83 0 00-.361-6.256z" fill="url(#a)"/><path d="M182.627 60.16l5.222-30.08-10.251.915-30.321 33.04 1.709 7.7 22.163-1.95-1.805 10.565 9.914-.939 1.805-10.564 6.425-.577 1.564-8.76-6.425.65zm-9.914.89l-12.177 1.084 14.896-16.845-2.719 15.762z" fill="#fff"/></svg>