<svg xmlns="http://www.w3.org/2000/svg" xmlns:xlink="http://www.w3.org/1999/xlink" viewBox="0 0 1020 633.01"><defs><linearGradient id="d" x1="57.93" x2="341.56" y1="109.87" y2="549.64" gradientUnits="userSpaceOnUse"><stop offset=".41" stop-color="#4b8cca"/><stop offset=".81" stop-color="#ea2b90"/></linearGradient><linearGradient id="e" x1="146.44" x2="162.78" y1="206.93" y2="528.4" gradientUnits="userSpaceOnUse"><stop offset="0" stop-color="#243f94"/><stop offset=".9" stop-color="#fff"/></linearGradient><linearGradient xlink:href="#e" id="f" x1="187.51" x2="203.85" y1="204.85" y2="526.31"/><linearGradient id="g" x1="22.2" x2="146.3" y1="197.24" y2="405.61" gradientUnits="userSpaceOnUse"><stop offset="0" stop-color="#025493"/><stop offset=".26" stop-color="#5088b4"/><stop offset=".52" stop-color="#9abbd4"/><stop offset=".75" stop-color="#d0dfeb"/><stop offset=".91" stop-color="#f2f6f9"/><stop offset="1" stop-color="#fff"/></linearGradient><linearGradient id="i" x1="174.68" x2="130.96" y1="567.26" y2="74.84" gradientUnits="userSpaceOnUse"><stop offset="0" stop-color="#fff"/><stop offset=".22" stop-color="#c2c2c2"/><stop offset=".6" stop-color="#5b5b5b"/><stop offset=".87" stop-color="#1a1a1a"/><stop offset="1" stop-color="#010101"/></linearGradient><linearGradient id="j" x1="392.13" x2="705.96" y1="196.62" y2="630.42" gradientUnits="userSpaceOnUse"><stop offset=".41" stop-color="#4b8cca"/><stop offset=".85" stop-color="#ea2b90"/></linearGradient><linearGradient xlink:href="#e" id="k" x1="544.15" x2="413.93" y1="205.62" y2="417.42"/><linearGradient id="m" x1="58.93" x2="554.82" y1="89.44" y2="435.56" gradientUnits="userSpaceOnUse"><stop offset="0" stop-color="#025493"/><stop offset="1" stop-color="#fff"/></linearGradient><linearGradient xlink:href="#d" id="o" x1="699.82" x2="985.64" y1="109" y2="552.18"/><linearGradient xlink:href="#e" id="p" x1="788.78" x2="805.13" y1="206.92" y2="528.38"/><linearGradient xlink:href="#e" id="q" x1="829.85" x2="846.19" y1="204.83" y2="526.29"/><linearGradient xlink:href="#m" id="r" x1="666.65" x2="790.75" y1="200.76" y2="409.13"/><linearGradient xlink:href="#i" id="t" x1="817.02" x2="773.31" y1="567.24" y2="74.82"/><radialGradient id="h" cx="-712.88" cy="198.62" r="386.54" fx="-712.88" fy="198.62" gradientTransform="matrix(1.1 0 0 1 735.96 0)" gradientUnits="userSpaceOnUse"><stop offset="0" stop-color="#fff"/><stop offset=".22" stop-color="#c2c2c2"/><stop offset=".6" stop-color="#5b5b5b"/><stop offset=".87" stop-color="#1a1a1a"/><stop offset="1" stop-color="#010101"/></radialGradient><radialGradient xlink:href="#h" id="l" cx="342.14" cy="255.8" r="402.46" fx="342.14" fy="255.8" gradientTransform="translate(-33.1 -23.85)"/><radialGradient xlink:href="#h" id="n" cx="532.7" cy="506.33" r="457.71" fx="532.7" fy="506.33" gradientTransform="translate(-33.1 -23.85)"/><radialGradient xlink:href="#h" id="s" cx="-93.21" cy="273.34" r="386.54" fx="-93.21" fy="273.34"/><style>.an{fill:#5cc9e5}</style></defs><g style="isolation:isolate"><g id="b"><g id="c"><path d="M966.15 217.85c-14.36-12.1-30.52-17.01-37.67-19.87-15.54-6.21-39.12-8.19-58.6-8.19h-81.02c11.65-8.1 18.88-21.83 18.88-38.38V47.56c0-26.82-18.92-46.28-45-46.28s-44.99 19.46-44.99 46.28v4.49a3.73 3.73 0 1 1-7.45 0v-4.5c0-26.8-18.93-46.27-45-46.27-15.3 0-28.1 6.74-36.1 17.7a47.7 47.7 0 0 0-3.43-2.5C608.71 5.4 588.81 0 564.95 0c-34.16 0-61.13 12.24-76.13 32.7C472.77 11.78 447.07 0 414.28 0c-31.38 0-56.25 10.8-72.4 30.05C323.74 10.65 297.54 0 267.51 0c-58.39 0-100.77 41.84-100.77 99.48 0 41.6 22.07 74.96 56.3 90.31H111.19C49.79 189.8 0 239.57 0 301V547.6a83.72 83.72 0 0 0 83.72 83.72h.08c.87 0 15.26-.06 27.3-3.46a83.53 83.53 0 0 0 22.1-9.07 73.13 73.13 0 0 0 16.13-12.92c10.62-11.37 19.62-28.54 20.52-54.27l.03-.45v-40.33a7.02 7.02 0 0 1 7.2-7.03c17.59.44 63.57.63 94.76-7.83a7.01 7.01 0 0 1 8.35 4.1c54.88 134.5 192.25 132.95 211.87 132.95 80.57 0 130.08-34.81 149.87-51.38a6.96 6.96 0 0 1 10.79 2.42c7.79 17.04 28.66 46.88 77.2 46.88 66 0 84.42-50.5 84.79-75.59v-44.76c0-3.9 3.15-7.05 7.04-7.03l44.16.17c18.4 0 54.24-3.04 87.55-23.34a132.34 132.34 0 0 0 41.07-38.9c16.01-23.53 23.16-50.28 25.47-74.6v-27c0-20.54-4.36-52.04-11.78-69.9-8.12-19.52-13.34-23.9-17.91-31.04l-24.16-21.09Z" style="fill:#fff"/><path d="M289.17 323.28c-10.5 26.39-15.81 55.42-15.81 86.3 0 19.7 2.16 38.67 6.47 56.68a133.6 133.6 0 0 1-9.36 3.34c-1.12.34-2.24.69-3.39 1.01-1.14.32-2.29.66-3.45.97a189.12 189.12 0 0 1-7.13 1.7c-1.4.3-2.8.58-4.2.82-1.06.23-2.12.41-3.19.58-1.2.23-2.39.4-3.6.59l-.3.05c-2.52.37-5.08.69-7.67.97-1.32.15-2.66.28-4 .41-2.68.24-5.4.41-8.17.56h-.03l-4.11.19h-.11c-2.79.08-5.62.13-8.5.13h-89.26v-96.87h77.14c.96 0 1.88 0 2.8-.03.94-.04 1.84-.09 2.74-.15.56-.04 1.1-.06 1.65-.13a58.42 58.42 0 0 0 10.5-1.84 45.89 45.89 0 0 0 5.8-2.07c.26-.12.53-.24.8-.38a33.77 33.77 0 0 0 6.57-4.05 32.2 32.2 0 0 0 2.86-2.62v-.03c.37-.37.73-.78 1.06-1.17.26-.29.5-.6.73-.9l.24-.33c.27-.34.53-.69.77-1.05l.04-.07a26.64 26.64 0 0 0 2.5-4.5c.33-.75.64-1.52.91-2.3 1.4-4 2.12-8.52 2.12-13.57a38.32 38.32 0 0 0-2.12-12.92 25.14 25.14 0 0 0-1.63-3.68l-.01-.01a23 23 0 0 0-1.34-2.25v-.02a19 19 0 0 0-1.16-1.6c-.39-.51-.78-1.02-1.23-1.49v-.03c-.22-.24-.43-.48-.67-.71-.22-.24-.45-.47-.7-.7-.49-.48-.96-.94-1.46-1.36h-.02c-.89-.75-1.84-1.48-2.84-2.13-7.04-4.69-16.75-7.11-28.91-7.11h-75.75v-96.9h87.86c1.41 0 2.81.03 4.19.04.62 0 1.22.01 1.83.04 1.04 0 2.09.05 3.13.08l1 .04 1.46.07c.1 0 .21 0 .34.02h.03a214.09 214.09 0 0 1 11.76.87h.01a123.9 123.9 0 0 1 4.06.44c30.51 3.71 55 13.8 73.06 30a75.87 75.87 0 0 1 4.57 4.34 84.4 84.4 0 0 1 4.3 4.63l2.02 2.41a86.59 86.59 0 0 1 3.35 4.32 196.68 196.68 0 0 0-38.54 61.38Z" style="fill:url(#d)"/><path d="M175.48 477.57h-32.44v-96.86h29.39l3.05 96.86z" style="fill:url(#e);mix-blend-mode:multiply"/><path d="M171.53 311.5h-27.09v-96.9l4.87.02 37.78.08h.14l35.53.1 1.46.08.34.01h.03a215.74 215.74 0 0 1 11.76.88h.01a.9.9 0 0 1 .19.01c-12.18 3.12-67.97 29.14-65.02 95.72Z" style="mix-blend-mode:multiply;fill:url(#f)"/><path d="M233.73 215.52a61 61 0 0 1 2.62.25l-.93.14-.63.1c-.95.14-1.92.32-2.86.5l-2.13.42-.06.02-.05.01c-.82.17-1.63.35-2.45.54-.78.18-1.55.36-2.33.56-.65.17-1.3.33-1.94.52a94.96 94.96 0 0 0-3.87 1.13c-.55.17-1.1.33-1.62.52a165.73 165.73 0 0 0-4.98 1.75l-.9.34-.67.26-.52.21-.8.32-1.02.42-.84.36-.94.41c-.6.26-1.18.53-1.75.8l-.99.45-.04.01-.2.1c-1.03.5-2.05 1-3.03 1.51l-.3.16-.14.08-.5.27-.12.06a.1.1 0 0 0-.06.03c-.94.5-1.88.98-2.79 1.52l-.32.19c-1.4.79-2.8 1.64-4.18 2.52-.46.28-.9.58-1.36.88-.11.09-.24.16-.36.23-.32.2-.66.43-.97.65-.12.1-.23.17-.36.26l-.1.07-.08.05-.09.06a36.71 36.71 0 0 0-1.33.92l-.52.38-.21.15a78.96 78.96 0 0 0-6.76 5.31l-1.62 1.4a90.5 90.5 0 0 0-9.18 9.25c-.32.35-.63.7-.91 1.06l-.62.74-.27.32a72.44 72.44 0 0 0-3.97 5.16l-.04.04-1.09 1.56-.24.35-.22.32c-.4.56-.78 1.12-1.12 1.7l-.02.03a35.4 35.4 0 0 0-1.3 2.1 86.54 86.54 0 0 0-6.63 13.14l-.01.05a32.5 32.5 0 0 0-.7 1.8c-.04.09-.08.18-.1.26l-.1.24-.2.56a50.56 50.56 0 0 0-1.31 3.86l-.2.6-.15.51a.85.85 0 0 0-.1.34c-.04.12-.09.23-.1.33-.11.33-.21.68-.3 1.03-.08.28-.17.58-.24.88a53.31 53.31 0 0 0-.93 3.75 63.3 63.3 0 0 0-1.04 5.52l-.17 1.12-.05.3a84.98 84.98 0 0 0-.87 12.23v237.03a78.88 78.88 0 0 1-.6 9.59 57.25 57.25 0 0 1-2.63 11.37 48.68 48.68 0 0 1-1.98 5.04l-.56 1.21c-.17.38-.35.73-.53 1.1v.02a40.7 40.7 0 0 1-2.02 3.49c-.5.78-1 1.54-1.52 2.3l-.01.06-.09.1v.03c-.04.05-.07.12-.13.18a29 29 0 0 1-.54.7c-.13.18-.28.35-.43.53l-.12.16v.01c0 .04-.02.05-.02.06-.02 0-.03.01-.05.03l-.1.12c0 .03-.02.05-.03.07l-.14.14v.02l-.54.67c-.16.19-.34.37-.5.58l-.2.23c-.04.06-.1.1-.14.17l-.21.25-.34.38-.12.15-.74.75-.04.05-.04.03a27.55 27.55 0 0 0-.99 1l-.6.57c-.28.27-.56.53-.85.78l-.03.04c-.29.27-.57.53-.88.78-.3.25-.6.5-.93.75-.22.19-.46.39-.7.55-.82.67-1.66 1.29-2.56 1.87v.01-.01a.23.23 0 0 0-.1.07c-.03.04-.07.05-.1.08a336.1 336.1 0 0 0-2.06 1.3h-.02c0 .03-.02.03-.04.03-.74.45-1.52.87-2.3 1.3h-.03l-1.2.63c-.4.21-.83.41-1.25.6h-.02c-.82.38-1.66.76-2.53 1.12h-.02c-1.75.7-3.53 1.35-5.4 1.9h-.02a35.96 35.96 0 0 1-2.27.63l-1.39.34c-.03.03-.06.03-.1.02-.58.16-1.16.28-1.74.42l-.28.05h-.02c-.63.12-1.26.24-1.89.34l-.06.02-1.85.3-1.26.17a51.58 51.58 0 0 1-3.41.37l-.26.01-.83.06c-.51.05-1 .09-1.51.11l-.15.02c-.97.04-1.96.08-2.94.1-.18 0-.34 0-.52.02-.89 0-2.05.01-2.93-.03-.6 0-1.21 0-1.8-.02-.72-.05-1.49-.06-2.22-.14-.37 0-.73-.03-1.1-.06-1.1-.09-2.16-.2-3.26-.3l-2.1-.3c-.04 0-.09 0-.13-.02-.59-.1-1.2-.18-1.78-.3a45.84 45.84 0 0 1-3.7-.74c-.62-.13-1.2-.28-1.8-.43-.82-.22-1.65-.45-2.45-.7a46.84 46.84 0 0 1-3.4-1.13l-1-.37-1.36-.55c-.1-.03-.2-.08-.28-.12-.55-.22-1.03-.43-1.55-.7h-.03l-.06-.02-.3-.12c-.76-.36-1.53-.75-2.29-1.15l-.74-.41c-.58-.32-1.15-.63-1.7-.97l-.06-.03-.02-.03a35.8 35.8 0 0 1-1.94-1.24 32.55 32.55 0 0 1-2.5-1.78l-1.17-.9a31.95 31.95 0 0 1-1.95-1.7c-.35-.3-.7-.62-1.03-.95l-.77-.74-.3-.31a44.5 44.5 0 0 1-2.62-2.93l-.9-1.14a13.6 13.6 0 0 1-.33-.44c-.18-.23-.35-.45-.5-.69-.3-.4-.6-.8-.87-1.22-.2-.3-.42-.61-.61-.93l-.93-1.49-.97-1.7-.44-.81c-.03-.07-.05-.15-.09-.21a41.88 41.88 0 0 1-1.7-3.68l-.14-.37a39.23 39.23 0 0 1-1.32-3.56l-.44-1.46-.4-1.47-.18-.64-.08-.27c-.08-.3-.16-.62-.22-.94-.03-.05-.03-.1-.05-.18l-.01-.1c-.04-.14-.08-.29-.1-.44a38.9 38.9 0 0 1-.62-3.23c-.1-.54-.17-1.09-.26-1.63-.17-1.2-.3-2.44-.4-3.69-.07-.54-.1-1.1-.14-1.66l-.07-1.26a66.9 66.9 0 0 1-.08-3.55l.08-254.5c0-.1 0-.27.02-.48l.03-.79c.03-.54.05-1.11.09-1.39l.02-.22.04-.33a109.25 109.25 0 0 0 .31-2.94c.19-1.25 1-5.79 1.34-7.5.02-.16.06-.3.1-.47.13-.6.27-1.17.43-1.74l.1-.37.26-.96c.4-1.43.84-2.84 1.33-4.24l.75-2.06c.23-.63.48-1.25.73-1.87l.3-.65c.13-.36.28-.7.43-1.07l.07-.17c.21-.47.42-.95.66-1.42a42.93 42.93 0 0 1 1.36-2.79c.03-.1.1-.2.16-.3.63-1.12 2.96-5.15 3.44-6l.08-.14a80.6 80.6 0 0 1 2-2.95c.32-.47.65-.91.98-1.36a103.49 103.49 0 0 1 6.13-7.46c.25-.29.52-.57.78-.85.45-.47.92-.94 1.39-1.4a29.29 29.29 0 0 1 1.32-1.32l.37-.36.29-.26a27.5 27.5 0 0 1 1.63-1.5l1.9-1.67.13-.1c.47-.4.94-.79 1.43-1.18l.91-.73a78.87 78.87 0 0 1 4.07-3.02 6.11 6.11 0 0 1 .48-.33l.44-.3c.24-.18.5-.34.74-.51l.18-.13a4.75 4.75 0 0 1 .62-.4c.38-.25.77-.51 1.18-.76l.26-.15.23-.15a78.64 78.64 0 0 1 4.4-2.6l1.39-.74c.55-.3 1.11-.58 1.68-.85l.41-.21.75-.39.73-.33a90.84 90.84 0 0 1 8.83-3.65l.73-.29a13.02 13.02 0 0 1 1.1-.37l.05-.02c.48-.16 4.16-1.33 6.05-1.81l.1-.01c.11-.05.24-.09.37-.13l.37-.1 4.84-1.1.65-.1c.13-.05.28-.08.42-.1l.7-.14h.02l.73-.13 1.02-.18c.34-.07.67-.11 1.02-.16.32-.07.65-.12.99-.15a90.71 90.71 0 0 1 9.5-.93 57.4 57.4 0 0 1 2.54-.1l.77-.01 94.08-.03c1.41 0 2.81.03 4.19.04.61 0 1.22.01 1.83.04 1.04 0 2.09.05 3.13.08l1 .04 1.46.07c.1 0 .21 0 .34.02h.03c3.1.14 6.14.35 9.14.63Z" class="an"/><path d="M233.73 215.52a61 61 0 0 1 2.62.25l-.93.14-.63.1a111.35 111.35 0 0 0-4.99.93h-.06l-.05.02c-.82.17-1.63.35-2.45.54-.78.18-1.55.36-2.33.56-.65.17-1.3.33-1.94.52a38.6 38.6 0 0 0-2.04.57l-1.05.31-.7.22a16.36 16.36 0 0 0-1.11.36l-.6.19-.88.3a165.73 165.73 0 0 0-1.49.5c-.87.3-1.75.61-2.6.94-.3.13-.6.24-.9.35l-.67.26-.52.21-.8.32c-.34.14-.69.27-1.02.42l-.46.19-.38.17-.94.41-1.75.8-.99.45-.03.01-.2.1c-1.04.5-2.06 1-3.03 1.51l-.3.16-.15.08-.5.27-.12.06a141.87 141.87 0 0 0-7.35 4.26c-.46.28-.9.58-1.36.88-.11.09-.24.16-.36.23l-1.32.9-.12.08c-.02.03-.05.04-.07.05l-.09.06a36.71 36.71 0 0 0-1.33.92l-.52.38-.21.15-.03.03-.75.57-1.1.8-1.1.84c-.1.09-.23.19-.35.27l-.37.29c-.7.56-1.38 1.1-2.05 1.67l-1.01.84-1.62 1.4-.8.7a109.36 109.36 0 0 0-8.4 8.54c-.3.36-.6.7-.89 1.07l-.62.74-.27.32c-.42.51-.84 1.03-1.24 1.56-.5.62-1 1.26-1.48 1.9-.42.56-.85 1.12-1.25 1.7l-.04.04-1.09 1.56-.23.35-.23.32c-.38.55-.75 1.12-1.12 1.7l-.01.03-1.07 1.7-.01.02-.9 1.49a31.28 31.28 0 0 0-.68 1.19 72.13 72.13 0 0 0-2.83 5.4 40 40 0 0 0-.8 1.65l-.6 1.32v.04c-.17.36-.32.73-.47 1.1l-.66 1.59c-.23.53-.44 1.06-.64 1.6l-.1.25-.08.24c-.08.18-.15.37-.21.55-.25.67-.49 1.35-.72 2.02a43.55 43.55 0 0 0-.78 2.44l-.16.52c-.04.11-.09.22-.1.33-.04.13-.09.24-.1.34-.11.33-.2.68-.3 1.03l-.24.87c-.13.45-.24.9-.35 1.34l-.4 1.66-.36 1.67a90 90 0 0 0-.73 3.81l-.08.46-.05.34-.17 1.12-.05.3-.16 1.23-.1.9c-.08.73-.13 1.45-.2 2.16 0 .08-.03.15-.03.23-.06.5-.1 1.01-.12 1.53-.05.46-.08.9-.08 1.36l-.05 1.05-.06 1.74-.02 2.03v237.03c0 1.1-.03 2.19-.09 3.25 0 .15-.02.3-.03.44l-.02.33c-.04.79-.07 1.59-.15 2.36-.02.35-.06.68-.1 1.02-.06.7-.13 1.36-.22 2.03a57.95 57.95 0 0 1-4.3 15.91c0 .05-.05.11-.08.16-.04.13-.1.24-.16.36a65.37 65.37 0 0 1-.48 1.04v.01c-.2.47-.44.95-.69 1.4v.05l-.65 1.14a34.33 34.33 0 0 1-.75 1.33l-.22.36c-.38.63-.77 1.25-1.16 1.84-.03 0-.03.02-.03.02-.07.13-.16.24-.23.36l-.21.3c-.1.14-.23.27-.33.4v.07l-.1.1v.03c-.03.05-.07.12-.13.18a29 29 0 0 1-.53.7l-.41.54c-.04.05-.06.09-.13.14h-.02v.02l-.01.06c-.03 0-.04.01-.05.02-.04.05-.06.1-.1.13l-.04.07-.13.14-.02.02-.53.67-.5.58-.2.23-.14.17-.21.25-.33.38c-.04.04-.1.09-.13.15l-.74.75h-.01a.43.43 0 0 1-.07.08 27.55 27.55 0 0 0-.99 1l-.35.37-.08.08a.7.7 0 0 1-.1.08l-.06.04-.85.78-.04.04c-.29.27-.57.53-.88.78-.3.24-.6.5-.93.75-.22.19-.46.39-.7.55-.82.66-1.66 1.28-2.55 1.87h-.01l-.1.07c-.03.04-.07.05-.1.07l-.9.6a14.07 14.07 0 0 1-1.16.7h-.02v.02c0 .02-.01.02-.04.02-.74.45-1.52.87-2.3 1.3h-.03v.02c-.4.22-.8.41-1.2.61-.4.21-.82.41-1.25.6h-.02v.02c-.82.38-1.66.74-2.53 1.1h-.02v.03c-1.75.7-3.53 1.33-5.4 1.88h-.02a35.96 35.96 0 0 1-2.27.62l-1.38.34c-.04.03-.06.03-.1.01-.58.17-1.16.29-1.75.43-.1 0-.18.03-.28.05h-.01c-.63.12-1.27.24-1.9.34l-.06.01c-.6.12-1.23.23-1.84.31-.07 0-.1.03-.16.03-.36.05-.72.1-1.1.13a51.58 51.58 0 0 1-3.42.38h-.26c-.29.03-.56.06-.83.07l-.84.06c-.23.03-.45.04-.67.05l-.15.01c-.96.05-1.95.09-2.93.1-.19 0-.35 0-.52.03l-.63.01h-.7l-2.09-.01h-.18c-.39-.03-.76-.04-1.13-.05-.26 0-.5-.03-.76-.03a83.13 83.13 0 0 1-4.03-.28l-1.8-.2-2.1-.3h-.12l-1.79-.3c-.61-.1-1.22-.22-1.81-.33-.64-.12-1.27-.27-1.89-.42-.61-.13-1.2-.28-1.8-.43-.82-.22-1.65-.45-2.45-.7-.35-.1-.7-.2-1.04-.32-.23-.07-.45-.13-.67-.22-.57-.19-1.13-.38-1.7-.6l-.99-.36c-.45-.19-.91-.38-1.36-.55l-.28-.12-1.55-.7.72-.34h.01c.7-.33 1.39-.67 2.04-1.03.34-.17.66-.36 1-.54l1.17-.68 1.02-.63c.32-.2.64-.4.95-.62l1.12-.76a40.56 40.56 0 0 0 2-1.46l.1-.05a33.76 33.76 0 0 0 2.73-2.33c.72-.64 1.4-1.3 2.04-1.99a22.48 22.48 0 0 0 1.98-2.17c.08-.07.15-.16.21-.23l.39-.46c.1-.12.2-.23.28-.36.42-.5.82-1.02 1.2-1.56a39.09 39.09 0 0 0 2.88-4.38 33.3 33.3 0 0 0 1.72-3.23c.14-.27.28-.54.4-.81.13-.29.26-.56.37-.85.76-1.7 1.44-3.47 2.02-5.32.16-.5.33-1 .46-1.53a45.58 45.58 0 0 0 .56-2.08c.18-.7.32-1.36.48-2.06l.09-.37c.27-1.17.47-2.37.64-3.59.1-.68.17-1.36.26-2.04v-.01c.33-2.76.5-5.6.5-8.55V310.07l.04-1.41.04-1.13.06-1.15a58.48 58.48 0 0 1 .26-3.33 46.64 46.64 0 0 1 .32-2.94 91.59 91.59 0 0 1 3.37-15.2l.48-1.48c.34-1 .68-1.97 1.04-2.95l1.15-2.9.5-1.18c0-.04.02-.09.05-.13.17-.43.37-.86.56-1.3.05-.07.08-.16.12-.26l.46-.96c.06-.15.12-.3.2-.43l.69-1.4a56.15 56.15 0 0 1 1.9-3.63c.64-1.2 1.33-2.37 2.05-3.55v-.01l.44-.7a119.04 119.04 0 0 1 3.91-5.78c.56-.79 1.14-1.57 1.76-2.33.32-.43.66-.83.98-1.24.43-.53.86-1.07 1.31-1.6a92.5 92.5 0 0 1 3.16-3.59 69.94 69.94 0 0 1 1.92-2.03l.97-.99 1-.96a95.73 95.73 0 0 1 8.42-7.34l.15-.13 1.74-1.33c.66-.47 1.3-.97 1.97-1.44.66-.44 1.33-.93 1.98-1.37.67-.46 1.35-.9 2.03-1.34a124.73 124.73 0 0 1 5.58-3.37c.03 0 .03-.02.04-.03a103.38 103.38 0 0 1 8.4-4.27c.12-.05.22-.11.34-.18a94.13 94.13 0 0 1 6.97-2.85l.52-.2a65 65 0 0 1 1.45-.53c.1-.04.2-.08.3-.1a111.99 111.99 0 0 1 14.62-4.07c.25-.06.5-.12.76-.15.54-.13 1.09-.23 1.63-.33 3.45-.65 6.96-1.15 10.52-1.48l1.77-.16h.07l1.79-.13.96-.06c.2 0 .37 0 .57-.03h23.85c1.41 0 2.8.02 4.18.03.62 0 1.23.02 1.83.04 1.04.01 2.1.05 3.14.09l1 .03 1.46.08h.37c3.1.16 6.14.37 9.13.64Z" style="fill:url(#g);mix-blend-mode:multiply"/><path d="M58.1 598.57h-.02c-18.62-8.56-29.3-26.13-29.3-50.05V297.25c0-45.62 41.02-82.63 91.62-82.63h68.37c-56.52 2.94-101.34 45.2-101.34 96.89v237.03c0 23.6-10.4 41.04-28.6 49.7l-.73.34Z" style="mix-blend-mode:overlay;opacity:.7;fill:url(#h)"/><path d="m236.55 215.78-1.29.2c-6.15.98-11.88 2.36-17.19 4.06l-.6.19-.88.3c-.5.16-10.44 3.63-12.52 5.02a1 1 0 0 1-.23.11c-1.04.5-2.06 1-3.03 1.51l-.3.16-.15.08c-.21.1-.4.22-.62.33a141.87 141.87 0 0 0-7.35 4.26l-1.36.88-.36.23-.96.65-.36.26-.12.07-.07.05-.09.06-.75.52-1.1.78-.21.15-.03.03a76.98 76.98 0 0 0-3.3 2.49l-.37.28-1.14.91c-.64.53-1.3 1.05-1.92 1.6l-1.62 1.4c-.26.23-.52.47-.8.7-.77.7-1.53 1.43-2.28 2.15a106.55 106.55 0 0 0-4.97 5.1 84.42 84.42 0 0 0-8.26 10.53l-.23.32-1.14 1.73-1.06 1.7-.01.02c-.08.13-.15.25-.24.37l-.65 1.12a31.28 31.28 0 0 0-.68 1.19 72.13 72.13 0 0 0-2.57 4.84 50.2 50.2 0 0 0-1.06 2.21l-.6 1.32-.02.04c-.04.06-.06.14-.1.21-.32.73-.63 1.47-.94 2.22l-.01.05-.08.2-.48 1.2-.15.4-.1.26-.3.8-.71 2.01a50.56 50.56 0 0 0-.78 2.44l-.16.52c-.04.11-.09.22-.1.33l-.1.34c-.11.33-.2.68-.3 1.03a66.69 66.69 0 0 0-.99 3.87l-.18.75a84.6 84.6 0 0 0-.9 4.73l-.03.1-.11.7-.17 1.12-.16 1.18-.05.35-.1.9c-.39 3.31-.59 6.7-.59 10.1v237.08a75.4 75.4 0 0 1-.63 9.54 57.25 57.25 0 0 1-2.62 11.37 48.68 48.68 0 0 1-1.98 5.04l-.56 1.21a51.81 51.81 0 0 1-4.07 6.91c-.38.54-.78 1.08-1.2 1.6l-.1.15h-.02v.02l-.07.09-.1.12c-.06.07-.1.15-.17.21l-.01.02c-.33.44-.68.85-1.04 1.25-.05.08-.12.15-.19.23-.05.06-.1.1-.14.17l-.21.25-1.2 1.28h-.02c0 .03 0 .04-.02.05l-.04.03a7.5 7.5 0 0 1-.74.76 2.4 2.4 0 0 1-.25.24c-.1.13-.23.24-.36.37l-.18.16-.05.04c-.3.29-.59.56-.9.82a47.4 47.4 0 0 1-3.87 3.12c-9.48 6.9-22.2 10.91-38.1 10.91-.93 0-1.81-.02-2.72-.06l.46-.01h.19c.16 0 .32 0 .48-.03 34.56-1.18 55.62-22.27 55.62-55.86V311.5a87.12 87.12 0 0 1 4.78-28.6c12.06-35.29 45.86-61.97 87.29-67.38a61 61 0 0 1 2.82.26Z" style="fill:url(#i);mix-blend-mode:screen;opacity:.7"/><path d="M654.4 288.17v242.81c-18.42 24.9-43.06 44.47-72.54 57.46-26.23 11.58-56.29 17.9-89.22 18.1a47.69 47.69 0 0 0-1.62-95.35c55.63 0 94.23-41.46 94.23-101.62s-38.6-101.61-94.23-101.61c-53.9 0-91.81 38.9-94.14 96.04 2.95-96.3 81.9-173.43 178.9-173.43 2.04 0 4.06.04 6.08.13 29.5 12.98 54.12 32.58 72.55 57.47Z" style="fill:url(#j)"/><path d="M581.86 230.7s-72.55 10.66-98.8 77.56c-49.66 3.65-83.96 41.45-86.17 95.73 2.94-96.29 81.9-173.42 178.9-173.42 2.03 0 4.05.04 6.07.13Z" style="fill:url(#k);mix-blend-mode:multiply"/><path d="M396.85 405.71a115.72 115.72 0 0 0 0 7.73c-.03.58 0 1.16.04 1.71 2.32 57.14 40.23 96.04 94.12 96.04a47.68 47.68 0 0 1 1.63 95.34c-.53.03-1.09.03-1.63.03-119.2 0-200.95-80.05-200.95-196.99S371.81 212.6 491.01 212.6c33.58 0 64.2 6.35 90.85 18.11-2.02-.09-4.04-.13-6.08-.13-97 0-175.95 77.13-178.9 173.42-.03.56-.06 1.14-.03 1.72Z" class="an"/><path d="M581.86 230.7h-.22a187.53 187.53 0 0 0-48.53-6.33c-104.13 0-188.55 84.4-188.55 188.53 0 97.8 74.43 178.17 169.71 187.63a47.34 47.34 0 0 1-21.63 6c-.53.03-1.1.03-1.63.03-119.2 0-200.95-80.05-200.95-196.99S371.81 212.6 491.01 212.6c33.58 0 64.2 6.35 90.84 18.11Z" style="fill:url(#l);mix-blend-mode:overlay;opacity:.7"/><path d="M396.46 406a115.72 115.72 0 0 0 0 7.72c-.02.58 0 1.16.05 1.71 2.31 57.14 40.23 96.04 94.12 96.04a47.68 47.68 0 0 1 41.02 71.98 48.05 48.05 0 0 1-17.76 17.36h-.02c-95.29-9.48-169.7-89.83-169.7-187.63 0-104.12 84.43-188.53 188.56-188.53 16.75 0 33.04 2.2 48.49 6.33-1.93-.08-3.87-.13-5.82-.13-97 0-175.95 77.14-178.9 173.43-.04.56-.06 1.14-.04 1.72Z" style="fill:url(#m);mix-blend-mode:multiply"/><path d="M396.83 405.7a115.68 115.68 0 0 0 0 7.73c-.02.57 0 1.15.04 1.71 2.32 57.14 40.23 96.04 94.12 96.04a47.68 47.68 0 0 1 1.64 95.34c-.54.03-1.1.03-1.64.03-1.18 0-2.36 0-3.51-.05a47.63 47.63 0 0 0 45.7-47.65 47.68 47.68 0 0 0-47.68-47.67c-53.9 0-91.8-38.9-94.12-96.04-.05-.56-.07-1.13-.05-1.71a115.68 115.68 0 0 1 0-7.73c-.02-.58 0-1.16.05-1.71 2.94-96.3 81.9-173.43 178.9-173.43.91 0 1.84 0 2.76.04-95.76 1.42-173.25 78-176.17 173.39-.04.55-.07 1.13-.04 1.71Z" style="fill:url(#n);mix-blend-mode:screen;opacity:.7"/><path d="M993.36 345.5c0 41.61-11.37 73.92-33.32 96.14a97.75 97.75 0 0 1-11.82 10.25 108.33 108.33 0 0 1-10.72 7c-3.74 2.12-7.67 4.1-11.78 5.9h-.02a145.49 145.49 0 0 1-12.88 4.79c-1.13.34-2.24.69-3.4 1.01-1.13.32-2.29.66-3.45.97a189.12 189.12 0 0 1-7.13 1.7c-1.4.29-2.8.57-4.2.82-1.06.23-2.12.41-3.19.58-1.2.23-2.39.4-3.6.59l-.3.04c-2.52.38-5.08.7-7.67.98-1.32.15-2.66.28-4 .41-2.68.24-5.4.41-8.16.56h-.04c-1.35.07-2.71.12-4.11.18h-.11c-2.79.1-5.62.14-8.5.14H765.7V380.7h77.14c.96 0 1.88-.01 2.8-.03a95 95 0 0 0 2.74-.15c.56-.04 1.1-.07 1.65-.13a58.42 58.42 0 0 0 10.5-1.84 45.88 45.88 0 0 0 5.8-2.07l.8-.38a33.98 33.98 0 0 0 3.32-1.77 30.1 30.1 0 0 0 6.11-4.9v-.03c.37-.37.73-.78 1.06-1.17.26-.29.5-.6.73-.9l.24-.33c.27-.35.53-.7.77-1.05l.04-.07a26.64 26.64 0 0 0 2.5-4.5c.33-.75.64-1.52.91-2.31 1.4-4 2.12-8.52 2.12-13.57a38.33 38.33 0 0 0-2.12-12.92 25.52 25.52 0 0 0-1.63-3.68h-.01c-.4-.79-.86-1.53-1.34-2.26v-.01a19 19 0 0 0-1.16-1.6c-.39-.52-.78-1.02-1.23-1.5v-.02a18.78 18.78 0 0 0-1.37-1.42c-.49-.47-.96-.93-1.46-1.35h-.02c-.89-.76-1.84-1.49-2.84-2.13-7.04-4.7-16.75-7.12-28.91-7.12h-75.75V214.6h87.86c1.41 0 2.81.02 4.19.04l1.83.03c1.04.02 2.09.05 3.13.09l1 .04 1.46.07.34.01h.03a215.74 215.74 0 0 1 11.76.88h.01a123.9 123.9 0 0 1 4.06.45c30.51 3.7 55 13.78 73.06 29.98a75.87 75.87 0 0 1 4.57 4.35 84.33 84.33 0 0 1 4.3 4.63l2.02 2.41c1.66 2 3.22 4.08 4.68 6.23a98.56 98.56 0 0 1 6.2 10.1 115.45 115.45 0 0 1 5.4 11.51l1.1 2.88a95.02 95.02 0 0 1 2.04 5.92 108.26 108.26 0 0 1 1.75 5.96 115.5 115.5 0 0 1 1.51 6.2 115 115 0 0 1 1.2 6.1c.15.66.24 1.35.36 2.03.26 1.48.47 2.94.66 4.42.14.86.24 1.71.35 2.58.06.55.12 1.14.2 1.7.04.43.1.85.13 1.28.1.87.18 1.72.25 2.59.11 1.2.23 2.39.29 3.59.1 1.02.15 2.06.2 3.09.07 1.29.14 2.57.18 3.86.09 2.59.15 5.22.15 7.89Z" style="fill:url(#o)"/><path d="M817.83 477.56h-32.44v-96.87h29.38l3.06 96.87z" style="fill:url(#p);mix-blend-mode:multiply"/><path d="M813.87 311.48h-27.08v-96.9l4.86.02 37.79.09h.13l35.53.1 1.46.07.34.01h.04a215.74 215.74 0 0 1 11.75.88h.02a.9.9 0 0 1 .18.01c-12.18 3.12-67.96 29.14-65.02 95.72Z" style="fill:url(#q);mix-blend-mode:multiply"/><path d="M876.07 215.5a61 61 0 0 1 2.62.25l-.93.14-.63.1c-.95.15-1.91.32-2.86.5l-2.12.43-.07.01-.05.01c-.81.17-1.63.35-2.45.55-.78.17-1.54.35-2.32.55l-1.95.52a94.96 94.96 0 0 0-3.87 1.13c-.54.17-1.09.33-1.62.52l-.9.3a165.73 165.73 0 0 0-4.08 1.45l-.9.34-.67.26c-.17.08-.34.14-.52.21l-.8.32-1.02.43-.84.35-.94.41c-.6.26-1.18.54-1.75.8l-.99.45s0 .02-.03.02l-.2.1c-1.04.5-2.05 1-3.03 1.5l-.3.16-.15.08c-.16.09-.33.19-.5.27l-.12.06a.1.1 0 0 0-.06.03c-.94.5-1.88.98-2.78 1.52l-.33.19c-1.4.79-2.8 1.64-4.18 2.52l-1.36.88c-.11.09-.23.16-.36.24-.32.2-.66.42-.96.64l-.36.26-.11.07-.08.05-.09.07a36.71 36.71 0 0 0-1.33.91l-.52.39-.21.15a78.96 78.96 0 0 0-6.76 5.3l-1.62 1.4a90.5 90.5 0 0 0-9.18 9.25c-.31.36-.62.7-.9 1.06l-.63.74c-.08.12-.18.21-.27.33a72.44 72.44 0 0 0-3.97 5.16l-.04.03-1.09 1.56-.23.35-.23.32c-.4.56-.78 1.13-1.12 1.7l-.01.03a35.4 35.4 0 0 0-1.32 2.1 86.54 86.54 0 0 0-6.62 13.14v.05a32.5 32.5 0 0 0-.71 1.8c-.04.1-.08.18-.1.26l-.09.24c-.07.19-.15.37-.21.56-.25.67-.48 1.35-.72 2.02-.21.61-.4 1.22-.6 1.84l-.18.6-.16.51a.85.85 0 0 0-.1.34c-.04.12-.09.23-.1.33l-.3 1.03c-.08.28-.17.58-.24.88a53.31 53.31 0 0 0-.93 3.75 63.3 63.3 0 0 0-1.04 5.52l-.17 1.12-.05.3a84.98 84.98 0 0 0-.87 12.23v237.03a78.88 78.88 0 0 1-.6 9.6 57.25 57.25 0 0 1-2.63 11.37 48.68 48.68 0 0 1-1.98 5.03l-.56 1.22a40.7 40.7 0 0 1-2.55 4.6c-.49.78-1 1.55-1.52 2.3v.06l-.1.1v.03c-.03.05-.07.12-.13.18a29 29 0 0 1-.53.7l-.44.53-.12.16v.01l-.01.06c-.03 0-.04.02-.05.03l-.1.12-.04.08-.14.13v.03l-.54.66-.5.59-.2.22-.14.17-.21.25-.34.38-.12.15c-.26.25-.5.51-.74.76-.01 0-.03.02-.04.05l-.04.02a27.55 27.55 0 0 0-.99 1l-.59.57c-.29.28-.57.54-.85.78l-.04.04c-.29.27-.57.53-.88.78l-.93.76c-.22.18-.46.38-.7.54-.82.67-1.66 1.29-2.55 1.87l-.02.01v-.01a.23.23 0 0 0-.08.07l-.11.08a336.1 336.1 0 0 0-2.06 1.3h-.02v.01c0 .02-.01.02-.04.02-.74.45-1.52.87-2.3 1.3h-.03l-1.2.63c-.4.22-.83.41-1.25.61h-.02c-.82.37-1.66.76-2.53 1.11h-.02c-1.75.71-3.53 1.35-5.4 1.91h-.02a35.96 35.96 0 0 1-2.27.62l-1.38.35c-.04.02-.07.02-.1 0-.58.17-1.17.3-1.75.43l-.28.05H746c-.64.12-1.27.25-1.9.35h-.06c-.62.12-1.23.22-1.84.3l-1.27.18a51.58 51.58 0 0 1-3.41.37l-.26.01-.83.06c-.5.05-1 .09-1.51.11l-.15.02c-.96.05-1.96.08-2.93.1-.19 0-.35 0-.52.02-.9 0-2.06.01-2.94-.02l-1.8-.03c-.72-.05-1.49-.06-2.22-.13l-1.1-.07c-1.09-.08-2.15-.2-3.25-.3l-2.1-.3-.13-.01c-.6-.1-1.2-.19-1.78-.3l-1.82-.32c-.63-.13-1.27-.28-1.88-.42-.62-.14-1.2-.29-1.81-.44-.82-.22-1.65-.44-2.45-.69a46.84 46.84 0 0 1-3.4-1.14l-1-.37c-.45-.19-.91-.37-1.36-.54l-.28-.13c-.55-.22-1.03-.43-1.55-.7h-.02l-.07-.02-.3-.12c-.76-.36-1.53-.74-2.28-1.15l-.74-.4c-.59-.33-1.16-.64-1.7-.97l-.06-.04-.03-.03c-.1-.06-.22-.12-.32-.2a35.8 35.8 0 0 1-1.62-1.03l-1.02-.7c-.5-.34-1-.72-1.48-1.09l-1.16-.9a31.95 31.95 0 0 1-1.96-1.7c-.35-.3-.7-.61-1.03-.95-.26-.23-.5-.48-.76-.74l-.3-.3a44.5 44.5 0 0 1-2.63-2.94l-.9-1.14a13.6 13.6 0 0 1-.33-.43c-.18-.24-.35-.46-.5-.7-.3-.4-.6-.8-.86-1.22-.21-.3-.42-.6-.62-.93l-.93-1.49-.97-1.7c-.14-.28-.3-.54-.44-.8-.03-.08-.05-.16-.09-.22a41.88 41.88 0 0 1-1.7-3.67l-.14-.38a39.23 39.23 0 0 1-1.31-3.56c-.15-.48-.31-.96-.45-1.46l-.4-1.47-.18-.63-.08-.28c-.08-.3-.16-.61-.22-.94l-.05-.18-.01-.09-.1-.45a38.9 38.9 0 0 1-.62-3.23c-.1-.54-.17-1.08-.26-1.63-.17-1.2-.3-2.44-.4-3.69-.07-.54-.1-1.1-.14-1.66l-.06-1.26a66.9 66.9 0 0 1-.1-3.55l.1-254.5v-.48c0-.26.03-.53.04-.79.03-.54.05-1.11.1-1.38 0-.05 0-.13.02-.23 0-.1 0-.22.03-.33a109.25 109.25 0 0 0 .31-2.93c.19-1.25 1-5.8 1.34-7.52.02-.15.06-.3.1-.45.13-.6.27-1.18.43-1.75l.11-.37.25-.95c.4-1.44.84-2.85 1.34-4.25.24-.7.49-1.37.74-2.05.23-.64.48-1.25.73-1.87l.3-.66c.13-.36.28-.7.43-1.06l.07-.18c.21-.47.42-.95.66-1.42a42.93 42.93 0 0 1 1.36-2.78c.04-.11.1-.21.16-.31.63-1.12 2.96-5.15 3.44-6 .03-.04.05-.1.09-.14a80.6 80.6 0 0 1 1.99-2.95c.32-.47.66-.91.98-1.36a103.49 103.49 0 0 1 6.14-7.46c.24-.29.52-.57.78-.84.44-.47.91-.94 1.38-1.4a29.29 29.29 0 0 1 1.33-1.33l.37-.35a27.5 27.5 0 0 1 1.92-1.76c.61-.56 1.25-1.12 1.89-1.67l.14-.11 1.42-1.18.91-.73a78.87 78.87 0 0 1 4.08-3.02 6.11 6.11 0 0 1 .48-.33l.43-.29c.24-.19.5-.35.74-.52l.18-.12.1-.07c.18-.13.32-.23.52-.34l1.18-.76.26-.15.23-.15a78.64 78.64 0 0 1 4.4-2.6l1.39-.74c.56-.3 1.11-.58 1.68-.85l.41-.21.76-.38a90.84 90.84 0 0 1 9.56-3.99l.72-.29a13.02 13.02 0 0 1 1.1-.37s.03 0 .05-.02c.49-.16 4.16-1.33 6.05-1.8.04-.02.07-.02.1-.02.11-.05.24-.09.38-.13l.37-.1 4.84-1.1.64-.1c.14-.04.28-.08.42-.1l.7-.14h.02l.73-.13 1.03-.18 1.01-.16c.32-.06.66-.11 1-.15a90.71 90.71 0 0 1 9.5-.93 57.4 57.4 0 0 1 2.53-.1l.77-.01 94.08-.03c1.42 0 2.81.03 4.19.04.62 0 1.22.01 1.83.04 1.04.01 2.1.05 3.13.08l1 .04 1.46.08h.38c3.09.16 6.13.37 9.13.64Z" class="an"/><path d="M876.07 215.5a61 61 0 0 1 2.62.25l-.93.14-.63.1a111.35 111.35 0 0 0-4.99.93l-.06.01-.05.01c-.81.17-1.63.35-2.45.55-.78.17-1.54.35-2.32.55l-1.95.52a38.6 38.6 0 0 0-2.04.57l-1.05.31-.7.23a16.36 16.36 0 0 0-1.11.36l-.6.18-.88.3a165.73 165.73 0 0 0-1.49.5c-.86.3-1.74.61-2.6.95l-.9.34-.67.26c-.17.08-.34.14-.52.21l-.8.32-1.02.43-.45.18-.39.17-.94.41-1.75.8-.99.45s0 .02-.03.02l-.2.1c-1.04.5-2.05 1-3.03 1.5-.1.05-.2.1-.3.17l-.15.07c-.16.09-.33.19-.5.27l-.12.06a141.87 141.87 0 0 0-7.35 4.26l-1.36.88c-.11.09-.23.16-.36.24l-1.32.9-.11.07-.08.05-.08.07a36.71 36.71 0 0 0-1.34.91l-.52.39-.21.14-.03.03c-.24.2-.5.38-.75.57l-1.1.8-1.1.84-.35.28-.37.28c-.7.56-1.38 1.1-2.04 1.67l-1.02.84-1.62 1.4-.8.7a109.36 109.36 0 0 0-8.4 8.54l-.89 1.07-.62.74-.27.32c-.42.51-.84 1.03-1.24 1.56-.5.62-1 1.26-1.47 1.9-.43.56-.86 1.12-1.26 1.7l-.04.04-1.09 1.56-.23.35a80.38 80.38 0 0 0-1.35 2.02l-.01.03-1.07 1.7v.02l-.9 1.49a31.28 31.28 0 0 0-.68 1.19 72.13 72.13 0 0 0-2.84 5.4 40 40 0 0 0-.8 1.66l-.6 1.31v.04c-.17.36-.32.73-.46 1.1l-.67 1.59c-.23.53-.44 1.06-.63 1.6-.04.08-.08.17-.1.25l-.09.24c-.07.19-.15.37-.21.56-.25.67-.48 1.35-.72 2.02a43.55 43.55 0 0 0-.78 2.43l-.16.52c-.04.11-.09.23-.1.34-.04.12-.09.23-.1.33l-.3 1.03c-.08.28-.17.58-.24.88-.13.44-.24.89-.35 1.33l-.4 1.66c-.13.56-.24 1.12-.35 1.67a90 90 0 0 0-.73 3.81l-.08.46-.06.34-.17 1.12-.05.3-.16 1.23-.1.91c-.08.72-.13 1.44-.2 2.15 0 .08-.03.15-.03.23-.06.5-.1 1.01-.12 1.53-.05.46-.07.9-.07 1.36-.03.35-.04.7-.05 1.06l-.06 1.73c-.02.68-.03 1.35-.03 2.03v237.03c0 1.1-.03 2.19-.09 3.25l-.02.44-.03.33c-.03.8-.07 1.59-.15 2.37a50.4 50.4 0 0 1-.32 3.04 57.95 57.95 0 0 1-4.3 15.91c0 .05-.04.12-.08.17-.04.12-.1.23-.16.35l-.01.04-.47 1v.02c-.2.47-.44.94-.68 1.4l-.02.05c-.2.38-.43.76-.64 1.13a34.33 34.33 0 0 1-.74 1.33c-.1.12-.15.25-.23.36-.38.63-.76 1.25-1.16 1.84-.03 0-.03.03-.03.03-.07.12-.16.23-.23.36l-.21.3-.32.4-.01.06c-.03.04-.05.07-.1.1v.03c-.03.05-.07.12-.13.18a29 29 0 0 1-.53.7l-.4.54-.13.14h-.03v.02l-.01.06c-.02 0-.04.02-.05.03l-.1.12-.04.08c-.03.05-.1.1-.13.13l-.01.03-.54.66-.5.59-.19.22-.15.17-.2.25-.34.38-.13.15c-.26.25-.5.5-.74.76h-.01a.43.43 0 0 1-.06.07 27.55 27.55 0 0 0-.99 1c-.11.13-.24.24-.36.37l-.08.08a.7.7 0 0 1-.1.08c-.02.02-.04.04-.06.04l-.85.78-.04.04c-.28.27-.57.53-.88.78l-.92.75c-.23.19-.46.39-.71.55-.82.67-1.66 1.29-2.55 1.87l-.01.01-.09.06-.11.08-.9.59a14.07 14.07 0 0 1-1.15.7h-.03v.02c0 .02-.01.02-.04.02-.74.45-1.52.87-2.3 1.3h-.02v.03l-1.2.6c-.41.21-.83.41-1.25.6h-.03v.02c-.81.38-1.66.74-2.52 1.1h-.03v.03c-1.74.7-3.52 1.33-5.4 1.88h-.02a35.96 35.96 0 0 1-2.26.62l-1.39.34c-.04.03-.06.03-.1.02-.58.16-1.16.28-1.74.42l-.29.05H746c-.63.12-1.26.24-1.9.34l-.06.02c-.6.1-1.22.22-1.84.3-.06 0-.1.03-.16.03l-1.1.14a51.58 51.58 0 0 1-3.42.37l-.26.01-.83.06-.84.06c-.22.03-.44.04-.67.05l-.15.02c-.96.04-1.95.08-2.93.1-.19 0-.35 0-.52.02l-.63.01h-.7l-2.09-.01h-.18c-.39-.03-.76-.04-1.13-.05-.26 0-.5-.03-.75-.03a83.13 83.13 0 0 1-4.04-.28l-1.8-.2c-.69-.1-1.4-.18-2.1-.3h-.12l-1.78-.3a45.84 45.84 0 0 1-3.7-.74c-.62-.14-1.2-.3-1.81-.44-.82-.22-1.65-.45-2.45-.7l-1.04-.31c-.22-.08-.44-.14-.67-.23-.57-.18-1.12-.38-1.7-.6l-.98-.36-1.36-.55c-.1-.03-.2-.08-.29-.12l-1.55-.7.72-.34h.01c.7-.32 1.39-.67 2.05-1.03l.99-.54 1.17-.68c.35-.2.68-.42 1.02-.63.32-.2.64-.4.96-.62l1.12-.76a40.56 40.56 0 0 0 2-1.46c.03 0 .06-.03.09-.05a33.76 33.76 0 0 0 2.73-2.33c.72-.64 1.4-1.3 2.05-1.99.23-.23.48-.48.7-.73a22.48 22.48 0 0 0 1.28-1.43c.07-.08.15-.16.2-.24.13-.15.27-.3.39-.46.1-.12.2-.23.29-.36.42-.5.81-1.02 1.2-1.55a39.09 39.09 0 0 0 2.88-4.38l.89-1.6c.29-.53.57-1.08.83-1.64l.4-.81c.12-.29.26-.56.37-.84.75-1.71 1.43-3.48 2.01-5.33.16-.5.34-1 .46-1.53a45.58 45.58 0 0 0 .56-2.08c.18-.7.32-1.36.48-2.05l.09-.38c.27-1.17.47-2.37.64-3.58.1-.68.18-1.37.26-2.05.34-2.77.5-5.62.5-8.56V310.05l.05-1.4c0-.38.02-.76.03-1.13.02-.39.03-.77.07-1.16a58.48 58.48 0 0 1 .26-3.33 46.64 46.64 0 0 1 .32-2.94 91.59 91.59 0 0 1 3.36-15.2l.49-1.48c.33-1 .68-1.97 1.04-2.95.37-.96.75-1.93 1.15-2.9l.5-1.18c0-.04.02-.09.04-.12l.56-1.3c.05-.08.09-.16.12-.26l.46-.97c.06-.15.13-.3.21-.43l.68-1.4a56.15 56.15 0 0 1 1.9-3.63c.64-1.2 1.33-2.37 2.05-3.55v-.01l.44-.7a119.04 119.04 0 0 1 3.92-5.77c.55-.8 1.13-1.58 1.75-2.34l.98-1.24 1.31-1.6a92.5 92.5 0 0 1 3.16-3.59c.01-.02.02-.05.06-.07.6-.67 1.23-1.31 1.86-1.96l.98-.99.99-.96a95.73 95.73 0 0 1 8.42-7.34l.15-.12c.58-.45 1.15-.9 1.75-1.34.65-.47 1.3-.97 1.97-1.44.65-.44 1.32-.93 1.98-1.37a124.73 124.73 0 0 1 7.61-4.7c.02 0 .02-.03.03-.04a103.38 103.38 0 0 1 8.4-4.27l.34-.17a94.13 94.13 0 0 1 6.97-2.86l.52-.2a65 65 0 0 1 1.45-.53c.1-.04.2-.08.3-.1a111.99 111.99 0 0 1 14.62-4.07c.25-.05.5-.11.76-.15a112.54 112.54 0 0 1 12.15-1.8c.59-.07 1.18-.12 1.77-.17h.08l1.78-.12.96-.07c.2 0 .38 0 .57-.03h23.85c1.41 0 2.81.02 4.19.03.61 0 1.22.02 1.83.04 1.04.01 2.09.05 3.13.09l1 .03 1.46.08.34.01h.03c3.1.15 6.14.36 9.14.63Z" style="fill:url(#r);mix-blend-mode:multiply"/><path d="M700.45 598.55h-.03c-18.61-8.56-29.3-26.13-29.3-50.04V297.22c0-45.62 41.03-82.63 91.62-82.63h68.37c-56.52 2.94-101.34 45.2-101.34 96.89V548.5c0 23.6-10.4 41.04-28.6 49.7l-.73.34Z" style="fill:url(#s);mix-blend-mode:overlay;opacity:.7"/><path d="m878.89 215.76-1.29.2c-6.15.98-11.88 2.37-17.19 4.06l-.6.19-.88.3c-.5.16-10.44 3.64-12.52 5.02a1 1 0 0 1-.23.11c-1.04.5-2.05 1-3.03 1.51l-.3.16-.15.08-.62.33a141.87 141.87 0 0 0-7.35 4.26c-.46.3-.9.6-1.36.88-.11.08-.23.16-.36.23-.32.23-.64.44-.96.65l-.36.26-.11.07-.08.05-.08.06-.76.52-1.1.78-.21.15-.03.03a76.98 76.98 0 0 0-3.3 2.49l-.37.28-1.14.92c-.64.53-1.29 1.04-1.92 1.6l-1.62 1.4-.8.7a106.55 106.55 0 0 0-7.25 7.24 84.42 84.42 0 0 0-8.26 10.53l-.22.32c-.39.57-.77 1.15-1.14 1.73l-1.07 1.7-.01.02c-.07.13-.15.25-.24.38l-.65 1.11a31.28 31.28 0 0 0-.68 1.19 72.13 72.13 0 0 0-2.56 4.84 50.2 50.2 0 0 0-1.07 2.21c-.2.44-.41.88-.6 1.33l-.02.03-.1.21c-.32.73-.63 1.48-.94 2.22v.05c-.03.07-.07.13-.08.2-.18.4-.33.8-.49 1.2l-.14.4c-.04.1-.08.18-.1.26l-.3.8c-.25.66-.48 1.35-.72 2.01a50.56 50.56 0 0 0-.78 2.44l-.16.52c-.04.11-.09.23-.1.34l-.1.33-.3 1.03a66.69 66.69 0 0 0-.98 3.87l-.19.76a84.6 84.6 0 0 0-.9 4.72l-.03.1c-.03.24-.08.46-.1.7-.07.37-.12.75-.18 1.12l-.16 1.18-.05.35-.1.91c-.39 3.3-.58 6.68-.58 10.09v237.08a75.4 75.4 0 0 1-.63 9.54 57.25 57.25 0 0 1-2.63 11.38 48.68 48.68 0 0 1-1.98 5.03l-.56 1.22a51.81 51.81 0 0 1-4.07 6.9c-.38.55-.78 1.08-1.2 1.6-.02.05-.06.1-.1.15l-.02.01v.01l-.06.09-.1.12c-.07.08-.11.15-.18.21v.03c-.34.43-.69.84-1.05 1.25l-.18.22-.15.17-.21.25-1.2 1.29h-.01c0 .02-.02.03-.03.05s-.04.02-.04.02a7.5 7.5 0 0 1-.74.76 2.4 2.4 0 0 1-.25.24c-.1.13-.23.24-.36.38-.06.03-.12.1-.18.16l-.05.03c-.3.29-.58.56-.9.82a47.4 47.4 0 0 1-3.87 3.12c-9.48 6.9-22.2 10.92-38.1 10.92-.93 0-1.81-.03-2.71-.07h.65c.15 0 .31 0 .47-.03 34.56-1.2 55.62-22.28 55.62-55.87V311.49a87.12 87.12 0 0 1 4.78-28.6c12.07-35.29 45.87-61.97 87.29-67.38a61 61 0 0 1 2.82.26Z" style="mix-blend-mode:screen;fill:url(#t);opacity:.7"/><path d="M329.95 147.14c-11.28 15.96-33 27.03-60.46 27.03-44.49 0-75.14-30.01-75.14-73.86S225 26.44 269.49 26.44c24.7 0 44.7 8.73 57.9 24.48a19.88 19.88 0 0 1 4.47 12.77c0 11.07-7.87 18.95-18.94 18.95-6.81 0-12.35-2.77-16.18-7.45-6.17-8.09-14.9-12.99-27.03-12.99-20.87 0-35.34 15.54-35.34 38.1s14.47 38.11 35.34 38.11c12.98 0 22.13-5.32 28.52-14.26 3.62-5.1 9.37-8.3 16.4-8.3 11.49 0 18.94 7.88 18.94 18.94 0 4.47-1.07 8.52-3.62 12.35ZM483.38 95.41v56.63c0 12.98-7.45 20.86-19.58 20.86s-19.58-7.88-19.58-20.86v-18.95h-57.9v19.37c0 12.78-7.24 20.44-19.16 20.44S348 165.23 348 152.46V95.41c0-43.85 24.7-68.97 67.7-68.97s67.69 25.12 67.69 68.97Zm-39.16-1.7c0-20.43-10.22-31.5-28.95-31.5s-28.95 11.06-28.95 31.5v6.17h57.9v-6.17ZM567.91 82.22c43.22.42 59.82 14.47 59.82 43.2 0 31.72-22.35 48.75-64.07 48.75-25.33 0-44.7-6.17-57.7-18.3-3.61-3.2-5.95-8.1-5.95-14.05 0-10.43 7.02-17.88 17.24-17.88 6.17 0 10.22 2.34 13.84 5.1 9.36 7.67 20.43 11.08 34.7 11.08 15.75 0 22.99-4.05 22.99-12.78 0-6.38-5.96-9.57-27.47-9.79-42.78-.42-59.17-14.05-59.17-42.36 0-30.23 24.26-48.75 63.65-48.75 18.73 0 34.05 4.05 46.83 12.35 5.53 3.62 8.94 9.15 8.94 16.6 0 10.43-7.03 17.89-17.25 17.89-5.53 0-9.57-2.35-13.2-4.69-8.72-5.53-17.88-8.09-28.52-8.09-13.41 0-21.5 4.69-21.5 12.35 0 5.96 6.17 9.15 26.82 9.37ZM782.4 48.58v103.46c0 12.98-7.45 20.86-19.58 20.86s-19.59-7.88-19.59-20.86v-34.28h-57.9v34.28c0 12.98-7.45 20.86-19.58 20.86s-19.58-7.88-19.58-20.86V48.58c0-12.98 7.45-20.86 19.58-20.86s19.58 7.88 19.58 20.86V82h57.9V48.58c0-12.98 7.45-20.86 19.59-20.86s19.58 7.88 19.58 20.86Z" class="an"/></g></g></g></svg>