<svg xmlns="http://www.w3.org/2000/svg" xmlns:xlink="http://www.w3.org/1999/xlink" id="b" viewBox="0 0 272.17 217.22"><defs><linearGradient id="d" x1="116.86" x2="121.97" y1="93.3" y2="93.3" gradientUnits="userSpaceOnUse"><stop offset=".18" stop-color="#f7ea5f"/><stop offset=".65" stop-color="#fddd00"/></linearGradient><linearGradient xlink:href="#d" id="e" x1="105.01" x2="112.71" y1="65.13" y2="65.13"/><linearGradient xlink:href="#d" id="f" x1="84.91" x2="92.93" y1="94.92" y2="94.92"/><linearGradient xlink:href="#d" id="g" x1="20.34" x2="55.08" y1="64.19" y2="64.19"/><linearGradient id="h" x1="241.16" x2="241.16" y1="75.2" y2="103.46" gradientUnits="userSpaceOnUse"><stop offset=".26" stop-color="#f7ea5f"/><stop offset=".65" stop-color="#fddd00"/></linearGradient><linearGradient xlink:href="#d" id="i" x1="225.21" x2="237.88" y1="47.34" y2="47.34"/><linearGradient xlink:href="#d" id="j" x1="194.06" x2="208.76" y1="64.35" y2="64.35"/><linearGradient xlink:href="#d" id="k" x1="53.66" x2="72.59" y1="53.61" y2="53.61"/><linearGradient xlink:href="#d" id="l" x1="96.2" x2="106.24" y1="65.34" y2="65.34"/><linearGradient xlink:href="#d" id="m" x1="238.49" x2="266.51" y1="105.32" y2="105.32"/><linearGradient xlink:href="#d" id="n" x1="214.62" x2="242.45" y1="74.33" y2="74.33"/><linearGradient xlink:href="#d" id="o" x1="202.7" x2="226.98" y1="100.8" y2="100.8"/><linearGradient xlink:href="#d" id="p" x1="103.63" x2="103.63" y1="94.03" y2="85.59"/><linearGradient xlink:href="#d" id="q" x1="78.04" x2="78.04" y1="105.31" y2="93.03"/><linearGradient xlink:href="#d" id="r" x1="129.65" x2="129.65" y1="101.67" y2="91.35"/><linearGradient xlink:href="#d" id="s" x1="28.88" x2="28.88" y1="162.71" y2="140.31"/><linearGradient xlink:href="#d" id="t" x1="208.78" x2="208.78" y1="181.7" y2="113.5"/><linearGradient xlink:href="#d" id="u" x1="58.5" x2="58.5" y1="177.44" y2="155.1"/><linearGradient xlink:href="#d" id="v" x1="26.91" x2="43.57" y1="197.94" y2="197.94"/><linearGradient xlink:href="#d" id="w" x1="60.6" x2="60.6" y1="139.28" y2="115.12"/><linearGradient xlink:href="#d" id="x" x1="228" x2="272.17" y1="139.27" y2="139.27"/><linearGradient xlink:href="#d" id="z" x1="227.57" x2="268.63" y1="174.68" y2="174.68"/><linearGradient xlink:href="#d" id="aa" x1="66.04" x2="82.44" y1="134.65" y2="134.65"/><linearGradient xlink:href="#d" id="ab" x1="95.86" x2="110.63" y1="126.84" y2="126.84"/><linearGradient xlink:href="#d" id="ac" x1="99.91" x2="114.3" y1="132.18" y2="132.18"/><linearGradient xlink:href="#d" id="ad" x1="26.37" x2="63.44" y1="180.51" y2="180.51"/><linearGradient xlink:href="#d" id="ae" x1="23.69" x2="64.07" y1="138.07" y2="138.07"/><linearGradient xlink:href="#d" id="af" x1="157.4" x2="182.04" y1="135.64" y2="135.64"/><linearGradient xlink:href="#d" id="ag" x1="103.51" x2="103.51" y1="177.22" y2="131.81"/><linearGradient xlink:href="#d" id="ah" x1="110.59" x2="114.3" y1="121.16" y2="121.16"/><linearGradient xlink:href="#d" id="ai" x1="117.14" x2="156.24" y1="158.93" y2="158.93"/><linearGradient xlink:href="#d" id="aj" x1="113.3" x2="117.4" y1="195.3" y2="195.3"/><linearGradient xlink:href="#d" id="ak" x1="5.68" x2="71.05" y1="89.32" y2="89.32"/><linearGradient xlink:href="#d" id="am" x1="166.66" x2="159.29" y1="37.38" y2="99.54"/><radialGradient id="y" cx="165.72" cy="90.57" r="120.3" fx="165.72" fy="90.57" gradientUnits="userSpaceOnUse"><stop offset=".02" stop-color="#fddd00"/><stop offset=".35" stop-color="#96c93d"/><stop offset=".57" stop-color="#00a94f"/><stop offset=".96" stop-color="#006745"/></radialGradient><radialGradient id="al" cx="260.24" cy="100.94" r="112.34" fx="260.24" fy="100.94" gradientTransform="matrix(1 0 0 1 -57.95 -88.26)" gradientUnits="userSpaceOnUse"><stop offset=".57" stop-color="#00a94f"/><stop offset=".96" stop-color="#006745"/></radialGradient><style>.at{fill:#fff}.bl{fill:#006746}.bm{fill:url(#y)}</style></defs><g id="c"><path d="M120.85 93.63c-1.35-3.03-2.68-6.06-3.99-9.09l.9 8.8c1.25 2.84 2.94 5.86 4.2 8.72l-1.11-8.43Z" style="fill:url(#d)"/><path d="M111.62 69.06c-2.33-6.02-4.55-12-6.6-17.92l1.22 10.45c2.04 5.61 4.21 11.83 6.47 17.52-.38-2.73-.74-7.33-1.09-10.05Z" style="fill:url(#e)"/><path d="m84.9 95.46 3.85 8.46c1.38-2.98 2.77-5.96 4.18-8.94l-3.43-9.06c-1.54 3.17-3.08 6.35-4.6 9.54Z" style="fill:url(#f)"/><path d="M21.73 64.54a34.18 34.18 0 0 0-1.05 4.05v.06a22.84 22.84 0 0 0-.34 3.54v.47a17.7 17.7 0 0 0 .28 2.81l.06.36c.1.48.23.95.38 1.4l.06.19c.14.39.29.76.46 1.12l.2.4c.17.35.37.7.58 1.04l.04.05a9.7 9.7 0 0 0 4.4 3.62l-.04-.1-.08-.28c-.09-.35-.17-.7-.23-1.06l-.01-.05a15.99 15.99 0 0 1-.25-2.37V78.42l.02-.31.08-1 .04-.37.02-.15.13-.87.02-.13a23.38 23.38 0 0 1 .62-2.73l.04-.16c.16-.56.33-1.1.52-1.65l.08-.23c.18-.53.39-1.05.6-1.55l.1-.26c.22-.5.45-1 .68-1.47l.14-.28.52-.98.1-.18.65-1.09.17-.26.57-.87.16-.21c.23-.34.48-.67.73-.99l.2-.26A26.37 26.37 0 0 1 33.6 61l.23-.25c.23-.24.46-.48.7-.7a25.2 25.2 0 0 1 .8-.75l.17-.16c.34-.3.7-.6 1.05-.87l.05-.04c.36-.28.73-.55 1.1-.8.07-.05.13-.1.2-.13.36-.25.73-.47 1.1-.69l.22-.12c.38-.22.77-.42 1.16-.61l.11-.05c.39-.18.77-.35 1.16-.5l.15-.06a18 18 0 0 1 1.2-.41l.34-.1a18.7 18.7 0 0 1 .78-.2l.3-.07.52-.1.25-.05a17.04 17.04 0 0 1 4.39-.17c1.1.12 2.08.38 2.95.8.87.4 1.63.96 2.28 1.68l.2.24.07.19-1.42-3.7c-.15-1.24-.4-2.34-.75-3.3l-.1-.25-.26-.62-.15-.29a8.91 8.91 0 0 0-.8-1.26l-.15-.2a7.18 7.18 0 0 0-.56-.6l-.09-.07c-.17-.16-.35-.3-.53-.45l-.23-.15a7.06 7.06 0 0 0-1.22-.68l-.27-.11c-.2-.09-.42-.16-.64-.22l-.18-.06a9.77 9.77 0 0 0-.87-.2l-.25-.04a11.63 11.63 0 0 0-2.17-.14h-.34a18.84 18.84 0 0 0-3.44.43l-.14.04a18.76 18.76 0 0 0-3.3 1.08l-.02.01c-.55.24-1.1.5-1.63.8h-.01c-.41.22-.81.46-1.22.71l-.5.31-1.29.9-.17.13c-.48.36-.95.75-1.42 1.16l-.2.18a30.25 30.25 0 0 0-2.57 2.6l-.25.3c-.33.4-.66.8-.98 1.22l-.23.3c-.37.49-.73 1-1.08 1.53l-.25.39c-.33.5-.65 1.02-.95 1.55-.25.45-.48.9-.72 1.37l-.39.77c-.19.4-.36.81-.54 1.22l-.32.75c-.19.46-.35.93-.52 1.4l-.23.65Z" style="fill:url(#g)"/><path d="m242.45 70.73-8.55 9.48c1.9 9.23 3.44 18.52 4.6 27.76l9.91-7.6a346.54 346.54 0 0 0-5.96-29.64Z" style="fill:url(#h)"/><path d="M237.88 53.96a369.94 369.94 0 0 0-8.33-24.74 252.1 252.1 0 0 1-4.34 12.86 385.83 385.83 0 0 1 6.65 23.37c1.76-2.91 4.44-8.6 6.02-11.49Z" style="fill:url(#i)"/><path d="M196.32 26.25c-.67 3.41-1.43 6.84-2.26 10.3 4.54 21.4 7.9 43.61 9.82 65.87l.3.02 4.58-6.39a506.97 506.97 0 0 0-12.44-69.8Z" style="fill:url(#j)"/><path d="M72.53 60.39c-.04-.73-.11-3.27-.2-3.95a27.53 27.53 0 0 0-.78-3.83 261.6 261.6 0 0 1-2.52-9.52 26.02 26.02 0 0 1 .66 4.04 33.52 33.52 0 0 1 .12 4.64 788.8 788.8 0 0 0-15.7 1.57l-.11-.3-.34.34 1.42 3.7c.7 1.74 1.4 5.31 2.13 7.06a802.06 802.06 0 0 1 15.38-1.48c0-.78-.02-1.54-.06-2.27Z" style="fill:url(#k)"/><path d="M96.2 69.82c.63 2.7 1.46 7 2.14 9.72 2.69-5.93 5.21-12.12 7.9-17.95L105 51.14c-2.91 6.16-5.86 12.4-8.8 18.68Z" style="fill:url(#l)"/><path d="M242.74 108.52a783.42 783.42 0 0 1 12.73 1.76c2.87-1.83 8.25-5.46 11.04-7.26a799.27 799.27 0 0 0-18.1-2.65l-9.92 7.6 4.25.55Z" style="fill:url(#m)"/><path d="M242.45 70.73a790.06 790.06 0 0 0-20.36-2.32c-1.58 2.65-5.77 7.1-7.47 9.77 6.44.6 12.87 1.3 19.28 2.06l8.55-9.5Z" style="fill:url(#n)"/><path d="M217.84 96.86a787.64 787.64 0 0 0-9.08-.8l-6.06 8.02a770.6 770.6 0 0 1 16.78 1.47c2.04-2.05 5.52-5.73 7.5-7.77a796.6 796.6 0 0 0-9.14-.92Z" style="fill:url(#o)"/><path d="M116.86 84.54c-9.12.3-18.24.76-27.36 1.38l3.43 9.06c8.56-.55 16.27-1.37 24.83-1.64l-.9-8.8Z" style="fill:url(#p)"/><path d="M84.9 95.46c-5.85.43-11.7.93-17.56 1.49 1.35 2.12 3.58 6.1 4.97 8.24 5.47-.5 10.95-.94 16.44-1.32l-3.84-8.4v-.01Z" style="fill:url(#q)"/><path d="m120.85 93.63 1.12 8.43c5.48-.15 10.96-.25 16.44-.28.14-2.26-.14-6.2 0-8.44-5.85.03-11.7.13-17.56.3Z" style="fill:url(#r)"/><path d="M24.32 159.05c2.6.67 7.17 2.37 9.78 3.07-.51-6.64-.79-13.35-.84-20.1l-9.57-4.57c-.07 7.27.13 14.47.63 21.6Z" style="fill:url(#s)"/><path d="M215.65 133.85a435.9 435.9 0 0 0-1.47-24.23c-.56.6-1.5 1.16-2.58 1.71a980.86 980.86 0 0 1-6.47 4.27c.5 7.26.83 14.59.99 21.96.16 7.66.12 15.37-.14 23.08a379.2 379.2 0 0 1-1.5 23.34 333.2 333.2 0 0 1-2.78 21.65l8.8 3.16a306.98 306.98 0 0 0 3.56-25.08c.85-8.33 1.38-16.7 1.63-25.08.25-8.28.23-16.56-.04-24.78Z" style="fill:url(#t)"/><path d="M63.44 179.58a353.14 353.14 0 0 1-1.87-20.97c-1.9-.86-6.1-2.41-8-3.26a355.1 355.1 0 0 0 1.99 22.82l7.88 1.4Z" style="fill:url(#u)"/><path d="M43.57 212.43a237.56 237.56 0 0 1-6.71-29.6l-9.95-.81a223.44 223.44 0 0 0 7.5 31.84l9.16-1.43Z" style="fill:url(#v)"/><path d="M64.08 139.04a425.7 425.7 0 0 1 .32-20.74c-1.67-1.87-5.29-5.36-6.91-7.22a415.57 415.57 0 0 0-.68 22.22l7.27 5.74Z" style="fill:url(#w)"/><path d="M255.4 136.5a786.02 786.02 0 0 0-16.7-2.2c-2.48 1.25-8.21 4.57-10.7 5.84a780.82 780.82 0 0 1 31.18 4.11c3.26-1.05 9.76-4.14 12.99-5.16a783.57 783.57 0 0 0-16.76-2.59Z" style="fill:url(#x)"/><path d="M29.39 114.65a792.6 792.6 0 0 0-28.03 4.58c-3.6 34.57-.15 68.04 11.5 97.99a783.63 783.63 0 0 1 21.58-3.35c-3.27-10.33-5.77-21-7.53-31.94a793.67 793.67 0 0 1 28.65-3.76 327.78 327.78 0 0 1-2-22.82 793.65 793.65 0 0 0-29.24 3.9c-.5-7.12-.7-14.33-.63-21.6a793.62 793.62 0 0 1 33.12-4.35 403.07 403.07 0 0 1 .68-22.22 794 794 0 0 0-28.1 3.57Zm33.79-45.2a788.4 788.4 0 0 0-12.56 1.33 23.26 23.26 0 0 1-2.91 5.32 20.74 20.74 0 0 1-14.12 8.3c-2.6.33-4.85.05-6.73-.72a9.7 9.7 0 0 1-4.48-3.67 12.86 12.86 0 0 1-1.97-5.92c-.22-2.26.01-4.78.7-7.43a34.01 34.01 0 0 1 3.34-8.28 31.88 31.88 0 0 1 5-6.65 25.78 25.78 0 0 1 6.11-4.64 19.44 19.44 0 0 1 6.78-2.21c1.67-.21 3.16-.2 4.47.03 1.31.23 2.45.69 3.4 1.38.94.7 1.7 1.62 2.28 2.8.58 1.18.97 2.6 1.17 4.3a760.35 760.35 0 0 1 16.15-1.62c.16-4.52-.44-8.27-1.6-11.33a17.33 17.33 0 0 0-5-7.22 17.44 17.44 0 0 0-7.3-3.6 25.14 25.14 0 0 0-8.75-.4 39.06 39.06 0 0 0-11.83 3.54 56.56 56.56 0 0 0-12.27 7.92 63.68 63.68 0 0 0-11.24 12.28A57.9 57.9 0 0 0 3.76 69.5c-1.8 6.2-2.12 11.48-1.29 15.87.83 4.4 2.82 7.9 5.58 10.53a22.3 22.3 0 0 0 10.3 5.35c4 .95 8.4 1.09 12.89.46a45.67 45.67 0 0 0 11.3-3.11 43.17 43.17 0 0 0 10.6-6.35 40.55 40.55 0 0 0 8.68-9.8 46.14 46.14 0 0 0 5.65-13.42l-4.3.41Zm38.9 115a808.1 808.1 0 0 1-2.17-55.26c3.57-.2 7.15-.37 10.72-.52-.06-7.18-.05-14.38.01-21.57-14.7.6-29.38 1.62-44.04 3.05-.36 7.22-.55 14.44-.56 21.63a791 791 0 0 1 10.71-.98c0 18.7 1 37.23 3.02 55.17-3.73.3-7.47.64-11.2 1a348.61 348.61 0 0 0 3.73 22.48c14.12-1.3 28.3-2.23 42.5-2.78-.57-7.46-1.08-15.05-1.5-22.74-3.74.15-7.49.33-11.22.53Zm135.25-4.89a261.2 261.2 0 0 0 .82-8.7 788.85 788.85 0 0 1 30.48 4.25 213.39 213.39 0 0 0 1.1-16.86c.05-1.88.08-3.75.09-5.63a788.54 788.54 0 0 0-30.82-4.36c0-4.63-.1-9.29-.3-13.97a798.42 798.42 0 0 1 33.47 4.8 254.45 254.45 0 0 0-2.2-22.43 788.33 788.33 0 0 0-55.79-7.04c.7 8 1.2 16.09 1.47 24.23.27 8.22.3 16.5.04 24.78-.25 8.37-.78 16.75-1.63 25.08-.85 8.42-2.03 16.8-3.57 25.08a789.85 789.85 0 0 1 53.43 6.27 170.67 170.67 0 0 0 4.7-16.54c.43-1.84.83-3.67 1.2-5.5a788.34 788.34 0 0 0-33.61-4.65 255.48 255.48 0 0 0 1.12-8.8ZM127.71 93.48c-.31-11.3-1.4-22.66-3.27-34.07a487.97 487.97 0 0 1-13.68-35.16c-2.16.09-4.31.18-6.47.29-11.89 22.1-24.92 45.64-36.74 69.65l-.2 2.76c5.84-.56 11.7-1.06 17.56-1.49 1.51-3.19 3.05-6.37 4.6-9.54 9.1-.62 18.23-1.07 27.35-1.38 1.31 3.03 2.64 6.06 3.99 9.1 2.29-.07 4.57-.12 6.86-.16Zm-31.5-23.66c2.94-6.29 5.89-12.52 8.8-18.68 2.06 5.92 4.28 11.9 6.61 17.92-5.14.2-10.28.46-15.42.76Zm121.63 27.04a794.75 794.75 0 0 1 9.14.92 411.08 411.08 0 0 0-4.9-29.37c6.8.69 13.59 1.46 20.37 2.32a346.56 346.56 0 0 1 5.96 29.64 782.6 782.6 0 0 1 18.1 2.65 329.07 329.07 0 0 0-21.8-71.97 783.98 783.98 0 0 0-15.16-1.83c3.06 8.14 5.85 16.4 8.33 24.74-6.5-.79-13-1.5-19.52-2.12a423.15 423.15 0 0 0-6.77-24.4 805.63 805.63 0 0 0-10.83-.87 225.62 225.62 0 0 1 6.12 54.24c.7 5.07 1.34 10.15 1.88 15.24a798.6 798.6 0 0 1 9.08.81Zm-18.5 19.37c-7.18 1.28-14.4 2.6-21.63 3.92a1982.97 1982.97 0 0 1-15.32 42.14l-.65-.01c-4.42-12.09-9.26-24.3-14.2-36.49l-14.33 2.75a5.36 5.36 0 0 1-6.43-5.89c.5-5.33.8-10.69.94-16.06-3.44.07-6.88.15-10.31.26l-.01 3.7c13.73 32.52 28.73 65.65 38.84 96.77 3.03.04 6.07.1 9.1.18 13.13-30.59 27.9-62.9 39.09-95l-.07-.94a6.44 6.44 0 0 1-5.02 4.67Z" class="bm"/><path d="M227.57 174.88a789.17 789.17 0 0 1 28.3 3.62c3.29-.23 9.47-3.2 12.76-3.39a788.59 788.59 0 0 0-30.48-4.25c-2.57.4-8.02 3.58-10.58 4.02Z" style="fill:url(#z)"/><path d="M66.04 131.78c1.54 1.42 4.88 5.29 6.44 6.71 3.32-.3 6.64-.59 9.96-.85-1.3-1.47-4.4-5.38-5.69-6.84-3.57.3-7.14.63-10.71.98Z" style="fill:url(#aa)"/><path d="m110.63 128.67-10.12-4.17-4.65 1.8 4.05 2.89c3.57-.2 7.15-.37 10.72-.52Z" style="fill:url(#ab)"/><path d="M110.63 128.67c-3.57.15-7.15.32-10.72.52l4.42 6.5c3.32-.18 6.65-.33 9.97-.46l-3.67-6.56Z" style="fill:url(#ac)"/><path d="M55.56 178.17A823.05 823.05 0 0 0 26.37 182l10.49.84c8.84-1.24 17.7-2.33 26.58-3.26l-7.88-1.4Z" style="fill:url(#ad)"/><path d="M56.81 133.3a793.78 793.78 0 0 0-33.12 4.35l9.57 5.18a793.61 793.61 0 0 1 30.81-3.8l-7.26-5.73Z" style="fill:url(#ae)"/><path d="M157.4 163.89c.73-.78 4.26-.82 4.99-1.6 6.77-18.17 13.62-36.6 19.65-54.9-1.1 1.98-5 3.23-6.12 5.21-5.8 17.13-12.22 34.33-18.52 51.29Z" style="fill:url(#af)"/><path d="M102.08 184.46c.73.25 4.3.5 5.03.76-1.22-16.79-2.58-32.14-2.78-49.54l-4.42-6.5c.1 18.7.82 37.26 2.17 55.28Z" style="fill:url(#ag)"/><path d="M114.3 135.23c-.08-6.71-.11-13.44-.09-20.16-.47-2.02-3.1-5.95-3.57-7.97-.06 7.19-.07 14.39 0 21.57l3.66 6.56Z" style="fill:url(#ah)"/><path d="m117.4 110.54-.26 9.9c12.57 29.67 22.97 56 32.4 84.49.55.28 6.16 2.1 6.7 2.4-10-30.77-25.23-64.6-38.84-96.79Z" style="fill:url(#ai)"/><path d="M113.3 183.93c.42 7.69.93 15.28 1.5 22.74.42-.26 2.2-1.65 2.6-1.91-.51-6.94-.98-12.16-1.37-19.29-.46-.27-2.27-1.26-2.73-1.54Z" style="fill:url(#aj)"/><path d="M29.39 114.65a792.6 792.6 0 0 0-28.03 4.58c-3.6 34.57-.15 68.04 11.5 97.99a783.63 783.63 0 0 1 21.58-3.35c-3.27-10.33-5.77-21-7.53-31.94a793.67 793.67 0 0 1 28.65-3.76 327.78 327.78 0 0 1-2-22.82 793.65 793.65 0 0 0-29.24 3.9c-.5-7.12-.7-14.33-.63-21.6a793.62 793.62 0 0 1 33.12-4.35 403.07 403.07 0 0 1 .68-22.22 794 794 0 0 0-28.1 3.57Zm33.79-45.2a788.4 788.4 0 0 0-12.56 1.33 23.26 23.26 0 0 1-2.91 5.32 20.74 20.74 0 0 1-14.12 8.3c-2.6.33-4.85.05-6.73-.72a9.7 9.7 0 0 1-4.48-3.67 12.86 12.86 0 0 1-1.97-5.92c-.22-2.26.01-4.78.7-7.43a34.01 34.01 0 0 1 3.34-8.28 31.88 31.88 0 0 1 5-6.65 25.78 25.78 0 0 1 6.11-4.64 19.44 19.44 0 0 1 6.78-2.21c1.67-.21 3.16-.2 4.47.03 1.31.23 2.45.69 3.4 1.38.94.7 1.7 1.62 2.28 2.8.58 1.18.97 2.6 1.17 4.3a760.35 760.35 0 0 1 16.15-1.62c.16-4.52-.44-8.27-1.6-11.33a17.33 17.33 0 0 0-5-7.22 17.44 17.44 0 0 0-7.3-3.6 25.14 25.14 0 0 0-8.75-.4 39.06 39.06 0 0 0-11.83 3.54 56.56 56.56 0 0 0-12.27 7.92 63.68 63.68 0 0 0-11.24 12.28A57.9 57.9 0 0 0 3.76 69.5c-1.8 6.2-2.12 11.48-1.29 15.87.83 4.4 2.82 7.9 5.58 10.53a22.3 22.3 0 0 0 10.3 5.35c4 .95 8.4 1.09 12.89.46a45.67 45.67 0 0 0 11.3-3.11 43.17 43.17 0 0 0 10.6-6.35 40.55 40.55 0 0 0 8.68-9.8 46.14 46.14 0 0 0 5.65-13.42l-4.3.41Zm38.9 115a808.1 808.1 0 0 1-2.17-55.26c3.57-.2 7.15-.37 10.72-.52-.06-7.18-.05-14.38.01-21.57-14.7.6-29.38 1.62-44.04 3.05-.36 7.22-.55 14.44-.56 21.63a791 791 0 0 1 10.71-.98c0 18.7 1 37.23 3.02 55.17-3.73.3-7.47.64-11.2 1a348.61 348.61 0 0 0 3.73 22.48c14.12-1.3 28.3-2.23 42.5-2.78-.57-7.46-1.08-15.05-1.5-22.74-3.74.15-7.49.33-11.22.53Zm135.25-4.89a261.2 261.2 0 0 0 .82-8.7 788.85 788.85 0 0 1 30.48 4.25 213.39 213.39 0 0 0 1.1-16.86c.05-1.88.08-3.75.09-5.63a788.54 788.54 0 0 0-30.82-4.36c0-4.63-.1-9.29-.3-13.97a798.42 798.42 0 0 1 33.47 4.8 254.45 254.45 0 0 0-2.2-22.43 788.33 788.33 0 0 0-55.79-7.04c.7 8 1.2 16.09 1.47 24.23.27 8.22.3 16.5.04 24.78-.25 8.37-.78 16.75-1.63 25.08-.85 8.42-2.03 16.8-3.57 25.08a789.85 789.85 0 0 1 53.43 6.27 170.67 170.67 0 0 0 4.7-16.54c.43-1.84.83-3.67 1.2-5.5a788.34 788.34 0 0 0-33.61-4.65 255.48 255.48 0 0 0 1.12-8.8ZM127.71 93.48c-.31-11.3-1.4-22.66-3.27-34.07a487.97 487.97 0 0 1-13.68-35.16c-2.16.09-4.31.18-6.47.29-11.89 22.1-24.92 45.64-36.74 69.65l-.2 2.76c5.84-.56 11.7-1.06 17.56-1.49 1.51-3.19 3.05-6.37 4.6-9.54 9.1-.62 18.23-1.07 27.35-1.38 1.31 3.03 2.64 6.06 3.99 9.1 2.29-.07 4.57-.12 6.86-.16Zm-31.5-23.66c2.94-6.29 5.89-12.52 8.8-18.68 2.06 5.92 4.28 11.9 6.61 17.92-5.14.2-10.28.46-15.42.76Zm121.63 27.04a794.75 794.75 0 0 1 9.14.92 411.08 411.08 0 0 0-4.9-29.37c6.8.69 13.59 1.46 20.37 2.32a346.56 346.56 0 0 1 5.96 29.64 782.6 782.6 0 0 1 18.1 2.65 329.07 329.07 0 0 0-21.8-71.97 783.98 783.98 0 0 0-15.16-1.83c3.06 8.14 5.85 16.4 8.33 24.74-6.5-.79-13-1.5-19.52-2.12a423.15 423.15 0 0 0-6.77-24.4 805.63 805.63 0 0 0-10.83-.87 225.62 225.62 0 0 1 6.12 54.24c.7 5.07 1.34 10.15 1.88 15.24a798.6 798.6 0 0 1 9.08.81Zm-18.5 19.37c-7.18 1.28-14.4 2.6-21.63 3.92a1982.97 1982.97 0 0 1-15.32 42.14l-.65-.01c-4.42-12.09-9.26-24.3-14.2-36.49l-14.33 2.75a5.36 5.36 0 0 1-6.43-5.89c.5-5.33.8-10.69.94-16.06-3.44.07-6.88.15-10.31.26l-.01 3.7c13.73 32.52 28.73 65.65 38.84 96.77 3.03.04 6.07.1 9.1.18 13.13-30.59 27.9-62.9 39.09-95l-.07-.94a6.44 6.44 0 0 1-5.02 4.67Z" class="bm"/><path d="m71.05 77.6-.2-.48-.23-.56-3.15-7.53a48.55 48.55 0 0 1-3.08 8.7l-.02.05a40.56 40.56 0 0 1-8.8 12.33l-.02.02c-.78.75-1.58 1.45-2.4 2.12l-.1.09-.07.04-.52.41a41.02 41.02 0 0 1-1.37 1.04l-.25.17-.41.29-.16.1a42.65 42.65 0 0 1-1.41.93l-.58.36-.11.07-.4.23-.37.21-.55.32-.98.52-.47.25-.03.01-.23.11-1.17.57-.04.02a43 43 0 0 1-1.24.54l-.15.07-.06.02-.03.02-.5.2-1 .39-.59.21-.39.14-.42.15c-.04 0-.07.02-.11.04l-.62.2a47.1 47.1 0 0 1-1.53.46l-.18.05-.47.13-.26.07-.61.15-.94.22c-.2.05-.39.1-.58.13l-.07.02-.36.07-.59.11-.5.1-1.49.23c-4.5.63-8.9.5-12.88-.46a22.3 22.3 0 0 1-10.3-5.35 18.37 18.37 0 0 1-2.38-2.78 28.69 28.69 0 0 0 3.72 5.65c-.1-.09-.22-.17-.33-.25l.38.3a31.53 31.53 0 0 0 10.52 7.94 22.27 22.27 0 0 0 5.15 1.93 30.9 30.9 0 0 0 6.55.91 36.16 36.16 0 0 0 7.27-.51l.46-.09c.32-.06.64-.11.95-.18l.55-.11.87-.2.58-.14.84-.23.3-.08.29-.08.84-.26.57-.18.86-.3.55-.2.93-.36.47-.18.08-.04 1.3-.56.04-.02c.44-.2.88-.42 1.32-.64l.44-.23.9-.48.51-.29c.28-.16.55-.31.82-.48.18-.1.35-.22.53-.33.26-.16.52-.32.77-.5.1-.05.19-.1.28-.17l.26-.18.75-.53.52-.38.75-.58.48-.38.15-.12.66-.57.39-.33c.4-.35.78-.71 1.16-1.08l.03-.03c.4-.39.8-.8 1.18-1.2l.12-.13.24-.27c.27-.3.55-.61.81-.93l.21-.23.18-.22.8-1.02.22-.29.08-.1c.35-.48.7-.97 1.03-1.47l.03-.03.1-.17.34-.53.2-.3.14-.22.02-.03.01-.02a38.43 38.43 0 0 0 4.97-12.45c0-.05.02-.1.03-.14v-.01c.15-.78.2-1.22.2-1.22Z" style="fill:url(#ak)"/><path d="M29.39 114.65a792.6 792.6 0 0 0-28.03 4.58c-3.6 34.57-.15 68.04 11.5 97.99a783.63 783.63 0 0 1 21.58-3.35c-3.27-10.33-5.77-21-7.53-31.94a793.67 793.67 0 0 1 28.65-3.76 327.78 327.78 0 0 1-2-22.82 793.65 793.65 0 0 0-29.24 3.9c-.5-7.12-.7-14.33-.63-21.6a793.62 793.62 0 0 1 33.12-4.35 403.07 403.07 0 0 1 .68-22.22 794 794 0 0 0-28.1 3.57Zm33.79-45.2a788.4 788.4 0 0 0-12.56 1.33 23.26 23.26 0 0 1-2.91 5.32 20.74 20.74 0 0 1-14.12 8.3c-2.6.33-4.85.05-6.73-.72a9.7 9.7 0 0 1-4.48-3.67 12.86 12.86 0 0 1-1.97-5.92c-.22-2.26.01-4.78.7-7.43a34.01 34.01 0 0 1 3.34-8.28 31.88 31.88 0 0 1 5-6.65 25.78 25.78 0 0 1 6.11-4.64 19.44 19.44 0 0 1 6.78-2.21c1.67-.21 3.16-.2 4.47.03 1.31.23 2.45.69 3.4 1.38.94.7 1.7 1.62 2.28 2.8.58 1.18.97 2.6 1.17 4.3a760.35 760.35 0 0 1 16.15-1.62c.16-4.52-.44-8.27-1.6-11.33a17.33 17.33 0 0 0-5-7.22 17.44 17.44 0 0 0-7.3-3.6 25.14 25.14 0 0 0-8.75-.4 39.06 39.06 0 0 0-11.83 3.54 56.56 56.56 0 0 0-12.27 7.92 63.68 63.68 0 0 0-11.24 12.28A57.9 57.9 0 0 0 3.76 69.5c-1.8 6.2-2.12 11.48-1.29 15.87.83 4.4 2.82 7.9 5.58 10.53a22.3 22.3 0 0 0 10.3 5.35c4 .95 8.4 1.09 12.89.46a45.67 45.67 0 0 0 11.3-3.11 43.17 43.17 0 0 0 10.6-6.35 40.55 40.55 0 0 0 8.68-9.8 46.14 46.14 0 0 0 5.65-13.42l-4.3.41Zm38.9 115a808.1 808.1 0 0 1-2.17-55.26c3.57-.2 7.15-.37 10.72-.52-.06-7.18-.05-14.38.01-21.57-14.7.6-29.38 1.62-44.04 3.05-.36 7.22-.55 14.44-.56 21.63a791 791 0 0 1 10.71-.98c0 18.7 1 37.23 3.02 55.17-3.73.3-7.47.64-11.2 1a348.61 348.61 0 0 0 3.73 22.48c14.12-1.3 28.3-2.23 42.5-2.78-.57-7.46-1.08-15.05-1.5-22.74-3.74.15-7.49.33-11.22.53Zm135.25-4.89a261.2 261.2 0 0 0 .82-8.7 788.85 788.85 0 0 1 30.48 4.25 213.39 213.39 0 0 0 1.1-16.86c.05-1.88.08-3.75.09-5.63a788.54 788.54 0 0 0-30.82-4.36c0-4.63-.1-9.29-.3-13.97a798.42 798.42 0 0 1 33.47 4.8 254.45 254.45 0 0 0-2.2-22.43 788.33 788.33 0 0 0-55.79-7.04c.7 8 1.2 16.09 1.47 24.23.27 8.22.3 16.5.04 24.78-.25 8.37-.78 16.75-1.63 25.08-.85 8.42-2.03 16.8-3.57 25.08a789.85 789.85 0 0 1 53.43 6.27 170.67 170.67 0 0 0 4.7-16.54c.43-1.84.83-3.67 1.2-5.5a788.34 788.34 0 0 0-33.61-4.65 255.48 255.48 0 0 0 1.12-8.8ZM127.71 93.48c-.31-11.3-1.4-22.66-3.27-34.07a487.97 487.97 0 0 1-13.68-35.16c-2.16.09-4.31.18-6.47.29-11.89 22.1-24.92 45.64-36.74 69.65l-.2 2.76c5.84-.56 11.7-1.06 17.56-1.49 1.51-3.19 3.05-6.37 4.6-9.54 9.1-.62 18.23-1.07 27.35-1.38 1.31 3.03 2.64 6.06 3.99 9.1 2.29-.07 4.57-.12 6.86-.16Zm-31.5-23.66c2.94-6.29 5.89-12.52 8.8-18.68 2.06 5.92 4.28 11.9 6.61 17.92-5.14.2-10.28.46-15.42.76Zm121.63 27.04a794.75 794.75 0 0 1 9.14.92 411.08 411.08 0 0 0-4.9-29.37c6.8.69 13.59 1.46 20.37 2.32a346.56 346.56 0 0 1 5.96 29.64 782.6 782.6 0 0 1 18.1 2.65 329.07 329.07 0 0 0-21.8-71.97 783.98 783.98 0 0 0-15.16-1.83c3.06 8.14 5.85 16.4 8.33 24.74-6.5-.79-13-1.5-19.52-2.12a423.15 423.15 0 0 0-6.77-24.4 805.63 805.63 0 0 0-10.83-.87 225.62 225.62 0 0 1 6.12 54.24c.7 5.07 1.34 10.15 1.88 15.24a798.6 798.6 0 0 1 9.08.81Zm-18.5 19.37c-7.18 1.28-14.4 2.6-21.63 3.92a1982.97 1982.97 0 0 1-15.32 42.14l-.65-.01c-4.42-12.09-9.26-24.3-14.2-36.49l-14.33 2.75a5.36 5.36 0 0 1-6.43-5.89c.5-5.33.8-10.69.94-16.06-3.44.07-6.88.15-10.31.26l-.01 3.7c13.73 32.52 28.73 65.65 38.84 96.77 3.03.04 6.07.1 9.1.18 13.13-30.59 27.9-62.9 39.09-95l-.07-.94a6.44 6.44 0 0 1-5.02 4.67Z" class="bm"/><path d="M132.13 128.65a5.36 5.36 0 0 1-5.35-6c3.51-37.69-1.9-76.46-16.11-115.23a5.55 5.55 0 0 1 .59-5.16 5.3 5.3 0 0 1 4.4-2.26h.2c24.32.8 49.1 1.8 73.62 2.98a6.64 6.64 0 0 1 5.93 4.45c11.18 34.6 14.23 69.45 9.07 103.62a6.42 6.42 0 0 1-5.14 5.18c-21.94 3.91-44.2 8.06-66.13 12.31-.36.07-.72.1-1.08.1Z" class="at"/><path d="M132.37 124.24c-.75.14-1.3-.39-1.22-1.18 3.45-37.1-1.62-76.89-16.36-117.15-.32-.87.1-1.55.93-1.52 24.38.79 48.9 1.77 73.55 2.97.84.04 1.73.68 1.97 1.42 11.18 34.58 13.82 69.08 8.9 101.62-.1.7-.81 1.38-1.57 1.51-22.13 3.95-44.2 8.06-66.2 12.33Z" class="bl"/><path d="M196.92 109.48c-20.79 3.6-41.52 7.33-62.2 11.21 3.17-35.8-1.65-74.08-15.48-112.81 22.78.6 45.67 1.38 68.7 2.34 10.75 33.79 13.44 67.45 8.98 99.26Z" class="at"/><path d="M138.42 116.9c2.6-33.62-1.85-69.36-14.22-105.53 20.2.42 40.48 1 60.86 1.7 9.84 32.05 12.51 63.93 8.78 94.18-18.52 3.1-36.99 6.32-55.42 9.65Z" style="fill:url(#al)"/><path d="M135.46 15c1.04 3.24-1.14 5.86-4.79 5.85-3.64-.01-7.42-2.72-8.52-6.06-1.1-3.35.92-5.98 4.63-5.87 3.7.1 7.63 2.83 8.68 6.08ZM189.77 16.25c.84 2.9-1.53 5.22-5.2 5.16-3.68-.05-7.32-2.52-8.22-5.53-.9-3 1.32-5.33 5.06-5.18 3.74.15 7.52 2.64 8.36 5.55ZM197.56 104.5c-.32 2.75-3.38 5.45-6.75 6.04-3.38.6-5.8-1.2-5.51-4.04.3-2.84 3.22-5.58 6.63-6.1 3.4-.5 5.95 1.34 5.63 4.1ZM147.86 112.84c-.23 3.04-3.2 5.99-6.56 6.62-3.36.63-5.85-1.36-5.65-4.48.2-3.11 3.04-6.11 6.42-6.66 3.39-.55 6.01 1.49 5.79 4.52Z" class="at"/><path d="M152.64 18.7c1.53 4.32 1.64 6.4 2.93 10.67-5.8-.83-11.66-2-17.82-3.81a243.83 243.83 0 0 1 7 37.61l9.06.02c1.98-3.78 4.8-4.5 7.85-4.44 7.84.19 11.9 6.14 12.42 13.96.65 10.13-3.27 16.36-12.32 17.31-2.86.28-6.02-1.09-8.13-3.55 3.75-.55 6.95-3.37 6.6-8.37-.42-5.88-4.47-8.85-9.14-8.78-5.16.07-8.14 5.15-7.52 11.68 1.33 15.01 11.77 18.21 21.2 17.4.3 3.06.5 6.09.66 9.1l6.88-1.13c-.1-3.09-.26-6.19-.5-9.3 10.2-3.3 19.62-11.37 19.33-24.53-.48-14.6-13.47-22.67-27.01-23.55-4.49-.24-8.69.41-11.97 3.15-.6-3.5-1.3-7.03-2.09-10.57a27.48 27.48 0 0 0 9.47 2.27c12.51.75 25.07-3.55 23.17-10.92a2.83 2.83 0 0 0-2.44-2.12c-1.52-.19-9.84-.14-16.62-.55-1.21-4.12-1.28-6.11-2.72-10.28l-8.3-1.27Z" class="bl"/><path d="M165.07 47c-4.49-.23-8.68.42-11.97 3.15-.6-3.5-1.3-7.03-2.09-10.57a27.48 27.48 0 0 0 9.47 2.28c12.51.75 25.07-3.55 23.17-10.92a2.83 2.83 0 0 0-2.44-2.12c-1.51-.2-9.84-.15-16.62-.55-1.16-3.95-1.28-5.97-2.56-9.8l-7.93-.2c1.06 3.33 1.29 5.4 2.41 9.12-5.8-.83-11.66-2-17.82-3.82a243.85 243.85 0 0 1 7 37.62l9.06.01c1.98-3.77 4.8-4.49 7.85-4.44 7.84.2 11.9 6.14 12.42 13.96.65 10.14-3.27 16.37-12.32 17.32-2.86.28-6.02-1.1-8.13-3.55 3.76-.56 6.95-3.37 6.6-8.37-.42-5.89-4.47-8.86-9.14-8.78-5.16.06-8.14 5.15-7.52 11.68 1.33 15 11.77 18.2 21.2 17.4.3 3.05.51 6.08.66 9.1l6.88-1.13c-.1-3.1-.26-6.19-.5-9.3 10.2-3.31 19.62-11.37 19.33-24.53-.48-14.61-13.47-22.68-27.01-23.56Z" style="fill:url(#am)"/></g></svg>