<svg xmlns="http://www.w3.org/2000/svg" xmlns:xlink="http://www.w3.org/1999/xlink" viewBox="0 0 288 144"><defs><radialGradient id="d" cx="140.77" cy="91.79" r="23.24" fx="140.77" fy="91.79" gradientTransform="translate(16.06901 50.57321) rotate(-.02261) scale(.91592 .36959)" gradientUnits="userSpaceOnUse"><stop offset=".18" stop-color="#191c1f"/><stop offset="1" stop-color="#fff" stop-opacity="0"/></radialGradient><radialGradient id="e" cx="140.34" cy="69.67" r="21.18" fx="140.34" fy="69.67" gradientTransform="translate(15.35783 1.5226) rotate(-.02292) scale(.90354)" gradientUnits="userSpaceOnUse"><stop offset=".01" stop-color="#fff"/><stop offset=".5" stop-color="#ffcd31"/><stop offset=".6" stop-color="#fdc12e"/><stop offset=".78" stop-color="#f7a228"/><stop offset=".95" stop-color="#f28121"/></radialGradient><radialGradient xlink:href="#d" id="f" cx="106.46" cy="102.34" r="27.88" fx="106.46" fy="102.34" gradientTransform="translate(16.07126 56.2036) rotate(-.02261) scale(.91592 .36959)"/><radialGradient id="g" cx="105.3" cy="75.78" r="25.41" fx="105.3" fy="75.78" gradientTransform="translate(15.35783 1.5226) rotate(-.02292) scale(.90354)" gradientUnits="userSpaceOnUse"><stop offset=".01" stop-color="#fff"/><stop offset=".46" stop-color="#c91b89"/><stop offset=".58" stop-color="#bd1b7f"/><stop offset=".81" stop-color="#9e1c67"/><stop offset=".95" stop-color="#891d56"/></radialGradient><radialGradient xlink:href="#d" id="h" cx="69.71" cy="110.11" r="30.21" fx="69.71" fy="110.11" gradientTransform="translate(16.07292 60.35261) rotate(-.02261) scale(.91592 .36959)"/><radialGradient id="i" cx="67.35" cy="81.33" r="27.53" fx="67.35" fy="81.33" gradientTransform="translate(15.35783 1.5226) rotate(-.02292) scale(.90354)" gradientUnits="userSpaceOnUse"><stop offset="0" stop-color="#fff"/><stop offset=".47" stop-color="#29aae1"/><stop offset=".55" stop-color="#299ed8"/><stop offset=".7" stop-color="#297fc1"/><stop offset=".88" stop-color="#294e9c"/><stop offset=".95" stop-color="#293b8e"/></radialGradient><radialGradient id="j" cx="210.5" cy="66.43" r="48.31" fx="210.5" fy="66.43" gradientTransform="translate(15.71059 .89948) scale(.90216)" gradientUnits="userSpaceOnUse"><stop offset=".24" stop-color="#c91b89"/><stop offset=".43" stop-color="#bd1b7f"/><stop offset=".75" stop-color="#9e1c67"/><stop offset=".95" stop-color="#891d56"/></radialGradient><radialGradient xlink:href="#i" id="k" cx="276.92" cy="85.89" r="17.33" fx="276.92" fy="85.89" gradientTransform="translate(14.52894 -28.5135) rotate(5.37161) scale(.91313)"/><radialGradient id="l" cx="206.42" cy="281.16" r="65.72" fx="206.42" fy="281.16" gradientTransform="translate(99.90801 -89.62239) rotate(5.38132) scale(.82182 .65804)" gradientUnits="userSpaceOnUse"><stop offset=".24" stop-color="#fff38a"/><stop offset=".48" stop-color="#ffcd31"/></radialGradient><style>.n{fill:#fff}.r{fill:#d51540}.w{fill:#3a3d94}.y{fill:none}.z{fill:#b80e36}</style></defs><g style="isolation:isolate"><g id="b"><g id="c"><path d="M168.86 0h-14.38c-.49 0-.97.05-1.43.15-.47-.1-.95-.15-1.44-.15H131.3c-1.5 0-2.87.49-4 1.3a6.83 6.83 0 0 0-3.99-1.3h-18.1c-.56 0-1.1.09-1.63.22a6.88 6.88 0 0 0-1.64-.22H83.88A6.88 6.88 0 0 0 77 6.88v1.18l-1.28-3.53A6.88 6.88 0 0 0 69.25 0H56.52c-2.9 0-5.5 1.82-6.47 4.55L48.23 9.6c-.18-.26-.35-.53-.54-.78-3.4-4.45-8.51-7.28-14.87-8.2a89.18 89.18 0 0 0-11-.62H6.89A6.88 6.88 0 0 0 0 6.88v6.31a6.87 6.87 0 0 0 2.99 5.68v9.39A6.87 6.87 0 0 0 0 33.93v6.3c0 3.8 3.08 6.89 6.88 6.89h18.96c5.9 0 9.58-.31 13.33-1.95a6.85 6.85 0 0 0 4.78 1.95H59.8c.5 0 1-.05 1.47-.16.47.1.96.16 1.47.16h19c.37 0 .72-.05 1.07-.1.35.05.7.1 1.07.1h18.06c.56 0 1.1-.09 1.64-.22.52.13 1.07.22 1.63.22h32.85c.59 0 1.15-.1 1.7-.24a6.9 6.9 0 0 0 1.7.24h17.44c3.8 0 6.88-3.08 6.88-6.88v-6.3c0-2.38-1.2-4.47-3.03-5.7v-.27l7.17-7.92a.9.9 0 0 0 .05-.07 6.89 6.89 0 0 0 5.77-6.79V6.88c0-3.8-3.09-6.88-6.88-6.88Z" class="n"/><path d="M167.96 84.44c0 5.13-10.2 9.3-22.79 9.3-12.58 0-22.79-4.15-22.79-9.28 0-5.14 10.2-9.3 22.79-9.3 12.58-.01 22.8 4.15 22.8 9.28Z" style="fill:url(#d);mix-blend-mode:multiply"/><path d="M162.83 68.23a17.33 17.33 0 1 1-34.66 0 17.33 17.33 0 0 1 34.66 0Z" style="fill:url(#e)"/><path d="M141.13 93.98c0 6.16-12.24 11.15-27.35 11.16-15.1 0-27.35-4.98-27.35-11.14s12.24-11.16 27.34-11.16c15.1-.01 27.35 4.98 27.36 11.14Z" style="fill:url(#f);mix-blend-mode:multiply"/><path d="M135.31 74.53a20.78 20.78 0 1 1-41.57.02 20.78 20.78 0 0 1 41.57-.02Z" style="fill:url(#g)"/><path d="M109.77 101c0 6.69-13.27 12.1-29.63 12.1-16.36.01-29.63-5.4-29.63-12.07s13.26-12.08 29.62-12.09c16.36 0 29.63 5.4 29.64 12.07Z" style="mix-blend-mode:multiply;fill:url(#h)"/><path d="M103.09 79.94a22.52 22.52 0 1 1-45.04.02 22.52 22.52 0 0 1 45.04-.02Z" style="fill:url(#i)"/><path d="M6.88 33.93h.37c1.84 0 2.62-1.25 2.62-4.1V17.3c0-2.86-.78-4.12-2.62-4.12h-.37V6.88h14.95c3.64 0 7.5.2 10.07.55 4.46.65 8.02 2.56 10.32 5.56 2.09 2.76 3.15 6.41 3.15 10.77 0 6.31-2.41 11.32-6.71 13.93-3.44 2.1-5.94 2.55-12.82 2.55H6.88v-6.3Zm17.94-.3c2.9 0 4.01-.6 5.04-2.75.81-1.76 1.18-3.86 1.18-7.07 0-5.3-.74-8.06-2.5-9.31-1.02-.76-2-1-4.3-1h-2.13v20.13h2.7ZM77.73 30.23c1.06 3 1.8 3.7 3.68 3.7h.33v6.3h-19v-6.35h1.02c1.23 0 2.1-.7 2.1-1.8 0-.4-.22-1.25-.45-1.85h-8.24l-.16.6c-.17.6-.2.9-.2 1.2 0 1.4.48 1.85 1.84 1.85h1.15v6.36H43.95v-6.3h.24c1.88 0 2.9-.91 3.72-3.16l8.6-23.9h12.74l8.48 23.35ZM63.8 24.9l-2.5-7.6-2.5 7.6h5ZM101.94 40.24H83.88v-6.3h.36c1.85 0 2.62-1.26 2.62-4.12V17.31c0-2.86-.77-4.12-2.62-4.12h-.36V6.88h18.06v6.31h-.37c-1.9 0-2.62 1.26-2.62 4.12v12.47c0 2.9.73 4.15 2.58 4.15h.4v6.3ZM124.42 33.78c2.58 0 3.93-2.05 3.93-6.06v-2.7h9.7v15.22h-32.84v-6.3h.37c1.85 0 2.62-1.26 2.62-4.12V17.31c0-2.86-.77-4.12-2.62-4.12h-.37V6.88h18.1v6.31h-.37c-1.84 0-2.62 1.26-2.62 4.12v16.47h4.1Z" class="w"/><path d="M168.86 6.88v6.31h-.3c-1.43 0-2.17.46-3.8 2.3l-8.89 9.83v4.46c0 2.9.78 4.15 2.62 4.15h.4v6.3h-17.43v-6.3h.36c1.85 0 2.63-1.2 2.63-4.1v-4.51l-8.69-9.62c-1.92-2.05-2.53-2.5-3.89-2.5h-.57V6.87h20.31v6.31h-.81c-.78 0-1.15.36-1.15 1 0 .5.12.76.77 1.5l2.38 2.71 2.37-2.6.66-.7c.2-.2.33-.56.33-.9 0-.75-.33-1-1.23-1h-.45V6.87h14.38Z" class="w"/><path d="m172.21 17.27-13.15 11.79 3.75 13.21 6.57-.14 2.83-24.86z" class="n"/><path d="M236.82 55.24c4.97-4.23 8.76-10.53 8.76-20.32 0-19.56-15.66-32.2-39.9-32.2-12.78 0-22.26 2.9-29.85 9.1a31.6 31.6 0 0 0-11.37 24.2c0 12.59 8.36 22.45 19.03 22.45 1.88 0 3.7-.31 5.4-.9v2.96a18.29 18.29 0 0 0-6.59-1.2c-11.3 0-19.82 9.93-19.82 23.08 0 8.18 2.8 15 8.58 20.87 7.97 7.97 21.48 12.9 35.28 12.9 24.57 0 42.4-15.26 42.4-36.29 0-10.55-4.14-18.97-11.92-24.65Z" class="n"/><path d="M195.78 51.55c1.18.16 2.1.16 2.63.16 8.72 0 14-5.19 14-14 0-8.33-6.07-13.68-15.31-13.68-6.34 0-10.17 1.89-13.48 6.76 1.98-.46 2.78-.62 3.7-.62 4.23 0 7.53 4.24 7.53 9.75 0 7.23-5.02 13.05-11.36 13.05-6.87 0-12.15-6.76-12.15-15.57 0-7.23 3.3-14.31 8.85-18.87 6.34-5.19 14.4-7.55 25.49-7.55 20.47 0 33.02 9.6 33.02 25.32 0 10.54-5.15 16.67-17.3 20.76 13.34 3.45 20.47 11.79 20.47 24.21 0 17.3-14.66 29.4-35.53 29.4-11.89 0-23.77-4.24-30.38-10.84-4.49-4.56-6.6-9.6-6.6-16.04 0-9.28 5.55-16.2 12.94-16.2 6.87 0 11.76 5.5 11.76 13.21 0 6.6-3.57 11.48-8.46 11.48-.39 0-1.18 0-1.98-.16 3.3 3.94 7.27 5.5 13.6 5.5 10.7 0 17.7-6.92 17.7-17.13 0-7.87-4.35-13.68-11.62-15.26-1.71-.47-3.17-.47-7.52-.47v-13.2Z" style="fill:url(#j)"/><path d="M287.23 106.63c0-.39-.04-.75-.09-1.1.39-.94.68-2.05.8-3.38.37-3.95-1.08-6.44-2.37-7.84-1.84-2.01-4.2-2.6-5.46-2.9l-11.8-2.91-1.12 11.8.42.44-.39 4.07-.48.27-.22 2.32-5.19-.43-1.07 11.41.46.38-.4 4.36-.54.37-1.13 12.02 21.22-1.22 1.54-16.39.26.03 4.96.5 1.08-11.48-.48-.32ZM242.32 115c.33-3.5-.76-6.5-3.01-8.44a8.87 8.87 0 0 0-2.84-1.66c.14-.6.25-1.23.32-1.9v-.07c.11-1.17.08-2.3-.1-3.35l.84-8.94-2.26-1.88a11.73 11.73 0 0 0-8.46-2.67c-2.76.16-4.92 1-6.61 2.55-2.39 2.2-2.97 4.5-3.25 6.68l-.05.5c-.05.54-.13 1.4-.05 2.39l-.85 8.99 1.47 1.78c.7.85 1.74 1.82 3.21 2.59l-.28 2.96-1.32 14.03 10.65 2.67c.59.14 1.41.35 2.39.44 1.6.15 3.58 0 5.54-1.25 1.67-1.06 3.74-3.24 4.16-7.67.14-1.56.02-3-.35-4.31.42-.95.72-2.09.85-3.44Z" class="n"/><path d="M286.08 87a3.91 3.91 0 0 0-2.96-4.1l-27.83-6.95c-.38-.1-.77-.13-1.17-.1l-28.64 1.62a3.91 3.91 0 0 0-3.66 3.47 154.1 154.1 0 0 0-.88 12.35c-.4 13.24 1.16 23.8 4.53 30.55 1.5 3.01 3.7 6 6.56 8.88a57.86 57.86 0 0 0 8.23 6.8 73.5 73.5 0 0 0 6.02 3.73l.54.3a3.91 3.91 0 0 0 3.01.27l.64-.2a73.37 73.37 0 0 0 6.55-2.52 57.85 57.85 0 0 0 9.36-5.15 34.97 34.97 0 0 0 8.1-7.5c4.56-5.99 8.07-16.08 10.16-29.15.63-3.99 1.11-8.12 1.44-12.3Z" class="n"/><path d="M280.77 98.68c-1.98 12.44-5.23 21.92-9.4 27.41a31.1 31.1 0 0 1-7.2 6.64 54 54 0 0 1-8.73 4.8 69.73 69.73 0 0 1-6.2 2.38l-.58.18 5.68-60.34 27.83 6.94c-.25 3.25-.67 7.44-1.4 11.99Z" class="z"/><path d="M224.85 93.41c-.38 12.6 1.04 22.52 4.12 28.69a31.1 31.1 0 0 0 5.84 7.86 54 54 0 0 0 7.67 6.34 69.75 69.75 0 0 0 5.64 3.5l.54.3 5.68-60.35-28.63 1.62c-.36 3.24-.73 7.43-.86 12.04Z" class="r"/><circle cx="253.67" cy="87.17" r="16.26" class="n"/><circle cx="253.67" cy="87.17" r="13.37" style="fill:url(#k)"/><path d="m238.58 110.8.01-.05h-.03l.02.06ZM270.26 90.58h.05" class="y"/><path d="m243.85 81.15 1.25-.06.77 3.5 1.52-3.62 1-.05.86 3.52 1.44-3.6 1.22-.06-2.31 5.37-1.02.04-.88-3.38-1.52 3.5-1.02.04-1.31-5.2ZM252.7 80.74l1.16-.05-.5 5.25-1.16.05.5-5.25ZM256.1 82.22l-1.58-.37.1-1.07 4.3 1.03-.1 1.06-1.58-.37-.4 4.18-1.14-.27.4-4.19ZM259.65 81.98l1.14.27-.2 2.08 2.1.5.2-2.08 1.14.27-.5 5.25-1.13-.27.2-2.1-2.1-.5-.2 2.1-1.14-.27.5-5.25Z" class="n"/><path d="M279.33 94.67s-25.55-6.49-25.79-6.5l-4.2 44.65 27.46-1.71 1.71-18.03.82-18.41Zm3.84 13.08Z" class="z"/><path d="m227.69 89.42-4.94 36.6 26.6 6.8 4.2-44.66-25.86 1.26Zm10.89 21.39-.02-.05h.03l-.01.05Z" class="r"/><path d="M276.6 107.57c-.05.56-.14 1.13.28 1.54l-.25 2.68-4.86-.5.26-2.8c.53-.3.54-.9.6-1.48l.67-7.08c.05-.6.15-1.17-.3-1.65l.26-2.8 5.44 1.34c.91.22 2.04.48 2.75 1.27.86.92 1.05 2.22.93 3.54-.15 1.58-.65 2.9-2.01 3.1v.03c1.08.53 1.39 1.2 1.25 2.68l-.08.83c-.05.49-.11 1.2.3 1.47l-.25 2.56-3.87-.4c-.08-.83-.11-1.54.17-4.04.11-1.2.07-1.8-.96-2l-.16-.03-.16 1.74Zm.46-4.77.38.07c.82.15 1.12-.33 1.22-1.38.09-.96-.11-1.54-.93-1.71l-.38-.09-.3 3.1Z" class="z"/><path d="m283.6 114.75-14.26-1.45.58-6.17.48-.28v-.05l.69-7.24v-.03l-.42-.44.6-6.4 8.04 1.97c1.05.26 2.64.65 3.8 1.93.81.87 1.75 2.51 1.5 5.25a7.06 7.06 0 0 1-1.02 3.24c.83.86.6 3.54.6 3.54l-.58 6.13Z" class="z"/><path d="m264.82 129.55.28-2.93c.59-.4.6-1.02.65-1.63l.7-7.41c.06-.62.17-1.23-.35-1.64l.28-2.94 5.32.44-.26 2.8c-.54.34-.55.94-.6 1.53l-.77 8.13.4-.01c1.07-.03 1.13-.78 1.22-1.77l.24-2.54 3.52.04-.7 7.36-9.93.57Z" class="z"/><path d="m262.35 131.94.62-6.58.54-.36v-.06l.01-.16.71-7.49-.46-.38.6-6.32 9.77.8-.58 6.15-.49.31-.01.13-.13 1.38 4.97.05-1.1 11.7-14.45.83Z" class="z"/><path d="M237.75 118.16c.61-.8 1.08-1.9 1.23-3.48.22-2.37-.45-4.37-1.88-5.6-1.42-1.23-3.13-1.41-4.38-1.54l-1.05-.11a8.43 8.43 0 0 0 1.78-4.74v-.08a9.24 9.24 0 0 0-.37-3.64h.3l.65-6.88-.9-.76a8.37 8.37 0 0 0-6.13-1.89c-1.95.11-3.43.66-4.53 1.67-1.52 1.4-1.95 2.76-2.2 4.63l-.03.4a41.6 41.6 0 0 0-.12 3.1l-.65 6.9.59.7a7.37 7.37 0 0 0 4.2 2.48l-.34 3.59-.65 7-.58 6.1 7.85 1.96c.55.14 1.2.3 1.91.37a5.2 5.2 0 0 0 3.4-.75c1.49-.93 2.4-2.7 2.63-5.15a7.46 7.46 0 0 0-.73-4.28Z" class="r"/><path d="m270.78 111.2-11.22-1.15.29-3.1c.65-.34.65-1 .71-1.65l.74-7.85c.06-.65.18-1.3-.39-1.83l.3-3.12 11.08 2.74-.51 5.4-4.02-.8.05-.5c.1-1.12.01-1.6-1.22-1.87l-.28-.06-.28 2.99 2.87.54-.3 3.2-2.88-.47-.32 3.38.28.04c1.38.18 1.42-.4 1.56-1.75l.05-.54 4.04.62-.55 5.78Zm11.06-1.46-.25 2.56-3.87-.4c-.08-.83-.11-1.54.17-4.04.11-1.2.07-1.8-.96-2l-.16-.03-.16 1.74c-.06.56-.15 1.13.27 1.54l-.25 2.68-4.86-.5.26-2.8c.53-.3.54-.9.6-1.48l.67-7.08c.05-.6.15-1.17-.3-1.65l.26-2.8 5.44 1.34c.91.22 2.04.48 2.75 1.27.86.92 1.05 2.22.93 3.54-.15 1.58-.65 2.9-2.01 3.1v.03c1.08.53 1.39 1.2 1.25 2.68l-.08.83c-.05.49-.11 1.2.3 1.47Zm-3.18-8.25c.09-.96-.11-1.54-.93-1.71l-.38-.09-.3 3.1.4.08c.8.15 1.1-.33 1.2-1.38Zm-18.7 22.78c-.11 1.1-.17 1.92-1.47 1.96h-.5l.84-8.98c.07-.66.07-1.32.72-1.7l.3-3.1-6.54-.53-.3 3.26c.63.47.5 1.15.44 1.83l-.78 8.23c-.06.68-.06 1.36-.79 1.81l-.3 3.27 12.15-.7.77-8.11-4.28-.05-.27 2.81Zm11.73-.15c-.1 1-.15 1.74-1.21 1.77l-.41.01.76-8.13c.06-.59.07-1.19.6-1.53l.27-2.8-5.32-.44-.28 2.94c.52.41.4 1.02.35 1.64l-.7 7.4c-.06.62-.06 1.24-.65 1.64l-.28 2.93 9.93-.57.7-7.36-3.52-.04-.24 2.54Zm-18.31-20.06-1.3-.18v-.02l-.75-.03c-.09.9-.22 1.6.44 2.07l-.31 3.32-6.73-.58.3-3.14c.67-.38.68-1.05.74-1.71l.75-8c.06-.67.19-1.33-.41-1.73l.3-3.14 6.92-.38v.02l.4.1c1.54.38 3.55.85 4.66 2.11 1.77 2 1.24 4.78 1.2 5.23l-.14 1.4c-.32 3.37-1.58 5.3-6.07 4.66Zm.75-6.57c.15-1.68.3-2.62-1.17-3.02v-.02h-.2l-.55.01-.51 5.44.54.01h.2v.01c1.5.19 1.53-.78 1.69-2.43Zm-3.35 29.6-.31 3.29-.9.05-6.07-1.52.3-3.16c.43-.07.66-.36.7-.84.02-.2 0-.37-.03-.54l-2.5-.53c-.05.15-.1.33-.12.5-.05.48.15.88.58 1.1l-.3 3.13-5.39-1.35.28-2.99c.55-.28.69-1.14.89-1.76l3.2-11.8 7.47.78 1.39 13.82c0 .12.02.28.05.44.08.57.26 1.24.76 1.38Zm-6.45-6.3-.37-5.4h-.04l-1.3 5.1 1.7.3Zm-13.1-18.31v-.08c.07-.73.05-1.49-.1-2.17a2.55 2.55 0 0 0-.88-1.51c-.76-.66-2-1.07-2.9-1.37-.3-.1-.83-.3-1.01-.59-.18-.24-.18-.54-.15-.83.05-.56.35-1 .83-1.02.75-.02.68.92.61 1.6l-.02.27 3.73-.03.35-3.7a6.15 6.15 0 0 0-4.56-1.38c-1.13.07-2.3.3-3.14 1.08-1.02.94-1.3 1.73-1.5 3.28l-.03.32c-.29 3.11.86 3.8 3 4.54 1.02.35 1.8.5 1.65 2.06-.05.54-.34 1.15-.85 1.12a.73.73 0 0 1-.63-.53c-.1-.32-.02-.98.06-1.87l-3.54-.13-.37 3.88c1.04 1.26 2.57 1.76 4.09 1.9 3.74.33 5.07-1.81 5.35-4.84Zm1.9-6.47-.6 6.44c-.13 1.7-.15 3.04.91 4.33.94 1.12 2.38 1.42 3.7 1.54 1.35.12 2.92.08 4.19-.93 1.49-1.2 1.76-2.65 1.97-4.5l.67-7.06c.06-.65.06-1.3.8-1.73l.29-3.11-5.76.31-.28 2.97c.57.38.46 1 .41 1.63l-.72 7.67c-.03.34-.18 1.2-1.04 1.15-.85-.05-.84-.9-.8-1.24l.7-7.55c.06-.61.07-1.23.66-1.63l.28-2.95-5.43.3-.26 2.8c.47.36.37.96.31 1.56Zm3.12 26.22c-.13 1.36-.55 2.82-1.58 3.46-1.1.71-2.38.41-3.58.11l-6-1.5.26-2.69c.45-.13.54-.58.6-1.1l.7-7.41c.03-.52.03-.99-.38-1.28l.26-2.69 5.87.62c1.09.11 2.32.22 3.23 1.02 1.02.88 1.25 2.32 1.12 3.7-.18 1.91-.97 3.1-2.63 3.34v.04c1.82.6 2.31 2.43 2.13 4.38Zm-5.8-6.5.28.05c.93.15 1.43-.02 1.54-1.22.12-1.18-.39-1.51-1.27-1.63l-.28-.04-.27 2.84Zm1.3 5.02c.12-1.23-.2-1.79-1.22-1.98l-.36-.07-.32 3.43.36.08c1.02.23 1.43-.18 1.55-1.46Z" style="fill:url(#l)"/></g></g></g></svg>