<svg xmlns="http://www.w3.org/2000/svg" xmlns:xlink="http://www.w3.org/1999/xlink" viewBox="0 0 303.08 135.41"><defs><radialGradient id="d" cx="250.92" cy="63.77" r="49.82" fx="250.92" fy="63.77" gradientTransform="translate(-15.68047 -.00009) scale(.90294)" gradientUnits="userSpaceOnUse"><stop offset=".24" stop-color="#c91b89"/><stop offset=".43" stop-color="#bd1b7f"/><stop offset=".75" stop-color="#9e1c67"/><stop offset=".95" stop-color="#891d56"/></radialGradient><radialGradient id="e" cx="170.73" cy="105.83" r="24.63" fx="170.73" fy="105.83" gradientTransform="translate(-12.16461 50.93264) rotate(-.02248) scale(.90569 .36331)" gradientUnits="userSpaceOnUse"><stop offset=".18" stop-color="#191c1f"/><stop offset="1" stop-color="#fff" stop-opacity="0"/></radialGradient><radialGradient id="f" cx="170.52" cy="82.38" r="22.45" fx="170.52" fy="82.38" gradientTransform="translate(-12.87081 -4.6544) rotate(-.02278) scale(.89345)" gradientUnits="userSpaceOnUse"><stop offset="0" stop-color="#fff"/><stop offset=".43" stop-color="#4db755"/><stop offset=".55" stop-color="#41ae52"/><stop offset=".75" stop-color="#22974a"/><stop offset=".95" stop-color="#007e42"/></radialGradient><radialGradient xlink:href="#e" id="g" cx="136.48" cy="115.4" r="29.55" fx="136.48" fy="115.4" gradientTransform="translate(-12.16259 55.95376) rotate(-.02248) scale(.90569 .36331)"/><radialGradient id="h" cx="135.54" cy="87.25" r="26.94" fx="135.54" fy="87.25" gradientTransform="translate(-12.87081 -4.6544) rotate(-.02278) scale(.89345)" gradientUnits="userSpaceOnUse"><stop offset=".01" stop-color="#fff"/><stop offset=".46" stop-color="#c91b89"/><stop offset=".58" stop-color="#bd1b7f"/><stop offset=".81" stop-color="#9e1c67"/><stop offset=".95" stop-color="#891d56"/></radialGradient><radialGradient xlink:href="#e" id="i" cx="97.53" cy="123.63" r="32.02" fx="97.53" fy="123.63" gradientTransform="translate(-12.16085 60.27742) rotate(-.02248) scale(.90569 .36331)"/><radialGradient id="j" cx="95.31" cy="93.13" r="29.18" fx="95.31" fy="93.13" gradientTransform="translate(-12.87081 -4.6544) rotate(-.02278) scale(.89345)" gradientUnits="userSpaceOnUse"><stop offset=".01" stop-color="#fff"/><stop offset=".5" stop-color="#ffcd31"/><stop offset=".6" stop-color="#fdc12e"/><stop offset=".78" stop-color="#f7a228"/><stop offset=".95" stop-color="#f28121"/></radialGradient><radialGradient xlink:href="#e" id="k" cx="53.75" cy="133.23" r="37.93" fx="53.75" fy="133.23" gradientTransform="translate(-12.15882 65.31252) rotate(-.02248) scale(.90569 .36331)"/><radialGradient id="l" cx="48.57" cy="97.09" r="34.57" fx="48.57" fy="97.09" gradientTransform="translate(-12.87081 -4.6544) rotate(-.02278) scale(.89345)" gradientUnits="userSpaceOnUse"><stop offset="0" stop-color="#fff"/><stop offset=".47" stop-color="#29aae1"/><stop offset=".55" stop-color="#299ed8"/><stop offset=".7" stop-color="#297fc1"/><stop offset=".88" stop-color="#294e9c"/><stop offset=".95" stop-color="#293b8e"/></radialGradient><radialGradient xlink:href="#l" id="m" cx="314" cy="81.17" r="18.34" fx="314" fy="81.17" gradientTransform="translate(10.90468 -30.42023) rotate(5.37166) scale(.86264)"/><radialGradient id="n" cx="247.33" cy="278.6" r="69.57" fx="247.33" fy="278.6" gradientTransform="translate(91.59998 -88.54523) rotate(5.38138) scale(.77638 .62166)" gradientUnits="userSpaceOnUse"><stop offset=".24" stop-color="#fff38a"/><stop offset=".48" stop-color="#ffcd31"/></radialGradient><style>.q{fill:#fff}.u{fill:#d51540}.ab{fill:#3a3d94}.ae{fill:#b80e36}</style></defs><g style="isolation:isolate"><g id="b"><g id="c"><path d="M250.4 56.22h-6.63V.5h-32.76l-2.16 2.8-26.37 33.99v-1.94a7.15 7.15 0 0 0-3.16-5.94v-.28l7.5-8.25.07-.07a7.18 7.18 0 0 0 6.03-7.07V7.17a7.2 7.2 0 0 0-7.2-7.17h-15.07a7.3 7.3 0 0 0-1.5.16c-.5-.1-1-.16-1.51-.16h-21.3c-1.56 0-3 .5-4.18 1.35A7.19 7.19 0 0 0 137.97 0h-18.96c-.6 0-1.17.1-1.72.23a7.15 7.15 0 0 0-1.72-.23H96.64a7.19 7.19 0 0 0-7.2 7.17V8.4l-1.35-3.68A7.2 7.2 0 0 0 81.31 0H67.97a7.2 7.2 0 0 0-6.78 4.74L59.28 10c-.2-.27-.37-.55-.57-.81-3.56-4.63-8.9-7.58-15.58-8.55C40.15.24 35.84 0 31.6 0H15.94a7.19 7.19 0 0 0-7.21 7.17v6.58a7.15 7.15 0 0 0 3.13 5.91v9.78a7.15 7.15 0 0 0-3.13 5.92v6.57a7.19 7.19 0 0 0 7.2 7.17h19.88c6.18 0 10.05-.33 13.97-2.03a7.19 7.19 0 0 0 5.01 2.03H71.4c.53 0 1.05-.06 1.55-.17.5.11 1 .17 1.54.17H94.4c.39 0 .76-.06 1.12-.11.37.05.74.1 1.12.1h18.93c.6 0 1.17-.08 1.72-.22.55.14 1.12.23 1.72.23h34.42a7 7 0 0 0 1.78-.25 7.1 7.1 0 0 0 1.79.25h16.33l-7.67 9.9-1.5 1.94v24.68h25.6v28.35h67.86V56.22h-7.21Z" class="q"/><path d="M236.57 63.38h13.84v15.08h-13.84l.13 4.91c.14 7.21 1.11 8.52 7.07 8.52h6.64v14.91h-53.44V91.9h7.48c5.96 0 7.06-1.32 7.06-8.53l.14-4.91h-40.28V63.38l43.19-55.7h22v55.7Zm-24.92-29.33-23.54 29.33h23.54V34.05Z" style="fill:url(#d)"/><path d="M166.53 89.31c0 5.35-10.7 9.69-23.88 9.7-13.2 0-23.9-4.33-23.9-9.68s10.7-9.69 23.89-9.7c13.19 0 23.89 4.33 23.9 9.68Z" style="fill:url(#e);mix-blend-mode:multiply"/><path d="M161.15 72.43c0 9.96-8.12 18.05-18.15 18.05a18.1 18.1 0 0 1-18.16-18.04A18.1 18.1 0 0 1 143 54.38a18.1 18.1 0 0 1 18.16 18.05Z" style="fill:url(#f)"/><path d="M140.33 97.82c0 6.42-12.84 11.62-28.66 11.63-15.83 0-28.67-5.19-28.67-11.6 0-6.42 12.83-11.63 28.65-11.64 15.84 0 28.67 5.2 28.68 11.6Z" style="fill:url(#g);mix-blend-mode:multiply"/><path d="M134.23 77.56a21.73 21.73 0 0 1-21.78 21.66 21.73 21.73 0 0 1-21.8-21.65 21.72 21.72 0 0 1 21.79-21.67c12.03 0 21.79 9.7 21.8 21.66Z" style="fill:url(#h)"/><path d="M107.46 105.15c0 6.95-13.91 12.59-31.06 12.6-17.14 0-31.05-5.62-31.05-12.58 0-6.95 13.9-12.6 31.05-12.6 17.14 0 31.05 5.63 31.06 12.58Z" style="mix-blend-mode:multiply;fill:url(#i)"/><path d="M100.46 83.2a23.54 23.54 0 0 1-23.6 23.47 23.54 23.54 0 0 1-23.6-23.45 23.54 23.54 0 0 1 23.6-23.48c13.02 0 23.6 10.5 23.6 23.45Z" style="fill:url(#j)"/><path d="M73.58 113.68c0 8.24-16.47 14.92-36.8 14.93-20.3 0-36.78-6.66-36.78-14.9s16.47-14.92 36.78-14.92c20.32-.02 36.8 6.65 36.8 14.9Z" style="fill:url(#k);mix-blend-mode:multiply"/><path d="M63.9 87.67c0 15.36-12.52 27.8-27.96 27.8A27.87 27.87 0 0 1 7.97 87.7c0-15.36 12.5-27.8 27.95-27.81a27.88 27.88 0 0 1 27.97 27.78Z" style="fill:url(#l)"/><path d="M15.94 35.36h.39c1.93 0 2.74-1.3 2.74-4.28V18.03c0-2.98-.81-4.28-2.74-4.28h-.4V7.17H31.6c3.82 0 7.87.21 10.57.57 4.68.69 8.4 2.67 10.81 5.8 2.19 2.87 3.31 6.68 3.31 11.22 0 6.58-2.54 11.8-7.04 14.51-3.6 2.2-6.22 2.66-13.44 2.66H15.94v-6.57Zm18.8-.32c3.05 0 4.2-.63 5.28-2.86.86-1.83 1.25-4.03 1.25-7.36 0-5.54-.78-8.4-2.63-9.71-1.06-.8-2.1-1.05-4.5-1.05H31.9v20.98h2.83ZM90.2 31.5c1.11 3.13 1.89 3.86 3.86 3.86h.34v6.57H74.5v-6.62h1.06c1.3 0 2.2-.73 2.2-1.89 0-.41-.23-1.3-.48-1.93h-8.63l-.17.63c-.17.63-.21.94-.21 1.25 0 1.47.5 1.94 1.93 1.94h1.2v6.62H54.8v-6.57h.25c1.97 0 3.04-.95 3.9-3.3l9.02-24.9H81.3L90.2 31.5Zm-14.6-5.54L73 18.03l-2.62 7.93h5.24ZM115.57 41.93H96.64v-6.57h.38c1.94 0 2.75-1.3 2.75-4.28V18.03c0-2.98-.81-4.28-2.75-4.28h-.38V7.17h18.93v6.58h-.39c-1.97 0-2.74 1.3-2.74 4.28v13c0 3.02.77 4.33 2.7 4.33h.43v6.57ZM139.13 35.2c2.72 0 4.13-2.14 4.13-6.32v-2.82h10.17v15.87h-34.42v-6.57h.38c1.94 0 2.75-1.3 2.75-4.28V18.03c0-2.98-.81-4.28-2.75-4.28H119V7.17h18.96v6.58h-.38c-1.93 0-2.75 1.3-2.75 4.28V35.2h4.3Z" class="ab"/><path d="M185.71 7.17v6.58h-.3c-1.5 0-2.28.47-4 2.4l-9.3 10.23v4.64c0 3.03.81 4.34 2.74 4.34h.43v6.57H157v-6.57h.38c1.93 0 2.75-1.26 2.75-4.28v-4.7l-9.1-10.02c-2.02-2.14-2.66-2.61-4.08-2.61h-.6V7.17h21.29v6.58h-.86c-.81 0-1.2.36-1.2 1.04 0 .52.13.79.81 1.57l2.5 2.82 2.48-2.72.69-.72c.21-.22.34-.58.34-.95 0-.78-.34-1.04-1.29-1.04h-.46V7.17h15.06Z" class="ab"/><path d="M302.31 98.04c0-.39-.04-.76-.09-1.1.4-.94.68-2.05.8-3.38.37-3.95-1.08-6.44-2.37-7.84-1.84-2.01-4.2-2.6-5.46-2.9l-11.8-2.92-1.12 11.82.42.43-.39 4.06-.48.28-.22 2.32-5.18-.43-1.08 11.41.46.38-.4 4.36-.54.37-1.13 12.02 21.22-1.22 1.54-16.39.26.03 4.96.5 1.08-11.48-.48-.32ZM257.4 106.4c.33-3.49-.75-6.5-3.01-8.43a8.87 8.87 0 0 0-2.84-1.66c.14-.6.26-1.24.32-1.9v-.08c.12-1.16.08-2.28-.1-3.34l.84-8.94-2.26-1.88a11.73 11.73 0 0 0-8.46-2.67c-2.76.16-4.92 1-6.61 2.55-2.38 2.2-2.97 4.5-3.25 6.68l-.05.5c-.05.54-.13 1.39-.05 2.39l-.85 8.98 1.47 1.78c.7.86 1.74 1.83 3.21 2.6l-.28 2.96-1.32 14.03 10.65 2.67c.59.14 1.42.35 2.39.44 1.6.15 3.58 0 5.54-1.25 1.67-1.06 3.74-3.24 4.16-7.67.14-1.56.02-3.01-.35-4.31.42-.96.72-2.1.85-3.44Z" class="q"/><path d="M301.16 78.4a3.91 3.91 0 0 0-2.96-4.1l-27.83-6.94c-.38-.1-.77-.13-1.17-.11l-28.63 1.63a3.91 3.91 0 0 0-3.67 3.47 154.1 154.1 0 0 0-.88 12.35c-.4 13.24 1.17 23.8 4.53 30.55 1.5 3.01 3.7 6 6.56 8.88a57.86 57.86 0 0 0 8.23 6.8 73.5 73.5 0 0 0 6.02 3.73l.54.29a3.91 3.91 0 0 0 3.01.28l.64-.2a73.37 73.37 0 0 0 6.55-2.52 57.85 57.85 0 0 0 9.36-5.15 34.97 34.97 0 0 0 8.1-7.5c4.56-6 8.08-16.08 10.16-29.16.63-3.98 1.12-8.12 1.44-12.3Z" class="q"/><path d="M295.85 90.09c-1.98 12.44-5.23 21.92-9.4 27.4a31.1 31.1 0 0 1-7.2 6.65 54 54 0 0 1-8.73 4.8 69.73 69.73 0 0 1-6.2 2.38l-.58.18 5.69-60.34 27.83 6.94c-.25 3.25-.68 7.44-1.4 11.99Z" class="ae"/><path d="M239.93 84.82c-.38 12.6 1.04 22.51 4.12 28.69a31.1 31.1 0 0 0 5.84 7.86 54 54 0 0 0 7.67 6.34 69.75 69.75 0 0 0 5.65 3.5l.53.29 5.69-60.34-28.64 1.62c-.36 3.24-.72 7.43-.86 12.04Z" class="u"/><circle cx="268.75" cy="78.58" r="16.26" class="q"/><circle cx="268.75" cy="78.58" r="13.37" style="fill:url(#m)"/><path d="m253.66 102.21.01-.05h-.03l.02.05Z" style="fill:none"/><path d="m258.93 72.55 1.25-.05.77 3.5 1.52-3.62 1-.05.86 3.52 1.44-3.6 1.22-.06-2.31 5.36-1.02.05-.88-3.38-1.52 3.49-1.02.05-1.31-5.2ZM267.77 72.15l1.17-.05-.49 5.24-1.17.06.5-5.25ZM271.18 73.63l-1.58-.37.1-1.07 4.3 1.02-.1 1.07-1.58-.38-.4 4.19-1.13-.27.39-4.19ZM274.73 73.39l1.14.27-.2 2.08 2.1.5.2-2.08 1.14.27-.5 5.25-1.13-.27.2-2.1-2.1-.5-.2 2.1-1.14-.27.5-5.25Z" class="q"/><path d="M294.41 86.08s-25.55-6.49-25.79-6.51l-4.2 44.66 27.46-1.72 1.71-18.02.82-18.41Zm3.84 13.08Z" class="ae"/><path d="m242.77 80.83-4.94 36.6 26.6 6.8 4.2-44.66-25.86 1.26Zm10.9 21.38c-.02-.01-.03-.03-.03-.05h.03v.05Z" class="u"/><path d="M291.69 98.98c-.06.56-.15 1.13.27 1.54l-.25 2.68-4.86-.5.26-2.8c.54-.3.55-.9.6-1.49l.67-7.08c.05-.58.15-1.16-.3-1.64l.26-2.8 5.44 1.34c.91.22 2.04.48 2.76 1.27.85.91 1.04 2.22.92 3.53-.15 1.6-.65 2.91-2.01 3.1v.04c1.08.53 1.39 1.2 1.25 2.67l-.08.83c-.05.5-.11 1.2.3 1.48l-.24 2.56-3.88-.4c-.08-.83-.1-1.55.17-4.05.11-1.19.07-1.8-.96-2l-.16-.02-.16 1.74Zm.45-4.77.38.07c.82.15 1.12-.33 1.22-1.38.09-.96-.11-1.54-.93-1.71l-.38-.09-.3 3.1Z" class="ae"/><path d="m298.69 106.16-14.27-1.45.58-6.17.48-.28v-.06l.69-7.23v-.04l-.42-.43.6-6.4 8.04 1.97c1.05.26 2.64.65 3.8 1.93.81.87 1.75 2.5 1.5 5.24a7.06 7.06 0 0 1-1.02 3.25c.83.86.6 3.54.6 3.54l-.58 6.13Z" class="ae"/><path d="m279.9 120.96.28-2.93c.59-.4.6-1.02.65-1.64l.7-7.4c.06-.62.17-1.23-.34-1.65l.27-2.93 5.32.44-.26 2.8c-.54.34-.55.94-.6 1.53l-.77 8.13.41-.01c1.06-.03 1.12-.78 1.21-1.77l.24-2.54 3.52.04-.7 7.36-9.93.57Z" class="ae"/><path d="m277.43 123.34.62-6.57.54-.36v-.07l.02-.15.7-7.49-.46-.38.6-6.32 9.77.8-.58 6.15-.49.31-.01.13-.13 1.38 4.97.05-1.1 11.7-14.45.82Z" class="ae"/><path d="M252.83 109.57c.61-.8 1.08-1.9 1.23-3.48.22-2.38-.45-4.37-1.88-5.6-1.42-1.24-3.13-1.42-4.38-1.55l-1.04-.1a8.43 8.43 0 0 0 1.77-4.75v-.07a9.24 9.24 0 0 0-.37-3.65h.3l.65-6.87-.9-.76a8.37 8.37 0 0 0-6.13-1.89c-1.95.11-3.43.66-4.53 1.67-1.52 1.4-1.95 2.75-2.2 4.63l-.03.4c-.12 1.26-.12 3.1-.12 3.1l-.65 6.89.59.71a7.37 7.37 0 0 0 4.2 2.48l-.33 3.58-.66 7-.58 6.1 7.85 1.97c.55.14 1.2.3 1.92.37a5.2 5.2 0 0 0 3.4-.75c1.48-.93 2.39-2.71 2.62-5.16a7.46 7.46 0 0 0-.73-4.27Z" class="u"/><path d="m285.86 102.6-11.22-1.14.29-3.11c.65-.33.65-1 .71-1.64l.74-7.85c.07-.65.18-1.3-.38-1.84l.29-3.1 11.08 2.72-.51 5.4-4.02-.79.05-.5c.1-1.12.01-1.61-1.22-1.88l-.28-.06-.28 3 2.87.54-.3 3.2-2.88-.47-.32 3.38.28.04c1.38.18 1.42-.4 1.56-1.75l.05-.54 4.04.62-.55 5.78Zm11.06-1.45-.24 2.56-3.88-.4c-.08-.83-.1-1.55.17-4.05.11-1.19.07-1.8-.96-2l-.16-.02-.16 1.74c-.06.56-.15 1.13.27 1.54l-.25 2.68-4.86-.5.26-2.8c.54-.3.55-.9.6-1.49l.67-7.08c.05-.58.15-1.16-.3-1.64l.26-2.8 5.44 1.34c.91.22 2.04.48 2.76 1.27.85.91 1.04 2.22.92 3.53-.15 1.6-.65 2.91-2.01 3.1v.04c1.08.53 1.39 1.2 1.25 2.67l-.08.83c-.05.5-.11 1.2.3 1.48Zm-3.18-8.25c.09-.96-.11-1.54-.93-1.71l-.38-.09-.3 3.1.4.08c.8.15 1.1-.33 1.2-1.38Zm-18.7 22.78c-.1 1.09-.17 1.92-1.47 1.95l-.5.02.84-9c.07-.65.07-1.3.72-1.68l.3-3.1-6.54-.54-.3 3.26c.63.46.5 1.15.44 1.83l-.78 8.23c-.06.68-.06 1.36-.78 1.81l-.31 3.26 12.15-.7.77-8.1-4.28-.05-.27 2.8Zm11.73-.15c-.09.99-.15 1.74-1.21 1.77l-.41.01.76-8.13c.06-.6.07-1.19.6-1.53l.27-2.8-5.32-.44-.27 2.93c.5.42.4 1.03.34 1.65l-.7 7.4c-.06.62-.06 1.23-.65 1.64l-.28 2.93 9.94-.57.69-7.36-3.52-.04-.24 2.54Zm-18.31-20.06-1.3-.18v-.02l-.75-.03c-.09.9-.22 1.6.44 2.07l-.31 3.32-6.72-.58.3-3.15c.66-.37.67-1.04.73-1.7l.75-8c.06-.67.19-1.34-.41-1.73l.3-3.15 6.92-.37v.02l.4.1c1.54.38 3.55.85 4.66 2.11 1.77 2 1.24 4.77 1.2 5.23l-.14 1.4c-.32 3.37-1.57 5.3-6.07 4.66Zm.75-6.58c.16-1.67.3-2.62-1.17-3.01v-.02h-.75l-.51 5.45.54.01h.2v.01c1.5.18 1.53-.78 1.69-2.44Zm-3.35 29.6-.3 3.3-.9.05-6.08-1.52.3-3.16c.43-.07.66-.36.7-.84.02-.2 0-.37-.03-.54l-2.5-.53c-.05.15-.1.33-.12.5-.05.48.15.88.58 1.1l-.3 3.13-5.39-1.35.29-2.99c.54-.28.68-1.14.88-1.76l3.2-11.8 7.47.78 1.39 13.81.05.45c.08.57.26 1.24.76 1.38Zm-6.45-6.29-.37-5.4H259l-1.3 5.09 1.71.31Zm-13.1-18.32v-.07c.07-.73.05-1.49-.1-2.17a2.55 2.55 0 0 0-.88-1.51c-.76-.66-2-1.07-2.9-1.37-.3-.1-.83-.31-1.01-.59-.18-.24-.18-.54-.15-.83.05-.56.35-1 .83-1.02.75-.02.68.92.62 1.59l-.03.28 3.73-.03.35-3.7a6.15 6.15 0 0 0-4.56-1.38c-1.13.07-2.3.3-3.14 1.08-1.02.94-1.3 1.72-1.5 3.28l-.02.32c-.3 3.11.85 3.8 3 4.54 1.01.35 1.8.5 1.65 2.05-.06.55-.34 1.16-.86 1.13a.73.73 0 0 1-.63-.53c-.1-.32-.02-.98.06-1.87l-3.54-.13-.37 3.88c1.04 1.26 2.57 1.76 4.09 1.9 3.74.33 5.07-1.81 5.35-4.85Zm1.9-6.47-.6 6.45c-.13 1.7-.15 3.04.92 4.32.93 1.13 2.37 1.43 3.69 1.55 1.35.12 2.92.08 4.19-.93 1.49-1.2 1.76-2.65 1.97-4.5l.67-7.06c.06-.65.06-1.3.8-1.73l.29-3.11-5.76.31-.28 2.97c.57.37.46 1 .41 1.63l-.72 7.67c-.03.33-.18 1.2-1.04 1.14-.85-.05-.84-.9-.8-1.23l.7-7.55c.06-.62.07-1.23.66-1.64l.28-2.94-5.43.3-.26 2.8c.47.36.37.96.31 1.55Zm3.12 26.23c-.13 1.36-.55 2.82-1.58 3.46-1.1.71-2.38.41-3.58.11l-6-1.5.26-2.69c.45-.13.54-.59.6-1.1l.7-7.42c.03-.51.03-.98-.38-1.27l.26-2.69 5.88.62c1.08.11 2.31.22 3.22 1.02 1.02.88 1.25 2.32 1.12 3.7-.18 1.9-.97 3.1-2.63 3.34v.04c1.82.6 2.31 2.43 2.13 4.38Zm-5.8-6.5.28.04c.93.15 1.43-.01 1.55-1.21.1-1.18-.4-1.51-1.28-1.63l-.28-.04-.27 2.84Zm1.3 5.02c.12-1.23-.2-1.79-1.22-1.98l-.36-.07-.32 3.43.36.08c1.02.22 1.43-.18 1.55-1.46Z" style="fill:url(#n)"/></g></g></g></svg>