<svg xmlns="http://www.w3.org/2000/svg" id="b" viewBox="0 0 457.08 141.28"><defs><style>.e{fill:#008ea8}.f{fill:#dc1e35}</style></defs><g id="c"><g id="d"><path d="M404.61 38.4c-30.25 0-52.65 23.46-52.65 51.44s22.58 51.44 52.65 51.44c30.44 0 52.47-23.46 52.47-51.44S434.87 38.4 404.61 38.4Zm0 81.99c-16.94 0-29.02-13.2-29.02-30.57 0-17.33 11.53-30.53 29.02-30.53 17.13 0 28.84 13.2 28.84 30.55 0 17.36-11.17 30.55-28.84 30.55ZM269.45 58.46V43.9a2.38 2.38 0 0 0-2.38-2.38h-17.83a2.38 2.38 0 0 1-2.38-2.38V19.67a2.38 2.38 0 0 0-2.38-2.38h-17.82a2.38 2.38 0 0 0-2.38 2.38v19.46a2.38 2.38 0 0 1-2.38 2.38h-17.83a2.38 2.38 0 0 0-2.38 2.38v14.57a2.38 2.38 0 0 0 2.38 2.38h17.83a2.38 2.38 0 0 1 2.38 2.38v53.25c0 12 9.72 21.72 21.72 21.72h16.91a2.46 2.46 0 0 0 2.46-2.48l-.09-17.86a2.38 2.38 0 0 0-2.38-2.37h-8.89a7.15 7.15 0 0 1-7.15-7.14V63.22a2.38 2.38 0 0 1 2.38-2.38h17.83a2.38 2.38 0 0 0 2.38-2.38Z" class="e"/><path d="M35.45 5.73a2.9 2.9 0 0 1 2.92-2.92 2.9 2.9 0 0 1 2.91 2.92v7.8h10.76v-7.8a2.9 2.9 0 0 1 2.92-2.92 2.9 2.9 0 0 1 2.91 2.92v21.13a2.9 2.9 0 0 1-2.91 2.92 2.9 2.9 0 0 1-2.92-2.92v-7.95H41.28v7.95a2.9 2.9 0 0 1-2.91 2.92 2.9 2.9 0 0 1-2.92-2.92V5.73ZM63.02 16.37v-.07c0-7.54 5.94-13.71 14.12-13.71S91.2 8.69 91.2 16.22v.08c0 7.53-5.95 13.7-14.12 13.7s-14.05-6.1-14.05-13.63Zm22.07 0v-.07c0-4.55-3.33-8.34-8.02-8.34-4.7 0-7.96 3.72-7.96 8.26v.08c0 4.54 3.33 8.33 8.03 8.33s7.95-3.71 7.95-8.26ZM94.89 16.37v-.07c0-7.54 5.94-13.71 14.12-13.71s14.05 6.1 14.05 13.63v.08c0 7.53-5.94 13.7-14.12 13.7s-14.05-6.1-14.05-13.63Zm22.08 0v-.07c0-4.55-3.34-8.34-8.03-8.34-4.7 0-7.96 3.72-7.96 8.26v.08c0 4.54 3.34 8.33 8.03 8.33s7.96-3.71 7.96-8.26ZM127.4 26.75a2.72 2.72 0 0 1-1.1-2.2 2.68 2.68 0 0 1 2.72-2.69c.76 0 1.29.27 1.67.53 2 1.48 4.2 2.39 6.77 2.39 2.39 0 3.83-.95 3.83-2.5v-.08c0-1.47-.91-2.23-5.34-3.37-5.34-1.36-8.79-2.84-8.79-8.1v-.08c0-4.8 3.87-7.99 9.28-7.99 3.22 0 6.02.84 8.4 2.35a2.66 2.66 0 0 1 1.3 2.31 2.68 2.68 0 0 1-2.73 2.69 2.8 2.8 0 0 1-1.48-.42c-1.93-1.13-3.75-1.78-5.56-1.78-2.24 0-3.41 1.03-3.41 2.31v.08c0 1.74 1.13 2.3 5.72 3.48 5.37 1.4 8.4 3.34 8.4 7.96v.07c0 5.27-4.01 8.22-9.73 8.22-3.48 0-7-1.06-9.96-3.18ZM152.38 5.73a2.9 2.9 0 0 1 2.92-2.92 2.9 2.9 0 0 1 2.92 2.92v21.13a2.9 2.9 0 0 1-2.92 2.92 2.9 2.9 0 0 1-2.92-2.92V5.73ZM164.84 26.63V5.96a2.9 2.9 0 0 1 2.92-2.92h14.69a2.62 2.62 0 0 1 2.61 2.61 2.59 2.59 0 0 1-2.61 2.58h-11.82v5.38h10.12c1.43 0 2.6 1.17 2.6 2.61s-1.17 2.58-2.6 2.58h-10.12v5.56h12a2.62 2.62 0 0 1 2.62 2.62 2.59 2.59 0 0 1-2.61 2.57h-14.88a2.9 2.9 0 0 1-2.92-2.92ZM190.3 5.96a2.9 2.9 0 0 1 2.9-2.92h9.2c3.38 0 6 .95 7.73 2.7 1.48 1.47 2.28 3.55 2.28 6.05v.08c0 4.16-2.09 6.74-5.3 8.06l4.05 4.92c.57.72.94 1.33.94 2.24a2.71 2.71 0 0 1-2.76 2.69 3.5 3.5 0 0 1-2.88-1.52l-5.68-7.2h-4.66v5.8a2.9 2.9 0 0 1-2.91 2.92 2.9 2.9 0 0 1-2.92-2.92V5.96Zm11.73 9.96c2.84 0 4.47-1.52 4.47-3.75v-.08c0-2.5-1.74-3.78-4.58-3.78h-5.8v7.6h5.91Z" class="f"/><path d="M146.22 38.4c-30.25 0-52.65 23.46-52.65 51.44a50.9 50.9 0 0 0 10.1 30.5H52.49c-17.69 0-28.9-13.18-28.9-30.5V2.4A2.41 2.41 0 0 0 21.19 0H2.4A2.41 2.41 0 0 0 0 2.41v87.43c0 27.98 22.33 51.41 52.48 51.41h92.44c.44 0 .86.03 1.3.03.44 0 .87-.02 1.31-.03a54.84 54.84 0 0 0 17.31-3.14 50.94 50.94 0 0 0 33.85-48.27c0-27.98-22.21-51.44-52.47-51.44Zm1.65 81.95h-3.24c-16.1-.8-27.43-13.7-27.43-30.53 0-17.33 11.53-30.53 29.02-30.53 17.13 0 28.84 13.2 28.84 30.55 0 16.82-10.48 29.71-27.2 30.5ZM313.96 41.63a1.7 1.7 0 0 0 2.42 0l10.14-10.14V19.67a2.38 2.38 0 0 0-2.38-2.38H306.3a2.38 2.38 0 0 0-2.38 2.38V31.6l10.03 10.03ZM305.63 52.38a1.7 1.7 0 0 0 0-2.41l-8.46-8.46h-13.45a2.38 2.38 0 0 0-2.38 2.38v14.57a2.38 2.38 0 0 0 2.38 2.38h13.45l8.46-8.46ZM346.73 41.5h-13.56l-8.49 8.5c-.65.65-.65 1.7 0 2.35l8.5 8.5h13.55a2.38 2.38 0 0 0 2.38-2.39V43.9a2.38 2.38 0 0 0-2.38-2.38ZM342.56 115.48h-8.9a7.15 7.15 0 0 1-7.14-7.14V70.86l-10.14-10.14a1.7 1.7 0 0 0-2.42 0l-10.03 10.03v45.72c0 12 9.72 21.72 21.72 21.72h16.91a2.46 2.46 0 0 0 2.47-2.48l-.1-17.86a2.38 2.38 0 0 0-2.37-2.37Z" class="e"/></g></g></svg>