<svg xmlns="http://www.w3.org/2000/svg" id="b" viewBox="0 0 284.81 144"><defs><style>.d{fill:#e84c38}.e{fill:none}.f{fill:#492365}</style></defs><g id="c"><path d="M66.77 36.13C65.5 35 64 34.14 62.3 33.58a13.12 13.12 0 0 0-5.5-.53c-1.94.2-3.77.76-5.48 1.68a16.55 16.55 0 0 0-7.51 8.3c-.74 1.79-1.1 3.66-1.1 5.6 0 1.95.36 3.74 1.1 5.38a12.27 12.27 0 0 0 7.5 6.72c1.72.56 3.55.73 5.5.53 1.94-.2 3.78-.76 5.49-1.68a16.52 16.52 0 0 0 7.5-8.3c.74-1.79 1.11-3.66 1.11-5.6 0-1.95-.37-3.75-1.1-5.38a12.35 12.35 0 0 0-3.03-4.17Z" class="e"/><path d="m269.73 52.53-6.97 20.25-6.05-19.07-9.66.87-6.97 20.25-6.05-19.07-15.08 1.36 17.01 46.79 11.18-1.01 4.02-17.64 3.21 16.98 11.18-1.01 19.26-50.06-15.08 1.36zM211.72 57.77l-10.78.97-17.81 45.7-6.38-11.1.7-.55c1.2-.95 2.3-2.1 3.28-3.42.82-1.14 1.6-2.61 2.31-4.35.7-1.7 1.08-3.77 1.13-6.15.07-3.01-.4-5.66-1.43-7.87a13.96 13.96 0 0 0-4.33-5.4 17.51 17.51 0 0 0-6.74-3 28.24 28.24 0 0 0-8.64-.45l-16.44 1.49-1.12 48.42 14.2-1.28.35-15.27 8.7 14.45 12.7-1.14v.01l13.82-1.25 1.77-4.67 16.6-1.5 1.56 4.37 13.83-1.25-17.28-46.76Zm-44.3 27.25a10.8 10.8 0 0 1-5.42 1.92l-1.78.16.3-13.07 1.78-.16c2.1-.19 3.9.13 5.36.95 1.6.9 2.38 2.54 2.32 4.88-.05 2.35-.91 4.14-2.56 5.32Zm33.32 8.38 5.07-12.86 4.5 12-9.57.86ZM91.42 120.97l.15.51 1.22 4.17-.04.06-.26-.15-12.74-7.62-.07.12a53.34 53.34 0 0 1-2.36 3.83l13.06 7.8-.02.03-5.88.52 16.8 3.45.3.06-10.16-12.78ZM56.05 103.82l-1.73-1-.14-.09-.47-.28-1.77-1.03-.85-.5-1.09-.63-1.36-.8-.73-.43-.2-.11L35.83 92l-2.21-4.43-14.17-9.28.13.25 3.46 6.85 1 1.98-.1.22-2.76.1-7.4.25L29 96.15l.06.03 4.4-.46.21-.02 11.92 7.25.77.47 1.26.76 1.12.68.86.53 1.77 1.08.47.28.18.11 1.68 1.02 1.92 1.17a6.44 6.44 0 0 0 2.42-4.06l-1.99-1.17Z" class="d"/><path d="M125.54 81.67c-.46-3-1.68-5.28-3.66-6.82-2.63-2.04-6.4-2.86-11.2-2.43l-1.14.1-.5 21.17-.16 7.13 1.15-.1c4.8-.44 8.62-1.95 11.36-4.52 2.79-2.6 4.26-6.33 4.37-11.07.03-1.24-.05-2.4-.22-3.46Z" class="e"/><path d="M142.27 78.08c-.31-2.53-.9-4.84-1.75-6.9a20.1 20.1 0 0 0-6.46-8.44 23.92 23.92 0 0 0-7.35-3.66c-1.08-.33-2.2-.62-3.37-.85a53.1 53.1 0 0 0-14.85-.51l-1.72.15-1.54 3.17-11.41 23.44-1.65 3.39-.69 29.43 15.66-1.42c5.55-.5 10.58-1.59 14.93-3.24 4.3-1.64 8-3.83 10.98-6.52a27.64 27.64 0 0 0 6.88-9.64 34.39 34.39 0 0 0 2.6-12.86c.05-1.95-.04-3.8-.26-5.54Zm-32.24 22.64-1.15.1.17-7.13.49-21.16 1.14-.1c4.8-.44 8.57.38 11.2 2.42 1.98 1.54 3.2 3.83 3.66 6.82.17 1.07.25 2.22.22 3.46-.11 4.74-1.58 8.47-4.37 11.07-2.74 2.57-6.56 4.08-11.36 4.52Z" class="d"/><path d="m255.57 0-17.34 1.57L227 15.88l.31-13.33-14.43 1.3-1.12 48.42 14.42-1.31.41-17.64 11.78 16.54 17.12-1.54-17.43-24.76L255.57 0zM181.89 22.7a14.1 14.1 0 0 1 3.79-2.79 12.9 12.9 0 0 1 4.7-1.33c1.6-.14 3.05-.07 4.31.22a24 24 0 0 1 3.15.93l.07.03c.65.32 1.26.66 1.84 1L207 7.86a24.38 24.38 0 0 0-3.9-1.7A30.71 30.71 0 0 0 190.1 4.7c-3.5.31-6.86 1.22-9.99 2.68a28.28 28.28 0 0 0-13.98 14.38 28 28 0 0 0-2.28 10.7c-.08 3.78.5 7.21 1.73 10.2 1.23 3 3 5.53 5.26 7.53s5.02 3.5 8.18 4.45a27.9 27.9 0 0 0 10.5.9c2.82-.25 5.37-.77 7.56-1.55 2.22-.79 4.15-1.6 5.73-2.43 1.5-.81 2.86-1.71 4.03-2.67l-6.66-11.59a19.08 19.08 0 0 1-5.35 3.2c-1.35.56-2.9.92-4.61 1.07-1.73.16-3.35 0-4.8-.47a10.57 10.57 0 0 1-3.79-2.1 9.84 9.84 0 0 1-3.36-7.84c.04-1.58.38-3.12 1.02-4.57.63-1.44 1.5-2.75 2.6-3.88ZM142.39 58.51l15.17-1.37 1.13-48.41-15.18 1.37-1.12 48.41zM122.52 54.37a29.3 29.3 0 0 1 7.44 2.46c.22-.19.44-.36.65-.56a17.29 17.29 0 0 0 4.11-6.1 23.86 23.86 0 0 0 1.6-8.45l.72-31.04-14.27 1.3-.7 30.34a8.03 8.03 0 0 1-1.41 4.74c-.94 1.25-2.44 1.98-4.46 2.16-2.01.18-3.48-.28-4.37-1.36-.84-1.02-1.24-2.53-1.2-4.5l.71-30.36-14.2 1.28-.71 31.04c-.08 3.18.33 5.94 1.21 8.2.16.4.35.8.54 1.2l9.47-.87c5.55-.5 10.55-.33 14.87.52Z" class="f"/><path d="M73.68 73.29c3.95 0 8.2 1.92 11.47 4.44l3.85-.4 3.42-.36.82-.09.1-.2 8.53-17.47.44-.91-1.39.14-8.1.85-.54.06-4.05.43.01-.02a37.85 37.85 0 0 0 3.82-16.3c0-4.84-.92-9.31-2.77-13.42a30.8 30.8 0 0 0-7.56-10.44 31 31 0 0 0-11.23-6.38 32.82 32.82 0 0 0-13.7-1.33c-4.84.5-9.4 1.9-13.7 4.2a41.01 41.01 0 0 0-18.8 20.76 36.45 36.45 0 0 0-2.77 14c0 4.84.92 9.31 2.77 13.42a30.72 30.72 0 0 0 7.56 10.44 30.91 30.91 0 0 0 11.23 6.38 32.17 32.17 0 0 0 12.74 1.41c7.47-7.32 13.56-9.21 17.85-9.21Zm-3.88-22a16.45 16.45 0 0 1-7.51 8.29 14.76 14.76 0 0 1-5.5 1.68c-1.94.2-3.77.03-5.48-.53A12.27 12.27 0 0 1 43.8 54a12.88 12.88 0 0 1-1.12-5.38c0-1.94.37-3.81 1.11-5.6a16.4 16.4 0 0 1 7.5-8.3 14.78 14.78 0 0 1 5.5-1.68c1.94-.2 3.78-.03 5.49.53 1.71.56 3.2 1.41 4.48 2.55a12.35 12.35 0 0 1 3.03 4.17 12.9 12.9 0 0 1 1.1 5.37c0 1.95-.37 3.82-1.1 5.61Z" class="f"/><path d="M86.27 84.1c-1.46-2.07-4.37-4.36-7.4-5.7a11.97 11.97 0 0 0-4.92-1.19 5.7 5.7 0 0 1 3.44 1.34c1.33 1.12 2.34 2.88 2.86 5.28 1.31 6.07-.5 16.13-8 29.63a111.26 111.26 0 0 1-2.35 4 73.38 73.38 0 0 1-9.18 11.94c-4.75 4.92-9.43 8.04-13.25 9.29-2.62.85-4.85.82-6.41-.12a5.49 5.49 0 0 1-1.56-1.44c2.28 3.5 8.81 6.41 11 6.78.22.04.45.06.68.08 1.92.12 3.75-.6 5.4-1.25a24.28 24.28 0 0 0 4.2-2.18c4.06-2.62 7.5-6.18 10.49-9.96 1.96-2.47 3.54-5.17 5.37-7.72l.61-.88.07-.1a53.34 53.34 0 0 0 2.36-3.84l.07-.12a93.32 93.32 0 0 0 3.97-8.18 53.87 53.87 0 0 0 4.18-13.8c.56-3.91.63-8.67-1.63-11.87Z" class="f"/><path d="M45.65 127.57c3.12 1.86 11.63-3.88 18.86-16.32 8.17-14.02 8.1-22.36 4.98-24.22-2.97-1.77-10.36 3.06-17.55 14.4l1.77 1.02.47.28c4.27-6.54 9.35-10.53 11.1-9.49 1.9 1.14.63 8.56-3.84 16.16s-10.43 12.48-12.33 11.34c-1.72-1.02-.76-7.21 2.73-13.99l-.47-.28-1.77-1.09c-6.4 11.63-6.9 20.43-3.95 22.19Z" class="f"/><path d="m55.62 109.05-1.92-1.17c-1.39 3.02-1.77 5.58-1.04 6.01.91.54 3.88-2 6.17-5.9 2.29-3.9 3.03-7.65 2.12-8.19-.75-.45-2.89 1.22-4.9 4.02l2 1.17a6.44 6.44 0 0 1-2.43 4.06ZM105.77 121.07l2.27-.2-.76 9.1 6.75-9.66 1.84-.16-.67 9.12 6.69-9.61 2.48-.22-9.4 13.1-2 .17.58-8.7-6.57 9.22-1.96.17.75-12.33ZM127.07 119.2l2.2-.19-5.04 12.62-2.2.2 5.04-12.63ZM135 120.5l-3.95.34.83-2.06 10.06-.88-.83 2.06-3.93.34-4.23 10.57-2.18.2 4.23-10.58ZM144.56 117.67l2.2-.19-2.1 5.25 5.83-.51 2.1-5.25 2.17-.19-5.04 12.62-2.18.2 2.12-5.32-5.83.5-2.12 5.32-2.2.2 5.05-12.63ZM163.32 116.03l5.5-.48c3.8-.33 4.53.98 4.32 2.5-.21 1.5-1.4 2.83-3.36 3.5 1.13.19 1.86.98 1.69 2.24-.3 2.08-2.2 3.9-6.44 4.27l-6.75.6 5.04-12.63Zm2.26 8.9c1.01-.08 1.68-.58 1.76-1.2.08-.52-.33-.73-1.22-.65l-1.79.16-.75 1.87 2-.17Zm1.7-4.46c1.07-.1 1.62-.6 1.69-1.14.07-.5-.29-.69-1.18-.6l-1.71.14-.7 1.77 1.9-.17ZM173.54 123.18c.09-.64.27-1.33.54-2.02l2.52-6.29 4.22-.37-2.63 6.57c-.14.36-.24.7-.28.98-.14 1.02.39 1.5 1.49 1.4a2.34 2.34 0 0 0 1.4-.63c.42-.4.74-.9 1.13-1.87l2.71-6.78 4.22-.37-2.98 7.43a10.63 10.63 0 0 1-2.46 3.87 8.37 8.37 0 0 1-5.13 2.05c-3.49.3-5.14-1.19-4.75-3.97ZM191.2 113.6l4.14-.37-3.6 9.02 5.65-.5-1.44 3.6-9.8.87 5.04-12.63ZM202.47 112.6l4.14-.35-3.6 9.01 5.66-.5-1.45 3.61-9.8.86 5.05-12.62ZM209.24 122.23l2.76-3.03a5.36 5.36 0 0 0 3.94 1.38c.53-.04.93-.27.98-.62.05-.39-.16-.5-1.88-1-2.18-.65-3.15-1.36-2.9-3.18a4.9 4.9 0 0 1 1.55-2.83 7.66 7.66 0 0 1 4.63-1.97c2.22-.2 4.09.34 5.27 1.36l-2.76 3.03a4.84 4.84 0 0 0-3.39-1.06c-.53.04-.92.22-.97.57-.05.37.2.42 1.83.9 2 .6 3.23 1.36 2.97 3.24a5.1 5.1 0 0 1-1.6 3 7.66 7.66 0 0 1-4.63 1.91c-2.47.22-4.49-.47-5.8-1.7ZM226.55 110.5l10.58-.92-1.39 3.46-6.5.57-.51 1.28 6.06-.53-1.21 3.04-6.06.53-.56 1.37 6.59-.57-1.37 3.46-10.67.93 5.04-12.62ZM239.51 116.9l-1.36-7.41 4.35-.38.44 4.03 3.8-4.4 4.9-.43-8.18 8.75-1.71 4.3-4.15.35 1.91-4.8ZM252.72 108.21l10.58-.92-1.4 3.46-6.5.57-.5 1.28 6.05-.53-1.2 3.04-6.07.53-.55 1.38 6.59-.58-1.38 3.46-10.66.93 5.04-12.62ZM10.9 71.97c-2.58-2.3-4.6-5.1-6.1-8.4a26.01 26.01 0 0 1-2.22-10.81c0-3.9.74-7.66 2.23-11.28a33.04 33.04 0 0 1 7.9-11.53A28.89 28.89 0 0 0 1.96 43.11 25.82 25.82 0 0 0 0 53.03c0 3.42.65 6.6 1.96 9.5A21.36 21.36 0 0 0 12.7 73.44c-.62-.46-1.22-.95-1.8-1.47Z" class="f"/><path d="m19.03 73.84-.28-.24a27.73 27.73 0 0 1-6.83-9.43 29.15 29.15 0 0 1-2.5-12.1c0-4.37.83-8.58 2.5-12.64a37.03 37.03 0 0 1 6.83-10.86l.28-.3c.63-.68 1.28-1.34 1.96-1.97A32.93 32.93 0 0 0 9.08 41.06a29.36 29.36 0 0 0-2.23 11.27c0 3.9.74 7.5 2.23 10.8a24.75 24.75 0 0 0 7.9 9.89c1.24.91 2.58 1.7 4 2.38a26.87 26.87 0 0 1-1.95-1.56Z" class="f"/><path d="m27.3 75.15-.94-.9a30.9 30.9 0 0 1-6.61-9.54 32.3 32.3 0 0 1-2.77-13.41c0-4.84.92-9.5 2.77-14a41.1 41.1 0 0 1 12.04-16.27 37.3 37.3 0 0 0-8.5 6.82l-.27.3A37.03 37.03 0 0 0 16.19 39a32.9 32.9 0 0 0-2.5 12.63c0 4.37.84 8.4 2.5 12.1a27.73 27.73 0 0 0 6.83 9.44l.28.24a26.87 26.87 0 0 0 8.49 5.03 29.89 29.89 0 0 1-4.48-3.3Z" class="f"/></g></svg>