<svg xmlns="http://www.w3.org/2000/svg" id="b" viewBox="0 0 354.5 158.4"><defs><style>.d{fill:#fff}.e{fill:#0072bc}.g{fill:#231f20}</style></defs><g id="c"><path d="M99.2 0c26.5 0 45 6.2 54.9 18.5 5 6.2 7.6 13.6 7.6 22a46 46 0 0 1-4.4 19.7l-1 2.1h4a12.5 12.5 0 0 1 12 9.5l.3 1 1.1.2c3.2.3 6.3 1 9 2l.6.3.6-.3c1.8-1 3.7-1.4 5.6-1.4h13.8c2 0 4.1.6 6 1.7l1.7 1 .5-1.9c9.7-31.3 36.8-47.2 80.5-47.2 26.5 0 45 6.3 54.9 18.5 5 6.3 7.6 13.7 7.6 22a46 46 0 0 1-23.8 40l-3.8 2.2 4.3.5a12.4 12.4 0 0 1 10.7 15l-5 23c-1.2 5.8-6.3 10-12.2 10H205.3a12.5 12.5 0 0 1-12.5-12.5v-.7l.4-2.3h-1.7l-7.3-.4a12.5 12.5 0 0 1-11.3-9.9l-.3-1.4-1.5.3c-3 .7-5.8 1-8.3 1-3.1 0-6.2-.5-9.3-1.5l-.4-.2-.3.1c-1 .2-1.6.2-2.2.2h-138A12.4 12.4 0 0 1 0 118.6a77.6 77.6 0 0 1 32.7-50.8l4-2.8h-6.5a12.6 12.6 0 0 1-12-15.9C27.1 16.5 54.5 0 99.1 0Z" class="e"/><path d="M146.6 73.8c-1.1 0-2.1.8-2.3 2l-9.4 43.7a2.4 2.4 0 0 0 2.4 3h12.4c1 0 1.9-.7 2.2-1.6 2.7 1.8 6.1 2.9 10 2.9 13 0 22.6-7.5 25.2-19.6 1-5.4.1-10.3-2.8-14-3.2-3.9-8.4-6-15-6-3.3 0-6.6.9-9.7 2.5l2.2-10v-.5a2.4 2.4 0 0 0-2.4-2.4h-12.8Z" class="d"/><path d="M137 120.3s-.1-.2 0-.4l9.2-43.8c0-.2.2-.3.4-.3h12.8c.1 0 .2 0 .3.2l.1.2v.1l-2.6 12.1-.5 2.4 2-1.3a19 19 0 0 1 10.7-3.3c5.9 0 10.5 1.9 13.3 5.3 2.6 3.2 3.4 7.5 2.4 12.3-2.4 11-11.3 18-23.2 18-4 0-7.5-1.2-9.9-3.3l-1.3-1.2-.6 2.8c0 .2-.2.4-.4.4h-12.4c-.1 0-.2 0-.3-.2Z" class="g"/><path d="M27 53.3a2.4 2.4 0 0 0 2.3 3H66c1.1 0 2-.6 2.4-1.7 4-13.2 17.2-15.2 24.8-15.2 9.6.1 13 2.6 14.2 4.1 1 1.2 1.2 2.6.9 4.4-.8 3.7-5.1 7-11.3 8.6h.2l-26.7 7c-26.3 7-52 18.5-61.3 55.9l-.1.6c0 .6.2 1 .5 1.5.5.6 1.2 1 2 1H131c1.1 0 2.1-.9 2.3-2l5-23c.1-.8 0-1.5-.5-2.1-.5-.6-1.2-1-2-1H62.8c7.3-3.8 17.7-6.2 29.4-8.6 24.6-5.1 52.4-10.9 57.8-36.5.6-2.5.8-5 .8-7.4 0-6-1.8-11.3-5.3-15.7-7.8-9.6-24.1-14.7-47-14.7-40.2 0-63.6 13.6-71.5 41.8Z" class="d"/><path d="M98.3 13.5c22.4 0 38 4.8 45.5 14 3.3 4 5 8.9 5 14.4 0 2.2-.3 4.6-.8 7-5.2 24.3-32.3 30-56.3 34.9-13.6 2.8-25.5 5.6-33.2 10.9L56 96.5h80c.2 0 .3 0 .4.2v.3l-4.8 23c0 .3-.2.4-.4.4H11.6l-.3-.1c-.1-.1-.1-.3 0-.4 9-36.4 34.1-47.7 59.8-54.4l26.5-7c7-1.8 11.8-5.7 12.7-10.2a7 7 0 0 0-1.2-6c-1.7-2.2-5.9-4.8-15.8-4.9-8.2 0-22.4 2.2-26.7 16.7-.1.1-.3.3-.5.3H29.3l-.4-.2a.5.5 0 0 1 0-.4c7.6-27.1 30.3-40.3 69.4-40.3Z" style="fill:#ed1c24"/><path d="M218.5 85c-.8 0-1.6.5-2 1.2l-8.9 14.2-2.8-13.4c-.3-1.1-1.3-2-2.4-2h-13.8a2.4 2.4 0 0 0-2.5 2.5l.1.7 8.5 29.5-1.4 2c-.5.6-1 1.2-4.3 1.2h-3c-1.2 0-2.2.9-2.5 2l-1.7 8v.6a2.4 2.4 0 0 0 2.3 2.4l9 .3c9.1 0 12.3-3.6 15.8-8.7l25-36.6a2.4 2.4 0 0 0-2-3.8h-13.4Z" class="d"/><path d="m208 103.6 10.1-16.3c.1-.2.3-.2.4-.2H232c.1 0 .3 0 .3.2a.4.4 0 0 1 0 .5l-25 36.6c-3.4 4.9-6 7.8-14.2 7.8l-9-.3-.2-.2-.1-.2v-.2l1.7-8c0-.2.2-.4.4-.4h3.1c4 0 5-1 6-2l1.9-2.8-8.7-30.5v-.4l.4-.1h13.8c.2 0 .4.1.4.3l3.9 18.3 1.3-2.1Z" class="g"/><path d="M154 102.2c-.4 1.6-.5 3.9.8 5.5 1.1 1.5 3.2 2.2 6 2.2 5.7 0 9.2-2.7 10.3-8 .5-2.4.3-4.3-.8-5.6-1.4-1.7-4-2-6-2-5.4 0-9.3 2.9-10.4 7.9Z" class="d"/><path d="m155.7 104.2.2-1.6c.9-4.1 3.9-6.4 8.4-6.4 2.2 0 3.8.5 4.5 1.4.6.8.8 2.1.4 4-1 4.2-3.7 6.3-8.4 6.3-2.1 0-3.7-.5-4.4-1.4-.5-.6-.7-1.5-.7-2.3Z" class="e"/><path d="M51.7 137.2h5.5l-2.7 12.4 8.2-6.1h6.8l-8.3 6.1 6.2 8.2h-7.6l-5.4-7.8-1.6 7.8h-5.5l4.4-20.6ZM72 147.7c1.1-3.7 5.6-4.8 9.3-4.8 5.6 0 8.5 1.4 7.5 6.2l-1.2 5.5-.5 3.2h-5.3l.3-2.3a8.5 8.5 0 0 1-6.8 2.8c-4.1 0-6.1-1.6-5.5-4.6.7-3.4 4.2-5 9.6-5h4c.5-2.2-.5-2.8-2.6-2.8-2 0-2.8.8-3 1.8H72Zm8.5 3.8c-3.7 0-4.6 1-4.9 2.2-.2.9.5 1.5 2 1.5 3.6 0 4.9-2.2 5.2-3.7h-2.3ZM93.9 146.4l.5-3h5.3l-.4 2.6c1.8-1.9 4.2-3 6.7-3 5.3 0 6.6 2.9 5.8 6.6l-1.7 8.2h-5.5l1.6-7.3c.4-2.3-.2-4-2.7-4-2.2 0-4.6 1.8-5.2 5l-1.4 6.3h-5.4l2.4-11.4ZM119.5 153.3c-.1.8 0 1.3.4 1.6.3.4 1 .5 1.7.5 1.1 0 2.9-.2 3.1-1.6.3-1-1-1.3-2-1.5l-3.7-.6c-2.6-.4-4-1.8-3.5-4 .9-4 5.7-4.8 8.8-4.8 6.3 0 7.6 1.8 7 4.8H126c0-.7-.1-1.2-.4-1.4-.4-.3-1.2-.4-1.9-.4-.9 0-2.1.4-2.3 1.3-.2 1 1 1.2 2.2 1.4l3.6.6c3 .5 3.9 2 3.4 4.3-1 4.4-6.6 4.8-9.8 4.8-7.1 0-7-2.9-6.8-5h5.6ZM135.5 147.7c1-3.7 5.5-4.8 9.2-4.8 5.6 0 8.5 1.4 7.5 6.2l-1.2 5.5-.5 3.2h-5.3l.3-2.3a8.5 8.5 0 0 1-6.8 2.8c-4 0-6.1-1.6-5.5-4.6.7-3.4 4.2-5 9.6-5h4c.5-2.2-.5-2.8-2.6-2.8-2 0-2.8.8-3 1.8h-5.7Zm8.4 3.8c-3.7 0-4.6 1-4.9 2.2-.2.9.5 1.5 2 1.5 3.6 0 4.9-2.2 5.2-3.7h-2.3ZM160.3 153.3c-.1.8 0 1.3.4 1.6.3.4 1 .5 1.7.5 1.1 0 2.9-.2 3.2-1.6.2-1-1-1.3-2.1-1.5l-3.7-.6c-2.6-.4-4-1.8-3.5-4 1-4 5.7-4.8 8.9-4.8 6.2 0 7.5 1.8 7 4.8h-5.5c0-.7-.1-1.2-.4-1.4-.4-.3-1.2-.4-1.9-.4-.9 0-2.1.4-2.3 1.3-.2 1 1 1.2 2.2 1.4l3.6.6c3 .5 3.9 2 3.4 4.3-1 4.4-6.6 4.8-9.7 4.8-7.2 0-7.2-2.9-6.9-5h5.6ZM75.6 67.5l26.5-7c7-1.8 11.8-5.7 12.7-10.2a7 7 0 0 0-1.2-6 12 12 0 0 0-6.3-3.7c.8.6 1.4 1.1 1.8 1.7a7 7 0 0 1 1.2 6c-1 4.5-5.8 8.4-12.7 10.1l-26.5 7C45.4 72.3 20.4 83.6 11.2 120v.4l.4.1h4.5c9.4-35.2 34.1-46.3 59.5-53ZM102.8 15.5c13 0 23.6 1.6 31.8 4.7a80.5 80.5 0 0 0-36.3-6.7c-39.1 0-61.8 13.2-69.5 40.3v.1l.1.3.4.2h4.5c8-26.2 30.6-39 69-39ZM58.4 100h77.4l.6-3a.4.4 0 0 0-.4-.5H63.3l-.3.2-4.6 3.3Z" class="g"/><path d="M219.5 80.3a2.4 2.4 0 0 0 2.4 3.2h36.8c1.1 0 2-.8 2.4-1.8 4-13.2 17.2-15.2 24.7-15.2 9.7.1 13.1 2.6 14.3 4 1 1.3 1.2 2.7.9 4.5-.8 3.7-5.1 7-11.3 8.6h.2l-26.7 7c-26.3 7-52 18.5-61.3 55.9l-.1.6c0 .5.2 1 .5 1.5.4.6 1.2 1 2 1h119.3c1.2 0 2.2-.9 2.4-2l5-23c.1-.8 0-1.5-.5-2.1-.5-.6-1.2-1-2-1h-73.2c7.3-3.8 17.7-6.2 29.4-8.7 24.6-5 52.4-10.8 57.8-36.4.6-2.5.8-5 .8-7.4 0-6-1.8-11.3-5.3-15.7-7.8-9.6-24.1-14.7-47.1-14.7-40.1 0-63.5 13.6-71.4 41.7Z" class="d"/><path d="M290.9 40.6c22.4 0 38 4.8 45.5 14 3.3 4 5 8.9 5 14.4 0 2.2-.3 4.6-.8 7-5.2 24.3-32.3 30-56.3 34.9-13.6 2.8-25.6 5.6-33.2 10.8l-2.6 1.9h80l.4.1c0 .1.1.3 0 .4l-4.8 23c0 .3-.2.4-.5.4H204.2l-.3-.1-.1-.4c9.2-36.4 34.2-47.7 60-54.4l26.4-7c7-1.9 11.8-5.8 12.7-10.2a7 7 0 0 0-1.2-6c-1.7-2.2-5.9-4.8-15.8-4.9-8.2 0-22.4 2.2-26.8 16.6 0 .2-.2.3-.4.3H222l-.4-.1a.5.5 0 0 1 0-.4c7.6-27.1 30.3-40.3 69.4-40.3Z" class="d"/><path d="m268.2 94.6 26.5-7c6.9-1.9 11.8-5.8 12.7-10.2a7 7 0 0 0-1.2-6 12 12 0 0 0-6.3-3.7 7 7 0 0 1 3 7.7c-1 4.4-5.8 8.3-12.7 10.1l-26.5 7c-25.7 6.8-50.8 18-60 54.5l.2.4.3.1h4.5c9.4-35.2 34.1-46.3 59.5-53ZM295.4 42.6c13 0 23.6 1.6 31.8 4.7a80.5 80.5 0 0 0-36.3-6.7c-39.1 0-61.8 13.2-69.5 40.3v.1l.1.3.4.1h4.5c8-26.1 30.6-38.8 69-38.8ZM251 127h77.4l.6-3a.4.4 0 0 0-.5-.4H256l-.3.1-4.6 3.4Z" class="g"/></g></svg>