<svg xmlns="http://www.w3.org/2000/svg" id="b" viewBox="0 0 391.58 194.75"><defs><radialGradient id="e" cx="-764.12" cy="682.52" r=".46" fx="-764.12" fy="682.52" gradientTransform="translate(57064.33 -50829.558) scale(74.561)" gradientUnits="userSpaceOnUse"><stop offset="0" stop-color="#fff"/><stop offset=".07" stop-color="#fffdf4"/><stop offset=".2" stop-color="#fff8d9"/><stop offset=".37" stop-color="#fff0ad"/><stop offset=".56" stop-color="#ffe570"/><stop offset=".79" stop-color="#ffd723"/><stop offset=".88" stop-color="#ffd100"/><stop offset="1" stop-color="#ffd100"/></radialGradient><clipPath id="d"><path d="M57.32 73.42a44.44 44.44 0 1 0 88.89 0 44.44 44.44 0 0 0-88.89 0" style="fill:none"/></clipPath><style>.f{fill:#7b8689}.i{fill:#fed103}.j{fill:#004fa3}.k{fill:#e31f26}.n{fill:#2c2b7c}</style></defs><g id="c"><path d="M75.5 165.52c-6.1-2.02-11.96-4.2-17.5-6.48 9.41 5.94 21.36 11.25 34.1 15.04a126.7 126.7 0 0 0 17.08 4.1c1.96.32 3.5.54 5.24.73l.52-3.68c-11.86-1.77-25.25-5-39.44-9.71" class="i"/><path d="m271.3 97.78 14.11.01v-3.11l-14.13-.01.02 3.11zM288.52 94.68l-.01 5.02 2.22-.03v6.1a35.27 35.27 0 0 0 6.33 10.73c5.28 6.04 12.36 9.3 20.1 9.3.56 0 1.13-.02 1.7-.05 6.94-.42 13.67-4.02 18.72-9.83-4.56 3.97-10 6.38-15.61 6.72-.57.03-1.14.05-1.7.05-7.73 0-14.82-3.26-20.1-9.3-6.22-7.1-9.5-17.31-9.5-29.52 0-12.57 3.32-23.13 9.4-30.22l-.52.45c-5.62 5.05-9.4 12.62-11.04 21.86l.01 18.72ZM328.9 74.96c-1.12-3.1-3.22-4.96-5.75-5.1a6.3 6.3 0 0 0-4.8 1.83c-.6.56-1.15 1.24-1.64 2.03a6.08 6.08 0 0 1 3.33-.75c2 .11 3.7 1.3 4.9 3.3l8.45.26 11.63-5.44-.3-1.82c-.02-.12-.07-.23-.1-.34l-15.21 7.4-.5-1.37ZM157.27 158.26c.16-.9.35-1.78.6-2.65l4.92-17.08-2.26.13-4.62 16.04 1.36 3.56Z" class="f"/><path d="m317.09 79.21-.17 17.67c.28.38.58.74.9 1.05.53.52 1.09.93 1.68 1.24l5.2-.01a6.44 6.44 0 0 0 3.13-3.11l-7.83.01.17-16.74-3.08-.1ZM243.87 126.08l-2.44.15.04 2.92 46.15-2.71v-2.93l-43.04 2.53-1.16-85.13-3.16-.33.93 68.08 2.68 17.42zM271.12 68.93l15.86.93v-3.3l-15.88-.93.02 3.3zM387.23 134.93v-.03c-1.3-1.08-2.45-1.54-3.6-1.46-.23.02-.59.1-.67.4l.37.08 2.1.46c.59.12 1.2.3 1.8.55M380.06 146.19c.02 0 1.04-.15 1.07-.8v-.02l-.46-.08-1.93-.25a8.73 8.73 0 0 1-3.42-1.18l.5.48c1.5 1.37 2.93 2 4.24 1.84M373.84 142.68c-1.4-1.44-2.33-3.59-2.24-6.6.1-3.26 1.11-5.98 2.63-8.1-1.27.89-2.41 2.03-3.34 3.42l-.68 22.27 3.63-10.99ZM347.07 101.86l-5.3 21.41 19.63-1.15.51-2.96-17.02 1 16.58-67.01-2.28-.24-10.17 41.1a42.3 42.3 0 0 1-1.94 7.85M374.82 110.51l-8.9.35-.52 3.01 6.31-.25 1.11 7.84 17.22-1.02-.54-2.9-13.57.8-1.11-7.83zM359.34 137.03c-.02-.55-.02-1.1 0-1.65l.21-7.97-3.03.18-.08 3.26 2.9 6.18ZM197.17 128.82l-17.7 1.04L166 88.62a151.8 151.8 0 0 1-1.34-5.16 201.1 201.1 0 0 1-.2 4.4l-.41 7.41 12.33 37.7 20.03-1.17.77-2.98ZM322.82 164.65c-.93.12-1.86.19-2.76.19-4.15 0-7.89-1.32-10.74-3.83-3.62-3.18-5.51-7.95-5.48-13.78a22.13 22.13 0 0 1 4.79-13.82 20.94 20.94 0 0 0-6.6 9.38l-.05 15.06c.91 2.48 2.33 4.6 4.23 6.27 2.85 2.5 6.6 3.83 10.74 3.83.9 0 1.83-.07 2.76-.2 5.37-.72 9.91-3.4 13.07-7.31a20.25 20.25 0 0 1-9.96 4.2M240.31 126.3l-25.1 1.46-4.36-42.82c-.12.57-.26 1.14-.41 1.7l-2.04 7.84 3.7 36.4 28.66-1.69-.45-2.9ZM257.75 172.82l-.46-39.62-3.15.17.29 24.48 1.75-.2.2 15.36-1.77.24.03 2.69 27.96-3.75v-2.69l-24.85 3.32zM359.3 159.21l-5.75-11.49-.01.65-.2 8.27 2.85 5.69 10.8-1.45.07-2.7-7.76 1.03ZM380.76 156.81a17.24 17.24 0 0 1-9.85-1.72l-.72-.38-.1 3.05-2.49.34.2.1a17.24 17.24 0 0 0 9.85 1.72c3.2-.43 6.61-2.24 8.85-5.4a13.07 13.07 0 0 1-5.74 2.3M225.19 177.19l-1.02-42.13-3.19.18 1.1 45.06 31.19-4.18-.03-2.69-28.05 3.76zM341.11 161.65l.67-33.23-3.05.17-.12 6.02a19.92 19.92 0 0 1 2 9.38 22.37 22.37 0 0 1-2.39 9.73l-.22 11.04 12.15-1.62.06-2.7-9.1 1.21ZM286.74 168.94l-.03-37.41-3.11.17.02 22.95 2.07-.23.02 14.66-2.08.28v2.69l15.2-2.04.01-2.69-12.1 1.62zM159.1 131.05l-34.58 2.03L136.26 29.8l-3.5-.3-12.13 106.67 38.3-2.18.17-2.94zM116.09 191.82l7.17-51.06-3.47-.03-7.59 54.02 25.59-3.15.18-2.72-21.88 2.94zM188.23 78.55c.32-2.66.7-5.32 1.28-7.85l8.01-34.55-2.33-.25-8.53 36.8 1.57 5.85ZM200.12 180.55l-1.51-44.04-3.22.18 1.62 46.97 20-2.68-.08-2.68-16.81 2.25zM175.77 183.81l-3.11-20.43-2.44 7.52 2.44 16.02 20.99-2.81-.6-2.61-17.28 2.31zM151.7 187.04l-9.19-20.18-.15-.4v.01l-.58 8.73 6.81 14.95 13.89-1.87.91-2.81-11.69 1.57Z" class="f"/><path d="m137.81 27.84 36.42 3.78 13.98 51.88.8.02c.44-4.14.88-8.53 1.78-12.53l8.52-36.77 29.58 3.07 13.46 87.57-25.95 1.52-5-49.12-.54-.02c-.46 3.02-.91 6.16-1.7 9.06l-10.68 41.13-18.07 1.06-13.17-40.28c-1.14-4.18-2.16-8.12-2.56-12.32l-1.12-.04c-.1 3.95-.2 8-.42 11.93l-2.34 41.85-34.8 2.04 11.81-103.82ZM244.71 38.93l44.05 4.56.01 21.86-18.99-1.11.05 7.87 17.36.75.02 20.51-17.26-.02.06 7.95 19.4-.3.01 21.09-43.54 2.56-1.17-85.72zM348.75 78.44c-.32 11.24-.49 20.6-6.05 29.45-5.11 8.17-13.05 12.96-20.81 13.44-7.9.48-15.26-2.55-20.73-8.8-5.63-6.44-9.18-16.17-9.17-28.66 0-25.67 13.83-39.84 30.77-38.04 8.85.94 20.36 8.32 23.81 20.68l-16.43 8c-1.35-3.72-3.93-5.8-6.92-5.97-6.79-.37-10.67 7.8-10.73 16.84-.06 8.2 3.55 15.81 9.67 15.71 2.89-.05 6.57-2 7.48-6.36l-8.3.02.16-17.29 27.25.98ZM367.87 94.03l3.2-19.93.56.04c.2 2.79.4 5.66.75 8.44l1.43 11.45h-5.94Zm-3.07 15.55 11.16-.44 1.1 7.82 14.52-.86-11.7-63.16-16.58-1.72-16.7 67.53 16.8-1 1.4-8.16Z" class="k"/><path d="m199.86 134.82 17.73-1 1.18 42.91-17.39 2.32-1.52-44.23zM225.44 133.37l16.19-.91.52 28.05 12.73-1.39.17 12.74-28.58 3.83-1.03-42.32zM258.58 131.5l14.32-.81.17 26.43 11.31-1.23.02 12.04-25.35 3.4-.47-39.83zM288.03 129.83l12.75-.71-.15 36.63-12.57 1.69-.03-37.61zM343.13 126.72l9.66-.54 8.16 17.36.27-.03c-.3-2.64-.64-5.36-.57-8.1l.27-9.7 8.84-.5-.95 31.4-8.76 1.17-7.98-15.95-.3.02c.27 2.23.5 4.32.46 6.48l-.25 10.54-9.52 1.27.67-33.42ZM374.5 144.89l.42.4c1.5 1.38 3.33 2.42 5.3 2.2.82-.1 2.16-.68 2.22-2.05.04-1.36-1.07-1.36-1.83-1.48l-1.7-.23c-3.35-.42-6.15-2.73-6-7.6.24-7.44 5.6-11.9 10.72-12.18 2.63-.15 4.98.57 7.12 2.23l-2.5 7.86c-1.36-1.17-2.93-2.05-4.73-1.9-.74.05-1.84.5-1.89 1.75-.03 1.14 1.01 1.22 1.65 1.37l1.87.4c3.46.73 5.86 2.96 5.66 8-.27 7.05-5.27 11.18-10.23 11.85-2.95.4-6.4-.2-9.07-1.58l2.98-9.04ZM124.83 139.05l23.2-1.3 9.44 24.7.53-.05c.28-2.11.55-4.36 1.13-6.44l5.52-19.16 20.28-1.14 10.22 44.23-18.28 2.45-3.77-24.81-.36.04c-.3 1.56-.6 3.2-1.11 4.73l-7.03 21.68-12.1 1.63-8.8-19.3c-.76-2-1.42-3.87-1.7-5.92l-.73.06c-.05 1.96-.1 3.97-.23 5.93l-1.38 20.95-22.03 2.95 7.2-51.23ZM323.1 127.3c-9.62.52-17.87 8.48-17.95 19.93-.06 11.6 7.96 17.4 17.5 16.12 9.15-1.24 16.44-8.62 16.65-19.39.2-10.62-6.97-17.18-16.2-16.67" class="n"/><path d="m321.74 141.61 2.75-9.44 3.09 8.98 7.87-.64-6.07 5.85 2.71 8.13-7-4.1-8.22 7.85 3.11-10.65-9.07-5.2 10.83-.78z" style="fill:#fff"/><g style="clip-path:url(#d)"><path d="M57.32 28.98h88.88v88.89H57.32z" style="fill:url(#e)"/></g><path d="M100.6 126.38c-4.65.2-9.17-.04-13.51-.66a41.73 41.73 0 0 0 27.07 5.7 36.57 36.57 0 0 0 16.63-5.78l.95-.68.39-.29a42.16 42.16 0 0 0 15.34-18.6l.1-.24.32-.72a38.45 38.45 0 0 0 1.43-4.16c-8.5 14.17-26.94 24.46-48.72 25.42" class="i"/><path d="m136.48 72.7.75-8.22-4.47 5.68-6.17-4.43 2.4-7.89 6.7 1.4-5.21-6.26 2.21-7.07-5.56 3.02-6.05-7.29 2.12 9.55-6.4 3.44-5.07-8.38 5.27-6.68-9 .47-6.1-10.23-.06 10.56-11.9.62 11.99 6.34-.13 10.8-12.32-.05-5.99-12.4L79.98 58l-17.62-.2 15.39 8.03-3.97 13.9 12.6-9.56 11.37 6.03-5.17 11.65-15.52.65 11.78 7.68-6.41 14.1 12.7-10 9.43 6.15-2.52-11.76 9.24-7.22 5.88 7.6-5.47 10.9 9.07-6.2 5.17 6.82-.44-10.07 6.98-4.78-7.34-1.57-.37-9.57 7.1-1.78 3.34 7.84.81-8.85 5.73-1.37-5.25-3.73Zm-11.9 7.78-4.4 8.56-8.9-1.87-10.72.34-2.47-11.38-5.12-10.86 9.01-6.95 6.22-7.6 8.5 4.44 7.72 1.74 1.97 8.9 3.37 8.07-5.18 6.6Z" class="n"/><path d="M21.38 46.93c-4 10.2-1.93 34.68 7.23 51.62a135.19 135.19 0 0 0 12.23 20.3C28.8 106.2 15.14 85.88 9.68 60.42c5.8-8.4 8-9.86 11.7-13.5" class="k"/><path d="M83.63 25.9c2.2-.9 3.65-1.28 5.99-1.86-5.25-2.95-45-24.06-74.29-4.22C-9.38 36.56 2.57 71.32 5.2 78.07c7.2 19.64 21.57 39.59 40.45 56.16 18.33 16.08 39.96 25.97 59.84 30.8l.21-.58c-12.19-5.85-23.26-15.57-34.22-25.19C39.3 111.02 21.88 73.4 29.17 48.6a150.04 150.04 0 0 1 22.7 13.96c.36-1.53.78-3.04 1.26-4.52-7.84-5.68-16-10.55-24.32-14.47l-2.16-1.02-.83 2.24c-4.74 12.85-3.1 29.66 4.6 47.34 7.71 17.7 21.27 35.6 38.17 50.43 4.86 4.27 9.87 8.2 15.01 11.76a155.3 155.3 0 0 1-35.06-23.37C30.2 114.84 16.26 95.53 9.3 76.53c-2.43-6.26-13.47-38.2 8.5-53.08 8.2-5.57 17.48-7.55 26.54-7.55 16.36 0 32 6.47 39.3 10" class="i"/><path d="M76.79 29.18c-9.17-3.6-23.18-8.76-32.33-8.76-9.42 0-17.61 2.31-24.34 6.87a27.2 27.2 0 0 0-1.92 1.44l-.06.05c-.32.27-.64.54-.97.84l-.16.15-.3.27c-.36.34-.71.7-1.06 1.07l-.6.68-.03.04-.48.57-.64.83-.14.2-.08.12C9.18 39.89 8.12 47.8 8.56 55.2a39.63 39.63 0 0 1 3.57-4.74c3.62-4.13 8.73-9.62 13.9-12.06l3.47 1.63 1.12.53c5.91 2.8 16.6 8.69 24.06 13.32a51.85 51.85 0 0 1 22.1-24.71" class="i"/><path d="M47.57 70a51.51 51.51 0 0 1 16.58-37.91 43.35 43.35 0 0 0 0 75.82A51.51 51.51 0 0 1 47.57 70" class="k"/><path d="m162.2 4.88.58.08-.01-1.13-12.32-1.65.02 1.15.78.1c1 .13 1.79.44 2.36.91.54.45.81.99.82 1.62.01.4-.08.72-.26.99-.19.29-.6.66-1.2 1.1l-9.08 6.36-.15-8.45c-.02-1.2.25-2.05.81-2.55.57-.5 1.43-.68 2.58-.52l.91.12-.02-1.15L134.14 0l.02 1.17.95.13c1.21.16 2.12.57 2.7 1.22.6.65.9 1.6.92 2.8l.23 12.25c.02 1.18-.26 2.05-.82 2.56-.56.5-1.46.7-2.67.57l-.92-.1.03 1.22 13.8 1.43-.02-1.2-.9-.09a4.02 4.02 0 0 1-2.6-1.12 4 4 0 0 1-.9-2.72l-.05-2.24c.21-.15 3.99-2.8 4.44-3.1l4.59 7.53.49.89.1.39c.01.67-.81.93-2.45.75l-.96-.1.02 1.2 12.94 1.33-.02-1.17-.66-.06c-.9-.1-1.71-.4-2.4-.92a8.5 8.5 0 0 1-2.04-2.41l-6.08-9.97 3.72-2.6c2.86-2.04 5.1-2.96 6.6-2.76ZM187.77 26.21a3.4 3.4 0 0 1-1.2-.34 2.92 2.92 0 0 1-.88-.77c-.29-.35-.55-.8-.77-1.33l-7.79-18.43-.87-.12-5.94 13.87c-.87 2.02-1.78 3.38-2.71 4.03-.4.27-.75.46-1.05.56-.32.1-.75.15-1.3.16h-.25l.01 1.14 8.43.87-.02-1.12-1.06-.24-.6-.34c-.33-.23-.6-.54-.81-.95-.21-.4-.32-.8-.33-1.19 0-.48.08-.94.25-1.39l.54-1.24 7.67.86.24.58.17.4.14.3.86 2.12c.12.36.18.65.18.87 0 .32-.1.53-.33.65-.29.15-.76.19-1.4.12l-1.72-.18.02 1.15 11.3 1.17-.02-1.13-.76-.08Zm-15.89-7.92c.3-.66 2.8-6.55 3.2-7.5l3.47 8.27-6.67-.77ZM206.15 9.63v1.06l.25.05c.55.12.98.24 1.29.37a4.2 4.2 0 0 1 2.12 2.28c.3.75.45 1.6.45 2.55l.06 7.47-11.83-14.8-7.6-1.02.02 1.1.5.07c.73.1 1.34.3 1.84.6s.87.68 1.12 1.13c.25.46.38 1 .4 1.62l.1 10.97c.01.85-.12 1.56-.37 2.1-.26.53-.66.9-1.2 1.11a5.4 5.4 0 0 1-2.27.3l-.25-.02.01 1.07 9.84 1.02-.02-1.05-1.71-.34a4.05 4.05 0 0 1-1.56-.69c-.5-.4-.86-.9-1.09-1.55a7.86 7.86 0 0 1-.37-2.6l-.11-10.8 14.82 18.25.76.08-.1-13.78c-.02-1.58.28-2.75.88-3.5.58-.71 1.43-1 2.58-.84l.42.05v-1.06l-8.98-1.2ZM231.83 24.52a5.45 5.45 0 0 0-.94-1.64 7.14 7.14 0 0 0-1.86-1.63 28.4 28.4 0 0 0-3.4-1.61l-.9-.37-.58-.23c-.02-.02-.56-.24-.56-.24l-2.43-1.02c-.55-.26-1.02-.52-1.38-.75a3.57 3.57 0 0 1-.78-.7 2.26 2.26 0 0 1-.39-2.38 2.58 2.58 0 0 1 1.77-1.5 4.21 4.21 0 0 1 1.66-.07 10.09 10.09 0 0 1 4.75 2.05c.66.54 1.2 1.12 1.63 1.75.6.89 1.15 2.13 1.63 3.66l.06.19.8.1-.03-6.84-.82-.1-.05.18c-.33 1.28-.87 1.21-1.05 1.18-.11 0-.43-.12-1.25-.7a12.57 12.57 0 0 0-5.65-2.47 7.26 7.26 0 0 0-3.35.27 4.74 4.74 0 0 0-2.4 1.7 4.9 4.9 0 0 0-.05 5.5c.36.58.79 1.08 1.27 1.49.48.4 1.13.81 1.95 1.24.72.4 1.97.98 3.84 1.77l1.17.49 2.24 1c.53.27.97.52 1.3.75.33.23.59.46.79.7.43.54.64 1.09.64 1.68 0 .57-.15 1.05-.45 1.48-.33.42-.78.74-1.35.94-.6.2-1.25.27-1.97.2a8.13 8.13 0 0 1-2.6-.78c-.94-.43-1.83-1-2.69-1.7-.86-.72-1.56-1.46-2.12-2.23a9.2 9.2 0 0 1-1.63-4.2l-.02-.26-.9-.1.08 9.24.86.09.04-.2c.11-.56.34-.96.69-1.22.35-.26.77-.36 1.28-.3.27.02.56.1.88.22l1.42.73c.97.57 1.8.98 2.48 1.23.68.24 1.41.41 2.18.49a7.6 7.6 0 0 0 2.95-.21c.86-.26 1.6-.71 2.18-1.35.45-.44.8-1 1.04-1.63a5.45 5.45 0 0 0 .02-3.89ZM250.43 32.81a2.22 2.22 0 0 1-1.71-.99 5.33 5.33 0 0 1-.63-1.19l-6.25-16.6-.71-.1-4.98 12.6c-.72 1.83-1.48 3.06-2.25 3.66-.32.25-.6.43-.86.52-.26.1-.62.15-1.06.16h-.2v1.03l6.88.71v-1l-.87-.22-.48-.3c-.27-.2-.5-.48-.66-.85a2.54 2.54 0 0 1-.26-1.07c0-.43.07-.86.22-1.26l.43-1.13 6.29.7a56.1 56.1 0 0 0 .33.88l.1.28.7 1.9c.1.32.15.6.15.8 0 .28-.09.47-.29.59-.23.13-.61.17-1.15.12l-1.4-.15v1.04l9.28.96v-1.02l-.62-.07Zm-13-7.02c.25-.6 2.35-5.95 2.7-6.8l2.77 7.43-5.47-.63ZM267.2 28.6a6.44 6.44 0 0 0-2.48-3.07c-.64-.4-1.65-.9-3.02-1.5l-.8-.33-.52-.22-.5-.22-2.14-.94c-.5-.24-.92-.48-1.23-.7-.3-.22-.54-.43-.7-.65-.34-.43-.5-.89-.5-1.4a2.48 2.48 0 0 1 1.75-2.26c.42-.13.92-.16 1.48-.09.75.1 1.5.33 2.23.66.73.34 1.39.76 1.98 1.25a7.5 7.5 0 0 1 1.45 1.63c.52.83 1 2 1.42 3.44l.05.18.72.09v-6.44l-.73-.1-.04.17c-.3 1.2-.79 1.15-.95 1.13-.1-.02-.37-.12-1.1-.66a10.7 10.7 0 0 0-5.01-2.29 6.1 6.1 0 0 0-2.98.28 4.32 4.32 0 0 0-2.92 4.33 5.59 5.59 0 0 0 1.83 3.86c.42.37 1 .76 1.73 1.16.63.37 1.75.9 3.4 1.64l1.04.45 1.99.94c.46.24.85.48 1.16.7.28.2.51.43.69.65.38.5.56 1.02.56 1.58a2.37 2.37 0 0 1-1.62 2.3 3.8 3.8 0 0 1-1.75.18 6.84 6.84 0 0 1-2.32-.71 11.32 11.32 0 0 1-4.24-3.67A8.83 8.83 0 0 1 253.7 26l-.01-.24-.8-.09.02 8.71.77.08.04-.2c.1-.52.3-.9.61-1.14a1.5 1.5 0 0 1 1.14-.3c.24.03.5.1.77.22l1.27.67c.86.53 1.6.91 2.2 1.14.6.23 1.26.38 1.94.45.98.1 1.86.03 2.62-.21a4.24 4.24 0 0 0 1.95-1.28c.4-.42.71-.95.94-1.55a5.52 5.52 0 0 0 .03-3.66ZM292.27 30.38l-.58 2.1c-.18.55-.37 1.01-.56 1.39l-.68 1.14c-.42.6-.93 1.04-1.5 1.34-.56.3-1.18.42-1.82.35l-3.25-.34.03-12.57c0-.97.19-1.66.54-2.06.36-.4.93-.55 1.69-.45l1.16.15v-.95l-9.6-1.28v.96l.7.1c1.53.2 2.27 1.22 2.26 3.12l-.01 9.8c-.01 1.91-.75 2.76-2.28 2.6l-.72-.08.03.96 15.24 1.58.03-7.78-.68-.08ZM308.91 28.62c-.33-1.02-.8-2-1.4-2.87a9.07 9.07 0 0 0-2.56-2.5 8.15 8.15 0 0 0-3.28-1.18 6.26 6.26 0 0 0-3.84.67 7.15 7.15 0 0 0-2.87 2.85 8.68 8.68 0 0 0-1.1 4.27 10 10 0 0 0 .62 3.49 10 10 0 0 0 1.71 3.01c.73.89 1.58 1.6 2.53 2.14.95.53 1.97.86 3.02.97a6.5 6.5 0 0 0 3.84-.75 7 7 0 0 0 2.77-2.8 8.63 8.63 0 0 0 1.04-4.2c0-1.02-.16-2.06-.48-3.1Zm-10.21 7.53a9.84 9.84 0 0 1-.86-2.57 17.03 17.03 0 0 1-.09-5.88c.14-.8.33-1.5.59-2.13a6.2 6.2 0 0 1 .9-1.57c.32-.4.72-.67 1.18-.84a3 3 0 0 1 1.48-.15c.3.04.59.14.9.3.3.17.58.37.83.6.47.46.9 1.05 1.23 1.77.33.71.6 1.55.78 2.48.18.94.27 1.95.26 3a14.66 14.66 0 0 1-.54 4.17 5.39 5.39 0 0 1-1.44 2.52c-.63.55-1.37.79-2.2.7-.63-.07-1.2-.3-1.7-.71-.51-.4-.96-.98-1.32-1.7ZM310.95 23.65l-.05 8.6.65.07.02-.2c.07-.82.15-1.43.23-1.83.23-1.14.57-2.13 1-2.92.9-1.61 2-2.3 3.38-2.12l.6.07-.1 11.84c0 1.77-.67 2.56-2.01 2.42l-1.99-.21v.92l10.7 1.1v-.9l-1.93-.2c-1.31-.14-1.95-1.06-1.93-2.82 0 0 .09-11.32.08-11.77l.45.06c1.33.17 2.4 1.08 3.25 2.76.71 1.48 1.14 3.2 1.25 5.15l.02.22.59.02.07-8.35-14.28-1.91ZM326.16 25.68l-.07 8.36.61.07.02-.2c.08-.8.15-1.39.23-1.77.22-1.12.54-2.07.96-2.85.84-1.57 1.88-2.24 3.19-2.07l.56.07-.11 11.5c-.02 1.73-.64 2.5-1.91 2.36l-1.88-.2v.9l10.12 1.05v-.88l-1.82-.2c-1.25-.12-1.85-1.02-1.83-2.73l.11-11.45.42.06c1.25.17 2.28 1.07 3.07 2.68a13.7 13.7 0 0 1 1.17 5l.01.21.57.02.08-8.12-13.5-1.8ZM351.74 37.82l-.03.16c-.18.8-.35 1.46-.5 1.94a5.31 5.31 0 0 1-1.13 1.99c-.28.3-.58.54-.9.71-.3.18-.67.3-1.07.35-.4.06-.86.06-1.36 0l-1.6-.16.07-6.24.29.03c.8.1 1.4.53 1.82 1.31.14.3.27.6.37.88.1.3.17.67.25 1.12l.22 1.67.13.02.42.04.12-10.17-.56-.07-.02.2c-.05.57-.12 1-.18 1.3a6 6 0 0 1-.56 1.72c-.47.9-1.09 1.28-1.88 1.19l-.4-.05.07-6.67 1.94.26c.87.11 1.6.39 2.2.81.34.26.66.67.96 1.2.24.46.44.95.6 1.45.14.5.32 1.27.5 2.28l.04.17.5.06.08-6.17-11.67-1.56v.86l.45.06a1.8 1.8 0 0 1 1.37.79c.29.43.43 1.1.42 1.96l-.1 8.75c-.02 1.7-.62 2.46-1.84 2.33l-.46-.05.02.86 11.89 1.23.08-6.5-.55-.07ZM367.05 45.1a1.87 1.87 0 0 1-1.22-.54 5.46 5.46 0 0 1-.54-.91c-.24-.46-.48-.99-.73-1.58l-.25-.6-.34-.78-.23-.54-.03-.08-.05-.02a7.79 7.79 0 0 1-1.97-1.24l-.61-.61c.54.05.96.09 1.25.09.5 0 1.02-.07 1.53-.2.5-.11.91-.27 1.22-.47a3.12 3.12 0 0 0 1.27-2.65c.01-.42-.05-.86-.18-1.3a4.3 4.3 0 0 0-.5-1.19 3.57 3.57 0 0 0-1.48-1.37 8.17 8.17 0 0 0-2.52-.68l-8.06-1.08v.84l.43.06c.6.07 1.03.33 1.3.76.27.42.4 1.06.39 1.91l-.12 8.53c0 .83-.15 1.44-.43 1.8-.28.37-.72.52-1.31.46l-.44-.05-.01.85 6.75.7v-.84l-.44-.05c-.58-.06-1-.3-1.27-.72a3.44 3.44 0 0 1-.4-1.88l.06-3.86 2.05.24 3.37 7.46 3.91.4.02-.82-.43-.05Zm-8.84-14.3 2.79.36c1.85.25 2.73 1.37 2.7 3.43 0 .72-.11 1.3-.31 1.72-.2.42-.5.73-.91.9-.42.17-.96.22-1.62.15l-2.73-.33.08-6.23ZM374.88 32.2v.8l.76.1c.36.05.66.21.88.49.2.26.3.57.3.95 0 .33-.15.74-.42 1.2l-2.05 3.65-2.2-4.9-.38-.93a.93.93 0 0 1-.04-.31c0-.21.06-.36.18-.47.13-.1.33-.14.58-.11l.86.11.01-.78-6.5-.87v.81l.31.04c.55.07.99.27 1.32.59.33.31.68.86 1.03 1.63l2.77 6.1-.04 2.98c-.01.8-.15 1.4-.42 1.75-.26.35-.67.5-1.22.44l-.83-.09v.83l7.07.73.01-.81-.77-.08a1.5 1.5 0 0 1-1.2-.7 3.44 3.44 0 0 1-.35-1.81l.06-3.34 2.43-4.34c.21-.38.44-.72.67-1.02.22-.29.44-.52.66-.69.2-.15.43-.28.68-.36.24-.1.52-.15.83-.15h.12l.01-.76-5.11-.68Z" class="j"/></g></svg>