<svg xmlns="http://www.w3.org/2000/svg" id="b" viewBox="0 0 646.9 337.9"><defs><style>.d{fill:#fff}.e{fill:#363e99}.h{fill:#ef4136}</style></defs><g id="c"><path d="M46.5 88.1h.7l-.2-1.3-14 1.4.1 1.2h.9c1.1-.1 2 0 2.7.4.6.3 1 .9 1 1.6.1.4 0 .8-.1 1.1-.2.4-.6 1-1.3 1.6l-9.4 9.2-1-9.3c0-1.3.1-2.3.7-3 .6-.6 1.5-1 2.8-1.2h1l-.1-1.3L15 89.9l.1 1.3h1c1.4-.2 2.4 0 3 .6.7.5 1.1 1.5 1.3 2.8l1.3 13.3c.1 1.3-.1 2.3-.7 3-.5.6-1.5 1-2.8 1.2h-1l.2 1.4 15.1-1.5-.1-1.3h-1c-1.3.2-2.3 0-3-.6-.7-.5-1.1-1.5-1.2-2.8L27 105l4.6-4.5a108140.5 108140.5 0 0 0 6.4 8.2l.2.4c0 .7-.8 1.2-2.7 1.4h-1v1.4l14.9-1.5-.2-1.3-.7.1c-1 .1-2 0-2.9-.5a7.8 7.8 0 0 1-2.5-2.2l-7.8-9.7 4-3.8c3-3 5.4-4.6 7.2-4.8ZM79 106h-1.4a3 3 0 0 1-1.2-.7c-.4-.3-.8-.8-1.1-1.4L64 84.7h-1l-5.7 17.5c-.9 2.5-1.8 4.2-2.8 5.2l-1.2.9-1.5.5h-.3l.1 1.3 10-1-.1-1.3h-1.3l-.7-.2c-.4-.2-.8-.5-1-1-.4-.3-.5-.8-.6-1.2 0-.5 0-1 .2-1.6l.5-1.6 9.2-1 .4.7.2.4.2.3L70 105l.3 1c0 .3 0 .6-.4.8-.3.2-.8.4-1.6.5l-2.1.2.1 1.3 14-1.4-.2-1.3h-1ZM59 101l3.1-9.4 5 8.6-8 .8ZM100.8 81.5v1.3h2.1c.4 0 .8.2 1.2.4.8.4 1.4 1 1.9 1.8.4.8.7 1.8.8 3l1 9-17-14.5-9.7 1 .1 1.2h.6c1-.1 1.7 0 2.4.2a3 3 0 0 1 1.5 1c.4.4.6 1 .7 1.8l1.3 12.9c0 1 0 1.9-.3 2.6-.3.7-.7 1.2-1.4 1.6-.7.4-1.6.7-2.8 1h-.3v1.2l12.7-1.2-.1-1.3h-2.3a5 5 0 0 1-2-.4c-.7-.3-1.2-.8-1.6-1.5-.4-.7-.6-1.8-.7-3l-1.3-12.8 21.2 17.9 1-.1-1.6-16.7c-.2-1.9 0-3.4.8-4.4.7-1.1 1.8-1.7 3.3-1.8h.6l-.1-1.4-12 1.2ZM137.4 92.3c-.4-.7-.9-1.3-1.5-1.8a8.4 8.4 0 0 0-2.8-1.4c-1-.4-2.7-.7-5-1l-1.3-.3a258.5 258.5 0 0 1-1.6-.2l-3.5-.6a12 12 0 0 1-2-.5l-1-.6c-.7-.4-1-1-1-1.7l.1-1.1a4 4 0 0 1 2.3-2.4 7 7 0 0 1 2.2-.6 13.5 13.5 0 0 1 6.9 1.2c1 .4 1.8 1 2.4 1.6 1 1 1.9 2.3 2.7 4.1l.1.2 1.2-.1-.8-8.5-1.2.1v.3c-.4 1.6-1.2 1.7-1.4 1.7-.2 0-.6 0-1.8-.5a17.1 17.1 0 0 0-8.1-1.3c-1.7.2-3.3.6-4.6 1.3a7.8 7.8 0 0 0-3 2.8 6 6 0 0 0-.9 3.8 5 5 0 0 0 1.4 3c.5.6 1.2 1 1.9 1.4a60.6 60.6 0 0 0 8.3 2l1.6.4 3.2.6 2 .5 1.1.7c.7.5 1 1.2 1.1 2a3 3 0 0 1-.4 1.9c-.4.6-1 1.1-1.8 1.5-.8.4-1.7.7-2.7.8a12 12 0 0 1-3.8-.3 16.1 16.1 0 0 1-7-3.5A9.4 9.4 0 0 1 116 93v-.3l-1.2.1 1 11.3 1.2-.1v-.3c.2-.7.4-1.3.9-1.7a3 3 0 0 1 1.7-.7h1.2l2 .6 3.6.8a14 14 0 0 0 7.2-1 8 8 0 0 0 4.2-4.6 6.3 6.3 0 0 0-.4-4.9ZM165.6 97.5h-1.5l-1.2-.7c-.3-.4-.7-.8-1-1.4l-11.3-19.3-1 .1-5.8 17.4c-.8 2.5-1.8 4.3-2.8 5.2-.4.5-.8.8-1.2 1a6 6 0 0 1-1.4.4h-.3v1.4l10-1v-1.3h-1.3l-.8-.3c-.4-.1-.7-.4-1-.9-.3-.4-.5-.8-.5-1.2l.1-1.7.5-1.5 9.3-1 .3.7.3.4.2.3 1.2 2.2.4 1c0 .4-.1.6-.4.8-.3.3-.9.4-1.7.5l-2 .2v1.3l14-1.3-.1-1.4-1 .1Zm-20-5.2 3-9.4 5 8.6-8 .8ZM191.1 87a6 6 0 0 0-1.5-1.8 8.5 8.5 0 0 0-2.8-1.4c-1-.4-2.7-.7-5-1l-1.2-.3h-.9l-.8-.2a406 406 0 0 0-5.4-1.1 4 4 0 0 1-1.1-.6 2.3 2.3 0 0 1-.8-2.8l.6-1.2c.4-.5 1-.9 1.6-1.2a7 7 0 0 1 2.3-.6 13.5 13.5 0 0 1 6.8 1.2c1 .4 1.8 1 2.5 1.6.9 1 1.8 2.3 2.7 4v.3l1.2-.1-.8-8.5-1.2.1v.3c-.4 1.6-1.1 1.7-1.4 1.7-.1 0-.6 0-1.8-.5a17.3 17.3 0 0 0-8.1-1.3c-1.7.2-3.2.6-4.6 1.3a7.9 7.9 0 0 0-3 2.8 6 6 0 0 0-.9 3.8 5 5 0 0 0 1.4 3c.6.6 1.2 1 2 1.4.6.4 1.5.7 2.7 1 1 .3 2.8.6 5.5 1l1.6.4 3.3.6 1.9.5c.5.2.9.4 1.2.7.6.5 1 1.2 1 2a3 3 0 0 1-.4 1.9c-.4.6-1 1.1-1.8 1.5-.8.4-1.7.7-2.7.8-1.2 0-2.4 0-3.7-.3a16.1 16.1 0 0 1-7-3.5 9.4 9.4 0 0 1-2.7-4.7l-.1-.3h-1.2l1.1 11.4 1.2-.1v-.3c.1-.7.4-1.3.8-1.7.5-.4 1-.6 1.7-.7h1.2l2 .6 3.6.8c1 .2 2 .2 3.1 0 1.6-.1 3-.5 4.1-1a8 8 0 0 0 4.3-4.6c.2-.9.3-1.7.2-2.6a6 6 0 0 0-.7-2.3ZM228.3 82.5l-.8 3.1-.7 2.1-1 1.8c-.7 1-1.5 1.8-2.4 2.4-1 .5-2 .9-3.1 1l-5.6.6-1.7-17.2c-.1-1.3 0-2.3.6-3 .6-.6 1.5-1 2.8-1.2l2-.2-.1-1.3-16.3 1.6.2 1.3h1.1c2.6-.3 4 .8 4.2 3.4l1.3 13.3c.3 2.5-.8 4-3.4 4.2l-1.2.1.2 1.3 26.1-2.6-1-10.8-1.2.1ZM257.8 74.3c-.8-1.4-1.8-2.6-3-3.6-1.5-1.2-3.2-2-5-2.6a16.8 16.8 0 0 0-12.9 1.9c-2 1.3-3.6 3-4.6 5a11 11 0 0 0 3.7 14.5c1.4 1 3 1.8 4.8 2.2a16.2 16.2 0 0 0 12.4-2c2-1.2 3.6-2.9 4.7-4.9a10.9 10.9 0 0 0-.1-10.5Zm-17.4 14.1c-.8-.9-1.4-2-1.9-3.3a18.9 18.9 0 0 1-1-8.2c.1-1.1.4-2.2.7-3.2.4-.9.8-1.7 1.4-2.5.5-.6 1.2-1.2 2-1.6.8-.4 1.7-.6 2.6-.7h1.7l1.5.6c1 .5 1.8 1.2 2.5 2 .8 1 1.4 2 1.8 3.3a17 17 0 0 1 1 4.1c.2 2.3 0 4.4-.4 6.1-.4 1.7-1.2 3.1-2.2 4-1.1 1-2.4 1.6-4 1.8a6.5 6.5 0 0 1-5.7-2.4ZM260.8 66.4l1.2 12.3 1.2-.1v-.3l.2-2.7c.3-1.7.8-3.2 1.5-4.5 1.4-2.7 3.3-4 6-4.3l1-.2c.2.7 1.8 17.2 1.8 17.2.2 2.5-.9 3.9-3.5 4.1l-3.7.4.1 1.3 20.6-2v-1.3l-3.9.4c-2.5.2-3.9-1-4.2-3.5l-1.6-17 .8-.2c2.6-.2 4.8.7 6.7 2.8a15 15 0 0 1 3.3 7v.4l1.2-.2-1.2-12.3-27.5 2.7ZM290.2 63.5l1.2 12.3h1.2v-.4c0-1.2 0-2 .2-2.7a14 14 0 0 1 1.4-4.5c1.4-2.7 3.4-4 6-4.3l1.1-.2L303 81c.3 2.5-.9 3.9-3.4 4.2l-3.8.3.1 1.3 20.7-2-.2-1.3-3.7.4c-2.6.2-4-1-4.2-3.5l-1.7-17 .9-.2c2.5-.2 4.8.7 6.7 2.8a15 15 0 0 1 3.2 7v.4l1.3-.2-1.3-12.3-27.4 2.7ZM345 71.7v.3a25 25 0 0 1-.7 3.2A8.8 8.8 0 0 1 338 81c-.8.3-1.8.5-2.9.6l-3.4.3-1-9.5.7-.1c1.7-.2 3 .3 4 1.3l1 1.2c.3.4.5 1 .7 1.6l.8 2.5h.3l.9-.1-1.5-15.7-1.3.1v.4l-.1 2c-.2 1.1-.5 2-1 2.9-.8 1.5-2 2.4-3.7 2.5l-.9.1-1-10.2 4.2-.4c1.9-.1 3.5 0 4.8.4.8.2 1.6.7 2.3 1.4.6.6 1.1 1.3 1.5 2 .5.7 1 1.8 1.6 3.3v.2h1.1l-.9-9.6-25 2.5.1 1.3 1-.1c1.3-.2 2.3 0 3 .6.7.5 1 1.5 1.2 2.8l1.3 13.3c.3 2.6-.9 4-3.4 4.2l-1 .1.2 1.3 25.5-2.5-1-10.1-1.2.1ZM380.7 77c-1.2.2-2.2 0-3-.3l-1.3-1.2a31.6 31.6 0 0 1-2.7-3.1l-1-1.1-.5-.8h-.1l-.1-.1a20 20 0 0 1-4.7-1.2l-1.5-.7c1.2 0 2.1-.2 2.8-.3a22 22 0 0 0 6.1-2.2c1.8-1.3 2.6-3 2.5-4.8-.1-.6-.3-1.3-.7-2-.4-.6-.8-1.2-1.4-1.6-.9-.8-2.1-1.3-3.6-1.5-1.5-.2-3.4-.2-5.9 0l-18 1.8.1 1.3 1-.1c1.3-.2 2.3 0 3 .6.6.6 1 1.5 1.2 2.8l1.3 13.3c.1 1.3-.1 2.3-.7 3-.5.7-1.5 1-2.8 1.2h-1l.2 1.4L365 80l-.1-1.3-1 .1c-1.3.1-2.3 0-3-.6-.7-.6-1.1-1.5-1.2-2.8l-.6-6 4.6-.5 9 10.4 9.1-1-.1-1.2h-1ZM358 58.2l6.3-.7c4.2-.4 6.4 1 6.7 4.3a4 4 0 0 1-2.3 4.6c-.9.5-2 .8-3.6 1l-6.1.5-1-9.7ZM396.6 53l.1 1.3 1.9-.1c.8-.1 1.6 0 2.2.3.5.4.8.8.9 1.4 0 .6-.2 1.3-.8 2.2l-4.2 6.8a43008.8 43008.8 0 0 0-7.2-8.3 1 1 0 0 1-.2-.5c0-.3.1-.6.4-.8.3-.2.7-.4 1.3-.4l2-.2v-1.3l-15.4 1.5.1 1.3h.8c1.3-.2 2.3 0 3.1.3.9.3 1.8 1 2.7 2.1l7.7 8.6.5 4.8c.1 1.3 0 2.3-.6 3-.6.7-1.5 1-2.8 1.2l-2 .2.2 1.3 17-1.6-.2-1.4-1.9.2c-1.3.2-2.3 0-3-.6-.7-.6-1-1.5-1.2-2.8l-.5-5.4c0-.2 5-8.1 5-8.1a17.7 17.7 0 0 1 2.8-3.4l1.6-.9 2-.6h.2v-1.3L396.5 53ZM458.8 334.2c-6.8.4-13.7.3-20.5-.3-6.8-.6-12.9-1.9-18.3-4-5.3-2-8.3-5.2-8.8-9.7-.4-3 .4-5.2 2.3-6.5 2-1.2 4.3-2 7.2-2.3 4.4-.6 8.5-.4 12.3.6 3.8 1 7.9 1.9 12.1 2.8 4 1 8 1.3 11.7 1.1a181 181 0 0 0 61.5-14.7 179.5 179.5 0 0 0 44.6-27.1c13.1-11 23.4-23.5 30.8-37.6A75.7 75.7 0 0 0 602 191a49.5 49.5 0 0 0-12.6-28.3 76.7 76.7 0 0 0-25.5-18.2c-10-4.5-21-7.4-32.8-8.8a144.7 144.7 0 0 0-48.4 2.4c-4.5 1.2-9 2-13.8 2.6-2.6.3-5.3.1-8.3-.5-3-.6-4.6-2.5-5-5.6-.1-1 0-2 .2-2.6 1-4 2.7-6.8 4.8-8.2a1005 1005 0 0 0 28.4-19.6c7.3-5.5 14.2-11.3 20.5-17.7 6.2-6.2 11.3-13 15-20.1a36 36 0 0 0 4.4-21.6 21.4 21.4 0 0 0-7.7-14.4 21.5 21.5 0 0 0-17.2-4.3 43 43 0 0 0-26.6 12.4c-6.7 6.9-12.3 14.5-16.8 22.7a31.2 31.2 0 0 1-3.8 5.8c-1.3 1.4-3.5 2.3-6.7 2.7-3.8.4-7-.3-9.6-2.3-2.7-1.9-4.2-4.6-4.6-8-.4-3 0-5.7 1-8 1-2.2 2.4-4.5 4.4-7a64 64 0 0 1 13.6-13 125.6 125.6 0 0 1 37.9-18.6 110.2 110.2 0 0 1 58.2-2.2 40.1 40.1 0 0 1 15.7 8.5c4.3 3.9 6.9 9.2 7.7 15.9.9 7.3 0 14.4-3 21.5-2.8 7-6.8 13.6-12 19.7-5.1 6.2-11 11.9-17.4 17a189 189 0 0 1-19 13.6c14-.5 27.9.4 41.5 2.9a136 136 0 0 1 37 12.1 81.4 81.4 0 0 1 27.8 22.6 77.3 77.3 0 0 1 9.4 71.5 126.9 126.9 0 0 1-19 34c-8.2 10.8-18.2 21-29.7 30.5a260.8 260.8 0 0 1-76.8 43.2 184.1 184.1 0 0 1-54.3 10.6Z" class="e"/><path d="M438 337.3c-7-.6-13.4-2-19.2-4.1-6-2.2-10.4-6.7-11-12.6l-.1-1.8c-.1-3.1 1.3-6.3 4-8 2.4-1.5 5.3-2.4 8.5-2.8l5.1-.3c3 0 5.8.3 8.5 1 3.8 1 7.8 1.9 12.1 2.8 3.1.7 6.1 1 9 1h1.8a177.6 177.6 0 0 0 60.3-14.4c16.3-7 30.9-15.9 43.7-26.6a120.8 120.8 0 0 0 30-36.6c5.6-10.7 8.4-22 8.4-33.9 0-3.1-.2-6.4-.6-9.6a46.2 46.2 0 0 0-11.7-26.4 73.5 73.5 0 0 0-24.4-17.4c-9.7-4.3-20.3-7.2-31.8-8.5a131.5 131.5 0 0 0-33.6 0 114 114 0 0 0-13.5 2.3c-4.7 1.2-9.5 2-14.3 2.6-1 .2-2 .2-3 .2-2 0-4.2-.2-6.4-.7a9.4 9.4 0 0 1-7.7-8.4v-1.6c0-.8 0-1.6.3-2.5 1.3-4.4 3-7.9 6.2-10l8.5-5.8c5.8-3.8 12.4-8.4 19.7-13.8 7.3-5.3 14-11 20.1-17.3 6.1-6 11-12.5 14.6-19.3a32.1 32.1 0 0 0 4-19.6 18 18 0 0 0-6.6-12.2c-3-2.5-6.6-3.7-11.2-3.8l-3.4.2a39.6 39.6 0 0 0-24.6 11.4c-6.5 6.7-11.9 14-16.2 22a34.8 34.8 0 0 1-4.3 6.4c-2.1 2.4-5.2 3.4-8.8 3.9l-2.5.1c-3.5 0-6.8-1-9.5-3a14.6 14.6 0 0 1-6-10.3l-.2-2.8c0-2.5.5-4.9 1.5-7a39 39 0 0 1 4.8-7.8c3.8-5 8.6-9.6 14.3-13.6a140.2 140.2 0 0 1 38.9-19.2c7-2.2 13.5-3.6 19.8-4.4 5.1-.6 10.5-1 16.3-1l3.6.1a79 79 0 0 1 20.5 3.1c6.5 2 12.3 5 17 9.3a28 28 0 0 1 8.8 18l.3 5.5a47 47 0 0 1-3.5 17.6A77 77 0 0 1 562 78.4 130.5 130.5 0 0 1 544.1 96l-9.8 7.4c10.3.2 20.6 1.2 30.7 3 13.9 2.6 26.6 6.7 38 12.5a84.8 84.8 0 0 1 28.9 23.5 72.9 72.9 0 0 1 14.4 36.9 81.4 81.4 0 0 1-4.4 37.9 130 130 0 0 1-19.5 34.9c-8.5 11-18.6 21.4-30.3 31a264 264 0 0 1-77.8 43.8 188 188 0 0 1-39.6 9.5c-3.6.5-8.8.9-15.7 1.3l-.2-3.4.2 3.4a148 148 0 0 1-21-.3Zm-17-22.6c-2.4.3-4.3 1-5.7 2-.5.3-.8.5-.9 2l.1 1c.5 3.1 2 5.2 6.7 7.1 5 2 10.9 3.2 17.4 3.7a136.1 136.1 0 0 0 20 .3 180.9 180.9 0 0 0 53.4-10.5 257.5 257.5 0 0 0 39.4-17.7 242 242 0 0 0 36.3-24.9c11.4-9.3 21.1-19.3 29.3-29.8a123.4 123.4 0 0 0 18.4-33.2c3.1-8.5 4.7-17 4.7-25.7 0-3-.2-6-.6-9a66 66 0 0 0-13-33.5c-7-9-15.9-16.3-26.6-21.7a132.7 132.7 0 0 0-36.1-11.8 184.9 184.9 0 0 0-40.8-2.8l-12.9.5 11-6.8c6.1-3.7 12.4-8.2 18.7-13.3 6.2-5 11.9-10.6 17-16.6a70 70 0 0 0 11.4-18.8 40.3 40.3 0 0 0 2.7-19.8 21 21 0 0 0-6.6-13.8c-3.9-3.5-8.6-6-14.4-7.8-5.8-1.7-12-2.6-18.7-2.8h-3.4a106.6 106.6 0 0 0-34 5h-.1c-6.6 2-13.1 4.6-19.5 7.8-6.3 3.1-12.2 6.6-17.4 10.4a60.4 60.4 0 0 0-13 12.2 32.5 32.5 0 0 0-4 6.5 9.9 9.9 0 0 0-.8 4.2c0 .6 0 1.2.2 2a7.7 7.7 0 0 0 3.2 5.6 9 9 0 0 0 5.5 1.7h1.7c2.8-.4 4.2-1.2 4.5-1.7 1-1.1 2.2-2.9 3.5-5.2 4.6-8.4 10.3-16.3 17.2-23.4 7.3-7.5 17-12 28.7-13.4l4.2-.3c5.9 0 11.3 1.8 15.5 5.4a25 25 0 0 1 9 16.6l.3 4.5c0 6.5-1.7 12.9-5 19-4 7.6-9.2 14.5-15.7 21a182.6 182.6 0 0 1-21 18 1054.6 1054.6 0 0 1-28.5 19.7c-1 .6-2.4 2.6-3.3 6.3l-.1.3v1c.4 2 .5 2 2.3 2.7 1.8.3 3.5.5 5 .5l2.2-.1c4.6-.6 9-1.4 13.4-2.5a136.2 136.2 0 0 1 31.2-3.6c6 0 12.2.4 18.4 1.1 12.1 1.4 23.4 4.5 33.8 9a80.1 80.1 0 0 1 26.6 19 53 53 0 0 1 13.5 30.3 78.4 78.4 0 0 1-8.6 47.5 127.6 127.6 0 0 1-31.6 38.6 182.9 182.9 0 0 1-45.4 27.6 184.5 184.5 0 0 1-50.6 14c-4.1.5-8.2.8-12.2 1h-2c-3.4 0-7-.4-10.5-1.2a367 367 0 0 1-12.2-2.8 35.4 35.4 0 0 0-11.1-.6Z" class="e"/><path d="M452.5 328.3c-6.8.4-13.7.3-20.5-.3-6.8-.6-12.9-1.9-18.3-4-5.3-2-8.3-5.2-8.9-9.7-.3-3 .5-5.2 2.4-6.5 2-1.2 4.3-2 7.2-2.3 4.4-.6 8.5-.4 12.3.6 3.8 1 7.9 1.9 12.1 2.8 4 1 7.9 1.3 11.7 1.1a181.3 181.3 0 0 0 61.5-14.7 179 179 0 0 0 44.6-27.1c13.1-11 23.4-23.5 30.8-37.6a75.8 75.8 0 0 0 8.2-45.5 49.6 49.6 0 0 0-12.6-28.3 76.8 76.8 0 0 0-25.5-18.2c-10-4.5-21-7.4-32.8-8.8a145.3 145.3 0 0 0-48.4 2.4c-4.5 1.2-9.1 2-13.8 2.6-2.6.3-5.3.1-8.3-.5-3-.6-4.6-2.5-5-5.6-.1-1 0-2 .2-2.6 1-4 2.7-6.8 4.8-8.2a1090.6 1090.6 0 0 0 28.4-19.6A181 181 0 0 0 503 80.7a85 85 0 0 0 15.2-20.2 36 36 0 0 0 4.3-21.6 21.5 21.5 0 0 0-7.7-14.4 21.6 21.6 0 0 0-17.2-4.3A43 43 0 0 0 471 32.6c-6.7 7-12.3 14.5-16.8 22.7a30.8 30.8 0 0 1-3.8 5.8c-1.3 1.4-3.5 2.3-6.7 2.7-3.8.5-7-.3-9.6-2.2-2.7-2-4.2-4.6-4.6-8-.4-3 0-5.7 1-8a35 35 0 0 1 4.4-7.1c3.6-4.7 8.1-9 13.6-13A125.5 125.5 0 0 1 486.4 7a109.5 109.5 0 0 1 58.2-2.2 40 40 0 0 1 15.7 8.5c4.3 3.9 7 9.2 7.7 16 .9 7.2 0 14.3-3 21.3-2.8 7-6.8 13.7-12 19.8-5.1 6.2-11 11.9-17.4 17-6.4 5.2-12.8 9.8-19 13.7 14-.6 27.9.3 41.5 2.8 13.6 2.5 26 6.5 37 12.1a81.3 81.3 0 0 1 27.8 22.6 77.3 77.3 0 0 1 9.4 71.5 127 127 0 0 1-19 34c-8.2 10.8-18.2 21-29.7 30.5a259.8 259.8 0 0 1-76.8 43.2 184 184 0 0 1-54.3 10.6Z" style="fill:#fff200"/><path d="M431.9 329.7a70 70 0 0 1-18.8-4c-5.7-2.2-9.4-6-10-11.2V313c0-2.7 1-5.2 3.2-6.5 2.2-1.4 4.8-2.2 7.9-2.6l4.8-.3c2.8 0 5.5.3 8.1 1l12.1 2.7a44.8 44.8 0 0 0 11.2 1.1 179.5 179.5 0 0 0 61-14.6c16.4-7 31.1-16 44.1-26.8a123 123 0 0 0 30.4-37.1c5.8-11 8.6-22.5 8.6-34.7 0-3.2-.2-6.5-.6-9.8a47.9 47.9 0 0 0-12.1-27.4 75.2 75.2 0 0 0-25-17.8 111 111 0 0 0-32.3-8.6 132.8 132.8 0 0 0-34 0c-4.7.5-9.3 1.3-13.8 2.4-4.5 1.1-9.2 2-14 2.6l-2.8.1c-2 0-4-.2-6-.6-3.6-.7-6-3.4-6.4-7v-1.4c0-.7 0-1.4.3-2 1.1-4.3 2.8-7.4 5.4-9.1l8.5-5.7c5.9-3.9 12.5-8.5 19.9-13.9a179 179 0 0 0 20.2-17.4 83.4 83.4 0 0 0 14.9-19.8 33.5 33.5 0 0 0 4.2-20.6c-.8-5.5-3-9.8-7.2-13.3a18.5 18.5 0 0 0-12.3-4.2l-3.6.3a41.2 41.2 0 0 0-25.6 11.9c-6.6 6.8-12 14.2-16.5 22.3a32.4 32.4 0 0 1-4 6.1c-1.8 1.9-4.4 2.9-7.8 3.3l-2.3.1a14 14 0 0 1-8.5-2.7c-3-2.2-4.9-5.3-5.3-9.1l-.2-2.6c0-2.3.4-4.4 1.3-6.3 1-2.4 2.6-4.9 4.6-7.5 3.7-4.8 8.4-9.2 14-13.3a138.9 138.9 0 0 1 38.4-19c6.9-2 13.4-3.4 19.5-4.2A120.8 120.8 0 0 1 525 0c7 .2 13.8 1.2 20 3a41.6 41.6 0 0 1 16.4 9c4.7 4.1 7.5 9.9 8.3 16.9l.3 5.4c0 5.7-1.1 11.3-3.4 16.9-2.9 7.2-7 14-12.3 20.2-5.2 6.3-11.1 12-17.6 17.3A197 197 0 0 1 522.6 99h1.9c11.4 0 22.7 1 33.9 3 13.7 2.5 26.2 6.6 37.5 12.3a83 83 0 0 1 28.4 23 71.2 71.2 0 0 1 14 36 79.8 79.8 0 0 1-4.3 37.1c-4.5 12.1-10.9 23.6-19.3 34.6-8.4 10.9-18.4 21.1-30 30.7a261.2 261.2 0 0 1-77.3 43.5c-13.7 4.8-26.7 8-39.2 9.5-3.5.4-8.7.8-15.6 1.2l-8.4.3c-4.1 0-8.2-.2-12.3-.6Zm-17.3-22.5c-2.7.3-4.8 1-6.5 2-1 .8-1.6 1.7-1.7 3.7l.1 1.2c.5 3.8 2.8 6.4 7.8 8.4 5.2 2 11.2 3.3 17.9 3.8a145.1 145.1 0 0 0 20.2.3 182.5 182.5 0 0 0 53.8-10.5 258.7 258.7 0 0 0 39.7-18c13-7.2 25.2-15.5 36.6-25A186 186 0 0 0 612 243a125.4 125.4 0 0 0 18.7-33.6A77.7 77.7 0 0 0 635 174a67.7 67.7 0 0 0-13.3-34.3 79.6 79.6 0 0 0-27.2-22.2c-11-5.5-23.2-9.5-36.6-12a186.5 186.5 0 0 0-41.1-2.8l-6.5.3 5.5-3.4c6.2-3.8 12.5-8.3 18.9-13.5a124 124 0 0 0 17.1-16.8c5.1-6 9-12.4 11.8-19.3a42.5 42.5 0 0 0 2.8-20.6 22.7 22.7 0 0 0-7.1-14.8 38.1 38.1 0 0 0-15-8.2c-6-1.7-12.5-2.7-19.3-2.9h-3.5a107.5 107.5 0 0 0-34.5 5c-6.7 2.2-13.3 4.8-19.7 8-6.5 3.1-12.4 6.6-17.7 10.5-5.4 3.8-9.8 8-13.3 12.6a33.6 33.6 0 0 0-4.2 6.8c-.6 1.4-1 3-1 4.9 0 .7 0 1.4.2 2.2.4 3 1.6 5 3.9 6.8 1.8 1.3 4 2 6.5 2h2c2.9-.4 4.7-1.3 5.5-2.3 1.1-1.3 2.4-3 3.6-5.4 4.6-8.4 10.3-16 17-23.1 7-7.2 16.3-11.5 27.7-12.9l4-.3a22 22 0 0 1 14.4 5c4.8 4 7.7 9.2 8.4 15.5a38.8 38.8 0 0 1-4.5 22.6c-4 7.3-9 14.2-15.5 20.6a182.8 182.8 0 0 1-20.6 17.7 1120.3 1120.3 0 0 1-28.5 19.7c-1.6 1-3 3.4-4 7.3l-.1.1v.1l-.2.8v1c.5 2.5 1.4 3.4 3.8 4a20.7 20.7 0 0 0 7.7.5c4.6-.6 9.2-1.4 13.6-2.5a137.7 137.7 0 0 1 30.8-3.6c6 0 12 .4 18.2 1.1 12 1.4 23.1 4.4 33.3 9a78.6 78.6 0 0 1 26 18.5c7.4 8 11.7 17.8 13.1 29.3a76.8 76.8 0 0 1-8.4 46.5c-7.5 14.3-18 27-31.2 38a180.8 180.8 0 0 1-45 27.5 183.2 183.2 0 0 1-50 13.8c-4.2.5-8.2.8-12.1 1h-2c-3.3 0-6.7-.3-10.1-1.1l-12.2-2.8c-2.3-.6-4.7-1-7.3-1-1.4 0-3 .2-4.4.4Z" style="fill:#ed1c24"/><path d="m9.2 133.6 61.5-5.6a68.4 68.4 0 0 1 45 9.5 49.1 49.1 0 0 1 22.5 39l1.5 16.7a51.5 51.5 0 0 1-14.7 43.2 65.5 65.5 0 0 1-42.6 18.5L70 256.1l5.9 64-49.2 4.5-17.6-191Zm53.5 41.7 3.2 34.8 11.8-1c11.3-1 16.5-7.5 15.4-19.2-1-11.5-7.3-16.8-18.6-15.7l-11.8 1ZM140.1 121.6l49.2-4.5 17.5 191-49.2 4.5-17.5-191ZM259.9 242.4c.8 8.7 5.5 12.7 14.2 11.9l43-4 4.3 47.2-43.4 4a67.3 67.3 0 0 1-45.2-9.8 50.3 50.3 0 0 1-21.9-39.7l-7.4-80.6a50.8 50.8 0 0 1 14.3-43 67.3 67.3 0 0 1 42.6-17.9l43.4-4 4.3 46.2-43 4c-8.6.8-12.6 5.5-11.8 14.2l6.6 71.5ZM457.6 288.4 408 293l-6-66.6c-1-10.3-5.8-15-14.5-14.2l-16.6 1.6 7.2 78.5-49.2 4.5-17.5-191 49.2-4.5 5.7 62.8 32-66.2 55-5-48.7 80.3c12.8 0 23.4 3.3 31.7 9.8a39 39 0 0 1 14.1 28.5l7 77Z" class="e"/><path d="m1.8 127.5 61.5-5.7a68.4 68.4 0 0 1 45 9.5 49.1 49.1 0 0 1 22.5 39l1.5 16.8a51.5 51.5 0 0 1-14.7 43.1A65.6 65.6 0 0 1 75 248.8l-12.3 1.1 5.9 64-49.2 4.5-17.6-191ZM55.3 169l3.2 34.9 11.8-1c11.3-1.1 16.5-7.5 15.4-19.2-1-11.6-7.3-16.8-18.6-15.8l-11.8 1.1Z" class="h"/><path d="m.2 127.6 1.6-.1.2 1.6-.2-1.6-1.6.1-.2-1.7 63.2-5.8c3-.3 6-.4 8.9-.4 14.2 0 26.6 3.4 37 10.2a50.9 50.9 0 0 1 23.4 40.2L134 187l.3 6.3c0 15-5.2 27.8-15.5 38.2a67.3 67.3 0 0 1-43.7 19l-10.6 1 5.9 64-52.6 4.9L.2 127.6Zm20.7 189 45.8-4.2-5.9-64 14-1.3a63.9 63.9 0 0 0 41.6-18.1 48.8 48.8 0 0 0 14.5-35.8c0-2 0-4-.3-6l-1.5-16.8a47.4 47.4 0 0 0-21.8-37.6 62.8 62.8 0 0 0-35.2-9.7c-2.8 0-5.7.1-8.6.4L3.7 129l17.2 187.6Zm32.7-147.3-.2-1.7 13.5-1.3 2.9-.1c10.3-.2 16.8 6.3 17.6 17.4l.2 3c.1 10.6-6.2 17.2-17.2 18L57 205.8l-3.3-36.5ZM60 202l10.1-.9c9.8-1 13.9-5.3 14-14.5v-2.8c-1.2-10-5.4-14.1-14.3-14.3l-2.6.1-10 1L60 202Z" class="d"/><path d="M132.7 115.4 182 111l17.5 191-49.2 4.5-17.5-191Z" class="h"/><path d="m131 115.6 1.7-.2.2 1.7-.2-1.7-1.7.2-.1-1.7 52.5-4.8 17.9 194.3-52.6 4.9L131 115.6Zm20.8 189 45.8-4.3-17.2-187.5-45.8 4.2 17.2 187.6Z" class="d"/><path d="M252.5 236.3c.8 8.7 5.5 12.6 14.2 11.8l43-3.9 4.3 47.2-43.4 4a67.3 67.3 0 0 1-45.2-9.8 50.3 50.3 0 0 1-21.9-39.8l-7.4-80.5a50.8 50.8 0 0 1 14.3-43 67.3 67.3 0 0 1 42.6-18l43.4-3.9 4.3 46.2-43 4c-8.6.7-12.6 5.5-11.8 14.2l6.6 71.5Z" class="h"/><path d="M224.4 287a52 52 0 0 1-22.6-41l-7.4-80.6-.3-6.7c0-15.1 5-27.8 15-37.7a69 69 0 0 1 43.8-18.3l45-4.1 4.6 49.5-44.6 4.1c-7.4.9-10.2 3.8-10.4 10.5l.1 2 6.6 71.4-1.7.2-1.7.1-6.6-71.5v-2.2c-.3-8.1 5-13.3 13.4-13.9l41.2-3.8-3.9-42.7-41.7 3.8a65.6 65.6 0 0 0-41.6 17.3 47.3 47.3 0 0 0-14.1 35.3l.3 6.4 7.4 80.6a48.6 48.6 0 0 0 21.1 38.5 61.5 61.5 0 0 0 35.4 9.9c2.8 0 5.7-.2 8.7-.4l41.7-3.9-4-43.8-41.2 3.8-2.3.1c-8 .2-13.2-5-13.8-13.5l1.7-.1 1.7-.2c.9 7.5 3.8 10.2 10.4 10.4h2l44.6-4.2 4.6 50.6-45 4.2c-3.2.2-6.2.4-9.1.4a65 65 0 0 1-37.3-10.5Z" class="d"/><path d="m450.2 282.3-49.5 4.5-6-66.6c-1-10.2-5.8-15-14.5-14.1l-16.6 1.5 7.2 78.6-49.2 4.5-17.5-191 49.2-4.5 5.7 62.7 32-66.2 55-5-48.7 80.4c12.9 0 23.4 3.2 31.7 9.7a39 39 0 0 1 14.1 28.6l7 76.9Z" class="h"/><path d="m302.3 98.2 52.5-4.9 5.4 58.4L389.9 90l59.3-5.4-48.9 80.7c11.8.5 21.8 3.8 29.7 10a40.7 40.7 0 0 1 14.8 29.8l7 77h-1.6 1.7l.1 1.6-52.8 4.9-6.3-68.3c-1-9.1-4.2-12.6-10.9-12.7h-1.7l-14.9 1.4 7.3 78.6-52.6 4.8-17.8-194.3Zm3.6 3 17.3 187.6 45.8-4.2-7.2-78.5 18.2-1.7 2-.1c8.4-.2 13.6 5.9 14.3 15.7l6 65 46-4.3-6.9-75.2a37.3 37.3 0 0 0-13.5-27.4 48 48 0 0 0-30.6-9.3h-3l48.5-80.1-50.7 4.6-34.2 71-6.2-67.3-45.8 4.2Z" class="d"/></g></svg>