<svg xmlns="http://www.w3.org/2000/svg" id="b" viewBox="0 0 527.8 277.7"><defs><style>.d{fill:#fbb040}.e{fill:#ed1c24}.f{fill:#231f20}</style></defs><g id="c"><path d="M323.1 31s54 13.4 54.8 125c2.7 2.2 5.6 4.2 8.6 6-.2-72-20.1-122.6-63.4-131ZM301 41.2l17.2-11.1-2.6-13.6L301 41.2zM303.2 31l6.5-19.5-10.6-9 4.1 28.5zM283.5 31.1l12.1-16.6-7.3-11.7-4.8 28.3zM258 28l20.3-3.4 2.9-13.5L258 28zM232.5 28.3l20.6-.2 5-12.9-25.6 13.1zM254.4 0 271 12l11.7-7.5L254.4 0zM230 3.4l16.7 12L258.3 8 230 3.4zM213.8 11.9l16.7 12 11.6-7.5-28.3-4.5zM81.5 15.3l16.7 12 11.7-7.5-28.4-4.5zM219.6 29.5l16.7 12L248 34l-28.4-4.5zM193.4 22.9l19.2-7.5 9.4 10.1-28.6-2.6zM171.5 44l16.7 12 11.6-7.5-28.3-4.5zM276.8 43l19.7-5.7 1.4-13.8L276.8 43zM251.3 36.4l20.1 4.1 7.6-11.6-27.7 7.5zM363 272.3l9 5.4c8.6-35.6 14.1-69.7 16.6-100.7a49.7 49.7 0 0 0-7.9-6c-2.4 28.4-8 61.8-17.7 101.3ZM372 277.7l28-35.7 127.8-5.9L405.9 250 372 277.7zM363 272.3 349.3 241 0 240.2l338.1 8.2 24.9 23.9z" class="d"/><path d="M146.1 189.5h2.8a54 54 0 0 1-53.3 41 65.3 65.3 0 0 1-54.6-29 51.7 51.7 0 0 1-5.2-46.7c2.3-6 5.6-11.7 9.9-16.9a67 67 0 0 1 15-13.4 53.6 53.6 0 0 1 30.1-8.5c3.8 0 7.4.3 10.8 1 3.4.6 6.6 1.7 9.6 3.1 3 1.4 6.1 3.3 9.3 5.7 3.6 2.5 6.2 3.7 7.9 3.7 3.7 0 8.4-3.9 14-11.6h2.8l2.3 53h-2.6c-1-4-1.8-7-2.6-9.5a78.2 78.2 0 0 0-16.1-26.6c-5-5.3-10.3-9.4-16.2-12.1a41.3 41.3 0 0 0-18-4.2c-7.3 0-13.3 2-17.9 5.9-4.6 3.9-8 10-10.3 18.2a124 124 0 0 0-3.3 31.6c0 7.4.4 13.9 1.1 19.5.8 5.7 2 10.5 3.7 14.4 1.7 4 3.8 7.2 6.3 9.8 3 3.2 6.8 5.6 11.3 7.2 4.4 1.7 9.3 2.5 14.5 2.5a52 52 0 0 0 26.7-7.5 50.8 50.8 0 0 0 22-30.6Z" class="f"/><path d="M196.6 116h3l44.2 96.3c1.5 3 3 5.4 4.8 7.4 1.8 2 3.7 3.3 6 4.2 2.2.9 4.8 1.3 7.8 1.3h2.9v3h-64v-3h8.4c4.2 0 7.2-.6 9.1-1.7 2-1.1 2.9-2.9 2.9-5.2 0-1.5-.4-3.3-1.1-5.4a171.3 171.3 0 0 0-6.8-15.1l-1.8-4h-46.7l-3.5 8.1a21.8 21.8 0 0 0-1.7 8.5c0 2.4.6 4.8 2 7.1 1.3 2.4 3 4.2 5.2 5.4a14.8 14.8 0 0 0 8.7 2.3v3H131v-3c3.3-.4 5.9-1 7.8-1.7 2-.8 4-2.1 6.4-4 5.6-4.3 11-12.4 16.3-24.3l35-79.2Zm-8.3 25.7-21.6 49.1h43.7l-22.1-49ZM292.5 226.3v-48c-11-3.6-19-7.9-24-12.7-5-4.9-7.6-10.8-7.6-17.7a25.5 25.5 0 0 1 5.4-15.8 36.8 36.8 0 0 1 15.3-11.8c3-1.3 6.7-2.4 11-3.4v-5.7h2.7v5.4a76.6 76.6 0 0 1 14.5-.3v-5h2.7v5.1c4.4.7 7.9 1.3 10.5 2a41 41 0 0 1 14.3 7c6.3 5 9.4 10.5 9.4 16.6 0 3.3-1 6-3 8-2 2.2-4.6 3.2-7.8 3.2-3 0-5.5-1-7.6-2.8-2-1.9-3-4.3-3-7.2 0-4.8 2.7-8.1 8.2-10.1 2.3-.8 3.4-1.7 3.4-2.6 0-1.5-1.5-3.2-4.5-5.2-5-3.2-11.6-5.2-19.9-6.1v42c7.5 2.6 12.9 4.6 16.2 6.2 5.2 2.4 9.6 5.1 13 8 3.5 3 6 6.1 7.6 9.6a29 29 0 0 1-1.3 26.3 33.5 33.5 0 0 1-10.9 11.4 41.9 41.9 0 0 1-10.2 4.8c-3.5 1-8.3 2-14.4 2.6v14.2h-2.7v-14h-2l-12.5-.2v14.2h-2.8v-14.8a85 85 0 0 1-16-3c-3.8-1.2-7.3-3-10.5-5.3a19 19 0 0 1-8-15.4 12 12 0 0 1 3.4-8.8 12 12 0 0 1 8.9-3.4c3.3 0 6 1 8.1 3 2.1 2.1 3.2 4.7 3.2 8 0 2.1-.6 4-1.7 5.6s-3 3-5.6 4.5c-2.6 1.3-3.8 2.6-3.8 3.7 0 1.5 1.7 2.9 5 4.2 4.9 2 10.5 3.3 17 3.7Zm0-71.5v-34.7c-13.7 2.8-20.6 8.7-20.6 17.6 0 4 1.6 7.3 4.8 10 3.2 2.7 8.5 5 15.8 7.1Zm17.3 5.5v-41.5h-2.9c-3.4 0-7.3.2-11.6.7v36.3l14.5 4.5Zm0 23.8-4.2-1.4a462.8 462.8 0 0 1-10.3-3.4v47.5c2.2.3 5.5.4 9.7.4h4.8V184Zm2.7.9v42c5-.4 9.5-1.4 13.3-3.1a21 21 0 0 0 8.8-6.8c2-2.8 3-6 3-9.6 0-5.2-2-9.6-5.8-13a53.3 53.3 0 0 0-19.3-9.5Z" class="f"/><path d="M343 225.2h3.5c6.8 0 11.8-1.7 15-5 3.4-3.2 5-8.3 5-15v-67c-.5-3.3-1.1-6-2-8-.8-2-2.1-3.6-3.8-5-3.2-2.7-8-4.1-14.2-4.1h-3.8v-3H412v3h-2.4c-6.8 0-11.8 1.6-15.1 5-3.3 3.2-5 8.2-5 15v29.6H449V141c0-6.8-1.6-11.9-4.9-15.1-3.2-3.3-8.3-5-15-5h-2.4v-2.8h68.8v2.9h-3.2c-6.7 0-11.7 1.6-15 5-3.4 3.2-5 8.2-5 15v64c0 6.8 1.7 11.8 5 15.1 3.4 3.3 8.4 5 15 5h3.2v3h-68.8v-3h2.3c6.8 0 11.8-1.7 15.1-5 3.3-3.2 5-8.3 5-15v-31.3h-59.3v31.3c0 6.7 1.6 11.7 5 15 3.4 3.3 8.4 5 15 5h2.4v3H343v-3Z" class="f"/><path d="M147.7 187.9h2.8a54.2 54.2 0 0 1-10.5 21.4 52.3 52.3 0 0 1-42.8 19.6 65.3 65.3 0 0 1-54.6-29 51.7 51.7 0 0 1-5.2-46.7c2.3-6 5.6-11.7 9.9-16.9a67 67 0 0 1 15-13.4 53.6 53.6 0 0 1 30.1-8.6c3.8 0 7.4.4 10.8 1 3.4.7 6.6 1.7 9.6 3.2 3 1.4 6.1 3.3 9.3 5.7 3.6 2.5 6.2 3.7 8 3.7 3.6 0 8.3-3.9 14-11.7h2.7l2.3 53h-2.6c-1-3.8-1.8-7-2.6-9.4a78.3 78.3 0 0 0-16.1-26.6c-5-5.3-10.3-9.4-16.2-12.2a41.3 41.3 0 0 0-18-4.1c-7.3 0-13.3 2-17.9 5.8-4.6 4-8 10-10.3 18.3a124 124 0 0 0-3.3 31.6c0 7.3.4 13.9 1.2 19.5.8 5.7 2 10.5 3.6 14.4a32 32 0 0 0 6.3 9.8c3 3.2 6.9 5.6 11.3 7.2 4.4 1.7 9.3 2.5 14.5 2.5a51.8 51.8 0 0 0 26.7-7.5 51 51 0 0 0 22-30.6ZM198.2 114.3h3l44.3 96.3c1.4 3 3 5.5 4.7 7.5 1.8 1.9 3.8 3.3 6 4.2 2.2.8 4.8 1.3 7.8 1.3h2.9v3h-64v-3h8.4c4.2 0 7.2-.6 9.1-1.7 2-1.1 3-2.9 3-5.3 0-1.4-.5-3.2-1.2-5.3a173 173 0 0 0-6.8-15.2l-1.8-4H167l-3.6 8.2a21.8 21.8 0 0 0-1.7 8.5c0 2.4.7 4.8 2 7.1 1.3 2.4 3 4.2 5.2 5.4a15 15 0 0 0 8.7 2.3v3h-44.8v-3c3.2-.4 5.8-1 7.7-1.8 2-.8 4-2 6.4-3.9 5.6-4.3 11-12.4 16.4-24.4l35-79.2Zm-8.3 25.8-21.6 49.1H212l-22.1-49ZM294.1 224.7v-48a64 64 0 0 1-24-12.7c-5-4.9-7.6-10.8-7.6-17.7a25.5 25.5 0 0 1 5.4-15.8 37 37 0 0 1 15.3-11.8c3-1.3 6.7-2.5 11-3.4v-5.7h2.7v5.4a76.6 76.6 0 0 1 14.5-.3v-5h2.8v5.1c4.3.7 7.8 1.3 10.4 2a40.9 40.9 0 0 1 14.3 7c6.3 5 9.4 10.5 9.4 16.6 0 3.2-1 5.9-3 8-2 2.2-4.6 3.2-7.7 3.2-3.1 0-5.6-1-7.7-2.8-2-2-3-4.3-3-7.2 0-4.8 2.7-8.2 8.2-10.2 2.3-.7 3.4-1.6 3.4-2.6 0-1.4-1.5-3.1-4.5-5.2-5-3.1-11.6-5.1-19.8-6v42c7.4 2.6 12.8 4.6 16.1 6.2a57 57 0 0 1 13 8c3.5 3 6 6.1 7.7 9.6 1.6 3.5 2.4 7.4 2.4 11.8a29 29 0 0 1-3.8 14.5 33.6 33.6 0 0 1-10.9 11.4 42.2 42.2 0 0 1-10.2 4.8 79 79 0 0 1-14.3 2.6v14.1h-2.8v-13.8h-2l-12.5-.3v14.1H294V228a84.6 84.6 0 0 1-16-3c-3.8-1.2-7.3-3-10.4-5.3a19 19 0 0 1-8-15.4 12 12 0 0 1 3.3-8.8 12 12 0 0 1 9-3.4c3.2 0 6 1 8 3 2.1 2.1 3.2 4.7 3.2 8 0 2.1-.6 4-1.7 5.6a16 16 0 0 1-5.6 4.5c-2.5 1.3-3.8 2.5-3.8 3.7 0 1.5 1.7 2.9 5 4.2 4.9 2 10.5 3.3 17 3.7Zm0-71.5v-34.7c-13.7 2.8-20.6 8.7-20.6 17.6 0 4 1.6 7.3 4.8 10 3.2 2.7 8.5 5 15.8 7.1Zm17.3 5.5v-41.5h-2.8c-3.5 0-7.4.2-11.7.7V154a911 911 0 0 0 14.5 4.6Zm0 23.7-4.2-1.3-4.3-1.5-6-1.9v47.5c2.2.2 5.5.3 9.7.3h4.8v-43Zm2.8 1v42c5-.4 9.4-1.4 13.2-3.1a21 21 0 0 0 8.8-6.8c2-2.8 3-6 3-9.7 0-5.2-2-9.5-5.7-13a53.3 53.3 0 0 0-19.3-9.4Z" class="e"/><path d="M344.5 223.6h3.6c6.8 0 11.8-1.7 15-5 3.4-3.2 5-8.3 5-15v-67c-.5-3.3-1.1-6-2-8-.8-2-2-3.6-3.8-5-3.2-2.7-8-4.1-14.2-4.1h-3.8v-3h69.4v3h-2.4c-6.8 0-11.8 1.6-15.1 4.9-3.3 3.3-5 8.3-5 15V169h59.3v-29.5c0-6.8-1.6-11.9-4.8-15.1-3.3-3.3-8.3-5-15.2-5h-2.3v-2.8H497v2.9h-3.2c-6.7 0-11.7 1.6-15 4.9-3.4 3.3-5 8.3-5 15v64.2c0 6.7 1.7 11.7 5 15 3.4 3.3 8.4 5 15 5h3.2v3h-68.8v-3h2.3c6.8 0 11.8-1.7 15.1-5 3.3-3.2 5-8.3 5-15v-31.3h-59.3v31.3c0 6.7 1.7 11.7 5 15 3.4 3.3 8.4 5 15 5h2.4v3h-69.2v-3Z" class="e"/><path d="M75.6 73h.8v10h-.8c-.9-2.4-1.9-4.3-3-5.6a12 12 0 0 0-3-2.5 16.9 16.9 0 0 0-12-1.9c-.9.3-1.6.8-2.3 1.4-.4.5-.8 1-1 1.6-.3.5-.4 1-.4 1.6 0 1 .3 1.8 1.1 2.5.4.4.9.7 1.5 1a89.2 89.2 0 0 0 7.9 2.4l1 .3 1.7.4a46 46 0 0 1 6 1.9c1.3.5 2.4 1.3 3.3 2.2a7 7 0 0 1 2.2 5.1c0 1-.2 2-.6 3-.4 1.1-1 2-1.9 2.8-1 1-2.3 1.8-3.8 2.4a17.2 17.2 0 0 1-9 .4c-1.3-.3-2.7-.8-4.5-1.5l-2.5-1-1.7-.2a4 4 0 0 0-2.5.8c-.7.5-1.2 1.3-1.4 2.2h-.8V88.7h.8c.3 2.4 1.3 4.6 3 6.6 1 1.1 2.2 2.2 3.7 3.2a21 21 0 0 0 5 2.3c1.6.6 3.2.8 4.8.8a10 10 0 0 0 3.7-.6c1.1-.5 2-1.1 2.7-2 .6-.7.9-1.6.9-2.6 0-1.1-.4-2-1.3-3l-1.5-1-2.4-1-4.1-1.2-2.1-.5-6.9-2.1c-1.4-.5-2.5-1-3.3-1.6a8 8 0 0 1-2-2 6 6 0 0 1-1.4-3.7c0-1.6.5-3 1.5-4.3 1-1.3 2.3-2.4 4-3 1.8-.8 3.7-1.2 5.8-1.2 3.2 0 6.5 1 10 2.7 1.2.6 2 .9 2.5.9 1 0 1.8-.8 2.3-2.4Z" class="f"/><path d="M63.1 102.4a28 28 0 0 1-4.4-1.5L56 100l-1.5-.2c-1 0-1.6.2-2.2.7-.6.4-1 1-1.2 2l-.1.3h-1.7V88.2h1.7v.5C51.6 91 52.5 93 54 95a20.6 20.6 0 0 0 8.5 5.4c1.6.5 3.2.7 4.7.7 1.3 0 2.5-.2 3.5-.6 1-.4 1.9-1 2.5-1.7.5-.7.8-1.5.8-2.4 0-1-.4-1.8-1.1-2.6a6 6 0 0 0-1.4-1L69 92l-4-1.2-2.2-.6a79 79 0 0 1-6.8-2c-1.5-.6-2.6-1-3.5-1.6a8.4 8.4 0 0 1-2.2-2.1 6.5 6.5 0 0 1-1.4-4c0-1.8.5-3.4 1.6-4.7a10 10 0 0 1 4.2-3.3c1.8-.7 3.8-1 6-1 3.3 0 6.7.8 10.2 2.6a7 7 0 0 0 2.3.9c.8 0 1.4-.5 1.8-2l.1-.4h1.6v11h-1.5l-.2-.3c-.8-2.4-1.8-4.2-2.9-5.5-.8-1-1.7-1.7-3-2.4a17 17 0 0 0-8.5-2.3c-1 0-2 .2-2.9.5-.8.3-1.5.7-2.1 1.3l-1 1.4-.3 1.4c0 .8.3 1.5 1 2.2l1.3.9 2.5 1 4.3 1 1 .3 1 .3 1.7.4c2.8.7 4.8 1.4 6.2 2 1.3.5 2.4 1.3 3.4 2.2.7.7 1.3 1.5 1.7 2.5a8.1 8.1 0 0 1 0 6.3 10.3 10.3 0 0 1-6 5.4 17.9 17.9 0 0 1-9.3.4Zm-12.7-1a4 4 0 0 1 1.4-1.7c.7-.6 1.7-1 2.8-.9.6 0 1.2 0 1.8.3.6.1 1.5.4 2.6.9h.1l-2-1c-1.5-1-2.8-2.2-3.9-3.4a13 13 0 0 1-2.8-5.4v11.2Zm4.8-28a9 9 0 0 0-3.8 2.8 6.7 6.7 0 0 0-1.4 4.1c0 1.3.4 2.4 1.2 3.5.6.7 1.2 1.3 2 1.8.7.5 1.8 1 3.2 1.5 1.3.5 3.5 1.2 6.8 2l2.1.6 4.1 1.3c1 .3 1.9.6 2.5 1a7 7 0 0 1 1.7 1.1c.9 1 1.4 2 1.4 3.3 0 1-.4 2.1-1 3-.7.9-1.7 1.5-2.9 2 .4 0 .7-.2 1-.3a9.3 9.3 0 0 0 3.7-2.3c.7-.7 1.3-1.6 1.7-2.5.4-1 .7-2 .7-2.9 0-1-.2-1.8-.6-2.6-.3-.9-.9-1.6-1.5-2.2a9.8 9.8 0 0 0-3.1-2c-1.3-.6-3.3-1.2-6-2l-1.7-.4-1-.2-1-.3-4.4-1.1-2.6-1c-.7-.3-1.2-.7-1.6-1.1a3.9 3.9 0 0 1-1.3-3c0-.5.1-1.1.4-1.8a6.4 6.4 0 0 1 3-3l-1.6.7ZM73 77c1 1.3 2 3 2.9 5.2v-8.5c-.6 1.3-1.5 2.1-2.6 2-.7 0-1.5-.2-2.7-.8a12 12 0 0 1 2.4 2ZM81.9 72.4h20.4v.8H100c-1.8 0-3.2.4-4 1.3-1 .9-1.4 2.2-1.4 4v15a8 8 0 0 0 1.2 4.4c.8 1.2 1.9 2.1 3.4 2.8a15.8 15.8 0 0 0 10.3.2 9.4 9.4 0 0 0 3.6-2.1 9.9 9.9 0 0 0 2.5-7.2V81c0-3.3-1-5.6-3-6.8-.5-.4-1-.6-1.7-.8l-2.7-.2v-.8h14.3v.8c-.9 0-1.6.2-2 .3a5.7 5.7 0 0 0-3.4 3.3c-.5 1-.7 2.2-.7 3.5v11.8c0 3.1-.9 5.5-2.6 7.2-1 .9-2 1.5-3 1.9a26.7 26.7 0 0 1-14.3.6 14 14 0 0 1-4.6-2 7.8 7.8 0 0 1-3.5-6.8V78.5c0-3.5-1.8-5.3-5.3-5.3h-1.2v-.8Z" class="f"/><path d="M96.4 102.3c-2-.5-3.5-1.2-4.8-2a8.3 8.3 0 0 1-3.7-7.3V78.5c0-3.4-1.4-4.7-4.8-4.8h-1.7v-1.8h21.4v1.8H100c-1.8 0-3 .4-3.7 1.2-.8.7-1.2 1.9-1.2 3.6v15c0 1.6.4 3 1.1 4 .7 1.2 1.8 2.1 3.2 2.7 1.4.7 3 1 5 1 1.8 0 3.4-.3 4.9-.8a9 9 0 0 0 3.5-2c1.5-1.6 2.3-3.8 2.3-6.8V81c0-3.2-.9-5.3-2.7-6.4-.5-.3-1-.6-1.6-.7l-2.6-.2h-.5v-1.8H123v1.7h-.4l-2 .4c-.5.2-1 .4-1.5.8-.7.5-1.3 1.3-1.7 2.2-.4 1-.6 2-.6 3.3v11.8c0 3.2-.8 5.7-2.7 7.5-1 1-2 1.6-3.1 2a27.2 27.2 0 0 1-14.6.6Zm-9-28.1c1 1 1.5 2.5 1.5 4.3V93c0 2.9 1 5 3.3 6.5 1.1.7 2.6 1.4 4.4 1.8 1.6.4 3.2.6 5 .6-1-.1-1.8-.4-2.6-.8a8.1 8.1 0 0 1-3.6-3 8.4 8.4 0 0 1-1.3-4.6v-15c0-1.9.5-3.3 1.5-4.4.6-.6 1.4-1 2.3-1.2H85.1a5 5 0 0 1 2.3 1.3ZM111 73c.7.1 1.3.4 2 .7 1.6 1 2.6 2.8 3 5 0-.7.2-1.4.5-2.1.5-1 1.1-2 2-2.6l1.8-1 .6-.1h-10.1.2ZM124.3 72.4h17.6a60.9 60.9 0 0 1 9.2.7c2.3.5 4 1.4 5.3 2.7a6.5 6.5 0 0 1 1.8 4.7 6.7 6.7 0 0 1-3.5 6c-1.1.7-2.5 1.3-4.2 1.6-1.6.4-3.5.6-5.6.6h-8v7c0 3.6 1.7 5.4 5.3 5.4h1.5v.7h-19.4v-.7h1c3.6 0 5.3-1.8 5.3-5.4V78.5c0-3.5-1.7-5.3-5.3-5.3h-1v-.8Zm12.6.8v14.7h5.8c3 0 5-.7 6.5-1.9 1.4-1.2 2-3 2-5.5 0-3-.9-5-2.8-6.2-.7-.4-1.5-.7-2.4-.8-1-.2-2.1-.3-3.5-.3h-5.6Z" class="f"/><path d="M123.8 102.3v-1.7h1.5c3.4-.1 4.8-1.5 4.8-5v-17c0-3.5-1.4-4.8-4.8-5h-1.5V72h18l3.5.1c1.3 0 2.4.2 3.4.3 1 0 1.8.2 2.5.4 2.3.5 4.2 1.4 5.5 2.7a7 7 0 0 1 2 5.1c0 1.4-.3 2.6-1 3.7-.6 1.1-1.5 2-2.7 2.8-1.2.7-2.7 1.2-4.4 1.6-1.7.4-3.6.6-5.7.6h-7.5v6.5c0 3.4 1.4 4.8 4.8 4.9h2v1.7h-20.4Zm16.4-1c-1-.2-1.7-.6-2.4-1.2-1-1-1.4-2.6-1.4-4.4V72.9h-9.1a5 5 0 0 1 2.4 1.3c1 1 1.4 2.5 1.4 4.3v17.2c0 1.8-.4 3.3-1.4 4.4-.7.6-1.5 1-2.4 1.2h13Zm8.4-27.4c2.1 1.3 3.2 3.5 3.2 6.6 0 2.6-.8 4.6-2.3 6-1 .8-2.5 1.4-4.2 1.7 1.9 0 3.6-.2 5.1-.6 1.6-.3 3-.8 4-1.5a6.2 6.2 0 0 0 3.2-5.6h.1a6 6 0 0 0-1.7-4.4 9.6 9.6 0 0 0-5-2.5l-2.4-.3-2-.2c.8.2 1.4.5 2 .8Zm-11.2 13.5h5.3c2.9 0 4.9-.6 6.2-1.7 1.2-1.1 1.9-2.8 1.9-5.2 0-2.9-1-4.7-2.7-5.7-.6-.4-1.4-.7-2.2-.9l-3.4-.2h-5.1v13.7Zm-.5-13.7ZM161.1 72.4h31.3v11.4h-.6c-.6-2-1-3.5-1.5-4.5s-1-1.9-1.8-2.8a8 8 0 0 0-2.9-2.2c-1.7-.8-3.8-1.1-6.3-1.1h-5.8v14h1.6c2.3 0 4.1-1 5.5-3 .7-1 1.2-2.3 1.5-3.7.2-.6.4-1.5.5-2.7h.7v19.3h-.7a34.4 34.4 0 0 0-1.4-5.1l-1-1.8a6.6 6.6 0 0 0-5.5-2.3h-1.2V101h4.9c1.4 0 2.7-.1 3.8-.3a11.3 11.3 0 0 0 5.7-2.6c1.4-1.2 2.4-2.7 3.2-4.4.4-1 .9-2.4 1.3-4h.8v12h-32v-.7h.7c3.6 0 5.4-1.8 5.4-5.4V78.5c0-1.8-.4-3.1-1.3-4-.9-.9-2.2-1.3-4-1.3h-.9v-.8Z" class="f"/><path d="M160.7 102.3v-.4l-.1-1.3h1.3c3.4-.1 4.8-1.5 4.9-5v-17c0-1.8-.4-3-1.2-3.8-.7-.7-2-1.1-3.7-1.1h-1.3v-1.8H193v12.4h-1.5v-.4c-.6-2-1.1-3.4-1.6-4.4-.4-1-1-1.8-1.7-2.7-.8-1-1.7-1.7-2.7-2a16 16 0 0 0-6.1-1.1H174v13h1c2.2 0 3.9-1 5.2-2.8.6-1 1.1-2.1 1.5-3.5l.4-2.6v-.5h1.7v20.3h-1.6v-.4l-.7-2.9a11 11 0 0 0-.7-2.1l-1-1.7c-1.2-1.4-2.9-2.1-5-2.1h-.8v12.2h4.4c1.4 0 2.6-.1 3.7-.3 1.1-.2 2.1-.5 3-1 .9-.4 1.7-.9 2.5-1.5 1.3-1.2 2.3-2.5 3-4.2l1.4-4v-.4h1.7v13.1h-33Zm32-1V90.6l-1.2 3.4c-.8 1.8-1.9 3.3-3.3 4.5-.8.7-1.7 1.3-2.7 1.8l-3.2 1h-.6 11Zm-19.7 0V73h-9c1 .2 1.7.6 2.3 1.2 1 1 1.5 2.5 1.5 4.4v17.2c0 1.8-.5 3.3-1.5 4.4-.6.6-1.4 1-2.4 1.2h9.1Zm7.5-11.4 1.2 1.8.8 2.4.3 1.6v-16l-.2 1c-.3 1.4-.9 2.7-1.6 3.8a7 7 0 0 1-4.5 3c1.6.4 3 1.2 4 2.4Zm5.3-16.1c1.1.5 2.1 1.3 3 2.4.8 1 1.4 1.9 2 3l1.1 3.3V73h-9.5c1.3.2 2.4.5 3.4.9ZM216.5 87.4H210v8.3c0 1.8.4 3.1 1.3 4 1 .9 2.3 1.3 4 1.3h1v.8h-18.7v-.8h.8c1.8 0 3.2-.4 4-1.3 1-.9 1.4-2.2 1.4-4V78.5c0-1.8-.5-3.1-1.3-4-.9-.9-2.2-1.3-4-1.3h-.9v-.8h22.9c3 0 5.5.2 7.3.7 1.8.4 3.2 1.2 4.3 2.3a6.8 6.8 0 0 1 2 4.6c0 2.2-1.2 4-3.5 5.3-.9.5-2 .9-3.5 1.3a28.4 28.4 0 0 1-9.5.8v.1a37.8 37.8 0 0 0 5.8 3l3.2 1 .7 1 1 1.5.8 1.2a39.3 39.3 0 0 0 4 5c1 .5 2.2.8 4 .8h.7v.8h-11l-10.2-14.4Zm-6.6-.8h8.4c2 0 3.6-.2 4.9-.7a5.6 5.6 0 0 0 2.8-2.2 7 7 0 0 0 1-3.8c0-4.5-2.9-6.7-8.6-6.7H210v13.4Z" class="f"/><path d="M226.4 102.3 216.3 88h-6v7.8c0 1.7.5 2.9 1.3 3.6.7.8 2 1.2 3.6 1.2h1.4v1.8H197v-1.8h1.3c1.8 0 3-.4 3.7-1.1.8-.8 1.2-2 1.2-3.7V78.5c0-1.7-.4-3-1.2-3.7-.7-.7-2-1.1-3.7-1.1H197v-1.8h23.4c3 0 5.5.2 7.4.7 1.9.5 3.4 1.3 4.5 2.4.7.7 1.2 1.4 1.6 2.3.3.9.5 1.8.5 2.7 0 2.4-1.3 4.4-3.7 5.8-.9.4-2 .9-3.6 1.2-1.5.4-3 .7-4.5.8l-3.5.1 1.7 1 2.7 1.2 3 .8h.3v.3l.8 1 1 1.5.8 1.2 2.2 3c.7 1 1.3 1.5 1.7 1.8.8.5 2 .8 3.6.8h1.3v1.8h-11.8Zm.5-1h8c-.9-.1-1.6-.4-2.2-.8a40.8 40.8 0 0 1-4.1-5l-.8-1.2-1-1.5-.6-1-3-.8a36.8 36.8 0 0 1-5.5-2.8l9.2 13.1Zm-13.5 0a5 5 0 0 1-2.5-1.3c-1-1-1.5-2.5-1.5-4.3V72.9h-9c1 .2 1.7.6 2.3 1.2 1 1 1.5 2.5 1.5 4.4v17.2c0 1.9-.5 3.3-1.5 4.4a5 5 0 0 1-2.5 1.2h13.2Zm3.1-13.9-.4.3.4-.3Zm.5-.1V87v.2Zm8.1-12.8c1.6 1.2 2.4 3 2.3 5.4 0 1.6-.3 3-1 4a6 6 0 0 1-3 2.5l-1.8.5h1l4.3-.8c1.4-.4 2.5-.8 3.3-1.2 2.2-1.3 3.2-2.9 3.2-5 0-.7-.1-1.4-.5-2.2-.3-.8-.7-1.4-1.3-2-1-1-2.3-1.7-4-2.1-1.6-.4-3.7-.7-6.3-.7 1.5.3 2.8.8 3.8 1.6ZM218.3 86c2 0 3.5-.2 4.7-.6 1.2-.5 2-1.2 2.6-2 .5-1 .8-2.1.8-3.6 0-4.2-2.4-6.2-8-6.2h-8V86h7.9ZM254.7 72.4h18.6v.7h-.9c-1.7 0-3 .5-4 1.4-.9.9-1.3 2.2-1.3 4v12.8l14-11.1c.9-.8 1.5-1.4 1.8-2 .3-.4.5-1 .5-1.6a3 3 0 0 0-1.4-2.5c-.9-.6-2-1-3.6-1h-.7v-.7h17.2v.7h-.4c-2.4 0-5.8 1.8-10.2 5.4l-5.8 4.6 9 13.6c1 1.5 2 2.6 3 3.3a7 7 0 0 0 3.8 1h.6v.8h-18.2v-.8h1c2.7 0 4-.6 4-1.9 0-.2 0-.4-.2-.7l-.7-1.3-6.8-10.4-7 5.6v3.4c0 1.8.5 3.1 1.4 4 1 .9 2.3 1.3 4 1.3h1v.8h-18.7v-.8h.8c1.9 0 3.2-.4 4.1-1.3.9-.9 1.3-2.2 1.3-4V78.5c0-1.8-.4-3.1-1.3-4-.9-1-2.2-1.4-4-1.4h-1v-.7Z" class="f"/><path d="M276.2 102.3v-1.8h1.5c2.7 0 3.5-.6 3.5-1.4l-.1-.5-.7-1.2-6.5-10-6.3 5.1v3.2c0 1.7.4 2.9 1.2 3.6.8.8 2 1.2 3.6 1.2h1.4v1.8h-19.6v-1.8h1.3c1.8 0 3-.4 3.7-1.2.8-.7 1.2-2 1.2-3.6V78.5c0-1.7-.4-2.9-1.2-3.7-.7-.7-2-1.2-3.7-1.2h-1.3V72h19.6v1.7h-1.4c-1.7 0-2.8.5-3.6 1.2-.8.8-1.2 2-1.2 3.7v11.8l13.1-10.5c1-.8 1.5-1.4 1.8-1.8.2-.4.4-.8.4-1.4 0-1-.4-1.6-1.2-2.1-.7-.6-1.9-.9-3.3-.9h-1.2V72h18.2v1.7h-1c-2 0-5.4 1.7-9.8 5.2l-5.4 4.4 8.6 13.2c1 1.5 2 2.5 3 3.2 1 .6 2.2 1 3.5 1h1v1.7h-19Zm16.4-1c-.8-.1-1.6-.4-2.3-.9A11 11 0 0 1 287 97l-9-13.8-3.7 3 7 10.7.7 1.3.2 1c0 1.2-1 1.9-2.5 2.1h13Zm-22 0a5 5 0 0 1-2.5-1.3c-1-1-1.5-2.5-1.5-4.3V78.5c0-1.9.5-3.4 1.5-4.4.6-.6 1.3-1 2.2-1.2h-12.6c1 .2 1.7.6 2.3 1.2 1 1 1.4 2.5 1.4 4.4v17.2c0 1.8-.4 3.3-1.5 4.3a5 5 0 0 1-2.5 1.3h13.3Zm11.7-27.6a3.5 3.5 0 0 1 1 4.9l.7-.5a26 26 0 0 1 8.7-5.2h-12.1c.6.2 1.2.4 1.7.8ZM314 71.8h.7l11.8 25.8c.4.8.8 1.4 1.3 2 .5.5 1 .8 1.6 1 .6.3 1.3.4 2 .4h.9v.8h-17.1v-.8h2.2a5 5 0 0 0 2.4-.4c.6-.3.8-.8.8-1.4 0-.4 0-.9-.3-1.5a46 46 0 0 0-1.8-4l-.5-1h-12.4l-1 2.1c-.3.7-.5 1.5-.5 2.3 0 .6.2 1.2.6 1.9.3.6.8 1 1.4 1.4a4 4 0 0 0 2.3.6v.8h-12v-.8a8 8 0 0 0 2-.4c.6-.3 1.2-.6 1.8-1.1a17 17 0 0 0 4.4-6.5l9.3-21.2Zm-2.3 6.9-5.8 13.1h11.7l-6-13.1Z" class="f"/><path d="M314.7 102.3v-1.8h2.7c1 0 1.8-.1 2.2-.4.4-.2.5-.4.5-1 0-.2 0-.7-.3-1.2-.1-.5-.6-1.5-1.3-3l-.2-.5-.2-.5-.4-.8h-11.8L305 95c-.3.7-.5 1.4-.5 2 0 .6.2 1.2.5 1.7a3.4 3.4 0 0 0 2.1 1.6l1.2.2h.5v1.8h-13v-1.7h.5l1.9-.5c.4-.2 1-.5 1.6-1 1.4-1 2.8-3.2 4.2-6.3l9.4-21.2v-.3h1.5l12 26 1.2 2 1.4 1 1.9.2h1.3v1.8h-18.1Zm15.2-1c-.2 0-.5 0-.7-.2-.6-.2-1.2-.7-1.8-1.2-.5-.6-1-1.3-1.3-2.1l-11.7-25.5h-.2l-2.4 5.5 6.5 14.3.2.3.4 1c.2.2.3.4.3.7l.2.4 1.4 3 .3 1.7a2 2 0 0 1-1 1.8c-.3.1-.6.3-1 .3H330Zm-23 0c-.3 0-.7-.2-1-.5-.7-.3-1.3-.9-1.7-1.6-.4-.7-.6-1.4-.6-2.1l.2-1.5c-1 2-2.1 3.4-3.3 4.3l-1.8 1.1c-.4.1-.7.3-1.2.3h9.5Zm-.2-10h10.1L311.7 80l-5 11.4Zm4.6-12.4.4-.2-.4.2ZM335 72.4H347l20.4 21.2V80.9c0-1.5-.2-2.9-.8-4-.5-1.2-1.3-2-2.3-2.7-.5-.3-1-.6-1.6-.7l-2.2-.3v-.8h14.5v.8h-.2c-2.2 0-3.8.7-4.9 2-1.1 1.4-1.7 3.3-1.7 5.9v21h-.7l-25.4-26v17.4c0 1.7.2 3 .6 4.1a5 5 0 0 0 2 2.4c.8.4 1.7.7 2.7.9l2.6.2v.7h-15.4v-.7c1.6-.1 2.9-.4 3.9-.9 1-.4 1.7-1.1 2.1-2 .5-1 .8-2.1.8-3.5V78c0-1-.3-1.9-.7-2.6a4.4 4.4 0 0 0-2-1.6c-.9-.4-2-.6-3.2-.6h-.4v-.8Z" class="f"/><path d="M368.1 102.6h-.9l-24.7-25.4v16.3c0 1.7.2 3 .6 4 .4.8 1 1.5 1.8 2 .6.5 1.5.7 2.5.9l2.5.2h.5v1.7H334v-1.7h.5c1.5-.1 2.7-.4 3.6-.8a4 4 0 0 0 2-1.9c.4-.8.7-1.9.6-3.2V78c0-1-.2-1.7-.6-2.3a4 4 0 0 0-1.7-1.5c-.8-.3-1.8-.5-3-.5h-.9v-1.8h12.6l19.7 20.5V80.9c0-1.5-.2-2.8-.7-3.8-.5-1.1-1.2-2-2.1-2.5l-1.5-.6a13 13 0 0 0-2.2-.3h-.4v-1.8h15.5v1.8h-.7c-2 0-3.5.6-4.5 1.8-1 1.2-1.6 3-1.6 5.6v21.5h-.5Zm-.5-1v-7l-21-21.7h-9l1.2.4a4.7 4.7 0 0 1 2.8 3v-1.5l26 26.8Zm-20.3-.3a7.2 7.2 0 0 1-3-.9c-1-.6-1.7-1.5-2.1-2.6l-.5-2c-.1 1-.3 1.8-.7 2.6a5 5 0 0 1-2.4 2.3c-.7.3-1.4.5-2.2.6h10.9ZM362.8 73c.5.2 1.1.4 1.7.8 1 .6 2 1.6 2.5 2.9.4.8.6 1.7.7 2.7.2-1.8.8-3.4 1.7-4.5.8-1 2-1.7 3.3-2h-10.5l.6.1ZM404.7 73h.8v10h-.8c-.9-2.4-1.9-4.3-3-5.6a12 12 0 0 0-3-2.5 17 17 0 0 0-12-1.9c-.8.3-1.6.8-2.2 1.4-.5.5-.9 1-1.1 1.6-.3.5-.4 1-.4 1.6 0 1 .4 1.8 1.1 2.5.4.4.9.7 1.5 1a88.7 88.7 0 0 0 7.9 2.4l1 .3 1.7.4a46 46 0 0 1 6 1.9c1.4.5 2.4 1.3 3.3 2.2a7 7 0 0 1 2.3 5.1c0 1-.3 2-.7 3-.4 1.1-1 2-1.8 2.8-1 1-2.4 1.8-3.9 2.4a17.2 17.2 0 0 1-9 .4c-1.3-.3-2.7-.8-4.5-1.5l-2.5-1-1.7-.2a4 4 0 0 0-2.5.8c-.7.5-1.2 1.3-1.4 2.2h-.7V88.7h.7c.3 2.4 1.3 4.6 3 6.6 1 1.1 2.2 2.2 3.7 3.2a21 21 0 0 0 5 2.3c1.6.6 3.2.8 4.8.8a10 10 0 0 0 3.7-.6c1.1-.5 2-1.1 2.7-2 .6-.7 1-1.6 1-2.6 0-1.1-.5-2-1.4-3l-1.5-1-2.4-1-4.1-1.2-2.1-.5c-3.3-1-5.6-1.6-6.8-2.1-1.5-.5-2.6-1-3.4-1.6a8 8 0 0 1-2-2 6 6 0 0 1-1.4-3.7c0-1.6.5-3 1.5-4.3 1-1.3 2.3-2.4 4-3 1.8-.8 3.7-1.2 5.8-1.2 3.2 0 6.6 1 10 2.7 1.2.6 2 .9 2.5.9 1 0 1.8-.8 2.3-2.4Z" class="f"/><path d="M392.2 102.4c-1.2-.2-2.7-.8-4.4-1.5l-2.6-.9-1.5-.2a3.3 3.3 0 0 0-3.4 2.7l-.1.3h-1.6V88.2h1.6v.4c.4 2.4 1.3 4.5 2.9 6.4a20.6 20.6 0 0 0 8.5 5.4c1.6.5 3.2.7 4.7.7 1.3 0 2.5-.2 3.5-.6 1.1-.4 1.9-1 2.5-1.7.5-.7.8-1.5.8-2.4 0-1-.3-1.8-1.1-2.6a6 6 0 0 0-1.4-1l-2.4-.9-4-1.2-2.1-.6c-3.3-.8-5.6-1.5-7-2l-3.4-1.6a8.4 8.4 0 0 1-2.2-2.1 6.4 6.4 0 0 1-1.4-4c0-1.8.5-3.4 1.6-4.7a10 10 0 0 1 4.2-3.3c1.9-.7 3.8-1 6-1 3.3 0 6.7.8 10.2 2.6a7 7 0 0 0 2.3.9c.8 0 1.4-.5 1.8-2l.2-.4h1.6v11h-1.6l-.1-.3c-1-2.4-1.9-4.2-3-5.5-.7-1-1.7-1.7-3-2.4a17.2 17.2 0 0 0-8.5-2.3c-1 0-2 .2-2.9.5-.8.3-1.5.7-2.1 1.3a5 5 0 0 0-1 1.4l-.3 1.4c0 .8.3 1.5 1 2.2l1.3.9 2.5 1 4.3 1 1 .3 1 .3 1.7.4c2.8.7 4.8 1.4 6.2 2 1.3.5 2.5 1.3 3.4 2.2a7.5 7.5 0 0 1 2.4 5.5 8.7 8.7 0 0 1-2.6 6c-1.2 1.2-2.5 2-4.1 2.6a17.5 17.5 0 0 1-9.3.4Zm-12.7-1a4 4 0 0 1 1.4-1.7c.8-.6 1.7-1 2.8-.9.6 0 1.2 0 1.8.3.6.1 1.5.4 2.6.9l-1.8-1c-1.6-1-3-2.2-4-3.4a13 13 0 0 1-2.8-5.4v11.2Zm4.8-28a9 9 0 0 0-3.8 2.8 6.7 6.7 0 0 0-1.4 4.1c0 1.3.4 2.4 1.2 3.5.6.7 1.2 1.3 2 1.8.7.5 1.8 1 3.2 1.5a78 78 0 0 0 6.8 2l2.1.7c1.8.4 3.1.8 4.1 1.2 1 .3 1.9.6 2.5 1 .7.3 1.2.7 1.7 1.1 1 1 1.4 2 1.4 3.3 0 1-.4 2.1-1 3-.7.9-1.7 1.5-2.9 2 .4 0 .7-.2 1-.3a9.3 9.3 0 0 0 3.7-2.3c.8-.7 1.3-1.6 1.7-2.5a6.6 6.6 0 0 0 0-5.5h.1c-.3-.9-.8-1.6-1.5-2.2a9.7 9.7 0 0 0-3.1-2c-1.2-.6-3.3-1.2-6-2l-1.7-.4-1-.2-1-.3-4.4-1.1-2.6-1c-.7-.3-1.2-.7-1.6-1.1a3.9 3.9 0 0 1-1.3-3c0-.5.1-1.1.4-1.8a6 6 0 0 1 1.2-1.6c.5-.5 1.1-1 1.8-1.3l-1.6.6Zm17.8 3.7c1 1.3 2 3 2.9 5.2v-8.5c-.6 1.3-1.4 2.1-2.6 2-.7 0-1.5-.2-2.7-.8a12 12 0 0 1 2.4 2ZM427.6 71.8h.8l11.9 25.8c.3.8.8 1.4 1.2 2 .5.5 1 .8 1.6 1 .6.3 1.3.4 2.1.4h.8v.8h-17.1v-.8h2.2a5 5 0 0 0 2.5-.4c.5-.3.7-.8.7-1.4 0-.4 0-.9-.3-1.5a46 46 0 0 0-1.8-4l-.5-1h-12.4l-1 2.1c-.3.7-.4 1.5-.4 2.3 0 .6.1 1.2.5 1.9.3.6.8 1 1.4 1.4a4 4 0 0 0 2.3.6v.8h-12v-.8a8 8 0 0 0 2-.4c.6-.3 1.2-.6 1.8-1.1a17 17 0 0 0 4.4-6.5l9.3-21.2Zm-2.2 6.9-5.8 13.1h11.7l-5.9-13.1Z" class="f"/><path d="M428.4 102.3v-1.8h2.7c1 0 1.8-.1 2.2-.4.4-.2.5-.4.5-1 0-.2 0-.7-.2-1.2l-1.4-3-.2-.4-.2-.6-.4-.8h-11.8l-.8 1.9c-.3.7-.5 1.4-.5 2 0 .6.2 1.2.5 1.7.3.6.7 1 1.2 1.3l1 .4 1.1.1h.5v1.8h-13v-1.7h.5l1.9-.5c.5-.2 1-.5 1.6-1 1.4-1 2.8-3.2 4.2-6.3l9.4-21.2.1-.3h1.4l12 26 1.2 2 1.4 1 2 .2h1.2v1.8h-18.1Zm15.2-1a4.7 4.7 0 0 1-2.5-1.5c-.4-.5-.9-1.2-1.3-2l-11.7-25.5h-.1l-2.5 5.5 6.5 14.3.2.3.5 1 .3.7.1.4 1.4 3 .3 1.7a2 2 0 0 1-1 1.8c-.3.1-.6.3-1 .3h10.8Zm-23 0c-.3 0-.7-.2-1-.5-.7-.3-1.2-.9-1.6-1.6-.4-.7-.6-1.4-.6-2.1l.1-1.5c-1 2-2.1 3.4-3.3 4.3a6.3 6.3 0 0 1-3 1.4h9.5Zm-.2-10h10.1L425.4 80l-5 11.4ZM425 79l.3-.2-.3.2ZM476.2 73h.7v10h-.7c-.9-2.4-1.9-4.3-3-5.6a12 12 0 0 0-3-2.5 16.9 16.9 0 0 0-12-1.9c-.9.3-1.7.8-2.3 1.4-.4.5-.8 1-1 1.6-.3.5-.5 1-.5 1.6 0 1 .4 1.8 1.2 2.5.3.4.8.7 1.5 1a89 89 0 0 0 7.9 2.4l1 .3 1.7.4a46 46 0 0 1 6 1.9c1.3.5 2.4 1.3 3.3 2.2a7 7 0 0 1 2.2 5.1c0 1-.2 2-.6 3a9.8 9.8 0 0 1-5.7 5c-1.6.7-3.3 1-5.2 1-1.4 0-2.7-.2-3.9-.4-1.2-.3-2.7-.8-4.4-1.5l-2.6-1-1.6-.2a4 4 0 0 0-2.6.8c-.7.5-1.1 1.3-1.3 2.2h-.8V88.7h.8c.3 2.4 1.2 4.6 2.9 6.6a21 21 0 0 0 8.7 5.5c1.7.6 3.3.8 4.8.8a10 10 0 0 0 3.8-.6c1.1-.5 2-1.1 2.6-2 .7-.7 1-1.6 1-2.6 0-1.1-.5-2-1.3-3l-1.5-1-2.5-1-4-1.2-2.2-.5-6.8-2.1c-1.4-.5-2.5-1-3.3-1.6a8 8 0 0 1-2.1-2 6 6 0 0 1-1.3-3.7c0-1.6.5-3 1.4-4.3 1-1.3 2.4-2.4 4.1-3 1.7-.8 3.7-1.2 5.8-1.2 3.2 0 6.5 1 10 2.7 1.2.6 2 .9 2.4.9 1.1 0 2-.8 2.4-2.4Z" class="f"/><path d="M463.7 102.4c-1.3-.2-2.7-.8-4.5-1.5l-2.5-.9-1.5-.2a3.3 3.3 0 0 0-3.4 2.6l-.2.4H450V88.2h1.7v.5c.3 2.3 1.3 4.4 2.9 6.3a20.6 20.6 0 0 0 8.5 5.4c1.6.5 3.2.7 4.6.7 1.3 0 2.5-.2 3.6-.6 1-.4 1.9-1 2.4-1.7.6-.7.9-1.5.9-2.4 0-1-.4-1.8-1.2-2.6a6 6 0 0 0-1.4-1l-2.3-.9-4-1.2-2.2-.6c-3.3-.8-5.6-1.5-6.9-2-1.4-.6-2.5-1-3.4-1.6a8.4 8.4 0 0 1-2.2-2.1 6.4 6.4 0 0 1-1.4-4c0-1.8.5-3.4 1.5-4.7a10 10 0 0 1 4.3-3.3c1.8-.7 3.8-1 6-1 3.3 0 6.7.8 10.2 2.6 1.2.6 2 1 2.2.9.8 0 1.4-.5 2-2v-.4h1.6v11h-1.6v-.3c-1-2.4-2-4.2-3-5.5-.8-1-1.8-1.7-3-2.4a17 17 0 0 0-8.5-2.3c-1 0-2 .2-2.9.5-.9.3-1.6.7-2.1 1.3-.5.4-.8.9-1 1.4-.3.5-.4 1-.4 1.4a3 3 0 0 0 1 2.2l1.4.9 2.5 1 4.3 1 1 .3 1 .3 1.7.4a46 46 0 0 1 6.1 2c1.4.5 2.5 1.3 3.4 2.2a7.5 7.5 0 0 1 2.4 5.5 8.7 8.7 0 0 1-2.6 6c-1.1 1.2-2.5 2-4 2.6a17.8 17.8 0 0 1-9.3.4h-.1Zm-12.7-1a4 4 0 0 1 1.3-1.7c.8-.6 1.8-1 2.9-1 .5 0 1.1.2 1.8.4.6.1 1.5.4 2.6.9a17.7 17.7 0 0 1-5.9-4.4h.1a13 13 0 0 1-2.8-5.4v11.2Zm4.8-28a9 9 0 0 0-3.9 2.8 6.7 6.7 0 0 0-1.3 4.1c0 1.3.4 2.4 1.2 3.5.5.7 1.2 1.3 2 1.8.7.5 1.8 1 3.2 1.5 1.2.5 3.5 1.2 6.8 2l2 .7c1.8.4 3.2.8 4.2 1.2 1 .3 1.8.6 2.5 1A7 7 0 0 1 474 93c1 1 1.5 2 1.5 3.3 0 1-.4 2.1-1 3-.8.9-1.7 1.5-3 2 .4 0 .8-.2 1.1-.3a9.3 9.3 0 0 0 3.7-2.3c.7-.7 1.3-1.6 1.7-2.5.4-1 .6-2 .6-2.9 0-1-.2-1.8-.5-2.6-.4-.9-.9-1.6-1.5-2.2a9.8 9.8 0 0 0-3.2-2c-1.2-.6-3.2-1.2-6-2l-1.6-.4-1-.2-1-.3-4.4-1.1-2.6-1c-.7-.3-1.3-.7-1.7-1.1a4 4 0 0 1-1.3-3c0-.5.2-1.1.5-1.8a6.4 6.4 0 0 1 3-3l-1.6.7Zm17.8 3.7c1 1.3 2 3 2.8 5.2v-8.5c-.5 1.3-1.4 2.1-2.6 2-.6 0-1.4-.2-2.6-.8a12 12 0 0 1 2.4 2Z" class="f"/></g></svg>