<svg id="b" xmlns="http://www.w3.org/2000/svg" viewBox="0 0 606.57 405.662"><defs><clipPath id="d"><path class="j" d="M0 0h606.57v405.662H0z"/></clipPath><clipPath id="e"><path class="j" d="M0 0h606.57v405.662H0z"/></clipPath><style>.f{fill:#fff}.i{fill:#8dc63f}.j{fill:none}.k{fill:#1c75bc}</style></defs><g id="c"><g clip-path="url(#d)"><path class="f" d="M526.151 45.718a45.194 45.194 0 0 1 3.685-2.43c21.13-12.446 48.45-5.38 60.897 15.753 6.029 10.237 7.711 22.21 4.735 33.711-2.975 11.502-10.252 21.157-20.489 27.186a44.3 44.3 0 0 1-7.954 3.675c-5.731-30.003-20.293-56.906-40.874-77.895Zm72.923 8.41c-7.329-12.445-19.088-21.296-33.109-24.923-14.021-3.628-28.596-1.589-41.042 5.742a54.546 54.546 0 0 0-5.855 3.992C492.106 14.743 456.496 0 417.503 0c-83.94 0-152.231 68.29-152.231 152.231 0 24.661 5.901 47.968 16.355 68.593a11.484 11.484 0 0 0-9.013-1.264l-8.416 2.322-.835-.604a11.499 11.499 0 0 0-14.107.487 11.443 11.443 0 0 0-6.356-1.915h-9.149c-1.713 0-3.333.384-4.793 1.056a30.599 30.599 0 0 0-1.73-.543c-2.811-.774-5.639-1.167-8.405-1.167-5.349 0-10.294 1.275-14.697 3.786a11.45 11.45 0 0 0-7.873-3.132h-9.148c-2.276 0-4.397.661-6.183 1.801a11.45 11.45 0 0 0-6.183-1.8h-9.148c-.841 0-1.659.095-2.449.266a11.51 11.51 0 0 0-2.427-.267H131.46c-.774 0-1.53.08-2.261.225a11.552 11.552 0 0 0-2.262-.225h-9.148c-2.45 0-4.721.766-6.586 2.071a11.497 11.497 0 0 0-6.584-2.07h-8.495c-1.295 0-2.536.223-3.698.617a11.479 11.479 0 0 0-3.69-.618h-22.67c-2.362 0-4.556.714-6.383 1.935l-.7-.507a11.498 11.498 0 0 0-14.107.487 11.446 11.446 0 0 0-6.356-1.915h-9.148c-6.352 0-11.5 5.15-11.5 11.5v34.18c0 5.513 3.88 10.114 9.057 11.235-7.686 5.362-13.946 12.281-18.61 20.675C2.8 307.378 0 318.711 0 331.126c0 12.365 2.646 23.55 7.863 33.242 5.365 9.977 13.187 17.872 23.245 23.463 9.835 5.473 21.376 8.247 34.303 8.247 6.283 0 12.773-.803 19.29-2.388 5.367-1.306 10.202-3.043 14.442-5.164 6.544 4.805 15.049 7.246 25.369 7.246 4.504 0 10.402-1.043 16.461-5.04l.157.151a11.503 11.503 0 0 0 7.971 3.21h13.439c.569 0 1.124-.055 1.671-.135.088 6.275 5.196 11.337 11.492 11.337h14.446c.768 0 1.518-.075 2.243-.219 1.142.38 2.364.586 3.633.586h14.569c6.351 0 11.5-5.148 11.5-11.5v-2.527a11.436 11.436 0 0 0 7.09 2.458h27.795c6.002 0 10.93-4.599 11.454-10.465.524 5.866 5.452 10.465 11.454 10.465h27.796c2.443 0 4.704-.767 6.566-2.067a11.434 11.434 0 0 0 6.567 2.067h39.249c14.728 0 27.287-2.967 37.327-8.819a38.252 38.252 0 0 0 4.455-3.032 34.433 34.433 0 0 0 3.015 3.378c6.885 6.736 16.579 10.152 28.813 10.152 4.503 0 10.401-1.043 16.46-5.04l.157.151c2.143 2.06 5 3.21 7.971 3.21h13.44c1.81 0 3.515-.43 5.039-1.175a11.432 11.432 0 0 0 5.039 1.175h27.796a11.43 11.43 0 0 0 6.107-1.768 11.431 11.431 0 0 0 6.108 1.768h27.795c6.352 0 11.5-5.149 11.5-11.5V274.771a11.497 11.497 0 0 0-12.193-11.479l-27.796 1.68c-.573.034-1.129.123-1.675.238 30.875-27.88 50.312-68.2 50.312-112.979 0-6.414-.404-12.736-1.178-18.945a53.41 53.41 0 0 0 11.335-5.007c12.445-7.33 21.297-19.088 24.924-33.109 3.627-14.02 1.588-28.596-5.742-41.042Z"/></g><path class="k" d="m95.344 285.31-8.247 18.784c-5.398-1.832-9.545-3.054-12.447-3.665-2.902-.61-6.085-.916-9.545-.916-4.176 0-8.17 1.324-11.988 3.97-3.819 2.65-6.926 6.365-9.316 11.15-2.394 4.786-3.59 10.231-3.59 16.34 0 6.212 1.223 11.66 3.666 16.341 2.443 4.684 5.674 8.273 9.698 10.767 4.02 2.496 8.22 3.741 12.6 3.741 6.82 0 13.386-1.882 19.7-5.65l10.538 20.77c-3.97 2.343-8.782 4.2-14.432 5.575-5.65 1.374-11.175 2.061-16.57 2.061-10.996 0-20.568-2.265-28.712-6.796-8.147-4.529-14.382-10.817-18.708-18.86-4.329-8.043-6.491-17.309-6.491-27.796 0-10.485 2.291-19.854 6.873-28.1 4.581-8.248 10.919-14.686 19.013-19.32 8.095-4.632 17.232-6.949 27.414-6.949 5.292 0 10.714.764 16.264 2.291 5.549 1.527 10.309 3.615 14.28 6.262ZM119.931 358.311c0 1.526.482 2.774 1.451 3.741.966.97 2.161 1.451 3.589 1.451 3.154 0 6.414-1.375 9.774-4.124v-7.025h-8.553c-1.832 0-3.336.561-4.505 1.68-1.171 1.121-1.756 2.546-1.756 4.277Zm-13.44-25.353-7.33-20.006c4.276-1.932 9.366-3.589 15.272-4.964 5.903-1.374 11.707-2.06 17.41-2.06 9.874 0 17.46 2.748 22.756 8.246 5.292 5.498 7.941 13.034 7.941 22.602v45.817h-13.439l-7.942-7.636c-4.887 6.211-10.437 9.315-16.647 9.315-9.163 0-16.088-2.29-20.77-6.872-4.684-4.582-7.025-10.79-7.025-18.63 0-14.457 9.672-21.688 29.017-21.688h8.858c-.408-2.85-1.451-4.987-3.131-6.414-1.68-1.425-3.844-2.139-6.49-2.139-2.444 0-5.422.435-8.935 1.3-3.512.865-6.696 1.907-9.545 3.13ZM219.531 301.242l-6.611 15.06c-4.327-1.47-7.651-2.45-9.978-2.94-2.326-.49-4.878-.734-7.651-.734-2.449 0-4.429.571-5.937 1.714-1.512 1.143-2.266 2.53-2.266 4.162 0 1.225.632 2.307 1.898 3.244 1.264.94 3.367 2.185 6.305 3.734l4.407 2.45c5.142 2.937 9.427 5.651 12.855 8.14 3.427 2.491 6.345 5.43 8.753 8.815 2.406 3.387 3.611 7.204 3.611 11.446 0 4.49-1.245 8.551-3.733 12.182-2.491 3.632-6.02 6.51-10.59 8.631v17.016h-14.569v-13.467c-.899.081-2.326.123-4.284.123h-1.592v12.977h-14.446v-15.303c-4.407-1.142-8.162-2.61-11.263-4.407l7.345-16.772c2.204 1.306 5.244 2.51 9.121 3.611 3.876 1.102 7.284 1.653 10.222 1.653 3.264 0 5.877-.674 7.835-2.02 1.959-1.347 2.939-2.835 2.939-4.469 0-1.06-.715-2.1-2.143-3.12s-3.734-2.469-6.917-4.348l-3.795-2.203c-5.551-3.264-9.876-5.978-12.977-8.142-3.102-2.16-5.876-4.958-8.324-8.385-2.449-3.428-3.673-7.304-3.673-11.63.08-4.57 1.407-8.693 3.978-12.365 2.572-3.673 6.183-6.489 10.835-8.448v-14.813l14.446-1.225v12.978h1.714c1.632 0 2.856.042 3.673.122v-11.875l14.568-1.225v16.528c2.366.98 4.448 2.081 6.244 3.305ZM300.963 313.944c4.479 5.245 6.72 12.195 6.72 20.847v47.802h-27.796v-45.205c0-5.905-2.649-8.859-7.941-8.859-1.63 0-3.921.435-6.873 1.3-2.954.865-5.651 1.858-8.094 2.977v49.787h-27.795V276.451l27.795-1.68v37.723c8.552-4.276 16.494-6.415 23.825-6.415 8.958 0 15.677 2.623 20.159 7.865ZM360.371 339.983h-11.76v20.771h12.065c4.479 0 8.041-.84 10.691-2.52 2.646-1.68 3.97-4.097 3.97-7.255 0-3.459-1.324-6.159-3.97-8.093-2.65-1.934-6.315-2.903-10.996-2.903Zm-4.277-39.4h-7.483v17.562h6.262c4.582 0 8.423-.688 11.53-2.062 3.104-1.375 4.658-3.384 4.658-6.033 0-3.054-1.324-5.395-3.971-7.025-2.648-1.628-6.314-2.443-10.996-2.443Zm3.971 82.01h-39.249v-103.85h36.194c12.319 0 22.527 2.495 30.621 7.483 8.094 4.99 12.142 12.473 12.142 22.45 0 3.665-.866 6.974-2.597 9.927-1.732 2.954-4.073 5.906-7.025 8.858 4.276 2.954 7.66 6.517 10.156 10.69 2.494 4.176 3.741 8.655 3.741 13.44 0 10.995-4.149 18.913-12.446 23.748-8.3 4.837-18.81 7.254-31.537 7.254ZM429.093 358.311c0 1.526.483 2.774 1.451 3.741.966.97 2.163 1.451 3.589 1.451 3.155 0 6.414-1.375 9.775-4.124v-7.025h-8.553c-1.833 0-3.336.561-4.505 1.68-1.172 1.121-1.757 2.546-1.757 4.277Zm-13.439-25.353-7.33-20.006c4.275-1.932 9.365-3.589 15.271-4.964 5.904-1.374 11.707-2.06 17.41-2.06 9.875 0 17.461 2.748 22.756 8.246 5.293 5.498 7.942 13.034 7.942 22.602v45.817h-13.44l-7.941-7.636c-4.888 6.211-10.438 9.315-16.647 9.315-9.163 0-16.089-2.29-20.77-6.872-4.685-4.582-7.026-10.79-7.026-18.63 0-14.457 9.672-21.688 29.018-21.688h8.857c-.408-2.85-1.45-4.987-3.13-6.414-1.68-1.425-3.844-2.139-6.491-2.139-2.443 0-5.422.435-8.934 1.3-3.513.865-6.696 1.907-9.545 3.13ZM509.577 274.771v107.822h-27.796V276.451l27.796-1.68zM549.587 274.771v107.822h-27.795V276.451l27.795-1.68z"/><path class="i" d="M38.52 255.276v10.254h-9.148v-34.18h9.148v11.862l13.723-12.616 7.087 5.127-11.612 10.857 13.823 18.95H49.93l-8.746-12.767-2.664 2.513zM90.243 258.342l.855 7.188H66.065v-34.18h22.67l.855 7.187H75.214v6.234h10.505l.855 7.187h-11.36v6.384h15.029zM105.272 247.535v17.995h-9.148v-34.18h8.495l13.17 18.547V231.35h9.148v34.18h-8.545l-13.12-17.995zM131.46 231.35h29.255l.855 7.187h-10.908v26.993h-9.148v-26.993H131.46v-7.187zM165.591 231.35h9.148v20.66c0 2.077.57 3.693 1.709 4.85 1.139 1.156 2.631 1.734 4.474 1.734s3.334-.578 4.474-1.735c1.139-1.156 1.709-2.772 1.709-4.85V231.35h9.148v21.111c0 2.916-.637 5.403-1.91 7.465-1.274 2.06-3.066 3.628-5.378 4.7-2.313 1.071-4.994 1.608-8.043 1.608-3.05 0-5.73-.537-8.043-1.609-2.312-1.07-4.105-2.639-5.378-4.699-1.274-2.062-1.91-4.549-1.91-7.465v-21.11ZM228.876 233.511l-2.714 6.182c-1.777-.602-3.142-1.005-4.097-1.206a15.278 15.278 0 0 0-3.142-.3c-1.374 0-2.689.434-3.945 1.305-1.257.872-2.28 2.095-3.067 3.67-.787 1.575-1.181 3.367-1.181 5.378 0 2.045.402 3.838 1.207 5.38.804 1.541 1.867 2.722 3.191 3.543 1.324.821 2.706 1.231 4.147 1.231 2.245 0 4.406-.62 6.484-1.86l3.469 6.837c-1.307.77-2.891 1.382-4.75 1.834-1.86.453-3.678.68-5.454.68-3.619 0-6.77-.747-9.45-2.238-2.681-1.49-4.734-3.56-6.157-6.208-1.425-2.647-2.137-5.697-2.137-9.148s.754-6.535 2.262-9.249c1.508-2.715 3.594-4.834 6.258-6.359 2.664-1.524 5.672-2.287 9.023-2.287 1.742 0 3.526.251 5.353.754 1.826.502 3.393 1.19 4.7 2.061ZM242.9 255.276v10.254h-9.149v-34.18h9.149v11.862l13.723-12.616 7.087 5.127-11.612 10.857 13.823 18.95H254.31l-8.746-12.767-2.664 2.513zM286.933 252.159v13.371h-9.149v-13.471l-10.858-19 8.747-2.413 6.635 13.018 7.088-12.314h9.399l-11.862 20.809z"/><g clip-path="url(#e)"><path class="i" d="M276.772 152.231c0-77.723 63.008-140.73 140.732-140.73s140.731 63.007 140.731 140.73-63.008 140.731-140.731 140.731-140.732-63.007-140.732-140.73Z"/><path class="f" d="M575.233 120.368c-14.53 8.558-31.896 8.01-45.499.086-.708-2.946-3.884-16.158-4.702-20.564l.148-.027-.329-1.365c.004-.02.007-.046.016-.048l-.026.008c-.971-4.04-3.765-15.673-4.513-19.755l.157-.028s-.125-.51-.331-1.364c.005-.02.007-.046.018-.049l-.028.009c-1.185-4.917-5.093-21.102-4.668-21.196l-.119.037a44.804 44.804 0 0 1 14.225-13.255c21.404-12.606 48.975-5.474 61.581 15.93 12.607 21.405 5.474 48.975-15.93 61.581Zm-67.804-39.133.144-.031-.144.049v-.018Zm17.748-45.857C515.12 41.3 507.718 50.02 503.346 59.966c-58.915 19.869-111.52 51.998-154.768 93.051 45.061-33.409 96.21-57.1 150.21-69.835.01.346.028.693.044 1.039-62.973 22.45-118.229 59.76-161.49 107.521 47.923-42.616 105.19-72.443 166.502-87.327.103.22.215.437.321.656-69.676 24.486-129.589 68.191-173.295 124.67 51.123-54.082 116.751-90.816 187.811-106.402 16.9 13.63 41.173 16.161 60.958 4.51 25.494-15.016 34.019-47.973 19.004-73.467-15.015-25.494-47.972-34.02-73.466-19.004Z"/></g><path class="k" d="M513.652 104.438c-12.606-21.404-5.474-48.974 15.93-61.58 21.404-12.607 48.975-5.475 61.581 15.93 12.607 21.404 5.474 48.974-15.93 61.58-21.404 12.607-48.975 5.475-61.581-15.93Z"/><path class="f" d="M530.864 69.044c3.45 0 6.154.655 8.111 1.964 1.956 1.31 2.935 3.367 2.935 6.17 0 1.818-.548 3.52-1.641 5.107-1.094 1.587-2.796 3.35-5.107 5.291l-1.895 1.618h8.411l.555 6.609h-20.89v-4.899l8.736-7.58c.214-.214.569-.508 1.062-.878 1.109-.954 1.934-1.748 2.473-2.38.539-.63.808-1.27.808-1.917 0-.74-.339-1.295-1.016-1.664-.678-.37-1.617-.555-2.82-.555-1.232 0-2.542.247-3.927.74-1.387.493-2.605 1.032-3.652 1.617l-1.063-6.84c2.681-1.602 5.654-2.403 8.92-2.403ZM553.833 69.044c3.45 0 6.154.655 8.111 1.964 1.956 1.31 2.934 3.367 2.934 6.17 0 1.818-.547 3.52-1.64 5.107-1.094 1.587-2.796 3.35-5.108 5.291l-1.894 1.618h8.411l.555 6.609h-20.89v-4.899l8.735-7.58c.215-.214.57-.508 1.063-.878 1.109-.954 1.933-1.748 2.473-2.38.539-.63.808-1.27.808-1.917 0-.74-.34-1.295-1.016-1.664-.678-.37-1.618-.555-2.82-.555-1.232 0-2.542.247-3.928.74-1.386.493-2.604 1.032-3.651 1.617l-1.063-6.84c2.68-1.602 5.654-2.403 8.92-2.403ZM576.478 87.484h-7.071l.878-17.84h18.209l-.831 6.61h-10.307v3.004c.862-.493 1.817-.74 2.865-.74 2.003 0 3.728.462 5.177 1.387a9.021 9.021 0 0 1 3.304 3.697c.755 1.54 1.132 3.235 1.132 5.084 0 2.096-.478 3.96-1.432 5.592-.956 1.632-2.319 2.903-4.091 3.813-1.771.908-3.844 1.363-6.216 1.363-1.725 0-3.62-.323-5.684-.97-2.065-.647-3.852-1.495-5.361-2.542l4.205-5.962c1.48.802 2.743 1.386 3.79 1.756 1.047.37 2.11.555 3.189.555 1.171 0 2.134-.331 2.889-.994.754-.662 1.131-1.533 1.131-2.611 0-.986-.276-1.764-.831-2.334-.554-.57-1.263-.855-2.126-.855-.678 0-1.263.2-1.756.6-.494.401-.848.864-1.063 1.387Z"/></g></svg>