<svg xmlns="http://www.w3.org/2000/svg" viewBox="0 0 207.92 97.34"><defs><clipPath id="a"><path fill="none" d="M0 0h207.92v97.34H0z" data-name="Rectangle 53062"/></clipPath><clipPath id="b"><path fill="none" d="M0 23.6A23.6 23.6 0 1 0 23.6 0 23.6 23.6 0 0 0 0 23.6" data-name="Path 75844"/></clipPath><radialGradient id="c" cx=".38" cy=".35" r=".39" gradientTransform="translate(0)" gradientUnits="objectBoundingBox"><stop offset="0" stop-color="#fff"/><stop offset=".07" stop-color="#fffdf4"/><stop offset=".2" stop-color="#fff8d9"/><stop offset=".37" stop-color="#fff0ad"/><stop offset=".56" stop-color="#ffe570"/><stop offset=".79" stop-color="#ffd723"/><stop offset=".88" stop-color="#ffd100"/><stop offset="1" stop-color="#ffd100"/></radialGradient></defs><g data-name="Group 74519"><g clip-path="url(#a)" data-name="Group 74518" transform="matrix(0.9999999999999999, 0, 0, 0.9999999999999999, -1.7763568394002505e-15, -3.552713678800501e-15)"><path fill="#f8d000" d="M40.09 81.82a141.87 141.87 0 0 1-9.3-3.44 74.4 74.4 0 0 0 18.1 7.98 67.37 67.37 0 0 0 9.08 2.18c1.04.17 1.86.29 2.78.39l.27-1.96a126.7 126.7 0 0 1-20.94-5.15" data-name="Path 75801"/><path fill="#79858b" d="m144.04 45.85 7.5.01v-1.65h-7.5Z" data-name="Path 75802"/><path fill="#79858b" d="m153.19 44.21-.01 2.66 1.18-.01v3.24a18.7 18.7 0 0 0 3.36 5.7 13.98 13.98 0 0 0 10.67 4.93c.3 0 .6 0 .9-.02a14.54 14.54 0 0 0 9.94-5.23 14 14 0 0 1-8.28 3.57q-.46.03-.91.03a13.98 13.98 0 0 1-10.67-4.94c-3.3-3.77-5.04-9.19-5.04-15.67 0-6.67 1.76-12.28 4.99-16.04l-.28.23c-2.98 2.69-4.99 6.7-5.86 11.61Z" data-name="Path 75803"/><path fill="#79858b" d="M174.63 33.74a3.63 3.63 0 0 0-3.06-2.71 3.35 3.35 0 0 0-2.55.97 5.43 5.43 0 0 0-.87 1.08 3.23 3.23 0 0 1 1.77-.4 3.27 3.27 0 0 1 2.6 1.76l4.49.14 6.17-2.9-.15-.96-.06-.18-8.08 3.93Z" data-name="Path 75804"/><path fill="#79858b" d="M83.5 77.96c.09-.47.19-.94.32-1.4l2.6-9.07-1.2.07-2.45 8.52Z" data-name="Path 75805"/><path fill="#79858b" d="m168.35 36-.09 9.38a4.78 4.78 0 0 0 .48.56 3.63 3.63 0 0 0 .9.65h2.76a3.41 3.41 0 0 0 1.66-1.66l-4.16.01.09-8.89Z" data-name="Path 75806"/><path fill="#79858b" d="m129.48 60.88-1.3.07.03 1.56 24.5-1.44v-1.55l-22.85 1.34-.62-45.2-1.68-.17.5 36.14Z" data-name="Path 75807"/><path fill="#79858b" d="m143.95 30.54 8.42.49v-1.75l-8.43-.5Z" data-name="Path 75808"/><path fill="#79858b" d="M205.6 65.58v-.02a2.69 2.69 0 0 0-1.92-.77c-.12 0-.31.05-.36.2.07.03.15.04.2.05l1.12.24a5.57 5.57 0 0 1 .95.3" data-name="Path 75809"/><path fill="#79858b" d="M201.79 71.55s.55-.07.56-.42c-.07-.03-.17-.04-.24-.05l-1.02-.14a4.63 4.63 0 0 1-1.82-.62l.27.25a2.95 2.95 0 0 0 2.25.99" data-name="Path 75810"/><path fill="#79858b" d="M198.48 69.7a4.62 4.62 0 0 1-1.18-3.5 7.72 7.72 0 0 1 1.4-4.31 6.96 6.96 0 0 0-1.78 1.82l-.36 11.82Z" data-name="Path 75811"/><path fill="#79858b" d="m184.28 48.02-2.82 11.37 10.42-.61.27-1.57-9.04.53 8.8-35.58-1.2-.13-5.4 21.82a22.46 22.46 0 0 1-1.04 4.17" data-name="Path 75812"/><path fill="#79858b" d="m199 52.61-4.72.19-.28 1.6 3.35-.14.6 4.17 9.13-.54-.28-1.54-7.2.42Z" data-name="Path 75813"/><path fill="#79858b" d="M190.78 66.7v-.88l.12-4.23-1.61.09-.05 1.73Z" data-name="Path 75814"/><path fill="#79858b" d="m104.69 62.34-9.4.55-7.16-21.9c-.26-.95-.5-1.85-.7-2.74-.04.78-.07 1.56-.12 2.33l-.22 3.94 6.55 20.01 10.64-.62Z" data-name="Path 75815"/><path fill="#79858b" d="M171.4 81.36a10.92 10.92 0 0 1-1.47.1 8.5 8.5 0 0 1-5.7-2.04 9.31 9.31 0 0 1-2.9-7.31 11.75 11.75 0 0 1 2.53-7.34 11.11 11.11 0 0 0-3.5 4.98l-.03 8a8.13 8.13 0 0 0 2.25 3.33 8.5 8.5 0 0 0 5.7 2.03 10.91 10.91 0 0 0 1.46-.1 10.66 10.66 0 0 0 6.94-3.89 10.75 10.75 0 0 1-5.28 2.24" data-name="Path 75816"/><path fill="#79858b" d="m127.6 61-13.33.77-2.32-22.73-.22.9-1.08 4.16 1.96 19.33 15.22-.9Z" data-name="Path 75817"/><path fill="#79858b" d="m136.85 85.7-.25-21.04-1.67.1.15 12.99.93-.1.11 8.15-.94.13.02 1.42 14.84-1.99v-1.43Z" data-name="Path 75818"/><path fill="#79858b" d="m190.76 78.47-3.05-6.1v.34l-.1 4.4 1.51 3.02 5.73-.77.04-1.44Z" data-name="Path 75819"/><path fill="#79858b" d="M202.16 77.2a8.2 8.2 0 0 1-1.1.07 9.15 9.15 0 0 1-4.13-.99l-.39-.2-.04 1.62-1.33.18.1.05a9.15 9.15 0 0 0 4.14.99 8.2 8.2 0 0 0 1.1-.07 7 7 0 0 0 4.7-2.87 6.94 6.94 0 0 1-3.05 1.22" data-name="Path 75820"/><path fill="#79858b" d="m119.56 88.02-.54-22.37-1.7.1.6 23.92 16.55-2.22-.02-1.42Z" data-name="Path 75821"/><path fill="#79858b" d="m181.11 79.77.36-17.65-1.63.1-.06 3.2a10.57 10.57 0 0 1 1.06 4.97 11.87 11.87 0 0 1-1.26 5.17l-.12 5.86 6.45-.86.03-1.44Z" data-name="Path 75822"/><path fill="#79858b" d="m152.24 83.64-.01-19.87-1.66.1.01 12.18 1.1-.12.02 7.78-1.1.15v1.43l8.06-1.08v-1.43Z" data-name="Path 75823"/><path fill="#79858b" d="m84.47 63.52-18.36 1.07 6.24-54.83-1.86-.16-6.44 56.64 20.33-1.16Z" data-name="Path 75824"/><path fill="#79858b" d="m61.64 95.78 3.8-27.1-1.84-.02-4.03 28.68 13.6-1.67.09-1.45Z" data-name="Path 75825"/><path fill="#79858b" d="M99.94 35.64a41.41 41.41 0 0 1 .68-4.16l4.25-18.35-1.24-.12-4.53 19.52Z" data-name="Path 75826"/><path fill="#79858b" d="m106.25 89.8-.8-23.38-1.7.1.84 24.93 10.62-1.42-.03-1.42Z" data-name="Path 75827"/><path fill="#79858b" d="m93.32 91.53-1.64-10.85-1.3 4 1.29 8.5 11.15-1.49-.32-1.38Z" data-name="Path 75828"/><path fill="#79858b" d="m80.54 93.25-4.88-10.72-.08-.21-.3 4.64 3.61 7.94 7.38-1 .48-1.49Z" data-name="Path 75829"/><path fill="#e2211c" d="m73.17 8.72 19.34 2 7.42 27.55h.42a59.8 59.8 0 0 1 .95-6.64l4.52-19.53 15.7 1.63 7.15 46.5-13.78.8-2.65-26.07-.29-.01a45 45 0 0 1-.9 4.8l-5.67 21.85-9.6.56-6.99-21.38a38.83 38.83 0 0 1-1.36-6.55l-.6-.02c-.05 2.1-.1 4.25-.21 6.34l-1.25 22.22-18.47 1.08Z" data-name="Path 75831"/><path fill="#e2211c" d="m129.92 14.6 23.4 2.43v11.6l-10.08-.58.02 4.18 9.22.4V43.5h-9.15l.02 4.22 10.3-.16v11.2l-23.11 1.35Z" data-name="Path 75832"/><path fill="#e2211c" d="M185.17 35.59c-.18 5.96-.26 10.93-3.22 15.63a14.48 14.48 0 0 1-11.05 7.14 13.27 13.27 0 0 1-11-4.68c-3-3.41-4.88-8.58-4.88-15.21 0-13.63 7.35-21.15 16.34-20.2a15.62 15.62 0 0 1 12.65 10.98l-8.72 4.25a4.29 4.29 0 0 0-3.68-3.17c-3.6-.2-5.67 4.14-5.7 8.94-.03 4.36 1.89 8.4 5.14 8.34a4.16 4.16 0 0 0 3.97-3.37h-4.41l.08-9.18Z" data-name="Path 75833"/><path fill="#e2211c" d="m195.31 43.86 1.7-10.58.3.02c.1 1.48.21 3.01.4 4.49l.76 6.07Zm-1.62 8.26 5.92-.23.59 4.15 7.7-.46-6.2-33.53-8.8-.91-8.87 35.85 8.92-.53Z" data-name="Path 75834"/><path fill="#160b8b" d="m106.11 65.52 9.42-.53.62 22.78-9.23 1.24Z" data-name="Path 75835"/><path fill="#160b8b" d="m119.7 64.75 8.6-.48.27 14.9 6.76-.75.09 6.77-15.18 2.03Z" data-name="Path 75836"/><path fill="#160b8b" d="m137.29 63.76 7.6-.43.1 14.03 6-.65v6.39l-13.46 1.8Z" data-name="Path 75837"/><path fill="#160b8b" d="m152.92 62.87 6.77-.38-.08 19.45-6.67.9Z" data-name="Path 75838"/><path fill="#160b8b" d="m182.18 61.22 5.13-.29 4.33 9.22.15-.01a30.23 30.23 0 0 1-.3-4.3l.14-5.15 4.7-.26-.5 16.66-4.65.63-4.25-8.48-.15.02a23.62 23.62 0 0 1 .24 3.44l-.13 5.6-5.06.67Z" data-name="Path 75839"/><path fill="#160b8b" d="m198.83 70.86.23.22a3.67 3.67 0 0 0 2.81 1.17 1.25 1.25 0 0 0 1.18-1.1c.02-.71-.56-.71-.97-.78l-.9-.12c-1.78-.22-3.27-1.45-3.19-4.04a6.34 6.34 0 0 1 5.69-6.46 5.44 5.44 0 0 1 3.78 1.18l-1.32 4.18a3.48 3.48 0 0 0-2.52-1.02 1 1 0 0 0-1 .94c-.01.6.54.64.88.72l1 .21c1.83.4 3.1 1.58 3 4.25a6.36 6.36 0 0 1-5.43 6.3 8.47 8.47 0 0 1-4.82-.85Z" data-name="Path 75840"/><path fill="#160b8b" d="m66.28 67.77 12.32-.7 5 13.12.3-.02a24.3 24.3 0 0 1 .6-3.42l2.92-10.18 10.77-.6 5.42 23.48-9.7 1.3-2-13.17-.2.02a19.22 19.22 0 0 1-.59 2.51L87.4 91.62l-6.43.87-4.66-10.25a14.19 14.19 0 0 1-.91-3.14l-.39.03a75.27 75.27 0 0 1-.11 3.15l-.74 11.12-11.7 1.57Z" data-name="Path 75841"/><path fill="#160b8b" d="M171.55 61.52c-5.11.28-9.5 4.5-9.53 10.6-.04 6.15 4.22 9.23 9.28 8.55a10.17 10.17 0 0 0 8.84-10.3c.11-5.64-3.7-9.12-8.6-8.85" data-name="Path 75842"/><path fill="#fff" d="m170.82 69.13 1.47-5.02 1.63 4.77 4.18-.34-3.22 3.1 1.43 4.32-3.71-2.17-4.36 4.16 1.65-5.65-4.82-2.76Z" data-name="Path 75843"/></g></g><g data-name="Group 74521"><g clip-path="url(#b)" data-name="Group 74520" transform="matrix(0.9999999999999999, 0, 0, 0.9999999999999999, -1.7763568394002505e-15, -3.552713678800501e-15) matrix(1, 0, 0, 1, 30.434, 9.326)"><path fill="url(#c)" d="M0 0h47.19v47.19H0z" data-name="Rectangle 53063" transform="translate(0 0)"/></g></g><g data-name="Group 74523"><g clip-path="url(#a)" data-name="Group 74522" transform="matrix(0.9999999999999999, 0, 0, 0.9999999999999999, -1.7763568394002505e-15, -3.552713678800501e-15)"><path fill="#f8d000" d="M53.41 61.04a38.82 38.82 0 0 1-7.17-.35 22.16 22.16 0 0 0 14.37 3.03 19.43 19.43 0 0 0 6.64-1.84 18.68 18.68 0 0 0 2.2-1.23s.5-.36.5-.36l.2-.16a22.58 22.58 0 0 0 7.8-9.12s.34-.75.34-.75l.05-.13.17-.38a20.31 20.31 0 0 0 .76-2.21c-4.52 7.52-14.3 12.99-25.87 13.5" data-name="Path 75845"/><path fill="#160b8b" d="m72.46 32.54.4-4.36-2.37 3-3.27-2.34 1.27-4.19 3.55.75-2.76-3.33 1.17-3.75-2.95 1.6-3.2-3.87 1.11 5.07-3.4 1.82-2.69-4.45 2.8-3.54-4.79.25-3.23-5.43-.03 5.6-6.32.33 6.36 3.37-.07 5.73-6.53-.03-3.19-6.58-1.86 6.55-9.35-.1 8.17 4.26-2.1 7.38 6.69-5.08 6.03 3.2-2.75 6.19-8.24.34 6.26 4.08-3.4 7.5 6.74-5.32 5 3.26-1.33-6.24 4.9-3.83 3.12 4.03-2.9 5.78 4.81-3.29 2.75 3.63-.23-5.35 3.7-2.54-3.9-.83-.2-5.08 3.78-.95 1.77 4.17.43-4.7 3.04-.73Zm-6.32 4.13-2.33 4.54-4.73-.99-5.69.18-1.3-6.05-2.73-5.76 4.79-3.69 3.3-4.03 4.5 2.36 4.1.92 1.06 4.73 1.78 4.28Z" data-name="Path 75846"/><path fill="#e2211c" d="M11.35 18.86c-2.12 5.42-1.03 18.41 3.84 27.4a71.75 71.75 0 0 0 6.5 10.78A66.08 66.08 0 0 1 5.13 26.02a35.68 35.68 0 0 1 6.21-7.16" data-name="Path 75847"/><path fill="#f8d000" d="M44.4 7.69a20.97 20.97 0 0 1 3.18-.99C44.8 5.14 23.68-6.07 8.14 4.46-4.98 13.36 1.36 31.8 2.76 35.4c3.82 10.43 11.45 21.02 21.48 29.82A75.78 75.78 0 0 0 56 81.56l.11-.31c-6.47-3.1-12.35-8.26-18.17-13.37-17.09-15-26.33-34.97-22.46-48.14a79.7 79.7 0 0 1 12.05 7.4q.28-1.21.67-2.4a81.07 81.07 0 0 0-12.91-7.67l-1.15-.55-.44 1.2c-2.51 6.82-1.65 15.74 2.45 25.13s11.29 18.9 20.26 26.78a89.46 89.46 0 0 0 7.97 6.24 82.45 82.45 0 0 1-18.62-12.41C16.03 54.9 8.63 44.66 4.93 34.57 3.64 31.25-2.22 14.29 9.44 6.39a24.69 24.69 0 0 1 14.1-4c8.68 0 16.98 3.43 20.86 5.3" data-name="Path 75848"/><path fill="#f8d000" d="M40.77 9.43c-4.87-1.9-12.3-4.65-17.17-4.65a22.6 22.6 0 0 0-12.92 3.65c-.25.17-.5.36-.81.6l-.2.17-.04.02-.51.45-.09.08-.16.14a13.1 13.1 0 0 0-.88.93l-.01.02-.26.3a13.47 13.47 0 0 0-.41.55l-.05.06c-2.39 3.37-2.95 7.57-2.71 11.5a21.03 21.03 0 0 1 1.9-2.52c1.91-2.18 4.62-5.1 7.37-6.4l1.84.87.6.28c3.15 1.49 8.82 4.61 12.78 7.07A27.53 27.53 0 0 1 40.77 9.43" data-name="Path 75849"/><path fill="#e2211c" d="M25.25 31.1a27.35 27.35 0 0 1 8.8-20.12 23.03 23.03 0 0 0 0 40.25 27.35 27.35 0 0 1-8.8-20.12" data-name="Path 75850"/><path fill="#160b8b" d="m148.09 2.95 1.8.2-.01 3.82.7.07 1.83-3.63 2.04.22L152.13 8l2.27 4.92-2.03-.21-1.8-4.06-.7-.07-.02 3.86-1.8-.2Z" data-name="Path 75851"/><path fill="#160b8b" d="m155.22 3.7 5.19.56V6l-3.39-.36-.01 2.11 2.5.27V9.6l-2.5-.27-.02 2.11 3.39.36-.01 1.74-5.2-.55Z" data-name="Path 75852"/><path fill="#160b8b" d="m161.35 4.36 1.7.18 2.7 5.69.02-5.4 1.82.19-.04 9.3-1.7-.19-2.7-5.67-.03 5.38-1.8-.19Z" data-name="Path 75853"/><path fill="#160b8b" d="m170.17 7.05-1.93-.2.01-1.76 5.66.6v1.76l-1.93-.2-.04 7.53-1.8-.19Z" data-name="Path 75854"/><path fill="#160b8b" d="m174.3 11.95.02-6.22 1.81.19-.03 6.29a1.37 1.37 0 0 0 1.28 1.54c.67.07 1.3-.24 1.3-1.27l.03-6.29 1.8.2-.02 6.22a2.65 2.65 0 0 1-3.12 2.87 3.33 3.33 0 0 1-3.08-3.53" data-name="Path 75855"/><path fill="#160b8b" d="m181.34 12.7.02-3.2a2.69 2.69 0 0 1 3.12-2.87c2.05.21 3.1 1.67 3.1 3.82v.03l-1.82-.2v-.13c0-1.37-.66-1.72-1.29-1.78s-1.28.2-1.29 1.27l-.01 3.3a1.38 1.38 0 0 0 1.27 1.56c.84.08 1.3-.28 1.31-1.63v-.12l1.8.19v.05c0 2.34-1.03 3.47-3.12 3.25a3.4 3.4 0 0 1-3.09-3.55" data-name="Path 75856"/><path fill="#160b8b" d="m188.44 7.22 1.8.2v3.81l.7.08 1.83-3.63 2.03.21-2.32 4.37 2.28 4.93-2.03-.22-1.8-4.05-.7-.07-.02 3.86-1.81-.2Z" data-name="Path 75857"/><path fill="#160b8b" d="m197.35 14.11-2.58-6.22 1.89.2 1.62 4.1 1.67-3.75 1.87.2-2.66 5.66-.02 3.35-1.8-.2Z" data-name="Path 75858"/></g></g></svg>