<svg id="b" xmlns="http://www.w3.org/2000/svg" viewBox="0 0 239.31 239.31"><defs><clipPath id="d"><path class="av" d="M0 0h239.31v239.31H0z"/></clipPath><clipPath id="e"><path class="av" d="M0 0h239.31v239.31H0z"/></clipPath><clipPath id="f"><path class="av" d="M0 0h239.31v239.31H0z"/></clipPath><clipPath id="g"><path class="av" d="M0 0h239.31v239.31H0z"/></clipPath><clipPath id="h"><path class="av" d="M0 0h239.31v239.31H0z"/></clipPath><clipPath id="i"><path class="av" d="M0 0h239.31v239.31H0z"/></clipPath><clipPath id="j"><path class="av" d="M0 0h239.31v239.31H0z"/></clipPath><clipPath id="k"><path class="av" d="M0 0h239.31v239.31H0z"/></clipPath><clipPath id="l"><path class="av" d="M0 0h239.31v239.31H0z"/></clipPath><clipPath id="m"><path class="av" d="M0 0h239.31v239.31H0z"/></clipPath><clipPath id="n"><path class="av" d="M0 0h239.31v239.31H0z"/></clipPath><clipPath id="o"><path class="av" d="M0 0h239.31v239.31H0z"/></clipPath><clipPath id="p"><path class="av" d="M0 0h239.31v239.31H0z"/></clipPath><clipPath id="q"><path class="av" d="M0 0h239.31v239.31H0z"/></clipPath><clipPath id="r"><path class="av" d="M0 0h239.31v239.31H0z"/></clipPath><clipPath id="s"><path class="av" d="M0 0h239.31v239.31H0z"/></clipPath><clipPath id="t"><path class="av" d="M0 0h239.31v239.31H0z"/></clipPath><clipPath id="u"><path class="av" d="M0 0h239.31v239.31H0z"/></clipPath><clipPath id="v"><path class="av" d="M0 0h239.31v239.31H0z"/></clipPath><style>.av{fill:none}.bo{fill:#fff}.cb{fill:#6dc069}</style></defs><g id="c"><g clip-path="url(#d)"><path class="bo" d="M128.08 237.49c65.15-4.49 114.32-60.93 109.84-126.07C233.44 46.27 177-2.9 111.85 1.58 46.71 6.06-2.47 62.5 2.02 127.65c4.48 65.14 60.92 114.32 126.06 109.84Z"/><path d="M128.08 237.49c65.15-4.49 114.32-60.93 109.84-126.07C233.44 46.27 177-2.9 111.85 1.58 46.71 6.06-2.47 62.5 2.02 127.65c4.48 65.14 60.92 114.32 126.06 109.84Z" stroke="#fff" stroke-width="2" fill="none"/><path d="M127.8 238.03c65.38-4.5 114.73-61.14 110.23-126.52C233.53 46.14 176.89-3.2 111.51 1.3 46.14 5.79-3.2 62.43 1.28 127.8c4.5 65.38 61.15 114.73 126.52 110.23Z" stroke="#c7c8ca" stroke-width="2" fill="none"/><path class="bo" d="M127.88 237.4c65.14-4.47 114.32-60.92 109.84-126.06C233.23 46.2 176.79-2.98 111.65 1.5 46.5 5.98-2.67 62.43 1.8 127.57 6.29 192.7 62.74 241.89 127.88 237.4Z"/><path d="M127.88 237.4c65.14-4.47 114.32-60.92 109.84-126.06C233.23 46.2 176.79-2.98 111.65 1.5 46.5 5.98-2.67 62.43 1.8 127.57 6.29 192.7 62.74 241.89 127.88 237.4Z" stroke="#cfcfcf" stroke-width="2" fill="none"/><path class="bo" d="M127.96 236.79c64.9-4.47 113.91-60.71 109.44-125.63-4.46-64.9-60.7-113.91-125.62-109.45C46.87 6.18-2.13 62.43 2.33 127.34c4.47 64.9 60.71 113.91 125.63 109.45Z"/><path d="M127.96 236.79c64.9-4.47 113.91-60.71 109.44-125.63-4.46-64.9-60.7-113.91-125.62-109.45C46.87 6.18-2.13 62.43 2.33 127.34c4.47 64.9 60.71 113.91 125.63 109.45Z" stroke="#d0d0d0" stroke-width="2" fill="none"/><path class="bo" d="M128.03 236.16c64.68-4.45 113.51-60.5 109.06-125.17C232.64 46.3 176.6-2.52 111.92 1.93 47.24 6.38-1.6 62.43 2.86 127.1c4.45 64.69 60.5 113.51 125.17 109.06Z"/><path d="M128.03 236.16c64.68-4.45 113.51-60.5 109.06-125.17C232.64 46.3 176.6-2.52 111.92 1.93 47.24 6.38-1.6 62.43 2.86 127.1c4.45 64.69 60.5 113.51 125.17 109.06Z" stroke="#d1d1d0" stroke-width="2" fill="none"/><path class="bo" d="M128.1 235.54c64.46-4.43 113.11-60.28 108.68-124.73C232.34 46.36 176.5-2.29 112.05 2.14 47.6 6.58-1.05 62.42 3.38 126.87c4.44 64.45 60.28 113.1 124.73 108.67Z"/><path d="M128.1 235.54c64.46-4.43 113.11-60.28 108.68-124.73C232.34 46.36 176.5-2.29 112.05 2.14 47.6 6.58-1.05 62.42 3.38 126.87c4.44 64.45 60.28 113.1 124.73 108.67Z" stroke="#d2d2d2" stroke-width="2" fill="none"/><path class="bo" d="M128.19 234.92c64.21-4.42 112.7-60.06 108.28-124.28C232.05 46.42 176.4-2.06 112.19 2.36 47.97 6.78-.51 62.42 3.9 126.64c4.42 64.22 60.06 112.7 124.28 108.28Z"/><path d="M128.19 234.92c64.21-4.42 112.7-60.06 108.28-124.28C232.05 46.42 176.4-2.06 112.19 2.36 47.97 6.78-.51 62.42 3.9 126.64c4.42 64.22 60.06 112.7 124.28 108.28Z" stroke="#d3d3d2" stroke-width="2" fill="none"/><path class="bo" d="M128.26 234.3c64-4.4 112.3-59.85 107.9-123.84C231.75 46.48 176.3-1.83 112.31 2.57 48.33 6.97.02 62.42 4.43 126.41c4.4 63.98 59.85 112.29 123.83 107.89Z"/><path d="M128.26 234.3c64-4.4 112.3-59.85 107.9-123.84C231.75 46.48 176.3-1.83 112.31 2.57 48.33 6.97.02 62.42 4.43 126.41c4.4 63.98 59.85 112.29 123.83 107.89Z" stroke="#d4d4d3" stroke-width="2" fill="none"/><path class="bo" d="M128.34 233.67c63.76-4.38 111.89-59.62 107.5-123.38C231.45 46.53 176.21-1.6 112.45 2.79 48.7 7.18.57 62.42 4.95 126.18c4.4 63.75 59.64 111.88 123.4 107.5Z"/><path d="M128.34 233.67c63.76-4.38 111.89-59.62 107.5-123.38C231.45 46.53 176.21-1.6 112.45 2.79 48.7 7.18.57 62.42 4.95 126.18c4.4 63.75 59.64 111.88 123.4 107.5Z" stroke="#d5d5d4" stroke-width="2" fill="none"/><path class="bo" d="M128.42 233.05c63.52-4.37 111.48-59.41 107.1-122.94C231.17 46.6 176.13-1.37 112.6 3.01 49.07 7.37 1.11 62.4 5.49 125.93c4.36 63.53 59.4 111.48 122.93 107.11Z"/><path d="M128.42 233.05c63.52-4.37 111.48-59.41 107.1-122.94C231.17 46.6 176.13-1.37 112.6 3.01 49.07 7.37 1.11 62.4 5.49 125.93c4.36 63.53 59.4 111.48 122.93 107.11Z" stroke="#d5d5d5" stroke-width="2" fill="none"/><path class="bo" d="M128.5 232.43c63.29-4.36 111.07-59.2 106.71-122.5-4.35-63.28-59.2-111.07-122.48-106.71C49.43 7.57 1.65 62.42 6 125.71 10.36 189 65.2 236.78 128.5 232.43Z"/><path d="M128.5 232.43c63.29-4.36 111.07-59.2 106.71-122.5-4.35-63.28-59.2-111.07-122.48-106.71C49.43 7.57 1.65 62.42 6 125.71 10.36 189 65.2 236.78 128.5 232.43Z" stroke="#d7d7d6" stroke-width="2" fill="none"/><path class="bo" d="M128.57 231.8c63.06-4.33 110.67-58.97 106.33-122.04C230.56 46.7 175.92-.9 112.86 3.43 49.8 7.77 2.19 62.41 6.53 125.48c4.34 63.06 58.98 110.67 122.04 106.33Z"/><path d="M128.57 231.8c63.06-4.33 110.67-58.97 106.33-122.04C230.56 46.7 175.92-.9 112.86 3.43 49.8 7.77 2.19 62.41 6.53 125.48c4.34 63.06 58.98 110.67 122.04 106.33Z" stroke="#d7d7d7" stroke-width="2" fill="none"/><path class="bo" d="M128.65 231.18c62.83-4.32 110.26-58.76 105.94-121.6C230.27 46.77 175.83-.66 112.99 3.66 50.16 7.97 2.73 62.41 7.06 125.25c4.32 62.83 58.76 110.26 121.59 105.93Z"/><path d="M128.65 231.18c62.83-4.32 110.26-58.76 105.94-121.6C230.27 46.77 175.83-.66 112.99 3.66 50.16 7.97 2.73 62.41 7.06 125.25c4.32 62.83 58.76 110.26 121.59 105.93Z" stroke="#d8d8d8" stroke-width="2" fill="none"/><path class="bo" d="M128.73 230.56c62.6-4.3 109.85-58.55 105.55-121.15C229.97 46.81 175.73-.44 113.13 3.86 50.53 8.17 3.27 62.41 7.58 125.01c4.3 62.6 58.55 109.86 121.15 105.55Z"/><path d="M128.73 230.56c62.6-4.3 109.85-58.55 105.55-121.15C229.97 46.81 175.73-.44 113.13 3.86 50.53 8.17 3.27 62.41 7.58 125.01c4.3 62.6 58.55 109.86 121.15 105.55Z" stroke="#dad9d9" stroke-width="2" fill="none"/><path class="bo" d="M128.8 229.94c62.37-4.3 109.45-58.33 105.16-120.7C229.67 46.87 175.63-.21 113.26 4.08 50.9 8.37 3.81 62.4 8.1 124.78c4.3 62.37 58.34 109.45 120.7 105.16Z"/><path d="M128.8 229.94c62.37-4.3 109.45-58.33 105.16-120.7C229.67 46.87 175.63-.21 113.26 4.08 50.9 8.37 3.81 62.4 8.1 124.78c4.3 62.37 58.34 109.45 120.7 105.16Z" stroke-width="2" fill="none" stroke="#dbdada"/></g><path class="bo" d="M128.88 229.32c62.14-4.28 109.05-58.12 104.77-120.26C229.38 46.93 175.54.02 113.4 4.3 51.26 8.57 4.35 62.41 8.63 124.55c4.27 62.14 58.11 109.04 120.25 104.77Z"/><g clip-path="url(#e)"><path d="M128.88 229.32c62.14-4.28 109.05-58.12 104.77-120.26C229.38 46.93 175.54.02 113.4 4.3 51.26 8.57 4.35 62.41 8.63 124.55c4.27 62.14 58.11 109.04 120.25 104.77Z" stroke="#dcdbdb" stroke-width="2" fill="none"/></g><path class="bo" d="M128.96 228.7c61.9-4.26 108.64-57.9 104.38-119.81C229.08 46.99 175.44.25 113.54 4.5 51.62 8.77 4.88 62.4 9.14 124.3c4.26 61.91 57.9 108.64 119.8 104.39Z"/><g clip-path="url(#f)"><path d="M128.96 228.7c61.9-4.26 108.64-57.9 104.38-119.81C229.08 46.99 175.44.25 113.54 4.5 51.62 8.77 4.88 62.4 9.14 124.3c4.26 61.91 57.9 108.64 119.8 104.39Z" stroke="#dddcdc" stroke-width="2" fill="none"/></g><path class="bo" d="M129.03 228.07c61.68-4.24 108.24-57.68 104-119.36C228.78 47.04 175.34.48 113.67 4.72 51.99 8.97 5.43 62.41 9.67 124.08c4.25 61.68 57.69 108.24 119.36 104Z"/><g clip-path="url(#g)"><path d="M129.03 228.07c61.68-4.24 108.24-57.68 104-119.36C228.78 47.04 175.34.48 113.67 4.72 51.99 8.97 5.43 62.41 9.67 124.08c4.25 61.68 57.69 108.24 119.36 104Z" stroke="#dedddd" stroke-width="2" fill="none"/></g><path class="bo" d="M129.11 227.45c61.45-4.23 107.83-57.47 103.6-118.91C228.48 47.1 175.25.7 113.81 4.94 52.35 9.17 5.96 62.4 10.2 123.85c4.22 61.44 57.46 107.83 118.9 103.6Z"/><g clip-path="url(#h)"><path d="M129.11 227.45c61.45-4.23 107.83-57.47 103.6-118.91C228.48 47.1 175.25.7 113.81 4.94 52.35 9.17 5.96 62.4 10.2 123.85c4.22 61.44 57.46 107.83 118.9 103.6Z" stroke="#dfdede" stroke-width="2" fill="none"/></g><path class="bo" d="M129.19 226.83c61.21-4.21 107.42-57.25 103.21-118.47C228.19 47.16 175.15.94 113.94 5.16 52.73 9.35 6.52 62.4 10.73 123.61c4.2 61.2 57.25 107.42 118.46 103.2Z"/><g clip-path="url(#i)"><path d="M129.19 226.83c61.21-4.21 107.42-57.25 103.21-118.47C228.19 47.16 175.15.94 113.94 5.16 52.73 9.35 6.52 62.4 10.73 123.61c4.2 61.2 57.25 107.42 118.46 103.2Z" stroke="#e0dfdf" stroke-width="2" fill="none"/></g><path class="bo" d="M129.27 226.2c60.98-4.19 107.01-57.03 102.82-118.01C227.89 47.2 175.05 1.17 114.07 5.37 53.1 9.57 7.06 62.4 11.25 123.38c4.2 60.99 57.04 107.02 118.02 102.83Z"/><g clip-path="url(#j)"><path d="M129.27 226.2c60.98-4.19 107.01-57.03 102.82-118.01C227.89 47.2 175.05 1.17 114.07 5.37 53.1 9.57 7.06 62.4 11.25 123.38c4.2 60.99 57.04 107.02 118.02 102.83Z" stroke="#e1e0e0" stroke-width="2" fill="none"/></g><path class="bo" d="M129.34 225.58c60.75-4.18 106.61-56.81 102.43-117.56C227.6 47.26 174.96 1.4 114.21 5.58 53.46 9.76 7.6 62.4 11.78 123.15c4.18 60.75 56.81 106.61 117.56 102.43Z"/><g clip-path="url(#k)"><path d="M129.34 225.58c60.75-4.18 106.61-56.81 102.43-117.56C227.6 47.26 174.96 1.4 114.21 5.58 53.46 9.76 7.6 62.4 11.78 123.15c4.18 60.75 56.81 106.61 117.56 102.43Z" stroke="#e2e1e1" stroke-width="2" fill="none"/></g><path class="bo" d="M129.42 224.96c60.52-4.16 106.2-56.6 102.04-117.12C227.3 47.32 174.86 1.64 114.34 5.8 53.82 9.96 8.14 62.4 12.3 122.92c4.16 60.52 56.6 106.2 117.12 102.04Z"/><g clip-path="url(#l)"><path d="M129.42 224.96c60.52-4.16 106.2-56.6 102.04-117.12C227.3 47.32 174.86 1.64 114.34 5.8 53.82 9.96 8.14 62.4 12.3 122.92c4.16 60.52 56.6 106.2 117.12 102.04Z" stroke="#e3e3e2" stroke-width="2" fill="none"/></g><path class="bo" d="M129.5 224.34c60.28-4.15 105.8-56.39 101.65-116.67C227 47.37 174.76 1.87 114.48 6 54.18 10.16 8.68 62.4 12.83 122.7c4.14 60.29 56.38 105.8 116.67 101.65Z"/><g clip-path="url(#m)"><path d="M129.5 224.34c60.28-4.15 105.8-56.39 101.65-116.67C227 47.37 174.76 1.87 114.48 6 54.18 10.16 8.68 62.4 12.83 122.7c4.14 60.29 56.38 105.8 116.67 101.65Z" stroke="#e4e4e3" stroke-width="2" fill="none"/></g><path class="bo" d="M129.57 223.72c60.06-4.14 105.4-56.17 101.27-116.23C226.7 47.43 174.67 2.09 114.6 6.23 54.55 10.36 9.21 62.4 13.35 122.45c4.13 60.06 56.17 105.4 116.22 101.27Z"/><g clip-path="url(#n)"><path d="M129.57 223.72c60.06-4.14 105.4-56.17 101.27-116.23C226.7 47.43 174.67 2.09 114.6 6.23 54.55 10.36 9.21 62.4 13.35 122.45c4.13 60.06 56.17 105.4 116.22 101.27Z" stroke="#e6e5e5" stroke-width="2" fill="none"/></g><path class="bo" d="M129.65 223.1c59.83-4.12 104.99-55.96 100.87-115.79C226.41 47.5 174.57 2.33 114.75 6.44 54.92 10.56 9.75 62.4 13.87 122.22 18 182.05 69.83 227.21 129.65 223.1Z"/><g clip-path="url(#o)"><path d="M129.65 223.1c59.83-4.12 104.99-55.96 100.87-115.79C226.41 47.5 174.57 2.33 114.75 6.44 54.92 10.56 9.75 62.4 13.87 122.22 18 182.05 69.83 227.21 129.65 223.1Z" stroke="#e7e6e5" stroke-width="2" fill="none"/></g><path class="bo" d="M129.73 222.47c59.6-4.1 104.58-55.74 100.48-115.33-4.1-59.6-55.73-104.58-115.33-100.48C55.28 10.76 10.3 62.4 14.4 121.99c4.1 59.6 55.74 104.58 115.33 100.48Z"/><g clip-path="url(#p)"><path d="M129.73 222.47c59.6-4.1 104.58-55.74 100.48-115.33-4.1-59.6-55.73-104.58-115.33-100.48C55.28 10.76 10.3 62.4 14.4 121.99c4.1 59.6 55.74 104.58 115.33 100.48Z" stroke="#e8e7e7" stroke-width="2" fill="none"/></g><path class="bo" d="M129.8 221.85c59.37-4.09 104.18-55.52 100.1-114.88C225.8 47.6 174.38 2.79 115.02 6.87 55.65 10.96 10.84 62.4 14.92 121.76c4.09 59.36 55.52 104.17 114.89 100.09Z"/><g clip-path="url(#q)"><path d="M129.8 221.85c59.37-4.09 104.18-55.52 100.1-114.88C225.8 47.6 174.38 2.79 115.02 6.87 55.65 10.96 10.84 62.4 14.92 121.76c4.09 59.36 55.52 104.17 114.89 100.09Z" stroke="#e9e8e8" stroke-width="2" fill="none"/></g><path class="bo" d="M129.88 221.23c59.13-4.07 103.77-55.3 99.7-114.44-4.06-59.13-55.3-103.77-114.43-99.7-59.13 4.07-103.77 55.3-99.7 114.43 4.07 59.14 55.3 103.78 114.43 99.7Z"/><g clip-path="url(#r)"><path d="M129.88 221.23c59.13-4.07 103.77-55.3 99.7-114.44-4.06-59.13-55.3-103.77-114.43-99.7-59.13 4.07-103.77 55.3-99.7 114.43 4.07 59.14 55.3 103.78 114.43 99.7Z" stroke="#eae9e8" stroke-width="2" fill="none"/></g><path class="bo" d="M129.96 220.6c58.9-4.05 103.37-55.08 99.31-113.98C225.22 47.72 174.2 3.25 115.28 7.3c-58.9 4.06-103.36 55.1-99.3 114 4.05 58.9 55.08 103.36 113.98 99.3Z"/><g clip-path="url(#s)"><path d="M129.96 220.6c58.9-4.05 103.37-55.08 99.31-113.98C225.22 47.72 174.2 3.25 115.28 7.3c-58.9 4.06-103.36 55.1-99.3 114 4.05 58.9 55.08 103.36 113.98 99.3Z" stroke="#ebeaea" stroke-width="2" fill="none"/></g><path class="bo" d="M130.04 219.98c58.67-4.04 102.96-54.87 98.92-113.54-4.04-58.67-54.87-102.96-113.54-98.92C56.75 11.55 12.46 62.39 16.5 121.06c4.03 58.67 54.87 102.96 113.54 98.92Z"/><g clip-path="url(#t)"><path d="M130.04 219.98c58.67-4.04 102.96-54.87 98.92-113.54-4.04-58.67-54.87-102.96-113.54-98.92C56.75 11.55 12.46 62.39 16.5 121.06c4.03 58.67 54.87 102.96 113.54 98.92Z" stroke="#ecebeb" stroke-width="2" fill="none"/></g><path class="bo" d="M130.11 219.36c58.44-4.02 102.56-54.66 98.54-113.1-4.02-58.43-54.66-102.55-113.1-98.53C57.12 11.75 13 62.4 17.02 120.83c4.02 58.43 54.66 102.55 113.1 98.53Z"/><g clip-path="url(#u)"><path d="M130.11 219.36c58.44-4.02 102.56-54.66 98.54-113.1-4.02-58.43-54.66-102.55-113.1-98.53C57.12 11.75 13 62.4 17.02 120.83c4.02 58.43 54.66 102.55 113.1 98.53Z" stroke="#edecec" stroke-width="2" fill="none"/></g><path class="bo" d="M130.2 218.74c58.2-4 102.14-54.44 98.13-112.65-4-58.2-54.44-102.15-112.64-98.14-58.2 4-102.15 54.44-98.14 112.64 4 58.21 54.44 102.15 112.64 98.15Z"/><g clip-path="url(#v)"><path d="M130.2 218.74c58.2-4 102.14-54.44 98.13-112.65-4-58.2-54.44-102.15-112.64-98.14-58.2 4-102.15 54.44-98.14 112.64 4 58.21 54.44 102.15 112.64 98.15Z" stroke="#eeeded" stroke-width="2" fill="none"/></g><path class="bo" d="M130.27 218.11c57.97-3.98 101.74-54.22 97.75-112.2-3.99-57.97-54.22-101.74-112.2-97.75-57.97 4-101.74 54.23-97.75 112.2 3.99 57.98 54.22 101.74 112.2 97.75Z"/><path d="M130.27 218.11c57.97-3.98 101.74-54.22 97.75-112.2-3.99-57.97-54.22-101.74-112.2-97.75-57.97 4-101.74 54.23-97.75 112.2 3.99 57.98 54.22 101.74 112.2 97.75Z" stroke="#efeeee" stroke-width="2" fill="none"/><path class="bo" d="M130.35 217.5c57.74-3.98 101.33-54.01 97.36-111.76C223.74 48 173.7 4.41 115.96 8.38c-57.75 3.97-101.34 54-97.36 111.75 3.97 57.74 54 101.34 111.75 97.36Z"/><path d="M130.35 217.5c57.74-3.98 101.33-54.01 97.36-111.76C223.74 48 173.7 4.41 115.96 8.38c-57.75 3.97-101.34 54-97.36 111.75 3.97 57.74 54 101.34 111.75 97.36Z" stroke="#f1f0ef" stroke-width="2" fill="none"/><path class="bo" d="M130.42 216.87c57.52-3.96 100.93-53.8 96.98-111.3-3.96-57.52-53.8-100.93-111.3-96.98-57.52 3.96-100.94 53.8-96.98 111.3 3.96 57.52 53.79 100.94 111.3 96.98Z"/><path d="M130.42 216.87c57.52-3.96 100.93-53.8 96.98-111.3-3.96-57.52-53.8-100.93-111.3-96.98-57.52 3.96-100.94 53.8-96.98 111.3 3.96 57.52 53.79 100.94 111.3 96.98Z" stroke="#f2f1f0" stroke-width="2" fill="none"/><path class="bo" d="M130.5 216.25c57.28-3.94 100.52-53.58 96.58-110.86-3.94-57.28-53.57-100.52-110.85-96.58C58.95 12.75 15.7 62.38 19.64 119.66c3.95 57.29 53.58 100.53 110.86 96.59Z"/><path d="M130.5 216.25c57.28-3.94 100.52-53.58 96.58-110.86-3.94-57.28-53.57-100.52-110.85-96.58C58.95 12.75 15.7 62.38 19.64 119.66c3.95 57.29 53.58 100.53 110.86 96.59Z" stroke="#f3f2f1" stroke-width="2" fill="none"/><path class="bo" d="M130.58 215.63c57.05-3.93 100.12-53.36 96.2-110.41C222.84 48.17 173.4 5.1 116.35 9.02c-57.05 3.93-100.12 53.36-96.2 110.41 3.93 57.05 53.37 100.12 110.42 96.2Z"/><path d="M130.58 215.63c57.05-3.93 100.12-53.36 96.2-110.41C222.84 48.17 173.4 5.1 116.35 9.02c-57.05 3.93-100.12 53.36-96.2 110.41 3.93 57.05 53.37 100.12 110.42 96.2Z" stroke="#f4f3f3" stroke-width="2" fill="none"/><path class="bo" d="M130.65 215c56.82-3.9 99.72-53.14 95.8-109.96-3.9-56.82-53.13-99.71-109.95-95.8-56.82 3.9-99.72 53.14-95.8 109.96 3.9 56.82 53.14 99.71 109.95 95.8Z"/><path d="M130.65 215c56.82-3.9 99.72-53.14 95.8-109.96-3.9-56.82-53.13-99.71-109.95-95.8-56.82 3.9-99.72 53.14-95.8 109.96 3.9 56.82 53.14 99.71 109.95 95.8Z" stroke="#f5f4f4" stroke-width="2" fill="none"/><path class="bo" d="M130.73 214.38c56.59-3.9 99.3-52.92 95.41-109.51-3.89-56.6-52.92-99.31-109.5-95.42-56.6 3.9-99.31 52.93-95.42 109.52 3.9 56.59 52.92 99.3 109.51 95.41Z"/><path d="M130.73 214.38c56.59-3.9 99.3-52.92 95.41-109.51-3.89-56.6-52.92-99.31-109.5-95.42-56.6 3.9-99.31 52.93-95.42 109.52 3.9 56.59 52.92 99.3 109.51 95.41Z" stroke="#f7f6f6" stroke-width="2" fill="none"/><path class="bo" d="M130.81 213.76c56.36-3.88 98.9-52.71 95.02-109.07-3.88-56.36-52.7-98.9-109.06-95.02-56.36 3.88-98.9 52.7-95.03 109.06 3.88 56.36 52.71 98.9 109.07 95.03Z"/><path d="M130.81 213.76c56.36-3.88 98.9-52.71 95.02-109.07-3.88-56.36-52.7-98.9-109.06-95.02-56.36 3.88-98.9 52.7-95.03 109.06 3.88 56.36 52.71 98.9 109.07 95.03Z" stroke="#f8f7f7" stroke-width="2" fill="none"/><path class="bo" d="M130.89 213.14c56.12-3.87 98.5-52.5 94.63-108.62-3.86-56.13-52.5-98.5-108.62-94.64-56.12 3.86-98.5 52.5-94.63 108.62 3.86 56.13 52.49 98.5 108.62 94.64Z"/><path d="M130.89 213.14c56.12-3.87 98.5-52.5 94.63-108.62-3.86-56.13-52.5-98.5-108.62-94.64-56.12 3.86-98.5 52.5-94.63 108.62 3.86 56.13 52.49 98.5 108.62 94.64Z" stroke="#faf9f9" stroke-width="2" fill="none"/><path d="M130.96 212.51c55.9-3.84 98.1-52.27 94.25-108.17-3.85-55.9-52.28-98.09-108.17-94.24-55.9 3.84-98.1 52.27-94.25 108.17 3.85 55.9 52.28 98.09 108.17 94.24Z" stroke="#fefbfc" stroke-width="2" fill="none"/><path class="cb" d="M148.98 145.14c-4.02 4.55-8.28 8.88-12.15 13.57 3.48 10.76 3.69 11.4 5.23 17.25l-12.29-2.12c-2.06-7.9-2.83-10.85-4.2-15.32-.94 4.23-2.2 9.88-3.16 14.1l-10.96-1.86c2.62-14.7 5.34-29.38 7.94-44.08l12.17 2.25c-2.37 12.43-2.67 14.03-5.08 25.37 3.11-3.64 7.24-8.5 10.32-12.16l12.69 2.38h.04l-.55.62M105.9 151.33c-2.95-4.4-8.4-2.2-8.9 1.45-.5 3.6 3.84 7.45 7.9 4.41 1.55 3.2 3.62 7.47 5.15 10.68-14.73 7.07-28.97-7.61-24.63-20.56 3.7-11.09 19.12-15.66 29.22-4.98l-8.74 9M81.43 165.64c-3.37-.61-7.86-1.42-11.22-2.06.25-10.95.38-16.98 2.27-32.96l12.25 2.21c-1.68 12.87-2.52 19.33-3.3 32.81M88.55 122.12c-.4 7.23-9.15 10.23-13.75 4.72-4.62-5.53-.63-13.99 6.37-13.5 4.33.3 7.64 4.24 7.38 8.78M59.38 145.35c-.16-3.04-2.72-5.55-5.28-5.18-3.56.53-4.16 5.86-.95 8.52 2.88 2.39 6.44.48 6.23-3.34m9.83.38c.27 13.32-11.32 19.81-20.32 11.4l-.8-.8c.32 3.43.71 8 1.16 11.43-2.48-.6-5.8-1.36-8.27-1.98-1.73-12.23-2.98-21.08-1.35-42.03 2.74.61 6.39 1.44 9.13 2.04l-.29 3.22c10-5.76 20.5 4.87 20.74 16.72"/><path d="M173.88 98.77c20.18 10.15 32.55 37.39 27.65 65.18-6.75 38.3-46.96 65.18-89.4 57.7-21.2-3.74-38.7-16.8-50.4-31.8l27.43-13.42c7.46 8.48 15.6 16.45 28.11 18.66 24.83 4.38 49.6-11.86 53.92-36.39 4.33-24.53-11.06-47.66-38.25-52.46l28-33.08-67.56-11.92L98 34.97l111.58 19.67-35.71 44.13Z" fill="#df068c"/></g></svg>