<svg id="b" xmlns="http://www.w3.org/2000/svg" viewBox="0 0 239.31 239.31"><defs><clipPath id="d"><path fill="none" d="M0 0h239.31v239.31H0z"/></clipPath><style>.ao{fill:#df068c}</style></defs><g id="c"><ellipse cx="119.66" cy="112.93" rx="111.22" ry="107.37" fill="#fff"/><g clip-path="url(#d)" fill="none"><path d="M127.8 238.03c65.38-4.5 114.73-61.14 110.23-126.52C233.53 46.14 176.89-3.2 111.51 1.3 46.14 5.79-3.2 62.43 1.28 127.8c4.5 65.38 61.15 114.73 126.52 110.23Z" stroke="#d0d0cf" stroke-width="2"/><path d="M127.9 237.2c65.07-4.47 114.2-60.85 109.72-125.92C233.14 46.21 176.76-2.9 111.69 1.57 46.62 6.05-2.5 62.43 1.98 127.49c4.48 65.07 60.85 114.2 125.92 109.72Z" stroke="#d1d1d1" stroke-width="2"/><path d="M128 236.38c64.77-4.45 113.66-60.57 109.2-125.33C232.75 46.3 176.63-2.6 111.87 1.85 47.1 6.31-1.78 62.42 2.67 127.2c4.46 64.76 60.57 113.65 125.34 109.2Z" stroke="#d2d2d1" stroke-width="1.99"/><path d="M128.1 235.56c64.46-4.43 113.12-60.28 108.69-124.74C232.35 46.36 176.5-2.3 112.05 2.14 47.59 6.57-1.07 62.42 3.37 126.88 7.8 191.34 63.65 240 128.1 235.56Z" stroke="#d3d3d2" stroke-width="1.99"/><path d="M128.2 234.74c64.16-4.42 112.59-60 108.18-124.15C231.96 46.44 176.38-2 112.23 2.42 48.07 6.84-.35 62.42 4.06 126.57c4.41 64.15 60 112.58 124.15 108.17Z" stroke="#d4d4d4" stroke-width="1.99"/><path d="M128.31 233.91c63.85-4.39 112.04-59.7 107.65-123.55C231.56 46.5 176.25-1.7 112.4 2.7 48.56 7.1.36 62.4 4.75 126.26c4.4 63.85 59.72 112.05 123.56 107.65Z" stroke="#d5d5d5" stroke-width="1.98"/><path d="M128.41 233.1c63.54-4.38 111.51-59.44 107.14-122.97C231.18 46.59 176.12-1.38 112.58 2.99 49.04 7.36 1.08 62.42 5.45 125.96c4.37 63.54 59.42 111.5 122.96 107.13Z" stroke="#d6d6d6" stroke-width="1.98"/><path d="M128.52 232.27c63.23-4.35 110.96-59.14 106.61-122.38C230.78 46.66 176-1.08 112.76 3.27 49.53 7.63 1.79 62.42 6.14 125.65c4.35 63.23 59.14 110.97 122.38 106.62Z" stroke="#d7d7d7" stroke-width="1.98"/><path d="M128.62 231.45c62.93-4.33 110.43-58.86 106.1-121.79C230.4 46.73 175.87-.77 112.94 3.56 50 7.89 2.5 62.4 6.84 125.34c4.32 62.93 58.85 110.44 121.78 106.1Z" stroke="#d8d8d8" stroke-width="1.97"/><path d="M128.72 230.62c62.62-4.3 109.9-58.57 105.59-121.19C230 46.81 175.74-.47 113.1 3.84 50.5 8.15 3.23 62.41 7.54 125.04c4.3 62.62 58.57 109.89 121.19 105.58Z" stroke="#dadad9" stroke-width="1.97"/><path d="M128.82 229.8c62.32-4.29 109.36-58.28 105.07-120.6C229.6 46.88 175.61-.16 113.3 4.13 50.98 8.42 3.94 62.4 8.22 124.73c4.29 62.31 58.28 109.36 120.6 105.07Z" stroke="#dbdbda" stroke-width="1.97"/><path d="M128.92 228.98c62.01-4.27 108.83-58 104.56-120.01-4.27-62.01-58-108.82-120-104.56-62.02 4.27-108.83 58-104.56 120 4.26 62.02 58 108.83 120 104.57Z" stroke="#dcdcdb" stroke-width="1.96"/><path d="M129.02 228.15c61.71-4.24 108.3-57.7 104.05-119.41C228.82 47.04 175.35.45 113.65 4.7 51.95 8.94 5.36 62.4 9.61 124.1c4.25 61.7 57.71 108.29 119.41 104.04Z" stroke="#ddd" stroke-width="1.96"/><path d="M129.13 227.33c61.4-4.23 107.75-57.42 103.52-118.82C228.43 47.1 175.23.76 113.83 4.98 52.43 9.21 6.08 62.41 10.3 123.81c4.23 61.4 57.43 107.74 118.83 103.52Z" stroke="#dfdede" stroke-width="1.96"/><path d="M129.23 226.5c61.1-4.2 107.21-57.13 103-118.23-4.2-61.09-57.13-107.2-118.22-103C52.9 9.46 6.79 62.4 11 123.5c4.2 61.09 57.14 107.2 118.23 103Z" stroke="#e0e0df" stroke-width="1.95"/><path d="M129.33 225.68c60.79-4.18 106.68-56.85 102.5-117.64-4.19-60.78-56.86-106.67-117.64-102.5C53.39 9.75 7.5 62.4 11.69 123.2c4.18 60.79 56.85 106.68 117.64 102.5Z" stroke="#e1e1e1" stroke-width="1.95"/><path d="M129.43 224.86c60.48-4.16 106.14-56.57 101.98-117.05C227.25 47.33 174.85 1.67 114.36 5.83 53.88 10 8.22 62.4 12.4 122.88c4.16 60.48 56.56 106.14 117.04 101.98Z" stroke="#e3e2e2" stroke-width="1.95"/><path d="M129.53 224.04c60.18-4.14 105.6-56.28 101.47-116.46C226.86 47.4 174.72 1.98 114.54 6.12 54.37 10.26 8.94 62.4 13.08 122.57c4.14 60.18 56.28 105.6 116.45 101.47Z" stroke="#e4e3e3" stroke-width="1.95"/><path d="M129.64 223.21c59.87-4.12 105.06-56 100.94-115.86C226.46 47.48 174.6 2.28 114.72 6.4 54.85 10.52 9.65 62.4 13.77 122.27c4.12 59.87 56 105.06 115.87 100.94Z" stroke="#e5e5e4" stroke-width="1.94"/><path d="M129.74 222.4c59.56-4.1 104.53-55.72 100.43-115.28-4.1-59.57-55.7-104.53-115.27-100.43-59.57 4.1-104.53 55.7-100.43 115.27 4.1 59.56 55.7 104.53 115.27 100.43Z" stroke="#e7e6e6" stroke-width="1.94"/><path d="M129.84 221.57c59.26-4.08 104-55.42 99.92-114.68-4.08-59.26-55.43-104-114.68-99.92-59.26 4.08-104 55.42-99.92 114.68 4.08 59.26 55.42 104 114.68 99.92Z" stroke="#e8e7e7" stroke-width="1.94"/><path d="M129.94 220.74c58.96-4.05 103.46-55.13 99.4-114.08C225.3 47.7 174.21 3.2 115.25 7.26 56.3 11.3 11.8 62.39 15.85 121.34c4.06 58.96 55.14 103.46 114.1 99.4Z" stroke="#eae9e9" stroke-width="1.93"/><path d="M130.05 219.92c58.64-4.03 102.91-54.85 98.88-113.5-4.04-58.64-54.85-102.92-113.5-98.88-58.64 4.03-102.92 54.85-98.88 113.5 4.03 58.64 54.85 102.92 113.5 98.88Z" stroke="#ebeaea" stroke-width="1.93"/><path d="M130.15 219.1c58.34-4.02 102.38-54.57 98.37-112.9C224.5 47.84 173.95 3.8 115.6 7.81 57.27 11.84 13.23 62.4 17.24 120.72c4.02 58.35 54.57 102.4 112.9 98.38Z" stroke="#edeceb" stroke-width="1.93"/></g><path d="M130.25 218.27c58.03-3.99 101.85-54.27 97.85-112.3-4-58.04-54.28-101.85-112.31-97.86-58.04 4-101.85 54.28-97.85 112.31 3.99 58.04 54.27 101.85 112.31 97.85Z" stroke="#eeeded" stroke-width="1.92" fill="none"/><path d="M130.35 217.45c57.73-3.97 101.31-54 97.34-111.72-3.97-57.73-54-101.31-111.72-97.34-57.73 3.97-101.31 54-97.34 111.72 3.97 57.73 54 101.31 111.72 97.34Z" stroke="#f0efef" stroke-width="1.92" fill="none"/><path d="M130.45 216.63c57.43-3.95 100.78-53.7 96.83-111.13-3.96-57.42-53.71-100.77-111.13-96.82-57.43 3.95-100.78 53.7-96.83 111.13 3.95 57.42 53.71 100.77 111.13 96.82Z" stroke="#f1f0f0" stroke-width="1.92" fill="none"/><path d="M130.55 215.8c57.12-3.92 100.24-53.41 96.31-110.53-3.93-57.12-53.42-100.24-110.54-96.3C59.21 12.88 16.1 62.37 20.02 119.5c3.93 57.12 53.42 100.24 110.53 96.3Z" stroke="#f3f2f1" stroke-width="1.91" fill="none"/><path d="M130.66 214.98c56.8-3.9 99.7-53.13 95.79-109.94-3.91-56.82-53.14-99.7-109.95-95.8C59.7 13.15 16.8 62.38 20.71 119.2 24.62 176 73.85 218.9 130.66 215Z" stroke="#f5f4f3" stroke-width="1.91" fill="none"/><path d="M130.76 214.16c56.5-3.89 99.16-52.85 95.27-109.35C222.15 48.3 173.2 5.64 116.68 9.53c-56.5 3.89-99.16 52.85-95.28 109.35 3.9 56.51 52.85 99.17 109.36 95.28Z" stroke="#f6f6f5" stroke-width="1.91" fill="none"/><path d="M130.86 213.34c56.2-3.87 98.63-52.57 94.76-108.77-3.87-56.2-52.56-98.62-108.76-94.76-56.2 3.87-98.63 52.57-94.76 108.77 3.87 56.2 52.56 98.62 108.76 94.76Z" stroke="#f8f8f8" stroke-width="1.9" fill="none"/><path d="M130.96 212.51c55.9-3.84 98.1-52.27 94.25-108.17-3.85-55.9-52.28-98.09-108.17-94.24-55.9 3.84-98.1 52.27-94.25 108.17 3.85 55.9 52.28 98.09 108.17 94.24Z" stroke="#fbfbfa" stroke-width="1.9" fill="none"/><path class="ao" d="M38.72 119c4.65 5.91 11.25 1.3 12.38-6.41 1.3-8.73-5.07-15.73-10.64-11.7-4.49 3.24-6.2 12.42-1.74 18.11Zm-12.15-6.87 3.68-5.94 1.66 3.24.05-.1c-.3-14.02 12.09-23.17 20.39-15.06 10.85 10.62 6.6 32.07-6.17 34.16-.37.06-.02-.03 0 0 3.15 4.51 5.46 7.28 8.58 10.77l-4.01 7c-6.61-7.37-19.5-24.77-24.18-34.07ZM50.31 81.17l5.65-5.86c5.3 8.86 9.4 15.25 16.91 23.14l-5.74 6.4c-5.97-6.71-13.2-16.98-16.82-23.68ZM82.78 60.37c-8.41-1.51-16.17 9.86-12.43 15.96 4.5 7.36 16.43 3.9 18.57-5.93.25-1.15.18-2.02.15-2.66l7-6.44c5.98 15.75-12.27 30.98-25.2 25.36-13.94-6.06-9.44-27 7.64-32.84 6.1-2.09 9.66-.38 11.2.41-2.08 1.84-4.86 4.29-6.93 6.14ZM108.04 42.06l20.9 2.12c-2.24 2.16-5.22 5.05-7.5 7.17a9429.73 9429.73 0 0 1-19.15-3c3.01 3.36 7.08 7.81 10.17 11.1l-6.77 5.94c-9.1-9.56-19.14-23.46-24.41-32.82l7.09-5.11c2.7 4.79 6.07 11.65 12.73 19.49.2-9.79.21-10.81.83-16.44 2.1-1.53 5.74-4.45 7.83-6-.73 8.4-1.04 10.46-1.72 17.55ZM48.17 76.45c2.87.7 6.48-4.92 4.9-7.6-1.35-2.28-5.2.2-6.17 3.97-.48 1.87.03 3.33 1.27 3.63Z"/><path d="M167.1 90c-16.9 25.17-30.48 39.67-59.13 70.1 16.35 3.7 33.45 6.1 50.2 6.46 10.75-27.98 10.33-54.9 8.93-76.56-.18-.02.19.01 0 0m26.96 111.52c-4.1.5-8.79.81-14.03.92-6.03 9.13-13.01 16.77-20.66 22.68-7.51.16-22.52-.88-32.7-1.82 7.26-6.72 15.65-16.22 19.25-22.32h-.08a504.44 504.44 0 0 1-80.91-14.51c-.66-10.71-.3-22.82 1.17-35.96 20.05-22.98 42.43-43.8 62.33-66.93 7.43-8.63 16.68-19.38 24.27-33.72 3.25.4 24.86 1.72 35.41 2.15 13.07 28.03 18.12 63.52 11.88 98.4a158.85 158.85 0 0 1-4.32 18.08c5.9-.13 11.18-.48 15.8-1.03a118.15 118.15 0 0 1-17.41 34.06" fill="#6dc069"/></g></svg>