<svg xmlns="http://www.w3.org/2000/svg" id="b" viewBox="0 0 157.35 82.3"><defs><style>.f{fill:#fff}.i{fill:#231f20}</style></defs><g id="c"><g id="d"><path d="M157.35 33.89c.24 16.82-34.8 30.94-78.25 31.54C35.64 66.03.23 52.9 0 36.07-.23 19.25 34.8 5.13 78.25 4.52c43.45-.6 78.87 12.55 79.1 29.37Z" style="fill:#085ea9"/><path d="M131.67 2.46c12.81 7.74 14.46 31.32 3.67 52.69-10.79 21.36-29.92 32.42-42.73 24.68-12.81-7.72-14.45-31.31-3.67-52.68C99.73 5.8 118.86-5.26 131.67 2.46Z" style="fill:#b5d44a"/><path d="M121.71 69.43c-13.81 9.13-30.1 8.85-36.36-.63-6.26-9.48-.13-24.56 13.7-33.7 13.81-9.13 30.1-8.84 36.36.63 6.26 9.48.13 24.57-13.7 33.7Z" style="fill:#fcee21"/><path d="m52.25 41.18-.52 2.08.31 1.94.9 1.83.12 1.39-.67.76-1.3.12-2.28-.53-9.42 2.98-1.04.66-1.8 1.5-.92.22-1 .6-3.03.07c-.17 1.26-.28 1.45-1.36 1.88l-2.34-.57-.36-1.05 3.12-2.56-.96-.76-.53-1.2.8-1.14c-.83-.9-.97-1.11-1.19-2.24l.6-.58.16-1.02-.53-1.26-.17-2.2-.76-.56-.07-2.21-.85-3.13-1.44-3.9-2-4.69-1.98-2.92.02-1.47-.1-.5-1.96-.48-.5-.5a.92.92 0 0 1-.16-.32c-.09-.45.07-.95.5-1.61l1.32.23 4.09-.91 2.36-.6 1.64-1.3 1.52.32 2.82-.68 3.18-1.16.83-.68 2.45-.44.25-.34.72.35 2.15-.68 1.41-.32.82.56 1.5 2.3-.71 2.95-.9 1.1-1.2.1-.6-.19-1.19-.66-.61-.83-.72-2.68-1.4.01-9.25 5.83-.23.68.79 3.61L32.23 33l.34.93 4.9-1.7 2.03-1.3.03-.65.97-.76.7.17.78.38.43.4-.02 1.23-1 1.47c-6.71 1.2-8.27 2.84-7.35 7.7.43 2.33 1.74 5.5 3.77 9.23l8.08-2.86.4-.54-.68-1.75-.14-1.55.12-1.5.5-1.66 5.58-1.01.38.64.2 1.3Z" class="i"/><path d="M65.32 35.41h-.15l-.9-.22-.61.37-5.86 2.2h-1.25l-.5-.77a10.6 10.6 0 0 1-3.42.4c-3.59-.17-5.43-2.05-5.27-5.21.14-2.7 1.61-4.14 3.01-5.17 1.55-.9 2.26-1.21 6.43-2.63l-.17-1.51-.14-.23c-.04-.12-.09-.24-.08-.47.03-.34.34-1.6.35-1.94a1.5 1.5 0 0 0-.02-.47c-.37-1.57-1.21-2.65-2.1-2.7-.56-.02-1.28.46-1.97 1.3-.85.99-1.4 2.12-1.45 2.98-.04.75.28 1.23.83 1.26.45.02.82-.37.9-.89l.07-1.44c.02-.28.43-.55.88-.53.5.03.72.44.68 1.13 0 .12-.01.23-.06.35-.28 1.48-1.48 2.57-2.68 2.52-1.1-.05-1.89-1.13-1.81-2.57a6.56 6.56 0 0 1 1.95-3.95c1.53-1.6 3.63-2.65 5.37-2.56 2.05.1 3.55 1.84 3.91 4.51l2 13.43-.05 1.04 1 .16 1.85-.31c.25 0 .43.42.4.94-.02.57-.55 1-1.14.98Zm-8.56-9.18c-4.76 1.21-7.11 3.17-7.25 5.94-.12 2.18 1.32 3.29 4.46 3.45 2.44.11 3.01-.27 3.11-2.28.06-1.04-.3-4.63-.32-7.11Z" class="i"/><path d="M77.41 17.93c-2.04-.1-3.58-2.08-3.46-4.44.1-1.9 1.27-3.28 2.67-3.22.94.05 1.63 1.18 1.59 2.04-.03.52-.25.97-.56 1.19l-1.34.8c-.26.16-.48.44-.5.72-.03.7.84 1.37 1.78 1.42 1.4.07 2.46-1.21 2.56-3.05.13-2.42-1.52-4.4-3.71-4.5-1.9-.1-3.7 2.18-3.85 4.83a6.29 6.29 0 0 0 1.2 3.86c2.53 4.05 3.88 6.13 3.97 6.37.36.7.51 1.58.46 2.56-.2 3.91-3.45 6.76-7.48 6.56-4.03-.2-6.73-3.09-6.52-7 .13-2.54 1.63-4.66 3.08-4.59.64.03 1.16.8 1.12 1.5a1.6 1.6 0 0 1-.93 1.4l-.96.4c-.26.11-.52 1.2-.54 1.72-.14 2.75 1.9 4.7 5.14 4.86 1.64.08 2.83-.73 2.9-2 .02-.4-.1-.87-.34-1.22l-4.47-7.09a10.84 10.84 0 0 1-1.63-6.19c.23-4.5 4.01-8.06 8.24-7.85 2.9.14 5.26 2.67 5.49 5.97l-.03.52c-.13 2.53-1.83 4.53-3.88 4.43ZM99.6 15.22c-.82 1.13-2.55 4.49-5.19 10.09a44.95 44.95 0 0 0-3.2 9.2c-.39 1.75-.62 3.55-.7 5.33.02.54 0 .58-.1 1.1-.37 1.63-.78 2.08-1.76 1.87-.08-.02-.17-.03-.2-.09l-.27-.23-4.97-2.88c-.11-.12-.29-.15-.41-.18-1.28-.27-1.54-.14-2.96 1.63-.12.15-.3.38-.6.68-1.1-.24-1.74-.77-1.6-1.37.3-1.42 1.3-1.7 7.73-2.06l4.15-12.24a5.65 5.65 0 0 1-4.55.98c-3.7-.78-4.94-3.64-3.77-8.91.92-4.16 2.1-6.84 2.95-6.66l2.9.57 2.13-.1-.23 1.26-.2.45c-.42-.1-.73-.11-.82-.09-.92.3-2.08 2.3-2.56 4.45-.8 3.6.28 6.39 2.66 6.9.99.2 2.01-.4 2.46-1.43.16-.32.53-1.36 1.11-3.17l1.23-3.92c.19-.64.37-1.22.48-1.74.13-.6.16-.73.17-1.4.42-.05.6-.5.77-.42l1.7.72 4.58.14" class="i"/><path d="m51.6 40.31-.51 2.09.31 1.94.91 1.82.1 1.4-.66.76-1.3.11-2.28-.52-9.42 2.98-1.04.66-1.8 1.5-.92.22-1 .58-3.04.08c-.16 1.26-.27 1.46-1.36 1.89l-2.33-.58-.36-1.04 3.12-2.56-.96-.77-.53-1.19.8-1.14c-.83-.9-.97-1.11-1.19-2.25l.6-.58.16-1.02-.54-1.25-.16-2.2-.77-.56-.06-2.22-.85-3.13-1.44-3.9-2-4.68-1.98-2.92.02-1.47-.1-.52-1.96-.46-.5-.5a.97.97 0 0 1-.16-.32c-.1-.45.07-.95.5-1.61l1.32.23 4.08-.91 2.37-.6 1.63-1.3 1.53.32 2.81-.68 3.19-1.16.83-.68 2.45-.44.24-.34.72.34 2.16-.68 1.41-.31.82.55 1.5 2.31-.71 2.94-.91 1.1-1.2.1-.6-.18-1.18-.67-.62-.82-.7-2.7-1.42.03-9.24 5.82-.23.69.79 3.6 1.65 6.63.34.93 4.9-1.7 2.03-1.3.03-.65.97-.76.7.16.77.4.43.38-.01 1.23-1 1.47c-6.72 1.21-8.28 2.84-7.36 7.72.44 2.32 1.75 5.48 3.78 9.22l8.08-2.86.4-.54-.68-1.75-.15-1.56.13-1.49.5-1.67 5.58-1 .38.63.2 1.31Z" class="f"/><path d="M64.67 34.55h-.15l-.89-.23-.62.38-5.85 2.2h-1.25l-.5-.78a10.5 10.5 0 0 1-3.42.41c-3.59-.17-5.44-2.05-5.27-5.21.14-2.71 1.6-4.14 3.01-5.17 1.54-.9 2.26-1.22 6.42-2.63L56 22l-.14-.24c-.05-.12-.09-.23-.07-.46 0-.35.33-1.6.34-1.95.01-.17.02-.29-.02-.46-.37-1.58-1.21-2.66-2.1-2.7-.56-.03-1.28.46-1.97 1.29-.85 1-1.41 2.13-1.46 2.99-.04.75.29 1.22.84 1.25.45.02.82-.36.9-.88l.07-1.44c0-.29.42-.56.87-.53.5.02.73.44.7 1.13-.01.11-.02.23-.08.34-.27 1.49-1.47 2.58-2.67 2.52-1.1-.05-1.89-1.13-1.82-2.57.07-1.26.8-2.73 1.96-3.94 1.53-1.6 3.63-2.65 5.37-2.57 2.05.1 3.55 1.85 3.91 4.52l2 13.43-.06 1.03 1 .17 1.86-.32c.25.02.43.43.4.95-.03.57-.55 1-1.15.98Zm-8.56-9.2c-4.76 1.22-7.1 3.2-7.25 5.95-.11 2.2 1.33 3.3 4.47 3.45 2.44.12 3-.26 3.11-2.27.06-1.04-.3-4.63-.33-7.12Z" class="f"/><path d="M76.77 17.07c-2.04-.1-3.58-2.08-3.46-4.44.1-1.9 1.27-3.29 2.66-3.22.95.04 1.64 1.18 1.6 2.04-.03.51-.25.97-.56 1.18l-1.35.8c-.25.17-.47.45-.48.73-.04.7.83 1.37 1.77 1.41 1.4.07 2.46-1.2 2.56-3.05.12-2.42-1.52-4.4-3.72-4.5-1.89-.1-3.7 2.18-3.84 4.83a6.28 6.28 0 0 0 1.2 3.87c2.53 4.04 3.87 6.13 3.96 6.36.36.71.52 1.59.47 2.57-.2 3.91-3.45 6.75-7.48 6.56-4.04-.2-6.73-3.1-6.53-7 .13-2.54 1.64-4.66 3.09-4.6.64.04 1.15.81 1.12 1.5a1.6 1.6 0 0 1-.93 1.4l-.97.42c-.25.1-.5 1.18-.53 1.7-.15 2.77 1.9 4.71 5.14 4.87 1.64.08 2.83-.73 2.9-2 .02-.4-.11-.87-.34-1.23l-4.47-7.08a10.78 10.78 0 0 1-1.63-6.2c.23-4.48 4-8.06 8.24-7.85 2.9.14 5.26 2.68 5.49 5.98l-.03.51c-.13 2.54-1.83 4.53-3.88 4.44ZM99.02 14.28c-.83 1.13-2.55 4.5-5.19 10.09a45.66 45.66 0 0 0-3.2 9.2c-.4 1.76-.62 3.55-.7 5.34.01.54 0 .58-.1 1.1-.37 1.62-.79 2.07-1.77 1.87-.08-.02-.17-.04-.2-.09l-.26-.23-4.98-2.89c-.11-.1-.28-.14-.4-.17-1.29-.27-1.54-.14-2.96 1.62-.12.16-.3.39-.6.68-1.1-.23-1.74-.77-1.61-1.36.31-1.42 1.32-1.7 7.73-2.06l4.15-12.24a5.63 5.63 0 0 1-4.55.97c-3.7-.77-4.94-3.64-3.77-8.9.93-4.17 2.1-6.84 2.95-6.66l2.91.56 2.12-.09-.23 1.25-.2.46c-.42-.1-.72-.11-.82-.1-.91.31-2.08 2.32-2.55 4.46-.8 3.6.27 6.39 2.66 6.88.98.21 2-.38 2.45-1.4.17-.33.54-1.38 1.12-3.19l1.23-3.91c.18-.64.36-1.23.47-1.75.14-.6.17-.72.18-1.4.41-.04.6-.5.76-.42l1.71.72 4.57.15" class="f"/><path d="m130.02 27.03-2.06-1.7 3.25-8.3-11.4.76c-2.45 7.07-2.93 9-3.93 17.58 8.5 2.73 11.5 6.77 11.62 15.42.19 13.24-10.98 22.98-21.48 23.12-11.4.16-19.96-7.06-20.1-16.84-.1-7.33 6.04-13.42 13.67-13.53 5.2-.07 9.42 3.23 9.48 7.51.07 4.78-4.65 9.54-9.24 9.6-4.18.06-7.46-2.13-7.5-4.99-.03-1.83 1.28-3.07 3.2-3.1 1.54-.02 2.27 1.3 2.3 3.64l.01.5c.4.1.92.1 1.33.1 3.36-.06 5.06-2.01 5-5.89-.03-2.44-3.11-4.33-6.98-4.28-4.48.06-7.69 3.78-7.62 8.66a14.34 14.34 0 0 0 14.35 14.07c8.87-.13 16.3-8.07 16.16-17.44-.13-9.27-6.43-15.2-16.62-15.66l-1.01-.2c-.61-.09-1.03-.39-.84-1.41.09-.5.45-3.88.42-6.32a11.2 11.2 0 0 0-.46-3.56c1.42-.73 1.82-1.45 2.48-4.92.28-1.64.86-3.99 1.73-7.05 6.56 2.14 8.7 2.52 13.69 2.45 4.07-.05 8.35-.42 12.92-1l3.09-5.43 1.84.99-7.3 17.22Z" class="i"/><path d="m128.98 25.93-2.06-1.7 3.25-8.3-11.4.77c-2.45 7.06-2.93 9-3.93 17.57 8.49 2.74 11.5 6.77 11.62 15.42.19 13.24-10.99 22.98-21.48 23.12-11.4.16-19.96-7.05-20.1-16.83-.1-7.34 6.04-13.43 13.67-13.54 5.2-.07 9.42 3.23 9.48 7.5.07 4.8-4.66 9.55-9.24 9.61-4.18.06-7.47-2.13-7.5-4.98-.03-1.84 1.27-3.08 3.2-3.1 1.54-.03 2.26 1.29 2.3 3.63v.5c.41.1.93.1 1.34.09 3.35-.05 5.06-2 5-5.87-.03-2.45-3.11-4.34-6.98-4.29-4.48.06-7.69 3.78-7.62 8.66a14.34 14.34 0 0 0 14.35 14.07c8.87-.13 16.3-8.07 16.16-17.44-.13-9.27-6.43-15.2-16.62-15.66l-1.02-.19c-.61-.1-1.02-.4-.83-1.42.15-.8-.48-6.57.45-9.9.94-3.35 1.68-7.34 3.72-11.95 6.56 2.15 8.7 2.52 13.69 2.45 4.07-.05 8.35-.42 12.92-.99l3.09-5.44 1.84.99-7.3 17.22Z" style="fill:#ea3392"/></g></g></svg>