<svg xmlns="http://www.w3.org/2000/svg" viewBox="76.4 58.4 545.2 200.7"><path d="M 379.933 193.048 L 381.353 162.718 L 399.843 162.718 L 399.373 122.438 L 383.263 122.438 L 384.683 82.628 L 331.133 104.428 L 331.133 122.908 L 322.123 123.378 L 316.443 163.188 L 332.083 163.188 L 332.713 203.788 L 342.983 231.428 L 363.363 244.218 L 393.213 242.798 L 402.223 198.728 L 390.373 201.568 L 379.933 193.048 Z" class="st0" style="fill:#007ac2;stroke:#000;stroke-width:6.0661px"/><path d="M373 93.6 379 90.8 378.7 122.7zM388 157.5 394.3 157.5 393.7 126.5zM337.1 164 343.8 166.6 338.4 203.2zM366.2 239.5 388.4 238.1 390 232.1z" class="st1" style="fill:#fff"/><path d="M334.6 78.2 368.8 76.3 331.2 85.5zM330.8 89.8 378.8 76.8 330.8 96.7zM392.1 81.7 398.1 85.5 391.2 116.8zM387.1 169 412.7 168.9 406.5 175.7zM410.6 200.9 410.7 241.2 401.5 245.7zM329.8 216.7 336.5 236.3 353.8 247.7 330.4 241.6z"/><path d="M 267.603 113.908 L 222.583 120.548 L 194.623 150.398 L 187.513 191.158 L 207.413 224.808 L 243.903 244.708 L 290.353 237.608 L 318.313 209.648 L 322.103 167.948 L 305.053 131.918 L 267.603 113.908 Z M 236.803 184.048 L 246.283 163.668 L 268.553 166.038 L 271.873 185.468 L 253.863 197.788 L 236.803 184.048 Z" class="st2" style="fill:#febe10;stroke:#000;stroke-width:6.0661px"/><path d="M268.7 121.8 301 137.3 269.4 128.7zM261.9 199.5 270.3 193.2 270 200.9zM312.9 198 312.3 208.4 289 230.8z" class="st1" style="fill:#fff"/><path d="M278.8 112.8 314.8 121 312.8 134.2 309.4 126.4zM184.7 130.6 205.5 123.3 182.4 137.8zM182.2 143.7 212.8 122.8 188 147.9 183.8 184.1zM204.8 230.1 229 244 200.9 238.7zM253.1 249.2 293.5 244 320.1 217 297.3 249.7zM306.5 244.2 315.5 241.7 319.7 223.4zM250 168.9 256.5 169.6 242.8 183.1z"/><path d="M 467.693 192.568 L 469.113 162.238 L 487.603 162.238 L 487.133 121.958 L 471.023 121.958 L 472.443 82.148 L 418.893 103.948 L 418.893 122.428 L 409.883 122.898 L 404.193 162.708 L 419.833 162.708 L 420.463 203.308 L 430.733 230.958 L 451.113 243.748 L 480.963 242.328 L 489.973 198.258 L 478.123 201.098 L 467.693 192.568 Z" class="st3" style="fill:#d73648;stroke:#000;stroke-width:6.0661px"/><path d="M460.8 93.1 466.8 90.3 466.5 122.2zM475.8 157 482.1 157 481.5 126zM424.9 163.5 431.6 166.1 426.2 202.7zM454 239 476.2 237.6 477.7 231.6z" class="st1" style="fill:#fff"/><path d="M422.4 77.8 456.5 75.9 418.9 85zM418.6 89.3 466.6 76.4 418.6 96.3zM479.9 81.2 485.9 85 478.9 116.3zM474.9 168.5 483.2 168.5 482.2 173.4zM414.7 212.4 424.2 235.8 441.6 247.2 418.2 241.1zM405.8 170.6 412.7 168.9 413.1 197.5z"/><path d="M89.98,27.72l-68.24,4.11l6,165.24l99.2,2.21l14.06-55.6l-58.29,2.21L89.98,27.72z" class="st4" style="fill:#393a96;stroke:#000;stroke-width:6.0661px" transform="translate(65.2 46.2)"/><path d="M23.2 24.8 79.1 12.2 85.4 20zM96 37.1 98 140.3 88.9 140.6zM12.5 45.4 18.2 197.5 11.3 192.1zM115.3 209.1 28.8 204.9 33.1 212.9z" transform="translate(65.2 46.2)"/><path d="M30.8 93.5 42 190.5 34.3 190.8zM74.1 34.5 81.4 34.5 79.2 94.2zM124.9 150.7 132.2 150.9 121.7 193.3z" class="st1" style="fill:#fff" transform="translate(65.2 46.2)"/><path d="M 565.223 113.288 L 520.203 119.928 L 492.243 149.778 L 485.133 190.538 L 505.033 224.188 L 541.523 244.088 L 587.973 236.988 L 615.933 209.028 L 619.723 167.328 L 602.663 131.308 L 565.223 113.288 Z M 534.423 183.428 L 543.903 163.048 L 566.173 165.418 L 569.493 184.848 L 551.483 197.168 L 534.423 183.428 Z" class="st5" style="fill:#7dc242;stroke:#000;stroke-width:6.0661px"/><path d="M566.4 121.2 598.6 136.6 567 128.1zM559.5 198.9 567.9 192.5 567.6 200.3zM610.5 197.4 609.9 207.8 586.6 230.2z" class="st1" style="fill:#fff"/><path d="M576.4 110.2 612.4 118.4 621.6 156.3 607.1 123.8zM494.9 122.1 515.1 113.9 495 136.5zM492.3 216.4 498.9 230.6 532.9 246.4 488.9 234.6zM497 239.3 524.1 246.2 501.8 246.5zM550.3 249 590.8 243.8 617.3 216.8 594.6 249.5zM604.1 243.5 613.1 241.1 617.4 222.8zM547.6 168.3 554.1 168.9 540.4 182.5z"/></svg>