<svg xmlns="http://www.w3.org/2000/svg" width="584.4" height="170.7" viewBox="46.8 108.1 584.4 170.7"><defs><clipPath id="a"><path d="M14.2 9.9H599.6V180.6H14.2z" style="fill:#fff"/></clipPath></defs><g style="clip-path:url(#a)" transform="translate(31.7 98.2)"><path d="M429.85,93.61c-0.84-2.1,4.31,0.61,8.15-0.28c7.38-1.18,14.16-0.88,21.54,0.3c3.54,0.59,6.79,2.07,10.33,2.66 c2.36,0.29,4.43,0,6.79-0.89c3.84-0.89,7.67,0,11.51-0.29c0.89-0.3,1.77-0.89,2.66-1.18c1.18-0.29,2.07,0,3.25,0 c3.84-0.59,7.67-1.77,11.51-0.89c1.77,0.3,3.25,0.59,5.02,0.59c0,1.48-0.3,3.25,0,4.72c0.59,2.07,2.65,3.84,2.06,5.02 c-2.36,3.84-2.29,1.22,0.07,5.64c0.93,1.76-1.3,19.45-2.36,20.95c-1.7,2.4,0.59,16.52,0.3,23.01c-0.3,3.25-1.18,2.66-1.48,5.9 c-0.29,4.13,1.77,8.26,0.88,12.39c0,0.88,0.59,2.95,0.59,3.84c-1.77-0.29-1.25,0.26-3.02,0.85c-5.02,1.47-10.03,0-15.05,0.59 c-10.03,0.59-20.06,0.29-30.09-0.29c-1.18,0-2.66-0.88-4.13-1.18c-1.77-0.29-3.54-0.29-5.31-0.29 c-6.49-0.59-12.98-0.59-19.47,1.18c-1.47,0.59-2.95,0.88-4.13,0.29c-1.18-0.59-0.88-2.66-1.18-3.83 c-0.88-14.16-0.88-28.33,0-42.49c2.36-5.02,2.07-10.33,3.25-15.64c0.29-1.48,0.29-3.25,0-4.72c-0.29-1.18-2.36-1.18-2.36-2.07 c-0.59-2.95,1.27-5.05,1.27-8C428.34,98.91,431.32,95.09,429.85,93.61z" class="st0" style="stroke:#000;stroke-width:5px"/><path d="M426.35,16.32c3.87-0.89,8.04,0,11.9-0.89c7.44-1.19,14.28-0.89,21.72,0.3c3.57,0.6,6.84,2.08,10.42,2.68 c2.38,0.3,4.46,0,6.84-0.89c3.87-0.89,7.74,0,11.61-0.3c0.89-0.3,1.79-0.89,2.68-1.19c1.19-0.3,2.08,0,3.27,0 c3.87-0.6,7.74-1.79,11.61-0.89c1.79,0.3,3.27,0.59,5.06,0.59c0,1.49-0.3,3.27,0,4.76c0.6,2.08,2.68,3.87,2.08,5.06 c-2.38,3.87-0.89,3.2,1.49,7.66c2.68,5.06-4.17,12.2-1.19,17.26c0,6.55-2.38,12.2-2.68,18.75c-0.3,3.27,1.19,7.44,0.89,10.71 c-0.3,4.17,2.08,8.63,1.19,12.8c0,0.89-1.49,3.57-1.49,4.46c-1.79-0.3-1.49,0.97-3.27,1.56c-5.06,1.49-10.12,0-15.18,0.6 c-10.12,0.6-20.24,0.3-30.36-0.3c-1.19,0-2.68-0.89-4.17-1.19c-1.79-0.3-3.57-0.3-5.36-0.3c-6.55-0.59-13.09-0.59-19.64,1.19 c-1.49,0.6-2.98,0.89-4.17,0.3c-1.19-0.6-0.89-2.68-1.19-3.87c-0.89-14.28-0.89-28.57,0-42.85c2.38-5.06,2.08-10.42,3.27-15.77 c0.3-1.49,0.3-3.27,0-4.76c-0.3-1.19-2.38-1.19-2.38-2.08c-0.59-2.98-0.3-5.65-0.3-8.63C426.94,20.49,427.84,17.81,426.35,16.32z" class="st0" style="stroke:#000;stroke-width:5px"/><path d="M505.42,14.78c3.82-0.88,7.94,0,11.76-0.88c7.35-1.18,14.12-0.88,21.47,0.29c3.53,0.59,6.76,2.06,10.29,2.65 c2.35,0.29,4.41,0,6.77-0.88c3.82-0.88,7.65,0,11.47-0.29c0.88-0.29,1.77-0.88,2.65-1.18c1.18-0.29,2.06,0,3.23,0 c3.82-0.59,7.65-1.77,11.47-0.88c1.76,0.29,3.24,0.59,5,0.59c0,1.47-0.29,3.24,0,4.71c0.59,2.06,2.65,3.82,2.06,5 c-2.35,3.82-6.18,7.35-3.82,11.77c2.65,5,4.12,10.29,7.06,15.29c0,6.47,0.29,12.65,0,19.12c-0.29,3.24-2.06,6.18-2.35,9.41 c-0.29,4.12,0.59,8.53-0.29,12.65c0,0.88-0.59,5.59-0.59,6.47c-1.76-0.29-6.18-3.24-7.94-2.65c-5,1.47-7.06,0.29-12.06,0.88 c-10,0.59-13.53,4.41-23.53,3.82c-1.18,0-10-3.82-11.47-4.12c-1.76-0.29-7.94,0-9.71,0c-6.47-0.59-7.65-2.06-14.12-0.29 c-1.47,0.59-2.06,1.47-3.24,0.88c-1.18-0.59,0-3.24-0.29-4.41c-0.55-8.75-2.91-8.71-1.69-28.16c2.35-5,0.59-13.24,1.76-18.53 c0.29-1.47,1.69-14.49,1.4-15.96c-0.29-1.18-2.35-1.18-2.35-2.06c-0.59-2.94-0.29-5.59-0.29-8.53 C506.01,18.89,506.89,16.25,505.42,14.78z" class="st0" style="stroke:#000;stroke-width:5px"/><path d="M507.89,93.56c6.21-1.43,7.37-0.18,9.18-0.6c7.46-1.19,14.33-0.9,21.79,0.3c3.58,0.6,6.87,2.09,10.45,2.69 c2.39,0.3,4.48,0,6.87-0.9c3.88-0.9,7.76,0,11.64-0.3c0.9-0.3,1.79-0.9,2.69-1.19c1.19-0.3,2.09,0,3.28,0 c3.88-0.6,7.76-1.79,11.64-0.9c1.79,0.3,4.97,0.82,6.76,0.82c0,1.49-0.39,3.06-0.09,4.56c0.6,2.09,1.09,3.88,0.5,5.08 c-2.39,3.88-6.27,7.46-3.88,11.94c2.69,5.07,4.18,10.45,7.16,15.52c0,6.57,0.3,12.84,0,19.4c-0.3,3.28-2.09,6.27-2.39,9.55 c-0.3,4.18,0.6,8.66-0.3,12.84c0,0.9-0.3,2.09-0.3,2.99c-1.79-0.3-3.58,0.6-5.37,1.19c-5.08,1.49-10.15,0-15.22,0.6 c-10.15,0.6-20.3,0.3-30.45-0.3c-1.19,0-2.69-0.9-4.18-1.19c-1.79-0.3-3.58-0.3-5.37-0.3c-6.57-0.6-13.13-0.6-19.7,1.19 c-1.49,0.6-2.98,0.9-4.18,0.3c-1.19-0.6-0.89-2.69-1.19-3.88c-0.9-14.33,0.37-2.69,1.27-17.02c1.49-5.97-3.28-19.11-2.09-24.48 c0.3-1.49,4.4-20.6,4.1-22.09c-0.3-1.19-0.82-3.88-0.82-4.78c-0.6-2.98-1.87-2.98-1.87-5.97 C505.73,98.04,509.38,95.05,507.89,93.56z" class="st0" style="stroke:#000;stroke-width:5px"/><path d="M56.4 49.6h6.9c16 0 29.7.2 29.7 20.4 0 19.5-14.7 19.5-29.6 19.5h-6.9V49.6zM15.1 175.4h41.3V122.7h23.3c36.1 0 56.3-16.4 56.3-54.1 0-36.6-23.7-52.4-57.8-52.4H15.1V175.4zM182.7 175.4h-38.4V67.1h38.4V175.4zM185 38.2c0 11.8-9.7 21.6-21.5 21.6s-21.5-9.7-21.5-21.5c0-11.8 9.7-21.5 21.5-21.5S185 26.4 185 38.2zM274.8 102.4c-5.7-4.2-12.4-7.6-19.8-7.6-14.8 0-26.4 11.4-26.4 26.4 0 15.6 11.2 26.6 27 26.6 6.8 0 14.1-2.7 19.2-7.4v32.5c-8.4 4.2-17.7 6.1-27 6.1-32 0-58.8-23.8-58.8-56.5 0-34.8 26.6-58.8 60.5-58.8 8.9 0 17.7 2.1 25.3 6.3V102.4zM321.1 106.2l39.9-39.1h52.5l-54.2 50 57.6 58.3h-53.8l-42-44.1v44.1h-38.4V15.4h38.4V106.2z"/><clipPath id="b"><path d="M428.84,93.92c3.84-0.89,5.31,0.09,9.15-0.79c7.38-1.18,14.16-0.89,21.54,0.29 c3.54,0.59,6.79,2.07,10.33,2.66c2.36,0.29,4.43,0,6.79-0.89c3.83-0.88,7.67,0,11.51-0.29c0.88-0.29,1.77-0.88,2.66-1.18 c1.18-0.29,2.07,0,3.25,0c3.84-0.59,7.67-1.77,11.51-0.88c1.77,0.29,3.25,0.59,5.02,0.59c0,1.48-0.29,3.25,0,4.72 c0.59,2.07,2.66,3.84,2.07,5.02c-2.36,3.84-2.29,1.22,0.07,5.64c0.93,1.76-1.3,19.45-2.36,20.95c-1.7,2.4,0.59,16.52,0.29,23.01 c-0.29,3.25-1.18,2.66-1.48,5.9c-0.3,4.13,1.77,8.26,0.89,12.39c0,0.88,0.59,2.95,0.59,3.83c-1.77-0.29-1.25,0.26-3.03,0.85 c-5.02,1.48-10.03,0-15.05,0.59c-10.03,0.59-20.06,0.3-30.1-0.29c-1.18,0-2.66-0.88-4.13-1.18c-1.77-0.29-3.54-0.29-5.31-0.29 c-6.49-0.59-12.98-0.59-19.47,1.18c-1.48,0.59-2.95,0.89-4.13,0.29c-1.18-0.59-0.89-2.66-1.18-3.83 c-0.89-14.16-0.89-28.33,0-42.49c2.36-5.02,2.07-10.33,3.25-15.64c0.3-1.47,0.3-3.25,0-4.72c-0.29-1.18-2.36-1.18-2.36-2.07 c-0.59-2.95,0.98-4.38,0.98-7.33C428.05,99.38,430.32,95.4,428.84,93.92z" style="overflow:visible"/></clipPath><path d="M426.19,94.22 c3.83-0.89,7.97,0,11.8-0.89c7.38-1.18,14.16-0.88,21.54,0.3c3.54,0.59,6.79,2.07,10.33,2.66c2.36,0.29,4.43,0,6.79-0.89 c3.84-0.89,7.67,0,11.51-0.29c0.89-0.3,1.77-0.89,2.66-1.18c1.18-0.29,2.07,0,3.25,0c3.84-0.59,7.67-1.77,11.51-0.89 c1.77,0.3,3.25,0.59,5.02,0.59c0,1.48-0.3,3.25,0,4.72c0.59,2.07,2.65,3.84,2.06,5.02c-2.36,3.84-2.29,1.22,0.07,5.64 c0.93,1.76-1.3,19.45-2.36,20.95c-1.7,2.4,0.59,16.52,0.3,23.01c-0.3,3.25-1.18,2.66-1.48,5.9c-0.29,4.13,1.77,8.26,0.88,12.39 c0,0.88,0.59,2.95,0.59,3.84c-1.77-0.29-1.25,0.26-3.02,0.85c-5.02,1.47-10.03,0-15.05,0.59c-10.03,0.59-20.06,0.29-30.09-0.29 c-1.18,0-2.66-0.88-4.13-1.18c-1.77-0.29-3.54-0.29-5.31-0.29c-6.49-0.59-12.98-0.59-19.47,1.18c-1.47,0.59-2.95,0.88-4.13,0.29 c-1.18-0.59-0.88-2.66-1.18-3.83c-0.88-14.16-0.88-28.33,0-42.49c2.36-5.02,2.07-10.33,3.25-15.64c0.29-1.48,0.29-3.25,0-4.72 c-0.29-1.18-2.36-1.18-2.36-2.07c-0.59-2.95-0.29-5.61-0.29-8.56C426.78,98.35,427.66,95.7,426.19,94.22z" style="clip-path:url(#b);fill:#ec008c"/><path d="M454.4 132.2 448.6 137.9 455.2 140.6 454.4 132.2zM488.1 121.3c0 0 4-4 4-4 1.2-.7 2.9-1.1 4.1-2.1 2.1-1.6 3.6-3.6 4.7-5.9.3-.4 1.1-2.8 1.2-3.3 5.6-2.7 6.3-3.4 7.6-4.5.8-.7 1-.9 1.5-1.6 1-1.1 1.8-2.1 2.5-3.2 0 0-2.2-5.5-2.2-5.5-.3.5-.2.4-.5.8-.5 1-1.2 1.9-1.7 2.8-.8 1.3-1.3 2.1-2.4 3.2-1.7 1.8-3.6 3.4-5.5 5.1-.6.4-.9.6-1.4.8-.1.8-.4 1.5-.6 2.3-.3 1.3-.8 2.2-1.2 3.3-1.4 1.9-3 3.7-5.4 4.8-1.4.7-1.9.7-2.7 1C490 115.2 488.1 121.3 488.1 121.3L488.1 121.3zM448.9 82.6 452.8 80.6 456.3 84.5 455.8 93.9 462.3 99.6 461.6 110.3 469.9 118.6 470.1 128.9 466.7 119.3 458.6 111.9 458 100.6 451.8 96.1 451.1 85.6 448.9 82.6z" style="clip-path:url(#b);fill:#f287b7;stroke:#f287b7;stroke-width:.3766"/><g style="clip-path:url(#b)"><path d="M440,167.98c-0.1,0.35-0.23,0.72-0.31,1.05c-0.12,0.43-0.2,0.66-0.35,1.01c-0.64-0.21-1.33-0.45-1.92-0.68 c-0.24,0.43-0.86,1.48-1.11,1.9l1.84,1.16c-0.13,0.45-0.3,0.8-0.45,1.25c-0.75-0.11-1.44-0.21-2.19-0.31 c-0.09,0.22-0.19,0.43-0.28,0.69c-0.18,0.3-0.34,0.63-0.48,0.94c0.53,0.35,1.13,0.67,1.69,1.02c-0.24,0.5-0.42,1.05-0.71,1.51 l-2.15-0.49c-0.24,0.64-0.48,1.28-0.73,1.91l1.94,1.29c-0.93,3.69-2.44,7.44-3.6,10.05c0.69,0.26,1.54,0.61,2.26,0.85 c0.22-0.47,3.78-8.32,4.08-8.55l-0.4,6.58c1.71,1.79,4.05,4.16,5.8,5.13c0.83,0.17,1.91,0.58,2.75,0.5 c0.96-0.09,1.54-0.25,2.17-0.71c0.75-0.56,1.28-1,1.96-1.66c0.34-0.28,0.55-0.44,0.87-0.76c0.42-0.36,0.74-0.73,1.05-1.14 c0.06-0.05,0.13-0.13,0.19-0.21c0.21-0.29,0.23-0.33,0.46-0.64c0.17-0.24,0.26-0.35,0.41-0.73c0.21-0.36,0.28-0.53,0.49-1.01 c0.07-0.16,0.13-0.34,0.2-0.54c0.12-0.32,5.52-13.39,5.17-13.83c0.04-0.34-0.21-1.2-0.41-1.51c-0.15-0.3-0.62-1.03-0.88-1.37 c-0.31-0.35-0.59-0.76-0.99-1.06c-0.34-0.26-0.73-0.5-1.22-0.74c-1.1-0.42-1.8-0.59-2.96-0.75c-0.76-0.12-1.96-0.2-2.69-0.16 c-0.21,0.14-0.39,0.25-0.56,0.41c-0.57,0.55-1.02,1.07-1.53,1.63c-0.24,0.31-0.5,0.66-0.73,1.06c-0.26,0.42-0.44,0.69-0.73,1.06 c-0.11,0.27-0.22,0.42-0.33,0.65c-0.15,0.25-0.22,0.47-0.38,0.71c-0.29,0.61-0.43,0.89-0.69,1.42c-0.18,0.5-0.41,0.97-0.59,1.47 c-0.19,0.5-0.41,0.97-0.58,1.45c-0.32,0.79-0.62,1.71-0.9,2.61c-0.08,0.17-0.18,0.46-0.21,0.61c-0.18,0.52-0.24,0.79-0.36,1.22 c-0.09,0.38-0.19,0.83-0.27,1.12c-0.12,0.52-0.21,1-0.31,1.5c0.14,0.34,0.29,0.61,0.48,0.86c0.24,0.38,0.4,0.62,0.6,0.93 c0.37,0.49,0.68,1.05,1.38,1.29c1.73,0.22,3.41,0.09,5.11,0.22h0.16c0.27-0.41,0.36-0.75,0.53-1.09 c0.12-0.24,0.22-0.53,0.32-0.77c0.12-0.29,0.34-0.94,0.42-1.17c0.23-0.7,0.24-0.8,0.47-1.59c0-0.02-0.02,0,0,0l0.16-0.55 c0.07-0.22,0.15-0.47,0.2-0.68c0.11-0.33,0.3-1.13,0.36-1.42c0.07-0.31,0.09-0.6,0.09-0.88c0-0.55,0.01-1.11-0.04-1.67 c-0.01-0.38-0.06-0.78-0.08-1.24c-0.02-0.37-0.07-0.75-0.12-1.16c-0.05-0.42-0.1-0.82-0.18-1.32c-0.04-0.2-0.04-0.4-0.1-0.67 c0.01-0.11-0.05-0.28-0.12-0.43c-0.37-0.03-0.74,0.04-1.2,0.09c-0.37,0.04-0.77,0.15-1.07,0.22c-0.14,0.11-0.25,0.16-0.35,0.35 c-0.1,0.1-0.12,0.25-0.19,0.4c-0.19,0.43-0.41,0.87-0.59,1.29c-0.41,0.88-0.69,1.61-1.03,2.57c0.35-0.05,0.78-0.15,1.03-0.25 c0.35-0.4,0.67-0.75,1.06-1.09c0.3-0.3,0.54-0.5,0.82-0.71c0.06,0.23,0.09,0.35,0.15,0.65c0.07,0.29,0.08,0.5,0.11,0.8 c0.06,0.34,0.05,0.81,0.01,1.13c-0.06,0.53-0.11,1.1-0.22,1.66c-0.08,0.35-0.14,0.59-0.19,0.8c-0.05,0.17-0.08,0.32-0.13,0.48 c-0.24,0.76-0.45,1.34-0.69,1.95c-0.16,0.42-0.37,0.82-0.51,1.18c-0.16,0.34-0.26,0.54-0.45,0.64c-0.77-0.05-2.53-0.59-3.16-1.1 c-0.13-0.15-0.04,0.24,0,0c0-0.45,0.22-2.04,0.25-2.47c0.12-0.81,0.37-1.77,0.58-2.44c0.12-0.43,0.32-1.07,0.48-1.5 c0.12-0.31,0.23-0.83,0.38-1.09c0.14-0.41,0.22-0.51,0.38-0.89c0.13-0.36,0.29-0.72,0.44-1.03c0.23-0.46,0.31-0.61,0.54-0.98 c0.29-0.48,0.45-0.66,0.83-1.22c0.16-0.21,0.43-0.57,0.58-0.79c0.27-0.39,0.46-0.59,0.68-0.88c0.21-0.26,0.44-0.46,0.65-0.7 c0.08-0.11,0.14-0.21,0.31-0.33c0.4-0.18,1.17-0.1,1.66-0.01c0.81,0.25,1.48,0.55,2.1,0.99c0.22,0.12,0.9,0.55,1.1,0.78 c0.51,0.51,0.52,0.65,0.69,1.25c0.03,0.18,0.04,0.23,0.05,0.4c-0.04,0.18-0.05,0.22-0.11,0.36c-0.12,0.5-0.27,0.87-0.41,1.37 c-0.15,0.46-0.33,1.02-0.52,1.46c-0.09,0.35-0.18,0.5-0.31,0.83c-0.08,0.19-0.19,0.49-0.26,0.66c-0.24,0.6-0.47,1.19-0.69,1.8 c-0.29,0.81-0.57,1.52-0.88,2.27c-0.2,0.46-0.89,2.24-1.03,2.56c-0.08,0.2-0.13,0.34-0.21,0.59c-0.08,0.28-0.19,0.52-0.31,0.75 c-0.19,0.49-0.36,0.92-0.61,1.4c-0.34,0.43-0.62,0.91-0.94,1.28c-0.43,0.49-0.72,0.81-1.15,1.16c-0.47,0.44-0.63,0.56-1.12,0.92 c-0.29,0.24-0.52,0.38-0.81,0.46c-0.68,0.36-1.9,0.21-2.52,0.12c-1.36-0.18-2.26-1.11-2.97-1.96c-0.48-0.57-0.86-0.91-1.19-1.64 c-0.04-0.15-0.12-0.71-0.15-0.91c-0.04-0.31-0.05-0.57-0.09-0.95c-0.04-0.26-0.05-0.52-0.07-0.79 c-0.04-0.34-0.04-0.59-0.03-1.03c-0.01-0.43-0.02-0.88,0-1.3c0.02-0.52,0.09-0.93,0.14-1.43c0.07-0.37,0.25-1.08,0.35-1.55 c0.05-0.12,0.09-0.27,0.13-0.44c0.16-0.48,0.34-1.1,0.54-1.58c0.29-0.69,0.53-1.27,0.83-1.94c0.15-0.32,0.19-0.44,0.36-0.74 c0.15-0.25,0.26-0.51,0.39-0.74c0.37-0.65,0.68-1.2,1.08-1.92c0.21-0.42,0.62-1.16,0.87-1.6c0.25-0.42,0.48-0.75,0.73-1.19 c0.16-0.21,0.32-0.52,0.5-0.77c0.15-0.25,0.33-0.52,0.56-0.83c0.39-0.56,0.67-1.02,1.08-1.58c0.19-0.26,0.42-0.58,0.64-0.94 c0.23-0.27,0.41-0.51,0.66-0.8c0.28-0.41,0.6-0.66,0.88-0.95c0.59-0.41,1.15-0.79,1.78-1.12c0.29-0.18,0.58-0.3,0.97-0.49 c1.22-0.58,2.41-1.32,3.71-1.86c0.57-0.24,0.39-0.16,1.76-0.67l3.19,0.7l1.44-1.97l-19.49-9.65c-1.3-0.7-2.68-1.45-4.02-2.19 c-0.56-0.34-1.26-0.77-1.82-1.16c-0.18,1.14-0.36,2.27-0.51,3.27c1.29,1.28,2.61,2.5,3.93,3.75c0.24,0.67,0.47,1.28,0.66,1.97 c0.13,0.59,0.12,0.96,0.2,1.52c0.02,0.37,0.08,0.9,0.08,1.2c0,0.38,0.04,0.8,0.02,1.07c0.02,0.16-0.02,0.67-0.03,0.85 c0.01,0.22,0.04,0.43,0.04,0.58c0,0.36-0.02,0.75-0.03,1.1c-0.02,0.55-0.05,1-0.11,1.51c-0.1,0.58-0.18,1.15-0.28,1.73 c-0.17,0.73-0.53,2.23-0.67,2.84C440.2,167.33,440.06,167.76,440,167.98L440,167.98z" class="st4" style="fill:#f287b7;stroke:#f287b7;stroke-miterlimit:3.9939;stroke-width:.3766px"/><path d="M434.7 166.7 433.3 170.4 436.5 169.7 434.7 166.7zM431.2 174.9 434.1 174.2 433.3 171.2 431.2 174.9zM430.1 175.2 432.5 177.5 428.9 179.3 430.1 175.2z" class="st4" style="fill:#f287b7;stroke:#f287b7;stroke-miterlimit:3.9939;stroke-width:.3766px"/></g><path d="M506.3 141.6 510.5 142.8 510.3 148.1 503.5 154.5 504.3 163.1 496.4 170.4 496.7 182.2 489.7 189.7 493.9 180.5 493.1 169.5 500.4 160.9 499 153.4 505.8 145.2 506.3 141.6zM442.2 105.8 436.4 111.5 443 114.1 442.2 105.8zM480.2 152.4 474.4 158.2 481 160.8 480.2 152.4z" style="clip-path:url(#b);fill:#f287b7;stroke:#f287b7;stroke-width:.3766"/><clipPath id="c"><path d="M426.39,16.55c3.87-0.89,8.04,0,11.9-0.89 c7.44-1.19,14.29-0.89,21.73,0.3c3.57,0.59,6.84,2.08,10.42,2.68c2.38,0.3,4.46,0,6.84-0.89c3.87-0.89,7.74,0,11.61-0.3 c0.89-0.3,1.79-0.89,2.68-1.19c1.19-0.3,2.08,0,3.27,0c3.87-0.6,7.74-1.79,11.61-0.89c1.79,0.3,3.27,0.6,5.06,0.6 c0,1.49-0.3,3.27,0,4.76c0.6,2.08,2.68,3.87,2.08,5.06c-2.38,3.87-0.89,3.2,1.49,7.66c2.68,5.06-4.17,12.2-1.19,17.26 c0,6.55-2.38,12.2-2.68,18.75c-0.3,3.27,1.19,7.44,0.89,10.71c-0.3,4.17,2.08,8.63,1.19,12.8c0,0.89-1.49,3.57-1.49,4.46 c-1.79-0.3-1.49,0.97-3.27,1.56c-5.06,1.49-10.12,0-15.18,0.6c-10.12,0.6-20.24,0.3-30.36-0.3c-1.19,0-2.68-0.89-4.17-1.19 c-1.79-0.3-3.57-0.3-5.36-0.3c-6.55-0.6-13.09-0.6-19.64,1.19c-1.49,0.6-2.98,0.89-4.17,0.3s-0.89-2.68-1.19-3.87 c-0.89-14.29-0.89-28.57,0-42.86c2.38-5.06,2.08-10.42,3.27-15.77c0.3-1.49,0.3-3.27,0-4.76c-0.3-1.19-2.38-1.19-2.38-2.08 c-0.59-2.98-0.3-5.65-0.3-8.63C426.99,20.72,427.88,18.04,426.39,16.55z" style="overflow:visible"/></clipPath><path d="M426.35,16.32 c3.87-0.89,8.04,0,11.9-0.89c7.44-1.19,14.28-0.89,21.72,0.3c3.57,0.6,6.84,2.08,10.42,2.68c2.38,0.3,4.46,0,6.84-0.89 c3.87-0.89,7.74,0,11.61-0.3c0.89-0.3,1.79-0.89,2.68-1.19c1.19-0.3,2.08,0,3.27,0c3.87-0.6,7.74-1.79,11.61-0.89 c1.79,0.3,3.27,0.59,5.06,0.59c0,1.49-0.3,3.27,0,4.76c0.6,2.08,2.68,3.87,2.08,5.06c-2.38,3.87-0.89,3.2,1.49,7.66 c2.68,5.06-4.17,12.2-1.19,17.26c0,6.55-2.38,12.2-2.68,18.75c-0.3,3.27,1.19,7.44,0.89,10.71c-0.3,4.17,2.08,8.63,1.19,12.8 c0,0.89-1.49,3.57-1.49,4.46c-1.79-0.3-1.49,0.97-3.27,1.56c-5.06,1.49-10.12,0-15.18,0.6c-10.12,0.6-20.24,0.3-30.36-0.3 c-1.19,0-2.68-0.89-4.17-1.19c-1.79-0.3-3.57-0.3-5.36-0.3c-6.55-0.59-13.09-0.59-19.64,1.19c-1.49,0.6-2.98,0.89-4.17,0.3 c-1.19-0.6-0.89-2.68-1.19-3.87c-0.89-14.28-0.89-28.57,0-42.85c2.38-5.06,2.08-10.42,3.27-15.77c0.3-1.49,0.3-3.27,0-4.76 c-0.3-1.19-2.38-1.19-2.38-2.08c-0.59-2.98-0.3-5.65-0.3-8.63C426.94,20.49,427.84,17.81,426.35,16.32z" style="clip-path:url(#c);fill:#8ac651"/><path d="M427.4 80.2c2.2-.7 5.5-2 7.4-3.9.7-.7 1.2-1.2 1.2-2.9-.1-.9-.4-2.4-1.4-3.5-.4-.6-.9-1.2-1.6-1.8-1-1-1.8-1.6-3.3-2.7-.8-.8-1.9-1.4-2.7-2.2-.5-.4-.9-.8-1.3-1.2-1.1-1-1.7-1.8-2.5-3-.4-.7-.7-1.1-1-1.7-.2-.5-.5-1.1-.8-1.8-.3-.8-.5-1.7-.7-2.5-.1-.4-.2-1.3-.2-1.8-.1-1.7.1-2.4.5-3.7.2-.6.6-1.4 1-2-1.1-2-2.7-5.3-3.8-7.4l7.1-2.7c.5 1.1 1.3 3.1 1.7 4.1 2.6-1.3 5.7-2.3 9.1-2.6 1 2.2 2.5 5.1 3.4 7.1-1-.1-2 0-3.1.3-1.2.3-1.8.6-3 1.3-.4.2-.7.4-1.2.8-.8.7-1.6 1.4-2 2.3-.4.6-.5 1.3-.6 1.9-.4 2.1 1.7 3.8 3 5.2 1.8 1.5 3.2 2.7 5 4 1.3 1 2.4 1.9 3.6 2.9.5.5 1.8 1.6 2.1 2.3.9 1.1 1.3 1.6 1.7 2.4.5.9 1 1.8 1.3 3.1.4 1.3.5 2 .3 3.5-.1 1.3-.7 2-1.3 2.5 1.3 2.6 2.8 5 4 7.6-2.4.5-4.9 1-7.2 1.6l-1.6-3c-1.5 1.4-4.5 2.6-6.3 3.1-1.2.4-2.6.7-3.2.7C429.7 84.4 428.5 82.1 427.4 80.2L427.4 80.2zM438.8 22.3 435.3 28.2 445.1 29.7 438.8 22.3zM485 90.4c2.2-.6 5.6-1.9 7.5-3.7.7-.7 1.2-1.1 1.2-2.9 0-.9-.3-2.4-1.3-3.5-.4-.6-.9-1.2-1.6-1.9-1-1-1.8-1.7-3.2-2.8-.7-.9-1.9-1.5-2.6-2.3-.5-.4-.9-.8-1.3-1.2-1.1-1-1.7-1.8-2.4-3.1-.4-.7-.7-1.1-.9-1.8-.2-.6-.5-1.1-.7-1.8-.2-.8-.5-1.7-.6-2.5-.1-.4-.2-1.3-.1-1.8-.1-1.7.1-2.4.6-3.7.2-.6.6-1.4 1-1.9-1-2-2.6-5.4-3.6-7.5l7.1-2.5c.4 1.1 1.2 3.1 1.5 4.1 2.7-1.2 5.8-2.1 9.2-2.3 1 2.2 2.4 5.2 3.2 7.2-1-.2-2-.1-3.1.2-1.2.3-1.9.6-3 1.2-.4.2-.7.4-1.2.8-.8.7-1.6 1.3-2.1 2.3-.4.6-.6 1.2-.6 1.9-.5 2 1.6 3.9 2.8 5.3 1.7 1.6 3.2 2.8 4.9 4.2 1.2 1 2.4 2 3.5 3 .5.5 1.8 1.7 2 2.4.9 1.1 1.2 1.6 1.6 2.5.5.9.9 1.8 1.2 3.1.3 1.3.4 2 .2 3.5-.1 1.3-.7 1.9-1.3 2.4 1.2 2.6 2.6 5 3.8 7.7-2.4.4-4.9.9-7.3 1.3l-1.5-3.1c-1.6 1.3-4.6 2.4-6.4 2.9-1.2.4-2.6.6-3.3.6C487.1 94.8 486 92.4 485 90.4L485 90.4zM497.6 23.9 494.1 29.8 503.8 31.3 497.6 23.9zM453.3 23.1c1.8 1.4 4.8 3.4 7.4 3.9 1 .2 1.6.3 3-.7.7-.6 1.7-1.7 2.1-3.1.3-.7.5-1.4.6-2.4.3-1.4.4-2.4.4-4.2.3-1.1.1-2.4.4-3.5.1-.6.2-1.2.2-1.7.2-1.5.5-2.4 1.1-3.8.4-.8.5-1.2.9-1.8.3-.5.6-1 1.1-1.7.5-.7 1.1-1.4 1.7-1.9.2-.3 1-.9 1.4-1.2 1.4-1.1 2-1.3 3.3-1.7.6-.2 1.5-.3 2.2-.3 1-2 2.8-5.2 4-7.3l6.2 4.3c-.6 1-1.8 2.8-2.4 3.7 2.6 1.5 5.1 3.4 7.3 6.1-1.2 2.1-2.8 5-4 6.8-.5-.9-1.1-1.6-2-2.4-.9-.8-1.5-1.2-2.7-1.8-.4-.2-.7-.3-1.3-.5-1-.3-2-.5-3.1-.4-.7 0-1.3.3-1.9.6-1.9.8-2.2 3.6-2.6 5.4-.2 2.3-.4 4.2-.5 6.4-.1 1.6-.2 3.1-.4 4.6-.1.7-.3 2.4-.7 3-.4 1.4-.6 1.9-1.1 2.8-.4 1-.9 1.8-1.8 2.8-.9 1-1.4 1.5-2.7 2.3-1.2.7-2 .5-2.7.3-1.4 2.5-2.5 5.1-4 7.6-1.8-1.7-3.6-3.5-5.3-5.1l1.6-3c-2-.5-4.7-2.3-6.1-3.5-1-.8-2-1.8-2.4-2.3C451 27.4 452.3 25.1 453.3 23.1L453.3 23.1zM462.2 65.6 458.6 71.5 468.4 73 462.2 65.6z" style="clip-path:url(#c);fill:#7dc242;stroke:#7dc242;stroke-width:.3799"/><clipPath id="d"><path d="M505.6,14.59c3.82-0.88,7.94,0,11.77-0.88 c7.35-1.18,14.12-0.88,21.47,0.29c3.53,0.59,6.76,2.06,10.29,2.65c2.35,0.29,4.41,0,6.76-0.88c3.82-0.88,7.65,0,11.47-0.29 c0.88-0.29,1.76-0.88,2.65-1.18c1.18-0.29,2.06,0,3.24,0c3.82-0.59,7.65-1.77,11.47-0.88c1.76,0.29,3.24,0.59,5,0.59 c0,1.47-0.29,3.24,0,4.71c0.59,2.06,2.65,3.82,2.06,5c-2.35,3.82-6.18,7.35-3.82,11.77c2.65,5,4.12,10.29,7.06,15.29 c0,6.47,0.29,12.65,0,19.12c-0.29,3.24-2.06,6.18-2.35,9.41c-0.29,4.12,0.59,8.53-0.29,12.65c0,0.88-0.59,5.59-0.59,6.47 c-1.76-0.29-6.18-3.24-7.94-2.65c-5,1.47-7.06,0.29-12.06,0.88c-10,0.59-13.53,4.41-23.53,3.82c-1.18,0-10-3.82-11.47-4.12 c-1.76-0.29-7.94,0-9.71,0c-6.47-0.59-7.65-2.06-14.12-0.29c-1.47,0.59-2.06,1.47-3.24,0.88c-1.18-0.59,0-3.24-0.29-4.41 c-0.55-8.75-2.91-8.71-1.69-28.16c2.35-5,0.59-13.24,1.76-18.53c0.29-1.47,1.69-14.49,1.4-15.96c-0.29-1.18-2.35-1.18-2.35-2.06 c-0.59-2.94-0.29-5.59-0.29-8.53C506.19,18.71,507.08,16.06,505.6,14.59z" style="overflow:visible"/></clipPath><path d="M505.42,14.78 c3.82-0.88,7.94,0,11.76-0.88c7.35-1.18,14.12-0.88,21.47,0.29c3.53,0.59,6.76,2.06,10.29,2.65c2.35,0.29,4.41,0,6.77-0.88 c3.82-0.88,7.65,0,11.47-0.29c0.88-0.29,1.77-0.88,2.65-1.18c1.18-0.29,2.06,0,3.23,0c3.82-0.59,7.65-1.77,11.47-0.88 c1.76,0.29,3.24,0.59,5,0.59c0,1.47-0.29,3.24,0,4.71c0.59,2.06,2.65,3.82,2.06,5c-2.35,3.82-6.18,7.35-3.82,11.77 c2.65,5,4.12,10.29,7.06,15.29c0,6.47,0.29,12.65,0,19.12c-0.29,3.24-2.06,6.18-2.35,9.41c-0.29,4.12,0.59,8.53-0.29,12.65 c0,0.88-0.59,5.59-0.59,6.47c-1.76-0.29-6.18-3.24-7.94-2.65c-5,1.47-7.06,0.29-12.06,0.88c-10,0.59-13.53,4.41-23.53,3.82 c-1.18,0-10-3.82-11.47-4.12c-1.76-0.29-7.94,0-9.71,0c-6.47-0.59-7.65-2.06-14.12-0.29c-1.47,0.59-2.06,1.47-3.24,0.88 c-1.18-0.59,0-3.24-0.29-4.41c-0.55-8.75-2.91-8.71-1.69-28.16c2.35-5,0.59-13.24,1.76-18.53c0.29-1.47,1.69-14.49,1.4-15.96 c-0.29-1.18-2.35-1.18-2.35-2.06c-0.59-2.94-0.29-5.59-0.29-8.53C506.01,18.89,506.89,16.25,505.42,14.78z" style="clip-path:url(#d);fill:#363e99"/><path d="M579.3 31c2.6-3.6 1.2-7.5.9-8.4-.4-1-.7-1.6-1.5-2.8-.4-.6-1-1.2-1.6-1.7-.6-.5-.9-.9-1.5-1.4-.8-.7-1.7-1.5-2.5-2.2 0 0-.4-.3-.7-.6-.4-.4-.9-.7-1.2-1.1-.4-.5-.8-.9-.9-1.6-.2-.6-.1-1.3-.1-1.6h0c0-1.6.9-2.6 1.8-3.3.3-.1.3-.2.7-.4 1.4-.6 2.6-.4 3.9-.2.4.1.9.2 1.3.3-.7-2.3-1.7-4.4-2.4-6.7-2.5.1-5.6.7-8 2.2-.2-1-.5-2.1-.8-3l-5.7 1c.9 2.1 1.8 4.1 2.7 6.1-1.6 2.1-1.6 3.7-1.6 3.7 0 1.1 0 1.4.5 2.9.2.6.5 1.4.8 2 .8 1.3 1.5 2.5 2.5 3.6.5.6.9 1 1.4 1.5 1.8 1.6 3.8 3.4 4.9 5.1.7 1 .6 1.9.6 2.6 0 .3.1.8-.1 1-.3 1.4-2 2.7-4.4 2.6-.8 0-1.3 0-2.2 0 .3 1 .4 2 .6 3 .2.8.4 1.7.5 2.1 2.1.6 4.9.2 7.1-.4.3 1.1.5 2.1.8 3 2.2-.3 4.4-.6 6.5-1C580.9 35.3 580 33 579.3 31L579.3 31zM564.5 42.7 565.5 48.4 559.2 52.4 558.2 64.6 549.1 70.8 547.3 80.4 537.9 87.3 545.1 76.2 546.1 68.4 554.5 63.1 554.8 53 564.5 42.7zM543.5 38.5l-1-7 5.3-7.4-.9-9.6-4-3.4 1.5 10.6-4 10.5c0 0 1.3 3.8 1.5 5.3.1 1.2-.7 5.3-.7 5.3S543.5 38.5 543.5 38.5L543.5 38.5z" style="clip-path:url(#d);fill:#7b78b9;stroke:#7b78b9;stroke-width:.3754"/><g style="clip-path:url(#d)"><path d="M590.71,85.92c-0.26-0.3-0.53-0.63-0.78-0.89c-0.32-0.36-0.5-0.56-0.72-0.9c0.56-0.47,1.18-0.97,1.74-1.37 c-0.26-0.46-0.86-1.65-1.11-2.12l-2.14,1.02c-0.34-0.38-0.56-0.74-0.89-1.14c0.53-0.63,1.02-1.2,1.55-1.84 c-0.15-0.21-0.29-0.42-0.47-0.66c-0.18-0.34-0.38-0.68-0.59-0.98c-0.63,0.28-1.28,0.65-1.92,0.97c-0.33-0.51-0.72-1-0.98-1.53 l1.69-1.7c-0.46-0.59-0.9-1.18-1.34-1.78l-2.31,1.04c-2.86-2.99-5.44-6.54-7.17-9.13c-0.64,0.48-1.46,1.06-2.09,1.59 c0.31,0.48,5.47,8.29,5.51,8.7l-5.82-4.17c-2.64,0.54-6.17,1.32-8.08,2.37c-0.64,0.66-1.64,1.42-2.05,2.24 c-0.48,0.93-0.66,1.56-0.6,2.41c0.08,1.01,0.19,1.76,0.39,2.77c0.06,0.47,0.09,0.76,0.2,1.24c0.09,0.59,0.25,1.1,0.45,1.63 c0.01,0.08,0.04,0.2,0.08,0.29c0.15,0.36,0.17,0.4,0.33,0.79c0.12,0.3,0.17,0.44,0.43,0.8c0.21,0.39,0.33,0.57,0.64,1.03 c0.11,0.16,0.24,0.32,0.38,0.5c0.22,0.3,9.13,12.82,9.74,12.75c0.29,0.24,1.22,0.5,1.63,0.5c0.36,0.04,1.31,0.03,1.77-0.02 c0.5-0.08,1.04-0.11,1.54-0.29c0.44-0.16,0.89-0.38,1.39-0.7c1.02-0.78,1.59-1.32,2.4-2.29c0.55-0.63,1.31-1.69,1.7-2.38 c-0.01-0.27,0-0.5-0.05-0.75c-0.17-0.84-0.39-1.55-0.62-2.35c-0.14-0.4-0.32-0.84-0.56-1.28c-0.23-0.48-0.38-0.8-0.56-1.28 c-0.19-0.26-0.26-0.45-0.41-0.68c-0.14-0.29-0.3-0.48-0.43-0.75c-0.4-0.62-0.57-0.91-0.91-1.46c-0.35-0.46-0.66-0.93-1.01-1.4 c-0.35-0.46-0.66-0.94-1-1.37c-0.55-0.75-1.22-1.56-1.88-2.33c-0.11-0.17-0.31-0.43-0.43-0.55c-0.37-0.46-0.59-0.68-0.92-1.03 c-0.3-0.3-0.65-0.65-0.87-0.89c-0.41-0.41-0.8-0.77-1.21-1.16c-0.4-0.07-0.73-0.08-1.07-0.06c-0.49,0-0.8,0.01-1.2,0.02 c-0.67,0.06-1.36,0.02-1.99,0.53c-1.21,1.47-2.05,3.09-3.16,4.58l-0.09,0.15c0.23,0.49,0.48,0.76,0.7,1.12 c0.15,0.25,0.36,0.51,0.53,0.74c0.2,0.28,0.67,0.85,0.83,1.06c0.51,0.62,0.6,0.68,1.2,1.35c0.01,0.01,0.01-0.01,0,0l0.41,0.47 c0.16,0.19,0.35,0.41,0.51,0.58c0.24,0.29,0.86,0.93,1.1,1.15c0.24,0.24,0.5,0.43,0.76,0.59c0.51,0.32,1.02,0.65,1.56,0.93 c0.36,0.21,0.75,0.4,1.19,0.64c0.35,0.2,0.73,0.36,1.14,0.56c0.42,0.2,0.81,0.38,1.32,0.59c0.21,0.08,0.4,0.2,0.68,0.3 c0.1,0.07,0.29,0.12,0.46,0.14c0.24-0.33,0.39-0.7,0.61-1.16c0.18-0.36,0.31-0.79,0.41-1.11c-0.02-0.2,0-0.33-0.12-0.52 c-0.03-0.15-0.16-0.26-0.26-0.41c-0.29-0.43-0.56-0.88-0.85-1.29c-0.57-0.88-1.08-1.56-1.77-2.44c-0.15,0.35-0.31,0.8-0.37,1.09 c0.16,0.56,0.3,1.05,0.4,1.61c0.1,0.46,0.14,0.79,0.18,1.17c-0.25-0.08-0.38-0.12-0.69-0.24c-0.31-0.11-0.51-0.22-0.8-0.36 c-0.35-0.15-0.77-0.42-1.05-0.64c-0.45-0.36-0.94-0.74-1.4-1.16c-0.27-0.27-0.46-0.47-0.63-0.63c-0.13-0.14-0.25-0.26-0.36-0.4 c-0.57-0.66-0.98-1.19-1.4-1.76c-0.29-0.39-0.54-0.81-0.79-1.15c-0.23-0.35-0.34-0.55-0.33-0.79c0.5-0.68,2-1.99,2.84-2.27 c0.21-0.04-0.2-0.18,0,0c0.42,0.26,1.75,1.38,2.13,1.66c0.68,0.57,1.41,1.36,1.91,1.95c0.33,0.36,0.8,0.92,1.1,1.31 c0.22,0.29,0.63,0.69,0.78,0.98c0.3,0.37,0.34,0.5,0.6,0.86c0.26,0.33,0.5,0.69,0.7,1c0.28,0.48,0.38,0.64,0.59,1.07 c0.27,0.55,0.35,0.79,0.64,1.47c0.1,0.26,0.28,0.73,0.39,0.99c0.2,0.48,0.28,0.76,0.42,1.14c0.12,0.34,0.17,0.67,0.27,1 c0.06,0.13,0.12,0.25,0.12,0.48c-0.07,0.47-0.59,1.14-0.95,1.54c-0.7,0.61-1.36,1.04-2.12,1.37c-0.24,0.13-1.03,0.51-1.36,0.56 c-0.76,0.17-0.9,0.1-1.55-0.09c-0.18-0.07-0.23-0.09-0.39-0.19c-0.14-0.14-0.17-0.17-0.27-0.31c-0.38-0.4-0.65-0.75-1.02-1.17 c-0.34-0.4-0.75-0.9-1.05-1.32c-0.27-0.28-0.36-0.46-0.58-0.77c-0.13-0.18-0.34-0.46-0.46-0.62c-0.41-0.57-0.83-1.12-1.26-1.68 c-0.58-0.74-1.07-1.4-1.58-2.12c-0.3-0.45-1.54-2.12-1.76-2.42c-0.14-0.19-0.24-0.32-0.42-0.53c-0.21-0.23-0.37-0.48-0.51-0.72 c-0.35-0.46-0.64-0.86-0.94-1.38c-0.2-0.56-0.48-1.09-0.63-1.61c-0.2-0.68-0.33-1.13-0.41-1.73c-0.14-0.69-0.15-0.9-0.2-1.56 c-0.05-0.41-0.05-0.7,0.04-1.02c0.06-0.83,0.91-1.87,1.34-2.39c0.95-1.15,2.33-1.44,3.52-1.6c0.8-0.11,1.34-0.27,2.2-0.15 c0.16,0.06,0.73,0.3,0.92,0.39c0.31,0.15,0.56,0.28,0.93,0.47c0.26,0.12,0.51,0.25,0.77,0.39c0.33,0.16,0.57,0.3,0.97,0.57 c0.4,0.24,0.82,0.49,1.2,0.75c0.47,0.32,0.8,0.62,1.24,0.95c0.3,0.28,0.85,0.86,1.22,1.22c0.08,0.12,0.19,0.23,0.33,0.37 c0.35,0.43,0.82,0.95,1.14,1.42c0.47,0.66,0.87,1.23,1.3,1.89c0.21,0.32,0.3,0.43,0.47,0.76c0.14,0.28,0.32,0.54,0.46,0.79 c0.39,0.72,0.71,1.32,1.14,2.1c0.27,0.44,0.71,1.24,0.97,1.73c0.24,0.47,0.41,0.87,0.67,1.36c0.1,0.27,0.3,0.6,0.41,0.91 c0.14,0.28,0.29,0.6,0.44,0.99c0.29,0.68,0.55,1.2,0.84,1.9c0.13,0.32,0.3,0.72,0.49,1.13c0.12,0.37,0.23,0.68,0.35,1.07 c0.22,0.49,0.26,0.93,0.36,1.36c0.04,0.78,0.06,1.51,0,2.29c0,0.37-0.05,0.71-0.11,1.17c-0.17,1.45-0.18,2.98-0.43,4.49 c-0.11,0.66-0.08,0.45-0.4,2.01l-2.48,2.53l0.98,2.46l20.15-12.36c1.4-0.8,2.89-1.63,4.34-2.43c0.63-0.32,1.44-0.71,2.12-1.01 c-0.95-0.83-1.88-1.64-2.71-2.36c-1.93,0.45-3.82,0.96-5.72,1.45c-0.76-0.17-1.45-0.3-2.19-0.54c-0.62-0.22-0.95-0.44-1.52-0.7 c-0.35-0.19-0.87-0.45-1.15-0.62c-0.35-0.23-0.76-0.43-1-0.6c-0.16-0.07-0.61-0.41-0.77-0.51c-0.2-0.12-0.42-0.22-0.56-0.3 c-0.33-0.21-0.68-0.45-1-0.67c-0.49-0.34-0.9-0.62-1.33-0.97c-0.48-0.43-0.96-0.83-1.43-1.26c-0.57-0.58-1.75-1.78-2.23-2.26 C591.2,86.48,590.88,86.1,590.71,85.92L590.71,85.92z" class="st10" style="fill:#7b78b9;stroke:#7b78b9;stroke-miterlimit:3.9939;stroke-width:.3754px"/><path d="M595 81.8 592.4 78.3 591.1 81.7 595 81.8zM589.5 73.8 588.5 76.9 591.7 77.9 589.5 73.8zM589.8 72.7 586.3 73.5 586.7 69.2 589.8 72.7zM574.4 64.2 572.8 65.7 568.7 65.3 568.2 64.4 574.8 59.8 575.4 60.4 574.4 64.2z" class="st10" style="fill:#7b78b9;stroke:#7b78b9;stroke-miterlimit:3.9939;stroke-width:.3754px"/></g><clipPath id="e"><path d="M507.89,93.56c6.21-1.43,7.37-0.18,9.18-0.6 c7.46-1.19,14.33-0.9,21.79,0.3c3.58,0.6,6.87,2.09,10.45,2.69c2.39,0.3,4.48,0,6.87-0.9c3.88-0.9,7.76,0,11.64-0.3 c0.9-0.3,1.79-0.9,2.69-1.19c1.19-0.3,2.09,0,3.28,0c3.88-0.6,7.76-1.79,11.64-0.9c1.79,0.3,5.05,0.94,6.84,0.94 c0,1.49-0.62,2.64-0.32,4.13c0.6,2.09,1.24,4.18,0.64,5.38c-2.39,3.88-6.27,7.46-3.88,11.94c2.69,5.07,4.18,10.45,7.16,15.52 c0,6.57,0.3,12.84,0,19.4c-0.3,3.28-2.09,6.27-2.39,9.55c-0.3,4.18,0.6,8.66-0.3,12.84c0,0.9-0.3,2.09-0.3,2.99 c-1.79-0.3-3.58,0.6-5.37,1.19c-5.08,1.49-10.15,0-15.22,0.6c-10.15,0.6-20.3,0.3-30.45-0.3c-1.19,0-2.69-0.9-4.18-1.19 c-1.79-0.3-3.58-0.3-5.37-0.3c-6.57-0.6-13.13-0.6-19.7,1.19c-1.49,0.6-2.98,0.9-4.18,0.3c-1.19-0.6-0.89-2.69-1.19-3.88 c-0.9-14.33,0.37-2.69,1.27-17.02c1.49-5.97-3.28-19.11-2.09-24.48c0.3-1.49,4.4-20.6,4.1-22.09c-0.3-1.19-0.82-3.88-0.82-4.78 c-0.6-2.98-1.87-2.98-1.87-5.97C505.73,98.04,509.38,95.05,507.89,93.56z" style="overflow:visible"/></clipPath><path d="M507.89,93.56 c6.21-1.43,7.37-0.18,9.18-0.6c7.46-1.19,14.33-0.9,21.79,0.3c3.58,0.6,6.87,2.09,10.45,2.69c2.39,0.3,4.48,0,6.87-0.9 c3.88-0.9,7.76,0,11.64-0.3c0.9-0.3,1.79-0.9,2.69-1.19c1.19-0.3,2.09,0,3.28,0c3.88-0.6,7.76-1.79,11.64-0.9 c1.79,0.3,4.97,0.82,6.76,0.82c0,1.49-0.39,3.06-0.09,4.56c0.6,2.09,1.09,3.88,0.5,5.08c-2.39,3.88-6.27,7.46-3.88,11.94 c2.69,5.07,4.18,10.45,7.16,15.52c0,6.57,0.3,12.84,0,19.4c-0.3,3.28-2.09,6.27-2.39,9.55c-0.3,4.18,0.6,8.66-0.3,12.84 c0,0.9-0.3,2.09-0.3,2.99c-1.79-0.3-3.58,0.6-5.37,1.19c-5.08,1.49-10.15,0-15.22,0.6c-10.15,0.6-20.3,0.3-30.45-0.3 c-1.19,0-2.69-0.9-4.18-1.19c-1.79-0.3-3.58-0.3-5.37-0.3c-6.57-0.6-13.13-0.6-19.7,1.19c-1.49,0.6-2.98,0.9-4.18,0.3 c-1.19-0.6-0.89-2.69-1.19-3.88c-0.9-14.33,0.37-2.69,1.27-17.02c1.49-5.97-3.28-19.11-2.09-24.48c0.3-1.49,4.4-20.6,4.1-22.09 c-0.3-1.19-0.82-3.88-0.82-4.78c-0.6-2.98-1.87-2.98-1.87-5.97C505.73,98.04,509.38,95.05,507.89,93.56z" style="clip-path:url(#e);fill:#ffe387"/><path d="M559.3 107.7c-2.8.5-6.2 2.5-7 3-1.7 1.5-3 2.8-4.2 4.4-.2.3-.3.5-.4.8-.8 1.7-1.8 4.7-1.4 7-3.2.1-10.7 4.2-10 3.7.8-.5 3-4 6.7-7.1.6-3.7 1.5-4.9 2.6-7.1.3-.4.6-.8 1.2-1.4.5-.6 1-1.2 1.8-1.9.5-.3.8-.6 1.3-1 1.3-1 2.3-1.5 3.9-2.4.5-.3 1.4-.6 1.8-.8.3-2.1 2.1-7.1 3.8-9 2 .3 4.3.7 5.9.8M582 111.9c.1-.9 0-2.4-.2-3.6-.1-1.1-.2-2-.5-3.2-.1-.9-.2-1.9-.2-3-.1-.3-.1-.6-.1-1.1 0-.5 0-.9-.1-1.6-.1-.8.1-1.5.2-2.3.3-1 .3-1.5.6-2.4.2-.3.3-.7.6-1.1.3-.6.8-1.3 1.3-1.9.5-.5.7-.8 1.2-1.3 1.4-1.4 2.9-2.1 4.6-2.8l1.8-6.2c2.6.8 5.3 1.6 7.8 2.3-.7 1.2-1.6 2.7-2.3 3.9 2.1 0 4.6.7 6.1 1.8 1.2.9 1.9 1.5 2.7 2.6-1 2.4-2.1 4.7-3.2 7-1.7-2-4.9-3.9-8.1-3-1.9.8-3.2 2.1-3.7 3.9-.1.6-.2.8-.3 1.3-.1 1-.2 2.1-.3 3 .1 1.6.2 3 .4 4.6.1.5.1.8.2 1.1.1 1.1.2 2 .2 3.4 0 1.4-.1 3.3-.5 4.7-.2 1.3-.7 2.3-1.3 3.3-1.7 1.9-2.5 2.7-7.7 4.8-.7 1.9-1.3 3.6-2 5.3l-8.3-.8c.8-1.6 1.5-3.2 2.2-4.9-5.6-2.9-6.6-4.5-7.2-5.5 1-2.1 2.3-4.6 3.3-6.7.5.4.9.6 1.5.9 2.4 1.3 5.3 3.1 8.5 2 1.1-.6 2.3-1.5 2.7-2.7C581.9 113.1 582 112.6 582 111.9L582 111.9zM564.4 158.4c2.2-.6 3.9-.8 4.3-.8-.6-1.7-1.5-4.1-2.2-5.8-.6 0-2.5-.1-3.2 0-1.6.2-3.3.9-4.5 1.8-.7-1.2-1.4-2.5-2.1-3.8-1.7 1.8-3.2 3.6-4.8 5.4.8 1.2 1.8 2.6 2.5 3.6-.4.9-.8 1.8-1.1 2.8-.2 1-.1 1.9-.2 2.8.1 1 .3 1.5.6 2.6.6 1.2 1.4 2.4 2.2 3.3.7.8 1.2 1.2 2.5 1.8.5.3.9.4 1.4.7 1.9.8 4.3 2.5 5.7 4.2 1.4 1.8.7 4.7-.6 6.9-.6 1-1.5 1.7-2.3 2.1-.8.5-1.2.5-1.9.8.6 1.5 1.7 4.3 2.2 5.6 2.6-.7 5.4-2 8.1-4.3.7 1.3 1.3 2.6 1.9 4 1.4-2.1 2.9-4.2 4.2-6.3l-2-3.5c1.4-1.9.6-4.6-.6-7.4-.3-.6-1.5-2.1-2-2.6-.7-.8-1.2-1.1-2.6-1.8-1.2-.7-2.7-1.4-4-2.1-.4-.2-.7-.5-1.2-.8-.5-.4-.7-.6-1.2-1-.6-.4-1.1-1.1-1.3-1.5-.4-.9-1-2-.6-3.3.2-1 .8-1.6 1.4-2.3C563.3 159.1 564 158.6 564.4 158.4L564.4 158.4zM576.8 139 580.7 146 572.4 147.8 576.8 139zM533.9 148 538 149.5 537.5 154.8 530.2 160.9 530.6 169.6 522.1 176.4 521.7 188.4 514.1 195.6 518.9 186.5 518.8 175.3 526.8 167.1 525.8 159.4 533.2 151.6 533.9 148zM585.6 161.2 589.5 168.2 581.2 169.9 585.6 161.2z" style="clip-path:url(#e);fill:#ffd520;stroke:#ffd520;stroke-width:.3811"/><path d="M570.15,108.56v29.64h-17.98v30.83H516.2V138.2h-72.33v-24.7l57.51-93.47h50.79v88.53H570.15z M516.2,51.25 h-0.39l-34.78,57.31h35.17V51.25z" class="st13" style="fill:#fff;stroke:#000;stroke-width:2px"/></g></svg>