<svg xmlns="http://www.w3.org/2000/svg" id="b" viewBox="0 0 435.7 147.3"><defs><style>.d{fill:#fff}.h{fill:#3abca8;stroke:#3abca8}.i,.j{fill:#363e99}.l{stroke:#fcb131}.h,.j,.l{stroke-width:.2395px}.l,.m{fill:#fcb131}.j{stroke:#363e99}</style></defs><g id="c"><path d="m395.9 146.2 19.6-13 17.1-20.1v33.1h-36.7z" style="fill:#00acd4;stroke:#00acd4;stroke-miterlimit:3.8637;stroke-width:.37425px"/><path d="M378.9 146.2 366.3 125l-29.7-16.3-1.1-.1v37.6h43.4z" style="fill:#3abca8;stroke:#3abca8;stroke-miterlimit:3.8637;stroke-width:.37425px"/><path d="M400.7 114.3 393.4 9.9 352.2.2l-16.6.1-.1 108.4 65.2 5.6z" style="fill:#ef3e33"/><path d="m404.9 87.3-.1-85.2L432.6.3v87h-27.7z" style="stroke:#363e99;fill:#363e99;stroke-miterlimit:3.8637;stroke-width:.37425px"/><path d="m339.5 22.5-4 5.6 10.1 2.8-6.1-8.4zM348.1 48.6l2.1-9.8-7.9 3.4 5.8 6.4zM334.9 47.9v7l6-3.7-6-3.3zM334.9 83.4v5.5l6.3 1.7-5.5-7.9-.8.7z" class="l"/><path d="m337.8 109.1-.4.5" class="m"/><path d="m337.4 109.6-.8 1.4-1.7 1.4v3.4l3.5-2 1.6-3.1" class="j"/><path d="m340 110.7.4-.8" class="m"/><path d="m340.4 109.9 2.3-4.4 1.3-4.5-2.5-3.5-2.4 9.6-1.3 2" class="l"/><path d="m335.8 135.3 7.4-5.3-1.1 9.3-6.3-4z" class="j"/><path d="m410.2 141.2-.3 2.3-3 1.6.7-2.8 2.6-1.1zM418.8 141.9l11.6-6.9-6.2-3.4-5.4 10.3z" class="l"/><path d="m411.7 47.7 4.2-5.6 5.5 7.9-9.7-2.3zM418.6 61.7l7.7-3.4-2 9.6-5.7-6.2z" class="h"/><path d="m359.4 80.7 7-4.9-1.2 8.8-5.8-3.9zM369.3 97.9l4.2-5.7 5.4 8-9.6-2.3zM355.3 71l3.1-2.1.5-7 7.4-4.1 2.7-11.2-2.6-3.7-2.6 11-7.3 7.5-.1 5.9-1.1 3.7z" class="l"/><path d="M361 146a15 15 0 0 1-2.2-6.6l1-3.2s-4.8-8.3-5.4 0c-.3 5.4.7 8.6 1.4 9.9h5.3Z" class="j"/><path d="M430 146c-1-1.7-1.2-7.1-1.2-7.1s-6 4.6-5.9 4.9c0 .2 1 1.6 1.4 2.3h5.8Z" class="l"/><path d="M422.4 18.5s1.2 7 4.5 9.2c0 0-4.8 9.6 4.3 18.2 0 0-2.4 7.8-1.7 10.4 0 0-2.3-3.7-2.3-8.3 0 0-9-8.9-4.9-19.5l-3.2-4 3.3-6Z" class="h"/><path d="m378.6 111.7 1.2-4.6 2.3 3.4v1.7l-3.5-.5zM339.4.3s6.2 8.2 6.7 8.6c0 0-3 7.2 1 13.4l3.8-14s-4.8-4.8-4.4-8h-7.1Z" class="l"/><path d="M355.8 146.1h5.3" class="j"/><path d="M424.3 146.1h5.8M341.9 55.4a26 26 0 0 0-6 4.7s3.6 6.3 6.1 8.8c-1 2.9-1.3 5.7-.8 8.6.4 2 1.1 4 2 5.8 1.1 2.1 3.8 5 3.8 5.1 0 3 .5 5.7 2.3 8 0-4.8.6-7 1.6-10.2-4.8-5-7.4-11.4-4.3-17.5-.8-1.8-4.9-5-4.7-13.2v-.1ZM379.8 78.5s-4.1 9.4 5 19.6c0 0 .4 6.2 2.3 8.3 0 0 0-7.4 1.8-10.3 0 0-5.8-6-5.9-11.2 0-4.4 1-6.2 2.1-6.7l-5.3.3Z" class="l"/><path d="m352.2.1 80.5-.1-26.2 53s21.5 8.2 27.7 32.3c7.7 30-15.2 61.4-45.4 62-17 .3-43.6-5.6-53.3-38.6l30.2-15.1c4.6 12.9 9.8 18.4 18.7 18 9.3-.4 13.5-9.7 12.8-18.3-.7-9.6-9.7-17.4-20.1-12l-11.1-13 15.4-31.7h-38.8L352.2.1Z" class="d"/><path d="M0 146.1h336V0H0v146.1z" class="i"/><path d="M7.3 135.3v-125h49c28 0 40.6 21.9 40.6 44.1 0 24.6-9.9 46.1-45.2 48h-9.5v33H7.3Z" class="d"/><path d="M42.4 67.9h9c7.3 0 11.3-5.6 11.3-13 0-6.4-4-12.7-11.3-12.7h-9V68Z" class="i"/><path d="M231.4 135.3V9.6h34.5v38h.3l32.7-41.8 23.2 23.8-24.7 31.7 31.8 53.7-29.1 23.3-33.9-57.5h-.3v54.5h-34.5zM133.4 10.2v125.4H99.7V10.2h33.7zM229.8 116.5a50.3 50.3 0 0 1-39.4 23.4C162.6 141.2 137 113.6 137 76c0-34.6 18-71 55.7-68.7 13.7.8 29 11.7 36.7 25.4l-19.2 28.1c0 .2-5.2-11-15-12.8-8.5-1.6-22.2 2.5-22.9 25-.3 9.2 5 25.4 21 25.3 8.3 0 12.3-5.7 17.9-10.8l18.6 29Z" class="d"/></g></svg>