<svg xmlns="http://www.w3.org/2000/svg" id="b" viewBox="0 0 527.6 226.9"><defs><style>.i{fill:#231f20}</style></defs><g id="c"><path d="M0 7.8h117.8v208.5H0z" style="fill:#ed1c24"/><path d="M112.5 24.4h65.7v199.9h-65.7z" style="fill:#f9ed32"/><path d="M173.4 0h100.4v187.9H173.4z" style="fill:#1c75bc"/><path d="M271.2 18.4H389v208.5H271.2z" style="fill:#009444"/><path d="M409.8 5.6h117.8v208.5H409.8z" style="fill:#662d91"/><path d="m119.8 82 .2 3.2.2 3.8c0 13.5-4 24.9-11.7 34.2A36.3 36.3 0 0 1 95 133.5c-4.8 2-11.1 3-19 3h-5.2V175l-38 2.7V42h47.6a61.4 61.4 0 0 1 8.7 1.3 37.6 37.6 0 0 1 21.4 12.8c5 6.2 8 14.8 9.3 25.8ZM87.7 92.1a19 19 0 0 0-.2-5.8 16 16 0 0 0-3.3-8c-1.5-1.8-3.9-2.8-7-3.2h-6.4v29h4c7.6 0 11.9-4 12.9-12ZM166.2 175l-38.1 2.7V43.4l38.1-2.7V175ZM265.2 134.5l-4.6 42.6a76.8 76.8 0 0 1-33 1.1 60.8 60.8 0 0 1-36.2-24c-9.1-12.5-13.6-27-13.6-43.7 0-5.2.4-10.5 1.4-15.9a73 73 0 0 1 20.2-39.5 54.4 54.4 0 0 1 39.4-15.8h5.8c2 0 4.4.2 7.2.6l4 .4 2.6.4 5.8 43.2c-.8-.6-1.6-1-2.5-1.5-1-.4-2-1-3.3-1.4a30 30 0 0 0-10.2-2c-8.7 0-15.5 2.1-20.4 6.3-4.9 4.2-8 10.4-9.3 18.7a36.2 36.2 0 0 0-.2 11.5c2.6 16.1 12.1 24.2 28.7 24.2a33 33 0 0 0 14.9-3.5l3.3-1.7ZM376.9 174.2l-42 4.2-21.2-68.5v65l-38.1 2.8V43.4l38.1-2.7v55.8L333.2 40 374 44l-24.8 59.1 27.6 71Z" class="i"/><path d="M510.7 139.1c-1.4 8.7-4.6 16-9.5 21.8a52.4 52.4 0 0 1-21.7 14.3c-6 2.4-12.9 3.6-20.8 3.6a82 82 0 0 1-26-4.1c-3.3-1-6.6-2.5-10-4.1l13.6-32.3 3.1 1 5 1.5 2.3.6c3 1 5.5 1.4 7.2 1.4h5.2c2.6 0 4.5-.2 5.6-.6 1.2-.4 2.7-1.1 4.4-2.3 4.2-2.5 6.3-5.5 6.3-9 0-2.7-1.3-5.5-4-8.4-1.5-1.6-3.5-3-6-4-2.6-1-5.7-1.5-9.5-1.5h-11.2l-3.3.7-5.3 1.1-1.1.5-1.5.4V42h73.9l-6.8 36.3h-36.4v9.6l1.5-.4h5l7 .6a38.8 38.8 0 0 1 33.8 41.4c0 2.8-.3 6-.8 9.6Z" style="fill:#fff"/></g></svg>