<svg xmlns="http://www.w3.org/2000/svg" id="b" viewBox="0 0 505.19 248.87"><defs><style>.d{fill:#ec1e24}.d,.e,.f{stroke-width:0}.e{fill:#173e67}.f{fill:#69b0e1}</style></defs><g id="c"><path d="M237.34 114.46H204.3v17.66h40.68v19.76h-67.2l.12-12.3V70.63l-.13-12.3h66.44v19.75h-39.91V94.7h33.03v19.76ZM338.71 151.88h-14.66l-1.66-10.73h-.26c-5.1 7.2-12.75 13.22-27.41 13.22-23.47 0-43.23-16.36-43.23-48.94 0-32.32 20.53-49.59 46.16-49.59 18.62 0 35.32 8.9 40.17 29.44l-24.61 4.58c-1.79-7.98-7.27-15.05-16.07-15.05-9.18 0-17.47 8.25-17.47 30.5 0 22.1 8.8 30.09 17.72 30.09 9.7 0 16.2-6.8 16.58-17.54h-16.7v-17h41.57l-.13 12.3v38.72ZM367.65 151.88h-23.97l32.13-93.55h27.55l31.24 93.55h-28.31l-4.98-18.06h-28.18l-5.48 18.06Zm11.1-36.5h17.6l-8.17-30.62h-.25l-9.18 30.62ZM.2 132V19.99L0 0h55.93L83.7 78.86h.41L111.45 0h55.93l-.2 19.98v112.03l.2 19.98h-42.47l.21-19.98V69.94l.41-14.46h-.41l-31.7 96.5H66.92l-31.7-96.5h-.4l.4 14.46V132l.21 19.98H0L.2 132ZM429.47 222.5c4.7-.52 9.37-.17 11.9 4.4 2.6 4.71.45 8.96-2.83 12.62-4.75 5.33-10.84 7.87-17.9 8.33-5.52.35-9-2.63-10.7-7.4-1.32-3.7.9-6.95 3.27-9.6 4.3-4.8 9.73-7.71 16.26-8.34Z" class="d"/><path d="M486.67 203.44c-7.5.81-11.85-4.77-9.26-11.87 2.39-6.54 9.89-11.57 16.25-10.9 5.1.53 8.02 4.29 7.31 9.4-.89 6.49-7.46 12.62-14.3 13.37Z" class="f"/><path d="M446.5 221.3c-1.23-.23-3.78-.3-6-1.18-4.23-1.67-5.8-6.54-3.77-10.5 3.46-6.74 13.01-10.26 20.03-7.37 4.41 1.8 6.16 5.93 4.16 10.28-2.57 5.56-7.46 7.73-14.42 8.77Z" class="d"/><path d="M493.89 177.44c-4.29.47-7.62-1-9.09-4-1.5-3.05-.6-7 2.33-9.99a12.84 12.84 0 0 1 10.5-3.94c5.85.42 8.92 6 6.26 11.27-1.87 3.7-5.58 6.18-10 6.66Z" class="f"/><path d="M465.03 199.42c-6.8.47-11.53-2.28-12.33-6.16-.79-3.84 2.62-8.34 7.91-9.46 2.7-.58 5.85-.53 8.46.3 5.67 1.82 6.82 8.15 2.23 11.95-2.15 1.78-5 2.7-6.27 3.37Z" class="d"/><path d="M423.2 199.09c5.33-.58 9.4 2.21 9.93 6.82.55 4.75-2.9 8.44-8.42 9-4.75.48-9.64-2.95-10.05-7.06-.43-4.26 3.42-8.2 8.53-8.76Z" class="e"/><path d="M496.82 156.55c-5.06.56-9.17-1.78-9.97-5.34-.83-3.65 1.71-7.33 6.17-8.92 3.73-1.33 7.24-.95 10.18 1.79 1.86 1.72 2.5 4 1.54 6.48-1.48 3.83-4.62 5.42-7.92 5.99Z" class="f"/><path d="M474.18 180.8c-4.05.09-7.86-.27-9.77-3.95-.82-1.6-.93-4.4-.05-5.88 2.11-3.57 5.88-4.32 9.85-3.74 1.04.15 2.1.49 3.04.95 2.43 1.21 4.2 2.97 4.17 5.94-.02 2.88-1.93 4.4-4.19 5.57-1.02.53-2.19.8-3.05 1.12Z" class="d"/><path d="M440.7 199.66c-4.69.57-8.51-2.06-8.98-6.19-.43-3.82 1.94-6.55 6.15-7.1 4.58-.6 8.67 2.06 9.22 6.01.53 3.87-1.99 6.74-6.4 7.28Z" class="e"/><path d="M495.56 138.8c-3.65.21-7.1-.3-8.84-3.59a6.63 6.63 0 0 1 .16-5.61c2-3.2 5.42-3.95 9.1-3.3 3.7.65 6.28 2.87 6.58 5.67.27 2.57-1.58 5.1-4.64 6.24-.8.3-1.66.43-2.36.6Z" class="f"/><path d="M475.43 152.43c3.17.39 5.38 1 7.53 2.5 1.25.86 2.15 3.38 1.9 4.94-.24 1.4-2.08 3.28-3.52 3.6-2.39.53-5.12.4-7.52-.22-2.75-.7-4.81-2.79-4.42-5.93.4-3.19 2.14-4.5 6.03-4.89Z" class="d"/><path d="M488.18 112.16c3.56 0 5.4.87 7.54 2.38 3.06 2.16 2.49 5.73-.78 7.6-3.03 1.73-8.44 1.4-10.89-1.11-1.11-1.15-2.08-3.21-1.88-4.68.42-3 2.25-4.2 6.01-4.2Z" class="f"/><path d="M452.15 185.24c-4.14.54-7.87-2.01-8.35-5.71-.42-3.24 1.41-5.45 4.9-5.9 3.68-.5 7.75 2.26 8.3 5.62.5 3.13-1.44 5.54-4.85 5.99Z" class="e"/><path d="M485.07 109.24c-4.3 0-6.92-2.49-7.79-2.76-3-2.02-2.48-5.74.99-6.6 2.6-.65 5.65-.23 8.34.38 2.23.51 4.43 2.4 3.63 4.9-.56 1.74-1.48 3.3-5.17 4.08Z" class="f"/><path d="M476.66 138.32c5.48 1.16 5.71 1.95 7.82 3.65 2.71 2.19 1.78 6.04-1.62 6.53-2.66.37-5.82.1-8.2-1.16-1.37-.74-2.92-3.34-2.63-4.76.33-1.6-.36-3.73 4.63-4.26Z" class="d"/><path d="M476.27 96.1c-4.27-.26-6.03-1.61-8.38-3.24-2.73-1.89-2-5.17 1.26-5.59 2.82-.36 5.95.11 8.65 1.05 1.4.49 3.2 2.99 2.95 4.21-.28 1.44-1.83 3.12-4.48 3.57Z" class="f"/><path d="M421.88 191.75c.45 3.1-2.16 6.67-5.18 7.12-2.56.38-5.06-1.57-5.5-4.29-.5-3.04 1.89-6.44 4.87-6.94 3.02-.5 5.38 1.16 5.81 4.11Z" class="d"/><path d="M459.33 171.42c-3.64.21-7.23-2.6-7.27-5.84-.03-2.85 1.76-3.96 4.34-4.12 3.75-.24 7.1 2.47 7.25 5.82.1 2.43-1.5 3.97-4.32 4.14Z" class="e"/><path d="M459.1 74.86c5.26.33 5.49 1 8.16 2.37.87.45 1.78 2.32 1.5 3.12-.37 1.02-1.98 2.27-2.95 2.27-3.32 0-6.07-.85-8.88-1.91-1.15-.43-2.6-2.68-2.31-3.62.37-1.24 1.9-2.03 4.49-2.23Z" class="f"/><path d="M479.7 135.66c-3.82-.65-5.2-1.81-7.16-3.44-2.4-1.99-1.36-5.47 1.74-5.67 2.5-.16 5.27.63 7.57 1.73 1.15.56 2.36 2.98 2.04 4.14-.37 1.34-.44 2.4-4.2 3.24Z" class="d"/><path d="M449.79 70.33c-3.08-.89-5.12-1.1-8.23-2.91-.9-.53-1.17-1.74-1.1-2.85.05-.68 2.7-1.46 3.63-1.3 3.3.57 4.92.74 8.07 1.88.88.33 2.01 2.24 1.74 2.94-.39 1.03-1.2 2.24-4.11 2.24ZM410.23 41.84c-2.14 2.27-6.41.9-10.69.22-1.76-.75-4.31-1.87-3.88-3.78.6-1.3 3.05-1.46 5.05-1.23 4 .46 9.26 2.27 9.52 4.8ZM430.3 57.25a23.75 23.75 0 0 1-8.55-3.44c-.63-.39-1.57-1.32-1.42-2 .13-.63 1.53-1.63 2.36-1.66 3.27-.09 7.04.76 10.33 3.09.92.65 2.3 1.7 2.03 2.29-.46 1-1.2 1.72-4.75 1.72Z" class="f"/><path d="M428.75 177.8c2.19-.29 4.78 1.63 5.16 3.82.42 2.45-1.87 5.6-4.3 5.93-2.37.32-4.47-1.48-4.8-4.1-.35-2.89 1.34-5.3 3.94-5.65ZM476.66 122.39c-3.87-.6-5.44-1.3-7.23-3.2-.61-.66-1.47-2.23-1.16-2.96.41-.95 1.96-2.02 2.81-2.03 3.63 0 4.23.61 7.62 2.47.77.43 1.44 2.27 1.2 3.23-.24.95-1.17 2.03-3.24 2.49Z" class="d"/><path d="M459.45 149.5c4.65-.85 7.64 1.8 8.01 4.76.3 2.3-.88 3.4-3 3.7-3.2.47-7.23-2.18-7.03-5.02.1-1.41.43-2.84 2.02-3.45Z" class="e"/><path d="M470.18 109.24a15.77 15.77 0 0 1-6.56-3.04c-2-1.57-1.2-4.05 1.3-3.94 2.51.1 5.05 1.17 7.4 2.22.76.34 1.46 2.07 1.25 2.93-.2.83-.98 1.84-3.39 1.84ZM440.1 175.68c-2.76.2-4.35-1.13-4.62-3.55-.24-2.12.44-4.08 2.99-4.54a4.03 4.03 0 0 1 4.7 3.67c.15 2.3-.91 3.87-3.08 4.42Z" class="d"/><path d="M466.75 144.85c-3.6.32-6.45-2-6.68-4.36-.2-2.04.97-2.91 2.84-3.06 2.55-.2 6.27 2.36 6.1 4.57-.1 1.24-.64 2.47-2.26 2.85Z" class="e"/><path d="M461.94 97.14a18.52 18.52 0 0 1-6.56-3.5c-.47-.38-.84-1.65-.6-2.28.24-.61 1.43-1.34 1.97-1.27 3.1.44 4.95 1.41 7.35 2.78.57.33 1.08 1.8.85 2.5-.22.68-.59 1.77-3 1.77ZM450.95 84.06c-2.4-.85-4.4-1.57-6.54-3.11-1.47-1.07-.9-2.97 1-2.7 2.6.37 4.75 1.69 7.22 2.7.49.2 1.38 1.25 1.2 1.7-.26.65-.22 1.54-2.88 1.4Z" class="d"/><path d="M467 132.17c-3.3.39-6.75-1.87-6.63-3.97.05-.86 1.32-2.13 2.24-2.36 2.3-.56 5.84 1.97 5.75 4.04-.05.95-1.09 1.86-1.37 2.3Z" class="e"/><path d="M436.61 71.35c-2.17-1.15-3.94-2.02-6.17-3.32-.38-.22-.68-1.2-.5-1.6.2-.45 1.09-.92 1.5-.85 3.16.48 4.62 1.12 7.33 2.69.41.23.81 1.37.63 1.9-.16.5-.5 1.52-2.79 1.18Z" class="d"/><path d="M464.25 119.67c-2.7.23-5.9-1.82-5.83-3.56.04-.8 1.19-2.04 2.01-2.21 1.92-.4 5.42 2.36 5.18 3.98-.11.79-1.1 1.45-1.36 1.79Z" class="e"/><ellipse cx="408.37" cy="217.07" class="e" rx="6.47" ry="7.6" transform="rotate(-79 408.37 217.07)"/><path d="M448.34 159.83c.61 1.46-.21 3.54-1.63 4.14-1.2.5-2.68-.13-3.24-1.4-.62-1.43.11-3.4 1.5-4.02 1.42-.63 2.79-.1 3.37 1.28ZM450.34 150.97c1.04-.42 2.55.2 3.01 1.22.52 1.14-.2 2.97-1.36 3.44-1.11.46-2.37-.16-2.86-1.4-.54-1.36-.02-2.76 1.21-3.26ZM455.42 147.26c-1.32.44-2.27 0-2.7-1.15-.4-1.01-.31-2.06.88-2.6 1.08-.5 2.4.06 2.77 1.2.36 1.1.04 2-.95 2.55Z" class="d"/><path d="M460.56 110.1c-2.7.25-5.9-1.8-5.82-3.54.03-.8 1.18-2.05 2-2.22 1.93-.4 5.42 2.36 5.2 3.98-.12.79-1.1 1.45-1.37 1.79ZM.17 177.1l-.11-10.54h37.37c14.87 0 31.37 4.48 31.37 20.07 0 13.68-12.68 18.39-16.18 18.73v.45c3.28.22 18.47 3.8 18.47 20.18 0 15.7-13.88 20.75-27.86 20.75H.06l.1-10.55v-59.1Zm22.62 21.53h12.02c6.78 0 11.58-2.24 11.58-8.41 0-5.72-3.93-7.96-10.92-7.96H22.79v16.37Zm0 15.02v17.5h14.2c7.22 0 10.5-2.92 10.5-8.41 0-7.18-5.69-9.09-12.57-9.09H22.79ZM103.44 177.1v40.82c0 8.74 4.59 13 12.57 13 7.53 0 11.8-4.26 11.8-12.9V177.1l-.11-10.54h20.54l-.1 10.54v41.26c0 8.08-2.08 16.26-8.1 22.2-5.56 5.61-14.2 8.3-25.02 8.3-11.69 0-20.98-3.02-26.55-8.4-6.67-6.5-7.65-15.37-7.65-25.68V177.1l-.11-10.54h22.84l-.11 10.54ZM231.95 221.73c-1.97 9.75-12.24 27.14-35.62 27.14-20.88 0-38.25-14.13-38.25-41.38 0-26.02 16.06-43.06 39.01-43.06 21.42 0 31.15 14.57 34.1 27.7l-21.1 2.8c-1.74-7.07-5.79-14.24-13.55-14.24-7.86 0-13.98 7.85-13.98 25.79 0 20.97 7.54 26.13 14.64 26.13 7.54 0 12.68-6.17 14.2-15.37l20.55 4.49ZM240.8 236.2v-59.1l-.1-10.54h22.83l-.1 10.54v21.08h.21l23.93-31.62h25.25v.22l-23.28 28.15 25.25 51.58v.22h-25.14l-14.86-33.75h-.22l-11.15 13.57v9.64l.11 10.54H240.7l.11-10.54ZM372.6 189.32c-5.47-4.93-11.48-9.08-21.1-9.08-6.78 0-12.24 2.46-12.24 7.51 0 6.73 9.95 6.84 19.56 8.63 14.98 2.8 27.65 9.09 27.65 24.67 0 15.93-13.11 27.82-35.08 27.82-16.6 0-29.18-6.62-36.83-14.7l11.7-11.88c6.34 5.94 13.66 10.77 24.8 10.77 6.78 0 12.9-2.25 12.9-7.74 0-7.4-11.26-7.74-21.1-9.65-13.98-2.69-26-8.3-26-23.77 0-15.59 12.35-27.47 32.9-27.47 15.18 0 27.64 6.39 34.53 12.9l-11.7 12Z" class="e"/></g></svg>