<svg xmlns="http://www.w3.org/2000/svg" fill="none" viewBox="0 0 94 63"><path fill="#173E67" d="m14.09 15.73-.29-6.06 3.65 11.13h3.64l3.63-11.11-.29 6.06v5.05h5.46V.27h-6.76l-3.86 12.56L15.39.27H8.65V20.8h5.44v-5.07ZM40.49.27 33.25 20.8h5.82l1.1-3.66h5.55l1.1 3.66h5.85L45.38.27h-4.9Zm1.04 12.28 1.4-4.75 1.43 4.75h-2.83ZM77.26 20.18c1.3.59 2.75.89 4.33.89 2.26 0 4.07-.53 5.38-1.56a5.33 5.33 0 0 0 2.04-4.41c0-2.32-1.1-4.15-3.27-5.45-.86-.52-1.97-1-3.3-1.45a9.28 9.28 0 0 1-2.6-1.2c-.4-.31-.6-.64-.6-.99 0-.43.17-.76.53-1.04.4-.31.95-.47 1.65-.47.71 0 1.22.18 1.61.54.38.35.56.85.56 1.51v.47H89v-.47c0-1.28-.32-2.44-.96-3.44A6.3 6.3 0 0 0 85.35.8a10.28 10.28 0 0 0-7.74-.07 6.38 6.38 0 0 0-2.77 2.08c-.67.91-1 1.98-1 3.16 0 2.37 1.3 4.24 3.9 5.56.77.4 1.76.8 2.96 1.22 1.13.4 1.91.77 2.34 1.13.36.3.53.7.53 1.24 0 .47-.14.8-.47 1.05-.35.27-.86.41-1.5.41-1.06 0-1.81-.2-2.25-.62-.42-.4-.63-1.07-.63-1.98v-.47h-5.46v.47c0 1.38.34 2.62 1.02 3.68a6.78 6.78 0 0 0 2.98 2.52Z"/><path fill="#BABCBE" d="M11.48 33.14c1.28 0 2.23.29 2.82.85.58.56.9 1.53.94 2.9l.01.6h7.07l-.05-.67c-.26-3-1.36-5.39-3.27-7.1-1.9-1.72-4.43-2.59-7.52-2.59-2.16 0-4.1.55-5.74 1.62a10.37 10.37 0 0 0-3.82 4.58 16.59 16.59 0 0 0-1.3 6.79v1.25c0 4.1.98 7.33 2.91 9.61 1.95 2.3 4.65 3.47 8.01 3.47 2.03 0 3.86-.4 5.44-1.18a9.02 9.02 0 0 0 3.77-3.36 10.2 10.2 0 0 0 1.47-4.99l.02-.63h-7.02l-.02.59c-.04 1.26-.35 2.17-.94 2.72-.6.56-1.52.84-2.72.84-1.38 0-2.32-.47-2.87-1.44-.6-1.07-.9-2.92-.9-5.5v-1.8c.03-2.37.36-4.1.98-5.14.58-.96 1.47-1.42 2.73-1.42Z"/><path fill="#173E67" d="m59.17 17.05.42.03a3.01 3.01 0 0 1 2.03 1.25 2.97 2.97 0 0 1 2.27-.63 3.13 3.13 0 0 1 2.63 2.91 6.73 6.73 0 0 0 2.17-1.1 5.33 5.33 0 0 0 2.05-4.41c0-2.32-1.1-4.15-3.28-5.45-.86-.52-1.97-1-3.3-1.45a9.28 9.28 0 0 1-2.6-1.2c-.4-.31-.6-.64-.6-.99 0-.43.18-.76.54-1.04.38-.31.94-.47 1.64-.47.71 0 1.22.18 1.61.54.38.35.56.85.56 1.51v.47h5.43v-.47c0-1.28-.33-2.44-.97-3.44A6.3 6.3 0 0 0 67.07.8a10.29 10.29 0 0 0-7.74-.07 6.39 6.39 0 0 0-2.77 2.08c-.67.91-1 1.98-1 3.16 0 2.37 1.31 4.24 3.9 5.56.77.4 1.77.8 2.96 1.22 1.13.4 1.91.77 2.34 1.13.36.3.54.7.54 1.24 0 .47-.15.8-.48 1.05-.35.27-.86.41-1.5.41-1.06 0-1.81-.2-2.25-.62-.42-.4-.63-1.07-.63-1.98v-.47h-5.45v.47c0 1.38.34 2.62 1 3.68.2.3.4.57.64.83a3.03 3.03 0 0 1 2.54-1.44Z"/><path fill="#BABCBE" d="m43.05 44.12.24-1.84.46.07-5.27-14.85h-6.34l-9.38 26.6h7.55l1.4-4.74h7.21l1.43 4.74h5.34c-2.24-2.56-3.17-5.97-2.64-9.99Zm-9.57-.7 1.83-6.15 1.84 6.15h-3.67ZM86.44 27.5v10.08h-7.5V27.5h-7.05v1.4c1.6 2.44 2.2 5.54 1.73 9.15l-.25 1.83-1.48-.21v3.7a9.36 9.36 0 0 1 .98 5.64c-.16 1.27-.5 2.43-.98 3.5v1.6h7.05V43.5h7.5v10.6h7.02V27.5h-7.02Z"/><path fill="#F8D44E" d="M68.06 41.6c-1.17-.89-3.34-1.75-5.71-2.59l.98-7.35c1.63 1 1.83 2.69 1.56 5.13l6.96 1c.78-5.84-1.62-10.31-7.7-12.29l.59-4.47c.1-.72-.4-1.4-1.09-1.5-.7-.1-1.34.42-1.44 1.14l-.56 4.2-1.02-.15-.75-.1.55-4.2c.1-.73-.39-1.4-1.08-1.5-.7-.1-1.35.4-1.44 1.13l-.6 4.47c-6.08.17-10.34 3.58-10.98 8.44a7.88 7.88 0 0 0 2.34 6.73c1.17 1.21 3.87 2.43 6.2 3.26l-.99 7.4c-1.9-1.05-2.01-2.77-1.77-4.94l-7.3-1.05c-.67 5.09 1.24 10.04 8.26 12.1l-.58 4.41c-.1.73.39 1.4 1.08 1.5.7.1 1.35-.41 1.44-1.14l.56-4.2.8.12.98.14-.56 4.2c-.1.73.4 1.4 1.09 1.5.7.1 1.34-.41 1.44-1.14l.6-4.46c6.96-.05 10.54-3.72 11.2-8.64a7.48 7.48 0 0 0-3.05-7.15ZM55.7 36.68c-.23-.09-.45-.23-.63-.31-.84-.5-1.08-1.59-.9-2.89.18-1.4.75-2.48 2.33-2.85l-.8 6.05Zm2.44 14.67c-.34 0-.71-.05-1.09-.1l-.7-.1.98-7.35 1.73.58-.92 6.97Zm1.75-13.24c-.59-.2-1.18-.4-1.74-.53l.94-7.08.9.13.88.13-.98 7.35Zm.83 13.17.8-6 .58.25c1.04.48 1.23 1.55 1.07 2.74-.2 1.51-.73 2.65-2.45 3Z"/></svg>