<svg xmlns="http://www.w3.org/2000/svg" fill="none" viewBox="0 0 134 54"><path fill="#173E67" d="M22.176 0h8.196l-.047 4.442v24.902l.047 4.442h-7.09L9.513 14.834h-.093l.093 2.977V29.34l.046 4.442H1.364l.047-4.442V4.442L1.364 0h8.47l12.384 16.965h.093l-.093-2.977V4.442L22.172 0h.004Z"/><path fill="#69B1E2" d="M38.347 5.249v6.24l.016 1.248h-3.066l.015-1.248v-6.24h-2.834V3.242h8.703V5.25h-2.834ZM48.639 12.737l.015-1.248V8.914h-3.27v2.575l.015 1.248h-3.05l.015-1.248V4.49l-.015-1.249h3.05l-.016 1.249v2.416h3.271V4.491l-.015-1.249h3.05l-.015 1.249v6.998l.015 1.248h-3.05ZM60.497 8.94h-3.781v1.795h4.658v2.006h-7.693l.015-1.248V4.49l-.015-1.249h7.608V5.25h-4.57v1.685h3.782v2.007h-.004ZM86.037 52.272h-2.378l-.27-1.74h-.043c-.827 1.168-2.068 2.142-4.446 2.142-3.804 0-7.01-2.652-7.01-7.937s3.33-8.042 7.485-8.042c3.02 0 5.726 1.442 6.511 4.775l-3.99.742c-.29-1.295-1.179-2.44-2.606-2.44-1.426 0-2.834 1.338-2.834 4.946 0 3.607 1.427 4.879 2.873 4.879 1.57 0 2.625-1.102 2.687-2.842H79.31v-2.76h6.738l-.019 1.995v6.282h.008ZM90.73 52.272h-3.885l5.211-15.17h4.466l5.064 15.17h-4.589l-.808-2.926h-4.57l-.889 2.926Zm1.798-5.923h2.853l-1.322-4.964h-.043l-1.488 4.964ZM102.846 50.277v-11.18l-.019-1.995h5.583l2.772 7.871h.042l2.73-7.871h5.583l-.02 1.995v11.18l.02 1.995h-4.238l.02-1.995V44.08l.042-1.442h-.042l-3.163 9.634h-2.644l-3.163-9.634h-.042l.042 1.442v6.197l.02 1.995h-3.538l.019-1.995h-.004ZM131.997 46.202h-5.354v2.865h6.595v3.205h-10.894l.019-1.995v-11.18l-.019-1.995h10.771v3.205h-6.472V43h5.354v3.205-.004Z"/><path fill="#173E67" d="M37.234 18.473v8.652c0 1.852.974 2.757 2.664 2.757 1.6 0 2.501-.905 2.501-2.734v-8.675l-.023-2.235h4.357l-.023 2.235v8.745c0 1.713-.44 3.445-1.713 4.705-1.183 1.187-3.011 1.76-5.304 1.76-2.478 0-4.45-.643-5.629-1.783-1.415-1.38-1.62-3.255-1.62-5.444V18.47l-.023-2.235h4.844l-.023 2.235-.008.004ZM49.533 30.995V18.47l-.023-2.235h6.255l3.105 8.819h.046l3.058-8.819h6.256l-.024 2.235v12.526l.023 2.235h-4.751l.023-2.235v-6.94l.047-1.616H63.5l-3.545 10.79h-2.965l-3.546-10.79H53.4l.046 1.616v6.94l.024 2.235h-3.963l.023-2.235h.004ZM71.403 18.469l-.023-2.235h7.925c3.151 0 6.65.951 6.65 4.253 0 2.9-2.687 3.897-3.43 3.97v.097c.697.047 3.917.808 3.917 4.28 0 3.472-2.942 4.396-5.907 4.396h-9.151l.023-2.235V18.47h-.004Zm4.798 4.566h2.548c1.434 0 2.455-.476 2.455-1.782 0-1.21-.835-1.69-2.316-1.69H76.2v3.472Zm0 3.182v3.707h3.012c1.527 0 2.223-.618 2.223-1.782 0-1.52-1.207-1.925-2.664-1.925H76.2ZM99.437 26.433h-6v3.21h7.391v3.587H88.619l.023-2.235V18.47l-.023-2.235h12.07v3.588h-7.253v3.02h6v3.591ZM112.318 33.226l-2.363-6.51h-2.107v4.28l.024 2.234h-4.841l.023-2.235V18.47l-.023-2.235h8.019c3.058 0 6.348 1.021 6.348 5.088 0 2.401-1.206 3.897-2.919 4.682l3.197 7.18v.046h-5.351l-.007-.004Zm-4.473-9.936h2.524c1.206 0 2.223-.476 2.223-1.805 0-1.427-1.02-1.83-2.362-1.83h-2.385v3.639-.004ZM131.057 21.058c-1.16-1.047-2.432-1.925-4.473-1.925-1.435 0-2.594.522-2.594 1.593 0 1.427 2.107 1.45 4.148 1.829 3.174.595 5.861 1.925 5.861 5.227 0 3.301-2.78 5.896-7.438 5.896-3.523 0-6.186-1.404-7.81-3.113l2.478-2.52c1.346 1.26 2.896 2.28 5.262 2.28 1.434 0 2.733-.475 2.733-1.639 0-1.57-2.385-1.639-4.473-2.045-2.965-.572-5.513-1.759-5.513-5.037 0-3.279 2.617-5.823 6.975-5.823 3.22 0 5.861 1.353 7.322 2.734l-2.478 2.543Z"/><path fill="#F9D54E" d="M6.893 53.177a6.893 6.893 0 1 0 0-13.786 6.893 6.893 0 0 0 0 13.786ZM24.62 53.177a6.893 6.893 0 1 0 0-13.786 6.893 6.893 0 0 0 0 13.786ZM42.345 53.177a6.893 6.893 0 1 0 0-13.786 6.893 6.893 0 0 0 0 13.786ZM60.076 53.177a6.893 6.893 0 1 0 0-13.786 6.893 6.893 0 0 0 0 13.786Z"/></svg>