<svg viewBox="413 189 902.3 464.2" xmlns="http://www.w3.org/2000/svg"><path fill="#0C2577" d="M888.9 556.7c-1.9 0-3.7-.1-5.6-.1H415.6c-.9 0-1.8-.2-2.6.2V276.1c.5-.5 1.2-.6 1.9-.6H981c1.4 0 2.8-.2 4.1.2.7.3.7 1 .6 1.6-1.4 8.9-3.7 17.4-8.9 24.9-4.2 6-10.3 8.5-17.3 9.3-9.7 1.2-19.4.2-28.9-1.6-7.5-1.4-14.9-3.2-22.3-5.3-.8-.2-1.7-.4-2.1-1.4-.5-2.8-.2-5.6-.2-8.4-.1-3 0-6 0-9 0-2.5-.1-2.7-2.6-2.7h-26.6c-9 0-18 .1-27-.1-1.7.1-3.2-.9-4.7-1.5-2.5-1-2.5-1-4.1 1-.2.2-.4.3-.6.4-1.4.3-2.7.2-4.1.2H423.6c-3.6 0-3.6 0-3.6 3.5v78.1c0 2.3 0 2.3 2.2 2.4h479.4c4.9 0 4.4.4 4.5-4.4.1-3.2-.2-6.5.2-9.7.7-1.4 1.3-.5 1.8.1 1.1 1.3 1.9 2.8 2.7 4.3 3.2 5.8 6.1 11.6 7.1 18.2 1.5 9.8-2.9 19-11.5 23.6-.7.4-1.5 1.2-2.2 0-.5-3.4-.1-6.7-.2-10.1V385c0-2.2-.2-2.4-2.3-2.4h-27.1c-2.4 0-2.5.1-2.4 2.5.1 8.2 0 16.4 0 24.5 0 .8 0 1.5-.4 2.2-.5.9-1.4 1.2-2.3 1.5-3.8 1.2-7.7 2.3-11.5 3.4-.8.2-1.8.8-2.5-.2-.4-1-.3-2-.3-3v-28.4c0-2.5-.1-2.6-2.6-2.6h-26.5c-2.7 0-3 .3-3.1 3-.1 3.8 0 7.5 0 11.3v23.5c0 1.6.4 3.2.1 4.9-.5 1-1.5 1.1-2.4 1.3-3.2.7-6.4 1.6-9.7 2.3-.6.1-1.2.2-1.8.6-.9.6-.9 1.3 0 1.9.6.4 1.3.5 2 .6 3.3.4 6.5 1.1 9.8 1.6.9.1 1.8.3 2.1 1.3.2 1.7-.2 3.4-.2 5.1v90.4c0 4.3 0 4.3 4.2 4.3h24.6c3.4 0 3.4 0 3.4-3.5v-54.3c0-4.1.1-4.2 4.2-4.2h9c3.5 0 3.8.3 3.8 3.7v56c0 2.2 0 2.3 2.3 2.3h26.7c2.8 0 2.8-.1 2.8-2.8v-73.3c0-1.1-.1-2.3.1-3.4.2-.9.9-1 1.6-.7 9.9 4 18.5 9.6 23 19.7 2.8 6.2 2.3 12.7.8 19.1-1.8 7.6-5.2 14.6-9.2 21.3-6.6 11.3-14.5 21.6-22.5 31.9-2.4 3.1-4.9 6.2-7.3 9.3-.4.3-.7 1-1.5 1z"/><path fill="#FD000C" d="M985.5 276.2c1.3-7.7 1.8-15.5 2-23.3.5-17.6-.8-35.2-2.7-52.7-.3-2.9-.7-5.8-1.2-8.7-.1-.9 0-1.7.4-2.5h2.3c.6.3 1 .9 1.4 1.5 7.6 11.4 15.4 22.7 23.3 33.9 9.2 13.1 18.4 26.1 28.6 38.4 4.8 5.7 10.4 10.1 18.1 11.2 5 .7 10 .2 14.9-1.2 7.7-2.2 14.7-5.8 21.3-10 9.7-6.2 18.6-13.5 27.1-21.3 9.5-8.9 18.5-18.3 27-28.1 2.6-3 5-6.1 7.6-9.1.3-.4.6-.8 1-1.1.9-.7 1.8-.9 2.8-.3.9.6 1 1.5.7 2.5-.8 2.6-1.7 5.3-2.5 7.9-5.8 18.4-10.4 37.1-13.3 56.2-.3 2.3-.8 4.6-.9 6.9-.6 6.2-1 12.3-1.2 18.5-.3 11.9 5.4 20.4 14.7 26.9 2.8 1.9 6.1 2.5 9.5 2.7 9.4.6 18.4-1.2 27.4-3.5 8.4-2 16.6-4.9 24.6-8 13.7-5.2 27.1-11.1 40.2-17.6 2.5-1.3 5.1-2.4 7.5-3.8.6-.3 1.2-.6 1.9-.7.9-.1 1.6.1 2.1.9.5.7.4 1.4.1 2.1-.4.8-1 1.4-1.6 2-4 4-8 7.9-11.9 12-15.1 15.7-29.7 31.8-42.4 49.6-4.4 6.2-8.6 12.4-11.6 19.5-.5 1.2-1 2.4-1.3 3.7-2.1 7.3-.8 11.4 5.2 16.1 4.1 3.2 8.7 5.4 13.5 7.4 12.4 5.2 25.3 8.7 38.3 11.9 13.7 3.3 27.5 5.9 41.4 8.3 4.4.7 8.9 1.3 13.4 2 .9.2 1.7.4 2.1 1.3v1.9c-.4 1-1.3 1.2-2.3 1.4-10 2.5-20 5.2-29.9 8.1-17.3 5.1-34.5 10.4-51.2 17.3-8.8 3.6-17.4 7.5-25.3 12.7-2.6 1.7-4.9 3.9-7 6.2-2.5 2.7-2.8 6.1-2.6 9.5.3 5.3 2 10.2 3.9 15 3.7 9.5 8.5 18.4 13.6 27.2 10.1 17.4 21.5 33.9 33.6 50 1.5 2.1 3.2 4 4.7 6.1.4.5.8 1 .9 1.6.5 1.8-.7 3-2.5 2.6-.8-.2-1.5-.7-2.1-1.1-13.4-9.3-27.2-17.8-41.4-25.9-4.6-2.6-9.2-5-13.8-7.5-8.9-4.5-18-8.8-27.4-12.1-5.6-2-11.2-3.5-17.2-3.8-4.9-.2-9.2 1.7-12.8 4.9-4.8 4.2-7.8 9.6-9.8 15.5-3.3 8.7-4.9 17.7-6 26.9-1.1 8.6-1.7 17.3-1.7 26 0 1.7-.3 3.4-.3 5.1 0 9 .5 18 .8 27 .1 2.7.6 5.5.7 8.2 0 1.1-.1 2.1-1.3 2.7h-1.9c-1.7-3.8-2.7-7.9-4.1-11.8-6.4-17.9-13.5-35.4-23.7-51.4-3.9-6.2-8.4-11.9-14-16.8-5.6-4.8-12.2-6.4-19.3-6.2-3 .1-5.4 2-7.8 3.4-6.3 3.5-11.3 8.7-15.9 14.1-10.3 11.8-18.8 24.8-27.4 37.8-4.9 7.4-9.6 14.9-14.9 22.1-.4.5-.8 1-1.1 1.5-.6.7-1.3 1-2.2.6-.8-.3-1-1-1-1.8-.1-5.1-.2-10.1-.4-15.2-1-20.1-2.5-40.2-7.1-59.9-1-4.4-2.2-8.7-4.2-12.8-.6-.5-1-1.1-1.3-1.8-2.5-5.8-7.2-8-13.3-8s-12.1 1.3-17.9 2.9c-5.7 1.6-11.3 3.7-16.9 5.8-1.1.4-2.2.9-3.4.9-10.1 4-19.8 8.8-29.5 13.6-4.2 2.1-8.4 4.3-12.7 6.5-.9.5-1.9.9-2.7 0s-.4-1.8.2-2.7c3.8-6 8.2-11.5 12.4-17.1 12.1-15.3 24.5-30.3 33.7-47.7 3.3-6.2 5.9-12.7 7-19.6 1.7-10.4-1.5-19-9.3-25.9-4.7-4.2-10-7.2-15.9-9.3-.5.2-1 .1-1.5-.1-7.6-2.9-15.6-4.7-23.4-6.8-9.9-2.7-19.8-5.5-29.8-7.6-7.6-1.5-15.2-3.1-22.9-4.3-1.5-.2-3.1-.3-4.5-1.2-4.2-.7-8.4-1.4-12.5-2.1-1.1-.2-2.2-.4-2.2-1.8s1.1-1.6 2.2-1.9l12.6-3c.8-.6 1.6-.9 2.5-1.1 9.6-2.4 19.2-4.9 28.7-7.5.7-.2 1.3-.5 2-.1 5.3-1.4 10.5-2.8 15.7-4.7.7-.9 1.8-1 2.8-1.3 9.9-3 19.6-6.4 28.9-11 .4-.2.9-.5 1.4-.3 9.9-4.4 14.9-14 12.7-25.2-1.6-8.2-5.5-15.4-10.3-22.2-1.3-.6-1.7-1.9-2.5-3-4.2-5.9-9-11.3-13.9-16.8-7.7-8.6-15.9-16.6-24.1-24.8-1.4-1.4-1.5-1.4-2.5.1s-2.1 1.3-3.4.6c-4.3-2.5-8.9-3.5-13.9-3.2-1.9.1-3.7.6-5.4 1.5-3 1.7-3.1 4.7-.1 6.5 1.6 1 3.2 1.6 5 2.1 5.1 1.4 10.4 2.2 15.4 4.1 2.2.8 4.3 1.8 6.2 3 5.3 3.4 7.8 8.2 7.5 14.6-.4 7.6-3.3 13.7-10 17.6-3.5 2.1-7.3 3.6-11.3 4.4-14 3-27.3.8-40.2-5.2-.3-.2-.7-.3-1-.5-1.1-.6-1.3-1.5-.6-2.5 2.7-3.9 5.2-7.8 7.9-11.6.8-1.1 1.7-1 2.8-.4 2.5 1.5 5.1 3 7.9 4 4.6 1.5 9.2 2.6 14 1.5 1.4-.3 2.8-.9 4-1.6 2.9-1.8 3.1-5.3.3-7.3-1.9-1.5-4.2-2.1-6.5-2.7-4.2-1.1-8.5-1.8-12.6-3.1-3.8-1.2-7.5-2.4-10.5-5.2-3.9-3.5-5-8-4.7-12.9.6-10 6.5-15.8 15.3-19.3 4.7-1.9 9.7-2.4 14.7-2.5.9 0 1.7.1 2.9-.2-2.1-1.5-3.7-3.2-5.4-4.9-.6-.6-1.3-1-1.4-1.9 0-2.2.9-2.8 3-2 1.7.7 3.3 1.6 5.1 2.1 4.6 1.1 8.7 3.4 13.1 5 6.5 2.5 12.9 5.1 19.5 7.4 7.6 2.7 15.3 5.3 23 7.5.7.2 1.4.5 2 1 8.2 2.6 16.6 4.5 25.1 6.1 8 1.5 16 2.3 24.1 1.8 6.1-.4 12-1.4 16.8-5.5 4.3-3.6 6.7-8.3 8.7-13.4 2.4-5.4 3.7-10.9 4.5-16.4z"/><path fill="#0D2577" d="M921.1 556.4c11.8-4.9 23.7-9.4 36.7-10.1 2.1-.1 4.1.1 6.2.5 5.5 1 8.1 5 9.9 9.7h-51.6c-.4.1-.8 0-1.2-.1z"/><path fill="#FED80F" d="M841 282.4c2.6 2.4 5.1 4.9 8 7.6-3.5.1-6.7-.1-9.8.3-7.6 1-14.5 3.4-19.6 9.5-4.5 5.5-5.4 11.8-3.4 18.5 1.3 4.4 4.7 7 8.7 8.7 5.3 2.3 10.9 3.3 16.4 4.6 2.7.6 5.3 1.3 7.7 2.8 3.6 2.3 3.6 6.4-.1 8.6-4.1 2.4-8.5 2.3-12.9 1.5-4.8-.8-9.2-2.9-13.2-5.5-1.1-.7-1.6-.7-2.3.4-2.4 3.7-4.9 7.4-7.5 11-1 1.3-.8 1.9.6 2.6 6.6 3.2 13.6 5.3 20.9 6.2 8.9 1.1 17.7.4 26.2-3 6.8-2.7 11.8-7.1 13.6-14.6 2.4-9.8-.9-16.7-10-20.9-3-1.4-6.2-2.4-9.4-3.1-3.2-.8-6.3-1.5-9.5-2.3-1.9-.5-3.8-1.2-5.4-2.5-2.1-1.7-2.2-4-.2-5.8 1.9-1.8 4.4-2.4 6.9-2.6 5-.3 9.7.8 14 3.3 1.4.8 2.3.9 3-.7.3-.6.8-1.1 1.3-1.8l6.8 6.8c10 10.1 20 20.2 28.9 31.3 2.2 2.8 4.4 5.6 6.2 8.7 0 4.6-.1 9.3 0 13.9 0 1.5-.4 1.9-1.8 1.7H421.7c-2.5 0-2.4 0-2.4-2.5 0-27.1 0-54.1-.1-81.2 0-1.5.5-1.7 1.8-1.7 2.7.1 5.4 0 8.1 0h409.7c.7.3 1.4.2 2.2.2z"/><path fill="#FEFEFE" d="M493.3 460.9c1.1-13.4 3-26.7 5.1-40 1.9-12.2 3.7-24.3 5.4-36.5.3-1.8.8-2.4 2.7-2.4 12.3.1 24.5.1 36.8 0 1.3 0 1.8.2 1.9 1.7 1.1 15.7 2.4 31.3 3.6 46.9 1.2 15.4 2.3 30.8 3.5 46.2l3.6 46.2c.3 3.6.5 7.1.8 10.7.1 1-.1 1.3-1.2 1.3h-32.1c-1 0-1.2-.4-1.2-1.3l-1.2-40.9-1.8-51.9c0-.2 0-.5-.4-.7-.4 3-.8 5.9-1.1 8.9-1.6 15.2-4 30.4-6.3 45.5-1.9 12.9-3.9 25.7-5.7 38.6-.2 1.5-.7 1.9-2.2 1.9-7.9-.1-15.8-.1-23.7 0-1.2 0-1.5-.3-1.7-1.5-2.3-19.4-4.7-38.9-7-58.3-1.4-11.5-2.8-23.1-4.1-34.6 0-.3-.1-.5-.5-.8v9.6c.1 18.3-1 36.5-1.8 54.7-.4 9.6-.8 19.2-1.2 28.9-.1 1.6-.5 2-2.2 2-10.6-.1-21.3-.1-31.9 0-1.3 0-1.7-.3-1.6-1.6 1.1-11.3 2.2-22.7 3.2-34 .9-10.1 1.9-20.2 2.8-30.3 1.1-11.3 2.1-22.5 3.2-33.8 1.1-11.5 2.2-22.9 3.2-34.4.5-5.8 1.1-11.6 1.6-17.4.1-1.1.5-1.5 1.7-1.5 12.8.1 25.5 0 38.3 0 1.2 0 1.5.4 1.7 1.5 1.8 15.8 3.7 31.7 5.5 47.5 1.2 10.3 2.4 20.6 3.5 30.9.1.1.2.6.4.1.4-.4.2-.8.4-1.2zm73.5 73.9c.9-4.6 1.8-9.2 2.6-13.7 4.6-23.9 9.1-47.7 13.7-71.6 4.2-22 8.5-44 12.7-66.1.2-1 .6-1.3 1.6-1.3h37.9c1.1 0 1.4.4 1.5 1.4 4.6 27.5 9.3 55 13.9 82.4 3.8 22.5 7.7 45 11.5 67.4.2 1.2.1 1.7-1.4 1.7-10.4-.1-20.8-.1-31.2 0-1.1 0-1.6-.2-1.7-1.4-.6-5.6-1.4-11.2-2-16.8-.1-1.1-.4-1.5-1.6-1.4-6.4 0-12.9.1-19.3 0-1.1 0-1.5.3-1.7 1.4-.7 5.6-1.5 11.3-2.3 16.9-.1.9-.3 1.3-1.3 1.3h-32.5c0-.1-.1-.1-.4-.2zm237.6-108.5c-1.3-1.1-2.6-2.2-3.8-3.4-7.3-7.2-18.2-6.5-24.5 1.5-4.1 5.2-5.9 11.2-7 17.6-2.3 13.5-2.2 27 1.6 40.3 1 3.6 2.5 6.9 4.8 9.9 5.3 7.1 14.2 8.9 21.9 4.4 3.2-1.8 5.7-4.3 8.2-7.2 0 2.6.1 5.1 0 7.5-.5 10.7-1 21.5-1.4 32.2-.1 2.1-.7 3.3-2.7 4.2-16.2 7.9-35.8 4.1-48-9.4-8.6-9.4-13.6-20.6-16.2-32.9-5-22.8-4.9-45.7 1.2-68.3 2.9-10.7 7.7-20.5 15.6-28.5 12.5-12.5 27.3-17.9 44.9-13.5 5.6 1.4 5.5 1.6 5.5 7.2v36.6c-.1.8-.1 1.4-.1 1.8zm17.9 7.9c6 .7 11.9 1.9 17.9 3.1 20.3 3.8 40.2 9.5 60 15.3 1.4.4 2.8 1.1 4.2 1.6v78.5c0 2-.6 2.3-2.4 2.3-9.6-.1-19.3-.1-28.9 0-1.7 0-2-.5-2-2.1.1-19.3 0-38.7.1-58 0-1.5-.2-2.1-1.9-2-4 .1-8 .1-12 0-1.5 0-1.8.4-1.8 1.9 0 19.3 0 38.7.1 58 0 1.9-.5 2.2-2.3 2.2-9.7-.1-19.4-.1-29.1 0-1.4 0-1.9-.3-1.9-1.8v-99zm-112.5 43.1v55.8c0 1.4-.3 1.9-1.8 1.9-9.8-.1-19.7-.1-29.5 0-1.6 0-1.9-.5-1.9-2 0-37.1 0-74.3.1-111.4 0-1.8-.4-2.3-2.3-2.3-4.8.1-9.6 0-14.5.1-1.1 0-1.5-.3-1.5-1.5v-34.6c0-1 .2-1.4 1.3-1.4h67.6c1.1 0 1.3.4 1.3 1.4v34.6c0 1.2-.4 1.5-1.5 1.5-5.3 0-10.5 0-15.8-.1-1.4 0-1.7.4-1.7 1.8.2 18.8.2 37.5.2 56.2zm145.7-60.5c-11 3.2-22.1 6-33.2 8.6v-41.5c0-1.5.2-2 1.9-2 9.8.1 19.5.1 29.3 0 1.6 0 2.1.3 2.1 2-.1 11-.1 22-.1 32.9zm48.9-17.2c-4.5 2.7-9.5 4.5-14.4 6.3-6.2 2.3-12.4 4.5-18.8 6.2 0-9.6 0-19.3-.1-28.9 0-.9.2-1.3 1.2-1.3h30.8c1.3 0 1.2.6 1.2 1.5 0 5.5.1 10.9.1 16.2z"/><path fill="#FED80F" d="M906.7 303.5c-8.9-2.4-17.7-5.4-26.3-8.5-9.8-3.5-19.5-7.3-29.1-11.4-.7-.3-1.4-.7-2.2-1.1 9.9 0 19.8 0 29.6-.1h26.4c1.2 0 1.6.2 1.6 1.5v19.6z"/><path fill="#6E7DAC" d="M493.3 460.9c.1.8.2 1.5-.4 2.2-.4-.4-.3-.7-.2-1.1.2-.4.4-.7.6-1.1z"/><path fill="#FED80F" d="M1183.9 419c-.1 67.8-55.5 126.3-127.8 125.5-64.2-.7-124.7-53.1-123.8-127.9.8-66.5 55.2-124.3 127.2-123.7 66.6.6 124.2 54.6 124.4 126.1z"/><path fill="#0C2577" d="M1143 276.1h49.2c1.6 0 2 .4 2 2-.1 14.4 0 28.8 0 43.2-9.3 2.6-18.7 4.3-28.5 3.7-7.6-.5-12.7-5-17.3-10.4s-6.6-11.9-6.6-18.9c0-6.6.4-13.1 1.2-19.6zm51.2 276.2c-.1 1.4.4 3.2-.3 4-.8.9-2.7.3-4.1.3h-63.3c2.9-7.8 7-14.6 14.7-18.6 4.2-2.2 8.6-2 13-1.2 10.3 1.8 19.9 5.9 29.3 10.2 3.6 1.6 7.2 3.3 10.7 5.3z"/><path fill="#FD000C" d="M650.4 317.8V356c0 1.6-.4 2-2 1.9-6.2-.1-12.4-.1-18.6 0-1.3 0-1.7-.3-1.7-1.6v-62.9c0-1.3.4-1.7 1.7-1.7 6.3.1 12.5.1 18.8 0 1.3 0 2.2.4 3.1 1.3 12.5 12.5 25 25 37.5 37.4.5.5.9 1 1.3 1.6.2-.1.4-.1.5-.2v-38c0-1.6.3-2.2 2-2.1 6.2.1 12.4.1 18.6 0 1.3 0 1.8.4 1.8 1.7v62.2c0 2.7.2 2.4-2.4 2.4-5.7 0-11.4-.1-17.1.1-2 0-3.4-.6-4.9-2.1-12.2-12.3-24.5-24.6-36.8-36.8-.5-.5-.9-1.1-1.3-1.6-.1 0-.3.1-.5.2zm-79.5 42.5c-11.5-.1-22.4-2.3-32-8.9-9.7-6.6-15.1-15.7-15.2-27.6-.1-9.2 4.2-16.4 11.1-22.2 8.4-7 18.4-10.4 29.2-11.6 11.1-1.2 21.8.3 32.1 4.9 6.6 3 12.4 7 16.7 13 7.8 10.8 6.8 25.9-2.1 36.5-7.2 8.5-16.7 12.7-27.3 14.8-4.2.7-8.3 1.1-12.5 1.1zm-71.7-37.7c3.5.6 6.4 1.2 9.1 2.5 10 4.7 11.1 20.6 1.9 26.9-5.1 3.5-10.9 5-16.9 5.6-10.9.9-21.9.2-32.8.4h-7.7c-1 0-1.5-.3-1.4-1.4v-62.8c0-1.7.5-2.2 2.2-2.2 11 .1 21.9 0 32.9.1 4.7 0 9.3.8 13.6 3 8.2 4 11.2 15.3 6.1 22.6-1.7 2.5-4 3.9-7 5.3zm228-6.9c0-8.1.1-15 0-21.8 0-1.7.5-2.1 2.1-2.1 6.1.1 12.1.1 18.2 0 1.6 0 2.1.3 2.1 2-.1 12.2 0 24.4 0 36.6 0 1.4.2 2.9.5 4.3 1.1 5.6 4.6 8.7 10.2 9.6 3.4.5 6.7.5 10.1-.4 5.6-1.5 8.7-5.8 8.9-12.6.2-8.3.1-16.6.2-25 0-4.3.1-8.6 0-13 0-1.3.4-1.5 1.6-1.5 6.3.1 12.6.1 19 0 1.3 0 1.7.4 1.7 1.7 0 7.8.1 15.6 0 23.5 0 6 .1 12-.2 18-.5 10.5-5.9 17.4-15.5 21.2-8.5 3.4-17.3 4.1-26.3 3.5-6.1-.4-12-1.4-17.7-3.8-9.4-4-14.2-11.2-14.7-21.4-.3-6.7-.1-13.4-.2-18.8z"/><path fill="#0C2577" d="M616 419.6l.9 10.8c1 14.3 2.7 28.5 4.1 42.8.3 2.7.5 5.4.8 8 .1 1.1 0 1.7-1.4 1.6-3.6-.1-7.3-.1-10.9 0-1.2 0-1.4-.4-1.3-1.5 1.1-8.2 2-16.5 3.2-24.7 1.6-12.1 3-24.2 4.1-36.3 0-.2.1-.4.1-.7h.4z"/><path fill="#FD000C" d="M955.9 418.6c-.1-53.2 42.5-102.1 102.3-102.1 56.6 0 103 46.2 102.1 104.1-.8 53-43.8 100.2-102.4 100.3-56.2.1-102-46-102-102.3z"/><path fill="#FED80F" d="M569.7 343.4c-6.4-.1-13-2.2-18.2-7.8-6-6.6-7.3-16.4 1.8-23.6 9.9-7.7 26.2-7.5 35.7.6 9.6 8.2 5.7 19-.5 24.5-5 4.5-11 6.3-18.8 6.3zm-95.9-5.8v-5.8c0-.7.1-1.2 1-1.2 4.4.1 8.8-.3 13.1.7 2.9.7 5.3 1.8 6 5.1.5 2.4-.3 4.7-2.4 6-1.9 1.2-4 1.7-6.2 2-3.4.4-6.7.4-10.1.4-1 0-1.5-.3-1.4-1.4v-5.8zm0-26.3v-5.2c0-.8.3-1.1 1.1-1.1 2.9 0 5.7.1 8.5.8 3 .8 4.7 2.8 4.7 5.5s-1.5 4.6-4.5 5.5c-2.9.9-5.9.9-8.9.9-.9 0-1-.5-1-1.2.1-1.7.1-3.4.1-5.2zm541.9 112c1.6-8.6 3.1-17.1 4.6-25.5 2.3-13 4.7-25.9 7-38.9.2-1.3.7-1.7 2-1.7h67.6c1.4 0 1.8.3 1.8 1.7-.1 7.8-.1 15.7 0 23.5 0 1.6-.5 1.8-1.9 1.8-14.5 0-28.9 0-43.4-.1-1.6 0-2.1.4-2.3 2-.5 3.5-1.1 6.9-1.7 10.4-.2 1.2.1 1.4 1.2 1.3 4.2-.3 8.4-.7 12.5-.8 19.7-.6 37.1 11.2 43.2 29.2 7.3 21.6-2.8 43.7-24.1 52.4-9.9 4-20.3 5.3-30.9 5.3-14.5 0-28.3-2.6-41.4-9.1-3.4-1.7-3.4-1.7-2.7-5.5 1.4-8.1 2.8-16.3 4.2-24.4.1-.5.3-1.1.4-1.8 2.9 2.1 5.7 4.2 8.8 5.9 9 5.1 18.6 8 28.9 8.1 5.5 0 10.6-1.4 15.1-4.8 9.2-7 9.2-19.8.1-26.9-6.4-5-13.9-6.7-21.8-6.9-7.9-.3-16.5.7-27.2 4.8z"/></svg>