<svg xmlns="http://www.w3.org/2000/svg" id="b" viewBox="0 0 540 374.9"><defs><style>.d{fill:#fff200}.d,.e,.g{stroke-width:0}.e{fill:#00b4f0}.g{fill:#fff}</style></defs><g id="c"><path d="M427.6 39.3c7 0 11.3-4.5 11.3-11.3s-4.4-11.3-11.3-11.3-11.3 4.5-11.3 11.3 4.4 11.3 11.3 11.3ZM34.6 218.7c-7 0-11.3 4.5-11.3 11.3s4.4 11.2 11.3 11.2 11.3-4.4 11.3-11.2-4.4-11.3-11.3-11.3Z" class="e"/><path d="M501 115.5h-.2a91.9 91.9 0 0 0-32.2-9.5c.5-2.4.8-4.9.8-7.6 0-16.8-10.8-27.8-28-27.8s-27.8 11-27.8 27.8c0 4 .6 7.8 1.8 11a90.7 90.7 0 0 0-24.9 9.7V60.5c0-6.7 0-19.1-9.5-30.4-6.2-7.5-18-16-38.2-14-8.8.7-16.4 3.2-22.7 7.3C318.4 9 308.1 0 292.6 0c-17.1 0-27.9 11-28 27.8l-1.4.8A74.7 74.7 0 0 0 189 45.8a44.4 44.4 0 0 0-36.3-12 46.5 46.5 0 0 0-32.2 16 48.6 48.6 0 0 0-5.3-3.2 79.3 79.3 0 0 0-40.4-6.3 83.5 83.5 0 0 0-51.5 24C8.3 79.4 0 100.3 0 122.8s8.2 42.6 23.1 56.2a71.6 71.6 0 0 0 57 17.7c2.9-.2 7.5-.8 12.9-2V205.7c-17.6.2-28.6 11.7-28.6 29s11 29 28.6 29.1v25.4c0 9.7 0 24.3 11 37.8 7 8.6 19.3 18 40.5 18 2.3 0 4.7 0 7.2-.3 15.6-1.5 28-6.9 37-16.1a34 34 0 0 0 16.6.3v2.2c0 26.4 16.8 43.7 43.6 43.7s43.7-17.3 43.7-43.7v-.2a119.3 119.3 0 0 0 23.6 0 121.6 121.6 0 0 0 63.4-24.5c7.3 7 18.7 13.2 36 13.2 2.2 0 4.7-.1 7.2-.4 19-1.7 33.1-9.3 42.3-22.6a53.8 53.8 0 0 0 9.5-30.4c40-12.5 65.4-44 65.4-84a72 72 0 0 0-39-66.8Z" class="e"/><path d="M493.5 129.4c-18.7-9.7-40-9-54.3-7.6-15 1.4-27 4.1-35.4 8a38.1 38.1 0 0 0-22.1 24.4l-1.3-1.3a77 77 0 0 0-10.9-8.2l.6-.7c5.1-7.1 5.1-14.3 5.1-20V60.5c0-5.7 0-13.6-5.9-20.6-5.7-6.8-14.1-9.7-25.1-8.7-3.8.4-15.3 1.5-22.7 11.7-2.7 3.7-4 7.5-4.6 11-.9-2.9-2.3-5.8-4.7-8.6-5.7-6.8-14.1-9.7-25.1-8.7a31 31 0 0 0-21.4 10 54.5 54.5 0 0 0-31-6c-22.8 2.2-40.5 16.2-45.9 35l-2.8-6.8c-2.3-5.4-9.1-21.9-31.8-19.7-18.8 1.7-25.7 13.8-29.1 22.6l-2 4.9a27.9 27.9 0 0 0-14.7-16.3 62.7 62.7 0 0 0-32.2-4.8c-29.3 2.8-61 25-61 67.4 0 18.5 6.4 34 18.2 44.8a56.6 56.6 0 0 0 45.3 13.8c4-.3 16.5-2 27.3-7.7 1.8 1 3.8 1.7 6 2.2a50 50 0 0 0-3.2 19.5v93.8c0 8.3 0 18.7 7.5 27.9 6.5 8 15.9 12.1 28.2 12.1 1.8 0 3.8 0 5.8-.2 14-1.4 24.4-6.7 30.8-16 6.7-9.4 6.7-19.3 6.7-27.3v-6.3a92.3 92.3 0 0 0 37.4-15.8 78 78 0 0 0 20.7 31.2c15.2 13.8 35 21 58 21 3.5 0 7.1-.2 10.8-.6a102.5 102.5 0 0 0 67.5-32.6c1.1 3 2.8 6.1 5.2 9 6.4 8.1 15.8 12.2 28.1 12.2 1.9 0 3.8 0 5.8-.3 14-1.3 24.5-6.7 30.9-16 6.7-9.4 6.7-19.3 6.7-27.2V254c40-7.8 65.3-35 65.3-71.6a56.9 56.9 0 0 0-30.7-53Z" style="fill:#644a9e;stroke-width:0"/><path d="M78.4 141.8c2.9-.3 6.2-1.1 9.6-2.8 3.5-1.7 6.5-3.7 9.5-4 6.5-.6 10 6.7 10 11.7 0 3.8-2.1 7.3-6.5 10.4a53.9 53.9 0 0 1-23.9 7.6c-25.8 2.4-45-13.3-45-41.9a49 49 0 0 1 45.7-50.4 47 47 0 0 1 23 3c4.7 2.4 6.7 5.6 6.7 9.4 0 4.8-3.2 13-10 13.6-3.3.3-6.4-1-10.3-2.2-3.2-1-6.3-1.4-9.7-1-10.8 1-20 9.4-20 25 0 16.4 10.3 22.6 20.9 21.6ZM170 136.8l-30.7 2.9-2.5 7.1c-2.8 8.3-6.3 12.2-15 13-7.8.7-10.7-1.9-10.7-6.3 0-1.6.4-3.5 1.5-6L140.7 78c3-7.3 6.2-11.3 15-12.1 9-.9 11.9 2.7 14.7 9.4l27.1 64.3c.9 2.3 1.3 3.9 1.3 5.4 0 5-3.9 8-11.8 8.7-8.2.8-11.1-1.9-14.3-10.1l-2.6-6.8ZM146.3 120l17.1-1.6-8.5-22.4-8.6 24ZM250.8 97.5c7.1 4.2 13.2 10.5 13.2 21.8 0 17.6-15 29.3-33.4 31A43 43 0 0 1 212 148c-4.7-1.7-8.7-4.2-8.7-9.8 0-5.2 3.6-12.4 10-13 5.7-.6 10.1 4.8 17.6 4.1 5-.5 8.1-3.2 8.1-6.7 0-4.3-4.8-6.4-10.8-9-10.2-4.5-24-9.6-24-25.8 0-16.7 14.4-28.6 32.2-30.3 12.4-1.2 26.2 2.8 26.2 11.9 0 5.2-4.6 12-10.5 12.5-5.1.5-10-3.8-16.3-3.3-4.1.4-6.6 2.9-6.6 5.5 0 5.6 11.7 7.6 21.7 13.4ZM358.3 124c0 4.4 0 7.4-2 10-1.8 2.7-5 4.3-10.5 4.8s-8.7-.4-10.6-2.7c-2-2.3-2-5.4-2-9.8v-22.6l-32 3v22.6c0 4.4 0 7.5-1.9 10.1-2 2.7-5.1 4.2-10.6 4.7s-8.7-.4-10.6-2.7c-2-2.3-2-5.3-2-9.7V68.2c0-4.4 0-7.4 2-10 1.9-2.7 5-4.3 10.6-4.8s8.7.4 10.6 2.7c2 2.3 2 5.4 2 9.8v18.6l32-3V62.9c0-4.4 0-7.5 1.9-10.1 1.9-2.7 5-4.2 10.6-4.8s8.7.5 10.6 2.8c2 2.3 2 5.3 2 9.7V124Z" class="g"/><path d="M173.9 260.4c-3.8.4-7 .5-7 .5v24.9c0 6.7 0 11.3-2.9 15.3-2.7 4-7.5 6.4-15.7 7.2-8.2.7-13-.7-15.7-4.2-3-3.5-3-8.1-3-14.8v-93.9c0-7.5 0-15.7 12-21.2 6-2.9 16-5 28.5-6.2 13.6-1.3 29.7-1.3 42.7 5.4 12.2 6.4 19.5 17.4 19.5 34.4 0 31.4-25.1 49.5-58.4 52.6Zm-7-28.4s2.6.1 6-.2c11.4-1 21.3-6.6 21.3-18.5 0-11-8.4-15.2-20.5-14-3.6.3-6.7 1-6.7 1V232ZM313.6 153.3c44.4-4.2 72.2 23.1 72.2 63.8s-28.7 73.2-73 77.4c-44.5 4.2-72.3-23.2-72.3-63.8s28.7-73.3 73-77.4Zm-.4 108.3c20.7-2 34.1-17 34.1-41s-13.4-36.4-34.1-34.4c-20.8 2-34.2 17-34.2 40.9s13.4 36.4 34.2 34.5ZM444.9 235l-7 .4v25c0 6.7 0 11.3-2.8 15.3s-7.6 6.4-15.8 7.1c-8.1.8-13-.6-15.7-4.1-2.9-3.5-2.9-8.1-2.9-14.9V170c0-7.5 0-15.7 12-21.2 6-2.9 15.9-5 28.4-6.3 13.6-1.2 29.8-1.3 42.8 5.5 12.1 6.4 19.4 17.4 19.4 34.4 0 31.4-25 49.5-58.4 52.6Zm-7-28.5s2.6.2 6-.1c11.5-1.1 21.3-6.6 21.3-18.6 0-10.9-8.4-15.1-20.5-14-3.6.4-6.7 1-6.7 1v31.7Z" class="d"/></g></svg>