<svg viewBox="0 0.049 781.186 306.61" xmlns="http://www.w3.org/2000/svg"><path d="M146.75 232.11l11-58a30.57 30.57 0 011.47-5.22 30.36 30.36 0 01-7.48 5l-21.43 18.69a30.86 30.86 0 01-50.49-17c-6.95.71-11.59 2.51-13.84 5.41-2.91 3.74-4.31 11.41-4.31 23.43 0 27 25.17 27.7 25.42 27.7zm-59.66 61.63c-34.2 0-55-17-66.42-31.24C7.75 246.37 0 224.65 0 204.41c0-16.1 1.51-37 13.3-55.67 16.82-26.62 45-34 67.7-35a30.8 30.8 0 0151.13-16l16.86 15.73 19-87.88A31.82 31.82 0 01196.5.79c.79-.07 1.59-.1 2.4-.1a31.83 31.83 0 0129.52 20.29l8.44 22 8.43-22A31.82 31.82 0 01274.81.74c.93 0 1.88.05 2.79.13a31.71 31.71 0 0124.24 15.16 31.6 31.6 0 0159.07 15.64v5.85c0 15.66 0 30.46 1 42.56 1.12 13 3.1 17.74 3.93 19.24a18.41 18.41 0 003.55.27h.44a29.6 29.6 0 004.36-.33c.08-.24.16-.51.27-.81 3.26-9.9 3.2-30.45 3.12-54.26v-.95-10.88a31.58 31.58 0 0152.17-24.03 31.52 31.52 0 0147.1 6.86A31.61 31.61 0 01503.5.52h59.39a31.45 31.45 0 0121.28 8.3 31.56 31.56 0 0152.7 23.49v67.23h60.11c26.15 0 48.09 9.86 63.45 28.5 12.91 15.7 20.32 36.86 20.74 59.61.39 19.23-6.28 47-26.15 67.29-14.64 14.94-34 23.29-56.16 24.28a31.61 31.61 0 01-54.56 17.27l-13.35-14.45a30.82 30.82 0 01-56.54-17v-12.3h-3.28v12.3a30.8 30.8 0 01-52.15 22.23 33 33 0 01-4.91 1.79 112.76 112.76 0 01-28.86 4.11c-16.14 0-30.09-4.43-41.45-13.16a60.28 60.28 0 01-12.89-13.56 30.74 30.74 0 01-47 24.77 29.85 29.85 0 01-4.63 2.41 31 31 0 01-11.58 2.26 30.72 30.72 0 01-28.58-19.26l-.94-2.31h-11.21l-1.1 2.66a30.8 30.8 0 01-28.45 18.91 30.42 30.42 0 01-11.92-2.42 29.25 29.25 0 01-3.32-1.64 31.05 31.05 0 01-9.28 3.47 31.63 31.63 0 01-6 .59 30.85 30.85 0 01-23.91-11.42 30.81 30.81 0 01-48.22-.46 30.8 30.8 0 01-22.5 9.76zm622.76-83.1c6.31-6.44 8.17-17.42 8.09-21.74-.11-5.26-1.53-13.44-5.2-19.11-2.37-3.66-5.91-7-15.76-7h-66.23a30.65 30.65 0 015.36 17.34v27.29l7.47-8.27a31.65 31.65 0 0144.67-2.24 31.43 31.43 0 0110.07 19c6.31-.75 9.43-3.12 11.53-5.24z"/><path d="M180.12 154.35a15.58 15.58 0 01-3.37-.36 15.87 15.87 0 01-12.15-18.86l21.46-99.2a15.87 15.87 0 0130.32-2.34l23.28 60.63 23.27-60.62a15.87 15.87 0 0130.4 2.69l19 99.2a15.87 15.87 0 11-31.16 6l-8.57-44.62-18.16 47.31a15.87 15.87 0 01-29.63 0l-19-49.54-10.19 47.2a15.88 15.88 0 01-15.5 12.51zM372.75 154.36c-15.26 0-27.61-4.55-36.71-13.53-19.51-19.25-19.47-53.3-19.44-96.42v-5.83a15.87 15.87 0 1131.73 0v5.85c0 32.86-.06 63.9 10 73.81 2 1.94 5.71 4.5 15.08 4.38 14.48-.21 17.21-5.13 19.5-12.06 4.06-12.35 4-33.14 3.92-59.46V39.28a15.87 15.87 0 0131.74 0v11.73c.09 29.18.16 52.24-5.51 69.48-7.28 22.11-23.83 33.5-49.19 33.86zM499.33 154.35h-45.45a15.86 15.86 0 01-15.87-15.87v-99.2a15.87 15.87 0 0131.73 0v83.34h29.59a15.87 15.87 0 110 31.73zM566.87 23.24h-59.61a15.87 15.87 0 000 31.74h14.75l.1 83.52a15.86 15.86 0 0015.86 15.85 15.86 15.86 0 0015.85-15.88l-.07-83.49h13.12a15.87 15.87 0 100-31.74zM701.43 122.62h-76.18V39.28a15.87 15.87 0 00-31.74 0v99.2a15.87 15.87 0 0015.87 15.87h92c13.38 0 22.92 4.68 29.14 14.31 6.91 10.68 7.69 23.74 7.77 27.48.13 6.9-2.33 22.72-12.66 33.26-6.71 6.85-15.51 10.18-26.9 10.18h-16.44l.84-.93a15.87 15.87 0 10-23.54-21.28l-24.84 27.44a.21.21 0 010 .06 16.36 16.36 0 00-1.28 1.63l-.24.37a17.66 17.66 0 00-.89 1.58c0 .09-.09.17-.14.26a16.24 16.24 0 00-.74 1.9c0 .13-.07.27-.11.4a16.42 16.42 0 00-.39 1.65c0 .14-.05.28-.07.42a16 16 0 00-.18 2v.46a15.53 15.53 0 00.09 1.66c0 .15 0 .29.05.44a15.24 15.24 0 00.4 2c0 .11.06.22.1.33a14.82 14.82 0 00.63 1.76c0 .07 0 .14.07.21l.06.1a14.36 14.36 0 001 1.85l.22.32a14.14 14.14 0 001 1.35l.36.43.23.27 25.33 27.44a15.87 15.87 0 1023.31-21.53l-.74-.8h16c19.79 0 36.94-6.82 49.57-19.71 16.52-16.86 22-40.76 21.71-56.11-.77-36.33-22.28-72.93-68.67-72.93z" fill="#fedb00"/><path d="M384.93 267.19l-8.84-21.78v-.08l-25.83-63.59a15.07 15.07 0 00-27.87-.17l-26.75 63.74a1 1 0 00-.07.15l-9.06 21.59a15.079 15.079 0 1027.8 11.69l5.2-12.39h32.52l5 12.23a15.08 15.08 0 0027.94-11.34zm-52.76-31l3.88-9.25 3.75 9.25zM428.1 172.31h-49.21a15.07 15.07 0 100 30.14h9.53v70.41a15.08 15.08 0 0030.15 0v-70.41h9.53a15.07 15.07 0 000-30.14z" fill="#e00"/><path d="M488.9 285.21c-12.64 0-23.32-3.31-31.93-9.92-12.61-9.68-19.27-25.48-19.27-45.7 0-20.58 8.36-38.15 22.95-48.21 14.85-10.24 34.24-11.61 54.6-3.87a15.098 15.098 0 01-10.72 28.23c-10.82-4.11-20.32-3.93-26.77.51s-9.91 12.87-9.91 23.39c0 7.32 1.29 17 7.48 21.79 5.8 4.45 16.69 4.85 30.67 1.11a15.08 15.08 0 017.75 29.08 96.86 96.86 0 01-24.85 3.59zM609.38 172.56a15.08 15.08 0 00-15.08 15.08v26.88h-35v-27.14a15.08 15.08 0 00-30.15 0v85.48a15.08 15.08 0 0030.15 0v-28.19h35v28.19a15.08 15.08 0 0030.15 0v-85.22a15.08 15.08 0 00-15.07-15.08zM284.6 269.94l-16.85-85.48a15.07 15.07 0 00-29-2.24l-17 46.59-17-46.59a15.07 15.07 0 00-29 2.35l-13.5 71.11h-73c-10.74 0-41.39-8-41.39-43.68 0-28.53 6.74-45.07 41.17-45.14l11.65.36a15.07 15.07 0 0021.52 21l23.55-20.54a15.05 15.05 0 0010.34-15.18 15.05 15.05 0 00-9.8-14.85l-22.54-21.08a15.07 15.07 0 00-22 20.51l-11.94-.34h-.46c-28.54 0-48.94 9.39-60.63 27.9-9.67 15.31-10.91 33.37-10.91 47.39 0 30.66 22.2 73.82 71.54 73.82h85.48a15.08 15.08 0 0014.81-12.26l5.61-29.53 12.38 34a15.08 15.08 0 0028.33 0l12.64-34.73 6.42 32.41a15.09 15.09 0 0014.73 12.2 15.58 15.58 0 002.94-.29 15.08 15.08 0 0011.91-17.71z" fill="#e00"/><path d="M168.94 135.74l21.45-95.33a15.7 15.7 0 0114.3-12 16.51 16.51 0 017.39 1.16 16.34 16.34 0 00-10.12-2.59 15.69 15.69 0 00-14.29 12l-21.46 95.33a15.13 15.13 0 009.29 17.25 15 15 0 01-6.56-15.82zM244 96.39l23.27-58.26a15.94 15.94 0 0116.22-9.73 16.62 16.62 0 014.8 1.16 16.33 16.33 0 00-7.54-2.59 15.94 15.94 0 00-16.2 9.77l-22.2 55.53zM285.54 141.8l-8.56-42.87-1.62 4.06 7.46 37.38a15.38 15.38 0 009.38 11.16 15.19 15.19 0 01-6.66-9.73zM229.19 144.4l-19-47.61-.77 3.44 17.08 42.73a15.53 15.53 0 008.56 8.54 15.35 15.35 0 01-5.87-7.1zM377.69 127.57c14.49-.2 17.22-5.12 19.5-12 4.07-12.35 4-33.13 3.93-59.44V44.32a15.87 15.87 0 0122.07-14.61 15.86 15.86 0 00-24.82 13.03v11.81c.09 26.31.15 47.09-3.92 59.45-2.28 6.92-5 11.84-19.5 12a27.67 27.67 0 01-10.87-1.64c2.3 1.72 6.18 3.31 13.61 3.21zM340.32 141.18c-19.5-18.44-19.47-51.22-19.43-92.66v-5.6c0-8.42 7.1-15.25 15.86-15.25a16.31 16.31 0 016.2 1.21 16.18 16.18 0 00-8.92-2.64c-8.76 0-15.87 6.83-15.87 15.25v5.6c0 41.44-.07 74.17 19.43 92.66a44.15 44.15 0 0011.31 7.76 43.69 43.69 0 01-8.58-6.33zM472.5 125.27h29.58a16.31 16.31 0 016.2 1.21 16.18 16.18 0 00-8.92-2.64H472.5zM442.35 138.93V43.59c0-8.42 7.1-15.24 15.87-15.24a16.49 16.49 0 016.19 1.2 16.27 16.27 0 00-8.92-2.64c-8.76 0-15.86 6.83-15.86 15.25v95.34a15.25 15.25 0 009.66 14 15.09 15.09 0 01-6.94-12.57zM495.75 40.5c0-6.95 7.11-12.57 15.87-12.57h59.61a19.51 19.51 0 016.2 1 18.89 18.89 0 00-8.94-2.19h-59.61c-8.76 0-15.87 5.62-15.87 12.57 0 5.2 4 9.66 9.67 11.57-4.19-2.25-6.93-6.06-6.93-10.38zM526.45 138.95l-.1-80.28h-2.72l.09 78.85a15.27 15.27 0 009.67 14 15.08 15.08 0 01-6.94-12.57zM664.02 292.33l-23.81-25.16c-.08-.08-.14-.16-.21-.24s-.23-.27-.34-.4a13.93 13.93 0 01-.94-1.24l-.21-.3a14.68 14.68 0 01-.93-1.69.41.41 0 00-.05-.09 1.07 1.07 0 00-.07-.19 13.66 13.66 0 01-.59-1.62c0-.1-.07-.2-.1-.3a14.32 14.32 0 01-.37-1.82v-.41c-.05-.51-.08-1-.08-1.52v-.42a13.54 13.54 0 01.17-1.8c0-.13 0-.25.07-.38a13.41 13.41 0 01.36-1.52c0-.12.07-.25.11-.37a12.91 12.91 0 01.7-1.74c0-.08.08-.16.12-.24a15 15 0 01.84-1.44l.23-.34a14.08 14.08 0 011.2-1.5v-.06l23.32-25.16a15.15 15.15 0 0116.87-3.64 15.18 15.18 0 00-19.45 2.26l-23.32 25.17v.05a14.08 14.08 0 00-1.2 1.5l-.23.34a14 14 0 00-.84 1.45l-.12.24a12.91 12.91 0 00-.7 1.74c0 .12-.07.24-.11.36a13.94 13.94 0 00-.36 1.52c0 .13-.05.26-.07.38a12.16 12.16 0 00-.16 1.8v.42c0 .51 0 1 .08 1.52 0 .14 0 .28.05.41a14.32 14.32 0 00.37 1.82c0 .1.07.2.1.3a13.66 13.66 0 00.59 1.62 1.46 1.46 0 01.07.19l.06.09a13.35 13.35 0 00.92 1.7l.21.3a15.41 15.41 0 00.94 1.23c.11.14.22.27.34.4s.13.17.21.25l23.81 25.16a14.87 14.87 0 005.15 3.53 14.77 14.77 0 01-2.63-2.16zM730.02 233.1c10.33-11.31 12.79-28.27 12.65-35.67-.07-4-.86-18-7.76-29.47a30.21 30.21 0 00-12.16-11.69 31.09 31.09 0 019.47 10.09c6.9 11.46 7.69 25.46 7.76 29.48.14 7.39-2.32 24.36-12.65 35.66-6.72 7.35-15.52 10.92-26.91 10.92h-12.5c-.15.2-.29.41-.45.6l-.84 1h16.48c11.4 0 20.2-3.57 26.91-10.92zM628 126.85h76.18c12.53 0 23.23 2.59 32.21 7-9.51-5.31-21.11-8.45-34.93-8.45H628zM597.85 138.93V43.59c0-8.42 7.1-15.24 15.87-15.24a16.54 16.54 0 016.2 1.2 16.33 16.33 0 00-8.93-2.64c-8.76 0-15.86 6.83-15.86 15.25v95.34a15.25 15.25 0 009.66 14 15.09 15.09 0 01-6.94-12.57zM340.38 230.25l-1.07 2.47 2.11 4.99h-4.29l-.63 1.43h7.64l-3.76-8.89zM292.44 265.63l9.06-20.74.06-.15 26.76-61.25a15.21 15.21 0 0114-8.88 15.5 15.5 0 015.81 1.19 15.47 15.47 0 00-8.54-2.63 15.23 15.23 0 00-14 8.88l-26.75 61.26-.07.15-9.02 20.74a14.3 14.3 0 008.07 19 14.17 14.17 0 01-5.38-17.57zM362.91 276.74l-5-11.75h-2.11l4.35 10.31a14.67 14.67 0 008.1 7.87 14.5 14.5 0 01-5.34-6.43zM369.56 189.09a14.3 14.3 0 0114.11-14.48h46a13.87 13.87 0 015.43 1.11 13.81 13.81 0 00-8-2.55h-46a14.3 14.3 0 00-14.1 14.49 14.5 14.5 0 008.66 13.37 14.59 14.59 0 01-6.1-11.94zM394.35 271.24v-67.66h-2.73v66.23a14.51 14.51 0 009.27 13.37 14.31 14.31 0 01-6.54-11.94zM508.75 256.43a15.61 15.61 0 019.75.66 15.56 15.56 0 00-12.47-2.09c-11.72 3-21.25 3.21-27.45.69 5.9 3.95 16.57 4.23 30.17.74z" fill="#fff"/><path d="M461.31 275.16c-12.61-9.3-19.27-24.49-19.27-43.91 0-19.78 8.36-36.67 22.95-46.33 14.85-9.84 34.24-11.16 54.6-3.73l.48.21a15.39 15.39 0 00-3.21-1.64c-20.35-7.44-39.75-6.12-54.6 3.73-14.58 9.66-22.95 26.55-22.95 46.33 0 19.42 6.67 34.61 19.28 43.91a45.51 45.51 0 007.46 4.45 44.19 44.19 0 01-4.74-3.02zM533.46 272.83v-82.15c0-8 6.74-14.49 15.07-14.49a15.53 15.53 0 015.81 1.12 15.46 15.46 0 00-8.53-2.55c-8.33 0-15.08 6.49-15.08 14.49v82.15a14.49 14.49 0 009.27 13.34 14.31 14.31 0 01-6.54-11.91zM563.6 216.74h35v-25.81c0-8 6.75-14.49 15.08-14.49a15.53 15.53 0 015.81 1.12 15.41 15.41 0 00-8.54-2.55c-8.32 0-15.07 6.48-15.07 14.48v25.84H563.6zM598.64 272.83v-27.09h-2.72v25.67a14.48 14.48 0 009.26 13.33 14.31 14.31 0 01-6.54-11.91zM102.99 169.6a14 14 0 001.24 17.43 15 15 0 005.54 3.83 14.78 14.78 0 01-2.81-2.4 14.05 14.05 0 01-.21-18.72zM72.08 253.13a46.09 46.09 0 0021.61 6.36h73l13.5-70.11a15.15 15.15 0 0120.61-10.94 15.14 15.14 0 00-23.33 9.48l-13.5 70.1h-73a45.47 45.47 0 01-18.89-4.89zM226.13 232.08l17-44.77a15.1 15.1 0 0115.32-9.49 15.57 15.57 0 014.64 1.08 15.37 15.37 0 00-7.36-2.51 15.1 15.1 0 00-15.32 9.49l-15.91 41.86zM213.55 276.2l-12.38-32.67-.74 3.78 10.4 27.43a14.71 14.71 0 008.2 8.3 14.53 14.53 0 01-5.48-6.84zM152.24 141.3c.22.08.43.19.65.28-.33-.22-.68-.41-1-.61zM260.95 274.05l-6.42-31.22-1.58 4.15 5.27 25.64a14.61 14.61 0 008.93 10.53 14.42 14.42 0 01-6.2-9.1z" fill="#fff"/><path d="M23.75 212.74c0-13.48 1.24-30.84 10.9-45.55 11.68-17.77 32.1-26.79 60.62-26.79h.48l11.92.36a14.07 14.07 0 01.69-19 15.5 15.5 0 0116.83-3.46 15.51 15.51 0 00-19.55 2 14.06 14.06 0 00-.69 19l-11.92-.35h-.48c-28.54 0-48.94 9-60.63 26.81-9.67 14.71-10.9 32.07-10.9 45.55 0 21.84 12.22 50.29 38.66 63.54-24.56-13.77-35.93-41.01-35.93-62.11z" fill="#fff"/></svg>