<svg viewBox="53.4 338.2 488.5 165.4" xmlns="http://www.w3.org/2000/svg"><path d="M127.7 347.7l-48.8-.1-19 111 35.4-1.1 4.9-30.9 15.6-.3c22.6-.5 48.2-14.9 51.6-40.4 3.4-24.9-17.8-38.2-39.7-38.2zm-7.4 49.3l-15.4.2 3.3-21.2 15.3-.1c7.6-.1 11.9 4 10.9 10.4-.9 6.4-6.5 10.6-14.1 10.7zm41.1 58.5l33.4-1 9.4-78.6-32.3.3zm27-81.5c8.6-.1 16-6.2 16.9-13.9.9-7.7-5-13.7-13.4-13.7-8.5 0-16 6-17 13.8-1.1 7.8 4.9 13.9 13.5 13.8zm60.6.3c-23.2.1-43.6 17.7-46.3 40.3-2.7 23 14.1 40.7 38.1 40 11.4-.3 19.1-4.2 23.6-7.4l1.3-.9 2.8-30.6-5.3 4.3c-5.9 4.7-10.6 5.5-14.9 5.6-5.5.1-12.9-3.4-12-11.6s8.9-11.9 14.4-12c5-.1 9.3.7 13.8 4.7l4.5 3.9 2.7-29.3-1.1-.8c-3.7-2.9-10.5-6.3-21.6-6.2zm121.4.5l-41 .3-22.5 19.5 4.1-51.9-29.8-.1-9.9 109.6 31.2-1 1.3-17.1 6.7-6 17.2 22.4 37.5-1.2-31.9-41.5zM501.849 449.552l-17.189-.136-1.435 19.568-26.13.994 1.681-20.795-53.956.309 2.007-21.893 59.687-56.721 25.399-.113-5.14 57.154 16.941.136-1.865 21.497zm-41.322-21.817l2.518-23.273-23.359 23.545 20.841-.272z" fill="#6CA550"/><path fill="#6CA550" d="M459.2 503.6c-45.6 0-82.7-37.1-82.7-82.7s37.1-82.7 82.7-82.7 82.7 37.1 82.7 82.7-37.1 82.7-82.7 82.7zm0-156.8c-40.8 0-74.1 33.2-74.1 74.1s33.2 74.1 74.1 74.1 74.1-33.2 74.1-74.1-33.3-74.1-74.1-74.1zm-53.7 151.4s-20.4-14-29-33.3L53.4 476.7v7.5l352.1 14z"/></svg>