<svg xmlns="http://www.w3.org/2000/svg" viewBox="0 0 506.545 176.219"><defs><style>.a{fill:#7562ab}</style></defs><path class="a" d="M420.13 176.219A86.415 86.415 0 1 1 506.545 89.8a86.513 86.513 0 0 1-86.415 86.419Zm0-162.123A75.708 75.708 0 1 0 495.839 89.8a75.793 75.793 0 0 0-75.709-75.7Z"/><path class="a" d="M1.192 146.479 0 155.623l365.991 17.817s-23.857-13.92-33-38.175ZM15.214 19.727l51.371-2.238c26.056-1.134 43.77 11.445 40.589 39.319-2.619 22.955-18.464 37.884-41.115 38.872l-20.726.9-3.86 33.837-39.084 1.7Zm33.352 48.532 4-.173c7.1-.309 14.94-1.838 15.977-10.932 1-8.793-7.236-8.879-13.9-8.589l-3.849.168ZM114.01 48.5l38.2-1.663-9.032 79.152-38.2 1.664Zm42.909-26.194c-1.48 12.969-12.193 19.072-23.148 19.548s-20.375-4.749-18.9-17.717c1.309-11.479 11.14-18.876 23.132-19.4s20.226 6.093 18.916 17.57ZM221.276 77.944c-3.606-3.255-7.838-6.186-13.316-5.947a13.646 13.646 0 0 0-13.335 12.3c-.714 6.26 3.741 11.111 9.958 10.839 5.922-.258 10.7-3.432 15.5-6.756l-5.336 32.567c-6.143 2.2-13.009 4.273-19.671 4.565-25.464 1.107-42.023-12.558-39-39.092 2.67-23.4 21.787-42.479 45.327-43.5a72.552 72.552 0 0 1 23.523 2.979ZM235.869 1.664 274.064 0l-8.114 71.1.888-.038 3.874-6.845 14.43-23.173 44.558-1.937-33.29 40.013 25.739 39.08-45 1.961-12.675-28.377-.888.039-3.318 29.067-38.194 1.664ZM425.067 71.637a41.527 41.527 0 0 0-6.369.534l2.057-7.984h34.32l5.025-25.644h-58.152l-14.92 57.168 4.816-1.927a46.423 46.423 0 0 1 17.228-3.535c11.393 0 17.928 4.926 17.928 13.515 0 9.291-5.328 14.618-14.618 14.618-7.661 0-15.235-3.35-24.556-10.865l-2.765-2.228-10.35 26.043 1.694 1.188a63.762 63.762 0 0 0 37.355 11.506c25.486 0 42.607-16.291 42.607-40.538 0-19.051-12.578-31.851-31.3-31.851Z"/></svg>