<svg viewBox="53.4 338.2 488.5 165.4" xmlns="http://www.w3.org/2000/svg"><path d="M127.7 347.7l-48.8-.1-19 111 35.4-1.1 4.9-30.9 15.6-.3c22.6-.5 48.2-14.9 51.6-40.4 3.4-24.9-17.8-38.2-39.7-38.2zm-7.4 49.3l-15.4.2 3.3-21.2 15.3-.1c7.6-.1 11.9 4 10.9 10.4-.9 6.4-6.5 10.6-14.1 10.7zm41.1 58.5l33.4-1 9.4-78.6-32.3.3zm27-81.5c8.6-.1 16-6.2 16.9-13.9.9-7.7-5-13.7-13.4-13.7-8.5 0-16 6-17 13.8-1.1 7.8 4.9 13.9 13.5 13.8zm60.6.3c-23.2.1-43.6 17.7-46.3 40.3-2.7 23 14.1 40.7 38.1 40 11.4-.3 19.1-4.2 23.6-7.4l1.3-.9 2.8-30.6-5.3 4.3c-5.9 4.7-10.6 5.5-14.9 5.6-5.5.1-12.9-3.4-12-11.6s8.9-11.9 14.4-12c5-.1 9.3.7 13.8 4.7l4.5 3.9 2.7-29.3-1.1-.8c-3.7-2.9-10.5-6.3-21.6-6.2zm121.4.5l-41 .3-22.5 19.5 4.1-51.9-29.8-.1-9.9 109.6 31.2-1 1.3-17.1 6.7-6 17.2 22.4 37.5-1.2-31.9-41.5zM497.489 445.981c-9.003 21.931-20.93 27.893-44.707 27.64-30.719-.325-36.79-16.473-36.603-35.68l28.484.293c.08 9.06 7.126 9.263 13.201 9.137 11.044-.229 10.01-3.97 10.879-6.102 1.422-3.48 2.73-11.61-6.217-11.325l-9.56.028 3.47-20.67 9.565-.293c10.964-3.194 8.853-6 9.836-10.485.36-1.636-.507-7.594-10.661-7.594-6.582.002-13.57 1.602-14.194 10.736l-29.053-.287c2.826-12.122 12.404-35.063 43.34-34.766 24.693.238 38.133 12.227 37.898 28.81-.121 8.621-6.399 17.896-13.418 23.09 9.809 5.356 11.906 17.318 7.74 27.468z" fill="#E08000"/><path fill="#E08000" d="M459.2 503.6c-45.6 0-82.7-37.1-82.7-82.7s37.1-82.7 82.7-82.7 82.7 37.1 82.7 82.7-37.1 82.7-82.7 82.7zm0-156.8c-40.8 0-74.1 33.2-74.1 74.1s33.2 74.1 74.1 74.1 74.1-33.2 74.1-74.1-33.3-74.1-74.1-74.1zm-53.7 151.4s-20.4-14-29-33.3L53.4 476.7v7.5l352.1 14z"/></svg>