<svg xmlns="http://www.w3.org/2000/svg" viewBox="0 0 173.48 173.48"><defs><radialGradient id="d" cx="41.42" cy="81.18" r="10.83" fx="41.42" fy="81.18" gradientTransform="rotate(45 894.92 84.54) scale(8.09)" gradientUnits="userSpaceOnUse"><stop offset="0" stop-color="#fff"/><stop offset=".53" stop-color="#fdfdfd"/><stop offset=".71" stop-color="#f6f6f6"/><stop offset=".85" stop-color="#eaebeb"/><stop offset=".96" stop-color="#d9dbdc"/><stop offset="1" stop-color="#d1d3d4"/></radialGradient><style>.g{fill:#6660aa}.i{fill:#20c4f4}</style></defs><g style="isolation:isolate"><g id="b"><circle id="c" cx="86.74" cy="86.74" r="86.74" style="fill:url(#d)" transform="rotate(-45 86.74 86.74)"/><g id="e"><path d="M134.92 113.2v14.32H117.2V113.2H75.95V98.01l34.45-70.82h20.12L96.08 98h21.12V76.92h17.72v21.09h9.2v15.2h-9.2Z" class="g"/><g style="mix-blend-mode:multiply"><path d="M59.63 112.79v5.35H72.4v8.75H36.6v-14.1c0-7.9 5.63-12.16 11.51-12.16 5.89 0 11.52 4.25 11.52 12.16Zm-15.14.4v4.95h7.24v-4.95c0-2.4-1.76-3.8-3.62-3.8a3.61 3.61 0 0 0-3.62 3.8ZM72.4 98.04H36.6v-8.75h35.8v8.75ZM72.7 72.24c0 4.15-1.4 7.3-4.02 9.9-3.77 3.75-8.8 3.6-14.18 3.6s-10.41.15-14.18-3.6a13.22 13.22 0 0 1-4.03-9.9c0-6.75 3.78-12.2 11.67-13.5v8.9c-2.01.55-3.82 1.65-3.82 4.55 0 1.6.65 2.8 1.5 3.45 1.06.8 2.32 1.35 8.86 1.35s7.8-.55 8.85-1.35a4.24 4.24 0 0 0 1.51-3.45c0-2.9-1.81-4-3.82-4.55v-8.9c7.9 1.3 11.67 6.75 11.67 13.5ZM72.4 36.79l-14.68 8.2 3.47 3H72.4v8.65H36.6v-8.65h12.67L36.6 37.69v-10.7l14.48 12.15L72.4 26.59v10.2Z" class="i"/></g><path d="M36.34 134.17h1.98l3.12 7.43h.06l3.1-7.43h1.97v9.82h-1.33v-8.07h-.03l-3.31 8.07h-.89l-3.31-8.07h-.03v8.07h-1.33v-9.82ZM48.36 142.19c0-1.32 1.02-2.28 3.6-2.28h.93v-.23c0-.9-.65-1.43-1.58-1.43-.7 0-1.13.16-1.86.75l-.74-.78a3.9 3.9 0 0 1 2.6-.97c1.99 0 2.75 1.12 2.75 2.15v3.52c0 .2.01.72.05 1.07h-1.1c-.03-.33-.05-.61-.05-1h-.02c-.57.85-1.3 1.16-2.3 1.16-1.32 0-2.28-.74-2.28-1.96Zm1.25-.1c0 .68.45 1.07 1.41 1.07 1.13 0 1.87-.7 1.87-1.97v-.36h-.7c-2.03 0-2.58.62-2.58 1.26ZM57.51 135.06c0 .51-.43.91-.91.91a.9.9 0 0 1-.92-.91c0-.52.43-.92.92-.92.5 0 .91.42.91.92Zm-.3 8.93h-1.24v-6.58h1.25V144ZM60.45 137.41v1.02h.03c.34-.74 1.2-1.18 2.16-1.18 1.47 0 2.39.97 2.39 2.45V144h-1.25v-3.93c0-1-.56-1.65-1.5-1.65-1.15 0-1.83.82-1.83 2.14v3.44H59.2v-6.58h1.25ZM73.12 140.81v.35h-5.27c0 1.14 1.07 1.91 2.22 1.91.77 0 1.32-.39 1.8-.98l.95.72c-.7.9-1.65 1.34-2.91 1.34-1.96 0-3.39-1.35-3.39-3.45 0-1.94 1.4-3.45 3.4-3.45 1.94 0 3.2 1.29 3.2 3.56Zm-3.23-2.56a2.02 2.02 0 0 0-2.04 1.91h3.94c-.04-1.23-.73-1.91-1.9-1.91Z" class="g"/></g></g></g></svg>