<svg xmlns="http://www.w3.org/2000/svg" viewBox="0 0 173.48 173.48"><defs><radialGradient id="d" cx="41.42" cy="81.18" r="10.83" fx="41.42" fy="81.18" gradientTransform="rotate(45 894.92 84.54) scale(8.09)" gradientUnits="userSpaceOnUse"><stop offset="0" stop-color="#fff"/><stop offset=".53" stop-color="#fdfdfd"/><stop offset=".71" stop-color="#f6f6f6"/><stop offset=".85" stop-color="#eaebeb"/><stop offset=".96" stop-color="#d9dbdc"/><stop offset="1" stop-color="#d1d3d4"/></radialGradient><style>.g{fill:#6660aa}.i{fill:#20c4f4}</style></defs><g style="isolation:isolate"><g id="b"><circle id="c" cx="86.74" cy="86.74" r="86.74" style="fill:url(#d)" transform="rotate(-45 86.74 86.74)"/><g id="e"><g style="mix-blend-mode:multiply"><path d="M59.63 112.79v5.35H72.4v8.75H36.6v-14.1c0-7.9 5.63-12.16 11.51-12.16 5.89 0 11.52 4.25 11.52 12.16Zm-15.14.4v4.95h7.24v-4.95c0-2.4-1.76-3.8-3.62-3.8a3.61 3.61 0 0 0-3.62 3.8ZM72.4 98.04H36.6v-8.75h35.8v8.75ZM72.7 72.24c0 4.15-1.4 7.3-4.02 9.9-3.77 3.75-8.8 3.6-14.18 3.6s-10.41.15-14.18-3.6a13.22 13.22 0 0 1-4.03-9.9c0-6.75 3.78-12.2 11.67-13.5v8.9c-2.01.55-3.82 1.65-3.82 4.55 0 1.6.65 2.8 1.5 3.45 1.06.8 2.32 1.35 8.86 1.35s7.8-.55 8.85-1.35a4.24 4.24 0 0 0 1.51-3.45c0-2.9-1.81-4-3.82-4.55v-8.9c7.9 1.3 11.67 6.75 11.67 13.5ZM72.4 36.79l-14.68 8.2 3.47 3H72.4v8.65H36.6v-8.65h12.67L36.6 37.69v-10.7l14.48 12.15L72.4 26.59v10.2Z" class="i"/></g><path d="M109.93 128.6c-16.17 0-31.2-9.07-31.65-29.73l-.01-9.18H96.5l.01 9.09c.4 8.8 6.35 13.38 13.42 13.38 7.86 0 13.46-4.92 13.46-13.91 0-8.29-5.04-13.77-14.02-13.77h-2.66V68.61h2.66c8.84 0 12.62-5.48 12.62-12.5 0-8.43-5.6-12.78-12.2-12.78-6.87 0-12.87 5.85-13.29 13.44H78.27c.42-17.84 14.7-29.88 31.52-29.88 17.67 0 30.43 11.8 30.43 28.66 0 10.81-4.9 17-11.5 20.5 7.15 3.8 12.9 10.68 12.9 22.76 0 19.95-14.58 29.78-31.69 29.78ZM36.54 134.15h1.98l3.12 7.44h.05l3.1-7.44h1.98v9.82h-1.33v-8.07h-.03l-3.31 8.07h-.9l-3.3-8.07h-.03v8.07h-1.33v-9.82ZM48.56 142.17c0-1.32 1.02-2.27 3.6-2.27h.93v-.24c0-.89-.65-1.43-1.58-1.43-.7 0-1.14.17-1.86.75l-.75-.78a3.9 3.9 0 0 1 2.61-.97c1.98 0 2.75 1.13 2.75 2.15v3.53c0 .2.01.72.05 1.06h-1.1c-.04-.33-.05-.6-.05-1h-.03c-.57.85-1.3 1.17-2.3 1.17-1.32 0-2.27-.75-2.27-1.97Zm1.24-.1c0 .68.46 1.07 1.42 1.07 1.12 0 1.87-.7 1.87-1.97v-.36h-.7c-2.03 0-2.59.63-2.59 1.26ZM57.7 135.04a.9.9 0 1 1-1.83 0c0-.51.44-.91.92-.91.5 0 .92.41.92.91Zm-.28 8.93h-1.25v-6.57h1.25v6.57ZM60.65 137.4v1.01h.02c.35-.73 1.21-1.18 2.17-1.18 1.47 0 2.38.97 2.38 2.46v4.28h-1.24v-3.92c0-1.01-.56-1.65-1.5-1.65-1.15 0-1.83.82-1.83 2.14v3.43H59.4v-6.57h1.25ZM73.32 140.8v.35h-5.27c0 1.13 1.07 1.91 2.22 1.91.76 0 1.32-.39 1.8-.99l.95.73c-.71.9-1.65 1.34-2.92 1.34-1.95 0-3.38-1.36-3.38-3.45 0-1.94 1.4-3.46 3.4-3.46 1.94 0 3.2 1.3 3.2 3.57Zm-3.23-2.57a2.02 2.02 0 0 0-2.04 1.92h3.94c-.04-1.24-.74-1.92-1.9-1.92Z" class="g"/></g></g></g></svg>