<svg xmlns="http://www.w3.org/2000/svg" id="b" viewBox="0 0 277.87 109.68"><defs><style>.d{fill:#f9a13a}.d,.e{stroke:#000}.d{stroke-width:1.19971px}.e{stroke-width:.89978px}</style></defs><g id="c"><path d="M266.85 71.3c0 5.03 5.15 1.25 5.15 6.5 0 2.73.82 7.6-3.8 7.6h-30.38c-4.94 0-3.8-5.47-3.8-8.1 0-5.35 8.7-2.4 8.7-6.6v-7.8h-21.95c-7.14 0-10.19-2.73-9.6-5.93 1.8-9.85 11.97-32.35 21.08-43.49 5.41-6.6 7.14-5.98 15.96-5.98 9.45 0 18.64-2.58 18.64 7.4v38.97h5.88c3.89 0 5.14 1.36 5.14 4.51 0 3.15-1.25 4.52-5.14 4.52h-5.88v8.4Zm-23.4-43.14h-.3c-7.25 9.66-12.14 16.87-16.23 28.1h16.54v-28.1Z"/><path d="M15.9 35.17c0-3.8-.42-4.2-1.54-4.2-.72 0-1.24.2-1.95.2-2.98 0-4.31-3.9-4.31-6.57 0-4.51 2.97-7.9 6.77-7.9 4.4 0 7.9.72 12.1.72 4 0 8.93-.71 13.75-.71 14.98 0 22.46 17.02 22.46 34.56 0 17.24-6.87 36.22-24.51 36.22-4.2 0-8.2-.72-12.52-.72s-6.87.72-11.08.72c-3.38 0-6.97-2.57-6.97-7.9 0-3.8 1.95-6.57 4.3-6.57.72 0 1.34.2 2.06.2 1.33 0 1.43-1.02 1.43-4.2V35.17Zm15.9 34.26c0 3.6 1.02 5.23 3.58 5.23 6.88 0 11.19-8 11.19-22.67 0-15.59-5.13-22.36-10.98-22.36-3.18 0-3.8 1.74-3.8 7.18v32.62ZM103.17 71.69c0 2.77.5 3.59 1.33 3.59.61 0 1.13-.2 1.54-.2 1.43 0 3.38 1.22 3.38 4.92 0 4.72-3.09 7.7-7.7 7.7-2.78 0-7.38-.93-8.5-4.83a17.75 17.75 0 0 1-13.03 5.44c-7.8 0-14.57-5.03-14.57-15.9 0-10.88 4.72-14.98 15.9-17.13 5.64-1.03 8.1-2.57 8.1-6.57 0-3.59-2.05-5.33-4-5.33-1.12 0-2.35.82-2.35 2.05 0 .82.1 1.54.1 2.36a6.22 6.22 0 0 1-6.46 6.15c-4.72 0-8.1-3.8-8.1-8.51 0-6.26 5.33-12.31 16.81-12.31 9.85 0 17.55 3.08 17.55 17.64V71.7Zm-13.54-7.6c-7.08 1.34-10.26 3.4-10.26 7.5 0 2.36 1.23 5.12 4.4 5.12 3.19 0 5.86-2.66 5.86-6.77V64.1Z" class="e"/><path d="M117.26 50.66c0-4-.2-4.41-1.44-4.41-.71 0-2.43.2-3.35.2-2.26 0-3.7-2.36-3.7-5.64 0-4.4 2.26-6.46 4.83-6.46 2.26 0 5 .51 7.87.51s4.5-.51 6.36-.51c2.05 0 2.97.72 2.97 3.7v33.13c0 2.87 2.21 4.2 3.44 4.2.72 0 1.23-.2 2.05-.2 2.05 0 3.29 2.25 3.29 5.23 0 3.9-1.95 6.87-5.34 6.87-2.67 0-6.52-.72-10.2-.72-3.7 0-6.95.72-9.62.72-3.39 0-5.34-2.98-5.34-6.87 0-2.98 1.24-5.23 3.29-5.23.82 0 2.53.2 3.25.2 1.23 0 1.64-1.33 1.64-4.2V50.66Zm13.94-27.63c0 4.62-2.88 9.34-8.1 9.34-5.24 0-8.11-4.72-8.11-9.34 0-4.61 2.87-9.33 8.1-9.33 5.23 0 8.1 4.72 8.1 9.33Z" class="e"/><path d="M148.05 32.1c0-4-.2-4.42-1.44-4.42-.71 0-1.23.2-2.15.2-2.26 0-3.7-2.35-3.7-5.64 0-4.4 2.26-6.46 4.83-6.46 2.25 0 3.8.51 6.67.51s4.51-.5 6.36-.5c2.05 0 2.97.71 2.97 3.68v51.7c0 2.88.41 4.21 1.64 4.21.72 0 1.23-.2 2.05-.2 2.06 0 3.29 2.25 3.29 5.23 0 3.9-1.95 6.87-5.34 6.87-2.66 0-4.72-.51-8.4-.51-3.7 0-7.55.51-10.22.51-3.39 0-5.33-2.98-5.33-6.87 0-2.98 1.23-5.23 3.28-5.23.82 0 3.13.2 3.85.2 1.23 0 1.64-1.33 1.64-4.2V32.09Z" class="e"/><path d="M191.88 69.43h.2l4.72-20.41c.31-.72.31-1.54.31-1.75 0-.61-1.13-1.33-2.15-1.95-1.34-.82-1.64-2.35-1.64-4.1 0-4.61 2.05-6.87 5.64-6.87 2.15 0 3.7.51 6.15.51 2.06 0 3.8-.51 5.85-.51 3.08 0 5.44 1.23 5.44 5.95 0 3.18-1.44 5.85-3.5 5.85-.6 0-.91-.1-1.53-.1-1.03 0-1.13.6-1.85 2.97L200.3 80.3c-5.74 19.4-13.03 28.73-24.2 28.93-7.08 0-12.11-6.63-12.11-12.79 0-5.64 4.2-8.82 7.7-8.82 4.2 0 6.97 3.49 6.45 9.13 4.31-1.74 6.16-8.14 6.16-10.5 0-.5 0-.92-.2-1.53L173.1 48.4c-.62-2.25-.92-2.25-3.08-2.25-2.67 0-4.3-1.95-4.3-5.85 0-3.8 2.15-5.95 4.92-5.95 2.87 0 4.5.51 7.38.51 2.46 0 4.72-.51 7.6-.51 2.25 0 5.02 1.54 5.02 6.46 0 3.18-.82 4.31-1.95 4.82-1.33.62-1.85.93-1.85 1.54 0 .3.31 1.23.41 1.85l4.62 20.41Z" class="e"/><path d="M8.4 28.27c0-3.8-.41-4.2-1.54-4.2-.72 0-1.23.2-1.95.2-2.98 0-4.31-3.9-4.31-6.56 0-4.52 2.97-7.9 6.77-7.9 4.41 0 7.9.71 12.1.71 4 0 8.93-.71 13.75-.71 14.98 0 22.47 17.03 22.47 34.57 0 17.23-6.88 36.2-24.52 36.2-4.2 0-8.2-.71-12.52-.71-4.3 0-6.87.72-11.07.72-3.39 0-6.98-2.57-6.98-7.9 0-3.8 1.95-6.57 4.3-6.57.73 0 1.34.2 2.06.2 1.33 0 1.44-1.02 1.44-4.2V28.27Zm15.9 34.26c0 3.6 1.02 5.23 3.59 5.23 6.87 0 11.18-8 11.18-22.67 0-15.59-5.13-22.36-10.98-22.36-3.18 0-3.8 1.75-3.8 7.18v32.62ZM95.67 64.79c0 2.77.51 3.59 1.33 3.59.62 0 1.13-.2 1.54-.2 1.44 0 3.38 1.23 3.38 4.92 0 4.72-3.09 7.7-7.7 7.7-2.77 0-7.38-.93-8.5-4.83a17.75 17.75 0 0 1-13.03 5.44c-7.8 0-14.57-5.03-14.57-15.9 0-10.88 4.72-14.98 15.9-17.13 5.64-1.03 8.1-2.57 8.1-6.57 0-3.59-2.05-5.33-4-5.33-1.12 0-2.35.82-2.35 2.05 0 .82.1 1.54.1 2.36a6.22 6.22 0 0 1-6.46 6.15c-4.72 0-8.1-3.8-8.1-8.51 0-6.26 5.33-12.31 16.82-12.31 9.84 0 17.54 3.08 17.54 17.64V64.8Zm-13.54-7.6c-7.08 1.34-10.26 3.4-10.26 7.5 0 2.36 1.23 5.13 4.41 5.13s5.85-2.67 5.85-6.77V57.2Z" class="d"/><path d="M109.76 43.76c0-4-.2-4.41-1.43-4.41-.72 0-2.43.2-3.36.2-2.25 0-3.69-2.35-3.69-5.64 0-4.4 2.26-6.46 4.82-6.46 2.26 0 5 .51 7.87.51s4.51-.5 6.36-.5c2.05 0 2.97.7 2.97 3.68v33.14c0 2.87 2.21 4.2 3.44 4.2.72 0 1.23-.2 2.06-.2 2.05 0 3.28 2.25 3.28 5.23 0 3.9-1.95 6.87-5.34 6.87-2.66 0-6.51-.72-10.2-.72-3.7 0-6.95.72-9.62.72-3.38 0-5.33-2.97-5.33-6.87 0-2.98 1.23-5.23 3.28-5.23.82 0 2.53.2 3.25.2 1.23 0 1.64-1.33 1.64-4.2V43.76Zm13.94-27.62c0 4.61-2.87 9.33-8.1 9.33-5.24 0-8.11-4.72-8.11-9.33 0-4.62 2.87-9.34 8.1-9.34 5.24 0 8.1 4.72 8.1 9.34Z" class="d"/><path d="M140.55 25.2c0-4-.2-4.42-1.43-4.42-.72 0-1.23.2-2.16.2-2.25 0-3.7-2.35-3.7-5.63 0-4.41 2.27-6.47 4.83-6.47 2.26 0 3.8.52 6.67.52s4.51-.52 6.36-.52c2.05 0 2.97.72 2.97 3.7v51.7c0 2.87.41 4.2 1.64 4.2.72 0 1.24-.2 2.06-.2 2.05 0 3.28 2.25 3.28 5.23 0 3.9-1.95 6.87-5.34 6.87-2.66 0-4.72-.51-8.4-.51-3.7 0-7.55.51-10.22.51-3.38 0-5.33-2.97-5.33-6.87 0-2.98 1.23-5.23 3.28-5.23.82 0 3.13.2 3.85.2 1.23 0 1.64-1.33 1.64-4.2V25.19Z" class="d"/><path d="M184.38 62.53h.2l4.73-20.41c.3-.72.3-1.54.3-1.74 0-.62-1.12-1.34-2.15-1.95-1.33-.82-1.64-2.36-1.64-4.1 0-4.62 2.05-6.88 5.64-6.88 2.15 0 3.7.51 6.16.51 2.05 0 3.8-.5 5.84-.5 3.08 0 5.44 1.22 5.44 5.94 0 3.18-1.44 5.85-3.49 5.85-.61 0-.92-.1-1.54-.1-1.02 0-1.13.61-1.84 2.97l-9.24 31.29c-5.74 19.38-13.02 28.72-24.2 28.92-7.08 0-12.1-6.63-12.1-12.79 0-5.64 4.2-8.82 7.68-8.82 4.21 0 6.98 3.49 6.47 9.13 4.3-1.74 6.15-8.13 6.15-10.5 0-.5 0-.92-.2-1.53L165.6 41.5c-.62-2.25-.92-2.25-3.08-2.25-2.66 0-4.3-1.95-4.3-5.85 0-3.8 2.15-5.95 4.92-5.95 2.87 0 4.51.51 7.38.51 2.47 0 4.72-.5 7.6-.5 2.25 0 5.02 1.53 5.02 6.45 0 3.18-.82 4.31-1.95 4.82-1.33.62-1.84.93-1.84 1.54 0 .31.3 1.23.4 1.85l4.62 20.41Z" class="d"/><path d="M261.3 64.7c0 5.04 5.15 1.26 5.15 6.5 0 2.73.82 7.6-3.8 7.6h-30.38c-4.93 0-3.8-5.47-3.8-8.09 0-5.35 8.7-2.41 8.7-6.61v-7.8h-21.95c-7.14 0-10.18-5.12-9.6-8.33 1.8-9.85 11.97-29.94 21.09-41.09C232.1.28 233.84.9 242.66.9c9.45 0 18.64-2.58 18.64 7.4v38.97h5.88c3.89 0 5.15 1.36 5.15 4.51 0 3.15-1.26 4.52-5.15 4.52h-5.88v8.4Zm-23.4-45.53h-.3c-7.25 9.65-12.14 16.87-16.23 28.1h16.54v-28.1Z" style="fill:#9bcd65;stroke-width:1.19971px;stroke:#000"/></g></svg>