<svg xmlns="http://www.w3.org/2000/svg" id="b" viewBox="0 0 270.08 111.73"><defs><style>.d,.g{stroke:#000}.d{stroke-width:.919649px}.g{stroke-width:1.2262px;fill:#f9a13a}</style></defs><g id="c"><path d="M16.24 35.57c0-3.88-.41-4.3-1.57-4.3-.73 0-1.26.21-1.99.21-3.04 0-4.4-3.98-4.4-6.7 0-4.62 3.04-8.08 6.92-8.08 4.5 0 8.07.73 12.37.73 4.09 0 9.12-.73 14.05-.73 15.3 0 22.96 17.4 22.96 35.33 0 17.62-7.03 37.01-25.06 37.01-4.3 0-8.39-.73-12.8-.73-4.4 0-7.02.73-11.31.73-3.46 0-7.13-2.62-7.13-8.07 0-3.88 1.99-6.7 4.4-6.7.73 0 1.36.2 2.1.2 1.36 0 1.46-1.05 1.46-4.3v-34.6ZM32.5 70.6c0 3.67 1.04 5.35 3.67 5.35 7.02 0 11.42-8.18 11.42-23.17 0-15.94-5.24-22.86-11.21-22.86-3.25 0-3.88 1.78-3.88 7.34v33.34ZM105.44 72.9c0 2.83.53 3.67 1.37 3.67.63 0 1.15-.21 1.57-.21 1.47 0 3.46 1.25 3.46 5.03 0 4.82-3.16 7.88-7.88 7.88-2.83 0-7.53-.96-8.69-4.94a18.14 18.14 0 0 1-13.31 5.55c-7.97 0-14.89-5.13-14.89-16.25 0-11.11 4.82-15.3 16.25-17.5 5.77-1.06 8.28-2.63 8.28-6.72 0-3.67-2.1-5.45-4.09-5.45-1.15 0-2.4.84-2.4 2.1 0 .84.1 1.57.1 2.4 0 2.74-2.1 6.3-6.6 6.3-4.83 0-8.29-3.88-8.29-8.7 0-6.4 5.45-12.58 17.2-12.58 10.06 0 17.92 3.14 17.92 18.03V72.9ZM91.6 65.14c-7.23 1.36-10.48 3.46-10.48 7.65 0 2.41 1.26 5.25 4.5 5.25 3.26 0 5.98-2.73 5.98-6.93v-5.97Z" class="d"/><path d="M119.85 51.4c0-4.08-.21-4.5-1.47-4.5-.73 0-2.48.2-3.43.2-2.3 0-3.77-2.4-3.77-5.76 0-4.5 2.3-6.6 4.93-6.6 2.3 0 5.1.52 8.04.52 2.93 0 4.61-.53 6.5-.53 2.1 0 3.04.74 3.04 3.78v33.86c0 2.94 2.26 4.3 3.52 4.3.73 0 1.25-.2 2.1-.2 2.1 0 3.35 2.3 3.35 5.34 0 3.98-2 7.02-5.45 7.02-2.73 0-6.67-.73-10.44-.73-3.77 0-7.1.73-9.82.73-3.46 0-5.46-3.04-5.46-7.02 0-3.04 1.26-5.35 3.36-5.35.84 0 2.59.21 3.32.21 1.26 0 1.68-1.36 1.68-4.3V51.4Zm14.24-28.23c0 4.72-2.93 9.54-8.28 9.54s-8.28-4.82-8.28-9.54c0-4.72 2.93-9.54 8.28-9.54s8.28 4.82 8.28 9.54Z" class="d"/><path d="M151.32 32.43c0-4.1-.21-4.51-1.47-4.51-.73 0-1.26.2-2.2.2-2.3 0-3.77-2.4-3.77-5.76 0-4.5 2.3-6.6 4.92-6.6 2.31 0 3.88.52 6.82.52 2.93 0 4.61-.52 6.5-.52 2.1 0 3.04.73 3.04 3.77v52.84c0 2.94.42 4.3 1.68 4.3.73 0 1.25-.2 2.1-.2 2.1 0 3.35 2.3 3.35 5.34 0 3.98-2 7.02-5.45 7.02-2.73 0-4.83-.52-8.6-.52-3.77 0-7.71.52-10.44.52-3.46 0-5.45-3.04-5.45-7.02 0-3.04 1.26-5.35 3.36-5.35.83 0 3.2.21 3.93.21 1.26 0 1.68-1.36 1.68-4.3V32.43Z" style="fill:#231f20;stroke-width:.919649px;stroke:#000"/><path d="M196.12 70.6h.2l4.83-20.87c.32-.74.32-1.58.32-1.79 0-.62-1.16-1.36-2.2-1.99-1.37-.84-1.68-2.4-1.68-4.2 0-4.7 2.1-7.02 5.76-7.02 2.2 0 3.78.53 6.3.53 2.1 0 3.87-.53 5.97-.53 3.14 0 5.56 1.26 5.56 6.08 0 3.25-1.47 5.98-3.57 5.98-.63 0-.94-.1-1.57-.1-1.05 0-1.15.63-1.89 3.04l-9.43 31.97c-5.88 19.82-13.32 29.36-24.75 29.57-7.23 0-12.37-6.78-12.37-13.07 0-5.77 4.3-9.02 7.86-9.02 4.3 0 7.13 3.57 6.6 9.33 4.41-1.78 6.3-8.31 6.3-10.72 0-.53 0-.95-.21-1.58L176.93 49.1c-.63-2.31-.94-2.31-3.14-2.31-2.73 0-4.4-2-4.4-5.98 0-3.87 2.2-6.08 5.03-6.08 2.93 0 4.6.53 7.54.53 2.52 0 4.83-.53 7.76-.53 2.3 0 5.14 1.58 5.14 6.6 0 3.26-.84 4.41-2 4.94-1.36.63-1.88.94-1.88 1.57 0 .31.32 1.26.42 1.89l4.72 20.86Z" class="d"/><path d="M232.13 43.26c10.14 0 15.97-2.47 15.97-15.2 0-7.78-1.43-12.69-9.88-12.69-3.59 0-6.57 4.3-6.5 4.1-.91 2.36-.8 3.99-.8 9.62a8.56 8.56 0 0 1-8.57 8.57c-4.11 0-8.62-3.74-8.62-11.83 0-11.72 17.7-18.17 26.94-18.17 12.05 0 26.58 6.09 26.58 20.17 0 11.15-3.05 17.12-15.67 18.14v.22c12.73.8 18.04 5.86 18.04 20.85 0 16.9-17.8 23.88-32.11 23.88-9.46 0-23.03-7.29-23.56-19.1-.3-6.83 5.46-14.4 10.64-14.29 4.96 0 8.97 7.1 7.55 12.2-1.69 6.04-2.76 3.66-1.55 7.72 1.57 5.26 18.9 2.05 18.9-7.64 0-20.06-11.73-20.8-17.36-20.57v-5.98Z" class="d"/><path d="M8.58 28.52c0-3.88-.42-4.3-1.57-4.3-.74 0-1.26.21-2 .21-3.03 0-4.4-3.98-4.4-6.7 0-4.62 3.04-8.08 6.92-8.08 4.51 0 8.08.73 12.37.73 4.1 0 9.13-.73 14.05-.73 15.31 0 22.97 17.4 22.97 35.33C56.92 62.6 49.89 82 31.86 82c-4.3 0-8.39-.73-12.8-.73-4.4 0-7.02.73-11.32.73-3.46 0-7.13-2.62-7.13-8.07 0-3.88 2-6.71 4.4-6.71.74 0 1.37.2 2.1.2 1.37 0 1.47-1.04 1.47-4.29v-34.6Zm16.25 35.02c0 3.67 1.05 5.35 3.67 5.35 7.03 0 11.43-8.18 11.43-23.17 0-15.94-5.24-22.86-11.22-22.86-3.25 0-3.88 1.78-3.88 7.34v33.34ZM97.78 65.85c0 2.83.52 3.67 1.36 3.67.63 0 1.16-.21 1.58-.21 1.46 0 3.46 1.25 3.46 5.03 0 4.82-3.17 7.88-7.88 7.88-2.83 0-7.54-.96-8.69-4.94a18.14 18.14 0 0 1-13.32 5.55c-7.96 0-14.88-5.14-14.88-16.25s4.82-15.3 16.25-17.5c5.76-1.06 8.28-2.63 8.28-6.72 0-3.67-2.1-5.45-4.09-5.45-1.15 0-2.41.84-2.41 2.1 0 .83.1 1.57.1 2.4 0 2.73-2.1 6.3-6.6 6.3-4.82 0-8.28-3.88-8.28-8.7 0-6.4 5.45-12.59 17.2-12.59 10.06 0 17.92 3.15 17.92 18.04v21.39Zm-13.84-7.76c-7.23 1.36-10.48 3.46-10.48 7.65 0 2.41 1.25 5.24 4.5 5.24 3.26 0 5.98-2.72 5.98-6.92V58.1Z" class="g"/><path d="M112.19 44.35c0-4.09-.21-4.5-1.47-4.5-.74 0-2.49.2-3.43.2-2.3 0-3.77-2.4-3.77-5.76 0-4.51 2.3-6.6 4.92-6.6 2.31 0 5.1.52 8.05.52 2.93 0 4.6-.53 6.5-.53 2.1 0 3.04.74 3.04 3.78v33.86c0 2.94 2.25 4.3 3.51 4.3.74 0 1.26-.2 2.1-.2 2.1 0 3.35 2.3 3.35 5.34 0 3.98-1.99 7.02-5.45 7.02-2.72 0-6.66-.73-10.43-.73-3.78 0-7.1.73-9.83.73-3.46 0-5.45-3.04-5.45-7.02 0-3.04 1.26-5.35 3.36-5.35.83 0 2.58.21 3.32.21 1.26 0 1.68-1.36 1.68-4.3V44.35Zm14.24-28.23c0 4.72-2.94 9.54-8.28 9.54-5.35 0-8.29-4.82-8.29-9.54 0-4.72 2.94-9.54 8.29-9.54 5.34 0 8.28 4.82 8.28 9.54Z" class="g"/><path d="M143.66 25.38c0-4.1-.21-4.51-1.47-4.51-.74 0-1.26.2-2.2.2-2.31 0-3.78-2.4-3.78-5.76 0-4.5 2.3-6.6 4.93-6.6 2.3 0 3.88.52 6.81.52 2.94 0 4.62-.52 6.5-.52 2.1 0 3.05.73 3.05 3.77v52.84c0 2.94.41 4.3 1.67 4.3.74 0 1.26-.2 2.1-.2 2.1 0 3.35 2.3 3.35 5.34 0 3.98-1.99 7.02-5.45 7.02-2.72 0-4.82-.52-8.6-.52-3.77 0-7.7.52-10.43.52-3.46 0-5.45-3.04-5.45-7.02 0-3.04 1.26-5.35 3.35-5.35.84 0 3.2.21 3.94.21 1.26 0 1.68-1.36 1.68-4.3V25.38Z" class="g"/><path d="M188.45 63.54h.21l4.83-20.86c.31-.74.31-1.58.31-1.79 0-.63-1.15-1.36-2.2-1.99-1.36-.84-1.68-2.41-1.68-4.2 0-4.71 2.1-7.02 5.77-7.02 2.2 0 3.77.53 6.29.53 2.1 0 3.88-.53 5.97-.53 3.15 0 5.56 1.26 5.56 6.08 0 3.25-1.46 5.98-3.56 5.98-.63 0-.95-.1-1.57-.1-1.05 0-1.16.62-1.9 3.04l-9.43 31.97c-5.87 19.82-13.31 29.36-24.74 29.57-7.24 0-12.37-6.78-12.37-13.07 0-5.77 4.3-9.02 7.86-9.02 4.3 0 7.13 3.56 6.6 9.33 4.4-1.78 6.3-8.31 6.3-10.73 0-.52 0-.94-.21-1.57l-11.22-37.11c-.63-2.31-.95-2.31-3.15-2.31-2.72 0-4.4-2-4.4-5.98 0-3.87 2.2-6.08 5.03-6.08 2.94 0 4.61.53 7.55.53 2.52 0 4.82-.53 7.76-.53 2.3 0 5.14 1.58 5.14 6.6 0 3.26-.84 4.41-2 4.94-1.36.62-1.88.94-1.88 1.57 0 .31.31 1.26.42 1.89l4.71 20.86Z" class="g"/><path d="M224.46 36.21c10.14 0 15.98-2.48 15.98-15.2 0-7.78-1.43-12.69-9.88-12.69-3.6 0-6.58 4.3-6.5 4.1-.92 2.36-.81 3.99-.81 9.62a8.56 8.56 0 0 1-8.57 8.56c-4.1 0-8.61-3.74-8.61-11.82C206.07 7.06 223.77.6 233 .6c12.05 0 26.59 6.09 26.59 20.17 0 11.15-3.06 17.12-15.68 18.14v.22c12.73.8 18.04 5.86 18.04 20.84 0 16.9-17.8 23.89-32.1 23.89-9.47 0-23.03-7.29-23.56-19.1-.3-6.83 5.46-14.4 10.64-14.3 4.96 0 8.97 7.1 7.54 12.2-1.68 6.05-2.75 3.67-1.54 7.73 1.57 5.26 18.9 2.05 18.9-7.64 0-20.06-11.74-20.8-17.37-20.58v-5.97Z" style="stroke-width:1.2262px;fill:#9bcd65;stroke:#000"/></g></svg>