<svg xmlns="http://www.w3.org/2000/svg" id="b" viewBox="0 0 579.8 267.56"><defs><style>.h{fill:#ffdf1c}.j{stroke-linecap:round;stroke-linejoin:round;fill:#007cc3;stroke:#007dc5;stroke-width:13px}</style></defs><path id="c" d="M523.3 262.37c-5.41 3.9-83.75-35.77-83.75-35.77s-77.69 41.75-83.75 35.76c-5.54-5.46 8.13-90.7 8.13-90.7s-62.02-61.44-59.9-68.6c2.75-9.23 88.79-20.29 88.79-20.29s36.96-78.16 46.73-78.16c9.85 0 46.73 78.16 46.73 78.16s85.21 8.65 88.78 20.3c3.47 11.34-59.9 68.6-59.9 68.6s14.58 86.04 8.14 90.7Z" style="stroke-miterlimit:3.8637;stroke-width:9.216px;stroke:#007cc3;fill:#007cc3"/><path id="d" d="M523.3 262.37c-5.41 3.9-83.75-35.77-83.75-35.77s-77.69 41.75-83.75 35.76c-5.54-5.46 8.13-90.7 8.13-90.7s-62.02-61.44-59.9-68.6c2.75-9.23 88.79-20.29 88.79-20.29s36.96-78.16 46.73-78.16c9.85 0 46.73 78.16 46.73 78.16s85.21 8.65 88.78 20.3c3.47 11.34-59.9 68.6-59.9 68.6s14.58 86.04 8.14 90.7Z" style="fill:#ed1c2e"/><g id="e"><path d="M383.38 158.1c4.53 5.67 9.3 11.14 14.25 16.45 9.2-3.82 17.3-7.15 27.55-6.8 8.02.27 24.83 3.32 24.3 14.3-.51 10.46-16.23 12.32-24.04 11.92-10.25-.53-19.3-4.15-28.07-9.23l-13.77 12.62c12.74 13.37 32.01 20.2 50.26 20.57 25.26.5 60.19-11.69 65.02-40.22 5.54-32.65-37.49-44.78-62.03-46.1l.16-8.77c18.97.36 37.97 1.43 56.75 4.23-.9-9.8-2.42-19.53-5.07-29.01-31.33-9.46-66.15-10.1-97.97-2.67-5.95 20.3-7.69 41.64-7.34 62.7Z" style="stroke:#007cc3;fill:#007cc3;stroke-linecap:round;stroke-linejoin:round;stroke-width:11.6413px;fill-rule:evenodd"/><path d="M370.65 144.8c-.54-.95-1.28-1.26-1.89-.54h0c-6.64 8.18-18.9 15.14-27.28 21.4h0c7.27-11.5 13.57-21.38 16.57-27.21h0c.8-1.59.67-3.24-.13-4.77h0a25.69 25.69 0 0 0-4.57-5.59h0c-1.07-.87-1.57-.8-2.16-.04h0c-7.1 9.4-19.46 26.15-27.95 25.82h0c-1.3-.11-2.08-.67-2.47-1.74h0c-.94-5.5 7.13-17.01 11-24.23h0c1.17-2.55.56-3.96-.54-6.1h0a19.21 19.21 0 0 0-3.76-5h0c-.88-.85-1.4-.92-2.02-.27h0c-6.72 7.16-14.75 17.74-18.76 27.61h0a29.66 29.66 0 0 1-8.66 6.4h0c3.16-8.97-3.22-22.86-1.6-31.4h0c4.44-1.68 6.28-3.84 5.4-6.05h0c-1.2-2.15-6.59-3.4-12.94-1.02h0c-8.17 3.22-12.97 11.48-19.93 23.7h0l-.01.02h0c-4.48 7.82-12.75 18.55-19.56 19.32h0c-1.08.07-1.88-.53-2.09-1.6h0c-.38-2.48 1.98-6.72 3.6-10.94h0c1.05-3.09-.79-5.48-2.56-7.28h0c-1.8-1.78-2.95-1.5-3.98-.07h0c-2.19 3.08-4.88 7.71-8 11.6h0c-4.3 5.68-8.96 9.87-12.51 10.45h0c-1.61.22-2.9-.23-3.4-2.73h0c-1.52-10.44 13.92-33.15 20.73-34.09h0c.72-.05 1.12.3 1.24.9h0c.3 1.8-.56 3.79-.24 5.75h0c.46 2.34 2.28 4.03 6.38 3.4h0c5.11-1.04 7.53-6.9 6.9-11.9h0c-.63-3.18-3.86-6.03-10.2-5.7h0c-16.51 1.35-32.76 21.3-39.15 38.05h0c-4.74 6.89-10.66 13.04-17.34 14.7h0c-2.29.5-3.83-.32-4.27-2.44h0c-1.23-7.3 4.22-20.19 10.1-33.2h0c5.5-1.12 10.01-2.3 12.58-5.6h0a17.42 17.42 0 0 0 2.75-5.82h0c.31-1.32.01-2.08-1.1-2.13h0c-2.22-.07-5 .18-8.24.55h0s1.8-3.86 3.45-8.07h0c2.51-6.56 4.18-11.9 1.84-17.3h0c-1.2-2.57-3.2-4.94-5.04-6.07h0c-1.24-.72-1.66-.2-2.18 1.05h0c-2.87 7.96-8.48 20.29-13.96 33.83h0a80.62 80.62 0 0 0-13.98 5.15h0c-.83.45-1.06 1.11-.32 2.2h0c2.3 3.23 5.2 4.84 9.42 4.68h0c-2.8 7.53-5.13 14.47-6.68 20.83h0c-4.56 9.12-10.92 19.21-17.39 21.46h0c-1.22.37-2.16 0-2.46-1.4h0c-1.01-5.85 4.11-17.45 7.18-26.7h0c.8-2.48.92-4.68.6-6.46h0a14.27 14.27 0 0 0-3.87-6.93h0c-1.15-1.13-2.16-1.01-3.56.48h0c-7.2 7.9-18.22 24.26-24.41 36.08h0a126.13 126.13 0 0 0 5.68-19.26h0c.57-2.7.05-4.48-1.37-6.07h0c-.96-1.1-2.39-2-3.62-2.58h0c-1.02-.45-1.5-.27-1.94 1.39h0c-2.16 9.45-8.69 25.87-12.75 36.71h0c-3.68 6.6-7.75 12.27-11.56 14.14h0c-1.02.46-1.8.1-2.04-.94h0c-.47-2.46 1.59-7.75 2.98-12.73h0c.87-3.6-.95-5.4-2.7-6.6h0c-1.76-1.17-2.83-.44-3.77 1.4h0c-1.97 3.97-4.36 9.71-7.16 14.87h0c-3.85 7.42-8.06 13.52-11.4 15.4h0c-1.51.81-2.76.8-3.35-1.63h0c-1.95-10.25 12.09-38.82 18.45-42.44h0c.68-.33 1.08-.13 1.2.43h0c.33 1.7-.43 4.05-.06 5.9h0c.5 2.22 2.28 3.25 6.15 1.07h0c4.8-2.99 6.93-9.97 6.2-14.86h0c-.68-3.05-3.8-4.68-9.82-1.78-20.72 10.87-40.55 53-37.2 69.31h0c1.4 5.5 5.39 5.64 9.55 3.26h0c6.58-4 13.16-13.67 18.28-23.64h0c-.05 6.86 4.16 9.08 10.24 6.18h0c5.37-2.7 9.8-7.54 13.7-13.25h0a7.04 7.04 0 0 0 3.96 3.38h0c1.41.5 1.97-.11 2.64-1.32h0c7.79-15.93 21.49-38 31.38-49.95h0c-6.2 11.95-12.19 27.14-10.56 36.02h0c1.14 5.16 5.38 7.12 10.56 5.42h0c8.65-3.1 15.53-11.9 20.66-20.67h0c.06.6.13 1.15.24 1.7h0c1.55 7.52 6.22 10.21 13.41 8.52 7.59-1.96 13.59-6.97 18.54-12.95h0c.05.46.1.9.18 1.33h0c1.12 5.5 5.2 6.88 9.64 6.15h0c7.06-1.34 14.44-7.76 20.23-15.25h0c-.4 6.36 3.86 9.8 10.33 9.24h0c13.05-1.56 22.3-15.4 27.08-23.42h0s0 0 0 0h0c6.44-11.02 9.9-15.93 13.73-18.93h0c-1.92 9 2.49 23.63-1.16 29.92h0c-10.14.46-16.81 4.66-16.22 8.76h0c.55 2.71 3.9 4.13 9.17 4.05h0c7.08-.21 13.45-2.54 17.21-7.25h0a42.6 42.6 0 0 0 10.52-5.05h0c-.01.93.04 1.79.2 2.65h0c.95 5.05 4.44 8.18 9.78 8.58h0c9.76.43 18.44-6.64 25.16-14.12h0c-10.4 13.46-25.46 31.38-33.3 44.94h0c-4.72 8.1-4.8 11.19-2.11 14.32h0a17.19 17.19 0 0 0 4.95 3.68h0c1.8.84 2.43.66 3.13-.5h0c5.83-11.32 11.5-21.16 22.38-32.58h0c11.16-11.45 26.5-18.13 36.32-30.1h0c1-1.52 1-3.43-.32-5.9Z" class="j"/><path d="M7.45 206.26c-.3-1.27 0-2.33 1.33-3.46a64.99 64.99 0 0 1 4.8-3.5c-5.63-15.24-8.64-31.64-6.26-46.43 2.62-16.22 12.28-32.4 29.74-44.38 17.9-12.27 41.98-20.73 57.14-21.57.9.02.7 1.21-.07 2.8a75.75 75.75 0 0 1-7.25 11.55c-4.25 5.68-8.72 7.9-13.13 9.01-8.7 2.14-24.54 4.1-38.25 13.5-9.38 6.44-13.83 14.16-15.22 22.75-2.03 12.64.84 28.29 6.33 43.62 13.05-8.53 30.72-19.37 39.35-22.75 1.08-.31 1.36.35.22 2.61a53.74 53.74 0 0 1-5.17 8.22 52.7 52.7 0 0 1-8.87 8.84c-6.32 4.97-13.8 9.88-20.93 14.35 9.08 20.94 21.98 39.68 31.92 47.29.43.56.13 1.61-.63 2.34-4.63 4.03-9.15 5-12.53 2.87-8.9-5.36-22.6-23.13-32.38-44.42-2.92 1.36-4.9 1.65-6.6 1.13a6.97 6.97 0 0 1-3.54-4.37Z" class="j"/></g><g id="f"><path d="M383.38 158.1c4.53 5.67 9.3 11.14 14.25 16.45 9.2-3.82 17.3-7.15 27.55-6.8 8.02.27 24.83 3.32 24.3 14.3-.51 10.46-16.23 12.32-24.04 11.92-10.25-.53-19.3-4.15-28.07-9.23l-13.77 12.62c12.74 13.37 32.01 20.2 50.26 20.57 25.26.5 60.19-11.69 65.02-40.22 5.54-32.65-37.49-44.78-62.03-46.1l.16-8.77c18.97.36 37.97 1.43 56.75 4.23-.9-9.8-2.42-19.53-5.07-29.01-31.33-9.46-66.15-10.1-97.97-2.67-5.95 20.3-7.69 41.64-7.34 62.7Z" style="fill-rule:evenodd;fill:#ffdf1c"/><path d="M370.65 144.8c-.54-.95-1.28-1.26-1.89-.54-6.64 8.18-18.9 15.14-27.28 21.4 7.27-11.5 13.57-21.38 16.57-27.21.8-1.59.67-3.24-.13-4.77a25.69 25.69 0 0 0-4.57-5.59c-1.07-.87-1.57-.8-2.16-.04-7.1 9.4-19.46 26.15-27.95 25.82-1.3-.11-2.08-.67-2.47-1.74-.94-5.5 7.13-17.01 11-24.23 1.17-2.55.56-3.96-.54-6.1a19.21 19.21 0 0 0-3.76-5c-.88-.85-1.4-.92-2.02-.27-6.72 7.16-14.75 17.74-18.76 27.61a29.66 29.66 0 0 1-8.66 6.4c3.16-8.97-3.22-22.86-1.6-31.4 4.44-1.68 6.28-3.84 5.4-6.05-1.2-2.15-6.59-3.4-12.94-1.02-8.17 3.22-12.97 11.48-19.93 23.7l-.01.02c-4.48 7.82-12.75 18.55-19.56 19.32-1.08.07-1.88-.53-2.09-1.6-.38-2.48 1.98-6.72 3.6-10.94 1.05-3.09-.79-5.48-2.56-7.28-1.8-1.78-2.95-1.5-3.98-.07-2.19 3.08-4.88 7.71-8 11.6-4.3 5.68-8.96 9.87-12.51 10.45-1.61.22-2.9-.23-3.4-2.73-1.52-10.44 13.92-33.15 20.73-34.09.72-.05 1.12.3 1.24.9.3 1.8-.56 3.79-.24 5.75.46 2.34 2.28 4.03 6.38 3.4 5.11-1.04 7.53-6.9 6.9-11.9-.63-3.18-3.86-6.03-10.2-5.7-16.51 1.35-32.76 21.3-39.15 38.05-4.74 6.89-10.66 13.04-17.34 14.7-2.29.5-3.83-.32-4.27-2.44-1.23-7.3 4.22-20.19 10.1-33.2 5.5-1.12 10.01-2.3 12.58-5.6a17.42 17.42 0 0 0 2.75-5.82c.31-1.32.01-2.08-1.1-2.13-2.22-.07-5 .18-8.24.55 0 0 1.8-3.86 3.45-8.07 2.51-6.56 4.18-11.9 1.84-17.3-1.2-2.57-3.2-4.94-5.04-6.07-1.24-.72-1.66-.2-2.18 1.05-2.87 7.96-8.48 20.29-13.96 33.83a80.62 80.62 0 0 0-13.98 5.15c-.83.45-1.06 1.11-.32 2.2 2.3 3.23 5.2 4.84 9.42 4.68-2.8 7.53-5.13 14.47-6.68 20.83-4.56 9.12-10.92 19.21-17.39 21.46-1.22.37-2.16 0-2.46-1.4-1.01-5.85 4.11-17.45 7.18-26.7.8-2.48.92-4.68.6-6.46a14.27 14.27 0 0 0-3.87-6.93c-1.15-1.13-2.16-1.01-3.56.48-7.2 7.9-18.22 24.26-24.41 36.08a126.13 126.13 0 0 0 5.68-19.26c.57-2.7.05-4.48-1.37-6.07-.96-1.1-2.39-2-3.62-2.58-1.02-.45-1.5-.27-1.94 1.39-2.16 9.45-8.69 25.87-12.75 36.71-3.68 6.6-7.75 12.27-11.56 14.14-1.02.46-1.8.1-2.04-.94-.47-2.46 1.59-7.75 2.98-12.73.87-3.6-.95-5.4-2.7-6.6-1.76-1.17-2.83-.44-3.77 1.4-1.97 3.97-4.36 9.71-7.16 14.87-3.85 7.42-8.06 13.52-11.4 15.4-1.51.81-2.76.8-3.35-1.63-1.95-10.25 12.09-38.82 18.45-42.44.68-.33 1.08-.13 1.2.43.33 1.7-.43 4.05-.06 5.9.5 2.22 2.28 3.25 6.15 1.07 4.8-2.99 6.93-9.97 6.2-14.86-.68-3.05-3.8-4.68-9.82-1.78-20.72 10.87-40.55 53-37.2 69.31 1.4 5.5 5.39 5.64 9.55 3.26 6.58-4 13.16-13.67 18.28-23.64-.05 6.86 4.16 9.08 10.24 6.18 5.37-2.7 9.8-7.54 13.7-13.25a7.04 7.04 0 0 0 3.96 3.38c1.41.5 1.97-.11 2.64-1.32 7.79-15.93 21.49-38 31.38-49.95-6.2 11.95-12.19 27.14-10.56 36.02 1.14 5.16 5.38 7.12 10.56 5.42 8.65-3.1 15.53-11.9 20.66-20.67.06.6.13 1.15.24 1.7 1.55 7.52 6.22 10.21 13.41 8.52 7.59-1.96 13.59-6.97 18.54-12.95.05.46.1.9.18 1.33 1.12 5.5 5.2 6.88 9.64 6.15 7.06-1.34 14.44-7.76 20.23-15.25-.4 6.36 3.86 9.8 10.33 9.24 13.05-1.56 22.3-15.4 27.08-23.42 6.44-11.02 9.9-15.93 13.73-18.93-1.92 9 2.49 23.63-1.16 29.92-10.14.46-16.81 4.66-16.22 8.76.55 2.71 3.9 4.13 9.17 4.05 7.08-.21 13.45-2.54 17.21-7.25a42.6 42.6 0 0 0 10.52-5.05c-.01.93.04 1.79.2 2.65.95 5.05 4.44 8.18 9.78 8.58 9.76.43 18.44-6.64 25.16-14.12-10.4 13.46-25.46 31.38-33.3 44.94-4.72 8.1-4.8 11.19-2.11 14.32a17.19 17.19 0 0 0 4.95 3.68c1.8.84 2.43.66 3.13-.5 5.83-11.32 11.5-21.16 22.38-32.58 11.16-11.45 26.5-18.13 36.32-30.1 1-1.52 1-3.43-.32-5.9Z" class="h"/><path d="M7.45 206.26c-.3-1.27 0-2.33 1.33-3.46a64.99 64.99 0 0 1 4.8-3.5c-5.63-15.24-8.64-31.64-6.26-46.43 2.62-16.22 12.28-32.4 29.74-44.38 17.9-12.27 41.98-20.73 57.14-21.57.9.02.7 1.21-.07 2.8a75.75 75.75 0 0 1-7.25 11.55c-4.25 5.68-8.72 7.9-13.13 9.01-8.7 2.14-24.54 4.1-38.25 13.5-9.38 6.44-13.83 14.16-15.22 22.75-2.03 12.64.84 28.29 6.33 43.62 13.05-8.53 30.72-19.37 39.35-22.75 1.08-.31 1.36.35.22 2.61a53.74 53.74 0 0 1-5.17 8.22 52.7 52.7 0 0 1-8.87 8.84c-6.32 4.97-13.8 9.88-20.93 14.35 9.08 20.94 21.98 39.68 31.92 47.29.43.56.13 1.61-.63 2.34-4.63 4.03-9.15 5-12.53 2.87-8.9-5.36-22.6-23.13-32.38-44.42-2.92 1.36-4.9 1.65-6.6 1.13a6.97 6.97 0 0 1-3.54-4.37Z" class="h"/></g></svg>