<svg xmlns="http://www.w3.org/2000/svg" id="b" viewBox="0 0 182.69 73.24"><defs><style>.d{fill:#fff}.e{fill:#ec008c}</style></defs><g id="c"><path d="M13.6 17.14v23.17h.4l22.36-22.4 9.43 9.4-16.21 16.23 17.55 17.97-9.44 9.33-23.68-24.17h-.4v24.07H0v-53.6h13.6ZM47.18 70.74V17.16h35.55v13.5h-22.4v6.5H73.2V51.1H60.38v6.46h22.35v13.18H47.18ZM124.63 72.98 99.2 50.83v19.91H85.65V15.2h.16l25 21.39-.01-19.44h13.99v55.84h-.16Z" class="e"/><path d="m159.7 15.23-2.68 13.1c6.9 1.77 12.07 8.4 12.07 15.43 0 8.21-7.05 15.88-15.69 15.88s-15.69-7.67-15.69-15.88c0-7.18 5.37-13.93 12.49-15.53l-2.4-13.14a29.35 29.35 0 0 0 5.6 58.15 29.34 29.34 0 0 0 6.3-58Z" class="e"/><path d="m153.52 37.48-4.25-23.22c-.4-2.78-1.1-5.77-1.1-8.55 0-2.63 1.4-5.71 5.35-5.71 4.45 0 5.83 3.08 5.83 5.7 0 2.79-.69 5.78-1.08 8.56l-4.75 23.22ZM149.6 43.58c0-2.09 1.9-4.04 3.92-4.04 2.3 0 4.12 1.81 4.12 4.04 0 2.44-2.24 3.97-4.12 3.97-2.37 0-3.91-2.09-3.91-3.97Z" class="e"/><path d="M88.34 45.38c.33.42.83.86 1.4.86v-2.37c-1.39-.31-2.1-.89-2.1-2.35 0-1.03 1.06-1.97 2.1-2v-.91l.89-.18v1.09c.8.05 1.4.4 1.94.98l-.81.76a2.1 2.1 0 0 0-1.13-.66v2.2c1.24.21 2.09.9 2.09 2.23 0 1.35-1.22 2.3-2.1 2.3v1.2l-.87.23v-1.44c-.95 0-1.78-.53-2.32-1.24l.9-.7Zm1.4-4.78c-.52 0-.94.49-.94.96 0 .63.33 1.01.95 1.05v-2Zm.89 5.64c.59 0 .93-.52.93-1.14 0-.62-.35-.96-.93-1.08v2.22ZM99.08 48.14h-5.75l3.04-3.53c.6-.68 1.54-1.73 1.54-2.71 0-1.08-.77-1.6-1.7-1.6-1.09 0-1.7.9-1.7 1.6 0 1.19.67 1.83 1.52 1.9l-.8 1c-.92-.28-1.86-1.2-1.86-2.9 0-1.66 1.34-2.74 2.92-2.74 1.66 0 2.88 1.06 2.88 2.74 0 1.86-2.03 3.7-3.32 5.09h3.46l-.23 1.15ZM100.87 46.3c.4.49.98.9 1.63.9 1.18 0 2.18-.71 2.18-1.94 0-1.11-.96-1.92-2.12-1.92-.68 0-1.28.28-1.78.73v-4.7h4.63l-.3 1.14h-3.08v1.8c.3-.08.58-.12.86-.12a3.14 3.14 0 0 1 3.05 3.07c0 1.9-1.62 3.09-3.38 3.09a3.3 3.3 0 0 1-2.72-1.36l1.03-.7ZM113.11 43.75c0 2.4-.96 4.6-3.18 4.6-2.23 0-3.19-2.2-3.19-4.6s.96-4.6 3.19-4.6c2.22 0 3.18 2.2 3.18 4.6Zm-5.12 0c0 1.38.29 3.44 1.94 3.44s1.93-2.06 1.93-3.44-.28-3.44-1.93-3.44-1.94 2.06-1.94 3.44ZM112.27 50.64l1.15-4.07 1.3-.14-1.52 4.14-.93.07ZM121.74 43.75c0 2.4-.96 4.6-3.19 4.6s-3.19-2.2-3.19-4.6.96-4.6 3.2-4.6c2.22 0 3.18 2.2 3.18 4.6Zm-5.12 0c0 1.38.28 3.44 1.93 3.44s1.93-2.06 1.93-3.44-.28-3.44-1.93-3.44-1.93 2.06-1.93 3.44ZM128.73 43.75c0 2.4-.96 4.6-3.19 4.6s-3.19-2.2-3.19-4.6.96-4.6 3.19-4.6 3.19 2.2 3.19 4.6Zm-5.12 0c0 1.38.28 3.44 1.93 3.44s1.93-2.06 1.93-3.44-.28-3.44-1.93-3.44-1.93 2.06-1.93 3.44ZM135.71 43.75c0 2.4-.96 4.6-3.18 4.6-2.23 0-3.19-2.2-3.19-4.6s.96-4.6 3.19-4.6c2.22 0 3.18 2.2 3.18 4.6Zm-5.12 0c0 1.38.29 3.44 1.94 3.44s1.93-2.06 1.93-3.44-.28-3.44-1.93-3.44-1.94 2.06-1.94 3.44Z" class="d"/></g></svg>