<svg xmlns="http://www.w3.org/2000/svg" id="b" viewBox="0 0 308.43 110.65"><defs><style>.d,.e{fill-rule:evenodd}.d,.f{fill:#20c4f4}.e{fill:#fff56d}.h{stroke:#000;stroke-miterlimit:10;stroke-width:.888872px}</style></defs><g id="c"><path d="M202.47 22.6v.66c-.26.04-.45-.14-.75-.25l.75-.4ZM203.71 22.33a.29.29 0 0 1-.13.02c.04-.06.08-.07.13-.02ZM203 22.48a.22.22 0 0 1-.16.05c.04-.06.09-.07.16-.05Z" class="d"/><path d="M236.3 49.58c-.3 0-.59-.07-.93-.2-1.63-.7-2.41-1.85-2.26-3.31-.47-.23-1.19-.63-1.45-1.35-.67-.96-.61-2.2.15-3.24.08-.11.16-.21.2-.29-.14-.48-.09-1 .16-1.54.31-.67.1-.82-.28-1-.39-.19-.78-.35-1.18-.52l-1.05-.46a1.87 1.87 0 0 1-1.1-1.06 1.76 1.76 0 0 1-.02-1.12 44.6 44.6 0 0 1-2.86-.88c-.65-.23-1.39-.3-2.17-.37a15.1 15.1 0 0 1-2.08-.3 8.1 8.1 0 0 1-1.86-.61c-3.02-1.5-5.76-2.8-8.76-3.35-1.5-.28-2.91-.62-4.6-1.04-.81-.2-1.7-.6-2.08-1.94a3.41 3.41 0 0 0-2.17-2.42 1.42 1.42 0 0 1-.88-1.01c-.1-.3-.53-1.31-.82-2-.97-2.28-1.01-2.4-1.01-2.78 0-.79.63-1.42 1.41-1.42.91 0 1.08.3 2.34 2.62l.51.93c1.5-.38 2.72-1.3 4.18-2.67 1.11-1.05 2.68-1.18 3.92-1.18h.23a5.6 5.6 0 0 0 4.37-1.79 2.6 2.6 0 0 1 1.75-.74c.08 0 .15 0 .22-.03l.23-.07c.76-1.63 2.18-2.46 3.34-3.13l.76-.46c.5-.32.94-.74 1.4-1.18l.24-.23c1.46-1.38 3.1-2.72 5.3-3.16.2-.19.52-.83.71-1.23.53-1.08 1.25-2.56 2.8-2.56.19 0 .38.02.58.08 1.55.4 2.75 5.97 2.71 6.24a2.06 2.06 0 0 1-2.06 1.82l-.97.01c-.25.53-.66.9-.9 1.1l-.12.12c-1.11.99-2.18 1.94-3.1 3l.46-.16a1.42 1.42 0 0 1 1.77.87c1.13.07 2.17.36 3.18.64l.24.06c2.25.62 3.21 2.34 3.91 4.1.1.26.19.36.3.45a4 4 0 0 1 1.4 2.18l.2-.06c.49-.16.94-.23 1.35-.3.3-.04.59-.08.82-.15.26-.08.52-.12.78-.12.91 0 1.57.48 1.97.87.15-.04.29-.08.43-.1a1.84 1.84 0 0 1 1.81-1.34c.53 0 1 .22 1.34.59 1.11-.7 2.23-1.4 3.36-2.09l.07-.05c.27-.17.71-.47 1.33-.47.2 0 .5.04.84.2a12.46 12.46 0 0 1 5.55-.4c.33.06.62.08.9.08a3.1 3.1 0 0 0 1.61-.4 6.8 6.8 0 0 1 3.44-1.13c.42 0 .83.06 1.24.16h.02c.2-.05.5-.13.86-.13s.7.08 1.03.23a1.42 1.42 0 0 1 .18 2.45c-.1.13-.1.51-.1.74V22.5c.01.2.03.46 0 .75.2.08.38.17.55.26.07.03.11.05.2.05.2 0 .5-.1.9-.29a2.4 2.4 0 0 1 1.1-.31 2 2 0 0 1 1.29.47c.04.04.06.05.11.05.07 0 .16-.02.25-.06a6.1 6.1 0 0 1 2.44-.46l.04-.04c.15-.11.34-.27.6-.4.38-.22.79-.33 1.2-.33.4 0 .77.1 1.12.32.95.56 1.28 1.72.78 2.68-.24.45-.1.98.15 1.8l.08.25c.2.68.59 1.37 1 2.1l.16.28.22-.04v-.73c-.02-2-.03-3.71 1.62-3.81h.1c2.75 0 4.2 7.47 4.21 7.89.02 1.07.02 1.8-.55 2.39-.24.23-.65.51-1.3.51-.37 0-.75-.08-1.26-.2l-.2-.05c-1.01-.22-2.14-.26-3.11-.29-1.17-.02-2.25-.25-3.3-.47l-.52-.1c-.39.54-.94.75-1.42.75-.51 0-1-.22-1.43-.65a2.36 2.36 0 0 0-.5-.16 5.7 5.7 0 0 1-.86-.28.23.23 0 0 0-.02.1c.23 1-.23 1.93-1.12 2.28a2.18 2.18 0 0 1-2.12-.27l-.3-.23a9.13 9.13 0 0 1-1.86-1.6 2.8 2.8 0 0 0-2.06-1.1c-.72-.04-1.33-.26-1.86-.45-.43-.15-.79-.29-1.13-.31h-.1c-.24 0-.5 0-.8.68-.49 1.13-1.39 1.75-2.52 1.75-.24 0-.5-.03-.77-.08l-.57-.13-.27-.06c-.39.33-.87.5-1.4.5a3.6 3.6 0 0 1-.9-.13l-.25-.06a7.19 7.19 0 0 0-1.44.01l-.25.05-.01.33a2.63 2.63 0 0 1-1.72 2.52c-.38.15-.77.38-1.18.63l-.52.3a.18.18 0 0 0-.08.12c.07.35.15.96-.29 1.5a1.68 1.68 0 0 1-1.47.62c-.55-.02-2-.07-2.46-1.47-.04-.13-.1-.33-.16-.59-.1.06-.2.1-.3.14-.2.09-.38.17-.5.26a1.42 1.42 0 0 1-1.28.2c-.17.28-.35.53-.53.76-1.55 2-2.96 4.18-4.31 6.3l-.43.67-.15.28a1.6 1.6 0 0 1-1.63 1.68Z"/><path d="M232.96 3.9c.06 0 .14.02.2.04.27.06 1.74 4.3 1.69 4.66-.06.4-.32.6-.7.61l-.95.01h-1.35c.39.7 0 1.05-.47 1.46-1.9 1.7-3.82 3.39-5.05 5.7-.41.77-.6 1.53-.46 2.52 1.32-1.1 2.42-2.31 4.12-2.85-.32.84.07.93.64.93a7.55 7.55 0 0 0 .23 0c1.2 0 2.36.34 3.51.66 1.68.46 2.4 1.8 2.97 3.26.16.4.37.74.73 1.03.4.32.68.73.84 1.25.28.88.61 1.28 1.23 1.28.24 0 .53-.06.87-.18.7-.23 1.44-.22 2.14-.44.13-.04.25-.06.36-.06.5 0 .87.34 1.22.72.16.16.29.37.51.37.09 0 .19-.03.31-.1.23-.15.46-.23.7-.23.29 0 .57.13.83.44.25-.43.12-.8.15-1.15.01-.3.09-.56.42-.6h.07c.26 0 .4.2.43.42.08.45.23.6.42.6.18 0 .4-.12.64-.28 1.31-.84 2.62-1.65 3.95-2.46.2-.13.42-.31.66-.31.14 0 .29.07.45.26.07.1.15.13.23.13.17 0 .34-.18.5-.23a11.12 11.12 0 0 1 5-.37c.36.05.73.09 1.11.09.78 0 1.58-.15 2.33-.6.85-.49 1.73-.93 2.72-.93.34 0 .68.05 1.04.16.05.02.1.03.16.03.28 0 .58-.16.92-.16.13 0 .27.02.41.09-.9.61-.67 1.56-.72 2.43-.03.6.16 1.22-.29 1.75-.24.28-.08.45.25.47.52.03.95.25 1.42.48.26.12.52.18.78.18.51 0 1.04-.2 1.52-.43.18-.09.33-.18.5-.18.12 0 .24.05.39.17.3.24.65.35 1 .35.25 0 .51-.05.77-.15a4.73 4.73 0 0 1 2.1-.36c.47 0 .74-.41 1.12-.61.17-.1.35-.16.53-.16.14 0 .28.04.41.12a.6.6 0 0 1 .24.8c-.56 1.07-.16 2.15.13 3.11.36 1.22 1.13 2.32 1.71 3.47.1.2.21.31.35.31.08 0 .18-.04.29-.14.28-.25.59-.33.9-.33a3.67 3.67 0 0 1 .66.07c.53 0-.06-4.53.53-4.57h.02c1.02 0 2.78 5.39 2.8 6.5 0 1.12.02 1.47-.45 1.47-.23 0-.6-.1-1.15-.22a17.5 17.5 0 0 0-3.38-.33c-1.43-.03-2.79-.41-4.18-.66a1.68 1.68 0 0 0-.28-.03c-.24 0-.32.1-.4.4-.09.31-.23.47-.4.47-.13 0-.28-.08-.45-.24-.67-.68-1.83-.39-2.43-1.24-.04-.06-.16-.1-.3-.1-.18 0-.38.07-.46.3-.26.66-.75 1.27-.55 2.05.06.27-.03.53-.27.63-.1.03-.2.05-.3.05a.76.76 0 0 1-.46-.16c-.67-.48-1.37-.93-1.9-1.58a4.21 4.21 0 0 0-3.06-1.6c-1.04-.08-1.92-.7-2.98-.77l-.21-.01c-1.1 0-1.7.65-2.1 1.53-.28.66-.69.9-1.22.9-.16 0-.32-.02-.5-.05-.41-.08-.82-.2-1.24-.27a1.73 1.73 0 0 0-.27-.02c-.12 0-.22.02-.25.07-.22.4-.47.5-.75.5-.31 0-.65-.13-.98-.17a5.57 5.57 0 0 0-1.84.02c-1.18.2-1.42.5-1.45 1.74-.01.63-.26 1-.85 1.24-.65.27-1.24.67-1.85 1.01-.53.3-.76.76-.81 1.36-.02.23.28.7-.22.7h-.04c-.43-.02-1.02 0-1.18-.5-.17-.5-.29-1.08.16-1.57.5-.57.98-1.18 1.47-1.77.2-.24.44-.55.28-.82-.07-.12-.16-.16-.25-.16-.17 0-.38.16-.56.2-1.13.22-1.96.78-2.38 1.9-.3.8-1.19.83-1.87 1.33l-.32-2.82c-.55.26-.95.64-.85 1.29.15 1.09-.26 1.92-.92 2.76-1.75 2.25-3.27 4.67-4.81 7.08-.09.13-.14.33-.26.38-.32.13.12.92-.33.92-.09 0-.21-.03-.38-.1-1.44-.6-1.6-1.43-1.28-2.43.23-.7-1.72-.84-1.66-1.55.12.09.25.12.38.12.23 0 .47-.1.72-.14.3-.06-.78-.06-1.08-.07-.11 0-.1 0 0 0l-.02.09a.8.8 0 0 1-.15-.17c-.4-.55-.18-1.17.13-1.6.36-.5.7-.89.41-1.54-.06-.14.02-.36.09-.52.57-1.25.24-2.3-.96-2.88-.73-.35-1.5-.64-2.24-.99-.26-.12-.52-.19-.3-.66.36-.73-.04-1.31-.86-1.54-.99-.28-1.98-.56-2.94-.9-1.43-.51-2.95-.38-4.4-.72-.55-.13-1.06-.25-1.55-.5-2.93-1.46-5.9-2.88-9.15-3.48a73.18 73.18 0 0 1-4.5-1.02c-.6-.15-.89-.31-1.07-.95a4.83 4.83 0 0 0-3.02-3.35c0-.22-1.8-4.26-1.8-4.47.13 0 2.04 3.75 2.17 3.75.06 0 .11-.02.16-.06.1-.11.24-.13.37-.13H203.58c.05 0 .1 0 .13-.02 2-.46 3.48-1.68 4.95-3.05.74-.7 1.9-.8 2.95-.8a20.05 20.05 0 0 1 .3.01c2.11 0 3.87-.7 5.33-2.23.37-.4.95-.24 1.42-.41.35-.13.76-.13.93-.58.67-1.7 2.31-2.35 3.68-3.22.73-.46 1.27-1.03 1.86-1.59 1.36-1.28 2.78-2.45 4.67-2.8 1.46-.27 1.84-3.75 3.16-3.75m0-2.84c-2.43 0-3.5 2.19-4.07 3.36l-.3.6c-2.26.6-3.93 1.97-5.41 3.38l-.26.24c-.42.4-.78.76-1.17 1-.23.15-.48.3-.72.43-1.11.65-2.57 1.5-3.55 3.09-.59.08-1.52.3-2.3 1.14a4.16 4.16 0 0 1-3.26 1.34h-.31c-1.5 0-3.42.18-4.9 1.57-.94.88-1.73 1.53-2.54 1.94-1.24-2.27-1.79-3.21-3.5-3.21a2.85 2.85 0 0 0-2.84 2.84c0 .68.1.93 1.12 3.33l.78 1.86c.23.87.86 1.6 1.72 1.93a2 2 0 0 1 1.31 1.47c.66 2.32 2.5 2.78 3.1 2.93 1.72.43 3.15.78 4.7 1.06 2.81.52 5.46 1.77 8.38 3.23.78.4 1.54.57 2.15.71.82.2 1.6.27 2.28.34.73.07 1.35.13 1.84.3.62.22 1.25.42 1.88.6a3.1 3.1 0 0 0 1.96 2.4l1.1.48.51.22c-.12.4-.17.81-.14 1.2a4.12 4.12 0 0 0-.13 4.52c.25.57.68 1.07 1.3 1.5.16 1.66 1.25 3.02 3.14 3.81.5.21.99.32 1.47.32a3.01 3.01 0 0 0 3.02-2.68l.02-.04.36-.56c1.4-2.2 2.73-4.26 4.24-6.2l.12-.15c.21-.02.43-.07.64-.14.5.74 1.46 1.47 3.22 1.54H248.16c.99 0 1.89-.42 2.47-1.15.4-.5.6-1.06.65-1.68.31-.18.6-.35.85-.46a3.98 3.98 0 0 0 2.48-2.82l.2.02c.04 0 .08.02.11.03.28.07.71.17 1.24.17.6 0 1.17-.14 1.67-.4l.31.06c.36.07.7.1 1.03.1 1.61 0 2.95-.84 3.7-2.33l.37.13c.59.22 1.33.48 2.25.54.36.03.69.14 1.07.6.67.81 1.47 1.38 2.11 1.84l.3.22a3.58 3.58 0 0 0 3.44.46 3.33 3.33 0 0 0 1.79-1.67 3.18 3.18 0 0 0 3.53-.17c1 .2 2.12.42 3.33.45.94.02 1.95.06 2.82.26l.2.04a6.9 6.9 0 0 0 1.57.24c.9 0 1.72-.33 2.31-.94 1-1 .98-2.19.97-3.34v-.06c-.01-1.5-1.08-4.32-1.2-4.64-.93-2.42-2.1-4.65-4.43-4.65a3.44 3.44 0 0 0-1.68.46 3.42 3.42 0 0 0-1.7-2.79 3.64 3.64 0 0 0-1.86-.51 3.93 3.93 0 0 0-2.32.76c-.67.03-1.33.16-2.02.4a3.35 3.35 0 0 0-2.9-.13v-.26a2.84 2.84 0 0 0-.9-4.43 3.75 3.75 0 0 0-2.52-.28 6.2 6.2 0 0 0-1.24-.13c-1.65 0-2.97.64-4.15 1.33-.15.09-.4.2-.9.2-.2 0-.43-.02-.67-.05a14.03 14.03 0 0 0-5.71.3c-.3-.08-.6-.13-.91-.13-1.05 0-1.8.5-2.11.71l-.06.04-2.56 1.58a3.2 3.2 0 0 0-1.83-.27 3.3 3.3 0 0 0-1.94.97 3.93 3.93 0 0 0-3-.26c-.14.04-.37.08-.62.12-.16.02-.33.04-.5.08a5.36 5.36 0 0 0-1.24-1.52c-.51-1.29-1.66-4.03-4.83-4.9l-.24-.07c-.83-.23-1.73-.48-2.72-.6a2.85 2.85 0 0 0-.22-.25l1.2-1.08.12-.1c.28-.26.52-.5.71-.76h.25a3.48 3.48 0 0 0 3.43-3.06c.07-.5.14-.96-.86-3.78-.8-2.24-1.27-3.6-2.92-4.02-.29-.08-.6-.12-.92-.12Z"/><path d="m200.7 17.9.38-.07c.06 0 .1-.02.15-.06.17-.17.39-.12.59-.12.05 0 .09 0 .13-.03 2-.46 3.48-1.67 4.94-3.04.8-.74 2.07-.8 3.17-.8a6.99 6.99 0 0 0 5.41-2.23c.37-.39.96-.23 1.42-.4.36-.14.77-.14.94-.58.66-1.7 2.31-2.36 3.68-3.23.72-.46 1.27-1.02 1.86-1.58 1.35-1.29 2.77-2.45 4.67-2.8 1.53-.3 3.05-.01 4.54.39.26.07.56.18.5.55-.05.39-.3.6-.69.61-.73.02-1.47 0-2.3 0 .38.7 0 1.06-.47 1.47-1.9 1.7-3.83 3.38-5.06 5.7-.4.76-.6 1.53-.46 2.51 1.32-1.1 2.43-2.3 4.13-2.84-.35.9.13.93.77.92 1.24-.01 2.42.34 3.61.66 1.68.46 2.39 1.81 2.97 3.27.16.4.37.74.72 1.02.4.32.68.74.85 1.26.39 1.22.87 1.5 2.1 1.1.7-.24 1.44-.23 2.14-.44.68-.22 1.14.2 1.58.65.22.23.38.55.82.27.51-.33 1.07-.33 1.53.22.25-.43.12-.8.14-1.15.02-.3.1-.56.43-.6.3-.05.46.17.5.41.15.85.55.66 1.06.33 1.3-.84 2.62-1.66 3.94-2.46.34-.21.7-.56 1.11-.05.25.3.51-.03.74-.1 1.64-.5 3.26-.65 5-.38a5.1 5.1 0 0 0 3.44-.5c1.12-.65 2.32-1.23 3.75-.77.41.13.92-.33 1.5-.04-.9.6-.68 1.55-.72 2.43-.03.59.16 1.21-.3 1.75-.23.28-.08.44.25.46.53.04.96.25 1.43.49.74.36 1.56.1 2.3-.26.3-.14.53-.3.88 0 .52.41 1.15.44 1.78.2a4.51 4.51 0 0 1 2.03-.36c.52.04.8-.41 1.19-.62.3-.17.63-.22.93-.04.31.18.4.53.24.81-.56 1.07-.15 2.15.13 3.1.36 1.22 1.13 2.32 1.72 3.47.16.32.34.43.63.18.47-.41.99-.37 1.54-.26.57.1 1.13.17 1.73.13 1.03-.06 1.63.67 1.64 1.79.02 1.7.04 1.62-1.59 1.26-1.1-.25-2.25-.3-3.38-.33-1.43-.03-2.8-.41-4.18-.67-.47-.08-.58-.01-.69.37-.14.54-.44.62-.84.23-.68-.67-1.83-.38-2.44-1.24-.08-.12-.6-.2-.76.2-.25.67-.74 1.27-.55 2.06.06.27-.03.53-.27.62-.23.1-.49.09-.75-.1-.67-.49-1.38-.94-1.9-1.58a4.19 4.19 0 0 0-3.06-1.61c-1.05-.07-1.93-.7-2.99-.77-1.23-.09-1.89.58-2.3 1.53-.37.85-.93 1-1.72.84-.41-.08-.83-.2-1.24-.26-.18-.03-.48-.04-.53.04-.45.84-1.1.4-1.72.33a6.61 6.61 0 0 0-1.84.02c-1.18.2-1.43.5-1.45 1.74-.02.63-.26 1-.86 1.24-.64.27-1.23.67-1.85 1.02-.52.3-.76.76-.8 1.36-.02.24.29.72-.27.7-.42-.03-1.02-.01-1.18-.5-.16-.5-.28-1.08.16-1.58.51-.57.99-1.17 1.48-1.76.2-.25.43-.56.27-.83-.21-.35-.53-.01-.8.04-1.13.22-1.96.78-2.39 1.9-.3.8-1.18.83-1.86 1.33l-.32-2.81c-.55.26-.95.64-.86 1.28.16 1.1-.25 1.92-.91 2.76-1.76 2.26-3.28 4.68-4.82 7.08-.08.14-.14.33-.25.38-.39.16.31 1.26-.71.83-1.44-.6-1.6-.85-1.28-1.84l.71-2.24c-.48.02-.89 0-1.28.07-.44.1-.9.34-1.24-.14-.4-.55-.19-1.18.12-1.6.37-.5.7-.9.42-1.54-.06-.14.01-.37.09-.52.57-1.26.24-2.3-.96-2.88-.74-.35-1.5-.65-2.24-1-.26-.11-.52-.18-.3-.65.36-.73-.05-1.31-.87-1.55-.98-.28-1.97-.56-2.94-.9-1.43-.5-2.95-.37-4.4-.72a6.93 6.93 0 0 1-1.55-.5c-2.93-1.46-5.89-2.88-9.14-3.47a72.82 72.82 0 0 1-4.5-1.02c-.6-.15-.9-.32-1.07-.96a4.84 4.84 0 0 0-3.03-3.35v-.65Z" class="e"/><path d="M200.7 17.9v.65c-.26.04-.45-.13-.74-.25l.74-.4ZM201.95 17.62a.23.23 0 0 1-.13.03c.03-.06.08-.07.13-.03ZM201.23 17.77a.22.22 0 0 1-.15.06c.03-.06.08-.08.15-.06Z" class="d"/><path d="M229.34 2.84c1.1 0 2.17.22 3.24.5.26.08.56.19.5.56-.05.39-.3.6-.69.61l-.94.01h-1.36c.38.7 0 1.05-.47 1.46-1.9 1.7-3.83 3.38-5.06 5.7-.4.76-.6 1.53-.46 2.51 1.32-1.1 2.43-2.3 4.13-2.84-.32.83.07.93.64.93a7.73 7.73 0 0 0 .22 0c1.2 0 2.36.34 3.52.65 1.68.46 2.39 1.81 2.97 3.27.16.4.37.74.72 1.02.4.32.68.74.85 1.26.28.88.6 1.27 1.23 1.27.24 0 .52-.06.87-.17.7-.24 1.44-.23 2.14-.44.13-.04.25-.06.36-.06.5 0 .86.34 1.22.71.15.17.28.38.5.38.1 0 .2-.03.32-.11.22-.14.46-.23.69-.23.3 0 .58.14.84.45.24-.43.12-.8.14-1.15.02-.3.09-.56.43-.6l.07-.01c.25 0 .4.2.43.42.08.45.23.61.42.61.18 0 .4-.13.64-.28 1.3-.84 2.62-1.66 3.94-2.46.21-.13.43-.31.66-.31.15 0 .3.06.45.26.08.09.16.12.23.12.18 0 .35-.17.5-.22a11.15 11.15 0 0 1 5-.38c.37.06.74.1 1.12.1.78 0 1.58-.16 2.33-.6.84-.49 1.73-.94 2.72-.94.33 0 .68.05 1.03.17l.17.02c.27 0 .58-.16.92-.16.13 0 .27.03.41.1-.9.6-.68 1.55-.72 2.43-.03.59.16 1.21-.3 1.75-.23.28-.08.44.25.46.53.04.96.25 1.43.49.25.12.51.17.78.17.51 0 1.03-.2 1.52-.43.18-.08.33-.17.5-.17a.6.6 0 0 1 .38.16c.3.25.65.36 1 .36.26 0 .52-.06.78-.16a4.7 4.7 0 0 1 2.09-.35c.48 0 .75-.42 1.13-.62.17-.1.35-.15.53-.15.14 0 .27.03.4.11.31.18.4.53.24.81-.56 1.07-.15 2.15.13 3.1.36 1.22 1.13 2.32 1.72 3.47.1.2.2.32.35.32.08 0 .17-.05.28-.14.29-.26.6-.34.92-.34.2 0 .41.04.62.08a7.96 7.96 0 0 0 1.86.13c.94 0 1.5.72 1.51 1.79.01 1.12.03 1.47-.44 1.47-.24 0-.6-.09-1.15-.21-1.1-.25-2.25-.3-3.38-.33-1.43-.03-2.8-.41-4.18-.67a1.71 1.71 0 0 0-.29-.03c-.24 0-.32.11-.4.4-.08.31-.22.47-.4.47-.13 0-.28-.08-.44-.24-.68-.67-1.83-.38-2.44-1.24-.04-.05-.16-.1-.3-.1-.17 0-.37.08-.46.3-.25.67-.74 1.27-.55 2.06.06.27-.03.53-.27.62a.77.77 0 0 1-.76-.1c-.66-.49-1.37-.94-1.9-1.58a4.19 4.19 0 0 0-3.05-1.61c-1.05-.07-1.93-.7-2.99-.77a3 3 0 0 0-.2 0c-1.1 0-1.71.64-2.1 1.53-.29.66-.7.9-1.23.9-.15 0-.31-.02-.49-.06-.42-.08-.83-.2-1.24-.26a1.57 1.57 0 0 0-.27-.02c-.12 0-.23.01-.26.06-.21.4-.47.51-.75.51-.3 0-.64-.14-.97-.18a7.97 7.97 0 0 0-1.84.02c-1.19.2-1.43.5-1.45 1.74-.02.63-.26 1-.86 1.24-.64.27-1.24.67-1.85 1.02-.52.3-.76.76-.8 1.36-.02.23.27.7-.23.7a.9.9 0 0 1-.04 0c-.42-.03-1.02-.01-1.18-.5-.16-.5-.28-1.08.16-1.58.51-.57.99-1.17 1.48-1.76.2-.25.43-.56.27-.83-.07-.12-.15-.16-.24-.16-.18 0-.38.17-.57.2-1.12.22-1.95.78-2.38 1.9-.3.8-1.18.83-1.86 1.33l-.32-2.81c-.55.26-.95.64-.86 1.28.16 1.1-.25 1.92-.91 2.76-1.76 2.26-3.28 4.68-4.82 7.08-.08.14-.14.33-.25.38-.33.14.11.93-.34.93-.08 0-.2-.03-.37-.1-1.44-.6-1.6-.85-1.28-1.84l.71-2.24c-.48.02-.89 0-1.28.07-.24.05-.48.15-.7.15a.63.63 0 0 1-.54-.3c-.4-.54-.19-1.17.12-1.59.37-.5.7-.9.42-1.54-.06-.14.01-.37.09-.52.57-1.26.24-2.3-.96-2.88-.74-.35-1.5-.65-2.24-1-.26-.11-.52-.18-.3-.65.36-.73-.05-1.31-.87-1.55-.98-.28-1.97-.56-2.94-.9-1.43-.5-2.95-.37-4.4-.72a6.98 6.98 0 0 1-1.55-.5c-2.93-1.46-5.89-2.88-9.14-3.47a72.34 72.34 0 0 1-4.5-1.02c-.6-.15-.9-.32-1.08-.96a4.84 4.84 0 0 0-3.02-3.35v-.65l.38-.07c.06 0 .1-.02.15-.06.11-.1.24-.13.38-.13h.17a1.3 1.3 0 0 0 .06 0c.04 0 .08 0 .11-.02 2-.46 3.48-1.67 4.94-3.04.75-.7 1.92-.8 2.97-.8a20.33 20.33 0 0 1 .29 0c2.1 0 3.87-.7 5.32-2.23.37-.39.96-.23 1.42-.4.36-.14.77-.14.94-.58.66-1.7 2.31-2.36 3.68-3.23.72-.46 1.27-1.02 1.86-1.58 1.35-1.29 2.77-2.45 4.67-2.8a7.1 7.1 0 0 1 1.3-.12m0-2.84c-.62 0-1.24.06-1.82.17-2.6.48-4.47 1.98-6.1 3.53l-.27.25c-.42.4-.78.76-1.16 1l-.72.43c-1.12.65-2.58 1.5-3.55 3.08a3.8 3.8 0 0 0-2.32 1.16 4.15 4.15 0 0 1-3.25 1.33H209.86c-1.5 0-3.42.18-4.9 1.56-1.3 1.2-2.3 1.98-3.46 2.3-.54.02-.99.14-1.36.31a2.84 2.84 0 0 0-2.27 2.78v.65c0 1.17.72 2.23 1.81 2.65.7.27 1.1.7 1.32 1.47.66 2.32 2.49 2.78 3.1 2.94 1.64.4 3.12.77 4.69 1.06 2.82.51 5.47 1.76 8.38 3.22.81.4 1.56.58 2.17.72.8.2 1.58.27 2.26.33.73.07 1.36.13 1.85.3.63.23 1.27.43 1.88.6a3.23 3.23 0 0 0 1.94 2.39c.4.19.77.35 1.15.51l.48.2c-.12.4-.17.81-.14 1.2-1 1.53-1 3.36.02 4.74.31.43.7.78 1.14 1.02-.2 2.68 2.18 3.67 3.15 4.08.5.21.99.31 1.46.31a3.01 3.01 0 0 0 3.03-2.68l.02-.04.36-.57c1.4-2.18 2.72-4.24 4.23-6.18l.12-.16c.22-.02.43-.06.64-.13.52.73 1.47 1.46 3.22 1.53h.07l.17.01c.99 0 1.89-.42 2.47-1.15.4-.5.61-1.06.65-1.68.32-.19.61-.36.87-.47a3.98 3.98 0 0 0 2.46-2.81c.07 0 .14 0 .2.02l.12.02c.29.07.71.18 1.23.18.6 0 1.17-.14 1.68-.4l.28.05c.38.08.72.11 1.05.11 1.62 0 2.95-.85 3.7-2.33l.37.13c.6.21 1.34.48 2.25.54.38.03.69.13 1.06.59.68.82 1.47 1.38 2.1 1.83l.33.23a3.62 3.62 0 0 0 3.45.46 3.27 3.27 0 0 0 1.78-1.67 3.19 3.19 0 0 0 3.53-.17c1 .21 2.12.43 3.32.46.97.02 1.98.06 2.83.25l.2.05c.59.13 1.05.24 1.57.24.9 0 1.71-.34 2.31-.94 1-1 .98-2.2.97-3.35v-.05c-.03-2.66-1.86-4.6-4.35-4.6a4.8 4.8 0 0 0-.44.02c-.24 0-.51-.03-.92-.1a6.22 6.22 0 0 0-1.08-.12 6.9 6.9 0 0 1-.59-1.28l-.07-.25c-.08-.26-.2-.63-.22-.82.8-1.6.2-3.56-1.36-4.49a3.6 3.6 0 0 0-1.84-.5 3.93 3.93 0 0 0-2.32.77c-.67.03-1.34.16-2.02.39a3.34 3.34 0 0 0-2.9-.12 23.82 23.82 0 0 0 0-.26 2.84 2.84 0 0 0-.89-4.43 3.75 3.75 0 0 0-2.54-.29c-.4-.08-.82-.12-1.23-.12-1.66 0-3.03.67-4.15 1.33-.15.08-.4.2-.9.2-.2 0-.43-.02-.68-.06a13.97 13.97 0 0 0-5.7.3c-.3-.08-.6-.12-.92-.12-1.04 0-1.78.5-2.1.7l-.05.04c-.92.55-1.77 1.08-2.56 1.58a3.26 3.26 0 0 0-1.84-.26c-.65.08-1.38.39-1.94.97a3.92 3.92 0 0 0-3.02-.26 5.3 5.3 0 0 1-.6.11l-.5.08a5.28 5.28 0 0 0-1.24-1.51c-.51-1.29-1.66-4.04-4.84-4.91l-.2-.06c-.84-.23-1.76-.48-2.76-.61a2.85 2.85 0 0 0-.22-.24l1.23-1.1.1-.09c.28-.25.51-.5.7-.75h.26a3.5 3.5 0 0 0 3.42-3.05A3.28 3.28 0 0 0 233.3.6c-1.05-.28-2.45-.6-3.96-.6ZM276.73 109.23c-.69 0-1.27-.5-1.4-1.16h-.4c-6.4.03-12.8.03-19.19.03h-3.48a2.1 2.1 0 0 1-.27.02c-.74 0-1.36-.43-1.6-1.1l-.44-.88c-1.86-3.69-1.92-3.86-1.7-4.53.12-.36.39-.66.73-.83.3-.15.65-.23 1.01-.23.96 0 1.91.52 2.83 1.02l.63.34.17-.4c.41-.92.84-1.87 1.4-2.78l.24-.41c.46-.74.88-1.43 1.12-2.17.6-1.91.85-3.88 1.12-5.97l.07-.58c.28-2.15-.4-4.2-1.12-6.38l-.44-1.36c-.57-1.78-1.1-3.45-1.97-5a4.41 4.41 0 0 1 .37-4.83c.42-.58.45-1.1.12-2.25l-.07-.31c-.94-2-.13-3.53.69-4.63 1.5-2.02 2.06-3.58 1.86-5.21a7.91 7.91 0 0 1-.02-1.31c.02-.41.03-.76-.04-1.07-.16-.7 0-1.44.45-2 .4-.52 1-.87 1.67-.99.05-.5.12-.97.22-1.43.31-1.44 1.18-1.73 1.75-1.77a2.46 2.46 0 0 1 2.08-.89l.17-.21c.3-.38.62-.77.7-1.04a4.12 4.12 0 0 1 3.65-3.18c.19 0 .37.04.55.12a4.7 4.7 0 0 1 2.9-2.31c-.18-.8-.6-2.83.93-4.53l.55-.57c-.09-.43 0-.8.13-1.05.45-.9 1.42-.92 1.83-.93a10.22 10.22 0 0 1 .64.01l.36.02c.14 0 .18-.01.18-.02.31-.39.79-.6 1.3-.6.55 0 1.09.24 1.45.66.15.18.4.33.7.51.29.17.6.36.91.62.42.34.84.48 1.46.48h.22c1.98 0 3.45 1 3.93 2.68a.5.5 0 0 0 .08.18s.07.05.35.1c.81.13 1.1.35 1.2.43.47.38 1.07.57 1.76.8a8.35 8.35 0 0 1 2.72 1.33l.27-.02c1.32 0 3.04 1.87 3.13 3.05v.07c1.42 1.4 1.17 3.32 1.08 4.08a1.42 1.42 0 0 1-1.02 1.19c.08.1.15.23.22.35.35.68.72 1.48.62 2.47.77 1.11.45 2.28.27 2.94-.04.13-.08.27-.1.4-.18.84-.25 1.7-.32 2.61-.03.53-.07 1.05-.13 1.58a2.32 2.32 0 0 1-1.5 2.02c-1.2.54-1.4 1.04-1.37 1.73.04.73-.35 1.54-1.16 2.4-.45.49-1.64 1.6-2.85 1.63-.06.3-.14.57-.2.82-.12.43-.22.8-.18 1.08.01.1.05.4.1.55l.06.02c.4.05.76.17 1.1.34.18-.21.34-.42.5-.64.25-.37.57-.57.86-.69a1.42 1.42 0 0 1 .58-1.81c.02-.43.16-.8.4-1.1.2-.23.62-.61 1.35-.65.12-.19.28-.42.51-.62a1.69 1.69 0 0 1 1.74-.85l.26.02c.4 0 .81-.16 1.45-.53a3 3 0 0 1 1.55-.44c1.1 0 1.98.61 2.7 1.2 2.04 1.7 2.58 3.98 2.93 6l.33 1.76c.26 1.4.53 2.83.69 4.29.12 1.12.42 2.21.75 3.37.18.67.37 1.34.52 2.03.23 1-.08 1.9-.33 2.63-.1.28-.2.54-.24.77l-.15.7a6.73 6.73 0 0 0-.26 2.03c.17 1.97-1.23 3-1.7 3.33a1.42 1.42 0 0 1-1.62.04 2.26 2.26 0 0 1-.43-.38l-.03.04c-.11.16-.32.38-.66.52a5.26 5.26 0 0 1-2.45 4.18c-.62.42-.78 1.17-.97 2.35-.3 1.78-1.31 3.09-2.2 4.24a27.23 27.23 0 0 0-.93 1.22c-.09.11-.19.23-.24.34-1.09 2.15-3.12 2.17-4.1 2.18-1.9.02-3.84.12-5.71.23-1.77.1-3.6.2-5.41.22l-.91-.02c-.3 0-.47.03-.58.1-.22.12-.47.2-.72.2h-.56Z"/><path d="M277.01 37.3c.13 0 .28.06.38.16.49.58 1.21.83 1.78 1.3a3.49 3.49 0 0 0 2.58.8c1.14 0 2.22.45 2.57 1.67.26.88.82 1.15 1.56 1.27.21.04.5.11.57.17 1.26 1 2.96 1 4.24 1.95.29.21.6.48 1.04.48.09 0 .18 0 .27-.03h.06c.5 0 1.68 1.24 1.71 1.73.02.24-.13.54.09.7 1.1.8 1.16 1.93 1 3.17a.24.24 0 0 1-.11.03c-.18 0-.36-.2-.56-.25-.23-.07-.54-.3-.74-.3-.08 0-.14.04-.18.12-.2.43-.53 1-.09 1.53.35.42.79.79 1.03 1.26.28.53.56 1.1.45 1.75-.03.2-.05.51.06.63.8.8.31 1.65.14 2.47-.3 1.43-.3 2.88-.46 4.31-.05.45-.17.68-.67.9-1.28.58-2.3 1.43-2.2 3.1.04.78-1.79 2.53-2.64 2.53-.05 0-.1 0-.15-.02a1.3 1.3 0 0 0-.39-.07c-.68 0-.75.76-.78 1-.1.86-.53 1.68-.43 2.57.1.85.25 1.64 1.36 1.8.56.09 1.12.37 1.47.94.5-.59 1.04-1.17 1.5-1.81.3-.44 1.01-.08 1.2-.8.1-.47.39-.85-.21-1.3.65-.04.84-.32.74-.84-.08-.38-.05-.72.42-.72.05 0 .1 0 .16.02h.11c.66 0 .7-.77 1.15-1.05.18-.12.16-.45.45-.45h.06c.16.03.31.04.46.04.78 0 1.47-.31 2.18-.74.28-.16.55-.23.82-.23.65 0 1.25.42 1.8.88 1.61 1.33 2.1 3.2 2.43 5.14.35 1.98.79 3.96 1 5.96.22 1.92.9 3.7 1.31 5.56.21.93-.4 1.86-.58 2.81-.21 1.04-.54 2.07-.43 3.15.08.95-.42 1.54-1.12 2.05-.33-.22-.43-.61-.52-.94-.16-.55-.59-.64-.96-.64l-.27.01c-.44.04-.81.49-.7 1.07.06.27.25.57-.18.57a1.33 1.33 0 0 1-.2-.01c-.35 0-.5.4-.49.63a3.92 3.92 0 0 1-1.83 3.67c-1.14.78-1.38 2.03-1.58 3.3-.3 1.83-1.6 3.1-2.62 4.52-.2.29-.48.6-.62.88-.62 1.22-1.64 1.38-2.84 1.4-3.72.03-7.42.39-11.13.44h-.1l-.8-.01c-.44 0-.88.04-1.3.28h-.55c-.12-1.08-.8-1.17-1.67-1.17h-.14c-7.55.05-15.1.04-22.66.05l-.27.02c-.12 0-.23-.04-.28-.2-.05-.17-2.25-4.39-2.1-4.46a.87.87 0 0 1 .38-.08c1.13 0 3.01 1.58 3.94 1.58.2 0 .36-.08.46-.28.6-1.27 1.1-2.6 1.83-3.8.57-.94 1.17-1.83 1.51-2.9.7-2.21.95-4.5 1.25-6.8.34-2.65-.55-5.08-1.35-7.51-.67-2.07-1.28-4.17-2.35-6.09-.64-1.13-.42-2.34.28-3.31.84-1.15.68-2.27.34-3.47-.05-.14-.05-.3-.11-.44-.6-1.21-.36-2.11.5-3.27 1.32-1.77 2.42-3.8 2.13-6.22-.1-.83.1-1.65-.08-2.52-.16-.69.4-1.28 1.19-1.3.7-.02.88-.37.93-.97.04-.51.1-1.03.22-1.53.06-.3.1-.66.49-.66a.8.8 0 0 1 .18.02l.1.01c.19 0 .32-.14.45-.28.29-.32.56-.65.96-.65a1 1 0 0 1 .51.15c.05.03.1.04.15.04.12 0 .23-.07.32-.2.52-.76 1.3-1.45 1.52-2.29.33-1.25 1.06-1.84 2.28-2.12.03.57.07 1.12-.49 1.51-.22.16-.3.35-.26.63.14 1.08.07 2.1-.42 3.13-.17.35-.3.93.12 1.5l.87-2.15c.08-.21.17-.48.4-.48h.06c.32.08.36.42.27.7-.19.63-.02 1.34-.5 1.9.1.05.17.07.22.07.15 0 .22-.12.3-.27a7.86 7.86 0 0 0 .9-4.9c-.3-2.32 1.06-3.98 3.46-4.06q1.15-.04 1.67-.5c-.77-.05-1.54-.11-1.75-.95-.29-1.17-.3-2.34.58-3.32.3-.32.61-.61.92-.92.15-.15.33-.28.15-.54-.4-.57-.08-.61.42-.63h.09c.29 0 .58.04.88.04.46 0 .9-.1 1.27-.54.05-.06.13-.09.21-.09m0-2.83c-.68 0-1.33.21-1.86.6l-.5-.01h-.16c-1.48.04-2.5.61-3.05 1.72-.14.27-.28.66-.32 1.13l-.14.16a5.79 5.79 0 0 0-1.47 4.58 5.92 5.92 0 0 0-2.03 1.7 5.5 5.5 0 0 0-4.84 4.14l-.2.29c-.94.1-1.62.56-2.08.98-.84.22-2.03.85-2.44 2.71a16.73 16.73 0 0 0-.14.73 4 4 0 0 0-1.5 1.19c-.7.9-.96 2.06-.71 3.18.03.13.01.43 0 .7-.02.42-.04.96.04 1.55.14 1.22-.34 2.48-1.6 4.18-.55.75-2.19 2.95-.9 5.9.01.11.04.21.07.31.22.8.15.9.09 1a5.8 5.8 0 0 0-.47 6.36c.8 1.41 1.31 3.03 1.86 4.73l.27.85.18.53c.7 2.1 1.3 3.92 1.06 5.75l-.08.58c-.26 2.02-.5 3.93-1.06 5.72a8.83 8.83 0 0 1-.97 1.85l-.26.42c-.4.65-.72 1.3-1.02 1.95a6.15 6.15 0 0 0-2.79-.8c-.58 0-1.13.12-1.64.37-.68.33-1.2.93-1.44 1.65-.42 1.26-.17 1.76 1.77 5.61l.39.78a3.1 3.1 0 0 0 3.28 1.97h3.4c6.13 0 12.45 0 18.69-.04a2.83 2.83 0 0 0 2.3 1.17h.55c.43 0 .86-.1 1.24-.29h.37l.49.02h.13c1.84-.03 3.68-.13 5.46-.23 1.86-.1 3.79-.2 5.65-.22 1.05-.01 3.84-.04 5.32-2.9l.14-.17.3-.4c.18-.27.4-.54.61-.82.95-1.22 2.14-2.74 2.49-4.88.06-.39.2-1.3.37-1.41a6.7 6.7 0 0 0 2.86-3.96 2.84 2.84 0 0 0 2.37-.46c1.67-1.22 2.44-2.76 2.27-4.59-.04-.42.1-1 .23-1.62l.16-.72c.03-.13.1-.36.19-.59.27-.8.7-2 .38-3.4-.17-.73-.36-1.43-.55-2.1-.3-1.1-.6-2.14-.7-3.15-.17-1.5-.45-2.97-.71-4.39l-.32-1.75c-.42-2.43-1.13-4.94-3.42-6.84a5.74 5.74 0 0 0-3.61-1.53c-.8 0-1.56.21-2.27.64-.52.3-.7.33-.73.33h-.06l-.18-.03a3.7 3.7 0 0 0 1.44-2.64c.07-.54.1-1.09.15-1.63.06-.87.13-1.68.28-2.43l.08-.3c.18-.66.6-2.18-.2-3.7 0-.81-.22-1.51-.45-2.04.33-.4.54-.9.6-1.42.1-.82.4-3.07-1.15-4.9-.42-1.74-2.38-3.78-4.3-3.9a9.96 9.96 0 0 0-2.7-1.24c-.54-.18-1.05-.34-1.3-.54a3.52 3.52 0 0 0-1.4-.65c-.83-1.9-2.71-3.07-5.07-3.07h-.22c-.36 0-.44-.06-.55-.16a8.41 8.41 0 0 0-1.08-.73l-.38-.25a3.39 3.39 0 0 0-2.51-1.13Z"/><path d="M274.97 103.1c-.13-1.13-.87-1.17-1.82-1.16-7.55.04-15.1.04-22.65.04-.2 0-.47.1-.56-.18-.04-.16.1-.26.25-.33 1.24-.61 1.88-1.72 2.43-2.9.6-1.28 1.11-2.61 1.84-3.81.57-.94 1.17-1.82 1.5-2.89.7-2.22.96-4.5 1.26-6.8.34-2.65-.56-5.09-1.35-7.52-.68-2.06-1.28-4.16-2.36-6.08-.63-1.13-.41-2.34.3-3.32.82-1.15.66-2.26.32-3.46-.04-.14-.04-.31-.1-.45-.6-1.2-.36-2.1.5-3.26 1.31-1.78 2.41-3.81 2.12-6.23-.1-.83.12-1.65-.08-2.51-.15-.7.4-1.28 1.2-1.3.69-.03.88-.37.92-.97.04-.52.11-1.04.22-1.54.08-.33.12-.76.68-.63.24.06.4-.1.54-.27.4-.44.78-.9 1.47-.5.16.09.35.03.48-.16.52-.77 1.29-1.45 1.51-2.3.34-1.25 1.07-1.83 2.29-2.1.02.56.06 1.1-.49 1.5-.22.15-.3.34-.26.63.14 1.07.06 2.1-.43 3.12-.16.35-.3.94.13 1.51l.86-2.15c.1-.23.2-.54.47-.48.32.07.35.41.27.7-.19.62-.03 1.34-.5 1.9.3.17.4.01.52-.2a7.86 7.86 0 0 0 .9-4.91c-.3-2.32 1.06-3.97 3.46-4.06q1.15-.03 1.67-.49c-.77-.05-1.55-.12-1.75-.95-.29-1.18-.3-2.34.58-3.32.29-.32.6-.61.91-.92.15-.15.33-.29.15-.54-.4-.58-.08-.62.43-.63.77-.02 1.61.26 2.24-.5.12-.15.43-.1.58.08.5.58 1.22.83 1.79 1.3.72.6 1.5.83 2.48.8 1.17-.02 2.3.42 2.67 1.66.26.88.81 1.15 1.56 1.28.2.03.5.1.57.17 1.25 1 2.95 1 4.23 1.94.35.26.73.6 1.32.46.47-.12 1.73 1.21 1.77 1.73.01.24-.13.54.09.7 1.09.8 1.15 1.93 1 3.17-.22.11-.43-.16-.67-.23-.32-.09-.78-.49-.92-.17-.2.42-.54 1-.09 1.52.35.42.78.8 1.03 1.26.28.53.55 1.1.45 1.76-.03.2-.06.5.06.62.8.8.31 1.66.14 2.48-.3 1.42-.3 2.88-.47 4.3-.05.46-.17.68-.66.9-1.29.58-2.3 1.44-2.2 3.1.04.84-2.03 2.76-2.8 2.52-1.04-.33-1.13.65-1.16.92-.11.87-.54 1.69-.44 2.57.1.86.25 1.65 1.37 1.81.56.09 1.11.37 1.47.94.5-.6 1.04-1.17 1.49-1.82.3-.43 1.02-.07 1.2-.79.11-.47.4-.85-.2-1.3.65-.05.84-.32.74-.84-.08-.43-.05-.79.58-.71.76.1.79-.75 1.25-1.05.2-.12.17-.5.51-.44.99.15 1.8-.2 2.64-.7.98-.58 1.85 0 2.62.64 1.62 1.34 2.1 3.2 2.44 5.14.34 1.99.78 3.97 1 5.97.22 1.92.89 3.7 1.3 5.55.21.93-.38 1.87-.57 2.82-.22 1.04-.54 2.07-.44 3.15.1.95-.42 1.53-1.12 2.04-.33-.22-.42-.61-.52-.93-.2-.69-.82-.66-1.22-.63-.45.04-.82.48-.7 1.07.06.29.3.63-.34.56-.37-.05-.54.39-.53.62a3.93 3.93 0 0 1-1.84 3.68c-1.14.77-1.37 2.03-1.58 3.3-.3 1.82-1.6 3.1-2.61 4.52-.21.29-.49.59-.63.87-.62 1.22-1.63 1.39-2.84 1.4-3.71.03-7.41.39-11.13.45-.7.01-1.5-.14-2.18.27h-.56Z" class="e"/><path d="M275.25 32.59c.13 0 .28.06.37.17.5.58 1.22.83 1.79 1.3a3.47 3.47 0 0 0 2.58.8c1.13 0 2.22.45 2.57 1.66.26.88.81 1.15 1.56 1.28.2.03.5.1.57.17 1.25 1 2.95 1 4.23 1.94.3.22.61.49 1.05.49l.27-.03h.06c.5 0 1.67 1.24 1.7 1.73.02.24-.12.54.1.7 1.09.8 1.15 1.93 1 3.17a.24.24 0 0 1-.11.02c-.18 0-.36-.19-.56-.25-.24-.06-.54-.3-.75-.3-.07 0-.14.04-.17.13-.2.42-.54 1-.09 1.52.35.42.78.8 1.03 1.26.28.53.55 1.1.45 1.76-.03.2-.06.5.06.62.8.8.31 1.66.14 2.48-.3 1.42-.3 2.88-.47 4.3-.05.46-.17.68-.66.9-1.29.58-2.3 1.44-2.2 3.1.04.79-1.8 2.54-2.65 2.54-.05 0-.1 0-.14-.02a1.3 1.3 0 0 0-.4-.07c-.67 0-.74.76-.77 1-.11.86-.54 1.68-.44 2.56.1.86.25 1.65 1.37 1.81.56.09 1.11.37 1.47.94.5-.6 1.04-1.17 1.49-1.82.3-.43 1.02-.07 1.2-.79.11-.47.4-.85-.2-1.3.65-.05.84-.32.74-.84-.08-.4-.05-.72.42-.72h.16l.11.02c.65 0 .7-.78 1.14-1.06.18-.11.17-.45.45-.45h.06c.16.03.32.04.46.04.79 0 1.47-.3 2.18-.73.29-.17.56-.24.82-.24.66 0 1.25.43 1.8.88 1.62 1.34 2.1 3.2 2.44 5.14.34 1.99.78 3.97 1 5.97.21 1.92.89 3.7 1.3 5.55.21.93-.38 1.87-.57 2.82-.22 1.04-.54 2.07-.44 3.15.09.95-.42 1.53-1.12 2.04-.33-.22-.42-.61-.52-.93-.15-.54-.57-.64-.94-.64l-.29.01c-.44.04-.8.48-.7 1.07.06.26.26.57-.17.57a1.36 1.36 0 0 1-.21-.02c-.34 0-.5.4-.48.63a3.93 3.93 0 0 1-1.84 3.68c-1.14.77-1.37 2.03-1.58 3.3-.3 1.82-1.6 3.1-2.61 4.52-.21.29-.49.59-.63.87-.62 1.22-1.63 1.39-2.84 1.4-3.71.03-7.41.39-11.13.45h-.1l-.8-.02c-.44 0-.88.05-1.28.29h-.56c-.12-1.1-.8-1.17-1.7-1.17h-.12c-7.55.04-15.1.04-22.65.04l-.27.02c-.12 0-.24-.03-.29-.2-.04-.16.1-.26.25-.33 1.24-.61 1.87-1.72 2.43-2.9.6-1.28 1.11-2.61 1.84-3.81.57-.94 1.17-1.82 1.5-2.89.7-2.22.96-4.5 1.26-6.8.34-2.65-.56-5.09-1.35-7.52-.68-2.06-1.28-4.16-2.36-6.08-.63-1.13-.41-2.34.3-3.32.82-1.15.66-2.26.32-3.46-.04-.14-.04-.31-.1-.45-.6-1.2-.36-2.1.5-3.26 1.31-1.78 2.41-3.81 2.12-6.23-.1-.83.12-1.65-.08-2.51-.15-.7.41-1.28 1.2-1.3.69-.03.88-.37.92-.97.04-.52.11-1.04.22-1.54.07-.29.11-.66.5-.66l.18.03a.4.4 0 0 0 .1 0c.19 0 .32-.13.44-.27.3-.32.57-.66.97-.66a1 1 0 0 1 .5.16c.05.02.1.04.16.04.11 0 .23-.07.32-.2.52-.77 1.29-1.45 1.51-2.3.34-1.25 1.07-1.83 2.29-2.1.02.56.06 1.1-.49 1.5-.22.15-.3.34-.26.63.14 1.07.06 2.1-.43 3.12-.16.35-.3.94.13 1.51l.86-2.15c.08-.21.18-.49.4-.49a.3.3 0 0 1 .07 0c.32.08.35.42.27.7-.19.63-.03 1.35-.5 1.9.09.06.16.08.22.08.14 0 .22-.12.3-.27a7.86 7.86 0 0 0 .9-4.91c-.3-2.32 1.06-3.97 3.46-4.06q1.15-.03 1.67-.49c-.77-.05-1.55-.12-1.75-.95-.29-1.18-.3-2.34.58-3.32.29-.32.6-.61.91-.92.15-.15.33-.29.16-.54-.41-.58-.09-.62.42-.63h.08c.3 0 .6.03.89.03.46 0 .9-.09 1.27-.54.05-.05.12-.08.2-.08m0-2.84c-.68 0-1.32.22-1.85.6a9.08 9.08 0 0 0-.5-.01h-.16c-1.48.04-2.5.62-3.06 1.72-.13.27-.28.66-.31 1.14l-.15.16a5.8 5.8 0 0 0-1.46 4.58 5.92 5.92 0 0 0-2.04 1.69 5.48 5.48 0 0 0-4.84 4.14c-.03.07-.11.18-.2.29-.93.11-1.61.57-2.08.99-.84.21-2.03.85-2.43 2.71l-.02.06-.13.67a3.82 3.82 0 0 0-2.21 4.37c.03.13.02.43 0 .7-.01.42-.03.95.04 1.53.15 1.24-.33 2.5-1.6 4.2-.55.74-2.18 2.95-.9 5.9l.07.29c.23.82.16.92.1 1.01a5.8 5.8 0 0 0-.47 6.36c.8 1.42 1.31 3.04 1.86 4.75l.27.83.17.53c.7 2.1 1.3 3.92 1.06 5.75l-.07.59c-.26 2.02-.5 3.93-1.07 5.72-.18.57-.54 1.15-.96 1.83l-.27.44c-.6.99-1.04 1.98-1.47 2.95l-.5 1.12c-.46.96-.76 1.38-1.12 1.56a3.1 3.1 0 0 0 1.65 5.9h4.05c5.91 0 12.02 0 18.03-.04a2.83 2.83 0 0 0 2.3 1.16h.56c.43 0 .85-.1 1.24-.28h.36l.49.01h.15c1.82-.03 3.66-.13 5.43-.22 1.87-.1 3.8-.21 5.66-.23 1.06 0 3.84-.03 5.32-2.89l.15-.18.27-.37c.23-.31.44-.6.66-.87.94-1.22 2.12-2.73 2.46-4.85.06-.4.21-1.3.37-1.41a6.72 6.72 0 0 0 2.87-3.97 2.84 2.84 0 0 0 2.37-.46c1.67-1.22 2.43-2.77 2.27-4.6-.04-.4.09-.98.23-1.6l.16-.72c.02-.14.1-.37.18-.6.28-.8.7-2 .38-3.4-.16-.73-.35-1.42-.54-2.09-.3-1.1-.6-2.14-.7-3.15-.17-1.5-.45-2.96-.7-4.36l-.33-1.78c-.43-2.43-1.13-4.94-3.43-6.84-.6-.5-1.86-1.53-3.6-1.53-.8 0-1.56.2-2.27.63-.53.31-.7.34-.74.34h-.05c-.06-.02-.12-.03-.19-.03a3.7 3.7 0 0 0 1.45-2.65c.06-.54.1-1.08.14-1.62.07-.87.13-1.69.29-2.43l.07-.3c.19-.65.61-2.18-.2-3.7a5.3 5.3 0 0 0-.44-2.05c.32-.4.54-.9.6-1.42.1-.82.39-3.06-1.15-4.9-.45-1.76-2.4-3.77-4.3-3.89a9.98 9.98 0 0 0-2.72-1.25 4.94 4.94 0 0 1-1.28-.53 3.5 3.5 0 0 0-1.4-.65c-.84-1.91-2.72-3.07-5.07-3.07h-.23c-.35 0-.43-.07-.54-.16-.4-.32-.78-.55-1.09-.74-.13-.08-.3-.18-.37-.24a3.4 3.4 0 0 0-2.51-1.14ZM26.8 41.29H8.3L0 89.24h32.48l1.3-15.07h-9.7c.79-4.75 5.55-32.88 5.55-32.88H26.8Z"/><path d="M48.7 41.5c-10.63 0-13.82 6.17-14.62 11.34l-4 24.35c-.62 3.67 0 6.63 1.84 8.8 2.04 2.42 5.34 3.6 10.08 3.6h18.24c8.39 0 13.28-3.8 14.54-11.3l4-24.4c.62-3.68.01-6.66-1.82-8.82-2.03-2.4-5.3-3.57-10.02-3.57H48.7Z"/><path d="M145.73 41.46H77.65L74.93 57.9h7.27l-5.28 31.59h23.7l5.28-31.58h8.82l-5.28 31.58h23.69l5.28-31.58h8.51l2.77-16.44h-3.96Z"/><path d="M159.7 41.5c-10.63 0-13.82 6.17-14.62 11.34l-4 24.35c-.62 3.67 0 6.64 1.83 8.8 2.05 2.42 5.35 3.6 10.09 3.6h18.24c8.38 0 13.28-3.8 14.53-11.3l4.01-24.4c.62-3.68 0-6.66-1.82-8.82-2.03-2.4-5.31-3.57-10.03-3.57H159.7ZM29.63 41.29 12.7 46.03 0 89.23l5.65 6.46h29.27l2.15-13.29h-9.72l6.09-36.37-3.81-4.74Z"/><path d="M54.04 47.71c-10.63 0-13.82 6.17-14.63 11.34l-4 24.35c-.6 3.67 0 6.63 1.84 8.8 2.05 2.42 5.35 3.6 10.09 3.6h18.24c8.39 0 13.28-3.8 14.54-11.3l4-24.4c.62-3.68 0-6.66-1.82-8.82-2.03-2.4-5.31-3.57-10.03-3.57H54.04Z"/><path d="m149.7 41.46-31.15 6.21H83L80.27 64.1h7.27c-.6 3.59-10.62 25.38-10.62 25.38l5.34 6.2h23.69l5.28-31.58h8.83c-.72 4.3-10.62 25.38-10.62 25.38l5.34 6.2h23.69l5.28-31.58h8.5l2.78-16.44-5.34-6.2Z"/><path d="M165.03 47.71c-10.63 0-13.82 6.17-14.62 11.34l-7.32 27.12s3.32 3.86 5.16 6.03c2.04 2.42 5.34 3.6 10.09 3.6h18.23c8.4 0 13.28-3.8 14.54-11.3l4-24.4c.63-3.68.02-6.66-1.82-8.82-2.03-2.4-5.44-6.34-5.44-6.34l-22.82 2.77Z"/><path d="M29.6 86.07H3.98l6.93-42.08H26.8l-6.08 36.37h9.73l-.85 5.71zM71.48 77.73c-1 5.96-4.7 8.5-11.24 8.5H42c-6.61 0-9.61-2.54-8.62-8.5l4-24.38c.93-5.95 4.7-8.5 11.32-8.5h18.24c6.62 0 9.54 2.55 8.54 8.5l-4 24.38Zm-15-24.87c-1.47 0-2.47.92-2.78 2.83l-3.23 19.7c-.31 1.92.38 2.84 1.85 2.84 1.46 0 2.46-.92 2.77-2.83l3.23-19.7c.3-1.85-.39-2.84-1.85-2.84ZM113.21 44.81v-.01l-32.72.01-1.61 9.74h7.28l-5.28 31.58h16.9l5.28-31.58H118.68l-5.28 31.58h16.89l5.29-31.58h8.51l1.64-9.75-32.52.01zM182.47 77.73c-1 5.96-4.7 8.5-11.23 8.5H153c-6.62 0-9.62-2.54-8.62-8.5l4-24.38c.93-5.95 4.7-8.5 11.31-8.5h18.24c6.62 0 9.54 2.55 8.55 8.5l-4 24.38Zm-15-24.87c-1.46 0-2.47.92-2.77 2.83l-3.23 19.7c-.31 1.92.38 2.84 1.84 2.84s2.47-.92 2.77-2.83l3.23-19.7c.31-1.85-.38-2.84-1.84-2.84Z" class="f"/><path d="M29.6 86.07H3.98l6.93-42.08H26.8l-5.55 33.58h9.73l-1.38 8.5zM71.48 77.73c-1 5.96-4.7 8.5-11.24 8.5H42c-6.61 0-9.61-2.54-8.62-8.5l4-24.38c.93-5.95 4.7-8.5 11.32-8.5h18.24c6.62 0 9.54 2.55 8.54 8.5l-4 24.38Zm-15-24.87c-1.47 0-2.47.92-2.78 2.83l-3.23 19.7c-.31 1.92.38 2.84 1.85 2.84 1.46 0 2.46-.92 2.77-2.83l3.23-19.7c.3-1.85-.39-2.84-1.85-2.84ZM113.21 44.81v-.01l-32.72.01-1.61 9.74h7.28l-5.28 31.58h16.9l5.28-31.58H118.68l-5.28 31.58h16.89l5.29-31.58h8.51l1.64-9.75-32.52.01zM182.47 77.73c-1 5.96-4.7 8.5-11.23 8.5H153c-6.62 0-9.62-2.54-8.62-8.5l4-24.38c.93-5.95 4.7-8.5 11.31-8.5h18.24c6.62 0 9.54 2.55 8.55 8.5l-4 24.38Zm-15-24.87c-1.46 0-2.47.92-2.77 2.83l-3.23 19.7c-.31 1.92.38 2.84 1.84 2.84s2.47-.92 2.77-2.83l3.23-19.7c.31-1.85-.38-2.84-1.84-2.84Z" class="f"/><path d="m235.93 41.98-29.3 4.12-18.54 28.44-5.6 8.18 3.56 4.12h22.84c-.16.97-5.03 4.83-5.03 4.83l3.56 4.12h24.02l1.46-8.95h6.38l2.48-14.81-3.56-4.12-2.91 4.12 4.19-25.93-3.55-4.12Z"/><path d="m277.82 41.98-35.9 4.12-5.85 10.63 3.56 4.12h14.57c-2.7 4.35-25.25 30.82-25.25 30.82l3.55 4.12h24.74l21.8-34.9 2.92-17.8-4.14-1.11Z" class="h"/><path d="M233.3 41.98h-30.22L184.53 70.4l-2.03 12.31h22.83l-1.47 8.95h24.02l1.46-8.95h6.39l2.47-14.81h-6.47l4.2-25.93h-2.62Z"/><path d="M275.21 41.98h-36.85l-2.29 14.75h14.57l-21.7 34.94h24.75l21.8-34.9 2.33-14.8h-2.6Z" class="h"/><path d="M233.84 80.49h-6.39L226 89.44h-19.5l1.46-8.95h-22.83l1.53-9.25L204.3 44.2h29.02l-4.2 25.92h6.46l-1.73 10.36Zm-30.93-10.36h5.86l2-12.38-7.86 12.38Zm70.44-14.16-20.9 33.47h-19.5l21.7-34.94h-15.97l1.6-10.3h34.93l-1.86 11.77Z" style="fill:#dcf2fd"/></g></svg>