<svg xmlns="http://www.w3.org/2000/svg" id="b" viewBox="0 0 447.2 209.37"><defs><radialGradient id="e" cx="-77.9" cy="865.27" r="1.67" fx="-77.9" fy="865.27" gradientTransform="translate(1942.669 20481.34) scale(23.606 -23.606)" gradientUnits="userSpaceOnUse"><stop offset="0" stop-color="#fff"/><stop offset=".07" stop-color="#fffdf4"/><stop offset=".2" stop-color="#fff8d9"/><stop offset=".37" stop-color="#fff0ad"/><stop offset=".56" stop-color="#ffe570"/><stop offset=".79" stop-color="#ffd723"/><stop offset=".88" stop-color="#ffd100"/></radialGradient><clipPath id="d"><path d="M65.46 70.82a50.76 50.76 0 1 0 101.52 0 50.76 50.76 0 0 0-101.52 0" style="fill:none"/></clipPath><style>.f{fill:#7b8689}.i{fill:#fed103}.j{fill:#e31f26}.m{fill:#2c2b7c}</style></defs><g id="c"><path d="M86.22 176a305.42 305.42 0 0 1-19.98-7.4c10.75 6.78 24.4 12.85 38.94 17.17a144.74 144.74 0 0 0 19.5 4.68c2.25.37 4.01.63 6 .84l.59-4.2c-13.55-2.02-28.84-5.71-45.05-11.1" class="i"/><path d="m309.83 98.63 16.12.02v-3.56l-16.14-.01.02 3.55zM329.5 95.1l-.02 5.72 2.54-.03v6.98a40.23 40.23 0 0 0 7.23 12.25c6.04 6.89 14.13 10.62 22.95 10.62.65 0 1.3-.02 1.95-.06 7.93-.49 15.6-4.59 21.38-11.24-5.2 4.54-11.43 7.3-17.83 7.68-.65.04-1.3.06-1.94.06-8.83 0-16.92-3.72-22.95-10.62-7.1-8.11-10.86-19.77-10.85-33.71 0-14.36 3.79-26.41 10.73-34.51l-.6.5c-6.41 5.78-10.72 14.43-12.6 24.97l.02 21.39ZM375.63 72.57c-1.29-3.54-3.69-5.66-6.58-5.83a7.2 7.2 0 0 0-5.5 2.1c-.67.63-1.3 1.42-1.85 2.32a6.96 6.96 0 0 1 3.8-.87c2.27.14 4.23 1.5 5.6 3.78l9.64.3 13.29-6.22-.34-2.08-.12-.39-17.37 8.46-.57-1.57ZM179.61 167.7c.18-1.02.4-2.03.68-3.02l5.62-19.51-2.58.15-5.27 18.31 1.55 4.07Z" class="f"/><path d="m362.13 77.43-.2 20.17c.33.44.67.85 1.04 1.2a7.9 7.9 0 0 0 1.91 1.42l5.95-.01a7.35 7.35 0 0 0 3.56-3.56l-8.93.02.18-19.12-3.51-.12ZM278.51 130.96l-2.78.16.04 3.34 52.7-3.09v-3.35l-49.15 2.89L278 33.68l-3.61-.37 1.06 77.75 3.06 19.9zM309.63 65.68l18.11 1.07v-3.77l-18.13-1.06.02 3.76zM442.23 141.06v-.03c-1.5-1.24-2.8-1.77-4.12-1.67-.25.02-.66.1-.75.45l.42.1 2.4.52c.67.14 1.37.34 2.05.62ZM434.05 153.91c.01 0 1.18-.17 1.21-.9v-.03l-.52-.09-2.2-.29a9.97 9.97 0 0 1-3.9-1.34l.57.54c1.71 1.57 3.34 2.29 4.84 2.11ZM426.94 149.91c-1.6-1.65-2.66-4.1-2.56-7.53a16.61 16.61 0 0 1 3-9.26 14.97 14.97 0 0 0-3.8 3.9l-.78 25.44 4.14-12.55ZM396.37 103.3l-6.04 24.45 22.4-1.32.59-3.38-19.44 1.15 18.93-76.54-2.6-.27-11.61 46.93a48.38 48.38 0 0 1-2.22 8.98ZM428.06 113.17l-10.17.4-.59 3.43 7.21-.28 1.27 8.95 19.66-1.16-.62-3.31-15.49.92-1.27-8.95zM410.38 143.45a35.7 35.7 0 0 1 0-1.88l.25-9.1-3.47.2-.1 3.72 3.32 7.06ZM225.18 134.09l-20.2 1.18-15.41-47.1c-.56-2.02-1.07-3.97-1.53-5.89-.06 1.69-.13 3.37-.23 5.02l-.47 8.47 14.08 43.05 22.88-1.34.88-3.4ZM368.68 175c-1.07.14-2.13.22-3.16.22-4.73 0-9-1.51-12.26-4.37-4.14-3.63-6.3-9.08-6.26-15.75a25.29 25.29 0 0 1 5.46-15.77c-3.38 2.71-6 6.4-7.52 10.7l-.07 17.2a17.5 17.5 0 0 0 4.83 7.17c3.26 2.86 7.53 4.37 12.27 4.37 1.03 0 2.08-.07 3.15-.22a22.92 22.92 0 0 0 14.93-8.36 23.1 23.1 0 0 1-11.37 4.8ZM274.45 131.2l-28.66 1.68-4.99-48.91c-.14.65-.3 1.3-.47 1.94L238 94.87l4.23 41.56 32.73-1.92-.51-3.32ZM294.36 184.34l-.53-45.26-3.59.2.33 27.95 1.99-.22.24 17.54-2.03.27.04 3.07 31.93-4.28v-3.07l-28.38 3.8zM410.33 168.8l-6.57-13.13v.73l-.23 9.45 3.25 6.5 12.33-1.66.1-3.09-8.88 1.2ZM434.84 166.05a19.69 19.69 0 0 1-11.25-1.97l-.82-.43-.1 3.49-2.86.38.23.12a19.68 19.68 0 0 0 11.25 1.96c3.66-.49 7.55-2.56 10.11-6.17a14.94 14.94 0 0 1-6.56 2.62ZM257.18 189.32l-1.17-48.11-3.64.21 1.26 51.46 35.62-4.78-.04-3.07-32.03 4.29zM389.57 171.57l.76-37.95-3.48.2-.14 6.87a22.72 22.72 0 0 1 2.28 10.71 25.55 25.55 0 0 1-2.72 11.12l-.26 12.6 13.88-1.85.07-3.09-10.4 1.4ZM327.47 179.9l-.03-42.73-3.56.2.02 26.21 2.37-.26.03 16.74-2.38.32v3.07l17.35-2.32.01-3.08-13.81 1.85zM181.7 136.63l-39.49 2.31L155.62 21l-4-.34-13.86 121.82 43.75-2.5.19-3.35zM132.58 206.03l8.19-58.31-3.97-.03-8.67 61.68 29.24-3.59.2-3.1-24.99 3.35zM214.97 76.67c.37-3.04.8-6.07 1.46-8.96l9.14-39.46-2.66-.28-9.74 42.02 1.8 6.68ZM228.54 193.16l-1.72-50.3-3.67.21 1.84 53.64 22.84-3.05-.08-3.07-19.21 2.57zM200.73 196.89l-3.54-23.34-2.79 8.59 2.78 18.3 23.98-3.21-.69-2.99-19.74 2.65zM173.25 200.57l-10.5-23.05-.17-.46v.02l-.66 9.97 7.78 17.08 15.86-2.14 1.04-3.21-13.35 1.8Z" class="f"/><path d="m157.38 18.77 41.6 4.3 15.96 59.26.91.02c.51-4.73 1.01-9.74 2.04-14.31l9.73-42 33.78 3.5 15.38 100.02-29.65 1.74-5.71-56.1-.6-.03c-.54 3.46-1.05 7.04-1.94 10.35l-12.21 46.98-20.63 1.2-15.05-46c-1.3-4.76-2.46-9.27-2.93-14.07l-1.27-.04c-.12 4.5-.22 9.14-.48 13.63l-2.67 47.8-39.74 2.32 13.48-118.57ZM279.46 31.42l50.32 5.22.01 24.96-21.69-1.27.05 8.99 19.83.86.02 23.42-19.7-.02.06 9.07 22.16-.33.01 24.08-49.73 2.92-1.34-97.9zM398.3 76.55c-.38 12.83-.57 23.52-6.93 33.63-5.83 9.33-14.9 14.8-23.76 15.35-9.01.55-17.42-2.91-23.68-10.06-6.42-7.34-10.48-18.46-10.47-32.72 0-29.32 15.8-45.5 35.15-43.45 10.1 1.08 23.25 9.5 27.2 23.62l-18.77 9.14c-1.54-4.25-4.5-6.62-7.9-6.82-7.76-.42-12.2 8.9-12.26 19.23-.07 9.37 4.05 18.06 11.04 17.95a8.95 8.95 0 0 0 8.54-7.27l-9.49.01.2-19.73 31.12 1.12ZM420.12 94.35l3.67-22.76.62.04c.23 3.19.46 6.47.87 9.65l1.63 13.07h-6.8Zm-3.5 17.77 12.74-.5 1.26 8.92 16.58-.98-13.36-72.13-18.94-1.97-19.08 77.12 19.2-1.13 1.6-9.33Z" class="j"/><path d="m228.25 140.93 20.24-1.14 1.36 49-19.87 2.66-1.73-50.52zM257.46 139.28l18.5-1.04.59 32.03 14.54-1.59.19 14.56-32.64 4.37-1.18-48.33zM295.31 137.15l16.35-.93.2 30.18 12.91-1.41.02 13.76-28.95 3.88-.53-45.48zM328.94 135.24l14.56-.82-.17 41.84-14.36 1.93-.03-42.95zM391.87 131.69l11.03-.63 9.32 19.84.31-.04c-.35-3.01-.73-6.13-.65-9.25l.3-11.07 10.1-.57-1.08 35.85-10 1.34-9.13-18.22-.33.03c.3 2.55.57 4.93.52 7.4l-.29 12.03-10.87 1.46.77-38.17ZM427.69 152.43l.49.46c1.72 1.58 3.8 2.77 6.04 2.51.95-.1 2.48-.78 2.54-2.34.05-1.55-1.21-1.55-2.09-1.7l-1.93-.25c-3.83-.48-7.03-3.11-6.86-8.68.27-8.5 6.39-13.59 12.24-13.91 3-.17 5.69.65 8.13 2.55l-2.85 8.97c-1.56-1.33-3.35-2.34-5.4-2.17-.85.06-2.1.57-2.16 2-.03 1.3 1.16 1.4 1.88 1.56l2.14.46c3.95.84 6.69 3.38 6.47 9.14-.31 8.05-6.02 12.77-11.69 13.53a18.2 18.2 0 0 1-10.35-1.8l3.4-10.33ZM142.56 145.77l26.5-1.5 10.77 28.22.62-.05c.31-2.42.62-4.98 1.28-7.36l6.3-21.88 23.17-1.3 11.68 50.5-20.88 2.8-4.31-28.33-.41.04c-.35 1.79-.68 3.66-1.27 5.41l-8.03 24.76-13.83 1.86-10.03-22.04a30.45 30.45 0 0 1-1.96-6.76l-.83.07c-.05 2.24-.1 4.54-.25 6.77l-1.58 23.92-25.16 3.38 8.22-58.51ZM369 132.34c-10.99.6-20.42 9.69-20.5 22.77-.08 13.25 9.08 19.88 19.98 18.4 10.45-1.4 18.78-9.84 19.01-22.14.23-12.13-7.95-19.62-18.5-19.03" class="m"/><path d="m367.44 148.69 3.15-10.78 3.52 10.26 8.99-.74-6.94 6.68 3.1 9.28-8-4.67-9.38 8.96 3.55-12.16-10.36-5.94 12.37-.89z" style="fill:#fff"/><g style="clip-path:url(#d)"><path d="M65.46 20.06h101.5v101.51H65.46z" style="fill:url(#e)"/></g><path d="M114.89 131.29a83.5 83.5 0 0 1-15.43-.74 47.66 47.66 0 0 0 30.91 6.5 41.78 41.78 0 0 0 20.09-7.38l.44-.32a48.17 48.17 0 0 0 16.78-19.62l.73-1.63.12-.27.37-.82a43.24 43.24 0 0 0 1.63-4.76c-9.71 16.19-30.76 27.94-55.64 29.04" class="i"/><path d="m155.87 70 .86-9.4-5.12 6.49-7.04-5.06 2.74-9 7.65 1.6-5.95-7.16 2.53-8.07-6.35 3.45-6.9-8.33 2.4 10.91-7.3 3.92-5.8-9.57 6.03-7.63-10.29.54-6.95-11.67-.07 12.05-13.6.71 13.7 7.24-.15 12.33-14.07-.06-6.84-14.16-4.02 14.09-20.1-.24 17.56 9.18-4.53 15.88 14.4-10.92L111.63 74l-5.9 13.3-17.72.75 13.44 8.77-7.32 16.11 14.5-11.43 10.78 7.02-2.88-13.43 10.56-8.24 6.71 8.68-6.25 12.44 10.36-7.08 5.91 7.8-.5-11.5 7.97-5.46-8.39-1.8-.42-10.93 8.11-2.03 3.82 8.96.92-10.12 6.54-1.56-6-4.26Zm-13.6 8.88-5.02 9.77-10.16-2.13-12.25.38-2.81-13-5.86-12.4 10.3-7.94 7.1-8.68 9.7 5.08 8.82 1.98 2.26 10.17 3.84 9.22-5.92 7.55Z" class="m"/><path d="M24.42 40.56c-4.58 11.66-2.21 39.6 8.25 58.95a154.3 154.3 0 0 0 13.97 23.18c-13.76-14.44-29.36-37.64-35.58-66.71 6.63-9.59 9.14-11.26 13.36-15.42Z" class="j"/><path d="M95.5 16.53a45.12 45.12 0 0 1 6.85-2.11c-6-3.37-51.4-27.48-84.84-4.82C-10.72 28.72 2.93 68.4 5.94 76.13c8.22 22.43 24.63 45.2 46.2 64.13 20.93 18.36 45.63 29.66 68.34 35.18l.24-.67c-13.93-6.67-26.57-17.78-39.08-28.76C44.88 113.75 24.99 70.79 33.3 42.46A171.6 171.6 0 0 1 59.24 58.4c.4-1.75.88-3.47 1.44-5.16A174.38 174.38 0 0 0 32.9 36.7l-2.47-1.17-.94 2.56c-5.41 14.68-3.55 33.88 5.25 54.07 8.81 20.2 24.3 40.66 43.6 57.6a192.49 192.49 0 0 0 17.14 13.42 177.34 177.34 0 0 1-40.04-26.69c-20.95-18.39-36.86-40.44-44.82-62.14-2.78-7.14-15.39-43.63 9.7-60.62 9.37-6.35 19.96-8.61 30.3-8.61 18.69 0 36.55 7.38 44.89 11.4Z" class="i"/><path d="M87.7 20.29c-10.47-4.1-26.47-10-36.92-10-10.77 0-20.12 2.64-27.8 7.84-.54.36-1.1.77-1.75 1.29l-.45.36-.07.06c-.36.3-.72.6-1.1.95l-.19.17-.34.31c-.4.4-.8.8-1.2 1.23-.24.25-.46.51-.69.78l-.03.04a25.86 25.86 0 0 0-1.28 1.6l-.16.22-.1.14c-5.14 7.24-6.35 16.28-5.84 24.74 1.22-1.9 2.57-3.7 4.07-5.41 4.14-4.72 9.97-11 15.88-13.78l3.96 1.87 1.28.6c6.75 3.2 18.96 9.92 27.48 15.2A59.21 59.21 0 0 1 87.69 20.3Z" class="i"/><path d="M54.32 66.9c0-17.1 7.3-32.51 18.94-43.29a49.51 49.51 0 0 0 0 86.59 58.83 58.83 0 0 1-18.94-43.3Z" class="j"/><path d="m326.38 8.12 3.86.41 4.4 12.13 4.48-11.19 3.86.4-.09 20-3.89-.42.05-11.53-3.13 7.46-2.65-.27-3.04-8.07-.05 11.48-3.9-.4.1-20ZM345.87 10.19l3.89.4-.1 20-3.89-.42.1-19.99ZM351.98 24.22l.03-6.86c.02-4.06 2.77-6.6 6.71-6.18 4.4.46 6.67 3.6 6.65 8.22v.05l-3.89-.4v-.3c.02-2.94-1.42-3.69-2.77-3.83-1.36-.15-2.77.44-2.78 2.74l-.03 7.09c-.01 2.35 1.4 3.2 2.75 3.35 1.8.2 2.8-.58 2.8-3.5v-.26l3.9.41v.12c-.03 5.01-2.24 7.45-6.72 6.97-3.95-.41-6.67-3.54-6.65-7.62ZM367.24 12.44l3.9.42-.05 8.3 5.25.56.04-8.31 3.89.41-.1 19.99-3.89-.41.04-8.28-5.24-.56-.04 8.28-3.9-.4.1-20ZM383.26 14.14l3.89.4-.1 20-3.89-.41.1-20ZM389.37 28.17l.03-6.83c.02-4.08 2.77-6.63 6.69-6.21 3.9.4 6.58 3.47 6.65 7.45l-3.9-.41c.02-2.13-1.08-3.12-2.71-3.3-1.75-.18-2.8.62-2.8 3.28l-.04 6.58c0 2.04 1.03 3.11 2.72 3.3 1.44.14 2.8-.5 2.8-2.72v-.34l-2.76-.3.02-3.42 6.65.7-.01 3.63c-.02 4.08-2.77 6.6-6.72 6.18-3.92-.41-6.64-3.5-6.62-7.59ZM409.03 16.86l4.26.45 5.66 20.6-3.98-.42-1.02-4.05-5.78-.61-1.12 3.82-3.94-.42 5.92-19.37Zm4.12 13.12-2-8.04-2.15 7.6 4.15.44ZM419.97 18.02l3.67.39 5.78 12.24.06-11.62 3.91.4-.09 20-3.66-.4-5.82-12.18-.05 11.57-3.89-.41.1-20Z" class="m"/></g></svg>