<svg id="b" xmlns="http://www.w3.org/2000/svg" viewBox="0 0 338.74 95.1"><defs><style>.d{fill:#fff}.h{fill:#101820}</style></defs><g id="c"><path d="M3.39.3h2.34l4.05 10.8L13.85.3h2.34v12.86h-1.62V2.46h-.04l-4.01 10.7H9.06L5.04 2.46h-.03v10.7H3.39V.31ZM21.44.3h1.71v12.86h-1.71V.31ZM37.4 4.18c-.37-1.82-1.8-2.74-3.6-2.74-3.05 0-4.35 2.52-4.35 5.2 0 2.94 1.3 5.39 4.37 5.39 2.24 0 3.57-1.59 3.71-3.71h1.71c-.34 3.22-2.3 5.15-5.56 5.15-3.98 0-5.94-2.95-5.94-6.7S29.86 0 33.82 0c2.69 0 4.92 1.44 5.3 4.18H37.4ZM43.7.3h1.72v5.53h6.77V.31h1.7v12.85h-1.7V7.27h-6.77v5.9H43.7V.3ZM59.11.3h1.71v12.86h-1.7V.31ZM75.66 11.56a5.13 5.13 0 0 1-4.13 1.9c-3.83 0-6.12-3.1-6.12-6.47 0-3.75 2.06-6.99 6.12-6.99 2.8 0 5.06 1.26 5.53 4.27h-1.7c-.35-1.95-1.9-2.83-3.83-2.83-3.11 0-4.4 2.72-4.4 5.46 0 2.68 1.54 5.13 4.4 5.13 2.67 0 4.22-1.84 4.13-4.2h-4.1V6.4h5.63v6.77H76.1l-.45-1.6ZM85.54.3h1.89l5.02 12.86h-1.89l-1.4-3.87h-5.44l-1.44 3.87H80.5L85.54.31Zm-1.28 7.55h4.36l-2.15-6h-.03l-2.18 6ZM96.03.3h1.82l6.77 10.43h.03V.31h1.63v12.85h-1.88L97.7 2.85h-.04v10.31h-1.62V.31Z"/><path class="d" d="M284.18 78.91h53.98v15.5h-53.98V78.9Zm-258.3-7.87A24.81 24.81 0 0 1 3.26 56.4a24.94 24.94 0 0 1 5.04-27.9c.48-.48 1-.94 1.5-1.39a24.53 24.53 0 0 1 16.1-5.87c6.27.01 12.3 2.37 16.92 6.6l.75.7c.36.36.69.73 1 1.11a25 25 0 0 1 5.69 11.2c.32 1.45.52 2.92.6 4.4a24.87 24.87 0 0 1-7.3 18.5l-.73.7a24.53 24.53 0 0 1-5.52 3.8 25 25 0 0 1-11.36 2.8h-.05Z"/><path class="h" d="M25.94 22.24a24 24 0 0 1 16.2 6.28l.72.68 1 1.07a23.89 23.89 0 0 1-7.02 37.11 24.11 24.11 0 0 1-11 2.65c-6.33 0-12.4-2.52-16.87-7a23.43 23.43 0 0 1-6.94-17.78 23.87 23.87 0 0 1 8.42-17.39 23.84 23.84 0 0 1 15.44-5.62h.05Zm0-2A25.99 25.99 0 0 0 6.56 29 25.74 25.74 0 0 0 2.3 56.81a25.94 25.94 0 0 0 23.58 15.23c6.5 0 12.79-2.42 17.6-6.8l.78-.74a25.92 25.92 0 0 0-.01-36.66l-.77-.74a26 26 0 0 0-17.55-6.86Z"/><path class="d" d="M83.38 71.04a24.93 24.93 0 0 1-17.62-42.57c.47-.49 1-.95 1.5-1.4a25.25 25.25 0 0 1 5.62-3.6c3.3-1.5 6.88-2.27 10.5-2.23 6.27.02 12.3 2.37 16.93 6.6l.73.7c.37.36.7.73 1 1.11a24.87 24.87 0 0 1-1.01 34.13l-.74.71a24.52 24.52 0 0 1-5.5 3.75 25 25 0 0 1-11.36 2.8h-.05Z"/><path class="h" d="M83.43 22.24a24 24 0 0 1 16.2 6.32l.7.68a24 24 0 0 1 6.99 16.07 23.83 23.83 0 0 1-13 22.12 24.11 24.11 0 0 1-11 2.65c-6.33 0-12.4-2.52-16.86-7a23.89 23.89 0 0 1 1.44-35.16 23.84 23.84 0 0 1 15.48-5.68h.05Zm-.06-2A26 26 0 0 0 64 29a26 26 0 0 0 2.65 36.94 25.93 25.93 0 0 0 16.72 6.11h.06a26.2 26.2 0 0 0 17.56-6.8l.76-.74a25.92 25.92 0 0 0 0-36.66l-.76-.74a26.06 26.06 0 0 0-17.56-6.86h-.06Z"/><path class="d" d="M140.68 71.04c-8.06.01-15.61-3.9-20.27-10.47a24.91 24.91 0 0 1 1.66-31c.33-.38.68-.75 1-1.1.3-.37 1-.95 1.5-1.4a24.54 24.54 0 0 1 16.12-5.83c6.26.02 12.3 2.37 16.9 6.6l.76.7c.36.36.7.73 1.05 1.11a25 25 0 0 1 6.23 15.62 24.87 24.87 0 0 1-7.28 18.51l-.75.71a24.5 24.5 0 0 1-5.5 3.75A25 25 0 0 1 140.72 71l-.03.04h-.01Z"/><path class="h" d="M140.72 22.24a24 24 0 0 1 16.22 6.32l.7.68a23.89 23.89 0 0 1-6.01 38.18 23.7 23.7 0 0 1-26.35-3.03 24.09 24.09 0 0 1-4.02-4.33 24 24 0 0 1 3.98-32.2 23.84 23.84 0 0 1 15.44-5.6h.04v-.02Zm0-2a25.91 25.91 0 1 0 17.52 45l.78-.74a25.92 25.92 0 0 0 0-36.66l-.78-.74a26 26 0 0 0-17.52-6.86Z"/><path class="d" d="M197.98 71.04a24.7 24.7 0 0 1-17.57-7.3 24.89 24.89 0 0 1-1.08-34.13c.32-.38.67-.75 1-1.1.3-.37 1-.95 1.5-1.4a24.54 24.54 0 0 1 16.16-5.87 25 25 0 0 1 16.92 6.6l.75.7c.35.36.7.73 1 1.11a24.9 24.9 0 0 1-1.05 34.17l-.73.71a24.57 24.57 0 0 1-5.5 3.71A25 25 0 0 1 198.03 71l-.04.04Z"/><path class="h" d="M198.03 22.24a24 24 0 0 1 16.2 6.28l.73.68c.33.35.68.71 1 1.07a23.89 23.89 0 0 1-1 32.75l-.72.68a24.18 24.18 0 0 1-16.3 6.33 23.9 23.9 0 0 1-15.4-42.16 23.84 23.84 0 0 1 15.44-5.63h.05Zm0-2a26.26 26.26 0 0 0-18.35 7.55 25.86 25.86 0 0 0-.09 36.57l.09.1a25.93 25.93 0 0 0 18.28 7.58c6.52.01 12.8-2.4 17.63-6.8l.76-.74a25.92 25.92 0 0 0 0-36.66l-.76-.74a26 26 0 0 0-17.56-6.86Z"/><path class="d" d="M255.48 71.04c-8.05 0-15.6-3.9-20.24-10.47a24.91 24.91 0 0 1 1.66-31c.32-.38.68-.75 1-1.1.3-.37 1-.95 1.5-1.4a24.54 24.54 0 0 1 16.08-5.83c6.27.01 12.3 2.37 16.92 6.6l.74.7a24.9 24.9 0 0 1 .07 35.22l-.07.06-.74.71a24.5 24.5 0 0 1-5.51 3.71A25 25 0 0 1 255.5 71l-.04.04Z"/><path class="h" d="M255.52 22.24a24 24 0 0 1 16.2 6.32l.7.68a23.89 23.89 0 0 1-6 38.18 24.18 24.18 0 0 1-11 2.65 23.92 23.92 0 0 1 .05-47.83h.05Zm0-2a25.91 25.91 0 1 0 17.56 45l.76-.74a25.92 25.92 0 0 0 0-36.65l-.76-.75a26 26 0 0 0-17.56-6.86Z"/><path d="M294.54 64.34a25.92 25.92 0 0 0 35.8.73l.79-.74a25.87 25.87 0 0 0 0-36.58l-.78-.74a25.89 25.89 0 0 0-38.37 3.71 25.87 25.87 0 0 0 2.56 33.61v.01Z" fill="#c8102e"/><path class="h" d="M203.08 78.5v16.6h135.66V78.5H203.08Zm134.4 15.33h-52.13V79.77h52.13v14.06Z"/><path d="M206.96 80.82h6.38a4.36 4.36 0 0 1 3.12 1 3.72 3.72 0 0 1 1 2.82 3.83 3.83 0 0 1-1.13 2.94 4.91 4.91 0 0 1-3.47 1.06h-2.1v4.6h-3.85V80.82h.05Zm3.84 5.3h.94a2.4 2.4 0 0 0 1.56-.39c.3-.24.47-.6.46-1 0-.37-.13-.73-.4-1a2 2 0 0 0-1.45-.4h-1.1v2.8h-.01Zm9.44.58a5.87 5.87 0 0 1 6.44-6.46 6.52 6.52 0 0 1 4.8 1.66 6.32 6.32 0 0 1 1.67 4.67 7.64 7.64 0 0 1-.74 3.57 5.28 5.28 0 0 1-2.12 2.17 6.94 6.94 0 0 1-3.44.78 8.05 8.05 0 0 1-3.5-.67 5.32 5.32 0 0 1-2.22-2.13 7 7 0 0 1-.86-3.62l-.03.03Zm3.85 0c-.1.96.16 1.92.7 2.71a2.3 2.3 0 0 0 1.9.82c.72.04 1.42-.25 1.9-.8.55-.85.8-1.87.7-2.89a3.87 3.87 0 0 0-.71-2.57 2.43 2.43 0 0 0-1.93-.8c-.71-.03-1.4.28-1.87.82-.54.8-.78 1.76-.7 2.71Zm11.54-5.95h3.65l1.3 6.95 1.93-6.95h3.64l1.92 6.95 1.3-6.95h3.64l-2.74 12.43h-3.76l-2.18-7.82-2.17 7.82h-3.76l-2.77-12.43Zm20.84.01h10.29v2.65h-6.44v1.98h5.97v2.53h-5.97v2.45h6.63v2.82h-10.48V80.76Zm13.85 12.48V80.76h6.38a9.2 9.2 0 0 1 2.72.31c.63.2 1.17.62 1.53 1.17.4.6.6 1.3.57 2 .02.63-.13 1.24-.44 1.78a3.53 3.53 0 0 1-2.56 1.71c.36.1.7.26 1 .46a5.02 5.02 0 0 1 1.15 1.42l1.87 3.63h-4.3l-2.04-3.8c-.16-.38-.4-.72-.7-1-.28-.19-.6-.29-.95-.29h-.33v5l-3.9.1Zm3.84-7.4h1.63c.33-.02.67-.07 1-.16.52-.12.88-.59.86-1.12.02-.35-.12-.69-.38-.92a2.28 2.28 0 0 0-1.44-.32h-1.7v2.52h.03Z" fill-rule="evenodd" fill="#fff"/><path d="M290.48 82.06v4.7h2c.88.1 1.78-.09 2.56-.52a2 2 0 0 0 .8-1.75 2 2 0 0 0-.8-1.8 4.7 4.7 0 0 0-2.63-.58l-1.94-.05Zm-1.4-1.22h3c.7 0 1.38.03 2.06.12.45.06.9.2 1.3.38.58.3 1.08.74 1.44 1.28.33.53.5 1.15.48 1.77a3.34 3.34 0 0 1-1.7 2.98c-.41.24-.87.4-1.33.48-.67.11-1.34.16-2 .15h-1.86v5.24h-1.38v-12.4h-.01Zm17.36 12.17h-6.37V80.67h1.4v11.15h4.97v1.2Zm3.67-.15h-1.46l5.49-12.35h1.66l5.44 12.35h-1.46l-1.7-3.88h-6.3l-1.7 3.88h.03Zm7.5-5-2.7-6.2-2.67 6.21h5.37Zm11.56.84v4.54h-1.37V88.7l-4.51-7.79h1.59l3.6 6.41 3.66-6.4h1.54l-4.51 7.8Z" fill="#101820" fill-rule="evenodd"/><path class="d" d="M291.04 54.94c-2.06-6.7-1.62-12.6 0-18.8 1.73-.1 3.44-.19 5.17-.26 2.44-.1 4 .91 3.6 4.88a7.36 7.36 0 0 1-1.8 4.32c1.26.58 1.94 2.46 2.12 4.64.35 4.5-1 6-3.85 5.71-1.71-.19-3.48-.3-5.24-.49Zm2.45-14.5a28.84 28.84 0 0 0-.38 3.21h1.6c.76 0 1.33-.55 1.45-1.7.17-1.52-.53-1.55-1.34-1.54l-1.33.03Zm-.4 6.72c.06 1.2.19 2.4.38 3.58l1.66.1c.92 0 1.56-.25 1.42-1.73-.13-1.73-1-1.87-2.25-1.9l-1.21-.05Zm7.82 7.91c.08-6.34 2.3-12.78 4.9-19.28l4.59-.06c1.23 6.5 3.45 13 4.92 19.53h-4.5l-.67-2.58h-4.66c-.08.85-.14 1.7-.2 2.55l-4.4-.16h.02Zm6.73-13.45a85.76 85.76 0 0 0-1.54 7h3.07a117.7 117.7 0 0 1-1.53-7Zm9.2 13.73c.34-6.48.34-12.98 0-19.47H321c.65 4.93.8 9.9.45 14.85l6.1-.08c-.2 1.5-.48 3-.83 4.45-3.3.14-6.6.23-9.9.25Zm11.07-.29a44.6 44.6 0 0 0 .07-19c1.07.06 2.37.2 3.44.28a32.8 32.8 0 0 1 .63 14.06h4.38c-.4 1.47-.9 2.9-1.5 4.3-2.53.21-4.48.23-7.02.36Z"/><path class="h" d="M28.53 30.34c-1.33 0-2.55 0-3.72-.08a62.1 62.1 0 0 0-9.27.22h-.28l-.08.28c-1.67 6.7-2.93 15.1-.86 31.22v.36h.74c1.6 0 3.1.1 4.64.1 1.36 0 2.73 0 4.22-.14h.4v-.4c-.08-3.06-.08-6.17-.08-9.23h4.72c4.8-.06 8.38-1.3 10.68-3.69a10.11 10.11 0 0 0 2.6-7.46c-.27-6.74-5.52-11.02-13.7-11.19l-.01.01Zm3.72 10.6c.03.9-.3 1.75-.92 2.38a4.74 4.74 0 0 1-3.36 1.24h-3.8c0-1.19.05-2.49.08-3.74 0-1 0-1.9.08-2.8h2.45c1.66-.02 5.47.22 5.47 2.92Zm51.09-11.6a16.33 16.33 0 0 0-16.5 16.33c.14 9.64 7 16.71 16.5 16.82a16.58 16.58 0 0 0 0-33.15Zm-5.6 16.41c0-3.9 1.44-8.06 5.53-8.08h.16c1.22-.02 2.4.45 3.28 1.3 1.4 1.4 2.28 3.92 2.28 6.78 0 3.13-.75 8.4-5.65 8.41-5.2 0-5.6-6.45-5.6-8.4Zm80.89-14.43h-.3c-2.53-.08-3-.09-5.65-.15l-1.94-.05v.42c.25 5.5-.31 11.01-1.66 16.35-.7-3.88-1.6-7.38-2.56-11.06a319.3 319.3 0 0 1-1.43-5.6l-.06-.28h-.28a71.2 71.2 0 0 0-7.46 0H137l-.07.28c-.6 2.48-1.26 4.76-1.9 7a104 104 0 0 0-2.44 9.7 57.34 57.34 0 0 1-1.35-16.4v-.4h-7.5l-.08.3c-2.16 8.12-.27 17.9 6 30.75l.1.21h.24c2.06 0 3.13.07 4.14.07 1.03 0 1.87 0 3.55-.06h.33v-.34c.56-5.6 1.68-11.37 2.78-17 1.12 5.6 2.25 11.36 2.8 17v.37h.37c1.57-.07 3-.07 4.4-.07h4.24l.1-.2c5.58-11.5 7.66-22.33 5.88-30.47l.02-.37Zm37.13 22.97v-4.08c4.13 0 8.34 0 12.5-.1h.4V42.2h-.42c-4.1-.1-8.3-.14-12.5-.1v-3.66c3.29 0 6.46 0 9.8.14l5 .11h.5l-.07-.49a35.9 35.9 0 0 0-1.94-6.87l-.08-.24h-.25a77.69 77.69 0 0 0-22.13 0h-.3l-.06.28a67.83 67.83 0 0 0 0 30l.07.28h.29c3.92.55 7.89.83 11.85.85a83.9 83.9 0 0 0 11.32-.8h.25l.1-.23c.8-2.29 1.26-4.68 1.38-7.1l.05-.49h-.5c-5.07.37-10.2.48-15.26.42Zm74.48 1.16c.46-5.64-1.76-7.09-4.64-8.2a6.86 6.86 0 0 0 4.44-7.22c-.56-6.6-5.13-9.9-14-10.12h-1.71a48.5 48.5 0 0 0-10.42.76h-.24l-.06.23c-3.48 10.33-3.8 21.51-.87 30.66l.08.24.25.05a39 39 0 0 0 7 .6h2.07v-.42c-.18-3.56-.24-7.2-.3-10.74v-.05h2.76c2 0 3.3.36 4 1.12.9.93 1.06 2.54 1 4.67-.14 1.72-.07 3.46.2 5.16l.1.31h.33c1-.06 2-.09 2.94-.12 2.1-.03 4.2-.18 6.28-.45h.3l.28-1.8-.56.11h-.06c0-.2.1-.68.2-1.13.3-1.2.5-2.42.63-3.66Zm-10.2-14.13c.05.6-.16 1.2-.56 1.62-.65.66-1.94 1-4 1h-3.7c0-1.78 0-3.6.08-5.57 1.46 0 2.93-.06 4.36-.06 2.38.01 3.77 1.13 3.8 3.01h.02Z"/></g></svg>