<svg viewBox="70.243 111.017 371.304 52.85" xmlns="http://www.w3.org/2000/svg"><path class="e" d="M338.202 114.376c0-.9.73-1.64 1.63-1.63 5.25.04 21.86.23 30.19 1.3 14.93 1.92 17.45 16.81 12.36 26.67-.93 1.8-2.67 3.18-4.22 4.67-.54.52-.66 1.35-.28 1.99.88 1.51 2.59 2.6 5.21 3.18.74.17 1.28.82 1.28 1.58v9.82c.02.95-.79 1.69-1.74 1.63-8.34-.61-17.81-3.3-23.12-10.71-.34-.48-.9-.76-1.49-.7l-.46.04c-.85.08-1.49.79-1.47 1.64l.13 8.29c.01.9-.71 1.65-1.62 1.65l-14.64.07c-.9 0-1.63-.72-1.63-1.62l-.12-47.88Zm18.04 21.55c0 .96.83 1.72 1.79 1.62 2.12-.22 5.6-.74 7.35-1.85 1.86-1.18 2.99-3.22 2.55-5.6-.42-2.29-1.62-3.99-4.17-4.32-1.84-.23-3.67-.49-5.67-.77-.98-.13-1.85.62-1.85 1.61v9.31ZM256.682 134.816h9.23c.71 0 1.29-.58 1.29-1.29l.02-18.95c0-.72.58-1.3 1.3-1.29l13.2.08c.71 0 1.28.58 1.29 1.29l.19 47.58a1.3 1.3 0 0 1-1.28 1.3l-13.34.15c-.72 0-1.31-.57-1.31-1.29l-.07-13.66c0-.71-.58-1.29-1.29-1.29h-9.23c-.72 0-1.3.59-1.29 1.31l.13 13.52c0 .72-.57 1.31-1.29 1.31h-14.15c-.71 0-1.29-.57-1.29-1.28l-.49-47.72c0-.72.57-1.3 1.28-1.31l14.29-.12c.71 0 1.3.57 1.31 1.28l.21 19.1c0 .71.59 1.28 1.29 1.28ZM326.032 132.106v10.53c0 .74-.6 1.33-1.33 1.33h-15.27c-.74 0-1.35.61-1.33 1.36l.06 3.14c.01.72.59 1.3 1.31 1.31l20.82.32c.61 0 1.13.43 1.27 1.02l2.63 10.94c.2.84-.43 1.64-1.29 1.64l-40.41.12-.88-.37-.06-48.86c0-.74.6-1.33 1.33-1.33h39.68c.85 0 1.48.78 1.3 1.61l-1.99 9.16c-.13.6-.65 1.03-1.27 1.05l-21.34.56c-.72.02-1.3.61-1.3 1.34v2.49c.02.73.61 1.32 1.34 1.32h15.38c.74 0 1.33.6 1.33 1.33ZM118.692 128.836l-11.57 1.99c-.43.07-.85-.12-1.09-.48-2.59-3.84-6.16-5.7-10.86-5.42-3.9.23-6.62 2.14-7.98 5.73-1.91 5.06-1.45 10.2.5 15.11 1.32 3.33 3.95 5.22 7.74 5.3 3.26.06 6.62-1.08 8.9-4.09.54-.72.04-1.75-.86-1.76h-5.02c-.59-.01-1.08-.49-1.08-1.09l-.07-7.01c0-.59.47-1.08 1.06-1.1l21.42-.54c.55-.01 1.03.38 1.11.92 1.26 8.9-1.79 19.19-9.6 23.26-9.17 4.78-18.82 4.9-28.49 1.4-5.98-2.16-9.28-6.84-10.96-12.72-1.47-5.12-2.04-10.32-1.23-15.74 1.41-9.54 7.23-15.1 15.8-18.1 6.9-2.41 14.06-2.66 21.07-.39 5.43 1.75 10.65 7.08 12.08 13.4.14.62-.25 1.23-.87 1.34ZM204.482 153.586l.17 7.21c.02.76-.56 1.4-1.32 1.46l-13.9 1.08c-.82.06-1.53-.58-1.54-1.41l-.53-47.37c0-.66.44-1.24 1.08-1.4.52-.13 1.06-.24 1.6-.25 7.82-.03 15.65-.07 23.47.03 4.38.05 8.52 1.17 12.3 3.49 10.33 6.35 9.49 23 .65 29.23-4.17 2.94-8.84 4.48-13.8 5.32-2.24.38-4.49.75-7 1.16-.7.12-1.22.73-1.2 1.44Zm-.02-16.15c0 .78.65 1.4 1.43 1.42 5.34.08 8.8-1.73 10.24-5.34 1.12-2.83.16-6.13-2.53-7.1-1.9-.69-5.73-.8-7.81-.81-.79 0-1.44.65-1.43 1.44l.11 10.39ZM180.012 132.146c.16-1.07.9-.63 1.12-.84-1.92-2.91-3.81-5.84-5.77-8.73-10.1-14.87-33.6-15.64-43.82-.88-2.08 3-4.93 6.97-5.79 9.53 0 0 1.53-.38 1.41.92-.14 1.58-1.65 6.5-.8 5.8 1.7-1.41 1.54 5.35 1.84 6.46 3.35 12.33 14.87 19.53 27.16 18.82 11.88-.68 21.49-8.64 23.83-20.31.35-1.76.3-7.34 2.01-4.98-.25-2.02-1.31-4.97-1.18-5.8Z" fill="#fa4d09"/><path class="d" d="M160.912 123.806c-.14-.14-1.76-1.17-2.6-1.56-8.48-3.88-16.47 3.72-16.38 10.51.03 2.5-.03 5.01.01 7.51.04 2.45 1.27 4.04 3.64 4.77 5.2 1.59 10.41 1.6 15.63.19 2.56-.69 3.93-2.34 3.96-5.06.07-5.84.54-11.78-4.26-16.36ZM149.222 152.796l-1.23-5.81h5.26l.4 4.06.4-4.06h4.98l-1.25 5.81h-8.56ZM145.982 121.866c-.06.38-2.06 1.63-2.31 1.63-.65 0-.61-.47-.56-.78.14-.93 1.34-1.83 2.27-1.69.34.05.71.16.6.84Z" fill="#fefdfc"/><path class="e" d="m157.082 127.946-2.43 2.46c-.6.61-1.69.6-2.28-.02l-2.15-2.23c-1.18-1.22-1.09-2.96.18-4 2.17-1.77 3.91-1.74 6.35.11 1.24.94 1.4 2.59.32 3.68Z" fill="#fa4d09"/><path class="d" d="M161.192 121.866c.06.38 2.06 1.63 2.31 1.63.65 0 .61-.47.56-.78-.14-.93-1.34-1.83-2.27-1.69-.34.05-.71.16-.6.84Z" fill="#fefdfc"/><path class="e" d="m401.922 147.896 11.87-1.42c.3 0 .58.17.71.45.27.6.57 1.29.92 1.95 1.34 2.54 3.88 3.53 6.71 2.66 2.75-.85 4.54-3.35 4.24-5.96-.27-2.41-2.24-4.4-5.13-4.55-4.81-.27-9.65-.21-14.47-.33-1.4-.03-2.8-.16-4.56-.28a.776.776 0 0 1-.72-.88c.47-3.6 2.38-18.21 3.35-26.79.04-.39.37-.68.77-.68l32.71-.11c.43 0 .78.35.78.78l-.05 11.42c0 .43-.35.77-.78.77h-20.84a.78.78 0 0 0-.78.74l-.11 2.58c-.02.45.35.83.8.81 3.46-.15 8.73.3 11.7.91 7.19 1.47 13.55 6.82 12.36 17.56-.98 8.8-6.94 14.98-15.42 15.44-5.81.32-11.61.48-17.13-2.04-5.69-2.6-7.3-7.08-7.71-12.32-.03-.4.38-.71.78-.71Z" fill="#fa4d09"/></svg>