<svg viewBox="84.498 223.83 328.674 52.34" xmlns="http://www.w3.org/2000/svg"><path class="d" d="M132.268 275.3h-14.06c-.4 0-.78-.19-1.01-.52-2.39-3.33-4.65-6.76-7.24-9.91-1.64-1.99-4.73-5.47-6.82-7.81-.76-.85-2.16-.31-2.16.83v15.94c0 .68-.56 1.24-1.25 1.24h-13.36c-.68 0-1.23-.55-1.24-1.22l-.63-47.08c0-.68.54-1.24 1.22-1.26l12.71-.22c1.31-.02 2.55.56 3.37 1.59 4.38 5.53 8.82 11.12 13.2 16.65.3.38.81.57 1.28.43 1.52-.46 1.69-1.7 1.68-3.07-.02-3.33-.04-6.66-.05-9.99v-3.57c0-.68.55-1.23 1.23-1.23l13.99-.13c.7 0 1.26.56 1.25 1.26l-.86 46.85c-.01.68-.56 1.22-1.24 1.22ZM215.078 275.44c-4.86-.02-10.9-.19-15.92-.21a.97.97 0 0 1-.97-.97v-47.65c0-.41.26-.77.64-.91.5-.18 1.02-.38 1.55-.38 8.66-.02 17.32-.1 25.98.11 4.93.12 9.51 1.71 12.97 5.41 7.4 7.92 6.36 19.39-2.65 27.03a.98.98 0 0 0-.04 1.48c1.47 1.36 3.35 2.36 5.4 3.08 1.08.38 1.82 1.37 1.82 2.52v8.34c0 1.03-.78 1.9-1.81 2.01-4.55.49-8.9-.22-13.26-1.73-4.43-1.53-7.84-5.31-11.05-8.77-.6-.65-1.69-.22-1.69.67v9.01c0 .54-.43.98-.97.97Zm13.39-32.86c-.07-5.96-7.45-5.49-11.6-4.79-.82.14-1.42.84-1.42 1.68v8.49c0 1.12.89 2.09 2.01 2.09 7.53.02 11.06-3.8 11.02-7.47ZM354.208 275.28h-15.17a.75.75 0 0 1-.74-.73l-.08-14.29c0-.41-.32-.73-.73-.73-3.76 0-8.19.08-12.26.09-.41 0-.74.34-.73.75l.24 14.21c0 .41-.32.75-.73.75-5.11 0-10.67-.11-15.51-.12a.74.74 0 0 1-.73-.73l-.17-49.02c0-.41.33-.74.74-.74h14.62c.4 0 .73.32.74.73l.2 20.24c0 .4.33.73.74.73l12.83-.03c.4 0 .73-.33.73-.73l.08-20.3c0-.4.32-.73.72-.73 2.32-.02 9.75-.1 14.56-.15.4 0 .73.31.74.72.08 5.64.62 42.48.66 49.37 0 .41-.33.73-.74.73ZM373.218 258.94h12.2c.3 0 .58.17.71.45.27.6.57 1.29.92 1.95 1.34 2.54 3.88 3.53 6.71 2.66 2.75-.85 4.54-3.35 4.24-5.96-.27-2.41-2.24-4.4-5.13-4.55-4.81-.27-9.65-.21-14.47-.33-1.4-.03-2.8-.16-4.56-.28a.776.776 0 0 1-.72-.88c.47-3.6 2.38-18.21 3.35-26.79.04-.39.37-.68.77-.68l32.71-.11c.43 0 .78.35.78.78l-.05 11.42c0 .43-.35.77-.78.77h-20.84a.78.78 0 0 0-.78.74l-.11 2.58c-.02.45.35.83.8.81 3.46-.15 8.73.3 11.7.91 7.19 1.47 13.55 6.82 12.36 17.56-.98 8.8-6.94 14.98-15.42 15.44-5.81.32-11.61.48-17.13-2.04-5.69-2.6-8.58-7.18-8.04-13.74.03-.4.38-.71.78-.71ZM249.008 239.66v-11.98c0-.87.7-1.58 1.58-1.59l48.52-.36c.88 0 1.6.71 1.6 1.59v12.25c0 .87-.69 1.57-1.56 1.59l-14.36.27c-.87.02-1.56.72-1.56 1.59v30.72c0 .88-.71 1.6-1.59 1.6l-13.88-.05c-.87 0-1.58-.7-1.58-1.58 0-10.01-.1-20.63-.11-30.87 0-.88-.71-1.58-1.59-1.58h-13.89c-.88.01-1.59-.7-1.59-1.58Z" fill="#1ab1cd"/><g transform="translate(84.498 223.82)"><circle cx="81.41" cy="26.18" fill="#fff" r="26.17"/><path class="d" d="M88.85 18.63c4.41-1.47 8.51-2.84 12.65-4.22L91.31 24.88c5.36 1.63 11.23 3.07 16.08 4.5.13-1.05.2-2.12.2-3.2 0-11.4-7.29-21.1-17.47-24.69l-1.27 17.14ZM73.65 22.69c-1.44-4.43-2.64-8.11-3.87-11.87 3.25 2.22 6.43 4.39 10.13 6.92 2.41-5.22 5.18-11.45 7.73-16.98-1.99-.49-4.08-.75-6.22-.75-13.81 0-25.11 10.69-26.1 24.25 5.38-.44 12.9-1.13 18.33-1.56ZM89.53 30.89c1.25 4 2.73 8.32 4.08 12.62-3.93-2.63-6.81-4.56-10.13-6.79-1.94 4.63-4.27 10.58-6.22 15.3 1.35.22 2.74.33 4.16.33 12.84 0 23.52-9.25 25.74-21.45l-17.62-.02ZM75.24 35.8c-2.24.64-3.95 1.18-5.68 1.6-2.03.49-4.08.88-6.12 1.31 2.59-2.88 5.19-5.76 7.83-8.69 0 0-16.04-3.84-16.03-4.01v.17c0 11.11 6.93 20.6 16.69 24.4.98-4.4 2.31-10.24 3.32-14.78Z" fill="#1ab1cd"/></g></svg>