<svg xmlns="http://www.w3.org/2000/svg" width="152.43" height="105.87" xmlns:xlink="http://www.w3.org/1999/xlink"><defs><linearGradient id="a" x1="119.03" y1="99.62" x2="119.03" y2="90.92" gradientUnits="userSpaceOnUse"><stop offset="0" stop-color="#d99216"/><stop offset="1" stop-color="#ffdd7e"/></linearGradient><linearGradient id="d" x1="97.29" y1="57" x2="97.29" y2="48.3" xlink:href="#a"/><linearGradient id="e" x1="13.04" y1="44.58" x2="13.04" y2="35.89" xlink:href="#a"/><linearGradient id="f" x1="48.59" y1="95.27" x2="48.59" y2="86.57" xlink:href="#a"/><linearGradient id="g" x1="13.94" y1="83.86" x2="13.94" y2="75.16" xlink:href="#a"/><linearGradient id="b" x1="135.01" y1="50.93" x2="135.01" y2="42.24" gradientUnits="userSpaceOnUse"><stop offset="0" stop-color="#bc2522"/><stop offset="1" stop-color="#e83b31"/></linearGradient><linearGradient id="h" x1="138.22" y1="99.62" x2="138.22" y2="90.92" xlink:href="#b"/><linearGradient id="i" x1="4.35" y1="101.53" x2="4.35" y2="92.83" xlink:href="#b"/><linearGradient id="j" x1="8.7" y1="60.83" x2="8.7" y2="52.13" xlink:href="#b"/><linearGradient id="c" x1="143.73" y1="58.94" x2="143.73" y2="50.25" gradientUnits="userSpaceOnUse"><stop offset="0" stop-color="#003472"/><stop offset="1" stop-color="#205da8"/></linearGradient><linearGradient id="k" x1="148.08" y1="90.92" x2="148.08" y2="82.22" xlink:href="#c"/><linearGradient id="l" x1="62.08" y1="105.87" x2="62.08" y2="97.18" xlink:href="#c"/><linearGradient id="m" x1="20.17" y1="92.56" x2="20.17" y2="83.86" xlink:href="#c"/><linearGradient id="n" x1="46.82" y1="53.84" x2="46.82" y2="45.15" xlink:href="#c"/><linearGradient id="o" x1="36.47" y1="42.24" x2="36.47" y2="4.4" xlink:href="#a"/><linearGradient id="p" x1="62.19" y1="41.47" x2="62.19" y2="5.16" xlink:href="#a"/><linearGradient id="q" x1="116.19" y1="41.47" x2="116.19" y2="5.16" xlink:href="#a"/><linearGradient id="r" x1="88.56" y1="45.88" x2="88.56" y2="1.02" xlink:href="#a"/><linearGradient id="s" x1="36.13" y1="101.34" x2="36.13" y2="51.41" xlink:href="#a"/><linearGradient id="t" x1="120.92" y1="102.45" x2="120.92" y2="52.7" xlink:href="#a"/><linearGradient id="u" x1="79.04" y1="99.96" x2="79.04" y2="50.37" xlink:href="#a"/><linearGradient id="v" x1="35.25" y1="41.22" x2="35.25" y2="3.38" xlink:href="#c"/><linearGradient id="w" x1="60.98" y1="40.46" x2="60.98" y2="4.15" xlink:href="#c"/><linearGradient id="x" x1="114.75" y1="40.46" x2="114.75" y2="4.15" xlink:href="#c"/><linearGradient id="y" x1="87.35" y1="44.86" x2="87.35" y2="0" xlink:href="#b"/><linearGradient id="z" x1="34.25" y1="99.2" x2="34.25" y2="49.27" xlink:href="#b"/><linearGradient id="A" x1="119.03" y1="100.32" x2="119.03" y2="50.56" xlink:href="#b"/><linearGradient id="B" x1="77.16" y1="97.83" x2="77.16" y2="48.24" xlink:href="#b"/></defs><circle cx="119.03" cy="95.27" r="4.35" fill="url(#a)"/><circle cx="97.29" cy="52.65" r="4.35" fill="url(#d)"/><circle cx="13.04" cy="40.23" r="4.35" fill="url(#e)"/><circle cx="48.59" cy="90.92" r="4.35" fill="url(#f)"/><circle cx="13.94" cy="79.51" r="4.35" fill="url(#g)"/><circle cx="135.01" cy="46.59" r="4.35" fill="url(#b)"/><circle cx="138.22" cy="95.27" r="4.35" fill="url(#h)"/><circle cx="4.35" cy="97.18" r="4.35" fill="url(#i)"/><circle cx="8.7" cy="56.48" r="4.35" fill="url(#j)"/><circle cx="143.73" cy="54.6" r="4.35" fill="url(#c)"/><circle cx="148.08" cy="86.57" r="4.35" fill="url(#k)"/><circle cx="62.08" cy="101.53" r="4.35" fill="url(#l)"/><circle cx="20.17" cy="88.21" r="4.35" fill="url(#m)"/><circle cx="46.82" cy="49.5" r="4.35" fill="url(#n)"/><path d="M48.26 16.74H39.4s-.14-1.62-.22-2.15a4.06 4.06 0 0 0-.98-1.89c-.3-.25-.93-.36-1.65-.36-.82 0-1.56-.12-2.15.26-.43.28-1.09.54-1.09 2.37v16.86c0 .77.35 1.59.76 2.03.5.55 1.63.44 2.4.44s1.32-.2 1.66-.44c.57-.4 1.07-.43 1.07-2.42l.35-1.84h8.7v1.42c0 3.76-.28 3.75-.84 5.32-.56 1.57-1.8 2.95-3.72 4.13-1.92 1.18-4.29 1.77-7.1 1.77s-5.33-.5-7.23-1.5a7.43 7.43 0 0 1-3.77-4.16c-.62-1.77-.92-4.44-.92-8V17.97c0-2.62.09-4.58.28-5.89a7.93 7.93 0 0 1 1.7-3.78 9.42 9.42 0 0 1 3.91-2.86c1.67-.7 3.58-1.04 5.75-1.04 2.94 0 5.37.54 7.28 1.61 1.91 1.08 3.17 2.42 3.77 4.02.6 1.6.9 2.54.9 5.93v.77Z" fill="url(#o)"/><path d="m65.99 5.16 8.81 36.31h-8.44l-1.06-4.65h-6.06l-1.12 4.65h-8.55l8.2-36.31h8.22Zm-2.19 24.1-1.52-8.7-1.92 8.7h3.44Z" fill="url(#p)"/><path d="M127.66 5.16v36.31h-8.14V27.35h-6.11v14.12h-8.69V5.16h8.69v14.12h6.11V5.16h8.14Z" fill="url(#q)"/><path d="M98.67 15.76h-8.56v-1.57c0-.83-.11-1.65-.33-2.16-.22-.51-.69-.77-1.4-.77-2.04 0-2.65 1.54-2.65 2.43 0 1.48.88 2.15 1.54 2.66s2.3 2.06 5.12 3.78c2.4 1.45 4.33 3.35 5.17 4.16 1.83 1.76 2.58 4.1 2.58 7.31 0 2.39-1.87 6.01-2.71 6.93s-4.28 3.34-6.28 3.34v4h-5.47v-4.12c-2.53-.25-3.84-1-5.73-2.69-1.89-1.69-2.83-3.98-2.83-8.19v-1.18h7.58c0 2.41 1.07 5.52 3.58 5.52 4.04 0 2.73-4.96 2.09-5.64s-1.95-1.58-3.68-2.66a66.23 66.23 0 0 1-5.89-3.99 10.6 10.6 0 0 1-2.69-3.59 11.7 11.7 0 0 1-1.13-5.24c0-2.82.8-5.04 2.4-6.65 1.6-1.61 3.1-2.37 6.3-2.75V1.02h5.47v3.69c2.77.84 3.79 1.52 5.24 3.11a10.94 10.94 0 0 1 2.37 6.17c0 .39-.03.98-.09 1.78Z" fill="url(#r)"/><path d="m20.17 53.16 12.62-1.44c3.41-.39 6.07-.42 7.96-.1 1.9.33 9.87 1.7 11.17 13.83 2.1 19.66-15.49 18.92-15.49 18.92L38.2 99.9l-12.53 1.43-5.5-48.17Zm13.02 8.82.95 11.59c.36-.02 7.44.71 6.68-6.43-.68-6.46-6.01-5.34-7.64-5.16Z" fill="url(#s)"/><path d="m110.26 52.7 12.58 1.74c3.4.47 5.98 1.1 7.74 1.89 1.76.79 9.14 4.1 7.38 16.18-2.85 19.57-19.71 14.47-19.71 14.47l-2.14 15.48-12.49-1.73 6.65-48.03Zm10.42 11.78-1.96 11.46c.35.07 7.03 2.54 8.07-4.57.94-6.43-4.49-6.67-6.11-6.89Z" fill="url(#t)"/><path d="M79.04 50.37a24.8 24.8 0 1 0 0 49.6 24.8 24.8 0 0 0 0-49.6Zm8.17 29.71 3.47 6.7-6.44-3.13a.77.77 0 0 0-1.1.57l-3.13 8.61-4-7.71a.77.77 0 0 0-1.26-.16l-6.27 5.67 1.12-7.98a.78.78 0 0 0-.89-.87l-9.41-.06L64.88 76a.77.77 0 0 0-.22-1.24l-7.34-4.62 8.91-2.11a.77.77 0 0 0 .57-1.16l-3.64-7.97 8.48 3.8a.77.77 0 0 0 1.12-.6l.89-7.96 4.53 7.76c.25.49.92.57 1.28.14l5.11-6.1 1.54 8.3c-.04.51.41.92.91.82l7.34-1.4-4.97 7.02a.77.77 0 0 0 .24 1.23l7.65 3.52-9.5 3.52a.77.77 0 0 0-.59 1.12Z" fill="url(#u)"/><path d="M47.05 15.72h-8.86s-.14-1.62-.22-2.15a4.06 4.06 0 0 0-.98-1.89c-.3-.25-.93-.36-1.65-.36-.82 0-1.56-.12-2.15.26-.43.28-1.09.54-1.09 2.37v16.86c0 .77.35 1.59.76 2.03.5.55 1.63.44 2.4.44s1.32-.2 1.66-.44c.57-.4 1.07-.43 1.07-2.42l.35-1.84h8.7V30c0 3.76-.28 3.75-.84 5.32-.56 1.57-1.8 2.95-3.72 4.13-1.92 1.18-4.29 1.77-7.1 1.77s-5.33-.5-7.23-1.5a7.43 7.43 0 0 1-3.77-4.16c-.62-1.77-.92-4.44-.92-8V16.95c0-2.62.09-4.58.28-5.89a7.93 7.93 0 0 1 1.7-3.78 9.42 9.42 0 0 1 3.91-2.86c1.67-.7 3.58-1.04 5.75-1.04 2.94 0 5.37.54 7.28 1.61 1.91 1.08 3.17 2.42 3.77 4.02.6 1.6.9 2.54.9 5.93v.77Z" fill="url(#v)"/><path d="m64.78 4.15 8.81 36.31h-8.44l-1.06-4.65h-6.06l-1.12 4.65h-8.55l8.2-36.31h8.22Zm-2.19 24.1-1.52-8.7-1.92 8.7h3.44Z" fill="url(#w)"/><path d="M126.23 4.15v36.31h-8.14V26.34h-6.11v14.12h-8.69V4.15h8.69v14.12h6.11V4.15h8.14Z" fill="url(#x)"/><path d="M97.46 14.74H88.9v-1.57c0-.83-.11-1.65-.33-2.16-.22-.51-.69-.77-1.4-.77-2.04 0-2.65 1.54-2.65 2.43 0 1.48.88 2.15 1.54 2.66s2.3 2.06 5.12 3.78c2.4 1.45 4.33 3.35 5.17 4.16 1.83 1.76 2.58 4.1 2.58 7.31 0 2.39-1.87 6.01-2.71 6.93s-4.28 3.34-6.28 3.34v4h-5.47v-4.12c-2.53-.25-3.84-1-5.73-2.69-1.89-1.69-2.83-3.98-2.83-8.19v-1.18h7.58c0 2.41 1.07 5.52 3.58 5.52 4.04 0 2.73-4.96 2.09-5.64s-1.95-1.58-3.68-2.66a66.23 66.23 0 0 1-5.89-3.99 10.6 10.6 0 0 1-2.69-3.59 11.7 11.7 0 0 1-1.13-5.24c0-2.82.8-5.04 2.4-6.65 1.6-1.61 3.1-2.37 6.3-2.75V0h5.47v3.69c2.77.84 3.79 1.52 5.24 3.11a10.94 10.94 0 0 1 2.37 6.17c0 .39-.03.98-.09 1.78Z" fill="url(#y)"/><path d="m18.28 51.03 12.62-1.44c3.41-.39 6.07-.42 7.96-.1 1.9.33 9.87 1.7 11.17 13.83 2.1 19.66-15.49 18.92-15.49 18.92l1.77 15.53-12.53 1.43-5.5-48.17Zm13.02 8.82.95 11.59c.36-.02 7.44.71 6.68-6.43-.68-6.46-6.01-5.34-7.64-5.16Z" fill="url(#z)"/><path d="m108.38 50.56 12.58 1.74c3.4.47 5.98 1.1 7.74 1.89 1.76.79 9.14 4.1 7.38 16.18-2.85 19.57-19.71 14.47-19.71 14.47l-2.14 15.48-12.49-1.73 6.65-48.03Zm10.42 11.78-1.96 11.46c.35.07 7.03 2.54 8.07-4.57.94-6.43-4.49-6.67-6.11-6.89Z" fill="url(#A)"/><path d="M77.16 48.24a24.8 24.8 0 1 0 0 49.6 24.8 24.8 0 0 0 0-49.6Zm8.17 29.71 3.47 6.7-6.44-3.13a.77.77 0 0 0-1.1.57l-1.34 8.61-4-7.71a.77.77 0 0 0-1.26-.16l-5.15 5.67 1.12-7.98a.78.78 0 0 0-.89-.87l-8.08 1.28 5.58-5.72a.77.77 0 0 0-.22-1.24l-7.34-3.51 8.46-1a.77.77 0 0 0 .57-1.16L64.4 61l7.81 4.03a.77.77 0 0 0 1.12-.6l.89-7.96 3.64 7.09c.25.49.92.57 1.28.14l5.11-6.1-.69 8.53c-.04.51.41.92.91.82l7.34-1.4L86.62 71a.77.77 0 0 0 .24 1.23l7.65 3.52-8.6 1.06a.77.77 0 0 0-.59 1.12Z" fill="url(#B)"/></svg>