<svg id="b" xmlns="http://www.w3.org/2000/svg" xmlns:xlink="http://www.w3.org/1999/xlink" viewBox="0 0 289.32 101.46"><defs><linearGradient id="d" x1="28.31" y1="34.53" x2="28.31" y2="25.06" gradientUnits="userSpaceOnUse"><stop offset="0" stop-color="#ffd48c"/><stop offset=".09" stop-color="#fbce82"/><stop offset=".71" stop-color="#e2a745"/><stop offset="1" stop-color="#d9992d"/></linearGradient><linearGradient id="e" x1="108.77" y1="42.22" x2="129.47" y2="42.22" gradientUnits="userSpaceOnUse"><stop offset="0" stop-color="#d9992d"/><stop offset=".29" stop-color="#e2a745"/><stop offset=".91" stop-color="#fbce82"/><stop offset="1" stop-color="#ffd48c"/></linearGradient><linearGradient id="f" x1="92.51" y1="76.83" x2="164.23" y2="76.83" xlink:href="#d"/><linearGradient id="g" x1="56.39" y1="73.42" x2="88.7" y2="73.42" xlink:href="#d"/><linearGradient id="h" x1="0" y1="65.84" x2="56.43" y2="65.84" xlink:href="#d"/><linearGradient id="i" x1="86.62" y1="27.78" x2="86.62" y2="3.81" xlink:href="#d"/><linearGradient id="j" x1="162.26" y1="22.8" x2="162.26" y2="4.03" xlink:href="#d"/><linearGradient id="k" x1="180.54" y1="25.98" x2="203.58" y2="25.98" xlink:href="#d"/><linearGradient id="l" x1="175.62" y1="87.07" x2="211.66" y2="87.07" xlink:href="#d"/><linearGradient id="m" x1="170.6" y1="82.89" x2="170.6" y2="4.03" gradientUnits="userSpaceOnUse"><stop offset="0" stop-color="#00326f"/><stop offset=".99" stop-color="#006eb7"/></linearGradient><linearGradient id="n" x1="191.2" y1="48.3" x2="287.8" y2="48.3" gradientUnits="userSpaceOnUse"><stop offset="0" stop-color="#00326f"/><stop offset=".99" stop-color="#2261ae"/></linearGradient><linearGradient id="o" x1="277.23" y1="83.58" x2="205.29" y2="23.22" gradientUnits="userSpaceOnUse"><stop offset="0" stop-color="#a0aacc"/><stop offset="1" stop-color="#fff"/></linearGradient><linearGradient id="p" x1="218.5" y1="55.09" x2="265.27" y2="55.09" gradientUnits="userSpaceOnUse"><stop offset="0" stop-color="#bb2422"/><stop offset="1" stop-color="#ef3e33"/></linearGradient><linearGradient id="q" x1="65.84" y1="83.79" x2="65.84" y2="2.52" xlink:href="#m"/><style>.u{fill:#fff}</style></defs><g id="c"><path class="u" d="M30.94 33.33a6.43 6.43 0 0 1-2.05 2.18c-.75.5-1.51.8-2.1.98-.6.18-1.74.24-1.81.25V23.01c.07 0 1.21.03 1.8.15.6.13 1.36.36 2.11.79.75.42 1.5 1.04 2.05 1.94.56.9.92 2.07.92 3.62 0 1.6-.36 2.84-.92 3.82Z"/><path d="m27 25.06.07.02a6.94 6.94 0 0 1 2.47 1.2l.08.06m0 0V33s-.58.5-.87.7a7.38 7.38 0 0 1-1.75.84v-9.46" fill="url(#d)"/><path d="M113.77 44.22a13.68 13.68 0 0 1 15.7-13.54c-.31-.35-.98-.65-1.4-.8-2.93-1-5.89-1.68-9.82-.2a14.85 14.85 0 0 0-7.04 5 11.95 11.95 0 0 0-2.44 6.89c-.1 2.24.7 5.42 2.12 7.68 1 1.58 3.95 6 8.73 6.36h.24a13.87 13.87 0 0 1-6.1-11.39Z" fill="url(#e)"/><path class="u" d="M84.55 84.63H56.39v-1.96h26.16V3.81h2v80.82z"/><path d="M161.43 64.4v20.45l-27.63-2-.05-3.07c-2.16 3.22-6.44 3.42-7.73 3.7-1.36.29-2.43.82-3.79.94-1.36.12-2.48.2-3.73.25-1.25.04-3 0-3.96-.06-3.32-.19-4.07-.52-6.17-.94-4.13-.83-8.31-3.4-11.37-6.24a23.3 23.3 0 0 1-2.49-2.71c-.62-.8-1.29-1.57-2-2.3a46.68 46.68 0 0 0 5.94 8.02c3.67 3.96 8.5 7.08 13.83 8.18 1.73.36 3.5.58 5.27.59 5.63.05 12.37-2.22 12.39-2.2l2.28 2.25 32-.03V68.4l-2.79-3.99Z" fill="url(#f)"/><path d="M84.55 57.6v27.03H56.39l5.24 4.63H88.7V64.5a38.63 38.63 0 0 1-2.1-3.14c-.7-1.14-1.32-2.2-1.88-3.44l-.17-.33Z" fill="url(#g)"/><path d="m56.43 42.4-2.3 4a37.12 37.12 0 0 1-9.73 9.28 32 32 0 0 1-10.07 4.34c-2.03.45-4.01.66-6.08.66h-1.28V85.8H0l6.05 3.48h26.52V63.53h4.06c5.36 0 11.37-2.32 14.92-5.6 3.38-3.12 4.88-6.13 4.88-6.13v-9.4Z" fill="url(#h)"/><path d="m88.68 20.8.02-11.65-4.15-5.34v23.97s1.02-2.1 1.78-3.4c0 0 1.63-2.66 2.35-3.59Z" fill="url(#i)"/><path fill="url(#j)" d="m161.01 4.03 2.5 5.34v9.74l-2.5 3.69V4.03z"/><path fill="url(#k)" d="m202 4.03 1.58 5.34-20.49 38.57-2.54-3.65L202 4.03z"/><path fill="url(#l)" d="m210.2 84.88 1.46 4.39h-33.11l-2.93-4.39h34.58z"/><path class="u" d="M175.62 84.89h31.81v-2H174.3l1.33 2Zm-42.87 0h28.7V64.5l-2-2.9V82.9h-26.7v2Zm47.8-40.6L202 4.04l-2.27-.01-20.5 38.38 1.31 1.88ZM159 4.03v21.73l2-2.94V4.02h-2ZM133.76 34.23l-2.14-1.91V6.54l2.14 2v25.69zM110.97 51.78a14.04 14.04 0 0 0 9.88 4.1l.19-.01-.36-.1a13.48 13.48 0 1 1 9.29-24.74c-.73-1.22-3.66-2.27-4.41-2.56-.78-.3-1.29-.19-2.12-.34a14.09 14.09 0 0 0-12.47 3.86 13.99 13.99 0 0 0 0 19.79ZM47.74 50.6a33.43 33.43 0 0 1-8.95 5.83 25 25 0 0 1-9.95 2.24H25v25.12H0v2h27V60.67h1.84c3.5 0 7.12-.81 10.76-2.4a35.59 35.59 0 0 0 14.8-12.29s1.43-2.05 2-3.59v-6.12a21.44 21.44 0 0 1-2.2 6.16 30.53 30.53 0 0 1-6.46 8.17Z"/><path class="u" d="M131.65 51.29s.01 28.23 0 28.25c-.81.57-1.59.93-2.41 1.25a25.49 25.49 0 0 1-5.2 1.38 42.27 42.27 0 0 1-10.37.37 31.68 31.68 0 0 1-9.3-2.18 29.9 29.9 0 0 1-6.91-4.05 36.5 36.5 0 0 1-8.72-9.66c1.6 2.54 3.2 5.08 5.01 7.47a26.05 26.05 0 0 0 8.92 7.57c1.04.53 2.13.97 3.23 1.34 1.42.48 2.9.83 4.39 1.1 1.06.18 2.13.32 3.2.4a48.28 48.28 0 0 0 8.41-.06c.82-.08 1.65-.2 2.46-.33 2.13-.35 3.96-.84 5.61-1.48.46-.19.98-.4 1.52-.7.03 0 .18-.13.18-.13v3.06l2.09-.02V53.12l-2.1-1.83Z"/><path d="m179.24 42.4 20.49-38.37h-25.96c-.18.23-14.76 21.73-14.76 21.73V4.03h-25.25v78.86h25.69V61.6l14.84 21.28h33.14l-28.2-40.48Z" fill="url(#m)"/><path d="M239.5 96.6a48.3 48.3 0 1 0 0-96.6 48.3 48.3 0 0 0 0 96.6Z" fill="url(#n)"/><path d="M241.26 100.37a47.03 47.03 0 0 1-46.97-46.97c0-25.9 21.07-46.97 46.97-46.97s46.97 21.07 46.97 46.97a47.03 47.03 0 0 1-46.97 46.97Z" fill="url(#o)"/><path d="M241.26 7.52a45.88 45.88 0 1 1 0 91.77 45.88 45.88 0 0 1 0-91.77m0-2.18A48.12 48.12 0 0 0 193.2 53.4c0 26.5 21.56 48.06 48.06 48.06s48.06-21.56 48.06-48.06a48.12 48.12 0 0 0-48.06-48.06Z" fill="#003e7e"/><path d="M250.4 48.67a18.55 18.55 0 0 0-15.33-28.98 25.64 25.64 0 0 0-16.57 5.88l5.67 15.77c10.3-5.3 12.25-.03 12.25-.03 3.38 6.97-6.85 9.56-8.65 10.17l4.1 11.55c10.78-5.42 12.88.05 12.88.05 3.42 7.13-7.34 10.13-9.08 10.7l5.9 16.71c1.27-.02 2.47-.25 3.56-.45 11.65-2.09 20.14-9.88 20.14-21.4 0-9.44-6.28-17.4-14.88-19.97Z" fill="url(#p)"/><path d="M110.97 31.99a14 14 0 0 1 17.1-2.1c.7.42 2.96 1.9 3.58 2.43l-.03-25.78s-1.68-1.28-3.36-2.03a19 19 0 0 0-3.77-1.19 34.33 34.33 0 0 0-17.38.7 30.27 30.27 0 0 0-4.29 1.72 33.68 33.68 0 0 0-10.85 8.6 40.93 40.93 0 0 0-7.27 12.93c-.99 2.83-1.7 5.85-2.15 9V3.82H56.4v24.15c-.32-2.75-.9-5.26-1.7-7.52a24.37 24.37 0 0 0-5.56-9.05 22.82 22.82 0 0 0-8.41-5.37 30.46 30.46 0 0 0-10.6-1.78H0V83.8h25V58.67h3.84a25 25 0 0 0 9.95-2.24 33.43 33.43 0 0 0 8.95-5.83c2.65-2.41 4.89-5.2 6.46-8.17 1.06-2 1.8-4.07 2.2-6.16v46.4h26.15V49.85a44.21 44.21 0 0 0 2.08 8.33 41.7 41.7 0 0 0 7.05 12.53 35.56 35.56 0 0 0 5.78 5.6 29.9 29.9 0 0 0 6.92 4.05c2.96 1.2 6.1 1.92 9.28 2.18a44 44 0 0 0 10.37-.37c1.77-.3 3.53-.71 5.2-1.38.83-.32 1.6-.68 2.41-1.25.02-.02.03-.13.03-.13l-.02-28.12a23.55 23.55 0 0 1-3.8 2.65 15.6 15.6 0 0 1-4.5 1.7 13.8 13.8 0 0 1-12.38-3.86 14.02 14.02 0 0 1-3-15.34c.71-1.68 1.74-3.18 3-4.45Zm-80.03 1.33a6.41 6.41 0 0 1-2.05 2.17c-.75.5-1.51.8-2.1.98-.6.18-1.74.24-1.81.25v-13.7a7.6 7.6 0 0 1 3.92.93 5.6 5.6 0 0 1 2.04 1.94c.56.9.92 2.07.92 3.61 0 1.6-.36 2.84-.92 3.82Z" fill="url(#q)"/></g></svg>