<svg id="b" xmlns="http://www.w3.org/2000/svg" xmlns:xlink="http://www.w3.org/1999/xlink" viewBox="0 0 286.8 184.34"><defs><linearGradient id="d" x1="33.53" y1="139.21" x2="33.53" y2="51.72" gradientUnits="userSpaceOnUse"><stop offset="0" stop-color="#00326f"/><stop offset=".99" stop-color="#2261ae"/></linearGradient><linearGradient id="e" x1="86.27" y1="137.56" x2="86.27" y2="53.38" xlink:href="#d"/><linearGradient id="f" x1="239.21" y1="137.56" x2="239.21" y2="53.38" xlink:href="#d"/><linearGradient id="g" x1="36.46" y1="41.54" x2="36.46" y2="3.53" gradientUnits="userSpaceOnUse"><stop offset="0" stop-color="#d9992d"/><stop offset=".29" stop-color="#e2a745"/><stop offset=".91" stop-color="#fbce82"/><stop offset="1" stop-color="#ffd48c"/></linearGradient><linearGradient id="h" x1="67.13" y1="40.82" x2="67.13" y2="4.25" xlink:href="#g"/><linearGradient id="i" x1="98.56" x2="98.56" xlink:href="#g"/><linearGradient id="j" x1="137.5" y1="40.82" x2="137.5" y2="4.25" xlink:href="#g"/><linearGradient id="k" x1="232.72" y1="40.82" x2="232.72" y2="4.25" xlink:href="#g"/><linearGradient id="l" x1="267.54" y1="40.82" x2="267.54" y2="4.25" xlink:href="#g"/><linearGradient id="m" x1="118.31" y1="93.58" x2="217.94" y2="93.58" xlink:href="#g"/><linearGradient id="n" x1="162.63" y1="175.85" x2="162.63" y2="2.82" gradientUnits="userSpaceOnUse"><stop offset="0" stop-color="#bb2422"/><stop offset="1" stop-color="#ef3e33"/></linearGradient><style>.w{fill:#003e7e}</style></defs><g id="c"><path d="M43.13 77.67c.78-3.66 2.21-10.38-2.62-10.38-6.13 0-7.27 4.25-12.36 28.18-5.24 24.64-5.4 28.18.38 28.18 3.77 0 6.1-3.78 8.34-14.27l1.37-6.48h22.88l-1.13 5.3c-4.18 19.7-14.49 31.01-35.12 31.01-30.3 0-26.72-16.86-21-43.74C9.4 69.4 13.15 51.72 43.45 51.72c25.11 0 25.18 13.56 22.4 26.65l-1.3 6.13H41.68l1.45-6.83Z" fill="url(#d)"/><path d="M96.79 124.71h-15.8l-5.1 12.85H51.61l37.81-84.18h29.6l1.92 84.18h-24.3l.15-12.85Zm3.58-52.94h-.23l-12.77 34.55H98.1l2.27-34.55Z" fill="url(#e)"/><path d="M253.81 53.38h23.6l-17.9 84.18h-23.58l7.22-33.95h-11.33l-7.22 33.95h-23.57l17.88-84.18h23.59l-6.47 30.42h11.32l6.46-30.42Z" fill="url(#f)"/><path d="M41.16 13.26c.32-1.53-.04-2.97-1.78-2.97-1.53 0-2.63 1.29-2.94 2.77-1.55 7.28 14.51 3.54 11.74 16.6-1.81 8.5-6.48 11.88-15.95 11.88-7.84 0-11.58-2.66-9.87-10.7l.2-.98h9.95l-.36 1.7c-.38 1.79.08 3.22 1.87 3.22 1.9 0 2.86-1.64 3.2-3.23.5-2.35-.26-2.87-1.43-3.63-1.22-.77-2.91-1.49-4.56-2.41-4.94-2.77-6.36-4.77-5.2-10.2 1.07-5.07 3.2-7.83 5.9-9.52 2.01-1.23 4.84-2.26 8.84-2.26 10.35 0 11 5.12 9.7 11.22h-9.63l.32-1.49Z" fill="url(#g)"/><path class="w" d="M40.77 3.53c10.35 0 11 5.12 9.7 11.22h-9.63l.32-1.49c.32-1.53-.04-2.97-1.78-2.97-1.53 0-2.63 1.29-2.94 2.77-1.55 7.28 14.51 3.54 11.74 16.6-1.81 8.5-6.48 11.88-15.95 11.88-7.84 0-11.58-2.66-9.87-10.7l.2-.98h9.95l-.36 1.7c-.38 1.79.08 3.22 1.87 3.22 1.9 0 2.86-1.64 3.2-3.23.5-2.35-.26-2.87-1.43-3.63-1.22-.77-2.91-1.49-4.56-2.41-4.94-2.77-6.36-4.77-5.2-10.2 1.07-5.07 3.2-7.83 5.9-9.52 2.01-1.23 4.84-2.26 8.84-2.26M40.77 0c-4.09 0-7.68.93-10.68 2.77-3.9 2.43-6.35 6.29-7.52 11.8-1.24 5.83.2 9.12 3.5 11.76H19.7l-.6 2.8-.2.97c-1 4.71-.46 8.27 1.65 10.88 2.97 3.67 8.08 4.1 11.67 4.1 11.26 0 17.24-4.53 19.4-14.69 1.33-6.25-.82-9.86-3.58-12.1h5.28l.6-2.8c.68-3.21 1.26-7.88-1.56-11.36C50.12 1.35 46.32 0 40.77 0Z"/><path d="M73.47 4.25h10.25l-7.78 36.57H65.7l3.13-14.75h-4.91l-3.14 14.75H50.53l7.78-36.57h10.24l-2.8 13.22h4.91l2.81-13.22Z" fill="url(#h)"/><path class="w" d="m83.72 4.25-7.78 36.57H65.7l3.13-14.75h-4.91l-3.14 14.75H50.53l7.78-36.57h10.24l-2.8 13.22h4.91l2.81-13.22h10.25M88.08.7H55.45l-.6 2.8-7.77 36.58-.9 4.27H78.8l.6-2.8 7.77-36.58.91-4.27Z"/><path d="M102.61 3.53c13.17 0 11.53 7.69 9.13 19-2.48 11.69-4.04 19.01-17.2 19.01-13.17 0-11.62-7.32-9.13-19 2.4-11.32 4.04-19 17.2-19Zm-1.44 6.76c-2.2 0-2.93 1.54-5.21 12.25-2.28 10.7-2.2 12.24.01 12.24 2.2 0 2.94-1.53 5.22-12.24 2.27-10.71 2.19-12.25-.02-12.25Z" fill="url(#i)"/><path class="w" d="M102.61 3.53c13.17 0 11.53 7.69 9.13 19-2.48 11.69-4.04 19.01-17.2 19.01-13.17 0-11.62-7.32-9.13-19 2.4-11.32 4.04-19 17.2-19m-6.64 31.24c2.2 0 2.94-1.53 5.22-12.24 2.27-10.71 2.19-12.25-.02-12.25-2.2 0-2.93 1.54-5.21 12.25-2.28 10.7-2.2 12.24.01 12.24M102.61 0C86.6 0 84.34 10.59 81.95 21.8c-1.73 8.15-3.1 14.58.53 19.06 2.33 2.87 6.16 4.21 12.05 4.21 16.03 0 18.18-10.1 20.66-21.8 1.66-7.77 3.08-14.48-.6-19.02C112.28 1.39 108.36 0 102.61 0Z"/><path d="M148.9 4.25h9.62L144.7 40.82h-10.96l2.15-24.59h-.1l-8.15 24.6h-11.16l1.78-36.58h9.93l-3.1 25.92h.1l8.74-25.92h9.02l-1.87 25.92h.1l7.71-25.92Z" fill="url(#j)"/><path class="w" d="M158.52 4.25 144.7 40.82h-10.96l2.15-24.59h-.1l-8.15 24.6h-11.16l1.78-36.58h9.93l-3.1 25.92h.1l8.74-25.92h9.02l-1.87 25.92h.1l7.71-25.92h9.63M163.63.7H114.9l-.16 3.37-1.78 36.57-.18 3.7h34.37l.87-2.28L161.83 5.5l1.8-4.79Z"/><g><path d="M218.67 4.25h14.86l-1.73 22.38h.1l8.09-22.38h14.55l-7.78 36.57h-9.63l5.66-26.63h-.1l-10.17 26.63h-7.38l1.16-26.63h-.1l-5.67 26.63h-9.63l7.77-36.57Z" fill="url(#k)"/><path class="w" d="m254.54 4.25-7.78 36.57h-9.63l5.66-26.63h-.1l-10.17 26.63h-7.38l1.16-26.63h-.1l-5.67 26.63h-9.63l7.77-36.57h14.86l-1.73 22.38h.1l8.09-22.38h14.55M258.9.7h-21.4l-.2.57.05-.57H215.8l-.6 2.8-7.76 36.58-.9 4.27h43.07l.6-2.8 7.77-36.58.9-4.27Z"/></g><g><path d="M260.4 4.25h22.04l-1.77 8.3H268.9l-1.2 5.63h11.02l-1.7 8H266l-1.36 6.35h12.25l-1.76 8.3h-22.5l7.78-36.58Z" fill="url(#l)"/><path class="w" d="m282.44 4.25-1.77 8.3H268.9l-1.2 5.63h11.02l-1.7 8H266l-1.36 6.35h12.25l-1.76 8.3h-22.5l7.78-36.58h22.03M286.8.7h-29.25l-.6 2.8-7.77 36.58-.9 4.27h29.7l.6-2.8 1.77-8.3.9-4.26h-1.23l.45-2.1 1.7-7.98.6-2.84h.76l.6-2.8 1.76-8.3.91-4.27Z"/></g><g><path d="M179.38 85.5c-15.42-4.17-20.05-4.94-20.05-11.57 0-6.94 7.4-9.87 14.5-9.87 5.08 0 8.94.93 11.56 2.93 2.47 1.85 4.02 4.78 4.02 8.95h28.51c.56-19.44-9.75-29.3-24.37-33.26l8.01-31.36c-.54-.8-6.05-8.5-5.77-8.5.29 0-20.11 13.84-20.11 13.84l-6.13 24.1c-20.04 1.73-38.9 12.55-38.9 35.33 0 16.19 11.1 23.44 24.82 28.37 11.42 4.01 28.07 5.25 28.07 16.19 0 6.02-4.78 10.95-16.35 10.95-13.56 0-20.2-3.85-20.2-15.73l-5.49-8.5-23.18 8.5c-.24 19.98 10.52 32.4 27.35 37.13h-.01l-4.87 24.8 25.27 6.54 5.5-29.45c1.4-.11.78-.26 2.13-.44 2.2-.3 4.29-.68 6.3-1.14 21.02-4.83 32.23-18.51 32.23-34.2 0-21.59-17.73-29.45-32.84-33.61Z" fill="url(#m)"/><path d="M173.88 77c-15.42-4.16-20.04-4.93-20.04-11.56 0-6.94 7.4-9.87 14.49-9.87 5.1 0 8.95.92 11.56 2.93 2.47 1.85 3.86 4.78 3.86 8.94h28.67c.56-19.43-9.74-29.29-24.36-33.26l7.73-31.36h-24.26l-7.48 29.44c-20.04 1.73-38.9 12.56-38.9 35.34 0 16.18 11.11 23.44 24.83 28.37 11.4 4 28.06 5.24 28.06 16.19 0 6.01-4.78 10.94-16.34 10.94-13.57 0-20.2-3.85-20.2-15.72h-28.68c-.23 19.97 10.52 32.4 27.35 37.12l-6.14 31.35h26.27l5.75-29.46.04-.19c26.43-2.8 40.63-17.92 40.63-35.58 0-21.6-17.73-29.46-32.84-33.62Z" fill="url(#n)"/><path fill="#c58b27" d="m134.25 175.85 5.45 8.49h26.36l-5.69-8.49h-26.12z"/></g><path fill="#d9992d" d="M183.74 67.44h28.68l5.52 8.46h-28.53l-5.67-8.46z"/></g></svg>