<svg id="b" xmlns="http://www.w3.org/2000/svg" xmlns:xlink="http://www.w3.org/1999/xlink" viewBox="0 0 433.96 292.18"><defs><linearGradient id="d" x1="363.91" y1="246.46" x2="289.53" y2="261.37" gradientTransform="rotate(-1.53 283.26 243.29)" gradientUnits="userSpaceOnUse"><stop offset="0" stop-color="#fed401"/><stop offset=".12" stop-color="#fdce02"/><stop offset=".28" stop-color="#fcbf04"/><stop offset=".45" stop-color="#f9a609"/><stop offset=".62" stop-color="#f68410"/><stop offset=".81" stop-color="#f25719"/><stop offset="1" stop-color="#ed2224"/></linearGradient><linearGradient id="e" x1="360.35" y1="228.72" x2="285.97" y2="243.63" xlink:href="#d"/><linearGradient id="f" x1="359.63" y1="225.08" x2="285.24" y2="239.99" xlink:href="#d"/><linearGradient id="g" x1="362.45" y1="239.18" x2="288.07" y2="254.09" xlink:href="#d"/><linearGradient id="h" x1="365.07" y1="252.23" x2="290.68" y2="267.14" xlink:href="#d"/><linearGradient id="i" x1="360.35" y1="228.72" x2="285.97" y2="243.63" xlink:href="#d"/><linearGradient id="j" x1="359.63" y1="225.08" x2="285.24" y2="239.99" xlink:href="#d"/><linearGradient id="k" x1="362.45" y1="239.18" x2="288.07" y2="254.09" xlink:href="#d"/><linearGradient id="l" x1="365.07" y1="252.23" x2="290.68" y2="267.14" xlink:href="#d"/><linearGradient id="m" x1="267.7" y1="47.31" x2="338.18" y2="193.87" gradientUnits="userSpaceOnUse"><stop offset="0" stop-color="#fff"/><stop offset=".2" stop-color="#f7f7f8"/><stop offset=".49" stop-color="#e3e4e5"/><stop offset=".84" stop-color="#c2c4c6"/><stop offset="1" stop-color="#b1b3b6"/></linearGradient><linearGradient id="n" x1="159.1" y1="115.45" x2="234.62" y2="272.49" xlink:href="#m"/><linearGradient id="o" x1="311.24" y1="55.79" x2="373.79" y2="185.86" xlink:href="#m"/><linearGradient id="p" x1="339.5" y1="62.07" x2="397.15" y2="181.94" xlink:href="#m"/><style>.t{fill:#fff}.y{fill:#76777a}.ae{fill:url(#d)}.af{fill:#00416b}.ag{fill:#ed1c24}.ai{fill:#c2d500}</style></defs><g id="c"><path class="ai" d="M176.08 292.18a510.1 510.1 0 0 1-57.37-3.16 3.58 3.58 0 0 1-.7-.15c-9.7-3.17-13.33-9.12-14.66-12.72l-18.6-2c-8.54-.96-13.25-7.86-13.96-16.4-.3-3.79-.58-8.21-.62-11.37-18.48-4.76-52.33-22.97-58.77-32.86a54.48 54.48 0 0 1-1.93-3.22c-5.55-6.09-13.48-20.43-7.1-49.71 1.73-9 3.5-18.07 5.25-27.15l7.12-36.74c2.5-13.24 9.4-24.45 19.66-32.18a14.48 14.48 0 0 1-5-14.18s.1-.56.4-2.77l1.52-10.97c.94-6.78 6.58-12 13.4-12.4l.45-.03c.29-.02.57-.03.86-.03.96-.02 113.87-5.26 130.26-6.68 1.05-2.65 2.85-6.67 4.37-8.41 2.8-3.2 6.82-5.02 11.02-5.02.79 0 7.97.64 11.75 1.35C206.7 3.58 214 .15 219.45.01L220 0c4.84 0 7.48 1.86 9.42 3.22l.5.36c1.32.9 7.27 5.19 9.53 10.18l5.68-.16c3.12-.08 6.36-.16 7.73-.25 95.7-5.48 95.87-5.48 96-5.48 2.43 0 7.46 1.08 9.2 5.15 1.19 2.81.8 6.2.38 9.8-.11.97-.23 1.96-.31 2.94 10.63 2.48 45.84 12.04 61.34 32.95 17.27 23.3 15.9 40.35 12.08 61.87a123.9 123.9 0 0 1-18.16 45.71c-8.34 14.13-21.53 29.54-36.2 42.29-12.16 10.56-28.34 22.44-39.42 27.09a35.34 35.34 0 0 1 6.84 5.12c6.78 6.51 8.04 14.71 3.44 22.5-6.14 10.79-21.32 10.32-26.16 10.32-4.34 0-8.56-1.12-12.3-3.27-1.81.54-3.69.84-5.61.9a31.43 31.43 0 0 1-9.34 7.4c-2.08 1.13-16.69 4.88-20.12 5.39v.01c-33.74 5.4-66.86 8.14-98.43 8.14Z"/><path class="af" d="M90.57 253.5c-.06.43-.08.85-.06 1.27l.07 3.21 3.36-4.12 1.36.15.5 4.53 2.35-3.22c.3-.4.51-.74.6-.9l2.73.3c-.65.68-1.43 1.65-2.06 2.44l-4.87 6.24-.54-.06-.75-5.82-4.35 5.25-.6-.06-.62-7.54c-.06-.72-.1-1.39-.23-2.02l3.11.35ZM99.72 263.76c.18-.4.5-1.28.73-1.95l1.84-5.43-.95-.1c.35-.34.86-1 1.15-1.45l3.05.34c-.18.42-.48 1.24-.71 1.93l-1.7 5.01c-.25.71-.53 1.6-.61 1.96l-2.8-.3Zm5.83-12.95c.82.1 1.24.82.96 1.64a1.92 1.92 0 0 1-1.95 1.28c-.81-.1-1.24-.8-.97-1.6a1.95 1.95 0 0 1 1.96-1.32ZM109.9 264.94c-.37-.04-.92.02-1.62-.06-1.73-.2-2.89-1.36-2.06-3.78l1.18-3.47-1.3-.15.73-2.16 1.3.14.23-.65c.21-.63.4-1.27.52-1.73l2.78.3c-.2.46-.42 1.07-.64 1.73l-.22.65 2.4.27-.73 2.17-2.41-.27-1 2.95c-.44 1.29-.05 1.8.72 1.9.28.03.7.01.89-.1l-.77 2.26ZM119.14 260.65c.4-1.17.08-1.94-.85-2.04-1.04-.12-1.82.59-2.21 1.74l-1.05 3.1c-.18.53-.47 1.41-.57 1.96l-2.84-.32c.24-.53.56-1.41.75-1.95l3.6-10.6-.95-.11c.3-.3.9-1.12 1.13-1.45l3.1.35c-.27.54-.53 1.25-.76 1.92l-1.45 4.26a3.8 3.8 0 0 1 2.93-.9c2.18.24 2.65 2.02 1.84 4.4l-1.05 3.07c-.18.54-.46 1.42-.58 1.97l-2.82-.32c.22-.53.54-1.41.72-1.95l1.06-3.13ZM122.03 277.56c.37-1.19 1.32-4.31 1.95-6.91l3.03-12.5c.64-2.63 1.18-5.94 1.38-7.08 0 0 13.78 1.06 15 .99l-1.18 4.85a89.53 89.53 0 0 0-6.44-.15h-2.62l-1.62 5.79h2.24c2.54 0 4.6-.08 5.77-.15l-1.17 4.85a68.47 68.47 0 0 0-5.7-.15h-2.24l-.86 3.55c-.63 2.6-1.3 6.28-1.51 7.47l-6.03-.56ZM146.52 270.65a249.9 249.9 0 0 0-1.92 8.67l-5.86-.32c.37-1.19 1.6-5.75 2.23-8.35l3.04-12.5c.63-2.6.95-4.82 1.15-5.96l5.84.32c-.35 1.14-.82 3.05-1.45 5.65l-3.03 12.49ZM154.63 271.93c-.63 2.6-1.46 6.6-1.63 7.79l-5.76-.16c.36-1.19 1.21-5.03 1.84-7.63l3.05-12.57c.64-2.6 1.31-5.7 1.51-6.85h7.86c6.32 0 8.95 3.44 7.8 8.18-1 4.13-3.94 6.23-6.92 7.11 2.19 3.36 3.33 9.46 5.9 12.48l-6.87-.08c-1.2-2.07-3.16-8.27-3.99-11.52-.27.04-.5.04-.74.04h-1.27l-.78 3.2Zm1.74-7.15h2.12c2.5 0 4.63-1.64 5.19-3.93.5-2.07-.54-3.98-3.5-3.98h-1.9l-1.91 7.91ZM175.16 275.7h2.81c2.66 0 5.45-.04 6.62-.12l-1.18 4.86c-1.14-.08-3.89-.16-6.55-.16h-8.17c.58-2.1 5.98-26.06 6.18-27.2h8.25c2.62 0 5.42-.12 6.63-.2l-1.18 4.9a93.34 93.34 0 0 0-6.55-.16h-2.5l-1.4 5.7h2.2c2.63 0 5.19-.08 6.4-.16l-1.18 4.86c-1.17-.08-3.7-.16-6.32-.16h-2.2l-1.86 7.84ZM185.73 280.44c.4-1.25 1.22-4.44 1.84-7.16l2.79-12.06a158 158 0 0 0 1.72-8.13l7.94-.38c6.3-.3 7.82 3 7.08 6.22a8.03 8.03 0 0 1-4.47 5.47c2.25.8 4.2 3.08 3.34 6.79-1.03 4.47-5.5 8.77-12.23 9.09l-8.01.16Zm6.88-4.83 1.87-.09c2.94-.14 5.22-1.63 5.82-4.22.59-2.56-.98-3.98-3.68-3.86l-2.15.1-1.86 8.07Zm2.82-12.22 1.92-.09a4.3 4.3 0 0 0 4.09-3.3c.45-1.96-.84-3.09-2.99-2.99l-1.56.08-1.46 6.3ZM222.53 278.55c-.1-.92-.48-3.02-.7-4.2l-.55-2.76-9.02 1.1s-3.07 5.75-3.64 6.87l-6 .48a95.7 95.7 0 0 0 4.24-6.42L217.88 251l4.61-.44 4.94 20.55a79.26 79.26 0 0 0 1.92 6.6l-6.82.84Zm-3.87-18.02-3.56 7.27 5.38-.65-1.82-6.62ZM236.3 271.52s9.02-1.17 10.17-1.25l.4 5.28c-1.16-.07-16 1.93-16 1.93-.06-2.1-1.44-25.82-1.59-26.97l5.9-.72c0 1.14 1.11 21.73 1.11 21.73ZM253.34 269.36s8.95-1.25 10.1-1.33l.56 5.04c-1.16-.07-16.09 2.24-16.09 2.24-.05-2.1-1.44-25.81-1.58-26.96l5.66-.72c0 1.14 1.35 21.73 1.35 21.73Z"/><path class="af" d="M90.57 253.5c-.06.43-.08.85-.06 1.27l.07 3.21 3.36-4.12 1.36.15.5 4.53 2.35-3.22c.3-.4.51-.74.6-.9l2.73.3c-.66.68-1.43 1.65-2.06 2.44l-4.87 6.24-.54-.06-.75-5.82-4.35 5.25-.6-.06-.62-7.54c-.06-.72-.1-1.39-.23-2.02l3.11.35ZM99.72 263.76a31 31 0 0 0 .72-1.95l1.85-5.43-.95-.1c.35-.34.86-1 1.15-1.45l3.05.34c-.18.42-.48 1.24-.71 1.93l-1.7 5.01c-.25.71-.53 1.6-.61 1.96l-2.8-.3Zm5.83-12.95c.82.1 1.24.82.96 1.64a1.92 1.92 0 0 1-1.95 1.28c-.81-.1-1.24-.8-.97-1.6a1.95 1.95 0 0 1 1.96-1.32ZM109.9 264.94c-.37-.04-.92.02-1.62-.06-1.73-.2-2.89-1.36-2.06-3.78l1.18-3.47-1.3-.15.73-2.16 1.3.14.22-.65c.22-.64.41-1.27.53-1.73l2.78.3c-.2.46-.42 1.07-.64 1.73l-.22.65 2.4.27-.73 2.17-2.41-.27-1 2.95c-.44 1.29-.05 1.8.72 1.9.28.03.7.01.89-.1l-.77 2.26ZM119.14 260.65c.4-1.17.08-1.94-.86-2.04-1.03-.12-1.81.59-2.2 1.74l-1.05 3.09c-.19.54-.47 1.42-.57 1.97l-2.84-.32c.24-.53.56-1.41.74-1.95l3.61-10.6-.95-.11c.3-.3.9-1.12 1.13-1.45l3.1.35c-.27.54-.53 1.25-.76 1.92l-1.45 4.26a3.8 3.8 0 0 1 2.93-.9c2.18.24 2.64 2.02 1.84 4.4l-1.05 3.07c-.18.54-.46 1.42-.58 1.97l-2.82-.32c.22-.53.54-1.41.72-1.95l1.06-3.13ZM122.03 277.56c.37-1.19 1.32-4.31 1.95-6.91l3.03-12.5c.64-2.63 1.18-5.94 1.38-7.08 0 0 13.78 1.06 15 .99l-1.18 4.85a89.53 89.53 0 0 0-6.44-.15h-2.62l-1.62 5.79h2.24c2.54 0 4.6-.08 5.77-.15l-1.17 4.85a68.47 68.47 0 0 0-5.7-.15h-2.24l-.86 3.55c-.63 2.6-1.3 6.28-1.51 7.47l-6.03-.56ZM146.52 270.65a249.9 249.9 0 0 0-1.92 8.67l-5.86-.32c.37-1.19 1.6-5.75 2.23-8.35l3.04-12.5c.63-2.6.95-4.82 1.15-5.96l5.84.32c-.35 1.14-.82 3.05-1.45 5.65l-3.03 12.49ZM154.63 271.93c-.63 2.6-1.46 6.6-1.63 7.79l-5.76-.16c.36-1.19 1.21-5.03 1.84-7.63l3.05-12.57c.64-2.6 1.31-5.7 1.51-6.85h7.86c6.32 0 8.95 3.44 7.8 8.18-1 4.13-3.94 6.23-6.92 7.11 2.19 3.36 3.33 9.46 5.9 12.48l-6.87-.08c-1.2-2.07-3.16-8.27-3.99-11.52-.27.04-.5.04-.74.04h-1.27l-.78 3.2Zm1.74-7.15h2.12c2.5 0 4.63-1.64 5.19-3.93.5-2.07-.54-3.98-3.5-3.98h-1.9l-1.91 7.91ZM175.16 275.7h2.81c2.66 0 5.45-.04 6.62-.12l-1.18 4.86c-1.14-.08-3.89-.16-6.55-.16h-8.17c.58-2.1 5.98-26.06 6.18-27.2h8.25c2.62 0 5.42-.12 6.63-.2l-1.18 4.9a93.34 93.34 0 0 0-6.55-.16h-2.5l-1.4 5.7h2.2c2.63 0 5.19-.08 6.4-.16l-1.18 4.86c-1.17-.08-3.7-.16-6.32-.16h-2.2l-1.86 7.84ZM185.73 280.44c.4-1.25 1.22-4.44 1.84-7.16l2.79-12.06a158 158 0 0 0 1.72-8.13l7.94-.38c6.3-.3 7.82 3 7.08 6.22a8.03 8.03 0 0 1-4.47 5.47c2.25.8 4.2 3.08 3.34 6.79-1.03 4.47-5.5 8.77-12.23 9.09l-8.01.16Zm6.88-4.83 1.87-.09c2.94-.14 5.22-1.63 5.82-4.22.59-2.56-.98-3.98-3.68-3.86l-2.15.1-1.86 8.07Zm2.82-12.22 1.92-.09a4.3 4.3 0 0 0 4.09-3.3c.45-1.96-.84-3.09-2.99-2.99l-1.56.08-1.46 6.3ZM222.53 278.55c-.1-.92-.48-3.02-.7-4.2l-.55-2.76-9.02 1.1s-3.07 5.75-3.64 6.87l-6 .48a95.7 95.7 0 0 0 4.24-6.42L217.88 251l4.61-.44 4.94 20.55a79.26 79.26 0 0 0 1.92 6.6l-6.82.84Zm-3.87-18.02-3.56 7.27 5.38-.65-1.82-6.62ZM236.3 271.52s9.02-1.17 10.17-1.25l.4 5.28c-1.16-.07-16 1.93-16 1.93-.06-2.1-1.44-25.82-1.59-26.97l5.9-.72c0 1.14 1.11 21.73 1.11 21.73ZM253.34 269.36s8.95-1.25 10.1-1.33l.56 5.04c-1.16-.07-16.09 2.24-16.09 2.24-.05-2.1-1.44-25.81-1.58-26.96l5.66-.72c0 1.14 1.35 21.73 1.35 21.73Z"/><g><path class="ae" d="M302.82 257.55c-4.09-2.1-5.68 1.48-5.68 1.48s1.26-2.18 4.75-.2c3.5 1.96 5.4 0 5.4 0-1.6.72-4.47-1.28-4.47-1.28Z"/><path d="M302.03 240.24c3.5 1.97 5.39 0 5.39 0-1.6.72-4.46-1.28-4.46-1.28-4.1-2.1-5.69 1.48-5.69 1.48s1.26-2.17 4.76-.2Z" fill="url(#e)"/><path d="M276.02 245.34c.13-.8.74-2.7 3.53-3.82 3.63-1.47 4.16-4.6 4.16-4.6-.88 1.91-4.04 2.82-4.04 2.82a6.04 6.04 0 0 0-3.7 5.63l.05-.03Z" fill="url(#f)"/><path d="M329.96 252.04c-5.06 3.75-8.2 2.79-19.22-6.1-11.02-8.88-19.68-3.16-19.68-3.16 1.07-3.25 5.05-4.4 5.05-4.4-9.26-.86-15.52 2.98-18.88 6.4a18.1 18.1 0 0 1 4.09-1.2c.27-.05.55-.05.82-.05 4.66-2.81 7.67-2.68 7.67-2.68-1.84.55-3.2 2.16-4.28 3.06 1.79.47 3.39 1.36 4.7 2.64 6.46-1.88 12.75 1.17 12.75 1.17-2.08.06-6.36 1.19-10.32 2.36 1.03 2.34 1.36 5.1.89 8.06a20.4 20.4 0 0 1-5.9 11.13c1.8-.97 3.45-2.2 4.34-3.45 3.84-5.37 7.7-5.23 7.7-5.23-4.23-2.09-6.39.84-6.39.84 7.45-10.09 16.75-6.23 16.75-6.23-.97-2.76-2.66-2.59-2.66-2.59 3.13-1.47 7.62 3.38 7.62 3.38 10.88 5.48 14.95-3.95 14.95-3.95Z" fill="url(#g)"/><path d="M326.98 257.79c-6.92 4.71-9.75.52-9.75.52s3.68 7 11.8 1.9c0 0 5.64-4.66 8.97-3.5 0 0-4.1-3.64-11.02 1.08Z" fill="url(#h)"/><path class="t" d="M340.87 253.49c-.44-.4-2.8-2.28-6.7-2.41a4.3 4.3 0 0 0-6.79-2.51c-1.45 1.08-2.11 1.22-2.52 1.22-2.18 0-9.3-4.54-11.4-7.2s-5.6-6.17-8.82-7.18c-3.22-1-5.02-1.85-11.5-1.86-6.46 0-11.46.4-15.25 2.25s-5.8 4.72-6.17 8.45a23.03 23.03 0 0 0-9.7 15.09 18.66 18.66 0 0 0-.15 4.52c-1.17.14-2.86.36-4.52.59-.48-7.32-1.02-15.92-1.04-16.8a4.32 4.32 0 0 0-4.87-4.3l-5.66.72a4.3 4.3 0 0 0-3.74 4.79c.1.92.65 10.1 1.07 17.44l-2.75.35c-.4-7.36-.84-15.99-.85-16.84a4.32 4.32 0 0 0-4.85-4.31l-5.9.73a4.3 4.3 0 0 0-2.9 1.61l-.01.03a4.3 4.3 0 0 0-3.76-1.6l-4.62.43a4.32 4.32 0 0 0-3.48 2.4l-2.78 5.72a8.35 8.35 0 0 0-1.46-2.82c-1.32-1.65-3.94-3.63-8.95-3.63l-.98.03-7.94.37a4.3 4.3 0 0 0-.63.09 4.3 4.3 0 0 0-1.77-.29c-1.12.07-3.84.18-6.36.18h-8.25c-1.75 0-3.3 1.1-3.96 2.67-1.72-1.64-4.6-3.23-9.4-3.23h-7.87c-.45 0-.88.09-1.3.22a4.3 4.3 0 0 0-1.1-.22l-5.84-.32a3.92 3.92 0 0 0-.83.05c-.39-.1-.78-.18-1.18-.18h-.19a499.13 499.13 0 0 1-14.81-1 4.32 4.32 0 0 0-4.25 3.58l-.1.58-.45 2.51-.43-.27a4.32 4.32 0 0 0-3.43-6.1l-3.1-.35a4.32 4.32 0 0 0-4.02 1.81l-.43.6h-.04l-2.18-.25a5.47 5.47 0 0 0-4.58-2.37 6.3 6.3 0 0 0-5.64 3.7l-.5-.06-.46-.03c-.44 0-.87.07-1.27.2a4.3 4.3 0 0 0-1.72-.58l-1.37-.15a4.32 4.32 0 0 0-1.75.16 4.31 4.31 0 0 0-1.62-.51l-3.1-.35a4.32 4.32 0 0 0-4.71 5.16c.05.28.08.7.12 1.2l.65 7.84a4.32 4.32 0 0 0 3.82 3.94l.6.07.49.02c.76 0 1.5-.2 2.16-.58a4.3 4.3 0 0 0 2.45 1.13l.54.06.48.02c.84 0 1.66-.24 2.35-.7.65.57 1.46.94 2.34 1.03l2.8.32.47.02c.67 0 1.3-.17 1.89-.45a7.4 7.4 0 0 0 3.4 1.23c.56.06 1.04.07 1.44.07h.28l.38.02c.16 0 .32-.02.48-.04.24.07.5.13.76.16l2.84.32.48.03c.34 0 .68-.04 1-.12.44.22.92.36 1.42.41l2.73.3c-.32 1.26-.85 3.18-1.7 5.97a4.32 4.32 0 0 0 3.72 5.57l6.03.56.4.02a4.32 4.32 0 0 0 4.25-3.57c.25-1.37.87-4.8 1.45-7.2l.07-.25c.98 0 1.8.02 2.49.04a217.9 217.9 0 0 1-1.7 6.27 4.32 4.32 0 0 0 3.89 5.58l5.85.32a3.92 3.92 0 0 0 1.18-.1c.5.2 1.03.33 1.58.34l5.88.17a4.32 4.32 0 0 0 4.07-2.86c.2.45.4.85.6 1.18a4.32 4.32 0 0 0 3.69 2.16l6.93.08.18-.02.21.02h8.18a121.93 121.93 0 0 1 6.56.16c.39 0 .77-.07 1.14-.17.37.1.77.17 1.17.17l8.2-.17a19.3 19.3 0 0 0 5.94-1.23 4.31 4.31 0 0 0 3.1.98l6-.48c1.49-.12 2.8-1 3.5-2.33.34-.68 1.61-3.07 2.55-4.82l2.78-.34c.22 1.2.39 2.2.43 2.63a4.32 4.32 0 0 0 4.82 3.83l6.82-.83c.31-.03.61-.11.9-.21h.1c.19 0 .38 0 .57-.03a428.79 428.79 0 0 1 15.43-1.88c.5 0 1-.1 1.47-.28.08 0 .16 0 .23-.02a405.72 405.72 0 0 1 15.34-2.19h.09a4.32 4.32 0 0 0 4-2.73 13.6 13.6 0 0 0 7.52 2.2c.47 0 .95-.03 1.45-.07 3.22-.3 6.34-1.57 9.09-3.51a4.33 4.33 0 0 0 3.65-.21c1.79-.98 4.25-2.59 5.8-4.74 2.15-3.01 3.98-3.38 4.25-3.42a4.3 4.3 0 0 0 2.89-1.18c.73.18 1.47.29 2.2.29a7.87 7.87 0 0 0 5.55-2.2 4.3 4.3 0 0 0 1.18-2.58l.4-.17c.31.31.68.58 1.08.78l.2.1c.05.12.08.25.15.37 1.18 2.25 4.63 6.06 10.05 6.06 2.55 0 5.2-.84 7.87-2.52.16-.1.3-.2.45-.33 1.44-1.19 3.93-2.62 4.96-2.68a4.3 4.3 0 0 0 4.98-1.94 4.32 4.32 0 0 0-.85-5.42Z"/><path class="ag" d="M280.9 245.25c-6.87.64-13.4 7.25-14.6 14.77-1.2 7.52 3.4 13.1 10.27 12.47 6.87-.64 13.4-7.25 14.6-14.77 1.2-7.51-3.4-13.1-10.27-12.47Z"/></g><g><path class="af" d="M90.57 253.5c-.06.43-.08.85-.06 1.27l.07 3.21 3.36-4.12 1.36.15.5 4.53 2.35-3.22c.3-.4.51-.74.6-.9l2.73.3c-.65.68-1.43 1.65-2.06 2.44l-4.87 6.24-.54-.06-.75-5.82-4.35 5.25-.6-.06-.62-7.54c-.06-.72-.1-1.39-.23-2.02l3.11.35ZM99.72 263.76c.18-.4.5-1.28.73-1.95l1.84-5.43-.95-.1c.35-.34.86-1 1.15-1.45l3.05.34c-.18.42-.48 1.24-.71 1.93l-1.7 5.01c-.25.71-.53 1.6-.61 1.96l-2.8-.3Zm5.83-12.95c.82.1 1.24.82.96 1.64a1.92 1.92 0 0 1-1.95 1.28c-.81-.1-1.24-.8-.97-1.6a1.95 1.95 0 0 1 1.96-1.32ZM109.9 264.94c-.37-.04-.92.02-1.62-.06-1.73-.2-2.89-1.36-2.06-3.78l1.18-3.47-1.3-.15.73-2.16 1.3.14.23-.65c.21-.63.4-1.27.52-1.73l2.78.3c-.2.46-.42 1.07-.64 1.73l-.22.65 2.4.27-.73 2.17-2.41-.27-1 2.95c-.44 1.29-.05 1.8.72 1.9.28.03.7.01.89-.1l-.77 2.26ZM119.14 260.65c.4-1.17.08-1.94-.85-2.04-1.04-.12-1.82.59-2.21 1.74l-1.05 3.1c-.18.53-.47 1.41-.57 1.96l-2.84-.32c.24-.53.56-1.41.75-1.95l3.6-10.6-.95-.11c.3-.3.9-1.12 1.13-1.45l3.1.35c-.27.54-.53 1.25-.76 1.92l-1.45 4.26a3.8 3.8 0 0 1 2.93-.9c2.18.24 2.65 2.02 1.84 4.4l-1.05 3.07c-.18.54-.46 1.42-.58 1.97l-2.82-.32c.22-.53.54-1.41.72-1.95l1.06-3.13ZM122.03 277.56c.37-1.19 1.32-4.31 1.95-6.91l3.03-12.5c.64-2.63 1.18-5.94 1.38-7.08 0 0 13.78 1.06 15 .99l-1.18 4.85a89.53 89.53 0 0 0-6.44-.15h-2.62l-1.62 5.79h2.24c2.54 0 4.6-.08 5.77-.15l-1.17 4.85a68.47 68.47 0 0 0-5.7-.15h-2.24l-.86 3.55c-.63 2.6-1.3 6.28-1.51 7.47l-6.03-.56ZM146.52 270.65a249.9 249.9 0 0 0-1.92 8.67l-5.86-.32c.37-1.19 1.6-5.75 2.23-8.35l3.04-12.5c.63-2.6.95-4.82 1.15-5.96l5.84.32c-.35 1.14-.82 3.05-1.45 5.65l-3.03 12.49ZM154.63 271.93c-.63 2.6-1.46 6.6-1.63 7.79l-5.76-.16c.36-1.19 1.21-5.03 1.84-7.63l3.05-12.57c.64-2.6 1.31-5.7 1.51-6.85h7.86c6.32 0 8.95 3.44 7.8 8.18-1 4.13-3.94 6.23-6.92 7.11 2.19 3.36 3.33 9.46 5.9 12.48l-6.87-.08c-1.2-2.07-3.16-8.27-3.99-11.52-.27.04-.5.04-.74.04h-1.27l-.78 3.2Zm1.74-7.15h2.12c2.5 0 4.63-1.64 5.19-3.93.5-2.07-.54-3.98-3.5-3.98h-1.9l-1.91 7.91ZM175.16 275.7h2.81c2.66 0 5.45-.04 6.62-.12l-1.18 4.86c-1.14-.08-3.89-.16-6.55-.16h-8.17c.58-2.1 5.98-26.06 6.18-27.2h8.25c2.62 0 5.42-.12 6.63-.2l-1.18 4.9a93.34 93.34 0 0 0-6.55-.16h-2.5l-1.4 5.7h2.2c2.63 0 5.19-.08 6.4-.16l-1.18 4.86c-1.17-.08-3.7-.16-6.32-.16h-2.2l-1.86 7.84ZM185.73 280.44c.4-1.25 1.22-4.44 1.84-7.16l2.79-12.06a158 158 0 0 0 1.72-8.13l7.94-.38c6.3-.3 7.82 3 7.08 6.22a8.03 8.03 0 0 1-4.47 5.47c2.25.8 4.2 3.08 3.34 6.79-1.03 4.47-5.5 8.77-12.23 9.09l-8.01.16Zm6.88-4.83 1.87-.09c2.94-.14 5.22-1.63 5.82-4.22.59-2.56-.98-3.98-3.68-3.86l-2.15.1-1.86 8.07Zm2.82-12.22 1.92-.09a4.3 4.3 0 0 0 4.09-3.3c.45-1.96-.84-3.09-2.99-2.99l-1.56.08-1.46 6.3ZM222.53 278.55c-.1-.92-.48-3.02-.7-4.2l-.55-2.76-9.02 1.1s-3.07 5.75-3.64 6.87l-6 .48a95.7 95.7 0 0 0 4.24-6.42L217.88 251l4.61-.44 4.94 20.55a79.26 79.26 0 0 0 1.92 6.6l-6.82.84Zm-3.87-18.02-3.56 7.27 5.38-.65-1.82-6.62ZM236.3 271.52s9.02-1.17 10.17-1.25l.4 5.28c-1.16-.07-16 1.93-16 1.93-.06-2.1-1.44-25.82-1.59-26.97l5.9-.72c0 1.14 1.11 21.73 1.11 21.73ZM253.34 269.36s8.95-1.25 10.1-1.33l.56 5.04c-1.16-.07-16.09 2.24-16.09 2.24-.05-2.1-1.44-25.81-1.58-26.96l5.66-.72c0 1.14 1.35 21.73 1.35 21.73Z"/><path class="af" d="m95.31 253.96.5 4.54 2.34-3.22c.3-.4.52-.74.61-.91l2.73.3c-.66.69-1.43 1.66-2.06 2.44l-4.87 6.25-.55-.06-.74-5.82-4.35 5.25-.6-.07-.63-7.54c-.06-.72-.1-1.38-.22-2.01l3.1.35a6.3 6.3 0 0 0-.06 1.26l.08 3.22 3.36-4.13 1.36.15ZM103.13 262.07c-.24.7-.52 1.6-.6 1.96l-2.82-.31c.17-.4.51-1.28.74-1.95l1.85-5.43-.96-.1c.35-.33.87-1 1.16-1.45l3.05.34c-.18.42-.48 1.24-.72 1.93l-1.7 5Zm2.43-11.3c.82.09 1.24.81.96 1.64a1.94 1.94 0 0 1-1.96 1.3c-.81-.1-1.23-.82-.96-1.63a1.95 1.95 0 0 1 1.96-1.31ZM111.67 253.34c-.2.46-.43 1.07-.65 1.72l-.22.65 2.41.27-.73 2.17-2.42-.27-1 2.96c-.44 1.28-.05 1.8.73 1.89.27.03.7.02.88-.1l-.77 2.26c-.37-.04-.91.02-1.61-.06-1.73-.19-2.89-1.35-2.07-3.77l1.18-3.47-1.3-.15.74-2.17 1.3.15.22-.66c.22-.63.41-1.26.53-1.73l2.78.31ZM119.15 260.6c.4-1.16.07-1.93-.86-2.04-1.03-.11-1.82.62-2.2 1.75l-1.06 3.1c-.18.52-.46 1.4-.57 1.95l-2.83-.31c.24-.53.56-1.41.73-1.93l3.61-10.63-.95-.1c.3-.31.89-1.12 1.14-1.45l3.09.34c-.27.55-.53 1.26-.75 1.93l-1.45 4.26a3.8 3.8 0 0 1 2.93-.9c2.18.23 2.64 2.02 1.83 4.4l-1.05 3.09c-.17.51-.46 1.4-.58 1.94l-2.82-.31c.22-.53.54-1.42.72-1.93l1.07-3.15ZM122.03 277.56c.37-1.19 1.32-4.31 1.95-6.91l3.03-12.5c.64-2.63 1.18-5.94 1.38-7.08 0 0 13.78 1.06 15 .99l-1.18 4.85a89.53 89.53 0 0 0-6.44-.15h-2.62l-1.62 5.79h2.24c2.54 0 4.6-.08 5.77-.15l-1.17 4.85a68.47 68.47 0 0 0-5.7-.15h-2.24l-.86 3.55c-.63 2.6-1.3 6.28-1.51 7.47l-6.03-.56ZM146.52 270.65a249.9 249.9 0 0 0-1.92 8.67l-5.86-.32c.37-1.19 1.6-5.75 2.23-8.35l3.04-12.5c.63-2.6.95-4.82 1.15-5.96l5.84.32c-.35 1.14-.82 3.05-1.45 5.65l-3.03 12.49ZM154.63 271.93c-.63 2.6-1.46 6.6-1.63 7.79l-5.76-.16c.36-1.19 1.21-5.03 1.84-7.63l3.05-12.57c.64-2.6 1.31-5.7 1.51-6.85h7.86c6.32 0 8.95 3.44 7.8 8.18-1 4.13-3.94 6.23-6.92 7.11 2.19 3.36 3.33 9.46 5.9 12.48l-6.87-.08c-1.2-2.07-3.16-8.27-3.99-11.52-.27.04-.5.04-.74.04h-1.27l-.78 3.2Zm1.74-7.15h2.12c2.5 0 4.63-1.64 5.19-3.93.5-2.07-.54-3.98-3.5-3.98h-1.9l-1.91 7.91ZM175.16 275.7h2.81c2.66 0 5.45-.04 6.62-.12l-1.18 4.86c-1.14-.08-3.89-.16-6.55-.16h-8.17c.58-2.1 5.98-26.06 6.18-27.2h8.25c2.62 0 5.42-.12 6.63-.2l-1.18 4.9a93.34 93.34 0 0 0-6.55-.16h-2.5l-1.4 5.7h2.2c2.63 0 5.19-.08 6.4-.16l-1.18 4.86c-1.17-.08-3.7-.16-6.32-.16h-2.2l-1.86 7.84ZM185.73 280.44c.4-1.25 1.22-4.44 1.84-7.16l2.79-12.06a158 158 0 0 0 1.72-8.13l7.94-.38c6.3-.3 7.82 3 7.08 6.22a8.03 8.03 0 0 1-4.47 5.47c2.25.8 4.2 3.08 3.34 6.79-1.03 4.47-5.5 8.77-12.23 9.09l-8.01.16Zm6.88-4.83 1.87-.09c2.94-.14 5.22-1.63 5.82-4.22.59-2.56-.98-3.98-3.68-3.86l-2.15.1-1.86 8.07Zm2.82-12.22 1.92-.09a4.3 4.3 0 0 0 4.09-3.3c.45-1.96-.84-3.09-2.99-2.99l-1.56.08-1.46 6.3ZM222.53 278.55c-.1-.92-.48-3.02-.7-4.2l-.55-2.76-9.02 1.1s-3.07 5.75-3.64 6.87l-6 .48a95.7 95.7 0 0 0 4.24-6.42L217.88 251l4.61-.44 4.94 20.55a79.26 79.26 0 0 0 1.92 6.6l-6.82.84Zm-3.87-18.02-3.56 7.27 5.38-.65-1.82-6.62ZM236.3 271.52s9.02-1.17 10.17-1.25l.4 5.28c-1.16-.07-16 1.93-16 1.93-.06-2.1-1.44-25.82-1.59-26.97l5.9-.72c0 1.14 1.11 21.73 1.11 21.73ZM253.34 269.36s8.95-1.25 10.1-1.33l.56 5.04c-1.16-.07-16.09 2.24-16.09 2.24-.05-2.1-1.44-25.81-1.58-26.96l5.66-.72c0 1.14 1.35 21.73 1.35 21.73Z"/><g><path class="ae" d="M302.82 257.55c-4.09-2.1-5.68 1.48-5.68 1.48s1.26-2.18 4.75-.2c3.5 1.96 5.4 0 5.4 0-1.6.72-4.47-1.28-4.47-1.28Z"/><path d="M302.03 240.24c3.5 1.97 5.39 0 5.39 0-1.6.72-4.46-1.28-4.46-1.28-4.1-2.1-5.69 1.48-5.69 1.48s1.26-2.17 4.76-.2Z" fill="url(#i)"/><path d="M276.02 245.34c.13-.8.74-2.7 3.53-3.82 3.63-1.47 4.16-4.6 4.16-4.6-.88 1.91-4.04 2.82-4.04 2.82a6.04 6.04 0 0 0-3.7 5.63l.05-.03Z" fill="url(#j)"/><path d="M329.96 252.04c-5.06 3.75-8.2 2.79-19.22-6.1-11.02-8.88-19.68-3.16-19.68-3.16 1.07-3.25 5.05-4.4 5.05-4.4-9.26-.86-15.52 2.98-18.88 6.4a18.1 18.1 0 0 1 4.09-1.2c.27-.05.55-.05.82-.05 4.66-2.81 7.67-2.68 7.67-2.68-1.84.55-3.2 2.16-4.28 3.06 1.79.47 3.39 1.36 4.7 2.64 6.46-1.88 12.75 1.17 12.75 1.17-2.08.06-6.36 1.19-10.32 2.36 1.03 2.34 1.36 5.1.89 8.06a20.4 20.4 0 0 1-5.9 11.13c1.8-.97 3.45-2.2 4.34-3.45 3.84-5.37 7.7-5.23 7.7-5.23-4.23-2.09-6.39.84-6.39.84 7.45-10.09 16.75-6.23 16.75-6.23-.97-2.76-2.66-2.59-2.66-2.59 3.13-1.47 7.62 3.38 7.62 3.38 10.88 5.48 14.95-3.95 14.95-3.95Z" fill="url(#k)"/><path d="M326.98 257.79c-6.92 4.71-9.75.52-9.75.52s3.68 7 11.8 1.9c0 0 5.64-4.66 8.97-3.5 0 0-4.1-3.64-11.02 1.08Z" fill="url(#l)"/><path class="ag" d="M280.9 245.25c-6.87.64-13.4 7.25-14.6 14.77-1.2 7.52 3.4 13.1 10.27 12.47 6.87-.64 13.4-7.25 14.6-14.77 1.2-7.51-3.4-13.1-10.27-12.47Z"/></g></g><path class="af" d="M416.56 60.85c-15.88-21.43-55.02-30.92-62.18-32.22 0-5.57 1.68-11.07.35-14.2-.95-2.22-4.22-2.96-5.87-2.96-.21 0-95.8 5.48-95.8 5.48-2.87.17-12.84.33-16.15.52-.03 0-.27-.77-.3-.9-.87-4.02-6.7-8.63-8.73-10.03-2.04-1.4-3.95-3.05-8.34-2.93-5.78.14-14.8 5.05-15.52 5.6-1.63-.6-11.29-1.58-12.34-1.58-3.17 0-6.18 1.37-8.3 3.78-1.52 1.74-4.03 7.83-4.45 9.33-.26.88-131.16 7-132.9 7-.22 0-.43 0-.65.02l-.44.03a10.8 10.8 0 0 0-10.05 9.3l-1.52 10.96c-.3 2.23-.42 2.89-.45 3.05A10.8 10.8 0 0 0 41.75 64c-12.12 6.9-20.69 18.67-23.48 33.38a36066.88 36066.88 0 0 1-12.39 63.97c-5.93 27.26.91 41.6 7.42 47.72 4.36 4.12 17.65 16.64 71.65 25.42 28.88 4.7 64.01 7.38 96.39 7.38 18.83 0 35.7-.87 50.16-2.6 34.76-4.17 63.89-8.91 86.59-14.11 33.82-8.5 52.95-20.36 58.65-24.46 5.7-4.1 17.99-16.82 23.94-23.6 13.88-15.8 23.57-36.1 27.31-57.15 3.95-22.21 4.45-37.67-11.43-59.1Z"/><path class="ai" d="M57.88 102.02c-3.91 20.52-7.95 41-11.96 61.5-.54 2.53-1.53 7.92 2.4 7.94 3.9.03 4.7-5.2 5.37-8l4.92-25.05c6.32-.11 12.64-.22 18.96-.38-1.75 8.87-3.52 17.74-5.28 26.6-2.61 13.48-13.36 21.13-26.76 21.21-12.73.09-21.12-7.09-18.46-20.32 4.13-21.35 8.3-42.7 12.41-64.04 2.56-13.5 13.1-21.78 26.58-22.61 13.3-.83 21.53 6.78 18.9 20.42-1.61 8.65-3.23 17.3-4.89 25.95-6.32.2-12.65.34-18.97.47 1.55-8 3.07-16 4.59-24 .5-2.3 1.85-8.6-2.39-8.3-3.8.27-4.97 5.6-5.42 8.61ZM99.6 78.1l38.43-2.55a8741.22 8741.22 0 0 1-13.83 106.9c-5.88.37-11.77.72-17.65 1.08 1.43-10.82 2.9-21.63 4.39-32.45-3.76.27-7.52.53-11.29.78-2.78 10.83-5.57 21.66-8.34 32.5-6.44.18-12.87.24-19.3.2A9855.8 9855.8 0 0 0 99.6 78.1Zm3.63 58.88c3.34-.22 6.68-.46 10.02-.71 2.09-15.12 3.95-30.28 5.87-45.42l-4.79.34c-3.64 15.28-7.27 30.56-11.1 45.8ZM132.28 161.55l4.46-21.67c6.23-.52 12.45-1.06 18.67-1.6l-4.25 20.44c-.63 2.43-1.94 8.4 2.27 8.11 4.32-.3 5.7-5.39 6.32-8.9 1.05-5.04 2.08-10.1 3.12-15.14 2.5-11.38-13.8-13.76-18.5-21.3-2.4-4.75-1.85-9.8-1.13-14.9l2.13-11.42c2.49-13.64 12.5-22.28 26.25-23.18 12.98-.85 20.7 6.77 18.1 19.93l-3.17 16.82c-6.27.46-12.55.87-18.82 1.32l2.89-15.33c.4-1.88 2.16-8.5-1.75-8.27-3.84.23-4.67 5.84-5.1 8.74l-2.19 11.6c-1.61 9.57 11.7 12.3 17 17.35 4.85 4.73 4.03 11.56 3.12 17.65l-2.93 15.6c-2.65 14.28-14.41 23.36-28.53 24.65-13.54 1.24-20.74-7.34-17.96-20.5ZM232.85 122.1A98.3 98.3 0 0 1 244.77 90c1.43-7.2 2.85-14.42 4.25-21.65l-18.66 1.2c-2.77 14.33-5.52 28.66-8.26 43l-8.13.66c2.74-14.38 5.48-28.76 8.26-43.14l-19.14 1.24c-6.73 35.06-13.33 70.15-19.9 105.24 6.48-1.16 12.9-2.46 19.33-3.87 2.8-14.86 5.85-29.67 8.6-44.53l8.12-.71c-2.7 14.48-5.8 28.89-8.58 43.36 6.2-1.48 12.4-3.03 18.57-4.6l3.47-16.73c-1.55-8.33-1.6-17.56.15-27.36Z"/><path d="M314.23 43.9c-35.39 2.42-69.88 37.14-77.06 77.54-7.17 40.41 15.7 71.2 51.08 68.77 35.39-2.42 69.88-37.14 77.05-77.55 7.18-40.4-15.7-71.2-51.07-68.77Zm15.37 37.04-2.51 12.97c-1.92 9.94-5.35 15.56-11.14 17.79 6.14 2.02 7.99 8.02 5.7 19.83l-3.06 15.85c-2.87 14.84-14.03 23.24-29.28 24.22-15.92 1.02-24.4-6.11-21.54-20.95l3.04-15.7 19.99-1.3-2.8 14.42c-1.41 7.34-.11 8.4 3.79 8.15 4.4-.28 5.61-2.21 6.9-8.84l2.36-12.25c1.64-8.5 1.43-13.46-3.82-13.13l-11 .71 2.92-15.13 11.69-.75c2.37-.15 3.91-2.1 4.64-5.84l4.49-23.2c.58-3.03-.33-4.39-2.7-4.24-2.2.14-4 1.68-4.59 4.7l-3.4 17.59-20.32 1.3 2.3-11.96c2.38-12.24 6.38-24.31 28.74-25.75 22.2-1.42 21.74 10.42 19.6 21.51Z" fill="url(#m)"/><path d="M231.15 179.69s16.07 21.47 49.2 23.19c33.14 1.72 70.8-8.72 81-17.14-14.63 13.74-69.45 24.54-132.41 32.08-62.96 7.54-177.77-2.74-200.83-24.47 54.29 9.73 169.07.53 203.04-13.66Z" fill="url(#n)"/><path d="M387.2 115.47c-6.88 38.73-39.8 72.02-73.7 74.68 30.68-7.05 58.76-37.93 65.05-73.35 4.18-23.55-2.25-43.7-15.52-55.44a45.07 45.07 0 0 0-13.46-11.66c27.32 4.36 43.71 31.46 37.62 65.77Z" fill="url(#o)"/><path d="M406.72 116.18c-6.15 34.66-32.34 66.75-62.68 69.12 27.47-6.3 49.32-36.23 54.95-67.93 3.74-21.09-2.01-39.12-13.9-49.62a40.34 40.34 0 0 0-12.04-10.44c24.45 3.9 39.13 28.16 33.67 58.87Z" fill="url(#p)"/><g><path class="t" d="M227.03 24.52s-3.03.87-3.25 1.04c-.22.17-2.07.62-2.55.64-.48.03-2.03-.12-2.35-.06-.31.06-1.39.2-1.68.32l-1.06.45s-.4.45-.46.65c-.06.21-.04.42-.04.42s.78-.16 1.48-.04 1.9.21 2.51.36 1.55-.12 2.05-.36c.5-.23 1.92-1.45 2.08-1.55.15-.1 1.38-1.32 3.27-1.87Z"/><path class="t" d="M215.58 28.17a.18.18 0 0 1-.14-.17s-.01-.24.06-.48c.07-.24.43-.66.5-.74a.2.2 0 0 1 .07-.05c.03-.02.78-.34 1.07-.45a9.74 9.74 0 0 1 3.06-.3c.4.02.83.04 1.04.03.5-.02 2.25-.47 2.43-.6.23-.18 2.4-.81 3.32-1.08.1-.03.2.03.23.14s-.04.2-.15.24c-1.55.45-2.64 1.36-3.04 1.7-.1.09-.14.13-.18.15l-.4.32c-.53.42-1.33 1.06-1.7 1.24-.5.24-1.48.53-2.16.37h-.05c-.35-.1-.9-.16-1.43-.22l-1.03-.13c-.66-.12-1.41.03-1.42.03h-.08Zm.67-1.1c-.17.2-.36.44-.38.54a1 1 0 0 0-.03.14c.3-.04.83-.08 1.32 0 .28.05.64.09 1.02.13.56.07 1.13.14 1.51.23h.01c.58.14 1.48-.14 1.9-.34.33-.16 1.14-.8 1.62-1.2l.45-.34.12-.1c.18-.16.5-.42.92-.71-.43.14-.75.25-.82.3-.28.2-2.18.66-2.66.68-.22 0-.64-.01-1.08-.04-.48-.02-1.09-.05-1.24-.03l-.39.07c-.4.06-1.07.17-1.26.24-.24.1-.85.35-1.01.43ZM228.3 26.13s1.3-.6 1.97-.64c.68-.04 1.53-.16 2.47.23.93.39 1.38 1.03 2.1 1.03s1.73-.3 1.97-.47-1.16.71-1.33 2.46c-.17 1.74-.2 3.09-.45 3.68a7.68 7.68 0 0 1-2.61 2.78c-1.1.57-4.65 2-5.04 2.4-.38.38-1.59 1.8-1.59 1.8l-3.51-1.75.52-6.41s3.3-3.98 5.5-5.11Z"/><path class="y" d="m225.74 39.59-.04-.01-3.51-1.76a.18.18 0 0 1-.1-.18l.51-6.4a.2.2 0 0 1 .05-.12c.14-.17 3.37-4.03 5.57-5.16h.01a8.08 8.08 0 0 1 2.04-.67l.21-.01c.65-.05 1.46-.1 2.34.26.4.17.72.38 1 .56.37.26.66.45 1.03.45.67 0 1.66-.29 1.86-.43l.02-.01a.37.37 0 0 1 .09-.05c.09-.01.17.03.2.12.03.06.03.16-.1.25-.17.13-1.12.93-1.25 2.31l-.12 1.35a9.4 9.4 0 0 1-.35 2.4 7.85 7.85 0 0 1-2.7 2.89c-.42.21-1.19.55-2 .9a24.23 24.23 0 0 0-2.98 1.45c-.38.38-1.57 1.78-1.58 1.8a.2.2 0 0 1-.2.06Zm-3.26-2.06 3.27 1.63a49.7 49.7 0 0 1 1.5-1.7c.25-.25 1.4-.77 3.12-1.53.8-.36 1.56-.69 1.97-.9a7.47 7.47 0 0 0 2.51-2.68c.17-.4.24-1.22.32-2.27l.12-1.35c.08-.86.45-1.53.8-1.98-.4.1-.88.2-1.27.2-.47 0-.82-.24-1.23-.52a5.24 5.24 0 0 0-.94-.53 4.5 4.5 0 0 0-2.16-.23l-.22.01c-.6.04-1.82.59-1.9.62-2 1.04-5 4.54-5.39 5l-.5 6.23Z"/><path class="ai" d="M181.96 36.97c-1.73-1.03-3.6-1.69-5.62-.63a37.12 37.12 0 0 0-5.42 3.53c-1.4 1.09-2.4 2.75-3.44 4.16a20.5 20.5 0 0 0-2.68 4.89c-.2.48-.38.96-.59 1.44-.06.14-.41.67-.4.8.05.63 2.54.61 3.07.66 1.05.1 2.06.32 3.12.09 1.36-.3 2.69-.87 4-1.33 2.45-.88 4.91-1.68 7.37-2.5.5-.16 1.8-.32 2.19-.71.2-.2.13-.33.1-.67-.38-3.27-1.1-6.51-1.7-9.74Z"/><path class="y" d="M164.45 51.79c-.51-.12-.8-.3-.83-.6-.01-.14.08-.32.3-.68l.12-.22.47-1.15.1-.29a20.74 20.74 0 0 1 2.72-4.93l.65-.9c.83-1.2 1.7-2.42 2.83-3.3 1.81-1.4 3.7-2.63 5.45-3.55 2.24-1.17 4.28-.28 5.8.63.05.02.08.07.1.12.13.76.28 1.51.43 2.27a94.24 94.24 0 0 1 1.27 7.63c.04.24.07.45-.17.68-.32.32-1.04.48-1.68.63l-.59.14-.2.07c-2.36.77-4.79 1.57-7.16 2.42l-.96.35c-1 .37-2.03.75-3.07.99-.84.19-1.66.09-2.45 0-.24-.04-.49-.06-.73-.09-.08 0-.22 0-.38-.02a11.9 11.9 0 0 1-2.02-.2Zm-.45-.64c.03.13.41.37 2.5.45l.4.03.75.08c.8.1 1.55.18 2.32 0 1.02-.22 2.03-.6 3.01-.96l.97-.36c2.38-.84 4.81-1.65 7.16-2.42l.21-.07c.16-.05.38-.1.63-.15.52-.12 1.24-.29 1.48-.52.08-.08.08-.1.05-.33l-.02-.16c-.28-2.5-.77-5.02-1.25-7.45-.14-.73-.29-1.46-.42-2.2-1.52-.89-3.34-1.64-5.37-.58-1.73.91-3.6 2.12-5.39 3.51-1.08.84-1.93 2.05-2.74 3.2l-.65.92a20.34 20.34 0 0 0-2.66 4.84l-.12.28c-.15.38-.3.78-.47 1.17l-.15.26c-.07.12-.21.37-.24.46Z"/><path class="y" d="M163.85 51.2a.18.18 0 0 1-.1-.05c-.07-.08-.05-.2.03-.28 1.08-.96 8.1-6.78 9.99-7.89a29.74 29.74 0 0 1 6.65-2.27c.1.03.16.13.13.24a.2.2 0 0 1-.2.15c-.3.04-4.68 1.2-6.4 2.22-1.87 1.1-8.85 6.88-9.93 7.84a.2.2 0 0 1-.17.04Z"/><path class="ai" d="M195.87 49.74c-1.67.38-3.38.73-5 1.34-1.49.57-2.51 1.64-3.69 2.72a9.14 9.14 0 0 0-2.47 3.15c-.63 1.49-.88 3.1-1.49 4.6-.58 1.46-.96 2.54-.88 4.06.02.35.11 3.32.53 3.23.24-.05.97-1.93 1.1-2.14.7-1.05 1.75-2 2.77-2.74 1.73-1.27 3.9-1.48 5.77-2.46 1.3-.68 3.18-1.68 4.05-2.91.72-1 1.14-2.37 1.65-3.48l-2.34-5.37Z"/><path class="y" d="M182.78 69.03a.28.28 0 0 1-.1-.05c-.2-.15-.41-.64-.52-3.22v-.13c-.1-1.57.3-2.7.88-4.14.3-.72.5-1.47.71-2.2.22-.8.45-1.63.78-2.4a9.46 9.46 0 0 1 2.53-3.23l.46-.43c1-.94 1.96-1.83 3.3-2.33a32.5 32.5 0 0 1 4.46-1.22l.56-.13c.08-.02.17.02.2.1l2.35 5.37a.2.2 0 0 1 0 .16c-.16.34-.31.7-.47 1.09-.34.84-.7 1.72-1.2 2.42-.93 1.3-2.93 2.35-4.13 2.98-.8.42-1.66.7-2.49.97a11.2 11.2 0 0 0-3.25 1.47c-.82.6-1.96 1.56-2.72 2.7l-.25.55c-.58 1.32-.76 1.63-.98 1.67h-.12Zm.14-.36Zm12.83-18.7-.41.09c-1.47.32-2.98.66-4.41 1.2a9.83 9.83 0 0 0-3.16 2.25l-.46.43a8.81 8.81 0 0 0-2.42 3.08c-.32.75-.55 1.56-.77 2.35-.2.74-.42 1.51-.72 2.25-.57 1.43-.94 2.48-.86 3.96v.14c.09 2.03.24 2.67.33 2.87.17-.27.5-1 .66-1.37.15-.35.24-.54.29-.62.79-1.19 1.97-2.18 2.81-2.8a11.68 11.68 0 0 1 3.38-1.53c.81-.26 1.65-.54 2.42-.94 1.17-.61 3.11-1.63 3.98-2.85.48-.67.82-1.52 1.16-2.34.14-.36.28-.7.43-1.02l-2.25-5.15Z"/><path class="y" d="M182.7 69.03a.18.18 0 0 1-.13-.13c-.25-.96 1.46-6.44 2.22-7.8.74-1.36 2.33-3.12 4.7-5.26a28 28 0 0 1 5.78-3.68c.1-.05.21 0 .25.09a.2.2 0 0 1-.1.26c-.04.02-3.52 1.65-5.69 3.6-2.3 2.09-3.9 3.87-4.61 5.16-.74 1.33-2.38 6.74-2.17 7.5a.2.2 0 0 1-.14.26.19.19 0 0 1-.1 0Z"/><path class="ai" d="M195.51 36.91c.1.66-.59 1.5-.95 2-1.26 1.76-2.56 3.39-3.63 5.27-1.39 2.44-3.05 5.3-3.28 8.08a20.2 20.2 0 0 0 1.77 10.01c1.03 2.06 2.35 3.99 3.54 5.94 1.32 2.16 2.76 4.28 3.94 6.53-.07-2.68.14-5.26.74-7.92.4-1.77 1.2-3.13 2.24-4.6.83-1.18 2-2.47 2.47-3.83.35-1.07.08-2.42-.01-3.49-.1-1-.14-2.04-.32-3.02-.28-1.5-.77-2.99-1.15-4.46l-1.52-5.89-3.84-4.62Z"/><path class="y" d="M196.84 74.93a.18.18 0 0 1-.11-.1c-.83-1.58-1.81-3.12-2.75-4.62-.4-.62-.8-1.26-1.18-1.9l-1-1.6c-.9-1.4-1.8-2.84-2.55-4.34a20.51 20.51 0 0 1-1.8-10.12c.24-2.76 1.82-5.54 3.21-7.99l.1-.17c.81-1.43 1.78-2.74 2.71-4a122.05 122.05 0 0 0 1.07-1.47c.34-.46.86-1.16.78-1.67a.2.2 0 0 1 .12-.21.19.19 0 0 1 .22.04l3.84 4.62.04.07 1.52 5.89c.12.48.26.97.4 1.44.27.99.56 2 .75 3.03.14.77.2 1.57.26 2.35l.06.7.07.66c.1.94.23 2-.07 2.9a11.02 11.02 0 0 1-1.82 2.98c-.24.31-.47.6-.67.9a12.35 12.35 0 0 0-2.22 4.53c-.56 2.52-.8 5.1-.73 7.87 0 .1-.06.18-.14.2a.2.2 0 0 1-.1 0Zm-1.18-37.53a4.73 4.73 0 0 1-.81 1.44c-.05.06-.1.12-.13.18l-.94 1.28a39.8 39.8 0 0 0-2.69 3.97l-.1.17c-1.37 2.41-2.92 5.15-3.15 7.82-.28 3.32.41 7.2 1.76 9.92.73 1.48 1.64 2.92 2.52 4.3.33.53.68 1.08 1 1.62l1.19 1.89c.8 1.28 1.64 2.6 2.38 3.95 0-2.5.24-4.85.76-7.16.4-1.76 1.2-3.14 2.28-4.68.2-.3.44-.6.68-.9.7-.93 1.42-1.88 1.75-2.86.28-.82.16-1.83.06-2.73l-.08-.68-.05-.7a22.2 22.2 0 0 0-.26-2.3c-.19-1.01-.47-2.02-.75-3l-.4-1.45-1.5-5.85-3.52-4.23Z"/><path class="y" d="M196.81 74.63a.18.18 0 0 1-.11-.1c-1.84-3.52-3-9.19-3.56-11.91-.53-2.59.33-8.78.84-12.48l.05-.36c.48-3.47 2.85-10.23 2.87-10.3a.2.2 0 0 1 .25-.13c.1.03.15.14.12.24-.03.07-2.39 6.8-2.86 10.22l-.05.36c-.47 3.44-1.36 9.83-.84 12.35.56 2.7 1.71 8.34 3.52 11.82a.2.2 0 0 1-.09.26.2.2 0 0 1-.14.03Z"/><path class="ai" d="M226.01 44.83a10.7 10.7 0 0 0 .9 5.89 10.84 10.84 0 0 0 5.23 5.67c3.6 1.95 9.07 2.84 10.58 7.2 1.24-4 1.52-9.73-.96-13.2-1.1-1.55-3.2-2.84-4.88-3.7-1.04-.53-9.6-3-10.54-6.04l-.33 4.18Z"/><path class="y" d="M242.66 63.79a.18.18 0 0 1-.12-.12c-1.09-3.13-4.27-4.43-7.34-5.69-1.13-.46-2.2-.9-3.16-1.42a10.98 10.98 0 0 1-5.31-5.76c-.93-2.26-1.2-4.06-.91-5.98l.33-4.17c.01-.1.08-.18.17-.2.1 0 .18.04.2.13.74 2.38 6.39 4.43 9.1 5.41.66.24 1.14.42 1.35.52 2.39 1.23 4.05 2.49 4.95 3.75 2.46 3.46 2.27 9.22.98 13.38a.2.2 0 0 1-.18.15h-.06Zm-16.18-22.41-.28 3.45v.02c-.28 1.85-.02 3.58.88 5.79a10.65 10.65 0 0 0 5.16 5.57c.94.52 2 .95 3.12 1.4 2.98 1.22 6.05 2.48 7.34 5.39 1.1-4.02 1.19-9.3-1.1-12.5-.86-1.21-2.48-2.44-4.82-3.64-.19-.1-.68-.27-1.3-.5-2.53-.92-7.54-2.74-9-4.98Z"/><path class="y" d="M242.7 63.44a.18.18 0 0 1-.14-.16c-.35-3.88-1.9-7.19-5.17-11.07a35.06 35.06 0 0 0-7.39-6.23c-.09-.05-.11-.17-.05-.26.06-.1.18-.13.27-.07.04.02 4.47 2.74 7.47 6.3 3.32 3.94 4.9 7.31 5.26 11.27 0 .11-.07.21-.18.23h-.07Z"/><path class="ai" d="M219.15 54.34a17.98 17.98 0 0 0 2.39 3.25c1.42 1.48 3.59 1.9 5.55 2.37 2.15.5 4.16.63 6.1 1.72.75.42 3.1 1.65 2.9 2.8-.04-2.8-.94-5.38-1.9-7.92-.85-2.21-2.37-3.6-4.19-4.98l-10.85 2.76Z"/><path class="y" d="M236.03 64.68a.18.18 0 0 1-.14-.18v-.31c-.22-.9-2.03-1.91-2.67-2.26l-.12-.08c-1.41-.79-2.86-1.06-4.4-1.36-.54-.1-1.1-.21-1.66-.34l-.37-.09c-1.92-.44-3.9-.9-5.27-2.33a18.07 18.07 0 0 1-2.42-3.28.2.2 0 0 1 0-.17c.02-.06.07-.1.13-.12l10.86-2.77c.05-.02.1 0 .15.03 2.01 1.54 3.42 2.92 4.24 5.06.91 2.38 1.8 4.92 1.91 7.65.03.12.03.25 0 .38a.2.2 0 0 1-.2.17h-.04Zm-5.67-4.25c1 .23 1.97.54 2.94 1.08l.12.07c.61.34 1.76.98 2.4 1.73a26.18 26.18 0 0 0-1.82-6.67c-.78-2.04-2.13-3.37-4.05-4.85l-10.5 2.67c.74 1.22 1.47 2.2 2.23 2.99 1.3 1.35 3.23 1.8 5.1 2.23l.37.09 1.65.34c.53.1 1.05.2 1.56.32Z"/><path class="y" d="M235.95 63.99a.18.18 0 0 1-.13-.15 10.83 10.83 0 0 0-2.87-5.04c-1.03-.8-3.44-2.1-4.82-2.77-1.44-.7-2.49-2-2.53-2.06-.07-.08-.05-.2.03-.28.09-.07.21-.06.27.02.01.02 1.04 1.31 2.4 1.97 1.31.62 3.79 1.94 4.9 2.8a11.1 11.1 0 0 1 3 5.27.2.2 0 0 1-.16.24h-.09Z"/><path class="ai" d="M226.94 46.93c1.4-.43 2.87-.89 4.2-1.58 1.43-.76 2.48-2.72 3.26-4.1.52-.92.08-.57-.71-.61-1.11-.05-2.35-.84-3.36-1.25-.79-.32-1.2-.54-2.08-.37-.7.15-1.4.36-2.07.59l-3.26 5.92s.26 2.14 4.02 1.4Z"/><path class="y" d="M224.48 47.18c-.37-.09-.7-.23-.97-.43a1.85 1.85 0 0 1-.78-1.19c0-.04 0-.08.03-.12l3.25-5.92a.21.21 0 0 1 .12-.1c.66-.22 1.37-.44 2.1-.59.86-.17 1.31.02 2 .3l.18.08c.3.12.6.26.92.42.8.38 1.62.78 2.38.82l.51-.02c.25-.03.45-.05.56.12.1.17 0 .4-.22.8l-.13.23c-.76 1.35-1.8 3.2-3.22 3.94-1.33.7-2.8 1.16-4.21 1.6h-.03c-.99.2-1.82.21-2.49.06Zm-1.36-1.63c.04.15.17.56.64.89.66.47 1.75.58 3.15.3 1.4-.43 2.84-.88 4.14-1.56 1.3-.69 2.3-2.47 3.04-3.77l.14-.24c.11-.2.16-.3.18-.37l-.18.01c-.15.02-.34.03-.56.02a7.05 7.05 0 0 1-2.53-.85c-.31-.15-.6-.3-.89-.41l-.19-.08c-.67-.27-1.04-.43-1.79-.28-.67.14-1.34.35-1.97.56l-3.18 5.78Zm3.82 1.38Z"/><path class="y" d="M226 42.64a.18.18 0 0 1-.13-.23.2.2 0 0 1 .24-.15c.05.01 2.2.5 3.5.35l.26-.02c1.3-.15 2.93-.33 4.7-2.07.08-.08.2-.08.27 0 .07.07.06.2-.01.27a7.37 7.37 0 0 1-4.95 2.18l-.24.03c-1.36.16-3.48-.32-3.63-.36Z"/><path class="t" d="M204.01 22.51s-.7-1.06-1.22-2.05c-.52-.99-1.16-2.38-2.25-2.8a6.93 6.93 0 0 0-3.83-.55c-1.76.2-2.14.34-2.85.15l-2.2-.63s.44.94.16 1.72-2.1 3.32-2.31 4.04c-.21.72-.87 2.93-.19 4.04.68 1.1 2.66 5.76 3.4 6.21.74.45 10.05 5.38 11.45 5.46 1.4.07 4.05-.53 4.05-.53s-.12-6.94-.1-7.58c.01-.65-1.74-4.91-2.19-5.39l-1.92-2.09Z"/><path class="y" d="M203.9 38.25c-2.07-.48-10.64-5.05-11.29-5.44-.5-.3-1.31-1.94-2.41-4.21-.44-.91-.82-1.7-1.05-2.06-.7-1.15-.08-3.32.16-4.14l.01-.05c.12-.4.65-1.24 1.2-2.13.5-.77 1-1.56 1.12-1.92.25-.7-.15-1.57-.15-1.58a.2.2 0 0 1 .03-.22.2.2 0 0 1 .21-.06c.02 0 1.48.44 2.19.63.52.14.83.1 1.77-.03l1-.13a7.1 7.1 0 0 1 3.93.56c1.07.42 1.7 1.66 2.22 2.65l.12.24a25 25 0 0 0 1.2 2.03l1.92 2.07c.43.47 2.25 4.79 2.23 5.52-.01.63.1 7.5.1 7.58 0 .1-.06.18-.16.2-.1.03-2.68.6-4.1.53-.07 0-.15-.02-.25-.04Zm-11.92-21.32c.1.37.2.95.03 1.48-.14.4-.64 1.18-1.16 2.01-.5.78-1.06 1.67-1.16 2.01l-.01.05c-.2.7-.81 2.83-.2 3.84.24.38.62 1.17 1.07 2.09.77 1.6 1.83 3.8 2.27 4.06.92.55 10.06 5.36 11.38 5.43 1.16.07 3.23-.36 3.82-.48l-.1-7.43c.02-.56-1.7-4.79-2.13-5.25l-1.92-2.09-.02-.02c0-.01-.72-1.08-1.24-2.07l-.12-.24c-.48-.94-1.09-2.12-2.03-2.49a6.78 6.78 0 0 0-3.74-.53l-1 .13c-.94.13-1.33.18-1.92.02-.5-.13-1.33-.38-1.82-.52Z"/><path class="t" d="M195.14 30.98s1.46 1.16 1.51 1.26-.18 1.12.94 1.89c1.13.77 2.06 2.16 2.9 2.46.83.3 3.32.6 3.86.72l1.43.33 1.11.92s.48 1.89-.09 2.8c-.56.92-7.02 3.29-7.37 3.46-.35.17-2.77.85-3.15 1.1-.37.26-1.39.92-1.6 1.72-.2.8-.21 2.02-.78 2.2a15 15 0 0 1-3.74.28c-.68-.13-1.26.16-2.15-.19s-2.47-.97-3.25-1.52a16.15 16.15 0 0 1-3.72-4.29c-.92-1.7-1.68-3.75-1.4-4.76.3-1 1.37-3.22 2.24-4.06.88-.84 1.8-2.04 4.2-2.81 2.39-.77 7-4.04 7.11-4.22s1.48 2.43 1.95 2.71Z"/><path class="y" d="M188.32 50.24a18.88 18.88 0 0 1-3.67-1.66c-.8-.57-2.85-2.6-3.79-4.36-.42-.8-1.8-3.53-1.4-4.9.31-1.08 1.41-3.3 2.3-4.16l.36-.36c.8-.81 1.8-1.82 3.9-2.5 2.3-.74 6.74-3.84 7.02-4.14.04-.05.1-.09.17-.09.17-.01.25.1.89 1.12.37.6.93 1.5 1.15 1.62l.02.02a11.1 11.1 0 0 1 1.55 1.3c.03.07.03.13.03.23 0 .3.01 1.02.86 1.6.52.36.99.84 1.44 1.3.51.5 1 1 1.41 1.15.54.2 1.84.4 2.78.53l1.07.18 1.42.33c.03 0 .05.02.07.04l1.12.91c.03.03.05.06.06.1.02.08.49 1.98-.12 2.96-.44.71-3.65 2.04-6.74 3.25l-.71.28c-.15.08-.55.2-1.2.41-.73.23-1.73.55-1.93.68l-.02.02c-.36.24-1.3.87-1.48 1.58-.06.2-.1.42-.13.66-.13.74-.26 1.51-.8 1.68-.6.18-3.13.43-3.84.3-.25-.05-.48-.04-.73-.03-.32.02-.66.04-1.06-.05Zm4.87-21.72c-.88.73-4.92 3.46-7.07 4.15-2.01.65-2.97 1.62-3.74 2.4l-.37.37c-.82.8-1.89 2.95-2.18 3.96-.23.81.31 2.62 1.38 4.62a16.08 16.08 0 0 0 3.67 4.23 18.7 18.7 0 0 0 3.2 1.5c.51.2.91.18 1.3.15.26-.01.53-.03.82.03.66.13 3.1-.11 3.65-.28.3-.1.42-.76.52-1.35l.13-.7c.22-.86 1.23-1.53 1.66-1.82l.02-.02c.23-.15 1-.4 2.04-.73.5-.16 1-.32 1.14-.39l.74-.3c1.52-.59 6.12-2.39 6.54-3.07.41-.67.2-2.05.08-2.6l-1.04-.85-1.38-.32c-.17-.04-.58-.1-1.04-.17-.96-.15-2.27-.34-2.85-.55-.5-.18-1-.7-1.54-1.24-.44-.45-.9-.91-1.4-1.25-1-.69-1-1.57-1-1.9v-.05c-.16-.16-.92-.77-1.45-1.2a7.4 7.4 0 0 1-1.25-1.73c-.2-.32-.45-.71-.58-.89Zm-.15-.35-.01.01Z"/><path class="t" d="M206.46 46s.5 1.25.64 1.74c.13.48.76 2.21.67 2.53-.09.32-.8 2.22-1 2.85s-1.27 2.78-1.52 3.18c-.25.4-1.84 1.72-2.23 2.02-.4.3-2.15 1.74-4.06 1.77-1.9.04-2.73.13-3.4-.99-.67-1.12-1.62-2.61-1.27-4.5.36-1.9.25-3.37.16-4.21s-.35-2.8.44-3.46 1.34-1.1 2.6-1.49a11.91 11.91 0 0 0 3.1-1.5c.53-.4 5.87 2.07 5.87 2.07Z"/><path class="y" d="M196.7 60.2c-.55-.12-.95-.4-1.3-1l-.07-.1c-.67-1.1-1.58-2.62-1.23-4.53a14 14 0 0 0 .16-4.15l-.01-.15c-.11-.97-.31-2.79.53-3.49a6.53 6.53 0 0 1 2.67-1.52c1.21-.37 2.5-1.1 3.04-1.48.53-.4 4.03 1.11 6.06 2.05.04.02.08.05.1.1a27.98 27.98 0 0 1 .8 2.3c.4 1.2.58 1.83.5 2.08-.04.18-.26.77-.49 1.4l-.51 1.46c-.21.64-1.28 2.8-1.54 3.22-.3.47-2.05 1.9-2.28 2.08l-.04.03c-1.47 1.16-2.86 1.76-4.13 1.79h-.34c-.81.02-1.43.03-1.93-.08Zm4.46-16.07c-.23-.05-.4-.07-.47-.04-.55.4-1.9 1.16-3.15 1.54-1.25.38-1.76.8-2.53 1.45-.66.55-.47 2.29-.38 3.13l.01.15c.1.92.2 2.37-.16 4.26-.32 1.76.51 3.15 1.18 4.26l.07.11c.57.96 1.26.95 2.9.91h.34c1.19-.03 2.5-.6 3.9-1.7l.04-.03c.46-.36 1.96-1.63 2.18-1.97.25-.4 1.3-2.53 1.5-3.13.1-.3.3-.9.51-1.47l.49-1.37a9.9 9.9 0 0 0-.5-1.86l-.18-.57c-.11-.4-.5-1.38-.6-1.65-2-.91-4.18-1.79-5.15-2.02Z"/><path class="t" d="M219.53 12.6s.25.33.3.62.19.64.3.64.7-.16.94-.13c.23.03.86.05 1.3.18.45.13 1.72.52 2.2 1.01.5.49 1.24 1.7 1.3 2 .06.28.25 1.57.37 2.27s.29 1.93.48 2.37c.18.44.53 1.35.6 1.61.07.27-.18 1.23-.29 1.35-.1.12-1.19.35-1.45.4s-1.78.66-2.23.8c-.46.15-2.23.53-2.68.48s-1.77-.07-2.14-.03c-.38.04-2.17.56-2.4.74-.21.17-.7.78-.52 1.32.19.54.63 2.28.57 2.67-.06.38-.23 1.56-.33 1.76-.11.2-.99 1.9-1.7 2.51-.7.61-2.69 1.56-3.09 1.77-.4.2-1.53.54-1.9.48-.37-.06-.71-.14-.77-.26-.07-.11.04-7.35-.71-8.94-.75-1.6-1.56-2.9-1.65-3.27s-.6-2.25-.32-2.79c.27-.53 1.87-3.22 2.71-4.06.85-.85 1.93-2.07 2.83-2.5s2.63-1.43 3.28-1.68c.65-.24 1.97-.88 2.54-.92.57-.04 2.12-.2 2.46-.4Z"/><path class="y" d="M208.75 37.54c-.31-.08-.47-.16-.53-.27-.04-.07-.04-.07-.06-1.12-.02-1.98-.09-6.64-.66-7.84-.36-.78-.75-1.49-1.05-2.06a7.91 7.91 0 0 1-.61-1.25l-.03-.11c-.38-1.56-.47-2.42-.27-2.8.28-.54 1.88-3.26 2.75-4.13l.5-.5c.75-.78 1.62-1.67 2.38-2.04.35-.17.82-.42 1.32-.69.78-.4 1.58-.83 1.98-.99l.67-.27c.7-.3 1.49-.63 1.93-.67.8-.06 2.11-.22 2.38-.37a.19.19 0 0 1 .24.05c0 .01.27.36.34.69.05.26.12.43.16.5l.2-.05a2.57 2.57 0 0 1 .95-.06 6.3 6.3 0 0 1 3.38 1.22 7.42 7.42 0 0 1 1.34 2.08l.22 1.33c.05.35.1.7.15.95l.05.32c.1.66.26 1.66.41 2.02.2.44.54 1.35.62 1.63.08.31-.17 1.34-.34 1.53-.1.12-.4.22-1.34.43l-.21.05c-.13.03-.67.23-1.14.4l-1.09.4c-.45.14-2.26.53-2.75.47-.43-.05-1.75-.06-2.1-.03-.4.04-2.1.56-2.3.7-.16.13-.6.65-.44 1.1.14.43.65 2.29.57 2.75l-.03.23a8.45 8.45 0 0 1-.33 1.6l-.02.04c-.46.88-1.13 2.04-1.71 2.54a18.32 18.32 0 0 1-3.14 1.8c-.4.2-1.59.56-2.02.49a5.81 5.81 0 0 1-.37-.07Zm-.18-.47c.04.02.19.08.63.15a5.06 5.06 0 0 0 2.04-.58c.66-.33 2.21-1.1 2.8-1.61.41-.36.99-1.21 1.62-2.42l.02-.04c.07-.14.22-1.1.28-1.47l.03-.22c.05-.31-.36-1.99-.56-2.58-.22-.63.32-1.33.6-1.54.27-.22 2.13-.75 2.49-.78.38-.04 1.73-.03 2.19.02.4.05 2.13-.31 2.59-.46.2-.06.65-.23 1.07-.38a19.36 19.36 0 0 1 1.4-.47c.24-.06.97-.22 1.13-.3.08-.16.28-.98.23-1.16a19.8 19.8 0 0 0-.6-1.58c-.16-.4-.32-1.39-.43-2.1l-.05-.32a114.1 114.1 0 0 1-.37-2.26 7.41 7.41 0 0 0-1.24-1.9 6.4 6.4 0 0 0-2.13-.97c-.32-.1-.74-.13-1.03-.15l-.24-.03c-.12-.01-.4.05-.59.08-.17.04-.27.06-.33.06-.08 0-.3-.01-.47-.79a1.55 1.55 0 0 0-.2-.43c-.66.22-2.36.35-2.38.35-.37.03-1.17.37-1.8.63l-.68.28c-.39.15-1.17.57-1.94.98-.5.26-.97.52-1.33.69-.7.34-1.53 1.2-2.27 1.96l-.5.5c-.8.8-2.37 3.42-2.67 4.01-.1.2-.12.8.3 2.53l.03.12c.04.16.3.63.58 1.16.3.57.7 1.29 1.06 2.07.6 1.27.67 5.82.7 8l.02.95Z"/><path class="t" d="M205.27 25.14s.42-.62.45-1.23c.03-.62-.24-1.38-.89-1.73a24.5 24.5 0 0 0-3.2-1.34c-.92-.3-2.35-.9-2.8-1.15s-1.35-.64-1.9-.74-1.25.13-1.5.34-.31.83-.62.9c-.32.08-.76-.3-1.25-.14s-.71.73-.68 1.11c.04.38.53 1.87.6 2.25.05.4-.14 4.1-.2 4.31s-.09.55-.09.55.54 1.67 1.17 2.12c.62.44 2.27 2.02 2.76 2.18.48.16 1.66.19 2.43.22s1.6-.27 2.17.26c.58.53 2.14 3.18 2.46 3.4.33.23 1.28 1.05 1.52 1.06.24 0 .91-.84.91-.84l.08-1.1s-1.3-1.9-1.52-2.3-.53-1.28-.99-1.96c-.46-.68-.95-2.34-.46-3.37.49-1.03 1.55-2.8 1.55-2.8Z"/><path class="y" d="M205.61 37.7c-.2-.06-.53-.3-1.15-.78-.16-.13-.3-.24-.4-.3-.16-.12-.5-.62-1.08-1.5-.52-.78-1.1-1.66-1.4-1.93-.34-.32-.81-.28-1.36-.24-.23.02-.46.04-.7.03h-.23c-.8-.03-1.78-.07-2.24-.22-.32-.1-.94-.64-1.8-1.38-.4-.34-.78-.67-1.01-.83-.66-.48-1.2-2.13-1.23-2.2a51.64 51.64 0 0 0 .27-4.89c-.02-.17-.14-.59-.26-1-.16-.53-.3-1.04-.33-1.27-.04-.49.26-1.13.82-1.32.34-.11.65-.01.9.06.14.05.28.1.36.07.08-.01.16-.2.23-.35.08-.19.16-.38.3-.5.33-.27 1.1-.5 1.68-.4.6.12 1.52.53 1.94.77.44.24 1.85.84 2.79 1.13.91.3 2.54.99 3.22 1.36.73.39 1.02 1.23.98 1.9a3.05 3.05 0 0 1-.48 1.33c-.06.1-1.07 1.8-1.54 2.78-.43.9-.02 2.48.45 3.17.3.45.54.99.73 1.42.1.23.19.43.27.56.21.4 1.5 2.27 1.5 2.28.03.04.04.08.04.12l-.07 1.1c0 .05-.02.09-.05.12-.34.42-.8.92-1.08.91h-.07Zm-4.36-5.12c.22.05.42.15.6.32.33.3.9 1.16 1.45 1.99.39.58.88 1.32 1 1.4l.4.31c.28.22.85.66 1.01.7.11-.04.43-.35.72-.7l.06-.96a65.27 65.27 0 0 1-1.5-2.26 7.48 7.48 0 0 1-.27-.6c-.18-.41-.41-.93-.7-1.36-.52-.76-.99-2.47-.47-3.55a43.28 43.28 0 0 1 1.56-2.82c0-.01.39-.6.42-1.14.03-.55-.2-1.24-.8-1.55a24.15 24.15 0 0 0-3.16-1.33c-.91-.29-2.35-.9-2.85-1.17a7.74 7.74 0 0 0-1.84-.72 1.98 1.98 0 0 0-1.34.3c-.07.06-.13.2-.2.35-.1.24-.22.53-.5.6-.19.04-.37-.02-.57-.08-.22-.07-.44-.14-.66-.07-.39.13-.56.61-.54.9.02.18.18.72.32 1.2.12.43.24.84.27 1.03.07.44-.13 4.17-.2 4.4-.04.14-.06.38-.07.47.16.47.62 1.66 1.08 1.98.24.18.63.5 1.04.86.63.54 1.4 1.21 1.68 1.3.41.14 1.4.18 2.13.2l.25.01c.2.01.43 0 .64-.02a3.4 3.4 0 0 1 1.04.01ZM213.22 58a7.12 7.12 0 0 1-1.95-.67 6.34 6.34 0 0 1-1.51-1.72c-.23-.33-.45-.65-.65-.87a4.97 4.97 0 0 1-1.27-2.53 77.4 77.4 0 0 0-.72-3.35.2.2 0 0 1 .15-.24c.1-.03.2.03.23.13l.05.23c.18.73.6 2.11 1.11 2.5.75.57 1.4.84 2.4 1 .5.07 1.04.05 1.56.04.59-.02 1.14-.04 1.61.07.24.06.47.1.7.13.64.1 1.36.23 2.63.73.98.4 1.46.68 1.88.93.32.2.6.37 1.06.55.28.1.6.25.94.4.96.4 2.04.85 2.59.9.74.07 2.08-.2 2.1-.2.1-.02.19.04.2.14a.2.2 0 0 1-.13.24c-.18.05-4.3 1.36-4.88 1.42l-.72.1c-1.5.23-4.3.64-5.09.5l-.17-.02c-.52-.1-1.34-.23-2.12-.41Zm-5.13-6.57.13.7c.14.83.53 1.6 1.18 2.34.22.24.44.56.68.9.42.6.9 1.3 1.41 1.62.76.49 2.99.87 3.94 1.04l.17.02c.72.13 3.59-.3 4.97-.5.36-.05.62-.1.74-.1.28-.04 1.62-.43 2.88-.82l-.22-.01c-.6-.05-1.71-.52-2.7-.94l-.93-.39c-.49-.19-.8-.37-1.12-.57-.4-.25-.87-.53-1.82-.9-1.23-.5-1.93-.6-2.55-.71-.25-.04-.48-.08-.73-.14-.43-.1-.95-.08-1.5-.06-.55.01-1.1.03-1.64-.05a5.08 5.08 0 0 1-2.56-1.07 1.6 1.6 0 0 1-.33-.36Z"/><g><path class="t" d="M226.15 56.22s-4.27 1.35-4.83 1.42c-.57.06-4.82.77-5.76.6-.95-.16-3.34-.54-4.18-1.08-.83-.53-1.52-1.88-2.12-2.56a4.81 4.81 0 0 1-1.23-2.43 86.3 86.3 0 0 0-.72-3.37s.48 2.27 1.23 2.84c.74.56 1.4.86 2.48 1.03s2.28-.1 3.16.11c.88.2 1.57.17 3.3.86 1.73.68 1.87 1.05 2.94 1.47s2.8 1.25 3.58 1.32c.78.06 2.15-.21 2.15-.21Z"/><path class="y" d="M213.22 58a7.12 7.12 0 0 1-1.95-.67 6.34 6.34 0 0 1-1.51-1.72c-.23-.33-.45-.65-.65-.87a4.97 4.97 0 0 1-1.27-2.53 77.4 77.4 0 0 0-.72-3.35.2.2 0 0 1 .15-.24c.1-.03.2.03.23.13l.05.23c.18.73.6 2.11 1.11 2.5.75.57 1.4.84 2.4 1 .5.07 1.04.05 1.56.04.59-.02 1.14-.04 1.61.07.24.06.47.1.7.13.64.1 1.36.23 2.63.73.98.4 1.46.68 1.88.93.32.2.6.37 1.06.55.28.1.6.25.94.4.96.4 2.04.85 2.59.9.74.07 2.08-.2 2.1-.2.1-.02.19.04.2.14a.2.2 0 0 1-.13.24c-.18.05-4.3 1.36-4.88 1.42l-.72.1c-1.5.23-4.3.64-5.09.5l-.17-.02c-.52-.1-1.34-.23-2.12-.41Zm-5.13-6.57.13.7c.14.83.53 1.6 1.18 2.34.22.24.44.56.68.9.42.6.9 1.3 1.41 1.62.76.49 2.99.87 3.94 1.04l.17.02c.72.13 3.59-.3 4.97-.5.36-.05.62-.1.74-.1.28-.04 1.62-.43 2.88-.82l-.22-.01c-.6-.05-1.71-.52-2.7-.94l-.93-.39c-.49-.19-.8-.37-1.12-.57-.4-.25-.87-.53-1.82-.9-1.23-.5-1.93-.6-2.55-.71-.25-.04-.48-.08-.73-.14-.43-.1-.95-.08-1.5-.06-.55.01-1.1.03-1.64-.05a5.08 5.08 0 0 1-2.56-1.07 1.6 1.6 0 0 1-.33-.36Z"/></g><g><path class="t" d="M224.53 36.53s1.32.45 1.64 1.46c.32 1 .87 3.96 1.89 5.22 1.02 1.25 2.16 3.13 3 3.95.83.81 1.5 1.65 1.55 2.14s-.51 2.68-.68 3.18c-.17.5-.9 1.31-2.72 2.28s-3.51 1.7-4.04 1.71-2.63-.24-3.75-.73-3.1-1.88-3.94-2.1c-.84-.23-1.96-.66-2.97-.76-1.02-.1-3.5-.08-4.14-.17-.63-.09-2.3-1.07-2.62-2.08s-.62-2.72-.86-3.42c-.24-.7-.86-1.7-.86-1.7l1.64-5.16s.63-1.44 1.44-1.39c.81.05 1.24-.1 2.36.24 1.1.34 2.7 1.28 3.47 1.51.76.24 1.6.49 2.47.21s2.27-1.4 2.59-1.74 1.2-1.48 1.62-1.72c.42-.24 1.73-1.15 2.9-.93Z"/><path class="y" d="M222.6 56.32c-.46-.11-.9-.25-1.27-.4-.51-.22-1.2-.63-1.85-1.02-.8-.47-1.61-.96-2.06-1.08-.24-.06-.5-.14-.78-.23-.68-.2-1.45-.44-2.16-.51-.5-.05-1.34-.07-2.16-.09-.85-.02-1.65-.04-1.98-.08-.73-.1-2.43-1.13-2.77-2.2-.17-.53-.33-1.23-.48-1.9-.14-.62-.27-1.2-.38-1.53-.23-.68-.84-1.65-.85-1.66a.2.2 0 0 1-.02-.16l1.65-5.16v-.02c.03-.06.7-1.57 1.65-1.51a8 8 0 0 0 .62 0c.5 0 .96-.01 1.77.24.62.2 1.4.57 2.07.9.55.26 1.07.52 1.4.62.72.22 1.53.47 2.36.2a8.5 8.5 0 0 0 2.5-1.68l.33-.38a7.17 7.17 0 0 1 1.34-1.37l.18-.11c.57-.34 1.75-1.06 2.86-.85h.03c.05.03 1.42.5 1.76 1.58l.25.94c.34 1.3.84 3.28 1.6 4.22.43.52.87 1.15 1.3 1.77.62.87 1.2 1.7 1.68 2.16.58.56 1.55 1.6 1.62 2.26.05.56-.55 2.8-.7 3.26-.14.41-.7 1.27-2.82 2.4-1.49.79-3.46 1.71-4.13 1.74-.4.01-1.52-.11-2.55-.35Zm-7.15-3.47c.46.1.9.24 1.32.37l.77.23c.5.13 1.3.6 2.15 1.1.65.4 1.32.8 1.81 1.01 1.09.47 3.14.74 3.68.72.47-.02 2.13-.73 3.95-1.7 2.13-1.12 2.54-1.93 2.61-2.16.18-.5.73-2.65.68-3.09-.04-.39-.6-1.15-1.5-2.03-.5-.49-1.1-1.33-1.72-2.21-.43-.61-.87-1.24-1.3-1.75-.8-1-1.32-3.02-1.66-4.36l-.25-.92c-.27-.86-1.4-1.3-1.52-1.34-.97-.17-2.05.48-2.57.8l-.2.11a8 8 0 0 0-1.23 1.28l-.33.4a9 9 0 0 1-2.68 1.8c-.95.3-1.82.03-2.59-.2-.36-.12-.86-.36-1.45-.65-.67-.32-1.43-.7-2.02-.87-.76-.24-1.18-.23-1.66-.23h-.65c-.54-.04-1.08.88-1.24 1.25l-1.61 5.06c.15.25.63 1.05.83 1.66.12.36.25.94.4 1.56.15.67.3 1.36.47 1.87.29.94 1.92 1.88 2.47 1.96.31.05 1.1.06 1.94.08.83.02 1.68.04 2.19.1.3.02.6.08.91.15Z"/></g><g><path d="M205.47 33.67c.1-.51.35-.52.4-1s-.04-.9-.04-.9l.05-.31-.37-.45s.36.02.56.01c.2 0 .12-.8.15-.86.04-.06.98-.03.98-.03s-.54-.73-.52-.8c.02-.05 1.14.15 1.24.12.1-.03.16-.94.24-.99.08-.05.6.74.6.74l.3-.95s.4.62.56.69c.16.06.67-.13.72-.12.05.01-.12.55-.08.61.03.07.36.24.35.27 0 .04-.63.7-.62.75.02.04.91.2.94.28.03.08-.08.28-.08.28l-.14.27-.15.03.29.17-.4.33s.52.29.57.34-.9.62-.8.72c.08.1.55.35.6.55.07.2 0 .72 0 .72s-.54-.66-.62-.63c-.08.04 0 1.62 0 1.62l.07.52s-1.58.36-1.63.5c-.05.13-.33.81-.34.9 0 .07.38.87.36 1.15-.01.28-.15.49-.15.49s-1.46-.14-1.84-.1c-.37.03-1.1.17-1.1.17s-.27-.48.17-1.13c.45-.65.24-2.08 0-2.61-.23-.53-.37-.85-.27-1.35Z" fill="#daa900"/><path class="y" d="M205.52 38.95a.18.18 0 0 1-.11-.09c-.01-.02-.34-.6.18-1.34.38-.54.21-1.9-.02-2.41-.24-.55-.4-.9-.3-1.47.06-.29.17-.45.25-.57.08-.12.14-.2.16-.4a3.45 3.45 0 0 0-.04-.92l.03-.22-.31-.39a.2.2 0 0 1-.02-.21.2.2 0 0 1 .2-.11h.45c.03-.11.03-.36.03-.46 0-.16 0-.22.03-.28.06-.1.09-.16.76-.16-.35-.49-.34-.54-.31-.63.06-.2.2-.18.9-.09l.4.05.06-.36c.07-.38.09-.52.2-.6.14-.08.24-.1.64.47l.17-.55c.02-.08.09-.13.16-.15s.15.02.19.08c.19.3.4.58.48.61.07.02.34-.05.44-.08.14-.04.2-.05.26-.04.2.05.15.24.1.52l-.05.19.1.07c.18.1.3.18.25.34-.02.06-.04.08-.27.34l-.22.25.12.03c.53.13.63.16.68.28.05.13-.02.31-.1.44l-.1.2.04.01c.05.03.09.09.1.15a.2.2 0 0 1-.08.17l-.18.15c.32.18.36.22.37.24.04.04.06.1.05.16-.01.12-.1.18-.4.4l-.33.26.03.02c.25.17.45.32.5.5.07.23.01.71 0 .8a.21.21 0 0 1-.14.17.18.18 0 0 1-.2-.05l-.3-.35c0 .3 0 .77.03 1.18l.06.52a.2.2 0 0 1-.16.22c-.6.14-1.32.33-1.5.42l-.04.08-.26.7.09.23c.16.4.27.73.26.93-.01.32-.17.56-.18.59a.2.2 0 0 1-.2.1c-.4-.05-1.5-.14-1.8-.11-.35.03-1.06.17-1.07.17h-.08Zm.5-7.2c.02.12.08.51.04.93-.03.3-.13.45-.22.6-.08.1-.15.2-.18.41-.09.44.03.72.26 1.23.26.58.48 2.09-.02 2.81-.25.36-.23.65-.2.8.24-.04.69-.12.97-.14.32-.03 1.36.06 1.73.1a.85.85 0 0 0 .07-.29c0-.13-.15-.54-.24-.76-.1-.27-.13-.33-.12-.4 0-.07.05-.2.3-.82l.05-.14c.04-.1.09-.23 1.6-.58l-.04-.34c-.1-1.73-.04-1.75.1-1.82.1-.05.18-.09.54.3 0-.06 0-.12-.02-.16-.02-.07-.26-.23-.36-.3a1.24 1.24 0 0 1-.21-.17.21.21 0 0 1-.05-.18c.02-.15.17-.27.58-.57l.1-.08-.35-.2a.18.18 0 0 1-.1-.14.2.2 0 0 1 .08-.17l.18-.15-.06-.03a.18.18 0 0 1-.08-.2.21.21 0 0 1 .16-.17h.06l.1-.2a.96.96 0 0 0 .03-.07l-.4-.1c-.41-.1-.47-.12-.51-.23-.04-.14.01-.2.44-.68l.09-.1c-.14-.09-.21-.14-.25-.2-.05-.1-.03-.2.03-.45v-.02c-.24.06-.45.1-.58.05a1.38 1.38 0 0 1-.42-.43l-.18.56a.21.21 0 0 1-.16.15.18.18 0 0 1-.19-.08l-.33-.48-.02.1c-.07.44-.1.64-.28.7-.07.02-.16.01-.64-.05l-.29-.04.33.46c.04.06.04.14 0 .2s-.1.12-.18.11h-.77v.02c0 .36-.02.64-.15.79a.28.28 0 0 1-.2.09h-.12l.09.1c.03.05.05.1.04.16l-.05.28Zm2.8 4.45Z"/></g><path class="y" d="M209.1 37.6a.18.18 0 0 1-.11-.09.2.2 0 0 1 .02-.21l1.71-2.12c.15-.18 1.58-1.82 1.84-2.04.27-.23 1.26-.7 1.9-.81.69-.12 1.37.27 1.4.3.08.04.1.15.06.24-.26.5-1.24 2.09-1.64 2.45-.4.36-2.82 1.63-3.33 1.88a7.02 7.02 0 0 1-1.85.4Zm5.97-4.86a1.4 1.4 0 0 0-.56-.03c-.6.1-1.5.55-1.72.73a44.36 44.36 0 0 0-3.18 3.72c.37-.06.89-.16 1.2-.3.61-.3 2.89-1.53 3.22-1.83.3-.27 1.1-1.51 1.46-2.15-.1-.05-.25-.1-.42-.14Z"/><g><path class="y" d="M207.98 30.2a.1.1 0 0 1-.06-.04.11.11 0 0 1 .05-.15l.02-.02h.01l.02-.02.01-.02a.53.53 0 0 1 .03-.02l.02-.02a1.32 1.32 0 0 1 .15-.1l.04-.01.04-.03.08-.06a2.93 2.93 0 0 0 .37-.3.1.1 0 0 1 .14.01c.04.05.02.12-.02.15l-.07.06a2.47 2.47 0 0 1-.45.35l-.07.04-.02.01-.03.02-.04.03-.01.01h-.01a.36.36 0 0 1-.03.04l-.01.01a.11.11 0 0 1-.05.04l-.03.01a.1.1 0 0 1-.08.01Z"/><path class="y" d="M208.29 30.36c-.01 0-.03 0-.04-.02a1.76 1.76 0 0 1-.17-.07.9.9 0 0 1-.09-.09c-.05-.02-.07-.09-.04-.14.03-.05.1-.08.14-.05.02 0 .05.02.07.05l.03.03.03.03.04.02.07.02.02.01h.01l.12.02c.06 0 .1.06.08.12a.11.11 0 0 1-.13.09 1.8 1.8 0 0 0-.09-.02h-.05ZM209.04 30.46a.1.1 0 0 1-.03-.01.39.39 0 0 0-.03-.02.18.18 0 0 1-.06-.04.53.53 0 0 1-.03-.03.1.1 0 0 1-.02-.06v-.04l.1-.04h-.1v-.09a1.2 1.2 0 0 1 .06-.29l.02-.08.01-.07c0-.06.06-.1.12-.1.05 0 .1.05.09.11l-.02.08-.02.1a2.53 2.53 0 0 0-.05.32v.04l.05.03c.04.03.06.1.02.14a.11.11 0 0 1-.11.05Z"/><path class="y" d="M209 30.5h-.03a.1.1 0 0 1-.03-.14l.02-.04.1-.13.15-.2.07-.09.11-.14.05-.06.05-.05.13-.17c.04-.05.1-.06.15-.02.05.03.05.1.01.14l-.14.18-.04.05a1.5 1.5 0 0 0-.05.06l-.06.07-.03.05-.03.02c0 .02-.03.04-.05.08l-.16.2-.1.13c-.03.05-.08.07-.12.06ZM208.59 31.78a.1.1 0 0 1-.07-.11l.02-.1.01-.07a2.16 2.16 0 0 0 .06-.33v-.07a7.16 7.16 0 0 0 .01-.4V30.63a.11.11 0 0 1 .08-.13.1.1 0 0 1 .12.07v.02a.1.1 0 0 1 0 .03l.01.03a2.28 2.28 0 0 1 0 .44 3.05 3.05 0 0 1-.07.44l-.02.06-.02.1a.11.11 0 0 1-.12.09h-.01Z"/><path class="y" d="M208.6 31.73a.1.1 0 0 1-.07-.04.11.11 0 0 1 .04-.15l.02-.01.02-.01h.03a.4.4 0 0 0 .04-.03l.11-.04a1.56 1.56 0 0 0 .1-.05l.03-.02a1.9 1.9 0 0 0 .19-.21l.07-.13.06-.12c.02-.06.09-.08.14-.06.05.03.07.09.04.14l-.06.13a1.46 1.46 0 0 1-.14.24 1.92 1.92 0 0 1-.23.21.64.64 0 0 1-.12.06l-.11.05a.4.4 0 0 1-.08.03.1.1 0 0 1-.09.01ZM209.48 31.76a.1.1 0 0 1-.07-.13 17.58 17.58 0 0 1 .13-.41 10.66 10.66 0 0 0 .16-.65c.02-.06.08-.09.13-.07a.1.1 0 0 1 .06.13l-.03.16a5.91 5.91 0 0 1-.25.9.11.11 0 0 1-.13.07Z"/><path class="y" d="M209.5 31.72a.1.1 0 0 1-.05-.02c-.04-.04-.04-.1 0-.15a.42.42 0 0 1 .04-.04l.2-.18.03-.02.02-.03.08-.1.16-.2a.1.1 0 0 1 .15-.02c.05.04.05.1.01.15l-.15.2-.07.08-.03.03a.95.95 0 0 1-.06.07l-.2.18-.03.01a.11.11 0 0 1-.1.04ZM206.98 31.2a.1.1 0 0 1-.06-.04.11.11 0 0 1 .03-.15l.1-.07a7.9 7.9 0 0 0 .24-.18l.09-.08.1-.08a.6.6 0 0 1 .09-.08l.05-.03a.1.1 0 0 1 .14.04c.02.06 0 .12-.05.15l-.05.02-.05.05-.1.08a4.07 4.07 0 0 1-.34.28l-.1.07a.1.1 0 0 1-.09.02Z"/><path class="y" d="m207.22 31.35-.04-.01a1.2 1.2 0 0 1-.08-.03l-.08-.03a.28.28 0 0 0-.05-.02c-.06 0-.1-.06-.09-.11.01-.06.07-.1.13-.1l.09.03.09.03.06.02.04.01h.12a.53.53 0 0 0 .13 0l.04-.02.06-.02a.26.26 0 0 1 .05-.02.1.1 0 0 1 .14.05c.02.05 0 .11-.06.14a.24.24 0 0 1-.06.02.65.65 0 0 1-.31.07h-.07a.6.6 0 0 1-.1-.01ZM207.81 32.23h-.03c-.04-.02-.08-.07-.07-.11l.02-.13a2.95 2.95 0 0 1 .09-.28c0-.02 0-.05.02-.09a5.44 5.44 0 0 0 .08-.25c.03-.05.1-.07.15-.04a.1.1 0 0 1 .04.13v.02a2.6 2.6 0 0 0-.07.2l-.02.07a6.44 6.44 0 0 1-.07.22l.02-.01.03-.03.09.05-.08-.07.02-.02.03-.04.04-.05.04-.06a2.3 2.3 0 0 1 .07-.1c.04-.05.11-.05.15-.02.05.04.05.1.01.15l-.02.03-.04.05-.04.07-.04.05-.04.05a.53.53 0 0 1-.06.06l-.03.03a.59.59 0 0 1-.1.08l-.04.02a.28.28 0 0 1-.08.03h-.07ZM209.14 33.12h-.02c-.05-.03-.07-.1-.05-.15a.61.61 0 0 1 .03-.05l.01-.03.01-.01.01-.02.01-.04.02-.07.02-.04v-.04a1.1 1.1 0 0 0-.05-.44 2.43 2.43 0 0 0-.13-.3.11.11 0 0 1 .04-.15c.05-.04.12-.02.14.02l.06.1a1.89 1.89 0 0 1 .16.66 1.19 1.19 0 0 1-.02.18l-.02.06-.02.07v.04a.3.3 0 0 1-.04.08l-.03.03-.01.03a.11.11 0 0 1-.12.07Z"/><path class="y" d="M209.18 33.06a.1.1 0 0 1-.04-.01c-.04-.04-.05-.1-.01-.15v-.01l.08-.1.11-.16.01-.02.07-.12.05-.07v-.02a8.58 8.58 0 0 1 .11-.18l.01-.02.03-.06a.8.8 0 0 0 .02-.07l.02-.05.05-.14c.02-.06.07-.1.13-.07a.1.1 0 0 1 .07.13l-.05.14-.02.05a.98.98 0 0 1-.03.09l-.02.05-.02.04a2.17 2.17 0 0 1-.11.19l-.01.02-.05.08-.07.11-.01.02a2.95 2.95 0 0 1-.21.3.1.1 0 0 1-.11.03ZM207.73 33.38a.16.16 0 0 1-.05-.02.14.14 0 0 1-.05-.08V33.22l-.01-.05a1.9 1.9 0 0 1 0-.21 22.77 22.77 0 0 1 .03-.4v-.03c.01-.06.07-.1.12-.1.06 0 .1.06.1.12l-.01.04-.01.14a21.68 21.68 0 0 0-.02.35v-.01l.02-.03.03-.06a3.9 3.9 0 0 1 .13-.22l.05-.08.05-.07.02-.03.07-.1.07-.1.01-.02.01-.01.02-.02a1.5 1.5 0 0 0 .1-.1c.03-.05.1-.06.14-.02.04.04.04.1 0 .15l-.07.09-.02.02-.03.03a1.5 1.5 0 0 0-.06.09l-.06.09a1.57 1.57 0 0 1-.07.1l-.05.09a4.11 4.11 0 0 0-.24.4.37.37 0 0 1-.1.07c-.04.03-.08.05-.12.04ZM206.76 33.24a.1.1 0 0 1-.07-.07l-.01-.04-.05-.14-.04-.15a1.96 1.96 0 0 0-.03-.11v-.06a1.02 1.02 0 0 1-.03-.3V32.29l.02-.04.03-.1.02-.02.12-.14a.27.27 0 0 1 .04-.03l.03-.02a1.02 1.02 0 0 1 .2-.08l.07-.02h.03l.03-.01c.06 0 .11.04.11.1 0 .06-.04.1-.1.11h-.03l-.06.02a2.06 2.06 0 0 0-.15.06l-.04.03a.96.96 0 0 0-.08.1l-.03.06v.08a.9.9 0 0 0 .02.23l.01.06v.03l.03.08.04.15.03.11.02.05a.11.11 0 0 1-.07.14.1.1 0 0 1-.06 0ZM205.94 36.08a.1.1 0 0 1-.08-.1 7.2 7.2 0 0 0-.07-.63l-.02-.07-.02-.1-.03-.1v-.06l-.02-.08V34.76c0-.07.02-.14.04-.24a1.65 1.65 0 0 1 .13-.36 2.55 2.55 0 0 1 .43-.6l.03-.04.04-.07c.04-.05.1-.06.15-.03.05.04.06.1.02.15a.89.89 0 0 0-.04.06 2.07 2.07 0 0 0-.51.75 1.51 1.51 0 0 0-.08.47v.05l.01.07.01.05.02.1.02.09.02.07a1.28 1.28 0 0 1 .06.28 5.57 5.57 0 0 1 .02.4c0 .06-.04.11-.1.12a.1.1 0 0 1-.03 0Z"/><path class="y" d="M206.51 36.44a.1.1 0 0 1-.06-.06 6.07 6.07 0 0 1-.15-.42l-.02-.05a1.25 1.25 0 0 1-.03-.07 1.03 1.03 0 0 1-.04-.26 9.35 9.35 0 0 1 .02-.27l.01-.04.03-.06.02-.06a2.02 2.02 0 0 0 .16-.68 2.24 2.24 0 0 0-.01-.35 13.5 13.5 0 0 1-.01-.81c0-.06.06-.1.12-.1.05 0 .1.05.09.1a1.65 1.65 0 0 1 0 .17 8.89 8.89 0 0 1 0 .4 12.79 12.79 0 0 0 .01.29v.05a1.43 1.43 0 0 1 .01.25 2.64 2.64 0 0 1-.04.3 2.9 2.9 0 0 1-.13.44l-.03.07-.02.05-.01.04-.01.03V35.55a.95.95 0 0 0 .03.21s0 .03.02.05l.02.06a2.22 2.22 0 0 1 .1.3l.05.12c.02.06 0 .12-.06.14a.1.1 0 0 1-.07.01ZM207.42 36.33l-.01-.07-.01-.06-.02-.06a.82.82 0 0 0-.05-.13l-.02-.04a.66.66 0 0 1-.01-.05l-.02-.05v-.03a3.2 3.2 0 0 0-.1-.22l-.03-.04-.01-.02a1.86 1.86 0 0 1-.05-.12l-.03-.1a4.37 4.37 0 0 1-.09-.32l-.01-.07-.03-.1a5.85 5.85 0 0 0-.19-.56l-.03-.04a.11.11 0 0 1 .03-.15c.05-.04.12-.03.15.02l.03.05a1.6 1.6 0 0 1 .13.32 8.31 8.31 0 0 1 .08.28l.03.11.02.08a7.43 7.43 0 0 0 .08.3l.03.11.04.1.02.03a1 1 0 0 1 .12.25l.01.05.02.04v.03l.03.04a1.34 1.34 0 0 1 .06.21v.02c.02.02.02.04.02.06l.01.06-.1.04-.1.03Z"/><path class="y" d="M207.5 36.36a.1.1 0 0 1-.06-.12 5.07 5.07 0 0 1 .13-.43 3.94 3.94 0 0 0 .1-.79 2 2 0 0 0-.02-.34 4.58 4.58 0 0 0-.05-.31 1.91 1.91 0 0 0-.16-.4l-.07-.1a1.44 1.44 0 0 0-.21-.25 2.56 2.56 0 0 0-.13-.13c-.06-.02-.08-.08-.06-.13a.11.11 0 0 1 .12-.07.1.1 0 0 1 .08.04 2.71 2.71 0 0 1 .38.42l.07.1.04.07a1.56 1.56 0 0 1 .1.24 2.06 2.06 0 0 1 .13.85 3.2 3.2 0 0 1-.12.84l-.08.28-.05.15a.11.11 0 0 1-.13.08Zm-.41-2.96Z"/><path class="y" d="M207.7 36.97h-.02c-.05-.03-.07-.1-.05-.15l.08-.13a.7.7 0 0 0 .02-.05l.14-.33a6.66 6.66 0 0 0 .28-1.01 1.06 1.06 0 0 0-.01-.29 1.39 1.39 0 0 0-.05-.19 3.2 3.2 0 0 0-.16-.36 2.96 2.96 0 0 0-.44-.51 2.87 2.87 0 0 1-.26-.25 3.93 3.93 0 0 0-.23-.21c-.04-.04-.05-.1 0-.15.03-.05.1-.06.14-.02a2.34 2.34 0 0 1 .25.22 18.17 18.17 0 0 0 .45.45 2.73 2.73 0 0 1 .27.35 3.12 3.12 0 0 1 .18.4.94.94 0 0 1 .05.23 2.22 2.22 0 0 1 .02.33 1.89 1.89 0 0 1-.09.45 4.23 4.23 0 0 1-.2.63l-.07.17-.02.04-.06.13a.9.9 0 0 1-.03.06l-.07.13a.11.11 0 0 1-.12.06Z"/><path class="y" d="M207.64 37.04h-.02a.1.1 0 0 1-.04-.15l.03-.04a9.5 9.5 0 0 1 .17-.24l.29-.4a7.55 7.55 0 0 0 .23-.34l.02-.05.04-.08a2.14 2.14 0 0 0 .2-.6 1.32 1.32 0 0 0 0-.27 1.85 1.85 0 0 0-.06-.3l-.03-.07a.91.91 0 0 0-.03-.1l-.03-.06-.01-.03-.04-.09a.11.11 0 0 1 .07-.14.1.1 0 0 1 .13.05l.04.1.03.08.04.1.03.08a1.63 1.63 0 0 1-.02 1.01 2.2 2.2 0 0 1-.13.33l-.02.03-.03.07-.02.03a4.51 4.51 0 0 1-.24.37l-.29.4a7.83 7.83 0 0 0-.18.25.12.12 0 0 1-.13.06Z"/><path class="y" d="M208.35 34.09a.1.1 0 0 1-.03-.01l-.03-.02a.24.24 0 0 1-.08-.1.22.22 0 0 1-.02-.06 1.31 1.31 0 0 1 0-.37.94.94 0 0 0 0-.1c.01-.06.07-.1.13-.1.05 0 .1.06.08.12l-.1-.01.1.01a2.02 2.02 0 0 0-.01.34v.06l.02.02v.01h.04l.05-.01.1-.05.12-.05.03-.01.06-.04c.06-.04.12-.02.15.03.02.05 0 .12-.05.15l-.06.03a3.93 3.93 0 0 1-.37.15.37.37 0 0 1-.13 0ZM209.7 34.23h-.01a.41.41 0 0 1-.06-.03.22.22 0 0 1-.1-.08.76.76 0 0 1-.1-.23 1 1 0 0 1-.03-.2 3.23 3.23 0 0 1-.03-.39l-.02-.14c0-.06.03-.12.09-.13a.1.1 0 0 1 .12.08l.02.16v.14a2.64 2.64 0 0 0 .11.55l.02.03.01.02h.01l.03.01.03-.02a.32.32 0 0 0 .07-.06 1.08 1.08 0 0 0 .14-.3l.04-.1c.02-.05.08-.09.13-.07a.1.1 0 0 1 .07.13l-.03.1a2.6 2.6 0 0 1-.1.23.82.82 0 0 1-.09.14.55.55 0 0 1-.12.1c-.05.05-.08.06-.11.07h-.04a.2.2 0 0 1-.04 0Zm.1-.2Z"/><path class="y" d="M209.49 35.08c-.04-.01-.07-.04-.08-.08a2.41 2.41 0 0 1-.03-.13v-.06l-.01-.03-.02-.04-.01-.04a.47.47 0 0 0-.03-.08.56.56 0 0 0-.2-.22.46.46 0 0 0-.1-.05.37.37 0 0 1-.07-.04c-.05-.03-.06-.1-.03-.14.03-.05.1-.07.15-.04l.03.01a.68.68 0 0 1 .15.07.75.75 0 0 1 .18.2l.04.04.03.05.04.07.01.06.01.04.02.04v.03l.04-.05.08-.12a2.45 2.45 0 0 1 .12-.15l.11-.12.06-.06c.04-.04.1-.05.14 0 .05.03.05.1 0 .14l-.05.06-.09.09v.02c-.02 0-.04.03-.06.06l-.06.07-.07.11a2.34 2.34 0 0 0-.1.15.51.51 0 0 1-.05.07l-.03.03a.15.15 0 0 1-.06.04h-.06Z"/></g><g><path class="t" d="M228.31 24.63s-.6-.35-1.7 0c-1.1.36-3.02 2.15-3.9 2.61-.9.47-1.7 1.5-3.08 1.06a10.68 10.68 0 0 0-4-.32c.26 1.22.43 1.55.44 2.02 0 0 .18 1.3-.04 1.8s-1.23 2.69-1.74 3.2c-.51.5-2.66 1.78-3.23 1.94-.57.16-1.63.5-1.9.48a3.05 3.05 0 0 1-.86-.38l-.02 1.56.71.35s.99-.14 1.44.02c.44.17 2.03.46 3.16 1.07 1.14.6 2.12.96 2.51 1 .4.05 1.87-.18 2.55-.73s2.27-1.93 2.54-2.36c.27-.43.9-1.06 1.62-1.22 0 0 .86-.32 1.29-.29.42.04.82-1.56.82-1.56s.98-2.68 1.32-3.08c.33-.4 1.25-1.24 1.68-1.97.42-.73 1.24-3.33.39-5.2Z"/><path class="y" d="M215.86 41.2c-.48-.11-1.34-.44-2.37-.99-.8-.42-1.83-.7-2.51-.87-.28-.08-.5-.13-.63-.18a3.86 3.86 0 0 0-1.34-.02c-.04 0-.08 0-.1-.02l-.72-.34a.18.18 0 0 1-.1-.17l.02-1.56c0-.07.04-.14.1-.17a.2.2 0 0 1 .2 0c.23.13.62.33.77.34a9.84 9.84 0 0 0 1.84-.47c.52-.15 2.64-1.4 3.14-1.89.45-.45 1.4-2.45 1.7-3.12.16-.37.07-1.36.02-1.7v-.02c0-.25-.06-.46-.15-.81-.07-.28-.17-.65-.28-1.18a.2.2 0 0 1 .16-.24 10.8 10.8 0 0 1 4.1.32c.94.3 1.57-.14 2.24-.6.21-.16.44-.32.67-.44.34-.18.85-.57 1.4-.98.86-.66 1.85-1.41 2.54-1.64 1.17-.37 1.83 0 1.85.01.04.02.06.05.08.08.9 1.99 0 4.68-.4 5.38-.32.53-.85 1.1-1.28 1.54l-.43.46c-.22.27-.9 1.98-1.28 3-.16.67-.51 1.76-1.03 1.72-.31-.03-.98.19-1.2.27h-.03c-.62.15-1.2.7-1.49 1.14-.3.47-1.95 1.9-2.59 2.41-.72.58-2.24.83-2.7.78l-.2-.04Zm-5.49-2.45.13.04.6.17c.7.18 1.75.46 2.6.9 1.1.6 2.06.94 2.44.99.35.04 1.76-.18 2.4-.69.71-.57 2.25-1.91 2.5-2.3.24-.4.88-1.13 1.73-1.32a4.3 4.3 0 0 1 1.36-.3c.14-.03.43-.71.6-1.4v-.02c.11-.28 1.02-2.72 1.36-3.14.1-.13.26-.29.45-.48.4-.41.93-.97 1.21-1.46.44-.75 1.16-3.22.41-4.96-.15-.06-.66-.23-1.5.04-.63.2-1.58.93-2.42 1.57-.59.45-1.1.83-1.46 1.02-.2.11-.41.26-.63.4-.69.49-1.46 1.03-2.58.68-1.2-.38-2.94-.44-3.7-.35l.23.95c.1.37.16.6.17.88.02.18.17 1.38-.06 1.9-.01.04-1.18 2.66-1.79 3.26-.55.55-2.73 1.83-3.32 2l-.32.09c-.78.23-1.4.4-1.65.4a1.98 1.98 0 0 1-.64-.24l-.02 1.1.57.27c.21-.03.89-.1 1.33 0Z"/></g><path class="y" d="M224.04 36.63a.18.18 0 0 1-.13-.23 577.2 577.2 0 0 1 1.33-4.83c.2-.73 1.29-2.83 1.33-2.92l.02-.03a15.4 15.4 0 0 0 1.52-2.53c.13-.52.07-1.16.07-1.16a.2.2 0 0 1 .17-.23c.1-.02.2.05.21.16 0 .03.07.71-.07 1.3-.14.58-1.4 2.4-1.58 2.66-.1.18-1.12 2.17-1.3 2.84-.16.52-.55 1.94-.76 2.7a179.23 179.23 0 0 1-.57 2.12.2.2 0 0 1-.23.15ZM210.02 39.18a.18.18 0 0 1-.13-.18c0-.11.08-.2.19-.2.21-.02.59-.25.93-.46.27-.17.53-.33.75-.4.47-.18 2.73-.87 3.72-1.07 1-.2 2.83.1 3.54.3a7.3 7.3 0 0 1 1.82 1.04c.09.06.1.19.03.27-.07.1-.19.11-.27.05a7.1 7.1 0 0 0-1.7-.99 9.66 9.66 0 0 0-3.37-.3c-.93.2-3.17.88-3.66 1.06-.18.06-.43.22-.68.37-.41.25-.8.5-1.11.51h-.06Z"/><path class="y" d="M213.33 40.2a.18.18 0 0 1-.13-.23.2.2 0 0 1 .24-.15c.9.18 3.4-.04 4.17-.13.5-.07 1.34-.34 1.86-.52a7.26 7.26 0 0 0-2.67-.5c-1.76.04-3.2.39-3.67.5l-1.24.3a.18.18 0 0 1-.22-.15.2.2 0 0 1 .16-.24l1.23-.28c.48-.12 1.96-.48 3.76-.52 1.8-.03 3.22.7 3.27.73.07.03.1.1.1.18 0 .08-.06.14-.13.17s-1.61.61-2.43.71c-.81.1-3.34.32-4.3.13Z"/><g><path class="t" d="M207.85 38.47s.96.3 1.44.69c.48.4 1.08 1.8 1.24 2.18s.21 1.24-.1 1.83c-.3.58-1.39 1.54-2.51 2.21-1.13.68-3.87 1.2-4.28 1.18a6.07 6.07 0 0 1-2.56-1.3c-1.01-.82-2.06-2.25-1.84-3.47.2-1.2 1.84-5.24 1.95-5.64s-.02-1.2-.02-1.2.65 1.23.67 1.56c.02.33 0 1.24-.11 1.66-.12.42-.11 1.5.09 1.91.2.42.33 1.6.33 1.6s.44-.02.9-.56c.45-.55.8-1.85 1.39-2.09.59-.23 2.66-.66 3.4-.56Z"/><path class="y" d="M203.4 46.72a6.95 6.95 0 0 1-2.44-1.3c-1.11-.9-2.14-2.38-1.91-3.65a41 41 0 0 1 1.58-4.64l.38-1.02c.08-.29 0-.9-.03-1.11a.2.2 0 0 1 .13-.23c.09-.03.19 0 .23.08.11.22.67 1.28.7 1.64 0 .28 0 1.25-.13 1.72-.11.4-.09 1.42.08 1.78.16.34.28 1.09.33 1.45.14-.05.35-.17.58-.44.16-.2.3-.5.47-.82.28-.57.57-1.15 1-1.33.62-.24 2.72-.68 3.52-.57h.02c.04.02 1 .32 1.5.73.47.38 1.01 1.57 1.3 2.25.17.42.23 1.34-.1 1.99-.32.61-1.44 1.6-2.6 2.3-1.15.69-3.9 1.23-4.39 1.2l-.22-.03Zm-1.98-10.8c0 .1-.02.2-.04.27l-.4 1.06a41.18 41.18 0 0 0-1.56 4.57c-.19 1.1.8 2.48 1.79 3.29.99.8 2.11 1.24 2.46 1.26.36.02 3.06-.5 4.15-1.15 1.09-.65 2.16-1.59 2.45-2.14a2.3 2.3 0 0 0 .08-1.65 6.72 6.72 0 0 0-1.19-2.12 5.05 5.05 0 0 0-1.37-.65 11.1 11.1 0 0 0-3.3.55c-.28.12-.55.66-.78 1.13-.17.34-.33.67-.52.9-.5.61-1.03.63-1.05.63a.18.18 0 0 1-.18-.16 7.35 7.35 0 0 0-.32-1.53 4.1 4.1 0 0 1-.1-2.05c.1-.37.13-1.24.1-1.6 0-.1-.1-.33-.22-.61Z"/></g><path class="y" d="M201.78 41.85a1.23 1.23 0 0 1-.12-.03.18.18 0 0 1-.1-.25.2.2 0 0 1 .25-.12c.15.05.49.1.78-.06.17-.1.6-.84.9-1.47.05-.1.17-.14.26-.1.1.04.14.16.09.26-.16.33-.7 1.43-1.08 1.64-.34.19-.7.2-.98.13Z"/></g><g><path class="t" d="M43.34 52.38c.16-.7.4-2.32.63-3.84l1.64-10.95.62-.04 5.12 10.61 5.25-11.22.65-.04 1.32 11.09a35 35 0 0 0 .59 3.45l-2.73.16c0-.6-.08-1.42-.2-2.65l-.65-6.2-4.07 9.27-.6.04-4.01-8.8-.82 6.3a27.63 27.63 0 0 0-.26 2.67l-2.48.15ZM66.03 47.27c0 1.43.04 3.1.08 3.76l-2.54.15c.04-.66.08-2.34.08-3.77v-6.86c0-1.43-.04-3.13-.08-3.75l2.54-.15a78.9 78.9 0 0 0-.08 3.76v6.86ZM78.3 46.34c0 2.56-1.9 4.41-4.58 4.57-1.39.09-2.22-.2-3.32-.28v-3.05c.6.87 2.06 1.46 3.36 1.38 1.26-.08 2-.98 2-2.13 0-2.7-4.87-2.51-4.87-6.67 0-2.56 1.75-4.22 4.37-4.37 1.08-.07 1.75.19 2.65.24v2.84c-.47-.88-1.53-1.24-2.63-1.17-1.16.07-1.93.79-1.93 1.98 0 2.56 4.94 2.5 4.94 6.66ZM89.82 45.66c0 2.56-1.9 4.41-4.57 4.57-1.39.08-2.22-.2-3.32-.29V46.9c.59.87 2.05 1.45 3.36 1.38 1.26-.08 1.99-.98 1.99-2.14 0-2.69-4.86-2.5-4.86-6.66 0-2.56 1.75-4.22 4.37-4.37 1.08-.07 1.75.19 2.64.24v2.83c-.46-.87-1.52-1.23-2.62-1.16-1.16.06-1.93.78-1.93 1.98 0 2.56 4.94 2.5 4.94 6.66ZM96.57 45.47c0 1.42.04 3.1.08 3.75l-2.54.15c.04-.65.08-2.34.08-3.76v-6.87c0-1.43-.04-3.13-.08-3.75l2.54-.15c-.04.63-.08 2.33-.08 3.76v6.87ZM108.83 44.53c0 2.56-1.89 4.42-4.57 4.57-1.39.09-2.22-.2-3.32-.28v-3.05c.6.87 2.06 1.46 3.36 1.38 1.26-.07 2-.98 2-2.13 0-2.7-4.87-2.5-4.87-6.67 0-2.56 1.75-4.21 4.37-4.37 1.08-.06 1.75.19 2.65.24v2.84c-.47-.88-1.53-1.24-2.63-1.17-1.16.07-1.93.79-1.93 1.98 0 2.56 4.94 2.5 4.94 6.66ZM120.36 43.85c0 2.56-1.89 4.41-4.57 4.57-1.39.08-2.22-.2-3.32-.29V45.1c.6.87 2.06 1.45 3.36 1.38 1.26-.08 2-.98 2-2.14 0-2.68-4.87-2.5-4.87-6.66 0-2.56 1.75-4.22 4.37-4.37 1.08-.07 1.75.19 2.65.24v2.83c-.47-.87-1.53-1.23-2.63-1.16-1.16.07-1.93.78-1.93 1.98 0 2.56 4.94 2.5 4.94 6.66ZM127.11 43.66c0 1.42.04 3.1.09 3.75l-2.55.15c.04-.65.09-2.34.09-3.76v-6.87c0-1.43-.05-3.12-.09-3.75l2.55-.15c-.05.63-.09 2.33-.09 3.76v6.87ZM134.72 43.2c0 1.43.02 3.11.08 3.76l-2.56.15c.04-.65.08-2.33.08-3.76v-7.16c0-1.43-.04-2.83-.08-3.46l3.84-.23c3.03-.18 4.78 1.63 4.78 4.25 0 2.6-1.85 4.6-4.82 4.78l-1.32.08v1.6Zm0-3.48 1.08-.06a2.82 2.82 0 0 0 2.66-2.79c0-1.36-.96-2.56-2.66-2.46l-1.08.06v5.25ZM147.4 42.45c0 1.43.03 3.11.09 3.76l-2.56.15a80 80 0 0 0 .08-3.76v-7.16c0-1.43-.04-2.84-.08-3.46l3.84-.23c3.03-.18 4.78 1.63 4.78 4.25 0 2.6-1.85 4.6-4.82 4.78l-1.32.08v1.6Zm0-3.48 1.09-.06a2.82 2.82 0 0 0 2.66-2.79c0-1.36-.96-2.57-2.66-2.46l-1.08.06v5.25ZM160.14 41.7c0 1.43.04 3.1.08 3.75l-2.54.15c.04-.65.08-2.33.08-3.76v-6.86c0-1.43-.04-3.13-.08-3.76l2.54-.15c-.04.63-.08 2.34-.08 3.76v6.87Z"/></g><g><path class="t" d="m251.34 39.47 2.32-.14c1.45-.09 2.87-.21 3.5-.3v2.35c-.63 0-2.05.04-3.5.12l-4.91.3c.04-1.22.08-2.95.08-3.94v-7.18c0-1.52-.04-3.27-.08-3.93l2.68-.16c-.05.67-.09 2.42-.09 3.94v8.94ZM267.41 25.36c4.34-.25 7.68 3.04 7.68 7.34s-3.34 8-7.68 8.25c-4.3.26-7.65-3.04-7.65-7.34s3.36-8 7.65-8.25Zm0 13.4c2.87-.17 5.13-2.81 5.13-5.9s-2.26-5.45-5.13-5.28c-2.84.17-5.1 2.78-5.1 5.88s2.26 5.46 5.1 5.3ZM286.25 24.53c1.47-.08 3.1-.23 3.74-.3v2.3c-.63 0-2.27.05-3.74.13l-1.17.07c-.02.81-.02 1.91-.02 2.84v6.14c0 1.5.04 3.25.1 3.93l-2.7.16c.05-.69.09-2.45.09-3.94v-6.15c0-.92-.02-2.02-.06-2.83l-1.17.07c-1.45.09-3.04.23-3.7.31v-2.3c.66 0 2.25-.05 3.7-.14l4.93-.29ZM301.83 23.6c1.47-.08 3.1-.22 3.74-.3v2.3c-.63 0-2.27.05-3.74.14l-1.17.07c-.02.81-.02 1.91-.02 2.83v6.15c0 1.5.04 3.25.1 3.92l-2.7.16c.05-.68.1-2.44.1-3.93v-6.15c0-.92-.03-2.02-.07-2.83l-1.17.07c-1.45.09-3.04.23-3.7.3v-2.3c.66 0 2.25-.04 3.7-.13l4.93-.3ZM311.86 35.9l1.68-.1c1.47-.08 3-.2 3.64-.28v2.3c-.64 0-2.17.05-3.64.14l-4.27.25a139 139 0 0 0 .09-3.94v-7.2c0-1.51-.05-3.24-.09-3.9l4.1-.24a63.5 63.5 0 0 0 3.64-.33v2.33c-.66-.03-2.17.04-3.64.13l-1.5.08v3.91l1.4-.08a65.4 65.4 0 0 0 3.44-.27v2.28c-.66 0-2 .06-3.44.14l-1.4.08v4.7ZM324.24 33.48c0 1.5.02 3.16.08 3.84l-2.68.16c.07-.69.09-2.36.09-3.85v-7.27c0-1.5-.02-3.27-.09-3.92l3.81-.23c3.38-.2 5.23 1.62 5.23 4.26a4.32 4.32 0 0 1-2.87 4.25c1.62 1.86 3.3 4.48 5.06 6.1l-3.34.19a44.96 44.96 0 0 1-3.87-5.74c-.19.03-.36.06-.53.07l-.9.05v2.09Zm0-3.97 1.25-.08a2.7 2.7 0 0 0 2.66-2.75c0-1.34-.94-2.53-2.8-2.42l-1.11.06v5.19ZM338.95 36.45c.04-.68.06-2.11.06-3.6v-3.23l-3.42-5.18a30.93 30.93 0 0 0-1.98-2.71l3.13-.19c.34.68.6 1.13 1.08 1.87l2.53 3.89 2.45-4.08c.55-.88.85-1.38 1.19-2.1l2.91-.18c-.68.92-1.38 2.04-2.1 3.22l-3.28 5.29v3.25c0 1.5.02 2.92.07 3.6l-2.64.15Z"/></g><path class="t" transform="rotate(-3.14 103.33 61.75)" d="M50.5 61.25h105.68v1H50.5z"/><path class="t" transform="rotate(-2.8 265.18 53.1)" d="M251.25 52.6h27.86v1h-27.86z"/></g></svg>