<svg id="b" xmlns="http://www.w3.org/2000/svg" xmlns:xlink="http://www.w3.org/1999/xlink" viewBox="0 0 424.63 290.2"><defs><linearGradient id="d" x1="190.09" y1="92.17" x2="247.28" y2="219.86" gradientUnits="userSpaceOnUse"><stop offset="0" stop-color="#fff"/><stop offset=".2" stop-color="#f7f7f8"/><stop offset=".49" stop-color="#e3e4e5"/><stop offset=".84" stop-color="#c2c4c6"/><stop offset="1" stop-color="#b1b3b6"/></linearGradient><linearGradient id="e" x1="361.57" y1="269.54" x2="287.19" y2="284.45" gradientTransform="rotate(-1.53 -628.62 271.96)" gradientUnits="userSpaceOnUse"><stop offset="0" stop-color="#fed401"/><stop offset=".12" stop-color="#fdce02"/><stop offset=".28" stop-color="#fcbf04"/><stop offset=".45" stop-color="#f9a609"/><stop offset=".62" stop-color="#f68410"/><stop offset=".81" stop-color="#f25719"/><stop offset="1" stop-color="#ed2224"/></linearGradient><linearGradient id="f" x1="358.01" y1="251.8" x2="283.63" y2="266.71" xlink:href="#e"/><linearGradient id="g" x1="357.29" y1="248.16" x2="282.9" y2="263.07" xlink:href="#e"/><linearGradient id="h" x1="360.11" y1="262.25" x2="285.73" y2="277.16" xlink:href="#e"/><linearGradient id="i" x1="362.73" y1="275.3" x2="288.34" y2="290.21" xlink:href="#e"/><linearGradient id="j" x1="358.01" y1="251.8" x2="283.63" y2="266.71" xlink:href="#e"/><linearGradient id="k" x1="357.29" y1="248.16" x2="282.9" y2="263.07" xlink:href="#e"/><linearGradient id="l" x1="360.11" y1="262.25" x2="285.73" y2="277.16" xlink:href="#e"/><linearGradient id="m" x1="362.73" y1="275.3" x2="288.34" y2="290.21" xlink:href="#e"/><style>.p{fill:#fff}.t{fill:#daa900}.u{fill:#76777a}.x{fill:url(#e)}.z{fill:#00416b}.aa{fill:#ed1c24}.ac{fill:#c2d500}</style></defs><g id="c"><path class="t" d="M376.69 84.02c-8.44-11.85 6.83-18.96-7.55-21.26a14.4 14.4 0 0 0-2.28-.18l-.55.02a58.15 58.15 0 0 0-16.52-6.62c0-.3 0-.6-.02-.9l-.03-1.87 1.16-1.88c.3-.48.98-1.6 1.39-2.15a14.4 14.4 0 0 0-12.42-22.94l-2.92.17c-1.24.07-2.45.3-3.6.68a14.36 14.36 0 0 0-3.65-.25l-3.12.18c-1.26.08-2.48.32-3.64.7a21.27 21.27 0 0 0-4.53-.21l-3.8.22c-.67.04-1.32.14-1.96.27a14.37 14.37 0 0 0-3.62-.02c-.37.05-1.55.17-2.7.24l-4.1.24c-.5.03-.98.1-1.47.17a14.38 14.38 0 0 0-3.18.05c-.33.04-1.57.15-2.78.23l-4.93.29c-1.2.07-2.42.1-2.75.1h-.1c-.83 0-1.64.09-2.44.22l-.75-.03c-.6 0-1.21.04-1.82.12-.34.04-1.58.15-2.8.22l-4.93.29c-1.2.07-2.4.1-2.74.1h-.1c-1.73 0-3.42.33-5 .92a22.25 22.25 0 0 0-15.15 2.07 14.39 14.39 0 0 0-6.9-1.32l-2.68.16c-1.5.09-2.95.41-4.32.94a14.57 14.57 0 0 0-3.99-1.39c-1.45-4.03-4.34-7-4.71-7.36a18.8 18.8 0 0 0-7.9-4.52 14.62 14.62 0 0 0-10.98-1.6 19.76 19.76 0 0 0-6.47 1.76l-.26.1a32.34 32.34 0 0 0-3.54 1.71l-.84.45c-.5.24-.96.5-1.41.77a20.65 20.65 0 0 0-7.93-.69 14.64 14.64 0 0 0-18.27 11.74A17.3 17.3 0 0 0 169.3 38l-.03.12c-.2.67-.5 1.77-.74 3.15-1.02.2-2.02.49-3 .86a14.4 14.4 0 0 0-12.36-5.75l-2.54.15c-1.38.08-2.73.36-4 .82a20.46 20.46 0 0 0-4.9-.3l-3.85.23a14.2 14.2 0 0 0-3.95.82 20.46 20.46 0 0 0-4.9-.3l-3.84.24c-.84.05-1.68.18-2.5.38a14.36 14.36 0 0 0-2.54-.09l-2.54.15c-.87.06-1.72.2-2.55.4a21.75 21.75 0 0 0-4.77-.28c-1.95.12-3.8.5-5.53 1.13-.4-.07-.8-.13-1.22-.17a21.79 21.79 0 0 0-4.78-.27c-1.93.11-3.78.5-5.5 1.1a14.39 14.39 0 0 0-3.65-.25l-2.54.15c-.87.05-1.72.2-2.56.4a21.76 21.76 0 0 0-4.77-.28c-1.94.12-3.8.5-5.53 1.13-.4-.07-.8-.13-1.21-.17a21.81 21.81 0 0 0-4.78-.28c-1.94.12-3.78.5-5.5 1.11a14.39 14.39 0 0 0-3.65-.25l-2.55.15c-.86.05-1.7.2-2.53.39a14.33 14.33 0 0 0-3.8-.29l-.64.04c-1.8.1 2.57 1.86.98 2.59-1.4-.45-29.48 63.58-31.38 73.6l-7.12 36.74-5.28 27.25c-1.67 8.36-1.59-2.15-1.85-1.62-2.87 5.7-1.1 19.6 4.98 28.93 6.08 9.34 43.92 32.21 61.02 35.43-.42 1.84.52 13.92.52 13.92.57 6.86 3.91 12.35 10.75 13.12 0 0 20.7 2.24 21.04 2.26.27 2.22 2.58 9.23 12.95 12.61 61.9 7.04 118.66.83 154.82-4.95.78 0 17.04-3.96 18.98-5 3.83-2.08 6.86-4.59 8.99-7.45.4-.11.81-.25 1.2-.4h.15c2.63 0 4.89-.52 6.76-1.26a20.97 20.97 0 0 0 11.86 3.64c4.48 0 19.82-2.44 24.94-11.44 3.5-5.92 3.01-12.45-2.83-18.07a32.03 32.03 0 0 0-14.64-8c32.13-8.2 79.66-55.11 89.86-85.26 1.33-33.92-29.39-50.54-39.57-64.85Z"/><path class="t" d="M178.6 243.51c-32.4 0-67.58-2.7-96.5-7.4-54.22-8.81-67.62-21.45-72.03-25.6a2.63 2.63 0 0 1-.16-.17C-3.33 195.3-.2 177.3 1.89 165.4c.19-1.12.38-2.18.54-3.2l5.2-26.85.05-.24 7.16-36.95c3.12-16.48 9.31-27.23 19.28-33.23A13.3 13.3 0 0 1 27.6 50.4l2.11-13.88A13.38 13.38 0 0 1 42.1 25.2s93.89-5.17 132.2-7.3c.87-2.68 2.66-7.58 4.63-9.43a18.1 18.1 0 0 1 9.71-4.43c.49-.06 1.03-.1 1.65-.1 3.1 0 7.98.78 10.6 1.43a67.2 67.2 0 0 1 2.62-1.49c.07-.04 7.32-3.81 13.27-3.89h.24c5.02 0 9.83 2.08 14.3 6.18a17.62 17.62 0 0 1 4.9 8.58l16.86-.94q91.78-5.13 92-5.13c4.47 0 8.04 2.42 10.62 7.18 1.7 3.14 1.13 8.75.16 15.3 7.88 3.5 23.72 10.75 34.47 17.1 26.8 15.83 38.24 42.3 33.1 76.53a98.66 98.66 0 0 1-16.73 41.96c-14.43 23.44-30.6 36.19-41.64 42.76-10.69 6.48-26.44 11.97-49.54 17.26-22.73 5.2-51.89 9.95-86.66 14.12-14.49 1.73-31.4 2.61-50.25 2.61Z"/><path class="z" d="M389.04 50.43c-10.78-6.37-27.16-13.86-35.96-17.74.75-4.97 2.02-12.62.4-15.62-1.9-3.5-4.45-5.86-8.4-5.86-.2 0-110.86 6.19-110.9 6.19-.04-.27-.62-5.73-4.58-9.36-3.95-3.64-8.16-5.58-12.79-5.52-4.62.06-10.76 2.87-12.12 3.6-.37.2-2.68 1.46-3.4 2-1.63-.6-9.13-1.96-12.34-1.57a15.72 15.72 0 0 0-8.3 3.78c-1.88 1.75-4.03 8.52-4.45 10l-133.95 7.4A10.8 10.8 0 0 0 32.2 36.9l-2.13 13.99a10.8 10.8 0 0 0 7.05 12.63c.75.36 2.33.54 4 .84-13.8 5.1-20.56 17.08-23.82 34.28l-7.2 37.19-5.2 26.78c-1.9 11.74-6.73 30.59 6.9 46.07 4.26 4.02 17.24 16.25 70.7 24.94 28.79 4.69 63.82 7.37 96.1 7.37 18.76 0 35.56-.87 49.95-2.6 34.69-4.15 63.76-8.88 86.4-14.07 22.65-5.19 38.29-10.59 48.81-16.97 11.05-6.58 26.75-19.1 40.82-41.97a96.77 96.77 0 0 0 16.35-40.95c6.94-46.22-18.2-65.9-31.9-74Z"/><path class="p" d="M224.3 25.44s-3.03.87-3.25 1.04c-.22.17-2.07.62-2.55.64-.48.02-2.03-.12-2.35-.06-.31.06-1.39.2-1.68.31s-1.06.45-1.06.45-.4.45-.46.66c-.06.2-.04.41-.04.41s.78-.15 1.48-.03 1.9.2 2.51.36c.62.15 1.55-.12 2.05-.36.5-.24 1.92-1.45 2.08-1.55.16-.1 1.38-1.33 3.27-1.87Z"/><path class="p" d="M212.85 29.08a.18.18 0 0 1-.14-.17s-.01-.24.06-.47c.07-.24.43-.66.5-.74a37.1 37.1 0 0 1 1.15-.5c.21-.09.73-.18 1.34-.27l.37-.06c.19-.04.65-.02 1.34.02l1.04.04c.5-.03 2.25-.48 2.43-.6.23-.18 2.4-.82 3.32-1.08.1-.03.2.03.23.13s-.04.21-.15.24a8.3 8.3 0 0 0-3.22 1.86l-.4.31c-.53.43-1.33 1.07-1.7 1.25-.5.23-1.48.53-2.16.37l-.05-.01c-.35-.09-.9-.15-1.43-.21-.38-.05-.74-.09-1.03-.14-.66-.11-1.41.03-1.42.03h-.08Zm.67-1.1c-.17.2-.36.45-.38.54a.99.99 0 0 0-.03.15c.3-.04.83-.09 1.32 0l1.02.13c.56.07 1.13.13 1.51.23h.01c.58.13 1.48-.14 1.9-.35.33-.15 1.14-.8 1.62-1.19l.45-.34.12-.1c.18-.16.5-.43.92-.71-.43.13-.75.25-.82.3-.28.2-2.18.65-2.66.67-.22.01-.64 0-1.08-.03-.48-.03-1.09-.06-1.24-.03l-.39.06c-.4.07-1.07.17-1.26.25l-1.01.42ZM225.57 27.05s1.3-.6 1.97-.65c.68-.04 1.53-.15 2.47.24.93.38 1.38 1.03 2.1 1.02.71 0 1.73-.3 1.97-.47.25-.17-1.16.72-1.33 2.46s-.2 3.1-.45 3.68-1.52 2.22-2.61 2.79c-1.1.56-4.65 2-5.03 2.39s-1.6 1.8-1.6 1.8l-3.5-1.75.5-6.4s3.32-3.99 5.51-5.11Z"/><path class="u" d="M223.01 40.5h-.04l-3.51-1.76a.18.18 0 0 1-.1-.18l.51-6.41a.2.2 0 0 1 .05-.12c.14-.16 3.37-4.02 5.57-5.16h.01a8.09 8.09 0 0 1 2.04-.66l.21-.02c.65-.04 1.46-.1 2.34.27.4.16.72.37 1 .56.37.25.66.45 1.03.45.67 0 1.66-.3 1.86-.44h.02a.36.36 0 0 1 .09-.05c.09-.02.17.03.2.11.03.07.03.17-.1.26-.17.13-1.12.93-1.25 2.3l-.12 1.35c-.09 1.13-.15 1.94-.35 2.4a7.85 7.85 0 0 1-2.7 2.9c-.42.2-1.19.54-2 .9a24.23 24.23 0 0 0-2.98 1.44c-.38.38-1.57 1.78-1.58 1.8a.2.2 0 0 1-.2.07Zm-3.26-2.06 3.28 1.63a49.7 49.7 0 0 1 1.5-1.7c.24-.25 1.4-.76 3.11-1.53.8-.35 1.56-.68 1.97-.9a7.47 7.47 0 0 0 2.51-2.67c.17-.4.24-1.23.32-2.27l.12-1.36c.08-.86.45-1.53.8-1.98-.4.11-.88.2-1.26.2-.48 0-.83-.24-1.24-.51-.27-.18-.57-.38-.94-.53a4.5 4.5 0 0 0-2.16-.24l-.22.02c-.6.03-1.82.59-1.9.62-2 1.03-5 4.54-5.39 5l-.5 6.22Z"/><path class="ac" d="M179.23 37.88c-1.73-1.03-3.6-1.68-5.62-.62a37.13 37.13 0 0 0-5.42 3.53c-1.4 1.08-2.4 2.74-3.44 4.16a20.5 20.5 0 0 0-2.68 4.88c-.2.48-.38.97-.59 1.45-.06.14-.41.66-.4.8.05.62 2.54.61 3.07.66 1.05.09 2.07.32 3.12.08 1.36-.3 2.69-.86 4-1.33 2.45-.87 4.91-1.68 7.37-2.49.5-.16 1.8-.33 2.19-.72.2-.2.13-.33.1-.66-.38-3.28-1.1-6.52-1.7-9.74Z"/><path class="u" d="M161.72 52.7c-.51-.12-.8-.3-.83-.6-.01-.13.08-.32.3-.68l.12-.21.47-1.16.1-.28a20.74 20.74 0 0 1 2.72-4.93l.65-.9c.83-1.2 1.7-2.42 2.83-3.3 1.81-1.4 3.7-2.64 5.45-3.55 2.24-1.18 4.28-.29 5.8.62.05.03.08.07.1.12.13.76.28 1.52.43 2.28a94.24 94.24 0 0 1 1.27 7.63c.04.24.07.44-.17.68-.32.31-1.04.48-1.68.62-.23.05-.45.1-.59.15l-.2.07a306.43 306.43 0 0 0-8.12 2.77c-1 .37-2.03.75-3.07.98-.84.2-1.66.1-2.45 0a22.6 22.6 0 0 0-.73-.08l-.38-.02a11.9 11.9 0 0 1-2.02-.2Zm-.45-.64c.03.14.42.37 2.5.46a11.45 11.45 0 0 1 1.15.1c.8.1 1.55.19 2.32.01 1.02-.22 2.03-.6 3.01-.97l.97-.35c2.38-.85 4.81-1.65 7.17-2.42l.2-.07.63-.16c.52-.12 1.25-.28 1.48-.51.08-.09.08-.11.05-.33l-.02-.17c-.28-2.5-.77-5.01-1.25-7.44l-.42-2.2c-1.52-.9-3.34-1.64-5.37-.58a37 37 0 0 0-5.39 3.5c-1.08.85-1.93 2.05-2.74 3.22l-.65.9a20.34 20.34 0 0 0-2.66 4.85l-.12.28c-.15.38-.3.78-.47 1.16l-.15.26c-.07.13-.21.38-.24.46Z"/><path class="u" d="M161.12 52.12a.18.18 0 0 1-.1-.06c-.06-.08-.05-.2.03-.27 1.08-.96 8.1-6.79 9.99-7.89a29.74 29.74 0 0 1 6.65-2.27c.1.02.16.13.13.23a.2.2 0 0 1-.2.15c-.3.05-4.68 1.21-6.4 2.22-1.87 1.1-8.85 6.89-9.93 7.84a.2.2 0 0 1-.17.05Z"/><path class="ac" d="M193.14 50.66c-1.67.37-3.38.72-5 1.34-1.49.56-2.51 1.64-3.69 2.71a9.14 9.14 0 0 0-2.47 3.15c-.63 1.5-.88 3.1-1.49 4.61-.58 1.45-.96 2.53-.88 4.05.02.36.11 3.33.53 3.24.24-.05.97-1.94 1.1-2.14.7-1.06 1.75-2 2.77-2.75 1.73-1.27 3.9-1.48 5.77-2.46 1.3-.67 3.18-1.68 4.06-2.9.7-1 1.13-2.38 1.64-3.49l-2.34-5.36Z"/><path class="u" d="M180.05 69.95a.28.28 0 0 1-.1-.05c-.2-.15-.41-.65-.52-3.22v-.13c-.1-1.57.3-2.7.88-4.14.3-.72.5-1.48.71-2.21.22-.8.45-1.62.78-2.4a9.46 9.46 0 0 1 2.53-3.23l.46-.42c1-.94 1.96-1.83 3.3-2.34 1.45-.55 2.98-.89 4.46-1.22l.56-.12c.08-.02.17.02.2.1l2.35 5.37a.2.2 0 0 1 0 .16c-.16.34-.3.7-.47 1.08-.34.85-.7 1.72-1.2 2.43-.93 1.3-2.93 2.35-4.13 2.98-.8.41-1.66.7-2.49.97a11.2 11.2 0 0 0-3.25 1.47c-.82.6-1.96 1.55-2.72 2.7-.03.04-.15.31-.25.55-.58 1.31-.76 1.62-.98 1.67h-.12Zm.14-.37Zm12.83-18.7-.41.1c-1.47.32-2.98.66-4.41 1.2a9.83 9.83 0 0 0-3.16 2.25l-.46.43a8.81 8.81 0 0 0-2.42 3.07c-.32.76-.55 1.57-.77 2.35-.2.75-.42 1.52-.72 2.25-.57 1.43-.94 2.48-.86 3.97v.14c.09 2.03.24 2.66.33 2.86.17-.26.5-.99.66-1.36.15-.36.24-.54.29-.62.79-1.2 1.97-2.18 2.81-2.8a11.67 11.67 0 0 1 3.38-1.53c.81-.27 1.65-.54 2.42-.95 1.17-.6 3.11-1.62 3.98-2.84.48-.67.82-1.52 1.16-2.35.15-.35.28-.7.43-1.02l-2.25-5.15Z"/><path class="u" d="M179.98 69.95a.18.18 0 0 1-.14-.13c-.25-.96 1.46-6.44 2.22-7.81.75-1.35 2.33-3.12 4.7-5.26a28 28 0 0 1 5.78-3.68c.1-.04.21 0 .25.1a.2.2 0 0 1-.1.25c-.04.02-3.52 1.65-5.69 3.61-2.3 2.08-3.9 3.86-4.61 5.15-.74 1.34-2.38 6.74-2.17 7.52a.2.2 0 0 1-.14.24.2.2 0 0 1-.1 0Z"/><path class="ac" d="M192.78 37.83c.1.66-.59 1.5-.95 2-1.26 1.75-2.56 3.38-3.63 5.27-1.39 2.43-3.05 5.3-3.28 8.07a20.2 20.2 0 0 0 1.77 10.02c1.03 2.06 2.35 3.98 3.54 5.93 1.32 2.16 2.76 4.29 3.94 6.53-.07-2.68.14-5.26.74-7.92.4-1.76 1.2-3.13 2.24-4.6.83-1.17 2-2.46 2.47-3.83.35-1.07.08-2.41-.01-3.48-.1-1-.14-2.04-.32-3.03-.28-1.5-.77-2.98-1.15-4.45l-1.52-5.9-3.84-4.61Z"/><path class="u" d="M194.12 75.84a.18.18 0 0 1-.12-.09c-.83-1.58-1.81-3.13-2.75-4.63-.4-.61-.8-1.26-1.18-1.89l-1-1.6c-.9-1.4-1.8-2.85-2.55-4.35a20.5 20.5 0 0 1-1.8-10.11c.24-2.76 1.82-5.54 3.21-8l.1-.16c.81-1.43 1.78-2.74 2.71-4.01l.94-1.28.13-.18c.34-.47.86-1.17.78-1.67-.01-.09.04-.18.12-.22s.17-.02.22.05l3.84 4.62.04.07 1.52 5.88c.12.48.26.97.4 1.44.27 1 .56 2.01.75 3.04.14.76.2 1.57.26 2.35l.06.69.07.67c.1.93.23 2-.07 2.9a11.02 11.02 0 0 1-1.82 2.97c-.24.32-.47.61-.67.9a12.35 12.35 0 0 0-2.22 4.53c-.56 2.53-.8 5.1-.73 7.88 0 .09-.06.17-.14.2a.2.2 0 0 1-.1 0Zm-1.19-37.52a4.73 4.73 0 0 1-.94 1.61l-.94 1.29a39.82 39.82 0 0 0-2.69 3.97l-.1.16c-1.37 2.42-2.92 5.15-3.15 7.83-.28 3.31.41 7.2 1.76 9.91.73 1.49 1.64 2.92 2.52 4.31.33.53.68 1.07 1 1.61l1.19 1.9c.8 1.27 1.64 2.6 2.38 3.95 0-2.5.24-4.85.76-7.16.4-1.76 1.2-3.15 2.28-4.68.2-.3.44-.6.68-.91.7-.92 1.42-1.87 1.75-2.86.28-.81.16-1.83.06-2.73l-.08-.67-.05-.7c-.06-.77-.12-1.56-.26-2.3-.19-1.02-.47-2.03-.75-3l-.4-1.45-1.5-5.85-3.52-4.23Z"/><path class="u" d="M194.08 75.54a.18.18 0 0 1-.11-.09c-1.84-3.53-3-9.2-3.56-11.92-.53-2.58.33-8.77.84-12.47l.05-.37c.48-3.46 2.85-10.23 2.87-10.3a.2.2 0 0 1 .25-.13c.1.03.15.14.12.24-.03.07-2.39 6.8-2.86 10.22l-.05.37c-.47 3.43-1.36 9.82-.84 12.34.56 2.7 1.71 8.34 3.52 11.82a.2.2 0 0 1-.09.27.2.2 0 0 1-.14.02Z"/><path class="ac" d="M223.28 45.74a10.7 10.7 0 0 0 .9 5.9 10.84 10.84 0 0 0 5.23 5.66c3.6 1.96 9.07 2.85 10.58 7.21 1.24-4 1.52-9.74-.96-13.21-1.1-1.55-3.2-2.83-4.88-3.7-1.04-.53-9.6-2.99-10.53-6.04l-.34 4.18Z"/><path class="u" d="M239.93 64.7a.18.18 0 0 1-.12-.11c-1.09-3.14-4.27-4.44-7.34-5.7-1.13-.46-2.2-.9-3.16-1.41a10.98 10.98 0 0 1-5.31-5.76c-.93-2.27-1.2-4.06-.9-5.99l.32-4.17c.01-.1.08-.17.17-.19.1-.01.18.04.21.13.73 2.37 6.38 4.42 9.1 5.4.65.25 1.13.42 1.34.53 2.39 1.22 4.05 2.48 4.95 3.75 2.46 3.46 2.27 9.21.98 13.38a.2.2 0 0 1-.18.15h-.06Zm-16.18-22.4-.28 3.45v.01c-.28 1.86-.02 3.59.88 5.8a10.65 10.65 0 0 0 5.16 5.57c.94.51 2 .95 3.12 1.4 2.98 1.22 6.05 2.48 7.34 5.39 1.1-4.02 1.19-9.3-1.1-12.5-.86-1.22-2.48-2.44-4.82-3.64-.19-.1-.68-.28-1.3-.5-2.53-.92-7.54-2.74-9-4.98Z"/><path class="u" d="M239.97 64.36a.18.18 0 0 1-.14-.16c-.35-3.88-1.9-7.2-5.17-11.07a35.06 35.06 0 0 0-7.39-6.23c-.09-.06-.11-.17-.05-.27s.18-.12.27-.07c.04.03 4.47 2.75 7.47 6.3 3.32 3.94 4.9 7.32 5.26 11.28a.2.2 0 0 1-.18.22h-.07Z"/><path class="ac" d="M216.42 55.26a17.98 17.98 0 0 0 2.39 3.25c1.42 1.47 3.59 1.9 5.55 2.36 2.15.5 4.16.64 6.1 1.73.75.42 3.1 1.65 2.9 2.8-.04-2.8-.94-5.39-1.9-7.93-.85-2.2-2.37-3.59-4.19-4.98l-10.85 2.77Z"/><path class="u" d="M233.3 65.6a.18.18 0 0 1-.13-.18l-.01-.32c-.22-.9-2.03-1.9-2.67-2.26l-.12-.07c-1.41-.79-2.86-1.07-4.4-1.36-.54-.1-1.1-.22-1.66-.35l-.36-.08c-1.93-.45-3.92-.9-5.28-2.33a18.07 18.07 0 0 1-2.42-3.28.2.2 0 0 1 0-.18c.02-.06.07-.1.13-.12l10.86-2.77c.05-.01.11 0 .15.03 2.01 1.54 3.43 2.93 4.24 5.06.91 2.38 1.8 4.93 1.91 7.65.03.13.03.26 0 .38a.2.2 0 0 1-.2.18h-.04Zm-5.67-4.26c1 .24 1.97.55 2.94 1.09l.12.07c.61.33 1.76.97 2.4 1.72a26.18 26.18 0 0 0-1.82-6.67c-.78-2.03-2.13-3.37-4.05-4.85l-10.5 2.68c.74 1.22 1.47 2.2 2.23 2.99 1.3 1.35 3.23 1.8 5.1 2.23l.37.08c.55.13 1.11.24 1.65.34.53.1 1.05.2 1.56.32Z"/><path class="u" d="M233.22 64.9a.18.18 0 0 1-.13-.14 10.83 10.83 0 0 0-2.87-5.04c-1.03-.81-3.44-2.11-4.82-2.77-1.44-.7-2.49-2.01-2.53-2.07-.07-.08-.05-.2.03-.27.09-.07.21-.06.27.02.01.01 1.04 1.3 2.4 1.96 1.31.63 3.79 1.94 4.9 2.81a11.1 11.1 0 0 1 3 5.27.2.2 0 0 1-.16.23.2.2 0 0 1-.09 0Z"/><path class="ac" d="M224.21 47.85c1.41-.44 2.87-.9 4.2-1.59 1.43-.75 2.48-2.72 3.26-4.09.52-.93.08-.58-.71-.61-1.11-.06-2.35-.84-3.36-1.26-.79-.32-1.2-.54-2.08-.36-.7.14-1.4.36-2.07.58l-3.26 5.92s.26 2.15 4.02 1.4Z"/><path class="u" d="M221.75 48.1c-.37-.1-.7-.24-.97-.43a1.85 1.85 0 0 1-.78-1.19c0-.04 0-.08.03-.12l3.25-5.92a.21.21 0 0 1 .12-.1 18.2 18.2 0 0 1 2.1-.6c.86-.17 1.31.02 2 .3l.19.08c.29.12.59.27.9.42.8.39 1.63.78 2.4.82.18.01.36 0 .5-.02.25-.02.46-.04.56.13.1.17 0 .4-.22.79l-.13.24c-.76 1.35-1.8 3.2-3.22 3.94-1.33.7-2.8 1.15-4.21 1.59h-.03c-.99.2-1.82.22-2.49.06Zm-1.35-1.63c.03.15.16.55.63.88.66.48 1.75.58 3.15.3 1.4-.43 2.84-.87 4.14-1.56 1.3-.68 2.3-2.47 3.04-3.77l.14-.24.18-.36h-.18c-.15.02-.34.04-.56.03a7.05 7.05 0 0 1-2.53-.85c-.31-.16-.6-.3-.89-.41l-.19-.08c-.67-.28-1.04-.43-1.79-.28-.67.14-1.34.34-1.97.55l-3.17 5.79Zm3.81 1.38Z"/><path class="u" d="M223.28 43.56h-.01a.18.18 0 0 1-.13-.24.2.2 0 0 1 .24-.15c.05.02 2.2.51 3.5.36l.26-.03a7.02 7.02 0 0 0 4.7-2.07c.08-.07.2-.07.27 0s.06.2-.01.28a7.37 7.37 0 0 1-4.95 2.18l-.24.03c-1.36.16-3.48-.33-3.63-.36Z"/><path class="p" d="M201.28 23.43s-.7-1.06-1.22-2.05c-.52-1-1.16-2.39-2.25-2.81s-2.08-.76-3.83-.55-2.14.35-2.85.16l-2.2-.64s.44.95.16 1.73c-.27.78-2.1 3.31-2.31 4.04-.21.72-.87 2.93-.19 4.03s2.66 5.77 3.4 6.22c.74.44 10.05 5.37 11.45 5.45 1.41.08 4.05-.52 4.05-.52s-.12-6.94-.1-7.59-1.74-4.9-2.19-5.38l-1.92-2.09Z"/><path class="u" d="M201.17 39.17c-2.07-.49-10.64-5.06-11.29-5.45-.5-.3-1.31-1.93-2.41-4.2-.44-.92-.82-1.7-1.05-2.07-.7-1.15-.08-3.32.16-4.14l.01-.05c.12-.4.65-1.23 1.2-2.12.5-.77 1-1.57 1.12-1.92.25-.7-.15-1.58-.15-1.59a.2.2 0 0 1 .03-.21.2.2 0 0 1 .21-.06c.02 0 1.48.44 2.19.63.52.14.83.1 1.77-.03l1-.13a7.1 7.1 0 0 1 3.93.55c1.07.42 1.7 1.66 2.22 2.66l.12.24a25 25 0 0 0 1.2 2.02l1.92 2.08c.43.47 2.25 4.79 2.23 5.51-.01.64.1 7.51.1 7.58 0 .1-.06.18-.16.2-.1.03-2.68.61-4.1.54a1.5 1.5 0 0 1-.25-.04Zm-11.92-21.33c.1.38.21.96.03 1.48-.14.4-.64 1.19-1.16 2.02-.5.78-1.06 1.67-1.16 2.01l-.01.05c-.2.7-.81 2.82-.2 3.83.24.39.62 1.18 1.07 2.1.77 1.6 1.83 3.79 2.27 4.06.92.54 10.06 5.35 11.38 5.43 1.16.06 3.23-.36 3.82-.49l-.1-7.42c.02-.57-1.7-4.79-2.13-5.25a522.51 522.51 0 0 1-1.94-2.11c0-.01-.72-1.09-1.23-2.07l-.13-.24c-.48-.95-1.09-2.12-2.03-2.5a6.78 6.78 0 0 0-3.74-.53l-1 .13c-.94.13-1.33.18-1.92.03-.5-.13-1.33-.38-1.82-.53Z"/><path class="p" d="M192.41 31.9s1.46 1.16 1.51 1.26c.06.1-.18 1.11.94 1.88s2.06 2.16 2.9 2.47c.83.3 3.32.6 3.86.72l1.43.33 1.11.91s.48 1.9-.09 2.8c-.56.92-7.02 3.3-7.37 3.46-.35.18-2.77.86-3.15 1.1-.37.26-1.39.93-1.6 1.73-.2.8-.21 2.01-.78 2.19-.58.18-3.07.42-3.74.29-.68-.13-1.26.16-2.15-.2-.9-.34-2.47-.96-3.25-1.51s-2.81-2.58-3.72-4.3c-.92-1.7-1.68-3.75-1.4-4.75s1.37-3.22 2.24-4.06c.88-.85 1.8-2.04 4.2-2.82 2.39-.77 7.01-4.03 7.11-4.21.1-.18 1.48 2.43 1.95 2.7Z"/><path class="u" d="M185.59 51.15a18.89 18.89 0 0 1-3.67-1.66c-.8-.56-2.85-2.6-3.79-4.35-.42-.8-1.8-3.53-1.4-4.9.31-1.09 1.41-3.3 2.3-4.16l.36-.37c.8-.8 1.8-1.81 3.9-2.5 2.3-.73 6.74-3.84 7.02-4.13.04-.05.1-.09.17-.1.17 0 .25.1.89 1.13.37.6.93 1.5 1.15 1.62l.02.01c1.48 1.18 1.53 1.28 1.55 1.31.03.06.03.12.03.23 0 .3.01 1.02.86 1.6.52.36.99.83 1.44 1.29.51.51 1 1 1.41 1.15.54.2 1.84.4 2.78.54.5.07.88.13 1.07.18l1.42.33c.03 0 .05.02.07.03l1.12.92c.03.02.05.06.06.1.02.07.49 1.98-.12 2.95-.43.72-3.65 2.05-6.74 3.25l-.71.29c-.15.07-.55.2-1.2.4-.73.24-1.73.56-1.93.69l-.02.02c-.36.24-1.3.87-1.48 1.58-.05.2-.1.42-.13.66-.13.74-.26 1.5-.8 1.68-.6.18-3.13.42-3.84.29-.25-.05-.48-.03-.73-.02-.32.02-.66.04-1.06-.06Zm4.87-21.71c-.88.73-4.92 3.46-7.07 4.15a8.32 8.32 0 0 0-3.74 2.4l-.37.36c-.82.8-1.89 2.96-2.18 3.97-.23.8.31 2.62 1.38 4.62a16.09 16.09 0 0 0 3.67 4.23c.77.54 2.36 1.16 3.2 1.5.51.2.91.17 1.3.15.26-.01.53-.03.82.03.66.12 3.1-.11 3.65-.29.3-.09.42-.76.52-1.34l.13-.7c.22-.86 1.23-1.54 1.66-1.82l.02-.02c.23-.16 1-.4 2.04-.74a16.33 16.33 0 0 0 1.88-.68c1.52-.59 6.12-2.39 6.54-3.08.41-.66.2-2.04.08-2.6l-1.04-.84-1.38-.32a20 20 0 0 0-1.04-.17c-.96-.15-2.27-.35-2.85-.56-.5-.18-1-.7-1.54-1.24-.44-.44-.9-.9-1.4-1.24-1-.69-1-1.57-1-1.9v-.06c-.16-.15-.92-.77-1.45-1.19a7.4 7.4 0 0 1-1.25-1.73c-.2-.33-.45-.72-.58-.9Zm-.15-.35h-.01Z"/><path class="p" d="M203.73 46.92s.5 1.25.64 1.73c.13.49.76 2.22.67 2.54-.09.31-.8 2.21-1 2.84-.21.63-1.27 2.79-1.52 3.18-.25.4-1.84 1.72-2.23 2.03-.39.3-2.15 1.73-4.06 1.77s-2.73.12-3.4-1-1.62-2.6-1.27-4.5.25-3.37.16-4.2c-.09-.85-.35-2.8.44-3.47.8-.66 1.34-1.1 2.6-1.48s2.58-1.13 3.1-1.51c.53-.39 5.87 2.07 5.87 2.07Z"/><path class="u" d="M193.96 61.12c-.54-.12-.94-.4-1.3-1l-.06-.1c-.67-1.11-1.58-2.63-1.22-4.54a14 14 0 0 0 .15-4.14l-.01-.15c-.11-.98-.31-2.8.53-3.5a6.53 6.53 0 0 1 2.67-1.52c1.21-.37 2.5-1.09 3.04-1.48.53-.4 4.03 1.12 6.06 2.05.04.02.08.06.1.1.01.05.5 1.26.63 1.75l.18.55c.4 1.21.57 1.84.5 2.09-.05.17-.27.77-.5 1.4l-.51 1.45a29.5 29.5 0 0 1-1.54 3.23c-.3.46-2.05 1.9-2.28 2.08l-.04.03c-1.47 1.16-2.86 1.76-4.13 1.78h-.34c-.81.03-1.43.04-1.93-.08Zm4.47-16.07c-.23-.05-.4-.07-.47-.04-.55.4-1.9 1.15-3.15 1.53-1.25.38-1.76.8-2.53 1.45-.66.56-.47 2.3-.38 3.13l.01.15c.1.93.2 2.37-.16 4.26-.32 1.77.51 3.15 1.18 4.27l.07.1c.58.97 1.26.95 2.9.92h.34c1.19-.03 2.5-.6 3.9-1.7l.04-.03c.46-.36 1.96-1.63 2.18-1.97.25-.4 1.3-2.54 1.5-3.14.1-.3.3-.9.51-1.46l.49-1.38c.04-.2-.34-1.36-.5-1.86l-.18-.56c-.11-.41-.5-1.39-.6-1.65-2-.92-4.18-1.8-5.15-2.02Z"/><path class="p" d="M216.8 13.52s.25.33.3.62c.07.28.19.63.3.64.13 0 .7-.16.94-.13.23.03.86.05 1.3.18s1.72.52 2.2 1c.5.5 1.24 1.71 1.3 2s.25 1.57.37 2.27c.11.7.29 1.94.48 2.38.18.44.53 1.34.6 1.6.07.27-.18 1.23-.29 1.36s-1.19.34-1.45.4-1.78.66-2.23.8c-.46.15-2.23.53-2.68.47-.44-.05-1.77-.06-2.14-.02s-2.17.56-2.4.73c-.21.17-.7.78-.52 1.32.19.54.63 2.29.57 2.67s-.23 1.56-.33 1.76c-.11.2-.99 1.91-1.7 2.52-.7.6-2.69 1.56-3.09 1.77-.4.2-1.53.53-1.9.47s-.71-.14-.77-.25.04-7.35-.71-8.95c-.75-1.59-1.56-2.9-1.65-3.27s-.6-2.25-.32-2.78c.28-.53 1.87-3.22 2.71-4.07.85-.85 1.93-2.06 2.83-2.5s2.63-1.43 3.28-1.67c.65-.25 1.97-.89 2.54-.93.57-.04 2.12-.2 2.46-.4Z"/><path class="u" d="M206.02 38.45c-.31-.07-.47-.15-.53-.27-.04-.06-.04-.07-.06-1.1-.02-2-.09-6.66-.65-7.85-.37-.78-.76-1.5-1.06-2.06-.34-.63-.56-1.04-.61-1.25l-.03-.12c-.38-1.55-.47-2.42-.27-2.8.28-.54 1.88-3.25 2.75-4.12l.5-.5c.75-.79 1.62-1.67 2.38-2.04.35-.17.82-.43 1.32-.7.78-.4 1.58-.83 1.98-.98l.67-.28c.7-.3 1.49-.63 1.93-.66.8-.06 2.11-.23 2.38-.37a.18.18 0 0 1 .24.04c.01.02.27.37.34.7.05.25.12.42.16.49l.2-.04c.3-.06.55-.1.72-.09l.23.02c.3.03.75.07 1.1.17a6.3 6.3 0 0 1 2.28 1.05 7.42 7.42 0 0 1 1.34 2.09c.04.18.12.74.22 1.33l.15.95.05.32c.1.66.26 1.65.41 2.01.2.45.54 1.36.62 1.64.08.3-.17 1.34-.34 1.53-.1.12-.4.21-1.34.43l-.21.04-1.14.4c-.45.17-.87.33-1.09.4-.45.14-2.26.54-2.75.48-.43-.06-1.75-.07-2.1-.03-.4.04-2.1.56-2.3.7-.16.12-.6.65-.44 1.09.14.43.65 2.3.57 2.76l-.03.22a8.45 8.45 0 0 1-.33 1.6l-.02.05c-.46.88-1.13 2.04-1.71 2.53-.63.54-2.15 1.3-2.88 1.67l-.26.13c-.4.2-1.59.57-2.02.5a5.75 5.75 0 0 1-.37-.08Zm-.18-.47c.04.02.19.09.63.16.3.05 1.38-.25 1.78-.46l.26-.13c.66-.33 2.21-1.1 2.8-1.6.41-.36.99-1.22 1.62-2.42l.02-.04c.07-.15.22-1.11.28-1.47l.03-.23c.05-.3-.36-1.98-.56-2.57-.21-.64.32-1.33.6-1.55.27-.22 2.13-.74 2.49-.78.38-.04 1.73-.03 2.19.03.4.05 2.13-.32 2.59-.46l1.07-.39a19.4 19.4 0 0 1 1.18-.41l.22-.05c.24-.06.97-.22 1.13-.3.08-.17.28-.98.23-1.16-.06-.24-.39-1.11-.6-1.59-.16-.4-.32-1.38-.43-2.1l-.05-.31-.15-.96c-.1-.56-.18-1.13-.22-1.3a7.42 7.42 0 0 0-1.24-1.91 6.4 6.4 0 0 0-2.13-.97c-.32-.09-.74-.12-1.03-.15l-.24-.02c-.12-.01-.4.04-.59.08-.17.04-.26.05-.33.05-.08 0-.3 0-.47-.78a1.55 1.55 0 0 0-.2-.44c-.66.23-2.36.36-2.38.36-.37.03-1.17.36-1.8.63l-.68.28c-.38.15-1.17.57-1.94.97l-1.33.7c-.7.33-1.53 1.2-2.27 1.95l-.5.5c-.8.8-2.37 3.43-2.67 4.02-.1.2-.12.79.3 2.53l.03.12c.04.16.3.62.58 1.15.3.58.7 1.3 1.06 2.08.6 1.27.67 5.82.7 8l.02.94Z"/><path class="p" d="M202.54 26.06s.42-.62.45-1.24c.03-.61-.24-1.37-.89-1.72a24.5 24.5 0 0 0-3.2-1.34c-.92-.3-2.35-.9-2.8-1.16a7.87 7.87 0 0 0-1.9-.74c-.55-.1-1.25.14-1.5.35-.26.21-.31.82-.62.9-.32.08-.76-.3-1.25-.14-.48.16-.71.73-.68 1.1.04.39.53 1.87.6 2.26.05.39-.14 4.1-.2 4.3-.06.22-.09.56-.09.56s.54 1.67 1.17 2.11c.62.44 2.27 2.02 2.76 2.19.48.16 1.66.19 2.43.21.76.03 1.6-.27 2.17.26.58.53 2.14 3.19 2.46 3.41.33.23 1.28 1.04 1.52 1.05.24 0 .91-.83.91-.83l.08-1.1s-1.3-1.9-1.52-2.3c-.23-.4-.53-1.29-.99-1.97s-.95-2.33-.46-3.36c.49-1.03 1.55-2.8 1.55-2.8Z"/><path class="u" d="M202.88 38.6c-.2-.04-.53-.28-1.15-.77l-.4-.3c-.16-.11-.5-.62-1.08-1.5-.52-.77-1.1-1.65-1.4-1.92-.34-.33-.81-.29-1.36-.24-.23.02-.46.04-.7.03l-.23-.01c-.8-.03-1.78-.06-2.24-.22-.31-.1-.94-.63-1.8-1.37-.4-.35-.78-.68-1.01-.84-.66-.47-1.2-2.13-1.23-2.2a.2.2 0 0 1 0-.07c0-.02.02-.37.09-.6.05-.25.24-3.86.18-4.22-.02-.16-.14-.58-.26-.99a10.4 10.4 0 0 1-.33-1.27c-.04-.49.26-1.14.82-1.33.34-.1.65 0 .9.07.14.04.28.09.36.07.08-.02.16-.2.23-.36.08-.18.16-.37.3-.5.33-.27 1.1-.5 1.68-.39.6.12 1.52.52 1.94.76.44.24 1.85.85 2.79 1.14.91.29 2.54.99 3.22 1.36.73.39 1.02 1.23.98 1.89a3.05 3.05 0 0 1-.48 1.34c-.06.1-1.07 1.79-1.54 2.77-.43.9-.02 2.48.45 3.18.3.45.54.98.73 1.42l.27.56c.21.39 1.5 2.26 1.5 2.28.03.03.04.08.04.12l-.07 1.1a.2.2 0 0 1-.05.12c-.34.42-.8.91-1.08.9h-.07Zm-4.36-5.1c.22.05.43.15.6.32.33.3.9 1.15 1.45 1.98.39.6.88 1.32 1 1.4l.4.32c.28.21.85.66 1.01.7.11-.04.43-.35.72-.7l.06-.97a65.46 65.46 0 0 1-1.5-2.25 7.5 7.5 0 0 1-.27-.6c-.18-.42-.41-.94-.7-1.36-.52-.77-.99-2.48-.47-3.56a43.29 43.29 0 0 1 1.56-2.81v-.01s.4-.59.42-1.14c.03-.54-.2-1.23-.8-1.55a24.15 24.15 0 0 0-3.16-1.33c-.91-.28-2.35-.89-2.85-1.16a7.73 7.73 0 0 0-1.84-.72 1.98 1.98 0 0 0-1.34.3c-.07.06-.13.2-.2.34-.1.25-.22.53-.5.6-.19.04-.37-.02-.57-.08-.22-.07-.44-.14-.66-.07-.38.13-.56.62-.53.9.01.19.17.73.3 1.2.14.44.25.85.28 1.04.07.44-.13 4.16-.2 4.4-.04.14-.06.37-.07.46.16.48.62 1.66 1.08 1.99.25.17.63.5 1.04.86.63.54 1.4 1.21 1.68 1.3.41.14 1.4.17 2.13.2l.25.01c.2 0 .43-.01.64-.03a3.4 3.4 0 0 1 1.04.02ZM210.49 58.91a7.12 7.12 0 0 1-1.95-.67 6.34 6.34 0 0 1-1.51-1.72c-.23-.33-.45-.64-.65-.87a4.97 4.97 0 0 1-1.27-2.52 77.55 77.55 0 0 0-.72-3.36.2.2 0 0 1 .15-.24c.1-.03.2.03.23.13l.05.24c.18.73.6 2.1 1.11 2.5.75.56 1.4.83 2.4.99.5.08 1.04.06 1.56.04.59-.02 1.14-.04 1.61.08l.7.13c.64.1 1.36.23 2.63.73.98.39 1.46.68 1.88.93.32.2.6.36 1.06.54l.94.4c.96.4 2.04.86 2.59.9.74.07 2.08-.2 2.1-.2.1-.02.19.05.2.15a.2.2 0 0 1-.13.23c-.18.06-4.3 1.36-4.87 1.43l-.73.1c-1.5.22-4.3.64-5.09.5l-.17-.02a37.3 37.3 0 0 1-2.12-.42Zm-5.13-6.56.13.69c.14.84.53 1.6 1.18 2.34.22.25.44.57.68.9.42.61.9 1.3 1.41 1.63.77.49 3 .87 3.94 1.03l.17.03c.73.13 3.6-.3 4.97-.5.36-.06.62-.1.74-.1.28-.04 1.62-.44 2.88-.82l-.22-.01c-.6-.06-1.71-.53-2.7-.94l-.93-.4c-.49-.18-.8-.37-1.12-.56-.4-.25-.87-.53-1.82-.9-1.23-.5-1.93-.61-2.55-.72l-.73-.13c-.43-.1-.95-.09-1.5-.07-.55.02-1.1.04-1.64-.05a5.08 5.08 0 0 1-2.56-1.06 1.59 1.59 0 0 1-.33-.36Z"/><g><path class="p" d="M223.42 57.14s-4.27 1.35-4.83 1.41c-.57.07-4.82.78-5.76.61-.95-.16-3.34-.55-4.18-1.08-.83-.54-1.52-1.88-2.12-2.56a4.81 4.81 0 0 1-1.23-2.44c-.16-.97-.72-3.36-.72-3.36s.48 2.26 1.23 2.83c.74.57 1.4.86 2.48 1.03 1.08.17 2.28-.09 3.16.12.88.2 1.57.16 3.3.85 1.73.69 1.87 1.06 2.94 1.48 1.06.41 2.8 1.24 3.58 1.31.78.07 2.15-.2 2.15-.2Z"/><path class="u" d="M210.49 58.91a7.12 7.12 0 0 1-1.95-.67 6.34 6.34 0 0 1-1.51-1.72c-.23-.33-.45-.64-.65-.87a4.97 4.97 0 0 1-1.27-2.52 77.55 77.55 0 0 0-.72-3.36.2.2 0 0 1 .15-.24c.1-.03.2.03.23.13l.05.24c.18.73.6 2.1 1.11 2.5.75.56 1.4.83 2.4.99.5.08 1.04.06 1.56.04.59-.02 1.14-.04 1.61.08l.7.13c.64.1 1.36.23 2.63.73.98.39 1.46.68 1.88.93.32.2.6.36 1.06.54l.94.4c.96.4 2.04.86 2.59.9.74.07 2.08-.2 2.1-.2.1-.02.19.05.2.15a.2.2 0 0 1-.13.23c-.18.06-4.3 1.36-4.87 1.43l-.73.1c-1.5.22-4.3.64-5.09.5l-.17-.02a37.3 37.3 0 0 1-2.12-.42Zm-5.13-6.56.13.69c.14.84.53 1.6 1.18 2.34.22.25.44.57.68.9.42.61.9 1.3 1.41 1.63.77.49 3 .87 3.94 1.03l.17.03c.73.13 3.6-.3 4.97-.5.36-.06.62-.1.74-.1.28-.04 1.62-.44 2.88-.82l-.22-.01c-.6-.06-1.71-.53-2.7-.94l-.93-.4c-.49-.18-.8-.37-1.12-.56-.4-.25-.87-.53-1.82-.9-1.23-.5-1.93-.61-2.55-.72l-.73-.13c-.43-.1-.95-.09-1.5-.07-.55.02-1.1.04-1.64-.05a5.08 5.08 0 0 1-2.56-1.06 1.59 1.59 0 0 1-.33-.36Z"/></g><g><path class="p" d="M221.8 37.45s1.32.45 1.64 1.45.87 3.97 1.9 5.22c1 1.26 2.15 3.14 2.99 3.95.83.82 1.5 1.65 1.56 2.15.05.49-.52 2.68-.7 3.17s-.9 1.32-2.71 2.28c-1.82.96-3.51 1.7-4.04 1.72-.53.02-2.63-.25-3.75-.73-1.13-.5-3.1-1.88-3.94-2.1-.84-.23-1.96-.66-2.97-.76-1.02-.1-3.5-.08-4.14-.17s-2.3-1.08-2.62-2.08c-.31-1-.62-2.72-.86-3.43-.24-.7-.86-1.7-.86-1.7l1.64-5.15s.63-1.44 1.44-1.4c.81.05 1.24-.1 2.36.24 1.1.35 2.71 1.29 3.47 1.52.76.23 1.6.48 2.47.2a8.72 8.72 0 0 0 2.59-1.73c.32-.35 1.2-1.48 1.62-1.72s1.73-1.15 2.9-.93Z"/><path class="u" d="M219.88 57.23c-.47-.1-.92-.24-1.28-.4-.5-.22-1.2-.62-1.85-1.02-.8-.47-1.61-.95-2.06-1.07l-.78-.23c-.68-.21-1.45-.45-2.16-.52-.5-.04-1.34-.06-2.16-.08-.85-.02-1.65-.04-1.98-.09-.73-.1-2.43-1.13-2.77-2.2-.17-.53-.33-1.23-.48-1.9-.14-.61-.27-1.19-.38-1.52-.23-.68-.84-1.65-.85-1.66a.2.2 0 0 1-.01-.16l1.64-5.16v-.02c.03-.07.7-1.57 1.65-1.52a8 8 0 0 0 .62.01c.5 0 .96-.01 1.77.24.62.19 1.4.56 2.07.9.55.26 1.07.51 1.4.61.72.22 1.53.47 2.36.21a8.51 8.51 0 0 0 2.5-1.68l.33-.38a7.18 7.18 0 0 1 1.52-1.49c.57-.34 1.75-1.05 2.86-.84h.03c.06.02 1.42.5 1.76 1.58l.25.94c.34 1.3.84 3.27 1.6 4.21.43.53.87 1.16 1.3 1.77.62.88 1.2 1.7 1.68 2.17.58.56 1.55 1.6 1.62 2.25.06.56-.55 2.82-.7 3.27-.14.4-.7 1.27-2.82 2.4-1.49.78-3.46 1.71-4.13 1.73-.4.02-1.52-.1-2.55-.35Zm-7.16-3.47c.46.1.9.25 1.32.37l.77.23c.5.13 1.3.61 2.15 1.12.65.38 1.32.78 1.81 1 1.09.47 3.14.73 3.68.71.47-.01 2.13-.72 3.95-1.69 2.13-1.13 2.54-1.94 2.61-2.16.18-.5.73-2.66.68-3.09-.04-.4-.6-1.15-1.5-2.03-.5-.5-1.1-1.33-1.72-2.22-.43-.6-.87-1.23-1.3-1.75-.8-1-1.32-3.02-1.66-4.35l-.25-.93c-.27-.86-1.4-1.29-1.52-1.33-.97-.17-2.05.48-2.57.8l-.2.1a8 8 0 0 0-1.23 1.29l-.33.4c-.31.33-1.75 1.5-2.68 1.8-.95.3-1.82.02-2.59-.21-.36-.11-.86-.36-1.45-.64-.67-.33-1.43-.7-2.02-.88-.76-.23-1.18-.23-1.66-.22h-.65c-.54-.04-1.07.88-1.24 1.25l-1.61 5.06c.15.24.63 1.05.83 1.66.12.35.25.94.4 1.56.15.67.3 1.36.47 1.87.29.93 1.92 1.87 2.47 1.96.31.04 1.1.06 1.94.08.83.02 1.68.04 2.19.09.3.03.6.08.91.15Z"/></g><g><path class="t" d="M202.74 34.58c.1-.5.35-.51.4-.99s-.04-.9-.04-.9l.05-.32-.37-.44s.36.01.56 0c.2 0 .12-.8.16-.86.03-.06.97-.02.97-.02s-.54-.73-.52-.8 1.14.15 1.24.12c.1-.03.16-.94.24-1 .08-.04.6.75.6.75l.3-.95s.4.62.56.68c.16.07.67-.12.72-.11.05 0-.12.55-.08.6.03.07.36.24.35.28 0 .04-.63.7-.62.74.02.04.91.21.94.29.03.07-.08.27-.08.27l-.14.28-.15.03.29.16-.4.34s.52.28.57.33-.9.63-.8.73c.08.1.55.34.6.54s0 .73 0 .73-.54-.67-.62-.63c-.08.04 0 1.61 0 1.61l.07.53s-1.58.35-1.63.49c-.05.13-.33.82-.34.9 0 .08.38.88.36 1.16-.01.28-.15.48-.15.48s-1.46-.13-1.84-.1c-.37.03-1.1.17-1.1.17s-.27-.48.17-1.13c.45-.64.24-2.08 0-2.6-.23-.54-.37-.85-.27-1.36Z"/><path class="u" d="M202.8 39.86a.18.18 0 0 1-.12-.08c-.01-.02-.34-.6.18-1.34.38-.55.21-1.9-.02-2.42-.24-.54-.4-.9-.3-1.46.06-.3.17-.45.25-.58.08-.12.14-.2.16-.4a3.45 3.45 0 0 0-.04-.91l.03-.23-.31-.38a.2.2 0 0 1-.02-.22.2.2 0 0 1 .2-.1h.45c.03-.12.03-.36.03-.47 0-.16 0-.22.03-.28.06-.1.09-.16.76-.15-.35-.5-.34-.55-.31-.63.06-.2.2-.19.9-.1l.4.06.06-.36c.07-.38.09-.52.2-.6.14-.08.24-.1.64.47l.17-.56a.21.21 0 0 1 .16-.14c.08-.02.15.01.19.08.19.29.41.57.48.61.07.02.34-.06.44-.08.14-.04.2-.06.26-.04.2.04.15.24.1.51a4.8 4.8 0 0 0-.05.2l.1.06c.18.11.3.19.25.34-.02.06-.04.08-.27.35l-.22.24.12.03c.53.13.63.17.68.28.05.13-.02.32-.09.45l-.1.2.03.01c.05.03.09.09.1.15a.2.2 0 0 1-.08.17l-.18.15c.32.18.36.22.37.23.04.04.06.1.06.16-.02.12-.11.19-.4.4l-.34.26.03.03c.25.17.45.32.5.5.07.23.01.7 0 .8a.21.21 0 0 1-.14.17.18.18 0 0 1-.2-.05l-.3-.36c0 .31 0 .78.03 1.19l.06.51a.2.2 0 0 1-.16.23c-.6.13-1.32.32-1.5.41l-.04.08-.26.7.09.24c.16.4.27.72.26.92-.01.33-.17.57-.18.6a.2.2 0 0 1-.2.09c-.4-.04-1.5-.13-1.8-.1a14.56 14.56 0 0 0-1.15.16Zm.5-7.19c.01.12.07.5.03.93-.03.3-.13.45-.22.59-.08.11-.15.21-.18.42-.09.44.03.72.26 1.23.26.58.48 2.08-.02 2.8-.25.37-.23.66-.2.81.24-.04.69-.12.97-.15.32-.02 1.36.06 1.73.1a.85.85 0 0 0 .07-.28c0-.14-.15-.55-.24-.77-.1-.26-.13-.33-.12-.4 0-.06.05-.2.3-.82l.05-.13c.04-.1.09-.23 1.6-.58l-.04-.34c-.1-1.73-.04-1.76.1-1.83.1-.04.18-.08.54.31 0-.07 0-.12-.02-.16-.02-.08-.26-.24-.36-.3a1.23 1.23 0 0 1-.21-.18.21.21 0 0 1-.05-.17c.02-.15.17-.28.58-.57l.1-.08-.35-.2a.18.18 0 0 1-.1-.15.2.2 0 0 1 .08-.17l.18-.15-.06-.03a.18.18 0 0 1-.08-.2.21.21 0 0 1 .16-.16l.06-.01.1-.19a.92.92 0 0 0 .03-.07 9.1 9.1 0 0 0-.4-.1c-.41-.1-.47-.12-.5-.24-.05-.13 0-.2.43-.67l.09-.1c-.14-.1-.21-.14-.25-.2-.05-.1-.03-.2.03-.46V30c-.24.06-.45.1-.58.04a1.38 1.38 0 0 1-.42-.42l-.18.56a.21.21 0 0 1-.16.14.18.18 0 0 1-.19-.08c-.1-.16-.23-.34-.33-.47l-.02.09c-.07.44-.1.65-.28.7-.07.03-.16.02-.64-.05l-.29-.03.33.45a.2.2 0 0 1 0 .21.2.2 0 0 1-.18.11h-.77v.01c0 .36-.02.65-.15.8a.28.28 0 0 1-.2.08h-.12l.09.11c.03.05.05.1.04.15l-.05.28Zm2.79 4.45Z"/></g><path class="u" d="M206.38 38.52a.18.18 0 0 1-.12-.1.2.2 0 0 1 .02-.2L208 36.1c.15-.18 1.58-1.82 1.84-2.04.27-.23 1.26-.7 1.9-.82.69-.12 1.37.28 1.4.3.08.05.1.16.06.25-.26.5-1.24 2.08-1.64 2.44-.4.36-2.81 1.64-3.33 1.89a7.02 7.02 0 0 1-1.84.4Zm5.96-4.87a1.4 1.4 0 0 0-.56-.02c-.6.1-1.5.54-1.72.72a44.3 44.3 0 0 0-3.18 3.73c.37-.06.89-.16 1.2-.31.61-.3 2.89-1.52 3.22-1.82.3-.27 1.1-1.52 1.46-2.15a2.3 2.3 0 0 0-.42-.15Z"/><g><path class="u" d="M205.25 31.12a.1.1 0 0 1-.06-.05.11.11 0 0 1 .05-.14l.02-.02h.01v-.01l.02-.01.01-.02a.58.58 0 0 1 .03-.03l.02-.01a1.43 1.43 0 0 1 .15-.1l.04-.02a2.94 2.94 0 0 0 .49-.39.1.1 0 0 1 .14.02c.04.05.02.11-.02.15l-.07.06a2.44 2.44 0 0 1-.45.35l-.07.03-.02.02-.03.02-.04.02-.01.02h-.01a.42.42 0 0 1-.03.03l-.01.02a.11.11 0 0 1-.05.03l-.03.02a.1.1 0 0 1-.08.01Z"/><path class="u" d="m205.56 31.27-.04-.01a1.92 1.92 0 0 1-.17-.07.85.85 0 0 1-.09-.1c-.05-.02-.07-.08-.04-.13.03-.06.1-.08.14-.06l.07.05.03.04.03.02.04.02.07.03h.03l.12.02c.06.01.1.07.08.12a.11.11 0 0 1-.13.1l-.09-.02h-.05ZM206.3 31.38a.1.1 0 0 1-.02-.01.41.41 0 0 0-.03-.02.17.17 0 0 1-.06-.04.55.55 0 0 1-.03-.03.1.1 0 0 1-.02-.07v-.04l.1-.04-.1.01v-.1a1.2 1.2 0 0 1 .06-.28c0-.05.02-.08.02-.09l.01-.06c0-.06.06-.1.12-.1.05 0 .1.05.09.1l-.02.09-.02.1a2.54 2.54 0 0 0-.05.25v.1l.05.03c.04.03.06.1.02.15a.11.11 0 0 1-.11.05Z"/><path class="u" d="m206.27 31.42-.02-.01a.1.1 0 0 1-.04-.14l.02-.03.1-.13.15-.21.07-.08.11-.14a2.45 2.45 0 0 1 .1-.12l.13-.17c.04-.04.1-.05.15-.02.05.04.05.1.01.15l-.14.18-.04.05-.05.05-.06.08-.03.04-.03.03-.05.07-.16.2-.1.13v.01c-.03.04-.08.07-.12.06ZM205.86 32.7a.1.1 0 0 1-.07-.12 4 4 0 0 1 .02-.1l.01-.06a2.3 2.3 0 0 0 .06-.33v-.08a7.76 7.76 0 0 0 .01-.4v-.05a.11.11 0 0 1 .08-.14.1.1 0 0 1 .12.08v.01a.1.1 0 0 1 0 .04l.01.03a2.28 2.28 0 0 1 0 .43 3.5 3.5 0 0 1-.07.45l-.02.06-.02.09a.11.11 0 0 1-.12.1l-.01-.01Z"/><path class="u" d="M205.86 32.65a.1.1 0 0 1-.06-.05.11.11 0 0 1 .04-.14l.02-.01.02-.02h.03l.04-.02.11-.05c.03 0 .05-.02.07-.03l.03-.01.03-.02a1.88 1.88 0 0 0 .19-.21l.07-.13.06-.13c.02-.05.09-.07.14-.05.05.02.07.08.04.14l-.06.12a1.49 1.49 0 0 1-.14.25 1.92 1.92 0 0 1-.23.21 1.15 1.15 0 0 1-.12.05l-.11.05a.4.4 0 0 1-.08.03.1.1 0 0 1-.09.02ZM206.75 32.68a.1.1 0 0 1-.07-.14 16.72 16.72 0 0 1 .13-.4 10.1 10.1 0 0 0 .16-.66c.02-.05.08-.08.13-.07a.1.1 0 0 1 .06.14l-.03.15a5.54 5.54 0 0 1-.25.9.11.11 0 0 1-.13.08Z"/><path class="u" d="M206.77 32.63a.1.1 0 0 1-.04-.02c-.05-.03-.05-.1-.01-.15a.44.44 0 0 1 .04-.04l.2-.18.03-.02.02-.02.09-.1.15-.2c.04-.05.1-.06.15-.02.05.03.05.1.01.15l-.15.2-.07.08-.03.03-.03.03a.64.64 0 0 1-.03.03l-.2.18-.03.02a.11.11 0 0 1-.1.03ZM204.25 32.11a.1.1 0 0 1-.06-.04.11.11 0 0 1 .03-.15l.1-.07a7.78 7.78 0 0 0 .24-.18l.1-.07.08-.09a.59.59 0 0 1 .1-.08l.05-.02a.1.1 0 0 1 .14.04c.02.05 0 .12-.05.14l-.05.03-.05.05-.1.08a4.07 4.07 0 0 1-.34.27l-.1.08a.1.1 0 0 1-.09.01Z"/><path class="u" d="M204.5 32.26h-.05l-.08-.03-.08-.03a.28.28 0 0 0-.05-.02c-.06 0-.1-.06-.09-.12.01-.06.07-.1.13-.09l.09.02.09.04.06.02h.04l.02.01h.1a.52.52 0 0 0 .13 0l.04-.02.06-.03a.26.26 0 0 1 .05-.01.1.1 0 0 1 .14.04c.03.06 0 .12-.06.14a.24.24 0 0 1-.06.03.68.68 0 0 1-.31.07h-.07a.6.6 0 0 1-.1-.02ZM205.08 33.15h-.03c-.04-.02-.08-.07-.07-.12l.02-.13a2.92 2.92 0 0 1 .11-.36 5.24 5.24 0 0 0 .08-.25c.03-.05.1-.07.15-.05a.1.1 0 0 1 .04.13v.03a2.49 2.49 0 0 0-.07.2l-.02.07a4.9 4.9 0 0 1-.07.22l.02-.02.03-.03.09.06-.08-.07.02-.02.03-.04.04-.06a2.02 2.02 0 0 0 .11-.16c.04-.04.11-.05.15-.01.05.03.05.1.01.15l-.02.03-.04.05-.04.06-.04.05a1.93 1.93 0 0 1-.1.12l-.02.02a.58.58 0 0 1-.12.09l-.03.01a.28.28 0 0 1-.08.03h-.07ZM206.4 34.03c-.06-.02-.08-.09-.06-.14a.6.6 0 0 1 .03-.06l.01-.02.01-.01.01-.02.01-.05.02-.06.02-.04v-.05a1.05 1.05 0 0 0-.05-.43 2.51 2.51 0 0 0-.12-.3c-.03-.06-.02-.12.03-.16s.12-.02.15.03l.05.1a1.92 1.92 0 0 1 .16.66 1.23 1.23 0 0 1-.02.17l-.01.07-.03.07v.03a.3.3 0 0 1-.04.08l-.03.04v.03a.11.11 0 0 1-.13.06Z"/><path class="u" d="M206.45 33.98a.1.1 0 0 1-.04-.02c-.04-.03-.05-.1-.01-.14v-.02l.08-.1.11-.16.01-.01.07-.12.05-.08.01-.02a6.4 6.4 0 0 1 .1-.17l.01-.03.03-.05a.8.8 0 0 0 .02-.07l.02-.05.05-.14c.02-.06.07-.1.13-.08a.1.1 0 0 1 .07.13l-.05.14-.02.06a.99.99 0 0 1-.03.08l-.02.06-.02.04a2.17 2.17 0 0 1-.11.18l-.01.02-.05.08-.07.12-.01.02a3 3 0 0 1-.21.29.1.1 0 0 1-.11.04ZM205 34.3a.16.16 0 0 1-.05-.02.14.14 0 0 1-.05-.08v-.11a1.9 1.9 0 0 1 0-.22 22.61 22.61 0 0 1 .02-.39v-.03c.01-.06.07-.1.12-.1.06 0 .1.05.1.11l-.01.05-.01.13a24.75 24.75 0 0 0-.02.35l.02-.03.03-.07a4.4 4.4 0 0 1 .13-.21l.05-.08.05-.07.02-.04.07-.1.07-.1.02-.02.02-.02a1.38 1.38 0 0 0 .1-.1c.03-.05.1-.06.14-.02.04.03.05.1 0 .14a1.2 1.2 0 0 1-.07.1l-.02.01-.03.04a1.5 1.5 0 0 0-.06.08l-.06.1a1.54 1.54 0 0 1-.07.1l-.05.08a4.11 4.11 0 0 0-.12.2l-.03.05a.65.65 0 0 1-.1.15.38.38 0 0 1-.08.08c-.05.02-.08.04-.13.04ZM204.03 34.15a.1.1 0 0 1-.07-.06l-.01-.04-.05-.14-.04-.15a2.03 2.03 0 0 0-.03-.12v-.05a1.03 1.03 0 0 1-.03-.3V33.2l.02-.04.03-.1.02-.02.12-.15a.26.26 0 0 1 .04-.03l.03-.01a1.02 1.02 0 0 1 .2-.08l.07-.03h.07c.05 0 .1.04.1.1 0 .05-.04.1-.1.1l-.03.01-.06.02a2.06 2.06 0 0 0-.15.06l-.04.02a.98.98 0 0 0-.08.1l-.02.06v.08a.93.93 0 0 0 0 .24l.02.06v.02l.03.09.04.14.03.12.02.05a.11.11 0 0 1-.07.14.1.1 0 0 1-.06 0ZM203.2 37a.1.1 0 0 1-.07-.1 7.51 7.51 0 0 0-.07-.63l-.02-.07-.02-.1-.03-.11v-.06l-.02-.08V35.67c0-.06.02-.14.04-.23a1.64 1.64 0 0 1 .13-.37 2.55 2.55 0 0 1 .43-.6l.03-.03.04-.07c.04-.05.1-.06.15-.03.05.03.06.1.02.15a.86.86 0 0 0-.04.05 2.07 2.07 0 0 0-.51.75 1.49 1.49 0 0 0-.08.48v.05l.01.07.01.04.03.11.01.08.03.08a1.16 1.16 0 0 1 .05.28 5.55 5.55 0 0 1 .02.4c0 .06-.04.1-.1.11a.1.1 0 0 1-.03 0Z"/><path class="u" d="M203.78 37.36a.1.1 0 0 1-.06-.06 5.52 5.52 0 0 1-.15-.42l-.02-.05a1.2 1.2 0 0 1-.03-.08 1.02 1.02 0 0 1-.04-.26 9.36 9.36 0 0 1 .02-.26l.01-.05.03-.06.02-.05a2.36 2.36 0 0 0 .15-.55 2.5 2.5 0 0 0 0-.48 14.2 14.2 0 0 1-.01-.82c0-.05.06-.1.12-.1.05 0 .1.05.09.1a1.44 1.44 0 0 1 0 .18 8.9 8.9 0 0 1 0 .4 12.33 12.33 0 0 0 .01.73 1.85 1.85 0 0 1-.07.34 2.53 2.53 0 0 1-.1.26l-.02.07-.02.05-.01.03-.01.04V36.47a.97.97 0 0 0 .03.2l.02.05.02.07a2.48 2.48 0 0 1 .1.3l.05.12a.11.11 0 0 1-.13.15ZM204.7 37.24l-.02-.07-.01-.05-.02-.06a.8.8 0 0 0-.05-.13l-.02-.05a.59.59 0 0 1-.01-.05l-.02-.04v-.03a3.41 3.41 0 0 0-.1-.22l-.03-.04-.01-.02a1.88 1.88 0 0 1-.05-.12l-.03-.1a4.4 4.4 0 0 1-.09-.32l-.01-.08-.03-.1a5.87 5.87 0 0 0-.19-.55l-.03-.05a.11.11 0 0 1 .03-.15c.05-.03.12-.02.15.03l.03.05a1.64 1.64 0 0 1 .13.32 9.24 9.24 0 0 1 .08.27l.03.12.02.08a7.12 7.12 0 0 0 .08.3l.03.1.04.1.02.03a1.08 1.08 0 0 1 .13.3l.02.04v.04l.03.04a1.43 1.43 0 0 1 .06.2l.01.03.01.06.02.06-.1.03-.1.03Z"/><path class="u" d="M204.78 37.27a.1.1 0 0 1-.07-.12 5.52 5.52 0 0 1 .13-.42 4 4 0 0 0 .1-.8 2.06 2.06 0 0 0-.02-.34 4.6 4.6 0 0 0-.05-.3 1.9 1.9 0 0 0-.16-.4l-.07-.1a1.41 1.41 0 0 0-.21-.26 2.57 2.57 0 0 0-.13-.12.1.1 0 0 1-.06-.14.11.11 0 0 1 .12-.07.1.1 0 0 1 .08.04l.04.04a2.81 2.81 0 0 1 .34.38l.07.1.04.08.05.11.05.12a2.05 2.05 0 0 1 .13.85 3.11 3.11 0 0 1-.12.85 4.4 4.4 0 0 1-.13.42.11.11 0 0 1-.13.09Zm-.42-2.95Z"/><path class="u" d="m204.97 37.89-.02-.01c-.05-.02-.07-.09-.05-.14l.08-.14a.66.66 0 0 0 .02-.05l.14-.32a6.34 6.34 0 0 0 .28-1.02 1.07 1.07 0 0 0-.03-.38 3.39 3.39 0 0 0-.2-.46 2.9 2.9 0 0 0-.44-.51 2.79 2.79 0 0 1-.25-.25 3.81 3.81 0 0 0-.23-.2c-.04-.04-.04-.11 0-.16.03-.04.1-.05.14-.02a2.36 2.36 0 0 1 .25.23 18.05 18.05 0 0 0 .45.45 2.68 2.68 0 0 1 .27.35 3.15 3.15 0 0 1 .18.4.93.93 0 0 1 .05.23 2.48 2.48 0 0 1 .02.32 1.92 1.92 0 0 1-.08.45 4.64 4.64 0 0 1-.21.63l-.07.17-.02.05-.06.12-.03.07-.07.12a.11.11 0 0 1-.12.07Z"/><path class="u" d="m204.91 37.96-.02-.01a.1.1 0 0 1-.04-.14l.03-.04a9 9 0 0 1 .17-.24l.29-.4a7.55 7.55 0 0 0 .23-.35l.02-.04.04-.08a2.11 2.11 0 0 0 .2-.6 1.24 1.24 0 0 0 0-.28 1.78 1.78 0 0 0-.06-.3l-.03-.06a.93.93 0 0 0-.03-.1l-.03-.07-.01-.03-.04-.08a.11.11 0 0 1 .07-.14.1.1 0 0 1 .13.05l.04.1.03.07.04.11.03.08a1.66 1.66 0 0 1-.08 1.17l-.07.17-.02.03-.03.07-.02.03a4.21 4.21 0 0 1-.24.37l-.29.4a8.84 8.84 0 0 0-.18.25.12.12 0 0 1-.13.06Z"/><path class="u" d="M205.62 35a.1.1 0 0 1-.03 0l-.03-.03a.24.24 0 0 1-.08-.09.22.22 0 0 1-.02-.06 1.42 1.42 0 0 1 0-.43.24.24 0 0 1 0-.05c.01-.06.07-.1.13-.1.05.01.1.06.08.12h-.1.1v.1a2.03 2.03 0 0 0-.01.24v.07l.02.02h.09l.1-.05.12-.06h.03l.06-.05c.06-.03.12-.01.15.04.02.05 0 .11-.05.14l-.06.04a4.04 4.04 0 0 1-.37.15.36.36 0 0 1-.13 0ZM206.98 35.15h-.02a.4.4 0 0 1-.12-.07.33.33 0 0 1-.07-.11.74.74 0 0 1-.06-.16 1 1 0 0 1-.04-.2 3.23 3.23 0 0 1-.03-.4l-.02-.14c0-.05.03-.11.09-.12a.1.1 0 0 1 .12.08l.02.16v.14a2.49 2.49 0 0 0 .11.54l.02.04.01.01h.01l.03.02.03-.02a.32.32 0 0 0 .07-.07 1.08 1.08 0 0 0 .14-.3l.04-.09c.02-.06.08-.1.13-.07a.1.1 0 0 1 .07.13l-.03.1a2.54 2.54 0 0 1-.1.23.82.82 0 0 1-.09.13.55.55 0 0 1-.12.11c-.05.04-.08.06-.11.06h-.04a.2.2 0 0 1-.04 0Zm.1-.21Z"/><path class="u" d="M206.76 36c-.04-.02-.07-.04-.08-.08a2.07 2.07 0 0 1-.03-.13v-.06a.2.2 0 0 0-.01-.03l-.02-.05-.01-.04a.52.52 0 0 0-.03-.07l-.02-.04a1.23 1.23 0 0 1-.07-.1.56.56 0 0 0-.1-.09.45.45 0 0 0-.1-.05.37.37 0 0 1-.08-.03c-.05-.03-.06-.1-.03-.15s.1-.06.15-.03l.03.01a.68.68 0 0 1 .15.07.73.73 0 0 1 .18.2l.04.03.03.05.04.08.01.06.01.03.02.04v.04l.04-.06.08-.12a2.65 2.65 0 0 1 .12-.14l.11-.12.06-.06c.04-.05.1-.05.14-.01.05.04.05.1 0 .15l-.05.06-.08.09-.02.01-.05.07-.06.06-.07.12a2.67 2.67 0 0 0-.1.14.53.53 0 0 1-.05.08l-.03.03a.15.15 0 0 1-.06.03h-.06Z"/></g><g><path class="p" d="M225.58 25.55s-.6-.35-1.7 0c-1.1.36-3.02 2.14-3.9 2.6-.9.47-1.7 1.5-3.08 1.07a10.68 10.68 0 0 0-4-.33c.26 1.23.43 1.56.44 2.02 0 0 .19 1.31-.04 1.81-.22.5-1.23 2.68-1.74 3.2-.51.5-2.66 1.77-3.23 1.94-.57.16-1.63.49-1.9.47a3.05 3.05 0 0 1-.86-.37l-.02 1.56.71.34s.99-.13 1.44.03c.44.16 2.03.46 3.16 1.06 1.14.6 2.12.96 2.51 1s1.87-.17 2.55-.72c.68-.55 2.27-1.93 2.54-2.36.27-.43.9-1.06 1.62-1.23 0 0 .86-.32 1.29-.28.42.03.82-1.57.82-1.57s.98-2.67 1.32-3.07c.33-.4 1.25-1.24 1.68-1.97s1.24-3.33.39-5.2Z"/><path class="u" d="M213.13 42.11c-.47-.1-1.34-.44-2.37-.98-.8-.43-1.83-.7-2.51-.88-.28-.07-.5-.13-.63-.18a3.86 3.86 0 0 0-1.34-.01c-.04 0-.08 0-.1-.02l-.72-.35a.18.18 0 0 1-.1-.16l.02-1.56c0-.07.04-.14.1-.18a.2.2 0 0 1 .2 0c.23.14.62.34.77.35a9.85 9.85 0 0 0 1.84-.47c.52-.15 2.64-1.4 3.14-1.9.45-.44 1.4-2.45 1.7-3.12.16-.36.07-1.35.02-1.7v-.02c0-.24-.06-.45-.15-.8a24.2 24.2 0 0 1-.28-1.19.2.2 0 0 1 .16-.24 10.8 10.8 0 0 1 4.1.33c.94.3 1.57-.15 2.24-.61.21-.15.44-.31.67-.43.34-.18.85-.57 1.4-.99.86-.66 1.85-1.4 2.55-1.63 1.16-.38 1.82 0 1.84.01.04.02.06.05.08.08.9 1.98 0 4.67-.4 5.38-.32.53-.85 1.09-1.28 1.54l-.43.46c-.22.27-.9 1.98-1.28 3-.16.66-.51 1.76-1.03 1.71-.31-.02-.97.2-1.2.28h-.03c-.62.14-1.2.69-1.49 1.13-.3.48-1.95 1.9-2.59 2.42-.72.58-2.24.82-2.7.77l-.2-.04Zm-5.49-2.44c.05 0 .1.02.13.04.12.04.33.1.6.16.7.19 1.76.47 2.6.91 1.1.59 2.06.94 2.44.98.35.04 1.76-.17 2.4-.68.71-.58 2.25-1.92 2.5-2.3.24-.4.88-1.13 1.73-1.32a4.3 4.3 0 0 1 1.36-.3c.14-.04.43-.72.6-1.4l.01-.02c.1-.28 1-2.72 1.35-3.14.1-.13.27-.3.45-.49.4-.4.93-.97 1.21-1.45.44-.75 1.16-3.22.41-4.96-.15-.07-.66-.23-1.5.04-.63.2-1.58.93-2.42 1.57-.59.44-1.1.83-1.46 1.02-.2.1-.41.25-.63.4-.69.48-1.46 1.02-2.58.67-1.2-.37-2.94-.43-3.7-.35l.23.95c.1.38.16.6.17.88.02.18.17 1.39-.06 1.92-.01.02-1.18 2.64-1.79 3.25-.55.54-2.73 1.83-3.32 2l-.31.09c-.8.23-1.41.4-1.65.39a1.98 1.98 0 0 1-.65-.24l-.02 1.1.57.27c.21-.02.89-.1 1.33 0Z"/></g><path class="u" d="M221.31 37.55a.18.18 0 0 1-.13-.23l.45-1.66.12-.46.76-2.72c.2-.72 1.29-2.83 1.33-2.92l.02-.02c.56-.8 1.43-2.14 1.52-2.53.13-.52.07-1.16.07-1.17a.2.2 0 0 1 .17-.22c.1-.02.2.05.21.16 0 .03.07.7-.07 1.3-.14.58-1.4 2.4-1.58 2.66-.1.17-1.12 2.17-1.3 2.83-.16.53-.55 1.95-.75 2.71a153.23 153.23 0 0 1-.58 2.12.2.2 0 0 1-.23.15ZM207.3 40.1a.18.18 0 0 1-.14-.19c0-.1.08-.2.2-.2.2-.02.58-.25.92-.45.27-.17.53-.33.76-.41.46-.17 2.72-.87 3.71-1.07 1-.2 2.83.1 3.54.3a7.3 7.3 0 0 1 1.82 1.05c.09.06.1.18.03.27-.07.09-.19.1-.27.04-.01 0-1.05-.8-1.7-.98a9.66 9.66 0 0 0-3.37-.3c-.93.2-3.17.88-3.66 1.05-.18.07-.43.22-.68.38-.41.25-.8.49-1.11.5h-.06Z"/><path class="u" d="M210.6 41.12a.18.18 0 0 1-.13-.23.2.2 0 0 1 .24-.15c.9.17 3.4-.04 4.17-.14.5-.06 1.34-.33 1.86-.52a7.25 7.25 0 0 0-2.67-.5c-1.76.04-3.2.4-3.67.51l-1.24.29a.18.18 0 0 1-.22-.15.2.2 0 0 1 .16-.23l1.23-.29c.48-.12 1.96-.48 3.76-.51 1.8-.03 3.22.69 3.28.72.06.04.1.1.09.18 0 .08-.06.15-.13.18-.07.02-1.61.6-2.43.71-.81.1-3.34.32-4.3.13Z"/><g><path class="p" d="M205.12 39.39s.96.3 1.44.69 1.08 1.79 1.24 2.18c.16.39.21 1.24-.1 1.82-.3.59-1.39 1.55-2.51 2.22-1.13.67-3.87 1.2-4.27 1.18-.4-.03-1.55-.48-2.57-1.3s-2.06-2.26-1.84-3.47c.2-1.21 1.84-5.25 1.95-5.64s-.02-1.2-.02-1.2.65 1.23.67 1.56c.02.33 0 1.24-.11 1.65-.12.42-.11 1.5.09 1.92s.33 1.59.33 1.59.44 0 .9-.56c.45-.55.8-1.84 1.39-2.08s2.66-.66 3.4-.56Z"/><path class="u" d="M200.67 47.63a6.95 6.95 0 0 1-2.44-1.3c-1.11-.9-2.14-2.37-1.91-3.64.15-.9 1.05-3.25 1.58-4.65.2-.51.35-.91.38-1.02.08-.28 0-.9-.03-1.1a.2.2 0 0 1 .13-.23c.09-.04.19 0 .23.08.11.21.67 1.28.7 1.63 0 .29 0 1.25-.13 1.73-.11.4-.09 1.42.08 1.78.16.33.28 1.09.33 1.45.14-.05.35-.17.58-.45.16-.19.3-.5.47-.81.28-.57.57-1.16 1-1.33a11.12 11.12 0 0 1 3.54-.57c.04.01 1 .31 1.5.72.47.38 1.01 1.58 1.3 2.25.17.42.23 1.35-.1 2-.32.61-1.44 1.6-2.6 2.3-1.15.68-3.9 1.23-4.39 1.2-.06 0-.14-.02-.22-.04Zm-1.98-10.8c0 .1-.02.2-.04.28l-.4 1.05a41.19 41.19 0 0 0-1.55 4.57c-.2 1.12.78 2.49 1.78 3.3.99.8 2.11 1.23 2.46 1.25.36.02 3.07-.5 4.16-1.15 1.08-.65 2.15-1.58 2.44-2.13a2.3 2.3 0 0 0 .08-1.66 6.72 6.72 0 0 0-1.19-2.11 5.05 5.05 0 0 0-1.36-.65 11.1 11.1 0 0 0-3.3.55c-.3.12-.56.65-.8 1.12-.16.35-.32.67-.51.9-.5.62-1.03.63-1.05.63a.18.18 0 0 1-.18-.16 7.35 7.35 0 0 0-.32-1.53 4.1 4.1 0 0 1-.1-2.05c.1-.37.13-1.23.1-1.59 0-.1-.1-.34-.22-.62Z"/></g><path class="u" d="M199.05 42.77a1.21 1.21 0 0 1-.12-.04.18.18 0 0 1-.1-.24.2.2 0 0 1 .25-.13c.15.06.49.1.78-.06.17-.1.6-.83.9-1.46.05-.1.17-.15.26-.1.1.04.14.15.09.25-.16.33-.7 1.44-1.08 1.65-.33.19-.7.2-.98.13Z"/><g><path class="p" d="M40.6 53.3c.17-.7.41-2.32.64-3.84l1.65-10.96.6-.03 5.13 10.61 5.25-11.23.65-.04 1.32 11.1c.2 1.52.36 2.5.59 3.45l-2.73.16c0-.61-.08-1.43-.2-2.66l-.65-6.2-4.07 9.27-.6.04-4.01-8.79-.82 6.3a27.63 27.63 0 0 0-.26 2.67l-2.48.14ZM63.3 48.19c0 1.43.04 3.1.08 3.75l-2.54.15c.04-.65.08-2.33.08-3.76v-6.86c0-1.43-.04-3.13-.08-3.76l2.54-.15a78.9 78.9 0 0 0-.08 3.76v6.87ZM75.56 47.25c0 2.57-1.89 4.42-4.57 4.58-1.39.08-2.22-.2-3.32-.29V48.5c.6.87 2.06 1.45 3.36 1.37 1.26-.07 2-.97 2-2.13 0-2.69-4.87-2.5-4.87-6.66 0-2.56 1.75-4.22 4.37-4.38 1.08-.06 1.75.2 2.65.25v2.83c-.47-.87-1.53-1.23-2.63-1.17-1.16.07-1.93.8-1.93 1.99 0 2.56 4.94 2.5 4.94 6.65ZM87.1 46.57c0 2.56-1.9 4.42-4.58 4.58-1.39.08-2.22-.2-3.32-.29v-3.04c.6.86 2.05 1.45 3.36 1.37 1.26-.07 1.99-.98 1.99-2.13 0-2.69-4.86-2.5-4.86-6.66 0-2.57 1.75-4.22 4.37-4.38 1.08-.06 1.75.2 2.64.24v2.84c-.46-.88-1.52-1.23-2.62-1.17-1.16.07-1.93.79-1.93 1.98 0 2.57 4.94 2.5 4.94 6.66ZM93.84 46.38c0 1.43.04 3.1.08 3.75l-2.54.16c.04-.66.08-2.34.08-3.77v-6.86c0-1.43-.04-3.13-.08-3.76l2.54-.15a78.9 78.9 0 0 0-.08 3.77v6.86ZM106.1 45.45c0 2.56-1.89 4.41-4.57 4.57-1.38.08-2.22-.2-3.32-.29V46.7c.6.87 2.06 1.45 3.36 1.38 1.26-.08 2-.98 2-2.14 0-2.69-4.87-2.5-4.87-6.66 0-2.56 1.75-4.22 4.37-4.37 1.08-.07 1.75.19 2.65.24v2.83c-.47-.87-1.53-1.23-2.63-1.16-1.15.06-1.93.78-1.93 1.98 0 2.56 4.94 2.5 4.94 6.66ZM117.63 44.76c0 2.56-1.89 4.42-4.57 4.58-1.38.08-2.22-.2-3.32-.29v-3.04c.6.86 2.06 1.45 3.36 1.37 1.26-.07 2-.98 2-2.13 0-2.69-4.87-2.5-4.87-6.66 0-2.56 1.75-4.22 4.37-4.38 1.08-.06 1.75.2 2.65.25v2.83c-.47-.88-1.53-1.23-2.63-1.17-1.16.07-1.93.79-1.93 1.99 0 2.56 4.94 2.5 4.94 6.65ZM124.38 44.57c0 1.43.05 3.1.09 3.76l-2.55.15c.04-.66.09-2.34.09-3.77v-6.86c0-1.43-.05-3.13-.09-3.76l2.55-.15a78.9 78.9 0 0 0-.09 3.77v6.86ZM131.99 44.12c0 1.43.02 3.1.08 3.76l-2.56.15c.04-.66.08-2.34.08-3.77V37.1c0-1.42-.04-2.83-.08-3.45l3.84-.23c3.03-.18 4.78 1.62 4.78 4.25 0 2.6-1.85 4.6-4.82 4.78l-1.32.08v1.6Zm0-3.48 1.08-.07a2.82 2.82 0 0 0 2.66-2.78c0-1.37-.96-2.57-2.66-2.47l-1.08.07v5.25ZM144.68 43.37c0 1.43.02 3.1.08 3.75l-2.56.16c.04-.66.08-2.34.08-3.77v-7.16c0-1.43-.04-2.83-.08-3.46l3.84-.22c3.03-.18 4.78 1.62 4.78 4.25 0 2.6-1.85 4.6-4.82 4.78l-1.32.07v1.6Zm0-3.48 1.08-.07a2.82 2.82 0 0 0 2.66-2.78c0-1.37-.96-2.57-2.66-2.47l-1.08.07v5.25ZM157.4 42.62c0 1.42.05 3.1.09 3.75l-2.54.15c.04-.65.08-2.34.08-3.76v-6.87c0-1.43-.04-3.12-.08-3.75l2.54-.15c-.04.63-.08 2.33-.08 3.76v6.87Z"/></g><g><path class="p" d="m248.61 40.38 2.32-.13c1.45-.09 2.87-.22 3.5-.3v2.35c-.63 0-2.05.03-3.5.12l-4.91.29c.04-1.21.08-2.95.08-3.94V31.6c0-1.51-.04-3.26-.08-3.92l2.68-.16c-.05.66-.09 2.42-.09 3.94v8.93ZM264.68 26.28c4.34-.26 7.68 3.03 7.68 7.34s-3.34 8-7.68 8.25c-4.3.25-7.65-3.04-7.65-7.34s3.36-8 7.65-8.25Zm0 13.4c2.88-.18 5.13-2.81 5.13-5.91s-2.25-5.44-5.13-5.27c-2.84.16-5.1 2.78-5.1 5.88s2.26 5.46 5.1 5.3ZM283.52 25.45a72.4 72.4 0 0 0 3.74-.31v2.3c-.63 0-2.27.05-3.74.14l-1.17.07c-.02.81-.02 1.9-.02 2.83v6.15c0 1.5.04 3.25.1 3.92l-2.7.16c.05-.68.1-2.44.1-3.93v-6.15c0-.92-.03-2.02-.07-2.83l-1.17.07c-1.45.09-3.04.22-3.7.3v-2.3c.66 0 2.25-.04 3.7-.13l4.93-.3ZM299.1 24.52c1.47-.08 3.1-.22 3.74-.3v2.3c-.63 0-2.27.05-3.74.13l-1.17.07c-.02.82-.02 1.92-.02 2.84v6.15c0 1.49.04 3.24.1 3.92l-2.7.16c.05-.68.1-2.44.1-3.94v-6.14c0-.93-.03-2.02-.07-2.83l-1.17.07c-1.45.08-3.04.22-3.7.3v-2.3c.66 0 2.25-.05 3.7-.13l4.93-.3ZM309.14 36.82l1.67-.1c1.47-.09 3-.2 3.64-.28v2.3c-.64 0-2.17.04-3.64.13l-4.27.26c.04-1.22.09-2.95.09-3.94v-7.2c0-1.52-.05-3.25-.09-3.9l4.1-.25c1.47-.09 2.98-.24 3.64-.32v2.32c-.66-.02-2.17.04-3.63.13l-1.51.09v3.9l1.4-.07a65.5 65.5 0 0 0 3.44-.27v2.28c-.66 0-2 .05-3.44.14l-1.4.08v4.7ZM321.5 34.4c0 1.49.03 3.16.1 3.83l-2.69.16c.07-.68.09-2.35.09-3.85v-7.26c0-1.5-.02-3.27-.09-3.93l3.81-.22c3.38-.2 5.23 1.62 5.23 4.25a4.32 4.32 0 0 1-2.87 4.26c1.62 1.86 3.3 4.48 5.06 6.09l-3.34.2a44.95 44.95 0 0 1-3.87-5.75c-.19.04-.36.07-.53.08l-.9.05v2.09Zm0-3.98 1.26-.07a2.7 2.7 0 0 0 2.66-2.75c0-1.34-.94-2.54-2.8-2.43l-1.11.07v5.18ZM336.22 37.37c.04-.69.06-2.11.06-3.6v-3.24l-3.42-5.17a30.92 30.92 0 0 0-1.98-2.72l3.13-.18c.34.68.6 1.13 1.08 1.87l2.53 3.89 2.45-4.08c.55-.89.85-1.39 1.19-2.11l2.91-.17c-.68.91-1.38 2.03-2.1 3.22l-3.28 5.28v3.25c0 1.5.02 2.92.07 3.6l-2.64.16Z"/></g><path class="p" transform="rotate(-3.14 100.6 62.67)" d="M47.77 62.17h105.68v1H47.77z"/><path class="p" transform="rotate(-2.8 262.45 54.01)" d="M248.52 53.51h27.86v1h-27.86z"/><path class="t" d="M55.15 102.94c-3.91 20.51-7.95 41-11.96 61.5-.54 2.53-1.53 7.91 2.4 7.94 3.9.02 4.7-5.21 5.37-8.01l4.92-25.04c6.32-.12 12.64-.22 18.96-.38l-5.28 26.6c-2.61 13.48-13.36 21.12-26.76 21.21-12.73.08-21.12-7.1-18.46-20.32 4.13-21.35 8.3-42.7 12.41-64.05 2.56-13.5 13.1-21.77 26.58-22.6 13.3-.83 21.53 6.77 18.9 20.41-1.61 8.66-3.23 17.31-4.89 25.96-6.32.2-12.65.33-18.97.47 1.55-8 3.07-16 4.59-24.01.5-2.3 1.85-8.6-2.39-8.3-3.8.28-4.97 5.6-5.42 8.62ZM96.87 79.02l38.43-2.56a8743.19 8743.19 0 0 1-13.83 106.91c-5.88.37-11.76.72-17.65 1.08 1.43-10.82 2.91-21.64 4.39-32.45l-11.29.77-8.34 32.5c-6.43.19-12.87.25-19.3.2a9855.2 9855.2 0 0 0 27.6-106.45Zm3.63 58.88c3.34-.22 6.68-.46 10.02-.72 2.09-15.12 3.95-30.27 5.87-45.42l-4.79.35c-3.64 15.28-7.27 30.56-11.1 45.8ZM129.56 162.47c1.47-7.23 2.96-14.45 4.45-21.67l18.67-1.6-4.25 20.44c-.63 2.43-1.94 8.4 2.27 8.1 4.32-.3 5.7-5.38 6.33-8.89l3.1-15.15c2.5-11.37-13.78-13.76-18.5-21.3-2.38-4.74-1.84-9.8-1.12-14.9l2.13-11.41c2.49-13.65 12.5-22.28 26.25-23.18 12.98-.85 20.7 6.77 18.1 19.92l-3.17 16.82c-6.27.47-12.55.87-18.82 1.33l2.89-15.34c.4-1.88 2.16-8.5-1.75-8.26-3.84.23-4.67 5.84-5.1 8.74l-2.19 11.6c-1.61 9.56 11.7 12.29 17 17.34 4.85 4.73 4.03 11.57 3.12 17.66l-2.93 15.6c-2.65 14.27-14.41 23.36-28.53 24.65-13.53 1.24-20.74-7.35-17.95-20.5ZM230.12 123.02a98.3 98.3 0 0 1 11.92-32.1 4749.4 4749.4 0 0 0 4.25-21.65l-18.66 1.2c-2.77 14.32-5.52 28.66-8.26 43l-8.13.66c2.74-14.38 5.48-28.77 8.26-43.14l-19.14 1.23c-6.73 35.07-13.33 70.16-19.9 105.25a506.9 506.9 0 0 0 19.33-3.88c2.8-14.85 5.85-29.66 8.6-44.53l8.12-.7c-2.7 14.48-5.8 28.88-8.58 43.35 6.2-1.47 12.4-3.02 18.57-4.6l3.47-16.72c-1.55-8.34-1.6-17.56.15-27.37Z"/><path d="M228.42 180.6s16.07 21.48 49.2 23.2 70.8-8.72 81-17.15c-14.63 13.75-69.45 24.55-132.41 32.08-62.96 7.54-177.77-2.74-200.83-24.46 54.29 9.73 169.07.52 203.04-13.67ZM346.57 49.5c18.57 11.83 28.22 36.34 23.02 65.6-5.92 33.35-29.36 63.05-57.15 75.86 30.7-8.53 57.63-38.26 63.96-73.91 5.66-31.88-6.96-58.52-29.83-67.55Zm42.93 68.66c-5.7 33.9-30.37 60.75-57.73 68.86 24.24-12.14 47.16-39.55 52.34-70.36 4.8-28.58-7.3-52.35-25.26-62.71 22.85 10.43 36.01 32.33 30.65 64.21Zm11.86 3.33c-4.4 29.29-24.96 51.29-49.2 61.9 21.59-12.68 39.11-36.7 43.87-63.38 5.32-29.79-5.14-46.44-21.86-59.25 18.67 12.26 32.04 28.42 27.19 60.73Zm-38.78-7.91c-7.18 40.4-41.67 75.13-77.06 77.55-35.38 2.43-58.25-28.36-51.08-68.77 7.18-40.4 41.67-75.13 77.06-77.55 35.38-2.43 58.25 28.36 51.08 68.77ZM325 123.16h-8.5l6.03-62.33h-22.67L265.8 124.9l-1.57 16.21h30.39l-2.4 24.72h20.16l2.39-24.72h8.5l1.73-17.95Zm-44.08 0 19.14-38.4-3.7 38.4h-15.44Z" fill="url(#d)"/><g><path class="z" d="M87.76 252.3c-.07.42-.08.84-.07 1.26l.08 3.21 3.36-4.12 1.36.15.5 4.53 2.34-3.22c.3-.4.52-.74.61-.9l2.73.3c-.66.68-1.43 1.65-2.06 2.44l-4.87 6.24-.54-.06-.75-5.82-4.35 5.25-.6-.06-.63-7.54c-.05-.72-.1-1.39-.22-2.02l3.11.35ZM96.9 262.55a31 31 0 0 0 .73-1.95l1.85-5.43-.96-.1c.36-.34.87-1 1.16-1.45l3.05.34c-.18.42-.48 1.24-.72 1.93l-1.7 5.01c-.24.71-.52 1.6-.6 1.97l-2.8-.32Zm5.84-12.95c.82.1 1.24.82.96 1.64a1.92 1.92 0 0 1-1.95 1.28c-.82-.1-1.24-.8-.97-1.6a1.95 1.95 0 0 1 1.96-1.32ZM107.08 263.73c-.37-.04-.91.02-1.61-.06-1.73-.2-2.89-1.36-2.07-3.78l1.18-3.47-1.3-.15.74-2.16 1.3.14.22-.65c.22-.63.41-1.27.53-1.73l2.78.3c-.2.46-.42 1.07-.65 1.73l-.22.65 2.41.27-.73 2.17-2.41-.27-1 2.95c-.44 1.29-.06 1.8.72 1.9.27.03.7.01.88-.1l-.77 2.26ZM116.33 259.44c.4-1.17.07-1.94-.86-2.04-1.03-.12-1.81.6-2.2 1.74l-1.06 3.1c-.18.53-.46 1.41-.56 1.96l-2.84-.32c.24-.53.56-1.41.74-1.95l3.6-10.6-.95-.11c.31-.3.9-1.12 1.14-1.45l3.1.35c-.27.54-.54 1.25-.76 1.92l-1.45 4.26a3.8 3.8 0 0 1 2.93-.9c2.18.24 2.64 2.02 1.83 4.4l-1.04 3.07c-.18.54-.46 1.42-.59 1.97l-2.82-.32c.22-.53.54-1.41.73-1.95l1.06-3.13ZM119.22 276.35c.36-1.19 1.32-4.3 1.95-6.9l3.03-12.5c.64-2.64 1.18-5.95 1.38-7.1 0 0 13.78 1.07 15 1l-1.18 4.85a89.61 89.61 0 0 0-6.44-.15h-2.62l-1.62 5.79h2.23c2.55 0 4.6-.08 5.78-.15l-1.18 4.85a68.47 68.47 0 0 0-5.7-.15h-2.24l-.86 3.55c-.63 2.6-1.3 6.28-1.5 7.47l-6.03-.56ZM143.7 269.44a249.9 249.9 0 0 0-1.91 8.67l-5.86-.32c.36-1.19 1.6-5.75 2.23-8.35l3.03-12.5c.63-2.6.96-4.82 1.16-5.96l5.84.32c-.35 1.14-.82 3.05-1.45 5.65l-3.03 12.5ZM151.82 270.72c-.63 2.6-1.46 6.6-1.63 7.79l-5.76-.16c.36-1.19 1.21-5.03 1.84-7.63l3.05-12.57c.63-2.6 1.3-5.7 1.5-6.84h7.87c6.32 0 8.95 3.43 7.8 8.17-1 4.13-3.94 6.23-6.93 7.11 2.2 3.36 3.33 9.46 5.91 12.48l-6.88-.08c-1.2-2.07-3.15-8.27-3.98-11.52-.28.04-.5.04-.74.04h-1.27l-.78 3.2Zm1.73-7.15h2.12c2.5 0 4.64-1.64 5.2-3.93.5-2.07-.54-3.98-3.5-3.98h-1.9l-1.92 7.91ZM172.35 274.49h2.81c2.66 0 5.44-.04 6.62-.12l-1.18 4.86c-1.14-.08-3.9-.16-6.55-.16h-8.18c.6-2.1 6-26.06 6.2-27.2h8.24a123 123 0 0 0 6.63-.2l-1.19 4.9a93.27 93.27 0 0 0-6.55-.16h-2.5l-1.38 5.7h2.2c2.61 0 5.17-.08 6.39-.16l-1.18 4.86c-1.18-.08-3.7-.16-6.32-.16h-2.2l-1.86 7.84ZM182.92 279.23c.4-1.25 1.21-4.44 1.84-7.16l2.79-12.05c.63-2.76 1.56-6.95 1.72-8.14l7.94-.38c6.3-.3 7.82 3 7.07 6.23a8.03 8.03 0 0 1-4.47 5.46c2.25.8 4.2 3.08 3.35 6.79-1.04 4.47-5.51 8.77-12.24 9.09l-8 .16Zm6.87-4.83 1.88-.09c2.93-.14 5.21-1.63 5.81-4.22.6-2.56-.97-3.98-3.67-3.85l-2.15.1-1.87 8.06Zm2.83-12.21 1.91-.1a4.3 4.3 0 0 0 4.1-3.3c.45-1.96-.84-3.09-3-2.99l-1.56.08-1.45 6.3ZM219.71 277.34c-.1-.92-.48-3.02-.7-4.2l-.54-2.76-9.02 1.1s-3.07 5.75-3.64 6.87l-6 .48a95.7 95.7 0 0 0 4.24-6.42l11.01-22.62 4.62-.44 4.94 20.55a79.23 79.23 0 0 0 1.91 6.6l-6.82.84Zm-3.87-18.02-3.56 7.28 5.38-.66-1.82-6.62ZM233.48 270.31s9.03-1.17 10.18-1.25l.4 5.29c-1.16-.08-16 1.92-16 1.92-.06-2.1-1.44-25.82-1.6-26.97l5.92-.72c-.01 1.14 1.1 21.73 1.1 21.73ZM250.53 268.15s8.94-1.25 10.1-1.33l.55 5.04c-1.16-.07-16.08 2.25-16.08 2.25-.05-2.1-1.44-25.82-1.59-26.97l5.67-.72c0 1.14 1.35 21.73 1.35 21.73Z"/><path class="z" d="M87.76 252.29c-.07.43-.09.85-.07 1.27l.08 3.21 3.36-4.12 1.36.15.5 4.53 2.34-3.22c.3-.4.52-.74.61-.9l2.73.3c-.66.68-1.43 1.65-2.06 2.44l-4.87 6.24-.54-.06-.75-5.82-4.35 5.25-.6-.06-.63-7.54c-.05-.72-.1-1.39-.22-2.02l3.11.35ZM96.9 262.55a31 31 0 0 0 .73-1.95l1.85-5.43-.96-.1c.36-.34.87-1 1.16-1.45l3.05.34c-.18.42-.48 1.24-.72 1.93l-1.7 5.01c-.24.71-.52 1.6-.6 1.96l-2.8-.3Zm5.84-12.95c.82.1 1.24.82.96 1.64a1.92 1.92 0 0 1-1.95 1.28c-.82-.1-1.24-.8-.97-1.6a1.95 1.95 0 0 1 1.96-1.32ZM107.08 263.73c-.37-.04-.91.02-1.61-.06-1.73-.2-2.89-1.36-2.07-3.78l1.18-3.47-1.3-.15.74-2.16 1.3.14.22-.65c.22-.63.41-1.27.53-1.73l2.78.3c-.2.46-.42 1.07-.65 1.73l-.22.65 2.41.27-.73 2.17-2.41-.27-1 2.95c-.44 1.29-.06 1.8.72 1.9.27.03.7.01.88-.1l-.77 2.26ZM116.33 259.44c.4-1.17.07-1.94-.86-2.04-1.03-.12-1.82.6-2.2 1.74l-1.06 3.1c-.18.53-.46 1.41-.56 1.96l-2.84-.32c.24-.53.56-1.41.74-1.95l3.6-10.6-.95-.11c.3-.3.9-1.12 1.14-1.45l3.1.35c-.28.54-.54 1.25-.76 1.92l-1.45 4.26a3.8 3.8 0 0 1 2.93-.9c2.18.24 2.64 2.02 1.83 4.4l-1.04 3.07c-.18.54-.46 1.42-.59 1.97l-2.82-.32c.22-.53.54-1.41.73-1.95l1.06-3.13ZM119.22 276.35c.36-1.19 1.32-4.3 1.95-6.9l3.03-12.5c.64-2.64 1.18-5.95 1.38-7.1 0 0 13.78 1.07 15 1l-1.18 4.85a89.61 89.61 0 0 0-6.44-.15h-2.62l-1.62 5.79h2.23c2.55 0 4.6-.08 5.78-.15l-1.18 4.85a68.47 68.47 0 0 0-5.7-.15h-2.24l-.86 3.55c-.63 2.6-1.3 6.28-1.5 7.47l-6.03-.56ZM143.7 269.44a249.9 249.9 0 0 0-1.91 8.67l-5.86-.32c.36-1.19 1.6-5.75 2.23-8.35l3.03-12.5c.63-2.6.96-4.82 1.16-5.96l5.84.32c-.35 1.14-.82 3.05-1.45 5.65l-3.03 12.5ZM151.82 270.72c-.63 2.6-1.46 6.6-1.63 7.79l-5.76-.16c.36-1.19 1.21-5.03 1.84-7.63l3.05-12.57c.63-2.6 1.3-5.7 1.5-6.84h7.87c6.32 0 8.95 3.43 7.8 8.17-1 4.13-3.94 6.23-6.93 7.11 2.2 3.36 3.33 9.46 5.91 12.48l-6.88-.08c-1.2-2.07-3.15-8.27-3.98-11.52-.28.04-.5.04-.74.04h-1.27l-.78 3.2Zm1.73-7.15h2.12c2.5 0 4.64-1.64 5.2-3.93.5-2.07-.54-3.98-3.5-3.98h-1.9l-1.92 7.91ZM172.35 274.49h2.81c2.66 0 5.44-.04 6.62-.12l-1.18 4.86c-1.14-.08-3.9-.16-6.55-.16h-8.18c.6-2.1 6-26.06 6.2-27.2h8.24a123 123 0 0 0 6.63-.2l-1.19 4.9a93.27 93.27 0 0 0-6.55-.16h-2.5l-1.38 5.7h2.2c2.61 0 5.17-.08 6.39-.16l-1.18 4.86c-1.18-.08-3.7-.16-6.32-.16h-2.2l-1.86 7.84ZM182.92 279.23c.4-1.25 1.21-4.44 1.84-7.16l2.79-12.05c.63-2.76 1.56-6.95 1.72-8.14l7.94-.38c6.3-.3 7.82 3 7.07 6.23a8.03 8.03 0 0 1-4.47 5.46c2.25.8 4.2 3.08 3.35 6.79-1.04 4.47-5.51 8.77-12.24 9.09l-8 .16Zm6.87-4.83 1.88-.09c2.93-.14 5.21-1.63 5.81-4.22.6-2.56-.97-3.98-3.67-3.85l-2.15.1-1.87 8.06Zm2.83-12.21 1.91-.1a4.3 4.3 0 0 0 4.1-3.3c.45-1.96-.84-3.09-3-2.99l-1.56.08-1.45 6.3ZM219.71 277.34c-.1-.92-.48-3.02-.7-4.2l-.54-2.76-9.02 1.1s-3.07 5.75-3.64 6.87l-6 .48a95.7 95.7 0 0 0 4.24-6.42l11.01-22.62 4.62-.44 4.94 20.55a79.23 79.23 0 0 0 1.91 6.6l-6.82.84Zm-3.87-18.02-3.56 7.28 5.38-.66-1.82-6.62ZM233.48 270.31s9.03-1.17 10.18-1.25l.4 5.29c-1.16-.08-16 1.92-16 1.92-.06-2.1-1.44-25.82-1.6-26.97l5.92-.72c-.01 1.14 1.1 21.73 1.1 21.73ZM250.53 268.15s8.94-1.25 10.1-1.33l.55 5.04c-1.16-.07-16.08 2.25-16.08 2.25-.05-2.1-1.44-25.82-1.59-26.97l5.67-.72c0 1.14 1.35 21.73 1.35 21.73Z"/><g><path class="x" d="M300.01 256.34c-4.09-2.1-5.68 1.48-5.68 1.48s1.25-2.18 4.75-.2c3.5 1.96 5.4 0 5.4 0-1.6.72-4.47-1.28-4.47-1.28Z"/><path d="M299.21 239.03c3.5 1.97 5.4 0 5.4 0-1.6.72-4.47-1.28-4.47-1.28-4.09-2.1-5.68 1.48-5.68 1.48s1.26-2.17 4.75-.2Z" fill="url(#f)"/><path d="M273.2 244.13c.14-.8.75-2.7 3.54-3.82 3.62-1.46 4.15-4.6 4.15-4.6-.88 1.91-4.04 2.82-4.04 2.82a6.04 6.04 0 0 0-3.7 5.63l.06-.03Z" fill="url(#g)"/><path d="M327.14 250.83c-5.05 3.75-8.2 2.79-19.21-6.1-11.02-8.88-19.69-3.16-19.69-3.16 1.08-3.25 5.06-4.4 5.06-4.4-9.26-.86-15.52 2.98-18.88 6.4a18.1 18.1 0 0 1 4.08-1.2c.28-.05.55-.05.82-.05 4.66-2.81 7.68-2.68 7.68-2.68-1.84.56-3.21 2.16-4.28 3.06 1.79.47 3.39 1.36 4.7 2.64 6.46-1.88 12.75 1.17 12.75 1.17-2.09.06-6.36 1.19-10.32 2.36 1.03 2.34 1.36 5.1.89 8.06a20.4 20.4 0 0 1-5.9 11.13c1.79-.97 3.44-2.2 4.34-3.45 3.84-5.37 7.7-5.23 7.7-5.23-4.23-2.09-6.4.84-6.4.84 7.45-10.09 16.76-6.23 16.76-6.23-.98-2.76-2.66-2.59-2.66-2.59 3.13-1.47 7.61 3.38 7.61 3.38 10.89 5.48 14.95-3.95 14.95-3.95Z" fill="url(#h)"/><path d="M324.16 256.58c-6.92 4.71-9.74.52-9.74.52s3.68 7 11.8 1.9c0 0 5.63-4.66 8.96-3.49 0 0-4.1-3.65-11.02 1.07Z" fill="url(#i)"/><path class="p" d="M338.06 252.28c-.45-.4-2.8-2.28-6.71-2.41a4.3 4.3 0 0 0-6.78-2.5c-1.46 1.07-2.12 1.2-2.53 1.2-2.17 0-9.29-4.53-11.4-7.2s-5.59-6.16-8.8-7.17c-3.23-1-5.04-1.85-11.5-1.86-6.47 0-11.47.4-15.26 2.25-3.8 1.84-5.8 4.72-6.17 8.45a23.03 23.03 0 0 0-9.7 15.09 18.66 18.66 0 0 0-.16 4.52c-1.16.14-2.85.36-4.52.59-.47-7.32-1.01-15.92-1.03-16.8a4.32 4.32 0 0 0-4.87-4.3l-5.67.72a4.3 4.3 0 0 0-3.74 4.79c.1.92.65 10.1 1.07 17.45l-2.74.34c-.4-7.36-.84-15.99-.85-16.84a4.32 4.32 0 0 0-4.85-4.31l-5.91.73a4.3 4.3 0 0 0-2.89 1.61l-.01.03a4.3 4.3 0 0 0-3.77-1.6l-4.61.43a4.32 4.32 0 0 0-3.48 2.4l-2.78 5.73a8.34 8.34 0 0 0-1.46-2.82c-1.32-1.66-3.94-3.64-8.95-3.64l-.98.03-7.94.37a4.3 4.3 0 0 0-.63.09 4.3 4.3 0 0 0-1.77-.29c-1.12.07-3.84.19-6.36.19h-8.25c-1.76 0-3.3 1.09-3.97 2.66-1.7-1.64-4.6-3.23-9.4-3.23h-7.86c-.45 0-.89.09-1.3.22a4.3 4.3 0 0 0-1.1-.22l-5.85-.32a3.92 3.92 0 0 0-.83.05c-.38-.1-.77-.18-1.18-.18h-.18a499.5 499.5 0 0 1-14.82-1 4.32 4.32 0 0 0-4.25 3.58l-.1.58c-.1.64-.26 1.54-.44 2.51l-.43-.26a4.32 4.32 0 0 0-3.44-6.12l-3.09-.34a4.32 4.32 0 0 0-4.02 1.81l-.44.6h-.03l-2.19-.25a5.47 5.47 0 0 0-4.57-2.37 6.3 6.3 0 0 0-5.64 3.7l-.5-.06c-.16-.02-.31-.02-.47-.02-.43 0-.86.06-1.27.19a4.3 4.3 0 0 0-1.72-.57l-1.36-.16a4.32 4.32 0 0 0-1.75.16 4.31 4.31 0 0 0-1.62-.51l-3.11-.35a4.32 4.32 0 0 0-4.71 5.16c.05.28.09.7.12 1.2l.65 7.84a4.32 4.32 0 0 0 3.83 3.94l.6.07a4.32 4.32 0 0 0 2.64-.55 4.3 4.3 0 0 0 2.46 1.12l.54.06a4.32 4.32 0 0 0 2.83-.67c.65.56 1.46.93 2.34 1.03l2.8.3c.15.03.31.03.46.03.68 0 1.32-.17 1.9-.45a7.4 7.4 0 0 0 3.4 1.23c.56.06 1.04.07 1.43.07h.3l.37.02c.16 0 .32-.02.47-.04.25.08.5.14.77.16l2.83.32.49.03c.34 0 .67-.04 1-.12.43.22.91.36 1.41.41l2.73.31c-.32 1.25-.84 3.17-1.7 5.96a4.32 4.32 0 0 0 3.73 5.57l6.03.56a4.32 4.32 0 0 0 4.65-3.55c.24-1.37.87-4.8 1.45-7.2l.06-.25c.99 0 1.81.02 2.5.04-.64 2.45-1.45 5.41-1.7 6.27a4.32 4.32 0 0 0 3.88 5.58l5.86.32a3.92 3.92 0 0 0 1.18-.1c.5.2 1.03.33 1.58.34l5.88.17a4.32 4.32 0 0 0 4.06-2.86c.2.45.41.85.6 1.18a4.32 4.32 0 0 0 3.7 2.16l6.92.08.18-.02.22.02h8.18a121.93 121.93 0 0 1 6.55.16c.4 0 .78-.07 1.14-.17.38.1.77.17 1.18.17l8.2-.17a19.3 19.3 0 0 0 5.94-1.23 4.31 4.31 0 0 0 3.09.98l6-.48c1.5-.12 2.82-1 3.5-2.33l2.55-4.82 2.8-.34c.2 1.2.37 2.2.42 2.63a4.32 4.32 0 0 0 4.82 3.84l6.82-.84c.3-.03.61-.11.9-.21h.1c.19 0 .38 0 .57-.03a428.48 428.48 0 0 1 15.43-1.88c.5 0 1-.1 1.47-.28.08 0 .15 0 .23-.02a405.75 405.75 0 0 1 15.34-2.19h.09a4.32 4.32 0 0 0 4-2.73 13.6 13.6 0 0 0 7.52 2.2c.47 0 .95-.03 1.44-.07 3.23-.3 6.35-1.57 9.1-3.51a4.33 4.33 0 0 0 3.64-.21c1.8-.98 4.26-2.59 5.8-4.74 2.16-3.01 3.99-3.38 4.25-3.42a4.3 4.3 0 0 0 2.9-1.18c.73.18 1.46.29 2.2.29a7.87 7.87 0 0 0 5.54-2.2 4.3 4.3 0 0 0 1.18-2.58c.14-.05.27-.1.4-.17.32.31.69.58 1.1.78l.18.1.16.37c1.18 2.25 4.63 6.07 10.05 6.07 2.55 0 5.2-.85 7.86-2.53.16-.1.31-.2.46-.33 1.44-1.18 3.93-2.62 4.96-2.68a4.3 4.3 0 0 0 4.98-1.94 4.32 4.32 0 0 0-.85-5.42Z"/><ellipse class="aa" cx="275.92" cy="257.66" rx="14.79" ry="11.28" transform="rotate(-53.69 275.92 257.66)"/></g><g><path class="z" d="M87.76 252.3c-.07.42-.08.84-.07 1.26l.08 3.21 3.36-4.12 1.36.15.5 4.53 2.34-3.22c.3-.4.52-.74.61-.9l2.73.3c-.66.68-1.43 1.65-2.06 2.44l-4.87 6.24-.54-.06-.75-5.82-4.35 5.25-.6-.06-.63-7.54c-.05-.72-.1-1.39-.22-2.02l3.11.35ZM96.9 262.55a31 31 0 0 0 .73-1.95l1.85-5.43-.96-.1c.36-.34.87-1 1.16-1.45l3.05.34c-.18.42-.48 1.24-.72 1.93l-1.7 5.01c-.24.71-.52 1.6-.6 1.97l-2.8-.32Zm5.84-12.95c.82.1 1.24.82.96 1.64a1.92 1.92 0 0 1-1.95 1.28c-.82-.1-1.24-.8-.97-1.6a1.95 1.95 0 0 1 1.96-1.32ZM107.08 263.73c-.37-.04-.91.02-1.61-.06-1.73-.2-2.89-1.36-2.07-3.78l1.18-3.47-1.3-.15.74-2.16 1.3.14.22-.65c.22-.63.41-1.27.53-1.73l2.78.3c-.2.46-.42 1.07-.65 1.73l-.22.65 2.41.27-.73 2.17-2.41-.27-1 2.95c-.44 1.29-.06 1.8.72 1.9.27.03.7.01.88-.1l-.77 2.26ZM116.33 259.44c.4-1.17.07-1.94-.86-2.04-1.03-.12-1.81.6-2.2 1.74l-1.06 3.1c-.18.53-.46 1.41-.56 1.96l-2.84-.32c.24-.53.56-1.41.74-1.95l3.6-10.6-.95-.11c.31-.3.9-1.12 1.14-1.45l3.1.35c-.27.54-.54 1.25-.76 1.92l-1.45 4.26a3.8 3.8 0 0 1 2.93-.9c2.18.24 2.64 2.02 1.83 4.4l-1.04 3.07c-.18.54-.46 1.42-.59 1.97l-2.82-.32c.22-.53.54-1.41.73-1.95l1.06-3.13ZM119.22 276.35c.36-1.19 1.32-4.3 1.95-6.9l3.03-12.5c.64-2.64 1.18-5.95 1.38-7.1 0 0 13.78 1.07 15 1l-1.18 4.85a89.61 89.61 0 0 0-6.44-.15h-2.62l-1.62 5.79h2.23c2.55 0 4.6-.08 5.78-.15l-1.18 4.85a68.47 68.47 0 0 0-5.7-.15h-2.24l-.86 3.55c-.63 2.6-1.3 6.28-1.5 7.47l-6.03-.56ZM143.7 269.44a249.9 249.9 0 0 0-1.91 8.67l-5.86-.32c.36-1.19 1.6-5.75 2.23-8.35l3.03-12.5c.63-2.6.96-4.82 1.16-5.96l5.84.32c-.35 1.14-.82 3.05-1.45 5.65l-3.03 12.5ZM151.82 270.72c-.63 2.6-1.46 6.6-1.63 7.79l-5.76-.16c.36-1.19 1.21-5.03 1.84-7.63l3.05-12.57c.63-2.6 1.3-5.7 1.5-6.84h7.87c6.32 0 8.95 3.43 7.8 8.17-1 4.13-3.94 6.23-6.93 7.11 2.2 3.36 3.33 9.46 5.91 12.48l-6.88-.08c-1.2-2.07-3.15-8.27-3.98-11.52-.28.04-.5.04-.74.04h-1.27l-.78 3.2Zm1.73-7.15h2.12c2.5 0 4.64-1.64 5.2-3.93.5-2.07-.54-3.98-3.5-3.98h-1.9l-1.92 7.91ZM172.35 274.49h2.81c2.66 0 5.44-.04 6.62-.12l-1.18 4.86c-1.14-.08-3.9-.16-6.55-.16h-8.18c.6-2.1 6-26.06 6.2-27.2h8.24a123 123 0 0 0 6.63-.2l-1.19 4.9a93.27 93.27 0 0 0-6.55-.16h-2.5l-1.38 5.7h2.2c2.61 0 5.17-.08 6.39-.16l-1.18 4.86c-1.18-.08-3.7-.16-6.32-.16h-2.2l-1.86 7.84ZM182.92 279.23c.4-1.25 1.21-4.44 1.84-7.16l2.79-12.05c.63-2.76 1.56-6.95 1.72-8.14l7.94-.38c6.3-.3 7.82 3 7.07 6.23a8.03 8.03 0 0 1-4.47 5.46c2.25.8 4.2 3.08 3.35 6.79-1.04 4.47-5.51 8.77-12.24 9.09l-8 .16Zm6.87-4.83 1.88-.09c2.93-.14 5.21-1.63 5.81-4.22.6-2.56-.97-3.98-3.67-3.85l-2.15.1-1.87 8.06Zm2.83-12.21 1.91-.1a4.3 4.3 0 0 0 4.1-3.3c.45-1.96-.84-3.09-3-2.99l-1.56.08-1.45 6.3ZM219.71 277.34c-.1-.92-.48-3.02-.7-4.2l-.54-2.76-9.02 1.1s-3.07 5.75-3.64 6.87l-6 .48a95.7 95.7 0 0 0 4.24-6.42l11.01-22.62 4.62-.44 4.94 20.55a79.23 79.23 0 0 0 1.91 6.6l-6.82.84Zm-3.87-18.02-3.56 7.28 5.38-.66-1.82-6.62ZM233.48 270.31s9.03-1.17 10.18-1.25l.4 5.29c-1.16-.08-16 1.92-16 1.92-.06-2.1-1.44-25.82-1.6-26.97l5.92-.72c-.01 1.14 1.1 21.73 1.1 21.73ZM250.53 268.15s8.94-1.25 10.1-1.33l.55 5.04c-1.16-.07-16.08 2.25-16.08 2.25-.05-2.1-1.44-25.82-1.59-26.97l5.67-.72c0 1.14 1.35 21.73 1.35 21.73Z"/><path class="z" d="m92.5 252.75.5 4.54 2.34-3.22c.3-.4.51-.74.61-.9l2.72.3c-.65.68-1.43 1.65-2.06 2.43l-4.86 6.25-.55-.06-.74-5.82-4.35 5.25-.6-.07-.63-7.53c-.06-.73-.1-1.39-.22-2.02l3.1.35a6.3 6.3 0 0 0-.06 1.26l.08 3.22 3.36-4.13 1.36.15ZM100.32 260.86c-.24.7-.52 1.6-.6 1.96l-2.83-.31c.18-.4.52-1.28.75-1.95l1.84-5.43-.95-.1c.35-.33.86-1 1.16-1.45l3.05.34c-.18.42-.48 1.24-.72 1.93l-1.7 5Zm2.43-11.3c.81.09 1.23.81.95 1.64a1.94 1.94 0 0 1-1.95 1.3c-.82-.1-1.24-.82-.96-1.63a1.95 1.95 0 0 1 1.96-1.31ZM108.85 252.13c-.19.46-.42 1.07-.64 1.72l-.22.66 2.41.26-.74 2.17-2.4-.27-1.01 2.96c-.44 1.28-.05 1.8.73 1.9.27.02.7.01.88-.1l-.77 2.26c-.37-.05-.91.01-1.62-.07-1.73-.19-2.88-1.35-2.06-3.77l1.18-3.47-1.3-.15.73-2.17 1.3.15.23-.65c.21-.64.4-1.27.53-1.74l2.77.31ZM116.34 259.4c.4-1.17.07-1.94-.86-2.05-1.03-.11-1.83.62-2.21 1.75l-1.06 3.1c-.17.52-.45 1.4-.56 1.96l-2.84-.32c.25-.53.56-1.41.74-1.93l3.61-10.63-.95-.1c.3-.31.88-1.12 1.14-1.45l3.09.34c-.27.55-.53 1.26-.76 1.93l-1.45 4.26a3.8 3.8 0 0 1 2.94-.9c2.18.23 2.64 2.02 1.83 4.4l-1.05 3.09c-.18.52-.46 1.4-.58 1.94l-2.82-.31c.22-.53.54-1.41.72-1.93l1.07-3.15ZM119.22 276.35c.36-1.19 1.32-4.3 1.95-6.9l3.03-12.5c.64-2.64 1.18-5.95 1.38-7.1 0 0 13.78 1.07 15 1l-1.18 4.85a89.61 89.61 0 0 0-6.44-.15h-2.62l-1.62 5.79h2.23c2.55 0 4.6-.08 5.78-.15l-1.18 4.85a68.47 68.47 0 0 0-5.7-.15h-2.24l-.86 3.55c-.63 2.6-1.3 6.28-1.5 7.47l-6.03-.56ZM143.7 269.44a249.9 249.9 0 0 0-1.91 8.67l-5.86-.32c.36-1.19 1.6-5.75 2.23-8.35l3.03-12.5c.63-2.6.96-4.82 1.16-5.96l5.84.32c-.35 1.14-.82 3.05-1.45 5.65l-3.03 12.5ZM151.82 270.72c-.63 2.6-1.46 6.6-1.63 7.79l-5.76-.16c.36-1.19 1.21-5.03 1.84-7.63l3.05-12.57c.63-2.6 1.3-5.7 1.5-6.84h7.87c6.32 0 8.95 3.43 7.8 8.17-1 4.13-3.94 6.23-6.93 7.11 2.2 3.36 3.33 9.46 5.91 12.48l-6.88-.08c-1.2-2.07-3.15-8.27-3.98-11.52-.28.04-.5.04-.74.04h-1.27l-.78 3.2Zm1.73-7.15h2.12c2.5 0 4.64-1.64 5.2-3.93.5-2.07-.54-3.98-3.5-3.98h-1.9l-1.92 7.91ZM172.35 274.49h2.81c2.66 0 5.44-.04 6.62-.12l-1.18 4.86c-1.14-.08-3.9-.16-6.55-.16h-8.18c.6-2.1 6-26.06 6.2-27.2h8.24a123 123 0 0 0 6.63-.2l-1.19 4.9a93.27 93.27 0 0 0-6.55-.16h-2.5l-1.38 5.7h2.2c2.61 0 5.17-.08 6.39-.16l-1.18 4.86c-1.18-.08-3.7-.16-6.32-.16h-2.2l-1.86 7.84ZM182.92 279.23c.4-1.25 1.21-4.44 1.84-7.16l2.79-12.05c.63-2.76 1.56-6.95 1.72-8.14l7.94-.38c6.3-.3 7.82 3 7.07 6.23a8.03 8.03 0 0 1-4.47 5.46c2.25.8 4.2 3.08 3.35 6.79-1.04 4.47-5.51 8.77-12.24 9.09l-8 .16Zm6.87-4.83 1.88-.09c2.93-.14 5.21-1.63 5.81-4.22.6-2.56-.97-3.98-3.67-3.85l-2.15.1-1.87 8.06Zm2.83-12.21 1.91-.1a4.3 4.3 0 0 0 4.1-3.3c.45-1.96-.84-3.09-3-2.99l-1.56.08-1.45 6.3ZM219.71 277.34c-.1-.92-.48-3.02-.7-4.2l-.54-2.76-9.02 1.1s-3.07 5.75-3.64 6.87l-6 .48a95.7 95.7 0 0 0 4.24-6.42l11.01-22.62 4.62-.44 4.94 20.55a79.23 79.23 0 0 0 1.91 6.6l-6.82.84Zm-3.87-18.02-3.56 7.28 5.38-.66-1.82-6.62ZM233.48 270.31s9.03-1.17 10.18-1.25l.4 5.29c-1.16-.08-16 1.92-16 1.92-.06-2.1-1.44-25.82-1.6-26.97l5.92-.72c-.01 1.14 1.1 21.73 1.1 21.73ZM250.53 268.15s8.94-1.25 10.1-1.33l.55 5.04c-1.16-.07-16.08 2.25-16.08 2.25-.05-2.1-1.44-25.82-1.59-26.97l5.67-.72c0 1.14 1.35 21.73 1.35 21.73Z"/><g><path class="x" d="M300.01 256.34c-4.09-2.1-5.68 1.48-5.68 1.48s1.25-2.18 4.75-.2c3.5 1.96 5.4 0 5.4 0-1.6.72-4.47-1.28-4.47-1.28Z"/><path d="M299.21 239.03c3.5 1.97 5.4 0 5.4 0-1.6.72-4.47-1.28-4.47-1.28-4.09-2.1-5.68 1.48-5.68 1.48s1.26-2.17 4.75-.2Z" fill="url(#j)"/><path d="M273.2 244.13c.14-.8.75-2.7 3.54-3.82 3.62-1.46 4.15-4.6 4.15-4.6-.88 1.91-4.04 2.82-4.04 2.82a6.04 6.04 0 0 0-3.7 5.63l.06-.03Z" fill="url(#k)"/><path d="M327.14 250.83c-5.05 3.75-8.2 2.79-19.21-6.1-11.02-8.88-19.69-3.16-19.69-3.16 1.08-3.25 5.06-4.4 5.06-4.4-9.26-.86-15.52 2.98-18.88 6.4a18.1 18.1 0 0 1 4.08-1.2c.28-.05.55-.05.82-.05 4.66-2.81 7.68-2.68 7.68-2.68-1.84.56-3.21 2.16-4.28 3.06 1.79.47 3.39 1.36 4.7 2.64 6.46-1.88 12.75 1.17 12.75 1.17-2.09.06-6.36 1.19-10.32 2.36 1.03 2.34 1.36 5.1.89 8.06a20.4 20.4 0 0 1-5.9 11.13c1.79-.97 3.44-2.2 4.34-3.45 3.84-5.37 7.7-5.23 7.7-5.23-4.23-2.09-6.4.84-6.4.84 7.45-10.09 16.76-6.23 16.76-6.23-.98-2.76-2.66-2.59-2.66-2.59 3.13-1.47 7.61 3.38 7.61 3.38 10.89 5.48 14.95-3.95 14.95-3.95Z" fill="url(#l)"/><path d="M324.16 256.58c-6.92 4.71-9.74.52-9.74.52s3.68 7 11.8 1.9c0 0 5.63-4.66 8.96-3.49 0 0-4.1-3.65-11.02 1.07Z" fill="url(#m)"/><ellipse class="aa" cx="275.92" cy="257.66" rx="14.79" ry="11.28" transform="rotate(-53.69 275.92 257.66)"/></g></g></g></g></svg>