<svg xmlns="http://www.w3.org/2000/svg" id="Layer_2" viewBox="0 0 626.32 484.76"><defs><style>.cls-2{fill:#ebe717}</style></defs><g id="Layer_1-2"><path d="M590.56 207.07c-2.77-2.74-5.69-5.31-8.74-7.73a26.82 26.82 0 0 0 26.24-26.8V31.66a26.84 26.84 0 0 0-26.84-26.84h-34.9a26.85 26.85 0 0 0-26.38 21.9 26.85 26.85 0 0 0-26.4-21.9h-34.89a26.8 26.8 0 0 0-21.78 11.14C424.12 7.37 408.1 2.52 390.05 2.52c-27.76 0-50.84 11.6-64.49 30.36a75.88 75.88 0 0 0-5.09-5.71c-15.92-16.13-38.64-24.65-65.71-24.65-27 0-49.64 8.55-65.48 24.72a75.86 75.86 0 0 0-8.2 9.94c-18.49-20.43-45.74-32.59-76.76-32.59-28.26 0-54.1 10.12-72.78 28.5-18.72 18.4-29.02 43.83-29.02 71.58s10.3 53.18 29.02 71.59a95.94 95.94 0 0 0 23.05 16.69c-30.91 20.03-49.73 54.99-49.73 98.12V454.6a26.84 26.84 0 0 0 26.84 26.83H82.5a26.84 26.84 0 0 0 26.84-26.83v-52.45a97.09 97.09 0 0 0 20.6 2.14c24.09 0 48.87-8.38 68.63-24.53a41 41 0 0 0 .07 5.46c.74 8.88 4.97 25.14 25.02 34.25 19.22 8.74 31.75 17.23 40.64 27.53 4.14 4.8 8.05 10.26 12.18 16.03 1.97 2.75 4 5.59 6.09 8.39a26.84 26.84 0 0 0 29.2 9.69 26.8 26.8 0 0 0 24.44-8.98c5.59-6.46 13.36-11 26-15.18 6.9-2.28 14.88-3.43 25.15-3.62a38.6 38.6 0 0 0 3.2-.2v1.47a26.84 26.84 0 0 0 26.84 26.83h50.82a26.84 26.84 0 0 0 26.84-26.83v-52.45a97.09 97.09 0 0 0 20.6 2.14c52.42 0 108.14-39.57 108.14-112.9 0-33.17-11.8-63.12-33.25-84.33Z"/><path d="M304.12 484.76a29.5 29.5 0 0 1-23.56-11.83c-2.1-2.82-4.14-5.67-6.11-8.42-4.14-5.77-8-11.16-12.05-15.86-8.64-10-20.9-18.3-39.78-26.87-21.21-9.65-25.7-26.9-26.48-36.34l-.04-.56a111.27 111.27 0 0 1-66.16 21.94c-6.2 0-12.26-.54-18.07-1.6v49.38a29.39 29.39 0 0 1-29.36 29.36H31.7A29.39 29.39 0 0 1 2.34 454.6V291.07c0-41.2 17.23-76.62 47.42-97.9a98 98 0 0 1-19.99-15.12C10.57 159.16 0 133.1 0 104.67s10.57-54.5 29.77-73.38C48.92 12.45 75.4 2.07 104.32 2.07c30.09 0 57.13 11.04 76.5 31.15a78.65 78.65 0 0 1 6.66-7.74C203.8 8.8 227.08 0 254.76 0c27.75 0 51.1 8.78 67.5 25.4a78.3 78.3 0 0 1 3.21 3.45C340.15 10.47 363.5 0 390.05 0c17.21 0 33.15 4.35 46.27 12.6a29.46 29.46 0 0 1 22.33-10.3h34.9c11.44 0 21.57 6.6 26.39 16.46A29.37 29.37 0 0 1 546.32 2.3h34.9a29.39 29.39 0 0 1 29.36 29.36v140.88c0 13.77-9.76 25.52-22.73 28.56 1.56 1.37 3.05 2.77 4.48 4.18 21.92 21.69 34 52.28 34 86.13 0 74.96-57.02 115.4-110.67 115.4-6.2 0-12.26-.53-18.07-1.59v49.38a29.39 29.39 0 0 1-29.36 29.36h-50.82a29.4 29.4 0 0 1-29.33-28.12l-.66.02c-10.02.18-17.77 1.3-24.4 3.49-12.19 4.03-19.63 8.35-24.9 14.44a29.34 29.34 0 0 1-26.16 9.9c-2.55.7-5.19 1.07-7.84 1.07ZM201.37 374.23l-.28 5.66c-.1 1.77-.07 3.5.07 5.14.7 8.32 4.67 23.58 23.55 32.16 19.56 8.9 32.36 17.59 41.5 28.17 4.2 4.87 8.12 10.35 12.28 16.15 2 2.8 4.03 5.63 6.1 8.42a24.45 24.45 0 0 0 26.47 8.78l.55-.17.56.1a24.37 24.37 0 0 0 22.15-8.14c5.9-6.83 14.01-11.6 27.12-15.93 7.13-2.36 15.35-3.55 25.88-3.74 1.01-.02 2-.08 3-.18l2.77-.3v4.25a24.35 24.35 0 0 0 24.32 24.33h50.82a24.35 24.35 0 0 0 24.32-24.33v-55.57l3.05.67a94.56 94.56 0 0 0 20.06 2.08c51.2 0 105.63-38.68 105.63-110.37 0-32.5-11.54-61.82-32.5-82.55-2.62-2.6-5.5-5.14-8.53-7.54l-5.47-4.34 6.98-.15a24.45 24.45 0 0 0 23.77-24.3V31.67a24.35 24.35 0 0 0-24.32-24.33h-34.9a24.32 24.32 0 0 0-23.91 19.86l-2.47 13.33-2.48-13.33a24.31 24.31 0 0 0-23.91-19.86h-34.9a24.4 24.4 0 0 0-19.73 10.1l-1.43 1.98-2.02-1.36c-12.64-8.52-28.35-13.02-45.42-13.02-26.13 0-48.9 10.7-62.45 29.33L325.67 37l-2.07-2.56a73.06 73.06 0 0 0-4.92-5.51c-15.44-15.64-37.54-23.9-63.92-23.9-26.3 0-48.32 8.28-63.69 23.96a73.8 73.8 0 0 0-7.93 9.6l-1.8 2.62-2.13-2.36c-18.53-20.48-45.13-31.75-74.9-31.75-27.58 0-52.8 9.86-71 27.77C15.06 52.8 5.02 77.6 5.02 104.67s10.04 51.86 28.27 69.8a93.45 93.45 0 0 0 22.45 16.25l3.83 1.99-3.62 2.35c-30.88 20.01-48.59 55-48.59 96V454.6a24.35 24.35 0 0 0 24.32 24.33h50.82a24.35 24.35 0 0 0 24.33-24.33v-55.57l3.05.67a94.57 94.57 0 0 0 20.05 2.08c24.33 0 48.14-8.5 67.04-23.96l4.4-3.59Z" class="cls-2"/><path d="M31.7 291.07c0-56.24 37.94-89.78 89.1-89.78 53.18 0 90.45 36.25 90.45 90.12 0 58.27-43.36 86.05-81.3 86.05-20 0-36.94-7.8-47.44-22.7v99.85H31.7V291.07Zm128.06-1.7c0-24.05-15.59-40.65-38.63-40.65-23.03 0-38.62 16.6-38.62 40.66 0 24.05 15.59 40.65 38.62 40.65 23.04 0 38.63-16.6 38.63-40.65ZM223.8 271.9c0-63.9 37.27-110.74 90.13-110.74s90.12 46.85 90.12 110.73-37.27 110.74-90.12 110.74-90.12-46.85-90.12-110.74Zm128.75 0c0-30.25-15.58-51.12-38.62-51.12s-38.63 20.87-38.63 51.11S290.9 323 313.93 323c23.04 0 38.62-20.87 38.62-51.1ZM417.41 291.07c0-56.24 37.94-89.78 89.1-89.78 53.2 0 90.46 36.25 90.46 90.12 0 58.27-43.37 86.05-81.3 86.05-20 0-36.94-7.8-47.44-22.7v99.85h-50.82V291.07Zm128.07-1.7c0-24.05-15.59-40.65-38.63-40.65-23.04 0-38.62 16.6-38.62 40.66 0 24.05 15.58 40.65 38.62 40.65s38.63-16.6 38.63-40.65Z" class="cls-2"/><path d="M300.15 439.52c-8.51-25.26-24.15-45.58-44.54-62.31-4.07-3.34-9.01-6.1-14-7.74-8.89-2.9-16.98 4.25-16.21 13.54.5 6.06 4.05 9.62 9.37 12.04 18.67 8.5 36.29 18.7 49.86 34.43 7.13 8.27 13.19 17.48 19.47 25.92-1.18-4.82-2.14-10.5-3.95-15.88Zm51.66-6c10.75-3.56 21.8-4.76 33.08-4.97 5.27-.1 8.55-3.24 9.68-7.85 1.2-4.87-.23-9.86-4.5-12.1a17.93 17.93 0 0 0-9.4-1.82c-18.3 1.6-32.83 11.29-46.46 22.58-8.96 7.41-16.15 16.24-20.28 27.28 10.21-11.82 23.49-18.36 37.88-23.12Zm-31.02-9.37c3.67-5.56 8.4-10.45 12.89-15.42 2.95-3.27 4.44-6.7 2.77-10.96-1.54-3.92-4.79-5.85-8.75-5.81-4.42.05-7.42 2.66-9.05 6.8-.87 2.22-1.87 4.39-2.72 6.61-4.92 12.87-7.54 26.11-6.62 39.58 3.72-6.85 7.1-14.16 11.48-20.8Zm122.47-293.16c0-34.53-25.84-39.3-46.26-43-13.24-2.39-24.1-4.56-24.1-13.9 0-7.38 5-14.55 17.59-14.55 12.16 0 17.37 6.52 17.59 14.77h33c-1.08-26.93-21.27-44.95-51.03-44.95-30.62 0-51.04 19.1-51.04 46.04 0 34.53 25.85 39.3 46.05 43 13.03 2.39 23.89 4.56 23.89 13.9 0 8.9-5.43 14.55-19.11 14.55-13.69 0-19.12-5.65-19.12-14.55h-34.31c.18 7.57 1.9 14.36 4.96 20.22a94.06 94.06 0 0 1 39.96 24.08c2.74.29 5.58.44 8.5.44 32.15 0 53.43-17.81 53.43-46.05ZM254.76 29.36c-40.4 0-62.33 23.67-62.33 62.33v82.52h34.31v-40.4h55.6v20.03a95.4 95.4 0 0 1 31.59-5.26c1.2 0 2.4.05 3.6.1v-57c0-38.65-22.16-62.32-62.77-62.32Zm27.58 74.05h-55.6V91.7c0-19.55 8.7-29.76 27.8-29.76 19.33 0 27.8 10.21 27.8 29.76v11.72Zm-252.98 1.26c0-42.22 31.01-73.24 74.96-73.24 37.7 0 66.13 22.83 73.24 56.22h-36.84c-5.6-14.43-18.74-23.9-36.4-23.9-23.91 0-39.64 17.22-39.64 40.92s15.73 40.93 39.64 40.93c17.66 0 30.8-9.48 36.4-23.91h36.84c-7.1 33.39-35.54 56.22-73.24 56.22-43.95 0-74.96-31.02-74.96-73.24Zm429.29-73.01h34.9v53.2h52.77v-53.2h34.9v140.88h-34.9v-55.37h-52.77v55.37h-34.9V31.66Z" style="fill:#fff"/></g></svg>