<?xml version="1.0" encoding="UTF-8"?><svg id="b" xmlns="http://www.w3.org/2000/svg" viewBox="0 0 237.12 98.96"><defs><style>.d{fill:#0076be;}.d,.e,.f,.g,.h,.i{stroke-width:0px;}.e{fill:#009ada;}.f{fill:#7dcef1;}.g{fill:#ee3124;}.h{fill:#0377be;}.i{fill:#0e78be;}</style></defs><g id="c"><path class="g" d="M232.52,27.96l.83-5.69c-17-2.48-34.14-2.4-51.06.22,1.41,1.57,2.41,3.38,2.95,5.37,15.68-2.23,31.54-2.2,47.28.09Z"/><path class="g" d="M185.56,32.88c-.33,2.32-1.35,4.38-2.97,6.09,16.67-1.94,33.41-1.17,49.79,2.31l1.19-5.62c-15.8-3.36-31.93-4.28-48.01-2.78Z"/><path class="g" d="M59.91,55.12c1.37-.24,2.75-.47,4.12-.7,4.59-.78,9.18-1.55,13.77-2.27-.15-3.48-.3-6.96-.45-10.45-2.65.31-5.3.64-7.95.97-.34-8.27-.69-16.57-1.03-24.9-3.31.12-6.62.26-9.94.41.27,6.77.54,13.51.81,20.24.22,5.58.45,11.15.67,16.7Z"/><path class="g" d="M94.53,50.48c8.99-1.39,14.6-8.46,14.13-18.05-.47-9.63-6.62-16.06-15.53-16.06-9.3,0-14.81,7.14-14.33,18.32.47,11.03,6.66,17.19,15.73,15.79ZM93.38,26.9c2.62-.12,4.45,2.39,4.63,6.31.18,3.87-1.41,6.57-4,6.85-2.62.28-4.41-2.06-4.59-6.13-.18-4.12,1.41-6.9,3.95-7.02Z"/><path class="g" d="M115,25.78c.35,7.04.7,14.04,1.05,21.02,3.31-.4,6.63-.78,9.94-1.15-.35-6.67-.7-13.38-1.05-20.11,1.36-.03,2.71-.05,4.07-.07.47,0,.95-.02,1.42-.02-.14-2.69-.29-5.39-.43-8.1-.47-.01-.94-.01-1.41-.02-6.54-.14-13.08-.22-19.62-.24.14,2.97.29,5.93.43,8.88,1.87-.06,3.74-.12,5.61-.18Z"/><path class="g" d="M132.9,25.42c1.4-.02,2.8-.04,4.19-.05.35,6.38.7,12.74,1.05,19.06,3.31-.33,6.63-.65,9.94-.95-.35-6.02-.7-12.07-1.05-18.15,1.83,0,3.66,0,5.49.02-.14-2.43-.29-4.86-.43-7.29-6.54-.28-13.07-.5-19.61-.66-.48-.01-.95-.03-1.43-.04.14,2.7.29,5.39.43,8.08.47,0,.94-.01,1.41-.02Z"/><path class="g" d="M169.59,42.32c5.01-.42,8.97-2.04,11.41-4.53,1.32-1.34,2.19-2.93,2.55-4.72.17-.85.23-1.74.17-2.67-.06-.78-.19-1.53-.4-2.26-.58-2.01-1.74-3.8-3.36-5.29-2.74-2.51-6.83-4.16-11.76-4.52-9.3-.67-14.81,4.12-14.33,12.19.47,7.97,6.66,12.54,15.73,11.79ZM173.07,30.4c.18,2.7-1.41,4.51-4,4.6-2.62.09-4.41-1.63-4.59-4.52-.18-2.92,1.41-4.8,3.95-4.74,2.62.06,4.45,1.92,4.63,4.65Z"/><path class="g" d="M76.69,58.55c-4.3.8-8.59,1.63-12.88,2.5-2.02,7.66-4.03,15.15-6.05,22.46,3.35-.41,6.7-.8,10.06-1.17.2-1.14.41-2.28.61-3.42,2.03-.25,4.07-.49,6.1-.72.34,1.11.68,2.22,1.02,3.33,3.11-.31,6.23-.6,9.34-.87.27-.02.54-.05.82-.07-.33-.83-.65-1.65-.98-2.47-2.68-6.74-5.36-13.28-8.04-19.57ZM70.09,68.49c.09-.69.17-1.39.26-2.08.07-.75.14-1.5.21-2.25.15.7.31,1.4.46,2.1.15.67.3,1.34.45,2.01.46,1.48.92,2.98,1.38,4.48-1.16.16-2.33.32-3.49.49.24-1.58.48-3.16.72-4.75Z"/><path class="g" d="M105.3,53.76c-.8,4.22-1.59,8.4-2.39,12.55-1.33-3.92-2.65-7.78-3.98-11.58-4.37.69-8.75,1.41-13.11,2.17.43,6.85.87,13.75,1.3,20.67.06.96.12,1.92.18,2.88.27-.02.55-.04.82-.07,2.81-.23,5.63-.46,8.44-.66-.19-3.14-.38-6.26-.57-9.39-.09-1.46-.16-2.56-.24-3.32-.05-.14-.13-.87-.33-2.13-.06-.36-.14-.9-.22-1.59.16.52.33,1.03.5,1.55.22.7.43,1.39.65,2.09.35,1.08.69,2.16,1.04,3.25,1.1,3.04,2.21,6.12,3.31,9.25,2.03-.14,4.06-.27,6.09-.39.65-3.3,1.29-6.63,1.94-9.97.21-1.06.41-2.12.62-3.18.09-.55.2-1.33.34-2.35.09-.69.19-1.39.28-2.08-.01,2.55-.04,3.48-.02,4.56.02,1,.04,2.12.11,3.35.18,3.14.36,6.29.54,9.45,3.13-.17,6.26-.32,9.4-.46-.49-8.87-.99-17.69-1.48-26.47-4.41.58-8.81,1.2-13.22,1.86Z"/><path class="g" d="M133.05,70.26c-.05-.96-.1-1.91-.15-2.87,2.67-.16,5.34-.3,8.01-.44-.12-2.34-.24-4.68-.37-7.02-2.67.19-5.34.39-8.01.61-.05-.88-.09-1.77-.14-2.65,2.92-.26,5.84-.51,8.77-.74-.14-2.63-.27-5.25-.41-7.87-6.16.64-12.33,1.35-18.49,2.13.49,8.89.99,17.83,1.48,26.8,6.24-.24,12.48-.4,18.73-.49-.14-2.63-.27-5.26-.41-7.88-3,.12-6,.25-9.01.4Z"/><path class="g" d="M165.38,65.39c1.31-.9,1.73-1.32,2.44-2.36,1.23-1.69,1.88-4.04,1.77-6.27-.15-3.16-1.9-6.28-4.37-7.71-2.3-1.31-4.32-1.61-8.66-1.25-4.13.35-8.26.72-12.39,1.13.49,9.54.99,19.13,1.48,28.76,3.25-.03,6.51-.05,9.76-.04-.15-3.11-.31-6.21-.46-9.31.54-.01,1.09-.03,1.63-.04,1.47,3.08,2.94,6.21,4.41,9.38,3.45.03,6.91.09,10.36.17.25,0,.5,0,.75.01-.28-.52-.55-1.04-.83-1.55-1.97-3.71-3.94-7.35-5.91-10.92ZM155.39,55.62c1.35-.08,1.76-.06,2.33.22.74.36,1.26,1.19,1.31,2.22.05,1.08-.45,2.14-1.23,2.49-.39.24-1.38.38-2.46.43-.25.01-.5.02-.76.04-.09-1.78-.18-3.55-.27-5.32.36-.02.72-.05,1.08-.07Z"/><path class="g" d="M172.3,46.64c.46,9.63.92,19.31,1.38,29.01.04.75.07,1.5.11,2.25.25,0,.5.01.75.02,3.08.08,6.17.18,9.25.3-.49-10.76-.99-21.48-1.48-32.16-3.33.17-6.66.36-10,.57Z"/><path class="g" d="M207.38,65.29c-1.63,2.67-3.4,3.82-5.63,3.74-3.02-.11-5.17-2.87-5.34-6.77-.18-3.94,1.78-6.55,4.92-6.56,2.07,0,3.89.92,5.77,3-.17-3.96-.34-7.91-.51-11.86-2.74-1.7-5.19-2.33-7.93-2.24-8.03.32-13.17,7.48-12.71,17.53.46,10.01,6.11,17.21,13.9,17.74,2.36.14,5.3-.5,7.1-1.49.08-.04.16-.09.24-.13h0c.15-.14.42-.28.73-.52-.06-1.29-.11-2.58-.17-3.87-.12-2.85-.25-5.71-.37-8.56Z"/><path class="g" d="M228.13,45.06c-4.29-.03-8.59-.03-12.89.01-1.69,9.77-3.38,19.41-5.07,28.94-.33,1.87-.66,3.74-.99,5.59.07,0,.15.01.22.02,3.29.23,6.58.49,9.86.76.2-1.77.41-3.54.61-5.31,2.04.14,4.07.3,6.11.46.34,1.84.68,3.68,1.02,5.53,3.38.32,6.76.65,10.13,1.01-3-12.62-5.99-24.96-8.99-37.02ZM222.47,55.61c.15,1.11.3,2.22.45,3.33.46,2.49.92,4.99,1.38,7.51-1.16-.06-2.33-.12-3.49-.18.24-2.45.48-4.91.72-7.37.09-1.08.17-2.16.26-3.24.07-1.17.14-2.34.21-3.52.15,1.16.31,2.32.46,3.48Z"/><path class="d" d="M189.89,30.83c.01.17.03.33.04.5-.61.05-1.21.11-1.82.17-.01-.16-.03-.33-.04-.49.16-.02.32-.03.47-.05-.07-.16-.15-.32-.22-.48-.32.04-.64.07-.96.11-.05.17-.1.35-.15.52.16-.02.33-.04.49-.06.01.16.03.33.04.49-.54.06-1.09.12-1.63.18-.02-.16-.03-.32-.05-.48.15-.02.31-.04.46-.06.18-.66.36-1.33.54-2-.17.02-.33.04-.5.07-.02-.16-.03-.32-.05-.49.82-.11,1.64-.22,2.45-.32.01.17.03.33.04.5-.17.02-.34.04-.5.06.32.62.63,1.24.94,1.87.15-.01.29-.03.44-.04ZM188.13,30.07c-.13-.28-.26-.56-.39-.84-.09.31-.17.61-.26.92.21-.03.43-.05.64-.08Z"/><path class="d" d="M190.07,31.32c-.01-.17-.03-.34-.04-.5.18-.02.35-.03.53-.05-.05-.66-.09-1.32-.14-1.98-.18.02-.36.04-.54.06-.01-.17-.02-.34-.04-.5.69-.08,1.38-.15,2.07-.22,0,.17.02.34.03.51-.18.02-.36.04-.55.05.04.67.08,1.34.13,2,.36-.03.73-.06,1.09-.08-.02-.31-.04-.63-.05-.94.24-.02.48-.04.73-.06.02.49.05.98.08,1.47-1.1.07-2.2.15-3.3.25Z"/><path class="d" d="M193.58,31.06c0-.17-.02-.35-.03-.52.18-.01.35-.02.53-.03-.03-.68-.06-1.37-.09-2.05-.18.01-.36.03-.54.04,0-.17-.02-.35-.03-.52.69-.06,1.38-.12,2.07-.17,0,.18.01.35.02.53-.18.01-.37.03-.55.04.03.69.05,1.38.08,2.07.36-.02.73-.04,1.09-.06-.01-.33-.02-.65-.03-.98.24-.01.48-.03.73-.04.01.51.03,1.01.04,1.52-1.1.04-2.2.09-3.3.16Z"/><path class="d" d="M198.56,30.85c0-.37-.01-.73-.02-1.1.21,0,.42-.01.63-.02,0,.2.07.35.19.44.11.09.24.14.39.14.11,0,.21-.04.29-.11.08-.07.12-.15.12-.25,0-.1-.04-.18-.12-.25-.08-.07-.22-.14-.42-.22-.43-.17-.73-.32-.88-.45-.16-.13-.24-.31-.24-.55,0-.28.09-.51.3-.67.2-.17.44-.26.7-.27.3-.01.53.08.7.28,0-.09,0-.18,0-.27.21,0,.42-.02.64-.02,0,.33,0,.67,0,1-.21,0-.42.01-.63.02-.02-.15-.08-.27-.18-.35-.1-.08-.22-.12-.36-.11-.1,0-.19.03-.26.08-.07.05-.11.12-.11.19,0,.07.03.13.09.19.06.06.23.14.52.24.28.1.49.19.64.27.15.08.26.2.35.33.09.14.13.3.13.48,0,.33-.11.57-.32.74-.21.17-.46.25-.75.25-.32,0-.57-.1-.75-.3,0,.09,0,.18,0,.28-.21,0-.42,0-.63.01Z"/><path class="d" d="M201.99,30.81c0-.19,0-.37,0-.56.19,0,.37,0,.56,0,0-.74.01-1.48.02-2.21-.19,0-.38,0-.56.01,0,.26,0,.52,0,.78-.21,0-.43,0-.64.01,0-.44,0-.89,0-1.33,1.14-.04,2.28-.06,3.42-.07-.01.46-.02.91-.03,1.37-.21,0-.42,0-.63,0,0-.26.01-.53.02-.79-.19,0-.39,0-.58,0-.01.74-.02,1.49-.04,2.23.19,0,.37,0,.56,0,0,.19,0,.38-.01.57-.69-.01-1.38-.02-2.07-.02Z"/><path class="d" d="M208.52,30.38c0,.2-.02.4-.03.59-.6-.03-1.21-.06-1.81-.08,0-.19.01-.39.02-.58.16,0,.32.01.47.02-.05-.2-.1-.4-.15-.6-.32,0-.64-.02-.96-.02-.07.2-.14.39-.22.59.16,0,.33,0,.49.01,0,.19-.01.39-.02.58-.54-.02-1.09-.03-1.63-.04,0-.19,0-.38.01-.57.15,0,.3,0,.46,0,.26-.75.52-1.5.79-2.26-.17,0-.33,0-.5,0,0-.19.01-.39.02-.58.82,0,1.64,0,2.46.02,0,.2-.02.39-.03.59-.17,0-.34,0-.5,0,.23.77.46,1.55.68,2.33.15,0,.29.01.44.02ZM206.89,29.21c-.09-.35-.18-.7-.27-1.05-.12.35-.25.69-.37,1.04.21,0,.43,0,.64.01Z"/><path class="d" d="M212.48,30.61c-.01.2-.03.41-.04.61-.37-.03-.74-.06-1.12-.08-.24-.54-.49-1.08-.73-1.62-.14,0-.28-.01-.42-.02-.02.32-.04.64-.06.96.15,0,.31.02.46.03-.01.2-.02.4-.04.6-.64-.04-1.28-.08-1.92-.11,0-.2.02-.4.03-.59.17,0,.34.02.51.02.04-.78.08-1.56.12-2.34-.17,0-.34-.01-.51-.01,0-.2.02-.4.03-.59.76.02,1.51.04,2.27.07.43.02.73.13.9.35.17.22.25.45.23.72-.03.41-.27.7-.71.86.18.37.35.75.53,1.12.16.01.32.02.48.03ZM210.19,28.94c.11,0,.22,0,.33.01.41.02.62-.11.64-.39,0-.14-.03-.25-.12-.32-.09-.07-.22-.11-.38-.12-.14,0-.28-.01-.42-.02-.02.28-.03.55-.05.83Z"/><path class="d" d="M213.95,31.35c.02-.21.03-.41.05-.62.15.01.3.03.45.04.07-.81.14-1.62.21-2.43-.15-.01-.31-.02-.46-.03.02-.21.03-.41.05-.62.57.04,1.14.07,1.71.12.38.03.66.07.84.13.18.06.33.18.45.36.12.18.16.39.14.61-.04.36-.24.61-.6.72.43.21.62.53.57.96-.03.25-.12.45-.27.61-.15.16-.34.26-.56.3-.22.04-.52.04-.91,0-.56-.06-1.11-.11-1.67-.16ZM215.41,30.86c.09,0,.18.02.27.03.24.02.42,0,.52-.06.1-.06.16-.18.18-.36.02-.19-.02-.33-.12-.41-.1-.09-.26-.14-.49-.16-.09,0-.18-.02-.27-.02-.03.33-.06.66-.09.99ZM215.56,29.25c.09,0,.18.02.27.02.19.02.33,0,.43-.06.1-.06.15-.17.17-.33.01-.15-.02-.26-.1-.32-.08-.07-.23-.11-.45-.13-.08,0-.16-.01-.24-.02-.03.28-.05.56-.08.84Z"/><path class="d" d="M220.28,28.14c.64.07,1.13.32,1.45.75.32.43.44.92.37,1.48-.07.56-.32,1-.73,1.33-.41.33-.93.45-1.55.37-.65-.09-1.13-.35-1.44-.77-.31-.43-.44-.9-.38-1.42.06-.54.29-.98.7-1.32.41-.34.94-.48,1.59-.41ZM220.2,28.83c-.29-.03-.54.05-.76.25-.22.2-.36.51-.41.93-.04.37.02.68.19.93.17.25.39.39.68.43.28.04.53-.04.75-.24.22-.2.36-.5.41-.92.05-.37-.01-.69-.17-.94-.16-.25-.39-.4-.7-.43Z"/><path class="d" d="M222.25,32.36c.03-.22.06-.44.09-.65.16.02.32.05.49.07.12-.86.23-1.72.35-2.58-.17-.02-.33-.04-.5-.07.03-.22.06-.44.09-.66.52.06,1.04.13,1.56.2.34.88.67,1.76.99,2.66.09-.6.18-1.2.27-1.8-.16-.02-.32-.05-.48-.07.03-.22.07-.44.1-.67.56.08,1.11.16,1.67.25-.04.22-.07.45-.11.67-.17-.03-.34-.05-.52-.08-.17,1.11-.34,2.22-.51,3.32-.27-.05-.54-.1-.8-.14-.37-1.06-.76-2.12-1.15-3.16-.1.74-.21,1.47-.31,2.21.15.02.3.05.46.07-.03.22-.06.44-.09.66-.53-.09-1.06-.17-1.59-.25Z"/><path class="d" d="M226.94,29.76c.04-.22.07-.45.11-.67.59.09,1.18.19,1.77.29-.04.23-.08.45-.12.68-.12-.02-.24-.04-.36-.06-.1.61-.2,1.21-.3,1.82-.04.24-.06.42-.06.53,0,.11.03.21.1.29.07.08.16.14.28.16.12.02.23.01.32-.04.09-.05.16-.12.2-.22.04-.09.09-.29.14-.6.1-.59.21-1.18.31-1.78-.12-.02-.24-.04-.36-.06.04-.23.08-.45.12-.68.49.08.98.17,1.47.26-.04.23-.08.46-.12.69-.15-.03-.3-.06-.45-.08-.12.68-.24,1.35-.36,2.03-.05.28-.1.47-.15.59-.05.12-.13.23-.24.34-.11.1-.27.18-.46.22-.19.04-.4.04-.63,0-.27-.05-.48-.14-.66-.26-.17-.12-.29-.26-.36-.41-.07-.16-.11-.3-.11-.44,0-.14.02-.37.07-.7.1-.6.19-1.2.29-1.81-.15-.02-.29-.05-.44-.07Z"/><path class="d" d="M230.16,33.82c.08-.46.17-.93.25-1.39.2.04.41.08.61.13-.04.26-.02.46.07.6.09.14.2.23.34.26.11.02.21,0,.3-.07.09-.07.15-.17.17-.28.02-.13,0-.24-.05-.34-.06-.1-.18-.23-.35-.38-.38-.32-.63-.58-.74-.78-.12-.2-.15-.45-.1-.75.06-.36.22-.61.45-.77.24-.16.49-.21.74-.16.29.06.5.23.61.52.02-.11.04-.23.07-.34.21.04.41.08.62.12-.08.42-.16.84-.25,1.26-.21-.04-.41-.09-.62-.13.02-.2-.01-.36-.09-.48-.08-.13-.18-.2-.32-.23-.1-.02-.19,0-.28.04-.08.05-.13.12-.15.22-.02.08,0,.17.04.26.04.09.19.23.45.43.24.19.43.36.55.5.12.14.21.31.26.5.05.19.05.41,0,.64-.08.41-.24.69-.49.85-.25.16-.51.2-.79.14-.31-.07-.53-.26-.65-.56-.02.12-.04.23-.06.35-.2-.04-.41-.09-.61-.13Z"/><path class="d" d="M63.33,58.68c.18-.04.36-.07.54-.11.07-.72.13-1.45.16-2.19-1.26.22-2.52.43-3.78.65-.11.02-.22.03-.33.03-.44,0-.87-.15-1.21-.43-.43-.35-.7-.87-.72-1.43-.03-.64-.05-1.28-.08-1.91-2.1,5.92-7.23,10.79-13.93,13.42l4.1,12.61-14.48-10.52c-.34.01-.67.02-1.01.02-.69,0-1.37-.03-2.04-.07l-14.55,10.57,4.23-13.01c-7.77-3.37-13.22-9.82-13.93-17.35l-.21-.15h.2c-.04-.5-.07-1.01-.07-1.52,0-11.89,11.81-21.53,26.38-21.53,11.4,0,21.11,5.9,24.79,14.17-.06-1.48-.12-2.95-.18-4.43-5.86-7.44-14.95-12.23-25.16-12.23C14.34,23.27,0,37.61,0,55.3s14.34,32.03,32.03,32.03c10.55,0,19.9-5.11,25.73-12.98,1.24-4.58,2.48-9.23,3.72-13.91.23-.89.96-1.57,1.86-1.75Z"/><path class="e" d="M30.53,68.74c.67.04,1.35.07,2.04.07.34,0,.68-.01,1.01-.02l-1.56-1.13-1.49,1.09Z"/><path class="e" d="M57.73,48.98l-15.79,11.47,2.03,6.25c6.7-2.63,11.83-7.5,13.93-13.42-.06-1.43-.12-2.87-.17-4.3Z"/><path class="e" d="M20.21,66.3l1.9-5.85-15.83-11.5c.71,7.53,6.16,13.98,13.93,17.35Z"/><path class="e" d="M57.36,39.93c-3.68-8.27-13.39-14.17-24.79-14.17-14.57,0-26.38,9.64-26.38,21.53,0,.51.03,1.01.07,1.52h19.63l6.13-18.86,6.13,18.86h19.57c-.12-2.96-.24-5.91-.36-8.88ZM46.91,35.67c-4.6-3.67-10.36-4.52-10.41-4.53l.53-3.83c.28.04,6.84.99,12.29,5.34l-2.41,3.02Z"/><path class="f" d="M36.49,31.13c.06,0,5.82.86,10.41,4.53l2.41-3.02c-5.45-4.35-12.02-5.3-12.29-5.34l-.53,3.83Z"/><path class="h" d="M58.34.22h2.29l2.56,7.27h.03l2.5-7.27h2.26v9.28h-1.55V2.34h-.03l-2.57,7.16h-1.34l-2.57-7.16h-.03v7.16h-1.55V.22Z"/><path class="h" d="M71.63.22h1.62v9.28h-1.62V.22Z"/><path class="h" d="M78.01,6.41c0,.36.06.66.18.91.12.25.29.46.51.62.22.16.47.28.75.35.28.07.59.11.92.11.35,0,.66-.04.91-.12.25-.08.46-.19.61-.32.16-.13.27-.28.34-.45.07-.17.1-.34.1-.51,0-.36-.08-.62-.24-.79-.16-.17-.34-.29-.53-.36-.33-.12-.71-.24-1.15-.34-.44-.11-.98-.25-1.62-.42-.4-.1-.73-.24-.99-.41-.26-.17-.47-.36-.63-.57-.16-.21-.27-.43-.33-.66-.06-.23-.1-.47-.1-.72,0-.47.1-.87.29-1.21.2-.34.45-.63.77-.85.32-.23.68-.39,1.09-.5s.82-.16,1.23-.16c.49,0,.94.06,1.37.19.43.13.81.31,1.13.57.33.25.58.56.77.93.19.37.29.79.29,1.28h-1.62c-.04-.6-.25-1.02-.61-1.27-.36-.25-.83-.37-1.39-.37-.19,0-.39.02-.58.06-.2.04-.38.1-.55.19-.16.09-.3.21-.41.37-.11.16-.16.35-.16.58,0,.33.1.59.31.77.2.19.47.33.8.42.03,0,.17.05.41.11.24.06.5.14.8.21.29.08.58.15.86.23.28.07.48.13.6.16.3.09.57.23.79.39.23.17.41.35.57.57.15.21.26.44.34.68.07.24.11.49.11.73,0,.52-.11.96-.32,1.33-.21.37-.49.67-.84.9-.35.23-.74.41-1.18.51-.44.11-.89.16-1.35.16-.53,0-1.03-.06-1.5-.19-.47-.13-.88-.33-1.22-.6-.35-.27-.62-.61-.83-1.03-.21-.42-.32-.92-.32-1.49h1.62Z"/><path class="h" d="M88.14,6.41c0,.36.06.66.18.91.12.25.29.46.51.62.22.16.47.28.75.35.28.07.59.11.92.11.35,0,.66-.04.91-.12.25-.08.45-.19.61-.32.16-.13.27-.28.34-.45.07-.17.1-.34.1-.51,0-.36-.08-.62-.24-.79-.16-.17-.34-.29-.53-.36-.33-.12-.71-.24-1.15-.34-.44-.11-.98-.25-1.62-.42-.4-.1-.73-.24-.99-.41-.26-.17-.47-.36-.63-.57-.16-.21-.27-.43-.33-.66-.06-.23-.1-.47-.1-.72,0-.47.1-.87.29-1.21.2-.34.45-.63.77-.85.32-.23.68-.39,1.09-.5.41-.11.82-.16,1.23-.16.49,0,.94.06,1.37.19.43.13.81.31,1.13.57.33.25.58.56.77.93.19.37.29.79.29,1.28h-1.62c-.04-.6-.25-1.02-.61-1.27-.36-.25-.83-.37-1.39-.37-.19,0-.39.02-.59.06-.2.04-.38.1-.55.19-.16.09-.3.21-.41.37-.11.16-.16.35-.16.58,0,.33.1.59.31.77s.47.33.8.42c.03,0,.17.05.41.11.24.06.5.14.8.21.29.08.58.15.86.23.28.07.48.13.6.16.3.09.57.23.79.39.23.17.41.35.57.57.15.21.26.44.34.68.07.24.11.49.11.73,0,.52-.11.96-.32,1.33-.21.37-.49.67-.84.9-.35.23-.74.41-1.18.51-.44.11-.89.16-1.35.16-.53,0-1.03-.06-1.5-.19-.47-.13-.88-.33-1.22-.6-.35-.27-.62-.61-.83-1.03-.21-.42-.32-.92-.32-1.49h1.62Z"/><path class="h" d="M97.2.22h1.62v9.28h-1.62V.22Z"/><path class="h" d="M103.58,6.41c0,.36.06.66.18.91.12.25.29.46.51.62.22.16.47.28.75.35.28.07.59.11.92.11.35,0,.66-.04.91-.12s.46-.19.61-.32c.16-.13.27-.28.34-.45.07-.17.1-.34.1-.51,0-.36-.08-.62-.24-.79-.16-.17-.34-.29-.53-.36-.33-.12-.71-.24-1.15-.34-.44-.11-.98-.25-1.62-.42-.4-.1-.73-.24-.99-.41-.26-.17-.47-.36-.63-.57-.16-.21-.27-.43-.33-.66-.06-.23-.1-.47-.1-.72,0-.47.1-.87.29-1.21.2-.34.45-.63.77-.85.32-.23.68-.39,1.09-.5s.82-.16,1.23-.16c.49,0,.94.06,1.37.19.43.13.81.31,1.13.57.33.25.58.56.77.93.19.37.29.79.29,1.28h-1.62c-.04-.6-.25-1.02-.61-1.27-.36-.25-.83-.37-1.39-.37-.19,0-.39.02-.58.06-.2.04-.38.1-.55.19-.16.09-.3.21-.41.37-.11.16-.16.35-.16.58,0,.33.1.59.31.77.2.19.47.33.8.42.03,0,.17.05.41.11.24.06.5.14.8.21.29.08.58.15.86.23.28.07.48.13.6.16.3.09.57.23.79.39.23.17.41.35.57.57.15.21.26.44.34.68.07.24.11.49.11.73,0,.52-.11.96-.32,1.33-.21.37-.49.67-.84.9-.35.23-.74.41-1.18.51-.44.11-.89.16-1.35.16-.53,0-1.03-.06-1.5-.19-.47-.13-.88-.33-1.22-.6-.35-.27-.62-.61-.83-1.03-.21-.42-.32-.92-.32-1.49h1.62Z"/><path class="h" d="M113.71,6.41c0,.36.06.66.18.91.12.25.29.46.51.62.22.16.47.28.75.35.28.07.59.11.92.11.35,0,.66-.04.91-.12.25-.08.46-.19.61-.32.16-.13.27-.28.34-.45.07-.17.1-.34.1-.51,0-.36-.08-.62-.24-.79-.16-.17-.34-.29-.53-.36-.33-.12-.71-.24-1.15-.34-.44-.11-.98-.25-1.62-.42-.4-.1-.73-.24-.99-.41-.26-.17-.47-.36-.63-.57-.16-.21-.27-.43-.33-.66-.06-.23-.1-.47-.1-.72,0-.47.1-.87.29-1.21.2-.34.45-.63.77-.85.32-.23.68-.39,1.09-.5.41-.11.82-.16,1.23-.16.49,0,.94.06,1.37.19.43.13.81.31,1.13.57.33.25.58.56.77.93.19.37.29.79.29,1.28h-1.62c-.04-.6-.25-1.02-.61-1.27-.36-.25-.83-.37-1.39-.37-.19,0-.39.02-.58.06-.2.04-.38.1-.55.19-.16.09-.3.21-.41.37-.11.16-.16.35-.16.58,0,.33.1.59.31.77s.47.33.8.42c.03,0,.17.05.41.11.24.06.5.14.8.21.29.08.58.15.86.23.28.07.48.13.6.16.3.09.57.23.79.39.23.17.41.35.57.57.15.21.26.44.34.68.07.24.11.49.11.73,0,.52-.11.96-.32,1.33-.21.37-.49.67-.84.9-.35.23-.74.41-1.18.51-.44.11-.89.16-1.35.16-.53,0-1.03-.06-1.5-.19-.47-.13-.88-.33-1.22-.6-.35-.27-.62-.61-.83-1.03-.21-.42-.32-.92-.32-1.49h1.62Z"/><path class="h" d="M122.77.22h1.62v9.28h-1.62V.22Z"/><path class="h" d="M128.09.22h4.1c.66,0,1.2.1,1.61.29.42.19.74.43.96.71.22.29.38.6.46.94.08.34.12.65.12.94s-.04.6-.12.93c-.08.33-.24.64-.46.93-.23.29-.55.52-.96.71-.42.19-.95.28-1.61.28h-2.47v3.56h-1.62V.22ZM129.71,4.62h2.38c.18,0,.37-.03.56-.08.19-.05.37-.14.53-.25.16-.12.29-.27.39-.47.1-.2.15-.44.15-.73s-.04-.55-.13-.75c-.09-.2-.2-.36-.35-.47-.15-.12-.32-.2-.51-.24-.19-.04-.39-.07-.61-.07h-2.41v3.07Z"/><path class="h" d="M138.46.22h4.1c.66,0,1.2.1,1.61.29.42.19.74.43.96.71.22.29.38.6.46.94s.12.65.12.94-.04.6-.12.93-.24.64-.46.93c-.23.29-.55.52-.96.71-.42.19-.95.28-1.61.28h-2.47v3.56h-1.62V.22ZM140.09,4.62h2.38c.18,0,.37-.03.56-.08.19-.05.37-.14.53-.25.16-.12.29-.27.39-.47.1-.2.15-.44.15-.73s-.04-.55-.13-.75c-.09-.2-.2-.36-.35-.47-.15-.12-.32-.2-.51-.24-.19-.04-.39-.07-.61-.07h-2.41v3.07Z"/><path class="h" d="M148.83.22h1.62v9.28h-1.62V.22Z"/><polygon class="i" points="87.77 94.41 90.46 91.98 79.21 91.98 79.21 90.06 86.83 90.06 86.83 87.76 75.63 87.76 75.63 98.76 86.83 98.76 86.83 96.46 79.21 96.46 79.21 94.41 87.77 94.41"/><polygon class="i" points="100.22 89.74 100.22 87.76 88.79 87.76 88.79 90.04 95.31 90.04 88.79 96.56 88.79 98.76 100.34 98.76 100.34 96.25 93.71 96.25 100.22 89.74"/><polygon class="i" points="97.6 94.4 102.63 94.4 102.63 91.99 100.26 91.99 97.6 94.4"/><polygon class="i" points="110.37 93.37 108.44 87.77 103.84 87.77 103.84 98.76 107.17 98.76 107.17 91.82 109.34 98.76 111.39 98.76 113.57 91.82 113.57 98.76 116.9 98.76 116.9 87.77 112.3 87.77 110.37 93.37"/><polygon class="i" points="127.12 87.77 128.03 90.35 130.98 90.35 130.98 98.76 134.31 98.76 134.31 90.35 137.24 90.35 138.39 87.77 127.12 87.77"/><path class="i" d="M143.51,90.52c1.07,0,1.93.74,2.21,1.6l2.87-1.34c-.66-1.52-2.11-3.2-5.08-3.2-3.36,0-5.97,2.29-5.97,5.69s2.6,5.69,5.97,5.69c2.97,0,4.43-1.75,5.08-3.21l-2.87-1.32c-.28.86-1.14,1.6-2.21,1.6-1.52,0-2.59-1.22-2.59-2.75s1.07-2.75,2.59-2.75Z"/><polygon class="i" points="156.69 87.77 156.69 91.66 152.75 91.66 152.75 87.77 149.42 87.77 149.42 98.76 152.75 98.76 152.75 94.56 156.69 94.56 156.69 98.76 160.02 98.76 160.02 87.77 156.69 87.77"/><path class="i" d="M121.09,87.77l-3.06,8.29c1.26-1.4,2.76-2.25,3.95-2.74l-1.63-1.19h2.16s.67-2.06.67-2.06l.67,2.05h2.16s-1.74,1.28-1.74,1.28l.66,2.05-1.75-1.26-1.75,1.26.38-1.2c-1.38,1.52-2.48,3.66-2.89,4.51h1.72l.43-1.42h4.22l.43,1.42h3.61l-4.06-10.99h-4.19Z"/><path class="i" d="M61.47,91.92l-.64-2.64-.64,2.64h-1.15l-1.21-4.21h1.22l.64,2.81.72-2.81h.83l.72,2.81.63-2.81h1.23l-1.21,4.21h-1.15Z"/><path class="i" d="M64.32,91.92v-4.21h1.09v4.21h-1.09Z"/><path class="i" d="M67.21,91.92v-3.26h-1.18v-.95h3.44v.95h-1.17v3.26h-1.09Z"/><path class="i" d="M72.75,91.92v-1.69h-1.75v1.69h-1.09v-4.21h1.09v1.57h1.75v-1.57h1.09v4.21h-1.09Z"/></g></svg>