<svg xmlns="http://www.w3.org/2000/svg" id="b" viewBox="0 0 631 316.7"><defs><radialGradient id="e" cx="680.9" cy="648.9" r="2.4" fx="680.9" fy="648.9" gradientTransform="translate(-15926.441 15418.575) scale(23.606 -23.606)" gradientUnits="userSpaceOnUse"><stop offset="0" stop-color="#fff"/><stop offset=".1" stop-color="#fffdf4"/><stop offset=".2" stop-color="#fff8d9"/><stop offset=".4" stop-color="#fff0ad"/><stop offset=".6" stop-color="#ffe570"/><stop offset=".8" stop-color="#ffd723"/><stop offset=".9" stop-color="#ffd100"/></radialGradient><clipPath id="d"><path d="M92.3 121.4a71.5 71.5 0 1 0 143 0 71.5 71.5 0 0 0-143 0" style="fill:none"/></clipPath><style>.f{fill:#ffd100}.i{fill:#e1251b}.j{fill:#7b868c}.m{fill:#000b8c}</style></defs><g id="c"><path d="m222.3 6.2 5.4.5L234 24 240.3 8l5.4.5-.1 28.3-5.5-.6V20l-4.4 10.5-3.7-.4-4.3-11.3V35l-5.5-.6V6.2ZM254.3 9.6l5.5.5-.2 28.2-5.5-.5.2-28.2ZM266.8 29.8l5.5.6c0 3.3 1.6 4.8 4 5 2.4.3 4-.6 4-3 .1-2.3-2.4-3.3-5.3-4.5-3.7-1.7-7.8-3.6-7.8-9.2 0-5.2 3.7-8 9.3-7.3 5.4.6 9.1 4.6 9 10.4l-5.3-.6c0-3-1.5-4.5-3.8-4.8-2.4-.2-3.7.7-3.7 2.9 0 2.4 2.4 3.4 5.1 4.6 3.7 1.5 8.1 3.3 8 9.1 0 5.4-3.8 8.2-9.5 7.6-5.7-.6-9.5-4.7-9.5-10.8ZM291.5 32.4l5.5.6c0 3.3 1.6 4.8 4 5 2.4.3 4-.6 4.1-2.9 0-2.4-2.5-3.4-5.4-4.6-3.7-1.6-7.8-3.6-7.8-9.2 0-5.2 3.7-7.9 9.3-7.3 5.4.6 9.1 4.6 9 10.4l-5.3-.6c0-3-1.5-4.5-3.8-4.8-2.4-.2-3.7.8-3.7 2.9 0 2.4 2.4 3.4 5.2 4.6 3.6 1.5 8 3.3 8 9.1 0 5.4-3.9 8.2-9.6 7.6-5.6-.6-9.5-4.7-9.5-10.8ZM318 16.3l5.4.6-.1 28.2-5.5-.6.1-28.2ZM330.4 36.5l5.5.6c0 3.3 1.7 4.8 4.1 5.1 2.3.2 4-.7 4-3s-2.5-3.4-5.4-4.6c-3.6-1.6-7.8-3.6-7.8-9.2 0-5.1 3.7-7.9 9.3-7.3 5.4.6 9.2 4.6 9.1 10.4l-5.4-.6c0-3-1.4-4.5-3.8-4.8s-3.7.8-3.7 2.9c0 2.4 2.4 3.4 5.2 4.6 3.7 1.5 8 3.4 8 9.2 0 5.3-3.8 8.1-9.5 7.5-5.7-.6-9.6-4.7-9.6-10.8ZM355.1 39.2l5.5.5c0 3.3 1.7 4.9 4.1 5.1 2.3.3 4-.6 4-3 0-2.3-2.5-3.4-5.4-4.6-3.6-1.6-7.8-3.6-7.7-9.2 0-5.1 3.6-7.9 9.2-7.3 5.4.6 9.2 4.6 9.1 10.4l-5.4-.5c0-3-1.4-4.6-3.8-4.8-2.3-.3-3.6.7-3.7 2.8 0 2.4 2.4 3.4 5.2 4.6 3.7 1.5 8 3.4 8 9.2 0 5.3-3.8 8.1-9.5 7.5-5.7-.6-9.6-4.7-9.6-10.7ZM381.6 23l5.5.6-.2 28.2-5.5-.6.2-28.2ZM395.6 24.5l8.8 1c5.5.5 9.5 4.6 9.5 11.2v1c0 6.7-4 9.8-9.6 9.2l-3.3-.3v6.7l-5.5-.6.1-28.2Zm8.2 17.1c2.4.3 4.6-.6 4.6-4.4v-1c0-4.2-2.3-5.3-4.6-5.6l-2.7-.2v11l2.7.2ZM421.3 27.2l8.8 1c5.6.5 9.5 4.6 9.5 11.2v1.1c0 6.7-4 9.7-9.6 9.1l-3.3-.3V56l-5.5-.6.1-28.2Zm8.2 17.1c2.4.3 4.7-.6 4.7-4.4v-1c0-4.2-2.3-5.3-4.6-5.5l-2.8-.3v11l2.7.2ZM447.3 30l5.5.5-.2 28.2-5.4-.5V30ZM473.3 32.7l5.4.6v23l9.3.9v5.3L473 60.9l.2-28.2ZM493.5 53.7v-9.6c0-5.7 4-9.4 9.5-8.8 5.5.6 9.4 5 9.4 10.8v9.6c0 5.8-4 9.3-9.5 8.8-5.6-.6-9.4-5-9.4-10.8Zm9.4 5.5c1.9.2 4-.6 4-3.8v-10c0-3.2-1.8-4.6-4-4.8-1.9-.2-3.8.6-3.8 3.9v10c0 3.1 1.7 4.5 3.8 4.7ZM524 43.4l-5.9-.6v-5.3l17.2 1.8v5.3l-5.9-.6v22.9l-5.6-.6.2-23ZM546 45.7l-5.8-.6v-5.3l17.2 1.8v5.3l-5.9-.6v22.9l-5.6-.6.1-22.9ZM563.5 42.2l15.8 1.7v5.3l-10.3-1v6.4l7.6.8v4.8l-7.7-.8v6.4l10.3 1v5.3l-15.8-1.6.1-28.3ZM586.6 44.7l9 1c5.5.5 9.3 4.6 9.3 11.1v.8c0 4.4-2 7.1-5 8.2l4.7 9-6-.6-3.7-7.7-2.9-.3v7.3l-5.5-.6.1-28.2Zm8.2 16.5c2.4.3 4.6-.5 4.6-4.2v-.8c0-4-2-5-4.6-5.4l-2.7-.2V61l2.7.2ZM617.4 66l-7.8-18.9 5.7.6 5 12.5 5-11.4 5.7.6-8.1 17.2v10.1l-5.5-.5V66Z" class="m"/><path d="M121.5 269.7a431 431 0 0 1-28.1-10.4 225.5 225.5 0 0 0 54.8 24.2 204 204 0 0 0 36 7.7l.8-5.9a384 384 0 0 1-63.5-15.6" class="f"/><path d="m436.7 160.6 22.7.1v-5l-22.8-.1.1 5zM464.4 155.7v8h3.5v9.8c2.5 6.6 6 12.4 10.2 17.3a42.4 42.4 0 0 0 35.1 14.9 44 44 0 0 0 30.1-15.9 42.5 42.5 0 0 1-27.8 11 42.4 42.4 0 0 1-32.4-15c-10-11.5-15.3-27.9-15.3-47.5 0-20.3 5.4-37.3 15.2-48.7l-.9.7a60.7 60.7 0 0 0-17.7 35.2v30.2ZM529.4 124c-1.8-5-5.2-8-9.3-8.3-2.9-.2-5.5.8-7.7 3-1 .8-1.9 2-2.7 3.2 1.7-.9 3.5-1.3 5.4-1.2 3.2.2 6 2.1 7.9 5.3l13.6.5 18.7-8.8-.5-3-.1-.5-24.5 12-.8-2.3ZM253.1 258l1-4.3 8-27.5-3.7.2-7.5 25.9 2.2 5.7Z" class="j"/><path d="m510.4 130.8-.3 28.4 1.4 1.7a11 11 0 0 0 2.7 2h8.4c2-1 4-2.6 5-5h-12.5l.2-27-5-.1ZM392.5 206.2l-3.9.2.1 4.7 74.2-4.3v-4.7l-69.2 4-1.9-137-5.1-.5 1.5 109.6 4.3 28zM436.4 114.2l25.5 1.5v-5.3l-25.6-1.5.1 5.3zM623.2 220.4c-2-1.7-3.9-2.5-5.8-2.4-.3 0-.9.2-1 .7l.6.1 3.3.7c1 .3 2 .5 3 1ZM611.7 238.6s1.7-.3 1.7-1.3l-.7-.2-3.1-.4a14 14 0 0 1-5.5-1.9l.8.8c2.4 2.2 4.7 3.2 6.8 3ZM601.7 233a14 14 0 0 1-3.6-10.7c.2-5.3 1.8-9.6 4.2-13-2 1.4-3.9 3.2-5.3 5.5l-1.1 35.8 5.8-17.7ZM558.6 167.2l-8.5 34.5 31.6-1.9.8-4.7-27.4 1.6 26.7-107.9-3.7-.4-16.3 66.2c-.7 4.3-1.7 8.5-3.2 12.6ZM603.3 181.1l-14.3.6-.9 4.8 10.2-.4 1.8 12.7 27.7-1.7-.9-4.6-21.8 1.2-1.8-12.6zM578.4 223.8v-2.6l.3-12.9-4.9.3-.1 5.3 4.7 10ZM317.3 210.6l-28.4 1.7-21.7-66.4a245 245 0 0 1-2.2-8.3c0 2.4-.2 4.7-.3 7l-.7 12 19.9 60.7 32.2-1.9 1.2-4.8ZM519.6 268.3l-4.5.3c-6.6 0-12.7-2.1-17.2-6.2a28.2 28.2 0 0 1-8.9-22.2c0-8.5 3-16.3 7.7-22.2-4.7 3.8-8.4 9-10.6 15v24.3c1.4 4 3.7 7.4 6.7 10.1 4.6 4 10.7 6.2 17.3 6.2a33.2 33.2 0 0 0 25.5-12.1c-4.5 3.6-9.9 6-16 6.8ZM386.8 206.5l-40.4 2.4-7-69-.7 2.8-3.3 12.6 6 58.6 46.1-2.7-.7-4.7ZM414.9 281.4l-.8-63.8-5.1.3.5 39.4 2.8-.3.4 24.7-2.9.4v4.3l45.1-6-.1-4.3-39.9 5.3zM578.3 259.5 569 241v1l-.3 13.4 4.6 9.1 17.4-2.3v-4.4l-12.4 1.7ZM612.8 255.7l-3.3.2c-4.3 0-8.8-1-12.5-3l-1.2-.6-.1 4.9-4 .5.3.2a27.7 27.7 0 0 0 15.8 2.8c5.2-.7 10.7-3.7 14.3-8.7a21 21 0 0 1-9.3 3.7ZM362.5 288.5l-1.7-67.8-5.1.2 1.7 72.6 50.2-6.8v-4.3l-45.1 6.1zM549 263.4l1.1-53.4-5 .2-.1 9.7a36 36 0 0 1-.6 30.8l-.4 17.8 19.6-2.7v-4.3l-14.6 2ZM461.5 275.2V215l-5 .2v37l3.3-.4.1 23.6-3.4.5v4.3l24.5-3.3v-4.3l-19.5 2.6zM256.1 214.2l-55.7 3.3 18.9-166.3-5.6-.4-19.5 171.6 61.6-3.5.3-4.7zM186.8 312l11.6-82.2h-5.6l-12.2 86.9 41.2-5 .3-4.4-35.3 4.7zM303 129.7c.5-4.3 1.1-8.6 2-12.6l13-55.7-3.8-.3-13.8 59.2 2.6 9.4ZM322.1 293.9l-2.4-70.9-5.2.3 2.6 75.6 32.2-4.3-.1-4.4-27.1 3.7zM282.9 299.1l-5-32.9-3.9 12.1 3.9 25.8 33.8-4.5-1-4.2-27.8 3.7zM244.2 304.3l-14.8-32.5a444 444 0 0 0-.3-.6l-.9 14 11 24.1 22.3-3 1.5-4.5-18.8 2.5Z" class="j"/><path d="m221.8 48 58.6 6.2 22.5 83.5h1.3c.7-6.7 1.4-13.7 2.9-20.2l13.7-59.2 47.6 5 21.7 141-41.8 2.4-8-79-1-.1c-.7 4.8-1.4 9.9-2.6 14.6l-17.2 66.2-29.1 1.7-21.2-64.9c-1.9-6.7-3.5-13-4.2-19.8h-1.8l-.6 19.2-3.8 67.3-56 3.3 19-167.1ZM393.9 65.9l70.9 7.4v35.2l-30.6-1.8.1 12.6 27.9 1.2.1 33h-27.8l.1 12.8 31.2-.5v34l-70.1 4.1-1.8-138zM561.3 129.5c-.5 18.1-.8 33.2-9.7 47.4a43.9 43.9 0 0 1-33.5 21.6 40.2 40.2 0 0 1-33.4-14.1c-9-10.4-14.8-26-14.7-46.1 0-41.4 22.2-64.2 49.5-61.3a47.3 47.3 0 0 1 38.3 33.3l-26.4 12.9c-2.2-6-6.4-9.3-11.2-9.6-10.9-.6-17.1 12.5-17.2 27-.1 13.3 5.7 25.5 15.5 25.4 4.7-.1 10.6-3.2 12-10.3h-13.3l.3-27.8 43.8 1.6ZM592 154.6l5.3-32h.8c.4 4.5.7 9.1 1.3 13.6l2.3 18.4H592Zm-4.8 25 18-.7 1.7 12.6 23.4-1.4-18.9-101.6-26.7-2.8-26.9 108.7 27-1.6 2.4-13.2Z" class="i"/><path d="m321.7 220.3 28.5-1.7 1.9 69.1-28 3.8-2.4-71.2zM362.8 217.9l26.1-1.4.8 45.1 20.5-2.2.3 20.5-46 6.2-1.7-68.2zM416.2 214.9l23-1.3.3 42.6 18.2-2v19.4l-40.8 5.4-.7-64.1zM463.6 212.2l20.5-1.1-.2 58.9-20.3 2.8v-60.6zM552.3 207.2l15.5-.8 13.2 27.9h.4c-.5-4.3-1-8.7-1-13l.5-15.7 14.2-.8-1.5 50.5-14 2-13-25.8h-.4c.4 3.7.8 7 .7 10.5l-.4 17-15.3 2 1-53.8ZM602.8 236.5l.6.6c2.5 2.2 5.4 4 8.6 3.6 1.3-.2 3.5-1.1 3.5-3.3.1-2.2-1.7-2.2-3-2.4l-2.6-.4c-5.4-.7-10-4.4-9.7-12.2.4-12 9-19.2 17.3-19.6 4.2-.3 8 .9 11.4 3.6l-4 12.6c-2.2-1.9-4.7-3.3-7.6-3-1.2 0-3 .8-3 2.8-.1 1.8 1.6 2 2.6 2.2l3 .6c5.6 1.2 9.4 4.8 9.1 12.9-.4 11.3-8.5 18-16.4 19-4.8.7-10.3-.2-14.6-2.5l4.8-14.5ZM201 227l37.3-2 15.1 39.7h1c.4-3.4.8-7 1.7-10.4l9-30.8 32.5-1.9 16.5 71.2-29.4 4-6-40h-.7c-.5 2.6-1 5.2-1.8 7.7L265 299.4l-19.5 2.6-14.1-31a43 43 0 0 1-2.8-9.6l-1.1.1-.4 9.6-2.2 33.7-35.5 4.7 11.6-82.4ZM520 208.1a31.1 31.1 0 0 0-28.8 32.1c-.2 18.7 12.8 28 28.1 26a30.8 30.8 0 0 0 26.8-31.2c.3-17.1-11.2-27.7-26-26.9" class="m"/><path d="m517.8 231.2 4.5-15.2 4.9 14.5 12.7-1.1-9.8 9.4 4.4 13.1-11.3-6.6L510 258l5-17.2-14.6-8.4 17.4-1.2z" style="fill:#fff"/><g style="clip-path:url(#d)"><path d="M92.3 49.9h143.1V193H92.3z" style="fill:url(#e)"/></g><path d="M162 206.7c-7.6.3-14.8 0-21.8-1a67.2 67.2 0 0 0 43.5 9.1 58.9 58.9 0 0 0 26.8-9.3l1.5-1.1.7-.5a67.7 67.7 0 0 0 24.7-30l.1-.3.5-1.2c1-2.2 1.7-4.4 2.3-6.7-13.7 22.8-43.3 39.4-78.4 41" class="f"/><path d="m219.7 120.3 1.2-13.2-7.2 9-10-7 4-12.7 10.7 2.2-8.4-10 3.6-11.4-9 4.8-9.7-11.7 3.4 15.4-10.3 5.5-8.2-13.5 8.5-10.7-14.5.7-9.8-16.4v17l-19.2 1L164 79.4l-.3 17.3H144l-9.6-20-5.7 19.8-28.3-.3 24.7 13-6.4 22.3 20.3-15.4 18.3 9.7-8.3 18.8-25 1 19 12.4-10.3 22.7 20.4-16.1 15.2 9.9-4-19L179 144l9.5 12.3-8.8 17.5 14.6-10 8.3 11-.7-16.2 11.2-7.7-11.8-2.5-.6-15.4 11.4-2.9 5.4 12.6 1.3-14.2 9.2-2.2-8.4-6Zm-19.2 12.5-7 13.8-14.4-3-17.2.5-4-18.3-8.3-17.5 14.5-11.2 10-12.2 13.7 7.2 12.4 2.7 3.2 14.4 5.5 13-8.4 10.6Z" class="m"/><path d="M34.4 78.8c-6.4 16.4-3.1 55.8 11.6 83 5.4 11.2 12 22.1 19.7 32.7a200.3 200.3 0 0 1-50.1-94C24.9 87 28.5 84.7 34.4 78.8Z" class="i"/><path d="M134.6 45c3.5-1.5 5.9-2.1 9.6-3-8.4-4.8-72.4-38.8-119.5-6.8C-15.1 62.2 4 118 8.4 128.9c11.6 31.6 34.7 63.7 65 90.4a229.7 229.7 0 0 0 96.4 49.6l.3-1c-19.6-9.4-37.4-25-55-40.5-51.9-45.4-79.9-106-68.2-146A241.7 241.7 0 0 1 83.5 104c.6-2.4 1.2-4.9 2-7.2-12.6-9.2-25.8-17-39.1-23.3l-3.5-1.7-1.3 3.6c-7.7 20.7-5 47.8 7.4 76.2a239.5 239.5 0 0 0 61.4 81.2c7.8 6.9 15.9 13.2 24.2 19A250 250 0 0 1 78 214c-29.5-25.9-52-57-63.1-87.6C11 116.4-6.7 65 28.6 41a74.8 74.8 0 0 1 42.7-12.1c26.4 0 51.5 10.4 63.3 16Z" class="f"/><path d="M123.6 50.2c-14.8-5.8-37.3-14-52-14A68.5 68.5 0 0 0 29.9 49l-.6.5-.1.1-1.6 1.3-.2.3-.5.4-1.7 1.7-1 1.1v.1a41.8 41.8 0 0 0-2 2.6l-.2.2c-7.2 10.2-9 22.9-8.2 34.8 1.7-2.6 3.6-5.2 5.7-7.6A80 80 0 0 1 42 65.1l5.6 2.6 1.8.9C58.8 73 76 82.6 88 90a83.5 83.5 0 0 1 35.6-39.8Z" class="f"/><path d="M76.6 116a82.9 82.9 0 0 1 26.6-61 69.8 69.8 0 0 0 0 122 83 83 0 0 1-26.6-61Z" class="i"/></g></svg>