<svg xmlns="http://www.w3.org/2000/svg" xmlns:xlink="http://www.w3.org/1999/xlink" viewBox="0 0 658.322 318.158"><defs><linearGradient id="a" x1="268.712" y1="144.673" x2="268.712" y2="259.256" gradientUnits="userSpaceOnUse"><stop offset="0" stop-color="#fff"/><stop offset="1" stop-color="#daa900"/></linearGradient><linearGradient id="b" x1="490.887" y1="131.298" x2="464.727" y2="203.57" xlink:href="#a"/><linearGradient id="c" x1="579.123" y1="-2.597" x2="518.268" y2="275.741" xlink:href="#a"/><linearGradient id="d" x1="329.161" y1="-48.247" x2="329.161" y2="219.848" gradientUnits="userSpaceOnUse"><stop offset="0" stop-color="#12284c"/><stop offset=".545" stop-color="#4c5775"/><stop offset="1" stop-color="#12284c"/></linearGradient><style>.a{fill:#f9dfa7}.c{fill:#12284c}.d{fill:#fff}.e{fill:#daa900}.f{fill:url(#b)}.g{fill:#231f20}.h{fill:url(#c)}.i{fill:#ccced8}.j{fill:#edc65a}.k{fill:#f0ca68}</style></defs><path class="a" d="M282.461 270.98a17.868 17.868 0 0 1-16.685-12.617c-19.951-.006-128.5-.046-128.5-.046a17.1 17.1 0 0 1-16.523-21.5l-23.883-.21a17.445 17.445 0 0 1-16.528-22.931c13.789-41.61 13.789-41.61 13.809-41.665.2-.593.434-1.259.678-1.916.086-.23.281-.727.281-.727.172-.446.361-.928.559-1.4.067-.165.333-.777.333-.777a51.457 51.457 0 0 1 .948-2.077 48.652 48.652 0 0 1 .995-1.972c.192-.364.413-.77.638-1.169l.368-.651c.276-.474.513-.866.753-1.254l.352-.57c.325-.511.612-.941.9-1.366.122-.184.229-.344.338-.5.337-.488.7-.988 1.067-1.479l.186-.249c.871-1.15 1.8-2.272 2.765-3.343l.149-.163c.445-.487.881-.948 1.326-1.4l.274-.274c.382-.382.806-.793 1.235-1.193l.278-.254c.447-.409.87-.783 1.3-1.147l.325-.274c.429-.36.876-.721 1.328-1.072l.275-.213c.5-.385.984-.737 1.468-1.079l.239-.169a46.26 46.26 0 0 1 1.665-1.111l.087-.055a46.376 46.376 0 0 1 24.843-7.189 35.954 35.954 0 0 1 17.554 4.274 44.289 44.289 0 0 1 19.139-4.274 36 36 0 0 1 19.92 5.5l.23-.1a3.6 3.6 0 0 1 4.97 3.265c.076 4.305.1 8.706.059 13.126l248.138 5.741a3.6 3.6 0 0 1 3.481 4.1l-6.033 42.731 9.072 7.364a3.6 3.6 0 0 1 .959 4.389l-16.422 33.236a3.6 3.6 0 0 1-3.226 2l-131.707.04s-.4 1.244-.415 1.28a17.142 17.142 0 0 1-16.1 11.336Z"/><path d="m443.712 212.844 6.318-44.744-251.7-5.81q.121-7.992-.018-16.579a19.3 19.3 0 0 0-1.955.93c-5.149-3.973-11.884-6.066-19.565-6.066a40.717 40.717 0 0 0-19.3 4.782 31.5 31.5 0 0 0-17.392-4.782 42.8 42.8 0 0 0-22.92 6.625l-.08.05c-.529.336-1.052.686-1.52 1.013l-.237.168c-.448.317-.892.643-1.344.988l-.268.208a41.59 41.59 0 0 0-1.213.978l-.315.266c-.395.337-.786.682-1.2 1.059l-.26.238c-.4.369-.787.748-1.145 1.107l-.255.253c-.41.416-.815.843-1.23 1.3l-.132.144c-.9.992-1.758 2.034-2.559 3.092l-.184.245c-.34.455-.675.919-1 1.383-.1.136-.189.275-.31.457-.269.4-.537.8-.818 1.242l-.35.565c-.224.364-.447.732-.691 1.151-.125.219-.252.441-.356.629a47.504 47.504 0 0 0-.995 1.859 70.913 70.913 0 0 0-.91 1.876c-.178.388-.353.785-.513 1.155l-.046.106c-.1.229-.2.459-.268.625-.184.44-.36.889-.53 1.329 0 0-.181.462-.257.664a59.47 59.47 0 0 0-.66 1.866l-13.783 41.592a13.844 13.844 0 0 0 13.142 18.2l28.861.253-1.223 3.478a13.5 13.5 0 0 0 12.737 17.979l131.611.048a11.413 11.413 0 0 0 2.542 6.9 13.5 13.5 0 0 0 11.034 5.72h7.261a13.5 13.5 0 0 0 12.711-8.95l1.184-3.665 134.327-.04 16.421-33.235Z" fill="url(#a)"/><path class="c" d="M99.088 206.24a15.292 15.292 0 0 0-.132 2.541l.061 6.327 6.076-8.923h.746l.228 8.9 4.533-6.885c.662-1.022 1.09-1.795 1.172-1.961h2.294c-.791.967-1.449 1.795-2.175 2.873l-6.757 9.892h-.5l-.324-9.339-6.473 9.339h-.553l-.337-9.946a25.312 25.312 0 0 0-.154-2.819ZM112.131 218.591c.263-.608.72-1.906 1.069-2.874l2.761-8.234h-1.189c.325-.3.691-.856 1.029-1.243h2.653a38.572 38.572 0 0 0-1.061 2.819l-2.2 6.658c-.357 1.022-.76 2.321-.9 2.874Zm5.279-16a1.733 1.733 0 0 1 1.6-1.355.844.844 0 0 1 .822 1.077 1.713 1.713 0 0 1-1.627 1.356.839.839 0 0 1-.795-1.076ZM123.008 218.645c-.386 0-.878.139-1.487.139-1.8 0-3.032-1.078-2.018-4.117l2.474-6.8h-1.907l.565-1.629h1.908l.339-.912c.34-.912.666-1.74.865-2.459h2.045c-.318.774-.613 1.574-.948 2.459l-.339.912h2.874l-.539 1.629h-2.874l-2.334 6.439c-.719 2.072-.2 2.791.878 2.791a2.04 2.04 0 0 0 1.132-.331ZM125.447 218.591c.276-.691.762-1.989 1.065-2.847l5.42-16.19h-1.216a8.2 8.2 0 0 0 .973-1.244h2.764a25.312 25.312 0 0 0-1.037 2.846l-2.339 6.99a6 6 0 0 1 4.408-2.155c3.04 0 3.61 2.293 2.579 5.444l-1.438 4.309c-.271.829-.706 2.156-.844 2.847h-2.211c.249-.691.762-1.989 1.038-2.847l1.447-4.365c.755-2.294.327-3.758-1.663-3.758a5.026 5.026 0 0 0-4.417 3.758l-1.474 4.365a28.745 28.745 0 0 0-.844 2.847Z"/><path class="d" d="M58.566 78.16c10.681-32.223 35.316-47.74 60.381-47.74 17.107 0 27.924 7.561 30.409 21.683 11.838-14.122 27.674-21.683 44.781-21.683 25.065 0 39.417 15.517 28.737 47.74l-28.146 84.94H174.44l28.147-84.94c6.592-19.889-1.517-29.04-16.238-29.04-14.919 0-29.025 9.548-35.485 29.04l-28.146 84.94H102.43l28.147-84.94c6.46-19.492-1.319-29.04-16.238-29.04-14.72 0-28.893 9.151-35.485 29.04L50.708 163.1H30.42ZM213.919 130.7c6.847-20.669 26.331-35.2 47.271-35.2 20.665 0 30.386 14.134 23.406 35.205l-10.741 32.4h-11.6l4.773-14.4c-7.934 10.667-19.484 16.135-30.953 16.135-17.204-.007-29.363-12.407-22.156-34.14Zm58.315-.534c4.418-13.335-1.465-22.936-15.07-22.936s-25.85 9.6-30.268 22.936 1.465 22.936 15.07 22.936 25.849-9.602 30.268-22.939ZM291.311 138.163l21.3-64.273h12.67l-7.732 23.336h36.275l-3.847 11.6H313.7l-9.721 29.335c-3.445 10.4.52 14.936 8.79 14.936s15.325-4.4 18.817-14.936l.487-1.467h12.533l-.487 1.467c-5.921 17.869-19.5 26.67-35.239 26.67s-23.49-8.799-17.569-26.668ZM350.77 130.163c6.63-20 26.161-34.671 46.964-34.671 17.466 0 27.088 10.4 25.519 25.6h-12.8c-.416-8.4-6.337-13.867-16.606-13.867-13.606 0-25.855 9.6-30.273 22.936s1.47 22.936 15.07 22.936c10.269 0 19.815-5.469 25.8-13.869h12.8c-8.506 15.2-25.022 25.6-42.493 25.6-20.801.005-30.606-14.664-23.981-34.665Z"/><path class="e" d="M241.853 47.085c2.016-6.083 6.761-9.145 11.629-9.145 3.533 0 5.723 1.688 5.99 4.789a11.386 11.386 0 0 1 9.164-4.789c4.869 0 7.584 3.062 5.568 9.145l-5.645 17.036h-2.827l5.645-17.036c1.444-4.356-.38-6.556-3.8-6.556-3.454 0-6.734 2.317-8.139 6.556L253.8 64.121h-2.827l5.644-17.036c1.4-4.239-.34-6.556-3.8-6.556-3.416 0-6.7 2.2-8.141 6.556l-5.644 17.036h-2.826ZM289.272 38.449h2.828l-8.506 25.672h-2.828ZM297.448 56.9h2.787c-.961 3.257.809 5.142 4.892 5.142s7.261-2 8.3-5.142c1.119-3.376-1.945-3.965-5.27-4.475-3.967-.59-8.183-1.374-6.375-6.83a11.719 11.719 0 0 1 11.371-7.654c5.181 0 7.661 2.943 6.335 7.419h-2.708c.818-2.945-.794-4.83-4.485-4.83-3.73 0-6.736 1.964-7.738 4.986-1.092 3.3 1.945 3.847 5.257 4.4 3.941.666 8.209 1.412 6.388 6.907-1.587 4.79-6.279 7.812-11.933 7.812-5.569-.004-8.29-2.948-6.821-7.735ZM326.38 56.9h2.787c-.961 3.257.809 5.142 4.891 5.142s7.261-2 8.3-5.142c1.119-3.376-1.945-3.965-5.269-4.475-3.967-.59-8.183-1.374-6.375-6.83a11.718 11.718 0 0 1 11.371-7.654c5.181 0 7.661 2.943 6.335 7.419h-2.709c.818-2.945-.794-4.83-4.486-4.83-3.73 0-6.736 1.964-7.737 4.986-1.093 3.3 1.944 3.847 5.257 4.4 3.94.666 8.209 1.412 6.388 6.907-1.587 4.79-6.279 7.812-11.933 7.812-5.573-.004-8.289-2.948-6.82-7.735ZM362.84 38.449h2.826l-8.506 25.672h-2.827ZM371.015 56.9h2.785c-.961 3.257.808 5.142 4.892 5.142s7.26-2 8.3-5.142c1.119-3.376-1.944-3.965-5.271-4.475-3.965-.59-8.181-1.374-6.374-6.83a11.719 11.719 0 0 1 11.371-7.654c5.181 0 7.662 2.943 6.335 7.419h-2.709c.819-2.945-.794-4.83-4.484-4.83-3.73 0-6.736 1.964-7.738 4.986-1.093 3.3 1.945 3.847 5.257 4.4 3.94.666 8.209 1.412 6.387 6.907-1.587 4.79-6.279 7.812-11.933 7.812-5.571-.004-8.286-2.948-6.818-7.735ZM399.948 56.9h2.787c-.961 3.257.81 5.142 4.892 5.142s7.261-2 8.3-5.142c1.119-3.376-1.946-3.965-5.27-4.475-3.967-.59-8.183-1.374-6.375-6.83a11.719 11.719 0 0 1 11.371-7.654c5.182 0 7.661 2.943 6.335 7.419h-2.708c.818-2.945-.794-4.83-4.485-4.83-3.731 0-6.737 1.964-7.738 4.986-1.092 3.3 1.945 3.847 5.257 4.4 3.941.666 8.209 1.412 6.388 6.907-1.587 4.79-6.278 7.812-11.933 7.812-5.569-.004-8.29-2.948-6.821-7.735ZM436.408 38.449h2.826l-8.506 25.672H427.9ZM451.992 38.449H463.1c6.2 0 7.807 3.455 6.245 8.165a11.66 11.66 0 0 1-11.669 8.205h-8.285l-3.082 9.3h-2.826Zm6.584 13.778a7.713 7.713 0 0 0 7.907-5.613c1.054-3.179.237-5.574-4.2-5.574h-8.323l-3.707 11.187ZM482.928 38.449h11.111c6.2 0 7.807 3.455 6.245 8.165a11.662 11.662 0 0 1-11.67 8.205h-8.284l-3.082 9.3h-2.826Zm6.584 13.778a7.714 7.714 0 0 0 7.907-5.613c1.053-3.179.236-5.574-4.2-5.574H484.9l-3.707 11.187ZM513.98 38.449h2.826L508.3 64.121h-2.828Z"/><path class="d" d="M442.155 128.83c4.684-14.134 15.293-21.6 27.027-21.6 12 0 17.437 7.334 12.712 21.6l-11.008 33.219c5.589-1.4 9.836-2.04 12.612-1.61.19.03.366.081.553.114l10.512-31.723c7.647-23.071-2.953-33.338-19.356-33.338-9.735 0-18.926 4.4-26.157 12.536l13.123-39.606H449.5L418.13 163.1h12.67Z"/><path class="f" d="M503.671 199.008c-9.273 6.87-31.173 17.247-44.578 7.435-3.743-2.571-8.46-14.264-10.721-19.848s-9.929-13.439-9.929-13.439 12.173.01 18.857-2.109 20.669-6.563 25.464-5.825c18.096 2.845 21.359 20.924 20.907 33.786Z"/><path class="g" d="M521.344 147.114c-.114-.251-.182-.406-.182-.406s-.93 1.828-2.264 4.04c.871-1.154 1.711-2.435 2.446-3.634Z"/><path class="d" d="M519.01 187.953c-1.478.145-9.156-4.72-12.448-7.992s-3.277-9.266-2.411-12.147 7.548-9.66 10.738-12.9 6.673-10.107 6.673-10.107 2.709 6.259 5.6 8.905 8.951 8.177 9.532 10.916a16.128 16.128 0 0 1-3.67 12.742c-3.658 3.952-12.535 10.439-14.014 10.583ZM525.622 193.5c-.114-1.389 5.152-10.144 8.647-14.225s9.742-5.714 12.723-5.671 9.879 4.634 13.177 6.822 10.367 3.666 10.367 3.666-6.593 4.339-9.425 7.86-8.751 10.9-11.621 12.211-9.161 2.407-13.19-.039-10.565-9.236-10.678-10.624ZM510.73 206.1c-1.209-.639-11.122.99-16.141 2.734s-8.884 7.029-9.986 9.867.395 11.121 1.107 15.08-.664 11.219-.664 11.219 6.438-4.576 10.7-5.907 13.178-4.108 15.464-6.32 5.678-7.746 5.015-12.494-4.286-13.537-5.495-14.179ZM524.27 208.923c-1.265.914-5.013 10.192-6.024 15.126s2.009 9.755 4.153 11.474 10.934 2.522 15.132 2.911 10.453 3.493 10.453 3.493-.958-6.935.045-11.085 3.111-12.835 2.205-15.449-4.422-7.076-9.354-7.712-15.346.327-16.61 1.242Z"/><path class="h" d="m510.9 103.271 23.632-64.188 76.886.005-7.67 27.957h-52.6l-12.254 34.267c-2.45-.2-4.926-.326-7.442-.326a96.663 96.663 0 0 0-20.552 2.285Zm18.878 8.9a93.093 93.093 0 0 0-21.679 2.6l-10.841 28.971a68.97 68.97 0 0 1 28.6-6.392c34.6 0 58.286 28.029 52.9 62.6s-37.8 62.6-72.406 62.6c-19.569 0-35.643-8.966-44.944-23.01l-10.84 28.966c13.159 12.025 31.108 19.221 51.862 19.221 48.517 0 93.971-39.3 101.524-87.782s-25.662-87.771-74.179-87.771Z"/><path class="i" d="M503.785 173.623a15.024 15.024 0 0 1 .366-5.809 15.852 15.852 0 0 1 2.8-4.325c-.039.1-.088.2-.116.3-.866 2.881-.881 8.874 2.411 12.146s10.97 8.138 12.449 7.993c1.443-.141 9.926-6.321 13.731-10.293a13.487 13.487 0 0 1-2.4 3.738c-3.658 3.953-12.535 10.44-14.014 10.584s-9.156-4.72-12.448-7.992a7.709 7.709 0 0 1-1.187-1.5 10.9 10.9 0 0 1-1.077-2.387 14.172 14.172 0 0 1-.515-2.455Zm60.013 14.3c-2.832 3.522-8.751 10.9-11.621 12.212s-9.162 2.406-13.19-.039-10.565-9.236-10.679-10.625c-.063-.776 1.555-3.854 3.6-7.13-3.1 4.357-6.38 10.061-6.29 11.16.107 1.313 5.956 7.452 10 10.184a11.349 11.349 0 0 0 4.752 1.726 17.321 17.321 0 0 0 5.272-.125 16.319 16.319 0 0 0 3.845-1.122c2.87-1.315 8.79-8.69 11.621-12.211s9.425-7.86 9.425-7.86-.869-.183-2.129-.51a31.126 31.126 0 0 0-4.604 4.339Zm-49.9 40.818c-2.286 2.212-11.2 4.989-15.464 6.319s-10.7 5.908-10.7 5.908 1.375-7.254.664-11.213-2.209-12.242-1.107-15.08c.087-.224.2-.467.318-.719a18.016 18.016 0 0 0-3 4.749c-1.1 2.837.395 11.121 1.107 15.08s-.67 11.215-.67 11.215 6.438-4.576 10.7-5.907 13.178-4.108 15.464-6.32a18.518 18.518 0 0 0 3.32-4.7c-.219.239-.43.47-.636.667Zm26.323 5.664c-4.2-.388-12.987-1.193-15.132-2.911s-5.164-6.539-4.153-11.473a65.066 65.066 0 0 1 3.87-11.33 2.2 2.2 0 0 0-.532.233c-1.265.914-5.013 10.192-6.024 15.126s2.009 9.755 4.153 11.474 10.934 2.522 15.132 2.911 10.453 3.493 10.453 3.493a52.662 52.662 0 0 1-.4-5.4 28.858 28.858 0 0 0-7.371-2.128Zm-81.473-134.39a86.063 86.063 0 0 0-10.22 9.572l.523-1.576a38.761 38.761 0 0 1 9.697-7.996Zm-58.755 2.74a30.975 30.975 0 0 0-20.878 8.414 30.039 30.039 0 0 1 14.73-3.942c10.269 0 16.19 5.467 16.606 13.867h12.8a29.6 29.6 0 0 0 .105-4.471H416.6c-.417-8.4-6.338-13.868-16.607-13.868Zm-48.534 1.6-1.483 4.472-36.272.017 1.481-4.471ZM332.075 136.7h4.481c-2.38 5.284-5.828 8.651-9.92 10.412a25.084 25.084 0 0 0 4.953-8.945Zm-69.237 7.99a34.5 34.5 0 0 0 9.4-14.523c4.418-13.335-1.465-22.936-15.07-22.936a30.022 30.022 0 0 0-14.725 3.941 30.97 30.97 0 0 1 20.872-8.413c13.606 0 19.489 9.6 15.071 22.936a34.191 34.191 0 0 1-15.548 18.991Zm206.344-37.459a26.2 26.2 0 0 0-12.276 3.012 26.279 26.279 0 0 1 18.424-7.484c12 0 17.437 7.335 12.712 21.6l-11.008 33.219a60.608 60.608 0 0 1 8.54-1.621l-1.523 4.6c-.188-.033-.363-.084-.553-.114-2.776-.43-7.023.213-12.612 1.61l11.008-33.219c4.725-14.273-.709-21.607-12.712-21.607Zm-272.973 51.4-1.481 4.472H174.44l28.147-84.94c6.592-19.889-1.517-29.04-16.238-29.04a33.616 33.616 0 0 0-16.873 4.521 33.909 33.909 0 0 1 23.024-8.996c14.721 0 22.83 9.152 16.238 29.041l-28.147 84.939Zm209.475-5.481a48.374 48.374 0 0 1-30.931 11.686c-18.464 0-28.254-11.561-25.591-28.145a41.726 41.726 0 0 1 .982-4.463c.191-.681.4-1.368.626-2.062a51.553 51.553 0 0 1 21.73-27.257 51.038 51.038 0 0 0-15.586 22.782c-6.625 20 3.181 34.67 23.983 34.67a47.424 47.424 0 0 0 24.787-7.214ZM164.075 39.131a188.9 188.9 0 0 0-14.4 14.551c-.1-.55-.229-1.072-.351-1.6 2.816-3.001 5.838-7.139 14.751-12.951Zm169.057 116.624a35.252 35.252 0 0 1-24.25 9.078c-15.737 0-23.492-8.8-17.571-26.67l21.3-64.273h4.666l-19.817 59.8c-5.921 17.869 1.834 26.669 17.571 26.669a36.4 36.4 0 0 0 18.101-4.604Zm99.149 2.873L430.8 163.1h-12.67l31.37-94.678h4.666l-29.892 90.206Zm-308.082 0-1.481 4.472H102.43l28.147-84.94c6.46-19.492-1.319-29.04-16.238-29.04a33.761 33.761 0 0 0-16.95 4.526 33.882 33.882 0 0 1 23.1-9c14.919 0 22.7 9.549 16.237 29.041l-28.146 84.939Zm151.138 0-1.482 4.472h-11.6l4.7-14.337a41.917 41.917 0 0 0 7.145-7.48l-5.7 17.345Zm-223.148 0-1.481 4.472H30.42l28.146-84.94c5.947-17.941 16.223-30.7 28.487-38.485-9.526 7.87-17.416 19.163-22.339 34.014l-28.146 84.939Zm208.866-3.447a37.812 37.812 0 0 1-24.982 9.652c-17.2 0-29.361-12.4-22.154-34.136a52.232 52.232 0 0 1 22-27.828 52.138 52.138 0 0 0-15.85 23.357c-7.207 21.735 4.952 34.135 22.154 34.135a37.24 37.24 0 0 0 18.832-5.18Z"/><path class="j" d="M503.671 199.008c-9.273 6.87-31.173 17.247-44.578 7.435-3.743-2.571-8.46-14.264-10.721-19.848s-9.929-13.439-9.929-13.439 2.641 0 6.126-.211c2.345 2.763 5.241 6.535 6.489 9.62 2.261 5.584 6.979 17.278 10.721 19.848 12.259 8.973 31.615 1.064 41.929-5.609 0 .748-.008 1.485-.037 2.204Zm22.181-61.657c34.6 0 58.286 28.029 52.9 62.6-2.84 18.228-13.2 34.63-27.421 46.072 17.348-11.39 30.335-29.781 33.569-50.543 5.387-34.576-18.3-62.605-52.9-62.605a68.985 68.985 0 0 0-28.6 6.391l9.552-25.525c-1.628.3-3.249.64-4.858 1.026l-10.842 28.971a68.97 68.97 0 0 1 28.6-6.387Zm38.266 128.288c-17.646 13.741-39.34 22.1-61.7 22.1-20.754 0-38.7-7.2-51.862-19.221l10.84-28.966a49.312 49.312 0 0 0 2.977 4l-7.669 20.492c13.159 12.025 31.108 19.221 51.861 19.221 19.825.002 39.135-6.565 55.553-17.626Z"/><path class="k" d="m538.889 101.312 1.691-4.727a79.738 79.738 0 0 0-2.985-.07 96.663 96.663 0 0 0-20.55 2.285l21.985-59.717h-4.5l-23.63 64.188a96.663 96.663 0 0 1 20.55-2.285c2.513 0 4.989.126 7.439.326Zm64.855-34.267 1.227-4.471h-52.206l-1.6 4.471Z"/><path class="a" d="M502.423 318.158a114.071 114.071 0 0 1-25.073-2.766 104.069 104.069 0 0 1-47.309-24.419 30.407 30.407 0 0 1-7.97-33.119l10.84-28.964c.23-.619.485-1.225.754-1.822.066-.144.265-.558.265-.558.19-.4.39-.8.6-1.2.053-.1.1-.193.155-.286a59.042 59.042 0 0 1-.8-.952l-.44-.552c-.282-.36-.561-.723-.835-1.093l-.417-.567q-.458-.633-.9-1.293l-.285-.415a64.072 64.072 0 0 1-1.145-1.794l-.256-.427c-.3-.492-.581-.972-.863-1.463l-.384-.681c-.24-.43-.481-.871-.724-1.319l-.389-.734c-.25-.474-.5-.969-.757-1.473l-.313-.616c-.348-.705-.7-1.425-1.049-2.167l-.171-.368q-.438-.935-.882-1.918s-.831-1.866-1.07-2.414l-.378-.876c-.247-.572-1.077-2.54-1.077-2.54q-.462-1.108-.934-2.263a48.284 48.284 0 0 0-4-4.75 24.97 24.97 0 0 1-.793-.851h-9.561c-40.3 0-177.546.019-206.249.023H174.44a30.5 30.5 0 0 1-24.662-12.611 32.502 32.502 0 0 1-1.2-1.785 30.368 30.368 0 0 1-25.864 14.4H102.43a30.5 30.5 0 0 1-24.662-12.611q-.63-.873-1.2-1.784a30.37 30.37 0 0 1-25.864 14.4H30.42a30.419 30.419 0 0 1-28.876-39.999l28.147-84.939c.44-1.327.928-2.712 1.451-4.116.145-.389.3-.771.447-1.153l.335-.855c.256-.657.512-1.313.78-1.961.259-.625.529-1.241.8-1.857l.275-.629c.2-.448.392-.9.594-1.338.372-.816.759-1.621 1.149-2.423l.1-.211a103.947 103.947 0 0 1 1.872-3.66q.246-.462.5-.922.771-1.405 1.574-2.776l.355-.6c.594-.994 1.2-1.977 1.818-2.945l.092-.14a99.538 99.538 0 0 1 11.378-14.521s.542-.581.7-.739c.524-.54 1.06-1.068 1.6-1.595l.216-.213c.383-.377.765-.753 1.154-1.122.443-.418.891-.825 1.34-1.232a93.807 93.807 0 0 1 1.788-1.59c.4-.342.793-.676 1.192-1.009q1.026-.856 2.08-1.686c.335-.263.669-.525 1.006-.782l.336-.263c.2-.153.39-.306.588-.454.375-.28.758-.549 1.141-.819l1.1-.781A89.488 89.488 0 0 1 118.946 0c13.519 0 25.835 3.264 35.765 9.458A85.564 85.564 0 0 1 194.137 0c16.09 0 30.291 4.384 41.163 12.692l394.124-.022a32.007 32.007 0 0 1 19.122 6.752 24.835 24.835 0 0 1 9.776 19.795v9.354c0 20.185-7.487 30.42-22.254 30.42h-1.157a31.12 31.12 0 0 1-1.879-.057c-.438.027-.88.045-1.321.052q-.107.247-.214.489c-.049.13-.1.259-.161.385-.068.147-.151.3-.235.462l-.066.127a30.6 30.6 0 0 1-27.29 17.016h-16.694A100.683 100.683 0 0 1 610.7 117.75c20.1 23.477 28.379 54.335 23.307 86.889-4.76 30.558-20.941 59.112-45.561 80.4-22.365 19.338-50.069 31-78.008 32.849l-.324.02c-.772.048-1.522.093-2.272.126a238.45 238.45 0 0 1-2.683.092c-.907.022-1.821.032-2.736.032Z"/><path d="m629.425 16.09-395.3.022C223.806 7.857 210.035 3.42 194.137 3.42a82.622 82.622 0 0 0-39.607 10c-9.518-6.454-21.653-10-35.584-10A85.94 85.94 0 0 0 69.4 19.006c-.208.145-.412.295-.618.441-.513.365-1.031.721-1.537 1.1-.3.224-.591.463-.888.691q-.488.372-.968.752-1.014.8-2 1.625-.578.48-1.147.97c-.559.483-1.109.975-1.656 1.472-.455.412-.909.824-1.355 1.246-.422.4-.835.808-1.249 1.215-.542.532-1.085 1.064-1.614 1.61-.227.235-.446.477-.67.714A95.5 95.5 0 0 0 44.751 44.8l-.131.2q-.9 1.4-1.758 2.85c-.115.192-.231.383-.344.577Q41.738 49.75 41 51.11q-.244.445-.485.894-.672 1.254-1.315 2.533c-.2.4-.4.811-.6 1.218-.378.778-.753 1.558-1.115 2.35-.244.534-.478 1.077-.715 1.618-.3.7-.611 1.387-.9 2.092-.3.728-.586 1.467-.874 2.2-.214.55-.436 1.093-.643 1.649q-.736 1.977-1.41 4L4.791 154.606A27 27 0 0 0 30.42 190.1h20.288a27 27 0 0 0 25.63-18.509l.236-.714A27.005 27.005 0 0 0 102.43 190.1h20.288a27 27 0 0 0 25.63-18.508l.236-.715a26.961 26.961 0 0 0 2.715 6.132q.582.971 1.251 1.9a27 27 0 0 0 21.89 11.191h20.288c.709 0 222.322-.031 222.685-.022.526.65 1.073 1.287 1.666 1.894a48.2 48.2 0 0 1 4.57 5.5c.357.878.71 1.732 1.061 2.573.11.265.22.523.33.784.244.579.487 1.152.728 1.714l.374.863q.351.807.7 1.587c.117.262.234.527.351.785.289.64.577 1.265.866 1.88.054.117.109.239.164.356q.512 1.08 1.021 2.107c.1.2.2.4.3.595.244.484.488.962.734 1.429l.37.7q.348.648.7 1.273c.121.217.242.435.364.647q.4.7.812 1.377c.085.14.168.284.253.422q.533.867 1.078 1.689c.09.135.181.263.271.4a49.358 49.358 0 0 0 1.231 1.737q.384.519.777 1.016l.4.507c.288.355.581.7.877 1.039.107.123.211.249.319.37.39.436.785.863 1.19 1.274-.059.087-.111.179-.168.268-.11.17-.216.343-.322.515q-.3.484-.578.981l-.3.548a25.63 25.63 0 0 0-.537 1.075c-.078.164-.159.325-.234.491-.238.53-.465 1.068-.67 1.617l-10.84 28.965a27 27 0 0 0 7.073 29.395 100.311 100.311 0 0 0 45.756 23.604 110.329 110.329 0 0 0 24.32 2.683q1.331 0 2.662-.032c.509-.011 1.018-.033 1.527-.051.357-.013.714-.022 1.072-.038.73-.033 1.459-.076 2.188-.122l.337-.02c27.283-1.8 54.007-13.01 76-32.024 24.008-20.758 39.783-48.579 44.419-78.339 4.916-31.55-3.084-61.431-22.526-84.137a97.534 97.534 0 0 0-34.891-25.93h30.537a26.991 26.991 0 0 0 24.218-15.1c.089-.181.191-.354.276-.537.05-.109.089-.224.138-.334.366-.818.685-1.664.972-2.528.237.006.471.024.709.024h1.106q.939 0 1.867-.064.932.063 1.88.064h1.157c14.912 0 18.834-12.088 18.834-27v-9.353C654.9 24.305 640.8 16.213 629.425 16.09Z" fill="url(#d)"/><path class="c" d="M196.82 213.028a23.183 23.183 0 0 1-1.076 4.082l-8.5 24.128h-7.8l8.765-24.669a13.789 13.789 0 0 0 .606-2.28c.666-4.141-1.685-5.942-5.167-5.942-3.36 0-6.579 2.1-8.319 6.963l-9.207 25.928h-7.8l8.824-24.669a10.735 10.735 0 0 0 .537-2.22c.656-4.081-1.676-6-5.157-6-3.3 0-6.51 2.041-8.26 6.963l-9.207 25.928h-7.742l9.393-26.709c3.225-9.244 9.942-13.325 16.723-13.325 5.341 0 8.9 2.161 10.2 6a16.057 16.057 0 0 1 12.426-6c7.32-.006 12.024 3.96 10.761 11.822ZM205.656 226.413a15.254 15.254 0 0 0-.636 2.461c-.7 4.382 1.719 6.483 5.62 6.483 4.141 0 7.449-2.282 9.308-7.5l5.794-16.266h7.2l-6.02 16.926c-3.177 8.943-9.732 13.5-17.713 13.5-7.743 0-12.939-4.261-11.646-12.3a23.148 23.148 0 0 1 1.066-4.023l5.027-14.1h7.262ZM244.452 198.623h7.141l-15.129 42.615h-7.141ZM254.688 229.415a9.669 9.669 0 0 0-.441 1.62c-.491 3.061 1.346 4.322 3.926 4.322 2.761 0 4.9-1.38 6.2-4.982l.452-1.321h7.2l-.689 2.041c-2.7 7.5-7.935 10.924-14.6 10.924-6.721 0-10.9-3.481-9.852-10.023a18.9 18.9 0 0 1 .822-3.242l9.846-27.669h7.2l-3.727 10.5h15.243l-2.3 6.482H258.73ZM283.72 211.588h7.142l-10.525 29.65H273.2Zm1.732-8.163a6.324 6.324 0 0 1 6.059-5.222c2.521 0 4.171 1.681 3.747 4.322a6.321 6.321 0 0 1-6.06 5.221c-2.521 0-4.181-1.62-3.746-4.321ZM292.773 225.093c3.167-8.883 10.7-14.285 19.338-14.285 8.4 0 14.175 5.162 12.738 14.105-1.5 9.3-9.951 17.106-19.312 17.106-4.922 0-8.355-2.162-9.348-6.062l-6.425 17.943H282.5Zm6.655 2.28c-.761 4.742 1.778 7.984 6.638 7.984a11.848 11.848 0 0 0 11.394-10.024c.771-4.8-1.918-7.863-6.659-7.863a11.769 11.769 0 0 0-11.373 9.903ZM339.878 198.623h7.141l-15.129 42.615h-7.141ZM350.339 211.588h7.141l-10.525 29.65h-7.142Zm1.731-8.163a6.326 6.326 0 0 1 6.06-5.222c2.52 0 4.17 1.681 3.747 4.322a6.324 6.324 0 0 1-6.061 5.221c-2.516 0-4.181-1.62-3.746-4.321ZM390.335 224.492a18.034 18.034 0 0 1-.911 3.421l-.344 1.022h-24.425c-.214 4.321 2.54 6.6 7.341 6.6a9.641 9.641 0 0 0 7.3-2.821h7.742a20.225 20.225 0 0 1-16.979 9.3c-8.642 0-14-5.522-12.617-14.106a20.909 20.909 0 0 1 20.273-17.105c8.216.005 13.969 5.287 12.62 13.689Zm-23.984-1.26h16.8c-.094-3.9-3.006-5.942-7.087-5.942a11.088 11.088 0 0 0-9.713 5.942ZM395.727 222.692c2.852-8.044 8.63-11.884 15.352-11.884 7.321 0 11.965 3.6 10.8 10.863-.145.9-.439 1.981-.606 2.642h-7.2a10.009 10.009 0 0 0 .47-1.8c.578-3.6-1.471-5.042-4.892-5.042-2.82 0-5.421 1.621-6.956 5.942l-6.344 17.826h-7.2Z"/><path class="d" d="M58.566 78.16c10.681-32.223 35.316-47.74 60.381-47.74 17.107 0 27.924 7.561 30.409 21.683 11.838-14.122 27.674-21.683 44.781-21.683 25.065 0 39.417 15.517 28.737 47.74l-28.146 84.94H174.44l28.147-84.94c6.592-19.889-1.517-29.04-16.238-29.04-14.919 0-29.025 9.548-35.485 29.04l-28.146 84.94H102.43l28.147-84.94c6.46-19.492-1.319-29.04-16.238-29.04-14.72 0-28.893 9.151-35.485 29.04L50.708 163.1H30.42ZM213.919 130.7c6.847-20.669 26.331-35.2 47.271-35.2 20.665 0 30.386 14.134 23.406 35.205l-10.741 32.4h-11.6l4.773-14.4c-7.934 10.667-19.484 16.135-30.953 16.135-17.204-.007-29.363-12.407-22.156-34.14Zm58.315-.534c4.418-13.335-1.465-22.936-15.07-22.936s-25.85 9.6-30.268 22.936 1.465 22.936 15.07 22.936 25.849-9.602 30.268-22.939ZM291.311 138.163l21.3-64.273h12.67l-7.732 23.336h36.275l-3.847 11.6H313.7l-9.721 29.335c-3.445 10.4.52 14.936 8.79 14.936s15.325-4.4 18.817-14.936l.487-1.467h12.533l-.487 1.467c-5.921 17.869-19.5 26.67-35.239 26.67s-23.49-8.799-17.569-26.668ZM350.77 130.163c6.63-20 26.161-34.671 46.964-34.671 17.466 0 27.088 10.4 25.519 25.6h-12.8c-.416-8.4-6.337-13.867-16.606-13.867-13.606 0-25.855 9.6-30.273 22.936s1.47 22.936 15.07 22.936c10.269 0 19.815-5.469 25.8-13.869h12.8c-8.506 15.2-25.022 25.6-42.493 25.6-20.801.005-30.606-14.664-23.981-34.665Z"/><path class="e" d="M241.853 47.085c2.016-6.083 6.761-9.145 11.629-9.145 3.533 0 5.723 1.688 5.99 4.789a11.386 11.386 0 0 1 9.164-4.789c4.869 0 7.584 3.062 5.568 9.145l-5.645 17.036h-2.827l5.645-17.036c1.444-4.356-.38-6.556-3.8-6.556-3.454 0-6.734 2.317-8.139 6.556L253.8 64.121h-2.827l5.644-17.036c1.4-4.239-.34-6.556-3.8-6.556-3.416 0-6.7 2.2-8.141 6.556l-5.644 17.036h-2.826ZM289.272 38.449h2.828l-8.506 25.672h-2.828ZM297.448 56.9h2.787c-.961 3.257.809 5.142 4.892 5.142s7.261-2 8.3-5.142c1.119-3.376-1.945-3.965-5.27-4.475-3.967-.59-8.183-1.374-6.375-6.83a11.719 11.719 0 0 1 11.371-7.654c5.181 0 7.661 2.943 6.335 7.419h-2.708c.818-2.945-.794-4.83-4.485-4.83-3.73 0-6.736 1.964-7.738 4.986-1.092 3.3 1.945 3.847 5.257 4.4 3.941.666 8.209 1.412 6.388 6.907-1.587 4.79-6.279 7.812-11.933 7.812-5.569-.004-8.29-2.948-6.821-7.735ZM326.38 56.9h2.787c-.961 3.257.809 5.142 4.891 5.142s7.261-2 8.3-5.142c1.119-3.376-1.945-3.965-5.269-4.475-3.967-.59-8.183-1.374-6.375-6.83a11.718 11.718 0 0 1 11.371-7.654c5.181 0 7.661 2.943 6.335 7.419h-2.709c.818-2.945-.794-4.83-4.486-4.83-3.73 0-6.736 1.964-7.737 4.986-1.093 3.3 1.944 3.847 5.257 4.4 3.94.666 8.209 1.412 6.388 6.907-1.587 4.79-6.279 7.812-11.933 7.812-5.573-.004-8.289-2.948-6.82-7.735ZM362.84 38.449h2.826l-8.506 25.672h-2.827ZM371.015 56.9h2.785c-.961 3.257.808 5.142 4.892 5.142s7.26-2 8.3-5.142c1.119-3.376-1.944-3.965-5.271-4.475-3.965-.59-8.181-1.374-6.374-6.83a11.719 11.719 0 0 1 11.371-7.654c5.181 0 7.662 2.943 6.335 7.419h-2.709c.819-2.945-.794-4.83-4.484-4.83-3.73 0-6.736 1.964-7.738 4.986-1.093 3.3 1.945 3.847 5.257 4.4 3.94.666 8.209 1.412 6.387 6.907-1.587 4.79-6.279 7.812-11.933 7.812-5.571-.004-8.286-2.948-6.818-7.735ZM399.948 56.9h2.787c-.961 3.257.81 5.142 4.892 5.142s7.261-2 8.3-5.142c1.119-3.376-1.946-3.965-5.27-4.475-3.967-.59-8.183-1.374-6.375-6.83a11.719 11.719 0 0 1 11.371-7.654c5.182 0 7.661 2.943 6.335 7.419h-2.708c.818-2.945-.794-4.83-4.485-4.83-3.731 0-6.737 1.964-7.738 4.986-1.092 3.3 1.945 3.847 5.257 4.4 3.941.666 8.209 1.412 6.388 6.907-1.587 4.79-6.278 7.812-11.933 7.812-5.569-.004-8.29-2.948-6.821-7.735ZM436.408 38.449h2.826l-8.506 25.672H427.9ZM451.992 38.449H463.1c6.2 0 7.807 3.455 6.245 8.165a11.66 11.66 0 0 1-11.669 8.205h-8.285l-3.082 9.3h-2.826Zm6.584 13.778a7.713 7.713 0 0 0 7.907-5.613c1.054-3.179.237-5.574-4.2-5.574h-8.323l-3.707 11.187ZM482.928 38.449h11.111c6.2 0 7.807 3.455 6.245 8.165a11.662 11.662 0 0 1-11.67 8.205h-8.284l-3.082 9.3h-2.826Zm6.584 13.778a7.714 7.714 0 0 0 7.907-5.613c1.053-3.179.236-5.574-4.2-5.574H484.9l-3.707 11.187ZM513.98 38.449h2.826L508.3 64.121h-2.828Z"/><path class="d" d="M442.155 128.83c4.684-14.134 15.293-21.6 27.027-21.6 12 0 17.437 7.334 12.712 21.6l-11.008 33.219c5.589-1.4 9.836-2.04 12.612-1.61.19.03.366.081.553.114l10.512-31.723c7.647-23.071-2.953-33.338-19.356-33.338-9.735 0-18.926 4.4-26.157 12.536l13.123-39.606H449.5L418.13 163.1h12.67Z"/><path class="f" d="M503.671 199.008c-9.273 6.87-31.173 17.247-44.578 7.435-3.743-2.571-8.46-14.264-10.721-19.848s-9.929-13.439-9.929-13.439 12.173.01 18.857-2.109 20.669-6.563 25.464-5.825c18.096 2.845 21.359 20.924 20.907 33.786Z"/><path class="g" d="M521.344 147.114c-.114-.251-.182-.406-.182-.406s-.93 1.828-2.264 4.04c.871-1.154 1.711-2.435 2.446-3.634Z"/><path class="d" d="M519.01 187.953c-1.478.145-9.156-4.72-12.448-7.992s-3.277-9.266-2.411-12.147 7.548-9.66 10.738-12.9 6.673-10.107 6.673-10.107 2.709 6.259 5.6 8.905 8.951 8.177 9.532 10.916a16.128 16.128 0 0 1-3.67 12.742c-3.658 3.952-12.535 10.439-14.014 10.583ZM525.622 193.5c-.114-1.389 5.152-10.144 8.647-14.225s9.742-5.714 12.723-5.671 9.879 4.634 13.177 6.822 10.367 3.666 10.367 3.666-6.593 4.339-9.425 7.86-8.751 10.9-11.621 12.211-9.161 2.407-13.19-.039-10.565-9.236-10.678-10.624ZM510.73 206.1c-1.209-.639-11.122.99-16.141 2.734s-8.884 7.029-9.986 9.867.395 11.121 1.107 15.08-.664 11.219-.664 11.219 6.438-4.576 10.7-5.907 13.178-4.108 15.464-6.32 5.678-7.746 5.015-12.494-4.286-13.537-5.495-14.179ZM524.27 208.923c-1.265.914-5.013 10.192-6.024 15.126s2.009 9.755 4.153 11.474 10.934 2.522 15.132 2.911 10.453 3.493 10.453 3.493-.958-6.935.045-11.085 3.111-12.835 2.205-15.449-4.422-7.076-9.354-7.712-15.346.327-16.61 1.242Z"/><path class="h" d="m510.9 103.271 23.632-64.188 76.886.005-7.67 27.957h-52.6l-12.254 34.267c-2.45-.2-4.926-.326-7.442-.326a96.663 96.663 0 0 0-20.552 2.285Zm18.878 8.9a93.093 93.093 0 0 0-21.679 2.6l-10.841 28.971a68.97 68.97 0 0 1 28.6-6.392c34.6 0 58.286 28.029 52.9 62.6s-37.8 62.6-72.406 62.6c-19.569 0-35.643-8.966-44.944-23.01l-10.84 28.966c13.159 12.025 31.108 19.221 51.862 19.221 48.517 0 93.971-39.3 101.524-87.782s-25.662-87.771-74.179-87.771Z"/><path class="i" d="M503.785 173.623a15.024 15.024 0 0 1 .366-5.809 15.852 15.852 0 0 1 2.8-4.325c-.039.1-.088.2-.116.3-.866 2.881-.881 8.874 2.411 12.146s10.97 8.138 12.449 7.993c1.443-.141 9.926-6.321 13.731-10.293a13.487 13.487 0 0 1-2.4 3.738c-3.658 3.953-12.535 10.44-14.014 10.584s-9.156-4.72-12.448-7.992a7.709 7.709 0 0 1-1.187-1.5 10.9 10.9 0 0 1-1.077-2.387 14.172 14.172 0 0 1-.515-2.455Zm60.013 14.3c-2.832 3.522-8.751 10.9-11.621 12.212s-9.162 2.406-13.19-.039-10.565-9.236-10.679-10.625c-.063-.776 1.555-3.854 3.6-7.13-3.1 4.357-6.38 10.061-6.29 11.16.107 1.313 5.956 7.452 10 10.184a11.349 11.349 0 0 0 4.752 1.726 17.321 17.321 0 0 0 5.272-.125 16.319 16.319 0 0 0 3.845-1.122c2.87-1.315 8.79-8.69 11.621-12.211s9.425-7.86 9.425-7.86-.869-.183-2.129-.51a31.126 31.126 0 0 0-4.604 4.339Zm-49.9 40.818c-2.286 2.212-11.2 4.989-15.464 6.319s-10.7 5.908-10.7 5.908 1.375-7.254.664-11.213-2.209-12.242-1.107-15.08c.087-.224.2-.467.318-.719a18.016 18.016 0 0 0-3 4.749c-1.1 2.837.395 11.121 1.107 15.08s-.67 11.215-.67 11.215 6.438-4.576 10.7-5.907 13.178-4.108 15.464-6.32a18.518 18.518 0 0 0 3.32-4.7c-.219.239-.43.47-.636.667Zm26.323 5.664c-4.2-.388-12.987-1.193-15.132-2.911s-5.164-6.539-4.153-11.473a65.066 65.066 0 0 1 3.87-11.33 2.2 2.2 0 0 0-.532.233c-1.265.914-5.013 10.192-6.024 15.126s2.009 9.755 4.153 11.474 10.934 2.522 15.132 2.911 10.453 3.493 10.453 3.493a52.662 52.662 0 0 1-.4-5.4 28.858 28.858 0 0 0-7.371-2.128Zm-81.473-134.39a86.063 86.063 0 0 0-10.22 9.572l.523-1.576a38.761 38.761 0 0 1 9.697-7.996Zm-58.755 2.74a30.975 30.975 0 0 0-20.878 8.414 30.039 30.039 0 0 1 14.73-3.942c10.269 0 16.19 5.467 16.606 13.867h12.8a29.6 29.6 0 0 0 .105-4.471H416.6c-.417-8.4-6.338-13.868-16.607-13.868Zm-48.534 1.6-1.483 4.472-36.272.017 1.481-4.471ZM332.075 136.7h4.481c-2.38 5.284-5.828 8.651-9.92 10.412a25.084 25.084 0 0 0 4.953-8.945Zm-69.237 7.99a34.5 34.5 0 0 0 9.4-14.523c4.418-13.335-1.465-22.936-15.07-22.936a30.022 30.022 0 0 0-14.725 3.941 30.97 30.97 0 0 1 20.872-8.413c13.606 0 19.489 9.6 15.071 22.936a34.191 34.191 0 0 1-15.548 18.991Zm206.344-37.459a26.2 26.2 0 0 0-12.276 3.012 26.279 26.279 0 0 1 18.424-7.484c12 0 17.437 7.335 12.712 21.6l-11.008 33.219a60.608 60.608 0 0 1 8.54-1.621l-1.523 4.6c-.188-.033-.363-.084-.553-.114-2.776-.43-7.023.213-12.612 1.61l11.008-33.219c4.725-14.273-.709-21.607-12.712-21.607Zm-272.973 51.4-1.481 4.472H174.44l28.147-84.94c6.592-19.889-1.517-29.04-16.238-29.04a33.616 33.616 0 0 0-16.873 4.521 33.909 33.909 0 0 1 23.024-8.996c14.721 0 22.83 9.152 16.238 29.041l-28.147 84.939Zm209.475-5.481a48.374 48.374 0 0 1-30.931 11.686c-18.464 0-28.254-11.561-25.591-28.145a41.726 41.726 0 0 1 .982-4.463c.191-.681.4-1.368.626-2.062a51.553 51.553 0 0 1 21.73-27.257 51.038 51.038 0 0 0-15.586 22.782c-6.625 20 3.181 34.67 23.983 34.67a47.424 47.424 0 0 0 24.787-7.214ZM164.075 39.131a188.9 188.9 0 0 0-14.4 14.551c-.1-.55-.229-1.072-.351-1.6 2.816-3.001 5.838-7.139 14.751-12.951Zm169.057 116.624a35.252 35.252 0 0 1-24.25 9.078c-15.737 0-23.492-8.8-17.571-26.67l21.3-64.273h4.666l-19.817 59.8c-5.921 17.869 1.834 26.669 17.571 26.669a36.4 36.4 0 0 0 18.101-4.604Zm99.149 2.873L430.8 163.1h-12.67l31.37-94.678h4.666l-29.892 90.206Zm-308.082 0-1.481 4.472H102.43l28.147-84.94c6.46-19.492-1.319-29.04-16.238-29.04a33.761 33.761 0 0 0-16.95 4.526 33.882 33.882 0 0 1 23.1-9c14.919 0 22.7 9.549 16.237 29.041l-28.146 84.939Zm151.138 0-1.482 4.472h-11.6l4.7-14.337a41.917 41.917 0 0 0 7.145-7.48l-5.7 17.345Zm-223.148 0-1.481 4.472H30.42l28.146-84.94c5.947-17.941 16.223-30.7 28.487-38.485-9.526 7.87-17.416 19.163-22.339 34.014l-28.146 84.939Zm208.866-3.447a37.812 37.812 0 0 1-24.982 9.652c-17.2 0-29.361-12.4-22.154-34.136a52.232 52.232 0 0 1 22-27.828 52.138 52.138 0 0 0-15.85 23.357c-7.207 21.735 4.952 34.135 22.154 34.135a37.24 37.24 0 0 0 18.832-5.18Z"/><path class="j" d="M503.671 199.008c-9.273 6.87-31.173 17.247-44.578 7.435-3.743-2.571-8.46-14.264-10.721-19.848s-9.929-13.439-9.929-13.439 2.641 0 6.126-.211c2.345 2.763 5.241 6.535 6.489 9.62 2.261 5.584 6.979 17.278 10.721 19.848 12.259 8.973 31.615 1.064 41.929-5.609 0 .748-.008 1.485-.037 2.204Zm22.181-61.657c34.6 0 58.286 28.029 52.9 62.6-2.84 18.228-13.2 34.63-27.421 46.072 17.348-11.39 30.335-29.781 33.569-50.543 5.387-34.576-18.3-62.605-52.9-62.605a68.985 68.985 0 0 0-28.6 6.391l9.552-25.525c-1.628.3-3.249.64-4.858 1.026l-10.842 28.971a68.97 68.97 0 0 1 28.6-6.387Zm38.266 128.288c-17.646 13.741-39.34 22.1-61.7 22.1-20.754 0-38.7-7.2-51.862-19.221l10.84-28.966a49.312 49.312 0 0 0 2.977 4l-7.669 20.492c13.159 12.025 31.108 19.221 51.861 19.221 19.825.002 39.135-6.565 55.553-17.626Z"/><path class="k" d="m538.889 101.312 1.691-4.727a79.738 79.738 0 0 0-2.985-.07 96.663 96.663 0 0 0-20.55 2.285l21.985-59.717h-4.5l-23.63 64.188a96.663 96.663 0 0 1 20.55-2.285c2.513 0 4.989.126 7.439.326Zm64.855-34.267 1.227-4.471h-52.206l-1.6 4.471Z"/></svg>