<svg xmlns="http://www.w3.org/2000/svg" xmlns:xlink="http://www.w3.org/1999/xlink" id="b" viewBox="0 0 436.25 211.37"><defs><linearGradient id="d" x1="219.2" x2="219.2" y1="211.37" y2="162.33" gradientUnits="userSpaceOnUse"><stop offset="0" stop-color="#4f0157"/><stop offset=".09" stop-color="#53085a"/><stop offset=".38" stop-color="#5e1b64"/><stop offset=".69" stop-color="#64276a"/><stop offset="1" stop-color="#672b6c"/></linearGradient><linearGradient id="e" x1="68.41" x2="68.41" y1="-201.42" y2="-265.21" gradientTransform="rotate(12.89 -1027.76 719.25)" gradientUnits="userSpaceOnUse"><stop offset="0" stop-color="#e83e39"/><stop offset=".31" stop-color="#ed693c"/><stop offset=".56" stop-color="#f28f3f"/><stop offset=".79" stop-color="#fdc60b"/><stop offset=".85" stop-color="#fdc90e"/><stop offset=".91" stop-color="#fdd41a"/><stop offset=".97" stop-color="#fee52c"/><stop offset="1" stop-color="#fff23a"/></linearGradient><linearGradient xlink:href="#e" id="f" x1="36.21" x2="36.21" y1="-201.07" y2="-235.09"/><linearGradient xlink:href="#e" id="g" x1="-.91" x2="-.91" y1="-191.86" y2="-253.55"/><linearGradient xlink:href="#e" id="h" x1="-15.81" x2="-15.81" y1="-178.13" y2="-207.37"/><linearGradient xlink:href="#e" id="i" x1="-48.49" x2="-48.49" y1="-157.58" y2="-202.3"/><linearGradient xlink:href="#e" id="j" x1="-47.03" x2="-47.03" y1="-135.82" y2="-152.44"/><linearGradient xlink:href="#e" id="k" x1="148.78" x2="148.78" y1="-168.84" y2="-198.08"/><linearGradient xlink:href="#e" id="l" x1="135.97" x2="135.97" y1="-185.29" y2="-246.97"/><linearGradient xlink:href="#e" id="m" x1="100.16" x2="100.16" y1="-197.67" y2="-231.69"/><style>.p{fill:#fff}.x{stroke:#125991;stroke-linecap:round;stroke-linejoin:round;stroke-width:1.62297px}.x,.y{fill:#125991}</style></defs><g id="c"><path d="M57.1 210.35s226.44-4.5 323.65 1.02l-11.78-20.66 14.54-16.26s-133.66-26.51-328.62-1.1l14.44 17.43-12.23 19.57Z" style="fill:url(#d)"/><path d="m120.18 193.98.28 6.13-6.96.34-.73-14.58-2.09.59-1.3-6.96c.36-.1.7-.23 1.06-.32 3.9-1.06 7.82-1.9 11.87-2.12 2.06-.1 4.08.07 6.06.69 5.34 1.66 5.8 5.9 4.11 9.65a9.09 9.09 0 0 1-3.92 4.04l-.45.27c-.03.02-.04.07-.1.14a1744.52 1744.52 0 0 1 4.37 5.76l-6.3 3.76-5.77-7.43-.13.04Zm-.24-4.97c1.42-.3 2.74-.63 3.94-1.32.42-.24.83-.53 1.15-.89.88-.97.62-1.9-.63-2.3-1.44-.47-2.9-.3-4.37-.16-.1.01-.28.22-.28.33.04 1.42.12 2.83.19 4.34ZM211.75 189.86l4.16 5.95-6.45 3.52-5.49-7.67-.13.05.04 6.16-6.93.07-.16-14.62-2.13.52-1.04-7.06c1.44-.31 2.81-.62 4.2-.9a43.51 43.51 0 0 1 10.48-.95c1.84.08 3.62.49 5.3 1.26 3.1 1.43 4.37 4.06 3.57 7.37-.65 2.74-2.39 4.6-4.81 5.92l-.51.28c-.02 0-.03.03-.1.1Zm-7.96-3.07c.94-.23 1.8-.36 2.59-.66a9.34 9.34 0 0 0 2.5-1.34c1.08-.88.81-1.94-.5-2.41-1.4-.5-2.86-.4-4.3-.3-.12 0-.3.2-.3.32-.02 1.41 0 2.83.01 4.39ZM185.11 183.36c-1.11-.17-2.17-.42-3.23-.47-2.1-.1-4.11.31-5.8 1.67a5.1 5.1 0 0 0-1.83 5.16c.21 1.22 1 2.04 2.14 2.5 2.06.83 4.84.1 6.38-1.74l-5.19.4-.43-5.21 1.88-.23 10.06-1c.93-.08 1.02-.01 1.14 1.1.26 2.59-.28 5.01-1.59 7.27-3.43 5.92-11.45 8.05-17.12 4.53a9.98 9.98 0 0 1-4.8-8.03c-.63-7.16 4.73-12.65 10.86-13.78 2.74-.5 5.48-.39 8.18.32.45.12.57.3.48.77-.37 2.08-.68 4.17-1.02 6.26l-.11.48ZM91.2 193.27l.51 8.5-6.74.4-1.2-14.72-2.4.87-.45-2.18c-.28-1.4-.53-2.82-.83-4.22-.08-.36.01-.51.33-.67a27.23 27.23 0 0 1 6.96-2.13c2.78-.5 5.56-.97 8.39-.76 1.35.1 2.73.38 4.01.84 4.52 1.6 6.2 6.32 3.81 10.47-1.33 2.32-3.39 3.82-5.79 4.9a16.25 16.25 0 0 1-4.31 1.23c-.54.08-.86 0-1.1-.54-.3-.7-.69-1.37-1.04-2.05l-.15.06Zm-.13-2.48a11.9 11.9 0 0 0 4.17-1.59c.42-.27.8-.63 1.1-1.03.79-1.13.38-2.14-.97-2.44-1.52-.34-3.03-.06-4.6.13.1 1.44.18 2.83.26 4.22l.04.71ZM138.88 186.96c.06-3.95 1.93-7.82 6.34-10.2 4.69-2.51 10.48-1.17 13.86 3.08a12.35 12.35 0 0 1-.47 15.81c-5.25 5.88-14.54 4.64-18.26-2.44-.89-1.69-1.35-3.42-1.47-6.25Zm15.95.3a6.25 6.25 0 0 0-1.69-4.1 3.88 3.88 0 0 0-5.85.1 6.42 6.42 0 0 0 .23 8.5 3.9 3.9 0 0 0 5.95-.3 6.3 6.3 0 0 0 1.36-4.2ZM338.42 179.28c5.62.23 11.22.48 16.89.75l-.4 6.52c-3.31-.1-6.67-.17-10.1-.25l-.11 1.04 10.32.6-.31 5.2c-3.37-.11-6.8-.21-10.29-.3l.03 1.23c3.48.05 6.93.1 10.42.17.02.2.05.37.04.54-.04 1.98-.1 3.96-.13 5.94 0 .37-.12.5-.5.5-5.47.07-10.9-.17-16.35-.53-.47-.03-.58-.2-.59-.63-.13-6.76.3-13.5.98-20.22.01-.17.06-.34.1-.56ZM223.8 176.15c5.65-.07 11.24-.12 16.91-.14l-.05 6.53-10.07.28-.12 1.03 10.35.06-.04 5.22c-3.34.07-6.75.14-10.24.23l.06 1.24c3.52-.14 6.97-.26 10.49-.38l.2 6.96c-5.82.41-11.59.46-17.39.36-.59-7.14-.48-14.2-.1-21.4ZM292.7 179.69l-4.14 4.79c-.85-.6-1.63-1.22-2.48-1.71a6.94 6.94 0 0 0-4.42-.88c-.45.05-1.03.09-1.16.63-.12.53.39.78.78.97 1.54.77 3.11 1.46 4.64 2.25a26.7 26.7 0 0 1 3.07 1.81c3.46 2.42 3.23 5.78 1.21 8.6-1.66 2.32-4.13 3.24-6.92 3.4-2.82.15-5.22-.93-7.4-2.57-1.25-.94-2.39-2.04-3.62-3.1l4.24-5.1c.71.64 1.37 1.3 2.1 1.87 1.36 1.06 2.83 1.95 4.63 2.03.36.02.74-.03 1.09-.14.79-.26.89-.86.23-1.38a4.26 4.26 0 0 0-.94-.57c-1.91-.84-3.85-1.61-5.74-2.5-.97-.45-1.9-1.02-2.75-1.65-3.76-2.8-3.02-7.29.18-9.56a11.33 11.33 0 0 1 8.57-1.94c3.15.48 5.95 1.72 8.2 4.01.21.22.4.47.64.74ZM267.63 179l-4.1 4.85c-.83-.58-1.62-1.19-2.47-1.67a6.75 6.75 0 0 0-4.42-.83c-.42.06-1.01.3-1.15.61-.23.52.37.8.77 1 1.37.66 2.78 1.25 4.14 1.94 1.2.6 2.42 1.2 3.52 1.97 3.33 2.34 3.72 6.11 1 9.15-1.98 2.2-4.55 3.03-7.45 2.96a10.95 10.95 0 0 1-6.2-2.3c-1.23-.9-2.34-1.98-3.5-2.98-.22-.2-.34-.38-.1-.68 1.26-1.51 2.49-3.05 3.73-4.57l.1-.09c1.06.83 2.04 1.7 3.1 2.43a6.58 6.58 0 0 0 3.81 1.32c.38 0 .78-.08 1.13-.22.6-.23.7-.8.2-1.19a7.55 7.55 0 0 0-1.6-.92c-1.92-.84-3.87-1.58-5.77-2.44-.83-.38-1.6-.9-2.33-1.44-3.72-2.77-2.97-7.19.1-9.46a11.3 11.3 0 0 1 8.58-2.08c3.18.45 6 1.67 8.29 3.95.2.2.39.43.62.7ZM310.02 179.27l6.75-2.39c1.38 3.64 2.73 7.25 4.14 11.01 1.75-3.6 3.43-7.06 5.16-10.58l6.5 2.98c-4.12 7-8.18 13.96-12.27 21.05-3.41-7.4-6.81-14.71-10.28-22.07ZM303.92 199.03h-6.68c-.2-7.3.22-14.54.91-21.87l6.92.52c-.79 7.1-1.14 14.19-1.15 21.35Z" class="p"/><path d="m260.4 4.13-12.5-2.86-4.24 64.47 2.88-.2 2.88-1.06 23.47-57.49-12.49-2.86z" style="fill:url(#e)"/><path d="m220.2 27.63-6.8.25 6.45 32.77 1.57-.06 1.57-.06L227 27.38l-6.8.25z" style="fill:url(#f)"/><path d="m177.82 3.77-12.25 3.77 27.7 56.47 2.82-.87 2.83-.87L190.07 0l-12.25 3.77z" style="fill:url(#g)"/><path d="M154.76 44.22 149 47.84l21.96 25.15 1.33-.83 1.33-.84-13.09-30.71-5.77 3.61z" style="fill:url(#h)"/><path d="m106.12 44.75-8.72 9.39 52.22 35.05 2.01-2.17 2.02-2.16-38.8-49.51-8.73 9.4z" style="fill:url(#i)"/><path d="m106.38 91.31-3.19 6.01 31.6 10.8.73-1.39.74-1.38-26.7-20.06-3.18 6.02z" style="fill:url(#j)"/><path d="m332.26 94.37-3.62-5.76-25.15 21.97.84 1.32.83 1.33 30.72-13.09-3.62-5.77z" style="fill:url(#k)"/><path d="m331.74 45.74-9.4-8.72-35.05 52.21 2.17 2.01 2.17 2.02 49.5-38.8-9.39-8.72z" style="fill:url(#l)"/><path d="m285.17 45.99-6.01-3.18-10.8 31.6 1.39.73 1.38.73 20.06-26.69-6.02-3.19z" style="fill:url(#m)"/><path d="M4.86 122.58.76 88.14S-5.4 69.21 17.4 67.62c22.8-1.6 30.33 4.1 38.54 14.14 0 0 8.9-3.88 15.28 0 0 0 9.35-13.91 23.49-10.72 14.14 3.2 18.7 10.72 20.3 16.2 0 0 4.67-10.96 10.83-12.78 0 0 1.36-13.57 14.93-13.91s17.34 7.52 18.25 11.06c0 0 5.93 2.5 7.52 6.73 0 0 23.27-8.33 37.75 1.25 0 0 13.57-9.24 32.84 1.48 0 0-.12-8.78 12.2-10.26 12.31-1.48 25.43-3.2 37.17 12.2 0 0 7.98-9.46 23.04-4.45 0 0 5.58-7.3 26.8-7.3s27.25 7.65 27.25 7.65 5.47-7.87 22-1.37c0 0 .8-6.05 6.28-7.19 0 0 2.5-12.77 16.3-11.28s16.08 9.12 16.3 13.45c0 0 19.85 18.47 6.74 42.08 0 0 16.07 27.25-9.24 48.23 0 0-1.37 12.54-18.02 12.09-16.65-.46-16.53-12.32-16.53-12.32s-16.2 7.19-29.3-.68c0 0-6.96 3.65-26.58 3.99-19.6.34-23.14-5.47-23.14-5.47s-13.46 6.5-22.47-3.2c0 0-13.22 10.6-27.14 9.92-13.9-.68-23.71-1.48-22.57-37.05l-6.16 8.43s.91 18.93-4.56 22.8c-5.48 3.89-18.02 7.2-27.14.92 0 0-16.88 5.13-33.75 1.83 0 0-5.48 12.88-18.25 11.17-12.77-1.71-15.5-11.86-15.5-11.86s-11.4-5.24-12.78-23.15c0 0-3.53 16.31-18.13 22.81s-26.8-1.25-26.8-1.25-11.28 9.12-24.85-.46c0 0-12.77 7.75-24.86 7.3-12.09-.46-14.82-1.03-18.59-46.07Z" style="fill:#176db0"/><g style="opacity:.5"><path d="M39.22 117.5a16.5 16.5 0 0 0 5.08-13.35c-.39-7.2-3.79-12.36-10.1-15.48-5.4-2.66-11.78-3.45-19.29-2.44-1.42.19-2.74.46-4.15.75l8.95 71.91c1.25-.07 2.4-.13 3.64-.3a42.3 42.3 0 0 0 14.84-4.69c4.96-2.7 8.49-5.97 10.58-9.83a17.35 17.35 0 0 0 1.85-10.79 21.11 21.11 0 0 0-11.4-15.78Zm-15.5-18.24c2.47-.33 4.56.16 6.3 1.58a7.07 7.07 0 0 1 2.6 4.97c.3 3.63-1.29 6.26-4.66 7.78l-2.3.11-1.94-14.44Zm11.89 40.38c-1.24 1.62-3.23 2.66-5.79 3l-2.11-15.77c4.98-.37 8.65 3.2 9.24 7.66.18 2-.27 3.71-1.34 5.11ZM53.92 155.26l9.53-.3.85-53.77-8.89.44-1.49 53.63zM81.46 120.81c.48-3.79 1.13-7.49 2.04-11.17 1.49-6.16 3.22-9.01 5.02-8.65 2.15.48 3.16 5.31 3.24 14.43l11.54.07c-.18-7.3-1.3-13.36-3.53-18.18-2.55-5.45-6.03-8.26-10.44-8.6-5.28-.4-9.83 3.16-13.65 10.66-3.44 6.84-5.4 15.14-5.97 24.75-.48 8.3.32 15.39 2.41 21.16 2.32 6.47 5.85 9.98 10.58 10.69 6.89 1 12.15-2.85 15.88-11.75 2.52-5.93 3.98-13.06 4.47-21.45l-17.48-1.02-.62 10.64 5.54.33c-1.2 7.22-2.9 10.94-5.17 11.16-3.59.4-4.96-5.85-4.2-18.66.1-1.82.19-3.29.34-4.4ZM183.09 94.11l-8.74 26.45.52-23.6-10.75-.52-.94 58.37 10.44.19.53-24 7.97 22.6 10.6.12-8.74-28.64 9.7-30.77-10.59-.2zM210.77 122.53l-3.19-25.68-11.11-.96 7.36 40.82-1.61 18.88 10.53.99 1.81-19.19 16.61-38.98-10.61-3.71-9.79 27.83zM270.31 118.63a16.28 16.28 0 0 0 5.94-12.79c.13-7.12-2.86-12.43-8.86-15.95-5.12-3-11.36-4.22-18.82-3.76-1.42.09-2.73.27-4.15.45l3.78 71.45c1.23.02 2.37.04 3.6-.03a41.76 41.76 0 0 0 14.95-3.59c5.07-2.3 8.77-5.28 11.1-8.94a17.13 17.13 0 0 0 2.58-10.5c-.4-6.5-4.32-13-10.12-16.34ZM256.33 99.6c2.45-.15 4.48.48 6.1 2a6.98 6.98 0 0 1 2.2 5.07c.04 3.6-1.7 6.08-5.13 7.33l-2.28-.04-.9-14.36Zm8.87 40.6c-1.33 1.5-3.36 2.4-5.91 2.55l-.97-15.68c4.93-.02 8.29 3.75 8.56 8.2a7.03 7.03 0 0 1-1.68 4.93ZM297.05 95.65c-4.38-.07-7.94 3.07-10.63 9.49-2.47 5.76-3.7 12.68-3.69 20.7.02 7 1.04 12.9 3.02 17.78 2.27 5.39 5.33 8.3 9.34 8.8 4.6.58 8.38-2.42 11.28-8.98 2.62-5.9 3.92-13.05 3.9-21.43 0-7.29-1.1-13.34-3.23-18.14-2.41-5.46-5.7-8.16-10-8.22Zm-.66 46.5c-2.92.51-4.38-4.66-4.4-15.45 0-1.53 0-2.77.07-3.72.21-3.2.57-6.34 1.15-9.47.94-5.25 2.25-7.73 3.78-7.51 2.4.36 3.58 6.26 3.6 17.55.01 11.96-1.36 18.15-4.2 18.6ZM338.36 124.08l-9.44-32.99-12.73-.33-1.4 65.75 11.15-.37-.23-38.8 9.1 37.47 13.25-1.16.08-63.73-9.83-.16.05 34.32zM381.47 94.44l-9.97 1.23 1.2 40.59c0 .32.16 2.4.16 3.3 0 3.6-1.12 5.46-3.45 5.54-1.85.09-2.9-1.04-3.3-3.37-.08-.32-.16-2.17-.17-5.46l-.22-38.75-9.89.42-.42 38.26c-.07 5.79.74 10.21 2.43 13.34 2.26 4.1 6.04 6.1 11.34 6.01 5.23-.09 9.08-2.1 11.4-6.04 2.01-3.3 2.9-7.64 2.64-13.1l-1.75-41.97ZM146.42 117.9c-6.07-5.03-9.28-9.73-9.63-14.2-.2-2.55 1.32-4.23 3.15-4.28 3.02-.14 4.55 3.04 4.67 9.36l11.11-1.04c-.21-6.32-1.43-11.36-3.74-15.12-2.16-3.6-5.21-5.69-9.1-6.25l-.84-7.99-6.79.6.87 7.73.3-.02a16.02 16.02 0 0 0-9.64 6.24 17.04 17.04 0 0 0-3.17 13.54c.61 4.26 2.58 8.33 5.8 12.11.91 1.03 3.99 4 9.42 9 3.76 3.55 6.3 6.75 7.63 9.67.33.71.48 1.52.56 2.53.28 3.55-.85 5.57-3.3 5.94-3.27.44-5.14-2.44-5.61-8.55-.07-.91-.06-1.83-.03-2.66l-10.94.85c-.14 1.66-.1 3.31.01 4.86.44 5.56 2.06 9.93 4.78 13.02a12.71 12.71 0 0 0 7.3 4.04h-.04l.85 8.15 6.78-.6-.87-7.72h-.12c4.34-.84 7.68-3 9.92-6.55 2.3-3.48 3.26-7.59 2.88-12.42-.56-7.2-4.66-13.94-12.2-20.24Zm-6.64 39.47-.07-.01h.07ZM418.8 108.25c.4-6.37-.34-11.56-2.3-15.57-1.83-3.83-4.7-6.23-8.56-7.17l-.07-8.12-6.89-.05.13 7.86.3.01c-4.04.5-7.48 2.25-10.3 5.34-3.3 3.64-4.85 8.05-4.49 13.33.2 4.35 1.79 8.63 4.67 12.74.81 1.13 3.62 4.41 8.6 9.96 3.45 3.94 5.7 7.4 6.75 10.47.26.75.34 1.58.32 2.6-.06 3.6-1.4 5.52-3.9 5.66-3.32.12-4.93-2.96-4.82-9.15.02-.92.13-1.84.24-2.67l-11.1-.2c-.3 1.65-.42 3.32-.45 4.89-.1 5.63 1.1 10.18 3.54 13.56a12.85 12.85 0 0 0 6.96 4.77l-.04-.01.07 8.28 6.88.06-.13-7.86h-.12c4.44-.44 8.01-2.28 10.6-5.64 2.66-3.28 4.02-7.32 4.11-12.22.13-7.3-3.34-14.48-10.33-21.54-5.63-5.65-8.4-10.69-8.32-15.22.04-2.58 1.73-4.12 3.58-4 3.05.15 4.28 3.5 3.8 9.87l11.27.02Zm-20.82 48.4-.07-.02.07.02h0Z" class="x"/></g><path d="M23.52 155.54c-.4 0-.76-.3-.8-.71L13.75 82.9a.81.81 0 0 1 .64-.9l.22-.04c1.34-.27 2.6-.53 3.99-.72 2.12-.28 4.18-.43 6.12-.43 5.09 0 9.67 1 13.63 2.96 6.6 3.26 10.15 8.7 10.55 16.16a17.23 17.23 0 0 1-4.55 13.17 21.95 21.95 0 0 1 10.87 15.9c.55 4.11-.08 7.8-1.93 11.27-2.17 3.99-5.84 7.4-10.91 10.17a43.1 43.1 0 0 1-18.6 5.07l-.27.02Zm10.8-18a7.27 7.27 0 0 0 4.45-2.55 6.29 6.29 0 0 0 1.18-4.56c-.54-4-3.61-6.84-7.51-6.94l1.88 14.05Zm-4.16-28.85 1.4-.07c3-1.4 4.32-3.66 4.06-6.92a6.26 6.26 0 0 0-2.3-4.4 6.64 6.64 0 0 0-4.88-1.48l1.72 12.87Z" class="p"/><path d="M24.73 81.64c4.98 0 9.39.94 13.27 2.86 6.32 3.12 9.72 8.28 10.1 15.48a16.5 16.5 0 0 1-5.08 13.35 21.11 21.11 0 0 1 11.4 15.78c.52 3.9-.06 7.46-1.84 10.8-2.1 3.85-5.62 7.13-10.58 9.82a42.3 42.3 0 0 1-14.84 4.7c-1.24.17-2.4.22-3.64.3L14.56 82.8a45.31 45.31 0 0 1 10.17-1.17m4.73 27.9 2.3-.12c3.38-1.52 4.96-4.14 4.67-7.78a7.07 7.07 0 0 0-2.6-4.97A7.47 7.47 0 0 0 28.95 95c-.46 0-.94.03-1.43.1l1.94 14.44m4.17 28.94c2.56-.35 4.55-1.39 5.78-3a7.12 7.12 0 0 0 1.35-5.12c-.57-4.24-3.92-7.68-8.53-7.68-.24 0-.47 0-.72.02l2.12 15.78M24.73 80a47.21 47.21 0 0 0-10.25 1.16l-.24.05c-.83.17-1.4.95-1.29 1.79l8.96 71.92a1.62 1.62 0 0 0 1.7 1.42l.23-.02a43.9 43.9 0 0 0 18.94-5.18c5.21-2.82 8.99-6.35 11.23-10.47a18.87 18.87 0 0 0 2.02-11.78 22.82 22.82 0 0 0-10.41-16 18.02 18.02 0 0 0 4.1-13.02c-.41-7.76-4.11-13.43-11-16.83A31.29 31.29 0 0 0 24.73 80Zm6.14 27.83-1.5-11.21c1.32.07 2.45.5 3.43 1.3a5.47 5.47 0 0 1 2.01 3.85c.23 2.86-.86 4.79-3.44 6.04l-.5.02ZM35 136.53l-1.62-12.14a6.98 6.98 0 0 1 5.77 6.15 5.5 5.5 0 0 1-1.03 3.95 6.06 6.06 0 0 1-3.12 2.04Z" class="y"/><path d="M57.73 151.9a.81.81 0 0 1-.81-.83l1.48-53.63a.81.81 0 0 1 .77-.78l8.93-.45a.81.81 0 0 1 .81.83l-.84 53.77c0 .43-.35.78-.78.8l-9.56.3Z" class="p"/><path d="m68.1 97.03-.84 53.76-9.53.3 1.48-53.62 8.9-.44m0-1.63H68l-8.88.45c-.84.04-1.52.72-1.54 1.57l-1.48 53.63a1.62 1.62 0 0 0 1.67 1.67l9.53-.3a1.62 1.62 0 0 0 1.57-1.6l.84-53.68v-.11c0-.9-.72-1.63-1.61-1.63Zm0 3.25Z" class="y"/><path d="M88.6 152.77c-.72 0-1.46-.06-2.21-.17-5.06-.76-8.83-4.53-11.22-11.22-2.12-5.84-2.95-13.07-2.46-21.48.57-9.8 2.6-18.22 6.05-25.06 3.77-7.4 8.34-11.14 13.59-11.14l.84.03c4.74.37 8.48 3.42 11.12 9.07 2.24 4.83 3.42 10.89 3.61 18.5a.81.81 0 0 1-.8.83l-11.56-.06a.81.81 0 0 1-.8-.8c-.1-11.83-1.86-13.49-2.6-13.65a.73.73 0 0 0-.14-.01c-.33 0-2.07.38-3.92 8.06a96.45 96.45 0 0 0-2.03 11.08c-.15 1.1-.23 2.52-.34 4.34-.7 11.92.61 15.96 1.83 17.25a1.63 1.63 0 0 0 1.47.56c1-.1 2.85-1.49 4.3-9.6l-4.62-.26a.81.81 0 0 1-.77-.86l.63-10.65a.81.81 0 0 1 .8-.76l17.54 1.02a.81.81 0 0 1 .76.86c-.5 8.62-1.99 15.73-4.53 21.72-3.45 8.23-8.35 12.4-14.54 12.4Z" class="p"/><path d="m92.35 84.51.78.03c4.41.35 7.9 3.15 10.44 8.6 2.24 4.82 3.36 10.88 3.54 18.18l-11.54-.06c-.08-9.13-1.1-13.96-3.24-14.43-.1-.03-.2-.04-.3-.04-1.7 0-3.32 2.87-4.72 8.69a97.4 97.4 0 0 0-2.05 11.16c-.15 1.13-.23 2.6-.34 4.41-.73 12.43.54 18.68 3.89 18.68.1 0 .2 0 .31-.02 2.28-.22 3.97-3.94 5.17-11.16l-5.54-.33.63-10.64 17.48 1.02c-.5 8.4-1.95 15.52-4.47 21.45-3.35 7.98-7.92 11.9-13.8 11.9-.67 0-1.37-.05-2.08-.15-4.74-.71-8.27-4.22-10.58-10.7-2.1-5.76-2.9-12.84-2.4-21.15.55-9.6 2.51-17.91 5.95-24.75 3.64-7.12 7.93-10.69 12.87-10.69m0-1.62c-5.58 0-10.4 3.9-14.31 11.58-3.5 6.94-5.56 15.48-6.14 25.39-.5 8.52.35 15.85 2.5 21.8 2.5 6.98 6.5 10.94 11.87 11.75.79.11 1.57.17 2.32.17 6.56 0 11.7-4.34 15.3-12.9 2.58-6.08 4.08-13.27 4.59-21.98.05-.9-.63-1.66-1.53-1.72l-17.48-1.02h-.1c-.85 0-1.56.66-1.61 1.53l-.63 10.64a1.62 1.62 0 0 0 1.53 1.71l3.71.22c-1.49 7.62-3.2 8.01-3.4 8.03l-.16.01c-.19 0-.4-.03-.66-.32-.9-.96-2.33-4.4-1.61-16.63.1-1.81.19-3.23.33-4.29.5-3.98 1.17-7.57 2.01-11 1.53-6.33 2.92-7.31 3.14-7.43.27.16 1.83 1.59 1.92 12.84.01.89.73 1.6 1.62 1.6l11.54.08h.01a1.62 1.62 0 0 0 1.62-1.67c-.19-7.73-1.4-13.88-3.69-18.82-2.77-5.94-6.73-9.14-11.78-9.54-.3-.02-.61-.03-.91-.03Z" class="y"/><path d="M166.97 151.45a.81.81 0 0 1-.8-.82l.94-58.37a.81.81 0 0 1 .82-.8l10.79.52c.44.03.78.4.77.83l-.4 18.18 7.03-21.3a.81.81 0 0 1 .77-.56l10.62.2a.81.81 0 0 1 .75 1.05l-9.63 30.54 8.68 28.4a.81.81 0 0 1-.78 1.04l-10.6-.12a.81.81 0 0 1-.76-.54l-6.5-18.4-.44 19.55a.81.81 0 0 1-.8.8l-10.46-.2Z" class="p"/><path d="m186.9 89.94 10.59.2-9.7 30.77 8.74 28.64-10.6-.12-7.97-22.6-.54 24-10.43-.2.94-58.36 10.75.52-.53 23.6 8.74-26.45m0-1.62c-.7 0-1.32.44-1.54 1.11l-5.33 16.15.28-12.75a1.62 1.62 0 0 0-1.54-1.66L168 90.65h-.07a1.62 1.62 0 0 0-1.63 1.6l-.94 58.36c-.01.9.7 1.63 1.6 1.65l10.43.2h.03c.88 0 1.6-.7 1.63-1.59l.33-15.12 5.02 14.22c.23.64.83 1.08 1.51 1.08l10.6.12h.02a1.62 1.62 0 0 0 1.55-2.1l-8.6-28.15 9.56-30.3a1.62 1.62 0 0 0-1.52-2.1l-10.6-.2h-.03Z" class="y"/><path d="m216.48 153.22-10.53-1a.81.81 0 0 1-.74-.87l1.6-18.77-7.33-40.72a.81.81 0 0 1 .8-.95l11.18.97c.38.03.69.33.74.7l2.75 22.26 8.65-24.58a.81.81 0 0 1 1.03-.5l10.61 3.72a.8.8 0 0 1 .48 1.09l-16.56 38.85-1.8 19.07a.81.81 0 0 1-.88.73Z" class="p"/><path d="m224.36 90.53 10.61 3.72-16.6 38.97-1.81 19.2-10.54-1 1.62-18.88-7.36-40.82 11.11.96 3.18 25.68 9.8-27.83m0-1.62c-.67 0-1.3.41-1.54 1.08l-7.5 21.32L213 92.49c-.1-.76-.7-1.36-1.47-1.42l-11.11-.97h-.14a1.62 1.62 0 0 0-1.6 1.9l7.32 40.62-1.6 18.66c-.07.9.58 1.67 1.47 1.76l10.54.99a1.59 1.59 0 0 0 1.18-.37c.34-.27.54-.66.58-1.1l1.79-18.93 16.5-38.75a1.62 1.62 0 0 0-.95-2.16L224.91 89c-.19-.07-.37-.1-.55-.1Z" class="y"/><path d="m253.71 154.7-1.47-.02h-.25a.81.81 0 0 1-.8-.77l-3.77-71.46a.81.81 0 0 1 .7-.84l.29-.04a49.2 49.2 0 0 1 6.96-.51c6.37 0 11.68 1.3 16.23 3.97 6.28 3.67 9.4 9.28 9.27 16.66a17.02 17.02 0 0 1-5.4 12.66 21.68 21.68 0 0 1 9.57 16.41c.26 4.1-.62 7.69-2.7 10.98-2.4 3.77-6.26 6.88-11.45 9.24a42.52 42.52 0 0 1-17.18 3.71Zm10.14-17.02a7.17 7.17 0 0 0 4.55-2.2 6.2 6.2 0 0 0 1.48-4.39c-.21-3.43-2.64-6.95-6.9-7.35l.87 13.94Zm-.69-28.67c3.04-1.16 4.5-3.29 4.47-6.51a6.18 6.18 0 0 0-1.96-4.5 6.69 6.69 0 0 0-4.68-1.79l.8 12.77 1.37.03Z" class="p"/><path d="M255.37 81.87c6.15 0 11.4 1.27 15.82 3.86 6 3.51 9 8.83 8.86 15.95a16.28 16.28 0 0 1-5.93 12.79 20.84 20.84 0 0 1 10.11 16.34c.24 3.87-.58 7.34-2.57 10.5-2.33 3.65-6.03 6.63-11.1 8.94a41.76 41.76 0 0 1-16.85 3.63c-.56 0-1.12 0-1.7-.02l-3.78-71.45c1.41-.18 2.73-.36 4.15-.45a48.4 48.4 0 0 1 2.99-.1m7.93 27.97c3.43-1.26 5.18-3.74 5.14-7.34a6.98 6.98 0 0 0-2.21-5.08 7.56 7.56 0 0 0-5.4-2.01c-.23 0-.46 0-.7.02l.9 14.36 2.27.05m-.2 28.74c2.55-.16 4.58-1.04 5.9-2.55a7.03 7.03 0 0 0 1.7-4.94c-.28-4.42-3.63-8.19-8.53-8.19h-.05l.98 15.68m-7.73-58.32a50.17 50.17 0 0 0-7.11.52l-.24.03c-.84.11-1.46.85-1.41 1.7l3.77 71.45c.05.85.74 1.52 1.6 1.54h.22l1.5.01a43.37 43.37 0 0 0 17.53-3.78c5.33-2.42 9.3-5.63 11.8-9.54a18.65 18.65 0 0 0 2.82-11.47 22.55 22.55 0 0 0-9.12-16.48 17.8 17.8 0 0 0 4.95-12.54c.13-7.68-3.12-13.53-9.67-17.36-4.61-2.71-10.21-4.08-16.64-4.08Zm7.18 27.94-.69-11.1c1.29.16 2.36.66 3.26 1.5a5.38 5.38 0 0 1 1.7 3.92c.03 2.83-1.18 4.64-3.8 5.69l-.47-.01Zm2.06 28.53-.75-12c3.2.75 5.02 3.6 5.2 6.43a5.4 5.4 0 0 1-1.27 3.8 5.96 5.96 0 0 1-3.18 1.77Z" class="y"/><path d="M300 149.14c-.4 0-.8-.03-1.2-.08-4.32-.54-7.59-3.58-10-9.3-2.02-5.02-3.06-11.1-3.07-18.09-.01-8.1 1.25-15.18 3.75-21.02 2.77-6.62 6.55-9.98 11.24-9.98h.14c4.67.07 8.18 2.92 10.73 8.7 2.18 4.94 3.3 11.16 3.3 18.47.02 8.46-1.32 15.78-3.97 21.76-2.8 6.33-6.47 9.54-10.93 9.54Zm.61-46.51c-.16 0-1.6.2-2.8 6.85-.54 2.94-.91 6.01-1.14 9.4-.06.92-.06 2.19-.06 3.65.02 13.24 2.24 14.67 3.2 14.67.08 0 .16 0 .24-.02 1.34-.21 3.55-2.8 3.53-17.8-.02-14.73-2.04-16.62-2.9-16.75h-.07Z" class="p"/><path d="M300.72 91.48h.13c4.3.07 7.59 2.76 10 8.22 2.12 4.8 3.22 10.85 3.23 18.14.02 8.38-1.28 15.53-3.9 21.43-2.67 6.04-6.08 9.05-10.19 9.05-.36 0-.72-.02-1.1-.06-4-.5-7.07-3.42-9.33-8.8-1.98-4.89-3-10.79-3.02-17.79-.01-8.01 1.22-14.94 3.69-20.7 2.65-6.35 6.18-9.49 10.49-9.49m-.91 46.53.38-.03c2.85-.44 4.22-6.64 4.2-18.6-.01-11.29-1.19-17.19-3.6-17.55l-.18-.01c-1.45 0-2.7 2.48-3.6 7.52a82.09 82.09 0 0 0-1.15 9.48c-.07.94-.06 2.18-.06 3.71.01 10.3 1.35 15.48 4 15.48m.92-48.15c-5.04 0-9.08 3.53-12 10.48-2.53 5.93-3.81 13.11-3.8 21.34 0 7.08 1.06 13.27 3.13 18.38 2.5 5.94 6.08 9.23 10.65 9.8.43.06.87.09 1.3.09 4.8 0 8.72-3.37 11.66-10.02 2.7-6.09 4.06-13.52 4.05-22.09-.02-7.43-1.15-13.75-3.38-18.8-2.66-6.01-6.51-9.1-11.45-9.18h-.16Zm-.91 46.53c-.03 0-2.37-.38-2.39-13.86 0-1.52 0-2.7.06-3.6.23-3.35.6-6.39 1.13-9.3.82-4.59 1.74-5.84 2.04-6.13.41.35 2.1 2.6 2.12 15.89.02 16.08-2.53 16.94-2.83 16.98a.81.81 0 0 1-.13.02Z" class="y"/><path d="M318.6 153.15a.81.81 0 0 1-.81-.83l1.4-65.75a.81.81 0 0 1 .8-.8l12.75.34c.36.01.66.25.76.59l7.84 27.4-.04-28.5a.81.81 0 0 1 .81-.82l9.85.16c.44 0 .8.37.8.81l-.08 63.73c0 .42-.32.77-.74.81l-13.26 1.16a.81.81 0 0 1-.86-.62l-7.45-30.7.2 31.84c0 .44-.35.8-.8.81l-11.17.37Z" class="p"/><path d="m342.11 85.6 9.83.15-.07 63.73-13.26 1.16-9.1-37.47.24 38.8-11.15.37L320 86.6l12.72.33 9.44 33-.05-34.33m0-1.62a1.62 1.62 0 0 0-1.62 1.62l.03 22.7-6.24-21.81a1.62 1.62 0 0 0-1.52-1.18l-12.72-.33h-.05a1.62 1.62 0 0 0-1.62 1.59l-1.4 65.75a1.62 1.62 0 0 0 1.63 1.65h.05l11.15-.36a1.62 1.62 0 0 0 1.57-1.64l-.15-24.88 5.82 23.95a1.62 1.62 0 0 0 1.72 1.23L352 151.1a1.62 1.62 0 0 0 1.48-1.62l.08-63.73c0-.88-.71-1.6-1.6-1.62l-9.83-.16h-.03Z" class="y"/><path d="M372.66 152.2c-5.43 0-9.37-2.17-11.72-6.43-1.78-3.3-2.6-7.79-2.54-13.74l.43-38.27c0-.43.34-.78.78-.8l9.92-.42a.81.81 0 0 1 .8.81l.23 38.74c0 3.35.1 5.02.14 5.29.43 2.43 1.42 2.75 2.33 2.75h.15c.74-.03 2.68-.1 2.67-4.75 0-.52-.06-1.55-.1-2.3-.04-.47-.06-.86-.06-.99l-1.2-40.57a.81.81 0 0 1 .72-.83l9.97-1.22h.1a.81.81 0 0 1 .8.77l1.76 41.96c.26 5.65-.64 10.1-2.75 13.56-2.46 4.17-6.53 6.34-12.08 6.44h-.35Z" class="p"/><path d="m385.28 90.28 1.75 41.95c.25 5.47-.63 9.81-2.63 13.1-2.33 3.95-6.18 5.97-11.4 6.06h-.34c-5.13 0-8.8-2-11.01-6.02-1.7-3.13-2.5-7.55-2.43-13.33l.42-38.27 9.89-.41.22 38.74c0 3.3.09 5.14.17 5.46.39 2.25 1.38 3.38 3.1 3.38h.2c2.33-.09 3.45-1.94 3.44-5.56 0-.88-.16-2.97-.16-3.3L375.3 91.5l9.97-1.22m0-1.63c-.07 0-.14 0-.2.02l-9.97 1.22c-.83.1-1.45.82-1.42 1.66l1.19 40.59.05 1c.05.74.11 1.74.11 2.25 0 3.86-1.32 3.9-1.88 3.92h-.13c-.46 0-1.16 0-1.52-2.02v-.07a59.3 59.3 0 0 1-.14-5.12l-.22-38.75a1.62 1.62 0 0 0-1.7-1.62l-9.88.42c-.86.04-1.54.74-1.55 1.6l-.43 38.27c-.07 6.1.79 10.71 2.63 14.13 2.51 4.56 6.7 6.86 12.44 6.86h.36c5.86-.1 10.15-2.4 12.77-6.85 2.19-3.59 3.13-8.18 2.86-14L386.9 90.2a1.62 1.62 0 0 0-1.62-1.56Z" class="y"/><path d="M143.84 162.07a.81.81 0 0 1-.8-.72l-.8-7.57a13.51 13.51 0 0 1-7.1-4.16c-2.87-3.26-4.55-7.8-4.99-13.5a30.14 30.14 0 0 1 0-5c.03-.4.34-.7.74-.74l11-.85a.81.81 0 0 1 .81.84c-.03.83-.05 1.71.02 2.57.4 5.2 1.81 7.84 4.18 7.84.17 0 .34 0 .52-.03.72-.11 2.96-.45 2.6-5.08a6.45 6.45 0 0 0-.5-2.24c-1.27-2.81-3.7-5.9-7.44-9.43-5-4.58-8.44-7.88-9.47-9.05-3.35-3.93-5.37-8.15-6-12.53a17.9 17.9 0 0 1 3.33-14.15 16.86 16.86 0 0 1 9.1-6.28l-.79-7.09a.81.81 0 0 1 .74-.9l6.79-.6a.81.81 0 0 1 .88.72l.76 7.38c3.85.73 6.9 2.92 9.06 6.53 2.37 3.87 3.63 8.94 3.86 15.51.01.43-.3.8-.74.84l-11.1 1.04h-.08a.81.81 0 0 1-.81-.79c-.11-5.68-1.35-8.57-3.67-8.57h-.15c-.63.02-1.2.3-1.63.77a3.5 3.5 0 0 0-.76 2.64c.33 4.2 3.47 8.78 9.35 13.64 7.72 6.44 11.93 13.44 12.5 20.8.38 4.96-.63 9.31-3.02 12.93a15.05 15.05 0 0 1-9.58 6.71l.79 7.02a.81.81 0 0 1-.74.9l-6.79.6a.9.9 0 0 1-.07 0Z" class="p"/><path d="m145.85 74.21.83 8c3.9.56 6.94 2.65 9.1 6.24 2.31 3.77 3.53 8.8 3.75 15.12l-11.11 1.04c-.12-6.18-1.6-9.36-4.48-9.36h-.2c-1.82.06-3.34 1.73-3.14 4.29.34 4.46 3.55 9.17 9.63 14.2 7.55 6.29 11.65 13.03 12.2 20.23.38 4.84-.58 8.95-2.88 12.43-2.24 3.55-5.58 5.7-9.92 6.54h.13l.87 7.72-6.79.6-.85-8.15h.04a12.71 12.71 0 0 1-7.3-4.04c-2.71-3.09-4.34-7.46-4.77-13.02-.12-1.55-.16-3.2-.01-4.86l10.94-.85c-.03.83-.05 1.75.02 2.66.45 5.7 2.11 8.6 4.99 8.6.2 0 .41-.02.63-.05 2.45-.37 3.57-2.39 3.3-5.94-.08-1-.24-1.82-.57-2.52-1.32-2.93-3.86-6.12-7.63-9.68-5.43-5-8.5-7.96-9.4-9-3.24-3.78-5.2-7.84-5.8-12.1-.87-5.17.25-9.66 3.16-13.55a16.02 16.02 0 0 1 9.64-6.24l-.3.02-.87-7.73 6.79-.6m-2.26 79-.07-.02.07.01m2.26-80.61h-.15l-6.78.6a1.62 1.62 0 0 0-1.47 1.8l.72 6.41a17.64 17.64 0 0 0-8.88 6.39 18.7 18.7 0 0 0-3.47 14.78c.64 4.5 2.72 8.85 6.17 12.9 1.07 1.22 4.46 4.46 9.55 9.13 3.64 3.45 6.02 6.45 7.25 9.16.22.48.35 1.09.42 1.98.3 3.87-1.32 4.11-1.93 4.2-.11.02-.25.03-.38.03-2.33 0-3.12-3.86-3.37-7.1-.07-.84-.04-1.72-.02-2.47a1.62 1.62 0 0 0-1.75-1.68l-10.94.85c-.79.07-1.42.69-1.49 1.48a30.85 30.85 0 0 0 .01 5.13c.46 5.88 2.2 10.58 5.17 13.96a14.34 14.34 0 0 0 6.99 4.3l.73 7a1.62 1.62 0 0 0 1.75 1.44l6.8-.6a1.62 1.62 0 0 0 1.46-1.8l-.71-6.32a15.73 15.73 0 0 0 9.4-6.9c2.47-3.74 3.53-8.26 3.13-13.41-.6-7.6-4.9-14.78-12.8-21.36-5.7-4.72-8.74-9.12-9.05-13.08-.06-.85.13-1.57.55-2.04.28-.31.64-.48 1.03-.5h.15c2.35 0 2.8 4.87 2.86 7.78a1.62 1.62 0 0 0 1.77 1.58l11.1-1.05c.86-.08 1.5-.8 1.48-1.67-.23-6.71-1.53-11.91-3.98-15.9-2.18-3.63-5.2-5.9-9-6.78l-.71-6.79a1.62 1.62 0 0 0-1.61-1.45Z" class="y"/><path d="M401.26 161.43a.81.81 0 0 1-.8-.8l-.07-7.7c-2.73-.9-5-2.53-6.76-4.87-2.57-3.56-3.81-8.29-3.7-14.07.03-1.85.18-3.49.47-5.02.07-.39.4-.66.8-.66l11.1.2a.81.81 0 0 1 .79.91c-.1.78-.21 1.69-.23 2.59-.07 3.75.5 6.27 1.7 7.48.55.57 1.25.84 2.12.84h.17c.73-.04 3.02-.17 3.1-4.87a6.5 6.5 0 0 0-.27-2.3c-1.01-2.96-3.17-6.3-6.59-10.22-4.57-5.08-7.73-8.73-8.65-10-3-4.29-4.62-8.72-4.82-13.2a18.08 18.08 0 0 1 4.7-13.9 17.03 17.03 0 0 1 9.78-5.44l-.12-7.21a.8.8 0 0 1 .81-.83l6.9.05c.44 0 .8.36.8.8l.06 7.5c3.8 1.1 6.65 3.6 8.49 7.45 2 4.11 2.79 9.34 2.38 15.97a.81.81 0 0 1-.81.76l-11.28-.02a.81.81 0 0 1-.8-.87c.39-5.15-.46-7.28-1.25-8.17a2.42 2.42 0 0 0-1.95-.83c-1.25 0-2.53 1.1-2.57 3.21-.07 4.25 2.65 9.17 8.09 14.63 7.15 7.22 10.7 14.66 10.57 22.13-.1 5.03-1.53 9.3-4.28 12.71a15.2 15.2 0 0 1-10.3 5.83l.12 7.14a.8.8 0 0 1-.8.83l-6.9-.05Z" class="p"/><path d="m404.79 73.17 6.89.05.06 8.12c3.87.94 6.74 3.34 8.56 7.17 1.96 4 2.7 9.2 2.31 15.57l-11.28-.02c.49-6.37-.75-9.72-3.8-9.87h-.2c-1.77 0-3.33 1.52-3.38 4-.08 4.53 2.7 9.58 8.32 15.22 7 7.06 10.47 14.24 10.34 21.54-.09 4.9-1.46 8.94-4.1 12.22-2.6 3.36-6.17 5.2-10.62 5.63l.13.01.13 7.86-6.89-.05-.06-8.29h.03c-2.84-.79-5.17-2.4-6.95-4.76-2.43-3.37-3.65-7.92-3.54-13.56.02-1.57.15-3.23.45-4.9l11.1.2c-.12.84-.22 1.76-.24 2.68-.11 6.07 1.43 9.15 4.63 9.15h.2c2.5-.14 3.82-2.06 3.89-5.66a7.29 7.29 0 0 0-.33-2.6c-1.05-3.06-3.3-6.53-6.74-10.47-4.98-5.54-7.79-8.83-8.6-9.95-2.88-4.12-4.47-8.4-4.67-12.75-.37-5.28 1.19-9.68 4.5-13.32a16.19 16.19 0 0 1 10.3-5.34l-.31-.02-.13-7.86m-3 79.31-.07-.02.06.02h.01m3-80.93a1.62 1.62 0 0 0-1.62 1.65l.1 6.53c-3.71.8-6.92 2.67-9.55 5.56a18.88 18.88 0 0 0-4.91 14.53c.21 4.6 1.88 9.17 4.96 13.57.96 1.33 4.05 4.91 8.72 10.1 3.34 3.83 5.44 7.08 6.42 9.92.18.51.25 1.14.23 2.04-.07 3.94-1.73 4.03-2.36 4.07h-.1c-.65 0-1.15-.19-1.55-.6-.7-.72-1.54-2.5-1.46-6.9.02-.86.12-1.74.22-2.5a1.62 1.62 0 0 0-1.58-1.83l-11.09-.2h-.03c-.78 0-1.45.56-1.6 1.33-.28 1.58-.44 3.27-.48 5.16-.1 5.96 1.2 10.85 3.85 14.54 1.76 2.34 3.98 4 6.62 4.99l.06 7.12c0 .89.73 1.6 1.61 1.61l6.89.05h.01a1.62 1.62 0 0 0 1.62-1.65l-.1-6.44c4.2-.75 7.6-2.77 10.12-6.04 2.85-3.52 4.35-7.96 4.44-13.18.14-7.69-3.5-15.33-10.8-22.7-5.29-5.31-7.93-10.03-7.86-14.05.03-1.43.75-2.42 1.76-2.42h.1c.55.03.93.2 1.25.56.55.63 1.43 2.45 1.03 7.57a1.62 1.62 0 0 0 1.62 1.74l11.28.02c.86 0 1.57-.66 1.62-1.52.42-6.77-.39-12.13-2.47-16.38-1.84-3.86-4.66-6.44-8.4-7.68l-.06-6.9c0-.9-.72-1.61-1.61-1.62l-6.89-.05h-.01Z" class="y"/></g></svg>