<svg xmlns="http://www.w3.org/2000/svg" xmlns:xlink="http://www.w3.org/1999/xlink" viewBox="99.67 96.57 316.36 242.76"><defs><clipPath id="p"><path d="M-1.28-.63h317.23v243.38H-1.28z" style="fill:#fff"/></clipPath><clipPath id="s"><path d="m140.06 16.53-.04 11.92-.06 15.73-.02 5.3-.02 6.03-.05 12.35V68l-.05 12.55-2.53.06-3.7.09h-.28l-.03-.03-.69-1.33-10.45-9.2-1.44-6.85-1.09-5.14-1.81-8.6-1.02-4.88-.26-1.2-.12-.6-.03-.16v.09l-.01.04-.02.47-.02-.1-.1-.5v.02l-.06 1.4-.11 3.46v.07l-.04.91-.06 1.55-.54 15.87-.1 2.96h-.01l-13.03 2.18.11-2.22v-.16l.3-5.77.4-7.83.17-3.1.64-12.56.08-1.52.16-2.89.06-1.49.06-1.13.02-.4.04-.58v-.05l.08-1.7.02-.45.04-.71v-.05l.44-8.34 14.5-1.5 3.09 15.39 3.4 17.03.04.16.12.6.95 4.76.01.04.02-.66.13.66.08-3.76v-.48l.01-.13.28-13.76.1-5 .14-7.49.05-2.42.03-1.55.09-4.28 12.13-1.26Zm25.89 29.62-.06-2.24-.07-2.3-.32-12.01-.04-1.08 9.95-.85-.56-14.78h-.04l-32.32 3.4h-.05v2.32l-.01 11.85v.03l9.78-.84h.04l.01 1.32.04 3.15.05 5.11.02 2.07.01.1v.29l.03 2.04.4 36.46v.04l3.02-.07 2.26-.06 8.72-.22v-.37l.02-1.06-.88-32.28v-.02Zm47.14 26.69.47 5.9-2.84.08-4.4.11-6.66.16-.01-.04-1.3-7.13-.86-4.75h-.03l-6.78.27-4.22.17-.46 6.36h-.04l-14.28.25 5.2-35.61v-.05l.96-6.6.04-.28.24-1.62.26-1.81 1-6.82.59-4.03.27-1.88.3-2.02.17-1.2 16.32-1.71h.02l3.95 15.3 3.1 12.09.06.17 1.13 4.4 3.56 13.83 4.24 16.46ZM189.71 25.3h-.14l-.04.52-.1 1.27-.22 3-.68 9.13-.13 1.73-.02.3-.05.73-.17 2.29-.75 9.98v.04l4.87-.27.36-.02 2.4-.12-1.34-7.21-.37-2.02-.9-4.82-1.43-7.62-.11-.65-.85-4.53-.17-.9-.12-.67-.03-.16h-.01Zm-125.15-.9L46 26.34h-.01l-1.36 4.55-.06.19-.16.52-.41 1.37-.5 1.64-.5 1.7-1.89 6.25-1.47 4.91-1.46 4.85-.03.09-.16.54-2.2 7.28v-.47l-.14.47v-.04l-.07-7.43-.01-1.94v-.81l-.06-6.88-.14-15.68-18.56 1.91-1 5.32L6.45 83.8l13.14-.32.01-.05 5.02-29.69 1.95-11.5v-.02l.01.68v.01l.1-.59.02-.1v.8l.34 25.38.06 4.78.13 10.1 6.95-.17.12-.03c1.07-.28 2.15-.52 3.25-.72l1.13-3.7.28-.94 3.5-11.48.04-.12.18-.58 3.7-12.14 3.58-11.76.32-1.06.07-.23.03-.09-.05.36-.04.32.02-.05.07-.23.1-.32.03-.1v.04l-.01.08-.05.37-.04.32-.07.55-1.79 13.72-.75 5.81-.85 6.51-.27 2.17-.02.12-1.5 11.63.54-.03a59.02 59.02 0 0 1 11.54.98l.27.05.26-.01.36-.01.2-1.77.3-2.84 2.25-20.27c.08-1.12.2-2.29.32-3.47l.09-1.04c.08-.8.2-1.5.28-2.27l.03-.2.07-.48c.1-.84.2-1.71.32-2.51l.82-7.4 1.75-15.88h-.01Zm36.23 20.98v.45l-.02 1.45c-.04 1.2-.08 2.43-.15 3.72-.06 1.09-.14 2.13-.22 3.16l-.12 1.51-.24 2.32-.14 1.28-.16 1.11-.17 1.24-.15.97a43.14 43.14 0 0 1-2 8.04c-.17.5-.38.94-.58 1.41h-.02l-11.81 1.98-1.68.27-.32 1.69-1.33 6.78v.03c-.68.06-1.36.11-2.08.13h-.47l-1.1-.02c-.39-.01-.8-.01-1.17-.03-.43-.03-.82-.08-1.23-.13l-.48-.05c-.33-.04-.6-.14-.92-.2-.3-.04-.59-.1-.88-.17-.39-.09-.83-.14-1.2-.25-.5-.15-1.02-.3-1.48-.5l-.3-.16a9.6 9.6 0 0 1-1.3-.67c-.17-.11-.33-.25-.5-.37a11.2 11.2 0 0 1-.66-.52c-.08-.07-.17-.12-.24-.2a8.49 8.49 0 0 1-.92-.97c-.13-.16-.28-.29-.4-.45-.41-.53-.79-1.1-1.11-1.73-.14-.26-.25-.57-.38-.85-.13-.3-.26-.57-.38-.88l-.2-.55-.32-1.08-.1-.38-.01-.03a26.53 26.53 0 0 1-.54-2.67l-.03-.14v-.02c-.12-.85-.22-1.75-.27-2.69-.03-.47-.03-1-.05-1.48l-.01-.48-.02-.73v-.76c0-.8 0-1.63.04-2.5l.01-.53.06-1 .01-.18.09-1.62.02-.36.14-1.65.08-.94.15-1.65.08-.66.09-.69c.08-.74.17-1.47.27-2.18l.03-.34.11-.67a131.09 131.09 0 0 1 .52-3.27l.02-.1c.1-.61.22-1.19.34-1.77l.23-1.18v-.03c.15-.68.31-1.3.47-1.95l.01-.02.11-.49.16-.66a44.56 44.56 0 0 1 .96-3.16l.1-.29c.22-.6.43-1.21.67-1.78l.03-.09.04-.09a29.71 29.71 0 0 1 .87-1.88c.41-.8.83-1.57 1.28-2.27l.04-.07.03-.05.2-.29c.26-.38.53-.74.8-1.1l.46-.6.13-.14.32-.35.55-.6c.25-.26.5-.5.76-.73l.29-.25.52-.45a7.03 7.03 0 0 1 .48-.38l.04-.03c.49-.35.98-.69 1.5-.99a21.84 21.84 0 0 1 8.53-2.59c.77-.08 1.5-.13 2.22-.14a14.9 14.9 0 0 1 6.03.99c.52.22 1.01.49 1.48.8.16.08.3.21.45.33.29.2.58.43.85.67l.1.08.13.13c.17.16.32.36.47.53l.2.22c.12.16.27.3.4.47.14.19.27.4.4.61.24.36.49.71.7 1.12.3.56.56 1.16.8 1.8.09.22.16.46.24.7a19.69 19.69 0 0 1 .65 2.25 27.86 27.86 0 0 1 .48 2.43l.08.56.07.54.1.73c.02.17.05.34.06.53l.01.13a61.02 61.02 0 0 1 .24 3.76c.02.38.02.77.03 1.16.03.97.04 1.98.03 3.02v.82Zm-13.48-5.23v-1.41l-.01-.32v-.18a1 1 0 0 0 0-.09l-.01-.12-.02-.32c0-.28-.02-.56-.03-.82v-.12l-.04-.31c-.02-.32-.05-.64-.09-.92l-.08-.52-.08-.5-.1-.37-.04-.16a4.23 4.23 0 0 0-.78-1.6c-.18-.18-.4-.28-.62-.4-.1-.05-.18-.12-.29-.16a3.1 3.1 0 0 0-1.09-.16l-.3.02c-.47.04-.9.16-1.29.33-.13.06-.24.15-.36.22a4 4 0 0 0-.56.4c-.08.07-.17.1-.25.17l-.14.18c-.08.1-.17.2-.25.32l-.08.1v.02c-.07.1-.13.21-.18.32l-.2.34-.01.03a10 10 0 0 0-.36.86l-.05.13-.01.04c-.1.26-.18.53-.26.82l-.06.22a24.86 24.86 0 0 0-.37 1.48l-.02.12-.02.09-.04.2-.1.53-.2 1.05-.09.54-.15 1.02-.1.72-.08.57-.11 1-.05.45-.18 1.6-.01.1c-.04.38-.09.74-.12 1.15a234.8 234.8 0 0 0-.38 3.99l-.02.21-.13 1.45-.06.77-.12 1.28-.05.62-.03.49a127.85 127.85 0 0 0-.22 2.85l-.02.32-.07 1.04-.04.57-.02.39-.03.49-.06 1.1-.02.68-.05 1.56v.23c0 .62 0 1.2.02 1.74l.05 1.05c.02.35.05.7.09 1l.02.16.04.18.1.65.13.46c0 .04.02.07.03.11l.04.14.02.05c.1.35.24.66.4.92v.03l.08.1c.08.13.17.27.27.37.16.16.37.25.57.37l.15.1c.11.05.2.14.33.18h.02c.37.13.79.2 1.26.2h.11c.25-.02.48-.07.71-.12l.31-.04h.03l-.04-.04c.12-.04.26-.04.37-.09.06-.02.1-.06.17-.09H82c.07-.04.13-.1.2-.13l.09-.06c.17-.1.35-.19.5-.31.07-.06.16-.08.22-.15.14-.13.27-.29.39-.46l.12-.17c.11-.16.22-.36.33-.56l.08-.14.17-.4a12.08 12.08 0 0 0 .56-1.6c.1-.4.23-.86.33-1.34l.06-.3.13-.66a53.37 53.37 0 0 0 .6-4.06c.2-1.89.4-4.13.6-6.68l.15-1.77.12-1.6.03-.39.24-3.44.1-1.56.02-.36a147.2 147.2 0 0 0 .13-2.3l.03-.54.06-1.43v-.03l.01-.27v-.22l.03-.89v-.31Zm164.91 23.19-.67-5.85-4.48-38.62-1.54-13.34h-.06L233.36 6.8l.5 4.94.14 1.39.28 2.86.25 2.47.4 3.9.76 7.64 1.57 15.57.02.16.05.55.39 3.82.01.16.05.47-.08-.27-1.58-5.25-.2-.67-.06-.2-6.43-21.4-4.58-15.25h-.05l-14.49 1.52.78 9.77.12 1.53.22 2.73.12 1.56 2.93 37.08 1.04 13.09.3 3.7v.03l3.84-.1 7.22-.16 1.5-.04.59-.01-3.81-42.83-.05-.54V35l-.01-.13.06.2.21.68 2.54 8.23 4.49 14.52 6.06 19.63.01.03 5.17-.16 2.2-.07 4.09-.14 3.15-.1.23-4.94-1.07-9.27-.02-.13Zm46.85 13.32-3.83.1-4.28.1-6.85.17v-.01l-2.02-7.98-1.27-4.98h-.04l-8.21.32-2.77.1.26 12.9-.35.02-1.52.03-9.3.22-3.57.08v-.02l.15-3.08.66-13.99 1.92-40.7.15-3.24.1-2.21.1-1.85.39-8.49 16.28-1.7h.04l4.9 15.2 4.69 14.5.06.19.15.49 1.18 3.63 12.98 40.2Zm-30.03-58.25h-.1l.58 31.54v.03l3.74-.2.9-.05 2.98-.16-2.57-9.94-.7-2.73-4.73-18.31-.04-.18h-.06Z" class="df" style="fill:none"/></clipPath><clipPath id="u"><path d="M50.25 184.7a5648.25 5648.25 0 0 0-5.3 30.65h-.15a5338.3 5338.3 0 0 1-5.25-31.37c-6.15-.46-12.23-1-18.2-1.75v56.29c3.9-.43 7.84-.77 11.82-1.07v-40.23l.14.01c2.25 13.42 4.55 26.66 6.86 39.73 3.13-.2 6.28-.39 9.44-.56 2.33-12.9 4.69-25.68 7.06-38.33h.15v37.97c4.17-.2 8.35-.38 12.56-.54v-49.8c-6.42-.29-12.8-.61-19.13-1Z"/></clipPath><clipPath id="v"><path d="M100.44 186.78c4.22 15.97 8.45 31.8 12.66 47.51l-14.41.31-1.4-8.36-10.83.18-1.39 8.55c-4.75.14-9.5.3-14.24.48 4.12-16.62 8.3-33 12.48-49.2 5.71.2 11.43.38 17.13.53Zm-8.63 9.62c-1.25 6.8-2.5 13.64-3.74 20.5l7.62-.05c-1.25-6.8-2.5-13.61-3.74-20.45h-.14Z"/></clipPath><clipPath id="w"><path d="M169.9 188.03a10.94 10.94 0 0 0-5.14 4.1c-1.3 1.9-2.21 4.37-2.76 7.43a65.13 65.13 0 0 0-.81 11.17c0 4.3.23 7.97.68 11 .46 3.04 1.3 5.51 2.5 7.43a9.97 9.97 0 0 0 5.07 4.1c2.18.82 5 1.23 8.45 1.25 2 0 3.97-.19 5.89-.59a12.3 12.3 0 0 0 5.14-2.36 12.4 12.4 0 0 0 3.65-4.88c.92-2.07 1.38-4.73 1.38-7.98v-3.44h-12.3a73 73 0 0 1-.17 5.46c-.11 1.44-.3 2.6-.57 3.46a3.5 3.5 0 0 1-1.15 1.83 3 3 0 0 1-1.87.55c-.93 0-1.68-.24-2.23-.72-.55-.47-.97-1.31-1.26-2.52-.29-1.2-.48-2.83-.56-4.87-.1-2.05-.13-4.62-.13-7.72 0-3.1.04-5.68.13-7.72.08-2.05.27-3.67.56-4.88.29-1.2.7-2.05 1.26-2.52.55-.48 1.3-.72 2.23-.72 1.2 0 2.07.47 2.61 1.41.54.95.81 2.74.81 5.37v2.59l12.3-.03v-2.92c0-2.25-.3-4.28-.87-6.07a11.49 11.49 0 0 0-2.75-4.59 12.41 12.41 0 0 0-4.9-2.9 22.1 22.1 0 0 0-7.2-1c-3.2.01-5.86.44-8 1.28"/></clipPath><clipPath id="x"><path d="m135.72 187.46-4.16 13.46h-.14c-1.4-4.52-2.8-9.04-4.19-13.58-4.95-.07-9.94-.17-14.95-.27 3.78 7.82 7.56 15.58 11.31 23.3-3.97 7.94-7.96 15.91-11.96 23.95 4.94-.1 9.86-.17 14.75-.24l5.04-14.1h.14l5 13.98c4.84-.06 9.63-.1 14.37-.12-3.8-7.8-7.63-15.62-11.5-23.45 3.6-7.61 7.16-15.2 10.69-22.79-4.76-.03-9.56-.08-14.4-.14Z"/></clipPath><clipPath id="y"><path d="M214.63 196.84h.14l3.67 19.91-7.46-.02 3.65-19.89Zm-8.27-9.45c-4.03 15.56-8.03 31.06-12 46.51l13.7.15 1.35-8.16 10.61.1 1.38 8.27c4.78.08 9.58.18 14.39.29-4.22-15.95-8.45-31.76-12.66-47.46-5.63.12-11.22.22-16.77.3Z"/></clipPath><clipPath id="z"><path d="M249.4 182.85v3.94c-8.92 1.66-13.39 6.57-13.4 14.91 0 2.73.53 4.93 1.58 6.62a13.22 13.22 0 0 0 3.95 4.12 23.45 23.45 0 0 0 5.16 2.58 95.4 95.4 0 0 1 5.16 2 14.4 14.4 0 0 1 3.95 2.38 4.73 4.73 0 0 1 1.57 3.73c0 1.23-.37 2.28-1.13 3.14-.76.85-1.84 1.26-3.25 1.23a4.74 4.74 0 0 1-3.3-1.22c-.83-.79-1.24-2.2-1.24-4.23v-1.3l-13.17-.12v1.8c0 4.24 1.2 7.34 3.58 9.34 2.4 2 5.9 3.29 10.54 3.88v6.12c2.24.08 4.49.17 6.73.27v-6.18c5.02-.33 8.8-1.58 11.37-3.77 2.57-2.2 3.85-5.7 3.85-10.47 0-3.05-.54-5.49-1.63-7.32a13.57 13.57 0 0 0-4.1-4.4 20.95 20.95 0 0 0-5.33-2.56 83.8 83.8 0 0 1-5.33-1.88 15.27 15.27 0 0 1-4.13-2.3 4.53 4.53 0 0 1-1.65-3.72 4.7 4.7 0 0 1 1.03-2.91c.68-.9 1.75-1.37 3.22-1.4 1.31-.03 2.29.46 2.92 1.47.63 1.02.95 2.21.95 3.59v1.03l12.67-.23c0-4.81-1.08-8.36-3.27-10.63-2.17-2.27-5.7-3.52-10.57-3.8v-3.98c-2.24.1-4.49.19-6.73.27Z"/></clipPath><clipPath id="A"><path d="M296.28 184.04v19.41l-8.02.17V184.6c-4.4.27-8.84.52-13.3.74v50.49c4.46.2 8.9.4 13.3.65v-21.36l8.02.05v21.79a572 572 0 0 1 12.83.96v-54.98c-4.24.43-8.51.79-12.83 1.1Z"/></clipPath><clipPath id="B"><path d="M10.75 234.43v-60.78l2.25.28c6.48.82 13.08 1.36 18.1 1.74l1.57.11.25 1.56c1.1 6.7 2.23 13.46 3.37 20.2 1.11-6.47 2.25-12.99 3.4-19.5l.3-1.76 1.79.1c5.97.37 12.22.7 19.1 1l1.9.09v53.64l-1.92.07c-4.2.16-8.38.34-12.54.54l-2.1.1v-19.15c-1.1 5.96-2.18 11.9-3.24 17.77L42.7 232l-1.58.08c-3.15.17-6.3.36-9.41.56l-1.79.11-.31-1.76a6334 6334 0 0 1-3.04-17.3v19.3l-1.84.14c-4.6.35-8.33.68-11.76 1.06l-2.22.24Zm4-56.26v51.81c2.38-.24 4.93-.47 7.82-.7v-40.46l3.85.16.27 1.6c2.09 12.44 4.3 25.2 6.55 37.95l6.09-.36c2.2-12.15 4.48-24.52 6.78-36.8l.32-1.7 3.8.12v37.84c2.84-.13 5.7-.26 8.56-.37V181.3c-5.49-.25-10.58-.51-15.47-.8-1.7 9.69-3.38 19.4-5 28.88l-.28 1.66h-3.38l-.42-1.66c-1.69-9.9-3.37-19.92-5-29.84-4.23-.32-9.33-.76-14.49-1.36Z" style="fill:#231f20;clip-path:url(#a)"/></clipPath><clipPath id="a"><path d="M41.66 178.38a5648.25 5648.25 0 0 0-5.31 30.65h-.14a5338.3 5338.3 0 0 1-5.26-31.37c-6.15-.46-12.22-1-18.2-1.74v56.28c3.9-.43 7.85-.77 11.82-1.07v-40.22h.14a4562.8 4562.8 0 0 0 6.87 39.73c3.13-.2 6.27-.38 9.44-.55 2.33-12.92 4.68-25.7 7.06-38.34h.14v37.97c4.17-.2 8.36-.37 12.57-.54v-49.8c-6.43-.29-12.8-.61-19.13-1Z" class="cz" style="fill:url(#b)"/></clipPath><clipPath id="E"><path d="m59.66 231.23.64-2.58c3.9-15.77 8-31.87 12.48-49.22l.4-1.55 1.61.05c5.56.2 11.31.38 17.1.53l1.5.04.39 1.45c3.68 13.94 7.7 29.03 12.66 47.5l.66 2.48-2.56.05c-4.78.08-9.58.19-14.4.3l-1.74.04-1.39-8.37-7.44.12-1.38 8.53-1.65.05c-4.75.14-9.5.3-14.22.48l-2.66.1Zm16.6-49.24a4944.8 4944.8 0 0 0-11.44 45.04c3.31-.12 6.63-.23 9.95-.33l1.4-8.56 1.66-.04 10.84-.18 1.72-.02 1.39 8.34 10.13-.22c-4.48-16.73-8.2-30.69-11.62-43.6-4.74-.13-9.45-.28-14.04-.43Zm.82 30.6.43-2.37c1.24-6.86 2.49-13.7 3.74-20.5l.3-1.68 3.41.07.37 1.61 3.73 20.45.43 2.35-12.4.07Zm6.2-11.77-1.4 7.74 2.82-.02-1.42-7.72Z" style="clip-path:url(#c);fill:#231f20"/></clipPath><clipPath id="c"><path d="M91.84 180.46c4.22 15.97 8.45 31.8 12.67 47.52-4.8.08-9.6.19-14.42.3l-1.39-8.36-10.83.19-1.4 8.54c-4.75.14-9.5.3-14.23.48 4.12-16.61 8.29-33 12.48-49.2 5.71.2 11.42.38 17.12.53Zm-8.63 9.62-3.73 20.5 7.61-.05-3.73-20.45h-.15Z" style="fill:url(#d)"/></clipPath><clipPath id="H"><path d="M169.4 230.19h-.11c-3.74-.01-6.73-.47-9.15-1.38a11.97 11.97 0 0 1-6.05-4.9 21.25 21.25 0 0 1-2.79-8.2 77.8 77.8 0 0 1-.7-11.3c0-4.48.28-8.36.84-11.52a21.02 21.02 0 0 1 3.08-8.2 12.96 12.96 0 0 1 6.05-4.84c2.35-.92 5.28-1.4 8.72-1.42 3.06-.02 5.67.36 7.86 1.1 2.28.78 4.18 1.92 5.66 3.4a13.36 13.36 0 0 1 3.24 5.38c.64 1.99.96 4.23.96 6.68v4.91h-2l-12.3.04h-2v-4.59c0-3.17-.41-4.15-.54-4.38-.1-.18-.23-.4-.86-.4-.31 0-.72.05-.94.24-.04.03-.35.32-.62 1.47a23.88 23.88 0 0 0-.5 4.5c-.1 1.98-.14 4.55-.14 7.63s.05 5.65.13 7.63c.08 1.91.25 3.43.51 4.5.27 1.15.58 1.44.62 1.47.22.2.64.2.94.23.3 0 .53-.05.67-.15 0 0 .22-.17.42-.83.23-.7.39-1.72.49-3.02.1-1.4.16-3.19.16-5.3v-2h16.3v5.45c0 3.5-.52 6.46-1.55 8.79a14.46 14.46 0 0 1-4.24 5.63 14.3 14.3 0 0 1-5.97 2.75c-2 .42-4.08.63-6.18.63Zm.05-47.76h-.15c-2.93.01-5.38.4-7.27 1.14a8.9 8.9 0 0 0-4.21 3.37 17.12 17.12 0 0 0-2.44 6.65 63.47 63.47 0 0 0-.79 10.82c0 4.18.23 7.78.67 10.71a17.36 17.36 0 0 0 2.21 6.65 7.95 7.95 0 0 0 4.08 3.3c1.94.73 4.55 1.1 7.75 1.12 1.85.03 3.7-.18 5.48-.54 1.6-.34 3.06-1 4.32-1.99a10.53 10.53 0 0 0 3.05-4.1c.8-1.82 1.2-4.23 1.2-7.17v-1.45h-8.31a63.35 63.35 0 0 1-.16 3.61c-.13 1.62-.34 2.9-.66 3.9a5.45 5.45 0 0 1-1.86 2.85c-.84.63-1.87.94-3.05.94h-.02c-1.42 0-2.6-.4-3.53-1.2-.89-.76-1.5-1.93-1.9-3.57a28.56 28.56 0 0 1-.62-5.26c-.08-2.07-.13-4.62-.13-7.8s.05-5.74.13-7.8c.1-2.2.3-3.92.62-5.26.4-1.64 1.01-2.81 1.9-3.58a5.28 5.28 0 0 1 3.53-1.2h.01c1.92 0 3.46.86 4.35 2.43.73 1.29 1.07 3.3 1.07 6.35v.59l8.3-.03V195c0-2.03-.27-3.87-.78-5.46a9.25 9.25 0 0 0-2.27-3.78 10.5 10.5 0 0 0-4.1-2.43c-1.75-.6-3.9-.89-6.42-.89Z" style="clip-path:url(#e);fill:#231f20"/></clipPath><clipPath id="e"><path d="M161.3 181.71a10.94 10.94 0 0 0-5.13 4.1c-1.3 1.9-2.22 4.38-2.76 7.43a65.13 65.13 0 0 0-.82 11.17c0 4.3.23 7.97.69 11 .46 3.04 1.3 5.51 2.5 7.43a9.97 9.97 0 0 0 5.06 4.1c2.18.82 5 1.24 8.46 1.25 2 0 3.97-.19 5.88-.59a12.3 12.3 0 0 0 5.15-2.36c1.5-1.18 2.72-2.8 3.64-4.88.92-2.07 1.39-4.73 1.39-7.97v-3.45h-12.3a73 73 0 0 1-.18 5.46c-.1 1.44-.3 2.6-.57 3.46a3.5 3.5 0 0 1-1.14 1.84c-.5.36-1.12.54-1.87.54-.94 0-1.68-.24-2.24-.71-.55-.48-.97-1.32-1.25-2.53-.3-1.2-.48-2.83-.57-4.87-.09-2.05-.13-4.62-.13-7.72 0-3.1.04-5.67.13-7.72.1-2.04.28-3.67.57-4.88.28-1.2.7-2.04 1.25-2.52.56-.47 1.3-.71 2.24-.72 1.2 0 2.07.47 2.6 1.42.55.94.82 2.73.82 5.36v2.59l12.3-.03v-2.92c0-2.25-.3-4.27-.87-6.07a11.3 11.3 0 0 0-2.76-4.58 12.41 12.41 0 0 0-4.88-2.92c-2-.67-4.4-1-7.21-.99-3.2.01-5.86.44-8 1.28" style="fill:url(#f)"/></clipPath><clipPath id="K"><path d="m99.77 230.07 1.47-2.96c3.85-7.74 7.7-15.42 11.53-23.07a6832.8 6832.8 0 0 1-10.88-22.42l-1.43-2.94 3.27.07c5 .1 9.99.2 14.94.27l1.45.03 2.78 9 2.31-7.5.44-1.43 1.5.02c4.84.06 9.64.11 14.39.14l3.1.03-1.3 2.82c-3.1 6.67-6.47 13.85-10.29 21.92 4.1 8.3 7.73 15.7 11.09 22.6l1.39 2.85-3.18.02-14.36.12-1.43.01-.48-1.34a8416.5 8416.5 0 0 0-3.18-8.91l-3.7 10.34-1.4.02-14.73.24-3.3.07Zm7.14-47.26c3.3 6.83 6.6 13.62 9.89 20.37l.43.89-.45.88c-3.48 6.96-6.98 13.95-10.49 21 3.37-.07 6.73-.12 10.08-.17l5.04-14.12 2.85-.03.59 1.35 4.52 12.64 9.78-.08c-3.08-6.31-6.4-13.08-10.11-20.58l-.43-.87.41-.87c3.45-7.3 6.53-13.85 9.38-19.96l-9.8-.1-3.73 12.03-.43 1.41-3.1-.03-4.19-13.57c-3.4-.05-6.81-.12-10.24-.19Z" style="clip-path:url(#g);fill:#231f20"/></clipPath><clipPath id="g"><path d="m127.12 181.14-4.16 13.46h-.14l-4.18-13.58c-4.96-.07-9.94-.16-14.95-.27 3.78 7.82 7.55 15.58 11.3 23.3L103.04 228l14.75-.24 5.04-14.1h.14l5 13.98c4.84-.05 9.63-.1 14.38-.12-3.8-7.8-7.64-15.61-11.5-23.45 3.59-7.6 7.15-15.2 10.68-22.79-4.75-.03-9.55-.08-14.4-.14Z" style="fill:url(#h)"/></clipPath><clipPath id="N"><path d="m229.81 230.3-2.66-.07-14.38-.3-1.67-.02-1.37-8.26-7.22-.06-1.35 8.17-1.72-.03-13.68-.15-2.56-.02.64-2.47c3.96-15.45 7.96-30.95 11.99-46.52l.38-1.48 1.53-.02c5.54-.08 11.13-.18 16.76-.3l1.56-.03.41 1.52c5.1 18.99 9 33.62 12.66 47.46l.68 2.57Zm-15.3-4.33 10.07.2c-3.36-12.7-6.98-26.27-11.57-43.36l-13.7.24c-3.68 14.24-7.34 28.42-10.97 42.56l9.44.1 1.34-8.15 1.71.01 10.62.1 1.68.02 1.37 8.28Zm-2.26-13.53-12.26-.04 4.37-23.84 3.4-.05.38 1.65 4.1 22.28Zm-7.46-4.02h2.65l-1.33-7.22-1.32 7.22Z" style="clip-path:url(#i);fill:#231f20"/></clipPath><clipPath id="i"><path d="M206.03 190.53h.15l3.66 19.9-7.45-.02 3.64-19.88Zm-8.27-9.46c-4.02 15.57-8.03 31.07-11.99 46.51l13.7.15 1.35-8.16 10.61.1 1.37 8.27c4.78.08 9.58.18 14.4.3a14032 14032 0 0 0-12.66-47.47c-5.63.12-11.23.22-16.78.3Z" style="fill:url(#j)"/></clipPath><clipPath id="Q"><path d="m249.54 237.8-2.09-.08-6.72-.27-1.92-.08v-6.32c-4.21-.73-7.44-2.07-9.83-4.06-2.85-2.39-4.3-6.05-4.3-10.87v-3.82l2.02.01 13.18.13 1.97.02v3.27c0 2.03.48 2.64.62 2.78.46.43 1.1.65 1.96.67 1.06.03 1.5-.3 1.72-.56.43-.48.63-1.06.63-1.81 0-1.29-.51-1.89-.9-2.23a12.52 12.52 0 0 0-3.4-2.04 96.86 96.86 0 0 0-5.06-1.96c-2-.7-3.88-1.65-5.6-2.8a15.27 15.27 0 0 1-4.54-4.72c-1.24-2-1.87-4.59-1.87-7.67 0-8.83 4.51-14.38 13.4-16.53v-4.25l1.92-.08 6.72-.26 2.09-.1v4.24c4.48.51 7.76 1.9 10.01 4.24 2.54 2.64 3.83 6.69 3.83 12.02v1.97l-1.96.03c-4.22.09-8.44.16-12.68.23l-2.03.03v-3.06c0-1-.22-1.83-.65-2.53-.17-.28-.42-.53-1.18-.53-1.23.03-1.57.47-1.68.6a2.7 2.7 0 0 0-.61 1.71c0 1.26.48 1.82.9 2.16a13.4 13.4 0 0 0 3.6 2c1.6.62 3.35 1.24 5.22 1.84 2.08.66 4.04 1.6 5.83 2.81a15.62 15.62 0 0 1 4.7 5.03c1.27 2.14 1.91 4.94 1.91 8.34 0 5.38-1.53 9.41-4.54 12-2.57 2.2-6.08 3.53-10.67 4.07v6.43Zm-6.73-4.28 2.73.11v-5.95l1.86-.13c4.58-.3 8.01-1.42 10.21-3.3 2.08-1.78 3.14-4.8 3.14-8.95 0-2.67-.45-4.79-1.35-6.3a11.63 11.63 0 0 0-3.5-3.75 19 19 0 0 0-4.8-2.32 92.9 92.9 0 0 1-5.46-1.92 17.33 17.33 0 0 1-4.67-2.63 6.54 6.54 0 0 1-2.38-5.26 6.7 6.7 0 0 1 1.43-4.12c.73-.97 2.15-2.13 4.76-2.19h.17c2.47 0 3.8 1.3 4.5 2.41a8.35 8.35 0 0 1 1.2 3.65l8.66-.16c-.25-3.27-1.13-5.72-2.64-7.29-1.8-1.86-4.9-2.93-9.25-3.18l-1.88-.11v-3.78l-2.73.1v3.69l-1.64.3c-8.02 1.49-11.75 5.6-11.76 12.95 0 2.33.43 4.2 1.28 5.56.9 1.46 2 2.61 3.35 3.5 1.45.97 3.04 1.76 4.73 2.36 1.87.67 3.64 1.36 5.26 2.04 1.78.75 3.3 1.67 4.5 2.73a6.76 6.76 0 0 1 2.25 5.23c0 1.74-.55 3.24-1.63 4.46-.8.9-2.3 1.97-4.8 1.91a6.7 6.7 0 0 1-4.63-1.77c-1.14-1.08-1.75-2.72-1.85-4.99l-9.18-.09c.03 3.52.97 6 2.86 7.59 2.07 1.73 5.27 2.89 9.5 3.43l1.76.22v5.95Z" style="clip-path:url(#k);fill:#231f20"/></clipPath><clipPath id="k"><path d="M240.8 176.53v3.94c-8.92 1.66-13.38 6.58-13.39 14.92 0 2.72.53 4.92 1.58 6.61a13.22 13.22 0 0 0 3.95 4.12 23.45 23.45 0 0 0 5.16 2.58c1.85.66 3.57 1.33 5.16 2a14.4 14.4 0 0 1 3.95 2.38 4.73 4.73 0 0 1 1.57 3.73 4.6 4.6 0 0 1-1.13 3.14c-.76.85-1.84 1.26-3.26 1.23a4.74 4.74 0 0 1-3.3-1.22c-.82-.78-1.24-2.2-1.24-4.23v-1.29l-13.17-.13v1.8c0 4.24 1.2 7.35 3.58 9.34 2.4 2 5.9 3.29 10.55 3.88v6.12l6.73.27v-6.17c5.01-.34 8.8-1.58 11.37-3.78 2.57-2.2 3.84-5.7 3.84-10.47 0-3.05-.54-5.48-1.63-7.31a13.57 13.57 0 0 0-4.1-4.4 20.95 20.95 0 0 0-5.32-2.57c-1.9-.6-3.68-1.23-5.33-1.88a15.27 15.27 0 0 1-4.14-2.3 4.53 4.53 0 0 1-1.64-3.72 4.7 4.7 0 0 1 1.02-2.91c.68-.9 1.76-1.37 3.22-1.4 1.32-.03 2.3.46 2.93 1.47.63 1.02.95 2.21.95 3.59v1.03c4.23-.07 8.46-.14 12.67-.23 0-4.8-1.09-8.36-3.27-10.63-2.18-2.26-5.7-3.52-10.57-3.8v-3.98l-6.73.27Z" style="fill:url(#l)"/></clipPath><clipPath id="T"><path d="m302.51 233.78-2.17-.2a548 548 0 0 0-12.78-.95l-1.87-.12v-21.68l-4.02-.03v21.47l-2.11-.12c-4.2-.23-8.55-.44-13.28-.65l-1.91-.09v-54.3l1.9-.1c4.7-.23 9.04-.47 13.27-.74l2.13-.13v19.13l4.02-.1v-19.3l1.85-.14c4.8-.36 8.97-.72 12.77-1.1l2.2-.23v59.38Zm-12.82-5.02c3.17.21 6.1.43 8.82.66v-50.6c-2.72.26-5.63.5-8.82.75v19.52l-1.95.04c-2.67.07-5.34.12-8.03.18l-2.04.04v-18.96c-3 .19-6.07.36-9.3.53v46.67c3.24.14 6.31.3 9.3.45v-21.26l12.02.08v21.9Z" style="clip-path:url(#m);fill:#231f20"/></clipPath><clipPath id="m"><path d="M287.69 177.72v19.41c-2.66.07-5.34.12-8.02.18v-19.04c-4.4.28-8.84.52-13.3.75v50.48c4.46.2 8.89.41 13.3.65V208.8l8.02.05v21.8c4.31.27 8.59.58 12.82.95v-54.98c-4.23.43-8.5.79-12.82 1.11Z" style="fill:url(#n)"/></clipPath><clipPath id="V"><path d="M41.85 178.25a5648.25 5648.25 0 0 0-5.3 30.65h-.15a5338.3 5338.3 0 0 1-5.25-31.37c-6.15-.46-12.23-1-18.2-1.75v56.29c3.9-.43 7.84-.77 11.82-1.07v-40.23l.14.01c2.25 13.42 4.55 26.66 6.86 39.73 3.13-.2 6.28-.39 9.44-.56 2.33-12.9 4.69-25.68 7.06-38.33h.15v37.97c4.17-.2 8.35-.38 12.56-.54v-49.8c-6.42-.29-12.8-.61-19.13-1Z" class="df" style="fill:none"/></clipPath><clipPath id="W"><path d="M92.04 180.33c4.22 15.97 8.45 31.8 12.66 47.51l-14.41.31-1.4-8.36-10.83.18-1.39 8.55c-4.75.14-9.5.3-14.24.48 4.12-16.62 8.3-33 12.49-49.2 5.7.2 11.42.38 17.12.53Zm-8.63 9.62c-1.25 6.8-2.5 13.64-3.74 20.5l7.62-.05c-1.25-6.8-2.5-13.61-3.74-20.45h-.14Z" class="df" style="fill:none"/></clipPath><clipPath id="Y"><path d="M161.5 181.58a10.94 10.94 0 0 0-5.14 4.1c-1.3 1.9-2.21 4.37-2.76 7.43a65.13 65.13 0 0 0-.81 11.17c0 4.3.23 7.97.68 11 .46 3.04 1.3 5.51 2.5 7.43a9.97 9.97 0 0 0 5.07 4.1c2.18.82 5 1.23 8.45 1.25 2 0 3.97-.19 5.89-.59a12.3 12.3 0 0 0 5.14-2.36 12.4 12.4 0 0 0 3.65-4.88c.92-2.07 1.38-4.73 1.38-7.98v-3.44h-12.3a73 73 0 0 1-.17 5.46c-.11 1.44-.3 2.6-.57 3.46a3.5 3.5 0 0 1-1.15 1.83 3 3 0 0 1-1.87.55c-.93 0-1.68-.24-2.23-.72-.55-.47-.97-1.31-1.26-2.52-.29-1.2-.47-2.83-.56-4.87-.1-2.05-.13-4.62-.13-7.72 0-3.1.04-5.68.13-7.72.09-2.05.27-3.67.56-4.88.29-1.2.7-2.05 1.26-2.52.55-.48 1.3-.72 2.23-.72 1.2 0 2.07.47 2.61 1.41.54.95.81 2.74.81 5.37v2.59l12.3-.03v-2.92c0-2.25-.3-4.28-.87-6.07a11.38 11.38 0 0 0-2.75-4.59 12.41 12.41 0 0 0-4.89-2.9 22.21 22.21 0 0 0-7.21-1c-3.2.01-5.86.44-8 1.28" class="df" style="fill:none"/></clipPath><clipPath id="aa"><path d="m127.32 181.01-4.16 13.46h-.14l-4.19-13.58c-4.95-.07-9.94-.17-14.95-.27 3.78 7.82 7.56 15.58 11.31 23.3-3.97 7.94-7.96 15.91-11.96 23.95 4.94-.1 9.86-.17 14.75-.24l5.04-14.1h.14l5 13.98c4.84-.06 9.63-.1 14.37-.12-3.8-7.8-7.63-15.62-11.5-23.45 3.6-7.61 7.16-15.2 10.69-22.79-4.76-.03-9.56-.08-14.4-.14Z" class="df" style="fill:none"/></clipPath><clipPath id="ac"><path d="M206.23 190.4h.14l3.67 19.9-7.46-.02 3.65-19.89Zm-8.27-9.46c-4.03 15.56-8.03 31.06-12 46.51l13.7.15 1.35-8.16 10.61.1 1.38 8.27c4.78.08 9.58.18 14.4.29a14671.8 14671.8 0 0 0-12.67-47.46c-5.63.12-11.22.22-16.77.3Z" class="df" style="fill:none"/></clipPath><clipPath id="ae"><path d="M241 176.4v3.94c-8.92 1.66-13.39 6.57-13.4 14.91 0 2.73.53 4.93 1.58 6.62a13.22 13.22 0 0 0 3.95 4.12 23.45 23.45 0 0 0 5.16 2.58 85.1 85.1 0 0 1 5.16 2 14.4 14.4 0 0 1 3.95 2.38 4.73 4.73 0 0 1 1.57 3.73c0 1.23-.37 2.28-1.13 3.14-.76.85-1.84 1.26-3.25 1.23a4.74 4.74 0 0 1-3.3-1.22c-.83-.79-1.24-2.2-1.24-4.23v-1.3l-13.17-.12v1.8c0 4.24 1.2 7.34 3.58 9.34 2.4 2 5.9 3.29 10.54 3.88v6.12c2.25.08 4.49.17 6.73.27v-6.18c5.02-.33 8.8-1.58 11.37-3.77 2.57-2.2 3.85-5.7 3.85-10.47 0-3.05-.54-5.49-1.63-7.32a13.57 13.57 0 0 0-4.1-4.4 20.95 20.95 0 0 0-5.32-2.56c-1.9-.6-3.68-1.23-5.34-1.88a15.27 15.27 0 0 1-4.13-2.3 4.53 4.53 0 0 1-1.65-3.72 4.7 4.7 0 0 1 1.03-2.91c.68-.9 1.75-1.37 3.22-1.4 1.31-.03 2.29.46 2.92 1.47.63 1.02.95 2.21.95 3.59v1.03l12.67-.23c0-4.81-1.08-8.36-3.26-10.63-2.18-2.27-5.71-3.52-10.58-3.8v-3.98c-2.24.1-4.48.19-6.73.27Z" class="df" style="fill:none"/></clipPath><clipPath id="ag"><path d="M287.88 177.59V197l-8.02.17v-19.03c-4.4.27-8.84.52-13.3.74v50.49c4.46.2 8.9.4 13.3.65v-21.36l8.02.05v21.79a572 572 0 0 1 12.83.96v-54.98c-4.24.43-8.51.79-12.83 1.1Z" class="df" style="fill:none"/></clipPath><radialGradient id="b" cx="36.77" cy="204.06" r="26.16" gradientUnits="userSpaceOnUse"><stop offset="0" stop-color="#f9ec31"/><stop offset=".34" stop-color="#f1e92e"/><stop offset=".85" stop-color="#dde025"/><stop offset="1" stop-color="#d6de23"/></radialGradient><radialGradient xlink:href="#b" id="C" cx="-2314.35" cy="-1249.65" r=".62" gradientTransform="matrix(41.859 0 0 -41.859 96912.03 -52104.6)"/><radialGradient xlink:href="#b" id="D" cx="83.37" cy="204.53" r="22.93"/><radialGradient xlink:href="#b" id="d" cx="83.37" cy="204.53" r="22.93"/><radialGradient xlink:href="#b" id="F" cx="-2310.88" cy="-1252.32" r=".59" gradientTransform="matrix(38.916 0 0 -38.916 90014.25 -48531.35)"/><radialGradient xlink:href="#b" id="G" cx="168.98" cy="204.31" r="20.48"/><radialGradient xlink:href="#b" id="f" cx="168.98" cy="204.31" r="20.48"/><radialGradient xlink:href="#b" id="I" cx="-2310.64" cy="-1253.69" r=".55" gradientTransform="matrix(37.56 0 0 -37.56 86958.56 -46885.34)"/><radialGradient xlink:href="#b" id="J" cx="122.69" cy="204.38" r="21.73"/><radialGradient xlink:href="#b" id="h" cx="122.69" cy="204.38" r="21.73"/><radialGradient xlink:href="#b" id="L" cx="-2310.66" cy="-1252.89" r=".57" gradientTransform="matrix(38.336 0 0 -38.336 88705.06 -47827.15)"/><radialGradient xlink:href="#b" id="M" cx="206.48" cy="204.5" r="22.27"/><radialGradient xlink:href="#b" id="j" cx="206.48" cy="204.5" r="22.27"/><radialGradient xlink:href="#b" id="O" cx="-2313.44" cy="-1252.32" r=".57" gradientTransform="matrix(38.916 0 0 -38.916 90237.08 -48531.35)"/><radialGradient xlink:href="#b" id="P" cx="244.72" cy="205.99" r="24.59"/><radialGradient xlink:href="#b" id="l" cx="244.72" cy="205.99" r="24.59"/><radialGradient xlink:href="#b" id="R" cx="-2318.56" cy="-1249.31" r=".59" gradientTransform="matrix(42.244 0 0 -42.244 98189.03 -52569.21)"/><radialGradient xlink:href="#b" id="S" cx="283.44" cy="204.1" r="22.88"/><radialGradient xlink:href="#b" id="n" cx="283.44" cy="204.1" r="22.88"/><radialGradient xlink:href="#b" id="U" cx="-2311.15" cy="-1254.75" r=".63" gradientTransform="matrix(36.565 0 0 -36.565 84789.79 -45675.46)"/><radialGradient id="o" cx="-2314.34" cy="-1249.65" r=".62" gradientTransform="matrix(41.859 0 0 -41.859 96912.03 -52104.6)" gradientUnits="userSpaceOnUse"><stop offset="0" stop-color="#f7ea2f"/><stop offset=".35" stop-color="#efe72d"/><stop offset=".87" stop-color="#dbdf27"/><stop offset="1" stop-color="#d5dd26"/></radialGradient><radialGradient xlink:href="#o" id="X" cx="-2310.88" cy="-1252.32" r=".59" gradientTransform="matrix(38.916 0 0 -38.916 90014.25 -48531.35)"/><radialGradient xlink:href="#o" id="Z" cx="-2310.64" cy="-1253.69" r=".55" gradientTransform="matrix(37.56 0 0 -37.56 86958.56 -46885.34)"/><radialGradient xlink:href="#o" id="ab" cx="-2310.65" cy="-1252.89" r=".57" gradientTransform="matrix(38.336 0 0 -38.336 88705.06 -47827.15)"/><radialGradient xlink:href="#o" id="ad" cx="-2313.44" cy="-1252.32" r=".57" gradientTransform="matrix(38.916 0 0 -38.916 90237.08 -48531.35)"/><radialGradient xlink:href="#o" id="af" cx="-2318.56" cy="-1249.31" r=".59" gradientTransform="matrix(42.244 0 0 -42.244 98189.03 -52569.21)"/><radialGradient xlink:href="#o" id="ah" cx="-2311.14" cy="-1254.75" r=".63" gradientTransform="matrix(36.565 0 0 -36.565 84789.79 -45675.46)"/><linearGradient id="q" x1="153.04" x2="148.7" y1="85.08" y2="9.73" gradientUnits="userSpaceOnUse"><stop offset="0" stop-color="#fff100"/><stop offset=".1" stop-color="#fde304"/><stop offset=".29" stop-color="#fac012"/><stop offset=".56" stop-color="#f58627"/><stop offset=".87" stop-color="#ee3744"/><stop offset="1" stop-color="#ec1651"/></linearGradient><linearGradient id="r" x1="39.22" x2="277.43" y1="52.76" y2="190.29" gradientUnits="userSpaceOnUse"><stop offset="0" stop-color="#00a551"/><stop offset=".04" stop-color="#18ab55"/><stop offset=".16" stop-color="#55bc60"/><stop offset=".27" stop-color="#86ca68"/><stop offset=".37" stop-color="#a9d36e"/><stop offset=".45" stop-color="#bed972"/><stop offset=".5" stop-color="#c6dc74"/><stop offset=".57" stop-color="#c1da73"/><stop offset=".64" stop-color="#b5d771"/><stop offset=".71" stop-color="#a1d16d"/><stop offset=".79" stop-color="#84ca68"/><stop offset=".86" stop-color="#5fbf61"/><stop offset=".93" stop-color="#32b359"/><stop offset="1" stop-color="#00a651"/></linearGradient><linearGradient id="t" x1="73.05" x2="73.05" y1="223.26" y2="127.22" gradientTransform="rotate(-3.3 -1622.6 -1150.6)" gradientUnits="userSpaceOnUse"><stop offset="0" stop-color="#fff100"/><stop offset=".19" stop-color="#fbc50f"/><stop offset=".75" stop-color="#f0483e"/><stop offset="1" stop-color="#ec1651"/></linearGradient></defs><g style="clip-path:url(#p)" transform="translate(100.95 96.57)"><path d="m309.11 182.93-6.24-7.94-2.21 12.81 8.45-4.87z"/><path d="m296.28 236.95-8.32-3.63-13 2.5-9.27-4.21-12.37 1.52-3.92 8.64-11.21-3.93-6.38-8.89-10.41 5.31-10.72-3.6-1.52-8.57-3.42 3.05-11.37 8.76-8.4-6.45-16.53 5.81-11.86-5.08-6.65 5.66-14.37.12-10.05-4.16-13.41 4.49-14.41.31-10.82-3.8-.71-7.94-4.19 2.28-12.14 10.31-9.56.35-4.45.24-9.82-5-6.83 5.92-9.54-4.78-9.28 6.34-11.18-3.48 20.98-57.51 59.82-8.92 32.73-11.99 33.88 2.66 84.32 3.62 48.72 4.93 11.42 7.06-5.76 62.06z"/><path d="m140.06 16.53-.04 11.92-.06 15.73-.02 5.3-.02 6.03-.05 12.35V68l-.05 12.55-2.53.06-3.7.09h-.28l-.03-.03-.69-1.33-10.45-9.2-1.44-6.85-1.09-5.14-1.81-8.6-1.02-4.88-.26-1.2-.12-.6-.03-.16v.09l-.01.04-.02.47-.02-.1-.1-.5v.02l-.06 1.4-.11 3.46v.07l-.04.91-.06 1.55-.54 15.87-.1 2.96h-.01l-13.03 2.18.11-2.22v-.16l.3-5.77.4-7.83.17-3.1.64-12.56.08-1.52.16-2.89.06-1.49.06-1.13.02-.4.04-.58v-.05l.08-1.7.02-.45.04-.71v-.05l.44-8.34 14.5-1.5 3.09 15.39 3.4 17.03.04.16.12.6.95 4.76.01.04.02-.66.13.66.08-3.76v-.48l.01-.13.28-13.76.1-5 .14-7.49.05-2.42.03-1.55.09-4.28 12.13-1.26Zm25.89 29.62-.06-2.24-.07-2.3-.32-12.01-.04-1.08 9.95-.85-.56-14.78h-.04l-32.32 3.4h-.05v2.32l-.01 11.85v.03l9.78-.84h.04l.01 1.32.04 3.15.05 5.11.02 2.07.01.1v.29l.03 2.04.4 36.46v.04l3.02-.07 2.26-.06 8.72-.22v-.37l.02-1.06-.88-32.28v-.02Zm47.14 26.69.47 5.9-2.84.08-4.4.11-6.66.16-.01-.04-1.3-7.13-.86-4.75h-.03l-6.78.27-4.22.17-.46 6.36h-.04l-14.28.25 5.2-35.61v-.05l.96-6.6.04-.28.24-1.62.26-1.81 1-6.82.59-4.03.27-1.88.3-2.02.17-1.2 16.32-1.71h.02l3.95 15.3 3.1 12.09.06.17 1.13 4.4 3.56 13.83 4.24 16.46ZM189.71 25.3h-.14l-.04.52-.1 1.27-.22 3-.68 9.13-.13 1.73-.02.3-.05.73-.17 2.29-.75 9.98v.04l4.87-.27.36-.02 2.4-.12-1.34-7.21-.37-2.02-.9-4.82-1.43-7.62-.11-.65-.85-4.53-.17-.9-.12-.67-.03-.16h-.01Zm-125.15-.9L46 26.34h-.01l-1.36 4.55-.06.19-.16.52-.41 1.37-.5 1.64-.5 1.7-1.89 6.25-1.47 4.91-1.46 4.85-.03.09-.16.54-2.2 7.28v-.47l-.14.47v-.04l-.07-7.43-.01-1.94v-.81l-.06-6.88-.14-15.68-18.56 1.91-1 5.32L6.45 83.8l13.14-.32.01-.05 5.02-29.69 1.95-11.5v-.02l.01.68v.01l.1-.59.02-.1v.8l.34 25.38.06 4.78.13 10.1 6.95-.17.12-.03c1.07-.28 2.15-.52 3.25-.72l1.13-3.7.28-.94 3.5-11.48.04-.12.18-.58 3.7-12.14 3.58-11.76.32-1.06.07-.23.03-.09-.05.36-.04.32.02-.05.07-.23.1-.32.03-.1v.04l-.01.08-.05.37-.04.32-.07.55-1.79 13.72-.75 5.81-.85 6.51-.27 2.17-.02.12-1.5 11.63.54-.03a59.02 59.02 0 0 1 11.54.98l.27.05.26-.01.36-.01.2-1.77.3-2.84 2.25-20.27c.08-1.12.2-2.29.32-3.47l.09-1.04c.08-.8.2-1.5.28-2.27l.03-.2.07-.48c.1-.84.2-1.71.32-2.51l.82-7.4 1.75-15.88h-.01Zm36.23 20.98v.45l-.02 1.45c-.04 1.2-.08 2.43-.15 3.72-.06 1.09-.14 2.13-.22 3.16l-.12 1.51-.24 2.32-.14 1.28-.16 1.11-.17 1.24-.15.97a43.14 43.14 0 0 1-2 8.04c-.17.5-.38.94-.58 1.41h-.02l-11.81 1.98-1.68.27-.32 1.69-1.33 6.78v.03c-.68.06-1.36.11-2.08.13h-.47l-1.1-.02c-.39-.01-.8-.01-1.17-.03-.43-.03-.82-.08-1.23-.13l-.48-.05c-.33-.04-.6-.14-.92-.2-.3-.04-.59-.1-.88-.17-.39-.09-.83-.14-1.2-.25-.5-.15-1.02-.3-1.48-.5l-.3-.16a9.6 9.6 0 0 1-1.3-.67c-.17-.11-.33-.25-.5-.37a11.2 11.2 0 0 1-.66-.52c-.08-.07-.17-.12-.24-.2a8.49 8.49 0 0 1-.92-.97c-.13-.16-.28-.29-.4-.45-.41-.53-.79-1.1-1.11-1.73-.14-.26-.25-.57-.38-.85-.13-.3-.26-.57-.38-.88l-.2-.55-.32-1.08-.1-.38-.01-.03a26.53 26.53 0 0 1-.54-2.67l-.03-.14v-.02c-.12-.85-.22-1.75-.27-2.69-.03-.47-.03-1-.05-1.48l-.01-.48-.02-.73v-.76c0-.8 0-1.63.04-2.5l.01-.53.06-1 .01-.18.09-1.62.02-.36.14-1.65.08-.94.15-1.65.08-.66.09-.69c.08-.74.17-1.47.27-2.18l.03-.34.11-.67a131.09 131.09 0 0 1 .52-3.27l.02-.1c.1-.61.22-1.19.34-1.77l.23-1.18v-.03c.15-.68.31-1.3.47-1.95l.01-.02.11-.49.16-.66a44.56 44.56 0 0 1 .96-3.16l.1-.29c.22-.6.43-1.21.67-1.78l.03-.09.04-.09a29.71 29.71 0 0 1 .87-1.88c.41-.8.83-1.57 1.28-2.27l.04-.07.03-.05.2-.29c.26-.38.53-.74.8-1.1l.46-.6.13-.14.32-.35.55-.6c.25-.26.5-.5.76-.73l.29-.25.52-.45a7.03 7.03 0 0 1 .48-.38l.04-.03c.49-.35.98-.69 1.5-.99a21.84 21.84 0 0 1 8.53-2.59c.77-.08 1.5-.13 2.22-.14a14.9 14.9 0 0 1 6.03.99c.52.22 1.01.49 1.48.8.16.08.3.21.45.33.29.2.58.43.85.67l.1.08.13.13c.17.16.32.36.47.53l.2.22c.12.16.27.3.4.47.14.19.27.4.4.61.24.36.49.71.7 1.12.3.56.56 1.16.8 1.8.09.22.16.46.24.7a19.69 19.69 0 0 1 .65 2.25 27.86 27.86 0 0 1 .48 2.43l.08.56.07.54.1.73c.02.17.05.34.06.53l.01.13a61.02 61.02 0 0 1 .24 3.76c.02.38.02.77.03 1.16.03.97.04 1.98.03 3.02v.82Zm-13.48-5.23v-1.41l-.01-.32v-.18a1 1 0 0 0 0-.09l-.01-.12-.02-.32c0-.28-.02-.56-.03-.82v-.12l-.04-.31c-.02-.32-.05-.64-.09-.92l-.08-.52-.08-.5-.1-.37-.04-.16a4.23 4.23 0 0 0-.78-1.6c-.18-.18-.4-.28-.62-.4-.1-.05-.18-.12-.29-.16a3.1 3.1 0 0 0-1.09-.16l-.3.02c-.47.04-.9.16-1.29.33-.13.06-.24.15-.36.22a4 4 0 0 0-.56.4c-.08.07-.17.1-.25.17l-.14.18c-.08.1-.17.2-.25.32l-.08.1v.02c-.07.1-.13.21-.18.32l-.2.34-.01.03a10 10 0 0 0-.36.86l-.05.13-.01.04c-.1.26-.18.53-.26.82l-.06.22a24.86 24.86 0 0 0-.37 1.48l-.02.12-.02.09-.04.2-.1.53-.2 1.05-.09.54-.15 1.02-.1.72-.08.57-.11 1-.05.45-.18 1.6-.01.1c-.04.38-.09.74-.12 1.15a234.8 234.8 0 0 0-.38 3.99l-.02.21-.13 1.45-.06.77-.12 1.28-.05.62-.03.49a127.85 127.85 0 0 0-.22 2.85l-.02.32-.07 1.04-.04.57-.02.39-.03.49-.06 1.1-.02.68-.05 1.56v.23c0 .62 0 1.2.02 1.74l.05 1.05c.02.35.05.7.09 1l.02.16.04.18.1.65.13.46c0 .04.02.07.03.11l.04.14.02.05c.1.35.24.66.4.92v.03l.08.1c.08.13.17.27.27.37.16.16.37.25.57.37l.15.1c.11.05.2.14.33.18h.02c.37.13.79.2 1.26.2h.11c.25-.02.48-.07.71-.12l.31-.04h.03l-.04-.04c.12-.04.26-.04.37-.09.06-.02.1-.06.17-.09H82c.07-.04.13-.1.2-.13l.09-.06c.17-.1.35-.19.5-.31.07-.06.16-.08.22-.15.14-.13.27-.29.39-.46l.12-.17c.11-.16.22-.36.33-.56l.08-.14.17-.4a12.08 12.08 0 0 0 .56-1.6c.1-.4.23-.86.33-1.34l.06-.3.13-.66a53.37 53.37 0 0 0 .6-4.06c.2-1.89.4-4.13.6-6.68l.15-1.77.12-1.6.03-.39.24-3.44.1-1.56.02-.36a147.2 147.2 0 0 0 .13-2.3l.03-.54.06-1.43v-.03l.01-.27v-.22l.03-.89v-.31Zm164.91 23.19-.67-5.85-4.48-38.62-1.54-13.34h-.06L233.36 6.8l.5 4.94.14 1.39.28 2.86.25 2.47.4 3.9.76 7.64 1.57 15.57.02.16.05.55.39 3.82.01.16.05.47-.08-.27-1.58-5.25-.2-.67-.06-.2-6.43-21.4-4.58-15.25h-.05l-14.49 1.52.78 9.77.12 1.53.22 2.73.12 1.56 2.93 37.08 1.04 13.09.3 3.7v.03l3.84-.1 7.22-.16 1.5-.04.59-.01-3.81-42.83-.05-.54V35l-.01-.13.06.2.21.68 2.54 8.23 4.49 14.52 6.06 19.63.01.03 5.17-.16 2.2-.07 4.09-.14 3.15-.1.23-4.94-1.07-9.27-.02-.13Zm46.85 13.32-3.83.1-4.28.1-6.85.17v-.01l-2.02-7.98-1.27-4.98h-.04l-8.21.32-2.77.1.26 12.9-.35.02-1.52.03-9.3.22-3.57.08v-.02l.15-3.08.66-13.99 1.92-40.7.15-3.24.1-2.21.1-1.85.39-8.49 16.28-1.7h.04l4.9 15.2 4.69 14.5.06.19.15.49 1.18 3.63 12.98 40.2Zm-30.03-58.25h-.1l.58 31.54v.03l3.74-.2.9-.05 2.98-.16-2.57-9.94-.7-2.73-4.73-18.31-.04-.18h-.06Z" style="fill:url(#q)"/><path d="m151 137.72.95-2.29-22.14-42.82-4.94-9.55-6.32-12.23-3.33.56-13.08 2.19-6.57 1.1h-.04L85.35 76.4l-1.19 6.04v.04l-2.36 12-.76 3.89-.05.24-3.3 16.8-1.85 9.41-.34 1.72v.04l-.6 3-1.88 9.59-.8 4.12-.35 1.73-.45 2.3-.77 3.94L68.53 162l6.59-1.1 2.41-.4 6.39-1.07 15.16-2.54 1.7-10.69 22.1-3.7 2.9 6.52 1.41 3.17 1.84-.3 3.8-.64 13.55-2.27 4.63-11.27Zm-42.98-12.36-5.06.85 2.98-24.52 5.36 12.98 3.92 9.47-7.2 1.22Zm102.53 10.8a31.03 31.03 0 0 1-.01 5.2l-.1.85a33.75 33.75 0 0 1-.5 3.06l-.08.39-.04.17c-.19.78-.4 1.54-.65 2.3l-.25.78c-.33.91-.7 1.81-1.12 2.68-.16.32-.36.63-.53.94l-.39.68c-.18.31-.33.63-.53.94-.13.22-.3.43-.43.65-.37.54-.77 1.06-1.18 1.58l-.28.38c-.05.05-.07.1-.11.15-.29.35-.55.7-.85 1.04-.6.67-1.23 1.3-1.87 1.9l-.41.36-.1.1-.6.52a36.8 36.8 0 0 1-2.1 1.63l-.35.25-.36.24-.42.26c-.8.51-1.64 1-2.5 1.45l-.66.34-.31.16c-1.06.5-2.16.97-3.3 1.39l-.65.22-.26.09c-1.26.43-2.54.81-3.9 1.14l-.09 9.38-7.53.14-4.8.08-4.01.07-1.06.02v-.36l.04-4.16.05-4.27c-1.6-.1-3.3-.34-5.13-.7-1.4-.27-2.88-.65-4.42-1.07a94.43 94.43 0 0 1-8.95-3.01c-1.35-.53-2.75-1.1-4.18-1.71l-1.87-.8 4.3-10.49 1.07-2.6 4.08-9.93c.21.19.43.34.64.52a36.76 36.76 0 0 0 4.44 3.28 30.49 30.49 0 0 0 5.61 2.8 25.68 25.68 0 0 0 6.7 1.52c.75.06 1.5.1 2.25.08 1.18-.02 2.23-.24 3.23-.56.55-.17 1.1-.32 1.58-.58a6.43 6.43 0 0 0 1.98-1.56l.08-.1c.2-.3.36-.6.47-.93v-.01a3.77 3.77 0 0 0 .15-.9c.01-.1.04-.18.04-.28.01-.32-.02-.62-.07-.9l-.06-.23c-.06-.2-.1-.4-.18-.58l-.1-.2-.06-.09c-.08-.14-.15-.28-.25-.41l-.15-.18-.1-.1a3.22 3.22 0 0 0-.78-.65c-.1-.07-.19-.14-.3-.2-.19-.1-.4-.19-.61-.28l-.34-.14a7.63 7.63 0 0 0-.8-.23l-.32-.09c-.41-.08-.84-.15-1.31-.2a59.78 59.78 0 0 1-13.5-2.98l-.48-.2c-1-.38-1.91-.79-2.78-1.23-.27-.13-.55-.26-.8-.4-.63-.34-1.23-.7-1.78-1.07-.46-.31-.87-.66-1.3-1-.24-.19-.5-.37-.73-.56-.24-.21-.43-.44-.66-.66-.27-.27-.56-.53-.81-.81l-.16-.17c-.16-.17-.3-.36-.45-.55-.29-.35-.57-.72-.83-1.1l-.12-.14-.46-.74a19.27 19.27 0 0 1-1.1-2.07 19.52 19.52 0 0 1-.83-2.21l-.02-.1c-.13-.42-.25-.87-.35-1.32-.08-.3-.15-.62-.21-.94l-.03-.22c-.05-.25-.07-.5-.11-.75l-.1-.68c-.03-.29-.08-.57-.1-.86v-.11c-.07-.83-.11-1.67-.1-2.55 0-.37.04-.73.06-1.1l.02-.53.02-.44.08-.73a28.25 28.25 0 0 1 .33-2.18l.08-.37.03-.11.1-.47c.18-.75.39-1.48.63-2.21l.14-.45.06-.2c.32-.86.67-1.71 1.07-2.55l.07-.12.2-.37a27.63 27.63 0 0 1 1.44-2.51l.21-.34c.57-.84 1.16-1.67 1.82-2.48l.36-.41.55-.62c.3-.35.6-.7.93-1.02.26-.28.54-.54.82-.8.3-.3.6-.6.92-.88l.24-.2.37-.3c.62-.52 1.25-1.01 1.9-1.47l.4-.29.21-.15c.82-.55 1.65-1.06 2.52-1.52l.48-.23c.74-.38 1.5-.73 2.28-1.05l.76-.3c.94-.35 1.9-.67 2.9-.94l.1-9.97 2.06-.04h.03l14.45-.25h.05l.8-.01-.07 7.98a56.95 56.95 0 0 1 11.45 2.03c.94.28 1.84.61 2.74.94l.98.34a40.2 40.2 0 0 1 6.95 3.55l-2.16 5.31-6.33 15.6c-.61-.49-1.22-.94-1.84-1.37l-.6-.38a26 26 0 0 0-1.27-.81l-.71-.4a26.2 26.2 0 0 0-3.12-1.47l-.77-.3-1.22-.38c-.24-.07-.49-.15-.74-.21a25.7 25.7 0 0 0-1.37-.3c-.2-.04-.4-.1-.6-.12-.64-.11-1.28-.2-1.93-.24h-.04a22.44 22.44 0 0 0-3.93.04l-.48.08c-.35.05-.69.11-1 .2-.17.03-.32.09-.48.14a7.42 7.42 0 0 0-1.17.49 5.59 5.59 0 0 0-.76.53l-.23.19-.12.12-.07.1c-.1.12-.2.25-.27.37l-.14.2a.46.46 0 0 1-.04.07c-.02.02-.02.06-.03.09-.07.12-.1.26-.16.4l-.11.3-.02.1-.01.06c-.05.2-.06.43-.08.65 0 .1-.03.18-.03.27 0 .11.06.22.08.33l.04.15c.03.1.03.22.08.32l.03.06.12.18c.12.18.26.36.44.54l.26.24c.2.17.46.33.73.5l.24.15.14.08c.28.15.61.3.95.44l.6.25.5.17c.41.15.84.29 1.3.43l.23.06.62.17.13.04.85.2.25.07h.01l.05.01.34.08.18.04a1 1 0 0 0 .1.02l.27.07.3.06.24.06.11.02.5.11.59.13c2.65.6 5.03 1.23 7.12 1.91a37.8 37.8 0 0 1 6.11 2.52 20.09 20.09 0 0 1 5.42 4.22l.29.36c.4.48.78.96 1.13 1.47l.23.36c.07.1.12.22.18.32.28.44.53.88.76 1.34l.06.09.13.25c.07.15.12.32.2.47l.18.47c.13.3.26.61.37.92l.13.31c.06.2.1.4.17.58.15.5.28 1.01.4 1.53.01.09.04.16.06.25l.13.66c.11.58.19 1.18.25 1.79l.03.19c.02.21.06.41.07.63Zm84.15-56.39-.1 10.38-.01 1.02-.71 70.64-16.52.29-12.8.22.15-15.04.02-2.4.08-6.87.04-4.52-17.17.3-.29 28.83-16.86.3-7.58.13h-.01c.33-.73.65-1.46.92-2.21l.1-.3.18-.56c.27-.82.5-1.65.7-2.5l.14-.6.14-.6.16-.94c.1-.58.17-1.16.24-1.75l.1-.94.02-.51c.05-.7.1-1.38.1-2.08.02-.9-.02-1.78-.07-2.63-.02-.28-.06-.56-.09-.83-.04-.44-.1-.87-.15-1.3l-.05-.36c-.06-.38-.14-.74-.21-1.11a20.94 20.94 0 0 0-1.45-4.66 20.32 20.32 0 0 0-1.05-2.11l-.4-.63-.29-.47-.55-.8-.84-1.05c-.2-.23-.4-.48-.62-.7-.2-.23-.43-.44-.65-.65-.28-.27-.54-.56-.83-.82l-.44-.39.15-15.1 5.37-13.2.76-1.83-5.93-5.22.04-3.86.12-11.24 29.66-.52-.1 9.82-.02 1.58-.16 16.14 5.08-.08 7.72-.14 2.39-.04 1.98-.03.16-16.62.11-10.93 29.32-.5ZM48.16 83.95a54.48 54.48 0 0 1 17.8 3.45l-.46 8.04-.04.62-1.16 20.61v.02c-.14-.15-.34-.32-.55-.5l-.24-.21-.54-.45-.31-.25a72.12 72.12 0 0 0-2.28-1.77 19.02 19.02 0 0 0-10.31-3.35h-.97c-1.05 0-2.07.11-3.05.3-.36.06-.69.2-1.04.28-.6.16-1.22.3-1.8.52-.37.14-.7.35-1.07.51-.52.25-1.05.47-1.55.78-.35.21-.68.5-1.02.74-.43.31-.87.6-1.28.96l-.2.15a17 17 0 0 0-1.51 1.55l-.17.19-.2.23c-.27.35-.53.7-.77 1.05l-.22.32-.1.15c-.22.34-.41.7-.6 1.06l-.19.35-.03.06c-.25.5-.47 1.03-.66 1.57l-.01.04-.07.21c-.16.5-.3 1-.42 1.52l-.05.23-.05.3a18.1 18.1 0 0 0-.3 2.1l-.01.2-.02.2c-.04.61-.04 1.2-.02 1.79.01.28.05.55.07.82.03.3.04.6.08.87v.03c.08.52.18 1.04.3 1.54l.11.37c.1.37.21.74.35 1.1l.2.5.4.9.3.54.35.6.1.17.42.6a13.57 13.57 0 0 0 1.52 1.78l.3.32c.23.22.47.41.71.62a15.5 15.5 0 0 0 2.13 1.55l.32.18a15.64 15.64 0 0 0 2.37 1.1l.3.1a15.97 15.97 0 0 0 2.66.65l.13.01h.09c.2.04.4.06.6.08.61.06 1.24.1 1.88.1l.53.02h.4c4.14-.19 8.15-1.4 12.02-3.65l1.8-1.1-.15 2.56-.74 13.33-.74 13.15-5.43 1.13a60.47 60.47 0 0 1-13.75 1.26c-7.38-.22-13.92-1.94-19.65-5.07a38.7 38.7 0 0 1-5.1-3.34c-.52-.4-1.06-.8-1.57-1.23-.54-.46-1.03-.96-1.54-1.45-.39-.37-.79-.73-1.16-1.12l-.2-.23c-.36-.37-.69-.76-1.02-1.15-.35-.4-.7-.78-1.03-1.19l-.06-.08c-.26-.32-.49-.67-.73-1.01l-.32-.44c-.3-.4-.6-.8-.88-1.23-.08-.11-.14-.24-.21-.35l-.18-.3-.52-.88-.1-.18c-.25-.42-.5-.82-.73-1.25-.13-.24-.23-.5-.36-.74-.2-.4-.38-.8-.56-1.2-.19-.4-.4-.79-.57-1.2-.16-.4-.3-.82-.45-1.22l-.37-1c-.13-.38-.29-.74-.41-1.13-.2-.61-.35-1.25-.52-1.88-.08-.27-.16-.53-.22-.8-.08-.3-.17-.57-.24-.86a51.4 51.4 0 0 1-.72-3.74c-.04-.25-.05-.5-.08-.75-.12-.8-.2-1.61-.26-2.42-.03-.45-.1-.9-.12-1.36a41.44 41.44 0 0 1 0-4.16c.02-.16.05-.31.06-.47.08-1.2.2-2.4.4-3.58.04-.3.1-.6.16-.9.08-.5.21-1 .32-1.5.13-.63.25-1.26.4-1.88l.15-.56c.27-.98.61-1.96.95-2.93.1-.29.17-.57.28-.85l.3-.8c.47-1.2 1-2.39 1.57-3.57l.13-.3c.77-1.55 1.62-3 2.5-4.41l.29-.46.28-.45.76-1.1a48.86 48.86 0 0 1 1.86-2.46l.55-.64.45-.55c.39-.44.78-.87 1.19-1.3l.56-.57.45-.46c.4-.4.83-.79 1.25-1.17.21-.2.43-.38.65-.57l.4-.36c.6-.5 1.22-1 1.85-1.47.3-.22.58-.45.88-.66a42.6 42.6 0 0 1 5.36-3.26 43.76 43.76 0 0 1 19.25-4.63 45 45 0 0 1 2.47.02Z" style="fill:url(#r)"/><path d="m193.33 44.65-.9-4.82-1.43-7.62-.11-.65-.85-4.53-.17-.91-.12-.66-.03-.16h-.01l-.14.01-.04.51-.09 1.27-.23 3-.68 9.13-.13 1.73-.02.3-.05.73-.17 2.29-.75 9.98v.04l4.87-.27.36-.02 2.41-.12-1.35-7.21-.37-2.02zm80.54-7.75-4.73-18.31-.04-.18h-.15l.57 31.54v.03l3.74-.2.91-.05 2.97-.16-2.57-9.94-.7-2.73zM76.78 67.64c.02.35.05.7.09 1l.02.16.04.18.1.65.13.46c0 .04.02.07.03.11l.04.14.02.05c.1.35.24.66.4.92v.03l.08.1c.08.13.17.27.27.37.16.16.37.25.57.37l.15.1c.11.05.2.14.33.18h.02c.37.13.79.2 1.26.2h.11c.25-.02.48-.07.71-.12l.31-.04h.03l-.04-.04c.12-.04.26-.04.37-.09.06-.02.1-.06.17-.09H82c.07-.04.13-.1.2-.13l.09-.06c.17-.1.35-.19.5-.31.07-.06.16-.08.22-.15.14-.13.27-.29.39-.46l.12-.17c.11-.16.22-.36.33-.56l.07-.14c.07-.12.12-.26.18-.4a12.08 12.08 0 0 0 .56-1.6c.1-.4.23-.86.33-1.34l.06-.3.13-.66a53.37 53.37 0 0 0 .6-4.06c.2-1.89.4-4.13.6-6.68l.15-1.77.12-1.6.03-.39.17-2.47.03-.46.04-.51.1-1.56.02-.36a147.2 147.2 0 0 0 .13-2.3c0-.19.02-.35.03-.54l.06-1.43v-.03l.01-.27v-.22l.03-.89v-2.22a1 1 0 0 0 0-.09l-.01-.12-.02-.32c0-.28-.02-.56-.03-.82v-.12l-.04-.31c-.02-.32-.05-.64-.09-.92l-.08-.52-.08-.5-.1-.37-.04-.16a4.23 4.23 0 0 0-.78-1.6c-.18-.18-.4-.28-.62-.4-.1-.05-.18-.12-.29-.16a3.1 3.1 0 0 0-1.09-.16l-.3.02c-.47.04-.9.16-1.29.33-.13.06-.24.15-.36.22a4 4 0 0 0-.56.4c-.08.07-.17.1-.25.17l-.14.18c-.08.1-.17.2-.25.32l-.08.1v.02c-.07.1-.13.21-.18.32l-.2.34-.01.03a10 10 0 0 0-.36.86l-.05.13-.01.04c-.1.26-.18.53-.26.82l-.06.22a24.86 24.86 0 0 0-.37 1.48l-.02.12-.02.09-.04.2-.1.53-.2 1.05-.09.54-.15 1.02-.1.72-.08.57-.11 1-.05.45-.18 1.6-.01.1c-.04.38-.09.74-.12 1.15a234.8 234.8 0 0 0-.38 3.99l-.02.21-.13 1.45-.06.77-.12 1.28-.05.62-.03.49a127.85 127.85 0 0 0-.22 2.85l-.02.32-.07 1.04-.04.57-.02.39-.03.49-.06 1.1-.02.68c-.02.53-.05 1.07-.05 1.56v.23a43.12 43.12 0 0 0 .07 2.8Z"/><path d="m313.86 87.07-23.95-74.2-.54-1.7L276.7 0l-1.8.18-16.33 1.71-1.98.2-.09 2.02-.31 6.62-8.71-7.67-2.17.2-12.15 1.28-2.3.25.24 2.3.25 2.45-4.88-4.3-1.83.2-14.51 1.5-2.26.24.17 2.26.59 7.4-9.89-8.7-1.87.18-16.34 1.71-1.81.18-.22 1.51-1.5-1.33-2.35.24-32.3 3.38-.02-.01-2.43.26-12.16 1.27-2.05.2-.04 2.06-.04 2.28-4.4-3.87-1.98.21-14.53 1.52-1.98.2-.08 2-.34 6.47-5.3-4.66.14.15a11.83 11.83 0 0 0-3.41-2.2 16.96 16.96 0 0 0-6.92-1.17c-.77.01-1.59.07-2.4.15-3.6.39-6.77 1.35-9.44 2.88a19.11 19.11 0 0 0-4.2 3.34l-3.67-3.24-2.7.28-18.57 1.92-1.52.16-.47 1.5-1.1 3.69-5.1-4.5-2.42.27-18.58 1.92-1.7.18-.34 1.71L4.27 83.4l-.52 2.69 10.08 8.87a48.54 48.54 0 0 0-8.79 12.47 47.47 47.47 0 0 0-4.98 18.3c-.16 3.05 0 6.15.49 9.21 1.67 10.8 6.34 19.57 13.87 26.02l-.41-.36 12.68 11.17.41.36c7.5 6.43 15.7 12.16 26.62 12.5.9.02 2.96-2.27 3.86-2.29 3.78-.06 7.68-.52 11.59-1.32l5.45-1.13 1.85-.38.1-1.9.16-2.81 1.5 1.31 3.31-.55 30.54-5.11 1.75-.29.3-1.75 1.42-8.94 12.94-2.17 9.92 8.74 1.79-.3 3.1-.53 10.05 8.86 2.08.92a130.4 130.4 0 0 0 10.39 4.1l-.01 1.07 12.68 11.17 2.4-.05 17.39-.3 2.41-.04.03-2.42.07-7.49a41.6 41.6 0 0 0 4.6-1.62c.46-.18.9-.4 1.33-.6a36.4 36.4 0 0 0 4.28-2.3c.91-.58 1.79-1.2 2.63-1.86.35-.27.72-.53 1.06-.82.12-.1.22-.22.33-.32 1.03-.89 2.03-1.8 2.93-2.8l.6-.73.36-.45.37-.46 8.72 7.69 2.4-.04 29.66-.52 2.38-.04.03-2.4.08-8.63 12.28 10.81 2.4-.04 29.3-.51 2.4-.05.02-2.39.83-82.04v-.77l1.92-.04 3.1-.08-.94-2.94ZM175.4 27.67l-9.95.85.04 1.08.32 12 .07 2.3.06 2.25v.02l.88 32.28-.01 1.06v.37l-8.73.22-2.26.06-3.01.08v-.05l-.41-36.46-.03-2.04v-.39l-.03-2.07-.05-5.1-.04-3.16-.01-1.32h-.04l-9.78.84V18.61l.01-.27v-2.05h.05l32.32-3.4h.04l.56 14.78Zm-56.01-8.99 3.08 15.39 3.4 17.03.04.16.12.6.95 4.76.01.04.02-.66.13.66.08-3.76v-.48l.01-.13.28-13.76.1-5 .14-7.49.05-2.42.03-1.55.09-4.28 12.13-1.26-.04 11.92-.06 15.73-.02 5.3-.02 6.03-.05 12.35V68l-.05 12.55-2.53.06-3.7.09h-.28l-.03-.03-.69-1.33-10.45-9.2-1.44-6.85-1.09-5.14-1.81-8.6-1.02-4.88-.26-1.2-.12-.6-.03-.16v.09l-.01.04-.02.47-.02-.1-.1-.5v.02l-.06 1.4-.11 3.46v.07l-.04.91-.06 1.55-.54 15.87-.1 2.96h-.01l-13.03 2.18.11-2.22v-.16l.3-5.77.4-7.83.17-3.1.64-12.56.08-1.52.16-2.89.06-1.49.06-1.13.02-.4.04-.58v-.05l.08-1.7.02-.45.04-.71v-.05l.44-8.34 14.5-1.5ZM6.46 83.8l9.34-49.1 1.01-5.33 18.56-1.91.14 15.68.05 6.87v.81l.02 1.94.07 7.43v.04l.14-.47v.47l2.2-7.28.16-.54.03-.09 1.46-4.85 1.47-4.9L43 36.28l.51-1.69.5-1.64.4-1.37.17-.52.06-.19L46 26.32l18.57-1.92h.01l-1.75 15.88-.82 7.4c-.12.8-.22 1.67-.32 2.51l-.07.48c0 .07-.02.13-.03.2-.09.76-.2 1.47-.28 2.27l-.1 1.04c-.11 1.18-.23 2.35-.3 3.47l-2.25 20.27-.32 2.84-.2 1.77h-.35l-.26.02-.27-.05a59.02 59.02 0 0 0-11.54-.98l-.55.03 1.51-11.63.02-.12.27-2.17.85-6.51.75-5.81 1.79-13.72.07-.55.04-.32.05-.37v-.08l.01-.04-.03.1-.1.33-.07.22-.02.05.04-.32.05-.36-.03.09-.07.23-.32 1.06-3.59 11.76-3.7 12.14-.17.58-.04.12-3.5 11.48-.28.93-1.13 3.7c-1.1.21-2.18.45-3.25.73l-.12.03-6.95.17-.13-10.1-.06-4.78-.33-25.38-.01-.7v-.1l-.02.1-.1.59-.01-.69v.01l-1.95 11.51-5.02 29.7v.04l-13.15.32ZM65.5 95.44l-.04.62-1.16 20.61v.02c-.14-.15-.34-.32-.55-.5l-.24-.21-.54-.45-.31-.25a72.12 72.12 0 0 0-2.28-1.77 19.02 19.02 0 0 0-10.31-3.35h-.97c-1.05 0-2.07.11-3.05.3-.36.06-.69.2-1.04.28-.6.16-1.22.3-1.8.52-.37.14-.7.35-1.07.51-.52.25-1.05.47-1.55.78-.35.21-.68.5-1.02.74-.43.31-.87.6-1.28.96l-.2.15a17 17 0 0 0-1.51 1.55l-.17.19-.2.23c-.27.35-.53.7-.77 1.05l-.22.32-.1.15c-.22.34-.41.7-.6 1.06l-.19.35-.03.06c-.25.5-.47 1.03-.66 1.57l-.01.04-.07.21c-.16.5-.3 1-.42 1.52l-.05.23-.05.3a18.1 18.1 0 0 0-.3 2.1l-.01.2-.02.2c-.04.61-.04 1.2-.02 1.79.01.28.05.55.07.82.03.3.04.6.08.87v.03c.08.52.18 1.04.3 1.54l.11.37c.1.37.21.74.35 1.1l.2.5.4.9.3.54.35.6.1.17.42.6a13.57 13.57 0 0 0 1.52 1.78l.3.32c.23.22.47.41.71.62a15.5 15.5 0 0 0 2.13 1.55l.32.18a15.64 15.64 0 0 0 2.37 1.1l.3.1a15.97 15.97 0 0 0 2.66.65l.13.01h.09c.2.04.4.06.6.08.61.06 1.24.1 1.88.1l.53.02h.4c4.14-.19 8.15-1.4 12.02-3.65l1.8-1.1-.15 2.56-.74 13.33-.74 13.15-5.43 1.13a60.47 60.47 0 0 1-13.75 1.26c-7.38-.22-13.92-1.94-19.65-5.07a38.7 38.7 0 0 1-5.1-3.34c-.52-.4-1.06-.8-1.57-1.23-.54-.46-1.03-.96-1.54-1.45-.39-.37-.79-.73-1.16-1.12l-.2-.23c-.36-.37-.69-.76-1.02-1.15-.35-.4-.7-.78-1.03-1.19l-.06-.08c-.26-.32-.49-.67-.73-1.01l-.32-.44c-.3-.4-.6-.8-.88-1.23-.08-.11-.14-.24-.21-.35l-.18-.3-.52-.88-.1-.18c-.25-.42-.5-.82-.73-1.25-.13-.24-.23-.5-.36-.74-.2-.4-.38-.8-.56-1.2-.19-.4-.4-.79-.57-1.2-.16-.4-.3-.82-.45-1.22l-.37-1c-.13-.38-.29-.74-.41-1.13-.2-.61-.35-1.25-.52-1.88-.08-.27-.16-.53-.22-.8-.08-.3-.17-.57-.24-.86a51.4 51.4 0 0 1-.72-3.74c-.04-.25-.05-.5-.08-.75-.12-.8-.2-1.61-.26-2.42-.03-.45-.1-.9-.12-1.36a41.44 41.44 0 0 1 0-4.16c.02-.16.05-.31.06-.47.08-1.2.2-2.4.4-3.58.04-.3.1-.6.16-.9.08-.5.21-1 .32-1.5.13-.63.25-1.26.4-1.88l.15-.56c.27-.98.61-1.96.95-2.93.1-.29.17-.57.28-.85l.3-.8c.47-1.2 1-2.39 1.57-3.57l.13-.3c.77-1.55 1.62-3 2.5-4.41l.29-.46.28-.45.76-1.1a48.86 48.86 0 0 1 1.86-2.46l.55-.64.45-.55c.39-.44.78-.87 1.19-1.3l.56-.57.45-.46a34.57 34.57 0 0 1 1.9-1.74l.4-.36c.6-.5 1.22-1 1.85-1.47.3-.22.58-.45.88-.66a42.6 42.6 0 0 1 5.36-3.26 43.76 43.76 0 0 1 19.25-4.63 54.48 54.48 0 0 1 20.26 3.47l-.45 8.04Zm2.17-15.78c-.33-.3-.63-.63-.92-.98-.13-.16-.28-.29-.4-.45-.41-.53-.79-1.1-1.11-1.73-.14-.26-.25-.57-.38-.85-.13-.3-.26-.57-.38-.88l-.2-.55-.32-1.08-.1-.38-.01-.03a26.53 26.53 0 0 1-.54-2.67l-.03-.14v-.02c-.12-.85-.22-1.75-.27-2.69-.03-.47-.03-1-.05-1.48l-.01-.48-.02-.73v-.76c0-.8 0-1.63.04-2.5l.01-.53.06-1 .01-.18.09-1.62.02-.36.14-1.65.08-.94.15-1.65.08-.66.09-.69c.08-.74.17-1.47.27-2.18l.03-.34.11-.67a131.09 131.09 0 0 1 .52-3.27l.02-.1c.1-.61.22-1.19.34-1.77l.23-1.18v-.03c.15-.68.31-1.3.47-1.95l.01-.02.11-.49.16-.66a44.56 44.56 0 0 1 .96-3.16l.1-.29c.22-.6.43-1.21.67-1.78l.03-.09.04-.09a29.71 29.71 0 0 1 .87-1.88c.41-.8.83-1.57 1.28-2.27l.04-.07.03-.05.2-.29c.26-.38.53-.74.8-1.1l.46-.6.13-.14.32-.35.55-.6c.25-.26.5-.5.76-.73l.29-.25.52-.45a7.03 7.03 0 0 1 .48-.38l.04-.03c.49-.35.98-.69 1.5-.99a21.84 21.84 0 0 1 8.53-2.59c.77-.08 1.5-.13 2.22-.14a14.9 14.9 0 0 1 6.03.99c.52.22 1.01.49 1.48.8.16.08.3.21.45.33.29.2.58.43.85.67l.1.08.13.13c.17.16.32.36.47.53l.2.22c.12.16.27.3.4.47.14.19.27.4.4.61.24.36.49.71.7 1.12.3.56.56 1.16.8 1.8.09.22.16.46.24.7a19.69 19.69 0 0 1 .65 2.25 27.86 27.86 0 0 1 .48 2.43l.08.56.07.54.1.73c.02.17.05.34.06.53l.01.13a56.45 56.45 0 0 1 .24 3.76c.02.38.02.77.03 1.16.03.97.04 1.98.03 3.02v1.27l-.02 1.45c-.04 1.2-.08 2.43-.15 3.72-.06 1.09-.14 2.13-.22 3.16l-.12 1.51-.24 2.32-.14 1.28-.16 1.11-.17 1.24-.15.97a43.14 43.14 0 0 1-2 8.04c-.17.5-.38.94-.58 1.41h-.02l-11.81 1.98-1.68.27-.32 1.69-1.33 6.78v.03c-.68.06-1.36.11-2.08.13h-.47l-1.1-.02c-.39-.01-.8-.01-1.17-.03-.43-.03-.82-.08-1.23-.13l-.48-.05c-.33-.04-.6-.14-.92-.2-.3-.04-.59-.1-.88-.17-.39-.09-.83-.14-1.2-.25-.5-.15-1.02-.3-1.48-.5l-.3-.16a9.6 9.6 0 0 1-1.3-.67c-.17-.11-.33-.25-.5-.37a11.2 11.2 0 0 1-.66-.52c-.08-.07-.17-.12-.24-.2Zm65.15 71.6-3.79.63-1.84.31-1.4-3.17-2.9-6.53-22.11 3.71-1.7 10.69-15.16 2.54-6.39 1.06-2.41.4-6.59 1.1 2.12-10.75.77-3.94.45-2.3.34-1.73.81-4.12 1.88-9.59.6-3v-.03l.34-1.73 1.85-9.42L81 98.6l.05-.24.76-3.89 2.36-12v-.04l1.2-6.04 10.17-1.7.04-.01 6.56-1.1h.01l13.07-2.2h.01l3.33-.55 6.32 12.23 4.94 9.55 22.14 42.82-.94 2.3-4.63 11.26-13.56 2.27Zm77.72-9.9-.1.85a33.75 33.75 0 0 1-.5 3.06l-.08.39-.04.17c-.19.78-.4 1.54-.65 2.3l-.25.78c-.33.91-.7 1.81-1.12 2.68-.16.32-.36.63-.53.94-.3.54-.58 1.1-.92 1.62-.13.22-.3.43-.43.65-.37.54-.77 1.06-1.18 1.58l-.28.38c-.05.05-.07.1-.11.15-.29.35-.55.7-.85 1.04-.6.67-1.23 1.3-1.87 1.9l-.41.36-.1.1-.6.52a36.8 36.8 0 0 1-2.1 1.63l-.35.25-.36.24-.42.26c-.8.51-1.64 1-2.5 1.45l-.66.34-.31.16c-1.06.5-2.16.97-3.3 1.39l-.65.22-.26.09c-1.26.43-2.54.81-3.9 1.14l-.09 9.38-7.53.14-4.8.08-4.01.07-1.06.02v-.36l.04-4.16.05-4.27c-1.6-.1-3.3-.34-5.13-.7-1.4-.27-2.88-.65-4.42-1.07a94.43 94.43 0 0 1-8.95-3.01c-1.35-.53-2.75-1.1-4.18-1.71l-1.87-.8 4.3-10.49 1.07-2.6 4.08-9.93c.21.19.43.34.64.52a36.76 36.76 0 0 0 4.44 3.28 30.49 30.49 0 0 0 5.61 2.8 25.68 25.68 0 0 0 6.7 1.52c.75.06 1.5.1 2.25.08 1.18-.02 2.23-.24 3.23-.56.55-.17 1.1-.32 1.58-.58a6.43 6.43 0 0 0 1.98-1.56l.08-.1c.2-.3.36-.6.47-.93v-.01a3.77 3.77 0 0 0 .15-.9c.01-.1.04-.18.04-.28.01-.32-.02-.62-.07-.9l-.06-.23c-.06-.2-.1-.4-.18-.58l-.1-.2-.06-.09c-.08-.14-.15-.28-.25-.41l-.15-.18-.1-.1a3.22 3.22 0 0 0-.78-.65c-.1-.07-.19-.14-.3-.2-.19-.1-.4-.19-.61-.28l-.34-.14a7.63 7.63 0 0 0-.8-.23l-.32-.09c-.41-.08-.84-.15-1.31-.2a59.78 59.78 0 0 1-13.5-2.98l-.48-.2c-1-.38-1.91-.79-2.78-1.23-.27-.13-.55-.26-.8-.4-.63-.34-1.23-.7-1.78-1.07-.46-.31-.87-.66-1.3-1-.24-.19-.5-.37-.73-.56-.24-.21-.43-.44-.66-.66-.27-.27-.56-.53-.81-.81l-.16-.17c-.16-.17-.3-.36-.45-.55-.29-.35-.57-.72-.83-1.1l-.12-.14-.46-.74a19.27 19.27 0 0 1-1.1-2.07 19.52 19.52 0 0 1-.83-2.21l-.02-.1c-.13-.42-.25-.87-.35-1.32-.08-.3-.15-.62-.21-.94l-.03-.22c-.05-.25-.07-.5-.11-.75l-.1-.68c-.03-.29-.08-.57-.1-.86v-.11c-.07-.83-.11-1.67-.1-2.55 0-.37.04-.73.06-1.1l.02-.53.02-.44.08-.73a28.25 28.25 0 0 1 .33-2.18l.08-.37.03-.11.1-.47c.18-.75.39-1.48.63-2.21l.14-.45.06-.2c.32-.86.67-1.71 1.07-2.55l.07-.12.2-.37a27.63 27.63 0 0 1 1.44-2.51l.21-.34c.57-.84 1.16-1.67 1.82-2.48l.36-.41.55-.62c.3-.35.6-.7.93-1.02.26-.28.54-.54.82-.8.3-.3.6-.6.92-.88l.24-.2.37-.3c.62-.52 1.25-1.01 1.9-1.47l.4-.29.21-.15c.82-.55 1.65-1.06 2.52-1.52l.48-.23c.74-.38 1.5-.73 2.28-1.05l.76-.3c.94-.35 1.9-.67 2.9-.94l.1-9.97 2.06-.04h.03l14.45-.25h.05l.8-.01-.07 7.98a56.95 56.95 0 0 1 11.45 2.03c.94.28 1.84.61 2.74.94l.98.34a40.2 40.2 0 0 1 6.95 3.55l-2.16 5.31-6.33 15.6c-.61-.49-1.22-.94-1.84-1.37l-.6-.38a26 26 0 0 0-1.27-.81l-.71-.4a26.2 26.2 0 0 0-3.12-1.47l-.77-.3-1.22-.38c-.24-.07-.49-.15-.74-.21a25.7 25.7 0 0 0-1.37-.3c-.2-.04-.4-.1-.6-.12-.64-.11-1.28-.2-1.93-.24h-.04a22.44 22.44 0 0 0-3.93.04l-.48.08c-.35.05-.69.11-1 .2-.17.03-.32.09-.48.14a7.42 7.42 0 0 0-1.17.49 5.59 5.59 0 0 0-.76.53l-.23.19-.12.12-.07.1c-.1.12-.2.25-.27.37l-.14.2a.46.46 0 0 1-.04.07c-.02.02-.02.06-.03.09-.07.12-.1.26-.16.4l-.11.3-.02.1-.01.06c-.05.2-.06.43-.08.65 0 .1-.03.18-.03.27 0 .11.06.22.08.33a1.53 1.53 0 0 0 .06.2c.01.1.02.19.06.27l.03.06.12.18c.12.18.26.36.44.54l.26.24c.2.17.46.33.73.5l.24.15.14.08c.28.15.61.3.95.44l.6.25.5.17c.41.15.84.29 1.3.43l.23.06.62.17.13.04.85.2.25.07h.01l.05.01.34.08.18.04a1 1 0 0 0 .1.02l.27.07.3.06.24.06.11.02.5.11.59.13c2.65.6 5.03 1.23 7.12 1.91 2.4.78 4.45 1.62 6.11 2.52a20.09 20.09 0 0 1 5.42 4.22l.29.36c.4.48.78.96 1.13 1.47l.23.36c.07.1.12.22.18.32.28.44.53.88.76 1.34l.06.09.13.25c.07.15.12.32.2.47l.18.47c.13.3.26.61.37.92l.13.31c.06.2.1.4.17.58.15.5.28 1.01.4 1.53.01.09.04.16.06.25l.13.66c.11.58.19 1.18.25 1.79l.03.19c.02.21.06.41.07.63a31.03 31.03 0 0 1-.01 5.2Zm.18-62.54-4.4.11-6.66.16-.01-.04-1.3-7.13-.86-4.75h-.03l-6.78.27-4.22.17-.46 6.36h-.04l-14.28.25 5.2-35.61v-.05l.96-6.6.04-.28.24-1.62.26-1.81 1-6.82.59-4.03.27-1.88.3-2.02.17-1.2 16.32-1.71h.02l3.95 15.3 3.1 12.09.06.17 1.13 4.4 3.56 13.83 4.24 16.46.47 5.9-2.84.08Zm5.1-.12v-.04l-.3-3.7-1.04-13.08-2.93-37.08-.12-1.56-.22-2.73-.12-1.53-.78-9.77 14.5-1.52h.04l4.58 15.24 6.43 21.4.06.21.2.67 1.58 5.25.08.27-.05-.47-.01-.16-.4-3.82-.04-.55-.02-.16L235.7 30l-.76-7.65-.4-3.9-.25-2.46-.28-2.86-.15-1.39-.5-4.94 12.12-1.27h.06l1.54 13.34 4.48 38.62.67 5.85.02.13 1.07 9.27-.23 4.94-3.15.1-4.08.14-2.21.07-5.17.16-.01-.03-6.06-19.63-4.49-14.52-2.54-8.23-.2-.67-.07-.21v.13l.01.03.05.53 3.8 42.84-.58.01-1.5.04-7.22.17-3.84.09Zm78.77 11.45v1.02l-.71 70.64-16.52.29-12.8.22.15-15.04.02-2.4.08-6.87.04-4.52-17.17.3-.29 28.83-16.86.3-7.58.13h-.01c.33-.73.65-1.46.92-2.21l.1-.3.18-.56c.27-.82.5-1.65.7-2.5l.14-.6.14-.6.16-.94c.1-.58.17-1.16.24-1.75l.1-.94.02-.51c.05-.7.1-1.38.1-2.08.02-.9-.02-1.78-.07-2.63-.02-.28-.06-.56-.09-.83-.04-.44-.1-.87-.15-1.3l-.05-.36c-.06-.38-.14-.74-.21-1.11a20.94 20.94 0 0 0-1.45-4.66 20.32 20.32 0 0 0-1.05-2.11l-.4-.63-.29-.47-.55-.8-.84-1.05c-.2-.23-.4-.48-.62-.7-.2-.23-.43-.44-.65-.65-.28-.27-.54-.56-.83-.82l-.44-.39.15-15.1 5.37-13.2.76-1.83-5.93-5.22.04-3.86.12-11.24 29.66-.52-.1 9.82-.02 1.58-.16 16.14 5.08-.08 7.72-.14 2.39-.04 1.98-.03.16-16.62.11-10.93 29.32-.5-.1 10.37Zm.65-13.39-4.28.1-6.85.17v-.01l-2.02-7.98-1.27-4.98h-.04l-8.21.32-2.77.1.26 12.9-.35.02-1.52.03-9.3.22-3.57.08v-.02l.15-3.08.66-13.99 1.92-40.7.15-3.24.1-2.21.1-1.85.39-8.49 16.28-1.7h.04l4.9 15.2 4.69 14.5.06.19.15.49 1.18 3.63 12.98 40.2-3.83.1Z"/><path d="m105.94 101.69-2.98 24.52 5.06-.85 7.2-1.22-3.92-9.47-5.36-12.98z"/><g style="clip-path:url(#s)"><path d="M-11 68.95c4.26-1.11 5.27-7.1 9.59-7.36 0 0 10.83-14.57 13.87-15 2.9-.4 4.75 2.29 5.5 1.99 1.9-.76 6.06-10.34 9.89-10.56 4.6-.27 7.98 9.74 11.39 9.54 3.4-.2 4.32-6.08 9.58-6.3 5.94-.23 13.89 6.2 16.15 5.82 1.8-.3 6.43-4.41 8.24-4.27 2.18.19 15.7 6.37 25.59 4.32 9.9-2.05 21.21-9.85 24.78-9.89 3.12-.04 4.98 2.33 6.54 1.64 1.55-.69 6.99-11.55 8.77-11.65 3.07-.18 9.48 7.25 11.47 7.79 1.56.42 2.67-2.46 4.97-2.6 6.69-.38 20.84 21.7 24.07 21.91 1.27.09 3.18-.14 6.72-3.46 4-3.77 8.31-10.2 10.92-10.36 1.79-.1 6.84 3.19 9.13 2.8 4.6-.78 9.53-10.8 12.48-11.88 4.35 4.3 20.18 9.73 25.53 9.42 1.28-.07 12.25-9.68 13.27-9.73 1.03-.06 7.28 6.23 7.52 5.97 3.62-4.07 11.29-16.84 14.13-16.96 5.96-.24 17.81 26.56 34.39 29.06l1.59 64.02-332.93 16.7L-11 68.94Z" style="fill:url(#t)"/></g><path d="M50.25 184.7a5648.25 5648.25 0 0 0-5.3 30.65h-.15a5338.3 5338.3 0 0 1-5.25-31.37c-6.15-.46-12.23-1-18.2-1.75v56.29c3.9-.43 7.84-.77 11.82-1.07v-40.23l.14.01c2.25 13.42 4.55 26.66 6.86 39.73 3.13-.2 6.28-.39 9.44-.56 2.33-12.9 4.69-25.68 7.06-38.33h.15v37.97c4.17-.2 8.35-.38 12.56-.54v-49.8c-6.42-.29-12.8-.61-19.13-1Z"/><path d="M21.35 182.23c15.5 1.96 31.6 2.74 48.03 3.47v49.8c-16.43.64-32.51 1.32-48.03 3.02v-56.29Z" style="clip-path:url(#u)"/><path d="M100.44 186.78c4.22 15.97 8.45 31.8 12.66 47.51l-14.41.31-1.4-8.36-10.83.18-1.39 8.55c-4.75.14-9.5.3-14.24.48 4.12-16.62 8.3-33 12.48-49.2 5.71.2 11.43.38 17.13.53Zm-8.63 9.62c-1.25 6.8-2.5 13.64-3.74 20.5l7.62-.05c-1.25-6.8-2.5-13.61-3.74-20.45h-.14Z"/><path d="M70.83 185.76c14.1.61 28.22 1.03 42.27 1.32v47.21c-14.05.26-28.18.63-42.27 1.16v-49.69Z" style="clip-path:url(#v)"/><path d="M169.9 188.03a10.94 10.94 0 0 0-5.14 4.1c-1.3 1.9-2.21 4.37-2.76 7.43a65.13 65.13 0 0 0-.81 11.17c0 4.3.23 7.97.68 11 .46 3.04 1.3 5.51 2.5 7.43a9.97 9.97 0 0 0 5.07 4.1c2.18.82 5 1.23 8.45 1.25 2 0 3.97-.19 5.89-.59a12.3 12.3 0 0 0 5.14-2.36 12.4 12.4 0 0 0 3.65-4.88c.92-2.07 1.38-4.73 1.38-7.98v-3.44h-12.3a73 73 0 0 1-.17 5.46c-.11 1.44-.3 2.6-.57 3.46a3.5 3.5 0 0 1-1.15 1.83 3 3 0 0 1-1.87.55c-.93 0-1.68-.24-2.23-.72-.55-.47-.97-1.31-1.26-2.52-.29-1.2-.48-2.83-.56-4.87-.1-2.05-.13-4.62-.13-7.72 0-3.1.04-5.68.13-7.72.08-2.05.27-3.67.56-4.88.29-1.2.7-2.05 1.26-2.52.55-.48 1.3-.72 2.23-.72 1.2 0 2.07.47 2.61 1.41.54.95.81 2.74.81 5.37v2.59l12.3-.03v-2.92c0-2.25-.3-4.28-.87-6.07a11.49 11.49 0 0 0-2.75-4.59 12.41 12.41 0 0 0-4.9-2.9 22.1 22.1 0 0 0-7.2-1c-3.2.01-5.86.44-8 1.28"/><path d="M161.19 186.77c10.65.02 21.56-.02 32.76-.14v47.98c-11.2-.1-22.11-.14-32.76-.12v-47.72Z" style="clip-path:url(#w)"/><path d="m135.72 187.46-4.16 13.46h-.14c-1.4-4.52-2.8-9.04-4.19-13.58-4.95-.07-9.94-.17-14.95-.27 3.78 7.82 7.56 15.58 11.31 23.3-3.97 7.94-7.96 15.91-11.96 23.95 4.94-.1 9.86-.17 14.75-.24l5.04-14.1h.14l5 13.98c4.84-.06 9.63-.1 14.37-.12-3.8-7.8-7.63-15.62-11.5-23.45 3.6-7.61 7.16-15.2 10.69-22.79-4.76-.03-9.56-.08-14.4-.14Z"/><path d="M111.63 187.05c13.37.3 26.5.47 39.3.56v46.23c-12.8.07-25.93.23-39.3.48v-47.27Z" style="clip-path:url(#x)"/><path d="M214.63 196.84h.14l3.67 19.91-7.46-.02 3.65-19.89Zm-8.27-9.45c-4.03 15.56-8.03 31.06-12 46.51l13.7.15 1.35-8.16 10.61.1 1.38 8.27c4.78.08 9.58.18 14.39.29-4.22-15.95-8.45-31.76-12.66-47.46-5.63.12-11.22.22-16.77.3Z"/><path d="M194.37 187.54c13.55-.14 27.39-.38 41.42-.75v47.76a2888.8 2888.8 0 0 0-41.42-.65v-46.36Z" style="clip-path:url(#y)"/><path d="M249.4 182.85v3.94c-8.92 1.66-13.39 6.57-13.4 14.91 0 2.73.53 4.93 1.58 6.62a13.22 13.22 0 0 0 3.95 4.12 23.45 23.45 0 0 0 5.16 2.58 95.4 95.4 0 0 1 5.16 2 14.4 14.4 0 0 1 3.95 2.38 4.73 4.73 0 0 1 1.57 3.73c0 1.23-.37 2.28-1.13 3.14-.76.85-1.84 1.26-3.25 1.23a4.74 4.74 0 0 1-3.3-1.22c-.83-.79-1.24-2.2-1.24-4.23v-1.3l-13.17-.12v1.8c0 4.24 1.2 7.34 3.58 9.34 2.4 2 5.9 3.29 10.54 3.88v6.12c2.24.08 4.49.17 6.73.27v-6.18c5.02-.33 8.8-1.58 11.37-3.77 2.57-2.2 3.85-5.7 3.85-10.47 0-3.05-.54-5.49-1.63-7.32a13.57 13.57 0 0 0-4.1-4.4 20.95 20.95 0 0 0-5.33-2.56 83.8 83.8 0 0 1-5.33-1.88 15.27 15.27 0 0 1-4.13-2.3 4.53 4.53 0 0 1-1.65-3.72 4.7 4.7 0 0 1 1.03-2.91c.68-.9 1.75-1.37 3.22-1.4 1.31-.03 2.29.46 2.92 1.47.63 1.02.95 2.21.95 3.59v1.03l12.67-.23c0-4.81-1.08-8.36-3.27-10.63-2.17-2.27-5.7-3.52-10.57-3.8v-3.98c-2.24.1-4.49.19-6.73.27Z"/><path d="M235.28 183.33c12.05-.36 24.1-.83 36.07-1.47v60.9c-11.98-.64-24.02-1.11-36.07-1.47v-57.96Z" style="clip-path:url(#z)"/><path d="M296.28 184.04v19.41l-8.02.17V184.6c-4.4.27-8.84.52-13.3.74v50.49c4.46.2 8.9.4 13.3.65v-21.36l8.02.05v21.79a572 572 0 0 1 12.83.96v-54.98c-4.24.43-8.51.79-12.83 1.1Z"/><path d="M274.96 185.33c11.6-.58 23.01-1.27 34.15-2.4v54.98a769.5 769.5 0 0 0-34.15-2.1v-50.48Z" style="clip-path:url(#A)"/><path d="M41.66 178.38a5648.25 5648.25 0 0 0-5.31 30.65h-.14a5338.3 5338.3 0 0 1-5.26-31.37c-6.15-.46-12.22-1-18.2-1.74v56.28c3.9-.43 7.85-.77 11.82-1.07v-40.22h.14a4562.8 4562.8 0 0 0 6.87 39.73c3.13-.2 6.27-.38 9.44-.55 2.33-12.92 4.68-25.7 7.06-38.34h.14v37.97c4.17-.2 8.36-.37 12.57-.54v-49.8c-6.43-.29-12.8-.61-19.13-1Z" class="cz" style="fill:url(#b)"/><path d="M10.75 234.43v-60.78l2.25.28c6.48.82 13.08 1.36 18.1 1.74l1.57.11.25 1.56c1.1 6.7 2.23 13.46 3.37 20.2 1.11-6.47 2.25-12.99 3.4-19.5l.3-1.76 1.79.1c5.97.37 12.22.7 19.1 1l1.9.09v53.64l-1.92.07c-4.2.16-8.38.34-12.54.54l-2.1.1v-19.15c-1.1 5.96-2.18 11.9-3.24 17.77L42.7 232l-1.58.08c-3.15.17-6.3.36-9.41.56l-1.79.11-.31-1.76a6334 6334 0 0 1-3.04-17.3v19.3l-1.84.14c-4.6.35-8.33.68-11.76 1.06l-2.22.24Zm4-56.26v51.81c2.38-.24 4.93-.47 7.82-.7v-40.46l3.85.16.27 1.6c2.09 12.44 4.3 25.2 6.55 37.95l6.09-.36c2.2-12.15 4.48-24.52 6.78-36.8l.32-1.7 3.8.12v37.84c2.84-.13 5.7-.26 8.56-.37V181.3c-5.49-.25-10.58-.51-15.47-.8-1.7 9.69-3.38 19.4-5 28.88l-.28 1.66h-3.38l-.42-1.66c-1.69-9.9-3.37-19.92-5-29.84-4.23-.32-9.33-.76-14.49-1.36Z" class="bs" style="fill:#231f20"/><g style="clip-path:url(#B)"><path d="M12.75 175.92c15.51 1.95 31.6 2.73 48.04 3.46v49.8c-16.43.64-32.52 1.32-48.04 3.02v-56.28Z" style="fill:url(#C)"/><path d="M10.75 234.43v-60.78l2.25.28c15.07 1.9 30.6 2.69 47.88 3.45l1.9.09v53.64l-1.92.07c-17.28.67-32.8 1.36-47.89 3.01l-2.22.24Zm4-56.25v51.8c13.95-1.44 28.28-2.1 44.04-2.72v-45.97c-15.76-.7-30.1-1.46-44.04-3.11Z" class="bs" style="fill:#231f20"/></g><path d="M91.84 180.46c4.22 15.97 8.45 31.8 12.67 47.52-4.8.08-9.6.19-14.42.3l-1.39-8.36-10.83.19-1.4 8.54c-4.75.14-9.5.3-14.23.48 4.12-16.61 8.29-33 12.48-49.2 5.71.2 11.42.38 17.12.53Zm-8.63 9.62-3.73 20.5 7.61-.05-3.73-20.45h-.15Z" style="fill:url(#D)"/><path d="m59.66 231.23.64-2.58c3.9-15.77 8-31.87 12.48-49.22l.4-1.55 1.61.05c5.56.2 11.31.38 17.1.53l1.5.04.39 1.45c3.68 13.94 7.7 29.03 12.66 47.5l.66 2.48-2.56.05c-4.78.08-9.58.19-14.4.3l-1.74.04-1.39-8.37-7.44.12-1.38 8.53-1.65.05c-4.75.14-9.5.3-14.22.48l-2.66.1Zm16.6-49.24a4944.8 4944.8 0 0 0-11.44 45.04c3.31-.12 6.63-.23 9.95-.33l1.4-8.56 1.66-.04 10.84-.18 1.72-.02 1.39 8.34 10.13-.22c-4.48-16.73-8.2-30.69-11.62-43.6-4.74-.13-9.45-.28-14.04-.43Zm.82 30.6.43-2.37c1.24-6.86 2.49-13.7 3.74-20.5l.3-1.68 3.41.07.37 1.61 3.73 20.45.43 2.35-12.4.07Zm6.2-11.77-1.4 7.74 2.82-.02-1.42-7.72Z" class="bs" style="fill:#231f20"/><g style="clip-path:url(#E)"><path d="M62.24 179.44a1932 1932 0 0 0 42.27 1.33v47.2c-14.05.27-28.18.63-42.27 1.16v-49.69Z" style="fill:url(#F)"/><path d="M60.24 231.2v-53.85l2.09.1c13.03.56 26.84.99 42.22 1.32l1.96.04v51.13l-1.97.04c-15.4.28-29.2.66-42.22 1.15l-2.08.08Zm4-49.67v45.52c11.88-.43 24.44-.77 38.27-1.04v-43.29c-13.82-.3-26.38-.7-38.27-1.19Z" class="bs" style="fill:#231f20"/></g><path d="M161.3 181.71a10.94 10.94 0 0 0-5.13 4.1c-1.3 1.9-2.22 4.38-2.76 7.43a65.13 65.13 0 0 0-.82 11.17c0 4.3.23 7.97.69 11 .46 3.04 1.3 5.51 2.5 7.43a9.97 9.97 0 0 0 5.06 4.1c2.18.82 5 1.24 8.46 1.25 2 0 3.97-.19 5.88-.59a12.3 12.3 0 0 0 5.15-2.36c1.5-1.18 2.72-2.8 3.64-4.88.92-2.07 1.39-4.73 1.39-7.97v-3.45h-12.3a73 73 0 0 1-.18 5.46c-.1 1.44-.3 2.6-.57 3.46a3.5 3.5 0 0 1-1.14 1.84c-.5.36-1.12.54-1.87.54-.94 0-1.68-.24-2.24-.71-.55-.48-.97-1.32-1.25-2.53-.3-1.2-.48-2.83-.57-4.87-.09-2.05-.13-4.62-.13-7.72 0-3.1.04-5.67.13-7.72.1-2.04.28-3.67.57-4.88.28-1.2.7-2.04 1.25-2.52.56-.47 1.3-.71 2.24-.72 1.2 0 2.07.47 2.6 1.42.55.94.82 2.73.82 5.36v2.59l12.3-.03v-2.92c0-2.25-.3-4.27-.87-6.07a11.3 11.3 0 0 0-2.76-4.58 12.41 12.41 0 0 0-4.88-2.92c-2-.67-4.4-1-7.21-.99-3.2.01-5.86.44-8 1.28" style="fill:url(#G)"/><path d="M169.4 230.19h-.11c-3.74-.01-6.73-.47-9.15-1.38a11.97 11.97 0 0 1-6.05-4.9 21.25 21.25 0 0 1-2.79-8.2 77.8 77.8 0 0 1-.7-11.3c0-4.48.28-8.36.84-11.52a21.02 21.02 0 0 1 3.08-8.2 12.96 12.96 0 0 1 6.05-4.84c2.35-.92 5.28-1.4 8.72-1.42 3.06-.02 5.67.36 7.86 1.1 2.28.78 4.18 1.92 5.66 3.4a13.36 13.36 0 0 1 3.24 5.38c.64 1.99.96 4.23.96 6.68v4.91h-2l-12.3.04h-2v-4.59c0-3.17-.41-4.15-.54-4.38-.1-.18-.23-.4-.86-.4-.31 0-.72.05-.94.24-.04.03-.35.32-.62 1.47a23.88 23.88 0 0 0-.5 4.5c-.1 1.98-.14 4.55-.14 7.63s.05 5.65.13 7.63c.08 1.91.25 3.43.51 4.5.27 1.15.58 1.44.62 1.47.22.2.64.2.94.23.3 0 .53-.05.67-.15 0 0 .22-.17.42-.83.23-.7.39-1.72.49-3.02.1-1.4.16-3.19.16-5.3v-2h16.3v5.45c0 3.5-.52 6.46-1.55 8.79a14.46 14.46 0 0 1-4.24 5.63 14.3 14.3 0 0 1-5.97 2.75c-2 .42-4.08.63-6.18.63Zm.05-47.76h-.15c-2.93.01-5.38.4-7.27 1.14a8.9 8.9 0 0 0-4.21 3.37 17.12 17.12 0 0 0-2.44 6.65 63.47 63.47 0 0 0-.79 10.82c0 4.18.23 7.78.67 10.71a17.36 17.36 0 0 0 2.21 6.65 7.95 7.95 0 0 0 4.08 3.3c1.94.73 4.55 1.1 7.75 1.12 1.85.03 3.7-.18 5.48-.54 1.6-.34 3.06-1 4.32-1.99a10.53 10.53 0 0 0 3.05-4.1c.8-1.82 1.2-4.23 1.2-7.17v-1.45h-8.31a63.35 63.35 0 0 1-.16 3.61c-.13 1.62-.34 2.9-.66 3.9a5.45 5.45 0 0 1-1.86 2.85c-.84.63-1.87.94-3.05.94h-.02c-1.42 0-2.6-.4-3.53-1.2-.89-.76-1.5-1.93-1.9-3.57a28.56 28.56 0 0 1-.62-5.26c-.08-2.07-.13-4.62-.13-7.8s.05-5.74.13-7.8c.1-2.2.3-3.92.62-5.26.4-1.64 1.01-2.81 1.9-3.58a5.28 5.28 0 0 1 3.53-1.2h.01c1.92 0 3.46.86 4.35 2.43.73 1.29 1.07 3.3 1.07 6.35v.59l8.3-.03V195c0-2.03-.27-3.87-.78-5.46a9.25 9.25 0 0 0-2.27-3.78 10.5 10.5 0 0 0-4.1-2.43c-1.75-.6-3.9-.89-6.42-.89Z" class="bs" style="fill:#231f20"/><g style="clip-path:url(#H)"><path d="M152.6 180.46c10.64.01 21.56-.03 32.76-.15v47.98c-11.2-.1-22.12-.13-32.77-.12v-47.71Z" style="fill:url(#I)"/><path d="m187.36 230.31-2.02-.02c-10.8-.1-21.81-.14-32.74-.12h-2v-51.72h2c11 .02 22.01-.03 32.74-.14l2.02-.02v52.02Zm-30.65-4.14c8.9 0 17.84.03 26.65.1v-43.94c-9.45.09-19.11.14-28.77.13v43.7h2.12Z" class="bs" style="fill:#231f20"/></g><path d="m127.12 181.14-4.16 13.46h-.14l-4.18-13.58c-4.96-.07-9.94-.16-14.95-.27 3.78 7.82 7.55 15.58 11.3 23.3L103.04 228l14.75-.24 5.04-14.1h.14l5 13.98c4.84-.05 9.63-.1 14.38-.12-3.8-7.8-7.64-15.61-11.5-23.45 3.59-7.6 7.15-15.2 10.68-22.79-4.75-.03-9.55-.08-14.4-.14Z" style="fill:url(#J)"/><path d="m99.77 230.07 1.47-2.96c3.85-7.74 7.7-15.42 11.53-23.07a6832.8 6832.8 0 0 1-10.88-22.42l-1.43-2.94 3.27.07c5 .1 9.99.2 14.94.27l1.45.03 2.78 9 2.31-7.5.44-1.43 1.5.02c4.84.06 9.64.11 14.39.14l3.1.03-1.3 2.82c-3.1 6.67-6.47 13.85-10.29 21.92 4.1 8.3 7.73 15.7 11.09 22.6l1.39 2.85-3.18.02-14.36.12-1.43.01-.48-1.34a8416.5 8416.5 0 0 0-3.18-8.91l-3.7 10.34-1.4.02-14.73.24-3.3.07Zm7.14-47.26c3.3 6.83 6.6 13.62 9.89 20.37l.43.89-.45.88c-3.48 6.96-6.98 13.95-10.49 21 3.37-.07 6.73-.12 10.08-.17l5.04-14.12 2.85-.03.59 1.35 4.52 12.64 9.78-.08c-3.08-6.31-6.4-13.08-10.11-20.58l-.43-.87.41-.87c3.45-7.3 6.53-13.85 9.38-19.96l-9.8-.1-3.73 12.03-.43 1.41-3.1-.03-4.19-13.57c-3.4-.05-6.81-.12-10.24-.19Z" class="bs" style="fill:#231f20"/><g style="clip-path:url(#K)"><path d="M103.03 180.73c13.37.3 26.5.47 39.3.56v46.23c-12.8.08-25.93.23-39.3.48v-47.27Z" style="fill:url(#L)"/><path d="M101.03 230.04V178.7l2.05.04c12.62.28 25.84.47 39.27.56l1.99.01v50.2l-2 .02c-13.42.08-26.64.24-39.27.48l-2.04.04Zm4-47.26v43.19c11.4-.21 23.26-.36 35.3-.44v-42.25c-12.04-.1-23.9-.26-35.3-.5Z" class="bs" style="fill:#231f20"/></g><path d="M206.03 190.53h.15l3.66 19.9-7.45-.02 3.64-19.88Zm-8.27-9.46c-4.02 15.57-8.03 31.07-11.99 46.51l13.7.15 1.35-8.16 10.61.1 1.37 8.27c4.78.08 9.58.18 14.4.3a14032 14032 0 0 0-12.66-47.47c-5.63.12-11.23.22-16.78.3Z" style="fill:url(#M)"/><path d="m229.81 230.3-2.66-.07-14.38-.3-1.67-.02-1.37-8.26-7.22-.06-1.35 8.17-1.72-.03-13.68-.15-2.56-.02.64-2.47c3.96-15.45 7.96-30.95 11.99-46.52l.38-1.48 1.53-.02c5.54-.08 11.13-.18 16.76-.3l1.56-.03.41 1.52c5.1 18.99 9 33.62 12.66 47.46l.68 2.57Zm-15.3-4.33 10.07.2c-3.36-12.7-6.98-26.27-11.57-43.36l-13.7.24c-3.68 14.24-7.34 28.42-10.97 42.56l9.44.1 1.34-8.15 1.71.01 10.62.1 1.68.02 1.37 8.28Zm-2.26-13.53-12.26-.04 4.37-23.84 3.4-.05.38 1.65 4.1 22.28Zm-7.46-4.02h2.65l-1.33-7.22-1.32 7.22Z" class="bs" style="fill:#231f20"/><g style="clip-path:url(#N)"><path d="M185.77 181.22c13.56-.14 27.4-.37 41.43-.75v47.76a2888.8 2888.8 0 0 0-41.43-.65v-46.36Z" style="fill:url(#O)"/><path d="m229.2 230.28-2.05-.05c-13.17-.3-27.1-.52-41.4-.65l-1.98-.02v-50.32l1.98-.02c14.3-.15 28.23-.4 41.4-.75l2.05-.05v51.86Zm-41.43-4.68c12.89.12 25.46.32 37.43.59v-43.66c-11.97.3-24.54.53-37.43.67v42.4Z" class="bs" style="fill:#231f20"/></g><path d="M240.8 176.53v3.94c-8.92 1.66-13.38 6.58-13.39 14.92 0 2.72.53 4.92 1.58 6.61a13.22 13.22 0 0 0 3.95 4.12 23.45 23.45 0 0 0 5.16 2.58c1.85.66 3.57 1.33 5.16 2a14.4 14.4 0 0 1 3.95 2.38 4.73 4.73 0 0 1 1.57 3.73 4.6 4.6 0 0 1-1.13 3.14c-.76.85-1.84 1.26-3.26 1.23a4.74 4.74 0 0 1-3.3-1.22c-.82-.78-1.24-2.2-1.24-4.23v-1.29l-13.17-.13v1.8c0 4.24 1.2 7.35 3.58 9.34 2.4 2 5.9 3.29 10.55 3.88v6.12l6.73.27v-6.17c5.01-.34 8.8-1.58 11.37-3.78 2.57-2.2 3.84-5.7 3.84-10.47 0-3.05-.54-5.48-1.63-7.31a13.57 13.57 0 0 0-4.1-4.4 20.95 20.95 0 0 0-5.32-2.57c-1.9-.6-3.68-1.23-5.33-1.88a15.27 15.27 0 0 1-4.14-2.3 4.53 4.53 0 0 1-1.64-3.72 4.7 4.7 0 0 1 1.02-2.91c.68-.9 1.76-1.37 3.22-1.4 1.32-.03 2.3.46 2.93 1.47.63 1.02.95 2.21.95 3.59v1.03c4.23-.07 8.46-.14 12.67-.23 0-4.8-1.09-8.36-3.27-10.63-2.18-2.26-5.7-3.52-10.57-3.8v-3.98l-6.73.27Z" style="fill:url(#P)"/><path d="m249.54 237.8-2.09-.08-6.72-.27-1.92-.08v-6.32c-4.21-.73-7.44-2.07-9.83-4.06-2.85-2.39-4.3-6.05-4.3-10.87v-3.82l2.02.01 13.18.13 1.97.02v3.27c0 2.03.48 2.64.62 2.78.46.43 1.1.65 1.96.67 1.06.03 1.5-.3 1.72-.56.43-.48.63-1.06.63-1.81 0-1.29-.51-1.89-.9-2.23a12.52 12.52 0 0 0-3.4-2.04 96.86 96.86 0 0 0-5.06-1.96c-2-.7-3.88-1.65-5.6-2.8a15.27 15.27 0 0 1-4.54-4.72c-1.24-2-1.87-4.59-1.87-7.67 0-8.83 4.51-14.38 13.4-16.53v-4.25l1.92-.08 6.72-.26 2.09-.1v4.24c4.48.51 7.76 1.9 10.01 4.24 2.54 2.64 3.83 6.69 3.83 12.02v1.97l-1.96.03c-4.22.09-8.44.16-12.68.23l-2.03.03v-3.06c0-1-.22-1.83-.65-2.53-.17-.28-.42-.53-1.18-.53-1.23.03-1.57.47-1.68.6a2.7 2.7 0 0 0-.61 1.71c0 1.26.48 1.82.9 2.16a13.4 13.4 0 0 0 3.6 2c1.6.62 3.35 1.24 5.22 1.84 2.08.66 4.04 1.6 5.83 2.81a15.62 15.62 0 0 1 4.7 5.03c1.27 2.14 1.91 4.94 1.91 8.34 0 5.38-1.53 9.41-4.54 12-2.57 2.2-6.08 3.53-10.67 4.07v6.43Zm-6.73-4.28 2.73.11v-5.95l1.86-.13c4.58-.3 8.01-1.42 10.21-3.3 2.08-1.78 3.14-4.8 3.14-8.95 0-2.67-.45-4.79-1.35-6.3a11.63 11.63 0 0 0-3.5-3.75 19 19 0 0 0-4.8-2.32 92.9 92.9 0 0 1-5.46-1.92 17.33 17.33 0 0 1-4.67-2.63 6.54 6.54 0 0 1-2.38-5.26 6.7 6.7 0 0 1 1.43-4.12c.73-.97 2.15-2.13 4.76-2.19h.17c2.47 0 3.8 1.3 4.5 2.41a8.35 8.35 0 0 1 1.2 3.65l8.66-.16c-.25-3.27-1.13-5.72-2.64-7.29-1.8-1.86-4.9-2.93-9.25-3.18l-1.88-.11v-3.78l-2.73.1v3.69l-1.64.3c-8.02 1.49-11.75 5.6-11.76 12.95 0 2.33.43 4.2 1.28 5.56.9 1.46 2 2.61 3.35 3.5 1.45.97 3.04 1.76 4.73 2.36 1.87.67 3.64 1.36 5.26 2.04 1.78.75 3.3 1.67 4.5 2.73a6.76 6.76 0 0 1 2.25 5.23c0 1.74-.55 3.24-1.63 4.46-.8.9-2.3 1.97-4.8 1.91a6.7 6.7 0 0 1-4.63-1.77c-1.14-1.08-1.75-2.72-1.85-4.99l-9.18-.09c.03 3.52.97 6 2.86 7.59 2.07 1.73 5.27 2.89 9.5 3.43l1.76.22v5.95Z" class="bs" style="fill:#231f20"/><g style="clip-path:url(#Q)"><path d="M226.68 177.01c12.05-.36 24.1-.83 36.07-1.47v60.9c-11.97-.64-24.02-1.1-36.07-1.47v-57.96Z" style="fill:url(#R)"/><path d="m264.75 238.55-2.1-.11c-11.12-.6-22.9-1.08-36.03-1.47l-1.94-.06v-61.84l1.94-.06c13.16-.4 24.94-.87 36.03-1.47l2.1-.11v65.12Zm-36.07-5.52c11.57.36 22.1.79 32.07 1.3v-56.68c-9.95.51-20.48.94-32.07 1.3v54.08Z" class="bs" style="fill:#231f20"/></g><path d="M287.69 177.72v19.41c-2.66.07-5.34.12-8.02.18v-19.04c-4.4.28-8.84.52-13.3.75v50.48c4.46.2 8.89.41 13.3.65V208.8l8.02.05v21.8c4.31.27 8.59.58 12.82.95v-54.98c-4.23.43-8.5.79-12.82 1.11Z" style="fill:url(#S)"/><path d="m302.51 233.78-2.17-.2a548 548 0 0 0-12.78-.95l-1.87-.12v-21.68l-4.02-.03v21.47l-2.11-.12c-4.2-.23-8.55-.44-13.28-.65l-1.91-.09v-54.3l1.9-.1c4.7-.23 9.04-.47 13.27-.74l2.13-.13v19.13l4.02-.1v-19.3l1.85-.14c4.8-.36 8.97-.72 12.77-1.1l2.2-.23v59.38Zm-12.82-5.02c3.17.21 6.1.43 8.82.66v-50.6c-2.72.26-5.63.5-8.82.75v19.52l-1.95.04c-2.67.07-5.34.12-8.03.18l-2.04.04v-18.96c-3 .19-6.07.36-9.3.53v46.67c3.24.14 6.31.3 9.3.45v-21.26l12.02.08v21.9Z" class="bs" style="fill:#231f20"/><g style="clip-path:url(#T)"><path d="M266.37 179.02c11.6-.59 23-1.28 34.14-2.4v54.97a769.5 769.5 0 0 0-34.14-2.09v-50.48Z" style="fill:url(#U)"/><path d="m302.51 233.78-2.17-.2a775.89 775.89 0 0 0-34.06-2.08l-1.91-.09v-54.3l1.9-.1c10.22-.5 22.27-1.19 34.04-2.39l2.2-.22v59.38Zm-34.14-6.2c9.22.42 19.74.96 30.14 1.84v-50.6c-10.42 1-20.94 1.62-30.14 2.1v46.67Z" class="bs" style="fill:#231f20"/></g><g style="clip-path:url(#V)"><path d="M12.95 175.78c15.5 1.96 31.6 2.74 48.03 3.47v49.8c-16.43.64-32.51 1.32-48.03 3.02v-56.29Z" style="fill:url(#o)"/></g><g style="clip-path:url(#W)"><path d="M62.43 179.31c14.1.61 28.22 1.03 42.27 1.32v47.21c-14.05.26-28.18.63-42.27 1.16v-49.7Z" style="fill:url(#X)"/></g><g style="clip-path:url(#Y)"><path d="M152.79 180.32c10.65.02 21.56-.03 32.76-.14v47.98c-11.2-.1-22.11-.14-32.76-.12v-47.72Z" style="fill:url(#Z)"/></g><g style="clip-path:url(#aa)"><path d="M103.23 180.6c13.37.3 26.5.47 39.3.56v46.23c-12.8.07-25.93.23-39.3.48V180.6Z" style="fill:url(#ab)"/></g><g style="clip-path:url(#ac)"><path d="M185.97 181.08c13.55-.13 27.39-.37 41.42-.74v47.76a2888.8 2888.8 0 0 0-41.42-.65v-46.37Z" style="fill:url(#ad)"/></g><g style="clip-path:url(#ae)"><path d="M226.88 176.88c12.05-.36 24.1-.83 36.07-1.47v60.9c-11.98-.64-24.02-1.11-36.07-1.47v-57.96Z" style="fill:url(#af)"/></g><g style="clip-path:url(#ag)"><path d="M266.56 178.88c11.6-.58 23.01-1.27 34.15-2.4v54.98a769.5 769.5 0 0 0-34.15-2.1v-50.48Z" style="fill:url(#ah)"/></g><path d="M99.86 169.87h.04l.79-7.39 3.55-.5c-.68 4.22-1.36 8.35-2.05 12.37l-3.58-.06-1.66-6.53h-.03l-.83 6.48c-1.16-.02-2.31-.22-3.43-.06-1.1-3.4-2.2-6.36-3.3-9.95 1.14.02 2.26-.45 3.36-.6l1.6 6.48h.02l.86-6.84 2.91-.42c.58 2.31 1.17 4.65 1.75 7.02Zm6.84 4.57c-.25-4.24-.52-8.47-.78-12.7l3.8-.55.83 13.32-3.84-.07Zm5.19-13.56 11.25-1.61.25 4.06-3.7.37.69 10.98-4.07-.07-.65-10.5-3.55.36-.22-3.59Zm14.43 13.92-.98-15.85 4.24-.6.34 5.57 4.1-.36-.35-5.8 4.41-.63 1.12 17.9-4.46-.09-.42-6.65-4.11.18.4 6.4-4.29-.08Z" class="ds" style="fill:#d7e265"/></g></svg>