<svg viewBox="6.538 36 225.462 88.6" xmlns="http://www.w3.org/2000/svg"><path d="M84.8 47.7c.6-.9.7-1.7.4-2.4-.4-.8-1.4-1.2-2.6-1.2h-5l-.1.1-1.4 2-.2.3h.8l-4.3 6.2h-.7l-.1.1-1.4 2-.2.3h4.8l.1-.1 1.4-2 .2-.3h-.8l1.2-1.8h.8l-.3 4v.2h3.1l.1-.1 1.4-2 .2-.3h-1.5l.1-2.3c1.7-.5 3.2-1.5 4-2.7zm-5.1.9h-1.6l1.6-2.3h1.5c.4 0 .7.1.8.4.1.2.1.5-.1.8-.4.6-1.4 1.1-2.2 1.1zM68.1 52.7l1.7-8.3v-.2H65.6l-.1.1-1.4 2-.2.3H64.5l-7.3 6.2H56.4l-.1.1-1.4 2-.2.3h3.5l2.4-2.1h4l-.5 1.9-.1.1h3.2l.1-.1 1.4-2 .2-.3h-.8zM65.4 51h-2.9l3.8-3.4-.9 3.4zM99.7 49.8c1-1.5 1.3-2.9.7-4-.6-1.1-2-1.7-3.9-1.7-3.8 0-8.6 2.5-10.7 5.5-1 1.5-1.3 2.9-.7 3.9.6 1.1 2 1.8 3.9 1.8 3.7-.1 8.6-2.5 10.7-5.5zm-3.3-.3c-1.1 1.6-3.8 3-5.9 3-1 0-1.7-.3-2-.8-.3-.5-.1-1.2.4-2 1.1-1.7 3.8-3 5.8-3 1 0 1.7.3 2 .9.3.5.2 1.2-.3 1.9z" fill="#4d2f47"/><path d="M53.2 51.4l-.1-.2-.2.1c-1.5.8-3 1.2-4.2 1.2-1 0-1.7-.3-2-.8-.3-.5-.1-1.2.4-1.9 1.2-1.7 3.8-3 5.9-3 1.1 0 1.8.4 2.3 1.2l.1.2.2-.1 2.9-1.7.1-.1-.1-.2c-.6-1.4-1.9-2.1-4-2.1-3.8 0-8.6 2.5-10.7 5.5-1 1.5-1.3 2.9-.7 3.9.6 1.1 2 1.8 3.9 1.8 2 0 4.4-.7 6.4-1.8l.1-.1v-.1l-.3-1.8z" fill="#5a2149"/><path fill="#4d2f47" d="M130.8 52.7l4.2-6.1H135.8v-.1l1.4-2.1.3-.3h-4.9v.1l-1.5 2.1-.2.3h.8l-2.5 3.5-1-5.8-.1-.2h-3.2v.1l-1.5 2.1-.2.3h.8l-4.3 6.1h-.7l-.1.1-1.4 2-.2.3H122.2l1.4-2.1.2-.3h-.7l2.4-3.5 1 5.8v.1H129.9l1.4-2.1.2-.3h-.4zM147.8 44.1H143.6l-.1.1-1.4 2-.2.3H142.5l-7.3 6.2H134.4l-.1.1-1.4 2-.2.3h3.5l2.4-2.1h4l-.5 1.9-.1.2h3.2l.1-.1 1.4-2 .2-.3h-.9l1.7-8.3.1-.3zm-4.5 6.9h-2.9l3.8-3.4-.9 3.4zM106.6 52.1h-.1v.1l-.4.5h-2.2l4.3-6.1h.7l.1-.1 1.4-2.1.2-.3h-4.8l-.1.1-1.4 2.1-.2.3h.7l-4.3 6.1h-.7v.1l-1.4 2-.3.3h9.4l1.8-2.7.2-.3h-.3zM115.3 52.7l4.3-6.1h.7l.1-.1 1.4-2.1.3-.3h-4.9v.1l-1.5 2.1-.2.3h.8l-4.3 6.1h-.7l-.1.1-1.4 2-.2.3H114.5l1.4-2.1.2-.3h-.4zM187.6 36c-24.5 0-44.4 19.9-44.4 44.3 0 24.5 19.9 44.3 44.4 44.3S232 104.8 232 80.3c0-24.4-19.9-44.3-44.4-44.3z"/><path d="M107.9 59.9c-7.5 0-13.4 1.8-17.7 4.3l.9-4.3H66.9l-6.3 5.8c-2.6-3.1-7.1-6-15-6-1.7 0-3.4.1-5.1.4-11.4 1.5-23.9 8.6-30 17.3-4.3 6.1-5.1 12.7-2.4 18 1.7 3.2 6.1 8.6 16.9 8.6h.8c.7 0 1.4.1 2 .1h125.6V59.9h-45.5z" fill="#4d2f47"/><path d="M228 80.3c0 22.3-18.1 40.4-40.5 40.4-22.3 0-40.5-18.1-40.5-40.4 0-22.3 18.1-40.4 40.5-40.4S228 58 228 80.3z" fill="#ffd200"/><path d="M106.2 64.2c-16.7 0-22.8 11-22.8 11l2.2-11H67.5l-8.8 8-.3-.7c-1.5-3.4-5.2-7.5-13.7-7.5-11.3 0-24.9 7-31.1 16-4.7 6.7-3.3 11.7-2.1 14.1 3.7 7.4 17.9 6.4 17.9 6.4h124.2V64.2h-47.4z" fill="#ffd200"/><path d="M223.1 80.3c0 19.6-15.9 35.5-35.5 35.5s-35.5-15.9-35.5-35.5 15.9-35.5 35.5-35.5 35.5 15.9 35.5 35.5z" fill="#95368e"/><path d="M187.2 47.9h-.5c-12 0-22.9 7.7-27.8 19.5h3.9c4.6-10.3 13.8-17.5 24.4-18.6h.2v-.9h-.2z" fill="#fff"/><path d="M41.9 91.6l-1.4-5.1-.2.1c-3.9 2.1-7.9 3.3-11.1 3.3-2.7 0-4.6-.8-5.4-2.4-.8-1.4-.4-3.4 1-5.4 3.1-4.4 10.1-8 15.7-8 3 0 5 1 6.4 3.3l.1.2 7.9-4.6-.1-.2c-1.5-3.5-4.9-5.2-10.2-5.2-9.9 0-22.4 6.4-27.9 14.3-2.6 3.7-3.3 7.3-1.8 10 1.5 2.9 5.1 4.5 10.1 4.5 5.2 0 11.4-1.8 16.8-4.7l.1-.1zm0 0l-1.4-5.1-.2.1c-3.9 2.1-7.9 3.3-11.1 3.3-2.7 0-4.6-.8-5.4-2.4-.8-1.4-.4-3.4 1-5.4 3.1-4.4 10.1-8 15.7-8 3 0 5 1 6.4 3.3l.1.2 7.9-4.6-.1-.2c-1.5-3.5-4.9-5.2-10.2-5.2-9.9 0-22.4 6.4-27.9 14.3-2.6 3.7-3.3 7.3-1.8 10 1.5 2.9 5.1 4.5 10.1 4.5 5.2 0 11.4-1.8 16.8-4.7l.1-.1zm0 0l-1.4-5.1-.2.1c-3.9 2.1-7.9 3.3-11.1 3.3-2.7 0-4.6-.8-5.4-2.4-.8-1.4-.4-3.4 1-5.4 3.1-4.4 10.1-8 15.7-8 3 0 5 1 6.4 3.3l.1.2 7.9-4.6-.1-.2c-1.5-3.5-4.9-5.2-10.2-5.2-9.9 0-22.4 6.4-27.9 14.3-2.6 3.7-3.3 7.3-1.8 10 1.5 2.9 5.1 4.5 10.1 4.5 5.2 0 11.4-1.8 16.8-4.7l.1-.1zm62.4-3.9c1.3-1.9 1.8-3.6 1.5-5.1-.5-2-2.3-3.1-3.6-3.8-.4-.2-.8-.4-1.1-.6-1.2-.6-2.2-1.1-2.4-1.8-.1-.3 0-.6.3-1 .8-1.1 2.6-1.8 4.5-1.8 2.1 0 3.2.9 3.6 1.3l.1.1 7.4-4.9-.2-.2c-1.2-1-3.3-2.1-6.7-2.3-6.3-.2-13.3 2.9-16.9 7.5-1.3 1.7-1.9 3.4-1.6 4.8.2 1.3 1.1 2.4 2.5 3.3.6.4 1.2.7 1.8 1 1.3.7 2.5 1.3 2.6 2.1.1.3 0 .7-.3 1.2-.8 1.2-2.6 1.9-4.5 1.9-2 0-3.8-.8-5.2-2.3L86 87l-8 5.5.2.2c2.3 2.5 5.2 3.7 8.9 3.7 6.3 0 13.7-3.7 17.2-8.7zm33.9-19.9l-4 5.8h1.9l-3.8 5.5h-9.6l3.8-5.5h1.9l4.1-5.8h-11.9l-4.1 5.8h1.9l-11.7 16.8h-1.9l-4 5.8h11.9l4-5.8h-1.9l3.8-5.5h9.6l-3.8 5.5h-1.9l-4 5.8h13.4l4-5.8h-3.3l11.7-16.8h1.9l4-5.8h-12zm-57.8.2l.1-.3H69l-6.3 5.8h4.8L47.6 90.3h-1.9l-6.3 5.8h10.4l6.4-5.6h11.1l-1.5 5.6h8.1l4-5.8h-2L80.4 68zM68.6 84.9h-6.1l7.9-7-1.8 7zM222.5 56.1s-4.9 1-6.7 1.2c-3.3.4-8.3 1-14.6 1h-1.6c-6.9 0-13.3-.3-19.8-1l-2-.2-1.9-.2-1.1 1.7-1.1 1.7L160 81.9l-4.1 6.4c-1.9 1.1-3.3 2.3-4.3 3.6-2.6 3.5-3.1 7.7-1.3 11.3 3 6 11.6 9.4 24.1 9.4h.5c18.6-.1 34.2-7.1 40.7-18.1l.6-1.1c3.5-7.2 1.5-12.4-.1-14.8-.6-1-1.3-1.8-2.2-2.7 14.1-5.7 13.3-13.2 13.3-13.2-.8-2.6-1.5-5.4-4.7-6.6z" fill="#4d2f47"/><path d="M224.7 60c.1-.4.2-.7.2-.7s-6.8.9-8.7 1.1c-3.4.4-8.5 1-15 1h-1.6c-7 0-13.6-.3-20.1-1l-2-.2-1.1 1.7-13.7 21.6-4.5 7.1c-1.6.9-3.1 2-4 3.2-1.9 2.5-2.3 5.5-1 8 2.4 4.8 10.2 7.6 21.2 7.6h.5c17.5-.1 32-6.5 38-16.5l.4-.6.1-.1.1-.1c2.7-5.5 1.5-9.4.1-11.7-1.5-2.5-4.2-4.3-7.8-5.6 14.2-3.1 18-12.2 18.9-14.8z" fill="#ffd200"/><path d="M192 72.6c15.7-.1 26.3-9.2 25.8-9.2-3.2.4-9.1 1.2-16.8 1.2-7.7.1-15-.3-22.1-1l-13.7 21.6 9.4-.1c3.1-1.8 4.9-2.7 8.8-2.7 6.6 0 13.4 5.2 7.5 11.8-5.5 6.6-21.3 6.4-26.4 2.9-5.1-3.5 9.7-6.3 9.9-6.3s-11.2-.9-17.2 4.3l-.6.6c-4 5.2 3.1 10.5 18.1 10.4 16.6-.1 30-6.2 35.2-14.9l.4-.6c4.4-8.9-2.5-14.4-17.4-14.3-4.9 0-9.6.7-14.4 2.3l4.2-6.6c3.5.4 6.6.6 9.3.6z" fill="#4d2f47"/><path d="M186.7 89.9c.2-.4 1.9-4.3 1.9-4.3s-4.1 1-4.6 1.1c-.3-.3-3.5-3.1-3.5-3.1s-.3 4.2-.3 4.7c-.4.2-4 2.4-4 2.4s3.9 1.6 4.4 1.8c.1.5 1 4.6 1 4.6s2.7-3.3 3-3.6c.5 0 4.7.4 4.7.4s-2.3-3.5-2.6-4z" fill="#4d2f47"/></svg>