<svg xmlns="http://www.w3.org/2000/svg" id="b" viewBox="0 0 179.162 134.337"><defs><linearGradient id="d" x1="92.022" x2="92.022" y1="0" y2="131.886" gradientUnits="userSpaceOnUse"><stop offset="0" stop-color="#e82bb3"/><stop offset="1" stop-color="#c50c80"/></linearGradient><style>.e{fill:#fff}.h{fill:#ffcb00}.j{fill:#e80889}.k{fill:#ffd100}</style></defs><g id="c"><path d="M162.261 59.62a8.844 8.844 0 0 0 2.419-5.67l.31-6.343a8.81 8.81 0 0 0-2.057-6.12l.82-16.784a8.79 8.79 0 0 0 2.643-5.894l.311-6.353c.23-4.878-3.55-9.04-8.429-9.279l-12.112-.592a8.87 8.87 0 0 0-4.969 1.245 8.813 8.813 0 0 0-4.84-1.724l-12.179-.594-.311-.005a8.905 8.905 0 0 0-6.031 2.336 8.911 8.911 0 0 0-2.311-1.454C111.898.827 108.023.001 104.318.001c-.7 0-1.403.029-2.096.087C94.745.725 88.664 4.516 85.3 9.997l-.444-1.14a8.819 8.819 0 0 0-8.261-5.64H65.46a8.842 8.842 0 0 0-6.37 2.703C53.741 2.204 47.993.324 41.978.324c-1.44 0-2.908.111-4.361.33-7.88 1.184-14.841 5.393-19.6 11.85-4.76 6.456-6.726 14.361-5.539 22.256 1.161 7.726 5.296 14.443 11.121 19.046l-4.576.591a8.815 8.815 0 0 0-5.896 3.382 8.818 8.818 0 0 0-1.778 6.566l1.181 9.143a8.902 8.902 0 0 0 4.285 6.499l3.569 27.631c-.252.256-.49.529-.713.818a8.818 8.818 0 0 0-1.778 6.566l1.18 9.129a8.825 8.825 0 0 0 3.38 5.899 8.798 8.798 0 0 0 5.423 1.853c.377 0 .757-.025 1.145-.074l17.436-2.253a8.815 8.815 0 0 0 5.898-3.384 8.819 8.819 0 0 0 1.776-6.563l-1.18-9.138a8.89 8.89 0 0 0-4.285-6.498l-.002-.021 2.964-.384a31.186 31.186 0 0 0 3.546-.667 37.1 37.1 0 0 0 10.178 14.907c6.755 5.979 15.472 9.272 24.543 9.272 1.507 0 3.031-.093 4.532-.277a36.07 36.07 0 0 0 11.166-3.246 8.94 8.94 0 0 0 7.475 5.745l17.736 1.759a8.942 8.942 0 0 0 6.518-1.979 8.872 8.872 0 0 0 3.227-6.025l.918-9.272a8.857 8.857 0 0 0-1.973-6.546 9.2 9.2 0 0 0-.771-.829l.012-.118 3.083.306c1.042.103 2.098.155 3.139.155h.001c6.231 0 12.1-1.81 16.972-5.234 6.177-4.339 9.983-10.807 10.719-18.211.913-9.202-3.331-18.013-10.387-23.691ZM95.196 98.041c-1.643 1.165-3.528 1.78-5.454 1.78a9.483 9.483 0 0 1-3.131-.541 9.568 9.568 0 0 1-6.322-7.974c-.31-2.895.546-5.633 2.413-7.709 1.831-2.038 4.265-3.116 7.04-3.116 5.153 0 9.674 4.521 9.674 9.674 0 3.066-1.578 6.015-4.22 7.888Zm15.787-38.169c-.161-.112-.32-.222-.482-.33.176-.037.351-.075.527-.116l-.045.447Z" style="fill:url(#d)"/><path d="M118.487 59.103a1.475 1.475 0 0 1 1.615-1.323l26.241 2.603c11.104 1.101 19.951 10.931 18.875 21.777-1.093 11.018-11.579 17.714-22.683 16.612l-9.027-.895a1.477 1.477 0 0 0-1.615 1.323l-1.006 10.145a1.477 1.477 0 0 0 1.323 1.615l.505.05c.811.08 1.404.803 1.323 1.615l-.921 9.284a1.475 1.475 0 0 1-1.615 1.323l-17.72-1.758a1.475 1.475 0 0 1-1.323-1.615l.921-9.284a1.475 1.475 0 0 1 1.615-1.323l.505.05a1.477 1.477 0 0 0 1.615-1.323l3.602-36.312a1.477 1.477 0 0 0-1.323-1.615l-.505-.05a1.475 1.475 0 0 1-1.323-1.615l.921-9.285Zm32.924 20.267c.238-3.471-2.615-6.401-6.077-6.744l-9.229-.915a1.477 1.477 0 0 0-1.615 1.323l-.964 9.714a1.477 1.477 0 0 0 1.323 1.615l9.543.947a6.386 6.386 0 0 0 7.018-5.939Z" class="k"/><path d="M131.652 125.126c-.11 0-.221-.006-.334-.016l-17.72-1.758c-.893-.088-1.699-.52-2.269-1.214s-.835-1.57-.746-2.464l.921-9.283a3.367 3.367 0 0 1 3.679-3.014l.097.009 3.52-35.496-.097-.01a3.34 3.34 0 0 1-2.269-1.215 3.342 3.342 0 0 1-.745-2.464l.921-9.284a3.345 3.345 0 0 1 1.214-2.269 3.32 3.32 0 0 1 2.463-.745l26.241 2.603c5.803.575 11.357 3.443 15.237 7.868 4.005 4.567 5.898 10.239 5.329 15.972-.572 5.767-3.548 10.812-8.38 14.208-4.599 3.232-10.413 4.687-16.366 4.095l-8.619-.855-.925 9.33.097.01c.894.088 1.699.52 2.269 1.215.569.695.834 1.57.745 2.464l-.921 9.283a3.37 3.37 0 0 1-3.344 3.031Zm-17.274-5.488 16.904 1.676.84-8.468-.097-.01a3.341 3.341 0 0 1-2.269-1.214 3.342 3.342 0 0 1-.745-2.464l1.006-10.145a3.372 3.372 0 0 1 3.679-3.014l9.026.896c5.056.502 9.965-.716 13.825-3.428 3.919-2.754 6.332-6.836 6.794-11.494.465-4.683-1.102-9.34-4.41-13.113-3.257-3.713-7.913-6.119-12.773-6.602l-25.833-2.562-.84 8.469.097.01c.893.088 1.699.52 2.269 1.214.569.695.834 1.57.745 2.464l-3.601 36.311a3.367 3.367 0 0 1-3.679 3.014l-.097-.01-.84 8.468Zm5.987-60.35Zm24.683 27.939c-.279 0-.56-.014-.842-.042l-9.543-.946a3.37 3.37 0 0 1-3.015-3.676l.964-9.716c.089-.894.521-1.7 1.215-2.269a3.338 3.338 0 0 1 2.464-.745l9.228.915c4.586.455 8.073 4.381 7.772 8.75a8.226 8.226 0 0 1-2.914 5.774 8.207 8.207 0 0 1-5.33 1.954Zm-9.605-4.701 9.136.906a4.469 4.469 0 0 0 3.364-1.04 4.491 4.491 0 0 0 1.587-3.151c.162-2.357-1.804-4.482-4.382-4.739l-8.821-.875-.883 8.899Z" class="h"/><path d="m146.228 60.605-26.239-2.603c-.744-.074-1.391.43-1.559 1.138l25.752 2.554c11.104 1.101 19.951 10.931 18.875 21.777-.598 6.034-4.024 10.759-8.816 13.629 5.852-2.668 10.182-7.854 10.863-14.719 1.076-10.845-7.771-20.676-18.875-21.777Z" class="e"/><path d="M134.737 84.585a1.477 1.477 0 0 1-1.325-1.617l.963-9.71c.007-.068.042-.123.058-.187l-.488-.048a1.478 1.478 0 0 0-1.617 1.325l-.963 9.71a1.479 1.479 0 0 0 1.325 1.617l9.541.946a6.377 6.377 0 0 0 4.633-1.369 6.385 6.385 0 0 1-2.586.279l-9.541-.946ZM129.732 100.514l-1.006 10.141a1.479 1.479 0 0 0 1.325 1.617l.501.05a1.478 1.478 0 0 1 1.325 1.617l-.92 9.28c-.007.068-.042.123-.058.187l.488.048a1.478 1.478 0 0 0 1.617-1.325l.92-9.28a1.479 1.479 0 0 0-1.325-1.617l-.501-.05a1.477 1.477 0 0 1-1.325-1.617l1.006-10.141c.007-.068.042-.123.058-.187l-.488-.048a1.478 1.478 0 0 0-1.617 1.325ZM45.407 51.761c-12.044 1.811-23.355-6.543-25.167-18.587C18.429 21.13 26.783 9.819 38.769 8.016c6.122-.921 11.83.834 17.003 4.814.403.31.504.884.242 1.32l-3.565 5.919a1.01 1.01 0 0 1-1.423.313c-3.422-2.246-6.824-3.603-10.791-3.006-6.924 1.041-11.661 7.525-10.628 14.39 1.032 6.866 7.467 11.67 14.391 10.628 3.627-.545 7.018-2.655 9.466-5.857.359-.47 1.06-.499 1.486-.089l5.22 5.028c.355.342.42.899.132 1.3-3.343 4.657-8.745 8.06-14.896 8.985Z" class="e"/><path d="M42.09 54.313c-5.179 0-10.212-1.651-14.472-4.797-5.258-3.884-8.687-9.566-9.655-16-.967-6.43.636-12.868 4.515-18.128 3.876-5.259 9.541-8.686 15.95-9.65 6.602-.995 12.914.777 18.75 5.265a3.311 3.311 0 0 1 .811 4.334l-3.565 5.92a3.314 3.314 0 0 1-2.093 1.515c-.88.201-1.813.03-2.567-.464-3.507-2.302-6.256-3.098-9.185-2.655-5.642.849-9.542 6.128-8.693 11.77.848 5.641 6.13 9.541 11.77 8.694 3.04-.457 5.874-2.225 7.981-4.979a3.273 3.273 0 0 1 2.348-1.271 3.345 3.345 0 0 1 2.564.921l5.221 5.03c1.177 1.135 1.351 2.984.405 4.302-3.81 5.307-9.796 8.923-16.425 9.92a24.597 24.597 0 0 1-3.66.275Zm-.175-44.231c-.928 0-1.862.071-2.802.212-5.191.781-9.782 3.561-12.928 7.828-3.148 4.271-4.45 9.495-3.665 14.709.784 5.217 3.567 9.826 7.836 12.979 4.268 3.153 9.492 4.457 14.709 3.673 5.019-.755 9.579-3.339 12.678-7.149l-3.386-3.261c-2.728 3.06-6.237 5.031-10.015 5.598-8.149 1.229-15.783-4.41-17.012-12.564-1.226-8.153 4.41-15.785 12.564-17.011 4.626-.694 8.379.903 11.269 2.646l2.273-3.774c-3.676-2.585-7.538-3.886-11.52-3.886Zm13.381 27.853-.001.002.001-.002Z" class="e"/><path d="M27.984 33.416c1.032 6.866 7.467 11.67 14.39 10.629 3.029-.455 5.885-2.014 8.174-4.376-1.971 1.559-4.233 2.592-6.601 2.948-6.924 1.041-13.358-3.763-14.39-10.629-.598-3.975.747-7.814 3.321-10.55-3.584 2.714-5.603 7.256-4.893 11.978ZM54.147 14.48c.404.311.505.885.243 1.322l-2.984 4.955a.994.994 0 0 0 .993-.466l3.563-5.916a1.015 1.015 0 0 0-.243-1.322C50.546 9.074 44.838 7.32 38.717 8.24c-4.808.723-9.014 2.993-12.232 6.21 2.973-2.452 6.599-4.172 10.66-4.783 6.121-.921 11.829.834 17.002 4.813ZM58.546 43.126c.356.343.421.901.132 1.302-.662.922-1.425 1.777-2.238 2.591 1.445-1.191 2.742-2.532 3.81-4.019a1.003 1.003 0 0 0-.132-1.302L54.9 36.672c-.427-.411-1.129-.382-1.489.089-.283.37-.581.722-.888 1.062a1.02 1.02 0 0 1 .805.277l5.218 5.026Z" class="k"/><path d="M93.331 46.855v6.346c0 .555-.45 1.004-1.004 1.004h-7.815c-.427 0-.807-.27-.948-.673l-2.59-7.42a1.004 1.004 0 0 0-.948-.673H67.39c-.427 0-.807.27-.948.673l-2.59 7.42a1.004 1.004 0 0 1-.948.673h-7.755c-.555 0-1.004-.45-1.004-1.004v-6.346c0-.555.45-1.004 1.004-1.004h.662c.414 0 .786-.255.936-.641l9.635-24.821a1.004 1.004 0 0 0-.936-1.367c-.555 0-1.004-.45-1.004-1.004v-6.347c0-.555.45-1.004 1.004-1.004h11.136c.414 0 .785.254.936.64l13.211 33.906c.15.386.522.64.936.64h.663c.555 0 1.004.45 1.004 1.004Zm-14.419-9.367-3.873-11.135c-.429-1.233-2.173-1.233-2.602 0l-3.873 11.135a1.378 1.378 0 0 0 1.301 1.83h7.746c.948 0 1.612-.935 1.301-1.83Z" class="e"/><path d="M92.327 56.508h-7.815a3.311 3.311 0 0 1-3.122-2.215l-2.286-6.551h-10.79l-2.286 6.548a3.308 3.308 0 0 1-3.122 2.217H55.15a3.312 3.312 0 0 1-3.308-3.307v-6.346a3.312 3.312 0 0 1 3.078-3.3l8.814-22.709a3.312 3.312 0 0 1-1.596-2.829V11.67a3.312 3.312 0 0 1 3.308-3.308h11.136c1.373 0 2.582.827 3.081 2.106l12.892 33.086a3.312 3.312 0 0 1 3.079 3.3V53.2a3.31 3.31 0 0 1-3.307 3.307Zm-30.65-3.736-.001.003v-.003Zm23.758-.87h5.592v-3.808a3.283 3.283 0 0 1-2.445-2.046L75.693 12.969h-8.947v4.014a3.307 3.307 0 0 1 1.785 4.237l-9.636 24.824a3.288 3.288 0 0 1-2.446 2.05v3.808h5.532l2.286-6.548a3.308 3.308 0 0 1 3.122-2.217h12.636c1.404 0 2.658.89 3.122 2.215l2.286 6.551Zm-16.816-5.033v.003-.003Zm8.992-5.248h-7.746a3.688 3.688 0 0 1-2.999-1.547 3.687 3.687 0 0 1-.478-3.342l3.873-11.136a3.64 3.64 0 0 1 3.477-2.472h.001c1.589 0 2.953.971 3.475 2.472l3.872 11.134a3.684 3.684 0 0 1-.475 3.342 3.688 3.688 0 0 1-3.001 1.549Zm-6.444-4.606h5.141l-2.571-7.39-2.57 7.39Z" class="e"/><path d="M68.015 40.709h7.741c.715 0 1.269-.532 1.364-1.178h-7.338a1.379 1.379 0 0 1-1.302-1.832l3.764-10.824c-.645-.168-1.399.12-1.661.874l-3.87 11.127a1.379 1.379 0 0 0 1.302 1.832ZM75.666 12.698l13.21 33.904c.15.386.522.64.936.64h.661c.556 0 1.006.45 1.006 1.006v6.17h.761c.556 0 1.006-.45 1.006-1.006V47.07c0-.556-.45-1.006-1.006-1.006h-.661c-.414 0-.786-.254-.936-.64L77.433 11.52a1.007 1.007 0 0 0-.937-.641H65.363c-.556 0-1.006.45-1.006 1.006v.172h10.372c.414 0 .787.254.937.641ZM63.768 53.744l2.413-6.914h-.641c-.428 0-.809.271-.95.675l-2.413 6.913h.642c.428 0 .809-.27.95-.674Z" class="k"/><path d="M107.767 51.611c-4.322.567-11.348-1.129-16.2-3.828a1.014 1.014 0 0 1-.442-1.259l2.828-7.025c.225-.559.883-.782 1.417-.503 3.039 1.587 8.362 2.7 10.467 2.424 2.45-.321 3.865-1.753 3.612-3.678-.444-3.383-5.329-3.99-9.836-5.772-5.699-2.279-8.867-6.078-9.284-11.067-.591-7.222 4.799-12.735 12.545-13.394 3.414-.288 6.729.482 9.524 1.686.529.228.774.838.529 1.359l-2.808 5.956c-.232.493-.81.703-1.311.49-1.425-.606-3.311-1.111-5.217-.861-2.567.336-3.923 1.76-3.694 3.511.367 2.8 4.312 3.47 8.042 4.761 3.664 1.241 10.563 4.075 11.61 12.067.986 7.526-3.966 14.109-11.783 15.134Z" class="e"/><path d="M106.012 54.019c-4.675 0-10.966-1.663-15.565-4.223a3.319 3.319 0 0 1-1.459-4.13l2.829-7.026a3.303 3.303 0 0 1 1.915-1.861 3.345 3.345 0 0 1 2.705.176c2.751 1.436 7.612 2.372 9.103 2.182.523-.069 1.729-.313 1.627-1.096-.15-1.149-2.55-1.936-5.091-2.768-1.074-.352-2.185-.716-3.308-1.161-8.249-3.299-10.388-8.899-10.731-13.017-.69-8.423 5.47-15.1 14.646-15.881 3.451-.292 7.122.355 10.63 1.865a3.36 3.36 0 0 1 1.803 1.883 3.276 3.276 0 0 1-.101 2.574l-2.808 5.956a3.309 3.309 0 0 1-4.298 1.627c-1.003-.427-2.506-.895-4.016-.697-1.052.138-1.478.485-1.585.589-.128.125-.141.202-.124.338.113.854 2.541 1.616 4.492 2.229.666.209 1.346.423 2.019.656 7.851 2.659 12.276 7.352 13.14 13.944.561 4.273-.522 8.431-3.049 11.71-2.543 3.301-6.351 5.434-10.718 6.007a15.98 15.98 0 0 1-2.054.124Zm-12.314-7.718c4.403 2.18 10.245 3.487 13.769 3.026 3.151-.413 5.874-1.923 7.669-4.251 1.774-2.302 2.531-5.249 2.131-8.299-.834-6.355-6.144-8.856-10.065-10.185a68.48 68.48 0 0 0-1.906-.618c-3.369-1.058-7.186-2.256-7.68-6.025-.211-1.596.312-3.1 1.471-4.232 1.013-.99 2.468-1.634 4.206-1.862 1.961-.255 3.812.108 5.257.587l1.705-3.615c-1.903-.676-4.423-1.253-7.185-1.021-6.627.564-10.923 5.051-10.443 10.911.343 4.103 2.981 7.171 7.842 9.116.987.39 2.031.732 3.04 1.063 3.784 1.24 7.696 2.522 8.224 6.547.418 3.201-1.882 5.775-5.596 6.262-2.391.313-7.215-.673-10.56-2.073l-1.88 4.67Z" class="e"/><path d="M101.22 9.129c3.414-.288 6.729.482 9.522 1.686.53.228.776.84.53 1.361l-2.392 5.073c.469.131.971-.066 1.184-.518l2.807-5.953c.246-.522 0-1.133-.53-1.361-2.793-1.203-6.108-1.974-9.522-1.686-3.862.329-7.138 1.865-9.379 4.217 2.092-1.554 4.752-2.562 7.78-2.819ZM104.182 43.04c1.589-.208 2.731-.888 3.277-1.862a5.87 5.87 0 0 1-1.678.464c-2.108.276-7.44-.839-10.477-2.429a1.005 1.005 0 0 0-1.408.511l-.341.845c.05.017.101.017.15.042 3.037 1.59 8.369 2.705 10.477 2.429ZM107.883 24.633c-3.729-1.291-7.675-1.961-8.042-4.761a2.608 2.608 0 0 1 .305-1.617c-1.383.633-2.072 1.734-1.904 3.015.367 2.8 4.312 3.47 8.042 4.761 3.664 1.241 10.563 4.075 11.61 12.067.562 4.289-.81 8.267-3.536 11.09 3.77-2.805 5.798-7.429 5.135-12.488-1.048-7.992-7.946-10.826-11.61-12.067Z" class="k"/><path d="m122.144 44.098.345.017c.554.027 1.025-.4 1.052-.954l1.211-24.792a1.004 1.004 0 0 0-.954-1.052l-.345-.017a1.004 1.004 0 0 1-.954-1.052l.31-6.339a1.004 1.004 0 0 1 1.052-.954l12.098.591c.554.027.981.498.954 1.052l-.31 6.339a1.004 1.004 0 0 1-1.052.954l-.345-.017a1.004 1.004 0 0 0-1.052.954l-.353 7.22c-.027.554.4 1.025.954 1.052l10.511.514c.554.027 1.025-.4 1.052-.954l.353-7.22a1.004 1.004 0 0 0-.954-1.052l-.345-.017a1.004 1.004 0 0 1-.954-1.052l.31-6.339a1.004 1.004 0 0 1 1.052-.954l12.098.591c.554.027.981.498.954 1.052l-.31 6.339a1.004 1.004 0 0 1-1.052.954l-.345-.017a1.004 1.004 0 0 0-1.052.954l-1.211 24.792c-.027.554.4 1.025.954 1.052l.345.017c.554.027.981.498.954 1.052l-.31 6.339a1.004 1.004 0 0 1-1.052.954l-12.098-.591a1.004 1.004 0 0 1-.954-1.052l.31-6.339a1.004 1.004 0 0 1 1.052-.954l.345.017c.554.027 1.025-.4 1.052-.954l.353-7.22a1.004 1.004 0 0 0-.954-1.052l-10.511-.514a1.004 1.004 0 0 0-1.052.954l-.353 7.22c-.027.554.4 1.025.954 1.052l.345.017c.554.027.981.498.954 1.052l-.31 6.339a1.004 1.004 0 0 1-1.052.954l-12.098-.591a1.004 1.004 0 0 1-.954-1.052l.31-6.339a1.004 1.004 0 0 1 1.052-.954Z" class="e"/><path d="M155.808 56.409c-.055 0-.11-.002-.166-.004l-12.098-.591a3.314 3.314 0 0 1-3.143-3.463l.31-6.341a3.284 3.284 0 0 1 1.082-2.289 3.288 3.288 0 0 1 1.423-.761l.232-4.763-7.915-.387-.233 4.765a3.314 3.314 0 0 1 2.196 3.276l-.31 6.34a3.284 3.284 0 0 1-1.082 2.289 3.302 3.302 0 0 1-2.383.853l-12.098-.591a3.314 3.314 0 0 1-3.143-3.463l.31-6.341a3.317 3.317 0 0 1 2.505-3.048l1.099-22.475a3.299 3.299 0 0 1-1.343-.897 3.284 3.284 0 0 1-.853-2.385l.309-6.337a3.307 3.307 0 0 1 3.466-3.143l12.098.591a3.286 3.286 0 0 1 2.288 1.082c.594.655.897 1.502.853 2.385l-.31 6.338a3.285 3.285 0 0 1-1.081 2.288 3.296 3.296 0 0 1-1.423.762l-.233 4.764 7.916.387.233-4.764c-.51-.18-.97-.485-1.343-.897a3.284 3.284 0 0 1-.853-2.385l.309-6.337a3.307 3.307 0 0 1 3.466-3.143l12.097.591a3.314 3.314 0 0 1 3.143 3.463l-.31 6.341a3.284 3.284 0 0 1-1.082 2.289 3.29 3.29 0 0 1-1.422.761l-1.099 22.474c.509.18.969.484 1.342.896.593.654.896 1.5.854 2.382l-.31 6.341a3.284 3.284 0 0 1-1.082 2.289 3.282 3.282 0 0 1-2.217.857Zm-1.302-3.371v.002-.002Zm-21.92-1.072v.002-.002Zm12.481-.69 9.503.464.19-3.881a3.299 3.299 0 0 1-1.343-.897 3.284 3.284 0 0 1-.853-2.385l1.211-24.79a3.283 3.283 0 0 1 1.081-2.288 3.296 3.296 0 0 1 1.423-.762l.19-3.882-9.503-.464-.189 3.884a3.314 3.314 0 0 1 2.196 3.276l-.353 7.223c-.091 1.823-1.641 3.216-3.466 3.142l-10.51-.514a3.314 3.314 0 0 1-3.143-3.463l.353-7.223a3.28 3.28 0 0 1 1.082-2.288 3.29 3.29 0 0 1 1.422-.761l.19-3.883-9.503-.464-.189 3.884a3.315 3.315 0 0 1 2.196 3.276l-1.211 24.794a3.318 3.318 0 0 1-2.505 3.049l-.19 3.883 9.503.464.19-3.881a3.299 3.299 0 0 1-1.343-.897 3.284 3.284 0 0 1-.853-2.385l.353-7.218A3.284 3.284 0 0 1 132.078 34a3.315 3.315 0 0 1 2.383-.853l10.512.514a3.28 3.28 0 0 1 2.288 1.082c.594.655.897 1.502.853 2.385l-.352 7.218a3.318 3.318 0 0 1-2.505 3.049l-.19 3.883Zm10.983-3.215h.002-.002Zm-10.737-1.828v.002-.002Zm11.852-1.432v.003-.003Zm-21.92-1.071v.003-.003Zm8.268-6.831v.003-.003Zm-7.915-.389v.002-.002Zm-.501-16.335h.004-.004Zm23.279-.166v.002-.002Zm-21.92-1.071v.002-.002Zm19.767-1.043v.002-.002Zm-9.502-.467v.003-.003Zm-12.419-.603v.002-.002Zm-9.501-.468v.003-.003Zm10.857-.767h.003-.003Zm-1.046-5.105v.003-.003Z" class="e"/><path d="m156.916 12.97-.306 6.26a.991.991 0 0 1 .422-.077l.345.017c.554.027 1.025-.4 1.052-.954l.31-6.337a1.006 1.006 0 0 0-.956-1.054l-12.095-.591a1.005 1.005 0 0 0-1.053.956l-.008.172 11.334.554c.555.027.983.499.956 1.054ZM134.996 11.899l-.306 6.26a.994.994 0 0 1 .422-.077l.345.017c.554.027 1.025-.4 1.052-.954l.31-6.337a1.005 1.005 0 0 0-.955-1.054l-12.095-.591a1.006 1.006 0 0 0-1.054.956l-.008.172 11.335.554c.555.027.982.499.955 1.054ZM155.209 20.244a1.004 1.004 0 0 0-1.052.954l-1.211 24.792c-.027.554.4 1.025.954 1.052l.345.017c.554.027.981.498.954 1.052l-.301 6.165.76.037a1.006 1.006 0 0 0 1.054-.956l.31-6.337a1.004 1.004 0 0 0-.954-1.052l-.345-.017a1.004 1.004 0 0 1-.954-1.052l1.207-24.715a.976.976 0 0 1-.422.076l-.345-.017ZM133.289 19.173a1.004 1.004 0 0 0-1.052.954l-.353 7.219c-.027.555.4 1.027.955 1.054l10.508.513a1.005 1.005 0 0 0 1.053-.956l.008-.172-9.748-.476a1.005 1.005 0 0 1-.955-1.054l.349-7.142a.978.978 0 0 1-.422.076l-.345-.017ZM131.379 37.701l-.353 7.219c-.027.554.4 1.025.954 1.052l.345.017c.554.027.981.498.954 1.052l-.301 6.165.761.037a1.005 1.005 0 0 0 1.053-.956l.31-6.337a1.004 1.004 0 0 0-.954-1.052l-.345-.017a1.004 1.004 0 0 1-.954-1.052l.344-7.047-.761-.037a1.005 1.005 0 0 0-1.053.956ZM119.302 92.825c-1.366 13.591-12.218 24.677-25.776 26.336-17.97 2.198-33.373-11.79-33.373-29.425 0-16.404 13.328-29.653 29.652-29.653 17.422 0 31.285 14.945 29.497 32.741Zm-46.271-1.161c.684 6.39 5.091 11.946 11.156 14.072 11.291 3.957 22.494-4.947 22.494-16 0-9.227-7.808-16.955-16.956-16.955-10.02 0-17.792 8.63-16.694 18.883Z" class="k"/><path d="M89.879 121.103c-7.659 0-15.095-2.774-20.857-7.875a31.398 31.398 0 0 1-10.589-23.492c0-17.299 14.074-31.372 31.372-31.372a31.438 31.438 0 0 1 23.279 10.32c6.02 6.655 8.836 15.289 7.93 24.313-1.447 14.393-12.92 26.114-27.28 27.871a31.63 31.63 0 0 1-3.855.235Zm-.075-59.3c-15.402 0-27.933 12.53-27.933 27.933a27.952 27.952 0 0 0 9.429 20.916c6.077 5.379 13.892 7.794 22.015 6.802 12.778-1.563 22.986-11.995 24.274-24.801.808-8.045-1.698-15.738-7.058-21.662a27.993 27.993 0 0 0-20.728-9.188Zm-.066 46.608c-2.046 0-4.108-.347-6.12-1.052-6.713-2.353-11.54-8.442-12.296-15.512-.577-5.39 1.123-10.742 4.667-14.685 3.484-3.877 8.491-6.101 13.736-6.101 10.123 0 18.675 8.552 18.675 18.675 0 5.979-2.996 11.673-8.015 15.232-3.208 2.275-6.899 3.442-10.648 3.442ZM89.725 74.5c-4.334 0-8.303 1.762-11.178 4.961-2.935 3.265-4.286 7.535-3.807 12.02.616 5.758 4.547 10.716 10.014 12.632 4.629 1.623 9.603.914 13.64-1.95 4.112-2.916 6.566-7.561 6.566-12.427 0-8.259-6.977-15.236-15.236-15.236Z" class="h"/><path d="M83.174 105.594c-5.293-2.19-9.159-7.03-10.087-12.682-1.098-6.689 1.6-12.799 6.306-16.44-5.766 3.388-9.292 10.132-8.064 17.612.928 5.653 4.794 10.492 10.087 12.682 6.032 2.496 12.122 1.229 16.581-2.154-4.234 2.467-9.55 3.162-14.822.981ZM89.72 60.296a29.502 29.502 0 0 0-17.224 5.532 29.5 29.5 0 0 1 15.465-4.359c19.528 0 34.585 18.777 28.141 39.299a28.28 28.28 0 0 1-10.451 14.477c5.784-3.515 10.152-9.096 12.21-15.649 6.444-20.522-8.613-39.299-28.141-39.299Z" class="e"/><path d="M18.696 62.977a1.458 1.458 0 0 1 1.259-1.632l25.826-3.336c10.928-1.412 21.628 6.077 23.006 16.751 1.401 10.843-7.198 19.619-18.126 21.031l-8.884 1.148a1.458 1.458 0 0 0-1.259 1.632l1.29 9.985a1.458 1.458 0 0 0 1.632 1.259l.497-.064a1.458 1.458 0 0 1 1.632 1.259l1.18 9.137a1.458 1.458 0 0 1-1.259 1.632l-17.439 2.253a1.458 1.458 0 0 1-1.632-1.259l-1.18-9.137a1.458 1.458 0 0 1 1.259-1.632l.497-.064a1.458 1.458 0 0 0 1.259-1.632l-4.616-35.737a1.458 1.458 0 0 0-1.632-1.259l-.497.064a1.458 1.458 0 0 1-1.632-1.259l-1.18-9.138Zm36.186 12.171c-.544-3.393-3.94-5.576-7.348-5.136l-9.083 1.173a1.458 1.458 0 0 0-1.259 1.632l1.235 9.561a1.458 1.458 0 0 0 1.632 1.259l9.392-1.213a6.307 6.307 0 0 0 5.43-7.276Z" class="k"/><path d="M27.859 125.906a3.3 3.3 0 0 1-2.023-.692 3.29 3.29 0 0 1-1.264-2.206l-1.181-9.135a3.298 3.298 0 0 1 .664-2.454 3.303 3.303 0 0 1 2.206-1.265l.094-.012-4.513-34.935-.095.012a3.331 3.331 0 0 1-3.72-2.868l-1.181-9.138v-.002a3.327 3.327 0 0 1 2.868-3.717l25.827-3.336C57.651 54.596 69.146 63 70.634 74.517c1.465 11.344-7.203 21.498-19.735 23.117l-8.483 1.096 1.187 9.182.097-.013c.876-.112 1.749.122 2.452.664s1.152 1.325 1.264 2.205l1.181 9.135a3.298 3.298 0 0 1-.664 2.454 3.303 3.303 0 0 1-2.206 1.265l-17.438 2.253a3.294 3.294 0 0 1-.431.028Zm-.721-12.109 1.077 8.335 16.636-2.149-1.077-8.334-.096.012a3.328 3.328 0 0 1-3.718-2.868l-1.29-9.985a3.294 3.294 0 0 1 .664-2.453 3.297 3.297 0 0 1 2.204-1.265l8.885-1.147c10.459-1.351 17.715-9.673 16.517-18.946-1.229-9.514-10.813-16.446-20.921-15.142l-25.425 3.284 1.077 8.335.095-.012a3.29 3.29 0 0 1 2.453.663 3.298 3.298 0 0 1 1.266 2.204l4.616 35.738a3.297 3.297 0 0 1-.664 2.453 3.303 3.303 0 0 1-2.206 1.265l-.094.012Zm12.733-28.285a3.326 3.326 0 0 1-3.291-2.895l-1.235-9.561a3.325 3.325 0 0 1 2.866-3.718l9.084-1.173c4.502-.592 8.741 2.417 9.425 6.688a8.131 8.131 0 0 1-1.518 6.204 8.12 8.12 0 0 1-5.513 3.214l-9.392 1.213a3.414 3.414 0 0 1-.427.028Zm-.78-12.532 1.131 8.758 8.99-1.161a4.43 4.43 0 0 0 3.006-1.75 4.436 4.436 0 0 0 .824-3.384c-.368-2.304-2.734-3.906-5.27-3.584l-8.681 1.122Z" class="h"/><path d="m38.731 100.315 1.289 9.981a1.46 1.46 0 0 0 1.634 1.261l.493-.064a1.46 1.46 0 0 1 1.635 1.261l1.18 9.133c.009.067-.013.128-.014.193l.479-.062a1.46 1.46 0 0 0 1.261-1.635l-1.18-9.133a1.46 1.46 0 0 0-1.635-1.261l-.493.064a1.459 1.459 0 0 1-1.634-1.261l-1.289-9.981c-.009-.067.013-.127.014-.193l-.48.062c-.8.103-1.364.835-1.26 1.635ZM40 83.876a1.459 1.459 0 0 1-1.634-1.261l-1.234-9.557c-.009-.067.013-.127.014-.193l-.48.062c-.8.103-1.364.835-1.26 1.635l1.234 9.557a1.46 1.46 0 0 0 1.634 1.261l9.39-1.213a6.3 6.3 0 0 0 4.153-2.348 6.306 6.306 0 0 1-2.426.844l-9.39 1.213Z" class="e"/><path d="m45.72 58.248-25.825 3.336c-.732.095-1.242.723-1.247 1.442l25.345-3.274c10.928-1.412 21.627 6.077 23.006 16.751.767 5.938-1.477 11.247-5.449 15.075 5.037-3.87 8.048-9.822 7.175-16.579-1.379-10.674-12.078-18.162-23.006-16.751Z" class="e"/><path d="M62.922 122.82c6.816 6.585 16.227 10.275 25.685 10.315 2.665.011 5.328-.28 7.929-.858.693-.154.383-1.211-.306-1.058-8.952 1.987-18.568.264-26.399-4.463a34.574 34.574 0 0 1-6.157-4.741c-.509-.492-1.263.312-.752.805Z" class="j"/><path d="M88.755 134.337h-.153c-9.885-.041-19.55-3.924-26.515-10.652h-.001c-.702-.68-.714-1.769-.028-2.479.678-.702 1.756-.727 2.45-.055a33.429 33.429 0 0 0 5.944 4.576c7.684 4.639 16.986 6.213 25.517 4.319a1.74 1.74 0 0 1 1.677.523c.439.478.593 1.15.403 1.754-.18.572-.649.993-1.252 1.128a37.213 37.213 0 0 1-8.042.886Zm-24.999-12.381.002.002-.001-.002h-.001Z" style="fill:#c50c80"/><path d="m4.656 46.325.865 1.011c.241.281.594.441.965.436l3.402.518c1.055-.015 1.65 1.206.988 2.028l-1.618 2.007a1.248 1.248 0 0 0-.276.795l-.389 2.677c.012 1.144-1.394 1.698-2.166.854l-1.504-1.217a1.241 1.241 0 0 0-.69-.384l-3.166-.594c-1.091-.205-1.504-1.348-.474-2.253l1.679-2.012c.367-.251.368-.657.335-1.1l-.139-1.861c-.09-1.201 1.406-1.818 2.189-.903ZM7.38 37.159l.283.813a.808.808 0 0 0 .478.49l1.927 1.114a.806.806 0 0 1 .117 1.455l-1.448.828a.812.812 0 0 0-.354.414l-.865 1.521c-.262.692-1.24.694-1.506.004l-.619-1.088a.806.806 0 0 0-.325-.394l-1.767-1.104c-.609-.381-.589-1.167.246-1.469l1.486-.817c.28-.065.377-.309.461-.584l.355-1.154c.229-.744 1.276-.764 1.532-.028Z" class="k"/><path d="M177.981 79.773c.589-6.322-1.412-12.779-5.347-17.747a24.15 24.15 0 0 0-3.771-3.792c-.497-.401-1.061.414-.567.812 4.725 3.812 7.807 9.49 8.604 15.494.227 1.713.255 3.443.094 5.163-.059.634.928.707.988.071Z" class="j"/><path d="M177.487 81.293c-.332 0-.665-.099-.938-.293a1.52 1.52 0 0 1-.63-1.399 21.97 21.97 0 0 0-.09-4.921c-.771-5.815-3.765-11.208-8.211-14.795a1.564 1.564 0 0 1-.573-1.474 1.618 1.618 0 0 1 1.006-1.266c.5-.192 1.058-.1 1.492.249a25.22 25.22 0 0 1 3.939 3.962c4.151 5.241 6.184 11.99 5.575 18.518a1.541 1.541 0 0 1-.894 1.275 1.61 1.61 0 0 1-.675.145Z" style="fill:#e82bb3"/><path d="m172.707 43.994.283.813a.808.808 0 0 0 .478.49l1.927 1.114a.806.806 0 0 1 .117 1.455l-1.448.828a.812.812 0 0 0-.354.414l-.865 1.521c-.262.692-1.24.694-1.506.004l-.619-1.088a.806.806 0 0 0-.325-.394l-1.767-1.104c-.609-.381-.589-1.167.246-1.469l1.486-.817c.28-.065.377-.309.461-.584l.355-1.154c.229-.744 1.276-.764 1.532-.028ZM149.138 109.752l.283.813a.808.808 0 0 0 .478.49l1.927 1.114a.806.806 0 0 1 .117 1.455l-1.448.828a.812.812 0 0 0-.354.414l-.865 1.521c-.262.692-1.24.694-1.506.004l-.619-1.088a.806.806 0 0 0-.325-.394l-1.767-1.104c-.609-.381-.589-1.167.246-1.469l1.486-.817c.28-.065.377-.309.461-.584l.355-1.154c.229-.744 1.276-.764 1.532-.028Z" class="k"/></g></svg>