<svg xmlns="http://www.w3.org/2000/svg" viewBox="10.08 9.8 199.92 100.5"><defs><style>.st0{fill:#ffd200}.st1{fill:#7b8689}.st2{fill:#e31f26}.st3,.st7{fill:#2c2b7c}.st7{stroke:#2c2b7c;stroke-width:.15;stroke-miterlimit:10}</style></defs><path id="object-0" d="M48.6 95.4c-3.1-1-6.1-2.1-8.9-3.3 5.4 3.3 11.3 5.9 17.4 7.7a68.74 68.74 0 0 0 11.4 2.5l.3-1.9c-6.9-1.1-13.7-2.8-20.2-5" class="st0" transform="matrix(1, 0, 0, 1, 0, -1.7763568394002505e-15)"/><g id="object-1"><path d="M148.6 60.8h7.2v-1.6h-7.3zM157.3 59.2v2.6h1.1v3.1c.7 2 1.8 3.9 3.2 5.5 2.6 3 6.3 4.7 10.3 4.8h.9c3.7-.3 7.2-2.1 9.6-5-2.2 2-5 3.2-8 3.4h-.9c-4 0-7.7-1.7-10.3-4.8-3.2-3.6-4.9-8.8-4.9-15.1 0-6.4 1.7-11.8 4.8-15.4l-.3.2c-2.9 2.6-4.8 6.5-5.6 11.2l.1 9.5zM178 49.2c-.4-1.4-1.5-2.4-2.9-2.6-.9-.1-1.8.3-2.5.9-.3.3-.6.6-.8 1 .5-.3 1.1-.4 1.7-.4 1.1.1 2 .7 2.5 1.7l4.3.1 5.9-2.8-.1-.9-.1-.2-7.8 3.8-.2-.6zM90.3 91.7l.3-1.3 2.5-8.7H92l-2.4 8.2.7 1.8z" class="st1"/><path d="m171.9 51.3-.1 9c.1.2.3.4.5.5.3.2.5.5.9.6h2.7c.7-.3 1.3-.9 1.6-1.6h-4l.1-8.6-1.7.1zM134.6 75.3l-1.3.1v1.4l23.6-1.3V74l-22 1.3-.6-43.5-1.6-.2.5 34.8zM148.5 46.1l8.1.5v-1.7l-8.2-.5zM207.8 79.8c-.5-.5-1.2-.8-1.8-.8-.1 0-.3 0-.3.2h.2l1.1.2c.2.2.5.3.8.4zM204.1 85.6s.5-.1.5-.4h-.2l-1-.1c-.6-.1-1.2-.3-1.8-.6l.3.2c.6.6 1.4.9 2.2.9zM200.9 83.8c-.8-.9-1.2-2.1-1.1-3.4 0-1.5.5-2.9 1.3-4.1-.7.5-1.2 1.1-1.7 1.8l-.4 11.4 1.9-5.7zM187.2 62.9l-2.7 10.9 10-.6.3-1.5-8.7.5 8.5-34.2-1.2-.1-5.2 21c-.2 1.4-.5 2.7-1 4zM201.4 67.3l-4.5.2-.3 1.6 3.2-.2.6 4 8.8-.5-.3-1.5-6.9.4zM193.5 80.9v-.8l.1-4.1-1.6.1v1.7l1.5 3.1zM110.7 76.7l-9 .5-6.9-21.1c-.2-.9-.5-1.8-.7-2.6 0 .8-.1 1.5-.1 2.2l-.2 3.8 6.3 19.2 10.2-.6.4-1.4zM174.9 95c-.5 0-.9.1-1.4.1-2 0-4-.7-5.5-2a9.2 9.2 0 0 1-2.8-7c0-2.5.9-5 2.4-7a11.1 11.1 0 0 0-3.4 4.8v7.7c.4 1.2 1.2 2.3 2.2 3.2 1.5 1.3 3.5 2 5.5 2 .5 0 .9 0 1.4-.1 2.6-.3 5-1.7 6.7-3.7-1.5 1-3.3 1.8-5.1 2zM132.7 75.4l-12.8.8-2.2-21.9c-.1.3-.1.6-.2.9l-1 4 1.9 18.6 14.6-.9-.3-1.5zM141.6 99.2l-.2-20.3-1.6.1.1 12.5.9-.1.1 7.8-.9.2.1 1.3 14.2-1.9v-1.3zM193.5 92.2l-2.9-5.9v.3l-.1 4.2 1.5 2.9 5.5-.8v-1.4l-4 .7zM204.4 91c-.3 0-.7.1-1 .1-1.4 0-2.8-.3-4-.9l-.4-.2-.1 1.6-1.3.2.1.1c1.2.6 2.6.9 4 .9.3 0 .7 0 1-.1 1.8-.3 3.5-1.3 4.5-2.8-.7.5-1.7.9-2.8 1.1zM125 101.4l-.5-21.5-1.6.1.5 23 16-2.2-.1-1.3zM184.2 93.5l.3-17-1.6.1-.1 3.1c.7 1.5 1.1 3.1 1 4.8 0 1.7-.4 3.4-1.2 5l-.1 5.6 6.2-.8v-1.4l-4.5.6zM156.4 97.2V78.1l-1.6.1.1 11.7 1-.1v7.4l-1 .2v1.4l7.7-1.1v-1.4zM91.2 77.8l-17.6 1.1 6-52.8-1.8-.1-6.2 54.4 19.6-1.1zM69.3 108.9l3.6-26.1h-1.7l-3.9 27.5 13.1-1.5.1-1.4zM106.1 51l.6-4 4.1-17.7-1.2-.1-4.3 18.8.8 3zM112.2 103.1l-.8-22.5-1.6.1.8 24 10.2-1.4V102zM99.8 104.8l-1.6-10.5-1.3 3.9 1.3 8.2 10.7-1.5-.3-1.3zM87.4 106.4l-4.7-10.3c0-.1 0-.1-.1-.2l-.2 4.5 3.4 7.7 7.1-.9.5-1.4-6 .6z" class="st1"/></g><g id="object-2"><path d="M80.4 25.1 99 27l7.1 26.5h.4c.2-2.1.5-4.3.9-6.4l4.4-18.8 15.1 1.6 6.9 44.7-13.3.8-2.5-25.1h-.3c-.2 1.6-.5 3.1-.9 4.6l-5.5 21-9.2.5-6.7-20.6c-.6-2.1-1.1-4.2-1.3-6.3h-.6c0 2-.1 4.1-.2 6.1L92.1 77l-17.8 1 6.1-52.9zM135 30.8l22.5 2.3v11.2l-9.7-.6v4l8.9.4v10.5h-8.8v4l9.9-.1v10.7l-22.2 1.4zM188.1 51c-.2 5.7-.2 10.5-3.1 15-2.2 3.9-6.2 6.4-10.6 6.9-4 .3-8-1.4-10.6-4.5-2.9-3.3-4.7-8.3-4.7-14.6 0-13.1 7.1-20.3 15.7-19.4 5.8.9 10.5 5 12.2 10.6l-8.4 4.1c-.4-1.6-1.9-2.8-3.5-3-3.5-.2-5.4 4-5.5 8.6 0 4.2 1.8 8.1 4.9 8 1.9-.1 3.5-1.4 3.8-3.2h-4.2l.1-8.8 13.9.3zM197.9 58.9l1.6-10.2h.3c.1 1.4.2 2.9.4 4.3l.7 5.8-3 .1zm-1.6 8 5.7-.2.6 4 7.4-.4-6-32.3-8.5-.9-8.5 34.4 8.6-.5.7-4.1z" class="st2"/><path d="m112.1 79.8 9-.6.6 22-8.9 1.1zM125.1 79l8.3-.5.3 14.4 6.5-.7.1 6.5-14.6 1.9zM142.1 78.1l7.3-.5.1 13.5 5.7-.6v6.2l-12.9 1.7zM157.1 77.2l6.5-.4-.1 18.7-6.4.9zM185.2 75.6l4.9-.3 4.2 8.9h.1c-.2-1.4-.3-2.7-.3-4.1l.1-5 4.5-.3-.5 16-4.5.6-4.1-8.2h-.1c.2 1.1.2 2.2.2 3.3l-.1 5.4-4.9.7.5-17zM201.3 84.9l.2.2c.7.7 1.7 1.2 2.7 1.1.6 0 1.1-.5 1.1-1.1 0-.7-.5-.7-.9-.8l-.9-.1c-1.7-.2-3.1-1.4-3.1-3.9-.1-3.2 2.3-5.9 5.5-6.2 1.3-.1 2.6.3 3.6 1.1l-1.3 4c-.6-.6-1.5-1-2.4-1-.5 0-.9.4-1 .9 0 .6.5.6.9.7l.9.2c1.8.4 3 1.5 2.9 4.1 0 3-2.2 5.6-5.2 6-1.6.2-3.2-.1-4.6-.8l1.6-4.4zM73.8 81.9l11.9-.7 4.8 12.6h.3c.1-1.1.3-2.2.6-3.3l2.8-9.8 10.4-.6 5.2 22.6-9.4 1.3-1.9-12.7h-.2c-.1.8-.3 1.6-.6 2.4l-3.6 11.1-6.2.8-4.5-9.8c-.4-1-.7-2-.9-3h-.4c0 1 0 2-.1 3l-.7 10.7-11.2 1.5 3.7-26.1zM175 75.9a9.9 9.9 0 0 0-9.2 10.1c0 5.9 4.1 8.9 8.9 8.2 4.9-.7 8.6-4.9 8.5-9.9.2-5.4-3.5-8.7-8.2-8.4" class="st3"/><path d="m174.3 83.2 1.4-4.8 1.6 4.6 4-.3-3.1 2.9 1.4 4.2-3.6-2.1-4.2 4 1.6-5.4-4.6-2.7z" style="fill:#fff" transform="matrix(1, 0, 0, 1, 0, -1.7763568394002505e-15)"/></g><g id="object-3" transform="matrix(1, 0, 0, 1, 0, -1.7763568394002505e-15)"><defs><path id="SVGID_1_" d="M39.3 48.4c0 12.5 10.2 22.7 22.7 22.7s22.7-10.2 22.7-22.7S74.5 25.7 62 25.7c-12.6 0-22.7 10.2-22.7 22.7"/></defs><clipPath id="SVGID_00000096031206047426164460000014765838523690788247_"><path d="M39.3 48.4c0 12.5 10.2 22.7 22.7 22.7s22.7-10.2 22.7-22.7S74.5 25.7 62 25.7c-12.6 0-22.7 10.2-22.7 22.7" style="overflow:visible"/></clipPath><g style="clip-path:url(#SVGID_00000096031206047426164460000014765838523690788247_)"><radialGradient id="SVGID_00000070098575923852448050000000582529706668504226_" cx="-222.38" cy="809.41" r=".75" gradientTransform="matrix(23.61 0 0 23.61 5306.6299 -19068.9863)" gradientUnits="userSpaceOnUse"><stop offset="0" style="stop-color:#fff"/><stop offset=".08" style="stop-color:#fffdf5"/><stop offset=".2" style="stop-color:#fff8da"/><stop offset=".37" style="stop-color:#fff1ae"/><stop offset=".57" style="stop-color:#ffe671"/><stop offset=".79" style="stop-color:#ffd824"/><stop offset=".88" style="stop-color:#ffd200"/></radialGradient><path d="M39.3 25.7h45.4v45.4H39.3z" style="fill:url(#SVGID_00000070098575923852448050000000582529706668504226_)"/></g></g><path id="object-4" d="m79.7 48 .4-4.2-2.3 2.9-3.2-2.3 1.2-4 3.4.7-2.6-3.1 1.1-3.6-2.8 1.5-3.1-3.7 1.1 4.9-3.3 1.8-2.6-4.3 2.7-3.4-4.6.2-3.1-5.3v5.4l-6 .3 6 3.2v5.6h-6.3l-3.1-6.3-1.8 6.3-9-.1 7.8 4.1-2 7.1 6.4-4.9 5.8 3.1-2.6 6-7.9.3 6 3.9-3.3 7.2 6.5-5.1 4.9 3.1-1.3-6 4.7-3.7 3 3.9L67 65l4.6-3.2 2.6 3.5-.2-5.1 3.6-2.5-3.8-.8-.1-4.9 3.6-.9 1.7 4 .4-4.5 2.9-.7-2.6-1.9zm-6.1 4-2.2 4.4-4.6-.9-5.5.2-1.3-5.8-2.6-5.6 4.6-3.6 3.2-3.9 4.4 2.2 3.9.9 1 4.6 1.7 4.1-2.6 3.4z" class="st3" transform="matrix(1, 0, 0, 1, 0, -1.7763568394002505e-15)"/><path id="object-5" d="M61.4 75.4c-2.3.1-4.6 0-6.9-.3 4.1 2.5 9 3.6 13.8 2.9 2.2-.2 4.4-.8 6.4-1.8l2.1-1.2.5-.3.2-.2c1.4-.9 2.6-2 3.7-3.2 1.5-1.7 2.8-3.6 3.8-5.6l.3-.7.1-.1.2-.4c.3-.7.5-1.4.7-2.1-4.4 7.3-13.8 12.5-24.9 13" class="st0" transform="matrix(1, 0, 0, 1, 0, -1.7763568394002505e-15)"/><path id="object-6" d="M52.7 24.1c1-.4 2-.7 3.1-.9-2.7-1.5-23-12.3-37.9-2.2-12.6 8.5-6.5 26.3-5.2 29.8 3.7 10 11 20.2 20.7 28.7 8.8 7.6 19.3 13 30.6 15.7l.1-.3c-6.2-3-11.9-8-17.5-12.9-16.5-14.4-25.4-33.6-21.7-46.3 4.1 2 7.9 4.4 11.5 7.1l.6-2.3c-3.9-2.8-8.1-5.3-12.4-7.4l-1.1-.5-.4 1.2C20.7 40.4 21.5 49 25.4 58S36.5 76.1 45 83.7c2.4 2.1 5 4.1 7.7 6a79.7 79.7 0 0 1-17.9-11.9c-9.3-8.2-16.5-18.1-20-27.8-1.2-3.2-6.9-19.5 4.3-27.1 4-2.6 8.8-3.9 13.6-3.8 8.3-.1 16.3 3.2 20 5z" class="st0" transform="matrix(1, 0, 0, 1, 0, -1.7763568394002505e-15)"/><path id="object-7" d="M49.2 25.8c-4.7-1.8-11.8-4.5-16.5-4.5-4.4-.1-8.7 1.1-12.4 3.5-.2.2-.5.3-.8.6l-.2.2c-.2.1-.3.3-.5.4l-.1.1-.1.1-.6.5-.3.3c-.1.1-.2.2-.2.3-.1.1-.2.3-.3.4l-.1.1v.2c-2.3 3.2-2.8 7.3-2.6 11.1.5-.9 1.2-1.7 1.8-2.4 1.9-2.1 4.5-4.9 7.1-6.2l1.8.8.6.3c3 1.4 8.5 4.4 12.3 6.8 2.2-5.3 6.1-9.7 11.1-12.6z" class="st0" transform="matrix(1, 0, 0, 1, 0, -1.7763568394002505e-15)"/><path id="object-8" d="M20.9 34.9c-2 5.2-1 17.7 3.7 26.4 1.8 3.6 3.9 7.1 6.2 10.4a66.35 66.35 0 0 1-15.9-29.9c1.7-2.6 3.7-4.9 6-6.9z" class="st2" transform="matrix(1, 0, 0, 1, 0, -1.7763568394002505e-15)"/><path id="object-9" d="M34.3 46.6c0-7.4 3.1-14.4 8.5-19.4a22.14 22.14 0 0 0 0 38.7C37.4 61 34.3 54 34.3 46.6z" class="st2" transform="matrix(1, 0, 0, 1, 0, -1.7763568394002505e-15)"/><g id="object-10"><path d="m87.4 20.2.7.1v-8.4l-.7-.1v-2l2.4.2 5.6 8.9v-6.3l-.7-.1v-2l3.5.4v2l-.7-.1v8.5l.7.1v2L96 23l-5.6-8.9v6.3l.7.1v2l-3.6-.4v-1.9zM107.8 20.1c0 2.1-1.7 3.9-3.8 3.9h-.6c-2.4-.3-4.2-2.3-4.3-4.8 0-2.1 1.6-3.9 3.8-3.9h.6c2.4.3 4.2 2.3 4.3 4.8zm-6.4-.7c0 1.2.8 2.2 2 2.4 1 .1 2-.6 2.1-1.6v-.3c0-1.2-.9-2.2-2.1-2.3-1-.1-1.9.7-2 1.7.1 0 0 0 0 .1zM113.8 16.5v2.1l-1-.1c-.7-.1-1.3.3-1.4 1v3.2l.6.1v2l-3.3-.4v-2l.6.1v-4.4l-.6-.1v-2l2.3.2v.6c.5-.4 1.1-.5 1.7-.4l1.1.1zM119.1 25.5l-1.4-.2c-2.1-.2-3.2-1.4-3.2-3.4v-8l2.2.2v2.7l2.6.3v2l-2.6-.3v3.4c0 .6.5 1.1 1.1 1.2l1.4.2-.1 1.9zM127.8 21.5v2.9l.6.1v2l-2.8-.3v-4.8c0-.8-.6-1.5-1.5-1.6-.7-.1-1.4.4-1.4 1.2v3.1l.6.1v2l-3.4-.4v-2l.6.1v-7.8l-.6-.1v-2l2.8.3v3.6c.5-.2 1-.3 1.4-.2 2.2.1 3.7 1.8 3.7 3.8zM139.8 27.8a7.2 7.2 0 0 1-6.3-7 5.6 5.6 0 0 1 5.5-5.7h.8c1.8.2 3.4 1.2 4.6 2.6l-1.3 1.5c-.8-1-2-1.6-3.2-1.8-2-.3-3.8 1.2-4.1 3.2v.5c0 2.3 1.8 4.3 4.1 4.5 1.2.1 2.4-.3 3.3-1.1l1.3 1.8c-1.3 1.1-3 1.7-4.7 1.5zM154 27.2v2l-2.4-.2v-.8c-.7.5-1.6.8-2.5.7-2.4-.3-4.2-2.3-4.3-4.8 0-2.1 1.6-3.8 3.8-3.9h.6c.9.1 1.8.5 2.4 1.1v-.8l1.8.2v6.4l.6.1zm-2.7-2.5c0-1.2-.9-2.2-2.1-2.3-1-.1-2 .6-2.1 1.6v.3c0 1.2.9 2.2 2.1 2.4 1 .1 2-.6 2.1-1.6v-.4zM160.4 21.5v2.1l-1-.1c-.7-.1-1.3.3-1.4 1v3.1l.6.1v2l-3.3-.3v-2l.6.1v-4.4l-.6-.1v-2l2.3.2v.6c.5-.4 1.1-.5 1.7-.4l1.1.1zM169.3 26.6c0 2.1-1.7 3.9-3.8 3.9h-.5c-2.4-.3-4.2-2.3-4.3-4.8 0-2.1 1.7-3.9 3.8-3.9h.5c2.4.3 4.3 2.4 4.3 4.8zm-6.4-.7c0 1.2.9 2.2 2.1 2.3 1 .1 2-.6 2.1-1.6v-.3c0-1.2-.9-2.2-2.1-2.3-1-.1-2 .6-2.1 1.6v.3zM169.9 19.1l2.8.3v8.8c0 .5.3.9.8 1h.5v2l-.6-.1c-2-.1-2.9-1.1-2.9-3.1v-6.9l-.6-.1v-1.9zM174.7 29.4l.6.1V25l-.6-.1v-2l2.7.3v6.4l.6.1v2l-3.3-.3v-2zm.4-8.3c0-.6.6-1.1 1.2-1.1.7.1 1.3.7 1.3 1.4 0 .6-.4 1.1-1 1.2h-.3c-.7-.1-1.2-.7-1.2-1.5zM187.4 30.7v2l-2.8-.3v-4.9c0-.8-.6-1.5-1.4-1.6-.7-.1-1.3.4-1.4 1.1v3.1l.6.1v2l-3.3-.4v-2l.6.1v-4.4l-.6-.1v-2l2.3.2v.6c.6-.4 1.3-.6 2-.5 2 .3 3.5 2 3.4 4v2.9l.6.1zM197.1 31.7v2l-2.4-.2v-.8c-.7.5-1.6.8-2.5.7-2.4-.3-4.3-2.3-4.3-4.8 0-2.1 1.6-3.8 3.8-3.9h.6c.9.1 1.8.5 2.4 1.1v-.7l1.8.2v6.4h.6zm-2.7-2.5c0-1.2-.9-2.2-2.1-2.3-1-.1-2 .6-2.1 1.6v.3c0 1.2.9 2.2 2.1 2.4 1 .1 2-.6 2.1-1.7v-.3z" class="st7"/></g></svg>