<svg xmlns="http://www.w3.org/2000/svg" viewBox="0 0 242 96"><defs><style>.cls-1{fill:#00853f}.cls-2{fill:#ffd200}.cls-4{fill:#fff}.cls-5{fill:#e02826}</style></defs><g id="Pick3"><path class="cls-1" d="m119 25.69-1.9 2.69a23.69 23.69 0 0 0-10.49-2.67H65l-2 2.89a18.14 18.14 0 0 0-10.36-2.91H34.2L22.61 42.15 1.43 73h64.16l3.48-5.08C72.6 71.21 77.83 73 84.29 73h76.38l3-42.77.32-4.53Z"/><path class="cls-2" d="M237.19 47.55a43.32 43.32 0 1 1-43.31-43.32 43.31 43.31 0 0 1 43.31 43.32"/><path class="cls-1" d="M193.88 4.23a43.32 43.32 0 1 1-43.32 43.32 43.32 43.32 0 0 1 43.32-43.32m0-4.23a47.55 47.55 0 1 0 47.55 47.55A47.6 47.6 0 0 0 193.88 0"/><path class="cls-2" d="M120.4 29.92 117.53 34c-2.41-2.41-5.9-3.76-10.42-4H67.24l-3.77 5.34C61.63 31.95 57.68 30 52.63 30H36.38l-27 38.83h54l5.75-8.37a10.31 10.31 0 0 0 .66 1.54c1.62 3.12 5.48 6.83 14.66 6.83h78.18L189.15 30Z"/><path d="M231.93 47.55a38.05 38.05 0 1 1-38.05-38 38.06 38.06 0 0 1 38.05 38.05" fill="#00a94f"/><path class="cls-4" d="M193.47 12.8H193c-12.9 0-24.49 8.3-29.79 21h4.16c4.89-11.07 14.82-18.75 26.16-19.92h.19v-1Z"/><path class="cls-1" d="M58.7 43.8c1.63-2.34 2-4.62 1.06-6.42-1.07-2-3.68-3.2-7.16-3.2h-14l-4.36 6.2h2l-12.48 18h-2l-4.25 6.2h12.75l4.25-6.2h-2l4-5.69h3.6c7 0 15.13-3.89 18.61-8.86M50.44 43a7.55 7.55 0 0 1-5.66 2.89h-3.59L45 40.38h3.95a2 2 0 0 1 1.92.8 1.75 1.75 0 0 1-.43 1.82m25.35-2.58h2l4.37-6.2H69.4L65 40.38h2l-12.48 18h-2l-4.25 6.2H61.1l4.25-6.2h-2Zm70.12-6.2L125.52 45.8l4.15-5.42h2l4.36-6.2h-12.7l-4.33 6.2h2l-12.48 18h-2l-4.25 6.2H115l4.25-6.2h-2l2.07-3 4.45-2.81 2 12h11l4.26-6.2h-7l-2.35-9.25 14.73-8.72h3.67l4.37-6.2ZM102.4 59.66l-1.46-5.51-.25.14a26.58 26.58 0 0 1-11.92 3.53c-2.91 0-5-.9-5.83-2.53s-.42-3.61 1.1-5.8c3.31-4.73 10.83-8.59 16.77-8.59 3.22 0 5.33 1.09 6.85 3.53l.12.19 8.5-4.9-.08-.19c-1.64-3.71-5.3-5.59-10.88-5.59-10.63 0-24 6.86-29.86 15.29-2.8 4-3.5 7.83-2 10.76 1.61 3.09 5.44 4.8 10.77 4.8a39.57 39.57 0 0 0 18-5Z"/><path class="cls-2" d="M232.17 26.86c-2.42-4.52-8.93-6.86-19.37-6.86h-.12c-17.93 0-33 5.89-39.34 15.39-2.71 4.06-1.87 7-1.13 8.39a7 7 0 0 0 4.07 3.3c1.18.41 4.21 1.17-.35 1.16-7.51 0-15.47 4.12-19.4 10-3.3 4.95-2.64 8.52-1.5 10.65 2.64 4.95 10.32 7.27 24.16 7.29h.13c17.59 0 32-5.87 38.56-15.7 2.55-3.82 3.3-7.3 2.22-10.33a8.52 8.52 0 0 0-1.63-2.78c5.37-2.17 9.43-5.28 12.11-9.31 3.49-5.22 2.79-9 1.59-11.24"/><path class="cls-1" d="M212.69 20h.11c10.44 0 16.95 2.32 19.37 6.84 1.2 2.25 1.9 6-1.59 11.24-2.68 4-6.74 7.14-12.11 9.31a8.52 8.52 0 0 1 1.63 2.78c1.08 3 .33 6.51-2.22 10.33-6.56 9.83-21 15.7-38.56 15.7h-.13c-13.84 0-21.52-2.34-24.16-7.29-1.14-2.13-1.8-5.7 1.5-10.65 3.93-5.9 11.89-10 19.4-10 4.5 0 1.49-.75.31-1.16a7 7 0 0 1-4.07-3.3c-.74-1.39-1.58-4.33 1.13-8.39 6.37-9.5 21.45-15.41 39.39-15.41m0-3.39c-19.06 0-35.22 6.48-42.17 16.9-1.27 1.91-4 6.89-1.3 11.86l.18.33a27 27 0 0 0-15.69 10.69c-4.45 6.67-3 11.71-1.67 14.12 3.34 6.25 11.71 9 27.15 9.07h.12c18.73 0 34.2-6.43 41.39-17.2 3.17-4.76 4.05-9.25 2.59-13.35a1.12 1.12 0 0 0 0-.13A27.3 27.3 0 0 0 233.4 40c2-3 4.87-8.88 1.76-14.71s-10.57-8.62-22.35-8.64Z"/><path class="cls-1" d="M192.89 44c7.08-.22 11.53-2.06 14.09-5.92 3-4.46.89-7.47-5.73-7.48a18.72 18.72 0 0 0-10.18 2.68c3.7 0 4.75 2.09 2.8 5-2.67 4-7.33 6.15-13.08 6.15s-7.5-2.95-4.68-7.18c5.45-8.17 19.24-13.93 36.69-13.91 15.2 0 20.25 5 15 12.9q-5 7.52-17.6 10.16c7.28 2.24 8.9 6.25 4.89 12.26-5.8 8.7-19.14 14.24-35.9 14.21-18.82 0-25.39-4.51-19.89-12.75 3.33-5 10.37-8.54 16.61-8.53 5.55 0 7.51 2.63 4.84 6.63-2.41 3.63-6 5.31-11.65 5.77 1.81 1.23 4.67 1.78 8.38 1.79 7.7 0 13.84-2.92 17.17-7.92 3.19-4.78 1.13-7.4-6.08-7.41ZM83.78 12.61a2.44 2.44 0 0 0 .4-2.55 3 3 0 0 0-2.82-1.29H76l-.07.08L74.36 11l-.23.32h.78L70.32 18h-.77l-.06.09L68 20.24l-.22.32h5.15l.06-.09 1.5-2.18.21-.29h-.77l1.33-1.91h.86l-.35 4.29v.22h3.34l.06-.09 1.52-2.18.22-.33h-1.59l.13-2.42a8.65 8.65 0 0 0 4.33-2.93m-5.41.93h-1.73l1.71-2.49H80a.93.93 0 0 1 .87.44.84.84 0 0 1-.12.87 3.35 3.35 0 0 1-2.34 1.18M65.93 18l1.84-9v-.24h-4.54l-.06.09L61.65 11l-.22.32h.64L54.24 18h-.81l-.06.09-1.5 2.19-.22.32h3.65l2.54-2.24h4.31l-.54 2-.06.26h3.51l.07-.09 1.49-2.18.23-.33h-.92ZM63 16.08h-3.13l4.06-3.6ZM99.72 14.78c1.09-1.58 1.36-3.08.76-4.23s-2.13-1.88-4.2-1.88c-4.1 0-9.24 2.64-11.48 5.88-1.1 1.56-1.36 3.06-.76 4.22s2.12 1.88 4.2 1.88a15.64 15.64 0 0 0 11.48-5.87m-3.48-.23a8.74 8.74 0 0 1-6.3 3.21 2.21 2.21 0 0 1-2.09-.88 2.09 2.09 0 0 1 .43-2.1 8.45 8.45 0 0 1 6.24-3.22 2.26 2.26 0 0 1 2.1.91 2 2 0 0 1-.38 2.08M50 16.56l-.06-.25-.24.12a9.9 9.9 0 0 1-4.47 1.33 2.27 2.27 0 0 1-2.12-.9 2 2 0 0 1 .42-2.08 8.57 8.57 0 0 1 6.28-3.22 2.6 2.6 0 0 1 2.5 1.29l.11.17.17-.1 3.1-1.78.16-.1-.08-.17c-.64-1.45-2.07-2.19-4.25-2.19-4.07 0-9.21 2.63-11.45 5.87-1.1 1.56-1.37 3.06-.76 4.22s2.13 1.88 4.2 1.88a15.15 15.15 0 0 0 6.9-1.93l.14-.08v-.15ZM133.02 17.96l4.58-6.6h.78l.06-.09 1.52-2.18.23-.32H135.01l-.06.09-1.52 2.18-.23.32h.78l-2.65 3.82-1.09-6.24-.03-.17h-3.42l-.06.08-1.54 2.19-.23.32h.78l-4.58 6.6h-.78l-.06.09-1.5 2.19-.22.32h5.19l.06-.09 1.5-2.18.22-.33h-.77l2.63-3.76 1.05 6.19.03.17H132l.06-.09 1.51-2.18.23-.33h-.78zM151.25 8.77h-4.59l-.06.09-1.51 2.14-.23.32h.64L137.67 18h-.81l-.06.09-1.5 2.19-.22.32h3.65l2.54-2.24h4.31l-.53 2-.07.26h3.52l.06-.09 1.5-2.18.22-.33h-.91l1.83-9Zm-4.8 7.31h-3.15l4.07-3.6ZM107.17 17.27h-.11l-.06.09-.42.6h-2.32l4.58-6.6h.78l.06-.08 1.54-2.19.23-.32H106.29l-.06.08-1.54 2.19-.23.32h.78l-4.58 6.6h-.78l-.06.09-1.5 2.19-.22.32h9.93l.06-.09 1.98-2.88.23-.32h-3.13zM116.52 17.96l4.58-6.6h.77l.06-.08 1.54-2.19.23-.32H118.54l-.06.08-1.54 2.19-.23.32h.78l-4.58 6.6h-.78l-.06.09-1.49 2.19-.23.32H115.51l.06-.09 1.5-2.18.22-.33h-.77z"/></g><g id="plus_Fireball" data-name="plus Fireball"><path class="cls-2" d="M34.17 87.06a2 2 0 0 1-3.44-.48c1.52.92 2.64-1.59 4-2.88a3.33 3.33 0 0 1 3.55-.88l.29.14.72-2.51c-2.17-1.56-4.73-.81-6.34.29-3 2.05-4.88.34-4.88.34a3.59 3.59 0 0 0 1.31 2.41 2.94 2.94 0 0 0 3 .24c-.1.2-1.7 2.77-4.67 0S22.5 85 22.5 85s1.25-1.06 2.77.45c1.13 1.12 2 3.4 3.57 4.48a5.06 5.06 0 0 0 6.77-.76 3.07 3.07 0 0 1-1.31 2.76 3.11 3.11 0 0 1-3.66-.2 4.83 4.83 0 0 0 4.21 2.79h.41l2.35-8.14c-.51-.77-1.61-1.07-3.44.68ZM7.73 84A2.05 2.05 0 0 0 6 83.29H3.2l-1.62 6H4.4l.41-1.52h.5a2.65 2.65 0 0 0 2.67-2A2 2 0 0 0 7.73 84Z"/><path class="cls-2" d="m10.27 86.71.91-3.42H8.32L6.7 89.33h4.4l.71-2.62h-1.54z"/><path class="cls-2" d="m12.3 83.29-1 3.59a2 2 0 0 0 .18 1.68 2.47 2.47 0 0 0 2.12.88 3.54 3.54 0 0 0 2.28-.73A3.21 3.21 0 0 0 17 87l1-3.72Z"/><path class="cls-2" d="M21.62 85.71 22.74 84l-.39-.28a2.78 2.78 0 0 0-1.71-.53 3.43 3.43 0 0 0-2.23.76 2.75 2.75 0 0 0-1 1.46 1.56 1.56 0 0 0 .13 1.25l-1.34 2 .72.33a3.87 3.87 0 0 0 1.77.42 3.52 3.52 0 0 0 2.31-.72 2.78 2.78 0 0 0 .94-1.44 1.61 1.61 0 0 0-.2-1.43Z"/><g><path class="cls-2" d="M40.77 79.69 36.75 94.7h6.96l1.2-4.45h3.4l1.25-4.67h.48l1.58-5.89H40.77zM52.16 79.69 48.14 94.7h6.96l4.03-15.01h-6.97zM71.08 85.56a4.59 4.59 0 0 0-.54-4.09c-1.15-1.57-2.9-1.78-4.46-1.78h-6.62l-4 15h6.85l.17-.65.15.65h7.9l-2.2-5.54a4.83 4.83 0 0 0 1.14-.79 5.76 5.76 0 0 0 1.61-2.8Z"/><path class="cls-2" d="M72.93 79.69 68.9 94.7h11.06l1.55-5.75h-.48l.94-3.51h.36l1.54-5.75H72.93zM96 84.66a3.76 3.76 0 0 0-.52-3.47c-1.19-1.5-3.61-1.5-4.4-1.5h-6.41l-4 15h8a7.3 7.3 0 0 0 4.15-1.17 5.44 5.44 0 0 0 2.37-3.23 3.5 3.5 0 0 0-.55-3.21l.14-.12a4.83 4.83 0 0 0 1.22-2.3Z"/><path class="cls-2" d="m109.21 94.7-1.33-15.01h-6.79L91.86 94.7h7.62l.77-1.58h1.69l-.01 1.58h7.28z"/><path class="cls-2" d="m116.56 88.34 2.32-8.65h-6.96l-4.03 15.01h10.87l1.71-6.36h-3.91z"/><path class="cls-2" d="m126.74 88.34 2.32-8.65h-6.96l-4.03 15.01h10.87l1.71-6.36h-3.91z"/></g><path class="cls-2" d="M149.17 80.38a6.77 6.77 0 1 0 6.77 6.77 6.78 6.78 0 0 0-6.77-6.77Z"/><g><path class="cls-5" d="m2.23 88.84 1.35-5H6a1.59 1.59 0 0 1 1.33.53 1.49 1.49 0 0 1 .16 1.32 2.19 2.19 0 0 1-.84 1.27 2.11 2.11 0 0 1-1.34.4h-.89L4 88.84Zm2.53-2.78h.31a.73.73 0 0 0 .45-.14.56.56 0 0 0 .2-.31.32.32 0 0 0 0-.31.51.51 0 0 0-.34-.11H5ZM7.35 88.84l1.35-5h1.82l-.91 3.42h1.54l-.43 1.62ZM12.68 83.8h1.81l-.78 2.93a.61.61 0 0 0 0 .51.34.34 0 0 0 .32.14.71.71 0 0 0 .41-.12 1 1 0 0 0 .27-.53l.79-2.93h1.82l-.83 3.09a2.65 2.65 0 0 1-.91 1.44 3.07 3.07 0 0 1-2 .63 1.94 1.94 0 0 1-1.69-.67 1.56 1.56 0 0 1-.08-1.29ZM21.22 85.41a1.51 1.51 0 0 0-.93-.37.69.69 0 0 0-.37.09.28.28 0 0 0-.14.18c0 .1 0 .2.23.26l.54.13a1.24 1.24 0 0 1 .75.43 1.16 1.16 0 0 1 .12 1 2.23 2.23 0 0 1-.77 1.18 3 3 0 0 1-1.95.69 3.39 3.39 0 0 1-1.61-.4l-.15-.06.93-1.42.16.15a1.36 1.36 0 0 0 .92.37.79.79 0 0 0 .42-.09.41.41 0 0 0 .16-.23.21.21 0 0 0 0-.17c0-.07-.13-.09-.31-.13l-.43-.08a1.11 1.11 0 0 1-.76-.43 1.06 1.06 0 0 1-.11-.93 2.2 2.2 0 0 1 .81-1.2 3 3 0 0 1 1.93-.65 2.35 2.35 0 0 1 1.42.44Z"/><g><path class="cls-5" d="m38.21 93.59 3.42-12.77h8.52l-1 3.64h-3.86l-.35 1.3h3.41l-.91 3.37H44l-1.2 4.46ZM49.6 93.59 53 80.82h4.64l-3.41 12.77ZM56.9 93.59l3.42-12.77h5.76c1.34 0 2.69.16 3.55 1.33a3.52 3.52 0 0 1 .37 3.13 4.62 4.62 0 0 1-1.32 2.28 4.25 4.25 0 0 1-2 1v.11a1.24 1.24 0 0 1 .51.59l1.72 4.31H63.5l-.84-3.73a1.79 1.79 0 0 1-.06-.4h-.09l-1.1 4.1Zm6.41-7.08h.53a1.87 1.87 0 0 0 1.06-.29 1.33 1.33 0 0 0 .53-.78 1 1 0 0 0 0-.77.76.76 0 0 0-.69-.34h-.81ZM70.37 93.59l3.42-12.77h8.61l-.94 3.51h-4l-.32 1.18h3.62l-.9 3.35h-3.59l-.33 1.23H80l-.94 3.5ZM85.53 80.82h5.56c1.09 0 2.77.12 3.52 1.08a2.64 2.64 0 0 1 .31 2.48 3.59 3.59 0 0 1-1 1.77 4 4 0 0 1-1.32.78v.11a2.14 2.14 0 0 1 1.13.77A2.35 2.35 0 0 1 94 90a4.25 4.25 0 0 1-1.89 2.58 6.21 6.21 0 0 1-3.54 1H82.1Zm1.69 9.69h.93a2.24 2.24 0 0 0 1-.21 1.44 1.44 0 0 0 .67-.86.81.81 0 0 0-.14-.77 1.37 1.37 0 0 0-.94-.27h-1Zm1.28-4.79h.73a1.66 1.66 0 0 0 1-.28 1.25 1.25 0 0 0 .43-.67.66.66 0 0 0-.11-.67 1.25 1.25 0 0 0-.78-.21H89ZM99.54 92l-.77 1.59h-4.9l7.85-12.77h5.12L108 93.59h-4.92V92Zm3.73-6.91h-.17a8.52 8.52 0 0 1-.6 1.44L101.21 89h1.86l.06-2.45a13 13 0 0 1 .14-1.46ZM109.36 93.59l3.42-12.77h4.63l-2.32 8.66H119l-1.1 4.11ZM119.54 93.59 123 80.82h4.63l-2.32 8.66h3.9l-1.1 4.11Z"/></g><g><path class="cls-2" d="M141.83 91a2.56 2.56 0 0 1-1 1.31 3.17 3.17 0 0 1-3.67 0 4.81 4.81 0 0 0 4.33 2.55 6.14 6.14 0 0 0 3.66-.91 6.92 6.92 0 0 1-3.32-2.95ZM140.14 88.15c-2.1 2.21-4.67-.44-4.63-.43 3 .73 3.64-1.51 5-2.91a3.9 3.9 0 0 1 .78-.61 7.17 7.17 0 0 1 3.18-3.72 5.88 5.88 0 0 0-5.49 1c-2.91 2.14-4.85.54-4.85.54a3.48 3.48 0 0 0 1.41 2.3 3 3 0 0 0 3 .11c-.09.21-1.58 2.78-4.67.21s-5.13 1.4-5.13 1.4a2 2 0 0 1 2.78.32c1.19 1.06 2.18 3.24 3.77 4.24a4.94 4.94 0 0 0 6.13-.45 7.86 7.86 0 0 1-.61-2.59 7.08 7.08 0 0 0-.67.59Z"/><circle class="cls-5" cx="149.16" cy="87.16" r="5.91"/><path class="cls-4" d="M149.2 82.61h-.08a5.46 5.46 0 0 0-4.83 3.47l1.52-.07c.74-1.75 1.52-3 3.4-3.25v-.16Z"/></g></g></g></svg>