<svg viewBox="8.6 34.9 234 75.5" xmlns="http://www.w3.org/2000/svg"><circle cx="221" cy="79.5" r="16.8" fill="#ed1c2c"/><path d="M221 62.8c9.3 0 16.8 7.5 16.8 16.8s-7.5 16.8-16.8 16.8-16.8-7.5-16.8-16.8 7.5-16.8 16.8-16.8m0-4.9c-11.9 0-21.6 9.7-21.6 21.6 0 11.9 9.7 21.6 21.6 21.6 11.9 0 21.6-9.7 21.6-21.6 0-11.9-9.7-21.6-21.6-21.6zM34 47.4s3.1-7.1 3.7-8.6c-1.6.4-9.1 2.3-9.1 2.3s-5.8-5.1-7-6.2c-.1 1.6-.6 9.4-.6 9.4s-6.7 4-8.1 4.8c.8.3 8.7 3.5 8.7 3.5s1.9 8.3 2.1 9.1l6-7.2s7.7.7 9.3.9c-.2-.3-5-8-5-8zM19.4 63.7l-.2-1c-.1-.6-1-4.3-1.5-6.8-1.6-.7-3.8-1.5-5.2-2.1C9.6 59 8.2 65.1 8.7 71.4c.5 6.2 2.8 11.7 6.3 16.3-3.1-8.4-1.1-17.6 4.4-24z" fill="#ffd200"/><circle cx="37.6" cy="79.5" r="16.8" fill="#fff"/><path d="M37.6 62.8c9.3 0 16.8 7.5 16.8 16.8s-7.5 16.8-16.8 16.8-16.8-7.5-16.8-16.8 7.5-16.8 16.8-16.8m0-2.5c-10.6 0-19.2 8.6-19.2 19.2S27 98.7 37.6 98.7s19.2-8.6 19.2-19.2-8.6-19.2-19.2-19.2z" fill="#b3b3b3"/><circle cx="110.3" cy="79.5" r="16.8" fill="#fff"/><path d="M110.3 62.8c9.3 0 16.8 7.5 16.8 16.8s-7.5 16.8-16.8 16.8-16.8-7.5-16.8-16.8 7.5-16.8 16.8-16.8m0-2.5c-10.6 0-19.2 8.6-19.2 19.2s8.6 19.2 19.2 19.2 19.2-8.6 19.2-19.2-8.6-19.2-19.2-19.2z" fill="#b3b3b3"/><circle cx="146.7" cy="79.5" r="16.8" fill="#fff"/><path d="M146.7 62.8c9.3 0 16.8 7.5 16.8 16.8s-7.5 16.8-16.8 16.8-16.8-7.5-16.8-16.8 7.5-16.8 16.8-16.8m0-2.5c-10.6 0-19.2 8.6-19.2 19.2s8.6 19.2 19.2 19.2 19.2-8.6 19.2-19.2-8.6-19.2-19.2-19.2z" fill="#b3b3b3"/><circle cx="182.9" cy="79.4" r="16.8" fill="#fff"/><path d="M182.9 62.6c9.3 0 16.8 7.5 16.8 16.8s-7.5 16.8-16.8 16.8-16.8-7.5-16.8-16.8c.1-9.3 7.6-16.8 16.8-16.8m0-2.5c-10.6 0-19.2 8.6-19.2 19.2s8.6 19.2 19.2 19.2 19.2-8.6 19.2-19.2c.1-10.5-8.6-19.2-19.2-19.2z" fill="#b3b3b3"/><circle cx="73.9" cy="79.5" r="16.8" fill="#fff"/><path d="M73.9 62.8c9.3 0 16.8 7.5 16.8 16.8s-7.5 16.8-16.8 16.8-16.8-7.5-16.8-16.8c.1-9.3 7.6-16.8 16.8-16.8m0-2.5c-10.6 0-19.2 8.6-19.2 19.2s8.6 19.2 19.2 19.2 19.2-8.6 19.2-19.2-8.6-19.2-19.2-19.2z" fill="#b3b3b3"/><path d="M241.3 110.4h-85.9V100h85.9v10.4z" fill="#231f20"/><path d="M158.2 101.4h4c.9 0 1.5.2 2 .6.4.4.7 1 .7 1.8s-.2 1.4-.7 1.9c-.5.4-1.2.7-2.2.7h-1.3v2.9h-2.4v-7.9h-.1zm2.4 3.3h.6c.5 0 .8-.1 1-.2.2-.2.3-.4.3-.6 0-.2-.1-.5-.2-.6-.2-.2-.5-.3-.9-.3h-.7v1.7h-.1zM166.5 105.3c0-1.3.4-2.3 1.1-3 .7-.7 1.7-1.1 3-1.1s2.3.4 3 1c.7.7 1.1 1.7 1.1 2.9 0 .9-.2 1.7-.5 2.2-.3.6-.8 1-1.3 1.4-.6.3-1.3.5-2.2.5-.9 0-1.6-.1-2.2-.4-.6-.3-1-.7-1.4-1.3-.4-.5-.6-1.3-.6-2.2zm2.5 0c0 .8.1 1.4.4 1.7.3.3.7.5 1.2.5s.9-.2 1.2-.5c.3-.3.4-.9.4-1.8 0-.7-.2-1.3-.4-1.6-.3-.3-.7-.5-1.2-.5s-.9.2-1.2.5c-.3.4-.4.9-.4 1.7zM175.9 101.4h2.2l.9 4.4 1.2-4.4h2.3l1.2 4.4.8-4.4h2.3l-1.7 7.8h-2.4l-1.4-4.9-1.3 4.9h-2.4l-1.7-7.8zM188.9 101.4h6.5v1.7h-4.1v1.2h3.8v1.6h-3.8v1.6h4.2v1.7h-6.6v-7.8zM197.6 109.2v-7.8h4c.7 0 1.3.1 1.7.2.4.1.7.4 1 .7.2.3.4.8.4 1.3 0 .4-.1.8-.3 1.1-.2.3-.4.6-.8.8-.2.1-.5.2-.8.3.3.1.5.2.6.3l.4.4c.2.2.3.4.3.5l1.2 2.3h-2.7l-1.3-2.4c-.2-.3-.3-.5-.4-.6-.2-.1-.4-.2-.6-.2h-.3v3.2h-2.4v-.1zm2.4-4.6h1c.1 0 .3 0 .6-.1.2 0 .3-.1.4-.2.1-.1.2-.3.2-.5 0-.3-.1-.4-.2-.6-.2-.1-.5-.2-.9-.2H200v1.6z" fill-rule="evenodd" clip-rule="evenodd" fill="#fff"/><path fill="#fff" d="M206.8 100.8h33.7v8.9h-33.7z"/><path d="M211.5 102.2v3h1.3c.7 0 1.2-.1 1.6-.4.3-.2.5-.6.5-1.1 0-.5-.2-.9-.5-1.1-.3-.2-.9-.4-1.7-.4h-1.2zm-.9-.8h1.9c.5 0 1 0 1.3.1.3 0 .6.1.8.2.4.2.7.5.9.8.2.3.3.7.3 1.1 0 .4-.1.8-.3 1.1-.2.3-.5.6-.8.8-.2.1-.5.2-.8.3-.3.1-.7.1-1.3.1h-1.2v3.3h-.9v-7.8h.1zM221.9 109.2h-4v-7.8h.8v7h3.2v.8zM224.7 109.2h-.9l3.4-7.8h1l3.4 7.8h-.9l-1.1-2.4h-4l-.9 2.4zm4.7-3.1l-1.7-3.9-1.7 3.9h3.4zM236 106.3v2.9h-.8v-2.9l-2.9-4.9h1l2.3 4.1 2.3-4.1h1l-2.9 4.9z" fill-rule="evenodd" clip-rule="evenodd" fill="#231f20"/><path d="M212.4 78.9c.5-.5 1-1.4 1.1-2.6.3-2.4-.7-3-2.2-2.9-1 0-2.1.1-3.1.1-1 3.7-1.3 7.3 0 11.3 1.1.1 2.1.2 3.2.3 1.7.1 2.5-.7 2.3-3.4-.1-1.3-.5-2.5-1.3-2.8zm-2.7-2.8h.8c.5 0 .9 0 .8.9-.1.7-.4 1-.9 1h-1c.1-.6.2-1.3.3-1.9zm1 6.2c-.3 0-.6 0-1-.1-.1-.7-.2-1.4-.2-2.1h.7c.7 0 1.3.1 1.3 1.1.1 1-.3 1.2-.8 1.1zM220 73.4h-2.7c-1.6 3.9-2.9 7.8-3 11.6.9 0 1.8.1 2.6.1 0-.5.1-1 .1-1.5h2.8c.1.5.3 1 .4 1.5h2.7c-.9-3.9-2.2-7.8-2.9-11.7zm-2.6 7.7c.2-1.4.6-2.8.9-4.2l.9 4.2h-1.8zM226.2 73.5h-2.5c.2 3.9.2 7.8 0 11.7 2 0 3.9-.1 5.9-.1.2-.9.4-1.8.5-2.7-1.2 0-2.4 0-3.7.1.3-3.1.2-6.1-.2-9zM233 82.2c.4-2.9.4-5.5-.4-8.4-.6-.1-1.4-.1-2.1-.2.8 3.9.8 7.5 0 11.4 1.5-.1 2.7-.1 4.2-.2.3-.9.7-1.7.9-2.6-.9.1-1.7 0-2.6 0z" fill="#fff"/><path d="M39.1 69.7h-2.4c-2-.1-3.7-.1-5.9.1h-.1v.1c-1.1 4.2-1.9 9.6-.5 19.8v.1h.3c1 0 2 .1 2.9.1.9 0 1.7 0 2.7-.1h.1v-.1c0-2-.1-4-.1-6h3.1c3 0 5.3-.8 6.7-2.3 1.1-1.2 1.7-2.7 1.6-4.6 0-4.3-3.2-7-8.4-7.1zm1.9 8.2c-.5.5-1.3.8-2.2.8h-2.6c0-.8 0-1.7.1-2.5v-1.9H38c1.1 0 3.6.2 3.6 2 .1.6-.1 1.2-.6 1.6zm32.9-8.8c-5.8.1-10.2 4.5-10.3 10.2.1 6 4.4 10.5 10.3 10.5 5.8-.1 10.3-4.6 10.4-10.5 0-2.5-1-5-2.7-6.9-1.4-1.4-3.8-3.2-7.7-3.3zm0 15.8c-3.4 0-3.7-4.2-3.7-5.5 0-2.5 1-5.2 3.6-5.3h.1c.9 0 1.6.3 2.2.9.9.9 1.5 2.5 1.5 4.4 0 2.1-.5 5.5-3.7 5.5zm47.4-14.3h-.1c-1.6-.1-1.9-.1-3.6-.1h-1.1v.1c.3 3.9-.4 7.3-1.2 11-.5-2.7-1.1-5.1-1.7-7.6-.3-1.1-.6-2.3-.9-3.5v-.1h-.1c-1.6-.1-3.1-.1-4.7 0h-.1v.1c-.4 1.6-.8 3-1.2 4.4-.6 2.2-1.2 4.3-1.7 6.7-.9-4.3-1.2-7.5-1-11v-.1h-4.5v.1c-1.4 5.1-.2 11.3 3.8 19.4v.1h5V90c.4-3.6 1.1-7.4 1.8-11l.1-.3.1.4c.7 3.6 1.5 7.3 1.8 11v.1h5.6v-.1c3.6-7.4 4.9-14.2 3.7-19.5zm23.8 14.3V82c2.7 0 5.4 0 8.1-.1h.1v-.1-4.6h-.1c-2.7-.1-5.4-.1-8.1-.1v-2.6c2.1 0 4.2 0 6.4.1 1 0 2.1.1 3.1.1h.2v-.2c-.2-1.3-.6-2.7-1.2-4.3v-.1h-.1c-5.3-.7-8.9-.7-14 0h-.1v.1c-1.4 6.6-1.4 13 0 18.9v.1h.1c2.7.4 5.1.5 7.5.5 2.3 0 4.6-.2 7.2-.5h.1v-.1c.5-1.4.7-2.7.9-4.5v-.2h-.2c-3.3.5-6.6.5-9.9.5zm44-4.6c2.1-.7 3.2-2.4 3.1-4.6-.4-4.1-3.2-6.2-8.7-6.3h-1.1c-2.3 0-4 0-6.6.5h-.1v.1c-2.2 6.5-2.4 13.6-.5 19.4v.1h.1c1.5.3 2.9.4 4.4.4h1.1v-.1c-.1-2.3-.1-4.6-.2-6.8v-.2h1.9c1.3 0 2.2.2 2.7.8.6.6.7 1.7.7 3.1 0 1.9 0 2.8.1 3.2v.1h.1c1.9-.1 5.3-.3 5.3-.3h.1l.3-1.3s.3-1.4.5-2.8c.3-3.8-1.3-4.6-3.2-5.3zm-3.4-2.6c-.4.5-1.3.7-2.6.7h-2.5c0-1.2 0-2.4.1-3.8h2.9c1.6 0 2.5.8 2.5 2 0 .4-.1.8-.4 1.1z" fill="#231f20"/><path d="M112.8 52c-1.1 1.1-2.4 1.6-3.8 1.6-2.6 0-4.7-2.1-4.7-4.6 0-2.6 2.1-4.6 4.7-4.6 1.3 0 2.5.5 3.8 1.7l.1.1 1.7-2-.1-.1c-1.6-1.6-3.5-2.4-5.5-2.4-4.1 0-7.5 3.3-7.5 7.4 0 4.1 3.4 7.4 7.5 7.4 2.1 0 4-.8 5.4-2.3l.1-.1-1.7-2.1zM70.1 51.1c0 2.9-2.4 5.4-5.3 5.4s-5.3-2.4-5.3-5.4c0-2.9 2.4-5.4 5.3-5.4s5.3 2.4 5.3 5.4zm-7.9 0c0 1.5 1.2 2.6 2.6 2.6 1.4 0 2.6-1.2 2.6-2.6 0-1.5-1.2-2.6-2.6-2.6-1.5 0-2.6 1.1-2.6 2.6zM77.6 45.9v2.6h-1.3c-1 0-1.8.7-1.8 1.7v3.7h.7v2.5h-4.1v-2.5h.7v-5.5h-.7v-2.5H74v.7c.6-.6 1.3-.7 2.1-.7h1.5zM84.6 56.3h-1.8c-2.7 0-4-1.3-4-3.8v-9.9h2.7v3.3h3.2v2.4h-3.2v4.2c0 .7.6 1.3 1.3 1.3h1.7v2.5zM95.7 50.3v3.6h.7v2.5H93v-6c0-1-.8-1.8-1.8-1.8s-1.8.8-1.8 1.8V54h.7v2.5h-4.2V54h.7v-9.6h-.7v-2.5h3.5v4.5c.5-.3 1.1-.5 1.8-.5 2.5-.2 4.5 1.9 4.5 4.4zM126.4 53.8v2.5h-2.9v-1c-.8.7-1.9 1.1-3.1 1.1-2.9 0-5.3-2.4-5.3-5.4 0-2.9 2.3-5.3 5.4-5.3 1.1 0 2.2.4 3 1.1v-.9h2.2v7.9h.7zm-3.4-2.7c0-1.5-1.2-2.6-2.6-2.6-1.4 0-2.6 1.2-2.6 2.6 0 1.5 1.2 2.7 2.6 2.7 1.5-.1 2.6-1.3 2.6-2.7zM134.4 45.9v2.6h-1.3c-1 0-1.8.7-1.8 1.7v3.7h.7v2.5h-4.1v-2.5h.7v-5.5h-.7v-2.5h2.9v.7c.6-.6 1.3-.7 2.1-.7h1.5zM145.4 51.1c0 2.9-2.4 5.4-5.3 5.4s-5.3-2.4-5.3-5.4c0-2.9 2.4-5.4 5.3-5.4s5.3 2.4 5.3 5.4zm-7.9 0c0 1.5 1.2 2.6 2.6 2.6 1.4 0 2.6-1.2 2.6-2.6 0-1.5-1.2-2.6-2.6-2.6-1.4 0-2.6 1.1-2.6 2.6zM145.9 41.7h3.4v11c0 .7.5 1.1 1 1.1h.6v2.5h-.7c-2.4 0-3.6-1.1-3.6-3.6v-8.5h-.7v-2.5zM152 53.8h.7v-5.5h-.7v-2.5h3.4v7.9h.7v2.5H152v-2.4zm.5-10.2c0-.8.8-1.6 1.6-1.6 1 0 1.6.7 1.6 1.6 0 1-.6 1.6-1.6 1.6-.8 0-1.6-.7-1.6-1.6zM167.8 53.8v2.5h-3.4v-6.1c0-1-.8-1.8-1.8-1.8s-1.8.8-1.8 1.8v3.6h.7v2.5h-4.1v-2.5h.7v-5.5h-.7v-2.5h2.9v.8c.7-.6 1.6-.9 2.5-.9 2.4 0 4.3 2 4.3 4.5v3.6h.7zM179.7 53.8v2.5h-2.9v-1c-.8.7-1.9 1.1-3.1 1.1-2.9 0-5.3-2.4-5.3-5.4 0-2.9 2.3-5.3 5.4-5.3 1.1 0 2.2.4 3 1.1v-.9h2.2v7.9h.7zm-3.4-2.7c0-1.5-1.2-2.6-2.6-2.6-1.4 0-2.6 1.2-2.6 2.6 0 1.5 1.2 2.7 2.6 2.7 1.4-.1 2.6-1.3 2.6-2.7zM58.2 44.2v-2.5h-4.3v2.5h.8v7l-6.6-9.4v-.1h-3v2.5h.8v9.6h-.8v2.5h4.4v-2.5h-.8v-6.9l6.5 9.4h3v-2.5h-.8v-9.6z" fill="#ed1c2c"/></svg>