<svg xmlns="http://www.w3.org/2000/svg" id="b" viewBox="0 0 397.16 179.06"><defs><style>.e,.f,.g,.i,.j,.k{stroke-width:0}.e{fill:#000}.f{fill:#1178be}.g{fill:#ee2f26}.i{fill:#0087c8}.j{fill:#fff}.k{fill:#e81e17}</style></defs><g id="c"><path d="M355.01 121.43c8.88-4.67 15.3-11.68 20.23-22.05a48.63 48.63 0 0 0 4.59-21.9c-.11-9.6-3.69-18.04-10.61-25.09-7.06-7.18-12.76-9.84-17.4-11.48-13.4-4.77-24.93-5.5-38.6-5.96h-.46c-6.78 0-24.18.53-39.38 5.43-9.92 3.22-22.56 8.3-32.57 19.1a48.18 48.18 0 0 0-3.67 3.96c-9.58 10.56-12.1 24.89-12.33 26.53l-.08.07a12.7 12.7 0 0 0-8.57-3.32h-15.63c-2.24 0-4.44.59-6.37 1.71a32.65 32.65 0 0 0-11.1-2.5 12.7 12.7 0 0 0-12.63-11.48h-.22l-1.76-.33c.82-1.37.54-.98 1.21-2.43 3.04-6.72 4.69-16.29 4.5-23.67-1.84-13.98-5.56-18.35-12.15-25.28-4.76-5.01-11.9-8.33-19.18-11-12.63-4.66-24.8-4.8-38.43-5.27h-.5c-6.47 0-23.33 1.03-37.85 5.9-9.47 3.17-21.47 7.66-31.04 18.32a46.95 46.95 0 0 0-3.48 3.89C22.43 44.96 18.96 59.6 18.74 61.2c-1.05 6.93 4.12 15 11.05 16.05.61.1 1.59.11 2.2.11l3.4-.07c-4.13 4.01-7.45 6.05-12.13 11.03-8.67 9.15-14.46 17.85-18.22 27.4a152.54 152.54 0 0 0-3.2 9.16c-.54 1.84-1.7 5.66-1.72 7.59 0 .27-.04.68-.05.84-.78 6.97 5 13.24 11.97 14.02.46.05.93.08 1.4.08l123.47.02c.28 0 .55 0 .81-.04l8.88.04h18.72c3.52 1.13 3.2 2.05 6.9 2.02h1.26c3.46-.07 9.21-.72 12.58-1.56.16 6.9 4.92 12.68 11.82 12.68l7.1-.08v.36c0 .27-.03.7-.05.85a12.69 12.69 0 0 0 12.62 14.15l130.41-.23c5.84 0 10.93-4 12.32-9.67 6.2-25.49 6-27.31 5.75-29.6a12.7 12.7 0 0 0-12.62-11.31h-.25l-5 .04c1.57-.8 3.13-1.63 4.72-2.47l2.13-1.18Z" class="f"/><path d="M271.6 55.04c-16.03 5.4-22.95 11.6-27.18 16.43a38.68 38.68 0 0 0-3.06 3.43c-7.52 8.46-9.44 21.92-9.52 22.49-.17 1.16-.1 1.4 1.08 1.57l.3.03 2.02-.04h39.41c.89 0 1.9-1.94 2.23-2.75 0-.04 1.56-2.78 2.2-4.37a30.76 30.76 0 0 1 13-9.91l.08-.03c3.1-1.12 3.55-1.28 8.4-1.45 3.98.07 6.26.06 10.2.67a9.38 9.38 0 0 1 3.7 1.34c1.8 1.03 4.06 2.72 4.63 4.94.36 1.42.03 2.95-1 4.68a18.17 18.17 0 0 1-9.36 5.84c-2.2.6-4.24 1.18-6.22 1.75-1.59.46-3.23.94-4.96 1.42-2.81.76-5.69 1.51-8.47 2.24-8.89 2.31-18.08 4.7-26.84 8.24-8.1 3.28-19.92 8.62-29.05 17.17-7.76 7.25-13.47 15.53-17.02 24.56a144.5 144.5 0 0 0-3 8.7c-.48 1.47.78 2.52.54 4.05-.13 1.17 2.06 2.61 2.06 2.61l129.07-.13c.96 0 1.78-.53 2.04-1.45 3.06-11.04 5.64-24.22 5.44-26.14a2.13 2.13 0 0 0-2.14-1.89s-34.82-.15-59.83-.15c-7.21 0-13.15 0-17.76-.04 5.64-2.98 14.2-5.09 21.26-6.63l3.19-.68a418.49 418.49 0 0 0 32.16-7.97c5.25-1.48 8.86-3.08 13.22-5.09 1.17-.66 2.4-1.35 3.71-2.06 6.12-3.55 12.8-9.67 16.15-16.92a38.12 38.12 0 0 0 3.43-16.91c-.08-7.47-2.33-13.54-6.67-18.05-3.67-3.8-6.56-6.12-12.24-8.18a63.68 63.68 0 0 0-5.08-1.62l-.34-.12c-11.3-4.19-22.17-4.47-35.05-4.93h-.4s-20.74.77-34.33 5.35Z" class="j"/><path d="m308.42 52-2.23-.35c11.88.42 23.76 1.03 35.1 5.23l3.47 1.28c-9.8-2.7-22.99-4.34-33.13-4.7h-.06c-8.75 0-22.76 1.02-34.02 4.74-9.94 3.33-19.13 7.65-26.25 15.6a35.69 35.69 0 0 0-2.96 3.24c-7.24 7.9-8.72 16.71-8.72 16.71l34.24-.03c0 .1-.49 2.08-.49 2.08l-37.7.29s2.26-12.05 9.5-20.1c.92-1.16 1.9-2.27 2.96-3.31 7.06-8.06 16.27-12.49 26.24-15.85 11.25-3.8 23.04-5.2 31.79-5.2M293.12 141.94c-13.78 0-21.2-.07-23.65-.03.04-.12 1.3-1.57 1.35-1.52 5.3.05 10.45.04 19.54.04 24.63 0 53.72.08 57.98 0-.32.9-.08.1-.48 1.51" class="e"/><path d="M287.6 80.48c3.71-1.54 6.02-2.64 8.44-3.24 2.05-.5 7.26-1.22 9.4-1.17 3.91.1 5.86-.34 9.88 1.37 3.75 1.6 3.86 1.64 5.93 3.82 2.8 2.94 3.26 5.94 2.66 9.6a9.31 9.31 0 0 1-1.99 4.86c-1.97 2.79-3.7 3.5-7.78 5.2-3.8 1.6-6.07 1.99-10 3.05-11.76 3.16-23.7 5.7-35.06 10.2-9.85 3.92-19.73 6.15-27.84 13.6-7.45 6.84-14.38 16.54-17.85 25.24-1.1 2.76-1.1 3.28-2.03 6.1-.15.47-.3.97-.43 1.5a2.05 2.05 0 0 0 1.98 2.58l120.3.15-.46 2.38H216.22c.22-1.4.3-2.21.54-3.14a64.82 64.82 0 0 1 2.73-8.57c3.47-8.87 8.33-18.61 15.78-25.58 8.11-7.6 18.56-10.96 28.4-14.94 11.36-4.6 23.31-7.18 35.07-10.41 3.93-1.08 7.25-2.12 11.17-3.16 6.31-2.2 6.8-2.53 9.8-6.28 3.35-4.74 1.6-10.3-3.4-13.2-2.45-1.35-2.76-1.5-7.96-2.3-.58-.1-3.84-.25-6.8-.25-3.62 0-5.18.32-7.17.65" class="e"/><path d="M93.27 21.04c-4.7 0-20.32 2.3-29.07 5.6C49.44 33 44.75 36.58 39.63 41.8c-1.09 1.08-5.44 5.76-7.55 10.22-5.42 10.57-6.1 14.52-4.8 16.01a3.4 3.4 0 0 0 2.7 1.52l38.89-.4c.88 0 1.71-.9 2.2-2 .33-.99 1.17-2.94 1.53-3.68.32-.65.9-2.13 2.53-4.05 1.85-2.2 1.93-2.54 7.78-5.9a32.25 32.25 0 0 1 12.52-3.06c6.42-.07 6.92.1 9.15.6 1.04.32 3.64 1.22 4.2 1.54 1.66.95 2.18 1.13 3.62 2.52 1.52 1.47 1.67 3.7 1.46 5.02-.26 1.58-1.37 3.05-2.35 4.14-.82.91-1.78 1.7-2.84 2.31-2.13 1.23-3.3 1.37-5.88 2.08-1.89.53-3.44 1.02-6.27 1.73-2.2.55-3.58.97-5.93 1.48-2.88.73-5.32 1.32-8.1 2.04-8.86 2.33-17.51 4.35-26.28 7.9-8.1 3.28-19.92 8.94-29.05 17.49-7.75 7.25-12.39 16.87-15.94 25.91-1 3.11-2.2 5.98-3.05 8.62-.47 1.47-.61 1.88-.85 3.41-.13 1.16.7 2.2 1.88 2.34l128.18-.17c.96 0 1.8-.64 2.06-1.56 3.06-11.04 6.74-23.4 6.53-25.3-.1-1.09-1.14-3.2-2.24-3.2 0 0-72.83.18-77.43.14 5.64-2.97 14.58-6 21.64-7.53 1.12-.24 9.01-2.08 11.44-2.6 8.16-1.76 14.97-2.88 23.16-5.18 5.24-1.47 9.59-2.89 13.73-5.23 1.18-.66 2.77-1.86 4.08-2.57 4.6-3.31 7.66-5.95 11.17-10.43a33.14 33.14 0 0 0 6.56-14.31c.5-2.68.76-5.44.75-8.2-.09-7.48-3.25-13.4-7.58-17.91-3.8-3.99-4.55-3.83-9.62-7.12-3.49-1.75-7.54-3.22-7.54-3.22-11.8-3.55-17.82-3.82-30.7-4.27l-10.13.11Z" class="j"/><path d="M138.45 134.42c.22-1.37-123.85 1.17-123.42-.15.92-2.83 1.84-5.65 2.96-8.4 3.48-8.7 9.06-16.5 16.5-23.34C42.6 95.07 53.03 90 62.88 86.1c11.35-4.5 23.3-7.05 35.07-10.21 3.92-1.06 7.24-2.08 11.17-3.1a20.52 20.52 0 0 0 10.54-6.53c3.44-5.44 1.36-12.64-3.65-15.47-1.4-.75-9.06-5.41-12.2-5.56-.79-.03-11.93.83-13.36 1.38-.83.31-26.48 5.9-24.8 6.3.59.14 3.13 12.15 3.65 11.12 1.38-2.72 1.57-3.3 2.11-4.01 3.56-4.7 7.8-7.24 9.32-7.97 3.65-1.77 8.11-3.44 15.37-3.59a31.9 31.9 0 0 1 7.3.36c2.91.56 4.2.84 5.83 1.58 5.33 2.12 7.07 4.84 7.46 8.25.32 2.86-1.27 5.68-3.38 7.62-2.78 2.56-3.57 2.78-10.09 5.02-3.93 1.05-7.25 2.1-11.17 3.16-11.76 3.23-23.34 5.28-34.7 9.88-13.28 5.08-22.52 11.85-28.56 17.55-7.44 6.97-11.68 15.52-15.15 24.39a130.3 130.3 0 0 0-2.87 8.2c-.43 1.34-.47 1.23-.9 2.55l131.07-.13" class="f"/><path d="M144.87 117c.4-1.46.72-3.56.87-5.07-5.84.12-70.04.18-89.68 0-.17.3.7-.5 10.5-5.4 4.2-2.1 9.3-4.32 17.78-6.41.81-.2 11.1-2.71 21.94-4.94 1.99-.4 19.58-3.84 27.97-8.71 2.33-1.36 18.35-10.76 20.03-21.3.59-3.63-78.27 27.11-78.4 27.18-1.44.73-26.86 24.4-27.15 24.87 4.64.38 88.8-.09 95.64-.2M97.96 23.35s9.51-.6 18.4.72c6.44.95 9.82 1.3 18.4 4.86l4.56 2.39 5.67 4.71c-9.8-2.7-4.75 3.68-8.5 1.88l-35.45-10.17c-8.75 0-16.59.36-27.84 4.08-9.97 3.3-16.66 5.63-23.75 13.57-1.04 1.03-3.34 3.22-4.25 4.36-7.24 7.9-8.9 15.2-8.9 15.2l32.73-.16-.54 1.45c-.1.52-.54.89-1.06.9H30.7c-.56-.01-1.19-.57-1.13-1.07.45-3.89 1.18-5.77 4.86-11.96 2.07-3.42 2.52-4.75 7.9-10.93 8.16-7.15 13.09-10.43 23.13-14.21 11.25-3.8 20.26-4.62 25.77-5.21" class="i"/><path d="M34.51 102.38c8.02-7.36 17.12-12.4 26.86-16.29 9.22-3.68 19.93-6.43 29.63-8.62 7.52-1.7 12.11-3.26 18.14-4.83 4.12-1.04 8.3-5.12 9.52-7.03 2.38-4.36.12-12.23-4.88-15.06-6.68-3.57-11.18-3.88-16.56-3.88a32.2 32.2 0 0 0-15.4 3.86c-7.28 3.72-9.27 6.08-11.54 11.54-1.1 2.63-1.25 2.72-1.25 2.72l-34.95.16s3.5-10.76 10.74-18.66c7.29-7.52 13.85-12.23 23.82-15.53C79.92 27.03 92.4 25 101.14 25c11.95-.15 18.32.04 28.62 2 5.1 1.34 5.1 1.2 12.8 4.94a22.28 22.28 0 0 1 6.8 5.1c2.15 2.37 3.3 3.7 4.43 6.13 2.13 4.57 2.7 10.46 2.05 15.46a35.43 35.43 0 0 1-2.08 8.8c-.69 1.72-1.96 3.3-3.13 4.74-4.22 5.21-6.39 7.03-12.47 10.72-5.91 3.18-9.87 5.23-16.32 7.04-10.55 2.96-21 4.62-31.72 6.98-7.52 1.67-17.52 4.41-24.33 8.07-2.21 1.08-9.52 5.9-8.65 6.18 1.86.59 5.17.66 5.85.88.2.07-.78 1.53-.78 1.53 4.76.19 74.69.15 81.54.02-.75 2.14-5.14 20.97-5.14 20.97l-123.88.3c.03-.17.13-.15.3-.7.93-2.83 1.85-5.65 2.97-8.4 3.49-8.74 9.07-16.54 16.51-23.38Z" style="fill:#eb362d;stroke-width:0"/><path d="M105.03 113.87c40.27-2.56 47.73-18.93 36.32-34.23 31.38 4.94 31.57 5.78 38.98-26.78 13.04 35.34 19.74 21.96 42.34 12-31.52 34.02 9.55 21.8 41.37 20.7-20.08 6.34-26.3 13.62-25.3 14.94 1.23 1.61 25.06 10.28 45.7 15.27-19.95 1.92-37.62 7.28-39.46 10.87-1.77 3.46-6.2 15.53 6.1 24.18-26.55-2.18-30.09-6-30.46-4.83-5.44 16.71-10.73 34.75-10.08 32.94-5.74-18.6-7.1-28.21-13.67-26.51a268 268 0 0 0-28.12 9.13c7-9.12 9.98-16.48 9.3-17.37s-26.85-1.12-50.68-1.3c12.66-4.33 25.01-8.27 24.33-11.52-1.4-6.7-39.6-15.82-46.67-17.49Z" class="e"/><path d="M103.4 111.15c18.84-2.47 34.29-7.28 37.18-10.78 3.32-4.02 3.69-19.14-3.46-25.55 25.26 1.7 26.37 5.65 28.42 3.39 1.98-2.18 6.69-13.49 10.88-31.91 5.13 13.88 9.1 22.28 14.13 24.4 4.19 1.77 16.28-3.73 29.37-9.31-9.43 10.45-13.14 19.68-11.22 20.48 3.7 1.54 23.24 2.11 53.07.3-15.66 5.5-25.66 13.94-25.37 14.95.16.55 26.03 12.89 36.4 14.33 4.2.58 4.95 1 8.32 1.16-19.27 3.33-39.33 9.8-39.58 10.93-2.49 11.1-1.08 16.74 5.68 24.37-23.57-1.74-30.16-6.28-30.22-5.75-.04.36-5.57 19.27-10.1 32.84-5.41-17.57-8.76-21.78-13.89-24.82-2.44-1.45-16.66 3.44-26.9 7.97 8.9-11.62 10.05-17.12 9.53-17.34-1.32-.56-24.67-.26-50.29-1.02 13.86-4.74 23-13.1 22.3-14.32-2.36-4.05-35.56-11.88-44.24-14.32Z" style="stroke-width:0;fill:#fff200"/><path d="m157.82 86.68 11.04-.21c-.7 3.2-2.29 9.41-3.1 13.16 1.27-.29 3.95-2.06 7.67-3.15a19.43 19.43 0 0 1 15.26 1.55c4.31 1.97 5.07 7.35 4.83 11.13a16.62 16.62 0 0 1-5.48 11.73c-2.62 2.74-5.95 5.5-15.95 5.77-8.01.23-11.16-4.67-11.78-5.46l-.76 4.86h-10.28s8.39-38.27 8.55-39.38Zm15.53 15.92c-6.6.33-8.98 3-10.24 7.68-1.4 5.18 2.42 8.1 3.68 8.5 8.99 2.86 16.32 4.18 16.35-7 .02-7.2-6.57-9.34-9.8-9.18Z" class="j"/><path d="M222.08 96.69h13.25s-22.45 28.7-25.54 32.8c-1.92 2.61-6.36 6.29-9.4 6.29h-10.55l2.91-6.89 4.82.04c2.3 0 5.38-4.76 4.46-8.15l-6.77-23.83h10.4l4.62 16.16 11.8-16.42Z" class="j"/><path d="M156.53 85.35h10.97l-3.03 13.88c1.95-1.3 3.9-2.03 5.55-2.76 3.79-1 9.5-2.8 17.46 1.28 4.15 2.54 5.02 6.57 4.78 10.35a20.47 20.47 0 0 1-6.25 12.67 21.78 21.78 0 0 1-5.3 3.55c-2 .88-4.43 1.46-9.35 1.6-8.02.22-11.59-3.74-12.2-4.53l-.67 3.56-10.23-.21s8.1-38.29 8.27-39.4Zm16.44 16.21c-5.35.1-9.2 1.98-11.18 7.72-2.41 7 3.98 10.08 8.97 9.8 6.93-.38 10.3-4.4 10.83-10.9.37-4.57-5.16-6.68-8.62-6.62Z" class="e"/><path d="m221.65 95.82 11.7-.15s-22.53 29.58-25.62 33.68c-1.92 2.6-4.46 5.33-7.5 5.33h-12.28l1.6-6.4 6.33.04c2.3 0 5.98-4.37 5.52-5.72l-8.76-26.94h11.16l5.48 18.56 12.37-18.4Z" class="e"/><path d="M208.2 37.73c-3.53-.18-5.9-3.15-5.9-7.4 0-4.59 2.94-10.08 7-13.05a8.15 8.15 0 0 1 4.71-1.82l.35-.02.28.2c1 .7 1.85 1.58 2.51 2.59l.18-.01c3.16 0 3.16 3.56 3.16 4.72a15.19 15.19 0 0 1-12.03 14.76l-.13.03h-.13Zm7.26-16.4c-1.47.6-2.9 1.78-4.27 3.5-1.69 2.33-3.03 5.66-3.03 7.56 0 .7.19 1.36.36 1.72 4.1-1.19 7.04-5.84 7.04-11.3 0-.69-.03-1.15-.1-1.48Z" class="g"/><path d="M214.07 16.46a8.49 8.49 0 0 1 2.55 2.83c.2 0 .54-.07.71-.07 1.51 0 2.16 1.16 2.16 3.72a14.11 14.11 0 0 1-11.24 13.79c-3-.15-4.95-2.72-4.95-6.4 0-4.35 2.8-9.47 6.6-12.25a7.16 7.16 0 0 1 4.17-1.62m-5.86 18.76c4.81-1.03 8.35-6.11 8.35-12.41 0-1.43-.14-2.13-.54-2.72-2.35.62-4.24 2.39-5.61 4.12-1.82 2.5-3.25 6.04-3.25 8.18 0 1.3.54 2.72 1.04 2.83m6.45-20.8-.69.04c-1.93.1-3.8.83-5.3 2.04-4.33 3.2-7.36 8.88-7.36 13.83 0 4.74 2.82 8.2 6.85 8.4h.26l.26-.05a16.2 16.2 0 0 0 12.82-15.74c0-4.63-2.25-5.6-3.82-5.7a10.57 10.57 0 0 0-2.46-2.42l-.56-.4Zm-2.65 11c.84-1.06 1.7-1.88 2.56-2.47-.05 4.52-2.22 8.4-5.37 9.84a3.34 3.34 0 0 1-.03-.4c0-1.46 1.09-4.54 2.84-6.97Z" class="j"/><path d="M223.1 37.75c-1.38-.09-3.61-1.68-4.16-2.73l-.17-.34.1-.36a117 117 0 0 1 4.98-15.26 9.56 9.56 0 0 1 2.01-3.44l.36-.4.53.08c1.72.25 3.3 1 4.57 2.18l.73.67-.67.73c-.62.7-1.14 1.46-1.63 2.4a45.07 45.07 0 0 0 3.48-4.17l.11-.14.16-.1a2.27 2.27 0 0 1 1.4-.36c.85 0 1.7.3 2.37.84l.58.47-.28.69a8.52 8.52 0 0 0-.64 3.41v.1c-.06.73.08 1.46.42 2.11l.22.43-.2.44a7.3 7.3 0 0 1-1.9 2.54l-.52.44-.6-.31a7.56 7.56 0 0 1-3.12-3.04c-4.24 3.16-5.7 5.82-7.1 12.33l-.18.85-.86-.06Z" class="g"/><path d="M226.6 16.29c1.52.22 2.93.89 4.04 1.92-1.5 1.67-2.42 3.72-3.66 7.1 2.64-2.27 5-4.82 7.06-7.6a1.27 1.27 0 0 1 .78-.2h.05c.65 0 1.27.22 1.77.62a9.56 9.56 0 0 0-.7 3.8c-.08.92.1 1.84.52 2.66a6.26 6.26 0 0 1-1.64 2.19 6.58 6.58 0 0 1-3.18-3.68c-5.08 3.55-6.92 6.31-8.48 13.65-.98-.06-2.93-1.42-3.33-2.19 1.3-5.14 2.95-10.2 4.95-15.12.38-1.17 1-2.24 1.82-3.15m-.76-2.14-.72.8a10.7 10.7 0 0 0-2.22 3.8 117.96 117.96 0 0 0-5 15.32l-.2.74.35.67c.69 1.33 3.23 3.16 4.98 3.27l1.72.1.36-1.68c1.3-6.05 2.74-8.57 5.87-11.09a8.58 8.58 0 0 0 2.91 2.47l1.2.63 1.03-.88a8.32 8.32 0 0 0 2.17-2.89l.4-.88-.45-.86a2.86 2.86 0 0 1-.31-1.56v-.2a7.5 7.5 0 0 1 .57-3.02l.56-1.38-1.16-.94a4.84 4.84 0 0 0-3.03-1.06 3.18 3.18 0 0 0-1.91.52l-.31.2-.22.3-.27.36-.16-.15a9.55 9.55 0 0 0-5.1-2.43l-1.06-.16Z" class="j"/><path d="M243.43 38.21c-3-.08-6.8-2.56-6.8-5.25 0-2.52 1.23-7.18 3.1-11.93l-.72.05h-.66l-.32-.61a7.75 7.75 0 0 1-.62-2.67l-.05-1.09 1.1.05c.6.02 1.19.06 1.74.1l1.4.08c1.42-2.64 3.74-6.25 5-6.96l.24-.12h.26c1.1 0 4.23.74 5.05 1.91l.44.62-.48.59a40.58 40.58 0 0 0-2.96 4.12l1.48-.08.47-.03.32.34c.45.47.71 1.1.74 1.74l.03.75-.71.24c-1.47.5-3 .77-4.55.81-2.43 4.8-3.92 9.58-3.92 12.62 0 .67.23.89.41.97 1.3-.15 2.5-.67 3.5-1.49l.86-.7.61.92c.08.12.15.26.21.39l.03.05.56.47-.44.73c-.75 1.25-4.06 3.29-5.22 3.38h-.1Z" class="g"/><path d="M247.1 10.85c1.1 0 3.72.77 4.23 1.5a41.05 41.05 0 0 0-3.97 5.8c1.04 0 2.22-.07 3.33-.13.29.3.45.68.47 1.1-1.5.5-3.08.76-4.67.76h-.18c-2.68 5.15-4.3 10.32-4.3 13.6 0 1.17.53 1.8 1.3 2a7.88 7.88 0 0 0 4.25-1.73c.13.2.2.45.33.57-.58.96-3.6 2.82-4.44 2.89-2.68-.07-5.82-2.32-5.82-4.25 0-2.65 1.51-8 3.6-12.95h-2.22v.06h-.06a6.74 6.74 0 0 1-.54-2.32c1.44.07 2.76.2 3.78.2 1.64-3.16 3.97-6.58 4.9-7.1m0-2h-.52l-.45.26c-1.65.91-4 4.84-5.1 6.8l-.76-.05c-.55-.04-1.15-.08-1.76-.1l-2.2-.1.11 2.2c.06 1.03.29 2.04.7 3l.52 1.22h.64c-1.44 3.89-2.64 8.22-2.64 10.88 0 3.26 4.27 6.16 7.77 6.25H243.61c1.55-.13 5.14-2.44 6-3.86l.87-1.46-1.05-.89-.2-.36-1.23-1.83-1.7 1.39c-.68.55-1.46.93-2.3 1.14.05-2.79 1.4-7.1 3.56-11.5 1.44-.09 2.86-.37 4.23-.83l1.43-.48-.07-1.5a3.71 3.71 0 0 0-1-2.39l-.65-.68-.42.03c.57-.82 1.17-1.61 1.8-2.38l.96-1.17-.87-1.24c-1.14-1.63-4.71-2.35-5.88-2.35Z" class="j"/><path d="M250.75 38.44c-1.45 0-2.2-2.94-2.25-3.57-.27-3.77 1.3-10.46 3.98-17.03a58.94 58.94 0 0 1 9.76-16.25l.3-.35h.46c1.94 0 4.71 1.07 5.82 2.24l.66.7-.68.7c-4.15 4.22-7.4 8.46-9.17 11.93a45.37 45.37 0 0 0-2.74 5.93c3.87-4.27 6.87-6.36 9.11-6.36 1.71 0 3.75 1.13 5.21 2.88l.56.68-.6.64c-3.08 3.35-6.74 9.83-7.22 12.16.2-.05.43-.11.64-.2l.84-.34.42.81.19.32c.1.18.26.42.26.76 0 1.51-4.37 2.8-4.9 2.8-1.66 0-3.23-1.71-3.23-3.52 0-1.57 1.44-5.35 3.19-9.17-3.42 3.06-6.96 8.12-8.97 12.92a2.17 2.17 0 0 1-1.3 1.26l-.16.06h-.18Z" class="g"/><path d="M263 2.24c1.7 0 4.18.96 5.09 1.93-4.04 4.12-7.44 8.43-9.35 12.18a45.98 45.98 0 0 0-4.3 10.83c5.2-6.51 9.14-9.8 11.56-9.8 1.45 0 3.2 1.03 4.44 2.52-3.32 3.62-7.55 11.09-7.55 13.28 0 .52.14.62.63.62.5-.03.99-.14 1.44-.33.2.39.34.52.34.62 0 .4-3.15 1.8-3.9 1.8-1.12 0-2.23-1.3-2.23-2.52 0-1.56 1.95-6.58 4.57-11.85 0-.07-.13-.14-.13-.14-.57.25-1.1.57-1.58.97-3.84 2.86-8.17 8.69-10.56 14.39a1.2 1.2 0 0 1-.72.7c-.4 0-1.18-1.73-1.25-2.65-.27-3.76 1.38-10.4 3.9-16.58A58.03 58.03 0 0 1 263 2.24m0-2h-.93l-.6.71a59.92 59.92 0 0 0-9.92 16.52c-2.18 5.33-4.39 12.72-4.05 17.46 0 .07.63 4.5 3.25 4.5h.36l.33-.11a3.19 3.19 0 0 0 1.88-1.84 39.34 39.34 0 0 1 4.93-8.4c-.63 1.73-1.08 3.3-1.08 4.29 0 2.36 2.01 4.52 4.22 4.52.37 0 5.9-1.17 5.9-3.8 0-.63-.26-1.06-.4-1.29l-.15-.25-.83-1.62-.28.11c1.22-2.71 3.79-7.08 6.28-9.78l1.19-1.3-1.12-1.34c-1.66-2-3.95-3.24-5.98-3.24-1.24 0-3.06.42-6.05 2.95l.54-1 .02-.04.02-.03c1.72-3.38 4.9-7.53 8.99-11.69l1.35-1.37-1.32-1.4c-1.31-1.39-4.3-2.56-6.55-2.56Z" class="j"/><path d="M313.85 36.81c-2.52-.08-4.22-2.38-4.22-5.72 0-6.26 6.13-14.7 10.93-15.06l.18-.02.17.05c1 .3 2.32 1.44 3.08 2.56l.31-.66.77.15c.04 0 3.74.83 3.74 2.54v.24l-.1.2c-2.1 4.2-3.5 8.7-3.5 11.18 0 1.32.3 1.84.48 1.93l1.67.88-1.67.89c-.94.5-2 .78-3.07.8-1.2 0-3.18-.51-3.18-3.94v-.02c-1.72 2.14-3.65 3.75-5.42 4h-.18Zm8.73-15.39c-3.41 1.44-7.16 6.77-7.36 10.77.96-.61 2.52-2.3 4.99-6.46.36-.63 1.35-2.37 2.37-4.3Z" class="k"/><path d="M320.63 17.02c1.09.32 2.8 2.14 3 3.08-4.3.6-9.42 7.53-9.42 12.42-.06.4.18.8.56.94 1.53-.32 3.5-2.52 6.3-7.22a110.2 110.2 0 0 0 3.8-7.15c1.17.24 2.94 1.05 2.94 1.56-2.17 4.34-3.6 9-3.6 11.62 0 1.45.32 2.45 1.01 2.82-.8.43-1.7.66-2.62.68-1.47 0-2.16-.94-2.16-2.95.14-2.1.66-4.16 1.53-6.08-2.16 4.78-5.67 8.73-8.09 9.07-1.97-.07-3.25-2-3.25-4.72 0-5.85 5.74-13.75 10-14.07m.22-2.02-.37.03c-5.31.4-11.85 9.25-11.85 16.06 0 3.85 2.14 6.62 5.19 6.72h.17l.17-.02c1.55-.21 3.13-1.25 4.6-2.73a3.9 3.9 0 0 0 3.85 2.7 7.9 7.9 0 0 0 3.56-.91l3.33-1.78-3.16-1.66a3.66 3.66 0 0 1-.13-1.14c0-2.31 1.4-6.72 3.39-10.73l.2-.42v-.47c0-2.53-4.07-3.43-4.53-3.52l-1.46-.3a6.7 6.7 0 0 0-2.61-1.72l-.35-.1Zm-3.36 13.15c.44-.85.98-1.68 1.57-2.45-.59.97-1.1 1.78-1.57 2.45Z" class="j"/><path d="M343.27 41.12c-1.87 0-3.37-1.57-4.6-4.8-.96-2.9-1.7-5.85-2.2-8.81l-.09-.51c-.28.46-.57.94-.85 1.44-1.21 2.34-1.92 5-2.03 7.68.01.18.05.44.1.7l.3 1.23h-1.27c-.83-.01-1.61-.33-2.21-.9l-.14-.12-.08-.17a2.81 2.81 0 0 0-.74-.94c-.78-.6-1.12-1.89-1.12-4.3.12-6.43 9.91-27.43 14.16-30.39l.3-.2.36.03c1.96.17 4.57 3.07 4.57 5.08v.48l-.37.3c-3.1 2.49-6.44 7.1-9.06 12.22 2.2-2.19 4.42-3.43 6.43-3.51l.33-.02.27.19a4.94 4.94 0 0 1 2.14 4.26c0 3.39-2.63 7.15-5.75 8.47.9 2.68 2.73 6.62 6.09 8.54l.8.46-.4.84c-.72 1.54-2.9 2.75-4.94 2.75Zm-.38-21.4c-1.43.72-3.92 3.14-6.39 7.09l.35-.27a28.4 28.4 0 0 0 3-2.6c1.67-1.64 2.68-3.05 3.04-4.23Z" class="k"/><path d="M343.07 2.06c1.47.13 3.66 2.63 3.66 4.08-4.76 3.83-10.01 12.42-12.53 20.2 3.36-5.89 7.4-9.58 10.57-9.71a3.9 3.9 0 0 1 1.7 3.4c0 3.39-2.97 7.14-6 7.86 1.07 3.66 3.16 7.94 6.84 10.05-.51 1.1-2.28 2.18-4.04 2.18-1.47 0-2.67-1.55-3.66-4.16a57.58 57.58 0 0 1-2.15-8.62c1.09-.83 2.12-1.73 3.1-2.7 2.28-2.23 3.48-4.15 3.48-5.83a.43.43 0 0 0-.42-.32h-.03c-2.09.06-5.9 4.09-8.93 9.46a19.35 19.35 0 0 0-2.15 8.13c0 .33.05.65.12.96-.57 0-1.11-.22-1.53-.61-.24-.5-.58-.94-1-1.28-.52-.4-.76-1.61-.76-3.53.11-6.01 9.8-26.83 13.73-29.56M342.52 0l-.59.41c-4.51 3.14-14.47 24.4-14.59 31.18 0 2.76.45 4.28 1.5 5.12.2.16.35.36.46.59l.16.33.27.25a4.25 4.25 0 0 0 2.89 1.16l2.53.02-.57-2.47a3.05 3.05 0 0 1-.07-.51c.09-2.1.57-4.2 1.4-6.12a59.66 59.66 0 0 0 1.8 6.64l.01.03.02.04c1.37 3.61 3.23 5.45 5.52 5.45 2.45 0 4.97-1.43 5.86-3.33l.78-1.67-1.6-.91c-2.76-1.59-4.42-4.72-5.34-7.17 3.1-1.73 5.5-5.46 5.51-8.98a5.95 5.95 0 0 0-2.58-5.09l-.54-.37-.66.03a7.85 7.85 0 0 0-3.17.88c2.07-3.3 4.35-6.12 6.46-7.81l.75-.6v-.96c0-2.51-3.03-5.86-5.49-6.08l-.72-.06Z" class="j"/><path d="M353 37.23c-3.39-.17-5.76-3.14-5.76-7.23 0-4.48 2.87-9.84 6.83-12.74a7.95 7.95 0 0 1 4.6-1.78l.35-.01.28.2c.97.67 1.8 1.53 2.45 2.51h.16c2.06 0 3.1 1.55 3.1 4.62a14.83 14.83 0 0 1-11.74 14.41l-.13.03h-.13Zm7.05-16c-1.42.6-2.8 1.73-4.13 3.4-1.63 2.3-2.94 5.57-2.94 7.38 0 .67.18 1.3.34 1.64 4.04-1.16 6.81-5.6 6.81-11.02 0-.64-.03-1.08-.08-1.4Z" class="k"/><path d="M358.73 16.48a8.28 8.28 0 0 1 2.49 2.76c.2 0 .52-.07.7-.07 1.46 0 2.1 1.13 2.1 3.63a13.75 13.75 0 0 1-10.96 13.43c-2.86-.14-4.82-2.65-4.82-6.23 0-4.24 2.72-9.22 6.43-11.93a6.96 6.96 0 0 1 4.06-1.59M353 34.76c4.71-1 8.13-5.95 8.13-12.13 0-1.38-.13-2.06-.51-2.64-2.3.6-4.14 2.32-5.48 4-1.75 2.49-3.16 5.93-3.16 8.02 0 1.26.52 2.65 1.02 2.75m6.31-20.31-.69.04c-1.89.1-3.72.8-5.18 2-4.25 3.13-7.2 8.67-7.2 13.5 0 4.66 2.76 8.04 6.72 8.24l.26.01.26-.05A15.83 15.83 0 0 0 366 22.79c0-4.52-2.2-5.48-3.74-5.6-.66-.9-1.47-1.7-2.4-2.35l-.56-.4Zm-2.57 10.75c.78-.98 1.58-1.75 2.39-2.32-.07 4.4-2.1 8.05-5.13 9.45l-.02-.32c0-1.4 1.05-4.38 2.76-6.8Z" class="j"/><path d="M371.79 37.77c-2.93-.07-6.64-2.5-6.64-5.14 0-2.45 1.18-6.98 3-11.6l-.66.04h-.67l-.35-.6a7.68 7.68 0 0 1-.6-2.6l-.05-1.1 1.1.04 1.69.1 1.35.08c1.4-2.58 3.66-6.09 4.9-6.78l.22-.12h.26c1.08 0 4.15.73 4.95 1.88l.43.61-.47.6a39.33 39.33 0 0 0-2.84 3.97l1.4-.08.47-.03.32.34c.44.47.7 1.08.72 1.72l.03.75-.7.23c-1.44.49-2.92.75-4.43.8-2.36 4.65-3.81 9.31-3.81 12.26 0 .64.2.85.38.93a6.64 6.64 0 0 0 3.4-1.45l.85-.7.6.92c.09.12.16.25.22.38l.02.05.56.47-.44.73c-.73 1.22-3.97 3.2-5.1 3.3h-.11Z" class="k"/><path d="M375.34 11.09c1.08 0 3.63.74 4.13 1.45a40.1 40.1 0 0 0-3.85 5.66c1.02 0 2.17-.06 3.25-.13.28.29.44.67.45 1.07-1.46.5-3 .74-4.55.74h-.16c-2.62 5.02-4.2 10.06-4.2 13.27 0 1.13.52 1.74 1.27 1.94a7.68 7.68 0 0 0 4.14-1.7c.13.2.2.46.32.57-.56.93-3.5 2.75-4.32 2.81-2.63-.06-5.67-2.26-5.67-4.14 0-2.58 1.47-7.8 3.5-12.62h-2.16v.07h-.1a6.7 6.7 0 0 1-.52-2.27c1.4.06 2.68.2 3.68.2 1.6-3.08 3.88-6.41 4.79-6.92m0-2h-.52l-.45.25c-1.6.9-3.9 4.7-4.98 6.62l-.71-.04c-.55-.04-1.12-.08-1.72-.1l-2.2-.1.12 2.2c.05 1 .27 2 .66 2.93l.52 1.23h.63c-1.39 3.78-2.55 7.97-2.55 10.55 0 3.2 4.2 6.05 7.62 6.14H371.97c1.56-.13 5.03-2.36 5.89-3.78l.87-1.46-1.05-.89c-.05-.1-.11-.22-.2-.35l-1.22-1.83-1.7 1.39c-.64.51-1.37.88-2.15 1.09.06-2.67 1.38-6.9 3.44-11.1 1.4-.08 2.78-.36 4.11-.8l1.43-.48-.07-1.5a3.67 3.67 0 0 0-1-2.36l-.64-.68-.34.02c.53-.77 1.1-1.51 1.68-2.24l.96-1.17-.87-1.24c-1.12-1.6-4.63-2.3-5.77-2.3Z" class="j"/><path d="M381.15 37.14c-2.52-.08-4.21-2.38-4.21-5.72 0-6.26 6.12-14.7 10.92-15.06l.18-.02.18.05c1 .3 2.31 1.44 3.08 2.56l.3-.66.77.15c.6.12 2.93.77 3.58 1.8.2.3.25.66.17.99l-.03.1-.05.1c-2.1 4.23-3.52 8.72-3.52 11.17 0 1.32.3 1.84.48 1.93l1.67.88-1.67.89c-.94.5-2.01.78-3.1.8-1.19 0-3.17-.51-3.17-3.94-1.72 2.13-3.65 3.73-5.4 3.97l-.1.01h-.08Zm8.73-15.39c-3.41 1.44-7.17 6.77-7.37 10.77.97-.61 2.53-2.3 5-6.46.37-.64 1.36-2.38 2.37-4.3Z" class="k"/><path d="M387.94 17.35c1.08.32 2.79 2.14 2.98 3.07-4.3.6-9.41 7.54-9.41 12.43-.06.4.18.8.56.94 1.54-.32 3.5-2.52 6.3-7.22a116.4 116.4 0 0 0 3.8-7.15c1.18.24 3.1 1.05 2.98 1.56-2.16 4.34-3.64 9-3.64 11.62 0 1.45.33 2.45 1.02 2.81-.81.44-1.72.67-2.64.69-1.47 0-2.16-.94-2.16-2.95.14-2.08.66-4.13 1.53-6.04l.02-.04-.02.04c-2.17 4.76-5.66 8.7-8.07 9.03-1.98-.07-3.25-2-3.25-4.72 0-5.85 5.73-13.75 10-14.07m.21-2.02-.36.03c-5.32.4-11.85 9.25-11.85 16.06 0 3.85 2.13 6.62 5.18 6.72h.17l.17-.02c1.54-.22 3.13-1.25 4.6-2.72a3.9 3.9 0 0 0 3.83 2.7 7.9 7.9 0 0 0 3.58-.92l3.34-1.78-3.16-1.66a3.67 3.67 0 0 1-.14-1.14c0-2.28 1.41-6.69 3.43-10.73l.1-.19.05-.2c.15-.6.04-1.24-.3-1.78-1-1.58-4.19-2.24-4.22-2.24l-1.46-.3a6.69 6.69 0 0 0-2.61-1.73l-.35-.1Zm-3.37 13.17c.45-.87 1-1.72 1.6-2.5-.6 1-1.13 1.82-1.6 2.5Z" class="j"/><path d="M344.07 111.12c0-.03-4.7 2.65-11.48 5.52-5.85 2.47-11.07 3.54-17.47 5.15-2.99.76-5.94 1.39-11.67 2.61-7.85 1.68-9.07 1.8-12.14 2.42-4.06.82-7.52 1.59-9.36 1.89-.67.1-6.74 2.18-10.3 4.14a42.83 42.83 0 0 0-4.22 2.97c.02.02 2.96-1.55 5.66-2.77 2.74-1.23 4.66-2.18 8.91-3.3 2.19-.59 5.85-1.24 8.97-1.87 3.44-.69 5.92-1.1 6.68-1.27a836.95 836.95 0 0 0 23.05-5.19c9.35-2.72 13-4.33 14.99-5.42 4.16-2.28 8.38-4.84 8.38-4.89ZM266.33 137.5c.13 0 .13.9.13.9 1.34.02 3.46.02 4.51.02.1 0 .04.65.04 1.02 0 .17-6.21.5-6.3-.27-.05-.35-.21-1.68-.02-1.67.72.02 1.12 0 1.64 0Z" class="e"/><path d="M180.32 39.32c-2.99-.99-4.68-1.66-4.68-3.91 0-5.23 7.53-23.13 11.08-28.47l-.28-2.44h1.12c1.32 0 6.73 1.65 7.23 3.25l.07.21-.03.21a57.6 57.6 0 0 0-.45 6.97c0 4 .14 8.25.96 12.74 1.75-7.67 5.58-22.68 8.77-23.09l.15-.02.15.03c1.57.27 3.5 1.84 4.33 3.15l.63 1.02-1.12.44c-4.43 1.74-9.94 21.81-10.01 28.89 0 .8-.87 1.19-1.45 1.19h-.11c-2.96 0-5.25-.85-6.07-2.26l-.07-.12-.04-.14a115.97 115.97 0 0 1-3.28-22.47c-2.8 6.36-5.7 17.19-5.7 22.2-.01.63.01 1 .1 1.48l.33 1.68-1.62-.54Z" class="g"/><path d="M187.56 5.5c1.53 0 6.03 1.75 6.28 2.55-.3 2.35-.45 4.72-.45 7.1 0 5.87.33 11.43 1.98 17.3 2.66-13.07 6.75-26.4 8.87-26.67 1.2.2 2.9 1.51 3.65 2.7-5.3 2.08-10.58 23.32-10.65 29.8 0 .07-.27.2-.45.2h-.03c-2.45 0-4.63-.62-5.29-1.75a114.8 114.8 0 0 1-3.37-26.1c-3.2 4.9-7.57 19.62-7.57 26.08-.03.61 0 1.07.11 1.66-3.11-1.03-4-1.52-4-2.96 0-4.9 7.54-23.13 11.12-28.22l-.2-1.7m0-1.99h-2.24l.26 2.23.1.96c-3.76 5.89-11.04 23.32-11.04 28.72 0 3.08 2.6 3.95 5.37 4.86l3.25 1.08-.66-3.36c-.08-.4-.1-.7-.07-1.2v-.08c0-3.87 1.85-11.55 3.99-17.65.52 6.12 1.53 12.2 3 18.15l.08.28.14.25c1.43 2.44 5.27 2.74 6.95 2.74s.1 0 .1 0c1.18 0 2.45-.83 2.45-2.19.03-2.74 1.18-9.27 3.27-15.96 2.7-8.63 5.1-11.6 6.1-12l2.25-.87-1.28-2.04c-.95-1.52-3.08-3.28-5-3.6l-.3-.06-.3.04c-1.4.18-3.02 1.1-5.88 9.9-.82 2.55-1.66 5.5-2.47 8.64-.2-2.48-.25-4.88-.25-7.2.01-2.27.16-4.58.44-6.84l.06-.43-.13-.41c-.74-2.37-7-3.96-8.19-3.96Z" class="j"/><path d="M291.86 39.86c-4.85 0-8.38-1.99-10.22-5.73l-.2-.42.18-.43a495.45 495.45 0 0 0 8.59-22.14 12.36 12.36 0 0 0-4.4 6.64l-.3 1.04-1.02-.39a5.46 5.46 0 0 1-3.38-3.94l-.04-.2.04-.22c1.15-5.39 6.81-9.01 14.1-9.01 9.31 0 15.82 5.73 15.82 13.93 0 11.12-8.96 20.87-19.17 20.87Zm-3.57-5.74c.65.11 1.31.17 1.97.17 8.36 0 15.35-8.01 15.35-17.5 0-4.83-3.25-7.72-8.7-7.72h-.4c.6.35 1.19.74 1.75 1.16l.71.54-.45.77c-2.2 3.76-4.22 7.7-5.99 11.67-3 6.5-3.97 9.52-4.24 10.9Z" class="k"/><path d="M295.2 6.06c8.72 0 14.83 5.23 14.83 12.93 0 10.43-8.52 19.87-18.17 19.87-4.46 0-7.67-1.81-9.32-5.17 2.39-5.46 8.3-20.98 9.47-24.73-3.34 1.44-5.9 4.27-7.15 8.54a4.48 4.48 0 0 1-2.77-3.22c1.05-4.92 6.22-8.22 13.11-8.22m-4.94 29.23h.1c8.83 0 16.25-8.6 16.25-18.5 0-5.49-3.75-8.72-9.7-8.72h-.23c-1.23 0-2.45.19-3.62.56 1.66.54 3.21 1.35 4.6 2.4a120.8 120.8 0 0 0-6.05 11.77c-3.15 6.86-4.42 10.6-4.42 12.1 1 .26 2.04.4 3.07.4m4.94-31.24c-7.76 0-13.82 3.94-15.06 9.8l-.1.43.1.42a6.46 6.46 0 0 0 4 4.65l1.7.66c-1.91 5-3.97 10.2-5.13 12.86l-.37.85.4.84c2 4.05 5.94 6.29 11.12 6.29 10.75 0 20.17-10.22 20.17-21.87 0-8.79-6.92-14.93-16.83-14.93Zm-5.67 29.2c.45-1.55 1.5-4.41 3.9-9.62 1.77-3.97 3.77-7.87 5.95-11.6l.88-1.5c2.26.71 4.35 2.4 4.35 6.25 0 8.8-6.66 16.5-14.26 16.5h-.09c-.24 0-.49 0-.73-.02Z" class="j"/></g></svg>