<svg xmlns="http://www.w3.org/2000/svg" id="Layer_2" viewBox="0 0 382.94 156.36"><defs><style>.cls-3,.cls-5{stroke-width:0}.cls-3{fill:#fff}.cls-5{fill:#127cbe}</style></defs><g id="Layer_1-2"><path d="m375.46 58.61 1.34-9.37a271.57 271.57 0 0 0-82.39.31 22 22 0 0 1 4.74 8.88 261.96 261.96 0 0 1 76.31.19Zm-75.82 8.07a18.49 18.49 0 0 1-4.8 10.05 242.76 242.76 0 0 1 80.38 3.79l1.95-9.25a252.05 252.05 0 0 0-77.52-4.59ZM96.8 103.36c2.19-.37 4.44-.74 6.63-1.18 7.42-1.3 14.84-2.54 22.25-3.72l-.73-17.19c-4.26.5-8.57 1.06-12.83 1.61l-1.64-41.03a1435 1435 0 0 0-16.05.68l1.28 33.33c.43 9.19.73 18.31 1.09 27.49Zm55.94-7.63c14.53-2.3 23.59-13.96 22.8-29.73-.79-15.89-10.7-26.5-25.05-26.5s-23.9 11.79-23.17 30.16c.79 18.19 10.76 28.36 25.42 26.07Zm-1.88-38.85c4.26-.19 7.17 3.91 7.48 10.36.3 6.39-2.31 10.8-6.45 11.3-4.26.43-7.11-3.41-7.42-10.12-.3-6.77 2.25-11.36 6.38-11.54Zm34.9-1.86c.55 11.61 1.16 23.15 1.7 34.63 5.35-.68 10.7-1.3 16.05-1.92-.55-10.99-1.16-22.03-1.7-33.14 2.19-.06 4.38-.06 6.57-.12.79 0 1.52 0 2.31-.06-.24-4.47-.49-8.88-.67-13.34-.73 0-1.52 0-2.25-.06-10.58-.25-21.1-.37-31.68-.37.24 4.9.49 9.74.67 14.65 2.98-.06 5.96-.19 9-.25Zm28.88-.62c2.25 0 4.5-.06 6.75-.06.55 10.49 1.16 20.98 1.7 31.41 5.35-.56 10.7-1.06 16.05-1.55-.55-9.93-1.16-19.86-1.7-29.92h8.88c-.24-3.97-.49-8.01-.67-12.04-10.58-.5-21.1-.81-31.68-1.06-.79 0-1.52-.06-2.31-.06.24 4.47.49 8.88.67 13.34.79-.06 1.58-.06 2.31-.06Zm59.22 27.87c8.09-.68 14.47-3.35 18.42-7.45a15.34 15.34 0 0 0 4.37-12.17c-.06-1.3-.3-2.54-.67-3.72a18.7 18.7 0 0 0-5.41-8.69c-4.44-4.16-11.01-6.89-18.97-7.45-15.02-1.12-23.9 6.77-23.17 20.11.79 13.03 10.82 20.61 25.42 19.36Zm5.65-19.67c.3 4.47-2.25 7.45-6.45 7.57-4.26.12-7.11-2.67-7.42-7.45-.3-4.84 2.25-7.88 6.38-7.82 4.2.12 7.17 3.23 7.48 7.7Zm-155.6 46.42c-6.93 1.3-13.86 2.67-20.79 4.1-3.28 12.6-6.51 24.95-9.79 36.99 5.41-.68 10.82-1.3 16.23-1.92.3-1.86.67-3.72.97-5.65 3.28-.43 6.57-.81 9.85-1.18.55 1.8 1.09 3.66 1.64 5.52 5.05-.5 10.03-.99 15.08-1.43.43-.06.85-.06 1.34-.12-.55-1.37-1.03-2.73-1.58-4.1a1435.64 1435.64 0 0 0-12.95-32.21Zm-10.64 16.39c.12-1.12.3-2.3.43-3.41l.36-3.72.73 3.48.73 3.29c.73 2.42 1.46 4.9 2.25 7.39-1.88.25-3.77.56-5.65.81.36-2.61.73-5.21 1.16-7.82Zm56.79-24.27c-1.28 6.95-2.55 13.84-3.83 20.67-2.13-6.45-4.26-12.79-6.45-19.05a865.45 865.45 0 0 0-21.16 3.6c.67 11.3 1.4 22.65 2.07 34.07.12 1.61.18 3.17.3 4.72.43-.06.85-.06 1.34-.12l13.62-1.12-.91-15.45c-.12-2.42-.24-4.22-.36-5.46-.06-.25-.24-1.43-.55-3.54a33.2 33.2 0 0 1-.36-2.61c.24.87.55 1.68.79 2.54.36 1.12.67 2.3 1.03 3.48.55 1.8 1.09 3.54 1.7 5.34 1.76 5.03 3.59 10.12 5.35 15.21 3.28-.25 6.57-.43 9.85-.62 1.03-5.46 2.07-10.92 3.1-16.45.3-1.74.67-3.48.97-5.21.12-.93.3-2.17.55-3.85.12-1.12.3-2.3.43-3.41 0 4.22-.06 5.71 0 7.51 0 1.68.06 3.48.18 5.52.3 5.15.61 10.36.85 15.58 5.05-.31 10.09-.56 15.14-.74l-2.37-43.63c-7.05.93-14.17 1.92-21.28 3.04Zm44.81 27.18c-.06-1.55-.18-3.17-.24-4.72l12.95-.74c-.18-3.85-.36-7.7-.61-11.54-4.32.31-8.63.62-12.95.99-.06-1.43-.18-2.92-.24-4.34 4.74-.43 9.42-.87 14.17-1.24-.24-4.34-.43-8.63-.67-12.97-9.97 1.06-19.88 2.23-29.85 3.54l2.37 44.19c10.09-.37 20.13-.68 30.22-.81-.24-4.34-.43-8.69-.67-12.97-4.74.12-9.61.37-14.47.62Zm52.17-8.07c2.13-1.49 2.8-2.17 3.95-3.91a16.7 16.7 0 0 0 2.86-10.3c-.24-5.21-3.04-10.36-7.05-12.72-3.71-2.17-6.99-2.67-13.98-2.05-6.69.56-13.32 1.18-20 1.86l2.37 47.42c5.23-.06 10.52-.06 15.75-.06l-.73-15.33c.85 0 1.76-.06 2.61-.06 2.37 5.09 4.74 10.24 7.11 15.45 5.59.06 11.13.12 16.72.25h1.22c-.43-.87-.91-1.74-1.34-2.54a693.8 693.8 0 0 0-9.49-18Zm-16.11-16.07c2.19-.12 2.86-.12 3.77.37 1.22.62 2.01 1.99 2.13 3.66.06 1.8-.73 3.54-2.01 4.1-.61.37-2.25.62-3.95.68-.43 0-.79.06-1.22.06-.12-2.92-.3-5.83-.43-8.75.55-.06 1.16-.06 1.7-.12Zm27.3-14.77c.73 15.89 1.46 31.84 2.25 47.79l.18 3.72c.43 0 .79 0 1.22.06 4.99.12 9.97.31 14.96.5l-2.37-53c-5.47.25-10.82.56-16.23.93Zm56.67 30.72c-2.61 4.41-5.47 6.27-9.06 6.14-4.86-.19-8.33-4.72-8.63-11.17-.3-6.52 2.86-10.8 7.97-10.8 3.34 0 6.26 1.49 9.3 4.97-.3-6.52-.55-13.03-.85-19.55-4.44-2.79-8.39-3.85-12.83-3.72-12.95.56-21.28 12.35-20.49 28.86.73 16.51 9.85 28.36 22.44 29.23 3.83.25 8.57-.81 11.49-2.48.12-.06.24-.12.36-.25.24-.25.67-.43 1.16-.87-.06-2.11-.18-4.22-.24-6.39-.24-4.59-.43-9.31-.61-13.96Zm33.5-33.33c-6.93-.06-13.86-.06-20.79 0-2.74 16.07-5.47 31.96-8.21 47.67-.55 3.1-1.09 6.14-1.58 9.25h.36c5.29.37 10.64.81 15.93 1.24.3-2.92.67-5.83.97-8.75l9.85.74 1.64 9.12c5.47.5 10.88 1.06 16.36 1.68A8318.8 8318.8 0 0 0 368.4 86.8Zm-9.18 17.38.73 5.46c.73 4.1 1.46 8.25 2.25 12.35-1.88-.12-3.77-.19-5.65-.31.36-4.03.79-8.07 1.16-12.16.12-1.8.3-3.54.43-5.34l.36-5.77.73 5.77Z" style="fill:#ee3124;stroke-width:0"/><path d="M306.63 63.33c0 .25.06.56.06.81-.97.06-1.95.19-2.92.31 0-.25-.06-.56-.06-.81.24 0 .49-.06.79-.06l-.36-.81-1.58.19c-.06.31-.18.56-.24.87.24 0 .55-.06.79-.06 0 .25.06.56.06.81-.85.12-1.76.19-2.61.31 0-.25-.06-.56-.06-.81.24 0 .49-.06.73-.06.3-1.12.61-2.17.85-3.29-.24.06-.55.06-.79.12 0-.25-.06-.56-.06-.81l3.95-.56c0 .25.06.56.06.81-.24.06-.55.06-.79.12.49.99 1.03 2.05 1.52 3.1.18-.12.43-.19.67-.19Zm-2.8-1.24c-.18-.43-.43-.93-.61-1.37-.12.5-.3.99-.43 1.49.3-.06.67-.12 1.03-.12Zm3.1 2.05c0-.25-.06-.56-.06-.81.3 0 .55-.06.85-.06a60.63 60.63 0 0 0-.24-3.29c-.3.06-.55.06-.85.12 0-.25-.06-.56-.06-.81l3.34-.37c0 .31.06.56.06.87-.3 0-.61.06-.91.06l.18 3.29c.61-.06 1.16-.12 1.76-.12 0-.5-.06-1.06-.06-1.55.36-.06.79-.06 1.16-.12.06.81.06 1.61.12 2.42-1.7.06-3.53.19-5.29.37Zm5.65-.43c0-.31 0-.56-.06-.87.3 0 .55-.06.85-.06-.06-1.12-.12-2.23-.12-3.41-.3 0-.61.06-.85.06 0-.31 0-.56-.06-.87a62.5 62.5 0 0 1 3.34-.25v.87c-.3 0-.61.06-.91.06.06 1.12.06 2.3.12 3.41.61-.06 1.16-.06 1.76-.06 0-.56-.06-1.06-.06-1.61.36 0 .79-.06 1.16-.06 0 .81.06 1.68.06 2.48-1.64.12-3.4.19-5.23.31Zm8.09-.37v-1.8c.36 0 .67 0 1.03-.06 0 .31.12.56.3.74.18.12.36.25.61.25.18 0 .36-.06.49-.19s.18-.25.18-.43-.06-.31-.18-.43-.36-.25-.67-.37a4.25 4.25 0 0 1-1.4-.74c-.24-.25-.36-.5-.36-.93s.18-.81.49-1.12c.3-.25.73-.43 1.16-.43.49 0 .85.12 1.16.43v-.43c.36 0 .67 0 1.03-.06v1.68h-1.03c-.06-.25-.12-.43-.3-.56-.18-.12-.36-.19-.55-.19s-.3.06-.43.12-.18.19-.18.31.06.19.12.31c.12.12.36.25.85.37.43.19.79.31 1.03.43s.43.31.55.56.18.5.18.81c0 .56-.18.93-.49 1.24-.36.25-.73.43-1.22.43a1.6 1.6 0 0 1-1.22-.5v.43c-.49.12-.85.12-1.16.12Zm5.53-.06v-.93h.91c0-1.24 0-2.42.06-3.66h-.91v1.3h-1.03v-2.17c1.82-.06 3.65-.12 5.53-.12 0 .74-.06 1.49-.06 2.23h-1.03v-1.3h-.91c0 1.24-.06 2.48-.06 3.66h.91v.93c-1.22.12-2.31.06-3.4.06Zm10.52-.68c0 .31 0 .62-.06.99-.97-.06-1.95-.06-2.92-.12 0-.31 0-.62.06-.99h.79c-.06-.31-.18-.68-.24-.99-.55 0-1.03 0-1.58-.06-.12.31-.24.62-.36.99h.79c0 .31 0 .62-.06.93-.85 0-1.76-.06-2.61-.06v-.93h.73l1.28-3.72h-.79v-.93h3.95c0 .31 0 .62-.06.99h-.79l1.09 3.85c.3.06.55.06.79.06Zm-2.61-1.92c-.12-.56-.3-1.18-.43-1.74-.18.56-.43 1.12-.61 1.68.3.06.67.06 1.03.06Zm9 2.3c0 .31-.06.68-.06.99-.61-.06-1.22-.12-1.82-.12-.36-.87-.79-1.8-1.22-2.67-.24 0-.49 0-.67-.06 0 .5-.06 1.06-.06 1.55a3 3 0 0 1 .73.06c0 .31-.06.68-.06.99l-3.1-.19c0-.31 0-.62.06-.99.24 0 .55 0 .79.06l.18-3.85h-.85c0-.31.06-.68.06-.99 1.22 0 2.43.06 3.65.12.67 0 1.16.25 1.46.56.3.37.43.74.36 1.18-.06.68-.43 1.12-1.16 1.43.3.62.55 1.24.85 1.86.36.06.61.06.85.06Zm-3.71-2.73h.55c.67.06 1.03-.19 1.03-.62 0-.25-.06-.43-.18-.5-.12-.12-.36-.19-.61-.19h-.67c-.06.37-.06.81-.12 1.3Zm6.08 3.97c0-.31.06-.68.06-.99.24 0 .49.06.73.06.12-1.37.24-2.67.3-4.03-.24 0-.49-.06-.73-.06 0-.31.06-.68.06-.99l2.74.19c.61.06 1.03.12 1.34.19.3.12.55.31.73.62s.24.62.24.99c-.06.62-.36.99-.97 1.18.67.37.97.87.91 1.61a1.63 1.63 0 0 1-1.34 1.49c-.36.06-.85.06-1.46 0-.79-.06-1.7-.19-2.61-.25Zm2.37-.81c.12 0 .3 0 .43.06.36.06.67 0 .85-.06.18-.12.24-.31.3-.62 0-.31-.06-.56-.18-.68a1.37 1.37 0 0 0-.79-.25c-.12 0-.3 0-.43-.06-.12.5-.12 1.06-.18 1.61Zm.24-2.67c.12 0 .3 0 .43.06.3 0 .55 0 .67-.12.18-.06.24-.25.24-.56 0-.25 0-.43-.18-.56-.12-.12-.36-.19-.73-.19h-.36c0 .43-.06.93-.06 1.37Zm7.6-1.86c1.03.12 1.82.5 2.31 1.24.49.68.73 1.55.61 2.42a3.06 3.06 0 0 1-1.16 2.17c-.67.56-1.52.74-2.49.62a3.05 3.05 0 0 1-2.31-1.3 3.22 3.22 0 0 1-.61-2.36c.12-.87.49-1.61 1.09-2.17.67-.5 1.52-.68 2.55-.62Zm-.12 1.18c-.49-.06-.85.06-1.22.43-.36.31-.61.81-.67 1.55-.06.62.06 1.12.3 1.55s.61.62 1.09.68c.43.06.85-.06 1.22-.37s.61-.81.67-1.49c.06-.62 0-1.12-.3-1.55-.24-.5-.61-.74-1.09-.81Zm3.28 5.83c.06-.37.12-.74.12-1.06.24.06.55.06.79.12l.55-4.22c-.24-.06-.55-.06-.79-.12.06-.37.12-.74.12-1.06.85.12 1.7.25 2.55.31a95.35 95.35 0 0 1 1.58 4.41c.12-.99.3-1.99.43-2.98-.24-.06-.55-.06-.79-.12l.18-1.12c.91.12 1.76.25 2.68.43l-.18 1.12c-.3-.06-.55-.06-.85-.12-.3 1.8-.55 3.66-.85 5.46-.43-.06-.85-.19-1.28-.25-.61-1.74-1.22-3.48-1.88-5.21-.18 1.24-.3 2.42-.49 3.66.24.06.49.06.73.12-.06.37-.12.74-.12 1.12-.73-.25-1.64-.37-2.49-.5Zm7.6-4.34.18-1.12c.97.12 1.88.31 2.86.5l-.18 1.12c-.18-.06-.36-.06-.61-.12-.18.99-.3 1.99-.49 2.98-.06.37-.12.68-.12.87s.06.37.18.5.24.25.43.25c.18.06.36 0 .55-.06a.64.64 0 0 0 .3-.37c.06-.12.12-.5.24-.99.18-.99.3-1.92.49-2.92-.18-.06-.36-.06-.55-.12l.18-1.12c.79.12 1.58.31 2.37.43l-.18 1.12c-.24-.06-.49-.06-.73-.12a56.13 56.13 0 0 1-.85 4.34c-.18.49-.59.84-1.09.93-.3.06-.67.06-1.03 0a2.28 2.28 0 0 1-1.03-.43 1.71 1.71 0 0 1-.79-1.42c0-.24.06-.62.12-1.18.18-.99.3-1.99.49-2.98-.24.06-.49 0-.73-.06Zm5.17 6.7c.12-.74.24-1.55.43-2.3l.97.19c-.06.43 0 .74.12.99s.3.37.55.43c.18.06.36 0 .49-.12s.24-.25.3-.5c.06-.19 0-.37-.06-.56-.12-.19-.3-.37-.55-.62a4.8 4.8 0 0 1-1.22-1.3 2.01 2.01 0 0 1-.18-1.24c.12-.56.36-.99.73-1.24.36-.25.79-.37 1.22-.25.49.12.79.37.97.87.06-.19.06-.37.12-.56.36.06.67.12.97.19-.12.68-.24 1.37-.43 2.05l-.97-.19c0-.31 0-.62-.12-.81s-.3-.31-.49-.37-.3 0-.43.06-.24.19-.24.37c0 .12 0 .31.06.43s.3.37.73.68c.36.31.67.56.91.81.18.25.36.5.43.81.06.31.06.68 0 1.06-.12.68-.36 1.12-.79 1.43-.43.25-.79.31-1.28.25a1.4 1.4 0 0 1-1.03-.93c-.06.19-.06.37-.12.56-.43 0-.73-.12-1.09-.19Zm-269.29 40.94c.3-.06.61-.12.85-.19.12-1.18.24-2.42.24-3.6-2.07.37-4.07.68-6.08 1.06-.18.06-.36.06-.55.06a3.1 3.1 0 0 1-3.1-3.04c-.06-1.06-.06-2.11-.12-3.17-3.4 9.74-11.67 17.81-22.5 22.1l6.63 20.79-23.41-17.32c-.55 0-1.09.06-1.64.06a59.9 59.9 0 0 1-3.28-.12L25.9 143.26l6.81-21.41c-12.53-5.52-21.34-16.2-22.5-28.61l-.36-.25h.3c-.06-.81-.12-1.68-.12-2.48 0-19.61 19.09-35.5 42.56-35.5 18.42 0 34.05 9.74 40.01 23.34-.12-2.42-.18-4.84-.3-7.32a51.19 51.19 0 0 0-40.62-20.17C23.14 50.85 0 74.47 0 103.61s23.14 52.76 51.68 52.76c17.02 0 32.1-8.44 41.53-21.41 2.01-7.57 4.01-15.21 6.02-22.9a4.3 4.3 0 0 1 3.1-2.86Z" style="fill:#0076be;stroke-width:0"/><path d="M49.37 125.77c1.09.06 2.19.12 3.28.12.55 0 1.09 0 1.64-.06l-2.49-1.86-2.43 1.8Zm43.9-32.52-25.48 18.93 3.28 10.3c10.82-4.34 19.09-12.35 22.5-22.1-.06-2.42-.18-4.78-.3-7.14ZM32.71 121.8l3.04-9.62-25.54-18.93c1.16 12.35 9.97 22.96 22.5 28.55Zm60.01-43.51C86.76 64.7 71.07 54.95 52.71 54.95c-23.53 0-42.56 15.89-42.56 35.5 0 .87.06 1.68.12 2.48h31.68l9.91-31.09 9.91 31.09h31.62c-.3-4.84-.49-9.74-.67-14.65Zm-16.9-7.01c-7.42-6.02-16.72-7.45-16.78-7.45l.85-6.33c.43.06 11.07 1.61 19.82 8.81l-3.89 4.97Z" style="fill:#009ada;stroke-width:0"/><path d="M59.04 63.82c.12 0 9.36 1.43 16.84 7.45l3.89-4.97c-8.82-7.14-19.4-8.75-19.82-8.81l-.91 6.33Z" style="stroke-width:0;fill:#7dcef1"/><path d="m51.8 61.84 9.85 31.09h32.04l-25.9 19.18 9.91 31.09-25.9-19.18-25.9 19.18 9.85-31.09-25.9-19.18h32.04l9.91-31.09Z" class="cls-3"/><path d="M118.97 31.11c-2.88-.14-4.81-2.57-4.81-6.05 0-3.78 2.42-8.29 5.76-10.74a6.68 6.68 0 0 1 3.86-1.49h.26l.21.13a7.92 7.92 0 0 1 2.08 2.16l.19-.01c2.53 0 2.53 2.88 2.53 3.83a12.5 12.5 0 0 1-9.89 12.14l-.1.02h-.1Zm6.06-13.6a9.05 9.05 0 0 0-3.65 2.95c-1.41 1.94-2.52 4.72-2.52 6.3 0 .65.19 1.23.33 1.52 3.47-.97 5.94-4.87 5.94-9.45 0-.64-.04-1.04-.1-1.33Z" class="cls-5"/><path d="M123.82 13.59c.87.61 1.6 1.41 2.11 2.34.17 0 .44-.06.59-.06 1.25 0 1.78.96 1.78 3.08a11.68 11.68 0 0 1-9.3 11.41c-2.48-.12-4.1-2.25-4.1-5.3 0-3.6 2.32-7.83 5.45-10.14a5.9 5.9 0 0 1 3.46-1.35m-5.71 13.19c0 1.07.44 2.25.86 2.34 3.99-.85 6.91-5.06 6.91-10.27 0-1.18-.11-1.76-.44-2.25-1.95.51-3.51 1.98-4.65 3.41-1.5 2.08-2.69 5-2.69 6.77m6.15-14.71-.52.03a7.45 7.45 0 0 0-4.3 1.66c-3.55 2.62-6.03 7.27-6.03 11.32s2.22 6.63 5.52 6.79h.2l.19-.03a13.24 13.24 0 0 0 10.48-12.88c0-3.62-1.63-4.5-3.08-4.57a8.5 8.5 0 0 0-2.04-2.02l-.42-.3Zm-2.27 8.85a9.61 9.61 0 0 1 2.39-2.23v.16c0 3.94-1.93 7.32-4.72 8.49a3.24 3.24 0 0 1-.05-.56c0-1.42 1.07-4.04 2.38-5.86Z" class="cls-3"/><path d="M131.01 31.19c-1.09-.07-2.94-1.38-3.37-2.22l-.13-.25.07-.27a96.9 96.9 0 0 1 4.13-12.62 7.83 7.83 0 0 1 1.65-2.83l.27-.3.4.06a7 7 0 0 1 3.74 1.78l.55.5-.5.55c-.62.69-1.11 1.47-1.59 2.46a35.85 35.85 0 0 0 3.24-3.83l.08-.11.12-.07c.29-.19.63-.29.98-.29h.14c.69 0 1.37.24 1.91.68l.44.35-.21.52a7.14 7.14 0 0 0-.53 2.85c-.05.69.07 1.31.35 1.86l.17.32-.15.33a6.1 6.1 0 0 1-1.55 2.08l-.39.33-.45-.24a6.1 6.1 0 0 1-2.59-2.56c-3.54 2.63-4.82 4.93-5.97 10.31l-.13.63-.65-.04Z" class="cls-5"/><path d="M133.91 13.5c1.25.18 2.42.74 3.34 1.59-1.25 1.38-2 3.08-3.03 5.88a38.64 38.64 0 0 0 5.84-6.29c.17-.11.37-.17.57-.17h.12c.53 0 1.05.18 1.46.51a7.9 7.9 0 0 0-.59 3.15c-.06.76.09 1.52.44 2.19-.31.7-.78 1.31-1.36 1.81a5.45 5.45 0 0 1-2.63-3.05c-4.2 2.94-5.72 5.22-7.02 11.3a4.97 4.97 0 0 1-2.75-1.81 95.39 95.39 0 0 1 4.1-12.52c.31-.96.83-1.85 1.51-2.61m-.58-1.6-.54.6a8.7 8.7 0 0 0-1.8 3.1 97.15 97.15 0 0 0-4.14 12.67l-.14.55.26.5c.54 1.05 2.61 2.54 3.99 2.62l1.29.08.27-1.27c1.04-4.87 2.13-7.05 5.04-9.37a7.01 7.01 0 0 0 2.45 2.13l.9.47.77-.66a6.7 6.7 0 0 0 1.75-2.34l.3-.66-.33-.64c-.22-.43-.32-.9-.27-1.38v-.16c-.02-.88.14-1.74.48-2.56l.42-1.04-.87-.7a3.87 3.87 0 0 0-2.4-.84h-.12c-.49 0-.97.14-1.38.41l-.23.15-.16.22-.33.44-.26-.24a7.74 7.74 0 0 0-4.14-1.97l-.8-.12Z" class="cls-3"/><path d="M147.01 31.6c-2.44-.06-5.54-2.08-5.54-4.27s1.03-6 2.61-9.97l-.72.05h-.5l-.25-.46a6.3 6.3 0 0 1-.5-2.18l-.04-.82.82.04 1.44.08c.43.03.83.06 1.2.07 1.17-2.18 3.1-5.19 4.14-5.77l.17-.09h.19c.9 0 3.46.6 4.12 1.55l.33.47-.36.44a31.72 31.72 0 0 0-2.53 3.55l1.38-.07.35-.02.24.26c.36.38.57.87.59 1.39l.02.56-.53.18c-1.22.41-2.5.64-3.79.67-2.02 3.99-3.27 7.99-3.27 10.52 0 .63.24.82.41.89a5.76 5.76 0 0 0 2.96-1.25l.64-.52.46.69.17.31.03.06.43.36-.33.55c-.61 1.02-3.31 2.68-4.26 2.75h-.08Z" class="cls-5"/><path d="M150.04 9.03c.92 0 3.09.63 3.51 1.23a34.85 34.85 0 0 0-3.29 4.8c.86 0 1.84-.05 2.76-.11.23.25.37.57.39.91-1.24.42-2.55.63-3.86.63h-.14c-2.22 4.26-3.56 8.54-3.56 11.27 0 .96.44 1.48 1.09 1.65a6.54 6.54 0 0 0 3.51-1.43c.11.16.17.38.28.47-.48.8-2.98 2.34-3.67 2.39-2.22-.06-4.81-1.92-4.81-3.52 0-2.19 1.25-6.62 2.98-10.72h-1.84v.06h-.05a5.54 5.54 0 0 1-.44-1.92c1.19.05 2.28.16 3.12.16 1.36-2.61 3.28-5.45 4.06-5.88m0-1.5h-.39l-.34.19c-1.26.7-3.18 3.81-4.21 5.66l-.72-.05-1.46-.09-1.64-.07.08 1.64c.04.84.23 1.66.56 2.44l.39.91h.65c-1.22 3.26-2.25 6.93-2.25 9.16 0 2.62 3.45 4.95 6.28 5.02h.16c1.25-.1 4.15-1.97 4.84-3.12l.66-1.09-.79-.67a1.92 1.92 0 0 0-.18-.31l-.92-1.38-1.28 1.04c-.63.51-1.36.86-2.15 1.02v-.07c0-2.34 1.14-6.03 3-9.79 1.21-.07 2.4-.3 3.55-.69l1.07-.36-.05-1.13a2.9 2.9 0 0 0-.79-1.87l-.48-.51-.6.04c.53-.77 1.09-1.52 1.68-2.24l.72-.88-.65-.93c-.87-1.23-3.71-1.87-4.74-1.87Z" class="cls-3"/><path d="M152.29 31.49c-1.14 0-1.74-2.32-1.78-2.82-.22-3.03 1.06-8.39 3.26-13.68a46.96 46.96 0 0 1 7.98-13.04l.22-.26h.34c1.57 0 3.81.85 4.71 1.78l.51.53-.52.52c-3.4 3.4-6.07 6.81-7.52 9.61a37.18 37.18 0 0 0-2.37 5.08c3.27-3.59 5.79-5.34 7.65-5.34 1.38 0 3.03.9 4.21 2.29l.43.51-.46.49c-2.56 2.73-5.62 8.06-5.95 9.87.21-.04.43-.1.64-.18l.63-.25.31.6.15.26c.09.14.21.32.21.59 0 1.16-3.53 2.2-3.95 2.2-1.32 0-2.57-1.35-2.57-2.78 0-1.29 1.25-4.46 2.73-7.61-2.88 2.44-5.9 6.64-7.59 10.61-.17.44-.54.8-1.02.98l-.12.04h-.13Z" class="cls-5"/><path d="M162.32 2.44c1.39 0 3.42.77 4.17 1.55-3.31 3.31-6.09 6.78-7.65 9.79a36.87 36.87 0 0 0-3.53 8.7c4.27-5.23 7.49-7.87 9.47-7.87 1.18 0 2.62.83 3.64 2.03-2.72 2.9-6.18 8.91-6.18 10.67 0 .42.11.5.52.5.41-.03.8-.11 1.18-.26.16.31.27.42.27.5 0 .32-2.58 1.45-3.2 1.45-.91 0-1.82-1.04-1.82-2.03 0-1.25 1.6-5.29 3.74-9.53 0-.05-.11-.11-.11-.11-.47.2-.9.46-1.29.78-3.15 2.3-6.7 6.98-8.65 11.57a.95.95 0 0 1-.58.56c-.33 0-.97-1.39-1.03-2.13-.22-3.02 1.13-8.36 3.2-13.32 1.89-4.66 4.54-9 7.86-12.84m0-1.5h-.69l-.45.52a48.14 48.14 0 0 0-8.11 13.26c-2.27 5.45-3.54 10.82-3.31 14 0 .05.53 3.52 2.53 3.52h.26l.24-.09a2.5 2.5 0 0 0 1.47-1.41 31.6 31.6 0 0 1 4.58-7.44c-.69 1.75-1.16 3.29-1.16 4.16 0 1.85 1.58 3.53 3.32 3.53.28 0 4.7-.95 4.7-2.95 0-.48-.21-.81-.32-.99l-.12-.21-.63-1.2-.4.16a33.31 33.31 0 0 1 5.28-8.14l.92-.98-.87-1.02c-1.34-1.58-3.17-2.56-4.78-2.56-1.06 0-2.65.38-5.36 2.77.23-.46.47-.91.73-1.36v-.02l.03-.02c1.41-2.73 4.03-6.07 7.38-9.42l1.04-1.04-1.02-1.06c-1.05-1.09-3.45-2.01-5.25-2.01Z" class="cls-3"/><path d="M202.4 30.5c-2.04-.07-3.41-1.94-3.41-4.66 0-5.15 5.03-12.09 8.96-12.39h.14l.13.03a5.9 5.9 0 0 1 2.58 2.2l.29-.62.58.12s3.03.67 3.03 2.03v.18l-.08.16c-1.74 3.48-2.9 7.21-2.9 9.28 0 1.06.24 1.56.44 1.67l1.25.66-1.25.67c-.77.41-1.63.64-2.5.65-1.17 0-2.56-.55-2.56-3.19l.02-.26c-1.45 1.86-3.09 3.26-4.59 3.47h-.13Zm7.39-12.81c-2.94 1.1-6.26 5.78-6.34 9.2 1.03-.57 2.47-2.4 4.28-5.45.32-.55 1.19-2.08 2.06-3.76Z" class="cls-5"/><path d="M208 14.2c.9.27 2.31 1.77 2.47 2.54-3.55.5-7.79 6.24-7.79 10.29-.04.33.15.65.47.78 1.27-.27 2.9-2.08 5.21-5.97.9-1.56 2.22-3.96 3.15-5.92.97.2 2.43.87 2.43 1.29-1.79 3.59-2.98 7.44-2.98 9.62 0 1.2.27 2.03.84 2.33-.67.36-1.41.55-2.17.57-1.22 0-1.79-.78-1.79-2.44.12-1.74.55-3.44 1.27-5.04-1.79 3.95-4.69 7.23-6.69 7.51-1.63-.06-2.69-1.66-2.69-3.91 0-4.84 4.75-11.38 8.27-11.64m.16-1.52-.27.02c-4.33.33-9.66 7.57-9.66 13.14 0 3.1 1.7 5.33 4.14 5.41h.13l.13-.01c1.31-.18 2.66-1.1 3.9-2.39.57 2.11 2.29 2.37 3.1 2.37a6.4 6.4 0 0 0 2.87-.74l2.5-1.34-2.41-1.26a2.76 2.76 0 0 1-.14-1.06c0-1.93 1.16-5.61 2.82-8.95l.16-.32v-.35c0-2.01-3.48-2.73-3.63-2.76l-1.15-.23-.03.06a5.51 5.51 0 0 0-2.2-1.51l-.26-.08Zm-3.49 11.98c.61-1.62 1.71-3.3 2.93-4.55l-.55.97a35.14 35.14 0 0 1-2.38 3.58Z" class="cls-3"/><path d="M225.46 33.8c-1.51 0-2.73-1.28-3.73-3.92a47.85 47.85 0 0 1-1.82-7.28l-.08-.45.36-.27c.88-.66 1.71-1.39 2.48-2.17 1.47-1.44 2.34-2.68 2.59-3.7-1.42.58-4 3.29-6.28 7.33a15.21 15.21 0 0 0-1.68 6.39c0 .16.04.38.09.59l.22.93h-.96a2.7 2.7 0 0 1-1.78-.72l-.1-.09-.06-.12a2.3 2.3 0 0 0-.64-.81c-.62-.47-.9-1.56-.9-3.5.1-5.31 8.17-22.65 11.68-25.09l.22-.16.27.02c1.6.14 3.71 2.49 3.71 4.13v.36l-.28.23c-2.65 2.14-5.54 6.16-7.74 10.59 1.92-2.02 3.87-3.17 5.62-3.24h.25l.21.13a4 4 0 0 1 1.73 3.46c0 2.8-2.19 5.92-4.78 6.97.74 2.23 2.27 5.56 5.1 7.18l.6.34-.29.62c-.59 1.25-2.35 2.23-4.02 2.23Z" class="cls-5"/><path d="M225.3 1.54c1.22.11 3.03 2.18 3.03 3.38-3.93 3.17-8.28 10.28-10.37 16.73 2.78-4.88 6.13-7.94 8.75-8.05a3.26 3.26 0 0 1 1.41 2.81c0 2.81-2.46 5.92-4.97 6.52.89 3.02 2.62 6.57 5.66 8.32-.42.9-1.89 1.8-3.34 1.8-1.21 0-2.21-1.28-3.03-3.44a47.47 47.47 0 0 1-1.78-7.14c.9-.68 1.76-1.43 2.56-2.23 1.89-1.85 2.89-3.44 2.89-4.82a.35.35 0 0 0-.35-.27h-.03c-1.72.06-4.88 3.39-7.39 7.83a15.93 15.93 0 0 0-1.78 6.73c0 .27.05.53.11.8a1.9 1.9 0 0 1-1.27-.51c-.2-.41-.48-.77-.84-1.06-.42-.33-.62-1.33-.62-2.92.09-4.98 8.1-22.21 11.36-24.47m-.41-1.54-.45.31c-3.6 2.5-11.9 20.26-12 25.68 0 2.25.36 3.48 1.2 4.13.15.12.3.31.4.53l.12.25.2.19c.62.59 1.43.91 2.28.92h1.9l-.43-1.84c-.03-.15-.06-.3-.07-.46.08-1.92.56-3.83 1.38-5.56.4 2.01.93 4 1.58 5.94v.03l.02.03c.41 1.09 1.67 4.41 4.43 4.41 1.94 0 4-1.17 4.7-2.66l.59-1.25-1.2-.69c-2.37-1.36-3.77-4.07-4.54-6.14 2.57-1.37 4.59-4.45 4.6-7.36a4.74 4.74 0 0 0-2.06-4.08l-.41-.28-.49.02a6.8 6.8 0 0 0-3.06.98c1.8-2.96 3.82-5.5 5.68-7l.56-.45v-.72c0-2.01-2.42-4.7-4.39-4.88l-.54-.05Z" class="cls-3"/><path d="M233.03 31.07c-2.83-.14-4.8-2.62-4.8-6.02 0-3.76 2.42-8.26 5.75-10.69a6.6 6.6 0 0 1 3.84-1.48h.26l.21.13a7.88 7.88 0 0 1 2.08 2.15l.19-.01c2.53 0 2.53 2.87 2.53 3.82a12.46 12.46 0 0 1-9.87 12.09l-.1.02h-.1Zm6.03-13.56a8.99 8.99 0 0 0-3.64 2.93c-1.4 1.97-2.51 4.75-2.51 6.3 0 .64.18 1.22.33 1.51 3.51-.96 5.92-4.78 5.92-9.43 0-.63-.04-1.03-.1-1.31Z" class="cls-5"/><path d="M237.88 13.63a7.13 7.13 0 0 1 2.11 2.33c.17 0 .44-.06.59-.06 1.25 0 1.78.96 1.78 3.07a11.63 11.63 0 0 1-9.28 11.35c-2.42-.12-4.09-2.24-4.09-5.27 0-3.58 2.31-7.8 5.45-10.09a5.93 5.93 0 0 1 3.44-1.34m-4.86 15.45c3.99-.85 6.89-5.03 6.89-10.25 0-1.17-.11-1.75-.44-2.23-1.95.51-3.51 1.96-4.64 3.39-1.49 2.1-2.67 5-2.67 6.77 0 1.07.44 2.24.86 2.33m5.29-16.98-.52.03a7.42 7.42 0 0 0-4.28 1.65c-3.55 2.61-6.03 7.24-6.03 11.27 0 3.82 2.27 6.6 5.51 6.77h.2l.19-.03a13.2 13.2 0 0 0 10.47-12.82c0-3.6-1.63-4.49-3.08-4.56a8.47 8.47 0 0 0-2.04-2.01l-.42-.3Zm-2.28 8.78a9.42 9.42 0 0 1 2.38-2.2v.15c0 4-1.89 7.32-4.7 8.48a3.21 3.21 0 0 1-.05-.55c0-1.38 1.06-4 2.37-5.87Z" class="cls-3"/><path d="M96.73 32.76c-2.42-.81-3.78-1.36-3.78-3.17 0-4.33 6.17-19.16 9.07-23.54l-.23-1.96h.84c1.23 0 5.47 1.4 5.85 2.64l.05.15-.02.16a46.47 46.47 0 0 0-.36 5.78c0 3.4.12 7.03.84 10.88 1.39-6.22 4.57-19.03 7.18-19.37h.22c1.27.22 2.83 1.51 3.49 2.57l.47.76-.83.33c-3.69 1.47-8.14 18.6-7.56 24.04l.08.78-.78.05-.86.03h-.27c-1.86 0-4.18-.48-4.95-1.83l-.05-.09-.03-.1a95.95 95.95 0 0 1-2.65-18c-1.96 5.31-4.81 13.66-4.81 17.8-.02.52 0 .84.08 1.24l.24 1.26-1.22-.41Z" class="cls-5"/><path d="M102.63 4.83c1.25 0 4.93 1.45 5.13 2.11a50.14 50.14 0 0 0-.37 5.87c0 4.87.28 9.47 1.62 14.32 2.17-10.81 5.52-21.84 7.25-22.07a5.46 5.46 0 0 1 2.98 2.23c-4.33 1.72-8.59 19.49-8.03 24.81l-.81.03h-.2c-2.01 0-3.84-.52-4.38-1.46a96.48 96.48 0 0 1-2.76-21.6c-1.72 4.51-6.19 16.24-6.19 21.59-.02.5 0 .88.09 1.38-2.54-.85-3.27-1.26-3.27-2.46 0-4.05 6.16-19.15 9.09-23.35l-.16-1.4m0-1.5h-1.68l.19 1.67.1.86c-3.06 4.8-9.04 19.27-9.04 23.73 0 2.44 2.09 3.14 4.29 3.88l2.44.82-.49-2.52c-.07-.35-.08-.6-.07-1.04v-.06c0-3.25 1.84-9.25 3.57-14.21a98.56 98.56 0 0 0 2.42 14.58l.05.21.11.18c1.16 2.02 4.54 2.2 5.63 2.21h.25c.2 0 .51 0 .91-.04l1.56-.1-.17-1.56c-.6-5.7 3.94-22.01 7.09-23.26l1.66-.66-.94-1.52c-.74-1.2-2.48-2.66-4.01-2.92l-.22-.04-.22.03c-1.11.14-2.39.89-4.7 8.09-.74 2.31-1.5 5.03-2.21 7.92a68.94 68.94 0 0 1-.27-6.78c0-1.89.13-3.81.36-5.69l.04-.32-.09-.31c-.56-1.82-5.4-3.17-6.56-3.17Z" class="cls-3"/><path d="M248.39 31.32c-2.39-.06-5.42-2.04-5.42-4.18s1-5.84 2.53-9.69l-.67.05h-.5l-.27-.46a6.23 6.23 0 0 1-.48-2.12l-.04-.82.82.04 1.4.08 1.17.07c1.15-2.13 3.03-5.06 4.04-5.62l.17-.09h.19c.88 0 3.38.59 4.03 1.52l.33.46-.36.44a32.6 32.6 0 0 0-2.43 3.42l1.31-.07.35-.02.24.25c.35.37.56.86.58 1.37l.03.56-.54.18c-1.19.4-2.43.62-3.68.65-1.97 3.88-3.18 7.77-3.18 10.23 0 .59.22.78.38.84a5.51 5.51 0 0 0 2.87-1.22l.64-.52.46.69.17.3.02.05.43.36-.33.55c-.6 1-3.24 2.62-4.16 2.69h-.08Z" class="cls-5"/><path d="M251.33 9.31c.89 0 3.01.62 3.42 1.2a32.95 32.95 0 0 0-3.18 4.68c.84 0 1.79-.05 2.69-.11.23.24.36.56.38.89-1.21.41-2.48.62-3.77.62h-.14c-2.17 4.15-3.47 8.32-3.47 10.98 0 .94.43 1.45 1.05 1.61a6.3 6.3 0 0 0 3.42-1.4c.11.16.16.37.27.46-.47.78-2.9 2.28-3.58 2.33-2.17-.06-4.69-1.87-4.69-3.43 0-2.14 1.22-6.45 2.9-10.45h-1.79v.06h-.08a5.79 5.79 0 0 1-.43-1.87c1.16.05 2.22.16 3.04.16 1.33-2.55 3.2-5.31 3.96-5.73m0-1.5h-.39l-.34.19c-1.23.68-3.09 3.7-4.11 5.51l-.69-.04-1.42-.08-1.65-.07.08 1.65c.04.82.22 1.62.54 2.38l.39.92h.64c-1.18 3.17-2.17 6.73-2.17 8.89 0 2.57 3.38 4.86 6.15 4.93h.16c1.23-.1 4.07-1.93 4.74-3.05l.66-1.09-.79-.67-.17-.3-.92-1.38-1.28 1.04c-.59.48-1.29.82-2.03.98v-.02c0-2.27 1.1-5.85 2.91-9.5 1.17-.07 2.33-.29 3.45-.67l1.07-.36-.05-1.13a2.9 2.9 0 0 0-.78-1.85l-.48-.51-.53.03c.5-.73 1.03-1.44 1.58-2.12l.72-.88-.65-.93c-.9-1.29-3.84-1.84-4.65-1.84Z" class="cls-3"/><path d="M255.3 30.5c-2.04-.07-3.41-1.94-3.41-4.66 0-5.15 5.03-12.09 8.96-12.39h.14l.13.03a5.84 5.84 0 0 1 2.58 2.2l.29-.62.57.12c.48.1 2.39.63 2.91 1.45.15.24.2.51.13.76l-.02.08-.04.07c-1.75 3.51-2.93 7.24-2.93 9.28 0 1.06.24 1.56.44 1.67l1.26.66-1.25.67c-.77.41-1.65.64-2.53.65-1.17 0-2.55-.55-2.55-3.19l.02-.24c-1.44 1.85-3.09 3.25-4.58 3.45h-.13Zm7.38-12.81c-2.94 1.1-6.26 5.78-6.34 9.21 1.03-.57 2.47-2.4 4.28-5.45.32-.55 1.19-2.09 2.06-3.76Z" class="cls-5"/><path d="M260.91 14.2c.9.27 2.31 1.77 2.47 2.54-3.55.5-7.79 6.24-7.79 10.29-.04.33.15.65.47.78 1.27-.27 2.9-2.08 5.21-5.97a98.1 98.1 0 0 0 3.15-5.92c.97.2 2.57.87 2.46 1.29-1.79 3.59-3.01 7.44-3.01 9.62 0 1.2.27 2.03.84 2.33-.67.36-1.42.55-2.19.57-1.22 0-1.79-.78-1.79-2.44.12-1.73.55-3.42 1.27-5l.02-.03-.02.03c-1.79 3.94-4.68 7.19-6.68 7.47-1.63-.06-2.69-1.66-2.69-3.91 0-4.84 4.75-11.38 8.27-11.64m.16-1.52-.27.02c-4.33.33-9.66 7.57-9.66 13.14 0 3.1 1.7 5.33 4.14 5.41h.13l.13-.01c1.3-.18 2.65-1.1 3.89-2.38.57 2.1 2.28 2.36 3.1 2.36a6.4 6.4 0 0 0 2.89-.74l2.5-1.33-2.41-1.26a2.76 2.76 0 0 1-.14-1.06c0-1.9 1.17-5.58 2.85-8.95l.07-.14.04-.16c.11-.45.03-.93-.23-1.35-.79-1.25-3.37-1.78-3.39-1.79l-1.15-.23-.03.06a5.41 5.41 0 0 0-2.2-1.51l-.26-.08Zm-3.49 11.99a13.73 13.73 0 0 1 2.94-4.56l-.55.98a34.86 34.86 0 0 1-2.39 3.58Z" class="cls-3"/><path d="M184.93 32.62c-4.01 0-6.94-1.57-8.46-4.55l-.17-.32.15-.33A383.5 383.5 0 0 0 183.7 9.5a9.89 9.89 0 0 0-3.91 5.49l-.23.76-.75-.28a4.37 4.37 0 0 1-2.78-3.11l-.04-.16.04-.16c.97-4.36 5.56-7.17 11.7-7.17 7.74 0 13.15 4.57 13.15 11.1 0 8.87-7.45 16.65-15.94 16.65Zm-3.08-4.51c.58.1 1.16.16 1.75.16 7.03 0 12.91-6.44 12.91-14.06 0-3.9-2.75-6.23-7.36-6.23h-.55c.56.3 1.1.63 1.61 1.01l.56.41-.36.59a93.3 93.3 0 0 0-5.01 9.35c-2.54 5.27-3.34 7.68-3.56 8.78Z" class="cls-5"/><path d="M187.73 5.61c7.29 0 12.4 4.19 12.4 10.35 0 8.34-7.12 15.9-15.19 15.9-3.73 0-6.42-1.45-7.8-4.14 2-4.36 6.93-16.79 7.92-19.79a10.3 10.3 0 0 0-5.98 6.83 3.61 3.61 0 0 1-2.31-2.57c.88-3.95 5.2-6.58 10.96-6.58m-4.13 23.4h.07c7.39 0 13.59-6.88 13.59-14.81 0-4.4-3.13-6.98-8.11-6.98h-.19c-1.03 0-2.05.15-3.03.45 1.39.43 2.69 1.08 3.84 1.92a95.85 95.85 0 0 0-5.05 9.42c-2.64 5.49-3.7 8.48-3.7 9.69.84.21 1.7.31 2.57.31m4.13-24.9c-6.5 0-11.38 3.05-12.43 7.76l-.07.33.07.33a5.14 5.14 0 0 0 3.25 3.65l1.49.55.47-1.52c.3-1 .72-1.89 1.24-2.68a345.93 345.93 0 0 1-5.98 14.58l-.3.66.33.65c1.64 3.2 4.88 4.96 9.13 4.96 8.89 0 16.69-8.13 16.69-17.4 0-6.98-5.72-11.85-13.9-11.85Zm-4.94 23.37c.36-1.22 1.23-3.53 3.3-7.81a93.07 93.07 0 0 1 4.98-9.29l.72-1.18-.31-.22c2.76.63 4.29 2.46 4.29 5.24 0 7.21-5.54 13.31-12.09 13.31h-.07c-.27 0-.54-.01-.81-.04Z" class="cls-3"/></g></svg>