<svg xmlns="http://www.w3.org/2000/svg" id="Layer_2" data-name="Layer 2" viewBox="0 0 462.45 230.25"><defs><radialGradient id="radial-gradient" cx="-54.5" cy="-655.01" r="1.67" fx="-54.5" fy="-655.01" gradientTransform="translate(1437.64123 15883.49512) scale(24.41072 24.13777)" gradientUnits="userSpaceOnUse"><stop offset="0" stop-color="#fff"/><stop offset=".07" stop-color="#fffdf4"/><stop offset=".2" stop-color="#fff8d9"/><stop offset=".37" stop-color="#fff0ad"/><stop offset=".56" stop-color="#ffe570"/><stop offset=".79" stop-color="#ffd723"/><stop offset=".88" stop-color="#ffd100"/></radialGradient><clipPath id="clippath"><ellipse cx="120.18" cy="88.58" rx="52.49" ry="51.9" style="fill:none"/></clipPath><style>.cls-1{fill:#f8d000}.cls-3{fill:#160b8b}.cls-6{fill:#2f2e7c}.cls-7{fill:#e2211c}.cls-8{fill:#79858b}</style></defs><g id="Layer_2-2" data-name="Layer 2"><g id="c"><path d="M89.16 196.13a318.11 318.11 0 0 1-20.66-7.57c11.12 6.94 25.23 13.14 40.27 17.56 6.6 2.06 13.34 3.65 20.16 4.79 2.33.37 4.15.64 6.2.86l.62-4.3c-14.01-2.06-29.83-5.84-46.59-11.35" class="cls-1"/><path d="m320.4 117.02 16.66.02v-3.64l-16.69-.01.02 3.63Zm20.34-3.61-.03 5.85 2.63-.03v7.13a41.04 41.04 0 0 0 7.48 12.53c6.24 7.05 14.61 10.86 23.73 10.86.67 0 1.34-.02 2.02-.06 8.2-.5 16.13-4.7 22.1-11.5-5.37 4.65-11.81 7.47-18.43 7.86-.67.04-1.35.06-2 .06-9.14 0-17.5-3.8-23.74-10.86-7.34-8.3-11.23-20.22-11.22-34.47 0-14.68 3.92-27 11.1-35.29l-.63.51c-6.62 5.91-11.08 14.76-13.02 25.54l.02 21.87h-.01Zm47.7-23.04c-1.34-3.62-3.82-5.79-6.8-5.96a7.5 7.5 0 0 0-5.7 2.15 11.5 11.5 0 0 0-1.9 2.37 7.26 7.26 0 0 1 3.92-.89c2.35.14 4.38 1.53 5.8 3.86l9.96.31 13.75-6.36-.36-2.13-.12-.4-17.96 8.66-.6-1.6Zm-202.7 97.27c.18-1.04.4-2.07.7-3.08l5.81-19.95-2.67.15-5.45 18.72 1.6 4.16Z" class="cls-8"/><path d="m374.48 95.34-.2 20.62a9.68 9.68 0 0 0 3.04 2.68h6.15a7.56 7.56 0 0 0 3.69-3.65l-9.24.02.19-19.55-3.63-.12ZM288 150.08l-2.88.16.04 3.42 54.5-3.16v-3.43l-50.83 2.96-1.36-99.43-3.73-.37 1.1 79.5 3.16 20.35Zm32.18-66.75 18.73 1.09v-3.86l-18.75-1.08.02 3.85ZM457.3 160.4v-.03c-1.55-1.26-2.9-1.8-4.26-1.7-.26.02-.68.1-.78.46l.44.1 2.48.53c.7.14 1.42.35 2.12.63v.01Zm-8.46 13.14c.01 0 1.22-.17 1.25-.92v-.03l-.54-.09-2.27-.3c-1.43-.17-2.8-.64-4.03-1.37l.58.56c1.77 1.6 3.46 2.34 5 2.15Zm-7.35-4.09c-1.66-1.68-2.75-4.19-2.65-7.7.05-3.39 1.13-6.69 3.1-9.46a15.39 15.39 0 0 0-3.93 3.98l-.8 26.02 4.28-12.84Zm-31.62-47.66-6.24 25 23.16-1.35.61-3.45-20.1 1.17 19.58-78.26-2.7-.28-12 48a49.02 49.02 0 0 1-2.3 9.17Zm32.78 10.1-10.52.4-.61 3.51 7.45-.28 1.32 9.15 20.33-1.19-.64-3.38-16.02.94-1.31-9.15Zm-18.29 30.96v-1.92l.26-9.31-3.59.2-.1 3.8 3.43 7.23Zm-191.51-9.57-20.89 1.2-15.93-48.16c-.58-2.06-1.11-4.06-1.59-6.02a203.7 203.7 0 0 1-.23 5.13l-.5 8.66 14.57 44.02 23.66-1.37.9-3.47Zm148.4 41.83c-1.12.14-2.21.22-3.28.22-4.89 0-9.3-1.54-12.67-4.47-4.29-3.7-6.52-9.28-6.48-16.1a25.68 25.68 0 0 1 5.65-16.13 24.4 24.4 0 0 0-7.78 10.95l-.07 17.58a17.89 17.89 0 0 0 5 7.33c3.37 2.93 7.78 4.47 12.68 4.47 1.07 0 2.15-.07 3.26-.22a23.77 23.77 0 0 0 15.44-8.55 24.03 24.03 0 0 1-11.76 4.9v.02Zm-97.45-44.79-29.64 1.72-5.16-50.01a42.7 42.7 0 0 1-.48 1.98l-2.41 9.16 4.37 42.5 33.85-1.96-.53-3.4v.01Zm20.59 54.34-.55-46.28-3.71.2.34 28.58 2.06-.22.24 17.93-2.1.28.05 3.14 33.01-4.38v-3.14l-29.34 3.89Zm119.92-15.9-6.8-13.42v.75l-.23 9.66 3.36 6.65 12.75-1.7.1-3.16-9.18 1.23Zm25.35-2.8c-4 .48-8.05-.22-11.64-2.02l-.85-.44-.1 3.57-2.96.39.24.12a20.55 20.55 0 0 0 11.64 2c3.78-.5 7.8-2.61 10.45-6.3a15.55 15.55 0 0 1-6.78 2.68Zm-183.72 23.8-1.21-49.2-3.76.21 1.3 52.62 36.83-4.89-.04-3.14-33.12 4.4Zm136.9-18.16.79-38.8-3.6.2-.14 7.03a23.01 23.01 0 0 1 2.35 10.95 25.89 25.89 0 0 1-2.8 11.37l-.28 12.88 14.35-1.9.08-3.15-10.76 1.43h.01Zm-64.21 8.52-.03-43.7-3.69.21.02 26.8 2.46-.26.03 17.11-2.46.33v3.14l17.94-2.37v-3.15l-14.27 1.89ZM187.9 155.87l-40.84 2.37 13.87-120.6-4.14-.35-14.33 124.57 45.24-2.56.2-3.43Zm-50.8 70.97 8.47-59.63-4.1-.03-8.97 63.07 30.24-3.67.2-3.17-25.84 3.43Zm85.2-132.28c.38-3.1.83-6.2 1.51-9.16l9.45-40.35-2.75-.28-10.07 42.96 1.86 6.83Zm14.03 119.12-1.77-51.44-3.8.22 1.9 54.85 23.62-3.12-.08-3.14-19.87 2.63Zm-28.75 3.81-3.66-23.86-2.89 8.78 2.87 18.71 24.8-3.28-.71-3.06-20.41 2.71Zm-28.42 3.76L168.3 197.7l-.17-.48v.03l-.69 10.19 8.05 17.46 16.4-2.18 1.07-3.29-13.8 1.84Z" class="cls-8"/><path d="m162.75 35.36 43.02 4.4 16.5 60.6.94.01c.53-4.84 1.05-9.96 2.11-14.63l10.06-42.95 34.93 3.58 15.9 102.27-30.65 1.78-5.9-57.36-.63-.03c-.56 3.54-1.08 7.2-2 10.58l-12.63 48.04-21.33 1.23-15.57-47.04c-1.34-4.87-2.54-9.48-3.03-14.39l-1.31-.04c-.12 4.6-.23 9.35-.5 13.94l-2.76 48.88-41.1 2.37 13.95-121.24Zm126.24 12.93 52.03 5.34.02 25.52-22.43-1.3.05 9.2 20.5.88.02 23.94-20.37-.02.06 9.28 22.92-.34.01 24.62-51.42 2.99-1.39-100.1Zm122.9 46.15c-.4 13.12-.6 24.05-7.18 34.39-6.02 9.54-15.4 15.13-24.57 15.7-9.31.56-18-2.98-24.48-10.3-6.64-7.5-10.84-18.87-10.83-33.45 0-29.98 16.34-46.52 36.35-44.43 10.44 1.1 24.04 9.72 28.13 24.15l-19.41 9.35c-1.6-4.35-4.66-6.77-8.17-6.97-8.03-.43-12.62 9.1-12.68 19.66-.07 9.58 4.19 18.47 11.42 18.35a9.22 9.22 0 0 0 8.83-7.43l-9.82.01.21-20.17 32.18 1.14h.01Zm22.55 18.2 3.8-23.27.64.04c.24 3.26.48 6.62.9 9.87l1.69 13.36h-7.04.01Zm-3.61 18.17 13.17-.5 1.3 9.11 17.15-1-13.82-73.76-19.58-2.01-19.73 78.86 19.85-1.16 1.66-9.54Z" class="cls-7"/><path d="m236.03 160.27 20.93-1.16 1.41 50.1-20.55 2.72-1.79-51.66Zm30.21-1.69 19.13-1.06.61 32.75 15.04-1.62.2 14.88-33.76 4.47-1.22-49.42Zm39.14-2.17 16.9-.96.21 30.86 13.35-1.44.02 14.07-29.93 3.97-.55-46.5Zm34.78-1.96 15.05-.84-.17 42.79-14.85 1.97-.03-43.92Zm65.07-3.63 11.4-.64 9.65 20.29.32-.05c-.37-3.07-.76-6.26-.68-9.45l.31-11.32 10.45-.59-1.12 36.66-10.34 1.37-9.44-18.63-.34.03c.3 2.61.59 5.04.54 7.57l-.3 12.3-11.24 1.5.8-39.04Zm37.04 21.21.5.47c1.79 1.62 3.94 2.83 6.26 2.57.98-.1 2.56-.8 2.62-2.4.05-1.58-1.25-1.58-2.16-1.73l-2-.26c-3.96-.5-7.26-3.18-7.09-8.88.28-8.69 6.6-13.9 12.66-14.22 3.1-.17 5.88.67 8.4 2.6l-2.94 9.18c-1.61-1.36-3.47-2.4-5.59-2.22-.87.06-2.17.58-2.23 2.05-.03 1.33 1.2 1.43 1.94 1.6l2.22.46c4.08.86 6.92 3.46 6.69 9.35-.32 8.23-6.23 13.06-12.09 13.83a19 19 0 0 1-10.7-1.84l3.51-10.56Zm-294.85-6.81 27.4-1.53 11.14 28.85.64-.05c.32-2.47.65-5.1 1.33-7.53l6.51-22.37 23.96-1.33 12.08 51.64-21.6 2.86-4.45-28.96-.42.04c-.36 1.83-.7 3.74-1.32 5.53l-8.3 25.32-14.3 1.9-10.37-22.54a30.87 30.87 0 0 1-2.03-6.91l-.86.07c-.05 2.3-.1 4.64-.26 6.92l-1.63 24.46-26.02 3.46 8.5-59.83Zm234.16-13.73c-11.36.61-21.11 9.9-21.2 23.28-.08 13.55 9.4 20.33 20.66 18.81 10.81-1.43 19.42-10.06 19.66-22.63.24-12.4-8.22-20.07-19.13-19.46" class="cls-3"/><path d="m379.97 168.2 3.26-11.02 3.64 10.5 9.3-.76-7.18 6.83 3.2 9.49-8.27-4.78-9.7 9.16 3.67-12.43-10.71-6.07 12.79-.91Z" style="fill:#fff"/><g style="clip-path:url(#clippath)"><path d="M67.7 36.68h104.95v103.8H67.7V36.67Z" style="fill:url(#radial-gradient)"/></g><path d="M118.8 150.41a87.31 87.31 0 0 1-15.95-.75 49.74 49.74 0 0 0 31.97 6.64 43.5 43.5 0 0 0 20.77-7.54l.46-.33a49.41 49.41 0 0 0 17.35-20.06l.75-1.67.13-.27.38-.84a43.88 43.88 0 0 0 1.69-4.87c-10.04 16.55-31.81 28.57-57.54 29.7" class="cls-1"/><path d="m161.19 87.74.89-9.6-5.3 6.63-7.28-5.18 2.83-9.2 7.92 1.64-6.16-7.32 2.62-8.26-6.57 3.53-7.13-8.52 2.48 11.16-7.55 4-6-9.78 6.24-7.8-10.64.55-7.19-11.93-.07 12.32-14.07.73 14.17 7.4-.15 12.6-14.55-.05-7.08-14.48-4.15 14.4-20.79-.24 18.16 9.39-4.68 16.23 14.89-11.16 13.4 7.03-6.1 13.6-18.32.77 13.9 8.97-7.57 16.47 15-11.69 11.14 7.18-2.97-13.73 10.92-8.43 6.93 8.88-6.46 12.72 10.71-7.24 6.12 7.97-.52-11.75 8.24-5.59-8.68-1.84-.43-11.17 8.39-2.08 3.95 9.16.95-10.35 6.76-1.6-6.2-4.35v.01Zm-14.07 9.08-5.19 10-10.5-2.18-12.67.38-2.9-13.29-6.07-12.68 10.65-8.12 7.35-8.87 10.03 5.2 9.12 2.02 2.33 10.4 3.97 9.42-6.12 7.72Z" class="cls-3"/><path d="M25.26 57.64c-4.74 11.92-2.29 40.5 8.53 60.28 4.1 8.3 8.93 16.23 14.44 23.7C34 126.85 17.87 103.13 11.44 73.41c6.86-9.8 9.45-11.52 13.82-15.77Z" class="cls-7"/><path d="M98.76 33.07c2.3-.9 4.67-1.63 7.08-2.16-6.2-3.44-53.15-28.1-87.73-4.93-29.2 19.55-15.08 60.13-11.96 68.03 8.5 22.94 25.46 46.22 47.77 65.58 21.64 18.77 47.19 30.32 70.67 35.97l.25-.69c-14.4-6.82-27.48-18.18-40.41-29.4-38.02-33-58.59-76.92-50-105.89a177.81 177.81 0 0 1 26.83 16.3 57 57 0 0 1 1.5-5.27 180.77 180.77 0 0 0-28.74-16.92l-2.55-1.2-.97 2.62c-5.6 15.02-3.67 34.65 5.43 55.3S61.06 151.97 81 169.3c5.65 4.9 11.56 9.48 17.73 13.72-15-7.2-28.92-16.37-41.4-27.29-21.67-18.8-38.12-41.35-46.36-63.54-2.87-7.3-15.91-44.61 10.04-61.98 9.68-6.5 20.64-8.8 31.33-8.8 19.33 0 37.8 7.54 46.42 11.65h-.01Z" class="cls-1"/><path d="M90.7 36.91C79.86 32.72 63.31 26.7 52.5 26.7c-11.13 0-20.8 2.7-28.74 8.01-.56.37-1.14.8-1.81 1.32l-.47.37-.07.06c-.37.31-.75.62-1.14.97l-.2.18-.35.32c-.41.4-.82.81-1.24 1.25-.25.26-.47.52-.71.8l-.03.04c-.47.53-.9 1.08-1.33 1.64l-.16.22-.1.15c-5.32 7.4-6.57 16.64-6.04 25.3a46.33 46.33 0 0 1 4.2-5.54c4.29-4.83 10.31-11.25 16.43-14.09l4.1 1.91 1.31.62c6.99 3.27 19.61 10.14 28.42 15.54a60.78 60.78 0 0 1 26.1-28.84h.01Z" class="cls-1"/><path d="M56.17 84.57a59.87 59.87 0 0 1 19.59-44.26c-24.73 13.56-33.65 44.38-19.94 68.83a50.92 50.92 0 0 0 19.94 19.7 59.85 59.85 0 0 1-19.59-44.27Z" class="cls-7"/></g></g><g id="Layer_3" data-name="Layer 3"><path d="M262.3 28.38c-.38-5.82 1.48-9.25 5.8-12.92a7.33 7.33 0 0 1 4.12-1.96c1.14.67 2.05 1 2.7 2.83.21-.01 1.35.47 1.7.72 1.28.87 1.45 1.45 1.64 4.05.52 6.73-3.85 11.48-10.44 13.4-3.06.08-5.28-2.38-5.52-6.12Zm4.09 1.8c.1 1.32.7 2.15 1.24 2.23 4.83-1.41 7.23-5.81 7.47-12.11.06-1.45.01-2-.58-2.26-2.35.8-4.18 1.74-5.44 3.6-1.67 2.68-2.85 6.37-2.7 8.54ZM282.18 19.74c.35-1.2 2.15-4.06 2.95-5.01 1.54.18 3.14 1.28 4.3 2.3-1.47 1.74-2.37 2.83-3.52 6.3 2.6-2.38 4.34-3.29 6.33-6.18.23-.15.5-.23.79-.22.67-.03 1.51.46 2.04.86a12.04 12.04 0 0 0-.82 3.6c-.05.94-.04 2.34.4 3.16-.35.87-1.03 1.43-1.72 2.06-1.54-.75-2.63-2.44-3.23-4.03-5.03 3.75-6.33 5.9-7.7 13.4-.99-.03-3.27-1.94-3.7-2.71 1.17-5.27 2-8.47 3.88-13.53ZM296.5 20.24a3.46 3.46 0 0 1-.1-2.33c1.46.05 2.8.17 3.82.16 1.62-3.23 3.72-6.19 4.66-6.73 1.12-.01 3.84 1.22 4.37 1.95-1.49 1.87-3.03 3.67-4.18 5.76 1.06-.01 2.25.03 3.38-.05.29.3.21 1.08.24 1.5-1.57.54-2.99.32-4.65.32-2.66 5.27-4.24 10.54-4.2 13.88.01 1.18.6 1.48 1.38 1.67 1.58-.16 2.7-.46 3.91-1.47.14.2.21.46.35.58-.58.98-3.28 2.9-4.13 2.99-2.72-.04-5.91-2.3-5.93-4.26-.03-2.69 1.45-8.86 3.5-13.91M310.55 20.18a59.64 59.64 0 0 1 10.07-16.34c1.76.01 4.14 2.16 5.08 3.14-4.24 4.1-7.42 7.69-9.42 11.44-2 3.41-2.69 5.5-3.72 9.29 4.6-4.77 8.28-7.8 10.19-7.75 1.5.04 3.95 1.77 5.24 3.27-3.5 3.6-7.63 9.82-7.64 12.02 0 .53.46 1.76.98 1.77a4.97 4.97 0 0 0 1.5-.32c.21.39.35.52.35.62 0 .4-3.29 1.79-4.08 1.78-1.16 0-2.74-2.06-2.73-3.29 0-1.56 1.1-5.39 3.87-10.66 0-.07-.05-.31-.05-.31-.6.24-1.6.77-2.1 1.17-4.08 3.24-5.87 6.47-8.62 12.15-.1.27-.68.76-1.11.92-.2.08-.44 0-.54-.2a9.28 9.28 0 0 1-.52-2.53c-.26-3.78.58-9.98 3.25-16.17ZM383.57 30.66c-2.28 4.43-3.17 8.92-3.23 11.63-.03 1.5.27 2.86.96 3.25-.82.42-1.36.65-2.29.65-1.48-.03-2.81-.92-2.77-3 .04-1.03.05-3.13.97-5.1-2.29 4.89-4.92 7.35-7.37 7.65-1.99-.1-3.7-2.58-3.65-5.38.13-6.04 5.44-14.2 9.75-14.44 1.75.12 3.16 2.73 3.34 3.7-4.34.54-9.07 7.44-9.22 12.18-.06.42-.01.86.37 1.02 1.56-.3 3.4-2.12 6.32-6.92 1.13-1.92 2.35-3.29 3.06-6.75 1.83-.5 3.77.98 3.76 1.5ZM397.95 12.93c1.47.18 4.28 3.11 4.23 4.6-4.93 3.8-8.87 9.3-11.13 16.96 3.8-5.3 7.44-6.58 8.35-6.54 1.41.2 2.93 2.75 2.82 4.12-.12 3.45-2.73 6.74-6.2 7 .95 3.75 3.4 9.27 7.03 11.54-.55 1.1-2.14 2.46-3.92 2.4-1.47-.05-3.73-3.1-4.63-5.78-.84-2.9-1.1-5.83-1.49-8.82 1.13-.8 2.2-1.68 3.21-2.63 2.38-2.2 3.08-3.75 3.14-5.45a.44.44 0 0 0-.44-.35c-2.1 0-5.5 3.6-8.74 8.95-1.4 2.51-1.85 4.7-2.06 7.58 0 .33.1 1.3.16 1.62-.58-.03-2.58-1.28-2.95-2.05-.28-.8-1-2.1-.93-4.04.32-6.1 9.5-26.47 13.55-29.11ZM236.24 29.36c.07-4.97 6.33-22.4 9.99-27.51L247.37 0c1.53.02 5.7 2.33 5.94 3.15-.32 2.38-.6 6.46-.64 8.87-.08 5.98.28 9.2 1.84 15.19 2.84-13.24 6.06-25.13 8.18-25.38 1.18.23 3.84 2.41 4.56 3.63-5.31 2.04-10.72 22.47-10.12 29.02-.65.03-1.06.03-1.24.01-2.46-.03-4.68-.7-5.32-1.86-2-8.71-3.12-16.33-3.11-25.27-3.7 5.58-6.47 17.76-6.56 24.33-.04.61-.02 1.08.08 1.69-3.09-1.1-4.76-2.56-4.74-4.02ZM348.3 14.78c-3.4 1.44-5.46 3.8-6.69 8.01-1.44-.52-2.19-2.85-2.53-4.28 1.01-4.86 5.58-7.18 10.22-7.18 8.91 0 18.29 5.76 18.38 13.32.12 10.24-7.76 20.48-17.62 20.54-7.5.05-9-3.37-10.73-6.65 2.37-5.39 7.8-20.07 8.97-23.76Zm2.36-.14a8.26 8.26 0 0 1 3.69 2.5c-2.23 3.76-3.65 7.5-5.44 11.48-3.14 6.77-4.85 9.69-4.84 11.17.57.7 2.63 1.48 3.72 1.46 9.03-.1 14.58-8.58 14.58-17.16 0-6.34-4.98-9.9-8.23-10a10 10 0 0 0-3.48.55Z" class="cls-6"/><path d="M402.9 44c-.39-5.83 1.47-9.26 5.79-12.93a7.33 7.33 0 0 1 4.13-1.96c1.13.67 2.04.99 2.7 2.83.2-.01 1.34.47 1.7.72 1.27.87 1.44 1.45 1.64 4.05.51 6.73-3.85 11.48-10.44 13.4-3.06.07-5.28-2.38-5.53-6.12Zm4.08 1.8c.1 1.3.71 2.14 1.24 2.22 4.83-1.41 7.23-5.82 7.48-12.12.06-1.45 0-1.99-.58-2.26-2.35.81-4.18 1.75-5.45 3.6-1.66 2.69-2.85 6.38-2.69 8.55ZM421.52 34.25a3.46 3.46 0 0 1-.1-2.32c1.46.05 2.79.17 3.82.16 1.63-3.23 3.73-6.18 4.67-6.72 1.12-.01 3.84 1.22 4.36 1.95-1.49 1.87-3.03 3.67-4.18 5.76 1.06-.01 2.25.03 3.37-.05.3.3.22 1.08.24 1.5-1.57.54-2.98.32-4.65.32-2.66 5.26-4.25 10.53-4.21 13.87 0 1.18.59 1.48 1.38 1.68 1.57-.17 2.7-.46 3.91-1.47.14.2.2.46.34.58-.57.98-3.28 2.9-4.13 2.98-2.72-.04-5.9-2.3-5.93-4.26-.02-2.7 1.47-8.86 3.53-13.91M448.98 37.87c-2.28 4.44-3.17 8.92-3.22 11.63-.03 1.5.26 2.86.95 3.25-.82.43-1.36.66-2.28.66-1.49-.03-2.82-.93-2.78-3 .05-1.03.05-3.14.97-5.1-2.28 4.88-4.91 7.34-7.37 7.64-1.98-.1-3.7-2.57-3.64-5.38.12-6.04 5.43-14.19 9.74-14.43 1.75.12 3.17 2.73 3.35 3.7-4.35.54-9.08 7.43-9.23 12.18-.06.41 0 .85.38 1.01 1.55-.3 3.4-2.12 6.3-6.92 1.14-1.92 2.37-3.29 3.07-6.75 1.83-.49 3.77.98 3.76 1.51Z" class="cls-6"/></g></svg>