<svg xmlns="http://www.w3.org/2000/svg" xmlns:xlink="http://www.w3.org/1999/xlink" id="Layer_2" viewBox="0 0 272.85 90.57"><defs><radialGradient id="radial-gradient" cx="251.92" cy="1684.94" r="20.96" fx="251.92" fy="1684.94" gradientTransform="translate(0 -1633.8)" gradientUnits="userSpaceOnUse"><stop offset="0" stop-color="#e42f43"/><stop offset="1" stop-color="#da2d3f"/></radialGradient><radialGradient id="radial-gradient-2" cx="205.77" cy="1684.75" r="20.97" fx="205.77" fy="1684.75" gradientTransform="translate(0 -1633.8)" gradientUnits="userSpaceOnUse"><stop offset="0" stop-color="#fff"/><stop offset=".7" stop-color="#fdfdfd"/><stop offset=".95" stop-color="#f6f6f6"/><stop offset="1" stop-color="#f4f4f4"/></radialGradient><radialGradient xlink:href="#radial-gradient-2" id="radial-gradient-3" cx="159.65" r="20.97" fx="159.65"/><radialGradient xlink:href="#radial-gradient-2" id="radial-gradient-4" cx="113.48" fx="113.48"/><radialGradient xlink:href="#radial-gradient-2" id="radial-gradient-5" cx="67.12" r="20.97" fx="67.12"/><radialGradient xlink:href="#radial-gradient-2" id="radial-gradient-6" cx="20.93" r="20.99" fx="20.93"/><linearGradient id="linear-gradient" x1="251.92" x2="251.92" y1="1705.93" y2="1664.01" gradientTransform="translate(0 -1633.8)" gradientUnits="userSpaceOnUse"><stop offset="0" stop-color="#8f1a26"/><stop offset=".04" stop-color="#8f1a26" stop-opacity=".83"/><stop offset=".1" stop-color="#8f1a26" stop-opacity=".61"/><stop offset=".16" stop-color="#8f1a26" stop-opacity=".42"/><stop offset=".24" stop-color="#8f1a26" stop-opacity=".26"/><stop offset=".32" stop-color="#8f1a26" stop-opacity=".14"/><stop offset=".43" stop-color="#8f1a26" stop-opacity=".06"/><stop offset=".58" stop-color="#8f1a26" stop-opacity="0"/><stop offset="1" stop-color="#8f1a26" stop-opacity="0"/></linearGradient><linearGradient id="linear-gradient-2" x1="205.77" x2="205.77" y1="1705.74" y2="1663.83" gradientTransform="translate(0 -1633.8)" gradientUnits="userSpaceOnUse"><stop offset="0" stop-color="#939392"/><stop offset=".04" stop-color="#939392" stop-opacity=".8"/><stop offset=".1" stop-color="#939392" stop-opacity=".59"/><stop offset=".17" stop-color="#939392" stop-opacity=".4"/><stop offset=".24" stop-color="#939392" stop-opacity=".25"/><stop offset=".33" stop-color="#939392" stop-opacity=".14"/><stop offset=".43" stop-color="#939392" stop-opacity=".06"/><stop offset=".58" stop-color="#939392" stop-opacity="0"/><stop offset="1" stop-color="#939392" stop-opacity="0"/></linearGradient><linearGradient xlink:href="#linear-gradient-2" id="linear-gradient-3" x1="159.65" x2="159.65"/><linearGradient xlink:href="#linear-gradient-2" id="linear-gradient-4" x1="113.48" x2="113.48"/><linearGradient xlink:href="#linear-gradient-2" id="linear-gradient-5" x1="67.12" x2="67.12"/><linearGradient xlink:href="#linear-gradient-2" id="linear-gradient-6" x1="20.93" x2="20.93"/><style>.cls-13,.cls-5,.cls-6{stroke-width:0}.cls-13{fill:#101820}.cls-5{fill:#0a5aa7}.cls-6{fill:#fff}</style></defs><g id="Layer_1-2"><path d="M251.92 30.21a20.93 20.93 0 1 1 0 41.86 20.93 20.93 0 0 1 0-41.86Z" style="fill:url(#radial-gradient);stroke-width:0"/><path d="M251.92 30.21a20.93 20.93 0 1 1 0 41.86 20.93 20.93 0 0 1 0-41.86Z" style="fill:url(#linear-gradient);stroke-width:0"/><path d="M205.77 30.03a20.93 20.93 0 1 1 0 41.86 20.93 20.93 0 0 1 0-41.86Z" style="fill:url(#radial-gradient-2);stroke-width:0"/><path d="M205.77 30.03a20.93 20.93 0 1 1 0 41.86 20.93 20.93 0 0 1 0-41.86Z" style="fill:url(#linear-gradient-2);stroke-width:0"/><path d="M159.65 30.03a20.93 20.93 0 1 1 0 41.86 20.93 20.93 0 0 1 0-41.86Z" style="fill:url(#radial-gradient-3);stroke-width:0"/><path d="M159.65 30.03a20.93 20.93 0 1 1 0 41.86 20.93 20.93 0 0 1 0-41.86Z" style="fill:url(#linear-gradient-3);stroke-width:0"/><path d="M113.48 30.03a20.93 20.93 0 1 1 0 41.86 20.93 20.93 0 0 1 0-41.86Z" style="fill:url(#radial-gradient-4);stroke-width:0"/><path d="M113.48 30.03a20.93 20.93 0 1 1 0 41.86 20.93 20.93 0 0 1 0-41.86Z" style="fill:url(#linear-gradient-4);stroke-width:0"/><path d="M67.12 30.03a20.93 20.93 0 1 1 0 41.86 20.93 20.93 0 0 1 0-41.86Z" style="fill:url(#radial-gradient-5);stroke-width:0"/><path d="M67.12 30.03a20.93 20.93 0 1 1 0 41.86 20.93 20.93 0 0 1 0-41.86Z" style="fill:url(#linear-gradient-5);stroke-width:0"/><path d="M20.93 30.03a20.93 20.93 0 1 1 0 41.88 20.93 20.93 0 0 1 0-41.89Z" style="fill:url(#radial-gradient-6);stroke-width:0"/><path d="M20.93 30.03a20.93 20.93 0 1 1 0 41.88 20.93 20.93 0 0 1 0-41.89Z" style="fill:url(#linear-gradient-6);stroke-width:0"/><path d="M234.4 58.25c-1.67-5.39-1.3-10.14 0-15.14 1.38-.08 2.77-.14 4.15-.2 1.97-.08 3.22.73 2.9 3.93a5.95 5.95 0 0 1-1.42 3.49c1.01.47 1.56 1.98 1.7 3.73.29 3.61-.8 4.83-3.09 4.6-1.41-.1-2.82-.28-4.24-.4Zm1.95-11.69c-.15.85-.26 1.72-.31 2.58h1.29c.62 0 1.08-.45 1.18-1.38.13-1.22-.43-1.25-1.09-1.24l-1.06.03Zm-.33 5.42c.05.97.15 1.93.31 2.88l1.33.06c.75 0 1.26-.19 1.15-1.38-.11-1.39-.8-1.51-1.81-1.54l-.98-.02Zm6.32 6.39c.07-5.1 1.87-10.29 3.95-15.52l3.69-.05c.99 5.22 2.78 10.46 3.96 15.72h-3.62l-.55-2.08H246c-.07.68-.12 1.37-.15 2.05l-3.5-.13Zm5.42-10.83a69.9 69.9 0 0 0-1.23 5.63H249c-.47-1.87-.9-3.77-1.24-5.63Zm7.39 11.01c.28-5.22.28-10.46 0-15.68h3.36c.53 3.98.65 7.99.37 11.99l4.9-.06c-.16 1.2-.38 2.4-.67 3.58-2.61.12-5.29.17-7.96.17Zm8.93-.19a36.16 36.16 0 0 0 .06-15.29c.86.05 1.9.16 2.76.23a26.5 26.5 0 0 1 .51 11.31h3.53a23.52 23.52 0 0 1-1.21 3.45c-2.04.16-3.59.18-5.65.31Z" class="cls-6"/><path d="M23.12 38.44c-1.07 0-2.05 0-2.99-.06a47.65 47.65 0 0 0-7.46.19h-.23l-.06.23c-1.34 5.41-2.37 12.19-.69 25.15v.32h.6c1.3 0 2.5.07 3.73.07 1.09 0 2.21 0 3.4-.1h.32v-.32c-.06-2.5-.06-5-.06-7.45h3.79c3.86-.05 6.75-1.05 8.6-2.97a8.15 8.15 0 0 0 2.09-6.01c-.22-5.45-4.44-8.89-11.03-9.04Zm2.99 8.54a2.7 2.7 0 0 1-.74 1.92 3.86 3.86 0 0 1-2.7 1h-3.05c0-.96.04-2 .06-3.01 0-.8 0-1.53.06-2.25h2c1.33-.02 4.37.19 4.37 2.35Zm41.12-9.34a13.15 13.15 0 0 0-12.26 8.13 13.12 13.12 0 0 0-1.04 5.06c.1 7.75 5.63 13.44 13.27 13.53a13.3 13.3 0 0 0 13.3-13.47 13.35 13.35 0 0 0-13.28-13.26Zm-4.51 13.21c0-3.14 1.17-6.49 4.45-6.5h.16c.98-.02 1.93.36 2.64 1.05 1.14 1.12 1.84 3.16 1.84 5.46 0 2.52-.6 6.75-4.54 6.77-4.23.02-4.55-5.18-4.55-6.75v-.02Zm65.11-11.6h-.24a546.5 546.5 0 0 0-4.55-.12h-1.56v.34c.19 4.43-.26 8.86-1.34 13.16-.56-3.11-1.3-5.94-2.07-8.9-.37-1.44-.76-2.92-1.14-4.51l-.06-.22h-.23c-2-.1-4-.1-6 0h-.23l-.06.22c-.48 2-1.01 3.83-1.52 5.63a81.6 81.6 0 0 0-1.97 7.8c-1-4.33-1.37-8.79-1.09-13.23v-.33h-6.03l-.06.24c-1.73 6.54-.21 14.41 4.83 24.76l.09.17h.19c1.67 0 2.52.06 3.34.06s1.5 0 2.85-.05h.27V64c.44-4.51 1.34-9.15 2.23-13.68.9 4.5 1.81 9.14 2.26 13.68v.29h.29c1.27-.06 2.41-.06 3.56-.06h3.4l.08-.18c4.48-9.26 6.16-17.96 4.72-24.51l.02-.29Zm29.88 18.51v-3.31c3.33 0 6.72 0 10.07-.08h.32V48h-.34c-3.3-.08-6.69-.11-10.06-.09v-2.95c2.64 0 5.19 0 7.89.11l4.02.09h.4l-.06-.39a29.95 29.95 0 0 0-1.55-5.52l-.07-.19h-.2a62.51 62.51 0 0 0-17.81 0h-.26l-.05.23a54.45 54.45 0 0 0 0 24.1l.06.23h.23c3.16.44 6.35.67 9.55.68 3.05-.01 6.09-.23 9.11-.64h.2l.07-.19a20.24 20.24 0 0 0 1.13-5.71v-.39h-.39c-4.05.3-8.18.39-12.25.39Zm59.95.89c.36-4.54-1.42-5.7-3.74-6.6a5.52 5.52 0 0 0 3.58-5.81c-.46-5.31-4.14-7.98-11.27-8.15h-1.38c-2.81-.1-5.62.1-8.38.61h-.19l-.06.19c-2.8 8.32-3.06 17.31-.69 24.68l.06.19h.2c1.86.33 3.74.49 5.63.48h1.67v-.35c-.14-2.87-.19-5.8-.23-8.64v-.08h2.21c1.61 0 2.65.29 3.22.9.72.75.8 2.04.8 3.77-.12 1.38-.07 2.78.16 4.14l.08.26h.27c.8-.06 1.61-.08 2.36-.1 1.7-.02 3.39-.13 5.07-.34h.24l.24-1.39-.46.08c.03-.31.09-.62.16-.92.23-.95.4-1.92.51-2.9l-.06-.02Zm-8.22-11.35a1.67 1.67 0 0 1-.45 1.3c-.52.53-1.56.8-3.22.8h-2.95c0-1.42 0-2.9.07-4.48 1.17 0 2.35-.05 3.5-.05 1.88 0 3.01.89 3.04 2.42Z" class="cls-13"/><path d="M272.34 77.51h-44.27v12.58h44.27V77.51Z" class="cls-6"/><path d="M163.59 77.21v13.35h109.19V77.21H163.59Zm108.16 12.34h-41.94V78.23h41.94v11.32Z" class="cls-13"/><path d="M166.72 79.08h5.13c.91-.07 1.81.22 2.51.8a3.42 3.42 0 0 1-.1 4.64c-.79.63-1.78.93-2.78.85h-1.65v3.72h-3.14V79.08h.03Zm3.11 4.27h.76a2 2 0 0 0 1.26-.31c.12-.1.21-.22.27-.36.12-.28.12-.59 0-.88a1.54 1.54 0 0 0-.23-.37 1.61 1.61 0 0 0-1.18-.33h-.89v2.25Zm7.59.47a4.65 4.65 0 0 1 1.35-3.81c.49-.5 1.09-.88 1.75-1.11a4.96 4.96 0 0 1 2.06-.26c.7-.05 1.4.05 2.06.28a4.72 4.72 0 0 1 3.14 4.83c.03.99-.17 1.97-.59 2.87a4.26 4.26 0 0 1-1.71 1.71 5.7 5.7 0 0 1-2.78.63 6.42 6.42 0 0 1-2.8-.54 4.34 4.34 0 0 1-1.8-1.7 5.6 5.6 0 0 1-.68-2.92Zm3.09 0c-.07.77.13 1.54.56 2.17a2 2 0 0 0 .68.51c.27.12.56.17.85.15.28.01.55-.04.8-.14.27-.11.51-.28.7-.5.44-.69.63-1.51.56-2.33a3.17 3.17 0 0 0-.57-2.07 1.84 1.84 0 0 0-.7-.5 2.15 2.15 0 0 0-1.6.01c-.26.11-.49.29-.67.51a3.28 3.28 0 0 0-.56 2.19h-.04Zm9.3-4.78h2.93l1.05 5.59 1.51-5.59h2.93l1.55 5.59 1.05-5.59h2.92l-2.17 10h-3.06l-1.75-6.33-1.75 6.29h-3.03l-2.19-9.96Zm16.77 0h8.28v2.14h-5.18v1.61h4.83v2.01h-4.83v2.01h5.34v2.27h-8.43V79.04Zm11.15 10v-10h5.14c.74-.03 1.48.06 2.19.25.5.15.93.47 1.22.91.32.48.48 1.04.47 1.61.03.99-.48 1.92-1.33 2.41-.34.19-.71.32-1.09.39.28.09.55.21.8.37.18.16.35.33.49.52.16.19.31.4.43.62l1.5 2.91h-3.45l-1.61-3.06a2.27 2.27 0 0 0-.56-.8 1.36 1.36 0 0 0-.76-.23h-.27v4.02l-3.18.08Zm3.1-5.96h1.33c.27-.02.54-.07.8-.13.2-.04.38-.15.5-.31a.97.97 0 0 0 .19-.59c0-.14-.02-.28-.07-.4a.9.9 0 0 0-.23-.34 1.9 1.9 0 0 0-1.19-.22h-1.36v2.03l.03-.04Z" style="fill:#fff;fill-rule:evenodd;stroke-width:0"/><path d="M233.93 80.1v3.78h1.61c.71.05 1.42-.1 2.04-.46.45-.33.7-.87.65-1.42.05-.57-.2-1.12-.66-1.46a3.9 3.9 0 0 0-2.12-.46l-1.52.02Zm-1.12-.97h2.41c.55 0 1.11.02 1.66.09.37.06.73.18 1.07.35a3 3 0 0 1 1.15 1.03c.25.42.38.9.38 1.38.03 1-.5 1.93-1.37 2.41-.34.19-.7.32-1.08.39-.53.09-1.07.13-1.61.12h-1.5v4.15h-1.12v-9.92Zm14 9.76h-5.15v-9.93h1.13v8.97h4.02v.96Zm2.94-.12h-1.18l4.42-9.93h1.35l4.38 9.93h-1.16l-1.36-3.12h-5.08l-1.36 3.12Zm6.03-4.02-2.16-4.98-2.16 4.99h4.31Zm9.3.68v3.65h-1.09v-3.66l-3.63-6.27h1.28l2.87 5.17 2.94-5.16h1.24l-3.61 6.27Z" style="fill:#101820;fill-rule:evenodd;stroke-width:0"/><path d="M19.94 21.41c-1.88-.09-3.14-1.72-3.14-4.04 0-2.62 1.67-5.76 3.97-7.46.72-.6 1.64-.96 2.59-1.01h.09l.07.05c.6.43 1.12.98 1.49 1.62h.05l.23-.02c1.36 0 1.52 1.4 1.52 2.46a8.65 8.65 0 0 1-6.8 8.42h-.06Zm4.46-9.82a6.4 6.4 0 0 0-2.98 2.3c-1.05 1.47-1.85 3.49-1.85 4.7 0 .7.26 1.29.4 1.42 2.73-.64 4.62-3.54 4.62-7.1 0-.66-.05-1.03-.18-1.32Z" class="cls-5"/><path d="M23.37 9.14a5.04 5.04 0 0 1 1.5 1.68c.12 0 .31-.04.42-.04.89 0 1.27.69 1.27 2.21a8.36 8.36 0 0 1-6.6 8.17c-1.76-.09-2.91-1.61-2.91-3.79 0-2.58 1.64-5.61 3.87-7.26a4.1 4.1 0 0 1 2.45-.96m-4.06 9.45c0 .77.31 1.61.61 1.68 2.83-.61 4.91-3.63 4.91-7.36 0-.85-.08-1.26-.31-1.61a6.68 6.68 0 0 0-3.3 2.44c-1.07 1.49-1.91 3.58-1.91 4.85m4.2-9.96h-.17a4.8 4.8 0 0 0-2.75 1.09c-2.34 1.73-4.05 4.95-4.05 7.65 0 2.47 1.36 4.19 3.38 4.29h.07l.06-.01a8.9 8.9 0 0 0 7-8.66c0-.67 0-2.71-1.77-2.71l-.15.01a5.5 5.5 0 0 0-1.48-1.56l-.14-.1Zm-3.7 9.96c0-1.14.8-3.14 1.81-4.56a6.36 6.36 0 0 1 2.62-2.12c.05.21.08.51.08 1 0 3.31-1.78 6.13-4.27 6.81-.11-.2-.25-.64-.25-1.13Z" class="cls-6"/><path d="M28.49 21.47a3.7 3.7 0 0 1-2.16-1.44l-.04-.08.02-.09a67.96 67.96 0 0 1 2.92-9c.23-.71.61-1.37 1.12-1.94l.09-.1.13.02a4.7 4.7 0 0 1 2.51 1.21l.18.17-.16.18a9.71 9.71 0 0 0-1.74 3.17 27.3 27.3 0 0 0 3.35-3.78.96.96 0 0 1 .61-.22c.52 0 .95.15 1.28.43l.14.12-.07.17a5.52 5.52 0 0 0-.4 2.16c-.04.52.06 1.02.28 1.46l.05.11-.05.11a4.04 4.04 0 0 1-1.03 1.39l-.13.11-.15-.08a4.15 4.15 0 0 1-1.87-2.01c-2.79 2.02-3.76 3.68-4.62 7.76l-.04.21h-.22Z" class="cls-5"/><path d="M30.53 9.08a4.4 4.4 0 0 1 2.37 1.14c-.89.99-1.42 2.21-2.15 4.21a26.81 26.81 0 0 0 4.14-4.51.72.72 0 0 1 .4-.12h.08c.38 0 .75.13 1.04.37a5.85 5.85 0 0 0-.42 2.26c-.05.54.06 1.09.31 1.57-.22.5-.55.94-.96 1.3a3.87 3.87 0 0 1-1.87-2.18c-2.98 2.11-4.06 3.74-4.98 8.1a3.5 3.5 0 0 1-1.95-1.3 67.51 67.51 0 0 1 2.91-8.97c.22-.69.59-1.33 1.07-1.87m-.19-.53-.18.2c-.53.6-.93 1.29-1.17 2.05a71.07 71.07 0 0 0-2.92 9l-.05.18.09.17c.3.59 1.6 1.52 2.37 1.57l.43.03.09-.42c.82-3.88 1.74-5.53 4.28-7.43a4.38 4.38 0 0 0 1.84 1.85l.3.16.26-.22c.47-.4.84-.91 1.09-1.47l.1-.22-.11-.21c-.21-.4-.29-.85-.26-1.3v-.06a5.2 5.2 0 0 1 .38-2.06l.14-.34-.29-.23a2.14 2.14 0 0 0-1.35-.48h-.09c-.24 0-.47.07-.68.2l-.08.05-.05.07a26.83 26.83 0 0 1-2.44 2.89c.37-.81.74-1.43 1.22-1.96l.33-.37-.36-.33a4.96 4.96 0 0 0-2.64-1.27l-.27-.04Z" class="cls-6"/><path d="M39.84 21.76c-1.74-.04-3.66-1.5-3.66-2.77 0-1.51.81-4.53 1.99-7.43h-.68l-.25.04h-.17l-.1-.15c-.2-.47-.31-.96-.33-1.46v-.27l.26.01a197.45 197.45 0 0 1 2.06.12c.92-1.76 2.29-3.83 2.91-4.18l.06-.03H42c.68 0 2.32.45 2.69.99l.11.15-.12.15a23.3 23.3 0 0 0-2.09 3.03c.49-.01 1.01-.04 1.51-.07h.12l.08.08c.21.22.33.51.34.81v.19l-.17.06c-.9.3-1.83.46-2.77.47-1.5 2.95-2.43 5.93-2.43 7.82 0 .52.2.84.58.94.78-.09 1.6-.42 2.27-.98l.21-.18.15.23.1.18.06.11.16.14-.11.18a6.4 6.4 0 0 1-2.8 1.84h-.02Z" class="cls-5"/><path d="M41.98 5.88c.65 0 2.19.45 2.49.88a24.17 24.17 0 0 0-2.33 3.44c.61 0 1.3-.04 1.96-.08a1 1 0 0 1 .27.65 8.5 8.5 0 0 1-2.74.45h-.1C39.95 14.27 39 17.34 39 19.29c0 .69.31 1.06.77 1.18a4.6 4.6 0 0 0 2.49-1.03c.08.12.12.27.2.34a6.33 6.33 0 0 1-2.61 1.72c-1.58-.04-3.42-1.38-3.42-2.52 0-1.57.89-4.74 2.11-7.68h-1.3v.04h-.04c-.18-.44-.29-.9-.31-1.38.85.04 1.62.12 2.22.12.96-1.87 2.33-3.9 2.88-4.21m0-.5h-.13l-.11.06c-.74.41-2.1 2.58-2.94 4.14-.27 0-.56-.03-.87-.05l-1.02-.06-.55-.02.03.55c.03.53.14 1.05.35 1.55l.13.31h.83v-.04h.1c-1.13 2.85-1.87 5.68-1.87 7.18s2.18 2.98 3.9 3.02h.06a6.43 6.43 0 0 0 3-1.96l.22-.36-.28-.24-.02-.05a1.2 1.2 0 0 0-.12-.22l-.31-.46-.43.35c-.61.5-1.34.81-2.12.91-.13-.05-.32-.19-.32-.67 0-1.82.89-4.7 2.34-7.57a8.87 8.87 0 0 0 2.7-.48l.35-.12-.02-.37a1.52 1.52 0 0 0-.41-.97l-.16-.17h-.24a17 17 0 0 1-1.04.07 23.6 23.6 0 0 1 1.84-2.61l.24-.29-.21-.31c-.47-.67-2.27-1.1-2.9-1.1Z" class="cls-6"/><path d="M44.14 21.46c-.5 0-.94-1.32-.98-1.76-.15-2.12.75-5.92 2.29-9.66A33.23 33.23 0 0 1 51.07.77l.07-.09h.12c1.03 0 2.56.58 3.14 1.19l.17.18-.17.17c-2.43 2.46-4.35 4.93-5.39 6.95a26.3 26.3 0 0 0-2.16 5.04c2.7-3.19 4.77-4.81 6.16-4.81.9 0 1.99.6 2.77 1.54l.14.17-.15.16c-2 2.15-4.32 6.36-4.32 7.47v.11h.11c.25-.02.5-.07.74-.17l.21-.08.1.2.12.21c.05.09.1.16.1.26 0 .53-2.23 1.29-2.52 1.29-.78 0-1.54-.84-1.54-1.7s.98-3.47 2.42-6.41l-.35.25c-2.24 1.65-4.73 5.02-6.07 8.19a.9.9 0 0 1-.56.54l-.04.02h-.04Z" class="cls-5"/><path d="M51.26.94a5 5 0 0 1 2.96 1.11c-2.35 2.37-4.33 4.86-5.43 7.02a26.2 26.2 0 0 0-2.5 6.23c3.03-3.75 5.32-5.64 6.72-5.64.84 0 1.86.59 2.58 1.45-1.93 2.08-4.39 6.38-4.39 7.64 0 .3.08.36.37.36.29-.02.57-.08.84-.19.12.23.19.3.19.36 0 .23-1.83 1.04-2.27 1.04-.65 0-1.29-.75-1.29-1.45 0-.9 1.13-3.79 2.66-6.83 0-.04-.08-.08-.08-.08-.33.14-.64.33-.92.56-2.23 1.65-4.75 5-6.14 8.29a.68.68 0 0 1-.41.4c-.23 0-.69-1-.73-1.53-.16-2.17.8-5.99 2.27-9.55a33.36 33.36 0 0 1 5.58-9.2m0-.5h-.23l-.15.18a33.82 33.82 0 0 0-5.66 9.34c-1.56 3.77-2.47 7.61-2.31 9.77.03.34.46 1.99 1.23 1.99h.09l.08-.03c.33-.12.59-.37.71-.7a22.04 22.04 0 0 1 5.51-7.7c-1.08 2.3-2 4.65-2 5.58 0 1 .87 1.95 1.79 1.95.29 0 2.77-.73 2.77-1.54 0-.18-.08-.3-.14-.4a.96.96 0 0 1-.11-.19l-.21-.4-.42.17c-.16.07-.33.11-.5.14.19-1.26 2.4-5.16 4.24-7.14l.3-.32-.28-.34c-.83-.99-1.99-1.63-2.96-1.63-1.33 0-3.15 1.29-5.52 3.94a24.97 24.97 0 0 1 1.74-3.79 30.37 30.37 0 0 1 5.35-6.91l.34-.34-.33-.35A5.48 5.48 0 0 0 51.28.44Z" class="cls-6"/><path d="M79.91 20.97c-1.29-.04-2.15-1.27-2.15-3.05 0-3.57 3.42-8.39 6.1-8.59a3.68 3.68 0 0 1 2 1.95l.36-.76.19.04c.42.09 1.92.58 1.92 1.17v.06l-.03.05c-1.25 2.53-2.09 5.25-2.09 6.78 0 .78.17 1.29.46 1.45l.41.22-.41.22a3.8 3.8 0 0 1-1.65.44c-1.01 0-1.53-.67-1.53-2 .03-.43.08-.86.16-1.28-1.2 1.84-2.63 3.14-3.73 3.3h-.04Zm5.76-9.32c-2.33.33-5.31 4.33-5.31 7.12a.3.3 0 0 0 .11.29c.83-.25 1.96-1.6 3.45-4.14.26-.46 1.05-1.86 1.76-3.27h-.01Z" class="cls-5"/><path d="M83.88 9.58a3.54 3.54 0 0 1 1.76 1.82c-2.52.36-5.53 4.47-5.53 7.37-.03.24.11.47.33.56.9-.19 2.06-1.49 3.7-4.28a67.68 67.68 0 0 0 2.24-4.24c.69.14 1.72.62 1.72.93-1.27 2.57-2.12 5.33-2.12 6.89 0 .86.19 1.46.6 1.67-.47.26-1 .39-1.54.41-.86 0-1.27-.56-1.27-1.75.08-1.25.39-2.47.9-3.61-1.27 2.83-3.33 5.18-4.75 5.38-1.16-.04-1.91-1.19-1.91-2.8 0-3.47 3.37-8.15 5.87-8.34m.05-.51h-.09c-2.78.22-6.33 5.18-6.33 8.85 0 1.93.96 3.25 2.39 3.3h.08c1.08-.15 2.27-1.19 3.3-2.56l-.02.26c0 1.89.96 2.28 1.77 2.28a3.77 3.77 0 0 0 1.77-.47l.82-.44-.83-.44c-.16-.08-.33-.45-.33-1.23 0-1.49.83-4.17 2.06-6.67l.05-.1v-.12c0-.93-2.1-1.41-2.12-1.42l-.39-.08-.17.36-.05.11A4.1 4.1 0 0 0 84 9.1l-.09-.03Zm-3.33 9.66c.02-2.5 2.47-5.97 4.61-6.72a78.06 78.06 0 0 1-1.51 2.78c-1.31 2.23-2.35 3.55-3.09 3.94Z" class="cls-6"/><path d="M96.8 23.34c-.94 0-1.72-.86-2.38-2.62a35.36 35.36 0 0 1-1.28-5.16l-.02-.15.12-.09c.63-.48 1.23-1.01 1.79-1.58 1.33-1.31 1.98-2.39 1.98-3.28-.99.09-3.14 2.15-5.04 5.54a11.28 11.28 0 0 0-1.23 4.71c0 .16.03.33.07.5l.07.31h-.32c-.4 0-.78-.16-1.07-.44a2.44 2.44 0 0 0-.58-.75c-.36-.28-.53-1.01-.53-2.28.07-3.64 5.79-16.07 8.17-17.74l.07-.05h.09c.98.1 2.38 1.67 2.38 2.68v.12l-.09.08c-2.3 1.88-4.85 5.73-6.48 9.69 1.72-2.4 3.6-3.85 5.16-3.92h.08l.07.04a2.6 2.6 0 0 1 1.11 2.23c0 2-1.62 4.23-3.46 4.83.5 1.63 1.63 4.3 3.83 5.57l.2.11-.1.21c-.37.79-1.53 1.43-2.6 1.43Z" class="cls-5"/><path d="M96.69.51c.86.08 2.15 1.56 2.15 2.42-2.79 2.27-5.88 7.37-7.36 11.98 1.97-3.5 4.35-5.69 6.21-5.77a2.34 2.34 0 0 1 1 2.01c0 2.01-1.74 4.24-3.53 4.67.63 2.17 1.86 4.71 4.02 5.96-.3.65-1.34 1.29-2.37 1.29-.86 0-1.57-.92-2.15-2.46a34.48 34.48 0 0 1-1.26-5.12c.64-.49 1.25-1.02 1.82-1.6 1.34-1.33 2.05-2.46 2.05-3.46a.25.25 0 0 0-.25-.19H97c-1.22.04-3.46 2.43-5.25 5.61a11.4 11.4 0 0 0-1.26 4.82c0 .19.03.38.08.57a1.3 1.3 0 0 1-.9-.37 2.3 2.3 0 0 0-.59-.76c-.3-.23-.44-.95-.44-2.09.06-3.57 5.75-15.91 8.06-17.53m-.14-.51-.15.1C94 1.77 88.2 14.34 88.13 18.01c0 1.39.2 2.15.63 2.49.18.15.34.35.45.58l.04.08.07.06c.34.32.78.5 1.24.5h.63l-.14-.61a1.97 1.97 0 0 1-.06-.48c.06-1.56.48-3.16 1.21-4.58 1.65-2.94 3.52-4.9 4.52-5.28-.16.75-.78 1.67-1.86 2.73-.56.56-1.15 1.08-1.77 1.56l-.24.18.05.3c.29 1.76.73 3.5 1.28 5.19.71 1.89 1.57 2.81 2.62 2.81 1.15 0 2.42-.71 2.83-1.58l.19-.41-.4-.23c-2.03-1.18-3.12-3.6-3.64-5.2a5.84 5.84 0 0 0 3.4-4.99 2.85 2.85 0 0 0-1.22-2.43l-.14-.09h-.17c-1.28.06-2.72.94-4.12 2.48 1.58-3.26 3.68-6.24 5.61-7.81l.18-.15v-.24c0-1.13-1.51-2.82-2.6-2.92l-.18-.02Z" class="cls-6"/><path d="M102.07 21.38c-1.88-.1-3.14-1.71-3.14-4.02 0-2.61 1.67-5.73 3.97-7.43.71-.6 1.63-.96 2.58-1.01h.09l.07.05c.6.42 1.11.98 1.49 1.61h.05l.23-.02c1.36 0 1.51 1.4 1.51 2.45a8.62 8.62 0 0 1-6.78 8.38h-.06Zm4.44-9.79a6.43 6.43 0 0 0-2.98 2.29c-1.05 1.49-1.84 3.52-1.84 4.69 0 .7.26 1.28.39 1.41 2.72-.63 4.61-3.53 4.61-7.08 0-.66-.05-1.03-.18-1.31Z" class="cls-5"/><path d="M105.49 9.17a5.1 5.1 0 0 1 1.5 1.67c.12 0 .31-.04.42-.04.88 0 1.26.68 1.26 2.2 0 3.92-2.74 7.3-6.59 8.13-1.72-.09-2.9-1.6-2.9-3.78 0-2.56 1.64-5.58 3.87-7.23a4.22 4.22 0 0 1 2.44-.96m-3.45 11.07c2.83-.61 4.89-3.61 4.89-7.35 0-.84-.08-1.25-.31-1.6a6.66 6.66 0 0 0-3.3 2.43c-1.05 1.5-1.9 3.59-1.9 4.85 0 .77.31 1.6.61 1.67m3.59-11.58h-.17c-1 .06-1.97.44-2.74 1.08-2.33 1.72-4.05 4.93-4.05 7.61 0 2.42 1.39 4.17 3.38 4.28h.07l.06-.01a8.85 8.85 0 0 0 6.98-8.62c0-.67 0-2.7-1.76-2.7l-.15.01a5.57 5.57 0 0 0-1.47-1.55l-.14-.1Zm-3.46 11.03c-.11-.2-.25-.63-.25-1.12 0-1.11.79-3.12 1.81-4.56a6.46 6.46 0 0 1 2.62-2.1c.05.21.08.5.08.99 0 3.36-1.74 6.12-4.25 6.8Z" class="cls-6"/><path d="M4.23 22.61c-1.77-.6-2.49-.95-2.49-2 0-2.9 4.25-13.54 6.45-16.8l-.14-1.19h.28c.81 0 3.67 1.01 3.88 1.69l.02.05v.05a36.37 36.37 0 0 0-.27 4.18c0 2.83.11 5.88.87 9.14 1.28-6.08 3.61-14.74 5.14-14.94.81.13 1.88.93 2.36 1.71l.15.25-.27.11c-2.9 1.17-5.94 13.79-5.54 17.52l.03.26-.26.02c-.26.02-.46.02-.59.02h-.17c-1.26 0-2.81-.31-3.3-1.17A68.94 68.94 0 0 1 8.42 7.2C7.08 10.79 4.5 17.98 4.5 21.37c-.01.33 0 .59.06.94l.08.42-.41-.14Z" class="cls-5"/><path d="M8.33 2.87c.89 0 3.5 1.04 3.64 1.51-.17 1.4-.26 2.8-.26 4.21 0 3.49.2 6.78 1.15 10.26C14.4 11.1 16.78 3.2 18.01 3.04c.69.12 1.69.9 2.12 1.6-3.07 1.24-6.1 13.96-5.7 17.78-.26.02-.45.02-.58.02h-.14c-1.42 0-2.72-.37-3.11-1.04A69.6 69.6 0 0 1 8.64 5.92C7.42 9.15 4.25 17.55 4.25 21.39c-.01.36 0 .63.07.99-1.81-.61-2.32-.9-2.32-1.76C2 17.72 6.37 6.9 8.45 3.89l-.11-1m0-.5h-.56l.06.56.09.82c-2.06 3.1-6.44 13.74-6.44 16.84 0 1.27.96 1.66 2.66 2.23l.81.28-.16-.84c-.06-.29-.07-.52-.06-.87 0-3.03 2.08-9.14 3.47-12.94.22 4.4.85 8.77 1.89 13.05l.02.07.03.06c.54.95 2.19 1.29 3.54 1.29h.14c.14 0 .34 0 .61-.02l.52-.03-.05-.52c-.41-3.9 2.76-16.21 5.39-17.26l.55-.22-.31-.5a4.35 4.35 0 0 0-2.46-1.83h-.15c-1.86.24-4.14 9.61-5.11 14a41.47 41.47 0 0 1-.37-12.1v-.11l-.02-.1c-.26-.85-3.28-1.87-4.12-1.87Z" class="cls-6"/><path d="M112.9 21.56c-1.7-.04-3.57-1.46-3.57-2.71 0-1.47.79-4.41 1.94-7.23h-.65l-.25.04h-.17l-.12-.15c-.19-.45-.3-.93-.32-1.42v-.27l.26.01.98.06c.37.02.71.05 1.02.05.9-1.72 2.23-3.73 2.84-4.07l.06-.03h.07c.66 0 2.26.44 2.63.97l.11.15-.12.15c-.75.92-1.42 1.91-2.02 2.94.47-.01.98-.04 1.46-.07h.12l.08.08c.2.22.32.5.33.79v.19l-.17.06c-.87.3-1.78.45-2.7.45-1.46 2.87-2.37 5.77-2.37 7.61 0 .51.19.81.56.91a4.34 4.34 0 0 0 2.21-.95l.21-.18.15.23.1.18.05.1.16.14-.11.18a6.02 6.02 0 0 1-2.74 1.79h-.02Z" class="cls-5"/><path d="M114.98 6.08c.63 0 2.13.44 2.43.86a23.69 23.69 0 0 0-2.26 3.35c.6 0 1.27-.04 1.91-.08a1 1 0 0 1 .27.63c-.86.29-1.76.44-2.67.44h-.1c-1.54 2.98-2.47 5.96-2.47 7.86 0 .67.31 1.04.75 1.15a4.45 4.45 0 0 0 2.43-1c.08.11.12.27.19.33a6.05 6.05 0 0 1-2.54 1.67c-1.54-.04-3.33-1.34-3.33-2.46 0-1.53.86-4.62 2.06-7.48h-1.27v.04h-.06a3.9 3.9 0 0 1-.3-1.34c.82.04 1.57.11 2.16.11.94-1.83 2.27-3.8 2.81-4.1m0-.5h-.13l-.11.06c-.72.4-2.05 2.51-2.87 4.03-.26 0-.55-.03-.85-.05l-.99-.06-.55-.02.03.55c.03.52.14 1.03.34 1.51l.13.31h.89v-.04h.03c-1.1 2.78-1.82 5.52-1.82 6.98s2.13 2.91 3.82 2.96h.06a6.33 6.33 0 0 0 2.93-1.91l.22-.36-.28-.24-.02-.04a1.39 1.39 0 0 0-.11-.21l-.31-.46-.43.35c-.59.49-1.3.79-2.06.88-.12-.05-.3-.18-.3-.64 0-1.77.87-4.58 2.27-7.37a8.77 8.77 0 0 0 2.63-.47l.35-.12-.02-.37a1.51 1.51 0 0 0-.4-.95l-.16-.17h-.24l-1 .07c.53-.88 1.13-1.72 1.77-2.52l.23-.29-.21-.31c-.46-.66-2.22-1.08-2.84-1.08Z" class="cls-6"/><path d="M118.12 20.97c-1.29-.04-2.15-1.27-2.15-3.05 0-3.57 3.42-8.39 6.1-8.59a3.66 3.66 0 0 1 2 1.96l.37-.76.19.04c.51.1 1.61.49 1.88.91.08.13.08.25.06.32-1.28 2.6-2.13 5.33-2.13 6.83 0 .78.16 1.29.46 1.45l.41.22-.41.22c-.51.27-1.09.43-1.67.44-1.01 0-1.52-.67-1.52-2 .03-.43.08-.85.16-1.27-1.2 1.83-2.63 3.13-3.72 3.28h-.04Zm5.76-9.32c-2.33.33-5.31 4.33-5.31 7.12a.3.3 0 0 0 .11.29c.83-.24 1.96-1.6 3.45-4.14.26-.46 1.05-1.86 1.76-3.27h-.01Z" class="cls-5"/><path d="M122.09 9.58c.64.19 1.64 1.27 1.75 1.82-2.52.36-5.53 4.47-5.53 7.37-.03.24.11.47.33.56.9-.19 2.06-1.49 3.7-4.28a80.2 80.2 0 0 0 2.24-4.24c.69.14 1.82.62 1.75.93-1.27 2.57-2.13 5.33-2.13 6.89 0 .86.19 1.46.6 1.67-.48.26-1.01.4-1.55.41-.86 0-1.27-.56-1.27-1.75.09-1.24.39-2.45.9-3.58l.01-.03-.01.03c-1.27 2.82-3.32 5.15-4.74 5.35-1.16-.04-1.91-1.19-1.91-2.8 0-3.47 3.37-8.15 5.87-8.34m.05-.51h-.09c-2.78.22-6.33 5.18-6.33 8.85 0 1.93.96 3.25 2.39 3.3h.08c1.07-.15 2.26-1.19 3.29-2.55l-.02.24c0 1.89.96 2.28 1.77 2.28a3.97 3.97 0 0 0 1.79-.46l.83-.44-.83-.44c-.16-.08-.33-.45-.33-1.23 0-1.47.84-4.15 2.08-6.67l.02-.05v-.05c.06-.17.02-.35-.08-.52-.33-.52-1.54-.92-2.04-1.02l-.38-.08-.17.35-.05.12a4.1 4.1 0 0 0-1.84-1.61l-.09-.03Zm-3.33 9.66c.02-2.5 2.47-5.98 4.61-6.72-.63 1.23-1.28 2.37-1.51 2.78-1.31 2.23-2.35 3.55-3.1 3.94Z" class="cls-6"/><path d="M67.22 22.49c-2.74 0-4.73-1.07-5.76-3.1l-.05-.11.05-.11a285.06 285.06 0 0 0 5.43-13.6 7.18 7.18 0 0 0-3.58 4.5l-.08.25-.25-.09a2.84 2.84 0 0 1-1.8-2.02v-.1c.66-2.98 3.81-4.91 8.03-4.91 5.33 0 9.05 3.15 9.05 7.67 0 6.2-5.16 11.64-11.04 11.64Zm-2.51-2.71c.51.11 1.04.17 1.56.17 5.15 0 9.45-4.74 9.45-10.36 0-2.98-2.06-4.75-5.51-4.75h-.13c-.43 0-.87.04-1.29.12.72.29 1.39.67 2.02 1.13l.19.14-.12.2a66.63 66.63 0 0 0-3.57 6.73c-1.96 4.11-2.51 5.88-2.59 6.64Z" class="cls-5"/><path d="M69.2 3.43c5.18 0 8.8 3 8.8 7.42 0 5.98-5.06 11.39-10.79 11.39-2.65 0-4.56-1.04-5.53-2.97A250.8 250.8 0 0 0 67.3 5.09a7.36 7.36 0 0 0-4.25 4.9 2.6 2.6 0 0 1-1.64-1.84c.62-2.83 3.69-4.72 7.78-4.72M66.26 20.2h.05c5.25 0 9.65-4.93 9.65-10.61 0-3.15-2.22-5-5.76-5h-.13c-.73 0-1.45.11-2.15.32.98.31 1.91.78 2.73 1.38a70.37 70.37 0 0 0-3.59 6.75c-1.87 3.93-2.62 6.07-2.62 6.94.59.15 1.21.23 1.82.23m2.93-17.27c-4.34 0-7.59 2.01-8.27 5.11l-.02.11.02.11a3.09 3.09 0 0 0 1.95 2.2l.5.19.15-.51a7.09 7.09 0 0 1 2.88-4.01 274.03 274.03 0 0 1-5.19 12.94l-.1.22.11.21c1.07 2.12 3.14 3.24 5.98 3.24 6.01 0 11.29-5.56 11.29-11.89 0-4.66-3.83-7.92-9.3-7.92Zm.49 2.16.39-.01h.12c3.3 0 5.27 1.68 5.27 4.5 0 5.48-4.19 10.11-9.15 10.11h-.05c-.43 0-.86-.04-1.28-.12.14-.77.7-2.5 2.53-6.33a71.75 71.75 0 0 1 3.56-6.71l.24-.39-.37-.27c-.4-.29-.82-.55-1.26-.78Z" class="cls-6"/></g></svg>