<svg xmlns="http://www.w3.org/2000/svg" id="b" viewBox="0 0 546.12 186.03"><defs><style>.d,.e,.g{stroke-width:0}.d,.h{fill:#0076be}.e{fill:#009ada}.g{fill:#ee3124}.h{stroke:#0076be;stroke-miterlimit:10;stroke-width:.5px}</style></defs><g id="c"><path d="m535.5 49.3 1.92-13.1a394.28 394.28 0 0 0-117.59.5 30.12 30.12 0 0 1 6.79 12.38 381.08 381.08 0 0 1 108.88.22M427.35 60.63a25.46 25.46 0 0 1-6.83 14.03 353.82 353.82 0 0 1 114.66 5.32l2.75-12.95a366.82 366.82 0 0 0-110.58-6.4M137.98 111.87c3.16-.56 6.32-1.08 9.48-1.62 10.57-1.8 21.14-3.56 31.71-5.22l-1.03-24.07c-6.1.72-12.2 1.47-18.3 2.24l-2.38-57.35c-7.63.27-15.26.59-22.89.94a160738.66 160738.66 0 0 0 3.41 85.08M217.71 101.18c20.7-3.2 33.63-19.48 32.55-41.56-1.08-22.17-15.25-36.98-35.76-37-21.42.02-34.1 16.45-33 42.2 1.08 25.4 15.34 39.59 36.21 36.36m-2.66-54.31c6.04-.29 10.26 5.5 10.68 14.53.41 8.91-3.26 15.13-9.2 15.77-6.05.64-10.16-4.74-10.58-14.12-.42-9.5 3.24-15.9 9.1-16.18M264.84 44.3l2.42 48.4a2441 2441 0 0 1 22.89-2.65l-2.42-46.32c3.12-.07 6.25-.12 9.37-.17l3.27-.05-1-18.66-3.24-.05c-15.06-.32-30.13-.52-45.2-.56l1 20.47c4.3-.15 8.6-.3 12.91-.42M306.08 43.45c3.22-.04 6.43-.08 9.65-.1.8 14.7 1.61 29.32 2.42 43.88 7.63-.76 15.26-1.5 22.89-2.18l-2.42-41.8c4.22 0 8.43.02 12.64.04l-1-16.8c-15.04-.65-30.1-1.15-45.15-1.52-1.1-.02-2.19-.06-3.28-.09l1 18.61 3.25-.04M390.57 82.37c11.54-.95 20.65-4.7 26.28-10.43a21.47 21.47 0 0 0 6.26-17c-.13-1.8-.45-3.53-.93-5.2a26.5 26.5 0 0 0-7.74-12.18c-6.32-5.79-15.72-9.59-27.08-10.4-21.42-1.54-34.1 9.47-33 28.06 1.08 18.36 15.34 28.88 36.21 27.15m8.01-27.45c.42 6.21-3.25 10.38-9.2 10.6-6.04.2-10.15-3.76-10.57-10.41-.42-6.73 3.24-11.06 9.1-10.91 6.04.15 10.25 4.43 10.67 10.72M176.63 119.75c-9.9 1.84-19.8 3.76-29.67 5.76a4823.37 4823.37 0 0 1-13.93 51.74c7.72-.95 15.44-1.85 23.16-2.7l1.4-7.87c4.69-.57 9.37-1.13 14.06-1.66l2.34 7.67c7.17-.7 14.35-1.37 21.52-2l1.89-.17-2.27-5.69a2055.93 2055.93 0 0 0-18.5-45.08m-15.2 22.9.6-4.8.48-5.16 1.06 4.83 1.05 4.63 3.17 10.32c-2.68.37-5.36.74-8.03 1.13l1.66-10.94M242.5 108.73c-1.82 9.7-3.66 19.34-5.49 28.9a3017.4 3017.4 0 0 0-9.16-26.66 1859.2 1859.2 0 0 0-30.2 5c1 15.78 1.99 31.66 2.98 47.6l.42 6.64 1.89-.16c6.47-.54 12.95-1.05 19.43-1.52l-1.3-21.62c-.2-3.37-.36-5.9-.56-7.65-.11-.33-.3-2-.76-4.9-.14-.83-.31-2.08-.5-3.66l1.14 3.57 1.5 4.83 2.38 7.47c2.54 7.01 5.09 14.1 7.63 21.3 4.67-.32 9.34-.61 14.02-.9a10514.5 10514.5 0 0 0 5.88-30.28c.2-1.26.47-3.07.8-5.41.2-1.6.43-3.2.64-4.8-.03 5.89-.09 8.03-.04 10.52.04 2.3.1 4.88.26 7.72l1.26 21.75c7.2-.39 14.42-.74 21.64-1.05l-3.42-60.96c-10.15 1.34-20.3 2.76-30.43 4.27M306.42 146.72l-.35-6.6c6.14-.37 12.3-.7 18.44-1l-.84-16.18c-6.15.44-12.3.91-18.45 1.41l-.33-6.1c6.73-.61 13.46-1.18 20.2-1.71l-.95-18.11c-14.2 1.47-28.4 3.1-42.58 4.91l3.41 61.73c14.38-.54 28.75-.92 43.13-1.12l-.94-18.15c-6.91.26-13.83.57-20.74.92M380.87 135.51c3.03-2.07 3.99-3.05 5.62-5.43 2.84-3.9 4.33-9.3 4.08-14.43-.34-7.28-4.37-14.46-10.05-17.76-5.3-3.02-9.94-3.71-19.95-2.88-9.51.8-19.03 1.67-28.54 2.61l3.41 66.24c7.5-.08 15-.11 22.49-.1l-1.07-21.44 3.76-.1c3.39 7.1 6.77 14.31 10.16 21.62 7.96.07 15.91.2 23.87.38l1.73.03-1.9-3.58c-4.54-8.54-9.07-16.93-13.6-25.16m-23-22.5c3.12-.2 4.04-.14 5.36.5 1.7.83 2.9 2.74 3.02 5.12.12 2.5-1.05 4.93-2.85 5.74-.89.55-3.17.86-5.65.98l-1.74.08-.62-12.26 2.48-.16M396.81 92.34c1.06 22.18 2.12 44.46 3.17 66.82l.25 5.19 1.72.05c7.1.18 14.2.4 21.3.68L419.83 91c-7.67.4-15.34.84-23.02 1.33M477.6 135.28c-3.75 6.15-7.84 8.8-12.96 8.62-6.96-.26-11.9-6.62-12.3-15.58-.4-9.08 4.09-15.1 11.32-15.12 4.76 0 8.97 2.11 13.3 6.91l-1.19-27.32c-6.3-3.91-11.95-5.37-18.27-5.17-18.5.75-30.33 17.24-29.27 40.37 1.06 23.06 14.08 39.63 32.02 40.85 5.43.33 12.2-1.15 16.35-3.44l.56-.3c.35-.34.97-.65 1.68-1.2l-.39-8.9-.84-19.72M525.4 88.68c-9.88-.07-19.77-.06-29.67.03a15703.17 15703.17 0 0 1-13.97 79.54l.5.04c7.58.54 15.15 1.12 22.71 1.75l1.4-12.23c4.7.34 9.38.69 14.07 1.06l2.33 12.74c7.8.73 15.57 1.5 23.34 2.34a8160.9 8160.9 0 0 0-20.7-85.27m-13.05 24.3 1.04 7.67c1.06 5.74 2.12 11.5 3.17 17.28l-8.03-.42 1.67-16.97.6-7.47.48-8.1 1.06 8.02" class="g"/><path d="m437.32 55.93.1 1.16c-1.4.12-2.8.25-4.19.4l-.1-1.14 1.09-.12-.5-1.11-2.22.25-.35 1.2 1.14-.13.1 1.13-3.76.42-.12-1.11 1.06-.13a763 763 0 0 1 1.25-4.6l-1.15.15-.1-1.12c1.87-.27 3.76-.51 5.64-.74l.1 1.15-1.17.13c.73 1.43 1.45 2.86 2.16 4.3l1.02-.1m-4.04-1.75-.9-1.94-.59 2.11 1.49-.17M437.75 57.06l-.09-1.16 1.22-.11-.32-4.57-1.23.14-.09-1.17 4.76-.51.07 1.18-1.26.13.3 4.61a352 352 0 0 1 2.51-.2l-.12-2.17 1.68-.13.17 3.38c-2.53.16-5.07.35-7.6.58M445.84 56.45l-.06-1.2 1.22-.07-.22-4.73-1.23.1-.06-1.2c1.59-.14 3.17-.27 4.76-.39l.05 1.23-1.27.09.2 4.77c.83-.05 1.67-.1 2.51-.13l-.07-2.25 1.67-.09.1 3.5c-2.53.1-5.07.22-7.6.37M457.3 55.96l-.04-2.53 1.46-.05c.02.47.16.8.43 1.02.26.22.56.32.9.31.26 0 .48-.09.65-.25a.75.75 0 0 0 0-1.15c-.17-.15-.5-.32-.97-.51a7.9 7.9 0 0 1-2.03-1.04 1.6 1.6 0 0 1-.56-1.26c-.01-.65.22-1.17.69-1.55.47-.38 1-.59 1.6-.61.7-.04 1.24.18 1.62.63v-.63l1.46-.05v2.3l-1.46.05a1.18 1.18 0 0 0-.42-.8 1.2 1.2 0 0 0-.82-.27 1.1 1.1 0 0 0-.6.2c-.17.12-.25.26-.25.44 0 .16.07.3.2.44.14.13.55.3 1.2.54.65.23 1.14.44 1.48.64a2.08 2.08 0 0 1 1.1 1.88c0 .75-.25 1.31-.74 1.7-.48.38-1.06.57-1.73.58a2.12 2.12 0 0 1-1.73-.7v.64l-1.43.03M465.2 55.87v-1.3h1.29l.05-5.1-1.3.03-.01 1.79-1.48.02v-3.06c2.63-.09 5.25-.14 7.87-.15l-.07 3.15h-1.46l.04-1.82-1.34.01-.09 5.14 1.28.01-.02 1.32c-1.59-.02-3.17-.04-4.76-.04M480.23 54.88l-.06 1.37-4.17-.18.05-1.35 1.09.04-.35-1.39-2.22-.05-.5 1.35 1.14.03-.04 1.34c-1.25-.04-2.5-.08-3.76-.1l.03-1.33 1.06.02c.6-1.72 1.2-3.46 1.82-5.2h-1.15l.04-1.34c1.89 0 3.77 0 5.66.04l-.06 1.36-1.16-.03 1.57 5.38 1.01.04m-3.75-2.69-.63-2.41-.85 2.38 1.48.03M489.36 55.42l-.1 1.4-2.58-.19c-.56-1.25-1.12-2.49-1.7-3.72l-.97-.05-.13 2.2 1.07.07-.09 1.38c-1.47-.1-2.94-.18-4.42-.25l.07-1.37 1.16.06.28-5.38-1.18-.04.07-1.37c1.74.04 3.48.1 5.22.16.98.04 1.68.3 2.08.8.4.5.57 1.05.53 1.65-.07.95-.61 1.6-1.63 1.98.41.86.82 1.72 1.22 2.6l1.1.07m-5.27-3.86.76.03c.95.05 1.44-.25 1.48-.9.02-.32-.07-.57-.28-.73-.2-.17-.5-.26-.88-.28l-.97-.04-.11 1.92M492.75 57.12l.11-1.42 1.04.09.48-5.6-1.06-.07.12-1.43c1.31.08 2.63.17 3.94.27.88.07 1.52.17 1.94.3.41.14.76.41 1.02.83.27.42.38.89.33 1.42-.09.84-.55 1.39-1.39 1.66.99.48 1.43 1.22 1.32 2.21a2.33 2.33 0 0 1-1.91 2.11c-.5.1-1.2.1-2.1 0l-3.84-.37M496.1 56l.62.06c.57.06.97.02 1.2-.13.24-.14.38-.42.42-.83.05-.44-.04-.75-.27-.95-.23-.2-.6-.32-1.14-.37l-.62-.05-.2 2.27m.33-3.71.63.05c.43.04.76 0 .98-.14.22-.13.34-.38.38-.75.03-.34-.04-.6-.23-.75-.19-.15-.53-.25-1.03-.3-.18 0-.37-.02-.55-.04l-.18 1.93M507.32 49.71a4.5 4.5 0 0 1 3.33 1.72c.73.99 1 2.13.84 3.4a4.55 4.55 0 0 1-1.67 3.07 4.47 4.47 0 0 1-3.57.85 4.6 4.6 0 0 1-3.31-1.78c-.71-.99-1.01-2.07-.88-3.27a4.42 4.42 0 0 1 1.6-3.03 4.71 4.71 0 0 1 3.66-.96m-.2 1.6a2.2 2.2 0 0 0-1.75.58c-.52.46-.83 1.17-.94 2.14-.1.86.05 1.57.44 2.14.39.57.9.9 1.56.98.65.08 1.23-.1 1.74-.55.52-.45.84-1.15.96-2.11a3.2 3.2 0 0 0-.4-2.18c-.37-.58-.9-.91-1.6-1M511.85 59.45l.2-1.51c.37.05.75.1 1.12.17l.81-5.94-1.14-.15.2-1.5c1.2.14 2.4.3 3.6.46.79 2.02 1.55 4.06 2.3 6.12l.62-4.14-1.1-.16.22-1.53 3.84.57-.25 1.55-1.19-.2-1.19 7.66-1.85-.32c-.86-2.46-1.75-4.88-2.66-7.28l-.71 5.09 1.05.16-.22 1.53c-1.21-.2-2.43-.4-3.65-.58M522.67 53.45l.25-1.55c1.36.21 2.71.43 4.07.66l-.27 1.57-.83-.14-.7 4.18c-.1.56-.14.97-.14 1.22s.07.48.23.67c.15.2.36.32.64.37.28.06.53.03.74-.08a1 1 0 0 0 .46-.5c.1-.22.2-.68.33-1.38l.7-4.09-.82-.14.27-1.57 3.4.6-.3 1.58-1.03-.19-.83 4.68c-.11.63-.22 1.09-.33 1.37a2.12 2.12 0 0 1-1.62 1.27c-.44.1-.92.09-1.45-.02a4.02 4.02 0 0 1-1.51-.6c-.4-.27-.68-.59-.84-.95a2.7 2.7 0 0 1-.25-1.02c-.01-.32.04-.86.16-1.61l.68-4.16-1.01-.17M530.07 62.8l.58-3.2 1.41.3c-.1.59-.04 1.05.17 1.38.2.33.46.53.79.6a.8.8 0 0 0 .7-.15c.21-.17.34-.38.4-.66.05-.29.01-.55-.12-.78-.13-.24-.4-.53-.81-.88a7.94 7.94 0 0 1-1.72-1.8 2.47 2.47 0 0 1-.22-1.72c.15-.82.5-1.41 1.04-1.78.55-.36 1.12-.49 1.71-.38.67.13 1.14.53 1.4 1.2l.15-.8 1.43.3-.57 2.89-1.42-.3c.05-.46-.03-.83-.2-1.12a1.09 1.09 0 0 0-.74-.52.89.89 0 0 0-.63.1.7.7 0 0 0-.35.5c-.03.19 0 .39.1.59.1.2.44.52 1.03.98.56.44.98.82 1.26 1.14.28.33.48.71.59 1.16.11.44.12.93.01 1.46-.18.94-.56 1.6-1.13 1.96a2.3 2.3 0 0 1-1.81.32 2.02 2.02 0 0 1-1.5-1.29l-.15.8-1.4-.3M145.85 120.05l1.24-.24c.17-1.67.3-3.35.36-5.05l-8.7 1.5a4.41 4.41 0 0 1-3.57-.93c-1-.8-1.6-2-1.65-3.28l-.18-4.41c-4.84 13.63-16.65 24.85-32.08 30.9l9.43 29.03-33.35-24.22c-.77.02-1.55.05-2.33.05a76 76 0 0 1-4.7-.17l-33.5 24.34 9.73-29.96c-17.89-7.76-30.45-22.6-32.08-39.95l-.49-.36h.46c-.1-1.15-.17-2.31-.17-3.49 0-27.38 27.2-49.58 60.75-49.58 26.25 0 48.61 13.6 57.1 32.63l-.41-10.19a73.76 73.76 0 1 0-57.95 119.36 73.6 73.6 0 0 0 59.26-29.9c2.85-10.55 5.71-21.25 8.55-32.04a5.57 5.57 0 0 1 4.28-4.04" class="d"/><path d="M70.32 143.23c1.55.1 3.11.17 4.7.17.78 0 1.56-.03 2.33-.05l-3.6-2.62-3.43 2.5ZM132.95 97.73 96.6 124.14l4.68 14.4c15.43-6.05 27.24-17.27 32.08-30.9l-.4-9.91M46.55 137.62l4.37-13.47-36.45-26.49c1.63 17.35 14.19 32.2 32.08 39.96M132.12 76.87c-8.49-19.04-30.85-32.64-57.1-32.64-33.55 0-60.75 22.2-60.75 49.59 0 1.17.07 2.33.17 3.49h45.2l14.12-43.43 14.1 43.42h45.08l-.82-20.43m-24.09-9.82c-10.59-8.44-23.85-10.41-23.98-10.43l1.23-8.83c.63.09 15.76 2.28 28.31 12.3l-5.56 6.96Z" class="e"/><path d="M84.05 56.62c.13.02 13.4 1.98 23.98 10.43l5.56-6.96c-12.56-10.02-27.68-12.21-28.32-12.3l-1.22 8.83Z" style="fill:#7dcef1;stroke-width:0"/><path d="M135.3.58h1.91l6 9.71V.58h1.56V12.6h-1.83l-6.09-9.7v9.7h-1.55V.58ZM152.34.58h8.72v1.47h-7.14V5.7h6.6v1.4h-6.6v4.07h7.27v1.43h-8.85V.58ZM168.1.58h5.2c1.42 0 2.43.42 3.03 1.26.35.5.52 1.07.52 1.72a2.7 2.7 0 0 1-.64 1.86c-.23.26-.55.5-.97.7.62.24 1.08.5 1.39.8.54.53.8 1.25.8 2.17 0 .78-.24 1.48-.73 2.1-.73.94-1.89 1.41-3.48 1.41h-5.12V.58Zm4.6 5.08c.69 0 1.23-.1 1.62-.29.6-.3.9-.84.9-1.62 0-.78-.32-1.31-.96-1.58a4.4 4.4 0 0 0-1.62-.23h-2.94v3.72h3Zm.54 5.55c1.01 0 1.73-.29 2.16-.87.27-.36.4-.8.4-1.32 0-.88-.39-1.47-1.18-1.79a4.52 4.52 0 0 0-1.66-.25h-3.26v4.23h3.54ZM184.3.58h5.47c.9 0 1.64.13 2.22.4 1.11.51 1.67 1.46 1.67 2.84a3.2 3.2 0 0 1-.45 1.77c-.3.46-.71.82-1.25 1.1.47.2.83.44 1.06.76.24.3.37.81.4 1.51l.06 1.61c.02.46.05.8.11 1.03.1.38.28.62.53.73v.27h-2a1.5 1.5 0 0 1-.13-.4 7.63 7.63 0 0 1-.08-.95l-.1-2c-.04-.79-.32-1.32-.85-1.58-.3-.15-.78-.22-1.43-.22h-3.6v5.15h-1.63V.58Zm5.3 5.5c.74 0 1.32-.15 1.76-.45s.64-.86.64-1.66c0-.85-.3-1.44-.9-1.75a2.9 2.9 0 0 0-1.3-.24h-3.87v4.1h3.66ZM204.5.58h1.84l4.37 12.02h-1.79L207.67 9h-4.72l-1.3 3.6h-1.68L204.5.58Zm2.7 7.1-1.85-5.32-1.92 5.31h3.77ZM218.02 8.72c.03.69.19 1.24.46 1.66.52.8 1.44 1.2 2.76 1.2a4.7 4.7 0 0 0 1.6-.26c.94-.34 1.4-.95 1.4-1.82 0-.65-.19-1.12-.59-1.4a5.92 5.92 0 0 0-1.88-.71l-1.58-.37a7.02 7.02 0 0 1-2.2-.8 2.54 2.54 0 0 1-1.1-2.25c0-1.08.36-1.96 1.09-2.66a4.3 4.3 0 0 1 3.1-1.04c1.22 0 2.26.31 3.12.92.86.6 1.29 1.58 1.29 2.92h-1.54a3.1 3.1 0 0 0-.5-1.49c-.47-.62-1.28-.94-2.42-.94-.92 0-1.59.2-1.99.6-.4.41-.6.88-.6 1.42 0 .59.24 1.02.71 1.3.31.17 1.02.38 2.12.64l1.63.39c.8.19 1.4.44 1.83.76a2.89 2.89 0 0 1 1.1 2.45c0 1.33-.46 2.28-1.41 2.86-.94.57-2.04.86-3.3.86-1.45 0-2.6-.39-3.42-1.15a3.91 3.91 0 0 1-1.21-3.09h1.53ZM232.91.58h1.6v5.88l6.01-5.88h2.28l-5.14 4.85 5.24 7.17h-2.13l-4.3-6.04-1.97 1.85v4.2h-1.59V.57ZM252.39.58h1.84l4.36 12.02h-1.78L255.54 9h-4.72l-1.3 3.6h-1.67L252.39.58Zm2.7 7.1-1.85-5.32-1.93 5.31h3.78ZM273.36.58h1.63v10.6h6.03v1.42h-7.66V.58ZM297.37 2.3a6.63 6.63 0 0 1 1.2 4.08c0 1.8-.46 3.29-1.37 4.48a5.43 5.43 0 0 1-4.58 2.1c-1.85 0-3.3-.61-4.36-1.84a6.92 6.92 0 0 1-1.42-4.47c0-1.62.4-3.02 1.21-4.17 1.04-1.49 2.57-2.23 4.6-2.23 2.13 0 3.7.68 4.72 2.05Zm-1.44 7.66c.64-1.03.96-2.21.96-3.55 0-1.42-.37-2.55-1.1-3.42a3.79 3.79 0 0 0-3.04-1.3c-1.24 0-2.26.44-3.04 1.3-.8.85-1.18 2.1-1.18 3.77 0 1.34.33 2.46 1 3.37.68.92 1.77 1.38 3.29 1.38 1.43 0 2.47-.52 3.11-1.55ZM314.03.58V2h-4.06v10.6h-1.64V2h-4.05V.58h9.75ZM329.05.58V2h-4.06v10.6h-1.64V2h-4.06V.58h9.75ZM335.48.58h8.73v1.47h-7.15V5.7h6.6v1.4h-6.6v4.07h7.27v1.43h-8.85V.58ZM351.48.58h5.47c.9 0 1.64.13 2.22.4 1.11.51 1.67 1.46 1.67 2.84 0 .72-.15 1.3-.45 1.77-.3.46-.71.82-1.25 1.1.47.2.83.44 1.06.76.24.3.37.81.4 1.51l.06 1.61c.02.46.05.8.11 1.03.1.38.28.62.53.73v.27h-2c-.06-.1-.1-.23-.13-.4a7.43 7.43 0 0 1-.08-.95l-.1-2c-.04-.79-.32-1.32-.85-1.58-.3-.15-.78-.22-1.43-.22h-3.6v5.15h-1.63V.58Zm5.3 5.5c.73 0 1.32-.15 1.76-.45.43-.3.64-.86.64-1.66 0-.85-.3-1.44-.9-1.75a2.9 2.9 0 0 0-1.3-.24h-3.87v4.1h3.66ZM366.95.58h1.9l3.45 5.78 3.46-5.78h1.92l-4.56 7.18v4.84h-1.63V7.76L366.95.58Z" class="h"/></g></svg>