<svg xmlns="http://www.w3.org/2000/svg" id="b" viewBox="0 0 303.666 144.144"><defs><clipPath id="d"><path d="M44.451 50.101c0 19.029 15.429 34.464 34.462 34.464s34.461-15.435 34.461-34.464-15.425-34.467-34.461-34.467-34.462 15.435-34.462 34.467" class="ca"/></clipPath><clipPath id="e"><path d="M44.451 15.634h68.923v68.931H44.451z" class="ca"/></clipPath><style>.h{fill:#fefdf8}.i{fill:#ffd000}.r{fill:#fef7d8}.ai{fill:#fefcf4}.ax{fill:#ffd000}.bc{fill:#fefdf9}.ca{fill:none}.cl{fill:#fef6d3}.cm{fill:#fefcf2}.cu{fill:#fef8dd}.dg{fill:#fefefc}.do{fill:#fef9e4}.dt{fill:#000c8c}.dz{fill:#79858d}.ed{fill:#fefefd}.ef{fill:#fefdf7}.ev{fill:#fefbef}.ey{fill:#fef9e1}.fb{fill:#fefbec}.fn{fill:#fefcf1}.gb{fill:#fefdfa}.gi{fill:#fefaea}.gj{fill:#fefae7}.ha{fill:#fefefe}.hb{fill:#fef5cb}.he{fill:#fef3bf}.ht{fill:#df271c}</style></defs><g id="c"><path d="M59.026 121.519a207.036 207.036 0 0 1-13.566-5.021c7.294 4.605 16.565 8.724 26.442 11.658 4.524 1.407 8.986 2.481 13.246 3.178 1.52.252 2.919.448 4.262.593l.384-2.852c-9.197-1.369-19.759-3.902-30.768-7.556" class="ax"/><path d="m279.721 87.756.311-1.81-12.669.744 12.802-51.745-1.99-.167-13.317 53.829 14.863-.851zM209.366 68.879l11.372-.003-.002-1.922-11.383.006.013 1.919zM290.429 79.216l-7.767.305-.317 1.846 5.95-.233.859 6.072 12.655-.746-.33-1.773-10.192.602-.858-6.073zM230.366 83.499c4.033 4.607 9.436 7.097 15.331 7.097.43 0 .863-.015 1.298-.041 4.831-.294 9.651-2.234 13.365-6.012-3.306 2.633-7.284 3.853-11.231 4.094-.435.026-.868.039-1.3.039-5.895 0-11.297-2.488-15.329-7.095-4.769-5.449-7.287-13.288-7.28-22.669 0-10.286 2.692-19.385 7.941-24.796-.366.284-.725.58-1.075.895-5.92 5.326-8.997 14.861-8.999 25.818-.006 9.382 2.511 17.221 7.28 22.669M121.592 117.774c.158-1.098.324-2.07.623-3.136l3.889-13.501-1.608.09-3.964 13.768 1.06 2.778Z" class="dz"/><path d="m187.94 89.985-.989.059.386 3.128 35.113-2.06v-1.794l-32.979 1.937-.898-65.809-2.162-.224.749 59.595.78 5.168zM209.23 46.421l12.722.769-.001-2.042-12.734-.77.013 2.043zM287.571 57.997c-.115-.889-.317-2.793-.397-3.697l-1.373 8.519.411 3.294h2.371l-1.011-8.116ZM276.556 92.638l-.121 4.439 2.117 4.509a23.695 23.695 0 0 1-.086-2.722l.173-6.344-2.083.117ZM296.933 97.018c-.194.013-.812.105-.836.714-.004.158-.006.209.571.327l1.622.35c.412.087.796.198 1.156.332l.239-.75c-.974-.733-1.857-1.041-2.752-.974M245.977 55.156l-.143 14.787 6.233-.011a5.383 5.383 0 0 1-.556 1.098 5.34 5.34 0 0 0 2.69-3.017l-6.232.013.122-12.794-2.113-.075ZM294.238 107.574c.303-.036 1.098-.271 1.124-.944.008-.288.009-.333-.649-.422l-1.492-.199c-3.396-.431-5.358-2.895-5.245-6.594.086-2.753 1.023-4.995 2.397-6.664-1.533 1.019-3.034 2.837-3.85 4.797l-.209 6.886c.508 1.089 1.463 2.251 2.518 2.807l.736-2.238 1.109 1.047c1.245 1.136 2.445 1.646 3.56 1.524M152.256 93.438l-13.367.783-10.376-31.731c-.64-2.345-1.371-4.818-1.768-7.04-.056 2.083-.403 8.843-.403 8.843l10.415 31.845 15.027-.882.473-1.819ZM254.85 51.887c-.921-2.537-2.657-4.061-4.767-4.183-1.484-.073-2.825.427-3.982 1.514-.32.301-.619.648-.904 1.024a5.136 5.136 0 0 1 2.753-.622c1.989.115 3.639 1.492 4.594 3.776l5.006.13 9.768-4.884s-.62-1.607-.642-1.682l-11.568 5.633-.258-.708ZM249.765 121.217c-.71.096-1.411.143-2.096.143-3.132 0-5.957-.993-8.105-2.882-2.729-2.399-4.158-6.007-4.132-10.434.026-4.439 1.353-8.634 4.027-11.531-3.759 2.784-5.901 7.539-6.127 12.775l-.006 1.452c.139 4.067 1.539 7.4 4.104 9.655 2.149 1.889 4.972 2.883 8.105 2.883.685 0 1.386-.049 2.096-.145 3.718-.501 6.914-1.978 9.268-4.539-2.026 1.501-4.441 2.258-7.134 2.622M222.171 124.493l-.023-28.783-2.134.121.023 30.58 11.105-1.49.005-1.631-8.976 1.203zM264.342 118.839l.514-25.538-2.096.119-.143 7.046c.311 1.299.589 3.051.503 4.788-.066 1.328-.205 2.62-.718 4.2l-.194 11.303 8.741-1.17.038-1.637-6.645.889ZM199.684 127.507l-.358-30.503-2.154.121.378 32.299 21.01-2.814-.002-1.631-18.874 2.528zM294.694 115.14a11.77 11.77 0 0 1-1.56.102c-2.026 0-4.138-.494-5.878-1.401l-.512-.268 1.838-5.575c-.011-.011-.025-.021-.036-.03l-1.11-1.047-1.316 3.993-.113 3.697-1.111.149-.222.765.93.465c1.64.757 3.552 1.17 5.398 1.17.528 0 1.049-.034 1.558-.102 2.207-.298 4.541-1.466 6.209-3.488-1.281.855-2.701 1.386-4.076 1.571M278.292 116.971l-5.17-10.35c.043.678-.083 6.034-.083 6.034l3.119 6.233 7.844-1.053.051-1.638-5.762.774ZM174.43 130.894l-.791-32.443-2.177.124.834 34.236 23.515-3.151-.022-1.629-21.359 2.863zM122.776 95.163l-26.364 1.544 9.085-79.872-1.892-.196-9.326 81.987 28.397-1.665.1-1.798zM89.889 142.227l5.532-39.355-1.88.105-5.786 41.167 18.528-2.482.109-1.647-16.503 2.212zM154.98 133.497l-1.166-33.921-2.194.124 1.226 35.714 14.836-1.983-.045-1.627-12.657 1.693zM145.575 56.591c.288-2.633.619-5.308 1.187-7.818l6.259-27.012-2.181-.326-6.837 29.241c.425 1.578 1.573 5.916 1.573 5.916M185.785 91.471l-19.117 1.122-3.652-36.338c-.211 1.194-1.656 7.082-1.656 7.082l3.174 31.173 21.525-1.264-.273-1.776ZM136.057 136.035l-2.71-17.84c-.081.299-1.646 5.13-1.646 5.13l2.223 14.627 15.58-2.087-.366-1.582-13.08 1.752ZM117.315 138.55l-7.023-15.426a64.243 64.243 0 0 1-.836-2.362c-.023.565-.396 6.263-.396 6.263l6.121 13.442 10.31-1.386.552-1.705-8.728 1.174Z" class="dz"/><path d="m106.869 14.755 28.242 2.927 10.841 40.237.618.011c.345-3.209.684-6.615 1.385-9.718l6.609-28.512 22.935 2.377 10.442 67.91-20.131 1.181-3.88-38.095-.41-.013c-.358 2.343-.71 4.778-1.315 7.023l-8.289 31.898-14.011.823-10.214-31.234c-.883-3.243-1.673-6.3-1.987-9.56l-.868-.026c-.077 3.057-.147 6.206-.322 9.252l-1.816 32.456-26.988 1.582 9.159-80.518ZM189.766 23.349l34.162 3.541.011 16.953-14.73-.864.037 6.106 13.463.582.015 15.9-13.38-.013.04 6.164 15.051-.229.003 16.354-33.765 1.981-.907-66.475zM270.453 53.992c-.252 8.715-.38 15.974-4.699 22.833-3.961 6.336-10.116 10.057-16.136 10.423-6.119.377-11.83-1.974-16.076-6.826-4.366-4.988-7.117-12.538-7.112-22.221.002-19.91 10.73-30.896 23.867-29.502 6.858.735 15.783 6.454 18.464 16.039l-12.742 6.206c-1.047-2.887-3.053-4.496-5.366-4.629-5.264-.29-8.277 6.048-8.323 13.058-.045 6.36 2.75 12.261 7.498 12.186a6.083 6.083 0 0 0 5.799-4.937l-6.441.012.128-13.403 21.138.761ZM285.272 66.082l2.494-15.454.424.025c.156 2.166.309 4.396.588 6.55l1.107 8.879h-4.613Zm-2.373 12.061 8.649-.341.857 6.061 11.261-.665-9.078-48.983-12.858-1.33-12.953 52.362 13.032-.766 1.091-6.338Z" class="ht"/><path d="m154.988 97.712 13.747-.778.918 33.275-13.488 1.805-1.177-34.302zM174.824 96.587l12.559-.708.399 21.756 9.875-1.081.132 9.884-22.165 2.97-.8-32.821zM200.524 95.139l11.104-.627.134 20.494 8.766-.957.017 9.34-19.66 2.633-.361-30.883zM223.359 93.844l9.89-.554-.118 28.41-9.749 1.307-.023-29.163zM266.092 91.434l7.492-.426 6.325 13.468.215-.024c-.241-2.046-.501-4.161-.447-6.282l.206-7.519 6.861-.386-.736 24.344-6.794.912-6.193-12.374-.228.021c.209 1.729.392 3.35.35 5.023l-.194 8.173-7.379.987.522-25.916ZM290.413 105.518l.333.314c1.168 1.068 2.58 1.88 4.102 1.705.644-.073 1.684-.529 1.725-1.591.034-1.055-.825-1.055-1.418-1.147l-1.311-.175c-2.601-.33-4.773-2.115-4.656-5.897.179-5.767 4.334-9.225 8.306-9.446 2.043-.113 3.865.443 5.524 1.733l-1.936 6.095c-1.057-.904-2.271-1.59-3.671-1.479-.573.043-1.422.39-1.462 1.363-.025.881.783.944 1.277 1.057l1.452.313c2.684.569 4.539 2.296 4.39 6.205-.211 5.465-4.087 8.671-7.933 9.189-2.29.307-4.959-.147-7.035-1.228l2.311-7.01ZM96.803 100.996l17.996-1.017 7.314 19.159.418-.034c.211-1.642.42-3.383.872-4.993l4.279-14.861 15.727-.887 7.931 34.302-14.179 1.899-2.925-19.238-.28.026c-.232 1.215-.458 2.482-.861 3.675l-5.452 16.812-9.385 1.262-6.816-14.966c-.591-1.546-1.108-3.006-1.328-4.594l-.561.049c-.036 1.52-.073 3.081-.173 4.601l-1.07 16.243-17.091 2.292 5.585-39.73ZM250.562 91.875c-7.46.411-13.864 6.579-13.919 15.463-.052 8.993 6.169 13.497 13.565 12.496 7.099-.959 12.753-6.686 12.909-15.033.158-8.24-5.4-13.324-12.555-12.926" class="dt"/><path d="m249.5 102.975 2.14-7.319 2.392 6.965 6.101-.501-4.705 4.539 2.098 6.302-5.426-3.173-6.372 6.085 2.413-8.257-7.035-4.033 8.394-.608z" style="fill:#fff"/><g style="clip-path:url(#d)"><g style="clip-path:url(#e)"><path d="M44.451 15.634h68.923v68.931H44.451z" class="i"/><circle cx="70.416" cy="39.692" r="26.813" class="i"/><circle cx="70.416" cy="39.692" r="26.708" style="fill:#ffd001"/><circle cx="70.416" cy="39.692" r="26.602" style="fill:#ffd003"/><circle cx="70.416" cy="39.692" r="26.497" style="fill:#ffd104"/><circle cx="70.416" cy="39.692" r="26.391" style="fill:#ffd105"/><circle cx="70.416" cy="39.692" r="26.286" style="fill:#ffd107"/><circle cx="70.416" cy="39.692" r="26.18" style="fill:#ffd108"/><circle cx="70.416" cy="39.692" r="26.074" style="fill:#ffd209"/><circle cx="70.416" cy="39.692" r="25.969" style="fill:#ffd20a"/><circle cx="70.416" cy="39.692" r="25.863" style="fill:#ffd20c"/><circle cx="70.416" cy="39.692" r="25.758" style="fill:#ffd20d"/><circle cx="70.416" cy="39.692" r="25.652" style="fill:#ffd30e"/><circle cx="70.416" cy="39.692" r="25.547" style="fill:#ffd310"/><circle cx="70.416" cy="39.692" r="25.441" style="fill:#ffd311"/><circle cx="70.416" cy="39.692" r="25.335" style="fill:#ffd312"/><circle cx="70.416" cy="39.692" r="25.23" style="fill:#ffd414"/><circle cx="70.416" cy="39.692" r="25.124" style="fill:#ffd415"/><circle cx="70.416" cy="39.692" r="25.019" style="fill:#ffd416"/><circle cx="70.416" cy="39.692" r="24.913" style="fill:#ffd417"/><circle cx="70.416" cy="39.692" r="24.808" style="fill:#ffd419"/><circle cx="70.416" cy="39.692" r="24.702" style="fill:#ffd51a"/><circle cx="70.416" cy="39.692" r="24.597" style="fill:#ffd51b"/><circle cx="70.416" cy="39.692" r="24.491" style="fill:#ffd51d"/><circle cx="70.416" cy="39.692" r="24.385" style="fill:#ffd51e"/><circle cx="70.416" cy="39.692" r="24.28" style="fill:#ffd61f"/><circle cx="70.416" cy="39.692" r="24.174" style="fill:#ffd620"/><circle cx="70.416" cy="39.692" r="24.069" style="fill:#ffd622"/><circle cx="70.416" cy="39.692" r="23.963" style="fill:#ffd623"/><circle cx="70.416" cy="39.692" r="23.858" style="fill:#ffd724"/><circle cx="70.416" cy="39.692" r="23.752" style="fill:#ffd726"/><circle cx="70.416" cy="39.692" r="23.646" style="fill:#ffd727"/><circle cx="70.416" cy="39.692" r="23.541" style="fill:#ffd728"/><circle cx="70.416" cy="39.692" r="23.435" style="fill:#ffd729"/><circle cx="70.416" cy="39.692" r="23.33" style="fill:#ffd82b"/><circle cx="70.416" cy="39.692" r="23.224" style="fill:#ffd82c"/><circle cx="70.416" cy="39.692" r="23.119" style="fill:#ffd82d"/><circle cx="70.416" cy="39.692" r="23.013" style="fill:#ffd82e"/><circle cx="70.416" cy="39.692" r="22.907" style="fill:#ffd930"/><circle cx="70.416" cy="39.692" r="22.802" style="fill:#ffd931"/><circle cx="70.416" cy="39.692" r="22.696" style="fill:#ffd932"/><circle cx="70.416" cy="39.692" r="22.591" style="fill:#ffd933"/><circle cx="70.416" cy="39.692" r="22.485" style="fill:#ffda35"/><circle cx="70.416" cy="39.692" r="22.38" style="fill:#ffda36"/><circle cx="70.416" cy="39.692" r="22.274" style="fill:#ffda37"/><circle cx="70.416" cy="39.692" r="22.169" style="fill:#ffda38"/><circle cx="70.416" cy="39.692" r="22.063" style="fill:#ffda3a"/><circle cx="70.416" cy="39.692" r="21.957" style="fill:#ffdb3b"/><circle cx="70.416" cy="39.692" r="21.852" style="fill:#ffdb3c"/><circle cx="70.416" cy="39.692" r="21.746" style="fill:#ffdb3d"/><circle cx="70.416" cy="39.692" r="21.641" style="fill:#ffdb3f"/><circle cx="70.416" cy="39.692" r="21.535" style="fill:#ffdc40"/><circle cx="70.416" cy="39.692" r="21.43" style="fill:#ffdc41"/><circle cx="70.416" cy="39.692" r="21.324" style="fill:#ffdc42"/><circle cx="70.416" cy="39.692" r="21.218" style="fill:#ffdc43"/><circle cx="70.416" cy="39.692" r="21.113" style="fill:#ffdc45"/><circle cx="70.416" cy="39.692" r="21.007" style="fill:#ffdd46"/><circle cx="70.416" cy="39.692" r="20.902" style="fill:#ffdd47"/><circle cx="70.416" cy="39.692" r="20.796" style="fill:#ffdd48"/><circle cx="70.416" cy="39.692" r="20.691" style="fill:#ffdd4a"/><circle cx="70.416" cy="39.692" r="20.585" style="fill:#ffde4b"/><circle cx="70.416" cy="39.692" r="20.48" style="fill:#ffde4c"/><circle cx="70.416" cy="39.692" r="20.374" style="fill:#ffde4d"/><circle cx="70.416" cy="39.692" r="20.268" style="fill:#ffde4e"/><circle cx="70.416" cy="39.692" r="20.163" style="fill:#ffde50"/><circle cx="70.416" cy="39.692" r="20.057" style="fill:#ffdf51"/><circle cx="70.416" cy="39.692" r="19.952" style="fill:#ffdf52"/><circle cx="70.416" cy="39.692" r="19.846" style="fill:#ffdf53"/><circle cx="70.416" cy="39.692" r="19.741" style="fill:#ffdf54"/><circle cx="70.416" cy="39.692" r="19.635" style="fill:#ffe056"/><circle cx="70.416" cy="39.692" r="19.529" style="fill:#ffe057"/><circle cx="70.416" cy="39.692" r="19.424" style="fill:#ffe058"/><circle cx="70.416" cy="39.692" r="19.318" style="fill:#ffe059"/><circle cx="70.416" cy="39.692" r="19.213" style="fill:#ffe05a"/><circle cx="70.416" cy="39.692" r="19.107" style="fill:#ffe15c"/><circle cx="70.416" cy="39.692" r="19.002" style="fill:#ffe15d"/><circle cx="70.416" cy="39.692" r="18.896" style="fill:#ffe15e"/><circle cx="70.416" cy="39.692" r="18.79" style="fill:#ffe15f"/><circle cx="70.416" cy="39.692" r="18.685" style="fill:#ffe160"/><circle cx="70.416" cy="39.692" r="18.579" style="fill:#ffe261"/><circle cx="70.416" cy="39.692" r="18.474" style="fill:#ffe263"/><circle cx="70.416" cy="39.692" r="18.368" style="fill:#ffe264"/><circle cx="70.416" cy="39.692" r="18.263" style="fill:#ffe265"/><circle cx="70.416" cy="39.692" r="18.157" style="fill:#ffe266"/><circle cx="70.416" cy="39.692" r="18.052" style="fill:#ffe367"/><circle cx="70.416" cy="39.692" r="17.946" style="fill:#ffe368"/><circle cx="70.416" cy="39.692" r="17.84" style="fill:#ffe36a"/><circle cx="70.416" cy="39.692" r="17.735" style="fill:#ffe36b"/><circle cx="70.416" cy="39.692" r="17.629" style="fill:#ffe46c"/><circle cx="70.416" cy="39.692" r="17.524" style="fill:#ffe46d"/><circle cx="70.416" cy="39.692" r="17.418" style="fill:#ffe46e"/><circle cx="70.416" cy="39.692" r="17.313" style="fill:#ffe46f"/><circle cx="70.416" cy="39.692" r="17.207" style="fill:#ffe471"/><circle cx="70.416" cy="39.692" r="17.101" style="fill:#ffe572"/><circle cx="70.416" cy="39.692" r="16.996" style="fill:#ffe573"/><circle cx="70.416" cy="39.692" r="16.89" style="fill:#ffe574"/><circle cx="70.416" cy="39.692" r="16.785" style="fill:#ffe575"/><circle cx="70.416" cy="39.692" r="16.679" style="fill:#ffe576"/><circle cx="70.416" cy="39.692" r="16.574" style="fill:#ffe677"/><circle cx="70.416" cy="39.692" r="16.468" style="fill:#ffe679"/><circle cx="70.416" cy="39.692" r="16.362" style="fill:#ffe67a"/><circle cx="70.416" cy="39.692" r="16.257" style="fill:#ffe67b"/><circle cx="70.416" cy="39.692" r="16.151" style="fill:#ffe67c"/><circle cx="70.416" cy="39.692" r="16.046" style="fill:#ffe77d"/><circle cx="70.416" cy="39.692" r="15.94" style="fill:#ffe77e"/><circle cx="70.416" cy="39.692" r="15.835" style="fill:#fee77f"/><circle cx="70.416" cy="39.692" r="15.729" style="fill:#fee780"/><circle cx="70.416" cy="39.692" r="15.624" style="fill:#fee781"/><circle cx="70.416" cy="39.692" r="15.518" style="fill:#fee883"/><circle cx="70.416" cy="39.692" r="15.412" style="fill:#fee884"/><circle cx="70.416" cy="39.692" r="15.307" style="fill:#fee885"/><circle cx="70.416" cy="39.692" r="15.201" style="fill:#fee886"/><circle cx="70.416" cy="39.692" r="15.096" style="fill:#fee887"/><circle cx="70.416" cy="39.692" r="14.99" style="fill:#fee988"/><circle cx="70.416" cy="39.692" r="14.885" style="fill:#fee989"/><circle cx="70.416" cy="39.692" r="14.779" style="fill:#fee98a"/><circle cx="70.416" cy="39.692" r="14.673" style="fill:#fee98b"/><circle cx="70.416" cy="39.692" r="14.568" style="fill:#fee98d"/><circle cx="70.416" cy="39.692" r="14.462" style="fill:#feea8e"/><circle cx="70.416" cy="39.692" r="14.357" style="fill:#feea8f"/><circle cx="70.416" cy="39.692" r="14.251" style="fill:#feea90"/><circle cx="70.416" cy="39.692" r="14.146" style="fill:#feea91"/><circle cx="70.416" cy="39.692" r="14.04" style="fill:#feea92"/><circle cx="70.416" cy="39.692" r="13.935" style="fill:#feeb93"/><circle cx="70.416" cy="39.692" r="13.829" style="fill:#feeb94"/><circle cx="70.416" cy="39.692" r="13.723" style="fill:#feeb95"/><circle cx="70.416" cy="39.692" r="13.618" style="fill:#feeb96"/><circle cx="70.416" cy="39.692" r="13.512" style="fill:#feeb97"/><circle cx="70.416" cy="39.692" r="13.407" style="fill:#feec98"/><circle cx="70.416" cy="39.692" r="13.301" style="fill:#feec99"/><circle cx="70.416" cy="39.692" r="13.196" style="fill:#feec9a"/><circle cx="70.416" cy="39.692" r="13.09" style="fill:#feec9b"/><circle cx="70.416" cy="39.692" r="12.984" style="fill:#feec9d"/><circle cx="70.416" cy="39.692" r="12.879" style="fill:#feed9e"/><circle cx="70.416" cy="39.692" r="12.773" style="fill:#feed9f"/><circle cx="70.416" cy="39.692" r="12.668" style="fill:#feeda0"/><circle cx="70.416" cy="39.692" r="12.562" style="fill:#feeda1"/><circle cx="70.416" cy="39.692" r="12.457" style="fill:#feeda2"/><circle cx="70.416" cy="39.692" r="12.351" style="fill:#feeda3"/><circle cx="70.416" cy="39.692" r="12.245" style="fill:#feeea4"/><circle cx="70.416" cy="39.692" r="12.14" style="fill:#feeea5"/><circle cx="70.416" cy="39.692" r="12.034" style="fill:#feeea6"/><circle cx="70.416" cy="39.692" r="11.929" style="fill:#feeea7"/><circle cx="70.416" cy="39.692" r="11.823" style="fill:#feeea8"/><circle cx="70.416" cy="39.692" r="11.718" style="fill:#feefa9"/><circle cx="70.416" cy="39.692" r="11.612" style="fill:#feefaa"/><circle cx="70.416" cy="39.692" r="11.507" style="fill:#feefab"/><circle cx="70.416" cy="39.692" r="11.401" style="fill:#feefac"/><circle cx="70.416" cy="39.692" r="11.295" style="fill:#feefad"/><circle cx="70.416" cy="39.692" r="11.19" style="fill:#fef0ae"/><circle cx="70.416" cy="39.692" r="11.084" style="fill:#fef0af"/><circle cx="70.416" cy="39.692" r="10.979" style="fill:#fef0b0"/><circle cx="70.416" cy="39.692" r="10.873" style="fill:#fef0b1"/><circle cx="70.416" cy="39.692" r="10.768" style="fill:#fef0b2"/><circle cx="70.416" cy="39.692" r="10.662" style="fill:#fef0b3"/><circle cx="70.416" cy="39.692" r="10.556" style="fill:#fef1b4"/><circle cx="70.416" cy="39.692" r="10.451" style="fill:#fef1b5"/><circle cx="70.416" cy="39.692" r="10.345" style="fill:#fef1b6"/><circle cx="70.416" cy="39.692" r="10.24" style="fill:#fef1b7"/><circle cx="70.416" cy="39.692" r="10.134" style="fill:#fef1b8"/><circle cx="70.416" cy="39.692" r="10.029" style="fill:#fef1b9"/><circle cx="70.416" cy="39.692" r="9.923" style="fill:#fef2ba"/><circle cx="70.416" cy="39.692" r="9.817" style="fill:#fef2bb"/><circle cx="70.416" cy="39.692" r="9.712" style="fill:#fef2bc"/><circle cx="70.416" cy="39.692" r="9.606" style="fill:#fef2bd"/><circle cx="70.416" cy="39.692" r="9.501" style="fill:#fef2be"/><circle cx="70.416" cy="39.692" r="9.395" class="he"/><circle cx="70.416" cy="39.692" r="9.29" class="he"/><circle cx="70.416" cy="39.692" r="9.184" style="fill:#fef3c0"/><circle cx="70.416" cy="39.692" r="9.079" style="fill:#fef3c1"/><circle cx="70.416" cy="39.692" r="8.973" style="fill:#fef3c2"/><circle cx="70.416" cy="39.692" r="8.867" style="fill:#fef3c3"/><circle cx="70.416" cy="39.692" r="8.762" style="fill:#fef4c4"/><circle cx="70.416" cy="39.692" r="8.656" style="fill:#fef4c5"/><circle cx="70.416" cy="39.692" r="8.551" style="fill:#fef4c6"/><circle cx="70.416" cy="39.692" r="8.445" style="fill:#fef4c7"/><circle cx="70.416" cy="39.692" r="8.34" style="fill:#fef4c8"/><circle cx="70.416" cy="39.692" r="8.234" style="fill:#fef4c9"/><circle cx="70.416" cy="39.692" r="8.128" style="fill:#fef5ca"/><circle cx="70.416" cy="39.692" r="8.023" class="hb"/><circle cx="70.416" cy="39.692" r="7.917" class="hb"/><circle cx="70.416" cy="39.692" r="7.812" style="fill:#fef5cc"/><circle cx="70.416" cy="39.692" r="7.706" style="fill:#fef5cd"/><circle cx="70.416" cy="39.692" r="7.601" style="fill:#fef5ce"/><circle cx="70.416" cy="39.692" r="7.495" style="fill:#fef5cf"/><circle cx="70.416" cy="39.692" r="7.39" style="fill:#fef6d0"/><circle cx="70.416" cy="39.692" r="7.284" style="fill:#fef6d1"/><circle cx="70.416" cy="39.692" r="7.178" style="fill:#fef6d2"/><circle cx="70.416" cy="39.692" r="7.073" class="cl"/><circle cx="70.416" cy="39.692" r="6.967" class="cl"/><circle cx="70.416" cy="39.692" r="6.862" style="fill:#fef6d4"/><circle cx="70.416" cy="39.692" r="6.756" style="fill:#fef7d5"/><circle cx="70.416" cy="39.692" r="6.651" style="fill:#fef7d6"/><circle cx="70.416" cy="39.692" r="6.545" style="fill:#fef7d7"/><circle cx="70.416" cy="39.692" r="6.439" class="r"/><circle cx="70.416" cy="39.692" r="6.334" class="r"/><circle cx="70.416" cy="39.692" r="6.228" style="fill:#fef7d9"/><circle cx="70.416" cy="39.692" r="6.123" style="fill:#fef8da"/><circle cx="70.416" cy="39.692" r="6.017" style="fill:#fef8db"/><circle cx="70.416" cy="39.692" r="5.912" style="fill:#fef8dc"/><circle cx="70.416" cy="39.692" r="5.806" class="cu"/><circle cx="70.416" cy="39.692" r="5.7" class="cu"/><circle cx="70.416" cy="39.692" r="5.595" style="fill:#fef8de"/><circle cx="70.416" cy="39.692" r="5.489" style="fill:#fef8df"/><circle cx="70.416" cy="39.692" r="5.384" style="fill:#fef9e0"/><circle cx="70.416" cy="39.692" r="5.278" class="ey"/><circle cx="70.416" cy="39.692" r="5.173" class="ey"/><circle cx="70.416" cy="39.692" r="5.067" style="fill:#fef9e2"/><circle cx="70.416" cy="39.692" r="4.962" style="fill:#fef9e3"/><circle cx="70.416" cy="39.692" r="4.856" class="do"/><circle cx="70.416" cy="39.692" r="4.75" class="do"/><circle cx="70.416" cy="39.692" r="4.645" style="fill:#fefae5"/><circle cx="70.416" cy="39.692" r="4.539" style="fill:#fefae6"/><circle cx="70.416" cy="39.692" r="4.434" class="gj"/><circle cx="70.416" cy="39.692" r="4.328" class="gj"/><circle cx="70.416" cy="39.692" r="4.223" style="fill:#fefae8"/><circle cx="70.416" cy="39.692" r="4.117" style="fill:#fefae9"/><circle cx="70.416" cy="39.692" r="4.011" class="gi"/><circle cx="70.416" cy="39.692" r="3.906" class="gi"/><circle cx="70.416" cy="39.692" r="3.8" style="fill:#fefbeb"/><circle cx="70.416" cy="39.692" r="3.695" class="fb"/><circle cx="70.416" cy="39.692" r="3.589" class="fb"/><circle cx="70.416" cy="39.692" r="3.484" style="fill:#fefbed"/><circle cx="70.416" cy="39.692" r="3.378" style="fill:#fefbee"/><circle cx="70.416" cy="39.692" r="3.272" class="ev"/><circle cx="70.416" cy="39.692" r="3.167" class="ev"/><circle cx="70.416" cy="39.692" r="3.061" style="fill:#fefbf0"/><circle cx="70.416" cy="39.692" r="2.956" class="fn"/><circle cx="70.416" cy="39.692" r="2.85" class="fn"/><circle cx="70.416" cy="39.692" r="2.745" class="cm"/><circle cx="70.416" cy="39.692" r="2.639" class="cm"/><circle cx="70.416" cy="39.692" r="2.534" style="fill:#fefcf3"/><circle cx="70.416" cy="39.692" r="2.428" class="ai"/><circle cx="70.416" cy="39.692" r="2.322" class="ai"/><circle cx="70.416" cy="39.692" r="2.217" style="fill:#fefcf5"/><circle cx="70.416" cy="39.692" r="2.111" style="fill:#fefcf6"/><circle cx="70.416" cy="39.692" r="2.006" style="fill:#fefdf6"/><circle cx="70.416" cy="39.692" r="1.9" class="ef"/><circle cx="70.416" cy="39.692" r="1.795" class="ef"/><circle cx="70.416" cy="39.692" r="1.689" class="h"/><circle cx="70.416" cy="39.692" r="1.583" class="h"/><circle cx="70.416" cy="39.692" r="1.478" class="bc"/><circle cx="70.416" cy="39.692" r="1.372" class="bc"/><circle cx="70.416" cy="39.692" r="1.267" class="gb"/><circle cx="70.416" cy="39.692" r="1.161" class="gb"/><circle cx="70.416" cy="39.692" r="1.056" style="fill:#fefdfb"/><circle cx="70.416" cy="39.692" r=".95" style="fill:#fefefb"/><circle cx="70.416" cy="39.692" r=".845" class="dg"/><circle cx="70.416" cy="39.692" r=".739" class="dg"/><circle cx="70.416" cy="39.692" r=".633" class="ed"/><circle cx="70.416" cy="39.692" r=".528" class="ed"/><circle cx="70.416" cy="39.692" r=".422" class="ed"/><circle cx="70.416" cy="39.692" r=".317" class="ha"/><circle cx="70.416" cy="39.692" r=".211" class="ha"/><circle cx="70.416" cy="39.692" r=".106" class="ha"/></g></g><path d="M78.012 91.163a56.681 56.681 0 0 1-10.478-.507 32.358 32.358 0 0 0 20.991 4.424c3.413-.326 6.682-1.23 9.694-2.689a27.257 27.257 0 0 0 3.209-1.801c0-.004.736-.525.736-.525l.298-.223a32.683 32.683 0 0 0 5.628-4.801 32.68 32.68 0 0 0 5.771-8.521c0 .008.495-1.106.495-1.106l.081-.182c.004-.006.252-.559.252-.559a29.64 29.64 0 0 0 1.105-3.229c-6.596 10.988-20.889 18.972-37.784 19.718" class="ax"/><path d="m105.841 49.54.582-6.372-3.471 4.398-4.78-3.432 1.855-6.115 5.195 1.088-4.036-4.863 1.716-5.479-4.317 2.343-4.686-5.654 1.639 7.408-4.959 2.663-3.935-6.5 4.093-5.179-6.99.367-4.72-7.929-.049 8.183-9.229.484 9.295 4.916-.102 8.37-9.551-.036-4.646-9.619-2.726 9.568-13.657-.16 11.928 6.229-3.076 10.786 9.777-7.419 8.811 4.677-4.012 9.031-12.031.508 9.131 5.954-4.97 10.941 9.846-7.763 7.318 4.769-1.955-9.12 7.17-5.594 4.558 5.894-4.247 8.444 7.036-4.807 4.012 5.297-.341-7.813 5.415-3.705-5.696-1.222-.286-7.417 5.508-1.376 2.589 6.078.628-6.869 4.443-1.059-4.076-2.893Zm-9.233 6.033-3.409 6.635-6.903-1.445-8.314.258-1.912-8.824-3.974-8.419 6.989-5.394 4.825-5.894 6.585 3.447 5.986 1.347 1.535 6.906 2.61 6.257-4.019 5.125Z" class="dt"/><path d="M16.581 29.558c-3.108 7.912-1.501 26.892 5.603 40.024 2.586 5.338 5.773 10.615 9.487 15.74-9.346-9.802-19.934-25.557-24.165-45.299 4.504-6.51 6.21-7.643 9.075-10.465" class="ht"/><path d="M64.853 13.24c1.703-.689 2.834-.983 4.643-1.437-4.066-2.285-34.9-18.656-57.607-3.272-19.165 12.985-9.897 39.935-7.857 45.175 5.584 15.23 16.725 30.695 31.373 43.548 14.211 12.469 30.979 20.142 46.403 23.892l.164-.458c-9.457-4.532-18.04-12.073-26.538-19.53-24.96-21.905-38.462-51.076-32.814-70.313 6.022 2.978 11.93 6.614 17.609 10.82.273-1.188.595-2.356.972-3.501-6.08-4.407-12.412-8.18-18.859-11.225l-1.676-.791-.642 1.738c-3.675 9.969-2.409 23.005 3.567 36.71 5.982 13.721 16.495 27.612 29.604 39.112a130.746 130.746 0 0 0 11.638 9.118c-9.37-4.477-18.662-10.644-27.188-18.125C23.417 82.216 12.612 67.242 7.208 52.506c-1.887-4.85-10.445-29.627 6.587-41.165 6.364-4.311 13.559-5.848 20.583-5.848 12.685 0 24.813 5.014 30.476 7.747" class="ax"/><path d="M59.546 15.791c-7.104-2.79-17.97-6.792-25.069-6.792-7.306 0-13.657 1.791-18.874 5.324-.363.247-.74.526-1.187.874-.102.081-.203.164-.303.247l-.049.04c-.247.203-.492.414-.748.646l-.128.117c-.077.069-.156.139-.232.213a15.624 15.624 0 0 0-1.282 1.36l-.002.002-.021.025c-.128.147-.254.296-.375.444-.168.209-.335.426-.495.644-.04.055-.076.103-.109.153l-.064.09c-3.492 4.919-4.311 11.054-3.97 16.8a30.773 30.773 0 0 1 2.767-3.673c2.812-3.206 6.771-7.468 10.781-9.357l2.69 1.269.868.411c4.588 2.168 12.877 6.735 18.66 10.323 3.461-8.114 9.528-14.843 17.143-19.16" class="ax"/><path d="M36.886 47.444c0-11.621 4.953-22.08 12.857-29.397C39.429 23.792 32.449 34.8 32.449 47.444s6.98 23.653 17.294 29.397c-7.903-7.317-12.857-17.776-12.857-29.397" style="fill:#ea2231"/><path d="m150.505 0 2.379.251 3.752 8.239.036-7.839 2.544.269-.062 13.479-2.379-.251-3.771-8.203-.036 7.801-2.525-.267L150.505 0ZM161.152 1.125l7.247.767-.012 2.543-4.722-.5-.014 3.059 3.495.37-.01 2.294-3.496-.37-.014 3.059 4.722.5-.012 2.524-7.247-.767.062-13.479ZM169.897 2.05l3.953.418c2.543.269 4.276 1.638 4.265 4.124v.191c-.008 1.453-.615 2.326-1.642 2.677 1.095.613 1.749 1.601 1.742 3.092v.172c-.012 2.485-1.756 3.506-4.3 3.237l-4.081-.432.062-13.479Zm3.94 11.397c.97.103 1.867-.051 1.873-1.371v-.21c.006-1.147-.889-1.548-1.768-1.641l-1.556-.165-.015 3.231 1.465.155Zm.115-5.268c.823.087 1.648-.113 1.654-1.355v-.21c.007-1.166-.908-1.531-1.859-1.631l-1.336-.141-.015 3.174 1.556.165ZM179.777 3.095l4.1.434c2.58.272 4.311 2.196 4.296 5.332l-.002.382c-.01 2.084-.876 3.389-2.27 3.892l2.158 4.321-2.763-.292-1.723-3.664-1.318-.139-.016 3.479-2.525-.267.062-13.479Zm3.753 7.895c1.099.116 2.125-.272 2.134-2.051l.002-.382c.008-1.854-.978-2.418-2.113-2.538l-1.263-.133-.022 4.971 1.263.133ZM192.419 4.431l2.763.292 3.671 13.874-2.58-.273-.665-2.729-3.751-.397-.727 2.583-2.562-.271 3.851-13.079Zm2.669 8.833-1.294-5.417-1.396 5.132 2.69.285ZM198.999 14.175l2.525.267c-.007 1.568.758 2.299 1.875 2.417 1.062.112 1.851-.321 1.855-1.43.005-1.128-1.165-1.615-2.499-2.196-1.68-.771-3.58-1.698-3.567-4.375.011-2.466 1.702-3.78 4.264-3.509 2.488.263 4.201 2.185 4.188 4.958l-2.489-.263c.007-1.434-.667-2.175-1.747-2.289s-1.687.357-1.691 1.371c-.005 1.147 1.092 1.626 2.371 2.183 1.699.734 3.709 1.597 3.695 4.369-.012 2.562-1.775 3.906-4.392 3.629-2.617-.277-4.402-2.245-4.389-5.131ZM209.176 6.203l2.525.267-.025 5.545.988.104 2.551-5.278 2.837.3-3.234 6.353 3.172 7.125-2.837-.3-2.499-5.869-.988-.105-.026 5.603-2.524-.267.062-13.479ZM221.982 7.557l2.763.292 3.672 13.874-2.58-.272-.666-2.729-3.751-.396-.726 2.582-2.562-.271 3.851-13.078Zm2.669 8.833-1.293-5.416-1.396 5.132 2.689.284ZM232.886 8.71l2.524.267-.05 10.955 4.283.453-.012 2.524-6.808-.72.062-13.479ZM240.308 18.523l.021-4.589c.013-2.753 1.798-4.497 4.359-4.226 2.544.269 4.328 2.39 4.315 5.143l-.021 4.589c-.013 2.734-1.815 4.456-4.359 4.188-2.562-.271-4.328-2.371-4.315-5.104Zm4.327 2.581c.86.091 1.813-.287 1.82-1.835l.022-4.78c.007-1.51-.85-2.156-1.802-2.256-.896-.095-1.796.307-1.803 1.856l-.022 4.78c-.007 1.511.833 2.135 1.784 2.236ZM252.449 13.322l-2.69-.284.012-2.543 7.906.835-.012 2.543-2.69-.284-.05 10.936-2.525-.267.05-10.936ZM260.737 14.198l-2.69-.284.012-2.543 7.905.836-.012 2.543-2.69-.285-.051 10.936-2.524-.267.051-10.937ZM266.914 12.307l7.246.766-.012 2.543-4.722-.499-.015 3.059 3.495.37-.011 2.294-3.495-.37-.014 3.059 4.722.499-.012 2.524-7.246-.767.062-13.479ZM275.677 13.234l4.099.433c2.58.273 4.311 2.196 4.297 5.332l-.002.382c-.01 2.084-.878 3.389-2.271 3.892l2.159 4.321-2.763-.292-1.723-3.663-1.318-.14-.016 3.479-2.524-.267.062-13.479Zm3.752 7.895c1.099.116 2.126-.272 2.134-2.051l.002-.383c.009-1.854-.977-2.417-2.112-2.538l-1.263-.134-.023 4.971 1.263.134ZM287.967 23.16l-3.602-9.008 2.636.279 2.261 5.939 2.333-5.454 2.616.277-3.718 8.233-.022 4.856-2.526-.267.022-4.856Z" class="dt"/></g></svg>