<svg xmlns="http://www.w3.org/2000/svg" id="b" viewBox="0 0 273.5 251.1"><defs><style>.e{fill:#fff}</style></defs><g id="c"><path d="m267.6 92.3-4 .3-5-38.6-22.8 2.9a117 117 0 0 0-200.9-.3L0 61l6 47.5 7.2-1 2 15.9-7.2.9 6 47.5 16.4-2c16.4 32.7 47.3 56 83.2 62.7l-1.1 10.6 74.6 8 3-30 3.2-2c29.8-16.4 49.4-44 56.6-77l23.6-2.8-6-47Z" style="fill:#f9c041"/><path d="m241.2 134.1 19.3-2.4-3.7-29.1-9.7 1.2-6.4-6c0-.6-.2-1-.3-1.5l1.7-1.4 11.5-1.5-3.7-29.1-20 2.5a108.2 108.2 0 0 0-190.4-1.6L9 69l3.7 29.6 7.3-.9 4.2 33.7-7.3 1 3.7 29.6 14-1.8a108.4 108.4 0 0 0 85.8 64.6l-1.1 10.3-.2 2 2 .2 56.7 6 2 .3.2-2 2.7-25.1.4-2.5c30.5-15.4 52.6-44.9 58-79.9Z" style="fill:#e83a23"/><path d="m68 54.6 1.6-.2-1.3-10-1.5.2-.3-1.8 4-.5 8 9.4-1-8.4-2 .2-.2-1.8 5.5-.7.3 1.8-1.6.2L81 54.9l-2.4.3-8-9.6 1 8.6 2-.3.1 1.9-5.5.6-.2-1.8ZM84.5 52.6l1.5-.2-1.3-10-1.5.1-.2-1.8 10.8-1.3.5 4-1.9.2-.2-2.2-5.1.6.5 4.2 5-.7.1 1.8-4.9.6.5 4.2 5.1-.7-.2-2.1 1.9-.2.5 4-11 1.3-.1-1.8ZM97.7 51l1.5-.3-1.2-10-1.6.2-.2-1.8 6.2-.8c1.5-.2 2.7 0 3.6.5.9.5 1.4 1.4 1.6 2.5 0 .8 0 1.4-.4 2-.3.6-.8 1-1.5 1.3 1 0 1.7.4 2.2 1s1 1.1 1 2c.2 1.2 0 2.1-.8 2.9-.7.7-2 1.2-3.7 1.4l-6.5.8-.2-1.8Zm6.7-10.7c-.4-.2-1.2-.3-2.1-.2l-2 .3.4 4 2.1-.2c1-.2 1.6-.4 2-.8.4-.3.6-.9.5-1.6-.1-.7-.4-1.2-.9-1.5Zm2.2 7.4c-.1-.8-.5-1.3-1-1.6-.6-.3-1.4-.4-2.4-.3l-2.3.3.6 4.4 2.3-.3c1-.2 1.8-.4 2.2-.8.5-.5.7-1 .6-1.7ZM111.4 49.2l1.6-.2-1.3-10-1.5.1-.3-1.8 5.8-.7c3.6-.4 5.5.7 5.9 3.5.1 1 0 1.8-.4 2.5-.4.6-1 1.1-1.7 1.5l2.8 3.7 1.4-.2.3 1.8-3.1.4-3.5-5-.5.2-2 .2.4 3.5 1.8-.2.3 1.8-5.7.7-.3-1.8Zm7.8-8.8c0-.8-.4-1.4-1-1.7-.6-.3-1.4-.4-2.5-.3l-1.7.2.6 4.8 1.9-.2c1-.1 1.7-.4 2.2-.9.5-.4.6-1 .5-1.9ZM125 47.5l1.2-.2 3-12.4 2.8-.4 6 11.3 1.2-.1.2 1.8-5.5.7-.3-1.8 2-.2-1.3-2.5-5.3.7-.6 2.7 1.8-.2.2 1.7-5.2.7-.2-1.8Zm5.7-10.6-1.3 5.8 4-.5-2.7-5.3ZM143 47l-1.7.3-.6-4.6 1.8-.3v.3c.1.5.3 1 .7 1.4.3.3.8.6 1.4.8.6.1 1.2.2 1.9 0 1 0 1.6-.3 2.1-.7.5-.4.7-.9.6-1.5 0-.6-.3-1.1-.9-1.4-.5-.2-1.3-.4-2.4-.5h-1.1c-1.4 0-2.5-.4-3.3-1a3.7 3.7 0 0 1-1.3-2.6c0-.7 0-1.5.3-2.1a4 4 0 0 1 1.5-1.6c.7-.4 1.4-.7 2.3-.8.9 0 1.7 0 2.4.2s1.2.6 1.6 1l-.2-1.4 1.7-.2.6 4.6-1.8.2v-.2c-.1-.8-.5-1.4-1.1-1.9-.7-.4-1.5-.5-2.4-.4-.8 0-1.5.3-2 .7-.4.4-.5 1-.5 1.5.1.6.4 1 .9 1.3s1.3.5 2.4.6h1c1.5 0 2.6.4 3.4 1 .7.5 1.2 1.4 1.3 2.5.1.8 0 1.6-.3 2.2-.3.7-.8 1.2-1.5 1.6a7.4 7.4 0 0 1-5.1.7c-.8-.2-1.4-.6-1.9-1l.2 1.4ZM154.1 43.8l1.5-.2-1.2-10-1.6.2-.2-1.8 5.5-.7.3 1.8-1.8.2.7 5.2 4.4-5.8-1.6.2-.2-1.8 5.4-.7.2 1.8-1.2.1-3.4 4.5 4.8 5.6 1.5-.2.3 1.8-3.2.4-4.8-5.8-1.9 2.4.3 2.3 1.9-.2.2 1.8-5.7.7-.2-1.8ZM168.4 42l1.2-.1 3-12.5 2.8-.3 6 11.3 1.2-.2.2 1.9-5.5.7-.3-1.8 2-.3-1.3-2.4-5.3.6-.6 2.7 1.8-.2.2 1.8-5.2.6-.2-1.8Zm5.8-10.5-1.4 5.7 4-.5-2.6-5.2ZM104 82.1c-3.7.5-6.5 0-8.5-1.7S92.3 76.6 92 74c-.4-2.7.2-5 1.8-7.1 1.5-2 4.1-3.3 7.7-3.8 3.6-.4 6.4.1 8.4 1.8 2 1.6 3.2 3.7 3.6 6.4.3 2.6-.3 5-1.9 7-1.6 2.1-4.1 3.4-7.7 3.8Zm-5.5 62.2-1.7-13.9 5.6-.7-3-24.6-5.7.7-1.8-14 23-2.8 4.9 38.5 5.6-.7 1.8 14-28.7 3.5Z" class="e"/><path d="m146.1 186.7 3-28.2-26.5 25.7 23.5 2.5z" style="fill:none"/><path d="M157.5 146a38.2 38.2 0 0 1-16.4-3.6l-41.4 40-1.9 17.5 45.3 4.9-1.1 10-12.8-1.4-1.9 17.1 46 5 1.9-17.2-11.4-1.2 1-10 12.9 1.4 2-18.2-12.9-1.3 4.8-45.2a45.8 45.8 0 0 1-14.1 2.2ZM146 186.7l-23.5-2.5 26.5-25.7-3 28.2ZM190.7 132.8l-1.7-14 5.6-.7-6.7-53-5.8.8-1.8-14 23.3-2.9 6.3 50.8 14.2-12.4-6.8.9-1.5-12 27.4-3.5 1.8 14-6.2.7-10.3 9.1 16 15.3 5.6-.7L252 125l-16.6 2-18.5-20.2-5.4 4.7.7 5.7 6-.8 1.6 12.6-29 3.7ZM53 71.2c10-1.3 18 0 23.6 3.6 5.7 3.6 9 9.5 10 17.5s-.7 14.5-5.4 19.4c-4.6 5-12 8-22 9.3l-9.1 1.2 1.7 13.5 9-1.2 1.9 14.5-35.3 4.4-1.8-14.4 7.3-1-6.2-48.8-7.3.9-1.8-14.5L53 71.2Zm2 36.4c4.9-.6 8.2-2 10.1-4.1 2-2.1 2.7-5 2.2-8.7-.4-3.8-1.9-6.5-4.3-8-2.3-1.7-6-2.2-10.8-1.6l-6.7.9 2.9 22.4 6.6-.9ZM162.6 138a33 33 0 0 1-16-1.6c-4.7-1.7-8.5-4.6-11.5-8.6s-4.8-8.8-5.6-14.7a33 33 0 0 1 1.2-14.6c1.4-4.3 3.7-7.8 7-10.6 3.3-2.7 7.4-4.4 12.2-5 3.6-.4 6.8-.1 9.6 1 2.8 1 5 2.6 6.5 4.7l-.7-6 11.8-1.4 2.9 23.3-13.3 1.7v-.7a9.7 9.7 0 0 0-3.3-6.2 8.6 8.6 0 0 0-7.2-2 9.4 9.4 0 0 0-7.2 4.4c-1.5 2.4-2 5.4-1.6 9 .6 4.3 2.2 7.5 5 9.6 2.9 2 6.3 2.9 10.2 2.4a14.8 14.8 0 0 0 10.9-6.5L184 126a28.1 28.1 0 0 1-8.7 7.9 33.2 33.2 0 0 1-12.8 4Z" class="e"/></g></svg>