<svg xmlns="http://www.w3.org/2000/svg" id="b" viewBox="0 0 355.35 170.71"><defs><style>.d{fill:#fff}.f{fill:#393a96}.g{fill:#231f20}</style></defs><g id="c"><path d="M283.593693,67.099598v-11.3505h48.95561c2.982388,0,5.400388-2.418,5.400388-5.4004v-17.241211c0-2.982488-2.418-5.399888-5.400388-5.399888h-109.024409c-.1377,0-.266591,.0302-.4014,.04-.2959-.0503-.597191-.082-.9043-.082h-22.352099c-1.4023,0-2.7495,.545888-3.756792,1.5214l-.640108,.6202s-3.5752,3.463288-7.400892,7.1699v-3.911611c0-2.982-2.417508-5.399888-5.399908-5.399888h-26.386699c-2.2237,0-4.1299,1.3457-4.958,3.2651-4.1743-2.2495-10.4576-4.3613-19.359393-4.3613-13.187506,0-26.442406,4.2055-34.641106,13.2129v-6.716811c0-2.982-2.4175-5.399888-5.399894-5.399888h-26.390605c-2.982,0-5.4,2.417888-5.4,5.399888v1.744111c-6.0019-4.5103-14.6381-7.144-23.875395-7.144H5.3999c-2.9825,0-5.3999,2.417888-5.3999,5.399888v58.17091c0,2.9819,2.4174,5.3999,5.3999,5.3999H31.786599c2.9824,0,5.4004-2.418,5.4004-5.3999v-17.10991c10.0644-.68949,17.6152-2.849089,22.946699-6.492189v23.602099c0,2.9819,2.418,5.3999,5.4,5.3999h26.390605c2.982394,0,5.399894-2.418,5.399894-5.3999v-6.84091c.4219,.47221,.8247,.95411,1.2788,1.40871,7.7466,7.7471,19.5952,12.0132,33.362306,12.0132,8.883293,0,15.158193-2.1611,19.343693-4.4756,.8204,1.9361,2.738307,3.2945,4.9737,3.2945h26.386699c1.4863,0,2.831-.6016,3.8076-1.57281,1.002,.98391,2.3359,1.57281,3.7627,1.57281h30.626999c.52,0,1.0283-.0757,1.5127-.21681,.3623,.07611,.732909,.12011,1.1093,.12011h50.668499c.4858,.3711,.8789,.6777,1.0918,.854,4.1079,4.79,9.0869,4.1157,11.7051,3.25,.7695-.2544,1.4599-.5444,2.0966-.877,.1792-.0044,.3321-.0024,.5279-.0097,.7519-.0293,1.30471-.0386,1.6782-.0293,.1304,.06589,.2627,.1357,.3906,.2002,1.375,.6919,2.7984,1.40769,3.817911,2.4272,1.127389,1.12749,2.072689,1.8906,2.814,2.4448,.189389,.3003,.379389,.5723,.566889,.8218,.492111,1.1421,1.0532,2.1192,2.764111,4.647,.080089,.9951,.296889,2.6933,1.404289,4.7388,.2383,.6743,.436,2.6904,.5015,3.3598,.0576,.5918,.1113,1.1372,.1841,1.6475,.0708,.5766,.1523,3.2846,.1528,6.018v.5806c0,.9341,.2422,1.8521,.7031,2.6646l.2725,.4804h-64.776898v-10.5019c0-2.9824-2.4175-5.399909-5.3999-5.399909h-33.996599c-1.438,0-2.8164,.573709-3.83,1.593209-1.0137,1.0201-1.4732,2.4024-1.4644,3.8404l.0264,21.228499c.0102,1.648891,.7729,3.2031,2.0717,4.2192l1.3457,1.0532c17.5582,13.7413,51.364299,24.920491,75.359898,24.920491,28.227099,0,54.561999-8.799792,68.727098-22.965391,8.2646-8.264609,12.4555-17.9385,12.4555-28.753399,0-38.851599-46.780199-49.162099-71.753398-51.893099Zm-191.635695,22.303299c0,1.2129-.9873,2.1997-2.2002,2.1997h-21.990699c-.5772,0-1.1226-.2217-1.5362-.625l-1.9853-1.93611c-.4219-.41159-.6636-.98579-.6636-1.57519V52.726099c-.1885,3.399389-1.501,6.3589-3.937,8.7949-4.8765,4.876489-14.1065,7.499489-27.434099,7.7964-.2173,.0049-.390596,.1826-.390596,.3999v19.6856c0,1.2129-.987304,2.1997-2.200204,2.1997H7.633303c-.577703,0-1.123103-.2217-1.536203-.625l-1.9853-1.93611c-.4219-.41159-.6641-.98579-.6641-1.57519V33.695799c0-.5874,.229-1.1401,.6445-1.5556,.4156-.4156,.9678-.6446,1.5557-.6446h28.658699c9.8135,0,18.8438,3.358888,23.566899,8.7652,.0127,.0146,.0264,.0278,.041,.0405,3.5386,3.0313,5.4736,6.7915,5.6675,10.9028v-17.5083c-.0005-.5874,.2285-1.1401,.644-1.5556,.4156-.4156,.968305-.6446,1.5557-.6446h21.990699c.5772,0,1.1226,.2222,1.5362,.6255l1.9853,1.9361c.4219,.4116,.6641,.9858,.6641,1.5752v53.770499Zm57.242599-18.6993c-1.632293-.0102-3.1816,.7193-4.2148,1.9834l-1.3706,1.6783c-.5591,.3535-2.8301,1.5576-7.9028,1.5576-1.6592,0-3.6143-.9649-5.231-2.5816-2.6875-2.6879-4.168-6.6904-4.168-11.2695,0-5.8765,2.0987-9.209,3.859906-10.9697,1.602094-1.602611,3.776393-2.6377,5.539093-2.6377,5.4467,0,7.7065,1.3066,8.1005,1.5654,.4786,.5064,1.5289,1.6182,1.5289,1.6182,1.0683,1.1308,2.5747,1.7466,4.1294,1.688489,.5327-.020089,.9882-.105489,1.4116-.231v17.911611c-.5396-.1821-1.0991-.31-1.6822-.3135Zm-4.2788,5.9898c-.0019-.002-.0053-.001-.0073-.00291-.0044-.00389-.0034-.01029-.0073-.01469,.0054,.0054,.0088,.0122,.0146,.0176Zm4.3316-29.489299c-.6724,.0147-1.2749-.2485-1.6963-.7422-.0449-.0478-3.0225-3.0312-11.8115-3.0312-3.217293,0-6.7154,1.5776-9.3575,4.2197-2.4824,2.4824-5.4414,7.063-5.4414,14.788089,0,5.453611,1.7315,10.469711,4.875,14.124,.0147,.01711,.0308,.03271,.0479,.04691,2.448706,2.0273,5.251,3.1436,7.8906,3.1436,8.2857,0,11.3696-2.7544,11.6944-3.0684-.0064,.00589-.0152,.0034-.0215,.0088,.019-.0161,.041-.0274,.0576-.04791,.4228-.51749,1.0488-.812,1.7173-.80809,.6684,.0039,1.291,.3062,1.7075,.82909l.9243,1.16021c.043,.0542,.0986,.0957,.1626,.1216,.3691,.1499,.6714,.3701,.898,.6548l2.9248,3.67039c.6298,.79051,.641107,1.90331,.0278,2.70651-.243693,.3189-6.1431,7.8042-21.854499,7.8042-12.556194,0-23.547399-4.0454-30.155299-11.0991-6.0708-5.3374-9.2646-12.6533-9.2646-21.183099,0-7.8316,2.7275-14.6983,7.887705-19.858399,6.605894-6.606,17.099094-10.2442,29.546794-10.2442,15.689,0,21.587399,7.2222,21.831099,7.5293,.0059,.0079,.0176,.0264,.0278,.043,.0132,.0215,.0284,.0459,.0469,.072789,.022,.031711,.0483,.06,.0786,.083911,1.1465,.9166,1.7139,1.5914,1.8159,1.7173,.649,.8003,.6592,1.926789,.0254,2.7393l-2.9248,3.7456c-.4228,.5415-1.0283,.859889-1.6606,.8735Zm45.752399,12.3897c-.1509,.145-.164492,.3813-.0317,.5429l22.960399,27.867199c.5391,.6538,.6534,1.5713,.292,2.3379-.3618,.7661-1.1426,1.2608-1.9897,1.2608h-24.858399c-.6812,0-1.3125-.3072-1.7324-.8433l-6.2286-7.9541c-.1049-.1348-.2837-.1875-.4453-.1318-.1611,.0556-.2695,.2075-.2695,.3784v6.3511c0,1.2129-.9868,2.1997-2.1997,2.1997h-21.986799c-.5777,0-1.1231-.2217-1.5362-.625l-1.9853-1.93611c-.4219-.41159-.6641-.98579-.6641-1.57519V33.695799c0-.5874,.229-1.1401,.6446-1.5556,.4155-.4156,.9677-.6446,1.5556-.6446h21.986799c.5772,0,1.1226,.2222,1.5357,.6255l1.9858,1.9361c.4219,.4116,.6636,.9858,.6636,1.5752v9.6567c0,.1606,.0962,.3057,.2441,.3686,.148,.0625,.3189,.030789,.434608-.081l13.894092-13.4609c.4125-.3999,.9565-.6202,1.5307-.6202h15.9937c.5771,0,1.122509,.2222,1.5356,.6255l1.9854,1.9361c.4243,.414,.666509,.9912,.664,1.5835-.0024,.5927-.249,1.1679-.6762,1.5786l-23.302799,22.374499Zm23.113299-15.105l-.0083,34.893099-16.0557-19.4693,16.064-15.4238Zm83.324209,57.452099c-.004411,.002-.008811,.001-.013211,.003v-.0005c.0049-.002,.0098-.0015,.014211-.0034,0,0-.000511,.00049-.001,.0009Zm37.663088,42.354099c-13.1899,13.1894-38.060999,21.382799-64.908698,21.382799-22.968699,0-55.282199-10.6641-72.031698-23.772499-.0879-.0693-.1714-.1455-.2481-.227-.5962-.634809-1.4297-1.468809-1.7368-1.7095-.5337-.4175-.8413-1.0449-.8442-1.7227l-.038592-18.349609c-.002408-.581,.186-1.150391,.596192-1.562,.4097-.411591,.978-.647891,1.5591-.647891h29.046399c.5771,0,1.1225,.2221,1.5356,.625l1.9854,1.9365c.422309,.4116,.664,.9858,.664,1.5747v11.365691c0,.220709,.1792,.399909,.3999,.399909h76.704098c.1426,0,.2739-.0757,.3457-.1987,.0718-.1231,.0723-.2749,.002-.3989-.2149-.3785-.3696-.6407-.4878-.8262-.3628-.5698-.7661-1.252-1.1558-1.9116-.4814-.814-.979-1.6553-1.3091-2.128509-.7075-1.013591-1.5605-2.512691-1.5966-2.576091-.187-.3301-.2862-.7056-.2862-1.0855,0-2.063-.0566-5.7285-.2075-6.7827-.0561-.394-.102-.8628-.1548-1.4058-.1504-1.5371-.4013-4.106909-1.0698-5.2915-.7344-1.3007-.8042-2.2851-.855-3.0039-.0522-.7353-.1152-1.1714-.8813-2.3037-1.793489-2.6499-2.0537-3.2021-2.3916-4.0244-.001-.0019-.0952-.227-.0952-.227,.0097,.0224,.0092,.0463,.0146,.0698-.0005-.0015-.001-.0029-.0015-.0044-.0053-.0239-.0053-.0484-.0156-.07181-.0014-.00289-.0054-.00829-.0068-.01169-.0015-.0024-.001-.0054-.002-.0078-.002389-.0049-.0073-.0073-.0097-.0122-.0469-.0948-.1309-.2154-.3003-.4414-.1216-.1621-.2642-.3575-.402389-.5762-.022911-.0366-.051211-.0689-.084411-.0962-.579589-.4756-1.063-.9106-1.5215-1.3691-1.6343-1.6338-3.6172-2.63141-5.2105-3.4331-.3691-.1856-.7178-.3609-1.0405-.5332-.584-.2867-2.1035-.2696-3.6607-.2095-.6782,.0263-1.2363,.04439-1.7353,.0205-.0938-.0049-.1865,.02389-.2617,.081-.5615,.4278-1.2339,.7632-2.1153,1.0547-3.6118,1.1939-5.3618-.9424-6.1093-1.8549-.0254-.0303-.0557-.06791-.0616-.0752,.01181,.0146,.0152,.0322,.0245,.04829-.0118-.02-.0181-.042-.03369-.06009-.01911-.02191-.044-.0351-.06641-.0522,.019,.0146,.041,.0239,.0576,.0425-.0269-.0293-.188-.1978-.7339-.6533-.1089-.0855-.1587-.128-.1709-.1392-.7031-.5776-1.5308-1.2129-2.1045-1.647-.0693-.05271-.1538-.081-.2407-.081l-50.123999-.0386c-.577191-.0005-1.1221-.2222-1.5347-.625l-1.9854-1.9365c-.4218-.4117-.661091-1.5762-.661091-1.5762l.024391-53.498499c.0005-1.2124,.9878-2.1988,2.2002-2.1988h104.624997c.5772,0,1.1226,.2222,1.5361,.625l1.9849,1.937c.4219,.4112,.6641,.9854,.6641,1.5747v12.8414c0,1.212789-.9868,2.2002-2.2002,2.2002h-51.755899c-.2207,0-.3999,.1787-.3999,.3999v19.1323c0,.206,.1567,.378389,.3618,.3979,15.5943,1.4907,44.038099,6.3614,59.326699,22.232399,8.0117,7.3375,12.0644,16.2408,12.0644,26.480999,0,9.3306-3.6582,17.7202-10.8735,24.935599Z" style="fill:#fdb945"/><path d="M27.77 9.55c0-.94-.03-2.03-.12-3.03h5.48c.06.88.12 1.76.12 2.65h.06c1.48-1.96 3.71-3.19 6.33-3.19 5.4 0 7.43 3.05 7.43 6.92v8.46h-5.65v-7.61c0-2.37-1.04-4.03-3.62-4.03-2.35 0-4.37 1.81-4.37 5.09v6.54h-5.65V9.55ZM63.3 12.23c.27-1.51 1.03-3.16 3.65-3.16 2 0 3.6.78 3.65 3.16h-7.31Zm13.34 3.09c-.03-5.76-2.51-9.34-9.75-9.34-5.08 0-9.54 2.49-9.54 8.18 0 5.83 4.5 7.73 9.63 7.73 4.1 0 8.15-.39 9.33-5.08h-6.03c-.29 1-.74 1.99-3.21 1.99-2.39 0-3.74-1.2-3.86-3.49h13.43ZM101.26 13.85c0 2.39-1.36 4.63-4.29 4.63-2.57 0-4.41-1.8-4.41-4.42 0-2.86 1.83-4.66 4.41-4.66 2.51 0 4.29 1.86 4.29 4.45Zm-14.35 5.05c0 .92-.03 1.66-.12 2.46h5.48c.09-.83.12-1.63.12-2.46 1.3 1.53 2.96 3 6.65 3 4.7 0 8.25-2.98 8.25-8.05 0-4.89-3.43-7.87-8.4-7.87-3.28 0-5.18 1.33-6.33 2.51V0h-5.65V18.9ZM117.57 9.56c0-.94-.03-2.03-.12-3.04h5.48c.09 1.06.12 2.12.12 3.18h.06c1.39-2.84 2.93-3.4 6.65-3.4v4.85c-.41-.06-.86-.12-1.51-.12-3.05 0-5.03 1.72-5.03 4.7v5.62h-5.65V9.56ZM151.04 14.89c0 1.52-.83 3.75-4.54 3.75-1.6 0-2.46-.62-2.46-1.52 0-1.23.8-2.23 4.63-2.23h2.37Zm-6.14-3.97c.03-1.03.68-1.85 2.79-1.85 2.25 0 3.35.59 3.35 2.94h-4.15c-5.57 0-8.88 1.59-8.88 5.08 0 3.09 2.48 4.81 6.71 4.81 2.52 0 5.07-.71 6.43-2.96h.06c0 .81.06 1.91.12 2.41h5.49c-.09-1.1-.12-2.23-.12-3.32v-5.64c0-5.01-3.31-6.41-9.11-6.41-3.91 0-8.26 1.07-8.55 4.94h5.86ZM172.63 16.69c0 .8.27 1.33.71 1.68.44.35 1.13.44 1.87.44 1.19 0 2.96-.18 2.96-1.62 0-1.03-1.33-1.38-2.49-1.56l-3.94-.62c-2.84-.44-4.5-1.79-4.5-4.09 0-4.21 4.85-4.95 8.11-4.95 6.45 0 8.2 1.85 8.32 4.95h-5.68c-.09-.79-.38-1.27-.74-1.47-.41-.26-1.3-.38-2.01-.38-.92 0-2.13.38-2.13 1.29 0 1.06 1.39 1.32 2.61 1.53l3.85.62c3.25.53 4.47 1.97 4.47 4.4 0 4.52-5.74 4.99-9.03 4.99-7.43 0-8.02-3.03-8.23-5.21h5.86ZM194.5 0h5.65V12.87l7.1-6.35h7.13l-7.3 6.38 8.25 8.46h-7.83l-7.33-8.04v8.04h-5.65V0ZM236.45 14.89c0 1.52-.83 3.75-4.54 3.75-1.6 0-2.46-.62-2.46-1.52 0-1.23.8-2.23 4.63-2.23h2.37Zm-6.14-3.97c.03-1.03.68-1.85 2.79-1.85 2.25 0 3.35.59 3.35 2.94h-4.15c-5.57 0-8.88 1.59-8.88 5.08 0 3.09 2.48 4.81 6.71 4.81 2.52 0 5.07-.71 6.43-2.96h.06c0 .81.06 1.91.12 2.41h5.49c-.09-1.1-.12-2.23-.12-3.32v-5.64c0-5.01-3.31-6.41-9.11-6.41-3.91 0-8.26 1.07-8.55 4.94h5.86Z" class="g"/><path d="M103.02 77.87c6.05 6.05 15.64 9.38 27 9.38 11.2 0 16.57-4.02 18.26-5.61-.51-.64-.92-1.17-1.25-1.6-1.85 1.34-5.84 3.31-13.26 3.31-4.05 0-8.28-1.9-11.59-5.22-4.39-4.39-6.8-10.65-6.8-17.63 0-8.96 3.53-14.37 6.5-17.33 3.35-3.35 7.69-5.27 11.9-5.27 7.39 0 11.37 1.88 13.22 3.15l1.29-1.65c-1.97-1.8-7.27-5.39-18.25-5.39-11.32 0-21.22 3.42-27.18 9.38-4.41 4.41-6.65 10.17-6.65 17.12 0 6.99 2.3 12.83 6.84 17.37ZM304.84 99.86c.02.01.03.03.05.05 0 0 0 0 0 0-.01-.02-.03-.03-.04-.05Zm-.27-.1c.02 0 .04 0 .07.01-.02 0-.04-.01-.07-.01Zm.4.34c0 .02.01.04.01.06 0-.02 0-.04-.01-.06Zm-.54-.31c.02-.01.04-.01.06-.02-.02 0-.03 0-.05.01-.01 0-.01.01-.01.01Zm.36.03c-.02-.01-.04-.03-.07-.03.02.01.04.02.07.03Zm-29.92-25.88c-1.25-.09-2.22-1.14-2.22-2.39v-23.97c0-1.32 1.08-2.4 2.4-2.4h51.96v-10.04h-101.92v50.73c4.67 0 49.33 0 49.33 0 .51 0 1.02.17 1.43.48 1.25.93 3.43 2.6 4.04 3.34.01.02.02.03.03.05.02.02.05.04.08.08.6.73.93 1.14 2.19.72.86-.28 1.1-.52 1.32-.72 0 0 0 0 0 0 0 0 0 0 0 0l0 0c.04-.03.07-.06.09-.07 0 0 .01 0 .01-.01l0 0 0 0c.01-.01.01-.01.02-.01.51-.42 1.16-.62 1.81-.55.04 0 .17.02.23.03.26.04 1.02.02 1.62-.01 2.2-.08 4.13-.1 5.49.63.28.15.6.31.97.5 1.82.92 4.09 2.06 6.14 4.1 1.09 1.09 1.95 1.7 2.52 2.09.4.28.63.45.83.64.36.34.6.77.7 1.25 0-.01-.01-.02-.01-.02.02.05.11.18.27.38.2.26.38.54.54.82 0 .01.01.01.01.02 0 0 0 0 0 .01 0 0 0 0 0 0 0 0 0 0 0 0 .03.05.07.11.1.16.03.06.06.11.09.18v0c0 0 0 0 0 0 0 0 0 0 0 .01 0 0 0 0 0 0 0 0 0 0 0 0 0 0 0 0 0 0 0 0 0 0 0 0h0v0c.01.01.01.02.02.03 0 0 0 0 0 0 0 0 0 .01.01.01 0 0 0 .01 0 .01 0 0 0 .01 0 .01 0 0 0 0 0 0h0c.03.06.06.13.11.26.23.55.37.91 2.04 3.38 1.34 1.98 1.42 3.14 1.49 4.07.04.56.06.89.4 1.49 1.04 1.85 1.33 4.78 1.52 6.72.05.49.09.92.13 1.23.21 1.44.24 5.53.24 6.91.25.43.78 1.33 1.24 1.98.41.58.94 1.49 1.46 2.36.37.63.76 1.29 1.09 1.81.39.61 1.04 1.77 1.92 3.43.39.74.37 1.64-.06 2.36-.43.72-1.22 1.16-2.06 1.16h-82.98c-.64 0-1.24-.25-1.7-.7-.45-.45-.7-1.06-.7-1.7v-13.5h-26.21l.05 16.25c16.32 12.48 47.34 22.61 69.28 22.61 25.93 0 49.82-7.79 62.36-20.33 6.52-6.52 9.82-14.05 9.82-22.39 0-35.52-53.22-42.27-69.53-43.49Zm29.86 25.65 0 0c-.02-.03-.04-.05-.07-.07.02.02.05.05.07.07Zm.22.4c0 0 0 0 0 0 0 0 0 0 0 0 0 0 0 0 0 0Zm-.19-.35c0 0-.01-.01-.01-.01 0 0 0-.01-.01-.01 0 .01.01.01.01.02Zm-.03-.04c0 0 0 0 0 0 0 0 0 0 0 0l0 0c0 0 0 0 0 0Zm.22.71c.01-.02.01-.05.02-.07-.01.02-.01.05-.02.07Zm-.02.03c-.04.07-.11.14-.19.17 0 0 0 0 0 .01 0 0 .01 0 .01 0 .08-.04.14-.1.18-.17Zm.02-.35c0 .01 0 .01.01.02 0 0 0-.01 0-.01 0 0 0 0 0-.01Zm0 .01c0 0 0 .01 0 .01v0c0 0 0-.01 0-.01Zm-.01-.01c0 0 0 0 0 0v0c0 0 0 0 0 .01 0 0 0 0 0 0 0 0 0 0 0-.01Zm.01.03c0 0 0 0 0 0 0 0 0 0 0 0l0 0v0Zm-.01-.03c0 0 0 .01 0 .01 0 .01.01.01.01.02h0c0-.01-.01-.02-.01-.02 0 0 0 0 0 0Zm0 .01 0 0c0 0 0 0 0 .01 0 0 0 0 0-.01ZM28.73 60.26c-.44.03-.87-.13-1.19-.43-.32-.3-.5-.73-.5-1.16v-18.37c0-.46.2-.9.55-1.2.35-.3.81-.44 1.26-.38 1.94.25 3.65 1.11 5.08 2.54 2.13 2.13 3.45 5.46 3.45 8.7 0 6.59-2.83 9.96-8.64 10.31Zm-.12 3.54c13.21-.11 22.12-2.39 26.5-6.76 1.94-1.94 2.92-4.33 2.92-7.1 0-2.95-1.22-5.73-3.52-8.04-4.27-4.27-11.82-6.81-20.2-6.81H7.05v50.97H26.23v-19.87c0-1.31 1.07-2.39 2.38-2.4ZM67.18 35.1H86.37V86.07H67.18zM189.46 56.09s18.04-17.32 21.86-20.99h-11.95c-1.48 1.43-18.19 17.62-18.19 17.62-.69.67-1.72.86-2.61.49-.89-.38-1.46-1.24-1.46-2.21v-15.9h-19.19v50.97h19.19v-10.2c0-1.04.66-1.95 1.65-2.28.98-.33 2.06.01 2.68.85l8.65 11.63h21.19c-1.03-1.25-22.02-26.72-22.02-26.72-.79-.96-.71-2.39.19-3.26Z" class="f"/><path d="M66.781698,86.466298h19.990699V34.695799h-19.990699v51.770499Zm3.25-1.7592l7.9009-1.58061-7.9009-1.53469v-.1626l7.9009-1.5805-7.9009-1.5347v-.1626l7.9009-1.5806-7.9009-1.5346v-.1626l7.9009-1.5806-7.9009-1.5347v-.1626l7.9009-1.5805-7.9009-1.534711v-.162589l7.9009-1.5806-7.9009-1.5346v-.1621l7.9009-1.5806-7.9009-1.500511v-.253889l7.9009-1.5234-7.9009-1.5352v-.1621l7.9009-1.5806-7.9009-1.5346v-.1626l7.9009-1.580611-7.9009-1.534689v-.1626l7.9009-1.5805-7.9009-1.5347v-.1626l7.9009-1.5806-7.9009-1.5346v-.1626l7.9009-1.5806-7.9009-1.5347v-.1621l7.9009-1.5805-7.9009-1.535211v-.162089l7.9009-2.0254v.0278h7.739705v48.545399h-13.082l-2.558605-.4965v-.1626Z" class="g"/><path d="m91.57 33.77-1.99-1.94c-.49-.47-1.14-.74-1.82-.74h-21.99c-1.44 0-2.6 1.16-2.6 2.6v53.77c0 .7.28 1.37.78 1.86l1.99 1.94c.49.47 1.14.74 1.82.74h21.99c1.44 0 2.6-1.16 2.6-2.6V35.63c0-.7-.28-1.37-.78-1.86Zm-2.8 53.7c0 .55-.45 1-1 1h-21.99c-.55 0-1-.45-1-1V33.7c0-.55.45-1 1-1h21.99c.55 0 1 .45 1 1v53.77ZM133.76 82.95c-3.95 0-8.07-1.86-11.31-5.1-4.31-4.31-6.69-10.47-6.69-17.35 0-8.82 3.47-14.14 6.38-17.05 3.28-3.28 7.51-5.16 11.62-5.16 7.78 0 11.7 2.11 13.29 3.3.87-1.11 1.41-1.81 1.75-2.24-1.59-1.55-6.98-5.75-18.79-5.75-11.42 0-21.43 3.46-27.47 9.5-4.49 4.49-6.77 10.35-6.77 17.41 0 7.1 2.34 13.04 6.95 17.65 6.12 6.12 15.81 9.49 27.28 9.49 11.84 0 17.23-4.39 18.8-5.98-.75-.94-1.31-1.65-1.71-2.19-1.58 1.24-5.5 3.47-13.34 3.47Zm-3.75 3.59h-.01l.58-.14-13.49-1.56c-.13-.04-.26-.07-.39-.11l4.38-1.62-11.37-1.61 6.25-1.66-10.5-1.61 7-1.66-9.87-1.61 7.38-1.66-9.25-1.61 7.63-1.66-8.75-1.61 7.88-1.66-8.34-1.52c0-.07-.01-.13-.01-.2l7.79-1.56-7.77-1.51c0-.07.01-.14.01-.22l7.76-1.55-7.42-1.44c.02-.12.04-.24.06-.36l7.36-1.47-6.68-1.36c.05-.17.1-.35.16-.52l7.54-1.4-6.46-1.33c.09-.19.17-.39.26-.58l7.37-1.36-5.84-1.26c.17-.25.33-.5.51-.74l7.33-1.28-5.23-1.21c.28-.29.57-.57.86-.85l7.36-1.22-4.57-1.11c.52-.37 1.06-.71 1.6-1.05l7.46-1.12-3.54-1.02c1.06-.48 2.16-.89 3.28-1.28l7.76-.98-2.36-.47c3.38-.69 6.93-1.04 10.55-1.04 2.36 0 4.47.17 6.37.46 3.31 1.04 5.46 2.4 6.65 3.34l-.46.59c-2.13-1.3-6.16-2.92-13.06-2.92-7.93 0-19.1 7.23-19.1 23.31 0 7.17 2.49 13.61 7.01 18.13 3.21 3.21 7.26 5.13 11.23 5.37 1.67.7 3.41 1.07 5.11 1.07 1.03 0 1.97-.05 2.87-.12-2.73.91-6.29 1.59-10.86 1.59Z" class="g"/><path d="M151.21 78.35c-.28-.35-.65-.61-1.06-.78l-.92-1.16c-.49-.62-1.23-.98-2.02-.98-.79 0-1.53.35-2.03.96.02-.03-2.82 2.96-11.42 2.96-2.56 0-5.26-1.09-7.64-3.05-3.08-3.58-4.78-8.49-4.78-13.86 0-7.59 2.9-12.08 5.32-14.51 2.57-2.57 5.96-4.1 9.07-4.1 8.62 0 11.48 2.86 11.51 2.89.51.59 1.23.9 2.01.88.78-.02 1.49-.41 1.97-1.03l2.92-3.75c.75-.95.73-2.3-.03-3.24-.12-.15-.72-.85-1.88-1.78-.03-.04-.06-.09-.09-.14-.25-.31-6.26-7.68-22.14-7.68-22.98 0-37.83 11.97-37.83 30.5 0 8.65 3.24 16.07 9.37 21.46 6.68 7.13 17.77 11.23 30.45 11.23 15.91 0 21.92-7.64 22.17-7.96.72-.95.71-2.27-.03-3.2l-2.92-3.67Zm-.3 3.96c-.23.3-5.77 7.33-20.9 7.33-12 0-22.19-3.58-28.69-10.08-5-5-7.54-11.42-7.54-19.07 0-21.33 19.52-28.9 36.23-28.9 15.12 0 20.66 6.79 20.89 7.07.29.36.29.87 0 1.24l-2.92 3.75c-.18.23-.46.37-.76.38-.3.01-.59-.12-.78-.34-.03-.03-3.15-3.4-12.68-3.4-3.58 0-7.3 1.67-10.21 4.57-2.64 2.64-5.79 7.5-5.79 15.64 0 6.34 2.17 12 6.1 15.94 2.87 2.87 6.48 4.51 9.9 4.51 9.52 0 12.64-3.52 12.66-3.55.19-.23.48-.37.78-.37.3 0 .59.14.78.38l2.92 3.67c.29.36.29.87.01 1.23ZM284.01 89.95c0 0 0 0 0 0 .04-.02.08-.05.12-.07h0c-.04.01-.08.04-.11.06Z" class="g"/><path d="M284.11 89.89c0 0 .01 0 .02 0 0 0 0 0 0 0-.01 0-.01 0-.02 0ZM284.15 89.87c-.01 0-.02.01-.03.02 0 0 0 0 0 0 .01 0 .02-.01.03-.02Z" class="g"/><path d="M274.892493,73.538598c-1.0376-.0776-1.8505-.9536-1.8505-1.99411v-23.965389c0-1.103,.8969-2,2-2h52.355399v-10.8413h-102.724089v51.534199l49.73189-.04151c.4268,.00051,.8506,.18551,1.1929,.44091,.99221,.7388,3.36621,2.53709,3.9746,3.2705,.0108,.0137,.0132,.0303,.0235,.044,.0239,.0268,.0537,.0503,.07711,.0781,.61719,.7534,1.10449,1.3486,2.62889,.8447,.9453-.3125,1.2349-.5874,1.4678-.8086,.0366-.0351,.083-.0493,.1235-.07761-.0395,.02781-.0854,.04151-.1216,.07571,.023-.0215,.0518-.0362,.0757-.05671-.0107,.00831-.0239,.01031-.0347,.01961,.0108-.0093,.024-.0113,.0347-.01961,.4175-.35639,.981-.53759,1.5361-.47509,.0362,.0044,.1578,.0215,.2017,.0293,.2988,.0523,1.0156,.0244,1.709-.0024,2.1411-.083,4.0166-.0967,5.2881,.5815,.29,.1543,.623,.3218,.9765,.5,1.7979,.9043,4.0362,2.0303,6.0347,4.0288,1.1182,1.1177,1.9922,1.7325,2.5708,2.1387,.3882,.273,.6045,.4326,.7827,.6021,.2969,.2822,.4976,.644,.580111,1.0449,.025889,.125,.227489,.38519,.335489,.5249,.1709,.2202,.3647,.4995,.541511,.8154,.001889,.003,.004789,.00389,.006289,.00689l.0005,.00041c.0005,.0005,.0005,.001,.0005,.001,.030711,.0459,.0586,.0923,.0801,.1309,.0268,.0488,.0522,.0996,.0795,.1611-.0146-.0327-.0288-.0586-.0458-.08841h0c.017,.02931,.0332,.06161,.0478,.09281l.0005,.0005s0,.0005,.0005,.001c.0024,.0058,.0063,.01169,.0088,.0176-.0005-.001-.001-.0015-.0015-.0025,.001,.002,.0024,.0044,.0034,.0064,.001,.0024,.0005,.0044,.0015,.0068,.0264,.061,.0581,.1362,.1138,.2695,.2348,.5703,.390111,.9473,2.0825,3.4483,1.2827,1.8955,1.3608,2.9907,1.4233,3.87059,.0405,.57131,.0698,.98431,.4502,1.65771,1,1.7734,1.2813,4.6489,1.4678,6.5586,.049311,.5024,.0918,.9365,.1377,1.2588,.2099,1.4668,.2358,5.8388,.2387,6.9673,.25,.431591,.8208,1.4003,1.3077,2.0981,.3984,.5708,.9277,1.4658,1.4404,2.332491,.3765,.637209,.7656,1.295909,1.1001,1.821309,.3848,.605,1.0249,1.7505,1.9018,3.4053,.3267,.6162,.3057,1.3701-.0537,1.9678-.3598,.597591-1.0161,.9687-1.7138,.9687h-82.982898c-.5342,0-1.036691-.208-1.4146-.5859-.3774-.378-.5854-.8799-.5854-1.4141v-13.9019h-26.979499l.0141,16.8506c16.3741,12.6001,47.487299,22.804191,69.677798,22.804191,26.030199,0,50.034599-7.834392,62.646398-20.445791,6.5933-6.5937,9.9361-14.2216,9.9361-22.672799,0-35.869199-53.503899-42.658199-69.902398-43.884299Zm-2.6801,85.902798c-20.244699,0-47.967299-8.5683-64.885798-19.6645l-.028292-15.0567h21.101591v11.0684c0,1.1597,.9399,2.1001,2.1001,2.1001h.5v2.7329h90.636198s-1.8306-3.5464-2.630889-4.8047c-.801211-1.2583-1.856411-3.171409-2.517111-4.1186-.6611-.946809-1.4873-2.4024-1.4873-2.4024,0,0,0-5.4912-.229-7.0927-.2285-1.6021-.3427-5.4405-1.4868-7.4683-1.1445-2.0273,.1524-2.5293-1.8305-5.459-1.9834-2.9307-1.9449-3.0893-2.2881-3.8896-.3433-.8013-1.0679-1.2906-1.1441-1.9454-.0327-.2832-.3022-.499-.767089-.8286-1.210911-1.813-1.356911-2.1572-1.538111-2.5976l-.1206-.2896c-.258289-.6025-.6084-1.0547-.8642-1.3842-.061089-.0792-.1299-.1705-.1758-.23541-.2319-1.07709-1.0366-1.65479-1.759289-2.16309-.580511-.4077-1.375-.9663-2.425811-2.0166-2.1235-2.1235-4.5483-3.3432-6.3183-4.2339-.3457-.1738-.6724-.33841-.9531-.4878-1.6377-.873-3.9722-.7827-5.8482-.7099-.5327,.0205-1.2627,.0488-1.4824,.0171-1.4326-.252-2.2109,.2705-2.7827,.8149-.1489,.1416-.3179,.3027-1.0298,.5381-.8071,.2666-.8784,.1797-1.4331-.4976l-.1045-.1264c-.7324-.88381-3.3472-2.8501-4.437-3.6543-.3609-.2666-.7974-.4102-1.2456-.4107l-43.020999-.0073-2.4683-.2476v-.2661l16.5147-1.52781-16.5132-1.48339,.0005-.26661,16.5127-1.52779-16.5113-1.4834,.0005-.2671,16.5108-1.5274-16.5093-1.4829v-.2676l16.5093-1.5273-16.5078-1.4829,.0004-.267611,16.5074-1.527289-16.505891-1.4825v-.2685l16.505891-1.5269-16.503891-1.4824v-.2681l16.503891-1.5268-16.5025-1.4492,.0005-.3574,16.502-1.4712-16.5005-1.4825v-.269l16.5005-1.5264-16.4986-1.4819v-.2695l16.4986-1.526411-16.4971-1.481889v-.270111l16.4971-1.525789-16.4951-1.482v-.27l16.4951-1.5259-16.4932-1.4819v-.27l16.4932-1.5259-16.4917-1.4814,.0005-.2706,16.4912-1.5253-16.4898-1.4815v-.271l2.0791-.1924h94.946298v5.9082h-52.255799c-1.1602,0-2.1001,.940489-2.1001,2.1001v25.895499c0,1.1045,.85441,2.0196,1.956,2.0953,.2061,.0141,.4219,.0297,.6392,.0454l-.0005,2.1567c15.5708,0,29.811499,2.5107,41.920899,7.0273,14.7505,6.231,27.237299,16.5484,27.237299,33.623599,0,27.291999-36.829099,42.018499-71.482398,42.018499Z" class="g"/><path d="M283.993093,89.959488c.0015-.00049,.003-.00189,.0044-.00289-.0508,.0273-.1035,.0483-.1499,.08489h0c.0449-.03559,.09671-.05509,.1455-.082Z" class="g"/><path d="M338.2 92.6c-15.64-16.24-45.27-20.98-59.58-22.35v-19.13h51.76c1.44 0 2.6-1.16 2.6-2.6v-12.84c0-.7-.28-1.37-.78-1.86l-1.98-1.94c-.49-.47-1.14-.74-1.82-.74h-104.62c-1.44 0-2.6 1.16-2.6 2.6l-.03 53.5s.28 1.37.78 1.86l1.99 1.94c.49.47 1.14.74 1.81.74l50.12.04c.57.43 1.39 1.06 2.07 1.62.03.03.11.09.19.15.53.44.68.6.7.62-.02-.03.06.08.06.08.73.89 2.67 3.26 6.54 1.98 1.06-.35 1.73-.73 2.23-1.12.52.02 1.09.01 1.77-.02.87-.03 2.9-.11 3.46.16.33.17.68.35 1.05.54 1.57.79 3.52 1.77 5.11 3.36.51.51 1.02.96 1.55 1.4.14.23.29.43.42.6.1.13.24.32.27.39 0 0 .09.23.09.23.35.85.62 1.41 2.43 4.1.74 1.1.77 1.48.81 2.11.05.76.13 1.79.91 3.17.63 1.11.87 3.63 1.02 5.13.05.55.1 1.02.16 1.43.15 1.03.2 4.67.2 6.73 0 .45.12.89.34 1.28.04.06.89 1.57 1.62 2.61.32.46.81 1.3 1.29 2.1.39.66.8 1.35 1.16 1.92.13.2.29.49.48.81h-76.7v-11.37c0-.7-.28-1.37-.78-1.86l-1.99-1.94c-.49-.47-1.14-.74-1.81-.74h-29.05c-.69 0-1.35.28-1.84.77-.49.49-.69 1.15-.69 1.85l.01 18.35c0 .8.37 1.55 1 2.04.28.22 1.1 1.04 1.69 1.67.09.1.19.19.29.27 16.81 13.16 49.23 23.86 72.28 23.86 26.95 0 51.93-8.24 65.19-21.5 7.29-7.29 10.99-15.78 10.99-25.22 0-10.36-4.1-19.36-12.18-26.76Zm-1.93 48.91c-12.97 12.97-37.52 21.03-64.06 21.03-22.74 0-54.72-10.55-71.29-23.52-.24-.19-.38-.48-.38-.78l-.05-18.35c0-.27.07-.52.26-.71.19-.19.44-.29.71-.29h29.05c.55 0 1 .45 1 1v14.9h82.98c-.59-1.11-1.38-2.57-1.82-3.27-.35-.55-.75-1.23-1.13-1.88-.49-.83-1-1.69-1.36-2.21-.68-.97-1.5-2.42-1.54-2.48-.09-.15-.13-.32-.13-.49 0-1.51-.04-5.7-.22-6.95-.05-.37-.1-.83-.15-1.35-.17-1.74-.43-4.36-1.22-5.76-.6-1.07-.66-1.83-.7-2.5-.05-.74-.1-1.44-1.08-2.89-1.73-2.55-1.97-3.06-2.28-3.81 0 0-.1-.25-.1-.25-.1-.24-.28-.47-.47-.71-.29-.37-.6-.8-.71-1.35-.1-.09-.33-.26-.55-.42-.64-.45-1.59-1.12-2.83-2.36-1.77-1.77-3.85-2.82-5.52-3.66-.36-.18-.71-.36-1.02-.52-.9-.48-2.85-.4-4.27-.35-.91.04-1.62.06-2.13-.03-.04-.01-.07-.01-.09-.01-.01.01-.01.01-.02.02-.4.38-.93.82-2.19 1.24-2.83.94-4.11-.63-4.8-1.48l-.09-.11c-.37-.45-2.26-1.92-3.63-2.94l-50.66-.04c-.55 0-.91-1-.91-1V33.74s.38-1 .93-1h104.62c.55 0 1 .45 1 1v12.84c0 .55-.45 1-1 1h-53.36v23.97c18.05 1.35 71.75 8.54 71.75 45.88 0 9-3.54 17.1-10.52 24.09ZM38.86 50.25c0-.1.01-.2.01-.31 0-3.68-1.46-7.32-3.89-9.76-2-2-4.54-3.06-7.35-3.06-1.16 0-2.1.94-2.1 2.1v20.47c0 1.16.94 2.1 2.1 2.1.8 0 1.54-.05 2.25-.14v.17c6.4 0 9.14-3.17 9.14-9.75 0-.6-.06-1.21-.16-1.82Zm-10.11 10.41c-.55.03-1.09-.16-1.49-.54-.4-.38-.63-.91-.63-1.46v-18.37c0-.58.25-1.12.68-1.5.43-.38 1.01-.55 1.58-.48 2.03.27 3.81 1.16 5.31 2.65 2.2 2.2 3.57 5.65 3.57 8.98 0 6.84-2.95 10.35-9.02 10.71Z" class="g"/><path d="M28.634699,40.289599v18.3696c4.9898-.3008,7.1387-2.957,7.1387-8.7163,0-2.8286-1.1436-5.729-2.9844-7.5703-1.1845-1.184111-2.5805-1.877-4.1543-2.083Zm3.5855,15.623v-11.521c.102,.0537,.1997,.1182,.2988,.1792,1.0381,1.5142,1.654304,3.4859,1.654304,5.3721,0,3.2422-.726104,5.002-1.953104,5.9697Z" class="g"/><path d="M54.793399,41.624488c-4.3384-4.338289-11.997095-6.928689-20.486799-6.928689H6.6479v51.770499H26.634699v-20.267099c0-1.0932,.8897-1.990711,1.9834-1.9995,13.3169-.1118,22.326699-2.4257,26.779299-6.8779,2.0156-2.0156,3.0376-4.4985,3.0376-7.3789,0-3.0601-1.2593-5.936-3.6416-8.318411Zm-27.158699,21.486411c-1.1596,0-2.0996,.9399-2.0996,2.099589v20.15571H12.5278l-2.6299-.51071v-.13429l7.9722-1.59471-7.9722-1.54879v-.1343l7.9722-1.5947-7.9722-1.5489v-.1342l7.9722-1.5948-7.9722-1.5488v-.1343l7.9722-1.5947-7.9722-1.5488v-.1343l7.9722-1.5947-7.9722-1.5489v-.1337l7.9722-1.5953-7.9722-1.5483v-.1343l7.9722-1.5947-7.9722-1.5142v-.2265l7.9722-1.5371-7.9722-1.5489v-.1342l7.9722-1.5948-7.9722-1.548811v-.134289l7.9722-1.594711-7.9722-1.548789v-.1343l7.9722-1.5947-7.9722-1.5489v-.1342l7.9722-1.5948-7.9722-1.5488v-.1343l7.9722-1.5947-7.9722-1.5483v-.1343l7.9722-1.5947-7.9722-1.5489v-.1342l7.9722-2.0396v.0278h20.686499c2.1563,0,4.283704,.1812,6.3398,.5118,3.7364,1.145,6.9317,2.8818,9.1192,5.0698,2.2026,2.2026,3.3193,4.7392,3.3193,7.5405,0,8.4912-10.5478,13.168-29.700199,13.168Z" class="g"/><path d="M58.17 40c-4.8-5.49-13.92-8.9-23.87-8.9H5.65c-1.44 0-2.6 1.16-2.6 2.6v53.77c0 .7.28 1.37.78 1.86l1.99 1.94c.49.47 1.14.74 1.82.74H29.62c1.44 0 2.6-1.16 2.6-2.6v-19.69c13.43-.3 22.75-2.96 27.71-7.91 2.72-2.72 4.09-6.05 4.09-9.92 0-4.51-2.03-8.61-5.85-11.88Zm-1.36 18.74c-4.84 4.84-14.33 7.35-28.18 7.46v21.27c0 .55-.45 1-1 1H5.65c-.55 0-1-.45-1-1V33.7c0-.55.45-1 1-1h28.66c9.01 0 17.2 2.81 21.9 7.51 2.77 2.77 4.23 6.13 4.23 9.73 0 3.43-1.22 6.39-3.62 8.79ZM195.28 59.88l23.3-22.37c.51-.49.8-1.16.8-1.87 0-.7-.28-1.38-.78-1.87l-1.99-1.94c-.49-.47-1.14-.74-1.81-.74h-15.99c-.68 0-1.32.26-1.81.73l-13.89 13.46v-9.66c0-.7-.28-1.37-.78-1.86l-1.99-1.94c-.49-.47-1.14-.74-1.81-.74h-21.99c-1.44 0-2.6 1.16-2.6 2.6v53.77c0 .7.28 1.37.78 1.86l1.99 1.94c.49.47 1.14.74 1.82.74h21.99c1.44 0 2.6-1.16 2.6-2.6v-6.35l6.23 7.95c.49.63 1.25 1 2.05 1h24.86c1.01 0 1.92-.58 2.35-1.49.43-.91.3-1.99-.34-2.76l-22.96-27.87Zm19.87 28.01c-.16.35-.52.57-.9.57h-24.86c-.32 0-.61-.15-.8-.4l-9.07-12.2v11.6c0 .55-.45 1-1 1h-21.99c-.55 0-1-.45-1-1V33.7c0-.55.45-1 1-1h21.99c.55 0 1 .45 1 1v17.3l18.59-18.01c.19-.18.44-.28.7-.28h15.99c.41 0 .77.25.93.63.15.38.06.81-.24 1.09l-24.37 23.4 23.9 29.01c.25.3.3.71.13 1.06Z" class="g"/><path d="M189.734795,56.375999l22.579599-21.680199h-13.1035c-2.3252,2.253-18.3018,17.731-18.3018,17.731-.5781,.5605-1.4306,.7192-2.1713,.4053-.7413-.314-1.2203-1.0367-1.2203-1.8413v-16.295h-19.986799v51.770499h19.986799v-10.6015c0-.8638,.5513-1.627,1.3711-1.8985,.8203-.2719,1.7178,.0118,2.2334,.7051,0,0,7.2598,9.7598,8.773,11.7949h22.236799l-22.555699-27.375899c-.6606-.8023-.5913-1.9947,.1587-2.7144Zm.7134,28.990199l-10.2456-13.7744c-.5405-.7265-1.4858-1.0249-2.3452-.7402-.8594,.2842-1.44,1.087889-1.44,1.9932v12.5214h-13.3266l-2.3101-.4482v-.2607l7.6519-1.53081-7.6519-1.48679v-.2603l7.6519-1.5307-7.6519-1.4864v-.2607l7.6519-1.5308-7.6519-1.48631v-.26069l7.6519-1.5308-7.6519-1.4863v-.2608l7.6519-1.5307-7.6519-1.4864v-.2607l7.6519-1.5308-7.6519-1.4863v-.2602l7.6519-1.5308-7.6519-1.4531v-.3496l7.6519-1.4751-7.6519-1.4869v-.2602l7.6519-1.5308-7.6519-1.4863v-.2607l7.6519-1.530811-7.6519-1.486789v-.2603l7.6519-1.5307-7.6519-1.4864v-.2607l7.6519-1.5308-7.6519-1.486311v-.260689l7.6519-1.5308-7.6519-1.4863v-.2603l7.6519-1.5307-7.6519-1.4869v-.2602l7.6519-1.9756-.009293,.0278h7.994092v16.5308c0,.1226,.0323,.2378,.0528,.356v2.147889s.0366,2,1.453108,2.583511c1.862292,.7666,3.305192-1.3574,3.305192-1.3574l21.827599-20.260799h5.4566l-20.208499,19.4038c-.792,.7603-.8643,2.0025-.1661,2.8501l21.662208,26.291499h-19.352108Z" class="g"/><path d="M147.98 77.41c-.19-.24-.47-.37-.78-.38-.3 0-.59.13-.78.37-.02.03-3.14 3.55-12.66 3.55-3.42 0-7.03-1.65-9.9-4.51-3.93-3.93-6.1-9.59-6.1-15.94 0-8.14 3.15-12.99 5.79-15.64 2.91-2.9 6.63-4.57 10.21-4.57 9.53 0 12.65 3.37 12.68 3.4.2.22.49.35.78.34.3-.01.58-.15.76-.38l2.92-3.75c.28-.36.28-.87 0-1.24-.23-.29-5.77-7.07-20.89-7.07-16.72 0-36.23 7.57-36.23 28.9 0 7.65 2.54 14.06 7.54 19.07 6.5 6.5 16.69 10.08 28.69 10.08 15.13 0 20.67-7.03 20.9-7.33.28-.36.27-.87-.01-1.23l-2.92-3.67Zm-17.96 10.23c-11.47 0-21.16-3.37-27.28-9.49-4.61-4.61-6.95-10.55-6.95-17.65 0-7.06 2.28-12.92 6.77-17.41 6.04-6.04 16.05-9.5 27.47-9.5 11.81 0 17.2 4.2 18.79 5.75-.34.44-.88 1.13-1.75 2.24-1.6-1.19-5.51-3.3-13.29-3.3-4.11 0-8.34 1.88-11.62 5.16-2.91 2.91-6.38 8.23-6.38 17.05 0 6.88 2.38 13.04 6.69 17.35 3.24 3.24 7.36 5.1 11.31 5.1 7.84 0 11.76-2.23 13.34-3.47.41.54.96 1.25 1.71 2.19-1.57 1.59-6.96 5.98-18.8 5.98ZM284.12 89.89 284.12 89.89 284.12 89.89 284.12 89.89 284.12 89.89zM275.04 71.54v-23.97h53.36c.55 0 1-.45 1-1v-12.84c0-.55-.45-1-1-1h-104.62c-.55 0-.93 1-.93 1v53.5s.35 1 .91 1l50.66.04c1.37 1.02 3.26 2.5 3.63 2.94l.09.11c.69.84 1.98 2.41 4.8 1.48 1.27-.42 1.8-.86 2.19-1.24.01-.01.01-.01.02-.02.03 0 .05.01.09.01.51.09 1.23.06 2.13.03 1.42-.06 3.37-.13 4.27.35.31.17.66.34 1.02.52 1.67.84 3.75 1.89 5.52 3.66 1.24 1.24 2.2 1.91 2.84 2.36.22.15.46.32.55.42.11.55.43.97.71 1.35.19.24.36.47.47.71 0 0 .1.25.1.25.31.75.55 1.26 2.28 3.81.98 1.45 1.03 2.15 1.08 2.89.05.67.1 1.43.7 2.5.79 1.41 1.05 4.03 1.22 5.76.05.53.1.99.15 1.35.18 1.26.22 5.44.22 6.95 0 .17.05.34.13.49.03.06.86 1.51 1.54 2.48.36.51.87 1.37 1.36 2.21.38.65.78 1.33 1.13 1.88.44.7 1.23 2.15 1.82 3.27h-82.98v-14.9c0-.55-.45-1-1-1h-29.05c-.27 0-.52.11-.71.29-.19.19-.26.44-.26.71l.05 18.35c0 .31.14.59.38.78 16.57 12.97 48.55 23.52 71.29 23.52 26.54 0 51.09-8.06 64.06-21.03 6.98-6.98 10.52-15.09 10.52-24.09 0-37.34-53.7-44.53-71.75-45.88Zm59.82 68.55c-12.61 12.61-36.62 20.45-62.65 20.45-22.19 0-53.3-10.2-69.68-22.8l-.05-16.85h27.01v13.9c0 .53.21 1.04.59 1.41.38.38.88.59 1.41.59h82.98c.7 0 1.35-.37 1.71-.97.36-.6.38-1.35.05-1.97-.88-1.65-1.52-2.8-1.9-3.41-.33-.53-.72-1.18-1.1-1.82-.51-.87-1.04-1.76-1.44-2.33-.49-.7-1.06-1.67-1.31-2.1 0-1.13-.03-5.5-.24-6.97-.05-.32-.09-.76-.14-1.26-.19-1.91-.47-4.79-1.47-6.56-.38-.67-.41-1.09-.45-1.66-.06-.88-.14-1.98-1.42-3.87-1.69-2.5-1.85-2.88-2.08-3.45-.06-.13-.09-.21-.11-.27 0 0 0 0 0-.01 0 0 0 0 0-.01 0 0 0 0 0 0 0-.01-.01-.01-.01-.02 0 0 0 0 0 0l0 0c-.01-.03-.03-.06-.05-.09h0c.02.03.03.06.05.09-.03-.06-.05-.11-.08-.16-.02-.04-.05-.08-.08-.13 0 0 0 0 0 0l0 0c0 0 0 0-.01-.01-.18-.32-.37-.6-.54-.82-.11-.14-.31-.4-.34-.52-.08-.4-.28-.76-.58-1.04-.18-.17-.39-.33-.78-.6-.58-.41-1.45-1.02-2.57-2.14-2-2-4.24-3.12-6.03-4.03-.35-.18-.69-.35-.98-.5-1.27-.68-3.15-.66-5.29-.58-.69.03-1.41.05-1.71 0-.04-.01-.17-.02-.2-.03-.56-.06-1.12.12-1.54.48.05-.04.1-.06.15-.08 0 0 0 0 0 0-.05.03-.1.05-.15.08-.02.02-.05.04-.08.06.04-.03.08-.05.12-.08-.04.03-.09.04-.12.08-.23.22-.52.5-1.47.81-1.52.5-2.01-.09-2.63-.84-.02-.03-.05-.05-.08-.08-.01-.01-.01-.03-.02-.04-.61-.73-2.98-2.53-3.97-3.27-.34-.26-.77-.4-1.19-.4l-49.73 0V34.74h102.72v10.84h-52.36c-1.1 0-2 .9-2 2v23.97c0 1.04.81 1.92 1.85 1.99 16.4 1.23 69.9 8.02 69.9 43.88 0 8.45-3.34 16.08-9.94 22.67Z" class="d"/><path d="M283.85 90.04h0c-.01.01-.02.01-.03.02.01-.01.02-.01.03-.02ZM28.89 38.31c-.57-.07-1.15.1-1.58.48-.43.38-.68.93-.68 1.5v18.37c0 .55.23 1.08.63 1.46.4.38.94.57 1.49.54 6.07-.37 9.02-3.87 9.02-10.71 0-3.34-1.37-6.78-3.57-8.98-1.49-1.49-3.28-2.39-5.31-2.65Zm-.26 20.35v-18.37c1.57.21 2.97.9 4.15 2.08 1.84 1.84 2.98 4.74 2.98 7.57 0 5.76-2.15 8.42-7.14 8.72Z" class="d"/><path d="M56.21 40.21c-4.71-4.71-12.89-7.51-21.9-7.51H5.65c-.55 0-1 .45-1 1v53.77c0 .55.45 1 1 1H27.63c.55 0 1-.45 1-1v-21.27c13.85-.12 23.33-2.62 28.18-7.46 2.4-2.4 3.62-5.36 3.62-8.79 0-3.6-1.46-6.97-4.23-9.73Zm-.81 17.11c-4.45 4.45-13.46 6.77-26.78 6.88-1.09.01-1.98.91-1.98 2v20.27H6.65V34.7h27.66c8.49 0 16.15 2.59 20.49 6.93 2.38 2.38 3.64 5.26 3.64 8.32 0 2.88-1.02 5.36-3.04 7.38ZM87.77 32.7h-21.99c-.55 0-1 .45-1 1v53.77c0 .55.45 1 1 1h21.99c.55 0 1-.45 1-1V33.7c0-.55-.45-1-1-1Zm-1 53.77h-19.99V34.7h19.99v51.77ZM215.73 33.32c-.15-.38-.52-.63-.93-.63h-15.99c-.26 0-.51.1-.7.28l-18.59 18.01v-17.3c0-.55-.45-1-1-1h-21.99c-.55 0-1 .45-1 1v53.77c0 .55.45 1 1 1h21.99c.55 0 1-.45 1-1v-11.6l9.07 12.2c.19.25.49.4.8.4h24.86c.39 0 .74-.22.9-.57.17-.35.11-.76-.13-1.06l-23.9-29.01 24.37-23.4c.29-.28.39-.72.24-1.09Zm-25.99 23.05c-.75.72-.82 1.91-.16 2.71l22.56 27.38h-22.24c-1.51-2.04-8.77-11.79-8.77-11.79-.52-.69-1.41-.98-2.23-.71-.82.27-1.37 1.03-1.37 1.9v10.6h-19.99V34.7h19.99v16.3c0 .8.48 1.53 1.22 1.84.74.31 1.59.16 2.17-.41 0 0 15.98-15.48 18.3-17.73h13.1l-22.58 21.68Z" class="d"/></g></svg>