<svg xmlns="http://www.w3.org/2000/svg" id="b" viewBox="0 0 690.06 325.97"><defs><radialGradient id="d" cx="160.67" cy="90.24" r="63.91" fx="160.67" fy="90.24" gradientUnits="userSpaceOnUse"><stop offset="0" stop-color="#fff"/><stop offset=".88" stop-color="#ffd100"/><stop offset="1" stop-color="#ffd100"/></radialGradient><style>.e{fill:#dc0811}.e,.g,.i,.j{fill-rule:evenodd}.g{fill:#818a8c}.i{fill:#2c2473}.j{fill:#ffd200}</style></defs><g id="c"><path d="M133.04 274.47a471.6 471.6 0 0 1-30.83-11.41c16.58 10.46 37.65 19.82 60.1 26.5a223.59 223.59 0 0 0 30.1 7.21c3.44.57 6.17.97 9.23 1.3l.91-6.49c-20.9-3.11-44.5-8.8-69.5-17.11Z" class="j"/><path d="m478.09 155.1 24.87.02v-5.49l-24.91-.02.04 5.49zM508.45 149.64l-.03 8.84 3.9-.05v10.76a62.1 62.1 0 0 0 11.17 18.9c9.31 10.64 21.8 16.39 35.4 16.39 1 0 2-.03 3.01-.1 12.24-.74 24.09-7.07 33-17.32-8.03 7-17.64 11.24-27.51 11.84-1 .07-2.01.1-3 .1-13.63 0-26.1-5.75-35.42-16.4-10.96-12.52-16.75-30.5-16.73-52.02 0-22.14 5.84-40.75 16.55-53.24-.3.26-.61.5-.91.78-9.91 8.91-16.56 22.25-19.46 38.52l.03 33ZM579.62 114.88c-1.99-5.46-5.69-8.74-10.15-9-3.16-.17-6.01.92-8.48 3.24-1.04.98-2 2.2-2.87 3.58 1.8-1 3.77-1.45 5.87-1.33 3.5.2 6.53 2.3 8.63 5.82l14.9.47 20.5-9.6-.53-3.2c-.05-.21-.13-.4-.2-.61l-26.8 13.05-.87-2.41ZM277.15 261.67c.28-1.57.62-3.13 1.05-4.66l8.67-30.1-3.97.22-8.14 28.27 2.4 6.27Z" class="g"/><path d="m558.78 122.37-.3 31.14c.5.68 1.04 1.3 1.6 1.85.92.92 1.91 1.64 2.95 2.18l9.18-.02a11.35 11.35 0 0 0 5.5-5.48l-13.79.03.29-29.5-5.43-.2ZM429.76 204.97l-4.3.26.07 5.15 81.33-4.77-.01-5.16-75.84 4.45-2.04-150.03-5.57-.57 1.64 119.97 4.72 30.7zM477.78 104.25l27.94 1.64v-5.8l-27.98-1.64.04 5.8zM682.39 220.56v-.04c-2.3-1.91-4.32-2.73-6.36-2.57-.4.03-1.02.16-1.16.69.2.06.47.11.65.15l3.7.8c1.03.22 2.11.53 3.17.97ZM669.76 240.4c.02 0 1.83-.26 1.87-1.4v-.04c-.23-.06-.57-.1-.8-.14l-3.4-.45a15.38 15.38 0 0 1-6.03-2.07l.9.84c2.64 2.42 5.15 3.53 7.47 3.26ZM658.8 234.22c-2.48-2.54-4.11-6.32-3.95-11.62a25.63 25.63 0 0 1 4.63-14.3 23.12 23.12 0 0 0-5.89 6.04l-1.18 39.25 6.38-19.37ZM611.63 162.3l-9.33 37.72 34.58-2.03.9-5.21-30 1.76 29.21-118.1-4.02-.41-17.91 72.41a74.53 74.53 0 0 1-3.43 13.85ZM660.53 177.52l-15.69.62-.92 5.3 11.12-.44 1.96 13.82 30.33-1.79-.94-5.1-23.91 1.41-1.95-13.82zM633.24 224.25c-.03-.96-.03-1.93 0-2.9l.38-14.03-5.34.3-.16 5.74 5.12 10.9ZM347.46 209.8l-31.18 1.83-23.76-72.67c-.86-3.13-1.66-6.13-2.36-9.1-.1 2.6-.2 5.2-.35 7.75l-.73 13.07 21.72 66.43 35.3-2.07 1.36-5.24ZM568.9 272.93c-1.66.23-3.29.34-4.88.34-7.3 0-13.9-2.33-18.93-6.74-6.37-5.6-9.7-14-9.65-24.3a39.01 39.01 0 0 1 8.43-24.34 36.9 36.9 0 0 0-11.61 16.52l-.11 26.55a27 27 0 0 0 7.46 11.05c5.03 4.42 11.62 6.74 18.93 6.74 1.6 0 3.22-.11 4.87-.33 9.45-1.28 17.46-6 23.03-12.9a35.68 35.68 0 0 1-17.55 7.41ZM423.49 205.34l-44.23 2.6-7.69-75.47c-.22 1-.47 2-.73 2.99l-3.6 13.82 6.54 64.14 50.5-2.97-.8-5.11ZM454.22 287.34l-.82-69.83-5.54.31.5 43.13 3.08-.34.37 27.06-3.13.42.06 4.74 49.27-6.6-.01-4.75-43.78 5.86zM633.17 263.36l-10.14-20.26-.01 1.14-.35 14.58 5.02 10.02 19.02-2.55.14-4.77-13.68 1.84ZM670.99 259.12a30.37 30.37 0 0 1-17.36-3.03l-1.28-.66-.16 5.37-4.4.6.35.17a30.37 30.37 0 0 0 17.36 3.04 23.23 23.23 0 0 0 15.6-9.53 23.04 23.04 0 0 1-10.12 4.04ZM396.84 295.04l-1.81-74.25-5.6.32 1.93 79.41 54.96-7.37-.06-4.74-49.42 6.63zM601.13 267.65l1.17-58.56-5.38.3-.2 10.61a35.06 35.06 0 0 1 3.51 16.52 39.43 39.43 0 0 1-4.2 17.16l-.39 19.45 21.4-2.86.12-4.76-16.04 2.14ZM505.31 280.5l-.05-65.93-5.49.3.03 40.44 3.65-.4.04 25.83-3.66.5v4.74l26.77-3.59.02-4.75-21.31 2.86zM280.37 213.73l-60.94 3.57 20.7-182-6.17-.52-21.39 187.98 67.51-3.86.29-5.17zM204.57 320.81l12.65-89.97-6.12-.05-13.38 95.18 45.11-5.54.31-4.79-38.57 5.17zM331.71 121.2c.56-4.68 1.25-9.36 2.25-13.83l14.12-60.89-4.12-.42-15.02 64.83 2.77 10.31ZM352.65 300.95l-2.66-77.6-5.66.32 2.84 82.77 35.25-4.72-.13-4.73-29.64 3.96zM309.74 306.71l-5.47-36.01-4.3 13.26 4.29 28.23 37-4.96-1.07-4.6-30.45 4.08zM267.34 312.4l-16.2-35.57-.27-.71v.03l-1.02 15.38 12 26.35 24.48-3.3 1.61-4.95-20.6 2.77Z" class="g"/><path d="m242.85 31.85 64.18 6.66 24.64 91.43 1.4.03c.78-7.3 1.56-15.04 3.15-22.09l15.02-64.8 52.12 5.41 23.72 154.32-45.74 2.69-8.82-86.57-.93-.03c-.82 5.32-1.62 10.86-2.99 15.96l-18.84 72.49-31.83 1.87-23.21-70.98c-2.01-7.37-3.8-14.32-4.52-21.72l-1.98-.07c-.17 6.95-.33 14.11-.73 21.03l-4.12 73.75-61.33 3.6 20.81-182.97ZM431.23 51.39l77.63 8.04.03 38.52-33.48-1.96.09 13.88 30.6 1.32.03 36.13-30.41-.03.09 14.01 34.2-.52.01 37.16-76.73 4.51-2.06-151.06zM614.59 121.02c-.58 19.8-.86 36.3-10.68 51.89-9 14.4-23 22.85-36.66 23.68-13.91.86-26.89-4.49-36.54-15.5-9.92-11.34-16.17-28.5-16.16-50.5 0-45.25 24.39-70.22 54.24-67.05 15.58 1.67 35.87 14.67 41.96 36.45l-28.96 14.1c-2.38-6.56-6.94-10.21-12.19-10.51-11.96-.66-18.81 13.74-18.92 29.67-.1 14.45 6.25 27.86 17.04 27.69a13.82 13.82 0 0 0 13.18-11.22l-14.64.03.3-30.46 48.03 1.73ZM642.87 175.9l19.65-.77 1.95 13.77 25.6-1.51-20.64-111.31-29.21-3.02-29.44 118.98 29.61-1.73 2.48-14.4Zm5.4-27.4 5.66-35.13.96.06c.36 4.92.7 9.99 1.34 14.88l2.52 20.18h-10.48Z" class="e"/><path d="m352.2 220.37 31.24-1.77 2.09 75.62-30.65 4.1-2.68-77.95zM397.28 217.81l28.54-1.6.91 49.43 22.43-2.45.31 22.46-50.38 6.75-1.81-74.59zM455.68 214.52l25.24-1.42.3 46.57 19.92-2.18.04 21.23-44.68 5.98-.82-70.18zM507.57 211.58l22.48-1.26-.27 64.56-22.16 2.97-.05-66.27zM604.68 206.1l17.02-.96 14.38 30.6.48-.05c-.54-4.65-1.13-9.46-1-14.28l.46-17.08 15.59-.88-1.67 55.32-15.44 2.07-14.08-28.12-.51.05c.47 3.93.89 7.61.8 11.41l-.45 18.57L603.5 265l1.19-58.9ZM659.95 238.1l.75.72c2.66 2.43 5.87 4.27 9.32 3.88 1.47-.17 3.83-1.2 3.93-3.62.07-2.4-1.88-2.4-3.23-2.6l-2.98-.4c-5.9-.75-10.84-4.81-10.58-13.4.41-13.11 9.85-20.97 18.88-21.47 4.64-.26 8.78 1 12.55 3.94L684.2 219c-2.4-2.06-5.16-3.61-8.34-3.36-1.3.1-3.23.88-3.32 3.1-.05 2 1.78 2.14 2.9 2.4l3.3.71c6.1 1.3 10.32 5.22 9.98 14.1-.48 12.42-9.29 19.7-18.03 20.88a28.1 28.1 0 0 1-15.98-2.8l5.25-15.92ZM219.98 227.83l40.9-2.31 16.61 43.54.95-.08c.49-3.73.96-7.69 1.99-11.35l9.72-33.77 35.74-2.01 18.02 77.94-32.22 4.32-6.64-43.72-.64.06c-.53 2.76-1.04 5.64-1.96 8.35L290.06 307l-21.33 2.87-15.48-34c-1.35-3.52-2.52-6.83-3.02-10.44l-1.28.1c-.08 3.46-.16 7.01-.39 10.46l-2.43 36.91-38.84 5.21 12.7-90.28ZM569.39 207.1c-16.96.94-31.5 14.96-31.63 35.14-.12 20.44 14.01 30.67 30.82 28.4 16.13-2.18 28.98-15.2 29.34-34.16.36-18.73-12.27-30.28-28.53-29.38Z" class="i"/><path d="m566.98 232.33 4.86-16.63 5.43 15.83 13.87-1.14-10.7 10.31 4.77 14.32-12.33-7.21-14.48 13.83 5.49-18.77-15.99-9.16 19.08-1.38z" style="fill:#fff;fill-rule:evenodd"/><path d="M179.33 190.5c43.14 0 78.32-35.19 78.32-78.33s-35.18-78.32-78.32-78.32S101 69.03 101 112.17s35.19 78.33 78.33 78.33Z" style="fill:url(#d);fill-rule:evenodd"/><path d="M177.28 205.49c-8.19.35-16.16-.06-23.81-1.15a73.54 73.54 0 0 0 47.7 10.05 64.44 64.44 0 0 0 29.32-10.2l1.67-1.2.68-.5a74.06 74.06 0 0 0 12.79-10.91 74.34 74.34 0 0 0 13.11-19.36l1.13-2.52.18-.41.58-1.27a67.57 67.57 0 0 0 2.5-7.34c-14.98 24.97-47.46 43.11-85.85 44.8Z" class="j"/><path d="m219.54 124.61-7.75 15.08-15.68-3.28-18.9.58-4.34-20.05-9.04-19.13 15.89-12.26 10.96-13.4L205.65 80l13.6 3.06 3.49 15.7 5.93 14.21-9.13 11.65Zm20.98-13.7 1.32-14.49-7.89 10-10.86-7.8 4.22-13.9 11.8 2.47-9.17-11.05 3.9-12.44-9.81 5.32-10.65-12.85L217.1 73l-11.27 6.05-8.94-14.76 9.3-11.77-15.88.83-10.72-18.02-.12 18.6-20.97 1.1 21.12 11.17-.23 19.02-21.7-.08-10.56-21.86-6.2 21.74-31.03-.36L137 98.8l-6.98 24.51 22.22-16.85 20.02 10.62-9.12 20.52-27.34 1.16 20.75 13.53-11.3 24.86 22.38-17.64 16.63 10.84-4.44-20.73 16.3-12.71 10.35 13.39-9.65 19.19 15.99-10.93 9.12 12.04-.78-17.75 12.3-8.42-12.94-2.78-.65-16.85 12.52-3.13 5.88 13.81 1.43-15.6 10.1-2.41-9.27-6.58Z" class="i"/><path d="M37.68 65.5c-7.06 17.97-3.41 61.1 12.73 90.95a238.19 238.19 0 0 0 21.56 35.76c-21.24-22.27-45.3-58.07-54.91-102.94C27.29 74.49 31.17 71.92 37.68 65.5Z" class="e"/><path d="M147.38 28.41a69.64 69.64 0 0 1 10.55-3.27c-9.25-5.19-79.32-42.39-130.91-7.43-43.55 29.5-22.5 90.75-17.86 102.66 12.7 34.6 38.01 69.75 71.3 98.96 32.29 28.33 70.4 45.77 105.44 54.3l.37-1.05c-21.48-10.3-40.99-27.43-60.3-44.38-56.72-49.78-87.4-116.06-74.57-159.78A264.53 264.53 0 0 1 91.42 93c.62-2.7 1.35-5.36 2.2-7.96a269.08 269.08 0 0 0-42.85-25.51l-3.8-1.8-1.47 3.95c-8.35 22.66-5.47 52.28 8.1 83.43 13.6 31.18 37.5 62.74 67.28 88.88a297.1 297.1 0 0 0 26.45 20.72c-21.3-10.18-42.4-24.2-61.79-41.2-32.32-28.36-56.88-62.39-69.16-95.88C12.1 106.62-7.36 50.32 31.35 24.1c14.46-9.8 30.8-13.3 46.77-13.3 28.83 0 56.39 11.4 69.26 17.61Z" class="j"/><path d="M135.31 34.2c-16.14-6.33-40.83-15.43-56.96-15.43-16.6 0-31.04 4.07-42.9 12.1a47.7 47.7 0 0 0-3.38 2.55l-.1.09c-.57.46-1.13.94-1.7 1.47l-.3.26-.53.49a44.2 44.2 0 0 0-1.86 1.88c-.36.39-.7.8-1.05 1.2v.01l-.05.06c-.3.33-.58.67-.86 1-.38.48-.76.97-1.12 1.47l-.25.35-.14.2c-7.94 11.18-9.8 25.12-9.02 38.18a69.91 69.91 0 0 1 6.28-8.35c6.4-7.28 15.39-16.96 24.5-21.26l6.11 2.89 1.98.93c10.42 4.92 29.26 15.3 42.4 23.46a91.36 91.36 0 0 1 38.96-43.54Z" class="j"/><path d="M83.82 106.14a90.78 90.78 0 0 1 29.22-66.8c-23.44 13.05-39.3 38.07-39.3 66.8s15.86 53.75 39.3 66.8a90.78 90.78 0 0 1-29.22-66.8Z" class="e"/><path d="M358.94 25.94 359.06 0l6.81.7 12.41 17.17h.07l.08-15.86 6.81.71-.12 25.95-6.81-.71-12.41-17.2h-.07l-.07 15.9-6.82-.72Zm45.64-15.49-8.1-.84-.02 4.33 7.69.8-.03 5.71-7.68-.8-.02 4.48 8.1.84-.03 5.71-14.91-1.55.11-25.95 14.92 1.56-.03 5.7Zm8.58-4.82 4.48 17.23h.07l5.57-16.18 5.43.56 5.07 17.3h.07l5-16.24 7.1.74-8.5 25.07-6.95-.72-4.52-15.52h-.07l-5.21 14.5-6.92-.72-7.7-26.76 7.08.74Zm53.2 15.55 9.84 1.02.04-10.01 6.82.7-.12 25.95-6.81-.7.04-10.64-9.84-1.02-.04 10.63-6.82-.71.12-25.95 6.81.71-.04 10.02Zm37.12 15.29-9.4-.98-1.82 4.32-7.23-.75 10.2-24.9 7.44.78 9.76 26.97-7.27-.76-1.68-4.68Zm-1.82-5.36-2.75-8.54-.07-.01-2.85 7.96 5.67.6Zm11.32 10.86 4.57-25.49 6.71.7 5.26 14.42 5.7-13.28 6.78.7 3.85 26.36-6.82-.7-1.85-15.14h-.07l-6.36 14.27-2.7-.28-5.96-15.56h-.07l-2.25 14.7-6.78-.7Zm35.75 3.71.12-25.94 10.43 1.08c2.83.32 5.12 1.25 6.87 2.79 1.76 1.53 2.63 3.8 2.62 6.77-.02 3.05-.83 5.2-2.45 6.44-1.62 1.25-3.9 1.71-6.88 1.4l-3.86-.4-.03 8.57-6.82-.7Zm6.9-19.8-.02 6.47 1.15.12c1.23.15 2.35.15 3.37 0 1.02-.17 1.54-1.04 1.54-2.62.01-1.64-.47-2.67-1.44-3.05-.97-.4-2.12-.66-3.44-.8l-1.15-.12Zm33.3-.53-2.73 4.95a9.23 9.23 0 0 0-2.1-1.44 6.92 6.92 0 0 0-2.8-.74c-.14 0-.28.01-.42.05a3.2 3.2 0 0 0-1.46.53c-.44.3-.66.74-.66 1.31 0 .55.2 1.01.61 1.39a6.66 6.66 0 0 0 2.4 1.4l1.74.66a14.5 14.5 0 0 1 4.6 2.87c1.23 1.18 1.84 2.82 1.83 4.93v.55a11.39 11.39 0 0 1-.68 3.42c-.4 1.1-1.08 2-2.06 2.73a7.78 7.78 0 0 1-3 1.38 13.9 13.9 0 0 1-4.45.26c-1.65-.18-3.26-.6-4.83-1.28a19.47 19.47 0 0 1-4.37-2.6l2.94-5.17a16.3 16.3 0 0 0 2.79 2.21c1 .64 2.09 1.01 3.25 1.13l.14.02.14.01c.76.04 1.46-.13 2.09-.49.62-.36.94-.96.94-1.8 0-.65-.25-1.2-.77-1.64a7.47 7.47 0 0 0-2.59-1.45l-.76-.3a.74.74 0 0 0-.16-.07 17.34 17.34 0 0 1-5.08-2.78c-1.23-1.03-1.83-2.77-1.82-5.22.01-2.64.87-4.66 2.58-6.07 1.71-1.4 3.88-1.97 6.5-1.7.53.06 1.08.14 1.63.26a22.12 22.12 0 0 1 4.25 1.46c.85.38 1.62.8 2.31 1.27v-.04Zm11.1 9.73 9.83 1.02.05-10.01 6.81.7-.11 25.95-6.82-.7.05-10.64-9.84-1.02-.05 10.63-6.81-.7.11-25.95 6.82.7-.05 10.02Zm27.96-7.11-.12 25.94-6.81-.7.12-25.95 6.81.71Zm17.94 17.19 8.2 11.48-8.49-.88-6.39-10.65h-.06l-.05 9.98-6.81-.71.11-25.95 10.19 1.06c2.6.3 4.76 1.17 6.5 2.62 1.73 1.46 2.59 3.57 2.57 6.35 0 1.79-.5 3.32-1.5 4.6a5.6 5.6 0 0 1-4.27 2.13v-.04Zm-6.7-10.86-.03 6.47.66.07c.12.04.24.06.35.07l.31.03a6.47 6.47 0 0 0 2.8-.41c.85-.34 1.28-1.14 1.29-2.4 0-1.27-.42-2.17-1.26-2.69a7.37 7.37 0 0 0-3.1-1.03l-.36-.04-.66-.07Zm31.75 3.86-8.1-.85-.02 4.34 7.68.8-.03 5.71-7.68-.8-.02 4.47 8.1.85-.02 5.7-14.92-1.54.12-25.95L671 32.44l-.02 5.72Z" class="g"/></g></svg>