<svg xmlns="http://www.w3.org/2000/svg" viewBox="0 0 173.484 173.485"><defs><radialGradient id="d" cx="41.422" cy="81.178" r="10.832" fx="41.422" fy="81.178" gradientTransform="rotate(45 894.92 84.544) scale(8.09)" gradientUnits="userSpaceOnUse"><stop offset="0" stop-color="#fff"/><stop offset=".526" stop-color="#fdfdfd"/><stop offset=".715" stop-color="#f6f6f6"/><stop offset=".85" stop-color="#eaebeb"/><stop offset=".958" stop-color="#d9dbdc"/><stop offset="1" stop-color="#d1d3d4"/></radialGradient><style>.g{fill:#6660aa}.i{fill:#20c4f4}</style></defs><g style="isolation:isolate"><g id="b"><circle id="c" cx="86.742" cy="86.743" r="86.742" style="fill:url(#d)" transform="rotate(-45 86.742 86.743)"/><g id="e"><path d="M36.674 134.614h1.639l5.07 7.567h.026v-7.567h1.248v9.205H43.07l-5.122-7.566h-.027v7.566h-1.248v-9.205ZM48.101 141.167c0 .269.059.513.176.735.117.22.27.409.462.565.19.156.41.277.663.364.25.086.51.13.78.13.363 0 .68-.085.948-.254s.516-.391.742-.669l.883.676c-.65.84-1.56 1.26-2.73 1.26-.485 0-.925-.081-1.32-.246a2.867 2.867 0 0 1-1-.683 3.038 3.038 0 0 1-.63-1.026 3.63 3.63 0 0 1-.222-1.282c0-.458.08-.885.241-1.28.16-.394.381-.736.663-1.027.282-.29.618-.518 1.007-.682.39-.165.815-.247 1.275-.247.545 0 1.007.095 1.384.285.377.192.687.44.929.748.243.308.419.655.527 1.04.108.386.162.779.162 1.177v.416h-4.94Zm3.692-.936a2.487 2.487 0 0 0-.123-.715 1.517 1.517 0 0 0-.885-.942 2.022 2.022 0 0 0-.773-.137 1.89 1.89 0 0 0-1.39.585 1.944 1.944 0 0 0-.384.579 1.59 1.59 0 0 0-.137.63h3.692ZM54.198 137.656h1.313l1.384 4.603h.026l1.476-4.603h1.248l1.56 4.603h.026l1.313-4.603h1.248l-1.989 6.163h-1.182l-1.633-4.602h-.027l-1.487 4.602h-1.248l-2.028-6.163ZM69.707 134.614h1.248v3.823h4.772v-3.823h1.248v9.205h-1.248v-4.212h-4.772v4.212h-1.248v-9.205ZM79.561 138.41c.33-.302.71-.53 1.144-.681a3.9 3.9 0 0 1 1.3-.228c.451 0 .839.056 1.164.17.325.111.592.263.8.454.208.19.361.41.46.656s.15.505.15.774v3.145c0 .217.005.416.014.599.008.182.021.356.039.52h-1.04c-.027-.312-.04-.624-.04-.936h-.026c-.26.398-.567.68-.923.845-.355.165-.767.247-1.235.247-.286 0-.558-.04-.818-.117a1.984 1.984 0 0 1-.683-.351 1.666 1.666 0 0 1-.462-.58 1.797 1.797 0 0 1-.169-.798c0-.398.09-.732.267-1s.42-.49.727-.658.668-.29 1.08-.363c.412-.075.851-.11 1.319-.11h.858v-.261a1.288 1.288 0 0 0-.364-.891 1.31 1.31 0 0 0-.455-.299 1.734 1.734 0 0 0-.65-.11 2.367 2.367 0 0 0-1.43.455c-.112.087-.22.169-.324.247l-.703-.729Zm3.302 2.445c-.277 0-.561.015-.851.046s-.555.088-.793.174c-.239.087-.434.208-.585.365s-.228.355-.228.598c0 .356.12.61.358.767s.561.234.968.234c.32 0 .594-.054.82-.163.224-.108.407-.249.546-.423.138-.173.238-.365.298-.578.061-.212.091-.423.091-.63v-.39h-.624ZM86.776 137.656h1.092v.962h.027c.026-.086.092-.194.2-.324s.248-.254.417-.371.368-.216.598-.299c.23-.082.483-.123.76-.123.46 0 .846.095 1.157.285.313.192.568.478.768.859.2-.381.48-.667.845-.859.364-.19.732-.285 1.104-.285.477 0 .867.077 1.171.234.303.156.541.362.715.618.173.255.292.546.357.87.065.325.098.661.098 1.008v3.588h-1.17v-3.432c0-.234-.016-.46-.046-.676s-.094-.407-.188-.572a1.07 1.07 0 0 0-.404-.397c-.173-.1-.402-.149-.688-.149-.564 0-.967.173-1.21.52-.242.346-.363.792-.363 1.338v3.368h-1.17v-3.224c0-.295-.016-.564-.046-.806-.03-.243-.091-.453-.182-.63s-.22-.317-.39-.417c-.17-.1-.396-.149-.682-.149-.208 0-.41.041-.605.123a1.434 1.434 0 0 0-.513.371 1.8 1.8 0 0 0-.352.63c-.086.256-.13.558-.13.903v3.199h-1.17v-6.163ZM98.347 137.656h1.17v.885h.026a2.23 2.23 0 0 1 .93-.767 2.87 2.87 0 0 1 1.214-.273c.477 0 .909.082 1.294.247.386.164.715.394.989.689.272.295.482.64.63 1.033.147.394.221.817.221 1.268 0 .46-.074.886-.221 1.28a3.038 3.038 0 0 1-.63 1.027 2.889 2.889 0 0 1-.989.683 3.259 3.259 0 0 1-1.294.247 2.86 2.86 0 0 1-1.248-.28 2.138 2.138 0 0 1-.896-.76h-.026v4.55h-1.17v-9.829Zm3.198.937c-.313 0-.594.054-.845.162a1.867 1.867 0 0 0-.638.442 1.944 1.944 0 0 0-.402.676 2.524 2.524 0 0 0-.143.865c0 .312.047.6.143.865.095.263.23.489.402.676.174.186.386.333.638.44.251.11.532.164.845.164.311 0 .594-.055.845-.163a1.85 1.85 0 0 0 .637-.441c.173-.187.307-.413.403-.676.095-.265.143-.553.143-.865 0-.312-.048-.6-.143-.865s-.23-.489-.403-.676a1.867 1.867 0 0 0-.637-.442 2.112 2.112 0 0 0-.845-.162ZM110.06 139.203a1.794 1.794 0 0 0-.513-.434 1.478 1.478 0 0 0-.747-.176c-.279 0-.519.059-.722.176a.558.558 0 0 0-.306.512c0 .183.059.33.176.443.116.112.255.204.416.273.16.07.331.121.513.156l.469.09c.25.062.487.135.708.222s.412.2.572.338.286.308.377.507.137.442.137.728c0 .347-.075.643-.222.89s-.338.45-.571.604c-.235.157-.501.27-.8.338-.299.07-.6.105-.903.105-.512 0-.96-.078-1.346-.235-.386-.155-.73-.441-1.033-.857l.883-.729c.19.192.404.36.637.507.235.148.52.222.859.222.147 0 .296-.016.448-.046s.286-.078.403-.142a.893.893 0 0 0 .286-.248c.073-.1.11-.214.11-.344 0-.173-.054-.317-.162-.429s-.239-.202-.39-.267a2.777 2.777 0 0 0-.482-.156 17.11 17.11 0 0 0-.448-.097c-.25-.061-.49-.13-.715-.209s-.424-.181-.597-.311a1.431 1.431 0 0 1-.416-.494c-.105-.2-.157-.446-.157-.741 0-.32.068-.6.202-.838.134-.239.312-.436.533-.592s.472-.274.754-.352c.28-.077.565-.116.851-.116.416 0 .815.077 1.197.234.38.156.684.416.91.78l-.91.688ZM113.05 133.99h1.17v4.616h.026c.148-.33.403-.596.767-.8.364-.203.784-.305 1.261-.305.294 0 .579.045.852.136.272.092.51.232.715.423.203.19.366.435.487.734s.182.652.182 1.06v3.965h-1.17v-3.64c0-.286-.04-.531-.117-.734-.078-.205-.182-.369-.312-.495s-.28-.216-.448-.273a1.675 1.675 0 0 0-.527-.084c-.243 0-.468.039-.676.117s-.39.201-.546.37-.277.384-.364.644c-.086.26-.13.567-.13.923v3.172h-1.17v-9.829ZM120.59 135.446c0-.233.084-.435.253-.604s.37-.253.604-.253c.235 0 .436.084.605.253.17.169.254.371.254.604a.821.821 0 0 1-.254.605.825.825 0 0 1-.605.254c-.233 0-.435-.085-.604-.254s-.253-.37-.253-.605Zm.272 2.21h1.17v6.163h-1.17v-6.163ZM124.385 137.656h1.17v.95h.026c.078-.164.182-.314.312-.449.13-.134.275-.249.435-.344.16-.095.336-.171.526-.228.192-.056.382-.084.573-.084s.364.026.52.077l-.052 1.262a3.332 3.332 0 0 0-.286-.065 1.675 1.675 0 0 0-.286-.026c-.572 0-1.01.16-1.313.48-.304.322-.455.82-.455 1.496v3.094h-1.17v-6.163ZM130.339 141.167c0 .269.058.513.176.735.117.22.27.409.462.565.19.156.41.277.663.364.25.086.51.13.779.13.364 0 .68-.085.95-.254s.515-.391.74-.669l.884.676c-.65.84-1.56 1.26-2.73 1.26-.486 0-.925-.081-1.32-.246a2.867 2.867 0 0 1-1-.683 3.038 3.038 0 0 1-.63-1.026 3.63 3.63 0 0 1-.222-1.282c0-.458.08-.885.241-1.28.16-.394.38-.736.663-1.027.281-.29.617-.518 1.007-.682.39-.165.814-.247 1.274-.247.546 0 1.008.095 1.385.285.377.192.687.44.929.748.243.308.419.655.527 1.04.108.386.162.779.162 1.177v.416h-4.94Zm3.692-.936a2.487 2.487 0 0 0-.123-.715 1.517 1.517 0 0 0-.885-.942 2.022 2.022 0 0 0-.773-.137 1.89 1.89 0 0 0-1.39.585 1.944 1.944 0 0 0-.384.579 1.59 1.59 0 0 0-.137.63h3.692Z" class="g"/><g style="mix-blend-mode:multiply"><path d="M59.63 112.785v5.35h12.774v8.75H36.596v-14.1c0-7.9 5.632-12.15 11.516-12.15 5.885 0 11.518 4.25 11.518 12.15Zm-15.139.4v4.95h7.242v-4.95c0-2.4-1.76-3.8-3.62-3.8-1.861 0-3.622 1.4-3.622 3.8ZM72.404 98.037H36.596v-8.75h35.808v8.75ZM72.706 72.237c0 4.15-1.408 7.3-4.023 9.9-3.772 3.75-8.801 3.6-14.183 3.6s-10.411.15-14.183-3.6c-2.615-2.6-4.023-5.75-4.023-9.9 0-6.75 3.771-12.201 11.668-13.501v8.9c-2.012.55-3.822 1.65-3.822 4.55 0 1.6.654 2.801 1.508 3.45 1.056.801 2.314 1.351 8.852 1.351s7.796-.55 8.852-1.35c.854-.65 1.508-1.85 1.508-3.45 0-2.9-1.81-4-3.822-4.55v-8.901c7.897 1.3 11.668 6.75 11.668 13.5ZM72.404 36.786 57.72 44.987l3.47 3h11.215v8.65H36.596v-8.65H49.27l-12.674-10.3V26.986l14.484 12.15 21.324-12.55v10.2Z" class="i"/></g><path d="M109.932 128.591c-16.167 0-31.198-9.057-31.655-29.72-.003-.125-.005-9.055-.007-9.181H96.5c.003.095.007 8.992.01 9.086.397 8.805 6.347 13.38 13.422 13.38 7.853 0 13.462-4.916 13.462-13.906 0-8.288-5.048-13.766-14.023-13.766h-2.664V68.611h2.664c8.834 0 12.621-5.479 12.621-12.502 0-8.428-5.61-12.783-12.2-12.783-6.87 0-12.87 5.856-13.292 13.442H78.27c.42-17.84 14.694-29.876 31.522-29.876 17.668 0 30.428 11.8 30.428 28.655 0 10.817-4.907 16.997-11.498 20.509 7.151 3.792 12.9 10.675 12.9 22.756 0 19.946-14.583 29.78-31.69 29.78Z" class="g"/></g></g></g></svg>