<svg xmlns="http://www.w3.org/2000/svg" xmlns:xlink="http://www.w3.org/1999/xlink" id="b" viewBox="0 0 339 94.15"><defs><radialGradient id="d" cx="313" cy="951" r="26.04" fx="313" fy="951" gradientTransform="translate(0 -905.8)" gradientUnits="userSpaceOnUse"><stop offset="0" stop-color="#e42f43"/><stop offset="1" stop-color="#da2d3f"/></radialGradient><radialGradient id="f" cx="255.66" cy="950.77" r="26.06" fx="255.66" fy="950.77" gradientTransform="translate(0 -905.8)" gradientUnits="userSpaceOnUse"><stop offset="0" stop-color="#fff"/><stop offset=".7" stop-color="#fdfdfd"/><stop offset=".95" stop-color="#f6f6f6"/><stop offset="1" stop-color="#f4f4f4"/></radialGradient><radialGradient xlink:href="#f" id="h" cx="198.36" fx="198.36"/><radialGradient xlink:href="#f" id="j" cx="141" fx="141"/><radialGradient xlink:href="#f" id="l" cx="83.4" fx="83.4"/><radialGradient xlink:href="#f" id="n" cx="26" r="26.08" fx="26"/><linearGradient id="e" x1="313" x2="313" y1="977.08" y2="925" gradientTransform="translate(0 -905.8)" gradientUnits="userSpaceOnUse"><stop offset="0" stop-color="#8f1a26"/><stop offset=".04" stop-color="#8f1a26" stop-opacity=".83"/><stop offset=".1" stop-color="#8f1a26" stop-opacity=".61"/><stop offset=".16" stop-color="#8f1a26" stop-opacity=".42"/><stop offset=".24" stop-color="#8f1a26" stop-opacity=".26"/><stop offset=".32" stop-color="#8f1a26" stop-opacity=".14"/><stop offset=".43" stop-color="#8f1a26" stop-opacity=".06"/><stop offset=".58" stop-color="#8f1a26" stop-opacity=".01"/><stop offset="1" stop-color="#8f1a26" stop-opacity="0"/></linearGradient><linearGradient id="g" x1="255.66" x2="255.66" y1="976.85" y2="924.77" gradientTransform="translate(0 -905.8)" gradientUnits="userSpaceOnUse"><stop offset="0" stop-color="#939392"/><stop offset=".04" stop-color="#939392" stop-opacity=".8"/><stop offset=".1" stop-color="#939392" stop-opacity=".59"/><stop offset=".17" stop-color="#939392" stop-opacity=".4"/><stop offset=".24" stop-color="#939392" stop-opacity=".25"/><stop offset=".33" stop-color="#939392" stop-opacity=".14"/><stop offset=".43" stop-color="#939392" stop-opacity=".06"/><stop offset=".58" stop-color="#939392" stop-opacity=".01"/><stop offset="1" stop-color="#939392" stop-opacity="0"/></linearGradient><linearGradient xlink:href="#g" id="i" x1="198.36" x2="198.36"/><linearGradient xlink:href="#g" id="k" x1="141" x2="141"/><linearGradient xlink:href="#g" id="m" x1="83.4" x2="83.4"/><linearGradient xlink:href="#g" id="o" x1="26" x2="26"/><style>.s{fill:#111821}.t,.u{fill:#fff}.u,.y{fill-rule:evenodd}.af,.y{fill:#101820}</style></defs><g id="c"><path d="M283.36 78.2h54.51v15.16h-54.51z" class="t"/><path d="M202.95 77.55v16.6h135.67v-16.6H202.95Zm134.4 15.33h-52.12V78.82h52.12v14.06Z" class="af"/><path d="M206.83 79.87h6.38c1.39 0 2.43.33 3.12.99.7.66 1.04 1.6 1.04 2.82 0 1.26-.38 2.24-1.13 2.94-.76.71-1.9 1.06-3.46 1.06h-2.1v4.61h-3.85V79.87Zm3.85 5.3h.94c.74 0 1.26-.13 1.56-.4.3-.25.45-.58.45-.98 0-.39-.13-.72-.39-.99s-.75-.4-1.46-.4h-1.1v2.76ZM220.15 85.75c0-2.03.56-3.6 1.7-4.74 1.12-1.13 2.7-1.7 4.71-1.7 2.07 0 3.67.56 4.78 1.67 1.12 1.11 1.68 2.67 1.68 4.67 0 1.45-.24 2.64-.73 3.57a5.24 5.24 0 0 1-2.12 2.17c-.93.52-2.07.77-3.45.77-1.4 0-2.57-.22-3.48-.66a5.26 5.26 0 0 1-2.24-2.13 7.04 7.04 0 0 1-.85-3.62Zm3.84.01c0 1.26.23 2.16.7 2.71.46.55 1.1.82 1.9.82.82 0 1.46-.27 1.91-.8.46-.54.68-1.5.68-2.9 0-1.16-.23-2.02-.7-2.56a2.42 2.42 0 0 0-1.93-.8c-.77 0-1.4.26-1.86.82-.47.54-.7 1.45-.7 2.71ZM235.51 79.8h3.64l1.31 6.95 1.92-6.95h3.64l1.92 6.95 1.31-6.95h3.63l-2.74 12.43h-3.76l-2.18-7.82-2.17 7.82h-3.76l-2.76-12.43zM256.34 79.81h10.29v2.65h-6.44v1.98h5.98v2.53h-5.98v2.45h6.63v2.82h-10.48V79.81zM270.18 92.24V79.8h6.4c1.19 0 2.1.1 2.72.3.63.2 1.14.59 1.52 1.14.39.55.58 1.22.58 2 0 .7-.15 1.3-.44 1.8-.3.5-.7.9-1.21 1.21-.33.2-.78.36-1.35.49.45.15.79.3 1 .46.14.1.34.32.61.65.27.34.45.6.54.77l1.86 3.6h-4.34l-2.05-3.8c-.26-.48-.5-.8-.7-.95a1.6 1.6 0 0 0-.94-.29h-.34v5.05h-3.86Zm3.86-7.4h1.62c.17 0 .51-.05 1.02-.16.25-.06.46-.19.62-.4.16-.2.24-.44.24-.72 0-.4-.13-.7-.38-.92-.26-.22-.73-.32-1.43-.32h-1.69v2.52Z" class="u"/><path d="M290.34 81.1v4.7h2.05c1.14 0 1.98-.18 2.53-.56.54-.38.81-.96.81-1.75 0-.83-.27-1.43-.82-1.81-.55-.38-1.42-.57-2.63-.57h-1.94Zm-1.38-1.2h3c.86 0 1.55.03 2.06.11a3.66 3.66 0 0 1 2.72 1.66 3.43 3.43 0 0 1-1.2 4.75c-.38.22-.82.38-1.35.48-.52.1-1.18.15-1.99.15h-1.86v5.19h-1.38V79.89ZM306.31 92.06h-6.37V79.72h1.4v11.15h4.97v1.19zM309.99 91.9h-1.47l5.49-12.34h1.66l5.47 12.35h-1.48l-1.7-3.88h-6.28l-1.7 3.88Zm7.49-4.98-2.68-6.2-2.64 6.2h5.32ZM329.04 87.75v4.54h-1.37v-4.55l-4.51-7.79h1.59l3.61 6.41 3.65-6.41h1.54l-4.51 7.8z" class="y"/><path d="M313 19.2a26 26 0 1 1 0 52 26 26 0 0 1 0-52Z" style="fill:url(#d)"/><path d="M313 19.2a26 26 0 1 1 0 52 26 26 0 0 1 0-52Z" style="fill:url(#e)"/><path d="M255.66 18.97a26 26 0 1 1 0 52 26 26 0 0 1 0-52Z" style="fill:url(#f)"/><path d="M255.66 18.97a26 26 0 1 1 0 52 26 26 0 0 1 0-52Z" style="fill:url(#g)"/><path d="M198.36 18.97a26 26 0 1 1 0 52 26 26 0 0 1 0-52Z" style="fill:url(#h)"/><path d="M198.36 18.97a26 26 0 1 1 0 52 26 26 0 0 1 0-52Z" style="fill:url(#i)"/><path d="M141 18.97a26 26 0 1 1 0 52 26 26 0 0 1 0-52Z" style="fill:url(#j)"/><path d="M141 18.97a26 26 0 1 1 0 52 26 26 0 0 1 0-52Z" style="fill:url(#k)"/><path d="M83.4 18.97a26 26 0 1 1 0 52 26 26 0 0 1 0-52Z" style="fill:url(#l)"/><path d="M83.4 18.97a26 26 0 1 1 0 52 26 26 0 0 1 0-52Z" style="fill:url(#m)"/><path d="M26 18.97a26 26 0 1 1 0 52 26 26 0 0 1 0-52Z" style="fill:url(#n)"/><path d="M26 18.97a26 26 0 1 1 0 52 26 26 0 0 1 0-52Z" style="fill:url(#o)"/><path d="M291.23 54.04c-2.07-6.7-1.62-12.6 0-18.8 1.72-.1 3.44-.19 5.16-.26 2.45-.1 4 .91 3.6 4.88a7.35 7.35 0 0 1-1.76 4.33c1.26.58 1.94 2.46 2.11 4.64.36 4.5-1 6-3.84 5.71-1.75-.12-3.5-.35-5.27-.5Zm2.42-14.52a28.87 28.87 0 0 0-.39 3.21h1.6c.77 0 1.34-.56 1.46-1.7.16-1.53-.54-1.56-1.35-1.55l-1.32.04Zm-.41 6.73c.06 1.2.19 2.4.39 3.58l1.65.08c.93 0 1.57-.24 1.43-1.72-.14-1.73-1-1.87-2.25-1.9l-1.22-.04Zm7.85 7.94c.09-6.34 2.32-12.78 4.91-19.28l4.58-.06c1.23 6.5 3.46 13 4.92 19.53H311l-.68-2.58h-4.69c-.09.85-.15 1.7-.19 2.55l-4.35-.16Zm6.73-13.45a85.75 85.75 0 0 0-1.53 7h3.07c-.58-2.32-1.12-4.69-1.54-7ZM317 54.42c.35-6.49.35-12.99 0-19.48h4.17c.65 4.94.8 9.93.46 14.9l6.09-.08a44.5 44.5 0 0 1-.83 4.45c-3.24.15-6.57.21-9.89.21Zm11.09-.23a44.91 44.91 0 0 0 .08-19c1.07.06 2.36.2 3.43.28a32.84 32.84 0 0 1 .63 14.05h4.38c-.39 1.47-.89 2.9-1.5 4.3-2.53.2-4.46.21-7.02.37Z" class="t"/><path d="M28.72 29.42c-1.33 0-2.55 0-3.72-.07-3.1-.16-6.19-.08-9.27.23h-.28l-.08.28c-1.67 6.72-2.94 15.14-.86 31.25v.4h.74c1.61 0 3.11.1 4.63.1 1.36 0 2.74 0 4.23-.14h.4v-.4c-.08-3.1-.08-6.2-.08-9.26h4.71c4.8-.06 8.39-1.3 10.69-3.69a10.14 10.14 0 0 0 2.6-7.47c-.27-6.77-5.52-11.05-13.71-11.23Zm3.71 10.61a3.3 3.3 0 0 1-.92 2.38 4.74 4.74 0 0 1-3.36 1.24h-3.79c0-1.19.05-2.48.08-3.74 0-1 0-1.9.07-2.79H27c1.65-.02 5.43.24 5.43 2.92Zm51.09-11.6a16.33 16.33 0 0 0-15.23 10.1A16.17 16.17 0 0 0 67 44.8c.12 9.63 7 16.7 16.49 16.81 9.2 0 16.64-7.52 16.53-16.73a16.58 16.58 0 0 0-16.5-16.47Zm-5.6 16.4c0-3.9 1.45-8.06 5.53-8.08h.2a4.6 4.6 0 0 1 3.28 1.3c1.42 1.4 2.28 3.93 2.28 6.78 0 3.13-.74 8.4-5.64 8.41-5.25.02-5.65-6.43-5.65-8.39v-.02Zm80.9-14.4h-.3c-2.53-.09-3-.1-5.65-.16h-1.94v.42c.24 5.5-.32 11.01-1.66 16.35-.69-3.87-1.61-7.38-2.57-11.06-.46-1.79-.94-3.63-1.42-5.6l-.07-.27h-.28a71.2 71.2 0 0 0-7.45 0h-.29l-.07.27c-.6 2.48-1.26 4.76-1.89 7a104 104 0 0 0-2.45 9.7 57.12 57.12 0 0 1-1.35-16.45v-.4h-7.49l-.08.3c-2.15 8.12-.26 17.9 6 30.75l.11.21h.23c2.07 0 3.13.07 4.15.07s1.86 0 3.54-.06h.34v-.34c.55-5.6 1.67-11.37 2.77-17 1.12 5.6 2.25 11.36 2.81 17v.36h.36c1.58-.07 3-.07 4.42-.07h4.23l.1-.22c5.57-11.5 7.65-22.32 5.87-30.45l.03-.36Zm37.12 23V49.3c4.14 0 8.35 0 12.51-.1h.4V41.3h-.42c-4.1-.1-8.31-.14-12.5-.1v-3.67c3.28 0 6.45 0 9.8.14l5 .11h.5l-.08-.49a36.31 36.31 0 0 0-1.93-6.86l-.09-.24h-.25a78.13 78.13 0 0 0-22.13 0h-.32l-.06.3a67.54 67.54 0 0 0 0 29.93l.07.28h.28c3.93.55 7.9.83 11.86.85 3.79-.01 7.57-.28 11.32-.8h.25l.09-.23c.8-2.28 1.28-4.67 1.41-7.09v-.48h-.49c-5.03.37-10.16.48-15.22.48Zm74.49 1.1c.45-5.65-1.77-7.09-4.65-8.2a6.86 6.86 0 0 0 4.45-7.23c-.57-6.6-5.14-9.9-14-10.12h-1.72c-3.49-.13-6.98.13-10.41.76h-.24l-.07.23c-3.48 10.34-3.8 21.51-.86 30.66l.07.24h.25c2.31.41 4.65.61 7 .6h2.07v-.43c-.17-3.56-.23-7.2-.28-10.74v-.1h2.75c2 0 3.29.36 4 1.12.9.93 1 2.54 1 4.68-.15 1.72-.08 3.45.2 5.15l.1.32h.33c1-.07 2-.1 2.93-.13a55.3 55.3 0 0 0 6.3-.42h.3l.3-1.73-.57.1c.04-.38.1-.76.2-1.14.29-1.18.5-2.38.63-3.6l-.08-.03Zm-10.21-14.1c.02.29-.02.58-.11.86-.1.28-.25.53-.45.75-.65.66-1.94 1-4 1H252c0-1.77 0-3.6.09-5.57 1.45 0 2.92-.06 4.35-.06 2.34.01 3.74 1.11 3.78 3.01Z" class="af"/></g><g id="p"><path d="m2.5.3 6.57 10.13h.04V.3h1.57v12.5H8.86L2.33 2.76H2.3v10.02H.72V.3H2.5ZM23.93.3v1.4h-6.97v3.97h6.5v1.4h-6.5v4.32h7.02v1.4H15.3V.3h8.63ZM37.47 12.8 34.62 2.3h-.04L31.7 12.8h-1.74L26.76.3h1.7l2.45 10.4h.03L33.74.3h1.8l2.77 10.4h.04L40.88.3h1.67L39.2 12.8h-1.73ZM54.5.3v5.37h6.58V.3h1.66v12.5h-1.66V7.06H54.5v5.72h-1.66V.3h1.66ZM72.63.3l4.88 12.5h-1.84l-1.36-3.77h-5.29l-1.4 3.76h-1.7L70.8.3h1.84Zm1.15 7.33L71.7 1.8h-.03l-2.12 5.83h4.23ZM82.97.3l3.94 10.5L90.86.3h2.28v12.5h-1.58V2.4h-.03l-3.9 10.4H86.2L82.3 2.4h-.04v10.4H80.7V.3h2.27ZM103.3.3c1.27 0 2.22.32 2.87.97s.97 1.55.97 2.72c0 1.17-.32 2.08-.97 2.73s-1.6.97-2.86.96h-3.82v5.11h-1.66V.3h5.48Zm-.55 5.98c.94.01 1.63-.18 2.07-.57s.66-.97.66-1.72-.22-1.32-.66-1.7c-.44-.4-1.13-.6-2.07-.6h-3.26v4.6h3.26ZM117.35 2c-.55-.4-1.26-.6-2.13-.6-.35 0-.69.04-1.03.1-.34.08-.64.2-.9.35a1.84 1.84 0 0 0-.87 1.69c0 .38.12.7.35.93.22.24.53.44.9.59s.81.27 1.3.37l1.45.33c.5.11.99.25 1.46.4.48.17.91.38 1.29.65s.68.6.91 1.01c.23.41.34.92.34 1.54 0 .67-.15 1.24-.44 1.7-.3.48-.68.87-1.15 1.16s-.99.52-1.57.65a7.6 7.6 0 0 1-3.7-.06 4.9 4.9 0 0 1-1.65-.8c-.47-.35-.85-.8-1.12-1.36s-.41-1.21-.41-1.97h1.57c0 .53.1.98.3 1.36.21.38.48.69.81.93.33.25.72.43 1.17.55a5.34 5.34 0 0 0 3.51-.3c.3-.16.55-.4.74-.68s.28-.67.28-1.12c0-.44-.12-.79-.34-1.06a2.5 2.5 0 0 0-.91-.65c-.38-.17-.81-.3-1.29-.41l-1.46-.33c-.5-.1-.98-.24-1.46-.38-.48-.15-.9-.34-1.29-.58a2.76 2.76 0 0 1-.9-.93 2.73 2.73 0 0 1-.35-1.42c0-.63.13-1.18.39-1.64.25-.46.6-.84 1.02-1.14s.91-.52 1.45-.66a6.69 6.69 0 0 1 3.46 0c.55.16 1.03.4 1.44.72.42.33.74.74.98 1.24s.37 1.09.4 1.78h-1.58c-.1-.9-.42-1.55-.97-1.96ZM126.02.3v5.37h6.58V.3h1.66v12.5h-1.66V7.06h-6.58v5.72h-1.66V.3h1.66ZM140.65.3v12.5H139V.3h1.66ZM151.26.3c1.19 0 2.12.29 2.79.87.67.59 1 1.39 1 2.4a3.8 3.8 0 0 1-.51 2c-.35.57-.9.96-1.66 1.17v.03a1.93 1.93 0 0 1 1.43.94c.13.23.23.48.3.76a8.23 8.23 0 0 1 .2 1.8 6.3 6.3 0 0 0 .29 1.8c.09.27.22.51.4.72h-1.86c-.12-.13-.2-.3-.24-.52s-.07-.47-.08-.75l-.03-.88a9.08 9.08 0 0 0-.28-1.8 2.03 2.03 0 0 0-.34-.71c-.15-.2-.35-.37-.6-.5s-.56-.17-.97-.17h-4.06v5.33h-1.66V.3h5.88Zm.35 5.67c.35-.06.65-.17.91-.34.27-.17.48-.4.63-.69.16-.28.24-.65.24-1.1 0-.64-.17-1.15-.52-1.55-.35-.4-.92-.6-1.7-.6h-4.13v4.37h3.46c.39 0 .76-.03 1.1-.1ZM167.92.3v1.4h-6.97v3.97h6.5v1.4h-6.5v4.32h7.02v1.4h-8.68V.3h8.63Z" class="s"/></g></svg>