<svg viewBox="66 8 593.3 312.9" xmlns="http://www.w3.org/2000/svg"><defs><style>.st0{fill:#953d96}.st1{fill:#fff100}.st5{fill:#fff}</style></defs><radialGradient id="SVGID_1_" cx="1949.122" cy="78.388" r="67.143" gradientTransform="matrix(1.2658 -.4516 .4606 1.2912 -1980.835 976.778)" gradientUnits="userSpaceOnUse"><stop offset=".335" stop-color="#fff"/><stop offset=".597" stop-color="#fff"/><stop offset=".657" stop-color="#fcfcfc"/><stop offset=".7" stop-color="#f3f3f3"/><stop offset=".737" stop-color="#e4e4e4"/><stop offset=".77" stop-color="#cecece"/><stop offset=".802" stop-color="#b1b1b1"/><stop offset=".831" stop-color="#8f8f8f"/><stop offset=".859" stop-color="#676767"/><stop offset=".86" stop-color="#666"/></radialGradient><radialGradient id="SVGID_2_" cx="1381.303" cy="-32.909" r="30.701" gradientTransform="matrix(1.6338 0 0 1.6485 -1723.332 255.313)" gradientUnits="userSpaceOnUse"><stop offset=".019" stop-color="#d6de23"/><stop offset=".326" stop-color="#8bc53f"/><stop offset=".425" stop-color="#86c03f"/><stop offset=".547" stop-color="#77b33f"/><stop offset=".68" stop-color="#5e9c3f"/><stop offset=".716" stop-color="#56953f"/><stop offset=".86" stop-color="#2c7f3c"/><stop offset="1" stop-color="#006838"/></radialGradient><path class="st0" d="M545.6 102.3c-3.8 0-7.5.1-11 .4l1.4-10.9h97.7L639.2 8H437.8l-9.2 69.8h-80.8c-5.2-1.9-10.8-2.8-16.7-2.8-11.4 0-21.9 3.7-29.8 10.6-6.8-7.1-16.4-10.7-28.6-10.7-5.6 0-10.9.8-15.7 2.4l-4.4-.7c-2.1-.3-3.9-.5-6-.5-3.8 0-7.4.6-10.8 1.8H193v1.4c-4.7-2.1-11.4-4.2-20-4.2-7.2 0-14.1 1.5-20.2 4.4v-23h-54v55.3l-1.7-2.6L66 131l5.8 10.5c1.9 3.4 7 12.6 18.2 18.4 8 4.1 15.8 4.6 21.1 4.6 13 0 23.8-4.2 31.5-12.1 2.2 1.9 4.7 3.6 7.3 5.1-15 9.5-24.5 26.7-24.5 44.9 0 25.3 18 51 52.4 51 10.7 0 20.3-2.3 28.5-6.7 5.6 4.2 12.4 6.4 20 6.4 4 0 7.8-.6 11.2-1.7h40.9c4.5 1.4 9.7 2.1 15.4 2.1 6.7 0 12.8-1 18.2-2.9v.8h88.1v-20.1l4.3 10.3c6.3 15.3 15 36.2 37.1 53.2 21.4 16.6 53.4 26.1 87.9 26.1 42.6 0 77.3-13 100.5-37.6 18.7-19.9 29.4-47.4 29.4-75.5 0-61.2-47.8-105.5-113.7-105.5zm-350.8 103c-1.9 1.8-4.9 4.5-8.6 4.5-5.5 0-6.1-6.3-6.1-9.1 0-3.7.9-9.8 6.7-9.8 2.2 0 2.8.4 5.3 3.6l6.2 7.7-3.5 3.1zM312 167.2c-4.8-1.8-10.2-2.6-16.1-2.6-11 0-20.4 3-27.4 8.7-.9-.7-1.9-1.4-2.8-2-6.8-4.5-15.5-6.8-25.9-6.8-6.8 0-13.2 1-18.8 3.1-1.6-1.9-3.5-3.9-5.8-5.9h28.4v-6c7.1 5.5 15.8 8.1 27.1 8.1 15.7 0 25.1-5.4 30.2-9.9.3-.3.6-.5.9-.8 3.1 2.5 6.5 4.6 10.3 6.3v7.8zm193.7 68.6c-23.9 0-33.3-16.1-38.9-25.7l-6.6-11.2-60.1 31v-30.1c0-6.4 0-16.9-8.5-25.4 10.5-7.4 15.4-18.3 18.6-25.7l13.1-30.7-7.3 56.4 49.5 26.2 7-6.4c7.3-6.7 15.6-14.3 33.1-14.3 18.6 0 32.6 11.9 32.6 27.8.1 13.9-11.1 28.1-32.5 28.1z"/><path class="st1" d="M529.5 311.7c-32.6 0-62.7-8.8-82.5-24.2-20.2-15.6-28.4-35.2-34.4-49.6L411 234l45.9-23.7 2.3 4c6.1 10.5 17.6 30.1 46.5 30.1 20.1 0 41.5-13 41.5-37 0-20.9-17.8-36.6-41.5-36.6-21 0-31 9.2-39.1 16.6l-2.4 2.2-38.6-20.4 19.7-152.6h184.4l-4.4 66.1h-97.2l-3.7 29.8c5.7-.9 12.6-1.7 21.2-1.7 29.5 0 56.2 9.6 75.3 27.1 19.1 17.6 29.7 42.2 29.7 69.4-.1 52-37.5 104.4-121.1 104.4z"/><path class="st0" d="M418.6 236.8c5.9 14.3 13.6 31.7 32 45.9 18.8 14.6 47.6 23 78.8 23 57.3 0 115.1-30.4 115.1-98.3 0-25.5-9.9-48.6-27.8-65-17.9-16.5-43.3-25.5-71.2-25.5-11.4 0-19.6 1.4-26.2 2.7l-2 .4 5.4-43.2h96.9l3.6-54.2H450.6l-18.5 143.3 31.2 16.5c8.3-7.6 19.8-17.5 42.4-17.5 26.6 0 47.4 18.7 47.4 42.6 0 20.8-16.6 43-47.4 43-31.5 0-44.7-21.1-51.2-32.1l-35.9 18.4zM112.2 69.6h27.2v53.1c0 6.6-.4 13.7-5.9 19.8-5.6 6.2-13.9 8.4-22.3 8.4-2.9 0-9.1-.1-14.9-3.1-7.4-3.9-11-10-12.6-13l9.8-6.9c1.5 2.3 4.5 7 10.2 7 1.8 0 3.9-.4 5.8-2.3 2.2-2.2 2.7-4.8 2.7-10.2V69.6zM202.4 135.1c-2.8 4-10.6 14.8-28.2 14.8-20.2 0-32.4-12.8-32.4-30.7 0-18 12.4-31 31.2-31 7.8 0 13.8 2.2 17.8 4.8 13.8 8.6 13.8 23.9 13.8 31.3h-38.9c.5 3.3 1.3 7 5.4 9.9 3 2.2 6.2 2.9 9.7 2.9 7.8 0 12.5-4.7 15.3-7.5l6.3 5.5zm-20.8-22.5c-.2-3.5-.6-11.5-8.2-11.5-7 0-8 7.5-8.6 11.5h16.8zM230.1 100.4c3.4-7.1 8.6-11.1 16.5-11.1 1.5 0 2.5.1 3.8.3v20.1c-3.4-2.1-6.3-3.9-11.1-3.9-5.1 0-7.4 1.8-9.2 3.2v39.1h-23.8v-57h23.8v9.3z"/><path class="st0" d="M251.8 131.4c2.2 2.6 6.4 7.6 14.6 7.6 5.1 0 8.4-2.6 8.4-5.8 0-4.2-4.7-5.4-6.9-6.2-3.2-.9-6.5-1.7-9.5-2.8-2.7-1-11.6-4.5-11.6-16 0-11.3 9.1-20 25.8-20 17.3 0 21.7 9.5 23.5 13.5l-7.2 4.2c-2.4-3-5.2-6.5-11.7-6.5-4.9 0-7.4 2.9-7.4 5.6 0 3.9 4.4 4.9 7.4 5.6 6.8 1.6 21.1 4.9 21.1 19.5 0 9.5-7.6 20.2-27.7 20.2-15.9 0-21.2-6-26.6-14.1l7.8-4.8zM360.5 135.1c-2.8 4-10.6 14.8-28.2 14.8-20.2 0-32.4-12.8-32.4-30.7 0-18 12.4-31 31.2-31 7.8 0 13.8 2.2 17.8 4.8 13.8 8.6 13.8 23.9 13.8 31.3h-38.9c.5 3.3 1.3 7 5.4 9.9 3 2.2 6.2 2.9 9.7 2.9 7.8 0 12.5-4.7 15.3-7.5l6.3 5.5zm-20.8-22.5c-.2-3.5-.6-11.5-8.2-11.5-7 0-8 7.5-8.6 11.5h16.8z"/><path class="st0" d="M356.9 91.1h25.2c3.2 10.4 6.9 21.9 8.8 31.5 2.7-9.8 3.4-11.9 10.3-31.5h19.1l-22.2 52c-3 6.8-7 15.7-15.3 21.1-8.3 5.3-18.5 5.3-25.3 5.2v-9c11.9-.8 16.1-8 21.2-17.1l-21.8-52.2zM212.9 223.4c-3.4 4.5-12.7 16.5-35 16.5-26.1 0-39-19-39-37.7 0-17.5 12.5-39.8 41.5-39.8 19 0 27.2 9.9 32.2 15.9l-10.1 7.8c-3-3.8-7.1-8.6-15.7-8.6-14.6 0-20 12.6-20 23.2 0 14.3 8.9 22.4 19.5 22.4 9.3 0 15.4-5.9 17.9-8.2l8.7 8.5z"/><path class="st0" d="M267.9 237.9h-24v-7.6c-2.9 3.9-7.2 9.3-17.6 9.3-12.1 0-18.9-8.6-18.9-18.8 0-12.6 10.1-19.7 22.6-19.7 6.3 0 10.7 1.5 13.9 2.5 0-3.3-.1-8-4.2-11.4-2.9-2.4-6-2.5-7.7-2.5-7.3 0-11.6 4.3-14.6 7.3l-7.1-5.9c5.1-5.7 12.5-13.3 29.4-13.3 11.4 0 16.7 3.3 18.6 4.6 9.5 6 9.6 14.6 9.6 20.9v34.6zm-24-24.5c-1.9-.4-3.2-.7-5.2-.7-6.4 0-8.2 4.2-8.2 7 0 3.1 2.2 6.2 6 6.2 3.4 0 5.4-1.9 7.4-4v-8.5z"/><path class="st0" d="M275 221c2.2 2.6 6.4 7.6 14.6 7.6 5.1 0 8.4-2.6 8.4-5.8 0-4.2-4.7-5.4-6.9-6.2-3.2-.9-6.5-1.7-9.5-2.8-2.7-1-11.6-4.5-11.6-16 0-11.3 9.1-20 25.8-20 17.3 0 21.7 9.5 23.5 13.5l-7.2 4.2c-2.4-3-5.2-6.5-11.7-6.5-4.9 0-7.4 2.9-7.4 5.6 0 3.9 4.4 4.9 7.4 5.6 6.8 1.6 21.1 4.9 21.1 19.5 0 9.5-7.6 20.2-27.7 20.2-15.9 0-21.2-6-26.6-14.1l7.8-4.8zM325.4 164.3h24v24.5c3.2-3.9 8.3-10.2 19.2-10.2 5.2 0 9.5 1.7 12.4 4.1 5.8 4.8 5.8 11.4 5.8 17.1V238h-23.9v-34c0-3.3-.1-9.4-6.5-9.4-4 0-5.7 2.3-7.1 4.1V238h-24v-73.7z"/><path class="st1" d="M398 86.6l-1.1 3c-2.6 7.4-4.3 12.3-5.6 16.1-1.3-4.5-2.7-9.1-4.1-13.6l-1.7-5.6h-35.4l1.1 2.6c-3.9-2.5-10.6-5.4-20.1-5.4-13.7 0-24.7 6.2-30.7 16.2l-.1-.2c-1.8-4-7.2-16.1-27.6-16.1-6.9 0-12.9 1.4-17.8 4v-1.9l-3.8-.6c-1.6-.3-2.9-.4-4.5-.4-4.6 0-8.5 1.1-11.9 3.3v-1.5h-32.9V97c-2.2-2.8-4.9-5.5-8.5-7.7-3.9-2.5-10.6-5.5-20.3-5.5-12.5 0-22.7 5.2-29 13.7V65.1h-36.3v57.3c0 5.1-.6 6.2-1.3 7-.8.7-1.5 1-2.7 1-3 0-4.9-2.5-6.4-4.9l-2.6-4-17 12 2 3.6c1.5 2.8 5.7 10.3 14.5 14.9 7 3.6 14.3 3.6 17 3.6 10.9 0 19.7-3.4 25.7-10 2.3-2.6 3.9-5.3 4.9-8.1 6 10.6 17.6 17 32.4 17 14.1 0 22.7-6.3 27.6-11.4v9.7h32.9v-41.3c1-.6 2.4-1 4.6-1 1.2 0 2.2.2 3.2.4.5 5.1 2.8 10.9 9.4 15.1l-14.3 9 2.6 3.9c5.7 8.5 12.4 16.1 30.4 16.1 16.7 0 26.5-7 30.3-15.6 6.3 9.5 17.3 15.2 31.4 15.2 20 0 28.9-12.6 31.9-16.7l2.4-3.4-6.3-5.5h6.9v-1.2l6.4 15.3c-4.6 8-7.9 12.3-16.4 12.9l-4.2.3v3.5h-32.1v24.8c-3.4-5-10.3-11.2-25-11.2-12.7 0-22.5 4.9-27.2 12.9-1.7-2.7-4.2-5.3-7.8-7.6-5.3-3.6-12.4-5.4-21.1-5.4-9.3 0-16.1 2.2-21.3 5.1l-2.6-3c-5.1-6.1-14.6-17.4-35.6-17.4-18.3 0-29.1 8.1-35.1 14.9-7 8-11 18.8-11 29.5 0 11 3.9 21.2 10.9 28.9 8 8.7 19.3 13.3 32.6 13.3 14 0 23.5-4.4 29.6-9.1 4.1 5.5 10.8 8.8 18.8 8.8 5.7 0 9.9-1.4 13.1-3.3v1.6h33.1v-3.8c4.8 3.6 11.3 5.9 21.3 5.9 13.1 0 22-4.3 27-10.4v8.3h33.1v-42.3c.8-.8 1.4-1.1 2.5-1.1 1.2 0 1.9 0 1.9 4.8v38.5h33v-42.7c0-6.1 0-14.5-7.5-20.6-4-3.3-9.4-5.1-15.3-5.1-6.3 0-11.1 1.9-14.6 4.2V174l3.5.1h2.8c6.6 0 16.6-.6 25-6 9.4-6 13.8-15.8 17-22.9l25-58.6h-29zm-224.6 19.1c1.2 0 2.3.2 3 2.4h-5.9c.7-1.9 1.7-2.4 2.9-2.4zm7.4 27c-2.9 0-5-.6-7.1-2.1-.7-.5-1.3-1.1-1.8-1.6h18.4c-2.3 1.9-5.3 3.7-9.5 3.7zm85.6 1.7c-6.1 0-9.1-3.6-11.1-6l-1-1.2c.8.4 1.6.8 2.5 1.1 2.3.9 4.7 1.5 7 2.1.9.3 1.9.5 2.8.8l.4.1c2 .6 3.1 1.2 3.3 1.7 0 .3-1.1 1.4-3.9 1.4zm11.9-28.2c-1-.2-3.1-.8-3.9-1.3.2-.3 1-1 2.8-1 3.8 0 5.5 1.5 7.6 4.1-2.5-.9-4.8-1.4-6.5-1.8zm19.2-.1c-.9 2.4-1.5 5-1.8 7.7-1.7-1.4-3.5-2.6-5.3-3.6l7.1-4.1zm34-.4c1.2 0 2.3.2 3 2.4h-5.9c.7-1.9 1.7-2.4 2.9-2.4zm7.4 27c-2.9 0-5-.6-7.1-2.1-.7-.5-1.3-1.1-1.8-1.6h18.4c-2.3 1.9-5.3 3.7-9.5 3.7zm-152.7 85.9c-8.9 0-15-7.2-15-17.9 0-1.9.4-18.6 15.5-18.6 6.2 0 9.1 3 12.2 6.9l2.8 3.5 4.5-3.5-2.3 2.6 10.6 8.9c-3.9 2.3-7 5.5-9 9.4l-1.2-1.2-3.4 3.1c-2.5 2.2-7.5 6.8-14.7 6.8zm38-21.5c2.1-1.6 4.5-2.8 7.9-2.8 1.6 0 3.3.2 4.8 1.5.6.5 1 1 1.4 1.6-2.4-.5-5.1-.8-8.2-.8-2.1 0-4.1.1-5.9.5zm15.2 22.9c-1.1 1-1.8 1.3-2.9 1.3-1.4 0-1.5-1.1-1.5-1.6 0-1.1.6-2.4 3.7-2.4h.7v2.7zm33-2.7v-3.6c.8.7 1.7 1.3 2.6 1.9l-2.6 1.7zm17.2 6.8c-6.1 0-9.1-3.6-11.1-6l-1-1.2c.8.4 1.6.8 2.5 1.1 2.3.9 4.7 1.5 7 2.1.9.3 1.9.5 2.8.8l.4.1c2 .6 3.1 1.2 3.3 1.7 0 .3-1.1 1.4-3.9 1.4zm11.9-28.2c-1-.2-3.1-.8-3.9-1.3.2-.3 1-1 2.8-1 3.8 0 5.5 1.5 7.6 4.1-2.5-.9-4.9-1.4-6.5-1.8zm12 4l7.3-4.2v9.7c-2.1-2.3-4.7-4.1-7.3-5.5z"/><path class="st0" d="M112.2 69.6h27.2v53.1c0 6.6-.4 13.7-5.9 19.8-5.6 6.2-13.9 8.4-22.3 8.4-2.9 0-9.1-.1-14.9-3.1-7.4-3.9-11-10-12.6-13l9.8-6.9c1.5 2.3 4.5 7 10.2 7 1.8 0 3.9-.4 5.8-2.3 2.2-2.2 2.7-4.8 2.7-10.2V69.6zM202.4 135.1c-2.8 4-10.6 14.8-28.2 14.8-20.2 0-32.4-12.8-32.4-30.7 0-18 12.4-31 31.2-31 7.8 0 13.8 2.2 17.8 4.8 13.8 8.6 13.8 23.9 13.8 31.3h-38.9c.5 3.3 1.3 7 5.4 9.9 3 2.2 6.2 2.9 9.7 2.9 7.8 0 12.5-4.7 15.3-7.5l6.3 5.5zm-20.8-22.5c-.2-3.5-.6-11.5-8.2-11.5-7 0-8 7.5-8.6 11.5h16.8zM230.1 100.4c3.4-7.1 8.6-11.1 16.5-11.1 1.5 0 2.5.1 3.8.3v20.1c-3.4-2.1-6.3-3.9-11.1-3.9-5.1 0-7.4 1.8-9.2 3.2v39.1h-23.8v-57h23.8v9.3z"/><path class="st0" d="M251.8 131.4c2.2 2.6 6.4 7.6 14.6 7.6 5.1 0 8.4-2.6 8.4-5.8 0-4.2-4.7-5.4-6.9-6.2-3.2-.9-6.5-1.7-9.5-2.8-2.7-1-11.6-4.5-11.6-16 0-11.3 9.1-20 25.8-20 17.3 0 21.7 9.5 23.5 13.5l-7.2 4.2c-2.4-3-5.2-6.5-11.7-6.5-4.9 0-7.4 2.9-7.4 5.6 0 3.9 4.4 4.9 7.4 5.6 6.8 1.6 21.1 4.9 21.1 19.5 0 9.5-7.6 20.2-27.7 20.2-15.9 0-21.2-6-26.6-14.1l7.8-4.8zM360.5 135.1c-2.8 4-10.6 14.8-28.2 14.8-20.2 0-32.4-12.8-32.4-30.7 0-18 12.4-31 31.2-31 7.8 0 13.8 2.2 17.8 4.8 13.8 8.6 13.8 23.9 13.8 31.3h-38.9c.5 3.3 1.3 7 5.4 9.9 3 2.2 6.2 2.9 9.7 2.9 7.8 0 12.5-4.7 15.3-7.5l6.3 5.5zm-20.8-22.5c-.2-3.5-.6-11.5-8.2-11.5-7 0-8 7.5-8.6 11.5h16.8z"/><path class="st0" d="M356.9 91.1h25.2c3.2 10.4 6.9 21.9 8.8 31.5 2.7-9.8 3.4-11.9 10.3-31.5h19.1l-22.2 52c-3 6.8-7 15.7-15.3 21.1-8.3 5.3-18.5 5.3-25.3 5.2v-9c11.9-.8 16.1-8 21.2-17.1l-21.8-52.2zM212.9 223.4c-3.4 4.5-12.7 16.5-35 16.5-26.1 0-39-19-39-37.7 0-17.5 12.5-39.8 41.5-39.8 19 0 27.2 9.9 32.2 15.9l-10.1 7.8c-3-3.8-7.1-8.6-15.7-8.6-14.6 0-20 12.6-20 23.2 0 14.3 8.9 22.4 19.5 22.4 9.3 0 15.4-5.9 17.9-8.2l8.7 8.5z"/><path class="st0" d="M267.9 237.9h-24v-7.6c-2.9 3.9-7.2 9.3-17.6 9.3-12.1 0-18.9-8.6-18.9-18.8 0-12.6 10.1-19.7 22.6-19.7 6.3 0 10.7 1.5 13.9 2.5 0-3.3-.1-8-4.2-11.4-2.9-2.4-6-2.5-7.7-2.5-7.3 0-11.6 4.3-14.6 7.3l-7.1-5.9c5.1-5.7 12.5-13.3 29.4-13.3 11.4 0 16.7 3.3 18.6 4.6 9.5 6 9.6 14.6 9.6 20.9v34.6zm-24-24.5c-1.9-.4-3.2-.7-5.2-.7-6.4 0-8.2 4.2-8.2 7 0 3.1 2.2 6.2 6 6.2 3.4 0 5.4-1.9 7.4-4v-8.5z"/><path class="st0" d="M275 221c2.2 2.6 6.4 7.6 14.6 7.6 5.1 0 8.4-2.6 8.4-5.8 0-4.2-4.7-5.4-6.9-6.2-3.2-.9-6.5-1.7-9.5-2.8-2.7-1-11.6-4.5-11.6-16 0-11.3 9.1-20 25.8-20 17.3 0 21.7 9.5 23.5 13.5l-7.2 4.2c-2.4-3-5.2-6.5-11.7-6.5-4.9 0-7.4 2.9-7.4 5.6 0 3.9 4.4 4.9 7.4 5.6 6.8 1.6 21.1 4.9 21.1 19.5 0 9.5-7.6 20.2-27.7 20.2-15.9 0-21.2-6-26.6-14.1l7.8-4.8zM325.4 164.3h24v24.5c3.2-3.9 8.3-10.2 19.2-10.2 5.2 0 9.5 1.7 12.4 4.1 5.8 4.8 5.8 11.4 5.8 17.1V238h-23.9v-34c0-3.3-.1-9.4-6.5-9.4-4 0-5.7 2.3-7.1 4.1V238h-24v-73.7z"/><path d="M524.1 286.3c36.6 0 66.4-30 66.4-67.1 0-37.1-29.7-67.1-66.4-67.1-36.6 0-66.4 30-66.4 67.1 0 37.1 29.7 67.1 66.4 67.1z" fill="#722872"/><circle cx="512.3" cy="211.1" r="66.2" fill="url(#SVGID_1_)"/><path d="M541.1 194.3c8.4.1 16 1.3 20.4-.1 4.2-1.3 4.9-2.8 4.4-4.4-6.1-20.1-24.1-32.5-32.7-29-2.1.8-2.6 5.4-2.6 5.4s0 13.8.7 25.8c-1.1-9.5-5.4-33.3-21.8-33.3-11.7 0-35.1 15.4-36.6 29.2-1.3 11.6 8.3 11.2 12.7 10.9 4.8-.3 18.1-2.3 34.3-3.7-18.2 5.3-30.3 12-37.3 19.8-8.5 9.5 5.1 35.3 19.2 36.7 14.1 1.4 25.1-16.6 26.2-17.4-6.2 21.5-16.1 26.3-16.1 26.3 3.1 3.8 7.2 2.5 8.5 2.1 6.5-3.5 9.8-18.3 11.4-30.1.9 6.9 13.1 18.7 23.6 12.2 13.4-10.1 14.9-23.3 13.6-31.5-1.5-9.8-11.2-14.8-27.9-18.9z" fill="url(#SVGID_2_)"/><path class="st5" d="M520.1 183.5l-.6-2.3 2.9-3.4.8-2 2.3-1.8 1.7.5 11.8 6.7.1 2.7-1.7 4.8-.6.2-.6-.3.2-.2.4-1.7-.1-.5-.1.7-.6 1.5-.2 1.6-.6 1.4-.5.3-.5-.5-.2.4 1.6 1.5 1.3.5.2-.2h.4l.8.8.4-.2v-.6l-.5-1.1h.8s2.7 3.4.3 11.1l-.6-.3-.2-.7h-.3l-.3 5.9-.6.5-.6 3.5-1.3 1.5v1.1l-.8.3-.4-.6-.7 1.1.6.6-.7 1.1.6.3v.2l.5.3-.1.7-1.1 1.2-1.8 1.3-2.4 2.5-2.1 3.3v.8l-.8 1-2 1.1h-.8l1.1-1.9v-1l.8-.8v-1.6l-2.3-1.2-1.6-.1-1.7-1.9h-.9l-.5.3-4.6-4.2-.1-1.2.5-1.7-.5-.8.6-2.8 1-1.2.7-.1 1.5-1.5.5.1 2-1.1 1.4-2.6.8-.2 1.9-2 1.4-.5 1.6-1.1v-1l-1.3-1.4-.3-.6-1.2-1.1-1.4-2.5-.2-.6-.4.4-.9-.1-.8-.7v-1.7l-.2-1-1.7-1.1.4-1.2-.6-2.4 1.3-.5.1-1.3.3-.7z"/><path class="st5" d="M539.2 204l-.4.6v4.4l-.9 2.9.4-.1 1.3-2.7v-4.5zM538.1 212.5h-.8l-.6 1.4-1.2 2.1-.2.6v.7l.3.1.3-.6.2-.7z"/><path class="st0" d="M260.9 277.8l-8-14.6h11.7l4.2 8.6 9.5-8.6h12.9l-17.8 15.2 8.5 15.4h-11.8l-4.6-9.5-10.5 9.5h-12.9l18.8-16zM301.7 270.7h-11.6l2.5-7.4h33.8l-2.5 7.4h-11.6l-7.8 23.2h-10.7l7.9-23.2zM330.8 263.2h14.5c6.4 0 10.7 1.1 13.3 3.2 2 1.6 3 3.8 3 6.3 0 5.1-3.7 9.2-11.6 10.9l5.9 10.3h-11.8l-5.1-9.3h-4.7l-3.1 9.3h-10.7l10.3-30.7zm11.8 14.7c4.8 0 7.9-1.6 7.9-4.2 0-.8-.3-1.5-1-2.1-.9-.7-2.5-1.1-4.7-1.1H339l-2.5 7.4h6.1zM383.3 263h10.5l6 30.9h-11.2l-.9-5.5h-14.9l-4.6 5.5h-11.6l26.7-30.9zm3.4 18.8l-1.4-8.8-7.2 8.8h8.6zM186.4 271.9h4.3l-.5 9.1 5.7-9.1h3.7l-.1 9.2 5.4-9.1h4.2l-9.5 15.1h-3.8l.1-9.2-5.9 9.2h-3.8l.2-15.2zM211.9 271.9h4.2l-4.8 15h-4.2l4.8-15zm1.7-5.4h4.5l-1.2 3.8h-4.5l1.2-3.8zM217.1 284.2c0-.6.2-1.2.4-1.9l2.2-6.8h-1.8l1.2-3.6h1.8l1.2-3.8h4.2l-1.2 3.8h3.5l-1.2 3.6h-3.5l-2 6.3c-.1.2-.1.5-.1.7 0 .6.3.9 1.1.9.7 0 1.5-.2 2.2-.5l-1.2 3.6c-.9.4-2 .6-3.1.6-2.6.1-3.7-1.2-3.7-2.9zM233.5 266.5h4.2l-2.2 7c1.1-1 2.5-1.8 4.2-1.8 2.7 0 4.3 1.6 4.2 4.4 0 .8-.4 1.9-.7 2.8l-2.6 8h-4.2l2.6-8.2c.1-.4.2-1 .3-1.3.1-1.2-.7-1.8-2-1.8-1.7 0-2.8 1.2-3.4 3l-2.7 8.4H227l6.5-20.5z"/></svg>