<svg xmlns="http://www.w3.org/2000/svg" viewBox="2.99 15.65 259.01 124.2"><defs><radialGradient id="radial-gradient" cx="-2286.7" cy="-959.8" r="1" gradientTransform="translate(54054.9 22707) scale(23.6)" gradientUnits="userSpaceOnUse"><stop offset="0" stop-color="#fff"/><stop offset="0" stop-color="#fffdf4"/><stop offset=".2" stop-color="#fff8d9"/><stop offset=".4" stop-color="#fff0ad"/><stop offset=".6" stop-color="#ffe570"/><stop offset=".8" stop-color="#ffd723"/><stop offset=".9" stop-color="#ffd100"/></radialGradient><clipPath id="clippath"><circle cx="81.7" cy="58.9" r="29.3" style="fill:none"/></clipPath><style>.st0{fill:#7b8689}.st2{fill:#e31f26}.st4{fill:#fed103}.st6{fill:#2c2b7c}</style></defs><path d="m129.2 22.95-3.3-7.1-2.1-.2v11.6l2.2.2v-6.7l3.4 7.1 2.1.2v-11.6l-2.2-.2v6.7Zm3.8 5.3 6.5.7v-2.2l-4.2-.4v-2.6l3.1.3v-2l-3.1-.3v-2.6l4.2.4v-2.2l-6.4-.7v11.6Zm15.8-2-1.6-8-2-.2-1.6 7.7-1.6-8.1-2.2-.2 2.6 11.8 2.3.2 1.6-7.5 1.5 7.8 2.3.2 2.8-11.3-2.3-.2-1.7 7.7Zm12.2.4c0 2-.5 2.5-1.5 2.4-.7 0-1.5-.5-1.5-1.9v-.6l-2.3-.2v.5c0 2.4 1.5 4.1 3.8 4.4s3.8-1.2 3.8-3.6v-7.8l-2.2-.2v7Zm3.8 4.9 6.5.7v-2.2l-4.2-.4v-2.6l3.1.3v-2l-3.1-.3v-2.6l4.2.4v-2.2l-6.4-.7v11.6Zm11.4-10.3-3.6-.4v11.6l2.2.2v-3h1.2c0 .1 1.5 3.3 1.5 3.3l2.5.3-1.9-3.7c1.2-.4 2-1.5 2-3.3v-.3c0-2.7-1.5-4.3-3.8-4.6Zm1.6 4.6c0 1.5-.9 1.8-1.9 1.8h-1.1v-4.4h1.1c1 .2 1.9.7 1.9 2.3v.3Zm7.4 1.2c-1.1-.5-2.1-.9-2.1-1.9 0-.9.5-1.3 1.5-1.2s1.6.7 1.6 2l2.2.2c0-2.4-1.5-4-3.7-4.3-2.3-.2-3.8.9-3.8 3 0 2.3 1.7 3.1 3.2 3.8 1.2.5 2.2.9 2.2 1.9s-.7 1.3-1.6 1.2c-1-.1-1.7-.7-1.7-2.1l-2.2-.2c0 2.5 1.6 4.2 3.9 4.4s3.9-.9 3.9-3.1c0-2.4-1.8-3.1-3.3-3.8Zm4.3 7.1 6.5.7v-2.2l-4.2-.4v-2.6l3.1.3v-2l-3.1-.3v-2.6l4.2.4v-2.2l-6.4-.7v11.6Zm11-5.5-2-5.1-2.4-.2 3.2 7.7v4.2l2.2.2v-4.2l3.3-7.1-2.3-.2-2.1 4.7Zm10.3-3.8-2.2-.2v11.6l6 .6v-2.2l-3.8-.4v-9.4Zm8.1.7c-2.3-.2-3.9 1.2-3.9 3.6v3.9c0 2.3 1.5 4.2 3.8 4.4 2.3.2 3.9-1.2 3.9-3.6v-3.9c0-2.4-1.6-4.2-3.8-4.4Zm1.5 8.2c0 1.3-.9 1.7-1.6 1.6-.9 0-1.6-.6-1.6-1.9v-4.1c0-1.3.8-1.7 1.6-1.6.9 0 1.6.7 1.6 1.9v4.1Zm2.8-5.4 2.4.2v9.4l2.2.2v-9.4l2.4.2v-2.2l-7-.7v2.2Zm7.2.8 2.4.2v9.4l2.2.2v-9.4l2.4.2v-2.2l-7-.7v2.2Zm7.7 10.2 6.5.7v-2.2l-4.2-.4v-2.6l3.1.3v-2l-3.1-.3v-2.6l4.2.4v-2.2l-6.4-.7v11.6Zm11.3-10.4-3.6-.4v11.6l2.2.2v-3h1.2c0 .1 1.5 3.3 1.5 3.3l2.5.3-1.9-3.7c1.2-.4 2-1.5 2-3.3v-.3c0-2.7-1.5-4.3-3.8-4.6Zm1.6 4.7c0 1.5-.9 1.8-1.9 1.8H248v-4.4h1.1c1 .2 1.9.7 1.9 2.3v.3Zm8.8-3.6-2.1 4.7-2-5.1-2.4-.2 3.2 7.7v4.2l2.2.2v-4.2l3.3-7.1-2.3-.2Z" class="st6"/><path d="M52.9 120.55c-4-1.3-7.9-2.8-11.5-4.3 6.2 3.9 14.1 7.4 22.5 9.9 3.8 1.2 7.7 2.1 11.3 2.7 1.3.2 2.3.4 3.5.5l.3-2.4c-7.8-1.2-16.7-3.3-26.1-6.4" class="st4"/><path d="M182.3 75.75h9.3v-2h-9.4l.1 2zM193.6 73.75v3.3h1.4v4c1 2.7 2.4 5.1 4.2 7.1 3.5 4 8.2 6.1 13.3 6.1h1.1c4.6-.3 9-2.6 12.4-6.5-3 2.6-6.6 4.2-10.3 4.4h-1.1c-5.1 0-9.8-2.1-13.3-6.1-4.1-4.7-6.3-11.4-6.3-19.5 0-8.3 2.2-15.3 6.2-19.9-.1 0-.2.2-.3.3-3.7 3.3-6.2 8.3-7.3 14.4v12.4ZM220.3 60.75c-.7-2.1-2.1-3.3-3.8-3.4-1.2 0-2.2.3-3.2 1.2-.4.4-.8.8-1.1 1.3.7-.4 1.4-.5 2.2-.5 1.3 0 2.4.9 3.2 2.2l5.6.2 7.7-3.6-.2-1.2v-.2l-10 4.9-.3-.9ZM107 115.75c0-.6.2-1.2.4-1.8l3.2-11.3h-1.5l-3.1 10.7.9 2.4Z" class="st0"/><path d="M212.5 63.55v11.7c0 .2.3.5.5.7.4.3.7.6 1.1.8h3.4c.8-.4 1.6-1.1 2.1-2.1h-5.2v-11h-1.9ZM164.2 94.45l-1.7.1.1 2 30.4-1.8v-2l-28.4 1.7-.8-56.2-2-.3.6 45 1.8 11.5zM182.1 56.75l10.5.6v-2.2l-10.5-.6v2.2zM258.8 100.35c-.9-.7-1.6-1-2.4-1-.1 0-.4 0-.4.3h.2l1.4.3c.4 0 .8.2 1.2.4ZM254.1 107.75s.7-.1.7-.5h-.3l-1.3-.2c-.8-.1-1.6-.4-2.3-.8l.3.3c1 .9 1.9 1.3 2.8 1.2ZM250 105.45c-.9-.9-1.5-2.4-1.5-4.4 0-2.2.7-3.9 1.7-5.4-.8.6-1.6 1.4-2.2 2.3l-.4 14.7 2.4-7.3ZM232.3 78.45l-3.5 14.1 13-.8.3-1.9-11.2.7 10.9-44.3-1.5-.2-6.7 27.1c-.3 1.8-.7 3.5-1.3 5.2ZM250.6 84.15l-5.9.3-.3 1.9 4.2-.1.7 5.2 11.4-.7-.4-1.9-8.9.5-.8-5.2zM240.4 101.65v-6.4l-1.9.1v2.1l1.9 4.1ZM133.3 96.25l-11.7.7-8.9-27.2c-.3-1.2-.6-2.3-.9-3.4 0 1 0 1.9-.1 2.9l-.3 4.9 8.1 24.9 13.2-.8.5-2ZM216.3 119.95c-.6 0-1.2.1-1.8.1-2.7 0-5.2-.9-7.1-2.5-2.4-2.1-3.6-5.2-3.6-9.1 0-3.5 1.2-6.7 3.2-9.1-2 1.6-3.5 3.7-4.4 6.2v9.9c.6 1.6 1.5 3 2.8 4.1 1.9 1.7 4.4 2.5 7.1 2.5s1.2 0 1.8-.1c3.5-.5 6.6-2.2 8.6-4.8-1.8 1.5-4.1 2.4-6.6 2.8ZM161.8 94.65l-16.6 1-2.9-28.3c0 .4-.2.8-.3 1.1l-1.4 5.2 2.4 24 18.9-1.1-.3-1.9ZM173.3 125.35l-.3-26.2-2.1.1.2 16.2 1.2-.1.1 10.1-1.2.2.1 1.7 18.4-2.4v-1.8l-16.4 2.2zM240.4 116.35l-3.8-7.6v5.9c-.1 0 1.8 3.8 1.8 3.8l7.1-1v-1.8l-5.1.7ZM254.6 114.75h-1.4c-1.8 0-3.6-.4-5.1-1.2l-.5-.2v2l-1.7.2h.1c1.5.9 3.4 1.3 5.1 1.3h1.4c2.1-.3 4.4-1.5 5.9-3.6-1.2.8-2.5 1.3-3.8 1.5ZM151.8 128.25l-.7-27.9-2.1.2.8 29.7 20.6-2.7-.1-1.8-18.5 2.5zM228.4 117.95l.4-21.9h-2v4.1c.9 1.8 1.4 3.9 1.3 6.2 0 2.4-.6 4.5-1.6 6.4v7.3c-.1 0 7.9-1.1 7.9-1.1v-1.8l-6 .8ZM192.5 122.75l-.1-24.7-2 .1v15.2l1.4-.2v9.7l-1.4.2v1.8l10-1.4.1-1.8-8 1.1zM108.2 97.75l-22.9 1.3 7.8-68.2-2.3-.2-8 70.5 25.2-1.5.2-1.9zM79.8 137.85l4.7-33.7h-2.3l-5 35.7 16.9-2.1.1-1.8-14.4 1.9zM127.4 63.05c.2-1.8.5-3.5.8-5.2l5.3-22.8-1.5-.2-5.6 24.3 1 3.9ZM135.2 130.45l-1-29.1-2.1.1 1.1 31 13.2-1.7v-1.8l-11.2 1.5zM119.2 132.65l-2.1-13.5-1.6 4.9 1.6 10.6 13.9-1.9-.4-1.7-11.4 1.6zM103.3 134.75l-6.1-13.3v-.3l-.4 5.8 4.5 9.9 9.2-1.2.6-1.9-7.7 1Z" class="st0"/><path d="m94.1 29.55 24.1 2.5 9.2 34.3h.5c.3-2.7.6-5.6 1.2-8.3l5.6-24.3 19.5 2 8.9 57.8-17.1 1-3.3-32.4h-.4c-.3 2-.6 4.1-1.1 6l-7.1 27.2-11.9.7-8.7-26.6c-.8-2.8-1.4-5.4-1.7-8.1h-.7c0 2.6-.1 5.3-.3 7.9l-1.6 27.6-23 1.4 7.8-68.6ZM164.7 36.95l29.1 3v14.4l-12.5-.7v5.2l11.5.5v13.5h-11.4v5.3l12.8-.2v13.9l-28.7 1.7-.8-56.6zM233.4 63.05c-.2 7.4-.3 13.6-4 19.4-3.4 5.4-8.6 8.6-13.7 8.9-5.2.3-10.1-1.7-13.7-5.8-3.7-4.2-6.1-10.7-6.1-18.9 0-17 9.1-26.3 20.3-25.1 5.8.6 13.4 5.5 15.7 13.7l-10.9 5.3c-.9-2.5-2.6-3.8-4.6-3.9-4.5-.2-7.1 5.2-7.1 11.1 0 5.4 2.3 10.4 6.4 10.4 1.9 0 4.3-1.3 4.9-4.2h-5.5v-11.4l18.1.6ZM246 73.35l2.1-13.2h.4c.1 1.9.3 3.8.5 5.6l.9 7.6H246Zm-2 10.2 7.4-.3.7 5.2 9.6-.6-7.7-41.7-10.9-1.1-11 44.6 11.1-.6.9-5.4Z" class="st2"/><path d="m135.1 100.25 11.7-.7.8 28.4-11.5 1.5-1-29.2zM152 99.25l10.7-.6.3 18.6 8.4-1 .1 8.4-18.8 2.6-.7-28zM173.9 98.05l9.4-.5.1 17.4 7.5-.8v8l-16.7 2.2-.3-26.3zM193.3 96.95l8.4-.5-.1 24.2-8.3 1.1v-24.8zM229.7 94.85l6.4-.4 5.4 11.5h.2c-.2-1.8-.4-3.6-.4-5.4l.2-6.4 5.8-.3-.6 20.7-5.8.8-5.3-10.5h-.2c.2 1.5.3 2.9.3 4.3l-.2 7-6.3.8.4-22.1ZM250.4 106.85l.3.3c1 .9 2.2 1.6 3.5 1.4.5 0 1.4-.4 1.5-1.4 0-.9-.7-.9-1.2-1h-1.1c-2.2-.4-4.1-1.9-4-5.2.1-4.9 3.7-7.9 7.1-8 1.7-.1 3.3.4 4.7 1.5l-1.6 5.2c-.9-.8-1.9-1.4-3.1-1.3-.5 0-1.2.3-1.2 1.2 0 .8.7.8 1.1.9l1.2.3c2.3.5 3.9 1.9 3.7 5.3-.2 4.6-3.5 7.4-6.8 7.8-2 .3-4.2-.1-6-1.1l2-6ZM85.5 103.05l15.3-.9 6.2 16.3h.4c.2-1.4.4-2.9.7-4.3l3.6-12.7 13.4-.8 6.8 29.2-12.1 1.6-2.5-16.4h-.2c-.2 1.1-.4 2.1-.7 3.2l-4.6 14.3-8 1.1-5.8-12.8a19 19 0 0 1-1.1-3.9h-.5c0 1.3 0 2.7-.2 4l-.9 13.8-14.6 1.9 4.8-33.8ZM216.5 95.25c-6.4.4-11.8 5.6-11.9 13.2 0 7.7 5.2 11.5 11.6 10.6 6.1-.8 10.9-5.7 11-12.8.1-7-4.6-11.4-10.7-11" class="st6"/><path d="m227 104 1.8-6.3 2 6 5.2-.5-4 3.9 1.8 5.4-4.6-2.7-5.4 5.2 2-7.1-6-3.4 7.2-.5z" style="fill:#fff" transform="matrix(1, 0, 0, 1, -11.402955225154086, 0.7501900307862464)"/><g style="clip-path:url(#clippath)" transform="matrix(1, 0, 0, 1, -11.402955225154086, 0.7501900307862464)"><path d="M52.3 29.6H111v58.7H52.3z" style="fill:url(#radial-gradient)"/></g><path d="M69.5 94.65c-3.1.1-6.1 0-8.9-.4 5.3 3.2 11.6 4.6 17.9 3.8 2.9-.3 5.7-1.1 8.3-2.3 1-.5 1.9-1 2.7-1.5l.6-.4.2-.2c1.7-1.1 3.3-2.5 4.8-4.1 2-2.2 3.7-4.6 4.9-7.3l.4-.9v-.2l.3-.5c.4-.9.7-1.8.9-2.8-5.6 9.4-17.8 16.2-32.2 16.8" class="st4"/><path d="m93.2 59.25.5-5.4-3 3.8-4.1-2.9 1.6-5.2 4.4.9-3.4-4.1 1.5-4.7-3.7 2-4-4.8 1.4 6.3-4.2 2.3-3.3-5.5 3.5-4.4-5.9.3-4-6.8v7l-7.9.4 7.9 4.2v7.1h-8.2l-4-8.2-2.3 8.2H44.4c0-.1 10.2 5.2 10.2 5.2l-2.6 9.2 8.3-6.3 7.5 4-3.4 7.7-10.2.4 7.8 5.1-4.2 9.3 8.4-6.6 6.2 4.1-1.7-7.8 6.1-4.8 3.9 5-3.6 7.2 6-4.1 3.4 4.5-.3-6.6 4.6-3.2-4.8-1-.2-6.3 4.7-1.2 2.2 5.2.5-5.9 3.8-.9-3.5-2.5Zm-7.8 5.1-2.9 5.6-5.9-1.2-7.1.2-1.6-7.5-3.4-7.2 5.9-4.6 4.1-5 5.6 2.9 5.1 1.2 1.3 5.9 2.2 5.3-3.4 4.4Z" class="st6"/><path d="M17.2 42.15c-2.6 6.7-1.3 22.9 4.8 34.1 2.2 4.6 4.9 9 8.1 13.4-8-8.4-17-21.8-20.6-38.6 3.8-5.5 5.3-6.5 7.7-8.9Z" class="st2"/><path d="M58.3 28.35c1.4-.6 2.4-.8 3.9-1.2-3.5-1.9-29.7-15.9-49.1-2.8-16.3 11.1-8.4 34-6.7 38.5 4.8 13 14.2 26.1 26.7 37.1 12.1 10.6 26.4 17.1 39.5 20.4v-.4c-7.9-3.9-15.2-10.3-22.5-16.6-21.3-18.6-32.8-43.5-27.9-59.9 5.1 2.5 10.2 5.6 15 9.2.2-1 .5-2 .8-3-5.2-3.8-10.6-7-16.1-9.6l-1.4-.7-.5 1.5c-3.1 8.5-2 19.6 3 31.3 5.1 11.7 14 23.5 25.2 33.3 3.2 2.8 6.5 5.4 9.9 7.8-8-3.8-15.9-9.1-23.2-15.4-12.1-10.6-21.3-23.4-25.9-35.9-1.6-4.1-8.9-25.2 5.6-35.1 5.4-3.7 11.6-5 17.5-5 10.8 0 21.1 4.3 25.9 6.6Z" class="st4"/><path d="M53.8 30.45c-6-2.4-15.3-5.8-21.3-5.8s-11.6 1.5-16.1 4.5c-.3.2-.6.4-1 .7 0 0-.2.1-.3.2l-.6.6h-.1c0 .2-.1.2-.2.3l-.7.7c-.1.2-.3.3-.4.4-.1.1-.2.3-.3.4-.1.2-.3.4-.4.6v.1c-3 4.3-3.7 9.5-3.4 14.4.7-1.1 1.5-2.1 2.4-3.1 2.4-2.7 5.8-6.4 9.2-8l2.3 1.1.7.3c3.9 1.8 11 5.7 15.9 8.8 3-6.9 8.1-12.6 14.6-16.3Z" class="st4"/><path d="M34.5 57.45c0-9.9 4.2-18.8 11-25a28.6 28.6 0 0 0 0 50c-6.7-6.2-11-15.1-11-25Z" class="st2"/></svg>