<svg id="Layer_2" xmlns="http://www.w3.org/2000/svg" xmlns:xlink="http://www.w3.org/1999/xlink" viewBox="0 0 339 94.25"><defs><radialGradient id="radial-gradient" cx="285.27" cy="-631.21" fx="285.27" fy="-631.21" r="26.04" gradientTransform="matrix(1 0 0 -1 27.73 -584.45)" gradientUnits="userSpaceOnUse"><stop offset="0" stop-color="#e42f43"/><stop offset="1" stop-color="#da2d3f"/></radialGradient><radialGradient id="radial-gradient-2" cx="227.93" cy="-630.98" fx="227.93" fy="-630.98" r="26.06" gradientTransform="matrix(1 0 0 -1 27.73 -584.45)" gradientUnits="userSpaceOnUse"><stop offset="0" stop-color="#fff"/><stop offset=".7" stop-color="#fdfdfd"/><stop offset=".95" stop-color="#f6f6f6"/><stop offset="1" stop-color="#f4f4f4"/></radialGradient><radialGradient id="radial-gradient-3" cx="170.63" cy="-630.98" fx="170.63" fy="-630.98" r="26.06" gradientTransform="matrix(1 0 0 -1 27.73 321.35)" xlink:href="#radial-gradient-2"/><radialGradient id="radial-gradient-4" cx="113.27" cy="-630.98" fx="113.27" fy="-630.98" r="26.06" gradientTransform="matrix(1 0 0 -1 27.73 321.35)" xlink:href="#radial-gradient-2"/><radialGradient id="radial-gradient-5" cx="55.67" cy="-630.98" fx="55.67" fy="-630.98" r="26.06" gradientTransform="matrix(1 0 0 -1 27.73 321.35)" xlink:href="#radial-gradient-2"/><radialGradient id="radial-gradient-6" cx="-1.73" cy="-630.98" fx="-1.73" fy="-630.98" r="26.08" gradientTransform="matrix(1 0 0 -1 27.73 321.35)" xlink:href="#radial-gradient-2"/><linearGradient id="linear-gradient" x1="285.27" y1="-657.29" x2="285.27" y2="-605.21" gradientTransform="matrix(1 0 0 -1 27.73 -584.45)" gradientUnits="userSpaceOnUse"><stop offset="0" stop-color="#8f1a26"/><stop offset=".04" stop-color="#8f1a26" stop-opacity=".83"/><stop offset=".1" stop-color="#8f1a26" stop-opacity=".61"/><stop offset=".16" stop-color="#8f1a26" stop-opacity=".42"/><stop offset=".24" stop-color="#8f1a26" stop-opacity=".26"/><stop offset=".32" stop-color="#8f1a26" stop-opacity=".14"/><stop offset=".43" stop-color="#8f1a26" stop-opacity=".06"/><stop offset=".58" stop-color="#8f1a26" stop-opacity=".01"/><stop offset="1" stop-color="#8f1a26" stop-opacity="0"/></linearGradient><linearGradient id="linear-gradient-2" x1="227.93" y1="-657.06" x2="227.93" y2="-604.98" gradientTransform="matrix(1 0 0 -1 27.73 -584.45)" gradientUnits="userSpaceOnUse"><stop offset="0" stop-color="#939392"/><stop offset=".04" stop-color="#939392" stop-opacity=".8"/><stop offset=".1" stop-color="#939392" stop-opacity=".59"/><stop offset=".17" stop-color="#939392" stop-opacity=".4"/><stop offset=".24" stop-color="#939392" stop-opacity=".25"/><stop offset=".33" stop-color="#939392" stop-opacity=".14"/><stop offset=".43" stop-color="#939392" stop-opacity=".06"/><stop offset=".58" stop-color="#939392" stop-opacity=".01"/><stop offset="1" stop-color="#939392" stop-opacity="0"/></linearGradient><linearGradient id="linear-gradient-3" x1="170.63" x2="170.63" xlink:href="#linear-gradient-2"/><linearGradient id="linear-gradient-4" x1="113.27" x2="113.27" xlink:href="#linear-gradient-2"/><linearGradient id="linear-gradient-5" x1="55.67" x2="55.67" xlink:href="#linear-gradient-2"/><linearGradient id="linear-gradient-6" x1="-1.73" x2="-1.73" xlink:href="#linear-gradient-2"/><style>.cls-2{fill:#fff}</style></defs><g id="Layer_1-2"><path d="M313 20.76a26 26 0 1 1 0 52 26 26 0 0 1 0-52Z" fill="url(#radial-gradient)"/><path d="M313 20.76a26 26 0 1 1 0 52 26 26 0 0 1 0-52Z" fill="url(#linear-gradient)"/><path d="M255.66 20.53a26 26 0 1 1-26 26 26 26 0 0 1 26-26Z" fill="url(#radial-gradient-2)"/><path d="M255.66 20.53a26 26 0 1 1-26 26 26 26 0 0 1 26-26Z" fill="url(#linear-gradient-2)"/><path d="M198.36 20.53a26 26 0 1 1-26 26 26 26 0 0 1 26-26Z" fill="url(#radial-gradient-3)"/><path d="M198.36 20.53a26 26 0 1 1-26 26 26 26 0 0 1 26-26Z" fill="url(#linear-gradient-3)"/><path d="M141 20.53a26 26 0 1 1-26 26 26 26 0 0 1 26-26Z" fill="url(#radial-gradient-4)"/><path d="M141 20.53a26 26 0 1 1-26 26 26 26 0 0 1 26-26Z" fill="url(#linear-gradient-4)"/><path d="M83.4 20.53a26 26 0 1 1-26 26 26 26 0 0 1 26-26Z" fill="url(#radial-gradient-5)"/><path d="M83.4 20.53a26 26 0 1 1-26 26 26 26 0 0 1 26-26Z" fill="url(#linear-gradient-5)"/><path d="M26 20.53a26 26 0 1 1-26 26 26 26 0 0 1 26-26Z" fill="url(#radial-gradient-6)"/><path d="M26 20.53a26 26 0 1 1-26 26 26 26 0 0 1 26-26Z" fill="url(#linear-gradient-6)"/><path class="cls-2" d="M291.23 55.6c-2.07-6.7-1.62-12.6 0-18.8 1.72-.1 3.44-.19 5.16-.26 2.45-.1 4 .91 3.6 4.88a7.36 7.36 0 0 1-1.76 4.33c1.26.58 1.94 2.46 2.1 4.64.37 4.5-1 6-3.83 5.71-1.75-.12-3.5-.35-5.27-.5Zm2.42-14.52c-.2 1.06-.33 2.14-.4 3.21h1.6c.78 0 1.35-.56 1.47-1.7.16-1.53-.54-1.56-1.35-1.55l-1.32.04Zm-.41 6.73c.06 1.2.19 2.4.39 3.58l1.65.08c.93 0 1.57-.24 1.43-1.72-.14-1.73-1-1.87-2.25-1.9l-1.22-.04Zm7.85 7.94c.09-6.34 2.32-12.78 4.9-19.28l4.59-.06c1.23 6.5 3.46 13 4.92 19.53H311l-.68-2.58h-4.7c-.08.85-.14 1.7-.18 2.55l-4.35-.16Zm6.73-13.45a85.76 85.76 0 0 0-1.53 7h3.07c-.58-2.32-1.12-4.69-1.54-7ZM317 55.98c.35-6.49.35-12.99 0-19.48h4.17c.65 4.94.8 9.93.46 14.9l6.09-.08c-.2 1.5-.48 2.98-.83 4.45-3.24.15-6.57.21-9.9.21h.01Zm11.09-.23a44.91 44.91 0 0 0 .08-19c1.07.06 2.36.2 3.43.28a32.84 32.84 0 0 1 .63 14.05h4.38a29.5 29.5 0 0 1-1.5 4.3c-2.53.2-4.46.21-7.02.37Z"/><path d="M28.72 30.98c-1.33 0-2.55 0-3.72-.07-3.1-.16-6.19-.08-9.27.23h-.28l-.08.28c-1.67 6.72-2.94 15.14-.86 31.25v.4h.74c1.6 0 3.1.1 4.63.1 1.36 0 2.74 0 4.23-.14h.4v-.4c-.08-3.1-.08-6.2-.08-9.26h4.7c4.8-.06 8.4-1.3 10.7-3.69a10.14 10.14 0 0 0 2.6-7.47c-.27-6.77-5.52-11.05-13.71-11.23Zm3.7 10.61a3.3 3.3 0 0 1-.91 2.38 4.74 4.74 0 0 1-3.36 1.24h-3.8c0-1.19.06-2.48.09-3.74 0-1 0-1.9.07-2.79H27c1.65-.02 5.43.24 5.43 2.92h-.01ZM83.52 30a16.33 16.33 0 0 0-15.23 10.1 16.17 16.17 0 0 0-1.3 6.28c.13 9.63 7 16.7 16.5 16.81a16.6 16.6 0 0 0 .03-33.2V30Zm-5.6 16.4c0-3.9 1.45-8.06 5.53-8.08h.2a4.6 4.6 0 0 1 3.28 1.3c1.42 1.4 2.28 3.93 2.28 6.78 0 3.13-.74 8.4-5.64 8.41-5.25.02-5.65-6.43-5.65-8.39v-.02Zm80.9-14.4h-.3c-2.53-.09-3-.1-5.65-.16h-1.94v.42c.24 5.5-.32 11.01-1.66 16.35a145.1 145.1 0 0 0-2.57-11.06c-.46-1.79-.94-3.63-1.42-5.6l-.07-.27h-.28a71.2 71.2 0 0 0-7.45 0h-.3l-.06.27c-.6 2.48-1.26 4.76-1.9 7a104 104 0 0 0-2.44 9.7 57.12 57.12 0 0 1-1.35-16.45v-.4h-7.5l-.07.3c-2.15 8.12-.26 17.9 6 30.75l.1.21h.24c2.07 0 3.13.07 4.15.07s1.86 0 3.54-.06h.34v-.34c.55-5.6 1.67-11.37 2.77-17 1.12 5.6 2.25 11.36 2.8 17v.36h.37c1.58-.07 3-.07 4.42-.07h4.23l.1-.22c5.57-11.5 7.65-22.32 5.87-30.45l.03-.35Zm37.12 23v-4.12c4.14 0 8.35 0 12.5-.1h.4v-7.92h-.41c-4.1-.1-8.31-.14-12.5-.1v-3.67c3.28 0 6.45 0 9.8.14l5 .11h.5l-.08-.49a36.3 36.3 0 0 0-1.93-6.86l-.1-.24h-.24a78.13 78.13 0 0 0-22.13 0h-.32l-.06.3a67.54 67.54 0 0 0 0 29.93l.07.28h.28c3.93.54 7.9.83 11.86.85 3.79-.01 7.57-.28 11.32-.8h.25l.09-.23c.8-2.28 1.28-4.67 1.4-7.09v-.48h-.48c-5.03.37-10.16.48-15.22.48V55Zm74.49 1.1c.45-5.65-1.77-7.09-4.65-8.2a6.86 6.86 0 0 0 4.45-7.23c-.57-6.6-5.14-9.9-14-10.12h-1.72c-3.49-.13-6.98.13-10.41.76h-.24l-.07.23c-3.48 10.34-3.8 21.51-.86 30.66l.07.24h.25c2.31.41 4.65.61 7 .6h2.07v-.43c-.17-3.56-.23-7.2-.28-10.74v-.1h2.75c2 0 3.29.36 4 1.12.9.93 1 2.54 1 4.68-.15 1.72-.08 3.45.2 5.15l.1.32h.33c1-.07 2-.1 2.93-.13a55.3 55.3 0 0 0 6.3-.42h.3l.3-1.73-.57.1c.04-.38.1-.76.2-1.14.29-1.18.5-2.39.63-3.6l-.08-.02ZM260.22 42c.02.3-.02.58-.11.86-.1.28-.25.53-.45.75-.65.66-1.94 1-4 1H252c0-1.77 0-3.6.09-5.57 1.45 0 2.92-.06 4.35-.06 2.34.01 3.74 1.11 3.78 3.01V42Z" fill="#101820"/><path d="M3.46.3h1.82l6.77 10.43h.04V.31h1.62v12.85h-1.88L5.12 2.85h-.04v10.31H3.46V.31ZM18.82.3h8.87v1.45h-7.16v4.08h6.68v1.44h-6.68v4.45h7.22v1.44h-8.93V.31ZM43.77 13.16h-1.79l-2.93-10.8h-.04l-2.97 10.8h-1.78L30.96.31h1.75L35.23 11h.04L38.15.3H40L42.85 11h.03L45.5.3h1.7l-3.43 12.85ZM65.04 9.96c0 1.73-.92 3.5-3.8 3.5-2.4 0-3.74-1.3-3.74-3.74v-.79h1.7v.54c0 1.5.4 2.56 2.08 2.56 1.57 0 2.05-.9 2.05-2.32V.3h1.71v9.65ZM70.19.3h8.87v1.45H71.9v4.08h6.68v1.44H71.9v4.45h7.22v1.44h-8.93V.31ZM83.53.3h6.05c2.43 0 3.9 1.3 3.9 3.37 0 1.57-.66 2.83-2.23 3.26v.04c1.5.29 1.78 1.4 1.93 2.65.09 1.24.03 2.68.75 3.54h-1.9c-.5-.52-.22-1.9-.47-3.17-.2-1.24-.5-2.32-2.15-2.32h-4.17v5.5h-1.71V.3Zm5.27 5.93c1.59 0 2.97-.41 2.97-2.29 0-1.27-.68-2.2-2.28-2.2h-4.25v4.49h3.56ZM105.63 4.07c-.2-1.86-1.4-2.63-3.19-2.63-1.45 0-2.88.52-2.88 2.2 0 3.17 8.23.93 8.23 6 0 2.73-2.68 3.83-5.02 3.83-2.88 0-5.31-1.42-5.31-4.54h1.62c0 2.16 1.8 3.1 3.74 3.1 1.55 0 3.26-.49 3.26-2.34 0-3.53-8.23-1.21-8.23-5.93 0-2.59 2.3-3.76 4.67-3.76 2.63 0 4.64 1.24 4.73 4.07h-1.62ZM112.2.3h8.88v1.45h-7.17v4.08h6.68v1.44h-6.68v4.45h7.22v1.44h-8.93V.31ZM130.85 7.9v5.26h-1.71V7.9L124.17.3h2.03l3.86 6.13L133.82.3h1.94l-4.91 7.6Z"/><g><path d="M141 94.24H.3v-14.5h159.47L141 94.25Zm19.72 0H148.7l18.78-14.5h12.03l-18.79 14.5Zm18.79 0h-12.03l18.78-14.5h12.03l-18.79 14.5h.01Z"/><path class="cls-2" d="M9.23 83.34h5.01c2.76 0 3.95 1.6 3.95 4.02s-1.23 4.02-3.76 4.02h-5.2v-8.04Zm2.18 6.5h2.44c1.44 0 2.1-.86 2.1-2.56 0-1.49-.64-2.4-2.3-2.4H11.4v4.97h.01Zm15.75-6.73c4.32 0 5 2.57 5 4.25s-.68 4.25-5 4.25c-4.33 0-5-2.57-5-4.25s.67-4.25 5-4.25Zm0 6.96c1.98 0 2.68-1.46 2.68-2.7s-.7-2.73-2.68-2.73c-1.99 0-2.68 1.47-2.68 2.72s.7 2.71 2.68 2.71Zm9.15-6.73h2.18v4.61c0 .8.04 2.12 2.04 2.12s2.04-1.33 2.04-2.12v-4.6h2.19v5.14c0 .9-.11 3.11-4.23 3.11s-4.22-2.2-4.22-3.1v-5.16Zm13.05 0h6.04c1.17 0 2.26.54 2.26 2.02 0 .62-.31 1.38-1.07 1.61V87c.94.15 1.43 1.08 1.43 1.95 0 1.07-.5 2.43-2.93 2.43h-5.73v-8.04Zm2.19 3.2h3.04c.5 0 .82-.28.82-.87 0-.5-.23-.87-1.13-.87h-2.73v1.74Zm0 3.3h3.22c.67 0 .93-.43.93-.94 0-.63-.4-.97-1.16-.97h-3v1.92h.01Zm10.98-6.5h2.19v6.44h4.9v1.6h-7.09v-8.04Zm11.3 0h7.51v1.53h-5.33v1.67h5.06V88H76v1.85h5.37v1.53h-7.55v-8.04l.01.01Zm19.24 0h5.41c2.29 0 2.84 1.36 2.84 2.44 0 1.71-.9 2.73-2.67 2.73h-3.4v2.87h-2.18v-8.04Zm2.19 3.7h2.34c.68 0 1.47-.02 1.47-1.1 0-1.05-.65-1.14-1.27-1.14h-2.54v2.24Zm10.36-3.7h2.18v6.44h4.9v1.6h-7.08v-8.04Zm17.07 6.38h-3.7l-.65 1.66h-2.36l3.54-8.04h2.64l3.53 8.04h-2.35l-.65-1.66Zm-1.85-4.65-1.26 3.2h2.52l-1.26-3.2Zm10.53 3.5-3.56-5.23h2.56l2.09 3.5 2.08-3.5h2.57l-3.56 5.23v2.8h-2.18v-2.8Z"/></g></g></svg>