<svg viewBox="5.53 5.76 178.52 100.16" xmlns="http://www.w3.org/2000/svg"><defs><style>.st0{fill:#fff200}.st1{fill:#007ac2}.st7{fill:#fff}</style></defs><path class="st0" d="M97.9 69.37c-.69-.86-.79-.99-1.36-1.98 0 .01-2.37-4.2-3.74-6.6 1.49-1.81 8.19-9.94 8.19-9.94h-13.8s-1.36 1.75-1.51 1.94v-7.03H72.84v10.16c-1.11-1.79-3.7-5.85-10.39-5.85-4.32 0-8.83 2.16-11.11 6.24V50.8h-.17c.3-.67.46-1.37.46-2.05 0-2.76-2.56-5.75-6.71-5.75-3.29 0-5.58 1.89-6.39 4.05-.69-1.54-1.64-2.65-2.51-3.42-3.28-2.96-7.12-2.96-9.66-2.96H8.27V73.3H23.7V63.27c3.97-.05 7.09-.3 9.96-1.73 2.24-1.09 3.89-2.76 4.85-4.85V73.8h12.84v-5.58c1.95 3.55 5.71 6.25 10.85 6.25 6.94 0 9.69-4.38 10.64-5.97v5.33h12.84v-1.06c.07.07.13.14.2.21l.81.85h14.78l-3.57-4.46Zm-31.52-5.59c-.67.82-1.05 1.17-1.85 1.17-1.52 0-1.64-2.11-1.64-2.76 0-.59.12-2.53 1.73-2.53.72 0 1 .22 1.86 1.14 0 0 .77.82 1.24 1.33-.37.47-1.34 1.65-1.34 1.65m5.76.99-3.51-2.53c.36-.26 2.67-1.96 4.21-3.09v6.12l-.7-.5ZM143.95 103.04c-12.63 0-23.06-4.3-30.16-12.43-6.96-7.72-10.51-18.67-10.51-32.52 0-11.72 3.21-23.39 8.81-32.02 7.4-11.4 18.69-17.43 32.66-17.43 23.28 0 29.69 14.37 32.42 20.51l1.23 2.75-16.8 8.73-1.68-2.08c-2.3-2.85-5.17-6.4-10.89-6.4-3.66 0-8.38 1.13-10.26 9.59 3.09-1.4 7.19-2.58 12.46-2.58 17.34 0 29.92 12.39 29.92 29.46 0 17.13-11.5 34.42-37.2 34.42"/><path class="st1" d="M31.57 82.8c-.58-.46-1.51-.79-2.99-.79h-2.47l-2.05 6.12h3.08c1.77 0 3.09-.39 4-1.13.82-.66 1.25-1.5 1.25-2.41.01-.74-.25-1.33-.82-1.79Zm-1.99 3.21c-.5.4-1.3.62-2.18.62h-.7l1.05-3.11h.61c.74 0 1.21.14 1.49.38.24.19.38.46.38.84 0 .48-.25.95-.65 1.27ZM37.18 81.9c-2.65 0-4.55 1.74-4.55 3.6 0 1.56 1.47 2.75 3.64 2.75 2.65 0 4.55-1.74 4.55-3.6 0-1.56-1.47-2.75-3.64-2.75Zm-.72 4.83c-1.08 0-1.67-.58-1.67-1.36 0-.91.87-1.95 2.2-1.95 1.08 0 1.67.58 1.67 1.36 0 .91-.86 1.95-2.2 1.95ZM47.3 82.02l-1.13 3.37c-.16.49-.36.8-.64 1.01-.26.21-.62.32-1.03.32-.76 0-1.19-.34-1.19-.89 0-.2.04-.38.11-.58l1.08-3.23h-2.14l-1.05 3.11c-.11.33-.17.67-.17.98 0 1.35 1.12 2.14 3.09 2.14 1.18 0 2.14-.24 2.81-.79.53-.43.92-1.02 1.19-1.83l1.21-3.62H47.3ZM56.42 83.49c0-.78-.68-1.47-2.76-1.47h-3.18l-2.05 6.12h3.96c2.37 0 3.47-.8 3.47-1.86 0-.63-.48-1.03-1.16-1.22 1.08-.22 1.72-.8 1.72-1.57Zm-3.86 3.28h-1.6l.38-1.13h1.46c.62 0 .94.17.94.48 0 .39-.45.65-1.18.65Zm.61-2.31h-1.43l.35-1.08h1.32c.64 0 .92.18.92.46 0 .38-.4.62-1.16.62ZM60.19 82.02h-2.13l-2.05 6.12h5.77l.5-1.49h-3.64zM62.74 88.14h6.17l.48-1.45h-4.08l.33-.97h3.65l.44-1.33h-3.64l.31-.93h4.02l.49-1.44h-6.12zM79.95 83.91c0-.51-.2-.93-.6-1.25-.56-.45-1.38-.65-2.62-.65h-2.5l-2.05 6.12h2.13l.59-1.76h1.25c2.27.01 3.8-.94 3.8-2.46Zm-3.81 1.15h-.8l.53-1.62h.79c.39 0 .7.07.91.24.14.11.22.26.22.43-.01.57-.61.95-1.65.95ZM81.93 86.65l1.55-4.63h-2.13l-2.05 6.12h5.77l.5-1.49zM90.67 81.97l-5.31 6.16h2.3l.92-1.09h2.95l.19 1.09h2.23l-1.19-6.16h-2.09Zm-1.03 3.75 1.43-1.76.27 1.76h-1.7ZM99.37 82.02l-2.3 2.29-.75-2.29h-2.28l1.53 3.75-.79 2.37h2.13l.73-2.19 4.26-3.93zM11.06 83.78l-1.57 2.65.03-2.66H8.45l-1.66 2.65.14-2.64H5.68l-.07 4.39h1.11l1.71-2.67-.02 2.67h1.11l2.77-4.39zM11.72 88.13h1.23l1.4-4.35h-1.23zM21.19 83.7c-.49 0-.89.26-1.21.54l.64-2.03h-1.23l-1.89 5.93h1.23l.79-2.44c.17-.52.5-.87.99-.87.38 0 .59.19.57.54-.01.11-.04.27-.08.39l-.77 2.39h1.23l.75-2.34c.09-.28.18-.58.19-.83.05-.8-.43-1.28-1.21-1.28ZM15.99 86.86c0-.05.02-.13.04-.2l.59-1.83h1.02l.34-1.06h-1.02l.36-1.11h-1.24l-.36 1.11h-.52l-.34 1.06h.52l-.63 1.97c-.06.19-.1.37-.11.54-.03.48.32.85 1.07.85.33 0 .65-.06.9-.18l.34-1.05c-.21.09-.44.14-.64.14-.23.02-.33-.08-.32-.24ZM13.6 82.21l-.36 1.09h1.3l.36-1.09zM11.02 43.43h15.35c2.3 0 5.33 0 7.83 2.26 2.46 2.15 2.57 5.03 2.57 6.18 0 2.95-1.19 5.68-4.34 7.21-2.92 1.46-6.29 1.46-11.47 1.46v10.01h-9.94V43.43Zm9.93 13.55c1.34 0 2.92-.04 4.07-.69 1.31-.69 1.92-2.03 1.92-3.57 0-1.07-.35-2.57-2.07-3.22-.84-.34-1.84-.42-3.91-.46v7.94ZM41.25 53.56h7.35v17.49h-7.35V53.56Zm-.29-4.79c0-1.12 1.18-3.01 3.96-3.01 2.78 0 3.96 1.89 3.96 3.01 0 1.12-1.18 3.01-3.96 3.01-.99 0-2.01-.26-2.81-.9-.64-.51-1.15-1.31-1.15-2.11M70.54 66.99c-.8 1.34-2.81 4.73-8.35 4.73-6.14 0-9.62-4.73-9.62-9.31 0-6.2 4.92-9.59 9.88-9.59 5.18 0 7.04 2.91 8.09 4.6l-2.05 1.5c-.89-.96-1.89-2.01-3.87-2.01-2.59 0-4.48 2.08-4.48 5.28 0 2.78 1.37 5.5 4.38 5.5 2.14 0 3.23-1.28 3.96-2.18l2.06 1.48ZM75.58 48.51h7.35v12.28l5.6-7.19h6.65l-5.69 6.91 4.67 8.25c.64 1.12.83 1.37 1.6 2.33h-7.9c-.74-.77-1.09-1.15-1.85-2.37-.93-1.5-1.92-3.29-3.07-5.44v7.8h-7.35V48.51Z"/><path d="M100.45 55.69c-1.93 2.34-3.7 4.49-4.33 5.25 1.3 2.3 2.81 4.96 2.8 4.95.46.8.47.82 1.12 1.63l1.16 1.45c-.52-3.42-.79-7.04-.79-10.88 0-.8.01-1.6.04-2.4z" fill="none"/><path class="st1" d="M64.63 59.66c-1.61 0-1.73 1.94-1.73 2.53 0 .65.12 2.76 1.64 2.76.8 0 1.18-.36 1.85-1.17 0 0 .97-1.18 1.35-1.65-.47-.51-1.24-1.33-1.24-1.33-.87-.92-1.15-1.14-1.87-1.14zM72.14 64.77l.69.5v-6.12c-1.53 1.13-3.85 2.83-4.21 3.09.62.44 3.52 2.53 3.52 2.53z"/><path class="st1" d="m173 43.79-4.31-3.61 4.99-2.59c.87-.45 5.32-2.76 8.44-4.39l-2.32-5.22c-2.95-6.65-9.87-22.22-35.05-22.22-26.41 0-40.35 20.37-43.6 42.21H88.42v-5.08H70.1v6.38c-1.89-1.11-4.37-1.93-7.64-1.93-2.79 0-5.65.74-8.13 2.18.03-.25.05-.51.05-.76 0-4.08-3.61-8.49-9.45-8.49-2.55 0-4.67.84-6.25 2.12-.27-.29-.55-.55-.82-.79-4.06-3.66-8.89-3.67-11.49-3.67H5.53v38.1h20.91V65.94c3.1-.16 5.77-.62 8.41-1.93.31-.15.61-.32.91-.49v13.02h18.33v-1.55c2.24 1.38 4.96 2.22 8.11 2.22 3.01 0 5.65-.69 7.9-2.05v1.28h32.77c1.87 6.27 4.79 11.65 8.78 16.09 7.58 8.65 19.05 13.39 32.32 13.39 12.73 0 23.26-4.12 30.45-11.9 6.12-6.63 9.63-15.88 9.63-25.39-.02-10.05-3.94-18.87-11.05-24.84zm-71.8 25.18-1.16-1.45c-.65-.81-.66-.83-1.12-1.63.01.01-1.5-2.65-2.8-4.95.63-.76 2.4-2.92 4.33-5.25-.03.8-.04 1.6-.04 2.4 0 3.84.27 7.46.79 10.88zm-14.51 4.86-.81-.85c-.07-.07-.14-.14-.2-.21v1.06H72.84V68.5c-.95 1.59-3.7 5.97-10.64 5.97-5.14 0-8.9-2.7-10.85-6.25v5.58H38.5V56.69c-.96 2.09-2.61 3.76-4.85 4.85-2.86 1.43-5.99 1.69-9.96 1.73V73.3H8.27V40.69h18.09c2.54 0 6.38 0 9.66 2.96.87.77 1.82 1.88 2.51 3.42.8-2.16 3.09-4.05 6.39-4.05 4.14 0 6.71 2.98 6.71 5.75 0 .69-.16 1.39-.46 2.05h.17v5.51c2.28-4.09 6.79-6.24 11.11-6.24 6.69 0 9.27 4.05 10.39 5.85V45.77h12.84v7.03c.15-.19 1.51-1.94 1.51-1.94H101s-6.7 8.13-8.19 9.94c1.36 2.4 3.74 6.61 3.74 6.6.56.99.67 1.12 1.36 1.98l3.56 4.46H86.69zm57.26 29.21c-12.63 0-23.06-4.3-30.16-12.43-6.96-7.72-10.51-18.67-10.51-32.52 0-11.72 3.21-23.39 8.81-32.02 7.4-11.4 18.69-17.43 32.66-17.43 23.28 0 29.69 14.37 32.42 20.51l1.23 2.75-16.8 8.73-1.68-2.08c-2.3-2.85-5.17-6.4-10.89-6.4-3.66 0-8.38 1.13-10.26 9.59 3.09-1.4 7.19-2.58 12.46-2.58 17.34 0 29.92 12.39 29.92 29.46 0 17.13-11.5 34.42-37.2 34.42z"/><path class="st1" d="M162.45 36.58c-2.43-3-6.13-7.63-13.42-7.63-13.06 0-13.99 13.88-14.22 18.85 2.77-1.97 7.74-5.44 16.42-5.44 14.57 0 26.72 9.84 26.72 26.26 0 13.64-8.68 31.22-34 31.22-11.8 0-21.39-4.05-27.75-11.33-7.41-8.21-9.71-19.43-9.71-30.42 0-19.08 9.36-46.26 38.28-46.26 21.16 0 26.71 12.37 29.49 18.61l-11.81 6.14Z"/><path d="m124.35 100.97-.05.02s.04-.01.05-.02Z" fill="#0f7ac0"/><g><path d="M157.45 55.8c4.71 3.71 7.73 9.45 7.73 15.91 0 11.18-9.07 20.25-20.25 20.25-2.79 0-5.44-.56-7.86-1.58 3.29 2.4 7.32 3.83 11.69 3.83 11.03 0 19.98-9.04 19.98-20.2 0-8.02-4.61-14.94-11.29-18.21z" fill="#005185"/></g><g id="Pick_6_Xtra"><radialGradient id="SVGID_5_" cx="1460.213" cy="-135.595" r="31.61" gradientTransform="matrix(.8208 -.2928 .2987 .8373 -1010.011 608.864)" gradientUnits="userSpaceOnUse"><stop offset=".335" stop-color="#fff"/><stop offset=".597" stop-color="#fff"/><stop offset=".657" stop-color="#fcfcfc"/><stop offset=".7" stop-color="#f3f3f3"/><stop offset=".737" stop-color="#e4e4e4"/><stop offset=".77" stop-color="#cecece"/><stop offset=".802" stop-color="#b1b1b1"/><stop offset=".831" stop-color="#8f8f8f"/><stop offset=".859" stop-color="#676767"/><stop offset=".86" stop-color="#666"/></radialGradient><circle cx="144.97" cy="71.82" r="20.2" fill="url(#SVGID_5_)"/><radialGradient id="SVGID_6_" cx="110.047" cy="75.93" r="23.395" gradientTransform="matrix(.6546 0 0 .6605 79.382 18.597)" gradientUnits="userSpaceOnUse"><stop offset=".019" stop-color="#d7df23"/><stop offset=".326" stop-color="#8dc63f"/><stop offset=".436" stop-color="#85bd3f"/><stop offset=".57" stop-color="#73ad3f"/><stop offset=".716" stop-color="#56953f"/><stop offset=".926" stop-color="#1f733b"/><stop offset="1" stop-color="#006838"/></radialGradient><path d="M153.74 66.67c2.55.02 4.87.39 6.21-.02 1.28-.39 1.48-.85 1.33-1.35-1.85-6.14-7.37-9.92-9.99-8.86-.64.26-.79 1.66-.79 1.66s-.01 4.21.22 7.86c-.34-2.91-1.64-10.16-6.65-10.16-3.57 0-10.7 4.71-11.17 8.9-.4 3.56 2.53 3.41 3.88 3.31 1.46-.1 5.52-.71 10.46-1.14-5.55 1.61-9.26 3.67-11.37 6.04-2.59 2.9 1.55 10.78 5.86 11.19 4.31.41 7.66-5.08 8.01-5.31-1.9 6.56-4.91 8.03-4.91 8.03.96 1.15 2.21.75 2.6.64 1.98-1.06 2.99-5.6 3.47-9.17.27 2.09 4 5.72 7.19 3.72 4.08-3.07 4.56-7.12 4.16-9.62-.44-2.93-3.41-4.47-8.51-5.72z" fill="url(#SVGID_6_)"/><path class="st7" d="m147.34 63.39-.17-.7.89-1.05.23-.61.7-.55.51.16 3.6 2.04.04.83-.52 1.48-.18.07-.17-.08.05-.05.11-.52-.03-.17-.03.2-.19.45-.07.5-.19.44-.16.08-.14-.15-.06.12.49.45.41.15.05-.07h.11l.25.24.11-.07-.01-.18-.15-.33.24.01s.82 1.02.1 3.4l-.18-.1-.06-.22h-.08l-.09 1.8-.18.17-.2 1.07-.4.46-.01.33-.23.08-.13-.18-.2.32.2.19-.23.32.17.1v.07l.14.09-.03.21-.32.35-.55.38-.73.77-.64.99v.25l-.25.32-.62.33h-.25l.32-.59v-.31l.24-.25v-.5l-.7-.37-.5-.03-.5-.58-.26.01-.16.08-1.41-1.27-.03-.36.17-.52-.15-.25.2-.84.3-.35.2-.03.46-.44.16.04.62-.33.43-.78.24-.05.58-.62.41-.17.48-.35-.01-.32-.4-.42-.09-.19-.36-.33-.44-.76-.05-.17-.11.11-.26-.02-.23-.2v-.51l-.07-.31-.51-.35.12-.36-.18-.73.39-.14.02-.41.13-.22z"/><path class="st7" d="m153.11 69.56-.1.16-.04 1.34-.28.88.13-.02.39-.83.05-1.37zM152.81 72.14h-.23l-.19.41-.37.64-.06.18-.01.22.1.02.08-.17.07-.22z"/></g></svg>