<svg viewBox="36.33 79.39 420.28 252.91" xmlns="http://www.w3.org/2000/svg"><g><path class="st0" d="M441.26 211.4a73.05 73.05 0 0 0-17.92-14.97 61.3 61.3 0 0 0 22.34-47.62c0-21.25-10.55-39.94-29.78-52.74-16.21-10.78-37.23-16.68-59.33-16.68-24.36 0-47.62 7.06-65.54 19.86l-.15.08c-20.79 15.27-28.93 32.96-33.74 43.58l-5.35 11.71 32.1 15.9h-32.57V158.2h-44.36v15.13c-4.58-2.72-10.63-4.66-18.54-4.66a39.7 39.7 0 0 0-19.7 5.28c.08-.62.08-1.25.08-1.87 0-9.92-8.76-20.55-22.88-20.55-6.2 0-11.32 2.02-15.12 5.12-.7-.7-1.32-1.4-2.02-1.94-9.85-8.76-21.56-8.76-27.84-8.76H50.45v92.3h50.64v-24.52c7.53-.39 13.96-1.47 20.4-4.65.78-.39 1.47-.78 2.17-1.16v31.56h44.36v-3.72a37.03 37.03 0 0 0 19.63 5.35c7.29 0 13.65-1.7 19.15-4.96v3.4h17.84v.47l.39-.46h46l-12.57 5.2h11.79l-6.36 18.14h10.54l6.36-18.14h15.98l-6.36 18.14h14.97l-4.5 12.65h-45.37c10.4 23.57 33.66 56.77 97.49 56.77 30.4 0 56.3-7.53 74.84-21.8 18.54-14.27 28.77-34.59 28.77-57.23a63.69 63.69 0 0 0-15.35-41.88zm-104.47 51.57c-19.7 0-26.22-11.55-31.1-23.42l-5.12-12.25-10.24 4.26-10.93-13.65c-1.55-1.94-1.63-2.02-2.72-3.95 0 0-3.64-6.44-6.75-12.03 2.95-3.56 16.06-19.54 22.42-27.22l11.79 5.82 7.13-10.78c7.14-10.78 13.65-19 26.37-19 9.39 0 15.05 5.27 15.05 10.31 0 .85-.39 8.22-12.49 11.71-5.58 1.55-10.7 1.55-15.2 1.55h-13.26v59.96H325c9.54 0 22.65 0 29 6.74l.16.16.16.15a11.35 11.35 0 0 1 3.18 7.76c-.08 3.88-3.8 13.88-20.71 13.88z" fill="#00b159"/><path class="st0" fill="#00b159" d="m249.23 259.25 4.42-12.57-7.68 3.18z"/><path class="st1" d="M410.4 197.28c18.06-10.08 28.6-27.76 28.6-48.55 0-18.92-9.53-35.68-26.83-47.15-14.89-9.85-35.13-15.52-55.68-15.52-22.96 0-44.9 6.6-61.74 18.62-19.46 14.27-27.14 31.02-31.72 41.03l-2.71 5.89 41.41 20.47 3.88-5.89c6.2-9.3 14.58-22.03 31.88-22.03 14.11 0 21.71 8.77 21.71 16.99 0 6.05-4.5 14.42-17.3 18.07-6.43 1.78-12.32 1.78-17.05 1.78h-6.67v46.62h6.67c10.78 0 25.43 0 33.81 8.84l.08.07.08.08a17.95 17.95 0 0 1 5.11 12.41c0 8.22-7.29 20.48-27.3 20.48-25.82 0-33.27-17.92-37.22-27.46l-2.56-6.13-27.61 11.4-5.43 15.52h10.55l6.36-18.15h15.97l-6.36 18.15h14.97l-4.5 12.64h-38c10.4 22.26 32.34 50.1 90.28 50.1 28.92 0 53.43-7.06 70.8-20.48 16.91-12.95 26.14-31.48 26.14-52.04-.08-24.74-15.04-45.52-39.63-55.76z" fill="#fff100"/><path class="st2" d="M263.96 262.9h.7c-.15-.32-.23-.7-.39-1.01l-.3 1z" fill="none"/><path class="st0" d="M304.14 262.9a54 54 0 0 1-8.84-13.81l-4.81 13.8h13.65zM264.66 262.9h9.77l4.27-12.18-12.33 5.12-2.1 6.05c.16.3.31.7.4 1z" fill="#00b159"/><path class="st0" d="M400.23 200.7c-3.26-.86-6.51-1.48-9.77-2.1 3.8-1.47 7.68-2.64 11.24-4.42 20.63-8.84 30.72-26.84 30.72-45.45 0-36.3-38.4-56.07-75.85-56.07-23.04 0-43.36 7.05-57.86 17.37-17.68 12.95-24.82 28-29.55 38.39l30.4 15.05c6.52-9.78 16.52-25.99 38.08-25.99 17.45 0 28.31 11.48 28.31 23.58 0 8.3-5.58 19.78-22.1 24.5-7.37 2.1-13.89 2.1-18.93 2.1v33.35c11.48 0 28.31 0 38.63 10.94a24.66 24.66 0 0 1 7.05 17.14c0 11.48-10 27.14-33.97 27.14-15.27 0-25.12-5.5-31.72-12.33l-4.1 11.64H269.92c10.32 20.4 31.26 43.5 82.84 43.5 57.54 0 90.27-28.92 90.27-65.84.23-25.98-17.76-45.14-42.8-52.5z" fill="#00b159"/><path class="st3" d="M305.46 262.9h-1.32c.3.3.62.7.93 1l.39-1z" fill="#fff"/><g><path class="st4" d="M36.41 254.98h3.34l-.4 7.06 4.5-7.13h2.88l-.08 7.13 4.19-7.13h3.25l-7.36 11.86h-2.95l.08-7.13-4.58 7.13h-2.95l.08-11.79zM56.42 254.98h3.34l-3.73 11.71H52.7l3.72-11.7zm1.24-4.19h3.5l-.94 2.95h-3.49l.93-2.95zM60.45 264.6c0-.47.16-.93.31-1.47l1.71-5.28h-1.4l.93-2.87h1.4l.93-2.94h3.34l-.93 2.94h2.71l-.93 2.87H65.8l-1.55 4.89c-.07.15-.07.39-.07.54 0 .47.23.7.85.7.54 0 1.16-.16 1.7-.39l-.93 2.8c-.7.3-1.55.46-2.4.46-2.1.08-3.02-.93-2.95-2.25zM73.17 250.8h3.34l-1.7 5.42a4.9 4.9 0 0 1 3.25-1.47c2.1 0 3.41 1.32 3.26 3.41 0 .62-.31 1.48-.55 2.25l-2.01 6.28h-3.34l2.1-6.43c.07-.31.15-.78.23-1.01.08-.93-.54-1.48-1.55-1.48-1.32 0-2.17.94-2.64 2.33l-2.1 6.6h-3.33l5.04-15.9z" fill="#ee3e42"/><g><path class="st1" d="M274.2 222.1c-1.63-2.1-1.94-2.4-3.26-4.81 0 0-5.74-10.16-9.07-15.98l19.85-24.04H248.3s-3.34 4.27-3.65 4.73v-17.06h-31.1v24.58c-2.71-4.34-9-14.19-25.13-14.19-10.47 0-21.4 5.2-26.91 15.13v-13.34h-.39c.7-1.63 1.09-3.34 1.09-4.97 0-6.67-6.2-13.96-16.29-13.96-7.99 0-13.5 4.58-15.51 9.77a24.99 24.99 0 0 0-6.05-8.3c-7.91-7.2-17.22-7.2-23.42-7.2H57.12v79.02H94.5v-24.27c9.62-.08 17.22-.7 24.12-4.19a24.03 24.03 0 0 0 11.71-11.79v41.5h31.1v-13.5c4.73 8.6 13.89 15.12 26.3 15.12 16.82 0 23.5-10.62 25.74-14.5v12.95h31.1v-2.56c.16.16.31.31.47.55l1.94 2.01h35.83l-8.61-10.7zm-76.32-13.57c-1.62 1.94-2.56 2.87-4.5 2.87-3.64 0-3.95-5.12-3.95-6.67 0-1.48.31-6.13 4.19-6.13 1.78 0 2.4.54 4.5 2.8 0 0 1.86 2 3.02 3.17-.93 1.09-3.26 3.96-3.26 3.96zm13.96 2.4s-7.05-5.04-8.53-6.13c.86-.62 6.52-4.73 10.16-7.52v14.81l-1.63-1.16z" fill="#fff100"/><path class="st0" d="M63.79 159.2h37.15c5.58 0 12.95 0 18.92 5.5 5.97 5.2 6.2 12.18 6.2 14.98 0 7.13-2.86 13.72-10.46 17.45-7.06 3.56-15.28 3.56-27.77 3.56v24.28H63.8V159.2zM87.83 192c3.26 0 7.06-.07 9.85-1.7 3.18-1.7 4.65-4.96 4.65-8.6 0-2.65-.85-6.21-5.04-7.84-2.01-.85-4.5-1.01-9.46-1.09v19.24zM137 183.79h17.84v42.34H137V183.8zm-.7-11.64c0-2.71 2.87-7.29 9.62-7.29 6.75 0 9.62 4.58 9.62 7.3s-2.87 7.28-9.62 7.28c-2.4 0-4.88-.62-6.82-2.17-1.55-1.24-2.8-3.18-2.8-5.12zM207.97 216.28c-1.94 3.26-6.83 11.48-20.25 11.48-14.89 0-23.34-11.48-23.34-22.57 0-15.04 11.94-23.27 23.96-23.27 12.57 0 17.07 7.06 19.63 11.17l-4.97 3.65c-2.17-2.33-4.57-4.89-9.38-4.89-6.28 0-10.86 5.04-10.86 12.8 0 6.75 3.34 13.34 10.63 13.34 5.2 0 7.83-3.1 9.61-5.28l4.97 3.57zM220.14 171.53h17.84v29.78l13.57-17.45h16.14l-13.8 16.76 11.31 20a33.12 33.12 0 0 0 3.88 5.67h-19.15a28.98 28.98 0 0 1-4.5-5.74 261.9 261.9 0 0 1-7.45-13.19v18.93h-17.84v-54.76z" fill="#00b159"/><path class="st5" d="M363.47 296.55c25.51 0 46.22-20.94 46.22-46.76 0-25.83-20.7-46.77-46.22-46.77s-46.23 20.94-46.23 46.77c-.07 25.82 20.63 46.76 46.23 46.76z" fill="#008643"/><g transform="translate(31.99 69.31) scale(.77557)"><radialGradient id="a" cx="850.89" cy="-703.08" r="253.19" gradientTransform="matrix(.3041 -.1085 .1106 .3101 245.09 524.24)" gradientUnits="userSpaceOnUse"><stop offset=".33" stop-color="#fff"/><stop offset=".6" stop-color="#fff"/><stop offset=".66" stop-color="#fcfcfc"/><stop offset=".7" stop-color="#f3f3f3"/><stop offset=".74" stop-color="#e4e4e4"/><stop offset=".77" stop-color="#cecece"/><stop offset=".8" stop-color="#b1b1b1"/><stop offset=".83" stop-color="#8f8f8f"/><stop offset=".86" stop-color="#676767"/><stop offset=".86" stop-color="#666"/></radialGradient><circle class="st6" cx="416.8" cy="225.9" r="59.9" fill="url(#a)"/><radialGradient id="b" cx="623.65" cy="-421.91" r="92.61" gradientTransform="matrix(.4906 0 0 .495 129.94 425.67)" gradientUnits="userSpaceOnUse"><stop offset=".02" stop-color="#d6de23"/><stop offset=".33" stop-color="#8bc53f"/><stop offset=".43" stop-color="#86c03f"/><stop offset=".55" stop-color="#77b33f"/><stop offset=".68" stop-color="#5e9c3f"/><stop offset=".72" stop-color="#56953f"/><stop offset=".86" stop-color="#2c7f3c"/><stop offset="1" stop-color="#006838"/></radialGradient><path class="st7" d="M442.8 210.7c7.6 0 14.5 1.2 18.4-.1 3.8-1.2 4.4-2.5 4-4-5.5-18.2-21.9-29.4-29.6-26.3-1.9.8-2.3 4.9-2.3 4.9s0 12.5.7 23.3c-1-8.6-4.9-30.1-19.7-30.1-10.6 0-31.8 14-33.1 26.4-1.2 10.6 7.5 10.1 11.5 9.8 4.3-.3 16.4-2.1 31-3.4-16.5 4.8-27.5 10.9-33.7 17.9-7.7 8.6 4.6 32 17.4 33.2 12.8 1.2 22.7-15.1 23.8-15.7-5.6 19.5-14.6 23.8-14.6 23.8 2.8 3.4 6.6 2.2 7.7 1.9 5.9-3.1 8.9-16.6 10.3-27.2.8 6.2 11.9 17 21.3 11 12.1-9.1 13.5-21.1 12.4-28.5-1.5-8.7-10.4-13.2-25.5-16.9z" fill="url(#b)"/></g><g><path class="st3" d="m360.83 225.2-.39-1.63 2.02-2.4.54-1.4 1.63-1.24 1.17.39 8.3 4.65.07 1.94-1.16 3.41-.39.16-.39-.16.08-.15.23-1.24-.07-.39-.08.47-.39 1-.16 1.17-.38 1-.4.16-.3-.31-.16.23 1.17 1.01.93.31.08-.15h.23l.54.54.23-.16v-.38l-.3-.78h.54s1.86 2.33.23 7.83l-.39-.23-.15-.46h-.16l-.23 4.1-.39.4-.46 2.48-.94 1.08v.78l-.54.15-.3-.39-.47.78.46.47-.54.77.39.23v.16l.3.23-.07.47-.7.77-1.24.86-1.7 1.78-1.48 2.25v.54l-.54.7-1.4.77h-.54l.77-1.31v-.7l.55-.54v-1.17l-1.63-.85-1.17-.08-1.16-1.32h-.62l-.39.16-3.25-2.95-.08-.85.39-1.17-.31-.54.46-1.94.7-.77.46-.08 1.01-1 .39.07 1.4-.78 1-1.78.55-.08 1.32-1.4.93-.38 1.08-.78v-.7l-.93-1-.23-.47-.85-.77-1.01-1.79-.08-.39-.23.24-.62-.08-.55-.47v-1.16l-.15-.7-1.16-.77.3-.86-.38-1.7.93-.31.08-.93.15-.47z" fill="#fff"/><path class="st3" fill="#fff" d="m374.02 239.47-.24.39v3.1l-.62 2.1.24-.08.93-1.94.07-3.18zM373.32 245.52h-.54l-.47.93-.85 1.48-.08.46-.08.47.23.07.16-.38.23-.55z"/></g></g><g><path class="st4" d="M90.86 248.16h25.05l-2.1 5.81H97.53l-1.4 4.12h14.81l-1.94 5.5H94.2l-3.03 8.61H82.4l8.46-24.04zM119.16 248.16h8.69l-8.45 24.04h-8.69l8.45-24.04zM132.35 248.16h11.79c5.27 0 8.68.85 10.78 2.48a5.92 5.92 0 0 1 2.4 4.89c0 4.03-3.02 7.13-9.38 8.53l4.8 8.06h-9.61l-4.19-7.29h-3.88l-2.56 7.3h-8.76l8.6-23.97zm9.62 11.48c3.87 0 6.43-1.24 6.43-3.34 0-.62-.23-1.16-.77-1.63-.7-.54-2.02-.85-3.88-.85h-4.73l-2.1 5.74h5.05zM163.45 248.16h25.13l-2.02 5.66h-16.44l-1.32 3.64h14.97l-1.86 5.28h-14.97l-1.32 3.8h16.75l-1.94 5.66h-25.36l8.38-24.04zM192.3 248.16h13.03c8.53 0 11.32 2.71 11.32 5.74 0 3.02-2.63 5.35-7.05 6.12 2.79.78 4.73 2.33 4.73 4.81 0 4.2-4.5 7.3-14.27 7.3h-16.3l8.54-23.97zm8.53 18.61c3.03 0 4.81-1 4.81-2.56 0-1.24-1.32-1.86-3.88-1.86h-5.97l-1.55 4.42h6.6zm2.48-9.07c3.1 0 4.73-.93 4.73-2.4 0-1.1-1.08-1.8-3.8-1.8h-5.42l-1.4 4.2h5.9zM233.8 247.93h8.52l4.9 24.2h-9.16l-.78-4.27h-12.1l-3.8 4.26h-9.46l21.87-24.2zm2.79 14.73-1.09-6.9-5.9 6.9h6.99zM256.75 248.16h8.76l-6.36 18.15h14.97l-2.1 5.81h-23.65l8.38-23.96zM283.27 248.16h8.77l-6.36 18.15h14.97l-2.1 5.81H274.9l8.37-23.96z" fill="#ee3e42"/></g></g></g></svg>