<svg viewBox="29.12 72.62 440.87 219.18" xmlns="http://www.w3.org/2000/svg"><g><path class="st0" d="M29.27 269.28h3.25l-.37 6.87 4.35-6.87h2.73l-.07 6.87 4.06-6.87h3.17l-7.16 11.37h-2.88l.08-6.94-4.43 6.94h-2.88l.15-11.37zM48.46 269.28h3.18l-3.62 11.3h-3.18l3.62-11.3zm1.26-4.06h3.4l-.97 2.81h-3.4l.97-2.8zM52.45 278.59c0-.45.15-.89.3-1.4l1.62-5.1h-1.33l.88-2.73h1.33l.96-2.88h3.18l-.96 2.88h2.66l-.89 2.73h-2.66L56 276.81c-.07.15-.07.37-.07.52 0 .44.22.67.81.67.52 0 1.1-.15 1.62-.37l-.88 2.73c-.67.3-1.48.44-2.36.44-1.85 0-2.74-.96-2.66-2.21zM64.7 265.22h3.18l-1.7 5.25a4.7 4.7 0 0 1 3.17-1.4c2 0 3.25 1.25 3.18 3.24 0 .67-.3 1.4-.52 2.14l-1.92 6.06h-3.17l2-6.2c.06-.3.21-.74.21-1.04.08-.88-.51-1.4-1.47-1.4-1.26 0-2.15.88-2.59 2.21L63 280.43h-3.17l4.87-15.2z" fill="#ee3e42"/><g><path class="st0" d="M81.98 262.64h24.21l-2 5.61H88.4l-1.4 3.91h14.32l-1.85 5.32H85.15l-2.88 8.27h-8.41l8.12-23.11zM109.3 262.64h8.4l-8.11 23.18h-8.42l8.12-23.18zM122.06 262.64h11.45c5.02 0 8.41.89 10.4 2.44a5.74 5.74 0 0 1 2.37 4.72c0 3.84-2.88 6.94-9.08 8.2l4.65 7.82h-9.23l-3.99-7.01h-3.69l-2.43 7.01h-8.42l7.97-23.18zm9.3 11.07c3.77 0 6.2-1.25 6.2-3.17 0-.66-.29-1.1-.8-1.55-.67-.52-1.93-.81-3.7-.81h-4.5l-2 5.53h4.8zM152.1 262.64h24.22l-1.92 5.46h-15.87l-1.25 3.55h14.47l-1.78 5.1H155.5l-1.32 3.68h16.16l-1.92 5.46H144l8.12-23.25zM179.94 262.64h12.55c8.27 0 10.93 2.58 10.93 5.54 0 2.95-2.59 5.1-6.8 5.9 2.66.74 4.58 2.22 4.58 4.65 0 3.99-4.35 7.1-13.73 7.1h-15.65l8.12-23.19zm8.2 18.01c2.87 0 4.65-.96 4.65-2.43 0-1.18-1.26-1.85-3.7-1.85h-5.83l-1.47 4.28h6.34zm2.43-8.78c2.95 0 4.58-.89 4.58-2.36 0-1.04-1.11-1.7-3.62-1.7h-5.24l-1.4 4.06h5.68zM219.95 262.5h8.2l4.72 23.32h-8.78l-.74-4.13h-11.67l-3.61 4.13h-9.16l21.04-23.33zm2.66 14.17-1.1-6.65-5.7 6.65h6.8zM242.1 262.64h8.41l-6.12 17.57h14.47l-2 5.61h-22.88l8.12-23.18zM267.72 262.64h8.41L270 280.21h14.4l-2 5.61h-22.88l8.2-23.18z" fill="#ee3e42"/></g><g><path class="st0" d="M426.88 72.62h-80.7l-96.4 127.27v53.3h97.44v38.61h91.91v-38.6H470v-61.95h-30.86V72.62h-12.25z" fill="#ee3e42"/><path class="st1" d="M426.88 78.75h-77.66l-93.39 123.2v45.11h97.45v38.61H433v-38.6h30.86V197.3H433V78.67l-6.12.08z" fill="#fff100"/><path class="st0" d="M244.9 233.63c-1.47-1.77-1.47-1.85-2.5-3.62l-6.2-11c3.54-4.35 23.76-28.86 23.76-28.86H219v-11.3h-40.82v13.88c-4.21-2.44-9.75-4.28-16.98-4.28-6.2 0-12.55 1.62-18.09 4.87.08-.59.08-1.1.08-1.7 0-9.08-8.05-18.9-21.04-18.9-5.69 0-10.41 1.85-13.96 4.73-.59-.67-1.25-1.26-1.84-1.77-9-8.12-19.79-8.2-25.54-8.2H34.5v84.83H81v-22.52c6.95-.37 12.85-1.4 18.76-4.28.66-.37 1.4-.74 2-1.11v29.01h40.82v-3.47c4.94 3.1 11.07 4.95 18.08 4.95 6.72 0 12.55-1.55 17.57-4.58v3.18h16.4v.44l.36-.44h65.78l-15.88-19.86z" fill="#ee3e42"/><path class="st1" d="M240.1 237.4a23.45 23.45 0 0 1-3.02-4.44l-8.34-14.69c3.32-4.06 18.23-22.14 18.23-22.14h-30.7l-3.4 4.35v-15.65H184.3v22.6c-2.51-4-8.27-13-23.11-13-9.6 0-19.64 4.8-24.73 13.88v-12.26h-.37a11.17 11.17 0 0 0 1.03-4.57c0-6.13-5.68-12.78-14.9-12.78-7.32 0-12.41 4.21-14.26 9.01-1.55-3.4-3.69-5.9-5.6-7.6-7.32-6.57-15.88-6.57-21.49-6.57H40.56v72.56H74.9v-22.29c8.86-.07 15.8-.66 22.15-3.84a22.17 22.17 0 0 0 10.78-10.78v38.1h28.56v-12.4c4.36 7.9 12.7 13.87 24.14 13.87 15.43 0 21.56-9.74 23.7-13.29v11.89h28.57V245l.44.44 1.78 1.85h32.92l-7.82-9.9zM169.98 225c-1.47 1.84-2.36 2.57-4.13 2.57-3.4 0-3.62-4.72-3.62-6.12 0-1.33.3-5.61 3.84-5.61 1.63 0 2.22.51 4.14 2.5l2.73 2.96-2.96 3.7zm12.85 2.2s-6.42-4.65-7.83-5.6c.82-.6 5.98-4.36 9.38-6.87v13.58l-1.55-1.1z" fill="#fff100"/><path class="st0" d="M130.4 201.74h-16.9v39.93h17.42v-39.93h-.51zM112.84 191.55a6.83 6.83 0 0 0 2.73 5.1c2.14 1.76 4.8 2.13 6.57 2.13 6.35 0 9.3-4.28 9.3-7.23 0-2.88-2.95-7.24-9.3-7.24s-9.3 4.36-9.3 7.24zM138.75 221.96c0 10.27 7.67 21.2 21.92 21.2 12.63 0 17.28-7.83 19.05-10.79l.22-.37-.37-.3-4.95-3.53-.29.36c-1.55 1.85-3.84 4.66-8.42 4.66-6.34 0-9.22-5.91-9.22-11.74 0-6.72 3.76-11.22 9.45-11.22 4.2 0 6.27 2.21 8.26 4.35l.3.3 5.31-3.92-.22-.36c-2.29-3.7-6.5-10.49-18.45-10.49-11.3 0-22.6 7.46-22.6 21.85zM206.81 190.44h-16.9v51.3h17.42v-15.86c2.5 4.65 4.28 7.67 5.9 10.33a23.81 23.81 0 0 0 4.21 5.32l.15.14h18.82l-.66-.8a33.5 33.5 0 0 1-3.54-5.17s-9.9-17.5-10.2-18.1c.45-.5 13.15-15.94 13.15-15.94h-16.17s-10.11 13-11.66 15.06v-26.35h-.52zM98.66 184.31c-5.68-5.16-12.7-5.16-17.79-5.16h-34.7v61.42h23.11v-22.3c11.22 0 18.75-.07 25.25-3.32 8.2-3.99 9.96-11.22 9.96-16.54.08-5.9-1.92-10.63-5.83-14.1zM77.7 207.86c-2.3 1.33-5.32 1.48-8.35 1.48v-16.61c4.14.07 6.28.3 8.05.96 3.54 1.33 4.28 4.36 4.28 6.72 0 3.4-1.4 6.05-3.98 7.45zM426.88 84.36h-74.86L261.44 203.8v37.65h97.45v38.61h68.5v-38.6h30.86v-38.54H427.4V84.28h-.51z" fill="#ee3e42"/><path class="st2" d="M367.9 231.27c24.28 0 43.92-19.86 43.92-44.45 0-24.5-19.64-44.44-43.93-44.44-24.28 0-43.92 19.86-43.92 44.44 0 24.59 19.64 44.45 43.92 44.45z" fill="#c3161c"/><g transform="matrix(.73823 0 0 .73823 23.07 67.45)"><radialGradient id="a" cx="-853.09" cy="-279.59" r="268.68" gradientTransform="matrix(.2852 -.1018 .1038 .2909 737.71 137.27)" gradientUnits="userSpaceOnUse"><stop offset=".33" stop-color="#fff"/><stop offset=".6" stop-color="#fff"/><stop offset=".66" stop-color="#fcfcfc"/><stop offset=".7" stop-color="#f3f3f3"/><stop offset=".74" stop-color="#e4e4e4"/><stop offset=".77" stop-color="#cecece"/><stop offset=".8" stop-color="#b1b1b1"/><stop offset=".83" stop-color="#8f8f8f"/><stop offset=".86" stop-color="#676767"/><stop offset=".86" stop-color="#666"/></radialGradient><circle class="st3" cx="456.2" cy="154.7" r="59.7" fill="url(#a)"/><radialGradient id="b" cx="1349.18" cy="-72.22" r="27.14" gradientTransform="matrix(1.6666 0 0 1.6816 -1773.36 267.1)" gradientUnits="userSpaceOnUse"><stop offset=".02" stop-color="#d6de23"/><stop offset=".33" stop-color="#8bc53f"/><stop offset=".43" stop-color="#86c03f"/><stop offset=".55" stop-color="#77b33f"/><stop offset=".68" stop-color="#5e9c3f"/><stop offset=".72" stop-color="#56953f"/><stop offset=".86" stop-color="#2c7f3c"/><stop offset="1" stop-color="#006838"/></radialGradient><path class="st4" d="M482.1 139.5c7.5 0 14.4 1.2 18.4-.1 3.8-1.2 4.4-2.5 3.9-4-5.5-18.1-21.8-29.3-29.5-26.2-1.9.8-2.3 4.9-2.3 4.9s0 12.4.7 23.2c-1-8.6-4.9-30-19.6-30-10.5 0-31.6 13.9-33 26.3-1.2 10.5 7.5 10.1 11.5 9.8 4.3-.3 16.3-2.1 30.9-3.4-16.4 4.8-27.3 10.8-33.6 17.8-7.6 8.6 4.6 31.8 17.3 33.1 12.7 1.2 22.6-15 23.7-15.7-5.6 19.4-14.5 23.7-14.5 23.7 2.8 3.4 6.5 2.2 7.7 1.9 5.8-3.1 8.8-16.5 10.3-27.1.8 6.2 11.8 16.9 21.2 11 12-9.1 13.5-21 12.3-28.4-1.6-8.5-10.4-13.1-25.4-16.8z" fill="url(#b)"/></g><g><path class="st5" d="m364.94 163.35-.37-1.55 1.92-2.29.52-1.33 1.55-1.18 1.1.37 7.83 4.43.07 1.77-1.1 3.25-.37.15-.37-.15.07-.15.22-1.1-.07-.38v.45l-.37.96-.15 1.1-.37.96-.37.15-.3-.3-.14.23 1.03.96.9.3.06-.15h.23l.51.51.22-.15v-.36l-.3-.74h.53s1.77 2.21.22 7.38l-.37-.22-.15-.45h-.15l-.22 3.92-.37.37-.44 2.36-.89 1.03v.74l-.51.15-.3-.37-.44.74.44.44-.52.66.37.23v.14l.3.23-.07.44-.67.74-1.18.8-1.62 1.7-1.4 2.15v.51l-.52.67-1.33.74h-.52l.74-1.26v-.66l.52-.52v-1.1l-1.55-.82-1.11-.07-1.1-1.26h-.6l-.37.15-3.1-2.73-.07-.81.37-1.11-.3-.52.44-1.84.67-.74.44-.08.96-.95.37.07 1.33-.74.96-1.7.51-.07 1.26-1.33.89-.37 1.03-.74v-.66l-.89-.89-.22-.44-.81-.74-.96-1.7-.07-.37-.23.23-.59-.08-.51-.44v-1.1l-.15-.67-1.1-.74.21-.81-.37-1.63.9-.3.06-.88.3-.44z" fill="#fff"/><path class="st5" fill="#fff" d="m377.49 176.86-.22.37-.08 2.95-.59 1.92.3-.07.81-1.85.07-2.95zM376.75 182.54h-.52l-.36.89-.82 1.48-.14.36v.52h.22l.14-.37.15-.51z"/></g></g></g></svg>