<svg xmlns="http://www.w3.org/2000/svg" viewBox="0 0 863.59 274.38"><defs><style>.a{fill:#0076be}.b{fill:#ee3124}.c{fill:#009ada}</style></defs><path class="a" d="M271.44 255.72l4.16-.34.23.32.22.26.22.29.22.26.22.3.15.12.07.16.06.08a3.61 3.61 0 01.54.7 3.22 3.22 0 01.57.68l.22.23.19.3.15.17a1.44 1.44 0 00.13.11l.07.16a.93.93 0 01.28.37 3.08 3.08 0 01.76.98l.22.27c.04.03.06.06.06.08v.02a2.73 2.73 0 01.36.35l.26.33.2.3.16.24.22.29.24.18.16.24.13.21a2.72 2.72 0 01.48.64l.15.18.13.16.15.13.22.32a1.96 1.96 0 01.17.27l.15.13.12.13.04.13.12.05a1.72 1.72 0 00.4.53l.05.14c.04.03.06.06.06.08a2.6 2.6 0 01.42.44q.17.24.3.46v-.37l-.97-12.1q1.94-.16 3.89-.3l1.46 18.63-3.21.25h.08l-1.23.1-.06-.08a.8.8 0 01-.29-.37c-.05-.02-.08-.04-.09-.08l.03-.03a2.86 2.86 0 01-.72-.87c-.04-.03-.06-.06-.06-.08l.02-.03-.22-.26a1.5 1.5 0 01-.46-.56l-.28-.28-.2-.3-.22-.35a3.5 3.5 0 01-.56-.63l-.09-.1a3.58 3.58 0 00-.26-.37l-.24-.3-.04-.07-.12-.13-.5-.66a2.18 2.18 0 01-.16-.2.73.73 0 00-.13-.15c-.04-.03-.06-.06-.06-.08l.02-.03-.11-.05-.23-.31-.06-.11a1.7 1.7 0 01-.26-.35.43.43 0 01-.19-.23l-.2-.18-.2-.3-.13-.24-.09-.02-.76-.95-.07-.16-.12-.2-.16-.12-.12-.15-.07-.14-.26-.23a1.05 1.05 0 01-.17-.2l-.13-.2a1.04 1.04 0 01-.3-.48c-.07 0-.1-.04-.11-.1l-.12-.04-.04-.11-.22-.32-.53-.6 1.03 12.48-3.83.32-.21-2.48-1.36-16.15zM305.02 253.11q6.1-.45 12.2-.87l.25 3.72-8.47.6.27 3.74 7.67-.54.25 3.5-7.66.54.28 3.89a.3.3 0 00.29.15q4.46-.33 8.91-.63l.26 3.71-13.02.93-1.02-13.97-.35-4.75zM332.96 251.24l3.01-.2a5.72 5.72 0 01.8.01v.14l.25.8.08.3a.19.19 0 00.02.08.12.12 0 01.02.06c0 .02 0 .03.03.03l.06.13.1.33.2.78.06.1v.15a1.75 1.75 0 01.25.82l.1.25.01.17a1.74 1.74 0 01.19.42l.1.4.1.22.07.25.08.3a3 3 0 01.19.59l.1.51.13.33a2.3 2.3 0 01.1.33 1.06 1.06 0 01.1.28 2.68 2.68 0 00.05.27l.14.42a2.72 2.72 0 01.11.41 3.4 3.4 0 01.19.54l.13.45a3.34 3.34 0 01.22.77l.07.25.17.47.07.33.24.69.05-.23.04-.17v-.14l.01-.17a9.37 9.37 0 01.17-.88l-.01-.2.02-.14.13-.66-.01-.14.01-.2.02-.17.05-.14v-.11l.08-.37v-.14a3.3 3.3 0 01.05-.51.83.83 0 00.08-.43l.08-.55.06-.44.04-.25.04-.18.2-1.41.01-.26.05-.14.06-.34.04-.28v-.17l.08-.4.14-1 .05-.1.05-.57.04-.15v-.16l.13-.52c0-.15.02-.29.03-.42a1.48 1.48 0 01.06-.34l.01-.31 4.54-.28.08.33.1.36.02.2a6.8 6.8 0 01.31 1.08l.22.69.17.58.04.25.08.33.05.28.07.3.13.25.07.3.04.22.01.14a1.8 1.8 0 01.21.69l.02.07a.06.06 0 01.02.04.03.03 0 00.03.02l.03.09.01.16.14.39.12.55.13.3.07.3v.15l.12.38.04.28a2 2 0 01.21.72l.05.22a1.7 1.7 0 01.2.6l.07.14.05.42.13.39.08.27a2.09 2.09 0 01.25.97l.13-.29-.02-.2.06-.42.1-.28c0-.15.02-.29.03-.4a1.48 1.48 0 01.07-.32l.09-.4v-.28l.06-.08.03-.37.16-.69.04-.33.06-.37.04-.34.09-.35.02-.2.06-.4.23-1.24.04-.29.06-.4.1-.34.04-.31.06-.31.05-.17-.01-.2.04-.2.07-.26.05-.6.09-.4.06-.36v-.11l.05-.15.04-.17v-.14l.06-.37.05-.11-.01-.17a1.63 1.63 0 00.15-.8l4-.23v.14l-.03.31-.12.4-.04.34-.13.7-.02.12a9.2 9.2 0 01-.17.97l-.04.27a1.86 1.86 0 01-.04.2l-.24 1.31-.05.15.01.17-.01.28-.1.4a2.39 2.39 0 00-.06.3l-.04.26-.05.12-.03.37a1.84 1.84 0 00-.05.36 2.4 2.4 0 01-.03.31 1.97 1.97 0 00-.14.52l-.01.2-.05.14-.04.27a2.05 2.05 0 01-.05.21l-.03.31-.02.2-.05.12-.04.31-.16.71-.11.85-.04.37-.1.37-.03.28-.02.23-.1.23-.07.6-.11.62-.05.17a3.44 3.44 0 01-.2.94l.02.19a1.28 1.28 0 00-.08.62l-.05.17-.04.15-.07.4-.03.34-.16.7-.03.35-.15.9-3.75.23a1.16 1.16 0 00-.18.02 1.27 1.27 0 01-.19.02 3.23 3.23 0 01-.78-.03l-.01-.14-.04-.11v-.14l-.07-.14-.15-.58-.32-1.1-.05-.36a3.73 3.73 0 01-.19-.6l-.1-.5-.27-.78-.05-.33-.08-.34-.13-.3v-.2l-.18-.55-.01-.17a4.6 4.6 0 01-.32-1.1l-.13-.3-.02-.25c-.02-.01-.03-.06-.04-.14l-.06-.08-.26-1.05-.04-.19-.22-.8-.1-.36-.07-.22-.02-.2-.06-.2-.1-.32-.01-.14-.14-.39-.13-.33-.02.15-.04.28-.04.23-.01.28-.14.93-.1.35.01.14-.14.82-.04.37-.06.42-.09.37v.4l-.08.42-.08.57a5.68 5.68 0 00-.11.93l-.07.31-.04.26.01.14a.94.94 0 00-.08.48 1.48 1.48 0 00-.06.48l-.1.23-.07.71v.25l-.06.17-.14.91-.1.68-.03.31-.06.37-.12.82-3.78.24a.97.97 0 00-.17.02.96.96 0 01-.17.03 3.11 3.11 0 01-.76-.04l-.08-.39a4.23 4.23 0 01-.32-1.1.91.91 0 01-.11-.35l-.14-.36-.1-.41-.14-.33-.08-.39-.07-.2a1.38 1.38 0 01-.09-.28 1.07 1.07 0 00-.05-.2c-.02-.03-.04-.08-.04-.18l-.07-.19-.28-.82-.01-.2a1.81 1.81 0 01-.25-.86l-.14-.4a2.9 2.9 0 01-.11-.4l-.13-.24-.05-.42a.19.19 0 01-.07-.13l-.29-.97-.13-.36-.01-.16-.13-.46a1.15 1.15 0 01-.06-.18 1.1 1.1 0 01-.06-.13l-.07-.2-.1-.33-.08-.36a2.2 2.2 0 01-.21-.6 33.95 33.95 0 00-.22-.8.33.33 0 01-.04-.14.32.32 0 00-.04-.14l-.13-.24-.04-.22-.07-.28-.07-.25c-.03-.02-.04-.1-.05-.25l-.12-.15-.2-.77a2.16 2.16 0 01-.2-.6 1.78 1.78 0 01-.12-.5 3.6 3.6 0 01-.32-1.03 1.92 1.92 0 01-.2-.52l-.02-.3a3.42 3.42 0 01-.2-.53zM391.35 266.69h.06-.06zM390.99 266.7h.05-.05zM391.97 266.66h.11-.05zM392.08 266.65h.03-.03zM391.24 266.69h.11-.05zM391.19 266.7h.05-.05zM391.72 266.67h.05-.05zM392.11 266.65h.06-.06zM393.82 266.57h.11-.06zM394.07 266.56h.06-.04zM393.93 266.56h.06-.06zM393.99 266.56h.08-.05zM393.8 266.57zM394.27 266.55h.11-.06zM409.15 247.16l-5.02.21-.42.72-.11.15a1.89 1.89 0 01-.1.16 1.36 1.36 0 01-.12.13l-.04.17-.09.08-.1.18-.05.14-.14.15a2.64 2.64 0 00-.18.23l-.1.26a1.75 1.75 0 00-.3.46l-.1.23-.13.09-.16.28-.13.15-.17.2a1.32 1.32 0 01-.34.6l-.47.78-.13.23-.74 1.1-.05.17-.14.06a2.23 2.23 0 00-.18-.26l-.27-.37-.06-.13-.12-.05-.2-.33-.1-.1a.63.63 0 01-.12-.16 2.16 2.16 0 00-.15-.2l-.06-.1a1.65 1.65 0 00-.42-.5l-.03-.1-.18-.25-.2-.22-.1-.19a1.23 1.23 0 00-.44-.46l-.04-.13-.09-.11-.18-.25-.1-.19-.37-.35a.5.5 0 00-.16-.24 2.57 2.57 0 00-.2-.34 2.33 2.33 0 00-.37-.42l-.2-.3-.13-.14-.09-.13-.2-.3-4.78.22h-.22l.88 18.7h.16-.05H391.44h-.03.19-.05.08-.02.11-.06H391.83h-.06.2-.06.31-.05.17-.06.08-.02.14-.06.22l.12-.01h-.06.51l.1-.01h-.05.2-.06l.11-.01h-.05.14-.06H394.33l.1-.01h-.05.2-.06H394.7h-.06.12l-.62-13.42.72.81-.03.03c0 .02.02.05.06.08 0 .02.04.04.12.05a.43.43 0 00.12.17l.03.13.15.17.06.13.15.2a4 4 0 00.21.26l.18.13.27.44.15.16a1.1 1.1 0 00.39.52l.12.19.15.19.2.24.23.33.29.4.22.25a5 5 0 00.22.21l-.03.03c0 .02.02.05.06.08l.24.3.16.3a4.03 4.03 0 00.35.4l.09.09.21.3.18.19.06.16.09.11.15.14.03.16a2.08 2.08 0 01.17.18 2.99 2.99 0 01.22.31 4.51 4.51 0 00.35-.44l.4-.57a2.1 2.1 0 01.13-.25 1.18 1.18 0 00.12-.33 1.55 1.55 0 00.22-.22 2.05 2.05 0 00.2-.33l.06-.14.13-.15.08-.22a3.18 3.18 0 00.3-.4c.1-.14.2-.29.28-.44l.08-.2.21-.25a2.57 2.57 0 00.21-.3l.14-.2.42-.72.92-1.44.19-.32a3.5 3.5 0 00.2-.33l.24-.42a.78.78 0 00.19-.31l.24-.3a2.7 2.7 0 01.05.27 2.47 2.47 0 01.03.3l.52 12.45a.22.22 0 00-.02.15c0 .09.08.15.23.18l3.68-.15-.77-18.83zM393.7 266.57h.1-.06zM394.13 266.56h.05-.05zM394.18 266.55h.09-.03zM393.2 266.6h.06-.06zM392.61 266.63h.09-.06zM392.84 266.62h.06-.06zM392.53 266.63h.08-.02zM392.9 266.61h.11-.06zM393 266.6h.09-.03zM392.47 266.63h.06-.06zM393.09 266.6h.11-.05zM393.6 266.58h.11-.05zM426.38 246.5q6.1-.21 12.21-.4l.12 3.72-8.48.28.13 3.76 7.68-.26.11 3.5-7.67.26.13 3.9a.29.29 0 00.3.15l8.92-.3.12 3.73q-6.53.2-13.04.44l-.5-14-.17-4.77zM454.48 245.69l3.9-.1.1.08.19.36a2.58 2.58 0 00.23.37l.24.3.11.18.15.2a3.63 3.63 0 00.56.88l.06.14.14.2.12.16.06.14.14.1.06.17.06.08.09.11.03.14.15.17.17.3.09.05a2.49 2.49 0 00.64.88l.08-.25.14-.2.13-.31.16-.2.03-.06.51-.88.17-.23.32-.65.11-.14.27-.4.11-.15.03-.2.24-.31.05-.17.09-.17.1-.14.09-.06a4.28 4.28 0 01.35-.65l4.57-.1a3.77 3.77 0 01-.46.8l-.16.34-.38.62-.55.94-.16.28-.2.23-.13.31-.19.26-.08.25-.19.23a8.9 8.9 0 00-.19.31 3 3 0 01-.16.26 1.62 1.62 0 01-.3.48l-.24.51-.06.15-.62 1.05-.11.08-.05.17-.09.06-.08.17-.05.14-.81 1.31a1.11 1.11 0 01.29.5l.17.22.15.14.06.2.06.05a.4.4 0 01.05.08 1.78 1.78 0 01.24.33l.15.3a1.41 1.41 0 01.4.64l.12.06.06.1.03.12a3.67 3.67 0 01.46.69 2.06 2.06 0 01.15.28l.2.24.15.25a2 2 0 00.11.2l.12.08.03.14.2.3.09.08.06.17a1.92 1.92 0 01.37.55l.15.19.12.22.29.39.08.22a1.5 1.5 0 01.24.28 2.23 2.23 0 01.14.27 3.28 3.28 0 01.22.3 3.46 3.46 0 01.19.31 2.04 2.04 0 01.38.64 1.96 1.96 0 01.46.72 1.2 1.2 0 01.32.5l-4.57.1-.08-.14-.06-.22-.11-.03-.15-.36a1.38 1.38 0 01-.38-.6.43.43 0 01-.18-.26.48.48 0 01-.14-.24l-.18-.2-.08-.19-.18-.14-.32-.63a.88.88 0 01-.17-.22l-.28-.35a1.1 1.1 0 01-.19-.29l-.26-.52-.12-.11-.06-.14a.94.94 0 01-.26-.39.16.16 0 01-.06-.1l-.09-.03a1.84 1.84 0 00-.6-.89l-.03.14-.54.86-.38.7-.14.2-.1.18-.08.11-.2.34-.05.12a1.01 1.01 0 01-.12.2.97.97 0 00-.12.2l-.1.14-.06.2-.16.14a1.16 1.16 0 01-.14.3l-.13.22-.11.14-.24.48-.27.43-.05.11-.09.12-.05.14-.05.11a2.38 2.38 0 00-.23.34 2.22 2.22 0 00-.15.32l-3.81.1h-.14l-.6.01.14-.37.08-.2.1-.08.2-.37a15.15 15.15 0 01.43-.69l.32-.62.18-.31.3-.4.03-.2.1-.15.14-.14.08-.2.05-.17.08-.09.54-.9.14-.2.1-.2.27-.55.2-.2.05-.2.13-.17.14-.23.1-.25.14-.23.19-.23.02-.17.11-.06a1.66 1.66 0 01.35-.6l.03-.16.1-.1.09-.13.19-.35a1.17 1.17 0 01.24-.37 2.7 2.7 0 01.43-.74l-.06-.13-.2-.3-.12-.08-.06-.14a1.93 1.93 0 01-.32-.59l-.12-.05-.06-.14-.08-.1-.41-.67a.68.68 0 01-.27-.41l-.11-.11-.06-.14-.36-.48a2.43 2.43 0 01-.23-.4l-.2-.28-.12-.25a.5.5 0 01-.15-.25l-.27-.35a1.37 1.37 0 01-.2-.3l-.14-.2-.21-.38-.14-.14-.12-.2-.15-.21-.03-.14a12.4 12.4 0 00-.12-.2l-.14-.13-.06-.14-.15-.14-.06-.16-.12-.14-.08-.14-.24-.27v-.17q-.08-.03-.08-.05l.02-.03a2.99 2.99 0 01-.29-.37 2.36 2.36 0 01-.18-.32zM485.04 245.02l3.22-.06.3 18.73-3.85.06-.22-12.95-.1-5.77zM521.34 249.98l-.2.14-.85.32-.2.1-.2.07a1.4 1.4 0 01-.61.25l-.26.06-.1.11h-.15l-.08.09h-.15l-.1.11h-.15l-.1.11-.2.03-.54.2q-1.05-3.69-4.37-3.66a5.52 5.52 0 00-.65.04l-.73.1a4.84 4.84 0 00-3.34 5v.17a10.3 10.3 0 00-.07 1.26 5.96 5.96 0 002.04 4.72 4.77 4.77 0 002.7.84 3.24 3.24 0 001.38-.2 4.12 4.12 0 003.04-3.5 1.9 1.9 0 01.76.27l.43.12a2.35 2.35 0 01.41.18l.2.11.31.06.14.05.34.14.2.06.14.1.21.06a1.27 1.27 0 01.22.09l.56.19q-1.94 5.42-7.26 5.94a3.88 3.88 0 01-.46.03h-.47a8.2 8.2 0 01-7.3-3.63 12.4 12.4 0 01-1.81-6.1 10.1 10.1 0 01.2-2.11 13.23 13.23 0 01.62-2.12 8.5 8.5 0 016.94-5.54c.15 0 .29 0 .4-.02s.27-.01.42-.01q6.54-.05 8.69 5.77zM553.48 252.56l.04.63.01.63q-.03 6.56-5.43 9.1a11.36 11.36 0 01-3.87.74 8.28 8.28 0 01-5.78-2.38 10.66 10.66 0 01-2.96-7.29 12.35 12.35 0 01.59-3.67q2.04-5.89 7.86-6.3 8.4.06 9.54 8.54zm-13.74 2.02a5.54 5.54 0 002.9 5.02h.14a1.28 1.28 0 00.2.08l.22.06.1.05.6.14q5.17-.02 5.4-5.28a4.38 4.38 0 00.04-.5v-.46q.01-5.74-5.29-5.98-4.34.84-4.34 6v.44a3.26 3.26 0 00.03.43zM588.71 244.85l3.22.05-.24 15 8.29.14-.07 3.72-12.15-.2.28-18.72zM631.45 253.82l.02.64v.63q-.19 6.55-5.65 8.95a11.43 11.43 0 01-3.9.66 8.29 8.29 0 01-5.71-2.52 10.66 10.66 0 01-2.79-7.36 12.39 12.39 0 01.68-3.66q2.19-5.83 8.02-6.11 8.38.27 9.33 8.77zm-13.8 1.69a5.54 5.54 0 002.78 5.09h.14a1.19 1.19 0 00.2.08l.22.07.1.06.6.15q5.16.1 5.53-5.15a3.99 3.99 0 00.04-.5l.01-.46q.16-5.74-5.13-6.1-4.37.73-4.5 5.89v.43a3.23 3.23 0 00.02.44zM645.3 246.17l14.37.5-.14 3.7-5.33-.2-.53 15.05-3.9-.14.51-15.04-5.3-.18.12-3.7zM672.31 247.17q7.18.29 14.36.62l-.16 3.7-5.33-.24-.66 15.04-3.9-.17.64-15.04-5.3-.22.15-3.7zM701.62 248.53q6.11.3 12.22.64l-.2 3.72-8.48-.45-.2 3.76 7.69.4-.2 3.5-7.66-.4-.2 3.89a.29.29 0 00.27.18l8.92.47-.2 3.72-13.04-.68.7-14 .24-4.76zM731.35 250.13l8.44.52.23.05a1.16 1.16 0 00.19.03l.07-.01a.12.12 0 01.07-.01l.61.15.08.03.15.01.08.06.74.3a5.96 5.96 0 012.81 3.47 8.04 8.04 0 01.2 2.23q-.22 3.47-4.07 4.94l.11.06.18.45a1.7 1.7 0 00.2.36l.12.29a1 1 0 01.12.29l.2.32.21.42.19.4a1.93 1.93 0 01.32.71l.24.38a1.36 1.36 0 01.17.32l.22.52.07.15.08.17.15.18.3.67a4.81 4.81 0 01.23.43l.15.26.05.12.05.14a6.88 6.88 0 01.33.66c.1.2.17.39.24.56l-4.46-.28-.05-.1-.08-.1-.05-.12-.3-.61-.02-.12a.94.94 0 01-.27-.57 1.4 1.4 0 01-.35-.67q-.13-.2-.22-.38a1.83 1.83 0 01-.13-.35l-.13-.17-.15-.32-.07-.2a4.18 4.18 0 00-.25-.35.96.96 0 01-.17-.3l-.17-.38c-.05-.1-.1-.2-.12-.28l-.05-.17a1.57 1.57 0 01-.36-.64l-.1-.15-.01-.17-.11-.06-.1-.31c-.05-.02-.08-.05-.08-.1l.03-.02a3.66 3.66 0 01-.5-.9l-2.48-.15-.44 7.28-3.84-.24 1.11-18.71zm3 8.13l4.75.3.57-.14a2.3 2.3 0 001.45-1.99 1.05 1.05 0 000-.17 1.07 1.07 0 010-.2 2.72 2.72 0 00-1.2-1.7h-.11l-.11-.04-.64-.2q-2.22-.15-4.45-.28zM759.6 252.02l4.17.3.1.14.17.38.42.9.12.31.15.27.07.23.1.09.03.17.05.09a2.68 2.68 0 01.36.8 1.21 1.21 0 01.27.59l.16.2.02.12.15.2.05.18.2.4.07.15.05.15.13.2.05.11.09.3a.2.2 0 01.04.05.2.2 0 00.04.06l.23.52a1.67 1.67 0 00.24.38l.16-.32.76-1.07.13-.25.16-.27.47-.64.22-.29.13-.3.1-.08.03-.1.07-.14a3.58 3.58 0 00.37-.57l.13-.18.16-.19.12-.19.07-.13.15-.19.1-.13.04-.17.13-.13.07-.16.09-.1.57-.87 4.48.33-.5.75-.23.38-.1.13-.12.16-.07.13-.1.14-.06.16-.09.02a2.68 2.68 0 01-.39.68l-.06.08-.57.83-.07.1-.03.11-.6.83-.2.33-.03.08a2.42 2.42 0 00-.25.37.72.72 0 00-.2.35l-.16.24-.47.65-.03.1-.06.08-.07.11-.09.08-.24.42a1.25 1.25 0 01-.27.33l-.1.2-.12.18-.1.24-.18.13-.06.08a4.64 4.64 0 01-.77 1.18l-.06.11a2.45 2.45 0 01-.66 1.02l-.54 7.44-3.86-.28.52-7.43-.3-.57a3.97 3.97 0 01-.2-.45l-.17-.35a7.52 7.52 0 01-.2-.4 2.33 2.33 0 01-.12-.3l-.17-.37a3.71 3.71 0 01-.42-.9l-.17-.38-.18-.3-.2-.34-.01-.2a1.76 1.76 0 01-.25-.52l-.1-.15-.28-.5-.43-1.13-.1-.06-.07-.29a3.06 3.06 0 01-.43-.81l-.13-.15-.07-.23-.12-.24-.05-.2-.12-.2a1.15 1.15 0 01-.17-.46l-.05-.06a.28.28 0 01-.05-.09l-.08-.15-.04-.14a2.1 2.1 0 01-.42-.93 1.52 1.52 0 01-.4-.81z"/><g><path class="b" d="M846.82 42.17l3.02-20.71a623.42 623.42 0 00-185.94.8 47.62 47.62 0 0110.73 19.57 602.55 602.55 0 01172.19.34zM675.79 60.1a40.25 40.25 0 01-10.8 22.18 559.52 559.52 0 01181.32 8.4l4.35-20.47A580.07 580.07 0 00675.79 60.1zM218.2 141.12c5-.88 10-1.7 15-2.56q25.07-4.28 50.14-8.26l-1.63-38.06q-14.48 1.71-28.95 3.54-1.89-45.18-3.76-90.7-18.1.67-36.19 1.5l2.95 73.7 2.43 60.84zM344.28 124.21c32.72-5.07 53.17-30.81 51.47-65.72C394.04 23.43 371.63 0 339.2 0c-33.88.01-53.93 26-52.2 66.71 1.72 40.18 24.26 62.61 57.28 57.5zm-4.2-85.88c9.55-.45 16.21 8.71 16.87 22.98.66 14.1-5.14 23.92-14.55 24.93-9.56 1.02-16.05-7.5-16.71-22.33-.68-15.01 5.11-25.14 14.38-25.58zM418.8 34.26q1.91 38.44 3.83 76.54 18.1-2.18 36.2-4.19L455 33.36q7.4-.14 14.8-.25L475 33l-1.57-29.5-5.13-.08q-35.74-.77-71.47-.88l1.57 32.36q10.21-.35 20.42-.65zM484.01 32.93q7.63-.1 15.27-.17l3.82 69.4q18.1-1.81 36.2-3.45l-3.82-66.1q10 0 19.98.07L553.9 6.1q-35.7-1.54-71.41-2.4l-5.2-.14 1.58 29.42c1.7-.03 3.42-.04 5.14-.06zM617.63 94.48c18.24-1.52 32.65-7.44 41.55-16.5a33.95 33.95 0 009.3-17.17 35.8 35.8 0 00.6-9.73 39.62 39.62 0 00-1.47-8.21 41.9 41.9 0 00-12.24-19.26c-10-9.15-24.86-15.16-42.82-16.46-33.88-2.42-53.93 15-52.2 44.39 1.72 29.02 24.27 45.68 57.28 42.94zm12.67-43.42c.65 9.83-5.14 16.42-14.55 16.75-9.56.34-16.05-5.93-16.71-16.45-.67-10.64 5.12-17.48 14.38-17.25 9.55.23 16.22 7 16.88 16.95zM279.3 153.58q-23.47 4.36-46.9 9.1-11.02 41.84-22.03 81.82 18.3-2.24 36.62-4.25l2.22-12.46q11.11-1.36 22.23-2.62 1.86 6.04 3.7 12.14 17-1.7 34.03-3.18l2.98-.27-3.58-9q-14.64-36.83-29.26-71.28zm-24.04 36.22l.96-7.59.76-8.18 1.68 7.65 1.65 7.32q2.51 8.1 5.02 16.31-6.35.88-12.7 1.79l2.63-17.3zM383.49 136.15q-4.35 23.03-8.7 45.7-7.24-21.4-14.48-42.15-23.9 3.75-47.76 7.9 2.36 37.44 4.72 75.27l.66 10.5 2.98-.25q15.36-1.28 30.74-2.4l-2.07-34.19c-.32-5.33-.56-9.32-.88-12.1-.17-.51-.48-3.16-1.2-7.75-.22-1.31-.49-3.29-.79-5.79l1.8 5.66 2.36 7.62 3.78 11.83q6.03 16.62 12.06 33.67 11.08-.75 22.17-1.4 3.53-18.05 7.06-36.31l2.24-11.59q.48-3 1.26-8.56l1.02-7.58c-.05 9.3-.15 12.7-.06 16.63.06 3.65.15 7.72.4 12.2l2 34.4q17.1-.93 34.21-1.66-2.7-48.44-5.4-96.4-24.07 3.17-48.12 6.75zM484.55 196.23l-.55-10.44q14.58-.87 29.17-1.59l-1.34-25.57q-14.59 1.04-29.17 2.23l-.52-9.66q15.96-1.44 31.93-2.7l-1.5-28.64q-33.67 3.49-67.33 7.77 2.7 48.57 5.4 97.62 34.1-1.3 68.2-1.78l-1.49-28.7q-16.4.64-32.8 1.46zM602.29 178.5c4.78-3.27 6.3-4.82 8.88-8.58a36.84 36.84 0 006.46-22.83c-.55-11.5-6.91-22.85-15.9-28.08-8.38-4.77-15.72-5.86-31.54-4.55q-22.57 1.89-45.14 4.13 2.7 52.13 5.4 104.74 17.78-.18 35.56-.15l-1.7-33.91 5.96-.15q8.03 16.85 16.06 34.18 18.87.17 37.74.6l2.74.05-3-5.66q-10.76-20.25-21.52-39.78zm-36.36-35.57c4.93-.31 6.4-.24 8.48.79 2.69 1.3 4.58 4.33 4.77 8.1.2 3.93-1.65 7.8-4.5 9.06-1.41.88-5.03 1.37-8.94 1.55l-2.76.13-.97-19.39 3.92-.24zM627.5 110.23q2.5 52.62 5 105.67l.4 8.2 2.71.08q16.85.44 33.69 1.08-2.7-58.8-5.4-117.12-18.2.93-36.4 2.1zM755.26 178.14c-5.94 9.73-12.4 13.91-20.5 13.63-11-.41-18.83-10.46-19.46-24.64-.63-14.36 6.48-23.87 17.91-23.9 7.53 0 14.19 3.33 21.02 10.92l-1.86-43.2c-9.97-6.19-18.91-8.5-28.9-8.17-29.25 1.17-47.97 27.25-46.29 63.84 1.68 36.45 22.26 62.66 50.64 64.59 8.59.52 19.28-1.82 25.86-5.44.3-.16.59-.32.87-.49.55-.52 1.54-1.02 2.66-1.89l-.61-14.08-1.34-31.17zM830.84 104.45q-23.44-.17-46.93.05-9.23 53.36-18.47 105.4l-3.62 20.38c.27.01.53.04.8.06q17.97 1.27 35.91 2.76l2.22-19.33q11.12.79 22.24 1.66l3.7 20.16q18.47 1.73 36.9 3.7-16.36-68.96-32.75-134.84zm-20.63 38.44l1.65 12.11 5.02 27.34q-6.35-.35-12.7-.67l2.63-26.84.95-11.81.77-12.8 1.68 12.67z"/><g><path class="a" d="M691.56 52.66l.14 1.83q-3.31.3-6.62.63l-.16-1.8 1.73-.18-.8-1.76-3.51.4-.55 1.9 1.8-.2.16 1.78q-2.97.31-5.95.66l-.18-1.76 1.67-.2 1.97-7.28-1.81.24-.17-1.77q4.46-.63 8.93-1.18l.15 1.82-1.84.22q1.73 3.38 3.42 6.8zm-6.4-2.78l-1.41-3.07-.94 3.34 2.35-.27zM692.23 54.44l-.14-1.83 1.93-.18-.5-7.22-1.96.21-.13-1.83q3.76-.44 7.53-.81l.1 1.87-1.99.2.46 7.3q2-.17 4-.31l-.2-3.45 2.64-.2.28 5.35q-6.01.38-12.02.9zM705.02 53.49l-.1-1.9 1.93-.12-.34-7.48-1.96.16-.09-1.9q3.77-.33 7.54-.61l.07 1.93-2 .15.3 7.54 3.98-.2-.11-3.55q1.32-.08 2.65-.14l.15 5.53q-6 .22-12.02.59zM723.15 52.71l-.06-4 2.3-.08a2.09 2.09 0 00.68 1.61 2.12 2.12 0 001.42.5 1.53 1.53 0 001.04-.4 1.19 1.19 0 00.43-.9 1.17 1.17 0 00-.43-.92 5.84 5.84 0 00-1.53-.8 12.45 12.45 0 01-3.22-1.64 2.53 2.53 0 01-.88-2 2.92 2.92 0 011.09-2.45 4.26 4.26 0 012.54-.97 2.94 2.94 0 012.54 1v-1l2.32-.08v3.65l-2.3.07a1.86 1.86 0 00-.67-1.28 1.9 1.9 0 00-1.3-.41 1.72 1.72 0 00-.96.3.83.83 0 00-.39.7.96.96 0 00.34.69 6.7 6.7 0 001.9.87 15.42 15.42 0 012.31 1 3.5 3.5 0 011.28 1.21 3.26 3.26 0 01.47 1.76 3.21 3.21 0 01-1.16 2.69 4.42 4.42 0 01-2.74.93 3.36 3.36 0 01-2.74-1.11l.01 1-2.29.06zM735.64 52.56v-2.04h2.03l.08-8.07-2.05.04-.02 2.83-2.34.04.02-4.85q6.22-.2 12.44-.24l-.13 5h-2.3l.06-2.88-2.12.01-.13 8.14 2.02.02-.03 2.08q-3.77-.07-7.53-.08zM759.41 51l-.1 2.16q-3.29-.16-6.59-.28l.08-2.13 1.72.06-.56-2.2-3.5-.08-.79 2.13 1.8.05-.07 2.12q-2.96-.1-5.93-.16l.04-2.1 1.67.04q1.42-4.1 2.88-8.24h-1.82l.07-2.11q4.47-.01 8.95.06l-.1 2.15-1.84-.03q1.26 4.22 2.48 8.5l1.61.06zm-5.93-4.25l-1-3.82-1.35 3.77 2.35.05zM773.84 51.85l-.16 2.23-4.07-.3q-1.32-2.96-2.68-5.89l-1.54-.07-.2 3.48 1.68.1-.14 2.19q-3.49-.23-6.99-.4l.1-2.16 1.85.09.44-8.51-1.88-.06.11-2.16q4.13.09 8.26.25a4.22 4.22 0 013.29 1.27 3.63 3.63 0 01.84 2.6 3.48 3.48 0 01-2.57 3.13q.97 2.04 1.92 4.1zm-8.33-6.1l1.2.05c1.5.07 2.28-.4 2.35-1.43a1.3 1.3 0 00-.44-1.16 2.33 2.33 0 00-1.4-.43l-1.54-.06-.17 3.02zM779.2 54.55l.18-2.25q.83.06 1.65.14l.75-8.86-1.67-.11.19-2.26q3.11.2 6.23.43a14.03 14.03 0 013.06.47 3.03 3.03 0 011.62 1.32 3.37 3.37 0 01.51 2.23 2.9 2.9 0 01-2.18 2.63 3.28 3.28 0 012.08 3.5 3.65 3.65 0 01-3.02 3.34 12.55 12.55 0 01-3.32 0q-3.04-.31-6.08-.59zm5.3-1.8l.99.1a3.3 3.3 0 001.9-.2 1.6 1.6 0 00.66-1.32 1.68 1.68 0 00-.44-1.5 3.18 3.18 0 00-1.79-.58l-.99-.09-.32 3.6zm.54-5.87l1 .09a2.65 2.65 0 001.54-.22 1.44 1.44 0 00.6-1.2 1.29 1.29 0 00-.35-1.18 3 3 0 00-1.63-.46l-.88-.07-.28 3.04zM802.24 42.83a7.2 7.2 0 11-1.7 14.29 7.14 7.14 0 01-6.62-7.98 6.98 6.98 0 012.54-4.8 7.45 7.45 0 015.78-1.51zm-.3 2.54a3.48 3.48 0 00-2.78.9 5.08 5.08 0 00-1.48 3.38 4.87 4.87 0 00.7 3.39 3.41 3.41 0 002.47 1.55 3.35 3.35 0 002.75-.87 5.1 5.1 0 001.5-3.35 5.07 5.07 0 00-.62-3.43 3.29 3.29 0 00-2.54-1.57zM809.41 58.22l.32-2.39 1.77.27 1.28-9.38-1.8-.24.32-2.39q2.85.36 5.7.75 1.85 4.79 3.62 9.67l.99-6.54-1.76-.26.37-2.43 6.06.9-.39 2.45-1.88-.3-1.88 12.11-2.93-.52q-2.04-5.81-4.2-11.5l-1.13 8.04 1.67.27-.35 2.4q-2.89-.47-5.78-.91zM826.52 48.74l.39-2.46q3.22.5 6.44 1.05l-.42 2.48-1.32-.22-1.11 6.61a12.88 12.88 0 00-.22 1.93 1.67 1.67 0 00.36 1.06 1.63 1.63 0 001.02.6 1.73 1.73 0 001.18-.15 1.57 1.57 0 00.72-.78 11.82 11.82 0 00.51-2.18l1.12-6.47-1.3-.23.43-2.48q2.69.46 5.36.95l-.45 2.5-1.64-.3-1.3 7.4a12.06 12.06 0 01-.54 2.17 3.38 3.38 0 01-.89 1.22 3.52 3.52 0 01-1.66.79 5.64 5.64 0 01-2.29-.03 6.39 6.39 0 01-2.4-.95 3.69 3.69 0 01-1.33-1.5 4.28 4.28 0 01-.4-1.61 15.48 15.48 0 01.27-2.56L828.1 49l-1.6-.26zM838.22 63.52l.91-5.05 2.24.46a3.21 3.21 0 00.26 2.19 1.94 1.94 0 001.25.96 1.29 1.29 0 001.1-.25 1.65 1.65 0 00.64-1.04 1.77 1.77 0 00-.19-1.24 5.93 5.93 0 00-1.28-1.39 12.51 12.51 0 01-2.71-2.84 3.9 3.9 0 01-.36-2.73 4.05 4.05 0 011.65-2.8 3.53 3.53 0 012.7-.6 2.82 2.82 0 012.21 1.87l.25-1.24 2.26.45-.9 4.58-2.24-.47a2.77 2.77 0 00-.34-1.76 1.73 1.73 0 00-1.15-.83 1.41 1.41 0 00-1 .14 1.1 1.1 0 00-.55.8 1.48 1.48 0 00.15.93 6.6 6.6 0 001.63 1.55 14.81 14.81 0 012 1.81 4.36 4.36 0 01.93 1.83 5.26 5.26 0 01.02 2.32 4.5 4.5 0 01-1.79 3.1 3.63 3.63 0 01-2.87.5 3.19 3.19 0 01-2.37-2.03l-.24 1.27-2.21-.49z"/></g><path class="a" d="M230.65 154.06l1.95-.4c.27-2.63.48-5.29.57-7.98q-6.9 1.18-13.76 2.38a7.05 7.05 0 01-8.26-6.66l-.28-6.98c-7.65 21.57-26.32 39.3-50.73 48.87l14.91 45.92-52.73-38.31c-1.23.04-2.45.08-3.7.08-2.5 0-4.97-.1-7.43-.26l-52.98 38.5 15.4-47.39c-28.29-12.27-48.15-35.75-50.73-63.18l-.77-.56h.72a64.7 64.7 0 01-.26-5.52c0-43.3 43-78.4 96.06-78.4 41.51 0 76.87 21.5 90.29 51.6l-.65-16.12a116.65 116.65 0 102.07 141.47c4.52-16.69 9.05-33.62 13.54-50.67a8.81 8.81 0 016.77-6.4z"/><g><path class="c" d="M111.2 190.72c2.46.15 4.93.25 7.43.25 1.24 0 2.47-.04 3.7-.07l-5.69-4.14zM210.24 118.75l-57.5 41.78 7.4 22.76c24.41-9.56 43.08-27.3 50.74-48.86l-.64-15.68zM73.61 181.83l6.92-21.3-57.65-41.88c2.59 27.43 22.44 50.9 50.73 63.18zM208.92 85.77c-13.42-30.1-48.78-51.6-90.3-51.6-53.05 0-96.05 35.1-96.05 78.4 0 1.85.1 3.7.26 5.52h71.5l22.3-68.68 22.32 68.67h71.27l-1.3-32.31zm-38.09-15.52c-16.74-13.36-37.72-16.47-37.93-16.5l1.95-13.96c1 .14 24.92 3.6 44.77 19.44z"/></g><path d="M132.9 53.75c.21.03 21.19 3.14 37.93 16.5l8.8-11.02c-19.86-15.84-43.77-19.3-44.78-19.44z" fill="#7dcef1"/><path fill="#fff" d="M116.59 49.4l22.31 68.69h72.22l-58.42 42.45L175 229.22l-58.42-42.45-58.43 42.45 22.32-68.68-58.43-42.45h72.22l22.32-68.69z"/></g></svg>