<svg xmlns="http://www.w3.org/2000/svg" width="267.91" height="125.58" viewBox="167.84 214.5 267.91 125.58"><defs><clipPath id="d"><path d="M0 0h612v792H0z" class="k"/></clipPath><clipPath id="e"><path d="M122.56 76.17a30.4 30.4 0 1 0 60.82 0 30.4 30.4 0 0 0-60.81 0" class="k"/></clipPath><clipPath id="g"><path d="M0 0h612v792H0z" class="k"/></clipPath><radialGradient id="f" cx="0" cy="792" r="1" gradientTransform="translate(145.472 -18668.555) scale(23.656)" gradientUnits="userSpaceOnUse"><stop offset="0" stop-color="#fff"/><stop offset=".07" stop-color="#fffdf4"/><stop offset=".2" stop-color="#fff8d9"/><stop offset=".37" stop-color="#fff0ad"/><stop offset=".56" stop-color="#ffe570"/><stop offset=".79" stop-color="#ffd723"/><stop offset=".88" stop-color="#ffd100"/><stop offset="1" stop-color="#ffd100"/></radialGradient><style>.h{fill:#ffd100}.i{fill:#7b8689}.k{fill:none}.l{fill:#e31f26}.q{fill:#2c2b7c}</style></defs><g id="c"><g style="clip-path:url(#d)" transform="matrix(1, 0, 0, 1, 0.4187289836813477, 15.911524056069908) matrix(1, 0, 0, 1, 0, -2.842170943040401e-14) matrix(0.9999999999999999, 0, 0, 0.9999999999999999, 84.07364016881046, 164.99453981212582)"><path d="M135 139.18a183.22 183.22 0 0 1-11.97-4.43c6.44 4.06 14.62 7.7 23.33 10.28a86.58 86.58 0 0 0 15.27 3.3l.36-2.51a163.2 163.2 0 0 1-26.99-6.65" class="h"/><path d="m268.96 92.83 9.66.01v-2.13l-9.67-.01.01 2.13zm11.79-2.12-.02 3.43 1.52-.02v4.18a24.12 24.12 0 0 0 4.34 7.34 18.02 18.02 0 0 0 14.9 6.33c4.76-.3 9.36-2.75 12.82-6.73a18.05 18.05 0 0 1-11.85 4.63 18.02 18.02 0 0 1-13.75-6.36c-4.25-4.86-6.5-11.84-6.5-20.2 0-8.6 2.27-15.82 6.43-20.67l-.35.3c-3.85 3.46-6.43 8.64-7.56 14.96l.02 12.81Zm27.63-13.49c-.77-2.12-2.21-3.4-3.95-3.5a4.31 4.31 0 0 0-3.28 1.26c-.41.38-.78.85-1.12 1.39.7-.39 1.46-.56 2.28-.52 1.36.08 2.53.9 3.35 2.26l5.78.19 7.96-3.73-.2-1.25-.08-.23-10.4 5.07-.34-.94ZM190.95 134.2c.1-.6.24-1.2.4-1.8l3.37-11.7-1.54.1-3.16 10.97.93 2.44Z" class="i"/><path d="m300.29 80.13-.12 12.08c.2.27.4.5.62.72.36.36.74.64 1.15.85h3.56a4.4 4.4 0 0 0 2.14-2.14l-5.36.01.11-11.45-2.1-.07Zm-50.09 32.06-1.67.1.02 2 31.58-1.85v-2l-29.45 1.73-.79-58.25-2.16-.22.63 46.57 1.84 11.92zm18.64-39.1 10.85.64v-2.26l-10.86-.63.01 2.25zm79.43 45.15.01-.01c-.9-.74-1.68-1.06-2.47-1-.16.01-.4.06-.45.27l.25.06 1.43.3c.4.1.82.22 1.23.38m-4.89 7.71s.7-.1.72-.55v-.01a3.76 3.76 0 0 0-.31-.05l-1.32-.18c-.8-.1-1.61-.36-2.34-.8l.34.32c1.03.94 2 1.37 2.9 1.27m-4.26-2.4c-.96-.99-1.59-2.46-1.53-4.51.07-2.24.76-4.1 1.8-5.55-.86.6-1.65 1.4-2.28 2.34l-.46 15.24 2.47-7.52ZM320.8 95.62l-3.62 14.65 13.43-.79.35-2.02-11.65.68 11.34-45.85-1.56-.16-6.95 28.12c-.3 1.84-.7 3.63-1.33 5.37m18.98 5.92-6.09.24-.36 2.06 4.32-.17.76 5.36 11.78-.7-.37-1.98-9.28.55-.76-5.36zm-10.59 18.14a14.2 14.2 0 0 1 0-1.13l.14-5.44-2.07.11-.06 2.23 1.98 4.23Zm-110.95-5.61-12.11.7-9.23-28.2c-.33-1.22-.64-2.39-.91-3.54-.04 1.01-.08 2.02-.14 3.01l-.28 5.07 8.43 25.8 13.7-.8.54-2.04Zm85.96 24.51c-.64.09-1.27.13-1.89.13-2.83 0-5.4-.9-7.35-2.62-2.47-2.17-3.77-5.44-3.74-9.43a15.15 15.15 0 0 1 3.27-9.45 14.32 14.32 0 0 0-4.5 6.41l-.05 10.3c.63 1.7 1.6 3.16 2.9 4.3a10.95 10.95 0 0 0 7.34 2.62 13.74 13.74 0 0 0 10.83-5.14 13.85 13.85 0 0 1-6.8 2.88m-56.46-26.24-17.17 1-2.98-29.3-.29 1.17-1.4 5.36 2.54 24.9 19.6-1.15-.3-1.98Zm11.93 31.83-.32-27.11-2.15.12.2 16.74 1.19-.13.15 10.51-1.22.16.02 1.84 19.13-2.56v-1.84l-17 2.27zm69.48-9.31-3.94-7.86v.44l-.14 5.66 1.95 3.89 7.38-1 .06-1.84-5.31.71Zm14.68-1.64a11.78 11.78 0 0 1-6.74-1.18l-.5-.26-.06 2.09-1.7.23.13.07a11.8 11.8 0 0 0 6.74 1.18 9.02 9.02 0 0 0 6.06-3.7 8.94 8.94 0 0 1-3.93 1.57m-106.43 13.94-.71-28.82-2.17.12.75 30.83 21.34-2.86-.03-1.84-19.18 2.57zm79.31-10.63.45-22.74-2.09.12-.08 4.12a13.6 13.6 0 0 1 1.37 6.41 15.3 15.3 0 0 1-1.63 6.66l-.15 7.56 8.3-1.12.05-1.85-6.22.84Zm-37.2 4.98-.02-25.59-2.13.12.01 15.7 1.42-.16.01 10.03-1.42.19v1.84l10.39-1.39.01-1.84-8.27 1.1zm-87.33-25.92-23.66 1.39 8.04-70.66-2.4-.2-8.3 72.98 26.2-1.5.12-2.01zm-29.43 41.58 4.91-34.93-2.38-.02-5.19 36.95 17.51-2.15.12-1.86-14.97 2.01zm49.36-77.5c.22-1.82.48-3.63.87-5.37l5.48-23.64-1.6-.16-5.83 25.17 1.08 4Zm8.13 69.79-1.03-30.13-2.2.12 1.1 32.14 13.69-1.83-.05-1.84-11.51 1.54zm-16.66 2.23-2.12-13.98-1.67 5.15 1.66 10.96 14.37-1.92-.42-1.79-11.82 1.58zm-16.46 2.21-6.3-13.81-.1-.27-.4 5.98 4.67 10.23 9.5-1.28.63-1.93-8 1.08Z" class="i"/><path d="m177.63 44.98 24.92 2.59 9.56 35.5h.55c.3-2.83.6-5.83 1.22-8.57l5.83-25.16 20.24 2.1 9.2 59.91-17.75 1.05-3.43-33.61-.36-.01c-.31 2.06-.62 4.21-1.16 6.2l-7.31 28.13-12.36.73-9.01-27.56a49.99 49.99 0 0 1-1.76-8.43l-.76-.02c-.07 2.7-.13 5.47-.29 8.16l-1.6 28.63-23.8 1.4 8.07-71.04Zm73.14 7.59 30.14 3.12.01 14.96-13-.77.03 5.39 11.88.51.02 14.03-11.81-.01.04 5.44 13.27-.2.01 14.42-29.79 1.75-.8-58.64zm71.18 27.03c-.22 7.69-.33 14.1-4.14 20.14-3.5 5.6-8.93 8.88-14.24 9.2a17.1 17.1 0 0 1-14.18-6.02c-3.85-4.4-6.28-11.06-6.28-19.6 0-17.57 9.47-27.27 21.06-26.03 6.05.64 13.93 5.69 16.3 14.15l-11.25 5.47c-.92-2.55-2.7-3.96-4.73-4.08-4.65-.26-7.3 5.33-7.35 11.52-.04 5.6 2.43 10.82 6.62 10.75a5.36 5.36 0 0 0 5.11-4.36l-5.68.01.12-11.82 18.64.67Zm13.08 10.67 2.2-13.64.37.02c.14 1.91.27 3.88.52 5.78l.98 7.84h-4.07Zm-2.1 10.64 7.63-.3.76 5.34 9.94-.58-8.01-43.22-11.35-1.17-11.42 46.2 11.5-.68.95-5.6Z" class="l"/><path d="m220.09 118.17 12.12-.68.81 29.35-11.9 1.59-1.03-30.26zm17.5-.99 11.08-.62.35 19.19 8.71-.96.12 8.72-19.56 2.63-.7-28.96zm22.67-1.28 9.8-.55.11 18.08 7.74-.85.01 8.24-17.34 2.33-.32-27.25zm20.14-1.14 8.73-.49-.1 25.06-8.6 1.16-.03-25.73zm37.7-2.13 6.62-.37 5.58 11.88.19-.02c-.22-1.8-.45-3.67-.4-5.54l.18-6.64 6.06-.34-.65 21.48-6 .8-5.46-10.91-.2.02c.18 1.52.34 2.95.3 4.43l-.16 7.2-6.51.88.46-22.87Zm21.46 12.43.3.28c1.03.94 2.27 1.65 3.62 1.5.56-.06 1.48-.47 1.52-1.4.03-.93-.73-.93-1.25-1.02l-1.16-.15c-2.3-.3-4.21-1.87-4.1-5.2.15-5.1 3.82-8.14 7.32-8.34 1.8-.1 3.41.4 4.87 1.53l-1.7 5.38c-.94-.8-2-1.4-3.24-1.3-.5.03-1.26.34-1.3 1.2-.01.78.7.83 1.14.93l1.27.28c2.37.5 4.01 2.02 3.88 5.47-.19 4.82-3.6 7.65-7 8.1a10.9 10.9 0 0 1-6.2-1.08l2.03-6.18Zm-170.81-3.99 15.88-.9 6.45 16.9.37-.03c.19-1.44.37-2.98.77-4.4l3.77-13.11 13.88-.78 7 30.26-12.51 1.67-2.58-16.97-.25.02c-.2 1.08-.4 2.2-.76 3.25l-4.81 14.83-8.28 1.11-6.01-13.2a18.26 18.26 0 0 1-1.17-4.06l-.5.05a94.73 94.73 0 0 1-.15 4.06l-.95 14.33-15.07 2.02 4.92-35.05Zm135.65-8.05c-6.58.36-12.23 5.8-12.28 13.64-.04 7.94 5.45 11.91 11.97 11.03 6.27-.85 11.25-5.9 11.4-13.27.13-7.26-4.77-11.75-11.09-11.4" class="q"/><path d="m303.47 122.82 1.89-6.46 2.11 6.14 5.38-.44-4.15 4.01 1.85 5.56-4.79-2.8-5.62 5.36 2.13-7.28-6.21-3.56 7.41-.53z" style="fill:#fff"/></g><g style="clip-path:url(#e)" transform="matrix(1, 0, 0, 1, 0.4187289836813477, 15.911524056069908) matrix(1, 0, 0, 1, 0, -2.842170943040401e-14) matrix(0.9999999999999999, 0, 0, 0.9999999999999999, 84.07364016881046, 164.99453981212582)"><path d="M122.56 45.76h60.81v60.81h-60.81z" style="fill:url(#f)"/></g><g style="clip-path:url(#g)" transform="matrix(1, 0, 0, 1, 0.4187289836813477, 15.911524056069908) matrix(1, 0, 0, 1, 0, -2.842170943040401e-14) matrix(0.9999999999999999, 0, 0, 0.9999999999999999, 84.07364016881046, 164.99453981212582)"><path d="M152.17 112.4c-3.17.13-6.27-.03-9.24-.45a28.55 28.55 0 0 0 18.52 3.9 25.03 25.03 0 0 0 11.38-3.96l.65-.46.27-.2a28.87 28.87 0 0 0 10.5-12.73l.06-.16.22-.5c.38-.93.71-1.88.98-2.84-5.82 9.7-18.43 16.74-33.34 17.4" class="h"/><path d="m176.72 75.67.52-5.62-3.07 3.88-4.21-3.03 1.64-5.4 4.58.97-3.56-4.3 1.51-4.83-3.8 2.07-4.14-4.99 1.44 6.54-4.37 2.35-3.47-5.74 3.6-4.57-6.16.33-4.16-7-.05 7.22-8.14.43 8.2 4.34-.09 7.38-8.42-.03-4.1-8.49-2.4 8.44-12.06-.14 10.53 5.5-2.72 9.51 8.63-6.54 7.77 4.12-3.54 7.97-10.61.45 8.05 5.25-4.38 9.66 8.69-6.85 6.45 4.2-1.72-8.04 6.32-4.94 4.02 5.2-3.74 7.45 6.2-4.24 3.55 4.67-.3-6.89 4.77-3.27-5.02-1.07-.26-6.55 4.86-1.21 2.29 5.36.55-6.06 3.92-.94-3.6-2.55ZM168.58 81l-3 5.86-6.1-1.28-7.33.23-1.69-7.78-3.5-7.43 6.16-4.76 4.26-5.2 5.8 3.04 5.29 1.19 1.35 6.1 2.3 5.51-3.54 4.52Z" class="q"/><path d="M97.98 58.04c-2.75 6.98-1.33 23.73 4.94 35.31a93.41 93.41 0 0 0 8.37 13.9c-8.25-8.66-17.59-22.56-21.32-39.97 3.97-5.75 5.48-6.75 8-9.24" class="l"/><path d="M140.56 43.65c1.5-.61 2.5-.87 4.1-1.27-3.59-2.02-30.8-16.46-50.82-2.89-16.91 11.46-8.74 35.23-6.94 39.86 4.93 13.43 14.76 27.08 27.68 38.42 12.54 11 27.34 17.77 40.94 21.08l.15-.4c-8.35-4-15.92-10.66-23.42-17.24-22.02-19.32-33.93-45.06-28.95-62.03a102.8 102.8 0 0 1 15.54 9.54c.24-1.04.52-2.07.86-3.08a104.44 104.44 0 0 0-16.64-9.9l-1.48-.7-.57 1.53c-3.24 8.8-2.12 20.3 3.15 32.39 5.28 12.1 14.55 24.36 26.12 34.5 3.32 2.92 6.75 5.6 10.26 8.05a106.22 106.22 0 0 1-23.98-16C104 104.5 94.47 91.3 89.7 78.3c-1.67-4.28-9.22-26.14 5.8-36.32 5.62-3.8 11.97-5.16 18.17-5.16 11.19 0 21.89 4.43 26.88 6.84" class="h"/><path d="M135.88 45.9c-6.27-2.46-15.85-6-22.11-6-6.45 0-12.05 1.59-16.66 4.7-.32.22-.65.46-1.04.77l-.27.22-.04.04c-.22.17-.44.36-.66.57l-.12.1-.2.18c-.24.24-.49.48-.72.74l-.41.46-.02.03c-.11.13-.23.26-.33.4l-.44.56-.1.13-.05.08c-3.08 4.34-3.8 9.75-3.5 14.82a27.17 27.17 0 0 1 2.44-3.24c2.48-2.82 5.97-6.58 9.5-8.25l2.38 1.12.77.36a200.33 200.33 0 0 1 16.46 9.11 35.48 35.48 0 0 1 15.12-16.9" class="h"/><path d="M115.89 73.82a35.24 35.24 0 0 1 11.34-25.93 29.66 29.66 0 0 0 0 51.87 35.24 35.24 0 0 1-11.34-25.94" class="l"/><path d="m214.51 44.07-3.23-.34-3.3-7.09h-.06c.07 1.06.11 1.88.1 2.44l-.01 4.3-2.19-.23.05-9.56 3.22.34 3.29 7h.04c-.06-.96-.08-1.74-.08-2.33l.02-4.32 2.2.23-.05 9.56Zm6.95.74-5.42-.57.04-9.57 5.42.58-.01 2.07-2.95-.31-.01 1.5 2.74.29-.01 2.07-2.74-.28-.01 1.8 2.96.31-.01 2.11zm11.01 1.16-2.92-.3-.85-4.27a22.98 22.98 0 0 1-.39-2.38c-.03.28-.09.63-.16 1.04l-.23 1.14-.93 4.2-2.91-.32-2.22-9.8 2.38.26.97 4.9c.22 1.08.37 1.94.45 2.58a33.28 33.28 0 0 1 .7-3.64l.82-3.53 2.28.24.77 3.7a44.98 44.98 0 0 1 .66 3.78c.06-.48.21-1.3.46-2.47l1.03-4.7 2.38.25-2.3 9.32Zm9.83 1.04-1.84-7.08h-.05c.08 1.17.12 2.09.12 2.74l-.02 4.15-2.19-.23.05-9.56 3.28.35 1.87 6.99h.05l1.9-6.59 3.3.35-.05 9.56-2.27-.24.02-4.2a34.02 34.02 0 0 1 .1-2.66h-.05l-1.87 6.67-2.35-.25Zm13.35 1.41-5.41-.57.04-9.56 5.42.57-.01 2.08-2.95-.32-.01 1.51 2.73.29-.01 2.07-2.73-.29-.01 1.81 2.95.31-.01 2.1zm9.38 1-2.85-.31-1.77-3.17-1.78 2.8-2.79-.3 3.06-4.57-2.83-4.97 2.73.29 1.64 3.13 1.6-2.79 2.81.3-2.91 4.57 3.09 5.02zm.57.06.05-9.56 2.48.26-.05 9.56-2.48-.26zm8.1-6.73a1.4 1.4 0 0 0-1.37.6c-.33.48-.5 1.16-.5 2.04-.01 1.84.65 2.83 1.99 2.97.4.05.8.03 1.17-.05.38-.08.76-.18 1.15-.3l-.01 2.18a5.9 5.9 0 0 1-2.59.26 4.45 4.45 0 0 1-3.16-1.6 5.8 5.8 0 0 1-1.09-3.74c0-1 .19-1.84.55-2.55a3.4 3.4 0 0 1 1.54-1.57 4.21 4.21 0 0 1 2.36-.36c.99.1 1.93.43 2.83.98l-.77 1.95c-.33-.2-.67-.38-1-.53a3.6 3.6 0 0 0-1.1-.28m12.32 4.09c0 1.6-.39 2.79-1.15 3.55-.75.75-1.86 1.06-3.31.9a4.7 4.7 0 0 1-3.29-1.6 5.76 5.76 0 0 1-1.13-3.8c.01-1.6.4-2.77 1.16-3.53.76-.76 1.87-1.06 3.32-.9 1.45.15 2.55.68 3.3 1.6s1.1 2.16 1.1 3.78m-6.28-.67c0 1.85.6 2.84 1.83 2.97.62.07 1.09-.1 1.4-.53.3-.41.45-1.1.45-2.05a4.2 4.2 0 0 0-.44-2.16 1.73 1.73 0 0 0-1.37-.83c-1.24-.13-1.86.74-1.87 2.6m10.33 5.89.05-9.56 2.46.26-.03 7.48 3.52.37-.01 2.09-5.99-.64zm15.56-3.15c0 1.61-.39 2.8-1.14 3.55-.76.76-1.87 1.06-3.32.9a4.69 4.69 0 0 1-3.29-1.6 5.75 5.75 0 0 1-1.13-3.8c.01-1.6.4-2.77 1.16-3.53.76-.75 1.87-1.06 3.32-.9 1.45.15 2.55.68 3.3 1.6s1.11 2.17 1.1 3.78m-6.28-.66c0 1.85.6 2.84 1.83 2.97.62.06 1.09-.11 1.4-.53.3-.42.45-1.1.46-2.05a4.1 4.1 0 0 0-.45-2.17c-.3-.49-.76-.76-1.37-.83-1.24-.13-1.86.74-1.87 2.6m11.49 6.02-2.47-.26.04-7.45-2.23-.24.01-2.11 6.92.73-.01 2.11-2.23-.23-.03 7.45zm7.1.75-2.46-.26.03-7.45-2.23-.23.01-2.12 6.92.73-.01 2.12-2.22-.24-.04 7.45zm8.5.9-5.42-.57.05-9.57 5.42.58-.01 2.07-2.96-.31v1.5l2.73.29-.01 2.07-2.73-.28-.01 1.8 2.95.31-.01 2.11zm3.64-3.1-.02 3.48-2.46-.26.04-9.56 2.99.31c2.48.27 3.72 1.34 3.7 3.22 0 1.11-.52 1.91-1.55 2.41l2.64 4.45-2.8-.3-1.92-3.68-.62-.07Zm0-1.94.47.05c.86.09 1.3-.27 1.3-1.06 0-.66-.42-1.04-1.27-1.12l-.48-.06-.01 2.19Zm9.01.36 1.59-3.38 2.67.28-3.03 5.51-.02 3.73-2.48-.26.01-3.65-2.97-6.23 2.68.29 1.55 3.71z" class="q"/></g></g></svg>