<svg id="Layer_2" xmlns="http://www.w3.org/2000/svg" xmlns:xlink="http://www.w3.org/1999/xlink" viewBox="0 0 339 95.1"><defs><radialGradient id="radial-gradient" cx="285.27" cy="-631.21" fx="285.27" fy="-631.21" r="26.04" gradientTransform="matrix(1 0 0 -1 27.73 -584.45)" gradientUnits="userSpaceOnUse"><stop offset="0" stop-color="#e42f43"/><stop offset="1" stop-color="#da2d3f"/></radialGradient><radialGradient id="radial-gradient-2" cx="227.93" cy="-630.98" fx="227.93" fy="-630.98" r="26.06" gradientTransform="matrix(1 0 0 -1 27.73 -584.45)" gradientUnits="userSpaceOnUse"><stop offset="0" stop-color="#fff"/><stop offset=".7" stop-color="#fdfdfd"/><stop offset=".95" stop-color="#f6f6f6"/><stop offset="1" stop-color="#f4f4f4"/></radialGradient><radialGradient id="radial-gradient-3" cx="170.63" cy="-630.98" fx="170.63" fy="-630.98" r="26.06" gradientTransform="matrix(1 0 0 -1 27.73 321.35)" xlink:href="#radial-gradient-2"/><radialGradient id="radial-gradient-4" cx="113.27" cy="-630.98" fx="113.27" fy="-630.98" r="26.06" gradientTransform="matrix(1 0 0 -1 27.73 321.35)" xlink:href="#radial-gradient-2"/><radialGradient id="radial-gradient-5" cx="55.67" cy="-630.98" fx="55.67" fy="-630.98" r="26.06" gradientTransform="matrix(1 0 0 -1 27.73 321.35)" xlink:href="#radial-gradient-2"/><radialGradient id="radial-gradient-6" cx="-1.73" cy="-630.98" fx="-1.73" fy="-630.98" r="26.08" gradientTransform="matrix(1 0 0 -1 27.73 321.35)" xlink:href="#radial-gradient-2"/><linearGradient id="linear-gradient" x1="285.27" y1="-657.29" x2="285.27" y2="-605.21" gradientTransform="matrix(1 0 0 -1 27.73 -584.45)" gradientUnits="userSpaceOnUse"><stop offset="0" stop-color="#8f1a26"/><stop offset=".04" stop-color="#8f1a26" stop-opacity=".83"/><stop offset=".1" stop-color="#8f1a26" stop-opacity=".61"/><stop offset=".16" stop-color="#8f1a26" stop-opacity=".42"/><stop offset=".24" stop-color="#8f1a26" stop-opacity=".26"/><stop offset=".32" stop-color="#8f1a26" stop-opacity=".14"/><stop offset=".43" stop-color="#8f1a26" stop-opacity=".06"/><stop offset=".58" stop-color="#8f1a26" stop-opacity=".01"/><stop offset="1" stop-color="#8f1a26" stop-opacity="0"/></linearGradient><linearGradient id="linear-gradient-2" x1="227.93" y1="-657.06" x2="227.93" y2="-604.98" gradientTransform="matrix(1 0 0 -1 27.73 -584.45)" gradientUnits="userSpaceOnUse"><stop offset="0" stop-color="#939392"/><stop offset=".04" stop-color="#939392" stop-opacity=".8"/><stop offset=".1" stop-color="#939392" stop-opacity=".59"/><stop offset=".17" stop-color="#939392" stop-opacity=".4"/><stop offset=".24" stop-color="#939392" stop-opacity=".25"/><stop offset=".33" stop-color="#939392" stop-opacity=".14"/><stop offset=".43" stop-color="#939392" stop-opacity=".06"/><stop offset=".58" stop-color="#939392" stop-opacity=".01"/><stop offset="1" stop-color="#939392" stop-opacity="0"/></linearGradient><linearGradient id="linear-gradient-3" x1="170.63" x2="170.63" xlink:href="#linear-gradient-2"/><linearGradient id="linear-gradient-4" x1="113.27" x2="113.27" xlink:href="#linear-gradient-2"/><linearGradient id="linear-gradient-5" x1="55.67" x2="55.67" xlink:href="#linear-gradient-2"/><linearGradient id="linear-gradient-6" x1="-1.73" x2="-1.73" xlink:href="#linear-gradient-2"/><style>.cls-2{fill:#fff}.cls-14{fill:#101820}</style></defs><g id="Layer_1-2"><path class="cls-2" d="M284.37 78.5h54.4v16.6h-54.4z"/><path class="cls-14" d="M203.1 78.5v16.6h135.67V78.5H203.1Zm134.4 15.33h-52.13V79.77h52.12l.01 14.06Z"/><path d="M206.98 80.82h6.38a4.36 4.36 0 0 1 3.13 1c.72.75 1.1 1.77 1.03 2.81a3.83 3.83 0 0 1-1.13 2.95 4.9 4.9 0 0 1-3.45 1.06h-2.1v4.6h-3.86V80.82Zm3.86 5.3h.94c.55.05 1.1-.08 1.56-.39.3-.24.46-.6.45-.98 0-.37-.14-.73-.4-1a2 2 0 0 0-1.46-.4h-1.1v2.77h.01Zm9.46.58a5.88 5.88 0 0 1 6.42-6.43 6.5 6.5 0 0 1 4.78 1.67 6.28 6.28 0 0 1 1.68 4.66 7.64 7.64 0 0 1-.74 3.57 5.24 5.24 0 0 1-2.12 2.17 7 7 0 0 1-3.45.78 8 8 0 0 1-3.48-.67 5.27 5.27 0 0 1-2.24-2.12 7.04 7.04 0 0 1-.85-3.63Zm3.84.02c-.08.96.16 1.9.7 2.7a2.65 2.65 0 0 0 3.82.02 4.6 4.6 0 0 0 .68-2.89 3.85 3.85 0 0 0-.7-2.57 2.42 2.42 0 0 0-1.93-.8c-.71-.03-1.4.28-1.86.82-.54.8-.79 1.76-.7 2.72h-.01Zm11.52-5.96h3.65l1.31 6.94 1.92-6.94h3.63l1.93 6.94 1.3-6.94h3.64l-2.74 12.42h-3.77l-2.17-7.82-2.17 7.82h-3.77l-2.76-12.42Zm20.84 0h10.29v2.66h-6.44v1.97h5.97v2.54h-5.97v2.44h6.62v2.82H256.5V80.76Zm13.84 12.43V80.75h6.4c.92-.03 1.83.07 2.72.3.62.2 1.16.6 1.52 1.14.4.6.6 1.3.57 2.01a3.33 3.33 0 0 1-1.65 3c-.42.23-.87.4-1.34.5.35.1.69.25 1 .45.22.2.42.41.6.65.2.24.4.5.55.77l1.85 3.6h-4.34l-2.05-3.8c-.16-.36-.4-.69-.7-.96a1.6 1.6 0 0 0-.94-.28h-.33v5.04l-3.86.02Zm3.86-7.39h1.62c.34-.02.69-.08 1.02-.17.25-.05.47-.19.62-.39.16-.2.24-.46.24-.72.02-.35-.12-.69-.38-.92a2.3 2.3 0 0 0-1.43-.32h-1.7v2.52h.01Z" fill-rule="evenodd" fill="#fff"/><path d="M290.5 82.06v4.7h2.05c.88.07 1.75-.13 2.52-.57a2 2 0 0 0 .81-1.75c.05-.7-.26-1.38-.82-1.8a4.68 4.68 0 0 0-2.63-.58h-1.93Zm-1.39-1.2h3c.7-.02 1.38.02 2.07.11a3.65 3.65 0 0 1 2.72 1.65 3.43 3.43 0 0 1-1.21 4.75c-.42.24-.87.4-1.34.48-.66.11-1.33.16-2 .15h-1.85v5.2h-1.39V80.84Zm17.35 12.16h-6.36V80.68h1.4v11.14h4.96v1.2Zm3.68-.16h-1.46l5.48-12.34h1.67l5.47 12.34h-1.49L318.13 89h-6.3l-1.69 3.87Zm7.5-4.99-2.68-6.2-2.64 6.2h5.32Zm11.56.84v4.53h-1.37V88.7l-4.51-7.79h1.59l3.6 6.41 3.65-6.4h1.55l-4.51 7.8Z" fill="#101820" fill-rule="evenodd"/><path d="M313 20.76a26 26 0 1 1 0 52 26 26 0 0 1 0-52Z" fill="url(#radial-gradient)"/><path d="M313 20.76a26 26 0 1 1 0 52 26 26 0 0 1 0-52Z" fill="url(#linear-gradient)"/><path d="M255.66 20.53a26 26 0 1 1-26 26 26 26 0 0 1 26-26Z" fill="url(#radial-gradient-2)"/><path d="M255.66 20.53a26 26 0 1 1-26 26 26 26 0 0 1 26-26Z" fill="url(#linear-gradient-2)"/><path d="M198.36 20.53a26 26 0 1 1-26 26 26 26 0 0 1 26-26Z" fill="url(#radial-gradient-3)"/><path d="M198.36 20.53a26 26 0 1 1-26 26 26 26 0 0 1 26-26Z" fill="url(#linear-gradient-3)"/><path d="M141 20.53a26 26 0 1 1-26 26 26 26 0 0 1 26-26Z" fill="url(#radial-gradient-4)"/><path d="M141 20.53a26 26 0 1 1-26 26 26 26 0 0 1 26-26Z" fill="url(#linear-gradient-4)"/><path d="M83.4 20.53a26 26 0 1 1-26 26 26 26 0 0 1 26-26Z" fill="url(#radial-gradient-5)"/><path d="M83.4 20.53a26 26 0 1 1-26 26 26 26 0 0 1 26-26Z" fill="url(#linear-gradient-5)"/><path d="M26 20.53a26 26 0 1 1-26 26 26 26 0 0 1 26-26Z" fill="url(#radial-gradient-6)"/><path d="M26 20.53a26 26 0 1 1-26 26 26 26 0 0 1 26-26Z" fill="url(#linear-gradient-6)"/><path class="cls-2" d="M291.23 55.6c-2.07-6.7-1.62-12.6 0-18.8 1.72-.1 3.44-.19 5.16-.26 2.45-.1 4 .91 3.6 4.88a7.36 7.36 0 0 1-1.76 4.33c1.26.58 1.94 2.46 2.1 4.64.37 4.5-1 6-3.83 5.71-1.75-.12-3.5-.35-5.27-.5Zm2.42-14.52c-.2 1.06-.33 2.14-.4 3.21h1.6c.78 0 1.35-.56 1.47-1.7.16-1.53-.54-1.56-1.35-1.55l-1.32.04Zm-.41 6.73c.06 1.2.19 2.4.39 3.58l1.65.08c.93 0 1.57-.24 1.43-1.72-.14-1.73-1-1.87-2.25-1.9l-1.22-.04Zm7.85 7.94c.09-6.34 2.32-12.78 4.9-19.28l4.59-.06c1.23 6.5 3.46 13 4.92 19.53H311l-.68-2.58h-4.7c-.08.85-.14 1.7-.18 2.55l-4.35-.16Zm6.73-13.45a85.76 85.76 0 0 0-1.53 7h3.07c-.58-2.32-1.12-4.69-1.54-7ZM317 55.98c.35-6.49.35-12.99 0-19.48h4.17c.65 4.94.8 9.93.46 14.9l6.09-.08c-.2 1.5-.48 2.98-.83 4.45-3.24.15-6.57.21-9.9.21h.01Zm11.09-.23a44.91 44.91 0 0 0 .08-19c1.07.06 2.36.2 3.43.28a32.84 32.84 0 0 1 .63 14.05h4.38a29.5 29.5 0 0 1-1.5 4.3c-2.53.2-4.46.21-7.02.37Z"/><path class="cls-14" d="M28.72 30.98c-1.33 0-2.55 0-3.72-.07-3.1-.16-6.19-.08-9.27.23h-.28l-.08.28c-1.67 6.72-2.94 15.14-.86 31.25v.4h.74c1.6 0 3.1.1 4.63.1 1.36 0 2.74 0 4.23-.14h.4v-.4c-.08-3.1-.08-6.2-.08-9.26h4.7c4.8-.06 8.4-1.3 10.7-3.69a10.14 10.14 0 0 0 2.6-7.47c-.27-6.77-5.52-11.05-13.71-11.23Zm3.7 10.61a3.3 3.3 0 0 1-.91 2.38 4.74 4.74 0 0 1-3.36 1.24h-3.8c0-1.19.06-2.48.09-3.74 0-1 0-1.9.07-2.79H27c1.65-.02 5.43.24 5.43 2.92h-.01ZM83.52 30a16.33 16.33 0 0 0-15.23 10.1 16.17 16.17 0 0 0-1.3 6.28c.13 9.63 7 16.7 16.5 16.81a16.6 16.6 0 0 0 .03-33.2V30Zm-5.6 16.4c0-3.9 1.45-8.06 5.53-8.08h.2a4.6 4.6 0 0 1 3.28 1.3c1.42 1.4 2.28 3.93 2.28 6.78 0 3.13-.74 8.4-5.64 8.41-5.25.02-5.65-6.43-5.65-8.39v-.02Zm80.9-14.4h-.3c-2.53-.09-3-.1-5.65-.16h-1.94v.42c.24 5.5-.32 11.01-1.66 16.35a145.1 145.1 0 0 0-2.57-11.06c-.46-1.79-.94-3.63-1.42-5.6l-.07-.27h-.28a71.2 71.2 0 0 0-7.45 0h-.3l-.06.27c-.6 2.48-1.26 4.76-1.9 7a104 104 0 0 0-2.44 9.7 57.12 57.12 0 0 1-1.35-16.45v-.4h-7.5l-.07.3c-2.15 8.12-.26 17.9 6 30.75l.1.21h.24c2.07 0 3.13.07 4.15.07s1.86 0 3.54-.06h.34v-.34c.55-5.6 1.67-11.37 2.77-17 1.12 5.6 2.25 11.36 2.8 17v.36h.37c1.58-.07 3-.07 4.42-.07h4.23l.1-.22c5.57-11.5 7.65-22.32 5.87-30.45l.03-.35Zm37.12 23v-4.12c4.14 0 8.35 0 12.5-.1h.4v-7.92h-.41c-4.1-.1-8.31-.14-12.5-.1v-3.67c3.28 0 6.45 0 9.8.14l5 .11h.5l-.08-.49a36.3 36.3 0 0 0-1.93-6.86l-.1-.24h-.24a78.13 78.13 0 0 0-22.13 0h-.32l-.06.3a67.54 67.54 0 0 0 0 29.93l.07.28h.28c3.93.54 7.9.83 11.86.85 3.79-.01 7.57-.28 11.32-.8h.25l.09-.23c.8-2.28 1.28-4.67 1.4-7.09v-.48h-.48c-5.03.37-10.16.48-15.22.48V55Zm74.49 1.1c.45-5.65-1.77-7.09-4.65-8.2a6.86 6.86 0 0 0 4.45-7.23c-.57-6.6-5.14-9.9-14-10.12h-1.72c-3.49-.13-6.98.13-10.41.76h-.24l-.07.23c-3.48 10.34-3.8 21.51-.86 30.66l.07.24h.25c2.31.41 4.65.61 7 .6h2.07v-.43c-.17-3.56-.23-7.2-.28-10.74v-.1h2.75c2 0 3.29.36 4 1.12.9.93 1 2.54 1 4.68-.15 1.72-.08 3.45.2 5.15l.1.32h.33c1-.07 2-.1 2.93-.13a55.3 55.3 0 0 0 6.3-.42h.3l.3-1.73-.57.1c.04-.38.1-.76.2-1.14.29-1.18.5-2.39.63-3.6l-.08-.02ZM260.22 42c.02.3-.02.58-.11.86-.1.28-.25.53-.45.75-.65.66-1.94 1-4 1H252c0-1.77 0-3.6.09-5.57 1.45 0 2.92-.06 4.35-.06 2.34.01 3.74 1.11 3.78 3.01V42Z"/><path d="M3.46.3h1.82l6.77 10.43h.04V.31h1.62v12.85h-1.88L5.12 2.85h-.04v10.31H3.46V.31ZM18.82.3h8.87v1.45h-7.16v4.08h6.68v1.44h-6.68v4.45h7.22v1.44h-8.93V.31ZM43.77 13.16h-1.79l-2.93-10.8h-.04l-2.97 10.8h-1.78L30.96.31h1.75L35.23 11h.04L38.15.3H40L42.85 11h.03L45.5.3h1.7l-3.43 12.85ZM58.54.3h2.34l4.05 10.8L69 .3h2.34v12.86h-1.62V2.46h-.03l-4.02 10.7h-1.46L60.2 2.46h-.04v10.7h-1.62V.31ZM76.52.3h8.88v1.45h-7.17v4.08h6.68v1.44h-6.68v4.45h7.22v1.44h-8.93V.31ZM92.92 6.55 88.7.31h2.05l3.2 5.02L97.3.31h1.9l-4.24 6.24 4.52 6.61h-2.1l-3.45-5.3-3.56 5.3h-1.93l4.48-6.6ZM103.27.3h1.71v12.86h-1.7V.31ZM119.24 4.18c-.38-1.82-1.8-2.74-3.6-2.74-3.06 0-4.36 2.52-4.36 5.2 0 2.94 1.3 5.39 4.38 5.39 2.23 0 3.56-1.59 3.7-3.71h1.72c-.35 3.22-2.3 5.15-5.57 5.15-3.98 0-5.94-2.95-5.94-6.7S111.7 0 115.66 0c2.68 0 4.91 1.44 5.29 4.18h-1.71ZM130.97 0c4.1 0 6.16 3.22 6.16 6.73 0 3.52-2.07 6.74-6.16 6.74-4.08 0-6.15-3.22-6.15-6.74 0-3.5 2.07-6.73 6.15-6.73Zm0 12.03c3.14 0 4.45-2.7 4.45-5.3s-1.31-5.29-4.45-5.29-4.44 2.7-4.44 5.3 1.31 5.29 4.44 5.29Z"/></g></svg>