<svg xmlns="http://www.w3.org/2000/svg" viewBox="0 0 977.3 404.5"><defs><style>.a{fill:#8b2890}.b{fill:#fff}</style></defs><path class="a" d="M787 24a189.8 189.8 0 00-143.1 64.9c-18-1.5-36-2.9-54.1-4.2a36.3 36.3 0 00-25.8 8 35 35 0 00-23.7-11.2c-18.4-1.1-36.9-2-55.5-2.9a31 31 0 00-23.4 8.9A168.3 168.3 0 00393.7 71c-40.5-1-74.3 13-97 38 0-1.3-.1-2.5-.1-3.8-.7-17-15.6-30.9-33.1-30.7s-37.1.4-55.7.8A29.6 29.6 0 00179.4 98c-20.4-13.4-46.9-20.6-77.2-19.2C77.5 80 52.8 81.3 28 82.9 10.6 84-1.8 100 .2 118.3l24 217c2 17.8 17 30.9 32.9 28.7 17.4-2.4 34.9-4.7 52.3-6.9s28.7-18 27.3-35.6c-1-12.3-2.1-24.6-3.1-36.9 22.1-4.3 40.8-13.1 55.5-25.5l3.9 56.7c1.2 17.1 15.7 30.2 31.6 28.6s34.7-3.1 52-4.5 29.2-16.1 28.5-32.9c-.1-1.4-.1-2.8-.2-4.1 23.7 23.3 56.1 35.4 93.9 33.4a160.1 160.1 0 0063.4-17.1 29.1 29.1 0 0022 9.3c17.4-.5 34.8-.9 52.2-1.1a32.3 32.3 0 0023.3-10.6 33.6 33.6 0 0023.9 10.2c16.8-.1 33.6 0 50.4.2a190.1 190.1 0 00153 77.3c105.1 0 190.3-85.2 190.3-190.3S892.1 24 787 24z"/><path class="a" d="M612 54.5c6.4 6.5 9.7 17.2 10 22.5.3-5.4 3.1-15.6 9.7-22.3s17.2-9.9 22.7-10.1c.1-.1.1-.1 0-.1-5.6-.3-15.7-3.1-22.5-9.9S622.6 18 622 12.7c0-.3 0-.6-.1-.3-.5 5.4-3.6 15.7-9.9 22.1s-17 9.7-22.6 9.9h.1c5.6.4 15.7 3.1 22.5 10.1zM541.9 26.7c4.1 4.1 6.1 10.9 6.3 14.2.2-3.4 2-9.9 6.2-14a24.3 24.3 0 0114.3-6.5 23.8 23.8 0 01-14.2-6.3c-3.9-4-5.9-10.5-6.3-13.8V.1c-.3 3.3-2.3 9.9-6.3 13.9a22.9 22.9 0 01-14.3 6.3c3.6.3 10 2 14.3 6.4z"/><path class="b" d="M104.6 106.4c54.8-2.7 89.5 26.3 92.4 70.9s-26.8 76.6-79.2 81.6l-12.3 1.2 5.7 64.2a4.9 4.9 0 01-4.3 5.1c-17.6 2-35.2 4.2-52.7 6.5-2.1.3-4.4-1.7-4.6-4L27.1 116.2a4.7 4.7 0 013.8-5.2c24.6-1.7 49.1-3.2 73.7-4.6zm11 95c10.6-.9 17.3-9 16.4-20.2s-8.9-18.3-19.7-17.6l-16 1.1c1.2 12.6 2.3 25.3 3.4 37.9zM264.8 101a4.7 4.7 0 014.9 4.5l9.8 203.2a4.4 4.4 0 01-4.2 4.6c-17.5 1.3-34.9 2.7-52.4 4.2-2 .2-4.2-1.8-4.4-4q-6.4-103.2-13.1-206.5c-.1-2.5 1.9-4.8 4.1-4.8 18.4-.5 36.8-.9 55.3-1.2zM463.2 286.2c.9 2-.3 4.1-2.7 5.3-17.2 10.9-40.3 18.2-62.2 19.2-60.7 2.9-103.5-38-106.7-104.4s38-111.1 102.6-109.6c23.2.4 47.6 7.5 65.7 18.6 2.5 1.2 3.7 3.3 2.8 5.3q-10.2 20-20.2 40.2c-1.2 2.7-3.3 3.5-5.8 2.3-11.4-6.3-22.6-8.4-35.8-8.5-27.8-.1-45.7 19.9-44.8 49.7s19.5 49 46.5 48.3c13-.4 23.7-2.6 34.8-9 2.4-1.2 4.6-.3 5.8 2.3q10.1 20.3 20 40.3zM655.4 300.5c1.4 1.9.2 3.3-2.2 3.2-23-.5-45.9-.8-68.9-.9a8 8 0 01-6.1-3.4c-11.7-23.5-23.6-47.3-35.7-71.2l-1.2 70.6a4.3 4.3 0 01-4.5 4c-17.5.1-35 .4-52.5.7a4.3 4.3 0 01-4.2-4l.3-191.7a4.4 4.4 0 014.4-4.2c18.4.7 36.8 1.5 55.2 2.5a4.6 4.6 0 014.6 4.5c-.4 21.3-.8 42.5-1.1 63.8 12.6-21.1 25.4-42 38.4-62.5 1.3-1.9 4.5-3.1 7.3-3 22.7 1.5 45.4 3.1 68.1 5 2.5.2 3.4 1.6 2 3.4q-32.7 41.1-64.2 84.4 30.9 50.1 60.3 98.8zM863.7 249.4c2.8.2 5.1 2.3 4.9 4.7l-4.5 43.1c-.2 2.8-2.9 4.4-5.7 4.2l-10.7-.9c-1 10.7-2.1 21.4-3.1 32.1a5.1 5.1 0 01-5.4 4.3q-31.1-1.9-62.1-3.4c-3.2-.1-5.1-2.4-4.9-4.9.9-11 1.7-22 2.6-32.9-31.2-1.8-62.4-3.3-93.6-4.3-4.9-.2-7.6-3.5-7.3-8.1.6-12.6 1.3-25.3 1.9-37.9a14.3 14.3 0 013-8.3q41.4-61.9 85-119.7a6.6 6.6 0 015.8-2.6c30.1 3.4 60.2 7 90.2 11 2.9.4 5 2.5 4.7 4.7q-5.7 59-11.6 117.8zm-116.6-9.6l31.9 2.3 4.8-61.5q-18.6 29.3-36.7 59.2zM928.1 127.3c7 11.1 5.7 21.1-2.5 26.3s-17.9 1.9-24.9-9.1l-1.6-2.6-11.6 7.2a1.2 1.2 0 01-1.4-.5l-7.1-11.4a1.1 1.1 0 01.2-1.4l38.1-23.9a1.2 1.2 0 011.5.4zm-16.7 11.3c1.4 2.2 3.7 2.8 5.7 1.6a4.1 4.1 0 001.1-5.9l-2.1-3.3-6.8 4.3zM921.2 195.1a1.1 1.1 0 01-.6 1.3l-10.1 2.4a1.2 1.2 0 01-1.3-.8l-9-25.5a1.2 1.2 0 01.5-1.4l42.4-14.9a1.2 1.2 0 011.4.7l4.4 12.5a1.1 1.1 0 01-.6 1.4L916.5 182zM956.3 241.2a1.2 1.2 0 01-1.2 1.2l-28.4-1c-12-.4-18.1-7.7-17.6-21.2s7-20.3 19.1-20l28.3.9a1.4 1.4 0 011.1 1.4l-.4 12.8a1.1 1.1 0 01-1.2 1.2l-29.6-1c-3.1-.1-5 1.8-5.1 5.1s1.6 5.3 4.7 5.4l29.6 1a1.2 1.2 0 011.1 1.3zM920.7 251.8c.6.4.7 1 .1 1.4a30.7 30.7 0 00-6.2 8.9c-.8 2.3-.3 4.1 1.2 4.6 3.9 1.2 10.1-18.9 24.2-14.4 8.7 2.8 12.1 11.8 8.7 22.7a35.3 35.3 0 01-9.8 14.5c-.5.4-1.1.5-1.3.2l-7.7-7.5c-.6-.4-.7-.9-.2-1.4a30.1 30.1 0 006.6-9c.7-2.2.3-3.9-1.1-4.4-3.9-1.2-10.1 19.1-24.3 14.5-8.6-2.7-12-11.9-8.5-22.9 1.9-6 5.6-11.7 9.3-14.4.6-.5 1.1-.6 1.3-.2zM906.5 100.1c-4.9-4.2-45.7-58.5-131.4-54 0 0 65.7 3.7 100.9 74.6z"/><path class="a" d="M25.8 66.4l-6.4.3-11-17.5h-.2a62.1 62.1 0 01.6 6.8c.2 3.7.3 7.4.5 11.1H4.8c-.3-7.8-.7-15.7-1-23.6l6.4-.2 10.9 17.3h.2c-.3-3-.5-5.2-.5-6.5-.2-3.7-.3-7.4-.5-11.1l4.5-.2c.3 7.9.6 15.7 1 23.6zM53.6 65.4l-13.6.5-.9-23.7 13.6-.5c.1 1.4.1 2.8.2 4.2l-8.6.3c0 1.7.1 3.4.2 5.1l8-.2c0 1.3.1 2.7.1 4.1l-8 .3c.1 2 .2 4 .2 6l8.6-.3c.1 1.4.1 2.8.2 4.2zM89.8 64.2h-5.7L80.5 52c-.1-.4-.4-1.3-.7-2.7l-.6-2.8a26.9 26.9 0 01-.4 2.9c-.2 1.3-.4 2.2-.5 2.7-.9 4.2-1.8 8.4-2.8 12.5l-5.7.2C67.6 57 65.3 49.2 63 41.4l4.9-.2c1.2 4.3 2.4 8.5 3.5 12.8.6 2.4 1.1 4.4 1.4 6.2a20.2 20.2 0 01.3-2.9 26 26 0 01.6-3l3-13.4h4.7L85.3 54c.2.6.4 1.5.7 2.7s.4 2.2.6 3.1c.1-.8.2-1.9.4-3.1s.4-2.3.5-3.1l2.7-13h4.9c-1.8 7.7-3.5 15.6-5.3 23.6zM133.9 62.9c-2-6.1-4.1-12.2-6.1-18.4h-.2c.3 3.8.5 6.3.5 7.6l.3 11h-4.5l-.6-23.7h6.8c2.1 5.9 4.1 11.9 6.1 17.9h.1c1.8-6.1 3.7-12.2 5.5-18.2l6.8-.2.6 23.6h-4.7c-.1-3.7-.1-7.4-.2-11.1 0-.6-.1-1.2-.1-1.9s.1-2.5.1-5.5h-.1l-5.7 18.7zM177.1 61.9l-13.7.3c-.1-7.9-.3-15.7-.5-23.6l13.7-.3c0 1.4 0 2.7.1 4.1l-8.7.2c.1 1.7.1 3.4.1 5.2l8.1-.2v4.1l-8 .2c.1 2 .1 4 .2 6.1l8.6-.2c0 1.4 0 2.7.1 4.1zM209.4 61.3h-5.8l-5.6-8.7c-1.8 3-3.6 6-5.3 9h-5.4l7.6-12.3-7.6-11.3h5.6l5.2 8.4 4.9-8.6h5.4l-7.2 11.9zM220.6 61.2l-.3-23.7h5l.3 23.6zM249.7 41a5 5 0 00-4.4 2.2 10.1 10.1 0 00-1.5 5.9c.1 5.3 2.1 7.9 6.1 7.8a17.6 17.6 0 006-1.3v4.2a15.1 15.1 0 01-6.5 1.3c-3.4 0-6-1-7.9-3s-2.8-5.1-2.8-9a14.4 14.4 0 011.2-6.4 9.6 9.6 0 013.9-4.3 10.1 10.1 0 015.8-1.6 16.2 16.2 0 017 1.6c-.5 1.4-1 2.7-1.6 4.1l-2.7-1.1a7.8 7.8 0 00-2.6-.4zM290.6 48.6c.1 3.9-.9 6.9-2.8 9s-4.7 3.2-8.3 3.2-6.4-1-8.4-3.1-3-5.1-3-9 .9-6.9 2.8-9a11.1 11.1 0 018.4-3.2c3.7 0 6.5 1 8.4 3.1s2.9 5.1 2.9 9zm-17.2.1a10.2 10.2 0 001.5 6 5.3 5.3 0 004.5 1.9c4 0 6-2.7 6-8s-2.1-8-6.1-7.9a5.4 5.4 0 00-4.5 2 9.6 9.6 0 00-1.4 6zM320.8 60.3c0-7.9-.1-15.8-.1-23.6h5.1v19.5h9.6v4.2zM369.3 48.5q0 5.8-3 9c-1.9 2.1-4.7 3.1-8.3 3.1s-6.4-1-8.4-3.1-2.9-5.2-2.9-9.1 1-6.9 3-9 4.7-3.1 8.4-3.1 6.4 1.1 8.3 3.1 2.9 5.2 2.9 9.1zm-17.3-.1q0 4.1 1.5 6a5.4 5.4 0 004.5 2c4 0 6-2.6 6-7.9s-1.9-8-5.9-8a5.4 5.4 0 00-4.6 2c-1 1.3-1.5 3.3-1.5 5.9zM391.6 60.4h-5.1c.1-6.5.1-13 .2-19.5h-6.5v-4.2h17.9V41h-6.4c-.1 6.5-.1 13-.1 19.4zM419 60.7h-5c.1-6.5.1-13 .2-19.5h-6.4v-4.3l17.9.2v4.2h-6.5c0 6.4-.1 12.9-.2 19.4zM451 61h-13.6l.3-23.7 13.6.2v4.1h-8.7v5.2h8c0 1.4 0 2.7-.1 4.1h-8c0 2 0 4.1-.1 6.1h8.6zM469.4 52.2c-.1 3.1-.1 6.1-.2 9.1h-5c.1-7.8.2-15.7.4-23.6h6.9c3.2.1 5.6.7 7.1 1.9a6.1 6.1 0 012.2 5.3 5.9 5.9 0 01-1.2 3.7 7.6 7.6 0 01-3.3 2.5l6.8 10.4h-5.6c-1.8-3-3.6-6.1-5.5-9.1zm0-4h1.7a6.8 6.8 0 003.5-.7 3.5 3.5 0 001.2-2.5 2.6 2.6 0 00-1.2-2.4 6.2 6.2 0 00-3.5-.8h-1.6c0 2.1 0 4.2-.1 6.4zM502 48l5.1-9.6h5.5c-2.8 4.7-5.5 9.5-8.2 14.2-.1 3.1-.1 6.2-.2 9.2h-5c.1-3 .2-6 .2-9-2.5-4.9-5-9.8-7.6-14.7h5.5c1.6 3.3 3.1 6.6 4.7 9.9z"/></svg>