<svg xmlns="http://www.w3.org/2000/svg" viewBox="0 0 977.8 404.5"><defs><style>.a{fill:#f37121}.b{fill:#fff}</style></defs><path class="a" d="M787.6 24a189.8 189.8 0 00-142.9 64.6c-18.1-1.5-36.2-2.9-54.4-4.2a36.8 36.8 0 00-25.9 8.1 33.8 33.8 0 00-23.6-11.2c-18.5-1.1-37-2.1-55.5-2.9a30.8 30.8 0 00-23.5 9 167.1 167.1 0 00-67.7-16.5c-40.6-1-74.5 13-97.1 38l-.2-3.7c-.7-17.1-15.5-30.9-33.1-30.8s-37.1.4-55.7.8A29.8 29.8 0 00179.6 98a129 129 0 00-77.3-19.2Q65.1 80.6 28.1 83C10.7 84.1-1.8 100 .2 118.4l24 216.9c2 17.9 17 31 32.9 28.8 17.5-2.5 34.9-4.8 52.4-6.9s28.8-18 27.3-35.7l-3.1-36.9a121 121 0 0055.6-25.4l3.9 56.7c1.2 17.1 15.7 30.1 31.7 28.6s34.7-3.2 52-4.6 29.2-16.1 28.5-32.9l-.2-4.1c23.7 23.3 56.2 35.4 94.1 33.4a161.7 161.7 0 0063.4-17.1 29.2 29.2 0 0022.1 9.3l52.2-1.2a31.8 31.8 0 0023.3-10.6 33.8 33.8 0 0024 10.2c16.7-.1 33.4 0 50.1.1a190.1 190.1 0 00153.2 77.5 190.2 190.2 0 00190.2-190.3A190.1 190.1 0 00787.6 24z"/><path class="a" d="M612 54.5A39.5 39.5 0 01622 77c.3-5.4 3.2-15.6 9.7-22.3s17.2-9.9 22.7-10.1c.2-.1.2-.1 0-.1-5.6-.3-15.7-3.1-22.4-9.9s-9.3-16.6-9.9-21.9l-.1-.3c-.5 5.4-3.6 15.7-10 22.1s-17 9.7-22.5 9.9A37 37 0 01612 54.5zM541.9 26.7a25.4 25.4 0 016.4 14.2 23.3 23.3 0 016.1-14 24.7 24.7 0 0114.4-6.5c-3.6-.2-10-2-14.2-6.3S548.7 3.6 548.3.3c0-.3 0-.4-.1-.2-.3 3.3-2.2 9.9-6.3 13.9a22.5 22.5 0 01-14.2 6.3 23 23 0 0114.2 6.4z"/><path class="b" d="M928.7 127.3c6.9 11.1 5.6 21.1-2.6 26.3s-17.9 1.9-24.9-9.1l-1.6-2.6-11.5 7.2a1.4 1.4 0 01-1.5-.5l-7.1-11.4a1.1 1.1 0 01.3-1.4l38.1-23.9a1.1 1.1 0 011.4.4zm-16.8 11.3a4.1 4.1 0 005.8 1.6c2-1.3 2.4-3.7 1-5.9l-2.1-3.3-6.8 4.3zM921.7 195.1a1 1 0 01-.6 1.3l-10.1 2.4a1.2 1.2 0 01-1.3-.8l-9-25.5a1.1 1.1 0 01.6-1.4l42.4-14.9a1.1 1.1 0 011.3.7l4.4 12.5a1.1 1.1 0 01-.6 1.4L917.1 182zM956.8 241.2a1.2 1.2 0 01-1.2 1.2l-28.3-1c-12.1-.4-18.1-7.7-17.7-21.2s7.1-20.3 19.1-20l28.3.9a1.4 1.4 0 011.2 1.4l-.5 12.8a1.1 1.1 0 01-1.2 1.2l-29.6-1c-3.1-.1-5 1.8-5.1 5.1s1.7 5.3 4.7 5.4l29.7 1a1.3 1.3 0 011.1 1.3zM921.3 251.8a.8.8 0 01.1 1.4 31.2 31.2 0 00-6.3 8.9c-.7 2.3-.2 4.1 1.3 4.6 3.8 1.2 10-18.9 24.1-14.4 8.7 2.8 12.2 11.9 8.7 22.7a34.4 34.4 0 01-9.8 14.5c-.5.4-1.1.5-1.3.2l-7.7-7.5c-.6-.4-.6-.9-.1-1.4 2.9-2.9 5.6-6.5 6.6-9s.2-3.9-1.2-4.4c-3.8-1.2-10 19.1-24.3 14.5-8.6-2.7-12-11.9-8.5-22.9 1.9-6 5.6-11.7 9.3-14.4.6-.5 1.1-.6 1.4-.2zM907 100.1c-4.8-4.2-45.7-58.5-131.3-54 0 0 65.6 3.7 100.8 74.6zM104.7 106.5c54.8-2.8 89.6 26.2 92.5 70.8s-26.8 76.6-79.3 81.6l-12.3 1.2 5.7 64.3a4.9 4.9 0 01-4.3 5L54.2 336a4.6 4.6 0 01-4.6-4.1L27.1 116.3c-.3-2.6 1.7-5.1 3.9-5.2q36.8-2.7 73.7-4.6zm11 94.9c10.6-.9 17.3-9 16.4-20.2s-8.9-18.3-19.7-17.6l-16 1.1 3.4 37.9zM265 100.9a4.8 4.8 0 014.9 4.6l9.9 203.2a4.4 4.4 0 01-4.2 4.6c-17.5 1.3-35 2.7-52.4 4.3a4.5 4.5 0 01-4.4-4.1L205.6 107a4.7 4.7 0 014.1-4.9c18.4-.5 36.9-.9 55.3-1.2zM463.7 286.2c.9 2-.3 4-2.7 5.3a131.4 131.4 0 01-62.2 19.1c-60.9 3-103.7-37.9-106.9-104.4s38-111 102.7-109.7c23.1.4 47.6 7.6 65.7 18.6 2.5 1.2 3.7 3.3 2.8 5.3q-10.2 20.1-20.2 40.3c-1.2 2.6-3.3 3.5-5.8 2.3a71.2 71.2 0 00-35.8-8.5c-27.8-.1-45.8 20-44.8 49.8s19.5 49 46.6 48.2a69 69 0 0034.8-9c2.4-1.2 4.5-.3 5.7 2.3l20.1 40.4zM656.2 300.3c1.4 2 .1 3.3-2.3 3.3-23-.5-45.9-.8-68.9-1-2.1 0-5.1-1.4-6.2-3.4Q561.3 264 543.1 228l-1.2 70.7a4.3 4.3 0 01-4.5 4c-17.5.1-35.1.4-52.6.8a4.2 4.2 0 01-4.1-4l.1-191.9a4.4 4.4 0 014.4-4.2c18.4.7 36.8 1.5 55.2 2.5a4.5 4.5 0 014.6 4.5l-1 63.8a2746 2746 0 0138.4-62.6c1.3-1.9 4.5-3.1 7.3-2.9 22.7 1.4 45.5 3 68.2 4.8 2.5.2 3.4 1.7 2 3.5q-32.7 41.3-64.2 84.5 31.1 50.1 60.5 98.8zM707.5 126.8c-1-2.7-.2-4 3.3-5.3a186.5 186.5 0 0182.6-9.3c53.4 6.4 82.5 33.8 78.5 72.6a45.5 45.5 0 01-28.2 37.4c19.5 13.5 29.7 33.5 27.6 54.4-4.4 41.2-40.3 63.3-96.7 61a175.8 175.8 0 01-86.5-26.1c-1.3-.7-3.3-3-2.2-5.3q9.9-22.2 20-44.1c.8-2.2 4.8-3 6.6-2.3a150.9 150.9 0 0054.3 17.4c18.9 1.1 29.1-4.7 29.7-12.5s-10.6-16.2-28.5-17.5l-35.5-2.3c-3.3-.2-5.6-2.6-5.9-4.5l-2.2-45.1c-.3-2 1.7-4.1 5-3.8 14.2 1 28.3 2.2 42.5 3.4s26.6-3.3 27.3-11.7c.5-6.5-7.8-13.1-24.2-14.6a204 204 0 00-45.9 4.2 7 7 0 01-6.4-3.1z"/><path class="a" d="M25.8 66l-6.4.2-11-17.4h-.2a60.8 60.8 0 01.6 6.7l.5 11.2H4.8l-1-23.6 6.4-.2 10.9 17.3h.2l-.5-6.5-.5-11.1 4.5-.2 1 23.6zM53.6 65l-13.6.5-.9-23.7 13.6-.5.2 4.1-8.6.4.2 5.1 8-.3.1 4.2-8 .2.2 6.1 8.6-.3.2 4.2zM89.8 63.8h-5.7l-3.6-12.2-.7-2.7-.6-2.8a26.9 26.9 0 01-.4 2.9l-.5 2.7-2.8 12.5-5.7.2L63 41l4.9-.2 3.5 12.8c.6 2.4 1.1 4.4 1.4 6.2a20.2 20.2 0 01.3-2.9 26 26 0 01.6-3l3-13.4h4.7l3.9 13.1.7 2.7.6 3.1.4-3.2.5-3 2.7-13 4.9-.2-5.3 23.8zM133.9 62.5l-6.1-18.4h-.2l.5 7.6.3 10.9-4.5.2-.6-23.7h6.8l6.1 17.9h.1l5.5-18.2 6.8-.2.6 23.6h-4.7l-.2-11.1-.1-1.9.1-5.5h-.1l-5.7 18.7zM177.1 61.5l-13.7.3-.5-23.6 13.7-.3.1 4.1-8.7.2.1 5.2 8.1-.2v4.1l-8 .2.2 6.1 8.6-.2.1 4.1zM209.4 60.9h-5.8l-5.6-8.7-5.3 9h-5.4l7.6-12.2-7.6-11.3h5.6l5.2 8.4 4.9-8.6h5.4l-7.2 11.8 8.2 11.6zM220.6 60.8l-.3-23.7h5l.3 23.7zM249.7 40.6a5.1 5.1 0 00-4.4 2.1 10.7 10.7 0 00-1.5 6c.1 5.3 2.1 7.9 6.1 7.8a17.6 17.6 0 006-1.3v4.2a16.6 16.6 0 01-6.4 1.3c-3.5 0-6.1-1-8-3s-2.8-5.1-2.8-9a15.1 15.1 0 011.2-6.5 10.8 10.8 0 013.9-4.3 10.9 10.9 0 015.8-1.5 15.9 15.9 0 017 1.6l-1.6 4.1-2.7-1.1a7.8 7.8 0 00-2.6-.4zM290.6 48.2c.1 3.9-.9 6.9-2.8 9s-4.7 3.2-8.3 3.2-6.4-1-8.4-3.1-3-5.1-3-9 .9-6.9 2.8-9a11.1 11.1 0 018.4-3.2c3.7 0 6.5 1 8.4 3.1s2.9 5 2.9 9zm-17.2.1c0 2.6.5 4.6 1.5 5.9a5.1 5.1 0 004.5 2c4 0 6-2.7 6-8s-2.1-8-6.1-7.9a5.4 5.4 0 00-4.5 2 9.6 9.6 0 00-1.4 6zM320.8 59.9l-.1-23.6h5.1v19.4h9.6v4.2zM369.3 48.1q0 5.9-3 9c-1.9 2.1-4.7 3.1-8.3 3.1s-6.4-1.1-8.3-3.2-3-5.1-3-9 1-7 3-9 4.7-3.1 8.4-3.1 6.4 1 8.3 3.1 2.9 5.1 2.9 9.1zM352 48q0 4.1 1.5 6a5.4 5.4 0 004.5 2c4 0 6-2.6 6-7.9s-1.9-8-5.9-8.1a5.5 5.5 0 00-4.6 2.1c-1 1.3-1.5 3.3-1.5 5.9zM391.6 60h-5.1l.2-19.5h-6.5v-4.2h17.9v4.2h-6.4l-.1 19.5zM419 60.3h-5l.2-19.5h-6.4v-4.3l17.9.2v4.2h-6.5l-.2 19.4zM451 60.6h-13.6l.3-23.7 13.6.2v4.1h-8.7v5.2h8l-.1 4.1h-8l-.1 6.1h8.7l-.1 4zM469.4 51.8l-.2 9.1h-5l.4-23.6h6.9c3.2 0 5.6.7 7.1 1.9a6.1 6.1 0 012.2 5.3 5.9 5.9 0 01-1.2 3.7 7.6 7.6 0 01-3.3 2.5l6.8 10.4h-5.6L472 52zm0-4h1.7a5.9 5.9 0 003.5-.8 3.1 3.1 0 001.2-2.4 2.6 2.6 0 00-1.2-2.4 6.2 6.2 0 00-3.5-.8h-1.6l-.1 6.4zM502 47.6l5.1-9.7 5.5.2-8.2 14.2-.2 9.2h-5l.2-9-7.6-14.8 5.5.2 4.7 9.7z"/></svg>