<svg xmlns="http://www.w3.org/2000/svg" viewBox="0 0 404.5 148.5"><defs><style>.a{fill:#fff}.b{fill:#ed1c24}.c{fill:#00a3c9}.d{fill:#283a97}</style></defs><path class="a" d="M401.2 30.2l-46.3-7.9-34-21.7a3.9 3.9 0 00-2.1-.6 3.9 3.9 0 00-2.3.7 4 4 0 00-1.6 4.1l1.1 5-26.8-3.9h-.6a3.9 3.9 0 00-2 7.3l12.6 7.5H124.9l-34.9-6h-.7a4.2 4.2 0 00-3.2 1.6 4 4 0 00-.3 4.2l.3.5-38.9-8.8h-.9a4.2 4.2 0 00-3.4 1.8 4.3 4.3 0 00.3 4.6l2.5 3-41.2-5.5H4a4 4 0 00-3.8 2.7 3.9 3.9 0 001.9 4.7l35.4 18.8a4.1 4.1 0 001.8.5h88.3l31.8 19.1a3.6 3.6 0 002 .6c.8 0 10.6 29.6 1.3 28.8h-2.6c-7.9 0-14.3 3.3-17.7 9a26.8 26.8 0 00-6.1-1h-3.9a21.3 21.3 0 00-19.4 12.6h-1.9a21 21 0 00-20.8 18.4 3.8 3.8 0 002.2 4 3.3 3.3 0 001.7.4 4.1 4.1 0 002.8-1.1 14.7 14.7 0 0110.6-4.5h1.4a14.9 14.9 0 0110.5 5.9 4.2 4.2 0 003.2 1.6h.4a4.3 4.3 0 003.2-2.3 14.8 14.8 0 0113.5-8.8h1.4a14.7 14.7 0 0111.4 7.2 4 4 0 003.1 1.9h.3a4.2 4.2 0 003-1.3 14.6 14.6 0 0111.2-5.1h1.3a14.7 14.7 0 0113.5 16 4.2 4.2 0 001.6 3.5 4.3 4.3 0 002.4.8 3.5 3.5 0 001.4-.3 20.8 20.8 0 0013.5-16.5 79 79 0 0015.8-2.2 71.4 71.4 0 0017.4-6.8c.2-.1.5-.2.6-.4a73.6 73.6 0 0018.7-14.9A56.1 56.1 0 00269 85.5l.9-3.2 63.3-39.6 67.6-4.6a4.1 4.1 0 003.7-3.8 4 4 0 00-3.3-4.1z"/><path class="b" d="M257.5 75a23.4 23.4 0 00-2.6-8.9 28.3 28.3 0 00-5.5-6.9 17.7 17.7 0 00-1.7-1.4l-1.7-1.4-3.7-2.3a54.1 54.1 0 00-15.9-5.7 72 72 0 00-16.7-1.4 74.5 74.5 0 00-32.2 8.4h-.1a78.5 78.5 0 00-17.2 12.3c-.8.8 2.3 2.1 7.8 3.6a82.1 82.1 0 0112.9-9.7 69.8 69.8 0 0114-6.1 64.7 64.7 0 0115.1-2.6c10.2-.6 20.9 1 29.6 5.9l3.2 2 1.4 1.1 1.4 1.3a22.6 22.6 0 014.3 5.6 13.7 13.7 0 011.7 6.5 17.3 17.3 0 01-1.2 6.7 19.6 19.6 0 01-1.7 3.2c4.5.2 7.3-.1 7.6-1.1a23.3 23.3 0 001.2-9.1z"/><path class="b" d="M331.7 28.3a3.4 3.4 0 003.5-3.2 3.6 3.6 0 00-7.1 0 3.4 3.4 0 003.6 3.2zm-127.8 93a56.4 56.4 0 0013.6-1.1 57.3 57.3 0 0014.6-5.6h.1l.3-.2a61.2 61.2 0 0016.3-13.6 48.2 48.2 0 009.6-18.3 34.6 34.6 0 001.2-10 28.3 28.3 0 00-1.9-9.6 26.3 26.3 0 00-5.2-8l-.9-.9a.1.1 0 01-.1-.1l-.3-.2-.5-.4-2-1.6a34.8 34.8 0 00-4.3-2.5 62 62 0 00-20.3-5.3 104 104 0 00-21.6.2 106.1 106.1 0 00-21.4 4.6 72.9 72.9 0 00-19.7 9.9l-32.7-19.8H39.3L4 20l51.1 6.8-8.8-10.7 47.4 10.7-4.4-8.2 35.3 6.1h189l-25-14.9 32.5 4.7L318.8 4l34.7 22.1 47 8-68.6 4.7-65.6 41.1a36.9 36.9 0 01-1.1 4.5 52.8 52.8 0 01-11.8 20.4 71.8 71.8 0 01-17.8 14.2l-.3.2a62.7 62.7 0 01-16.5 6.4 68 68 0 01-15.5 2.1 20 20 0 00.7-4.9 7.6 7.6 0 00-.1-1.5z"/><path class="c" d="M213.8 114.2a21.1 21.1 0 014.5 1 17.2 17.2 0 00-33.1-3.7h-.5a15.1 15.1 0 00-6.7.7 17.1 17.1 0 00-15.6-17c-8.4-.7-15.9 2.7-18.1 10.5-2.7-2.6-6.3-2.3-10.3-2.7a17.2 17.2 0 00-18.3 13.4l-3-.5a17.1 17.1 0 00-18.5 14.9 18.8 18.8 0 0128.5 1.9 18.8 18.8 0 0133.3-1.9 19.1 19.1 0 0115.9-6.3 18.8 18.8 0 0117.1 20 17.3 17.3 0 0011.2-14.5 17 17 0 00-2.2-10 20 20 0 0115.8-5.8zm-90.5 6.7a16.6 16.6 0 00-7-4.2 19.3 19.3 0 0112.1-4.2 17 17 0 00-5.1 8.4zm47-3.7a16.8 16.8 0 00-10.1-4.5 15.4 15.4 0 00-7.7 1.1 10.7 10.7 0 00-1.9-1.8 19.7 19.7 0 0112.2-3 20.1 20.1 0 0111.4 5 17.6 17.6 0 00-3.9 3.2z"/><path class="a" d="M342.5 54.7h-6.2a3.4 3.4 0 00-3.4 3.4 3.5 3.5 0 00-3.5-3.4h-6.7a3.4 3.4 0 00-3.4 3.4v1.2a3.3 3.3 0 00-4-2.2c-6.4 1.5-12.9 6.6-13.8 13.8L300 59.3c-.3-1.6-2.7-2.7-4.3-2.7h-1.8c-4.2-.4-7 3.1-7.4 2.3s-2.1-1.5-3-1.8h-.6a12.7 12.7 0 00-4.5-.9c-9.6 0-15.4 9.1-15.4 24.2s5.8 24.3 15.4 24.3a11.6 11.6 0 004.2-.8l.8-.2a3.5 3.5 0 001.8.5h6.1a3.4 3.4 0 003.4-2.8v.1a3.4 3.4 0 003.4 2.7h6.1l1.2-.2a3.5 3.5 0 003 .5c5.6-1.5 8.8-4.1 10.7-6.9v8.7a3.4 3.4 0 003.4 3.4h6.7a3.5 3.5 0 003.4-3.5 3.5 3.5 0 003.5 3.5h6.2a3.4 3.4 0 003.4-3.4V58.1a3.4 3.4 0 00-3.2-3.4zm-23.9 14.6l.7-.3v8.3a3.6 3.6 0 00-1.9 1.5l-.5-.7c-1.5-2.1-2.8-3.9-2.8-5.6s4.1-3.1 4.5-3.2zM306.4 85c1.3 1.8 2.5 3.5 2.5 4.7s-.5 1.6-2.8 2.4l-2.5-11.5 2.8 4.4z"/><path class="c" d="M58 86.6l-13.1-4.1 10.3-1.4-24.1-4.5 22-1.5-34.9-4.8 39.9-1.4-.1 17.7z"/><path class="d" d="M278.4 99.9c-7.6 0-12-7.7-12-20.8s4.4-20.8 12-20.8a13 13 0 014.1.8l-1.7 4.9a6.7 6.7 0 00-2.4-.4c-4.3 0-6 6.5-6 15.5s1.7 15.4 6 15.4a6.7 6.7 0 002.4-.4l1.7 4.9a13 13 0 01-4.1.9zM298.3 99.4l-.7-3.5H292l-.7 3.5h-6.1l.8-3.5h-2.4l1.2-5.2h2.2l6.9-32h1.8l8.7 40.7zm-3.5-18.6l-1.9 9.9h3.7zM307.7 99.8l-2.4-5.1c3.2-.9 7-2.3 7-6.3s-7.4-9.4-7.4-17.2c0-6 5.4-10.7 11.2-12.1l1.6 5.6c-3 .8-7 2.7-7 6.5 0 5.9 7.5 9.8 7.5 17.2s-4.3 9.7-10.5 11.4zM335.4 106.3V86.7h-5.6v19.6h-7.1V86.7h-2.5v-6.3h2.5V57.8h7.1v22.6h5.6V57.8h7.1v48.5z"/><path class="c" d="M347.9 86.6l13.1-4.1-10.2-1.4 24.1-4.5-22-1.5 34.9-4.8-39.9-1.4v17.7z"/><path fill="none" d="M233 68.2h1.5v6.5H233z"/><path class="a" d="M259.3 101.1a3.7 3.7 0 00.3-2.7l-4.2-11.8c2.3-3.1 3.4-8.2 3.4-12.4 0-10.4-2.6-16.4-11.1-16.4h-10.5a11 11 0 00-2.1-.4H225a3.5 3.5 0 00-1.8.5 3.5 3.5 0 00-1.8-.5h-5.8a3.5 3.5 0 00-3.5 3.5l-4-2.5a3.3 3.3 0 00-3-1.8h-1.5a3.1 3.1 0 00-2.4 1l-1-.2h-5.8a3.5 3.5 0 00-3.4 3.5v5.2l-1.1-8.7h-16.7a3.2 3.2 0 00-2 .7 3.8 3.8 0 00-2.1-.7l-3.3-.4c-1.9 0-4.6 2.7-6 3.9v.3a12.4 12.4 0 00-9.3-3.8h-5.8a3.5 3.5 0 00-3.5 3.5v1a12 12 0 00-9.8-4.5h-5.8a3.5 3.5 0 00-3.5 3.5v16.3l-3.8-17.9a3.5 3.5 0 00-3.4-2.7h-1.8a3.3 3.3 0 00-3.3 2.7l-3.3 15.2c-.6-7.6-2.8-17.5-12.2-17.5-5.3 0-8.4 2.9-10.1 6.8a14.5 14.5 0 00-13.9-9.1h-7a3.5 3.5 0 00-3.5 3.4V106a3.5 3.5 0 003.5 3.4h7a3.3 3.3 0 003.1-2l.2.4a3.4 3.4 0 004.3 2.2l6.9-2.2a3.4 3.4 0 002-1.7l.3-.7h170.5l1.1-2.7-.4-.4a5.3 5.3 0 001-1.2zM82.1 87.2a4.9 4.9 0 00.1 1.2l-.3-.9z"/><path class="d" d="M76.8 106.7l-6.5-19.6V106h-7V58.1h7c8.7 0 12.3 7.1 12.3 16A17.8 17.8 0 0178 86.7l5.8 17.8zm-6.5-42.3v20.4c2.9 0 5-4.3 5-10.7s-1.9-9.7-5-9.7zM94.3 101.1c-6.7 0-9.1-8.9-9.1-20.3s1.5-20.4 9.1-20.4 8.9 8.7 8.9 20.4-2.1 20.3-8.9 20.3zm0-35.5c-2.5 0-3.3 7.2-3.3 15.2s.9 15.1 3.3 15.1 3.1-7.4 3.1-15.1-.5-15.2-3.1-15.2zM117.5 100.7l-.7-3.6h-5.6l-.6 3.6h-6.2l.8-3.6h-2.3l1.2-5.2h2.2l6.8-31.9h1.8l8.7 40.7zM114 82.1l-1.8 9.8h3.6zM131.4 100.7h-5.8V60.9h5.8c6.8 0 10.8 5.2 10.8 19.9s-4 19.9-10.8 19.9zm0-34.6v29.4c3.4 0 5-5.2 5-14.7s-1.6-14.7-5-14.7zM155.9 101.3L150.5 85v15.7h-5.8V60.9h5.8c7.2 0 10.3 5.9 10.3 13.3a15.2 15.2 0 01-3.9 10.5l4.8 14.8zm-5.4-35.2v17c2.5 0 4.2-3.6 4.2-8.9s-1.6-8.1-4.2-8.1zM171.2 101.1c-4.9 0-7.9-3.2-7.9-9.7V60.9h5.8v31.4c0 2.2.7 3.6 2.1 3.6s2-1.5 2-3.6V60.9h5.8v30.5c0 6.4-2.9 9.7-7.8 9.7zM198.8 101.6l-10.5-20.3v19.4h-5.8V60h1.4l10.5 20.2V60.9h5.8v40.7zM220 101.6l-10.5-20.3v19.4h-5.9V60h1.5l10.5 20.2V60.9h5.8v40.7zM225 100.7v-16h-2v-5.2h2V60.9h10.1l1.6 5.2h-5.8v13.4h5.8v5.2h-5.8v10.8h5.8v5.2zM250.5 101.3L245.1 85v15.7h-5.8V60.9h5.8c7.2 0 10.2 5.9 10.2 13.3a15.2 15.2 0 01-3.8 10.5l4.8 14.8zm-5.4-35.2v17c2.4 0 4.2-3.6 4.2-8.9s-1.7-8.1-4.2-8.1zM130.1 16.7l-1-2.3-.5-1.1-.2-.9.1 1v3.3h-2.3V9.8h2.7l.9 2a8.7 8.7 0 00.5 1.2 8.1 8.1 0 01.3 1.1l-.1-.7a7.1 7.1 0 01-.1-1.5V9.8h2.4v6.9zM136.3 16.7V9.8h4.8v1.9h-2.3v.7h2.1v1.7h-2.1v.7h2.4v1.9zM153.1 16.7h-2.9l-.5-2.3v-.6l-.2-.7v1.1l-.5 2.5h-2.9L144 9.8h2.5l.5 2.6v.6a3.5 3.5 0 00.1.6v.4a13.1 13.1 0 01.3-1.5l.5-2.7h2.5l.5 2.3a6 6 0 01.2 1.2l.2 1.2c.1.5.1-.7.1-1.2l.2-.7.5-2.8h2.4zM166.9 16.7v-3.5a10.5 10.5 0 00.1-1.2v.6l-.1.6-.2.8-.7 2.7h-1.5l-.8-2.7-.2-.9v-.6a3.5 3.5 0 00.1.6v3.6h-2.4V9.8h3.4l.8 3.3.8-3.3h3.4v6.9zM172.9 16.7V9.8h4.8v1.9h-2.3v.7h2.1v1.7h-2.1v.7h2.3v1.9zM185.1 16.7l-.4-.9a2.4 2.4 0 01-.5-1v.2l-.2.6-.5 1.1h-2.8l2.2-3.6-2-3.3h2.7l.3.6.2.5.2.5.3-.8.4-.8h2.7l-2 3.3 2.2 3.6zM190.8 16.7V9.8h2.6v6.9zM202.1 16.4a5.9 5.9 0 01-2 .4 3.3 3.3 0 01-3.4-3.6 3.4 3.4 0 013.5-3.6 4.6 4.6 0 012 .5v2.4a2 2 0 00-1.4-.6 1.4 1.4 0 10-.1 2.7 1.7 1.7 0 001.5-.8v2.5zM209.4 16.8c-2.4 0-3.9-1.4-3.9-3.6s1.5-3.6 3.9-3.6a3.5 3.5 0 013.8 3.6 3.5 3.5 0 01-3.8 3.6zm-.1-5a1.3 1.3 0 00-1.1 1.4c0 .9.5 1.4 1.1 1.4s1.2-.5 1.2-1.4a1.3 1.3 0 00-1.2-1.4zM218.5 16.7V9.8h2.5v4.8h2.1v2.1zM230 16.8c-2.4 0-3.9-1.4-3.9-3.6s1.5-3.6 3.9-3.6 3.9 1.4 3.9 3.6-1.6 3.6-3.9 3.6zm0-5c-.7 0-1.1.6-1.1 1.4s.4 1.4 1.1 1.4 1.1-.5 1.1-1.4-.4-1.4-1.1-1.4zM240.8 11.8v4.9h-2.6v-4.9h-1.4v-2h5.4v2zM249 11.8v4.9h-2.6v-4.9h-1.5v-2h5.5v2zM253.5 16.7V9.8h4.8v1.9H256v.7h2.1v1.7H256v.7h2.3v1.9zM265.7 16.7l-1-2.2h-.4v2.2h-2.6V9.8h3.2a4.5 4.5 0 012.3.4 2.2 2.2 0 011 1.8 2 2 0 01-.6 1.4l-.6.5 1.6 2.8zm-.6-5h-.8v1.2h.8c.2 0 .3-.3.3-.5s-.1-.7-.3-.7zM275.6 13.9v2.8H273v-2.8l-2.3-4.1h2.8l.5 1.4v.3a.4.4 0 01.1.3 9.3 9.3 0 01.3-1l.4-1h2.8z"/></svg>