<svg id="Layer_1" data-name="Layer 1" xmlns="http://www.w3.org/2000/svg" viewBox="0 0 246.47 105.9"><defs><style>.cls-3{fill:#fff}</style></defs><path fill="#d31245" d="M.05 39.56h246.42v66.34H.05z"/><path fill="#005596" d="M0 0h246.42v36.26H0z"/><path class="cls-3" d="M12.62 93.44V53.69h5.92v34.56h7.53v5.19H12.62M62.6 59.67c0-5.19 4.08-6.7 7.71-6.7s7.76 1.51 7.76 6.7v27.92c0 5.2-4.08 6.7-7.76 6.7s-7.71-1.51-7.71-6.7zm5.92 27.42c0 2 .62 2.46 1.84 2.46s1.79-.45 1.79-2.46V60.17c0-2-.61-2.46-1.79-2.46s-1.84.44-1.84 2.46v26.92M131.16 53.69v5.19h-5.13v34.56h-5.93V58.88h-5.19v-5.19h16.25M183.38 53.69v5.19h-5.14v34.56h-5.91V58.88h-5.2v-5.19h16.25M220.24 59.6c0-5.19 4.08-6.7 7.71-6.7s7.76 1.51 7.76 6.7v27.92c0 5.2-4.08 6.7-7.76 6.7s-7.71-1.51-7.71-6.7zm5.92 27.4c0 2 .62 2.46 1.84 2.46s1.79-.45 1.79-2.46V60.11c0-2-.62-2.46-1.79-2.46s-1.84.45-1.84 2.46V87M23.37 6.47v22.72h-2.78L14.32 9.5h-.04v19.69h-1.81V6.47h2.86l6.19 19.45h.04V6.47h1.81M46.45 29.19V6.47h8.19v2.52h-6.17v7.3h5.73v2.52h-5.73v7.87h6.3v2.51h-8.32M75.2 6.47h2.16l3 19.7h.04l3.19-19.7h2.63l2.88 19.7h.04l3.24-19.7h2.12l-4.21 22.72h-2.47L84.81 9.5h-.05l-3.21 19.69h-2.47L75.2 6.47M133.88 6.47h2.05l-4.34 14.07v8.65h-2.03v-8.65l-4.27-14.07h2.27l3.1 10.99 3.22-10.99M157.24 20.89v-7.46c0-4.53 1.63-7.42 5-7.42s5 2.89 5 7.42v7.46c0 6.29-1.63 8.78-5 8.78s-5-2.49-5-8.78zm7.93.12v-7.68c0-4.75-2.29-4.91-2.93-4.91s-2.93.16-2.93 4.91V21c0 5 1 6.23 2.93 6.23s2.93-1.23 2.93-6.23M192.14 18.75v10.44h-2V6.47h5.48c2.82 0 3.81 2.83 3.81 5.66 0 2.68-1 4.72-2.91 5.19v.06c1.82.41 2.49 1.29 2.59 5.85a49.53 49.53 0 00.55 5.95h-2.12c-.57-1.57-.44-4.53-.62-7.55-.15-2.77-1.71-2.89-2.4-2.89zm0-2.52h3c1.45 0 2.16-1.79 2.16-3.77 0-1.64-.57-3.46-2.13-3.46h-3.07v7.24M221.79 29.19V6.47h2.03v9.98h.06l5.56-9.98h2.29l-5.77 10.26 6.1 12.46h-2.6l-5.58-11.86h-.06v11.86h-2.03"/></svg>