<svg xmlns="http://www.w3.org/2000/svg" id="Layer_2" data-name="Layer 2" viewBox="0 0 446.38 209.19"><defs><radialGradient id="radial-gradient" cx="-437.54" cy="-415.53" r="1.67" fx="-437.54" fy="-415.53" gradientTransform="translate(10413.01 9864.71) scale(23.56 23.61)" gradientUnits="userSpaceOnUse"><stop offset="0" stop-color="#fff"/><stop offset=".07" stop-color="#fffdf4"/><stop offset=".2" stop-color="#fff8d9"/><stop offset=".37" stop-color="#fff0ad"/><stop offset=".56" stop-color="#ffe570"/><stop offset=".79" stop-color="#ffd723"/><stop offset=".88" stop-color="#ffd100"/></radialGradient><clipPath id="clippath"><ellipse cx="116.01" cy="70.76" rx="50.67" ry="50.71" style="fill:none"/></clipPath><style>.cls-1{fill:#f8d000}.cls-3{fill:#160b8b}.cls-6{fill:#e2211c}.cls-7{fill:#79858b}</style></defs><g id="Layer_1-2" data-name="Layer 1"><path d="m315.24 29.33-6.23-13.82h-.08l-.1 13.31-4-.51V6.39l3.93.41 6.62 13.98h.08l-.06-13.34 4.13.5v21.7l-4.29-.3ZM327.4 12.33v5.59l5.55.49-.07 3.37-5.56-.49-.04 5.59 7.67.77-.03 3.67-11.91-1.19V8.22l11.91 1.49.03 3.38-7.57-.76ZM351.38 33.31 348.2 17.5h-.08l-3.47 15.14-4.07-.41-4.61-22.38 3.9.39 3.1 15.18h.08l3.25-14.53 3.76.38 3.4 15.06h.08l2.75-14.44 3.74.37-4.49 21.47-4.16-.42ZM376.04 35.77l-3.87-.25-.08-9.69-6.16-12.99 4.35.43 4.05 9.55h.08l3.92-8.74 3.9.4-6.2 12.66v8.62ZM396.68 21.67l-.08 11.08c-.03 3.33-2.64 5.1-6.88 4.68-4.24-.42-6.82-2.71-6.8-6.04l.08-11.08c.03-3.33 2.48-5.82 6.72-5.39s6.98 3.43 6.95 6.76Zm-9.44-.91-.08 11.02c-.01 1.58.9 2.52 2.58 2.68s2.6-.59 2.62-2.16l.08-11.02c.01-1.58-.9-2.51-2.58-2.68s-2.61.59-2.62 2.16ZM406.48 33.15l-2.69-.27-.09 5.66-3.51-.35V16.27l6.12.61c4.56.46 7.66 4.18 7.64 7.67v1.51c-.03 2.24-1.74 5.77-3.71 6.42l3.2 7.03-4.28-.43-2.68-5.93Zm-2.69-3.96 2.46.3c2.04.2 3.91-1.52 3.93-3.3V25.1c.02-1.79-1.91-4.19-3.95-4.4l-2.45-.24v8.74ZM431.65 41.33l-5.22-.52-4.12-9.64-1.45-.24-.07 9.31-4.34-.53V17.79l4.34.53.09 9.37 1.65.27 4.68-8.92 4.44.44-5.57 10.51 5.57 11.33Z" class="cls-3"/><g id="c"><path d="M86.06 175.85a307.47 307.47 0 0 1-19.94-7.39c10.73 6.77 24.36 12.84 38.87 17.15a144.66 144.66 0 0 0 19.46 4.68c2.25.37 4 .63 5.99.84l.59-4.2c-13.53-2.02-28.79-5.7-44.97-11.09" class="cls-1"/><path d="m309.26 98.54 16.09.02V95h-16.11l.02 3.54Zm19.64-3.52-.02 5.71 2.54-.03v6.97a40.04 40.04 0 0 0 7.22 12.24c6.03 6.88 14.1 10.61 22.91 10.61.65 0 1.3-.02 1.95-.06 7.92-.49 15.57-4.59 21.34-11.23-5.19 4.54-11.41 7.29-17.8 7.67-.65.04-1.3.06-1.94.06-8.81 0-16.89-3.72-22.91-10.61-7.09-8.1-10.84-19.75-10.83-33.68 0-14.35 3.78-26.39 10.71-34.48l-.6.5c-6.4 5.77-10.7 14.42-12.58 24.95l.02 21.37h-.01Zm46.04-22.51c-1.29-3.54-3.68-5.65-6.57-5.82a7.17 7.17 0 0 0-5.49 2.1c-.67.63-1.3 1.42-1.85 2.32a6.88 6.88 0 0 1 3.79-.87c2.27.14 4.22 1.5 5.59 3.78l9.62.3 13.27-6.21-.34-2.08-.12-.39-17.34 8.45-.57-1.57Zm-195.66 95.04c.18-1.02.4-2.03.68-3.02l5.61-19.49-2.58.15-5.26 18.29 1.55 4.07Z" class="cls-7"/><path d="m361.47 77.36-.2 20.15a9.44 9.44 0 0 0 2.95 2.62h5.94c1.57-.74 2.82-2 3.55-3.57l-8.91.02.18-19.1-3.5-.12ZM278 130.85l-2.77.16.04 3.34 52.6-3.09v-3.35l-49.06 2.89-1.32-97.14-3.6-.37 1.06 77.68 3.05 19.88Zm31.07-65.23 18.08 1.07v-3.77l-18.1-1.06.02 3.76Zm132.35 75.32v-.03c-1.5-1.24-2.79-1.77-4.11-1.67-.25.02-.66.1-.75.45l.42.1 2.4.52c.67.14 1.37.34 2.05.62Zm-8.16 12.84s1.18-.17 1.21-.9v-.03l-.52-.09-2.2-.29a9.96 9.96 0 0 1-3.89-1.34l.57.54c1.71 1.57 3.33 2.29 4.83 2.11Zm-7.1-4c-1.6-1.65-2.66-4.1-2.56-7.52.05-3.31 1.1-6.54 2.99-9.25a14.95 14.95 0 0 0-3.79 3.9l-.78 25.42 4.13-12.54Zm-30.51-46.57-6.03 24.43 22.36-1.32.59-3.38-19.4 1.15 18.9-76.47-2.6-.27-11.59 46.89a47.82 47.82 0 0 1-2.22 8.97Zm31.63 9.86-10.15.4-.59 3.43 7.2-.28 1.27 8.94 19.62-1.16-.62-3.31-15.46.92-1.27-8.94Zm-17.65 30.25c-.02-.63-.02-1.25 0-1.88l.25-9.09-3.46.2-.1 3.72 3.31 7.05Zm-184.86-9.35-20.16 1.18-15.38-47.06a178.1 178.1 0 0 1-1.53-5.88c-.06 1.69-.13 3.37-.23 5.02l-.47 8.46 14.05 43.01 22.84-1.34.88-3.4Zm143.24 40.88c-1.07.14-2.13.22-3.15.22-4.72 0-8.98-1.51-12.24-4.37-4.13-3.63-6.29-9.07-6.25-15.74a25.26 25.26 0 0 1 5.45-15.76 23.88 23.88 0 0 0-7.51 10.69l-.07 17.18a17.42 17.42 0 0 0 4.82 7.16c3.25 2.86 7.52 4.37 12.25 4.37 1.03 0 2.08-.07 3.14-.22a22.86 22.86 0 0 0 14.9-8.35 23.06 23.06 0 0 1-11.35 4.8Zm-94.06-43.76-28.61 1.68-4.98-48.87c-.14.65-.3 1.3-.47 1.94l-2.33 8.95 4.22 41.52 32.67-1.92-.51-3.32Zm19.87 53.09-.53-45.22-3.58.2.33 27.93 1.99-.22.24 17.52-2.03.27.04 3.07 31.87-4.28v-3.07l-28.33 3.8Zm115.76-15.53-6.56-13.12v.73l-.23 9.44 3.24 6.49 12.31-1.66.1-3.09-8.86 1.2Zm24.47-2.75c-3.86.47-7.76-.22-11.23-1.97l-.82-.43-.1 3.49-2.85.38.23.12a19.66 19.66 0 0 0 11.23 1.96 15.01 15.01 0 0 0 10.09-6.16 15 15 0 0 1-6.55 2.62Zm-177.34 23.25-1.17-48.07-3.63.21 1.26 51.41 35.55-4.78-.04-3.07-31.97 4.29Zm132.15-17.73.76-37.92-3.47.2-.14 6.86c1.62 3.33 2.4 7 2.28 10.7a25.4 25.4 0 0 1-2.72 11.11l-.26 12.59 13.85-1.85.07-3.09-10.38 1.4Zm-61.99 8.32-.03-42.69-3.55.2.02 26.19 2.37-.26.03 16.73-2.38.32v3.07l17.32-2.32v-3.08l-13.77 1.85Zm-145.5-43.23-39.42 2.31 13.39-117.84-3.99-.34-13.83 121.71 43.67-2.5.19-3.35Zm-49.03 69.34 8.17-58.26-3.96-.03-8.65 61.63 29.19-3.59.2-3.1-24.94 3.35ZM214.58 76.6c.37-3.04.8-6.06 1.46-8.95l9.12-39.42-2.66-.28-9.72 41.98 1.8 6.67Zm13.54 116.38-1.72-50.3-3.66.21 1.84 53.64 22.8-3.05-.08-3.07-19.17 2.57Zm-27.76 3.74-3.53-23.32-2.78 8.58 2.77 18.28 23.94-3.21-.69-2.99-19.7 2.65Zm-27.42 3.67-10.48-23.03-.17-.46v.02l-.66 9.96 7.77 17.06 15.83-2.14 1.04-3.21-13.33 1.8Z" class="cls-7"/><path d="m157.09 18.76 41.52 4.3 15.93 59.21.91.02c.51-4.73 1.01-9.73 2.04-14.3l9.71-41.96 33.72 3.5 15.35 99.93-29.6 1.74-5.7-56.05-.6-.03c-.54 3.46-1.05 7.03-1.94 10.34l-12.19 46.94-20.59 1.2-15.02-45.96c-1.3-4.76-2.46-9.26-2.92-14.06l-1.27-.04c-.12 4.5-.22 9.13-.48 13.62l-2.67 47.76-39.67 2.32 13.46-118.46Zm121.86 12.63 50.23 5.22v24.94l-21.64-1.27.05 8.98 19.79.86.02 23.4-19.66-.02.06 9.06 22.12-.33v24.06l-49.63 2.92-1.34-97.81Zm118.62 45.09c-.38 12.82-.57 23.5-6.92 33.6-5.82 9.32-14.87 14.79-23.72 15.34-8.99.55-17.39-2.91-23.64-10.05-6.41-7.33-10.46-18.44-10.45-32.69 0-29.29 15.77-45.46 35.09-43.41 10.08 1.08 23.21 9.49 27.15 23.6L376.34 72c-1.54-4.25-4.49-6.61-7.89-6.81-7.75-.42-12.18 8.89-12.24 19.21-.07 9.36 4.04 18.04 11.02 17.93a8.93 8.93 0 0 0 8.52-7.26h-9.47l.2-19.7 31.06 1.12Zm21.78 17.79 3.66-22.74.62.04c.23 3.19.46 6.46.87 9.64l1.63 13.06h-6.79Zm-3.49 17.75 12.72-.5 1.26 8.91 16.55-.98-13.34-72.07-18.91-1.97-19.05 77.05 19.16-1.13 1.6-9.32Z" class="cls-6"/><path d="m227.83 140.75 20.2-1.14 1.36 49-19.83 2.66-1.73-50.52Zm29.16-1.59 18.47-1.04.59 32 14.51-1.59.19 14.55-32.58 4.37-1.18-48.29Zm37.78-2.13 16.32-.93.2 30.15 12.89-1.41.02 13.75-28.9 3.88-.53-45.44Zm33.57-1.91 14.53-.82-.17 41.8-14.33 1.93-.03-42.91Zm62.81-3.55 11.01-.63 9.3 19.82.31-.04c-.35-3.01-.73-6.12-.65-9.24l.3-11.06 10.08-.57-1.08 35.82-9.98 1.34-9.11-18.2-.33.03c.3 2.55.57 4.93.52 7.39l-.29 12.02-10.85 1.46.77-38.14Zm35.76 20.73.49.46c1.72 1.58 3.79 2.77 6.03 2.51.95-.1 2.48-.78 2.54-2.34.05-1.55-1.21-1.55-2.09-1.7l-1.93-.25c-3.82-.48-7.02-3.11-6.85-8.67.27-8.49 6.38-13.58 12.22-13.9 2.99-.17 5.68.65 8.12 2.55l-2.84 8.96c-1.56-1.33-3.34-2.34-5.39-2.17-.85.06-2.1.57-2.16 2-.03 1.3 1.16 1.4 1.88 1.56l2.14.46c3.94.84 6.68 3.38 6.46 9.13-.31 8.04-6.01 12.76-11.67 13.52-3.55.43-7.14-.2-10.33-1.8l3.39-10.32Zm-284.61-6.66 26.45-1.5 10.75 28.19.62-.05c.31-2.42.62-4.98 1.28-7.35l6.29-21.86 23.13-1.3 11.66 50.46-20.84 2.8-4.3-28.3-.41.04c-.35 1.79-.68 3.66-1.27 5.41l-8.02 24.74-13.8 1.86-10.01-22.02a30.53 30.53 0 0 1-1.96-6.75l-.83.07c-.05 2.24-.1 4.54-.25 6.76l-1.58 23.9-25.11 3.38 8.2-58.46Zm226.03-13.42c-10.97.6-20.38 9.68-20.46 22.75-.08 13.24 9.06 19.86 19.94 18.38 10.43-1.4 18.75-9.83 18.98-22.12.23-12.12-7.94-19.6-18.47-19.01" class="cls-3"/><path d="m366.77 148.56 3.14-10.77 3.51 10.25 8.97-.74-6.93 6.67 3.09 9.27-7.99-4.67-9.36 8.95 3.54-12.15-10.34-5.93 12.35-.89Z" style="fill:#fff"/><g style="clip-path:url(#clippath)"><path d="M65.34 20.04h101.31v101.42H65.34V20.04Z" style="fill:url(#radial-gradient)"/></g><path d="M114.68 131.18c-5.15.23-10.3-.02-15.4-.74a47.53 47.53 0 0 0 30.85 6.49 41.62 41.62 0 0 0 20.05-7.37l.44-.32a48.14 48.14 0 0 0 16.75-19.6l.73-1.63.12-.27.37-.82a43.76 43.76 0 0 0 1.63-4.76c-9.69 16.18-30.7 27.92-55.54 29.01" class="cls-1"/><path d="m155.59 69.94.86-9.39-5.11 6.48-7.03-5.06 2.73-8.99 7.64 1.6-5.94-7.15 2.53-8.06-6.34 3.45-6.89-8.32 2.4 10.9-7.29 3.92-5.79-9.56 6.02-7.62-10.27.54-6.94-11.66-.07 12.04-13.58.71L116.19 41l-.15 12.32-14.04-.06-6.83-14.15-4.01 14.08-20.06-.24 17.53 9.17-4.52 15.87 14.37-10.91 12.95 6.87-5.89 13.29-17.69.75 13.42 8.76-7.31 16.1 14.47-11.42 10.76 7.01-2.87-13.42 10.54-8.23 6.7 8.67-6.24 12.43 10.34-7.07 5.9 7.79-.5-11.49 7.96-5.46-8.37-1.8-.42-10.92 8.1-2.03 3.81 8.95.92-10.11 6.53-1.56-5.99-4.26Zm-13.58 8.87L137 88.57l-10.14-2.13-12.23.38-2.8-12.99-5.85-12.39 10.28-7.93 7.09-8.67 9.68 5.08 8.8 1.98 2.26 10.16 3.83 9.21-5.91 7.54Z" class="cls-3"/><path d="M24.38 40.53c-4.57 11.65-2.21 39.56 8.23 58.9a155 155 0 0 0 13.94 23.16c-13.73-14.43-29.31-37.61-35.51-66.65 6.62-9.58 9.12-11.25 13.34-15.41Z" class="cls-6"/><path d="M95.33 16.52a45.44 45.44 0 0 1 6.84-2.11c-5.99-3.37-51.31-27.46-84.68-4.82C-10.7 28.7 2.93 68.34 5.93 76.06c8.2 22.41 24.58 45.16 46.12 64.07 20.89 18.34 45.55 29.63 68.21 35.15l.24-.67c-13.9-6.66-26.52-17.76-39.01-28.73C44.8 113.65 24.95 70.73 33.24 42.42a170.57 170.57 0 0 1 25.89 15.93c.4-1.75.88-3.47 1.44-5.16a173.66 173.66 0 0 0-27.73-16.53l-2.47-1.17-.94 2.56c-5.4 14.67-3.54 33.85 5.24 54.02 8.79 20.18 24.26 40.62 43.52 57.55a192.25 192.25 0 0 0 17.11 13.41 176.9 176.9 0 0 1-39.97-26.67c-20.91-18.37-36.79-40.4-44.74-62.08-2.77-7.13-15.36-43.59 9.68-60.57 9.35-6.34 19.92-8.6 30.24-8.6 18.66 0 36.48 7.37 44.81 11.39Z" class="cls-1"/><path d="M87.54 20.27c-10.45-4.1-26.42-9.99-36.85-9.99s-20.08 2.64-27.75 7.83c-.54.36-1.1.77-1.75 1.29l-.45.36-.07.06c-.36.3-.72.6-1.1.95l-.19.17-.34.31c-.4.4-.8.8-1.2 1.23-.24.25-.46.51-.69.78l-.03.04c-.45.52-.87 1.05-1.28 1.6l-.16.22-.1.14c-5.13 7.23-6.34 16.27-5.83 24.72 1.22-1.9 2.57-3.7 4.06-5.41 4.13-4.72 9.95-10.99 15.85-13.77l3.95 1.87 1.28.6c6.74 3.2 18.93 9.91 27.43 15.19a59.1 59.1 0 0 1 25.19-28.17Z" class="cls-1"/><path d="M54.22 66.84a58.83 58.83 0 0 1 18.91-43.25 49.48 49.48 0 0 0 0 86.51 58.81 58.81 0 0 1-18.91-43.26Z" class="cls-6"/></g></g></svg>