<svg viewBox="0 0 357.76 129.77" xmlns="http://www.w3.org/2000/svg"><defs><style>.cls-4{fill:#fff}.cls-2{fill:#2e73b5}.cls-3{fill:#5a86c0}.cls-5{fill:none;stroke:#fff;stroke-width:3.89px}</style></defs><g id="Layer_2" data-name="Layer 2"><path stroke="#0060a9" stroke-width="2.92" fill="#fff" d="M1.46 1.46H356.3v126.85H1.46z"/><path class="cls-2" d="M69.11 107.95c-6.53 0-11.84 5.27-12.46 14h24.91c-1.44-8.11-5.56-14-12.45-14z"/><path class="cls-2" d="M155.75 96.49c0-21.79-18.45-34.71-51-34.71l14.54-54H87.36a152.34 152.34 0 01-13.91 14.54C65.69 29.63 58 37.08 52.28 42.83h29.28c8.35 0 12.7-3.53 15.4-11.1h4.58l-7.28 23.51H41.11v-8.89c4.35-5.62 10.23-11.24 15.76-17.11s12.22-13.41 17-21.41H8v8.66c14.66 1.14 26.65 8.79 26.65 23.42C34.69 55.36 21.33 63 15.27 64.7v.3C27 70.82 40.61 78.47 40.61 96.69c0 11.22-5.72 20-14.82 25.22h16.63v-2.15c.42-25.25 20.3-49.21 48.18-51.2v5.84c-18.94-.35-30 15.78-32.93 34 4.31-3.51 9-7 16.94-7 10.05 0 19.16 6.46 20.78 20.5h8.76l-5.54-15.81c-.5-1.29-.83-2.58.33-4.06l5-5.91c1-1.11 2.16-2.21 3-.55l9.31 16.25c2.25 3.81 5 8 10.68 10.08h15.26c7.81-3.28 13.56-12.35 13.56-25.41zM235.75 115.86V79.22c-7.44 7.9-18.21 26-23.82 36.64zM294.08 64.6c-9.94 0-13.86 11.42-13.86 20.79 0 12.58 4.62 23.11 14.33 23.11 7.39 0 13.75-6.55 13.75-17.2.7-16.43-6.36-26.7-14.22-26.7zM309.23 40c3.87 0 12.63-.41 13.74-32.19h-27.39c1.1 31.81 9.78 32.19 13.65 32.19z"/><path class="cls-2" d="M337.54 7.83c-2.07 22.62-13.21 36.33-28.31 36.33S283.09 30.45 281 7.83h-9.45c-3.23 4.07-8.23 6.76-14.14 8.06v.22c12.21 1.21 21.24 8.82 21.44 20.84.2 14.89-13.3 22.72-28 22.72-7.45-.22-15.29-3.31-17.27-4.85l-3.37-9.37a1.49 1.49 0 01.5-2l2.78-2.32c1-1.1 1.79-1.32 2.28-.66l5.18 8.53c2.38 3.64 6 6.84 10.72 6.84 6.85 0 12.31-7.5 12.31-18.42 0-19.85-16.48-17.54-21.34-17.54v-5.31c7.17-.27 12.31-2.54 15.26-6.74h-23.38V10c-7.11 16.86-17.46 41.22-38.42 87.25h-15.3c12.89-22.18 28.55-53.25 40.83-79.59h-24c-4 0-11.68-.27-13 6.69h-3.25V7.83h-15.5l-2.82 8.53h-37.73l-6.15 23.26c37.89 0 55.17 23.63 55.17 48.38a40.75 40.75 0 01-17.28 33.9H203l-.24-.78c4.63-9.46 26-41.79 35-54.72h12.29v49.45h10.24v6h42.37a57.32 57.32 0 003.9-13.85l-.23-.26c-3.93 4.11-9.24 8-17.91 8-12.13 0-23.22-8.73-23.11-27.86.12-15.66 11.21-29 29.46-29 15.6 0 29.23 11.17 28.88 34.92a60.13 60.13 0 01-7.65 28.1h33.52V116h-19.14v-3.67c8-.71 12.26-.95 12.69-3.67a60.62 60.62 0 00.43-9.36V49.39c0-7.23-6.08-5.21-10.34-3.55l-5 2-1.16-4.61 22.57-8.53V7.83zM9.2 60.87c5.8-3.06 10.89-10.41 10.89-20.81 0-9.41-4.35-16.52-12-18.26v38.52zM22.7 101c0-9.78-6.82-15.8-14.66-20.59v41.31C17 119.84 22.7 111.81 22.7 101z"/><path class="cls-3" d="M309.23 44.16c15.09 0 26.24-13.71 28.31-36.33H323C321.86 39.62 313.1 40 309.23 40s-12.54-.41-13.64-32.19H281c2.09 22.64 13.23 36.35 28.23 36.35zM294.78 58.83c-18.25 0-29.34 13.35-29.46 29-.12 19.13 11 27.86 23.11 27.86 8.66 0 14-3.85 17.91-8l.23.26a57.32 57.32 0 01-3.86 13.91H316a60.13 60.13 0 007.65-28.16c.35-23.7-13.28-34.87-28.87-34.87zm13.51 32.47c0 10.65-6.35 17.2-13.75 17.2-9.71 0-14.33-10.53-14.33-23.11 0-9.37 3.93-20.79 13.86-20.79 7.87 0 14.93 10.27 14.22 26.7zM174.36 88c0-24.74-17.28-48.38-55.17-48.38l6.15-23.26h37.72l2.82-8.53h-46.61l-14.54 54c32.57 0 51 12.92 51 34.71 0 13.06-5.75 22.13-13.61 25.41h14.95A40.75 40.75 0 00174.36 88zM116.2 111.82l-9.31-16.25c-.83-1.66-2-.55-3 .55l-5 5.91c-1.16 1.48-.83 2.77-.33 4.06l5.54 15.81h22.75c-5.64-2.09-8.41-6.27-10.65-10.08zM328.14 47.85l5-2c4.26-1.66 10.34-3.67 10.34 3.55v49.86a60.62 60.62 0 01-.43 9.36c-.43 2.73-4.69 3-12.69 3.67V116h19.15V34.7L327 43.23zM40.61 96.69C40.61 78.47 27 70.82 15.27 65v-.3c6.06-1.7 19.42-9.34 19.42-24.8 0-14.63-12-22.27-26.65-23.42v5.32c7.7 1.74 12 8.84 12 18.26 0 10.41-5.1 17.75-10.88 20.82L8 60.32v20.06c7.88 4.8 14.7 10.82 14.7 20.62 0 10.81-5.7 18.84-14.7 20.69v.21h17.79c9.1-5.19 14.82-13.99 14.82-25.21zM74.58 101.4c-7.89 0-12.62 3.51-16.94 7 2.95-18.23 14-34.36 32.93-34v-5.84c-27.88 2-47.76 25.95-48.18 51.2v2.15h14.27c.62-8.69 5.93-14 12.46-14 6.93 0 11 5.89 12.45 14h13.8c-1.62-14.04-10.73-20.51-20.79-20.51zM184.66 24.35c1.33-7 9-6.69 13-6.69h24C209.35 44 193.69 75.07 180.8 97.28h15.3c21-46 31.31-70.39 38.42-87.25v-2.2h-53.11v16.52zM250.08 115.86V66.41H237.8c-9.05 12.93-30.39 45.26-35 54.72l.24.78h57.31v-6zm-14.33 0h-23.81c5.6-10.66 16.38-28.74 23.82-36.64zM242.64 14.57v5.29c4.86 0 21.34-2.32 21.34 17.54 0 10.92-5.46 18.42-12.31 18.42-4.76 0-8.34-3.2-10.72-6.84l-5.16-8.49c-.5-.66-1.29-.44-2.28.66l-2.78 2.32a1.49 1.49 0 00-.5 2l3.37 9.37c2 1.54 9.83 4.63 17.27 4.85 14.69 0 28.19-7.83 28-22.72-.2-12-9.23-19.63-21.44-20.84v-.22c5.91-1.3 10.91-4 14.14-8.06H257.9c-2.95 4.15-8.1 6.45-15.26 6.72zM41.11 46.35v8.88h53.15l7.29-23.52H97c-2.7 7.58-7.06 11.1-15.4 11.1H52.28c5.76-5.75 13.4-13.2 21.17-20.51A152.34 152.34 0 0087.36 7.83H73.89c-4.8 8-11.51 15.43-17 21.41s-11.43 11.5-15.78 17.11z"/><path class="cls-4" d="M135.31 123.27a17.62 17.62 0 006.83-1.36h-15.27a24 24 0 008.44 1.36z"/><path class="cls-5" d="M56.04 5.41v119.66M105.87 5.41v119.66M158.04 5.41v119.66M205.52 5.41v119.66M251.46 5.41v119.66M301.29 5.41v119.66"/><path class="cls-4" d="M14.79 23.54H29L36.53 80h.15V23.54h10.47v83H33.84l-8.43-59.3h-.15v59.26H14.79zM96 79.89c0 21.5-6.18 28.24-15.2 28.24s-15.2-6.74-15.2-28.24V23.54h11.76v55.19c0 6.51 0 10.57 3.42 10.57s3.42-4.07 3.42-10.57V23.54H96zM141.25 37.48h-.15l-5.45 69h-7.27l-5.45-69h-.15v69h-10.9v-83H129L132.09 68h.15l3.34-44.5h16.58v83h-10.91zM167.61 23.54h16.94c8.14 0 11.85 6.62 11.85 19.75 0 9.06-1.6 17.89-8.14 20.1v.23c7 1 8.73 9.41 8.73 19.05 0 16.15-6.33 23.82-15.71 23.82h-13.67zm10.9 32.65h2c2.69 0 4.07-2.56 4.07-8.25s-1.38-7.67-4-7.67h-2.11zm0 33.58h2c3.13 0 4.65-2.67 4.65-8.71s-1.53-8.83-4.65-8.83h-2zM215.88 23.54h25.23v18.12h-13.45v14.41h13.45V74.2h-13.45v14.17h13.45v18.13h-25.23zM273.19 71.64H273v34.86h-11.3v-83h16.36c8.58 0 12.87 7.32 12.87 23.35 0 9.76-1.17 20.1-7.42 22.78l8.22 36.83h-12zM273 58.39h2.25c3.05 0 3.85-5.11 3.85-8.83 0-6-1.16-8.6-4.65-8.6H273zM313.28 80.94c2 5.46 5.82 9.06 9.53 9.06 4.44 0 5.38-3.25 5.38-6.85 0-12.2-16.07-10-16.07-36.37 0-15.69 5-24.87 14.32-24.87 5.45 0 8.44 2.32 11.42 7.67v19.87c-1.75-5.34-5.24-8.71-8.87-8.71-2.91 0-5.53 1.51-5.53 6.62 0 9.64 15.63 8.95 15.63 34.39 0 17.31-5.31 26.38-15.49 26.38-3.71 0-7.63-2.56-10.33-6.86z"/></g></svg>