<svg viewBox="20.147 0.005 247.725 140.726" xmlns="http://www.w3.org/2000/svg"><path fill="#ffd200" d="M20.147 140.335L20.37.005l247.5.396-.224 140.33z"/><path fill="#ffe363" d="M23.42 3.72h240.5v133.17H23.42z"/><path fill="#231f20" d="M22.42 2.88h242.67v18H22.42z"/><path d="M36.99 17V7.38h4.67l2.16 3.9a19.184 19.184 0 011.32 2.78 10.23 10.23 0 01-.28-1.44 14.785 14.785 0 01-.08-1.67V7.38h4V17h-4.5l-2.39-4.13c-.253-.433-.487-.88-.7-1.34-.213-.46-.41-.943-.59-1.45.12.72.213 1.387.28 2 .067.613.1 1.207.1 1.78V17h-3.99zM68.25 17V7.38h9.32v1.86h-5.15v1.91h4.55V13h-4.55v2.15h5.31V17h-9.48zM98.55 17L95.4 7.38h4.37l.79 3.84a.706.706 0 000 .13c.233 1.06.44 2.153.62 3.28.08-.72.163-1.387.25-2s.163-1.083.23-1.41l.85-3.86h4.13l.83 3.81c.053.287.123.743.21 1.37.087.627.17 1.31.25 2.05.107-.847.293-1.883.56-3.11l.08-.37.83-3.77h4.26L110.53 17h-4.74l-.84-4.08c-.047-.207-.1-.563-.16-1.07-.06-.507-.123-1.067-.19-1.68-.073.447-.153.897-.24 1.35s-.183.93-.29 1.43l-.85 4-4.67.05zM156.97 17v-3.79l-3.53-5.83h4.43l.71 1.78c.127.333.227.627.3.88.069.253.122.51.16.77a7.631 7.631 0 01.45-1.53l.73-1.88h4.3l-3.38 5.65V17h-4.17zM182.35 10.21A2.39 2.39 0 01183.73 8a11.785 11.785 0 018.23 0 2.39 2.39 0 011.37 2.23v3.95a2.401 2.401 0 01-1.37 2.23 11.647 11.647 0 01-8.22 0 2.4 2.4 0 01-1.39-2.23v-3.97zm4.21-.35v4.66a.77.77 0 00.3.68 1.75 1.75 0 001 .21c.347.032.695-.041 1-.21a.77.77 0 00.3-.68V9.86a.77.77 0 00-.31-.68 1.766 1.766 0 00-1-.21 1.677 1.677 0 00-1 .21.78.78 0 00-.29.68zM212.51 17V7.38h6a8.995 8.995 0 013.48.51 1.65 1.65 0 011.15 1.54v.64a1.44 1.44 0 01-.53 1.18 4.103 4.103 0 01-1.74.67c.622.061 1.22.274 1.74.62.358.293.555.738.53 1.2V16c-.01.211.021.421.09.62.065.157.168.294.3.4h-4.21a.85.85 0 01-.22-.4 2.825 2.825 0 01-.07-.71V14a1.002 1.002 0 00-.47-1 5.12 5.12 0 00-1.9-.24V17h-4.15zm4.12-5.74a6.66 6.66 0 001.88-.21.65.65 0 00.5-.64v-.55a.67.67 0 00-.47-.66 5.474 5.474 0 00-1.75-.2h-.16v2.26zM242.39 17V7.38h4.12v4.17c.031-.159.082-.313.15-.46.069-.151.153-.295.25-.43l2.35-3.29h4.42l-3.75 4 3.76 5.63h-4.37l-2-3.56-.85.86V17h-4.08z" fill="#fff"/><path d="M236.2 33c-10.45 0-11.81 33.45-11.81 45.87 0 9.84 1.23 43.29 12.3 43.29 10.21 0 12.18-29.52 12.18-44 0-11.83-1.23-45.16-12.67-45.16zm.61 86.72c-6.23-.07-6.15-19.71-6.15-42.2 0-25 .81-42.68 6-42.68 4.53 0 5.8 17.73 5.8 42.68.02 20.94-.06 42.27-5.64 42.21l-.01-.01zM195.53 34.53h11.56v84.53h4.92v1.97h-15.5v-1.85h4.92V36.37h-5.9zM140.89 34.72h15.5v1.85h-5.05v37.14l11.32-37.26h-4.31V34.6h11.32v1.97h-4.68l-10.82 36.16 14.76 46.36h4.67v1.85h-9.96l-12.17-38.37v36.4h4.92v1.97h-15.5v-1.85h4.92V36.57h-4.92zM126.75 34.6h1.39v32.59h-1.84s-.25-32.59-9.22-32.59c-4.43 0-6.06 10.8-6.06 43 0 39.21 2.52 41.82 6.43 41.82 8.85 0 9-40 9-40h2.09s1.35 42.68-11.81 42.68c-16.78.07-16.17-89.1-.19-89.1 6 0 6.4 4.92 7.62 4.8s2.59-3.2 2.59-3.2zM76.45 34.72h15.37v1.85H86.9v82.4h4.92v2.09h-15.5v-1.97h4.92v-82.4h-4.8zM62.31 40.22c-4.18-5.81-8.75-5.69-8.75-5.69H39.05v2.27h4.92v82.28h-5v2h15.5v-1.72h-5V78.51s4-.2 5.9-1.47c14.11-9.7 11.67-30.24 6.94-36.82zm-4.93 30.3c-3.46 6.74-8 5.66-8 5.66V36.82s4.23-.25 6.27.74c5.69 2.76 4.67 27.23 1.73 32.95v.01z" fill="#231f20"/></svg>