<svg viewBox="0 0 363.25 100.61" xmlns="http://www.w3.org/2000/svg"><defs><style>.cls-1,.cls-11{fill:#fff}.cls-2,.cls-5{fill:none;stroke:#231f20}.cls-2{stroke-width:1.91px}.cls-12,.cls-4{fill:#231f20}.cls-5{stroke-width:.89px}.cls-11,.cls-12{fill-rule:evenodd}</style></defs><path class="cls-1" d="M58.23 49.81a28.64 28.64 0 11-28.64-28.64 28.64 28.64 0 0128.64 28.64"/><circle class="cls-2" cx="29.59" cy="49.81" r="28.64"/><path class="cls-1" d="M119.24 49.81A28.64 28.64 0 1190.6 21.17a28.64 28.64 0 0128.64 28.64"/><circle class="cls-2" cx="90.6" cy="49.81" r="28.64"/><path class="cls-1" d="M180.24 49.81a28.64 28.64 0 11-28.64-28.64 28.64 28.64 0 0128.64 28.64"/><circle class="cls-2" cx="151.6" cy="49.81" r="28.64"/><path class="cls-1" d="M241.24 49.81a28.64 28.64 0 11-28.64-28.64 28.64 28.64 0 0128.64 28.64"/><circle class="cls-2" cx="212.6" cy="49.81" r="28.64"/><path class="cls-1" d="M302.25 49.81a28.64 28.64 0 11-28.65-28.64 28.64 28.64 0 0128.64 28.64"/><circle class="cls-2" cx="273.6" cy="49.81" r="28.64"/><path d="M363.25 49.81a28.64 28.64 0 11-28.64-28.64 28.64 28.64 0 0128.64 28.64" fill="#e31837"/><path class="cls-4" d="M18.41 66.13c-2-15.87-1.12-24.92.92-33.05 5.09-.56 8.67-.2 13.76-.16 9 .18 13.89 5.1 14.14 11.47.18 6.72-4.3 11.3-13.74 11.42h-5.46q0 5.15.17 10.31a93.89 93.89 0 01-9.79 0m14.11-18.06c2.54 0 5-1.46 5-4.3 0-3.08-4-3.58-6.31-3.56h-3c0 2.45-.16 5.38-.17 7.84h4.52"/><path class="cls-5" d="M18.41 66.13c-2-15.87-1.12-24.92.92-33.05 5.09-.56 8.67-.2 13.76-.16 9 .18 13.89 5.1 14.14 11.47.18 6.72-4.3 11.3-13.74 11.42h-5.46q0 5.15.17 10.31a93.89 93.89 0 01-9.79.01zm14.11-18.07c2.54 0 5-1.46 5-4.3 0-3.08-4-3.58-6.31-3.56h-3c0 2.45-.16 5.38-.17 7.84z"/><path class="cls-4" d="M107.6 48.88a17.17 17.17 0 01-17.15 17.36c-9.56-.11-17-7.06-17.1-17.45a17.12 17.12 0 0134.25.09m-23.54 0c0 4.13 1.36 9.36 6.4 9.39 4.54 0 6.44-4 6.44-9.39 0-4.4-1.9-9.15-6.53-9s-6.31 4.94-6.31 9"/><path d="M107.6 48.88a17.17 17.17 0 01-17.15 17.36c-9.56-.11-17-7.06-17.1-17.45a17.12 17.12 0 0134.25.09zm-23.54 0c0 4.13 1.36 9.36 6.4 9.39 4.54 0 6.44-4 6.44-9.39 0-4.4-1.9-9.15-6.53-9s-6.31 4.9-6.31 8.99z" stroke-width=".88" fill="none" stroke="#231f20"/><path class="cls-4" d="M160.05 53h.1c1.56-6.95 2.6-12.67 2.17-19.31 4.27.1 4.48.1 7.63.2 2 9.26-.74 20.84-6.2 32.14-3.46.1-5.87 0-9 .11-.65-6.57-2-13.22-3.35-19.87h-.1C150 53 148.64 59.6 148 66.17c-3.68.09-3.89.09-8.16 0-5.46-11.3-8.95-22.48-6.3-32.44 3.86.1 4 0 7.22 0A64.17 64.17 0 00142.6 53h.1c1.08-6.88 3.2-12.41 4.93-19.51a73.43 73.43 0 017.88 0c1.73 7.11 3.47 12.63 4.55 19.51"/><path d="M160.05 53h.1c1.56-6.95 2.6-12.67 2.17-19.31 4.27.1 4.48.1 7.63.2 2 9.26-.74 20.84-6.2 32.14-3.46.1-5.87 0-9 .11-.65-6.57-2-13.22-3.35-19.87h-.1C150 53 148.64 59.6 148 66.17c-3.68.09-3.89.09-8.16 0-5.46-11.3-8.95-22.48-6.3-32.44 3.86.1 4 0 7.22 0A64.17 64.17 0 00142.6 53h.1c1.08-6.88 3.2-12.41 4.93-19.51a73.43 73.43 0 017.88 0c1.72 7.13 3.49 12.66 4.54 19.51z" stroke-width=".82" fill="none" stroke="#231f20"/><path class="cls-4" d="M201.47 65.34a71.65 71.65 0 010-31.66 82.9 82.9 0 0123.42 0 37.47 37.47 0 012 7.22c-5.69-.1-10.8-.34-16.14-.26v4.77q6.87 0 13.74.12.07 3.77 0 7.55-6.87.15-13.74.11v5.23q8.34.12 16.68-.44A26.25 26.25 0 01226 65.4a86.76 86.76 0 01-24.54-.05"/><path class="cls-5" d="M201.47 65.34a71.65 71.65 0 010-31.66 82.9 82.9 0 0123.42 0 37.47 37.47 0 012 7.22c-5.69-.1-10.8-.34-16.14-.26v4.77q6.87 0 13.74.12.07 3.77 0 7.55-6.87.15-13.74.11v5.23q8.34.12 16.68-.44A26.25 26.25 0 01226 65.4a86.76 86.76 0 01-24.53-.06z"/><path class="cls-4" d="M269.71 54.21c.06 4 .11 8 .31 12a42.77 42.77 0 01-9.15-.61c-3.35-10.48-2.44-22.37.92-32.34 4.9-.94 7.92-.79 12.82-.8 10.25.24 13.92 4.35 14.44 10.36.25 3.67-1.63 6.5-5.6 7.63 3.53 1.29 6.33 2.28 5.81 8.71a47 47 0 01-.76 5.07c-.12.64-.23 1.18-.29 1.51-3.77.51-5.68.27-9.13.47a22.29 22.29 0 01-.2-5.34c.12-4.48-.64-6.6-5.79-6.62h-3.37m0-6.82h4.38c3.44 0 5.28-.85 5.24-3.22s-1.92-3.63-4.44-3.63q-2.53 0-5.07.07-.09 3.4-.11 6.8"/><path d="M269.71 54.21c.06 4 .11 8 .31 12a42.77 42.77 0 01-9.15-.61c-3.35-10.48-2.44-22.37.92-32.34 4.9-.94 7.92-.79 12.82-.8 10.25.24 13.92 4.35 14.44 10.36.25 3.67-1.63 6.5-5.6 7.63 3.53 1.29 6.33 2.28 5.81 8.71a47 47 0 01-.76 5.07c-.12.64-.23 1.18-.29 1.51-3.77.51-5.68.27-9.13.47a22.29 22.29 0 01-.2-5.34c.12-4.48-.64-6.6-5.79-6.62zm0-6.82h4.38c3.44 0 5.28-.85 5.24-3.22s-1.92-3.63-4.44-3.63q-2.53 0-5.07.07-.1 3.39-.13 6.78z" stroke-width=".88" fill="none" stroke="#231f20"/><path class="cls-1" d="M312 59.14c-2.2-7.12-1.73-13.41 0-20 1.83-.11 3.66-.2 5.5-.27 2.6-.11 4.28 1 3.82 5.19a7.81 7.81 0 01-1.9 4.6c1.35.61 2.06 2.61 2.24 4.93.39 4.78-1.08 6.33-4.07 6.07q-2.81-.23-5.61-.52m2.6-15.43a31 31 0 00-.41 3.42h1.7c.82 0 1.43-.59 1.55-1.81.18-1.62-.57-1.65-1.43-1.64h-1.41m-.44 7.16a32.07 32.07 0 00.42 3.81l1.75.09c1 .05 1.66-.26 1.52-1.84-.15-1.84-1.08-2-2.39-2h-1.3M322.51 59.28c.1-6.74 2.47-13.6 5.23-20.51q2.43 0 4.87-.06c1.31 6.91 3.68 13.85 5.23 20.77h-4.76l-.72-2.74h-5q-.14 1.36-.2 2.71l-4.69-.12M329.68 45c-.63 2.48-1.2 4.95-1.63 7.41h3.27c-.62-2.48-1.19-5-1.64-7.43M339.47 59.59a191.43 191.43 0 000-20.72l4.43.06a78.49 78.49 0 01.49 15.79q3.24 0 6.47-.09a42.8 42.8 0 01-.87 4.73q-5.26.18-10.52.22M351.25 59.28a47.55 47.55 0 00.08-20.18c1.14.06 2.51.21 3.65.29a34.85 34.85 0 01.68 15c1.66-.06 3 0 4.66 0a31.38 31.38 0 01-1.59 4.56c-2.69.24-4.77.26-7.47.4M218.12 83.71h143.81V100H218.12z"/><path stroke-width="1.22" stroke-miterlimit="2.61" fill="none" stroke="#231f20" d="M218.12 83.71h143.81V100H218.12z"/><path class="cls-4" d="M218.29 83.71h84.67V100h-84.67z"/><path stroke-width=".2" stroke-miterlimit="2.61" fill="none" stroke="#231f20" d="M218.29 83.71h84.67V100h-84.67z"/><path class="cls-11" d="M221.92 85.41h6.78a4.63 4.63 0 013.3 1.05 4 4 0 011.1 3 4.07 4.07 0 01-1.2 3.13 5.22 5.22 0 01-3.67 1.13H226v4.9h-4.1zM226 91h1a2.57 2.57 0 001.66-.41 1.33 1.33 0 00.47-1 1.46 1.46 0 00-.41-1.05 2.13 2.13 0 00-1.56-.43H226zM236.06 91.78a6.25 6.25 0 016.82-6.83 6.9 6.9 0 015.12 1.77 6.67 6.67 0 011.78 5 8.12 8.12 0 01-.78 3.8 5.55 5.55 0 01-2.25 2.31 7.42 7.42 0 01-3.67.82 8.47 8.47 0 01-3.7-.71 5.61 5.61 0 01-2.38-2.31 7.5 7.5 0 01-.91-3.85m4.08 0a4.44 4.44 0 00.74 2.88 2.81 2.81 0 004.06 0 4.88 4.88 0 00.72-3.07 4.09 4.09 0 00-.75-2.73 2.57 2.57 0 00-2-.86 2.47 2.47 0 00-2 .87 4.43 4.43 0 00-.75 2.89M251.78 85.4h3.88l1.39 7.38 2.04-7.38h3.86l2.05 7.38 1.39-7.38h3.86l-2.91 13.21h-4l-2.32-8.31-2.3 8.31h-4l-2.94-13.21zM273.77 85.4h10.93v2.82h-6.84v2.09h6.35v2.7h-6.35v2.6h7.04v2.99h-11.13V85.4zM288.56 98.57v-13.2h6.8a9.8 9.8 0 012.89.33 3.06 3.06 0 011.61 1.2 3.64 3.64 0 01.61 2.14 3.53 3.53 0 01-1.76 3.19 4.94 4.94 0 01-1.43.52 4.11 4.11 0 011.06.49 4.48 4.48 0 01.65.69 5.41 5.41 0 01.57.82l2 3.83h-4.61l-2.18-4a3 3 0 00-.74-1 1.7 1.7 0 00-1-.31h-.36v5.36zm4.1-7.85h1.72a6.32 6.32 0 001.08-.18 1.1 1.1 0 00.66-.42 1.23 1.23 0 00.25-.77 1.21 1.21 0 00-.4-1 2.45 2.45 0 00-1.52-.34h-1.79z"/><path class="cls-12" d="M311.13 86.76v5h2.18a4.74 4.74 0 002.68-.6 2.11 2.11 0 00.87-1.86 2.19 2.19 0 00-.87-1.92 5.003 5.003 0 00-2.8-.61zm-1.47-1.29h3.19a15.56 15.56 0 012.2.12c.476.062.939.2 1.37.41a3.87 3.87 0 011.52 1.36c.356.562.54 1.215.53 1.88a3.645 3.645 0 01-.48 1.83 3.576 3.576 0 01-1.34 1.34 4.45 4.45 0 01-1.43.51c-.7.117-1.41.17-2.12.16h-2v5.51h-1.47zM328.66 98.56h-6.77V85.45h1.49v11.84h5.28v1.27zM333.43 98.6h-1.56l5.82-13.11h1.77l5.81 13.11h-1.58l-1.79-4.11h-6.68zm8-5.3l-2.85-6.58-2.81 6.58zM351.48 93.74v4.82h-1.45v-4.84l-4.79-8.28h1.69l3.83 6.81 3.87-6.81h1.64l-4.79 8.3z"/><path class="cls-4" d="M2.56.33h1.99l7.41 11.41H12V.33h1.77V14.4h-2.05L4.38 3.11h-.04V14.4H2.56V.33zM18.12.33h9.71v1.58h-7.84v4.47h7.31v1.58h-7.31v4.86h7.9v1.58h-9.77V.33zM45.81 14.4h-1.95L40.65 2.58h-.04L37.36 14.4h-1.95L31.81.33h1.91l2.76 11.71h.04L39.66.33h2.03l3.12 11.71h.04L47.7.33h1.88L45.81 14.4zM66.9 8.65v5.75h-1.87V8.65L59.59.33h2.23l4.21 6.7 4.12-6.7h2.13L66.9 8.65zM80.79 0c4.47 0 6.74 3.55 6.74 7.37s-2.27 7.37-6.74 7.37S74 11.19 74 7.37 76.31 0 80.79 0m0 13.16c3.43 0 4.87-3 4.87-5.79s-1.44-5.79-4.87-5.79-4.87 3-4.87 5.79 1.44 5.79 4.87 5.79M91.8.33h6.62c2.64 0 4.28 1.44 4.28 3.69a3.37 3.37 0 01-2.44 3.56c1.64.32 2 1.52 2.11 2.9s0 2.91.83 3.88h-2.1c-.53-.57-.23-2.09-.51-3.47s-.53-2.54-2.35-2.54h-4.57v6H91.8zm5.77 6.48c1.75 0 3.25-.45 3.25-2.5a2.23 2.23 0 00-2.5-2.4h-4.65v4.91zM107.84.33h1.87v7.02l7.13-7.02h2.42l-5.92 5.68 6.16 8.39h-2.36l-5.08-7.11-2.35 2.19v4.92h-1.87V.33zM131.63.33h1.87v12.49h7.45v1.58h-9.32V.33zM150.31 0c4.47 0 6.69 3.55 6.69 7.37s-2.26 7.37-6.74 7.37-6.74-3.55-6.74-7.37S145.84 0 150.31 0m0 13.16c3.43 0 4.87-3 4.87-5.79s-1.44-5.79-4.87-5.79-4.87 3-4.87 5.79 1.44 5.79 4.87 5.79M164.31 1.91h-4.69V.33h11.25v1.58h-4.69V14.4h-1.87V1.91zM178.57 1.91h-4.69V.33h11.25v1.58h-4.69V14.4h-1.87V1.91zM189.64.33h9.71v1.58h-7.84v4.47h7.31v1.58h-7.31v4.86h7.9v1.58h-9.77V.33zM204.63.34h6.62c2.64 0 4.28 1.44 4.28 3.68a3.37 3.37 0 01-2.44 3.57c1.64.31 2 1.52 2.11 2.9s0 2.91.83 3.88h-2.09c-.53-.57-.24-2.09-.51-3.47s-.54-2.54-2.34-2.54h-4.59v6h-1.87zm5.77 6.48c1.75 0 3.25-.45 3.25-2.5a2.23 2.23 0 00-2.5-2.4h-4.65v4.9zM225.37 8.65v5.75h-1.87V8.65L218.06.33h2.23l4.21 6.7 4.12-6.7h2.13l-5.38 8.32zM233.47.34h2.19v2.19c0 1.56-.65 2.9-2.17 2.9v-1c.88 0 1.14-1 1.14-1.91h-1.16zM247 4.46c-.22-2-1.56-2.88-3.49-2.88-1.58 0-3.15.57-3.15 2.4s2.25 2 4.51 2.5 4.49 1.3 4.49 4.06c0 3-2.94 4.2-5.49 4.2-3.15 0-5.81-1.54-5.81-5h1.77c0 2.36 2 3.39 4.1 3.39 1.69 0 3.57-.53 3.57-2.56s-2.24-2.23-4.5-2.72-4.5-1.15-4.5-3.73c0-2.86 2.5-4.12 5.1-4.12 2.88 0 5.06 1.36 5.18 4.45z"/></svg>