<svg viewBox="0 0 255.15 100.27" xmlns="http://www.w3.org/2000/svg"><defs><style>.cls-2{fill:#fff}</style></defs><path fill="#00928f" d="M162.51 91.23H0L19.22 8.19h162.51l-19.22 83.04z"/><path class="cls-2" d="M34.16 39.31v31.23H22.75V39.31H11.23v-9.94h34.46v9.94zM73.33 70.54L71.1 63.3H58.74l-2.23 7.23H44.28l14.94-41.16h11.52l14.94 41.17zm-5.76-19c-1.47-5.29-2.12-7.54-2.65-10.29-.53 2.76-1.18 5.06-2.65 10.29l-.76 2.7h6.82zM113.61 70.54l-10.4-14.08v14.08H91.56V29.37h11.65v4.82c0 3.47-.06 6.47-.18 9.47 1.71-2.71 11-14.29 11-14.29h14.14l-15.81 20 17.22 21.2zM134.73 70.54V29.37h36V39H146v5.47h12.17v9.43H146V61h20.64v9.59z"/><path fill="#ca3092" d="M232.07 100.27h-79.19L175.96 0h79.19l-23.08 100.27z"/><path class="cls-2" d="M202.14 81.34A47.48 47.48 0 01176.35 74l6.82-12.51c5.78 3.45 12.93 6 19.41 6 7.76 0 10.61-2.85 10.61-7.68 0-4.66-2.93-7.07-8.1-7.07a17.3 17.3 0 00-11.13 3.45l-14.32-4.83L181.7 20h44v13.65h-30.46l-.52 8.35c3.36-1.64 7-2.67 13-2.67 13 0 21.56 6.56 21.56 20 .03 14.08-9.98 22.01-27.14 22.01z"/></svg>