<svg viewBox="0 0 315.43 101.38" xmlns="http://www.w3.org/2000/svg"><defs><style>.cls-2{fill:#7e0c6e}</style></defs><path fill="#fff" d="M27.3 12.21L0 101.38h288.32l26.82-89.17H27.3z"/><path class="cls-2" d="M27.3 12.21L0 101.38h242.06l1.66-4.46h10.37l7.63-25.24h-50.85l1.98-7.56 60.7-51.91H222.6l-1.49 4.02h-4.86l-17.17 55.45H189l-16.74-52.74-15.12 48.6h5.4l-1.08 4.14h-15.48l1.48-4.21h5.13l15.53-51.17h-5.22l.72-4.09h-4.77l-1.22 4.09h-5.04L136.8 67.49h5.58l-1.44 4.25h-28.26l.9-4.2h5.58l15.6-51.24h-11.34L87.84 71.68H76.5l-1.53-39.24-26.01 39.24H38.88L36.72 16.3h-5.04l.3-4.03-4.68-.06z"/><path class="cls-2" d="M62.23 12.21l-1.75 4.09h-4.86l1.26 36.21 17.91-27.9-.63-8.38-5.04.01.66-3.97-7.55-.06zM99.9 12.28l-1.8 4.02h-5.04l1.26 37.2 23.94-37.2h-4.86v-4.09l-13.5.07zM188.39 12.21l12.22 38.86 10.8-34.84h-5.13l.66-3.96-18.55-.06zM296.35.01L282.6 12.19l-8.05.02L288.59 0l7.76.01zM281.71 12.21L223.02 62.5h41.4l7.92-25.2 22.68-12.6-11.16 37.8h16.56l15.01-50.23-33.72-.06zM280.8 71.68h16.83l-9 29.63h-6.21l1.35-4.43h-10.44l7.47-25.2z"/></svg>