<svg xmlns="http://www.w3.org/2000/svg" id="b" viewBox="0 0 618.77 321.09"><defs><clipPath id="d"><path d="m113.035,229.837s112.961-56.318,232.134-26.72c142.674,35.434,218.975-38.757,218.975-38.757-40.347,16.36-129.314,29.065-229.648,5.646-17.525-4.091-34.562-5.848-50.923-5.847-95.472.008-167.306,59.907-170.537,65.677" class="an"/></clipPath><clipPath id="e"><path d="m286.728,78.184c-23.788,3.152-46.478,27.133-50.68,53.565-4.202,26.431,11.675,45.303,35.464,42.151,23.789-3.151,46.479-27.133,50.681-53.563,3.894-24.496-9.454-42.499-30.366-42.496-1.652,0-3.356.112-5.099.343" class="an"/></clipPath><style>.m{fill:#b33147}.r{fill:#fff}.s{fill:#8b4566}.v{fill:#924361}.x{fill:#bf283c}.aa{fill:#9a3f5b}.am{stroke-miterlimit:3.864}.am,.an,.ao{fill:none}.am,.ao{stroke:#c0263b}.aw{fill:#7a4b73}.ba{fill:#8d4565}.bb{fill:#52538c}.am{stroke-width:2.157px}.bg{fill:#b72e43}.bv{fill:#a73951}.cb{fill:#675080}.cj{fill:#9f3d57}.ck{fill:#a43a53}.co{fill:#a13c56}.cs{fill:#734d78}.cy{fill:#005aa6}.dd{fill:#af344a}.dr{fill:#b62f44}.dt{fill:#005aa5}.eb{fill:#005aa8}.ec{fill:#764c76}.eg,.eh{fill-rule:evenodd}.eg,.ei{fill:#005baa}.eh,.fh{fill:#c0263b}.gi{fill:#86476a}</style></defs><g id="c"><path d="M245.08 45.51c.11-14.85-10.4-23.59-27.56-21.59-36.89 4.26-64.12 36.33-80.34 83.2-15.37-1.68-22.74-16.63-21.93-33.97.51-13.37 5.92-26.15 14-33.76 2.84-2.7 3.55-5.83-2.26-4.13-19.38 5.72-37.31 23.3-38.66 45.92-1.69 28.12 16.85 41.26 43.58 42.2-9.16 27.58-14.94 37.35-21.91 43.09-31.04.81-47.72 9.96-47.94 20.03-.2 8.97 7.01 11.93 16.02 11 9.22-.95 22.42-8 33.73-16.15 17.73 1.44 41.06 10.81 65.93 8.23 22.09-2.29 36.84-11.46 41.32-40.3.74-4.44-2.29-3.04-3.83-.91-4.65 7.03-27.66 12.69-47.39 14.95-10.72 1.11-28.1 3.13-37.95 3.71 17.58-11.21 27.28-24.22 36.97-46.83 44.73-10.31 77.99-44.1 78.23-74.69m-27.21-8.31c16.18 3.78-11.75 57.98-44.67 66.41 11.34-29.33 29.78-70.1 44.67-66.41M409.26 112.55c.14-6.35-1.14-6.65-4.01-2.64-9.48 12.99-22.41 26.77-29.81 32.56-11.32 8.81-14.4 3.02-10.64-12.21 2.11-8.3 7.18-25.19 11.54-38.31l14.62-3.26c3.23-.77 4.74-1.36 8.56-9.84 2.47-5.28 2.49-6.15-.73-5.82l-17.58 1.82c4.58-13.57 7.05-18.85 10.35-22.9 1.76-2.14 2.01-4.14-.99-3.82-21.87 2.27-29.67 6.79-36.46 23.64-.9 2.06-1.58 3.88-2.28 6.13l-7.07.73c-4.29.44-5.37.78-6.95 4.87l-2.95 7.73c-1.58 3.88-.96 4.69 3.96 4.61l7.06.14c-3.92 12.63-8.31 27.49-10.67 37.56-4.02 17.45-3.14 35.91 19.16 33.6 15.87-1.64 35.94-19.22 49.62-38.32 2.65-3.76 4.84-5.96 5.28-16.26" class="eg"/><path d="m474.011,105.836c.139-6.347-1.137-6.651-4.006-2.643-9.485,12.991-22.412,26.772-29.812,32.562-11.318,8.81-14.401,3.018-10.643-12.215,2.107-8.296,7.183-25.194,11.537-38.306l31.344-4.324c3.226-.77,4.738-1.363,8.56-9.837,2.469-5.276,2.488-6.15-.728-5.817l-34.309,2.882c4.578-13.572,7.047-18.847,10.345-22.903,1.758-2.144,2.014-4.136-.987-3.825-21.874,2.266-29.674,6.785-36.462,23.644-.9,2.055-1.584,3.875-2.275,6.128l-7.075.733c-4.289.444-5.367.776-6.953,4.868l-2.95,7.727c-1.584,3.878-.958,4.686,3.964,4.612l7.059.142c-3.917,12.63-8.308,27.492-10.666,37.559-4.02,17.445-3.141,35.911,19.163,33.6,15.865-1.644,35.936-19.223,49.62-38.325,2.647-3.765,4.838-5.957,5.275-16.262" class="eg"/><path d="m555.144,83.894c.445-20.345-11.58-28.05-30.878-26.05-33.884,3.51-65.313,31.869-66.085,67.098-.471,21.44,11.53,30.24,32.118,28.106,33.882-3.511,64.081-34.363,64.845-69.154m-30.774-1.612c-.316,14.439-14.069,56.25-28.222,57.716-6.22.643-7.583-5.544-7.463-11.015.084-13.543,15.152-56.798,28.45-58.176,6.006-.622,7.359,5.786,7.234,11.475" class="eg"/><g style="clip-path:url(#d)"><path d="M116.47 141.3H236.47V258.3H116.47z" class="fh"/><path d="M118.05 141.3H238.05V258.3H118.05z" style="fill:#c0273b"/><path d="M119.63 141.3H239.63V258.3H119.63z" class="x"/><path d="M121.2 141.3H241.2V258.3H121.2z" class="x"/><path d="M122.78 141.3H242.78V258.3H122.78z" style="fill:#be293d"/><path d="M124.35 141.3H244.35V258.3H124.35z" style="fill:#bd293e"/><path d="M125.93 141.3H245.93V258.3H125.93z" style="fill:#bd2a3e"/><path d="M127.5 141.3H247.5V258.3H127.5z" style="fill:#bc2a3e"/><path d="M129.08 141.3H249.08V258.3H129.08z" style="fill:#bc2b3f"/><path d="M130.66 141.3H250.66V258.3H130.66z" style="fill:#bb2b40"/><path d="M132.23 141.3H252.23V258.3H132.23z" style="fill:#ba2c40"/><path d="M133.81 141.3H253.81V258.3H133.81z" style="fill:#ba2c41"/><path d="M135.38 141.3H255.38V258.3H135.38z" style="fill:#b92d41"/><path d="M136.96 141.3H256.96V258.3H136.96z" style="fill:#b92d42"/><path d="M138.54 141.3H258.54V258.3H138.54z" style="fill:#b82d42"/><path d="M140.11 141.3H260.11V258.3H140.11z" class="bg"/><path d="M141.69 141.3H261.69V258.3H141.69z" class="bg"/><path d="M143.26 141.3H263.26V258.3H143.26z" class="dr"/><path d="M144.84 141.3H264.84V258.3H144.84z" class="dr"/><path d="M146.42 141.3H266.42V258.3H146.42z" style="fill:#b53045"/><path d="M147.99 141.3H267.99V258.3H147.99z" style="fill:#b43045"/><path d="M149.57 141.3H269.57V258.3H149.57z" style="fill:#b43046"/><path d="M151.15 141.3H271.15V258.3H151.15z" class="m"/><path d="M152.72 141.3H272.72V258.3H152.72z" class="m"/><path d="M154.3 141.3H274.3V258.3H154.3z" style="fill:#b23248"/><path d="M155.87 141.3H275.87V258.3H155.87z" style="fill:#b13248"/><path d="M157.45 141.3H277.45V258.3H157.45z" style="fill:#b13349"/><path d="M159.03 141.3H279.03V258.3H159.03z" style="fill:#b03349"/><path d="M160.6 141.3H280.6V258.3H160.6z" class="dd"/><path d="M162.18 141.3H282.18V258.3H162.18z" class="dd"/><path d="M163.75 141.3H283.75V258.3H163.75z" style="fill:#ae344b"/><path d="M165.33 141.3H285.33V258.3H165.33z" style="fill:#ae354b"/><path d="M166.91 141.3H286.91V258.3H166.91z" style="fill:#ad354c"/><path d="M168.48 141.3H288.48V258.3H168.48z" style="fill:#ac364c"/><path d="M170.06 141.3H290.06V258.3H170.06z" style="fill:#ac364d"/><path d="M171.63 141.3H291.63V258.3H171.63z" style="fill:#ab364d"/><path d="M173.21 141.3H293.21V258.3H173.21z" style="fill:#ab374e"/><path d="M174.79 141.3H294.79V258.3H174.79z" style="fill:#aa374e"/><path d="M176.36 141.3H296.36V258.3H176.36z" style="fill:#a9384f"/><path d="M177.94 141.3H297.94V258.3H177.94z" style="fill:#a93850"/><path d="M179.51 141.3H299.51V258.3H179.51z" style="fill:#a83850"/><path d="M181.09 141.3H301.09V258.3H181.09z" class="bv"/><path d="M182.67 141.3H302.67V258.3H182.67z" class="bv"/><path d="M184.24 141.3H304.24V258.3H184.24z" style="fill:#a63951"/><path d="M185.82 141.3H305.82V258.3H185.82z" style="fill:#a63a52"/><path d="M187.39 141.3H307.39V258.3H187.39z" style="fill:#a53a52"/><path d="M188.97 141.3H308.97V258.3H188.97z" class="ck"/><path d="M190.55 141.3H310.55V258.3H190.55z" class="ck"/><path d="M192.12 141.3H312.12V258.3H192.12z" style="fill:#a33b54"/><path d="M193.7 141.3H313.7V258.3H193.7z" style="fill:#a33b55"/><path d="M195.27 141.3H315.27V258.3H195.27z" style="fill:#a23b55"/><path d="M196.85 141.3H316.85V258.3H196.85z" class="co"/><path d="M198.43 141.3H318.43V258.3H198.43z" class="co"/><path d="M200 141.3H320V258.3H200z" style="fill:#a03c56"/><path d="M201.58 141.3H321.58V258.3H201.58z" class="cj"/><path d="M203.16 141.3H323.16V258.3H203.16z" class="cj"/><path d="M204.73 141.3H324.73V258.3H204.73z" style="fill:#9e3d58"/><path d="M206.31 141.3H326.31V258.3H206.31z" style="fill:#9e3e58"/><path d="M207.88 141.3H327.88V258.3H207.88z" style="fill:#9d3e59"/><path d="M209.46 141.3H329.46V258.3H209.46z" style="fill:#9c3e59"/><path d="M211.03 141.3H331.03V258.3H211.03z" style="fill:#9c3f5a"/><path d="M212.61 141.3H332.61V258.3H212.61z" style="fill:#9b3f5a"/><path d="M214.19 141.3H334.19V258.3H214.19z" class="aa"/><path d="M215.76 141.3H335.76V258.3H215.76z" class="aa"/><path d="M217.34 141.3H337.34V258.3H217.34z" style="fill:#99405c"/><path d="M218.91 141.3H338.91V258.3H218.91z" style="fill:#98405c"/><path d="M220.49 141.3H340.49V258.3H220.49z" style="fill:#98405d"/><path d="M222.07 141.3H342.07V258.3H222.07z" style="fill:#97415d"/><path d="M223.64 141.3H343.64V258.3H223.64z" style="fill:#97415e"/><path d="M225.22 141.3H345.22V258.3H225.22z" style="fill:#96415e"/><path d="M226.79 141.3H346.79V258.3H226.79z" style="fill:#95415f"/><path d="M228.37 141.3H348.37V258.3H228.37z" style="fill:#95425f"/><path d="M229.95 141.3H349.95V258.3H229.95z" style="fill:#94425f"/><path d="M231.52 141.3H351.52V258.3H231.52z" style="fill:#944260"/><path d="M233.1 141.3H353.1V258.3H233.1z" style="fill:#934260"/><path d="M234.68 141.3H354.68V258.3H234.68z" class="v"/><path d="M236.25 141.3H356.25V258.3H236.25z" class="v"/><path d="M237.83 141.3H357.83V258.3H237.83z" style="fill:#914362"/><path d="M239.4 141.3H359.4V258.3H239.4z" style="fill:#904362"/><path d="M240.98 141.3H360.98V258.3H240.98z" style="fill:#904463"/><path d="M242.56 141.3H362.56V258.3H242.56z" style="fill:#8f4463"/><path d="M244.13 141.3H364.13V258.3H244.13z" style="fill:#8f4464"/><path d="M245.71 141.3H365.71V258.3H245.71z" style="fill:#8e4464"/><path d="M247.28 141.3H367.28V258.3H247.28z" class="ba"/><path d="M248.86 141.3H368.86V258.3H248.86z" class="ba"/><path d="M250.44 141.3H370.44V258.3H250.44z" style="fill:#8c4566"/><path d="M252.01 141.3H372.01V258.3H252.01z" class="s"/><path d="M253.59 141.3H373.59V258.3H253.59z" class="s"/><path d="M255.16 141.3H375.16V258.3H255.16z" style="fill:#8a4667"/><path d="M256.74 141.3H376.74V258.3H256.74z" style="fill:#894667"/><path d="M258.32 141.3H378.32V258.3H258.32z" style="fill:#894668"/><path d="M259.89 141.3H379.89V258.3H259.89z" style="fill:#884668"/><path d="M261.47 141.3H381.47V258.3H261.47z" style="fill:#884769"/><path d="M263.04 141.3H383.04V258.3H263.04z" style="fill:#874769"/><path d="M264.62 141.3H384.62V258.3H264.62z" class="gi"/><path d="M266.2 141.3H386.2V258.3H266.2z" class="gi"/><path d="M267.77 141.3H387.77V258.3H267.77z" style="fill:#85486b"/><path d="M269.35 141.3H389.35V258.3H269.35z" style="fill:#84486b"/><path d="M270.92 141.3H390.92V258.3H270.92z" style="fill:#84486c"/><path d="M272.5 141.3H392.5V258.3H272.5z" style="fill:#83486c"/><path d="M274.08 141.3H394.08V258.3H274.08z" style="fill:#82486d"/><path d="M275.65 141.3H395.65V258.3H275.65z" style="fill:#82496d"/><path d="M277.23 141.3H397.23V258.3H277.23z" style="fill:#81496e"/><path d="M278.8 141.3H398.8V258.3H278.8z" style="fill:#80496e"/><path d="M280.38 141.3H400.38V258.3H280.38z" style="fill:#80496f"/><path d="M281.96 141.3H401.96V258.3H281.96z" style="fill:#7f496f"/><path d="M283.53 141.3H403.53V258.3H283.53z" style="fill:#7f4a70"/><path d="M285.11 141.3H405.11V258.3H285.11z" style="fill:#7e4a70"/><path d="M286.69 141.3H406.69V258.3H286.69z" style="fill:#7d4a71"/><path d="M288.26 141.3H408.26V258.3H288.26z" style="fill:#7c4a71"/><path d="M289.84 141.3H409.84V258.3H289.84z" style="fill:#7c4a72"/><path d="M291.41 141.3H411.41V258.3H291.41z" style="fill:#7b4b72"/><path d="M292.99 141.3H412.99V258.3H292.99z" class="aw"/><path d="M294.56 141.3H414.56V258.3H294.56z" class="aw"/><path d="M296.14 141.3H416.14V258.3H296.14z" style="fill:#794b74"/><path d="M297.72 141.3H417.72V258.3H297.72z" style="fill:#784b74"/><path d="M299.29 141.3H419.29V258.3H299.29z" style="fill:#784c75"/><path d="M300.87 141.3H420.87V258.3H300.87z" style="fill:#774c75"/><path d="M302.44 141.3H422.44V258.3H302.44z" class="ec"/><path d="M304.02 141.3H424.02V258.3H304.02z" class="ec"/><path d="M305.6 141.3H425.6V258.3H305.6z" style="fill:#754c77"/><path d="M307.17 141.3H427.17V258.3H307.17z" style="fill:#744d77"/><path d="M308.75 141.3H428.75V258.3H308.75z" class="cs"/><path d="M310.33 141.3H430.33V258.3H310.33z" class="cs"/><path d="M311.9 141.3H431.9V258.3H311.9z" style="fill:#724d79"/><path d="M313.48 141.3H433.48V258.3H313.48z" style="fill:#714d79"/><path d="M315.05 141.3H435.05V258.3H315.05z" style="fill:#714d7a"/><path d="M316.63 141.3H436.63V258.3H316.63z" style="fill:#704e7a"/><path d="M318.2 141.3H438.2V258.3H318.2z" style="fill:#6f4e7b"/><path d="M319.78 141.3H439.78V258.3H319.78z" style="fill:#6e4e7b"/><path d="M321.36 141.3H441.36V258.3H321.36z" style="fill:#6e4e7c"/><path d="M322.93 141.3H442.93V258.3H322.93z" style="fill:#6d4e7c"/><path d="M324.51 141.3H444.51V258.3H324.51z" style="fill:#6c4e7d"/><path d="M326.08 141.3H446.08V258.3H326.08z" style="fill:#6b4f7d"/><path d="M327.66 141.3H447.66V258.3H327.66z" style="fill:#6b4f7e"/><path d="M329.24 141.3H449.24V258.3H329.24z" style="fill:#6a4f7e"/><path d="M330.81 141.3H450.81V258.3H330.81z" style="fill:#694f7f"/><path d="M332.39 141.3H452.39V258.3H332.39z" style="fill:#684f7f"/><path d="M333.97 141.3H453.97V258.3H333.97z" class="cb"/><path d="M335.54 141.3H455.54V258.3H335.54z" class="cb"/><path d="M337.12 141.3H457.12V258.3H337.12z" style="fill:#665081"/><path d="M338.69 141.3H458.69V258.3H338.69z" style="fill:#655081"/><path d="M340.27 141.3H460.27V258.3H340.27z" style="fill:#645082"/><path d="M341.85 141.3H461.85V258.3H341.85z" style="fill:#635082"/><path d="M343.42 141.3H463.42V258.3H343.42z" style="fill:#625083"/><path d="M345 141.3H465V258.3H345z" style="fill:#625183"/><path d="M346.58 141.3H466.58V258.3H346.58z" style="fill:#615184"/><path d="M348.15 141.3H468.15V258.3H348.15z" style="fill:#605184"/><path d="M349.73 141.3H469.73V258.3H349.73z" style="fill:#5f5185"/><path d="M351.3 141.3H471.3V258.3H351.3z" style="fill:#5e5185"/><path d="M352.88 141.3H472.88V258.3H352.88z" style="fill:#5d5186"/><path d="M354.45 141.3H474.45V258.3H354.45z" style="fill:#5c5286"/><path d="M356.03 141.3H476.03V258.3H356.03z" style="fill:#5c5287"/><path d="M357.61 141.3H477.61V258.3H357.61z" style="fill:#5b5287"/><path d="M359.18 141.3H479.18V258.3H359.18z" style="fill:#5a5288"/><path d="M360.76 141.3H480.76V258.3H360.76z" style="fill:#595288"/><path d="M362.33 141.3H482.33V258.3H362.33z" style="fill:#585289"/><path d="M363.91 141.3H483.91V258.3H363.91z" style="fill:#575389"/><path d="M365.49 141.3H485.49V258.3H365.49z" style="fill:#56538a"/><path d="M367.06 141.3H487.06V258.3H367.06z" style="fill:#55538a"/><path d="M368.64 141.3H488.64V258.3H368.64z" style="fill:#54538b"/><path d="M370.21 141.3H490.21V258.3H370.21z" style="fill:#53538b"/><path d="M371.79 141.3H491.79V258.3H371.79z" class="bb"/><path d="M373.37 141.3H493.37V258.3H373.37z" class="bb"/><path d="M374.94 141.3H494.94V258.3H374.94z" style="fill:#50548d"/><path d="M376.52 141.3H496.52V258.3H376.52z" style="fill:#4f548d"/><path d="M378.1 141.3H498.1V258.3H378.1z" style="fill:#4e548e"/><path d="M379.67 141.3H499.67V258.3H379.67z" style="fill:#4d548e"/><path d="M381.25 141.3H501.25V258.3H381.25z" style="fill:#4c548f"/><path d="M382.82 141.3H502.82V258.3H382.82z" style="fill:#4b548f"/><path d="M384.4 141.3H504.4V258.3H384.4z" style="fill:#4a5490"/><path d="M385.97 141.3H505.97V258.3H385.97z" style="fill:#495490"/><path d="M387.55 141.3H507.55V258.3H387.55z" style="fill:#485591"/><path d="M389.13 141.3H509.13V258.3H389.13z" style="fill:#475591"/><path d="M390.7 141.3H510.7V258.3H390.7z" style="fill:#465592"/><path d="M392.28 141.3H512.28V258.3H392.28z" style="fill:#455592"/><path d="M393.86 141.3H513.86V258.3H393.86z" style="fill:#445593"/><path d="M395.43 141.3H515.43V258.3H395.43z" style="fill:#425593"/><path d="M397.01 141.3H517.01V258.3H397.01z" style="fill:#415594"/><path d="M398.58 141.3H518.58V258.3H398.58z" style="fill:#405594"/><path d="M400.16 141.3H520.16V258.3H400.16z" style="fill:#3f5695"/><path d="M401.74 141.3H521.74V258.3H401.74z" style="fill:#3d5695"/><path d="M403.31 141.3H523.31V258.3H403.31z" style="fill:#3c5696"/><path d="M404.89 141.3H524.89V258.3H404.89z" style="fill:#3b5696"/><path d="M406.46 141.3H526.46V258.3H406.46z" style="fill:#3a5697"/><path d="M408.04 141.3H528.04V258.3H408.04z" style="fill:#385698"/><path d="M409.62 141.3H529.62V258.3H409.62z" style="fill:#375798"/><path d="M411.19 141.3H531.19V258.3H411.19z" style="fill:#355799"/><path d="M412.77 141.3H532.77V258.3H412.77z" style="fill:#345799"/><path d="M414.34 141.3H534.34V258.3H414.34z" style="fill:#33579a"/><path d="M415.92 141.3H535.92V258.3H415.92z" style="fill:#31579a"/><path d="M417.5 141.3H537.5V258.3H417.5z" style="fill:#30579b"/><path d="M419.07 141.3H539.07V258.3H419.07z" style="fill:#2e579b"/><path d="M420.65 141.3H540.65V258.3H420.65z" style="fill:#2c589c"/><path d="M422.22 141.3H542.22V258.3H422.22z" style="fill:#2a589c"/><path d="M423.8 141.3H543.8V258.3H423.8z" style="fill:#28589d"/><path d="M425.38 141.3H545.38V258.3H425.38z" style="fill:#27589d"/><path d="M426.95 141.3H546.95V258.3H426.95z" style="fill:#24589e"/><path d="M428.53 141.3H548.53V258.3H428.53z" style="fill:#22589f"/><path d="M430.1 141.3H550.1V258.3H430.1z" style="fill:#20589f"/><path d="M431.68 141.3H551.68V258.3H431.68z" style="fill:#1d58a0"/><path d="M433.25 141.3H553.25V258.3H433.25z" style="fill:#1a59a0"/><path d="M434.83 141.3H554.83V258.3H434.83z" style="fill:#1859a1"/><path d="M436.41 141.3H556.41V258.3H436.41z" style="fill:#1459a1"/><path d="M437.98 141.3H557.98V258.3H437.98z" style="fill:#1159a2"/><path d="M439.56 141.3H559.56V258.3H439.56z" style="fill:#0c59a2"/><path d="M441.14 141.3H561.14V258.3H441.14z" style="fill:#0659a3"/><path d="M442.71 141.3H562.71V258.3H442.71z" style="fill:#0259a3"/><path d="M444.29 141.3H564.29V258.3H444.29z" style="fill:#0059a4"/><path d="M445.86 141.3H565.86V258.3H445.86z" class="dt"/><path d="M447.44 141.3H567.44V258.3H447.44z" class="dt"/><path d="M449.02 141.3H569.02V258.3H449.02z" class="cy"/><path d="M450.59 141.3H570.59V258.3H450.59z" class="cy"/><path d="M452.17 141.3H572.17V258.3H452.17z" style="fill:#005aa7"/><path d="M453.74 141.3H573.74V258.3H453.74z" class="eb"/><path d="M455.32 141.3H575.32V258.3H455.32z" class="eb"/><path d="M456.9 141.3H576.9V258.3H456.9z" style="fill:#005ba9"/><path d="M458.47 141.3H578.47V258.3H458.47z" class="ei"/></g><path d="m404.251,168.894c.484-.329,26.399,9.272,93.25,1.552,66.852-7.721,117.168-63.423,69.9-84.847,0,0,35.565,85.933-163.15,83.295" class="eg"/><path d="m212.072,132.795c5.313-33.426,37.729-64.246,72.404-68.839,34.674-4.594,58.475,18.779,53.161,52.205-5.315,33.426-37.73,64.246-72.404,68.839-34.675,4.594-58.475-18.779-53.161-52.205" class="ei"/><path d="m236.047,131.748c4.202-26.431,26.893-50.412,50.681-53.564,23.789-3.151,39.667,15.721,35.464,42.152-4.202,26.433-26.893,50.413-50.681,53.564-23.789,3.151-39.667-15.721-35.465-42.152" class="r"/><g style="clip-path:url(#e)"><path d="M284.92 168.04 276.78 141.25 246.58 142.1 271.82 123.64 264.73 96.48 288.47 111.86 314.3 94.22 303.73 122.19 326.77 138.45 296.5 140.35 284.92 168.04z" class="eh"/><path d="M284.92 168.04 276.78 141.25 246.58 142.1 271.82 123.64 264.73 96.48 288.47 111.86 314.3 94.22 303.73 122.19 326.77 138.45 296.5 140.35 284.92 168.04z" class="eh"/><path d="M284.92 168.04 276.78 141.25 246.58 142.1 271.82 123.64 264.73 96.48 288.47 111.86 314.3 94.22 303.73 122.19 326.77 138.45 296.5 140.35 284.92 168.04z" style="stroke:#c0263b;fill:none;stroke-miterlimit:3.864;stroke-width:1.509px"/></g><path d="M292.29 43.02c-2.28.79-5.44 2.04-11.56 2.57-6.69.58-12.93-3.14-11.99-9.05.97-6.12 8.57-10.88 15.26-11.47 6.44-.56 9.49.36 10.8.66l3.15-4.33c-1.7-.57-5.48-1.59-14.16-.83-12.37 1.08-22.97 8.04-24.36 16.78-1.39 8.74 7.27 13.98 19.64 12.9 7.87-.69 12.1-2.07 15.21-3.4l-1.98-3.84ZM319.77 17.98 310.9 18.75 306.35 47.33 330.66 45.21 331.37 40.75 315.94 42.1 319.77 17.98zM363.21 32.1l-10.18.89 6.75-9.88 3.44 8.99Zm-13 5.06 14.43-1.26 2.35 6.13 9.12-.8-10.81-27.31-6.06.53-21.55 30.14 7.94-.69 4.58-6.73ZM389.38 34.67l-3.14 4.25c1.52.5 5.3 1.52 12.3.91 8.25-.72 16.38-4.55 17.26-10.12.65-4.11-5.41-6.29-8.95-7.67-3.77-1.49-7.58-2.29-7.2-4.69.3-1.88 3.65-2.81 6.59-3.07 3.19-.28 5.81.3 7.23.68l3.15-4.29c-1.84-.43-4.98-1.25-11.72-.67-7 .61-13.58 4.39-14.28 8.85-.81 5.1 4.54 6.7 8.27 8.06 4.19 1.54 7.8 2.49 7.43 4.8-.31 1.97-3.55 3.35-6.93 3.65-5.68.5-8.57-.35-9.99-.69M429.73 31.16l-3.14 4.25c1.52.5 5.3 1.52 12.3.91 8.25-.72 16.38-4.55 17.26-10.12.65-4.11-5.41-6.29-8.95-7.67-3.77-1.49-7.58-2.29-7.2-4.69.3-1.88 3.65-2.81 6.59-3.07 3.19-.28 5.81.3 7.23.68l3.14-4.29c-1.84-.43-4.97-1.25-11.72-.67-7 .61-13.58 4.39-14.28 8.85-.81 5.1 4.54 6.7 8.27 8.06 4.19 1.54 7.8 2.49 7.43 4.8-.31 1.97-3.55 3.35-6.93 3.65-5.68.5-8.57-.35-9.99-.69M476.84 32.45 481.38 3.88 472.63 4.65 468.09 33.22 476.84 32.45zM525.03 22.72c-2.28.79-5.44 2.04-11.56 2.57-6.69.58-12.93-3.14-11.99-9.05.97-6.12 8.57-10.88 15.26-11.47 6.44-.56 9.49.36 10.8.66l3.15-4.33c-1.69-.57-5.48-1.59-14.16-.83-12.37 1.08-22.97 8.04-24.36 16.78-1.39 8.74 7.27 13.98 19.64 12.9 7.87-.69 12.1-2.07 15.2-3.4l-1.98-3.84Z" class="eg"/><path d="M66.25 167.81 51.45 144.03 22.5 152.68 42.1 128.31 28.22 103.91 55.13 112.63 75.51 88.9 72.55 118.65 99.01 128.39 70.27 138.06 66.25 167.81z" class="eh"/><path d="M66.25 167.81 51.45 144.03 22.5 152.68 42.1 128.31 28.22 103.91 55.13 112.63 75.51 88.9 72.55 118.65 99.01 128.39 70.27 138.06 66.25 167.81z" class="ao"/><path d="M66.25 167.81 51.45 144.03 22.5 152.68 42.1 128.31 28.22 103.91 55.13 112.63 75.51 88.9 72.55 118.65 99.01 128.39 70.27 138.06 66.25 167.81z" class="am"/><path d="M32.01 229.15 25.94 209.17 3.44 209.81 22.24 196.06 16.97 175.81 34.66 187.28 53.9 174.13 46.03 194.97 63.2 207.09 40.65 208.51 32.01 229.15z" class="eh"/><path d="M32.01 229.15 25.94 209.17 3.44 209.81 22.24 196.06 16.97 175.81 34.66 187.28 53.9 174.13 46.03 194.97 63.2 207.09 40.65 208.51 32.01 229.15z" class="ao"/><path d="M32.01 229.15 25.94 209.17 3.44 209.81 22.24 196.06 16.97 175.81 34.66 187.28 53.9 174.13 46.03 194.97 63.2 207.09 40.65 208.51 32.01 229.15z" class="am"/><path d="M78.75 243.53 81.67 228.63 67 221.36 83.77 218.94 87.3 204.14 94.74 217.55 111.59 215.68 99.41 226.37 106.31 240.02 91.34 233.22 78.75 243.53z" class="eh"/><path d="M78.75 243.53 81.67 228.63 67 221.36 83.77 218.94 87.3 204.14 94.74 217.55 111.59 215.68 99.41 226.37 106.31 240.02 91.34 233.22 78.75 243.53z" class="eh"/><path d="M78.75 243.53 81.67 228.63 67 221.36 83.77 218.94 87.3 204.14 94.74 217.55 111.59 215.68 99.41 226.37 106.31 240.02 91.34 233.22 78.75 243.53z" class="am"/><path d="M594.64 93.07 590.23 78.54 573.86 79.01 587.54 69 583.7 54.28 596.56 62.62 610.56 53.05 604.83 68.21 617.32 77.03 600.92 78.06 594.64 93.07z" class="eh"/><path d="M594.64 93.07 590.23 78.54 573.86 79.01 587.54 69 583.7 54.28 596.56 62.62 610.56 53.05 604.83 68.21 617.32 77.03 600.92 78.06 594.64 93.07z" class="ao"/><path d="M566.16 64.3 561.42 43.59 538.52 42.63 558.59 30 554.67 9.07 571.82 21.97 592.3 9.98 582.82 30.59 599.4 44.12 576.39 43.95 566.16 64.3z" class="eh"/><path d="M566.16 64.3 561.42 43.59 538.52 42.63 558.59 30 554.67 9.07 571.82 21.97 592.3 9.98 582.82 30.59 599.4 44.12 576.39 43.95 566.16 64.3z" class="ao"/><path d="m161.718,247.014s62.428-53.493,165.663-29.182c-72.482-8.666-165.663,29.182-165.663,29.182" class="eh"/><path d="m73.647,284.522s116.214-125.38,326.453-59.276c0,0-162.293-19.292-277.241,95.842l-11.04-35.682-38.172-.884Z" class="fh"/><path d="M130.89 279.99c-1.77 1.4-1.8 1.12.27 2.83l2.51 2.08c1.66 1.37 2.56 1.86.56 3.43-1.99 1.57-2.58.84-4.23-.54l-2.51-2.08c-2.07-1.71-1.72-1.68-3.5-.29l-2.15 1.7c-1.42 1.12-1.87 1.77-4.2-.15-2.32-1.92-1.51-2.27-.08-3.39l2.15-1.7c1.77-1.4 1.8-1.12-.27-2.83l-2.51-2.08c-1.66-1.37-2.56-1.86-.56-3.43 1.99-1.57 2.58-.84 4.24.54l2.51 2.08c2.07 1.71 1.72 1.68 3.5.29l2.15-1.7c1.43-1.12 1.88-1.77 4.2.15 2.32 1.92 1.51 2.27.08 3.39l-2.15 1.7ZM158.45 273.12c-1.44-.44-6.61-2.11-7.44-1.62-.94.55 0 1.68 1.2 2.84l.87.84c1.99 1.93 4.44.75 6.47 2.71 1.33 1.28 1.74 2.97-4.62 6.72-5.71 3.36-7.56 2.7-8.97 1.34-2.16-2.08.77-2.06-2.24-5.65-2-2.43-4.62-5.02-6.98-7.31-2.57-2.48-5.52-5.39-8.45-7.6-4.04-3.17-4.42-.56-6.95-3-.66-.64-3.31-2.69 4.61-7.35 1.7-1 5.42-3.25 8.28-.48 2.2 2.12-1.12 2.01 3.78 6.74.54.52 1.78 1.66 2.43 1.28.98-.57-.44-6.38-1.4-7.3-.87-.84-1.87-.9-2.78-1.78-3.07-2.96 1.87-5.61 3.61-6.63 1.74-1.02 5.72-3.68 8.67-.84 3.4 3.29-2.39 3.53-2.2 5.68.11 1.23-.44 5.48 1.31 7.16 1.12 1.08 2.98 1.54 4.35 1.96l17.48 5.14c2.5.73 4.54-.73 7.07 1.71 2.08 2.01.44 3.29-.97 4.12l-6.15 3.61c-1.41.83-1.57.73-5.05-.38l-5.9-1.88Z" class="r"/><path d="m163.147,253.493c-4.738-5.281-6.18-6.295-7.1-6.663-1.913-.764-3.433-.139-4.85-1.716-2.686-2.995,4.683-6.927,5.405-7.314,2.168-1.155,6.686-3.445,9.222-.616,1.343,1.498-.105,2.147.035,3.672.134,1.28,3.455,5.043,6.066,7.953l3.693,4.118c6.64,7.403,6.924,7.006,8.095,7.117,1.462.144,2.516-.111,3.671,1.179,1.121,1.246,2.474,3.292-5.438,7.513-1.517.81-6.106,3.196-8.493.535-1.194-1.33-.152-2.195-.283-3.293-.089-.813-1.107-2.544-6.33-8.368l-3.693-4.117Z" class="r"/><path d="M177.99 229.08c3.32-1.58 7.01-.65 7.89-1.07.75-.35.73-.73 1.3-1 1.42-.68 5.25.95 8.78 5.34 1.81 2.25 2.19 4.7.19 5.65-3.49 1.66-8.23-5.76-14.26-2.9-2.61 1.24-1.4 4.6.34 6.78 4.7 5.86 11.38 9.57 16.12 7.32 4.3-2.04 2.75-5.08 3.8-5.58.98-.47 2.54.65 3.33 1.64 1.4 1.74 2.76 6.12 1.07 6.93-1.15.55-1.68 3.97-5.67 5.87-7.11 3.38-18.21-.42-24.59-8.37-6.51-8.11-4.97-17.43 1.7-20.6M223.39 241.74c-1.16-.55-5.3-2.58-6.1-2.29-.91.33-.31 1.37.52 2.48l.6.8c1.37 1.84 3.68 1.18 5.07 3.06.91 1.22.96 2.66-5.18 4.91-5.51 2.02-6.98 1.24-7.94-.06-1.48-1.98 1.03-1.59-.91-4.92-1.28-2.25-3.07-4.71-4.69-6.89-1.76-2.37-3.78-5.13-5.9-7.32-2.9-3.12-3.7-1.03-5.43-3.36-.46-.61-2.36-2.64 5.27-5.43 1.64-.6 5.24-1.96 7.2.67 1.51 2.03-1.32 1.5 2.04 6.01.37.5 1.23 1.59 1.86 1.36.94-.35.77-5.29.11-6.17-.6-.8-1.44-.98-2.07-1.82-2.11-2.83 2.61-4.36 4.28-4.97 1.68-.61 5.58-2.28 7.6.43 2.34 3.13-2.69 2.59-2.91 4.37-.13 1.02-1.35 4.44-.16 6.04.77 1.03 2.29 1.64 3.39 2.16l14.1 6.46c2.01.92 4.03-.01 5.77 2.32 1.42 1.91-.21 2.75-1.57 3.25l-5.93 2.17c-1.36.5-1.48.4-4.27-.97l-4.73-2.3Z" class="r"/><path d="m234.862,214.489c5.543-1.471,5.717-2.334,6.378-2.512,2.358-.624,6.351,2.327,7.698,3.769,1.011,1.083,1.668,2.505.054,2.933-3.268.867-3.559-2.983-11.419-.899-4.59,1.22-3.524,1.753-.003,5.524,1.775,1.904,1.961,1.936,4.484,1.266,3.145-.834-2.612-3.849.325-4.627,2.399-.637,6.024,3.025,7.218,4.306,1.256,1.344,4.64,5.357,2.158,6.013-2.565.684-3.215-3.44-7.393-2.333-1.737.462-.532,1.695.447,2.747,4.47,4.787,4.67,4.449,9.013,3.296,8.481-2.25,1.764-6.238,5.156-7.138,1.324-.352,3.088.653,3.946,1.572,2.081,2.23,3.582,6.824,1.929,7.265-.29.075-1.045.154-2.004.285-.972.176-2.221.385-3.628.758l-17.002,4.509c-2.73.726-3.69-.246-4.087-.672-1.685-1.806,2.475-1.109-.481-4.663-5.076-6.101-4.484-5.521-10.439-11.347-4.974-4.942-5.699-1.518-7.873-3.846-1.867-2.001,1.914-2.596,3.609-3.046l11.914-3.16Z" class="r"/><path d="m257.83,219.318c-4.043-4.611-5.458-2.066-7.074-3.912-1.435-1.634,1.548-2.505,3.169-2.847,1.665-.345,3.511-.483,5.174-.828,2.596-.541,5.05-1.299,7.689-1.847,4.585-.954,11.205-.572,14.672,3.386,1.567,1.787,1.903,3.759.333,5.034-.235.227-.439.373-.127.731.391.449,1.023.456,1.641.505,3.517.181,5.975,1.289,9.361,4.384,2.911,2.668,4.088.451,5.678,2.268.992,1.133.168,2.711-4.418,3.665-6.491,1.352-9.702-1.216-14.402-4.885-1.646-1.277-3.509-2.47-5.74-2.007-.893.186-1.139.344.503,2.218.757.862,1.881,2.037,2.815,2.828,1.523,1.304,3.227.456,4.479,1.882.939,1.074.629,2.089-5.944,3.458-1.948.405-7.709,1.604-9.613-.566-1.356-1.55,2.626-1.112-.764-4.982l-7.432-8.484Zm10.56-.649c.597.789.968,1.487,2.307,1.207,2.636-.55,2.551-1.797.934-3.643-1.279-1.459-3.069-2.846-5.423-2.356-1.501.313-.86.99-.133,1.931l2.315,2.861Z" class="r"/><path d="M117.32 259.42c1.22-.34 76.64-53.07 172.09-46.87l.18-4.92s-108.51-4.22-175.72 48.81l3.46 2.99ZM303.6 226.94s-81.93 5.45-155.16 63.85l3.14 2.69s58.35-50.96 152.99-64.41l-.98-2.13Z" class="fh"/></g></svg>