<svg xmlns="http://www.w3.org/2000/svg" id="Layer_2" data-name="Layer 2" viewBox="0 0 326.45 115.09"><defs><style>.cls-1,.cls-3{fill:#c0263b;stroke-width:0}.cls-3{fill:#fff}</style></defs><g id="b"><path d="M88.07 41.02s62.43-53.5 165.66-29.19C181.25 3.17 88.07 41.02 88.07 41.02" style="fill-rule:evenodd;stroke-width:0;fill:#c0263b"/><path d="M0 78.52S116.21-46.86 326.45 19.25c0 0-162.29-19.29-277.24 95.84L38.17 79.41 0 78.53Z" class="cls-1"/><path d="M57.24 73.99c-1.77 1.4-1.8 1.12.27 2.83l2.51 2.08c1.66 1.37 2.56 1.86.56 3.43-1.99 1.57-2.58.84-4.23-.54l-2.51-2.08c-2.07-1.71-1.72-1.68-3.5-.29l-2.15 1.7c-1.42 1.12-1.87 1.77-4.2-.15-2.32-1.92-1.51-2.27-.08-3.39l2.15-1.7c1.77-1.4 1.8-1.12-.27-2.83l-2.51-2.08c-1.66-1.37-2.56-1.86-.56-3.43 1.99-1.57 2.58-.84 4.24.54l2.51 2.08c2.07 1.71 1.72 1.68 3.5.29l2.15-1.7c1.43-1.12 1.88-1.77 4.2.15 2.32 1.92 1.51 2.27.08 3.39l-2.15 1.7h-.01Zm27.56-6.87c-1.44-.44-6.61-2.11-7.44-1.62-.94.55 0 1.68 1.2 2.84l.87.84c1.99 1.93 4.44.75 6.47 2.71 1.33 1.28 1.74 2.97-4.62 6.72-5.71 3.36-7.56 2.7-8.97 1.34-2.16-2.08.77-2.06-2.24-5.65-2-2.43-4.62-5.02-6.98-7.31-2.57-2.48-5.52-5.39-8.45-7.6-4.04-3.17-4.42-.56-6.95-3-.66-.64-3.31-2.69 4.61-7.35 1.7-1 5.42-3.25 8.28-.48 2.2 2.12-1.12 2.01 3.78 6.74.54.52 1.78 1.66 2.43 1.28.98-.57-.44-6.38-1.4-7.3-.87-.84-1.87-.9-2.78-1.78-3.07-2.96 1.87-5.61 3.61-6.63s5.72-3.68 8.67-.84c3.4 3.29-2.39 3.53-2.2 5.68.11 1.23-.44 5.48 1.31 7.16 1.12 1.08 2.98 1.54 4.35 1.96l17.48 5.14c2.5.73 4.54-.73 7.07 1.71 2.08 2.01.44 3.29-.97 4.12l-6.15 3.61c-1.41.83-1.57.73-5.05-.38l-5.9-1.88-.03-.03Z" class="cls-3"/><path d="M89.5 47.49c-4.74-5.28-6.18-6.29-7.1-6.66-1.91-.76-3.43-.14-4.85-1.72-2.69-2.99 4.68-6.93 5.4-7.31 2.17-1.15 6.69-3.45 9.22-.62 1.34 1.5-.1 2.15.04 3.67.13 1.28 3.46 5.04 6.07 7.95l3.69 4.12c6.64 7.4 6.92 7.01 8.1 7.12 1.46.14 2.52-.11 3.67 1.18 1.12 1.25 2.47 3.29-5.44 7.51-1.52.81-6.11 3.2-8.49.54-1.19-1.33-.15-2.2-.28-3.29-.09-.81-1.11-2.54-6.33-8.37l-3.69-4.12Z" class="cls-3"/><path d="M104.34 23.08c3.32-1.58 7.01-.65 7.89-1.07.75-.35.73-.73 1.3-1 1.42-.68 5.25.95 8.78 5.34 1.81 2.25 2.19 4.7.19 5.65-3.49 1.66-8.23-5.76-14.26-2.9-2.61 1.24-1.4 4.6.34 6.78 4.7 5.86 11.38 9.57 16.12 7.32 4.3-2.04 2.75-5.08 3.8-5.58.98-.47 2.54.65 3.33 1.64 1.4 1.74 2.76 6.12 1.07 6.93-1.15.55-1.68 3.97-5.67 5.87-7.11 3.38-18.21-.42-24.59-8.37-6.51-8.11-4.97-17.43 1.7-20.6m45.4 12.65c-1.16-.55-5.3-2.58-6.1-2.29-.91.33-.31 1.37.52 2.48l.6.8c1.37 1.84 3.68 1.18 5.07 3.06.91 1.22.96 2.66-5.18 4.91-5.51 2.02-6.98 1.24-7.94-.06-1.48-1.98 1.03-1.59-.91-4.92a72.31 72.31 0 0 0-4.69-6.89c-1.76-2.37-3.78-5.13-5.9-7.32-2.9-3.12-3.7-1.03-5.43-3.36-.46-.61-2.36-2.64 5.27-5.43 1.64-.6 5.24-1.96 7.2.67 1.51 2.03-1.32 1.5 2.04 6.01.37.5 1.23 1.59 1.86 1.36.94-.35.77-5.29.11-6.17-.6-.8-1.44-.98-2.07-1.82-2.11-2.83 2.61-4.36 4.28-4.97 1.68-.61 5.58-2.28 7.6.43 2.34 3.13-2.69 2.59-2.91 4.37-.13 1.02-1.35 4.44-.16 6.04.77 1.03 2.29 1.64 3.39 2.16l14.1 6.46c2.01.92 4.03 0 5.77 2.32 1.42 1.91-.21 2.75-1.57 3.25L158.76 39c-1.36.5-1.48.4-4.27-.97l-4.73-2.3h-.02Z" class="cls-3"/><path d="M161.21 8.49c5.54-1.47 5.72-2.33 6.38-2.51 2.36-.62 6.35 2.33 7.7 3.77 1.01 1.08 1.67 2.51.05 2.93-3.27.87-3.56-2.98-11.42-.9-4.59 1.22-3.52 1.75 0 5.52 1.77 1.9 1.96 1.94 4.48 1.27 3.15-.83-2.61-3.85.32-4.63 2.4-.64 6.02 3.02 7.22 4.31 1.26 1.34 4.64 5.36 2.16 6.01-2.57.68-3.21-3.44-7.39-2.33-1.74.46-.53 1.7.45 2.75 4.47 4.79 4.67 4.45 9.01 3.3 8.48-2.25 1.76-6.24 5.16-7.14 1.32-.35 3.09.65 3.95 1.57 2.08 2.23 3.58 6.82 1.93 7.26-.29.07-1.05.15-2 .29-.97.18-2.22.38-3.63.76l-17 4.51c-2.73.73-3.69-.25-4.09-.67-1.68-1.81 2.48-1.11-.48-4.66-5.08-6.1-4.48-5.52-10.44-11.35-4.97-4.94-5.7-1.52-7.87-3.85-1.87-2 1.91-2.6 3.61-3.05l11.91-3.16Z" class="cls-3"/><path d="M184.18 13.32c-4.04-4.61-5.46-2.07-7.07-3.91-1.43-1.63 1.55-2.51 3.17-2.85 1.66-.35 3.51-.48 5.17-.83 2.6-.54 5.05-1.3 7.69-1.85 4.58-.95 11.2-.57 14.67 3.39 1.57 1.79 1.9 3.76.33 5.03-.23.23-.44.37-.13.73.39.45 1.02.46 1.64.51 3.52.18 5.98 1.29 9.36 4.38 2.91 2.67 4.09.45 5.68 2.27.99 1.13.17 2.71-4.42 3.66-6.49 1.35-9.7-1.22-14.4-4.88-1.65-1.28-3.51-2.47-5.74-2.01-.89.19-1.14.34.5 2.22a30.1 30.1 0 0 0 2.82 2.83c1.52 1.3 3.23.46 4.48 1.88.94 1.07.63 2.09-5.94 3.46-1.95.4-7.71 1.6-9.61-.57-1.36-1.55 2.63-1.11-.76-4.98l-7.43-8.48Zm10.56-.65c.6.79.97 1.49 2.31 1.21 2.64-.55 2.55-1.8.93-3.64-1.28-1.46-3.07-2.85-5.42-2.36-1.5.31-.86.99-.13 1.93l2.32 2.86Z" class="cls-3"/><path d="M43.67 53.42c1.22-.34 76.64-53.07 172.09-46.87l.18-4.92S107.43-2.59 40.22 50.44l3.46 2.99Zm186.28-32.48s-81.93 5.45-155.16 63.85l3.14 2.69s58.35-50.96 152.99-64.41l-.98-2.13h.01Z" class="cls-1"/></g></svg>