<svg xmlns="http://www.w3.org/2000/svg" xmlns:xlink="http://www.w3.org/1999/xlink" width="275.11" height="113.39" viewBox="92.31 104.64 275.11 113.39"><defs><linearGradient id="a" x1="7.28" x2="244.81" y1="55.91" y2="55.91" gradientUnits="userSpaceOnUse"><stop offset="0" stop-color="#ffcb05"/><stop offset=".12" stop-color="#fec406"/><stop offset=".28" stop-color="#fcb209"/><stop offset=".46" stop-color="#f9950e"/><stop offset=".67" stop-color="#f56c15"/><stop offset=".89" stop-color="#ef381f"/><stop offset="1" stop-color="#ed1c24"/></linearGradient><linearGradient xlink:href="#a" id="c" x1="0" x2="261.99" y1="43.56" y2="43.56"/><linearGradient id="d" x1="258.13" x2="258.13" y1=".18" y2="88.22" gradientUnits="userSpaceOnUse"><stop offset="0" stop-color="#ffcb05"/><stop offset=".83" stop-color="#ed1c24"/></linearGradient><clipPath id="b"><path d="M.33-.9H276.43V113.39H.33z" style="stroke-width:2.4484;vector-effect:non-scaling-stroke;fill:#fff"/></clipPath><clipPath id="e"><path d="m180.532,58.926c9.328-15.527,29.477-20.549,45.002-11.219,15.527,9.331,20.551,29.48,11.221,45.007-9.328,15.524-29.477,20.548-45.002,11.217-15.525-9.33-20.551-29.479-11.221-45.005Z" class="s" style="fill:none"/></clipPath></defs><g style="clip-path:url(#b)" transform="translate(91.98 104.64)"><path d="m231.439,39.661c5.01-11.492,4.256-13.844-2.623-16.197C165.519,6.002,7.275,98.766,7.275,98.766,105.496,31.104,200.078,1.272,233.547,17.28c19.439,9.297,8.162,27.35,6.549,29.746-2.539-2.822-5.451-5.303-8.656-7.365Z" class="aa" style="fill:url(#a);fill-rule:evenodd"/><path d="m0,87.125S148.422-15.461,232.092,2c31.594,6.594,32.674,32.672,27.646,48.746-2.693,8.615-8.096,14.09-9.717,15.588-1.109-5.068-3.125-9.801-5.865-14.016,3.059-4.533,20.648-33.01-12.793-43.043C166.344-10.23,0,87.125,0,87.125Z" class="ac" style="fill:url(#c);fill-rule:evenodd"/><path d="m240.822.182s29.533,12.035,27.283,40.379c-1.818,22.918-17.461,32.012-17.461,32.012,0,0,0,10.187-1.82,15.645,0,0,28.012-17.826,26.557-46.928C273.719,8.067,240.822.182,240.822.182Z" class="ab" style="fill:url(#d);fill-rule:evenodd"/><path d="M53.91 30.48 237.61 30.48 237.61 95.23 53.91 95.23 53.91 30.48 53.91 30.48z" class="k" style="fill:#fff;stroke:#ed1c24;stroke-miterlimit:3.864"/><path d="M53.91 30.48 237.61 30.48 237.61 95.23 53.91 95.23 53.91 30.48 53.91 30.48z" class="l" style="fill:#fff;stroke:#ed1c24;stroke-miterlimit:3.864;stroke-width:2.619px"/><path d="M59.36 35.21 232.16 35.21 232.16 90.14 59.36 90.14 59.36 35.21 59.36 35.21z" class="az" style="fill:#ffcb05"/><path d="m66.485,81.932h10.418v-12.989h4.033c9.746,0,15.515-4.472,15.515-11.979,0-8.358-5.601-12.192-17.531-12.192h-12.434v37.16Zm10.418-30.133h2.688c3.584,0,6.441,1.225,6.441,5.006,0,3.886-2.856,5.109-6.441,5.109h-2.688v-10.115Z" class="x" style="fill:#5b57a6;fill-rule:evenodd"/><path d="M97.84 44.77H108.26V81.93H97.84z" class="y" style="fill:#5b57a6"/><path d="M143.65 73.31c-2.86 1.07-6.33 1.92-9.75 1.92-7.62 0-13.05-4.42-13.05-11.71 0-6.92 4.82-12.03 12.21-12.03 3.58 0 6.83.85 10.2 2.61l.84-8.04c-3.75-1.06-7.62-1.92-11.59-1.92-12.88 0-22.4 6.44-22.4 19.38 0 14.06 12.04 19.06 22.46 19.06 5.32 0 8.63-.8 11.59-1.49l-.5-7.77ZM146.12 81.93 156.53 81.93 156.53 65.06 156.65 65.06 168.8 81.93 182.08 81.93 166.51 62.08 180.95 44.77 168.41 44.77 156.65 59.95 156.53 59.95 156.53 44.77 146.12 44.77 146.12 81.93z" class="x" style="fill:#5b57a6;fill-rule:evenodd"/><path d="M237.61 93.41 237.61 62.86" class="r" style="fill:none;stroke:#231f20;stroke-miterlimit:3.864;stroke-width:2.619px"/><g class="o" style="clip-path:url(#e)"><circle cx="199.86" cy="60.91" r="54.77" class="an" style="fill:#9ddcf9"/><path d="m146.13,60.911c0-29.677,24.059-53.734,53.734-53.734s53.736,24.058,53.736,53.734-24.059,53.735-53.736,53.735-53.734-24.057-53.734-53.735Z" class="p" style="fill:#a0ddf9"/><path d="m147.161,60.911c0-29.107,23.596-52.703,52.703-52.703s52.705,23.596,52.705,52.703-23.596,52.704-52.705,52.704-52.703-23.597-52.703-52.704Z" class="ao" style="fill:#a3def9"/><path d="m148.192,60.911c0-28.538,23.133-51.673,51.672-51.673s51.674,23.135,51.674,51.673-23.135,51.674-51.674,51.674-51.672-23.134-51.672-51.674Z" class="t" style="fill:#a6dff9"/><circle cx="199.86" cy="60.91" r="50.64" class="at" style="fill:#aae0fa"/><path d="m150.253,60.911c0-27.4,22.211-49.611,49.611-49.611s49.613,22.211,49.613,49.611-22.213,49.611-49.613,49.611-49.611-22.211-49.611-49.611Z" class="h" style="fill:#ade1fa"/><path d="m151.284,60.911c0-26.83,21.75-48.58,48.58-48.58s48.582,21.75,48.582,48.58-21.75,48.582-48.582,48.582-48.58-21.751-48.58-48.582Z" class="al" style="fill:#b0e2fa"/><path d="m152.315,60.911c0-26.262,21.287-47.551,47.549-47.551s47.551,21.289,47.551,47.551-21.289,47.551-47.551,47.551-47.549-21.289-47.549-47.551Z" class="m" style="fill:#b3e3fa"/><path d="m153.345,60.911c0-25.692,20.828-46.519,46.519-46.519s46.52,20.827,46.52,46.519-20.826,46.52-46.52,46.52-46.519-20.827-46.519-46.52Z" class="q" style="fill:#b6e4fa"/><path d="m154.376,60.911c0-25.122,20.365-45.488,45.488-45.488s45.49,20.366,45.49,45.488-20.367,45.488-45.49,45.488-45.488-20.364-45.488-45.488Z" class="w" style="fill:#b9e6fb"/><path d="m155.407,60.911c0-24.553,19.904-44.457,44.457-44.457s44.459,19.904,44.459,44.457-19.904,44.458-44.459,44.458-44.457-19.904-44.457-44.458Z" class="am" style="fill:#bde7fb"/><path d="m156.438,60.911c0-23.984,19.441-43.427,43.426-43.427s43.428,19.442,43.428,43.427-19.443,43.429-43.428,43.429-43.426-19.443-43.426-43.429Z" class="ay" style="fill:#c0e8fb"/><circle cx="199.86" cy="60.91" r="42.4" class="au" style="fill:#c3e9fb"/><path d="m158.499,60.911c0-22.846,18.519-41.365,41.365-41.365s41.367,18.519,41.367,41.365-18.522,41.366-41.367,41.366-41.365-18.521-41.365-41.366Z" class="av" style="fill:#c6eafb"/><path d="m159.53,60.911c0-22.276,18.059-40.334,40.334-40.334s40.336,18.058,40.336,40.334-18.059,40.336-40.336,40.336-40.334-18.059-40.334-40.336Z" class="ai" style="fill:#c9ebfc"/><path d="m160.561,60.911c0-21.707,17.596-39.305,39.303-39.305s39.305,17.598,39.305,39.305-17.596,39.305-39.305,39.305-39.303-17.597-39.303-39.305Z" class="ak" style="fill:#ccecfc"/><path d="m161.591,60.911c0-21.138,17.137-38.272,38.273-38.272s38.273,17.135,38.273,38.272-17.135,38.274-38.273,38.274-38.273-17.137-38.273-38.274Z" class="n" style="fill:#cfedfc"/><path d="m162.622,60.911c0-20.568,16.674-37.242,37.242-37.242s37.244,16.674,37.244,37.242-16.674,37.242-37.244,37.242-37.242-16.673-37.242-37.242Z" class="ae" style="fill:#d2eefc"/><path d="m163.653,60.911c0-20,16.213-36.211,36.211-36.211s36.213,16.211,36.213,36.211-16.213,36.212-36.213,36.212-36.211-16.212-36.211-36.212Z" class="ap" style="fill:#d5effc"/><path d="m164.684,60.911c0-19.43,15.75-35.181,35.18-35.181s35.182,15.751,35.182,35.181-15.75,35.183-35.182,35.183-35.18-15.753-35.18-35.183Z" class="aj" style="fill:#d8f0fc"/><circle cx="199.86" cy="60.91" r="34.15" class="ad" style="fill:#dbf1fd"/><path d="m166.745,60.911c0-18.292,14.828-33.119,33.119-33.119s33.121,14.827,33.121,33.119-14.828,33.12-33.121,33.12-33.119-14.829-33.119-33.12Z" class="ax" style="fill:#def2fd"/><path d="m167.776,60.911c0-17.722,14.365-32.088,32.088-32.088s32.09,14.366,32.09,32.088-14.367,32.09-32.09,32.09-32.088-14.366-32.088-32.09Z" class="aw" style="fill:#e1f4fd"/><path d="m168.808,60.911c0-17.152,13.904-31.059,31.057-31.059s31.059,13.906,31.059,31.059-13.904,31.059-31.059,31.059-31.057-13.905-31.057-31.059Z" class="aq" style="fill:#e4f5fd"/><path d="m169.837,60.911c0-16.584,13.443-30.026,30.027-30.026s30.027,13.442,30.027,30.026-13.443,30.028-30.027,30.028-30.027-13.444-30.027-30.028Z" class="ar" style="fill:#e7f6fd"/><path d="m170.868,60.911c0-16.014,12.982-28.997,28.996-28.997s28.998,12.983,28.998,28.997-12.982,28.996-28.998,28.996-28.996-12.98-28.996-28.996Z" class="i" style="fill:#eaf7fe"/><path d="m171.899,60.911c0-15.445,12.519-27.965,27.965-27.965s27.967,12.519,27.967,27.965-12.521,27.966-27.967,27.966-27.965-12.52-27.965-27.966Z" class="ah" style="fill:#edf8fe"/><path d="m172.931,60.911c0-14.876,12.059-26.935,26.934-26.935s26.936,12.059,26.936,26.935-12.059,26.936-26.936,26.936-26.934-12.059-26.934-26.936Z" class="v" style="fill:#f0f9fe"/><circle cx="199.86" cy="60.91" r="25.9" class="af" style="fill:#f3fafe" transform="rotate(-81 199.86 60.91)"/><path d="m174.991,60.911c0-13.737,11.137-24.873,24.873-24.873s24.875,11.136,24.875,24.873-11.137,24.874-24.875,24.874-24.873-11.137-24.873-24.874Z" class="as" style="fill:#f6fcfe"/><path d="m176.022,60.911c0-13.168,10.674-23.843,23.842-23.843s23.844,10.675,23.844,23.843-10.676,23.844-23.844,23.844-23.842-10.675-23.842-23.844Z" class="u" style="fill:#fafdff"/><path d="m177.054,60.911c0-12.599,10.213-22.812,22.81-22.812s22.812,10.214,22.812,22.812-10.213,22.812-22.812,22.812-22.81-10.213-22.81-22.812Z" class="j" style="fill:#fff"/><path d="m178.083,60.911c0-12.029,9.752-21.78,21.781-21.78s21.781,9.751,21.781,21.78-9.752,21.782-21.781,21.782-21.781-9.753-21.781-21.782Z" class="j" style="fill:#fff"/><circle cx="199.86" cy="60.91" r="10.89" class="j" style="fill:#fff"/></g><path d="m208.614,112.551c-6.639,0-13.168-1.816-18.885-5.253-17.357-10.431-22.994-33.039-12.564-50.396,6.602-10.987,18.674-17.813,31.506-17.813,6.639,0,13.17,1.816,18.887,5.252,17.359,10.432,22.994,33.039,12.564,50.398-6.601,10.987-18.676,17.813-31.508,17.813Zm.057-65.605c-10.242,0-19.504,5.235-24.771,14.004-8.197,13.643-3.768,31.414,9.877,39.614,4.494,2.701,9.625,4.129,14.838,4.129,10.244,0,19.504-5.233,24.773-14.003,8.199-13.643,3.767-31.416-9.877-39.614-4.496-2.702-9.627-4.13-14.84-4.13Z" class="y" style="fill:#5b57a6"/><path d="m226.124,22.89l8.615,1.773,9.242,4.179-4.697,17.341c-2.83-2.961-6.082-5.513-9.66-7.561,8.773-12.499-3.5-15.731-3.5-15.731Z" class="z" style="fill:#ed1c24;fill-rule:evenodd"/><path d="m225.114,70.67l-16.049-3.397-2.613,4.428.103.021c1.52-1.047,4.303-1.169,7.15-.566,6.213,1.315,9.852,6.355,8.51,12.693-1.041,4.924-5.715,14.224-19.795,11.243-11.027-2.335-13.459-9.253-11.824-14.927l9.836,2.082c-.133,1.395.289,2.469,1.109,3.19.81.773,1.957,1.235,3.199,1.498,4.193.888,6.73-.874,7.385-3.965.688-3.247-1.137-5.111-3.932-5.703-1.812-.384-4.271-.521-5.625,1.272l-9.318-1.973,11.229-19.57,24.385,5.162-3.75,8.511Z" class="ag" style="fill:#ed1c24"/></g></svg>