<svg xmlns="http://www.w3.org/2000/svg" width="282.31" height="116.68" viewBox="83.65 134.34 282.31 116.68"><defs><clipPath id="a"><path d="M.8-.79H283.11V115.89H.8z" style="fill:#fff"/></clipPath><clipPath id="b"><path d="m237.162,40.642c5.135-11.775,4.361-14.187-2.686-16.598C169.613,6.151,7.455,101.208,7.455,101.208,108.104,31.872,205.025,1.305,239.322,17.706c19.92,9.528,8.363,28.026,6.709,30.482-2.602-2.892-5.584-5.434-8.869-7.547Z" class="bb" style="clip-rule:evenodd;fill:none"/></clipPath><clipPath id="c"><path d="M5.38 55.16H153.68V110.41H5.38z" class="bd" style="fill:none" transform="rotate(-21 79.53 82.78)"/></clipPath><clipPath id="d"><path d="M144.79 9.9H250.05V65.16H144.79z" class="bd" style="fill:none" transform="rotate(-21 197.42 37.53)"/></clipPath><clipPath id="e"><path d="m0,89.279S152.092-15.844,237.83,2.05c32.375,6.757,33.48,33.481,28.33,49.952-2.76,8.827-8.295,14.438-9.955,15.974-1.139-5.195-3.203-10.043-6.012-14.364,3.135-4.644,21.158-33.826-13.107-44.106C170.457-10.483,0,89.279,0,89.279Z" class="bb" style="clip-rule:evenodd;fill:none"/></clipPath><clipPath id="f"><path d="M4.06 40.4H163.76V131.15H4.06z" class="bd" style="fill:none" transform="rotate(-21 83.91 85.78)"/></clipPath><clipPath id="g"><path d="M154.22-8.34H267.56V82.41H154.22z" class="bd" style="fill:none" transform="rotate(-21 210.88 37.04)"/></clipPath><clipPath id="h"><path d="m184.928,60.277c9.559-15.911,30.205-21.057,46.115-11.495,15.91,9.56,21.059,30.208,11.498,46.119-9.559,15.909-30.205,21.056-46.115,11.495-15.91-9.562-21.059-30.209-11.498-46.119Z" class="bd" style="fill:none"/></clipPath><clipPath id="i"><path d="m246.777.186s30.262,12.333,27.957,41.378c-1.863,23.485-17.893,32.804-17.893,32.804,0,0,0,10.437-1.863,16.03,0,0,28.703-18.267,27.211-48.088C280.488,8.266,246.777.186,246.777.186Z" class="bb" style="clip-rule:evenodd;fill:none"/></clipPath></defs><g style="clip-path:url(#a)" transform="translate(82.84 135.13)"><g class="ah" style="clip-path:url(#b)"><g class="at" style="clip-path:url(#c)"><path d="M77.07 41.87H151.22V97.13H77.07z" class="x" style="fill:#faa61a" transform="rotate(-21 114.14 69.5)"/><path d="M7.84 68.45H81.99V123.71H7.84z" class="x" style="fill:#faa61a" transform="rotate(-21 44.91 96.07)"/></g><g class="av" style="clip-path:url(#d)"><path d="M241.92-8.09H246.7V47.17H241.92z" class="as" style="fill:#ed1c24" transform="rotate(-21 244.3 19.53)"/><path d="M237.45-6.38H242.24V48.88H237.45z" class="ad" style="fill:#ee2924" transform="rotate(-21 239.85 21.25)"/><path d="M232.99-4.66H237.77V50.6H232.99z" class="bf" style="fill:#ee3424" transform="rotate(-21 235.38 22.96)"/><path d="M228.52-2.95H233.31V52.31H228.52z" class="q" style="fill:#ef3d23" transform="rotate(-21 230.91 24.68)"/><path d="M224.05-1.24H228.84V54.02H224.05z" class="w" style="fill:#ef4523" transform="rotate(-21 226.44 26.4)"/><path d="M219.59.48H224.37V55.73H219.59z" class="cc" style="fill:#f04c23" transform="rotate(-21 221.98 28.1)"/><path d="M215.12 2.19H219.91V57.45H215.12z" class="ax" style="fill:#f05423" transform="rotate(-21 217.51 29.82)"/><path d="M210.65 3.91H215.44V59.17H210.65z" class="aj" style="fill:#f15a22" transform="rotate(-21 213.04 31.54)"/><path d="M206.19 5.62H210.97V60.88H206.19z" class="ap" style="fill:#f16122" transform="rotate(-21 208.58 33.25)"/><path d="M201.72 7.34H206.51V62.6H201.72z" class="ca" style="fill:#f26722" transform="rotate(-21 204.11 34.97)"/><path d="M197.25 9.05H202.03V64.31H197.25z" class="bp" style="fill:#f36d21" transform="rotate(-21 199.65 36.68)"/><path d="M192.78 10.77H197.57V66.03H192.78z" class="bl" style="fill:#f37221" transform="rotate(-21 195.18 38.4)"/><path d="M188.32 12.48H193.11V67.73H188.32z" class="by" style="fill:#f47820" transform="rotate(-21 190.7 40.1)"/><path d="M183.85 14.2H188.64V69.46H183.85z" class="l" style="fill:#f47d20" transform="rotate(-21 186.24 41.82)"/><path d="M179.38 15.91H184.17V71.17H179.38z" class="ab" style="fill:#f58220" transform="rotate(-21 181.77 43.54)"/><path d="M174.92 17.63H179.71V72.88H174.92z" class="cd" style="fill:#f6871f" transform="rotate(-21 177.3 45.25)"/><path d="M170.45 19.34H175.23V74.6H170.45z" class="bs" style="fill:#f78c1e" transform="rotate(-21 172.85 46.97)"/><path d="M165.99 21.05H170.78V76.31H165.99z" class="ai" style="fill:#f7911e" transform="rotate(-21 168.38 48.68)"/><path d="M161.52 22.77H166.31V78.03H161.52z" class="y" style="fill:#f8961d" transform="rotate(-21 163.9 50.4)"/><path d="M157.05 24.48H161.84V79.74H157.05z" class="o" style="fill:#f99b1c" transform="rotate(-21 159.44 52.11)"/><path d="M152.58 26.2H157.36V81.46H152.58z" class="m" style="fill:#f9a11b" transform="rotate(-21 154.98 53.83)"/><path d="M148.12 27.91H152.91V83.17H148.12z" class="x" style="fill:#faa61a" transform="rotate(-21 150.51 55.54)"/></g></g><g class="z" style="clip-path:url(#e)"><g class="bx" style="clip-path:url(#f)"><path d="M81.25 26.1H161.1V116.85H81.25z" class="x" style="fill:#faa61a" transform="rotate(-21 121.18 71.48)"/><path d="M6.71 54.72H86.56V145.47H6.71z" class="x" style="fill:#faa61a" transform="rotate(-21 46.63 100.1)"/></g><g class="am" style="clip-path:url(#g)"><path d="M258.8-27.72H263.95V63.03H258.8z" class="as" style="fill:#ed1c24" transform="rotate(-21 261.37 17.66)"/><path d="M253.99-25.87H259.14V64.88H253.99z" class="ad" style="fill:#ee2924" transform="rotate(-21 256.56 19.5)"/><path d="M249.18-24.02H254.33V66.73H249.18z" class="bf" style="fill:#ee3424" transform="rotate(-21 251.76 21.35)"/><path d="M244.37-22.18H249.52V68.58H244.37z" class="q" style="fill:#ef3d23" transform="rotate(-21 246.95 23.2)"/><path d="M239.56-20.33H244.71V70.42H239.56z" class="w" style="fill:#ef4523" transform="rotate(-21 242.14 25.05)"/><path d="M234.75-18.48H239.9V72.27H234.75z" class="cc" style="fill:#f04c23" transform="rotate(-21 237.33 26.9)"/><path d="M229.94-16.64H235.09V74.11H229.94z" class="ax" style="fill:#f05423" transform="rotate(-21 232.52 28.74)"/><path d="M225.14-14.79H230.29V75.96H225.14z" class="aj" style="fill:#f15a22" transform="rotate(-21 227.7 30.59)"/><path d="M220.33-12.95H225.48V77.8H220.33z" class="ap" style="fill:#f16122" transform="rotate(-21 222.9 32.43)"/><path d="M215.52-11.1H220.67V79.65H215.52z" class="ca" style="fill:#f26722" transform="rotate(-21 218.1 34.28)"/><path d="M210.71-9.25H215.86V81.5H210.71z" class="bp" style="fill:#f36d21" transform="rotate(-21 213.28 36.12)"/><path d="M205.9-7.41H211.05V83.34H205.9z" class="bl" style="fill:#f37221" transform="rotate(-21 208.47 37.97)"/><path d="M201.09-5.56H206.24V85.19H201.09z" class="by" style="fill:#f47820" transform="rotate(-21 203.67 39.81)"/><path d="M196.28-3.71H201.43V87.04H196.28z" class="l" style="fill:#f47d20" transform="rotate(-21 198.85 41.66)"/><path d="M191.47-1.87H196.62V88.88H191.47z" class="ab" style="fill:#f58220" transform="rotate(-21 194.04 43.5)"/><path d="M186.66-.02H191.81V90.73H186.66z" class="cd" style="fill:#f6871f" transform="rotate(-21 189.23 45.35)"/><path d="M181.85 1.82H187V92.57H181.85z" class="bs" style="fill:#f78c1e" transform="rotate(-21 184.43 47.2)"/><path d="M177.04 3.67H182.19V94.42H177.04z" class="ai" style="fill:#f7911e" transform="rotate(-21 179.62 49.05)"/><path d="M172.23 5.52H177.38V96.27H172.23z" class="y" style="fill:#f8961d" transform="rotate(-21 174.8 50.9)"/><path d="M167.42 7.36H172.57V98.11H167.42z" class="o" style="fill:#f99b1c" transform="rotate(-21 170 52.74)"/><path d="M162.61 9.21H167.76V99.96H162.61z" class="m" style="fill:#f9a11b" transform="rotate(-21 165.19 54.58)"/><path d="M157.8 11.05H162.95V101.8H157.8z" class="x" style="fill:#faa61a" transform="rotate(-21 160.38 56.43)"/></g></g><path d="M55.17 31.13H243.42V97.48H55.17z" class="s" style="fill:#fff;stroke:#ed1c24;stroke-miterlimit:3.864;stroke-width:2.619px"/><path d="M60.76 35.97H237.83V92.26H60.76z" class="be" style="fill:#80c342;stroke:#80c342;stroke-miterlimit:3.864;stroke-width:.728px"/><path d="m68.061,83.852h10.676v-13.311h4.131c9.988,0,15.898-4.582,15.898-12.275,0-8.565-5.738-12.493-17.965-12.493h-12.74v38.079Zm10.676-30.878h2.754c3.674,0,6.6,1.255,6.6,5.128,0,3.982-2.926,5.237-6.6,5.237h-2.754v-10.365Z" class="ar" style="fill:#005baa;fill-rule:evenodd"/><path d="M100.19 45.77H110.87V83.85H100.19z" class="bn" style="fill:#005baa"/><path d="M147.14 75.02c-2.93 1.09-6.49 1.96-9.99 1.96-7.81 0-13.37-4.53-13.37-12 0-7.09 4.93-12.33 12.51-12.33 3.67 0 7 .87 10.45 2.67l.86-8.24c-3.85-1.09-7.81-1.96-11.88-1.96-13.2 0-22.96 6.6-22.96 19.86 0 14.4 12.34 19.53 23.02 19.53 5.45 0 8.84-.82 11.88-1.53l-.52-7.96ZM149.66 83.85 160.34 83.85 160.34 66.56 160.45 66.56 172.91 83.85 186.51 83.85 170.55 63.5 185.36 45.77 172.5 45.77 160.45 61.32 160.34 61.32 160.34 45.77 149.66 45.77 149.66 83.85z" class="ar" style="fill:#005baa;fill-rule:evenodd"/><path d="M243.42 95.62 243.42 64.3" class="bc" style="fill:none;stroke:#231f20;stroke-miterlimit:3.864;stroke-width:2.619px"/><path d="m184.928,60.277c9.559-15.911,30.205-21.057,46.115-11.495,15.91,9.56,21.059,30.208,11.498,46.119-9.559,15.909-30.205,21.056-46.115,11.495-15.91-9.562-21.059-30.209-11.498-46.119Z" class="ba" style="fill:none;stroke:#005baa;stroke-miterlimit:3.864;stroke-width:7.857px"/><g class="u" style="clip-path:url(#h)"><path d="m148.619,62.311c0-30.995,25.125-56.12,56.119-56.12s56.121,25.124,56.121,56.12-25.127,56.12-56.121,56.12-56.119-25.125-56.119-56.12Z" class="bi" style="fill:#9ddcf9"/><path d="m149.674,62.311c0-30.412,24.652-55.064,55.064-55.064s55.064,24.652,55.064,55.064-24.652,55.063-55.064,55.063-55.064-24.652-55.064-55.063Z" class="aa" style="fill:#a0ddf9"/><path d="m150.73,62.311c0-29.828,24.18-54.007,54.008-54.007s54.008,24.179,54.008,54.007-24.18,54.008-54.008,54.008-54.008-24.181-54.008-54.008Z" class="bj" style="fill:#a3def9"/><circle cx="204.74" cy="62.31" r="52.95" class="ae" style="fill:#a6dff9"/><circle cx="204.74" cy="62.31" r="51.9" class="bt" style="fill:#aae0fa"/><path d="m153.898,62.311c0-28.078,22.762-50.839,50.84-50.839s50.84,22.762,50.84,50.839-22.764,50.838-50.84,50.838-50.84-22.76-50.84-50.838Z" class="n" style="fill:#ade1fa"/><circle cx="204.74" cy="62.31" r="49.78" class="bg" style="fill:#b0e2fa" transform="rotate(-86 204.74 62.31)"/><circle cx="204.74" cy="62.31" r="48.73" class="t" style="fill:#b3e3fa" transform="rotate(-26 204.74 62.31)"/><circle cx="204.74" cy="62.31" r="47.67" class="ac" style="fill:#b6e4fa" transform="rotate(-23 204.74 62.31)"/><circle cx="204.74" cy="62.31" r="46.61" class="ak" style="fill:#b9e6fb" transform="rotate(-86 204.74 62.31)"/><path d="m159.182,62.311c0-25.161,20.395-45.557,45.557-45.557s45.559,20.396,45.559,45.557-20.398,45.557-45.559,45.557-45.557-20.396-45.557-45.557Z" class="bh" style="fill:#bde7fb"/><path d="m160.236,62.311c0-24.578,19.924-44.502,44.502-44.502s44.502,19.924,44.502,44.502-19.926,44.5-44.502,44.5-44.502-19.923-44.502-44.5Z" class="cb" style="fill:#c0e8fb"/><path d="m161.293,62.311c0-23.994,19.451-43.445,43.445-43.445s43.445,19.451,43.445,43.445-19.451,43.446-43.445,43.446-43.445-19.451-43.445-43.446Z" class="bu" style="fill:#c3e9fb"/><path d="m162.35,62.311c0-23.411,18.979-42.389,42.389-42.389s42.389,18.979,42.389,42.389-18.978,42.388-42.389,42.388-42.389-18.978-42.389-42.388Z" class="bv" style="fill:#c6eafb"/><circle cx="204.74" cy="62.31" r="41.33" class="aw" style="fill:#c9ebfc" transform="rotate(-90 204.74 62.31)"/><path d="m164.461,62.311c0-22.245,18.033-40.276,40.277-40.276s40.275,18.032,40.275,40.276-18.031,40.276-40.275,40.276-40.277-18.031-40.277-40.276Z" class="az" style="fill:#ccecfc"/><circle cx="204.74" cy="62.31" r="39.22" class="v" style="fill:#cfedfc" transform="rotate(-86 204.74 62.31)"/><circle cx="204.74" cy="62.31" r="38.16" class="an" style="fill:#d2eefc" transform="rotate(-26 204.74 62.31)"/><circle cx="204.74" cy="62.31" r="37.11" class="bk" style="fill:#d5effc" transform="rotate(-22 204.74 62.31)"/><path d="m168.686,62.311c0-19.911,16.143-36.052,36.053-36.052s36.051,16.141,36.051,36.052-16.141,36.051-36.051,36.051-36.053-16.141-36.053-36.051Z" class="ay" style="fill:#d8f0fc"/><circle cx="204.74" cy="62.31" r="34.99" class="al" style="fill:#dbf1fd"/><path d="m170.799,62.311c0-18.744,15.195-33.939,33.939-33.939s33.939,15.195,33.939,33.939-15.195,33.938-33.939,33.938-33.939-15.193-33.939-33.938Z" class="bz" style="fill:#def2fd"/><path d="m171.855,62.311c0-18.161,14.723-32.882,32.883-32.882s32.883,14.722,32.883,32.882-14.723,32.883-32.883,32.883-32.883-14.723-32.883-32.883Z" class="bw" style="fill:#e1f4fd"/><path d="m172.912,62.311c0-17.578,14.248-31.827,31.826-31.827s31.826,14.249,31.826,31.827-14.25,31.826-31.826,31.826-31.826-14.248-31.826-31.826Z" class="bo" style="fill:#e4f5fd"/><circle cx="204.74" cy="62.31" r="30.77" class="bq" style="fill:#e7f6fd"/><path d="m175.023,62.311c0-16.411,13.305-29.714,29.715-29.714s29.713,13.303,29.713,29.714-13.303,29.713-29.713,29.713-29.715-13.303-29.715-29.713Z" class="p" style="fill:#eaf7fe"/><path d="m176.08,62.311c0-15.827,12.83-28.657,28.658-28.657s28.658,12.83,28.658,28.657-12.832,28.658-28.658,28.658-28.658-12.83-28.658-28.658Z" class="au" style="fill:#edf8fe"/><path d="m177.137,62.311c0-15.244,12.357-27.602,27.601-27.602s27.602,12.358,27.602,27.602-12.357,27.601-27.602,27.601-27.601-12.356-27.601-27.601Z" class="ag" style="fill:#f0f9fe"/><path d="m178.193,62.311c0-14.66,11.885-26.545,26.545-26.545s26.545,11.885,26.545,26.545-11.885,26.545-26.545,26.545-26.545-11.885-26.545-26.545Z" class="ao" style="fill:#f3fafe"/><path d="m179.248,62.311c0-14.077,11.412-25.489,25.49-25.489s25.488,11.412,25.488,25.489-11.412,25.489-25.488,25.489-25.49-11.412-25.49-25.489Z" class="br" style="fill:#f6fcfe"/><path d="m180.305,62.311c0-13.495,10.94-24.432,24.434-24.432s24.432,10.937,24.432,24.432-10.937,24.432-24.432,24.432-24.434-10.938-24.434-24.432Z" class="af" style="fill:#fafdff"/><path d="m181.361,62.311c0-12.911,10.467-23.377,23.377-23.377s23.377,10.465,23.377,23.377-10.467,23.375-23.377,23.375-23.377-10.465-23.377-23.375Z" class="r" style="fill:#fff"/><circle cx="204.74" cy="62.31" r="22.32" class="r" style="fill:#fff"/><path d="m193.578,62.311c0-6.163,4.996-11.16,11.16-11.16s11.16,4.997,11.16,11.16-4.996,11.161-11.16,11.161-11.16-4.997-11.16-11.161Z" class="r" style="fill:#fff"/></g><path d="m184.928,60.277c9.559-15.911,30.205-21.057,46.115-11.495,15.91,9.56,21.059,30.208,11.498,46.119-9.559,15.909-30.205,21.056-46.115,11.495-15.91-9.562-21.059-30.209-11.498-46.119Z" class="ba" style="fill:none;stroke:#005baa;stroke-miterlimit:3.864;stroke-width:7.857px"/><path d="m206.256,96.311l9.285,2.664,2.035-7.098,5.283,1.515,1.93-6.725-5.283-1.515,6.717-23.428-10.994-3.153-21.322,17.969-2.266,7.898,16.65,4.775-2.035,7.098Zm4.603-13.638l-10.246-2.939,14.654-12.835.105.03-4.514,15.744Z" class="aq" style="fill:#ed1c24;fill-rule:evenodd"/><g class="bm" style="clip-path:url(#i)"><path d="M253.9 81.69H292.86V85.76H253.9z" class="as" style="fill:#ed1c24" transform="rotate(-14 273.37 83.72)"/><path d="M252.91 77.74H291.87V81.81H252.91z" class="ad" style="fill:#ee2924" transform="rotate(-14 272.4 79.77)"/><path d="M251.93 73.79H290.89V77.86H251.93z" class="bf" style="fill:#ee3424" transform="rotate(-14 271.4 75.83)"/><path d="M250.94 69.84H289.9V73.91H250.94z" class="q" style="fill:#ef3d23" transform="rotate(-14 270.42 71.88)"/><path d="M249.96 65.89H288.92V69.96H249.96z" class="w" style="fill:#ef4523" transform="rotate(-14 269.44 67.93)"/><path d="M248.97 61.95H287.93V66.02H248.97z" class="cc" style="fill:#f04c23" transform="rotate(-14 268.46 63.98)"/><path d="M247.99 58H286.95V62.07H247.99z" class="ax" style="fill:#f05423" transform="rotate(-14 267.48 60.03)"/><path d="M247.01 54.05H285.97V58.12H247.01z" class="aj" style="fill:#f15a22" transform="rotate(-14 266.48 56.08)"/><path d="M246.02 50.1H284.98V54.17H246.02z" class="ap" style="fill:#f16122" transform="rotate(-14 265.51 52.14)"/><path d="M245.04 46.15H284V50.22H245.04z" class="ca" style="fill:#f26722" transform="rotate(-14 264.52 48.19)"/><path d="M244.05 42.21H283.01V46.28H244.05z" class="bp" style="fill:#f36d21" transform="rotate(-14 263.53 44.24)"/><path d="M243.07 38.26H282.03V42.33H243.07z" class="bl" style="fill:#f37221" transform="rotate(-14 262.56 40.3)"/><path d="M242.09 34.31H281.05V38.38H242.09z" class="by" style="fill:#f47820" transform="rotate(-14 261.56 36.34)"/><path d="M241.1 30.36H280.06V34.43H241.1z" class="l" style="fill:#f47d20" transform="rotate(-14 260.58 32.4)"/><path d="M240.12 26.41H279.08V30.48H240.12z" class="ab" style="fill:#f58220" transform="rotate(-14 259.6 28.45)"/><path d="M239.13 22.47H278.09V26.54H239.13z" class="cd" style="fill:#f6871f" transform="rotate(-14 258.6 24.5)"/><path d="M238.15 18.52H277.11V22.59H238.15z" class="bs" style="fill:#f78c1e" transform="rotate(-14 257.62 20.55)"/><path d="M237.16 14.57H276.12V18.64H237.16z" class="ai" style="fill:#f7911e" transform="rotate(-14 256.65 16.6)"/><path d="M236.18 10.62H275.14V14.69H236.18z" class="y" style="fill:#f8961d" transform="rotate(-14 255.65 12.66)"/><path d="M235.19 6.67H274.15V10.74H235.19z" class="o" style="fill:#f99b1c" transform="rotate(-14 254.68 8.7)"/><path d="M234.21 2.73H273.17V6.8H234.21z" class="m" style="fill:#f9a11b" transform="rotate(-14 253.7 4.76)"/><path d="M233.22-1.22H272.18V2.85H233.22z" class="x" style="fill:#faa61a" transform="rotate(-14 252.71 .81)"/></g><path d="m230.803,23.298l8.826,1.816,9.473,4.283-4.812,17.77c-2.9-3.033-6.232-5.649-9.9-7.748,8.99-12.807-3.586-16.121-3.586-16.121Z" class="aq" style="fill:#ed1c24;fill-rule:evenodd"/></g></svg>