<svg xmlns="http://www.w3.org/2000/svg" width="282.58" height="116.68" viewBox="92.85 131.4 282.58 116.68"><defs><clipPath id="a"><path d="M.61-.79H283.19V115.89H.61z" style="fill:#fff"/></clipPath><clipPath id="b"><path d="m237.163,40.641c5.135-11.776,4.361-14.186-2.686-16.598C169.614,6.151,7.455,101.208,7.455,101.208,108.105,31.872,205.026,1.305,239.323,17.706c19.92,9.528,8.363,28.026,6.711,30.482-2.602-2.892-5.586-5.434-8.871-7.547Z" class="ay" style="clip-rule:evenodd;fill:none"/></clipPath><clipPath id="c"><path d="M5.38 55.16H153.68V110.42H5.38z" class="ba" style="fill:none" transform="rotate(-21 79.54 82.78)"/></clipPath><clipPath id="d"><path d="M144.79 9.9H250.05V65.16H144.79z" class="ba" style="fill:none" transform="rotate(-21 197.42 37.53)"/></clipPath><clipPath id="e"><path d="m0,89.28S152.092-15.843,237.831,2.05c32.375,6.756,33.482,33.48,28.33,49.952-2.76,8.827-8.295,14.437-9.955,15.974-1.139-5.195-3.203-10.044-6.012-14.364,3.135-4.644,21.158-33.826-13.107-44.106C170.457-10.483,0,89.28,0,89.28Z" class="ay" style="clip-rule:evenodd;fill:none"/></clipPath><clipPath id="f"><path d="M4.06 40.4H163.76V131.15H4.06z" class="ba" style="fill:none" transform="rotate(-21 83.91 85.78)"/></clipPath><clipPath id="g"><path d="M154.22-8.34H267.56V82.41H154.22z" class="ba" style="fill:none" transform="rotate(-21 210.89 37.04)"/></clipPath><clipPath id="h"><path d="m184.928,60.276c9.559-15.909,30.205-21.056,46.115-11.494,15.91,9.561,21.059,30.209,11.498,46.118-9.559,15.91-30.205,21.057-46.115,11.495-15.91-9.561-21.059-30.209-11.498-46.119Z" class="ba" style="fill:none"/></clipPath><clipPath id="i"><path d="m246.778.186s30.262,12.334,27.957,41.378c-1.863,23.485-17.893,32.803-17.893,32.803,0,0,0,10.438-1.863,16.03,0,0,28.703-18.267,27.211-48.088C280.489,8.266,246.778.186,246.778.186Z" class="ay" style="clip-rule:evenodd;fill:none"/></clipPath></defs><g style="clip-path:url(#a)" transform="translate(92.24 132.2)"><g class="ai" style="clip-path:url(#b)"><g class="at" style="clip-path:url(#c)"><path d="M77.07 41.87H151.22V97.13H77.07z" class="x" style="fill:#faa61a" transform="rotate(-21 114.14 69.5)"/><path d="M7.84 68.45H81.99V123.71H7.84z" class="x" style="fill:#faa61a" transform="rotate(-21 44.92 96.08)"/></g><g class="av" style="clip-path:url(#d)"><path d="M241.92-8.09H246.71V47.17H241.92z" class="as" style="fill:#ed1c24" transform="rotate(-21 244.31 19.53)"/><path d="M237.45-6.38H242.24V48.88H237.45z" class="ae" style="fill:#ee2924" transform="rotate(-21 239.84 21.25)"/><path d="M232.99-4.66H237.78V50.6H232.99z" class="bf" style="fill:#ee3424" transform="rotate(-21 235.37 22.96)"/><path d="M228.52-2.95H233.3V52.31H228.52z" class="q" style="fill:#ef3d23" transform="rotate(-21 230.9 24.68)"/><path d="M224.05-1.24H228.84V54.02H224.05z" class="w" style="fill:#ef4523" transform="rotate(-21 226.44 26.4)"/><path d="M219.59.48H224.38V55.74H219.59z" class="cb" style="fill:#f04c23" transform="rotate(-21 221.97 28.1)"/><path d="M215.12 2.19H219.91V57.45H215.12z" class="bc" style="fill:#f05423" transform="rotate(-21 217.5 29.82)"/><path d="M210.65 3.91H215.43V59.17H210.65z" class="ak" style="fill:#f15a22" transform="rotate(-21 213.04 31.54)"/><path d="M206.19 5.62H210.98V60.87H206.19z" class="aq" style="fill:#f16122" transform="rotate(-21 208.58 33.25)"/><path d="M201.72 7.34H206.5V62.6H201.72z" class="bz" style="fill:#f26722" transform="rotate(-21 204.11 34.96)"/><path d="M197.25 9.05H202.04V64.31H197.25z" class="bo" style="fill:#f36d21" transform="rotate(-21 199.65 36.68)"/><path d="M192.78 10.77H197.57V66.03H192.78z" class="bl" style="fill:#f37221" transform="rotate(-21 195.18 38.4)"/><path d="M188.32 12.48H193.11V67.74H188.32z" class="bx" style="fill:#f47820" transform="rotate(-21 190.7 40.1)"/><path d="M183.85 14.2H188.63V69.46H183.85z" class="l" style="fill:#f47d20" transform="rotate(-21 186.24 41.82)"/><path d="M179.38 15.91H184.17V71.17H179.38z" class="ac" style="fill:#f58220" transform="rotate(-21 181.77 43.54)"/><path d="M174.92 17.63H179.7V72.89H174.92z" class="cc" style="fill:#f6871f" transform="rotate(-21 177.3 45.25)"/><path d="M170.45 19.34H175.23V74.6H170.45z" class="br" style="fill:#f78c1e" transform="rotate(-21 172.85 46.97)"/><path d="M165.99 21.05H170.78V76.31H165.99z" class="aj" style="fill:#f7911e" transform="rotate(-21 168.38 48.68)"/><path d="M161.52 22.77H166.31V78.03H161.52z" class="z" style="fill:#f8961d" transform="rotate(-21 163.9 50.4)"/><path d="M157.05 24.48H161.84V79.74H157.05z" class="o" style="fill:#f99b1c" transform="rotate(-21 159.44 52.11)"/><path d="M152.59 26.2H157.38V81.46H152.59z" class="m" style="fill:#f9a11b" transform="rotate(-21 154.98 53.83)"/><path d="M148.12 27.91H152.9V83.17H148.12z" class="x" style="fill:#faa61a" transform="rotate(-21 150.5 55.54)"/></g></g><g class="aa" style="clip-path:url(#e)"><g class="bw" style="clip-path:url(#f)"><path d="M81.25 26.1H161.1V116.85H81.25z" class="x" style="fill:#faa61a" transform="rotate(-21 121.18 71.48)"/><path d="M6.71 54.72H86.56V145.47H6.71z" class="x" style="fill:#faa61a" transform="rotate(-21 46.63 100.1)"/></g><g class="an" style="clip-path:url(#g)"><path d="M258.8-27.72H263.95V63.03H258.8z" class="as" style="fill:#ed1c24" transform="rotate(-21 261.38 17.66)"/><path d="M253.99-25.87H259.14V64.88H253.99z" class="ae" style="fill:#ee2924" transform="rotate(-21 256.57 19.5)"/><path d="M249.18-24.02H254.33V66.73H249.18z" class="bf" style="fill:#ee3424" transform="rotate(-21 251.76 21.35)"/><path d="M244.37-22.18H249.52V68.57H244.37z" class="q" style="fill:#ef3d23" transform="rotate(-21 246.96 23.2)"/><path d="M239.56-20.33H244.71V70.42H239.56z" class="w" style="fill:#ef4523" transform="rotate(-21 242.15 25.05)"/><path d="M234.75-18.48H239.9V72.27H234.75z" class="cb" style="fill:#f04c23" transform="rotate(-21 237.33 26.9)"/><path d="M229.94-16.64H235.09V74.11H229.94z" class="bc" style="fill:#f05423" transform="rotate(-21 232.52 28.74)"/><path d="M225.14-14.79H230.29V75.96H225.14z" class="ak" style="fill:#f15a22" transform="rotate(-21 227.72 30.59)"/><path d="M220.33-12.95H225.48V77.8H220.33z" class="aq" style="fill:#f16122" transform="rotate(-21 222.9 32.43)"/><path d="M215.52-11.1H220.67V79.65H215.52z" class="bz" style="fill:#f26722" transform="rotate(-21 218.1 34.28)"/><path d="M210.71-9.25H215.86V81.5H210.71z" class="bo" style="fill:#f36d21" transform="rotate(-21 213.28 36.12)"/><path d="M205.9-7.41H211.05V83.34H205.9z" class="bl" style="fill:#f37221" transform="rotate(-21 208.47 37.97)"/><path d="M201.09-5.56H206.24V85.19H201.09z" class="bx" style="fill:#f47820" transform="rotate(-21 203.67 39.81)"/><path d="M196.28-3.71H201.43V87.04H196.28z" class="l" style="fill:#f47d20" transform="rotate(-21 198.86 41.66)"/><path d="M191.47-1.87H196.62V88.88H191.47z" class="ac" style="fill:#f58220" transform="rotate(-21 194.05 43.5)"/><path d="M186.66-.02H191.81V90.73H186.66z" class="cc" style="fill:#f6871f" transform="rotate(-21 189.24 45.36)"/><path d="M181.85 1.82H187V92.57H181.85z" class="br" style="fill:#f78c1e" transform="rotate(-21 184.43 47.2)"/><path d="M177.04 3.67H182.19V94.42H177.04z" class="aj" style="fill:#f7911e" transform="rotate(-21 179.61 49.05)"/><path d="M172.23 5.52H177.38V96.27H172.23z" class="z" style="fill:#f8961d" transform="rotate(-21 174.8 50.9)"/><path d="M167.42 7.36H172.57V98.11H167.42z" class="o" style="fill:#f99b1c" transform="rotate(-21 170 52.74)"/><path d="M162.61 9.21H167.76V99.96H162.61z" class="m" style="fill:#f9a11b" transform="rotate(-21 165.19 54.58)"/><path d="M157.8 11.05H162.95V101.8H157.8z" class="x" style="fill:#faa61a" transform="rotate(-21 160.38 56.43)"/></g></g><path d="M55.17 31.13H243.42V97.48H55.17z" class="s" style="fill:#fff;stroke:#ed1c24;stroke-miterlimit:3.864;stroke-width:2.619px"/><path d="M60.76 35.97H237.83V92.26H60.76z" class="bb" style="fill:#005baa;stroke:#005baa;stroke-miterlimit:3.864;stroke-width:.728px"/><path d="m68.06,83.852h10.676v-13.31h4.132c9.987,0,15.898-4.583,15.898-12.275,0-8.564-5.739-12.493-17.965-12.493h-12.741v38.079Zm10.676-30.877h2.754c3.674,0,6.601,1.254,6.601,5.128,0,3.982-2.927,5.237-6.601,5.237h-2.754v-10.365Z" class="y" style="fill:#faa61a;fill-rule:evenodd"/><path d="M100.19 45.77H110.87V83.85H100.19z" class="x" style="fill:#faa61a"/><path d="M147.14 75.01c-2.93 1.09-6.49 1.97-9.99 1.97-7.81 0-13.37-4.53-13.37-12 0-7.09 4.94-12.33 12.51-12.33 3.67 0 7 .87 10.45 2.67l.86-8.24c-3.85-1.09-7.81-1.96-11.88-1.96-13.2 0-22.96 6.6-22.96 19.86 0 14.4 12.34 19.53 23.02 19.53 5.45 0 8.84-.82 11.88-1.53l-.52-7.96ZM149.66 83.85 160.34 83.85 160.34 66.56 160.45 66.56 172.91 83.85 186.51 83.85 170.55 63.5 185.36 45.77 172.5 45.77 160.45 61.32 160.34 61.32 160.34 45.77 149.66 45.77 149.66 83.85z" class="y" style="fill:#faa61a;fill-rule:evenodd"/><path d="M243.42 95.62 243.42 64.3" class="az" style="fill:none;stroke:#231f20;stroke-miterlimit:3.864;stroke-width:2.619px"/><path d="m184.928,60.276c9.559-15.909,30.205-21.056,46.115-11.494,15.91,9.561,21.059,30.209,11.498,46.118-9.559,15.91-30.205,21.057-46.115,11.495-15.91-9.561-21.059-30.209-11.498-46.119Z" class="ax" style="fill:none;stroke:#faa61a;stroke-miterlimit:3.864;stroke-width:7.857px"/><g class="u" style="clip-path:url(#h)"><path d="m148.62,62.311c0-30.995,25.125-56.12,56.119-56.12s56.121,25.125,56.121,56.12-25.127,56.12-56.121,56.12-56.119-25.126-56.119-56.12Z" class="bi" style="fill:#9ddcf9"/><circle cx="204.74" cy="62.31" r="55.06" class="ab" style="fill:#a0ddf9" transform="rotate(-6 204.75 62.32)"/><circle cx="204.74" cy="62.31" r="54.01" class="bj" style="fill:#a3def9" transform="rotate(-85 204.74 62.31)"/><circle cx="204.74" cy="62.31" r="52.95" class="af" style="fill:#a6dff9" transform="rotate(-2 204.76 62.32)"/><path d="m152.844,62.311c0-28.661,23.232-51.895,51.895-51.895s51.894,23.234,51.894,51.895-23.234,51.895-51.894,51.895-51.895-23.233-51.895-51.895Z" class="bs" style="fill:#aae0fa"/><circle cx="204.74" cy="62.31" r="50.84" class="n" style="fill:#ade1fa" transform="rotate(-90 204.74 62.31)"/><circle cx="204.74" cy="62.31" r="49.78" class="bg" style="fill:#b0e2fa" transform="rotate(-81 204.74 62.31)"/><circle cx="204.74" cy="62.31" r="48.73" class="t" style="fill:#b3e3fa" transform="rotate(-2 204.7 62.3)"/><circle cx="204.74" cy="62.31" r="47.67" class="ad" style="fill:#b6e4fa" transform="rotate(-85 204.74 62.31)"/><circle cx="204.74" cy="62.31" r="46.61" class="al" style="fill:#b9e6fb" transform="rotate(-82 204.74 62.31)"/><path d="m159.182,62.311c0-25.161,20.396-45.558,45.557-45.558s45.559,20.396,45.559,45.558-20.398,45.558-45.559,45.558-45.557-20.396-45.557-45.558Z" class="bh" style="fill:#bde7fb"/><circle cx="204.74" cy="62.31" r="44.5" class="ca" style="fill:#c0e8fb" transform="rotate(-79 204.74 62.31)"/><circle cx="204.74" cy="62.31" r="43.45" class="bt" style="fill:#c3e9fb" transform="rotate(-85 204.74 62.31)"/><circle cx="204.74" cy="62.31" r="42.39" class="bu" style="fill:#c6eafb" transform="rotate(-2 204.7 62.3)"/><circle cx="204.74" cy="62.31" r="41.33" class="aw" style="fill:#c9ebfc" transform="rotate(-80 204.74 62.31)"/><circle cx="204.74" cy="62.31" r="40.27" class="be" style="fill:#ccecfc"/><circle cx="204.74" cy="62.31" r="39.22" class="v" style="fill:#cfedfc" transform="rotate(-81 204.74 62.31)"/><circle cx="204.74" cy="62.31" r="38.16" class="ao" style="fill:#d2eefc" transform="rotate(-2 204.7 62.3)"/><circle cx="204.74" cy="62.31" r="37.11" class="bk" style="fill:#d5effc" transform="rotate(-85 204.74 62.31)"/><circle cx="204.74" cy="62.31" r="36.05" class="bd" style="fill:#d8f0fc" transform="rotate(-82 204.74 62.31)"/><circle cx="204.74" cy="62.31" r="34.99" class="am" style="fill:#dbf1fd"/><path d="m170.799,62.311c0-18.744,15.195-33.939,33.939-33.939s33.939,15.195,33.939,33.939-15.195,33.94-33.939,33.94-33.939-15.195-33.939-33.94Z" class="by" style="fill:#def2fd"/><circle cx="204.74" cy="62.31" r="32.88" class="bv" style="fill:#e1f4fd" transform="rotate(-85 204.74 62.31)"/><circle cx="204.74" cy="62.31" r="31.83" class="bn" style="fill:#e4f5fd" transform="rotate(-2 204.79 62.33)"/><path d="m173.969,62.311c0-16.994,13.775-30.77,30.77-30.77s30.769,13.776,30.769,30.77-13.775,30.77-30.769,30.77-30.77-13.775-30.77-30.77Z" class="bp" style="fill:#e7f6fd"/><circle cx="204.74" cy="62.31" r="29.71" class="p" style="fill:#eaf7fe"/><path d="m176.081,62.311c0-15.827,12.83-28.658,28.658-28.658s28.658,12.831,28.658,28.658-12.832,28.657-28.658,28.657-28.658-12.83-28.658-28.657Z" class="au" style="fill:#edf8fe"/><circle cx="204.74" cy="62.31" r="27.6" class="ah" style="fill:#f0f9fe" transform="rotate(-2 204.7 62.3)"/><circle cx="204.74" cy="62.31" r="26.55" class="ap" style="fill:#f3fafe" transform="rotate(-85 204.74 62.31)"/><path d="m179.25,62.311c0-14.077,11.41-25.489,25.488-25.489s25.488,11.412,25.488,25.489-11.412,25.488-25.488,25.488-25.488-11.411-25.488-25.488Z" class="bq" style="fill:#f6fcfe"/><circle cx="204.74" cy="62.31" r="24.43" class="ag" style="fill:#fafdff"/><path d="m181.362,62.311c0-12.91,10.467-23.376,23.377-23.376s23.377,10.466,23.377,23.376-10.467,23.376-23.377,23.376-23.377-10.466-23.377-23.376Z" class="r" style="fill:#fff"/><circle cx="204.74" cy="62.31" r="22.32" class="r" style="fill:#fff" transform="rotate(-85 204.74 62.31)"/><circle cx="204.74" cy="62.31" r="11.16" class="r" style="fill:#fff" transform="rotate(-56 204.74 62.31)"/></g><path d="m184.928,60.276c9.559-15.909,30.205-21.056,46.115-11.494,15.91,9.561,21.059,30.209,11.498,46.118-9.559,15.91-30.205,21.057-46.115,11.495-15.91-9.561-21.059-30.209-11.498-46.119Z" class="ax" style="fill:none;stroke:#faa61a;stroke-miterlimit:3.864;stroke-width:7.857px"/><path d="m231.65 23.35 8.83 1.82 9.47 4.28-4.81 17.77c-2.9-3.03-6.23-5.65-9.9-7.75 8.99-12.81-3.58-16.12-3.58-16.12ZM203.58 65.72c2.41-.35 5.77.04 9.07.98 2.99.86 6.21 2.53 5.18 6.11-.87 3.04-4.97 3.02-7.26 2.36-1.39-.4-2.58-.68-4.24-1.33l-1.9 6.62c1.19.28 2.59.63 4.19 1.09 2.35.67 6.65 2.37 5.56 6.21-1.1 3.84-5.95 3.43-8.89 2.59-3.52-1.01-6.72-2.33-8.73-4.41l-2.73 7.71c2.39 1.73 6.36 3.21 10.52 4.4 7.26 2.08 16.97 2.27 19.6-6.91 1.33-4.64-.76-8.42-4.98-10.61l.03-.11c4.43.06 7.95-1.94 9.17-6.21 2.33-8.11-4.76-12.4-11.7-14.39-4.11-1.18-7.57-1.59-11.28-1.56l-1.61 7.45Z" class="ar" style="fill:#ed1c24;fill-rule:evenodd"/><g class="bm" style="clip-path:url(#i)"><path d="M253.9 81.69H292.86V85.76H253.9z" class="as" style="fill:#ed1c24" transform="rotate(-14 273.37 83.72)"/><path d="M252.91 77.74H291.87V81.81H252.91z" class="ae" style="fill:#ee2924" transform="rotate(-14 272.38 79.77)"/><path d="M251.93 73.79H290.89V77.86H251.93z" class="bf" style="fill:#ee3424" transform="rotate(-14 271.4 75.82)"/><path d="M250.94 69.84H289.9V73.91H250.94z" class="q" style="fill:#ef3d23" transform="rotate(-14 270.43 71.88)"/><path d="M249.96 65.89H288.92V69.96H249.96z" class="w" style="fill:#ef4523" transform="rotate(-14 269.45 67.93)"/><path d="M248.98 61.95H287.94V66.02H248.98z" class="cb" style="fill:#f04c23" transform="rotate(-14 268.47 63.98)"/><path d="M247.99 58H286.95V62.07H247.99z" class="bc" style="fill:#f05423" transform="rotate(-14 267.47 60.03)"/><path d="M247.01 54.05H285.97V58.12H247.01z" class="ak" style="fill:#f15a22" transform="rotate(-14 266.48 56.08)"/><path d="M246.02 50.1H284.98V54.17H246.02z" class="aq" style="fill:#f16122" transform="rotate(-14 265.5 52.14)"/><path d="M245.04 46.15H284V50.22H245.04z" class="bz" style="fill:#f26722" transform="rotate(-14 264.52 48.19)"/><path d="M244.05 42.2H283.01V46.27H244.05z" class="bo" style="fill:#f36d21" transform="rotate(-14 263.53 44.24)"/><path d="M243.07 38.26H282.03V42.33H243.07z" class="bl" style="fill:#f37221" transform="rotate(-14 262.56 40.3)"/><path d="M242.09 34.31H281.05V38.38H242.09z" class="bx" style="fill:#f47820" transform="rotate(-14 261.56 36.34)"/><path d="M241.1 30.36H280.06V34.43H241.1z" class="l" style="fill:#f47d20" transform="rotate(-14 260.58 32.4)"/><path d="M240.12 26.41H279.08V30.48H240.12z" class="ac" style="fill:#f58220" transform="rotate(-14 259.6 28.45)"/><path d="M239.13 22.47H278.09V26.54H239.13z" class="cc" style="fill:#f6871f" transform="rotate(-14 258.62 24.5)"/><path d="M238.15 18.52H277.11V22.59H238.15z" class="br" style="fill:#f78c1e" transform="rotate(-14 257.63 20.55)"/><path d="M237.16 14.57H276.12V18.64H237.16z" class="aj" style="fill:#f7911e" transform="rotate(-14 256.65 16.6)"/><path d="M236.18 10.62H275.14V14.69H236.18z" class="z" style="fill:#f8961d" transform="rotate(-14 255.65 12.66)"/><path d="M235.19 6.67H274.15V10.74H235.19z" class="o" style="fill:#f99b1c" transform="rotate(-14 254.69 8.7)"/><path d="M234.21 2.73H273.17V6.8H234.21z" class="m" style="fill:#f9a11b" transform="rotate(-14 253.68 4.76)"/><path d="M233.22-1.22H272.18V2.85H233.22z" class="x" style="fill:#faa61a" transform="rotate(-14 252.7 .81)"/></g></g></svg>