<svg xmlns="http://www.w3.org/2000/svg" id="b" viewBox="0 0 278.13 139.1"><defs><linearGradient id="d" x1="6.84" x2="221.56" y1="100.45" y2="100.45" gradientUnits="userSpaceOnUse"><stop offset="0" stop-color="#ec1c24"/><stop offset="1" stop-color="#ffc10e"/></linearGradient><linearGradient id="j" x1="226.56" x2="244.25" y1="116.6" y2="78.64" gradientUnits="userSpaceOnUse"><stop offset=".01" stop-color="#ec1c24"/><stop offset="1" stop-color="#f6921e"/></linearGradient><radialGradient id="h" cx="238.59" cy="98.69" r="32.17" fx="238.59" fy="98.69" gradientTransform="rotate(89 238.6 98.7)" gradientUnits="userSpaceOnUse"><stop offset="0" stop-color="#fff"/><stop offset=".34" stop-color="#fcfdfe"/><stop offset=".52" stop-color="#f4f9fc"/><stop offset=".67" stop-color="#e7f1f9"/><stop offset=".79" stop-color="#d4e6f5"/><stop offset=".9" stop-color="#bbd8f0"/><stop offset="1" stop-color="#9ec8ea"/></radialGradient><style>.p{fill-rule:evenodd}.p,.q{fill:#231f20}.s{fill:#72bb4a}</style></defs><path id="c" d="m221.556,76.089c-26.451-7.185-114.257-34.624-214.715,31.361l16.828,29.133s88.861-81.513,197.887-60.494" style="fill:url(#d)"/><g id="e"><path d="M109.49 58.76 123.83 57.25 118.41 2.13 102.63 3.1 109.49 58.76M125.53 57.21 139.94 56.71 138.47 4.1 123.31 3.99 125.53 57.21" class="q"/><path d="m143.387,56.394l13.042.396.866-35.349-14.416-.251.508,35.203Zm-1.045-40.172l15.103.18.251-9.531-15.249-1.555-.105,10.906" class="p"/><path d="m158.498,56.394l14.34,1.508,2.516-22.164c1.27-.838,2.506-1.334,3.857-1.191,1.783.187,2.627,1.039,2.375,3.444l-3.602,20.741,14.289,2.182,2.592-12.5c.629-5.42,1.269-10.907,1.639-14.41.895-8.516-4.603-10.9-8.932-11.355-3.894-.408-7.304,1.246-11.049,3.144l.256-3.027-15.65-1.357-2.631,34.986" class="q"/><path d="M197.6 38.81c-.92 4.32 1.56 8.52 4.88 10.22l-.03.14c-6.02 1.4-10.09 3.22-10.81 6.6-.62 2.91.4 5.31 6.4 7.86l-.03.14c-4.57.58-8.37 3.8-9.16 7.51-1.09 5.13 2.78 9.35 12.51 11.41 18.42 3.92 23.86-4.95 24.97-10.15 1.45-6.82-1.96-12-11.47-15.08l-6.83-2.23c-1.66-.56-1.85-1.17-1.68-1.98.12-.54.85-1.3 1.88-1.08 1.09.23 2.07.72 3.95 1.12 9.54 2.03 15.06-1.81 16.02-6.34.3-1.39.31-2.65-.01-3.85l4.45 1.16 1.85-8.71-10.01-1.92c-1.38-.96-4.44-2.74-8.21-3.54-10.82-2.3-17.33 2.32-18.69 8.73Zm3.63 31.06c.63-2.97 3.05-3.59 5.2-3.55 3.33 1.06 6.39 2.21 5.78 5.11-.52 2.43-2.53 4.12-6.66 3.24-3.52-.75-4.72-2.91-4.32-4.8Zm8.83-28.97c.52-2.43 2.86-3.91 4.69-3.52 2.43.52 3.72 2.55 3.14 5.26-.57 2.7-2.71 4.08-4.84 3.63-2.19-.46-3.62-2.39-2.99-5.36M38.72 82.17l-7.07-19.94 2.69-.98c1.67-.61 3.05-.01 5.31 3.03l9.23 11.98 20.15-7.33c-14.11-17.65-17.75-20.37-23.23-19.75l-.06-.16c6.23-2.64 8.43-10.69 5.71-18.15-3.36-9.25-10.59-15.25-24.75-10.1L0 30.48l22.47 60.07 16.24-8.37Zm-15.85-44.76 4.07-1.48c4.44-1.61 6.28.29 7.67 4.1 1.74 4.79-.73 6.14-4 7.34l-3.71 1.35-4.03-11.3" class="p"/><path d="m76.965,44.126c-1.123-6.545-.179-9.965,3.639-10.658,3.676-.666,5.772,2.203,6.895,8.748,1.121,6.543.107,9.977-3.569,10.643-3.818.693-5.843-2.189-6.964-8.732Zm-16.824,3.051c1.605,9.371,9.025,21.189,25.922,18.125,16.824-3.051,19.866-16.766,18.26-26.137-1.607-9.373-9.025-21.189-25.852-18.139-16.894,3.064-19.938,16.779-18.33,26.15" class="p"/><path d="m98.432,112.109c-2.477,1.135-5.083,2.074-7.746,2.793-10.435,2.82-14.348-2.424-15.713-7.656-1.102-4.215-.709-11.558,10.805-14.668,1.727-.468,4.897-1.013,7.551-1.186l2.56-14.151c-4.552-.665-12.23-.74-17.627.718-19.503,5.271-26.053,18.245-21.838,34.378,3.797,14.533,16.23,24.088,33.647,19.381,2.95-.797,5.575-1.66,7.894-2.522,2.37-.951,4.578-1.937,6.551-2.937l-6.084-14.148" class="q"/><path d="m133.062,91.667c-1.276-6.766-6.043-10.049-14.214-8.436-4.296.85-9.701.527-16.421,5.578l5.598,10.524c3.002-2.454,6.146-4.151,8.771-4.669,2.387-.471,3.375.838,3.69,2.495l.195,1.035c-15.57,3.076-18.503,8.524-16.951,16.74,1.236,6.559,6.508,9.24,11.518,8.25,3.52-.695,7.418-3.326,9.726-6.504,1.011,2.736,3.816,3.83,6.62,3.275,3.221-.637,7.254-2.221,10.599-4.171l-2.567-9.017c-.531.462-1.148.799-1.745.916-.835.166-1.979-.322-2.306-2.051-.847-4.486-1.587-9.066-2.512-13.968Zm-9.666,18.954c-.943,1.547-2.451,2.416-3.645,2.652-1.79.354-3.579-.939-4.036-3.355-.494-2.624.453-4.816,6.419-5.994l1.263,6.697" class="p"/><path d="M143.18 116.08c4.03.82 8.67 1.43 12.33 1.28 4.11-.16 13.46-1.46 12.51-11.93-.49-5.43-3.22-9-7.85-10.06l-4.39-1.01c-1.29-.28-1.68-.85-1.74-1.51-.1-1.11.7-1.74 2.7-1.81 2.69-.11 5.42.31 8.08 1.19l.51-9.61c-4.91-.98-7.92-1.32-11.97-1.16-8.63.35-12.83 5.25-12.21 12.12.52 5.69 4.17 9.36 10.02 9.91 3.36.33 3.81.9 3.9 1.88.09 1.05-.8 1.94-2.57 2.01-2.12.08-6.08-.68-8.84-1.35l-.46 10.07M170.19 116.64l10.75.87 1.12-19.51c1.06-.67 2.1-1.03 3.27-.82 1.55.28 2.31 1.08 2.21 3.2l-.94 18.14 9.96 1.46s3.01-18.21 3.16-21.3c.37-7.5-3.99-10.88-7.74-11.55-3.37-.6-6.24.66-9.37 2.11l1.22-19.24-13.62-1.42-.01 48.06" class="q"/></g><g id="f"><path d="M124.83 55.12 119.41 0 103.63.96 110.49 56.63 124.83 55.12zM140.94 54.57 139.48 1.97 124.31 1.86 126.53 55.08 140.94 54.57zM158.7 4.74 143.45 3.18 143.34 14.09 158.45 14.27 158.7 4.74zM157.43 54.66 158.3 19.31 143.88 19.06 144.39 54.26 157.43 54.66zM235.51 33.41l-10.01-1.92c-1.38-.96-4.44-2.74-8.21-3.54-10.82-2.3-17.33 2.32-18.69 8.73-.92 4.32 1.56 8.52 4.88 10.22l-.03.14c-3.6.84-6.5 1.83-8.4 3.22l.82-3.97c.63-5.42 1.27-10.91 1.64-14.41.9-8.52-4.6-10.9-8.93-11.35-3.89-.41-7.3 1.25-11.05 3.15l.26-3.03-15.65-1.36-2.63 34.99 14.34 1.51 2.52-22.16c1.27-.84 2.51-1.33 3.86-1.19 1.78.19 2.63 1.04 2.38 3.44l-3.6 20.74 14.29 2.18.2-.95c.95 1.23 2.68 2.43 5.57 3.66l-.03.14c-4.57.58-8.37 3.8-9.16 7.51-1.09 5.13 2.78 9.35 12.51 11.41 18.42 3.92 23.86-4.95 24.97-10.15 1.45-6.82-1.96-12-11.47-15.08l-6.83-2.23c-1.66-.56-1.85-1.17-1.68-1.98.12-.54.85-1.3 1.88-1.08 1.09.23 2.07.72 3.95 1.12 9.54 2.03 15.06-1.81 16.02-6.34.3-1.39.31-2.65-.01-3.85l4.45 1.16 1.85-8.71Zm-28.08 30.78c3.33 1.06 6.39 2.21 5.78 5.11-.52 2.43-2.53 4.12-6.66 3.24-3.52-.75-4.72-2.91-4.32-4.8.63-2.97 3.05-3.59 5.2-3.55Zm11.45-23.69c-.57 2.7-2.71 4.08-4.84 3.63-2.19-.46-3.62-2.39-2.99-5.36.52-2.43 2.86-3.91 4.69-3.52 2.43.52 3.72 2.55 3.14 5.26ZM46.79 47.04l-.06-.16c6.23-2.64 8.43-10.69 5.71-18.15-3.36-9.25-10.59-15.25-24.75-10.1L1 28.34l22.47 60.07 16.24-8.37-7.07-19.94 2.69-.98c1.67-.61 3.05-.01 5.31 3.03l9.23 11.98 20.15-7.33c-14.11-17.64-17.75-20.37-23.23-19.75Zm-15.19-1.82-3.71 1.35-4.03-11.3 4.07-1.48c4.44-1.61 6.28.29 7.67 4.1 1.74 4.79-.73 6.15-4 7.34Z" class="s"/><path d="M87.06 63.17c16.82-3.05 19.87-16.77 18.26-26.14-1.61-9.37-9.02-21.19-25.85-18.14-16.89 3.06-19.94 16.78-18.33 26.15 1.61 9.37 9.03 21.19 25.92 18.13Zm-5.46-31.83c3.68-.67 5.77 2.2 6.9 8.75 1.12 6.54.11 9.98-3.57 10.64-3.82.69-5.84-2.19-6.96-8.73-1.12-6.54-.18-9.96 3.64-10.66ZM91.69 112.77c-10.43 2.82-14.35-2.42-15.71-7.66-1.1-4.21-.71-11.56 10.81-14.67 1.73-.47 4.9-1.01 7.55-1.19l2.56-14.15c-4.55-.66-12.23-.74-17.63.72-19.5 5.27-26.05 18.25-21.84 34.38 3.8 14.53 16.23 24.09 33.65 19.38 2.95-.8 5.58-1.66 7.89-2.52 2.37-.95 4.58-1.94 6.55-2.94l-6.08-14.15c-2.48 1.14-5.08 2.07-7.75 2.79ZM138.88 105.55c-.83.17-1.98-.32-2.31-2.05-.85-4.49-1.59-9.07-2.51-13.97-1.28-6.77-6.04-10.05-14.21-8.44-4.3.85-9.7.53-16.42 5.58l5.6 10.52c3-2.45 6.15-4.15 8.77-4.67 2.39-.47 3.38.84 3.69 2.5l.2 1.03c-15.57 3.08-18.5 8.52-16.95 16.74 1.24 6.56 6.51 9.24 11.52 8.25 3.52-.69 7.42-3.33 9.73-6.5 1.01 2.74 3.82 3.83 6.62 3.28 3.22-.64 7.25-2.22 10.6-4.17l-2.57-9.02c-.53.46-1.15.8-1.74.92Zm-18.13 5.59c-1.79.35-3.58-.94-4.04-3.35-.49-2.62.45-4.82 6.42-5.99l1.26 6.7c-.94 1.55-2.45 2.42-3.64 2.65ZM161.17 93.23l-4.39-1.01c-1.29-.28-1.68-.85-1.74-1.51-.1-1.11.7-1.74 2.7-1.81 2.69-.11 5.42.31 8.08 1.19l.51-9.61c-4.91-.98-7.92-1.32-11.97-1.16-8.63.35-12.83 5.25-12.21 12.12.52 5.69 4.17 9.36 10.02 9.91 3.36.33 3.81.9 3.9 1.88.09 1.05-.8 1.94-2.57 2.01-2.12.08-6.08-.68-8.84-1.35l-.46 10.07c4.03.82 8.67 1.43 12.33 1.28 4.11-.16 13.46-1.46 12.51-11.93-.49-5.43-3.22-9-7.85-10.06ZM192.98 85c-3.37-.6-6.24.66-9.37 2.11l1.22-19.24-13.62-1.42-.01 48.06 10.75.87 1.12-19.51c1.06-.67 2.1-1.03 3.27-.82 1.55.28 2.31 1.08 2.21 3.2l-.94 18.14 9.96 1.46s3.01-18.21 3.16-21.3c.37-7.5-3.99-10.88-7.74-11.55Z" class="s"/></g><g id="g"><path d="m220.206,65.083c18.971-10.086,42.525-2.883,52.61,16.09,10.086,18.972,2.885,42.527-16.085,52.614-18.969,10.086-42.523,2.885-52.611-16.088-10.086-18.973-2.885-42.528,16.086-52.616" style="stroke:#fff;stroke-width:1.5px;fill:#303d95"/><path d="m234.591,56.391s21.268-6.762,38.346,12.298c0,0-4.941-13.335-19.293-16.917-8.861-2.211-19.053,4.619-19.053,4.619" style="fill:#303d95"/><path d="m240.147,47.626s13.205-8.907,29.469,4.327c0,0-5.203-10.029-17.146-10.143-7.484-.072-12.322,5.815-12.322,5.815" style="fill:#727eb8"/><path d="m243.952,39.457s5.758-6.623,16.299-1.898c0,0-6.533-3.793-10.572-2.953-4.035.84-5.726,4.851-5.726,4.851" style="fill:#afb4d6"/><circle cx="238.59" cy="98.69" r="32.17" style="fill:url(#h)" transform="rotate(-89 238.6 98.7)"/></g><g id="i"><path d="m252.204,116.23c7.598-13.062-10.953-22.423-20.932-25.243,1.072-1.524,2.32-2.931,3.631-4.252,8.152,3.26,15.951,8.129,22.371,14.127,1.545-2.946,3.805-5.572,6.113-7.943-9.756-7.694-21.168-13.998-33.293-16.96-5.086,5.257-9.428,11.208-12.523,17.852,6.406.895,24.603,5.919,21.676,15.169-3.491,6.964-16.374.772-12.209-5.83-4.394-2.131-8.838-4.195-13.351-6.065-3.098,8.591,3.791,15.927,10.387,20.423,8.57,5.326,21.303,8.292,28.131-1.277" class="q"/><path d="m251.537,113.563c7.598-13.062-10.953-22.423-20.932-25.243,1.072-1.524,2.32-2.931,3.631-4.252,8.152,3.26,15.951,8.129,22.371,14.127,1.545-2.946,3.805-5.572,6.113-7.943-9.756-7.694-21.168-13.998-33.293-16.96-5.086,5.257-9.428,11.208-12.523,17.852,6.406.895,24.603,5.919,21.676,15.169-3.491,6.964-16.374.772-12.209-5.83-4.394-2.131-8.838-4.195-13.351-6.065-3.098,8.591,3.791,15.927,10.387,20.423,8.57,5.326,21.303,8.292,28.131-1.277" style="fill:url(#j)"/></g></svg>