<svg xmlns="http://www.w3.org/2000/svg" id="b" viewBox="0 0 236.31 109.42"><defs><clipPath id="d"><path d="M0 0h236.31v109.42H0z" style="fill:none"/></clipPath><style>.f{fill:#4b2884}.i{fill:#020203}</style></defs><g id="c" style="clip-path:url(#d)"><path d="M149.57 87.82a45.25 45.25 0 0 0 31.54 12.78c25.04 0 45.4-20.36 45.4-45.4s-20.36-45.4-45.4-45.4a45.45 45.45 0 0 0-40.83 25.57c3.2 1.14 6.6 3.39 6.6 6.91 0 2.2-.68 5.71-1.61 10.59-1.36 7.04-3.04 15.8-3.04 22.8 0 1.24.15 2.01.29 2.47.8-.96 2.1-3.21 3.19-6.97l.7-2.4 2.58-.34s.2-.03.55-.03c3.16 0 6.36 2.34 6.36 6.8 0 4.83-2.58 9.5-6.33 12.62M137.72 50.85l-1.23 4.14c-.16.56-.41 1.61-.7 2.96.06.95.15 1.9.26 2.83a347.9 347.9 0 0 1 1.7-9.36c.64-3.27 1.24-6.4 1.42-8.2a8.92 8.92 0 0 0-1.64-.74c-.76 2.6-1.3 5.3-1.58 8.07l1.77.3ZM132.15 49.92h.02l.01-.08-.04.08M134.06 69.67c-.07.94-.11 1.84-.11 2.65 0 1.77.24 3.94.8 5.92a18.5 18.5 0 0 1-.17-2.57c0-1.3.06-2.63.15-4-.24-.66-.46-1.32-.67-2" class="f"/><path d="M181.6 0a54.73 54.73 0 0 0-52.5 39.33c2.3-3.47 4.4-4.87 6.7-4.87l.66.03a49.29 49.29 0 0 1 44.65-28.52c27.15 0 49.23 22.09 49.23 49.23s-22.08 49.22-49.23 49.22a49.08 49.08 0 0 1-34.81-14.45 14.86 14.86 0 0 1-5.17 1.54A54.7 54.7 0 1 0 181.61 0" class="f"/><path d="M202.59 21.24v13.61h-26.16l-.78 11.57a20.04 20.04 0 0 1 5.7-3.7c2.1-.9 4.45-1.35 7.04-1.35 5.64 0 9.92 1.78 12.84 5.35 2.91 3.56 4.37 9.07 4.37 16.53 0 4.53-.37 8.47-1.12 11.81-.74 3.34-1.99 6.11-3.74 8.32a15.25 15.25 0 0 1-6.95 4.86c-2.89 1.03-6.47 1.55-10.75 1.55-7.97 0-13.72-1.68-17.26-5.05-3.53-3.37-5.3-8.17-5.3-14.4v-2.23h16.92v2.33c0 3.25.44 5.45 1.31 6.62a4.3 4.3 0 0 0 3.65 1.74c.9 0 1.67-.14 2.29-.43.61-.3 1.15-.96 1.6-2 .45-1.03.78-2.52.97-4.47.2-1.94.3-4.57.3-7.88 0-3.88-.44-6.6-1.32-8.12a4.19 4.19 0 0 0-3.84-2.28c-1.49 0-2.69.45-3.6 1.36-.9.91-1.36 2.4-1.36 4.47h-16.33l1.55-38.21h39.97Z" style="fill:#fff"/><path d="M46.71 61.9c3.08 8.24-4.79 17.46-9.95 21.14-8.73 6.27-19.06 6.15-25.7 2.58C5.54 82.67.75 75.05.5 64.97 0 38.91 21.9 16.66 35.65 11.37c6.64-2.58 12.66-3.07 16.6.37 2.7 2.34 5.53 5.9 6.51 8.98 1.1 3.56.74 7-1.1 10.82-1.85 3.8-3.57 8.6-4.92 12.16-.37.99-1.23 1.73-2.7.74-2.83-1.84-4.8-5.65-2.96-11.8 1.97-6.51 6.4-13.52 3.57-16.47-3.44-3.69-22.13 6.27-33.2 24.59C6.65 58.7 7.88 76.9 13.9 81.8c7.87 6.4 20.9-1.84 30.24-20.16.62-1.35 1.97-1.35 2.58.25M75.8 42.73h6.9a405.35 405.35 0 0 0-6.13 33.06c-.2 1.07-.2 1.85-.2 2.53 0 1.46.3 2.14.78 2.14 1.07 0 5.16-4.67 9.82-16.73.59 0 2.73.78 2.73 1.37C83.76 80.66 79 87.46 74.53 87.46c-3.11 0-4.87-2.82-4.87-9.53v-1.07c-2.23 5.93-5.63 11.09-11.27 11.09-4.77 0-6.72-5.25-6.72-12.35 0-13.71 7.5-33.94 16.73-33.94 3.6 0 5.64 2.14 6.32 6.51l1.07-5.44Zm-15.96 31.9c0 3.01.59 5.05 2.05 5.05 4.47 0 10.01-15.85 10.01-24.9 0-3.6-.87-6.12-3.01-6.12-4.09 0-9.05 17.12-9.05 25.96" class="i"/><path d="M92.68 52s16.24 7.23 16.24 22.6c0 10.14-5.39 13.94-11.48 13.94-7.4 0-14.56-8.3-14.56-15.28 0-3.26 2.12-10.23 5.3-10.23 1.23 0 3.97 2.47 3.97 3.26 0 2.83-3.8 9.8-3.8 10.6S89.5 82 94.62 82c5.56 0 8.2-4.06 8.2-10.06 0-9-8.29-15.53-14.11-16.24-1.6-1.32-2.47-4.4-2.3-6.7.36-3.71 21.8-11.39 23.12-11.39.89 0 2.92 2.3 2.92 3.88 0 3.36-6 8.21-8.21 8.21-.88 0-1.15-2.38-2.03-2.38-2.3.09-9 3.62-9.62 4.32l.09.36ZM131.93 53.61c-1.77 2.42-9.4 22.05-10.23 34.14 0 0-.37.83-2.33.83-3.35 0-6.7-3.8-6.7-5.76 0-10.14 4.2-63.06 7.73-67.06 1.4-1.49 7.34.37 7.34 2.98 0 5.4-1.58 9.11-2.6 14.13-1.12 5.68-4.28 29.86-4.28 34.04l.84.19c2.14-6.05 9.76-28.93 14.32-28.93 2.42 0 7.25 1.96 7.25 4 0 4.75-4.65 21.4-4.65 33.4 0 3.72 1.12 6.7 4.1 6.7 2.88 0 5.48-5.31 6.88-10.15 0 0 2.7-.28 2.7 2.98 0 6.23-6.05 12.56-12.28 12.56-7.25 0-9.67-9.21-9.67-15.44 0-6.05 1.95-15.9 2.7-18.42l-1.12-.19Z" class="i"/></g></svg>