<svg xmlns="http://www.w3.org/2000/svg" viewBox="35.94 62.83 447.21 212.01"><defs><radialGradient id="b" cx="-77.9" cy="867.92" r="1.67" gradientTransform="translate(1942.67 20546.35) scale(23.61 -23.61)" gradientUnits="userSpaceOnUse"><stop offset="0" stop-color="#fff"/><stop offset=".08" stop-color="#fffdf4"/><stop offset=".2" stop-color="#fff8d9"/><stop offset=".37" stop-color="#fff0ad"/><stop offset=".57" stop-color="#ffe570"/><stop offset=".79" stop-color="#ffd723"/><stop offset=".88" stop-color="#ffd100"/></radialGradient><clipPath id="a"><path fill="none" d="M65.46 73.46a50.75 50.75 0 1 0 101.5 0 50.75 50.75 0 0 0-101.5 0"/></clipPath></defs><path fill="#ffd100" d="M122.16 241.48a309.9 309.9 0 0 1-19.98-7.4c10.74 6.79 24.39 12.86 38.94 17.18a145.2 145.2 0 0 0 19.52 4.68c2.24.37 4 .63 5.99.84l.59-4.21c-13.55-2.02-28.84-5.71-45.06-11.1"/><g fill="#7b8689"><path d="M345.78 164.12h16.12v-3.55l-16.14-.01.02 3.56zM365.46 160.58l-.02 5.73 2.54-.03v6.98a40.41 40.41 0 0 0 7.23 12.25c6.04 6.89 14.12 10.62 22.95 10.62.65 0 1.3-.02 1.95-.06 7.93-.48 15.6-4.58 21.38-11.23-5.2 4.53-11.43 7.29-17.82 7.68-.65.04-1.3.06-1.95.06-8.83 0-16.91-3.73-22.95-10.62-7.1-8.12-10.85-19.77-10.84-33.71 0-14.35 3.79-26.41 10.73-34.51l-.6.5c-6.41 5.79-10.72 14.43-12.6 24.98l.02 21.38ZM411.58 138.05c-1.3-3.54-3.68-5.67-6.58-5.83a7.23 7.23 0 0 0-5.5 2.09c-.67.64-1.3 1.43-1.85 2.32a6.94 6.94 0 0 1 3.8-.86c2.28.13 4.23 1.49 5.6 3.77l9.65.3 13.29-6.22-.34-2.08c-.04-.13-.1-.26-.13-.4l-17.37 8.47-.57-1.57ZM215.56 233.18c.18-1.02.4-2.03.68-3.02l5.62-19.51-2.57.15-5.28 18.32 1.55 4.07Z"/><path d="m398.08 142.9-.2 20.19c.33.44.67.84 1.03 1.2.6.59 1.24 1.06 1.9 1.4h5.96a7.4 7.4 0 0 0 3.56-3.55l-8.94.02.19-19.12-3.52-.13ZM314.46 196.44l-2.8.16.06 3.34 52.7-3.1v-3.34l-49.15 2.89-1.32-97.23-3.61-.37 1.06 77.75 3.06 19.9zM345.58 131.16l18.1 1.07v-3.76l-18.12-1.07.02 3.76zM478.18 206.54v-.02c-1.5-1.24-2.8-1.77-4.12-1.67-.26.02-.66.1-.75.45l.42.1 2.39.52c.67.14 1.37.35 2.06.63ZM470 219.4s1.18-.17 1.2-.91v-.02a4.71 4.71 0 0 0-.51-.1l-2.2-.28a9.9 9.9 0 0 1-3.91-1.34l.58.54c1.7 1.57 3.34 2.28 4.84 2.1ZM462.89 215.39c-1.6-1.65-2.66-4.1-2.55-7.53a16.63 16.63 0 0 1 3-9.26 15.3 15.3 0 0 0-3.82 3.9l-.77 25.44 4.14-12.55ZM432.32 168.78l-6.05 24.45 22.4-1.32.59-3.38-19.44 1.14 18.93-76.53-2.61-.27-11.61 46.93a48.5 48.5 0 0 1-2.22 8.98ZM464 178.65l-10.16.4-.6 3.43 7.22-.28 1.27 8.95 19.66-1.16-.62-3.3-15.5.9-1.26-8.94zM446.33 208.93c-.02-.62-.02-1.25 0-1.88l.25-9.1-3.46.19-.1 3.72 3.3 7.06ZM261.13 199.57l-20.21 1.19-15.4-47.1c-.55-2.03-1.07-3.97-1.53-5.9-.06 1.69-.14 3.37-.23 5.03l-.47 8.47 14.08 43.06 22.88-1.34.88-3.4ZM404.63 240.48c-1.07.14-2.12.22-3.16.22-4.73 0-9.01-1.51-12.27-4.37-4.13-3.63-6.3-9.08-6.25-15.74a25.33 25.33 0 0 1 5.46-15.78c-3.4 2.72-6 6.4-7.52 10.7l-.07 17.2a17.42 17.42 0 0 0 4.84 7.17c3.26 2.86 7.53 4.37 12.27 4.37 1.03 0 2.09-.07 3.16-.22a22.96 22.96 0 0 0 14.93-8.36 23.2 23.2 0 0 1-11.38 4.8ZM310.4 196.68l-28.66 1.68-4.98-48.91c-.15.65-.3 1.3-.48 1.94l-2.33 8.96 4.23 41.56 32.73-1.92-.51-3.31ZM330.3 249.82l-.52-45.26-3.6.2.34 27.95 1.99-.22.24 17.54-2.03.27.04 3.07 31.93-4.27v-3.08l-28.38 3.8zM446.28 234.27l-6.57-13.12v.74l-.23 9.45 3.25 6.49 12.33-1.65.09-3.1-8.87 1.2ZM470.79 231.53a19.75 19.75 0 0 1-11.26-1.97l-.83-.43-.11 3.48-2.85.38.22.12a19.75 19.75 0 0 0 11.26 1.97 15.07 15.07 0 0 0 10.1-6.17 14.98 14.98 0 0 1-6.55 2.62ZM293.13 254.8l-1.17-48.11-3.64.2 1.26 51.47 35.62-4.78-.04-3.07-32.03 4.3zM425.52 237.06l.76-37.95-3.5.2-.13 6.87a22.72 22.72 0 0 1 2.28 10.7 25.63 25.63 0 0 1-2.72 11.13l-.25 12.6 13.87-1.85.07-3.1-10.4 1.4ZM363.42 245.38l-.03-42.72-3.56.19.02 26.2 2.37-.25.03 16.74-2.38.32v3.08l17.35-2.33v-3.08l-13.8 1.85zM217.65 202.1l-39.5 2.33 13.42-117.95-4-.34-13.86 121.82 43.75-2.5.19-3.35zM168.53 271.5l8.19-58.3-3.97-.03-8.67 61.68 29.24-3.6.2-3.1-25 3.36zM250.92 142.15c.36-3.04.8-6.07 1.46-8.96l9.15-39.46-2.67-.28-9.74 42.02 1.8 6.68ZM264.49 258.64l-1.73-50.3-3.66.2 1.84 53.65 22.84-3.05-.08-3.07-19.21 2.57zM236.68 262.37l-3.54-23.34-2.8 8.59 2.79 18.3 23.98-3.21-.7-2.98-19.73 2.64zM209.2 266.06 198.7 243l-.17-.46v.02l-.66 9.97 7.78 17.08 15.86-2.13 1.04-3.22-13.35 1.8Z"/></g><path fill="#e31f26" d="m193.33 84.25 41.59 4.3 15.96 59.26.9.02c.52-4.73 1.02-9.74 2.05-14.31l9.73-42 33.78 3.5 15.38 100.02-29.64 1.74-5.71-56.1-.61-.02c-.53 3.45-1.05 7.04-1.93 10.34l-12.21 46.98-20.63 1.2-15.04-46c-1.3-4.76-2.47-9.27-2.93-14.07l-1.28-.04c-.11 4.5-.22 9.14-.47 13.63l-2.67 47.8-39.74 2.33 13.49-118.58ZM315.42 96.9l50.3 5.22.02 24.96-21.7-1.27.06 8.99 19.83.86.02 23.42-19.7-.02.06 9.08 22.16-.34v24.08l-49.72 2.92-1.33-97.9zM434.24 142.03c-.37 12.83-.56 23.52-6.92 33.63-5.83 9.33-14.9 14.8-23.76 15.35-9.01.55-17.42-2.91-23.68-10.05-6.43-7.35-10.48-18.47-10.47-32.73 0-29.32 15.8-45.5 35.15-43.45 10.1 1.08 23.24 9.5 27.19 23.62l-18.76 9.14c-1.54-4.25-4.5-6.62-7.9-6.82-7.75-.43-12.2 8.9-12.26 19.23-.07 9.37 4.05 18.06 11.04 17.95a8.96 8.96 0 0 0 8.54-7.27l-9.5.02.2-19.74 31.13 1.12ZM456.07 159.83l3.67-22.76.62.04c.23 3.19.46 6.47.87 9.65l1.63 13.08h-6.8Zm-3.5 17.77 12.74-.5 1.26 8.93 16.58-.98-13.37-72.14-18.94-1.96-19.08 77.1 19.19-1.12 1.6-9.33Z"/><path fill="#2c2b7c" d="m264.2 206.42 20.24-1.15 1.36 49-19.87 2.66-1.73-50.51zM293.4 204.76l18.5-1.04.6 32.04 14.54-1.6.19 14.56-32.64 4.38-1.18-48.34zM331.26 202.63l16.35-.93.2 30.19 12.9-1.42.03 13.76-28.95 3.88-.53-45.48zM364.89 200.72l14.56-.82-.17 41.84-14.36 1.93-.03-42.95zM427.82 197.17l11.03-.63 9.32 19.83.3-.04c-.34-3.01-.73-6.13-.65-9.25l.3-11.07 10.1-.57-1.08 35.85-10 1.34-9.12-18.22-.34.03c.3 2.55.58 4.93.52 7.4l-.3 12.03-10.86 1.46.77-38.17ZM463.64 217.9l.49.47c1.72 1.57 3.8 2.77 6.04 2.5.95-.1 2.48-.77 2.54-2.33.05-1.55-1.21-1.55-2.1-1.7l-1.92-.25c-3.83-.5-7.03-3.12-6.86-8.7.26-8.48 6.38-13.57 12.23-13.9 3-.17 5.69.65 8.14 2.55l-2.85 8.97c-1.56-1.33-3.35-2.34-5.41-2.18-.84.06-2.1.57-2.15 2-.04 1.3 1.15 1.4 1.88 1.57l2.14.46c3.95.84 6.69 3.38 6.47 9.14-.31 8.05-6.02 12.77-11.68 13.53-3.37.45-7.3-.22-10.36-1.81l3.4-10.32ZM178.5 211.25l26.5-1.5 10.78 28.2.62-.04c.3-2.42.62-4.98 1.28-7.35l6.3-21.88 23.16-1.31 11.68 50.5-20.88 2.8-4.31-28.32-.41.04c-.34 1.79-.68 3.65-1.27 5.4l-8.03 24.77-13.82 1.86-10.04-22.04a30.78 30.78 0 0 1-1.96-6.76l-.83.07c-.05 2.24-.11 4.54-.25 6.77l-1.58 23.92-25.17 3.37 8.22-58.51ZM404.95 197.82c-11 .6-20.42 9.69-20.5 22.77-.08 13.24 9.08 19.88 19.98 18.4 10.45-1.41 18.78-9.85 19-22.14.24-12.13-7.94-19.62-18.48-19.04"/><path fill="#fff" d="m403.39 214.17 3.15-10.78 3.52 10.26 8.98-.74-6.93 6.68 3.1 9.28-8-4.67-9.38 8.96 3.55-12.16-10.36-5.94 12.37-.9z"/><g clip-path="url(#a)" transform="matrix(1, 0, 0, 1, 244.02919369979492, 139.6002065479786) matrix(1, 0, 0, 1, -208.084125, -76.760904)"><path fill="url(#b)" d="M65.46 22.7h101.51v101.51H65.46z"/></g><path fill="#ffd100" d="M150.83 196.77a84.3 84.3 0 0 1-15.43-.74c9.16 5.55 20 7.94 30.92 6.5a41.76 41.76 0 0 0 19-6.6l1.09-.77.44-.33a47.81 47.81 0 0 0 8.29-7.07 47.93 47.93 0 0 0 8.5-12.55l.73-1.63.12-.27.37-.82a44.4 44.4 0 0 0 1.63-4.75c-9.71 16.18-30.76 27.94-55.65 29.04"/><path fill="#2c2b7c" d="m191.82 135.47.86-9.38-5.11 6.48-7.04-5.05 2.73-9.01 7.65 1.6-5.94-7.16 2.53-8.07-6.36 3.45-6.9-8.33 2.4 10.9-7.3 3.93-5.8-9.57 6.04-7.63-10.3.54-6.95-11.68-.07 12.05-13.6.7 13.7 7.25-.15 12.33-14.06-.05-6.84-14.17-4.01 14.09-20.11-.24 17.57 9.17-4.53 15.89 14.4-10.93 12.98 6.89-5.91 13.3-17.72.75 13.45 8.77-7.32 16.1 14.5-11.42 10.77 7.02-2.88-13.43 10.57-8.24 6.7 8.68-6.24 12.44 10.36-7.08 5.9 7.8-.5-11.51 7.98-5.46-8.4-1.8-.41-10.92 8.1-2.03 3.82 8.95.92-10.12 6.54-1.56-6-4.26-.02.02Zm-13.6 8.89-5.02 9.77-10.16-2.13-12.25.38-2.81-13-5.85-12.4 10.29-7.94 7.12-8.68 9.7 5.08 8.82 1.98 2.26 10.17 3.84 9.22-5.92 7.55h-.02Z"/><path fill="#e31f26" d="M60.36 106.05c-4.58 11.65-2.21 39.6 8.25 58.94 3.8 7.86 8.5 15.63 13.97 23.18-13.76-14.44-29.36-37.64-35.6-66.71 6.64-9.6 9.16-11.26 13.37-15.41Z"/><path fill="#ffd100" d="M131.45 82.02a44.86 44.86 0 0 1 6.84-2.12c-6-3.36-51.4-27.47-84.84-4.82-28.23 19.12-14.58 58.8-11.57 66.53 8.22 22.43 24.63 45.2 46.2 64.13 20.93 18.36 45.62 29.66 68.35 35.19l.24-.68c-13.94-6.67-26.58-17.78-39.1-28.76-36.75-32.26-56.64-75.22-48.32-103.55a171.02 171.02 0 0 1 25.93 15.94c.4-1.75.88-3.47 1.43-5.16a174.12 174.12 0 0 0-27.77-16.53l-2.47-1.17-.94 2.56c-5.41 14.68-3.55 33.88 5.25 54.06 8.8 20.2 24.29 40.66 43.6 57.6a193.07 193.07 0 0 0 17.14 13.43 177.2 177.2 0 0 1-40.04-26.7c-20.95-18.38-36.86-40.43-44.82-62.13-2.78-7.14-15.38-43.63 9.7-60.62 9.37-6.35 19.97-8.61 30.3-8.61 18.69 0 36.55 7.38 44.89 11.4Z"/><path fill="#ffd100" d="M123.63 85.77c-10.46-4.11-26.47-10-36.92-10-10.45 0-20.11 2.64-27.8 7.84-.54.36-1.1.77-1.75 1.29l-.45.36-.07.06c-.36.3-.72.6-1.1.95l-.2.17-.33.3a27.66 27.66 0 0 0-1.88 2l-.03.05c-.2.22-.37.43-.55.66-.25.3-.5.63-.73.95l-.16.23-.1.13c-5.13 7.24-6.34 16.28-5.84 24.74a45.53 45.53 0 0 1 4.07-5.41c4.14-4.72 9.97-11 15.88-13.78l3.96 1.87 1.28.6c6.76 3.19 18.97 9.92 27.48 15.2a59.22 59.22 0 0 1 25.25-28.22h-.01Z"/><path fill="#e31f26" d="M90.26 132.39a58.81 58.81 0 0 1 18.93-43.3 49.5 49.5 0 0 0 0 86.59 58.83 58.83 0 0 1-18.93-43.3Z"/><g fill="#2c2b7c"><path d="M276.13 81.75c-2.15-2.43-3.21-5.27-3.18-8.53s1.13-5.9 3.3-7.86c2.18-1.97 4.88-2.8 8.09-2.45s5.9 1.72 8.05 4.14c2.15 2.42 3.2 5.27 3.18 8.54s-1.13 5.89-3.3 7.86c-2.18 1.97-4.88 2.79-8.1 2.45s-5.9-1.72-8.04-4.15Zm8.09-.14c2 .2 3.64-.31 4.9-1.56 1.27-1.25 1.9-2.9 1.92-4.94s-.6-3.82-1.85-5.33c-1.25-1.51-2.88-2.37-4.9-2.58s-3.64.3-4.9 1.56c-1.27 1.25-1.91 2.89-1.92 4.94s.6 3.82 1.85 5.33a7.06 7.06 0 0 0 4.9 2.58ZM299.84 64.54l4.53.47-.07 9.19 7.6-8.4 5.09.53-8.93 9.8 10.62 13.38-5.88-.62-8.52-10.83-.07 9.93-4.53-.47.17-23ZM326.92 67.37l-.14 18.7 12.07 1.26-.03 4.29-16.6-1.74.18-23 4.53.48ZM342.12 91.97l9.22-22.04 4.53.47 8.86 23.92-4.81-.5-1.33-3.66-10.26-1.07-1.38 3.38-4.83-.51Zm11.56-15.66-3.5 8.37 6.79.7-3.28-9.08ZM368.89 94.78l.17-23 4.53.48-.07 9.19 10.54 1.1.07-9.21 4.53.47-.17 22.99-4.53-.46.07-9.5-10.54-1.1-.07 9.5-4.53-.47ZM396.26 94.34c-2.15-2.43-3.21-5.27-3.18-8.53s1.13-5.9 3.3-7.86c2.18-1.97 4.88-2.8 8.09-2.45 3.22.34 5.9 1.72 8.05 4.14 2.15 2.42 3.2 5.27 3.18 8.54s-1.13 5.89-3.3 7.86c-2.18 1.97-4.88 2.79-8.1 2.45s-5.9-1.72-8.04-4.15Zm8.09-.14c2 .2 3.64-.31 4.9-1.56 1.27-1.25 1.9-2.9 1.92-4.94s-.6-3.82-1.85-5.33c-1.25-1.51-2.88-2.37-4.9-2.58s-3.64.3-4.9 1.56c-1.27 1.25-1.91 2.89-1.92 4.94s.6 3.82 1.85 5.33a7.06 7.06 0 0 0 4.9 2.58ZM419.76 100.1l.17-23 1.5.17 9.73 12.37 9.9-10.31 1.5.16-.16 22.99-4.53-.47.08-13.33-6.84 6.95-6.73-8.37-.1 13.33-4.53-.47ZM446.49 102.9l9.22-22.04 4.53.47 8.86 23.92-4.81-.5-1.33-3.66-10.26-1.07-1.38 3.38-4.83-.51Zm11.56-15.65-3.5 8.37 6.79.7-3.28-9.08Z"/></g></svg>