<svg xmlns="http://www.w3.org/2000/svg" xmlns:xlink="http://www.w3.org/1999/xlink" id="b" viewBox="0 0 636.02 177.25"><defs><radialGradient id="e" cx="587.24" cy="990.93" r="48.85" fx="587.24" fy="990.93" gradientTransform="translate(0 -905.8)" gradientUnits="userSpaceOnUse"><stop offset="0" stop-color="#e53144"/><stop offset="1" stop-color="#da2f3f"/></radialGradient><radialGradient id="g" cx="479.66" cy="990.5" r="48.89" fx="479.66" fy="990.5" gradientTransform="translate(0 -905.8)" gradientUnits="userSpaceOnUse"><stop offset="0" stop-color="#fff"/><stop offset=".7" stop-color="#fff"/><stop offset=".95" stop-color="#f6f6f6"/><stop offset="1" stop-color="#f4f4f4"/></radialGradient><radialGradient xlink:href="#g" id="i" cx="372.16" r="48.89" fx="372.16"/><radialGradient xlink:href="#g" id="k" cx="264.54" fx="264.54"/><radialGradient xlink:href="#g" id="m" cx="156.47" fx="156.47"/><radialGradient xlink:href="#g" id="o" cx="48.78" r="48.93" fx="48.78"/><linearGradient id="f" x1="587.24" x2="587.24" y1="1039.86" y2="942.15" gradientTransform="translate(0 -905.8)" gradientUnits="userSpaceOnUse"><stop offset="0" stop-color="#901b27"/><stop offset=".04" stop-color="#901b27" stop-opacity=".83"/><stop offset=".1" stop-color="#901b27" stop-opacity=".61"/><stop offset=".16" stop-color="#901b27" stop-opacity=".42"/><stop offset=".24" stop-color="#901b27" stop-opacity=".26"/><stop offset=".32" stop-color="#901b27" stop-opacity=".14"/><stop offset=".43" stop-color="#901b27" stop-opacity=".06"/><stop offset=".58" stop-color="#901b27" stop-opacity=".01"/><stop offset="1" stop-color="#901b27" stop-opacity="0"/></linearGradient><linearGradient id="h" x1="479.66" x2="479.66" y1="1039.43" y2="941.72" gradientTransform="translate(0 -905.8)" gradientUnits="userSpaceOnUse"><stop offset="0" stop-color="#949392"/><stop offset=".04" stop-color="#949392" stop-opacity=".8"/><stop offset=".1" stop-color="#949392" stop-opacity=".59"/><stop offset=".17" stop-color="#949392" stop-opacity=".4"/><stop offset=".24" stop-color="#949392" stop-opacity=".25"/><stop offset=".33" stop-color="#949392" stop-opacity=".14"/><stop offset=".43" stop-color="#949392" stop-opacity=".06"/><stop offset=".58" stop-color="#949392" stop-opacity=".01"/><stop offset="1" stop-color="#949392" stop-opacity="0"/></linearGradient><linearGradient xlink:href="#h" id="j" x1="372.16" x2="372.16"/><linearGradient xlink:href="#h" id="l" x1="264.54" x2="264.54"/><linearGradient xlink:href="#h" id="n" x1="156.47" x2="156.47"/><linearGradient xlink:href="#h" id="p" x1="48.78" x2="48.78"/><clipPath id="d"><path d="M0 0h635.9v177.25H0z" style="fill:none"/></clipPath><style>.s{fill:#111821}.s,.t{fill-rule:evenodd}.t,.u{fill:#fff}.ai{fill:#221f20}</style></defs><g id="c"><path d="M531.63 147.35H633.8v28.42H531.63z" class="u"/><path d="M535.13 148.52h97.68v26.35h-97.68v-26.35ZM380.9 177.25H635.2v-31.12H380.9v31.13Z" style="fill:#111821"/><g style="clip-path:url(#d)"><path d="M388.18 150.48h11.96c2.6 0 4.56.62 5.85 1.86s1.95 3 1.95 5.3c0 2.34-.7 4.18-2.12 5.5-1.41 1.33-3.58 2-6.47 2h-3.94v8.64h-7.23v-23.3Zm7.23 9.93h1.76c1.39 0 2.36-.23 2.92-.72.56-.48.84-1.1.84-1.85 0-.73-.24-1.35-.73-1.86-.48-.5-1.4-.76-2.74-.76h-2.05v5.2ZM413.14 161.5c0-3.8 1.07-6.76 3.19-8.87 2.11-2.12 5.06-3.18 8.84-3.18 3.88 0 6.87 1.04 8.97 3.12 2.09 2.08 3.14 5 3.14 8.74 0 2.72-.46 4.96-1.38 6.7a9.83 9.83 0 0 1-3.97 4.07 13.09 13.09 0 0 1-6.47 1.45c-2.62 0-4.8-.42-6.52-1.25a9.85 9.85 0 0 1-4.2-3.98c-1.06-1.8-1.6-4.07-1.6-6.8m7.2.04c0 2.35.44 4.04 1.32 5.07a4.44 4.44 0 0 0 3.56 1.54c1.55 0 2.74-.5 3.6-1.51.84-1 1.27-2.81 1.27-5.42 0-2.2-.45-3.8-1.33-4.8a4.54 4.54 0 0 0-3.6-1.52c-1.45 0-2.62.5-3.5 1.54-.87 1.03-1.31 2.73-1.31 5.1M441.93 150.37h6.84l2.46 13.01 3.59-13.01h6.81l3.61 13.01 2.46-13.01h6.8l-5.13 23.29h-7.05L458.23 159l-4.06 14.66h-7.06l-5.18-23.29zM480.99 150.37h19.28v4.98H488.2v3.7h11.2v4.75h-11.2v4.59h12.43v5.28h-19.64v-23.3zM506.93 173.66v-23.29h12c2.22 0 3.92.2 5.1.58a5.42 5.42 0 0 1 2.84 2.12 6.4 6.4 0 0 1 1.08 3.77c0 1.3-.28 2.4-.82 3.34a6.5 6.5 0 0 1-2.28 2.29c-.61.37-1.45.67-2.52.91a7.2 7.2 0 0 1 1.88.87c.25.19.64.6 1.14 1.21.5.64.84 1.11 1.01 1.45l3.48 6.75h-8.13l-3.84-7.11a5.43 5.43 0 0 0-1.31-1.8 3.02 3.02 0 0 0-1.77-.54h-.63v9.45h-7.23Zm7.23-13.85h3.04c.32 0 .96-.1 1.9-.32.48-.1.87-.34 1.17-.73.3-.39.45-.84.45-1.35 0-.75-.24-1.32-.71-1.73-.48-.4-1.38-.6-2.69-.6h-3.16v4.73Z" class="t"/><path d="M544.72 152.8v8.82h3.84c2.14 0 3.71-.35 4.73-1.06 1.02-.72 1.53-1.8 1.53-3.3 0-1.54-.52-2.67-1.55-3.38-1.02-.72-2.66-1.07-4.93-1.07h-3.62Zm-2.6-2.27h5.62c1.61 0 2.9.08 3.87.22.98.15 1.78.39 2.42.72a6.84 6.84 0 0 1 2.68 2.39 6.42 6.42 0 0 1-2.26 8.9 7.8 7.8 0 0 1-2.52.9c-.98.19-2.22.28-3.73.28h-3.48v9.73h-2.6v-23.14ZM574.64 173.34H562.7v-23.13h2.62v20.9h9.32v2.23zM581.53 173.05h-2.74l10.28-23.13h3.12l10.25 23.13h-2.78l-3.17-7.27H584.7l-3.17 7.27Zm14.05-9.34-5.03-11.62-4.94 11.62h9.97ZM617.25 165.26v8.5h-2.57v-8.53l-8.45-14.6h2.98l6.76 12.02 6.83-12.02h2.9l-8.45 14.63z" class="s"/><path d="M1.6 7.8c.47-1.5 1.2-2.83 2.15-4a10.51 10.51 0 0 1 3.57-2.76C8.75.34 10.41 0 12.3 0s3.55.35 4.98 1.04c1.42.69 2.61 1.61 3.57 2.77a11.84 11.84 0 0 1 2.16 4c.47 1.5.71 3.06.71 4.69s-.23 3.19-.71 4.69c-.48 1.5-1.2 2.83-2.16 3.99a10.33 10.33 0 0 1-3.57 2.76c-1.43.67-3.09 1.02-4.98 1.02s-3.55-.35-4.98-1.02a10.3 10.3 0 0 1-3.57-2.76 11.85 11.85 0 0 1-2.16-4c-.47-1.5-.71-3.06-.71-4.68s.24-3.2.71-4.7m2.93 8.25c.3 1.17.8 2.22 1.47 3.16a7.53 7.53 0 0 0 2.57 2.25c1.05.57 2.3.85 3.74.85s2.7-.28 3.74-.85a7.5 7.5 0 0 0 2.57-2.25 9.65 9.65 0 0 0 1.47-3.16 13.7 13.7 0 0 0 0-7.11 9.66 9.66 0 0 0-1.47-3.16 7.54 7.54 0 0 0-2.57-2.26c-1.05-.56-2.3-.85-3.74-.85s-2.7.29-3.74.85a7.57 7.57 0 0 0-2.57 2.26 9.66 9.66 0 0 0-1.47 3.16 13.69 13.69 0 0 0 0 7.11M35.75.57v11.89L47.84.57h4.11L41.9 10.19l10.45 14.23h-4.01l-8.61-12.06-3.98 3.71v8.35h-3.17V.57h3.17zM63.04.57v21.18h12.63v2.67h-15.8V.57h3.17zM93.4.57l9.33 23.85h-3.51l-2.6-7.18h-10.1l-2.67 7.18h-3.24L89.9.57h3.5Zm2.21 14L91.64 3.43h-.07l-4.04 11.13h8.08ZM113.25.57v10.25h12.56V.57h3.17v23.85h-3.17V13.5h-12.56v10.92h-3.17V.57h3.17zM138.59 7.8c.48-1.5 1.2-2.83 2.15-4a10.51 10.51 0 0 1 3.58-2.76C145.74.34 147.4 0 149.29 0s3.55.35 4.98 1.04c1.43.69 2.62 1.61 3.58 2.77a11.8 11.8 0 0 1 2.15 4c.48 1.5.72 3.06.72 4.69s-.24 3.19-.72 4.69c-.48 1.5-1.2 2.83-2.16 3.99a10.33 10.33 0 0 1-3.57 2.76c-1.43.67-3.08 1.02-4.98 1.02s-3.55-.35-4.97-1.02a10.3 10.3 0 0 1-3.58-2.76 11.85 11.85 0 0 1-2.15-4 15.43 15.43 0 0 1 0-9.39m2.92 8.26c.31 1.17.8 2.22 1.47 3.16a7.53 7.53 0 0 0 2.57 2.25c1.05.57 2.3.85 3.74.85s2.7-.28 3.74-.85a7.5 7.5 0 0 0 2.58-2.25 9.65 9.65 0 0 0 1.47-3.16 13.78 13.78 0 0 0 0-7.11 9.66 9.66 0 0 0-1.47-3.16 7.54 7.54 0 0 0-2.58-2.26c-1.04-.56-2.3-.85-3.74-.85s-2.7.29-3.74.85a7.57 7.57 0 0 0-2.57 2.26 9.66 9.66 0 0 0-1.47 3.16 13.69 13.69 0 0 0 0 7.11M174.01.57l7.52 20.04L189.08.57h4.34v23.85h-3.01V4.58h-.06l-7.45 19.84h-2.71l-7.45-19.84h-.06v19.84h-3.01V.57h4.34zM213.7.57l9.32 23.85h-3.51l-2.6-7.18h-10.1l-2.67 7.18h-3.24L210.2.57h3.5Zm2.2 14-3.97-11.13h-.07l-4.04 11.13h8.08Z" class="ai"/></g><path d="M587.24 36.35a48.78 48.78 0 1 1 0 97.57 48.78 48.78 0 0 1 0-97.57Z" style="fill:url(#e)"/><path d="M587.24 36.35a48.78 48.78 0 1 1 0 97.57 48.78 48.78 0 0 1 0-97.57Z" style="fill:url(#f)"/><path d="M479.66 35.92a48.78 48.78 0 1 1 0 97.56 48.78 48.78 0 0 1 0-97.56Z" style="fill:url(#g)"/><path d="M479.66 35.92a48.78 48.78 0 1 1 0 97.56 48.78 48.78 0 0 1 0-97.56Z" style="fill:url(#h)"/><path d="M372.16 35.92a48.78 48.78 0 1 1 0 97.56 48.78 48.78 0 0 1 0-97.56Z" style="fill:url(#i)"/><path d="M372.16 35.92a48.78 48.78 0 1 1 0 97.56 48.78 48.78 0 0 1 0-97.56Z" style="fill:url(#j)"/><path d="M264.54 35.92a48.78 48.78 0 1 1 0 97.56 48.78 48.78 0 0 1 0-97.56Z" style="fill:url(#k)"/><path d="M264.54 35.92a48.78 48.78 0 1 1 0 97.56 48.78 48.78 0 0 1 0-97.56Z" style="fill:url(#l)"/><path d="M156.47 35.92a48.78 48.78 0 1 1 0 97.56 48.78 48.78 0 0 1 0-97.56Z" style="fill:url(#m)"/><path d="M156.47 35.92a48.78 48.78 0 1 1 0 97.56 48.78 48.78 0 0 1 0-97.56Z" style="fill:url(#n)"/><path d="M48.78 35.92a48.78 48.78 0 1 1 0 97.56 48.78 48.78 0 0 1 0-97.56Z" style="fill:url(#o)"/><path d="M48.78 35.92a48.78 48.78 0 1 1 0 97.56 48.78 48.78 0 0 1 0-97.56Z" style="fill:url(#p)"/><path d="M546.4 101.72c-3.89-12.57-3.04-23.64 0-35.3 3.22-.18 6.45-.33 9.68-.46 4.6-.19 7.5 1.7 6.75 9.16a13.8 13.8 0 0 1-3.3 8.12c2.36 1.09 3.64 4.61 3.96 8.7.67 8.43-1.88 11.26-7.2 10.72-3.29-.23-6.57-.66-9.9-.94Zm4.54-27.24c-.36 1.99-.6 4-.73 6.02h3c1.44 0 2.51-1.05 2.74-3.2.3-2.86-1.02-2.92-2.54-2.9l-2.47.08Zm-.77 12.62c.11 2.26.35 4.5.73 6.72l3.1.15c1.74 0 2.94-.45 2.68-3.23-.26-3.24-1.88-3.5-4.22-3.58l-2.3-.05ZM564.9 102c.16-11.9 4.35-23.98 9.2-36.17l8.6-.11c2.3 12.17 6.5 24.39 9.23 36.64h-8.44l-1.28-4.84h-8.8c-.16 1.6-.28 3.19-.35 4.78l-8.16-.3Zm12.62-25.23a160.94 160.94 0 0 0-2.87 13.13h5.76c-1.09-4.35-2.1-8.8-2.89-13.13Zm17.23 25.66a339.1 339.1 0 0 0 0-36.55h7.82c1.22 9.27 1.51 18.63.86 27.96l11.43-.15c-.38 2.8-.9 5.6-1.56 8.35-6.08.28-12.32.4-18.55.4Zm20.8-.43a84.25 84.25 0 0 0 .15-35.65c2.01.12 4.43.38 6.44.53 2.3 8.6 2.7 17.59 1.18 26.36h8.22a55.25 55.25 0 0 1-2.82 8.05c-4.74.37-8.36.41-13.17.71Z" class="u"/><path d="M53.88 55.53c-2.5 0-4.78 0-6.98-.13-5.8-.3-11.6-.16-17.39.43H29l-.15.52c-3.13 12.61-5.52 28.4-1.62 58.63v.75h1.4c3.01 0 5.83.17 8.68.17 2.55 0 5.14 0 7.94-.24h.74v-.75c-.14-5.82-.14-11.65-.14-17.37h8.83c9-.12 15.74-2.44 20.06-6.93A19.03 19.03 0 0 0 79.6 76.6c-.51-12.7-10.36-20.73-25.73-21.07Zm6.96 19.9a6.18 6.18 0 0 1-1.72 4.47 8.9 8.9 0 0 1-6.3 2.32H45.7c0-2.23.1-4.65.15-7.01 0-1.88 0-3.57.13-5.24h4.68c3.1-.03 10.18.45 10.18 5.48v-.02Zm95.86-21.78c-12.5-.1-23.8 7.4-28.58 18.95a30.31 30.31 0 0 0-2.42 11.8c.23 18.07 13.14 31.33 30.94 31.54a31.01 31.01 0 0 0 31.02-31.39 31.1 31.1 0 0 0-30.96-30.9Zm-10.5 30.79c0-7.32 2.71-15.12 10.37-15.16h.37c2.3-.04 4.5.84 6.16 2.44 2.66 2.6 4.27 7.37 4.27 12.72 0 5.87-1.39 15.74-10.58 15.78-9.85.04-10.6-12.07-10.6-15.74v-.04ZM297.96 57.4h-.56c-4.75-.15-5.63-.16-10.6-.28h-3.64v.8c.45 10.31-.6 20.64-3.11 30.67-1.3-7.27-3.02-13.85-4.82-20.75-.87-3.36-1.77-6.82-2.67-10.51l-.13-.5h-.52c-4.66-.25-9.33-.25-13.98 0h-.55l-.13.5c-1.12 4.65-2.36 8.93-3.54 13.13-1.75 6.06-3.4 11.82-4.6 18.18a107.2 107.2 0 0 1-2.53-30.84v-.77h-14.06l-.15.56c-4.03 15.25-.48 33.58 11.26 57.71l.2.4h.44c3.88 0 5.87.13 7.79.13s3.49 0 6.64-.11h.64v-.64c1.03-10.51 3.13-21.34 5.2-31.9 2.1 10.49 4.21 21.31 5.26 31.9v.67h.68c2.96-.13 5.63-.13 8.3-.13h7.93l.19-.41c10.45-21.58 14.35-41.88 11-57.13l.07-.68Zm69.65 43.16v-7.72c7.76 0 15.66 0 23.47-.18h.75V77.8h-.79c-7.7-.19-15.6-.26-23.45-.2v-6.87c6.15 0 12.1 0 18.38.26l9.39.2h.93l-.15-.91c-.78-4.4-2-8.71-3.62-12.88l-.17-.45h-.47a146.59 146.59 0 0 0-41.52 0h-.6l-.1.55a126.7 126.7 0 0 0 0 56.17l.12.53h.53a169.7 169.7 0 0 0 22.25 1.6c7.1-.04 14.2-.54 21.24-1.51h.46l.17-.43a47.3 47.3 0 0 0 2.65-13.3v-.9h-.92c-9.44.69-19.06.9-28.56.9Zm139.75 2.06c.85-10.58-3.32-13.28-8.72-15.38A12.87 12.87 0 0 0 507 73.69c-1.07-12.38-9.65-18.6-26.27-18.99h-3.23c-6.54-.24-13.09.24-19.53 1.43h-.45l-.13.43c-6.53 19.4-7.13 40.36-1.61 57.52l.13.45h.47c4.34.77 8.73 1.15 13.13 1.13h3.89v-.8a603.4 603.4 0 0 1-.53-20.16v-.19h5.16c3.75 0 6.17.68 7.5 2.1 1.7 1.75 1.88 4.77 1.88 8.78-.28 3.23-.15 6.47.38 9.67l.18.6h.62c1.88-.13 3.76-.2 5.5-.25 3.95-.03 7.9-.3 11.82-.78h.56l.57-3.25-1.07.19c.08-.72.2-1.44.37-2.14a51.5 51.5 0 0 0 1.18-6.76l-.15-.05Zm-19.15-26.45c.03.55-.04 1.1-.2 1.63-.2.52-.48 1-.85 1.4-1.22 1.24-3.64 1.88-7.5 1.88h-6.88c0-3.32 0-6.75.17-10.45 2.72 0 5.48-.11 8.16-.11 4.4.02 7.02 2.08 7.1 5.65Z" style="fill:#121921"/></g></svg>