<svg xmlns="http://www.w3.org/2000/svg" id="b" viewBox="0 0 227.58 121.72"><defs><clipPath id="d"><path d="M0 0h227.58v121.72H0z" style="fill:none"/></clipPath><style>.h{fill:#ffd606}.i{fill:#020203}</style></defs><g id="c" style="clip-path:url(#d)"><path d="M118.82 70.6a285.08 285.08 0 0 1 15.62 21.45c1.7 2.64 1.69 4.87 1.37 6.28a6.67 6.67 0 0 1-1.24 2.64 50.4 50.4 0 0 0 31.6 11.1c27.93 0 50.66-22.73 50.66-50.66s-22.73-50.66-50.66-50.66a50.71 50.71 0 0 0-45.05 27.5 15.07 15.07 0 0 1 6.21-1.55c2.53 0 4.83 1.1 6.32 3.02a7.63 7.63 0 0 1 1.28 6.66l-.44 1.66-1.34 1.09c-7.65 6.22-13.51 11.6-17.5 16.05.04.51.08 1.02.14 1.53l3.03 3.9" class="h"/><path d="M166.72 0a60.81 60.81 0 0 0-51.54 28.48c-.8 4.58-1.7 10.12-2.56 15.44.84-.7 1.69-1.38 2.54-2.02a54.7 54.7 0 0 1 51-35.1c30.12 0 54.62 24.5 54.62 54.6s-24.5 54.62-54.61 54.62a54.36 54.36 0 0 1-34.89-12.63c-1.09.5-2.2.82-3.2 1.12l-.96.3c-.38.12-1.1.36-2.04.44A60.86 60.86 0 1 0 166.71 0" class="h"/><path d="M17.64 98.14c-.44.77-.77 1.31-1.76 1.31-2.3 0-6.79-1.86-7.34-2.62.99-8.87 2.52-20.81 4.27-32.31m-.23 1.83c2.3-15 6.69-43.74 7.9-47.57.32-1.32-.23-3.07 2.73-3.07 1.97 0 4.7 1.1 5.8 2.3-1.42 5.47-4.37 26.14-6.23 39.6 12.27-2.84 20.26-11.93 20.26-24.3 0-8.55-6.57-13.8-15.66-13.8-13.36 0-17.85 7-19.6 12.26 0 0-.22.33-.66.33-.99 0-6.9-3.5-7.12-5.15 0 0 3.5-13.58 23.66-13.58 15 0 27.92 8.1 27.92 22.34 0 14.35-11.5 27.27-29.79 28.92l-4.15 33.51M62.98 51.02c-3.52 15.67-6.43 27.33-6.43 35.57 0 2.92 1.1 3.42 2 3.42 2.62 0 5.94-5.63 10.36-17.19.5 0 2.81.7 2.81 1.31v.1C67.3 85.7 63.78 97.34 55.54 97.34c-5.42 0-7.23-5.02-7.23-11.95 0-11.16 4.42-27.14 6.13-34.37h8.54Zm-7.34-10.96c0-3.62 2.61-7.94 7.04-7.94 3.31 0 4.72 2.41 4.72 5.23 0 3.61-2.61 7.84-7.03 7.84-3.22 0-4.73-2.42-4.73-5.13" class="i"/><path d="M88.4 62.06c0-2.11-.9-5.82-2.3-5.82-5.23 0-9.76 11.96-9.76 21.5 0 6.34 2.01 11.56 7.14 11.56 4.82 0 9.62-5.57 14.04-16.62.6 0 1.53 5.45 1.53 6.05-3.02 8.04-8.84 19.12-19.49 19.12-7.84 0-11.25-8.04-11.25-17.6 0-13.66 7.03-30.24 18.18-30.24 5.73 0 8.04 4.62 8.04 10.45" class="i"/><path d="M96.96 77.8c.38-14.7 4.9-40.75 6.82-54.4.3-2.3 1.25-2.6 1.73-2.6 1.83 0 3.94.39 5.58 1.35 1.53.86 1.25 1.63.96 3.17-1.93 10.57-4.8 29.41-5.77 34.99 4.42-5.38 15.67-17.69 22.59-17.69 1.63 0 2.98 1.25 2.5 3.08-5.67 4.61-15.96 13.26-21.44 20.66 6.83 9.14 13.55 16.82 21.63 29.22 1.06 1.64.77 2.7 0 3.18-1.15.77-2.79 1.15-4.33 1.63-.67.2-1.92.86-3.07-.96-6.92-11.06-15-21.92-19.03-26.53-.58 6.25-.67 13.74-.3 20.28.1 2.4-.66 3.17-1.34 3.08-1.44-.3-3.75-.48-4.32-.68-1.83-.67-2.02-1.05-2.21-3.17-.1-2.6-.2-6.25 0-14.6" class="i"/><path d="M150.26 30.25c3.77-3.56 9.38-5.34 16.85-5.34 4.45 0 8.14.45 11.09 1.33 2.94.9 5.29 2.2 7.04 3.9a14.16 14.16 0 0 1 3.7 6.32c.71 2.5 1.07 5.36 1.07 8.58 0 1.44-.17 2.93-.51 4.47-.35 1.54-.91 2.98-1.7 4.31a12.78 12.78 0 0 1-3.13 3.54 11.58 11.58 0 0 1-4.83 2.16v.2c4.25.83 7.23 2.7 8.94 5.6 1.7 2.92 2.56 6.36 2.56 10.33 0 8.21-1.98 14.12-5.95 17.71-3.97 3.6-9.9 5.4-17.77 5.4-4.1 0-7.69-.35-10.73-1.03a16.48 16.48 0 0 1-7.55-3.7 15.86 15.86 0 0 1-4.42-7.14c-.96-2.98-1.43-6.66-1.43-11.04h17.86c0 2.06.12 3.77.36 5.14.24 1.37.57 2.53.98 3.49.82 1.78 2.26 2.67 4.31 2.67 1.1 0 1.99-.16 2.67-.46.69-.31 1.22-.9 1.6-1.75.37-.85.63-2.02.77-3.5a62 62 0 0 0 .2-5.59c0-3.56-.56-5.95-1.7-7.19-1.12-1.23-2.89-1.85-5.28-1.85h-4.83V54.9h2.77c1.44 0 2.67-.14 3.7-.41a5.2 5.2 0 0 0 2.57-1.54c.68-.75 1.2-1.8 1.54-3.13.34-1.34.51-3.07.51-5.2 0-3.07-.4-5.14-1.18-6.2-.79-1.07-2-1.6-3.64-1.6-1.85 0-3.17.72-3.96 2.16-.79 1.44-1.18 4.08-1.18 7.9h-17.25c.2-7.6 2.19-13.14 5.95-16.63" style="fill:#fff"/></g></svg>