<svg viewBox="2.51 2.772 153.585 43.005" xmlns="http://www.w3.org/2000/svg"><g fill="none" fill-rule="evenodd"><path d="M152.376 11.933c.78-1.144 3.743-5.456 3.718-5.477-1.462-1.348-5.197-3.238-7.79-3.52-3.229-.347-6.888.021-9.42 2.273-.61-1.55-2.125-2.179-3.445-2.179h-10.87v8.027l-6.448-7.902h-7.298v6.28c-2.55-5.265-8.801-7.277-14.29-6.415-2.623.41-5.998 1.939-8.215 4.566-1.24-1.901-3.85-3.399-5.156-3.875-3.064-1.122-6.757-1.192-9.914-.459-2.807.654-5.399 2.183-6.965 4.657V3.127H47.336v6.366a7.079 7.079 0 00-5.152-5.935c-1.733-.51-3.57-.438-5.368-.438h-9.9v6.314C23.91 3.207 15.677 1.435 9.62 3.822A11.174 11.174 0 003.465 9.58c-1.21 2.714-1.327 6.863-.028 9.73 1.986 4.45 6.449 6.65 10.666 6.643-5.153.032-8.354 2.867-8.354 7.558s3.333 7.395 8.492 7.395h10.184l1.237-2.617h2.589l1.223 2.617h32.041a66.44 66.44 0 01-.183 1.087c-.153.834.45 1.408 1.386 1.505.935.097 5.481.219 6.3-.049.2-.062.346-.26.512-.375.154.09.317.165.485.226.8.285 4.28.306 5.167.15a3.58 3.58 0 001.011-.32c.355.216.754.35 1.168.389.44.045 3.41.059 4.345-.129a2.752 2.752 0 002.013-1.498c2.315 2.197 6.428 2.266 9.318 1.307.146 1.015.464 1.581 1.528 1.995 3.285 1.268 9.453.476 10.53-2.433.318.24.668.431 1.04.57.81.302 3.243.434 3.96.188.205-.07.347 0 .642.024.827.021 1.656-.005 2.48-.08.215-.031.425-.086.628-.163.19.095.39.169.596.219.284.066 4.937.107 5.71.107 1.712 0 2.19-1.167 2.571-1.167.381 0 .693.622 1.126.813.987.41 2.074.51 3.119.288.443-.083.748-.243 1.147-.03.398.211 2.53.42 3.25-.074.565-.39.967-.43 1.414-.122.693.477 3.382.431 4.016.08.53.348 2.987.237 3.655-.024.787.285 2.818.23 3.323 0 .257-.115.23-.038.642.077 4.77 1.306 6.545-2.231 6.853-4.073.23-1.359.347-3.287.042-4.628-.059-.254.513-.101.676-.376.163-.274.693-3.902.73-4.35.195-1.835-1.215-3.128-4.823-4.1 3.722-1.043 5.718-2.137 7.01-4.094a7.314 7.314 0 001.026-5.226c-.378-2.085-1.733-3.683-3.552-4.687z" fill="#222" fill-rule="nonzero"/><path d="M15.198 23.556c-6.016 0-10.714-3.565-10.714-9.122 0-5.556 4.276-9.475 10.714-9.475 6.289 0 10.814 3.916 10.814 9.475 0 5.56-4.529 9.122-10.814 9.122zm0-14.594c-3.632 0-6.414 2.084-6.414 5.486 0 3.402 2.834 5.213 6.414 5.213 3.68 0 6.414-1.797 6.414-5.213 0-3.415-2.686-5.5-6.414-5.5v.014zM42.319 23.132l-4.079-5.984h-5.093v5.984h-4.228V5.257h9.92c5.046 0 6.612 2.617 6.612 5.935 0 2.367-1.22 4.212-3.33 4.935l5.295 7.005h-5.097zm-9.172-14.01v4.517h5.37c1.29 0 2.773-.376 2.773-2.318 0-1.797-1.47-2.196-2.772-2.196l-5.371-.004zM49.34 23.132V5.257h14.94V9.08H53.566v3.165h9.446v3.315h-9.446v3.583h10.988v3.989zM81.575 16.651H76.99v-3.613h8.836v7.154c-1.764 2.592-6.091 3.364-8.527 3.364-5.94 0-10.687-2.891-10.687-9.299 0-5.733 3.701-9.298 10.614-9.298 4.3 0 6.736 1.021 8.5 2.915l-2.71 3.218c-1.067-1.123-2.26-2.169-6.14-2.169-3.704 0-5.967 1.793-5.967 5.286 0 3.565 2.537 5.386 6.584 5.386 2.36 0 3.43-.452 4.099-.973l-.017-1.97zM99.1 23.556c-6.014 0-10.713-3.565-10.713-9.122 0-5.556 4.276-9.475 10.714-9.475 6.289 0 10.814 3.916 10.814 9.475 0 5.56-4.525 9.122-10.814 9.122zm0-14.594c-3.627 0-6.413 2.084-6.413 5.486 0 3.402 2.834 5.213 6.414 5.213 3.68 0 6.414-1.797 6.414-5.213 0-3.415-2.686-5.5-6.414-5.5v.014zM126.596 23.132l-9.619-10.894v10.894h-4.158V5.257h4.252l9.47 11.52V5.256h4.127v17.875zM133.564 9.92c.62-.448 1.04-1.073 1.04-1.646-.995 0-1.49-.522-1.49-1.62 0-1.021.669-1.546 2.013-1.546 1.345 0 2.038.573 2.038 1.845s-.894 2.742-2.46 3.739l-1.14-.771zM151.035 10.47a7.61 7.61 0 00-4.996-1.783c-.919 0-3.119.1-3.119 1.47 0 3.044 11.113 1.042 11.113 7.93 0 4.388-4.325 5.458-7.807 5.458-2.98 0-6.438-.847-8.25-3.415l3.052-2.832c1.157 1.814 3.32 2.508 5.41 2.508 1.267 0 3.405-.072 3.405-1.622 0-2.964-11.213-1.37-11.213-7.645 0-4.211 4.158-5.56 7.457-5.56 2.512 0 5.27.424 7.311 2.044l-2.363 3.447zM16.83 34.918h-2.772v-2.196h5.346v4.347c-1.07 1.571-3.697 2.04-5.176 2.04-3.608 0-6.487-1.737-6.487-5.643 0-3.475 2.249-5.643 6.442-5.643 2.609 0 4.088.618 5.159 1.769l-1.636 1.952c-.65-.695-1.386-1.317-3.728-1.317-2.245 0-3.62 1.092-3.62 3.208s1.538 3.27 3.984 3.27c1.431 0 2.079-.272 2.488-.591v-1.196zM30.742 38.852l-1.223-2.617H24.39l-1.24 2.617h-2.894l5.492-10.848h2.474l5.565 10.848h-3.046zm-3.756-8.065l-1.632 3.42h3.212l-1.58-3.42zM45.739 38.852V32.18l-3.5 6.672h-1.213l-3.548-6.672v6.672h-2.425V28.004h3.004l3.607 7.05 3.62-7.05h2.912v10.848zM50.59 38.852V28.004h9.068v2.331h-6.507v1.922h5.734v2.012h-5.734v2.161h6.67v2.432z" fill="#FFF" fill-rule="nonzero"/><path d="M84.163 28.869a2.36 2.36 0 00-1.535-2.235 5.185 5.185 0 00-1.41-.312 6.913 6.913 0 00-3.022.552c-.315.17-.378.191-.475.184-.097-.007-.131-.038-.27-.218a4.602 4.602 0 00-2.464-1.022 5.079 5.079 0 00-3.118.716.346.346 0 01-.24.066.25.25 0 01-.217-.22c0-.058.048-.371.045-.43-.018-.32-.51-.42-.898-.455-.28-.021-1.518.02-1.767 0-.433-.038-.832-.101-1.265-.14-.62-.051-1.237 0-1.403.866-.056.323-.222 1.737-.277 2.03-.056.291-.375 1.667-.43 1.963-.107.646-.215 1.292-.347 1.935-.12.441-.52 2.293-.61 2.672-.135.737-.668 4.01-.814 4.66a11.66 11.66 0 00-.305 1.091c-.033.126-.05.256-.048.386.041.618.676.618.935.618.347 0 1.913-.055 2.239-.055.218 0 1.23.059 1.41.059.998 0 1.147-1.043 1.272-1.863.028-.146.18-1.178.17-1.32l1.063-5.265c.028-.086.021-.173.056-.257.197-.768.222-1.574.457-2.314.146-.507.496-1.063 1.12-1.042a.628.628 0 01.585.639 4.264 4.264 0 01-.184.99s-.852 3.823-.9 4.17c-.049.348-.312 1.79-.368 2.085-.104.594-.52 2.384-.693 3.127a.892.892 0 00-.045.424c.024.428.208.598.835.601.135 0 .89-.027 1.06-.027.309 0 1.633.055 1.9.055 1.264 0 1.385-.347 1.475-.994.049-.305.274-1.633.326-1.91.178-1.267.43-2.521.756-3.757.02-.195.076-.386.097-.608.11-.414.408-2.234.454-2.624.131-.632.367-1.737 1.24-1.675a.491.491 0 01.506.529c.017.347-.478 2.599-.551 3.064-.125.74-.218 1.453-.405 2.162-.08.386-.16.74-.267 1.094-.049.327-.302 1.738-.347 2.005-.045.348-.45 1.922-.436 2.196.025.3.279.528.578.522l.735-.052c.346 0 .762-.028.89-.028.129 0 .541.028.915.028l.787.055c.202 0 .401-.045.582-.135a.976.976 0 00.433-.588c-.017-.375.385-2.38.606-3.502.184-.664.832-4.518 1.009-5.358.076-.348.457-2.016.51-2.148.053-.327.075-.659.065-.99zm11.168 1.598a4.44 4.44 0 00-1.386-3.127 4.794 4.794 0 00-2.862-.994c-4.896-.368-6.005 3.885-6.279 4.98-.08.25-.547 2.31-.568 2.48-.021.17-.09.643-.132.953-.168.887-.242 1.79-.222 2.693.09 1.567.804 3.377 3.018 4.044a8.926 8.926 0 002.485.271c1.777-.024 3.7-.396 4.03-1.042.08-.132.072-.236.135-.66.083-.608.284-1.588.308-1.668.044-.118.066-.243.066-.369a.693.693 0 00-.717-.566c-.171.006-.34.041-.5.104-1.101.445-1.27.494-2.383.487-.461 0-1.386-.038-1.844-.779a1.361 1.361 0 01-.176-.604c-.052-.99.623-.977.86-.97.346 0 1.85.094 2.134.098.225 0 1.24-.053 1.462-.05.114 0 .644.067.755.07.638 0 1.07-.695 1.123-.771.073-.184.443-2.29.533-2.658.1-.636.153-1.278.16-1.922zm-4.342 2.002c-.163.184-.537.17-.693.163l-.783-.028c-.378 0-.502-.132-.52-.486a4.974 4.974 0 01.406-1.765 1.04 1.04 0 011.04-.633.886.886 0 01.907.949c.014.024-.059 1.46-.357 1.8zm14.848-2.725c.042-.222.25-1.323.243-1.42 0-.178-.042-.501-.617-.543a4.665 4.665 0 00-.555 0h-.533c-.18 0-.693-.073-.797-.08a4.23 4.23 0 00-.544-.09.463.463 0 00-.558.347c-.066.25-.087.376-.218.348-.132-.028-.08-.031-.246-.268a1.78 1.78 0 00-1.386-.736c-.964-.07-2.79.476-3.712 2.634-.244.567-.44 1.154-.585 1.754-.073.257-.37 1.658-.413 1.943-.15 1-.235 2.008-.252 3.02.036.874.372 1.71.949 2.366.516.435 1.165.68 1.84.695a3.264 3.264 0 001.462-.407.623.623 0 00.284-.15c.104-.076.156-.128.232-.128.077 0 .084.028.087.129-.01.294-.07.584-.177.858-.266.528-1.25.74-1.923.744a3.148 3.148 0 01-.987-.146 8.49 8.49 0 00-1.064-.33 1.04 1.04 0 00-.839.549c-.104.236-.16.491-.162.75-.046.209-.063.47-.108.674-.11.626-.132.754-.132.782 0 .257.215.407.503.504.84.124 1.69.182 2.54.174 3.094-.077 4.889-1.182 5.544-2.478.166-.295.308-.566.672-2.936.062-.372.253-1.925.319-2.245.128-.615.256-1.206.385-1.793.166-.935.346-2.015.488-2.978.057-.519.143-1.034.26-1.543zm-4.373 2.78c-.11.553-.218 1.105-.33 1.658a7.248 7.248 0 01-.346 1.484.752.752 0 01-.64.496c-.347 0-.472-.417-.49-.802.057-1.053.2-2.099.427-3.128.184-.695.51-1.198.908-1.181.263 0 .464.347.481.837.011.215.008.43-.01.643v-.007zm13.576-.173c.186-.74.289-1.497.309-2.26-.028-.944-.586-1.441-1.324-1.76a5.663 5.663 0 00-2.08-.512c-.148 0-1.427-.048-1.551-.059-.721 0-1.976.22-2.27.529a1.25 1.25 0 00-.257.667c-.02.15-.273 1.654-.273 1.654a.756.756 0 00.61.563c.152 0 .173 0 .523-.178a3.619 3.619 0 011.732-.26c.572.031 1.286.167 1.307.834.003.243-.056.482-.174.695a.27.27 0 01-.239.087.692.692 0 01-.298-.112 2.12 2.12 0 00-1.126-.371 3.71 3.71 0 00-2.893 1.237c-1.345 1.476-1.698 4.545-1.656 5.611.104 2.655 1.438 3.04 2.837 3.02a2.65 2.65 0 001.754-.695.228.228 0 01.267-.052c0 .024-.06.393-.06.393 0 .246.254.243.347.243.188-.008.376-.028.562-.06a2.93 2.93 0 01.46-.027c.198 0 1.016.035 1.182.031.502 0 .735-.222.81-.754.048-.365.117-.727.205-1.084.104-.455.42-2.502.503-2.912.097-.67.242-1.345.364-2.015.159-.82.252-1.64.43-2.453zm-4.345 4.604c-.125.788-.163 1.042-.426 1.327a.83.83 0 01-.634.316c-.472 0-.586-.375-.6-.747a7.88 7.88 0 01.399-2.206c.129-.37.46-.633.849-.674.352.039.619.339.616.695-.017.208-.197 1.094-.214 1.289h.01zm13.354-5.616c-.027-1.39-.37-2.78-1.964-2.89a2.52 2.52 0 00-1.421.298c-.131.112-.287.19-.454.23-.02 0-.042.02-.066.02a.125.125 0 01-.114-.128l.121-.539c.038-.212.056-.42.094-.636.064-.658.18-1.31.346-1.95 0-.048.06-.305.052-.447a.51.51 0 00-.471-.522h-.62c-.2.014-.4.014-.6 0-.07 0-.29-.052-.516-.097-.225-.045-.433-.09-.523-.097-.617-.056-.652.347-.693.716-.042.368-.194 1.324-.43 2.693-.121.646-.617 3.43-.717 4.006-.1.577-.173 1.206-.274 1.807-.118.674-.26 1.324-.346 1.998-.063.348-.292 2.002-.375 2.339-.083.337-.124.58-.163.893-.038.312-.117.747-.197 1.136a7.825 7.825 0 00-.16.99c.018.508.413.5.67.497.183 0 1.056-.059 1.236-.062.253 0 .527 0 .773.038h.25c.11 0 .27 0 .346-.146.076-.146.083-.24.149-.348a.125.125 0 01.11-.073c.067 0 .389.327.455.376.348.185.739.278 1.133.267 1.563-.024 2.595-1.577 2.956-2.383.2-.498.36-1.012.474-1.536.094-.483.167-.963.284-1.446.039-.23.267-1.21.305-1.39.094-.504.291-2.085.291-2.085.056-.507.075-1.018.06-1.529zm-3.877 4.8c-.24 1.042-.374 1.709-.946 1.702a.499.499 0 01-.43-.264.975.975 0 01-.076-.403c.097-1.153.256-2.299.478-3.433.038-.188.174-.987.236-1.154.16-.584.55-.872.79-.858.44.02.454.632.457.844.038.966-.235 2.272-.51 3.565zm12.63-6.342a.48.48 0 00-.506-.476c-.097 0-.46.034-.537.03-.135.013-.27.013-.405 0-.06 0-.253-.037-.43-.072-.177-.035-.374-.049-.454-.056-.454-.031-.648.205-.72.67-.035.154-.122.866-.143 1.002l-.939 5.803c-.18 1.136-.29 1.737-.935 1.737-.246 0-.513-.139-.517-.386.019-.181.05-.361.094-.538.076-.317.402-2.537.495-3.006.035-.292.316-1.543.347-1.793.055-.348.253-1.814.288-2.106.038-.177.204-.98.204-1.094 0-.431-.312-.452-.392-.456-.08-.003-.304 0-.53 0h-.55c-.084 0-.288-.045-.496-.08a5.062 5.062 0 00-.454-.055c-.565-.038-.717.695-.776.962-.018.136-.038.275-.052.435-.132.89-.347 2.397-.659 3.996-.093.528-.187 1.042-.284 1.58-.055.39-.294 2.04-.346 2.381-.25 1.216-.27 1.352-.264 1.696a1.81 1.81 0 00.583 1.369c.406.312.918.453 1.427.393.963 0 1.227-.129 2.08-.74l.04.065a1.15 1.15 0 00-.034.265c0 .291.305.288.385.288.18 0 .994-.08 1.174-.083.118 0 .693.034.842.034.468 0 .596-.486.631-.73.035-.243.07-.545.104-.809.052-.525.16-1.042.25-1.55 0-.153.12-.855.138-1.007.035-.261.27-1.39.305-1.637l.651-4.01c.039-.219.073-.414.111-.612.138-.455.23-.923.274-1.397v-.013zm5.17 2.067c.017-.174.118-.876.152-1.025.035-.15.136-.744.136-.872 0-.435-.375-.459-.52-.47-1.206-.086-1.386-.1-1.857.042-1.192.348-1.705 1.429-2.031 2.162-.586 1.365-.8 2.307-1.22 5.042a10.259 10.259 0 00-.166 1.855c0 .97 0 1.234.308 1.852a1.878 1.878 0 001.917 1.248H135.533c.852 0 .918-.525 1.018-1.234.049-.44.129-.875.24-1.303.044-.183.072-.37.083-.56 0-.406-.292-.41-.347-.41h-.471c-.565 0-.59-.656-.593-.937.054-.713.15-1.422.288-2.124.052-.347.308-1.897.849-2.307a.519.519 0 01.346-.09l.378.017c.496.045.586-.531.648-.872v-.014zm5.59 7.443c-.036-.452-.14-.91-.205-1.365-.035-.31-.052-.64-.104-.953-.052-.312-.104-.562-.139-.854 0-.042-.104-.772-.104-.793 0-.166.035-.229.347-.695a19.483 19.483 0 001.483-3.127c.134-.355.226-.725.273-1.101 0-.31-.21-.324-.509-.348l-.395-.028c-.128.01-.257.01-.385 0a3.802 3.802 0 01-.672-.11H143a.426.426 0 00-.454.305 2.7 2.7 0 00-.15.747c-.093.471-.24.93-.436 1.37a2.888 2.888 0 01-.648.937l-.017-.02.031-.348.85-4.865c.034-.187.152-.855.152-.983 0-.129-.021-.212-.073-.26a.937.937 0 00-.513-.175h-.974c-.052 0-.086-.027-.138-.03l-.264-.025c-.478-.045-.672.066-.755.643-.035.274-.204 1.49-.236 1.737l-.693 4.17v.066l-.772 4.77c-.052.279-.104.536-.139.814-.066.473-.118.945-.222 1.39-.017.153-.173.73-.19.862a.728.728 0 000 .212c0 .173.02.406.488.403.18 0 .984-.077 1.14-.08.225-.012.45 0 .672.034h.018a.548.548 0 00.364-.32c.076-.244.116-.5.117-.757.028-.454.095-.905.201-1.348.032-.17.066-.347.1-.507 0-.104.198-1.39.198-1.39a.153.153 0 01.07-.084c.091.315.14.642.142.97.02.347.059.653.059.99 0 .337 0 .67.024 1.008 0 .188.02.347.02.542 0 .063-.017.316-.017.379 0 .438.212.517.416.517.205 0 .8-.093.936-.097.135-.003.72.035.838.031.368 0 .548-.274.548-.722 0-.226-.052-.452-.07-.695-.017-.243-.027-.535-.062-.803v-.014zm6.368-9.017a15.174 15.174 0 00-.89-.163h-.098c-2.567-.181-3.295 2.748-3.291 4.034.03.542.12 1.08.27 1.602.133.355.313.692.533 1 .233.244.423.524.562.831.023.1.04.203.048.306a.696.696 0 01-.294.608.788.788 0 01-.596.139 1.32 1.32 0 01-.565-.108 2.015 2.015 0 00-.284-.167.218.218 0 00-.1-.024c-.066 0-.472.08-.555.66-.031.31-.066.619-.114.907-.018.125-.118.601-.136.695-.031.129-.048.26-.048.393a.438.438 0 00.274.472c.39.15.802.227 1.22.23 1.22 0 1.673-.125 2.255-.594a4.145 4.145 0 001.15-1.571 7.033 7.033 0 00.444-2.276 4.215 4.215 0 00-.312-1.574c-.1-.25-.224-.489-.367-.716-.177-.292-.367-.58-.53-.872a1.48 1.48 0 01-.19-.619.557.557 0 01.626-.56.519.519 0 01.253.053c.083.024.368.222.43.226h.066a.62.62 0 00.488-.299.825.825 0 00.097-.215 7.14 7.14 0 00.097-.761c.028-.178.174-.973.174-1.116-.018-.427-.378-.472-.617-.507v-.014z" fill="#FD0"/><path d="M84.163 28.869a2.36 2.36 0 00-1.535-2.235 5.185 5.185 0 00-1.41-.312 6.913 6.913 0 00-3.022.552c-.315.17-.378.191-.475.184-.097-.007-.131-.038-.27-.218a4.602 4.602 0 00-2.464-1.022 5.079 5.079 0 00-3.118.716.346.346 0 01-.24.066.25.25 0 01-.217-.22c0-.058.048-.371.045-.43-.018-.32-.51-.42-.898-.455-.28-.021-1.518.02-1.767 0-.433-.038-.832-.101-1.265-.14-.62-.051-1.237 0-1.403.866-.056.323-.222 1.737-.277 2.03-.056.291-.375 1.667-.43 1.963-.107.646-.215 1.292-.347 1.935-.12.441-.52 2.293-.61 2.672-.135.737-.668 4.01-.814 4.66a11.66 11.66 0 00-.305 1.091c-.033.126-.05.256-.048.386.041.618.676.618.935.618.347 0 1.913-.055 2.239-.055.218 0 1.23.059 1.41.059.998 0 1.147-1.043 1.272-1.863.028-.146.18-1.178.17-1.32l1.063-5.265c.028-.086.021-.173.056-.257.197-.768.222-1.574.457-2.314.146-.507.496-1.063 1.12-1.042a.628.628 0 01.585.639 4.264 4.264 0 01-.184.99s-.852 3.823-.9 4.17c-.049.348-.312 1.79-.368 2.085-.104.594-.52 2.384-.693 3.127a.892.892 0 00-.045.424c.024.428.208.598.835.601.135 0 .89-.027 1.06-.027.309 0 1.633.055 1.9.055 1.264 0 1.385-.347 1.475-.994.049-.305.274-1.633.326-1.91.178-1.267.43-2.521.756-3.757.02-.195.076-.386.097-.608.11-.414.408-2.234.454-2.624.131-.632.367-1.737 1.24-1.675a.491.491 0 01.506.529c.017.347-.478 2.599-.551 3.064-.125.74-.218 1.453-.405 2.162-.08.386-.16.74-.267 1.094-.049.327-.302 1.738-.347 2.005-.045.348-.45 1.922-.436 2.196.025.3.279.528.578.522l.735-.052c.346 0 .762-.028.89-.028.129 0 .541.028.915.028l.787.055c.202 0 .401-.045.582-.135a.976.976 0 00.433-.588c-.017-.375.385-2.38.606-3.502.184-.664.832-4.518 1.009-5.358.076-.348.457-2.016.51-2.148.053-.327.075-.659.065-.99zm11.168 1.598a4.44 4.44 0 00-1.386-3.127 4.794 4.794 0 00-2.862-.994c-4.896-.368-6.005 3.885-6.279 4.98-.08.25-.547 2.31-.568 2.48-.021.17-.09.643-.132.953-.168.887-.242 1.79-.222 2.693.09 1.567.804 3.377 3.018 4.044a8.926 8.926 0 002.485.271c1.777-.024 3.7-.396 4.03-1.042.08-.132.072-.236.135-.66.083-.608.284-1.588.308-1.668.044-.118.066-.243.066-.369a.693.693 0 00-.717-.566c-.171.006-.34.041-.5.104-1.101.445-1.27.494-2.383.487-.461 0-1.386-.038-1.844-.779a1.361 1.361 0 01-.176-.604c-.052-.99.623-.977.86-.97.346 0 1.85.094 2.134.098.225 0 1.24-.053 1.462-.05.114 0 .644.067.755.07.638 0 1.07-.695 1.123-.771.073-.184.443-2.29.533-2.658.1-.636.153-1.278.16-1.922h0zm-4.342 2.002c-.163.184-.537.17-.693.163l-.783-.028c-.378 0-.502-.132-.52-.486a4.974 4.974 0 01.406-1.765 1.04 1.04 0 011.04-.633.886.886 0 01.907.949c.014.024-.059 1.46-.357 1.8h0zm14.848-2.725c.042-.222.25-1.323.243-1.42 0-.178-.042-.501-.617-.543a4.665 4.665 0 00-.555 0h-.533c-.18 0-.693-.073-.797-.08a4.23 4.23 0 00-.544-.09.463.463 0 00-.558.347c-.066.25-.087.376-.218.348-.132-.028-.08-.031-.246-.268a1.78 1.78 0 00-1.386-.736c-.964-.07-2.79.476-3.712 2.634-.244.567-.44 1.154-.585 1.754-.073.257-.37 1.658-.413 1.943-.15 1-.235 2.008-.252 3.02.036.874.372 1.71.949 2.366.516.435 1.165.68 1.84.695a3.264 3.264 0 001.462-.407.623.623 0 00.284-.15c.104-.076.156-.128.232-.128.077 0 .084.028.087.129-.01.294-.07.584-.177.858-.266.528-1.25.74-1.923.744a3.148 3.148 0 01-.987-.146 8.49 8.49 0 00-1.064-.33 1.04 1.04 0 00-.839.549c-.104.236-.16.491-.162.75-.046.209-.063.47-.108.674-.11.626-.132.754-.132.782 0 .257.215.407.503.504.84.124 1.69.182 2.54.174 3.094-.077 4.889-1.182 5.544-2.478.166-.295.308-.566.672-2.936.062-.372.253-1.925.319-2.245.128-.615.256-1.206.385-1.793.166-.935.346-2.015.488-2.978.057-.519.143-1.034.26-1.543h0zm-4.373 2.78c-.11.553-.218 1.105-.33 1.658a7.248 7.248 0 01-.346 1.484.752.752 0 01-.64.496c-.347 0-.472-.417-.49-.802.057-1.053.2-2.099.427-3.128.184-.695.51-1.198.908-1.181.263 0 .464.347.481.837.011.215.008.43-.01.643v-.007zm13.576-.173c.186-.74.289-1.497.309-2.26-.028-.944-.586-1.441-1.324-1.76a5.663 5.663 0 00-2.08-.512c-.148 0-1.427-.048-1.551-.059-.721 0-1.976.22-2.27.529a1.25 1.25 0 00-.257.667c-.02.15-.273 1.654-.273 1.654a.756.756 0 00.61.563c.152 0 .173 0 .523-.178a3.619 3.619 0 011.732-.26c.572.031 1.286.167 1.307.834.003.243-.056.482-.174.695a.27.27 0 01-.239.087.692.692 0 01-.298-.112 2.12 2.12 0 00-1.126-.371 3.71 3.71 0 00-2.893 1.237c-1.345 1.476-1.698 4.545-1.656 5.611.104 2.655 1.438 3.04 2.837 3.02a2.65 2.65 0 001.754-.695.228.228 0 01.267-.052c0 .024-.06.393-.06.393 0 .246.254.243.347.243.188-.008.376-.028.562-.06a2.93 2.93 0 01.46-.027c.198 0 1.016.035 1.182.031.502 0 .735-.222.81-.754.048-.365.117-.727.205-1.084.104-.455.42-2.502.503-2.912.097-.67.242-1.345.364-2.015.159-.82.252-1.64.43-2.453zm-4.345 4.604c-.125.788-.163 1.042-.426 1.327a.83.83 0 01-.634.316c-.472 0-.586-.375-.6-.747a7.88 7.88 0 01.399-2.206c.129-.37.46-.633.849-.674.352.039.619.339.616.695-.017.208-.197 1.094-.214 1.289h.01zm13.354-5.616c-.027-1.39-.37-2.78-1.964-2.89a2.52 2.52 0 00-1.421.298c-.131.112-.287.19-.454.23-.02 0-.042.02-.066.02a.125.125 0 01-.114-.128l.121-.539c.038-.212.056-.42.094-.636.064-.658.18-1.31.346-1.95 0-.048.06-.305.052-.447a.51.51 0 00-.471-.522h-.62c-.2.014-.4.014-.6 0-.07 0-.29-.052-.516-.097-.225-.045-.433-.09-.523-.097-.617-.056-.652.347-.693.716-.042.368-.194 1.324-.43 2.693-.121.646-.617 3.43-.717 4.006-.1.577-.173 1.206-.274 1.807-.118.674-.26 1.324-.346 1.998-.063.348-.292 2.002-.375 2.339-.083.337-.124.58-.163.893-.038.312-.117.747-.197 1.136a7.825 7.825 0 00-.16.99c.018.508.413.5.67.497.183 0 1.056-.059 1.236-.062.253 0 .527 0 .773.038h.25c.11 0 .27 0 .346-.146.076-.146.083-.24.149-.348a.125.125 0 01.11-.073c.067 0 .389.327.455.376.348.185.739.278 1.133.267 1.563-.024 2.595-1.577 2.956-2.383.2-.498.36-1.012.474-1.536.094-.483.167-.963.284-1.446.039-.23.267-1.21.305-1.39.094-.504.291-2.085.291-2.085.056-.507.075-1.018.06-1.529h0zm-3.877 4.8c-.24 1.042-.374 1.709-.946 1.702a.499.499 0 01-.43-.264.975.975 0 01-.076-.403c.097-1.153.256-2.299.478-3.433.038-.188.174-.987.236-1.154.16-.584.55-.872.79-.858.44.02.454.632.457.844.038.966-.235 2.272-.51 3.565zm12.63-6.342a.48.48 0 00-.506-.476c-.097 0-.46.034-.537.03-.135.013-.27.013-.405 0-.06 0-.253-.037-.43-.072-.177-.035-.374-.049-.454-.056-.454-.031-.648.205-.72.67-.035.154-.122.866-.143 1.002l-.939 5.803c-.18 1.136-.29 1.737-.935 1.737-.246 0-.513-.139-.517-.386.019-.181.05-.361.094-.538.076-.317.402-2.537.495-3.006.035-.292.316-1.543.347-1.793.055-.348.253-1.814.288-2.106.038-.177.204-.98.204-1.094 0-.431-.312-.452-.392-.456-.08-.003-.304 0-.53 0h-.55c-.084 0-.288-.045-.496-.08a5.062 5.062 0 00-.454-.055c-.565-.038-.717.695-.776.962-.018.136-.038.275-.052.435-.132.89-.347 2.397-.659 3.996-.093.528-.187 1.042-.284 1.58-.055.39-.294 2.04-.346 2.381-.25 1.216-.27 1.352-.264 1.696a1.81 1.81 0 00.583 1.369c.406.312.918.453 1.427.393.963 0 1.227-.129 2.08-.74l.04.065a1.15 1.15 0 00-.034.265c0 .291.305.288.385.288.18 0 .994-.08 1.174-.083.118 0 .693.034.842.034.468 0 .596-.486.631-.73.035-.243.07-.545.104-.809.052-.525.16-1.042.25-1.55 0-.153.12-.855.138-1.007.035-.261.27-1.39.305-1.637l.651-4.01c.039-.219.073-.414.111-.612.138-.455.23-.923.274-1.397v-.013zm5.17 2.067c.017-.174.118-.876.152-1.025.035-.15.136-.744.136-.872 0-.435-.375-.459-.52-.47-1.206-.086-1.386-.1-1.857.042-1.192.348-1.705 1.429-2.031 2.162-.586 1.365-.8 2.307-1.22 5.042a10.259 10.259 0 00-.166 1.855c0 .97 0 1.234.308 1.852a1.878 1.878 0 001.917 1.248H135.533c.852 0 .918-.525 1.018-1.234.049-.44.129-.875.24-1.303.044-.183.072-.37.083-.56 0-.406-.292-.41-.347-.41h-.471c-.565 0-.59-.656-.593-.937.054-.713.15-1.422.288-2.124.052-.347.308-1.897.849-2.307a.519.519 0 01.346-.09l.378.017c.496.045.586-.531.648-.872v-.014zm5.59 7.443c-.036-.452-.14-.91-.205-1.365-.035-.31-.052-.64-.104-.953-.052-.312-.104-.562-.139-.854 0-.042-.104-.772-.104-.793 0-.166.035-.229.347-.695a19.483 19.483 0 001.483-3.127c.134-.355.226-.725.273-1.101 0-.31-.21-.324-.509-.348l-.395-.028c-.128.01-.257.01-.385 0a3.802 3.802 0 01-.672-.11H143a.426.426 0 00-.454.305 2.7 2.7 0 00-.15.747c-.093.471-.24.93-.436 1.37a2.888 2.888 0 01-.648.937l-.017-.02.031-.348.85-4.865c.034-.187.152-.855.152-.983 0-.129-.021-.212-.073-.26a.937.937 0 00-.513-.175h-.974c-.052 0-.086-.027-.138-.03l-.264-.025c-.478-.045-.672.066-.755.643-.035.274-.204 1.49-.236 1.737l-.693 4.17v.066l-.772 4.77c-.052.279-.104.536-.139.814-.066.473-.118.945-.222 1.39-.017.153-.173.73-.19.862a.728.728 0 000 .212c0 .173.02.406.488.403.18 0 .984-.077 1.14-.08.225-.012.45 0 .672.034h.018a.548.548 0 00.364-.32c.076-.244.116-.5.117-.757.028-.454.095-.905.201-1.348.032-.17.066-.347.1-.507 0-.104.198-1.39.198-1.39a.153.153 0 01.07-.084c.091.315.14.642.142.97.02.347.059.653.059.99 0 .337 0 .67.024 1.008 0 .188.02.347.02.542 0 .063-.017.316-.017.379 0 .438.212.517.416.517.205 0 .8-.093.936-.097.135-.003.72.035.838.031.368 0 .548-.274.548-.722 0-.226-.052-.452-.07-.695-.017-.243-.027-.535-.062-.803v-.014zm6.368-9.017a15.174 15.174 0 00-.89-.163h-.098c-2.567-.181-3.295 2.748-3.291 4.034.03.542.12 1.08.27 1.602.133.355.313.692.533 1 .233.244.423.524.562.831.023.1.04.203.048.306a.696.696 0 01-.294.608.788.788 0 01-.596.139 1.32 1.32 0 01-.565-.108 2.015 2.015 0 00-.284-.167.218.218 0 00-.1-.024c-.066 0-.472.08-.555.66-.031.31-.066.619-.114.907-.018.125-.118.601-.136.695-.031.129-.048.26-.048.393a.438.438 0 00.274.472c.39.15.802.227 1.22.23 1.22 0 1.673-.125 2.255-.594a4.145 4.145 0 001.15-1.571 7.033 7.033 0 00.444-2.276 4.215 4.215 0 00-.312-1.574c-.1-.25-.224-.489-.367-.716-.177-.292-.367-.58-.53-.872a1.48 1.48 0 01-.19-.619.557.557 0 01.626-.56.519.519 0 01.253.053c.083.024.368.222.43.226h.066a.62.62 0 00.488-.299.825.825 0 00.097-.215 7.14 7.14 0 00.097-.761c.028-.178.174-.973.174-1.116-.018-.427-.378-.472-.617-.507v-.014z" stroke="#00C1DE" stroke-width=".863"/></g></svg>