<svg viewBox="3.422 2.622 142.5 47.614" xmlns="http://www.w3.org/2000/svg"><path fill="#00438C" d="M47.274 49.97H41.08l.988-5.852h6.194z"/><path fill="#68477D" d="M76.8 50.046h-6.384l1.026-5.814h6.384z"/><path fill="#B45672" d="M106.364 50.16H99.79l1.026-5.852h6.536z"/><path fill="#F37163" d="M135.89 50.236h-6.726l.988-5.814h6.764z"/><path fill="#00438C" d="M49.516 36.784l-4.028 5.814-2.166-5.852 4.56-26.448h6.232zM54.418 8.436h-6.194l.988-5.814h6.232z"/><path d="M145.922 24.7h-5.7l3.8-22.078h-7.904L115.902 24.7l-1.102 5.7h17.67l-1.748 9.842h6.878l1.672-9.842h5.7l.95-5.7zm-22.192 0l12.236-13.908-2.432 13.908h-9.804z" fill="#F37163"/><path fill="#00438C" d="M112.026 18.164h3.534l1.064-6.118H102.64l-1.064 6.118h2.166l-7.714 6.612 2.774-16.074h.038l1.026-6.08h-9.804l-1.064 6.08h3.686L88.2 34.276h-3.61l-1.026 5.852h12.35l1.026-5.852h-2.546l1.254-7.448 5.928 7.448h-2.774l-1.026 5.852h15.428l1.064-5.852h-4.218l-7.106-8.74zM30.022 11.59a13.908 13.908 0 00-10.982 4.94l.76-4.522h-9.766l-1.102 6.08h3.61L8.02 44.384h-3.8l-.798 5.814h13.452l1.026-5.776h-3.8l1.52-8.664a8.892 8.892 0 008.436 4.902 17.67 17.67 0 0016.948-14.744A11.704 11.704 0 0030.022 11.59zm4.446 14.326a10.792 10.792 0 01-9.956 8.512 6.84 6.84 0 01-6.916-8.398 10.108 10.108 0 019.804-8.398 6.84 6.84 0 017.068 8.284zM84.4 21.47l1.634-9.424h-6.156l-.418 2.47A8.588 8.588 0 0073 11.172 17.708 17.708 0 0055.52 26.03a12.084 12.084 0 0012.008 14.896A18.05 18.05 0 0083.45 30.628h-7.106a9.994 9.994 0 01-7.6 3.8 6.764 6.764 0 01-6.764-8.398 9.956 9.956 0 019.766-8.398 6.384 6.384 0 016.27 3.8H84.4v.038z"/></svg>