<svg viewBox="3.664 3.637 174.042 48.385" xmlns="http://www.w3.org/2000/svg"><path d="M102.69 48.675c-.585 0-.858-.429-.312-.585 29.874-7.488 56.16-5.967 69.654-1.716 6.123 1.911 3.9 6.747-.897 5.421a180.102 180.102 0 00-68.445-3.12zM33.738 14.901L31.554 28.2c-.702 4.29-6.123 4.251-5.421 0L28.2 14.901h-8.229L17.787 28.2c-.663 4.251-6.123 4.29-5.421 0l2.184-13.26H6.204l-2.34 14.235c-.702 4.485 0 10.14 9.477 10.14A9.048 9.048 0 0020.946 36a7.8 7.8 0 006.279 3.471c9.711 0 11.7-5.577 12.519-10.101l2.34-14.313-8.346-.156zM54.876 14.901l-3.9 23.907h-8.58l3.9-23.907h8.58zM52.38 3.669a3.471 3.471 0 013.9 3.666 4.992 4.992 0 01-5.304 5.265 3.549 3.549 0 01-3.9-3.9 4.953 4.953 0 015.304-5.031zM66.966 14.901v2.457a2.808 2.808 0 01-.429 1.521A10.959 10.959 0 0175 14.238c5.109 0 7.8 3.159 6.825 9.672l-2.34 14.898H71.1l2.145-13.611c.273-1.872-.234-3.315-2.067-3.315a5.382 5.382 0 00-5.148 4.914l-1.911 12.012H55.5l3.9-23.907h7.566zM110.919 4.371h8.502l-3.9 25.311c-.351 2.028.624 2.613 1.833 2.613a7.8 7.8 0 002.613-.624l-1.131 7.02a15.6 15.6 0 01-5.343.78 6.084 6.084 0 01-6.786-7.8l4.212-27.3zM134.28 14.901l-3.9 23.907h-8.58l3.9-23.907h8.58zm-2.496-11.232a3.471 3.471 0 013.9 3.666 4.992 4.992 0 01-5.304 5.265 3.549 3.549 0 01-3.9-3.9 4.953 4.953 0 015.304-5.031zM141.027 14.901l.273-1.872c.79-5.847 6.11-9.99 11.973-9.321 1.11-.002 2.22.09 3.315.273l-1.092 7.137a7.41 7.41 0 00-2.496-.351 3.9 3.9 0 00-3.9 3.276v.858h5.226L153 21.492h-4.836l-2.73 17.316h-8.346l2.574-17.316h-2.925l1.053-6.591h3.237zM177.687 23.403a17.199 17.199 0 01-.936 4.797h-14.547c0 2.535 1.833 3.9 5.109 3.9a24.375 24.375 0 008.307-1.521l-1.092 7.137a24.96 24.96 0 01-9.126 1.482c-7.8 0-11.973-4.485-11.973-10.764.043-8.004 6.543-14.47 14.547-14.469a8.892 8.892 0 019.711 9.438zM166.884 20.4a4.29 4.29 0 00-4.134 3.9h6.864c.351-2.067-.429-3.9-2.73-3.9z" fill="#510C76"/><path d="M102.69 48.675c-.585 0-.858-.429-.312-.585 29.874-7.488 56.16-5.967 69.654-1.716 6.123 1.911 3.9 6.747-.897 5.421a180.102 180.102 0 00-68.445-3.12zM33.738 14.901L31.554 28.2c-.702 4.29-6.123 4.251-5.421 0L28.2 14.901h-8.229L17.787 28.2c-.663 4.251-6.123 4.29-5.421 0l2.184-13.26H6.204l-2.34 14.235c-.702 4.485 0 10.14 9.477 10.14A9.048 9.048 0 0020.946 36a7.8 7.8 0 006.279 3.471c9.711 0 11.7-5.577 12.519-10.101l2.34-14.313-8.346-.156zM54.876 14.901l-3.9 23.907h-8.58l3.9-23.907h8.58zM52.38 3.669a3.471 3.471 0 013.9 3.666 4.992 4.992 0 01-5.304 5.265 3.549 3.549 0 01-3.9-3.9 4.953 4.953 0 015.304-5.031zM66.966 14.901v2.457a2.808 2.808 0 01-.429 1.521A10.959 10.959 0 0175 14.238c5.109 0 7.8 3.159 6.825 9.672l-2.34 14.898H71.1l2.145-13.611c.273-1.872-.234-3.315-2.067-3.315a5.382 5.382 0 00-5.148 4.914l-1.911 12.012H55.5l3.9-23.907h7.566zM110.919 4.371h8.502l-3.9 25.311c-.351 2.028.624 2.613 1.833 2.613a7.8 7.8 0 002.613-.624l-1.131 7.02a15.6 15.6 0 01-5.343.78 6.084 6.084 0 01-6.786-7.8l4.212-27.3zM134.28 14.901l-3.9 23.907h-8.58l3.9-23.907h8.58zm-2.496-11.232a3.471 3.471 0 013.9 3.666 4.992 4.992 0 01-5.304 5.265 3.549 3.549 0 01-3.9-3.9 4.953 4.953 0 015.304-5.031zM141.027 14.901l.273-1.872c.79-5.847 6.11-9.99 11.973-9.321 1.11-.002 2.22.09 3.315.273l-1.092 7.137a7.41 7.41 0 00-2.496-.351 3.9 3.9 0 00-3.9 3.276v.858h5.226L153 21.492h-4.836l-2.73 17.316h-8.346l2.574-17.316h-2.925l1.053-6.591h3.237zM177.687 23.403a17.199 17.199 0 01-.936 4.797h-14.547c0 2.535 1.833 3.9 5.109 3.9a24.375 24.375 0 008.307-1.521l-1.092 7.137a24.96 24.96 0 01-9.126 1.482c-7.8 0-11.973-4.485-11.973-10.764.043-8.004 6.543-14.47 14.547-14.469a8.892 8.892 0 019.711 9.438zM166.884 20.4a4.29 4.29 0 00-4.134 3.9h6.864c.351-2.067-.429-3.9-2.73-3.9zM94.5 17.007a9.79 9.79 0 10-.078 19.578 9.79 9.79 0 00.078-19.578zm-3.588 8.19h-2.028l-.195 1.092h1.716l-.195 1.17h-1.716l-.39 2.184H86.7l.936-5.538h3.471l-.195 1.092zm6.201 1.755a3.549 3.549 0 01-3.549 2.73 2.496 2.496 0 01-2.379-3.042 3.51 3.51 0 013.51-2.73 2.496 2.496 0 012.379 3.042h.039zm4.797 2.613h-1.443l-.702-1.794h-.624l-.273 1.794h-1.443l.975-5.538h2.223s1.677.273 1.677 1.911a1.911 1.911 0 01-1.248 1.521l.858 2.106zm-1.014-3.471a.702.702 0 01-.624.546h-.936l.234-1.404h.897s.585.117.39.858h.039zm-5.187.741a1.833 1.833 0 01-1.872 1.443 1.287 1.287 0 01-1.287-1.599 1.872 1.872 0 011.95-1.482 1.365 1.365 0 011.17 1.638h.039z" fill="#510C76"/></svg>