<svg xmlns="http://www.w3.org/2000/svg" id="b" viewBox="0 0 282.3 196"><defs><style>.d{fill:#fff}.e{fill:#00b3ef}.f{fill:#fff100}</style></defs><g id="c"><path d="M223.6 20.5c3.6 0 5.9-2.3 5.9-5.9s-2.3-5.9-6-5.9-5.8 2.4-5.8 6 2.2 5.8 5.9 5.8M18 114.3c-3.5 0-5.8 2.4-5.8 6 0 3.5 2.3 5.8 5.9 5.8s5.9-2.3 5.9-5.9c0-3.5-2.3-5.9-6-5.9" class="e"/><path d="M261.9 60.4za48 48 0 0 0-16.8-5q.3-1.8.4-4c0-8.7-5.6-14.5-14.6-14.5s-14.6 5.8-14.6 14.6q0 3 1 5.7a47 47 0 0 0-13 5V31.7c0-3.5 0-10-5-15.9-3.3-3.9-9.4-8.3-20-7.3a26 26 0 0 0-11.8 3.8C166.4 4.8 161 0 152.9 0c-8.9 0-14.5 5.7-14.5 14.5l-.8.5a39 39 0 0 0-38.8 9c-6.2-6.2-14-6.8-19-6.3Q69.4 18.7 63 26l-2.8-1.6a43.6 43.6 0 0 0-48 9.2C4.3 41.6 0 52.4 0 64.2s4.3 22.3 12 29.4a38 38 0 0 0 29.9 9.3q2.4-.3 6.7-1.1v5.8c-9.2.1-15 6-15 15.2s5.8 15 15 15.2v13.3c0 5 0 12.6 5.8 19.7 3.6 4.5 10 9.4 21.1 9.4l3.8-.1a30 30 0 0 0 19.4-8.5 18 18 0 0 0 8.6.2v1.2c0 13.8 8.8 22.8 22.8 22.8s22.8-9 22.8-22.8v-.1a63 63 0 0 0 12.4 0c12.4-1.2 23.9-5.7 33.1-12.9 3.9 3.7 9.8 7 18.8 7l3.8-.3q15-1.4 22.1-11.8c4-5.6 4.8-11.4 5-15.9 21-6.5 34.2-23 34.2-43.9 0-15.6-7.2-28-20.4-35z" class="e"/><path d="M258 67.7c-9.8-5.1-20.9-4.8-28.4-4q-11.8 1-18.5 4.2a20 20 0 0 0-11.6 12.7l-.6-.6q-2.7-2.5-5.7-4.4l.3-.3c2.7-3.7 2.7-7.5 2.7-10.5V31.6c0-3 0-7-3.1-10.8q-4.5-5.2-13.2-4.5c-2 .2-8 .8-11.8 6q-2 3-2.4 5.9-.6-2.3-2.5-4.5-4.5-5.4-13.1-4.6c-1.9.2-7.3.7-11.2 5.2-6-3.6-13.7-3.3-16.2-3-12 1-21.2 8.4-24 18.2L97.2 36c-1.1-2.9-4.7-11.5-16.6-10.4-9.8 1-13.4 7.3-15.2 11.9l-1 2.5a15 15 0 0 0-7.7-8.5c-4.4-2.1-10.6-3-16.8-2.5A34.3 34.3 0 0 0 8 64.2C8 74 11.3 82 17.5 87.7a30 30 0 0 0 23.7 7.2c2-.2 8.6-1 14.2-4l3.1 1.1C57 96 57 99.9 57 102.2v49c0 4.4 0 9.8 4 14.6q5 6.3 14.6 6.4 1.5 0 3-.2 11.2-1 16.2-8.3c3.5-5 3.5-10.1 3.5-14.3v-3.3a48 48 0 0 0 19.6-8.3q3.5 9.7 10.8 16.3c7.9 7.3 18.3 11 30.2 11q2.9 0 5.7-.3a54 54 0 0 0 35.3-17q.9 2.4 2.7 4.7 5.1 6.4 14.7 6.4 1.5 0 3-.2 11.2-1 16.2-8.3c3.5-5 3.5-10.1 3.5-14.3v-3.3c21-4 34.2-18.3 34.2-37.5 0-12.3-5.7-22.2-16.1-27.6" style="fill:#64499d"/><path d="M41 74.1q2.3-.1 5-1.4c1.8-1 3.4-2 5-2 3.4-.4 5.2 3.4 5.2 6q.1 3-3.4 5.4a28 28 0 0 1-12.5 4c-13.4 1.3-23.5-7-23.5-21.9 0-16 11.5-25.2 23.9-26.4 4.5-.4 9.2.2 12 1.6q3.6 2 3.5 4.9c0 2.5-1.7 6.8-5.3 7.1-1.6.2-3.3-.5-5.3-1.1q-2.5-.7-5-.6c-5.7.6-10.5 5-10.5 13.1 0 8.6 5.3 11.9 10.9 11.3M89 71.5 72.7 73l-1.3 3.8C70 81 68.2 83 63.7 83.5c-4.1.4-5.6-1-5.6-3.2q0-1.4.8-3.2l14.7-36.3c1.5-3.8 3.2-6 7.8-6.4 4.7-.4 6.2 1.5 7.7 5L103.3 73q.6 1.7.6 2.8 0 4-6.1 4.5c-4.3.5-5.8-1-7.5-5.2zm-12.6-8.8 9-.8-4.5-11.7zM131.1 51c3.7 2.1 7 5.5 7 11.4 0 9.2-8 15.3-17.5 16.2q-5 .5-9.8-1.2c-2.5-1-4.6-2.2-4.6-5.1s2-6.6 5.2-6.9c3-.3 5.4 2.6 9.3 2.2 2.5-.2 4.2-1.7 4.2-3.5 0-2.2-2.5-3.4-5.6-4.7-5.3-2.3-12.6-5-12.6-13.5s7.5-15 16.8-15.8c6.5-.7 13.7 1.4 13.7 6.2 0 2.7-2.3 6.3-5.4 6.5-2.7.3-5.3-2-8.5-1.7-2.2.2-3.5 1.5-3.5 2.9 0 3 6.1 4 11.3 7M187.3 64.8c0 2.3 0 3.9-1 5.3q-1.3 2-5.5 2.5c-3 .2-4.6-.3-5.6-1.5s-1-2.8-1-5V54.1l-16.7 1.6v11.8c0 2.3 0 4-1 5.3q-1.4 2-5.6 2.5-4.2.3-5.5-1.5c-1-1.2-1-2.7-1-5V35.7c0-2.3 0-4 1-5.3q1.3-2 5.5-2.5 4.2-.3 5.6 1.5c1 1.2 1 2.7 1 5v9.8l16.7-1.6V33c0-2.3 0-4 1-5.3q1.4-2 5.6-2.5c4.2-.5 4.5.2 5.5 1.4s1 2.8 1 5.1z" class="d"/><path d="m90.9 136.1-3.6.3v13c0 3.5 0 6-1.5 8q-2 3.2-8.3 3.8-6.1.6-8.2-2.2c-1.5-1.8-1.5-4.3-1.5-7.8v-49c0-4 0-8.2 6.2-11.1q5-2.3 15-3.3a41 41 0 0 1 22.3 2.9c6.3 3.3 10.2 9 10.2 18 0 16.4-13.2 25.8-30.6 27.5m-3.6-14.8s1.3 0 3 0c6-.7 11.2-3.5 11.2-9.8 0-5.7-4.4-8-10.7-7.3l-3.5.5zM164 80.1c23.2-2.2 37.7 12.1 37.7 33.4s-15 38.3-38.2 40.5-37.8-12.1-37.8-33.4 15-38.3 38.2-40.5m-.3 56.7c10.9-1 17.9-9 17.9-21.4 0-12.5-7-19-17.9-18s-17.8 8.8-17.8 21.3 7 19 17.8 18M232.6 122.9l-3.6.2v13c0 3.5 0 6-1.5 8-1.5 2.1-4 3.4-8.3 3.8q-6.1.6-8.2-2.2c-1.5-1.8-1.5-4.3-1.5-7.8V89c0-4 0-8.2 6.2-11.1q5-2.3 15-3.3a41 41 0 0 1 22.3 2.9c6.3 3.3 10.2 9 10.2 18 0 16.4-13.2 25.8-30.6 27.5m-3.6-15s1.3.2 3 0c6-.6 11.2-3.5 11.2-9.7 0-5.7-4.4-8-10.7-7.3l-3.5.5z" class="f"/></g></svg>