<svg viewBox="46.971 5.971 123.159 125.058" xmlns="http://www.w3.org/2000/svg"><defs><radialGradient id="a" cx="0" cy="0" r="1" gradientUnits="userSpaceOnUse" gradientTransform="translate(155.292 81.333) scale(13.2169)"><stop offset=".006" stop-color="#DFEDC9"/><stop offset=".05" stop-color="#DBEAB6"/><stop offset=".226" stop-color="#CCE06E"/><stop offset=".352" stop-color="#C3D941"/><stop offset=".416" stop-color="#BFD730"/><stop offset=".949" stop-color="#50B848"/></radialGradient><radialGradient id="b" cx="0" cy="0" r="1" gradientUnits="userSpaceOnUse" gradientTransform="translate(148.893 100.272) scale(10.8598)"><stop offset=".006" stop-color="#FFF8A3"/><stop offset=".141" stop-color="#FFF794"/><stop offset=".371" stop-color="#FFF572"/><stop offset=".629" stop-color="#FFE75E"/><stop offset="1" stop-color="#F1CB00"/></radialGradient><radialGradient id="c" cx="0" cy="0" r="1" gradientUnits="userSpaceOnUse" gradientTransform="translate(121.14 104.737) scale(31.7369)"><stop offset=".022" stop-color="#FFF689"/><stop offset=".122" stop-color="#FFED73"/><stop offset=".33" stop-color="#FFD839"/><stop offset=".483" stop-color="#FFC60B"/><stop offset="1" stop-color="#DA974B"/></radialGradient><radialGradient id="d" cx="0" cy="0" r="1" gradientUnits="userSpaceOnUse" gradientTransform="translate(85.97 91.4) scale(27.3434)"><stop stop-color="#F69EAC"/><stop offset=".153" stop-color="#F48EA2"/><stop offset=".281" stop-color="#F3869D"/><stop offset=".361" stop-color="#F27697"/><stop offset=".491" stop-color="#F1618F"/><stop offset=".579" stop-color="#F05A8C"/><stop offset=".769" stop-color="#DA3476"/><stop offset="1" stop-color="#BC0058"/></radialGradient><radialGradient id="e" cx="0" cy="0" r="1" gradientUnits="userSpaceOnUse" gradientTransform="translate(78.93 46.823) scale(47.5997)"><stop offset=".006" stop-color="#D9C5E0"/><stop offset=".108" stop-color="#D5BFDD"/><stop offset=".245" stop-color="#CBAED3"/><stop offset=".388" stop-color="#BC95C4"/><stop offset=".685" stop-color="#A46BAD"/><stop offset=".989" stop-color="#903F98"/></radialGradient><radialGradient id="f" cx="0" cy="0" r="1" gradientUnits="userSpaceOnUse" gradientTransform="translate(110.462 56.393) scale(40.2692)"><stop offset=".022" stop-color="#94D9F8"/><stop offset=".326" stop-color="#8ED8F8"/><stop offset=".38" stop-color="#8AD7F8"/><stop offset=".435" stop-color="#7ED4F7"/><stop offset=".49" stop-color="#6AD0F6"/><stop offset=".545" stop-color="#4DCAF5"/><stop offset=".6" stop-color="#2AC2F4"/><stop offset=".652" stop-color="#00B9F2"/><stop offset="1" stop-color="#009FDA"/></radialGradient></defs><path fill-rule="evenodd" clip-rule="evenodd" d="M96.528 28.635c.412.222.818.454 1.218.694l.249-.103a36.677 36.677 0 014.575-1.521l.194-.05a36.781 36.781 0 019.884-1.132 37.131 37.131 0 017.228.86 36.607 36.607 0 0110.378 4.027 36.87 36.87 0 016.784 5.02 37.222 37.222 0 012.523 2.599 36.94 36.94 0 016.313 10.064 36.477 36.477 0 012.188 7.205 37.062 37.062 0 01.67 7.758 37.162 37.162 0 01-.58 5.89 36.82 36.82 0 01-10.987 20.228 36.887 36.887 0 01-3.175 2.674 18.722 18.722 0 013.116 2.688c.487.523.945 1.076 1.371 1.653a10.874 10.874 0 017.132-7.271 10.852 10.852 0 014.371-.452 8.784 8.784 0 01-1.553-5 8.824 8.824 0 118.824 8.824h-.041l.041.048a10.837 10.837 0 012.502 6.934c0 5.998-4.862 10.86-10.86 10.86a10.82 10.82 0 01-6.78-2.376 18.714 18.714 0 01-.642 4.426c-2.153 7.961-9.427 13.818-18.069 13.818-7.207 0-13.462-4.074-16.59-10.044a18.621 18.621 0 01-1.576-4.152 24.768 24.768 0 01-3.296 3.029 24.524 24.524 0 01-14.95 5.053c-13.605 0-24.634-11.03-24.634-24.635a24.547 24.547 0 014.114-13.636 30.934 30.934 0 01-3.35-2.237C55.75 74.732 51 65.842 51 55.843c0-17.06 13.83-30.89 30.89-30.89 1.524 0 3.022.11 4.487.324a30.69 30.69 0 015.344 1.274l-5.29-9.38c.728-1.064 9.084-4.983 10.846-4.68.049.099.117.22.2.359.954 1.583 3.931 5.535 3.931 5.535l.122-6.836c1.673-.758 4.443-1.146 6.757-1.344a58.331 58.331 0 014.028-.205l.031 15.343-5.044.334-1.458-9.722-.79 9.965-3.889.82-5.62-8.172 3.19 9.023-2.207 1.044zm22.411-2.928l.79-2.521 2.248.577-.091 2.43 5.712 2.188v-.005c.011-.082.148-1.12.33-2.623l.073-.604.104-.887c.168-1.45.35-3.118.5-4.724a86.22 86.22 0 00.283-3.823c.045-1.004.046-1.822-.019-2.32-.027-.208-.065-.36-.117-.448-.445-.317-1.395-.672-2.576-1.014-1.47-.425-3.299-.83-4.957-1.111-1.735-.295-3.284-.455-4.042-.366l-4.436 14.796 6.198.456zm4.074-11.278l-2.829 5.87 2.504.634.325-6.504zm29.072 8.551a4.036 4.036 0 00-.242-.71c-.437-.979-1.153-1.763-1.626-2.242a21.63 21.63 0 00-1.895-1.679c-1.374-1.097-3.075-2.275-4.806-3.361-1.733-1.088-3.575-2.132-5.246-2.943-1.504-.73-3.377-1.53-4.98-1.705a4.022 4.022 0 00-1.392.09 4.036 4.036 0 00-.81-.766c-.996-.707-2.386-1.175-3.342-1.467a44.797 44.797 0 00-3.77-.95 49.496 49.496 0 00-3.834-.659c-1.057-.134-2.38-.257-3.436-.133a4.029 4.029 0 00-1.661.582 4.027 4.027 0 00-2.762-1.065l.032 4.028-.033-4.028h-.033a20.947 20.947 0 00-.349.006 64.459 64.459 0 00-4.1.226c-2.249.197-5.591.614-7.934 1.677-.454.206-.857.49-1.195.83a4.026 4.026 0 00-.71-.19c-.994-.171-1.933-.007-2.421.091a16.6 16.6 0 00-1.853.504c-1.218.4-2.587.952-3.867 1.525a46.472 46.472 0 00-3.606 1.793c-.515.29-1.027.596-1.47.902l-.01.008c-.284.196-1.072.74-1.626 1.548a4.029 4.029 0 00-.187 4.257l1.036 1.836c-.684-.04-1.373-.06-2.067-.06-19.285 0-34.919 15.633-34.919 34.918 0 11.502 5.561 21.705 14.141 28.067a28.551 28.551 0 00-2.785 12.34c0 15.831 12.833 28.664 28.664 28.664a28.536 28.536 0 0016.663-5.338c3.921 6.843 11.297 11.453 19.748 11.453 10.332 0 19.054-6.888 21.826-16.323 1.172.297 2.4.455 3.665.455 8.223 0 14.888-6.666 14.888-14.889 0-1.522-.228-2.99-.653-4.374a12.852 12.852 0 006.975-11.432c0-4.283-2.096-8.078-5.318-10.413a5.835 5.835 0 002.027-.494 5.177 5.177 0 002.232-1.948l.029-.046c.404-.66.678-1.39.808-2.152a9.478 9.478 0 00.141-1.69c.004-.55-.037-1.1-.123-1.643a6.118 6.118 0 00-.551-1.758c.141-.218.234-.407.292-.532a4.64 4.64 0 00.279-.79 6.36 6.36 0 00.159-.932c.046-.473.056-.993.052-1.466a44.522 44.522 0 00-.173-3.31 44.638 44.638 0 00-.399-3.308 14.575 14.575 0 00-.306-1.45 6.482 6.482 0 00-.305-.876l-.007-.016c-.053-.122-.237-.545-.614-1.015.025-.33.016-.633.003-.848-.025-.45-.09-.938-.165-1.397a30.182 30.182 0 00-.726-3.207c-.313-1.106-.731-2.35-1.253-3.426a9.412 9.412 0 00-1.054-1.725c-.36-.455-1.072-1.247-2.196-1.709a16.906 16.906 0 00-.383-2.564c-1.107-5.043-4.938-9.764-9.897-12.482a9.655 9.655 0 00-.57-.289zm-1.184 3.923a20.894 20.894 0 00-.183-.102c-1.659-.909-2.963-.572-3.763-.133-.572.314-.885.68-.885.68s-.899.939-1.972 2.068c-.805.848-1.709 1.804-2.403 2.55-.726.672-1.172 1.34-1.427 1.975-.861 2.14.456 3.888.568 4.031l.008.01c.658 1.159 1.628 2.385 2.644 3.558h.001a98.958 98.958 0 001.819 2.026l.242.265a106.664 106.664 0 01.702.774c.716.8 1.698.96 2.438.942l.035-.002c.592-.019 1.021-.15 1.021-.15l2.734-1.428-3.524-5.803-1.793 1.124a5.798 5.798 0 01-.57.342 2.821 2.821 0 01-.197.089 1.653 1.653 0 01-.182.062c-.43.119-.621-.056-.829-.246a4.268 4.268 0 00-.105-.095c-1.033-.881-.031-1.428-.031-1.428l.318-.264.358-.296.057-.048.742-.613.766-.632.137-.114c.45-.37.922-.759 1.38-1.134l.83-.678.104-.084c.738-.6 1.342-1.084 1.597-1.271.118-.087.225-.158.324-.216.044-.025.086-.048.127-.068.282-.136.5-.143.728-.032h.001c.243.119.499.371.856.741.85.881.061 1.246.061 1.246l-2.887 2.43 4.163 6.168s.639-.254 1.338-.603c.509-.255 1.05-.56 1.396-.856l.098-.082c.611-.515 1.262-1.065 1.178-2.911-.026-.562-.12-1.243-.304-2.08a11.625 11.625 0 00-.652-2.031 14.782 14.782 0 00-2.108-3.486 17.342 17.342 0 00-4.956-4.196zm13.522 38.48l-.03.002h-.037a1.635 1.635 0 00-.422.048 1.66 1.66 0 00-.216.07l-.017.006-.067.03a1.186 1.186 0 00-.212.132 1.25 1.25 0 00-.285.313 2.037 2.037 0 00-.178.37l-.006.017c-.013.035-.024.07-.034.105l-.015.053-.013.05a6.42 6.42 0 00-.058.33l-.003.02-.003.028a2.27 2.27 0 00-.01.082l-.002.016-.011.11-.003.032a4.118 4.118 0 00-.02.435v.125c-.001.05 0 .098.001.148l.001.045.003.1.005.093.002.032a55.474 55.474 0 00.018.213l.001.016.01.086.002.021a4422120020.979 4422120020.979 0 00.019.138l.004.033.01.06a1 1 0 00.013.079l.007.037a1.726 1.726 0 00.045.177l.012.04.006.018.021.06c.042.112.093.22.153.324a1.078 1.078 0 00.564.456l.04.013a1.817 1.817 0 00.669.088H164.422a1.816 1.816 0 00.719-.14 1.149 1.149 0 00.497-.433c.06-.099.111-.202.154-.308l.013-.035a4.823 4.823 0 00.146-.656c.016.093.029.187.039.28l.031.006c.091-.08.177-.167.258-.258l-.3-.303c.004-.058.008-.116.01-.175l.39.356c.03-.038.059-.077.087-.117l.005-.006.024-.036.001-.002.017-.025a.36.36 0 00.022-.034l-.541-.345v-.006-.043-.02-.01l.002-.002.559-.34-.008-.013-.029-.046a2.22 2.22 0 00-.049-.074l-.01-.015a1.36 1.36 0 01-.031-.044h-.001a2.056 2.056 0 00-.071-.095l-.366.335a8.716 8.716 0 00-.01-.188l.27-.275a2.935 2.935 0 00-.262-.262c-.009.085-.02.168-.035.251a5.617 5.617 0 00-.035-.258l-.01-.062a2.03 2.03 0 00-.081-.307l-.003-.009-.01-.03-.005-.013a2.054 2.054 0 00-.149-.313 1.12 1.12 0 00-.492-.442 1.776 1.776 0 00-.745-.138zm-.46 3.599l.005.01a.71.71 0 00.105.16l.013.014a.403.403 0 00.159.097l.023.007c.027.006.053.01.08.012h.017a.507.507 0 00.306-.103.444.444 0 00.095-.109l.017-.03a.483.483 0 00.033-.083l.001-.005a6.365 6.365 0 00.061-.333l.003-.021.006-.039.001-.011.014-.106.001-.008.002-.015v-.004l.004-.03.006-.062.002-.014.001-.017.011-.13.008-.124c.005-.098.008-.196.008-.294l.001-.01v-.013-.01-.012a7.783 7.783 0 00-.009-.305l-.003-.048a4.235 4.235 0 00-.016-.195l-.001-.017-.002-.018v-.003l-.004-.035-.001-.007a.088.088 0 00-.002-.016l-.003-.032-.011-.087-.01-.072-.001-.01-.002-.01-.003-.019-.015-.099a6.958 6.958 0 00-.038-.202.428.428 0 00-.013-.05l-.005-.016a.548.548 0 00-.036-.076l-.001-.002a.432.432 0 00-.083-.103l-.016-.013a.45.45 0 00-.303-.104h-.004a1.106 1.106 0 00-.063.005.423.423 0 00-.042.01l-.017.005a.433.433 0 00-.052.022.382.382 0 00-.104.074l-.001.001a.885.885 0 00-.054.067l-.016.023a.705.705 0 00-.062.117l-.006.016a.673.673 0 00-.031.098l-.025.107-.002.01a3.313 3.313 0 00-.024.14l-.003.026-.001.01-.01.09-.002.027v.006l-.001.016-.002.022v.001l-.002.04a9.113 9.113 0 00-.013.376v.023l-.002.207v.047l.001.142c.001.098.003.193.007.285.001.053.004.104.006.154a.155.155 0 01.001.022l.001.013.001.025c.004.065.01.13.018.194l.002.013.003.017a1.7 1.7 0 00.02.117l.002.01a2.376 2.376 0 00.025.106l.001.005.006.025.003.008.005.016a.552.552 0 00.025.067l.007.017zm2.761-1.267l-.014-.035a1.886 1.886 0 00-.116-.233l-.467.273-.002.001h.001l.598-.006zm-.604.009l-.074.043.526.322c.064-.104.118-.214.161-.328l.005-.011-.008-.02-.61-.006zm-.128 1.048a5.57 5.57 0 00.027-.023l-.029-.006.002.029zm-4.01.566v-.185a1.27 1.27 0 01-.197.016h-.038a.334.334 0 01-.158-.015h-.001l-.003-.001-.002-.001a.341.341 0 01-.122-.079l-.014-.015a.65.65 0 01-.035-.085l-.006-.018a.897.897 0 01-.023-.094l-.003-.025a.081.081 0 01-.002-.015l-.002-.016-.001-.01a.716.716 0 010-.113v-2.405h.607v-.775h-.607v-1.264h-1.048v1.264h-.531v.775h.045m-.673-.202v-.573h-.607v-1.264h-1.048v1.264h-.531v.775h.531v2.544a1.598 1.598 0 000 .098l.001.05.001.016a3.118 3.118 0 00.036.397l.003.022a10.555 10.555 0 00.031.126l.013.036a.781.781 0 00.094.176l.002.003.03.034a.502.502 0 00.264.145c.043.008.086.016.129.022l.017.002c.109.015.22.022.33.021m.021 0h.076zm-2.415-3.332a2.154 2.154 0 00-.08-.308l-.003-.009-.016-.043a2.054 2.054 0 00-.17-.347.993.993 0 00-.095-.127 1.126 1.126 0 00-.424-.3 1.772 1.772 0 00-.727-.118H154.525a1.68 1.68 0 00-.729.153 1.198 1.198 0 00-.212.133 1.24 1.24 0 00-.285.313 2.032 2.032 0 00-.178.37l-.006.017a2.122 2.122 0 00-.084.317l-.005.027c-.01.056-.019.113-.027.17l-.003.025-.003.02-.004.026a2.38 2.38 0 00-.01.085l-.002.014-.011.11-.003.032a5.358 5.358 0 00-.02.44V67.756c-.001.14.003.28.012.418l.003.036c.004.06.009.118.015.177l.001.014.01.088.002.021.003.02c.009.07.018.141.03.211l.008.054c.017.095.04.188.069.279l.006.018c.045.133.103.262.174.384a1.076 1.076 0 00.289.313l.042.029c.046.03.095.057.145.08l.017.007c.03.012.06.023.091.033l.02.007a1.885 1.885 0 00.705.088 1.813 1.813 0 00.718-.14 1.14 1.14 0 00.497-.433l.001-.004c.06-.097.111-.199.153-.304l.014-.035.003-.008a1.982 1.982 0 00.084-.29l.005-.02.013-.07.008-.048.001-.004c.01-.063.02-.126.028-.19l.015-.124.004-.043a.438.438 0 00.004-.036l.001-.015.002-.024.001-.007.004-.048c.004-.06.008-.119.01-.178l.001-.015c.003-.066.004-.131.004-.197v-.008-.038-.02-.007-.006-.034a5.589 5.589 0 00-.012-.42l-.002-.03v-.005l-.003-.03-.002-.03-.004-.051-.004-.04a5.496 5.496 0 00-.049-.383l-.008-.051-.002-.011zm-2.043.22l-.003.024-.001.01a2.271 2.271 0 00-.012.117l-.001.008v.014l-.002.02v.001l-.002.043a14.457 14.457 0 00-.015.605v.047a14.248 14.248 0 00.014.583l.001.02.001.011v.002l.001.024v.004c.004.064.01.128.019.192l.001.012.003.018a4.457 4.457 0 00.022.126l.008.034a.85.85 0 00.017.072.73.73 0 00.047.137l.005.01a.686.686 0 00.118.175.397.397 0 00.16.097l.023.007c.026.007.053.01.08.012h.061a.452.452 0 00.178-.048l.003-.002a.427.427 0 00.175-.162.419.419 0 00.05-.113l.003-.013a3.313 3.313 0 00.025-.123l.007-.036.018-.103.009-.064.003-.02.006-.039.002-.011.013-.106.002-.011.001-.012.001-.003.001-.009.002-.02.006-.062.001-.004.001-.012.002-.015a5.935 5.935 0 00.027-.55v-.01-.013-.01-.012a5.103 5.103 0 00-.009-.308 9.794 9.794 0 00-.018-.242l-.002-.015-.002-.019-.004-.037v-.007a.088.088 0 01-.002-.016l-.004-.031-.011-.091-.01-.07-.001-.01-.002-.009-.002-.019-.016-.1-.011-.061a3.386 3.386 0 00-.04-.192l-.004-.013a.553.553 0 00-.036-.077.47.47 0 00-.181-.171.447.447 0 00-.163-.049h-.004a.434.434 0 00-.036-.002h-.024a.405.405 0 00-.121.02l-.019.007a.399.399 0 00-.138.09h-.001a.862.862 0 00-.054.066l-.016.025a.731.731 0 00-.099.23 2.07 2.07 0 00-.019.078l-.006.029-.002.01a3.369 3.369 0 00-.024.141zm-2.254 3.089h-1.048v-5.89h1.048v5.89zm10.087.001h.064l.051-.001h.007v-.608m-1.583.193a.899.899 0 01-.031-.127l-.003-.022a2.968 2.968 0 01-.027-.23l-.001-.008-.002-.031-.006-.108-.001-.042-.001-.04v-.062-2.584h-.449m-1.024 0h.314v-.202m-.604 2.746l-.003-.026zm.05.195a.754.754 0 01-.049-.18l-.001-.015m.21.333h.001a.336.336 0 00.158.015 1.602 1.602 0 00.235-.016v.793a5.802 5.802 0 00-.338.011c-.085.006-.175.01-.269.011m2.814 0a4.912 4.912 0 00.372-.017l.113-.004m-1-.013a1.714 1.714 0 01-.058-.01.503.503 0 01-.297-.182l-.015-.024a.983.983 0 01-.091-.188m-1.766-.472l.015.015a.33.33 0 00.121.079h.002l.003.002m2.601.814h-.076zm-.444-.022a1.817 1.817 0 01-.071-.011zm0 0c.115.017.231.024.347.023h.021m-2.666-.911a.672.672 0 01-.019-.042zm-.072-.263a.713.713 0 010-.113zm.149-2.518h.003zm.142 0h.002z" fill="#fff"/><path d="M157.251 93.29a8.823 8.823 0 008.823-8.824 8.823 8.823 0 00-8.823-8.823 8.823 8.823 0 100 17.647z" fill="url(#a)"/><path d="M148.893 111.132c5.998 0 10.86-4.862 10.86-10.86 0-5.997-4.862-10.86-10.86-10.86-5.998 0-10.86 4.863-10.86 10.86 0 5.998 4.862 10.86 10.86 10.86z" fill="url(#b)"/><path d="M123.402 127c10.337 0 18.717-8.38 18.717-18.716 0-10.337-8.38-18.716-18.717-18.716-10.336 0-18.716 8.38-18.716 18.716S113.066 127 123.402 127z" fill="url(#c)"/><path d="M86.99 120.886c13.606 0 24.636-11.03 24.636-24.636 0-13.605-11.03-24.635-24.635-24.635-13.606 0-24.636 11.03-24.636 24.635 0 13.606 11.03 24.636 24.636 24.636z" fill="url(#d)"/><path d="M81.89 86.733c17.06 0 30.889-13.83 30.889-30.89 0-17.06-13.83-30.89-30.89-30.89C64.83 24.953 51 38.783 51 55.843c0 17.06 13.83 30.89 30.89 30.89z" fill="url(#e)"/><path d="M111.892 100.208c20.35 0 36.846-16.497 36.846-36.846 0-20.35-16.496-36.846-36.846-36.846-20.35 0-36.846 16.496-36.846 36.846 0 20.35 16.497 36.846 36.846 36.846z" fill="url(#f)"/><path d="M93.661 29.991l5.074-2.4-3.19-9.023 5.62 8.172 3.889-.82.79-9.965 1.458 9.722 5.044-.334L112.315 10s-7.504.06-10.785 1.55l-.122 6.835s-3.524-4.678-4.132-5.894c-1.761-.303-10.117 3.616-10.846 4.68l7.231 12.82zM132.853 14.345l-1.154 2.612 3.98 2.249-5.53 10.512 5.044 3.13 7.352-9.693 3.707 2.856s1.276-1.367 1.914-2.096c-1.033-2.31-11.971-9.206-15.313-9.57zM148.956 38.164l3.524 5.803-2.734 1.428s-2.188.668-3.494-.79c-1.68-1.876-4.132-4.375-5.408-6.623 0 0-2.431-2.978.851-6.016 1.618-1.74 4.375-4.618 4.375-4.618s1.803-2.106 4.648-.547c4.102 2.249 7.079 6.077 7.899 9.814.821 3.737-.152 4.374-.972 5.073-.82.7-2.734 1.459-2.734 1.459l-4.163-6.168 2.887-2.43s.789-.365-.061-1.246c-.851-.881-1.124-1.094-2.036-.425-.911.668-6.289 5.134-6.289 5.134s-1.002.547.031 1.428c.376.321.577.73 1.883-.152l1.793-1.124zM161.352 42.023l-13.946 6.197 2.188 5.894 6.137-1.61.425 2.279-6.106 1.367.486 6.532s14.917-.09 15.403-.516c.486-.426-.213-8.63-.79-9.054-.577-.425-5.681.972-5.681.972l-.456-2.4s4.922-.668 5.256-1.185c.334-.517-1.245-7.93-2.916-8.476zM128.752 12.947c-1.58-1.124-9.509-2.734-11.575-2.491l-4.436 14.796 6.198.455.79-2.521 2.248.577-.091 2.43 5.712 2.188s1.883-14.188 1.154-15.434zm-6.064 7.986l-2.504-.633 2.829-5.871-.325 6.504zM151.773 64.056v5.89h-1.048v-5.89h1.048zM153.026 66.715a2.04 2.04 0 01.273-.73c.122-.192.293-.346.496-.447.237-.108.495-.16.755-.153.267-.014.533.033.78.137.205.094.376.248.492.442.132.226.219.475.258.734.054.339.08.682.076 1.024.004.338-.024.675-.083 1.007a2.04 2.04 0 01-.273.731c-.12.19-.293.34-.497.434-.238.1-.495.147-.753.14a1.862 1.862 0 01-.781-.128 1.077 1.077 0 01-.493-.429 2.047 2.047 0 01-.257-.735 6.109 6.109 0 01-.076-1.02 5.489 5.489 0 01.083-1.007zm.98 1.634c.006.167.03.333.072.495.028.12.086.231.17.323a.398.398 0 00.302.115.449.449 0 00.437-.363 5.999 5.999 0 000-2.395.45.45 0 00-.437-.364.407.407 0 00-.302.116.723.723 0 00-.17.322 2.306 2.306 0 00-.072.496 12.151 12.151 0 000 1.255zM158.561 64.238v1.264h.607v.775h-.607v2.405c-.01.13.015.259.072.376a.335.335 0 00.3.111 1.747 1.747 0 00.235-.016v.793c-.116 0-.229.004-.338.011a5.119 5.119 0 01-.345.012 2.25 2.25 0 01-.497-.046.498.498 0 01-.296-.181.824.824 0 01-.141-.36 3.404 3.404 0 01-.038-.561v-2.544h-.531v-.775h.531v-1.264h1.048zM161.375 64.238v1.264h.607v.775h-.607v2.405c-.01.13.015.259.072.376a.333.333 0 00.3.111 1.747 1.747 0 00.235-.016v.793c-.117 0-.229.004-.338.011a5.161 5.161 0 01-.345.012 2.256 2.256 0 01-.497-.046.5.5 0 01-.297-.181.822.822 0 01-.14-.36 3.404 3.404 0 01-.038-.561v-2.544h-.531v-.775h.531v-1.264h1.048zM162.864 66.715a2.04 2.04 0 01.273-.73c.122-.192.293-.346.497-.447.236-.108.494-.16.753-.153.267-.014.534.033.781.137.205.094.376.248.492.442.132.226.219.475.258.734.054.339.079.682.076 1.024.003.338-.025.675-.084 1.007a2.04 2.04 0 01-.272.731c-.12.19-.293.34-.497.434-.238.1-.495.147-.754.14a1.86 1.86 0 01-.78-.128 1.078 1.078 0 01-.493-.429 2.047 2.047 0 01-.257-.735 6.003 6.003 0 01-.076-1.02 5.402 5.402 0 01.083-1.007zm.98 1.634c.007.167.031.333.072.495.028.12.087.231.17.323a.402.402 0 00.301.115.45.45 0 00.438-.363 5.998 5.998 0 000-2.395.45.45 0 00-.438-.364.405.405 0 00-.301.116.723.723 0 00-.17.322 2.306 2.306 0 00-.072.496 12.151 12.151 0 000 1.255z" fill="#020202"/><path d="M128.843 69.226a16.124 16.124 0 01-1.269 6.283 16.855 16.855 0 01-3.671 5.437 17.05 17.05 0 01-5.751 3.76 19.628 19.628 0 01-7.41 1.354c-3.902 0-7.263-.862-10.081-2.587a16.565 16.565 0 01-6.344-6.835 20.177 20.177 0 01-2.114-9.12 25.357 25.357 0 011.318-7.967 34.568 34.568 0 013.84-7.918 45.7 45.7 0 015.869-7.309 57.537 57.537 0 017.68-6.48l11.554 3.823a111.897 111.897 0 00-4.796 4.312 61.416 61.416 0 00-3.851 4.042 40.98 40.98 0 00-3.277 4.295 12.403 12.403 0 013.113-.339 15.596 15.596 0 017.595 1.894 14.31 14.31 0 015.531 5.377 15.345 15.345 0 012.064 7.978zm-12.213-.203c0-2.154-.6-3.742-1.801-4.763a6.312 6.312 0 00-4.222-1.533c-2.131 0-3.695.68-4.694 2.038a7.088 7.088 0 00-1.497 4.258 6.522 6.522 0 001.732 4.579 5.555 5.555 0 004.257 1.886 5.693 5.693 0 003.533-1.044 6.335 6.335 0 002.035-2.542c.416-.904.64-1.884.657-2.879z" fill="#fff"/></svg>