<svg viewBox="10 20 197 96.3" xmlns="http://www.w3.org/2000/svg"><path d="M156.991 21.523l.672 13.221-15.445-5.792-2.415 76.292 38.208 9.763 27.483-67.43-19.051-3.84 5.734-10.862-35.186-11.352z" fill="#00995B"/><path d="M140.919 104.403l36.442 9.312 26.626-65.33-19.19-3.866 5.809-11.004-32.447-10.468.675 13.302-15.576-5.842-2.339 73.896zm37.742 11.897l-39.975-10.216 2.49-78.688 15.314 5.743L155.823 20l37.923 12.235-5.659 10.721L207 46.766 178.661 116.3z" fill="#393B94"/><path d="M153.872 73.504V41.412h28.365v11.516h-18.016v9.598c3.067.153 8.663-.385 15.409 5.297a22.977 22.977 0 017.973 15.662c.231 7.524-2.836 12.976-8.816 17.813a19.644 19.644 0 01-13.723 4.222 29.36 29.36 0 01-10.962-3.301v-11.67s5.826 4.837 10.886 4.606c6.363-.306 11.499-5.988 10.732-12.284-.613-4.914-4.446-8.675-10.502-9.597-3.833-.614-11.346.23-11.346.23z" fill="#293577"/><path d="M150.729 70.817V38.725h28.364V50.24h-18.015v9.597c3.066.154 8.663-.384 15.409 5.298a22.96 22.96 0 015.542 7.037 22.997 22.997 0 012.431 8.625c.23 7.524-2.837 12.976-8.816 17.813a19.645 19.645 0 01-13.723 4.222 29.362 29.362 0 01-10.963-3.301v-11.67s5.827 4.837 10.886 4.606c6.363-.306 11.5-5.988 10.733-12.284-.613-4.914-4.446-8.676-10.502-9.597-3.834-.614-11.346.23-11.346.23zM146.071 98.817l-12.557-31.899 14.71-28.153-17.072-1.046L120.7 62.7l-.238-.015-.01.16.169-.15-.08-.005.08.005 1.558-25.526-16.199-.993-3.662 59.96 16.199.992 1.681-27.514.159.01-.079-.006 8.404 28.133 17.389 1.065z" fill="#fff"/><path d="M129.785 96.359l14.094.863-11.964-30.39 13.978-26.75-13.798-.845-10.05 24.022-.06.975-.34-.02-.003.007-.509-.032-2.349 2.082.314-5.13.159.01 1.38-22.615-13.293-.815-3.484 57.05 13.293.814 1.589-26.02-.454-1.521 2.153.125-.082 1.427 1.313-.394 8.113 27.157zm18.479 4.054l-20.686-1.268-6.414-21.472-1.283 21-19.104-1.17 3.839-62.87 19.105 1.17-1.137 18.622 7.625-18.225 20.347 1.247-15.444 29.556 13.152 33.41z" fill="#fff"/><path d="M129.88 96.359l14.094.863-11.964-30.39 13.978-26.75-13.798-.845-10.05 24.022-.06.975-.34-.02-.003.007-.508-.032-2.336 2.078.459-5.116 1.38-22.615-13.293-.815-3.483 57.05 13.293.814 1.588-26.02-.454-1.521 2.153.125-.083 1.427 1.314-.394 8.113 27.157zm18.479 4.054l-20.686-1.268-6.414-21.472-1.282 21-19.105-1.17 3.839-62.87 19.105 1.17-1.137 18.622 7.624-18.225 20.348 1.247-15.443 29.556 13.151 33.41z" fill="#393B94"/><path d="M146.373 40.134l-14.384-.846-10.348 22.97-2.232.511 1.708-24.182-13.878-.815-3.484 57.05 13.878.814 1.528-25.016 2.431-1.284 8.087 27.074 14.68.863-11.964-30.39 13.978-26.75z" fill="#F18121"/><path d="M97.125 41.356a22.343 22.343 0 00-8.39.32C81.03 43.316 63.92 51.6 69.51 77.94c4.267 20.107 17.416 27.652 30.413 24.885a23.074 23.074 0 009.125-4.141l-2.557-16.642c-2.072 2.884-4.031 4.767-7.61 5.53-7.937 1.688-11.812-6.61-13.269-13.467-1.372-6.468-1.284-16.017 6.964-17.773 3.268-.695 5.4.154 8.12 1.856l-3.572-16.833z" fill="#F18121"/><path d="M93.917 42.552a23.28 23.28 0 00-4.88.55 25.23 25.23 0 00-13.773 8.366c-5.204 6.381-6.66 15.186-4.33 26.17 3.227 15.204 12.142 24.281 23.846 24.281a23.24 23.24 0 004.841-.52 21.177 21.177 0 007.851-3.39l-1.923-12.514a11.781 11.781 0 01-6.365 3.503c-.765.165-1.545.25-2.328.254h-.001c-2.862 0-9.821-1.447-12.666-14.843-1.745-8.224-.538-17.666 8.085-19.502a10.286 10.286 0 016.35.526l-2.71-12.773a18.379 18.379 0 00-1.997-.108zm.863 62.283c-13.18 0-23.16-9.94-26.693-26.591-2.524-11.891-.868-21.52 4.922-28.62 5.578-6.84 13.215-8.905 15.422-9.374a26.14 26.14 0 015.486-.613 20.893 20.893 0 013.448.28l.977.165 4.492 21.163-2.908-1.82c-2.445-1.53-4.285-2.252-7.047-1.666-8.21 1.748-6.547 12.722-5.842 16.044.8 3.768 3.359 12.533 9.817 12.533h.002a8.315 8.315 0 001.724-.19c3.131-.667 4.839-2.322 6.73-4.955l2.079-2.895 3.234 21.05-.725.522a24.37 24.37 0 01-9.672 4.384c-1.79.384-3.615.579-5.446.583z" fill="#393B94"/><path d="M70.703 101.223l-3.662-59.96-16.199.992 3.662 59.96 16.199-.992z" fill="#F18121"/><path d="M52.384 43.621l3.484 57.05 13.293-.814-3.484-57.05-13.293.814zm.756 60.139L49.3 40.889l19.105-1.17 3.84 62.87-19.105 1.171z" fill="#393B94"/><path d="M44.406 104.303l-5.58-18.869C52.44 81.81 60.236 74.512 55.808 59.54 51.335 44.414 39.575 43.083 25.997 47.11L11.81 51.32l17.037 57.599 15.56-4.616zm-4.378-40.332c1.265 4.278-.705 7.439-5.044 8.477l-3.931-13.292 1.122-.416c3.814-1.132 6.768 1.565 7.853 5.231" fill="#fff"/><path d="M32.841 60.07l3.117 10.537a4.91 4.91 0 002.44-1.999c.651-1.127.73-2.547.234-4.222-.636-2.151-2.212-4.45-4.729-4.45a4.49 4.49 0 00-1.062.133zm1.14 14.116l-4.71-15.924 2.49-.92a7.538 7.538 0 012.142-.321c3.394 0 6.346 2.566 7.52 6.536.722 2.438.547 4.69-.504 6.51-1.077 1.867-3.013 3.18-5.597 3.799l-1.342.32zM13.617 52.304l16.21 54.803 12.77-3.788-5.594-18.908 1.447-.386c7.929-2.11 12.968-5.251 15.408-9.603 2.13-3.798 2.31-8.53.554-14.468C51.76 50.98 46.292 46.618 37.7 46.618a40.49 40.49 0 00-11.29 1.891l-12.792 3.795zm14.245 58.426L10 50.336l15.584-4.623a42.75 42.75 0 0112.116-2.01c9.915 0 16.478 5.188 19.505 15.423 1.963 6.639 1.692 12.265-.807 16.723-2.685 4.79-7.847 8.262-15.757 10.59l5.575 18.847-18.353 5.444z" fill="#fff"/><path d="M44.112 103.087L39.255 86.67a1.266 1.266 0 01.851-1.574C52.965 81.363 60.168 74.06 55.873 59.54 51.4 44.414 39.64 43.083 26.062 47.11L13.087 50.96a1.264 1.264 0 00-.899 1.083c-.017.165-.002.333.045.492l16.318 55.168a1.263 1.263 0 001.08.901c.166.017.333.002.492-.045l13.135-3.897a1.256 1.256 0 00.752-.61 1.27 1.27 0 00.102-.965zm-4.02-39.116c1.13 3.823-.32 6.753-3.738 8.074a1.268 1.268 0 01-1.668-.827l-3.232-10.926a1.269 1.269 0 01.774-1.548l.012-.004c3.813-1.132 6.768 1.565 7.853 5.231" fill="#F18121"/><path d="M32.906 60.07l3.117 10.537a4.91 4.91 0 002.44-1.998c.65-1.127.73-2.548.234-4.224-.636-2.15-2.213-4.448-4.729-4.448a4.495 4.495 0 00-1.062.132zm1.14 14.116l-4.71-15.924 2.49-.92a7.535 7.535 0 012.142-.321c3.394 0 6.345 2.566 7.52 6.536.722 2.44.547 4.69-.505 6.511-1.077 1.867-3.012 3.18-5.596 3.798l-1.342.32zM13.682 52.304l16.21 54.803 12.769-3.788-5.593-18.908 1.447-.386c7.929-2.11 12.968-5.251 15.408-9.603 2.129-3.798 2.31-8.53.553-14.468-2.653-8.974-8.12-13.336-16.712-13.336-3.834.093-7.635.73-11.29 1.891l-12.792 3.795zm14.245 58.426L10.065 50.336l15.583-4.623a42.751 42.751 0 0112.117-2.01c9.915 0 16.477 5.188 19.504 15.423 1.964 6.639 1.692 12.265-.806 16.724-2.685 4.789-7.847 8.261-15.758 10.59l5.575 18.846-18.352 5.444z" fill="#393B94"/></svg>