<svg viewBox="10 20 197 96.3" xmlns="http://www.w3.org/2000/svg"><path d="M156.991 21.523l.671 13.221-15.443-5.792-2.416 76.292 38.208 9.764 27.483-67.432-19.051-3.838 5.734-10.863-35.186-11.352z" fill="#008F68"/><path d="M140.919 104.403l36.442 9.312 26.626-65.33-19.189-3.866 5.809-11.004-32.448-10.468.676 13.302-15.576-5.842-2.34 73.896zm37.742 11.897l-39.975-10.216 2.492-78.687 15.312 5.743-.667-13.14 37.925 12.236-5.66 10.72L207 46.766 178.661 116.3z" fill="#FBDA00"/><path d="M153.851 41.796h30.665l-10.732 20.346 4.369 4.376c8.51 8.522 6.9 21.19 1.61 29.636-5.443 8.829-23.919 11.132-23.996 8.752-.076-2.687 0-11.9 0-11.9s9.046 1.996 13.417-2.84c3.603-3.994 4.523-9.137 1.916-13.82-2.99-5.298-11.423-6.68-15.103-4.377-3.142 2.073 12.266-19.808 9.353-19.808h-11.499V41.796z" fill="#273676"/><path d="M150.709 39.109h30.664L170.64 59.455l4.371 4.376c8.509 8.522 6.899 21.19 1.609 29.636-5.443 8.829-23.919 11.132-23.995 8.752-.077-2.687 0-11.9 0-11.9s9.046 1.996 13.416-2.84c3.603-3.994 4.523-9.137 1.916-13.82-2.99-5.298-11.422-6.68-15.102-4.377-3.143 2.073 12.266-19.808 9.353-19.808h-11.499V39.109z" fill="#fff"/><path d="M129.88 96.36l14.094.863-11.964-30.39 13.979-26.75-13.799-.845-10.05 24.021-.912.93-2.335 2.07.459-5.108 1.381-22.615-13.293-.815-3.485 57.05 13.294.814 1.589-26.017-.456-1.524 2.154.125-.083 1.427 1.314-.394 8.113 27.157zm18.478 4.052l-20.685-1.266-6.414-21.471-1.282 20.999-19.105-1.17 3.84-62.871 19.105 1.17-1.138 18.621 7.626-18.223 20.346 1.246-15.444 29.557 13.151 33.408z" fill="#FBDA00"/><path d="M146.328 40.134l-14.384-.846-10.349 22.97-2.231.511 1.708-24.183-13.878-.814-3.484 57.05 13.878.814 1.527-25.016 2.431-1.284 8.088 27.073 14.679.864-11.963-30.39 13.978-26.75z" fill="#3A3C95"/><path d="M44.519 104.517l-5.581-18.868c13.614-3.624 21.412-10.922 16.984-25.895-4.474-15.125-16.235-16.456-29.812-12.428l-14.188 4.209 17.036 57.598 15.561-4.616zm-4.379-40.33c1.266 4.277-.704 7.437-5.044 8.475l-3.93-13.292 1.121-.415c3.814-1.132 6.769 1.565 7.853 5.231" fill="#fff"/><path d="M32.954 60.284l3.116 10.537a4.904 4.904 0 002.441-1.999c.65-1.126.73-2.547.233-4.222-.636-2.15-2.212-4.449-4.728-4.449a4.509 4.509 0 00-1.062.133zm1.139 14.117l-4.71-15.924 2.49-.92a7.534 7.534 0 012.143-.321c3.394 0 6.346 2.566 7.52 6.536.721 2.438.547 4.689-.504 6.51-1.077 1.867-3.013 3.18-5.597 3.798l-1.342.321zM13.73 52.519l16.21 54.803 12.769-3.789-5.593-18.908 1.447-.386c7.928-2.11 12.968-5.25 15.408-9.603 2.129-3.797 2.31-8.53.554-14.468-2.654-8.973-8.121-13.335-16.713-13.335-3.834.093-7.635.73-11.29 1.89L13.731 52.52zm14.245 58.426L10.113 50.551l15.584-4.623a42.76 42.76 0 0112.116-2.01c9.915 0 16.477 5.188 19.505 15.422 1.963 6.639 1.692 12.266-.808 16.724-2.685 4.79-7.846 8.262-15.756 10.59l5.574 18.847-18.352 5.444zM97.238 41.652a22.343 22.343 0 00-8.39.32c-7.705 1.64-24.816 9.925-19.224 36.265 4.267 20.107 17.417 27.652 30.413 24.885a23.049 23.049 0 009.124-4.141l-2.556-16.642c-2.072 2.884-4.031 4.767-7.61 5.53-7.938 1.69-11.813-6.609-13.269-13.467-1.373-6.468-1.285-16.016 6.963-17.772 3.269-.696 5.402.154 8.121 1.856l-3.572-16.834z" fill="#fff"/><path d="M94.03 42.849c-1.641.01-3.278.195-4.88.55a25.234 25.234 0 00-13.773 8.365c-5.205 6.382-6.661 15.187-4.33 26.17 3.228 15.205 12.142 24.282 23.847 24.282a23.297 23.297 0 004.84-.52 21.19 21.19 0 007.851-3.391l-1.923-12.514a11.782 11.782 0 01-6.364 3.504c-.766.165-1.547.25-2.33.253-2.86 0-9.822-1.445-12.666-14.842-1.745-8.224-.538-17.666 8.085-19.502a10.274 10.274 0 016.35.526l-2.711-12.774a18.393 18.393 0 00-1.995-.107zm.864 62.283c-13.181 0-23.16-9.941-26.694-26.592-2.524-11.89-.868-21.52 4.922-28.62 5.578-6.839 13.215-8.904 15.422-9.374a26.132 26.132 0 015.487-.613 20.897 20.897 0 013.447.282l.977.163 4.492 21.164-2.909-1.82c-2.444-1.53-4.284-2.255-7.046-1.666-8.209 1.748-6.547 12.721-5.842 16.043.8 3.768 3.359 12.534 9.818 12.533a8.28 8.28 0 001.724-.19c3.133-.666 4.84-2.322 6.731-4.955l2.079-2.895 3.233 21.05-.724.523a24.399 24.399 0 01-9.672 4.384c-1.79.383-3.614.579-5.445.583z" fill="#fff"/><path d="M70.703 101.223l-3.662-59.96-16.199.992 3.662 59.96 16.199-.992z" fill="#3A3C95"/><path d="M52.384 43.622l3.484 57.049 13.293-.814-3.484-57.05-13.293.815zm.756 60.138L49.3 40.89l19.105-1.171 3.84 62.87-19.105 1.171z" fill="#FBDA00"/><path d="M44.406 104.303l-5.58-18.869C52.44 81.812 60.236 74.512 55.808 59.54 51.335 44.415 39.575 43.084 25.997 47.11l-14.188 4.21 17.036 57.598 15.561-4.616zm-4.378-40.331c1.265 4.278-.704 7.438-5.044 8.476l-3.93-13.292 1.121-.416c3.813-1.131 6.768 1.565 7.853 5.232" fill="#fff"/><path d="M32.842 60.07l3.116 10.537a4.907 4.907 0 002.44-1.998c.651-1.126.73-2.548.234-4.224-.636-2.15-2.212-4.448-4.728-4.448a4.5 4.5 0 00-1.062.133zm1.139 14.116l-4.71-15.924 2.49-.92a7.546 7.546 0 012.143-.32c3.393 0 6.345 2.565 7.52 6.535.721 2.44.546 4.691-.505 6.512-1.078 1.866-3.013 3.179-5.597 3.797l-1.341.32zM13.618 52.304l16.21 54.803 12.77-3.788-5.594-18.908 1.447-.386c7.929-2.11 12.968-5.25 15.408-9.602 2.129-3.799 2.31-8.531.554-14.47C51.759 50.982 46.292 46.62 37.7 46.62c-3.834.092-7.635.729-11.29 1.89l-12.792 3.795zm14.245 58.426L10 50.337l15.584-4.624a42.754 42.754 0 0112.116-2.01c9.915 0 16.478 5.189 19.505 15.423 1.963 6.639 1.692 12.266-.807 16.724-2.685 4.79-7.847 8.262-15.757 10.59l5.575 18.846-18.353 5.444z" fill="#fff"/><path d="M44.471 104.303L38.89 85.434c13.614-3.622 21.412-10.922 16.984-25.894C51.4 44.415 39.639 43.084 26.062 47.11l-14.188 4.21 17.036 57.598 15.56-4.616h.001zm-4.379-40.331c1.266 4.278-.704 7.438-5.043 8.476l-3.932-13.292 1.122-.416c3.814-1.131 6.769 1.565 7.853 5.232" fill="#3A3C95"/><path d="M32.906 60.07l3.222 10.892c1.144-.092 2.38-.419 2.981-1.323.702-1.056.574-2.869-.36-5.105l-.053-.149c-.636-2.15-2.212-4.448-4.728-4.448a4.498 4.498 0 00-1.062.133zm2.431 13.839c-.105 0-.211-.002-.32-.004l-1.062-.023-4.62-15.62 2.49-.92a7.54 7.54 0 012.143-.32c3.372 0 6.308 2.532 7.497 6.46 1.312 3.179 1.335 5.866.068 7.773-.805 1.21-2.533 2.654-6.196 2.654zM13.683 52.304l16.21 54.803 12.769-3.788-5.593-18.908 1.447-.386c7.928-2.11 12.968-5.25 15.407-9.603 2.13-3.798 2.31-8.53.555-14.468-2.654-8.973-8.121-13.335-16.713-13.335a40.5 40.5 0 00-11.29 1.89l-12.792 3.795zm14.245 58.426L10.065 50.337l15.584-4.624a42.749 42.749 0 0112.116-2.01c9.915 0 16.477 5.189 19.505 15.423 1.963 6.639 1.691 12.266-.808 16.724-2.685 4.79-7.847 8.262-15.757 10.59l5.575 18.846-18.352 5.444z" fill="#FBDA00"/><path d="M97.125 41.438a22.33 22.33 0 00-8.39.32c-7.705 1.64-24.815 9.925-19.224 36.265 4.266 20.107 17.417 27.652 30.413 24.885a23.048 23.048 0 009.124-4.141l-2.556-16.642c-2.072 2.884-4.031 4.767-7.61 5.53-7.937 1.688-11.813-6.609-13.269-13.467-1.373-6.468-1.284-16.017 6.964-17.773 3.269-.695 5.4.154 8.121 1.856l-3.573-16.833z" fill="#fff"/><path d="M93.917 42.635c-1.642.01-3.277.194-4.88.55a25.232 25.232 0 00-13.773 8.365c-5.204 6.382-6.66 15.186-4.33 26.17 3.227 15.204 12.142 24.282 23.847 24.282a23.293 23.293 0 004.84-.52 21.195 21.195 0 007.851-3.391l-1.922-12.514a11.786 11.786 0 01-6.365 3.504c-.766.165-1.546.25-2.33.252-2.86 0-9.823-1.445-12.666-14.842-.51-2.408-1.206-7.082-.111-11.321 1.15-4.455 3.984-7.284 8.196-8.18a10.282 10.282 0 016.35.526l-2.71-12.774a18.413 18.413 0 00-1.997-.107zm.864 62.282c-13.182 0-23.161-9.94-26.694-26.591-2.524-11.891-.868-21.52 4.923-28.62 5.577-6.839 13.214-8.904 15.421-9.374a26.134 26.134 0 015.486-.613 20.91 20.91 0 013.448.281l.977.164 4.492 21.163-2.908-1.82c-2.445-1.53-4.286-2.253-7.047-1.666-3.146.67-5.103 2.652-5.983 6.059-.945 3.66-.317 7.827.14 9.985 2.402 11.312 7.668 12.533 9.82 12.533a8.324 8.324 0 001.724-.19c3.131-.666 4.839-2.322 6.731-4.955l2.079-2.895 3.232 21.05-.724.523a24.378 24.378 0 01-9.672 4.383c-1.79.384-3.615.58-5.445.583z" fill="#fff"/><path d="M97.125 41.356a22.335 22.335 0 00-8.39.32c-7.705 1.64-24.815 9.925-19.224 36.266 4.266 20.106 17.417 27.651 30.413 24.885a23.064 23.064 0 009.124-4.142l-2.556-16.642c-2.072 2.884-4.031 4.767-7.61 5.53-7.937 1.689-11.813-6.609-13.269-13.467-1.373-6.468-1.284-16.016 6.964-17.772 3.269-.696 5.4.154 8.121 1.856l-3.573-16.834z" fill="#3A3C95"/><path d="M93.916 42.553c-1.64.01-3.277.195-4.88.55a25.231 25.231 0 00-13.772 8.366c-5.204 6.38-6.66 15.185-4.33 26.17 3.227 15.204 12.142 24.281 23.847 24.281a23.293 23.293 0 004.84-.52 21.192 21.192 0 007.851-3.391l-1.922-12.514a11.788 11.788 0 01-6.365 3.503c-.766.166-1.546.25-2.33.254-2.86 0-9.823-1.446-12.666-14.843-.51-2.408-1.206-7.082-.111-11.32 1.15-4.456 3.984-7.284 8.196-8.18a10.276 10.276 0 016.35.525l-2.71-12.774a18.425 18.425 0 00-1.998-.107zm.865 62.283c-13.182 0-23.161-9.941-26.694-26.592-2.524-11.89-.868-21.52 4.923-28.62 5.577-6.839 13.214-8.904 15.421-9.374a26.115 26.115 0 015.485-.613 20.907 20.907 0 013.45.282l.976.163 4.492 21.164-2.908-1.82c-2.445-1.53-4.284-2.254-7.046-1.666-3.147.67-5.104 2.651-5.984 6.058-.945 3.66-.317 7.827.14 9.985 2.402 11.312 7.668 12.533 9.82 12.533a8.275 8.275 0 001.724-.19c3.131-.666 4.839-2.322 6.731-4.955l2.079-2.895 3.232 21.05-.724.522a24.393 24.393 0 01-9.672 4.385c-1.79.383-3.615.579-5.445.583z" fill="#FBDA00"/></svg>