<svg viewBox="10 20 197 96.3" xmlns="http://www.w3.org/2000/svg"><path d="M156.991 21.523l.671 13.221-15.444-5.793-2.415 76.292 38.208 9.765 27.483-67.432-19.052-3.838 5.735-10.863-35.186-11.352z" fill="#00995B"/><path d="M178.661 116.3l-39.975-10.217 2.491-78.687 15.312 5.743L155.823 20l37.924 12.235-5.66 10.721L207 46.766 178.661 116.3zm-37.742-11.898l36.442 9.313 26.626-65.33-19.19-3.866 5.81-11.004-32.448-10.468.675 13.302-15.576-5.842-2.339 73.895z" fill="#393A96"/><path d="M169.28 89.323h14.647v10.825h-33.622l23.968-37.672c2.663-4.186-1.664-11.62-5.991-12.486-3.995-.865-7.857.722-9.654 4.691a12.419 12.419 0 00-1.037 6.639 12.42 12.42 0 002.568 6.208l-5.859 6.278s-3.129-3.03-4.328-5.412c-3.195-6.28-3.129-12.486.333-18.548 2.597-4.474 4.395-7.072 8.656-8.877 3.062-1.299 5.259-1.37 8.521-1.082 6.459.65 10.919 3.175 14.448 9.021 2.397 3.897 3.395 7 3.129 11.691-.266 3.825-1.997 6.929-3.262 9.238-5.127 9.96-7.99 12.485-12.517 19.486z" fill="#283576"/><path d="M166.55 86.797h14.647v10.825h-33.622l23.968-37.671c2.663-4.186-1.664-11.62-5.991-12.486-3.995-.866-7.857.722-9.654 4.69a12.428 12.428 0 001.531 12.847l-5.859 6.279s-3.129-3.031-4.328-5.413c-3.195-6.279-3.129-12.485.333-18.547 2.597-4.475 4.395-7.073 8.656-8.877 3.062-1.3 5.259-1.371 8.522-1.083 6.458.65 10.918 3.176 14.447 9.022 2.397 3.896 3.395 7 3.129 11.69-.266 3.826-1.997 6.93-3.262 9.238-5.127 9.96-7.99 12.485-12.517 19.486z" fill="#fff"/><path d="M148.382 100.636l-20.686-1.267-6.414-21.471L120 98.897l-19.105-1.17 3.84-62.87 19.104 1.17-1.137 18.621 7.625-18.223 20.347 1.246-15.444 29.556 13.152 33.409zm-18.479-4.053l14.094.863-11.964-30.39 13.978-26.75-13.798-.845-10.051 24.021-.059.977-.341-.02-.001.002-.509-.03-2.351 2.083.314-5.124.159.01 1.381-22.62-13.292-.815-3.485 57.05 13.293.813 1.589-26.017-.459-1.54 2.168.142-.093 1.426 1.314-.394 8.113 27.157z" fill="#fff"/><path d="M148.477 100.636l-20.686-1.267-6.414-21.471-1.282 20.999-19.105-1.17 3.839-62.87 19.105 1.17-1.138 18.622 7.625-18.224 20.348 1.246-15.444 29.556 13.152 33.409zm-18.479-4.053l14.094.863-11.964-30.39 13.978-26.75-13.798-.845-10.454 24.986-2.562-.166 1.558-25.521-13.292-.815-3.484 57.05 13.292.813 1.589-26.017-.46-1.538 2.168.14-.092 1.425 1.314-.393 8.113 27.157z" fill="#393995"/><path d="M146.255 40.358l-14.383-.845-10.349 22.97-2.232.51L121 38.811l-13.879-.815-3.484 57.05 13.879.814 1.527-25.016 2.431-1.284 8.088 27.073 14.679.864-11.964-30.39 13.978-26.749zM67.04 41.263l-16.198.992 3.662 59.96 16.199-.992-3.662-59.96z" fill="#FCDA00"/><path d="M53.14 103.759l-3.84-62.87 19.105-1.17 3.84 62.87-19.105 1.17zm-.756-60.137l3.484 57.049 13.293-.815-3.484-57.049-13.293.815z" fill="#393A96"/><path d="M40.028 63.971c1.265 4.279-.705 7.439-5.044 8.477l-3.931-13.292 1.121-.416c3.814-1.132 6.769 1.565 7.854 5.231zm4.378 40.331l-5.58-18.868c13.613-3.623 21.411-10.922 16.983-25.895-4.474-15.125-16.234-16.455-29.812-12.428l-14.188 4.21 17.036 57.597 15.561-4.616z" fill="#fff"/><path d="M27.863 110.73L10 50.337l15.584-4.623A42.762 42.762 0 0137.7 43.703c9.915 0 16.477 5.189 19.505 15.422 1.963 6.64 1.692 12.266-.808 16.724-2.685 4.79-7.846 8.262-15.756 10.59l5.575 18.847-18.353 5.444zM13.618 52.304l16.21 54.803 12.77-3.788-5.594-18.91 1.447-.384c7.928-2.11 12.968-5.251 15.408-9.603 2.129-3.798 2.31-8.531.554-14.469C51.759 50.98 46.293 46.62 37.7 46.62c-3.833.092-7.634.729-11.29 1.89l-12.792 3.795zM33.98 74.186l-4.71-15.924 2.49-.92a7.534 7.534 0 012.143-.32c3.394 0 6.346 2.565 7.52 6.535.722 2.439.547 4.69-.504 6.511-1.078 1.866-3.013 3.18-5.597 3.798l-1.342.32zM32.841 60.07l3.117 10.537a4.903 4.903 0 002.44-1.998c.65-1.126.73-2.547.234-4.223-.636-2.15-2.212-4.448-4.729-4.448a4.515 4.515 0 00-1.062.132z" fill="#fff"/><path d="M40.093 63.971c1.264 4.279-.705 7.439-5.044 8.477l-3.931-13.292 1.12-.416c3.815-1.132 6.77 1.565 7.855 5.231zm4.378 40.331L38.89 85.434c13.614-3.623 21.412-10.922 16.983-25.895C51.4 44.414 39.64 43.084 26.063 47.111l-14.188 4.21 17.036 57.597 15.561-4.616z" fill="#FCDA00"/><path d="M27.928 110.73L10.065 50.337l15.583-4.623a42.762 42.762 0 0112.117-2.011c9.915 0 16.477 5.189 19.504 15.422 1.964 6.64 1.692 12.266-.807 16.724-2.685 4.79-7.847 8.262-15.757 10.59l5.575 18.847-18.352 5.444zM13.683 52.304l16.21 54.803 12.769-3.788-5.593-18.91 1.447-.384c7.928-2.11 12.968-5.251 15.407-9.603 2.13-3.798 2.311-8.531.555-14.469-2.654-8.973-8.121-13.334-16.713-13.334-3.834.092-7.635.729-11.29 1.89l-12.792 3.795zm20.362 21.882l-4.71-15.924 2.49-.92a7.533 7.533 0 012.143-.32c3.394 0 6.345 2.565 7.52 6.535.721 2.439.547 4.69-.505 6.511-1.077 1.866-3.012 3.18-5.596 3.798l-1.342.32zM32.906 60.07l3.116 10.537a4.904 4.904 0 002.441-1.998c.65-1.126.729-2.547.234-4.223-.637-2.15-2.213-4.448-4.729-4.448a4.506 4.506 0 00-1.062.132z" fill="#393A96"/><path d="M97.124 41.414a22.345 22.345 0 00-8.39.32c-7.704 1.64-24.814 9.925-19.224 36.265 4.268 20.107 17.418 27.651 30.413 24.885a23.07 23.07 0 009.125-4.142L106.492 82.1c-2.072 2.885-4.031 4.768-7.61 5.53-7.937 1.69-11.813-6.608-13.27-13.466-1.372-6.468-1.283-16.017 6.965-17.773 3.268-.695 5.4.154 8.12 1.856l-3.573-16.833z" fill="#fff"/><path d="M94.78 104.893c-13.18 0-23.16-9.94-26.693-26.591-6.645-31.303 17.562-37.401 20.344-37.994a26.132 26.132 0 015.486-.613 20.89 20.89 0 013.448.282l.977.163 4.492 21.163-2.908-1.82c-2.444-1.53-4.285-2.253-7.047-1.665-8.21 1.747-6.547 12.721-5.842 16.043.8 3.768 3.358 12.533 9.817 12.533h.001a8.315 8.315 0 001.724-.19c3.132-.667 4.84-2.322 6.731-4.955l2.079-2.894 3.233 21.05-.724.521a24.375 24.375 0 01-9.672 4.384c-1.79.384-3.615.579-5.446.583zm-.863-62.282c-1.642.01-3.278.195-4.88.55-2.491.53-24.159 6.003-18.103 34.535 3.227 15.204 12.142 24.281 23.846 24.281a23.237 23.237 0 004.84-.52 21.168 21.168 0 007.851-3.39l-1.922-12.515a11.782 11.782 0 01-6.365 3.504c-.765.165-1.545.25-2.328.253h-.002c-2.861 0-9.82-1.446-12.665-14.841-1.745-8.225-.538-17.667 8.085-19.502a10.286 10.286 0 016.35.525l-2.711-12.773a18.425 18.425 0 00-1.996-.107z" fill="#fff"/><path d="M97.124 41.356a22.337 22.337 0 00-8.39.32c-7.704 1.64-24.814 9.925-19.224 36.265 4.268 20.106 17.418 27.651 30.413 24.885a23.065 23.065 0 009.125-4.142l-2.556-16.642c-2.072 2.885-4.031 4.768-7.61 5.53-7.937 1.69-11.813-6.608-13.27-13.466-1.372-6.468-1.283-16.016 6.965-17.772 3.268-.697 5.4.153 8.12 1.855l-3.573-16.833z" fill="#FCDA00"/><path d="M94.781 104.835c-13.181 0-23.16-9.94-26.694-26.591-2.524-11.891-.868-21.52 4.922-28.62 5.578-6.84 13.215-8.904 15.422-9.373a26.115 26.115 0 015.487-.614 20.886 20.886 0 013.447.281l.977.164 4.492 21.164-2.908-1.82c-2.445-1.53-4.284-2.254-7.047-1.666-8.21 1.748-6.547 12.72-5.842 16.043.8 3.768 3.358 12.533 9.818 12.532a8.28 8.28 0 001.724-.19c3.132-.666 4.84-2.321 6.731-4.954l2.079-2.895 3.233 21.05-.724.521a24.35 24.35 0 01-9.672 4.385c-1.79.384-3.614.579-5.445.583zm-.863-62.282c-1.642.01-3.278.194-4.881.55a25.23 25.23 0 00-13.773 8.365c-5.204 6.381-6.661 15.186-4.33 26.17 3.227 15.204 12.142 24.281 23.847 24.281a23.296 23.296 0 004.84-.52 21.172 21.172 0 007.851-3.39l-1.923-12.515a11.779 11.779 0 01-6.364 3.504c-.766.165-1.547.25-2.33.253-2.86 0-9.821-1.445-12.666-14.842-1.745-8.224-.538-17.665 8.085-19.501a10.274 10.274 0 016.35.526L95.913 42.66a18.394 18.394 0 00-1.995-.107z" fill="#393A96"/></svg>