<svg viewBox="10 20 197 96.3" xmlns="http://www.w3.org/2000/svg"><path d="M156.989 21.523l.671 13.221-15.445-5.793-2.415 76.292 38.21 9.764 27.483-67.43-19.052-3.84 5.735-10.862-35.187-11.352z" fill="#00995B"/><path d="M140.917 104.402l36.443 9.313 26.627-65.33-19.19-3.866 5.809-11.004-32.449-10.468.675 13.302-15.576-5.842-2.339 73.895zm37.742 11.898l-39.976-10.217 2.492-78.687 15.312 5.743L155.821 20l37.925 12.236-5.66 10.72L207 46.766 178.659 116.3z" fill="#3A3C95"/><path d="M170.709 59.536v42.994h11.116V38.423h-12.021l-24.365 48.115 25.618.253V75.712l-9.009.188 8.661-16.364z" fill="#293577"/><path d="M167.782 56.995v42.993h11.116V35.881h-12.021l-24.365 48.115 25.618.253V73.171l-9.01.187 8.662-16.363z" fill="#fff"/><path d="M129.788 96.287l14.095.863-11.965-30.389 13.979-26.75-13.798-.845-10.051 24.021-.059.975-.341-.02-.002.007-.509-.031-2.35 2.09.314-5.139.159.01 1.381-22.614-13.293-.815-3.485 57.05 13.294.813 1.589-26.017-.455-1.524 2.153.125-.082 1.427 1.313-.394 8.113 27.157zm18.48 4.054l-20.687-1.268-6.413-21.47-1.282 20.999-19.106-1.17 3.84-62.87 19.105 1.17-1.137 18.62 7.624-18.223 20.348 1.247-15.444 29.556 13.152 33.409z" fill="#fff"/><path d="M129.884 96.287l14.094.863-11.963-30.389 13.978-26.75-13.799-.845-10.051 24.021-.059.976-.341-.02-.002.006-.507-.031-2.338 2.086 1.84-27.74-13.293-.814-3.484 57.05 13.293.813 1.589-26.017-.455-1.523 2.153.124-.082 1.427 1.314-.394 8.113 27.157zm18.479 4.054l-20.687-1.268-6.413-21.47-1.282 20.999-19.106-1.17 3.84-62.87 19.105 1.17-1.137 18.621 7.626-18.224 20.346 1.247-15.443 29.556 13.151 33.409z" fill="#3A3C95"/><path d="M146.129 40.062l-14.383-.845-10.35 22.97-2.231.51 1.708-24.181-13.879-.815-3.484 57.05 13.879.813 1.527-25.015 2.432-1.284 8.087 27.073 14.68.863-11.964-30.389 13.978-26.75zM70.704 101.152l-3.661-59.96-16.2.992 3.662 59.96 16.2-.992z" fill="#DE0B8C"/><path d="M52.385 43.55L55.87 100.6l13.293-.814-3.485-57.05-13.293.815zm.756 60.138l-3.84-62.87 19.106-1.171 3.84 62.871-19.106 1.17z" fill="#3A3C95"/><path d="M44.407 104.23l-5.58-18.867C52.44 81.739 60.238 74.44 55.81 59.468 51.336 44.343 39.576 43.012 25.998 47.04l-14.189 4.209 17.037 57.598 15.561-4.617zM40.03 63.9c1.265 4.278-.705 7.438-5.044 8.476l-3.931-13.292 1.12-.416c3.815-1.131 6.77 1.565 7.855 5.232" fill="#fff"/><path d="M32.842 59.998l3.117 10.537a4.91 4.91 0 002.44-1.998c.65-1.127.73-2.548.234-4.223-.636-2.15-2.213-4.449-4.73-4.449a4.504 4.504 0 00-1.06.133zm1.139 14.117l-4.71-15.925 2.49-.92a7.538 7.538 0 012.143-.32c3.394 0 6.346 2.565 7.52 6.535.722 2.44.547 4.69-.505 6.512-1.077 1.866-3.012 3.18-5.596 3.797l-1.342.32zM13.618 52.232l16.21 54.803 12.77-3.788-5.593-18.908 1.447-.385c7.929-2.11 12.969-5.252 15.409-9.604 2.128-3.798 2.31-8.53.553-14.468-2.654-8.973-8.121-13.335-16.713-13.335-3.834.092-7.635.729-11.29 1.89l-12.793 3.795zm14.246 58.426L10 50.265l15.584-4.623a42.757 42.757 0 0112.117-2.01c9.915 0 16.478 5.188 19.505 15.422 1.963 6.639 1.692 12.265-.807 16.723-2.685 4.79-7.847 8.262-15.757 10.591l5.575 18.846-18.353 5.444z" fill="#fff"/><path d="M44.472 104.23L38.89 85.363c13.614-3.624 21.412-10.922 16.984-25.895C51.4 44.343 39.64 43.012 26.062 47.04l-14.188 4.209 17.036 57.598 15.562-4.617zM40.093 63.9c1.265 4.278-.704 7.438-5.044 8.476l-3.93-13.292 1.12-.416c3.815-1.131 6.77 1.565 7.854 5.232" fill="#DE0B8C"/><path d="M32.907 59.998l3.116 10.537a4.909 4.909 0 002.44-1.998c.651-1.127.73-2.548.234-4.223-.636-2.15-2.212-4.449-4.729-4.449a4.502 4.502 0 00-1.061.133zm1.139 14.117l-4.71-15.925 2.49-.92a7.541 7.541 0 012.142-.32c3.394 0 6.346 2.565 7.521 6.535.721 2.44.547 4.69-.505 6.512-1.078 1.866-3.013 3.18-5.597 3.797l-1.342.32zM13.682 52.232l16.21 54.803 12.77-3.788-5.593-18.908 1.447-.385c7.928-2.11 12.968-5.252 15.408-9.604 2.129-3.798 2.31-8.53.554-14.468-2.654-8.973-8.121-13.335-16.714-13.335-3.833.092-7.634.729-11.29 1.89l-12.792 3.795zm14.245 58.426L10.065 50.265l15.584-4.623a42.757 42.757 0 0112.116-2.01c9.916 0 16.478 5.188 19.506 15.422 1.963 6.639 1.692 12.265-.807 16.723-2.685 4.79-7.847 8.262-15.758 10.591l5.575 18.846-18.353 5.444z" fill="#3A3C95"/><path d="M97.127 41.092a22.322 22.322 0 00-8.39.32c-7.704 1.64-24.815 9.925-19.224 36.265 4.267 20.106 17.417 27.651 30.413 24.884a23.055 23.055 0 009.125-4.142l-2.556-16.641c-2.072 2.884-4.031 4.768-7.61 5.53-7.938 1.689-11.814-6.608-13.27-13.467-1.372-6.468-1.284-16.015 6.965-17.772 3.268-.696 5.4.154 8.12 1.856l-3.573-16.833z" fill="#fff"/><path d="M93.919 42.288c-1.641.01-3.277.195-4.88.55a25.23 25.23 0 00-13.773 8.366c-5.204 6.381-6.662 15.186-4.33 26.17 3.227 15.204 12.142 24.281 23.848 24.281a23.299 23.299 0 004.84-.52 21.197 21.197 0 007.851-3.391l-1.923-12.514a11.78 11.78 0 01-6.365 3.504 11.22 11.22 0 01-2.33.253c-2.86 0-9.821-1.445-12.665-14.842-1.746-8.224-.538-17.666 8.085-19.501a10.28 10.28 0 016.35.525l-2.712-12.773a18.415 18.415 0 00-1.996-.108zm.865 62.283c-13.182 0-23.162-9.942-26.696-26.592-2.524-11.89-.867-21.52 4.923-28.62 5.578-6.838 13.215-8.903 15.423-9.373a26.102 26.102 0 015.485-.613 20.887 20.887 0 013.449.281l.977.164 4.492 21.164-2.908-1.82c-2.445-1.53-4.285-2.255-7.047-1.667-8.21 1.748-6.548 12.722-5.843 16.044.8 3.768 3.359 12.533 9.819 12.532a8.276 8.276 0 001.724-.19c3.132-.666 4.839-2.321 6.731-4.954l2.08-2.895 3.232 21.05-.724.521a24.366 24.366 0 01-9.672 4.384c-1.79.384-3.615.58-5.445.584z" fill="#fff"/><path d="M97.127 41.284a22.346 22.346 0 00-8.39.32c-7.704 1.64-24.815 9.925-19.224 36.265 4.267 20.107 17.417 27.651 30.413 24.885a23.068 23.068 0 009.125-4.142l-2.556-16.641c-2.072 2.884-4.031 4.767-7.61 5.53-7.938 1.688-11.814-6.609-13.27-13.467-1.372-6.468-1.284-16.016 6.965-17.772 3.268-.696 5.4.154 8.12 1.855l-3.573-16.833z" fill="#DE0B8C"/><path d="M93.92 42.481c-1.642.01-3.278.195-4.881.55a25.23 25.23 0 00-13.773 8.366c-5.204 6.38-6.662 15.185-4.33 26.17 3.227 15.203 12.142 24.28 23.847 24.28a23.17 23.17 0 004.84-.52 21.17 21.17 0 007.851-3.39l-1.922-12.515a11.784 11.784 0 01-6.365 3.505c-.765.165-1.546.25-2.328.253h-.002c-2.861 0-9.821-1.447-12.665-14.842-1.746-8.224-.538-17.666 8.085-19.502a10.286 10.286 0 016.35.526l-2.712-12.774a18.42 18.42 0 00-1.995-.107zm.863 62.282c-13.181 0-23.16-9.94-26.695-26.59-2.524-11.892-.867-21.521 4.923-28.62 5.578-6.84 13.215-8.905 15.423-9.374a26.14 26.14 0 015.486-.613 20.886 20.886 0 013.447.28l.978.165 4.492 21.162-2.908-1.82c-2.446-1.53-4.287-2.253-7.047-1.665-8.21 1.747-6.548 12.722-5.843 16.044.8 3.768 3.359 12.532 9.818 12.532a8.31 8.31 0 001.725-.19c3.132-.666 4.839-2.321 6.731-4.954l2.08-2.895 3.232 21.05-.724.521a24.377 24.377 0 01-9.672 4.384c-1.79.384-3.615.579-5.446.583z" fill="#3A3C95"/></svg>