<svg xmlns="http://www.w3.org/2000/svg" id="Layer_2" data-name="Layer 2" viewBox="0 0 924.39 528.36"><defs><radialGradient id="radial-gradient" cx="682.99" cy="152.14" r="173.83" fx="665.26" fy="152.14" gradientTransform="matrix(.64 .77 -1.17 .98 422.29 -520.27)" gradientUnits="userSpaceOnUse"><stop offset="0" stop-color="#c4d841"/><stop offset=".12" stop-color="#b7d341"/><stop offset=".33" stop-color="#96c743"/><stop offset=".62" stop-color="#61b445"/><stop offset=".92" stop-color="#249e49"/></radialGradient><linearGradient id="linear-gradient" x1="215.14" x2="466.57" y1="157.36" y2="329.14" gradientUnits="userSpaceOnUse"><stop offset="0" stop-color="#ef6485"/><stop offset=".65" stop-color="#ec1775"/></linearGradient><style>.cls-2,.cls-4{stroke-width:0}.cls-2{fill:#201e1f}.cls-4{fill:#fff}</style></defs><g id="Layer_2-2" data-name="Layer 2"><circle cx="773.19" cy="233.43" r="151.2" style="fill:url(#radial-gradient);stroke-width:0"/><path d="M592.41 456.63c-.85-5.08-3.34-9.7-5.58-11.76-3.85-3.67-6.3-5.27-12.39-5.79s-18.39 3.9-23.76 12.27c-4.74 7.62-8.3 13.43-6.33 25.73 1.31 8.2 7.58 15.4 18.15 16 13.35.75 23.1-8.42 27.22-18.99h29.91c-3.95 12.55-13.39 26.17-23.34 33.49a60.85 60.85 0 0 1-36.9 12.3c-29.87 0-45.85-18.87-45.85-43.25 0-17.19 7.33-34.01 19.34-46.12 10.43-10.31 27.11-17.67 43.7-17.67 19.25 0 28.23 5.51 36.45 14.78 6.63 8.06 8.76 16.39 8.76 28.93l-29.39.09Zm56.97 43.79-8.71 17.46h-30.86l57.7-102.63h28.76l22.61 102.63h-31.47l-2.56-17.46h-35.48Zm27.78-51.4-1.3-.04-15.9 29.78h21.14l-3.93-29.73Zm92.63-40.42h22.27l-1.76 10.55c7.83.28 12.73 3.73 15.06 6 5.15 5.01 5.52 8.69 6.4 17.42.06.57.15 4.69 0 6.4h-28.12s1.67-8.25-8.48-8.25c-8.4 0-10.72 3.03-10.81 7.58-.06 3.04 3.14 4.92 15.34 7.82 11.1 2.64 18.06 5.51 22.33 10.21 3.27 3.84 5.85 9.04 5.85 15.16 0 12.18-7.7 25.07-17.43 30.75-6.81 3.94-8.9 5.07-16.5 6.07l-1.89 10.05h-23.4l2.81-10.15c-5.98-.43-9.85-2.69-13.91-5.28-10.51-7.91-9.85-23.31-8.54-28.27h27.26c-.27 8.9 7.22 10.69 10.35 10.69 8.26 0 12.18-5.07 12.18-8.6s-1.67-4.3-3.46-5.07-7.4-2.63-14.09-4.48c-9.82-2.7-13.6-3.12-17.73-7.1-4.55-4.55-7.7-10.13-7.7-16.54 0-10.96 5.6-24.52 16.42-29.79 5.98-2.85 7.9-3.49 15.12-4.56l2.43-10.6Zm81.91 69.7-6.9 39.13-29.19.09 18.27-102.18h29.08L856 452.5h29.64l6.81-37.16h28.65l-18 102.54h-28.84l7.25-39.49-29.82-.09Z" style="fill:#211e1f;stroke-width:0"/><path d="M887.34 189.85s-33.47-2.92-69.91 9.13c-33.01 10.93-53.85 32.36-53.85 32.24 0 0 6.87 6.56 17.61 17.19 14.52 14.37 29.49 40.59 29.49 74.69 0 24.79-2.41 36.3-4.35 57.22h.01c.46-.42 20.56-18.84 19.56-76.44-.36-20.61-6.99-31.46-8.3-35.22-4.44-12.81-20.48-34.69-20.48-34.69 2.45-4.6 25.44-14.89 31.93-17.05 20.91-6.95 48.55-6.36 48.55-6.36 8.15 3.52 25.19 43.76 24.78 73.49-.34 23.99-7.65 39.33-7.65 39.33a147.72 147.72 0 0 0 22.83-44.9c.81-39.32-16.97-76.94-30.22-88.64Z" class="cls-4"/><path d="M840.41 179.7s-18.63-26.75-42.75-42.15c0 0-98.03 15.7-123.7 106.33 0 0 10.6 2.48 33.67 10.57 17.69 6.2 38.71 16.59 54.09 32.66 35.8 37.39 37.61 90.87 37.61 90.87s1.91-32.24-1.91-49.97c-6.29-29.19-18.35-42.54-22.99-48.06-7.34-8.73-13.04-13.4-18.27-17.73a147.56 147.56 0 0 0-21.73-15.04c-13.85-7.82-33.07-14.35-33.07-14.35 9.43-19.88 34.19-40.04 50.21-50.6s44.06-20.66 44.06-20.66c15.64 9.55 24.84 22.33 24.84 22.33a424.28 424.28 0 0 0 19.94-4.18Z" class="cls-4"/><path d="M729.96 273.19a38.05 38.05 0 0 1 14.21 7.82s-19.1 20-25.79 54.99c0 0 39.28 4.3 67.82 38.39 0 0-7.72-3.27-20-8-8.55-3.29-20.97-8.07-27.54-9.66-12.43-3-26.19-5.4-39.98-5.57 0 0 .65-22.09 7.7-39.22 9.97-24.24 23.58-38.75 23.58-38.75Z" class="cls-4"/><path d="M526.62 0c-11.64 22.57-19.7 38.69-34.03 38.69h-45.85l-22.48 51.04h63.67l-21.67 55.7c15.4 29.91 52.84 91.16-4.66 183.76 0 0 13.85 35.88 43.76 55.58h182.09c-149.97-100.12-57.09-241.72-38.1-297.24l61.27.04 20.48-48.66-61.31-.72L687.22.18 526.62 0Z" class="cls-2"/><circle cx="327.1" cy="233.85" r="152.24" style="stroke-width:0;fill:url(#linear-gradient)"/><path d="M72.77 1.79h170.99c-61.85 121.91-83.35 188.3-83.35 232.06 0 67.96 31.65 122.57 83.05 151.63l-184.3.6C16.65 347.41-1.12 296.79.05 243.1c1.04-47.66 18.29-95.34 39.16-153.91l33.56-87.4Z" class="cls-2"/><path d="M544.62 406.21c-5.46 3.22-14.33 8.96-19.88 14.33l-511.52.18 531.4-14.51Zm-32 29.01c-1.45 2.32-6.96 10.39-8.3 15.58l-491.37-2.06 499.67-13.52Zm-12.06 30c-1.25 6.76-1.29 13.61-1.02 15.58l-486.95-.92 487.97-14.66Zm1.82 29.35c.72 4.3 4.3 12.23 7.04 13.97l-494.45-.96 487.4-13.01Z" style="fill:#919394;stroke-width:0"/></g></svg>