<svg xmlns="http://www.w3.org/2000/svg" id="Layer_2" data-name="Layer 2" viewBox="0 0 207.17 221.07"><defs><linearGradient id="linear-gradient" x1="119.23" x2="119.23" y1="46.68" y2="222.56" gradientUnits="userSpaceOnUse"><stop offset=".11" stop-color="#f68f3b"/><stop offset=".87" stop-color="#ef6626"/></linearGradient><style>.cls-3{stroke-width:0;fill:#72a74b}</style></defs><g id="Layer_3" data-name="Layer 3"><path d="M85.24 41.13c-9.88 4.98-20.37 2-25.13-7.4-4.64-9.17-.23-19.87 9.25-24.26 3.4-1.58 10.19-2.98 15.39-.75l-2.22 8.21c-2.24-.54-5.79-1.3-8.74-.13-5.17 2.04-6.92 7.41-4.87 12.23 2.28 5.35 7.69 7.12 12.5 4.69.71-.36 2.17-1.22 3.31-2.24.4-.36.5-.95.26-1.43l-.96-1.91c-.25-.5-.85-.72-1.37-.5l-4.87 2.04-2.41-6.54 13.78-6.12 6.61 14.64c-3.39 4.14-6.05 7.22-10.51 9.47ZM0 75.76l9.23-14.93c1.35-2.21 4.72-4.58 7.34-4.9 3.74-.45 6.89.64 9.77 2.38s4.45 4.46 4.77 7.29c.39 3.36-.67 6.27-2.32 9.05l-3.33 5.39 8.88 4.99-4.97 8.43L0 75.76Zm19.51.45 2.31-3.54a6.44 6.44 0 0 0 1.02-4.38c-.18-1.07-1.13-1.91-2.09-2.46-1.26-.71-2.9-.56-3.91-.34-1.01.22-2.06 1.51-3.08 3.19l-1.82 3.16 7.57 4.36Z" class="cls-3"/><circle cx="119.23" cy="133.13" r="87.94" style="stroke-width:0;fill:url(#linear-gradient)"/><path d="M167.65 163.12v28H70.11v-25.39l47.81-37.3c8.54-7.88 13.97-11.22 13.97-20.49 0-5.95-4.47-12.13-12.48-12.17-10.81-.06-16.9 7.07-25.43 15.94L70.76 92.19c10.6-14.03 23.6-26.45 50.47-26.45 32.1 0 45.53 21.29 45.53 38.51 0 15.56-4.36 25.31-21.03 38.89l-27.98 19.98h49.91Z" style="fill:#fff;stroke-width:0"/><path d="m22.56 41.81 20.53-18.14 5.37 6.08-12.72 11.51 2.99 3.39 11.92-10.54 5.38 6.09-11.92 10.53 3.5 3.95 13.23-11.69 5.43 6.16-20.9 18.47-22.81-25.81Zm99.14-13.66-12.54.2-2.42 6.6-9.93.15L110.19.14l9.45-.14 15.12 34.04-10.1.15-2.96-6.05Zm-2.56-7.34-3.94-8.91-3.67 9.11 7.61-.2Z" class="cls-3"/></g></svg>