<svg xmlns="http://www.w3.org/2000/svg" data-name="Layer 2" viewBox="0 0 208.2 219.23"><defs><linearGradient id="a" x1="120.9" x2="120.9" y1="46.12" y2="220.72" gradientUnits="userSpaceOnUse"><stop offset=".22" stop-color="#f06486"/><stop offset=".87" stop-color="#ec0d74"/></linearGradient></defs><g data-name="Layer 3"><circle cx="120.9" cy="131.93" r="87.3" style="stroke-width:0;fill:url(#a)"/><path d="m0 75.14 9.23-14.93c1.35-2.21 4.72-4.58 7.34-4.9 3.74-.45 6.89.64 9.77 2.38s4.45 4.46 4.77 7.29c.39 3.36-.67 6.27-2.32 9.05l-3.33 5.39 8.88 4.99-4.97 8.43L0 75.14Zm19.51.45 2.31-3.54a6.44 6.44 0 0 0 1.02-4.38c-.18-1.07-1.13-1.91-2.09-2.46-1.26-.71-2.9-.56-3.91-.34-1.01.22-2.06 1.51-3.08 3.19l-1.82 3.16 7.57 4.36Zm3.09-34.13L43 23.47l5.33 6.02-12.64 11.42 2.97 3.36 11.85-10.45 5.35 6.04-11.85 10.45 3.48 3.92 13.14-11.59 5.4 6.11-20.77 18.32-22.66-25.6Zm98.5-13.55-12.46.2-2.4 6.55-9.86.15L109.67.14l9.39-.14 15.02 33.76-10.03.15-2.94-6Zm-2.54-7.28-3.91-8.84-3.65 9.04 7.56-.2ZM84.93 40.92c-9.88 4.98-20.37 2-25.13-7.4-4.64-9.17-.23-19.87 9.25-24.26 3.4-1.58 10.19-2.98 15.39-.75l-2.22 8.21c-2.24-.54-5.79-1.3-8.74-.13-5.17 2.04-6.92 7.41-4.87 12.23 2.28 5.35 7.69 7.12 12.5 4.69.71-.36 2.17-1.22 3.31-2.24.4-.36.5-.95.26-1.43l-.96-1.91c-.25-.5-.85-.72-1.37-.5l-4.87 2.04-2.41-6.54 13.78-6.12 6.61 14.64c-3.39 4.14-6.05 7.22-10.51 9.47Z" style="stroke-width:0;fill:#72a74b"/><path d="M162.29 128.67c4.95 6.12 7.43 13.49 7.43 22.1 0 7.34-1.17 14.33-5.65 21.25-4.06 6.27-7.67 9.27-15.15 13.88-7.75 4.77-17.59 6.27-29.77 6.27-8.42 0-18.39-1.84-25.53-5.19-4.53-2.13-12.27-5.07-23.91-16.75l21.76-21.85c4.3 3.88 5.71 5.34 9.76 8.24a34.21 34.21 0 0 0 19.25 6c4.66-.06 5.84.02 8.69-1.61 2.84-1.63 6.9-3.73 6.9-10.39 0-6-4.9-11.73-15.58-12.67l-18.31.02-5.15-18.15 27.09-24.72H78.19V67.06h89.1V92.4l-28.71 23.92c9.22 2.33 18.77 6.23 23.72 12.35Z" style="fill:#fff;stroke-width:0"/></g></svg>