<svg xmlns="http://www.w3.org/2000/svg" id="Layer_2" data-name="Layer 2" viewBox="0 0 440.52 71.37"><defs><style>.cls-2,.cls-3{stroke-width:0}.cls-2{fill:#fff}.cls-3{fill:#ee2a7b}</style></defs><g id="Layer_1-2" data-name="Layer 1"><path d="M268.32 44.31h4.44V29.52h-.52l1.86-1.86-3.53-4.01c-2.39-2.71-4.59-4.94-9.34-6.81a27.59 27.59 0 0 0-10.45-1.91c-.77 0-1.59.02-2.42.07-5.25.3-8.43 1.71-12.47 4.19-4.15 2.55-7.34 6-9.49 10.27-2.31 4.58-3.14 8.4-2.86 13.21.31 5.28 1.87 10.32 4.4 14.18a25.33 25.33 0 0 0 10.6 9.18c3.97 1.87 6.44 2.66 11.48 2.66 5.07 0 9.44-1.1 13.35-3.36a34.01 34.01 0 0 0 11.13-11.08l2.99-5.12-9.15-4.84ZM100.4 49.22v-1.36l1.61-.25-.51-5.33c-.14-1.5-.39-3.03-.74-4.59-.84-5.17-2.69-9.62-5.49-13.21a23.92 23.92 0 0 0-10.78-7.93 25.71 25.71 0 0 0-8.8-1.54c-1.45 0-2.94.12-4.43.35a26.28 26.28 0 0 0-12.68 5.52 25 25 0 0 0-7.84 11.01 27.54 27.54 0 0 0-1.21 13.92 27.53 27.53 0 0 0 5.55 13.01 24.9 24.9 0 0 0 11.3 8.06 29.37 29.37 0 0 0 9.89 1.81c1.64 0 3.28-.16 4.85-.48 8.33-1.68 15.28-6.33 19.05-12.75l2.68-4.57-2.44-1.68Z" class="cls-3"/><path d="m390.97 62.84-5.55-9.12-5.95 9.12h-11.79l11.79-17.4-11.44-17.4h12.24l5.49 8.8 5.72-8.8h11.5l-11.44 16.95 11.84 17.85h-12.42Zm49.55-9.77v9.76h-34.83v-9l16.92-12.76c1.62-1.53 4.37-4.08 4.93-5.16.55-1.09.83-2.18.83-3.29 0-1.45-.49-2.57-1.47-3.38a5.13 5.13 0 0 0-3.75-1.42c-1.66 0-2.7.33-3.94 1.3a22.78 22.78 0 0 0-4.39 4.66l-8.24-6.99c1.75-2.89 4.31-5.58 7.46-7.24s5.76-2.3 10.07-2.3c3.41 0 5.13.55 7.75 1.66s4.67 2.69 6.14 4.76a12.06 12.06 0 0 1 2.21 7.18c0 2.43-.52 4.71-1.57 6.86-1.04 2.15-3.06 4.59-6.04 7.31l-9.33 8.05h17.26Z" style="stroke-width:0;fill:#1ba00b"/><path d="M105.17 67.18 88.79 13.81l26.86 1.98 3.1 12.15 4.41-11.59 27.19 1.84-24.45 50.68-20.73-1.69z" class="cls-3"/><path d="M155.95 67.56a22.15 22.15 0 0 1-5.22.09 22.9 22.9 0 0 1-10.17-3.3 17.53 17.53 0 0 1-6.66-7.41 18.25 18.25 0 0 1-1.56-9.63c.56-5.66 3.26-10.14 7.82-12.94.4-.25.82-.48 1.24-.7l-1.8-16.01 4.88-1.17a40.8 40.8 0 0 1 6.33-.99 58.43 58.43 0 0 1 11.51.05c6.91.71 13.5 3.81 17.2 8.09 4.2 4.85 6.69 9.86 5.24 18.5l-4.62 29.22-24.21-3.81Z" class="cls-3"/><path d="m177.84 17.78 25.63-1.52a15.22 15.22 0 0 1 5.25-1.23c.77-.04 1.51-.06 2.24-.06 3.63 0 8.97.48 13.37 4.65 5.06 4.8 6.09 12.37 6.42 19.15l1.92 27.38-24.92 1.31-2.11-26.25a12.6 12.6 0 0 0-.21-1.93c-.18 0-.29.02-.38.04-.02.66.03 1.7.08 2.51l1.56 25.75-24.78 1.91-4.06-51.71Zm113.63 50.03 1.82-26.3c.04-1.08-.01-1.76-.08-2.18h-.03c-.07.06-.19.16-.36.33-.21.68-.29 2.52-.32 3.34l-1.58 24.71-25.28-1.14L270.29 0l25.27 1.71-.58 14.55a17.9 17.9 0 0 1 5.43-.54c6.07.27 10.33 2.22 14.23 6.52 4.18 4.61 4.23 11.88 3.92 18.94l-2.1 28.16-25-1.53Z" class="cls-3"/><path d="M331.03 69.48c-1.98 0-3.9-.26-5.69-.76a17.6 17.6 0 0 1-8.5-5.2 18.15 18.15 0 0 1-4.24-8.79c-1.08-5.59.24-10.65 3.81-14.64a19 19 0 0 1 .99-1.02l-6.29-14.83 4.35-2.52a39.52 39.52 0 0 1 5.79-2.75 59.83 59.83 0 0 1 11.05-3.23c1.89-.36 3.81-.54 5.73-.54 5.01 0 9.65 1.2 13.07 3.39 5.41 3.46 9.23 7.54 10.3 16.24l3.9 29.33-24.26 3.24a22.25 22.25 0 0 1-5 1.58c-1.72.33-3.4.5-5 .5Z" class="cls-3"/><path d="m141.57 23.3-19.1 39.58-13-1.06L96.66 20.1l14.48 1.07 6.54 25.57 9.29-24.42 14.6.99Zm33.66 4.07c3.03 3.51 5.1 6.9 3.94 13.84l-3.74 23.66-13.76-2.17.49-3.49A15.99 15.99 0 0 1 151.29 62a17.37 17.37 0 0 1-7.68-2.44c-2.1-1.33-3.62-3-4.56-5.01a12.53 12.53 0 0 1-1.05-6.66c.38-3.9 2.1-6.79 5.14-8.66 3.04-1.87 7.37-2.82 13.42-1.94s8.57 2.68 8.57 2.68c.19-4.38-1.12-7.88-8.04-8.13-1.88-.07-4.2-.18-6.22-.02s-2.75.25-3.92.38l-1.14-10.16c1.83-.44 3.42-.68 5.49-.85 4.05-.35 7.34-.27 10.46.04 5.91.6 10.97 3.25 13.48 6.15Zm-14.35 25.5c3.46-1.61 2.37-7.07 2.37-7.07s-.78-.86-5.28-.93-6.1 1-6.37 3.79a4.74 4.74 0 0 0 .77 3.09c.72.95 1.42 1.31 2.81 1.66 1.55.38 4.38.08 5.7-.54Zm59.52-29.12c3.49 3.31 4.36 9.28 4.66 15.36l1.52 21.67-13.61.72-1.66-20.55c-.27-5.58-2.05-7.54-6.13-7.34a6.41 6.41 0 0 0-4.68 2.1c-1.48 1.5-1.18 4.12-1.02 7.33l.95 19.75-13.73.63-2.79-40.29 14.33-.85.23 4.82c1.39-1.73 2.43-2.91 4.25-4.01s3.88-2.25 6.27-2.37c4.63-.22 8.42.19 11.42 3.04Zm20.55 37.15a19.77 19.77 0 0 1-8.27-7.16c-2.05-3.14-3.24-7.29-3.48-11.4s.58-6.99 2.26-10.32a19.5 19.5 0 0 1 7.39-7.98c3.25-1.99 5.58-3.11 9.83-3.36s7.42.25 10.46 1.45c3.49 1.38 5.01 2.84 7.16 5.28l-8.55 8.55c-1.86-1.96-3.58-3.18-6.98-3.06-2.41.08-4.74.98-6.22 2.79-1.48 1.82-2.26 3.29-2.08 6.33s.81 5.42 2.66 6.88 3.31 2.19 6.13 2.24c3.36.05 6.48-1.39 8.01-5.19l10.31 5.45a28.38 28.38 0 0 1-9.06 9.02 20.42 20.42 0 0 1-10.52 2.6c-3.92 0-5.59-.48-9.05-2.11Zm69.48-34.84c2.74 3.02 2.7 9.04 2.45 14.87l-1.67 22.39-13.67-.84 1.43-20.66c.23-5.35-1.23-8-5.38-8.18-2.28-.1-3.57.73-5.01 2.21s-1.63 3.81-1.76 6.89l-1.22 19.03-13.88-.63 3.85-55.08 14.09.96-.77 19.15c1.51-1.33 3.25-2.6 5.13-3.51s3.91-1.35 6.15-1.25c4.7.21 7.53 1.64 10.27 4.66Zm37.6-2.68c3.91 2.5 6.86 5.16 7.72 12.15l3.15 23.74-13.81 1.85-.52-3.49a16 16 0 0 1-9.62 5.77c-2.98.58-5.67.52-8.06-.15a11.93 11.93 0 0 1-5.8-3.51 12.65 12.65 0 0 1-2.91-6.09c-.74-3.85.08-7.1 2.46-9.77 2.38-2.66 6.26-4.81 12.31-5.68s8.98.12 8.98.12c-1.07-4.25-3.32-7.23-10.02-5.5-1.82.47-4.08 1.02-5.97 1.75s-2.57 1.02-3.65 1.48l-3.99-9.42a35.37 35.37 0 0 1 5.02-2.38 54.72 54.72 0 0 1 10.03-2.94c5.84-1.1 11.44-.01 14.67 2.05Zm-6.48 28.53c2.86-2.53.25-7.45.25-7.45s-.99-.61-5.32.61-5.56 2.7-5.03 5.45a4.7 4.7 0 0 0 1.62 2.74c.96.71 1.73.86 3.17.79a11.08 11.08 0 0 0 5.31-2.14Z" class="cls-2"/><path d="M50.52 47.07a17.87 17.87 0 0 0 5.02-4.85 28.24 28.24 0 0 0 4.48-13.83c.25-5.53-.86-9.44-3.84-13.51a22.63 22.63 0 0 0-8.95-7.67c-4.1-2.1-8.96-3.29-14.45-3.54L3.46 2.35 0 65.9l25.45 1.7.59-12.78 7.63 13.5 30.23 1.8-13.38-23.06Z" class="cls-3"/><path d="m27.73 46.27-6.99-.36-.72 15.63-14.04-.94L8.83 8.29l23.69 1.07c4.69.21 8.72 1.18 12.11 2.92a16.96 16.96 0 0 1 6.95 5.96c2.31 3.17 2.92 5.94 2.75 9.9s-1.61 8.13-3.49 10.88c-1.88 2.75-4.89 4.32-8.22 5.78l11.04 19.03-16.57-.99-9.36-16.57Zm6.8-21.9a4.86 4.86 0 0 0-3.31-1.79l-12.16-.48-.67 12.49 11.14.41c2.01.07 2.7-.18 3.87-.96 1.69-1.13 2.46-2.83 2.57-5.29s-.48-3.27-1.46-4.38Zm61.3 18.45-26.61 4.2c.33 1.65 1.39 3.08 3.13 3.95s3.87 1.58 6.22 1.21c1.77-.28 3.56-.91 4.77-1.66a15.8 15.8 0 0 0 3.81-3.51l8.1 5.57c-2.89 4.93-8.43 8.67-15.27 10.05-4.11.83-8.15.16-11.7-1.11a19.19 19.19 0 0 1-8.76-6.24c-2.29-2.89-3.75-6.34-4.39-10.36s-.31-7.66.94-11.08a19.27 19.27 0 0 1 6.08-8.54c2.8-2.27 6.13-3.71 9.99-4.32s7.14-.27 10.39.91c3.26 1.19 6 3.22 8.25 6.09 2.24 2.87 3.7 6.47 4.38 10.78.02.1.45 1.8.67 4.06Zm-26.41-8.96c-1.14 1.45-1.16 3.21-.93 5.52l13.32-1.56c-.32-2.06-1.05-3.65-2.03-4.61-1.31-1.3-3.38-1.99-5.4-1.82s-3.83 1.02-4.97 2.47Z" class="cls-2"/></g></svg>