<svg xmlns="http://www.w3.org/2000/svg" id="b" viewBox="0 0 211.87 82.08"><defs><style>.h{fill:#fff}.bg{fill:#e1251b}</style></defs><g id="c"><path d="M0 0h211.87v82.08H0z" style="fill:#00c1de"/><path d="M.08.05h211.71l.03 2.93v76.15s-.01 2.9-.03 2.9H.08L.05 79.1V2.95S.06.05.08.05Z" style="fill:#00bddc"/><path d="M.16.09h211.55l.07 2.91v76.1s-.03 2.89-.07 2.89H.16l-.07-2.91V2.98S.12.09.16.09Z" style="fill:#00bbdb"/><path d="M.23.14h211.41c.05 0 .1 2.83.1 2.89v76.05c0 .05-.04 2.87-.1 2.87H.23c-.05 0-.1-2.83-.1-2.89V3c0-.05.04-2.87.1-2.87v.01Z" style="fill:#00b9da"/><path d="M.31.18h211.25c.07 0 .13 2.8.13 2.87v76c0 .07-.06 2.85-.13 2.85H.31c-.07 0-.13-2.8-.13-2.87v-76C.18 2.96.24.18.31.18Z" style="fill:#00b8da"/><path d="M.39.23h211.09c.09 0 .16 2.76.16 2.85v75.94c0 .09-.07 2.83-.16 2.83H.39C.3 81.85.23 79.09.23 79V3.05C.23 2.96.3.22.39.22v.01Z" style="fill:#00b6d9"/><path d="M.47.27H211.4c.11 0 .2 2.72.2 2.83V79c0 .11-.09 2.81-.2 2.81H.47c-.11 0-.2-2.72-.2-2.83V3.08c0-.11.09-2.81.2-2.81Z" style="fill:#00b5d9"/><path d="M.55.32h210.78c.13 0 .23 2.68.23 2.81v75.84c0 .13-.1 2.79-.23 2.79H.55c-.13 0-.23-2.68-.23-2.81V3.1c0-.13.1-2.79.23-2.79v.01Z" style="fill:#00b4d8"/><path d="M.62.36h210.63c.14 0 .26 2.64.26 2.79v75.8c0 .14-.12 2.77-.26 2.77H.62c-.14 0-.26-2.64-.26-2.79V3.13C.36 2.99.48.36.62.36Z" style="fill:#00b2d8"/><path d="M.7.41h210.47c.16 0 .29 2.61.29 2.77v75.74c0 .16-.13 2.75-.29 2.75H.7c-.16 0-.29-2.61-.29-2.77V3.16C.41 3 .54.41.7.41Z" style="fill:#00b1d7"/><path d="M.78.45h210.31c.18 0 .33 2.57.33 2.75v75.7c0 .18-.15 2.73-.33 2.73H.78c-.18 0-.33-2.57-.33-2.75V3.18C.45 3 .6.45.78.45Z" style="fill:#00b0d7"/><path d="M.86.5h210.15c.2 0 .36 2.53.36 2.73v75.64c0 .2-.16 2.71-.36 2.71H.86c-.2 0-.36-2.53-.36-2.73V3.21C.5 3.01.66.5.86.5Z" style="fill:#00aed6"/><path d="M.93.54h210.01c.22 0 .39 2.49.39 2.71v75.6c0 .22-.17 2.69-.39 2.69H.93c-.22 0-.39-2.49-.39-2.71V3.23C.54 3.01.71.54.93.54Z" style="fill:#00add6"/><path d="M1.01.59h209.85c.23 0 .42 2.45.42 2.69v75.54c0 .23-.19 2.67-.42 2.67H1.01c-.23 0-.42-2.45-.42-2.69V3.26c0-.23.19-2.67.42-2.67Z" style="fill:#00acd5"/><path d="M1.09.63h209.69c.25 0 .46 2.42.46 2.67v75.49c0 .25-.2 2.65-.46 2.65H1.09c-.25 0-.46-2.42-.46-2.67V3.28c0-.25.2-2.65.46-2.65Z" style="fill:#00aad5"/><path d="M1.17.68H210.7c.27 0 .49 2.38.49 2.65v75.44c0 .27-.22 2.63-.49 2.63H1.17c-.27 0-.49-2.38-.49-2.65V3.31c0-.27.22-2.63.49-2.63Z" style="fill:#00a9d5"/><path d="M1.25.73h209.37c.29 0 .52 2.34.52 2.63v75.38c0 .29-.23 2.61-.52 2.61H1.25c-.29 0-.52-2.34-.52-2.63V3.34c0-.29.23-2.61.52-2.61Z" style="fill:#00a8d4"/><path d="M1.32.77h209.23c.31 0 .55 2.3.55 2.61v75.34c0 .31-.25 2.59-.55 2.59H1.32c-.31 0-.55-2.3-.55-2.61V3.36c0-.31.25-2.59.55-2.59Z" style="fill:#00a6d4"/><path d="M1.4.82h209.07c.32 0 .59 2.26.59 2.59v75.28c0 .32-.26 2.57-.59 2.57H1.4c-.32 0-.59-2.26-.59-2.59V3.39c0-.32.26-2.57.59-2.57Z" style="fill:#00a5d3"/><path d="M1.48.86h208.91c.34 0 .62 2.22.62 2.57v75.24c0 .34-.28 2.55-.62 2.55H1.48c-.34 0-.62-2.23-.62-2.57V3.41c0-.34.28-2.55.62-2.55Z" style="fill:#00a4d3"/><path d="M1.56.91h208.75c.36 0 .65 2.19.65 2.55v75.18c0 .36-.29 2.53-.65 2.53H1.56c-.36 0-.65-2.19-.65-2.55V3.44c0-.36.29-2.53.65-2.53Z" style="fill:#00a3d2"/><path d="M1.63.95h208.61c.38 0 .68 2.15.68 2.53v75.14c0 .38-.31 2.51-.68 2.51H1.63c-.38 0-.68-2.15-.68-2.53V3.46c0-.38.31-2.51.68-2.51Z" style="fill:#00a1d2"/><path d="M1.71 1h208.45c.4 0 .72 2.11.72 2.51v75.08c0 .4-.32 2.49-.72 2.49H1.71c-.4 0-.72-2.11-.72-2.51V3.49c0-.4.32-2.49.72-2.49Z" style="fill:#00a0d1"/><path d="M1.79 1.04h208.29c.41 0 .75 2.07.75 2.49v75.03c0 .41-.34 2.47-.75 2.47H1.79c-.41 0-.75-2.07-.75-2.49V3.51c0-.41.34-2.47.75-2.47Z" style="fill:#009fd1"/><path d="M1.87 1.09H210c.43 0 .78 2.03.78 2.47v74.98c0 .43-.35 2.45-.78 2.45H1.87c-.43 0-.78-2.03-.78-2.47V3.54c0-.43.35-2.45.78-2.45Z" style="fill:#009ed0"/><path d="M1.95 1.13h207.97c.45 0 .81 2 .81 2.45v74.93c0 .45-.36 2.43-.81 2.43H1.95c-.45 0-.81-2-.81-2.45V3.57c0-.45.36-2.43.81-2.43v-.01Z" style="fill:#009cd0"/><path d="M2.02 1.18h207.83c.47 0 .85 1.96.85 2.43v74.88c0 .47-.38 2.41-.85 2.41H2.02c-.47 0-.85-1.96-.85-2.43V3.59c0-.47.38-2.41.85-2.41Z" style="fill:#009bcf"/><path d="M2.1 1.22h207.67c.49 0 .88 1.92.88 2.41v74.83c0 .49-.39 2.39-.88 2.39H2.1c-.49 0-.88-1.92-.88-2.41V3.62c0-.49.39-2.39.88-2.39v-.01Z" style="fill:#009acf"/><path d="M2.18 1.27h207.51c.5 0 .91 1.88.91 2.39v74.78c0 .5-.41 2.37-.91 2.37H2.18c-.5 0-.91-1.88-.91-2.39V3.64c0-.5.41-2.37.91-2.37Z" style="fill:#0098ce"/><path d="M2.26 1.31h207.35c.52 0 .94 1.84.94 2.37v74.73c0 .52-.42 2.35-.94 2.35H2.26c-.52 0-.94-1.84-.94-2.37V3.67c0-.52.42-2.35.94-2.35v-.01Z" style="fill:#0097ce"/><path d="M2.34 1.36h207.2c.54 0 .98 1.81.98 2.35v74.67c0 .54-.44 2.33-.98 2.33H2.34c-.54 0-.98-1.81-.98-2.35V3.69c0-.54.44-2.33.98-2.33Z" style="fill:#0096cd"/><path d="M2.41 1.4h207.05c.56 0 1.01 1.77 1.01 2.33v74.63c0 .56-.45 2.32-1.01 2.32H2.41c-.56 0-1.01-1.77-1.01-2.33V3.72c0-.56.45-2.32 1.01-2.32Z" style="fill:#0095cd"/><path d="M2.49 1.45h206.89c.58 0 1.04 1.73 1.04 2.31v74.57c0 .58-.47 2.3-1.04 2.3H2.49c-.58 0-1.04-1.73-1.04-2.31V3.75c0-.58.47-2.3 1.04-2.3Z" style="fill:#0094cc"/><path d="M2.57 1.5H209.3c.59 0 1.07 1.69 1.07 2.29v74.52c0 .59-.48 2.28-1.07 2.28H2.57c-.59 0-1.07-1.69-1.07-2.29V3.77c0-.59.48-2.28 1.07-2.28v.01Z" style="fill:#0092cb"/><path d="M2.65 1.54h206.57c.61 0 1.11 1.65 1.11 2.27v74.47c0 .61-.5 2.26-1.11 2.26H2.65c-.61 0-1.11-1.65-1.11-2.27V3.8c0-.61.5-2.26 1.11-2.26Z" style="fill:#0091cb"/><path d="M2.72 1.59h206.43c.63 0 1.14 1.62 1.14 2.25v74.42c0 .63-.51 2.24-1.14 2.24H2.72c-.63 0-1.14-1.62-1.14-2.25V3.82c0-.63.51-2.24 1.14-2.24v.01Z" style="fill:#0090ca"/><path d="M2.8 1.63h206.27c.65 0 1.17 1.58 1.17 2.23v74.37c0 .65-.52 2.22-1.17 2.22H2.8c-.65 0-1.17-1.58-1.17-2.23V3.85c0-.65.52-2.22 1.17-2.22Z" style="fill:#008fca"/><path d="M2.88 1.68h206.11c.67 0 1.2 1.54 1.2 2.21v74.32c0 .67-.54 2.2-1.2 2.2H2.88c-.67 0-1.21-1.54-1.21-2.21V3.87c0-.67.54-2.2 1.21-2.2v.01Z" style="fill:#008ec9"/><path d="M2.96 1.72h205.95c.68 0 1.24 1.5 1.24 2.19v74.27c0 .68-.55 2.18-1.24 2.18H2.96c-.68 0-1.24-1.5-1.24-2.19V3.9c0-.68.55-2.18 1.24-2.18Z" style="fill:#008dc9"/><path d="M3.04 1.77h205.79c.7 0 1.27 1.46 1.27 2.17v74.21c0 .7-.57 2.16-1.27 2.16H3.04c-.7 0-1.27-1.46-1.27-2.17V3.92c0-.7.57-2.16 1.27-2.16v.01Z" style="fill:#008bc8"/><path d="M3.11 1.81h205.65c.72 0 1.3 1.43 1.3 2.15v74.17c0 .72-.58 2.14-1.3 2.14H3.11c-.72 0-1.3-1.43-1.3-2.15V3.95c0-.72.58-2.14 1.3-2.14Z" style="fill:#008ac8"/><path d="M3.19 1.86h205.49c.74 0 1.34 1.39 1.34 2.13V78.1c0 .74-.6 2.12-1.34 2.12H3.19c-.74 0-1.34-1.39-1.34-2.13V3.98c0-.74.6-2.12 1.34-2.12Z" style="fill:#0089c7"/><path d="M3.27 1.9H208.6c.76 0 1.37 1.35 1.37 2.1v74.08c0 .76-.61 2.1-1.37 2.1H3.27c-.76 0-1.37-1.35-1.37-2.1V4c0-.76.61-2.1 1.37-2.1Z" style="fill:#0088c7"/><path d="M3.35 1.95h205.17c.77 0 1.4 1.31 1.4 2.08v74.02c0 .77-.63 2.08-1.4 2.08H3.35c-.77 0-1.4-1.31-1.4-2.08V4.03c0-.77.63-2.08 1.4-2.08Z" style="fill:#0087c6"/><path d="M3.42 1.99h205.03c.79 0 1.43 1.27 1.43 2.06v73.98c0 .79-.64 2.06-1.43 2.06H3.42c-.79 0-1.43-1.27-1.43-2.06V4.05c0-.79.64-2.06 1.43-2.06Z" style="fill:#0086c6"/><path d="M3.5 2.04h204.87c.81 0 1.47 1.24 1.47 2.04V78c0 .81-.66 2.04-1.47 2.04H3.5c-.81 0-1.47-1.24-1.47-2.04V4.08c0-.81.66-2.04 1.47-2.04Z" style="fill:#0085c5"/><path d="M3.58 2.08h204.71c.83 0 1.5 1.2 1.5 2.02v73.88c0 .83-.67 2.02-1.5 2.02H3.58c-.83 0-1.5-1.2-1.5-2.02V4.1c0-.83.67-2.02 1.5-2.02Z" style="fill:#0083c5"/><path d="M3.66 2.13h204.55c.85 0 1.53 1.16 1.53 2v73.82c0 .85-.69 2-1.53 2H3.66c-.85 0-1.53-1.16-1.53-2V4.13c0-.85.69-2 1.53-2Z" style="fill:#0082c4"/><path d="M3.74 2.17h204.39c.86 0 1.56 1.12 1.56 1.98v73.77c0 .86-.7 1.98-1.56 1.98H3.74c-.86 0-1.56-1.12-1.56-1.98V4.16c0-.86.7-1.98 1.56-1.98v-.01Z" style="fill:#0081c4"/><path d="M3.81 2.22h204.25c.88 0 1.6 1.08 1.6 1.96V77.9c0 .88-.71 1.96-1.6 1.96H3.81c-.88 0-1.6-1.08-1.6-1.96V4.18c0-.88.71-1.96 1.6-1.96Z" style="fill:#0080c4"/><path d="M3.89 2.26h204.09c.9 0 1.63 1.04 1.63 1.94v73.67c0 .9-.73 1.94-1.63 1.94H3.89c-.9 0-1.63-1.04-1.63-1.94V4.21c0-.9.73-1.94 1.63-1.94v-.01Z" style="fill:#007fc3"/><path d="M3.97 2.31H207.9c.92 0 1.66 1.01 1.66 1.92v73.62c0 .92-.74 1.92-1.66 1.92H3.97c-.92 0-1.66-1.01-1.66-1.92V4.23c0-.92.74-1.92 1.66-1.92Z" style="fill:#007ec3"/><path d="M4.05 2.36h203.77c.94 0 1.69.97 1.69 1.9v73.56c0 .94-.76 1.9-1.69 1.9H4.05c-.94 0-1.69-.97-1.69-1.9V4.26c0-.94.76-1.9 1.69-1.9Z" style="fill:#007dc2"/><path d="M4.12 2.4h203.63c.95 0 1.73.93 1.73 1.88V77.8c0 .95-.77 1.88-1.73 1.88H4.12c-.95 0-1.73-.93-1.73-1.88V4.28c0-.95.77-1.88 1.73-1.88Z" style="fill:#007cc2"/><path d="M4.2 2.45h203.47c.97 0 1.76.89 1.76 1.86v73.46c0 .97-.79 1.86-1.76 1.86H4.2c-.97 0-1.76-.89-1.76-1.86V4.31c0-.97.79-1.86 1.76-1.86Z" style="fill:#007bc2"/><path d="M4.28 2.49h203.31c.99 0 1.79.85 1.79 1.84v73.41c0 .99-.8 1.84-1.79 1.84H4.28c-.99 0-1.79-.85-1.79-1.84V4.33c0-.99.8-1.84 1.79-1.84Z" style="fill:#007ac2"/><rect width="206.8" height="77.01" x="2.53" y="2.54" rx="1.82" ry="1.82" style="fill:#0079c1"/><path d="M7.63 64.22h198.88v9.34H7.63z" class="bg"/><path d="M154.77 22.07c5.48-.19 6.54 2.99 6.54 2.99-.06 1.34.14 4.39 0 8.58-5.87-3.77-6.24-1.38-6.24-1.38-.2.25-.4.43-.4 1.14 0 2.83 5.15 2.56 5.15 2.56v7.86s-1.93.23-2.52.2c-3.59-.14-2.65 3.32-2.65 3.32 1.24 1.26 4.21 1.91 6.66-.34v9.5c-.84 1.14-4.81 2.64-5.58 2.64-6.27 0-8.6-5.38-8.6-11.46 0-2.47 1.34-5.5 3.22-6.84-3.12-2.05-2.67-7.24-2.75-9.29-.31-8.05 4.7-9.39 7.17-9.48M91.97 22.44v21.65c0 .88-.25 4.68 2 4.67 1.91-.01 1.77-3.57 1.78-4.67V22.44h6.86l-.04 25.06c0 6.08-3.08 11.34-8.72 11.46-5.14.11-8.6-5.56-8.6-11.46V22.44h6.72M71.05 22.44l5.45 13.22V22.44h6.83v36.08h-5.51s-4.93-13.08-5.62-14.95v14.95h-7.1V22.44h5.94M7.95 22.45h14.54v10.61h-3.87v25.47h-7.18V33.06H7.95V22.45zM111.8 22.44l3.5 14.71 3.49-14.71h8.17v36.08h-6.88V41.55l-3 16.97h-3.57s-2.67-16.93-2.81-16.97v16.97h-6.44V22.44c1.13-.04 7.52 0 7.52 0M51.03 22.07c5.48-.19 6.54 2.99 6.54 2.99-.06 1.34.14 4.39 0 8.58-5.87-3.77-6.25-1.38-6.25-1.38-.19.25-.39.43-.39 1.14 0 2.83 5.15 2.56 5.15 2.56v7.86s-1.93.23-2.51.2c-3.59-.14-2.65 3.32-2.65 3.32 1.24 1.26 4.21 1.91 6.65-.34v9.5c-.84 1.14-4.82 2.64-5.58 2.64-6.28 0-8.6-5.38-8.6-11.46 0-2.47 1.34-5.5 3.22-6.84-3.12-2.05-2.67-7.24-2.75-9.29-.31-8.05 4.7-9.39 7.17-9.48M41.92 22.44v36.08H35.2V44.99h-4.29V58.2h-6.7V22.44h6.7v12.4h4.29v-12.4h6.72zM181.55 55.48c-.12-3.26-.06-10.33-.06-10.33 1.12 1.91 3.54 4.14 5.54 4.03 1.36-.07 2.06-1.59 2.06-2.33 0-5.52-8.3-2.48-8.11-13.32.08-4.77 1.34-10.88 7.88-11.44 2.35 0 6.49 1.36 6.47 2.14v9.42c-2.46-2.79-6.5-5.1-7.17-.95-.88 5.45 9.19 5.52 8.19 16.63-.37 4.11-1.65 9.2-7.48 9.76-.59.05-4.71.14-7.3-3.61M200.88 58.52c-1.98 0-3.59-2.06-3.59-4.6s1.61-4.6 3.59-4.6 3.59 2.06 3.59 4.6-1.61 4.6-3.59 4.6M176.89 43.24c.94-1.91 2.89-3.96 2.89-9.76 0-3.9-2-11.04-7.13-11.04-.59 0-7.62-.04-10.06 0v36.08h6.75V45.73s.48 0 .83-.02c1.3.16 2.71 12.81 4.48 12.81h6.72l-4.48-15.28Zm-7.5-7.64v-3.87l1.73-.02c.59 0 1.31.87 1.3 1.57 0 0 .59 2.88-3.03 2.31M142.65 38.85a11.8 11.8 0 0 0 2.65-7.57c0-4.99-2.59-8.83-5.98-8.84-6.69-.04-10.86 0-10.86 0v36.08s9.19.27 9.78.27c3.03 0 7.58-4.23 7.7-9.04.16-6.72-1.77-9.55-3.3-10.89m-7.65 8.63v-3.86l1.72-.02c.58 0 1.31.87 1.3 1.57 0 0 .59 2.88-3.02 2.31m0-11.89v-3.87l1.72-.02c.58 0 1.31.87 1.3 1.57 0 0 .59 2.88-3.02 2.31" class="h"/><path d="M7.63 7.82h198.88v9.31H7.63z" class="bg"/></g></svg>