<svg xmlns="http://www.w3.org/2000/svg" id="b" viewBox="0 0 176.55 94.93"><defs><style>.d{fill:#fff}.f{fill:#70d44b}.g{fill:#fff200}.h{fill:#231f20}</style></defs><g id="c"><path d="M176.55 47.46c0 26.22-39.52 47.47-88.27 47.47S0 73.68 0 47.46 39.52 0 88.28 0s88.27 21.25 88.27 47.46Z" style="fill:#1a428a"/><path d="m60.76 42.97-.47-3.46c-.1-.81-.26-1.95-.5-3.42l-3.95-12.58-4.26-12.49c1.14.03 11.09.03 12.13 0 .25 2.04.33 14.85.33 14.85l1.24 10.55 1.6-12.39.11-13.34c1.23.03 10.97.03 12.13 0l-2.3 14.18-.58 10.44 3.19-13.48 2.3-10.8H93.2l-5.57 11.14-7.32 16.99-.82 3.82c-1.36-.02-2.55-.04-3.56-.04s-2.22.01-3.5.04l-.32-2.57-1.19-8.96-.16-1.66-.22-2.66-.46 2.91-.35 1.97-2.17 10.97c-1.37-.02-2.5-.04-3.4-.04-.96 0-2.09.01-3.4.04v-.01ZM91.14 43.04c.76-11.06 2.06-17.95 2.06-23.91l-.94-4.29c2.34.03 3.91.04 4.7.04l4.32-.04c-.24 3.1-1.84 8.34-1.84 8.34s-.25 8.12-.33 11.48c-.08 3.35 1.1 6.02 1.1 8.38L96.09 43l-4.94.04h-.01ZM102.24 42.27a334.68 334.68 0 0 0 1.38-21.35c.14-4.13.22-7.51.22-10.14 1.86.03 3.51.04 4.94.04.97 0 4.41.21 4.41.21l-2.2 8.46-3.9 17.9s15.57-1.91 17.43-2.02l-.46 6.91a1237.56 1237.56 0 0 0-21.82 0v-.01Z" class="h"/><path d="M115.44 33.85c.04-2.74.06-4.94.04-6.58-.03-2.45-.19-9.5-.19-9.5s-.15-5.1-.21-6.38l-.11-2.1a60.65 60.65 0 0 0 5.41-.56c1.15-.17 2.23-.3 3.24-.4 1.16-.11 2.18-.12 3.07-.01.88.11 1.72.42 2.51.94s3.03 4.18 3.36 5.45c.34 1.27.54 2.59.61 3.97.07 1.35.04 2.66-.11 3.93s-.37 2.43-.69 3.47-.71 1.95-1.17 2.72c-.46.77-1 1.45-1.61 2.02-.46.43-.92.78-1.39 1.04-.47.26-2.6 1.6-4.53 1.79l-5.86.34c-.49.05-1.25-.27-2.36-.13l-.01-.01Zm5.33-5.96c.48.02.97 0 1.49-.05a8.3 8.3 0 0 0 2.33-.55c.68-.28 1.26-.8 1.74-1.56.49-.76.83-1.7 1.02-2.83s.26-2.27.2-3.43a9.9 9.9 0 0 0-.75-3.54c-.42-.94-.95-1.57-1.59-1.89s-1.48-.43-2.55-.33c-.62.06-1.35.17-2.19.31l.29 13.88.01-.01Z" class="h"/><path d="m72.01 43.44-.37-2.99-1.19-8.96a8.8 8.8 0 0 1-.05-.51c-.06.36 0 1.06-.05 1.42l-2.04 11.04h-.75a157.04 157.04 0 0 0-6.78 0h-.43l-.53-3.86c-.1-.81-.26-1.95-.49-3.38l-3.94-12.55-4.47-13.1h.68c.58.03 3.48.03 6.09.03s5.48 0 6.01-.02h.43l.05.41c.25 2.02.33 14.08.33 14.88l.79 6.68L66.4 24l.11-13.78h.48c.63.02 3.51.03 6.08.03s5.43 0 6.02-.02h.57l-2.47 16.3L77 30l1.96-8.27 2.37-11.16h.39c1.09.02 11.46 0 11.46 0h1.42l-6.28 12.66-7.64 17.84-.51 2.38h-.71a162.98 162.98 0 0 0-7.04 0h-.43l.02-.01Zm3.92-.96 3.17.03.76-3.52 7.32-17 5.25-10.5H82.11l-2.22 10.43-3.2 13.49-.94-.13.58-10.49 2.21-13.64-5.48.01-5.62-.01-.11 12.93-1.6 12.4h-.95l-1.24-10.6c0-.12-.07-11.48-.29-14.39l-5.59.01-5.44-.01 4.05 11.87 3.97 12.66c.23 1.46.4 2.62.5 3.44l.42 3.04a173.37 173.37 0 0 1 5.99 0l2.1-10.59.34-1.96.46-2.91.95.03.22 2.66.16 1.65 1.19 8.95.27 2.16 3.08-.03.01.02Z" class="d"/><path d="m90.63 43.51.03-.5c.35-5.04.8-9.18 1.2-12.83.48-4.35.86-7.79.86-11l-1.44-4.81h.98l4.69.05 4.31-.04h.52l-.04.49c-.23 2.97-1.66 7.77-1.84 8.38-.02.75-.25 8.25-.32 11.42-.04 1.81.29 3.39.61 4.92.26 1.21.5 2.36.5 3.45v.47l-4.6-.05c-.86 0-2.62.01-4.93.04h-.51l-.02.01Zm5.45-.96 3.63.04c-.05-.88-.25-1.82-.46-2.8-.31-1.5-.67-3.21-.63-5.13.08-3.32.33-11.4.33-11.48l.02-.12s1.43-4.69 1.78-7.74l-3.8.04-4.1-.03.83 3.82c0 3.28-.38 6.75-.86 11.15-.39 3.52-.82 7.5-1.16 12.3l4.43-.04-.01-.01ZM101.72 42.74l.05-.51a369.78 369.78 0 0 0 1.59-31.46v-.47h.48c1.8.04 3.45.05 4.93.05.97 0 4.3.2 4.44.2l.57.03-2.34 9-3.76 17.25c3.03-.37 15.14-1.84 16.8-1.94l.54-.03-.52 7.87h-.45a1328.92 1328.92 0 0 0-21.81 0h-.53l.01.01Zm12.08-.97c2.99 0 6.21.01 9.82.04l.39-5.94c-3.27.31-16.71 1.96-16.86 1.97l-.66.08 4.04-18.53 2.06-7.93c-1.02-.06-3.1-.17-3.81-.17-1.35 0-2.85-.01-4.46-.04a372.92 372.92 0 0 1-1.55 30.57c3.31-.03 7.02-.04 11.03-.04v-.01Z" class="d"/><path d="M117.68 34.44c-.21 0-.42-.04-.66-.07a5.72 5.72 0 0 0-1.51-.07l-.55.07v-.54c.05-2.71.06-4.93.05-6.57-.03-2.42-.19-9.42-.19-9.49 0-.05-.15-5.1-.21-6.36l-.13-2.55.47-.03a63.3 63.3 0 0 0 5.37-.55c1.19-.17 2.26-.31 3.26-.4a14.6 14.6 0 0 1 3.17-.01c.95.12 1.87.46 2.72 1.02.93.62 3.21 4.42 3.55 5.71.35 1.3.55 2.66.62 4.06.07 1.36.04 2.7-.11 4s-.38 2.49-.71 3.55a13.36 13.36 0 0 1-1.21 2.82 9.56 9.56 0 0 1-1.69 2.12c-.48.45-.98.82-1.48 1.11l-.18.1c-.74.43-2.69 1.56-4.54 1.74l-5.88.34h-.16Zm-1.67-1.1c.46 0 .85.06 1.16.11.24.04.43.07.57.06l5.88-.34c1.62-.16 3.44-1.21 4.13-1.61l.19-.11c.44-.25.87-.57 1.3-.97.58-.54 1.09-1.19 1.53-1.92s.82-1.62 1.12-2.62c.31-1 .54-2.14.68-3.38.14-1.25.18-2.55.11-3.86a19.74 19.74 0 0 0-.59-3.88c-.32-1.24-2.55-4.77-3.17-5.18a5.14 5.14 0 0 0-2.29-.86c-.85-.1-1.85-.1-2.96.01-.98.1-2.04.23-3.22.4-1.18.17-2.1.29-2.81.36-.64.06-1.37.12-2.17.17l.09 1.65c.07 1.27.21 6.18.21 6.39 0 .07.16 7.08.19 9.51.02 1.55 0 3.6-.03 6.09h.09l-.01-.02Zm5.07-5h-.78l-.31-14.72.4-.07c.86-.15 1.6-.25 2.23-.31a5.1 5.1 0 0 1 2.82.38 4.09 4.09 0 0 1 1.8 2.11c.44.98.71 2.23.78 3.7.06 1.19 0 2.38-.21 3.53a8.05 8.05 0 0 1-1.08 3 4.33 4.33 0 0 1-1.96 1.74c-.72.3-1.55.5-2.48.59-.42.04-.83.06-1.22.06l.01-.01Zm-.13-13.95.28 13.03c.32 0 .64-.02.97-.06a7.33 7.33 0 0 0 2.19-.52c.58-.24 1.1-.71 1.52-1.38.45-.7.77-1.6.95-2.66.19-1.09.25-2.22.2-3.34a9.67 9.67 0 0 0-.7-3.38 3.27 3.27 0 0 0-1.37-1.66 4.24 4.24 0 0 0-2.28-.28c-.5.05-1.09.13-1.76.24v.01Z" class="d"/><path d="m59.78 44.63-.47-3.46c-.1-.81-.26-1.96-.5-3.42l-3.95-12.58-4.26-12.49c1.13.03 11.09.03 12.13 0 .26 2.04.33 14.85.33 14.85l1.24 10.55 1.6-12.39.11-13.34c1.23.03 10.97.03 12.13 0l-2.3 14.18-.58 10.44 3.2-13.48 2.29-10.8h11.47l-5.57 11.14-7.32 17-.82 3.81c-1.36-.03-2.55-.04-3.56-.04s-2.22 0-3.5.04l-.32-2.58-1.19-8.96-.16-1.66-.22-2.66-.46 2.91-.34 1.97-2.17 10.98c-1.37-.03-2.5-.04-3.4-.04-.96 0-2.09 0-3.4.04l-.01-.01ZM89.38 44.07c.76-11.06 2.06-17.95 2.06-23.91l-.46-4.29 4.21.04 4.32-.04c-.24 3.1-1.84 8.34-1.84 8.34s-.25 8.12-.32 11.48c-.08 3.35 1.1 6.02 1.1 8.38l-4.12-.04-4.95.04ZM100.49 43.3a334.68 334.68 0 0 0 1.38-21.35c.14-4.13.21-7.51.21-10.14 1.86.03 3.5.04 4.94.04.97 0 4.41.2 4.41.2l-2.2 8.46-3.9 17.9s15.57-1.91 17.43-2.02l-.46 6.91a1237.3 1237.3 0 0 0-21.81 0Z" class="g"/><path d="M113.69 34.88c.04-2.74.05-4.94.04-6.58-.03-2.45-.19-9.5-.19-9.5s-.15-5.1-.21-6.38l-.11-2.1c1.01-.06 1.89-.13 2.62-.2.71-.07 1.64-.19 2.78-.35 1.15-.17 2.23-.3 3.24-.4 1.16-.11 2.18-.12 3.06-.01s1.72.42 2.5.94c.79.52 3.03 4.18 3.36 5.45s.54 2.59.61 3.97c.07 1.35.03 2.66-.11 3.93s-.37 2.42-.7 3.47a12.44 12.44 0 0 1-1.17 2.72 8.95 8.95 0 0 1-3 3.06c-.47.26-2.6 1.6-4.53 1.79l-5.86.34c-.49.05-1.25-.28-2.35-.13l.02-.02Zm5.33-5.97c.48.02.97 0 1.49-.05a8.3 8.3 0 0 0 2.33-.55c.68-.28 1.26-.8 1.74-1.56s.83-1.7 1.02-2.83.26-2.28.2-3.43a9.9 9.9 0 0 0-.75-3.54 3.66 3.66 0 0 0-1.59-1.89 4.7 4.7 0 0 0-2.55-.33c-.62.06-1.35.16-2.2.31l.3 13.88.01-.01Z" class="g"/><path d="m71.02 45.1-.37-2.99-1.19-8.96-.05-.51-.19 1.09-2.25 11.37h-.4a157.04 157.04 0 0 0-6.78 0h-.43l-.53-3.86c-.1-.82-.26-1.95-.49-3.38L54.4 25.31l-4.47-13.1h.68c.59.03 3.48.03 6.09.03s5.48 0 6.01-.02h.43l.05.41c.25 2.02.32 14.08.33 14.88l.79 6.68 1.1-8.53.11-13.78H66c.63.02 3.51.03 6.08.03s5.43 0 6.02-.02h.57l-2.38 14.68-.28 5.08 1.96-8.27 2.37-11.16h.39c1.09.02 11.46 0 11.46 0h.76l-5.9 11.8-7.29 16.93-.89 4.15h-.39a162.32 162.32 0 0 0-7.04 0h-.43.01Zm3.92-.96 3.17.03.76-3.52 7.32-17 5.25-10.5H81.12L78.9 23.58l-3.2 13.49-.94-.13.58-10.49 2.21-13.64-5.48.01-5.62-.01-.11 12.93-1.6 12.4h-.95l-1.24-10.6c0-.12-.07-11.48-.28-14.39l-5.59.01-5.44-.01 4.05 11.88 3.97 12.66c.23 1.45.4 2.6.5 3.44l.42 3.04a173.37 173.37 0 0 1 5.99 0l2.1-10.59.34-1.96.46-2.9.95.03.22 2.66.16 1.65 1.19 8.95.27 2.17 3.08-.03v-.01Z" class="h"/><path d="m88.87 44.54.03-.5c.35-5.04.8-9.18 1.2-12.83.48-4.35.86-7.79.86-11l-.49-4.8h.26a283.48 283.48 0 0 0 8.77.01h.52l-.04.5c-.22 2.97-1.66 7.77-1.84 8.38-.02.75-.25 8.25-.32 11.42-.04 1.81.29 3.39.61 4.92.25 1.21.49 2.36.49 3.45v.47l-4.61-.05c-.82 0-2.53.01-4.93.04h-.52l.01-.01Zm5.46-.97 3.63.04c-.05-.88-.25-1.82-.46-2.8-.31-1.51-.67-3.21-.63-5.13.08-3.32.42-11.19.43-11.27 0 0 0-.08.11-.34.15-.39 1.59-4.68 1.94-7.73l-4.14.04-3.62-.04.35 3.82c0 3.27-.38 6.75-.86 11.15-.39 3.52-.83 7.5-1.16 12.3l4.44-.04h-.03ZM99.97 43.77l.05-.51c.34-3.7.59-6.6.74-8.87a375.26 375.26 0 0 0 .86-22.58v-.47h.48c1.79.04 3.45.05 4.93.05.97 0 4.3.2 4.44.21l.57.03-2.34 9-3.76 17.25c3.03-.37 15.14-1.84 16.79-1.94l.54-.03-.52 7.87h-.45a1260.57 1260.57 0 0 0-21.81 0h-.53l.01-.01Zm12.07-.97c3.05 0 6.35.02 9.82.04l.39-5.94c-3.27.31-16.71 1.96-16.86 1.97l-.67.08 4.04-18.53 2.06-7.94c-1.02-.06-3.11-.17-3.81-.17a241 241 0 0 1-4.47-.04 377.06 377.06 0 0 1-.85 22.18 319.9 319.9 0 0 1-.69 8.39c3.22-.03 6.93-.04 11.03-.04h.01Z" class="h"/><path d="M115.93 35.47c-.21 0-.42-.03-.67-.07a5.72 5.72 0 0 0-1.51-.07l-.55.07v-.54c.05-2.74.07-4.95.05-6.57-.02-2.42-.19-9.42-.19-9.49 0-.05-.15-5.1-.22-6.36l-.13-2.55.47-.03c.97-.06 1.85-.13 2.61-.2.71-.07 1.64-.19 2.76-.35 1.15-.17 2.25-.3 3.26-.4a14.6 14.6 0 0 1 3.17-.01c.95.12 1.87.46 2.72 1.02.92.61 3.21 4.42 3.55 5.71.34 1.3.55 2.67.62 4.06.07 1.36.03 2.7-.11 4-.15 1.3-.39 2.49-.71 3.55a13.36 13.36 0 0 1-1.21 2.82 9.85 9.85 0 0 1-1.69 2.12c-.48.45-.98.82-1.48 1.11l-.19.11c-.74.43-2.69 1.56-4.54 1.74l-5.88.34h-.14l.01-.01Zm-1.67-1.1c.46 0 .85.06 1.16.11.24.04.43.07.57.06l5.88-.34c1.62-.16 3.44-1.21 4.12-1.61l.2-.11c.44-.25.87-.57 1.3-.97a8.76 8.76 0 0 0 1.52-1.92c.44-.73.82-1.61 1.13-2.62.3-1 .53-2.14.68-3.38.14-1.25.18-2.55.11-3.86a19.74 19.74 0 0 0-.59-3.88c-.32-1.24-2.55-4.77-3.17-5.18a5.28 5.28 0 0 0-2.3-.87c-.84-.1-1.84-.1-2.95.01-1 .1-2.08.23-3.22.4a56.12 56.12 0 0 1-4.98.53l.08 1.65c.07 1.27.21 6.34.22 6.39 0 .07.17 7.08.19 9.51.02 1.53 0 3.57-.03 6.09h.1l-.02-.01Zm5.07-5h-.79l-.31-14.72.4-.07c.88-.15 1.61-.25 2.23-.31 1.15-.11 2.1.01 2.82.38a4.13 4.13 0 0 1 1.8 2.11c.45.99.7 2.2.79 3.7.06 1.19-.01 2.38-.21 3.53a8.11 8.11 0 0 1-1.08 3 4.33 4.33 0 0 1-1.96 1.74c-.72.3-1.55.5-2.48.59-.41.04-.82.06-1.21.06v-.01Zm-.14-13.96.28 13.03c.31 0 .64-.02.97-.06a7.26 7.26 0 0 0 2.19-.52 3.42 3.42 0 0 0 1.52-1.38c.45-.7.77-1.6.95-2.66.19-1.09.25-2.22.2-3.34a9.44 9.44 0 0 0-.71-3.38 3.27 3.27 0 0 0-1.37-1.66 4.24 4.24 0 0 0-2.28-.28c-.5.05-1.08.13-1.76.24l.01.01ZM83.8 57.35a14.1 14.1 0 0 0-1.58-4.13c-.71-1.19-1.53-2.06-2.47-2.6s-1.92-.82-2.94-.82c-1.59 0-3.02.59-4.28 1.76a10.85 10.85 0 0 0-2.86 4.9 24.61 24.61 0 0 0-.97 7.29c0 1.88.15 3.6.46 5.14s.82 2.94 1.55 4.2a7.1 7.1 0 0 0 2.57 2.73 6.13 6.13 0 0 0 6.22-.02c1-.57 1.87-1.48 2.59-2.72a15.44 15.44 0 0 0 1.67-4.52c.39-1.78.58-3.73.58-5.85s-.18-3.81-.52-5.36h-.02ZM76 71.58c-1.54 0-2.79-4.18-2.79-9.33s1.25-9.33 2.79-9.33 2.79 4.18 2.79 9.33-1.25 9.33-2.79 9.33ZM87.04 78.83l1.58-5.37-1.1-15.63.07-6.54-.05-3.55h3.57c.73-.01 1.77-.04 3.1-.09l5.91 17.62.82 2.59c.06-2.56 2.05-6.33 2.1-10.93.05-4.61-.3-7.69-.33-9.45 1.08.02.36.1 1 .09.31 0 4.16-.04 5.56-.09l-1.31 6.75-2.24 18.91.93 6.41c-1.13-.02-4.77-.05-6.22 0-.47-1.48-2.11-3.43-2.35-4.1l-2.32-6.47c-.76-2.12-1.46-4.14-2.1-6.08-.43-1.22-.88-2.57-1.33-4.04l-.06 10.81.02 9.1c-1.09-.01-1.93-.02-2.5 0-.48 0-1.38.03-2.72.08l-.03-.02ZM129.65 76.33s1.96-2.55 2.38-5.12 3.42-6.63 3.53-7.69c0 0-3.38.83-6.19-3.95s-2.41-10.86-2.41-10.86l4.08.48 3.69.36c.3 1.36 1.49 4.93 1.55 6.88.52 16.16 6.53-4.56 6.8-5.96v-.03h.02a302 302 0 0 0 3.9.46l3.67.35-8.48 12.09a50.64 50.64 0 0 0-2.55 3.81l-.04.2-.02.2-.04.2-.42 3.03c-.28 2.01-.57 4.23-.86 6.65l-3.56-.42c-.87-.09-5.03-.68-5.03-.68h-.02ZM112.57 49.45v2.27a734.54 734.54 0 0 1-.45 17.96 408.3 408.3 0 0 1-.44 8.69l1.35-.02 5.8-.02c2.36 0 4.57.01 6.57.04.05-1.26.14-2.31.2-2.91l-8.99.67.15-9.05.44-.03a68.5 68.5 0 0 1 4.1-.13c.75 0 1.77 0 3.04.03.05-2.45-.12-5.32-.35-6.05-.97-.02-2.8-.16-4.3-.27-.98-.08-1.83-.14-2.21-.15l-.47-.02.2-5.79.43-.03c.31-.02 1.08.02 2 .06 1.01.05 2.16.11 3.07.11.56 0 .87-.02 1.04-.05v-4.72c-.68-.09-2.18-.27-4.1-.27-1.69 0-3.26-.1-4.65-.19-.85-.05-1.66-.11-2.41-.13h-.02ZM33.56 78.2l1.64-5.4 2.32-15.99.5-10.86c2.11.03 3.77.05 4.97.05 1 0 2.53-.02 4.58-.05.15 1.35.28 2.37.38 3.07s.35 2.06.75 4.1c.4 2.03.72 3.78.97 5.26.24 1.48.61 4.02 1.1 7.61.49-2.46.94-4.58 1.35-6.35.42-1.77.93-3.79 1.54-6.04a68.06 68.06 0 0 0 1.83-7.64 281.07 281.07 0 0 0 9.55 0c-.22 5.28-.37 9.82-.44 13.62-.15 8.14 3.68 17.12 3.7 18.64-1.46-.03-6.37-.21-6.95-.21-.87 0-.99-.16-2.23-.13.09-1.41.19-3.81.33-9.11.13-5.31-.73-12.49-.76-13.63l-2.23 9.57-3.22 13.36-3.06-.05c-.71 0-3.25.05-3.25.05l-2.09-12.94s-1.53-8.96-1.65-9.94l-.43 6.51-.54 13.36-.07 3.01-3-.05c-.58 0-4.16.17-5.61.21l.02-.03Z" class="h"/><path d="M76.34 77.13a6.64 6.64 0 0 1-3.32-.91 7.63 7.63 0 0 1-2.74-2.9 14.08 14.08 0 0 1-1.6-4.34 27 27 0 0 1-.47-5.22c0-2.8.33-5.29.99-7.42a11.4 11.4 0 0 1 2.99-5.1 6.64 6.64 0 0 1 4.61-1.89c1.11 0 2.18.3 3.19.88A7.6 7.6 0 0 1 82.63 53a14.77 14.77 0 0 1 1.64 4.26c.35 1.59.53 3.42.53 5.46 0 2.15-.2 4.14-.59 5.94a15.65 15.65 0 0 1-1.72 4.65c-.76 1.3-1.69 2.28-2.76 2.89s-2.21.93-3.38.93h-.01Zm.46-26.87c-1.47 0-2.77.54-3.95 1.63a10.47 10.47 0 0 0-2.74 4.7 24.45 24.45 0 0 0-.95 7.16c0 1.84.15 3.54.45 5.05.3 1.48.8 2.85 1.5 4.06a6.7 6.7 0 0 0 2.39 2.56 5.63 5.63 0 0 0 5.73-.02 6.72 6.72 0 0 0 2.42-2.55c.7-1.19 1.24-2.67 1.62-4.39.38-1.74.57-3.67.57-5.75s-.17-3.75-.51-5.27c-.34-1.5-.86-2.85-1.53-3.99-.66-1.12-1.44-1.94-2.3-2.44s-1.77-.75-2.7-.75Zm-.81 21.78c-2.14 0-3.26-4.92-3.26-9.79s1.12-9.79 3.26-9.79 3.26 4.93 3.26 9.79-1.12 9.79-3.26 9.79Zm0-18.66c-.94 0-2.31 3.46-2.31 8.87s1.37 8.87 2.31 8.87 2.31-3.46 2.31-8.87-1.37-8.87-2.31-8.87ZM100.06 80.02l-.11-.34c-.27-.85-.97-1.89-1.53-2.73a7.92 7.92 0 0 1-.81-1.36l-2.32-6.47a224.81 224.81 0 0 1-2.51-7.3l-.05 7.84.02 9.56h-.48a72.16 72.16 0 0 0-2.49-.01c-.45 0-1.28.03-2.71.08l-.65.02 1.73-5.9-1.09-15.57.07-6.56-.05-4.01h.49c1.33.02 2.52.02 3.55 0 .73 0 1.74-.04 3.09-.09h.36l6.22 18.59c.14-.59.32-1.22.51-1.88a25.37 25.37 0 0 0 1.27-6.97c.03-3.05-.11-5.45-.22-7.2-.05-.88-.1-1.64-.11-2.24v-.42l.57.03.83.01h.48c1.09-.02 3.97-.05 5.14-.09l.6-.02-1.42 7.3-2.23 18.83 1 6.88h-.56c-.72-.02-2.33-.03-3.82-.03-1.08 0-1.89 0-2.38.02h-.36l-.03.03Zm2.75-.95c1.19 0 2.45 0 3.28.02l-.87-5.93v-.06l2.25-18.94 1.2-6.19-4.57.07h-.92l.09 1.64c.11 1.77.25 4.18.22 7.26a26.63 26.63 0 0 1-1.31 7.21c-.41 1.45-.77 2.71-.8 3.73l-.93.12-.81-2.59-5.8-17.28-2.75.08c-.92.01-1.95.02-3.09 0l.04 3.08-.07 6.53 1.1 15.7-1.42 4.84c1.05-.04 1.7-.06 2.08-.06h2.03v-8.63l.05-10.81.93-.13c.45 1.45.89 2.8 1.33 4.02.64 1.96 1.35 4 2.09 6.08l2.33 6.47c.07.21.4.69.71 1.16.53.79 1.17 1.74 1.52 2.62l2.06-.01h.03ZM138.95 77.97l-.62-.06c-1.64-.2-2.77-.34-3.55-.42-.87-.09-4.88-.66-5.05-.68l-.79-.11.47-.62s1.89-2.5 2.29-4.92c.26-1.59 1.43-3.67 2.37-5.33.36-.64.73-1.3.95-1.77-1.33-.02-3.8-.62-5.93-4.24-2.85-4.85-2.49-10.86-2.48-11.11l.03-.49.5.06 4.07.48c1.11.12 2.35.24 3.68.35l.35.03.07.33c.08.37.24.94.42 1.59.46 1.66 1.1 3.93 1.14 5.37.18 5.44.98 5.69.99 5.69s.94-.06 2.91-5.44a75.58 75.58 0 0 0 1.85-5.82l.19-.91s3.35.41 4.38.52c.68.07 1.9.16 3.64.32l1.25.1-8.56 12.36c-2 2.87-2.37 3.25-2.44 3.4l-1.06 1.46s-.71 6.66-1.01 9.19l-.06.69v-.02Zm-8.32-1.99c1.24.17 3.64.5 4.26.57.71.07 1.7.19 3.09.36.28-2.34.25-4.22.51-6.04l.4-2.94s1.86-2.56 3.73-5.25l7.35-11.11c-1.33-.13-2.29-.15-2.87-.22l-3.47-.4h-.03c-.27 1.03-1 3.56-1.9 6.01-1.97 5.37-3.07 6.06-3.81 6.06-1.21 0-1.79-1.97-1.94-6.58-.04-1.34-.66-3.55-1.11-5.16l-.35-1.3a136.66 136.66 0 0 1-6.92-.75c-.02 1.52.12 6.28 2.37 10.11 1.93 3.28 4.06 3.77 5.16 3.77.31 0 .49-.04.49-.04l.65-.15-.06.64c-.05.51-.49 1.31-1.27 2.69-.91 1.6-2.03 3.6-2.27 5.03-.31 1.9-1.4 3.76-2.03 4.7h.02ZM126.32 79.31h-.47a382.7 382.7 0 0 0-7.02-.05l-8.16.05.03-.49a423.03 423.03 0 0 0 .75-18.99c.1-4.14.15-6.79.15-8.11v-3.21h.49c.9.01 1.9.08 2.94.15 1.37.09 2.93.19 4.59.19 2.73 0 4.59.33 4.71.35l.32.06v.49c-.01.19.02 3.25.02 5.3-.02.64-.84.68-2 .68-.93 0-2.09-.06-3.11-.11l-1.47-.06-.14 4.02 1.77.13c1.61.12 3.62.28 4.46.28.16 0 .3.06.42.18.8.8.64 7.21.64 7.28v.46h-.49c-1.48-.03-2.66-.04-3.5-.04-1.08 0-2.29.04-3.6.11l-.12 7.18 9.09-.68-.07.56s-.2 1.65-.27 3.84v.45l.04-.02Zm-13.77-29.86v2.27a734.54 734.54 0 0 1-.45 17.96 408.3 408.3 0 0 1-.44 8.69l1.35-.02 5.8-.02c2.36 0 4.57.01 6.57.04.05-1.26.14-2.31.2-2.91l-8.99.67.15-9.05.44-.03a68.5 68.5 0 0 1 4.1-.13c.75 0 1.77 0 3.04.03.05-2.45-.12-5.32-.35-6.05-.97-.02-2.8-.16-4.3-.27-.98-.08-1.83-.14-2.21-.15l-.47-.02.2-5.79.43-.03c.31-.02 1.08.02 2 .06 1.01.05 2.16.11 3.07.11.56 0 .87-.02 1.04-.05v-4.72c-.68-.09-2.18-.27-4.1-.27-1.69 0-3.26-.1-4.65-.19-.85-.05-1.66-.11-2.41-.13h-.02ZM32.92 78.67l1.81-5.97 2.32-15.94.52-11.29h.46c2.04.04 3.71.05 4.96.05l4.57-.04h.43l.05.41c.15 1.35.28 2.37.37 3.06.09.68.34 2.01.75 4.07a157.39 157.39 0 0 1 1.69 10.13 171.7 171.7 0 0 1 2.34-9.68 66.03 66.03 0 0 0 1.83-7.61l.07-.39h.4c1.64.04 3.3.05 4.96.05 1.15 0 2.69-.02 4.57-.04h.5l-.02.48c-.22 5.21-.37 9.79-.44 13.61-.11 5.69 1.76 11.81 2.88 15.47.49 1.6.81 2.65.82 3.16v.48l-.49-.01c-.72-.01-2.23-.06-3.7-.11l-3.24-.09c-.41 0-.67-.03-.92-.07a7.76 7.76 0 0 0-1.29-.07h-.52l.03-.49c.11-1.74.21-4.55.33-9.1.09-3.45-.25-7.75-.5-10.57l-1.54 6.62-3.31 13.72h-.39c-1.46-.04-2.49-.05-3.05-.05-.7 0-3.21.05-3.24.05h-.42l-2.15-13.32-.98-5.79-.15 2.31-.54 13.35-.08 3.46h-.48a154.7 154.7 0 0 0-2.98-.06l-2.27.08c-1.2.05-2.56.11-3.33.12h-.65l.02.01Zm26.71-1.26c.42 0 .68.04.93.08.24.03.45.06.8.06l3.27.09 3.12.1c-.13-.56-.4-1.45-.7-2.43-1.13-3.7-3.03-9.91-2.92-15.74.08-3.7.22-8.12.42-13.14-1.66.02-3.03.04-4.08.04-1.52 0-3.06-.01-4.57-.04a54.85 54.85 0 0 1-.6 2.84c-.17.71-.55 2.16-1.17 4.45a169.54 169.54 0 0 0-2.88 12.36l-.94-.03a260.3 260.3 0 0 0-1.1-7.59c-.24-1.45-.56-3.22-.97-5.25-.41-2.08-.66-3.43-.76-4.12-.09-.63-.2-1.5-.33-2.66a252.21 252.21 0 0 1-8.66 0l-.48 10.46-2.34 16.06-1.46 4.79 2.65-.1c1.09-.05 2.03-.09 2.31-.09l2.53.04.06-2.55.54-13.36.43-6.53.95-.02c.12.97 1.63 9.84 1.65 9.93l2.02 12.54 2.84-.04c.54 0 1.42.01 2.68.04L56 64.61l2.23-9.57.94.09c0 .28.07 1 .15 1.9.25 2.72.7 7.78.6 11.75-.1 4.16-.2 6.87-.3 8.64l.01-.01Z" class="d"/><path d="M82.67 57.8a14.49 14.49 0 0 0-1.58-4.13c-.71-1.19-1.53-2.06-2.47-2.6s-1.92-.82-2.94-.82c-1.59 0-3.02.59-4.28 1.76a10.88 10.88 0 0 0-2.86 4.9 24.61 24.61 0 0 0-.97 7.29c0 1.88.15 3.6.46 5.14s.82 2.94 1.55 4.2a7.08 7.08 0 0 0 2.56 2.73 6.16 6.16 0 0 0 6.21-.02 7.1 7.1 0 0 0 2.59-2.72c.73-1.24 1.28-2.75 1.67-4.52s.58-3.73.58-5.85-.17-3.81-.52-5.36Zm-7.8 14.23c-1.54 0-2.79-4.18-2.79-9.33s1.25-9.33 2.79-9.33 2.78 4.18 2.78 9.33-1.25 9.33-2.78 9.33ZM85.29 79.87l1.57-5.37-1.1-15.63.07-6.54-.04-3.55h3.57c.73 0 1.76-.04 3.1-.09l5.91 17.62.82 2.59c.06-2.56 2.05-6.32 2.1-10.93.05-4.61-.3-7.69-.33-9.45 1.07.02.36.1 1 .09.31 0 4.16-.04 5.56-.09l-1.31 6.75-2.24 18.91.94 6.4c-1.13 0-4.78-.05-6.22 0-.47-1.48-2.11-3.43-2.35-4.1l-2.33-6.47c-.76-2.12-1.46-4.14-2.09-6.08a87.66 87.66 0 0 1-1.33-4.04l-.06 10.81.02 9.1c-1.09-.01-1.92-.02-2.5 0-.48 0-1.38.03-2.72.08l-.04-.01ZM141.29 51.15l3.9.46 3.67.35-8.49 12.1a44.86 44.86 0 0 0-2.54 3.81l-.04.2-.06.4-.42 3.03c-.28 2.01-.57 4.23-.86 6.65l-3.56-.42c-.87-.09-5.04-.68-5.04-.68s1.96-2.55 2.38-5.12 3.42-6.63 3.53-7.7c0 0-3.38.83-6.19-3.95s-2.42-10.86-2.42-10.86a170.04 170.04 0 0 0 7.77.83c.3 1.36 1.48 4.93 1.55 6.88.51 16.03 6.63-4.21 6.79-5.92v-.06h.03ZM109.4 79.83a472.36 472.36 0 0 0 .76-18.99c.1-4.09.15-6.79.15-8.13v-2.74c2.09.03 4.62.34 7.55.34 2.72 0 4.59.34 4.59.34v5.4c-.01.49-5.61 0-6.56.05l-.17 4.92c1.03.04 5.35.44 6.73.44.5 0 .66 4.47.58 6.98-1.51-.03-2.69-.04-3.51-.04-1.21 0-2.57.04-4.07.13l-.13 8.11 9.04-.67s-.2 1.64-.27 3.88a509.5 509.5 0 0 0-7.03-.04l-5.79.02-1.86.02-.01-.02ZM31.81 79.23l1.64-5.4 2.32-15.99.5-10.86c2.11.03 3.77.05 4.97.05 1 0 2.53-.02 4.58-.05.15 1.35.28 2.37.38 3.07s.35 2.06.75 4.09a164.56 164.56 0 0 1 2.07 12.88 156.5 156.5 0 0 1 2.89-12.39c.61-2.26 1-3.74 1.17-4.43.17-.7.39-1.77.67-3.21a281.07 281.07 0 0 0 9.55 0c-.22 5.28-.37 9.82-.44 13.62-.15 8.14 3.68 17.12 3.7 18.64-1.46-.03-6.37-.21-6.95-.21-.87 0-.99-.16-2.23-.13.09-1.41.19-3.81.33-9.11.13-5.31-.72-12.49-.76-13.64l-2.23 9.57-3.22 13.36-3.06-.05c-.71 0-3.24.05-3.24.05l-2.09-12.94s-1.53-8.96-1.65-9.94l-.43 6.52-.54 13.35-.07 3.01-2.99-.05c-.58 0-4.16.17-5.61.21l-.01-.02Z" class="f"/><path d="M75.22 77.58c-1.15 0-2.27-.3-3.33-.91s-1.98-1.58-2.74-2.9a14.25 14.25 0 0 1-1.6-4.34 27.03 27.03 0 0 1-.47-5.23c0-2.8.33-5.29.99-7.42a11.49 11.49 0 0 1 2.99-5.1 6.6 6.6 0 0 1 4.61-1.89c1.1 0 2.18.3 3.19.88a7.5 7.5 0 0 1 2.63 2.77 14.31 14.31 0 0 1 1.63 4.26c.35 1.58.53 3.41.53 5.46s-.2 4.14-.59 5.94a15.72 15.72 0 0 1-1.72 4.66 7.8 7.8 0 0 1-2.77 2.89 6.67 6.67 0 0 1-3.38.92l.03.01Zm.46-26.86c-1.47 0-2.77.53-3.95 1.64a10.56 10.56 0 0 0-2.74 4.7 24.42 24.42 0 0 0-.95 7.15c0 1.85.15 3.55.45 5.05.29 1.48.8 2.85 1.49 4.06a6.7 6.7 0 0 0 2.39 2.56 5.63 5.63 0 0 0 5.73-.02 6.79 6.79 0 0 0 2.42-2.55c.7-1.19 1.24-2.67 1.62-4.39.38-1.74.57-3.67.57-5.75s-.17-3.75-.51-5.26a13.77 13.77 0 0 0-1.53-4c-.66-1.12-1.44-1.94-2.3-2.44s-1.77-.75-2.7-.75h.01Zm-.81 21.78c-2.14 0-3.26-4.93-3.26-9.79s1.12-9.79 3.26-9.79 3.26 4.93 3.26 9.79-1.12 9.79-3.26 9.79Zm0-18.66c-.94 0-2.31 3.45-2.31 8.87s1.37 8.87 2.31 8.87 2.31-3.46 2.31-8.87-1.37-8.87-2.31-8.87ZM98.31 81.05l-.11-.34c-.27-.84-.97-1.88-1.53-2.72-.39-.59-.71-1.05-.82-1.37l-2.32-6.46c-.74-2.06-1.45-4.12-2.1-6.1l-.42-1.2-.05 7.84.02 9.56h-.48a77.74 77.74 0 0 0-2.49-.02c-.46 0-1.34.04-2.71.08l-.65.02 1.73-5.9-1.09-15.57.07-6.55-.05-4.01h.49c1.33.02 2.52.01 3.55 0 .73 0 1.74-.04 3.09-.09h.36l6.22 18.59.51-1.89c.58-2.05 1.24-4.36 1.27-6.97.03-3.05-.11-5.45-.22-7.2-.05-.88-.1-1.64-.11-2.24v-.39l.47.02h1.13c3.41-.04 4.83-.07 5.41-.09l.6-.02-1.42 7.3-2.24 18.83 1.01 6.88h-.56a303.2 303.2 0 0 0-6.2-.01h-.36v.02Zm2.66-.94 3.36.02-.86-5.93v-.06l2.26-18.94 1.2-6.19c-1 .02-2.65.05-4.84.07h-.65l.09 1.65c.11 1.76.25 4.18.22 7.26a26.63 26.63 0 0 1-1.31 7.21c-.41 1.46-.77 2.71-.8 3.73l-.93.13-.82-2.59-5.8-17.28-2.75.08c-.92.01-1.95.02-3.09 0l.04 3.08-.07 6.53 1.1 15.7-1.42 4.83 2.08-.06h2.03l-.02-8.63.06-10.81.93-.13c.44 1.43.88 2.78 1.32 4.02.65 1.98 1.36 4.02 2.09 6.08l2.33 6.47c.07.21.4.69.71 1.16a14.9 14.9 0 0 1 1.52 2.62l1.98-.01.04-.01ZM136.85 78.66l-.48-.06-3.55-.42c-.87-.09-4.88-.66-5.05-.69l-.79-.11.48-.62s1.89-2.49 2.29-4.92c.26-1.59 1.43-3.67 2.37-5.34.36-.64.73-1.3.95-1.77-1.33-.02-3.8-.62-5.93-4.24-2.85-4.85-2.5-10.86-2.48-11.11l.03-.49.5.06a222.98 222.98 0 0 0 7.75.83l.35.03.08.33c.08.38.24.94.42 1.6.46 1.66 1.09 3.92 1.14 5.37.18 5.44.98 5.69.98 5.69.01 0 .94-.06 2.91-5.44a80.39 80.39 0 0 0 1.85-5.82l.19-.91.69.09a247.11 247.11 0 0 0 7.34.78l1.21.1-9.35 12.71c-2 2.87-2.4 3.53-2.47 3.68l-.03.14-.03.22-.04.2-.42 3c-.28 1.98-.56 4.15-.86 6.64l-.06.46.01.01Zm-8.19-1.97c1.24.17 3.64.51 4.26.58.69.07 1.66.19 3.09.36.28-2.3.54-4.34.81-6.2l.53-3.64c.02-.16.19-.49 2.62-3.99L148 52.35c-1.24-.11-2.24-.21-2.87-.28l-3.47-.41h-.04c-.58 2.21-3.35 12.06-5.7 12.06-1.21 0-1.79-1.97-1.94-6.58-.04-1.34-.65-3.54-1.1-5.15-.14-.5-.27-.95-.35-1.31-1.25-.11-2.38-.22-3.36-.33s-2.17-.24-3.57-.42c-.02 1.52.12 6.28 2.37 10.11 1.93 3.28 4.07 3.77 5.17 3.77.3 0 .49-.04.49-.04s.34-.07.46-.11.19.11.13.6c-.07.58-.49 1.31-1.27 2.68-.9 1.6-2.03 3.6-2.27 5.04a12.8 12.8 0 0 1-2.03 4.69l.01.02ZM124.55 80.3h-.47c-2.18-.03-4.55-.05-7.02-.05l-8.16.05.03-.5a435.57 435.57 0 0 0 .75-18.98c.1-4.02.15-6.75.15-8.11l.02-3.21h.48c.9.02 1.89.09 2.94.15 1.38.09 2.93.19 4.59.19 2.74 0 4.6.33 4.68.35l.42.08-.04.42v5.36c-.02.63-.84.68-2 .68-.92 0-2.08-.06-3.11-.11l-1.47-.06-.14 4.02 1.73.13c1.63.13 3.65.28 4.5.28.16 0 .3.06.42.18.8.79.64 7.21.64 7.28l-.02.46H123a68.5 68.5 0 0 0-7.09.06l-.12 7.18 9.09-.68-.07.56s-.2 1.65-.27 3.84l-.02.45.03-.02Zm-7.5-.97c2.31 0 4.51 0 6.58.03.05-1.26.14-2.3.2-2.91l-8.99.67.15-9.05.44-.03a69 69 0 0 1 4.1-.13c.71 0 1.68 0 3.05.03.05-2.45-.12-5.32-.35-6.05-.98-.02-2.83-.17-4.34-.28l-2.17-.16-.47-.02.2-5.79.43-.03c.31-.02 1.08.02 2.01.06 1.01.05 2.16.1 3.06.1.56 0 .87-.02 1.04-.04v-4.72c-.68-.1-2.18-.27-4.11-.27-1.69 0-3.26-.1-4.65-.19-.85-.06-1.66-.11-2.41-.13v2.27a947.63 947.63 0 0 1-.45 17.96c-.09 2.32-.23 5.17-.44 8.69h1.35l5.8-.03-.03.02ZM31.17 79.7l1.81-5.97 2.32-15.94.52-11.29h.46a253.77 253.77 0 0 0 9.53 0h.43l.05.41c.16 1.42.28 2.4.38 3.06.1.69.34 2.02.75 4.07a150.65 150.65 0 0 1 1.69 10.12 146.72 146.72 0 0 1 2.34-9.68 66.03 66.03 0 0 0 1.83-7.61l.07-.38h.41a205.05 205.05 0 0 0 9.53 0h.5l-.02.48c-.22 5.27-.37 9.85-.44 13.6-.11 5.69 1.76 11.82 2.88 15.47.49 1.59.81 2.65.81 3.15v.48h-.49c-.7-.01-2.18-.07-3.61-.11l-3.33-.1c-.41 0-.67-.04-.93-.07a7.76 7.76 0 0 0-1.29-.07h-.52l.03-.49c.11-1.73.21-4.53.33-9.1.09-3.45-.25-7.75-.5-10.57l-1.54 6.62-3.31 13.72h-.39c-1.47-.04-2.5-.05-3.05-.05l-3.24.04h-.42l-2.15-13.32-.98-5.79-.15 2.32-.54 13.34-.08 3.46h-.48a130.2 130.2 0 0 0-2.98-.05l-2.31.08a244 244 0 0 1-3.29.12h-.65l.02.05Zm26.71-1.26c.42 0 .68.04.92.08.24.03.45.06.8.06l3.36.1 3.03.09c-.13-.56-.4-1.45-.7-2.42-1.13-3.71-3.03-9.91-2.92-15.75.07-3.65.22-8.06.42-13.14-1.67.02-3.05.04-4.08.04-1.52 0-3.05-.01-4.57-.04a54.85 54.85 0 0 1-.6 2.84c-.17.72-.58 2.26-1.17 4.45a159.25 159.25 0 0 0-2.88 12.36l-.94-.03c-.48-3.55-.85-6.1-1.09-7.6-.25-1.48-.57-3.25-.97-5.25a94.37 94.37 0 0 1-.76-4.12c-.09-.6-.19-1.45-.33-2.66a254.14 254.14 0 0 1-8.66 0l-.48 10.46-2.34 16.06-1.45 4.79 2.62-.1 2.35-.08 2.53.04.06-2.55.54-13.36.43-6.52.95-.03c.12.97 1.63 9.84 1.65 9.92l2.02 12.54 2.84-.04c.54 0 1.4.01 2.68.04l3.13-12.99 2.23-9.57.94.09c0 .28.07.95.15 1.89.25 2.72.7 7.79.6 11.77-.11 4.17-.2 6.88-.3 8.64l-.01-.01Z" class="h"/><path d="m47.63 25.64 1.04 2.04 2.33.33-1.69 1.59.4 2.24-2.08-1.06-2.09 1.06.4-2.24-1.68-1.59 2.32-.33 1.05-2.04zM35.59 27.99l1.6 3.13 3.57.5-2.59 2.43.61 3.45-3.19-1.63-3.2 1.63.62-3.45-2.59-2.43 3.57-.5 1.6-3.13zM26.98 47.15l2.51 4.9 5.59.79-4.05 3.81.96 5.39-5.01-2.54-4.99 2.54.95-5.39-4.04-3.81 5.59-.79 2.49-4.9zM143.47 28.44l2.5 4.9 5.59.78-4.05 3.82.95 5.38-4.99-2.54-5.01 2.54.96-5.38-4.04-3.82 5.59-.78 2.5-4.9z" class="d"/><path d="m49.98 32.21-2.36-1.2-2.36 1.2.45-2.54-1.91-1.8 2.64-.37 1.18-2.31 1.18 2.31 2.64.37-1.91 1.8.45 2.54Zm-2.36-1.65 1.81.92-.35-1.94 1.46-1.38-2.02-.28-.9-1.77-.9 1.77-2.02.28 1.46 1.38-.34 1.94 1.81-.92h-.01ZM39.06 37.86l-3.47-1.76-3.47 1.76.66-3.74-2.81-2.65 3.88-.55 1.74-3.4 1.74 3.4 3.88.55-2.81 2.65.66 3.74Zm-3.47-2.22 2.92 1.48-.56-3.14 2.36-2.23-3.26-.46-1.46-2.86-1.46 2.86-3.26.46 2.36 2.23-.56 3.14 2.92-1.48ZM32.26 62.41l-5.28-2.68-5.28 2.68 1.01-5.68-4.27-4.02 5.9-.83 2.64-5.17 2.64 5.17 5.9.83-4.27 4.02 1.01 5.68Zm-5.28-3.14 4.72 2.4-.9-5.09 3.82-3.6-5.28-.74-2.36-4.63-2.36 4.63-5.28.74 3.82 3.6-.9 5.09 4.72-2.4ZM138.19 43.69l1.01-5.68-4.27-4.02 5.9-.83 2.64-5.17 2.63 5.17 5.9.83-4.27 4.02 1 5.68-5.27-2.68-5.28 2.68h.01Zm5.28-3.14 4.72 2.4-.9-5.09 3.82-3.6-5.28-.74-2.36-4.63-2.36 4.63-5.28.74 3.82 3.6-.9 5.09 4.72-2.4Z" class="h"/></g></svg>