<svg xmlns="http://www.w3.org/2000/svg" viewBox="0 0 604.97 354.91"><defs><style>.cls-1{fill:#dc5196}</style></defs><g id="Layer_2" data-name="Layer 2"><g id="Layer_1-2" data-name="Layer 1"><path class="cls-1" d="M350.61 125.43c-16.94 10.18-33.75 20.56-50.89 30.4-6.11 3.51-12.93 5.84-19.56 8.38-1.64.63-3.76 0-5.66-.05.22-1.88 0-4 .75-5.6a147.44 147.44 0 0 1 8.14-14.66c4.76-7.38 10-14.47 14.83-21.79a33 33 0 0 0 3.72-7.47 3.77 3.77 0 0 0-4-4.94 14 14 0 0 0-5.12 1.57c-5.34 2.73-9 7.38-12.67 11.88-7.89 9.61-15.55 19.4-23.55 28.91-4.6 5.44-9.6 10.61-15.87 14.14a18.92 18.92 0 0 1-6.57 2.25c-4.17.54-7.09-2.22-7-6.4a17.89 17.89 0 0 1 1.09-6c5.73-14.68 15.77-25.7 29.35-33.47 4.89-2.8 10.18-4.25 15.92-2.36a3.15 3.15 0 0 0 4.14-2.21 3.36 3.36 0 0 0-2.08-4.24 11.09 11.09 0 0 0-1.51-.49c-6.45-1.73-12.47-.15-18.25 2.62-9.62 4.63-17.3 11.66-23.87 19.94-5.65 7.13-10.33 14.76-11.7 24-.1.62-.92 1.31-1.57 1.66-26.34 14.49-53 28.38-80.32 40.89-23.7 10.85-47.66 21-73 27.6-10.94 2.83-22 5.13-33.44 3.85-6.36-.71-12.17-2.64-16-8.32a53.48 53.48 0 0 1-7.29-16.3c-3.51-13.54-2.16-26.91 1.63-40.14 5.4-18.87 14.9-35.71 26.23-51.56 20.86-29.19 46.42-53.71 75.2-75 16.25-12 33.31-22.65 52.25-30 8.93-3.47 18.07-6.09 27.81-5.91 10.13.2 17.12 5.05 20.06 14.06a25.84 25.84 0 0 1 0 15c-2.46 9.18-7.39 17-13.35 24.29-1.71 2.08-1.7 4-.08 5.41s3.66 1 5.35-1A75.82 75.82 0 0 0 217 42.83a39.87 39.87 0 0 0 2.86-18c-.73-8.8-6.73-20.43-19.07-23.51C191.6-1 182.58 0 173.6 2.25 158.38 6.06 144.52 13 131.24 21.13a357.29 357.29 0 0 0-68.16 54.55c-15.53 15.76-29.52 32.76-41 51.71C11 145.61 2.39 164.78.36 186.32c-1.35 14.38 1 28 8.39 40.69a25.72 25.72 0 0 0 17.86 12.79c10 2.1 19.92 1 29.8-.77 16.14-3 31.62-8.21 46.89-14.1 33.6-13 65.74-29.08 97.53-45.9 6.81-3.61 13.58-7.31 20.44-11 3.59 6.15 9 8.4 15.65 7a20.4 20.4 0 0 0 8.08-3.43c5.15-3.94 10.39-8 14.69-12.77 7.87-8.8 15.08-18.19 22.57-27.33 1.09-1.34 2.2-2.66 3.3-4a5.05 5.05 0 0 1-1 2.31c-4.18 6.49-8.63 12.83-12.46 19.52a44.87 44.87 0 0 0-4.59 12c-1.37 5.87 2.4 10.08 8.44 10.18a10.85 10.85 0 0 0 3.38-.28c5-1.55 10.07-2.85 14.82-4.94 14.1-6.21 27.15-14.37 40.22-22.46 7.08-4.38 14.09-8.86 21.28-13.39 5.43 6.31 11.75 11.82 15.46 19.57-1.34.73-2.49 1.3-3.59 1.94-8.38 4.86-16.89 9.51-25.07 14.69a40.62 40.62 0 0 0-9.36 8.49c-3.94 4.81-2.54 10 3.26 12.27a37.29 37.29 0 0 0 11.42 2.6c11.41.55 20.86-3.34 26.85-13.6a36.84 36.84 0 0 0 4.89-20.48 3.06 3.06 0 0 1 2-3.44c6.39-3.12 12.71-6.4 19.05-9.63 2.49-1.27 5-2.58 7.43-3.87a5.88 5.88 0 0 1-.95 2.25q-9.31 15.07-18.63 30.15c-1.23 2-.94 4 .58 5.09s3.34.75 4.9-.78c4-3.87 7.85-7.8 11.89-11.58 15.18-14.21 31.07-27.55 48.68-38.71 9.82-6.21 20-11.74 31.4-14.51 2.89-.7 5.87-1 8.81-1.48l.47.82c-2.27 2.69-4.43 5.47-6.83 8-7.51 8-15.21 15.86-22.62 24-4.1 4.47-7.8 9.31-9.72 15.22-2.89 8.88 3.49 16.14 12.51 13.72a106.41 106.41 0 0 0 18.66-7c24-11.63 47.8-23.56 71.67-35.4 2.17-1.08 2.95-3 2.06-4.85s-2.86-2.43-5.08-1.35c-10.26 5-20.48 10.17-30.75 15.19-16.39 8-32.77 16-49.22 23.9a45.24 45.24 0 0 1-9.68 3.13c-2.73.6-4.61-1.55-3.87-4.25a16.81 16.81 0 0 1 2.45-5.55 167.77 167.77 0 0 1 10.52-13.09c6.89-7.55 14.15-14.77 21.07-22.3a31.58 31.58 0 0 0 5.2-7.66c2.23-4.64-.2-8.62-5.31-9a30.08 30.08 0 0 0-6.77.27c-10.27 1.49-19.62 5.58-28.64 10.48-18.15 9.87-34.24 22.6-49.71 36.16-.57.5-1.16 1-1.75 1.45 3.95-6.94 8.17-13.58 12.43-20.2a8.9 8.9 0 0 1 1.58-1.61c9.2-8.57 18.71-16.82 27.53-25.76 12.77-12.93 23.95-27.2 32.56-43.27a122 122 0 0 0 7.4-17.74c1.34-3.88.23-6.56-2-7.71s-4.77-.46-7.57 2.58c-4.76 5.19-9.59 10.35-14 15.85-17.34 21.78-32.69 45-47.77 68.33a18.15 18.15 0 0 1-6.93 6.63q-17.2 9-34.38 18a1.92 1.92 0 0 1-.71.18c-2.61-3.63-4.95-7.16-7.6-10.46s-5.58-6.31-8.55-9.63a20.52 20.52 0 0 0 1.71-1.45 28.16 28.16 0 0 0 7.95-16.71c.6-6-3.75-9.24-9.25-6.87a23.39 23.39 0 0 0-10.61 8.62 13 13 0 0 0-2 6.76c0 2.69 1.1 5.37 1.78 8.32.16-.11-.04.12-.29.27Zm-8 49.37c5.73-3.81 11.57-7.45 17.48-11 4-2.39 8.19-4.48 12.38-6.74 1.12 8.34-4.19 19.26-11.1 23.19s-18.43 4-24-.4c1.86-1.79 3.35-3.76 5.28-5.05Zm95.13-67.47c2.59-7 38.73-56.1 44.64-60.49C472 70.07 456 89.18 437.78 107.33Zm-80.5 6.06a33.2 33.2 0 0 1 6.66-5.27 20.76 20.76 0 0 1-6.47 12.76c-2.12-2.88-2.3-5.2-.15-7.49ZM473 280.64A74.77 74.77 0 0 1 409.24 354c-34.71 5.26-67.75-12.18-81.75-43.42-14.91-33.25-4-75.34 33.38-94.39 26-13.22 52-12.87 77.35 2.34A69.92 69.92 0 0 1 455 233.07c1.19 1.38 1.64 2.77.3 4.22-1.09 1.18-2.86.81-4.27-.8-11.68-13.41-26.26-21.47-43.92-23.79-33.21-4.35-69.58 15.47-78.68 51.19a68.6 68.6 0 0 0 33 76.49 71.81 71.81 0 0 0 85.68-10.86c20.87-20.22 26.38-52.69 13.4-79.06-.84-1.7-1.75-3.36-2.63-5-1.1-2.06-.91-3.48.64-4.27 1.89-1 3 .09 3.86 1.62a75.26 75.26 0 0 1 9.05 24.35c.72 4.43 1.01 8.97 1.57 13.48Z"/><path class="cls-1" d="M196.88 281.76V222c0-7.59 3.86-11.51 11.45-11.52 17.51 0 35-.15 52.54 0 13.2.14 25.27 3.7 35.11 13.06 5.48 5.21 8.43 11.76 10 19 2.4 10.9 2.06 21.65-2 32.15-1.19 3.08-2.46 4-4.28 3.13s-1.7-2-.6-5.11c4.27-12.15 4.87-24.37-.58-36.28-5-11-14.43-16.65-25.78-19.3a56.3 56.3 0 0 0-12.14-1.4c-17.44-.15-34.88-.06-52.32-.06-4.55 0-6.18 1.62-6.18 6.13v120.05c0 4.26 1.64 5.92 5.87 5.94h13.43c4.56 0 6.21-1.63 6.21-6.13v-36.84c0-.86.07-2.06.61-2.5a3.24 3.24 0 0 1 2.81-.65 3.45 3.45 0 0 1 1.54 2.58c.13 7 .07 13.95.07 20.92v17.74a9.76 9.76 0 0 1-10 10.1c-5.08.05-10.16 0-15.24 0-6.36 0-10.52-4.14-10.55-10.54v-25.24ZM494.31 281.75v-60c0-7.13 3.92-11.24 11-11.27 17.82-.06 35.63-.2 53.45 0 13 .18 24.94 3.81 34.66 13 5.73 5.44 8.71 12.33 10.23 19.87 2.09 10.35 1.78 20.63-2 30.64-.29.78-.65 1.54-1 2.3a2.43 2.43 0 0 1-3.53 1.42c-1.56-.72-1.73-2-1.21-3.65 1.14-3.59 2.55-7.17 3.09-10.87 1.6-11 1-21.68-5.52-31.21-6.15-9-15.18-13.45-25.57-15.42a59.86 59.86 0 0 0-10.61-.92c-17.22-.09-34.43 0-51.64 0-4.53 0-6.11 1.6-6.11 6.16v119.85c0 4.63 1.49 6.13 6.09 6.14h13.42c4.2 0 6-1.75 6-5.94v-36.83a4.28 4.28 0 0 1 .8-2.88 3.11 3.11 0 0 1 2.85-.38 3.28 3.28 0 0 1 1.32 2.53c.1 8.19.06 16.37.06 24.56v14.32a9.73 9.73 0 0 1-9.59 9.82q-8.3.17-16.6 0c-5.67-.12-9.65-4.63-9.66-10.76q.06-30.23.07-60.48ZM443.34 281.65c0 22.19-17.25 42-39.24 45-29.07 4-53.87-17.93-53.43-47.28a45.15 45.15 0 0 1 39.88-44.16c18.31-2.1 33.15 4.17 43.92 19.4.26.37.72.79.69 1.14-.1 1.17 0 2.65-.69 3.39-1.06 1.18-2.53.75-3.54-.48-1.2-1.47-2.33-3-3.5-4.47-14.21-17.88-41.7-19.6-59.27-2.57-12.09 11.73-15.31 26.12-10.2 41.93s16.6 24.91 32.77 27.61c22.88 3.82 42.9-10.7 46.91-33.53a39.37 39.37 0 0 0-1.42-18.84c-.2-.65-.46-1.28-.65-1.94-.45-1.58-.17-2.91 1.57-3.45s2.79.15 3.36 1.78a45.78 45.78 0 0 1 2.84 16.47Z"/><path class="cls-1" d="M227.16 266.4v-21.14c0-5.57 3.42-9.89 8.93-10.18a147.26 147.26 0 0 1 22 .06c11.83 1.17 18.24 9.79 17.05 21.72-.92 9.21-5.66 15.34-13.63 17.22a36.18 36.18 0 0 1-7.44.61c-4.4.09-8.8 0-13.2 0-2.33 0-3.51-.92-3.5-2.62s1.21-2.65 3.5-2.66h15.69c7.25 0 12.47-4.46 13.22-11.68a25 25 0 0 0-.49-8.32 12.51 12.51 0 0 0-11.93-9.22c-6.74-.14-13.49-.08-20.24 0a4.56 4.56 0 0 0-4.73 4 14.53 14.53 0 0 0-.19 2.72v39.1c0 5.39 1.51 6.89 6.89 6.89 9.55 0 19.1.2 28.65-.05A36.21 36.21 0 0 0 291.3 284c1.39-1.22 2.78-1.62 4.19-.19 1.24 1.26.93 2.7-.89 4.24a41.94 41.94 0 0 1-27.61 10c-9.93.08-19.87 0-29.8 0a9.71 9.71 0 0 1-10-10.05c-.05-7.2-.03-14.4-.03-21.6ZM524.64 266.47V245.1c0-5.43 3.42-9.74 8.82-10a149.66 149.66 0 0 1 22.71.16c11.06 1.16 17.26 9.49 16.53 20.64-.51 7.75-3.41 14-10.88 17.2a21.11 21.11 0 0 1-7.25 1.56c-5.38.22-10.77.05-16.15.08-1.86 0-3.39-.4-3.59-2.56-.16-1.72 1.23-2.74 3.64-2.74h15c7.88 0 12.64-4.06 13.85-11.8 1.38-8.81-2.91-15.74-10.82-17.22a33 33 0 0 0-5.89-.24h-15.47c-3.49 0-5.37 1.85-5.37 5.31v42.29c0 3.12 1.85 5.12 4.85 5.14 10.31.05 20.63.25 30.93 0a36 36 0 0 0 23.12-8.79c1.72-1.48 3.36-1.54 4.33-.16 1.25 1.78.36 3.07-1.07 4.27a42.27 42.27 0 0 1-27.44 9.88c-9.93.08-19.86 0-29.79 0-6 0-10.06-4.15-10.08-10.21 0-7.19.02-14.31.02-21.44Z"/></g></g></svg>