<svg xmlns="http://www.w3.org/2000/svg" viewBox="0 0 285.972 149.003"><defs><style>.a{fill:#0033a1}.b{fill:#f58041}.c{fill:#3dae2b}</style></defs><path class="a" d="M14.722 33.518a3.143 3.143 0 0 0 2.091.972c.741 0 1.28-.407 1.28-1.069 0-.6-.391-.932-1.627-1.442-1.487-.607-2.115-1.337-2.115-2.386a2.5 2.5 0 0 1 2.654-2.443 3.336 3.336 0 0 1 2.294.9l-.736 1.133a2.61 2.61 0 0 0-1.577-.591 1.017 1.017 0 0 0-1.147.961c0 .468.36.8 1.418 1.218 1.558.619 2.492 1.266 2.492 2.608a2.567 2.567 0 0 1-2.877 2.573 3.8 3.8 0 0 1-2.986-1.343ZM24.428 27.15a4.246 4.246 0 0 1 4.112 4.4 4.246 4.246 0 0 1-4.112 4.4 4.246 4.246 0 0 1-4.113-4.4 4.246 4.246 0 0 1 4.113-4.4Zm0 7.278a2.606 2.606 0 0 0 2.472-2.875 2.5 2.5 0 1 0-4.943 0 2.606 2.606 0 0 0 2.471 2.875ZM30.98 27.3v5.03c0 1.46.459 2.067 1.556 2.067s1.558-.607 1.558-2.067V27.3h1.522v5.473c0 2.1-1.044 3.179-3.08 3.179s-3.079-1.075-3.079-3.179V27.3ZM36.457 28.709V27.3h5.733v1.405h-2.1v7.082h-1.528v-7.078ZM42.96 35.791V27.3h1.522v3.538h3.174V27.3h1.522v8.492h-1.522v-3.56h-3.174v3.56ZM52.831 31.553a4.293 4.293 0 0 1 4.354-4.4 4.432 4.432 0 0 1 2.595.807l-.736 1.3a2.924 2.924 0 0 0-1.76-.545 2.844 2.844 0 0 0 0 5.688 2.925 2.925 0 0 0 1.76-.546l.736 1.3a4.432 4.432 0 0 1-2.595.808 4.293 4.293 0 0 1-4.354-4.412ZM63.678 27.3h1.4l3.277 8.487h-1.637l-.722-2h-3.232l-.722 2H60.4Zm1.8 5.092-1.098-2.948-1.092 2.956ZM71.982 27.3a2.471 2.471 0 0 1 2.728 2.571 2.349 2.349 0 0 1-1.888 2.465l2.7 3.451h-1.929l-2.377-3.227h-.43v3.231h-1.522V27.3Zm-1.2 3.884h.731c.91 0 1.6-.4 1.6-1.313s-.687-1.3-1.6-1.3h-.731ZM79.709 27.15a4.246 4.246 0 0 1 4.112 4.4 4.122 4.122 0 1 1-8.224 0 4.246 4.246 0 0 1 4.112-4.4Zm0 7.278a2.606 2.606 0 0 0 2.471-2.875 2.5 2.5 0 1 0-4.942 0 2.605 2.605 0 0 0 2.471 2.875ZM84.837 35.791V27.3h1.523v7.1h2.99v1.394ZM90.121 35.791V27.3h1.522v8.487ZM93.051 35.791V27.3h1.522l3.588 5.843V27.3h1.522v8.487h-1.522l-3.588-5.839v5.839ZM103.429 27.3h1.4l3.277 8.487h-1.641l-.722-2h-3.232l-.722 2h-1.641Zm1.8 5.092-1.093-2.952-1.097 2.96ZM111.421 35.791V27.3h4.5v1.4h-2.975v2.14h2.854v1.394h-2.857V34.4h2.975v1.394ZM116.868 35.791V27.3h2.2a4.246 4.246 0 0 1 0 8.487Zm1.522-7.068v5.648h.514a2.83 2.83 0 0 0 0-5.648ZM125.627 27.3v5.03c0 1.46.459 2.067 1.556 2.067s1.558-.607 1.558-2.067V27.3h1.522v5.473c0 2.1-1.043 3.179-3.08 3.179s-3.079-1.075-3.079-3.179V27.3ZM131.193 31.553a4.294 4.294 0 0 1 4.355-4.4 4.432 4.432 0 0 1 2.595.807l-.737 1.3a2.92 2.92 0 0 0-1.76-.545 2.844 2.844 0 0 0 0 5.688 2.92 2.92 0 0 0 1.76-.546l.737 1.3a4.432 4.432 0 0 1-2.595.808 4.294 4.294 0 0 1-4.355-4.412ZM141.825 27.3h1.4l3.277 8.487h-1.641l-.721-2h-3.23l-.721 2h-1.641Zm1.794 5.092-1.092-2.952-1.093 2.96ZM146.082 28.709V27.3h5.734v1.405h-2.106v7.082h-1.522v-7.078ZM152.8 35.791V27.3h1.522v8.487ZM159.681 27.15a4.246 4.246 0 0 1 4.112 4.4 4.122 4.122 0 1 1-8.224 0 4.246 4.246 0 0 1 4.112-4.4Zm0 7.278a2.605 2.605 0 0 0 2.471-2.875 2.5 2.5 0 1 0-4.942 0 2.606 2.606 0 0 0 2.471 2.875ZM164.81 35.791V27.3h1.522l3.588 5.843V27.3h1.522v8.487h-1.522l-3.588-5.839v5.839ZM175.682 35.791V27.3h1.518v7.1h3v1.394ZM184.7 27.15a4.246 4.246 0 0 1 4.112 4.4 4.122 4.122 0 1 1-8.224 0 4.246 4.246 0 0 1 4.112-4.4Zm0 7.278a2.606 2.606 0 0 0 2.471-2.875 2.5 2.5 0 1 0-4.942 0 2.605 2.605 0 0 0 2.471 2.875ZM188.877 28.709V27.3h5.733v1.405h-2.105v7.082h-1.522v-7.078ZM195.539 28.709V27.3h5.734v1.405h-2.106v7.082h-1.522v-7.078ZM202.042 35.791V27.3h4.5v1.4h-2.975v2.14h2.857v1.394h-2.857V34.4h2.975v1.394ZM210.423 27.3a2.471 2.471 0 0 1 2.729 2.571 2.349 2.349 0 0 1-1.888 2.465l2.7 3.451h-1.933l-2.376-3.231h-.43v3.231h-1.523V27.3Zm-1.195 3.884h.731c.91 0 1.6-.4 1.6-1.313s-.687-1.3-1.6-1.3h-.731ZM212.837 27.3h1.833l1.874 3.1 1.873-3.1h1.833l-2.945 4.717v3.77h-1.523v-3.77Z"/><path class="a" d="M285.916 78.864a44.719 44.719 0 0 0-4.377-17.2 46.333 46.333 0 0 0-10.184-13.844 46.888 46.888 0 0 0-14.466-9.249 46.055 46.055 0 0 0-17.366-3.386 44.437 44.437 0 0 0-17.2 3.409 43.108 43.108 0 0 0-13.079 8.49l.082-.832a5.862 5.862 0 0 0-5.834-6.444h-20.355l-.127.03a5.875 5.875 0 0 0-1.218.232 5.59 5.59 0 0 0-.33.114 5.891 5.891 0 0 0-1.423.746l-.166.121-.056.054a5.574 5.574 0 0 0-.744.725 2.227 2.227 0 0 0-.064-.073 5.864 5.864 0 0 0-4.364-1.949h-20.952a5.842 5.842 0 0 0-2.894.762c-.112-.064-.236-.131-.372-.2s-.258-.112-.39-.16a5.948 5.948 0 0 0-.719-.231 4.883 4.883 0 0 0-.443-.085 3.83 3.83 0 0 0-.491-.073l-.106-.009h-.134c-.073 0-.146-.008-.22-.008H111.4a16.136 16.136 0 0 0-5.506.952 15.124 15.124 0 0 0-4.72 2.743q-.168.144-.331.291l-.266-.577-.148-.321-.077-.1a5.55 5.55 0 0 0-.68-.978l-.149-.171-.117-.1a1.7 1.7 0 0 0-.114-.1 5.815 5.815 0 0 0-1.055-.8 4.327 4.327 0 0 0-.334-.191 5.859 5.859 0 0 0-1.525-.53 3.91 3.91 0 0 0-.374-.052 5.09 5.09 0 0 0-.751-.063H74.3a5.9 5.9 0 0 0-5.482 3.789 12.25 12.25 0 0 0-4.182-2.761A14.723 14.723 0 0 0 59.1 39.8H17.109a5.845 5.845 0 0 0-5.783 4.9L.08 111.906l-.039.236v.042a5.973 5.973 0 0 0-.032.992l.01.2.012.061a5.944 5.944 0 0 0 .161.9c.031.118.068.234.109.35a5.629 5.629 0 0 0 .3.749c.057.118.12.235.188.352a5.677 5.677 0 0 0 .372.566 2.958 2.958 0 0 0 .23.307l.149.177.08.069a5.812 5.812 0 0 0 .5.465c.072.065.145.126.222.183a5.851 5.851 0 0 0 1.017.614q.158.074.321.132a5.241 5.241 0 0 0 .62.22l12.326 3.411a5.874 5.874 0 0 0 1.564.212h19.651a5.815 5.815 0 0 0 1.419-.184c.1-.026.209-.055.315-.088a6.012 6.012 0 0 0 1-.407l.068-.024.267-.163.194-.119.1-.088a5.935 5.935 0 0 0 .592-.474c.092-.085.178-.173.264-.263a5.868 5.868 0 0 0 .517-.619c.078-.107.153-.214.223-.326a5.932 5.932 0 0 0 .394-.75 3.129 3.129 0 0 0 .13-.3 5.963 5.963 0 0 0 .258-.882l.011-.034.036-.226v-.022l.025-.16 2.263-14.594.1-.034a5.878 5.878 0 0 0 1.96.337h12.061l-1.36 9.307-.032.223v.155a5.722 5.722 0 0 0-.016.643c0 .124.006.24.017.356a5.749 5.749 0 0 0 .2 1.107l.033.114.015.04a6.01 6.01 0 0 0 .377.9c.05.1.108.2.168.294a6 6 0 0 0 .383.569 3 3 0 0 0 .219.285l.148.171.094.081a5.715 5.715 0 0 0 .477.436c.082.072.164.14.25.2a5.868 5.868 0 0 0 .924.558l7.088 3.411a5.874 5.874 0 0 0 2.542.58h19.558a5.814 5.814 0 0 0 1.651-.253c.107-.032.211-.065.315-.1a3.7 3.7 0 0 0 .452-.166 4.679 4.679 0 0 0 .734-.424 3.811 3.811 0 0 0 .424-.281 5.889 5.889 0 0 0 1.17-1.2 3.472 3.472 0 0 0 .242-.39 5.963 5.963 0 0 0 .458-.919l.042-.092.088.075.474.407c.035.031.069.062.1.086l.143.123.048.041.069.07.108.081a11.931 11.931 0 0 0 1.848 1.277 12.549 12.549 0 0 0 2.116.941 13.612 13.612 0 0 0 2.266.554 15.207 15.207 0 0 0 2.324.176h34.065a5.972 5.972 0 0 0 1.189-.119 2.99 2.99 0 0 0 .369-.1 5.758 5.758 0 0 0 .733-.246c.118-.05.234-.106.349-.166l.068-.035a5.871 5.871 0 0 0 2.7.662h19.555a5.815 5.815 0 0 0 4.446-2.039 4.813 4.813 0 0 0 .581.555 4.71 4.71 0 0 0 .626.508 5.037 5.037 0 0 0 .844.439 3.594 3.594 0 0 0 .636.27l.323.1.074.006a5.851 5.851 0 0 0 1.354.16h19.555a5.831 5.831 0 0 0 3.355-1.055l4.891-3.409.286-.2.091-.1a5.764 5.764 0 0 0 .949-.98l.108-.143.043-.074a5.7 5.7 0 0 0 .513-.924 42.965 42.965 0 0 0 13.136 8.589 42.3 42.3 0 0 0 16.423 3.3c1.05 0 2.129-.04 3.207-.121 1.055-.08 2.11-.2 3.143-.359s2.048-.353 3.062-.586 2-.5 2.977-.809l9.8-3.063a44.1 44.1 0 0 0 4.29-1.585 43 43 0 0 0 14.149-9.806 42.486 42.486 0 0 0 9.122-14.465 43.163 43.163 0 0 0 2.709-17.501Z"/><path class="b" d="M222.319 38.59a44.437 44.437 0 0 1 17.2-3.409 46.055 46.055 0 0 1 17.366 3.386 46.888 46.888 0 0 1 14.466 9.249 46.342 46.342 0 0 1 10.184 13.843q.942 1.965 1.683 3.99-.195-.853-.433-1.694c-1.284-4.547-3.368-8.857-4.07-13.566-.741-4.976 1.78-8.994 1.752-13.824a17.118 17.118 0 0 0-1.949-7.543 38.226 38.226 0 0 0-6.462-8.851c.051.6.065 1.032.127 1.463A14.539 14.539 0 0 1 270 31.682a26.166 26.166 0 0 1-2.794 3.72c-.832-1.2-1.666-2.4-2.482-3.6-3.34-4.958-6.724-9.892-8.275-15.802a17.225 17.225 0 0 1 2.042-14.145c.331-.536.588-1.1.993-1.858-5.463 2.452-10.491 5.025-14.918 8.65a23.9 23.9 0 0 0-7.148 8.989 25.137 25.137 0 0 0-1.761 12.988c.072.61.126 1.226.188 1.839l.168 1.681a89.311 89.311 0 0 0-9.989-10.889 7.07 7.07 0 0 0-.128.8 19.539 19.539 0 0 1-4.339 12.726c-.962 1.2-1.958 2.394-2.966 3.577a45.296 45.296 0 0 1 3.728-1.768Z"/><path class="c" d="M239.524 41.044A40.325 40.325 0 0 1 254.687 44a41.248 41.248 0 0 1 12.664 8.1 40.721 40.721 0 0 1 8.9 12.1 39 39 0 0 1 3.807 14.96 37.435 37.435 0 0 1-2.339 15.132 36.841 36.841 0 0 1-7.871 12.478 37.349 37.349 0 0 1-12.231 8.476 38.729 38.729 0 0 1-15.345 3.121 40.331 40.331 0 0 1-15.562-3.121 41.193 41.193 0 0 1-12.834-8.476 40.6 40.6 0 0 1-8.762-12.478 38.909 38.909 0 0 1-3.414-15.136 37.3 37.3 0 0 1 2.746-14.96 36.883 36.883 0 0 1 8.044-12.1A37.458 37.458 0 0 1 224.576 44a38.728 38.728 0 0 1 14.948-2.956ZM95.252 45.667l-9.298 67.207H64.479L74.3 45.667h20.952zM203.488 45.667l-.812 8.171-10.141 23.096 6.863 27.41-.842 8.53h-21.474l-2.975-26.415h-3.9l-2.881 26.415h-21.474l7.841-67.207h20.952l-2.616 24.002h3.889l7.569-24.002h20.001zM147.924 45.667l-.967 8.171-4.287 8.413h-20.793L117.6 95.76h24.378l-2.04 17.114H102.5a8.972 8.972 0 0 1-3.431-.632 6.5 6.5 0 0 1-3.911-4.464 8.829 8.829 0 0 1-.168-3.434l6.838-50.506a9.594 9.594 0 0 1 1.067-3.3 9.12 9.12 0 0 1 2.087-2.583 9.363 9.363 0 0 1 2.9-1.684 10.293 10.293 0 0 1 3.512-.6Z"/><path d="M258.01 100.179a7.355 7.355 0 0 1-7.461 6.742h-31.53l1.442-13.482h21.381l.8-7.516h-12.237l.9-8.444 9.874-8.29.306-2.867h-15.414l-1.974-6.9.721-6.74h37.961L261.4 65.625l-7.521 8.754c4.228.311 6.613 2.635 6.141 7.051Z" fill="#fff"/><path class="b" d="m146.86 137.277-.82 2.787h-2.8l2.633-8.952h5.591a.783.783 0 0 1 .8 1.112l-1.156 3.927a1.555 1.555 0 0 1-1.457 1.126Zm.659-2.239h1.112l.493-1.674h-1.112ZM153.48 131.112h2.79l-1.975 6.713h2.814l-.659 2.239h-5.6ZM166.7 131.112l-2.634 8.952h-5.596a.782.782 0 0 1-.8-1.112l2.307-7.84h2.8l-1.975 6.713h1.112l1.975-6.713ZM166.835 134.1l.553-1.881a1.537 1.537 0 0 1 1.452-1.112h4.86l-.324 1.1-.774 1.151h-2.751l-.121.408 1.954 1.624c.493.41.518.806.308 1.522l-.6 2.034a1.532 1.532 0 0 1-1.441 1.112h-4.873l.658-2.239h3.185l.173-.587-1.957-1.61c-.485-.417-.512-.801-.302-1.522ZM210.058 140.366l2.068-7.028a1.558 1.558 0 0 0-1.57-2.223h-11.2L194.1 149h5.6l1.639-5.571h1.123l-.13 5.571h5.468l.654-2.223-.471-4.4a3.269 3.269 0 0 0 2.075-2.011Zm-5.186-1.4h-2.223l.985-3.348h2.223ZM180.903 138.501l.85-2.887h5.495l1.54-2.276.654-2.223h-11.965l-5.263 17.888h5.599l1.775-6.031h5.495l1.315-4.471h-5.495zM191.23 131.115l-5.264 17.888h5.574l5.263-17.888h-5.573zM237.6 140.085l.143-.485a3.132 3.132 0 0 0 2.933-2.147l1.211-4.115a1.564 1.564 0 0 0-1.6-2.223h-11.172L223.852 149h11.171a3.071 3.071 0 0 0 2.905-2.223l1.33-4.523a1.584 1.584 0 0 0-1.658-2.169Zm-4.607 4.446h-2.222l.721-2.452h2.223Zm2.038-6.925H232.8l.586-1.992h2.223ZM275.295 144.531l3.947-13.416h-5.573l-5.263 17.888h11.197l1.316-4.472h-5.624zM217.454 142.079h5.495l1.316-4.473h-5.495l.586-1.992h5.495l1.566-2.276.654-2.223h-11.965l-5.263 17.888h11.965l1.315-4.472h-6.391l.722-2.452zM266.257 131.115h-5.574l-5.263 17.888h11.198l1.315-4.472h-5.624l3.948-13.416zM246.829 131.115l-7.114 15.665-.654 2.22h4.6a3.582 3.582 0 0 1-1.661-2.261 4.539 4.539 0 0 1 1.3-4.28c.5-.55.993-1.113 1.446-1.692a3.163 3.163 0 0 0 .677-2.03 1.194 1.194 0 0 1 .02-.128 14.109 14.109 0 0 1 1.557 1.737l-.026-.268a8.384 8.384 0 0 0-.03-.294 4.08 4.08 0 0 1 .275-2.071 3.8 3.8 0 0 1 1.117-1.434 10.092 10.092 0 0 1 2.331-1.38c-.064.122-.1.211-.155.3a2.8 2.8 0 0 0-.32 2.257 8.453 8.453 0 0 0 1.294 2.519c.369.558.764 1.1 1.095 1.68a3.994 3.994 0 0 1 .358 3.279 6.679 6.679 0 0 1-3.648 4.066h4.085l.654-2.223 2.1-15.665Z"/><path class="b" d="M250.72 146.875a2.344 2.344 0 0 0-.446-2.521 4.523 4.523 0 0 1-2.989 2.317c2.426-2.016 1.848-4.64.608-5.722-.021.032-.05.059-.053.084a3.963 3.963 0 0 1-1.659 2.363c-.564.453-1.16.882-1.7 1.353-1.465 1.282-1.622 3.182-.373 4.19l.082.064h4.643a4.359 4.359 0 0 0 1.887-2.128Z"/><path class="c" d="M66.226 50.5a6.2 6.2 0 0 0-1.356-2.58 6.394 6.394 0 0 0-2.425-1.684 8.9 8.9 0 0 0-3.341-.6H17.109L5.863 112.841h21.58l2.418-15.2.042-.246.93-5.847h.063l1.829-10.776a3.081 3.081 0 0 1-.08-1.087 1.505 1.505 0 0 0-1.13.74 2.055 2.055 0 0 1 .041-2.181 6.606 6.606 0 0 0-4.332 6.78c-.279-.106-.516-.374-1.114-1.129-3.235-4.059 1.694-7.246 1.694-7.246a11.311 11.311 0 0 0-1.846.423 8.26 8.26 0 0 0-3 1.983 1.725 1.725 0 0 1-.009-1.561 15.824 15.824 0 0 0-5.192 1.856 7.076 7.076 0 0 0-1.357 1.157 11.793 11.793 0 0 1 1.855-4.054 18.047 18.047 0 0 1 5.43-4.988.841.841 0 0 1-.247.018 11.786 11.786 0 0 0-.775.094q-.482.075-.96.2a9.7 9.7 0 0 0-1.968.706 5.83 5.83 0 0 0-.536.3c-.077 0-.3.2-.363.256-.137.109-.265.231-.395.347-.209.187-.414.376-.617.568l-.153.146c-.083.081-.167.16-.252.238-.31.286-.629.563-.938.851a7.748 7.748 0 0 1 2.13-4.262 10.119 10.119 0 0 1 3.115-2.187 6.038 6.038 0 0 1 3.592-.518c-1.72-.64-4.4-.393-6.374-.044a8.54 8.54 0 0 1 3.679-3.587 8.266 8.266 0 0 0-4.087-.035 3.071 3.071 0 0 0 .281-.482 5 5 0 0 1 1.106-1.393 6.112 6.112 0 0 1 1.494-.843 8.085 8.085 0 0 1 2.389-.579c.967-.081 2.806-.2 3.574.257A7.08 7.08 0 0 0 22.3 60.3a7.659 7.659 0 0 1 1.644-.98c5.751-2.658 8.088 1.359 8.088 1.359.662-4.825.63-6.8.406-7.548a12.429 12.429 0 0 1 6.145 2.953 8.533 8.533 0 0 1 1.075 1.193 32.245 32.245 0 0 1 3.5-2.338s-1.686 1.971-1.691 3.263a15.631 15.631 0 0 1 12.646-1.983 19.987 19.987 0 0 0-6.142 3.449 16.644 16.644 0 0 1 5.391 1.2 29.152 29.152 0 0 0-3.931.855 14.924 14.924 0 0 1 4.8.12 9.773 9.773 0 0 1 2.365.62 18.623 18.623 0 0 0-4.126 1.7 13.124 13.124 0 0 1 1.524.736s2.87 1.468 3.469 3.113c-3.368.375-6.8.377-10.163 1.091 1.405-.3 3.076.5 4.136 1.065.789.42 1.773 1.475 1.567 1.463a7.147 7.147 0 0 0-1.631.048 7.283 7.283 0 0 0-1.388.3c1.622 2.591 1.56 4.286-1.476 9a12.764 12.764 0 0 0-2.857-5.227 21.506 21.506 0 0 1-.722 3.616 14.463 14.463 0 0 0-2.783-4.472.318.318 0 0 1-.032.043 7.833 7.833 0 0 1 .164 4.939 2.125 2.125 0 0 0-1.18-.8c-.3 1.423-1.3 2.852-2.562 4.71a14.6 14.6 0 0 0-.687-5.262 5.6 5.6 0 0 0-.977 1.261l-1.43 11.745h3.215v.015h13.482c.119 0 .235-.011.353-.015h.159v-.007a10.206 10.206 0 0 0 3.074-.614 9.738 9.738 0 0 0 5.15-4.459 10.165 10.165 0 0 0 1.132-3.4l4.35-29.251a8.287 8.287 0 0 0-.131-3.301Z"/></svg>