<svg xmlns="http://www.w3.org/2000/svg" viewBox="0 0 284.698 149.244"><defs><style>.a{fill:#0033a1}.b{fill:#f58041}</style></defs><path class="a" d="M238.457 41.738a40.159 40.159 0 0 1 15.1 2.944 41.052 41.052 0 0 1 12.607 8.061 40.514 40.514 0 0 1 8.862 12.044 38.849 38.849 0 0 1 3.791 14.893 37.27 37.27 0 0 1-2.329 15.065 36.685 36.685 0 0 1-7.836 12.423 37.209 37.209 0 0 1-12.177 8.438 38.552 38.552 0 0 1-15.276 3.107 40.157 40.157 0 0 1-15.493-3.107 41.056 41.056 0 0 1-12.777-8.438 40.451 40.451 0 0 1-8.729-12.423 38.74 38.74 0 0 1-3.4-15.065 37.133 37.133 0 0 1 2.733-14.893 36.7 36.7 0 0 1 8.009-12.044 37.266 37.266 0 0 1 12.034-8.061 38.562 38.562 0 0 1 14.881-2.944Z"/><path class="b" d="M221.329 39.3a44.239 44.239 0 0 1 17.128-3.4 45.847 45.847 0 0 1 17.288 3.371A46.571 46.571 0 0 1 273.868 52.4l.167-.315c.248-.466.492-.936.745-1.4a27.64 27.64 0 0 0 3.4-10.678 20.6 20.6 0 0 0-1.219-8.951 41.833 41.833 0 0 0-6.019-10.731c-.018.7-.056 1.213-.04 1.722a18.733 18.733 0 0 1-3.629 11.664c-.493.7-1.013 1.363-1.544 2-.915-1.318-1.834-2.634-2.731-3.963-3.34-4.947-6.719-9.874-8.268-15.772a17.2 17.2 0 0 1 2.04-14.125c.33-.535.587-1.095.991-1.855-5.455 2.449-10.476 5.018-14.9 8.638a23.875 23.875 0 0 0-7.137 8.975 25.1 25.1 0 0 0-1.758 12.969c.071.61.125 1.225.187 1.837l.168 1.679a89.213 89.213 0 0 0-9.974-10.873 7.385 7.385 0 0 0-.129.8 19.508 19.508 0 0 1-4.332 12.708 152.828 152.828 0 0 1-5.007 5.93 43.247 43.247 0 0 1 6.45-3.359ZM283.117 47.427a68.451 68.451 0 0 0-8.918 5.362 45.871 45.871 0 0 1 6.086 9.473 44.891 44.891 0 0 1 2.664 7.021c-.694-3.321-1.322-6.671-1.788-10.039a20.292 20.292 0 0 1 1.758-11.152c.056-.127.081-.275.198-.665ZM147.705 137.57l-.816 2.775H144.1l2.622-8.912h5.566a.779.779 0 0 1 .8 1.107l-1.15 3.909a1.546 1.546 0 0 1-1.451 1.121Zm.656-2.228h1.107l.491-1.668h-1.107ZM154.3 131.433h2.777l-1.967 6.683h2.8l-.656 2.229h-5.578ZM167.451 131.433l-2.622 8.912h-5.566a.779.779 0 0 1-.794-1.108l2.3-7.8h2.789l-1.967 6.683h1.109l1.966-6.683ZM167.591 134.412l.551-1.872a1.528 1.528 0 0 1 1.445-1.107h4.841l-.322 1.1-.77 1.145H170.6l-.121.406 1.945 1.618c.491.407.516.8.307 1.515l-.6 2.024a1.525 1.525 0 0 1-1.434 1.108h-4.852l.656-2.229h3.17l.173-.584-1.948-1.6c-.488-.429-.515-.811-.305-1.524ZM210.621 140.645l2.059-7a1.551 1.551 0 0 0-1.563-2.213h-11.148l-5.239 17.808h5.57l1.632-5.546h1.118l-.129 5.546h5.446l.651-2.213-.469-4.376a3.252 3.252 0 0 0 2.072-2.006Zm-5.163-1.4h-2.213l.981-3.333h2.213ZM181.596 138.789l.846-2.875h5.47l1.534-2.265.651-2.213h-11.912l-5.239 17.808h5.574l1.767-6.004h5.47l1.31-4.451h-5.471zM191.877 131.436l-5.24 17.808h5.549l5.24-17.808h-5.549zM238.036 140.366l.143-.483a3.117 3.117 0 0 0 2.92-2.138l1.205-4.1a1.556 1.556 0 0 0-1.589-2.213h-11.122l-5.239 17.808h11.122a3.057 3.057 0 0 0 2.891-2.213l1.324-4.5a1.576 1.576 0 0 0-1.655-2.161Zm-4.585 4.426h-2.213l.718-2.441h2.213Zm2.028-6.894h-2.213l.584-1.984h2.213ZM275.567 144.792l3.931-13.356h-5.549l-5.24 17.808h11.148l1.309-4.452h-5.599zM217.984 142.351h5.47l1.311-4.453h-5.471l.584-1.984h5.47l1.559-2.265.651-2.213h-11.911l-5.24 17.808h11.912l1.309-4.452h-6.362l.718-2.441zM266.57 131.436h-5.549l-5.239 17.808h11.147l1.31-4.452h-5.599l3.93-13.356zM247.229 131.436l-7.082 15.6-.652 2.213h4.582a3.566 3.566 0 0 1-1.657-2.254 4.518 4.518 0 0 1 1.292-4.261c.5-.548.988-1.108 1.439-1.684a3.145 3.145 0 0 0 .675-2.021 1.194 1.194 0 0 1 .02-.128 14.062 14.062 0 0 1 1.554 1.729l-.027-.267c-.009-.1-.018-.195-.029-.292a4.078 4.078 0 0 1 .274-2.062 3.789 3.789 0 0 1 1.112-1.428 10.031 10.031 0 0 1 2.32-1.373c-.063.121-.1.21-.154.295a2.783 2.783 0 0 0-.318 2.246 8.4 8.4 0 0 0 1.288 2.508c.367.556.761 1.095 1.089 1.673a3.967 3.967 0 0 1 .357 3.264 6.648 6.648 0 0 1-3.633 4.055h4.068l.651-2.213 2.095-15.595Z"/><path class="b" d="M251.1 147.125a2.334 2.334 0 0 0-.445-2.509 4.508 4.508 0 0 1-2.975 2.307c2.414-2.008 1.839-4.62.605-5.7-.021.032-.05.058-.053.084a3.949 3.949 0 0 1-1.651 2.352c-.562.451-1.156.878-1.692 1.347-1.459 1.276-1.615 3.167-.371 4.171l.081.064h4.623a4.346 4.346 0 0 0 1.878-2.116Z"/><path d="M284.642 79.39a44.515 44.515 0 0 0-4.357-17.128 46.137 46.137 0 0 0-10.138-13.783 46.709 46.709 0 0 0-14.4-9.207 45.847 45.847 0 0 0-17.29-3.372 44.239 44.239 0 0 0-17.128 3.4 42.908 42.908 0 0 0-13.021 8.452l.082-.829a5.836 5.836 0 0 0-5.808-6.414h-20.261l-.126.029a5.88 5.88 0 0 0-1.213.231 5.531 5.531 0 0 0-.328.114 5.842 5.842 0 0 0-1.417.743l-.165.12-.056.053a5.585 5.585 0 0 0-.74.722l-.064-.073a5.838 5.838 0 0 0-4.345-1.939h-20.859a5.813 5.813 0 0 0-2.881.758 5.215 5.215 0 0 0-.37-.194 4.07 4.07 0 0 0-.389-.159 5.661 5.661 0 0 0-.715-.23 5.286 5.286 0 0 0-.441-.086 3.979 3.979 0 0 0-.489-.072l-.105-.008h-.134a3.163 3.163 0 0 0-.219-.007H110.9a16.073 16.073 0 0 0-5.482.947 15.072 15.072 0 0 0-4.7 2.731q-.166.142-.329.29l-.264-.574-.148-.32-.077-.1a5.5 5.5 0 0 0-.677-.973l-.148-.171-.117-.1a1.473 1.473 0 0 0-.113-.1 5.782 5.782 0 0 0-1.051-.8 3.94 3.94 0 0 0-.333-.189 5.8 5.8 0 0 0-1.517-.528 3.576 3.576 0 0 0-.372-.051 4.928 4.928 0 0 0-.749-.063H73.969a5.878 5.878 0 0 0-5.458 3.772 12.185 12.185 0 0 0-4.162-2.749A14.664 14.664 0 0 0 58.84 40.5H17.033a5.818 5.818 0 0 0-5.757 4.873L.08 112.284l-.039.235v.042a5.917 5.917 0 0 0-.032.987l.01.2.011.061a6 6 0 0 0 .161.9c.031.118.068.234.108.348a5.6 5.6 0 0 0 .3.747c.057.117.12.233.187.35a5.946 5.946 0 0 0 .371.564 3.182 3.182 0 0 0 .228.305l.149.176.08.069a5.764 5.764 0 0 0 .5.463c.071.065.144.125.22.182a5.839 5.839 0 0 0 1.013.611c.1.049.211.092.32.131a5.206 5.206 0 0 0 .617.22l12.271 3.4a5.868 5.868 0 0 0 1.557.211h19.561a5.755 5.755 0 0 0 1.412-.184c.1-.026.208-.054.314-.087a6 6 0 0 0 .995-.405l.067-.024.266-.163.193-.118.1-.088a5.634 5.634 0 0 0 .589-.472c.092-.084.178-.171.263-.261a5.941 5.941 0 0 0 .516-.617c.077-.106.151-.213.221-.324a5.758 5.758 0 0 0 .392-.747 3.062 3.062 0 0 0 .13-.3 5.8 5.8 0 0 0 .256-.879l.011-.033.037-.225v-.023l.026-.158v-.006l2.253-14.529.1-.033a5.851 5.851 0 0 0 1.951.336h12l-.179 1.225-1.175 8.04-.032.221v.155a5.915 5.915 0 0 0-.015.64c0 .124.006.239.016.355a5.788 5.788 0 0 0 .2 1.1l.033.113.015.039a5.821 5.821 0 0 0 .375.893c.05.1.107.2.167.293a5.941 5.941 0 0 0 .381.566 3.506 3.506 0 0 0 .218.284l.148.171.093.08a6.014 6.014 0 0 0 .475.434c.082.072.164.139.249.2a5.9 5.9 0 0 0 .921.556l7.055 3.395a5.856 5.856 0 0 0 2.531.578h19.476a5.8 5.8 0 0 0 1.644-.252c.107-.032.21-.065.313-.1a3.606 3.606 0 0 0 .45-.166 4.644 4.644 0 0 0 .731-.422 3.787 3.787 0 0 0 .423-.28 5.835 5.835 0 0 0 1.164-1.2 3.519 3.519 0 0 0 .239-.384 5.8 5.8 0 0 0 .393-.789c.018-.043.046-.083.063-.126l.042-.092.088.076.471.4.1.085.144.122.047.041.068.07.109.081a11.769 11.769 0 0 0 1.839 1.271 12.468 12.468 0 0 0 2.106.937 13.5 13.5 0 0 0 2.257.551 15.054 15.054 0 0 0 2.313.176h33.913a5.922 5.922 0 0 0 1.184-.119c.127-.026.248-.058.368-.095a5.627 5.627 0 0 0 .729-.246c.117-.049.233-.1.347-.165l.068-.034a5.848 5.848 0 0 0 2.69.659h19.468a5.791 5.791 0 0 0 4.427-2.031 9.875 9.875 0 0 0 1.2 1.059 4.99 4.99 0 0 0 .84.437 3.667 3.667 0 0 0 .633.269l.322.1h.074a5.8 5.8 0 0 0 1.348.16H192.8a5.807 5.807 0 0 0 3.34-1.05l4.869-3.394.073-.051.211-.148.091-.1a5.711 5.711 0 0 0 .945-.975l.107-.143.044-.074a5.758 5.758 0 0 0 .51-.92 42.794 42.794 0 0 0 13.077 8.552 42.134 42.134 0 0 0 16.35 3.285 41.924 41.924 0 0 0 6.322-.478c1.013-.155 2.039-.352 3.048-.584s2-.5 2.964-.805l4.158-1.3 5.6-1.75a43.7 43.7 0 0 0 4.27-1.578 42.791 42.791 0 0 0 14.086-9.762 42.272 42.272 0 0 0 9.081-14.4 42.92 42.92 0 0 0 2.696-17.412Zm-8.158 15.355a36.685 36.685 0 0 1-7.836 12.423 37.22 37.22 0 0 1-12.177 8.438 38.552 38.552 0 0 1-15.276 3.107 40.157 40.157 0 0 1-15.493-3.107 41.056 41.056 0 0 1-12.777-8.438 40.451 40.451 0 0 1-8.725-12.423 38.74 38.74 0 0 1-3.4-15.065 37.133 37.133 0 0 1 2.733-14.893 36.7 36.7 0 0 1 8.009-12.044 37.277 37.277 0 0 1 12.034-8.061 38.562 38.562 0 0 1 14.881-2.944 40.159 40.159 0 0 1 15.1 2.944 41.052 41.052 0 0 1 12.607 8.061 40.514 40.514 0 0 1 8.862 12.044 38.849 38.849 0 0 1 3.791 14.893 37.27 37.27 0 0 1-2.333 15.065Z" fill="#3dae2b"/><path class="a" d="M14.657 34.244a3.121 3.121 0 0 0 2.082.969c.738 0 1.274-.4 1.274-1.066 0-.594-.39-.926-1.619-1.433-1.481-.6-2.106-1.333-2.106-2.377A2.491 2.491 0 0 1 16.93 27.9a3.318 3.318 0 0 1 2.284.9l-.734 1.126a2.6 2.6 0 0 0-1.569-.588 1.014 1.014 0 0 0-1.143.957c0 .466.359.8 1.412 1.214 1.551.615 2.481 1.26 2.481 2.6a2.555 2.555 0 0 1-2.864 2.56 3.781 3.781 0 0 1-2.973-1.336ZM24.319 27.9a4.394 4.394 0 0 1 0 8.768 4.394 4.394 0 0 1 0-8.768Zm0 7.247a2.594 2.594 0 0 0 2.46-2.863 2.488 2.488 0 1 0-4.92 0 2.594 2.594 0 0 0 2.46 2.867ZM30.842 28.058v5c0 1.455.457 2.06 1.55 2.06s1.55-.605 1.55-2.06v-5h1.515v5.45c0 2.094-1.039 3.164-3.065 3.164s-3.067-1.07-3.067-3.164v-5.45ZM36.3 29.456v-1.4H42v1.4h-2.1v7.053h-1.509v-7.053ZM42.769 36.509v-8.456h1.516v3.524h3.159v-3.524h1.515v8.456h-1.515v-3.544h-3.159v3.544ZM52.6 32.288a4.276 4.276 0 0 1 4.33-4.388 4.423 4.423 0 0 1 2.584.8l-.733 1.3a2.921 2.921 0 0 0-1.752-.543 2.833 2.833 0 0 0 0 5.665 2.927 2.927 0 0 0 1.752-.543l.733 1.291a4.423 4.423 0 0 1-2.584.8 4.276 4.276 0 0 1-4.33-4.382ZM63.4 28.058h1.4l3.263 8.451h-1.642l-.721-1.993h-3.215l-.718 1.993h-1.635Zm1.786 5.07-1.087-2.939-1.088 2.939ZM71.662 28.058a2.461 2.461 0 0 1 2.716 2.561 2.336 2.336 0 0 1-1.88 2.452l2.692 3.438h-1.925L70.9 33.292h-.43v3.217h-1.514v-8.451Zm-1.192 3.866h.73c.906 0 1.59-.393 1.59-1.3s-.684-1.3-1.59-1.3h-.73ZM79.354 27.9a4.394 4.394 0 1 1-4.094 4.384 4.228 4.228 0 0 1 4.094-4.384Zm0 7.247a2.594 2.594 0 0 0 2.461-2.863 2.489 2.489 0 1 0-4.921 0 2.594 2.594 0 0 0 2.46 2.867ZM84.459 36.509v-8.451h1.517v7.063h2.976v1.388ZM89.719 36.509v-8.451h1.516v8.451ZM92.636 36.509v-8.451h1.516l3.573 5.819v-5.819h1.514v8.451h-1.514L94.152 30.7v5.813ZM102.969 28.058h1.4l3.261 8.451H106l-.718-1.993h-3.219l-.718 1.993h-1.638Zm1.787 5.07-1.088-2.939-1.088 2.939ZM110.926 36.509v-8.451h4.474v1.388h-2.96v2.131h2.845v1.388h-2.845v2.156h2.96v1.388ZM116.348 36.509v-8.451h2.194a4.228 4.228 0 0 1 0 8.451Zm1.515-7.037V35.1h.511a2.818 2.818 0 0 0 0-5.623ZM125.067 28.058v5c0 1.455.458 2.06 1.551 2.06s1.55-.605 1.55-2.06v-5h1.515v5.45c0 2.094-1.039 3.164-3.065 3.164s-3.067-1.07-3.067-3.164v-5.45ZM130.609 32.288a4.275 4.275 0 0 1 4.335-4.384 4.42 4.42 0 0 1 2.583.8L136.795 30a2.921 2.921 0 0 0-1.753-.543 2.833 2.833 0 0 0 0 5.665 2.928 2.928 0 0 0 1.753-.543l.732 1.291a4.42 4.42 0 0 1-2.583.8 4.275 4.275 0 0 1-4.335-4.382ZM141.194 28.058h1.4l3.263 8.451h-1.634l-.718-1.993h-3.218l-.718 1.993h-1.634Zm1.785 5.07-1.087-2.939-1.087 2.939ZM145.432 29.456v-1.4h5.708v1.4h-2.1v7.053h-1.516v-7.053ZM152.122 36.509v-8.451h1.516v8.451ZM158.97 27.9a4.394 4.394 0 1 1-4.094 4.384 4.229 4.229 0 0 1 4.094-4.384Zm0 7.247a2.594 2.594 0 0 0 2.46-2.863 2.489 2.489 0 1 0-4.921 0 2.6 2.6 0 0 0 2.461 2.867ZM164.076 36.509v-8.451h1.515l3.572 5.819v-5.819h1.517v8.451h-1.517l-3.572-5.809v5.813ZM174.9 36.509v-8.451h1.515v7.063h2.977v1.388ZM183.875 27.9a4.394 4.394 0 1 1-4.094 4.384 4.229 4.229 0 0 1 4.094-4.384Zm0 7.247a2.594 2.594 0 0 0 2.459-2.863 2.488 2.488 0 1 0-4.92 0 2.594 2.594 0 0 0 2.461 2.867Z"/><path class="a" d="M188.036 29.456v-1.4h5.708v1.4h-2.1v7.053h-1.516v-7.053ZM194.669 29.456v-1.4h5.707v1.4h-2.1v7.053h-1.515v-7.053ZM201.143 36.509v-8.451h4.477v1.388h-2.962v2.131h2.842v1.388h-2.844v2.156h2.962v1.388ZM209.486 28.058a2.46 2.46 0 0 1 2.716 2.561 2.334 2.334 0 0 1-1.879 2.452l2.691 3.438h-1.923l-2.367-3.217h-.424v3.217h-1.52v-8.451Zm-1.19 3.866h.728c.905 0 1.589-.393 1.589-1.3s-.684-1.3-1.589-1.3h-.724ZM211.889 28.058h1.825l1.865 3.088 1.866-3.088h1.825l-2.933 4.7v3.754h-1.516v-3.757ZM94.827 46.341l-9.256 66.907H64.192l9.777-66.907Zm87.842 0-7.535 23.9h-3.871l2.6-23.9h-20.855l-7.808 66.907h21.379l2.868-26.3h3.882l2.962 26.3h21.379l.838-8.492-6.832-27.288 10.095-22.993.809-8.134Zm-71.767 0a10.252 10.252 0 0 0-3.5.6 9.3 9.3 0 0 0-2.889 1.676 9.091 9.091 0 0 0-2.078 2.572 9.555 9.555 0 0 0-1.061 3.287l-6.804 50.28a8.811 8.811 0 0 0 .167 3.419 6.464 6.464 0 0 0 3.893 4.444 8.94 8.94 0 0 0 3.416.629h37.27l2.031-17.038h-24.27l4.257-33.36h20.7l4.269-8.375.963-8.134Zm-44.971 4.814a6.18 6.18 0 0 0-1.35-2.572 6.366 6.366 0 0 0-2.414-1.676 8.871 8.871 0 0 0-3.327-.6H17.032l-11.2 66.907h21.489l2.407-15.133.041-.24.927-5.826h.062l1.821-10.728a3.077 3.077 0 0 1-.08-1.082 1.494 1.494 0 0 0-1.124.737 2.045 2.045 0 0 1 .041-2.171 6.575 6.575 0 0 0-4.316 6.75c-.278-.106-.514-.372-1.11-1.124-3.22-4.041 1.687-7.214 1.687-7.214a11.31 11.31 0 0 0-1.837.422 8.2 8.2 0 0 0-2.984 1.974 1.715 1.715 0 0 1-.009-1.555 15.766 15.766 0 0 0-5.169 1.848 7.036 7.036 0 0 0-1.356 1.153 11.726 11.726 0 0 1 1.847-4.036 17.944 17.944 0 0 1 5.405-4.965.9.9 0 0 1-.245.018c-.088.007-.175.016-.263.025-.169.019-.339.041-.509.068a9.16 9.16 0 0 0-.955.2 9.682 9.682 0 0 0-1.96.7 6.02 6.02 0 0 0-.533.3c-.077 0-.3.2-.362.254-.136.109-.264.23-.394.346a29.92 29.92 0 0 0-.613.565l-.153.146c-.083.08-.166.159-.251.237-.309.285-.626.56-.934.847a7.715 7.715 0 0 1 2.122-4.244 10.1 10.1 0 0 1 3.1-2.177A6.016 6.016 0 0 1 25.2 68.8c-1.712-.637-4.38-.391-6.346-.044a8.51 8.51 0 0 1 3.663-3.571 8.229 8.229 0 0 0-4.069-.034 3.139 3.139 0 0 0 .281-.481 4.947 4.947 0 0 1 1.1-1.386 6.116 6.116 0 0 1 1.488-.84 8.018 8.018 0 0 1 2.378-.576c.963-.081 2.793-.2 3.559.256a7.046 7.046 0 0 0-5.05-1.206 7.672 7.672 0 0 1 1.637-.977c5.726-2.645 8.052 1.354 8.052 1.354.659-4.8.627-6.771.405-7.515a12.373 12.373 0 0 1 6.117 2.94 8.52 8.52 0 0 1 1.07 1.188 32.325 32.325 0 0 1 3.48-2.328s-1.678 1.962-1.682 3.249a15.56 15.56 0 0 1 12.589-1.975 19.914 19.914 0 0 0-6.115 3.433 16.592 16.592 0 0 1 5.367 1.192 29.2 29.2 0 0 0-3.914.852 14.847 14.847 0 0 1 4.777.119 9.756 9.756 0 0 1 2.355.617 18.5 18.5 0 0 0-4.107 1.694 13.168 13.168 0 0 1 1.517.732s2.857 1.462 3.453 3.1c-3.353.373-6.766.375-10.118 1.086 1.4-.3 3.063.5 4.118 1.06.785.418 1.765 1.469 1.559 1.457a7.154 7.154 0 0 0-1.623.047 7.33 7.33 0 0 0-1.382.3c1.615 2.58 1.554 4.267-1.469 8.956a12.717 12.717 0 0 0-2.844-5.2 21.4 21.4 0 0 1-.72 3.6 14.379 14.379 0 0 0-2.77-4.452.373.373 0 0 1-.032.042 7.793 7.793 0 0 1 .164 4.917 2.114 2.114 0 0 0-1.175-.793c-.3 1.416-1.3 2.839-2.55 4.688a14.548 14.548 0 0 0-.685-5.238 5.65 5.65 0 0 0-.973 1.255L35.284 92h3.2v.015h13.422c.119 0 .235-.011.352-.015h.159v-.007a10.126 10.126 0 0 0 3.06-.612 9.683 9.683 0 0 0 5.123-4.437 10.136 10.136 0 0 0 1.127-3.381l4.33-29.121a8.232 8.232 0 0 0-.126-3.287Z"/><path fill="#fff" d="M243.727 82.625h-7.416l.22-3.14 9.713-22.729.507-7.275h-16.559l-12.861 29.826-1.462 18.31h26.788l-.806 11.407h19.06l2.413-37.187h-18.833l-.764 10.788z"/></svg>