<svg id="b" xmlns="http://www.w3.org/2000/svg" xmlns:xlink="http://www.w3.org/1999/xlink" viewBox="0 0 252.0003 108.1063"><defs><linearGradient id="d" x1="2389.7117" y1="2017.9478" x2="2389.7117" y2="1967.1494" gradientTransform="matrix(.8 0 0 .8 -1854.0561 -1511.3184)" gradientUnits="userSpaceOnUse"><stop offset="0" stop-color="#d71920"/><stop offset=".0168" stop-color="#d9231e"/><stop offset=".0973" stop-color="#e14e17"/><stop offset=".1841" stop-color="#e97411"/><stop offset=".2761" stop-color="#f0950b"/><stop offset=".3749" stop-color="#f5af07"/><stop offset=".4831" stop-color="#f9c304"/><stop offset=".6054" stop-color="#fcd201"/><stop offset=".7536" stop-color="#feda00"/><stop offset="1" stop-color="#fd0"/></linearGradient><linearGradient id="e" x1="2442.5132" y1="2013.998" x2="2442.5132" y2="1974.5072" xlink:href="#d"/><linearGradient id="f" x1="2540.9877" y1="2018.1417" x2="2540.9877" y2="1969.7007" xlink:href="#d"/><linearGradient id="g" x1="2487.9558" y1="2019.1976" x2="2487.9558" y2="1969.5266" xlink:href="#d"/><style>.m{fill:#d71920}.n{stroke:#000;stroke-width:2.96161px}.m{stroke:#d71920;stroke-width:8.8848px}</style></defs><g id="c"><path class="m" d="M81.1903 80.9568h-15.935c-.4707-4.5342-3.0972-6.8008-7.8819-6.8008-6.1474 0-9.2202 3.2266-9.2202 9.6802 0 6.4043 3.0728 9.6065 9.2202 9.6065 4.379 0 6.9898-1.9361 7.8335-5.8077h16.0806c-1.4766 10.0186-9.4478 15.0274-23.914 15.0274-16.1378 0-24.2056-6.275-24.2056-18.8262 0-12.5674 8.0678-18.8515 24.2055-18.8515 7.46 0 13.234 1.3759 17.3213 4.1264 4.087 2.7505 6.252 6.6992 6.4956 11.8457ZM103.0888 89.6297h-7.143l3.6786-10.067 3.4644 10.067Zm-9.7705 7.0659H105.56l.9536 2.8076h12.086l-11.6378-28.6328H92.8124l-12.475 28.6328h11.9501l1.0308-2.8076ZM170.2934 102.8196H156.354V67.03h13.9395v12.39h15.9106v-12.39h13.9395v35.7895H186.204V88.3489h-15.9106v14.4707ZM130.6845 78.4515c0-1.3643 1.1992-2.0445 3.5976-2.0445v4.0449c-2.3984-.0551-3.5976-.7236-3.5976-2.0004Zm6.6792 10.4116c2.2978 0 3.4477.7319 3.4477 2.1943 0 1.3633-1.206 2.0728-3.618 2.1294l-.022-4.3237h.1923Zm.643 11.5639c10.6465-.1704 15.9707-3.6264 15.9707-10.3711 0-3.0371-1.2666-5.2597-3.8003-6.6645-2.5332-1.4063-6.869-2.272-13.0058-2.5986l.022-4.2163c1.9111.143 3.0102 1.0722 3.2963 2.7895h12.525c-.6148-6.2603-5.6168-9.4756-15.0079-9.6465v-2.832h-4.5175v2.832c-5.0093.1275-8.8706 1.0366-11.582 2.726-2.712 1.6895-4.0675 4.0392-4.0675 7.0489 0 2.8677 1.1993 4.9727 3.5967 6.3135 2.3975 1.3418 6.6797 2.2617 12.8457 2.7578v4.5366c-2.0556-.0571-3.2265-1.0298-3.5112-2.918h-13.102c.356 3.3218 1.8193 5.8604 4.3886 7.6129 2.569 1.7534 6.1226 2.6298 10.6612 2.6298h.7705v3.2369h4.5175v-3.237Z"/><path class="n" d="M81.746 81.3489H65.812c-.4708-4.5312-3.0982-6.7993-7.8824-6.7993-6.147 0-9.2202 3.2266-9.2202 9.6787 0 6.4063 3.0732 9.6074 9.2202 9.6074 4.379 0 6.9897-1.9355 7.8335-5.8076h16.0806c-1.4766 10.0186-9.4473 15.0274-23.914 15.0274-16.1373 0-24.2057-6.275-24.2057-18.8272 0-12.566 8.0684-18.8506 24.2056-18.8506 7.4604 0 13.2344 1.376 17.3213 4.126 4.087 2.7515 6.252 6.6997 6.4951 11.8452ZM103.6444 90.0227H96.502l3.6787-10.0664 3.4638 10.0664Zm-9.7695 7.066h12.2417l.9536 2.807h12.0855L107.5175 71.264H93.3686L80.894 99.8958h11.9498l1.0312-2.8071ZM170.85 103.2137h-13.9404V67.423H170.85v12.3892h15.9097V67.423h13.9394v35.7906h-13.9394V88.742H170.85v14.4717ZM131.2411 78.8435c0-1.3632 1.1987-2.045 3.5967-2.045v4.048c-2.398-.0576-3.5967-.7246-3.5967-2.003Zm6.6797 10.414c2.2974 0 3.4468.731 3.4468 2.1935 0 1.3623-1.2066 2.0722-3.6187 2.1294l-.0215-4.3228h.1934Zm.6416 11.563c10.647-.1698 15.9702-3.627 15.9702-10.37 0-3.0386-1.267-5.2608-3.7993-6.666-2.5337-1.4053-6.869-2.2715-13.0059-2.5982l.0215-4.2163c1.9126.142 3.0117 1.0723 3.2974 2.79h12.524c-.6148-6.2617-5.6173-9.4765-15.0079-9.6464v-2.833h-4.5176v2.833c-5.0088.1269-8.8696 1.0366-11.581 2.725-2.7124 1.69-4.0674 4.04-4.0674 7.0489 0 2.8677 1.1987 4.9717 3.5967 6.314 2.3974 1.3417 6.6787 2.2612 12.8447 2.7578v4.5346c-2.0557-.0551-3.226-1.0283-3.5108-2.9165h-13.102c.3564 3.3218 1.8198 5.8599 4.3887 7.6128 2.5688 1.7534 6.1225 2.6304 10.6611 2.6304h.77v3.2363h4.5176v-3.2363Z"/><g stroke="#fff" stroke-width=".7404"><path d="M81.6762 79.8645H65.7416c-.4707-4.5327-3.098-6.7998-7.8823-6.7998-6.147 0-9.2202 3.2266-9.2202 9.6797 0 6.4043 3.0732 9.6074 9.2202 9.6074 4.379 0 6.9897-1.936 7.8335-5.8076h16.0805c-1.4765 10.018-9.4477 15.0264-23.914 15.0264-16.1377 0-24.206-6.2744-24.206-18.8262 0-12.5664 8.0683-18.8511 24.206-18.8511 7.46 0 13.234 1.376 17.3213 4.126 4.0864 2.7505 6.252 6.6992 6.4956 11.8452Z" fill="url(#d)"/><path d="M103.5746 88.5379h-7.143l3.6787-10.067 3.4643 10.067Zm-9.7705 7.0659h12.2417l.9536 2.8076h12.0864L107.4472 69.779H93.2987L80.8231 98.4114h11.9497l1.0313-2.8076Z" fill="url(#e)"/><path d="M170.7797 101.7278h-13.9404V65.9383h13.9404v12.39h15.9097v-12.39h13.9394v35.7895h-13.9394V87.258h-15.9097v14.4697Z" fill="url(#f)"/><path d="M131.1703 77.3597c0-1.3628 1.1992-2.0445 3.5972-2.0445v4.0454c-2.398-.0566-3.5972-.7231-3.5972-2.001Zm6.6802 10.4126c2.2973 0 3.4468.7314 3.4468 2.1938 0 1.3628-1.207 2.0732-3.6192 2.1289l-.0205-4.3227h.193Zm.6416 11.5629c10.6465-.171 15.9707-3.627 15.9707-10.3711 0-3.0371-1.267-5.2592-3.8003-6.664-2.5327-1.4058-6.8682-2.2715-13.0049-2.5977l.0205-4.2168c1.9126.142 3.0117 1.0713 3.2974 2.789h12.524c-.6139-6.2606-5.6163-9.476-15.0074-9.647v-2.8314h-4.517v2.8315c-5.0094.1284-8.8697 1.0376-11.5816 2.726-2.712 1.69-4.0679 4.0392-4.0679 7.0489 0 2.8687 1.1987 4.9732 3.5967 6.314 2.398 1.3408 6.6792 2.2612 12.8452 2.7583v4.535c-2.0552-.0555-3.226-1.0282-3.5108-2.9173h-13.1025c.3564 3.3222 1.8198 5.8603 4.3887 7.6128 2.5693 1.7544 6.123 2.6298 10.6616 2.6298h.7705v3.2373h4.5171v-3.2373Z" fill="url(#g)"/></g><path d="M192.994 10.9754c.1661.955.3121 2.1958-.457 2.9399-.208.3247.0405.6875.3316.7832.7285.038 1.56-.0195 2.2866-.1723l13.4682-1.0308c10.2461-.439 19.4126-.7822 29.7828.3057.998.4389 1.7875 1.4702 2.0371 2.4624.0625.745.0835 1.5278-.394 2.2148l-.457.1914c-3.3883 0-6.7135-.1914-9.9347-.5542l-1.435-1.1836c-13.7168-.63-28.2037.9927-41.6299 2.9976-4.6553 4.811-9.124 9.813-13.2608 14.8725-2.7226 3.188-5.4028 6.357-7.9184 9.7359-.0415.2676.021.5732.333.6494 1.2876-.1528 2.2021-1.2793 3.2632-1.7944 2.1816-1.585 4.5717-2.6348 6.734-4.3721 1.7655-2.2715 4.1356-4.811 6.4012-6.7393l.0625.0762c3.7407-3.4937 8.064-6.6055 12.4903-9.2021 2.8066-1.0874 6.1108-2.711 9.2695-1.3741 2.5571 1.145 5.8208 2.6729 6.4028 5.517-.063.8976-1.3525 1.069-.978 2.043.603.916 1.3511 2.2144.853 3.436-5.1548 4.8116-9.3535 9.8517-13.5932 15.1779-.977 1.4892-2.2447 2.539-3.0762 4.0859-.1865.3242.063.668.396.7822 4.0527-.706 7.855-1.9472 11.8877-2.6533 11.9511-2.4438 23.9643-4.6968 36.4135-5.9946 2.4727-.0767 5.902-1.3174 7.773.5913 1.0806 1.1269 1.9746 2.31 1.9541 3.8569-.1875.7637-.146 1.7754-1.1646 1.9092-3.8862.3813-7.6894.935-11.639 1.145-1.2047-.1904-1.8287-1.5078-3.0758-1.7373-2.806-.3628-5.3623.5728-8.1055.7832-6.5473 1.0689-13.0112 2.329-19.3916 3.7798-6.4223 1.2026-12.4287 3.3223-18.8925 4.4292-1.4136-.0762-2.2857-1.317-2.9507-2.3291-1.5806-2.2334-.2085-4.9824.8515-7.026.2281-.8012 1.4971-1.6224.6651-2.4052-.9556-.1528-1.247.8589-1.974 1.2603-2.8268 2.348-5.695 4.62-9.2697 5.708-2.058.0767-3.6162-2.004-4.3867-3.417-.4145-.9736-.5186-2.043-.643-3.1313-.6656-.9161-1.538.1718-2.2867.2485-4.7807 2.9399-8.812 6.2617-13.2602 9.6597-2.4517.1533-3.3662-2.3482-4.1978-3.8946-.2495-.649-.083-1.4121.0625-2.0424 6.7954-9.5455 14.5068-18.9576 22.4873-28.1592.0635-.3252-.0615-.6494-.394-.7832-1.768.248-3.4712.9736-5.2998.7832-1.2276-.9551-1.9336-2.502-1.4356-4.086.23-.3437.5625-.649.978-.7827 4.1563-.8594 8.438-1.4126 12.6158-2.2148 2.9301-2.8067 5.5078-5.8418 8.77-8.4 1.6841.1143 2.4741 1.8326 2.9311 3.0543Zm11.3692 14.1089c-2.9932 1.0312-5.9448 2.4052-8.5635 4.0278-6.8589 4.8686-14.6523 10.5005-18.041 17.6406.0415.3628.416.668.8535.5347 7.9185-4.0093 15.296-9.4888 22.0928-15.3496.395-.5728-.458-.8213-.2705-1.3936.644-2.463 4.3232-2.5967 4.6557-5.0976-.125-.2666-.4355-.3623-.727-.3623Zm-59.2764 42.0776c-2.9717-2.3486-6.6094-4.4868-9.664-6.8926-2.7232-1.8325-5.6739-3.4936-8.3555-5.1167-4.8633-2.7871-9.955-5.9565-15.1094-8.4-.9355-.229-1.081.8209-1.497 1.2599-2.6812 4.2959-4.8839 8.7822-7.378 13.1538-.104.0957-.312.2485-.4575.3633-2.0366.0376-3.4707-1.4888-4.5098-2.94-1.4966-1.9668.7066-3.5698 1.3721-5.231 5.5488-9.7753 11.7007-19.626 18.1645-29.0575 3.1592-4.4288 6.2354-8.7246 9.4776-12.963.021.0767-.0625.191.062.248 2.6606-3.264 5.3208-6.6434 8.1685-9.7362.332-.2481.914-.3247 1.3095-.1143 1.5801.8399 2.4947 2.2715 2.9922 3.7803.4155 1.2593-.0625 2.4619-.83 3.417-4.0333 4.7539-8.0235 9.3164-11.6402 14.1084 0-.0571.021-.1338-.062-.172-.7276.9166-1.4756 1.7565-1.9746 2.8258.0415.229.187.5156.4575.5342.769-.1333 1.2471-.8203 1.9116-.897 1.8921-1.2793 3.9077-2.31 6.132-2.8828 2.889.0195 4.1776 2.6728 5.0287 4.6777 1.0615 3.3599-1.5577 5.746-3.5118 8.0943-2.3276 2.5009-5.3413 4.811-7.9814 6.7968.021-.0576-.02-.0957-.062-.1342-1.621 1.2412-3.0757 2.3867-4.7798 3.4365-.084.229-.4575.5156-.125.7832 1.6421 1.0312 3.2002 2.0044 4.8423 2.9399-.0205.0572.0215.0762.0625.1148.042-.0386.083-.0576.062-.1148 2.1196 1.4507 4.5942 2.539 6.5264 4.0093.2705.0957.354-.191.54-.2866-.1445-.9927-.914-1.5845-1.309-2.4624-1.2887-4.3721 1.3725-8.4385 3.7206-12.0088 3.3252-4.5815 7.711-9.5078 12.7398-13.02 2.6401-1.6421 5.7158-4.1812 9.145-2.5396 2.0581.9356 4.0942 2.8448 4.4482 4.9829.25 2.539-1.0595 4.6016-2.0366 6.7393-3.8657 6.415-9.02 11.8179-15.2764 16.915-1.974 1.5464-4.1772 2.768-6.4008 3.8374-.4375.0953-.978.21-1.122.6685.518.916 1.7655 1.8135 2.6801 2.4624 3.0761 2.4443 6.4424 4.9448 9.0825 8.0376.2495.248.083.6484.1245.9736-.8306.6866-2.0776.4009-3.2002.4776m9.8101-39.9776c-1.1436-.1718-1.9742.706-2.9517 1.0694-5.2788 3.5127-9.83 8.037-13.0518 13.3256-1.1435 2.1573-2.868 4.2764-2.8266 6.8536.166.5537.9145.4204 1.3716.3628 3.8867-2.482 7.1914-6.1094 10.2675-9.3736 1.5582-2.501 5.2994-4.296 4.5718-7.6748.5196-1.5845 2.5362-2.5771 2.8892-4.2002l-.27-.3628Zm-23.4654-.7251c-2.12.954-4.0942 2.3482-6.0068 3.665-.041-.038-.0825-.0761-.062-.1147-4.3853 3.2456-8.854 6.854-12.7403 10.73l-.0625.4194c.3116.6304 1.1221.5923 1.7457.477 4.2397-1.4696 7.4614-4.0658 10.8496-7.0063l.2695-.0761v.076c1.4761-1.3168 2.9932-2.596 4.3027-3.9706.9356-1.0503 2.1617-2.31 2.4317-3.7802-.1455-.229-.395-.4771-.7276-.4195ZM85.2191 11.5037c3.4917 3.3989 3.6372 9.3735 1.6421 13.498-1.9746 4.7725-6.2563 8.7247-10.1425 12.543-12.3663 11.474-27.331 19.4346-42.919 26.0596-4.6138 1.6035-9.062 3.7417-14.2578 3.8945-1.621-.668-1.6626-2.4243-2.224-3.837-.4362-2.2338.52-4.4867 2.432-5.938 3.3047-3.016 7.295-5.1351 11.3066-7.083 2.8472-4.0473 5.4248-8.1898 8.4175-12.0077 5.8604-8.3814 11.7012-16.7627 18.4351-24.9722 1.1225-1.4316 2.3691-2.8633 3.5332-4.3906.374-.3628 1.0805-.3628 1.5586-.172 1.9746 1.4703 2.4941 4.0089 1.8291 6.3004C57.2855 24.868 50.7177 34.6233 43.7343 44.57c-.083.3247.0835.5918.3745.725l.7275-.057c6.6504-2.3477 13.4468-4.3526 20.2642-6.2998 6.318-5.174 12.6157-10.7671 16.1904-17.8311 1.5381-2.6352 1.2061-6.415-.7065-8.7632-1.517-1.6035-3.5332-2.73-5.6949-3.4175-18.331-4.7348-37.3906.0762-52.666 7.6749-2.889 1.5463-5.9028 3.0356-8.688 4.9257-.811.9732-.499 2.539-1.434 3.4746-2.9512 2.1573-6.4639 4.1045-9.935 5.5938-.332.1714-.9142.1714-1.2467 0-1.2265-1.4512-.9565-3.838-.707-5.5938.5615-1.356 1.1016-2.8256 2.4731-3.7802C13.5561 14.6922 25.1122 10.072 37.25 6.3304c11.0156-3.3985 25.107-5.0215 36.7876-1.8521 4.3647 1.2983 8.147 3.685 11.1816 7.0254Zm17.5308 15.146c-3.0757-2.0811-7.0659-.3628-9.872 1.0688-6.9005 4.105-13.6549 9.2212-18.477 15.3687-2.6183 3.6655-5.4659 7.4458-6.422 11.8364-.561 1.7754.3325 3.3413 1.5171 4.563 1.1846 1.0879 2.7021 2.043 4.4482 1.6797 5.8814-1.9087 9.8721-6.586 14.0288-10.7481l.3951-.0571c.3115-.019.3325.2862.3945.4776-.7686 2.4243-2.8262 4.6582-2.0156 7.388.8105 1.3747 1.4546 3.5509 3.5952 3.5324.374-.153.582-.4204.8525-.7256 1.8491-3.876 3.9068-7.6944 5.944-11.5122 3.1175-5.9756 6.7342-12.0283 10.2465-17.8887.478-1.604-.3946-3.0552-1.4966-4.1431-.5196-.2861-1.1436-.229-1.704-.0566l-1.4347-.7832Zm-2.2236 3.8374c-.1245 1.2217-1.2266 2.1572-1.8286 3.2456-6.0899 7.8076-13.6553 16.3223-22.4053 21.5537-.769.1152-1.517 1.2222-2.1616.2866.748-2.2143 2.0786-4.067 3.2631-6.1093 5.1958-8.152 12.6783-16.1705 22.5503-19.2823.187.1148.5406.019.5821.3057ZM58.0961 43.0813c-6.2769 2.1763-12.5742 4.372-18.497 7.3692-.5826.8022-1.185 1.661-1.7467 2.4052-.748 1.2798-1.683 2.3106-2.2236 3.6656.062.286.2705.3818.582.4199 7.69-3.6274 14.902-8.0186 21.7603-12.6001.2705-.229.686-.5151.728-.9165-.042-.229-.312-.42-.603-.3433Zm-27.58 12.2373c-2.5567 1.5274-4.8014 3.2452-6.9835 5.3457-.0415.3628-.2285.706.062 1.0118.2495.2295.6861.2099.9771.1337 3.1797-1.0498 6.2973-2.2338 9.2905-3.7226l.124-.5532c-.1865-.2867-.5815-.402-.914-.5352-1.018-.439-1.309-1.7378-2.5562-1.6802Z"/><path d="M192.994 9.3626c.1661.9546.3121 2.1953-.457 2.9399-.208.3247.0405.687.3316.7823.7285.0385 1.56-.0186 2.2866-.1714l13.4682-1.0308c10.2461-.4394 19.4126-.7832 29.7828.3052.998.4394 1.7875 1.4702 2.0371 2.4629.0625.7446.0835 1.5273-.394 2.2143l-.457.1914c-3.3883 0-6.7135-.1914-9.9347-.5537l-1.435-1.1841c-13.7168-.6298-28.2037.9932-41.6299 2.9976-4.6553 4.811-9.124 9.813-13.2608 14.872-2.7226 3.1885-5.4028 6.358-7.9184 9.7369-.0415.267.021.5727.333.6489 1.2876-.1528 2.2021-1.2793 3.2632-1.7944 2.1816-1.585 4.5717-2.6343 6.734-4.3721 1.7655-2.272 4.1356-4.811 6.4012-6.7393l.0625.0762c3.7407-3.4936 8.064-6.6054 12.4903-9.2016 2.8066-1.088 6.1108-2.711 9.2695-1.3746 2.5571 1.1456 5.8208 2.6724 6.4028 5.517-.063.8976-1.3525 1.0695-.978 2.0436.603.916 1.3511 2.2139.853 3.436-5.1548 4.811-9.3535 9.851-13.5932 15.1778-.977 1.4892-2.2447 2.5385-3.0762 4.0854-.1865.3247.063.668.396.7827 4.0527-.7065 7.855-1.9477 11.8877-2.6538 11.9511-2.4433 23.9643-4.6968 36.4135-5.9946 2.4727-.0762 5.902-1.317 7.773.5923 1.0806 1.126 1.9746 2.3095 1.9541 3.8554-.1875.7637-.146 1.7759-1.1646 1.9097-3.8862.3818-7.6894.9356-11.639 1.1455-1.2047-.191-1.8287-1.5083-3.0758-1.7378-2.806-.3628-5.3623.5733-8.1055.7837-6.5473 1.0684-13.0112 2.3286-19.3916 3.7798-6.4223 1.2026-12.4287 3.3213-18.8925 4.4292-1.4136-.0767-2.2857-1.3174-2.9507-2.3296-1.5806-2.234-.2085-4.9824.8515-7.026.2281-.8011 1.4971-1.622.6651-2.4047-.9556-.1528-1.247.8589-1.974 1.2598-2.8268 2.3482-5.695 4.62-9.2697 5.7085-2.058.0762-3.6162-2.0044-4.3867-3.417-.4145-.9741-.5186-2.0434-.643-3.1313-.6656-.9165-1.538.1714-2.2867.248-4.7807 2.94-8.812 6.2617-13.2602 9.6602-2.4517.1528-3.3662-2.3482-4.1978-3.895-.2495-.649-.083-1.4126.0625-2.0425 6.7954-9.5454 14.5068-18.9575 22.4873-28.1597.0635-.3242-.0615-.6494-.394-.7827-1.768.248-3.4712.9736-5.2998.7827-1.2276-.9546-1.9336-2.5015-1.4356-4.0854.23-.3433.5625-.649.978-.7828 4.1563-.8588 8.438-1.4126 12.6158-2.2148 2.9301-2.8066 5.5078-5.8418 8.77-8.4 1.6841.1144 2.4741 1.833 2.9311 3.0548Zm11.3692 14.1084c-2.9932 1.0307-5.9448 2.4053-8.5635 4.0278-6.8589 4.8687-14.6523 10.5005-18.041 17.6406.0415.3628.416.6685.8535.5347 7.9185-4.0093 15.296-9.4883 22.0928-15.3496.395-.5723-.458-.8208-.2705-1.3936.644-2.4628 4.3232-2.5966 4.6557-5.0971-.125-.2671-.4355-.3628-.727-.3628Zm-59.2764 42.077c-2.9717-2.348-6.6094-4.4862-9.664-6.892-2.7232-1.8325-5.6739-3.4931-8.3555-5.1162-4.8633-2.7871-9.955-5.957-15.1094-8.4004-.9355-.229-1.081.8213-1.497 1.2603-2.6812 4.2954-4.8839 8.7822-7.378 13.1538-.104.0952-.312.248-.4575.3628-2.0366.038-3.4707-1.4888-4.5098-2.94-1.4966-1.9667.7066-3.5703 1.3721-5.2314 5.5488-9.7744 11.7007-19.6255 18.1645-29.0566 3.1592-4.4292 6.2354-8.7246 9.4776-12.9634.021.0766-.0625.1914.062.248 2.6606-3.2641 5.3208-6.6435 8.1685-9.7358.332-.249.914-.3252 1.3095-.1152 1.5801.8403 2.4947 2.2724 2.9922 3.7802.4155 1.2603-.0625 2.4629-.83 3.4175-4.0333 4.7534-8.0235 9.3164-11.6402 14.1084 0-.0571.021-.1338-.062-.172-.7276.9166-1.4756 1.757-1.9746 2.8258.0415.229.187.5152.4575.5347.769-.1333 1.2471-.8208 1.9116-.8975 1.8921-1.2793 3.9077-2.31 6.132-2.8828 2.889.019 4.1776 2.6729 5.0287 4.6778 1.0615 3.3598-1.5577 5.746-3.5118 8.0942-2.3276 2.5015-5.3413 4.811-7.9814 6.7969.021-.0577-.02-.0957-.062-.1338-1.621 1.2407-3.0757 2.3862-4.7798 3.436-.084.2295-.4575.5156-.125.7832 1.6421 1.0308 3.2002 2.0044 4.8423 2.9404-.0205.0572.0215.0762.0625.1143.042-.0381.083-.0571.062-.1143 2.1196 1.4502 4.5942 2.5386 6.5264 4.0088.2705.0957.354-.191.54-.2861-.1445-.9932-.914-1.585-1.309-2.463-1.2887-4.372 1.3725-8.4384 3.7206-12.0087 3.3252-4.5815 7.711-9.5073 12.7398-13.02 2.6401-1.6421 5.7158-4.1812 9.145-2.5396 2.0581.9356 4.0942 2.8453 4.4482 4.9834.25 2.539-1.0595 4.6006-2.0366 6.7393-3.8657 6.4146-9.02 11.8174-15.2764 16.9146-1.974 1.5463-4.1772 2.7685-6.4008 3.8374-.4375.0957-.978.2099-1.122.6684.518.9165 1.7655 1.8135 2.6801 2.4629 3.0761 2.4434 6.4424 4.9443 9.0825 8.037.2495.2487.083.649.1245.9737-.8306.6875-2.0776.4009-3.2002.477m9.8101-39.977c-1.1436-.1718-1.9742.7066-2.9517 1.0689-5.2788 3.5137-9.83 8.038-13.0518 13.3262-1.1435 2.1572-2.868 4.2763-2.8266 6.854.166.5532.9145.4194 1.3716.3623 3.8867-2.482 7.1914-6.1094 10.2675-9.3736 1.5582-2.501 5.2994-4.2954 4.5718-7.6748.5196-1.5844 2.5362-2.5771 2.8892-4.2002l-.27-.3628Zm-23.4654-.725c-2.12.954-4.0942 2.348-6.0068 3.665-.041-.0376-.0825-.0762-.062-.1143-4.3853 3.2456-8.854 6.8535-12.7403 10.729l-.0625.4204c.3116.6299 1.1221.5914 1.7457.477 4.2397-1.4696 7.4614-4.0663 10.8496-7.0067l.2695-.0762v.0762c1.4761-1.317 2.9932-2.5962 4.3027-3.9707.9356-1.0503 2.1617-2.3101 2.4317-3.7803-.1455-.229-.395-.4771-.7276-.4194ZM85.2191 9.8909c3.4917 3.3984 3.6372 9.374 1.6421 13.4976-1.9746 4.7729-6.2563 8.725-10.1425 12.5429-12.3663 11.4737-27.331 19.435-42.919 26.06-4.6138 1.6036-9.062 3.7413-14.2578 3.894-1.621-.6678-1.6626-2.4242-2.224-3.8368-.4362-2.234.52-4.4868 2.432-5.9375 3.3047-3.0166 7.295-5.1357 11.3066-7.083 2.8472-4.0478 5.4248-8.1904 8.4175-12.0083C45.3344 28.639 51.1752 20.257 57.9091 12.048c1.1225-1.4321 2.3691-2.8633 3.5332-4.3911.374-.3628 1.0805-.3628 1.5586-.172 1.9746 1.4704 2.4941 4.0089 1.8291 6.3004-7.5445 9.4693-14.1123 19.225-21.0957 29.1719-.083.3242.0835.5918.3745.725l.7275-.057c6.6504-2.3482 13.4468-4.353 20.2642-6.3003 6.318-5.1738 12.6157-10.7676 16.1904-17.8311 1.5381-2.6347 1.2061-6.415-.7065-8.7632-1.517-1.6035-3.5332-2.7294-5.6949-3.417-18.331-4.7348-37.3906.0762-52.666 7.6749-2.889 1.5463-5.9028 3.035-8.688 4.9253-.811.9736-.499 2.539-1.434 3.4746-2.9512 2.1572-6.4639 4.1045-9.935 5.5937-.332.1714-.9142.1714-1.2467 0-1.2265-1.4507-.9565-3.8374-.707-5.5937.5615-1.3555 1.1016-2.8252 2.4731-3.7803C13.5561 13.0789 25.1122 8.4588 37.25 4.717 48.2655 1.3186 62.357-.3044 74.0375 2.865c4.3647 1.2984 8.147 3.6846 11.1816 7.0259Zm17.5308 15.145c-3.0757-2.0805-7.0659-.3628-9.872 1.0698-6.9005 4.1045-13.6549 9.2212-18.477 15.3682-2.6183 3.6655-5.4659 7.4458-6.422 11.8369-.561 1.7749.3325 3.3408 1.5171 4.5625 1.1846 1.0889 2.7021 2.043 4.4482 1.6802 5.8814-1.9087 9.8721-6.5864 14.0288-10.7485l.3951-.0572c.3115-.0195.3325.2867.3945.4776-.7686 2.4243-2.8262 4.6577-2.0156 7.3882.8105 1.3745 1.4546 3.5507 3.5952 3.5322.374-.1528.582-.4204.8525-.7261 1.8491-3.8755 3.9068-7.6938 5.944-11.5122 3.1175-5.9751 6.7342-12.0268 10.2465-17.8882.478-1.604-.3946-3.0547-1.4966-4.143-.5196-.2862-1.1436-.229-1.704-.0572l-1.4347-.7832Zm-2.2236 3.8379c-.1245 1.2217-1.2266 2.1572-1.8286 3.2456-6.0899 7.808-13.6553 16.3233-22.4053 21.5537-.769.1148-1.517 1.2222-2.1616.2867.748-2.215 2.0786-4.066 3.2631-6.1094 5.1958-8.152 12.6783-16.1704 22.5503-19.2822.187.1147.5406.019.5821.3056ZM58.0961 41.468c-6.2769 2.1757-12.5742 4.372-18.497 7.369-.5826.8023-1.185 1.6612-1.7467 2.4054-.748 1.2793-1.683 2.3105-2.2236 3.666.062.286.2705.3818.582.4199 7.69-3.628 14.902-8.0186 21.7603-12.6006.2705-.229.686-.5151.728-.9165-.042-.229-.312-.42-.603-.3432Zm-27.58 12.2373c-2.5567 1.5273-4.8014 3.2456-6.9835 5.3457-.0415.3628-.2285.706.062 1.0117.2495.229.6861.2104.9771.1338 3.1797-1.0503 6.2973-2.234 9.2905-3.7227l.124-.5537c-.1865-.2866-.5815-.4014-.914-.5347-1.018-.4394-1.309-1.7373-2.5562-1.6801Z" fill="#d71920"/></g></svg>