<svg id="b" xmlns="http://www.w3.org/2000/svg" viewBox="0 0 677.11 223.21"><defs><style>.e{stroke:#0377bd;stroke-miterlimit:10;stroke-width:.86335px}.e,.f{fill:#0377bd}.g{fill:#ee3325}.h{fill:#0b9ad6}</style></defs><g id="c"><rect x="14.87" y="42.99" width="149.95" height="177.81" rx="74.97" ry="74.97" fill="#fff"/><path class="f" d="m542.22 61.9.11 1.44c-1.73.15-3.46.32-5.18.5l-.13-1.41 1.35-.15-.62-1.38-2.75.31c-.15.5-.3 1-.43 1.49l1.4-.16.14 1.4c-1.56.16-3.11.34-4.67.52l-.14-1.38 1.3-.15 1.55-5.72-1.42.2-.13-1.4c2.33-.33 4.67-.63 7-.92l.12 1.43-1.44.17c.9 1.76 1.8 3.54 2.68 5.34l1.26-.12Zm-5.01-2.18-1.11-2.4c-.25.88-.5 1.75-.73 2.62l1.84-.22ZM542.75 63.3l-.11-1.43 1.51-.14-.4-5.66-1.52.16-.1-1.44c1.96-.22 3.93-.44 5.9-.63l.08 1.47-1.56.15.36 5.72 3.12-.24-.15-2.7 2.08-.17.21 4.2c-3.14.2-6.28.44-9.42.71ZM552.78 62.56l-.08-1.49 1.52-.1c-.1-1.95-.18-3.9-.27-5.86l-1.53.13-.07-1.5c1.96-.17 3.93-.33 5.9-.48l.06 1.52-1.57.12.23 5.91 3.13-.16-.09-2.79 2.08-.1c.03 1.44.07 2.89.12 4.33-3.15.12-6.29.27-9.43.47ZM567 61.95l-.06-3.14 1.8-.06c.03.58.21 1 .54 1.26.33.27.7.4 1.11.39.33 0 .6-.11.82-.32a.93.93 0 0 0 0-1.42c-.22-.19-.62-.4-1.2-.63a9.77 9.77 0 0 1-2.53-1.29c-.45-.38-.68-.9-.69-1.57a2.3 2.3 0 0 1 .86-1.92 3.33 3.33 0 0 1 2-.76c.85-.04 1.51.22 1.98.79v-.78l1.82-.07v2.87l-1.8.05a1.46 1.46 0 0 0-.53-1 1.5 1.5 0 0 0-1.02-.32c-.3 0-.55.09-.75.23-.2.15-.3.34-.3.56 0 .2.08.37.25.53.17.17.67.4 1.5.68a12 12 0 0 1 1.81.79 2.56 2.56 0 0 1 1.37 2.33c0 .93-.3 1.63-.9 2.1-.62.48-1.33.72-2.16.74a2.63 2.63 0 0 1-2.15-.87l.01.79c-.6 0-1.19.02-1.78.04ZM576.78 61.83l.01-1.6h1.59l.06-6.33-1.6.03-.02 2.22-1.84.03.02-3.8c3.25-.1 6.5-.17 9.75-.19a4789 4789 0 0 0-.1 3.91h-1.8c0-.75.02-1.5.04-2.26l-1.66.02-.1 6.38 1.59.01-.03 1.63c-1.97-.03-3.94-.05-5.9-.05ZM595.42 60.6l-.08 1.7c-1.72-.09-3.44-.16-5.16-.22l.06-1.67 1.35.04-.44-1.71-2.75-.07-.61 1.67 1.4.04-.05 1.66-4.65-.12c0-.55.02-1.1.03-1.64l1.31.02 2.26-6.46h-1.42l.04-1.66a395 395 0 0 1 7.02.05l-.07 1.69-1.44-.03c.66 2.2 1.3 4.43 1.94 6.66l1.26.06Zm-4.65-3.33-.78-3-1.06 2.96 1.84.04ZM606.73 61.27l-.12 1.75a383.4 383.4 0 0 0-3.2-.24c-.68-1.55-1.38-3.09-2.09-4.61-.4-.02-.8-.05-1.21-.06l-.16 2.72 1.32.08-.1 1.72a384.2 384.2 0 0 0-5.49-.31l.08-1.7 1.45.07.35-6.67-1.47-.04.08-1.7c2.16.05 4.32.11 6.48.2 1.22.04 2.08.37 2.57.99.5.61.72 1.3.66 2.04-.08 1.17-.75 2-2.01 2.46l1.5 3.2 1.36.1Zm-6.53-4.79.95.05c1.17.05 1.78-.32 1.84-1.12.02-.4-.1-.7-.35-.91-.26-.2-.62-.32-1.1-.34l-1.2-.05-.14 2.37ZM610.94 63.38l.14-1.76 1.3.11.58-6.94-1.3-.09.14-1.77 4.89.33c1.08.08 1.88.21 2.4.38a2.64 2.64 0 0 1 1.68 2.78c-.12 1.04-.7 1.73-1.73 2.06 1.22.6 1.77 1.52 1.64 2.75a2.9 2.9 0 0 1-2.37 2.62 9.8 9.8 0 0 1-2.6 0c-1.6-.17-3.18-.32-4.77-.47Zm4.16-1.4.77.08c.7.07 1.2.02 1.5-.16.29-.18.46-.52.5-1.04.06-.53-.05-.93-.33-1.17-.28-.25-.75-.4-1.4-.46l-.78-.07-.26 2.82Zm.42-4.6.78.06c.54.05.94 0 1.21-.17.27-.16.43-.47.48-.94.04-.42-.06-.73-.29-.92-.23-.2-.65-.32-1.27-.36l-.7-.06-.21 2.39ZM629 54.2c1.84.2 3.22.9 4.13 2.13a5.6 5.6 0 0 1 1.05 4.22 5.64 5.64 0 0 1-2.07 3.8 5.55 5.55 0 0 1-4.43 1.05c-1.86-.25-3.23-.99-4.1-2.2a5.67 5.67 0 0 1-1.1-4.06 5.47 5.47 0 0 1 1.99-3.76A5.84 5.84 0 0 1 629 54.2Zm-.23 1.99a2.73 2.73 0 0 0-2.19.71c-.63.57-1.02 1.45-1.15 2.65a3.82 3.82 0 0 0 .54 2.65c.48.7 1.12 1.11 1.94 1.22.8.1 1.52-.12 2.15-.68.64-.56 1.04-1.43 1.19-2.63a3.98 3.98 0 0 0-.5-2.69 2.58 2.58 0 0 0-1.98-1.23ZM634.63 66.27l.24-1.87 1.4.2 1-7.35-1.42-.19.25-1.87 4.47.58c.97 2.5 1.92 5.04 2.84 7.59l.78-5.13-1.38-.2.29-1.9c1.58.22 3.17.46 4.75.7l-.3 1.92-1.48-.23-1.47 9.5-2.3-.42a383.95 383.95 0 0 0-3.3-9.01l-.88 6.3 1.3.2-.26 1.9c-1.51-.25-3.02-.5-4.53-.72ZM648.04 58.83l.3-1.92c1.7.26 3.37.54 5.06.82l-.34 1.95-1.03-.18-.87 5.19c-.12.69-.17 1.2-.17 1.5 0 .32.1.6.28.84.2.24.46.4.8.46.35.07.66.03.92-.1.27-.15.46-.36.57-.62.12-.27.25-.84.4-1.7l.88-5.08-1.02-.18.34-1.95 4.2.75-.36 1.96-1.28-.24-1.03 5.8a9.43 9.43 0 0 1-.41 1.7 2.65 2.65 0 0 1-2 1.58c-.55.11-1.15.1-1.8-.03a5 5 0 0 1-1.88-.74 2.9 2.9 0 0 1-1.04-1.17c-.2-.45-.3-.87-.31-1.27-.02-.4.05-1.07.2-2l.84-5.16-1.25-.2ZM657.21 70.43l.72-3.97 1.75.37c-.11.73-.04 1.3.2 1.71.26.41.59.66.99.75.31.07.6 0 .87-.2a1.39 1.39 0 0 0 .35-1.79c-.17-.28-.5-.65-1.01-1.08a9.8 9.8 0 0 1-2.13-2.23 3.05 3.05 0 0 1-.27-2.14 3.18 3.18 0 0 1 1.29-2.2c.68-.45 1.38-.6 2.12-.47.83.17 1.41.66 1.73 1.48l.19-.98 1.77.36-.7 3.59-1.76-.37a2.17 2.17 0 0 0-.26-1.39 1.35 1.35 0 0 0-.9-.65 1.1 1.1 0 0 0-.8.12.86.86 0 0 0-.42.62c-.05.24 0 .49.12.74.12.24.55.65 1.27 1.21.7.55 1.22 1.02 1.57 1.42.34.4.59.88.73 1.43.14.56.14 1.16.01 1.82-.23 1.17-.7 1.97-1.4 2.43-.7.45-1.45.58-2.25.4a2.5 2.5 0 0 1-1.86-1.6l-.18 1-1.74-.38Z"/><g><path class="g" d="m663.95 53.68 2.37-16.24a488.8 488.8 0 0 0-145.78.63 37.34 37.34 0 0 1 8.41 15.34 472.46 472.46 0 0 1 135 .27ZM529.86 67.74a31.56 31.56 0 0 1-8.47 17.4c47.59-5.55 95.4-3.35 142.17 6.58l3.4-16.05a454.82 454.82 0 0 0-137.1-7.93ZM171.08 131.26c3.92-.68 7.84-1.33 11.76-2 13.1-2.24 26.2-4.42 39.31-6.48l-1.28-29.84c-7.56.9-15.13 1.82-22.7 2.78l-2.94-71.11c-9.46.34-18.92.73-28.38 1.17a262141.96 262141.96 0 0 0 4.23 105.48ZM269.93 118c25.66-3.97 41.7-24.15 40.36-51.52-1.34-27.5-18.9-45.85-44.33-45.86-26.57 0-42.3 20.38-40.93 52.3 1.34 31.5 19.02 49.1 44.9 45.09Zm-3.3-67.33c7.5-.35 12.72 6.83 13.24 18.02.51 11.05-4.03 18.75-11.41 19.55-7.5.8-12.58-5.88-13.1-17.51-.53-11.77 4.01-19.71 11.28-20.06ZM328.37 47.48l3 60.01c9.45-1.14 18.91-2.23 28.38-3.28l-3-57.43c3.87-.08 7.74-.14 11.61-.2l4.06-.08-1.23-23.12-4.03-.07c-18.67-.4-37.35-.64-56.03-.69l1.23 25.37c5.34-.18 10.67-.36 16-.51ZM379.5 46.44l11.96-.14 3 54.41c9.46-.94 18.92-1.84 28.38-2.7l-3-51.83c5.23 0 10.45.03 15.67.06l-1.23-20.83c-18.66-.81-37.32-1.43-55.98-1.88l-4.07-.12c.4 7.7.82 15.4 1.23 23.07l4.03-.04ZM484.26 94.7c14.3-1.2 25.6-5.83 32.58-12.94a26.62 26.62 0 0 0 7.76-21.1 31.06 31.06 0 0 0-1.15-6.43 32.85 32.85 0 0 0-9.6-15.1c-7.84-7.18-19.5-11.89-33.57-12.9-26.57-1.9-42.29 11.75-40.93 34.8 1.34 22.76 19.03 35.81 44.9 33.66Zm9.93-34.05c.51 7.7-4.03 12.88-11.41 13.14-7.5.26-12.58-4.65-13.1-12.9-.53-8.35 4.01-13.7 11.28-13.53 7.49.18 12.71 5.49 13.23 13.3ZM219 141.03a2308.92 2308.92 0 0 0-36.79 7.15 5981.96 5981.96 0 0 1-17.26 64.14 2240.2 2240.2 0 0 1 28.7-3.33l1.75-9.77c5.8-.7 11.62-1.4 17.43-2.06l2.9 9.52c8.89-.88 17.78-1.71 26.68-2.49l2.33-.2c-.93-2.38-1.87-4.7-2.8-7.06a2554.39 2554.39 0 0 0-22.95-55.9Zm-18.86 28.4.75-5.94.6-6.42 1.32 6 1.3 5.74 3.93 12.79c-3.32.46-6.64.92-9.96 1.4l2.06-13.56ZM300.68 127.37a12925.3 12925.3 0 0 1-6.82 35.83c-3.78-11.18-7.57-22.2-11.36-33.05-12.49 1.96-24.97 4.03-37.45 6.2l3.71 59.02.52 8.22 2.33-.19c8.03-.67 16.07-1.3 24.1-1.88l-1.62-26.8c-.25-4.19-.44-7.32-.69-9.5-.14-.4-.38-2.47-.94-6.08a95.76 95.76 0 0 1-.62-4.53l1.42 4.43 1.85 5.98 2.96 9.27c3.15 8.69 6.3 17.49 9.45 26.4 5.8-.39 11.59-.75 17.38-1.1a12487.59 12487.59 0 0 0 7.3-37.55c.25-1.57.58-3.8.98-6.71l.8-5.94c-.03 7.29-.1 9.94-.04 13.03.05 2.87.12 6.06.32 9.58l1.55 26.97c8.95-.5 17.89-.93 26.84-1.3-1.41-25.33-2.83-50.53-4.24-75.6a2301.96 2301.96 0 0 0-37.73 5.3ZM379.92 174.47l-.44-8.18c7.62-.46 15.25-.87 22.87-1.25L401.31 145c-7.63.55-15.25 1.13-22.88 1.75l-.4-7.57c8.34-.75 16.69-1.46 25.03-2.12l-1.17-22.46c-17.6 1.83-35.2 3.86-52.8 6.1 1.42 25.39 2.83 50.9 4.24 76.54 17.82-.68 35.65-1.14 53.47-1.4l-1.16-22.5c-8.58.33-17.15.71-25.72 1.14ZM472.23 160.58c3.75-2.57 4.94-3.79 6.96-6.74 3.53-4.83 5.37-11.53 5.07-17.9-.43-9-5.42-17.91-12.47-22.01-6.57-3.74-12.33-4.6-24.73-3.57-11.8.99-23.6 2.07-35.4 3.24a175647 175647 0 0 1 4.24 82.12c9.3-.1 18.6-.13 27.88-.11l-1.32-26.6 4.66-.1c4.2 8.8 8.4 17.73 12.6 26.79 9.86.09 19.72.25 29.59.47l2.15.04-2.36-4.44c-5.62-10.59-11.25-21-16.87-31.2Zm-28.5-27.9c3.86-.24 5-.18 6.64.62 2.1 1.03 3.6 3.4 3.74 6.35.15 3.08-1.3 6.11-3.53 7.1-1.1.7-3.93 1.08-7 1.22l-2.17.1-.76-15.2 3.07-.19ZM492 107.05l3.92 82.85.3 6.43 2.14.06c8.8.23 17.6.5 26.4.84-1.4-30.73-2.81-61.34-4.22-91.83-9.51.5-19.03 1.04-28.54 1.65ZM592.17 160.29c-4.66 7.63-9.73 10.9-16.08 10.69-8.63-.33-14.76-8.2-15.25-19.32-.5-11.26 5.07-18.72 14.04-18.75 5.9 0 11.12 2.62 16.48 8.57l-1.47-33.87c-7.81-4.85-14.82-6.66-22.65-6.4-22.94.91-37.61 21.36-36.3 50.05 1.32 28.58 17.46 49.13 39.7 50.64 6.74.4 15.13-1.43 20.28-4.26.23-.13.47-.25.69-.39.43-.4 1.2-.8 2.08-1.48l-.47-11.04-1.05-24.44ZM651.43 102.51c-12.26-.09-24.52-.07-36.8.04-4.82 27.9-9.65 55.43-14.48 82.65l-2.84 15.97.63.05c9.4.66 18.78 1.38 28.16 2.17l1.74-15.16c5.81.41 11.62.85 17.43 1.3l2.9 15.8c9.65.91 19.3 1.88 28.94 2.9-8.56-36.04-17.12-71.28-25.68-105.72Zm-16.18 30.14 1.3 9.5 3.93 21.43c-3.32-.18-6.64-.36-9.96-.52l2.06-21.05.75-9.26.6-10.04 1.32 9.94Z"/></g><path class="f" d="m180.84 141.4 1.53-.3c.21-2.07.38-4.15.45-6.26l-10.8 1.86a5.58 5.58 0 0 1-4.41-1.14 5.52 5.52 0 0 1-2.05-4.08l-.22-5.46c-6 16.9-20.64 30.81-39.78 38.3l11.7 36.01L95.9 170.3a93.22 93.22 0 0 1-8.72-.14l-41.55 30.18 12.07-37.14c-22.18-9.63-37.74-28.03-39.77-49.54l-.6-.44h.56c-.12-1.44-.2-2.87-.2-4.33C17.7 74.93 51.4 47.4 93 47.4c32.55 0 60.28 16.85 70.8 40.45l-.51-12.64a91.45 91.45 0 1 0-71.85 147.99 91.25 91.25 0 0 0 73.47-37.06c3.54-13.09 7.1-26.36 10.61-39.73a6.9 6.9 0 0 1 5.31-5.01Z"/><g><path class="h" d="M87.18 170.15c1.93.12 3.87.2 5.83.2.97 0 1.94-.03 2.9-.06l-4.46-3.24-4.27 3.1ZM164.84 113.73l-45.08 32.76 5.8 17.84c19.14-7.5 33.77-21.4 39.78-38.31l-.5-12.3ZM57.71 163.19l5.43-16.7-45.2-32.84c2.03 21.5 17.6 39.91 39.77 49.54ZM163.8 87.86C153.3 64.26 125.57 47.4 93.02 47.4c-41.6 0-75.32 27.53-75.32 61.48 0 1.46.09 2.9.21 4.33h56.05l17.5-53.85 17.5 53.85h55.87l-1.01-25.35ZM133.95 75.7c-13.13-10.48-29.57-12.92-29.73-12.94l1.52-10.94c.8.1 19.54 2.82 35.1 15.24l-6.89 8.64Z"/></g><path d="M104.2 62.76c.17.02 16.61 2.46 29.74 12.94l6.9-8.64c-15.57-12.42-34.32-15.13-35.1-15.24l-1.53 10.94Z" fill="#7fcdf0"/><g><path class="e" d="M174.57 4.12c-.08-1.79-1.57-2.35-2.87-2.35-.99 0-2.65.27-2.65 2.03 0 .99.7 1.3 1.37 1.47l3.3.76c1.5.35 2.64 1.25 2.64 3.1 0 2.73-2.55 3.5-4.53 3.5-2.15 0-2.99-.65-3.5-1.12-.99-.89-1.18-1.85-1.18-2.93h1.47c0 2.1 1.7 2.7 3.19 2.7 1.13 0 3.03-.29 3.03-1.95 0-1.2-.56-1.6-2.47-2.05L170 6.74c-.75-.18-2.46-.71-2.46-2.73 0-1.8 1.17-3.58 3.98-3.58 4.05 0 4.45 2.42 4.51 3.7h-1.46ZM187 12.62c-4.31 0-5.64-3.6-5.64-6.1 0-2.5 1.33-6.09 5.65-6.09s5.64 3.6 5.64 6.1c0 2.5-1.32 6.1-5.64 6.1Zm0-10.8c-2.5 0-4.02 1.98-4.02 4.7s1.51 4.72 4.03 4.72c2.51 0 4.03-1.99 4.03-4.71s-1.52-4.71-4.03-4.71ZM207.28.74v7.51c0 2.37-1.48 4.37-4.66 4.37-3.11 0-4.45-2-4.45-4.16V.74h1.57v7.29c0 2.51 1.53 3.2 2.93 3.2 1.44 0 3.05-.66 3.05-3.17V.74h1.56ZM212.39.74h9.4v1.38h-3.92v10.2h-1.57V2.12h-3.91V.74ZM234.48.74h1.57v11.58h-1.57v-5.4h-6.04v5.4h-1.57V.74h1.57v4.79h6.04V.73ZM250.3.74h4.7c3.01 0 4.87 2.29 4.87 5.63 0 2.6-1.13 5.95-4.94 5.95h-4.62V.74Zm1.57 10.24h3.03c2.03 0 3.36-1.6 3.36-4.52 0-2.92-1.34-4.38-3.47-4.38h-2.92v8.9ZM266.66 8.95l-1.2 3.37h-1.62L268.2.74h1.77l4.2 11.58h-1.72l-1.14-3.37h-4.65Zm4.08-1.4-1.7-5.09H269l-1.85 5.1h3.6ZM280.78 12.32h-1.56V.74h1.56v5.61L286.4.74h2.16l-4.82 4.67 4.95 6.9h-2.03l-4.05-5.8-1.82 1.74v4.07ZM297.83 12.62c-4.32 0-5.64-3.6-5.64-6.1 0-2.5 1.32-6.09 5.64-6.09 4.33 0 5.65 3.6 5.65 6.1 0 2.5-1.32 6.1-5.65 6.1Zm0-10.8c-2.51 0-4.03 1.98-4.03 4.7s1.52 4.72 4.03 4.72c2.52 0 4.04-1.99 4.04-4.71s-1.52-4.71-4.04-4.71ZM307.3.74h9.4v1.38h-3.91v10.2h-1.56V2.12h-3.92V.74ZM321.67 8.95l-1.21 3.37h-1.61L323.2.74h1.77l4.2 11.58h-1.71l-1.15-3.37h-4.64Zm4.08-1.4-1.71-5.09H324l-1.86 5.1h3.6ZM343.9 10.93h5.86v1.39h-7.43V.74h1.56v10.19ZM359.96 12.62c-4.32 0-5.64-3.6-5.64-6.1 0-2.5 1.32-6.09 5.64-6.09s5.65 3.6 5.65 6.1c0 2.5-1.33 6.1-5.65 6.1Zm0-10.8c-2.51 0-4.03 1.98-4.03 4.7s1.52 4.72 4.03 4.72c2.52 0 4.03-1.99 4.03-4.71s-1.51-4.71-4.03-4.71ZM369.43.74h9.4v1.38h-3.91v10.2h-1.57V2.12h-3.92V.74ZM382.9.74h9.4v1.38h-3.91v10.2h-1.57V2.12h-3.91V.74ZM406.09 12.32h-8.55V.74h8.43v1.38h-6.86v3.55h6.33v1.39h-6.33v3.87h6.98v1.39ZM413.51 12.32h-1.56V.74h5.35c1.9 0 3.8.66 3.8 3.11 0 1.71-.86 2.34-1.6 2.77.65.28 1.32.57 1.38 2.18l.1 2.1c.01.64.1.88.58 1.16v.26h-1.92c-.23-.71-.28-2.47-.28-2.9 0-.96-.19-2.07-2.06-2.07h-3.79v4.97Zm0-6.3h3.63c1.14 0 2.35-.3 2.35-2 0-1.8-1.3-1.94-2.08-1.94h-3.9V6ZM431.14 12.32h-1.56V7.66L425.21.74h1.82l3.32 5.56 3.33-5.56h1.83l-4.37 6.92v4.66Z"/></g></g></svg>