<svg id="b" xmlns="http://www.w3.org/2000/svg" xmlns:xlink="http://www.w3.org/1999/xlink" viewBox="0 0 339 94.18"><defs><radialGradient id="d" cx="313" cy="952.56" fx="313" fy="952.56" r="26.04" gradientTransform="translate(0 -905.8)" gradientUnits="userSpaceOnUse"><stop offset="0" stop-color="#e42f43"/><stop offset="1" stop-color="#da2d3f"/></radialGradient><radialGradient id="f" cx="255.66" cy="952.33" fx="255.66" fy="952.33" r="26.06" gradientTransform="translate(0 -905.8)" gradientUnits="userSpaceOnUse"><stop offset="0" stop-color="#fff"/><stop offset=".7" stop-color="#fdfdfd"/><stop offset=".95" stop-color="#f6f6f6"/><stop offset="1" stop-color="#f4f4f4"/></radialGradient><radialGradient id="h" cx="198.36" fx="198.36" xlink:href="#f"/><radialGradient id="j" cx="141" fx="141" xlink:href="#f"/><radialGradient id="l" cx="83.4" fx="83.4" xlink:href="#f"/><radialGradient id="n" cx="26" fx="26" r="26.08" xlink:href="#f"/><linearGradient id="e" x1="313" y1="978.64" x2="313" y2="926.56" gradientTransform="translate(0 -905.8)" gradientUnits="userSpaceOnUse"><stop offset="0" stop-color="#8f1a26"/><stop offset=".04" stop-color="#8f1a26" stop-opacity=".83"/><stop offset=".1" stop-color="#8f1a26" stop-opacity=".61"/><stop offset=".16" stop-color="#8f1a26" stop-opacity=".42"/><stop offset=".24" stop-color="#8f1a26" stop-opacity=".26"/><stop offset=".32" stop-color="#8f1a26" stop-opacity=".14"/><stop offset=".43" stop-color="#8f1a26" stop-opacity=".06"/><stop offset=".58" stop-color="#8f1a26" stop-opacity=".01"/><stop offset="1" stop-color="#8f1a26" stop-opacity="0"/></linearGradient><linearGradient id="g" x1="255.66" y1="978.41" x2="255.66" y2="926.33" gradientTransform="translate(0 -905.8)" gradientUnits="userSpaceOnUse"><stop offset="0" stop-color="#939392"/><stop offset=".04" stop-color="#939392" stop-opacity=".8"/><stop offset=".1" stop-color="#939392" stop-opacity=".59"/><stop offset=".17" stop-color="#939392" stop-opacity=".4"/><stop offset=".24" stop-color="#939392" stop-opacity=".25"/><stop offset=".33" stop-color="#939392" stop-opacity=".14"/><stop offset=".43" stop-color="#939392" stop-opacity=".06"/><stop offset=".58" stop-color="#939392" stop-opacity=".01"/><stop offset="1" stop-color="#939392" stop-opacity="0"/></linearGradient><linearGradient id="i" x1="198.36" x2="198.36" xlink:href="#g"/><linearGradient id="k" x1="141" x2="141" xlink:href="#g"/><linearGradient id="m" x1="83.4" x2="83.4" xlink:href="#g"/><linearGradient id="o" x1="26" x2="26" xlink:href="#g"/><style>.r{fill:#fff}</style></defs><g id="c"><path d="M10.92 4.07c-.2-1.86-1.4-2.63-3.2-2.63-1.45 0-2.87.52-2.87 2.2 0 3.17 8.23.93 8.23 6 0 2.73-2.69 3.83-5.03 3.83-2.88 0-5.3-1.42-5.3-4.54h1.61c0 2.16 1.8 3.1 3.75 3.1 1.55 0 3.26-.49 3.26-2.34 0-3.53-8.23-1.21-8.23-5.93C3.14 1.17 5.44 0 7.8 0c2.63 0 4.65 1.24 4.74 4.07h-1.62ZM22.92 0c4.09 0 6.16 3.22 6.16 6.73 0 3.52-2.07 6.74-6.16 6.74s-6.16-3.22-6.16-6.74c0-3.5 2.07-6.73 6.16-6.73Zm0 12.03c3.13 0 4.45-2.7 4.45-5.3s-1.32-5.29-4.45-5.29-4.45 2.7-4.45 5.3 1.32 5.29 4.45 5.29ZM43.77 8.52c0 3.26-1.84 4.95-5.06 4.95-3.32 0-5.28-1.53-5.28-4.95V.3h1.71v8.2c0 2.3 1.28 3.52 3.57 3.52 2.18 0 3.35-1.23 3.35-3.51V.3h1.7v8.2ZM51.76 1.75h-4.29V.3h10.28v1.44h-4.28v11.41h-1.71V1.75ZM61.51.3h1.71v5.53H70V.31h1.71v12.85H70V7.27h-6.78v5.9h-1.7V.3ZM84.2.3h4.4c3.96 0 6.18 2 6.18 6.13 0 4.3-1.9 6.73-6.18 6.73h-4.4V.31Zm1.7 11.42h2.85c1.17 0 4.32-.32 4.32-5.06 0-3.06-1.14-4.91-4.29-4.91H85.9v9.97ZM102.7.3h1.89l5.02 12.86h-1.89l-1.4-3.87h-5.44l-1.44 3.87h-1.77L102.7.31Zm-1.28 7.55h4.36l-2.15-6h-.03l-2.18 6ZM113.2.3h1.72v6.42L121.44.3h2.21l-5.42 5.18 5.64 7.67h-2.16l-4.65-6.5-2.14 2v4.5h-1.71V.31ZM132.99 0c4.09 0 6.16 3.22 6.16 6.73 0 3.52-2.07 6.74-6.16 6.74s-6.16-3.22-6.16-6.74c0-3.5 2.07-6.73 6.16-6.73Zm0 12.03c3.13 0 4.45-2.7 4.45-5.3s-1.32-5.29-4.45-5.29-4.45 2.7-4.45 5.3 1.32 5.29 4.45 5.29ZM146.49 1.75h-4.29V.3h10.29v1.44h-4.29v11.41h-1.71V1.75ZM159.74.3h1.89l5.02 12.86h-1.89l-1.4-3.87h-5.44l-1.44 3.87h-1.77L159.74.31Zm-1.28 7.55h4.36l-2.15-6h-.03l-2.18 6Z"/><path d="M313 20.76a26 26 0 1 1 0 52 26 26 0 0 1 0-52Z" fill="url(#d)"/><path d="M313 20.76a26 26 0 1 1 0 52 26 26 0 0 1 0-52Z" fill="url(#e)"/><path d="M255.66 20.53a26 26 0 1 1 0 52 26 26 0 0 1 0-52Z" fill="url(#f)"/><path d="M255.66 20.53a26 26 0 1 1 0 52 26 26 0 0 1 0-52Z" fill="url(#g)"/><path d="M198.36 20.53a26 26 0 1 1 0 52 26 26 0 0 1 0-52Z" fill="url(#h)"/><path d="M198.36 20.53a26 26 0 1 1 0 52 26 26 0 0 1 0-52Z" fill="url(#i)"/><path d="M141 20.53a26 26 0 1 1 0 52 26 26 0 0 1 0-52Z" fill="url(#j)"/><path d="M141 20.53a26 26 0 1 1 0 52 26 26 0 0 1 0-52Z" fill="url(#k)"/><path d="M83.4 20.53a26 26 0 1 1 0 52 26 26 0 0 1 0-52Z" fill="url(#l)"/><path d="M83.4 20.53a26 26 0 1 1 0 52 26 26 0 0 1 0-52Z" fill="url(#m)"/><path d="M26 20.53a26 26 0 1 1 0 52 26 26 0 0 1 0-52Z" fill="url(#n)"/><path d="M26 20.53a26 26 0 1 1 0 52 26 26 0 0 1 0-52Z" fill="url(#o)"/><path class="r" d="M291.23 55.6c-2.07-6.7-1.62-12.6 0-18.8 1.72-.1 3.44-.19 5.16-.26 2.45-.1 4 .91 3.6 4.88a7.35 7.35 0 0 1-1.76 4.33c1.26.58 1.94 2.46 2.11 4.64.36 4.5-1 6-3.84 5.71-1.75-.12-3.5-.35-5.27-.5Zm2.42-14.52a28.87 28.87 0 0 0-.39 3.21h1.6c.77 0 1.34-.56 1.46-1.7.16-1.53-.54-1.56-1.35-1.55l-1.32.04Zm-.41 6.73c.06 1.2.19 2.4.39 3.58l1.65.08c.93 0 1.57-.24 1.43-1.72-.14-1.73-1-1.87-2.25-1.9l-1.22-.04Zm7.85 7.94c.09-6.34 2.32-12.78 4.91-19.28l4.58-.06c1.23 6.5 3.46 13 4.92 19.53H311l-.68-2.58h-4.69c-.09.85-.15 1.7-.19 2.55l-4.35-.16Zm6.73-13.45a85.75 85.75 0 0 0-1.53 7h3.07c-.58-2.32-1.12-4.69-1.54-7ZM317 55.98c.35-6.49.35-12.99 0-19.48h4.17c.65 4.94.8 9.93.46 14.9l6.09-.08a44.5 44.5 0 0 1-.83 4.45c-3.24.15-6.57.21-9.89.21Zm11.09-.23a44.91 44.91 0 0 0 .08-19c1.07.06 2.36.2 3.43.28a32.84 32.84 0 0 1 .63 14.05h4.38c-.39 1.47-.89 2.9-1.5 4.3-2.53.2-4.46.21-7.02.37Z"/><path d="M28.72 30.98c-1.33 0-2.55 0-3.72-.07-3.1-.16-6.19-.08-9.27.23h-.28l-.08.28c-1.67 6.72-2.94 15.14-.86 31.25v.4h.74c1.61 0 3.11.1 4.63.1 1.36 0 2.74 0 4.23-.14h.4v-.4c-.08-3.1-.08-6.2-.08-9.26h4.71c4.8-.06 8.39-1.3 10.69-3.69a10.14 10.14 0 0 0 2.6-7.47c-.27-6.77-5.52-11.05-13.71-11.23Zm3.71 10.61a3.3 3.3 0 0 1-.92 2.38 4.74 4.74 0 0 1-3.36 1.24h-3.79c0-1.19.05-2.48.08-3.74 0-1 0-1.9.07-2.79H27c1.65-.02 5.43.24 5.43 2.92ZM83.52 30a16.33 16.33 0 0 0-15.23 10.1A16.17 16.17 0 0 0 67 46.36c.12 9.63 7 16.7 16.49 16.81 9.2 0 16.64-7.52 16.53-16.73a16.58 16.58 0 0 0-16.5-16.47Zm-5.6 16.4c0-3.9 1.45-8.06 5.53-8.08h.2a4.6 4.6 0 0 1 3.28 1.3c1.42 1.4 2.28 3.93 2.28 6.78 0 3.13-.74 8.4-5.64 8.41-5.25.02-5.65-6.43-5.65-8.39v-.02Zm80.9-14.4h-.3c-2.53-.09-3-.1-5.65-.16h-1.94v.42c.24 5.5-.32 11.01-1.66 16.35-.69-3.87-1.61-7.38-2.57-11.06-.46-1.79-.94-3.63-1.42-5.6l-.07-.27h-.28a71.2 71.2 0 0 0-7.45 0h-.29l-.07.27c-.6 2.48-1.26 4.76-1.89 7a104 104 0 0 0-2.45 9.7 57.12 57.12 0 0 1-1.35-16.45v-.4h-7.49l-.08.3c-2.15 8.12-.26 17.9 6 30.75l.11.21h.23c2.07 0 3.13.07 4.15.07s1.86 0 3.54-.06h.34v-.34c.55-5.6 1.67-11.37 2.77-17 1.12 5.6 2.25 11.36 2.81 17v.36h.36c1.58-.07 3-.07 4.42-.07h4.23l.1-.22c5.57-11.5 7.65-22.32 5.87-30.45l.03-.36Zm37.12 23v-4.12c4.14 0 8.35 0 12.51-.1h.4v-7.92h-.42c-4.1-.1-8.31-.14-12.5-.1v-3.67c3.28 0 6.45 0 9.8.14l5 .11h.5l-.08-.49a36.31 36.31 0 0 0-1.93-6.86l-.09-.24h-.25a78.13 78.13 0 0 0-22.13 0h-.32l-.06.3a67.54 67.54 0 0 0 0 29.93l.07.28h.28c3.93.54 7.9.83 11.86.85 3.79-.01 7.57-.28 11.32-.8h.25l.09-.23c.8-2.28 1.28-4.67 1.41-7.09v-.48h-.49c-5.03.37-10.16.48-15.22.48Zm74.49 1.1c.45-5.65-1.77-7.09-4.65-8.2a6.86 6.86 0 0 0 4.45-7.23c-.57-6.6-5.14-9.9-14-10.12h-1.72c-3.49-.13-6.98.13-10.41.76h-.24l-.07.23c-3.48 10.34-3.8 21.51-.86 30.66l.07.24h.25c2.31.41 4.65.61 7 .6h2.07v-.43c-.17-3.56-.23-7.2-.28-10.74v-.1h2.75c2 0 3.29.36 4 1.12.9.93 1 2.54 1 4.68-.15 1.72-.08 3.45.2 5.15l.1.32h.33c1-.07 2-.1 2.93-.13a55.3 55.3 0 0 0 6.3-.42h.3l.3-1.73-.57.1c.04-.38.1-.76.2-1.14.29-1.18.5-2.39.63-3.6l-.08-.03Zm-10.21-14.1c.02.29-.02.58-.11.86-.1.28-.25.53-.45.75-.65.66-1.94 1-4 1H252c0-1.77 0-3.6.09-5.57 1.45 0 2.92-.06 4.35-.06 2.34.01 3.74 1.11 3.78 3.01Z" fill="#101820"/><g><path d="M140.94 94.18H.24V79.7h159.48l-18.79 14.5Zm19.72 0h-12.03l18.79-14.49h12.02l-18.78 14.5Zm18.78 0h-12.02L186.2 79.7h12.02l-18.78 14.5Z"/><path class="r" d="M9.16 83.28h5.02c2.76 0 3.95 1.6 3.95 4.03s-1.24 4.02-3.76 4.02h-5.2v-8.05Zm2.2 6.51h2.42c1.44 0 2.1-.86 2.1-2.56 0-1.49-.63-2.41-2.3-2.41h-2.23v4.97Zm15.73-6.73c4.33 0 5 2.57 5 4.25 0 1.68-.67 4.24-5 4.24-4.32 0-5-2.56-5-4.24s.68-4.25 5-4.25Zm0 6.96c1.99 0 2.68-1.46 2.68-2.71s-.7-2.72-2.68-2.72c-1.98 0-2.68 1.47-2.68 2.72 0 1.25.7 2.71 2.68 2.71Zm9.16-6.74h2.18v4.62c0 .8.04 2.12 2.04 2.12s2.04-1.33 2.04-2.12v-4.62h2.18v5.16c0 .9-.1 3.11-4.22 3.11s-4.22-2.2-4.22-3.1v-5.17Zm13.05 0h6.03c1.18 0 2.27.55 2.27 2.03 0 .62-.32 1.38-1.07 1.61v.03c.93.15 1.43 1.08 1.43 1.94 0 1.07-.5 2.44-2.93 2.44H49.3v-8.05Zm2.18 3.2h3.04c.5 0 .82-.27.82-.86 0-.5-.22-.87-1.12-.87h-2.74v1.73Zm0 3.31h3.22c.68 0 .94-.44.94-.94 0-.63-.4-.97-1.16-.97h-3v1.91Zm10.99-6.5h2.19v6.44h4.9v1.6h-7.09v-8.05Zm11.3 0h7.5v1.53h-5.32v1.66H81v1.47h-5.05v1.84h5.37v1.54h-7.56v-8.05Zm19.24 0h5.4c2.3 0 2.84 1.36 2.84 2.44 0 1.71-.9 2.72-2.67 2.72H95.2v2.88h-2.18v-8.05Zm2.18 3.7h2.35c.67 0 1.46-.02 1.46-1.1 0-1.05-.64-1.14-1.26-1.14h-2.55v2.24Zm10.36-3.7h2.19v6.44h4.9v1.6h-7.09v-8.05Zm17.07 6.38h-3.69l-.65 1.66h-2.36l3.54-8.05h2.63l3.54 8.05h-2.35l-.66-1.66Zm-1.84-4.65-1.27 3.19h2.53l-1.26-3.2Zm10.52 3.5-3.56-5.24h2.57l2.08 3.5 2.09-3.5h2.57l-3.56 5.24v2.8h-2.19v-2.8Z"/></g></g></svg>