<svg xmlns="http://www.w3.org/2000/svg" id="Layer_2" data-name="Layer 2" viewBox="0 0 131.18 67.24"><defs><style>.cls-2,.cls-4,.cls-5{fill:none}.cls-4{stroke-width:.6px}.cls-10,.cls-11,.cls-12,.cls-13,.cls-15,.cls-2,.cls-9{stroke-width:0}.cls-10{fill:#522e91}.cls-9{fill:#ffef00}.cls-11{fill:#ffed00}.cls-5{stroke:#ffed00}.cls-12{fill:#00904a}.cls-13{fill:#4f2583}.cls-4{stroke:#00904a}.cls-15{fill:#00a94f}.cls-5{stroke-width:.63px;stroke-miterlimit:10}</style></defs><g id="Layer_1-2" data-name="Layer 1"><path d="M52.03 30.02a17 17 0 0 0-4.47-.75c-1.11 0-2.6 0-2.6 1.06 0 1.68 8.26 1.52 8.26 8.03 0 4.59-3.57 7-9.45 7-1.75-.02-3.5-.22-5.21-.6v-6.05c1.71.38 3.46.58 5.21.6 1.68 0 2.56-.3 2.56-1.12 0-2.01-7.99-1.24-7.99-7.93 0-4.54 3.49-6.85 8.14-6.85 1.86 0 3.72.19 5.55.55v6.07Z" class="cls-11"/><path d="M51.64 64.66c-.13.14-.28.26-.45.36l-5.86.46-19.8 1.37c-1.65.13-7.84.61-8.35.25l-.17-.45c6.6-.97 13.86-1.2 20.94-1.75l9.44-.68c1.3 0 2.61-.25 3.73-.18.25 0 .54.15.43.25.15 0 .28.25 0 .3" style="fill:#522e91;stroke-width:0;fill-rule:evenodd"/><path d="m22.8 48.96 1.74.53-2.01.32.01 1.77-.9-1.46-1.71.35 1.13-1.2-.63-1.25 1.44.53 1.32-1.12-.39 1.53zM5.88 51.54l3.8-.58 1.15 3.85.53-3.71 2.51-.2 1.14 3.68.54-4.08h3.8l-1.59 10.91-3.36.26-1.31-4.14-.61 4.29-3.4.27-3.2-10.55z" class="cls-9"/><path d="m17.47 61.1-2.84.21-.71-2.28-.31-1-.61-1.95h-.04l-.77 5.43-2.86.21-1.53-5.05-1.49-4.85 3.14-.48.33 1.08 1.15 3.91h.04l.14-1.03.55-3.89 1.96-.17.33 1.06 1.17 3.76h.02l.13-.97.58-4.24 2.66-.02h.44L17.47 61.1z" style="stroke-width:.14px;stroke-miterlimit:10;stroke:#ffed00;fill:none"/><path d="M51.69 53.9a4.06 4.06 0 0 0-2.36-.86h-1.09a7.14 7.14 0 0 0-1.53.13h-.2l-.91 2.66.59-.13c.49-.12.98-.19 1.49-.2h.38c.27 0 .53.07.76.2.08.04.14.12.15.21a2.75 2.75 0 0 0-1.19-.36h-.3a2.87 2.87 0 0 0-2.24 1.02 2.82 2.82 0 0 0-1.02-.89c.57-.58.82-1.41.66-2.21a2.84 2.84 0 0 0-3.3-2.55h-.84l-4.41.54 1.45 10.61 4.95-.59a3.82 3.82 0 0 0 2.44-1.12c.09-.1.18-.2.25-.31a2.7 2.7 0 0 0 1.91 1.01h.35c.45.01.89-.09 1.29-.3v.45h3.3l.43-4.95a2.7 2.7 0 0 0-1.01-2.34Zm-10.96.92-.12-.87h.18c.23 0 .35 0 .4.4s0 .45-.43.5l-.03-.02Zm.51 3.8-.17-1.06h.23c.35 0 .5.13.53.46s-.07.54-.59.59Z" class="cls-9"/><path d="M41.53 54.28a.67.67 0 0 0-.64-.68h-.65l.2 1.55h.38c.58-.05.78-.36.71-.87Zm-.23 2.94h-.59l.2 1.65h.4c.63-.08.96-.38.87-.99a.78.78 0 0 0-.87-.66Zm.2.99v-.33.15c.02.06.02.12 0 .18Zm-.01 0v-.3.33-.03Z" class="cls-13"/><path d="M41.53 54.28a.67.67 0 0 0-.64-.68h-.65l.2 1.55h.38c.09 0 .18-.02.26-.05.23-.07.4-.26.45-.5a.91.91 0 0 0 0-.33Zm.62 3.7a.77.77 0 0 0-.79-.76h-.66l.2 1.65h.64a.76.76 0 0 0 .64-.69c0-.07-.02-.13-.03-.2Zm-.69 0v.3-.33.03Z" class="cls-13"/><path d="M48.61 57.98a.32.32 0 0 0-.35.26.3.3 0 0 0 0 .23.33.33 0 0 0 .59-.18.26.26 0 0 0 0-.21.32.32 0 0 0-.26-.12" class="cls-11"/><path d="M48.63 58.76c.29.02.59-.26.64-.59a.65.65 0 0 0-.57-.71h-.05a.63.63 0 0 0-.68.57c-.05.35.2.68.56.72h.07" class="cls-13"/><path d="M44.38 57.91c.05-.48.21-.95.48-1.35a2.61 2.61 0 0 0-1.27-.79 2.12 2.12 0 0 0 .99-2.26 2.54 2.54 0 0 0-2.9-2.26 5.2 5.2 0 0 0-.79 0l-4.04.56 1.19 9.9 4.59-.56a3.39 3.39 0 0 0 2.31-1.11 3.4 3.4 0 0 1-.54-2.13Zm4.95-4.45h-1.04c-.5 0-.99.04-1.49.13l-.64 1.91c.38-.1.77-.16 1.16-.2h.81c.78 0 1.3.28 1.24 1.04v.33c-.17-.16-.36-.3-.56-.41a2.64 2.64 0 0 0-.99-.26h-.69a2.3 2.3 0 0 0-2.03 2.06 2.44 2.44 0 0 0 2.12 2.73h.48c.63.01 1.24-.26 1.65-.74v.83h2.59l.4-4.6c.05-.42 0-.84-.15-1.24a2.96 2.96 0 0 0-2.84-1.58Z" class="cls-2"/><path d="M44.38 57.91c.05-.48.21-.95.48-1.35a2.61 2.61 0 0 0-1.27-.79 2.12 2.12 0 0 0 .99-2.26 2.54 2.54 0 0 0-2.9-2.26 5.2 5.2 0 0 0-.79 0l-4.04.56 1.19 9.9 4.59-.56a3.39 3.39 0 0 0 2.31-1.11 3.4 3.4 0 0 1-.54-2.13Z" class="cls-2"/><path d="M51.91 53.65c-.71-.57-1.43-1-2.33-1.06l-1.03-.05c-.56 0-1.13.04-1.66.09l-.4.06-.24.55-.69 1.86-.3.84c.19-.44.25-.93.18-1.4a6.49 6.49 0 0 0-.08-.43c.02-.22.02-.44 0-.66a3.36 3.36 0 0 0-3.6-2.91l-.76.08-4.16.47-.68.08-.02.63 1.2 9.9v.66l1.35.26 4.59-.54a3.33 3.33 0 0 0 2.43-1.27c.34.22.72.37 1.12.45.34.22.72.35 1.12.38.45.05.9 0 1.32-.17l.61.33h2.76l.3-3.4-.45-3.99a3.07 3.07 0 0 0-.58-.76Zm-9.29 7.49-4.59.56-1.19-9.9 4.08-.48.76-.08a2.71 2.71 0 0 1 2.94 2.2c.19.89-.21 1.79-.99 2.26.49.14.93.41 1.27.79a3 3 0 0 0-.48 1.35c-.08.77.1 1.54.51 2.19a3.4 3.4 0 0 1-2.31 1.09Zm9.64-4.85-.4 4.6h-2.52v-.83a2.1 2.1 0 0 1-1.65.68h-.35a2.44 2.44 0 0 1-2.2-2.66V58a2.3 2.3 0 0 1 2.03-2.06h.69c.34.02.68.11.99.26.2.12.39.25.56.41v-.33c0-.76-.46-.97-1.24-1.04h-.81c-.39.03-.78.1-1.16.2l.64-2c.49-.09 1.19-.13 1.68-.13h.64c1.36.06 2.37.75 2.88 1.78.16.38.22.78.2 1.19Z" class="cls-10"/><path d="m52.38 50.47 1.09 9.78 2.61-.51-1.07-9.77-2.63.5z" class="cls-2"/><path d="m52.38 50.47 1.09 9.78 2.61-.51-1.07-9.77-2.63.5z" class="cls-2"/><path d="m57.14 50.98-.94 6.75-.91-8.17-3.27.64.46 4.13.45 3.99.25 2.35 2.69-.53-.18 1.25 3.33.2 1.45-10.43-3.33-.18z" class="cls-9"/><path d="m55.4 61 .07-.45-.07.45zm0 0 .07-.45-.07.45zm-3.02-10.53 1.09 9.78 2.1-.39.51-.12-1.07-9.77-2.63.5z" class="cls-2"/><path d="m55.57 59.86-2.1.39-1.09-9.78 2.63-.5.86 7.76.38-2.67v-.04l-.1-.74-.48-4.39-.08-.72-.71.13-2.63.53-.59.11.06.61 1.09 9.79.07.72h.02l1.35.22.82-.17.33-.06V61l.17-1.14z" class="cls-10"/><path d="m57.43 51.33 2.66.15-1.35 9.75-2.67-.15 1.37-9.75Zm3.45-.48h-.73l-2.66-.15h-.63v.61l-.63 3.8-.84 6.02-.1.66 1.53.38 2.67.15 1.37-9.82v-1.65Z" class="cls-10"/><path d="m23 61.36 1.63-10.4 3.33.25-1.65 10.4-3.31-.25z" class="cls-9"/><path d="m27.57 51.52-1.53 9.72-2.66-.2.53-3.3 1.01-6.42 2.34.17.31.03Zm.78-.61h-.73l-2.66-.2h-.61l-.1.61-1.53 9.72-.12.66 1.52.38 2.66.2 1.53-9.72v-1.65h.03Z" class="cls-10"/><path d="m32.58 51.16-.25 2.9a2.28 2.28 0 0 0-1.4-.58h-.33a3.46 3.46 0 0 0-3.3 3.51 3.68 3.68 0 0 0 1.16 3.18c.49.44 1.11.71 1.77.76h.25c.61.04 1.21-.18 1.65-.61v.69h2.39l.83-9.9h-2.76v.03Z" class="cls-2"/><path d="M31.64 61.38v-.35c-.39.18-.82.27-1.25.26h-.28a3.73 3.73 0 0 1-3.33-4.09l.03-.22a3.8 3.8 0 0 1 3.7-3.83h.36c.38.03.75.13 1.09.3l.21-2.62h3.3l-.89 10.59-2.94-.05Zm-.54-4.95a.76.76 0 0 0-.68.74c-.02.2.03.4.15.56.09.16.26.26.45.26a.72.72 0 0 0 .66-.73.86.86 0 0 0-.15-.58.58.58 0 0 0-.43-.26" class="cls-9"/><path d="M31.31 56.94c0-.08-.06-.15-.13-.18-.23 0-.33.25-.35.41 0 .13.03.25.08.36.05.05.1.09.17.12.09-.18.23-.32.4-.43a.55.55 0 0 0-.17-.28Z" class="cls-13"/><path d="M31.31 56.94c0-.08-.06-.15-.13-.18-.23 0-.33.25-.35.41 0 .13.03.25.08.36.05.05.1.09.17.12.18 0 .31-.21.33-.43 0-.1-.04-.2-.1-.28Z" class="cls-2"/><path d="M31.18 56.15c-.62-.09-1.2.35-1.29.97-.09.62.35 1.2.97 1.29h.2c.55-.03.98-.49.99-1.04a.25.25 0 0 0 0-.17c.02-.52-.36-.98-.87-1.06Z" class="cls-13"/><path d="m32.58 51.16-.25 2.9a2.28 2.28 0 0 0-1.4-.58h-.33a3.46 3.46 0 0 0-3.3 3.51 3.68 3.68 0 0 0 1.16 3.18c.49.44 1.11.71 1.77.76h.25c.61.04 1.21-.18 1.65-.61v.69h2.39l.83-9.9h-2.76v.03Z" class="cls-2"/><path d="m32.58 51.16-.25 2.9a2.28 2.28 0 0 0-1.4-.58h-.33a3.46 3.46 0 0 0-3.3 3.51 3.68 3.68 0 0 0 1.16 3.18c.49.44 1.11.71 1.77.76h.25c.61.04 1.21-.18 1.65-.61v.69h2.39l.83-9.9h-2.76v.03Z" class="cls-2"/><path d="M35.97 50.53h-4.01v.63l-.15 1.86a3.37 3.37 0 0 0-.78-.15h-.38A4.12 4.12 0 0 0 26.62 57a4.54 4.54 0 0 0 .91 3.3 3.66 3.66 0 0 0 2.18 1.34c1.01.23 1.34 0 2.36.07l.19.22 2.95-.05.86-9.62-.1-1.72Zm-1.49 10.54h-2.39v-.69c-.44.43-1.04.65-1.65.61h-.25a2.99 2.99 0 0 1-1.77-.76 3.7 3.7 0 0 1-1.16-3.18 3.45 3.45 0 0 1 3.3-3.51h.33c.52.03 1.02.23 1.4.58l.25-2.9h2.66l-.73 9.87Z" class="cls-13"/><path d="M35.97 50.53h-4.01v.63l-.15 1.86a3.37 3.37 0 0 0-.78-.15h-.38A4.12 4.12 0 0 0 26.62 57a4.54 4.54 0 0 0 .91 3.3 3.66 3.66 0 0 0 2.18 1.34c1.06.2 1.17.15 2.29.11l.25.22h2.95l.86-9.72-.1-1.72Zm-1.49 10.54h-2.39v-.69c-.44.43-1.04.65-1.65.61h-.25a2.99 2.99 0 0 1-1.77-.76 3.7 3.7 0 0 1-1.16-3.18 3.45 3.45 0 0 1 3.3-3.51h.33c.52.03 1.02.23 1.4.58l.25-2.9h2.66l-.73 9.87Z" class="cls-10"/><path d="m19.81 52.76 3.32-.28v7.74l-3.32.27v-7.73z" class="cls-9"/><path d="m22.8 59.91-2.66.21v-7.04l2.66-.24v7.07zm-1.26-9.08-1.81.36v.66l-.08.58.44-.03 2.28-.18-.83-1.39zm-5.69.02-.58 4.24-.13.97h-.02l-1.17-3.76-.33-1.06-1.96.17-.55 3.89-.14 1.03h-.04l-1.15-3.91-.33-1.08-3.14.48 3.02 9.9 2.86-.21.77-5.43H13l.61 1.95.23.76.79 2.52 2.84-.21 1.47-10.17.01-.1h-.44l-2.66.02z" class="cls-2"/><path d="m22.45 51.33.08-1.52 1.87-.3-1.73-.53.42-1.4-1.23 1.09-1.36-.51.7 1.14-1.27 1.12 1.68-.43.84 1.34z" class="cls-2"/><path d="M23.46 52.12h-.53l.28-1.88 2.44-.66-2.1-.81.13-2.31-1.88 1.65-2.39-.92 1.2 2.05-.99.92h-4.36v.58l-.31 2.28-.61-1.98-.17-.51h-.53l-1.96.15h-.54v.54l-.43 2.03-.63-2.1-.17-.56h-.58l-3.14.48-.76.12.21.74 3.02 9.9.15.51 1.24.3 2.95-.12.41-2.95.63 1.95.15.51 1.25.3 2.84-.21 1.22-8.42v7.18l1.44.3 2.66-.23.12-7.06-.23-1.65-.05-.1Zm-4.52-1.19L17.47 61.1l-2.79.21-.79-2.52-.23-.76-.63-1.95-.78 5.43-2.92.2-3.02-9.9 3.14-.48.33 1.07 1.16 3.91.15-1.02.54-3.89 1.96-.17.33 1.06 1.17 3.76.18-.94.58-4.24h3.1l-.02.07Zm2.26-1.65-.69-1.14 1.35.51 1.24-1.09-.43 1.4 1.73.53-1.88.3v1.52l-.84-1.34-1.65.43 1.17-1.12Zm-1.57 3.15.08-.58v-.66l1.82-.36.83 1.39-2.28.18-.45.03Zm3.15 7.48-2.64.15v-6.98l2.66-.21-.02 7.05Z" class="cls-10"/><path id="_Green_Line_Right" d="m103.01 5.66 2.61 16.86 20.84 7.41-19.75 9.97-.48 17.2" data-name="Green Line Right" style="stroke-width:.6px;fill:none;stroke:#d5e8da"/><path id="Green_Star_Line_left_left" d="m77.19 50.25 9.72-2.86" class="cls-4" data-name="Green Star Line left left"/><path id="Green_Star_Outline" d="m106.11 56.96.48-16.99 19.74-9.95-20.83-7.43-2.59-16.75" class="cls-4" data-name="Green Star Outline"/><path id="Green_Star_Line_left" d="m77.32 50.23 13.08-3.84 2.51 2.52" class="cls-4" data-name="Green Star Line left"/><path id="Yellow_Line_bottom_left" d="m86.92 47.21 2.51 2.74" class="cls-5" data-name="Yellow Line bottom left"/><path id="Purple_Star" d="m105.69 1.77 4.35 21.68 21.14 6.47-19.27 10.84.38 22.09-16.27-14.96-20.91 7.19 9.22-20.1-13.3-17.67L93 19.87l12.69-18.1z" class="cls-10" data-name="Purple Star"/><path d="m27.38 36.34-.85-3.49-.88 3.49h1.73z" class="cls-2"/><path d="m105.5 22.59-2.65-16.8L93 19.87l-21.97-2.56 13.3 17.67-7.01 15.25 13.08-3.84 15.58 15.69.61-22.11 19.74-9.95-20.83-7.43z" class="cls-12"/><path d="m89.76 46.57-2.34.69-.37.1 12.86 14.08.35-5.12-9.86-9.93-.64.18z" style="fill:#ffef3f;stroke-width:0"/><path id="Yellow_Star_Outline" d="m71.3 48.53 8-15.56-12.49-18.25 21.83 3.55L99.13 4.64" data-name="Yellow Star Outline" style="stroke:#ffed00;stroke-width:.6px;fill:none"/><path d="M99.13 4.64 98.61 0 84.4 16.95l-21.67-4.46 11.73 18.75-4.44 7.84-3.84 6.76-2.64 4.62 7.76-1.93 8-15.56-12.49-18.25 21.83 3.55L99.13 4.64z" class="cls-9"/><path id="Green_Star_Part" d="m71.3 48.53-2.12 4.09 17.87-5.26-2.06-2.24-13.69 3.41z" class="cls-12" data-name="Green Star Part"/><path d="M15.59 44.87c-1.24.33-2.53.49-3.81.48A10.35 10.35 0 0 1 1.22 35.22v-.47a10.5 10.5 0 0 1 11.05-10.96c.98 0 1.96.14 2.9.43l1.09 6.42a7.56 7.56 0 0 0-3.3-.79c-3 0-5.17 1.65-5.17 4.72a4.78 4.78 0 0 0 4.81 4.73h.22c1.29.04 2.57-.3 3.68-.97l-.87 6.6-.05-.05Zm13.18-8.21h-3.3l1.65-6.49 1.65 6.49m-12.28 8.25 6.82.48 1.06-3.51h5.64l1.01 3.56 7.06-.48-6.93-20.59h-7.87l-6.77 20.51-.02.03Zm37.83.44V24.28l6.51-.48v7.51h3.92v-7.03l6.5-.48v21.07l-6.5.48v-8.17h-3.92v7.69l-6.51.48z" class="cls-9"/><path d="M14.38 43.52c-1.24.33-2.53.49-3.81.48A10.35 10.35 0 0 1 0 33.91v-.5a10.53 10.53 0 0 1 11.04-10.96c.99 0 1.97.14 2.92.43l1.07 6.42a7.45 7.45 0 0 0-3.3-.78c-3 0-5.17 1.65-5.17 4.72a4.76 4.76 0 0 0 4.8 4.71h.19a6.71 6.71 0 0 0 3.7-1.02l-.87 6.6Zm13.19-8.25h-3.3l1.65-6.49 1.65 6.49m-12.28 8.25 6.82.48 1.01-3.56h5.64L29.77 44l7.11-.48-6.93-20.58h-7.87L15.3 43.52Zm35.33-14.6c-1.43-.44-2.91-.7-4.41-.76-1.09 0-2.56 0-2.56 1.06 0 1.65 8.14 1.5 8.14 7.89 0 4.54-3.51 6.9-9.31 6.9a25.22 25.22 0 0 1-5.13-.59v-5.87c1.69.36 3.41.56 5.13.59 1.65 0 2.52-.3 2.52-1.11 0-1.98-7.87-1.24-7.87-7.81 0-4.47 3.43-6.77 8.02-6.77 1.83 0 3.66.18 5.46.54v5.92Z" class="cls-15"/><path d="m87.55 47.19 2.46-.57 9.83 9.44" style="stroke-linecap:round;stroke:#ffed00;stroke-width:.6px;fill:none"/><path id="Grenstar_Knock_Out" d="m126.33 30.02-19.74 9.95-.61 22.11L90.4 46.39l-21.22 6.23L79.3 32.97 66.81 14.72l21.83 3.55L102.12.74l3.38 21.85 20.83 7.43z" class="cls-12" data-name="Grenstar Knock Out"/><path id="Yellow_Line_Bottom" d="m100.26 56.32-9.86-9.93-.64.18-2.34.69" class="cls-5" data-name="Yellow Line Bottom"/><path id="Green_Star" d="m126.33 30.02-19.74 9.95-.61 22.11L90.4 46.39l-21.22 6.23L79.3 32.97 66.81 14.72l21.83 3.55L102.12.74l3.38 21.85 20.83 7.43z" class="cls-15" data-name="Green Star"/><path d="M88.97 20.56c2.66-.67 5.45-.67 8.12 0 4.85 1.45 6.88 4.83 5.74 8.61a5.2 5.2 0 0 1-4.5 3.96 5.3 5.3 0 0 1 2.16 6.12c-1.47 4.95-6.04 6.16-10.73 4.75a14.91 14.91 0 0 1-6.72-4.39l4.11-4.65a7.55 7.55 0 0 0 3.98 2.81c1.08.48 2.35 0 2.83-1.08.43-1.44-.53-2.05-2.15-2.52l-1.65-.51 1.5-4.95c.54.21 1.11.38 1.65.54 1.12.33 2.36.25 2.69-.84s-.48-1.65-1.65-2a8.07 8.07 0 0 0-4.41.15l-.97-5.91-.02-.08Z" style="fill:#fff;stroke-width:0"/><path d="M53.11 43.85V22.79l6.52-.49v7.51h3.89v-7.02l6.52-.49v21.07l-6.52.48V35.7h-3.89v7.67l-6.52.48z" class="cls-15"/></g></svg>