<svg xmlns="http://www.w3.org/2000/svg" id="Layer_2" data-name="Layer 2" viewBox="0 0 117.7 69.57"><defs><style>.cls-2,.cls-3,.cls-5,.cls-6,.cls-7,.cls-8{stroke-width:0}.cls-3{fill:#522e91}.cls-2{fill:#ffef00}.cls-13,.cls-15,.cls-17,.cls-18,.cls-5{fill:none}.cls-6{fill:#4f2583}.cls-7{fill:#4f308e}.cls-8{fill:#fff}.cls-13{stroke:#00a94f}.cls-13,.cls-18{stroke-width:2.64px}.cls-15{stroke-width:3.5px}.cls-15,.cls-18{stroke:#522e91}.cls-17{stroke:#fff;stroke-width:1.25px}</style></defs><g id="Layer_1-2" data-name="Layer 1"><path d="M24.6 25.11h7.9l7 20.7-7.1.5-1-3.6h-5.7l-1 3.6-6.9-.5 6.8-20.7Zm3.9 5.9-1.6 6.5h3.3l-1.7-6.5Z" class="cls-13"/><path d="M74.2 10.91c3.1 1.1 6 2.8 8.4 5.1l2.4-2.5c-3-2.4-6.6-4.1-10.3-5.1-19.1-5.2-35.2 4.7-45.2 13.5h.6c9.7-7.9 25.2-16.2 44.1-11Z" class="cls-2"/><path d="M76.1 6.81c3.8 1 7.3 2.7 10.4 5l2.1-2.2a30.8 30.8 0 0 0-12.1-5c-21.5-4.6-38.4 7.4-48.3 17.4h.7c10.1-9.6 27-20.8 47.2-15.2Z" class="cls-2"/><path d="M67.39 14.03c1.1.3 2.19.67 3.21.88l-.44-.82 8.17 2.02c-2.8-1.9-6.52-3.6-9.82-4.3-16.2-3.2-29.4 3.4-38.1 10.2h1.1c8.9-6.3 21.59-11.88 35.89-7.98Z" class="cls-2"/><path d="M83 1.71c-26.4-6.9-45.6 8.5-56 20.3h.6c18.6-20 39.8-23.2 54.6-17.8 2.7 1 5.3 2.3 7.7 4l1.74-1.79.19 4.24.37-.55 2.3-2.5c-3.3-2.8-7.3-4.8-11.5-5.9Z" class="cls-2"/><path d="M53.3 46.21v-21.2l6.6-.5v7.6h3.9v-7.1l6.6-.5v21.2l-6.6.5v-8.2h-3.9v7.7l-6.6.5z" class="cls-13"/><path d="M51.8 44.71v-21.2l6.6-.5v7.6h3.9v-7.1l6.6-.5v21.2l-6.6.5v-8.2h-3.9v7.7l-6.6.5z" class="cls-15"/><path d="m56.4 67.01-.4.4-5.7.5-19.4 1.3c-1.6.1-7.7.6-8.2.2l-.2-.4c6.5-1 13.6-1.2 20.5-1.7l9.2-.7c1.3 0 2.6-.2 3.7-.2.2 0 .5.1.4.2.1 0 .3.3.1.4" style="fill:#522e91;stroke-width:0;fill-rule:evenodd"/><path d="m28.1 51.61 1.7.5-1.9.3v1.8l-.9-1.5-1.7.4 1.1-1.2-.6-1.2 1.4.5 1.3-1.1-.4 1.5zm-16.5 2.5 3.7-.5 1.1 3.7.5-3.6 2.5-.2 1.1 3.6.5-4h3.8l-1.6 10.7-3.3.3-1.3-4.1-.6 4.2-3.3.3-3.1-10.4z" class="cls-2"/><path d="m22.9 63.51-2.8.2-.7-2.2-.3-1-.6-1.9-.8 5.3-2.8.2-1.5-4.9-1.4-4.8 3.1-.5.3 1.1 1.1 3.8.2-1 .5-3.8 1.9-.2.4 1.1 1.1 3.7.2-1 .5-4.1 2.6-.1h.5l-1.5 10.1z" style="stroke:#ffed00;stroke-miterlimit:10;stroke-width:.14px;fill:none"/><path d="M56.4 56.41a4 4 0 0 0-2.3-.8H53c-.5 0-1 0-1.5.1h-.2l-.9 2.6.6-.1c.5-.1 1-.2 1.5-.2h.4c.3 0 .5.1.7.2.1 0 .1.1.1.2-.4-.2-.8-.3-1.2-.4h-.3c-.8 0-1.7.4-2.2 1-.3-.4-.6-.7-1-.9.6-.6.8-1.4.6-2.2-.1-1.5-1.5-2.7-3-2.5h-1l-4.3.5 1.5 10.5 4.8-.6c.9-.1 1.8-.5 2.4-1.1.1-.1.2-.2.2-.3.5.6 1.1.9 1.9 1h.3c.4 0 .9-.1 1.3-.3v.4h3.2l.4-4.8c.2-.8-.2-1.7-.9-2.3Zm-10.7 1-.1-.9h.2c.2 0 .3 0 .4.4s-.1.4-.5.5Zm.5 3.7-.2-1h.2c.3 0 .5.1.5.5.1.2 0 .4-.5.5Z" class="cls-2"/><path d="M46.5 56.81c0-.4-.3-.7-.6-.7h-.7l.2 1.5h.4c.5 0 .7-.3.7-.8Zm-.3 2.9h-.6l.2 1.6h.4c.6-.1.9-.4.9-1-.1-.4-.5-.7-.9-.6Zm.2 1v-.3.3Z" class="cls-6"/><path d="M46.5 56.81c0-.4-.3-.7-.6-.7h-.7l.2 1.5h.7c.2-.1.4-.3.4-.5v-.3Zm.6 3.6c0-.4-.4-.8-.8-.7h-.7l.2 1.6h.6c.3-.1.6-.3.6-.7.1 0 .1-.1.1-.2Zm-.7 0v.2-.2Z" class="cls-6"/><path d="M53.4 60.41c-.2 0-.3.1-.3.3v.2c.1.1.2.1.3.1.2 0 .3-.1.3-.3v-.2c-.1 0-.2-.1-.3-.1" style="fill:#ffed00;stroke-width:0"/><path d="M53.4 61.21c.3 0 .6-.3.6-.6s-.2-.7-.6-.7h-.1c-.3 0-.6.2-.7.6 0 .3.2.7.5.7h.3" class="cls-6"/><path d="M49.3 60.41c0-.5.2-.9.5-1.3-.3-.4-.8-.6-1.2-.8.8-.5 1.2-1.3 1-2.2a2.4 2.4 0 0 0-2.7-2.2H46l-4 .5 1.2 9.7 4.5-.5c.9-.1 1.7-.4 2.3-1.1-.6-.7-.8-1.4-.7-2.1Z" class="cls-5"/><path d="M54.1 56.01h-1c-.5 0-1 0-1.5.1l-.6 1.9c.4-.1.7-.2 1.1-.2h.8c.8 0 1.3.3 1.2 1v.3c-.2-.2-.4-.3-.5-.4-.3-.1-.6-.2-1-.3h-.7c-1.1.1-1.9 1-2 2-.2 1.3.8 2.5 2.1 2.7h.5c.6 0 1.2-.3 1.6-.7v.8h2.5l.4-4.5c0-.4 0-.8-.1-1.2-.6-1-1.6-1.6-2.8-1.5Z" class="cls-5"/><path d="M49.3 60.41c0-.5.2-.9.5-1.3-.3-.4-.8-.6-1.2-.8.8-.5 1.2-1.3 1-2.2a2.4 2.4 0 0 0-2.7-2.2H46l-4 .5 1.2 9.7 4.5-.5c.9-.1 1.7-.4 2.3-1.1-.6-.7-.8-1.4-.7-2.1Z" class="cls-5"/><path d="M56.6 56.21c-.7-.6-1.4-1-2.3-1h-1c-.5 0-1.1 0-1.6.1l-.4.1-.2.4-.7 1.8-.3.9c.2-.4.2-.9.2-1.4 0-.1 0-.3-.1-.4v-.6c-.2-1.7-1.8-3-3.5-2.8l-.7.1-4.1.5-.7.1v.6l1.2 9.7v.6l1.3.3 4.5-.5c.9-.1 1.8-.5 2.4-1.2.3.2.7.4 1.1.4.3.2.7.3 1.1.4.4 0 .9 0 1.3-.2l.6.3h2.7l.3-3.3-.4-3.9c-.3-.5-.5-.8-.7-1Zm-9.1 7.3-4.5.5-1.1-9.6 4-.5c.3 0 .5-.1.7-.1 1.3-.2 2.7.8 2.9 2.2.2.9-.2 1.8-1 2.2.5.1.9.4 1.2.8-.3.4-.4.9-.5 1.3-.1.8.1 1.5.5 2.1-.5.7-1.3 1.1-2.2 1.1Zm9.5-4.7-.4 4.5h-2.5v-.8c-.4.5-1 .7-1.6.7h-.4c-1.3-.1-2.3-1.3-2.2-2.6v-.1c.1-1.1.9-1.9 2-2h.7c.3 0 .7.1 1 .3.2.1.4.2.5.4v-.3c0-.7-.5-1-1.2-1h-.8c-.4 0-.8.1-1.1.2l.6-2c.5-.1 1.2-.1 1.6-.1h.6c1.3 0 2.3.7 2.8 1.7.3.3.4.7.4 1.1Z" class="cls-3"/><path d="m57.1 53.11 1.1 9.6 2.5-.5-1-9.6-2.6.5z" class="cls-5"/><path d="m57.1 53.11 1.1 9.6 2.5-.5-1-9.6-2.6.5z" class="cls-5"/><path d="m61.7 53.61-.9 6.6-.9-8-3.2.6.5 4.1.4 3.9.3 2.3 2.6-.5-.2 1.2 3.3.2 1.4-10.2-3.3-.2z" class="cls-2"/><path d="m60 63.41.1-.4-.1.4zm0 0 .1-.4-.1.4zm-2.9-10.3 1.1 9.6 2-.4.5-.1-1-9.6-2.6.5z" class="cls-5"/><path d="m60.2 62.31-2 .4-1.1-9.6 2.6-.5.8 7.6.4-2.6v-.1l-.1-.7-.5-4.3-.1-.7-.7.1-2.5.6-.6.1v.6l1.1 9.5.1.8 1.3.2.8-.2.3-.1.2-1.1zm1.8-8.4 2.6.1-1.3 9.5-2.6-.1 1.3-9.5Zm3.4-.4h-.7l-2.6-.2h-.6v.6l-.6 3.7-.8 5.9-.1.6 1.5.4 2.6.1 1.3-9.6v-1.5Z" class="cls-3"/><path d="m28.3 63.71 1.6-10.1 3.3.2-1.6 10.2-3.3-.3z" class="cls-2"/><path d="m32.8 54.11-1.5 9.5-2.6-.2.5-3.2 1-6.3 2.3.2h.3Zm.8-.6h-.7l-2.6-.2h-.6l-.1.6-1.6 9.5-.1.6 1.5.4 2.6.2 1.5-9.5.1-1.6Z" class="cls-3"/><path d="m37.7 53.81-.2 2.8c-.4-.3-.9-.5-1.4-.6h-.3c-1.8.1-3.3 1.6-3.2 3.4-.1 1.2.3 2.3 1.1 3.1.5.4 1.1.7 1.7.7h.2c.6 0 1.2-.2 1.6-.6v.8h2.3l.8-9.7-2.6.1Z" class="cls-5"/><path d="M36.8 63.81v-.4c-.4.2-.8.3-1.2.3h-.3c-2-.2-3.5-2-3.3-4v-.2c0-2 1.6-3.7 3.6-3.7h.4c.4 0 .7.1 1.1.3l.2-2.6h3.2l-.9 10.4-2.8-.1Zm-.5-4.9c-.4 0-.7.4-.7.7 0 .2 0 .4.1.5.1.2.3.3.4.3.4 0 .6-.3.6-.7 0-.2 0-.4-.1-.6 0-.1-.2-.2-.3-.2" class="cls-2"/><path d="M36.5 59.41c0-.1-.1-.1-.1-.2-.2 0-.3.2-.3.4 0 .1 0 .2.1.4 0 0 .1.1.2.1.1-.2.2-.3.4-.4-.2-.1-.3-.2-.3-.3Z" class="cls-6"/><path d="M36.5 59.41c0-.1-.1-.1-.1-.2-.2 0-.3.2-.3.4 0 .1 0 .2.1.4 0 0 .1.1.2.1.2 0 .3-.2.3-.4-.1-.1-.2-.2-.2-.3Z" class="cls-5"/><path d="M36.3 58.61c-.6-.1-1.2.3-1.3 1-.1.6.3 1.2 1 1.3h.2c.5 0 1-.5 1-1v-.2c0-.5-.4-1-.9-1.1Z" class="cls-6"/><path d="m37.7 53.81-.2 2.8c-.4-.3-.9-.5-1.4-.6h-.3c-1.8.1-3.3 1.6-3.2 3.4-.1 1.2.3 2.3 1.1 3.1.5.4 1.1.7 1.7.7h.2c.6 0 1.2-.2 1.6-.6v.8h2.3l.8-9.7-2.6.1Z" class="cls-5"/><path d="m37.7 53.81-.2 2.8c-.4-.3-.9-.5-1.4-.6h-.3c-1.8.1-3.3 1.6-3.2 3.4-.1 1.2.3 2.3 1.1 3.1.5.4 1.1.7 1.7.7h.2c.6 0 1.2-.2 1.6-.6v.8h2.3l.8-9.7-2.6.1Z" class="cls-5"/><path d="M41 53.21h-3.9v.6l-.1 1.8c-.2-.1-.5-.1-.8-.1h-.4c-2.2 0-4 1.8-3.9 4-.1 1.2.2 2.3.9 3.2.5.7 1.3 1.1 2.1 1.3 1 .2 1.3 0 2.3.1l.2.2h2.9l.8-9.4-.1-1.7Zm-1.4 10.3h-2.3v-.7c-.4.4-1 .6-1.6.6h-.2c-.6 0-1.3-.3-1.7-.7-.9-.8-1.3-2-1.1-3.1 0-1.8 1.4-3.4 3.2-3.4h.2c.5 0 1 .2 1.4.6l.2-2.8h2.6l-.7 9.5Z" class="cls-6"/><path d="M41 53.21h-3.9v.6l-.1 1.8c-.2-.1-.5-.1-.8-.1h-.4c-2.2 0-4 1.8-3.9 4-.1 1.2.2 2.3.9 3.2.5.7 1.3 1.1 2.1 1.3 1 .2 1.1.1 2.2.1l.2.2h2.9l.8-9.5v-1.6Zm-1.4 10.3h-2.3v-.7c-.4.4-1 .6-1.6.6h-.2c-.6 0-1.3-.3-1.7-.7-.9-.8-1.3-2-1.1-3.1 0-1.8 1.4-3.4 3.2-3.4h.2c.5 0 1 .2 1.4.6l.2-2.8h2.6l-.7 9.5Z" class="cls-3"/><path d="m25.2 55.31 3.2-.2v7.5l-3.2.3v-7.6z" class="cls-2"/><path d="m28.1 62.31-2.6.2v-6.9l2.6-.2v6.9zm-1.2-8.9-1.8.4v.6l-.1.6h.5l2.2-.2-.8-1.4zm-5.6.1-.5 4.1-.2 1-1.1-3.7-.4-1.1-1.9.2-.5 3.8-.2 1-1.1-3.8-.3-1.1-3.1.5 2.9 9.7 2.8-.2.8-5.3.6 1.9.3.7.7 2.5 2.8-.2 1.4-10 .1-.1h-.5l-2.6.1z" class="cls-5"/><path d="m27.8 53.91.1-1.5 1.8-.2-1.7-.6.4-1.3-1.2 1-1.3-.5.7 1.1-1.3 1.1 1.7-.4.8 1.3z" class="cls-5"/><path d="M28.8 54.71h-.5l.3-1.8 2.4-.6-2.1-.9.1-2.3-1.8 1.6-2.3-.9 1.2 2-1 .9h-4.3v.6l-.3 2.2-.6-1.9-.2-.5h-.5l-1.9.1h-.5v.5l-.4 2-.6-2.1-.2-.5H15l-3.1.5-.7.1.2.7 3 9.7.1.5 1.2.3 2.9-.1.4-2.9.6 1.9.1.5 1.2.3 2.8-.2 1.2-8.2v7l1.4.3 2.6-.2.1-6.9-.2-1.7Zm-4.5-1.2-1.4 10-2.7.2-.8-2.5-.2-.7-.6-1.9-.8 5.3-2.9.2-3-9.7 3.1-.5.3 1 1.1 3.8.1-1 .5-3.8 1.9-.2.3 1 1.1 3.7.2-.9.6-4.2 3.2.2Zm2.3-1.6-.7-1.1 1.3.5 1.2-1.1-.4 1.4 1.7.5-1.8.3v1.5l-.8-1.3-1.6.4 1.1-1.1Zm-1.6 3.1.1-.6v-.6l1.8-.4.8 1.4-2.2.2H25Zm3.1 7.3-2.6.1v-6.8l2.6-.2v6.9Z" class="cls-3"/><path d="m117.7 28.71-14.6 5.7-2 15.5-9.9-12.1-16.5-.9 9.6-9.4-7.5-13.7 15.1 4 10.8-11.4.8 15.6 14.2 6.7z" style="fill:#fffab2;stroke-width:0"/><path d="M82.9 37.61c0 .3 0 .6-.1.9l2.3.2-.8-1-1.4-.1Z" style="fill:#ffe964;stroke-width:0"/><path d="m114.4 28.71-14.6 5.7-2 15.5-9.9-12.1-15.4-1.5 8.5-8.8-7.5-13.7 15.1 4 10.8-11.4.8 15.6 14.2 6.7z" class="cls-2"/><path d="M18.68 46.33c-1.41.31-2.82.52-4.23.52-6.18.1-11.38-4.56-11.49-10.57v-.52c-.33-6.01 4.66-11.19 10.95-11.4h1.08c1.08 0 2.17.1 3.14.41l1.3 8.82c-1.19-.52-2.77-1.61-4.07-1.61-2.71-.31-4.06.54-4.39 3.13-.02 1.14-.11 2.84 2.71 2.84.11 0 2.62 1.48 2.73 1.48 1.41 0 4-2.01 5.19-2.73l-2.93 9.62Z" class="cls-13"/><path d="M17.05 44.77c-1.41.31-2.82.52-4.23.52-6.18.1-11.38-4.56-11.49-10.57v-.52C1 28.19 5.99 23.01 12.28 22.8h1.08c1.08 0 2.17.1 3.14.41l1.76 9.09c-1.08-.52-2.17-1.42-4.55-1.65-1.5-.19-4.03.19-4.3 3.11.13 2.75 1.86 3.88 4.21 3.92 2.47.04 3.51-1.21 4.88-2.49l-1.47 9.57Z" class="cls-18"/><path d="m92 35.51-1.2 10.1" style="fill:none;stroke:#008c3e;stroke-width:.55px"/><path d="M110.7 28.71 96 34.41l-1.9 15.5-9.9-12.1-14.4-.9-.1-1.1 7.6-8.3-7.6-13.7 15.2 4 10.7-11.4.9 15.6 14.2 6.7z" style="fill:#00a94f;stroke-width:0"/><path d="M16.34 44.75c-1.31.31-2.63.52-3.94.52A10.63 10.63 0 0 1 1.69 34.7v-.52c-.3-6.01 4.35-11.19 10.21-11.4h1.01c1.01 0 2.02.1 2.93.41l1.02 7.08c-1.01-.52-2.11-.55-3.22-.66-2.53-.31-4.97.93-5.27 3.52v.73a4.9 4.9 0 0 0 4.85 4.97h.2c1.31 0 2.63-.31 3.74-1.04l-.81 6.94Zm90.36-16.24-14.6 5.7-2 15.5-9.9-12.1-15.4 2.9 8.6-13.2-7.6-13.7 15.2 4 10.7-11.4.9 15.6 14.1 6.7z" class="cls-3"/><path d="M83.3 35.41H71.8l9-17.9H90v13h3.9l-1 4.8H90v5.3l-6.7.6v-5.8Zm.5-4.8v-8l-4 8h4Z" class="cls-8"/><path d="M23.1 23.61h8l7.1 20.7-7.9.4-1-3.5h-4.35l-1.1 3.5-7.75-.4 7-20.7Zm4 6.86-1.7 5.54h3.3l-1.6-5.54Z" class="cls-15"/><path d="M23.1 23.51h8l7.1 20.7-7.2.5-1-3.6h-5.8l-1.1 3.6-7-.5 7-20.7Z" class="cls-7"/><path d="M17.89 44.35c-1.41.31-3.21.59-4.62.59-6.18.1-11.53-4.21-11.64-10.22v-.52C1.3 28.19 6.4 23.31 12.69 23.11h1.08c.82 0 1.48.1 2.33.34l1.18 7.56a8.92 8.92 0 0 0-3.22-.94c-2.18-.16-5.07.35-5.04 3.89.03 2.8 1.96 3.9 4.78 3.9h.22c2.5-.24 3.11-1.43 4.3-2.16l-.43 8.64Z" style="stroke:#fff;stroke-width:1.32px;fill:none"/><path d="m27.13 32.38-.73 2.73h1.46l-.73-2.73Zm-4.03-8.77h8l7.1 20.7-7.84.3-1.08-3.31h-4.46l-1.02 3.31-7.7-.3 7-20.7Z" class="cls-17"/><path d="M51.2 22.71c-.98.11-3 .47-4.95 1.97-.78.6-2.41 1.87-3 3.99-.61 2.21.56 3.03-.18 4.39-1.14 2.09-5.38 2.8-6.81 1.25-.63-.68-.78-1.88-.85-2.4-.07-.55-.24-1.07-.18-2.08.08-1.2.24-1.81.36-2.29a8.36 8.36 0 0 1 1.78-3.21c1.24-1.37 2.68-1.94 3.33-2.22.65-.27 1.9-.54 4.57-.65 1.66-.07 3.96.07 6.82.64l-.89.61Z" class="cls-7"/><path d="M51.8 31.51c-1.4-.4-2.9-.7-4.5-.8-1.1 0-2.6 0-2.6 1.1 0 1.6 8.2 1.5 8.2 8 0 4.6-3.5 6.9-9.4 6.9-1.7 0-3.5-.2-5.2-.6v-5.9c1.7.4 3.4.6 5.2.6 1.7 0 2.5-.3 2.5-1.1 0-1.9-7.9-1.2-7.9-7.9 0-4.5 3.4-6.8 8.1-6.8 1.9 0 3.7.2 5.5.5v6h.1Z" class="cls-13"/><path d="M50.7 29.71c-1.4-.4-2.9-.7-4.5-.8-1.1 0-2.6 0-2.6 1.1 0 1.6 8.2 1.5 8.2 8 0 4.6-3 7.4-8.8 7.4-1.7 0-4-.7-5.7-1v-5.9c1.7.4 3.4.6 5.2.6 1.7 0 2.5-.3 2.5-1.1 0-1.9-7.9-1.2-7.9-7.9 0-4.5 3.4-6.8 8.1-6.8 1.9 0 3.7.2 5.5.5v5.9Z" class="cls-18"/><path d="M51.6 33.21c-1.4-.4-3.4-2.2-4.9-2.3-1.1 0-2.7-2.2-2.7-1.1 0 1.6 8 1.5 8.2 8 .2 8.5-5.3 7.2-11.2 7.2-1.7 0-2.7-.2-4.4-.5l-.7-7.7c-.5-6.3 1.5-.3 1.5-6.9 0-4.5 3.4-6.8 8.1-6.8 1.9 0 3.7.2 5.5.5l.6 9.6Z" class="cls-3"/><path d="M50.9 30.71c-1.4-.4-2.4-.7-3.9-.9-1.1-.1-3.1.1-2.5.3 4.5 2 7.5 3 7.5 7.4 0 5.1-3.4 7.3-9.6 7.3-2.2-.1-3.3-.2-5.1-.7v-6.6c1.7.4 2.7.6 4.4.7 1.2.1 2.7-.1 2.7-.5 0-.7-7.5-1.7-7.6-7.7-.1-4.5 3.7-6.8 8.4-6.8 2.8 0 3.9.1 5.7.4v7.1Z" class="cls-17"/><path d="M50 44.31v2.4l2.9-.4-1.1-3.55-1.8 1.55z" class="cls-3"/><path d="M51.8 44.71v-21.2l6.6-.5 1.2-.4h3.9l-1.2.9 6.6-.5v21.2l-3.4 2-5.8.5v-.8l-1.3-1.7-6.6.5z" class="cls-3"/><path d="M51.8 44.71v-21.2l7-.5v7.1h2.9v-6.6l7.2-.5v21.2l-7.2.5v-7.7h-2.9v7.2l-7 .5z" class="cls-17"/><path d="m16.97 43.71 2.43.1.12-7.65-2.55 7.55z" class="cls-7"/><path d="M51.17 39.47a8 8 0 0 0 .02-3.68v3.67Zm-14.21 6.65 2.15-.05-1.92-.66-.49.26.26.45z" class="cls-3"/><path d="m35.82 35.37.88 2.72v4.13l-.81-2.74-.07-4.11zm.13 9.64 2.25-.07-.89-1.26-1.36.08v1.25z" class="cls-8"/><path d="m36.66 42.08.44 1.6-1.15.08.71-1.68zm-19.98-4.3-.52 6.18-.71.13.65-4.62.58-1.69z" class="cls-7"/><path d="m16.37 41.49.31-4.2 1.12-.41.18 1.12-1.3 3.84-.31-.35z" class="cls-8"/></g></svg>