<svg xmlns="http://www.w3.org/2000/svg" id="Layer_2" viewBox="0 0 431.18 284.43"><defs><style>.cls-1{fill:#0a9841}.cls-2{fill:#5e158d}.cls-3{fill:#0d9944}.cls-7{fill:#5c128b}.cls-8{fill:#129b47}.cls-9{fill:#5d148c}.cls-10{fill:#5c128c}</style></defs><g id="Layer_1-2" data-name="Layer_1"><path d="M385.5 247.12a36.52 36.52 0 0 1-36.48 36.75c-21.15.14-38.3-15.78-38.34-36.13-.04-19.49 14.37-37.16 38.17-37.4 21.02-.21 36.5 15.5 36.64 36.78Zm-57.1-.09c-.02 11.68 8.42 20.64 19.54 20.77 11.23.12 20.06-8.72 20.14-20.15.08-12.1-8.28-21.2-19.55-21.32-11.45-.13-20.12 8.8-20.13 20.7Z" style="fill:#5d138c"/><path d="M89.05 212.36h21.84l22.89 70.27h-18.64l-3.16-9.73H87.4l-3.15 9.59H66.19c7.7-23.69 15.27-46.88 22.86-70.13Zm11.15 21.7-.91-.2c-2.54 8.09-5.1 16.18-7.71 24.52h16.14l-7.52-24.32ZM250.7 282.39h-19.47l-15.67-29.28-.77.28v28.8h-16.74v-69.93h16.6v27.5l.96.31 15.45-27.95h19.47c-6.53 11.31-12.75 22.11-19.2 33.26l19.37 37Z" class="cls-2"/><path d="M258.2 212.09c10.43 0 20.73-.72 30.87.2 11.82 1.05 18.96 9.54 19.35 20.93.48 13.68-6 23.05-18.06 25.48-4.75.96-9.67.95-15.02 1.42v22.27H258.2v-70.3Zm17.08 33.14c5.84.37 11.37.83 14.65-4.76 2.1-3.6 1.81-7.53-.79-10.9-3.67-4.8-8.75-3.67-13.87-3.27l.01 18.93ZM193.64 221.62l-10.58 11.04c-13.32-8.17-23.36-7.85-30.36.74-6.37 7.82-5.93 21.17.95 28.69 7.25 7.91 18.48 8.27 29.34.61l9.52 10.9c-9.13 12.42-35.08 14.99-48.96 3.35-15.7-13.17-17.14-40.4-2.98-55.9 14.05-15.34 42.23-12.76 53.07.57Z" class="cls-9"/><path d="M414.6 282.39h-17.3v-56.77h-16.18v-13.65h49.12v13.3H414.6c-.02 19.24-.02 37.93-.02 57.12Z" class="cls-7"/><path d="M34.35 284.2v-15.06c2.42-.41 4.84-.74 7.23-1.24 4.11-.87 6.66-3.5 6.73-7.66.2-11.19.06-22.4.06-34.2H34.4v-13.68h31.5c.1 1.46.27 2.76.27 4.05.02 12.58.05 25.17-.02 37.76a97.4 97.4 0 0 1-.61 9.53c-1.08 10.01-6.98 16.87-16.68 18.85-4.55.92-9.26 1.09-14.5 1.65Z" class="cls-9"/><path d="M112.75 164.3c5.93 5.96 12.04 12.37 18.18 18.54v-17.01c1.92-.4 3.89-1.1 5.97-1.53v31.3c-3.16-3.06-6.55-5.83-9.3-8.57-2.7-2.68-5.46-5.57-8.97-9.15v17.05c-2.3.33-3.59.36-6.01.74 0-10.36.13-20.47.13-31.37Z" class="cls-1"/><path d="M91.8 195.67H75.14v-30.63H91c.25 1.5.8 3.68 1.14 5.83H81.08V177c2.98.07 5.16.08 8.5.03-.06 1.83-.04 3.32.06 5.38-3.16-.03-5.3-.06-8.57-.06 0 2.5.06 4.4.06 7.12h12.54c-.79 2.4-1.34 4.54-1.87 6.2Z" class="cls-8"/><path d="M240.2 191.34c1.45-1.51 2.53-2.67 3.68-3.88 1.34 1.19 2.65 2.47 4.15 2.95 1.98.64 4.38.08 5.37-2.18 1.38-2.65-.47-4.23-2.46-5.14-1.5-.7-3.12-1.15-4.63-1.84-4.09-1.87-5.8-4.54-5.59-8.54.22-4.07 2.62-6.93 6.85-8.2 3.53-.88 7.67-.38 11.76 3.69l-3.12 3.93c-1.46-.76-2.67-1.66-4.04-2.03a8.44 8.44 0 0 0-4.27-.07c-1.87.6-2.35 3.82-1.3 4.45.43.6 1.54 1.3 1.97 1.48 1.83.77 3.73 1.4 5.56 2.2 4.3 2.62 5.76 4.47 5.48 8.79-.27 4.18-2.37 7.08-6.94 8.28-4.88 1.29-8.78.03-12.47-3.9Z" class="cls-3"/><path d="M34.07 146.9V40.8h25.28v82.94c12.48-.3 24.52 1.07 36.4-1.86 20.11-4.97 34.07-21.84 35.2-42.49.5-9.15-.35-18.03-4.27-26.44-6.96-14.94-18.92-23.47-34.94-26.42a75.98 75.98 0 0 0-13-1.02c-14.1-.12-28.2-.01-42.27-.06-6.77-.02-13.78 3.05-15.23 11.64-.08.47-.36.89-.6 1.47L0 29.36c-.08-7.64 3.02-13.84 8.67-18.77a32.98 32.98 0 0 1 21.68-8.13c18.6-.24 37.26-.7 55.84.11 23.31 1.02 43.35 9.83 57.78 28.86 27.4 36.15 15.36 97.61-39.98 112.32-7.36 1.96-15.18 2.73-22.83 2.99-14.42.46-28.85.14-43.27.14-1.14.02-2.27.02-3.82.02Z" class="cls-7"/><path d="M263.75 124.72v18.18c-12.25 10.53-29.4 7.05-38.16-7.57-.26.14-.62.22-.77.44-11.8 17.35-38.74 16.43-52.67 2-15.82-16.38-15.34-45.78 1.1-61.51 13.7-13.1 37.32-12.94 48.38-.82.2.21.57.28 1.25.6l.39-7.55h23.46c.08 1.5.22 2.94.23 4.4.02 14.94-.01 29.88.02 44.8.01 8.86 5.31 12.22 13.6 8.65.89-.38 1.73-.88 3.17-1.62Zm-40.31-16.95c-.4-3.45-.02-7.22-1.31-10.3-5.06-11.99-21.23-15.22-30.77-6.37-6.28 5.83-8.54 13.15-6.6 21.45 1.9 8.11 6.92 13.76 15.15 15.78 7.67 1.87 14.1-.8 19.48-6.46 3.85-4.07 4.09-8.95 4.05-14.1Z" class="cls-9"/><path d="M309 143.73c-7.44 4.65-15.42 6.75-23.82 4.1-9.54-2.99-14.3-10.48-15.88-20.16-.35-2.14-.26-4.37-.27-6.55-.02-16.02 0-32.03 0-48.05V68.3h22.96c.08 1.4.22 2.86.23 4.32.02 14.84 0 29.67.01 44.5.01 9.52 5.27 12.98 13.97 9.23.9-.39 1.77-.8 2.8-1.26v18.64Z" class="cls-10"/><path d="M264.38 35.82a16.27 16.27 0 0 1 16.13-16.3c8.82-.01 16.1 7.39 16.06 16.37-.02 9-7.28 16.33-16.13 16.28a16.26 16.26 0 0 1-16.06-16.35Z" style="fill:#04953d"/><path d="M314.47 0h23.43v116.53c.02 10.48 5.53 13.9 15.02 9.36l1.7-.81v18.84c-8.3 4.93-17.37 7.06-26.68 2.75-9.52-4.41-13.64-12.82-13.67-22.94-.13-40.66-.06-81.3-.06-121.95 0-.48.14-.96.26-1.78Z" style="fill:#5b118b"/><path d="M360.39 68.3h23.44v46.07c0 1.51.02 3.03.09 4.54.22 4.4 1.98 7.94 6.23 9.46 4.21 1.5 8.27.78 11.62-2.36 4.28-4.02 6.02-9.18 6.04-14.96.03-12.47.01-24.94.01-37.41v-5.26h23.05c.09 1.1.3 2.38.3 3.66.02 29.65.01 59.31.01 88.96 0 10.62-3.62 19.76-11.14 27.2-4.93 4.87-10.11 6.79-17.08 6.5l-8.4-18.7c1.17-.43 2.06-.8 2.98-1.11 6.49-2.1 9.88-6.78 10.17-13.47.3-6.83.07-13.68.07-20.17-4.23 2.28-8.17 5.3-12.62 6.64-15.03 4.53-30.08-4.5-33.92-19.9a32.06 32.06 0 0 1-1.03-7.47c-.09-16.68-.05-33.37-.05-50.05.03-.61.15-1.26.23-2.17Z" class="cls-10"/><path d="M55.64 170.69c-2.62.06-4.5 0-7.37.05v24.92c-2.41 0-3.48.02-6.06 0v-24.82c-3.03-.03-4.13 0-8.06-.03.45-1.92 1-4 1.4-5.77h20.08l.01 5.65Z" style="fill:#0f9a45"/><path d="M158.22 164.3c5.93 5.96 12.04 12.37 18.18 18.54v-17.01c1.92-.4 3.89-1.1 5.97-1.53v31.3c-3.16-3.06-6.54-5.83-9.3-8.57-2.7-2.68-5.45-5.57-8.96-9.15l-.01 17.05c-2.3.33-3.58.36-6.01.74.01-10.36.13-20.47.13-31.37Z" class="cls-1"/><path d="M220.66 195.67H204v-30.63h15.84c.25 1.5.8 3.68 1.15 5.83h-11.05V177c2.98.07 5.16.08 8.5.03-.06 1.83-.04 3.32.06 5.38-3.17-.03-5.3-.06-8.57-.06 0 2.5.06 4.4.06 7.12h12.54c-.79 2.4-1.34 4.54-1.87 6.2Z" class="cls-8"/><path d="M278.25 191.34c1.45-1.51 2.52-2.67 3.67-3.88 1.35 1.19 2.65 2.47 4.15 2.95 1.98.64 4.38.08 5.37-2.18 1.38-2.65-.46-4.23-2.45-5.14-1.51-.7-3.12-1.15-4.63-1.84-4.1-1.87-5.81-4.54-5.6-8.54.23-4.07 2.63-6.93 6.86-8.2 3.53-.88 7.67-.38 11.76 3.69l-3.12 3.93c-1.46-.76-2.67-1.66-4.04-2.03a8.44 8.44 0 0 0-4.27-.07c-1.88.6-2.36 3.82-1.31 4.45.43.6 1.54 1.3 1.97 1.48 1.83.77 3.73 1.4 5.56 2.2 4.3 2.62 5.76 4.47 5.48 8.79-.27 4.18-2.36 7.08-6.93 8.28-4.88 1.29-8.78.03-12.47-3.9Z" class="cls-3"/><path d="M334.8 195.67h-16.66v-30.63h15.84c.25 1.5.8 3.68 1.15 5.83h-11.05V177c2.98.07 5.15.08 8.5.03-.06 1.83-.04 3.32.06 5.38-3.17-.03-5.3-.06-8.57-.06 0 2.5.06 4.4.06 7.12h12.54c-.8 2.4-1.34 4.54-1.87 6.2ZM372.95 195.67h-16.66v-30.63h15.84c.25 1.5.8 3.68 1.15 5.83h-11.05V177c2.97.07 5.15.08 8.5.03-.06 1.83-.04 3.32.06 5.38-3.17-.03-5.3-.06-8.57-.06 0 2.5.06 4.4.06 7.12h12.54c-.8 2.4-1.34 4.54-1.87 6.2Z" class="cls-8"/></g></svg>