<svg xmlns="http://www.w3.org/2000/svg" id="b" viewBox="0 0 447.2 211.1"><defs><radialGradient id="e" cx="-77.9" cy="867" r="1.67" fx="-77.9" fy="867" gradientTransform="translate(1942.669 20523.748) scale(23.606 -23.606)" gradientUnits="userSpaceOnUse"><stop offset="0" stop-color="#fff"/><stop offset=".08" stop-color="#fefdf4"/><stop offset=".21" stop-color="#fef8d9"/><stop offset=".38" stop-color="#feefad"/><stop offset=".58" stop-color="#fee470"/><stop offset=".8" stop-color="#fed623"/><stop offset=".88" stop-color="#fed107"/></radialGradient><clipPath id="d"><path d="M65.46 72.54a50.76 50.76 0 1 0 101.52 0 50.76 50.76 0 0 0-101.52 0" style="fill:none"/></clipPath><style>.f{fill:#e22028}.g{fill:#fdd10a}.i{fill:#2f2e7b}.m{fill:#7b868a}</style></defs><g id="c"><path d="M86.22 177.72a305.42 305.42 0 0 1-19.98-7.4c10.75 6.78 24.4 12.85 38.94 17.17a144.74 144.74 0 0 0 19.5 4.68c2.25.37 4.01.63 6 .84l.59-4.2c-13.55-2.02-28.84-5.71-45.05-11.1" class="g"/><path d="m309.83 100.36 16.12.01v-3.55l-16.14-.02.02 3.56zM329.5 96.82l-.02 5.73 2.54-.04v6.98a40.23 40.23 0 0 0 7.23 12.25c6.04 6.9 14.13 10.62 22.95 10.62.65 0 1.3-.02 1.95-.06 7.93-.49 15.6-4.59 21.38-11.23-5.2 4.53-11.43 7.29-17.83 7.68-.65.04-1.3.06-1.94.06-8.83 0-16.92-3.73-22.95-10.62-7.1-8.12-10.86-19.78-10.85-33.72 0-14.35 3.79-26.41 10.73-34.5-.2.16-.4.32-.6.5-6.41 5.77-10.72 14.42-12.6 24.97l.02 21.38ZM375.63 74.3c-1.29-3.54-3.69-5.67-6.58-5.83a7.2 7.2 0 0 0-5.5 2.09c-.67.64-1.3 1.42-1.85 2.32a6.96 6.96 0 0 1 3.8-.86c2.27.13 4.23 1.49 5.6 3.77l9.64.3 13.29-6.22-.34-2.07c-.03-.14-.09-.26-.12-.4l-17.37 8.46-.57-1.56ZM179.61 169.43c.18-1.02.4-2.03.68-3.03l5.62-19.5-2.58.14-5.27 18.32 1.55 4.06Z" class="m"/><path d="m362.13 79.15-.2 20.18c.33.44.67.84 1.04 1.2a7.9 7.9 0 0 0 1.91 1.41l5.95-.01a7.35 7.35 0 0 0 3.56-3.55l-8.93.02.18-19.12-3.51-.13ZM278.51 132.68l-2.78.16.04 3.35 52.7-3.1v-3.34l-49.15 2.88L278 35.41l-3.61-.38 1.06 77.75 3.06 19.9zM309.63 67.41l18.11 1.06v-3.76l-18.13-1.07.02 3.77zM442.23 142.78v-.03c-1.5-1.23-2.8-1.76-4.12-1.66-.25.02-.66.1-.75.45l.42.1 2.4.51c.67.14 1.37.35 2.05.63ZM434.05 155.64c.01 0 1.18-.17 1.21-.91v-.02c-.15-.04-.37-.07-.52-.1l-2.2-.28a9.97 9.97 0 0 1-3.9-1.35l.57.55c1.71 1.56 3.34 2.28 4.84 2.1ZM426.94 151.63c-1.6-1.64-2.66-4.1-2.56-7.53a16.61 16.61 0 0 1 3-9.26 14.97 14.97 0 0 0-3.8 3.91l-.78 25.43 4.14-12.54ZM396.37 105.02l-6.04 24.45 22.4-1.32.59-3.37-19.44 1.14 18.93-76.53-2.6-.27-11.61 46.93a48.38 48.38 0 0 1-2.22 8.97ZM428.06 114.89l-10.17.4-.59 3.44 7.21-.29 1.27 8.96 19.66-1.16-.62-3.31-15.49.91-1.27-8.95zM410.38 145.18a35.7 35.7 0 0 1 0-1.88l.25-9.1-3.47.2-.1 3.72 3.32 7.06ZM225.18 135.8l-20.2 1.2-15.41-47.1c-.56-2.03-1.07-3.97-1.53-5.9-.06 1.69-.13 3.37-.23 5.03l-.47 8.46 14.08 43.06 22.88-1.35.88-3.4ZM368.68 176.72c-1.07.15-2.13.22-3.16.22-4.73 0-9-1.5-12.26-4.37-4.14-3.63-6.3-9.07-6.26-15.74a25.29 25.29 0 0 1 5.46-15.78c-3.38 2.72-6 6.4-7.52 10.7l-.07 17.21a17.5 17.5 0 0 0 4.83 7.16c3.26 2.87 7.53 4.37 12.27 4.37a22.92 22.92 0 0 0 18.08-8.58 23.1 23.1 0 0 1-11.37 4.81ZM274.45 132.92l-28.66 1.68-4.99-48.91c-.14.65-.3 1.3-.47 1.94L238 96.59l4.23 41.56 32.73-1.92-.51-3.31ZM294.36 186.06l-.53-45.26-3.59.2.33 27.95 1.99-.22.24 17.54-2.03.27.04 3.07 31.93-4.27v-3.08l-28.38 3.8zM410.33 170.52l-6.57-13.13v.74l-.23 9.45 3.25 6.49 12.33-1.66.1-3.09-8.88 1.2ZM434.84 167.77a19.69 19.69 0 0 1-11.25-1.97l-.82-.42-.1 3.48-2.86.38.23.12a19.68 19.68 0 0 0 11.25 1.97c3.66-.5 7.55-2.57 10.11-6.18a14.94 14.94 0 0 1-6.56 2.62ZM257.18 191.05l-1.17-48.12-3.64.21 1.26 51.46 35.62-4.77-.04-3.08-32.03 4.3zM389.57 173.3l.76-37.95-3.48.2-.14 6.87a22.72 22.72 0 0 1 2.28 10.7 25.55 25.55 0 0 1-2.72 11.12l-.26 12.61L399.9 175l.07-3.08-10.4 1.39ZM327.47 181.62l-.03-42.72-3.56.2.02 26.2 2.37-.26.03 16.74-2.38.32v3.08l17.35-2.33.01-3.08-13.81 1.85zM181.7 138.35l-39.49 2.32 13.41-117.95-4-.34-13.86 121.83 43.75-2.5.19-3.36zM132.58 207.75l8.19-58.3-3.97-.04-8.67 61.69 29.24-3.6.2-3.1-24.99 3.35zM214.97 78.4c.37-3.05.8-6.08 1.46-8.97l9.14-39.46-2.66-.28-9.74 42.02 1.8 6.68ZM228.54 194.88l-1.72-50.29-3.67.2 1.84 53.64 22.84-3.05-.08-3.07-19.21 2.57zM200.73 198.61l-3.54-23.34-2.79 8.6 2.78 18.29 23.98-3.21-.69-2.98-19.74 2.64zM173.25 202.3l-10.5-23.06-.17-.45v.02l-.66 9.96 7.78 17.08 15.86-2.13 1.04-3.22-13.35 1.8Z" class="m"/><path d="m157.38 20.49 41.6 4.3 15.96 59.26.91.02c.51-4.73 1.01-9.74 2.04-14.31l9.73-42 33.78 3.51 15.38 100-29.65 1.75-5.71-56.1-.6-.02c-.54 3.45-1.05 7.04-1.94 10.34l-12.21 46.98-20.63 1.21-15.05-46c-1.3-4.77-2.46-9.27-2.93-14.08l-1.27-.04c-.12 4.5-.22 9.15-.48 13.63l-2.67 47.8-39.74 2.33 13.48-118.58ZM279.46 33.15l50.32 5.21.01 24.97-21.69-1.28.05 9 19.83.85.02 23.42-19.7-.02.06 9.08 22.16-.34.01 24.08-49.73 2.92-1.34-97.89zM398.3 78.27c-.38 12.84-.57 23.53-6.93 33.63-5.83 9.33-14.9 14.8-23.76 15.35-9.01.55-17.42-2.91-23.68-10.05-6.42-7.35-10.48-18.47-10.47-32.73 0-29.32 15.8-45.5 35.15-43.45 10.1 1.08 23.25 9.5 27.2 23.62l-18.77 9.14c-1.54-4.25-4.5-6.62-7.9-6.81-7.76-.43-12.2 8.9-12.26 19.22-.07 9.37 4.05 18.06 11.04 17.95a8.95 8.95 0 0 0 8.54-7.27l-9.49.02.2-19.74 31.12 1.12ZM420.12 96.08l3.67-22.76.62.03c.23 3.2.46 6.48.87 9.65l1.63 13.08h-6.8Zm-3.5 17.76 12.74-.5 1.26 8.92 16.58-.98-13.36-72.13-18.94-1.96-19.08 77.11 19.2-1.13 1.6-9.33Z" class="f"/><path d="m228.25 142.66 20.24-1.15 1.36 49.01-19.87 2.65-1.73-50.51zM257.46 141l18.5-1.04.59 32.04 14.54-1.59.19 14.55-32.64 4.38-1.18-48.34zM295.31 138.87l16.35-.93.2 30.19 12.91-1.41.02 13.75-28.95 3.88-.53-45.48zM328.94 136.96l14.56-.81-.17 41.83-14.36 1.93-.03-42.95zM391.87 133.41l11.03-.62 9.32 19.83.31-.03c-.35-3.02-.73-6.13-.65-9.25l.3-11.08 10.1-.57-1.08 35.85-10 1.35-9.13-18.23-.33.03c.3 2.55.57 4.94.52 7.4l-.29 12.03-10.87 1.46.77-38.17ZM427.69 154.15l.49.47c1.72 1.57 3.8 2.76 6.04 2.5.95-.1 2.48-.77 2.54-2.34.05-1.55-1.21-1.55-2.09-1.69l-1.93-.25c-3.83-.49-7.03-3.12-6.86-8.69.27-8.5 6.39-13.59 12.24-13.9 3-.18 5.69.64 8.13 2.54l-2.85 8.98c-1.56-1.33-3.35-2.34-5.4-2.18-.85.06-2.1.58-2.16 2-.03 1.3 1.16 1.4 1.88 1.56l2.14.47c3.95.83 6.69 3.38 6.47 9.13-.31 8.05-6.02 12.77-11.69 13.54a18.2 18.2 0 0 1-10.35-1.81l3.4-10.33ZM142.56 147.5l26.5-1.5 10.77 28.21.62-.05c.31-2.42.62-4.98 1.28-7.35l6.3-21.89 23.17-1.3 11.68 50.51-20.88 2.8-4.31-28.33-.41.04c-.35 1.78-.68 3.65-1.27 5.4l-8.03 24.76-13.83 1.86-10.03-22.04a30.45 30.45 0 0 1-1.96-6.76l-.83.07c-.05 2.24-.1 4.54-.25 6.78l-1.58 23.92-25.16 3.37 8.22-58.5ZM369 134.06c-10.99.6-20.42 9.69-20.5 22.77-.08 13.25 9.08 19.88 19.98 18.4 10.45-1.4 18.78-9.84 19.01-22.13.23-12.14-7.95-19.63-18.5-19.04" class="i"/><path d="m367.44 150.41 3.15-10.78 3.52 10.26 8.99-.74-6.94 6.69 3.1 9.28-8-4.68-9.38 8.96 3.55-12.16-10.36-5.94 12.37-.89z" style="fill:#fff"/><g style="clip-path:url(#d)"><path d="M65.46 21.78h101.5v101.51H65.46z" style="fill:url(#e)"/></g><path d="M114.89 133.01a83.5 83.5 0 0 1-15.43-.74 47.66 47.66 0 0 0 30.91 6.51 41.78 41.78 0 0 0 20.09-7.38l.44-.33a48.17 48.17 0 0 0 16.78-19.62l.73-1.63.12-.26.37-.83a43.24 43.24 0 0 0 1.63-4.75c-9.71 16.18-30.76 27.94-55.64 29.04" class="g"/><path d="m155.87 71.72.86-9.39-5.12 6.48-7.04-5.05 2.74-9.01 7.65 1.6L149 49.2l2.53-8.07-6.35 3.45-6.9-8.32 2.4 10.9-7.3 3.93-5.8-9.57 6.03-7.63-10.29.54-6.95-11.68-.07 12.05-13.6.72 13.7 7.24-.15 12.32-14.07-.05-6.84-14.17-4.02 14.1-20.1-.24 17.56 9.17-4.53 15.89 14.4-10.93 12.97 6.89-5.9 13.3-17.72.74 13.44 8.77-7.32 16.12 14.5-11.44 10.78 7.03-2.88-13.43 10.56-8.24 6.71 8.68-6.25 12.43 10.36-7.08 5.91 7.8-.5-11.5 7.97-5.46-8.39-1.8-.42-10.92 8.11-2.03 3.82 8.95.92-10.12 6.54-1.55-6-4.26Zm-13.6 8.88-5.02 9.77-10.16-2.13-12.25.38-2.81-13-5.86-12.39 10.3-7.94 7.1-8.68 9.7 5.07 8.82 1.99 2.26 10.17 3.84 9.21-5.92 7.55Z" class="i"/><path d="M24.42 42.29c-4.58 11.65-2.21 39.6 8.25 58.94a154.3 154.3 0 0 0 13.97 23.18C32.88 109.98 17.28 86.77 11.06 57.7c6.63-9.59 9.14-11.26 13.36-15.41Z" class="f"/><path d="M95.5 18.26a45.12 45.12 0 0 1 6.85-2.12c-6-3.37-51.4-27.47-84.84-4.82C-10.72 30.44 2.93 70.14 5.94 77.85c8.22 22.43 24.63 45.2 46.2 64.13 20.93 18.37 45.63 29.67 68.34 35.19l.24-.68c-13.93-6.67-26.57-17.78-39.08-28.76C44.88 115.47 24.99 72.52 33.3 44.18a171.6 171.6 0 0 1 25.93 15.94c.4-1.75.88-3.47 1.44-5.16A174.38 174.38 0 0 0 32.9 38.43l-2.47-1.17-.94 2.57c-5.41 14.68-3.55 33.88 5.25 54.06 8.81 20.2 24.3 40.66 43.6 57.6a192.49 192.49 0 0 0 17.14 13.43 177.34 177.34 0 0 1-40.04-26.7C34.49 119.84 18.58 97.8 10.62 76.08c-2.78-7.14-15.39-43.63 9.7-60.62 9.37-6.35 19.96-8.61 30.3-8.61 18.69 0 36.55 7.38 44.89 11.4Z" class="g"/><path d="M87.7 22.01c-10.47-4.1-26.47-10-36.92-10-10.77 0-20.12 2.64-27.8 7.84-.54.37-1.1.78-1.75 1.29l-.45.36-.07.06-1.1.95-.19.17-.34.32c-.4.38-.8.8-1.2 1.22-.24.25-.46.52-.69.78l-.03.04a25.86 25.86 0 0 0-1.28 1.6l-.16.23-.1.13c-5.14 7.25-6.35 16.28-5.84 24.74 1.22-1.9 2.57-3.7 4.07-5.4 4.14-4.73 9.97-11 15.88-13.79l3.96 1.87 1.28.6c6.75 3.2 18.96 9.93 27.48 15.21a59.21 59.21 0 0 1 25.24-28.22Z" class="g"/><path d="M54.32 68.63c0-17.11 7.3-32.52 18.94-43.3a49.51 49.51 0 0 0 0 86.6 58.83 58.83 0 0 1-18.94-43.3Z" class="f"/><path d="m217.36 4.2-4.15-.43.01-3.77 12.18 1.27v3.77l-4.15-.43-.06 16.21-3.89-.4.05-16.22ZM226.56 1.4l11.17 1.16-.01 3.77-7.28-.76-.01 4.53 5.38.57v3.4l-5.4-.56v4.53l7.27.76-.02 3.74-11.16-1.16.06-19.99ZM239.76 2.77l3.67.38 5.8 12.23.03-11.62 3.92.4-.06 20-3.67-.39-5.82-12.18-.04 11.57-3.9-.4.07-20ZM255.9 4.45l3.66.38 5.8 12.24.04-11.63 3.92.41-.07 19.99-3.67-.38-5.82-12.18-.04 11.56-3.9-.4.07-19.99ZM272.03 6.13l11.16 1.17-.01 3.77-7.28-.76-.01 4.54 5.39.56-.02 3.4-5.38-.56-.02 4.53 7.28.76-.01 3.75-11.17-1.17.06-19.98ZM283.89 20.79l3.89.4c-.01 2.33 1.17 3.41 2.9 3.6 1.63.16 2.84-.48 2.85-2.12 0-1.67-1.8-2.4-3.86-3.27-2.59-1.14-5.52-2.53-5.5-6.5 0-3.65 2.6-5.6 6.56-5.18 3.83.4 6.48 3.25 6.46 7.36l-3.83-.4c0-2.12-1.04-3.22-2.7-3.4-1.66-.17-2.6.53-2.6 2.03 0 1.7 1.68 2.41 3.65 3.24 2.62 1.1 5.72 2.39 5.7 6.5 0 3.8-2.72 5.78-6.75 5.36-4.03-.42-6.79-3.34-6.77-7.62ZM298.21 22.28l3.9.4c-.01 2.33 1.17 3.42 2.89 3.6 1.63.17 2.85-.47 2.85-2.11.01-1.68-1.8-2.4-3.85-3.27-2.6-1.15-5.52-2.53-5.5-6.5 0-3.66 2.6-5.6 6.55-5.19 3.84.4 6.48 3.26 6.47 7.37l-3.84-.4c.01-2.13-1.03-3.23-2.7-3.4-1.66-.18-2.59.52-2.6 2.02 0 1.7 1.69 2.42 3.66 3.25 2.62 1.1 5.72 2.38 5.7 6.5 0 3.8-2.72 5.78-6.75 5.36-4.04-.43-6.79-3.35-6.78-7.63ZM313.6 10.47l11.16 1.17v3.77l-7.28-.76-.02 4.53 5.39.57-.01 3.4-5.39-.56-.01 4.53 7.27.76-.01 3.74-11.17-1.16.07-19.99ZM326.8 11.85 337.96 13v3.77l-7.28-.76-.02 4.54 5.39.56-.01 3.4-5.39-.56-.01 4.54 7.27.76-.01 3.74-11.17-1.16.07-20ZM345.27 13.78l3.9.4-.06 16.25 6.6.68-.02 3.75-10.48-1.1.06-19.99ZM356.45 28.33l.02-6.8c.02-4.09 2.76-6.67 6.7-6.26 3.93.41 6.68 3.57 6.67 7.65l-.02 6.8c-.01 4.06-2.79 6.6-6.7 6.2-3.95-.42-6.68-3.54-6.67-7.6Zm6.68 3.84c1.32.14 2.79-.42 2.8-2.71l.02-7.09c0-2.24-1.32-3.2-2.78-3.35-1.38-.15-2.77.45-2.77 2.74l-.03 7.09c0 2.24 1.29 3.17 2.76 3.32ZM374.84 20.63l-4.14-.43.01-3.77 12.18 1.27v3.77l-4.15-.43-.06 16.22-3.89-.41.05-16.22ZM387.31 21.93l-4.14-.43v-3.77L395.37 19l-.01 3.77-4.15-.43-.05 16.22-3.9-.41.06-16.22ZM396.52 19.12l11.16 1.17v3.77l-7.28-.76-.02 4.53 5.39.57-.01 3.4-5.4-.56v4.53l7.27.76-.01 3.74-11.17-1.16.07-19.99ZM409.71 20.5l6.32.66c3.98.41 6.65 3.27 6.63 7.92v.57c-.01 3.09-1.34 5.02-3.49 5.76l3.34 6.42-4.26-.45-2.66-5.44-2.03-.2-.02 5.15-3.89-.4.06-19.99Zm5.8 11.72c1.7.18 3.28-.4 3.29-3.03v-.57c0-2.75-1.51-3.59-3.26-3.77l-1.95-.2-.02 7.37 1.95.2ZM428.37 35.23l-5.57-13.37 4.06.43 3.5 8.81 3.58-8.07 4.03.42-5.7 12.2-.03 7.2-3.89-.41.02-7.2Z" class="i"/></g></svg>