<svg xmlns="http://www.w3.org/2000/svg" id="Layer_2" data-name="Layer 2" viewBox="0 0 980.63 283.59"><defs><style>.cls-1{fill:#2051a1;stroke:#131f46;stroke-miterlimit:10;stroke-width:12px}.cls-2{fill:#e22726}.cls-2,.cls-3,.cls-4,.cls-5{stroke-width:0}.cls-3{fill:#00964d}.cls-4{fill:#131f46}.cls-5{fill:#fdd106}</style></defs><g id="Layer_1-2" data-name="Layer 1"><path d="M698.42 187.17v58.71h274.1l-26.88-87.97 24.84-96.75H897.4L698.42 187.17zM281.46 187.17v58.71H8.11l26.96-87.97L9.4 61.16h60.98l211.08 126.01z" class="cls-1"/><path d="M62.96 6h854.15v186.27H62.96z" class="cls-1"/><path d="m891.31 9.34-55.04 16.48 73.31-14.81v3.35l-73.31 19.46 73.31-12.78v3.83L836.27 42.3l73.31-11.82v3.82l-73.31 16.36 73.31-10.63v3.92l-73.31 14.83 73.31-8.24v3.82l-73.31 12.77 73.31-7.64v4.54l-73.31 11.46L909.58 70v4.54l-73.31 9.31 73.31-3.7v3.7l-73.31 8.96 73.31-3.71v4.12l-73.31 9.32 73.31-3.41v4.6l-73.31 5.85 73.31.3v4.24l-73.31 3.04 73.31 2.27v3.88l-73.31 2.21 73.31 3.23v3.76l-73.31.77 73.31 5.5v4.23l-73.31-.71 73.31 6.45v2.74l-73.31-.65 73.31 6.62v4.42l-73.31-3.4 73.31 9.19v4.36l-73.31-5.25L909.58 178v3.82l-73.31-6.09 73.31 11.17h8.18V9.34h-26.45zM89.4 9.34l55.05 16.48-73.32-14.81v3.35l73.32 19.46-73.32-12.78v3.83l73.32 17.43-73.32-11.82v3.82l73.32 16.36-73.32-10.63v3.92l73.32 14.83-73.32-8.24v3.82l73.32 12.77-73.32-7.64v4.54l73.32 11.46L71.13 70v4.54l73.32 9.31-73.32-3.7v3.7l73.32 8.96-73.32-3.71v4.12l73.32 9.32-73.32-3.41v4.6l73.32 5.85-73.32.3v4.24l73.32 3.04-73.32 2.27v3.88l73.32 2.21-73.32 3.23v3.76l73.32.77-73.32 5.5v4.23l73.32-.71-73.32 6.45v2.74l73.32-.65-73.32 6.62v4.42l73.32-3.4-73.32 9.19v4.36l73.32-5.25L71.13 178v3.82l73.32-6.09-73.32 11.17h-8.17V9.34H89.4zM56.96 198.21l222.41 42.59V198l-222.41.21zM922.98 198.21 700.57 240.8V198l222.41.21z" class="cls-4"/><path d="M165.11 59.5V49.21h56.11V59.5h-22.85v94.03h-10.43V59.5H165.1Z" class="cls-2"/><path d="M159.67 54.29V43.95h58.07v10.34h-23.61v94.46h-10.77V54.29h-23.7Z" class="cls-5"/><path d="M286.42 49.34v10.29l-45.49-.13v36.13l45.26.13v10.29l-45.26-.13v37.31l45.48.13v10.29h-54.38V49.23h54.38v.11Z" class="cls-2"/><path d="M283.09 43.95v10.34h-46.93v36.3h45.36v10.34h-45.37v37.48h46.93v10.34h-56.96V43.95h56.97Z" class="cls-5"/><path d="M368.8 49.31h11.11v104.21h-11.13l-60.61-90.74.23 90.74h-11.13V49.2h12.34l59.27 86.97-.1-86.86Z" class="cls-2"/><path d="M365.83 43.95h11.33v104.8h-11.33l-61.75-90.99.24 90.99h-11.33V43.95h13.39l59.57 87.47-.12-87.47Z" class="cls-5"/><path d="M562.77 124.03a24.67 24.67 0 0 0 2.83 10.26 20.03 20.03 0 0 0 5.33 6.11 17.92 17.92 0 0 0 6.23 3c1.77.49 3.6.77 5.44.83a20.3 20.3 0 0 0 13.83-5.49 20.93 20.93 0 0 0 4.42-6.11 17.37 17.37 0 0 0 1.7-7.67c.12-3.04-.58-6.07-2.04-8.81-1.34-2.24-3.61-5.83-5.86-7.35-2.36-2.15-5.01-3.28-7.69-4.25-2.91-1.09-4.75-1.83-7.58-2.76-2.17-.78-8.22-2.74-10.86-3.82-2.9-1.28-3.59-1.75-6.73-3.72-2.83-2.12-4.7-3.86-6.44-6.8-1.93-3.11-1.88-5.48-1.88-10.25-.2-4.08.62-8.16 2.38-11.91a28.37 28.37 0 0 1 6.57-8.81 28.08 28.08 0 0 1 9.52-5.39 33.95 33.95 0 0 1 11.11-1.86c3.2.04 6.37.52 9.41 1.45 3.23.95 6.24 2.46 8.84 4.45a25.04 25.04 0 0 1 6.8 8.08 31.15 31.15 0 0 1 3.4 12.12h-11.11a37.64 37.64 0 0 0-1.36-5.39 16.4 16.4 0 0 0-2.95-5.28c-1.37-1.69-4.15-4.61-6.15-5.65-2.51-1.2-5.13-2.07-7.96-1.96-2.45 0-4.87.41-7.14 1.24a15.9 15.9 0 0 0-5.78 3.52c-1.69 1.56-3 3.43-3.85 5.49a16.58 16.58 0 0 0-1.47 7.15c-.1 2.64 1.34 7.08 2.56 9.48a15.9 15.9 0 0 0 4.99 5.18 37.97 37.97 0 0 0 7.82 3.94 250.4 250.4 0 0 0 10.31 3.63c2.27.93 4.87 2.07 7.82 3.32a31.3 31.3 0 0 1 7.93 4.97 29.03 29.03 0 0 1 6.12 7.67 23.84 23.84 0 0 1 2.49 11.6c.02 3.93-.74 7.83-2.27 11.5a28.45 28.45 0 0 1-6.35 9.32 29.4 29.4 0 0 1-9.86 6.32 36.36 36.36 0 0 1-24.48.31 28.75 28.75 0 0 1-9.86-5.8 27.26 27.26 0 0 1-6.8-9.32 32.27 32.27 0 0 1-2.83-12.74h11.45v.21Z" class="cls-2"/><path d="M558.52 120.11a24.69 24.69 0 0 0 2.95 10.44 20.78 20.78 0 0 0 5.55 6.22 19.2 19.2 0 0 0 6.49 3.06c1.84.5 3.75.78 5.67.84a21.4 21.4 0 0 0 14.4-5.59 21.3 21.3 0 0 0 4.6-6.22c1.2-2.46 1.8-5.12 1.77-7.81.13-3.1-.3-7.58-1.83-10.37a18.55 18.55 0 0 0-5.67-5.8 63.27 63.27 0 0 0-8.11-4.06c-2.75-1.28-5.81-2.23-8.76-3.18-3.17-.96-5.63-1.69-9.06-2.88-3.15-1.16-5.26-2.04-7.51-3.48-2.94-2.16-4.59-3.74-6.41-6.74-2.01-3.16-2.95-7.17-2.95-12.03-.2-4.16.22-8.22 2.06-12.04a37 37 0 0 1 6.44-9.16 29.51 29.51 0 0 1 9.92-5.49 36.49 36.49 0 0 1 11.57-1.9c3.33.04 6.64.53 9.8 1.48 3.37.96 6.5 2.5 9.21 4.54a25.6 25.6 0 0 1 7.08 8.23 31.2 31.2 0 0 1 3.54 12.34H597.7a36.3 36.3 0 0 0-1.42-5.49 16.64 16.64 0 0 0-3.07-5.38 16.7 16.7 0 0 0-5.31-4.22 18.55 18.55 0 0 0-8.5-1.69c-2.55 0-5.07.42-7.44 1.27-2.28.78-4.34 2-6.02 3.59a15.86 15.86 0 0 0-4.01 5.59 16.46 16.46 0 0 0-1.53 7.28c-.1 2.69.5 5.36 1.77 7.81 1.26 2.09 3.42 3.68 5.58 5.07 2.96 1.48 4.31 2.24 7.93 3.31 3.76 1.06 5.09 1.4 9.13 2.55 4.46 1.45 5.17 1.87 8.24 3.13 5.01 2.37 6.2 3.35 9.63 5.99 2.59 2.27 4.78 5.4 6.4 8.3 1.88 3.7 2.73 8.62 2.56 12.68a29.05 29.05 0 0 1-8.97 21.2 30.6 30.6 0 0 1-10.27 6.43 38.78 38.78 0 0 1-25.5.32 30.04 30.04 0 0 1-10.27-5.91 27.73 27.73 0 0 1-7.08-9.49 32.1 32.1 0 0 1-2.95-12.98h11.92v.21Z" class="cls-5"/><path d="M464.4 49.31h11.11v104.21h-11.13l-60.61-90.74.23 90.74h-11.13V49.2h12.34l59.27 86.97-.1-86.86Z" class="cls-2"/><path d="M461.43 43.95h11.33v104.8h-11.33l-61.75-90.99.24 90.99h-11.33V43.95h13.39l59.57 87.47-.12-87.47Z" class="cls-5"/><path d="M544.39 49.34v10.29l-45.49-.13v36.13l45.26.13v10.29l-45.26-.13v37.31l45.48.13v10.29H490V49.23h54.38v.11Z" class="cls-2"/><path d="M541.06 43.95v10.34h-46.93v36.3h45.36v10.34h-45.37v37.48h46.93v10.34h-56.96V43.95h56.97Z" class="cls-5"/><path d="M633.12 124.03a24.67 24.67 0 0 0 2.83 10.26 20.03 20.03 0 0 0 5.33 6.11 17.92 17.92 0 0 0 6.23 3c1.77.49 3.6.77 5.44.83a20.3 20.3 0 0 0 13.83-5.49 20.93 20.93 0 0 0 4.42-6.11 17.37 17.37 0 0 0 1.7-7.67c.12-3.04-.58-6.07-2.04-8.81-1.34-2.24-3.61-5.83-5.86-7.35-2.36-2.15-5.01-3.28-7.69-4.25-2.91-1.09-4.75-1.83-7.58-2.76-2.17-.78-8.22-2.74-10.86-3.82-2.9-1.28-3.59-1.75-6.73-3.72-2.83-2.12-4.7-3.86-6.44-6.8-1.93-3.11-1.88-5.48-1.88-10.25-.2-4.08.62-8.16 2.38-11.91a28.37 28.37 0 0 1 6.57-8.81 28.08 28.08 0 0 1 9.52-5.39 33.95 33.95 0 0 1 11.11-1.86c3.2.04 6.37.52 9.41 1.45 3.23.95 6.24 2.46 8.84 4.45a25.04 25.04 0 0 1 6.8 8.08 31.15 31.15 0 0 1 3.4 12.12h-11.11a37.64 37.64 0 0 0-1.36-5.39 16.4 16.4 0 0 0-2.95-5.28c-1.37-1.69-4.15-4.61-6.15-5.65-2.51-1.2-5.13-2.07-7.96-1.96-2.45 0-4.87.41-7.14 1.24a15.9 15.9 0 0 0-5.78 3.52c-1.69 1.56-3 3.43-3.85 5.49a16.58 16.58 0 0 0-1.47 7.15c-.1 2.64 1.34 7.08 2.56 9.48a15.9 15.9 0 0 0 4.99 5.18 37.97 37.97 0 0 0 7.82 3.94 250.4 250.4 0 0 0 10.31 3.63c2.27.93 4.87 2.07 7.82 3.32a31.3 31.3 0 0 1 7.93 4.97 29.03 29.03 0 0 1 6.12 7.67 23.84 23.84 0 0 1 2.49 11.6c.02 3.93-.74 7.83-2.27 11.5a28.45 28.45 0 0 1-6.35 9.32 29.4 29.4 0 0 1-9.86 6.32 36.36 36.36 0 0 1-24.48.31 28.75 28.75 0 0 1-9.86-5.8 27.26 27.26 0 0 1-6.8-9.32 32.27 32.27 0 0 1-2.83-12.74h11.45v.21Z" class="cls-2"/><path d="M628.87 120.11a24.69 24.69 0 0 0 2.95 10.44 20.78 20.78 0 0 0 5.55 6.22 19.2 19.2 0 0 0 6.49 3.06c1.84.5 3.75.78 5.67.84a21.4 21.4 0 0 0 14.4-5.59 21.3 21.3 0 0 0 4.6-6.22c1.2-2.46 1.8-5.12 1.77-7.81.13-3.1-.3-7.58-1.83-10.37a18.55 18.55 0 0 0-5.67-5.8 63.27 63.27 0 0 0-8.11-4.06c-2.75-1.28-5.81-2.23-8.76-3.18-3.17-.96-5.63-1.69-9.06-2.88-3.15-1.16-5.26-2.04-7.51-3.48-2.94-2.16-4.59-3.74-6.41-6.74-2.01-3.16-2.95-7.17-2.95-12.03-.2-4.16.22-8.22 2.06-12.04a37 37 0 0 1 6.44-9.16 29.51 29.51 0 0 1 9.92-5.49 36.49 36.49 0 0 1 11.57-1.9c3.33.04 6.64.53 9.8 1.48 3.37.96 6.5 2.5 9.21 4.54a25.6 25.6 0 0 1 7.08 8.23 31.2 31.2 0 0 1 3.54 12.34h-11.57a36.3 36.3 0 0 0-1.42-5.49 16.64 16.64 0 0 0-3.07-5.38 16.7 16.7 0 0 0-5.31-4.22 18.55 18.55 0 0 0-8.5-1.69c-2.55 0-5.07.42-7.44 1.27-2.28.78-4.34 2-6.02 3.59a15.86 15.86 0 0 0-4.01 5.59 16.46 16.46 0 0 0-1.53 7.28c-.1 2.69.5 5.36 1.77 7.81 1.26 2.09 3.42 3.68 5.58 5.07 2.96 1.48 4.31 2.24 7.93 3.31 3.76 1.06 5.09 1.4 9.13 2.55 4.46 1.45 5.17 1.87 8.24 3.13 5.01 2.37 6.2 3.35 9.63 5.99 2.59 2.27 4.78 5.4 6.4 8.3 1.88 3.7 2.73 8.62 2.56 12.68a29.05 29.05 0 0 1-8.97 21.2 30.6 30.6 0 0 1-10.27 6.43 38.78 38.78 0 0 1-25.5.32 30.04 30.04 0 0 1-10.27-5.91 27.73 27.73 0 0 1-7.08-9.49 32.1 32.1 0 0 1-2.95-12.98h11.92v.21Z" class="cls-5"/><path d="M748.92 49.34v10.29l-45.49-.13v36.13l45.26.13v10.29l-45.26-.13v37.31l45.48.13v10.29h-54.38V49.23h54.38v.11Z" class="cls-2"/><path d="M745.59 43.95v10.34h-46.93v36.3h45.36v10.34h-45.37v37.48h46.93v10.34h-56.96V43.95h56.97Z" class="cls-5"/><path d="M816.03 49.34v10.29l-45.49-.13v36.13l45.26.13v10.29l-45.26-.13v37.31l45.48.13v10.29h-54.38V49.23h54.38v.11Z" class="cls-2"/><path d="M812.7 43.95v10.34h-46.93v36.3h45.36v10.34h-45.37v37.48h46.93v10.34h-56.96V43.95h56.97Z" class="cls-5"/><path d="m118.29 113.88-17.98 13.08 6.85-21.16-17.99-13.08h22.27l6.85-21.07 6.86 21.07h22.16l-17.88 13.08 6.84 21.16-17.98-13.08z" class="cls-2"/><path d="m118.29 78.92 5.22 16.05h16.9l-13.63 9.97 5.22 16.13-13.71-9.97-13.71 9.97 5.22-16.13-13.71-9.97h16.98l5.22-16.05m0-14.55-4.28 13.16-4.21 12.94H82.25l11.19 8.14 11.07 8.05-4.21 13.02-4.26 13.16 11.19-8.14 11.06-8.05 11.06 8.05 11.19 8.14-4.26-13.16-4.22-13.03 11.01-8.05 11.12-8.13h-27.41l-4.21-12.94-4.28-13.16Z" class="cls-5"/><path d="m863.09 113.88-17.99 13.08 6.85-21.16-17.98-13.08h22.26l6.86-21.07 6.85 21.07h22.16l-17.88 13.08 6.85 21.16-17.98-13.08z" class="cls-2"/><path d="m863.09 78.92 5.22 16.05h16.9l-13.63 9.97 5.22 16.13-13.71-9.97-13.71 9.97 5.22-16.13-13.71-9.97h16.98l5.22-16.05m0-14.55-4.28 13.16-4.21 12.94h-27.55l11.19 8.14 11.07 8.05-4.21 13.02-4.26 13.16 11.19-8.14 11.06-8.05 11.06 8.05 11.19 8.14-4.26-13.16-4.22-13.03 11.01-8.05 11.12-8.13h-27.41l-4.21-12.94-4.28-13.16Z" class="cls-5"/><path d="M387.86 253.85h1.73a32.84 32.84 0 0 1-2.61 6.34 29.27 29.27 0 0 1-3.94 5.27c-6.67 7.14-15.59 10.71-26.77 10.71a45.91 45.91 0 0 1-19.67-4.26c-6.08-2.84-10.91-6.67-14.49-11.49-3.58-4.81-5.37-10.01-5.37-15.58 0-3.31.71-6.61 2.12-9.88a31.18 31.18 0 0 1 6.19-9.17 40.72 40.72 0 0 1 9.44-7.31c5.42-3.09 11.68-4.63 18.78-4.63 2.37 0 4.61.18 6.73.54 2.12.36 4.12.93 6.01 1.71 1.89.79 3.84 1.82 5.84 3.11 2.23 1.34 3.88 2.01 4.93 2.01 2.33 0 5.26-2.11 8.77-6.34h1.73l1.43 28.8h-1.63c-.56-2.09-1.09-3.79-1.6-5.1s-1.19-2.69-2.05-4.11a42.88 42.88 0 0 0-8.03-10.37 33.5 33.5 0 0 0-10.11-6.6 29.12 29.12 0 0 0-11.24-2.27c-4.6 0-8.35 1.06-11.24 3.19-2.89 2.13-5.04 5.44-6.43 9.94s-2.09 10.22-2.09 17.17c0 4 .25 7.54.74 10.63.49 3.09 1.26 5.69 2.29 7.82s2.34 3.91 3.92 5.34a19.8 19.8 0 0 0 7.07 3.92c2.78.9 5.81 1.35 9.09 1.35 3.06 0 5.99-.34 8.8-1.03a30.9 30.9 0 0 0 14.62-8.1 27.78 27.78 0 0 0 3.99-4.99 39.18 39.18 0 0 0 3.06-6.62ZM434.67 213.86h1.82l27.7 52.37c.89 1.63 1.88 2.97 2.98 4.03s2.34 1.82 3.72 2.29 3.01.71 4.88.71h1.82v1.67h-39.98v-1.67h5.23c2.6 0 4.49-.31 5.69-.92s1.8-1.56 1.8-2.85c0-.8-.24-1.77-.71-2.91a88.67 88.67 0 0 0-3.13-6.21c-.1-.17-.25-.46-.44-.86s-.41-.79-.64-1.16l-1.13-2.19H415.1l-2.22 4.46a10.57 10.57 0 0 0-1.08 4.59c0 1.31.42 2.61 1.26 3.9a8 8 0 0 0 3.28 2.91c.89.46 1.68.76 2.39.92s1.72.26 3.03.32v1.67h-28.05v-1.67c2.04-.2 3.66-.51 4.86-.94s2.54-1.14 4.02-2.14c3.48-2.34 6.88-6.76 10.2-13.24l21.89-43.07Zm-5.23 14.01-13.51 26.7h27.36l-13.85-26.7ZM549.42 215.02h1.73v20.96h-1.73c-2.07-5.05-4.42-8.99-7.05-11.82a27.66 27.66 0 0 0-7.17-5.23 46 46 0 0 0-20.48-4.83c-2.73 0-5.16.34-7.3 1.01a14.52 14.52 0 0 0-5.42 2.98 11.22 11.22 0 0 0-2.51 3.15 7.2 7.2 0 0 0-.94 3.37c0 2.04.89 3.81 2.66 5.3.82.73 2 1.43 3.52 2.1s3.5 1.33 5.92 1.97c2.42.64 5.79 1.43 10.13 2.36 1.18.32 1.99.51 2.42.57l2.42.53 3.84.88c6.51 1.49 11.26 2.8 14.25 3.94a24.45 24.45 0 0 1 7.64 4.51 14.69 14.69 0 0 1 3.82 4.81c.9 1.84 1.36 3.82 1.36 5.95s-.51 4.21-1.53 6.32a16.87 16.87 0 0 1-4.34 5.58 23.43 23.43 0 0 1-9 4.99 41.05 41.05 0 0 1-12.2 1.66c-3.19 0-6.19-.28-9-.85a69.3 69.3 0 0 1-10.28-3.13 66.04 66.04 0 0 0-6.01-1.9c-1.38-.34-2.68-.5-3.89-.5-2.33 0-4.31.55-5.94 1.64a7.77 7.77 0 0 0-3.23 4.66h-1.73v-28.27h1.73c.69 5.02 2.97 9.57 6.85 13.65a39.65 39.65 0 0 0 8.95 6.67 52.28 52.28 0 0 0 11.41 4.79 41.2 41.2 0 0 0 11.34 1.71c3.19 0 6.1-.47 8.75-1.4 2.65-.93 4.71-2.23 6.19-3.89s2.22-3.54 2.22-5.65c0-2.22-1-4.22-3.01-6-.92-.79-2.11-1.52-3.57-2.19s-3.35-1.36-5.67-2.06-5.5-1.53-9.54-2.49l-4.93-1.18c-7.69-1.84-13.01-3.27-15.97-4.29-3.32-1.08-5.92-2.16-7.81-3.24s-3.52-2.45-4.9-4.11a11.44 11.44 0 0 1-3.06-7.7c0-3.38 1.13-6.43 3.4-9.12 2.27-2.7 5.44-4.81 9.51-6.32s8.59-2.28 13.56-2.28c7.49 0 15.26 1.85 23.32 5.56 2.83 1.25 4.75 1.88 5.77 1.88 2.56 0 4.4-1.68 5.52-5.03ZM565.96 273.27h2.22c4.24 0 7.39-.89 9.44-2.68s3.08-4.52 3.08-8.21v-36.39c-.3-1.83-.71-3.28-1.23-4.35s-1.33-1.98-2.42-2.72c-1.97-1.51-4.93-2.27-8.87-2.27h-2.37v-1.59h43.43v1.59h-1.53c-4.24 0-7.39.89-9.44 2.68s-3.08 4.52-3.08 8.21v16.07h37.07v-16.07c0-3.71-1.02-6.46-3.06-8.23-2.04-1.77-5.19-2.66-9.46-2.66h-1.43v-1.59h43.03v1.59h-2.02c-4.21 0-7.34.89-9.42 2.68-2.07 1.79-3.11 4.52-3.11 8.21v34.84c0 3.66 1.05 6.39 3.15 8.19 2.1 1.8 5.23 2.7 9.37 2.7h2.02v1.67H618.3v-1.67h1.43c4.24 0 7.39-.89 9.44-2.68s3.08-4.52 3.08-8.21v-17.02h-37.07v17.02c0 3.66 1.05 6.39 3.15 8.19 2.1 1.8 5.23 2.7 9.37 2.7h1.53v1.67h-43.28v-1.67Z" class="cls-3"/><path d="M513.29 281.39h.69c1.53 0 2.66-1.18 3.4-3.53.74-2.35 1.11-5.95 1.11-10.81.09-2.03.17-3.83.22-5.39.05-1.56.09-3.35.1-5.36a1252.3 1252.3 0 0 0-.36-36.65c-.07-2.63-.2-4.68-.4-6.15s-.49-2.69-.88-3.67c-.71-1.99-1.78-2.99-3.2-2.99h-.69v-2.09h15.63v2.09h-.69c-1.53 0-2.66 1.17-3.39 3.5s-1.1 5.94-1.1 10.83v45.87c0 4.85.37 8.45 1.11 10.81.74 2.35 1.87 3.53 3.38 3.53h.69v2.2h-15.63v-2.2Z" class="cls-3"/></g></svg>