<svg id="b" xmlns="http://www.w3.org/2000/svg" viewBox="0 0 205.2 90.92"><defs><clipPath id="d"><path fill="none" d="M2.99 2.83h199.23v66.33H2.99z"/></clipPath><style>.e{fill:#fff}.i{fill:#f7941d}.j{fill:#fbb161}.k{fill:#231f20}.l{fill:#014386}</style></defs><g id="c"><g clip-path="url(#d)"><path class="l" d="M102.01 4.73h98.08v62.39h-98.08z"/></g><path class="k" d="M205.2 72H0V0h205.2v72ZM5.97 66.33h193.26V5.67H5.97v60.66Z"/><path class="l" d="M6.56 80.75H4.35v-1.16h6.64v1.16H8.77v10.08H6.56V80.75ZM26.63 80.75H22.2v3.87h3.33v1.17H22.2v3.87h4.43v1.17H22.2c-1.22 0-2.21-.52-2.21-1.17v-8.91c0-.65.99-1.16 2.21-1.16h4.43v1.16ZM38.14 85.2l-2.48-5.61h2.25l1.13 2.88c.1.25.15.48.21.74h.06c.06-.26.12-.5.21-.74l1.14-2.88h2.24l-2.48 5.62 2.48 5.62h-2.24l-1.14-2.88a7.4 7.4 0 0 1-.2-.74h-.07a6.1 6.1 0 0 1-.2.74l-1.14 2.88h-2.25l2.48-5.62ZM52.47 81.24c0-.96 1.5-1.75 3.32-1.75 1.83 0 3.32.8 3.32 1.75v9.59H56.9v-5.04h-2.21v5.04h-2.22v-9.6Zm2.22 3.38h2.21v-3.87h-2.21v3.87ZM69.25 87.9h2.22v1.76h2.2V85.8h-2.2c-1.23 0-2.22-.52-2.22-1.17v-3.38c0-.96 1.5-1.75 3.32-1.75 1.83 0 3.32.8 3.32 1.75v1.27h-2.21v-1.76h-2.21v3.87h2.2c1.24 0 2.22.52 2.22 1.17v3.39c0 .96-1.49 1.74-3.32 1.74-1.82 0-3.32-.78-3.32-1.74V87.9ZM98.39 79.59h2.21v10.07h2.21v-2.33h2.22v3.5h-6.64V79.59ZM114.62 81.24c0-.96 1.5-1.75 3.32-1.75 1.82 0 3.32.8 3.32 1.75v7.94c0 .96-1.5 1.74-3.32 1.74-1.82 0-3.32-.78-3.32-1.74v-7.94Zm4.43-.5h-2.22v8.92h2.22v-8.91ZM132.78 80.75h-2.22v-1.16h6.64v1.16H135v10.08h-2.21V80.75ZM147.58 80.75h-2.2v-1.16H152v1.16h-2.21v10.08h-2.22V80.75ZM167.96 80.75h-4.43v3.87h3.32v1.17h-3.32v3.87h4.43v1.17h-4.43c-1.23 0-2.21-.52-2.21-1.17v-8.91c0-.65.98-1.16 2.21-1.16h4.43v1.16ZM177.55 79.59h4.43c1.23 0 2.21.51 2.21 1.16v3.56c0 .54-.45.74-.98.9.53.1.98.35.98 1.04v3.74c0 .32.24.55.54.84h-2.27c-.24-.24-.48-.56-.48-.84v-4.2h-2.21v5.04h-2.22V79.59Zm2.22 5.03h2.21v-3.87h-2.21v3.87ZM196.55 85.8a4.14 4.14 0 0 1-1.62-.64c-.39-.3-.6-.64-.6-1v-4.57h2.22v5.05h2.22v-5.05h2.2v4.56c0 .37-.2.71-.6 1.01-.38.28-.92.5-1.6.65v5.02h-2.22V85.8Z"/><g><path fill="#fbaa26" d="M5.7 5.65h97.13v60.7H5.7z"/><path class="i" d="M24.45 22.75c0-.03-.23.04-.24 0-.94-5.72-1.84-11.4-2.71-17.1h-6.35c.07.48.16.94.25 1.4.15.65.53 1.27.74 2.17 1.7 7.36 3.67 16.44 5.27 24.01 2.54 10.77 5.05 21.83 7.54 33.1h2.93c-1.73-9.66-3.43-19.13-5.1-28.3-.92-5.03-1.64-10.28-2.33-15.28ZM33.49 15.98c-.23-3.18-.78-6.92-1.1-10.26-.01-.02 0-.05 0-.07h-5.77c.44 3.08.8 5.9 1.5 8.37 1.13 7.86 2.7 17.33 4.4 26.42 1.38 8.63 2.74 17.25 4.1 25.9h2.68c-1.8-15.05-3.5-29.68-5.07-43.8-.23-2.06-.6-4.46-.74-6.56ZM10.55 50.71c-.45.42-.44-1.35-.62-1.96-.48-1.66-1.23-3.15-1.7-4.81L5.7 35.2v14.5c2.04 5.53 4.06 11.05 6.07 16.65h3.29a288.45 288.45 0 0 1-3.29-11.49 11.52 11.52 0 0 1-1.22-4.15ZM53.28 25.58c.22-5.36 0-12.06-.13-15.72l.06-4.21h-5.47l1.02 20.58c.21 1.31.3 2.37.37 3.5.72 11.83 1.33 24 1.9 36.6h2.45a8209.8 8209.8 0 0 1-.32-38.57c0-.57.1-1.59.12-2.18ZM12.11 16.65c-.58-4.33-1.7-7.65-2.34-11H5.7v9.31c.21.92.46 1.83.8 3 .43 1.53 1.16 2.93 1.59 4.37.36 1.25.57 3.64.98 3.28-.26.92.1.39.12.43.2.64.16 1.47.37 2.18.2.7.66 1.28.86 1.97.96 3.37 1.73 6.87 2.68 10.25 1.89 6.65 4.07 13.04 6 19.87a695.4 695.4 0 0 1 1.67 6.03h3.12c-.47-2.02-.92-4.03-1.37-6.03-3.98-15.07-6.32-27.83-10.4-43.66ZM43.5 13.79c-.17-2.56-.2-5.02-.37-6.98-.04-.53-.18-.94-.17-1.16h-5.7c.85 7.09 1.66 13.57 2.46 20.37-.31 1.52.42 2.02.13 3.5 1.09 5.93 1.37 13.46 2.08 19.43.68 5.66 1.32 11.47 1.95 17.38h2.49c-.37-5.84-.71-11.57-1.02-17.17C44.7 37.03 44.3 25.6 43.5 13.8ZM102.83 24.21V5.65h-1.32c-2.3 10.3-4.8 21.03-7.19 31.7-2.02 8.87-4.42 18.77-6.76 28.96h3.17a5957.5 5957.5 0 0 1 7.5-26.13c1.67-5.76 3.17-11 4.6-15.97ZM102.83 44.58l-2.76 9.58c-.22.2-.38.49-.5.87L96.2 66.3h3.5l3.13-8.77V44.58ZM63.47 5.65h-5.51c.02 3.11.07 6.47.2 10.32-.1.05-.24 0-.24.22-.24 4.48 0 9.7 0 13.97.03 13.28.22 20.34.02 34.5l-.02 1.66h2.64l1.88-38.35c.37-7.57.75-15.37 1.03-22.32ZM89.72 5.65l-.06.26c-.66 5.9-1.64 9.37-2.2 14.63-.5 1.48-.58 2.59-.72 4.36-.1.06-.24.01-.25.22-1.16 8.69-2.96 16.98-4.26 26.43l-2.6 14.76h2.82c4.63-21.17 9.2-41.56 13.6-60.66h-6.33ZM78.82 5.65c-.6 5.19-1.23 10.62-1.73 17.07a2938.74 2938.74 0 0 1-5 43.6h2.68C78.1 45.4 81.41 25.3 84.72 5.64h-5.9ZM74 5.65H68.3c-.5 10.3-1.24 21.12-1.84 32.37-.48 9.22-1.03 18.62-1.62 28.3h2.66c1.32-13.2 2.63-26.17 3.96-39.22.9-7.06 1.72-14.2 2.53-21.45Z"/></g><g><path class="j" d="M127.1 33.87v1.27a3.98 3.98 0 0 1 3.01-1.47 3.33 3.33 0 0 1 2.97 1.81c.28.56.42 1.46.42 2.67v5.73h-1.98v-5.7c0-1.03-.16-1.76-.47-2.2-.31-.43-.83-.65-1.57-.65-.93 0-1.73.47-2.38 1.4v7.15h-2.02v-10h2.02ZM141.05 33.84c1.53 0 2.8.5 3.8 1.47 1.01.99 1.52 2.22 1.52 3.7 0 1.45-.51 2.65-1.54 3.6a5.45 5.45 0 0 1-3.86 1.44c-1.5 0-2.76-.48-3.77-1.45a4.83 4.83 0 0 1-1.51-3.63c0-1.46.5-2.69 1.53-3.66a5.33 5.33 0 0 1 3.83-1.47Zm-.1 1.79c-.96 0-1.73.3-2.34.93-.61.63-.92 1.42-.92 2.39 0 .96.31 1.74.94 2.34s1.43.91 2.4.91a3.17 3.17 0 0 0 3.32-3.28c0-.95-.32-1.74-.97-2.36a3.36 3.36 0 0 0-2.43-.93ZM147.16 35.45l3.72-3.66v2.07h3.17v1.78h-3.17v4.9c0 1.15.48 1.72 1.43 1.72.71 0 1.46-.24 2.25-.7v1.84c-.75.43-1.58.64-2.49.65a3.3 3.3 0 0 1-2.26-.8 2.26 2.26 0 0 1-.78-1.32 8.9 8.9 0 0 1-.13-1.85v-4.44h-1.74v-.2ZM155.94 28.66h1.98v6.51a3.83 3.83 0 0 1 3.08-1.51c.67 0 1.27.16 1.8.5.53.33.93.79 1.18 1.38s.4 1.46.4 2.62v5.7h-1.99v-6.19c0-.73-.18-1.32-.54-1.77a1.74 1.74 0 0 0-1.42-.67c-.44 0-.85.12-1.23.34-.39.23-.81.6-1.27 1.13v7.17h-1.98l-.01-15.2ZM168.15 29.64a1.17 1.17 0 0 1 1.19 1.16c0 .32-.11.6-.35.83a1.14 1.14 0 0 1-1.64 0 1.14 1.14 0 0 1 0-1.64c.23-.23.5-.35.8-.35Zm-.97 4.21h1.98v10.01h-1.98V33.85ZM174 33.85v1.27a3.98 3.98 0 0 1 3.02-1.47 3.32 3.32 0 0 1 2.96 1.8c.28.57.42 1.46.42 2.68v5.72h-1.97v-5.7c0-1.02-.16-1.75-.48-2.2-.3-.43-.83-.65-1.56-.65-.94 0-1.73.47-2.39 1.4v7.16h-2.02V33.85H174ZM182.66 37.3c0-1.06.39-1.9 1.17-2.53a5 5 0 0 1 3.19-.93h4.12v1.54h-2.02c.4.4.67.76.82 1.1.15.32.23.7.23 1.11a3 3 0 0 1-.45 1.54c-.3.5-.68.9-1.15 1.16-.46.27-1.23.48-2.3.64-.75.11-1.12.37-1.12.78 0 .23.14.42.42.57.28.15.79.3 1.52.46 1.23.27 2.02.48 2.37.63.35.15.67.37.95.65.48.48.72 1.09.72 1.81 0 .95-.42 1.71-1.27 2.28-.84.57-1.97.85-3.39.85a6.06 6.06 0 0 1-3.42-.86 2.63 2.63 0 0 1-1.28-2.29c0-1.35.84-2.23 2.51-2.62-.67-.43-1-.85-1-1.27 0-.32.14-.61.43-.88.29-.26.67-.45 1.16-.57-1.48-.65-2.21-1.71-2.21-3.17Zm3.26 7.02a2.9 2.9 0 0 0-1.64.43c-.43.28-.64.64-.64 1.08 0 1.03.93 1.55 2.79 1.55a4.4 4.4 0 0 0 2.04-.39c.48-.26.72-.62.72-1.1 0-.46-.3-.83-.91-1.13-.61-.3-1.4-.44-2.36-.44Zm.46-8.76c-.54 0-1 .18-1.37.54-.38.37-.57.8-.57 1.31 0 .52.19.94.56 1.28a2 2 0 0 0 1.4.5c.56 0 1.03-.17 1.4-.51.37-.35.56-.78.56-1.3s-.19-.95-.57-1.3a2 2 0 0 0-1.41-.52Z"/></g><path class="k" d="m114.98 44.54.11-.25-.14-.4.15-.08.19.22.68-.62.05.09-.3.96.02.11.68-.23.11.17-.73.48-.06.17.12.01 1.15-.72.06-.05 1.61-.57-.26-.33.4-.54.31-.42.08-.71-.25-.31v-.34l.08-.02-.02-.06.05-.11-.03-.17-.03-.17v-.12l.09-.11.03-.03v-.08l.02-.09.09-.14.05-.14.17-.31.06-.11v-.06l.06-.11-.06-.09.06-.08.03-.08v-.06l-.01-.06-.05-.02-.03-.06.05-.11.06-.04.03-.08-.14-.59-.09-.08-.03-.09-.02-.12-.12-.08-.05-.05-.06-.03-.02-.03.05-.08.06-.12.02-.05-.14-.14-.05-.17-.11-.03.03-.14.05-.06-.05-.03-.09-.03-.09-.02-.05-.14-.09-.09.03-.05.06-.06v-.03l-.06-.06v-.08l.03-.06.08-.02v-.09l-.05-.09-.06-.08v-.14l-.03-.06-.09-.08.01-.11-.11-.12-.17-.19-.14-.23-.18-.08.03-.76v-4.32l-.03-1.08-.05-.05-.04-.03-.1.03h-.12l-.11-.08-.03-.03-.09.03v.05l-.05.06h-.06l-.03-.03-.08.03-.03.05-.17-.02-.11.02-.03-.05-.05-.03-.09-.05-.03-.06-.06-.03-.02-.14-.03-.03-.17.03-.09-.11-.53-.23-.48-.17-.82-.73-.25-.03-.28.28-.23.12-.39-.09-.12-.19-.7.17-.12.16-.14-.02-.9.22-.08.23-.43.08-.08.17-.14-.08-.2-.2-.53-.2.11-.17-.03-.11-.23-.08-.22.36-.2-.14-.19.06-.18-.48-.11.03-.08.28-.2.22-.23-.08v.48l-.2.05-.05-.42.03-.2-.17-.16-.14.22-.17-.02-.17.25-.2-.12-.11-.33-.09.02-.08-.02-.25-.23-.23-.05-.51.59-.36-.28.08-.29-.17-.11-.14.06-.2-.34.08-.14-.17-.15-.25.15-.19-.03-.14-.11-.18-.03-.14.28-.28.06-.14-.28-.17-.12-.25.08-.17.09-.2-.11h-.25l-.2-.2-.76-.05v-.48l-.37-.28-.06-.12-.19.03-.06.26-.19-.15h-.29l-.12.15h-.3l-.39-.51-.31-.23h-.23l-.06-.73v-3.42l-.03-1.03v-2.41l-1.69-.02-1.24.03h-2.15l-1.23-.03-.46.03-2.62.06h-.17l.03 1.71v1.25l-.03.48.06 1.69-.03.93v.79l-.03 1.63v3.73l-.02 1.72-.03 1.69.03 1.75-.06.29-.84.02h-4.91l-3.41.01-1.19.05-.79-.05.29.85 1.01 1.26.42.28.37-.05.51.84.14.14.22.11.29.26.65.82 1.27.79.05.14.26.25.14.71.45.62.11 1.21.4.99 1.24 1.1 1.13.42v.2l.93.39.08.23.57.33.5.01.17-.48.2-.26.42-.22-.05-.2.06-.31.14-.06.5-1.5.91-.14.16-.36.88.36.93.03.45.06.2-.14.5.17.12.42.96.76.08.31.68.45.37.65.22.79h.09l-.03.11.31.79.12.06.02.14.26.36.19.71.34.54.37.28.85 1.44.33.39.57.28v1.1l.28.26v.59l-.06.14.26.53.34.32.37 1.01.19.74 1.1.28.26.33.22-.05 1.16.7.48.12.64-.12.26.14h.45l.09.26.31.14 1.13-.09.05-.37-.03-.08-.08.23-.08-.09-.12.17-.03-.31.15-.11-.09-.06-.14.06-.09-.43-.14-.05-.14-.65-.16-.85-.18-.81-.2-.17.04-.57.19-.2-.06-.19.2-.23-.03-.39-.31.08-.39-.03-.23-.17.17-.08-.34-.6.09-.02.39.62h.12l-.03-.14h.16l.09-.31h.11l-.03.31-.14.11.14.09.29-.34.08-.26.09-.11.11-.37.14-.39-.06-.2-.17.23-.08-.03.08-.2-.14-.2.06-.31h.45l.34-.19-.37-.71.57-.51.14.17.19-.05-.05-.34.22-.06-.08.45.39-.25.06-.37v-.71l.22.29.03.22.12.08.76-.47-.09-.2-.28.08-.09-.08.21-.14-.17-.19-.26.05.06-.2-.09-.39.62.25.03.17-.08.17.28-.17-.03-.45.25.25.37-.25-.17.5.09.09 1.32-.79.17.08-1.97 1.36.08.06 2.54-1.7 1.1-.79.14-.23-.22-.14.22-.39.25.03.48-.43.06-.39-.17-.17.08-.2-.28-.14z"/><g><path class="e" d="M99.7 32.12c1.38 0 2.52.46 3.43 1.4a4.83 4.83 0 0 1 1.38 3.52 4.8 4.8 0 0 1-1.37 3.5 4.6 4.6 0 0 1-3.43 1.4 4.8 4.8 0 0 1-4.82-4.9 4.8 4.8 0 0 1 4.82-4.92Zm.01 8.84c1.06 0 1.95-.37 2.66-1.12a3.9 3.9 0 0 0 1.07-2.8c0-1.12-.36-2.06-1.08-2.8a3.52 3.52 0 0 0-2.66-1.14c-1.07 0-1.96.38-2.67 1.13a3.9 3.9 0 0 0-1.08 2.81c0 1.13.36 2.06 1.08 2.8.72.75 1.6 1.12 2.68 1.12ZM113.26 33.23l-.58.95c-.79-.72-1.42-1.09-1.9-1.08-.95 0-1.96.9-3.03 2.71v5.95h-1l-.01-9.46h1v2.49h.05c1.13-1.79 2.23-2.68 3.3-2.68.62 0 1.35.37 2.17 1.12Z"/></g><g><path class="l" d="M20.46 48.78h-9.62l7.53-21.7h13.7l7.54 21.69h-9.6l-1.25-3.67H21.7l-1.25 3.68Zm3-8.8H27l-1.78-5.38-1.78 5.39ZM41.74 48.77v-21.7h9.6l.01 16.25h8.42v5.44H41.75ZM62.08 48.76l-.01-21.7h9.61V43.3l8.43-.01v5.45H62.08Z"/></g><path class="e" d="M9.42 2.55 8.34 4.28c-.41.56-.01.94-.01.94l1.48 2.3-.02.12-.89-.23-1.78-.32-.53-.16c-.6 1.11-1.05 1.51-1.05 1.51l-.57 1-.1-.06a20 20 0 0 1-.39-2.85l-.04-.12-.4-.13-2.11-1.53c-.08-.12.08-.19.08-.19.85-.4 2.37-.97 2.37-.97C4.3 2.16 4.36.93 4.36.93l.39.28 1.88 1.9c1.86-.2 2.8-.56 2.8-.56ZM203 2.94l-1.07 1.72c-.42.56-.02.94-.02.94l1.48 2.3-.02.13-.89-.24-1.78-.32-.53-.16a6.11 6.11 0 0 1-1.05 1.51l-.57 1-.1-.06a19.67 19.67 0 0 1-.39-2.85l-.04-.12-.4-.13-2.11-1.53c-.08-.12.08-.18.08-.18.85-.4 2.37-.98 2.37-.98-.08-1.43-.02-2.66-.02-2.66l.39.28 1.88 1.9c1.87-.2 2.8-.55 2.8-.55ZM203 63.43l-1.07 1.72c-.42.56-.02.94-.02.94l1.48 2.3-.02.13-.89-.25-1.78-.31-.53-.16a6.1 6.1 0 0 1-1.05 1.51l-.57 1-.1-.06a19.66 19.66 0 0 1-.39-2.85l-.04-.12-.4-.14-2.11-1.53c-.08-.11.08-.17.08-.17.85-.4 2.37-.98 2.37-.98-.08-1.43-.02-2.66-.02-2.66l.39.28 1.88 1.9c1.87-.2 2.8-.55 2.8-.55ZM8.38 63.42 7.3 65.15c-.42.56-.01.94-.01.94l1.48 2.3-.02.12-.89-.24-1.78-.31-.53-.16a6.1 6.1 0 0 1-1.05 1.5l-.57 1-.1-.06c-.33-1.55-.39-2.84-.39-2.84l-.04-.12-.4-.14-2.12-1.53c-.08-.11.09-.18.09-.18.85-.4 2.37-.97 2.37-.97-.08-1.44-.02-2.66-.02-2.66l.39.27 1.88 1.91c1.86-.2 2.8-.56 2.8-.56Z"/></g></svg>