<svg id="b" xmlns="http://www.w3.org/2000/svg" viewBox="0 0 322.68 140.08"><defs><style>.d{fill:#7dc242}.e,.f,.g{fill:#fff}.f{stroke-width:4.8451px}.f,.g{stroke:#fff;stroke-linecap:round;stroke-linejoin:round}.h{fill:#393a96}.g{stroke-width:5.3181px}.i{fill:#bddc9b}</style></defs><g id="c"><path class="h" d="M313.4 107.3s.13-7.7 1.49-9.24l-.7-4.8s-1.73-3.55.7-11.28c0 0-1.67-4.74-2.26-9.88l.8-4.5-.39-4.34.41-14.8s-1.77-2.81-1.86-8.39l1.57-5.26-.72-5.26 1.77-7.27-1.86-9.05 2.29-5.36-12.4 1.35-8.62-1.62-4.37 2.92-7.03-1.06-.95 2.03-9-2.02s-2.89 2.05-8.9 2.52l-10.38-2.83-14.9 2.48-7.62-2.24-4.53 1.59-19.32-1.62-2.91 1.3-10.83-2.9s-7.72 2.67-15.22 2.45l-9.54-1.31-16.8 1.2-9.63-2.56-13.1 1.8-9.11-1.67-2.96 1.06-1.93.19-1.3-.24-3.93-.96C99.62 10.18 98.27 9.9 98.27 9.9l-7.28-.08-1.7-1.58c-3.06.2-4.85.93-4.85.93h-9.62l-4.94-.46-.99-1.29-8.22 1.66-2.51-.1-3.91 1.48-5.21-1.75c-3.69 1.56-7.2 2.3-7.2 2.3l-2.6-.1-6.91-2.94-5.12 1.57-4.04-.83-1.63.92c-5.2-1.75-10.77-2.2-10.77-2.2l.9 2.39 1.61 15.84-2.6 7.74L14 40.9l-2.6 18.7 1.88 4.13c-1.16 5.25-.99 7.65-.99 7.65l-2.24 6.81 2.07 2.77-1.35 5.43 2.33 8.93c-.45 5.17-1.43 7.84-1.43 7.84l1.52 2.03-1.89 12.25 3.42-1.93 5.93 1.66 4.76-1.57 12.4-.92c5.2-.28 6.74 1.75 6.74 1.75l13.24.47 3.47-.01 3.86-.65c4.4.56 8.44 2.03 8.44 2.03 6.65-2.03 12.49-2.12 12.49-2.12l.9 1.02c11.95-1.39 19.94-.83 19.94-.83 5.14.23 6.64.92 6.98 1.14l.05.13s2.54-1.14 7.02-1.91l8.19 1.99 7.15-.93c.72-1.52 5.73-.3 5.73-.3l11.71 1.77 11.1-1.4 4.05 1.93 8.41-1.68 3.7 1.21s5.85-3.52 15.71.77l4.07-1.14 12.5.06 6.18-.72 3.37 1.62 14.21-3.69 19.92 3.46 3.82-2.52 7.4.15 15.26 1.3 8.1-1.02 4.66 2.04 1.57-.68.8-.6 7.02.35 9.45.6s-1.37-3.83-1.63-10.97Z"/><path class="e" d="M304.25 69.44a12.16 12.16 0 0 0 3.23 2.31 18.54 18.54 0 0 0-2.76 2.14c-.26-2.77-.47-4.45-.47-4.45M117.91 21.29l-.11-1.24.27-2.33a99.2 99.2 0 0 0 3.39 2.53c-2.3.54-3.55 1.04-3.55 1.04Z"/><path class="h" d="m.44 98.73 1.22-2c.48-.65.02-1.1.02-1.1L0 92.97l.03-.14 1 .29 2.03.36.6.18c.7-1.28 1.2-1.74 1.2-1.74l.64-1.16.12.08c.37 1.79.44 3.29.44 3.29l.05.14.45.16 2.4 1.77c.1.14-.1.21-.1.21-.96.46-2.43 1-2.43 1 .1 1.64-.23 3.21-.23 3.21l-.44-.32-2.14-2.2c-2.12.22-3.18.64-3.18.64ZM95.92 7.67l.1-1.01-.15-3.37-.04-.79.06-.02c1.35 1.42 3.46 2.34 3.46 2.34l.55.16-.02.08-.86.4c-.7.77-1.7 1.3-1.7 1.3-.8.32-1.4.91-1.4.91Z"/><path class="d" d="m220.97 28.8.1-1.02-.15-3.37-.05-.78.07-.03a12.38 12.38 0 0 0 3.46 2.34l.55.16-.02.08-.86.4c-.7.77-1.7 1.3-1.7 1.3-.8.32-1.4.91-1.4.91Z"/><path class="e" d="M15.2 109.48c-.17.41-.2.79-.2.79-.03 1.27.02 2.57.02 2.57l.05.1c.56.08 1.08-.03 1.08-.03l.49-.06c2.3.1 3.19-.2 3.19-.2l-.04.18-.95.45c-1.33.14-1.94.02-1.94.02l-2.33.5-.19-.14.2-.73-.03-1.11c.12-1.67.4-1.86.4-1.86.12-.28.02-.51.02-.51l.23.03ZM196.03 21.23l1.67-1.27.73-.54.15-.22.16.12c.45 1.8 1.62 3.47 1.62 3.47l-.01.12-.9-.32-1.57-.63a8.18 8.18 0 0 0-1.85-.73ZM210.9 99.8l-.99 2.37-.44 1.02-.03.3-.25-.02a14.85 14.85 0 0 0-3.83-2.67l-.05-.13 1.13-.22 2.06-.3c1.55-.08 2.4-.35 2.4-.35ZM84.02 18.49l.45-.37 2.47-1.86.38-.27.13.04.23 1.02c.23 1.97.6 2.99.6 2.99l-.6-.28c-2.53-1.25-2.53-1.11-2.8-1.18-.66-.13-.86-.09-.86-.09Z"/><path class="d" d="m22.85 24.2.71-.55 2.07-2.11.47-.5.05.03c-.1 1.71.58 3.6.58 3.6l.22.46-.07.02-.76-.3c-.91 0-1.85-.31-1.85-.31a4.12 4.12 0 0 0-1.42-.35Z"/><path class="h" d="m4.6 20.4.88.5 3.13 1.26.73.28v.06c-1.85.65-3.57 2.2-3.57 2.2l-.36.42-.07-.04v-.95c-.42-.96-.5-2.09-.5-2.09a4.76 4.76 0 0 0-.25-1.65Z"/><path class="e" d="m268.28 40.07 1.96.28 1.15.23 1.4.22-3.03 2.99a45.16 45.16 0 0 0-1.48-3.72ZM17.17 76.13l-.73-1.84-.37-1.1-.5-1.34 4.1 1.14c-1.34 1.53-2.5 3.14-2.5 3.14Z"/><path class="d" d="M85.73 43.85c-.92-1.46-.76-2.38-1-2.45-1.5-.5-3.66-.54-3.66-.54 1.66-1.07 3.29-1.8 3.29-1.8-.31-.66-.71-2.16-.71-2.16l2.21 1.55c1.65-.69 2.99-1.09 2.99-1.09l-1.08 2.3 1.2 1.91c-.74.04-2.38-.04-2.38-.04-.44 1.07-.86 2.32-.86 2.32Z"/><path class="e" d="M67.7 102.22a11.75 11.75 0 0 0-3.26-1.96c1-.64 2.47-2.26 2.47-2.26.47 2.63.8 4.22.8 4.22M108.9 101.46l.88.51 3.14 1.26.73.27v.07a12.5 12.5 0 0 0-3.57 2.2l-.36.42-.07-.05v-.94a7.38 7.38 0 0 1-.5-2.1c.05-.86-.25-1.64-.25-1.64Z"/><path class="d" d="m50.57 110.98.92-1.5c.36-.49.01-.82.01-.82l-1.26-2 .02-.11.76.2 1.52.29.45.13c.52-.97.9-1.3.9-1.3l.48-.88.09.06c.27 1.35.32 2.47.32 2.47l.04.1.35.13 1.8 1.33c.06.1-.08.15-.08.15-.72.35-1.83.74-1.83.74.07 1.24-.17 2.43-.17 2.43l-.33-.25-1.6-1.66c-1.6.17-2.39.49-2.39.49ZM174.25 107.73l.92-1.5c.36-.49.01-.82.01-.82l-1.26-2 .02-.1.76.2 1.52.28.45.14c.52-.97.9-1.31.9-1.31l.49-.87.08.06c.28 1.35.33 2.46.33 2.46l.03.1.35.13 1.8 1.33c.07.1-.07.16-.07.16-.73.34-1.84.74-1.84.74.07 1.24-.17 2.42-.17 2.42l-.33-.25-1.6-1.66c-1.6.18-2.39.5-2.39.5Z"/><path class="e" d="m15.72 17.27-.18-.04-.42-.98c-.1-1.37.04-1.98.04-1.98l-.42-2.39.14-.19.75.24h1.13c1.69.19 1.87.47 1.87.47.29.14.52.04.52.04l2.25.47c.99.37 2.09-.02 2.09-.02l1.55.25 2.81-.04 1.46-.42 2.06-.38.92-.36.6.22.4.19.52.14.8.23 1.1.4-.4.02-1.34-.23-.63-.02-.28-.03-.94-.04c-.73.07-1.43.44-1.43.44l-1.57.2c-1.31.3-2.23.25-2.23.25l-1.36-.02-2.72-.52c-2.06.11-3.66-.07-3.66-.07-.42-.19-.8-.24-.8-.24-1.29-.07-2.65-.49-2.65-.49l-.12.05c-.1.56 0 1.1 0 1.1l.05.5c-.19 2.34.1 3.25.1 3.25ZM29.58 42.35c.39-3.15 0-4.68 0-4.68 1.31.64 3.95 1.17 3.95 1.17-2.48 2.16-3.95 3.51-3.95 3.51"/><path class="d" d="m17.86 54.3.91-1.5c.36-.49.02-.82.02-.82l-1.26-2 .01-.1.77.2 1.52.28.44.13c.52-.96.9-1.3.9-1.3l.49-.87.08.05c.28 1.35.33 2.47.33 2.47l.03.1.35.13 1.8 1.33c.06.1-.07.15-.07.15-.73.35-1.83.75-1.83.75.07 1.24-.18 2.41-.18 2.41l-.32-.24-1.61-1.66c-1.6.18-2.38.49-2.38.49Z"/><path class="h" d="M322.68 59.85c-2.07-.4-3.34-.63-3.58-.45-1.54 1.16-2.59 3.04-2.59 3.04.08-2.38.48-4.5.48-4.5-.87-.15-2.63-.78-2.63-.78l3.06-1.14c.45-2.1.97-3.7.97-3.7l1.54 2.63 2.72.12c-.47.77-1.68 2.35-1.68 2.35.77 1.17 1.7 2.43 1.7 2.43Z"/><path class="e" d="M310.82 58.09c.1-5.54-.16-8.39-.16-8.39l-.24-1.94-.37-4.47.6 2.49c.05 1.94.47 2.72.47 2.72l.72 3.51c-.5 2.86-1.02 6.08-1.02 6.08ZM296.72 13.58l5.84-.72 3.75-.7c1.94-.05 3.16-.3 3.16-.3l-.35.91-.23 1.16-.3 1.55c-.02.12-.04 1.74-.04 1.74l.01.63.03.86.35 1.46-.03.16-1.04-2.83.06-1.81.06-.57.11-.77-.32-1.4-8.73.69-2.33-.06Z"/><path class="h" d="m226.52 16.38.82-3.02c.38-1-.37-1.4-.37-1.4l-3.15-2.8-.02-.19 1.4-.02 2.74-.28.83.01c.42-1.9.9-2.68.9-2.68l.4-1.72.17.05a31.42 31.42 0 0 1 1.78 4.06l.1.16.66.04 3.73 1.38c.17.15-.04.3-.04.3-1.07.96-2.77 2.18-2.77 2.18.73 2.09.9 4.21.9 4.21l-.68-.24-3.57-2.05c-2.63 1.09-3.83 2.01-3.83 2.01Z"/><path class="i" d="m230.48 9.4-4.6 1.59 1.09.97s.75.39.37 1.4l-.82 3.02s1.2-.92 3.83-2l3.57 2.04.68.24s-.17-2.12-.9-4.21c0 0 1.02-.73 1.97-1.5l-5.19-1.55Z"/><path class="e" d="M155.44 12.43c.98 0 5.66-.62 5.66-.62l3.33-.02-1.99.5c-1.2.19-7 .14-7 .14ZM66.6 113.72l.08-.11.95-.07 2.38-.14 4.29.32 2.59-.4 1.73.78.88-.2 1 .23 1.56.07-.42.17-.74.12-1.43.01c-1.22.16-1.76.41-1.76.41-4.8-1.01-8.94-1.05-8.94-1.05l-1.37-.06-.8-.08ZM187.67 12.57c-.65-.05-2.34 0-2.34 0a26.1 26.1 0 0 0 3.21-.73l4.77-.48 5.42 1.53-7.72-.78c-.6.03-2.72.51-3.34.46ZM253.9 12.45c-.97 0-5.66.62-5.66.62l-3.32.02 1.98-.5c1.2-.19 7-.14 7-.14ZM201.64 114.27c.65.05 2.34 0 2.34 0-.96.08-3.2.74-3.2.74l-4.78.47-5.41-1.52 7.7.78c.61-.03 2.73-.52 3.35-.47ZM312.6 116.11l.34.46c-1.05-.36-2.51-.5-2.51-.5-1.88-.28-7.01-.61-7.01-.61l4.17-.27 1.5-.11 1.29-.05.6-.13.03.06.01-1.44.06-1.64.53-5.92.3 7.48c.26 1.42.47 2.06.47 2.06l.23.61Z"/><path class="h" d="M102.13 115.43s1.33-1.48 1.86-2.21l-2.7-.33-1.33-2.75s-.65 1.55-1.26 3.62l-3.14.89s1.7.76 2.56.99c0 0-.56 2.07-.83 4.45 0 0 1.67-2 3.3-3.03.25-.15 1 .69 3.05.94 0 0-.84-1.35-1.5-2.57Z"/><path class="i" d="m97.95 116.32.17-.7c-.86-.22-2.56-.98-2.56-.98l3.14-.9a41.4 41.4 0 0 1 1.26-3.62l1.33 2.76 2.7.34a43.2 43.2 0 0 1-1.86 2.2l.45.8-4.63.1Z"/><path class="h" d="M15.25 124.41h-3.4v-1.8h10.22v1.8h-3.41v15.51h-3.41v-15.5ZM46.15 124.41h-6.81v5.97h5.11v1.8h-5.11v5.96h6.81v1.78h-6.81c-1.89 0-3.4-.8-3.4-1.78V124.4c0-1 1.51-1.8 3.4-1.8h6.81v1.8ZM63.88 131.28l-3.82-8.66h3.46l1.74 4.44c.14.38.24.75.32 1.14h.1c.1-.4.18-.76.32-1.14l1.75-4.44h3.46l-3.83 8.66 3.83 8.64h-3.46L66 135.5c-.14-.4-.23-.75-.32-1.15h-.1c-.08.4-.18.76-.32 1.15l-1.74 4.42h-3.46l3.82-8.64ZM85.94 125.17c0-1.48 2.3-2.7 5.1-2.7 2.82 0 5.12 1.22 5.12 2.7v14.75h-3.4v-7.75h-3.41v7.75h-3.41v-14.75Zm3.4 5.2h3.42v-5.96h-3.41v5.97ZM111.77 135.42h3.41v2.72h3.4v-5.97h-3.4c-1.88 0-3.4-.8-3.4-1.8v-5.2c0-1.48 2.3-2.7 5.1-2.7 2.82 0 5.12 1.22 5.12 2.7v1.96h-3.41v-2.72h-3.4v5.96h3.4c1.89 0 3.4.8 3.4 1.8v5.22c.01 1.47-2.29 2.69-5.1 2.69-2.81 0-5.12-1.22-5.12-2.7v-1.96ZM156.63 122.62h3.41v15.52h3.4v-3.6h3.41v5.38h-10.22v-17.3ZM181.62 125.17c0-1.48 2.3-2.7 5.11-2.7 2.81 0 5.11 1.22 5.11 2.7v12.22c0 1.47-2.3 2.69-5.1 2.69-2.81 0-5.12-1.22-5.12-2.7v-12.21Zm6.82-.76h-3.41v13.73h3.4V124.4ZM209.58 124.41h-3.41v-1.8h10.22v1.8h-3.4v15.51h-3.41v-15.5ZM232.37 124.41h-3.4v-1.8h10.22v1.8h-3.4v15.51h-3.42v-15.5ZM263.74 124.41h-6.81v5.97h5.1v1.8h-5.1v5.96h6.81v1.78h-6.81c-1.9 0-3.41-.8-3.41-1.78V124.4c0-1 1.51-1.8 3.4-1.8h6.82v1.8ZM278.52 122.62h6.82c1.88 0 3.4.8 3.4 1.8v5.48c0 .82-.69 1.13-1.52 1.38.83.16 1.52.53 1.52 1.6v5.77c0 .48.37.84.83 1.27h-3.5c-.36-.35-.73-.84-.73-1.27v-6.48h-3.41v7.75h-3.41v-17.3Zm3.4 7.75h3.42v-5.96h-3.41v5.97ZM307.76 132.2a6.35 6.35 0 0 1-2.48-1c-.6-.46-.92-.98-.92-1.55v-7.03h3.4v7.78h3.42v-7.78h3.4v7.03c0 .57-.32 1.1-.92 1.55-.6.44-1.42.78-2.48 1v7.72h-3.42v-7.72Z"/><path class="i" d="m172.3 87.67.19-.3s2.79.43 6.46-.32c0 0-1.5-1.84-2.24-4.6 0 0-1.25 1.3-4.82 2.28l-2.3.1h-.77l.1.55.23 2.88.7 4.28.25.95-.07.16-.7.17-5.05 1.18-.06-.25s.72-1.58.91-4.4c0 0-2.38-5.05-2.42-5.26-.04-.21-.2-.47-.2-.47l-3.41 1.24s-1.57 1.3-4.28 2.57c0 0-.8 1.29-2.32 2.66l-3.1 4.4 5.3 1.54 6.26.32.72-.03-1.52 2.28-.77 1.42-4.73 2.93-.62.17-.05.3s1.35 2.04 2.09 4.8l-6.01.5-6.34 2.69s1.87 2.4 3.4 4.8l4.65.7c-.55-.64-2.3-2.72-3.11-3.54l2.95-1.04 3.72-.74 3.01-.88 1.3-.32s-.91-2.05-2.8-5.15l.13-.14s1.08-.45 3.6-2.65c0 0 1.32-1.78 2.97-6.26l1.8-.17 1.3-.17 4.26-1.1 2.08-.5-.33-.9s.08-.68-.93-2.77l-.2-1.25.47-1.3.3-1.36Zm-9.73 4.66-.28 2.72-2.3-.04-.54.04-4.2-.3-.9-.03c3.48-3.8 5.74-7.58 5.74-7.58l.2-.08 2.58 4.23-.3 1.04Z"/><path class="h" d="m151.78 117.92-4.66-.7c.55.85.5.78 1.09 1.92 0 0 1.03.28 5.16 2 0 0-.35-1.77-1.59-3.22Z"/><path class="i" d="M314.1 26a35.5 35.5 0 0 0-10.33 2.96s-2.13-1.14-5.51-1.84l-13.96 7.83-2.68-5.86-3.4 1.37 1.34 2.12s4.34 6.93 4.43 7c.09.06 9.06-6.04 13.82-10.65l2.9 2.09s-1.8 1.06-4.34 5.08l1.06 4.27 7.19-3.01 3.83-4.64s-1.45-2-3.1-2.86c0 0 3.36-.8 8-.78l.74-3.09Zm-10.24 10.16c-1.9.98-3.92 1.59-3.92 1.59-.23-3.08.33-3.07.33-3.07.61-2.03 1.41-2.9 1.41-2.9l3.67 2.62c-.76.63-1.5 1.76-1.5 1.76Z"/><path class="h" d="M319.94 25.8s-3.14-.16-6.66.3l-.71 2.98c2.6.02 6.38.28 9.42 1.08l-2.05-4.36Z"/><path class="i" d="M142.46 7.76c-.25 2.48-.6 6.72-.54 8.91l-2.78.58s.34-1.62-.64-5.26l-3.07-1.68-2.1 5.82.66 4.73s1.95.23 3.33-.27c0 0-3.26 5.83-9.11 9.57l3.65 1.14s4.53-3.95 6.84-11.16c0 0 1.8-.63 4.04-2.22l2.27-9.49-2.55-.67Zm-7.79 10.39c.04-.79-.23-1.82-.23-1.82a21.16 21.16 0 0 1 1.18-3.15c1.92 1.53 1.62 1.84 1.62 1.84.86 1.45.93 2.4.93 2.4l-3.5.73Z"/><path class="h" d="M149.6 4.05s-6.4-1.19-6.48-1.17c-.05 0-.33 1.48-.66 4.88l2.55.67.65-2.88 4.87 1.58 1.03-2.72-1.97-.36Z"/><path class="i" d="m170.36 59.81.93-1.52c.36-.5.01-.83.01-.83l-1.28-2.03.02-.11.77.21 1.54.28.46.14c.52-.98.91-1.33.91-1.33l.5-.88.08.05c.28 1.38.33 2.51.33 2.51l.04.1.35.13 1.82 1.35c.07.1-.07.16-.07.16-.74.35-1.86.76-1.86.76.07 1.26-.17 2.45-.17 2.45l-.34-.25-1.62-1.68c-1.62.18-2.42.5-2.42.5ZM226.94 111.76c-1.1-1.75-.92-2.86-1.2-2.94-1.83-.63-4.43-.66-4.43-.66 2-1.29 3.97-2.16 3.97-2.16-.37-.81-.86-2.6-.86-2.6l2.68 1.86a41.3 41.3 0 0 1 3.6-1.31l-1.3 2.76 1.45 2.31c-.9.04-2.87-.05-2.87-.05-.54 1.29-1.04 2.79-1.04 2.79Z"/><path class="d" d="M287.87 22.57c-1.1-1.75-.91-2.85-1.19-2.94-1.83-.62-4.42-.65-4.42-.65 2-1.3 3.96-2.16 3.96-2.16-.38-.82-.85-2.6-.85-2.6l2.66 1.86c2-.83 3.6-1.31 3.6-1.31l-1.29 2.76 1.45 2.3c-.9.05-2.88-.04-2.88-.04-.53 1.29-1.04 2.78-1.04 2.78ZM295.14 107.74l-2.08 1.72-.92.74-.19.27-.2-.15c-.67-2.28-2.26-4.37-2.26-4.37l.02-.16 1.16.36 2.07.74c1.48.7 2.4.85 2.4.85ZM246.36 109.82c.32-2.6 0-3.85 0-3.85 1.07.53 3.25.97 3.25.97-2.04 1.77-3.25 2.88-3.25 2.88"/><g><path class="d" d="M185.47 20.59c-.1-.55-.3-1.08-.64-1.53-1.92-2.51-6.12-1.91-7.42-2.59-.52-.29-.9-.73-1-1.28-.08-.45.07-.97.52-1.45.49-.5 1.21-.96 1.97-1.07.16-.03.36-.02.53-.02-.74.4-1.05 1.06-.94 1.7.06.37.3.74.64 1 .62.46 1.39.78 2.17.66.5-.07 1.02-.3 1.47-.84.3-.39.48-.91.38-1.46a1.9 1.9 0 0 0-1.23-1.46 5.22 5.22 0 0 0-2.64-.26c-.32.05-.64.13-.96.22-.2-1.31-.38-3.68-.55-4.8-.4-.26-1.21.17-1.72.3.62 2.05 1.2 3.7 1.53 4.78a8 8 0 0 0-1.67 1A5.03 5.03 0 0 0 174 18.1c.1.61.38 1.2.83 1.69 1.82 1.94 5.6 1 7.11 2.39.36.32.73.85.84 1.49.14.85-.11 1.85-1.3 2.75-.48.35-1.37.67-2.28.81-1.51.23-3.13 0-3.35-1.24.57.57 1.46.84 2.28.72.52-.08 1.02-.31 1.41-.78.39-.46.52-1.04.42-1.65-.18-1-1.06-1.99-2.61-2.03-.17-.01-.34-.01-.54.02-1.37.2-2.84 1.41-2.55 3.08.06.34.19.7.42 1.06.72 1.24 2.82 1.7 4.92 1.38.46-.07.92-.18 1.37-.33.22 1.23.43 3.93.62 5.16.4.27 1.22-.17 1.72-.3-.69-2.27-1.31-4.04-1.62-5.14a6.2 6.2 0 0 0 1.75-1.09c1.36-1.23 2.36-3.6 2.03-5.5Z"/><path class="h" d="M178.09 10.22s-.22-2.14-.32-2.8c-.4-.27-1.21.16-1.72.3.26.87.75 2.37.75 2.37l1.29.13Z"/></g><path class="i" d="M305.54 95.2c.07-.4.09-.79-.03-1.17-.6-2.14-3.5-2.83-4.17-3.6-.26-.33-.4-.72-.32-1.1.07-.32.3-.62.71-.81.45-.2 1.04-.32 1.57-.2.11.03.24.08.35.13-.59.07-.97.42-1.06.87-.05.25 0 .55.17.81.28.47.7.87 1.24 1 .34.08.75.06 1.17-.17.3-.18.55-.47.63-.86.09-.42-.03-.91-.43-1.27a3.91 3.91 0 0 0-2.33-.95c.21-.9.7-2.5.88-3.28-.2-.27-.84-.2-1.2-.24-.13 1.5-.18 2.72-.24 3.5-.47.03-.94.11-1.35.23a3.53 3.53 0 0 0-2.44 2.52c-.09.42-.06.87.1 1.31.7 1.74 3.4 2.1 4.03 3.4.16.3.25.74.16 1.19-.12.59-.55 1.18-1.56 1.45-.4.1-1.06.1-1.7-.05-1.03-.25-2.04-.81-1.86-1.68.23.52.74.92 1.3 1.06.36.08.75.06 1.12-.14.38-.2.62-.55.7-.97.15-.7-.17-1.57-1.17-2-.12-.06-.22-.1-.36-.13-.95-.23-2.22.2-2.46 1.36-.05.23-.05.5 0 .8.15.98 1.4 1.83 2.85 2.16.32.08.65.13.98.15-.17.85-.73 2.67-.93 3.52.2.28.84.2 1.2.25.14-1.66.2-2.97.28-3.77.5-.02.98-.1 1.42-.26a4.64 4.64 0 0 0 2.75-3.07Z"/><g><path class="d" d="M281.86 107.63c-.03-.6-.18-1.2-.52-1.73-1.92-2.99-7.14-3.01-8.6-3.94-.6-.4-.98-.93-1-1.53-.02-.5.24-1.04.88-1.47a4.77 4.77 0 0 1 2.57-.84c.2 0 .45.04.66.07-.97.3-1.47.97-1.45 1.67.02.4.24.83.62 1.16.68.6 1.55 1.06 2.53 1.06.61 0 1.3-.17 1.93-.67.44-.37.74-.9.72-1.5a2.08 2.08 0 0 0-1.25-1.76 7.26 7.26 0 0 0-4.38-.6c-.02-1.44.16-4 .14-5.22-.44-.35-1.5-.02-2.15.05.4 2.28.83 4.13 1.06 5.35-.8.2-1.56.48-2.2.8-1.8.87-3.2 2.77-3.13 4.64.04.66.26 1.33.74 1.92 1.89 2.37 6.64 1.96 8.26 3.69.39.4.73 1.02.76 1.72.04.94-.45 1.97-2.05 2.74-.64.3-1.77.5-2.91.5-1.88 0-3.82-.49-3.87-1.85.6.7 1.63 1.13 2.65 1.12.65 0 1.3-.17 1.86-.6.55-.43.81-1.03.79-1.7-.05-1.1-.96-2.3-2.84-2.59-.2-.03-.42-.07-.66-.07-1.7 0-3.7 1.08-3.63 2.91 0 .37.11.76.33 1.2.67 1.43 3.15 2.25 5.76 2.25.57 0 1.15-.04 1.73-.13.06 1.35-.14 4.27-.13 5.6.46.36 1.52.03 2.16-.04-.46-2.53-.92-4.52-1.1-5.75.84-.2 1.63-.5 2.3-.9 1.88-1.1 3.5-3.46 3.42-5.56Z"/><path class="h" d="M275.17 116.86c-.04 1.14-.1 2.31-.09 3.02.46.36 1.52.03 2.16-.04-.19-1.05-.38-2-.55-2.85l-1.52-.13Z"/></g><path class="d" d="M88.48 99.52c.1-.33.14-.7.06-1.06-.44-2.08-3.18-3.32-3.78-4.17-.23-.36-.33-.73-.23-1.07.08-.27.32-.5.74-.59.45-.1 1.02-.07 1.52.15.1.05.23.12.33.19-.57-.06-.96.18-1.08.57-.07.22-.03.5.1.78.25.48.62.94 1.13 1.17.33.14.72.2 1.15.09.3-.1.56-.32.66-.65.11-.37.04-.84-.32-1.26a4.28 4.28 0 0 0-2.19-1.35c.27-.79.85-2.15 1.07-2.81-.17-.3-.79-.37-1.14-.48-.22 1.34-.35 2.45-.46 3.16-.47-.08-.92-.1-1.32-.08-1.11.05-2.2.76-2.52 1.8-.12.37-.12.78.01 1.22.55 1.73 3.13 2.62 3.65 3.95.13.3.2.73.08 1.12-.17.51-.62.96-1.61 1-.4.02-1.03-.14-1.63-.4-1-.44-1.92-1.17-1.69-1.92.19.52.65 1 1.2 1.23.33.16.7.22 1.08.11.38-.1.63-.37.74-.74.19-.6-.06-1.48-1-2.08-.1-.06-.2-.13-.33-.19-.9-.4-2.16-.28-2.47.73-.06.2-.09.44-.06.73.08.94 1.23 1.97 2.6 2.58.31.14.63.25.95.33-.23.75-.9 2.3-1.14 3.03.17.3.8.37 1.14.49.25-1.5.39-2.69.52-3.4.48.1.96.12 1.39.06 1.2-.16 2.5-1.07 2.85-2.24ZM159.64 28.2l-1.53-2.23-.66-.97-.25-.2.16-.2a15.76 15.76 0 0 0 4.57-1.87l.14.03-.46 1.13-.91 1.99c-.82 1.42-1.06 2.32-1.06 2.32ZM139.98 86.04l2.08.3 1.2.23 1.5.23-3.2 3.16a49.1 49.1 0 0 0-1.58-3.92ZM264.72 25.56c.32-2.6 0-3.85 0-3.85 1.08.52 3.25.97 3.25.97-2.04 1.76-3.25 2.88-3.25 2.88"/><path class="i" d="M76.28 29.97c0-.37-.1-.76-.3-1.1-1.15-1.97-4.36-2.3-5.26-2.96-.36-.28-.59-.63-.6-1 0-.32.16-.63.55-.86a2.73 2.73 0 0 1 1.6-.37l.4.08c-.6.13-.91.5-.9.95 0 .24.14.53.36.75.42.41.95.76 1.55.81.38.04.8-.02 1.2-.3.27-.2.46-.5.45-.88a1.41 1.41 0 0 0-.75-1.17 4.63 4.63 0 0 0-2.7-.63c.01-.9.14-2.47.14-3.22-.27-.24-.93-.11-1.32-.1.23 1.44.47 2.6.6 3.37-.5.07-.96.2-1.36.37-1.12.43-2 1.52-1.96 2.68 0 .42.15.84.43 1.24 1.14 1.58 4.07 1.6 5.05 2.77.24.27.45.68.46 1.12.01.58-.3 1.19-1.3 1.57-.39.15-1.09.2-1.8.14-1.14-.11-2.33-.53-2.35-1.38.36.47 1 .8 1.62.85.4.04.8-.02 1.15-.26.34-.24.5-.59.5-1-.02-.69-.56-1.48-1.73-1.77a2.1 2.1 0 0 0-.4-.09c-1.05-.1-2.29.45-2.26 1.58 0 .23.06.49.2.77.4.92 1.91 1.58 3.52 1.74.35.03.7.03 1.06.01.02.84-.13 2.64-.12 3.47.27.25.93.1 1.32.1-.25-1.6-.52-2.85-.63-3.62a4.92 4.92 0 0 0 1.44-.42c1.16-.57 2.18-1.94 2.14-3.24Z"/><g><path class="i" d="M43.91 101.23a5.1 5.1 0 0 0-1.28-2.22c-3.61-3.59-10.75-2.48-13.06-3.4-.94-.41-1.64-1.04-1.87-1.84-.2-.67-.02-1.45.7-2.17a6.14 6.14 0 0 1 3.24-1.69c.28-.04.64-.05.93-.06-1.22.62-1.7 1.62-1.42 2.56.16.53.6 1.07 1.23 1.43a5.83 5.83 0 0 0 3.8.88 3.96 3.96 0 0 0 2.42-1.34c.48-.58.72-1.37.48-2.16a3.17 3.17 0 0 0-2.3-2.1 10.34 10.34 0 0 0-4.55-.24c-.56.1-1.1.22-1.63.39-.5-1.93-1.1-5.41-1.53-7.05-.73-.37-2.08.3-2.93.54 1.33 2.99 2.51 5.38 3.23 6.96-1.04.44-1.97.99-2.74 1.57-2.18 1.56-3.45 4.43-2.72 6.92a5 5 0 0 0 1.63 2.43c3.38 2.76 9.73 1.17 12.51 3.13a4.13 4.13 0 0 1 1.63 2.16c.35 1.24.03 2.74-1.9 4.13a10.3 10.3 0 0 1-3.82 1.33c-2.55.4-5.37.17-5.9-1.65a5.38 5.38 0 0 0 4 .93 3.8 3.8 0 0 0 2.33-1.22c.62-.7.78-1.57.51-2.45-.42-1.48-2.04-2.9-4.73-2.87-.29 0-.59 0-.92.06-2.33.37-4.7 2.26-4 4.7.14.5.41 1.01.86 1.54 1.39 1.78 5.06 2.34 8.62 1.76.77-.12 1.55-.32 2.31-.56.53 1.8 1.22 5.79 1.7 7.57.73.38 2.07-.3 2.93-.53-1.47-3.31-2.75-5.89-3.42-7.48 1.09-.46 2.08-1.04 2.86-1.72 2.19-1.9 3.61-5.44 2.8-8.24Z"/><path class="h" d="M37.75 114.66c.35 1.68.7 3.49.98 4.54.74.38 2.08-.3 2.94-.53-.66-1.49-1.28-2.83-1.83-4h-2.1Z"/></g><path class="i" d="M256.55 38.23a4 4 0 0 0 .3-2c-.46-3.98-5.4-6.8-6.38-8.5-.37-.71-.5-1.44-.25-2.05.21-.5.7-.9 1.5-.99.86-.1 1.94.05 2.83.55a6 6 0 0 1 .6.42c-1.06-.23-1.84.16-2.14.88-.16.4-.14.95.06 1.48.37.96.99 1.89 1.92 2.4.59.34 1.31.53 2.14.37.58-.12 1.12-.5 1.36-1.1a2.5 2.5 0 0 0-.38-2.42 8.16 8.16 0 0 0-3.9-2.94c.65-1.43 1.98-3.88 2.52-5.1-.27-.58-1.43-.83-2.07-1.1-.64 2.5-1.09 4.55-1.42 5.88-.86-.24-1.7-.36-2.46-.39-2.11-.1-4.3 1.05-5.07 2.94a3.9 3.9 0 0 0-.19 2.3c.73 3.35 5.43 5.49 6.18 8.06.18.6.23 1.43-.06 2.14-.39.93-1.33 1.7-3.2 1.6a8.13 8.13 0 0 1-3-1.05c-1.78-1-3.4-2.52-2.83-3.9.25 1 1.05 1.99 2 2.52.63.35 1.32.53 2.05.4a1.97 1.97 0 0 0 1.51-1.26c.47-1.12.16-2.79-1.5-4.09a3.87 3.87 0 0 0-.6-.41c-1.63-.92-4-.92-4.77.93-.16.37-.25.83-.23 1.37-.02 1.78 1.97 3.92 4.45 5.31.54.3 1.11.57 1.7.8-.56 1.36-2.1 4.15-2.67 5.49.27.6 1.43.83 2.07 1.1.72-2.75 1.19-4.97 1.56-6.28.9.25 1.79.38 2.6.35 2.28-.1 4.9-1.58 5.77-3.7Z"/><g><path class="f" d="M161.47 73.24c1.13-.11 2.5-.48 3.74-1.07 0 .69-.05 1.3-.1 1.85-2.5.42-6.24.74-9.62.47-1.4-.11-2.7-.28-3.86-.58 1.17-6.5 1.8-14.97 1.77-17.52-.07-2.27-.8-3.08-1.62-3.08-.74-.05-1.53.43-2.18 1-.38 2.3-1.06 6.79-1.34 9.64-.28 2.8-.54 6-.67 8.88.07 0 .43.04.66-.02.12.29.31.58.44.8-1.65.9-5.67 1.13-9.05.86a22.63 22.63 0 0 1-4.02-.6c-.1-.55-.03-1.1-.18-1.86.97.69 1.76.89 2.79 1.04.29-2.17.48-4.15.68-6.06.9-9 .58-14.59 1.3-21.74.13-1.22.82-5.84 1.55-9.36-.83.08-2.01.05-3.17-.25a5.47 5.47 0 0 1-.5-2.3 32.3 32.3 0 0 0 8.11 1.8c1.54.13 3.1.18 4.8.18.35 3.88-.58 10.88-1.3 17.21 1.9-1.15 4.06-2.7 7.3-2.44 6.24.5 6.2 6.67 5.37 14.99-.37 3.68-.67 5.92-.9 8.16ZM76.81 77.17c-1.77 6.25-6.93 10.02-12.66 11.43-2.91.72-5.98.87-8.8.43-9.22-1.43-15.85-8.49-18.22-16.97a25.5 25.5 0 0 1 7.05-25.7 19.71 19.71 0 0 1 8.73-5.02c5.74-1.4 11.1.82 13.08 6.15 1.63 4.36-1.45 9.73-5.35 10.7-1.22.3-2.62.26-3.97-.47a6.7 6.7 0 0 1-3.42-4.06 6.33 6.33 0 0 1 4.59-7.86c3.29-.8 5.11.18 6.37 2.06.16.26.35.36.5.33.16-.04.27-.22.2-.5-1.7-4.04-6.44-6.05-10.8-4.98a10.55 10.55 0 0 0-5.26 3.11c-2.14 2.27-1.55 9.38.54 16.87C52.35 73.3 58.21 84.62 63.71 85c1.67.12 3.1 0 4.4-.33C74.7 83.06 76 76.31 75.09 73c-.42-1.49-1.2-2.5-2.23-2.7-.25-.02-.37-.14-.39-.21-.1-.35.34-.84.95-.99 1.45-.36 2.85 1.11 3.44 3.23a8.94 8.94 0 0 1-.04 4.85Z"/><path class="f" d="M80.29 78.6c-2.27.33-3.19-2.73-3-5.23.18-3 .98-6.17 4.13-6.48-.3 4.52-.75 8.87-1.13 11.7Zm11.17-1.02c-.55.3-1.72.74-2.7.78 1.27-4.4 2.47-8.38 2.88-11.94.4-3.49 0-6.63-1.7-9.49a9.57 9.57 0 0 0-7.44-4.62c-5.54-.68-11.7 2.77-12.22 8.77a3.94 3.94 0 0 0 3.57 4.28c2.7.29 4.56-2.54 4.64-4.76.06-2.66-.8-3.98-2.54-4.25a4.28 4.28 0 0 0-2.63.8c1.08-1.9 2.68-2.8 4.21-2.64 1.54.17 2.92 1.47 3.4 3.9.4 1.99.64 5.66-.4 6.22-2.49 1.36-5 2.64-9.3 2.03-1.79 3.34-1.92 6.57-1 9.12a6.92 6.92 0 0 0 5.75 4.59c1.39.15 3.22-.3 4.7-.8 3.7.62 6.37.55 9.74.27.23-.62.66-1.59 1.04-2.26ZM136.46 63.86a12.78 12.78 0 0 0-2.67-5.56c-7.65-9.02-23.2-5.97-28.18-8.24-2-1-3.5-2.58-3.96-4.6-.39-1.68.04-3.65 1.65-5.5 1.7-2 4.34-3.82 7.13-4.4.6-.11 1.36-.15 1.99-.16-2.68 1.6-3.74 4.17-3.2 6.53a6.13 6.13 0 0 0 2.6 3.57c2.4 1.63 5.3 2.68 8.21 2.09a8.7 8.7 0 0 0 5.32-3.43 6.95 6.95 0 0 0-3.73-10.75 19.53 19.53 0 0 0-9.88-.45c-1.2.24-2.39.59-3.53 1.02-1-4.87-2.14-13.66-2.98-17.8-1.58-.9-4.52.83-6.4 1.46 2.74 7.52 5.19 13.53 6.66 17.53a29.6 29.6 0 0 0-6.04 4.04c-4.8 4.03-7.7 11.31-6.26 17.6a12.3 12.3 0 0 0 3.43 6.11c7.16 6.88 21.06 2.65 27 7.55a9.98 9.98 0 0 1 3.4 5.4c.72 3.15-.06 6.95-4.32 10.52-1.72 1.4-4.96 2.77-8.36 3.46-5.58 1.13-11.67.6-12.72-3.99a10.18 10.18 0 0 0 8.64 2.23 8.3 8.3 0 0 0 5.12-3.15c1.36-1.8 1.75-4 1.24-6.24-.85-3.7-4.32-7.22-10.14-7.1-.63.01-1.26.02-1.99.17-5.1 1.04-10.34 5.86-8.93 12.03.29 1.24.84 2.53 1.78 3.87 2.92 4.46 10.84 5.78 18.6 4.2a31 31 0 0 0 5.07-1.49c1.05 4.56 2.36 14.59 3.28 19.11 1.58.93 4.52-.83 6.4-1.45-3.02-8.3-5.69-14.8-7.03-18.82a23.97 23.97 0 0 0 6.3-4.42c4.85-4.87 8.12-13.87 6.5-20.94Z"/><path class="f" d="M136.46 63.86a12.78 12.78 0 0 0-2.67-5.56c-7.65-9.02-23.2-5.97-28.18-8.24-2-1-3.5-2.58-3.96-4.6-.39-1.68.04-3.65 1.65-5.5 1.7-2 4.34-3.82 7.13-4.4.6-.11 1.36-.15 1.99-.16-2.68 1.6-3.74 4.17-3.2 6.53a6.13 6.13 0 0 0 2.6 3.57c2.4 1.63 5.3 2.68 8.21 2.09a8.7 8.7 0 0 0 5.32-3.43 6.95 6.95 0 0 0-3.73-10.75 19.53 19.53 0 0 0-9.88-.45c-1.2.24-2.39.59-3.53 1.02-1-4.87-2.14-13.66-2.98-17.8-1.58-.9-4.52.83-6.4 1.46 2.74 7.52 5.19 13.53 6.66 17.53a29.6 29.6 0 0 0-6.04 4.04c-4.8 4.03-7.7 11.31-6.26 17.6a12.3 12.3 0 0 0 3.43 6.11c7.16 6.88 21.06 2.65 27 7.55a9.98 9.98 0 0 1 3.4 5.4c.72 3.15-.06 6.95-4.32 10.52-1.72 1.4-4.96 2.77-8.36 3.46-5.58 1.13-11.67.6-12.72-3.99a10.18 10.18 0 0 0 8.64 2.23 8.3 8.3 0 0 0 5.12-3.15c1.36-1.8 1.75-4 1.24-6.24-.85-3.7-4.32-7.22-10.14-7.1-.63.01-1.26.02-1.99.17-5.1 1.04-10.34 5.86-8.93 12.03.29 1.24.84 2.53 1.78 3.87 2.92 4.46 10.84 5.78 18.6 4.2a31 31 0 0 0 5.07-1.49c1.05 4.56 2.36 14.59 3.28 19.11 1.58.93 4.52-.83 6.4-1.45-3.02-8.3-5.69-14.8-7.03-18.82a23.97 23.97 0 0 0 6.3-4.42c4.85-4.87 8.12-13.87 6.5-20.94Z"/><g><path class="d" d="M161.47 73.24c1.13-.11 2.5-.48 3.74-1.07 0 .69-.05 1.3-.1 1.85-2.5.42-6.24.74-9.62.47-1.4-.11-2.7-.28-3.86-.58 1.17-6.5 1.8-14.97 1.77-17.52-.07-2.27-.8-3.08-1.62-3.08-.74-.05-1.53.43-2.18 1-.38 2.3-1.06 6.79-1.34 9.64-.28 2.8-.54 6-.67 8.88.07 0 .43.04.66-.02.12.29.31.58.44.8-1.65.9-5.67 1.13-9.05.86a22.63 22.63 0 0 1-4.02-.6c-.1-.55-.03-1.1-.18-1.86.97.69 1.76.89 2.79 1.04.29-2.17.48-4.15.68-6.06.9-9 .58-14.59 1.3-21.74.13-1.22.82-5.84 1.55-9.36-.83.08-2.01.05-3.17-.25a5.47 5.47 0 0 1-.5-2.3 32.3 32.3 0 0 0 8.11 1.8c1.54.13 3.1.18 4.8.18.35 3.88-.58 10.88-1.3 17.21 1.9-1.15 4.06-2.7 7.3-2.44 6.24.5 6.2 6.67 5.37 14.99-.37 3.68-.67 5.92-.9 8.16ZM76.81 77.17c-1.77 6.25-6.93 10.02-12.66 11.43-2.91.72-5.98.87-8.8.43-9.22-1.43-15.85-8.49-18.22-16.97a25.5 25.5 0 0 1 7.05-25.7 19.71 19.71 0 0 1 8.73-5.02c5.74-1.4 11.1.82 13.08 6.15 1.63 4.36-1.45 9.73-5.35 10.7-1.22.3-2.62.26-3.97-.47a6.7 6.7 0 0 1-3.42-4.06 6.33 6.33 0 0 1 4.59-7.86c3.29-.8 5.11.18 6.37 2.06.16.26.35.36.5.33.16-.04.27-.22.2-.5-1.7-4.04-6.44-6.05-10.8-4.98a10.55 10.55 0 0 0-5.26 3.11c-2.14 2.27-1.55 9.38.54 16.87C52.35 73.3 58.21 84.62 63.71 85c1.67.12 3.1 0 4.4-.33C74.7 83.06 76 76.31 75.09 73c-.42-1.49-1.2-2.5-2.23-2.7-.25-.02-.37-.14-.39-.21-.1-.35.34-.84.95-.99 1.45-.36 2.85 1.11 3.44 3.23a8.94 8.94 0 0 1-.04 4.85Z"/><path class="d" d="M80.29 78.6c-2.27.33-3.19-2.73-3-5.23.18-3 .98-6.17 4.13-6.48-.3 4.52-.75 8.87-1.13 11.7Zm11.17-1.02c-.55.3-1.72.74-2.7.78 1.27-4.4 2.47-8.38 2.88-11.94.4-3.49 0-6.63-1.7-9.49a9.57 9.57 0 0 0-7.44-4.62c-5.54-.68-11.7 2.77-12.22 8.77a3.94 3.94 0 0 0 3.57 4.28c2.7.29 4.56-2.54 4.64-4.76.06-2.66-.8-3.98-2.54-4.25a4.28 4.28 0 0 0-2.63.8c1.08-1.9 2.68-2.8 4.21-2.64 1.54.17 2.92 1.47 3.4 3.9.4 1.99.64 5.66-.4 6.22-2.49 1.36-5 2.64-9.3 2.03-1.79 3.34-1.92 6.57-1 9.12a6.92 6.92 0 0 0 5.75 4.59c1.39.15 3.22-.3 4.7-.8 3.7.62 6.37.55 9.74.27.23-.62.66-1.59 1.04-2.26ZM136.46 63.86a12.78 12.78 0 0 0-2.67-5.56c-7.65-9.02-23.2-5.97-28.18-8.24-2-1-3.5-2.58-3.96-4.6-.39-1.68.04-3.65 1.65-5.5 1.7-2 4.34-3.82 7.13-4.4.6-.11 1.36-.15 1.99-.16-2.68 1.6-3.74 4.17-3.2 6.53a6.13 6.13 0 0 0 2.6 3.57c2.4 1.63 5.3 2.68 8.21 2.09a8.7 8.7 0 0 0 5.32-3.43 6.95 6.95 0 0 0-3.73-10.75 19.53 19.53 0 0 0-9.88-.45c-1.2.24-2.39.59-3.53 1.02-1-4.87-2.14-13.66-2.98-17.8-1.58-.9-4.52.83-6.4 1.46 2.74 7.52 5.19 13.53 6.66 17.53a29.6 29.6 0 0 0-6.04 4.04c-4.8 4.03-7.7 11.31-6.26 17.6a12.3 12.3 0 0 0 3.43 6.11c7.16 6.88 21.06 2.65 27 7.55a9.98 9.98 0 0 1 3.4 5.4c.72 3.15-.06 6.95-4.32 10.52-1.72 1.4-4.96 2.77-8.36 3.46-5.58 1.13-11.67.6-12.72-3.99a10.18 10.18 0 0 0 8.64 2.23 8.3 8.3 0 0 0 5.12-3.15c1.36-1.8 1.75-4 1.24-6.24-.85-3.7-4.32-7.22-10.14-7.1-.63.01-1.26.02-1.99.17-5.1 1.04-10.34 5.86-8.93 12.03.29 1.24.84 2.53 1.78 3.87 2.92 4.46 10.84 5.78 18.6 4.2a31 31 0 0 0 5.07-1.49c1.05 4.56 2.36 14.59 3.28 19.11 1.58.93 4.52-.83 6.4-1.45-3.02-8.3-5.69-14.8-7.03-18.82a23.97 23.97 0 0 0 6.3-4.42c4.85-4.87 8.12-13.87 6.5-20.94Z"/><path class="d" d="M136.46 63.86a12.78 12.78 0 0 0-2.67-5.56c-7.65-9.02-23.2-5.97-28.18-8.24-2-1-3.5-2.58-3.96-4.6-.39-1.68.04-3.65 1.65-5.5 1.7-2 4.34-3.82 7.13-4.4.6-.11 1.36-.15 1.99-.16-2.68 1.6-3.74 4.17-3.2 6.53a6.13 6.13 0 0 0 2.6 3.57c2.4 1.63 5.3 2.68 8.21 2.09a8.7 8.7 0 0 0 5.32-3.43 6.95 6.95 0 0 0-3.73-10.75 19.53 19.53 0 0 0-9.88-.45c-1.2.24-2.39.59-3.53 1.02-1-4.87-2.14-13.66-2.98-17.8-1.58-.9-4.52.83-6.4 1.46 2.74 7.52 5.19 13.53 6.66 17.53a29.6 29.6 0 0 0-6.04 4.04c-4.8 4.03-7.7 11.31-6.26 17.6a12.3 12.3 0 0 0 3.43 6.11c7.16 6.88 21.06 2.65 27 7.55a9.98 9.98 0 0 1 3.4 5.4c.72 3.15-.06 6.95-4.32 10.52-1.72 1.4-4.96 2.77-8.36 3.46-5.58 1.13-11.67.6-12.72-3.99a10.18 10.18 0 0 0 8.64 2.23 8.3 8.3 0 0 0 5.12-3.15c1.36-1.8 1.75-4 1.24-6.24-.85-3.7-4.32-7.22-10.14-7.1-.63.01-1.26.02-1.99.17-5.1 1.04-10.34 5.86-8.93 12.03.29 1.24.84 2.53 1.78 3.87 2.92 4.46 10.84 5.78 18.6 4.2a31 31 0 0 0 5.07-1.49c1.05 4.56 2.36 14.59 3.28 19.11 1.58.93 4.52-.83 6.4-1.45-3.02-8.3-5.69-14.8-7.03-18.82a23.97 23.97 0 0 0 6.3-4.42c4.85-4.87 8.12-13.87 6.5-20.94Z"/></g></g><g><path class="g" d="M214.05 52.29c-3.63-13.25-8.85-15.98-12.9-16.56-1.54-.27-4.55.51-7.94 1.37 2.13 9.4 4.5 18.85 6.33 27.07 1.82-.42 3.05-.97 3.92-1.34 1.68-.75 1.37-5.04.9-9.3.58-.22.9-.2 1.32-.48.96 5.21 2.82 13.97 4 18.69-.23.05-.78.08-1.12.34-1.1-4.73-1.78-7.52-2.63-8.3-1.88.52-3.4.78-6.01 1.55 1.63 8 2.86 14.67 4.25 20.95 2.63-.7 5.1-1.35 7.31-1.77.14.33.1.96.09 1.76-5.77 1.15-21.3 4.98-24.14 7.06-.24-.48-1.05-1-1.54-1.52 1.34-1.73 5-2.39 7.46-3.13-3.5-14.7-7.67-30.06-10.7-48.62a56.47 56.47 0 0 0-7.65 2.92c-.23-.84-.42-1.42-.46-2.48 9.6-2.2 21.85-6.26 34.21-8.39a9.5 9.5 0 0 0-.13-2.02c.28-.15.68-.15 1.04-.33a651.92 651.92 0 0 1 5.58 22.16c-.43.19-.89.3-1.2.37ZM224.57 52.73c-2.46-.33-4.57-3.25-4.15-6.7.52-3.62 3.35-7.02 8.09-5.5 2.71.89 3.36 3 3.17 5.6-.33 4.08-3.96 7.02-7.11 6.6Zm4.78 35.32c-5-.5-9.1-.7-12.95-1.12-.25-.56-.66-1.23-.9-1.88 1.06.23 1.82.5 2.74.55.28-3.48.6-6.69.88-9.54.7-7.72 1.4-13.08 2.41-16.27-1.14-.25-2.16-.12-3.5-.04-.17-.63-.45-1.64-.6-2.45 3.58.74 8.64 1.34 12.78 2.77-.17 7.88-.9 15.25-2 26.16.45.15.9.21 1.3.26l-.16 1.56ZM283.93 65.6c-1.51-.4-3.1-.83-4.66-1.5 1.73-11.62 3.52-12.93 4.66-12.67.9.23 2.39 2.22 0 14.17Zm9.81 12.15c.36-2.4-.88-3.83-1.94-3.38-.5.2-.54.54-.47 1.34.33 3.22-1 7.33-5.37 8.06-.96.2-1.89.15-2.8 0a6.46 6.46 0 0 1-5.65-6.4c-.05-3.7.42-7.06 1.44-11.83 2.76 1.04 7.39 2.1 10.45 2.57 1.38.21 2.54.3 2.94.2 1.13-.36 1.4-1.3 1.64-3.37.89-8.4-3.36-14.15-9.47-15.17a14.04 14.04 0 0 0-7.03.85c-6.2 2.4-9.88 7.99-10.54 14.3a20.7 20.7 0 0 0 4.61 15.4 14.02 14.02 0 0 0 9.32 5.05c4.91.58 9.62-1.08 11.23-3.56a10 10 0 0 0 1.64-4.06ZM266.6 58.49c-.43-.47-1.56-.85-2.97-1.02-1.5 10.74-3.31 30.22-12.64 38.9-6.79-6.84-12.56-21.64-14.16-34.44-.95.56-2.35 1.27-3.89 2.17-.24-.84-.37-2.06-.48-3.1 5.04-.83 10.86-3 16.46-3.72.1.25.13.5.22 1.38-.52.15-1.22.24-1.52.28 2.84 7.72 5.58 17.38 8.23 27.58 3.2-5.69 5.04-24.03 4.44-29.76-1.24.08-2.62.26-4.23.47.4-.67.8-1.34 1.2-1.92a34.4 34.4 0 0 1 10.6 1.08c-.13.9-.78 1.42-1.25 2.1Z"/><path class="d" d="M214.05 52.29c-3.63-13.25-8.85-15.98-12.9-16.56-1.54-.27-4.55.51-7.94 1.37 2.13 9.4 4.5 18.85 6.33 27.07 1.82-.42 3.05-.97 3.92-1.34 1.68-.75 1.37-5.04.9-9.3.58-.22.9-.2 1.32-.48.96 5.21 2.82 13.97 4 18.69-.23.05-.78.08-1.12.34-1.1-4.73-1.78-7.52-2.63-8.3-1.88.52-3.4.78-6.01 1.55 1.63 8 2.86 14.67 4.25 20.95 2.63-.7 5.1-1.35 7.31-1.77.14.33.1.96.09 1.76-5.77 1.15-21.3 4.98-24.14 7.06-.24-.48-1.05-1-1.54-1.52 1.34-1.73 5-2.39 7.46-3.13-3.5-14.7-7.67-30.06-10.7-48.62a56.47 56.47 0 0 0-7.65 2.92c-.23-.84-.42-1.42-.46-2.48 9.6-2.2 21.85-6.26 34.21-8.39a9.5 9.5 0 0 0-.13-2.02c.28-.15.68-.15 1.04-.33a651.92 651.92 0 0 1 5.58 22.16c-.43.19-.89.3-1.2.37ZM224.57 52.73c-2.46-.33-4.57-3.25-4.15-6.7.52-3.62 3.35-7.02 8.09-5.5 2.71.89 3.36 3 3.17 5.6-.33 4.08-3.96 7.02-7.11 6.6Zm4.78 35.32c-5-.5-9.1-.7-12.95-1.12-.25-.56-.66-1.23-.9-1.88 1.06.23 1.82.5 2.74.55.28-3.48.6-6.69.88-9.54.7-7.72 1.4-13.08 2.41-16.27-1.14-.25-2.16-.12-3.5-.04-.17-.63-.45-1.64-.6-2.45 3.58.74 8.64 1.34 12.78 2.77-.17 7.88-.9 15.25-2 26.16.45.15.9.21 1.3.26l-.16 1.56ZM283.93 65.6c-1.51-.4-3.1-.83-4.66-1.5 1.73-11.62 3.52-12.93 4.66-12.67.9.23 2.39 2.22 0 14.17Zm9.81 12.15c.36-2.4-.88-3.83-1.94-3.38-.5.2-.54.54-.47 1.34.33 3.22-1 7.33-5.37 8.06-.96.2-1.89.15-2.8 0a6.46 6.46 0 0 1-5.65-6.4c-.05-3.7.42-7.06 1.44-11.83 2.76 1.04 7.39 2.1 10.45 2.57 1.38.21 2.54.3 2.94.2 1.13-.36 1.4-1.3 1.64-3.37.89-8.4-3.36-14.15-9.47-15.17a14.04 14.04 0 0 0-7.03.85c-6.2 2.4-9.88 7.99-10.54 14.3a20.7 20.7 0 0 0 4.61 15.4 14.02 14.02 0 0 0 9.32 5.05c4.91.58 9.62-1.08 11.23-3.56a10 10 0 0 0 1.64-4.06ZM266.6 58.49c-.43-.47-1.56-.85-2.97-1.02-1.5 10.74-3.31 30.22-12.64 38.9-6.79-6.84-12.56-21.64-14.16-34.44-.95.56-2.35 1.27-3.89 2.17-.24-.84-.37-2.06-.48-3.1 5.04-.83 10.86-3 16.46-3.72.1.25.13.5.22 1.38-.52.15-1.22.24-1.52.28 2.84 7.72 5.58 17.38 8.23 27.58 3.2-5.69 5.04-24.03 4.44-29.76-1.24.08-2.62.26-4.23.47.4-.67.8-1.34 1.2-1.92a34.4 34.4 0 0 1 10.6 1.08c-.13.9-.78 1.42-1.25 2.1Z"/></g><g><path class="i" d="M58.16 20.1a4 4 0 0 0 .3-2c-.46-3.98-5.4-6.8-6.38-8.5-.38-.71-.5-1.44-.25-2.05.2-.5.7-.9 1.5-.99.85-.1 1.94.05 2.82.55.2.1.42.28.6.41-1.05-.21-1.83.17-2.13.89-.16.4-.15.95.06 1.48.37.95.98 1.88 1.92 2.4.59.34 1.31.53 2.14.37.58-.12 1.11-.5 1.36-1.1a2.5 2.5 0 0 0-.39-2.42 8.15 8.15 0 0 0-3.88-2.94c.64-1.43 1.97-3.88 2.51-5.1-.27-.58-1.43-.83-2.07-1.1-.64 2.5-1.1 4.55-1.43 5.88-.85-.24-1.7-.36-2.45-.39-2.11-.1-4.3 1.05-5.08 2.94a3.92 3.92 0 0 0-.18 2.3c.72 3.35 5.43 5.49 6.17 8.06.19.6.24 1.42-.05 2.14-.4.93-1.33 1.7-3.2 1.6a8.14 8.14 0 0 1-3-1.05c-1.78-1-3.4-2.52-2.83-3.9.25 1 1.04 1.99 2 2.52a3 3 0 0 0 2.04.4 1.98 1.98 0 0 0 1.52-1.26c.47-1.12.16-2.79-1.51-4.09a3.9 3.9 0 0 0-.6-.42c-1.62-.91-4-.91-4.77.94-.15.37-.24.82-.23 1.37-.01 1.78 1.98 3.92 4.45 5.31.54.3 1.12.57 1.7.8-.56 1.36-2.08 4.15-2.66 5.49.26.6 1.42.83 2.06 1.1.72-2.75 1.2-4.97 1.56-6.28.9.25 1.8.38 2.61.35 2.28-.1 4.9-1.58 5.77-3.7Z"/><path class="h" d="M59.5 8.85a8.88 8.88 0 0 0-3.66-2.65c.63-1.43 1.96-3.88 2.5-5.1-.27-.58-1.43-.83-2.07-1.1-.64 2.5-1.1 4.55-1.43 5.88-.85-.24-1.7-.36-2.45-.39-2.11-.1-4.3 1.05-5.08 2.94-.13.33-.22.68-.25 1.05l1.98-.77 3.14 1.05-.1-.16c-.38-.71-.5-1.44-.25-2.05.2-.5.7-.9 1.5-.99.85-.1 1.94.05 2.82.55.2.1.42.28.6.41-1.05-.21-1.83.17-2.13.89-.16.4-.15.95.06 1.48l.14.34h.02l3.32-1.25 1.5.08a7.9 7.9 0 0 0-.17-.21Z"/></g></g></svg>