<svg xmlns="http://www.w3.org/2000/svg" xmlns:xlink="http://www.w3.org/1999/xlink" id="b" viewBox="0 0 315.65 155.79"><defs><linearGradient id="d" x1="241.02" x2="279.25" y1="135.19" y2="135.19" gradientUnits="userSpaceOnUse"><stop offset="0" stop-color="#fdb927"/><stop offset=".03" stop-color="#fcb626"/><stop offset=".27" stop-color="#f9a121"/><stop offset=".52" stop-color="#f7941e"/><stop offset=".74" stop-color="#f7901e"/><stop offset="1" stop-color="#e75725"/></linearGradient><linearGradient xlink:href="#d" id="e" x1="240.16" x2="280.13" y1="134.51" y2="134.51"/><linearGradient id="f" x1="242.86" x2="272.78" y1="136.18" y2="136.18" gradientUnits="userSpaceOnUse"><stop offset="0" stop-color="#fdb927"/><stop offset=".02" stop-color="#fcb526"/><stop offset=".2" stop-color="#f49326"/><stop offset=".39" stop-color="#ee7825"/><stop offset=".59" stop-color="#ea6625"/><stop offset=".79" stop-color="#e75a25"/><stop offset="1" stop-color="#e75725"/></linearGradient><linearGradient xlink:href="#f" id="g" x1="242.75" x2="272.9" y1="136.1" y2="136.1"/><style>.h,.k{fill:#fff}.q{fill:#fdb927}.r{fill:#fed4a9}.s{fill:#e75725}.t{fill:#3d2986}.u{fill:#f7901e}.k{stroke:#fff;stroke-linecap:round;stroke-linejoin:round;stroke-width:5.977px}.v{fill:#fdc489}</style></defs><g id="c"><path d="m56.534,127.54l3.389-.015,3.775-.633c4.306.543,8.264,1.988,8.264,1.988,6.503-1.988,12.214-2.076,12.214-2.076l.875.992c11.693-1.353,19.517-.806,19.517-.806,5.975.268,6.92,1.181,6.92,1.181l.105-6.64,1.758-3.516-1.494-6.851,1.228-3.966-.528-11.719,1.409-6.401c-1.582-4.325-1.936-8.201-1.936-8.201l2.464-13.151-.793-4.417,1.055-8.117-1.055-5.139c-1.49-17.702,1.763-27.493,1.763-27.493l-4.639-.873-3.843-.932c-9.535,2.398-10.851,2.124-10.851,2.124l-7.121-.085-1.671-1.537c-2.987.18-4.741.901-4.741.901h-9.404l-4.835-.444-.967-1.263-8.042,1.622-2.457-.094-3.824,1.442-5.099-1.707c-3.603,1.529-7.03,2.25-7.03,2.25l-2.548-.094-6.766-2.881-5.011,1.536-3.954-.81-1.585.893c-5.092-1.708-10.542-2.156-10.542-2.156l.878,2.343,1.582,15.503-2.549,7.568,3.249,7.325-2.546,18.299,1.846,4.032c-1.142,5.134-.971,7.484-.971,7.484l-2.194,6.668,2.024,2.705-1.319,5.31,2.284,8.744c-.439,5.05-1.406,7.665-1.406,7.665l1.492,1.981-1.846,11.986,3.342-1.891,5.801,1.622,4.659-1.529,12.126-.905c5.097-.268,6.592,1.713,6.592,1.713l12.958.465Z" class="u"/><path d="M50.02 112.87c-.67-4.41-3.45-7.6-4.08-12.05-.61-4.24.05-8.75.56-13.18-4.66 7.93-2.14 17.47 2.29 24.63M100.06 76.42c.78 4.4 3.63 7.52 4.37 11.94.71 4.23.16 8.75-.25 13.19 4.47-8.05 1.72-17.52-2.88-24.57" class="t"/><path d="m51.242,95.643c0-13.997,11.022-25.343,24.621-25.343s24.622,11.346,24.622,25.343-11.025,25.34-24.622,25.34-24.621-11.346-24.621-25.34Z" class="h"/><path d="M75.79 68.29c-14.47 0-26.21 12.28-26.21 27.43s11.73 27.43 26.21 27.43 26.21-12.28 26.21-27.43-11.73-27.43-26.21-27.43Zm11.95 48.23c-.36.13-.72.23-1.1.29-1.9.26-3.61.85-5.45 1.21-4.88.93-8.47.45-13.15-.9-2.59-.74-3.53-1.34-5.15-3.21-1.63-1.89-3.88-2.78-5.77-4.42-.46-.39-.86-.84-1.23-1.3-2.08-3.64-3.28-7.9-3.28-12.45 0-13.4 10.38-24.27 23.18-24.27s23.19 10.87 23.19 24.27c0 8.83-4.51 16.55-11.24 20.79ZM73.51 58.07c-.28-1.87-1.46-3.22-1.73-5.11-.26-1.79.02-3.7.24-5.58-1.97 3.36-.91 7.4.97 10.43M86.49 36.96c1.62.98 3.41.94 5.03 1.93 1.55.95 2.84 2.38 4.14 3.75-1.32-3.66-5.11-5.42-8.65-5.92" class="t"/><path d="m74.199,51.138c0-5.926,4.67-10.731,10.429-10.731s10.429,4.805,10.429,10.731-4.668,10.737-10.429,10.737-10.429-4.809-10.429-10.737Z" class="h"/><path d="M84.6 39.55c-6.13 0-11.1 5.2-11.1 11.62s4.97 11.62 11.1 11.62 11.1-5.21 11.1-11.62-4.97-11.62-11.1-11.62Zm5.06 20.43c-.15.05-.3.1-.46.12-.81.11-1.53.36-2.31.51-2.07.39-3.59.19-5.57-.38-1.1-.31-1.5-.57-2.18-1.36-.69-.8-1.64-1.17-2.44-1.87-.2-.17-.37-.35-.52-.55-.88-1.54-1.39-3.34-1.39-5.27 0-5.68 4.4-10.28 9.82-10.28s9.82 4.6 9.82 10.28c0 3.74-1.91 7.01-4.76 8.81ZM35.34 99.5c-1.44.66-2.27 1.91-3.73 2.56-1.39.62-3 .83-4.57 1.08 3.17.83 6.19-.96 8.21-3.17M20.96 81.81c1.58-.19 2.74-1.15 4.33-1.33 1.52-.17 3.11.11 4.68.34-2.77-1.74-6.19-.94-8.78.56" class="t"/><path d="m29.537,100.387c-4.79,1.35-9.738-1.33-11.051-5.98-1.311-4.656,1.508-9.524,6.299-10.874,4.791-1.353,9.737,1.329,11.05,5.98,1.313,4.656-1.508,9.521-6.298,10.874Z" class="h"/><path d="M17.8 94.62c1.4 4.96 6.74 7.79 11.92 6.33 5.19-1.46 8.26-6.66 6.86-11.62-1.4-4.96-6.73-7.79-11.92-6.32-5.18 1.46-8.26 6.66-6.86 11.61Zm15.35-8.74c.08.11.15.22.21.35.27.63.64 1.15.93 1.75.79 1.58.98 2.86.97 4.59-.01.96-.12 1.34-.6 2.08-.49.74-.58 1.6-.96 2.4-.09.2-.2.38-.33.55-1.04 1.07-2.39 1.89-3.94 2.33-4.59 1.29-9.31-1.21-10.54-5.59-1.24-4.38 1.48-8.98 6.07-10.28 3.02-.85 6.1-.06 8.2 1.84ZM56.21 66.73c-3.06.31-5.35 2.12-8.43 2.4-2.94.27-6.02-.33-9.05-.83 5.3 3.47 11.95 2.06 17.03-.74M26.41 56.54c-.08-3.07-1.7-5.49-1.76-8.59-.05-2.95.79-5.98 1.51-8.96-3.86 5.02-2.95 11.76-.54 17.03" class="t"/><path d="m43.615,64.089c-9.568-1.197-16.379-9.706-15.216-19.003,1.163-9.296,9.865-15.863,19.435-14.664,9.564,1.2,16.38,9.708,15.212,19.003-1.163,9.296-9.865,15.865-19.431,14.664Z" class="h"/><path d="m27.015,44.96c-1.24,9.897,6.151,18.971,16.508,20.266,10.355,1.299,19.755-5.673,20.996-15.566,1.241-9.894-6.151-18.968-16.508-20.265-10.356-1.299-19.755,5.67-20.996,15.564Zm33.993-4.037c.054.256.096.514.101.78.015,1.326.275,2.54.356,3.829.221,3.418-.416,5.832-1.738,8.909-.73,1.708-1.218,2.303-2.639,3.253-1.432.95-2.234,2.412-3.517,3.563-.312.282-.648.52-.995.724-2.669,1.114-5.681,1.571-8.792,1.181-9.161-1.147-15.702-9.173-14.604-17.927,1.098-8.754,9.412-14.919,18.575-13.773,6.036.757,10.93,4.499,13.255,9.462Z" class="t"/><path d="M43.55 81.64c.48-3.92 0-5.82 0-5.82 1.63.8 4.91 1.46 4.91 1.46-3.08 2.68-4.91 4.36-4.91 4.36M66.75 66.77c-3.42-1.96-5.36-2.26-5.36-2.26 1.37-1.18 2.26-5.3 2.26-5.3 1.27 3.88 3.1 7.56 3.1 7.56M104.39 40.16l-.11-1.21.27-2.28c1.69 1.33 3.31 2.48 3.31 2.48-2.25.52-3.47 1.01-3.47 1.01Z" class="h"/><path d="m.43 109.77 1.19-1.96c.47-.63.02-1.06.02-1.06l-1.64-2.61.02-.14.99.28 1.98.36.59.18c.68-1.26 1.17-1.71 1.17-1.71l.63-1.13.11.07c.36 1.76.43 3.22.43 3.22l.05.13.45.16 2.34 1.73c.09.14-.09.21-.09.21-.94.45-2.39.97-2.39.97.09 1.62-.23 3.15-.23 3.15l-.43-.31-2.09-2.16c-2.07.23-3.11.63-3.11.63ZM65.66 28.64l.95-.32 2.95-1.49.68-.35.04.05c-.72 1.78-.7 4.03-.7 4.03l.08.55-.08.01-.7-.61c-.97-.32-1.85-.99-1.85-.99-.61-.59-1.37-.88-1.37-.88ZM85.97 29.5l.1-.99-.15-3.3-.05-.76.06-.03c1.33 1.39 3.39 2.29 3.39 2.29l.54.16-.02.08-.84.39c-.68.75-1.66 1.28-1.66 1.28-.78.31-1.36.89-1.36.89Z" class="t"/><path d="m14.871,120.284c-.166.411-.201.774-.201.774-.022,1.244.024,2.512.024,2.512l.045.112c.546.07,1.062-.036,1.062-.036l.473-.059c2.256.098,3.123-.201,3.123-.201l-.038.18-.93.435c-1.304.137-1.897.022-1.897.022l-2.277.492-.187-.134.198-.721-.039-1.087c.124-1.626.388-1.816.388-1.816.124-.274.028-.502.028-.502l.228.029Z" class="h"/><path d="m105.304,119.722l.372.925,1.667,2.853.4.654-.041.048c-1.825-.609-4.071-.45-4.071-.45l-.544.11-.018-.073.566-.739c.252-.984.876-1.909.876-1.909.549-.643.793-1.42.793-1.42Z" class="t"/><path d="m76.37 31.79 2.1 1.38.9.61.3.08-.08.22c-1.84 1.22-3.26 3.2-3.26 3.2l-.14.03v-1.13l.09-2.03c.21-1.51.09-2.36.09-2.36ZM102.74 107.15l2.1 1.37.9.61.29.09-.07.23c-1.84 1.21-3.26 3.19-3.26 3.19l-.13.03v-1.13l.09-2.03c.2-1.51.1-2.36.1-2.36ZM20.11 34.2l.44-.36h0l2.42-1.82.37-.26.13.04.23 1c.22 1.93.59 2.93.59 2.93l-.59-.27c-2.48-1.23-2.48-1.09-2.75-1.16-.63-.13-.83-.09-.83-.09Z" class="h"/><path d="m90.16 67.64.7-.53 2.02-2.07.46-.48.05.02c-.09 1.68.57 3.54.57 3.54l.22.44-.06.02-.75-.3c-.89.01-1.81-.3-1.81-.3-.67-.31-1.39-.34-1.39-.34ZM4.49 33.14l.86.5 3.07 1.22.71.28 0 .06c-1.81.64-3.49 2.15-3.49 2.15l-.36.42-.06-.05-.01-.93c-.41-.93-.48-2.04-.48-2.04.04-.84-.25-1.61-.25-1.61ZM30.11 117.21l.86.5 3.07 1.23.72.27 0 .06c-1.81.63-3.49 2.14-3.49 2.14l-.36.43-.06-.05-.01-.93c-.41-.93-.48-2.05-.48-2.05.04-.84-.25-1.61-.25-1.61Z" class="t"/><path d="m99.39 65.78 1.92.27 1.12.22 1.38.22-2.97 2.93c-.64-1.87-1.45-3.64-1.45-3.64ZM100.95 25.12l2.1 1.38.9.61.29.1-.07.22c-1.85 1.22-3.27 3.2-3.27 3.2l-.14.02v-1.13l.09-2.03c.2-1.51.09-2.37.09-2.37ZM21.3 112.56l-.72-1.8-.36-1.08-.49-1.31 4.01 1.12c-1.3 1.49-2.44 3.07-2.44 3.07Z" class="h"/><path d="m104.845,60.257c-1.084-1.722-.9-2.8-1.174-2.89-1.785-.595-4.323-.632-4.323-.632,1.957-1.258,3.875-2.121,3.875-2.121-.363-.785-.836-2.546-.836-2.546l2.612,1.828c1.94-.812,3.518-1.286,3.518-1.286l-1.263,2.702,1.42,2.258c-.878.045-2.816-.046-2.816-.046-.52,1.262-1.014,2.732-1.014,2.732Z" class="t"/><path d="M42.45 114.54c-3.12-2.42-5-2.99-5-2.99 1.52-.98 3.78-3.45 3.78-3.45.71 4.02 1.22 6.45 1.22 6.45M93.3 120.39l.86.5 3.07 1.23.71.27 0 .06c-1.81.64-3.49 2.14-3.49 2.14l-.36.42-.06-.05-.01-.93c-.4-.94-.48-2.05-.48-2.05.04-.84-.25-1.61-.25-1.61Z" class="h"/><path d="m49.468,124.138l.898-1.47c.354-.475.014-.796.014-.796l-1.235-1.965.017-.101.746.204,1.486.271.439.134c.509-.947.88-1.28.88-1.28l.473-.852.082.056c.27,1.322.323,2.417.323,2.417l.035.101.337.117,1.758,1.305c.067.103-.067.151-.067.151-.711.338-1.793.724-1.793.724.068,1.214-.17,2.37-.17,2.37l-.32-.242-1.573-1.622c-1.553.17-2.332.478-2.332.478Z" class="t"/><path d="m15.38 30.09-.18-.04-.41-.96c-.09-1.34.05-1.94.05-1.94l-.41-2.33.14-.18.73.23h1.11c1.65.19 1.83.46 1.83.46.28.14.51.05.51.05l2.2.46c.96.37 2.04-.02 2.04-.02l1.52.25 2.75-.04 1.43-.41 2.02-.37.9-.35.6.21.39.18.5.14.78.23 1.08.39-.39.02-1.31-.23-.62-.02-.28-.02-.91-.05c-.71.07-1.4.44-1.4.44l-1.54.19c-1.28.3-2.18.25-2.18.25l-1.33-.02-2.66-.51c-2.02.12-3.58-.07-3.58-.07-.42-.18-.78-.23-.78-.23-1.26-.07-2.59-.48-2.59-.48l-.11.05c-.09.55 0 1.08 0 1.08l.04.48c-.18 2.29.09 3.18.09 3.18ZM13.09 48.19c.48-3.92 0-5.82 0-5.82 1.62.79 4.91 1.45 4.91 1.45-3.08 2.68-4.91 4.36-4.91 4.36" class="h"/><path d="m19.06 70.58.89-1.47c.36-.47.02-.79.02-.79l-1.23-1.96.02-.1.75.2 1.49.27.44.13c.51-.94.88-1.28.88-1.28l.47-.85.08.05c.27 1.32.33 2.42.33 2.42l.03.11.34.12 1.76 1.3c.07.1-.07.15-.07.15-.71.34-1.79.73-1.79.73.07 1.22-.17 2.36-.17 2.36l-.32-.24-1.57-1.62c-1.56.17-2.33.47-2.33.47ZM27.32 86.64c2.79 1.47 4.8 3.32 4.07 4.74-.42.83-1.72 1.1-2.63.97l-.03.07c1.01.78 1.6 1.78 1.14 2.68-.8 1.57-3.87 1.49-7.22-.18l.82-1.81c.83.52 2.96 1.26 3.42.37.42-.83-1.14-1.73-1.62-1.97l.45-1.06c.51.27 2.08.83 2.53-.05.34-.66-1.03-1.61-1.96-2.09l1.05-1.66ZM89.78 48.31c-1.19.19-2.79.59-4.03 1.55 3.65 1.01 5.6 3.44 4.95 5.64-.75 2.57-3.79 3.73-7.3 2.76-1.4-.39-2.76-1.02-3.69-2.12-1.03-1.23-1.08-2.69-.76-3.84.98-3.51 5.47-6.53 9.57-7.31l1.26 3.33Zm-3.48 6.33c.35-1.25-.32-2.41-2.03-2.91-.44.46-.8 1.08-1.07 2.05-.25.91.16 1.83 1.12 2.1.84.24 1.71-.24 1.98-1.24ZM55.81 52.78l-2.93.3.1.73c.06.48.22 1.41.35 2.15l-5.7.77c-.07-.71-.07-1.56-.19-2.42l-.06-.46-8.68 1.18-1.22-2.13 9.98-15.14 3.4.21 1.57 11.56 3.07-.52.32 3.77Zm-9.39-7.15-.06.01c-.36.85-2.62 4.27-3.14 5.19l3.83-.52-.63-4.68ZM93.38 102.57c-.51.1-3.32 1.06-7.11 2.41-3.81 1.32-8.59 3.05-13.09 4.7l-1.47.55-1.07-1.06c1.93-3.34 8.41-12.85 6.58-17.8-1.77-4.8-8.25-3.37-11.91-2.15l-.97-6.55c13.13-3.72 19.86-1.17 21.59 3.53 2.08 5.64-2.49 11.12-3.77 12.93l.11.29 8.59-3.67 2.52 6.82ZM306.63 60.59l-.4 14.48.37 4.24-.78 4.41c.58 5.03 2.21 9.67 2.21 9.67-2.38 7.57-.69 11.04-.69 11.04l.68 4.69c-1.33 1.51-1.46 9.03-1.46 9.03.25 6.98 1.58 10.73 1.58 10.73l-9.24-.58-6.88-.34-.77.58-1.54.66-4.55-1.99-7.93.99-14.93-1.27-7.24-.15-3.73 2.47-19.48-3.38-13.91 3.61-3.3-1.59-6.03.71-12.24-.06-3.97 1.12c-9.65-4.19-15.36-.75-15.36-.75l-3.63-1.19-8.23 1.64-3.95-1.89-10.86 1.37-11.46-1.74s-4.91-1.18-5.61.3l-7 .91-8.01-1.94c-4.38.75-6.87 1.86-6.87 1.86l-.51-1.39-1.37-8.14c-.39-.7-1.51-2.42-1.51-2.42l1.61-3.98-.59-2.19c.24-3.5 1.1-5.54 1.1-5.54l.11-10.98-.47-5.65-1.46-1.15 1.98-9.37-.08-2.88 1.73-4.45-1.94-5.97c1.83-4.19 2.71-8.18 2.71-8.18l-.08-2.98-3.28-7.93 1.84-5.83-.9-4.63 1.07-1.84c-1.94-5.97-.06-10.74-.06-10.74l2.66-.25 2.89-1.05 8.91 1.63 12.81-1.75 9.42 2.51 16.43-1.18 9.33 1.29c7.34.22 14.89-2.4 14.89-2.4h0l10.59 2.84 2.85-1.28 18.9 1.58 4.43-1.55 7.46 2.19 14.57-2.42 10.16 2.76c5.89-.46 8.71-2.47 8.71-2.47l8.8 1.98.93-1.99 6.88 1.04 4.27-2.86 8.43 1.59 12.14-1.32-2.24 5.25 1.82 8.85-1.72 7.12.7 5.15-1.54 5.15c.08 5.46 1.82 8.2 1.82 8.2" class="t"/><path d="m315.655,71.742c-2.02-.397-3.27-.619-3.499-.447-1.512,1.132-2.532,2.976-2.532,2.976.076-2.332.461-4.397.461-4.397-.85-.152-2.571-.764-2.571-.764l2.999-1.118c.433-2.053.942-3.622.942-3.622l1.509,2.577,2.663.113c-.461.753-1.64,2.298-1.64,2.298.746,1.147,1.668,2.384,1.668,2.384Z" class="t"/><path d="M304.05 70.02c.1-5.42-.16-8.21-.16-8.21l-.23-1.9-.36-4.38.59 2.44c.04 1.9.45 2.66.45 2.66l.71 3.44c-.49 2.8-1 5.95-1 5.95ZM290.26 26.48l5.72-.71 3.66-.69c1.9-.05 3.09-.3 3.09-.3l-.34.9-.23 1.13s-.29 1.41-.3 1.52c-.01.12-.04 1.71-.04 1.71l.02.62.02.83.34 1.44-.03.15-1.02-2.77.06-1.77.06-.56.11-.75-.31-1.37-8.54.68-2.28-.05Z" class="h"/><path d="m221.592,29.216l.799-2.958c.369-.985-.366-1.371-.366-1.371l-3.074-2.739-.022-.183,1.378-.018,2.669-.275.819.011c.402-1.86.869-2.626.869-2.626l.391-1.681.171.048c1.115,2.124,1.741,3.973,1.741,3.973l.109.161.637.032,3.647,1.357c.168.14-.039.296-.039.296-1.048.928-2.705,2.127-2.705,2.127.715,2.043.88,4.122.88,4.122l-.668-.243-3.488-1.998c-2.577,1.059-3.748,1.966-3.748,1.966Z" class="t"/><path d="m225.465,22.382l-4.499,1.555,1.059.95s.735.386.366,1.371l-.799,2.958s1.171-.907,3.748-1.966l3.488,1.998.668.243s-.165-2.079-.88-4.122c0,0,.992-.715,1.928-1.476l-5.078-1.512Z" class="v"/><path d="M154.44 25.36c.95 0 5.54-.61 5.54-.61l3.25-.01-1.94.49c-1.18.18-6.85.14-6.85.14ZM183.59 25.49c-.63-.05-2.29.01-2.29.01.94-.08 3.14-.72 3.14-.72l4.67-.47 5.3 1.49-7.54-.77c-.59.03-2.67.51-3.27.46ZM305.8 126.77l.32.44c-1.02-.35-2.45-.48-2.45-.48-1.83-.28-6.86-.6-6.86-.6l4.08-.26 1.47-.11 1.26-.05.59-.13.03.06.01-1.41.05-1.61.52-5.79.31 7.31c.24 1.39.45 2.02.45 2.02l.22.6Z" class="h"/><path d="M22.03 1.8h-3.17V.13h9.5v1.67h-3.17v14.42h-3.17V1.8ZM50.75 1.8h-6.34v5.54h4.75v1.67h-4.75v5.55h6.34v1.66h-6.34c-1.75 0-3.17-.74-3.17-1.66V1.8c0-.92 1.41-1.67 3.17-1.67h6.34v1.67ZM67.23 8.18 63.68.13h3.21l1.62 4.12c.13.36.22.69.3 1.06h.09c.09-.37.17-.7.3-1.06l1.62-4.12h3.21l-3.55 8.04 3.55 8.04h-3.21l-1.62-4.12c-.13-.36-.21-.7-.3-1.06h-.08c-.08.36-.17.7-.3 1.06l-1.62 4.12h-3.21l3.55-8.04ZM87.73 2.5c0-1.37 2.14-2.5 4.75-2.5s4.75 1.13 4.75 2.5v13.72h-3.16v-7.21h-3.17v7.21h-3.16V2.5Zm3.17 4.84h3.17V1.8h-3.17v5.54ZM111.74 12.03h3.17v2.52h3.17v-5.55h-3.16c-1.75 0-3.17-.74-3.17-1.67V2.5c0-1.37 2.14-2.5 4.75-2.5s4.75 1.13 4.75 2.5v1.82h-3.17V1.8h-3.16v5.54h3.17c1.76 0 3.17.74 3.17 1.67v4.85c0 1.37-2.14 2.5-4.75 2.5s-4.75-1.13-4.75-2.5v-1.82ZM153.43.13h3.17v14.42h3.17v-3.34h3.17v5h-9.5V.13ZM176.64 2.5c0-1.37 2.14-2.5 4.75-2.5s4.75 1.13 4.75 2.5v11.36c0 1.37-2.14 2.5-4.75 2.5s-4.75-1.13-4.75-2.5V2.5Zm6.34-.7h-3.16v12.76h3.16V1.8ZM202.63 1.8h-3.17V.13h9.5v1.67h-3.16v14.42h-3.17V1.8ZM223.81 1.8h-3.16V.13h9.5v1.67h-3.17v14.42h-3.17V1.8ZM252.96 1.8h-6.33v5.54h4.75v1.67h-4.75v5.55h6.33v1.66h-6.33c-1.76 0-3.17-.74-3.17-1.66V1.8c0-.92 1.41-1.67 3.17-1.67h6.33v1.67ZM266.7.13h6.34c1.75 0 3.16.74 3.16 1.67v5.1c0 .76-.64 1.05-1.41 1.28.77.16 1.41.5 1.41 1.49v5.36c0 .45.34.79.77 1.19h-3.25c-.34-.33-.68-.79-.68-1.19v-6.02h-3.17v7.21h-3.17V.13Zm3.17 7.21h3.17V1.8h-3.17v5.54ZM293.87 9.04c-.98-.2-1.76-.52-2.31-.92-.56-.43-.85-.92-.85-1.44V.13h3.17v7.23h3.17V.13h3.16v6.54c0 .52-.29 1.01-.85 1.44-.55.4-1.32.72-2.31.93v7.18h-3.17v-7.18Z" class="t"/><path d="m223.372,103.322s-1.544.63-4.951.12l-1.987-.791-.658-.291-.13.509-.885,2.533-1.033,3.9-.135.908-.122.11-.664-.128-4.733-.9.043-.233s1.202-1.069,2.436-3.401c0,0-.117-5.187-.071-5.381.041-.198.004-.471.004-.471l-3.372-.235s-1.816.509-4.607.564c0,0-1.154.794-2.975,1.381l-4.304,2.577,3.932,3.307,5.201,2.635.625.249-2.153,1.367-1.198.912-5.125.706-.587-.089-.163.233s.383,2.25-.032,4.868l-5.298-1.85-6.404-.106s.542,1.622.935,4.239l1.794,1.762,1.631.242c-.224-.759-.529-1.706-.9-2.711,0,0,.387.169,1.333.035l1.565.191,3.442.784,2.897.386,1.213.221s.01-2.082-.423-5.43l.156-.077s1.097.028,4.066-.887c0,0,1.791-1.021,4.889-4.209l1.597.548,1.171.342,4.03.682,1.956.358.059-.904s.331-.541.26-2.7l.3-1.135.886-.924.77-1.042.279-.19s2.208,1.422,5.606,2.171c0,0-.578-2.135-.166-4.756Zm-17.009,5.265l-1.944-.91-.468-.166-3.457-1.85-.752-.351c4.38-1.917,7.733-4.279,7.733-4.279l.2.004.599,4.569-.644.768-1.267,2.213Z" class="r"/><path d="m189.049,125.279s-.164-1.017-.667-2.723l-1.627-.229-1.797-1.776c.137.929.26,2.001.334,3.187,0,0,.773.626,3.629,3.657,0,0-.055-.943.127-2.115Z" class="t"/><path d="m307.254,35.434c-2.778.362-6.333,1.165-10.102,2.911,0,0-2.076-1.118-5.388-1.808l-13.651,7.659-2.627-5.725-3.326,1.333,1.319,2.074s4.245,6.789,4.326,6.856c.087.057,8.864-5.906,13.517-10.418l2.836,2.042s-1.758,1.039-4.239,4.963l1.034,4.185,7.031-2.948,3.75-4.536s-1.417-1.962-3.026-2.796c0,0,3.284-.784,7.819-.766l.727-3.025Zm-10.013,9.953c-1.861.954-3.831,1.554-3.831,1.554-.221-3.012.321-3.001.321-3.001.598-1.99,1.383-2.841,1.383-2.841l3.585,2.563c-.743.619-1.459,1.726-1.459,1.726Z" class="r"/><path d="m312.969,35.245s-2.255-.25-5.701.189l-.74,3.025c2.546.011,5.483.268,8.456,1.058l-2.015-4.272Z" class="t"/><path d="m128.911,21.88c-.289,2.971-.528,6.448-.46,9.075l-3.321.693s.408-1.942-.764-6.299l-3.674-2.007-2.514,6.966.78,5.663s2.335.277,3.992-.327c0,0-3.905,6.977-10.908,11.447l4.379,1.367s5.42-4.723,8.178-13.35c0,0,2.165-.752,4.837-2.663l2.599-10.977-3.123.412Zm-9.131,10.841c.043-.942-.276-2.18-.276-2.18.538-1.958,1.409-3.76,1.409-3.76,2.298,1.823,1.935,2.198,1.935,2.198,1.029,1.738,1.121,2.864,1.121,2.864l-4.189.878Z" class="r"/><path d="m137.631,15.856s-7.643-1.425-7.746-1.408c-.057.011-.577,3.381-.977,7.446l3.117-.422.903-3.827,5.822,1.888,1.232-3.254-2.352-.422Z" class="t"/><path d="m167.97 37.77.91-1.49c.36-.48.02-.8.02-.8l-1.25-1.99.02-.11.76.21 1.51.27.44.14c.52-.95.89-1.3.89-1.3l.48-.86.09.05c.28 1.34.33 2.45.33 2.45l.03.1.34.12 1.78 1.32c.07.1-.07.15-.07.15-.72.35-1.82.74-1.82.74.07 1.23-.17 2.4-.17 2.4l-.33-.24-1.59-1.65c-1.58.17-2.37.48-2.37.48ZM244.67 123.95c-1.08-1.71-.9-2.79-1.17-2.87-1.79-.61-4.33-.65-4.33-.65 1.96-1.26 3.88-2.11 3.88-2.11-.37-.8-.84-2.55-.84-2.55l2.62 1.82c1.95-.81 3.52-1.28 3.52-1.28l-1.26 2.7 1.42 2.26c-.88.04-2.81-.05-2.81-.05-.52 1.26-1.02 2.73-1.02 2.73ZM281.61 35.27c-1.08-1.71-.89-2.79-1.16-2.87-1.79-.6-4.33-.64-4.33-.64 1.96-1.26 3.87-2.12 3.87-2.12-.36-.8-.83-2.54-.83-2.54l2.61 1.83c1.95-.81 3.52-1.28 3.52-1.28l-1.27 2.7 1.42 2.26c-.88.05-2.81-.05-2.81-.05-.52 1.26-1.02 2.72-1.02 2.72Z" class="v"/><path d="m297.392,111.706l-8.878-1.369-.263,2.298c-.168,1.513-.416,4.462-.59,6.776l-17.416-2.067c.335-2.213.967-4.797,1.269-7.496l.162-1.434-26.507-3.147-1.979-7.397,40.862-38.241,9.862,3.27-4.075,36.316,9.462.802-1.911,11.69Z" class="h"/><path d="m263.835,96.635l3.437-4.572c1.302-1.445.405-2.677.405-2.677l-2.468-6.386.313-.07,6.019,1.534,1.297.645c1.995-2.98,3.303-3.949,3.303-3.949l1.847-2.655.229.214c.26,4.576-.081,8.304-.081,8.304l.059.358.995.548,4.862,5.156c.171.377-.279.489-.279.489-2.35.83-5.88,1.67-5.88,1.67-.333,4.137-1.584,7.914-1.584,7.914l-.889-.94-4.147-6.165c-4.896-.112-7.439.581-7.439.581Z" class="t"/><path d="M139.62 35.26c.5-4.14 0-6.14 0-6.14 1.71.84 5.17 1.54 5.17 1.54-3.24 2.82-5.17 4.6-5.17 4.6M296.39 120.45c2.23-.42 3.19-1.01 3.19-1.01-.16 1.03.05 2.95.05 2.95-2.01-1.23-3.24-1.94-3.24-1.94M115.88 62.58c2.23-.42 3.19-1.01 3.19-1.01-.15 1.03.05 2.94.05 2.94-2-1.22-3.24-1.93-3.24-1.93M124.65 82.89c-2.23-1.28-3.5-1.48-3.5-1.48.89-.77 1.47-3.45 1.47-3.45.83 2.53 2.02 4.93 2.02 4.93M254.22 29.14l2.21 1.45.95.64.31.09-.07.24c-1.95 1.29-3.44 3.38-3.44 3.38l-.15.02v-1.19l.09-2.14c.22-1.59.1-2.49.1-2.49ZM236.76 93.2l-.26 2.63-.13 1.14.06.31-.24.05c-2.04-1.13-4.59-1.49-4.59-1.49l-.09-.11 1.05-.55 1.94-.91c1.51-.55 2.26-1.06 2.26-1.06ZM171.57 103.18l-.26 2.63-.13 1.14.06.32-.24.05c-2.04-1.13-4.59-1.5-4.59-1.5l-.09-.11 1.05-.55 1.94-.9c1.51-.55 2.26-1.06 2.26-1.06ZM272.22 57.04l.47-.38h0l2.55-1.92.38-.28.14.05.24 1.05c.24 2.05.62 3.09.62 3.09l-.62-.29c-2.61-1.29-2.61-1.15-2.9-1.21-.67-.14-.88-.09-.88-.09ZM147.48 44.21l.41-.33h0l2.23-1.68.34-.25.12.03.21.92c.21 1.79.54 2.71.54 2.71l-.54-.25c-2.29-1.13-2.29-1.01-2.54-1.06-.59-.12-.77-.08-.77-.08ZM219.52 115.46l2.03.29 1.18.23 1.46.23-3.13 3.09c-.68-1.97-1.53-3.84-1.53-3.84ZM204.59 31.27l-.76-1.89-.37-1.15-.52-1.37 4.23 1.19c-1.37 1.57-2.57 3.23-2.57 3.23ZM296.53 88.07c.31-2.54 0-3.76 0-3.76 1.05.51 3.18.95 3.18.95-1.99 1.72-3.17 2.82-3.17 2.82" class="u"/><path d="M126.21 105.74c-.09-.54-.28-1.06-.62-1.49-1.88-2.46-5.99-1.87-7.26-2.54-.51-.28-.88-.72-.97-1.25-.08-.44.06-.95.51-1.42.47-.5 1.18-.94 1.92-1.05.16-.02.36-.02.52-.02-.72.38-1.03 1.04-.93 1.66.06.36.29.72.63.97.61.46 1.36.77 2.12.66.48-.07 1-.3 1.44-.82.29-.38.47-.89.37-1.43-.1-.59-.5-1.17-1.2-1.43-.88-.32-1.74-.38-2.58-.25-.32.05-.63.13-.94.22-.19-1.28-.37-3.6-.54-4.69-.4-.26-1.19.16-1.69.29.62 2 1.17 3.61 1.5 4.67-.61.27-1.16.61-1.63.98-1.31.99-2.16 2.86-1.87 4.51.1.6.37 1.17.81 1.65 1.78 1.9 5.47.97 6.96 2.34.35.31.71.83.82 1.46.14.83-.11 1.81-1.27 2.69-.47.34-1.33.66-2.23.79-1.47.22-3.06.01-3.27-1.22.56.56 1.43.82 2.23.71.52-.08 1-.3 1.38-.76.38-.45.51-1.02.41-1.62-.17-.98-1.03-1.95-2.55-1.99-.17-.01-.33-.01-.52.02-1.35.2-2.78 1.39-2.5 3.02.06.33.18.68.41 1.04.7 1.21 2.76 1.65 4.81 1.35.45-.06.91-.17 1.34-.32.21 1.2.42 3.84.6 5.04.4.26 1.19-.16 1.69-.29-.68-2.22-1.29-3.95-1.58-5.02.64-.27 1.23-.63 1.71-1.07 1.33-1.2 2.31-3.52 1.98-5.38ZM266.5 67.28c.08-.38.09-.76-.02-1.13-.59-2.09-3.42-2.77-4.08-3.53-.26-.32-.39-.7-.31-1.07.06-.31.29-.6.7-.8.44-.2 1.01-.31 1.53-.18.11.02.24.08.34.12-.57.07-.94.42-1.03.85-.05.25.01.54.16.8.28.46.68.85 1.22.98.33.08.73.06 1.15-.17.29-.17.53-.46.62-.83.09-.41-.02-.9-.42-1.25-.49-.44-1.04-.7-1.62-.83-.22-.05-.44-.08-.66-.1.2-.89.69-2.45.86-3.21-.19-.27-.82-.2-1.18-.24-.12 1.46-.17 2.66-.23 3.43-.47.02-.92.1-1.32.22-1.1.3-2.15 1.3-2.39 2.46-.09.42-.06.86.1 1.28.67 1.7 3.32 2.05 3.94 3.32.15.3.24.73.15 1.16-.12.58-.54 1.16-1.53 1.42-.39.1-1.03.09-1.66-.05-1.02-.24-1.99-.79-1.82-1.64.22.51.72.9 1.27 1.03.35.08.73.07 1.1-.13.37-.2.6-.54.68-.95.14-.68-.17-1.53-1.15-1.96-.11-.04-.21-.09-.35-.12-.93-.22-2.17.19-2.41 1.33-.04.23-.05.49 0 .78.14.97 1.37 1.8 2.79 2.12.31.08.63.12.96.14-.17.84-.72 2.61-.91 3.45.19.27.82.2 1.18.24.13-1.62.18-2.91.26-3.68.49-.02.96-.1 1.39-.26 1.19-.44 2.42-1.7 2.69-3Z" class="v"/><path d="M152.68 64.59c.31 9.73.47 14.59.78 24.32.18 4.97-.78 8.32-2.88 9.94-2.1 1.62-6.37 2.6-12.87 1.65-3.59-.51-5.38-.89-9-1.97-.31-4.82-.46-7.23-.77-12.05 1.36.32 2.04.46 3.39.7-.49-8.3-.74-12.46-1.23-20.76-1.35-.29-2.03-.46-3.4-.84-.69-6.68-1.03-10.03-1.73-16.71 4.27 1.27 6.39 1.69 10.62 2.17 1.17.12 2.25.22 3.24.35 5.02.62 8.53 1.54 10.56 3.45 2.04 1.91 3.13 5.14 3.29 9.77Zm-7.83 11.48c-.14-2.67-1.57-4.06-4.3-4.42-1.79-.26-2.69-.42-4.49-.8.49 8.19.73 12.28 1.22 20.47 1.69.22 2.53.31 4.21.42 1.81.12 3.01-.11 3.45-.6.37-.4.52-1.46.48-3.05-.23-4.8-.34-7.2-.58-12.01ZM184.18 90.24c-4.44.91-6.66 1.34-11.11 2.05-.48-3.76-.73-5.64-1.21-9.4 1.07-.22 1.6-.34 2.68-.58-.37-2.5-.55-3.74-.91-6.24-2.5.55-3.75.8-6.25 1.25-.14 4.1-.21 6.15-.36 10.25 1.1-.19 1.65-.29 2.75-.5.29 3.62.44 5.43.74 9.05-5.63 1.32-8.45 1.88-14.12 2.5v-9.69c.92-.07 1.39-.11 2.31-.21.84-10.11 1.68-20.22 2.51-30.33-1.02.14-1.54.21-2.56.33-.39-4.48-.59-6.72-.99-11.21 8.44-.31 12.63-.99 21.02-2.45.18 4.3.27 6.44.44 10.73-1.02.25-1.53.38-2.55.62 1.62 8.1 3.22 16.2 4.84 24.29.89-.22 1.34-.33 2.22-.57.22 4.05.32 6.08.54 10.12Zm-11.71-20.1c-1.12-4.17-1.69-6.26-2.81-10.45-.61 4.54-.91 6.8-1.52 11.32 1.73-.32 2.6-.5 4.33-.87ZM200.87 54.14c-1.49.57-2.23.85-3.72 1.43.32 8.39.48 12.58.79 20.96 1.05-.18 1.57-.27 2.62-.45.55 4.91.82 7.36 1.36 12.27-5.96 1.77-8.94 2.75-14.9 4.59 0-5.7.01-8.55.01-14.26 1.22-.32 1.83-.48 3.05-.8-.26-9.28-.39-13.91-.65-23.19-1.62.57-2.43.86-4.05 1.42-.05-4.35-.08-6.53-.13-10.89 5.65-1.91 8.47-2.92 14.12-4.75.6 5.46.9 8.19 1.5 13.66ZM228.84 61.52c.26 8.22.39 12.34.65 20.57-9.51.19-14.22 1.07-23.62 3.05-.43-6.12-.64-9.18-1.07-15.29 1.22-.29 1.83-.43 3.06-.69-.36-8.25-.55-12.37-.9-20.62-1.06.31-1.6.48-2.67.81-.42-5.4-.62-8.09-1.04-13.47 5.95-1.6 8.93-2.35 14.91-3.35.08 4.83.12 7.24.2 12.06-1.83.47-2.75.73-4.58 1.27.58 8.43 1.16 16.85 1.74 25.28 3.01-.65 4.52-.93 7.53-1.39-.13-2.87-.19-4.31-.32-7.17 2.45-.51 3.68-.72 6.13-1.06ZM253.34 38.6c-.06 5.07-.09 7.61-.16 12.69-1.02-.21-1.53-.3-2.54-.46-2.43 4.76-3.64 7.22-6.05 12.29.12 3.58.17 5.37.28 8.95 1.36.3 2.04.46 3.4.84-.16 5.17-.25 7.77-.4 12.95-5.3-.78-7.94-.85-13.18-.6-.47-4.94-.7-7.41-1.17-12.36 1.59-.12 2.39-.16 3.99-.19-.1-4.28-.14-6.42-.24-10.71-2.8-5.06-4.19-7.54-6.98-12.39-1 .15-1.5.24-2.49.42-.49-5.33-.73-7.99-1.22-13.32 4.93-.34 7.41-.36 12.38.1.41 4.37.62 6.56 1.03 10.94-1.03-.04-1.55-.05-2.58-.05 1.67 4.19 2.5 6.31 4.18 10.58 1.04-3.76 1.56-5.62 2.6-9.33-.94-.18-1.41-.26-2.34-.39-.29-5.31-.43-7.97-.71-13.28 4.87.84 7.31 1.47 12.23 3.33Z" class="h"/><path d="M235.32 137.61H245.97V148.45H235.32z" class="h" transform="rotate(-175 240.64 143.03)"/><path d="m257.326,151.482c-1.841,0-3.533-.412-5.039-1.226-5.08-.515-9.443-3.706-11.467-8.425-2.013-4.696-1.323-10.053,1.784-14.082,1.149-3.246,3.626-5.809,7.179-7.434,2.05-.938,4.113-1.374,6.493-1.374.823,0,1.696.05,2.746.156.555.056,1.095.144,1.62.229.648.106,1.26.207,1.756.207.621,0,1.031-.13,1.551-.837.408-.556,1.052-.872,1.721-.872.175,0,.352.021.526.066.843.214,1.472.919,1.589,1.782.263,1.936.007,3.352-.631,4.634.262.004.519.007.772.007,4.953,0,7.779-.839,11.262-2.387.277-.123.573-.184.867-.184.412,0,.822.12,1.177.354.608.402.969,1.086.958,1.814-.021,1.266-.511,2.151-.836,2.736-1.127,2.032-3.079,4.412-5.08,6.223.289.178.573.366.861.555.221.146.454.299.704.459.745.475,1.121,1.36.944,2.227-.177.866-.869,1.534-1.741,1.679-1.602.267-2.144.948-3.04,2.077-.593.745-1.313,1.651-2.411,2.382.04.354-.009.719-.152,1.061-1.36,3.254-7.685,8.174-14.113,8.174h0Z" style="fill-rule:evenodd;fill:#fff"/><path d="m265.671,119.959c.361,2.66-.417,3.84-2.594,6.27,1.809.148,3.409.218,4.85.218,5.385,0,8.556-.983,12.13-2.571-.013.751-.31,1.268-.591,1.774-1.083,1.954-3.106,4.338-5.009,5.977-1.209,1.041-1.518,1.137-2.948,2.139.231-.022.448-.032.654-.032,1.837,0,2.783.833,4.531,1.948-3.957.659-4.05,3.545-6.606,4.986-1.575.888-2.587,1.263-4.408,1.263-.117,0-.237-.002-.361-.005.761.691,1.425.956,2.176.956.58,0,1.212-.158,1.977-.399-1.08,2.583-6.777,6.863-12.145,6.863-1.527,0-3.028-.347-4.388-1.177-4.322-.282-8.333-2.926-10.155-7.179-1.807-4.216-.984-8.898,1.735-12.217.018-.065.036-.125.053-.178,1.039-3.086,3.379-5.094,6.1-6.339,1.942-.888,3.739-1.181,5.605-1.181.824,0,1.662.057,2.532.145,1.278.13,2.477.447,3.59.447,1.191,0,2.284-.363,3.272-1.709m-7.527,26.905s-.005.002-.008.003c.003-.001.005-.002.008-.003.023-.01.047-.019.07-.029.012-.005.024-.011.036-.016-.035.015-.07.03-.106.045m7.527-31.175c-1.323,0-2.595.617-3.413,1.705-.324-.019-.785-.095-1.269-.174-.52-.085-1.11-.182-1.749-.247-1.124-.114-2.066-.167-2.963-.167-2.697,0-5.042.498-7.381,1.568-3.981,1.82-6.8,4.698-8.186,8.343-3.406,4.61-4.125,10.648-1.851,15.955,2.275,5.309,7.121,8.94,12.797,9.661,1.72.852,3.623,1.283,5.671,1.283,6.824,0,14.249-5.099,16.083-9.485.104-.248.183-.503.238-.76.891-.748,1.522-1.542,2.026-2.177.837-1.053.954-1.173,1.721-1.3,1.744-.29,3.128-1.626,3.481-3.358.301-1.473-.198-2.975-1.271-3.975,1.447-1.576,2.745-3.308,3.594-4.841.396-.714,1.095-1.974,1.125-3.772.024-1.458-.697-2.827-1.912-3.631-.71-.47-1.531-.709-2.357-.709-.588,0-1.179.122-1.733.368-2.704,1.201-4.979,1.94-8.353,2.145.084-.826.068-1.73-.069-2.735-.234-1.724-1.491-3.134-3.178-3.563-.349-.089-.703-.132-1.052-.132h0Z" class="h"/><ellipse cx="225.6" cy="140.7" class="h" rx="8.02" ry="6.57" transform="rotate(-79 225.6 140.7)"/><ellipse cx="222.68" cy="131.9" class="h" rx="3.47" ry="6.14" transform="rotate(-11 222.68 131.9)"/><ellipse cx="230.03" cy="131.7" class="h" rx="6.14" ry="3.47" transform="rotate(-71 230.03 131.7)"/><ellipse cx="120.24" cy="147.25" class="h" rx="4.08" ry="4.89" transform="rotate(-57 120.24 147.25)"/><ellipse cx="115.31" cy="151.99" class="h" rx="4.89" ry="3.47" transform="rotate(-20 115.3 152)"/><ellipse cx="124.67" cy="151.99" class="h" rx="3.47" ry="4.89" transform="rotate(-70 124.67 152)"/><ellipse cx="159.24" cy="118.66" rx="7.37" ry="9.53" style="stroke:#fff;stroke-width:1.511px;stroke-miterlimit:10;fill:#fff" transform="rotate(-85 159.24 118.66)"/><ellipse cx="147.28" cy="121.97" rx="7.93" ry="13.53" style="stroke-width:1.712px;stroke:#fff;stroke-miterlimit:10;fill:#fff" transform="rotate(-76 147.28 121.97)"/><path d="m130.52 125.79 1.97-10.33c.21-1.17.45-2.81.57-3.86h2.96l-.14 1.38h.04c.74-.99 1.83-1.52 2.9-1.52 2.12 0 3 1.72 3 3.72 0 3.47-2.13 6.8-5.5 6.8-.64 0-1.27-.14-1.6-.35h-.04l-.8 4.17h-3.35Zm4.64-6.69c.25.23.53.37.97.37 1.29 0 2.2-2.3 2.2-3.94 0-.66-.21-1.31-.92-1.31-.86 0-1.56 1-1.81 2.42l-.43 2.46ZM142.41 121.76l2.75-14.47h3.37l-2.75 14.48h-3.37ZM158.74 111.66l-1.27 6.73c-.25 1.25-.41 2.4-.55 3.37h-2.94l.12-1.44-.04-.02c-.98 1.21-2.09 1.66-3.2 1.66-1.64 0-2.38-1.03-2.38-2.67 0-.61.08-1.29.23-2.05l1.07-5.58h3.35l-1.01 5.36c-.1.49-.16 1.01-.16 1.4 0 .45.18.84.7.84.78 0 1.5-.97 1.83-2.71l.93-4.89h3.35ZM159.5 118.89c.56.29 1.52.66 2.46.64.68 0 .99-.31.99-.7s-.29-.68-1.13-1.13c-1.11-.61-1.97-1.46-1.97-2.65 0-2.13 1.85-3.59 4.54-3.59 1.19 0 2.08.23 2.57.49l-.74 2.34c-.41-.19-1.07-.39-1.87-.39-.68 0-1.13.25-1.13.72 0 .31.33.6 1.03.95 1.15.66 2.16 1.5 2.16 2.77 0 2.34-1.93 3.64-4.7 3.62-1.25-.02-2.42-.33-3-.72l.8-2.34Z" class="k"/><ellipse cx="150.13" cy="125.37" class="h" rx="2.9" ry="13.1" transform="rotate(-89 150.13 125.37)"/><path d="m108.74,153.947c-.509,0-.991-.228-1.315-.619-.324-.392-.457-.907-.362-1.407l4.383-23.082c.153-.806.857-1.389,1.678-1.389h13.082c.512,0,.997.229,1.321.625s.454.916.354,1.417l-.959,4.793c-.16.798-.86,1.373-1.674,1.373h-5.994l-.247,1.243h4.94c.508,0,.99.227,1.314.618.325.391.458.907.364,1.406l-.891,4.727c-.152.807-.857,1.391-1.678,1.391h-5.576l-1.446,7.519c-.154.805-.858,1.386-1.677,1.386h-5.616Z" class="h"/><path d="m126.206,129.157l-.96,4.793h-7.396l-.925,4.658h7.02l-.891,4.726h-6.987l-1.712,8.904h-5.616l4.384-23.081h13.082m-2.26,9.451h.005m2.255-12.866h-13.082c-1.64,0-3.049,1.166-3.355,2.778l-4.384,23.081c-.19,1,.076,2.032.725,2.815.649.784,1.613,1.237,2.631,1.237h5.616c1.638,0,3.045-1.162,3.354-2.77l1.179-6.134h4.165c1.642,0,3.052-1.169,3.356-2.783l.864-4.584c.058-.249.088-.508.088-.775,0-.611-.16-1.185-.441-1.682.844-.475,1.472-1.302,1.673-2.306l.96-4.793c.201-1.003-.059-2.044-.707-2.835-.649-.791-1.618-1.25-2.641-1.25h0Zm0,6.831h.005-.005Z" class="h"/><path d="m125.517,153.947c-.509,0-.991-.228-1.315-.619-.324-.392-.457-.907-.362-1.407l4.383-23.082c.153-.806.857-1.389,1.678-1.389h5.618c.509,0,.991.227,1.315.619.324.392.457.908.362,1.408l-4.384,23.081c-.153.806-.857,1.39-1.678,1.39h-5.617Z" class="h"/><path d="m135.518,129.157l-4.384,23.081h-5.617l4.384-23.081h5.617m0-3.415h-5.617c-1.64,0-3.049,1.166-3.355,2.778l-4.384,23.081c-.19,1,.076,2.032.725,2.815.649.784,1.613,1.237,2.631,1.237h5.617c1.64,0,3.049-1.166,3.355-2.778l4.384-23.081c.19-1-.076-2.032-.725-2.815-.649-.784-1.613-1.237-2.631-1.237h0Zm0,6.831h.005-.005Z" class="h"/><path d="m146.509,153.947c-.774,0-1.452-.521-1.651-1.271-.282-1.065-.498-4.057-.602-5.745-.064-1.229-.258-1.603-.315-1.688l-1.372,7.31c-.151.808-.856,1.394-1.678,1.394h-5.514c-.509,0-.991-.228-1.316-.619-.324-.393-.457-.909-.361-1.408l4.315-22.637c.126-.663.63-1.188,1.287-1.343,1.698-.398,4.087-.627,6.554-.627,3.156,0,5.388.518,7.022,1.63,2.089,1.261,3.282,3.385,3.282,5.933,0,3.048-1.398,5.554-3.911,7.139.569,1.077.779,2.334.889,3.45.072.7.136,1.501.2,2.3.107,1.344.27,3.376.445,3.854.192.523.122,1.124-.197,1.582-.319.457-.836.746-1.394.746h-5.684Zm-1.056-16.422c.898-.206,1.505-.912,1.505-1.828,0-.389-.335-.586-.997-.586h-.065l-.443,2.414Z" class="h"/><path d="m145.856,129.02c2.125,0,4.452.239,6.062,1.334,1.473.891,2.534,2.364,2.534,4.521,0,3.426-2.123,5.582-4.965,6.575v.104c1.232.617,1.747,1.986,1.951,4.076.241,2.327.378,5.649.754,6.609h-5.684c-.172-.65-.378-2.636-.548-5.412-.137-2.637-.891-3.355-2.499-3.355h-.925l-1.645,8.767h-5.514l4.315-22.637c1.61-.378,3.905-.582,6.164-.582m-2.464,10.273h1.506c2.157,0,3.767-1.575,3.767-3.596,0-1.404-1.095-2.294-2.705-2.294-.685,0-1.165.033-1.506.102l-1.062,5.788m2.464-13.689c-2.593,0-5.124.245-6.944.672-1.313.308-2.322,1.36-2.575,2.685l-4.315,22.637c-.191,1,.075,2.033.723,2.817.649.784,1.614,1.238,2.631,1.238h5.514c1.15,0,2.187-.573,2.809-1.472.624.902,1.664,1.472,2.809,1.472h5.684c1.129,0,2.185-.558,2.821-1.491.618-.906.762-2.052.392-3.081-.132-.536-.272-2.287-.365-3.454-.065-.814-.13-1.628-.205-2.35-.057-.586-.155-1.593-.501-2.685,2.262-1.902,3.534-4.603,3.534-7.719,0-3.138-1.457-5.761-4.106-7.396-2.526-1.678-5.716-1.874-7.906-1.874h0Z" class="h"/><path d="m154.928,153.947c-.509,0-.991-.228-1.315-.619-.324-.392-.457-.907-.362-1.407l4.383-23.082c.153-.806.857-1.389,1.678-1.389h13.185c.512,0,.996.229,1.32.625.324.396.454.916.354,1.417l-.958,4.793c-.16.798-.86,1.373-1.675,1.373h-6.103l-.133.661h5.105c.511,0,.994.228,1.318.622s.455.913.357,1.414l-.925,4.726c-.157.801-.859,1.379-1.676,1.379h-5.722l-.246,1.243h5.968c.509,0,.992.227,1.316.62.324.392.456.909.36,1.409l-.925,4.829c-.153.805-.857,1.387-1.677,1.387h-13.63Z" class="h"/><path d="m172.495,129.157h.005m-.005,0l-.958,4.793h-7.5l-.823,4.076h7.192l-.925,4.726h-7.124l-.925,4.658h8.048l-.925,4.828h-13.63l4.384-23.081h13.184m-3.013,18.253h.005m3.013-21.668h-13.189c-1.64,0-3.049,1.166-3.355,2.778l-4.384,23.081c-.19,1,.076,2.032.725,2.815.649.784,1.613,1.237,2.631,1.237h13.63c1.639,0,3.046-1.164,3.354-2.773l.897-4.686c.059-.252.091-.514.091-.784,0-.901-.348-1.72-.918-2.331.423-.454.726-1.027.852-1.671l.925-4.726c.131-.672.057-1.359-.202-1.977.669-.491,1.158-1.223,1.33-2.085l.93-4.651c.063-.26.097-.532.097-.811,0-1.886-1.527-3.415-3.413-3.415h0Zm-.005,6.831h.005-.005Z" class="h"/><path d="m177.8,154.084c-2.639,0-4.703-.15-6.135-.447-.912-.188-1.505-1.074-1.331-1.99l4.247-22.397c.128-.676.649-1.208,1.322-1.352,1.769-.376,4.023-.584,6.349-.584,2.223,0,4.568.178,6.673,1.459,2.189,1.189,3.495,3.339,3.495,5.762,0,2.323-1.052,4.349-2.868,5.72,1.151,1.238,1.806,2.922,1.806,4.828,0,2.674-1.346,5.071-3.788,6.749-2.247,1.537-5.351,2.253-9.77,2.253Zm2.435-7.806c.738-.093,1.885-.404,1.885-1.437,0-.402,0-.854-1.436-.921l-.449,2.358Zm1.97-9.939c.581-.112,1.148-.37,1.148-.949,0-.145,0-.416-.793-.416-.034,0-.066,0-.099,0l-.257,1.364Z" class="h"/><path d="m182.252,129.02c2.329,0,4.213.239,5.821,1.232,1.541.823,2.638,2.329,2.638,4.282,0,2.876-2.055,4.76-4.452,5.479v.104c2.225.752,3.39,2.67,3.39,4.965,0,2.362-1.302,4.143-3.048,5.342-1.953,1.336-4.83,1.953-8.802,1.953-2.74,0-4.623-.171-5.788-.411l4.246-22.398c1.61-.343,3.768-.547,5.994-.547m-2.123,9.108h1.13c2.397,0,3.802-1.062,3.802-2.738,0-1.302-.96-2.123-2.501-2.123-.65,0-1.197.033-1.54.137l-.891,4.725m-.48,9.897c2.26,0,4.178-1.095,4.178-3.185,0-1.986-1.471-2.637-3.528-2.637h-1.026l-1.097,5.753c.446.069.891.069,1.473.069m2.603-22.421c-2.441,0-4.822.221-6.705.622-1.346.286-2.388,1.352-2.644,2.704l-4.246,22.398c-.347,1.832.839,3.604,2.664,3.981,1.548.32,3.728.482,6.479.482,4.779,0,8.188-.81,10.731-2.549,2.926-2.01,4.535-4.906,4.535-8.16,0-1.723-.435-3.303-1.228-4.629,1.457-1.602,2.29-3.664,2.29-5.918,0-3.047-1.624-5.746-4.35-7.243-2.462-1.484-5.182-1.686-7.525-1.686h0Z" class="h"/><path d="m203.309,153.947c-.926,0-1.683-.738-1.707-1.663l-.093-3.543h-2.627l-1.658,4.134c-.26.647-.888,1.072-1.585,1.072h-5.856c-.58,0-1.12-.295-1.435-.782s-.36-1.102-.121-1.63l10.445-23.082c.276-.611.885-1.003,1.556-1.003h7.122c.894,0,1.636.688,1.703,1.579l1.747,23.082c.035.474-.128.941-.451,1.29s-.776.547-1.252.547h-5.788Z" class="h"/><path d="m207.35,129.157l1.747,23.081h-5.788l-.137-5.206h-5.445l-2.088,5.206h-5.856l10.446-23.081h7.122m-8.115,13.697h3.835l-.104-4.384c-.067-1.301-.067-3.459-.102-4.965h-.069c-.582,1.506-1.267,3.698-1.816,4.965l-1.745,4.384m8.115-17.113h-7.122c-1.341,0-2.558.785-3.111,2.007l-10.446,23.081c-.478,1.057-.387,2.285.242,3.259.629.975,1.71,1.564,2.87,1.564h5.856c1.395,0,2.65-.849,3.17-2.144l1.049-2.615.038,1.433c.049,1.851,1.563,3.325,3.414,3.325h5.788c.951,0,1.858-.396,2.504-1.093.646-.697.973-1.632.901-2.58l-1.747-23.081c-.135-1.781-1.619-3.158-3.406-3.158h0Z" class="h"/><path d="m211.387,153.947c-.509,0-.991-.228-1.315-.619s-.457-.908-.362-1.407l4.384-23.082c.153-.806.857-1.389,1.678-1.389h5.616c.509,0,.991.227,1.315.619s.457.908.362,1.408l-3.073,16.158h5.608c.509,0,.99.227,1.314.618.325.392.458.907.363,1.407l-.925,4.896c-.152.807-.856,1.392-1.678,1.392h-13.288Z" class="h"/><path d="m221.387,129.157l-3.459,18.185h7.672l-.925,4.897h-13.288l4.384-23.081h5.616m4.213,18.185h.005m-4.218-21.6h-5.616c-1.64,0-3.049,1.166-3.355,2.778l-4.384,23.081c-.19,1,.076,2.032.725,2.815.649.784,1.613,1.237,2.631,1.237h13.288c1.642,0,3.051-1.168,3.356-2.782l.898-4.755c.058-.249.089-.509.089-.776,0-1.886-1.527-3.415-3.413-3.415h-3.551l2.688-14.131c.19-1-.075-2.032-.724-2.816-.649-.784-1.613-1.238-2.631-1.238h0Zm0,6.831h.005-.005Z" class="h"/><path d="m227.275,153.947c-.509,0-.991-.228-1.315-.619s-.457-.908-.362-1.407l4.384-23.082c.153-.806.857-1.389,1.678-1.389h5.615c.509,0,.991.227,1.315.619s.457.908.362,1.408l-3.073,16.158h5.609c.509,0,.99.227,1.314.618.325.392.458.907.363,1.407l-.925,4.896c-.152.807-.856,1.392-1.678,1.392h-13.288Z" class="h"/><path d="m237.274,129.157l-3.459,18.185h7.672l-.924,4.897h-13.288l4.384-23.081h5.616m4.213,18.185h.005m-4.218-21.6h-5.616c-1.64,0-3.049,1.166-3.355,2.778l-4.384,23.081c-.19,1,.076,2.032.725,2.815.649.784,1.613,1.237,2.631,1.237h13.288c1.642,0,3.051-1.168,3.356-2.782l.898-4.755c.058-.249.089-.509.089-.776,0-1.886-1.527-3.415-3.413-3.415h-3.551l2.688-14.131c.19-1-.075-2.032-.724-2.816-.649-.784-1.613-1.238-2.631-1.238h0Zm0,6.831h.005-.005Z" class="h"/><path d="M108.51 152.57 112.96 129.1 126.44 129.1 125.4 134.28 118.01 134.28 117.16 138.55 124.18 138.55 123.21 143.67 116.23 143.67 114.52 152.57 108.51 152.57z" class="q"/><path d="m126.21 129.29-.96 4.79h-7.4l-.92 4.66h7.02l-.89 4.73h-6.99l-1.71 8.9h-5.62l4.38-23.08h13.08m.47-.39h-13.87l-.06.31-4.38 23.08-.09.46h6.4l.06-.31 1.65-8.59h6.99l.06-.31.89-4.73.09-.46h-7.01l.77-3.89h7.4l.06-.31.96-4.79.09-.46h0ZM125.28 152.57 129.74 129.1 135.75 129.1 131.29 152.57 125.28 152.57z" class="q"/><path d="m135.52 129.29-4.38 23.08h-5.62l4.38-23.08h5.62m.47-.39h-6.4l-.06.31-4.38 23.08-.09.46h6.4l.06-.31 4.38-23.08.09-.46h0ZM146.36 152.57l-.04-.14c-.18-.68-.39-2.71-.55-5.45-.14-2.67-.92-3.17-2.31-3.17h-.76l-1.64 8.77h-5.91l4.38-22.99.12-.03c1.59-.37 3.85-.59 6.21-.59 2.84 0 4.8.44 6.17 1.37 1.19.72 2.62 2.12 2.62 4.68 0 3.12-1.7 5.47-4.81 6.65 1.04.66 1.58 1.9 1.8 4.08.07.7.14 1.49.2 2.27.14 1.79.29 3.64.54 4.28l.1.26h-6.11Zm-1.46-13.33c2.04 0 3.57-1.46 3.57-3.4 0-1.28-.99-2.1-2.51-2.1-.59 0-1.02.02-1.34.08l-1 5.43h1.27Z" class="q"/><path d="M145.86 129.16c2.13 0 4.45.24 6.06 1.33 1.47.89 2.53 2.36 2.53 4.52 0 3.43-2.12 5.58-4.96 6.58v.1c1.23.62 1.75 1.99 1.95 4.08.24 2.33.38 5.65.75 6.61h-5.68c-.17-.65-.38-2.64-.55-5.41-.14-2.64-.89-3.35-2.5-3.35h-.92l-1.64 8.77h-5.51l4.32-22.64c1.61-.38 3.91-.58 6.16-.58m-2.46 10.27h1.51c2.16 0 3.77-1.57 3.77-3.6 0-1.4-1.09-2.29-2.7-2.29-.68 0-1.16.03-1.51.1l-1.06 5.79m2.46-10.66c-2.37 0-4.65.22-6.25.59l-.24.06-.05.25-4.32 22.64-.09.46h6.3l.06-.31 1.59-8.45h.6c1.3 0 1.98.46 2.11 2.99.17 2.79.38 4.79.56 5.49l.08.29h6.55l-.21-.53c-.24-.62-.4-2.54-.53-4.23-.06-.79-.13-1.58-.2-2.28-.2-2.04-.68-3.29-1.59-4.01 2.94-1.25 4.61-3.66 4.61-6.7 0-2.65-1.48-4.1-2.72-4.85-1.39-.94-3.38-1.39-6.26-1.39h0Zm-1.07 5.21c.3-.04.69-.05 1.18-.05 1.41 0 2.32.75 2.32 1.91 0 1.83-1.45 3.21-3.38 3.21h-1.04l.93-5.06h0ZM154.7 152.57 159.15 129.1 172.73 129.1 171.7 134.28 164.2 134.28 163.45 137.97 170.64 137.97 169.64 143.08 162.52 143.08 161.67 147.35 169.72 147.35 168.72 152.57 154.7 152.57z" class="q"/><path d="m172.5 129.29-.96 4.79h-7.5l-.82 4.08h7.19l-.92 4.73h-7.12l-.92 4.66h8.05l-.92 4.83h-13.63l4.38-23.08h13.18m.47-.39h-13.97l-.06.31-4.38 23.08-.09.46h14.42l.06-.31.93-4.83.09-.46h-8.04l.77-3.89h7.13l.06-.31.93-4.73.09-.46h-7.19l.67-3.3h7.5l.06-.31.96-4.79.09-.46h0ZM177.8 152.71c-2.5 0-4.51-.14-5.83-.42l-.19-.04 4.31-22.71.13-.03c1.65-.35 3.84-.55 6.03-.55 2.02 0 4.13.15 5.92 1.26 1.73.92 2.73 2.55 2.73 4.45 0 2.98-2.11 4.79-4.21 5.54 1.98.83 3.15 2.67 3.15 5.01 0 2.77-1.7 4.52-3.13 5.5-1.95 1.34-4.87 1.99-8.91 1.99Zm.6-4.78c.37.04.77.04 1.25.04 1.98 0 3.98-.92 3.98-2.99 0-1.64-1.09-2.44-3.33-2.44h-.87l-1.03 5.4Zm2.86-9.86c2.26 0 3.61-.95 3.61-2.55 0-1.19-.88-1.93-2.31-1.93-.63 0-1.08.03-1.37.1l-.82 4.38h.9Z" class="q"/><path d="M182.25 129.16c2.33 0 4.21.24 5.82 1.23 1.54.82 2.64 2.33 2.64 4.28 0 2.88-2.06 4.76-4.45 5.48v.1c2.23.75 3.39 2.67 3.39 4.97 0 2.36-1.3 4.14-3.05 5.34-1.95 1.34-4.83 1.95-8.8 1.95-2.74 0-4.62-.17-5.79-.41l4.25-22.4c1.61-.34 3.77-.55 5.99-.55m-2.12 9.11h1.13c2.4 0 3.8-1.06 3.8-2.74 0-1.3-.96-2.12-2.5-2.12-.65 0-1.2.03-1.54.14l-.89 4.72m-.48 9.9c2.26 0 4.18-1.09 4.18-3.18 0-1.99-1.47-2.64-3.53-2.64h-1.03l-1.1 5.75c.45.07.89.07 1.47.07m2.6-19.39c-2.2 0-4.42.2-6.07.56l-.25.05-.05.25-4.25 22.4-.07.37.37.08c1.33.27 3.36.42 5.87.42 4.08 0 7.03-.66 9.02-2.02 1.47-1.01 3.22-2.81 3.22-5.66 0-2.25-1.05-4.06-2.85-4.99 2.02-.86 3.92-2.67 3.92-5.55 0-1.97-1.04-3.66-2.84-4.62-1.81-1.12-3.96-1.28-6-1.28h0Zm-.9 5.09c.28-.05.68-.07 1.21-.07 1.32 0 2.12.65 2.12 1.74 0 1.47-1.28 2.35-3.42 2.35h-.66l.76-4.02h0Zm-1.76 8.87h.71c2.82 0 3.14 1.28 3.14 2.25 0 2.07-2.04 2.8-3.79 2.8-.4 0-.72 0-1.02-.02l.96-5.03h0ZM203.12 152.57l-.14-5.21h-5.13l-2.09 5.21h-6.29l10.62-23.47h7.43l1.78 23.47h-6.18Zm-.25-9.77-.1-4.19c-.04-.83-.06-2.01-.07-3.16 0-.33-.01-.65-.01-.97-.16.44-.32.9-.48 1.37-.36 1.03-.73 2.09-1.05 2.83l-1.64 4.11h3.35Z" class="q"/><path d="m207.35 129.29 1.75 23.08h-5.79l-.14-5.21h-5.44l-2.09 5.21h-5.86l10.45-23.08h7.12m-8.11 13.7h3.84l-.1-4.38c-.07-1.3-.07-3.46-.1-4.96h-.07c-.58 1.51-1.27 3.7-1.82 4.97l-1.74 4.38m8.47-14.08h-7.73l-.1.23-10.45 23.08-.25.55h6.72l.1-.24 1.99-4.96h4.81l.13 4.83.01.38h6.58l-.03-.41-1.75-23.08-.03-.36h0Zm-7.9 13.7 1.54-3.85c.32-.73.69-1.8 1.05-2.83.04-.12.08-.23.12-.35.01 1.11.03 2.25.07 3.06l.09 3.98h-2.87ZM211.15 152.57 215.61 129.1 221.62 129.1 218.16 147.29 225.83 147.29 224.84 152.57 211.15 152.57z" class="q"/><path d="m221.39 129.29-3.46 18.18h7.67l-.92 4.9h-13.29l4.38-23.08h5.62m.47-.39h-6.4l-.06.31-4.38 23.08-.09.46h14.07l.06-.31.93-4.9.09-.46h-7.67l3.37-17.73.09-.46h0ZM227.04 152.57 231.5 129.1 237.51 129.1 234.05 147.29 241.72 147.29 240.72 152.57 227.04 152.57z" class="q"/><path d="m237.274,129.294l-3.459,18.185h7.672l-.924,4.897h-13.288l4.384-23.081h5.616m.466-.386h-6.401l-.06.314-4.384,23.081-.087.458h14.074l.059-.314.924-4.897.086-.458h-7.671l3.372-17.727.087-.458h0Z" class="q"/><path d="m130.45 125.82 1.97-10.33c.21-1.17.45-2.81.57-3.86h2.96l-.14 1.38h.04c.74-.99 1.83-1.52 2.9-1.52 2.12 0 3 1.72 3 3.72 0 3.47-2.13 6.8-5.5 6.8-.64 0-1.27-.14-1.6-.35h-.04l-.8 4.17h-3.35Zm4.64-6.69c.25.23.53.37.97.37 1.29 0 2.2-2.3 2.2-3.94 0-.66-.21-1.31-.92-1.31-.86 0-1.56 1-1.81 2.42l-.43 2.46ZM142.34 121.8l2.75-14.47h3.37l-2.75 14.48h-3.37ZM158.67 111.7l-1.27 6.73c-.25 1.25-.41 2.4-.55 3.37h-2.94l.12-1.44-.04-.02c-.98 1.21-2.09 1.66-3.2 1.66-1.64 0-2.38-1.03-2.38-2.67 0-.61.08-1.29.23-2.05l1.07-5.58h3.35l-1.01 5.36c-.1.49-.16 1.01-.16 1.4 0 .45.18.84.7.84.78 0 1.5-.97 1.83-2.71l.93-4.89h3.35ZM159.43 118.92c.56.29 1.52.66 2.46.64.68 0 .99-.31.99-.7s-.29-.68-1.13-1.13c-1.11-.61-1.97-1.46-1.97-2.65 0-2.13 1.85-3.59 4.54-3.59 1.19 0 2.08.23 2.57.49l-.74 2.34c-.41-.19-1.07-.39-1.87-.39-.68 0-1.13.25-1.13.72 0 .31.33.6 1.03.95 1.15.66 2.16 1.5 2.16 2.77 0 2.34-1.93 3.64-4.7 3.62-1.25-.02-2.42-.33-3-.72l.8-2.34Z" class="t"/><path d="m268.667,143.017c-1.756.552-2.804.67-4.153-.557,2.054.051,3.092-.313,4.769-1.258,2.556-1.441,2.65-4.327,6.606-4.986-1.944-1.239-2.895-2.131-5.185-1.915,1.431-1.002,1.739-1.098,2.948-2.139,1.903-1.639,3.926-4.023,5.009-5.977.28-.506.578-1.023.591-1.774-4.53,2.013-8.413,3.053-16.98,2.352,2.177-2.43,2.955-3.61,2.594-6.27-1.911,2.604-4.216,1.53-6.862,1.262-2.839-.288-5.337-.245-8.137,1.036-2.721,1.244-5.061,3.252-6.1,6.339-.018.053-.036.113-.053.178-2.719,3.319-3.541,8.001-1.735,12.217,1.823,4.253,5.834,6.897,10.155,7.179,6.14,3.751,15.146-2.368,16.533-5.686Zm-11.336,4.384c.038-.016.076-.032.114-.048-.012.005-.024.011-.036.016-.026.011-.052.021-.078.032Z" style="fill:url(#d);stroke:url(#e);stroke-width:1.708px;stroke-miterlimit:10;fill-rule:evenodd"/><path d="m263.883,142.522c-1.373.353-2.183.4-3.17-.597,1.577.123,2.39-.115,3.718-.773,2.024-1.004,2.214-3.218,5.283-3.564-1.444-1.032-2.139-1.757-3.908-1.684,1.141-.712,1.382-.773,2.354-1.525,1.53-1.183,3.183-2.933,4.095-4.391.236-.378.486-.763.527-1.34-3.565,1.363-6.593,2.005-13.151,1.116,1.773-1.78,2.419-2.655,2.25-4.715-1.575,1.924-3.304,1.005-5.328.69-2.171-.337-4.094-.406-6.299.464-2.143.846-4.024,2.294-4.949,4.625-.016.04-.032.085-.048.135-2.226,2.441-3.049,6.007-1.832,9.323,1.228,3.345,4.204,5.541,7.515,5.934,4.568,3.134,11.742-1.203,12.944-3.697Zm-8.894,2.908c.03-.011.06-.021.089-.032-.009.004-.019.007-.028.011-.02.007-.041.014-.061.022Z" style="fill:url(#f);stroke:url(#g);stroke-width:.213px;stroke-miterlimit:10;fill-rule:evenodd"/><circle cx="251.78" cy="137.13" r="9.16" class="s"/><path d="m268.602,142.957c-1.743.548-2.783.664-4.121-.552,2.038.05,3.069-.311,4.732-1.249,2.536-1.43,2.629-4.293,6.556-4.948-1.929-1.23-2.873-2.115-5.145-1.901,1.42-.995,1.726-1.089,2.926-2.123,1.888-1.627,3.896-3.992,4.971-5.932.278-.502.574-1.016.586-1.76-4.495,1.997-8.348,3.03-16.85,2.334,2.16-2.412,2.933-3.582,2.574-6.222-1.896,2.584-4.184,1.519-6.81,1.252-2.817-.286-5.296-.243-8.075,1.028-2.701,1.235-5.023,3.228-6.053,6.29-.018.053-.035.112-.053.177-2.698,3.294-3.514,7.939-1.721,12.123,1.809,4.221,5.789,6.844,10.077,7.124,6.093,3.722,15.03-2.35,16.406-5.642Zm-11.249,4.35c.038-.016.075-.032.113-.048-.012.005-.024.011-.036.016-.026.011-.051.021-.077.032Z" style="stroke:#fdb927;stroke-width:1.695px;stroke-miterlimit:10;fill:#fdb927;fill-rule:evenodd"/><path d="m264.166,142.466c-1.362.35-2.167.397-3.146-.593,1.565.122,2.372-.114,3.689-.767,2.009-.996,2.197-3.194,5.242-3.537-1.433-1.024-2.123-1.743-3.878-1.671,1.132-.707,1.372-.767,2.336-1.513,1.518-1.174,3.158-2.911,4.064-4.358.234-.375.483-.757.522-1.33-3.538,1.352-6.542,1.989-13.05,1.107,1.759-1.766,2.401-2.635,2.233-4.679-1.563,1.909-3.279.997-5.287.685-2.154-.335-4.062-.403-6.251.461-2.127.839-3.993,2.277-4.911,4.589-.016.04-.032.085-.048.134-2.209,2.422-3.026,5.961-1.818,9.251,1.218,3.319,4.172,5.498,7.458,5.888,4.533,3.11,11.652-1.194,12.844-3.669Zm-8.826,2.886c.03-.011.059-.021.089-.032-.009.003-.019.007-.028.011-.02.007-.04.014-.061.021Z" style="fill:#f7901e;stroke-miterlimit:10;stroke:#f7901e;stroke-width:.212px;fill-rule:evenodd"/><circle cx="252.15" cy="137.12" r="9.09" class="s"/></g></svg>