<svg id="b" xmlns="http://www.w3.org/2000/svg" viewBox="0 0 218.92 114.57"><defs><style>.d{fill:#fff}.e{fill:#fdb927}.f{fill:#b72055}</style></defs><g id="c"><path class="e" d="m206.55 67.23-2.12-1.2.54-1.25c1.02-.75 2.5-1.03 2.5-1.03.37 1.52.02 1.73.02 1.73-.36 1.01-.94 1.75-.94 1.75Z"/><path class="f" d="m212.33 46.52-.28 10.16.26 2.97-.53 3.09c.4 3.53 1.51 6.78 1.51 6.78-1.63 5.31-.47 7.75-.47 7.75l.47 3.29c-.91 1.06-1 6.33-1 6.33.17 4.9 1.09 7.53 1.09 7.53l-6.34-.41-4.71-.24-.53.41-1.06.47-3.12-1.4-5.44.7-10.23-.9-4.97-.1-2.56 1.73-13.35-2.37-9.54 2.53-2.26-1.11-4.14.5-8.4-.05-2.72.78c-6.62-2.94-10.53-.52-10.53-.52l-2.49-.84-5.64 1.15-2.72-1.32-7.45.96-7.85-1.22s-3.37-.83-3.85.21l-4.8.64-5.49-1.36c-3 .53-4.7 1.3-4.7 1.3l-.35-.97-.95-5.71c1.74-7.98-1.03-1.7-1.03-1.7l1.1-2.8-.4-1.53c.16-2.45.75-3.88.75-3.88l.08-7.7-.33-3.97-1-.8 1.36-6.57-.05-2.02 1.18-3.12L77.52 49c1.25-2.94 1.86-5.74 1.86-5.74l-.06-2.09-2.25-5.56 1.27-4.1-.62-3.24.73-1.29c-1.33-4.18-.04-7.53-.04-7.53l1.82-.18 1.98-.73 6.11 1.14 8.79-1.23 6.46 1.76 11.27-.83 6.4.9c5.04.16 10.22-1.68 10.22-1.68l7.26 2 1.95-.9 12.96 1.1 3.04-1.08 5.11 1.54 9.99-1.7 6.96 1.94c4.04-.32 5.97-1.74 5.97-1.74l6.04 1.4.64-1.4 4.72.73 2.92-2 5.78 1.1 8.32-.92-1.54 3.68 1.25 6.2-1.18 5 .49 3.6-1.06 3.62c.06 3.82 1.25 5.75 1.25 5.75"/><path class="f" d="m174.2 16.05 2.8 1.72-5.5 2.18c-.9 1.83-1.02 2.91-1.02 2.91a13.17 13.17 0 0 0-5.64 2.85l-1.9-1.52-.2-.32c-1.38 1.9-2.15 3.68-2.15 3.68l.51 3.8c1.14-3.74 2.54-5.45 2.54-5.45a14.72 14.72 0 0 0 2.34 1.97c2.09-2.67 4.24-3.62 4.24-3.62-.19 1.08.2 2.85.2 2.85l3.54-.12 4-2.28-1.6-2.41c-2.78-.25-3.92.32-3.92.32l.06-2.22a36 36 0 0 0 7.15-1.74c0-.06-1.43-1.48-1.43-1.48l-2.27-2.91-1.75 1.8ZM217.46 64.66l-.83 3.23-.75-1.03s-2.25-4.37-2.3-4.4c-.06-.03-.6 3.25-4.34 5.82l-1.74-.67s.72-.81 1.81-3.4l-1.37-3.32-3.9 3.23-2.83 3.23s2.67 1.17 3.7 1.52c0 0-1.77 2.08-6.94 2.67l1.68 2.66s4.04-1.66 6.45-4.9c0 0 2.77.4 4.8.32l3.02-3.23.68 2.46 1.61 1.5 2.71-3.12-1.46-2.57ZM4.43 18.1l.64 1.65 1.14 10.9-1.84 5.32 2.35 5.15-1.84 12.86L6.2 56.8c-.83 3.61-.7 5.26-.7 5.26l-1.58 4.69 1.45 1.9-.95 3.73 1.65 6.15c-.32 3.55-1.01 5.39-1.01 5.39l1.07 1.39-1.33 8.42 2.41-1.33 4.18 1.14 3.36-1.07 8.74-.64c3.68-.19 4.75 1.2 4.75 1.2l2.1-2.46 1.07-3.04-.44-1.27-1.59-1.71c-.06-1.4-.54-2-.54-2-1.04-3.35-.98-2.69-.98-2.69-1.2-1.52-2.47-1.9-2.47-1.9l.48-1.17 3.64-.1c1.84 1.9 2.1 3.3 2.1 3.3 2.08 1.07 1.83 1.45 1.83 1.45l2.53.95 2.1 3.36-1.34-3.55-4.81-2.6c-.13-1.26 0-1.45 0-1.45-.37-.7-.32-1.35-.32-1.35-.5-4.81-.13-3.97-.13-3.97l.51-2.72c1.14-2.92 1.4-2.48 1.4-2.48.88.16 1 .26 1 .26.9 3.74-.3 4.56-.3 4.56l.5.89.06 1.9.5 1.26-.5.76c.89-.5 1.08-.19 1.08-.19l.31-4.24.39-.98.31-1.3c.89-1.05 2.22-3.36 2.22-3.36l1.33.26-.06 2.72-.64 2.15.13.7-.57 2.15.13 1.27-.86.86.95.22c1.2-1.46 1.8-2.66 1.8-2.66l.9-.57 1.39.88.19.83c-.51 1.45-.38 2.21-.38 2.21a5.49 5.49 0 0 0-1.59 2.16l-1.2-.26-.25-.5c0-1.46.5-2.85.5-2.85h-.19l-.19.63-.31.44-.45 2.54a5.83 5.83 0 0 1 1.65 1.01l1.52-1.08.57-1.45c.63.57 1.01.63 1.01.63l.26 1.52.19 1.9a8.16 8.16 0 0 0-1.59 1.84c-.57-.44-1.01-.44-1.01-.44l.19-1.71c.38-.64.32-1.02.32-1.02l-.57.38-.38.13.06 1.52-.32 1.52.76.32-.06 1.77a13.28 13.28 0 0 0-2.12 3.26l-1.43.92-1.4-.32c.2.64.96 1.27.96 1.27l-.64.76 2.48.25 2.72-.44c3.1.38 5.95 1.4 5.95 1.4 4.7-1.4 8.81-1.46 8.81-1.46l.63.7c8.43-.96 14.07-.58 14.07-.58 4.3.2 6.26.98 6.26.98l.21-4.35-.14-2.93-1.08-4.82.89-2.78-.38-8.24 1.01-4.5a24.92 24.92 0 0 1-1.4-5.76l1.78-9.25-.57-3.1.76-5.7-.76-3.62c-1.07-12.44 1.27-19.32 1.27-19.32l-3.34-.61-2.77-.66c-6.87 1.69-7.82 1.5-7.82 1.5L61 19.75l-1.2-1.07c-2.15.12-3.42.63-3.42.63H49.6L46.12 19l-.7-.88-5.8 1.14-1.77-.07-2.76 1.02-3.67-1.2a31.44 31.44 0 0 1-5.07 1.58l-1.83-.07-4.88-2.02-3.61 1.07-2.85-.57-1.14.64a37.7 37.7 0 0 0-7.6-1.52Z"/><path class="e" d="m21.47 27.3-.82 3.73.7 4.56c2.66 4.94 4.81 6.78 4.81 6.78l1.9 2.15c1.4 3.1 2.85 5.2 2.85 5.2l.13 2.15.95.38a10.9 10.9 0 0 0 2.15-.38l9.44 1.84 6.21 3.74 7.92 4.3 5.26.9c4.12-.26 5.95-1.02 5.95-1.02l1.27-.89-1.71-1.96-1.9-1.4c-3.74-2.4-6.65-3.35-6.65-3.35a168.62 168.62 0 0 1-15.52-1.84c-7.54-.57-10.84-1.52-10.84-1.52l-1.33.38-.38-1.59-.88-1.7c1.26.75 2.12 2.02 2.12 2.02 6.52 1.52 7.82.89 7.82.89l2.28.7 4.82.18 1.96.51c3.17-.13 5 .32 5 .32l.2-1.02 1.52-2.78 2.72-6.84c1.46-4.88 1.33-6.02 1.33-6.02-.76-3.3-1.46-3.87-1.46-3.87l-1.77-1.33-2.79.76-2.47-.82c-.12-.7-.44-1.2-.44-1.2l.05-.07c.52.4.66.73.66.73l1.41-.16-1.49-2.6c-3.1-.03-5.41-.5-5.41-.5-3.1 1.93-5.58 2.94-5.58 2.94l-3.32 3.71-3.43 3.04-.79 1.24-.4.28v1.4L36.9 43c4.3 3.1 7.32 5.83 7.32 5.83l3.54 1.8-1.26.39-4.85-2.7-3.51-3.13-2.54-1.93-3.13-4.03-.26-1.45 2.03-1.65c-.73-.54-1.62-1.01-1.62-1.01l-2.21-2.47-2.1-2.22-2.56-2.5c-1.2-.29-2.47-.8-2.47-.8l-1.8.16Z"/><path class="e" d="m30.76 47.15-.32-1.08c-.67-1.17-1.87-2.24-1.87-2.24 1.14 1.61 1.58 2.5 1.58 2.5.16.41.6.82.6.82Z"/><path class="f" d="M52.1 51.27c-1.04-.54-2.48-.86-2.48-.86.87-.25 1.76-.22 1.76-.22-.59-.98-1.59-1.85-1.59-1.85 1.47.32 2.61.38 2.61.38-.96-1.28-2.07-2.04-2.07-2.04 1.5.25 2.93.33 2.93.33-1.2-1.52-1.77-2.07-1.77-2.07 1.72.4 2.86.44 2.86.44l-1.64-1.8c1.88.15 2.74 0 2.74 0a12 12 0 0 0-2.17-2.02l3.04.02c-1.35-1.68-2.35-2.46-2.35-2.46 2.14.2 3.16-.01 3.16-.01-1.29-2-2.05-2.1-2.05-2.1a7.85 7.85 0 0 1 2.31.27c-.38-1.3-1.37-2.1-1.37-2.1 1.17.17 1.96.59 1.96.59-.67-1.35-1.32-2.19-1.32-2.19 1.48.74 2.1 1.6 2.1 1.6-.4 3.04-.65 3.6-.65 3.6l-.76 2.42c-.87 2.8-2.05 4.72-2.05 4.72l-1.74 3.48c-.84.87-1.46 1.87-1.46 1.87Z"/><path class="e" d="M24.9 66.44c-1.84-2.34-2.6-2.47-2.6-2.47l-1.97.06.13-1.9 1.78-3.35-5.64-2.98a10.33 10.33 0 0 1-1.02-2.92c-3.6-.88-5.63-2.85-5.63-2.85l-1.9 1.52-.2.32C6.47 49.97 5.7 48.2 5.7 48.2l.5-3.8c1.15 3.73 2.54 5.44 2.54 5.44 1.08-1.14 2.35-1.96 2.35-1.96a12.54 12.54 0 0 0 4.24 3.61 9.69 9.69 0 0 1 .19-2.85l3.55.13 3.99 2.28-1.59 2.4c-2.78.26-3.92-.31-3.92-.31l.06 2.22a26.8 26.8 0 0 1 6.9 1.9c0 .06-2.47 4.11-2.47 4.11l-.5 1.4 2.66-.26c.82 1.52 2.09 2.03 2.09 2.03-.82.44-1.4 1.9-1.4 1.9Z"/><path class="f" d="M52.04 56.94a32.61 32.61 0 0 1 6.11 3.61l5.42.22c2.53-.66 3.48-.6 3.48-.6-1.67-1.14-2.78-2.63-2.78-2.63l.28 2.03C63.15 58.14 62 57.4 62 57.4c.6 1.24.63 2.25.63 2.25a14.83 14.83 0 0 1-3.1-2.53 8 8 0 0 0 .72 2.44c-2.18-1.97-2.4-2.85-2.4-2.85-.1 1.07.12 2.88.12 2.88l-2.56-2.72.28 1.3c-1.55-.73-3.64-1.24-3.64-1.24Z"/><path class="e" d="M44.7 59.81c2.15-.82 3-1.58 3-1.58.03 1.05.59 2.92.59 2.92-2.22-.85-3.58-1.34-3.58-1.34M32.09 60.65c1.33-.39 4.05-.86 4.05-.86 3.2.73 3.61 1.05 3.61 1.05l-1.23-.13-2.57-.35c-2.19.03-3.86.29-3.86.29ZM33.57 62.23l-.03-.1.89-.25 3.58-.35c2.85.89 3.67 1.6 3.67 1.6l-.92-.33-1.39-.41c-1.23-.54-5.8-.16-5.8-.16Z"/><path class="f" d="M218.63 51.03c-1.41-.28-2.29-.44-2.45-.32a7.56 7.56 0 0 0-1.78 2.09c.06-1.64.33-3.09.33-3.09-.6-.1-1.8-.53-1.8-.53l2.1-.78c.3-1.45.66-2.55.66-2.55l1.06 1.81 1.87.08c-.33.53-1.16 1.61-1.16 1.61.53.8 1.17 1.68 1.17 1.68Z"/><path class="e" d="M210.5 52.42c.06-3.8-.12-5.76-.12-5.76l-.15-1.33-.26-3.07.41 1.71c.03 1.33.32 1.87.32 1.87l.5 2.4c-.35 1.97-.7 4.18-.7 4.18ZM71.81 24.08l-.08-.85.2-1.6a65.4 65.4 0 0 0 2.32 1.74c-1.58.36-2.44.71-2.44.71ZM201.95 22.1l4-.5 2.57-.49c1.34-.03 2.18-.2 2.18-.2l-.24.62-.16.8-.21 1.06-.03 1.2.02.43.01.58.24 1.01-.02.1-.72-1.93.05-1.25.04-.38.07-.53-.21-.97-6 .48-1.6-.04ZM62.52 90.58l2.57-2.6 2.85-1.46c-.92-1.2-2-1.93-2-1.93l-.03-.16.27-.2 1.73-2.4.1-.85.28-1.43-.35.16-3.13 1.11-2.92.32.63-2.79c.48-.98.6-1.77.6-1.77 1.08-1.17 1.59-2.13 1.59-2.13l1.43-1.3s.12.1.19.2c.06.1 2.24 2.09 2.24 2.09.48 1.42.45 2.34.45 2.34l.08.11 2.23-1.6.32-.22v-.1l-.32-.4-1.2-1.97-.7-1.36-.16-.26.38-.15 1.11-.51c1.55-1.2 1.9-2.1 1.9-2.1a7.17 7.17 0 0 0 2.03 1.81c-1.65 1.11-3.1 1.46-3.1 1.46l-.04.2.13.72.03.73.35.57c.92.82 1.01 1.17 1.01 1.17l.35.38-.92.67-1.87 1.39-.6.35-.85.44c.09 2.53-.2 3.67-.2 3.67-.79 1.59-1.23 2.03-1.23 2.03l-.03.1c1.55 1.14 2.4 1.96 2.4 1.96l-.56.41-1.3 1.05-1.68 1.1-.7.58c-.31.44-.54.54-.54.54 1.84.79 2.85 1.48 2.85 1.48.42.54.83.9.83.9-2.38-.03-2.94.05-2.94.05-2-1.68-3.56-2.4-3.56-2.4Z"/><path class="f" d="m65.53 74.8 2.13 1.56.06.57.41 1.39-1.14.44-.25.13-2.12.7-.45.17c.94-2.57 1.28-4.88 1.28-4.88l.08-.08Z"/><path class="e" d="m45.7 72.02.48 1.8v.57l.32 1.97.16.06.22-2.53a5.23 5.23 0 0 0-.48-1.08l-.7-.8ZM50.23 74.3l-.31-.32-.22-.92-.19-.71.66 1.19.06.76zM53.07 70.53l1.47.96.64.43.2.06-.05.16c-1.3.86-2.3 2.25-2.3 2.25l-.09.02v-.8l.07-1.42c.14-1.06.06-1.66.06-1.66ZM43.66 92.5l.07-.07.65-.05 1.63-.1 1.1.23 1.62.05 1.35.2.52-.01.65.11 1.19-.03-.29.12-.5.08-.99.01c-.84.11-1.2.28-1.2.28-3.3-.7-4.3-.72-4.3-.72l-.94-.04-.56-.05Z"/><path class="f" d="M67.28 94.85c1.02-.74 2.23-1.3 2.23-1.3-.33-.49-.5-.63-.5-.63-1.43-.05-2.93.06-2.93.06l-.02-.01c.75.77 1.22 1.88 1.22 1.88Z"/><path class="e" d="m54.11 63.24.46.13 1.97.54c1.23.54 1.34.54 1.34.54.32.27 2.27.5 2.27.5l1.65.22 1.58.2-.17.06c-1.9.12-2.71.06-2.71.06-3.2-.6-3.87-1.08-3.87-1.08l-1.14-.34-.28-.1-1.06-.63-.04-.1ZM56.89 66.96l.25.12-.46.22-.71-.02c-1.9-.41-3.3-1.31-3.3-1.31l.16-.04 1.02.42 2.28.58.76.03ZM12.88 92.06l-.05-.04.24-.13.52-.19.43-.08.66-.2.37.17a12.1 12.1 0 0 0-2.17.47ZM12.62 86.6l-.36-2.01c.4-2.44.3-5 .3-5l.1.04c.2 1.62.1 3.88.1 3.88l.07.95-.1.99.05 1.2-.16-.05ZM26.21 83.9l-.06-.5c-.78-.6-1.13-1.06-1.13-1.06l-.1-.3.12-.03c.66.4 1.36 1.1 1.36 1.1l.03.15.2.41.23 1.24-.05.05c-.32-.74-.6-1.07-.6-1.07ZM26.34 74.76l.47-.12 1.33-.12c1.59.36 1.41.62 1.41.62l-.08.04-.4-.12c-1.16-.35-2.73-.3-2.73-.3ZM12.37 68.48l-.08-.06.4-.19 1.69-1.28.25-.2.1.04.16.7c.16 1.36.4 2.06.4 2.06l-.4-.2c-1.75-.86-1.75-.76-1.94-.8-.44-.1-.58-.07-.58-.07ZM16.34 67.46c-.12-.64-.06-.96-.06-.96.13-.79.1-1.26.1-1.26l-.1-1.05.48-2.44c.05-.4.22-.78.26-1.14.05-.47.5-1.12.5-1.12l.12-.02c-.7 1.84-.52 2.71-.52 2.71l-.3 2.96c.06.83-.1 1.24-.1 1.24-.25.38-.3 1.14-.3 1.14l-.08-.06Z"/><path class="f" d="M5.7 48.2c-.54-1-.87-1.86-.87-1.86l-.1-.04-1.44.88c-1.33-.95-2.25-2.63-2.25-2.63C.41 42.6 0 41.92 0 41.92c1.08-.31 2.28-1.64 2.28-1.64l.16.57c.5 1.23.6 2.03.77 2.53.2.55.62 1.84.62 1.84.57-.89 1.2-1.54 1.2-1.54l.6-1c.26.96.63 1.76.63 1.76a324.4 324.4 0 0 0-.56 3.76Z"/><path class="e" d="m9.76 31.54-.51-1.27-.25-.76-.35-.92 2.82.8c-.92 1.04-1.71 2.15-1.71 2.15ZM8.87 37.78l.76-1.65.13-.73.12-.63.1-.07-.1 1.27c0 1.55-.19 2.31-.19 2.31l.2.29.18.66.2.83c-1.02-2.03-1.4-2.28-1.4-2.28ZM26.2 27.64l.83-1.38c.34-.44.02-.74.02-.74l-1.16-1.84.02-.1.7.2 1.4.25.4.13c.48-.89.82-1.2.82-1.2l.45-.8.08.05c.25 1.23.3 2.26.3 2.26l.03.1.32.1 1.64 1.23c.07.1-.06.14-.06.14-.67.32-1.68.68-1.68.68a9.75 9.75 0 0 1-.16 2.22l-.3-.22-1.47-1.52a9.44 9.44 0 0 0-2.19.44ZM41.6 26.37l-.08.07-.44-.35-1.77-1.02-2.57-1.64-.41-.22a23.65 23.65 0 0 1 2.31-2.38l.45.13c.79.03 1.47.46 1.47.46h.14l-.06-.56c-.22-.82-.87-1.64-.87-1.64l2.25-.45c.14.15.31.66.31.66.54 1.4.1 2.33.1 2.33-.03.23-.06.23-.06.23l-.04.2.27.13a17.9 17.9 0 0 1 3.04 2.34C44.8 25.2 44 26.3 44 26.3l-.08-.04-.76-1.59c-.57-.52-.94-1.04-.94-1.04h-.05l-.1 1.15-.47 1.6Z"/><path class="f" d="m38.3 23.35.1-.5-.01-.61.06-.03c.67.08 1.41-.02 1.41-.02.37.26.86.41.86.41l.03.1c-.16.63-.11 1.52-.11 1.52l-.08.05-.29-.14c-.73-.5-1.44-.72-1.44-.72l-.49.02-.05-.08ZM31.4 16.13c.6-.59 2.16-1.57 2.16-1.57.41.9 2.82 2.58 2.82 2.58l.1.02 1.48-1.32.84-.96.05-.04.62.78.31.37.81.94a6.7 6.7 0 0 1 1.43 1.84l-2.25.45c-.64-1.27-1.06-1.73-1.06-1.73l-.15-.08c-.14-.4-.3-.41-.3-.41l-.08-.01c-1.02.7-1 .93-1 .93-.98.47-1.51 1.14-1.51 1.14a8.95 8.95 0 0 0-4.26-2.93ZM51.52 15.83l.66-.22 2.08-1.05.47-.25.03.03c-.5 1.25-.49 2.83-.49 2.83l.06.39h-.06l-.49-.42a5 5 0 0 1-1.3-.7c-.42-.4-.96-.61-.96-.61Z"/><path class="e" d="M47.16 21.12c.67 0 1.36-.2 1.36-.2l1.65.2-.8.06c-.83.13-2.2-.06-2.2-.06ZM7.32 23.33l-.13-.03-.29-.66c-.06-.92.04-1.33.04-1.33l-.29-1.62.1-.13.5.16h.76c1.14.13 1.27.32 1.27.32.19.1.35.03.35.03l1.52.32c.66.25 1.4-.02 1.4-.02l1.05.18 1.9-.04.99-.28 1.39-.25.62-.24.4.14.28.13.35.1.54.15.74.27-.27.02-.9-.16-.43-.02-.19-.01-.63-.04c-.5.05-.97.3-.97.3l-1.06.13c-.89.2-1.5.18-1.5.18l-.92-.02-1.84-.35c-1.4.08-2.47-.05-2.47-.05-.29-.12-.54-.15-.54-.15-.87-.05-1.79-.34-1.79-.34l-.08.03c-.06.38 0 .75 0 .75l.03.33c-.12 1.59.07 2.2.07 2.2Z"/><path class="f" d="m145.46 17.59.67-.23 2.07-1.04.48-.26.03.04c-.5 1.25-.49 2.83-.49 2.83l.06.39h-.06l-.5-.42c-.67-.22-1.29-.7-1.29-.7a3.25 3.25 0 0 0-.97-.61Z"/><path class="e" d="M197.83 31.31c-.76-1.2-.64-1.96-.83-2.02-1.25-.42-3.04-.45-3.04-.45 1.38-.88 2.73-1.48 2.73-1.48-.26-.56-.59-1.8-.59-1.8l1.84 1.29c1.36-.57 2.47-.9 2.47-.9l-.89 1.9 1 1.58c-.62.03-1.98-.03-1.98-.03-.37.89-.71 1.91-.71 1.91ZM115.98 87.96l1.48.97.63.43.2.06-.04.16c-1.3.85-2.3 2.25-2.3 2.25l-.1.01v-.79l.07-1.42c.14-1.06.06-1.67.06-1.67ZM108.56 21.68c.66 0 3.88-.43 3.88-.43l2.28-.01-1.36.34c-.83.13-4.8.1-4.8.1ZM122.7 22.38l1.47.96.64.43.2.06-.04.16c-1.3.86-2.3 2.25-2.3 2.25l-.1.02v-.8l.07-1.42c.14-1.06.06-1.66.06-1.66ZM201.48 36.06l.31-.25 1.7-1.29.25-.19.1.04.16.7c.16 1.35.4 2.05.4 2.05l-.4-.19c-1.75-.86-1.75-.77-1.94-.8-.44-.1-.58-.07-.58-.07Z"/><path class="f" d="m158.56 95.78.56-.43 1.63-1.66.37-.39.04.02a8.57 8.57 0 0 0 .45 2.84l.17.35-.05.03-.6-.25a4.96 4.96 0 0 1-1.45-.24c-.54-.25-1.12-.27-1.12-.27Z"/><path class="e" d="m172.57 26.2-.03-3.1c.57.13 1.36.07 1.36.07a7.11 7.11 0 0 1 2.09 1.7c-1.17 1.05-1.55.96-1.55.96-1.17.44-1.87.38-1.87.38Z"/><path class="d" d="M121.7 34.79h-8.33V65.7h8.33V34.79Zm-16.67 1.26c0-3.43 5.63-6.25 12.5-6.25s12.5 2.82 12.5 6.25v28.38c0 3.44-5.63 6.25-12.5 6.25s-12.5-2.81-12.5-6.25V36.05ZM189.26 34.79h-8.33V65.7h8.33V34.79Zm-16.66 1.26c0-3.43 5.63-6.25 12.5-6.25s12.5 2.82 12.5 6.25v28.38c0 3.44-5.63 6.25-12.5 6.25s-12.5-2.81-12.5-6.25V36.05Z"/><path class="e" d="M24.9 66.33c-1.84-2.34-2.6-2.47-2.6-2.47l-1.97.06.13-1.9 1.78-3.35-5.64-2.98a10.33 10.33 0 0 1-1.02-2.92c-3.6-.88-5.63-2.85-5.63-2.85l-1.9 1.52-.2.32c-1.39-1.9-2.15-3.67-2.15-3.67l.5-3.8c1.15 3.73 2.54 5.44 2.54 5.44 1.08-1.14 2.35-1.96 2.35-1.96a12.53 12.53 0 0 0 4.24 3.61c-.19-1.08.19-2.85.19-2.85l3.55.13 3.99 2.28-1.59 2.4c-2.78.26-3.92-.31-3.92-.31l.06 2.21c3.86.57 6.9 1.84 6.9 1.9 0 .07-2.47 4.12-2.47 4.12l-.5 1.4 2.66-.26a4.6 4.6 0 0 0 2.09 2.03c-.82.44-1.4 1.9-1.4 1.9ZM12.62 86.5l-.36-2.02c.4-2.44.3-5 .3-5l.1.04c.2 1.62.1 3.88.1 3.88l.07.95-.1.99.05 1.2-.16-.05ZM26.21 83.78l-.06-.49c-.78-.6-1.13-1.06-1.13-1.06l-.1-.3.12-.03c.66.4 1.36 1.1 1.36 1.1l.03.15.2.41.23 1.24-.05.05a4.61 4.61 0 0 0-.6-1.07ZM26.34 74.64l.47-.1 1.33-.13c1.59.36 1.41.61 1.41.61l-.08.05-.4-.12c-1.16-.35-2.73-.3-2.73-.3ZM12.37 68.37l-.08-.06.4-.19 1.69-1.28.25-.2.1.04.16.7c.16 1.36.4 2.05.4 2.05l-.4-.19c-1.75-.86-1.75-.76-1.94-.8-.44-.1-.58-.07-.58-.07Z"/><path class="e" d="M16.34 67.34c-.12-.63-.06-.95-.06-.95.13-.79.1-1.26.1-1.26l-.1-1.05.48-2.44c.05-.4.22-.78.26-1.14.05-.47.5-1.12.5-1.12l.12-.02c-.7 1.84-.52 2.71-.52 2.71l-.3 2.96a3.1 3.1 0 0 1-.1 1.24c-.25.38-.3 1.14-.3 1.14l-.08-.07ZM9.76 31.43l-.51-1.27L9 29.4l-.35-.92 2.82.8c-.92 1.04-1.71 2.15-1.71 2.15ZM8.87 37.67l.76-1.65.13-.73.12-.63.1-.07-.1 1.27c0 1.55-.19 2.31-.19 2.31l.2.29.18.66.2.83c-1.02-2.03-1.4-2.28-1.4-2.28ZM7.32 23.22l-.13-.03-.29-.67c-.06-.91.04-1.32.04-1.32l-.29-1.62.1-.13.5.16h.76c1.14.13 1.27.32 1.27.32.19.1.35.03.35.03l1.52.32c.66.25 1.4-.02 1.4-.02l1.05.18 1.9-.04.99-.28 1.39-.26.62-.23.4.14.28.13.35.1.54.15.74.27-.27.02-.9-.16-.43-.02-.19-.01-.63-.04c-.5.05-.97.3-.97.3l-1.06.13c-.89.2-1.5.17-1.5.17l-.92-.01-1.84-.35c-1.4.08-2.47-.05-2.47-.05-.29-.12-.54-.15-.54-.15-.87-.05-1.79-.34-1.79-.34l-.08.03c-.06.38 0 .75 0 .75l.03.33a6.7 6.7 0 0 0 .07 2.2ZM75.11 75.28c2.38-.63 3.58-1.38 3.58-1.38.03 2.44-.76 3.58-.76 3.58-1.3-1.33-2.82-2.2-2.82-2.2M32.05 60.68c1.33-.38 4.06-.86 4.06-.86 3.2.73 3.6 1.05 3.6 1.05l-1.23-.13-2.56-.35c-2.19.03-3.87.29-3.87.29ZM33.54 62.26l-.03-.1.89-.25 3.58-.35c2.85.89 3.67 1.6 3.67 1.6l-.92-.33-1.4-.41c-1.23-.54-5.79-.16-5.79-.16ZM93.1 47.65l-.41-.87-.36-1.02c.6.43 1.75.81 1.75.81l.42.26.33-.37a14.6 14.6 0 0 0 1.39-1.18c-.02 1.43-.14 2.6-.14 2.6l.17.28c.45.61.96 1.44.96 1.44l-1.56-.26-.17-.08-.13.07-.03.3-.22.87-.02.22-.19.59-.05.05c-.4-.72-.64-.99-.64-.99l-.48-.85-.11-.26c-1.29-.03-2.01.04-2.01.04l-.03-.05.34-.38.29-.4c.73-.76.9-.82.9-.82ZM45.67 72.05l.48 1.8v.57l.32 1.97.15.06.23-2.53a5.28 5.28 0 0 0-.48-1.08l-.7-.8ZM50.2 74.33l-.31-.32-.22-.92-.2-.71.67 1.19.06.76zM53.04 70.56l1.47.96.63.43.21.07-.05.15c-1.3.86-2.3 2.25-2.3 2.25l-.09.02v-.8l.06-1.42c.15-1.06.07-1.66.07-1.66Z"/><path class="e" d="M24.86 66.36c-1.83-2.34-2.6-2.47-2.6-2.47l-1.96.06.13-1.9 1.77-3.35-5.64-2.98c-.88-1.84-1-2.91-1-2.91-3.62-.9-5.65-2.85-5.65-2.85l-1.9 1.52-.19.31a20.93 20.93 0 0 1-2.15-3.67l.5-3.8c1.15 3.73 2.54 5.45 2.54 5.45a14.67 14.67 0 0 1 2.34-1.97 12.53 12.53 0 0 0 4.25 3.61 9.7 9.7 0 0 1 .19-2.85l3.55.13 3.99 2.28-1.59 2.4c-2.78.26-3.92-.31-3.92-.31l.06 2.22c3.86.57 6.9 1.83 6.9 1.9 0 .06-2.47 4.11-2.47 4.11l-.5 1.4 2.66-.26a4.6 4.6 0 0 0 2.09 2.03c-.83.45-1.4 1.9-1.4 1.9ZM12.59 86.52l-.36-2c.4-2.45.3-5.01.3-5.01l.1.04c.2 1.62.1 3.89.1 3.89l.07.94-.1.99.05 1.2-.16-.05ZM26.18 83.81l-.06-.49c-.78-.6-1.13-1.06-1.13-1.06l-.1-.3.12-.03c.66.4 1.36 1.1 1.36 1.1l.03.15.2.41.23 1.24-.05.05c-.32-.74-.6-1.07-.6-1.07ZM26.3 74.68l.48-.11 1.33-.13c1.58.36 1.41.62 1.41.62l-.08.04-.41-.12c-1.16-.35-2.73-.3-2.73-.3ZM12.34 68.4l-.08-.06.4-.19 1.69-1.28.25-.2.1.04.16.7a10 10 0 0 0 .4 2.06l-.4-.2c-1.75-.86-1.75-.76-1.94-.8-.44-.1-.58-.07-.58-.07Z"/><path class="e" d="M16.31 67.38c-.12-.64-.06-.95-.06-.95.13-.8.1-1.27.1-1.27l-.1-1.05.47-2.44c.06-.4.22-.78.27-1.14.05-.47.5-1.12.5-1.12l.12-.02c-.7 1.84-.52 2.71-.52 2.71l-.3 2.96c.06.83-.1 1.24-.1 1.24-.25.38-.3 1.14-.3 1.14l-.08-.06ZM9.72 31.46l-.5-1.27-.26-.76-.34-.92 2.81.8c-.91 1.04-1.7 2.15-1.7 2.15ZM8.84 37.7l.76-1.65.12-.73.13-.63.1-.06-.1 1.26c0 1.55-.19 2.31-.19 2.31l.19.29.19.66.2.83c-1.02-2.03-1.4-2.28-1.4-2.28ZM7.29 23.25l-.13-.03-.29-.66c-.06-.92.03-1.33.03-1.33l-.28-1.62.1-.13.5.16h.76c1.14.13 1.27.32 1.27.32.19.1.35.03.35.03l1.52.32c.66.25 1.4-.02 1.4-.02l1.05.18 1.9-.04.98-.28 1.4-.25.62-.24.4.14.28.13.35.1.53.15.75.27-.27.02-.9-.16-.43-.02-.2-.01-.63-.03c-.49.04-.96.3-.96.3l-1.06.12c-.89.2-1.5.18-1.5.18l-.93-.02-1.83-.35c-1.4.08-2.47-.05-2.47-.05-.29-.12-.54-.15-.54-.15-.87-.05-1.8-.34-1.8-.34l-.07.04c-.06.38 0 .74 0 .74l.03.33c-.12 1.59.07 2.2.07 2.2Z"/><path class="f" d="m17.52 52.44-.04-3.1c.57.12 1.37.06 1.37.06 1.14.54 2.09 1.71 2.09 1.71-1.36 1.21-1.56.95-1.56.95-1.17.44-1.86.38-1.86.38Z"/><path class="e" d="m173.29 88.65-.5-1.27-.26-.76-.35-.92 2.82.8c-.92 1.04-1.71 2.15-1.71 2.15ZM133.05 92.5l.06-.07.65-.05 1.63-.1 2.95.23 1.78-.27 1.18.52.6-.13.7.16 1.06.04-.28.12-.5.08-.99.01c-.84.11-1.21.28-1.21.28-3.3-.7-6.14-.72-6.14-.72l-.94-.04-.55-.05ZM128.24 20.83c-.45-.03-1.6 0-1.6 0 .65-.05 2.2-.5 2.2-.5l3.27-.33 3.72 1.04-5.3-.53c-.41.02-1.87.36-2.29.32ZM211.16 92.44l.22.32c-.71-.25-1.72-.35-1.72-.35-1.28-.19-4.8-.41-4.8-.41l2.85-.19 1.03-.08.9-.03.4-.09.02.05.01-1 .04-1.13.36-4.05.22 5.13c.17.97.31 1.41.31 1.41l.16.42ZM92.07 24.28c-4.99-1.32-9.82-.18-9.82-.18a6.5 6.5 0 0 1 1.83 1.69l-2.26 2.74-4.24 1.77-.63-2.52c1.5-2.37 2.56-3 2.56-3l-1.7-1.22a65.02 65.02 0 0 1-8.16 6.28c-.05-.04-2.6-4.14-2.6-4.14l-.8-1.25 2-.8 1.58 3.45 8.24-4.62c2 .42 3.25 1.1 3.25 1.1 5.1-2.37 9.53-1.87 9.53-1.87l1.22 2.57Z"/><path class="f" d="m80.09 25.23 2.16 1.55a5.58 5.58 0 0 0-.88 1.04c-1.12.58-2.31.94-2.31.94-.13-1.82.2-1.81.2-1.81.35-1.2.83-1.72.83-1.72Z"/><path class="e" d="m28.24 93.04 2.09-2.47 1.08-3.04-.45-1.26-1.58-1.72c-.06-1.39-.54-1.99-.54-1.99-1.04-3.36-.98-2.7-.98-2.7a5.6 5.6 0 0 0-2.47-1.9l.47-1.17 3.65-.09c1.83 1.9 2.09 3.3 2.09 3.3 2.09 1.07 1.83 1.45 1.83 1.45l2.54.95 2.09 3.36-1.33-3.55-4.81-2.6c-.13-1.26 0-1.45 0-1.45-.37-.7-.32-1.35-.32-1.35-.5-4.81-.13-3.97-.13-3.97l.5-2.73c1.15-2.91 1.4-2.47 1.4-2.47.89.16 1.02.25 1.02.25.88 3.74-.32 4.56-.32 4.56l.5.9.07 1.9.5 1.26-.5.76c.89-.5 1.08-.19 1.08-.19l.31-4.24.38-.99.32-1.3a30.82 30.82 0 0 0 2.22-3.35l1.33.25-.07 2.72-.63 2.16.13.7-.57 2.15.12 1.26-.85.86.95.22c1.2-1.45 1.8-2.66 1.8-2.66l.89-.57 1.4.89.18.82c-.5 1.46-.38 2.22-.38 2.22-1.26 1.14-1.58 2.15-1.58 2.15l-1.2-.25-.26-.5c0-1.46.51-2.86.51-2.86h-.19l-.19.64-.32.44-.44 2.53a5.82 5.82 0 0 1 1.65 1.02l1.52-1.08.57-1.46c.63.57 1.01.64 1.01.64l.25 1.52.2 1.9a8.15 8.15 0 0 0-1.59 1.83c-.57-.44-1.01-.44-1.01-.44l.19-1.7c.38-.64.31-1.02.31-1.02l-.57.38-.38.12.07 1.53-.32 1.51.76.32-.06 1.77c-1.52 1.78-2.12 3.27-2.12 3.27l-1.43.92-1.4-.32c.2.63.96 1.27.96 1.27l-.64.76-9.3-.07ZM172.5 20.4l-.06 2.22s1.14-.57 3.92-.32l1.59 2.41-4 2.28-3.54.13s-.38-1.78-.19-2.85c0 0-2.15.95-4.24 3.6 0 0-1.27-.82-2.35-1.96 0 0-1.4 1.71-2.53 5.45l-.5-3.8s.75-1.77 2.15-3.67l.19.31 1.9 1.52s2.02-1.96 5.63-2.85c0 0 .13-1.07 1.02-2.91l.8-.34 1.68.48-1.47.3Z"/><path class="d" d="M136.56 34.79h-8.34v-4.65h25v4.65h-8.33v35.56h-8.33V34.79Z"/><path class="d" d="M157.73 34.79h-8.33v-4.65h25v4.65h-8.34v35.56h-8.33V34.79Z"/><path class="e" d="M117.17 75.38h-2.82v-1.41h8.44v1.4h-2.81v6.82h-2.81v-6.81ZM140.8 75.38h-5.63v1.95h4.22v1.5h-4.22v1.86h5.63v1.5h-5.63c-1.56 0-2.81-.38-2.81-.85v-6.52c0-.47 1.25-.85 2.81-.85h5.63v1.4ZM153.22 78.08l-3.15-4.11h2.85l1.44 2.1c.12.19.2.36.27.54h.07c.08-.18.15-.35.27-.54l1.44-2.1h2.85l-3.15 4.1 3.15 4.12h-2.85l-1.44-2.11a3.52 3.52 0 0 1-.27-.54h-.07c-.08.18-.15.36-.27.54l-1.44 2.1h-2.85l3.15-4.1ZM169.21 75.17c0-.7 1.9-1.27 4.22-1.27s4.22.57 4.22 1.27v7.02h-2.8v-2.97h-2.82v2.97h-2.82v-7.02Z"/><path class="f" d="M172.03 75.38h2.81v2.27h-2.81z"/><path class="e" d="M188.56 80.05h2.81v.8h2.81l.04-1.99h-2.81c-1.56 0-2.81-.38-2.81-.85l-.04-2.84c0-.7 1.9-1.27 4.22-1.27s4.22.57 4.22 1.27v.94h-2.82v-.73h-2.81v2h2.81c1.56 0 2.82.37 2.82.84v2.76c0 .7-1.9 1.28-4.22 1.28s-4.22-.58-4.22-1.28v-.93Z"/><path class="d" d="M80.98 31.18H90v45.86h9.02v-10.6h9.01v15.58H80.98V31.18Z"/><path class="f" d="m172.57 26.22-.04-3.1c.57.12 1.37.06 1.37.06 1.14.54 2.09 1.7 2.09 1.7-1.17 1.05-1.56.96-1.56.96-1.17.44-1.86.38-1.86.38Z"/><path class="e" d="m212.73 67.71-1.82 1.92c-2.04.07-4.8-.33-4.8-.33-2.42 3.24-6.46 4.9-6.46 4.9l-1.68-2.66c5.17-.59 6.94-2.67 6.94-2.67a66.8 66.8 0 0 1-3.7-1.52l2.83-3.23 3.9-3.23 1.37 3.33c-1.1 2.58-1.81 3.39-1.81 3.39l1.74.67c1.66-1.13 2.96-2.93 3.02-2.9l.47 2.33Z"/><path class="f" d="m206.55 67.23-2.12-1.2.54-1.25c1.02-.75 2.5-1.03 2.5-1.03.37 1.52.02 1.73.02 1.73-.36 1.01-.94 1.75-.94 1.75Z"/><g><path class="e" d="M192.99 103.84c.77 0 1.46-1 1.51-2.2l.34-6.83c.05-1.21-.78-2.2-1.85-2.2-1.08 0-1.91.99-1.86 2.2l.34 6.83c.05 1.2.74 2.2 1.52 2.2Z"/><path class="d" d="M192.99 105.8c-1.87 0-3.37-1.75-3.48-4.06l-.33-6.84a4.19 4.19 0 0 1 1.12-3.08 3.69 3.69 0 0 1 5.37 0c.77.8 1.18 1.92 1.12 3.08l-.33 6.84c-.11 2.3-1.6 4.06-3.47 4.06Z"/><path class="f" d="M192.99 105.6c-1.77 0-3.18-1.67-3.28-3.87l-.33-6.84a3.99 3.99 0 0 1 1.06-2.94 3.5 3.5 0 0 1 5.1 0 4 4 0 0 1 1.05 2.94l-.33 6.84c-.1 2.2-1.51 3.87-3.27 3.87Zm-.03-11.24c.01.02-.08.14-.07.36l.1 1.93.09-1.93c0-.22-.08-.34-.12-.36Z"/><path class="d" d="M192.99 107.56c-2.83 0-5.08-2.47-5.24-5.74l-.33-6.83a5.95 5.95 0 0 1 1.97-4.74l-.06-.15.14.08a5.4 5.4 0 0 1 7.48.42 5.96 5.96 0 0 1 1.6 4.39l-.33 6.83c-.16 3.27-2.41 5.74-5.23 5.74Zm-1.57-10.82.24 4.89c.06 1.11.65 2.01 1.33 2.01.67 0 1.26-.9 1.32-2l.24-4.9h-3.13Z"/><g><path class="f" d="M196.94 108.04a3.96 3.96 0 1 1-7.91 0 3.96 3.96 0 0 1 7.91 0Z"/><path class="d" d="M192.99 113.96a5.92 5.92 0 1 1 0-11.85 5.92 5.92 0 0 1 0 11.85Zm0-7.92a2 2 0 1 0 0 4 2 2 0 0 0 0-4Z"/></g><g><path class="e" d="M193 110.28c-1.32 0-2.21-.97-2.21-2.26 0-1.34.92-2.25 2.23-2.25s2.18.91 2.2 2.25c0 1.29-.86 2.26-2.2 2.26H193Zm-1.4-5.76-.54-11.22h3.92l-.55 11.22h-2.82Z"/><path class="d" d="M193.02 112.23H193a4.1 4.1 0 0 1-4.17-4.2c0-1.01.32-1.92.86-2.63l-.68-14.06h8.02l-.68 14.09c.51.69.82 1.57.83 2.56a4.1 4.1 0 0 1-4.16 4.24Zm0-4.5c-.2 0-.27 0-.27.3 0 .29.1.29.25.29h.02c.17 0 .25 0 .25-.3 0-.16-.06-.26-.07-.27 0 0-.06-.03-.18-.03Z"/></g></g><g><path class="f" d="M186.38 96.88c-1.48-1.49-3.6-2.21-6.45-2.21-1.63 0-2.37.16-2.37.16-1.17.25-2.13.33-2.13.18s-.47-.3-1.04-.32l-1.27-.05h-.64c-.65.12-2.16.22-3.36.22h-6.95c-.17 0-.31-.74-.31-1.64 0-.9-.98-1.63-2.18-1.63h-4.53c-1.2 0-2.17.74-2.17 1.63 0 .9-.34 1.64-.76 1.64h-3.04c-1.2 0-2.32.25-2.51.56-.19.31-.5.31-.68 0-.18-.3-1.32-.56-2.51-.56h-.86c-1.2 0-2.18-.85-2.18-1.9s-.98-1.9-2.17-1.9h-13.43c-1.2 0-2.17.99-2.17 2.18v16.7c0 1.19.98 2.17 2.17 2.17h18.44c1.2 0 2.35-.3 2.57-.65.22-.36.57-.36.8 0 .2.36 1.36.65 2.56.65h5.8c1.2 0 2.16-.01 2.16-.02-.01-.01.65.11 1.46.28h1.92a9.23 9.23 0 0 1 1.92-.37c0 .06.98.1 2.18.1h4.53c1.2 0 2.17-.97 2.17-2.17v-1.83c0-1.2.04-2.52.09-2.95.04-.43.26-.76.17-.4-.1.38-.17 1.45-.17 1.46l.87 2.02s1.8 4.16 5.64 4.16h.75c.76-.15 2.36-.28 3.55-.28h3.98c1.2 0 2.17-.98 2.17-2.18v-5.24c0-1.2-.15-3.14-.33-4.32 0 0-.33-2.17-1.69-3.5Zm-24.21 6.84c-.17.08-.31-.08-.31-.36 0-.28.14-.5.3-.5.17 0 .31.16.31.36a.6.6 0 0 1-.3.5Zm-22.09.1c-.26 0-.47-.62-.47-1.38 0-.76.35-.85.79-.2.43.65.65 1.4.47 1.65-.17.26-.3.35-.3.2 0-.14-.22-.27-.49-.27Zm12.1.77c-.43-.65-.7-1.31-.6-1.46.1-.15.46-.27.8-.27.33 0 .6.66.6 1.46 0 .8-.36.93-.8.27Z"/><path class="d" d="M178.92 114.57h-.97c-2.26 0-3.98-1-5.21-2.14a4.35 4.35 0 0 1-3.56 1.85h-4.53c-.62 0-1.2 0-1.65-.03a4.93 4.93 0 0 1-.6-.06c-.24.04-.7.14-1.32.3l-.26.06h-2.4l-.22-.05c-.55-.11-.97-.2-1.18-.23h-.47l-1.54.01h-5.8c-.8 0-1.98-.08-2.98-.51-1.06.45-2.3.51-2.95.51h-18.44a4.35 4.35 0 0 1-4.35-4.35V93.24c0-2.4 1.95-4.35 4.35-4.35h13.43c2.3 0 4.18 1.68 4.34 3.8h.87c.9 0 1.96.09 2.85.43a8.23 8.23 0 0 1 2.85-.44h1.67c.29-1.87 2.08-3.26 4.3-3.26h4.53c2.23 0 4.02 1.4 4.31 3.26h5.13c1.13 0 2.5-.1 2.96-.18l.2-.04h.91l1.3.06c.7.03 1.24.16 1.66.35.23-.03.55-.08.95-.17.16-.03 1.06-.2 2.83-.2 3.46 0 6.07.92 8 2.84a9.09 9.09 0 0 1 2.29 4.7c.2 1.3.36 3.34.36 4.65v5.24c0 2.4-1.95 4.35-4.35 4.35h-3.98c-1.12 0-2.56.13-3.11.24l-.22.05Zm-17.9-.95c.33.3.75.5 1.21.54-.54-.11-.93-.3-1.21-.54Zm3.47-2.43Zm9.16-5.33.65 1.5c0 .02 1.32 2.86 3.65 2.86h.54c1.06-.19 2.68-.29 3.76-.29h3.98v-5.24c0-1.09-.14-2.91-.3-3.99a4.86 4.86 0 0 0-1.07-2.26c-1.07-1.08-2.68-1.6-4.93-1.6-1.31 0-1.93.12-1.94.12-.51.11-1.52.3-2.26.3a3.1 3.1 0 0 1-.74-.08 2.34 2.34 0 0 1-.73-.32l-1.18-.05h-.42c-.94.15-2.47.22-3.54.22h-6.96c-1.06 0-2.31-.58-2.46-3.26H155.13c-.19 1.92-1.35 3.26-2.91 3.26h-3.04c-.49 0-.89.06-1.13.1a2.51 2.51 0 0 1-3.44 0c-.24-.04-.64-.1-1.13-.1h-.86c-2.3 0-4.19-1.67-4.34-3.79h-13.44v16.7h18.44c.48 0 .88-.07 1.11-.13.5-.5 1.16-.8 1.86-.8.7 0 1.36.3 1.85.8.23.06.63.12 1.11.12h6.63l.01-.02h1.32c.22 0 .3 0 1.68.29h1.44c1.58-.38 1.98-.38 2.13-.38.22 0 .42.02.61.07.26.02.81.04 1.62.04h4.53v-1.83c0-1.1.03-2.6.1-3.18.19-1.84 1.38-2.5 2.34-2.5h1.06l.66.84c.3.4.62 1.06.38 2.02-.02.09-.05.33-.07.58Zm3.79-11.68Zm-24.75 13c-.64 0-1.55-.23-2.31-1.38-1.09-1.64-1.28-2.87-.61-3.88.61-.91 1.74-1.24 2.6-1.24 1.64 0 2.78 1.5 2.78 3.64 0 1.97-1.28 2.87-2.46 2.87Zm-1.87-2.99c.17.34.73.84 1.55.84.32 0 .75-.3 1.02-.7a2 2 0 0 0 .34-1.18 1.86 1.86 0 0 0-1.04-.31c-1.1 0-1.75.82-1.87 1.35Zm-10.22 2.15a2.2 2.2 0 0 1-1.44-.53c-.96-.41-1.73-1.5-1.73-3.37 0-1.84 1.24-2.8 2.46-2.8.63 0 1.54.24 2.32 1.4.37.56 1.51 2.5.47 4.06-.68 1.02-1.5 1.24-2.08 1.24Zm-1.84-2.73a1.95 1.95 0 0 0 3-1.01c-.07-.14-.2-.3-.37-.46-.24-.1-.5-.15-.79-.15-.87 0-1.41.52-1.53.7-.24.35-.3.7-.31.92Zm23.32 2.3c-1.34 0-2.4-1.12-2.4-2.55 0-1.5 1.1-2.68 2.49-2.68a2.51 2.51 0 0 1 2.48 2.54c0 1.03-.62 2.02-1.54 2.46-.33.16-.68.24-1.03.24Zm0-4.34c-.3 0-.59.06-.85.19-.6.28-.93.81-.93 1.46 0 1 .83 1.81 1.87 1.81 1 0 1.86-.78 1.86-1.67 0-.85-.8-1.8-1.95-1.8Z"/></g><path class="f" d="M186.38 96.88c-1.48-1.49-3.6-2.21-6.45-2.21-1.63 0-2.37.16-2.37.16-1.17.25-2.13.33-2.13.18s-.47-.3-1.04-.32l-1.27-.05h-.64c-.65.12-2.16.22-3.36.22h-6.95c-.17 0-.31-.74-.31-1.64 0-.9-.98-1.63-2.17-1.63h-4.54c-1.2 0-2.17.74-2.17 1.63 0 .9-.34 1.64-.76 1.64h-3.04c-1.2 0-2.32.25-2.51.56-.19.31-.5.31-.68 0-.18-.3-1.32-.56-2.51-.56h-.86c-1.2 0-2.18-.85-2.18-1.9s-.98-1.9-2.17-1.9h-13.43c-1.2 0-2.17.99-2.17 2.18v16.7c0 1.19.98 2.17 2.17 2.17h18.44c1.2 0 2.35-.3 2.57-.65.22-.36.57-.36.8 0 .2.36 1.36.65 2.56.65h5.8c1.2 0 2.16-.01 2.16-.02-.01-.01.65.11 1.46.28h1.92a9.23 9.23 0 0 1 1.92-.37c0 .06.98.1 2.18.1h4.53c1.2 0 2.17-.97 2.17-2.17v-1.83c0-1.2.04-2.52.09-2.95.04-.43.26-.76.17-.4-.1.38-.17 1.45-.17 1.46l.87 2.02s1.8 4.16 5.64 4.16h.75c.76-.15 2.36-.28 3.55-.28h3.98c1.2 0 2.17-.98 2.17-2.18v-5.24c0-1.2-.15-3.14-.33-4.32 0 0-.33-2.17-1.69-3.5Zm-24.21 6.84c-.17.08-.31-.08-.31-.36 0-.28.14-.5.3-.5.17 0 .31.16.31.36a.6.6 0 0 1-.3.5Zm-22.09.1c-.26 0-.47-.62-.47-1.38 0-.76.35-.85.79-.2.43.65.65 1.4.47 1.65-.17.26-.3.35-.3.2 0-.14-.22-.27-.49-.27Zm12.1.77c-.43-.65-.7-1.31-.6-1.46.1-.15.46-.27.8-.27.33 0 .6.66.6 1.46 0 .8-.36.93-.8.27Z"/><path class="f" d="M136.46 100.16h27.92v7.18h-27.92z"/><g><path class="e" d="M124.44 93.24h13.43v3.94h-8.85v2.52h8.01v3.65h-8.01V106h8.97v3.93h-13.55V93.24ZM143.4 103.42l-4.27-6.39h4.9l1.9 3.17 1.9-3.17h4.8l-4.25 6.37 4.34 6.53h-4.86l-2-3.31-2.03 3.31h-4.77l4.34-6.5ZM154.75 105.93v-5.25h-1.52v-3.65h1.52v-3.26h4.53v3.26h3v3.65h-3v4.37c0 .9.41 1.28 1.24 1.28.6 0 1.17-.16 1.72-.43v3.56c-.8.45-1.88.74-3.15.74-2.72 0-4.34-1.2-4.34-4.27ZM164.24 97.03h4.54v2.6c.74-1.76 1.93-2.9 4.07-2.81v4.77h-.38c-2.36 0-3.7 1.36-3.7 4.34v4h-4.53v-12.9ZM173.21 106.24v-.05c0-2.67 2.03-4.05 5.06-4.05 1.19 0 2.36.23 3.1.5v-.22c0-1.33-.84-2.1-2.58-2.1-1.36 0-2.4.27-3.55.72l-.93-3.2c1.45-.6 3-1 5.22-1 2.31 0 3.89.55 4.91 1.58.98.95 1.39 2.28 1.39 4.1v7.41h-4.49v-1.33a4.86 4.86 0 0 1-3.79 1.62c-2.45 0-4.34-1.4-4.34-3.98Zm8.2-.98v-.6a4.75 4.75 0 0 0-1.76-.33c-1.31 0-2.07.64-2.07 1.6v.05c0 .88.66 1.4 1.6 1.4 1.3 0 2.24-.83 2.24-2.12Z"/></g><path class="f" d="M171.01 103.75h1.05v2.39h-1.05z"/><g><path class="e" d="M192.99 103.84c.77 0 1.46-1 1.51-2.2l.34-6.83c.05-1.21-.78-2.2-1.85-2.2-1.08 0-1.91.99-1.86 2.2l.34 6.83c.05 1.2.74 2.2 1.52 2.2Z"/><path class="f" d="M192.99 105.6c-1.77 0-3.18-1.67-3.28-3.87l-.33-6.84a3.99 3.99 0 0 1 1.06-2.94 3.5 3.5 0 0 1 5.1 0 4 4 0 0 1 1.05 2.94l-.33 6.84c-.1 2.2-1.51 3.87-3.27 3.87Zm-.03-11.24c.01.02-.08.14-.07.36l.1 1.93.09-1.93c0-.22-.08-.34-.12-.36Z"/><path class="f" d="M196.94 108.04a3.96 3.96 0 1 1-7.91 0 3.96 3.96 0 0 1 7.91 0Z"/><path class="e" d="M193 110.28c-1.32 0-2.21-.97-2.21-2.26 0-1.34.92-2.25 2.23-2.25s2.18.91 2.2 2.25c0 1.29-.86 2.26-2.2 2.26H193Zm-1.4-5.76-.54-11.22h3.92l-.55 11.22h-2.82Z"/></g><path class="d" d="M182.77 93.3h5.63v1.62h-5.63zM152.83 92.4c0 .76-.73 1.37-1.63 1.37h-7.65c-.9 0-1.62-.61-1.62-1.36 0-.75.72-1.36 1.62-1.36h7.65c.9 0 1.63.6 1.63 1.36Z"/><path class="d" d="M152 89.6c0 1.23-.51 2.22-1.15 2.22h-7.3c-.64 0-1.15-.99-1.15-2.21 0-1.23.51-2.22 1.15-2.22h7.3c.64 0 1.15 1 1.15 2.21Z"/><g><path class="f" d="M141.47 89.75c-.03-1 .12-1.8.35-1.8.22 0 .4.5.4 1.12v1.13l.53-1.13c.28-.62.69-1.13.9-1.13.23 0 .4.51.4 1.13l.01 1.13.52-1.13c.28-.62.69-1.13.92-1.13.22 0 .02.82-.46 1.81-.48 1-1.04 1.81-1.26 1.81s-.4-.5-.4-1.13l-.03-1.12-.52 1.12c-.28.62-.69 1.13-.9 1.13-.22 0-.42-.81-.46-1.8Z"/><path class="d" d="M143.78 92.5c-.36 0-.67-.15-.9-.44-.27.26-.59.45-.95.45-.88 0-1.34-.9-1.4-2.72-.03-.85.03-1.96.52-2.46a1.11 1.11 0 0 1 1.66.1c.27-.25.58-.43.95-.43.36 0 .66.15.88.43.27-.25.6-.43.96-.43.35 0 .67.18.86.48.15.24.47.73-.47 2.68-1.12 2.35-1.79 2.35-2.1 2.35Z"/><path class="f" d="M146.97 89.75c-.22 1-.6 1.81-.83 1.81-.24 0-.25-.81-.03-1.8.22-1 .6-1.82.83-1.82.24 0 .25.82.03 1.81Zm.12-2.47c-.24 0-.4-.18-.34-.4.05-.23.28-.41.52-.41.23 0 .39.18.34.4a.55.55 0 0 1-.52.4Z"/><path class="d" d="M146.14 92.5c-.32 0-.62-.14-.83-.4-.13-.16-.54-.67-.13-2.55.23-1 .5-1.61.77-1.98-.15-.27-.2-.59-.13-.9a1.5 1.5 0 0 1 1.45-1.15 1.28 1.28 0 0 1 1.27 1.55c-.08.34-.27.62-.53.83.1.37.12 1-.11 2.06-.57 2.55-1.47 2.55-1.76 2.55Zm.8-5.5c.25 0 .48.08.67.24a.5.5 0 0 0 .06-.16.62.62 0 0 0-.12-.52.6.6 0 0 0-.46-.23c-.2 0-.36.13-.4.34a.61.61 0 0 0 .02.35c.1-.02.18-.02.23-.02Z"/><g><path class="f" d="M148.24 87.94c.14 0 .31-.26.38-.6.08-.32.33-.6.57-.6s.37.28.3.6c-.08.34.02.6.22.6s.32.16.28.35c-.05.2-.24.35-.44.35s-.45.46-.58 1.02c-.12.56-.2 1.14-.18 1.27h.21c.14 0 .28-.04.42-.07-.1.4-.37.74-.62.77h-.24c-.64 0-.81-.32-.7-.84.26-1.18.36-2.15.23-2.15-.14 0-.22-.16-.18-.35.05-.19.2-.35.33-.35Z"/><path class="d" d="M148.86 92.58h-.3c-.75 0-1.16-.31-1.37-.57-.2-.26-.41-.72-.26-1.42.15-.68.23-1.17.25-1.46-.2-.3-.27-.67-.2-1.04.1-.43.37-.78.72-.96.18-.77.8-1.33 1.49-1.33.37 0 .72.17.96.46.21.27.32.61.3.98a1.2 1.2 0 0 1 .46 1.26c-.1.46-.46.84-.9 1l-.1.29.75-.16-.32 1.44c-.15.66-.65 1.4-1.43 1.5h-.05Z"/></g><g><path class="f" d="M150.3 91.56c-.24 0-.19-1.13.12-2.51.3-1.38.75-2.5.99-2.5s.34.4.23.89c-.1.49.13.69.52.43h.43c.72 0 .96.48.8 1.22-.3 1.35-.74 2.47-.98 2.47s-.32-.53-.17-1.18c.14-.64.26-1.46.25-1.81h-.3c-.37 0-.7.21-.88.38-.32 1.44-.78 2.61-1.01 2.61Z"/><path class="d" d="M152.4 92.5c-.33 0-.65-.15-.86-.42-.08-.09-.13-.2-.18-.3-.42.73-.8.73-1.06.73-.32 0-.6-.15-.8-.4-.18-.2-.57-.7 0-3.27.72-3.25 1.5-3.25 1.9-3.25.36 0 .69.16.91.44.19.23.3.54.32.9.74 0 1.16.34 1.39.62.24.3.5.85.3 1.74-.72 3.22-1.5 3.22-1.91 3.22Z"/></g><g><path class="f" d="M141.4 88.02h.83v2.26l1.03-2.26h.8v2.26h.01l1.01-2.26h.83l-1.74 3.62h-.78l-.03-2.25h-.02l-1.02 2.25h-.78l-.13-3.62ZM146.57 91.64h-.86l.8-3.62h.86l-.8 3.62Zm.09-4.28.18-.81h.86l-.18.8h-.86ZM148.5 88.02l.26-1.2h.86l-.27 1.2h.71l-.15.7h-.71l-.45 2.04c-.05.2.04.25.25.25.14 0 .28-.04.41-.07l-.15.71c-.25.03-.46.06-.7.06-.64 0-.81-.32-.7-.83l.48-2.16h-.5l.15-.7h.5ZM149.86 91.64l1.12-5.02h.86l-.4 1.8c.31-.23.72-.46 1.15-.46.72 0 .96.47.8 1.2l-.55 2.48h-.86l.52-2.35c.1-.49-.01-.64-.3-.64-.38 0-.71.22-.9.38l-.57 2.61h-.87Z"/></g></g><path class="f" d="m51.68 15.84 2.07-1.05.47-.26.03.03c-.5 1.26-.47 2.84-.47 2.84M6.19 1.33H3.84V.1h7.03v1.23H8.53V12H6.19V1.33ZM27.42 1.33h-4.68v4.1h3.5v1.23h-3.5v4.1h4.68v1.23h-4.68c-1.3 0-2.34-.55-2.34-1.23V1.33C20.4.65 21.43.1 22.73.1h4.68v1.23ZM39.6 6.05 36.97.1h2.37l1.2 3.05c.1.26.17.51.23.78h.06a7 7 0 0 1 .22-.78L42.25.1h2.38L42 6.05l2.63 5.94h-2.37l-1.2-3.04c-.1-.27-.16-.52-.23-.79h-.06c-.06.27-.13.52-.22.79l-1.2 3.04h-2.38l2.63-5.94ZM54.75 1.85C54.75.83 56.33 0 58.26 0c1.93 0 3.52.83 3.52 1.85v10.14h-2.35V6.66H57.1V12h-2.34V1.85Zm2.34 3.58h2.34v-4.1H57.1v4.1ZM72.5 8.9h2.34v1.86h2.34v-4.1h-2.34c-1.3 0-2.34-.55-2.34-1.23V1.85C72.5.83 74.08 0 76.01 0c1.93 0 3.52.83 3.52 1.85V3.2h-2.35V1.33h-2.34v4.1h2.34c1.3 0 2.35.55 2.35 1.23v3.58c0 1.02-1.59 1.85-3.52 1.85s-3.5-.83-3.5-1.85V8.9ZM103.32.1h2.34v10.66H108V8.29h2.34V12h-7.02V.1ZM120.5 1.85C120.5.83 122.08 0 124 0c1.93 0 3.51.83 3.51 1.85v8.4c0 1.01-1.58 1.84-3.51 1.84-1.93 0-3.51-.83-3.51-1.85v-8.4Zm4.68-.52h-2.34v9.43h2.34V1.33ZM139.7 1.33h-2.34V.1h7.03v1.23h-2.35V12h-2.34V1.33ZM155.37 1.33h-2.34V.1h7.02v1.23h-2.34V12h-2.34V1.33ZM176.92 1.33h-4.68v4.1h3.5v1.23h-3.5v4.1h4.68v1.23h-4.68c-1.3 0-2.35-.55-2.35-1.23V1.33c0-.68 1.05-1.23 2.35-1.23h4.68v1.23ZM187.07.1h4.68c1.3 0 2.34.55 2.34 1.23V5.1c0 .56-.47.78-1.04.95.57.11 1.04.36 1.04 1.1v3.96c0 .33.26.58.58.88h-2.4c-.26-.25-.52-.58-.52-.88V6.66h-2.34V12h-2.34V.1Zm2.34 5.33h2.34v-4.1h-2.34v4.1ZM207.16 6.68a4.39 4.39 0 0 1-1.7-.68c-.42-.32-.64-.69-.64-1.07V.1h2.34v5.35h2.34V.1h2.35v4.83c0 .38-.23.75-.64 1.07-.41.3-.98.53-1.7.68v5.31h-2.35V6.68Z"/></g></svg>