<svg xmlns="http://www.w3.org/2000/svg" id="b" viewBox="0 0 410.78 199.89"><defs><radialGradient id="e" cx="-134.91" cy="578.31" r="1.54" fx="-134.91" fy="578.31" gradientTransform="translate(3280.086 13710.3) scale(23.606 -23.606)" gradientUnits="userSpaceOnUse"><stop offset="0" stop-color="#fff"/><stop offset=".08" stop-color="#fefdf4"/><stop offset=".21" stop-color="#fef8d9"/><stop offset=".38" stop-color="#feefad"/><stop offset=".58" stop-color="#fee470"/><stop offset=".8" stop-color="#fed623"/><stop offset=".88" stop-color="#fed107"/></radialGradient><clipPath id="d"><path d="M60.13 72.62a46.62 46.62 0 1 0 93.24 0 46.62 46.62 0 0 0-93.24 0" style="fill:none"/></clipPath><style>.f{fill:#e22028}.g{fill:#fdd10a}.i{fill:#2f2e7b}.m{fill:#7b868a}</style></defs><g id="c"><path d="M79.2 169.23c-6.4-2.12-12.55-4.4-18.36-6.8 9.87 6.24 22.41 11.8 35.77 15.78a132.9 132.9 0 0 0 17.92 4.3c2.06.34 3.68.57 5.5.77l.54-3.86c-12.44-1.86-26.48-5.25-41.37-10.19" class="g"/><path d="m284.59 98.17 14.81.02v-3.27l-14.83-.01.02 3.26zM302.66 94.92l-.01 5.26 2.33-.03v6.41a36.99 36.99 0 0 0 6.64 11.25c5.54 6.33 12.97 9.76 21.08 9.76.59 0 1.19-.02 1.79-.06 7.28-.44 14.33-4.2 19.63-10.31-4.77 4.16-10.5 6.7-16.37 7.05a29 29 0 0 1-1.79.05c-8.1 0-15.53-3.42-21.08-9.75-6.52-7.46-9.97-18.17-9.96-30.97 0-13.18 3.48-24.26 9.86-31.7-.18.16-.37.3-.55.47-5.9 5.3-9.86 13.24-11.58 22.93l.02 19.64ZM345.03 74.23c-1.18-3.25-3.38-5.2-6.04-5.35a6.62 6.62 0 0 0-5.05 1.92c-.62.59-1.2 1.3-1.7 2.13a6.4 6.4 0 0 1 3.48-.79c2.1.12 3.9 1.37 5.15 3.47l8.86.27 12.2-5.71-.3-1.9-.12-.37-15.96 7.77-.52-1.44ZM164.98 161.61c.17-.93.37-1.86.62-2.77l5.16-17.92-2.36.13-4.84 16.83 1.42 3.73Z" class="m"/><path d="m332.63 78.7-.18 18.53c.3.4.62.77.95 1.1a7.2 7.2 0 0 0 1.76 1.3l5.46-.01a6.75 6.75 0 0 0 3.28-3.27l-8.21.02.17-17.56-3.23-.12ZM255.82 127.86l-2.56.15.05 3.07 48.41-2.84v-3.07l-45.15 2.65-1.22-89.31-3.31-.34.97 71.42 2.81 18.27zM284.41 67.9l16.63.98v-3.45l-16.65-.98.02 3.45zM406.2 137.14l.01-.03c-1.37-1.13-2.57-1.62-3.79-1.53-.23.02-.6.1-.69.42l.39.09 2.2.47c.62.13 1.26.32 1.89.58ZM398.7 148.95s1.08-.16 1.1-.84v-.02a5.7 5.7 0 0 0-.48-.08l-2.01-.27a9.16 9.16 0 0 1-3.6-1.23l.53.5c1.58 1.44 3.07 2.1 4.45 1.94ZM392.16 145.27c-1.47-1.51-2.44-3.76-2.35-6.92.11-3.42 1.17-6.27 2.76-8.5a13.76 13.76 0 0 0-3.5 3.59l-.7 23.36 3.79-11.53ZM364.09 102.45l-5.56 22.46 20.59-1.2.53-3.1-17.86 1.04 17.4-70.3-2.4-.25-10.66 43.11a44.4 44.4 0 0 1-2.04 8.25ZM393.19 111.52l-9.34.37-.54 3.15 6.62-.26 1.16 8.23 18.06-1.07-.56-3.04-14.23.84-1.17-8.22zM376.95 139.34c-.01-.57-.02-1.15 0-1.73l.23-8.35-3.18.18-.1 3.42 3.05 6.48ZM206.83 130.74l-18.56 1.08-14.14-43.26c-.51-1.86-.99-3.64-1.4-5.4-.06 1.54-.13 3.08-.22 4.6l-.43 7.78L185 135.09l21.01-1.23.81-3.12ZM338.64 168.32c-.98.13-1.95.2-2.9.2a16.8 16.8 0 0 1-11.26-4.02c-3.8-3.33-5.78-8.33-5.75-14.46a23.23 23.23 0 0 1 5.02-14.5 21.96 21.96 0 0 0-6.9 9.84l-.08 15.8c.97 2.6 2.45 4.83 4.45 6.58a16.8 16.8 0 0 0 11.26 4.02c.95 0 1.92-.07 2.9-.2a21.05 21.05 0 0 0 13.72-7.68 21.24 21.24 0 0 1-10.45 4.42ZM252.1 128.08l-26.34 1.54-4.57-44.92c-.14.6-.28 1.2-.44 1.78l-2.14 8.23 3.89 38.18 30.06-1.77-.47-3.04ZM270.38 176.89l-.48-41.57-3.3.19.3 25.67 1.83-.2.22 16.11-1.86.25.03 2.82 29.33-3.93v-2.83l-26.07 3.49zM376.9 162.62l-6.03-12.06v.68l-.21 8.68 2.98 5.96 11.33-1.52.08-2.84-8.14 1.1ZM399.42 160.1a18.08 18.08 0 0 1-10.33-1.8l-.76-.4-.1 3.2-2.61.35.2.1a18.08 18.08 0 0 0 10.34 1.8 13.82 13.82 0 0 0 9.28-5.66 13.72 13.72 0 0 1-6.02 2.4ZM236.23 181.47l-1.08-44.19-3.34.19 1.16 47.27 32.71-4.39-.03-2.82-29.42 3.94zM357.83 165.17l.7-34.86-3.2.18-.12 6.31a20.86 20.86 0 0 1 2.1 9.84 23.45 23.45 0 0 1-2.5 10.21l-.24 11.58 12.74-1.7.07-2.84-9.55 1.28ZM300.8 172.82l-.03-39.25-3.27.19.02 24.07 2.17-.24.03 15.38-2.19.29v2.82l15.94-2.14.01-2.82-12.68 1.7zM166.9 133.07l-36.28 2.13 12.32-108.34-3.67-.31-12.73 111.9 40.18-2.3.18-3.08zM121.78 196.82l7.52-53.56-3.64-.03-7.96 56.66 26.85-3.3.19-2.85-22.96 3.08zM197.46 78c.33-2.8.74-5.58 1.34-8.24l8.4-36.24-2.45-.26-8.94 38.6 1.65 6.13ZM209.92 184.99l-1.58-46.19-3.37.19 1.69 49.27 20.98-2.81-.08-2.81-17.64 2.35zM184.38 188.42l-3.26-21.43-2.56 7.89 2.56 16.81 22.02-2.96-.63-2.74-18.13 2.43zM159.14 191.8l-9.64-21.17-.16-.42v.02l-.61 9.15 7.14 15.69 14.57-1.96.96-2.95-12.26 1.65Z" class="m"/><path d="m144.56 24.8 38.2 3.97 14.67 54.42.84.02c.46-4.34.92-8.95 1.87-13.14l8.94-38.58 31.03 3.22 14.12 91.86-27.23 1.6-5.25-51.53-.55-.02c-.49 3.17-.96 6.47-1.78 9.5l-11.21 43.15-18.96 1.11-13.81-42.25c-1.2-4.38-2.27-8.52-2.7-12.93l-1.17-.03c-.1 4.13-.2 8.4-.43 12.51l-2.46 43.9-36.5 2.14 12.38-108.91ZM256.7 36.43l46.21 4.79.02 22.94L283 62.99l.05 8.26 18.22.79.02 21.5-18.1-.01.05 8.34 20.36-.32v22.13l-45.67 2.68-1.23-89.93zM365.85 77.89c-.35 11.78-.52 21.6-6.36 30.88-5.36 8.57-13.69 13.6-21.83 14.1-8.28.51-16-2.67-21.74-9.23-5.9-6.75-9.63-16.96-9.62-30.06 0-26.93 14.51-41.8 32.28-39.9 9.28.98 21.35 8.72 24.98 21.69l-17.24 8.4c-1.41-3.91-4.13-6.09-7.25-6.27-7.13-.4-11.2 8.18-11.27 17.66-.06 8.6 3.72 16.6 10.15 16.49a8.22 8.22 0 0 0 7.84-6.68l-8.71.02.17-18.13 28.6 1.02ZM385.9 94.24l3.37-20.9.57.03c.21 2.93.42 5.94.8 8.86l1.5 12h-6.25Zm-3.22 16.32 11.7-.47 1.16 8.2 15.24-.9-12.28-66.26-17.4-1.8-17.52 70.83 17.63-1.03 1.47-8.58Z" class="f"/><path d="m209.66 137.03 18.59-1.06 1.24 45.02-18.24 2.44-1.59-46.4zM236.49 135.51l16.99-.96.54 29.43 13.35-1.47.18 13.38-29.98 4.01-1.08-44.39zM271.25 133.54l15.02-.84.19 27.72 11.85-1.29.03 12.63-26.6 3.56-.49-41.78zM302.14 131.79l13.38-.75-.16 38.43-13.19 1.77-.03-39.45zM359.95 128.53l10.13-.57 8.56 18.22.29-.04c-.33-2.76-.68-5.63-.6-8.5l.28-10.16 9.28-.53-1 32.93-9.2 1.24-8.37-16.74-.3.03c.27 2.34.52 4.53.47 6.8l-.27 11.04-9.98 1.34.7-35.06ZM392.85 147.59l.45.42c1.58 1.45 3.49 2.54 5.55 2.3.87-.1 2.28-.71 2.33-2.14.05-1.43-1.12-1.43-1.92-1.56l-1.77-.23c-3.52-.45-6.46-2.87-6.3-7.98.24-7.8 5.86-12.48 11.24-12.78 2.76-.15 5.23.6 7.47 2.35l-2.62 8.24c-1.43-1.22-3.07-2.15-4.97-2-.77.06-1.92.53-1.97 1.85-.03 1.19 1.06 1.27 1.73 1.42l1.96.43c3.63.77 6.14 3.1 5.94 8.39-.29 7.4-5.53 11.73-10.73 12.43-3.1.42-6.71-.2-9.52-1.66l3.13-9.48ZM130.95 141.47l24.34-1.38 9.9 25.92.56-.05c.28-2.22.57-4.57 1.18-6.75l5.79-20.1 21.27-1.2 10.73 46.4-19.18 2.56-3.96-26.02-.38.04c-.31 1.64-.62 3.35-1.16 4.97l-7.38 22.74-12.7 1.7-9.21-20.24a28 28 0 0 1-1.8-6.21l-.76.06c-.05 2.06-.1 4.17-.23 6.23l-1.45 21.97-23.12 3.1 7.55-53.74ZM338.94 129.13c-10.1.56-18.75 8.9-18.83 20.92-.07 12.16 8.35 18.25 18.35 16.9 9.6-1.3 17.25-9.04 17.47-20.33.2-11.15-7.31-18.03-16.99-17.49" class="i"/><path d="m337.5 144.15 2.9-9.9 3.24 9.42 8.25-.68-6.37 6.14 2.84 8.53-7.34-4.3-8.62 8.23 3.27-11.17-9.52-5.45 11.35-.82z" style="fill:#fff"/><g style="clip-path:url(#d)"><path d="M60.13 26h93.24v93.24H60.13z" style="fill:url(#e)"/></g><path d="M105.53 128.17c-4.87.2-9.62-.04-14.17-.69a43.77 43.77 0 0 0 28.4 5.99 38.38 38.38 0 0 0 17.45-6.08l1-.7.4-.3c2.7-1.82 5.27-4 7.6-6.5a44.2 44.2 0 0 0 7.81-11.53l.67-1.5.11-.24.34-.76c.59-1.44 1.1-2.9 1.5-4.37-8.92 14.87-28.26 25.67-51.11 26.68" class="g"/><path d="m143.17 71.86.79-8.62-4.7 5.95-6.46-4.64 2.5-8.27 7.03 1.47-5.46-6.58 2.33-7.41-5.84 3.17-6.34-7.65 2.22 10.02-6.71 3.6-5.33-8.79 5.54-7-9.45.5-6.39-10.73-.07 11.06-12.48.66 12.57 6.65-.14 11.32-12.91-.05-6.29-13-3.69 12.94-18.47-.22 16.13 8.42-4.16 14.6 13.23-10.04 11.92 6.33-5.43 12.21-16.27.69 12.35 8.05-6.73 14.8 13.32-10.5 9.9 6.45-2.64-12.33 9.7-7.57 6.16 7.97-5.74 11.42 9.52-6.5 5.42 7.17-.46-10.57 7.33-5.02-7.7-1.65-.4-10.03 7.46-1.86 3.5 8.22.85-9.3 6-1.43-5.5-3.9Zm-12.49 8.16-4.6 8.98-9.34-1.96-11.25.35-2.59-11.93-5.37-11.4 9.45-7.29 6.53-7.97 8.9 4.66 8.1 1.82 2.08 9.35 3.53 8.46-5.43 6.93Z" class="i"/><path d="M22.43 44.83c-4.2 10.7-2.03 36.38 7.58 54.14 3.5 7.22 7.8 14.36 12.83 21.3C30.2 107 15.88 85.69 10.16 58.99c6.09-8.8 8.4-10.34 12.27-14.16Z" class="f"/><path d="M87.73 22.76A41.4 41.4 0 0 1 94 20.8C88.5 17.73 46.8-4.41 16.08 16.4-9.84 33.95 2.7 70.41 5.46 77.49 13 98.1 28.08 119.03 47.88 136.42c19.23 16.86 41.91 27.24 62.77 32.32l.22-.62c-12.79-6.13-24.4-16.34-35.9-26.42-33.76-29.63-52.02-69.1-44.38-95.12a157.55 157.55 0 0 1 23.82 14.64c.37-1.6.8-3.19 1.31-4.74a160.22 160.22 0 0 0-25.5-15.18l-2.28-1.07-.86 2.35C22.1 56.06 23.83 73.7 31.9 92.23c8.1 18.56 22.32 37.35 40.05 52.9 5.1 4.48 10.35 8.6 15.74 12.34a162.88 162.88 0 0 1-36.78-24.52C31.68 116.07 17.06 95.81 9.75 75.87 7.2 69.31-4.38 35.8 18.65 20.2c8.62-5.83 18.35-7.91 27.85-7.91 17.16 0 33.57 6.78 41.23 10.48Z" class="g"/><path d="M80.55 26.21c-9.61-3.77-24.31-9.19-33.91-9.19-9.89 0-18.48 2.43-25.53 7.2a28.12 28.12 0 0 0-2.02 1.52l-.06.05c-.34.28-.67.57-1.02.88l-.17.16-.31.28c-.38.36-.75.74-1.1 1.13l-.64.71-.03.04-.5.6c-.23.29-.46.58-.67.87l-.15.21-.09.12c-4.72 6.66-5.83 14.95-5.37 22.73a41.6 41.6 0 0 1 3.74-4.97c3.8-4.34 9.16-10.1 14.59-12.66l3.63 1.72 1.18.55c6.2 2.94 17.42 9.11 25.24 13.97A54.39 54.39 0 0 1 80.55 26.2Z" class="g"/><path d="M49.9 69.03c0-15.72 6.7-29.87 17.39-39.77a45.48 45.48 0 0 0 0 79.54 54.03 54.03 0 0 1-17.4-39.77Z" class="f"/><path d="M175.27 7c2.12.08 3.43-.43 3.43-.43l3 .82 3.22-.54 5.92 1.92-6.36-.52-4.46.4-2.82-.83-1.93-.81ZM362.15 26.36l3.95-.06 1.28.71 3.1-.11.62-.37 1.98-.77 2.01 1.08.84.38 2.56.55-5.7.57-4.06-.5-2.56-.52-1.06.22-2.96-1.18zM196.24 2.12l-3.1-.32V0l9.3.97v1.8l-3.1-.33v15.6l-3.1-.33V2.12ZM216.38 4.22l-6.2-.65v6l4.65.48v1.8l-4.65-.48v5.99l6.2.64v1.8l-6.2-.64c-1.71-.18-3.1-1.13-3.1-2.12V3.25c0-1 1.39-1.66 3.1-1.48l6.2.64v1.8ZM223.9 11.9l-3.47-9.06 3.14.32 1.6 4.63c.12.4.2.77.29 1.17h.08c.09-.37.17-.73.3-1.1l1.59-4.3 3.14.33-3.48 8.33 3.48 9.06-3.14-.33-1.6-4.62c-.12-.4-.2-.78-.29-1.17l-.08-.01c-.09.38-.17.73-.3 1.11l-1.59 4.3-3.14-.33 3.48-8.34ZM236 7.01c0-1.48 2.1-2.48 4.65-2.22s4.64 1.7 4.64 3.19V22.8l-3.1-.32v-7.8l-3.1-.32v7.8l-3.09-.33V7.01Zm3.1 5.56 3.1.32V6.9l-3.1-.32v5.99ZM250.9 18.86l3.1.33v2.72l3.1.32v-5.99l-3.1-.32c-1.72-.18-3.1-1.12-3.1-2.12V8.56c0-1.49 2.1-2.49 4.65-2.22s4.64 1.7 4.64 3.19v1.97l-3.1-.32V8.45l-3.1-.32v5.99l3.1.32c1.72.18 3.1 1.13 3.1 2.13v5.23c0 1.49-2.1 2.49-4.64 2.22s-4.65-1.7-4.65-3.18v-1.98ZM274.78 8.42l2.66.28v15.66l2.65.28v-3.62l2.66.27v5.44l-7.97-.83V8.42ZM286.73 12.35c0-1.49 1.96-2.5 4.36-2.25s4.36 1.67 4.36 3.15V25.5c0 1.48-1.96 2.49-4.36 2.24-2.4-.25-4.36-1.67-4.36-3.15V12.35Zm5.81-.15-2.9-.3v13.75l2.9.3V12.2ZM301.58 13.14l-2.9-.3v-1.8l8.72.9v1.8l-2.91-.3v15.55l-2.9-.3V13.14ZM313.6 14.39l-2.9-.3v-1.8l8.72.9V15l-2.9-.3v15.55l-2.91-.3V14.39ZM331.76 16.27l-5.81-.6v5.98l4.36.45v1.8l-4.36-.46v5.98l5.81.6v1.8l-5.81-.6c-1.61-.17-2.91-1.1-2.91-2.1V15.36c0-1 1.3-1.66 2.9-1.49l5.82.6v1.8ZM335.96 14.91l5.82.6c1.61.18 2.9 1.11 2.9 2.1v5.5c0 .82-.58 1.08-1.29 1.25.7.24 1.3.67 1.3 1.74v5.78c0 .49.31.88.7 1.36l-2.98-.31c-.32-.4-.63-.92-.63-1.35v-6.49l-2.9-.3v7.77l-2.92-.3V14.91Zm2.91 8.08 2.91.3v-5.98l-2.9-.3V23ZM351.76 26.13a5.05 5.05 0 0 1-1.93-1.2 2.46 2.46 0 0 1-.72-1.63v-7.07l2.65.28v7.82l2.64.27v-7.82l2.64.28v7.06c0 .56-.25 1.07-.71 1.49-.47.39-1.11.66-1.93.8v7.77l-2.64-.28v-7.77Z" class="i"/></g></svg>