<svg xmlns="http://www.w3.org/2000/svg" xmlns:xlink="http://www.w3.org/1999/xlink" id="b" viewBox="0 0 309.44 157.53"><defs><linearGradient id="d" x1="235.73" x2="274.1" y1="136.85" y2="136.85" gradientUnits="userSpaceOnUse"><stop offset="0" stop-color="#fdb927"/><stop offset=".03" stop-color="#fcb626"/><stop offset=".27" stop-color="#f9a121"/><stop offset=".52" stop-color="#f7941e"/><stop offset=".74" stop-color="#f7901e"/><stop offset="1" stop-color="#e75725"/></linearGradient><linearGradient xlink:href="#d" id="e" x1="234.87" x2="274.98" y1="136.17" y2="136.17"/><linearGradient id="f" x1="237.58" x2="267.61" y1="137.85" y2="137.85" gradientUnits="userSpaceOnUse"><stop offset="0" stop-color="#fdb927"/><stop offset=".02" stop-color="#fcb526"/><stop offset=".2" stop-color="#f49326"/><stop offset=".39" stop-color="#ee7825"/><stop offset=".59" stop-color="#ea6625"/><stop offset=".79" stop-color="#e75a25"/><stop offset="1" stop-color="#e75725"/></linearGradient><linearGradient xlink:href="#f" id="g" x1="237.48" x2="267.73" y1="137.77" y2="137.77"/><style>.p,.r{fill:#fff}.r{stroke:#fff}.s{fill:#fdb927}.t{fill:#e75725}.r{stroke-linecap:round;stroke-linejoin:round;stroke-width:5.998px}.u{fill:#009370}</style></defs><g id="c"><ellipse cx="155.06" cy="120.93" rx="6.47" ry="8.37" style="stroke-width:1.328px;stroke:#fff;fill:#fff;stroke-miterlimit:10" transform="rotate(-85 155.07 120.93)"/><ellipse cx="145.09" cy="124.11" rx="6.97" ry="11.89" style="stroke-width:1.504px;stroke:#fff;fill:#fff;stroke-miterlimit:10" transform="rotate(-76 145.09 124.11)"/><path d="m297.7,118.231s.087-7.532,1.382-9.059l-.688-4.69s-1.679-3.476.616-11.074c0,0-1.627-4.635-2.219-9.676l.739-4.419-.392-4.24.321-14.514s-1.713-2.746-1.821-8.211l1.48-5.161-.72-5.152,1.657-7.14-1.833-8.851,2.171-5.269-11.881,1.384-8.269-1.548-4.158,2.887-6.743-1.014-.903,1.999-8.632-1.94s-2.755,2.03-8.514,2.519l-9.963-2.718-14.257,2.5-7.311-2.161-5.473,2.612-3.7.786-3.076-.695-10.6-2.616-2.784,1.299-10.388-2.798s-7.389,2.658-14.568,2.479l-9.157-1.242-16.098,1.265-9.243-2.466-12.541,1.821-8.734-1.589-2.824,1.06-1.029.106-3.909-.698-3.958-.913c-9.807,2.457-11.165,2.192-11.165,2.192l-7.331-.053-1.726-1.529c-3.077.196-4.883.929-4.883.929l-9.681.049-4.978-.427-1.003-1.262-8.27,1.672-2.535-.078-3.93,1.468-5.256-1.692c-3.702,1.557-7.226,2.298-7.226,2.298l-2.626-.077-6.982-2.86-5.15,1.566-4.076-.794-1.624.913c-5.258-1.692-10.87-2.115-10.87-2.115l.916,2.346,1.708,15.556-2.584,7.616,3.386,7.334-2.531,18.382,1.921,4.039c-1.151,5.165-.957,7.517-.957,7.517l-2.228,6.706,2.095,2.703-1.33,5.347,2.398,8.763c-.426,5.073-1.409,7.7-1.409,7.7l1.548,1.983-1.838,12.042,3.429-1.915,5.981,1.598-.164.19,11.276-.383c10.198-2.052,12.854,0,12.854,0h13.862l2-.915,4.958-.025c4.436.518,8.515,1.945,8.515,1.945,6.687-2.023,12.568-2.146,12.568-2.146l.909.991c12.03-1.419,20.085-.916,20.085-.916,5.313.206,8.125,1.062,8.796,1.294l.094.258s2.434-1.125,6.716-1.902l7.851,1.907,6.85-.948c.679-1.488,5.493-.33,5.493-.33l11.228,1.691,10.629-1.429,3.896,1.867,8.053-1.687,3.558,1.179s5.575-3.481,15.049.676l3.884-1.14,11.989-.002,5.906-.742,3.237,1.575,13.608-3.683,19.098,3.291,3.644-2.495,7.092.113,14.624,1.199,7.991-1.032,4.241,1.977,1.506-.676.753-.586,6.737.302,9.05.537s-1.332-3.744-1.608-10.737Z" class="u"/><path d="M90.73 130.51c1.44-1.07 3.07-1.92 3.07-1.92-.47-.69-.71-.89-.71-.89-2.06-.05-4.2.1-4.2.1l-.03-.01c1.08 1.1 1.86 2.72 1.86 2.72ZM306.7 66.77c-2.03-.38-3.28-.61-3.51-.43-1.51 1.14-2.52 3-2.52 3 .07-2.34.44-4.41.44-4.41-.86-.15-2.58-.75-2.58-.75l2.99-1.13c.43-2.07.93-3.64.93-3.64l1.53 2.58 2.67.1c-.46.75-1.63 2.31-1.63 2.31.75 1.15 1.69 2.39 1.69 2.39ZM67.63 19.13l.95-.32 2.96-1.51.68-.36.05.04c-.71 1.79-.68 4.05-.68 4.05l.08.55-.08.01-.7-.61c-.97-.31-1.86-.99-1.86-.99-.61-.58-1.39-.87-1.39-.87ZM245.26 20.19l.95-.32 2.96-1.51.68-.36.05.05c-.71 1.79-.68 4.05-.68 4.05l.08.56-.08.01-.7-.61c-.98-.31-1.86-.98-1.86-.98-.62-.59-1.39-.87-1.39-.87ZM129.48 13.5l2.11 1.37.91.61.29.09-.07.23c-1.85 1.23-3.27 3.23-3.27 3.23l-.13.02-.01-1.13.08-2.04c.2-1.52.08-2.37.08-2.37Z" class="u"/><path d="m24.707,34.486l-1.15,5.345,1.028,6.51c3.838,7.038,6.927,9.647,6.927,9.647l2.731,3.061c2.014,4.426,4.109,7.401,4.109,7.401l.198,3.075,1.359.536c2.352-.284,3.075-.558,3.075-.558l13.495,2.556,8.894,5.293,11.342,6.095,7.518,1.228c5.879-.393,8.498-1.492,8.498-1.492l1.803-1.275-2.458-2.792-2.724-1.977c-5.356-3.412-9.525-4.748-9.525-4.748-12.493-.841-22.183-2.511-22.183-2.511-10.772-.76-15.484-2.094-15.484-2.094l-1.898.553-.555-2.258-1.28-2.437c1.817,1.075,3.046,2.88,3.046,2.88,9.332,2.125,11.182,1.21,11.182,1.21l3.262.978,6.878.237,2.81.709c4.523-.203,7.15.417,7.15.417l.263-1.449,2.152-3.993,3.841-9.791c2.045-6.978,1.856-8.606,1.856-8.606-1.11-4.7-2.109-5.509-2.109-5.509l-2.543-1.887-3.976,1.105-3.534-1.157c-.187-.996-.642-1.716-.642-1.716l.068-.093c.749.564.955,1.036.955,1.036l2.013-.237-2.147-3.698c-4.433-.023-7.739-.684-7.739-.684-4.42,2.783-7.942,4.248-7.942,4.248l-4.723,5.317-4.864,4.369-1.122,1.771-.587.409.011,1.991,4.867,5.314c6.176,4.403,10.494,8.272,10.494,8.272l5.082,2.553-1.807.552-6.942-3.81-5.046-4.453-3.633-2.742-4.509-5.722-.372-2.079,2.883-2.368c-1.045-.764-2.315-1.436-2.315-1.436l-3.185-3.512-3.002-3.152-3.683-3.556c-1.72-.398-3.534-1.113-3.534-1.113l-2.578.24Z" class="s"/><path d="m38.107,62.785l-.46-1.536c-.958-1.669-2.686-3.198-2.686-3.198,1.64,2.3,2.279,3.563,2.279,3.563.23.587.866,1.171.866,1.171Z" class="u"/><path d="M29.88 90.38c-2.64-3.33-3.73-3.51-3.73-3.51l-2.8.1.17-2.71 2.51-4.81-8.07-4.21c-1.28-2.62-1.47-4.15-1.47-4.15-5.16-1.24-8.07-4.03-8.07-4.03l-2.7 2.19-.27.45c-2-2.7-3.1-5.23-3.1-5.23l.7-5.43c1.66 5.33 3.66 7.76 3.66 7.76 1.53-1.64 3.33-2.82 3.33-2.82 3.01 3.79 6.09 5.13 6.09 5.13-.28-1.54.25-4.07.25-4.07l5.07.16 5.72 3.23-2.24 3.45c-3.98.38-5.61-.42-5.61-.42l.11 3.17c5.53.79 9.88 2.57 9.88 2.67s-3.5 5.9-3.5 5.9l-.72 2 3.8-.38c1.19 2.17 3 2.88 3 2.88-1.17.64-1.98 2.73-1.98 2.73ZM58.13 80.77c3.06-1.19 4.26-2.28 4.26-2.28.05 1.51.86 4.17.86 4.17-3.17-1.2-5.12-1.89-5.12-1.89M40.11 82.05c1.9-.55 5.78-1.25 5.78-1.25 4.58 1.02 5.17 1.47 5.17 1.47l-1.76-.17-3.67-.48c-3.12.06-5.52.43-5.52.43ZM42.24 84.3l-.05-.14 1.26-.37 5.11-.52c4.08 1.25 5.26 2.26 5.26 2.26l-1.31-.47c-.95-.27-1.99-.58-1.99-.58-1.77-.76-8.28-.19-8.28-.19ZM96.58 29.53l-.12-1.22.26-2.29c1.7 1.33 3.34 2.47 3.34 2.47-2.26.53-3.48 1.03-3.48 1.03ZM59.64 98.19l.69 2.58.01.81.47 2.8.23.09.3-3.62c-.55-1.4-.69-1.53-.69-1.53l-1-1.13ZM66.13 101.42 65.68 100.97 65.35 99.66 65.08 98.64 66.03 100.33 66.13 101.42zM56.88 127.48l.09-.11.93-.07 2.33-.15 1.59.31 2.31.06 1.92.28.75-.03.93.16 1.7-.05-.41.17-.72.12-1.4.01c-1.2.17-1.73.42-1.73.42-4.71-.97-6.15-1-6.15-1l-1.33-.06-.79-.07ZM71.59 85.6l.66.18 2.81.76c1.77.76 1.93.76 1.93.76.46.38 3.24.71 3.24.71l2.35.31 2.26.26-.25.09c-2.71.19-3.87.11-3.87.11-4.57-.84-5.53-1.51-5.53-1.51l-1.63-.49-.41-.13-1.52-.9-.05-.14ZM75.58 90.89l.36.16-.65.32-1.02-.02c-2.72-.57-4.71-1.85-4.71-1.85l.23-.04 1.45.58 3.26.82 1.09.04ZM12.91 127.07l-.08-.07.34-.18.75-.27.61-.12.95-.3.52.25c-1.94.28-3.08.7-3.08.7ZM12.5 119.27l-.53-2.87c.57-3.49.39-7.15.39-7.15l.16.07c.28 2.31.16 5.54.16 5.54l.1 1.36-.13 1.4.08 1.72-.23-.07ZM31.88 115.3l-.09-.7c-1.11-.85-1.61-1.5-1.61-1.5l-.14-.43.16-.05c.95.56 1.95 1.55 1.95 1.55l.05.23.29.59.34 1.76-.07.08c-.47-1.06-.87-1.52-.87-1.52ZM12 93.39l-.11-.09.56-.28 2.41-1.84.36-.27.13.05.23.99c.24 1.94.6 2.94.6 2.94l-.59-.27c-2.49-1.22-2.49-1.08-2.76-1.14-.64-.13-.84-.08-.84-.08Z" class="s"/><path d="M17.67 91.89c-.18-.9-.1-1.35-.1-1.35.18-1.13.13-1.81.13-1.81l-.14-1.49.66-3.49c.08-.58.31-1.13.37-1.64.08-.67.7-1.6.7-1.6l.18-.02c-.98 2.63-.73 3.87-.73 3.87l-.41 4.23c.1 1.18-.13 1.77-.13 1.77-.36.54-.42 1.63-.42 1.63l-.11-.09ZM8 40.64l-.73-1.81-.37-1.08-.5-1.31 4.03 1.11c-1.3 1.5-2.43 3.09-2.43 3.09ZM6.78 49.55l1.07-2.36.18-1.04.18-.91.14-.09-.13 1.81c.01 2.22-.25 3.3-.25 3.3l.27.41.28.95.28 1.17c-1.46-2.89-2.01-3.25-2.01-3.25ZM31.45 34.95l1.19-1.97c.47-.64.02-1.06.02-1.06l-1.66-2.61.02-.14 1 .27 1.99.35.59.18c.67-1.27 1.17-1.72 1.17-1.72l.63-1.13.11.07c.37 1.76.45 3.23.45 3.23l.05.14.45.16 2.36 1.73c.09.14-.09.2-.09.2-.95.46-2.39.99-2.39.99.1 1.63-.21 3.17-.21 3.17l-.43-.31-2.12-2.16c-2.08.24-3.12.65-3.12.65ZM61.35 25.48c.95-.01 1.94-.28 1.94-.28l2.35.26-1.15.1c-1.18.19-3.14-.07-3.14-.07ZM4.45 28.93l-.18-.04-.41-.95c-.1-1.31.04-1.9.04-1.9l-.42-2.31.14-.18.73.22 1.09 0c1.63.17 1.81.44 1.81.44.27.14.5.04.5.04l2.17.44c.95.36 2.01-.03 2.01-.03l1.49.24 2.72-.06 1.4-.42 1.99-.37.88-.34.59.2.39.18.5.13.77.22 1.07.38-.38.03-1.29-.22-.61-.02-.27-.02-.9-.04c-.7.07-1.38.44-1.38.44l-1.51.19c-1.27.3-2.15.26-2.15.26l-1.31-.01-2.63-.48c-1.99.12-3.53-.05-3.53-.05-.41-.18-.77-.22-.77-.22-1.25-.06-2.56-.46-2.56-.46l-.11.05c-.09.54.01 1.06.01 1.06l.05.48c-.17 2.26.11 3.14.11 3.14ZM31.89 102.09l.68-.16 1.9-.19c2.26.51 2.02.87 2.02.87l-.11.07-.59-.18c-1.65-.49-3.89-.41-3.89-.41ZM70.11 96.06l2.11 1.37.91.61.3.09-.07.23c-1.85 1.23-3.26 3.23-3.26 3.23l-.14.02 0-1.13.08-2.04c.2-1.52.08-2.37.08-2.37Z" class="s"/><path d="m19.235,70.438l-.068-4.433c.815.177,1.946.08,1.946.08,1.633.761,2.998,2.428,2.998,2.428-1.93,1.74-2.211,1.369-2.211,1.369-1.67.642-2.665.556-2.665.556Z" class="u"/><path d="m266.993,115.873c-20.915,3.556-19.527-19.098-4.297-10,1.459.872,3.969-.085,5.984-2.022.876-.841,2.164-1.71,3.085-3.248,1.66-2.759,2.94-7.023,4.47-10.422,1.662-3.692.234-6.192-1.275-7.362-5.502-4.099-7.285-6.301-14.542-7.885-2.836-.574-4.463-7.641-1.3-11.783,4.832-6.363,7.37-11.827,10.69-19.51,1.048-2.363,1.108-8.11-1.628-7.064-7.062,2.688-13.156,4.34-18.523,9.526-2.113,2.074,1.434,4.119-3.494,8.86-3.696,3.557-8.093-8.653-5.722-12.351,9.825-15.377,24.848-17.666,34.052-16.385,3.629.57,6.936,7.038,4.844,13.239-3.137,9.301-6.205,14.329-10.328,20.981-1.755,2.809-1.747,3.989.734,5.597,6.478,4.241,11.755,5.817,14.59,16.728,2.172,8.365-4.404,30.902-17.341,33.101Z" class="p"/><path d="m306.16,112.751l1.169-4.612,2.113,3.651-3.85,4.475-2.318-2.117-.99-3.522-4.445,4.69.384-4.055,3.72-5.217c.081.043,3.143,5.246,3.143,5.246l1.074,1.462" class="u"/><path d="m289.07 90.35-3.2-1.87c.31-.75.76-1.79.76-1.79.18-.14 1.06-.2 1.25-.32l1.18 3.98ZM285.55 39.58c-1.09-1.71-.92-2.8-1.19-2.89-1.79-.59-4.35-.61-4.35-.61 1.96-1.28 3.88-2.15 3.88-2.15-.36-.79-.85-2.55-.85-2.55l2.63 1.82c1.94-.82 3.52-1.31 3.52-1.31l-1.25 2.72 1.44 2.25c-.88.05-2.83-.03-2.83-.03-.52 1.27-1 2.74-1 2.74ZM53.51 32.85l-.11.09-.64-.49-2.54-1.43-3.68-2.33-.59-.31c1.48-1.82 3.29-3.41 3.29-3.41l.63.18c1.13.04 2.11.65 2.11.65l.2 0-.09-.79c-.32-1.18-1.26-2.34-1.26-2.34l3.26-.71c.19.22.41.99.41.99.78 2 .15 3.34.15 3.34-.04.33-.08.33-.08.33l-.06.28.39.18c1.86.96 4.36 3.33 4.36 3.33-1.19.78-2.34 2.34-2.34 2.34l-.11-.07-1.1-2.26c-.82-.74-1.34-1.49-1.34-1.49h-.07s-.15 1.65-.15 1.65l-.64 2.29Z" class="s"/><path d="m48.759,28.559l.156-.702-.029-.882.09-.046c.952.108,2.014-.032,2.014-.032.522.359,1.224.524,1.224.524l.048.193c-.223.906-.148,2.173-.148,2.173l-.114.068-.408-.203c-1.044-.695-2.064-1.006-2.064-1.006l-.702.026-.067-.113Z" class="u"/><path d="m125.518,29.671c-7.127-1.854-14.016-.184-14.016-.184,1.388.715,2.619,2.397,2.619,2.397l-3.21,3.924-6.044,2.566-.91-3.597c2.122-3.389,3.629-4.294,3.629-4.294l-2.451-1.744c-3.988,3.902-11.525,9.083-11.597,9.029-.073-.054-3.756-5.882-3.756-5.882l-1.147-1.781,2.861-1.163,2.284,4.919,11.727-6.657c2.375.483,4.648,1.535,4.648,1.535,7.27-3.412,13.611-2.738,13.611-2.738l1.751,3.671Z" class="s"/><path d="m108.416,31.118l3.097,2.192c-.636.539-1.249,1.494-1.249,1.494-1.599.832-3.292,1.355-3.292,1.355-.204-2.591.26-2.587.26-2.587.508-1.716,1.184-2.453,1.184-2.453Z" class="u"/><path d="m219.64 115.52-.73-1.8-.37-1.09-.51-1.31 4.03 1.11c-1.3 1.5-2.43 3.09-2.43 3.09ZM296.13 126.16l.32.45c-1.03-.35-2.46-.48-2.46-.48-1.83-.27-6.87-.56-6.87-.56l4.08-.28 1.47-.12 1.27-.05.58-.13.03.06.01-1.41.05-1.61.49-5.8.35 7.33c.25 1.39.46 2.02.46 2.02l.22.6ZM283.75 52.54l.45-.36h0l2.41-1.84.36-.27.14.04.23 1c.24 1.94.6 2.94.6 2.94l-.59-.27c-2.49-1.22-2.49-1.08-2.77-1.14-.64-.13-.83-.09-.83-.09ZM282.46 25.74l5.72-.74 3.66-.71c1.91-.06 3.11-.31 3.11-.31l-.34.9-.22 1.13s-.29 1.41-.29 1.52c-.01.12-.03 1.71-.03 1.71l.02.61.03.83.35 1.44-.03.15-1.04-2.77.06-1.78.05-.55.1-.76-.31-1.38-8.55.72-2.29-.04ZM177.16 24.48c-.64-.05-2.3.02-2.3.02.95-.09 3.15-.74 3.15-.74l4.68-.49 5.32 1.47-7.57-.72c-.59.03-2.67.52-3.27.47ZM149.05 25.83c.95-.01 5.54-.64 5.54-.64l3.27-.03-1.95.5c-1.17.19-6.86.17-6.86.17Z" class="s"/><path d="m298.215,111.25h0l-5.11,1.164s1.027-1.169,2.57-4.856l-1.984-4.753-5.542,4.654-4.017,4.63s3.815,1.655,5.298,2.136c0,0-2.52,2.996-9.906,3.87l2.419,3.791s5.769-2.398,9.19-7.048c0,0,3.954.548,6.866.43l-.171.04" class="s"/><path d="m290.283,108.069c1.372-.802,2.76-1.174,2.76-1.174.537,2.177.047,2.48.047,2.48-.515,1.444-1.626,2.674-1.626,2.674l-.037.016-1.144-3.996Z" class="u"/><path d="m116.909,67.891l-.594-1.241-.528-1.445c.864.607,2.518,1.141,2.518,1.141l.589.359.473-.522c1.193-.91,1.973-1.696,1.973-1.696-.011,2.041-.176,3.7-.176,3.7l.251.405c.639.88,1.381,2.061,1.381,2.061l-2.233-.36-.249-.111-.18.092-.044.428-.309,1.246-.022.318-.267.837-.067.07c-.573-1.015-.935-1.399-.935-1.399-.396-.716-.685-1.218-.685-1.218l-.16-.361c-1.84-.038-2.872.059-2.872.059l-.045-.067.495-.546.403-.567c1.036-1.092,1.283-1.184,1.283-1.184Z" class="s"/><path d="M168.16 82.31c.04 7.65.25 21.33.3 23.09l-10.64.05c.07-3.36.03-21.26.02-23.25l-.04-8.26c-.01-1.3-.24-20.95-.25-22.79l10.65-.05c-.04 1.38-.12 13.77-.07 22.94l.04 8.26ZM199.02 105.85c-1.61.32-3.25.63-5.41.64-15.05.08-20.67-12.66-20.72-22.91-.06-12.69 6.79-28.1 22.59-33.84l2.09 14.67c-9.67 2.96-13.53 10.01-13.49 17.2.03 5.89 3.91 10.69 10.01 10.66 1.84-.01 3.3-.25 4.41-.4l.53 13.99ZM204.83 105.98c.04-2.22.11-15.14.06-23.86l-.04-8.1c-.04-6.65-.3-22.1-.31-23.86l10.69-.05c-.04 1.22-.15 16.44-.11 23.1l.01 1.99h.09c2.63-5.75 11.08-23.53 12.12-25.68l7.67 11.13c-1.73 3.07-7.19 12.35-9.64 16.72 1.67 3.05 8.29 14.49 10.18 17.77l-8.01 11.82c-.79-1.6-9.28-19.6-12.3-26.85h-.09s0 1.38 0 1.38c.03 5.89.26 23.02.36 24.47l-10.69.05ZM120.46 105.64c.04-3.95.03-26.11 0-32.63l-.05-10.11c-.01-2.11-.27-21.14-.28-22.52 10.53-.05 17.27.37 21.85 2.19 5.53 2.27 10.41 7.67 10.46 18.06.06 11.95-6.55 24.95-19.87 28.69l.01 2.48c.01 1.84.06 11.86.18 13.79l-12.3.06Z" class="p"/><path d="m132.402,80.71c3.194-.845,7.474-5.463,7.434-13.092-.027-5.148-1.648-9.369-7.552-10.074l.118,23.166Z" class="u"/><path d="m172.46 32.7-.27 1.99c2.04 3.44 2.67 3.3 2.67 3.3l-2.39 1.9c-3.89-3.99-7.16-6-7.23-5.95s-.51 2.89-.51 2.89l-1.47 5.06 3.55.53-.37-4.69 7.14 4.56c2.87-.51 2.82-2.23 2.82-2.23.11-.15.95-.63.95-.63l.86-.94c.19-.09 2.33 1.77 2.33 1.77 2.55 1.36 4.58 2.08 4.58 2.08l-.17 3.47-.13.3.26.18c3.21-.02 5.72-.59 5.72-.59l3.32-3.15-1.23-.03c-4.14 1.18-6.55 1.04-6.55 1.04.42-2.2.31-4.36.31-4.36-3.02-.12-5.62-.63-6.94-1.12l-.22-.58-.22-.2c.96-1.37 2.38-2.08 2.38-2.08l-2.85-3.63-5.98-2.71-.82 1.87.49 1.94Zm4.59-.68c1.5.99 2.01 1.84 2.01 1.84l-1.64 1.86.02.03c-.63.58-1.76 1.62-1.76 1.62-.12-.62-1.2-2.03-1.2-2.03l-.11-1.58-.04-.02c.09-1.1.32-2.73.32-2.73 2.19.48 2.4 1 2.4 1ZM34.84 128.82l2.89-4 1.52-4.35-.64-1.81-2.27-2.43c-.1-1.99-.78-2.85-.78-2.85-1.52-4.79-1.42-3.84-1.42-3.84-1.73-2.16-3.54-2.7-3.54-2.7l.67-1.68 5.2-.16c2.64 2.7 3.01 4.69 3.01 4.69 2.99 1.52 2.64 2.07 2.64 2.07l3.63 1.34 3.01 4.78-1.93-5.06-6.9-3.67c-.19-1.81-.01-2.08-.01-2.08-.52-.99-.46-1.92-.46-1.92-.76-6.87-.21-5.67-.21-5.67l.7-3.89c1.61-4.17 1.97-3.54 1.97-3.54 1.45-.01 1.45.35 1.45.35 1.29 5.33-.42 6.52-.42 6.52l.73 1.26.1 2.71.73 1.81-.72 1.09c1.26-.73 1.54-.28 1.54-.28l.42-6.06.54-1.4.44-1.86c1.26-1.5 3.14-4.82 3.14-4.82l1.9.35-.07 3.89-.89 3.08.19.99-.8 3.08.19 1.81-1.22 1.23 1.36.31c1.71-2.09 2.56-3.81 2.56-3.81l1.26-.82 2 1.26.28 1.18c-.71 2.09-.53 3.17-.53 3.17-1.8 1.64-2.69 4.54-2.69 4.54l-1.28-1.8-.36-.72c-.01-2.08.7-4.07.7-4.07l-.27 0-.27.91-.45.63-.61 3.62c1.63.72 2.36 1.44 2.36 1.44l2.16-1.55.81-2.08c.91.81 1.45.9 1.45.9l.37 2.17.29 2.71c-1.53 1.37-2.25 2.64-2.25 2.64-.82-.63-1.45-.63-1.45-.63l.26-2.45c.54-.9.45-1.45.45-1.45l-.81.55-.54.18.1 2.17-.44 2.17 1.09.45-.08 2.53c-2.16 2.55-3.01 4.68-3.01 4.68l-2.03 1.32-1.99-.44c.28.9 1.37 1.8 1.37 1.8l-.57 1.53" class="s"/><path d="M68.63 68.19c-1.5-.76-3.56-1.2-3.56-1.2 1.24-.37 2.51-.33 2.51-.33-.84-1.4-2.28-2.63-2.28-2.63 2.11.44 3.73.52 3.73.52-1.39-1.82-2.98-2.9-2.98-2.9 2.15.35 4.19.46 4.19.46-1.73-2.16-2.55-2.95-2.55-2.95 2.47.58 4.1.61 4.1.61l-2.37-2.57c2.69.21 3.91-.02 3.91-.02-1.86-2.07-3.11-2.86-3.11-2.86h4.34c-1.93-2.39-3.37-3.49-3.37-3.49 3.06.28 4.5-.04 4.5-.04-1.85-2.84-2.93-2.97-2.93-2.97 1.81-.08 3.3.37 3.3.37-.55-1.88-1.98-3-1.98-3 1.68.24 2.81.82 2.81.82-.96-1.92-1.89-3.11-1.89-3.11 2.11 1.05 3 2.27 3 2.27-.54 4.35-.9 5.14-.9 5.14l-1.07 3.47c-1.22 4.01-2.88 6.76-2.88 6.76l-2.46 4.99c-1.19 1.25-2.07 2.68-2.07 2.68ZM68.58 76.29c5.26 2.37 8.76 5.11 8.76 5.11l7.74.28c3.62-.97 4.97-.89 4.97-.89-2.41-1.62-4-3.73-4-3.73l.42 2.89c-2-2.02-3.68-3.06-3.68-3.06.87 1.76.92 3.21.92 3.21-3.13-2.02-4.45-3.6-4.45-3.6.28 2.04 1.06 3.48 1.06 3.48-3.14-2.79-3.46-4.05-3.46-4.05-.13 1.54.2 4.12.2 4.12l-3.68-3.87.42 1.85c-2.22-1.03-5.21-1.74-5.21-1.74Z" class="u"/><path d="m179.86 117.43 2.11 1.37.91.61.29.09-.06.23c-1.85 1.23-3.26 3.23-3.26 3.23l-.14.02-.01-1.13.08-2.04c.2-1.52.08-2.38.08-2.38ZM83.8 124.4l3.65-3.73 4.06-2.1c-1.32-1.71-2.86-2.75-2.86-2.75l-.05-.22.38-.29 2.45-3.43.13-1.22.4-2.04-.5.23-4.47 1.61-4.16.47.88-3.98c.67-1.41.85-2.54.85-2.54 1.53-1.68 2.25-3.04 2.25-3.04l2.03-1.87s.18.14.27.27c.09.14 3.23 2.97 3.23 2.97.69 2.03.65 3.35.65 3.35l.11.16 3.18-2.3.45-.32v-.13s-.46-.59-.46-.59l-1.73-2.8-1-1.94-.23-.36.54-.23 1.58-.73c2.21-1.73 2.7-3 2.7-3 1.32 1.71 2.91 2.56 2.91 2.56-2.34 1.6-4.42 2.1-4.42 2.1l-.04.27.19 1.04.05 1.04.5.81c1.32 1.17 1.46 1.67 1.46 1.67l.5.54-1.31.95-2.66 2.01-.86.5-1.22.64c.15 3.62-.25 5.25-.25 5.25-1.12 2.27-1.75 2.91-1.75 2.91l-.04.14c2.23 1.62 3.45 2.79 3.45 2.79l-.81.6-1.85 1.5-2.39 1.6-.99.82c-.45.64-.76.77-.76.77 2.63 1.12 4.08 2.11 4.08 2.11.59.77 1.18 1.26 1.18 1.26-3.39 0-4.2.1-4.2.1-2.86-2.38-5.1-3.4-5.1-3.4ZM294.89 69c.06-5.43-.21-8.22-.21-8.22l-.23-1.9-.39-4.39.61 2.44c.05 1.9.47 2.67.47 2.67l.73 3.44c-.48 2.81-.97 5.97-.97 5.97Z" class="s"/><path d="m87.99 101.85 3.04 2.2.09.82.6 1.99-1.62.64-.36.18-3.03 1.01-.63.25c1.32-3.67 1.8-6.98 1.8-6.98l.11-.11ZM13.46 1.79h-3.16V.13h9.48v1.66h-3.16v14.34h-3.16V1.79ZM42.13 1.79h-6.32v5.51h4.74v1.65h-4.74v5.52h6.32v1.66h-6.32c-1.75 0-3.16-.74-3.16-1.65V1.79c0-.92 1.41-1.66 3.16-1.66h6.32v1.66ZM58.57 8.13 55.02.13h3.2l1.62 4.1c.13.36.21.69.3 1.05h.09c.09-.36.17-.69.3-1.05l1.62-4.1h3.2l-3.54 8 3.55 8h-3.2l-1.62-4.1c-.13-.36-.21-.69-.3-1.05h-.08c-.08.36-.17.7-.3 1.05l-1.62 4.1h-3.2l3.54-8ZM79.02 2.49c0-1.36 2.13-2.48 4.74-2.48s4.74 1.12 4.74 2.49v13.64h-3.16v-7.17h-3.16v7.17h-3.16V2.49Zm3.16 4.82h3.16V1.79h-3.16v5.51ZM102.98 11.96h3.16v2.51h3.16v-5.51h-3.16c-1.75 0-3.16-.74-3.16-1.65V2.49c0-1.36 2.13-2.48 4.74-2.48s4.74 1.12 4.74 2.49v1.81h-3.16V1.79h-3.16v5.51h3.16c1.75 0 3.16.74 3.16 1.65v4.82c0 1.37-2.14 2.49-4.74 2.49s-4.74-1.12-4.74-2.49v-1.82ZM144.58.13h3.16v14.34h3.16v-3.32h3.16v4.97h-9.48V.13ZM167.78 2.49c0-1.36 2.13-2.48 4.74-2.48s4.74 1.12 4.74 2.49v11.29c0 1.37-2.14 2.49-4.74 2.49s-4.74-1.12-4.74-2.49V2.49Zm6.32-.69h-3.16v12.68h3.16V1.79ZM193.7 1.79h-3.16V.13h9.48v1.66h-3.16v14.34h-3.16V1.79ZM214.85 1.79h-3.16V.13h9.48v1.66h-3.16v14.34h-3.16V1.79ZM243.94 1.79h-6.32v5.51h4.74v1.65h-4.74v5.52h6.32v1.66h-6.32c-1.75 0-3.16-.74-3.16-1.65V1.79c0-.92 1.41-1.66 3.16-1.66h6.32v1.66ZM257.65.13h6.32c1.75 0 3.16.74 3.16 1.66v5.06c0 .76-.64 1.05-1.41 1.28.77.16 1.41.49 1.41 1.48v5.33c0 .45.34.79.77 1.19h-3.25c-.34-.33-.69-.78-.69-1.19v-5.98h-3.16v7.17h-3.16V.13Zm3.16 7.17h3.16V1.79h-3.16v5.51ZM284.77 8.98c-.98-.2-1.75-.51-2.31-.91-.56-.43-.85-.92-.85-1.43V.13h3.16v7.19h3.16V.13h3.15v6.5c0 .51-.3 1.01-.85 1.44-.56.4-1.32.72-2.3.92v7.15h-3.16v-7.15Z" class="u"/><path d="m101.672,102.643c3.388-.922,5.101-1.996,5.101-1.996.063,3.485-1.059,5.118-1.059,5.118-1.864-1.889-4.042-3.122-4.042-3.122" class="s"/><path d="M230.01 139.28H240.7V150.16H230.01z" class="p" transform="rotate(-175 235.36 144.72)"/><path d="m252.098,153.206c-1.847,0-3.545-.413-5.056-1.229-5.1-.517-9.479-3.719-11.508-8.456-2.019-4.712-1.327-10.087,1.79-14.131,1.139-3.243,3.629-5.826,7.205-7.461,2.057-.941,4.127-1.379,6.515-1.379.826,0,1.703.05,2.758.157.556.057,1.098.144,1.626.23.649.106,1.264.208,1.761.208.624,0,1.036-.13,1.558-.841.409-.558,1.055-.875,1.727-.875.176,0,.353.021.528.066.846.215,1.477.923,1.595,1.788.264,1.943.006,3.364-.634,4.651.262.004.521.007.774.007,4.97,0,7.807-.842,11.303-2.395.278-.124.575-.185.87-.185.414,0,.826.12,1.183.356.609.404.972,1.091.959,1.822-.021,1.274-.517,2.165-.845,2.754-1.123,2.026-3.081,4.415-5.091,6.234.289.179.574.366.862.556.223.146.457.301.708.46.748.477,1.125,1.366.947,2.235-.177.869-.871,1.539-1.746,1.685-1.607.268-2.151.952-3.052,2.085-.595.748-1.318,1.657-2.42,2.39.04.355-.01.721-.152,1.064-1.366,3.266-7.713,8.203-14.164,8.203h0Z" style="fill-rule:evenodd;fill:#fff"/><path d="m260.473,121.571c.362,2.67-.419,3.853-2.603,6.292,1.816.149,3.421.219,4.868.219,5.404,0,8.587-.986,12.173-2.58-.013.753-.311,1.272-.593,1.78-1.087,1.961-3.117,4.353-5.027,5.999-1.213,1.045-1.523,1.141-2.959,2.147.232-.022.45-.032.656-.032,1.844,0,2.793.836,4.547,1.955-3.971.662-4.065,3.557-6.63,5.004-1.581.891-2.596,1.267-4.423,1.267-.117,0-.238-.002-.362-.005.763.694,1.431.959,2.183.959.582,0,1.216-.159,1.984-.4-1.084,2.592-6.801,6.887-12.188,6.887-1.533,0-3.039-.348-4.404-1.182-4.337-.283-8.362-2.936-10.191-7.205-1.813-4.231-.988-8.93,1.741-12.261.018-.065.036-.125.054-.179,1.042-3.097,3.391-5.113,6.122-6.361,1.949-.891,3.753-1.185,5.625-1.185.827,0,1.668.057,2.541.146,1.283.13,2.486.449,3.603.449,1.195,0,2.292-.365,3.283-1.715m-7.555,27.001s-.005.002-.007.003c.002-.001.005-.002.007-.003.023-.01.047-.019.071-.029.012-.005.024-.011.036-.016-.035.015-.071.03-.107.045m7.555-31.286c-1.328,0-2.605.619-3.425,1.711-.325-.019-.788-.095-1.274-.175-.522-.086-1.113-.183-1.755-.248-1.128-.114-2.073-.168-2.973-.168-2.706,0-5.06.5-7.407,1.573-3.995,1.827-6.825,4.714-8.215,8.373-3.418,4.627-4.139,10.686-1.858,16.011,2.283,5.328,7.146,8.972,12.842,9.695,1.726.855,3.636,1.288,5.691,1.288,6.848,0,14.299-5.117,16.14-9.519.104-.249.184-.504.238-.763.894-.751,1.527-1.548,2.034-2.185.84-1.056.958-1.177,1.727-1.305,1.75-.292,3.139-1.631,3.494-3.37.302-1.479-.198-2.985-1.275-3.989,1.452-1.581,2.755-3.32,3.607-4.858.398-.717,1.099-1.981,1.129-3.786.024-1.463-.699-2.837-1.919-3.644-.712-.471-1.536-.712-2.365-.712-.59,0-1.183.122-1.739.369-2.713,1.206-4.997,1.947-8.383,2.152.084-.829.068-1.736-.069-2.745-.235-1.73-1.497-3.145-3.189-3.576-.351-.089-.705-.132-1.056-.132h0Z" class="p"/><ellipse cx="220.26" cy="142.38" class="p" rx="8.05" ry="6.59" transform="rotate(-79 220.26 142.38)"/><ellipse cx="217.33" cy="133.56" class="p" rx="3.48" ry="6.17" transform="rotate(-11 217.33 133.56)"/><ellipse cx="224.7" cy="133.35" class="p" rx="6.17" ry="3.48" transform="rotate(-71 224.7 133.35)"/><ellipse cx="114.53" cy="148.96" class="p" rx="4.1" ry="4.91" transform="rotate(-57 114.53 148.96)"/><ellipse cx="109.57" cy="153.72" class="p" rx="4.91" ry="3.48" transform="rotate(-20 109.57 153.72)"/><ellipse cx="118.97" cy="153.72" class="p" rx="3.48" ry="4.91" transform="rotate(-70 118.97 153.72)"/><ellipse cx="153.66" cy="120.26" rx="7.39" ry="9.56" style="stroke:#fff;fill:#fff;stroke-miterlimit:10;stroke-width:1.517px" transform="rotate(-85 153.66 120.26)"/><ellipse cx="141.66" cy="123.59" rx="7.96" ry="13.58" style="stroke-width:1.718px;stroke:#fff;fill:#fff;stroke-miterlimit:10" transform="rotate(-76 141.66 123.59)"/><path d="m124.84 127.42 1.98-10.36c.21-1.17.46-2.82.58-3.87h2.97l-.14 1.38h.04c.74-.99 1.83-1.52 2.91-1.52 2.12 0 3.01 1.73 3.01 3.73 0 3.48-2.14 6.82-5.52 6.82-.64 0-1.28-.14-1.61-.35h-.04l-.8 4.18h-3.36Zm4.66-6.72c.25.23.54.37.97.37 1.3 0 2.21-2.31 2.21-3.96 0-.66-.21-1.32-.93-1.32-.87 0-1.57 1.01-1.81 2.43l-.43 2.47ZM136.78 123.38l2.76-14.53h3.38l-2.76 14.53h-3.38ZM153.16 113.24l-1.28 6.76c-.25 1.26-.41 2.41-.56 3.38h-2.95l.12-1.44-.04-.02c-.99 1.22-2.1 1.67-3.21 1.67-1.65 0-2.39-1.03-2.39-2.68 0-.62.08-1.3.23-2.06l1.07-5.6h3.36l-1.01 5.38c-.1.5-.16 1.01-.16 1.4 0 .45.19.85.7.85.78 0 1.51-.97 1.83-2.72l.93-4.9h3.36ZM153.93 120.5c.56.29 1.53.66 2.47.64.68 0 .99-.31.99-.7s-.29-.68-1.13-1.13c-1.11-.62-1.98-1.46-1.98-2.66 0-2.14 1.85-3.61 4.55-3.61 1.2 0 2.08.23 2.58.5l-.74 2.35c-.41-.19-1.07-.39-1.87-.39-.68 0-1.13.25-1.13.72 0 .31.33.6 1.03.95 1.15.66 2.16 1.51 2.16 2.78 0 2.35-1.94 3.65-4.72 3.63-1.26-.02-2.43-.33-3.01-.72l.8-2.35Z" class="r"/><ellipse cx="144.52" cy="127" class="p" rx="2.91" ry="13.14" transform="rotate(-89 144.52 127)"/><path d="m102.984,155.68c-.511,0-.995-.228-1.32-.621-.326-.393-.459-.911-.364-1.413l4.399-23.164c.153-.809.86-1.394,1.684-1.394h13.129c.514,0,1,.23,1.325.627.326.397.456.919.355,1.423l-.963,4.811c-.16.801-.863,1.377-1.68,1.377h-6.016l-.248,1.247h4.958c.51,0,.994.228,1.319.62s.459.91.365,1.411l-.894,4.743c-.153.81-.86,1.396-1.684,1.396h-5.596l-1.45,7.546c-.155.807-.861,1.39-1.683,1.39h-5.636Z" class="p"/><path d="m120.512,130.802l-.963,4.81h-7.423l-.928,4.674h7.045l-.894,4.743h-7.011l-1.718,8.936h-5.636l4.399-23.164h13.129m-2.268,9.485h.005m2.263-12.912h-13.129c-1.646,0-3.06,1.171-3.367,2.788l-4.399,23.164c-.191,1.003.076,2.039.727,2.825.651.786,1.619,1.242,2.64,1.242h5.636c1.643,0,3.056-1.166,3.366-2.78l1.184-6.156h4.18c1.648,0,3.063-1.173,3.368-2.792l.867-4.601c.058-.25.089-.51.089-.778,0-.613-.161-1.189-.443-1.688.847-.477,1.477-1.307,1.679-2.314l.963-4.81c.202-1.007-.059-2.051-.71-2.846s-1.624-1.255-2.651-1.255h0Zm0,6.855h.005-.005Z" class="p"/><path d="m119.821,155.68c-.511,0-.995-.228-1.32-.621-.326-.393-.459-.911-.364-1.413l4.399-23.164c.154-.809.86-1.394,1.684-1.394h5.637c.51,0,.995.228,1.32.621.326.393.459.911.364,1.413l-4.399,23.164c-.153.809-.86,1.394-1.684,1.394h-5.638Z" class="p"/><path d="m129.857,130.802l-4.399,23.164h-5.637l4.399-23.164h5.637m0-3.427h-5.637c-1.646,0-3.06,1.171-3.367,2.788l-4.399,23.164c-.19,1.003.076,2.039.727,2.825.651.786,1.619,1.242,2.64,1.242h5.637c1.646,0,3.06-1.171,3.367-2.788l4.399-23.164c.19-1.003-.076-2.039-.727-2.825-.651-.786-1.619-1.242-2.64-1.242h0Zm0,6.855h.005-.005Z" class="p"/><path d="m140.887,155.68c-.777,0-1.458-.523-1.657-1.275-.283-1.068-.5-4.07-.604-5.764-.064-1.231-.258-1.607-.316-1.694l-1.376,7.335c-.152.811-.859,1.398-1.684,1.398h-5.534c-.511,0-.995-.228-1.32-.622s-.458-.912-.363-1.413l4.331-22.717c.127-.665.633-1.193,1.292-1.348,1.705-.4,4.103-.629,6.577-.629,3.167,0,5.406.52,7.047,1.636,2.097,1.266,3.294,3.397,3.294,5.954,0,3.059-1.403,5.574-3.924,7.164.571,1.081.782,2.342.891,3.462.073.703.137,1.506.201,2.309.108,1.349.271,3.387.447,3.867.192.526.123,1.129-.198,1.588-.32.459-.839.749-1.398.749h-5.705Zm-1.06-16.48c.901-.206,1.51-.915,1.51-1.834,0-.39-.337-.588-1.001-.588h-.065l-.444,2.422Z" class="p"/><path d="m140.233,130.665c2.132,0,4.468.24,6.084,1.339,1.478.894,2.544,2.372,2.544,4.537,0,3.438-2.131,5.602-4.983,6.599v.104c1.237.619,1.753,1.993,1.958,4.09.242,2.335.379,5.669.757,6.632h-5.704c-.173-.653-.379-2.646-.55-5.431-.138-2.646-.894-3.367-2.508-3.367h-.928l-1.651,8.798h-5.533l4.33-22.717c1.616-.379,3.919-.584,6.186-.584m-2.473,10.31h1.512c2.164,0,3.78-1.58,3.78-3.609,0-1.409-1.099-2.302-2.715-2.302-.688,0-1.169.034-1.512.102l-1.065,5.809m2.473-13.737c-2.602,0-5.142.246-6.969.674-1.318.309-2.33,1.365-2.584,2.695l-4.33,22.717c-.191,1.003.075,2.04.726,2.827s1.619,1.243,2.641,1.243h5.533c1.155,0,2.194-.576,2.819-1.477.627.905,1.669,1.477,2.819,1.477h5.704c1.133,0,2.193-.56,2.831-1.496.62-.909.765-2.06.394-3.092-.133-.538-.273-2.296-.367-3.466-.065-.816-.131-1.634-.206-2.358-.057-.588-.156-1.598-.503-2.694,2.27-1.909,3.546-4.619,3.546-7.746,0-3.149-1.463-5.782-4.121-7.423-2.534-1.684-5.737-1.88-7.934-1.88h0Z" class="p"/><path d="m149.336,155.68c-.511,0-.995-.228-1.32-.621-.326-.393-.459-.911-.364-1.413l4.399-23.164c.153-.809.86-1.394,1.684-1.394h13.231c.514,0,1,.23,1.325.627s.456.919.355,1.422l-.961,4.811c-.16.801-.863,1.378-1.681,1.378h-6.124l-.135.663h5.124c.512,0,.997.229,1.323.625.325.396.457.916.358,1.418l-.928,4.743c-.157.804-.862,1.385-1.682,1.385h-5.742l-.248,1.247h5.989c.511,0,.995.228,1.321.622.325.394.458.912.362,1.414l-.928,4.845c-.155.808-.861,1.392-1.684,1.392h-13.679Z" class="p"/><path d="m166.967,130.802h.005m-.005,0l-.961,4.81h-7.527l-.825,4.09h7.218l-.928,4.743h-7.149l-.928,4.674h8.077l-.928,4.845h-13.679l4.399-23.164h13.231m-3.023,18.318h.005m3.023-21.746h-13.236c-1.646,0-3.06,1.171-3.367,2.788l-4.399,23.164c-.19,1.003.076,2.039.727,2.825.651.786,1.619,1.242,2.64,1.242h13.679c1.644,0,3.057-1.168,3.366-2.783l.901-4.703c.06-.253.091-.516.091-.787,0-.904-.35-1.727-.921-2.339.424-.456.728-1.03.855-1.677l.928-4.743c.132-.674.057-1.364-.203-1.984.672-.493,1.162-1.227,1.335-2.093l.933-4.668c.064-.261.097-.534.097-.814,0-1.893-1.532-3.427-3.425-3.427h0Zm-.005,6.855h.005-.005Z" class="p"/><path d="m172.29,155.817c-2.643,0-4.713-.151-6.154-.448-.917-.189-1.513-1.078-1.338-1.998l4.262-22.478c.129-.678.651-1.213,1.327-1.357,1.777-.378,4.041-.586,6.372-.586,2.23,0,4.584.178,6.696,1.464,2.197,1.193,3.507,3.351,3.507,5.783,0,2.331-1.055,4.364-2.878,5.74,1.156,1.242,1.812,2.933,1.812,4.845,0,2.685-1.351,5.09-3.803,6.773-2.255,1.542-5.37,2.261-9.804,2.261Zm2.443-7.833c.741-.094,1.892-.407,1.892-1.443,0-.403,0-.857-1.44-.923l-.451,2.366Zm1.977-9.975c.583-.112,1.153-.371,1.153-.952,0-.146,0-.417-.796-.417h-.099l-.259,1.369Z" class="p"/><path d="m176.758,130.665c2.337,0,4.228.24,5.842,1.237,1.547.825,2.648,2.337,2.648,4.297,0,2.886-2.062,4.777-4.468,5.498v.104c2.233.755,3.403,2.679,3.403,4.983,0,2.371-1.307,4.158-3.059,5.361-1.96,1.341-4.847,1.96-8.834,1.96-2.75,0-4.639-.171-5.809-.413l4.262-22.477c1.616-.344,3.782-.549,6.015-.549m-2.131,9.141h1.134c2.406,0,3.815-1.065,3.815-2.748,0-1.307-.963-2.131-2.51-2.131-.653,0-1.201.034-1.545.138l-.894,4.741m-.482,9.932c2.268,0,4.193-1.099,4.193-3.196,0-1.993-1.476-2.646-3.54-2.646h-1.03l-1.101,5.773c.448.069.894.069,1.478.069m2.612-22.501c-2.449,0-4.839.222-6.729.624-1.35.287-2.397,1.357-2.654,2.714l-4.262,22.477c-.349,1.838.842,3.616,2.674,3.995,1.553.321,3.741.484,6.502.484,4.795,0,8.217-.813,10.769-2.558,2.937-2.017,4.551-4.924,4.551-8.189,0-1.729-.436-3.314-1.233-4.646,1.462-1.608,2.298-3.677,2.298-5.939,0-3.058-1.63-5.767-4.365-7.269-2.47-1.49-5.201-1.692-7.552-1.692h0Z" class="p"/><path d="m197.889,155.68c-.929,0-1.688-.74-1.713-1.669l-.094-3.556h-2.636l-1.664,4.149c-.261.649-.891,1.076-1.591,1.076h-5.877c-.582,0-1.124-.296-1.44-.785-.315-.489-.361-1.105-.121-1.636l10.482-23.164c.277-.613.889-1.007,1.562-1.007h7.147c.896,0,1.642.691,1.709,1.584l1.753,23.164c.036.476-.128.945-.452,1.294-.324.35-.78.549-1.257.549h-5.809Z" class="p"/><path d="m201.945,130.802l1.753,23.164h-5.808l-.138-5.225h-5.465l-2.096,5.225h-5.877l10.483-23.164h7.147m-8.144,13.746h3.849l-.104-4.399c-.067-1.305-.067-3.471-.102-4.983h-.069c-.584,1.512-1.272,3.711-1.822,4.983l-1.752,4.399m8.144-17.174h-7.147c-1.346,0-2.568.788-3.123,2.014l-10.483,23.164c-.48,1.061-.389,2.293.242,3.271.631.978,1.716,1.569,2.88,1.569h5.877c1.4,0,2.66-.852,3.181-2.152l1.052-2.624.038,1.438c.049,1.857,1.568,3.337,3.426,3.337h5.808c.954,0,1.865-.398,2.513-1.097.649-.7.976-1.638.904-2.589l-1.753-23.164c-.135-1.787-1.625-3.169-3.418-3.169h0Z" class="p"/><path d="m205.997,155.68c-.511,0-.994-.228-1.32-.621-.325-.393-.459-.911-.363-1.413l4.399-23.164c.153-.809.86-1.394,1.684-1.394h5.636c.511,0,.994.228,1.32.621.325.394.459.912.363,1.413l-3.085,16.215h5.629c.51,0,.994.228,1.319.62.325.393.459.91.364,1.412l-.928,4.914c-.152.81-.859,1.396-1.684,1.396h-13.335Z" class="p"/><path d="m216.032,130.802l-3.471,18.249h7.699l-.928,4.914h-13.335l4.399-23.164h5.636m4.228,18.249h.005m-4.233-21.677h-5.636c-1.646,0-3.06,1.171-3.367,2.788l-4.399,23.164c-.19,1.003.076,2.039.727,2.825.651.786,1.619,1.242,2.64,1.242h13.335c1.648,0,3.062-1.172,3.368-2.792l.901-4.772c.058-.25.089-.511.089-.778,0-1.893-1.532-3.427-3.425-3.427h-3.564l2.698-14.181c.191-1.003-.076-2.039-.727-2.826-.651-.787-1.619-1.242-2.64-1.242h0Zm0,6.855h.005-.005Z" class="p"/><path d="m221.941,155.68c-.511,0-.994-.228-1.32-.621-.325-.393-.459-.911-.363-1.413l4.398-23.164c.153-.809.86-1.394,1.684-1.394h5.636c.511,0,.994.228,1.32.621.325.394.459.911.363,1.413l-3.084,16.215h5.629c.51,0,.994.228,1.319.62.325.393.459.91.364,1.412l-.928,4.914c-.152.81-.859,1.396-1.684,1.396h-13.335Z" class="p"/><path d="m231.976,130.802l-3.471,18.249h7.699l-.928,4.914h-13.335l4.399-23.164h5.636m4.228,18.249h.005m-4.233-21.677h-5.636c-1.646,0-3.06,1.171-3.367,2.788l-4.399,23.164c-.19,1.003.076,2.039.727,2.825.651.786,1.619,1.242,2.64,1.242h13.335c1.648,0,3.062-1.172,3.368-2.792l.901-4.772c.058-.25.089-.511.089-.779,0-1.893-1.532-3.427-3.425-3.427h-3.564l2.698-14.181c.191-1.003-.076-2.039-.727-2.826-.651-.787-1.619-1.242-2.64-1.242h0Zm0,6.855h.005-.005Z" class="p"/><path d="M102.75 154.3 107.22 130.75 120.75 130.75 119.71 135.94 112.29 135.94 111.43 140.23 118.48 140.23 117.51 145.36 110.5 145.36 108.78 154.3 102.75 154.3z" class="s"/><path d="m120.51 130.94-.96 4.81h-7.42l-.93 4.67h7.05l-.89 4.74h-7.01l-1.72 8.94h-5.64l4.4-23.16h13.13m.47-.39h-13.92l-.06.32-4.4 23.16-.09.46h6.42l.06-.31 1.66-8.62h7.01l.06-.32.89-4.74.09-.46h-7.04l.77-3.9h7.42l.06-.31.96-4.81.09-.46h0ZM119.59 154.3 124.06 130.75 130.09 130.75 125.62 154.3 119.59 154.3z" class="s"/><path d="m129.86 130.94-4.4 23.16h-5.64l4.4-23.16h5.64m.47-.39h-6.43l-.06.32-4.4 23.16-.09.46h6.43l.06-.31 4.4-23.16.09-.46h0ZM140.74 154.3l-.04-.14c-.18-.68-.39-2.72-.56-5.47-.14-2.68-.92-3.18-2.31-3.18h-.77l-1.65 8.8h-5.93l4.4-23.07.12-.03c1.6-.37 3.87-.59 6.23-.59 2.85 0 4.82.44 6.19 1.37 1.19.72 2.63 2.13 2.63 4.7 0 3.13-1.71 5.49-4.83 6.68 1.04.66 1.59 1.91 1.8 4.1.07.7.14 1.49.2 2.28.14 1.79.29 3.65.55 4.3l.1.27h-6.14Zm-1.47-13.38c2.05 0 3.59-1.47 3.59-3.41 0-1.28-.99-2.11-2.52-2.11-.59 0-1.02.02-1.34.08l-1 5.45h1.28Z" class="s"/><path d="M140.23 130.8c2.13 0 4.47.24 6.08 1.34 1.48.89 2.54 2.37 2.54 4.54 0 3.44-2.13 5.6-4.98 6.6v.1c1.24.62 1.75 1.99 1.96 4.09.24 2.34.38 5.67.76 6.63h-5.7c-.17-.65-.38-2.65-.55-5.43-.14-2.65-.89-3.37-2.51-3.37h-.93l-1.65 8.8h-5.53l4.33-22.72c1.62-.38 3.92-.58 6.19-.58m-2.47 10.31h1.51c2.16 0 3.78-1.58 3.78-3.61 0-1.41-1.1-2.3-2.71-2.3-.69 0-1.17.03-1.51.1l-1.06 5.81m2.47-10.7c-2.38 0-4.67.22-6.27.59l-.24.06-.05.25-4.33 22.72-.09.46h6.32l.06-.32 1.59-8.48h.61c1.3 0 1.99.46 2.12 3 .17 2.8.38 4.81.56 5.51l.08.29h6.57l-.21-.53c-.24-.62-.4-2.54-.53-4.24-.06-.79-.13-1.58-.2-2.29-.2-2.04-.69-3.3-1.59-4.03 2.95-1.25 4.62-3.67 4.62-6.72 0-2.66-1.48-4.11-2.73-4.87-1.39-.95-3.39-1.39-6.28-1.39h0Zm-1.08 5.23c.3-.04.69-.05 1.18-.05 1.41 0 2.33.75 2.33 1.92 0 1.84-1.46 3.22-3.39 3.22h-1.05l.93-5.08h0ZM149.1 154.3 153.57 130.75 167.2 130.75 166.17 135.94 158.64 135.94 157.89 139.65 165.11 139.65 164.1 144.78 156.95 144.78 156.1 149.06 164.18 149.06 163.18 154.3 149.1 154.3z" class="s"/><path d="m166.97 130.94-.96 4.81h-7.53l-.82 4.09h7.22l-.93 4.74h-7.15l-.93 4.67h8.08l-.93 4.85h-13.68l4.4-23.16h13.23m.47-.39h-14.02l-.06.32-4.4 23.16-.09.46h14.47l.06-.31.93-4.84.09-.46h-8.07l.77-3.9h7.15l.06-.31.93-4.74.09-.46h-7.21l.67-3.32h7.53l.06-.31.96-4.81.09-.46h0ZM172.29 154.44c-2.5 0-4.53-.14-5.85-.42l-.19-.04 4.32-22.79.13-.03c1.65-.35 3.86-.55 6.06-.55 2.02 0 4.14.15 5.94 1.27 1.74.93 2.74 2.55 2.74 4.46 0 2.99-2.12 4.8-4.23 5.56 1.99.83 3.16 2.68 3.16 5.03 0 2.78-1.71 4.54-3.14 5.52-1.96 1.34-4.89 1.99-8.94 1.99Zm.61-4.79c.37.04.77.04 1.25.04 1.99 0 4-.93 4-3 0-1.65-1.09-2.45-3.35-2.45h-.87l-1.03 5.41Zm2.87-9.89c2.27 0 3.62-.95 3.62-2.55 0-1.19-.89-1.94-2.32-1.94-.63 0-1.08.03-1.38.1l-.83 4.39h.9Z" class="s"/><path d="M176.76 130.8c2.34 0 4.23.24 5.84 1.24 1.55.83 2.65 2.34 2.65 4.3 0 2.89-2.06 4.78-4.47 5.5v.1c2.23.76 3.4 2.68 3.4 4.98 0 2.37-1.31 4.16-3.06 5.36-1.96 1.34-4.85 1.96-8.83 1.96-2.75 0-4.64-.17-5.81-.41l4.26-22.48c1.62-.34 3.78-.55 6.02-.55m-2.13 9.14h1.13c2.41 0 3.82-1.06 3.82-2.75 0-1.31-.96-2.13-2.51-2.13-.65 0-1.2.03-1.54.14l-.89 4.74m-.48 9.93c2.27 0 4.19-1.1 4.19-3.2 0-1.99-1.48-2.65-3.54-2.65h-1.03l-1.1 5.77c.45.07.89.07 1.48.07m2.61-19.46c-2.21 0-4.43.2-6.09.56l-.25.05-.05.25-4.26 22.48-.07.37.37.08c1.33.28 3.37.42 5.89.42 4.1 0 7.06-.66 9.05-2.03 1.47-1.01 3.23-2.82 3.23-5.68 0-2.26-1.05-4.07-2.86-5.01 2.02-.86 3.93-2.68 3.93-5.57 0-1.98-1.04-3.67-2.85-4.64-1.82-1.12-3.97-1.28-6.02-1.28h0Zm-.9 5.11c.28-.05.68-.07 1.21-.07 1.33 0 2.12.65 2.12 1.74 0 1.48-1.28 2.36-3.43 2.36h-.67l.76-4.03h0Zm-1.77 8.9h.71c2.83 0 3.15 1.29 3.15 2.26 0 2.07-2.05 2.81-3.8 2.81-.4 0-.72 0-1.02-.02l.96-5.05h0ZM197.7 154.3l-.14-5.22h-5.15l-2.1 5.23h-6.31l10.66-23.55h7.45l1.78 23.55h-6.21Zm-.25-9.8-.1-4.2c-.04-.82-.06-2-.07-3.14 0-.34-.01-.68-.01-1-.16.44-.32.91-.48 1.38-.36 1.03-.73 2.1-1.05 2.84l-1.64 4.13h3.37Z" class="s"/><path d="m201.95 130.94 1.75 23.16h-5.81l-.14-5.22h-5.46l-2.1 5.23h-5.88l10.48-23.16h7.15m-8.14 13.75h3.85l-.1-4.4c-.07-1.3-.07-3.47-.1-4.98h-.07c-.58 1.51-1.27 3.71-1.82 4.98l-1.75 4.4m8.5-14.13h-7.76l-.1.23-10.48 23.16-.25.55h6.74l.1-.24 2-4.98h4.83l.13 4.85.01.38h6.6l-.03-.42-1.75-23.16-.03-.36h0Zm-7.93 13.75 1.54-3.87c.32-.74.69-1.8 1.05-2.84.04-.12.08-.24.12-.35.01 1.12.03 2.25.07 3.07l.09 3.99h-2.88ZM205.76 154.3 210.24 130.75 216.27 130.75 212.8 149 220.49 149 219.49 154.3 205.76 154.3z" class="s"/><path d="m216.03 130.94-3.47 18.25h7.7l-.93 4.91h-13.33l4.4-23.16h5.64m.47-.39h-6.42l-.06.32-4.4 23.16-.09.46h14.12l.06-.31.93-4.91.09-.46h-7.7l3.38-17.79.09-.46h0ZM221.71 154.3 226.18 130.75 232.21 130.75 228.74 149 236.44 149 235.44 154.3 221.71 154.3z" class="s"/><path d="m231.976,130.94l-3.471,18.249h7.699l-.928,4.914h-13.335l4.399-23.164h5.636m.468-.387h-6.424l-.06.315-4.399,23.164-.087.46h14.124l.06-.315.928-4.914.087-.459h-7.699l3.384-17.79.087-.46h0Z" class="s"/><path d="m124.77 127.45 1.98-10.36c.21-1.17.46-2.82.58-3.87h2.97l-.14 1.38h.04c.74-.99 1.83-1.52 2.91-1.52 2.12 0 3.01 1.73 3.01 3.73 0 3.48-2.14 6.82-5.52 6.82-.64 0-1.28-.14-1.61-.35h-.04l-.8 4.18h-3.36Zm4.66-6.72c.25.23.54.37.97.37 1.3 0 2.21-2.31 2.21-3.96 0-.66-.21-1.32-.93-1.32-.87 0-1.57 1.01-1.81 2.43l-.43 2.47ZM136.7 123.42l2.76-14.53h3.38l-2.76 14.53h-3.38ZM153.09 113.28l-1.28 6.76c-.25 1.26-.41 2.41-.56 3.38h-2.95l.12-1.44-.04-.02c-.99 1.22-2.1 1.67-3.21 1.67-1.65 0-2.39-1.03-2.39-2.68 0-.62.08-1.3.23-2.06l1.07-5.6h3.36l-1.01 5.38c-.1.5-.16 1.01-.16 1.4 0 .45.19.85.7.85.78 0 1.51-.97 1.83-2.72l.93-4.9h3.36ZM153.86 120.53c.56.29 1.53.66 2.47.64.68 0 .99-.31.99-.7s-.29-.68-1.13-1.13c-1.11-.62-1.98-1.46-1.98-2.66 0-2.14 1.85-3.61 4.55-3.61 1.2 0 2.08.23 2.58.5l-.74 2.35c-.41-.19-1.07-.39-1.87-.39-.68 0-1.13.25-1.13.72 0 .31.33.6 1.03.95 1.15.66 2.16 1.51 2.16 2.78 0 2.35-1.94 3.65-4.72 3.63-1.26-.02-2.43-.33-3.01-.72l.8-2.35Z" class="u"/><path d="m263.481,144.712c-1.762.554-2.814.672-4.168-.559,2.061.051,3.103-.315,4.785-1.263,2.565-1.446,2.659-4.342,6.63-5.004-1.951-1.244-2.905-2.139-5.203-1.922,1.436-1.006,1.746-1.102,2.959-2.147,1.91-1.645,3.94-4.038,5.027-5.999.281-.508.58-1.027.593-1.78-4.546,2.02-8.443,3.064-17.04,2.361,2.184-2.439,2.966-3.623,2.603-6.292-1.917,2.613-4.232,1.536-6.887,1.266-2.849-.289-5.356-.246-8.166,1.039-2.731,1.249-5.079,3.264-6.122,6.361-.018.053-.036.113-.054.179-2.728,3.331-3.554,8.029-1.741,12.261,1.829,4.269,5.854,6.921,10.191,7.205,6.162,3.764,15.199-2.377,16.592-5.706Zm-11.376,4.399c.038-.016.076-.032.114-.048-.012.005-.024.011-.036.016-.026.011-.052.021-.078.032Z" style="fill:url(#d);stroke:url(#e);stroke-width:1.714px;fill-rule:evenodd;stroke-miterlimit:10"/><path d="m258.679,144.214c-1.378.354-2.191.402-3.182-.6,1.582.123,2.399-.115,3.731-.776,2.031-1.007,2.222-3.23,5.302-3.577-1.449-1.036-2.147-1.763-3.922-1.69,1.145-.715,1.387-.776,2.363-1.53,1.535-1.187,3.194-2.944,4.11-4.407.237-.379.488-.766.528-1.345-3.578,1.368-6.616,2.012-13.198,1.12,1.779-1.786,2.428-2.664,2.258-4.732-1.581,1.931-3.316,1.008-5.347.693-2.179-.338-4.108-.407-6.321.466-2.151.849-4.039,2.302-4.966,4.641-.016.04-.032.086-.049.135-2.234,2.45-3.06,6.028-1.839,9.356,1.232,3.357,4.219,5.56,7.542,5.955,4.584,3.145,11.783-1.207,12.99-3.71Zm-8.926,2.919c.03-.011.06-.021.09-.032-.01.004-.019.007-.028.011-.02.007-.041.014-.061.022Z" style="fill:url(#f);stroke:url(#g);stroke-width:.214px;fill-rule:evenodd;stroke-miterlimit:10"/><circle cx="246.53" cy="138.8" r="9.2" class="t"/><path d="m263.415,144.652c-1.749.55-2.793.667-4.136-.554,2.045.05,3.08-.312,4.749-1.253,2.546-1.435,2.639-4.309,6.579-4.965-1.936-1.234-2.883-2.122-5.163-1.908,1.425-.998,1.732-1.093,2.936-2.13,1.895-1.633,3.91-4.007,4.989-5.953.279-.504.576-1.019.588-1.767-4.511,2.004-8.378,3.041-16.91,2.342,2.168-2.42,2.943-3.595,2.583-6.244-1.903,2.593-4.199,1.524-6.834,1.257-2.827-.287-5.315-.244-8.104,1.031-2.71,1.239-5.041,3.239-6.075,6.313-.018.053-.036.112-.053.177-2.708,3.305-3.527,7.968-1.727,12.167,1.815,4.236,5.809,6.868,10.113,7.149,6.115,3.735,15.083-2.358,16.465-5.662Zm-11.289,4.366c.038-.016.076-.032.113-.048-.012.005-.024.011-.036.016-.026.011-.052.021-.077.032Z" style="fill:#fdb927;fill-rule:evenodd;stroke:#fdb927;stroke-width:1.701px;stroke-miterlimit:10"/><path d="m258.963,144.158c-1.367.351-2.174.399-3.157-.595,1.57.122,2.381-.114,3.702-.77,2.016-1,2.205-3.205,5.261-3.549-1.438-1.028-2.13-1.749-3.892-1.677,1.136-.709,1.377-.77,2.345-1.518,1.524-1.178,3.17-2.921,4.078-4.373.235-.376.484-.76.524-1.334-3.55,1.357-6.566,1.996-13.097,1.111,1.765-1.772,2.409-2.644,2.241-4.696-1.569,1.916-3.291,1-5.306.688-2.162-.336-4.077-.404-6.273.462-2.134.842-4.008,2.285-4.928,4.606-.016.04-.032.085-.048.134-2.217,2.431-3.037,5.982-1.824,9.284,1.223,3.331,4.187,5.518,7.484,5.909,4.549,3.121,11.693-1.198,12.89-3.682Zm-8.858,2.896c.03-.011.059-.021.089-.032-.009.004-.019.007-.028.011-.02.007-.041.014-.061.021Z" style="fill:#f7901e;stroke:#f7901e;stroke-width:.213px;fill-rule:evenodd;stroke-miterlimit:10"/><circle cx="246.91" cy="138.79" r="9.12" class="t"/></g></svg>