<svg id="b" xmlns="http://www.w3.org/2000/svg" viewBox="0 0 526.36 231.95"><defs><style>.d{fill:#fff}.e{fill:#8491c8}.f{fill:#004fa3}.g{fill:#ed1c2e}</style></defs><g id="c"><path class="f" d="m83.3 192.24 4.84-.02 5.41-1.05c6.17.9 11.84 3.31 11.84 3.31 9.3-3.31 17.48-3.46 17.48-3.46l1.26 1.65c16.74-2.25 27.94-1.34 27.94-1.34 8.56.45 9.9 1.97 9.9 1.97l.16-11.09 2.52-5.87-2.14-11.44 1.76-6.62-.76-19.57 2.02-10.7a69.54 69.54 0 0 1-2.77-13.69l3.52-21.97-1.13-7.37 1.51-13.56-1.5-8.58c-2.15-29.56 2.52-45.92 2.52-45.92l-6.65-1.46-5.5-1.55c-13.65 4-15.54 3.55-15.54 3.55l-10.2-.15-2.38-2.56c-4.28.3-6.8 1.5-6.8 1.5h-13.46l-6.93-.74-1.38-2.11-11.52 2.7-3.52-.14-5.47 2.4-7.3-2.85c-5.16 2.55-10.07 3.76-10.07 3.76l-3.65-.15-9.69-4.82-7.17 2.56-5.66-1.35-2.27 1.5c-7.3-2.86-15.1-3.61-15.1-3.61l1.26 3.9 2.26 25.9-3.64 12.65 4.65 12.23-3.65 30.56 2.64 6.73c-1.63 8.57-1.38 12.5-1.38 12.5L16.4 129l2.9 4.52-1.89 8.88L20.7 157c-.62 8.43-2.01 12.8-2.01 12.8l2.14 3.3-2.65 20.02 4.79-3.16 8.3 2.71 6.68-2.55 17.36-1.51c7.3-.45 9.44 2.86 9.44 2.86l18.55.77Z"/><path class="g" d="m511.13 80.54-.72 24.15.68 7.06-1.4 7.35a79.67 79.67 0 0 0 3.96 16.11c-4.26 12.62-1.23 18.41-1.23 18.41l1.21 7.82c-2.37 2.52-2.6 15.05-2.6 15.05.44 11.64 2.83 17.88 2.83 17.88l-16.52-.97-12.3-.56-1.39.96-2.76 1.12-8.14-3.33-14.18 1.66-26.7-2.12-12.95-.25-6.68 4.11-34.85-5.63-24.88 6.02-5.9-2.65-10.79 1.17-21.9-.1-7.1 1.87c-17.27-7-27.49-1.26-27.49-1.26l-6.49-1.98-14.71 2.74-7.08-3.14-19.43 2.28-20.49-2.9s-8.78-1.97-10.03.5l-12.52 1.52-14.32-3.24c-7.83 1.25-12.28 3.1-12.28 3.1l-.91-2.31-2.46-13.58c-.7-1.17-2.7-4.03-2.7-4.03l2.88-6.64-1.07-3.65c.44-5.82 1.98-9.22 1.98-9.22l.19-18.3-.85-9.43-2.6-1.9 3.54-15.62-.14-4.8 3.08-7.41-3.46-9.96c3.27-6.98 4.84-13.64 4.84-13.64l-.13-4.96-5.87-13.22 3.29-9.73-1.61-7.71 1.9-3.06c-3.45-9.95-.1-17.9-.1-17.9l4.75-.43 5.17-1.74 15.94 2.71 22.92-2.92 16.86 4.18 29.4-1.97 16.7 2.15c13.1.36 26.62-4 26.62-4l18.95 4.74 5.1-2.13 33.8 2.63 7.93-2.58 13.34 3.65 26.06-4.04 18.17 4.61c10.52-.77 15.57-4.12 15.57-4.12l15.75 3.3 1.67-3.31 12.3 1.74 7.63-4.77 15.08 2.64 21.71-2.19-4 8.74 3.25 14.74-3.08 11.87 1.26 8.57-2.76 8.58c.15 9.1 3.26 13.67 3.26 13.67"/><path class="g" d="M196.46 192.24s2.16-2.41 3.03-3.6l-4.41-.54-2.17-4.49s-1.06 2.54-2.05 5.9l-5.12 1.46s2.78 1.25 4.17 1.6c0 0-.91 3.4-1.35 7.27 0 0 2.73-3.26 5.39-4.94.4-.25 1.6 1.12 4.96 1.53 0 0-1.36-2.19-2.45-4.2Z"/><path class="d" d="M92.02 189.33c.8-6.55 0-9.72 0-9.72 2.71 1.33 8.2 2.44 8.2 2.44-5.15 4.47-8.2 7.28-8.2 7.28M79.89 67.2c-5.73-3.26-8.95-3.77-8.95-3.77 2.28-1.98 3.77-8.84 3.77-8.84a108.1 108.1 0 0 0 5.18 12.62"/><path class="g" d="M526.36 93.78c-3.37-.66-5.45-1.03-5.84-.75a18.05 18.05 0 0 0-4.21 4.97c.13-3.9.77-7.33.77-7.33a38.99 38.99 0 0 1-4.29-1.28l5-1.86c.72-3.43 1.57-6.05 1.57-6.05l2.51 4.3 4.44.2a67.28 67.28 0 0 1-2.73 3.82 85.8 85.8 0 0 0 2.78 3.98Z"/><path class="d" d="M506.36 91.59c.15-9.04-.28-13.68-.28-13.68l-.38-3.16-.6-7.3.98 4.06c.07 3.16.75 4.44.75 4.44l1.18 5.72c-.82 4.67-1.65 9.92-1.65 9.92ZM177.49 29.76l-.19-2.04.45-3.8c2.82 2.23 5.53 4.14 5.53 4.14-3.76.87-5.8 1.7-5.8 1.7ZM486.7 25.02l9.53-1.18 6.1-1.14c3.17-.09 5.17-.5 5.17-.5l-.57 1.5-.37 1.88s-.49 2.34-.5 2.53c-.03.2-.06 2.84-.06 2.84l.02 1.03.04 1.39.58 2.4-.06.25-1.7-4.62.11-2.95.1-.92.17-1.25-.52-2.3-14.23 1.12-3.8-.08ZM166.06 163.82l3.44 2.52.1.92.68 2.26-1.86.73-.4.2-3.45 1.13-.72.28c1.52-4.16 2.08-7.91 2.08-7.91l.13-.13ZM116.59 188.89l.15-.19 1.54-.12 3.88-.22 2.63.53 3.84.1 3.2.5 1.24-.04 1.54.29 2.82-.08-.67.28-1.2.19-2.34.02c-2 .26-2.88.68-2.88.68-7.83-1.66-10.22-1.72-10.22-1.72l-2.22-.11-1.31-.11Z"/><path class="f" d="m.72 162.57 2-3.28c.78-1.05.03-1.77.03-1.77L0 153.16l.04-.23 1.66.45 3.3.6.98.3c1.13-2.1 1.96-2.85 1.96-2.85L9 149.54l.2.12c.6 2.93.7 5.38.7 5.38l.08.23.76.26 3.9 2.9c.16.23-.14.34-.14.34a55.76 55.76 0 0 1-3.99 1.61c.15 2.71-.38 5.27-.38 5.27l-.71-.53-3.5-3.61c-3.47.38-5.2 1.06-5.2 1.06ZM129.26 10.14l1.58-.53 4.93-2.48 1.13-.6.08.07c-1.21 2.97-1.17 6.74-1.17 6.74l.13.92-.13.02-1.16-1.02c-1.62-.53-3.09-1.65-3.09-1.65-1.02-.98-2.3-1.47-2.3-1.47Z"/><path class="d" d="M23.5 180.13c-.28.68-.34 1.29-.34 1.29-.04 2.07.04 4.2.04 4.2l.08.18c.91.12 1.77-.06 1.77-.06l.79-.1c3.77.17 5.22-.33 5.22-.33l-.07.3-1.55.73c-2.18.23-3.17.04-3.17.04l-3.8.81-.32-.22.34-1.21-.07-1.8c.2-2.73.65-3.04.65-3.04.21-.46.05-.83.05-.83l.38.04Z"/><path class="g" d="m348.63 13.1 1.58-.53 4.94-2.49 1.12-.6.07.08c-1.2 2.97-1.16 6.74-1.16 6.74l.12.92-.12.02-1.17-1.02a12 12 0 0 1-3.1-1.65 7.6 7.6 0 0 0-2.28-1.47Z"/><path class="d" d="M219.4 34.98c-1.81-2.87-1.5-4.67-1.96-4.82-2.99-1-7.23-1.06-7.23-1.06 3.27-2.1 6.48-3.54 6.48-3.54-.6-1.31-1.4-4.25-1.4-4.25l4.37 3.05c3.23-1.36 5.87-2.14 5.87-2.14l-2.11 4.5 2.37 3.77c-1.46.08-4.7-.07-4.7-.07-.87 2.1-1.7 4.56-1.7 4.56ZM492.51 178.62c-1.81-2.86-1.5-4.67-1.96-4.81-2.98-1-7.22-1.06-7.22-1.06 3.27-2.11 6.47-3.54 6.47-3.54-.6-1.31-1.4-4.25-1.4-4.25l4.37 3.05a67.36 67.36 0 0 1 5.88-2.15l-2.11 4.52 2.36 3.77c-1.46.07-4.7-.08-4.7-.08-.86 2.1-1.69 4.55-1.69 4.55ZM174.62 149.82l3.5 2.3 1.5 1 .5.15-.12.38c-3.08 2.03-5.45 5.34-5.45 5.34l-.23.05v-1.89l.15-3.39c.34-2.52.15-3.94.15-3.94ZM264.8 24.04c1.59 0 9.22-1.02 9.22-1.02l5.43-.03-3.24.82c-1.96.3-11.4.23-11.4.23ZM298.4 25.7l3.5 2.3 1.5 1.02.49.15-.12.37c-3.08 2.04-5.45 5.35-5.45 5.35l-.23.04v-1.89l.15-3.39c.34-2.52.15-3.94.15-3.94ZM492.48 49.62l.74-.6 4.03-3.05.6-.45.22.07.39 1.66c.37 3.24.98 4.9.98 4.9l-.98-.46c-4.15-2.05-4.15-1.82-4.6-1.92-1.06-.22-1.38-.15-1.38-.15Z"/><path class="g" d="m398.04 195.13 1.53.64 5.35 1.4 1.24.3v.1c-2.87 1.43-5.32 4.29-5.32 4.29l-.51.77-.1-.07-.22-1.54a12 12 0 0 1-1.22-3.27c-.12-1.41-.75-2.62-.75-2.62Z"/><path class="f" d="m4.82 41.28 1.44.84 5.13 2.05 1.2.45-.01.11c-3.02 1.06-5.82 3.58-5.82 3.58l-.6.71-.1-.09-.02-1.54c-.67-1.57-.8-3.41-.8-3.41a7.63 7.63 0 0 0-.42-2.7Z"/><path class="d" d="m146.78 136.58 3.2.45 1.88.37 2.3.36-4.95 4.89c-1.08-3.13-2.43-6.07-2.43-6.07ZM28.54 113.88l3.5 2.28 1.5 1.02.5.15-.12.38c-3.08 2.03-5.45 5.34-5.45 5.34l-.23.04v-1.88l.15-3.39c.34-2.52.15-3.94.15-3.94ZM416.2 185.88l-1.19-3-.6-1.82-.83-2.18 6.7 1.88c-2.18 2.49-4.07 5.12-4.07 5.12ZM322.3 190.59l.12-.2 1.52-.31 3.81-.73 7-.38 4.12-1.19 2.95.89 1.38-.51 1.68.16 2.53-.2-.64.35-1.17.35-2.31.32a10.95 10.95 0 0 0-2.77 1.04c-7.97-.64-14.68.18-14.68.18l-2.22.18-1.32.05ZM317.56 23.27c-1.06-.08-3.83.01-3.83.01 1.58-.14 5.24-1.2 5.24-1.2l7.78-.78 8.83 2.48-12.57-1.27c-.99.05-4.45.84-5.45.76ZM508.6 192.2l.53.75c-1.7-.58-4.1-.8-4.1-.8-3.04-.47-11.42-1-11.42-1l6.8-.44 2.45-.19 2.1-.07.98-.21.05.1.02-2.35.09-2.69.87-9.64.5 12.19c.4 2.31.76 3.36.76 3.36l.37 1ZM189.8 193.1c.11-.47.11-.54.11-.54-1.4-.37-4.17-1.6-4.17-1.6l5.12-1.46c1-3.36 2.05-5.91 2.05-5.91l2.17 4.5 4.41.54a72.18 72.18 0 0 1-3.03 3.6l.31.57-6.97.3ZM203.64 37.08l14.07.96 13.46-.75 3.47 19.3-4.16 2.78-2.86-8.72-14.35-2.35L211 48l.74 12.7L211 73.2l1.05 14.42.7 14.1.36 13.4 5.8 1.7-.45 5.55-14.9 3.11-14.96 4.43-.45-6 6.26-4.56.88-11.97-.57-12.54 1.37-11.97-.53-11.72-.58-11.65 1.34-11.38-2.3-.3-14.25 3.16-3.36 7.96-4.25-2.18 3.88-19.43 13.77 1 13.83-1.24ZM275.74 63.36l-11.68 1.84-11.16.32 3.68-11.36 10.16-4.99 9.6 12.85-.6 1.34Zm17.76 10.77.56-4.55L290.58 55l-8.53-11.45-13.42-2.75-14.33 2.6-11.45 9.59-6.86 12.9-2.29 13.59 2.05 13.16 5.62 11.99 10.86 7.73 13.1 2.49 11.78-3.3 10.17-6.89 7.78-8.3-6.17-6.32-8.28 6.68-10.34 2.75-13.47-7.42-5.16-15.2.72-2.37 16.73-.52 12.7-.7 11.7.88ZM313.45 42.02l15.33-.03.4 5.44-3.87.98 9.84 17.6 10.03-17.61-4.07-.76.31-6.1 10.91.57 10.2-.11.54 5.4-6.33 1.3-8.38 12.9-8.03 12.26 6.34 10.5 5.41 10.87 7.37 9 5.96 2.56.25 4.93-15.7-.91-16.35 1.59-.1-6.38 4.71-.8-5.94-11.1-5.51-10.02-6.05 10.35-5.15 11.05 5.64.54-.66 5.75-11.35-.93-11.04.71-.8-5.45 5.68-1.71 10.08-13.53 8.6-14.3-8-14.64-9.17-13.43-6.52-1.03-.22-6.1 15.64.64ZM409.4 76.98l-2.77 14.84-10.82 7.9-7.16-8.48 6.92-10.6 12.49-3.84 1.34.18Zm19.2 36.1-2.18-14.2.13-13.46.51-17.88-1.62-12.42-6.8-9.53-18.24-5.9-14.42 1.53-13.23 4.68 6.6 16.8 4.54-.9.25-6.7 14.14-3.91 10.37 13.3.7 3.18-13.7 2.2-13.33 2.91-9.1 9.25-3.3 12.12 4.7 15.1 14.24 4.67 13.55-4.48 9.52-9.98-.5 2.69 1.17 14.8 9.71 2.01 11.14 2.55-.03-6.62-4.82-1.81ZM485.95 67.47l-5.45-2.03.1-6.35-14.34-6.45-8.78 8.23 6.48 8.42 9.83 5.4 14.24 10.09 4.62 16.07-4.2 15.52-10.03 12.16-15.23 4.32-14.18-3.56-11.65-7.34 4.85-10.33 3.72-11.35 4.01 4.17-.98 7.56 16.24 7.5 9.73-10.57-9.47-12.3-12.08-5.96-8.2-10.4-3.71-11.87 3.95-14.55 10.37-10.09 13.89-3.44 11.43.77 9.77 4.77-3.67 10.68-1.26 10.93ZM206.45 137.76l17.36-.16 2.7 8.17-3.23 1.01-2.01-3.48-8.8-.98-.4-.15-.98 10.33.15 8.97.87 8.54 3.82.54-.2 2.28-9.35.1-9.4.03.42-2.12 3.65-.67.4-9.77.36-8.75-.71-9.43-.68-.32-9.34 1.22-1.67 3.52-2.28-1.01 2-7.88 17.32.01ZM235.92 138.8l7.81-.46-.32 2.82-2.54.8 5.66 23.2 2.72-13.5 3.59-13.1 3.04.15 3.24-.23 3.31 14.04 3.51 12.7 5.03-23.08-2.42-.92-.16-2.81 5.8.56 5.48-.41.33 2.83-2.05.8-5.08 15.56-3.75 16.04-4.75-.5-4.67.47-5.4-22.08-5.66 21.97h-4.5l-4.54.04-4.2-16.36-4.38-15.38-2.81-.52.13-3.04 7.58.42ZM296.25 143.18l7.95 14.37-7.76 13.5-8.07-15 7.88-12.87Zm-17.37 13.84 4.6 13.98 12.16 5.44 13.1-6 4.8-14.16-5.12-14-11.68-4.5-13.42 5.28-4.44 13.96ZM376.2 145.5l-2.26-.64-.07-2.6-10.34-2.38-6.16 3.38 10 6 13 11.75-5.8 9.98-12.76 2.96-16.08-3.84 3.82-9.17 2.8.36-.17 3.48 11.35 3.85 6.68-4.85-7.23-6.28-11.1-3.76-4.23-8.14 17.23-10.83 14.3 2.38-2.97 8.35ZM395.96 143.74l8.31-.56-2.08 4.52-5.76-.17.05 12.92 3 7.59 3.2-1.55 2.3 2.47-9.26 4.53-8.38-9.65-.13-12.35.04-4.3-3.66.08.11-2.3 3.54-1.5-.34-5.69 9.26-1.42-.2 7.38ZM428.8 149.26l-12.02.88 7.28-7.8 4.64 5.93.1 1Zm9.18 4.55-.19-1.9-12.75-13.96-13.75 5.45-4.55 13.26 4.27 12.45 12.31 4.8 15.5-9.13-3.09-3.26-9.82 4.82-9.6-10.93.22-1.24 8.76-.02 12.7-.34ZM453.68 166.26v-10.43l5.97-11 6.63 11.5-7 12-5.6-2.07Zm-3.2-28.18-9.61 1.4.09 2.8 3.55 1.03.56 15.94-.3 19.6-3.27.72-.09 2.81 8.16-.74 8.55.5-.1-2.28-3.7-.92-.5-6.26 4.97 1.03 12.78-6.42 4.25-13.5-12.49-16.03-9.45 5.13.12-4.87-3.52.06Z"/><path class="f" d="m319.4 164.13 3.51-5.7c1.4-1.82.07-3.07.07-3.07l-4.84-7.6.06-.4 2.92.8 5.84 1.04 1.72.53c2-3.67 3.46-4.99 3.46-4.99l1.85-3.26.33.19a66.65 66.65 0 0 1 1.27 9.36l.14.4 1.32.46 6.9 5.04c.26.4-.27.59-.27.59-2.78 1.3-7.03 2.81-7.03 2.81.26 4.72-.66 9.18-.66 9.18l-1.27-.92-6.16-6.3c-6.11.67-9.17 1.84-9.17 1.84ZM25.03 206.42h-5.55v-2.93h16.67v2.93h-5.56v25.29h-5.56v-25.3ZM75.43 206.42H64.31v9.72h8.34v2.92h-8.34v9.73h11.12v2.92H64.31c-3.08 0-5.55-1.3-5.55-2.92v-22.37c0-1.63 2.47-2.93 5.55-2.93h11.12v2.93ZM104.34 217.6 98.1 203.5h5.64l2.85 7.23c.23.63.38 1.23.52 1.86h.16c.15-.63.3-1.23.52-1.86l2.86-7.23h5.63l-6.24 14.11 6.24 14.11h-5.63l-2.86-7.23c-.22-.63-.37-1.22-.52-1.86h-.16c-.14.64-.3 1.23-.52 1.86l-2.85 7.23H98.1l6.24-14.1ZM140.3 207.64c0-2.41 3.76-4.39 8.34-4.39s8.34 1.98 8.34 4.39v24.07h-5.56v-12.65h-5.56v12.65h-5.55v-24.07Zm5.56 8.5h5.56v-9.72h-5.56v9.72ZM182.44 224.36H188v4.43h5.55v-9.73H188c-3.08 0-5.56-1.3-5.56-2.92v-8.5c0-2.41 3.75-4.39 8.33-4.39 4.59 0 8.34 1.98 8.34 4.39v3.2h-5.56v-4.42H188v9.72h5.55c3.08 0 5.56 1.3 5.56 2.92v8.5c0 2.42-3.75 4.4-8.34 4.4-4.58 0-8.33-1.98-8.33-4.4v-3.2ZM255.59 203.49h5.55v25.3h5.56v-5.85h5.56v8.77h-16.67v-28.22ZM296.34 207.64c0-2.41 3.75-4.39 8.33-4.39s8.33 1.98 8.33 4.39v19.92c0 2.42-3.75 4.4-8.33 4.4s-8.33-1.98-8.33-4.4v-19.92Zm11.11-1.22h-5.56v22.37h5.56v-22.37ZM341.92 206.42h-5.56v-2.93h16.68v2.93h-5.56v25.29h-5.56v-25.3ZM379.1 206.42h-5.56v-2.93h16.68v2.93h-5.57v25.29h-5.55v-25.3ZM430.25 206.42h-11.11v9.72h8.33v2.92h-8.33v9.73h11.1v2.92h-11.1c-3.09 0-5.56-1.3-5.56-2.92v-22.37c0-1.63 2.47-2.93 5.56-2.93h11.1v2.93ZM454.35 203.49h11.12c3.07 0 5.55 1.3 5.55 2.93v8.93c0 1.34-1.12 1.85-2.48 2.25 1.36.28 2.48.87 2.48 2.6v9.42c0 .79.6 1.38 1.35 2.09h-5.7c-.6-.59-1.2-1.38-1.2-2.1v-10.55h-5.56v12.65h-5.56v-28.22Zm5.56 12.65h5.56v-9.72h-5.56v9.72ZM502.04 219.1c-1.73-.35-3.08-.9-4.06-1.62-.97-.75-1.5-1.61-1.5-2.53V203.5h5.56v12.69h5.56v-12.7h5.55v11.47c0 .92-.52 1.78-1.5 2.53-.97.72-2.32 1.27-4.05 1.62v12.61h-5.56v-12.6Z"/><g><path class="e" d="M117.63 42.47c12.39-.01 15.73 12.66 15.73 12.66 2.21-3.71 5.44-3.9 6.47-3.88 1.24-14.75.57-26.89-.96-32.65-.1-.37-.22-.76-.36-1.16l-8.71-.13-2.4-2.56c-4.27.3-6.79 1.5-6.79 1.5h-13.46l-6.93-.74-1.38-2.11-5.5 1.3c4.1 3.97 12.05 11.64 13.28 12.36l-3.34 1.1s-8.33-9.62-11.23-13.17l-4.57 1.08c6.5 6.96 12.26 12.85 13.4 13.23 2.89.92 2.67 5.1 3.01 9.06.23 2.54-.07 9.53-.22 15.78 1.7-4.65 5.6-11.67 13.96-11.67Zm5.3-7.36s8.77 2.56 9.57-4.15l2.18.69s-1.27 4.83-1.7 5.07l-3.44 1.88s-5.35-1.05-6.66-2.67c-1.32-1.64.06-.82.06-.82Z"/><path class="d" d="M106.62 27.06c-1.23-.72-9.19-8.4-13.28-12.37l-1.29.3a981.26 981.26 0 0 0 11.23 13.17l3.34-1.1ZM129.54 38.6l3.44-1.88c.43-.24 1.7-5.07 1.7-5.07l-2.18-.7c-.8 6.72-9.56 4.16-9.56 4.16s-1.38-.82-.06.82c1.31 1.62 6.66 2.67 6.66 2.67ZM171.17 113.48l-.05-.3-4.28-6s-3.9.9-7.21 2.26c-1.79-.67-13.52-4.69-13.52-4.69s-7.77-6.1-8.06-6.6c-.29-.48-1.51-13.08 3-46.23l.21-.63-1.08-.03h-.35c-1.03-.03-4.26.16-6.47 3.87 0 0-3.34-12.67-15.73-12.66-8.36 0-12.27 7.02-13.96 11.67-.82 2.28-1.12 4-1.14 4.05l-.07.14v.17l.53 27.19v.08l.03.1 5.9 19.03.12 10.48 2 8.6.15.26.28-.03c.11-.02 10.58 5.07 18.53 1.53l-.08-6.25c.3.35 7.48 8.97 11.5 11.3l.15.08.17-.04c.11-.01 11.56-1.36 21.9-6.88l.48-.23 6.84-9.97.21-.27Zm-39.16-57.1s-10.9-15.58-20.5-9.71c0 0 11.41-8.16 20.5 9.72Zm-19.56 65.74c-.73-.35-.18-4.25-.18-4.25l1.41 3.69 6.37 2.55s-6.87-1.65-7.6-2Zm1.75-7.05c-3.25-10.77-3.4-13.05-3.4-13.05l-1.48-9.3c-1.73-10.77-1.48-19.1-1.48-19.1l-.5-14.48c.89-4.29 1.04-8.63 1.04-8.63 3.37.05 7.42-1.3 7.42-1.3-1.83 2.3-4.1 3.66-4.1 3.66a24.19 24.19 0 0 0 6.57 3.54c-4.14 1.38-7.08 3.08-7.08 3.08a25.25 25.25 0 0 0 8.05 3.34c-4.12 1.66-7.8 3.76-7.8 3.76 5.13 3.06 7.34 3.95 7.34 3.95a36.6 36.6 0 0 0-7.8 3.3l6.65 3.25c-4.94 2.61-6.87 4.56-6.87 4.56 5.3 2.69 8.25 3.1 8.25 3.1l-7.64 4.99c5.72 3.34 9.3 4.26 9.3 4.26-5.65 2.88-7.87 5.3-7.87 5.3 6 4.5 8.04 3.55 8.04 3.55a18.6 18.6 0 0 1-6.17 2.94c2.8 3.75 6.4 4.73 6.4 4.73-3.18 1.36-5.74 1.32-5.74 1.32a42.7 42.7 0 0 0 6.35 5.07c-4.73-.03-7.48-1.84-7.48-1.84Zm14.39-36.4 4.4-21.97-2.41 22.36-.46 19.63-1.53-20.03Zm32.25 41.8c.35.79-17.92 3.4-17.92 3.4l-6.88-6.9 6.94 5.06 14.44-3.7s5.8-3.96 5.68-3.17c-.13.8-2.6 4.51-2.26 5.31Z"/><path class="f" d="M121.07 110.52s-3.6-.98-6.4-4.73c0 0 3.06-.68 6.17-2.94 0 0-2.04.95-8.04-3.55 0 0 2.22-2.42 7.87-5.3 0 0-3.58-.92-9.3-4.26l7.64-5s-2.96-.4-8.25-3.09c0 0 1.93-1.95 6.87-4.56l-6.65-3.25s2.9-1.8 7.8-3.3c0 0-2.2-.9-7.35-3.95 0 0 3.69-2.1 7.81-3.76 0 0-3.83-.7-8.05-3.34 0 0 2.94-1.7 7.08-3.08 0 0-3.72-1.24-6.57-3.54 0 0 2.27-1.36 4.1-3.65 0 0-4.05 1.34-7.42 1.3 0 0-.15 4.33-1.04 8.62l.5 14.48s-.25 8.33 1.48 19.1l1.48 9.3s.15 2.28 3.4 13.05c0 0 2.75 1.81 7.48 1.84 0 0-2.8-1.7-6.35-5.07 0 0 2.56.04 5.74-1.32ZM157.42 118.33l-14.44 3.7-6.94-5.07 6.88 6.92s18.27-2.62 17.92-3.4c-.34-.8 2.13-4.52 2.26-5.32.13-.8-5.68 3.17-5.68 3.17ZM112.27 117.87s-.55 3.9.18 4.25c.73.34 7.6 1.99 7.6 1.99l-6.37-2.55-1.4-3.7ZM132.01 56.39c-9.09-17.88-20.5-9.72-20.5-9.72 9.6-5.87 20.5 9.72 20.5 9.72ZM130.58 79.06l2.4-22.36-4.39 21.96 1.53 20.03.46-19.63z"/><path class="e" d="M55.99 79.26c4.96-5.62 10.7-6.6 14.9-6.33a66.4 66.4 0 0 1-2.85-4.62c-2.04-3.88-4.66-7.61-2.88-10.26 1.06-1.6 3.46-24.3 5.21-42.23a54.94 54.94 0 0 1-9.41 3.45l-3.65-.15-9.69-4.82-7.17 2.56-5.66-1.35-2.27 1.5a55.84 55.84 0 0 0-8.21-2.45c.31 15.34 1.3 49.2 4.06 57.28C30.4 77.79 37.5 88 47.25 99.6l5.04-.32c-.06-.15-5.28-9.87 3.7-20.02ZM67.54 21.4c.27-.13-3.86 20.85-3.5 21.52.35.68-1.53 16.53-1.53 16.53l-3.52 2.15c2.05-2.75 8.55-40.2 8.55-40.2Zm-37.98-1.13 5.73-2.38-3.22 9.3 4.03 5.57-2.78 4.17 2.88 5.31s-2.19 7.13-2 7.1c.2-.04 4.67 6.83 4.67 6.83l-6.9-.62-2.4-35.28Zm15.8 65.6-3.8 1c-.49.13-4.67-2.93-4.67-2.93l1.15-2.2c5.09 4.96 9.86-3.72 9.86-3.72s.47-1.69.6.64c.11 2.33-3.14 7.2-3.14 7.2Z"/><path class="d" d="M64.03 42.92c-.35-.67 3.78-21.65 3.51-21.52 0 0-6.5 37.45-8.55 40.2l3.52-2.15s1.88-15.85 1.52-16.53ZM47.9 78.02s-4.77 8.68-9.86 3.72l-1.15 2.2s4.18 3.06 4.66 2.93l3.81-1s3.25-4.88 3.13-7.2c-.12-2.34-.59-.65-.59-.65ZM34.2 49.33c-.19.04 2-7.09 2-7.09l-2.88-5.31 2.78-4.17-4.03-5.58 3.22-9.3-5.73 2.4 2.42 35.27 6.9.62s-4.48-6.87-4.68-6.84ZM110.95 132.7l-.04-.3-3.82-8.33-6.35-8.3-5.33-10.96-3.04-3.84-2.18-4.46-13.17-22.12-.1-.12-.14-.07c-.05-.03-2.45-1.06-5.9-1.27-4.19-.26-9.93.71-14.9 6.33-8.97 10.15-3.75 19.87-3.7 20.02 0 0-2.96.2-5.03.32l-1.98.12-.77.92.54.3c23.57 22.1 30.4 32.91 30.5 33.53.08.62-1.81 11.74-1.81 11.74s-6.02 12.75-6.91 14.74c-3.26 1.65-7.25 3.93-7.25 3.93l1.2 8.42.16.29.31.02 18.09.92s13.45-11.53 13.55-11.6l.14-.12.06-.19c1.48-5.1 1.4-17.7 1.4-18.24l3.77 4.94c7.93-3.78 12.4-16.31 12.48-16.4l.23-.22Zm-29.85 3.4-11.59-16.9-14.83-18.23 16.33 16.8 10.1 18.33ZM67.36 78.65C55.69 77.82 53.63 97.2 53.63 97.2c-.72-20.61 13.73-18.55 13.73-18.55Zm20.4 79.83s-9.97 13.16-10.21 12.26c-.24-.9-9.17-1.97-9.75-2.48-.58-.52 6.06-2.2 6.06-2.2l12.72-8.98 1.93-9.63-.75 11.03Zm10.62-22.32s.96-3.2 1.62-8.1c0 0-1.6 1.84-4.27 3.12 0 0 1.83-3.24 1.82-7.88 0 0-2.26 1.69-5.3 2.27 0 0 1.74-.77 3.42-8.2 0 0-2.57-.15-7.5 1.8 0 0 1.83-3.2 3.87-9.61l-7.2 1.84s1.69-2.37 3.77-8.02c0 0-2.14-.02-6.51 1.62l2.67-7.03s-2.68.78-6.5 3.18c0 0 .97-2.18 2.78-8 0 0-3.33 1.1-6.72 2.84 0 0 2.1-3.2 3.52-8.06 0 0-2.67.88-5.95 2.81 0 0 1.78-3.51 2.5-7.15 0 0-2.1.63-4.34.3 0 0 3.2-1.91 5.32-4.33 0 0 2.15 2.97 4.74 5.4l6.54 10.65s4.1 5.73 8.1 14.62l3.46 7.66s.99 1.71 4.02 11.68c0 0-.88 3.23-3.86 6.6Zm4.18 3.34 3.32-6.15-1.39-3.83s3.09 2.72 2.74 3.47c-.35.74-4.67 6.51-4.67 6.51Z"/><path class="f" d="M94.75 110.23c-4-8.89-8.1-14.62-8.1-14.62l-6.53-10.66c-2.59-2.42-4.74-5.39-4.74-5.39-2.11 2.42-5.32 4.33-5.32 4.33 2.25.33 4.33-.3 4.33-.3a31.95 31.95 0 0 1-2.49 7.15c3.28-1.93 5.95-2.81 5.95-2.81-1.41 4.86-3.52 8.06-3.52 8.06a55.18 55.18 0 0 1 6.72-2.84c-1.81 5.82-2.77 8-2.77 8 3.8-2.4 6.5-3.18 6.5-3.18L82.1 105c4.37-1.64 6.5-1.62 6.5-1.62-2.07 5.65-3.77 8.02-3.77 8.02l7.21-1.84c-2.04 6.42-3.87 9.6-3.87 9.6 4.93-1.94 7.5-1.8 7.5-1.8-1.68 7.44-3.42 8.2-3.42 8.2 3.04-.57 5.3-2.26 5.3-2.26 0 4.64-1.82 7.88-1.82 7.88 2.67-1.28 4.27-3.12 4.27-3.12-.66 4.9-1.62 8.1-1.62 8.1a18.3 18.3 0 0 0 3.86-6.6c-3.03-9.96-4.02-11.67-4.02-11.67l-3.47-7.66ZM73.86 166.07s-6.64 1.67-6.06 2.19c.57.5 9.5 1.58 9.75 2.48.24.9 10.21-12.26 10.21-12.26l.75-11.03-1.93 9.63-12.72 8.99ZM104.5 129.52l1.38 3.83-3.32 6.15s4.32-5.77 4.67-6.5c.35-.76-2.74-3.48-2.74-3.48ZM67.36 78.65S52.9 76.59 53.63 97.2c0 0 2.06-19.38 13.73-18.55ZM54.68 100.97l14.83 18.22L81.1 136.1l-10.09-18.33-16.33-16.8z"/></g><path class="d" d="m53.7 130.15-.79 3.11c-.48-.17-2.49-.07-2.7-.23.07-.1 2.02-.97 2.09-1.08.87-.76.54-1.05 1.4-1.8ZM55.5 141.12l.64.46-1.54 3.49-.97-.7c-.18-.56-1.4-.75-.84-1.52l1.5.62 1.21-2.35ZM33.55 136.92s1.64-.65 2.77-.69c-.64.46-2.31 1.36-2.31 1.36s-1.07 1.1-1.81 1.65c-.21-.15 1.35-2.32 1.35-2.32Z"/><path class="d" d="M52.2 129.53c-.36 1.7-2.55 2.44-3.54 3.81l-1.26 2.84c.2.16.42.31.64.46l.21-.3 6.65 1.58.54-.07-.22.3.32.23-2.53 4.17c-1.62-1.12-4.53-3.35-6.32-2.53-1.45.64-3.34 6.6-2.12 7.48 1.9.36 4.4 2.1 4.4 2.1l1.78 2.8s.17 7.16-1.97 10.12l-.31-.22-6.72.67-.7.8-1.98 2.88c-1.4.34-2.8.69-4.2 1.01l-.65-.46 3.5-4.84-.64-.47c-1.19-.56-7.2-4.16-6.7-4.84 1.59-1.77 3.19-3.52 4.78-5.3l.64.48 1.27 2.29-2.3 2.48c.71.51 3.66 3.03 4.06 2.48l.32.22c1.07-2.33 3.45-7.2 1.72-9.78-2.29-3.43-5.48-1.14-7.29-6.44l-.48-3.17s7.03-5.44 8.1-6.31c1.59.32 3.39.42 3.39.42s1.35-2.8 2.82-6.01c.18-.4.1-.9.63-.52l4.17 1.64Zm-8.9 8.3c-.68.34-2.44 1.41-2.44 1.41l-2.12 1.99.2 3.15s1.95 2.15 2.31 1.65c.69-2.73 1.37-5.47 2.04-8.2Zm1.02 12.7c-.3 2.87-.58 5.74-.86 8.6 5.04-1.01 4.23-5.67.86-8.6ZM49.3 163.82l.65.47c.06-.1.14-.2.22-.3 1.23.88 2.36-4.73 1.9-6l-2.76 5.83Z"/><path class="d" d="m34.7 163.86-1.9 4.62-.63-.46c.07-.1-.3.08-.23-.02-.14-.1.27-.4.13-.51l2.62-3.63ZM186.55 65.34l-1.41 3.17c-.5-.27-2.64-.53-2.85-.75.1-.1 2.33-.66 2.43-.76 1.07-.65.77-1.02 1.83-1.66ZM186.45 77.36l.6.61-2.3 3.43-.9-.9c-.08-.65-1.35-1.07-.6-1.8l1.48.95c.57-.78 1.14-1.52 1.72-2.3ZM163.82 68.84s1.86-.38 3.08-.22c-.76.38-2.71 1.02-2.71 1.02s-1.35 1-2.24 1.43c-.2-.2 1.87-2.23 1.87-2.23Z"/><path class="d" d="M185.07 64.4c-.7 1.75-3.17 2.13-4.48 3.41-.63.92-1.25 1.87-1.87 2.8l.6.6.29-.28c2.26.97 4.52 1.95 6.78 2.9l.6.03-.3.28.3.3c-1.15 1.34-2.3 2.67-3.46 3.98-1.52-1.49-4.2-4.4-6.27-3.85-1.66.41-4.77 6.42-3.64 7.58 1.96.72 4.3 3.04 4.3 3.04l1.39 3.33s-1.13 7.66-3.96 10.42l-.3-.3-7.27-.52-.9.73-2.65 2.7c-1.56.11-3.11.21-4.67.3l-.6-.6 4.63-4.53-.6-.6c-1.16-.83-6.9-5.77-6.26-6.4l6.08-4.76.6.61.92 2.68c-.97.74-1.92 1.5-2.9 2.24.66.66 3.35 3.88 3.87 3.37l.3.3c1.57-2.29 5-7.04 3.63-10.1-1.8-4.1-5.63-2.24-6.57-8.22l.06-3.46s8.5-4.52 9.78-5.24c1.65.64 3.55 1.07 3.55 1.07s1.95-2.75 4.11-5.9c.26-.37.27-.93.77-.42 1.38.83 2.76 1.68 4.14 2.5Zm-11.03 7.2c-.78.24-2.86 1.07-2.86 1.07l-2.62 1.72-.35 3.4s1.67 2.65 2.15 2.18l3.68-8.37Zm-1.25 13.75-2.5 9c5.56-.17 5.57-5.27 2.5-9ZM175.67 100.42l.6.6.28-.27c1.15 1.17 3.4-4.6 3.14-6.05l-4.02 5.72Z"/><path class="d" d="m160.09 97.77-2.87 4.58-.6-.6c.1-.1-.34.02-.24-.08-.12-.13.37-.39.24-.52 1.15-1.12 2.3-2.26 3.47-3.38ZM124.33 137.05l1.34 2.97c-.5.18-2.02 1.51-2.3 1.53 0-.14.99-2.04.98-2.18.21-1.15-.23-1.17-.02-2.32ZM132.68 144.64l.8-.04.97 3.74-1.2.06c-.5-.33-1.59.28-1.63-.68l1.58-.45-.52-2.63ZM112.58 155.15s.9-1.55 1.77-2.3c-.21.77-.98 2.54-.98 2.54s-.14 1.56-.4 2.46c-.26.01-.39-2.7-.39-2.7Z"/><path class="d" d="M122.75 137.5c.79 1.59-.49 3.56-.41 5.27l.78 3.05c.27 0 .54-.02.8-.03l-.01-.38 6.27-2.93.38-.4.02.38.4-.02.62 4.9c-2 .14-5.7.2-6.61 1.98-.76 1.42 1.5 7.35 3.03 7.28 1.73-.92 4.81-1.1 4.81-1.1l3.2 1.1s4.65 5.57 4.82 9.28l-.4.02-4.91 4.77-.05 1.08.24 3.54-2.71 3.46-.8.02-.28-6.04-.8.03c-1.3.3-8.34 1.23-8.38.38l.47-7.22.8-.04 2.45 1.03c-.09 1.13-.16 2.27-.24 3.42.87-.04 4.8.09 4.77-.6l.4-.01c-.63-2.53-1.8-7.9-4.8-8.86-3.99-1.3-5.08 2.56-9.86-.53l-2.38-2.2s2.15-8.77 2.45-10.12c1.47-.76 2.96-1.82 2.96-1.82s-.7-3.08-1.55-6.55c-.1-.42-.49-.77.18-.8l4.34-1.34Zm-1.85 12.22c-.32.7-1.04 2.66-1.04 2.66l-.43 2.91 2.15 2.37s2.9.48 2.87-.14c-1.17-2.6-2.36-5.2-3.55-7.8Zm8.83 9.46 4.74 7.37c3.36-4-.2-7.19-4.74-7.37ZM142.08 166.58l.8-.03-.02-.38c1.53-.07-1.1-5.25-2.27-5.96l1.49 6.37Z"/><path class="d" d="M130.49 175.82c.47 1.63.94 3.26 1.42 4.87l-.8.04c0-.13-.2.26-.2.13-.17 0-.04-.5-.22-.5l-.2-4.54Z"/><g><path class="d" d="M440.5 17.27c-.25 1.2-.21 2.16.22 2.47 1.9.35 4.4 2.1 4.4 2.1l1.79 2.8s.17 7.16-1.96 10.13l-.32-.24-6.72.68-.7.8-1.98 2.89c-1.41.34-2.8.68-4.2 1l-.65-.46 3.5-4.84-.64-.47c-1.19-.56-7.2-4.16-6.71-4.85 1.6-1.76 3.2-3.5 4.8-5.28l.63.47c.42.76.85 1.52 1.26 2.29l-2.28 2.49c.7.5 3.65 3.02 4.05 2.47l.32.23c1.06-2.34 3.45-7.22 1.72-9.78-1.26-1.9-2.78-2.05-4.21-2.69-.38.11 6.1-2.3 6.23-2.62l1.45.41Zm-.03 5.51-.85 8.6c5.04-1.02 4.23-5.68.85-8.6ZM445.46 36.06l.64.47.23-.3c1.23.88 2.36-4.73 1.9-6l-2.77 5.83Z"/><path class="d" d="M430.85 36.1c-.63 1.54-1.27 3.09-1.88 4.63l-.64-.47c.07-.1-.31.08-.23-.02-.14-.1.26-.41.13-.51l2.62-3.63Z"/><path class="g" d="m449.86 2.39-.79 3.11c-.48-.16-2.49-.07-2.7-.23.07-.1 2.01-.97 2.09-1.08.86-.75.54-1.05 1.4-1.8ZM451.66 13.36c.2.15.43.3.64.47l-1.54 3.48-.97-.7c-.19-.56-1.4-.74-.84-1.52l1.5.62 1.21-2.35ZM429.7 9.16s1.65-.64 2.77-.69c-.63.46-2.3 1.36-2.3 1.36s-1.08 1.11-1.81 1.65c-.22-.15 1.34-2.32 1.34-2.32Z"/><path class="g" d="m432.6 19.53-2.86-3.81-.48-3.16s7.03-5.45 8.09-6.32c1.6.32 3.4.42 3.4.42s1.34-2.8 2.82-6.01c.18-.4.1-.9.62-.52l4.18 1.64c-.37 1.7-2.56 2.44-3.56 3.81l-1.26 2.85.64.46.22-.3 6.64 1.57.54-.07c-.07.1-.14.21-.22.3l.32.23c-.83 1.4-1.67 2.8-2.52 4.17-1.63-1.12-4.53-3.35-6.32-2.53-1.45.64-3.45 4.2-2.23 5.08m-1.17-7.27c-.67.34-2.43 1.41-2.43 1.41l-2.12 1.99.21 3.14s1.94 2.16 2.3 1.66c.68-2.73 1.37-5.46 2.04-8.2Z"/></g><g><path class="d" d="M511.41 148.15c-.97-.48-1-.4-1.37-.1-.71 1.55-2.75 3.29-2.75 3.29l-2.8.9s-6.13-1.42-8.19-3.9l.27-.22.91-5.88-.54-.77-2.01-2.33c.02-1.28.03-2.54.07-3.82l.53-.43 3.36 4.05.54-.45c.74-.88 5.14-5.22 5.6-4.65 1.17 1.75 2.3 3.5 3.46 5.26l-.54.43-2.23.59-1.62-2.51c-.58.49-3.38 2.45-3 2.91-.08.08-.19.16-.27.22 1.77 1.42 5.4 4.54 7.96 3.63 1.9-.65 2.36-1.92 3.22-3 0-.34-.8 5.71-.56 5.9l-.04.88Zm-3.9-.98-7.13-2.63c-.25 4.53 3.9 4.87 7.12 2.63ZM495.08 148.5l-.54.44.22.25c-1.03.85 3.5 3.06 4.7 2.94l-4.38-3.64Z"/><path class="d" d="m498.28 136.03-3.53-2.63.54-.45c.06.09 0-.28.06-.2.11-.08.3.34.41.24.84 1.01 1.69 2.02 2.52 3.04Z"/><path class="g" d="m522.83 159.67-2.49-1.36c.25-.38.62-2.1.8-2.25.08.09.4 1.94.45 2.02.46.9.78.69 1.24 1.6Z"/><path class="d" d="m513.08 158.79-.54.44-2.64-2.1c.27-.2.54-.43.8-.66.53-.03.96-1.02 1.5-.37l-.87 1.14c.6.51 1.16 1.03 1.75 1.55Z"/><path class="g" d="M521.5 141s.18 1.53-.02 2.5c-.26-.63-.65-2.26-.65-2.26s-.71-1.17-1-1.91c.16-.15 1.67 1.67 1.67 1.67ZM512.02 141.3c.47-.24 3.88-1.72 3.88-1.72l2.8.28s3.1 7.2 3.6 8.3c-.62 1.29-1.1 2.8-1.1 2.8s2.1 1.77 4.5 3.73c.3.24.74.28.3.65l-2.31 3.2c-1.37-.7-1.52-2.72-2.47-3.87l-2.15-1.7-.53.44.2.25-2.8 5.32-.06.47c-.08-.08-.14-.17-.2-.25l-.28.22-2.99-3.07c1.31-1.14 3.85-3.12 3.54-4.83-.21-1.38-3.52-4.23-4.54-3.37 0 0 .14-6.62.61-6.86Zm6.56 7.8c-.15-.64-.67-2.39-.67-2.39l-1.23-2.24-2.73-.51s-2.26 1.17-1.92 1.6a1088 1088 0 0 0 6.55 3.54Z"/></g></g></svg>