<svg xmlns="http://www.w3.org/2000/svg" xmlns:xlink="http://www.w3.org/1999/xlink" viewBox="0 0 514.82 186.27"><defs><linearGradient id="linear-gradient" x1="170.69" y1="173.3" x2="170.69" y2="90.49" gradientUnits="userSpaceOnUse"><stop offset="0" stop-color="#0083c2"/><stop offset=".14" stop-color="#008dca"/><stop offset=".55" stop-color="#00a5df"/><stop offset=".8" stop-color="#00aee6"/></linearGradient><linearGradient id="linear-gradient-2" x1="244.31" y1="78.75" x2="244.31" y2="58.43" xlink:href="#linear-gradient"/><linearGradient id="linear-gradient-3" x1="244.31" y1="173.3" x2="244.31" y2="92.47" xlink:href="#linear-gradient"/><linearGradient id="linear-gradient-4" x1="328.5" y1="78.75" x2="328.5" y2="58.43" xlink:href="#linear-gradient"/><linearGradient id="linear-gradient-5" x1="328.5" y1="173.3" x2="328.5" y2="92.47" xlink:href="#linear-gradient"/><linearGradient id="linear-gradient-6" x1="468.73" y1="173.3" x2="468.73" y2="90.49" xlink:href="#linear-gradient"/><linearGradient id="linear-gradient-7" x1="385.1" y1="175.27" x2="385.1" y2="90.49" xlink:href="#linear-gradient"/><linearGradient id="linear-gradient-8" x1="270.45" y1="173.3" x2="270.45" y2="58.43" xlink:href="#linear-gradient"/><linearGradient id="linear-gradient-9" x1="298.87" y1="173.3" x2="298.87" y2="58.43" xlink:href="#linear-gradient"/><style>.cls-1{fill:#fff}.cls-11{fill:#f68b1f}</style></defs><g id="Layer_2" data-name="Layer 2"><g id="Layer_1-2" data-name="Layer 1"><path class="cls-1" d="M19.56 37.43h151.13v49.34H19.56z"/><path class="cls-1" d="M215.5 184.3a11 11 0 0 1-11-11v-44c0-9.68-.88-12.3-.92-12.41a2.17 2.17 0 0 0-1-1.2 5.38 5.38 0 0 0-2.82-.63 8.82 8.82 0 0 0-5.39 1.79 11.45 11.45 0 0 0-4.05 5.4c-.56 1.45-1.85 6.2-1.85 18.92v32.13a11 11 0 0 1-11 11h-13.75a11 11 0 0 1-11-11V132c0-11.36-.9-14.33-1-14.63a2.79 2.79 0 0 0-1.18-1.61 4.19 4.19 0 0 0-2.63-.62 9 9 0 0 0-5.23 1.79 11.58 11.58 0 0 0-4.12 5.34c-.56 1.39-1.88 5.79-1.88 16.5v34.53a11 11 0 0 1-11 11H112a11 11 0 0 1-11-11V92.47a11 11 0 0 1 11-11h13.73a11 11 0 0 1 6.31 2 41.79 41.79 0 0 1 17.77-4 38.59 38.59 0 0 1 15.71 3.29 36.59 36.59 0 0 1 9.66 6.24 42.59 42.59 0 0 1 26.52-9.5 37.19 37.19 0 0 1 21.09 6.21 36.81 36.81 0 0 1 13.77 17.13c2.65 6.54 3.88 15 3.88 26.51v44a11 11 0 0 1-11 11Z"/><path class="cls-1" d="M215.5 184.3a11 11 0 0 1-11-11v-44c0-9.68-.88-12.3-.92-12.41a2.17 2.17 0 0 0-1-1.2 5.38 5.38 0 0 0-2.82-.63 8.82 8.82 0 0 0-5.39 1.79 11.45 11.45 0 0 0-4.05 5.4c-.56 1.45-1.85 6.2-1.85 18.92v32.13a11 11 0 0 1-11 11h-13.75a11 11 0 0 1-11-11V132c0-11.36-.9-14.33-1-14.63a2.79 2.79 0 0 0-1.18-1.61 4.19 4.19 0 0 0-2.63-.62 9 9 0 0 0-5.23 1.79 11.58 11.58 0 0 0-4.12 5.34c-.56 1.39-1.88 5.79-1.88 16.5v34.53a11 11 0 0 1-11 11H112a11 11 0 0 1-11-11V92.47a11 11 0 0 1 11-11h13.73a11 11 0 0 1 6.31 2 41.79 41.79 0 0 1 17.77-4 38.59 38.59 0 0 1 15.71 3.29 36.59 36.59 0 0 1 9.66 6.24 42.59 42.59 0 0 1 26.52-9.5 37.19 37.19 0 0 1 21.09 6.21 36.81 36.81 0 0 1 13.77 17.13c2.65 6.54 3.88 15 3.88 26.51v44a11 11 0 0 1-11 11ZM244.28 89.75a20.43 20.43 0 0 1-14.87-6.28 21.2 21.2 0 0 1 0-29.76 20.83 20.83 0 0 1 29.81 0 21.2 21.2 0 0 1 0 29.76 20.53 20.53 0 0 1-14.94 6.28Z"/><path class="cls-1" d="M244.28 89.75a20.43 20.43 0 0 1-14.87-6.28 21.2 21.2 0 0 1 0-29.76 20.83 20.83 0 0 1 29.81 0 21.2 21.2 0 0 1 0 29.76 20.53 20.53 0 0 1-14.94 6.28Z"/><rect class="cls-1" x="226.44" y="81.47" width="35.74" height="102.83" rx="11"/><rect class="cls-1" x="226.44" y="81.47" width="35.74" height="102.83" rx="11"/><path class="cls-1" d="M328.46 89.75a20.47 20.47 0 0 1-14.87-6.27 21.21 21.21 0 0 1 0-29.77 20.84 20.84 0 0 1 29.82 0 21.2 21.2 0 0 1 0 29.76 20.54 20.54 0 0 1-14.95 6.28Z"/><path class="cls-1" d="M328.46 89.75a20.47 20.47 0 0 1-14.87-6.27 21.21 21.21 0 0 1 0-29.77 20.84 20.84 0 0 1 29.82 0 21.2 21.2 0 0 1 0 29.76 20.54 20.54 0 0 1-14.95 6.28Z"/><rect class="cls-1" x="310.63" y="81.47" width="35.74" height="102.83" rx="11"/><rect class="cls-1" x="310.63" y="81.47" width="35.74" height="102.83" rx="11"/><path class="cls-1" d="M490.09 184.3a11 11 0 0 1-11-11v-38.65c0-11.13-.61-14.18-.73-14.68 0-.07 0-.14-.05-.21a7.72 7.72 0 0 0-1.93-4.13 7.66 7.66 0 0 0-4.47-1 10.81 10.81 0 0 0-7.5 2.86 14.91 14.91 0 0 0-5 7.89c-.32 1.32-1 5.63-1 17.75v30.17a11 11 0 0 1-11 11h-13.77a11 11 0 0 1-11-11V92.47a11 11 0 0 1 11-11h13.73a10.93 10.93 0 0 1 6.91 2.44 44.51 44.51 0 0 1 19.58-4.41 39.53 39.53 0 0 1 22.28 6.5 38.8 38.8 0 0 1 14.51 17.55c2.85 6.72 4.17 15.67 4.17 28.17v41.58a11 11 0 0 1-11 11Z"/><path class="cls-1" d="M490.09 184.3a11 11 0 0 1-11-11v-38.65c0-11.13-.61-14.18-.73-14.68 0-.07 0-.14-.05-.21a7.72 7.72 0 0 0-1.93-4.13 7.66 7.66 0 0 0-4.47-1 10.81 10.81 0 0 0-7.5 2.86 14.91 14.91 0 0 0-5 7.89c-.32 1.32-1 5.63-1 17.75v30.17a11 11 0 0 1-11 11h-13.77a11 11 0 0 1-11-11V92.47a11 11 0 0 1 11-11h13.73a10.93 10.93 0 0 1 6.91 2.44 44.51 44.51 0 0 1 19.58-4.41 39.53 39.53 0 0 1 22.28 6.5 38.8 38.8 0 0 1 14.51 17.55c2.85 6.72 4.17 15.67 4.17 28.17v41.58a11 11 0 0 1-11 11Z"/><path class="cls-1" d="M385.13 186.27c-15.15 0-28.32-5.6-38.1-16.22a54.53 54.53 0 0 1-.72-73.31 52.33 52.33 0 0 1 77.56-.09 54.63 54.63 0 0 1-.71 73.4c-9.77 10.62-22.92 16.22-38.03 16.22Zm0-71.09a15 15 0 0 0-11.58 5.13 17.45 17.45 0 0 0-5.12 13 18.88 18.88 0 0 0 2.36 9.22 15.68 15.68 0 0 0 5.93 6.17 17.39 17.39 0 0 0 16.86 0 15.56 15.56 0 0 0 5.9-6.15 18.77 18.77 0 0 0 2.36-9.22 17.4 17.4 0 0 0-5.14-13c-3.47-3.56-7.03-5.15-11.61-5.15Z"/><path class="cls-1" d="M385.13 186.27c-15.15 0-28.32-5.6-38.1-16.22a54.53 54.53 0 0 1-.72-73.31 52.33 52.33 0 0 1 77.56-.09 54.63 54.63 0 0 1-.71 73.4c-9.77 10.62-22.92 16.22-38.03 16.22Zm0-71.09a15 15 0 0 0-11.58 5.13 17.45 17.45 0 0 0-5.12 13 18.88 18.88 0 0 0 2.36 9.22 15.68 15.68 0 0 0 5.93 6.17 17.39 17.39 0 0 0 16.86 0 15.56 15.56 0 0 0 5.9-6.15 18.77 18.77 0 0 0 2.36-9.22 17.4 17.4 0 0 0-5.14-13c-3.47-3.56-7.03-5.15-11.61-5.15Z"/><rect class="cls-1" x="251.76" y="47.43" width="37.39" height="136.87" rx="11"/><rect class="cls-1" x="251.76" y="47.43" width="37.39" height="136.87" rx="11"/><rect class="cls-1" x="280.18" y="47.43" width="37.39" height="136.87" rx="11"/><rect class="cls-1" x="280.18" y="47.43" width="37.39" height="136.87" rx="11"/><path class="cls-1" d="M39.08 95.76A37.07 37.07 0 0 1 27.72 94a11.12 11.12 0 0 1-3.34.52H11a11 11 0 0 1-11-11V11A11 11 0 0 1 11 0h13.38a11 11 0 0 1 11 11v6.1a38 38 0 0 1 3.87-.19 37.28 37.28 0 0 1 27.38 11.73 39.26 39.26 0 0 1 11.1 27.78A39 39 0 0 1 66.5 84.13a37.56 37.56 0 0 1-27.42 11.63Zm-.41-43.87a3.71 3.71 0 0 0-2 .57 2.77 2.77 0 0 0-1.21 1.15 4.74 4.74 0 0 0-.46 2.47 4.11 4.11 0 0 0 1.14 3.36 2.83 2.83 0 0 0 2.48 1 3.09 3.09 0 0 0 1.7-.44 3.36 3.36 0 0 0 1.31-1.43 4.44 4.44 0 0 0 .63-2.32 4.59 4.59 0 0 0-.66-2.38 3.71 3.71 0 0 0-1.4-1.53 2.66 2.66 0 0 0-1.53-.45Z"/><path class="cls-1" d="M39.08 95.76A37.07 37.07 0 0 1 27.72 94a11.12 11.12 0 0 1-3.34.52H11a11 11 0 0 1-11-11V11A11 11 0 0 1 11 0h13.38a11 11 0 0 1 11 11v6.1a38 38 0 0 1 3.87-.19 37.28 37.28 0 0 1 27.38 11.73 39.26 39.26 0 0 1 11.1 27.78A39 39 0 0 1 66.5 84.13a37.56 37.56 0 0 1-27.42 11.63Zm-.41-43.87a3.71 3.71 0 0 0-2 .57 2.77 2.77 0 0 0-1.21 1.15 4.74 4.74 0 0 0-.46 2.47 4.11 4.11 0 0 0 1.14 3.36 2.83 2.83 0 0 0 2.48 1 3.09 3.09 0 0 0 1.7-.44 3.36 3.36 0 0 0 1.31-1.43 4.44 4.44 0 0 0 .63-2.32 4.59 4.59 0 0 0-.66-2.38 3.71 3.71 0 0 0-1.4-1.53 2.66 2.66 0 0 0-1.53-.45Z"/><path class="cls-1" d="M97.2 95.76a37.32 37.32 0 0 1-27.39-11.71A39.36 39.36 0 0 1 58.7 56.21a38.87 38.87 0 0 1 11.24-27.67 38.25 38.25 0 0 1 38.84-9.9 10.92 10.92 0 0 1 3.35-.52h13.3a11 11 0 0 1 11 11v54.44a11 11 0 0 1-11 11h-13.3a11 11 0 0 1-3.41-.54 38 38 0 0 1-11.52 1.74Zm.66-43.53a3.1 3.1 0 0 0-1.76.46 3.28 3.28 0 0 0-1.3 1.41 4.45 4.45 0 0 0 0 4.6 3.74 3.74 0 0 0 1.41 1.55 2.83 2.83 0 0 0 1.59.45 3.81 3.81 0 0 0 2-.57A2.67 2.67 0 0 0 101 59a4.67 4.67 0 0 0 .52-2.44 4 4 0 0 0-1.15-3.34 2.88 2.88 0 0 0-2.51-.99Z"/><path class="cls-1" d="M97.2 95.76a37.32 37.32 0 0 1-27.39-11.71A39.36 39.36 0 0 1 58.7 56.21a38.87 38.87 0 0 1 11.24-27.67 38.25 38.25 0 0 1 38.84-9.9 10.92 10.92 0 0 1 3.35-.52h13.3a11 11 0 0 1 11 11v54.44a11 11 0 0 1-11 11h-13.3a11 11 0 0 1-3.41-.54 38 38 0 0 1-11.52 1.74Zm.66-43.53a3.1 3.1 0 0 0-1.76.46 3.28 3.28 0 0 0-1.3 1.41 4.45 4.45 0 0 0 0 4.6 3.74 3.74 0 0 0 1.41 1.55 2.83 2.83 0 0 0 1.59.45 3.81 3.81 0 0 0 2-.57A2.67 2.67 0 0 0 101 59a4.67 4.67 0 0 0 .52-2.44 4 4 0 0 0-1.15-3.34 2.88 2.88 0 0 0-2.51-.99Z"/><path class="cls-1" d="M166 94.56a11 11 0 0 1-10.56-7.91 11 11 0 0 1-10.56 7.91h-13.43a11 11 0 0 1-11-11V29.12a11 11 0 0 1 11-11h13.38a10.82 10.82 0 0 1 3.08.44 34.13 34.13 0 0 1 10.61-1.65A30.81 30.81 0 0 1 175.87 22a30.48 30.48 0 0 1 11.37 13.73c2.11 5 3.09 11.29 3.09 19.88v27.95a11 11 0 0 1-11 11Z"/><path class="cls-1" d="M166 94.56a11 11 0 0 1-10.56-7.91 11 11 0 0 1-10.56 7.91h-13.43a11 11 0 0 1-11-11V29.12a11 11 0 0 1 11-11h13.38a10.82 10.82 0 0 1 3.08.44 34.13 34.13 0 0 1 10.61-1.65A30.81 30.81 0 0 1 175.87 22a30.48 30.48 0 0 1 11.37 13.73c2.11 5 3.09 11.29 3.09 19.88v27.95a11 11 0 0 1-11 11Z"/><path class="cls-1" d="M216.29 94.56a11 11 0 0 1-7.37-2.85L207 90a11 11 0 0 1-8.94 4.59h-13.39a11 11 0 0 1-11-11V11a11 11 0 0 1 11-11h13.38a11 11 0 0 1 11 11v8.55a11 11 0 0 1 5.41-1.43h20.08a11 11 0 0 1 7.26 19.27l-20.58 18.06 21.95 20a11 11 0 0 1-7.4 19.14Z"/><path class="cls-1" d="M216.29 94.56a11 11 0 0 1-7.37-2.85L207 90a11 11 0 0 1-8.94 4.59h-13.39a11 11 0 0 1-11-11V11a11 11 0 0 1 11-11h13.38a11 11 0 0 1 11 11v8.55a11 11 0 0 1 5.41-1.43h20.08a11 11 0 0 1 7.26 19.27l-20.58 18.06 21.95 20a11 11 0 0 1-7.4 19.14ZM80 146.29c-13.91 0-24.4-10.19-24.4-23.7A24.64 24.64 0 0 1 61.73 106a10.33 10.33 0 0 1-.52-1.38l-2.1-7a11 11 0 0 1 4.8-12.55c5.6-3.42 13.31-5.38 21.16-5.38 17.64 0 28.61 11.1 28.61 29v15.42a60.06 60.06 0 0 0 .46 8.45 11 11 0 0 1-10.85 12.8h-9.72a11 11 0 0 1-3.86-.7 28.74 28.74 0 0 1-9.71 1.63Z"/><path class="cls-1" d="M80 146.29c-13.91 0-24.4-10.19-24.4-23.7A24.64 24.64 0 0 1 61.73 106a10.33 10.33 0 0 1-.52-1.38l-2.1-7a11 11 0 0 1 4.8-12.55c5.6-3.42 13.31-5.38 21.16-5.38 17.64 0 28.61 11.1 28.61 29v15.42a60.06 60.06 0 0 0 .46 8.45 11 11 0 0 1-10.85 12.8h-9.72a11 11 0 0 1-3.86-.7 28.74 28.74 0 0 1-9.71 1.63Z"/><path d="M216.68 94.85a26.46 26.46 0 0 0-15-4.36 30.7 30.7 0 0 0-16.79 5 36.52 36.52 0 0 0-10.74 10.9 28.75 28.75 0 0 0-4.33-7.2 24.6 24.6 0 0 0-8.82-6.34 27.81 27.81 0 0 0-11.27-2.36 31.55 31.55 0 0 0-16.61 4.81 34.28 34.28 0 0 0-7.47 6.62v-9.45H112v80.83h13.73v-34.56c0-9.29.91-16.23 2.68-20.63a22.6 22.6 0 0 1 8-10.23 19.87 19.87 0 0 1 11.53-3.77 15.32 15.32 0 0 1 9 2.64 13.76 13.76 0 0 1 5.22 7c1.06 3.08 1.6 9.21 1.6 18.23v41.32h13.74v-32.08c0-10.71.87-18.4 2.58-22.86a22.37 22.37 0 0 1 7.85-10.36 19.79 19.79 0 0 1 11.82-3.87 15.76 15.76 0 0 1 8.95 2.49 13.19 13.19 0 0 1 5.19 6.5c1.07 2.84 1.61 8.31 1.61 16.25v44h13.94v-44c0-9.95-1-17.26-3.07-22.36a26 26 0 0 0-9.69-12.16Z" fill="url(#linear-gradient)"/><path d="M244.28 58.43a9.56 9.56 0 0 0-7 3 9.93 9.93 0 0 0-2.94 7.21 9.81 9.81 0 0 0 2.94 7.13 9.84 9.84 0 0 0 14.13 0 9.85 9.85 0 0 0 2.94-7.13 10 10 0 0 0-2.94-7.21 9.65 9.65 0 0 0-7.13-3Z" fill="url(#linear-gradient-2)"/><path fill="url(#linear-gradient-3)" d="M239.43 92.47h-1.99V173.3h13.74V92.47h-11.75z"/><path d="M328.46 58.43a9.58 9.58 0 0 0-7 3 10 10 0 0 0-2.94 7.21 9.85 9.85 0 0 0 2.94 7.13 9.54 9.54 0 0 0 7 3 9.65 9.65 0 0 0 7.11-3 9.85 9.85 0 0 0 2.94-7.13 10 10 0 0 0-2.94-7.21 9.69 9.69 0 0 0-7.11-3Z" fill="url(#linear-gradient-4)"/><path fill="url(#linear-gradient-5)" d="M323.62 92.47h-1.99V173.3h13.74V92.47h-11.75z"/><path d="M500.52 107.88a28 28 0 0 0-10.47-12.68 28.7 28.7 0 0 0-16.19-4.71 33.67 33.67 0 0 0-16.44 4.17 39.9 39.9 0 0 0-10.05 8V92.47h-13.73v80.83h13.73v-30.18c0-9.91.45-16.78 1.34-20.41a26 26 0 0 1 8.6-13.63 21.83 21.83 0 0 1 14.6-5.46c4.68 0 8.49 1.15 11.33 3.42s4.79 5.74 5.81 10.33c.69 2.84 1 8.64 1 17.28v38.65h13.73v-41.54c.04-10.83-1.03-18.64-3.26-23.88Z" fill="url(#linear-gradient-6)"/><path d="M385.13 90.49a39.44 39.44 0 0 0-30.62 13.59 43.51 43.51 0 0 0 .62 58.52c7.74 8.41 17.83 12.67 30 12.67s22.2-4.26 29.94-12.67a43.65 43.65 0 0 0 .62-58.6 39.5 39.5 0 0 0-30.56-13.51ZM399 158.22a28.41 28.41 0 0 1-27.86 0 26.69 26.69 0 0 1-10-10.36 29.71 29.71 0 0 1-3.74-14.55 28.43 28.43 0 0 1 8.19-20.63 25.91 25.91 0 0 1 19.51-8.5c7.6 0 14 2.78 19.49 8.5a28.41 28.41 0 0 1 8.22 20.63 29.6 29.6 0 0 1-3.74 14.55A26.73 26.73 0 0 1 399 158.22Z" fill="url(#linear-gradient-7)"/><path fill="url(#linear-gradient-8)" d="M262.76 58.43h15.39V173.3h-15.39z"/><path fill="url(#linear-gradient-9)" d="M291.18 58.43h15.39V173.3h-15.39z"/><path class="cls-11" d="M39.25 27.91a25.64 25.64 0 0 0-14.87 4.49V11H11v72.56h13.38v-3.37a23.75 23.75 0 0 0 2.7 1.68 25.16 25.16 0 0 0 12 2.89 26.46 26.46 0 0 0 19.55-8.32 27.75 27.75 0 0 0 8.1-20 28.1 28.1 0 0 0-8-20.15 26.16 26.16 0 0 0-19.48-8.38Zm12 20.64a15.54 15.54 0 0 1 0 15.36 14.21 14.21 0 0 1-5.33 5.56 14 14 0 0 1-7.33 2 13.77 13.77 0 0 1-10.39-4.35 15.07 15.07 0 0 1-4.23-11 15.65 15.65 0 0 1 1.88-7.79 13.7 13.7 0 0 1 5.36-5.37 14.65 14.65 0 0 1 7.47-2 13.6 13.6 0 0 1 7.16 2 14.56 14.56 0 0 1 5.38 5.59ZM112.13 32.47a24.45 24.45 0 0 0-2.69-1.67 25.41 25.41 0 0 0-12.07-2.89 26.46 26.46 0 0 0-19.56 8.32 27.69 27.69 0 0 0-8.11 20 28.13 28.13 0 0 0 8 20.2 27 27 0 0 0 31.32 5.64 25.85 25.85 0 0 0 3.08-1.81v3.32h13.3V29.12h-13.3ZM85.21 64.05a15.44 15.44 0 0 1 0-15.29 14.37 14.37 0 0 1 5.34-5.56 14.17 14.17 0 0 1 7.34-2 13.82 13.82 0 0 1 10.41 4.35 15 15 0 0 1 4.25 11 15.63 15.63 0 0 1-1.89 7.77 13.62 13.62 0 0 1-5.34 5.33 14.71 14.71 0 0 1-7.47 2 13.69 13.69 0 0 1-7.21-2 14.55 14.55 0 0 1-5.43-5.6ZM169.79 31.2a20 20 0 0 0-11.27-3.29 23.1 23.1 0 0 0-13.69 4.41v-3.2h-13.38v54.44h13.38v-21c0-7.29.41-10.48.74-11.83a13.14 13.14 0 0 1 4.44-7 10.91 10.91 0 0 1 7.32-2.73 8.33 8.33 0 0 1 5.38 1.55 8.34 8.34 0 0 1 2.68 5c.21.85.56 3.26.56 9.93v26.08h13.38V55.65c0-7-.73-12.06-2.22-15.59a19.73 19.73 0 0 0-7.32-8.86ZM204.72 55.31l29.82-26.19h-20.08l-16.41 14.46V11h-13.38v72.56h13.38V67.05l18.24 16.51h19.48l-31.05-28.25z"/><path d="m93.57 134.33-.71-4.73h-.26a15.85 15.85 0 0 1-12.6 5.69c-8.58 0-13.4-6.22-13.4-12.7 0-10.78 9.55-16.21 25.32-16.12v-.7c0-2.81-1.14-7.45-8.67-7.45a22.59 22.59 0 0 0-11.48 3.15l-2.11-7a30.74 30.74 0 0 1 15.43-3.77c13.66 0 17.61 8.68 17.61 18v15.42a68.26 68.26 0 0 0 .61 10.25Zm-1.41-20.85c-7.62-.18-14.89 1.49-14.89 8 0 4.21 2.71 6.13 6.13 6.13a8.72 8.72 0 0 0 8.41-5.87 7.51 7.51 0 0 0 .35-2.36Z" fill="#939598"/></g></g></svg>