<svg xmlns="http://www.w3.org/2000/svg" viewBox="0 0 145.6 65.36"><defs><style>.cls-1{fill:#fff}</style></defs><g id="Layer_2" data-name="Layer 2"><g id="Layer_1-2" data-name="Layer 1"><path id="White_drop" data-name="White drop" class="cls-1" d="M140.2 44.81H137a25.66 25.66 0 1 0-38.67-33 3.52 3.52 0 0 0-2.48-1.06h-9.3a3.47 3.47 0 0 0-2.51 1.07 3.5 3.5 0 0 0-2.51-1.07h-9.21a3.51 3.51 0 0 0-3.23 2.15c-.28-.16-.57-.32-.86-.46l.27-1.35a3.49 3.49 0 0 0-3.44-4.17h-6.29a3.5 3.5 0 0 0-3.44 2.85L55 11.38a12.76 12.76 0 0 0-6.89 5l-.33-2.57a3.5 3.5 0 0 0-3.47-3.05H34.25a3.5 3.5 0 0 0-3.1 1.89l-3.63 7 .71-3.88A3.5 3.5 0 0 0 26.36 12a17.69 17.69 0 0 0-8.06-1.85 18 18 0 0 0-14 6.24A18.39 18.39 0 0 0 0 28.52a15.4 15.4 0 0 0 5.06 11.65A15.65 15.65 0 0 0 15.59 44a16.72 16.72 0 0 0 4.68-.68 3 3 0 0 0-.94 2.19v.24h-.78a2 2 0 0 0-1.5.67 2 2 0 0 0-1.49-.67h-1.71a2 2 0 0 0-1.44.61 2 2 0 0 0-1.41-.58H9.26a2 2 0 0 0-2 2.27l.92 6.67a2 2 0 0 0 2 1.73h1.67a2 2 0 0 0 1.55-.75 2 2 0 0 0 1.56.75h1.67a2 2 0 0 0 1.64-.89 1 1 0 0 0 .12.17 2 2 0 0 0 1.53.72h1.63a2 2 0 0 0 1.58-.79 4 4 0 0 0 2.81.93 5.4 5.4 0 0 0 .86-.08 4.37 4.37 0 0 0 .67-.17 2.06 2.06 0 0 0 .61.11h1.62a2 2 0 0 0 1.43-.61 2 2 0 0 0 1.43.61h1.63a2 2 0 0 0 1.22-.45l-.95 5.42A3 3 0 0 0 37.41 65h9.83a3.19 3.19 0 0 0 .7-.09 3.38 3.38 0 0 0 .72.09h11.63a3 3 0 0 0 2.5-1.36c.06.09.12.2.19.29a3 3 0 0 0 2.3 1.07h4.32a2.93 2.93 0 0 0 1.28-.29 3.12 3.12 0 0 0 1.29.29h3.26a3 3 0 0 0 1.36-.33 2.88 2.88 0 0 0 1.36.33h4.49a3.57 3.57 0 0 0 .47 0 2.91 2.91 0 0 0 .31 0h5.16a3 3 0 0 0 2.63-1.56l.32-.6h.26A3 3 0 0 0 94.67 65h4.79a2.88 2.88 0 0 0 1.2-.26 2.91 2.91 0 0 0 1.2.26h4.64a3 3 0 0 0 3-2.48l.23-1.32a7.89 7.89 0 0 0 1.27 1.64 8.89 8.89 0 0 0 3.18 1.91 11.67 11.67 0 0 0 3.84.61 12.6 12.6 0 0 0 2.54-.24 11.71 11.71 0 0 0 2.07-.62h.12a3 3 0 0 0 1.65.51h4.61a3 3 0 0 0 2-.78 3 3 0 0 0 2 .78h4.61a3 3 0 0 0 3-2.48l2.49-14.14a3 3 0 0 0-.65-2.45 3 3 0 0 0-2.26-1.13Z"/><g id="CASH_5_with_EZ_MATCH-logo" data-name="CASH 5 with EZ MATCH-logo"><path d="M110.7 45.83h4.12l-.16.92c.3-.17.62-.33 1-.48a11.18 11.18 0 0 1 8.2-.12 9.14 9.14 0 0 1 1.29.65l.17-1h3.9a22.18 22.18 0 1 0-18.47 0Z" fill="#9aca3c"/><path id="blue" d="m37.41 62 2.5-14.15h9.25l-.68 3.86h-4.9L43.34 53H48l-.64 3.59h-4.65l-.26 1.48h5.47L47.24 62Zm11.25 0 .68-3.88 6.59-6.43H50.7l.68-3.84h11.24L62 51.17l-7 6.85h6L60.29 62Zm29.49 0 1.57-8.19h-.11L75.43 62h-3.26l-1.26-8.19h-.1L69.6 62h-4.32l2.5-14.15h5.89l1.24 7.76H75l3.68-7.76h6.45L82.64 62Zm16.52 0-.32-2.16h-4.6L88.58 62h-5.16l8.69-14.15H97L99.46 62Zm-1.12-9.33-2 3.64H94Zm14.74-.92L106.5 62h-4.64l1.8-10.25h-3.58l.7-3.9h11.67l-.7 3.9Zm14.52 9.36a6.67 6.67 0 0 1-1.25.65 9.1 9.1 0 0 1-1.57.46 9.53 9.53 0 0 1-1.93.18 8.6 8.6 0 0 1-2.84-.44 5.75 5.75 0 0 1-2.12-1.26 5.45 5.45 0 0 1-1.33-2 6.84 6.84 0 0 1-.46-2.57 9.06 9.06 0 0 1 .63-3.4A8.71 8.71 0 0 1 123.06 48a5.7 5.7 0 0 1 2.14 1.41l-3.2 3.3a2.17 2.17 0 0 0-1-.77 3.32 3.32 0 0 0-1.33-.25 3 3 0 0 0-1.38.31 3.46 3.46 0 0 0-1.06.84 3.66 3.66 0 0 0-.67 1.23 4.54 4.54 0 0 0-.24 1.5 2.35 2.35 0 0 0 2.62 2.43 3.11 3.11 0 0 0 1.42-.32 4.26 4.26 0 0 0 1.14-.78l2.28 3.4c-.28.28-.61.52-.97.77Zm10.28.89 1-5.44h-4l-1 5.44h-4.61l2.49-14.15h4.6l-.86 4.86h4l.85-4.86h4.64L137.7 62ZM16.63 54.45H15l-.6-4.71-2.49 4.71h-1.73l-.92-6.67H11l.46 4.79 2.39-4.79h1.71l.54 4.79 2.42-4.79h1.7Zm3.29 0 1.17-6.67h1.64l-1.18 6.67Zm3.35-9a1 1 0 0 1-.29.7.9.9 0 0 1-.7.31 1 1 0 0 1-.69-.25.89.89 0 0 1-.28-.71.93.93 0 0 1 .31-.73 1 1 0 0 1 .7-.28.89.89 0 0 1 .95 1Zm.19 3.62.24-1.33h1.15l.34-2h1.61l-.33 2H28l-.24 1.33h-1.5l-.59 3.12a2.87 2.87 0 0 0 0 .39.52.52 0 0 0 .22.49 1 1 0 0 0 .57.14h.33l.3-.06-.09 1.26a3.8 3.8 0 0 1-.49.13 3.49 3.49 0 0 1-.52.05 2.13 2.13 0 0 1-1.5-.43 1.45 1.45 0 0 1-.49-1.11v-.43c0-.16 0-.29.07-.42l.56-3.09Zm9.1 5.34.64-3.67v-.33a2 2 0 0 0 0-.34 1.38 1.38 0 0 0-.23-.78 1 1 0 0 0-.86-.34 1.66 1.66 0 0 0-.72.15 1.68 1.68 0 0 0-.54.41 2.39 2.39 0 0 0-.38.59 3.31 3.31 0 0 0-.2.68l-.64 3.63h-1.55l1.84-10.51h1.64l-.84 4.78a2.6 2.6 0 0 1 .8-.78 2.2 2.2 0 0 1 1.26-.34 2.63 2.63 0 0 1 1 .16 2.07 2.07 0 0 1 .68.45 1.7 1.7 0 0 1 .4.66 2.36 2.36 0 0 1 .13.8 3.8 3.8 0 0 1 0 .62l-.74 4.16ZM122.65 28c-.74-2.13-3.14-3.51-8.85-3.51-.93 0-1.72 0-2.47.08l-.41 2.17c1.44-.1 2.7-.22 4.48-.22 3.6-.04 5.86.48 7.25 1.48Zm8.15-5.15a10.79 10.79 0 0 1 1.53 4.88c.62 8.88-6.7 13.81-16 13.81a23.27 23.27 0 0 1-8-1.24l-.2 1.1c1.59 1.2 5.25 2.16 9.77 2.16 9.29 0 16.61-4.92 16-13.8a10.57 10.57 0 0 0-3.1-6.95Zm4-15h-1.88l-.79 5.82h-12.5l-.84 4a5.85 5.85 0 0 1 1.39-.11h.65l.4-1.89h12.5Z" fill="#0072b4"/><path id="white_5" data-name="white 5" class="cls-1" d="M132.15 13.58h-12.5l-.84 4a5.85 5.85 0 0 1 1.39-.11 14.17 14.17 0 0 1 7.86 2.33 10.49 10.49 0 0 1 4.27 7.89c.62 8.88-6.7 13.81-16 13.81-4.52 0-8.18-1-9.77-2.17l1.37-7.3a18.26 18.26 0 0 0 7.86 1.74c3.28 0 7.33-1.24 7.1-4.54-.2-2.83-2.32-4.78-9.1-4.78-1.78 0-3 .12-4.48.22l3.57-18.94h20.33Z"/><path id="CASH" d="M20.27 39.66a13.52 13.52 0 0 1-4.68.86 12.17 12.17 0 0 1-8.21-3 11.87 11.87 0 0 1-3.88-9A14.82 14.82 0 0 1 7 18.65a14.52 14.52 0 0 1 11.31-5 14.09 14.09 0 0 1 6.49 1.48l-1.57 8.54a10 10 0 0 0-5-1.52 5.29 5.29 0 0 0-5.5 5.47 4.13 4.13 0 0 0 4.4 4.38A9.57 9.57 0 0 0 22 30.43Zm23.08-3.37a17.16 17.16 0 0 0 4.29 3.49v.06h-9l-.17-3.4H32.3l-1.39 3.4H21l13.25-25.59h10.09l2.2 17.1-3.19 4.94Zm-5.29-5.9L38 27.64c0-.9-.11-2-.11-3.4v-1.79c-.52 1.72-1 3-1.27 3.68l-1.77 4.26Zm7.59 5.44a17.82 17.82 0 0 0 7.77 4.08L52.55 44h6.26l.79-3.81c5.24-1.15 8.34-4.73 8.34-9 0-3.57-1.76-5.43-5.45-7.08-2-.86-3.25-1.25-3.25-2.21 0-.65.54-1.08 1.43-1.08 1.4 0 3.1.86 5.13 2.6l3.52-6.15a13.79 13.79 0 0 0-5.09-2.65l.83-4.22h-6.29L58 14.29c-5.2.72-8.36 4.29-8.36 8.73 0 3.47 2 5.62 6.19 7.33 1.7.72 2.7.93 2.7 1.76 0 .57-.6 1-1.7 1-2.21 0-4.6-1.28-6.67-3.82Zm50.21-21.58h-9.3L85 23.1h-5l1.59-8.85h-9.27l-4.7 25.59h9.22l1.72-9.2h5l-1.71 9.2h9.22Z" fill="#39b54a"/></g></g></g></svg>