<svg xmlns="http://www.w3.org/2000/svg" viewBox="0 0 264.47 172.68"><defs><style>.cls-1{fill:#833a94}</style></defs><g id="Layer_2" data-name="Layer 2"><g id="Layer_1-2" data-name="Layer 1"><path class="cls-1" d="M126.77 60.79A55.67 55.67 0 0 0 90.69 74a42.58 42.58 0 0 1 6 12.07 43 43 0 1 1-9.59 47.16 44.29 44.29 0 0 1-4.85 4.53 45.4 45.4 0 0 1-5.58 3.82 55.94 55.94 0 1 0 50.12-80.79Z"/><path d="M231 92.14q-4.41-3.52-12.34-3.53h-13.58v27.83h13.76q7.77 0 12.19-3.69a12.35 12.35 0 0 0 4.42-10v-.3q0-6.76-4.45-10.31Z" fill="none"/><path class="cls-1" d="M261.4 85.62A31.42 31.42 0 0 0 252.65 74a39.38 39.38 0 0 0-13.76-7.18 61.5 61.5 0 0 0-18-2.47h-53.44a66.28 66.28 0 0 1 0 104.73h37.63v-29.9h14.36a64.75 64.75 0 0 0 18-2.4 40.34 40.34 0 0 0 14.28-7.18 33.3 33.3 0 0 0 9.35-11.82 37.23 37.23 0 0 0 3.37-16.3v-.3a37.74 37.74 0 0 0-3.04-15.56Zm-25.95 17.13a12.35 12.35 0 0 1-4.42 10q-4.41 3.69-12.19 3.69h-13.76V88.61h13.61q7.94 0 12.34 3.53t4.42 10.31ZM76.6 74a39.38 39.38 0 0 0-13.76-7.18 61.5 61.5 0 0 0-18-2.47H0V169.1h29v-29.92h14.39a64.75 64.75 0 0 0 18-2.4 40.34 40.34 0 0 0 14.31-7.18 33.3 33.3 0 0 0 9.35-11.82 37.23 37.23 0 0 0 3.37-16.3v-.3a37.74 37.74 0 0 0-3.07-15.56A31.42 31.42 0 0 0 76.6 74Zm-17.2 28.75a12.35 12.35 0 0 1-4.42 10q-4.41 3.69-12.19 3.69H29V88.61h13.64q7.92 0 12.34 3.53t4.42 10.31ZM67.68 45.16a28.94 28.94 0 0 1-23.06 11.09c-16.17 0-29-12.3-29-28.12S28.45 0 44.62 0a29 29 0 0 1 23.06 11.1l-8.26 6.19a17.57 17.57 0 0 0-14.8-7.83 18.67 18.67 0 0 0 0 37.33 18.47 18.47 0 0 0 15-7.48ZM87.72 10.06h-7.1l4-8.94h13.07l22.88 54h-10.75L105.69 45H82.81l-4.13 10.13H68Zm14.45 26-7.83-19.37L86.42 36ZM128.14 39.48a22.21 22.21 0 0 0 16 7.31c7.57-.08 12.9-2.92 12.9-8.08 0-12-34.84-.43-34.84-22.45C122.2 6.62 132.27 0 144.57 0c8.94 0 16.17 2.84 21.5 8.26l-7.4 6.62c-4.9-4.82-9.37-6.45-14.62-6.45-8.26 0-11.35 4-11.35 7.31 0 12.13 34.83 0 34.83 22.45 0 11.27-11.44 18.06-23.82 18.06a32.05 32.05 0 0 1-23.14-10ZM176.56 32.17h-6.81l2.38-9.46h4.43V1.12h10v21.59h24.69V1.12h10v54h-10v-23h-24.71v23h-10Z"/><circle class="cls-1" cx="126.77" cy="116.74" r="19.65"/></g></g></svg>