<svg xmlns="http://www.w3.org/2000/svg" id="b" viewBox="0 0 179.573 73.723"><defs><style>.o{fill:#fff}.t{fill:#5e3f99}.u{fill:#f26742}</style></defs><g id="c"><path id="d" d="M179.414 30.708a2.104 2.104 0 0 0-2.161-1.287c-1.437.153-2.909-.225-4.466-.621-2.671-.683-5.701-1.456-9.132.285-.239.122-.452.26-.674.392.012-.34.026-.68.026-1.023 0-15.69-12.765-28.455-28.454-28.455-8.875 0-17.302 4.227-22.686 11.343a3.806 3.806 0 0 0-2.85-1.283H97.304a3.886 3.886 0 0 0-3.177 1.648l-.158.224a3.881 3.881 0 0 0-3.324-1.871H80.186a3.867 3.867 0 0 0-3.071 1.513 3.722 3.722 0 0 0-.983-.537c-2.597-.946-5.483-1.447-8.345-1.447-6.023 0-11.942 2.74-16.175 7.412l.388-2.45a3.88 3.88 0 0 0-3.836-4.492H37.43a3.864 3.864 0 0 0-3.836 3.274l-.15.941c-2.542-2.759-6.435-4.215-11.291-4.215H8.56a3.864 3.864 0 0 0-3.836 3.274L.048 42.87a3.882 3.882 0 0 0 3.836 4.495v.148a2.622 2.622 0 0 0-2.6 2.983l.793 5.763a2.624 2.624 0 0 0 2.6 2.267h1.441a2.62 2.62 0 0 0 1.345-.371c.395.237.856.371 1.345.371h1.44c.514 0 1.006-.151 1.423-.419.42.271.913.419 1.424.419H14.5c.523 0 1.016-.155 1.43-.423.653.362 1.444.544 2.364.544a5.688 5.688 0 0 0 1.327-.173c.171.035.346.052.523.052h1.405c.444 0 .866-.111 1.237-.31.376.201.8.31 1.236.31h1.405c.364 0 .705-.09 1.022-.228l-.584 2.826a3.15 3.15 0 0 0 3.084 3.788h3.434a3.151 3.151 0 0 0 3.085-2.513l.416-2.014h.47l-.153.739a3.153 3.153 0 0 0 3.084 3.788h3.433c.419 0 .817-.09 1.186-.241.368.148.76.241 1.166.241h3.396c.604 0 1.175-.171 1.66-.473a3.145 3.145 0 0 0 1.66.473h3.51c.254 0 .504-.031.746-.09.238.057.482.09.732.09h8.574c.381 0 .748-.07 1.09-.196.112.031.221.07.337.088.733.114 1.99.249 3.817.249 2.329 0 4.175-.269 5.684-.834.547.43 1.216.693 1.932.693h3.548a3.15 3.15 0 0 0 2.418-1.131 3.146 3.146 0 0 0 2.418 1.131h3.699c.279 0 .549-.049.813-.12.265.072.537.12.817.12h8.347c.29 0 .567-.05.836-.125.269.074.546.125.831.125h1.132c.917 1.593 2.147 3.074 3.737 4.421 2.946 2.496 7.024 4.391 10.588 4.391 1.371 0 2.668-.281 3.793-.917 2.332-1.316 3.46-2.961 4.367-4.284.734-1.068 1.149-1.641 1.865-1.93.805-.323 1.078-.22 2.437.916.96.804 2.155 1.804 3.882 2.198 2.584.588 5.544-.033 8.122-1.707 1.642-1.068 2.805-2.213 3.555-3.498.183-.313.332-.648.472-.979l.078-.181a2.1 2.1 0 0 0 .901-3.923 3.487 3.487 0 0 0-.684-.299 18.07 18.07 0 0 0 1.759-2.754c.09.037.175.084.271.109a2.101 2.101 0 0 0 1.991-.526c.707-.688 1.274-1.453 1.823-2.194.535-.722 1.041-1.405 1.599-1.904 1.312-1.169 2.93-1.793 4.947-1.908.61-.037 1.329.11 2.09.264 1.071.215 2.284.462 3.593.29 2.224-.289 3.404-1.484 4.266-2.356.388-.393.722-.731 1.118-.975a2.101 2.101 0 0 0-2.076-3.648c-1.517.792-2.728.666-4.47.135 1.302-1.331 2.155-3.187 2.794-4.586.497-1.087 1.012-2.212 1.494-2.736 1.303-1.415 3.008-1.898 4.21-2.054.443-.057 1.064-.024 1.722.01 1.698.093 3.813.205 5.48-1.14a2.1 2.1 0 0 0 .622-2.436Z" class="o"/><g id="e"><path d="M159.104 28.605c0 13.571-10.999 24.57-24.569 24.57s-24.568-10.999-24.568-24.57 10.999-24.57 24.568-24.57 24.569 11.002 24.569 24.57" style="fill:#5e3f99;opacity:.4"/><path id="f" d="M141.679 60.768c-2.379 1.788-5.012 1.983-7.708 2.736 1.974.868 4.682 1.133 6.774.42 1.437-.49 3.544-3.393 5.065-2.53-1.598-.123-1.647 1.202-2.229 2.198-.675 1.157-1.777 2.074-2.888 2.796-1.88 1.222-4.285 1.928-6.509 1.421-3.094-.707-4.122-4.406-7.572-3.013-2.762 1.115-2.78 4.245-6.478 6.333-2.886 1.63-8.143.013-11.992-3.249-6.469-5.481-4.771-11.908-4.559-13.201.599-3.621 5.816-7.439 9.454-8.185 4.773-.978 8.93 1.081 13.497 1.932 2.927.545 6.206-.171 6.433-3.708 1.794 2.336.116 4.702-1.609 6.392 1.665 1.322 4.233-.749 5.133-2.05 1.789-2.582 2.953-5.379 5.618-7.259 4.381-3.09 10.905-2.989 15.604-.379-1.915-.762-4.785-.398-6.269.578-3.208 2.105-3.09 5.316-3.716 8.661-.747 3.99-2.776 7.646-6.049 10.106Zm16.637-16.239c-1.611-.369-5.289-.1-7.526 3.862-.582 1.031-2.427 5.022-2.072 6.2 1.253-1.217 2.137-2.953 3.488-4.159 1.758-1.568 3.848-2.303 6.224-2.438 1.864-.107 3.709.804 5.532.568 2.36-.307 2.864-1.995 4.552-3.037-3.735 1.952-6.43-.131-10.199-.996Zm6.271-13.421c-2.528 1.284-3.834 3.227-3.859 6.085-.019 2.284.487 4.562-2.02 5.795-.279.138-.591.187-.582.188l-.205-.048c4.835 1.642 5.621-5.602 7.894-8.071 1.434-1.558 3.403-2.444 5.484-2.714 1.886-.245 4.587.583 6.154-.681-4.48.473-8.287-2.879-12.867-.552Z" style="fill:#de2326"/><path id="g" d="M127.318 59.544c2.901-.131 8.744 2.011 13.085-2.239 4.927-4.825 2.121-6.215 6.916-13.486-3.447.523-5.156 4.568-5.587 5.639-.908 2.259-3.185 4.291-6.043 5.122-3.569 1.037-7.976-.077-11.86.453.298-.099.591-.204.875-.325 1.834-.79 2.371-1.724 3.314-3.35-1.618 1.902-7.818-2.838-15.67-2.095-2.396.227-5.355 3.867-6.316 6.111-2.024 4.726 1.665 9.738 4.511 11.587 2.076 1.349 4.768 1.954 7.147 1.318 2.708-.725 4.54-2.966 6.487-4.881.895-.881 1.768-1.777 3.058-1.743 1.506.041 2.38 1.447 3.871 1.504-1.071-1.05-2.12-3.544-3.788-3.613" style="fill:#ffc746;opacity:.4"/><path id="h" d="M119.081 59.383c1.874-.832 3.753-1.877 5.822-1.919 2.696-.055 5.904.681 8.151-.592-3.008.415-6.69-.548-9.036-1.198-1.586-.439-5.434-1.781-6.881-.303 1.203-1.273 1.986-2.107 4.662-2.433-5.651-3.379-15.721-.094-14.559 6.761.854 5.052 6.662 6.929 9.605 5.191 3.006-1.777 6.047-4.947 9.211-4.375-2.361-1.282-4.339-1.533-6.975-1.131" style="fill:#ffc746"/><path id="i" d="M101.085 64.936c.269.074.546.125.831.125h8.347a3.151 3.151 0 0 0 3.085-2.512l.552-2.67a3.15 3.15 0 0 0-3.084-3.788h-1.046l1.128-5.461a3.153 3.153 0 0 0-3.084-3.788h-3.433a3.151 3.151 0 0 0-3.085 2.512l-1.392 6.737 1.183 8.846Z" class="o"/><path id="j" d="M34.155 54.539h4.495l-.642 3.107h-4.495l-.935 4.527h-3.97l2.571-12.444h8.751l-.646 3.125h-4.78l-.348 1.685Zm7.361-4.81-2.571 12.444h3.969l2.571-12.444h-3.969Zm12.746 6.658c.661.513.842 1.362.92 2.082.058.486.103 1.056.145 1.594.058.746.119 1.519.2 1.766l.114.345h-4.063l-.059-.18c-.145-.437-.268-1.461-.338-2.81-.044-1.35-.398-1.484-1.258-1.484h-.336l-.924 4.474h-3.932l2.532-12.255.183-.026c1.123-.16 2.662-.251 4.223-.251 2.14 0 3.466.301 4.301.978.801.674 1.078 1.633.824 2.857-.275 1.331-1.414 2.41-2.532 2.911Zm-4.095-1.494h.569c1.12 0 1.916-.489 2.079-1.277.065-.316.028-.563-.11-.735-.184-.229-.567-.355-1.109-.363-.474 0-.77.021-.947.041l-.482 2.334Zm15.82 2.47.642-3.107h-4.59l.289-1.402h4.875l.646-3.125h-8.845l-2.571 12.444h9.111l.649-3.142h-5.14l.345-1.668h4.59Zm12.319 1.064c-.231 1.117-.95 2.074-2.079 2.77-1.256.763-3.052 1.118-5.652 1.118-1.642 0-2.741-.117-3.374-.215l-.272-.042 2.508-12.138.18-.028c.787-.122 2.503-.251 4.131-.251 1.779 0 2.929.097 3.911.613 1.075.508 1.598 1.554 1.356 2.727-.22 1.065-.981 1.927-2.168 2.468 1.197.558 1.738 1.633 1.46 2.979Zm-5.484-4.118c1.257 0 2.024-.365 2.16-1.029.044-.214.016-.379-.085-.504-.172-.211-.579-.328-1.146-.328-.43 0-.712.021-.914.043l-.376 1.819h.36Zm1.284 3.241c-.238-.292-.814-.453-1.62-.453h-.601l-.481 2.332c.18.008.398.008.662.008.444 0 1.91-.09 2.152-1.258.054-.264.018-.47-.111-.629Zm15.052-7.822 1.409 12.444h-4.233l-.245-2.758h-2.894l-1.29 2.758h-4.147l6.453-12.444h4.946Zm-3.221 4.931a78.902 78.902 0 0 1-.084-1.354l-.092.212c-.194.449-.388.898-.563 1.256l-.813 1.744h1.679l-.127-1.859Zm12.185-4.931h-3.969l-2.571 12.444h8.883l.66-3.195h-4.914l1.911-9.249Zm8.103 9.249 1.911-9.249h-3.969l-2.571 12.444h8.883l.66-3.195h-4.914Z" class="u"/><path id="k" d="M10.23 56.05H8.789l-.516-4.071h-.025L6.099 56.05H4.658l-.793-5.763h1.477l.396 4.142h.024l2.065-4.142h1.477l.467 4.142h.025l2.088-4.142h1.477l-3.134 5.763Zm2.847 0 1.008-5.763h1.416l-1.02 5.763h-1.405Zm2.894-7.745a.87.87 0 0 1-.247.612.795.795 0 0 1-.607.264.866.866 0 0 1-.593-.215c-.166-.145-.247-.349-.247-.613 0-.255.088-.465.264-.63a.873.873 0 0 1 .612-.247c.233 0 .427.075.583.223.156.149.235.351.235.607m.168 3.133.204-1.152h.996l.289-1.681h1.392l-.289 1.681h1.298l-.204 1.152h-1.273l-.505 2.696c-.024.12-.036.231-.036.334 0 .207.062.35.186.429.124.08.29.12.498.12.097 0 .191-.007.282-.021a2.74 2.74 0 0 0 .258-.051l-.084 1.069a2.732 2.732 0 0 1-.877.156c-.608 0-1.041-.122-1.297-.365-.256-.244-.384-.565-.384-.965a3.74 3.74 0 0 1 .073-.73l.491-2.671h-1.02Zm7.865 4.612.552-3.17c.016-.097.03-.192.042-.288a2.35 2.35 0 0 0 .019-.289c0-.256-.068-.482-.205-.678-.137-.196-.385-.295-.744-.295a1.403 1.403 0 0 0-1.085.487 1.916 1.916 0 0 0-.326.51 2.338 2.338 0 0 0-.173.588l-.552 3.134h-1.405l1.596-9.078h1.417l-.733 4.132h.024a2.24 2.24 0 0 1 .685-.679c.296-.195.66-.294 1.092-.294.321 0 .6.048.835.144.236.097.433.225.589.384.155.161.272.351.348.57.077.221.114.45.114.691 0 .201-.016.38-.048.541l-.636 3.59h-1.405Z" class="u"/><path id="l" d="M8.545 14.094h13.592c6.896 0 11.432 3.525 10.269 10.85-.955 6.033-5.312 9.794-11.305 9.794h-5.486l-1.409 8.891H3.867l4.679-29.535Zm8.251 13.198h1.058c1.882 0 3.965-.313 4.343-2.701.368-2.312-1.808-2.428-3.569-2.428h-1.02l-.813 5.128Zm15.941 16.337h10.732l4.679-29.535H37.414l-4.677 29.535Zm42.049-28.793c-2.146-.782-4.587-1.213-7.015-1.213-8.657 0-16.524 6.895-17.891 15.511C48.547 37.556 54.091 44.1 62.511 44.1c1.922 0 5.971-.352 7.824-1.176L72.4 31.877c-1.99 1.685-4.118 2.743-6.585 2.743-3.212 0-5.595-2.508-5.081-5.758.509-3.212 3.537-5.76 6.747-5.76 2.433 0 4.365 1.372 5.837 2.979l1.467-11.243Zm.701 28.793h10.462l1.726-12.38h.234c.042 1.216.812 2.312 1.254 3.449l3.677 8.93h12.459l-7.823-15.159 11.522-14.377H97.286l-6.673 9.479c-.755 1.057-1.59 2.115-2.018 3.327h-.233l2.265-12.807H80.168l-4.682 29.535Z" class="t"/><path id="m" d="M137.855 30.879c-.81-2.333-3.446-3.85-9.72-3.85-1.026 0-1.893.036-2.717.085l-.448 2.377c1.588-.109 2.973-.236 4.925-.236 3.941 0 6.439.601 7.961 1.624Zm8.963-5.662a11.94 11.94 0 0 1 1.675 5.37c.682 9.759-7.357 15.168-17.571 15.168-3.576 0-6.648-.555-8.75-1.357l-.226 1.203c1.755 1.321 5.776 2.381 10.736 2.381 10.215 0 18.254-5.409 17.571-15.168-.217-3.104-1.509-5.712-3.435-7.597Zm4.412-16.533h-2.063l-.871 6.394h-13.732l-.928 4.397c.584-.12.933-.12 1.529-.12.228 0 .474.012.721.024l.438-2.074h13.732l1.175-8.621Z" class="t"/><path id="n" d="M148.296 15.079h-13.732l-.928 4.397c.584-.12.933-.12 1.529-.12 2.432 0 6.026.66 8.642 2.559 2.617 1.896 4.425 4.933 4.687 8.674.682 9.759-7.357 15.168-17.571 15.168-4.96 0-8.981-1.06-10.736-2.381l1.508-8.017c1.65.951 5.31 1.907 8.634 1.907 3.604 0 8.062-1.365 7.808-4.989-.217-3.11-2.548-5.245-10.002-5.245-1.952 0-3.337.127-4.925.236l3.925-20.807h22.336l-1.175 8.621Z" class="o"/></g></g></svg>