<svg xmlns="http://www.w3.org/2000/svg" viewBox="0 0 386.57 86.08"><defs><style>.cls-1,.cls-4{fill:#fff}.cls-2,.cls-5{fill:#121921}.cls-3{fill:#c8202f}.cls-4,.cls-5{fill-rule:evenodd}</style></defs><g id="Layer_2" data-name="Layer 2"><g id="Layer_1-2" data-name="Layer 1"><path class="cls-1" d="M322.75 67.75h62.11v17.54h-62.11zM30.51 58.83a28.06 28.06 0 0 1-11.84-2.62 28.65 28.65 0 0 1-6.37-4.08c-.58-.5-1.15-1-1.7-1.57a29.09 29.09 0 0 1-3-3.6 28 28 0 0 1-2.72-4.71 28.44 28.44 0 0 1-2.53-12.66A28.22 28.22 0 0 1 9.42 11.9c.38-.43.77-.85 1.18-1.26s1.11-1.06 1.7-1.56A28.34 28.34 0 0 1 18.67 5a27.9 27.9 0 0 1 11.84-2.62 28.37 28.37 0 0 1 19.17 7.46c.28.26.57.53.84.8s.8.83 1.18 1.26a28.22 28.22 0 0 1 7.07 17.69 28.44 28.44 0 0 1-2.49 12.66 28.62 28.62 0 0 1-5.76 8.31c-.27.27-.55.54-.84.8a28.3 28.3 0 0 1-19.12 7.47Z"/><path class="cls-2" d="M30.56 3.51a27.18 27.18 0 0 1 18.35 7.16c.28.25.55.51.81.77s.77.8 1.14 1.21A27.23 27.23 0 0 1 57 24.83a27.63 27.63 0 0 1 .6 4.8 27 27 0 0 1-5 16.68 28.19 28.19 0 0 1-2.92 3.45c-.26.26-.53.52-.81.77a26.89 26.89 0 0 1-6 4.17 27.3 27.3 0 0 1-12.41 3A26.93 26.93 0 0 1 13 51.26c-.57-.47-1.12-1-1.64-1.5a29.11 29.11 0 0 1-2.92-3.45 27.58 27.58 0 0 1-2.61-4.53 27.19 27.19 0 0 1-2.34-12.15 26.69 26.69 0 0 1 .59-4.8 27.14 27.14 0 0 1 6.19-12.18c.36-.41.74-.82 1.13-1.21s1.07-1 1.64-1.5a26.93 26.93 0 0 1 17.47-6.43Zm0-2.27a29.37 29.37 0 0 0-18.94 7c-.61.52-1.2 1.06-1.77 1.63s-.85.83-1.28 1.28a29.22 29.22 0 0 0-6.7 13.2 28.66 28.66 0 0 0-.65 5.2 29.41 29.41 0 0 0 2.59 13.17 29.73 29.73 0 0 0 2.83 4.9 29.07 29.07 0 0 0 3.16 3.74c.57.57 1.16 1.11 1.77 1.63a29.22 29.22 0 0 0 18.94 7 29.64 29.64 0 0 0 19.94-7.79c.29-.28.59-.55.87-.84a29.72 29.72 0 0 0 6-8.64 29.41 29.41 0 0 0 2.58-13.17 28.66 28.66 0 0 0-.65-5.2 29.22 29.22 0 0 0-6.7-13.2c-.4-.45-.81-.88-1.23-1.31-.28-.28-.58-.56-.87-.83a29.56 29.56 0 0 0-19.89-7.77Z"/><path class="cls-1" d="M95.62 58.83a28 28 0 0 1-11.83-2.62 28.42 28.42 0 0 1-6.37-4.08c-.59-.5-1.16-1-1.7-1.57a28.32 28.32 0 0 1-3-3.6 28.15 28.15 0 0 1-5.2-17.37 28.84 28.84 0 0 1 .62-5 28.3 28.3 0 0 1 6.39-12.69c.38-.43.78-.85 1.19-1.26s1.11-1.06 1.7-1.56a28.3 28.3 0 0 1 37.38.76l.83.8c.41.41.81.83 1.19 1.26a28.3 28.3 0 0 1 6.44 12.69 28.84 28.84 0 0 1 .62 5 28.31 28.31 0 0 1-2.49 12.66 27.91 27.91 0 0 1-2.71 4.75 29.17 29.17 0 0 1-3.05 3.6c-.27.27-.55.54-.84.8a28 28 0 0 1-6.24 4.35 28.42 28.42 0 0 1-12.88 3.12Z"/><path class="cls-2" d="M95.67 3.51A27.25 27.25 0 0 1 114 10.67l.8.77c.39.39.77.8 1.14 1.21a27 27 0 0 1 6.18 12.18 27.63 27.63 0 0 1 .6 4.8 27.2 27.2 0 0 1-2.39 12.15 26.88 26.88 0 0 1-2.61 4.53 27.33 27.33 0 0 1-2.92 3.45l-.8.77a27 27 0 0 1-6 4.17 27.29 27.29 0 0 1-12.4 3 27 27 0 0 1-17.48-6.43c-.56-.47-1.11-1-1.63-1.5a27.33 27.33 0 0 1-2.92-3.45A26.88 26.88 0 0 1 71 41.78a27.2 27.2 0 0 1-2.4-12.15 27.63 27.63 0 0 1 .6-4.8 27 27 0 0 1 6.18-12.18c.37-.41.75-.82 1.14-1.21s1.07-1 1.63-1.5a27 27 0 0 1 17.48-6.43Zm0-2.27a29.37 29.37 0 0 0-18.94 7c-.61.52-1.2 1.06-1.76 1.63s-.84.86-1.24 1.31A29.42 29.42 0 0 0 67 24.35a30.55 30.55 0 0 0-.65 5.2 29.15 29.15 0 0 0 5.42 18.07 28.36 28.36 0 0 0 3.17 3.74c.56.57 1.15 1.11 1.76 1.63a29.22 29.22 0 0 0 18.94 7 29.57 29.57 0 0 0 19.89-7.76c.3-.28.59-.55.87-.84a28.36 28.36 0 0 0 3.17-3.74 29 29 0 0 0 2.82-4.9 29.33 29.33 0 0 0-4.75-31.57 30.527 30.527 0 0 0-2.11-2.14 29.5 29.5 0 0 0-19.86-7.8Z"/><path class="cls-1" d="M160.53 58.83a28 28 0 0 1-11.84-2.62 28.42 28.42 0 0 1-6.37-4.08c-.59-.5-1.16-1-1.7-1.57a28.14 28.14 0 0 1-8.25-21 28.84 28.84 0 0 1 .62-5 28.3 28.3 0 0 1 6.44-12.69c.39-.43.78-.85 1.19-1.26s1.11-1.06 1.7-1.56a28.3 28.3 0 0 1 37.38.76l.84.8c.4.41.8.83 1.18 1.26a28.2 28.2 0 0 1 6.44 12.69 27.91 27.91 0 0 1 .63 5A28 28 0 0 1 183.58 47a29.09 29.09 0 0 1-3 3.6l-.84.8a28.37 28.37 0 0 1-19.13 7.47Z"/><path class="cls-2" d="M160.58 3.51a27.18 27.18 0 0 1 18.35 7.16l.81.77c.38.39.77.8 1.13 1.21a27 27 0 0 1 6.18 12.18 25.83 25.83 0 0 1 .6 4.8 27.2 27.2 0 0 1-2.39 12.15 26.82 26.82 0 0 1-2.6 4.53 29.11 29.11 0 0 1-2.92 3.45l-.81.77a27.18 27.18 0 0 1-18.4 7.16 27 27 0 0 1-17.48-6.43c-.56-.47-1.11-1-1.63-1.5a27 27 0 0 1-7.92-20.13 27.63 27.63 0 0 1 .6-4.8 27.13 27.13 0 0 1 6.18-12.18c.37-.41.75-.82 1.14-1.21s1.07-1 1.63-1.5a27 27 0 0 1 17.48-6.43Zm-.05-2.27a29.3 29.3 0 0 0-18.94 7c-.62.52-1.21 1.06-1.77 1.63s-.84.86-1.23 1.31a29.22 29.22 0 0 0-6.7 13.2 28.66 28.66 0 0 0-.65 5.2 29.41 29.41 0 0 0 2.59 13.17 29 29 0 0 0 2.82 4.9 28.36 28.36 0 0 0 3.17 3.74c.56.57 1.15 1.11 1.77 1.63a29.15 29.15 0 0 0 18.94 7h.05A29.44 29.44 0 0 0 174 56.71a29 29 0 0 0 6.49-4.51c.3-.28.59-.55.88-.84a29.07 29.07 0 0 0 3.16-3.74 29.41 29.41 0 0 0 4.77-23.27 29.32 29.32 0 0 0-6.7-13.2c-.4-.45-.81-.88-1.23-1.31-.29-.28-.58-.56-.88-.83A29.06 29.06 0 0 0 174 4.49a29.44 29.44 0 0 0-13.39-3.25Z"/><path class="cls-1" d="M225.43 58.83a28.06 28.06 0 0 1-11.84-2.62 28.65 28.65 0 0 1-6.37-4.08c-.58-.5-1.15-1-1.7-1.57a28.14 28.14 0 0 1-8.25-21 28.22 28.22 0 0 1 7.07-17.69c.38-.43.77-.85 1.18-1.26s1.11-1.06 1.7-1.56A28.34 28.34 0 0 1 213.59 5a27.9 27.9 0 0 1 11.84-2.61 28.37 28.37 0 0 1 19.17 7.45l.84.8c.41.41.8.83 1.18 1.26a28.22 28.22 0 0 1 7.07 17.69 28.44 28.44 0 0 1-2.49 12.66 28.62 28.62 0 0 1-5.76 8.31l-.84.8a28.3 28.3 0 0 1-19.12 7.47Z"/><path class="cls-2" d="M225.48 3.51a27.18 27.18 0 0 1 18.35 7.16c.28.25.55.51.81.77s.77.8 1.14 1.21A27.23 27.23 0 0 1 252 24.83a27.63 27.63 0 0 1 .6 4.8 27 27 0 0 1-5 16.68 28.19 28.19 0 0 1-2.92 3.45c-.26.26-.53.52-.81.77a26.89 26.89 0 0 1-6 4.17 27.3 27.3 0 0 1-12.41 3A27 27 0 0 1 208 51.26c-.56-.47-1.11-1-1.63-1.5a28.19 28.19 0 0 1-2.92-3.45A27.15 27.15 0 0 1 199 24.83a27.14 27.14 0 0 1 6.19-12.18c.36-.41.74-.82 1.13-1.21s1.07-1 1.63-1.5a27 27 0 0 1 17.48-6.43Zm0-2.27a29.37 29.37 0 0 0-18.94 7c-.61.52-1.2 1.06-1.77 1.63-.42.43-.83.86-1.23 1.31a29.22 29.22 0 0 0-6.7 13.2 28.66 28.66 0 0 0-.65 5.2 29.41 29.41 0 0 0 2.59 13.17 29.72 29.72 0 0 0 6 8.64c.57.57 1.16 1.11 1.77 1.63a29.22 29.22 0 0 0 18.94 7 29.64 29.64 0 0 0 19.89-7.76l.87-.84a29.72 29.72 0 0 0 6-8.64 29.41 29.41 0 0 0 2.59-13.17 28.66 28.66 0 0 0-.65-5.2 29.22 29.22 0 0 0-6.7-13.2c-.4-.45-.81-.88-1.23-1.31l-.89-.9a29.56 29.56 0 0 0-19.89-7.77Z"/><path class="cls-2" d="M225.48 2.36a28.37 28.37 0 0 1 19.13 7.47c.29.26.56.53.84.8s.8.83 1.18 1.26a28.22 28.22 0 0 1 6.45 12.69 29.08 29.08 0 0 1 .62 5 28.28 28.28 0 0 1-8.25 21c-.28.27-.55.54-.84.8a28.37 28.37 0 0 1-19.18 7.47 28.22 28.22 0 0 1-18.22-6.7c-.58-.5-1.15-1-1.7-1.57a28.19 28.19 0 0 1-8.25-21 29.08 29.08 0 0 1 .62-5 28.22 28.22 0 0 1 6.45-12.69c.38-.43.78-.85 1.18-1.26.55-.54 1.12-1.07 1.7-1.57A28.48 28.48 0 0 1 213.59 5a28 28 0 0 1 11.84-2.62Zm0-2.36a30.49 30.49 0 0 0-19.75 7.27c-.63.54-1.25 1.1-1.84 1.69-.44.44-.87.9-1.28 1.37a30.42 30.42 0 0 0-7 13.75 29.43 29.43 0 0 0-.68 5.43 30.56 30.56 0 0 0 2.7 13.72 30.58 30.58 0 0 0 6.24 9c.59.59 1.21 1.16 1.84 1.7a31 31 0 0 0 6.91 4.42 30.43 30.43 0 0 0 12.84 2.84 30.66 30.66 0 0 0 14-3.38 30.32 30.32 0 0 0 6.77-4.71c.31-.28.61-.57.91-.87a30.79 30.79 0 0 0 3.3-3.9 31.51 31.51 0 0 0 2.94-5.11 30.55 30.55 0 0 0-5-32.9c-.41-.47-.84-.93-1.28-1.37s-.6-.59-.91-.87a30.32 30.32 0 0 0-6.77-4.71 30.79 30.79 0 0 0-14-3.38ZM160.51 2.36a28.37 28.37 0 0 1 19.13 7.47c.29.26.56.53.84.8s.8.83 1.18 1.26a28.22 28.22 0 0 1 6.45 12.69 29.08 29.08 0 0 1 .62 5 28.42 28.42 0 0 1-2.49 12.66 28.5 28.5 0 0 1-5.76 8.32c-.28.27-.55.54-.84.8a28.37 28.37 0 0 1-19.18 7.47 28.22 28.22 0 0 1-18.22-6.7c-.58-.5-1.16-1-1.7-1.57a28.19 28.19 0 0 1-8.25-21 29.08 29.08 0 0 1 .62-5 28.22 28.22 0 0 1 6.45-12.69c.38-.43.78-.85 1.18-1.26s1.12-1.07 1.7-1.57A28.48 28.48 0 0 1 148.62 5a28 28 0 0 1 11.84-2.62Zm0-2.36a30.49 30.49 0 0 0-19.75 7.27c-.63.54-1.25 1.1-1.84 1.69-.44.44-.87.9-1.28 1.37a30.32 30.32 0 0 0-7 13.75 29.43 29.43 0 0 0-.68 5.43 30.56 30.56 0 0 0 2.7 13.72 31.51 31.51 0 0 0 2.94 5.11 30.79 30.79 0 0 0 3.3 3.9c.59.59 1.21 1.16 1.84 1.7a31 31 0 0 0 6.91 4.42 30.43 30.43 0 0 0 12.84 2.84 30.66 30.66 0 0 0 14-3.38 30.32 30.32 0 0 0 6.77-4.71c.31-.28.61-.57.91-.87a30.79 30.79 0 0 0 3.3-3.9 31.51 31.51 0 0 0 2.94-5.11 30.56 30.56 0 0 0 2.7-13.72 29.43 29.43 0 0 0-.68-5.43 30.32 30.32 0 0 0-7-13.75c-.41-.47-.84-.93-1.28-1.37s-.6-.59-.91-.87a30.32 30.32 0 0 0-6.77-4.71 30.79 30.79 0 0 0-14-3.38ZM95.68 2.36a28.37 28.37 0 0 1 19.13 7.47l.84.8c.4.41.8.83 1.18 1.26a28.22 28.22 0 0 1 7.07 17.7 28.42 28.42 0 0 1-2.49 12.66 28.5 28.5 0 0 1-5.76 8.32l-.84.8a28.37 28.37 0 0 1-19.18 7.47 28.22 28.22 0 0 1-18.22-6.7c-.59-.5-1.16-1-1.7-1.57a28.32 28.32 0 0 1-3-3.6 28.24 28.24 0 0 1-5.2-17.38 27.24 27.24 0 0 1 .62-5 28.3 28.3 0 0 1 6.44-12.69c.38-.43.78-.85 1.19-1.26s1.11-1.07 1.7-1.57A28.48 28.48 0 0 1 83.79 5a28 28 0 0 1 11.84-2.64ZM95.62 0a30.57 30.57 0 0 0-19.74 7.26C75.24 7.81 74.63 8.37 74 9c-.44.44-.87.9-1.28 1.37a30.62 30.62 0 0 0-5 32.9 30.1 30.1 0 0 0 2.94 5.11 30.79 30.79 0 0 0 3.3 3.9c.59.59 1.2 1.16 1.84 1.7a30.57 30.57 0 0 0 19.82 7.22h.06a30.74 30.74 0 0 0 20.73-8.09c.31-.28.61-.57.91-.87a30.54 30.54 0 0 0 8.94-22.73 31.25 31.25 0 0 0-.68-5.43 30.52 30.52 0 0 0-7-13.75c-.41-.47-.84-.93-1.28-1.37s-.6-.59-.91-.87A30.74 30.74 0 0 0 95.68 0ZM30.6 2.36a28.37 28.37 0 0 1 19.13 7.47c.29.26.57.53.84.8s.8.83 1.18 1.26a28.22 28.22 0 0 1 6.45 12.69 29.08 29.08 0 0 1 .62 5 28.28 28.28 0 0 1-8.25 21c-.27.27-.55.54-.84.8a28.37 28.37 0 0 1-19.18 7.47 28.22 28.22 0 0 1-18.22-6.7c-.58-.5-1.15-1-1.7-1.57a28.19 28.19 0 0 1-8.25-21 29.08 29.08 0 0 1 .62-5 28.22 28.22 0 0 1 6.45-12.69c.38-.43.78-.85 1.18-1.26s1.12-1.07 1.7-1.57A28.48 28.48 0 0 1 18.71 5a28 28 0 0 1 11.84-2.64ZM30.55 0a30.43 30.43 0 0 0-12.84 2.84 31 31 0 0 0-6.91 4.42C10.17 7.81 9.55 8.37 9 9c-.44.44-.87.9-1.28 1.37a30.42 30.42 0 0 0-7 13.75A29.43 29.43 0 0 0 0 29.51a30.56 30.56 0 0 0 2.7 13.72 30.58 30.58 0 0 0 6.24 9c.59.59 1.21 1.16 1.84 1.7a31 31 0 0 0 6.91 4.42 30.43 30.43 0 0 0 12.86 2.85h.05a30.66 30.66 0 0 0 14-3.38 30.32 30.32 0 0 0 6.77-4.71c.31-.28.61-.57.91-.87a30.54 30.54 0 0 0 8.94-22.73 30.32 30.32 0 0 0-7.66-19.18c-.41-.47-.84-.93-1.28-1.37s-.6-.59-.91-.87a30.32 30.32 0 0 0-6.77-4.71A30.79 30.79 0 0 0 30.6 0ZM290.74 2.36a28.37 28.37 0 0 1 19.14 7.47l.83.8c.41.41.81.83 1.19 1.26a28.22 28.22 0 0 1 7.1 17.7 28.42 28.42 0 0 1-2.49 12.66 28.75 28.75 0 0 1-2.75 4.75 28.32 28.32 0 0 1-3.05 3.6l-.83.8a28.21 28.21 0 0 1-37.4.77c-.59-.5-1.16-1-1.7-1.57a28.32 28.32 0 0 1-3-3.6 28.75 28.75 0 0 1-2.78-4.75 28.25 28.25 0 0 1 4.58-30.36c.38-.43.78-.85 1.19-1.26s1.11-1.07 1.7-1.57A28.42 28.42 0 0 1 278.85 5a28.07 28.07 0 0 1 11.85-2.64ZM290.69 0A30.49 30.49 0 0 0 271 7.27c-.64.54-1.25 1.1-1.84 1.69-.44.44-.87.9-1.29 1.37a30.52 30.52 0 0 0-7 13.75 31.25 31.25 0 0 0-.68 5.43 30.4 30.4 0 0 0 5.65 18.83 30 30 0 0 0 3.3 3.9c.59.59 1.2 1.16 1.84 1.7a30.57 30.57 0 0 0 19.74 7.26h.05a30.63 30.63 0 0 0 14-3.38 30.32 30.32 0 0 0 6.77-4.71c.31-.28.62-.57.91-.87a30 30 0 0 0 3.3-3.9 30.4 30.4 0 0 0 5.65-18.83 31.25 31.25 0 0 0-.68-5.43 30.52 30.52 0 0 0-7-13.75c-.42-.47-.84-.93-1.29-1.37-.29-.29-.6-.59-.91-.87A30.74 30.74 0 0 0 290.74 0Z"/><path class="cls-1" d="M290.54 58.83a28 28 0 0 1-11.83-2.62 28.71 28.71 0 0 1-6.38-4.08c-.58-.5-1.15-1-1.69-1.57a28.32 28.32 0 0 1-3.05-3.6 28.15 28.15 0 0 1-5.2-17.37 28.84 28.84 0 0 1 .62-5 28.2 28.2 0 0 1 6.44-12.69c.38-.43.78-.85 1.19-1.26s1.11-1.06 1.69-1.56A28.4 28.4 0 0 1 278.71 5a27.85 27.85 0 0 1 11.83-2.61 28.34 28.34 0 0 1 12.93 3.11 28 28 0 0 1 6.25 4.34l.83.8c.41.41.8.83 1.19 1.26a28.3 28.3 0 0 1 6.44 12.69 28.84 28.84 0 0 1 .62 5 28.44 28.44 0 0 1-2.49 12.66A27.91 27.91 0 0 1 313.6 47a29.17 29.17 0 0 1-3.05 3.6c-.27.27-.55.54-.84.8a28 28 0 0 1-6.24 4.35 28.42 28.42 0 0 1-12.88 3.12Z"/><path class="cls-2" d="M290.59 3.51A27.25 27.25 0 0 1 309 10.67l.8.77c.39.39.77.8 1.14 1.21a27.13 27.13 0 0 1 6.18 12.18 27.63 27.63 0 0 1 .6 4.8 27.2 27.2 0 0 1-2.39 12.15 26.88 26.88 0 0 1-2.61 4.53 27.33 27.33 0 0 1-2.92 3.45l-.8.77a27 27 0 0 1-6 4.17 27.29 27.29 0 0 1-12.4 3 26.93 26.93 0 0 1-17.48-6.43c-.56-.47-1.11-1-1.63-1.5a27.33 27.33 0 0 1-2.92-3.45 26.88 26.88 0 0 1-2.61-4.53 27.2 27.2 0 0 1-2.39-12.15 26.7 26.7 0 0 1 .6-4.8 27 27 0 0 1 6.18-12.18c.36-.41.75-.82 1.14-1.21s1.07-1 1.63-1.5a26.93 26.93 0 0 1 17.48-6.43Zm0-2.27a29.37 29.37 0 0 0-18.94 7c-.61.52-1.2 1.06-1.77 1.63-.42.43-.83.86-1.23 1.31a29.42 29.42 0 0 0-6.7 13.2 30.55 30.55 0 0 0-.65 5.2 29.15 29.15 0 0 0 5.42 18.07 29.07 29.07 0 0 0 3.16 3.74c.57.57 1.16 1.11 1.77 1.63a29.22 29.22 0 0 0 18.94 7 29.57 29.57 0 0 0 19.89-7.76c.3-.28.59-.55.87-.84a28.36 28.36 0 0 0 3.17-3.74 29 29 0 0 0 2.82-4.9 29.41 29.41 0 0 0 2.59-13.17 28.66 28.66 0 0 0-.65-5.2 29.22 29.22 0 0 0-6.7-13.2c-.39-.45-.8-.88-1.23-1.31-.28-.28-.57-.56-.87-.83a29.5 29.5 0 0 0-19.89-7.77Z"/><path class="cls-3" d="M335.43 51.22c.56.57 1.15 1.11 1.76 1.63a29.25 29.25 0 0 0 32.32 3.72 29.18 29.18 0 0 0 6.49-4.51q.45-.41.87-.84a29.15 29.15 0 0 0 8.56-21.76 28.67 28.67 0 0 0-.65-5.19 29.14 29.14 0 0 0-5-11.11c-.53-.71-1.08-1.4-1.67-2.06-.4-.45-.81-.88-1.23-1.31-.28-.28-.57-.56-.87-.83a29.27 29.27 0 0 0-38.8-.79c-.61.52-1.2 1.06-1.76 1.62s-.83.86-1.23 1.31c-.59.66-1.14 1.35-1.67 2.06a29.37 29.37 0 0 0-3.08 29.44 28.9 28.9 0 0 0 2.82 4.89 29.67 29.67 0 0 0 3.14 3.73Z"/><path class="cls-3" d="M334.63 52c.59.59 1.2 1.15 1.83 1.69a30.45 30.45 0 0 0 6.87 4.4 30.09 30.09 0 0 0 12.76 2.82A30.52 30.52 0 0 0 370 57.57a30.05 30.05 0 0 0 6.73-4.68c.31-.28.61-.57.91-.87a31.2 31.2 0 0 0 3.28-3.87 30.32 30.32 0 0 0 5.61-18.73 29.87 29.87 0 0 0-.67-5.39 30.31 30.31 0 0 0-5.21-11.53c-.55-.74-1.13-1.46-1.74-2.15-.41-.46-.83-.92-1.27-1.35s-.6-.59-.91-.87A29.73 29.73 0 0 0 370 3.45 30.65 30.65 0 0 0 356.09.08a30.39 30.39 0 0 0-19.63 7.23c-.63.53-1.24 1.1-1.83 1.69-.44.43-.86.89-1.28 1.35-.6.69-1.18 1.41-1.73 2.15a30.31 30.31 0 0 0-5.21 11.5 29.87 29.87 0 0 0-.67 5.39 30.48 30.48 0 0 0 2.68 13.64 30.86 30.86 0 0 0 2.93 5.09 30.36 30.36 0 0 0 3.28 3.88Z"/><path class="cls-2" d="M231.83 67.27v18.81h153.66V67.27Zm152.22 17.37H325V68.71h59Z"/><path class="cls-4" d="M236.22 69.9h7.23A4.92 4.92 0 0 1 247 71a4.17 4.17 0 0 1 1.18 3.19 4.32 4.32 0 0 1-1.28 3.33 5.56 5.56 0 0 1-3.91 1.2h-2.38V84h-4.37V69.9Zm4.37 6h1.06a2.76 2.76 0 0 0 1.77-.43 1.41 1.41 0 0 0 .51-1.12 1.53 1.53 0 0 0-.45-1.12 2.24 2.24 0 0 0-1.65-.47h-1.24v3.14ZM251.31 76.56a6.66 6.66 0 0 1 7.26-7.28 7.36 7.36 0 0 1 5.43 1.89 7.07 7.07 0 0 1 1.9 5.28 8.76 8.76 0 0 1-.83 4 5.84 5.84 0 0 1-2.4 2.45 7.88 7.88 0 0 1-3.91.88 8.93 8.93 0 0 1-3.94-.76 5.89 5.89 0 0 1-2.53-2.4 7.91 7.91 0 0 1-1-4.11Zm4.35 0a4.75 4.75 0 0 0 .79 3.07 3 3 0 0 0 4.32 0 5.18 5.18 0 0 0 .77-3.27 4.35 4.35 0 0 0-.8-2.9 2.75 2.75 0 0 0-2.18-.92 2.65 2.65 0 0 0-2.11.93 4.74 4.74 0 0 0-.79 3.08ZM268.7 69.83h4.13l1.49 7.86 2.17-7.86h4.12l2.18 7.86 1.48-7.86h4.11l-3.1 14.08h-4.26l-2.47-8.86-2.45 8.86h-4.27l-3.13-14.08zM292.31 69.84h11.65v3h-7.3v2.24h6.77v2.87h-6.77v2.77h7.51v3.19h-11.86V69.84zM308 83.91V69.84h7.25a10.58 10.58 0 0 1 3.08.34 3.29 3.29 0 0 1 1.67 1.29 4 4 0 0 1-1.22 5.67 5.17 5.17 0 0 1-1.52.56 4.16 4.16 0 0 1 1.13.52 4 4 0 0 1 .69.74 5.3 5.3 0 0 1 .61.87l2.11 4.08h-4.92l-2.32-4.3a3.4 3.4 0 0 0-.79-1.09 1.87 1.87 0 0 0-1.07-.32h-.38v5.71Zm4.37-8.37h1.84a6.4 6.4 0 0 0 1.15-.19 1.19 1.19 0 0 0 .7-.44 1.32 1.32 0 0 0 .27-.82 1.3 1.3 0 0 0-.43-1 2.64 2.64 0 0 0-1.62-.36h-1.91v2.86Z"/><path class="cls-5" d="M330.82 71.31v5.32h2.31A5 5 0 0 0 336 76a2.25 2.25 0 0 0 .93-2 2.34 2.34 0 0 0-.93-2 5.38 5.38 0 0 0-3-.64Zm-1.57-1.38h3.39a15.87 15.87 0 0 1 2.34.14 4.65 4.65 0 0 1 1.47.43 4.22 4.22 0 0 1 1.62 1.44 3.65 3.65 0 0 1 .56 2 3.89 3.89 0 0 1-.51 2 3.8 3.8 0 0 1-1.42 1.42 4.7 4.7 0 0 1-1.52.55 12.78 12.78 0 0 1-2.26.17h-2.1v5.87h-1.57v-14ZM348.89 83.72h-7.2V69.74h1.58v12.62h5.62v1.36zM353.06 83.54h-1.65l6.21-14h1.89l6.19 14H364l-1.92-4.39H355l-1.92 4.39Zm8.49-5.65-3-7-3 7ZM374.64 78.83v5.14h-1.55v-5.15l-5.1-8.83h1.8l4.09 7.26 4.12-7.26h1.75l-5.11 8.84z"/><path class="cls-1" d="M331.47 40.59c-2.35-7.58-1.84-14.27 0-21.3 1.95-.11 3.9-.21 5.85-.28 2.78-.12 4.55 1 4.07 5.52a8.33 8.33 0 0 1-2 4.9c1.43.65 2.2 2.78 2.39 5.24.41 5.1-1.15 6.75-4.34 6.47-1.99-.14-3.98-.35-5.97-.55Zm2.77-16.43a34.74 34.74 0 0 0-.44 3.64h1.81c.87 0 1.53-.63 1.65-1.93.19-1.73-.6-1.75-1.52-1.74Zm-.47 7.62a35 35 0 0 0 .45 4.06l1.87.1c1.05.06 1.77-.28 1.61-2-.16-1.95-1.14-2.11-2.54-2.15ZM342.63 40.74c.11-7.18 2.63-14.48 5.57-21.84l5.19-.06c1.39 7.35 3.91 14.74 5.61 22.16h-5.07c-.26-1-.51-1.94-.77-2.92-1.76 0-3.52 0-5.28-.05-.1 1-.17 1.93-.21 2.89-1.67-.09-3.38-.13-5.04-.18Zm7.63-15.23c-.68 2.63-1.28 5.27-1.74 7.89H352c-.66-2.62-1.27-5.26-1.74-7.89ZM360.68 41.06a202.92 202.92 0 0 0 0-22.06l4.72.06a83.81 83.81 0 0 1 .52 16.82l6.9-.09a46.94 46.94 0 0 1-.94 5c-3.73.21-7.47.21-11.2.27ZM373.22 40.73a50.51 50.51 0 0 0 .08-21.48c1.21.06 2.68.22 3.89.3a37.2 37.2 0 0 1 .72 15.94c1.76-.06 3.19 0 5 0a33.48 33.48 0 0 1-1.7 4.86c-2.91.21-5.12.23-7.99.38Z"/><path class="cls-2" d="M34.13 12.72c-1.5 0-2.88-.05-4.21-.09a72.1 72.1 0 0 0-10.49.26h-.33l-.08.32c-1.89 7.58-3.32 17.11-1 35.36l.05.41h.83c1.83.06 3.52.11 5.25.11 1.54 0 3.1 0 4.8-.16h.45v-.45c-.09-3.5-.15-7-.18-10.48h5.33c5.45 0 9.52-1.43 12.13-4.14a11.46 11.46 0 0 0 3-8.47c-.32-7.63-6.27-12.48-15.55-12.67Zm4.26 12a3.62 3.62 0 0 1-1 2.69 5.38 5.38 0 0 1-3.8 1.41H29.2c0-1.34.05-2.81.09-4.23 0-1.09.06-2.16.08-3.17h2.78c1.85-.01 6.2.28 6.24 3.32ZM96.21 11.6a18.49 18.49 0 0 0-18.67 18.5c.13 10.91 8 18.92 18.68 19 10.53-.09 18.57-8.24 18.72-18.95A18.76 18.76 0 0 0 96.21 11.6Zm-6.34 18.58c0-4.41 1.64-9.13 6.26-9.15h.17a5.16 5.16 0 0 1 3.7 1.48c1.62 1.57 2.58 4.44 2.59 7.67 0 3.55-.84 9.51-6.39 9.53-5.9 0-6.35-7.3-6.35-9.53ZM180.5 13.84h-.34c-2.88-.09-3.45-.11-6.41-.18l-2.19-.05v.48c.43 6.62-.54 12.39-1.88 18.52-.78-4.39-1.82-8.36-2.91-12.54-.52-2-1.07-4.1-1.61-6.33l-.08-.32h-.32a79.2 79.2 0 0 0-8.44 0H156l-.08.32c-.68 2.8-1.42 5.39-2.14 7.89-1.05 3.65-2.05 7.14-2.77 11a64.88 64.88 0 0 1-1.54-18.51v-.47h-8.48l-.09.33c-2.44 9.2-.3 20.28 6.74 34.84l.11.24h.27c2.34 0 3.54.08 4.69.08s2.12 0 4-.07h.38v-.38c.62-6.35 1.89-12.88 3.14-19.21 1.26 6.33 2.55 12.86 3.18 19.21v.41h.41c1.79-.08 3.35-.08 5-.08h4.83l.12-.24c6.3-13 8.66-25.28 6.64-34.5ZM223.54 39.86v-4.63c4.68 0 9.45 0 14.16-.11h.46V26.2h-.45c-4.71-.2-9.46-.2-14.2-.2v-4.13c3.71 0 7.31.05 11.1.15 1.83.05 3.69.1 5.61.13h.57l-.09-.56a40.67 40.67 0 0 0-2.19-7.78l-.1-.27h-.28a88.38 88.38 0 0 0-25.06 0h-.34l-.07.33a76.84 76.84 0 0 0 0 33.92l.07.31h.33a101.41 101.41 0 0 0 13.42 1 95.55 95.55 0 0 0 12.83-.91h.28l.1-.27a28.2 28.2 0 0 0 1.57-8v-.55h-.55c-5.64.4-11.44.56-17.17.49ZM307.86 41.17c.52-6.39-2-8-5.26-9.29a7.75 7.75 0 0 0 5-8.18c-.64-7.47-5.82-11.22-15.84-11.46h-1.94a54.28 54.28 0 0 0-11.79.86l-.27.05-.09.26c-3.94 11.7-4.3 24.36-1 34.73l.09.27.28.05a44.9 44.9 0 0 0 8 .68h2.35v-.48c-.19-4-.25-8.16-.31-12.16v-.11h3.11c2.28 0 3.73.41 4.57 1.27 1 1.05 1.19 2.88 1.12 5.29-.09 3.35 0 5 .23 5.84l.1.36h.38c1.18-.07 2.26-.11 3.32-.14a66.69 66.69 0 0 0 7.11-.52h.34l.34-2-.66.11H307a10.49 10.49 0 0 1 .23-1.28 32 32 0 0 0 .63-4.15Zm-11.52-16a2.41 2.41 0 0 1-.63 1.84c-.73.75-2.2 1.11-4.48 1.11h-4.19c0-2 0-4.08.1-6.31 1.65 0 3.32-.06 4.94-.06 2.63.01 4.22 1.25 4.26 3.41Z"/></g></g></svg>