<svg xmlns="http://www.w3.org/2000/svg" viewBox="0 0 286.64 118.55"><defs><style>.cls-1{fill:#fff}.cls-2{fill:#de2326}.cls-3{fill:#ffc746}.cls-5{fill:#f26742}</style></defs><g id="Layer_2" data-name="Layer 2"><g id="Layer_1-2" data-name="Layer 1"><path class="cls-1" d="M286.22 47.26a5.45 5.45 0 0 0-5.63-3.35 18.76 18.76 0 0 1-6.33-.94c-4.38-1.11-9.84-2.51-16 .62-.28.14-.51.31-.78.46A44.46 44.46 0 0 0 177 18.41a5.44 5.44 0 0 0-4.56-2.41h-18.6a5.45 5.45 0 0 0-4.47 2.32l-.94 1.33a5.55 5.55 0 0 0-1-1.7 5.46 5.46 0 0 0-4.16-1.95h-16.61a5.48 5.48 0 0 0-4.75 2.75 5.34 5.34 0 0 0-1.91-1.26 38.33 38.33 0 0 0-13-2.26 34 34 0 0 0-22.59 9H80.9l.3-1.91A5.47 5.47 0 0 0 75.8 16h-17a5.46 5.46 0 0 0-5.4 4.61l-.48 3c-.18-.23-.36-.48-.53-.69C48.45 18.38 42.28 16 34.49 16H12.9a5.46 5.46 0 0 0-5.4 4.61L.07 67.5a5.47 5.47 0 0 0 1.24 4.41 5.38 5.38 0 0 0 2.82 1.73 5.44 5.44 0 0 0-2.78 1.69 5.49 5.49 0 0 0-1.3 4.34l1.26 9.16a5.47 5.47 0 0 0 5.42 4.72H9a5.48 5.48 0 0 0 2.13-.43 5.45 5.45 0 0 0 2.14.43h2.29a5.5 5.5 0 0 0 2.2-.51 5.57 5.57 0 0 0 2.32.51h2.23a5.34 5.34 0 0 0 2.34-.55 9.19 9.19 0 0 0 3.71.73A10.36 10.36 0 0 0 30 93.6c.18 0 .32-.1.49-.14a5.58 5.58 0 0 0 .81.09h2.23a5.6 5.6 0 0 0 2-.36 5.63 5.63 0 0 0 2 .36h2.48l-.66 3.21a5.47 5.47 0 0 0 5.35 6.58h6.53a5.46 5.46 0 0 0 4.94-3.17 5.24 5.24 0 0 0 .71 1.15 5.47 5.47 0 0 0 4.24 2h6.53a5.32 5.32 0 0 0 1.32-.18 5.41 5.41 0 0 0 1.34.18h6.39a5.41 5.41 0 0 0 2.23-.48 5.41 5.41 0 0 0 2.23.48h6.68a3.55 3.55 0 0 0 .47-.06 4.43 4.43 0 0 0 .51.06h14.69a5.49 5.49 0 0 0 1.46-.22h.22a42.25 42.25 0 0 0 6.22.4 28.57 28.57 0 0 0 8.38-1.05 5.45 5.45 0 0 0 2.85.83h6.83a5.48 5.48 0 0 0 3.44-1.21 5.43 5.43 0 0 0 3.43 1.21h6.94a5.35 5.35 0 0 0 .7-.07c.22 0 .43.07.66.07H159a5.14 5.14 0 0 0 .88-.08 5.4 5.4 0 0 0 .69.08h.59a2.87 2.87 0 0 0 .15.37 28.75 28.75 0 0 0 6.27 7.35c4.89 4.14 11.82 7.51 18.16 7.51a14.23 14.23 0 0 0 7.11-1.76 21.9 21.9 0 0 0 7.65-7.45c1-1.49 1.46-2.08 2-2.3l.18-.06a14.86 14.86 0 0 1 1.52 1.18 16.49 16.49 0 0 0 7.06 3.93 21 21 0 0 0 20.87-9.27c.21-.38.39-.73.54-1.06a5.47 5.47 0 0 0 1.94-9.25c.27-.42.5-.87.75-1.3h.2a5.47 5.47 0 0 0 3.81-1.55 30.59 30.59 0 0 0 3.09-3.62 19.8 19.8 0 0 1 2.25-2.71 10.24 10.24 0 0 1 6.56-2.49 12 12 0 0 1 2.78.38 19.18 19.18 0 0 0 6.4.48 12.89 12.89 0 0 0 8-4.36 8.67 8.67 0 0 1 1.4-1.3 5.47 5.47 0 0 0-5.41-9.5 5.15 5.15 0 0 1-2.32.66 40.19 40.19 0 0 0 2.59-5 20.79 20.79 0 0 1 2-3.78 8.8 8.8 0 0 1 5.39-2.59 17.41 17.41 0 0 1 2.34 0c2.91.15 6.88.36 10.16-2.29a5.45 5.45 0 0 0 1.62-6.24ZM9.78 73.83Z"/><g id="Pick_3_with_Fireball_LOGO" data-name="Pick 3 with Fireball LOGO"><path class="cls-2" d="M12.9 21.45h21.59c10.95 0 18.16 5.59 16.31 17.23-1.52 9.58-8.44 15.55-18 15.55h-8.67l-2.24 14.13H5.47ZM26 42.41h1.68c3 0 6.29-.5 6.89-4.29s-2.87-3.86-5.66-3.86H27.3ZM58.75 21.45h17l-7.38 46.91H51.32ZM115.78 40.48c-2.34-2.55-5.41-4.73-9.27-4.73a11.19 11.19 0 0 0-10.72 9.15c-.82 5.16 3 9.15 8.07 9.15 3.92 0 7.3-1.68 10.46-4.36L111 67.23c-2.94 1.31-9.38 1.87-12.43 1.87-13.37 0-22.18-10.39-20.06-23.77C80.72 31.65 93.21 20.7 107 20.7a32.84 32.84 0 0 1 11.14 1.93ZM126.66 21.45h16.61l-3.6 20.34h.33a22.33 22.33 0 0 1 3.21-5.29l10.59-15h18.61l-18.3 22.83 12.42 24.08h-19.75l-5.84-14.19c-.7-1.8-1.92-3.55-2-5.48h-.37l-2.74 19.67h-16.61Z"/><path class="cls-3" d="M252 44.49a39 39 0 1 1-39-39 39 39 0 0 1 39 39Z"/><g id="Flames"><path class="cls-2" d="M225 65.45c-4.23 3-6.08 7.43-8.92 11.53-1.43 2.07-5.51 5.36-8.15 3.26 2.74-2.69 5.4-6.44 2.55-10.15-.36 5.61-5.57 6.75-10.22 5.88-7.25-1.35-13.85-4.62-21.43-3.07a20.74 20.74 0 0 0-6.2 2.6 3.37 3.37 0 0 1 .68.63 3.57 3.57 0 0 1 .73 3l-2.15 10.37h3.4a3.61 3.61 0 0 1 3.52 4.32l-.81 4.23a3.58 3.58 0 0 1-3.51 2.86H166a23.45 23.45 0 0 0 5.1 6c6.11 5.18 14.46 7.75 19 5.16 5.88-3.32 5.91-8.29 10.29-10.06 5.48-2.21 7.11 3.67 12 4.79a13.86 13.86 0 0 0 10.33-2.26 14 14 0 0 0 4.59-4.44c.92-1.58 1-3.69 3.54-3.49-2.42-1.37-5.76 3.24-8 4a15.86 15.86 0 0 1-10.76-.67c4.28-1.19 8.46-1.5 12.24-4.34A25.78 25.78 0 0 0 234 79.52c1-5.31.8-10.41 5.9-13.75a12.38 12.38 0 0 1 10-.92c-7.55-4.14-17.9-4.3-24.9.6Z"/><path class="cls-3" d="M210.65 89.39c-4.77.66-10.62-.87-14.35-1.91-2.52-.69-8.63-2.82-10.93-.48 1.91-2 3.15-3.34 7.41-3.86-6-3.58-15.08-2.45-19.94 1.93l-.92 4.42h3.4a3.61 3.61 0 0 1 3.52 4.32l-.84 4.24a3.58 3.58 0 0 1-3.51 2.86h-.35c3.42 2.43 8 2.89 10.81 1.21 4.77-2.82 9.6-7.86 14.63-7a16 16 0 0 0-11.08-1.79c3-1.32 6-3 9.24-3 4.26-.09 9.34 1.08 12.91-.94Z"/><path d="M224.43 77.61a14.78 14.78 0 0 1-9.59 8.14c-5.67 1.64-12.67-.12-18.84.72.47-.16.94-.33 1.39-.52 2.91-1.26 3.77-2.74 5.26-5.32-2.57 3-12.41-4.51-24.88-3.33a7.61 7.61 0 0 0-3.69 1.7s0 .09 0 .14l-2.15 10.37h3.4a3.61 3.61 0 0 1 3.52 4.32l-.85 4.22a3.58 3.58 0 0 1-3.51 2.86h-4.18a18.74 18.74 0 0 0 4.63 4.5 14.54 14.54 0 0 0 11.35 2.09c4.3-1.15 7.21-4.71 10.3-7.75 1.42-1.4 2.81-2.82 4.86-2.77 2.39.07 3.78 2.3 6.15 2.39-1.7-1.67-3.37-5.63-6-5.74 4.61-.21 13.89 3.2 20.78-3.55 7.83-7.67 3.37-9.87 11-21.42-5.55.83-8.26 7.25-8.95 8.95Z" opacity=".4" fill="#ffc746"/><path class="cls-2" d="M267 71.37c-5.93 3.1-10.21-.21-16.2-1.58-2.55-.59-8.4-.16-12 6.13-.92 1.64-3.85 8-3.29 9.85 2-1.94 3.39-4.69 5.54-6.61a15.6 15.6 0 0 1 9.95-3.87c3-.17 5.89 1.28 8.78.9 3.71-.49 4.51-3.19 7.22-4.82ZM262.68 54.74a14.18 14.18 0 0 1 8.71-4.31c3-.39 7.29.92 9.78-1.08-7.12.75-13.16-4.58-20.44-.88-4 2-6.09 5.12-6.12 9.66 0 3.63.77 7.25-3.21 9.21a4.64 4.64 0 0 1-.93.3l-.32-.08c7.68 2.61 8.92-8.9 12.53-12.82Z"/></g><path class="cls-2" d="M242.13 22.87a12.63 12.63 0 0 0-3.56-11.35 12.76 12.76 0 0 1 1.05 7.73c-1.1 7-5.87 12.28-14.36 15.1v.2c7.54 1.31 12.86 7.15 11.54 15.5-1.92 12.08-14.27 20.23-31.18 20.23a43.65 43.65 0 0 1-16.49-2.89L188 70.1c3.74 2.56 10.9 4.71 19.9 4.71 17 0 29.43-8.3 31.36-20.59 1-6.61-1.76-14.23-7-17.93 5.74-3.09 8.98-7.72 9.87-13.42Z"/><path class="cls-2" d="M207.87 41.2H204l-.63 4h6.89a13.44 13.44 0 0 1 7.94 2.15c-.43-4.17-5.06-6.15-10.33-6.15ZM212.83 16.84a35.83 35.83 0 0 0-12.76 2.9l.47 4.47c2.85-1.44 9.09-3.79 14.66-3.79a12.06 12.06 0 0 1 5.56 1.1c-.04-2.84-2.76-4.68-7.93-4.68Z"/><path class="cls-1" d="M191.35 52.06a34.58 34.58 0 0 0 15 3.93c6.44 0 11-2.31 11.77-7 .84-5.33-4.29-7.84-10.23-7.84H201l2-12.89h6.44c4.53 0 10.48-1.41 11.2-5.93.53-3.33-2.24-5.54-7.88-5.54s-11.74 2.31-14.57 3.72l-1.37-13c4.52-2.51 13.26-4.93 22.31-4.93 14.49 0 21.9 7.25 20.42 16.6-1.1 7-5.87 12.28-14.36 15.1v.2c7.54 1.31 12.86 7.15 11.54 15.5-1.92 12.08-14.27 20.23-31.18 20.23-9 0-16.07-2.11-19.8-4.63Z"/><path class="cls-5" d="M54.21 83.05h7.59l1.07-5.18H48.75l-4.13 19.98h6.53l1.49-7.19h7.14l1.06-5.15H53.7l.51-2.46zM65.17 77.87l-4.13 19.98h6.53l4.13-19.98h-6.53zM87.3 94.37c-.07-.85-.14-1.75-.23-2.52a4.85 4.85 0 0 0-1.36-3.27A7.1 7.1 0 0 0 89.63 84a4.44 4.44 0 0 0-1.35-4.64c-1.34-1.1-3.47-1.58-6.9-1.58a50 50 0 0 0-6.72.4l-.37.05-4.06 19.62h6.47l1.47-7.11h.44c1.35 0 1.82.19 1.89 2.26a22.3 22.3 0 0 0 .5 4.49l.12.36h6.68l-.23-.69a21 21 0 0 1-.27-2.79Zm-7.45-11.8h1.42a2.15 2.15 0 0 1 1.67.53 1.29 1.29 0 0 1 .16 1.08c-.25 1.2-1.47 1.94-3.2 1.94h-.77ZM104.21 90.21l1.07-5.15h-7.29l.41-2.01h7.74l1.08-5.18H92.94l-4.12 19.98h14.69l1.07-5.21h-8.16l.5-2.43h7.29zM121.61 87.07a5.68 5.68 0 0 0 3.31-3.91 3.88 3.88 0 0 0-2.21-4.45c-1.58-.83-3.42-1-6.26-1a50.44 50.44 0 0 0-6.58.4l-.36.05-4 19.47.54.08a35.31 35.31 0 0 0 5.38.34c4.15 0 7-.56 9-1.79a7 7 0 0 0 3.35-4.47 4.09 4.09 0 0 0-2.17-4.72Zm-7.07-1.93.55-2.68c.32 0 .75-.06 1.36-.06a2.33 2.33 0 0 1 1.74.48.81.81 0 0 1 .11.72c-.28 1.34-2.2 1.54-3.32 1.54Zm2.55 6.24c-.36 1.72-2.44 1.91-3.31 1.91h-.92l.72-3.49h.86a3.33 3.33 0 0 1 2.49.68 1 1 0 0 1 .16.9ZM133 77.87l-10.36 20h6.83l2.05-4.38H136l.39 4.38h6.94l-2.26-20Zm2.89 10.78h-2.38l1.22-2.65c.27-.55.56-1.23.86-1.91 0 .6.07 1.2.11 1.69ZM155.29 77.87h-6.53l-4.12 19.98h14.33l1.09-5.29h-7.8l3.03-14.69zM168.16 92.56l3.04-14.69h-6.53l-4.13 19.98h14.33l1.1-5.29h-7.81z"/><path id="with" class="cls-5" d="M15.58 88.08h-2.29l-.82-6.46L9 88.08H6.73l-1.26-9.15h2.35l.62 6.58 3.28-6.58h2.35l.74 6.58 3.32-6.58h2.34Zm4.52 0 1.6-9.15H24l-1.62 9.15Zm4.59-12.3a1.38 1.38 0 0 1-.39 1 1.26 1.26 0 0 1-1 .42 1.4 1.4 0 0 1-.95-.34 1.22 1.22 0 0 1-.39-1 1.3 1.3 0 0 1 .42-1 1.41 1.41 0 0 1 1-.4 1.28 1.28 0 0 1 .92.36 1.24 1.24 0 0 1 .39.96Zm.27 5 .32-1.83h1.59l.45-2.67h2.22l-.46 2.67h2.06l-.33 1.83h-2L28 85a2.55 2.55 0 0 0 0 .53.73.73 0 0 0 .29.68 1.42 1.42 0 0 0 .79.19 3.4 3.4 0 0 0 .45 0l.41-.08-.19 1.68a3.48 3.48 0 0 1-.68.19 4.74 4.74 0 0 1-.71.06 3 3 0 0 1-2.07-.58 2 2 0 0 1-.61-1.53v-.58a4.71 4.71 0 0 1 .12-.56l.78-4.24Zm12.49 7.32.88-5c0-.16.05-.31.07-.46s0-.31 0-.46a1.83 1.83 0 0 0-.32-1.08 1.35 1.35 0 0 0-1.18-.46 2.17 2.17 0 0 0-1 .21 2.31 2.31 0 0 0-.75.56 2.79 2.79 0 0 0-.51.81 3.55 3.55 0 0 0-.28.93l-.88 5h-2.19l2.54-14.42h2.25l-1.16 6.56A3.71 3.71 0 0 1 36 79.15a3.09 3.09 0 0 1 1.74-.47 3.54 3.54 0 0 1 1.32.23 2.73 2.73 0 0 1 .94.61 2.51 2.51 0 0 1 .55.9 3.38 3.38 0 0 1 .18 1.1 4.42 4.42 0 0 1-.08.86l-1 5.7Z"/></g></g></g></svg>