<svg xmlns="http://www.w3.org/2000/svg" viewBox="0 0 289.87 118.22"><defs><style>.cls-1{fill:#fff}.cls-2{fill:#0e4068}.cls-4{fill:#de2326}.cls-7{fill:#f26742;stroke:#f26742;stroke-miterlimit:10;stroke-width:1.07px}</style></defs><g id="Layer_2" data-name="Layer 2"><g id="Layer_1-2" data-name="Layer 1"><path class="cls-1" d="M289.53 47.22a4.6 4.6 0 0 0-4.69-2.79 19.82 19.82 0 0 1-6.79-1c-4.29-1.1-9.63-2.46-15.56.55a18.69 18.69 0 0 0-1.81 1.06v-1.26A43.79 43.79 0 0 0 180 20.28a4.44 4.44 0 0 0-4.53-4.28h-19a4.54 4.54 0 0 0-3.77 2l-2.7 3.78.07-.39A4.56 4.56 0 0 0 145.6 16h-17a4.56 4.56 0 0 0-4.5 3.85v.2a4.52 4.52 0 0 0-2.65-2.56 38.32 38.32 0 0 0-13-2.25 33.8 33.8 0 0 0-22.89 9.34h-5l.53-3.31A4.57 4.57 0 0 0 76.55 16H59.1a4.56 4.56 0 0 0-4.51 3.85l-.75 4.73H53a14.5 14.5 0 0 0-1.31-1.82C48 18.38 41.92 16 34.26 16h-22.1a4.56 4.56 0 0 0-4.5 3.85l-7.6 48a4.55 4.55 0 0 0 4.5 5.27H7l-.2 1.33H5.28a4.57 4.57 0 0 0-4.52 5.18L2 88.93a4.56 4.56 0 0 0 4.51 3.94h2.37a4.63 4.63 0 0 0 2.17-.55 4.57 4.57 0 0 0 2.17.55h2.32a4.55 4.55 0 0 0 2.32-.64 4.53 4.53 0 0 0 2.28.64h2.26a4.52 4.52 0 0 0 2.35-.66 8.07 8.07 0 0 0 3.77.85 9.15 9.15 0 0 0 1.48-.13c.21 0 .38-.11.57-.16a4.61 4.61 0 0 0 .91.1h2.26a4.66 4.66 0 0 0 2-.46 4.51 4.51 0 0 0 2 .46H40a4.55 4.55 0 0 0 2.13-.54l-.92 4.44a4.56 4.56 0 0 0 4.46 5.48h5.54a4.55 4.55 0 0 0 4.46-3.63l.79-3.62h1.83l-.38 1.82a4.56 4.56 0 0 0 4.47 5.48h5.53a4.62 4.62 0 0 0 1.89-.42 4.59 4.59 0 0 0 1.91.42h5.48a4.5 4.5 0 0 0 2.68-.87 4.49 4.49 0 0 0 2.67.87h5.66a4.4 4.4 0 0 0 1.2-.17 4.75 4.75 0 0 0 1.19.17h13.83a4.5 4.5 0 0 0 1.71-.34 5 5 0 0 0 .69.18 40.55 40.55 0 0 0 6.06.39 25 25 0 0 0 9.24-1.41 4.58 4.58 0 0 0 3 1.18h5.72a4.54 4.54 0 0 0 3.9-2.2 4.55 4.55 0 0 0 3.9 2.2h6a4.78 4.78 0 0 0 1.36-.3 4.86 4.86 0 0 0 1.32.21h13.46a4.47 4.47 0 0 0 1.37-.22 4.56 4.56 0 0 0 1.32.22h.45a4.51 4.51 0 0 0 .51 1.41 28.22 28.22 0 0 0 6.15 7.21c4.94 4.19 11.81 7.35 17.88 7.35a13.39 13.39 0 0 0 6.65-1.62 21.27 21.27 0 0 0 7.44-7.27c1.16-1.69 1.68-2.36 2.48-2.68s.81-.33 2.74 1.29a16 16 0 0 0 6.76 3.78 20.27 20.27 0 0 0 20.11-8.94 15.31 15.31 0 0 0 .69-1.41 4.56 4.56 0 0 0 1.3-8.33 30 30 0 0 0 1.62-2.61 4.33 4.33 0 0 0 .71.1 4.58 4.58 0 0 0 3.18-1.3 29.07 29.07 0 0 0 3.05-3.67 19.62 19.62 0 0 1 2.43-2.9 11.3 11.3 0 0 1 7.26-2.79 13.48 13.48 0 0 1 3.08.41 18.5 18.5 0 0 0 6.18.48 12.26 12.26 0 0 0 7.56-4.14 9.47 9.47 0 0 1 1.59-1.4 4.56 4.56 0 0 0-4.51-7.92 6.24 6.24 0 0 1-4.58.61 33.85 33.85 0 0 0 3.49-6.26 20.43 20.43 0 0 1 2.2-4.11 9.92 9.92 0 0 1 6.11-2.91 15.9 15.9 0 0 1 2.57 0c2.78.15 6.6.35 9.64-2.1a4.57 4.57 0 0 0 1.32-5.27Z"/><g id="Pick_4_with_Fireball_LOGO" data-name="Pick 4 with Fireball LOGO"><path class="cls-2" d="M12.16 20.6h22.1c11.21 0 18.58 5.73 16.69 17.64C49.4 48 42.31 54.16 32.57 54.16h-8.91l-2.3 14.46H4.56Zm13.41 21.46h1.72c3.06 0 6.45-.51 7.07-4.39s-2.94-4-5.81-4H26.9ZM59.09 20.6h17.46l-7.62 48H51.49ZM117.46 40.09c-2.39-2.61-5.53-4.84-9.49-4.84a11.45 11.45 0 0 0-11 9.36c-.83 5.28 3 9.36 8.27 9.36 4 0 7.46-1.72 10.7-4.46l-3.36 18c-3 1.34-9.6 1.91-12.72 1.91-13.69 0-22.7-10.64-20.53-24.33 2.22-14 15-25.21 29.08-25.21a33.85 33.85 0 0 1 11.41 2ZM128.6 20.6h17l-3.68 20.82h.38a23 23 0 0 1 3.28-5.42l10.85-15.4h19L156.74 44l12.71 24.65H149.2l-6-14.52c-.72-1.85-2-3.64-2-5.61h-.38L138 68.62h-17Z"/><circle cx="216.9" cy="43.81" r="39.25" fill="#5abfe5"/><path class="cls-4" d="M270.89 71.33c-6 3.15-10.37-.21-16.45-1.6-2.6-.6-8.53-.17-12.14 6.23-.94 1.66-3.92 8.1-3.34 10 2-2 3.44-4.77 5.62-6.71a15.91 15.91 0 0 1 10-3.94c3-.17 6 1.3 8.92.92 3.86-.49 4.67-3.23 7.39-4.9ZM266.54 54.44a14.44 14.44 0 0 1 8.85-4.38c3-.39 7.4.94 9.92-1.1-7.22.77-13.36-4.64-20.75-.89-4.08 2.08-6.19 5.21-6.23 9.82 0 3.68.79 7.36-3.26 9.35a4 4 0 0 1-.94.3l-.32-.08c7.79 2.65 9.06-9.03 12.73-13.02Z"/><path class="cls-4" d="M228.3 65.33c-4.3 3-6.18 7.54-9.07 11.71-1.45 2.09-5.59 5.43-8.28 3.3 2.78-2.72 5.49-6.54 2.6-10.31-.37 5.7-5.66 6.86-10.38 6-7.37-1.37-14.07-4.69-21.78-3.12a20.83 20.83 0 0 0-6.29 2.64 3.43 3.43 0 0 1 .68.64 3.62 3.62 0 0 1 .75 3l-2.18 10.53h3.45a3.65 3.65 0 0 1 3.57 4.39l-.89 4.3a3.64 3.64 0 0 1-3.57 2.91h-8.58a23.35 23.35 0 0 0 5.17 6c6.21 5.26 14.69 7.87 19.34 5.24 6-3.36 6-8.41 10.45-10.21 5.57-2.25 7.23 3.72 12.22 4.86A14.06 14.06 0 0 0 226 105a14.45 14.45 0 0 0 4.66-4.51c.94-1.61 1-3.75 3.6-3.55-2.46-1.39-5.86 3.29-8.18 4.08a16.12 16.12 0 0 1-10.93-.67c4.36-1.22 8.6-1.53 12.44-4.42a26.12 26.12 0 0 0 9.76-16.3c1-5.4.82-10.58 6-14a12.6 12.6 0 0 1 10.12-.93c-7.58-4.2-18.11-4.36-25.17.63Z"/><path d="M213.69 89.64c-4.85.66-10.79-.89-14.58-1.94-2.56-.7-8.77-2.87-11.1-.49 1.94-2 3.2-3.4 7.52-3.92-6.08-3.64-15.32-2.49-20.25 2l-.93 4.49h3.45a3.65 3.65 0 0 1 3.57 4.39l-.89 4.3a3.64 3.64 0 0 1-3.57 2.91h-.35c3.47 2.47 8.08 2.94 11 1.23 4.85-2.87 9.75-8 14.86-7.06a16.23 16.23 0 0 0-11.25-1.82c3-1.34 6-3 9.39-3.1 4.33-.13 9.5 1.06 13.13-.99Z" fill="#ffc746"/><path d="M227.69 77.68a15.05 15.05 0 0 1-9.75 8.26c-5.76 1.67-12.87-.13-19.13.73.48-.16.95-.33 1.41-.53 3-1.27 3.82-2.78 5.34-5.4-2.56 3.07-12.56-4.58-25.28-3.38a7.69 7.69 0 0 0-3.74 1.71s0 .09 0 .14l-2.18 10.53h3.45a3.65 3.65 0 0 1 3.57 4.39l-.89 4.3a3.64 3.64 0 0 1-3.57 2.91h-4.25a19.33 19.33 0 0 0 4.71 4.57A14.77 14.77 0 0 0 188.9 108c4.37-1.17 7.33-4.79 10.47-7.88 1.44-1.42 2.85-2.86 4.93-2.81 2.43.07 3.84 2.33 6.25 2.43-1.73-1.7-3.42-5.72-6.12-5.83 4.68-.21 14.11 3.24 21.11-3.61 8-7.79 3.42-10 11.16-21.76-5.56.88-8.32 7.46-9.01 9.14Z" opacity=".4" fill="#ffc746"/><path class="cls-2" d="m188 46.7-2.31 14.09h31.8l-2.9 16.47h19.17l2.91-16.47h10l2.65-16h-10l6.09-35.19c-3.1-2.58-7.28-4.4-11-6.08l-13.2-.57Zm37.5-29.21c-1.14 5.18-2.34 10-3.15 14.66l-2.23 12.63h-13.31l.16-.23 8.36-12.29c3.6-5.07 6.47-9.81 9.71-14.77Z"/><path class="cls-1" d="m185.74 44.46-2.31 13.08h31.81L212.33 74h19.18l2.9-16.47H244l2.64-15h-9.59l6.17-35C239 4.51 231.38 2 227.53 1.46S219 .7 219 .7Zm37.52-29.21c-1.14 5.19-2.34 10-3.15 14.66l-2.23 12.63h-13.31l.16-.22L213.1 30c3.6-5.07 6.46-9.81 9.71-14.77Z"/><path class="cls-7" d="M49.67 78.47h13.26l-.87 4.19h-7.71l-.74 3.57h7.25L60 90.39h-7.25l-1.51 7.31H45.7ZM71.89 78.47l-4 19.23h-5.51l4-19.23ZM75.63 78.73a50.3 50.3 0 0 1 6.75-.41c3.15 0 5.34.41 6.67 1.49A4 4 0 0 1 90.24 84a6.81 6.81 0 0 1-4.51 4.65v.12c1.27.54 1.75 1.77 1.93 3.42.23 2 .33 4.76.57 5.51h-5.69a21.76 21.76 0 0 1-.54-4.42c-.08-2.32-.74-2.8-2.45-2.8h-.89l-1.47 7.22h-5.48Zm3.81 8.07h1.44c2.08 0 3.47-1 3.77-2.4s-.55-2.25-2.38-2.28a11.68 11.68 0 0 0-1.89.11ZM105.14 89.94h-7.41L97 93.47h8.29l-.87 4.23H90.59l4-19.23H108l-.87 4.19h-7.9l-.64 3.11H106ZM111.4 78.73a51.62 51.62 0 0 1 6.6-.41c2.94 0 4.65.18 6.11 1a3.38 3.38 0 0 1 2 3.93c-.34 1.63-1.61 3.2-4.2 4v.06c2.4.66 3.54 2.4 3.07 4.68a6.57 6.57 0 0 1-3.16 4.19c-1.79 1.09-4.49 1.74-8.9 1.74a36.1 36.1 0 0 1-5.38-.34Zm2.31 15.34a11.23 11.23 0 0 0 1.58.06c1.83 0 3.53-.69 3.88-2.37s-1.12-2.25-3.2-2.25h-1.32Zm1.69-8.21h1.11c2.35 0 3.64-.77 3.9-2S119.87 82 118 82a11.52 11.52 0 0 0-1.82.11ZM133 93.25l-2.08 4.45h-5.72l10-19.23h7.34l2.18 19.23h-6l-.39-4.45Zm5.35-3.83-.26-3.42c-.09-1.08-.16-2.65-.23-3.79h-.06c-.54 1.14-1.18 2.74-1.71 3.82l-1.6 3.42ZM151.26 78.47h5.54l-3.08 14.92h7.92l-.89 4.31h-13.46ZM167.42 78.47H173l-3.09 14.92h7.93l-.89 4.31h-13.51Z"/><path id="blue" d="M15.54 88.31h-2.32l-.83-6.57-3.51 6.57H6.55L5.28 79h2.38l.64 6.68L11.67 79h2.38l.76 6.68L18.22 79h2.38Zm4.59 0L21.76 79h2.29l-1.65 9.3Zm4.67-12.49a1.4 1.4 0 0 1-.39 1 1.29 1.29 0 0 1-1 .43 1.4 1.4 0 0 1-1-.35 1.23 1.23 0 0 1-.4-1 1.29 1.29 0 0 1 .43-1 1.37 1.37 0 0 1 1-.4 1.3 1.3 0 0 1 .94.36 1.25 1.25 0 0 1 .42.96Zm.27 5.05L25.4 79H27l.47-2.71h2.24L29.26 79h2.09L31 80.87h-2l-.82 4.35a2.59 2.59 0 0 0 0 .54.76.76 0 0 0 .3.69 1.44 1.44 0 0 0 .8.19 3.29 3.29 0 0 0 .45 0l.42-.08-.13 1.72a3.8 3.8 0 0 1-.69.19 5 5 0 0 1-.73.06 3 3 0 0 1-2.09-.59 2 2 0 0 1-.62-1.55v-.59a4.89 4.89 0 0 1 .09-.59l.79-4.31Zm12.69 7.44.89-5.11c0-.16.05-.31.07-.47a3.55 3.55 0 0 0 0-.46 1.88 1.88 0 0 0-.33-1.1 1.38 1.38 0 0 0-1.2-.47 2.26 2.26 0 0 0-1 .21 2.33 2.33 0 0 0-.75.57 3 3 0 0 0-.53.82 4.12 4.12 0 0 0-.28 1l-.89 5.06h-2.23l2.57-14.65h2.29l-1.18 6.67a3.75 3.75 0 0 1 1.11-1.1 3.16 3.16 0 0 1 1.76-.47 3.67 3.67 0 0 1 1.35.23 2.9 2.9 0 0 1 1 .62 2.48 2.48 0 0 1 .56.92 3.5 3.5 0 0 1 .18 1.12 4.65 4.65 0 0 1-.07.87l-1 5.79Z" fill="#f26742"/></g></g></g></svg>