<svg xmlns="http://www.w3.org/2000/svg" id="Layer_2" data-name="Layer 2" viewBox="0 0 433.23 204.13"><defs><radialGradient id="radial-gradient" cx="-442.5" cy="-412.09" r="1.62" fx="-442.5" fy="-412.09" gradientTransform="translate(10546.17 9783.11) scale(23.61)" gradientUnits="userSpaceOnUse"><stop offset="0" stop-color="#fff"/><stop offset=".07" stop-color="#fffdf4"/><stop offset=".2" stop-color="#fff8d9"/><stop offset=".37" stop-color="#fff0ad"/><stop offset=".56" stop-color="#ffe570"/><stop offset=".79" stop-color="#ffd723"/><stop offset=".88" stop-color="#ffd100"/></radialGradient><clipPath id="clippath"><circle cx="112.59" cy="69.91" r="49.17" style="fill:none"/></clipPath><style>.cls-1{fill:#f8d000}.cls-3{fill:#160b8b}.cls-6{fill:#e2211c}.cls-7{fill:#79858b}</style></defs><g id="Layer_3" data-name="Layer 3"><g id="c"><path d="M83.53 171.8a291.86 291.86 0 0 1-19.36-7.17c10.41 6.57 23.64 12.45 37.72 16.63a139.2 139.2 0 0 0 18.89 4.53c2.18.36 3.88.61 5.81.81l.57-4.07c-13.13-1.96-27.94-5.53-43.64-10.75" class="cls-1"/><path d="m300.15 96.85 15.62.02v-3.45h-15.64l.02 3.43Zm19.05-3.42-.02 5.54 2.46-.03v6.76a39 39 0 0 0 7 11.87c5.85 6.67 13.69 10.29 22.23 10.29.63 0 1.26-.02 1.89-.06 7.68-.47 15.11-4.45 20.71-10.89-5.04 4.4-11.07 7.07-17.27 7.44-.63.04-1.26.06-1.88.06-8.55 0-16.39-3.6-22.23-10.29-6.88-7.86-10.52-19.15-10.51-32.66 0-13.91 3.67-25.58 10.39-33.43l-.58.48c-6.21 5.6-10.38 13.98-12.21 24.19l.02 20.72Zm44.69-21.83c-1.25-3.43-3.57-5.48-6.37-5.65a7.02 7.02 0 0 0-5.33 2.03 10.8 10.8 0 0 0-1.79 2.25 6.66 6.66 0 0 1 3.68-.84c2.2.14 4.1 1.45 5.42 3.66l9.34.29 12.87-6.03-.33-2.01-.12-.38-16.83 8.2-.55-1.52ZM174 163.76c.17-.99.39-1.97.66-2.93l5.44-18.9-2.5.15-5.11 17.74 1.5 3.94Z" class="cls-7"/><path d="m350.81 76.31-.19 19.54a8.85 8.85 0 0 0 2.86 2.54h5.76a7.2 7.2 0 0 0 3.45-3.46l-8.65.02.17-18.52-3.4-.12Zm-81 51.86-2.69.16.04 3.24 51.05-2.99v-3.25l-47.61 2.8-1.28-94.19-3.5-.36 1.03 75.32 2.96 19.28Zm30.15-63.24 17.54 1.04v-3.65l-17.56-1.03.02 3.64Zm128.45 73.02v-.03c-1.45-1.2-2.71-1.71-3.99-1.62-.24.02-.64.1-.73.44l.41.1 2.32.5c.65.14 1.33.33 1.99.6Zm-7.92 12.45s1.14-.16 1.17-.87v-.03l-.5-.09-2.13-.28a9.62 9.62 0 0 1-3.78-1.3l.55.52c1.66 1.52 3.24 2.22 4.69 2.04Zm-6.89-3.87c-1.55-1.6-2.58-3.97-2.48-7.29a16.03 16.03 0 0 1 2.91-8.97 14.23 14.23 0 0 0-3.68 3.78l-.76 24.64 4.01-12.16Zm-29.62-45.16-5.85 23.69 21.7-1.28.57-3.27-18.83 1.11 18.34-74.15-2.52-.26-11.25 45.46a47.48 47.48 0 0 1-2.15 8.7Zm30.7 9.57-9.85.39-.57 3.32 6.98-.27 1.23 8.67 19.05-1.12-.6-3.21-15.01.89-1.23-8.67Zm-17.12 29.33c-.02-.61-.02-1.21 0-1.82l.24-8.82-3.36.19-.1 3.6 3.22 6.84Zm-179.41-9.07-19.57 1.14-14.93-45.63c-.54-1.96-1.04-3.85-1.48-5.71-.06 1.64-.13 3.26-.22 4.86l-.46 8.21 13.64 41.7 22.16-1.3.85-3.29Zm139.01 39.63c-1.04.14-2.06.21-3.06.21-4.58 0-8.72-1.46-11.88-4.23-4.01-3.52-6.1-8.8-6.06-15.26a24.5 24.5 0 0 1 5.29-15.28 23.13 23.13 0 0 0-7.28 10.37l-.07 16.66a16.9 16.9 0 0 0 4.68 6.95c3.16 2.77 7.29 4.23 11.89 4.23 1 0 2.01-.07 3.05-.21a22.15 22.15 0 0 0 14.46-8.1 22.36 22.36 0 0 1-11.01 4.65Zm-91.28-42.43-27.76 1.63-4.83-47.38c-.14.63-.29 1.26-.46 1.88l-2.26 8.68 4.1 40.26 31.71-1.86-.49-3.22Zm19.28 51.48-.51-43.85-3.48.19.32 27.08 1.93-.21.23 16.99-1.97.26.04 2.97 30.93-4.15v-2.97l-27.49 3.68Zm112.35-15.05-6.36-12.72v.71l-.22 9.15 3.15 6.3 11.94-1.61.1-2.99-8.6 1.16Zm23.74-2.67c-3.74.45-7.53-.21-10.9-1.91l-.79-.42-.1 3.38-2.77.37.22.12a19.03 19.03 0 0 0 10.9 1.9 14.52 14.52 0 0 0 9.79-5.98 14.5 14.5 0 0 1-6.35 2.54Zm-172.11 22.55-1.13-46.61-3.53.2 1.22 49.85 34.51-4.63-.04-2.97-31.03 4.16Zm128.26-17.2.74-36.76-3.37.19-.14 6.66a22.05 22.05 0 0 1 2.21 10.38 24.73 24.73 0 0 1-2.63 10.77l-.25 12.21 13.45-1.79.07-2.99-10.07 1.36Zm-60.16 8.07-.03-41.39-3.45.19.02 25.39 2.3-.25.03 16.22-2.31.31v2.97l16.81-2.25v-2.98l-13.37 1.79Zm-141.22-41.92-38.26 2.24 12.99-114.25-3.87-.33-13.43 118.01 42.38-2.42.18-3.25Zm-47.58 67.23 7.93-56.49-3.85-.03-8.4 59.75 28.33-3.48.19-3-24.21 3.25Zm79.81-125.31c.36-2.94.78-5.88 1.41-8.68l8.85-38.23-2.58-.27-9.44 40.71 1.74 6.47Zm13.15 112.85-1.67-48.73-3.56.2 1.78 51.96 22.13-2.95-.08-2.97-18.61 2.49Zm-26.94 3.61-3.43-22.61-2.7 8.32 2.69 17.73 23.23-3.11-.67-2.9-19.12 2.57Zm-26.62 3.56-10.17-22.33-.16-.45v.02l-.64 9.66 7.54 16.55 15.36-2.07 1.01-3.11-12.93 1.74Z" class="cls-7"/><path d="m152.46 19.49 40.3 4.17 15.46 57.41.88.02c.49-4.58.98-9.44 1.98-13.86l9.43-40.69 32.72 3.39 14.9 96.89-28.72 1.69-5.53-54.35-.58-.03c-.52 3.35-1.02 6.82-1.88 10.03l-11.83 45.51-19.99 1.16-14.58-44.56c-1.26-4.61-2.38-8.98-2.84-13.63l-1.23-.04c-.12 4.36-.21 8.85-.46 13.2l-2.59 46.31-38.5 2.25L152.46 19.5Zm118.27 12.25 48.75 5.06v24.18l-21-1.23.05 8.71 19.21.83.02 22.69-19.08-.02.06 8.79 21.47-.32v23.33l-48.17 2.83-1.3-94.84Zm115.12 43.72c-.37 12.43-.55 22.78-6.71 32.58-5.65 9.04-14.43 14.34-23.02 14.87-8.73.53-16.88-2.82-22.94-9.75-6.22-7.11-10.15-17.88-10.14-31.7 0-28.4 15.31-44.08 34.05-42.09 9.78 1.05 22.52 9.2 26.35 22.88l-18.18 8.85c-1.49-4.12-4.36-6.41-7.65-6.61-7.52-.41-11.82 8.62-11.88 18.63-.07 9.08 3.92 17.5 10.69 17.39a8.66 8.66 0 0 0 8.27-7.04h-9.19l.19-19.1 30.15 1.08Zm21.14 17.24 3.56-22.05.6.04c.22 3.09.45 6.27.84 9.35l1.58 12.66h-6.59Zm-3.39 17.22 12.34-.48 1.22 8.64 16.06-.95-12.94-69.88-18.35-1.91-18.48 74.71 18.6-1.09 1.55-9.04Z" class="cls-6"/><path d="m221.12 137.83 19.61-1.1 1.32 47.47-19.25 2.58-1.68-48.94Zm28.3-1.6 17.92-1.01.57 31.03 14.09-1.54.18 14.1-31.62 4.23-1.14-46.82Zm36.66-2.06 15.84-.9.19 29.24 12.51-1.37.02 13.33-28.05 3.76-.51-44.06Zm32.58-1.85 14.1-.79-.16 40.53-13.91 1.87-.03-41.61Zm60.97-3.44 10.69-.61 9.03 19.22.3-.04c-.34-2.92-.71-5.94-.63-8.96l.29-10.72 9.78-.55-1.05 34.73-9.69 1.3-8.84-17.65-.32.03c.29 2.47.55 4.78.5 7.17l-.28 11.65-10.53 1.41.75-36.98Zm34.7 20.09.47.45c1.67 1.53 3.68 2.68 5.85 2.43.92-.1 2.4-.76 2.46-2.27.05-1.5-1.17-1.5-2.02-1.65l-1.87-.24c-3.71-.46-6.81-3.01-6.65-8.41.26-8.23 6.19-13.17 11.86-13.48 2.91-.16 5.51.63 7.88 2.47l-2.76 8.69c-1.51-1.29-3.25-2.27-5.23-2.1-.82.06-2.03.55-2.09 1.94-.03 1.26 1.12 1.36 1.82 1.51l2.07.45c3.83.81 6.48 3.27 6.27 8.85-.3 7.8-5.83 12.37-11.32 13.11-3.44.42-6.93-.19-10.03-1.74l3.29-10.01Zm-276.22-6.45 25.67-1.45 10.43 27.34.6-.05c.3-2.34.6-4.82 1.24-7.13l6.1-21.2 22.45-1.26 11.31 48.92-20.23 2.71-4.18-27.44-.4.04c-.34 1.73-.66 3.55-1.23 5.24l-7.78 23.99-13.4 1.8-9.72-21.35a29.8 29.8 0 0 1-1.9-6.55l-.8.07c-.05 2.17-.1 4.4-.24 6.56l-1.53 23.17-24.37 3.27 7.96-56.68Zm219.36-13.01c-10.65.58-19.78 9.39-19.86 22.06-.08 12.84 8.8 19.26 19.36 17.82 10.12-1.36 18.19-9.53 18.42-21.45.22-11.75-7.7-19.01-17.92-18.44" class="cls-3"/><path d="m355.96 145.35 3.05-10.44 3.41 9.94 8.71-.72-6.72 6.47 3 8.99-7.75-4.52-9.09 8.68 3.44-11.78-10.04-5.75 11.98-.86Z" style="fill:#fff"/><g style="clip-path:url(#clippath)"><path d="M63.42 20.74h98.33v98.34H63.42V20.74Z" style="fill:url(#radial-gradient)"/></g><path d="M111.3 128.49c-4.99.22-10-.02-14.95-.72a46.22 46.22 0 0 0 29.94 6.3c7-.65 13.71-3.12 19.46-7.15l.43-.31a46.66 46.66 0 0 0 16.26-19.01l.71-1.58.12-.26.36-.79a41.76 41.76 0 0 0 1.58-4.61c-9.41 15.68-29.8 27.07-53.9 28.13" class="cls-1"/><path d="m151 69.12.83-9.11-4.96 6.29-6.82-4.9 2.65-8.72 7.41 1.55-5.76-6.94 2.45-7.82-6.15 3.34-6.68-8.07 2.32 10.57-7.07 3.8-5.62-9.27 5.84-7.39-9.97.52-6.73-11.31-.07 11.67-13.17.69 13.27 7.01-.15 11.94-13.63-.06-6.63-13.72-3.89 13.65L69 52.61l17.01 8.89-4.39 15.38L95.57 66.3l12.56 6.66-5.72 12.88-17.17.73 13.02 8.5-7.09 15.61 14.05-11.07 10.44 6.8-2.79-13.01 10.23-7.98 6.5 8.41-6.05 12.05 10.04-6.86 5.73 7.56-.48-11.14 7.72-5.29-8.13-1.74-.41-10.59 7.86-1.97 3.7 8.68.89-9.8 6.34-1.51-5.81-4.13Zm-13.17 8.6-4.86 9.46-9.84-2.06-11.87.37-2.72-12.59-5.68-12.01 9.98-7.69 6.88-8.41 9.4 4.92 8.54 1.92 2.19 9.85 3.72 8.93-5.73 7.31Z" class="cls-3"/><path d="M23.66 40.6c-4.44 11.3-2.14 38.36 7.99 57.11a149.26 149.26 0 0 0 13.53 22.46c-13.33-13.99-28.44-36.46-34.47-64.63 6.42-9.29 8.85-10.91 12.94-14.94Z" class="cls-6"/><path d="M92.52 17.32a42.47 42.47 0 0 1 6.64-2.04c-5.81-3.26-49.79-26.62-82.19-4.67C-10.38 29.13 2.84 67.57 5.76 75.05c7.96 21.73 23.86 43.79 44.76 62.13 20.28 17.79 44.2 28.73 66.2 34.08l.23-.65c-13.49-6.46-25.74-17.22-37.86-27.86C43.48 111.5 24.21 69.88 32.26 42.44a165.92 165.92 0 0 1 25.13 15.44c.39-1.7.85-3.36 1.39-5a168.76 168.76 0 0 0-26.91-16.02l-2.39-1.13-.91 2.48c-5.24 14.22-3.44 32.82 5.09 52.38 8.53 19.57 23.54 39.39 42.24 55.8a189.14 189.14 0 0 0 16.6 13 171.86 171.86 0 0 1-38.79-25.86C33.41 115.71 18 94.35 10.29 73.33 7.6 66.41-4.62 31.06 19.69 14.6c9.08-6.15 19.34-8.34 29.35-8.34 18.11 0 35.41 7.15 43.49 11.04Z" class="cls-1"/><path d="M84.96 20.96c-10.14-3.97-25.64-9.69-35.77-9.69s-19.49 2.56-26.93 7.59c-.52.35-1.07.75-1.7 1.25l-.44.35-.07.06c-.35.29-.7.58-1.07.92l-.18.16-.33.3a43.96 43.96 0 0 0-1.83 1.95l-.03.04c-.43.5-.85 1.02-1.24 1.55l-.15.21-.1.14c-4.98 7.01-6.15 15.77-5.66 23.97a44.28 44.28 0 0 1 3.94-5.24c4.01-4.57 9.66-10.66 15.38-13.35l3.84 1.81 1.24.58c6.54 3.1 18.37 9.61 26.62 14.72a57.35 57.35 0 0 1 24.45-27.32Z" class="cls-1"/><path d="M52.62 66.11a57.01 57.01 0 0 1 18.35-41.94 47.97 47.97 0 0 0 0 83.89 57 57 0 0 1-18.35-41.95Z" class="cls-6"/></g><path d="m262.88 0 5.47.71 2.31 10.96c.2.9.32 2.23.37 3.04l.15.02c.02-.9.15-2.02.34-2.93l2.22-10.12 6.05 1.11-5.85 21.07-5.44-.58L262.88 0ZM280.62 24.43V2.89l10.22 1.8v5.67l-4.89-.79v2.3l3.87.62v5.18l-3.87-.55v2.26l4.67.64v5.54l-10-1.12ZM292.11 25.73V4.91l6.55 1.15c1.49.26 3.02.77 4.3 2.86a9.81 9.81 0 0 1 1.3 5.22c0 1.8-.37 2.87-.76 3.52a2.76 2.76 0 0 1-1.92 1.36v.18c.27.25.54.6.73 1.05l3.1 6.96-5.81-.65-2.05-6.01c-.06-.23-.13-.33-.19-.68l-.09.05v6.38l-5.16-.58Zm5.16-10.66.6.09c.3.04.77.05 1.09-.31.17-.19.36-.57.36-1.22 0-.46-.08-.94-.28-1.28-.17-.31-.45-.63-.87-.7l-.9-.14v3.55ZM305.96 27.3l1.92-19.89 4.95.88 1.8 8.27c.19 1.09.27 2.09.29 2.37l.12.02c.02-.87.1-1.46.25-2.29l1.22-7.72 4.65.83 2.29 19.51-4.33-.49-.57-8.8c-.04-.69-.08-1.15-.08-1.98h-.08c-.06.49-.17 1.25-.25 1.63l-1.89 8.83-2.75-.31-1.75-8.92c-.14-.75-.24-1.41-.26-2.26l-.14-.02c0 .4 0 1.19-.02 1.59l-.65 9.3-4.74-.54ZM335.82 28.31c-.96 1.52-2.54 2.73-4.73 2.48s-3.87-1.85-4.89-3.66c-.94-1.66-1.68-4.15-1.68-7.28s.74-5.37 1.68-6.76c1.02-1.51 2.67-2.63 4.89-2.23s3.77 2.06 4.73 3.86c.87 1.63 1.56 4.04 1.56 7.01s-.68 5.2-1.56 6.58Zm-6.25-10.57a5.52 5.52 0 0 0-.67 2.78c0 1.09.15 2.23.57 2.98.35.62.83 1.19 1.47 1.27s1.16-.25 1.5-.77c.38-.57.65-1.53.65-2.72s-.1-2.37-.51-3.09c-.31-.56-.81-1.08-1.51-1.19-.75-.12-1.24.29-1.52.74ZM339.21 31.13V12.57l3.88.69 3.54 8.7c0-.85-.02-1.06-.03-2.43v-5.76l3.76.77v17.88l-3.58-.41-2.01-5.24a90.37 90.37 0 0 1-1.83-4.48l.02 3.02v6.23l-3.75-.43ZM353.66 32.83V20.64l-2.4-.16V14.7l8.8 1.34v5.58l-2.3-.46V33.3l-4.11-.45ZM364.08 33.77V16.63l3.57.66V28.7l2.73.37v5.53l-6.3-.82ZM384.78 36.33l-.02-11.39-1.44.03v-5.5l6.85 1.25v4.89l-2.06-.36.02 11.47-3.35-.38ZM392.32 37.28V25.99l-1.83-.04v-5.09l6.4.99v5.31l-1.37-.37v10.96l-3.2-.46ZM398.07 37.94l.03-15.9 5.59 1.03-.09 4.34-2.49-.36-.03 1.56 2 .31-.05 3.52-2-.27-.02 2.04 2.63.49v4.06l-5.58-.81ZM405.28 38.91l-.06-15.62 3.64.56c.7.13 1.81.68 2.42 2.1.34.79.62 1.94.62 3.64 0 1.27-.18 2.04-.36 2.51-.2.51-.52.9-.91 1.02v.13c.13.17.26.4.35.72l2.09 5.95-3.38-.43-1.34-5.22c-.03-.16.03 5.06.03 5.06l-3.09-.41Zm3-8.59.28.04c.14.02.36.01.51-.25.08-.14.17-.41.17-.87 0-.33-.04-.66-.13-.89-.08-.21-.21-.43-.41-.46l-.42-.07v2.49ZM413.18 24.61l2.69.43.7 3.02c.05.19.26.75.26.75.15-.47.19-.54.24-.76l.62-2.83 3.09.49-2.5 8.06-.03 6.62-3.05-.38.03-6.8-2.05-8.62ZM381.04 33.75c-.84 1.34-2.23 2.39-4.16 2.18s-3.4-1.63-4.29-3.21c-.82-1.46-1.47-3.65-1.47-6.4s.65-4.72 1.47-5.94c.9-1.32 2.34-2.31 4.29-1.96s3.31 1.81 4.16 3.39c.77 1.44 1.37 3.55 1.37 6.16s-.6 4.57-1.37 5.78Zm-5.5-9.28a4.84 4.84 0 0 0-.59 2.44c0 .96.13 1.96.5 2.62.31.55.73 1.04 1.3 1.12s1.02-.22 1.32-.67c.33-.5.57-1.34.57-2.39s-.09-2.08-.45-2.71c-.27-.49-.71-.95-1.32-1.04-.66-.1-1.09.26-1.33.65Z" class="cls-3"/></g></svg>