<svg xmlns="http://www.w3.org/2000/svg" viewBox="0 0 173.48 173.48"><defs><radialGradient id="d" cx="41.42" cy="81.18" r="10.83" fx="41.42" fy="81.18" gradientTransform="rotate(45 894.92 84.54) scale(8.09)" gradientUnits="userSpaceOnUse"><stop offset="0" stop-color="#fff"/><stop offset=".53" stop-color="#fdfdfd"/><stop offset=".71" stop-color="#f6f6f6"/><stop offset=".85" stop-color="#eaebeb"/><stop offset=".96" stop-color="#d9dbdc"/><stop offset="1" stop-color="#d1d3d4"/></radialGradient><style>.g{fill:#6660aa}.i{fill:#20c4f4}</style></defs><g style="isolation:isolate"><g id="b"><circle id="c" cx="86.74" cy="86.74" r="86.74" style="fill:url(#d)" transform="rotate(-45 86.74 86.74)"/><g id="e"><path d="M134.92 113.2v14.32H117.2V113.2H75.95V98.01l34.45-70.82h20.12L96.08 98h21.12V76.92h17.72v21.09h9.2v15.2h-9.2Z" class="g"/><g style="mix-blend-mode:multiply"><path d="M59.63 112.79v5.35H72.4v8.75H36.6v-14.1c0-7.9 5.63-12.16 11.51-12.16 5.89 0 11.52 4.25 11.52 12.16Zm-15.14.4v4.95h7.24v-4.95c0-2.4-1.76-3.8-3.62-3.8a3.61 3.61 0 0 0-3.62 3.8ZM72.4 98.04H36.6v-8.75h35.8v8.75ZM72.7 72.24c0 4.15-1.4 7.3-4.02 9.9-3.77 3.75-8.8 3.6-14.18 3.6s-10.41.15-14.18-3.6a13.22 13.22 0 0 1-4.03-9.9c0-6.75 3.78-12.2 11.67-13.5v8.9c-2.01.55-3.82 1.65-3.82 4.55 0 1.6.65 2.8 1.5 3.45 1.06.8 2.32 1.35 8.86 1.35s7.8-.55 8.85-1.35a4.24 4.24 0 0 0 1.51-3.45c0-2.9-1.81-4-3.82-4.55v-8.9c7.9 1.3 11.67 6.75 11.67 13.5ZM72.4 36.79l-14.68 8.2 3.47 3H72.4v8.65H36.6v-8.65h12.67L36.6 37.69v-10.7l14.48 12.15L72.4 26.59v10.2Z" class="i"/></g><path d="m36.63 134.17 2.88 7.99h.03l3-8h1.45L40.12 144h-1.24l-3.79-9.82h1.54ZM50.3 140.81v.35h-5.27c0 1.14 1.07 1.91 2.22 1.91.76 0 1.32-.39 1.8-.98l.95.72c-.71.9-1.65 1.34-2.92 1.34-1.95 0-3.38-1.35-3.38-3.45 0-1.94 1.4-3.45 3.4-3.45 1.94 0 3.2 1.29 3.2 3.56Zm-3.23-2.56a2.02 2.02 0 0 0-2.04 1.91h3.94c-.04-1.23-.73-1.91-1.9-1.91ZM51.8 137.41h1.25v1.02h.02a2.21 2.21 0 0 1 2.53-1.1l-.06 1.35c-.2-.06-.4-.1-.62-.1-1.24 0-1.87.72-1.87 2.05V144H51.8v-6.58ZM56.93 143.99v-6.58h1.16v1.03h.03c.26-.61 1.14-1.2 2.1-1.2.98 0 1.63.41 2.06 1.23a2.36 2.36 0 0 1 2.08-1.22c1.67 0 2.5.98 2.5 2.85V144H65.6v-3.73c0-1.3-.46-1.85-1.41-1.85-1.13 0-1.68.74-1.68 1.93V144h-1.25v-3.54c0-1.55-.46-2.04-1.39-2.04-1.02 0-1.7.86-1.7 2.11V144h-1.25ZM75.41 140.7a3.45 3.45 0 0 1-3.5 3.45 3.45 3.45 0 1 1 0-6.9c1.87 0 3.5 1.44 3.5 3.45Zm-3.5 2.29c1.31 0 2.17-.93 2.17-2.29 0-1.39-.89-2.29-2.18-2.29-1.27 0-2.15.95-2.15 2.3 0 1.36.88 2.28 2.17 2.28ZM78.22 137.41v1.02h.03c.35-.74 1.2-1.18 2.17-1.18 1.47 0 2.38.97 2.38 2.45V144h-1.25v-3.93c0-1-.55-1.65-1.5-1.65-1.15 0-1.83.82-1.83 2.14v3.44h-1.24v-6.58h1.24ZM83.73 138.5v-1.09h1.44v-1.84h1.25v1.84h1.79v1.09h-1.8v3.16c0 .84.18 1.33.95 1.33.28 0 .64-.04.89-.2v1.14c-.24.14-.78.22-1.14.22-1.93 0-1.94-1.24-1.94-2.14v-3.51h-1.44Z" class="g"/></g></g></g></svg>