<svg xmlns="http://www.w3.org/2000/svg" viewBox="0 0 173.48 173.48"><defs><radialGradient id="d" cx="41.42" cy="81.18" r="10.83" fx="41.42" fy="81.18" gradientTransform="rotate(45 894.92 84.54) scale(8.09)" gradientUnits="userSpaceOnUse"><stop offset="0" stop-color="#fff"/><stop offset=".53" stop-color="#fdfdfd"/><stop offset=".71" stop-color="#f6f6f6"/><stop offset=".85" stop-color="#eaebeb"/><stop offset=".96" stop-color="#d9dbdc"/><stop offset="1" stop-color="#d1d3d4"/></radialGradient><style>.g{fill:#6660aa}.i{fill:#20c4f4}</style></defs><g style="isolation:isolate"><g id="b"><circle id="c" cx="86.74" cy="86.74" r="86.74" style="fill:url(#d)" transform="rotate(-45 86.74 86.74)"/><g id="e"><g style="mix-blend-mode:multiply"><path d="M59.63 112.79v5.35H72.4v8.75H36.6v-14.1c0-7.9 5.63-12.16 11.51-12.16 5.89 0 11.52 4.25 11.52 12.16Zm-15.14.4v4.95h7.24v-4.95c0-2.4-1.76-3.8-3.62-3.8a3.61 3.61 0 0 0-3.62 3.8ZM72.4 98.04H36.6v-8.75h35.8v8.75ZM72.7 72.24c0 4.15-1.4 7.3-4.02 9.9-3.77 3.75-8.8 3.6-14.18 3.6s-10.41.15-14.18-3.6a13.22 13.22 0 0 1-4.03-9.9c0-6.75 3.78-12.2 11.67-13.5v8.9c-2.01.55-3.82 1.65-3.82 4.55 0 1.6.65 2.8 1.5 3.45 1.06.8 2.32 1.35 8.86 1.35s7.8-.55 8.85-1.35a4.24 4.24 0 0 0 1.51-3.45c0-2.9-1.81-4-3.82-4.55v-8.9c7.9 1.3 11.67 6.75 11.67 13.5ZM72.4 36.79l-14.68 8.2 3.47 3H72.4v8.65H36.6v-8.65h12.67L36.6 37.69v-10.7l14.48 12.15L72.4 26.59v10.2Z" class="i"/></g><path d="M109.93 128.6c-16.17 0-31.2-9.07-31.65-29.73l-.01-9.18H96.5l.01 9.09c.4 8.8 6.35 13.38 13.42 13.38 7.86 0 13.46-4.92 13.46-13.91 0-8.29-5.04-13.77-14.02-13.77h-2.66V68.61h2.66c8.84 0 12.62-5.48 12.62-12.5 0-8.43-5.6-12.78-12.2-12.78-6.87 0-12.87 5.85-13.29 13.44H78.27c.42-17.84 14.7-29.88 31.52-29.88 17.67 0 30.43 11.8 30.43 28.66 0 10.81-4.9 17-11.5 20.5 7.15 3.8 12.9 10.68 12.9 22.76 0 19.95-14.58 29.78-31.69 29.78ZM36.83 134.15l2.88 8h.03l3-8h1.45l-3.87 9.82h-1.25l-3.78-9.82h1.54ZM50.5 140.8v.35h-5.27c0 1.13 1.07 1.91 2.22 1.91.76 0 1.32-.39 1.8-.99l.94.73c-.7.9-1.65 1.34-2.9 1.34-1.96 0-3.4-1.36-3.4-3.45 0-1.94 1.4-3.46 3.4-3.46 1.95 0 3.2 1.3 3.2 3.57Zm-3.23-2.57a2.02 2.02 0 0 0-2.04 1.92h3.94c-.04-1.24-.74-1.92-1.9-1.92ZM52 137.4h1.24v1.01h.03a2.21 2.21 0 0 1 2.52-1.1l-.05 1.35c-.2-.05-.4-.1-.62-.1-1.24 0-1.88.73-1.88 2.06v3.35H52v-6.57ZM57.12 143.97v-6.57h1.17v1.03h.03c.26-.61 1.14-1.2 2.1-1.2.98 0 1.63.4 2.06 1.22a2.36 2.36 0 0 1 2.08-1.22c1.66 0 2.5.99 2.5 2.86v3.88H65.8v-3.73c0-1.29-.46-1.84-1.42-1.84-1.12 0-1.68.73-1.68 1.93v3.64h-1.24v-3.53c0-1.56-.46-2.04-1.4-2.04-1.02 0-1.7.86-1.7 2.1v3.47h-1.25ZM75.6 140.69a3.45 3.45 0 0 1-3.49 3.45 3.45 3.45 0 1 1 0-6.9c1.86 0 3.5 1.44 3.5 3.45Zm-3.49 2.29c1.3 0 2.17-.93 2.17-2.3 0-1.38-.89-2.28-2.18-2.28-1.28 0-2.15.94-2.15 2.29 0 1.37.87 2.29 2.16 2.29ZM78.42 137.4v1.01h.03c.35-.73 1.2-1.18 2.16-1.18 1.47 0 2.39.97 2.39 2.46v4.28h-1.25v-3.92c0-1.01-.55-1.65-1.5-1.65-1.15 0-1.83.82-1.83 2.14v3.43h-1.25v-6.57h1.25ZM83.93 138.48v-1.08h1.44v-1.84h1.25v1.84h1.79v1.08h-1.8v3.16c0 .85.17 1.34.95 1.34.28 0 .64-.05.89-.2v1.14c-.24.14-.78.22-1.14.22-1.93 0-1.94-1.25-1.94-2.15v-3.5h-1.44Z" class="g"/></g></g></g></svg>