<svg xmlns="http://www.w3.org/2000/svg" id="b" viewBox="0 0 101.83 73.99"><defs><style>.d,.e{fill:#ec008c;stroke-width:0}.e{fill:#2a3795}</style></defs><g id="c"><path d="M21.2 19.36c-.45.99-2.25 4.73-6.67 4.73-4.6 0-7.45-4.08-7.45-8.31 0-3.97 2.66-8.17 7.41-8.17 3.82 0 5.92 2.8 6.7 4.88h7.42A14.2 14.2 0 0 0 14.53 1.34C5.47 1.34 0 8.67 0 15.81c0 7.56 5.92 14.55 14.6 14.55 6.7 0 12.4-4.38 14.01-11H21.2ZM37.75 1.87 26.77 29.83h7.68l1.27-4.04h9.7l1.31 4.04h7.76L43.84 1.87h-6.1Zm-.27 18.25 3-9.75 3.1 9.75h-6.1ZM66.4 13.5c-4.78-2.18-5.5-2.51-5.5-3.75 0-1.27 1.15-2.1 2.34-2.1 2.08 0 2.3 1.7 2.44 2.61h6.73c-.08-4.74-2.9-7.01-5.83-7.9V0h-6.8v2.57c-3.1 1.13-5.64 3.7-5.64 7.62 0 5.04 4.64 6.93 6.5 7.7 4.1 1.73 5.22 2.17 5.22 3.58 0 1.24-.97 2.58-2.59 2.58-.86 0-2.77-.54-2.77-3.66h-6.76c-.14 4.25 1.66 7.76 6.04 8.96v2.35h6.8v-2.29c4.51-1.13 6.04-4.68 6.04-8.23 0-3.12-1.26-5.44-6.22-7.69M90.6 12.37h-9.07V1.87h-7.08v27.96h7.08V18.65h9.07v11.18h7.07V1.87H90.6v10.5z" class="e"/><path d="m25.46 35.63-.05-.04-.19-.14c-.7-.53-1.42-.96-2.18-1.33l-.09-.04-.15-.07a1.98 1.98 0 0 0-.12-.05c-2.46-1.09-5.1-1.3-8.58-1.3H2.73v41.3h6.2V59.6h5.17c4.77 0 7.96-.44 11.12-2.79.3-.22.6-.47.91-.77l.04-.04.13-.12c2.35-2.34 3.81-6.08 3.81-9.75 0-4.15-1.82-8.27-4.65-10.5m-3.83 16.2c-1.75 1.3-3.57 1.73-7.48 1.73H8.92V38.7h5.23c3.96 0 5.71.4 7.5 1.74 1.3.94 2.27 3.4 2.27 5.74 0 .28-.01.58-.05.88-.2 2-1.12 3.96-2.24 4.77M101.78 44.89l-.01-.1a6.53 6.53 0 0 0-.05-.46l-.03-.19a9.39 9.39 0 0 0-.05-.38l-.05-.27-.04-.2-.06-.3-.07-.27-.05-.22a6.03 6.03 0 0 0-.07-.27l-.13-.43-.04-.13-.05-.18a12.84 12.84 0 0 0-3.17-5.23 13.3 13.3 0 0 0-7.77-3.4c-.8-.1-1.66-.16-2.64-.19l-1.68-.02H74.45v41.3h6.2V59.6h5.17c.6 0 1.15 0 1.65-.02 3.59-.1 6.57-.62 9.47-2.77 2.55-1.87 4.4-5.36 4.8-9.1a14.54 14.54 0 0 0 .03-2.82m-6.13 1.29c0 .29-.01.58-.04.87v.02c-.22 2-1.14 3.96-2.24 4.76-1.76 1.3-3.57 1.73-7.48 1.73h-5.24V38.7h5.24c3.95 0 5.7.4 7.5 1.74 1.29.94 2.26 3.4 2.26 5.74M51.73 31.96c-11.71 0-20.89 9.23-20.89 21.02s9.18 21 20.9 21 20.89-9.22 20.89-21-9.18-21.02-20.9-21.02m14.84 21.01c0 8.6-6.38 15.1-14.84 15.1-8.31 0-14.83-6.64-14.83-15.1 0-8.6 6.38-15.08 14.83-15.08s14.84 6.48 14.84 15.08" class="d"/><path d="M64.92 54.68a1.4 1.4 0 1 1-2.8 0 1.4 1.4 0 0 1 2.8 0M63.86 48.65s-.46-2.12-1.64-3.38c-.6-.75-1.36-1.43-2.02-2.06a15.76 15.76 0 0 0-8.36-4.13l-.1.33.5.29c1.47.88 5.71 3.76 7.51 8.51.59 1.5 1.85 4.22 3.22 3.86.13-.04.25-.09.35-.15 1.37-.75.54-3.27.54-3.27" class="d"/></g></svg>