<svg xmlns="http://www.w3.org/2000/svg" id="Layer_1" data-name="Layer 1" viewBox="0 0 581.9 321"><defs><style>.cls-1,.cls-2{fill:#ff6c2c;stroke-width:0}.cls-2{fill:#404140}</style></defs><path d="M95.1 0 84.4 24.7H58.7l19.8 16.4-6.6 27.2 23.2-17 23.1 17-6.5-27.2 19.8-16.4h-25.7L95.1 0zM193 0l-10.7 24.7h-25.7l19.8 16.4-6.5 27.2 23.1-17 23.2 17-6.6-27.2 19.8-16.4h-25.7L193 0zM290.9 0l-10.7 24.7h-25.7l19.8 16.4-6.5 27.2 23.1-17 23.2 17-6.6-27.2 19.9-16.4h-25.7L290.9 0zM388.9 0l-10.8 24.7h-25.6l19.8 16.4-6.6 27.2 23.2-17 23.1 17-6.5-27.2 19.8-16.4h-25.7L388.9 0zM486.8 0l-10.7 24.7h-25.7l19.8 16.4-6.6 27.2 23.2-17 23.1 17-6.5-27.2 19.8-16.4h-25.7L486.8 0z" class="cls-1"/><path d="M133.7 91.9v90.2H45.9V91.9H0v224.8h45.9v-94.8h87.8v94.8h46V91.9h-46zM207.1 91.9H253v224.8h-45.9zM267.8 91.9v39.8h49.3v185h46v-185h64.3l6.7-39.8H267.8z" class="cls-2"/><path d="M563.1 91.9v38.3h-84.8l-8 44.4c6.8-4.3 15.7-9.4 35.5-9.4 51.5 0 76.1 42.2 76.1 75.3 0 36.8-28.7 80.5-84.8 80.5-44.1 0-78-27-84.2-65.9h46.2c4.9 15.5 20.3 26.1 36.7 26.1 21.6 0 40.1-17.9 40.1-39.5s-16-39.5-40.4-39.5c-10.8 0-25.3 3.6-35.4 21.3l-37.3-9.1 20-122.4 120.3-.1Z" class="cls-1"/></svg>