<svg xmlns="http://www.w3.org/2000/svg" id="Layer_2" viewBox="0 0 1800 808.8"><defs><style>.cls-1{fill:#f8983e}.cls-1,.cls-2,.cls-3,.cls-4{stroke-width:0}.cls-2{fill:#515151}.cls-3{fill:#fff}.cls-4{fill:#515151}</style></defs><g id="Layer_1-2"><path d="M1377 639a186 186 0 0 1-18-54c-12.5-74.7 20.3-170 99-216 95.5-55.8 217.6-15 279 63a224 224 0 0 1 36 207c-26.3 79.1-89.7 116.2-108 126-7.1 3.8-82 42.4-171 18-19-5.2-67.7-19.3-99-63-7.8-10.8-30.1-42.1-18-63 8.4-14.5 30.5-19 45-18 13 .9 22.5 6.3 27 9 12.2 7.2 17.3 15.3 27 27 11 13.2 22.9 27.5 36 36 18.5 12 37.1 11 72 9 36.2-2 48.8-12.2 72-27 25.5-16.3 37.3-39 45-54 7.6-14.8 13.7-35 9-72-3-24-4-31.1-18-54-17-27.6-26-53.8-36-63-14.3-13.3-22.3-20.8-36-27-19-8.6-35.4-8.8-54-9a162 162 0 0 0-63 9c-14.5 5.4-37.9 14.2-54 36-19.4 26.3-18.7 58.5-18 90 .9 41.7 10.8 56.7 0 72-11.5 16.2-36.2 18.4-54 18ZM1278 792l-93.8.5L961.7 422l61.8-37.1L1278 792zM585 792v-72h198v72zM585 414v-72h198v72zM594 603v-72h198v72zM184.5 553.3l59.7-40.3 161.5 239.2-59.7 40.3z" class="cls-3"/><path d="M107.5 646.5 55.2 597l240.9-254.4L369 369 107.5 646.5zM1197 351h72v432h-72zM909 351h72v432h-72zM504 351h72v432h-72z" class="cls-3"/><path d="M18 351h72v432H18z" class="cls-3"/><circle cx="1495.7" cy="133.5" r="121.5" class="cls-3"/><circle cx="1197.8" cy="133.5" r="121.5" class="cls-3"/><circle cx="899.7" cy="133.5" r="121.5" class="cls-3"/><circle cx="601.9" cy="133.5" r="121.5" class="cls-3"/><path d="M601.9 0c-76.4 0-138.3 59.7-138.3 133.5S525.5 267 602 267 740 207.3 740 133.5 678.2 0 602 0Zm28.7 188.8-6.8-22.2H580l-6.8 22.2h-23.5l39.6-113.4h25l40 113.4h-23.6Z" class="cls-4"/><circle cx="303.7" cy="133.5" r="121.5" class="cls-3"/><path d="M303.7 0c-76.4 0-138.2 59.7-138.2 133.5S227.3 267 303.7 267 442 207.3 442 133.5 380 0 303.7 0ZM335 181.8c-11.7 6.7-23.8 6.7-37.7 7h-37.4V75.4h42c10.3.3 22.6.3 34.7 8.9 19.5 13.3 22.6 36.2 22.6 48.6 0 19.7-6.8 39.3-24.1 49ZM899.7 0c-76.4 0-138.3 59.7-138.3 133.5S823.3 267 899.7 267s138.2-59.7 138.2-133.5S976.1 0 899.7 0Zm10.8 188.8H889V75.4h21.6v113.4ZM1495.7 0c-76.4 0-138.3 59.7-138.3 133.5S1419.3 267 1495.7 267s138.2-59.7 138.2-133.5S1572.1 0 1495.7 0Zm10.8 144v44.8h-21.7V144l-39.2-68.5h24.7l25.4 47 25.6-47h24.5l-39.3 68.5ZM1197.8 0c-76.4 0-138.2 59.7-138.2 133.5S1121.5 267 1197.8 267s138.3-59.7 138.3-133.5S1274.2 0 1197.8 0Zm39 188.8h-68.7V75.4h22v94.3h46.4v19h.3Z" class="cls-4"/><path d="M318 97.8c-6.3-2.7-10-2.7-24.5-3h-11.4v74.9h9.2c16.7 0 22.3-.8 27.3-2.5 8.3-3.3 17.3-10.2 17.3-33.7 0-10.8-1.9-28.2-18-35.7Z" class="cls-2"/><path d="M1181.4 634.2c-22-40.6-33-61.6-70.5-126.5L1009.2 337h-115v463.4h112.2L1003 509c31.9 61.6 39.9 76 82.3 145l87.8 146.2h115V337h-112l5.4 297.2ZM959.7 771a16.7 16.7 0 0 1-23.5 0c-3.1-3.1-5-7.4-5-11.6s1.9-8.5 5-11.6c6.2-6 17.3-6 23.5 0 3 2.8 4.6 7 4.6 11.6 0 4.2-1.5 8.5-4.6 11.6Zm-11.8-71.2c-9 0-16.7-7.4-16.7-16.4S938.7 667 948 667s16.7 7.4 16.7 16.4a17 17 0 0 1-16.7 16.4Zm0-76c-9 0-16.7-7.4-16.7-16.4S938.7 591 948 591s16.7 7.4 16.7 16.4a17 17 0 0 1-16.7 16.4Zm0-76c-9 0-16.7-7.4-16.7-16.4S938.7 515 948 515s16.7 7.4 16.7 16.4a17 17 0 0 1-16.7 16.4Zm0-76c-9 0-16.7-7.4-16.7-16.4S938.7 439 948 439s16.7 7.4 16.7 16.4a17 17 0 0 1-16.7 16.4Zm11.8-80.8a16.7 16.7 0 0 1-23.5 0c-3.1-3.1-5-7-5-11.6 0-4.2 1.9-8.5 5-11.6a17.1 17.1 0 0 1 23.5 0c3 3.1 4.6 7 4.6 11.6s-1.5 8.8-4.6 11.6Zm49.8 43a16.7 16.7 0 0 1-22.6-5.7 16.6 16.6 0 0 1 5.6-22.6c7.7-4.5 18-2.3 22.6 5.6 4.9 8 2.4 18.1-5.6 22.6Zm36.8 60.1a19.8 19.8 0 0 1-8.7 2.3c-5.6 0-11.1-2.9-14.2-8a16.2 16.2 0 0 1 5.6-22.3c7.7-4.8 17.9-2.2 22.8 5.7a16.3 16.3 0 0 1-5.5 22.3ZM1083 554a18.8 18.8 0 0 1-8.7 2.3 16.4 16.4 0 0 1-8.3-30.5 16.5 16.5 0 0 1 17 28.2Zm36.5 60.2a16.7 16.7 0 0 1-22.6-5.6c-4.6-8-2.2-17.9 5.6-22.7 7.7-4.5 17.9-2 22.5 5.7a16 16 0 0 1-5.5 22.6Zm36.8 59.8a18.8 18.8 0 0 1-8.7 2.3 16.2 16.2 0 0 1-8.7-30.2c7.8-4.8 18-2.3 23 5.6a16.2 16.2 0 0 1-5.6 22.3Zm65.8-306c6.2-5.8 17.4-5.8 23.6 0 3 3.2 5 7.4 5 11.7A16.6 16.6 0 0 1 1234 396a16.7 16.7 0 0 1-16.7-16.3c.3-4.3 2.2-8.5 5-11.6Zm12.1 71.3c9 0 16.7 7.3 16.7 16.4s-7.4 16.4-16.7 16.4-16.7-7.4-16.7-16.4 7.4-16.4 16.7-16.4Zm0 75.7c9 0 16.7 7.3 16.7 16.4s-7.4 16.4-16.7 16.4-16.7-7.4-16.7-16.4 7.4-16.4 16.7-16.4Zm0 76c9 0 16.7 7.3 16.7 16.4s-7.4 16.4-16.7 16.4-16.7-7.4-16.7-16.4 7.4-16.4 16.7-16.4Zm0 76c9 0 16.7 7.3 16.7 16.4s-7.4 16.4-16.7 16.4-16.7-7.4-16.7-16.4 7.4-16.4 16.7-16.4Zm-12 80.8c6.1-6 17.3-6 23.5 0 3 3.1 5 7.3 5 11.6a16.6 16.6 0 0 1-16.8 16.4 16.7 16.7 0 0 1-16.7-16.4c.3-4.5 2.2-8.8 5-11.6Zm-23.9-36.2c4.7 8 2.2 17.8-5.5 22.6a18.8 18.8 0 0 1-8.7 2.3 16.6 16.6 0 0 1-8.7-30.5 17 17 0 0 1 23 5.6ZM1647 340.7a265.9 265.9 0 0 0-85.8-13.6c-150.9 0-231 116.5-231 239.6 0 131.4 84.4 242 233.2 242 48.6 0 101.8-10.7 147.5-47.6 51.7-40.5 89.1-111.5 89.1-190-.3-30.8-9.6-182-153-230.4Zm77 143.3c8.6-2.7 18.2 1.7 21 10 3 8.3-1.6 17.5-10.3 20.3a16.8 16.8 0 0 1-21-10c-3-8.6 1.6-17.8 10.2-20.3Zm-112-102.8c3.7-8 13.3-12 22-8.4 8.3 3.6 12.3 13 8.6 21.1-2.8 6.1-9 9.7-15.2 9.7a18 18 0 0 1-6.5-1.4c-8.6-3.6-12.6-13-9-21Zm-63.7-21.4c9-.8 17.3 5.5 17.9 14.4 1 8.9-5.9 16.7-14.9 17.5h-1.5c-8.4 0-15.8-6.1-16.4-14.4-1-8.9 5.9-16.7 14.8-17.5Zm-81.4 28c7.7-5 18-2.8 22.9 4.4 5 7.5 3 17.2-4.6 22.2-2.8 2-6 2.8-9.3 2.8-5.3 0-10.5-2.5-14-7.2-4.9-7.2-2.7-17.2 5-22.2Zm-71.1 123.7c9 1.7 14.8 10 13 18.9-1.6 7.7-8.4 13-16.1 13-1 0-2.2 0-3.1-.3a16 16 0 0 1-13-18.9 15.8 15.8 0 0 1 19.2-12.7Zm-4.3 108.2c-7.8 0-14.9-5.6-16.4-13.6-1.6-8.9 4.6-17 13.6-18.3a16 16 0 1 1 5.3 31.6c-1 .3-1.6.3-2.5.3Zm34.9 69.8a17.8 17.8 0 0 1-8.3 2.3c-5.6 0-11.2-2.8-14.3-8a15.8 15.8 0 0 1 5.9-22c7.7-4.4 18-2 22.6 5.8 4.6 7.5 1.8 17.2-5.9 22Zm9-224.9a16 16 0 0 1-14 7.5c-3 0-6.1-.8-9-2.5a16 16 0 0 1-5.2-22.2 17 17 0 0 1 23-5 16 16 0 0 1 5.2 22.2Zm48.8 276.8c-3 4.5-8.3 6.7-13.6 6.7a17 17 0 0 1-9.6-3 15.6 15.6 0 0 1-3.7-22.5 16.9 16.9 0 0 1 23.2-3.6c7.1 5.2 9 15.2 3.7 22.4Zm59.4 35.2-2.1-.2c-9-1.4-15.5-9.5-14.3-18 1.3-9 9.6-15 18.6-14 9 1.2 15.1 9.2 14 18a16 16 0 0 1-16.2 14.2Zm83.5-9.7a16.3 16.3 0 0 1-21.3-9.1c-3.4-8.3 1-17.5 9.6-20.8 8.6-3.3 18.2.8 21.6 9.1a16.5 16.5 0 0 1-9.9 20.8Zm-64-53.8c-55 0-117.5-40-117.5-148 0-82.4 45.1-143.2 116.3-143.2 31.8 0 62.4 12.8 82.2 33.6 26.6 27.7 40 76 37.8 123.7-3.1 95.1-63.1 134-118.8 134Zm135.2 6.7c-3.1 3.3-7.8 5-12.1 5-4 0-8-1.4-11.1-4.2a15.7 15.7 0 0 1-1-22.7c6.2-6.4 16.7-7 23.6-.8a16 16 0 0 1 .6 22.7Zm3-274.8c-3 2.7-7 3.8-10.8 3.8-4.6 0-9.2-1.9-12.3-5.5-6.2-6.7-5.3-17 1.5-22.8 6.8-5.8 17.3-5 23.5 1.7 5.6 6.7 5 17-1.8 22.7Zm41.5 204.3a16.3 16.3 0 0 1-15.5 10.3c-1.8 0-4-.3-5.8-.8a16 16 0 0 1-9.6-20.8c3-8.3 12.6-12.5 21.3-9.5 8.4 3.1 12.7 12.5 9.6 20.8Zm-1.9-64.9c-9.2 0-16.7-7.2-16.7-16s7.5-16.1 16.7-16.1 16.7 7.2 16.7 16-7.4 16.1-16.7 16.1Z" class="cls-1"/><path d="M585.8 148.1h32.1l-16-52.2-16.1 52.2z" class="cls-2"/><path d="M427.7 337H287L111.6 526V337H0v463.4h111.7v-136l71.7-74.2L309 800h132.3L262 508.8 427.7 337Zm-118.1 27.4c6.2-6.5 16.7-7 23.5-.8a16.2 16.2 0 0 1-11.1 28.2c-4 0-8-1.4-11.5-4.2a16.5 16.5 0 0 1-.9-23.2ZM268.8 408c6.2-6.6 16.7-7.1 23.5-.9a16.2 16.2 0 0 1 1 23.2 16.4 16.4 0 0 1-23.2 1.1c-7.2-6.5-7.8-16.7-1.3-23.5Zm-41.2 43.7c6.5-6.7 16.7-7 23.6-.8a16.2 16.2 0 0 1-11.2 28.3c-4 0-8-1.5-11.4-4.3a16.2 16.2 0 0 1-1-23.2Zm-161 319.8a16.7 16.7 0 0 1-23.6 0 16 16 0 0 1-4.6-11.5c0-4.3 1.5-8.5 4.6-11.6a17.1 17.1 0 0 1 23.5 0c3.1 3 4.7 7 4.7 11.6s-1.6 8.4-4.7 11.5ZM55 715c-9.3 0-16.7-7.3-16.7-16.4s7.4-16.3 16.7-16.3 16.4 7.3 16.4 16.4S64 715 55 715Zm0-65.2c-9.3 0-16.7-7.4-16.7-16.4S45.8 617 55 617s16.4 7.3 16.4 16.4S64 649.8 55 649.8Zm0-65.6c-9.3 0-16.7-7.3-16.7-16.4s7.4-16.3 16.7-16.3 16.4 7.3 16.4 16.4S64 584.1 55 584.1Zm0-65.5c-9.3 0-16.7-7.3-16.7-16.4S45.8 486 55 486s16.4 7.4 16.4 16.4S64 518.7 55 518.7Zm0-65.3c-9.3 0-16.7-7.3-16.7-16.3s7.4-16.4 16.7-16.4S71.5 428 71.5 437 64 453.4 55 453.4Zm11.4-67.8a16.7 16.7 0 0 1-23.5 0 16 16 0 0 1-4.6-11.5c0-4.3 1.5-8.5 4.6-11.6 6.2-6 17.3-6.2 23.5 0 3.1 3 4.7 7.3 4.7 11.6.3 4.5-1.6 8.7-4.7 11.5ZM128.7 605a17 17 0 0 1-23.5.8 16.2 16.2 0 0 1-1-23.2c6.2-6.4 16.7-7 23.6-.8a16.2 16.2 0 0 1 .9 23.2Zm41.1-43.8c-3 3.7-7.7 5.4-12 5.4-4 0-8.1-1.5-11.2-4.6a16.2 16.2 0 0 1-1-23.1c6.3-6.5 16.8-7.1 23.6-.9 6.5 6.2 6.8 16.7.6 23.2Zm28.8-38.4c-4 0-8-1.4-11.2-4.3a16.2 16.2 0 0 1-.9-23.1c6.2-6.5 16.7-7.1 23.5-.9a16.2 16.2 0 0 1 1 23.2c-3.5 3.4-7.8 5-12.4 5Zm40.8 49.4a16.7 16.7 0 0 1-22.6-5.6 16 16 0 0 1 5.9-22.4c7.7-4.8 18-2.2 22.6 5.7a16.7 16.7 0 0 1-6 22.3Zm107.3 176c7.7-4.8 18-2.3 22.9 5.7a16.4 16.4 0 0 1-14.2 24.8c-5.6 0-11.2-2.8-14.3-7.9-4.6-8-2.1-17.8 5.6-22.6Zm-31-50.8c7.8-4.8 18-2.3 23 5.6a16.4 16.4 0 0 1-14.3 24.9c-5.5 0-11.1-2.9-14.2-8-5-7.9-2.5-18 5.6-22.5ZM284.6 646c8-4.8 18-2 23 5.7a16.4 16.4 0 0 1-14.3 24.8c-5.6 0-11.1-2.8-14.2-7.9-4.7-7.9-2.2-17.8 5.5-22.6Zm-8.3-45.5a16.6 16.6 0 0 1-5.6 22.6 17.6 17.6 0 0 1-8.3 2.3c-6 0-11.2-2.8-14.3-8a16.2 16.2 0 0 1 5.6-22.2c7.7-4.8 18-2.3 22.6 5.3ZM484.3 800h345.2v-90.9H601.2v-96.6H816v-87.9H601.2V427h228.3V337H484.3v463Zm260.1-56.7c6.2-6.2 17.4-6 23.5 0 3.1 3.1 4.7 7.4 4.7 11.6a16.1 16.1 0 0 1-16.4 16.4 16.7 16.7 0 0 1-16.7-16.4c0-4.3 1.9-8.5 5-11.6Zm-70.8 0c6.2-6.2 17.3-6 23.5 0 3.1 3.1 4.7 7.4 4.7 11.6a16.1 16.1 0 0 1-16.4 16.4 16.7 16.7 0 0 1-16.7-16.4c0-4.3 1.8-8.5 5-11.6Zm70.8-186.2c6.2-6.2 17.4-5.9 23.5 0 3.1 3.1 4.7 7.4 4.7 11.6a16.1 16.1 0 0 1-16.4 16.4 16.7 16.7 0 0 1-16.7-16.4c0-4.2 1.9-8.5 5-11.6Zm-70.8 0c6.2-6.2 17.3-5.9 23.5 0 3.1 3.1 4.7 7.4 4.7 11.6a16.1 16.1 0 0 1-16.4 16.4 16.7 16.7 0 0 1-16.7-16.4c0-4.2 1.8-8.5 5-11.6Zm70.8-186.4c6.2-6.2 17.4-6 23.5 0 3.1 3 4.7 7.3 4.7 11.6a16.1 16.1 0 0 1-16.4 16.4 16.7 16.7 0 0 1-16.7-16.4c0-4.6 1.9-8.8 5-11.6Zm-70.8 0c6.2-6.2 17.3-6 23.5 0 3.1 3 4.7 7.3 4.7 11.6a16.1 16.1 0 0 1-16.4 16.4 16.7 16.7 0 0 1-16.7-16.4c0-4.6 1.8-8.8 5-11.6Zm-70.8 0c6.2-6.2 17.3-6 23.5 0 3 3 4.6 7.3 4.6 11.6a16.1 16.1 0 0 1-16.4 16.4 16.7 16.7 0 0 1-16.6-16.4c0-4.6 1.8-8.8 4.9-11.6Zm0 186.4c6.2-6.2 17.3-5.9 23.5 0 3 3.1 4.6 7.4 4.6 11.6a16.1 16.1 0 0 1-16.4 16.4 16.7 16.7 0 0 1-16.6-16.4c0-4.2 1.8-8.5 4.9-11.6Zm0 186.2c6.2-6.2 17.3-6 23.5 0 3 3.1 4.6 7.4 4.6 11.6a16.1 16.1 0 0 1-16.4 16.4 16.7 16.7 0 0 1-16.6-16.4c0-4.3 1.8-8.5 4.9-11.6ZM531 370.7c6.5-6.2 17.4-6 23.6 0 3 3 4.6 7.3 4.6 11.6a16.1 16.1 0 0 1-16.4 16.4 16.7 16.7 0 0 1-16.7-16.4c0-4.6 1.9-8.8 5-11.6Zm0 62.1c6.5-6.2 17.4-6 23.6 0 3 3.1 4.6 7.4 4.6 11.6a16.1 16.1 0 0 1-16.4 16.4 16.7 16.7 0 0 1-16.7-16.4c0-4.5 1.9-8.8 5-11.6Zm0 61.9c6.5-6.2 17.4-6 23.6 0 3 3.1 4.6 7.3 4.6 11.6a16.1 16.1 0 0 1-16.4 16.4 16.7 16.7 0 0 1-16.7-16.4c0-4.3 1.9-8.5 5-11.6Zm0 62.4c6.5-6.2 17.4-6 23.6 0 3 3.1 4.6 7.4 4.6 11.6a16.1 16.1 0 0 1-16.4 16.4 16.7 16.7 0 0 1-16.7-16.4c0-4.2 1.9-8.5 5-11.6Zm0 61.9c6.5-6.2 17.4-6 23.6 0 3 3.1 4.6 7.3 4.6 11.6a16.1 16.1 0 0 1-16.4 16.4 16.7 16.7 0 0 1-16.7-16.4c0-4.3 1.9-8.5 5-11.6Zm0 62.1c6.5-6.2 17.4-5.9 23.6 0 3 3.1 4.6 7.4 4.6 11.6a16.1 16.1 0 0 1-16.4 16.4 16.7 16.7 0 0 1-16.7-16.4c0-4.2 1.9-8.5 5-11.6Zm0 62.2c6.5-6.2 17.4-6 23.6 0 3 3.1 4.6 7.3 4.6 11.6a16.1 16.1 0 0 1-16.4 16.4 16.7 16.7 0 0 1-16.7-16.4c0-4.3 1.9-8.5 5-11.6Z" class="cls-1"/></g></svg>