<svg xmlns="http://www.w3.org/2000/svg" id="Layer_2" viewBox="0 0 5663 2709.2"><defs><style>.cls-1{fill:#4aa84f;stroke-width:0}</style></defs><g id="Layer_1-2"><path d="M0 1071v1614h1067s-162-58-338-293H324V1071H0Z" class="cls-1"/><path d="M1486 1042c-470 0-851 373-851 834s381 833 851 833 851-373 851-833-381-834-851-834Zm0 1384c-295 0-534-246-534-550s239-551 534-551 533 247 533 551-239 550-533 550ZM4812 1042c-470 0-851 373-851 834s381 833 851 833 851-373 851-833-381-834-851-834Zm0 1384c-295 0-533-246-533-550s238-551 533-551 534 247 534 551-239 550-534 550Z" class="cls-1"/><path d="M2564 2685h324V1345h527v1340h313V1345h336s42-124 312-275H1918s176 82 311 275h337l-2 1340ZM4036 770l80 108 86 118h146l-298-226h-14z" class="cls-1"/><path d="m3762 522-29 33-29 34-30 33-111 127h123l-183 243h646l-35-46-94-124-54-73h123l-200-227h99l-162-184-153 173-9 11h98z" class="cls-1"/><path d="M3637 547h-60l23-25 32-35-607-425s-79-62-206-62c-118 0-209 61-209 61l-224 154 26 38 13 20 103-65 121-12 35 82 96-82 60 105 59-108 80 67 52-65 72 20 536 378 26-27 18-20-46 1ZM1429 966l45-1 36 1 85-103h-96l48-52 90-93-424 282a922 922 0 0 1 216-34M2156 471h-89l32-48 19-26-246 164 25 38 25 38 234-166z" class="cls-1"/><path d="m2051 863-37 61 55 68 3 4h556l-155-260-22-37h114l-154-221-25-38h88l-80-117-27-38-26-37-42-61-112 164-62 89h88l-3 5-22 33-153 221h113l-23 37-71 121M1687 684h24l-21 21-82 86-39 41h88l-17 22-94 114c59 5 115 14 169 28h317l-35-43-20-25-60-74-18-22h88l-120-127-18-19-2-2h70l-21-30-25-39-25-38-67-100-138 206h40l6 1Z" class="cls-1"/></g></svg>