<svg xmlns="http://www.w3.org/2000/svg" id="Layer_1" data-name="Layer 1" viewBox="0 0 210 69"><defs><style>.cls-1,.cls-2{fill:#515151;stroke-width:0}.cls-2{fill:#00a9f0}</style></defs><path d="M162.63 58.66V50l-11.95-.02v8.7h-9.34V22.38h9.34v20.57h11.95V22.4h9.34v28.1L166 58.66h-3.37ZM30.14 58.66l.3-27.15-.1-.1-7.85 27.25h-6.2l-7.95-27.5.3 27.5H0V22.4h12.06l7.3 23.87h.1l7.2-23.87h12.12v36.27h-8.64ZM67.55 58.66l-1.76-5.24h-12.6l-1.91 5.24h-9.95L55.89 22.4h7.3l14.4 36.27H67.56Zm-7.94-24.94-.15-.05-3.72 12.4h7.6L59.6 33.72ZM81.18 58.66V30.53h-7.42v-8.14h24.4v8.14h-7.37v28.13h-9.6ZM127.1 36.17c-1.59-3.97-5.06-6.33-8.89-6.33-5.85 0-9.82 4.95-9.82 10.59 0 5.88 4.07 10.78 9.87 10.78 3.73 0 6.9-2.06 8.84-6.12h9.83a18.91 18.91 0 0 1-18.57 14.26c-5.1 0-9.92-1.77-13.7-5.44-3.97-3.83-5.65-8.43-5.65-13.92 0-9.6 8.39-18.28 18.9-18.28 5.07 0 9.14 1.37 12.81 4.46 3.48 2.94 5.56 6.27 6.2 10h-9.82Z" class="cls-1"/><path d="M66.67 7.76c0 4.27-3.41 7.75-7.65 7.75s-7.66-3.48-7.66-7.75S54.78 0 59.02 0s7.65 3.48 7.65 7.76M90.48 7.76c0 4.27-3.4 7.75-7.65 7.75s-7.65-3.48-7.65-7.75S78.59 0 82.83 0s7.65 3.48 7.65 7.76M114.3 7.76c0 4.27-3.41 7.75-7.65 7.75S99 12.03 99 7.76 102.4 0 106.65 0s7.65 3.48 7.65 7.76M138.11 7.76c0 4.27-3.4 7.75-7.65 7.75s-7.65-3.48-7.65-7.75S126.22 0 130.46 0s7.65 3.48 7.65 7.76M202.96 53V10.02l-33.97 48.63H197V69h6V58.66h7V53h-7.04ZM197 53h-16.97L197 29.05v23.93Z" class="cls-2"/></svg>