<svg xmlns="http://www.w3.org/2000/svg" id="Layer_1" data-name="Layer 1" viewBox="0 0 629.09 230.97"><defs><style>.cls-1,.cls-2{fill:#404040;stroke-width:0}.cls-2{fill:#00bdab}</style></defs><path d="M453.92 21.86H575.4l-73.68 76.66s49.77 10.95 49.77 63.71-56.74 69.7-75.66 68.7-61.72-4.98-75.66-48.79h25.89s9.95 26.88 48.78 26.88 51.77-27.87 51.77-46.79-8.96-45.79-59.74-43.8l-5.97-6.97 64.71-67.7h-86.61l14.93-21.9Z" class="cls-2"/><path d="M587.28 21.86h15.21l-73.9 76.66s49.77 11.95 49.77 61.72-45.8 64.71-45.8 64.71-7.97 5.06-36.34 6.02c0 0 22.41-3.03 32.37-10s35.84-21.9 35.84-60.73-34.85-60.72-48.79-61.72l71.64-76.66Z" class="cls-2"/><path d="M613.88 21.86h15.21l-73.9 76.66s49.77 11.95 49.77 61.72-45.8 64.71-45.8 64.71-7.97 5.06-36.34 6.02c0 0 22.4-3.03 32.36-10 9.96-6.97 35.84-21.9 35.84-60.73s-34.84-60.72-48.78-61.72l71.64-76.66Z" class="cls-2"/><path d="M0 151.64V2.82h51.11c16.15-.2 28.21 2 36.19 5.63 16.35 7.44 26.58 24.53 26.58 44.65 0 27.55-15.54 51.88-58.88 51.88H37v46.66H0ZM53.56 71.6c15.54 0 23.31-5.23 23.31-17.9 0-12.07-7.56-17.5-24.74-17.5H37v35.4h16.56ZM119.4 151.64V2.82h38.63v148.82H119.4ZM284.38 59.33c-6.54-16.3-20.85-25.94-36.6-25.94-24.12 0-40.48 20.3-40.48 43.44 0 24.13 16.77 44.24 40.69 44.24 15.33 0 28.41-8.44 36.39-25.14h40.48c-9.4 35.8-40.69 58.53-76.46 58.53-21.06 0-40.9-7.24-56.43-22.33-16.36-15.68-23.3-34.59-23.3-57.11C168.66 35.6 203.2 0 246.55 0c20.85 0 37.61 5.63 52.74 18.3 14.31 12.07 22.9 25.75 25.56 41.03h-40.48ZM418.7 151.64 377.4 87.3h-.41v64.35h-38.64V2.82h38.64v66.97h.4l42.73-66.97h40.48l-50.08 74.2 53.36 74.62H418.7Z" class="cls-1"/></svg>