<svg viewBox="0.59 0.867 84.176 50.699" xmlns="http://www.w3.org/2000/svg"><path d="M41.23 17.875c0-.758-.43-1.41-1.18-1.734-.214-.106-.429-.106-.75-.106V2.707c0-.539-.214-1.082-.644-1.406-.32-.324-.75-.434-1.18-.434h-.32l-4.289.758c-.965.11-1.61.977-1.61 1.84v12.57c-.214 0-.534.106-.75.106-.214.109-.429.218-.644.433V2.707c0-.648-.215-1.082-.644-1.406-.32-.324-.75-.434-1.18-.434h-.32l-4.29.758c-.964.11-1.609.977-1.609 1.84v12.46l-2.68-12.46c-.214-.863-.964-1.516-1.824-1.516h-6.648a1.97 1.97 0 00-1.93 1.516L4.773 20.367c-.109.543 0 1.192.32 1.625.43.434.966.758 1.5.758h4.614c.855 0 1.715-.648 1.82-1.516l.325-1.41h.855l.215 1.41c.215.868.965 1.516 1.824 1.516h4.824c.535 0 .965-.215 1.395-.543.32.328.86.652 1.394.652h4.29c.64 0 1.18-.324 1.5-.867.109.215.214.434.43.543L33.936 26c.32.324.75.543 1.29.543h.21c.43 0 .965-.219 1.29-.543l3.859-3.465c.43-.328.644-.867.644-1.41zm0 0M62.031 28.926a.588.588 0 01-.535-.324.69.69 0 010-.653l.86-1.625H47.34v-.758c0-.214 0-.433-.106-.543l-.214-.433h20.375c.75 0 1.285-.54 1.285-1.297V11.484c0-.757-.535-1.3-1.285-1.3h-21.66c-.75 0-1.29.543-1.29 1.3v10.832l-1.394-1.3-.106-.106-.105-.11v-9.316c0-.976.535-1.949 1.39-2.492l.11-.11c.105-.109.32-.214.43-.214l5.468-2.492c.106 0 .215-.11.32-.11.215 0 .43.11.536.325a.69.69 0 010 .652l-.64 1.297h16.94c1.606 0 3 1.3 3 3.035v11.809c0 1.3-.855 2.492-2.144 2.816l-6.004 2.707c-.105.219-.215.219-.215.219zm0 0"/><path d="M67.395 8.773H50.023l.856-1.73c.215-.328-.215-.758-.535-.543l-5.469 2.492c-.215.11-.32.11-.43.215l-.105.11c-.75.324-1.29 1.19-1.29 2.167v9.207c.11 0 .11.11.216.11l.964.867V11.484c0-.867.754-1.625 1.61-1.625H67.5c.86 0 1.61.758 1.61 1.625v11.809c0 .867-.75 1.625-1.61 1.625H47.45c.105.215.105.434.105.648V26h15.011l-1.07 2.059c-.215.324.215.757.535.543l6.004-2.711c1.074-.325 1.934-1.407 1.934-2.598V11.484c.105-1.52-1.074-2.71-2.574-2.71zm0 0"/><path d="M67.395 9.535h-21.66c-1.075 0-1.93.863-1.93 1.95v10.288l3 2.711c.11.106.215.215.324.434l.105.215h20.16c1.07 0 1.93-.867 1.93-1.95V11.485a1.93 1.93 0 00-1.93-1.949zm0 0" fill="#fff"/><path d="M15.387 26.434h-4.504c-.106 0-.32.109-.32.324v7.91-.11l-4.184-7.91c0-.105-.106-.105-.215-.105H2.2c-.11 0-.324.105-.324.324v16.899c0 .109.11.324.324.324h4.504c.106 0 .32-.106.32-.324v-7.368l.106.434 3.969 6.934c0 .109.109.109.214.109h4.184c.106 0 .32-.11.32-.324V26.648c-.105-.105-.214-.214-.43-.214zm0 0M22.57 31.2c-1.394 0-2.785.433-3.75 1.19-1.074.868-1.61 1.95-1.61 3.36v3.898c.106 1.41.645 2.493 1.61 3.36.965.758 2.25 1.191 3.75 1.191 1.504 0 2.79-.433 3.754-1.191.965-.867 1.61-1.95 1.61-3.36V35.75c-.11-2.707-2.254-4.55-5.364-4.55zm.645 8.234c0 .433-.215.757-.535.757-.325 0-.535-.324-.645-.757v-3.575c0-.433.32-.757.645-.757.32 0 .535.324.535.757v3.575zm0 0M47.02 31.2c-1.07 0-1.93.323-2.575 1.085v-4.66l1.395 1.3s.11.11.215.11h.105c.11 0 .215-.11.215-.219v-3.14c0-.11 0-.11-.105-.219l-3.86-3.465s-.11-.11-.215-.11h-.215c-.109 0-.109 0-.214.11l-3.86 3.465c-.11 0-.11.11-.11.219v3.14c0 .11.11.22.216.22h.11c.105 0 .105 0 .214-.11l1.39-1.301V43.66c0 .106.11.324.325.324h4.289c.105 0 .32-.109.32-.324v-7.586s0-.758.75-.758c.215 0 .645 0 .645.868v7.476c0 .106.105.324.32.324h4.29c.108 0 .323-.109.323-.324v-8.125c0-1.41-.324-2.601-1.074-3.25-.965-.762-1.82-1.086-2.894-1.086zm0 0M57.852 40.3c-.86 0-1.075-.109-1.075-.757v-7.91c0-.11 0-.11-.105-.215 0 0-.11-.11-.215-.11l-4.289.758c-.11 0-.215.11-.215.22v7.905c0 2.493 1.285 3.793 3.86 3.793.644 0 1.285-.109 2.039-.218.105 0 .214-.106.214-.215v-2.926c.106-.11-.109-.324-.214-.324zm0 0M66.75 31.2c-1.395 0-2.465.542-3.219 1.515-.855-1.082-2.144-1.406-3-1.406-.965 0-1.824.324-1.824.433-.105 0-.105.11-.105.215v2.816c0 .11.105.329.32.329.75 0 .86.214.86.972v7.586c0 .106.105.324.32.324h4.289c.109 0 .32-.109.32-.324v-7.695c0-.106.11-.758.754-.758.426 0 .535.328.535.652v7.801c0 .106.105.324.32.324h4.29c.109 0 .324-.109.324-.324v-7.91c0-1.516-.43-2.707-1.18-3.465-.965-.762-1.93-1.086-3.004-1.086zm0 0"/><path d="M79.832 41.168c-.75-.11-1.5-.219-2.36-.328-.534-.106-1.07-.106-1.609-.215-.215 0-.215-.11-.215-.215 0 0 0-.11.11-.219.43.11.75.11 1.285.11 3.004 0 4.934-1.516 4.934-3.793 0-.867-.32-1.406-.645-1.735.54 0 1.18.11 1.61.11.105 0 .214-.11.32-.215.11-.758.11-2.168 0-2.926 0-.11-.106-.219-.32-.219h-3.86c-.215-.105-1.074-.324-2.144-.324-1.395 0-2.79.434-3.754 1.086-1.07.863-1.61 2.055-1.61 3.465 0 1.41.54 2.602 1.61 3.465-1.18.652-1.715 1.41-1.715 2.492 0 1.191.644 2.059 1.93 2.492-.215 0-.75.11-1.075.219-.965.324-1.605.648-1.605 1.84 0 1.191.75 2.277 2.035 2.926 1.18.648 2.789.976 4.504.976 1.824 0 3.324-.433 4.398-1.3a4.381 4.381 0 001.82-3.575c.11-2.058-1.285-3.578-3.644-4.117zm-2.68-6.066c.535 0 .535.324.535.648 0 .215 0 .648-.535.648-.539 0-.539-.539-.539-.648 0-.434.215-.648.54-.648zm.106 11.156c-.75 0-1.61-.215-1.61-.649 0-.109 0-.109.43-.324l1.824-.543c.43.11.856.324.856.758.11.543-.535.758-1.5.758zm0 0M11.313 45.285c-.536 0-1.07-.328-1.395-.867l-1.61-2.816v2.058c0 .863-.75 1.625-1.605 1.625H2.2c-.86 0-1.61-.762-1.61-1.625V26.648c0-.863.75-1.625 1.61-1.625h4.074c.645 0 1.18.329 1.395.868l1.605 3.144v-2.387c0-.863.754-1.625 1.61-1.625h4.504c.86 0 1.61.762 1.61 1.625v16.903c0 .867-.75 1.625-1.61 1.625h-4.075zm0 0"/><path d="M22.57 45.61c-1.715 0-3.43-.544-4.61-1.52-1.284-1.082-2.038-2.598-2.144-4.332V35.75c.106-1.734.75-3.25 2.145-4.332 1.18-.977 2.894-1.52 4.61-1.52 1.824 0 3.433.543 4.613 1.625 1.285 1.086 2.035 2.602 2.035 4.227v4.008c-.106 1.734-.75 3.25-2.145 4.332-1.07.976-2.68 1.52-4.504 1.52zm0 0M46.055 45.285c-.32 0-.645-.11-.965-.328-.32.219-.645.328-.965.328h-4.29c-.858 0-1.608-.762-1.608-1.625V30.332h-.215c-.215 0-.43 0-.64-.105-.54-.22-.97-.868-.97-1.52v-3.14c0-.434.215-.868.54-1.192L40.8 20.91c.32-.328.644-.433 1.07-.433h.215c.43 0 .754.105 1.074.433l3.86 3.465c.32.324.535.758.535 1.191v3.141c0 .434-.215.867-.426 1.086 1.39 0 2.465.539 3.324 1.406.965.977 1.39 2.383 1.39 4.227v8.125c0 .867-.75 1.625-1.605 1.625h-4.183zm0 0"/><path d="M55.813 45.5c-3.215 0-5.254-1.95-5.254-5.09V32.5c0-.758.535-1.516 1.394-1.625l4.29-.758h.32c.43 0 .75.11 1.074.434.32.324.535.758.535 1.3V39c.75.11 1.394.758 1.394 1.625v2.926c0 .758-.535 1.406-1.289 1.625-.965.215-1.715.324-2.465.324zm0 0"/><path d="M66.105 45.285c-.32 0-.64-.11-.964-.328-.215.219-.641.328-.965.328h-4.29c-.855 0-1.609-.762-1.609-1.625v-7.262c-.64-.214-1.18-.863-1.18-1.625v-2.816c0-.648.325-1.191.97-1.516a5.59 5.59 0 012.355-.543c1.18 0 2.144.329 3.004.868.86-.649 1.93-.973 3.219-.973 1.5 0 2.785.539 3.75 1.516.964 1.082 1.503 2.492 1.503 4.441v7.91c0 .863-.753 1.625-1.609 1.625zm-7.828-9.426"/><path d="M77.367 51.566c-1.933 0-3.754-.433-5.148-1.082-1.824-.976-2.79-2.382-2.79-4.117 0-1.41.645-2.168 1.29-2.601a3.739 3.739 0 01-.54-1.95c0-.757.216-1.84 1.075-2.707-.645-.867-.965-2.058-.965-3.25 0-1.843.75-3.468 2.145-4.55 1.18-.868 2.789-1.41 4.504-1.41 1.07 0 1.93.218 2.359.328h3.644c.86 0 1.5.648 1.61 1.515.105.867.105 2.383 0 3.14-.11.759-.645 1.302-1.29 1.411v.324c0 1.516-.64 2.817-1.82 3.793.75.324 1.395.758 1.93 1.406.856.977 1.395 2.168 1.395 3.575 0 1.949-.86 3.574-2.36 4.77-1.18.862-2.894 1.405-5.039 1.405zm0 0M35.438 45.61c-1.715 0-3.11-.434-4.18-1.301-.965-.758-2.145-2.168-2.145-4.766v-3.145c-.86 0-1.61-.757-1.61-1.625v-2.921c0-.868.75-1.625 1.61-1.625v-2.059c0-.434.215-.867.535-1.191.32-.329.645-.434 1.075-.434h.105l4.29.324c.859.11 1.5.758 1.5 1.625v1.735h1.179c.86 0 1.61.757 1.61 1.625v2.921c0 .868-.75 1.625-1.61 1.625h-1.18V39h1.289c.32 0 .75.11 1.07.324.325.324.54.758.645 1.192l.106 2.925c0 .758-.426 1.41-1.07 1.625-.86.325-2.145.543-3.22.543zm0 0"/><path d="M38.121 40.41s-.11-.11-.215-.11h-1.074c-1.07 0-1.5-.433-1.5-1.515v-3.793h2.574c.106 0 .32-.11.32-.324v-2.926c0-.11-.105-.324-.32-.324h-2.574v-3.145c0-.105-.105-.214-.215-.324l-4.289-.324c-.105 0-.105 0-.215.11-.105 0-.105.105-.105.214v3.36h-1.395c-.11 0-.324.109-.324.324v2.926c0 .109.11.324.324.324h1.395v4.55c0 1.626.535 2.926 1.605 3.684.86.649 2.04.973 3.325.973.964 0 2.039-.106 2.683-.324.106 0 .215-.106.215-.215l-.11-2.926c0-.11-.105-.11-.105-.215zm0 0"/><path d="M22.57 44.523c-1.5 0-2.894-.433-3.86-1.296-1.07-.868-1.714-2.059-1.714-3.579V35.75c0-1.41.645-2.602 1.715-3.574 1.074-.867 2.36-1.301 3.86-1.301 3.218 0 5.468 1.95 5.577 4.875v4.008c0 1.41-.644 2.601-1.714 3.469-.86.863-2.254 1.296-3.864 1.296zm0-9.097c-.215 0-.32.215-.32.433v3.575c0 .324.105.543.32.543.215 0 .325-.22.325-.543v-3.575c0-.218-.11-.433-.325-.433zm0 0" fill="#fff"/><path d="M22.57 35.86c-.215 0-.425.214-.425.433v2.598c0 .324.21.543.425.543s.325-.22.325-.543v-2.598c.105-.219-.11-.434-.325-.434zm0 0" fill="#231f20"/><path d="M28.469 35.75c-.106-2.926-2.574-4.984-5.79-4.984-1.503 0-3.003.433-4.074 1.3-1.18.977-1.718 2.168-1.824 3.684v4.008c.106 1.515.645 2.707 1.824 3.683 1.07.868 2.465 1.301 4.075 1.301 1.61 0 3-.433 4.074-1.3 1.07-.868 1.715-2.169 1.824-3.684-.11-1.406-.11-2.817-.11-4.008zm-.43 4.008c0 1.41-.64 2.492-1.605 3.36-.965.757-2.36 1.19-3.754 1.19-1.504 0-2.79-.433-3.754-1.19-1.07-.868-1.61-2.06-1.715-3.36v-3.899c0-1.41.644-2.601 1.715-3.359.965-.758 2.36-1.3 3.754-1.3 3.11 0 5.36 1.948 5.468 4.66 0 1.081 0 2.492-.109 3.898zm0 0M79.938 40.734c-.32-.109-.536-.109-.856-.109 2.25-.543 3.54-1.95 3.54-4.008 0-.433-.11-.867-.216-1.191h.75c.32 0 .645-.324.75-.653.11-.757.11-2.273 0-3.03 0-.325-.32-.653-.75-.653h-3.86a7.76 7.76 0 00-2.253-.324c-1.5 0-3 .433-3.965 1.191-1.18.867-1.824 2.277-1.824 3.793 0 1.3.43 2.492 1.285 3.36-.965.648-1.394 1.515-1.394 2.597 0 .977.43 1.734 1.074 2.277-.965.325-1.824.758-1.824 2.274 0 1.41.75 2.601 2.253 3.36 1.18.648 2.895.972 4.72.972 1.82 0 3.534-.43 4.714-1.406 1.29-.977 1.934-2.383 1.934-4.008 0-2.278-1.504-3.903-4.079-4.442zm-3-5.093c0-.434.105-.434.214-.434h.215s.106.11.106.434c0 .543-.106.543-.32.543h-.11c-.106.109-.106 0-.106-.543zm1.609 9.968c0 .106-.43.325-1.29.325-.429 0-.75-.11-.964-.11l1.824-.539c.43.106.43.215.43.324zm0 0M15.387 26h-4.504c-.43 0-.75.324-.75.758v5.957l-3.324-6.39c0-.216-.32-.325-.536-.325H2.2c-.43 0-.75.324-.75.758V43.66c0 .43.32.758.75.758h4.395c.43 0 .75-.328.75-.758v-5.418l3.324 5.742c.11.215.324.325.645.325h4.183c.426 0 .75-.325.75-.758V26.648c-.11-.324-.43-.648-.86-.648zm0 0M47.02 30.766c-.75 0-1.5.218-2.145.543v-2.707l.645.648c.214.215.535.215.75.11.214-.11.43-.434.43-.653v-3.14a.852.852 0 00-.216-.544l-3.859-3.464a.823.823 0 00-.54-.22h-.214c-.21 0-.32.11-.535.22l-3.86 3.464a.852.852 0 00-.214.543v3.141c0 .328.215.543.43.652.214.106.535.106.75-.109l.644-.648V43.55c0 .433.32.758.75.758h4.289c.43 0 .75-.325.75-.758v-7.586c0-.106.11-.324.32-.324.11 0 .11 0 .11.433v7.477c0 .433.32.758.75.758h4.289c.43 0 .75-.325.75-.758v-8.125c0-1.516-.43-2.817-1.18-3.574-.75-.762-1.715-1.086-2.894-1.086zm0 0M57.852 39.867c-.645 0-.645 0-.645-.324v-7.91a.852.852 0 00-.215-.543c-.215-.106-.32-.215-.644-.106l-4.29.758c-.32.11-.64.324-.64.758v7.91c0 2.707 1.5 4.223 4.289 4.223.64 0 1.39-.11 2.145-.215.32-.11.535-.328.535-.758v-2.926c.215-.543-.11-.867-.535-.867zm0 0" fill="#fff"/><path d="M69.754 31.957c-.754-.758-1.824-1.191-3.11-1.191-1.289 0-2.359.433-3.218 1.3-.965-.976-2.145-1.191-3.004-1.191-1.07 0-1.93.434-2.035.434-.215.109-.32.324-.32.648v2.816c0 .434.32.762.75.762.425 0 .425 0 .425.54v7.585c0 .43.324.758.754.758h4.29a.74.74 0 00.75-.758v-7.586c0-.11.105-.324.32-.324h.109v8.015c0 .434.32.758.75.758h4.289c.43 0 .75-.324.75-.757V35.75c-.215-1.625-.645-2.926-1.5-3.793zm0 0M38.336 40.082c-.11-.105-.43-.215-.54-.105h-.964c-.855 0-1.07-.22-1.07-1.086v-3.356h2.035c.43 0 .75-.328.75-.762v-2.921a.738.738 0 00-.75-.762h-2.035v-2.707c0-.434-.325-.758-.645-.758l-4.289-.324c-.215 0-.32.11-.535.215a.823.823 0 00-.215.543v2.925h-.965c-.43 0-.75.325-.75.758v2.926c0 .434.32.758.75.758h.856v4.008c0 1.84.644 3.14 1.718 4.007.965.649 2.145 1.082 3.645 1.082.965 0 2.145-.214 2.79-.433a.809.809 0 00.534-.758l-.11-2.922c.11 0 0-.219-.21-.328zm0 0" fill="#fff"/><path d="M10.992 35.75l-.644-1.191-4.075-7.91H2.2V43.55h4.504v-8.344l.64 1.41 3.97 6.934h4.074V26.648h-4.395zm0 0M22.57 31.418c-2.785 0-5.039 1.73-5.144 4.332v3.898c.105 2.602 2.25 4.336 5.144 4.336 2.899 0 5.043-1.625 5.043-4.226v-3.899c0-2.71-2.144-4.441-5.043-4.441zm.86 8.016c0 .648-.43.976-.86.976-.425 0-.855-.433-.855-.976v-3.575c0-.543.43-.976.855-.976.43 0 .86.433.86.976.105 1.192.105 2.598 0 3.575zm0 0M47.02 31.418c-1.286 0-2.25.648-2.79 1.625v-6.066l1.825 1.73v-3.14l-3.86-3.465h-.215l-3.859 3.464v3.141l1.82-1.73V43.66h4.29v-7.586c0-.215.214-1.082 1.074-1.082.644 0 .855.543.855 1.192v7.476h4.293v-8.125c-.11-3.035-1.61-4.117-3.433-4.117zm0 0M56.457 39.543v-7.91l-4.289.758v7.91c0 3.898 3.539 3.683 5.574 3.25v-2.926c-.644 0-1.285-.11-1.285-1.082zm0 0M66.75 31.418c-1.395 0-2.465.539-3.11 1.625-.75-1.191-1.93-1.52-3.003-1.52-.965 0-1.715.329-1.715.329v2.816c.86 0 1.18.324 1.18 1.191v7.582h4.289V35.75c0-.324.32-.977 1.074-.977.535 0 .855.329.855.977v7.8h4.29v-7.8c-.32-3.035-1.93-4.332-3.86-4.332zm0 0M79.727 41.383a67.945 67.945 0 00-3.864-.543c-.32 0-.43-.215-.43-.43 0-.219.215-.433.43-.433.43.105.965.105 1.395.105 2.894 0 4.719-1.406 4.719-3.465 0-1.191-.536-1.734-1.286-2.058v-.11c.32.11 1.606.219 2.57.219.11-.758.11-2.168 0-2.816h-3.964s-.86-.329-2.145-.329c-2.683 0-5.039 1.41-5.039 4.336 0 1.73.75 2.817 1.82 3.465-1.07.434-1.93 1.192-1.93 2.492 0 1.41 1.075 2.059 2.255 2.383l.75.11v.109h-1.18s-.644.105-1.289.324c-.965.324-1.394.649-1.394 1.625 0 2.383 2.898 3.574 6.222 3.574 3.43 0 5.895-1.734 5.895-4.656.11-2.058-1.285-3.36-3.535-3.902zm-2.575-6.61c.535 0 .856.329.856.977 0 .648-.32.977-.856.977-.539 0-.859-.434-.859-.977 0-.648.43-.977.86-.977zm.106 11.809c-1.07 0-1.824-.434-1.824-.973 0-.324.214-.433.644-.543l1.93-.543c.75.22 1.074.543 1.074 1.086 0 .54-.644.973-1.824.973zm0 0M36.832 40.625c-1.18 0-1.82-.434-1.82-1.734v-4.008h2.785v-2.926h-2.785v-3.465l-4.29-.324v3.684h-1.609v2.921h1.61v4.77c0 3.355 2.359 4.332 4.715 4.332.859 0 1.933-.11 2.574-.324l-.106-2.926h-1.074zm0 0" fill="#27aae1"/><path d="M23.86 21.125h4.288c.106 0 .32-.11.32-.324V2.707c0-.105 0-.105-.105-.215 0 0-.11-.11-.215-.11l-4.289.759c-.109 0-.214.109-.214.218v17.332c0 .22.105.434.214.434zm0 0M11.527 20.8l.536-2.71h3.539l.535 2.71c0 .11.11.216.215.216h4.824c.11 0 .11 0 .215-.106 0-.11.109-.11 0-.219L17.64 3.793c0-.11-.11-.219-.215-.219h-6.758c-.105 0-.215.11-.215.219L6.38 20.691v.22c0 .105.11.105.215.105h4.613c.105 0 .211 0 .32-.215zm2.25-11.698l.11-.543.105.543.86 4.656h-1.93zm0 0M35.117 24.7s.11.109.215.109h.215c.105 0 .105 0 .215-.11l3.86-3.465c.105 0 .105-.109.105-.218v-3.141c0-.11-.106-.215-.211-.215h-.11c-.105 0-.105 0-.215.106l-1.394 1.3V2.816c0-.109 0-.109-.106-.214 0 0-.109-.11-.214-.11l-4.29.758c-.105 0-.214.11-.214.215v15.492l-1.395-1.297s-.105-.11-.215-.11h-.105c-.11 0-.215.11-.215.216v3.144c0 .106 0 .106.105.215zm0 0"/><path d="M28.148 1.734h-.109l-4.289.758c-.426.11-.855.543-.855.973V20.8c0 .539.43.972.964.972h4.29c.214 0 .535-.105.75-.324a.983.983 0 00.32-.758V2.601c0-.328-.106-.542-.32-.761-.32-.106-.536-.106-.75-.106zm0 0M18.281 3.684c-.105-.434-.426-.758-.965-.758h-6.648c-.535 0-.855.324-.965.758L5.63 20.582a.85.85 0 00.215.867c.215.219.43.324.75.324h4.613c.426 0 .855-.324.965-.863l.426-2.168h2.359l.43 2.168c.11.43.535.863.965.863h4.824c.324 0 .539-.105.754-.324.215-.215.215-.539.215-.867zm-3.965 9.53h-.964l.425-2.382zm0 0M40.371 17.875c0-.434-.215-.758-.644-.867-.32-.11-.75-.11-1.07.219l-.216.105V2.707c0-.324-.105-.539-.32-.758a.833.833 0 00-.86-.215l-4.288.758c-.43.11-.86.543-.86.973v13.867l-.21-.215c-.325-.219-.755-.324-1.075-.219-.32.11-.644.543-.644.868v3.144c0 .324.109.54.324.758l3.86 3.465c.214.219.429.219.644.219h.215c.21 0 .535-.11.64-.22l3.86-3.464c.214-.219.324-.434.324-.758zm0 0" fill="#fff"/><path d="M23.86 21.125c-.11 0-.325-.11-.325-.324V3.465c0-.106.11-.215.215-.215l4.29-.758c.108 0 .108 0 .214.11.11 0 .11.105.11.214V20.91c0 .106-.11.324-.325.324zm0 0M16.352 21.016c-.106 0-.215-.106-.215-.215l-.535-2.711h-3.645l-.539 2.71c0 .11-.105.216-.211.216H6.594c-.106 0-.215 0-.215-.106 0-.11-.106-.11 0-.219l3.969-16.898c0-.11.105-.219.214-.219h6.754c.11 0 .215.11.215.219l3.86 16.898v.22c0 .105-.106.105-.215.105zm-1.61-7.258l-.855-4.656-.11-.543-.105.543-.86 4.656zm0 0M39.621 17.875a.228.228 0 00-.215-.215h-.105c-.11 0-.11 0-.215.106l-1.395 1.3V2.816c0-.109 0-.109-.109-.214 0 0-.105-.11-.21-.11l-4.29.758c-.11 0-.215.11-.215.215v15.492l-1.394-1.297s-.11-.11-.215-.11h-.11c-.105 0-.214.11-.214.216v3.144c0 .106 0 .106.109.215l3.86 3.465s.109.11.214.11h.215c.105 0 .105 0 .215-.11l3.86-3.465c.109 0 .109-.11.109-.215zm0 0" fill="#fcee1e"/><path d="M49.059 17.441c0-.976.214-1.84.535-2.601.32-.758.75-1.297 1.394-1.73.64-.434 1.285-.653 2.145-.653 1.285 0 2.25.434 3 1.3.754.868 1.074 2.169 1.074 3.684v.11c0 1.515-.32 2.707-1.074 3.574-.75.867-1.715 1.3-2.895 1.3s-2.144-.433-2.894-1.19c-.75-.868-1.07-1.95-1.18-3.36zm2.57.22c0 .862.11 1.515.324 1.948.215.434.645.649 1.07.649.965 0 1.395-.867 1.395-2.492v-.325c0-1.734-.43-2.601-1.395-2.601-.855 0-1.285.762-1.394 2.277zm0 0" fill="#ed2127"/><path d="M64.07 15.383l-.965-.11c-.964 0-1.503.329-1.824.868v6.175h-3.004v-9.64h2.79l.109 1.191c.535-.976 1.18-1.41 2.144-1.41.32 0 .64 0 .856.11zm0 0" fill="#ea2127"/><path d="M36.941 2.816v16.25l.536-.433V2.707zm0 0M39.3 17.875l-.429.434v2.168l-3.86 3.574h-.324l.54.539h.21l3.97-3.574zm0 0M28.148 2.707l-.535.11v17.44H23.86v.544h4.29zm0 0M13.027 8.45l-.964 5.093h.535l.859-4.55.215-.868-.32-1.84zm0 0M17.316 3.898h-.32l3.645 16.36h-4.395l.106.543h4.824zm0 0M15.281 17.332h-3.969l-.644 2.926H6.703l-.11.543h4.614l.535-3.035h3.645zm0 0M6.164 34.234v8.883H2.2v.434h4.504v-7.91zm0 0M14.957 26.648v16.47h-3.965l.32.433h4.075V26.648zm0 0M21.82 39.977c-.105-.11-.105-.329-.105-.434v-3.578c0-.54.43-.973.855-.973h.215a.808.808 0 00-.75-.543c-.43 0-.86.434-.86.977V39c.11.434.325.867.645.977zm0 0" fill="#a7a7aa"/><path d="M27.719 35.75c-.106-1.3-.645-2.383-1.5-3.035.535.652.965 1.52.965 2.601v3.899c-.11 2.601-2.254 4.226-5.04 4.226-1.503 0-2.789-.433-3.648-1.191.965 1.082 2.36 1.734 4.184 1.734 2.789 0 5.039-1.625 5.039-4.226V35.75zm0 0M34.473 31.309h.539v-2.926h-.54zm0 0M37.797 31.852h-.535v2.488h-2.79v4.012c0 .863.215 1.296.755 1.515-.11-.219-.215-.652-.215-1.082v-4.012h2.785zm0 0M37.906 40.625h-.43l.106 2.383c-.64.219-1.715.324-2.57.324-1.18 0-2.469-.324-3.325-.973.856 1.082 2.36 1.516 3.86 1.516.855 0 1.93-.11 2.574-.324zm0 0M45.52 28.168l-1.825-1.734V32.5c.11-.215.32-.434.43-.648v-4.985l1.824 1.735v-3.145l-.539-.434zm0 0M49.059 32.066c.535.649.75 1.625.75 2.926v8.125h-3.754v.543h4.289v-8.125c0-1.734-.535-2.82-1.285-3.469zm0 0M39.406 26.434l-1.394 1.3v.973l1.394-1.297zm0 0M44.77 34.45c-.86 0-1.075.866-1.075 1.085v7.582h-3.754v.543h4.29v-7.586c0-.215.214-1.082 1.074-1.082h.32c-.215-.324-.43-.543-.855-.543zm0 0M56.027 31.742V39c0 .543.215.867.535.977 0-.11-.105-.22-.105-.434v-7.91zm0 0M57.313 40.625v2.492c-1.395.324-3.215.434-4.504-.433 1.074 1.515 3.433 1.3 4.933.976v-2.926c-.105-.109-.215-.109-.43-.109zm0 0M69 32.176c.54.648.86 1.734.86 3.031v7.91h-3.755v.543h4.29v-7.91c-.106-1.734-.641-2.926-1.395-3.574zm0 0M64.71 34.45c-.75 0-1.07.757-1.07.976v7.691h-3.753v.543h4.289v-7.695c0-.324.324-.973 1.074-.973h.215c0-.433-.324-.543-.754-.543zm0 0M82.727 34.125c-.965 0-2.25-.11-2.575-.215v.106c.325.109.54.218.75.433.54.11 1.61.11 2.36.219.11-.758.11-2.168 0-2.816h-.535v2.273zm0 0M76.613 34.234c-.425 0-.855.325-.855.973 0 .434.215.867.535.977 0-.11-.106-.325-.106-.434 0-.648.426-.977.856-.977h.324c0-.324-.324-.539-.754-.539zm0 0M82.082 42.465c.54.652.754 1.41.754 2.277 0 2.926-2.469 4.656-5.898 4.656-2.04 0-3.97-.433-5.149-1.406 1.074 1.301 3.219 1.95 5.684 1.95 3.43 0 5.898-1.735 5.898-4.657a3.682 3.682 0 00-1.289-2.82zm0 0M81.012 34.773c.215.329.32.762.32 1.301 0 2.059-1.82 3.469-4.719 3.469-.425 0-.965 0-1.39-.11-.215.11-.43.325-.43.434 0 .324.105.434.43.434h.105c0-.219.215-.324.43-.434.43.11.965.11 1.394.11 2.895 0 4.72-1.41 4.72-3.47 0-.866-.325-1.405-.86-1.734zm0 0" fill="#a7a7aa"/><path d="M75.434 45.824v-.215c0-.324.214-.433.644-.543l1.93-.543c.215 0 .43.11.539.22-.11-.325-.43-.544-1.074-.653l-1.93.543c-.43.11-.645.219-.645.543 0 .215.215.433.536.648zm0 0M60.746 13.543c.106-.219.215-.328.32-.434v-.433h-.32zm0 0M63.746 12.566v2.493l-.965-.11c-.965 0-1.5.324-1.82.867v6.176h-2.574v.324h2.894V16.25c.215-.648.86-.867 1.824-.867l.965.11v-2.817c-.11-.11-.215-.11-.324-.11zm0 0M52.059 19.715c0-.106 0-.106 0 0-.32-.54-.43-1.192-.43-2.055v-.543c.11-1.515.539-2.277 1.394-2.277.215 0 .43 0 .645.11-.215-.325-.535-.54-.965-.54-.86 0-1.285.758-1.394 2.274v.543c0 .863.109 1.515.32 1.949.11.215.324.433.43.539zm0 0" fill="#a7a7aa"/><path d="M56.027 13.867c-.109-.219-.32-.324-.43-.433l.11.109c.75.867 1.07 2.164 1.07 3.684v.105c0 1.52-.32 2.711-1.07 3.578-.754.863-1.719 1.297-2.898 1.297-.965 0-1.82-.324-2.465-.867.75.867 1.715 1.195 2.894 1.195 1.29 0 2.254-.433 2.895-1.3.754-.868 1.074-2.06 1.074-3.575v-.11c-.11-1.624-.43-2.816-1.18-3.683zm0 0" fill="#a7a7aa"/></svg>