<svg viewBox="11.8 12.1 185.8 92.8" xmlns="http://www.w3.org/2000/svg"><path stroke="#8D9092" stroke-width=".8" d="M15.7 104.2c-.4 0-.7-.1-.9-.4-.3-.3-.4-.6-.4-.9V70.3c0-.4.1-.7.4-.9.3-.3.6-.4.9-.4h18.1c1.6 0 3 .2 4.2.6 1.3.4 2.4 1 3.4 1.8s1.8 1.8 2.4 2.8c.6 1 .8 2.2.8 3.6 0 1.6-.4 3.1-1.1 4.4-.7 1.3-1.8 2.3-3.4 3.1 1.6.6 2.7 1.4 3.5 2.3 1.5 1.7 2.2 4 2.2 6.7 0 3-1.2 5.5-3.5 7.4-2.2 1.8-5 2.6-8.5 2.6H15.7zM26.4 77v5.6h2.7c1.1 0 2.1-.3 2.8-.9.7-.6 1.1-1.2 1.1-1.9 0-.8-.3-1.5-1-2-.7-.6-1.6-.8-2.8-.8h-2.8zm0 12.4v6.7h3.1c1.3 0 2.3-.3 3.1-.9.8-.6 1.2-1.4 1.2-2.4 0-1.1-.4-1.9-1.2-2.5-.8-.6-1.8-.9-3.1-.9h-3.1zM72.6 70.3c0-.4.1-.7.4-.9.3-.3.6-.4 1-.4h9.2c.4 0 .7.1.9.4.3.3.4.6.4.9v22.8c0 4.3-1.7 7.4-5 9.2-3.1 1.6-7.5 2.4-13.3 2.4-6 0-10.4-.8-13.3-2.4-3.2-1.8-4.8-5-4.8-9.6V70.3c0-.4.1-.7.4-.9.3-.3.6-.4 1-.4h9.2c.4 0 .7.1 1 .4.3.3.4.6.4.9v18.5c0 2.1.5 3.5 1.5 4.4 1 .9 2.6 1.3 4.9 1.3 2.2 0 3.7-.5 4.7-1.4 1-.9 1.4-2.4 1.4-4.5V70.3zM99.1 86.8c0 1.4.2 2.6.7 3.7.5 1.1 1.2 2 2.1 2.8 1.9 1.6 4.5 2.4 7.9 2.4 2.3 0 4.5-.3 6.7-.8h-.1c1.1-.3 2.2-.6 3.1-.9.9-.3 1.7-.5 2.4-.8.5-.2.9-.1 1.3.1.4.3.6.7.6 1.2l-.1 6.7c0 .2-.1.5-.3.7-.2.3-.4.4-.6.5-2.1.7-4.3 1.3-6.8 1.7-2.4.4-5.1.5-7.9.5-6.6 0-11.8-1.5-15.5-4.5-3.9-3.1-5.9-7.4-5.9-13.1 0-3.1.5-5.7 1.4-8.1.9-2.3 2.3-4.3 4.1-5.9 1.8-1.6 4-2.8 6.6-3.6 2.6-.8 5.6-1.2 8.9-1.2 2.9 0 5.5.2 7.8.6 2.3.4 4.2.8 5.8 1.4.2.1.4.2.6.4.2.2.3.5.3.7l.5 6.6c.1.5-.1 1-.5 1.2-.4.3-.8.3-1.3.2-1.3-.5-3-1-5.1-1.5-1-.3-2-.5-3-.6-1-.2-2-.2-3-.2-3.4 0-6 .8-7.8 2.6-1.9 1.7-2.8 4.1-2.9 7.2h0zM127.2 104.2c-.4 0-.7-.1-.9-.4-.3-.3-.4-.6-.4-.9V70.3c0-.4.1-.7.4-.9.3-.3.6-.4.9-.4h9.7c.4 0 .7.1.9.4.3.3.4.6.4.9v11.2l10.6-12.1c.1-.1.3-.2.5-.3.2-.1.4-.2.5-.2h10.4c.3 0 .6.1.8.2.2.2.4.3.5.6.1.2.1.5.1.8 0 .3-.2.5-.4.7l-12.6 13.9 17.1 16.7c.2.2.4.5.4.8.1.3 0 .5-.1.8-.1.2-.3.4-.5.6-.2.1-.5.2-.8.2h-12.1c-.1 0-.3 0-.5-.1s-.4-.2-.5-.2L138 90.7V103c0 .4-.1.7-.4.9-.3.3-.6.4-.9.4h-9.5zM196.5 98.1c-.7 1.5-1.8 2.7-3.1 3.7-1.4 1-3 1.8-5 2.3-2 .5-4.2.8-6.6.8-1.3 0-2.6-.1-3.9-.2-1.3-.1-2.6-.3-3.9-.5-.3-.1-.6-.1-.8-.1-.2 0-.5-.1-.7-.1v0c-.9-.2-1.6-.3-2.2-.4-.6-.1-1.1-.2-1.4-.3-.3-.1-.5-.2-.7-.4-.2-.2-.3-.5-.4-.8l-.7-8.5c-.1-.6.1-1 .5-1.3.4-.3.9-.3 1.4-.1 1.5.7 3.5 1.5 6.1 2.5 2.7.9 5.1 1.3 7.3 1.3 1.3 0 2.4-.2 3.3-.5.8-.3 1.2-.8 1.2-1.4 0-.3-.2-.7-.7-1-.8-.5-2.5-1-5.3-1.5-5.2-1-8.8-2.4-10.8-4.1-2.2-1.8-3.3-4.3-3.3-7.5 0-3.8 1.3-6.6 4-8.6 2.7-1.9 6.4-2.9 11.2-2.9 2.1 0 4.3.2 6.7.6 1.1.2 2.1.4 3 .6.9.2 1.6.4 2.1.5.2.1.5.2.7.4.2.2.3.5.3.7l.9 7.9c.1.6-.1 1-.5 1.3-.4.3-.9.3-1.4.1-.9-.4-1.9-.9-2.9-1.3s-2.1-.8-3.2-1.1c-2.2-.6-4.2-.9-6-.9-1.3 0-2.4.1-3.1.3-.7.2-1.1.6-1.1 1.1 0 .5.4.9 1.1 1.1.7.2 1.5.5 2.5.8 1 .3 2.2.5 3.5.8 4.9 1 8.2 2.3 10 4.1 2 1.9 3 4.4 3 7.4 0 2-.4 3.7-1.1 5.2z"/><path d="M68.9 64.6c-.4 0-.7-.1-1-.4-.3-.3-.4-.6-.4-1V28.4c0-.4.1-.7.4-1 .3-.3.6-.4 1-.4h28c.4 0 .7.1 1 .4.3.3.4.6.4 1v7c0 .4-.1.8-.4 1.1-.3.3-.6.4-1 .4H80.8v3.8h13.8c.4 0 .7.1 1 .4.3.3.4.6.4 1V49c0 .4-.1.8-.4 1.1-.3.3-.6.4-1 .4H80.8v4h17.5c.4 0 .8.1 1 .4.3.3.4.6.4 1.1v7c0 .4-.1.7-.4 1-.3.3-.6.4-1 .4H68.9zM116.6 53.1c2.1 1.7 4.9 2.6 8.5 2.6 2.9 0 5.1-.3 6.6-.9v-2.4h-5.1c-.4 0-.8-.1-1.1-.4-.3-.3-.4-.6-.4-1.1v-6.4c0-.4.1-.8.4-1 .3-.3.6-.4 1.1-.4H142c.4 0 .8.1 1.1.4.3.3.4.6.4 1v16.9c0 .3-.1.6-.3.8-.2.3-.5.5-.7.6-2.3.7-5 1.3-8 1.8-3 .4-6.2.7-9.7.7-7.9 0-14-1.5-18.2-4.6-4.2-3.1-6.3-7.8-6.3-14.2 0-6.3 2.2-11.2 6.5-14.9 4.3-3.6 10-5.4 17-5.4 3.4 0 6.5.2 9.2.6 2.7.4 4.9.9 6.6 1.4.3.1.5.2.7.5.2.2.3.5.4.7l.8 6.7c.1.5-.1 1-.5 1.3-.4.3-.9.4-1.4.3-1.7-.5-3.8-1-6.3-1.5-1.2-.2-2.4-.4-3.6-.5-1.2-.1-2.4-.2-3.6-.2-3.8 0-6.8 1-9.1 2.9-2.2 1.9-3.3 4.5-3.3 7.6-.2 3 .8 5.3 2.9 7.1zM181.5 64.6c-.2 0-.5-.1-.7-.2-.3-.2-.5-.4-.6-.6l-2.5-4.7h-18l-2.5 4.7c-.1.2-.3.4-.6.6-.3.2-.5.2-.8.2h-10c-.6 0-1.1-.2-1.4-.7-.3-.4-.3-.9.1-1.5l19.8-34.8c.1-.2.3-.4.6-.5.3-.2.5-.2.7-.2h8.5c.2 0 .5.1.7.2.3.2.5.4.6.6L194 62.5c.3.5.3 1 0 1.5-.3.4-.7.6-1.3.6h-11.2zm-17.1-14h8.9l-4.3-8.4-4.6 8.4zM64.5 27.4c-.3-.3-.6-.4-1.1-.4H52.2c-.2 0-.5.1-.7.2-.3.1-.4.3-.6.5L38.4 48.1 25.8 27.7c-.1-.2-.3-.4-.6-.5-.3-.1-.5-.2-.7-.2H13.3c-.4 0-.8.1-1.1.4-.3.3-.4.6-.4 1v34.8c0 .4.1.7.4 1 .3.3.6.4 1.1.4h9.6c.4 0 .8-.1 1.1-.4.3-.3.4-.6.4-1V44.4l10.4 19.4c.1.2.3.4.6.6.3.2.5.2.7.2h7.2c.2 0 .5-.1.7-.2.3-.2.4-.4.6-.6l1.1-2.3v-.7s0-.3.2-.8v-.1s.1-.3 0 0c0-.1.1-.3.1-.7v-4.1c0-.5-.1-1.8.3-2.5 0 0 1-1.5 2.1-1.9 0 0 .9-.2 2.3 0 0 0 .2-.1.2-.4 0-.3.1-.4.1-1.1 0-.7-.1-1 0-1.4l-.2-.6s-.1-.1-.2-.1-1.3-.1-1.3-1.2c0 0-.2-.9-.3-1.1v-.2s-.5-.2-.6-.3c-.1-.1-.5-.4-.8-.5-.3-.1-2.4-.7-2.2-2.9 0 0 .1-.2.2.1 0 0 .2 1.7 1.3 1.9 0 0-1.5-1.9-.9-4.5 0 0 .1 0 .1.4 0 0-.1 1.1.2 1.3h.1c.3 0 1.1-.9 1.3-1.9 0 0 .2-.4.2.2 0 0-.1.6-.4 1-.2.4-.8.9-.8 1.4 0 .4 0 1.7 1 2.3 0 0-.3-1.4 0-1.6 0 0 .1 0 .1.8 0 0 .1 1.3 1.1 1.7 0 0 1.2.5 1.6.5 0 0-.6-1.1-.3-1.7 0 0 .2-.2.3.5 0 0 0 .7.4 1.1 0 0 .6.8.8 1.1 0 0-.1 0 .1.1.3.1.8-.3 1.4.2 0 0 .4-.5.5-.9 0 0 .1-.2.5-.3 0 0 1.8-.8 2.1-1.9 0 0-.1-1.1 0-1.3 0 0 .3.8.3 1 0 0 .1 0 .1-.1 0 .1 0 .5-.2.8 0 0 1.3-1.2 1.1-3.3 0 0-.2-.8-.8-1.3-.5-.4-.5-.9-.3-.9 0 0 .1-.3.6.6 0 0 .6.9.9.7 0 0 .3-.3.3-1 0 0-.1-1.2 0-1.2 0 0 .7.9.1 2.5v.2s.8 1.3-.2 2.8c0 0-1 1.6-2.6 2.4 0 0 .4 1-.2 1.7-.5.7-1.1.9-1.3 1.4v.3c0 .3.4 1.8.5 2.6.1.8 0 1.6 0 2.1.1.5.9 3.3-.1 4.7 0 0-.2.8-.1 1.3 0 0-.1 1-.2 1.8-.1.7.2 2.6.3 3 0 .2.1.6.2 1.2.2.1.4.1.6.1h8.3c.4 0 .8-.1 1.1-.4.3-.3.4-.6.4-1v-35c-.1-.4-.3-.7-.6-1z"/><path fill="#439539" stroke="#000" stroke-width=".8" d="M13.5 104.2c-.4 0-.7-.1-.9-.4-.3-.3-.4-.6-.4-.9V70.3c0-.4.1-.7.4-.9.3-.3.6-.4.9-.4h18.1c1.6 0 3 .2 4.2.6 1.3.4 2.4 1 3.4 1.8s1.8 1.8 2.4 2.8c.6 1 .8 2.2.8 3.6 0 1.6-.4 3.1-1.1 4.4-.7 1.3-1.8 2.3-3.4 3.1 1.6.6 2.7 1.4 3.5 2.3 1.5 1.7 2.2 4 2.2 6.7 0 3-1.2 5.5-3.5 7.4-2.2 1.8-5 2.6-8.5 2.6H13.5zM24.1 77v5.6h2.7c1.1 0 2.1-.3 2.8-.9.7-.6 1.1-1.2 1.1-1.9 0-.8-.3-1.5-1-2S28 77 26.9 77h-2.8zm0 12.4v6.7h3.1c1.3 0 2.3-.3 3.1-.9.8-.6 1.2-1.4 1.2-2.4 0-1.1-.4-1.9-1.2-2.5-.8-.6-1.8-.9-3.1-.9h-3.1zM70.4 70.3c0-.4.1-.7.4-.9.3-.3.6-.4 1-.4H81c.4 0 .7.1.9.4.3.3.4.6.4.9v22.8c0 4.3-1.7 7.4-5 9.2-3.1 1.6-7.5 2.4-13.3 2.4-6 0-10.4-.8-13.3-2.4-3.2-1.8-4.8-5-4.8-9.6V70.3c0-.4.1-.7.4-.9.3-.3.6-.4 1-.4h9.2c.4 0 .7.1 1 .4.3.3.4.6.4.9v18.5c0 2.1.5 3.5 1.5 4.4 1 .9 2.6 1.3 4.9 1.3 2.2 0 3.7-.5 4.7-1.4 1-.9 1.4-2.4 1.4-4.5V70.3zM96.9 86.8c0 1.4.2 2.6.7 3.7.5 1.1 1.2 2 2.1 2.8 1.9 1.6 4.5 2.4 7.9 2.4 2.3 0 4.5-.3 6.7-.8h-.1c1.1-.3 2.2-.6 3.1-.9.9-.3 1.7-.5 2.4-.8.5-.2.9-.1 1.3.1.4.3.6.7.6 1.2l-.1 6.7c0 .2-.1.5-.3.7-.2.3-.4.4-.6.5-2.1.7-4.3 1.3-6.8 1.7-2.4.4-5.1.5-7.9.5-6.6 0-11.8-1.5-15.5-4.5-3.9-3.1-5.9-7.4-5.9-13.1 0-3.1.5-5.7 1.4-8.1.9-2.3 2.3-4.3 4.1-5.9 1.8-1.6 4-2.8 6.6-3.6 2.6-.8 5.6-1.2 8.9-1.2 2.9 0 5.5.2 7.8.6 2.3.4 4.2.8 5.8 1.4.2.1.5.2.6.4.2.2.3.5.3.7l.5 6.6c.1.5-.1 1-.5 1.2-.4.3-.8.3-1.3.2-1.3-.5-3-1-5.1-1.5-1-.3-2-.5-3-.6-1-.2-2-.2-3-.2-3.4 0-6 .8-7.8 2.6-1.9 1.7-2.9 4.1-2.9 7.2h0zM125.2 104.2c-.4 0-.7-.1-.9-.4-.3-.3-.4-.6-.4-.9V70.3c0-.4.1-.7.4-.9.3-.3.6-.4.9-.4h9.7c.4 0 .7.1.9.4.3.3.4.6.4.9v11.2l10.6-12.1c.1-.1.3-.2.5-.3.2-.1.4-.2.5-.2h10.4c.3 0 .6.1.8.2.2.2.4.3.5.6.1.2.1.5.1.8 0 .3-.2.5-.4.7l-12.6 13.9 17.1 16.7c.2.2.4.5.4.8.1.3 0 .5-.1.8-.1.2-.3.4-.5.6-.2.1-.5.2-.8.2h-12.1c-.1 0-.3 0-.5-.1s-.4-.2-.5-.2L136 90.7V103c0 .4-.1.7-.4.9-.3.3-.6.4-.9.4h-9.5zM194.2 98.1c-.7 1.5-1.8 2.7-3.1 3.7-1.4 1-3 1.8-5 2.3-2 .5-4.2.8-6.6.8-1.3 0-2.6-.1-3.9-.2-1.3-.1-2.6-.3-3.9-.5-.3-.1-.6-.1-.8-.1-.2 0-2.3-.4-2.9-.5-.6-.1-1.1-.2-1.4-.3-.3-.1-.5-.2-.7-.4-.2-.2-.3-.5-.4-.8l-.7-8.5c-.1-.6.1-1 .5-1.3.4-.3.9-.3 1.4-.1 1.5.7 3.5 1.5 6.1 2.5 2.7.9 5.1 1.3 7.3 1.3 1.3 0 2.4-.2 3.3-.5.8-.3 1.2-.8 1.2-1.4 0-.3-.2-.7-.7-1-.8-.5-2.5-1-5.3-1.5-5.2-1-8.8-2.4-10.8-4.1-2.2-1.8-3.3-4.3-3.3-7.5 0-3.8 1.3-6.6 4-8.6 2.7-1.9 6.4-2.9 11.2-2.9 2.1 0 4.3.2 6.7.6 1.1.2 2.1.4 3 .6.9.2 1.6.4 2.1.5.2.1.5.2.7.4.2.2.3.5.3.7l.9 7.9c.1.6-.1 1-.5 1.3-.4.3-.9.3-1.4.1-.9-.4-1.9-.9-2.9-1.3s-2.1-.8-3.2-1.1c-2.2-.6-4.2-.9-6-.9-1.3 0-2.4.1-3.1.3-.7.2-1.1.6-1.1 1.1 0 .5.4.9 1.1 1.1.7.2 1.5.5 2.5.8 1 .3 2.2.5 3.5.8 4.9 1 8.2 2.3 10 4.1 2 1.9 3 4.4 3 7.4 0 2-.4 3.7-1.1 5.2z"/><g fill="#439539"><path d="M28.5 12.3c.1 0 .3.1.3.2.1.1.1.2 0 .4l-3.4 9.4c0 .1-.1.1-.2.2s-.1.1-.2.1h-1.5c-.1 0-.1 0-.2-.1-.1 0-.1-.1-.2-.2l-2.7-5.6-2.4 5.6c0 .1-.1.1-.2.2-.1 0-.1.1-.2.1h-1.5c-.1 0-.1 0-.2-.1l-.2-.2-3.4-9.4c-.1-.1 0-.3 0-.4.1-.1.2-.2.3-.2h2.7c.1 0 .1 0 .2.1l.2.2 1.5 4.2 2.1-4.3c0-.1.1-.1.2-.2.1 0 .1-.1.2-.1h1.7c.1 0 .1 0 .2.1.1 0 .1.1.1.2l2 4.3 1.5-4.2c0-.1.1-.1.2-.2s.2-.1.2-.1h2.9zM30.8 22.4c-.1 0-.2 0-.2-.1-.1-.1-.1-.2-.1-.3v-9.3c0-.1 0-.2.1-.3.1-.1.1-.1.2-.1h2.4c.1 0 .2 0 .2.1.1.1.1.2.1.3V22c0 .1 0 .2-.1.3-.1.1-.1.1-.2.1h-2.4zM43.5 20.6c-.2.4-.5.8-.9 1.1-.4.3-.9.5-1.4.7-.6.1-1.2.2-1.9.2h-1.1c-.4 0-.7-.1-1.1-.1h-.4c-.2 0-.5-.1-.6-.1-.2 0-.3-.1-.4-.1-.1 0-.1-.1-.2-.1-.1-.1-.1-.1-.1-.2l-.2-2.4c0-.2 0-.3.2-.4.1-.1.3-.1.4 0 .4.2 1 .4 1.7.7.8.3 1.5.4 2.1.4.4 0 .7 0 .9-.1.2-.1.4-.2.4-.4 0-.1-.1-.2-.2-.3-.2-.1-.7-.3-1.5-.4-1.5-.3-2.5-.7-3.1-1.2-.6-.5-.9-1.2-.9-2.2 0-1.1.4-1.9 1.1-2.4.8-.6 1.8-.8 3.2-.8.6 0 1.2.1 1.9.2.3.1.6.1.9.2.2.1.4.1.6.2.1 0 .1.1.2.1-.1-.3-.1-.3-.1-.2l.3 2.2c0 .2 0 .3-.2.4-.1.1-.3.1-.4 0-.3-.1-.5-.2-.8-.4l-.9-.3c-.6-.2-1.2-.3-1.7-.3-.4 0-.7 0-.9.1-.2.1-.3.2-.3.3 0 .1.1.2.3.3.2.1.4.1.7.2.3.1.6.2 1 .2 1.4.3 2.3.7 2.8 1.2.6.5.9 1.2.9 2.1 0 .7-.1 1.2-.3 1.6zM48.6 17.4c0 .4.1.7.2 1.1.1.3.3.6.6.8.5.5 1.3.7 2.3.7.7 0 1.3-.1 1.9-.2l.9-.3c.3-.1.5-.2.7-.2.1-.1.3 0 .4 0 .1.1.2.2.2.3v1.9c0 .1 0 .1-.1.2s-.1.1-.2.1c-.6.2-1.2.4-1.9.5-.7.1-1.4.2-2.3.2-1.9 0-3.4-.4-4.4-1.3-1.1-.9-1.7-2.1-1.7-3.7 0-.9.1-1.6.4-2.3.3-.7.7-1.2 1.2-1.7s1.1-.8 1.9-1c.7-.2 1.6-.4 2.5-.4.8 0 1.6.1 2.2.2.6.1 1.2.2 1.7.4.1 0 .1.1.2.1.1.1.1.1.1.2l.1 1.9c0 .2 0 .3-.1.4-.1.1-.2.1-.4 0-.4-.1-.9-.3-1.4-.4-.3-.1-.6-.1-.9-.2-.3 0-.6-.1-.9-.1-1 0-1.7.2-2.2.7-.8.6-1 1.3-1 2.1zM67.2 21.3c-1 .9-2.5 1.3-4.5 1.3s-3.5-.4-4.5-1.3-1.5-2.2-1.5-3.9c0-1.7.5-3.1 1.5-3.9 1-.9 2.5-1.3 4.5-1.3s3.5.4 4.5 1.3 1.5 2.2 1.5 3.9c0 1.7-.5 3-1.5 3.9zm-2.6-5.6c-.4-.4-1-.6-1.8-.6s-1.4.2-1.8.6c-.4.4-.6.9-.6 1.7 0 .7.2 1.3.6 1.7.4.4 1 .6 1.8.6s1.4-.2 1.8-.6c.4-.4.6-.9.6-1.7 0-.8-.2-1.3-.6-1.7zM76.5 16.4c.2.3.5.7.7 1v-4.7c0-.1 0-.2.1-.3.1-.1.2-.1.3-.1h2.5c.1 0 .2 0 .3.1.1.1.1.2.1.3V22c0 .1 0 .2-.1.3-.1.1-.2.1-.3.1h-2.9-.2c-.1 0-.1-.1-.2-.1l-3.6-4.9V22c0 .1 0 .2-.1.3-.1.1-.2.1-.3.1h-2.5c-.1 0-.2 0-.3-.1-.1-.1-.1-.2-.1-.3v-9.3c0-.1 0-.2.1-.3.1-.1.2-.1.3-.1h2.8c.1 0 .1 0 .2.1l.1.1c.4.5.7 1 1.1 1.5.4.5.7 1 1.1 1.5.5.3.7.6.9.9zM90.5 20.6c-.2.4-.5.8-.9 1.1-.4.3-.9.5-1.4.7-.6.1-1.2.2-1.9.2h-1.1c-.4 0-.7-.1-1.1-.1h-.4c-.2 0-.5-.1-.6-.1-.2 0-.3-.1-.4-.1-.1 0-.1-.1-.2-.1-.1-.1-.1-.1-.1-.2l-.2-2.4c0-.2 0-.3.2-.4.1-.1.3-.1.4 0 .4.2 1 .4 1.7.7.8.3 1.5.4 2.1.4.4 0 .7 0 .9-.1.2-.1.4-.2.4-.4 0-.1-.1-.2-.2-.3-.2-.1-.7-.3-1.5-.4-1.5-.3-2.5-.7-3.1-1.2-.6-.5-.9-1.2-.9-2.2 0-1.1.4-1.9 1.1-2.4.8-.6 1.8-.8 3.2-.8.6 0 1.2.1 1.9.2.3.1.6.1.9.2.2.1.4.1.6.2.1 0 .1.1.2.1.1.1.1.1.1.2l.3 2.2c0 .2 0 .3-.2.4-.1.1-.3.1-.4 0-.3-.1-.5-.2-.8-.4l-.9-.3c-.6-.2-1.2-.3-1.7-.3-.4 0-.7 0-.9.1-.2.1-.3.2-.3.3 0 .1.1.2.3.3.2.1.4.1.7.2.3.1.6.2 1 .2 1.4.3 2.3.7 2.8 1.2.6.5.9 1.2.9 2.1-.1.3-.2.8-.5 1.2zM92.7 22.4c-.1 0-.2 0-.2-.1-.1-.1-.1-.2-.1-.3v-9.3c0-.1 0-.2.1-.3.1-.1.1-.1.2-.1h2.4c.1 0 .2 0 .2.1.1.1.1.2.1.3V22c0 .1 0 .2-.1.3-.1.1-.1.1-.2.1h-2.4zM103.6 16.4c.2.3.5.7.7 1v-4.7c0-.1 0-.2.1-.3.1-.1.2-.1.3-.1h2.5c.1 0 .2 0 .3.1.1.1.1.2.1.3V22c0 .1 0 .2-.1.3-.1.1-.2.1-.3.1h-2.9-.2c-.1 0-.1-.1-.2-.1l-3.6-4.9V22c0 .1 0 .2-.1.3-.1.1-.2.1-.3.1h-2.5c-.1 0-.2 0-.3-.1-.1-.1-.1-.2-.1-.3v-9.3c0-.1 0-.2.1-.3.1-.1.2-.1.3-.1h2.8c.1 0 .1 0 .2.1.1 0 .1.1.1.1.4.5.7 1 1.1 1.5.4.5.7 1 1.1 1.5.4.3.6.6.9.9zM111.5 14.3l-.6 1.7c0 .1-.1.1-.1.2-.1 0-.1.1-.2.1h-.8c-.1 0-.2 0-.3-.1-.1-.1-.1-.2 0-.3l.4-1.1h-.3c-.1 0-.2 0-.2-.1-.1-.1-.1-.1-.1-.2v-1.8c0-.1 0-.2.1-.2.1-.1.1-.1.2-.1h1.6c.1 0 .2 0 .2.1.1.1.1.2.1.2v1.6zM120.8 20.6c-.2.4-.5.8-.9 1.1-.4.3-.9.5-1.4.7-.6.1-1.2.2-1.9.2h-1.1c-.4 0-.7-.1-1.1-.1h-.4c-.2 0-.5-.1-.6-.1-.2 0-.3-.1-.4-.1-.1 0-.1-.1-.2-.1-.1-.1-.1-.1-.1-.2l-.2-2.4c0-.2 0-.3.2-.4.1-.1.3-.1.4 0 .4.2 1 .4 1.7.7.8.3 1.5.4 2.1.4.4 0 .7 0 .9-.1.2-.1.4-.2.4-.4 0-.1-.1-.2-.2-.3-.2-.1-.7-.3-1.5-.4-1.5-.3-2.5-.7-3.1-1.2-.6-.5-.9-1.2-.9-2.2 0-1.1.4-1.9 1.1-2.4.8-.6 1.8-.8 3.2-.8.6 0 1.2.1 1.9.2.3.1.6.1.9.2.2.1.4.1.6.2.1 0 .1.1.2.1.1.1.1.1.1.2l.3 2.2c0 .2 0 .3-.2.4-.1.1-.3.1-.4 0-.3-.1-.5-.2-.8-.4l-.9-.3c-.6-.2-1.2-.3-1.7-.3-.4 0-.7 0-.9.1-.2.1-.3.2-.3.3 0 .1.1.2.3.3.2.1.4.1.7.2.3.1.6.2 1 .2 1.4.3 2.3.7 2.8 1.2.6.5.9 1.2.9 2.1-.2.3-.3.8-.5 1.2z"/></g></svg>