<svg viewBox="0 0 145.13 33.47" xmlns="http://www.w3.org/2000/svg"><path fill="#fff" stroke="#231f20" stroke-width=".312" stroke-miterlimit="2.613" d="M78.7 25.82h65.86v7.49H78.7v-7.49z"/><path fill-rule="evenodd" clip-rule="evenodd" fill="#231f20" stroke="#231f20" stroke-width=".09" stroke-miterlimit="2.613" d="M78.47 25.82h38.96v7.49H78.47v-7.49z"/><path d="M80.14 26.64h3.12c.68 0 1.19.16 1.53.49.34.32.51.78.51 1.38 0 .61-.18 1.09-.55 1.44-.37.35-.93.52-1.69.52h-1.03v2.25h-1.89v-6.08zm1.88 2.59h.46c.36 0 .62-.06.76-.19.15-.13.22-.29.22-.48s-.06-.35-.19-.49c-.13-.13-.37-.2-.72-.2h-.53v1.36zM86.65 29.52c0-.99.28-1.76.83-2.32.55-.55 1.32-.83 2.31-.83 1.01 0 1.79.27 2.34.81.55.54.82 1.3.82 2.28 0 .71-.12 1.29-.36 1.75-.24.45-.58.81-1.04 1.06-.45.25-1.01.38-1.69.38-.68 0-1.25-.11-1.7-.33-.45-.22-.81-.56-1.09-1.04-.28-.46-.42-1.05-.42-1.76zm1.88.01c0 .61.11 1.05.34 1.32.23.27.54.4.93.4.4 0 .72-.13.94-.39.22-.26.33-.73.33-1.41 0-.57-.12-.99-.35-1.25-.23-.26-.54-.4-.94-.4-.38 0-.68.13-.91.4-.23.26-.34.71-.34 1.33zM93.88 26.61h1.78l.65 3.4.93-3.4h1.78l.94 3.4.64-3.4h1.78l-1.34 6.08H99.2l-1.07-3.83-1.06 3.83h-1.84l-1.35-6.08zM104 26.61h5.03v1.3h-3.15v.97h2.93v1.24h-2.93v1.19h3.24v1.38H104v-6.08zM110.79 32.69v-6.07h3.13c.58 0 1.02.05 1.33.15.31.1.55.28.74.55.19.27.28.6.28.98 0 .34-.07.63-.21.87-.14.24-.34.44-.59.6-.16.1-.38.18-.66.24.22.07.39.15.49.22.07.05.17.16.3.32.13.16.22.29.26.38l.91 1.76h-2.12l-1-1.86c-.13-.24-.24-.4-.34-.47a.806.806 0 00-.46-.14h-.17v2.47h-1.89zm1.88-3.61h.79c.08 0 .25-.03.5-.08.12-.03.23-.09.31-.19.08-.1.12-.22.12-.35 0-.2-.06-.35-.19-.45-.12-.11-.36-.16-.7-.16h-.82v1.23h-.01z" fill-rule="evenodd" clip-rule="evenodd" fill="#fff"/><path d="M120.82 27.25v2.3h1c.56 0 .97-.09 1.23-.28.27-.19.4-.47.4-.86 0-.4-.13-.7-.4-.88-.27-.19-.7-.28-1.29-.28h-.94zm-.68-.59h1.47c.42 0 .76.02 1.01.06.25.04.46.1.63.19.3.16.54.37.7.62.16.26.24.54.24.86a1.676 1.676 0 01-.84 1.46c-.18.11-.4.19-.66.23-.26.05-.58.07-.97.07h-.91v2.54h-.68v-6.03h.01zM128.88 32.61h-3.11v-6.04h.68v5.45h2.43v.59zM131.08 32.53h-.72l2.68-6.03h.82l2.67 6.03h-.73l-.83-1.89h-3.08l-.81 1.89zm3.66-2.44l-1.31-3.03-1.29 3.03h2.6zM140.31 30.5v2.22h-.67v-2.23l-2.2-3.81h.78l1.76 3.13 1.78-3.13h.76l-2.21 3.82z" fill-rule="evenodd" clip-rule="evenodd" fill="#231f20"/><circle cx="11.82" cy="11.82" r="11.44" fill="#fff" stroke="#231f20" stroke-width=".763"/><circle cx="36.2" cy="11.82" r="11.44" fill="#fff" stroke="#231f20" stroke-width=".763"/><circle cx="60.57" cy="11.82" r="11.44" fill="#fff" stroke="#231f20" stroke-width=".763"/><circle cx="84.94" cy="11.82" r="11.44" fill="#fff" stroke="#231f20" stroke-width=".763"/><circle cx="109.31" cy="11.82" r="11.44" fill="#fff" stroke="#231f20" stroke-width=".763"/><circle cx="133.68" cy="11.82" r="11.44" fill="#e11d39"/><path d="M7.35 18.35c-.81-6.34-.45-9.95.37-13.2 2.03-.22 3.46-.08 5.5-.06 3.6.07 5.55 2.04 5.65 4.58.07 2.68-1.72 4.52-5.49 4.56-.73 0-1.45 0-2.18-.01.01 1.37.03 2.74.07 4.12-1.4.09-2.53.05-3.92.01zm5.64-7.23c1.01 0 2.01-.58 2-1.72-.01-1.23-1.61-1.43-2.52-1.42-.41 0-.81.01-1.22.01-.01.98-.07 2.15-.07 3.13.61.01 1.21 0 1.81 0z" fill="#0c1525" stroke="#231f20" stroke-width=".356"/><path d="M42.99 11.45c-.06 4.15-3.25 6.91-6.85 6.94-3.82-.04-6.78-2.82-6.83-6.97.05-3.83 3.04-6.72 6.83-6.76 4.37.07 6.83 3.59 6.85 6.79zm-9.41 0c0 1.65.54 3.74 2.56 3.75 1.82-.01 2.57-1.61 2.57-3.75 0-1.76-.76-3.66-2.61-3.61-1.9.01-2.52 1.98-2.52 3.61z" fill="#0c1525" stroke="#231f20" stroke-width=".35"/><path d="M63.94 13.11h.04c.62-2.78 1.04-5.06.87-7.71 1.71.04 1.79.04 3.05.08.81 3.7-.29 8.32-2.48 12.84-1.38.04-2.34-.01-3.59.05-.26-2.63-.81-5.28-1.34-7.94h-.04c-.52 2.66-1.06 5.31-1.32 7.94-1.47.04-1.55.04-3.26 0-2.18-4.51-3.57-8.98-2.52-12.96 1.54.04 1.58 0 2.88 0-.18 2.65.11 4.94.74 7.71h.04c.43-2.75 1.28-4.96 1.97-7.8 1.05-.06 2.1-.06 3.15 0 .69 2.84 1.38 5.04 1.81 7.79z" fill="#0c1525" stroke="#231f20" stroke-width=".327"/><path d="M80.18 18.03c-1-4.24-.88-8.51 0-12.65 3.44-.45 5.92-.44 9.36-.01.37.98.65 1.89.81 2.89-2.28-.04-4.31-.13-6.45-.1-.01.63-.01 1.27-.01 1.9 1.83-.01 3.66 0 5.49.05.02 1.01.02 2.01 0 3.02-1.83.04-3.66.05-5.49.04 0 .7.01 1.39.01 2.09 2.22.03 4.44-.03 6.66-.18-.09 1.1-.21 2-.58 2.97-3.52.47-6.28.44-9.8-.02z" fill="#0c1525" stroke="#231f20" stroke-width=".356"/><path d="M107.76 13.58c.02 1.59.04 3.21.12 4.79-1.46.04-2.48-.04-3.66-.24-1.34-4.19-.97-8.94.37-12.92 1.96-.38 3.16-.32 5.12-.32 4.09.1 5.56 1.74 5.77 4.14.1 1.47-.65 2.6-2.24 3.05 1.41.51 2.53.91 2.32 3.48-.16 1.67-.6 2.28-.1 2.19l-.06.39c-1.5.2-2.52.16-3.9.24-.09-.3-.11-.92-.08-2.14.05-1.79-.26-2.64-2.31-2.64-.46 0-.9-.01-1.35-.02zm-.01-2.72c.58 0 1.17-.01 1.75-.01 1.37 0 2.11-.34 2.09-1.29-.02-.97-.77-1.45-1.78-1.45-.67 0-1.35.01-2.02.03-.02.91-.04 1.81-.04 2.72z" fill="#0c1525" stroke="#231f20" stroke-width=".353"/><path d="M124.66 15.55c-.88-2.85-.69-5.36.01-7.99.73-.04 1.46-.08 2.2-.11 1.04-.04 1.71.39 1.53 2.07-.09.87-.44 1.5-.76 1.84.54.24.83 1.04.9 1.97.15 1.91-.43 2.53-1.63 2.43-.75-.06-1.5-.13-2.25-.21zm1.04-6.16c-.08.45-.14.91-.17 1.37.23 0 .45 0 .68.01.33 0 .57-.24.62-.72.07-.65-.23-.66-.57-.65-.18-.01-.37-.01-.56-.01zm-.17 2.86c.03.51.08 1.01.17 1.52.23.01.47.03.7.04.4.02.66-.1.61-.73-.06-.73-.43-.79-.95-.81-.18-.01-.36-.01-.53-.02zM128.85 15.61c.04-2.69.99-5.43 2.09-8.19l1.95-.03c.52 2.76 1.47 5.53 2.09 8.3h-1.9c-.1-.37-.19-.73-.29-1.1-.66 0-1.32-.01-1.98-.02-.04.36-.06.72-.08 1.08-.63-.01-1.25-.02-1.88-.04zm2.86-5.71c-.25.99-.48 1.98-.65 2.96h1.31c-.25-.99-.48-1.98-.66-2.96zM135.62 15.73c.15-2.76.15-5.52 0-8.28.59 0 1.18.01 1.77.02.28 2.1.34 4.21.2 6.31l2.59-.03c-.08.63-.2 1.26-.35 1.89-1.4.05-2.8.08-4.21.09zM140.33 15.61c.58-2.75.61-5.31.03-8.06.45.02 1 .08 1.46.12.57 2.07.57 3.91.27 5.98.66-.02 1.2.02 1.86-.01-.12.61-.41 1.21-.64 1.82-1.07.08-1.9.09-2.98.15z" fill="#fff"/></svg>