<svg viewBox="9.7 7.5 347.6 102.1" xmlns="http://www.w3.org/2000/svg"><path d="M14.3 28.7c2.7 0 4.7.3 6 .9 2.3 1.1 3.5 2.8 3.5 5.2 0 2.3-1.2 4-3.5 5.1-1.4.7-3.4.9-6.2.9H9.7V28.7h4.6zm-1.4 10.2h1.9c3.6 0 5.7-1.6 5.7-4.2 0-2.7-2-4.2-5.8-4.2h-1.8v8.4zM75.6 28.7l6.3 12.1h-3.4l-1.4-2.9H70l-1.4 2.9h-3.2l6.3-12.1h3.9zm-4.7 7.5h5.3l-2.6-5.4-2.7 5.4zM129.5 28.7v12.1h-3.2V28.7h3.2zM180.6 28.7V39h6.5v1.8h-9.7V28.7h3.2zM232.5 28.7l4 5.4 4-5.4h3.5l-6 7.3v4.8h-3.2V36l-5.9-7.3h3.6z"/><circle fill="#25358E" cx="295.5" cy="58.5" r="51"/><g fill="#25358E"><path d="M9.7 49.3h31.1c8.8 0 15.4.5 20.1 2.2 6.8 2.5 10.4 6.3 10.4 11 0 7.8-10.3 13.3-26.2 13.3h-13V91H9.7V49.3zM38 66.9c6.1 0 9.6-1.6 9.6-4.1 0-2.6-2.8-4.1-8.2-4.1h-7.3v8.2H38zM78.7 49.3h22.8v41.6H78.7V49.3zM144.6 58c-7.7 0-10.9 4.1-10.9 12.4 0 7.7 3 11.5 10.6 11.5 5.8 0 8.8-2.3 9.7-7l20.5.8c-1.9 10-13.1 16-30.1 16-20.1 0-33.5-8-33.5-21.2 0-14 12.8-22.1 33.6-22.1 17.5 0 28.9 6.2 30.1 16.9l-21 .7c-.2-5.2-3.8-8-9-8zM183 49.3h20.4v17.3l19.5-17.3h20.5L225 64.7 247.9 91h-24.1l-13.2-16.1-7.1 5.8V91H183V49.3z"/></g><path fill="#F15D2A" d="M299.8 90.5h-44.1l-21.5-25.3 65.4-57.5h35.6v57.6h22.1l-22.1 25.3v19h-35.4V90.5zm0-52.1l-29.5 26.8h29.5V38.4z"/></svg>