<svg viewBox="2.775 2.203 120.044 43.757" xmlns="http://www.w3.org/2000/svg"><g stroke="#000" stroke-width="9.492"><path d="M28.1 22.1c.1-.2.2-.3.3-.3h3.2c.1 0 .2.1.1.2l-4.5 9.7c-.2.4 0 .5.2.5s.5-.1.6-.5l4.5-9.7c.1-.1.2-.2.3-.2h3.3c.1 0 .2.1.1.2l-6.9 14.9c0 .1-.2.2-.3.2h-3c-.2 0 .1-.9 0-.9s-.2.1-.4.2c-.7.4-1.2.7-2.1.7-1 0-2-.9-1.2-2.6l5.8-12.4zM40.8 21.8c.1 0 .1.6.2.6s.2-.1.4-.2c.5-.3 1.1-.5 1.7-.5 1.3 0 2.3.9.4 5.1L41 32.1C39.2 36 37.1 37 35.8 37c-.6 0-1-.2-1.2-.5-.1-.1-.1-.2-.1-.2l-.2.2-1.9 4.1c-.1.1-.2.3-.3.3h-3.3c-.1 0-.2-.1-.1-.2L37.2 22c.1-.1.2-.2.3-.2h3.3zm-4.6 10.6c-.2.4-.1.6.1.6s.4-.2.6-.5l3-6.4c.1-.1.2-.5-.1-.5-.1 0-.3.1-.3.1-.2.1-.3.3-.4.5l-2.9 6.2zM44.5 25.9c1.4-3 4.2-4.1 6.3-4.1 2.9 0 3.5 2.2 2.3 4.7l-.7 1.6c-.1.1-.2.2-.3.2h-4.2c-.1 0-.2.1-.2.2l-1.9 4c-.2.4-.1.6.1.6s.5-.2.7-.5l.7-1.5c0-.1.2-.2.3-.2l3.2.2c.1 0 .2.1.1.3l-.8 1.6c-1.5 3.3-4.2 4.2-6.5 4.2-2.7 0-3.4-1.9-2-4.8l2.9-6.5zm3.9.9c0 .1 0 .1.1.1.6 0 .7 0 .7-.1.8-1.6.8-1.8.4-1.8-.2 0-.5.2-.6.5l-.6 1.3zM56.1 22c.1-.1.1-.2.2-.2h3.6c.2 0 0 .8.1.8s.1-.1.2-.2c.5-.6 1.1-.6 1.9-.6.1 0 .1.1.1.2l-1.7 3.7c0 .1-.1.2-.3.2-1.3 0-2.1.7-3.1 2.7l-3.9 8.3c-.1.1-.2.2-.3.2h-3.7c-.1 0-.1-.1-.1-.2l7-14.9zM63.4 21.3c2.9-6.2 7.4-9.8 12.1-9.8 5 0 5.6 4.2 3.3 9.1-.4.9-.5 1-.8 1l-6.4.2c-.3 0-.5-.3-.3-.7l1-2.1c.2-.5 0-.6-.2-.6-.3 0-.7.2-.8.6l-4.9 10.5c-.2.3 0 .6.3.6s.7-.3.8-.6l1.6-3.4c.1-.2.4-.5.6-.5l6.3.2c.2 0 .2.1.1.3-3.8 8.2-8.5 11-12.8 11-4.7 0-5.4-4.2-3.1-9.1l3.2-6.7zM77 26.9c-.2 0-.1-.1.4-1.3.9-2 3.3-3.8 6-3.8 2.8 0 3.5 1.8 2.6 3.7l-3.2 6.9c-.1.2 0 .2.5.2.1 0 .1.1.1.2l-.7 1.6c-.6 1.2-2.4 2.7-3.8 2.7-1.2 0-1.4-.4-1.6-1 0-.2-.1-.2-.1-.2s-.2.1-.4.3c-.5.4-1.3.9-2.2.9-1.1 0-2.2-.9-1-3.4l.9-1.9c.9-2 2.8-3.1 4.5-3.7 2.2-.8 2.5-1.1 2.9-2 .2-.4.1-.5-.1-.5-.4 0-.5.2-1 1.3-.1.1-.2.2-.3.2l-3.5-.2zm2.7 3.6c0-.1 0-.2-.1-.2-.2 0-.8.2-1 .8l-.9 1.9c-.1.3 0 .4.2.4s.5-.1.6-.4l1.2-2.5zM91.5 27.1c-.1 0-.2-.1-.1-.2.4-.8.4-1.2 0-1.2-.2 0-.5.2-.6.5-.2.5.1 1.3 1 2.6.8 1.3 1 2.4.3 4-1 2.2-3.1 4.3-6.2 4.3-1.7 0-3.6-.9-1.6-5.2.1-.1.2-.2.3-.2l2.9-.2c.1 0 .1.1.1.2-.4.9-.3 1.5 0 1.5.2 0 .4-.2.6-.4.3-.6-.2-1.6-1.1-2.8-.7-.8-.9-2.2 0-4.1 1.1-2.3 3.7-4 5.9-4 3.1 0 3.2 2.4 2.1 4.9-.1.1-.2.2-.4.2l-3.2.1zM99.9 17.9c.1-.2.2-.3.4-.3h3.6c.2 0 .2.1.1.2l-2.2 4.6c-.1.2-.1.2 0 .2 0 0 .2-.1.3-.2.6-.4 1.4-.7 2.1-.7 1.1 0 2.1.6 1.2 2.6l-5.8 12.5c0 .1-.1.2-.2.2H96c-.1 0-.1-.1-.1-.2l4.9-10.5c.2-.4 0-.5-.2-.5s-.5.1-.6.5l-4.9 10.5c0 .1-.2.2-.3.2h-3.6c-.1 0-.1-.1-.1-.2l8.8-18.9zM105.7 36.7c-.1.2-.3.4-.5.4H101c-.2 0-.2-.2-.1-.4l2-4.2c.1-.2.4-.4.5-.4h4.2c.2 0 .3.1.2.3l-2.1 4.3zm5.9-24.8c.1-.2.2-.3.4-.3h5.7c.2 0 .3.1.2.3l-9.4 18.6c-.1.2-.4.4-.6.4h-4.1c-.1 0-.3-.2-.2-.4l8-18.6z"/></g><path stroke="#000" stroke-width="9.492" d="M13.8 39.2c-.1.2-.3.3-.4.3h-2.6c-.3 0-.2-.3 1-2.7-3.5-.8-4.2-3.6-2-8.3.1-.2.3-.3.5-.4l4.8-.3c.2 0 .3.1.2.4-.4 1.4-.2 2.3.6 2.3.5 0 1-.4 1.2-.9.5-1.1 0-1.9-1.8-4.2-1.3-1.7-1.6-4-.2-6.9 1.4-3.1 4.8-6.3 8.5-7.1l1-2.2c.1-.2.3-.4.4-.4h2.7c.3 0 .2.2-.9 2.6 3 .8 3.6 3.8 2 7.4-.1.2-.3.4-.6.4l-5.2.4c-.3 0-.2-1.5-.5-1.5s-.6.3-.8.6c-.5 1 .3 2 1.8 4 1.4 1.9 1.5 4.2.4 6.7-1.9 4-5.2 6.8-9 7.5l-1.1 2.3z"/><g fill="#0081C3" stroke="#0081C3" stroke-width="7.594"><path d="M26.3 19.5c.1-.2.2-.3.3-.3h3.2c.1 0 .2.1.1.2l-4.5 9.7c-.2.4 0 .5.2.5s.5-.1.6-.5l4.5-9.7c.1-.1.2-.2.3-.2h3.3c.1 0 .2.1.1.2l-6.9 14.9c0 .1-.2.2-.3.2h-3c-.2 0 .1-.9 0-.9s-.2.1-.4.2c-.7.4-1.2.7-2.1.7-1 0-2-.9-1.2-2.6l5.8-12.4zM39 19.2c.1 0 .1.6.2.6s.2-.1.4-.2c.5-.3 1.1-.5 1.7-.5 1.3 0 2.3.9.4 5.1l-2.5 5.3c-1.8 3.9-3.9 4.9-5.2 4.9-.6 0-1-.2-1.2-.5-.1-.1-.1-.2-.1-.2l-.2.2-1.9 4.1c-.1.1-.2.3-.3.3H27c-.1 0-.2-.1-.1-.2l8.7-18.6c.1-.1.2-.2.3-.2H39zm-4.6 10.6c-.2.4-.1.7.2.7.2 0 .4-.2.6-.5l3-6.4c.1-.1.2-.5-.1-.5-.1 0-.3.1-.3.1-.2.1-.3.3-.4.5l-3 6.1zM42.8 23.3c1.4-3 4.2-4.1 6.3-4.1 2.9 0 3.5 2.2 2.3 4.7l-.7 1.6c-.1.1-.2.2-.3.2h-4.2c-.1 0-.2.1-.2.2l-1.9 4c-.2.4-.1.6.1.6s.5-.2.7-.5l.7-1.5c0-.1.2-.2.3-.2l3.2.2c.1 0 .2.1.1.3l-.8 1.6c-1.5 3.3-4.2 4.2-6.5 4.2-2.7 0-3.4-1.9-2-4.8l2.9-6.5zm3.8.9c0 .1 0 .1.1.1.6 0 .7 0 .7-.1.8-1.6.8-1.8.4-1.8-.2 0-.5.2-.6.5l-.6 1.3zM54.4 19.4c.1-.1.1-.2.2-.2h3.6c.2 0 0 .8.1.8s.1-.1.2-.2c.5-.6 1.1-.6 1.9-.6.1 0 .1.1.1.2L58.8 23c0 .1-.1.2-.3.2-1.3 0-2.1.7-3.1 2.7l-3.9 8.3c-.1.1-.2.2-.3.2h-3.7c-.1 0-.1-.1-.1-.2l7-14.8zM61.6 18.7C64.5 12.5 69 9 73.7 9c5 0 5.6 4.2 3.3 9.1-.4.9-.5 1-.8 1l-6.4.2c-.3 0-.5-.3-.3-.7l1-2.1c.2-.5 0-.6-.2-.6-.3 0-.7.2-.8.6L64.6 27c-.2.3 0 .6.3.6s.7-.3.8-.6l1.6-3.4c.1-.2.4-.5.6-.5l6.3.2c.2 0 .2.1.1.3-3.8 8.2-8.5 11-12.8 11-4.7 0-5.4-4.2-3.1-9.1l3.2-6.8zM75.2 24.3c-.2 0-.1-.1.4-1.3.9-2 3.3-3.8 6-3.8 2.8 0 3.5 1.8 2.6 3.7L81 29.8c-.1.2 0 .2.6.2.1 0 .1.1.1.2l-.7 1.6c-.6 1.2-2.4 2.7-3.8 2.7-1.2 0-1.4-.4-1.6-1 0-.2-.1-.2-.1-.2s-.2.1-.4.3c-.5.4-1.3.9-2.2.9-1.1 0-2.2-.9-1-3.4l.9-1.9c.9-2 2.8-3.1 4.5-3.7 2.2-.8 2.5-1.1 2.9-2 .2-.4.1-.5-.1-.5-.4 0-.5.2-1 1.3-.1.1-.2.2-.3.2l-3.6-.2zm2.7 3.6c0-.1 0-.2-.1-.2-.2 0-.8.2-1 .8l-.8 1.9c-.1.3 0 .4.2.4s.5-.1.6-.4l1.1-2.5zM89.8 24.5c-.1 0-.2-.1-.1-.2.4-.8.4-1.2 0-1.2-.2 0-.5.2-.6.5-.2.5.1 1.3 1 2.6.8 1.3 1 2.4.3 4-1 2.2-3.1 4.3-6.2 4.3-1.7 0-3.6-.9-1.6-5.2.1-.1.2-.2.3-.2l2.9-.2c.1 0 .1.1.1.2-.4.9-.3 1.5 0 1.5.2 0 .4-.2.6-.4.3-.6-.2-1.6-1.1-2.8-.7-.8-.9-2.2 0-4.1 1.1-2.3 3.7-4 5.9-4 3.1 0 3.2 2.4 2.1 4.9-.1.1-.2.2-.4.2l-3.2.1zM98.1 15.3c.1-.2.2-.3.4-.3h3.6c.2 0 .2.1.1.2l-2.2 4.6c-.1.2-.1.2 0 .2 0 0 .2-.1.3-.2.6-.4 1.4-.7 2.1-.7 1.1 0 2.1.6 1.2 2.6L98 34.3c0 .1-.1.2-.2.2h-3.5c-.1 0-.1-.1-.1-.2L99 23.8c.2-.4 0-.5-.2-.5s-.5.1-.6.5l-4.9 10.5c0 .1-.2.2-.3.2h-3.6c-.1 0-.1-.1-.1-.2l8.8-19zM103.9 34.1c-.1.2-.3.4-.5.4h-4.1c-.2 0-.2-.2-.1-.4l2-4.2c.1-.2.4-.4.5-.4h4.2c.2 0 .3.1.2.3l-2.2 4.3zm6-24.8c.1-.2.2-.3.4-.3h5.7c.2 0 .3.1.2.3l-9.4 18.6c-.1.2-.4.4-.6.4h-4.1c-.1 0-.3-.2-.2-.4l8-18.6z"/></g><path fill="#0081C3" stroke="#0081C3" stroke-width="7.594" d="M12.1 36.6c-.1.2-.3.3-.4.3H9c-.3 0-.2-.3 1-2.7-3.5-.8-4.2-3.6-2-8.3.1-.2.3-.3.5-.4l4.8-.3c.2 0 .3.1.2.4-.4 1.4-.2 2.3.6 2.3.5 0 1-.4 1.2-.9.5-1 0-1.9-1.8-4.2-1.3-1.7-1.6-4-.2-6.9 1.4-3.1 4.8-6.3 8.5-7.1l1-2.2c.1-.2.3-.4.4-.4h2.7c.3 0 .2.2-.9 2.6 3 .8 3.6 3.8 2 7.4-.1.2-.3.4-.6.4l-5.2.4c-.3 0-.2-1.5-.5-1.5s-.6.3-.8.6c-.5 1 .3 2 1.8 4 1.4 1.9 1.5 4.2.4 6.7-1.9 4-5.2 6.8-9 7.5l-1 2.3z"/><g fill="#FFF200"><path d="M30.4 18.6c-.2-.1-.4-.2-.6-.2h-3.2c-.5 0-1 .3-1.2.8l-5.8 12.4c-.7 1.4-.4 2.4 0 2.9.4.7 1.2 1.1 2.1 1.1.7 0 1.3-.2 1.8-.4l.7.4h3c.5 0 .9-.3 1.1-.7L35.2 20c.2-.3.1-.7-.1-1-.2-.3-.6-.5-.9-.5H31c-.2-.1-.4-.1-.6.1z"/><path d="M35.8 18.4c-.5 0-1 .3-1.2.8l-8.7 18.6c-.2.4-.1.8.1 1.1.2.3.5.5.9.5h3.3c.6 0 1-.4 1.2-.8 0 0 1-2 1.5-3.2.3.1.7.2 1 .2 1.1 0 3.7-.5 6-5.4l2.5-5.3c1.2-2.6 1.5-4.4.8-5.4-.3-.4-.9-1-2-1-.5 0-1 .1-1.6.3-.2-.3-.5-.3-.7-.3h-3.1z"/><path d="M41.9 23L39 29.3c-1.2 2.5-.8 3.9-.3 4.7.4.7 1.3 1.4 3.2 1.4 1.9 0 5.5-.6 7.4-4.8l.8-1.6c.1-.2.1-.3.1-.5s0-.3-.1-.5c-.2-.3-.5-.5-.8-.6h-.1s-2.3-.1-2.9-.2l.3-.6h3.8c.5 0 1-.3 1.2-.8l.7-1.6c.4-.9.6-1.8.6-2.6 0-.7-.2-1.4-.5-1.9-.4-.7-1.4-1.5-3.3-1.5-2.3.2-5.6 1.4-7.2 4.8z"/><path d="M58.2 18.4h-3.6c-.5 0-.9.3-1.1.7L46.6 34c-.2.4-.2.8 0 1.1l.3.4h4.3c.5 0 1-.3 1.2-.8l3.9-8.3c.9-2 1.5-2.2 2.2-2.2.5 0 .9-.3 1.1-.7l1.7-3.7c.2-.3.1-.7-.1-1l-.2-.4h-.6c-.5 0-1 0-1.5.2 0-.2-.7-.2-.7-.2z"/><path d="M60.8 18.4l-3.1 6.7c-1.6 3.4-1.8 6.4-.5 8.3.6 1 1.9 2.1 4.5 2.1 3.8 0 9.2-2 13.6-11.5.2-.4.2-.8-.1-1.1-.2-.3-.6-.5-1-.5l-6.3-.2c.5-1.1.6-1.3 1.1-2.3.2.2.5.4.9.4l6.4-.2c.9 0 1.1-.6 1.6-1.6 1.6-3.4 1.8-6.3.6-8.2-.6-1-2-2.2-4.7-2.2-5.2 0-10 3.9-13 10.3z"/><path d="M81.6 18.4c-3.1 0-5.8 2.2-6.8 4.4-.4.9-.6 1.3-.6 1.7 0 .2.1.3.2.5l.3.4.6.1c-1.6.8-2.7 2-3.4 3.5l-.9 1.9c-.4.8-.6 1.6-.6 2.3 0 .5.1 1 .4 1.4.4.7 1.2 1.1 2.1 1.1.9 0 1.7-.4 2.2-.7.4.5 1.1.8 2 .8 1.8 0 3.9-1.7 4.6-3.3l.7-1.6c.1-.2.1-.3.1-.5s-.1-.4-.2-.6c0 0-.1-.1-.1-.2.9-1.9 2.8-6 2.8-6 .3-.7.5-1.3.5-1.9 0-.6-.2-1.1-.5-1.6-.3-.9-1.3-1.7-3.4-1.7z"/><path d="M91.2 18.4c-2.7 0-5.6 1.9-6.8 4.5-.5 1-.7 1.9-.7 2.7 0 1.2.4 2 .8 2.4 0 0 0 .1.1.1-.8.1-1.9.1-1.9.1-.4 0-.9.3-1.1.8-1.1 2.3-1.2 4-.5 5.2.6.9 1.6 1.4 2.9 1.4 3 0 5.6-1.8 7.1-4.9.4-.8.6-1.6.6-2.3 0-.9-.3-1.7-.9-2.7-.1-.1-.1-.1-.1-.2.9-.1 2.2-.1 2.2-.1.5 0 1-.3 1.2-.8.5-1.1.8-2.1.8-2.9 0-.7-.2-1.3-.5-1.8-.4-.7-1.3-1.5-3.2-1.5z"/><path d="M97.3 15l-8.8 18.9c-.2.3-.1.8.1 1.1l.3.4.6.1h3.6c.2 0 .4-.1.6-.2.2.1.4.2.6.2h3.5c.4 0 .9-.3 1.1-.7l5.8-12.5c.6-1.2.6-2.2.1-2.9-.4-.7-1.2-1-2.2-1-.2 0-.5.1-.7.1.6-1.3 1.3-2.8 1.3-2.8.1-.2.1-.4.1-.5 0-.3-.1-.4-.2-.6-.1-.2-.4-.5-1-.5h-3.6c-.5.1-1 .4-1.2.9z"/><path d="M109.1 8.9l-8.3 18.5c-.1.2-.1.4-.1.7 0 .2.1.3.1.4-.4.2-.8.4-.9.7l-2 4.4c-.1.2-.1.4-.1.6 0 .2.1.4.2.6.2.3.6.5.9.5l4.1.1c.6 0 1.2-.4 1.4-.9l2.1-4.6c.1-.2.1-.3.1-.5 0-.1 0-.1-.1-.2.7-.3 1.1-1.1 1.2-1.1L117 9.7c.2-.4.2-.8 0-1.1-.2-.3-.6-.5-1-.5l-5.7-.1c-.4.1-.9.4-1.2.9zM22 6.3s-.6 1.3-.9 1.8c-4.1 1-7.3 4.5-8.7 7.5-.7 1.4-1 2.8-1 4.1 0 1.5.4 2.8 1.3 3.9.3.4.5.7.7.9-.1 0-.1-.1-.2-.1s-4.8.3-4.8.3h-.2c-.5.1-.9.4-1.1.9-.9 2-1.4 3.6-1.4 5 0 .8.2 1.6.5 2.2.5 1 1.3 1.7 2.4 2.1-.5 1.2-.8 1.7-.8 2.1 0 .2.1.4.2.5.2.1.4.5 1 .5h2.6c.6 0 1.1-.5 1.3-.9 0 0 .6-1.3.9-2 3.8-.9 7.2-3.8 9.1-7.9.6-1.2.9-2.5.9-3.6 0-1.4-.4-2.8-1.3-4-.5-.6-.8-1.1-1.1-1.6.8 0 5-.3 5-.3.7-.1 1.2-.5 1.4-1 .7-1.4 1-2.8 1-4 0-.8-.2-1.6-.5-2.3-.4-.9-1.2-1.5-2.1-2 .6-1.1.8-1.6.8-2 0-.2-.1-.3-.2-.5-.1-.1-.4-.5-.9-.5h-2.7c-.5 0-1 .3-1.2.9zM14.2 27c0-.2 0-.5.2-1v-.2c.1.2.1.4.1.5 0 .1 0 .2-.1.4s-.2.3-.2.3z"/></g><g><g fill="#EF3E42"><path d="M26.3 19.6c.1-.2.2-.3.3-.3h3.2c.1 0 .2.1.1.2l-4.5 9.7c-.2.4 0 .5.2.5s.5-.1.6-.5l4.5-9.7c.1-.1.2-.2.3-.2h3.3c.1 0 .2.1.1.2l-6.9 14.9c0 .1-.2.2-.3.2h-3c-.2 0 .1-.9 0-.9s-.2.1-.4.2c-.7.4-1.2.7-2.1.7-1 0-2-.9-1.2-2.6l5.8-12.4zM39 19.3c.1 0 .1.6.2.6s.2-.1.4-.2c.5-.3 1.1-.5 1.7-.5 1.3 0 2.3.9.4 5.1l-2.5 5.3c-1.8 3.9-3.9 4.9-5.2 4.9-.6 0-1-.2-1.2-.5-.1-.1-.1-.2-.1-.2l-.2.2-1.9 4.1c-.1.1-.2.3-.3.3H27c-.1 0-.2-.1-.1-.2l8.7-18.6c.1-.1.2-.2.3-.2H39zm-4.6 10.6c-.2.4-.1.7.2.7.2 0 .4-.2.6-.5l3-6.4c.1-.1.2-.5-.1-.5-.1 0-.3.1-.3.1-.2.1-.3.3-.4.5l-3 6.1zM42.8 23.4c1.4-3 4.2-4.1 6.3-4.1 2.9 0 3.5 2.2 2.3 4.7l-.7 1.6c-.1.1-.2.2-.3.2h-4.2c-.1 0-.2.1-.2.2l-2 4c-.2.4-.1.6.1.6s.5-.2.7-.5l.7-1.6c0-.1.2-.2.3-.2l3.2.2c.1 0 .2.1.1.3l-.8 1.6c-1.5 3.3-4.2 4.2-6.5 4.2-2.7 0-3.4-1.9-2-4.8l3-6.4zm3.8.9c0 .1 0 .1.1.1.6 0 .7 0 .7-.1.8-1.6.8-1.8.4-1.8-.2 0-.5.2-.6.5l-.6 1.3zM54.4 19.5c.1-.1.1-.2.2-.2h3.6c.2 0 0 .8.1.8s.1-.1.2-.2c.5-.6 1.1-.6 1.9-.6.1 0 .1.1.1.2l-1.7 3.7c0 .1-.1.2-.3.2-1.3 0-2.1.7-3.1 2.7l-3.9 8.3c-.1.1-.2.2-.3.2h-3.7c-.1 0-.1-.1-.1-.2l7-14.9zM61.6 18.8C64.5 12.6 69 9 73.7 9c5 0 5.6 4.2 3.3 9.1-.4.9-.5 1-.8 1l-6.4.2c-.3 0-.5-.3-.3-.7l1-2.1c.2-.5 0-.6-.2-.6-.3 0-.7.2-.8.6L64.6 27c-.2.3 0 .6.3.6s.7-.3.8-.6l1.6-3.4c.1-.2.4-.5.6-.5l6.3.2c.2 0 .2.1.1.3-3.8 8.2-8.5 11-12.8 11-4.7 0-5.4-4.2-3.1-9.1l3.2-6.7zM75.2 24.5c-.2 0-.1-.1.4-1.3.9-2 3.3-3.8 6-3.8 2.8 0 3.5 1.8 2.6 3.7L81 29.9c-.1.2 0 .2.5.2.1 0 .1.1.1.2l-.7 1.6c-.6 1.2-2.4 2.7-3.8 2.7-1.2 0-1.4-.4-1.6-1 0-.2-.1-.2-.1-.2s-.2.1-.4.3c-.5.4-1.3.9-2.2.9-1.1 0-2.2-.9-1-3.4l.9-1.9c.9-2 2.8-3.1 4.5-3.7 2.2-.8 2.5-1.1 2.9-2 .2-.4.1-.5-.1-.5-.4 0-.5.2-1 1.3-.1.1-.2.2-.3.2l-3.5-.1zm2.7 3.5c0-.1 0-.2-.1-.2-.2 0-.8.2-1 .8l-.8 1.9c-.1.3 0 .4.2.4s.5-.1.6-.4l1.1-2.5zM89.8 24.6c-.1 0-.2-.1-.1-.2.4-.8.4-1.2 0-1.2-.2 0-.5.2-.6.5-.2.5.1 1.3 1 2.6.8 1.3 1 2.4.3 4-1 2.2-3.1 4.3-6.2 4.3-1.7 0-3.6-.9-1.6-5.2.1-.1.2-.2.3-.2l2.9-.2c.1 0 .1.1.1.2-.4.9-.3 1.5 0 1.5.2 0 .4-.2.6-.4.3-.6-.2-1.6-1.1-2.8-.7-.8-.9-2.2 0-4.1 1.1-2.3 3.7-4 5.9-4 3.1 0 3.2 2.4 2.1 4.9-.1.1-.2.2-.4.2l-3.2.1zM98.1 15.4c.1-.2.2-.3.4-.3h3.6c.2 0 .2.1.1.2l-2.2 4.6c-.1.2-.1.2 0 .2 0 0 .2-.1.3-.2.6-.4 1.4-.7 2.1-.7 1.1 0 2.1.6 1.2 2.6L98 34.4c0 .1-.1.2-.2.2h-3.5c-.1 0-.1-.1-.1-.2L99 23.9c.2-.4 0-.5-.2-.5s-.5.1-.6.5l-4.9 10.5c0 .1-.2.2-.3.2h-3.6c-.1 0-.1-.1-.1-.2l8.8-19zM103.6 34.2c-.1.2-.3.4-.6.4l-4-.1c-.2 0-.2-.2-.1-.4l2-4.4c.1-.2.4-.4.5-.4l4.2.1c.2 0 .3.1.2.3l-2.2 4.5zM110 9.3c.1-.2.2-.3.4-.3l5.7.1c.2 0 .3.1.2.3L107 27.9c-.1.2-.5.7-.7.7l-4.4-.1c-.1 0-.2-.4-.1-.6L110 9.3z"/></g><path fill="#EF3E42" d="M12.1 36.7c-.1.2-.3.3-.5.3H9c-.3 0-.2-.3 1-2.7-3.5-.8-4.2-3.6-2-8.3.1-.2.3-.3.5-.4l4.8-.3c.2 0 .3.1.2.4-.4 1.4-.2 2.3.6 2.3.5 0 1-.4 1.2-.9.5-1.1 0-1.9-1.8-4.2-1.3-1.7-1.6-4-.2-6.9 1.4-3.1 4.8-6.3 8.5-7.1l1-2.2c.1-.2.3-.4.4-.4h2.7c.3 0 .2.2-.9 2.6 3 .8 3.6 3.8 2 7.4-.1.2-.3.4-.6.4l-5.1.3c-.3 0-.2-1.5-.5-1.5s-.6.3-.8.6c-.5 1 .3 2 1.8 4 1.4 1.9 1.5 4.2.4 6.7-1.9 4-5.2 6.8-9 7.5l-1.1 2.4z"/></g></svg>