<svg viewBox="6.18 10.67 473.54 136.31" xmlns="http://www.w3.org/2000/svg"><defs><style>.st0{fill:#ae59a2}.st1{fill:#4bb965}.st2{fill:#fff}.st3{fill:#b3b3b3}</style></defs><path class="st0" d="M322.33 103.88h30.47l-1.27 40.68H234.41c-.14-2.62-.21-3.96-.21-4.02 0-12.09 2.96-22.94 8.89-32.54 3.03-4.92 7.23-9.82 12.59-14.68s11.88-9.76 19.57-14.68c12.98-8.48 21.34-14.59 25.08-18.33 3.74-3.87 5.61-7.76 5.61-11.69 0-3.8-1.27-6.92-3.81-9.35s-6.35-3.65-11.43-3.65c-10.86 0-16.29 6.08-16.29 18.24l-37.88-1.03c.78-14.9 6.38-25.46 16.82-31.7 10.51-6.17 23.77-9.26 39.78-9.26 17.49 0 31.67 3.55 42.53 10.66 10.86 7.17 16.29 16.52 16.29 28.05 0 7.42-2.75 14.28-8.25 20.57-5.64 6.3-16.4 13.03-32.27 20.2-12.84 5.74-21.44 10.07-25.82 13-4.44 3.05-7.83 6.52-10.16 10.38h46.34l.54-10.85z"/><path d="M352.7 145.77H233.26l-.06-1.14c-.21-3.96-.21-4.03-.21-4.08 0-12.27 3.05-23.43 9.07-33.18 3.08-5 7.39-10.03 12.81-14.94 5.38-4.88 12.02-9.86 19.73-14.81 12.84-8.39 21.21-14.5 24.87-18.16 3.48-3.6 5.25-7.25 5.25-10.83 0-3.49-1.12-6.26-3.44-8.48-2.3-2.2-5.86-3.31-10.59-3.31-10.15 0-15.08 5.57-15.08 17.03v1.24l-40.36-1.1.06-1.24c.79-15.26 6.65-26.25 17.41-32.67 10.65-6.26 24.24-9.43 40.4-9.43 17.64 0 32.18 3.65 43.19 10.86 11.17 7.38 16.84 17.15 16.84 29.06 0 7.69-2.88 14.88-8.55 21.37-5.74 6.41-16.73 13.3-32.68 20.51-12.73 5.69-21.35 10.03-25.64 12.9-3.55 2.44-6.43 5.18-8.58 8.17h42.94l.53-10.85h32.87l-1.34 43.08zm-117.14-2.42h114.8l1.2-38.26h-28.07l-.53 10.85h-49.63l1.1-1.83c2.41-4 5.94-7.61 10.51-10.75 4.48-3 12.98-7.28 26.01-13.11 15.63-7.06 26.36-13.76 31.86-19.9 5.27-6.03 7.94-12.68 7.94-19.77 0-11.05-5.3-20.15-15.75-27.04-10.61-6.94-24.7-10.46-41.86-10.46-15.72 0-28.9 3.06-39.17 9.09-9.73 5.81-15.16 15.73-16.15 29.48l35.4.96c.37-12.08 6.25-18.2 17.48-18.2 5.37 0 9.5 1.34 12.26 3.98 2.77 2.66 4.18 6.1 4.18 10.22 0 4.24-2 8.45-5.95 12.53-3.85 3.85-12.12 9.9-25.28 18.5-7.61 4.88-14.14 9.78-19.42 14.57-5.25 4.76-9.41 9.61-12.38 14.42-5.78 9.36-8.71 20.1-8.71 31.91.01.1.06 1.04.16 2.81z"/><path class="st0" d="M351.95 109.59l38.3-2.15c3.38 7.11 9.91 10.66 19.57 10.66 5.71 0 10.54-1.37 14.49-4.11 3.81-2.74 5.71-7.04 5.71-12.9 0-5.73-1.9-9.94-5.71-12.62-3.88-2.62-8.39-3.93-13.54-3.93-7.9 0-14.53 2.55-19.89 7.67L358.83 82.2l4.44-67.7h108.45v34.04h-24.87l-3.49-7.95h-52.58l-1.27 25.81c9.45-5.24 20.7-7.86 33.75-7.86 15.94 0 29.13 3.77 39.57 11.32 10.44 7.54 15.66 17.89 15.66 31.04 0 12.84-5.5 23.54-16.5 32.08-11.07 8.54-26.49 12.81-46.24 12.81-17.35 0-31.71-3.24-43.06-9.72-11.29-6.44-18.2-15.26-20.74-26.48z"/><path d="M415.75 146.98c-17.48 0-32.17-3.33-43.66-9.88-11.54-6.56-18.71-15.73-21.31-27.25l-.32-1.39 40.54-2.28.35.73c3.19 6.71 9.24 9.97 18.48 9.97 5.44 0 10.08-1.31 13.8-3.9 3.49-2.51 5.2-6.41 5.2-11.91 0-5.37-1.7-9.17-5.2-11.63-3.64-2.46-7.97-3.71-12.85-3.71-7.54 0-13.96 2.47-19.06 7.33l-.51.49-33.64-10.5 4.58-69.78h110.79v36.46h-26.86l-3.49-7.95h-50.64l-1.11 22.54c9.2-4.65 20.1-7 32.44-7 16.12 0 29.67 3.88 40.28 11.54 10.72 7.75 16.16 18.52 16.16 32.02 0 13.18-5.71 24.29-16.97 33.03-11.26 8.68-27.07 13.07-47 13.07zm-62.28-36.27c2.7 10.18 9.36 18.34 19.81 24.29 11.12 6.35 25.41 9.56 42.46 9.56 19.39 0 34.69-4.22 45.5-12.56 10.64-8.26 16.03-18.73 16.03-31.12 0-12.68-5.1-22.8-15.16-30.06-10.18-7.36-23.26-11.09-38.86-11.09-12.78 0-23.94 2.59-33.16 7.7l-1.9 1.05 1.43-29.13h54.52l3.49 7.95h22.87V15.7H364.4l-4.31 65.62 30.48 9.51c5.48-4.99 12.27-7.51 20.2-7.51 5.37 0 10.15 1.39 14.22 4.13 4.15 2.92 6.25 7.5 6.25 13.62 0 6.24-2.09 10.92-6.22 13.88-4.15 2.88-9.26 4.34-15.2 4.34-9.79 0-16.62-3.57-20.3-10.62l-36.05 2.04z"/><path class="st1" d="M62.64 95.57l18.2 8.07c-1.55 9.44-5.09 17.17-10.64 23.18-5.61 6.05-13.34 9.08-23.19 9.08-13.44 0-23.39-4.42-29.84-13.27-6.49-8.8-9.73-19.56-9.73-32.26 0-12.79 3.18-23.64 9.53-32.58 6.35-8.93 14.6-13.4 24.75-13.4 8.23 0 14.94 2.56 20.12 7.68v-5.9h16.84v32.26H61.19c-.91-4.02-2.44-7.2-4.59-9.53-2.15-2.29-4.6-3.43-7.36-3.43-7.6 0-11.39 8.23-11.39 24.7 0 16.51 3.93 24.76 11.8 24.76 6.87.01 11.21-6.45 12.99-19.36z"/><path d="M47.01 137.15c-13.81 0-24.19-4.64-30.86-13.79-6.61-8.98-9.97-20.08-9.97-33 0-12.99 3.28-24.2 9.76-33.3 6.57-9.24 15.25-13.93 25.78-13.93 7.45 0 13.78 2.06 18.86 6.14v-4.36h19.35v34.77H60.17l-.22-.98c-.85-3.78-2.3-6.79-4.29-8.95-1.91-2.03-4.02-3.02-6.44-3.02-6.73 0-10.14 7.89-10.14 23.45 0 15.6 3.55 23.51 10.54 23.51 6.13 0 10.09-6.15 11.76-18.28l.23-1.65 20.61 9.14-.16.96c-1.58 9.64-5.26 17.66-10.95 23.83-5.82 6.27-13.93 9.46-24.1 9.46zm-5.29-91.5c-9.81 0-17.57 4.21-23.73 12.87-6.17 8.67-9.3 19.39-9.3 31.85 0 12.37 3.19 22.97 9.48 31.51 6.18 8.47 15.87 12.76 28.83 12.76 9.44 0 16.93-2.92 22.27-8.68 5.16-5.59 8.57-12.85 10.15-21.57l-15.8-7c-2.03 12.48-6.73 18.81-14 18.81-8.66 0-13.05-8.75-13.05-26.02 0-17.23 4.26-25.96 12.65-25.96 3.1 0 5.89 1.29 8.28 3.82 2.12 2.3 3.68 5.36 4.66 9.13h15.25V47.43H63.09v7.66l-2.14-2.12c-4.91-4.86-11.38-7.32-19.23-7.32z"/><path class="st1" d="M98.81 90.36l-19.86-2.54c2.18-6.05 5.71-10.31 10.59-12.76 4.81-2.46 11.9-3.68 21.27-3.68 3.46 0 6.56.14 9.3.41 2.74.28 5.18.69 7.34 1.24 4.47 1.06 7.78 2.69 9.93 4.89 2.15 2.24 3.65 4.66 4.49 7.24.87 2.67 1.31 6.82 1.31 12.45v17.78h6.25v19.37h-31.61v-4.19c-4.37 3.56-10.22 5.33-17.54 5.33-6.89 0-12.08-1.91-15.58-5.71-3.53-3.81-5.29-8.32-5.29-13.53 0-5.76 2.17-10.48 6.5-14.16 4.3-3.69 9.91-5.53 16.84-5.53 6.32 0 11.34 1.04 15.07 3.11v-1.84c0-3.81-.22-6.48-.66-8-.47-1.61-1.51-2.98-3.12-4.13-1.68-1.1-3.63-1.65-5.85-1.65-4.07 0-7.2 1.97-9.38 5.9zm19 28.64v-11.24c-2.25-1.52-4.64-2.29-7.16-2.29-2.22 0-3.98.76-5.29 2.29-1.31 1.57-1.97 3.55-1.97 5.97 0 2.5.67 4.53 2.02 6.1 1.38 1.61 2.96 2.41 4.74 2.41 3.16 0 5.71-1.08 7.66-3.24z"/><path d="M100.27 137.15c-7.22 0-12.78-2.06-16.5-6.12-3.73-4.03-5.62-8.87-5.62-14.38 0-6.12 2.34-11.2 6.95-15.12 4.51-3.86 10.45-5.83 17.65-5.83 5.52 0 10.15.79 13.82 2.36-.01-3.58-.21-6.1-.61-7.49-.39-1.34-1.25-2.46-2.64-3.45-1.45-.95-3.14-1.42-5.12-1.42-3.61 0-6.31 1.72-8.28 5.26l-.41.75-22.26-2.85.53-1.47c2.29-6.34 6.06-10.87 11.2-13.46 4.96-2.53 12.31-3.82 21.84-3.82 3.49 0 6.66.14 9.43.42 2.8.28 5.34.71 7.52 1.27 4.66 1.1 8.2 2.86 10.52 5.23 2.28 2.38 3.89 4.98 4.78 7.73.92 2.82 1.37 7.02 1.37 12.84v16.52h6.25V136h-34.12v-2.99c-4.33 2.75-9.79 4.14-16.3 4.14zm2.47-38.93c-6.58 0-11.97 1.76-16.02 5.22-4.08 3.47-6.06 7.79-6.06 13.21 0 4.86 1.67 9.12 4.96 12.67 3.23 3.53 8.16 5.31 14.66 5.31 7 0 12.63-1.7 16.75-5.05l2.05-1.67v5.58h29.1v-16.85h-6.25V97.6c0-5.47-.42-9.53-1.25-12.06-.78-2.39-2.19-4.66-4.2-6.76-1.97-2.01-5.1-3.54-9.31-4.53-2.09-.54-4.49-.94-7.17-1.21-2.68-.27-5.77-.41-9.18-.41-9.13 0-16.1 1.19-20.7 3.54-4.16 2.09-7.31 5.66-9.4 10.6L98.16 89c2.39-3.86 5.77-5.81 10.04-5.81 2.45 0 4.65.62 6.54 1.86 1.88 1.33 3.09 2.94 3.64 4.83.48 1.66.71 4.39.71 8.35v3.98l-1.87-1.04c-3.55-1.95-8.41-2.95-14.48-2.95zm7.41 25.28c-2.16 0-4.07-.96-5.69-2.85-1.54-1.8-2.32-4.12-2.32-6.92 0-2.7.76-4.98 2.26-6.77 1.56-1.82 3.67-2.74 6.26-2.74 2.77 0 5.41.84 7.86 2.5l.55.37v12.39l-.32.36c-2.19 2.43-5.08 3.66-8.6 3.66zm.5-16.76c-1.85 0-3.27.6-4.34 1.85-1.12 1.33-1.66 3.02-1.66 5.15 0 2.21.56 3.93 1.71 5.28 1.14 1.33 2.38 1.97 3.79 1.97 2.64 0 4.74-.81 6.4-2.48v-10.05c-1.88-1.16-3.81-1.72-5.9-1.72z"/><path class="st1" d="M164.52 134.84h-15.68v-19.56h14.67c3.76 5 7.88 7.49 12.35 7.49 4.5 0 6.76-1.16 6.76-3.49 0-1.18-.49-2.1-1.46-2.73-1.01-.68-3.68-1.67-8.02-2.98-3.5-1.18-7.36-2.56-11.59-4.13-3.66-1.31-6.55-2.96-8.67-4.95-2.18-1.99-3.65-3.94-4.39-5.84-.81-1.91-1.21-4.4-1.21-7.49 0-6.81 1.92-11.83 5.75-15.05 3.8-3.18 8.62-4.76 14.47-4.76 6.05 0 11.13 1.44 15.23 4.32V72.5h15.48v17.91h-14.32c-3.56-4.27-7.8-6.41-12.7-6.41-3.86 0-5.8 1.29-5.8 3.87 0 1.23.57 2.03 1.71 2.41.97.38 4.2 1.29 9.68 2.73 6.22 1.65 11.07 3.3 14.57 4.95 3.46 1.65 6.07 3.83 7.81 6.54 1.71 2.71 2.57 6.03 2.57 9.97 0 7.11-2.1 12.36-6.3 15.75-4.17 3.35-9.31 5.02-15.43 5.02-6.08 0-11.24-1.4-15.48-4.19v3.79z"/><path d="M179.99 136.47c-5.41 0-10.18-1.09-14.22-3.24v2.86h-18.19v-22.07h16.55l.38.5c3.5 4.64 7.31 6.99 11.35 6.99 3.65 0 5.5-.75 5.5-2.24 0-.76-.27-1.28-.89-1.68-.64-.43-2.47-1.25-7.7-2.84-3.49-1.18-7.4-2.57-11.67-4.15-3.8-1.36-6.86-3.12-9.1-5.22-2.3-2.1-3.89-4.22-4.7-6.3-.85-2.02-1.29-4.7-1.29-7.95 0-7.17 2.08-12.56 6.2-16.01 4.01-3.36 9.15-5.06 15.28-5.06 5.35 0 10.04 1.11 13.97 3.3V71.2h17.99v20.42h-16.16l-.38-.45c-3.34-4.01-7.18-5.96-11.74-5.96-4.54 0-4.54 1.83-4.54 2.62 0 .69.22 1.01.85 1.22.7.27 2.87.94 9.6 2.71 6.28 1.67 11.25 3.36 14.79 5.03 3.66 1.74 6.46 4.1 8.33 7 1.84 2.91 2.77 6.49 2.77 10.65 0 7.48-2.28 13.11-6.77 16.73-4.37 3.52-9.83 5.3-16.21 5.3zm-16.73-7.78l1.95 1.29c4 2.64 8.98 3.98 14.78 3.98s10.72-1.6 14.64-4.74c3.87-3.12 5.83-8.09 5.83-14.77 0-3.68-.8-6.8-2.38-9.3-1.61-2.49-4.06-4.54-7.29-6.08-3.4-1.61-8.23-3.25-14.35-4.87-5.57-1.46-8.78-2.37-9.81-2.77-1.6-.53-2.51-1.81-2.51-3.58 0-1.92.92-5.13 7.05-5.13 5.1 0 9.56 2.16 13.28 6.41h12.48V73.74h-12.96v4.34l-1.98-1.39c-3.86-2.71-8.74-4.09-14.5-4.09-5.52 0-10.12 1.5-13.66 4.47-3.51 2.95-5.3 7.69-5.3 14.08 0 2.91.37 5.26 1.11 7 .68 1.75 2.05 3.56 4.08 5.4 1.99 1.87 4.76 3.45 8.25 4.7 4.25 1.58 8.14 2.96 11.57 4.12 5.95 1.8 7.6 2.65 8.31 3.13 1.31.85 2.02 2.16 2.02 3.77 0 2.17-1.39 4.75-8.01 4.75-4.71 0-9.07-2.52-12.97-7.49H150.1v17.04h13.17v-4.88h-.01z"/><path class="st1" d="M241.4 135.89h-38.62v-19.37h6.4v-49.6h-6.4V47.55h31.76v34.16c6.76-5.71 13.39-8.57 19.91-8.57 5.74 0 10.3 2.1 13.66 6.29 3.36 4.23 5.04 11.71 5.04 22.42v14.67h5.75v19.37h-31.11v-25.21c0-7.67-.35-12.47-1.06-14.42-.74-1.95-2.29-2.92-4.64-2.92-2.45 0-4.97 1.08-7.56 3.24v19.94h6.86l.01 19.37z"/><path d="M280.17 137.15h-33.62v-26.46c0-9.32-.53-12.75-.98-13.99-.55-1.44-1.62-2.09-3.46-2.09-2 0-4.12.87-6.3 2.58v18.08h6.86v21.88h-41.13v-21.88h6.4V68.19h-6.4V46.31h34.27v32.8c6.27-4.78 12.54-7.21 18.66-7.21s11.04 2.27 14.64 6.76c3.58 4.51 5.32 12.1 5.32 23.2v13.41h5.75v21.88h-.01zm-31.11-2.51h28.59v-16.85h-5.75v-15.93c0-10.37-1.61-17.65-4.77-21.63-3.14-3.91-7.29-5.81-12.68-5.81-6.18 0-12.61 2.78-19.1 8.28l-2.07 1.75V48.83h-29.25v16.85h6.4v52.11h-6.4v16.85h36.1v-16.85h-6.86V96l.45-.38c2.81-2.34 5.62-3.53 8.37-3.53 3.63 0 5.17 2.03 5.82 3.73.77 2.13 1.14 6.98 1.14 14.86l.01 23.96z"/><path class="st2" d="M294.12 65.27c-9.83 3.35-20.52-1.91-23.86-11.74-3.35-9.83 1.91-20.52 11.74-23.86 9.83-3.35 20.52 1.91 23.86 11.74 3.35 9.83-1.91 20.52-11.74 23.86z"/><path d="M288.08 67.53c-8.36 0-16.17-5.26-19.01-13.6a19.935 19.935 0 01.99-15.32c2.37-4.81 6.46-8.41 11.54-10.13 5.07-1.73 10.52-1.38 15.33.99s8.41 6.46 10.13 11.54c1.73 5.07 1.38 10.51-.99 15.32s-6.46 8.41-11.54 10.13c-2.14.73-4.32 1.07-6.45 1.07zm0-37.62c-1.9 0-3.82.31-5.67.95-9.16 3.12-14.08 13.11-10.96 22.27s13.11 14.08 22.27 10.96c4.44-1.51 8.02-4.66 10.09-8.86 2.07-4.21 2.38-8.96.87-13.4s-4.66-8.02-8.86-10.09a17.358 17.358 0 00-7.74-1.83z"/><path class="st2" d="M350.88 107.9c-11.24 3.83-23.46-2.18-27.29-13.43-3.82-11.24 2.19-23.46 13.43-27.28 11.24-3.83 23.46 2.18 27.29 13.42 3.82 11.25-2.19 23.46-13.43 27.29z"/><path d="M343.97 110.3c-9.48 0-18.35-5.97-21.57-15.43-4.04-11.88 2.33-24.83 14.21-28.88a22.617 22.617 0 0117.38 1.12c5.46 2.68 9.54 7.33 11.5 13.09 4.04 11.88-2.33 24.84-14.21 28.88-2.41.83-4.88 1.22-7.31 1.22zm0-43.01c-2.2 0-4.4.36-6.54 1.09-10.57 3.6-16.24 15.12-12.64 25.69 3.6 10.57 15.12 16.24 25.69 12.64 10.57-3.59 16.24-15.12 12.64-25.69-1.74-5.12-5.37-9.25-10.22-11.64a20.206 20.206 0 00-8.93-2.09z"/><path class="st2" d="M390.24 105.75c-2.79-14.98 7.12-29.39 22.13-32.19s29.44 7.08 32.23 22.05-7.11 29.38-22.13 32.18c-15.01 2.81-29.44-7.06-32.23-22.04z"/><path d="M417.34 129.54c-5.78 0-11.41-1.73-16.27-5.06-6.37-4.35-10.65-10.92-12.06-18.5-2.91-15.63 7.47-30.73 23.14-33.65 7.59-1.41 15.27.21 21.64 4.56 6.37 4.36 10.65 10.92 12.06 18.5 2.91 15.63-7.46 30.73-23.13 33.65-1.8.33-3.6.5-5.38.5zm-25.87-24.02c1.29 6.91 5.2 12.91 11.01 16.88 5.81 3.98 12.83 5.45 19.76 4.16 14.31-2.67 23.78-16.45 21.12-30.72-1.29-6.91-5.2-12.91-11.01-16.88-5.81-3.98-12.83-5.45-19.76-4.16-14.3 2.67-23.78 16.45-21.12 30.72z"/><path class="st2" d="M116.87 65c-8.06 2.74-16.82-1.57-19.56-9.63-2.74-8.06 1.57-16.82 9.63-19.56s16.82 1.56 19.56 9.63c2.74 8.06-1.57 16.82-9.63 19.56z"/><path d="M111.92 67.08c-6.94 0-13.44-4.37-15.8-11.3-2.96-8.7 1.71-18.19 10.41-21.15 4.22-1.44 8.74-1.14 12.73.82 4 1.97 6.99 5.37 8.42 9.59 1.44 4.21 1.14 8.74-.82 12.73-1.97 4-5.37 6.99-9.59 8.42-1.77.6-3.57.89-5.35.89zm0-30.84c-1.54 0-3.08.25-4.57.76-7.39 2.51-11.35 10.57-8.84 17.96 2.51 7.39 10.57 11.36 17.96 8.84 3.58-1.22 6.47-3.76 8.14-7.15 1.67-3.39 1.92-7.23.7-10.81s-3.76-6.47-7.15-8.14a14.17 14.17 0 00-6.24-1.46z"/><path class="st2" d="M194.81 46.99c-9.1 3.1-18.98-1.76-22.08-10.86-3.1-9.1 1.77-18.98 10.86-22.08 9.1-3.1 18.98 1.77 22.08 10.87 3.1 9.09-1.76 18.97-10.86 22.07z"/><path d="M189.19 49.18c-2.82 0-5.62-.65-8.22-1.93-4.47-2.2-7.82-6.01-9.42-10.73-1.61-4.72-1.28-9.78.92-14.25s6.01-7.82 10.73-9.42c4.72-1.61 9.78-1.28 14.25.92s7.82 6.01 9.42 10.73c1.61 4.72 1.28 9.78-.92 14.25s-6.01 7.82-10.73 9.42a18.48 18.48 0 01-6.03 1.01zm.03-34.82c-1.75 0-3.51.29-5.22.87-4.08 1.39-7.38 4.28-9.28 8.15s-2.19 8.25-.8 12.33 4.28 7.38 8.15 9.28 8.25 2.19 12.33.8 7.38-4.28 9.28-8.15 2.19-8.25.8-12.33-4.28-7.38-8.15-9.28a16.028 16.028 0 00-7.11-1.67z"/><path class="st2" d="M53.22 114.44c-5.53 1.88-11.54-1.08-13.42-6.6-1.88-5.53 1.08-11.54 6.6-13.42 5.53-1.88 11.54 1.08 13.42 6.6 1.88 5.53-1.07 11.54-6.6 13.42z"/><path d="M49.82 116.26c-4.93 0-9.54-3.1-11.21-8.02-1.02-2.99-.81-6.2.59-9.04s3.81-4.96 6.8-5.97c2.99-1.02 6.2-.81 9.04.58 2.84 1.4 4.96 3.81 5.98 6.8 1.02 2.99.81 6.2-.58 9.04-1.4 2.84-3.81 4.96-6.8 5.98-1.27.43-2.56.63-3.82.63zm0-21.15c-1.01 0-2.03.17-3.01.5-2.36.8-4.26 2.47-5.36 4.71a9.267 9.267 0 00-.46 7.12c1.65 4.86 6.96 7.48 11.82 5.82 2.36-.8 4.26-2.47 5.36-4.71 1.1-2.23 1.26-4.76.46-7.12a9.228 9.228 0 00-4.71-5.36 9.208 9.208 0 00-4.1-.96z"/><path class="st3" d="M426.16 88.54l-9.86 2.96-.49-1.64c-.52-1.74-.98-2.85-1.37-3.31-.39-.47-.96-.59-1.71-.37-.6.18-.98.55-1.14 1.1-.16.55-.1 1.29.18 2.22.46 1.55 1.1 2.54 1.9 2.97.79.44 2.92 1.11 6.41 2.01 2.96.76 5.02 1.41 6.17 1.94 1.15.53 2.26 1.44 3.33 2.72 1.07 1.29 1.94 3.03 2.6 5.22 1.06 3.51 1.04 6.53-.05 9.04-1.09 2.51-3.26 4.51-6.5 6l1.12 3.71-4.54 1.37-1.15-3.83c-2.71.53-5.32.21-7.82-.96s-4.41-3.96-5.73-8.35l-.58-1.93 9.86-2.96.73 2.42c.8 2.65 1.39 4.27 1.79 4.85.4.58.99.75 1.77.52.67-.2 1.1-.57 1.29-1.12.19-.54.15-1.26-.11-2.14-.67-2.21-1.3-3.75-1.89-4.61-.6-.86-1.96-1.58-4.11-2.16-3.58-.98-6.04-1.75-7.39-2.32-1.35-.56-2.66-1.53-3.93-2.9s-2.22-3.08-2.83-5.11c-.89-2.94-.75-5.51.42-7.68 1.17-2.18 3.36-3.96 6.57-5.36l-.95-3.15 4.54-1.37.95 3.15c3.16-.52 5.75-.19 7.75 1.01 2.01 1.2 3.45 3.25 4.33 6.16.11.42.26 1.05.44 1.9zM348.16 78.49l-6.14 4-.66-1.02c-.71-1.08-1.24-1.75-1.6-1.99-.36-.24-.77-.21-1.24.09-.38.24-.56.57-.56.98s.19.9.57 1.48c.63.96 1.26 1.51 1.89 1.64.62.14 2.22.17 4.78.09 2.17-.07 3.7-.04 4.6.09.89.13 1.83.53 2.82 1.19.99.66 1.93 1.68 2.82 3.04 1.42 2.19 2.01 4.25 1.77 6.18-.24 1.93-1.32 3.73-3.24 5.39l1.5 2.31-2.83 1.84-1.55-2.38c-1.75.91-3.59 1.21-5.53.91s-3.8-1.82-5.58-4.55l-.78-1.2 6.14-4 .98 1.5c1.07 1.65 1.81 2.63 2.19 2.95.39.32.82.32 1.31 0 .42-.27.63-.61.65-1.02s-.15-.89-.5-1.44c-.9-1.38-1.63-2.3-2.21-2.77s-1.66-.68-3.23-.65c-2.64.05-4.47.01-5.51-.1-1.03-.11-2.12-.51-3.27-1.19-1.14-.68-2.13-1.66-2.95-2.92-1.19-1.83-1.61-3.61-1.25-5.33s1.5-3.38 3.41-4.97l-1.28-1.96 2.83-1.84 1.28 1.96c2.05-.99 3.88-1.28 5.49-.86 1.61.41 3.01 1.53 4.19 3.34.16.27.39.66.69 1.21zM193.15 23.83l-5.16 2.13-.35-.86c-.38-.91-.68-1.48-.92-1.71-.24-.23-.55-.27-.94-.11-.32.13-.5.35-.56.66s.01.7.22 1.19c.33.81.73 1.31 1.19 1.5.45.19 1.64.44 3.56.74 1.64.25 2.78.49 3.43.71s1.3.65 1.95 1.29c.65.64 1.21 1.53 1.68 2.68.76 1.84.91 3.46.46 4.88-.45 1.41-1.51 2.61-3.18 3.59l.8 1.94-2.37.98-.83-2c-1.43.44-2.86.4-4.27-.09-1.41-.5-2.59-1.9-3.54-4.19l-.42-1.01 5.16-2.13.52 1.26c.57 1.39.98 2.23 1.23 2.52.25.29.57.35.98.18.35-.14.56-.37.63-.67.07-.3.02-.69-.17-1.15-.48-1.16-.9-1.95-1.27-2.38s-1.15-.74-2.33-.94c-1.98-.34-3.35-.62-4.11-.85-.76-.23-1.52-.68-2.28-1.35s-1.36-1.54-1.8-2.6c-.64-1.54-.7-2.93-.19-4.17s1.59-2.32 3.25-3.24l-.68-1.65 2.37-.98.68 1.65c1.67-.45 3.09-.41 4.24.12 1.15.54 2.04 1.57 2.67 3.09.09.19.21.52.35.97z"/><g><path class="st3" d="M295.59 46.29l-4.79-2.86.47-.79c.5-.85.78-1.43.83-1.76.04-.33-.12-.6-.48-.82-.29-.17-.58-.19-.86-.06-.28.14-.55.43-.82.88-.45.75-.61 1.37-.49 1.85.11.48.63 1.57 1.54 3.3.78 1.46 1.27 2.52 1.48 3.18.21.66.25 1.43.13 2.33s-.5 1.88-1.14 2.95c-1.02 1.71-2.23 2.8-3.63 3.29-1.4.48-3 .35-4.78-.4l-1.08 1.8-2.21-1.32 1.11-1.86a6.704 6.704 0 01-2.48-3.48c-.45-1.43-.03-3.21 1.24-5.35l.56-.94 4.79 2.86-.7 1.17c-.77 1.29-1.2 2.12-1.28 2.49-.09.37.06.67.44.9.32.19.63.23.92.11.29-.12.56-.4.81-.83.64-1.08 1.02-1.89 1.15-2.44.12-.55-.09-1.36-.64-2.43-.92-1.79-1.51-3.06-1.78-3.8-.27-.75-.36-1.62-.28-2.63s.42-2.01 1.01-3c.85-1.43 1.93-2.31 3.23-2.64 1.3-.33 2.81-.11 4.55.67l.91-1.53 2.21 1.32-.91 1.53c1.37 1.07 2.18 2.23 2.43 3.47.26 1.24-.04 2.57-.88 3.99-.11.17-.3.46-.58.85z"/></g><g><path class="st3" d="M112.44 43.47l-3.4 3.4-.56-.57c-.6-.6-1.03-.95-1.3-1.06-.26-.11-.52-.03-.78.23-.21.21-.28.44-.23.71.06.26.24.56.56.88.53.53 1.01.8 1.44.8.42.01 1.45-.19 3.08-.59 1.39-.34 2.38-.53 2.97-.57s1.25.09 1.98.38c.72.29 1.47.82 2.22 1.58 1.21 1.21 1.87 2.46 1.98 3.73.11 1.27-.34 2.58-1.35 3.91l1.28 1.28-1.57 1.57-1.32-1.32c-1 .82-2.14 1.27-3.43 1.33-1.29.07-2.69-.65-4.21-2.17l-.67-.67 3.4-3.4.83.83c.92.92 1.52 1.45 1.81 1.6s.57.09.84-.18c.23-.23.32-.48.28-.75s-.21-.55-.52-.86c-.76-.76-1.36-1.26-1.8-1.48s-1.16-.21-2.17.02c-1.69.39-2.88.62-3.56.68-.68.07-1.43-.04-2.26-.32-.83-.28-1.59-.78-2.3-1.48-1.02-1.02-1.53-2.1-1.53-3.26 0-1.15.5-2.37 1.52-3.66l-1.09-1.09 1.57-1.57 1.09 1.09c1.19-.91 2.32-1.35 3.42-1.3 1.09.05 2.14.57 3.15 1.58.16.16.37.39.63.7z"/></g><g><path class="st3" d="M50.54 101.47l-1.86 1.86-.31-.31c-.33-.33-.56-.52-.71-.58-.14-.06-.29-.02-.43.12-.11.11-.15.24-.12.39.03.14.13.3.31.48.29.29.55.44.79.44.23 0 .79-.1 1.69-.32.76-.19 1.3-.29 1.62-.31.32-.02.68.05 1.08.21.4.16.8.45 1.22.86.66.66 1.02 1.34 1.08 2.04s-.19 1.41-.74 2.14l.7.7-.86.86-.72-.72c-.55.45-1.17.69-1.88.73s-1.47-.36-2.3-1.19l-.36-.36 1.86-1.86.46.46c.5.5.83.79.99.88.16.08.31.05.46-.1.13-.13.18-.26.16-.41-.02-.15-.12-.3-.28-.47-.42-.42-.75-.69-.98-.81-.24-.12-.63-.12-1.19.01-.92.21-1.57.34-1.94.37-.37.04-.78-.02-1.24-.18-.45-.15-.87-.42-1.26-.81-.56-.56-.84-1.15-.84-1.78s.28-1.3.83-2l-.59-.59.86-.86.59.59c.65-.5 1.27-.74 1.87-.71.6.03 1.17.31 1.72.86.06.08.17.2.32.37z"/></g></svg>