<svg viewBox="13 8.57 403.62 163.16" xmlns="http://www.w3.org/2000/svg"><defs><style>.st1{fill:#6dcce1}.st2{fill:#fff}.st3{fill:#b3b3b3}</style></defs><path d="M293.93 118.14l36.62-2.87c.61 15.74 7.63 23.61 21.06 23.61 5.83 0 10.17-1.66 13.02-5 2.78-3.33 4.17-7.38 4.17-12.12 0-12.05-7.7-18.37-23.09-18.93V78.79c4.75 0 9.22-1.45 13.42-4.36 4.14-2.84 6.2-7.05 6.2-12.66 0-4.54-1.36-8.19-4.07-10.96-2.78-2.69-6.44-4.04-10.98-4.04-9.7 0-14.92 5.6-15.66 16.81l-38.24-2.13c.81-14.75 6.31-25.78 16.48-33.08 10.1-7.3 23.91-10.96 41.4-10.96 18.65 0 32.62 3.97 41.91 11.91 9.29 8.01 13.94 17.87 13.94 29.57 0 7.02-1.97 13.26-5.9 18.72-3.93 5.53-9.25 9.36-15.97 11.49 8.48 1.91 15.09 5.99 19.84 12.23s7.12 13.79 7.12 22.65c0 14.18-5.63 25.35-16.88 33.51-11.26 8.16-26.08 12.23-44.45 12.23-18.51 0-33.02-4.22-43.53-12.66-10.4-8.36-15.86-21.33-16.41-38.92z" fill="#ef4135"/><path d="M353.84 171.15c-18.76 0-33.71-4.36-44.42-12.97-10.67-8.6-16.36-22.06-16.91-40l-.04-1.36 39.45-3.09.06 1.48c.58 14.96 7 22.24 19.63 22.24 5.45 0 9.35-1.47 11.93-4.5 2.54-3.04 3.83-6.81 3.83-11.2 0-11.24-7.1-16.97-21.71-17.51l-1.38-.05V77.35h1.43c4.43 0 8.67-1.38 12.61-4.11 3.76-2.58 5.59-6.33 5.59-11.48 0-4.19-1.2-7.45-3.66-9.96-2.5-2.42-5.77-3.61-9.96-3.61-8.89 0-13.55 5.06-14.24 15.47l-.09 1.41-41.08-2.28.08-1.42c.83-15.13 6.58-26.63 17.07-34.16 10.3-7.45 24.51-11.22 42.23-11.22 18.91 0 33.32 4.12 42.83 12.26 9.58 8.26 14.44 18.58 14.44 30.66 0 7.29-2.08 13.87-6.17 19.55-3.26 4.59-7.49 8.08-12.6 10.44 6.81 2.29 12.33 6.17 16.45 11.59 4.92 6.46 7.41 14.38 7.41 23.52 0 14.6-5.88 26.26-17.47 34.66-11.47 8.28-26.71 12.48-45.31 12.48zm-58.43-51.69c.76 16.39 6.08 28.67 15.8 36.5 10.19 8.19 24.54 12.34 42.63 12.34 17.98 0 32.66-4.02 43.61-11.96 10.81-7.83 16.29-18.72 16.29-32.35 0-8.5-2.3-15.83-6.83-21.79-4.52-5.94-10.92-9.88-19.02-11.71l-5.14-1.16 5.03-1.59c6.38-2.02 11.51-5.71 15.24-10.95 3.74-5.2 5.64-11.21 5.64-17.89 0-11.21-4.52-20.8-13.44-28.49-8.98-7.67-22.76-11.57-40.97-11.57-17.1 0-30.75 3.59-40.56 10.69-9.43 6.77-14.74 17.05-15.79 30.58l35.42 1.97c.84-7.94 4.58-16.73 16.97-16.73 4.9 0 8.93 1.5 11.98 4.45 3 3.05 4.5 7.08 4.5 11.98 0 6.08-2.3 10.73-6.82 13.83-4 2.77-8.3 4.3-12.8 4.57v21.29c15.32.93 23.09 7.75 23.09 20.29 0 5.07-1.52 9.46-4.51 13.04-3.12 3.66-7.87 5.51-14.11 5.51-13.84 0-21.37-7.91-22.4-23.5l-33.81 2.65z"/><path class="st1" d="M120.3 84.42l-21.27-2.9c2.34-6.91 6.12-11.77 11.34-14.57 5.15-2.8 12.74-4.2 22.78-4.2 3.71 0 7.03.16 9.96.47 2.94.32 5.55.79 7.86 1.41 4.79 1.21 8.33 3.07 10.64 5.58 2.3 2.56 3.91 5.32 4.81 8.26.93 3.04 1.41 7.78 1.41 14.21v20.29h6.69v22.1h-33.86v-4.78c-4.68 4.06-10.94 6.09-18.79 6.09-7.38 0-12.94-2.17-16.68-6.52-3.78-4.35-5.67-9.49-5.67-15.44 0-6.57 2.32-11.96 6.96-16.16 4.61-4.21 10.62-6.31 18.03-6.31 6.77 0 12.15 1.18 16.14 3.55v-2.1c0-4.35-.23-7.39-.7-9.13-.5-1.83-1.62-3.41-3.35-4.71-1.8-1.26-3.89-1.88-6.26-1.88-4.36 0-7.71 2.25-10.04 6.74zm20.35 32.69v-12.83c-2.41-1.74-4.97-2.61-7.67-2.61-2.37 0-4.26.87-5.67 2.61-1.4 1.79-2.1 4.06-2.1 6.81 0 2.85.72 5.17 2.16 6.96 1.48 1.84 3.17 2.75 5.08 2.75 3.38 0 6.11-1.23 8.2-3.69z"/><path d="M121.86 137.81c-7.78 0-13.76-2.36-17.77-7.02-3.99-4.59-6.01-10.1-6.01-16.37 0-6.96 2.5-12.75 7.43-17.22 4.85-4.43 11.24-6.67 18.99-6.67 5.86 0 10.8.89 14.72 2.64-.01-4.07-.23-6.94-.65-8.52-.42-1.53-1.35-2.82-2.83-3.94-1.53-1.06-3.31-1.6-5.4-1.6-3.82 0-6.69 1.95-8.78 5.97l-.46.89-23.98-3.27.56-1.64c2.45-7.23 6.49-12.4 12.02-15.37 5.33-2.9 13.22-4.37 23.46-4.37 3.74 0 7.14.16 10.11.48 3 .32 5.72.81 8.08 1.45 5.02 1.27 8.83 3.29 11.31 5.99 2.44 2.72 4.16 5.68 5.12 8.81.99 3.22 1.47 8 1.47 14.62v18.87h6.69v24.96h-36.71v-3.33c-4.62 3.09-10.44 4.64-17.37 4.64zm2.65-44.42c-7.02 0-12.76 2-17.07 5.93-4.38 3.96-6.5 8.9-6.5 15.11 0 5.56 1.79 10.44 5.32 14.5 3.45 4 8.7 6.03 15.61 6.03 7.46 0 13.46-1.93 17.85-5.74l2.36-2.05v6.48h31V114.4h-6.69V92.68c0-6.24-.45-10.88-1.34-13.79-.83-2.73-2.35-5.33-4.5-7.73-2.09-2.28-5.43-4.02-9.92-5.15-2.24-.61-4.81-1.07-7.66-1.38-2.87-.31-6.18-.46-9.81-.46-9.75 0-17.19 1.36-22.1 4.03-4.46 2.39-7.84 6.47-10.07 12.14l18.55 2.53c2.57-4.39 6.21-6.62 10.82-6.62 2.66 0 5.04.72 7.08 2.14 2.02 1.53 3.32 3.37 3.91 5.5.51 1.89.75 5 .75 9.51v4.61l-2.16-1.28c-3.77-2.21-8.96-3.34-15.43-3.34zm7.94 28.84c-2.35 0-4.43-1.11-6.19-3.29-1.64-2.04-2.47-4.68-2.47-7.85 0-3.07.81-5.66 2.41-7.7 1.69-2.1 3.98-3.16 6.79-3.16 3 0 5.86.97 8.5 2.88l.59.43v14.08l-.34.4c-2.36 2.8-5.49 4.21-9.29 4.21zm.53-19.13c-1.94 0-3.43.68-4.56 2.08-1.18 1.51-1.79 3.5-1.79 5.92 0 2.5.62 4.54 1.84 6.06 1.2 1.49 2.5 2.22 3.97 2.22 2.79 0 5.01-.92 6.78-2.81v-11.53c-1.99-1.31-4.04-1.94-6.24-1.94z"/><path class="st1" d="M248.37 135.16h-37.53v-22.1h5.57v-56.6h-5.57v-22.1h32.72v78.71h4.81v22.09z"/><path d="M249.79 136.59h-40.38v-24.96h5.57V57.88h-5.57V32.92h35.58v78.71h4.81l-.01 24.96zm-37.52-2.86h34.67v-19.25h-4.81V35.77h-29.86v19.25h5.57v59.46h-5.57v19.25z"/><path class="st1" d="M279.74 165.63h-22.89v-21.38h8.8l2.65-7.17-20.09-51.89h-4.05V63.08h35.69v22.11h-5.78l9.12 27.61 8.43-27.61h-5.08V63.08h27.05v22.11h-5.24l-28.61 80.44z"/><path d="M280.74 167.06h-25.33v-24.24h9.23l2.11-5.73-19.54-50.48h-4.5V61.65h38.55v24.96h-5.23l7.09 21.47 6.55-21.47h-4.58V61.65H315v24.96h-5.66l-28.6 80.45zm-22.47-2.85h20.46l28.62-80.45h4.82V64.51h-24.2v19.25h5.58l-10.3 33.76-11.15-33.76h6.32V64.51h-32.84v19.25h3.6l20.63 53.31-3.18 8.62h-8.37l.01 18.52z"/><path class="st1" d="M211.57 135.23h-37.09v-22.21h5.4V86.8h-5.4V64.58h32.56v48.44h4.54v22.21h-.01z"/><path d="M213 136.66h-39.95v-25.07h5.4V88.22h-5.4V63.15h35.41v48.44H213v25.07zm-37.1-2.86h34.24v-19.36h-4.54V66h-29.7v19.36h5.4v29.08h-5.4v19.36z"/><path class="st1" d="M49.36 136.11H14.43v-24.13h5.88V59.44h-5.88V35.3h35.96c8.21 0 14.9.68 20.08 2.03 5.22 1.35 10.13 4.13 14.74 8.33 4.57 4.25 8.17 10 10.8 17.25 1.3 3.48 2.29 7.2 2.97 11.16s1.03 8.12 1.03 12.47c0 8.75-1.39 16.72-4.16 23.92-2.74 7.15-6.21 12.64-10.42 16.45-4.1 3.82-8.6 6.31-13.5 7.46-4.86 1.16-12.39 1.74-22.57 1.74zm0-76.68v52.54h2.75c6.84 0 11.29-2.44 13.34-7.32 2.02-4.88 3.02-11.02 3.02-18.41 0-4.44-.43-8.84-1.3-13.19-.9-4.35-2.48-7.71-4.75-10.07-2.23-2.37-6.23-3.55-11.99-3.55h-1.07z"/><path d="M49.36 137.54H13v-26.99h5.88V60.86H13V33.87h37.39c8.29 0 15.16.7 20.45 2.08 5.42 1.41 10.58 4.32 15.34 8.66 4.73 4.4 8.48 10.39 11.18 17.82 1.32 3.53 2.34 7.37 3.03 11.4s1.05 8.31 1.05 12.71c0 8.88-1.43 17.1-4.25 24.43-2.8 7.33-6.43 13.05-10.79 17-4.26 3.96-9.01 6.59-14.13 7.8-4.95 1.17-12.66 1.77-22.91 1.77zm-33.51-2.86h33.5c10.03 0 17.51-.57 22.24-1.7 4.63-1.1 8.95-3.49 12.86-7.12 4.04-3.66 7.42-9.01 10.06-15.92 2.7-7 4.06-14.88 4.06-23.41 0-4.24-.34-8.35-1.01-12.22-.67-3.86-1.64-7.53-2.9-10.9-2.54-7.01-6.05-12.63-10.43-16.7-4.4-4.02-9.16-6.71-14.13-8-5.05-1.32-11.68-1.98-19.73-1.98H15.84V58h5.88v55.4h-5.88l.01 21.28zm36.26-21.28h-4.18V58h2.51c6.23 0 10.49 1.31 13.02 4 2.44 2.54 4.16 6.17 5.11 10.76.88 4.43 1.33 8.96 1.33 13.48 0 7.55-1.05 13.92-3.13 18.95-2.29 5.45-7.22 8.21-14.66 8.21zm-1.33-2.85h1.33c6.27 0 10.2-2.11 12.02-6.44 1.93-4.68 2.91-10.69 2.91-17.86 0-4.33-.43-8.67-1.27-12.91-.84-4.05-2.32-7.21-4.38-9.36-1.91-2.02-5.47-3.06-10.61-3.11v49.68z"/><path class="st2" d="M199.16 63.16c-14.28 4.86-29.79-2.77-34.65-17.05-4.86-14.27 2.77-29.79 17.05-34.65 14.28-4.86 29.79 2.77 34.65 17.05 4.86 14.28-2.77 29.8-17.05 34.65z"/><path d="M190.36 66.05c-12.3 0-23.23-7.83-27.2-19.48-5.1-15 2.95-31.35 17.94-36.46 3-1.02 6.12-1.54 9.26-1.54 12.3 0 23.24 7.83 27.2 19.48 2.47 7.27 1.97 15.06-1.42 21.95s-9.26 12.04-16.52 14.51c-3 1.03-6.12 1.54-9.26 1.54zm.01-54.62c-2.83 0-5.64.47-8.34 1.39-13.51 4.6-20.76 19.33-16.16 32.84a25.873 25.873 0 0024.5 17.55c2.83 0 5.64-.47 8.34-1.39 6.54-2.23 11.83-6.87 14.88-13.07 3.05-6.2 3.51-13.22 1.28-19.77-3.58-10.5-13.42-17.55-24.5-17.55z"/><path class="st2" d="M369.69 151.16c-15.22 5.18-31.75-2.96-36.93-18.18-5.18-15.21 2.96-31.75 18.17-36.93 15.22-5.18 31.75 2.96 36.93 18.18 5.19 15.22-2.95 31.75-18.17 36.93z"/><path d="M360.31 154.15a30.52 30.52 0 01-28.9-20.71c-2.63-7.72-2.09-16 1.51-23.32s9.84-12.8 17.56-15.42c3.19-1.08 6.5-1.64 9.84-1.64 13.08 0 24.69 8.32 28.9 20.7 2.63 7.72 2.09 16-1.51 23.32-3.6 7.32-9.84 12.79-17.56 15.42-3.19 1.1-6.5 1.65-9.84 1.65zm.01-58.23c-3.03 0-6.03.5-8.92 1.48-7 2.38-12.65 7.35-15.92 13.98-3.26 6.63-3.75 14.14-1.37 21.14a27.67 27.67 0 0026.2 18.77c3.03 0 6.03-.5 8.92-1.48 7-2.38 12.65-7.34 15.91-13.98 3.26-6.63 3.75-14.14 1.37-21.14a27.647 27.647 0 00-26.19-18.77z"/><path class="st2" d="M90.18 168.77c-14.9 5.07-31.09-2.89-36.17-17.8-5.07-14.9 2.9-31.09 17.8-36.16 14.9-5.07 31.1 2.9 36.17 17.8s-2.89 31.09-17.8 36.16z"/><path d="M80.99 171.73c-12.81 0-24.2-8.16-28.33-20.3-2.58-7.57-2.05-15.69 1.48-22.86s9.64-12.54 17.21-15.12c3.13-1.06 6.37-1.6 9.65-1.6 12.82 0 24.2 8.16 28.33 20.29 2.58 7.57 2.05 15.69-1.48 22.86s-9.64 12.54-17.21 15.12a29.741 29.741 0 01-9.65 1.61zm.01-57.02c-2.96 0-5.9.49-8.73 1.45-6.85 2.33-12.38 7.19-15.57 13.67-3.19 6.49-3.67 13.83-1.34 20.68 3.74 10.98 14.04 18.36 25.63 18.36 2.96 0 5.9-.49 8.73-1.45 6.85-2.33 12.38-7.19 15.57-13.67 3.19-6.49 3.67-13.83 1.34-20.68A27.065 27.065 0 0081 114.71z"/><g><path class="st3" d="M375.85 122.63l-9.29-5.64.94-1.54c1-1.64 1.54-2.78 1.63-3.42s-.21-1.17-.92-1.6c-.57-.35-1.12-.38-1.67-.12s-1.09.83-1.62 1.71c-.88 1.46-1.21 2.65-.98 3.59.21.93 1.2 3.08 2.95 6.45 1.49 2.86 2.44 4.93 2.84 6.21s.47 2.79.22 4.54-1.01 3.65-2.27 5.72c-2.01 3.31-4.39 5.42-7.13 6.34-2.74.92-5.84.63-9.3-.86l-2.12 3.5-4.28-2.6 2.19-3.61c-2.33-1.75-3.92-4.03-4.77-6.81-.84-2.79-.01-6.25 2.51-10.39l1.1-1.82 9.29 5.64-1.38 2.28c-1.52 2.5-2.37 4.11-2.54 4.83-.18.72.1 1.31.84 1.75.63.38 1.22.46 1.79.22.56-.23 1.1-.77 1.6-1.59 1.27-2.08 2.03-3.66 2.28-4.74.25-1.07-.15-2.66-1.21-4.75-1.76-3.5-2.89-5.98-3.4-7.43-.51-1.46-.68-3.17-.5-5.13.18-1.97.85-3.91 2.01-5.83 1.68-2.77 3.79-4.47 6.32-5.1 2.53-.62 5.48-.17 8.84 1.38l1.8-2.96 4.28 2.6-1.8 2.97c2.64 2.11 4.2 4.38 4.68 6.8.48 2.42-.11 5-1.78 7.75-.23.35-.61.92-1.15 1.66z"/></g><g><path class="st3" d="M201.8 34.33l-8.5-2.59.43-1.41c.46-1.5.66-2.51.6-3.04-.06-.52-.41-.88-1.05-1.08-.52-.16-.97-.08-1.35.25-.38.32-.69.88-.94 1.68-.41 1.33-.42 2.35-.05 3.04.36.69 1.57 2.2 3.64 4.51 1.76 1.96 2.93 3.41 3.51 4.34.58.93.94 2.12 1.09 3.55s-.06 3.1-.63 4.99c-.92 3.03-2.38 5.19-4.36 6.47-1.98 1.28-4.5 1.68-7.54 1.2l-.97 3.2-3.92-1.19 1.01-3.3c-2.21-.92-3.93-2.39-5.16-4.43-1.24-2.04-1.28-4.95-.12-8.74l.51-1.66 8.5 2.59-.63 2.08c-.7 2.29-1.04 3.74-1.03 4.34.01.61.35 1.01 1.02 1.22.58.17 1.06.11 1.46-.19s.71-.83.94-1.59c.58-1.91.86-3.32.85-4.22-.02-.9-.66-2.07-1.92-3.52-2.1-2.42-3.5-4.15-4.2-5.2s-1.18-2.37-1.44-3.97-.12-3.27.41-5.03c.77-2.54 2.1-4.31 3.98-5.32 1.88-1.01 4.31-1.24 7.29-.71l.83-2.72 3.92 1.19-.83 2.72c2.52 1.13 4.22 2.61 5.09 4.43.87 1.82.93 3.99.16 6.5-.13.38-.32.91-.6 1.61z"/></g><g><path class="st3" d="M83.92 127.83l-8.02 6.46-1.07-1.33c-1.14-1.42-1.98-2.27-2.52-2.55-.54-.29-1.11-.19-1.72.3-.49.39-.71.88-.64 1.45.06.58.39 1.24 1 1.99 1.01 1.26 1.97 1.93 2.88 2.03.9.11 3.13-.07 6.69-.55 3.03-.41 5.18-.59 6.45-.53 1.27.06 2.64.48 4.11 1.27 1.47.79 2.93 2.07 4.37 3.86 2.3 2.86 3.42 5.65 3.36 8.39-.07 2.74-1.32 5.4-3.76 8.01l2.43 3.02-3.69 2.97-2.51-3.12c-2.31 1.51-4.85 2.2-7.61 2.05-2.76-.15-5.58-2.01-8.45-5.58l-1.26-1.57 8.02-6.46 1.58 1.96c1.74 2.16 2.9 3.43 3.49 3.82s1.2.33 1.83-.18c.54-.44.8-.94.77-1.52s-.33-1.22-.91-1.94c-1.45-1.8-2.61-2.98-3.49-3.56-.88-.57-2.42-.72-4.62-.45-3.68.44-6.26.65-7.72.64s-3.04-.42-4.74-1.21c-1.7-.79-3.21-2.02-4.54-3.67-1.93-2.4-2.76-4.82-2.51-7.28.26-2.46 1.62-4.93 4.07-7.44l-2.06-2.56 3.69-2.97 2.06 2.56c2.73-1.68 5.25-2.34 7.56-1.99 2.31.35 4.42 1.71 6.33 4.08.28.36.66.88 1.15 1.6z"/></g></svg>