<svg viewBox="7.56 12.75 446.796 165.72" xmlns="http://www.w3.org/2000/svg"><defs><style>.st0{fill:#ffc425}.st2{fill:#fff}.st3{fill:#b3b3b3}</style></defs><path class="st0" d="M114.86 88.61l-21.27-2.9c2.34-6.91 6.12-11.77 11.34-14.57 5.15-2.8 12.74-4.2 22.79-4.2 3.71 0 7.03.16 9.96.47 2.94.31 5.55.78 7.86 1.41 4.78 1.21 8.33 3.07 10.63 5.58 2.3 2.56 3.91 5.32 4.81 8.26.93 3.04 1.4 7.78 1.4 14.21v20.29h6.69v22.1h-33.85v-4.78c-4.68 4.06-10.94 6.09-18.79 6.09-7.38 0-12.94-2.17-16.69-6.52-3.78-4.35-5.67-9.5-5.67-15.44 0-6.57 2.32-11.96 6.97-16.16 4.61-4.2 10.62-6.31 18.03-6.31 6.77 0 12.15 1.19 16.15 3.55v-2.1c0-4.35-.23-7.39-.7-9.13-.5-1.83-1.62-3.41-3.35-4.71-1.8-1.26-3.89-1.88-6.26-1.88-4.36 0-7.71 2.24-10.05 6.74zm20.36 32.68v-12.83c-2.41-1.74-4.97-2.61-7.67-2.61-2.38 0-4.27.87-5.67 2.61-1.41 1.79-2.11 4.06-2.11 6.81 0 2.85.72 5.17 2.16 6.96 1.47 1.84 3.17 2.75 5.07 2.75 3.4.01 6.13-1.22 8.22-3.69z"/><path d="M116.43 142c-7.78 0-13.76-2.36-17.77-7.02-3.99-4.59-6.01-10.1-6.01-16.37 0-6.96 2.5-12.75 7.44-17.22 4.85-4.43 11.24-6.67 18.99-6.67 5.86 0 10.8.89 14.72 2.64-.01-4.08-.23-6.94-.65-8.52-.42-1.53-1.35-2.82-2.83-3.94-1.53-1.06-3.31-1.6-5.4-1.6-3.81 0-6.68 1.95-8.78 5.97l-.46.89-23.98-3.27.56-1.64c2.45-7.23 6.49-12.4 12.02-15.37 5.33-2.9 13.23-4.37 23.46-4.37 3.75 0 7.16.16 10.11.48 2.99.32 5.71.81 8.08 1.45 5.02 1.27 8.83 3.29 11.31 6 2.44 2.72 4.16 5.68 5.12 8.81.99 3.21 1.46 8 1.46 14.62v18.86h6.69v24.96H133.8v-3.33c-4.62 3.08-10.44 4.64-17.37 4.64zm2.64-44.43c-7.01 0-12.76 2-17.07 5.93-4.38 3.96-6.5 8.9-6.5 15.11 0 5.56 1.79 10.44 5.32 14.5 3.45 4 8.7 6.03 15.61 6.03 7.46 0 13.46-1.93 17.85-5.74l2.36-2.05v6.49h31v-19.25h-6.69V96.87c0-6.25-.45-10.89-1.34-13.79-.83-2.73-2.35-5.33-4.5-7.73-2.09-2.28-5.43-4.02-9.92-5.15-2.25-.61-4.82-1.07-7.66-1.37-2.86-.31-6.15-.46-9.81-.46-9.75 0-17.19 1.36-22.1 4.03-4.45 2.39-7.83 6.47-10.07 12.14l18.55 2.53c2.57-4.4 6.21-6.62 10.82-6.62 2.66 0 5.04.72 7.08 2.14 2.02 1.52 3.32 3.36 3.91 5.5.51 1.88.75 4.99.75 9.51v4.6l-2.15-1.28c-3.77-2.22-8.96-3.35-15.44-3.35zm7.94 28.84c-2.35 0-4.44-1.11-6.19-3.29-1.64-2.04-2.48-4.68-2.48-7.85 0-3.07.81-5.66 2.41-7.7 1.69-2.1 3.97-3.16 6.79-3.16 2.99 0 5.85.97 8.5 2.88l.59.43v14.08l-.34.4c-2.34 2.8-5.47 4.21-9.28 4.21zm.54-19.13c-1.94 0-3.43.68-4.56 2.08-1.19 1.51-1.79 3.5-1.79 5.92 0 2.54.6 4.52 1.84 6.06 1.2 1.5 2.5 2.22 3.96 2.22 2.79 0 5.01-.92 6.78-2.81v-11.53c-1.98-1.3-4.03-1.94-6.23-1.94z"/><path class="st0" d="M242.93 139.34H205.4v-22.1h5.56v-56.6h-5.56v-22.1h32.72v78.7h4.81v22.1z"/><path d="M244.36 140.77h-40.38v-24.96h5.56V62.07h-5.56V37.11h35.58v78.7h4.81v24.96h-.01zm-37.53-2.85h34.67v-19.25h-4.81v-78.7h-29.86v19.25h5.56v59.46h-5.56v19.24z"/><path class="st0" d="M43.92 140.29H8.99v-24.14h5.88V63.61H8.99V39.48h35.96c8.21 0 14.9.68 20.08 2.03 5.22 1.35 10.13 4.13 14.74 8.33 4.57 4.25 8.17 10 10.8 17.25 1.3 3.48 2.29 7.2 2.97 11.16.68 3.96 1.03 8.12 1.03 12.47 0 8.74-1.39 16.72-4.16 23.91-2.74 7.15-6.21 12.64-10.42 16.45-4.1 3.82-8.6 6.3-13.5 7.46-4.86 1.17-12.38 1.75-22.57 1.75zm0-76.67v52.54h2.75c6.84 0 11.29-2.44 13.34-7.32 2.02-4.88 3.03-11.02 3.03-18.41 0-4.44-.43-8.84-1.3-13.19-.9-4.35-2.48-7.71-4.75-10.07-2.23-2.37-6.23-3.55-11.99-3.55h-1.08z"/><path d="M43.92 141.72H7.56v-26.99h5.88V65.04H7.56V38.05h37.39c8.29 0 15.17.7 20.44 2.07 5.42 1.4 10.58 4.32 15.34 8.66 4.73 4.4 8.49 10.39 11.18 17.82 1.31 3.52 2.34 7.36 3.03 11.4.69 4.03 1.05 8.3 1.05 12.71 0 8.88-1.43 17.1-4.25 24.43-2.8 7.33-6.43 13.05-10.8 17-4.25 3.96-9.01 6.58-14.13 7.79-4.93 1.19-12.63 1.79-22.89 1.79zm-33.5-2.85h33.5c10.03 0 17.51-.57 22.24-1.7 4.63-1.09 8.96-3.49 12.86-7.12 4.04-3.66 7.42-9.01 10.06-15.92 2.7-7 4.06-14.87 4.06-23.4 0-4.24-.34-8.36-1-12.22-.67-3.87-1.64-7.54-2.9-10.9-2.54-7.01-6.05-12.63-10.43-16.7-4.41-4.02-9.16-6.71-14.13-8-5.04-1.32-11.68-1.98-19.73-1.98H10.42v21.28h5.88v55.4h-5.88v21.26zm36.26-21.28H42.5v-55.4h2.51c6.23 0 10.49 1.31 13.02 4 2.44 2.54 4.16 6.17 5.11 10.77.88 4.43 1.33 8.96 1.33 13.48 0 7.55-1.05 13.92-3.13 18.95-2.29 5.44-7.22 8.2-14.66 8.2zm-1.33-2.86h1.33c6.27 0 10.2-2.11 12.02-6.44 1.93-4.68 2.91-10.69 2.91-17.86 0-4.33-.43-8.67-1.27-12.91-.84-4.05-2.31-7.21-4.38-9.37-1.91-2.02-5.47-3.06-10.61-3.11v49.69z"/><path class="st0" d="M274.3 169.82h-22.89v-21.38h8.8l2.65-7.17-20.09-51.89h-4.05V67.27h35.69v22.11h-5.78l9.12 27.61 8.43-27.61h-5.08V67.27h27.05v22.11h-5.24l-28.61 80.44z"/><path d="M275.31 171.25h-25.33v-24.24h9.23l2.12-5.73-19.54-50.48h-4.5V65.84h38.55V90.8h-5.23l7.09 21.47 6.55-21.47h-4.58V65.84h29.91V90.8h-5.66l-28.61 80.45zm-22.47-2.86h20.46l28.62-80.45h4.82V68.69h-24.2v19.25h5.58l-10.3 33.75-11.15-33.75h6.32V68.69h-32.84v19.25h3.6l20.63 53.31-3.18 8.61h-8.37l.01 18.53z"/><path class="st0" d="M206.13 139.41h-37.09V117.2h5.4V90.98h-5.4V68.76h32.56v48.44h4.54v22.21h-.01z"/><path d="M207.56 140.84h-39.95v-25.07h5.4V92.4h-5.4V67.33h35.41v48.44h4.54v25.07zm-37.09-2.85h34.24v-19.36h-4.54V70.19h-29.7v19.36h5.4v29.07h-5.4v19.37z"/><path d="M424.37 172.04h-76.12v-30.88h17.59v-19.27h-61.35l-8.17-31.75 68.06-73.47h45.02v78.18h14.97v27.04H409.4v19.27h14.97v30.88zm-97.89-77.2h39.37V53.23l-39.37 41.61z" fill="#ae59a2"/><path d="M425.8 173.47h-78.97v-33.73h17.59v-16.42h-61.03l-8.64-33.58 69.01-74.5h47.07v78.18h14.97v29.9h-14.97v16.42h14.97v33.73zm-76.12-2.86h73.26v-28.02h-14.97v-22.13h14.97V96.27h-14.97V18.09H365l-67.11 72.44 7.7 29.92h61.68v22.13h-17.59v28.03zm17.59-74.34h-44.11l44.11-46.62v46.62zm-37.48-2.85h34.62V56.83l-34.62 36.59z"/><path class="st2" d="M322.76 170.29c-15.46 5.26-32.25-3-37.51-18.46s3.01-32.25 18.46-37.51c15.46-5.26 32.25 3.01 37.51 18.46 5.26 15.46-3 32.25-18.46 37.51z"/><path d="M313.24 173.3c-13.27 0-25.06-8.44-29.34-21.01-5.5-16.18 3.18-33.82 19.35-39.32 3.24-1.1 6.6-1.66 9.99-1.66 13.27 0 25.06 8.45 29.33 21.01 2.67 7.84 2.12 16.24-1.53 23.67-3.65 7.43-9.98 12.99-17.82 15.65-3.23 1.1-6.59 1.66-9.98 1.66zm0-59.14c-3.08 0-6.13.51-9.07 1.51-14.68 5-22.57 21.01-17.57 35.7a28.132 28.132 0 0026.63 19.08c3.08 0 6.13-.51 9.07-1.51 7.11-2.42 12.86-7.47 16.18-14.21s3.81-14.37 1.39-21.49a28.123 28.123 0 00-26.63-19.08z"/><path class="st2" d="M93.93 175.52c-14.9 5.07-31.09-2.9-36.17-17.8-5.07-14.9 2.9-31.09 17.8-36.17 14.9-5.07 31.1 2.9 36.17 17.8 5.08 14.9-2.89 31.1-17.8 36.17z"/><path d="M84.75 178.47c-12.82 0-24.2-8.16-28.33-20.3-5.32-15.62 3.07-32.66 18.69-37.98 3.13-1.06 6.37-1.6 9.65-1.6 12.82 0 24.2 8.16 28.33 20.3 2.58 7.57 2.05 15.69-1.48 22.86s-9.64 12.54-17.21 15.12c-3.13 1.06-6.38 1.6-9.65 1.6zm0-57.02c-2.96 0-5.9.49-8.73 1.45-14.13 4.81-21.72 20.22-16.91 34.35 3.74 10.98 14.04 18.36 25.63 18.36 2.96 0 5.89-.49 8.72-1.45 6.85-2.33 12.38-7.19 15.57-13.67 3.19-6.49 3.67-13.83 1.34-20.68a27.037 27.037 0 00-25.62-18.36z"/><path class="st2" d="M193.73 67.35c-14.28 4.86-29.79-2.77-34.65-17.05-4.86-14.27 2.77-29.79 17.05-34.65 14.28-4.86 29.79 2.78 34.65 17.05 4.86 14.28-2.78 29.79-17.05 34.65z"/><path d="M184.93 70.24c-12.3 0-23.23-7.83-27.2-19.49-5.1-15 2.95-31.36 17.94-36.46 3-1.02 6.12-1.54 9.26-1.54 12.3 0 23.23 7.83 27.2 19.48 2.47 7.27 1.97 15.06-1.42 21.95s-9.26 12.04-16.52 14.51c-3 1.03-6.12 1.55-9.26 1.55zm0-54.63c-2.83 0-5.64.47-8.34 1.39-13.51 4.6-20.76 19.33-16.16 32.84a25.863 25.863 0 0024.5 17.55c2.83 0 5.64-.47 8.34-1.39 6.54-2.23 11.83-6.87 14.88-13.07 3.05-6.2 3.51-13.22 1.28-19.77a25.873 25.873 0 00-24.5-17.55z"/><g><path class="st2" d="M434.42 109.28c-14.28 4.86-29.79-2.77-34.65-17.05-4.85-14.27 2.78-29.79 17.05-34.64 14.28-4.86 29.79 2.77 34.65 17.05 4.86 14.27-2.77 29.78-17.05 34.64z"/><path d="M425.61 112.17c-12.3 0-23.23-7.83-27.2-19.48-5.1-15 2.95-31.35 17.94-36.46 3-1.02 6.12-1.54 9.26-1.54 12.3 0 23.23 7.83 27.2 19.48 2.47 7.27 1.97 15.06-1.42 21.95-3.39 6.89-9.26 12.04-16.52 14.51a28.644 28.644 0 01-9.26 1.54zm.01-54.63c-2.83 0-5.64.47-8.34 1.39-13.51 4.59-20.76 19.32-16.16 32.83a25.873 25.873 0 0024.5 17.55c2.83 0 5.64-.47 8.34-1.39 6.54-2.22 11.83-6.87 14.88-13.07s3.51-13.22 1.28-19.77a25.89 25.89 0 00-24.5-17.54z"/></g><g><path d="M92.93 109.39l-4.02 8.83 5.89 3.49-1.87-12.32z"/></g><g><path class="st3" d="M92.75 136.71l-9.79 3.2-.53-1.62c-.57-1.73-1.05-2.82-1.45-3.28s-.97-.57-1.71-.32c-.6.2-.97.57-1.12 1.13s-.07 1.3.23 2.22c.5 1.53 1.16 2.51 1.97 2.92.8.42 2.95 1.04 6.45 1.86 2.98.69 5.05 1.28 6.22 1.79 1.16.5 2.3 1.38 3.4 2.64s2.01 2.98 2.72 5.16c1.14 3.49 1.2 6.5.17 9.04s-3.15 4.59-6.35 6.16l1.21 3.68-4.51 1.47-1.25-3.8c-2.7.6-5.31.34-7.84-.77s-4.5-3.85-5.93-8.21l-.63-1.91 9.79-3.2.79 2.4c.86 2.63 1.5 4.23 1.91 4.81.41.57 1 .73 1.78.48.66-.22 1.08-.6 1.26-1.15s.12-1.26-.16-2.13c-.72-2.2-1.39-3.72-2-4.56-.62-.84-2-1.53-4.16-2.06-3.6-.9-6.08-1.61-7.44-2.14-1.36-.53-2.7-1.46-4-2.81-1.31-1.34-2.29-3.02-2.95-5.04-.96-2.92-.88-5.49.23-7.69 1.11-2.21 3.26-4.04 6.44-5.51l-1.02-3.12 4.51-1.47 1.02 3.12c3.15-.6 5.74-.33 7.78.82s3.53 3.17 4.48 6.06c.11.36.27.99.48 1.83z"/></g><g><path class="st3" d="M328.07 141.14l-8.48-5.85.97-1.41c1.03-1.5 1.61-2.54 1.73-3.14.12-.6-.14-1.12-.78-1.56-.52-.36-1.04-.42-1.58-.21-.53.22-1.08.73-1.62 1.53-.92 1.33-1.29 2.44-1.13 3.34.15.89.96 2.97 2.43 6.26 1.26 2.79 2.04 4.8 2.34 6.03.31 1.23.29 2.67-.04 4.3-.33 1.64-1.15 3.4-2.46 5.29-2.08 3.02-4.45 4.89-7.09 5.61-2.64.72-5.56.27-8.75-1.33l-2.2 3.19-3.9-2.69 2.27-3.29c-2.11-1.79-3.49-4.02-4.14-6.71-.65-2.69.33-5.92 2.94-9.69l1.14-1.66 8.48 5.85-1.43 2.08c-1.57 2.28-2.46 3.76-2.67 4.43-.21.67.03 1.24.7 1.7.57.4 1.13.5 1.68.31s1.08-.67 1.6-1.42c1.31-1.9 2.12-3.35 2.42-4.36.3-1 0-2.52-.88-4.56-1.47-3.41-2.41-5.81-2.81-7.22-.4-1.4-.47-3.03-.19-4.88s1.02-3.65 2.22-5.4c1.75-2.53 3.83-4.02 6.26-4.48 2.43-.45 5.19.14 8.29 1.78l1.87-2.71 3.9 2.69-1.87 2.71c2.38 2.14 3.74 4.37 4.06 6.68.32 2.32-.38 4.73-2.11 7.23-.23.38-.62.89-1.17 1.56z"/></g><g><path class="st3" d="M197.92 38.18l-9-3.46.57-1.49c.61-1.59.91-2.67.89-3.24s-.37-.99-1.05-1.25c-.55-.21-1.04-.16-1.48.16s-.82.9-1.14 1.75c-.54 1.41-.64 2.51-.29 3.29.33.78 1.53 2.5 3.59 5.16 1.76 2.26 2.91 3.91 3.46 4.97.55 1.05.85 2.36.91 3.93.06 1.56-.3 3.35-1.07 5.35-1.23 3.21-2.97 5.43-5.21 6.66-2.25 1.23-5 1.47-8.25.72l-1.3 3.38-4.14-1.59 1.34-3.5c-2.31-1.16-4.06-2.89-5.24-5.19s-1-5.46.54-9.46l.68-1.76 9 3.46-.85 2.2c-.93 2.42-1.41 3.96-1.45 4.62s.3 1.12 1.01 1.4c.61.23 1.14.2 1.59-.09.45-.29.83-.84 1.14-1.64.78-2.02 1.19-3.52 1.24-4.49.05-.98-.55-2.29-1.8-3.95-2.08-2.78-3.47-4.76-4.14-5.95-.68-1.19-1.09-2.66-1.25-4.4-.16-1.75.12-3.55.84-5.4 1.03-2.69 2.6-4.5 4.71-5.45 2.11-.94 4.75-1.01 7.93-.2l1.1-2.87 4.14 1.59-1.1 2.87c2.64 1.42 4.36 3.15 5.16 5.19.8 2.04.69 4.38-.33 7.04-.16.35-.41.91-.75 1.64z"/></g><g><path class="st3" d="M433.48 72.75l-9.49 1.66-.28-1.57c-.29-1.68-.6-2.75-.91-3.23s-.83-.65-1.55-.53c-.58.1-.97.4-1.19.9-.21.5-.24 1.19-.08 2.08.26 1.49.74 2.48 1.44 2.97.68.49 2.59 1.35 5.73 2.58 2.67 1.03 4.51 1.86 5.52 2.48 1.01.62 1.95 1.59 2.8 2.9s1.46 3.03 1.83 5.14c.59 3.38.24 6.18-1.05 8.39-1.29 2.21-3.53 3.83-6.7 4.86l.63 3.57-4.37.77-.65-3.69c-2.58.19-4.97-.39-7.16-1.76s-3.66-4.17-4.4-8.4l-.33-1.86 9.49-1.66.41 2.33c.45 2.55.82 4.12 1.13 4.71.3.58.83.81 1.58.68.64-.11 1.08-.41 1.32-.9.24-.48.28-1.15.13-2-.37-2.13-.79-3.63-1.25-4.49s-1.65-1.68-3.58-2.46c-3.22-1.31-5.42-2.3-6.61-2.97s-2.3-1.71-3.33-3.13-1.72-3.1-2.06-5.06c-.5-2.83-.08-5.2 1.24-7.09 1.32-1.89 3.56-3.31 6.7-4.25l-.53-3.03 4.37-.77.53 3.03c3-.14 5.36.46 7.1 1.8 1.74 1.33 2.85 3.4 3.34 6.21.08.38.15.98.23 1.79z"/></g></svg>