<svg xmlns="http://www.w3.org/2000/svg" id="Layer_2" data-name="Layer 2" viewBox="0 0 447.2 216.79"><defs><radialGradient id="radial-gradient" cx="-436.54" cy="-407.24" r="1.67" fx="-436.54" fy="-407.24" gradientTransform="translate(10408.65 9676.36)scale(23.61)" gradientUnits="userSpaceOnUse"><stop offset="0" stop-color="#fff"/><stop offset=".07" stop-color="#fffdf4"/><stop offset=".2" stop-color="#fff8d9"/><stop offset=".37" stop-color="#fff0ad"/><stop offset=".56" stop-color="#ffe570"/><stop offset=".79" stop-color="#ffd723"/><stop offset=".88" stop-color="#ffd100"/></radialGradient><clipPath id="clippath"><circle cx="116.22" cy="78.24" r="50.76" style="fill:none"/></clipPath><style>.cls-1{fill:#f8d000}.cls-3{fill:#160b8b}.cls-6{fill:#e2211c}.cls-7{fill:#79858b}.cls-8{fill:#2c2b7c}</style></defs><g id="Layer_4" data-name="Layer 4"><g id="c"><path d="M86.22 183.42a303 303 0 0 1-19.98-7.4c10.75 6.78 24.4 12.85 38.94 17.17q9.58 3.01 19.5 4.68c2.25.37 4.01.63 6 .84l.59-4.2c-13.55-2.02-28.84-5.71-45.05-11.1" class="cls-1"/><path d="m309.83 106.05 16.12.02v-3.56h-16.14zm19.67-3.53-.02 5.72 2.54-.03v6.98a40 40 0 0 0 7.23 12.25c6.04 6.89 14.13 10.62 22.95 10.62q.98 0 1.95-.06c7.93-.49 15.6-4.59 21.38-11.24-5.2 4.54-11.43 7.3-17.83 7.68q-.98.06-1.94.06c-8.83 0-16.92-3.72-22.95-10.62-7.1-8.11-10.86-19.77-10.85-33.71 0-14.36 3.79-26.41 10.73-34.51l-.6.5c-6.41 5.78-10.72 14.43-12.6 24.97zm46.13-22.53c-1.29-3.54-3.69-5.66-6.58-5.83a7.2 7.2 0 0 0-5.5 2.1q-1.02.96-1.85 2.32a7 7 0 0 1 3.8-.87c2.27.14 4.23 1.5 5.6 3.78l9.64.3 13.29-6.22-.34-2.08-.12-.39-17.37 8.46zm-196.02 95.13q.27-1.53.68-3.02l5.62-19.51-2.58.15-5.27 18.31z" class="cls-7"/><path d="m362.13 84.85-.2 20.17a9.4 9.4 0 0 0 2.95 2.62h5.95a7.4 7.4 0 0 0 3.56-3.57l-8.93.02.18-19.12zm-83.62 53.53-2.78.16.04 3.34 52.7-3.09v-3.35l-49.15 2.89L278 41.1l-3.61-.37 1.06 77.75zm31.12-65.28 18.11 1.07V70.4l-18.13-1.06zm132.6 75.38v-.03c-1.5-1.24-2.8-1.77-4.12-1.67-.25.02-.66.1-.75.45l.42.1 2.4.52q1.02.2 2.05.62Zm-8.18 12.85s1.18-.17 1.21-.9v-.03l-.52-.09-2.2-.29a10 10 0 0 1-3.9-1.34l.57.54q2.58 2.37 4.84 2.11m-7.11-4c-1.6-1.65-2.66-4.1-2.56-7.53a16.6 16.6 0 0 1 3-9.26 15 15 0 0 0-3.8 3.9l-.78 25.44zm-30.57-46.61-6.04 24.45 22.4-1.32.59-3.38-19.44 1.15 18.93-76.54-2.6-.27-11.61 46.93a48 48 0 0 1-2.22 8.98Zm31.69 9.87-10.17.4-.59 3.43 7.21-.28 1.27 8.95 19.66-1.16-.62-3.31-15.49.92zm-17.68 30.28q-.03-.94 0-1.88l.25-9.1-3.47.2-.1 3.72zm-185.2-9.36-20.2 1.18-15.41-47.1q-.84-3.02-1.53-5.89-.09 2.54-.23 5.02l-.47 8.47 14.08 43.05 22.88-1.34zm143.5 40.91q-1.61.22-3.16.22c-4.73 0-9-1.51-12.26-4.37-4.14-3.63-6.3-9.08-6.26-15.75a25.3 25.3 0 0 1 5.46-15.77c-3.38 2.71-6 6.4-7.52 10.7l-.07 17.2a17.6 17.6 0 0 0 4.83 7.17c3.26 2.86 7.53 4.37 12.27 4.37q1.54 0 3.15-.22a23 23 0 0 0 14.93-8.36 23 23 0 0 1-11.37 4.8Zm-94.23-43.8-28.66 1.68-4.99-48.91q-.21.98-.47 1.94l-2.33 8.96 4.23 41.56 32.73-1.92zm19.91 53.14-.53-45.26-3.59.2.33 27.95 1.99-.22.24 17.54-2.03.27.04 3.07 31.93-4.28v-3.07zm115.97-15.54-6.57-13.13v.73l-.23 9.45 3.25 6.5 12.33-1.66.1-3.09zm24.51-2.75c-3.86.47-7.78-.22-11.25-1.97l-.82-.43-.1 3.49-2.86.38.23.12a19.7 19.7 0 0 0 11.25 1.96 15 15 0 0 0 10.11-6.17 15 15 0 0 1-6.56 2.62m-177.66 23.27-1.17-48.11-3.64.21 1.26 51.46 35.62-4.78-.04-3.07zm132.39-17.75.76-37.95-3.48.2-.14 6.87a23 23 0 0 1 2.28 10.71 25.5 25.5 0 0 1-2.72 11.12l-.26 12.6 13.88-1.85.07-3.09-10.4 1.4h.01Zm-62.1 8.33-.03-42.73-3.56.2.02 26.21 2.37-.26.03 16.74-2.38.32v3.07l17.35-2.32v-3.08zM181.7 144.05l-39.49 2.31 13.41-117.94-4-.34-13.86 121.82 43.75-2.5zm-49.12 69.4 8.19-58.31-3.97-.03-8.67 61.68 29.24-3.59.2-3.1zm82.39-129.36c.37-3.04.8-6.07 1.46-8.96l9.14-39.46-2.66-.28-9.74 42.02zm13.57 116.49-1.72-50.3-3.67.21 1.84 53.64 22.84-3.05-.08-3.07zm-27.81 3.73-3.54-23.34-2.79 8.59 2.78 18.3 23.98-3.21-.69-2.99zm-27.48 3.68-10.5-23.05-.17-.46v.02l-.66 9.97 7.78 17.08 15.86-2.14 1.04-3.21-13.35 1.8Z" class="cls-7"/><path d="m157.38 26.19 41.6 4.3 15.96 59.26.91.02c.51-4.73 1.01-9.74 2.04-14.31l9.73-42 33.78 3.5 15.38 100.02-29.65 1.74-5.71-56.1-.6-.03c-.54 3.46-1.05 7.04-1.94 10.35l-12.21 46.98-20.63 1.2-15.05-46c-1.3-4.76-2.46-9.27-2.93-14.07l-1.27-.04c-.12 4.5-.22 9.14-.48 13.63l-2.67 47.8-39.74 2.32zm122.08 12.65 50.32 5.22v24.96l-21.68-1.27.05 8.99 19.83.86.02 23.42-19.7-.02.06 9.07 22.16-.33v24.08l-49.72 2.92zM398.3 83.97c-.38 12.83-.57 23.52-6.93 33.63-5.83 9.33-14.9 14.8-23.76 15.35-9.01.55-17.42-2.91-23.68-10.06-6.42-7.34-10.48-18.46-10.47-32.72 0-29.32 15.8-45.5 35.15-43.45 10.1 1.08 23.25 9.5 27.2 23.62l-18.77 9.14c-1.54-4.25-4.5-6.62-7.9-6.82-7.76-.42-12.2 8.9-12.26 19.23-.07 9.37 4.05 18.06 11.04 17.95a8.95 8.95 0 0 0 8.54-7.27h-9.49l.2-19.72zm21.82 17.8 3.67-22.76.62.04c.23 3.19.46 6.47.87 9.65l1.63 13.07zm-3.5 17.77 12.74-.5 1.26 8.92 16.58-.98-13.36-72.13-18.94-1.97L395.82 130l19.2-1.13z" class="cls-6"/><path d="m228.25 148.35 20.24-1.14 1.36 49-19.87 2.66zm29.21-1.65 18.5-1.04.59 32.03 14.54-1.59.19 14.56-32.64 4.37zm37.85-2.13 16.35-.93.2 30.18 12.91-1.41.02 13.76-28.95 3.88zm33.63-1.91 14.56-.82-.17 41.84-14.36 1.93zm62.93-3.55 11.03-.63 9.32 19.84.31-.04c-.35-3.01-.73-6.13-.65-9.25l.3-11.07 10.1-.57-1.08 35.85-10 1.34-9.13-18.22-.33.03c.3 2.55.57 4.93.52 7.4l-.29 12.03-10.87 1.46zm35.82 20.74.49.46c1.72 1.58 3.8 2.77 6.04 2.51.95-.1 2.48-.78 2.54-2.34.05-1.55-1.21-1.55-2.09-1.7l-1.93-.25c-3.83-.48-7.03-3.11-6.86-8.68.27-8.5 6.39-13.59 12.24-13.91 3-.17 5.69.65 8.13 2.55l-2.85 8.97c-1.56-1.33-3.35-2.34-5.4-2.17-.85.06-2.1.57-2.16 2-.03 1.3 1.16 1.4 1.88 1.56l2.14.46c3.95.84 6.69 3.38 6.47 9.14-.31 8.05-6.02 12.77-11.69 13.53-3.55.43-7.15-.2-10.35-1.8zm-285.13-6.66 26.5-1.5 10.77 28.22.62-.05c.31-2.42.62-4.98 1.28-7.36l6.3-21.88 23.17-1.3 11.68 50.5-20.88 2.8-4.31-28.33-.41.04c-.35 1.79-.68 3.66-1.27 5.41l-8.03 24.76-13.83 1.86-10.03-22.04a31 31 0 0 1-1.96-6.76l-.83.07c-.05 2.24-.1 4.54-.25 6.77l-1.58 23.92-25.16 3.38zM369 139.76c-10.99.6-20.42 9.69-20.5 22.77-.08 13.25 9.08 19.88 19.98 18.4 10.45-1.4 18.78-9.84 19.01-22.14.23-12.13-7.95-19.62-18.5-19.03" class="cls-3"/><path d="m367.44 156.11 3.15-10.78 3.52 10.26 8.99-.74-6.94 6.68 3.1 9.28-8-4.67-9.38 8.96 3.55-12.16-10.36-5.94z" style="fill:#fff"/><g style="clip-path:url(#clippath)"><path d="M65.46 27.48h101.5v101.51H65.46z" style="fill:url(#radial-gradient)"/></g><path d="M114.89 138.71a84 84 0 0 1-15.43-.74 47.6 47.6 0 0 0 30.91 6.5 42 42 0 0 0 20.09-7.38l.44-.32a48 48 0 0 0 16.78-19.62l.73-1.63.12-.27.37-.82a42 42 0 0 0 1.63-4.76c-9.71 16.19-30.76 27.94-55.64 29.04" class="cls-1"/><path d="m155.87 77.42.86-9.4-5.12 6.49-7.04-5.06 2.74-9 7.65 1.6-5.95-7.16 2.53-8.07-6.35 3.45-6.9-8.33 2.4 10.91-7.3 3.92-5.8-9.57 6.03-7.63-10.29.54-6.95-11.67-.07 12.05-13.6.71 13.7 7.24-.15 12.33-14.07-.06-6.84-14.16-4.02 14.09-20.1-.24 17.56 9.18-4.53 15.88 14.4-10.92 12.97 6.88-5.9 13.3-17.72.75 13.44 8.77-7.32 16.11 14.5-11.43 10.78 7.02-2.88-13.43 10.56-8.24 6.71 8.68-6.25 12.44 10.36-7.08 5.91 7.8-.5-11.5 7.97-5.46-8.39-1.8-.42-10.93 8.11-2.03 3.82 8.96.92-10.12 6.54-1.56-6-4.26Zm-13.6 8.88-5.02 9.77-10.16-2.13-12.25.38-2.81-13-5.86-12.4 10.3-7.94 7.1-8.68 9.7 5.08 8.82 1.98 2.26 10.17 3.84 9.22z" class="cls-3"/><path d="M24.42 47.98c-4.58 11.66-2.21 39.6 8.25 58.95a154 154 0 0 0 13.97 23.18C32.88 115.67 17.28 92.47 11.06 63.4c6.63-9.59 9.14-11.26 13.36-15.42" class="cls-6"/><path d="M95.5 23.95a45 45 0 0 1 6.85-2.11c-6-3.37-51.4-27.48-84.84-4.82-28.23 19.12-14.58 58.8-11.57 66.53 8.22 22.43 24.63 45.2 46.2 64.13 20.93 18.36 45.63 29.66 68.34 35.18l.24-.67c-13.93-6.67-26.57-17.78-39.08-28.76C44.88 121.17 24.99 78.21 33.3 49.88a172 172 0 0 1 25.94 15.94q.6-2.62 1.44-5.16A175 175 0 0 0 32.9 44.12l-2.47-1.17-.94 2.56c-5.41 14.68-3.55 33.88 5.25 54.07 8.81 20.2 24.3 40.66 43.6 57.6a195 195 0 0 0 17.14 13.42 178 178 0 0 1-40.04-26.69c-20.95-18.39-36.86-40.44-44.82-62.14-2.78-7.14-15.39-43.63 9.7-60.62 9.37-6.35 19.96-8.61 30.3-8.61 18.69 0 36.55 7.38 44.89 11.4Z" class="cls-1"/><path d="M87.7 27.71c-10.47-4.1-26.47-10-36.92-10s-20.12 2.64-27.8 7.84q-.8.53-1.75 1.29l-.45.36-.07.06q-.53.44-1.1.95l-.19.17-.34.31q-.6.6-1.2 1.23-.35.37-.69.78l-.03.04q-.67.78-1.28 1.6l-.16.22-.1.14c-5.14 7.24-6.35 16.28-5.84 24.74q1.83-2.85 4.07-5.41c4.14-4.72 9.97-11 15.88-13.78l3.96 1.87 1.28.6c6.75 3.2 18.96 9.92 27.48 15.2a59.2 59.2 0 0 1 25.24-28.2Z" class="cls-1"/><path d="M54.32 74.32c0-17.1 7.3-32.51 18.94-43.29a49.51 49.51 0 0 0 0 86.59 58.8 58.8 0 0 1-18.94-43.3" class="cls-6"/></g><path d="m322.21 17.49-4.85-.42-6.74 18.11 4.49.39 1.29-4.08 6.58.57 1.14 4.29 4.53.39-6.45-19.27Zm-4.94 10.98 2.5-6.65 2.23 7.06zM262.94 20.68c.11-4.95 2.98-9.35 9.05-8.72 4.22.44 6.54 2.45 7.16 4.14l-3.23 1.62c-1.8-1.35-2.64-1.94-4.86-1.83-3.01.16-3.67 2.55-3.62 5.44.06 3.63 2.71 5.88 4.36 6.15 1.54.25 3.2.81 3.15-1.4v-1.15l-2.31-.32.02-3.21 6.53.69-.02 5.01c.02 3.06-2.99 4.58-7.27 4.18-5.22-.29-9.05-5.65-8.94-10.62ZM303.91 34.4l-6.14-.66-6.28-13.86h-.11q.2 3.12.19 4.77l-.02 8.41-4.16-.45.1-18.69 6.12.66 6.26 13.68h.08q-.16-2.82-.15-4.56l.04-8.45 4.18.45-.1 18.69ZM193.22 22.38l-10.59-1.12.07-18.71 10.6 1.14-.02 4.04-5.77-.6-.02 2.93 5.36.57-.02 4.04-5.35-.54-.02 3.51 5.78.61zM176.64 20.9l-5.71-.59-1.66-8.35a43 43 0 0 1-.76-4.65q-.1.83-.31 2.03l-.45 2.23-1.82 8.21-5.69-.63L155.9-.01l4.65.51 1.9 9.58q.64 3.16.88 5.04.48-3.6 1.37-7.12l1.6-6.9 4.46.47 1.51 7.23q.81 3.66 1.29 7.39a66 66 0 0 1 .9-4.83l2.01-9.19 4.65.49-4.5 18.22h.02ZM305.44 34.59l.1-18.69 4.85.51-.1 18.69zM332.61 37.12l.1-18.54 4.81.5-.06 14.51 6.88.72-.02 4.05zM362.11 31.11q.04-4.7-2.15-7.39-2.2-2.69-6.45-3.13-4.25-.46-6.49 1.76t-2.27 6.9c-.17 2.66.62 5.29 2.21 7.43a9.2 9.2 0 0 0 6.43 3.13q4.25.47 6.49-1.76 2.22-2.21 2.23-6.94m-5.07-.52q-.02 2.79-.9 4.01-.91 1.22-2.74 1.04-3.59-.38-3.58-5.81v-.02q.02-5.46 3.66-5.08 1.79.2 2.68 1.62a8 8 0 0 1 .88 4.24M371.87 41.18l-4.83-.51.08-14.56-4.36-.47.02-4.13 13.52 1.43-.02 4.12-4.36-.45zM387.24 42.84l-4.8-.51.05-14.56-4.36-.45.02-4.15 13.53 1.43-.02 4.15-4.34-.47zM403.68 44.63l-10.6-1.11.1-18.71 10.6 1.13-.02 4.05-5.79-.6v2.93l5.34.56-.02 4.05-5.34-.55-.02 3.52 5.77.61zM416.38 37.92a4.9 4.9 0 0 0 3.03-4.71q.05-5.51-7.23-6.29l-5.85-.61-.08 18.69 4.81.51.04-6.8 1.21.14 3.75 7.19 5.47.59-5.16-8.7Zm-4.36-2.91-.92-.1h.02l.02-4.28.94.12q2.49.25 2.48 2.19-.01 2.33-2.54 2.07" class="cls-8"/><path d="m427.52 35.74 3.11-6.46 5.22.53-5.92 10.53-.04 7.13-4.85-.49.02-6.98-5.81-11.91 5.24.56zM280.51 31.73l.1-18.69 4.84.51-.09 18.69zM241.95 27.88l.09-18.69 4.85.51-.1 18.69zM216.34 25.16l-4.83-.5.08-14.57-4.36-.47.02-4.12 13.53 1.42-.02 4.13-4.36-.45zM194.14 20.15l2.59-2.66c1.25 1.63 2.62 2.57 3.71 2.58.96-.02 2.06-.41 2.07-1.93 0-1.55-.93-1.87-2.78-2.68-2.33-1.06-4.98-2.68-4.96-6.36 0-3.38 2.67-5.17 6.23-4.78 2.33.24 4.71 1.65 5.19 2.63l-2.17 2.71c-.43-.85-1.77-1.64-3.38-1.71-1.48.03-1.94.53-1.91 1.54.05 1.57 1.58 1.87 3.35 2.64 2.35 1.02 4.49 2.52 4.47 6.33 0 3.52-1.99 5.07-5.63 5.07a7.6 7.6 0 0 1-5.8-2.3zM234.35 26.76l-4.41-.48-6.41-19.19 4.65.51 4.35 13.85 4.2-12.86 4.63.49zM258.92 21.48a4.9 4.9 0 0 0 3.03-4.71q.05-5.51-7.23-6.29l-5.85-.61-.08 18.69 4.81.51.04-6.8 1.21.14 3.75 7.19 5.47.59-5.16-8.7Zm-4.36-2.92-.92-.1h.02l.02-4.28.94.12q2.48.25 2.48 2.19-.01 2.32-2.54 2.07" class="cls-8"/></g></svg>