<svg xmlns="http://www.w3.org/2000/svg" id="b" viewBox="0 0 329.68 197.51"><defs><style>.d,.e{fill:#007ec3;stroke-width:0}.e{fill:#aa9d95}</style></defs><g id="c"><path d="M204.93 118.5a2.04 2.04 0 0 0 1.94 2.67h1.08c.04-.26.26-.41.63-.44.38-.02.52.16.61.43v.01h28c.07 0 .13-.02.2-.03l-.41-.04c.31-.49.66-.38.93-.36h.06c0-.3.1-.64.33-.8.06-.05.26-.06.27-.02.1.16.15.32.22.49.13-.16.24-.34.32-.54a30.62 30.62 0 0 1 2.22-4.47 17.63 17.63 0 0 1 2.17-2.63l.27-.26-.25-.54c.65-.81 1.42-1.4 1.3-2.4l1.16-1.38c.83-.03 1.25.55 1.58 1.02.07.1.1.23.14.36l.39-.22a23.43 23.43 0 0 1 5-2.04 30.55 30.55 0 0 1 3.54-.8c1.17-.2 2.3-.33 3.37-.41l.63-.03c.27-.08.51-.19.75-.19a.5.5 0 0 1 .33.13l1.3-.02c1.15.01 2.2.06 3.18.14.98.08 1.88.18 2.71.32.83.13 1.6.29 2.29.46a18.82 18.82 0 0 1 3.43 1.26 10.86 10.86 0 0 1 2.16 1.48 7.03 7.03 0 0 1 1.44 1.94 6 6 0 0 1 .52 3.53 7.61 7.61 0 0 1-.62 2.3c-.22.48-.49.97-.8 1.43-.33.47-.7.92-1.1 1.36a16.2 16.2 0 0 1-3 2.4 19.63 19.63 0 0 1-3.95 1.87c-.72.27-1.48.5-2.26.7l-1.04.28-2.75.73-3.88 1.03-4.44 1.18-4.45 1.18-3.88 1.03-2.74.73-1.04.27c-2.94.77-5.86 1.61-8.75 2.55a106.38 106.38 0 0 0-11.2 4.32 80.81 80.81 0 0 0-6.67 3.5 69.4 69.4 0 0 0-5.52 3.66 57.62 57.62 0 0 0-11.41 11.31 56.5 56.5 0 0 0-2.4 3.44l-.35.57a.96.96 0 0 1 .28-.04c.36 0 .57.14.61.43.07.43-.16.65-.63.68-.38.03-.55-.16-.6-.43v-.08a60.7 60.7 0 0 0-4.84 9.7 72.58 72.58 0 0 0-2.38 6.93l.2.1c-.07.06-.15.18-.2.17-.03 0-.05-.02-.07-.03l-.21.76c-.03.09-.03.17-.04.26l.21-.34c.07.06.2.14.2.18-.04.13-.13.25-.2.37l-.21-.19a1.85 1.85 0 0 0 1.84 2.06h46.74c.01-.07.02-.14.05-.21.03-.11.24-.28.26-.27.19.12.46.26.5.43v.05h56.71c.98 0 1.85-.63 2.16-1.55l3.62-17.02c.5-1.47-.6-3-2.15-3l-23.05-.02-.36.36c-.58.01-.89.02-1.09-.26l.1-.1h-1.98l-.16.13-.07-.13-41.28-.04c.65-.59 1.38-1.14 2.13-1.67.26-.32.44-.68.44-1.21.01-1.42.2-1.47 1.7-.86-.4.36-.72.7-.85 1.22 6.32-3.93 14.51-6 14.51-6a268.17 268.17 0 0 1 13.23-3c2.74-.57 5.52-1.15 8.3-1.77 2.77-.62 5.55-1.27 8.29-2 2.74-.74 5.43-1.55 8.03-2.46a71.64 71.64 0 0 0 7.5-3.09 53.44 53.44 0 0 0 4.65-2.56 42.5 42.5 0 0 0 4.5-3.25 35.43 35.43 0 0 0 3.15-3.03 29.67 29.67 0 0 0 4.27-6.15 28.5 28.5 0 0 0 1.75-4.16 31.94 31.94 0 0 0 1.56-11.63 22.2 22.2 0 0 0-1.06-5.26 19.4 19.4 0 0 0-3.38-6.1 22.44 22.44 0 0 0-2.89-2.94 27.56 27.56 0 0 0-3.59-2.58c-1.3-.79-2.73-1.52-4.26-2.19a46.82 46.82 0 0 0-4.92-1.8c-1.74-.54-3.6-1.01-5.55-1.42-1.96-.4-4.02-.75-6.18-1.02a102.2 102.2 0 0 0-6.79-.61 135.09 135.09 0 0 0-23.44.73 102.34 102.34 0 0 0-7.92 1.33 80.66 80.66 0 0 0-6.89 1.8 67.84 67.84 0 0 0-6.22 2.33 54.95 54.95 0 0 0-6.76 3.54 46.64 46.64 0 0 0-5.86 4.34 44.1 44.1 0 0 0-4.55 4.66 41.4 41.4 0 0 0-4 5.64 45.02 45.02 0 0 0-2.9 5.74 51.72 51.72 0 0 0-1.5 4.03l-.02.03Zm-11.7 54.97c-.04.01-.13-.1-.2-.17l.4-.2.22.2c-.14.06-.27.15-.41.17Zm1.36 6.16c-.07-.06-.21-.13-.2-.18.03-.13.13-.25.2-.37l.22.2-.22.35Zm2.07-4.05c-.16.08-.34.14-.5.2-.31.02-.62-.05-.52-.36.09-.3.77-.29 1-.01.04.04.04.16.02.17Zm2.1-.36-.21-.2.22-.35c.07.06.2.13.2.18-.04.13-.13.25-.2.37Zm1.87.55c-.07-.12-.16-.24-.2-.37 0-.05.13-.12.2-.18l.22.35-.22.2Zm2.08 1.45c-.17.08-.34.14-.5.2-.31.02-.62-.05-.53-.36.1-.3.78-.29 1.01-.01.04.04.04.16.02.17Zm.4-8.06c-.06-.12-.15-.24-.19-.37 0-.04.13-.12.2-.18l.22.36-.22.2Zm2.5 0c-.07-.12-.17-.24-.2-.37-.01-.04.13-.12.2-.18l.22.36-.23.2Zm.76-4.43c-.07.01-.19-.18-.28-.27l.55-.3.3.3c-.18.1-.37.22-.57.27Zm1.1-9.33c-.07-.06-.2-.13-.2-.18.04-.13.13-.24.2-.37l.22.2-.22.35Zm2.07 8.2c-.58.62-1.15.62-1.73 0 .58-.6 1.15-.6 1.73 0Zm-.83 10.52c-.07-.13-.16-.24-.2-.37 0-.05.13-.12.2-.18l.22.35-.22.2Zm.93-8.91c-.1-.2-.23-.37-.27-.57-.02-.07.17-.19.27-.28.1.19.23.37.27.57.02.07-.17.18-.27.28Zm1.56-2.65-.22-.2.22-.35c.07.06.2.13.2.18-.04.13-.13.25-.2.37Zm2.94-11.45c-.07.01-.2-.17-.29-.27.2-.1.38-.22.58-.26.07-.02.19.17.29.26-.2.1-.38.22-.58.27ZM286.4 173l-.22-.35.22-.2c.07.13.16.25.2.38 0 .04-.13.12-.2.18Zm7.06 6.26-.22.35c-.07-.06-.2-.14-.2-.18.04-.13.13-.25.2-.37l.22.2Zm-.65-10.13.3.55-.3.3c-.1-.19-.22-.37-.27-.57-.01-.07.18-.18.27-.28Zm-2.68-6.03c.07.06.2.14.2.18-.04.13-.13.25-.2.37l-.22-.2.22-.35Zm-1.04 6.33c.13-.46 1.08-.45 1.4-.03.05.07.06.26.02.28-.22.12-.47.2-.7.3-.42.04-.85-.07-.72-.55Zm-.2.27c.07.06.2.14.2.18-.04.13-.13.25-.2.37l-.22-.2.22-.35Zm-2.49-5.5c.07.12.16.24.2.37 0 .04-.13.12-.2.18-.07-.12-.16-.24-.2-.37 0-.04.13-.12.2-.18Zm0 2.2c.07.12.16.24.2.37 0 .05-.13.12-.2.18-.07-.12-.16-.24-.2-.37 0-.04.13-.12.2-.18Zm-.5 2.73.31.55-.3.3c-.1-.19-.23-.37-.27-.57-.02-.07.17-.18.27-.28Zm-.91-1.7c.16.14.28.33.42.5-.1.1-.25.27-.28.26-.18-.1-.37-.23-.5-.4-.07-.07-.07-.29 0-.35.06-.06.28-.06.36 0Zm-.45-6.53.22.2-.22.35c-.07-.06-.21-.14-.2-.18.03-.13.13-.25.2-.37Zm.06 6.16c.06.08.06.3 0 .35-.07.07-.25.02-.37.02-.14-.17-.42-.42-.38-.5.3-.5.55-.15.75.12Zm-.69 1c.07.11.17.23.2.36 0 .05-.13.12-.2.18l-.22-.35.22-.2Zm-1.24 12.1.22.2-.22.35c-.07-.06-.2-.13-.2-.18.04-.13.13-.25.2-.37Zm-3.1.55c.06.12.15.24.19.37 0 .05-.13.12-.2.18-.07-.12-.16-.24-.2-.37 0-.04.13-.12.2-.18Zm-.57-15.84.31.55-.3.3c-.1-.18-.23-.36-.28-.56-.01-.07.18-.19.27-.28Zm-.63-1.21c.14.03.27.11.41.17l-.22.2-.4-.2c.07-.06.15-.18.2-.17Zm-1.14 1.55c.07.06.2.13.2.18-.04.13-.13.25-.2.37l-.22-.2.22-.35Zm-.26 12.85c.15.03.28.11.42.18l-.22.2-.4-.2c.07-.07.15-.19.2-.18Zm-6.6 2.99c-.1-.1-.28-.21-.27-.28.05-.2.18-.39.27-.57.1.09.2.18.3.3l-.3.55Zm2.54-1.72c-.08.06-.3.06-.37 0-.06-.06-.06-.28 0-.36.13-.16.33-.27.5-.4.1.1.28.23.26.26-.1.19-.23.37-.4.5Zm.59-18.53.22.2-.22.36c-.07-.07-.2-.14-.2-.19.04-.12.13-.24.2-.36Zm.16 17.44c-.42.39-.83.39-1.25 0 .42-.4.83-.4 1.25 0Zm-1.14 1.12c.06.06.01.24.01.36-.17.13-.43.41-.5.37-.52-.3-.16-.54.12-.74.09-.06.3-.06.37 0Zm-1.07-16.9c.34 0 .7.61.5.82a5.22 5.22 0 0 1-2.78 1.37c-.06 0-.15-.11-.34-.26l1.22-1.08c-.15-1.07.73-.84 1.4-.85Zm-7 11.05.31.3c-.19.1-.37.22-.58.27-.07.01-.19-.17-.28-.27l.55-.3Zm-8.75-9.49c.1.2.23.37.27.57.02.07-.17.19-.27.28-.1-.18-.22-.37-.27-.57-.01-.07.18-.18.27-.28Zm-40.27-4.88c-.05.01-.13-.1-.2-.17l.4-.2.22.2c-.14.06-.27.15-.42.17Zm.53-9.6c.1-.2.4-.25.67-.2-.07-.05-.14-.15-.2-.21l.56-.3.3.3c-.17.09-.34.2-.53.25.09.03.16.07.22.14.03.04.01.12.02.18-.19.28-.8.29-1.03.01-.04-.04-.04-.13-.02-.18Zm3 10.02c-.83.43-1.66.2-2.49.15v-1c.04-.4.42-.7.76-.56.51.2.9.59 1.52.67.35.04.17.45.21.74Zm.34 18.77c-.07.02-.18-.17-.28-.26l.56-.3.3.3c-.19.1-.37.22-.57.26Zm.4-22.75c-.01-.05.12-.12.2-.19l.21.36-.22.2c-.07-.13-.16-.25-.2-.37Zm.62 21.21-.31-.3.3-.55c.1.1.3.2.28.28-.05.2-.18.38-.27.57Zm1.57-8.67c-.07.02-.18-.17-.28-.27l.56-.3.3.3c-.19.1-.37.23-.58.27Zm.87-2.55c-.07.01-.2-.18-.29-.27l.56-.3.3.3c-.19.1-.37.22-.57.27Zm-.13-5.52c-.01-.07.18-.19.28-.28.1.19.22.37.27.57.01.07-.18.18-.27.28-.1-.19-.23-.37-.27-.57Zm1.61 4.7c-.07-.12-.16-.24-.2-.37 0-.04.13-.12.2-.18l.22.36-.22.2Zm.24-5.14c-.07.01-.19-.17-.28-.27l.55-.3.31.3c-.19.1-.37.23-.58.27Zm1.88-3.25-.31-.54.3-.3c.1.18.23.36.28.56.01.07-.18.19-.27.28Zm-3.98-12.52-.97-.86 1.75-1.26.58 1h2.3c.4.27.67.58 1.02.85-.22.16-.3.26-.38.26h-4.3Zm4.84 31.25c-.1-.2-.23-.37-.27-.57-.02-.07.17-.19.27-.28l.3.55-.3.3Zm.86-11.07c-.1-.19-.22-.37-.27-.57-.01-.07.18-.18.27-.28l.31.55-.3.3Zm2.07-15.5c-.42.39-.83.39-1.25 0 .42-.4.83-.4 1.25 0Zm-.2 23.83a.26.26 0 0 1-.2.01c-.32-.15-.33-.7-.02-.9.05-.03.14-.01.2-.02.32.16.33.7.02.91Zm-.27-7.6-.3-.3c.19-.1.37-.22.58-.27.07-.01.19.18.28.27l-.55.3Zm13.21-31.37.22.2-.22.35c-.07-.06-.2-.14-.2-.18.04-.13.13-.25.2-.37Zm-6.73 7.26c.05-.01.14.1.2.17-.13.06-.27.14-.41.17-.05.01-.14-.11-.2-.17.13-.06.26-.14.41-.17Zm-3.64 6.24-.55-.3c.1-.1.21-.29.28-.27.2.05.39.17.58.27l-.3.3Zm-.39-6.11a.31.31 0 0 1-.02-.28c.24-.44 1.1-.45 1.42-.02.05.06.02.19.03.28-.26.43-1.1.45-1.43.02Zm2.4 4.86c-.06.18-.31.3-.48.45-.12-.22-.3-.42-.34-.65v-.06l-.14.12c-.07-.13-.17-.24-.2-.37 0-.05.13-.12.2-.18.05.1.12.2.16.3.02-.18.08-.36.14-.53.04-.1.17-.21.29-.26.4-.14.53 0 .4.4 0 .26.06.55-.02.78Zm.46 5.63c-.1-.1-.29-.21-.27-.28.04-.2.17-.38.27-.57l.3.3-.3.55Zm.8-7.67c-.07.06-.24 0-.37 0 .02.6-.27.88-.86.86-.03-.59.26-.87.86-.85 0-.13-.05-.3.01-.37.13-.17.33-.28.5-.41.1.1.27.23.26.26-.1.19-.23.37-.4.5Zm.8 5.81c-.54-.38-.42-.91-.05-1.4.71.11.97.77 1.46 1.14-.4.48-.93.6-1.41.26Zm3.58-5.8c-.1-.2-.23-.37-.27-.57-.02-.07.17-.19.27-.28.1.19.22.37.27.57.01.07-.18.18-.27.28Zm1.79-1.14c.41-.4.83-.4 1.24 0-.41.4-.83.4-1.24 0Zm8-4.26c-.26.43-1.11.44-1.43.02a.32.32 0 0 1-.02-.29c.24-.43 1.1-.44 1.42-.02.05.07.02.2.02.29Zm5.36 7.29c-.07-.12-.16-.24-.2-.37 0-.05.13-.12.2-.18.07.12.16.24.2.37 0 .04-.13.12-.2.18Zm0-15.43c-.1 0-.3-.27-.29-.4.03-.23.14-.5.32-.67.08-.09.47-.09.56 0 .31.28.8.45.87.92-.47.33-.98.12-1.46.15Zm4.04 12.37c-.12.09-.3.27-.36.24-.37-.2-.11-.35.09-.48.06-.04.22-.04.26 0 .05.05.01.16.01.24Zm.27-.25c-.05.04-.21.04-.26 0-.05-.05-.05-.19 0-.24.1-.1.23-.17.35-.26.07.06.2.15.2.17-.08.12-.17.24-.29.33Zm.39-9.65c-.1-.1-.29-.2-.27-.28.04-.2.17-.38.27-.57l.3.3-.3.55Zm3.36-.27c-.08.1-.38.03-.58.01-.08-.01-.15-.1-.22-.17l-.75-.67c.57-.42 1.1-.2 1.57-.23.1 0 .3.26.3.39-.04.23-.15.5-.32.67Zm1.36 4.33c-.07 0-.16.02-.2-.01-.32-.2-.3-.75.01-.9a.26.26 0 0 1 .2 0c.32.21.3.75 0 .91Zm.33-6.32c.1-.3.78-.3 1.01-.01.04.04.04.16.02.17-.17.08-.34.14-.5.2-.31.02-.62-.05-.53-.36Zm1.44 15.22c-.07-.12-.16-.24-.2-.37 0-.05.13-.12.2-.18l.22.35-.22.2Zm1.92-12.19c-.07.1-.4.13-.53.07-.49-.25-.98-.53-1.09-1.09-.05.04-.14.04-.28 0-.2 0-.4.04-.57-.01-.14-.05-.22-.2-.33-.31.16-.08.3-.2.48-.22.16-.02.35.05.52.1.08.03.16.11.19.18.05.13.05.22 0 .26.5 0 .99-.03 1.47.01.14.02.37.22.37.33 0 .23-.09.49-.23.68Zm1.08-3.32c-.62-.57-.62-1.14 0-1.7.62.57.62 1.13 0 1.7Zm42.38-21.37.22.36-.23.2c-.06-.13-.16-.25-.19-.38-.01-.04.13-.12.2-.18Zm-5.4 5.93c-.1-.12-.2-.21-.3-.3.2-.1.37-.23.58-.27.07-.02.19.17.28.26l-.55.3Zm1.86 6.93c.1.1.28.2.27.28-.05.2-.18.38-.27.57l-.31-.3.3-.55Zm-1.91-9.54c.47 0 1-.17 1.43.27-.38.28-.73.57-1.12.8-.12.07-.41 0-.54-.08-.13-.1-.18-.29-.22-.45-.09-.32.15-.53.45-.54Zm-1.4-17.63c.08.06.21.14.2.18-.03.13-.12.25-.2.37l-.21-.2.22-.35Zm-2.88 38.33-.22.2c-.07-.12-.16-.24-.2-.37 0-.04.13-.12.2-.18l.22.35Zm-.29-17.54c-.19.1-.37.22-.57.26-.08.02-.2-.17-.29-.26l.56-.3.3.3Zm-1.8-1.52c.4-.01.82-.03 1.22.01.1.01.18.22.23.35.01.04-.12.17-.2.18-.2.02-.4 0-.6 0s-.43.05-.6 0c-.12-.05-.2-.23-.25-.36-.01-.04.13-.17.2-.18Zm-.62 5.25c.07.12.17.24.2.36.01.05-.13.12-.2.19-.06-.13-.16-.24-.19-.37-.01-.05.13-.12.2-.19Zm-17.18 4.64c-.1-.31.2-.38.52-.36.16.06.34.12.5.2.03 0 .02.13-.01.17-.24.28-.92.28-1.01-.01Zm1.19 15.97c-.31-.05-.52-.2-.49-.54.04-.42.29-.62.78-.56.3.08.51.2.48.55-.03.41-.29.63-.77.55Zm.92-19.94h-1.99c-.43-.44-.14-.9-.11-1.46.82.88 2.14.05 3 .67l-.9.8Zm3.25 12.2-.3-.55.3-.3c.1.18.23.36.27.56.02.07-.17.19-.27.28Zm2.5-42.34.22.2-.22.35c-.07-.06-.2-.14-.2-.18.04-.13.13-.25.2-.37ZM287.65 91h.01c.28-.08.56 0 .84.26-.28.25-.55.33-.82.25l-.03.04-.13-.1c-.09-.05-.18-.11-.27-.2.13-.12.26-.2.4-.24v-.01Zm-.72 7.65c.07-.02.19.17.28.27l-.55.3-.31-.3c.2-.1.37-.23.58-.27Zm-1.14-5.45c.07.12.16.24.2.37 0 .05-.13.12-.2.18l-.22-.35.22-.2Zm-.61.95c.12.23.2.46.3.69.04.42-.07.84-.56.71-.46-.12-.45-1.06-.02-1.38.07-.05.26-.05.28-.02Zm-.5-2.47c.05 0 .14.11.2.17l-.4.2-.21-.2c.13-.06.27-.14.41-.17Zm1.64 21.68c-.19.77-1 1.03-.5 1.9-.7-.39-.82-.78-1.33-.76-.86.02-.43-.57-.7-.84.96-.46 1.71-.14 2.53-.3Zm-2.43 2.52c-.42.4-.83.4-1.25 0 .42-.4.83-.4 1.25 0Zm-1.56.83c.07.06.21.13.2.18-.03.13-.13.24-.2.37l-.22-.2.22-.35Zm-2.5.02c.42-.39.84-.75 1.27-1.13.41.37.45.73 0 1.1-.4.32-.73.9-1.46.38.07-.12.1-.26.2-.35Zm-4.2-23.16c.06-.01.14.11.21.17l-.4.2-.22-.2c.14-.06.27-.14.42-.17Zm-.93-2.74.3.3-.3.55c-.1-.1-.29-.2-.27-.28.04-.2.17-.38.27-.57Zm.46 4.26c.54.1 1.05-.15 1.5.18-.06.47-.66.72-.62 1.27.03.27-.53.29-.75.19-.33-.15-.59-.45-.9-.7.01-.5.67-.55.77-.94Zm-1.2 10.33.3.3c-.19.1-.37.23-.57.27-.07.02-.2-.17-.29-.26l.56-.3Zm0 1.7.3.3c-.19.1-.37.23-.57.27-.07.02-.2-.17-.29-.26l.56-.3Zm-1.85-16.12c.07.12.17.24.2.37 0 .04-.13.12-.2.18l-.22-.35.22-.2Zm-.91 4.95c.16.06.34.12.5.2.03 0 .02.13-.01.17-.24.28-.92.28-1.01-.01-.1-.31.21-.39.52-.36Zm-2.98.08.22.2c-.14.05-.27.14-.42.16-.05.01-.13-.1-.2-.17l.4-.2Zm-2.85-8.8.22.2c-.14.05-.27.14-.42.16-.05.01-.14-.1-.2-.17l.4-.2Zm-4.34-2.73c.05-.01.14.11.2.17-.13.06-.27.14-.41.17-.05.01-.14-.1-.2-.17.13-.06.27-.14.41-.17Zm-1.24 19.69.22.35-.22.2c-.07-.12-.17-.24-.2-.37-.01-.05.13-.12.2-.18Zm-1.78-1.02.22.2c-.14.05-.27.14-.41.17-.06 0-.14-.12-.2-.18l.4-.2Zm-.4 1.3c-.41.39-.83.39-1.24 0 .41-.4.83-.4 1.24 0Zm-2.57-5.01c.14-.16.33-.28.5-.41.1.1.28.24.26.27-.1.18-.23.37-.4.5-.07.06-.29.06-.35 0s-.07-.28 0-.36Zm-.38.38c.08-.06.3-.06.36 0 .06.07.01.24.01.37-.17.13-.42.41-.5.37-.51-.3-.16-.54.13-.74Zm-1.09-5c.07.11.16.23.2.36 0 .05-.13.12-.2.18-.07-.12-.16-.24-.2-.37 0-.04.13-.12.2-.18Zm-6.49.25.3.3-.3.55c-.1-.1-.29-.21-.27-.28.04-.2.17-.39.27-.57Zm-4.32.85.31.3-.3.55c-.1-.1-.3-.21-.28-.28.05-.2.18-.38.27-.57Zm-.56 10.38c.1.19.23.37.27.57.02.07-.17.18-.27.28l-.3-.55.3-.3Zm-2.93 6.08q.83-.9 1.65-.75-.83.9-1.65.75Zm.9-11.36c.1.2.23.37.28.57.01.07-.18.19-.27.28-.1-.19-.23-.37-.27-.57-.02-.07.17-.18.27-.28Zm-.38-12.8c.07.07.2.14.2.19-.04.13-.13.25-.2.37l-.22-.2.22-.35Zm.62 20.2c-.42.4-.83.4-1.25 0 .42-.39.83-.39 1.25 0Zm-3.53 5.38c-.08.01-.2-.17-.29-.27l.56-.3.3.3c-.19.1-.37.22-.57.27Zm.92-3.08c.01.05-.12.12-.19.19-.07-.13-.16-.24-.2-.37 0-.05.13-.12.2-.18.07.12.16.24.2.36Zm-1.3-4.7c.22-.28.84-.27 1.02 0 0 .07.01.15-.02.2-.23.27-.85.26-1.02-.02-.03-.05-.02-.14.01-.18Zm-4.17 13.03-.22-.2.22-.35c.07.06.2.14.2.18-.04.13-.13.25-.2.37Zm.3-7.6c-.2.02-.4 0-.6 0s-.42.05-.6 0c-.12-.05-.2-.23-.24-.36-.01-.04.13-.17.2-.18.4-.01.82-.03 1.21.01.1.01.2.22.24.35.01.04-.12.17-.2.18Zm.08-3.45c.1.19.22.37.27.57.01.07-.18.19-.27.28-.1-.19-.23-.37-.27-.57-.02-.07.17-.18.27-.28Zm-.59-2.5c.05 0 .14.12.2.18-.13.06-.27.14-.41.17-.05 0-.14-.11-.2-.17.13-.06.26-.15.41-.18Zm-.41 2.38c-.42.4-.83.4-1.25 0 .41-.4.83-.4 1.24 0Zm-1.74 10.32c.07-.01.19.18.28.27-.2.1-.37.22-.58.27-.07.01-.19-.18-.28-.27.19-.1.37-.22.58-.27Zm-3.23-20.06.22.35-.22.2c-.07-.13-.16-.24-.2-.37 0-.05.13-.12.2-.18Zm-1.24 13.1c-.1-.1-.28-.21-.27-.28.05-.2.18-.39.27-.57l.31.3-.3.55Zm.82-8.78c0 .07.02.15-.02.19-.23.27-.85.27-1.02-.02-.03-.04-.02-.14.02-.18.23-.27.84-.26 1.02.01Zm-1.64-4.7c.23-.27.85-.26 1.03.01 0 .07.01.15-.02.19-.23.27-.85.27-1.02-.01-.03-.05-.02-.15.01-.19Zm-.12 7c-.42.39-.83.39-1.25 0 .42-.4.83-.4 1.25 0Zm-2.5 5.63.07.07c.06-.06.11-.12.15-.11.15.03.28.1.42.17l-.22.2-.18-.1.06.07-.3.55c-.1-.1-.3-.21-.28-.28.05-.2.18-.38.27-.57Zm.03 5.9c.36 0 .57.15.6.43.08.43-.15.65-.62.69-.39.02-.55-.16-.6-.43-.1-.43.14-.68.62-.68Zm-1.26-11.54c-.42.4-.83.4-1.25 0 .42-.4.83-.4 1.25 0Zm-6.55 5.64.31.3-.3.55c-.1-.1-.3-.21-.27-.28.04-.2.17-.39.26-.57Zm-3.7-.14c.4-.02.81-.03 1.2.01.1 0 .2.22.24.35.02.04-.12.16-.2.17-.2.03-.4.01-.6.01s-.43.05-.6-.01c-.12-.04-.2-.22-.24-.35-.02-.04.12-.18.2-.18Zm.52 3.81c.05.07.06.26.02.28-.22.12-.47.2-.7.3-.43.04-.85-.07-.72-.55.13-.46 1.08-.45 1.4-.03Zm-1.87-4.4.3.3c-.18.1-.37.22-.57.27-.07.01-.19-.18-.29-.27l.56-.3Zm.24.6c.11.04.27.3.24.34-.25.27-.55.5-.9.81-.08-.27-.23-.5-.22-.73 0-.36.43-.55.88-.41Zm-2.95 9.49.3.54-.3.3c-.1-.18-.23-.36-.27-.56-.02-.07.17-.19.27-.28Z" style="fill:#446b75;stroke-width:0"/><path d="M130.27 111.89a35.43 35.43 0 0 0 3.16-3.04 29.67 29.67 0 0 0 4.27-6.14 28.5 28.5 0 0 0 1.75-4.16A31.9 31.9 0 0 0 141 86.9a22.2 22.2 0 0 0-1.06-5.25 19.4 19.4 0 0 0-3.38-6.1 22.38 22.38 0 0 0-2.9-2.95 27.56 27.56 0 0 0-3.58-2.57c-1.3-.8-2.73-1.53-4.26-2.2a46.82 46.82 0 0 0-4.92-1.8c-1.75-.54-3.6-1-5.56-1.42-1.95-.4-4.01-.74-6.18-1.01a102.2 102.2 0 0 0-6.78-.62 135.09 135.09 0 0 0-23.44.73 102.34 102.34 0 0 0-6.29 1c.45.05.93-.15 1.34.18.04.34-.2.37-.5.38-.18 0-.37.09-.52.17-.24.13-.35.46-.73.37-.17-.04-.34-.11-.53-.17.1-.44.54-.61.82-.9l-.38.07a88 88 0 0 0-5.85 1.4 69.72 69.72 0 0 0-6.84 2.31 59.22 59.22 0 0 0-5.65 2.65 47.72 47.72 0 0 0-3.9 2.36l.18.17c-.31.2-.58.3-.8.25a46.15 46.15 0 0 0-4 3.11 43.19 43.19 0 0 0-2.87 2.77c-.14.14-.27.3-.4.45h.28c.14 1.05 1.2.27 1.85.8v1.14c-.18.1-.34.25-.5.25-.94.02-1.87-.03-2.79.02l-.75.02c-.24.3-.48.58-.7.88a43.88 43.88 0 0 0-5.56 9.7l-.58 1.47c.25.04.5.16.74.42-.36.38-.71.5-1.07.4l-.04.13c-.2.53-.39 1.07-.57 1.62v.02a2.04 2.04 0 0 0 1.93 2.68H64.6c.84 0 1.6-.5 1.92-1.3a30.62 30.62 0 0 1 2.22-4.47 17.63 17.63 0 0 1 2.17-2.62 19.34 19.34 0 0 1 5.39-3.85 23.13 23.13 0 0 1 4.2-1.62 30.55 30.55 0 0 1 3.54-.8 36.4 36.4 0 0 1 6.39-.52c1.14.01 2.2.06 3.17.14.98.08 1.88.19 2.71.32.83.13 1.6.3 2.29.47a18.82 18.82 0 0 1 3.43 1.25 10.86 10.86 0 0 1 2.16 1.48 7.03 7.03 0 0 1 1.44 1.94 6 6 0 0 1 .52 3.53 7.61 7.61 0 0 1-.62 2.3 10.69 10.69 0 0 1-1.9 2.8 16.2 16.2 0 0 1-3 2.4 19.63 19.63 0 0 1-3.95 1.87c-.72.26-1.48.5-2.26.7l-1.04.27a3619.16 3619.16 0 0 1-6.63 1.76l-4.44 1.18-3.13.83c-.14.18-.46.23-.7.18l-.62.17-3.88 1.03-2.74.73-1.05.27c-2.93.78-5.86 1.61-8.74 2.55a108.87 108.87 0 0 0-11.2 4.32 80.81 80.81 0 0 0-6.67 3.5 69.4 69.4 0 0 0-5.52 3.66 57.62 57.62 0 0 0-11.41 11.31 56.5 56.5 0 0 0-5.58 9.04 64.9 64.9 0 0 0-3.1 7.2 74.92 74.92 0 0 0-1.91 5.96 1.86 1.86 0 0 0 1.8 2.34h5.6l.2-.34c.08.06.21.13.2.18a.65.65 0 0 1-.07.16H79.6l-.07-.07.88-.77h3.72c.08 0 .15.13.22.2a2.2 2.2 0 0 1-.52.64h23.1l.08-.05c.08-.06.3-.06.36 0v.05h14.75c.98 0 1.85-.62 2.16-1.55l3.63-17.02c.49-1.47-.6-2.99-2.16-3l-50.58-.04-.15.27c-.1-.09-.28-.2-.27-.27H68.5c-.03 1.27-.25 1.32-1.7.7.26-.22.48-.45.64-.7l-9.59-.02c3.28-2.94 8.1-5.14 11.91-6.57-.1-.08-.21-.17-.2-.22.05-.2.18-.39.27-.58l.3.3-.24.45c3.34-1.25 5.9-1.9 5.9-1.9a166 166 0 0 1 8.63-2.03c1.5-.33 3.04-.65 4.6-.97 2.73-.57 5.5-1.14 8.29-1.76 2.78-.62 5.56-1.28 8.3-2.01 2.73-.73 5.42-1.54 8.02-2.45a71.64 71.64 0 0 0 7.5-3.09 53.44 53.44 0 0 0 4.66-2.57 41.17 41.17 0 0 0 4.49-3.25Zm6.44-16.05c-.19.1-.37.23-.58.27-.07.02-.19-.17-.28-.27l.55-.3.31.3Zm-1.8-1.5c.4-.03.82-.04 1.21 0 .1 0 .2.22.24.35.01.04-.12.16-.2.17-.2.03-.4.01-.6.01s-.43.05-.6-.01c-.12-.04-.2-.22-.25-.35-.01-.04.13-.17.2-.18Zm-.62 5.23c.07.13.17.24.2.37 0 .05-.13.12-.2.18-.07-.12-.16-.24-.2-.37 0-.04.13-.12.2-.18Zm-98.86-2.59c-.02.04-.21.03-.28-.02-.43-.32-.44-1.26.03-1.38.48-.13.6.29.55.71-.1.23-.18.47-.3.69ZM43.8 91c-.07.02-.19-.17-.29-.26l.56-.3.3.3c-.19.1-.37.22-.57.26Zm2.16 4.12c-.22.12-.47.2-.7.3-.43.03-.85-.08-.72-.55.13-.46 1.08-.45 1.4-.03.05.07.06.26.02.28Zm.7-3.56c-.2.03-.4.01-.6.01s-.43.05-.6-.01c-.12-.04-.2-.22-.24-.35-.02-.04.12-.18.2-.18.4-.02.8-.03 1.2 0 .1.02.2.22.24.35.02.04-.12.17-.2.18Zm2.46.45c-.1-.1-.28-.2-.27-.28.05-.2.18-.38.27-.57l.31.3-.3.55Zm5.62-18.6-.22-.36.22-.2c.07.13.16.25.2.38 0 .04-.13.12-.2.18Zm2.17 24.77c-.39.03-.55-.15-.6-.43-.1-.43.14-.67.62-.67.36 0 .56.14.6.42.08.43-.15.65-.62.68Zm.4-6.69-.17-.09.06.07-.3.54c-.1-.1-.3-.2-.28-.28.05-.2.18-.38.27-.57l.08.08c.06-.06.11-.12.15-.11.15.02.28.1.42.17l-.22.2Zm2.2-12.77c-.03-.04-.02-.14.01-.18.23-.28.85-.27 1.03.01 0 .06.02.14-.02.19-.23.27-.85.26-1.02-.02Zm.83 13.3c-.1-.1-.28-.22-.27-.29.05-.2.18-.38.27-.57l.31.3-.3.55Zm1.24-12.56c-.07-.12-.16-.24-.2-.37 0-.04.13-.12.2-.18l.22.36-.22.2Zm1.55 12.94c.42-.4.83-.4 1.25 0-.42.4-.83.4-1.25 0Zm1.38 7.11c-.07.02-.19-.17-.28-.26.19-.1.37-.22.58-.27.07-.01.18.17.28.27-.2.1-.38.22-.58.26Zm2.35-7.11c.42-.4.83-.4 1.25 0-.42.4-.83.4-1.25 0Zm2.11-26.3c.62.56.62 1.13 0 1.7-.62-.57-.62-1.14 0-1.7Zm.88 24.2c-.23.27-.85.26-1.02-.02-.03-.05-.02-.14.01-.18.24-.28.85-.27 1.03 0 0 .07.02.15-.02.2Zm1.17-23.38c-.05-.04-.05-.18 0-.23.09-.1.23-.18.35-.27.07.06.2.15.19.17-.07.12-.17.24-.28.33-.06.04-.22.04-.26 0Zm1.32 20.07c-.23.28-.85.27-1.02-.01-.03-.05-.03-.14.01-.19.23-.27.85-.26 1.03.01 0 .07.01.15-.02.19Zm2.07-17.63.22-.35c.07.06.2.13.2.18-.04.13-.13.24-.2.37l-.22-.2Zm.6 13.3c-.09-.2-.22-.38-.26-.58-.02-.07.17-.18.27-.28.1.19.22.37.27.57.01.07-.18.19-.27.28Zm2.6-5.11c-.1-.1-.3-.21-.27-.28.04-.2.17-.39.27-.57l.3.3-.3.55Zm4.31-.86c-.1-.1-.29-.2-.27-.28.04-.2.17-.38.27-.57l.3.3-.3.55Zm9.5-12.64c-.08-.12-.17-.24-.2-.37-.01-.04.13-.12.2-.18.06.13.16.24.19.37.01.05-.13.12-.2.18Zm4.24 1.55c-.05.01-.14-.11-.2-.17.13-.06.27-.14.41-.17.05-.01.14.1.2.17-.13.06-.26.14-.41.17Zm4.35 2.75c-.05.01-.14-.1-.2-.17l.4-.2.22.2c-.14.06-.27.14-.42.17Zm2.85 8.8c-.05.01-.13-.1-.2-.17l.4-.2.22.2c-.14.06-.27.14-.42.17Zm-81.17 67.16c-.05 0-.13-.12-.2-.18.13-.06.27-.14.41-.17.05 0 .14.11.2.17-.13.06-.26.15-.4.18Zm1.35 1.2c-.07-.06-.2-.14-.2-.18.04-.13.13-.25.2-.37l.22.2-.22.35Zm.73 13.66c-.15-.03-.28-.12-.42-.18l.22-.2.4.2c-.07.06-.15.18-.2.17Zm9.84-3.2-.22-.2.22-.35c.07.06.2.13.2.18-.04.13-.13.24-.2.37Zm.19-24.95c-.23.28-.85.27-1.02-.01-.03-.05-.02-.14.01-.19.24-.27.85-.26 1.03.02 0 .06.02.14-.02.18Zm1.67 25.5c-.07-.13-.16-.24-.2-.37 0-.05.13-.12.2-.18l.22.35-.22.2Zm2.07 1.45c-.16.08-.33.14-.5.2-.3.02-.61-.05-.52-.36.1-.3.78-.3 1.01-.02.04.05.04.17.01.18Zm.42-8.06c-.07-.12-.16-.24-.2-.37 0-.04.13-.12.2-.18l.22.36-.22.2Zm.09-20.44-.4-.2c.07-.06.15-.18.2-.17.15.03.28.11.42.17l-.22.2Zm2.4 20.44c-.07-.12-.17-.24-.2-.37-.01-.04.13-.12.2-.18l.22.36c-.09.07-.16.13-.22.2Zm.62-20.91c.07.12.16.24.2.37 0 .04-.13.12-.2.18-.07-.12-.17-.24-.2-.37 0-.05.13-.12.2-.18Zm.14 16.47c-.07.02-.19-.17-.29-.26l.56-.3c.12.1.21.2.3.3-.18.1-.37.22-.57.26Zm.15-22.98c.97-.1 1.73-.23 2.56.13l-.86.86c-.48-.15-.53-.7-1.06-.29-.48.36-.54.3-.64-.7Zm.95 13.66c-.07-.06-.2-.13-.2-.18.04-.13.13-.25.2-.37l.22.2-.22.35Zm1.24 18.72c-.07-.13-.16-.24-.2-.37 0-.05.13-.12.2-.18l.22.35-.22.2Zm-.9-10.51c.58-.62 1.15-.62 1.73 0-.58.6-1.15.6-1.73 0Zm3.39-1.05-.22-.2.22-.35c.07.06.2.13.2.18-.04.13-.13.24-.2.37Zm78.94.55c.07.06.2.13.2.18-.04.13-.13.25-.2.37l-.22-.2.22-.35Zm-1.04 6.33c.13-.46 1.08-.45 1.4-.03.05.07.06.26.02.28-.22.12-.47.2-.7.3-.43.03-.85-.07-.72-.55Zm-.2.27c.06.06.2.14.19.18-.03.13-.13.25-.2.37l-.21-.2.22-.35Zm-15.98 9.63c-.08.06-.3.06-.37 0s-.06-.28 0-.36c.13-.16.33-.28.5-.41.1.1.28.24.26.27-.1.18-.23.37-.4.5Zm13.49-6.33-.22-.35.22-.2c.07.13.16.24.2.37 0 .05-.13.12-.2.18Zm0-8.8c.07.12.16.24.2.37 0 .04-.13.12-.2.18-.07-.12-.16-.24-.2-.37 0-.05.13-.12.2-.18Zm0 2.2c.07.12.16.24.2.37 0 .04-.13.12-.2.18-.07-.12-.16-.24-.2-.37 0-.04.13-.12.2-.18Zm-.5 2.73.31.55-.3.3c-.1-.19-.23-.37-.27-.57-.02-.07.17-.19.27-.28Zm-.91-1.7c.16.14.28.33.41.5-.1.09-.24.27-.27.25-.19-.1-.37-.22-.5-.38-.07-.08-.07-.3 0-.36.06-.06.28-.07.36 0Zm-.45-6.53.22.2c-.08.1-.15.23-.22.35-.07-.06-.21-.14-.2-.18.03-.13.13-.25.2-.37Zm.06 6.15c.06.09.06.3 0 .36-.07.07-.24.02-.37.02-.14-.17-.42-.43-.38-.5.3-.5.55-.16.75.12Zm-.69 1c.07.12.17.24.2.37.01.04-.13.12-.2.18l-.22-.35.22-.2Zm-1.24-9.35c.07.12.16.24.2.36 0 .05-.13.12-.2.19l-.22-.36.22-.2Zm-3.67 6.17.3.55c-.1.12-.2.2-.3.3-.1-.18-.22-.37-.27-.57-.01-.07.18-.18.27-.28Zm-.64-1.21c.15.03.28.1.42.17l-.22.2-.4-.2c.07-.06.15-.18.2-.17Zm-1.13 1.55c.07.06.2.13.2.18-.04.13-.13.24-.2.37l-.22-.2.22-.36Zm-.26 12.85c.15.03.28.11.42.17l-.22.2-.4-.2c.06-.06.15-.18.2-.17ZM109.25 139c.83-.3 1.6-.23 2.34-.1.05.12.11.22.09.24l-1.92 1.86c-.58.02-.88.03-1.09-.25l1.2-1.12-.62-.63Zm-.91 2.56.22.2-.22.35c-.07-.06-.2-.13-.2-.18.04-.13.13-.25.2-.37Zm.16 17.43c-.42.4-.83.4-1.25 0 .42-.4.83-.4 1.25 0Zm-22.94-11.46c-.26.42-1.1.44-1.43.01a.32.32 0 0 1-.02-.28c.24-.43 1.1-.45 1.42-.02.05.07.02.19.03.29Zm.02-3.1-.22-.2.22-.35c.07.06.2.14.2.18-.04.13-.13.25-.2.37Zm21.05-4.5c.1.19.23.37.27.57.02.07-.17.18-.27.28l-.3-.55.3-.3Zm-.34 3.29c.34 0 .7.6.5.82a5.22 5.22 0 0 1-2.78 1.37c-.06 0-.15-.11-.34-.26l1.21-1.08c-.14-1.08.74-.84 1.41-.85Zm-7 11.05.31.3c-.19.1-.37.22-.58.27-.07.01-.18-.18-.28-.27l.56-.3Zm-8.75-9.49c.1.2.23.37.27.57.02.07-.17.19-.27.28-.1-.19-.23-.37-.27-.57-.02-.07.17-.18.27-.28Zm-1.34 2.5c.15.04.28.12.42.18l-.22.2-.4-.2c.07-.06.15-.18.2-.17Zm-1.33-2.12c.23-.28.85-.27 1.03 0 0 .07.02.15-.02.2-.23.27-.85.26-1.02-.02-.03-.05-.02-.14.01-.18Zm-.88-1.6c.1.2.22.37.27.57.01.07-.18.19-.27.28-.1-.19-.23-.37-.27-.57-.02-.07.17-.18.27-.28Zm-.58-1.38c.05.05-.2.5-.33.5-.38.04-.91.21-1.1-.27-.12-.33-.03-.74 0-1.11.01-.1.18-.2.28-.29.4.39.8.76 1.15 1.17Zm-2.16-1.5c.24-.08.54-.03.8 0 .08 0 .15.11.22.17-.28.25-.55.51-.86.74-.04.02-.36-.13-.36-.22-.03-.24-.16-.58.2-.7Zm-.43 10.46c.05-.01.14.1.2.17-.13.06-.27.14-.41.17-.05.01-.14-.1-.2-.17.13-.06.26-.14.41-.17Zm-3.02-11.67c.2.04.39.17.58.26l-.31.3-.56-.3c.1-.1.22-.28.29-.26Zm-.5 9.09c-.42.4-.83.4-1.25 0 .42-.4.83-.4 1.25 0Zm-4.58-3.5.22.2c-.13.06-.27.14-.41.17-.05 0-.14-.11-.2-.17l.4-.2Zm-3.39 1.21c.1-.3.78-.29 1.01-.01.04.04.04.17.02.18l-.5.2c-.31.02-.62-.06-.53-.37ZM71 121.4c.05 0 .13.12.2.18-.14.06-.27.14-.41.17-.06 0-.14-.11-.2-.17.13-.06.26-.15.4-.18Zm-18.76-4.5.23.35-.23.2c-.06-.12-.16-.24-.19-.37-.01-.04.13-.12.2-.18Zm-3.27 14.97c-.07.01-.2-.18-.29-.27.2-.1.38-.22.58-.27.07-.01.19.18.29.27-.2.1-.38.22-.58.27Zm1.3 8.04c-.05.01-.13-.1-.2-.17l.4-.2.22.2c-.14.06-.27.14-.42.17Zm.52-9.61c.12-.18.41-.24.67-.19l-.19-.21.56-.3.3.3c-.17.08-.34.2-.53.24.09.04.16.08.22.14.03.05.01.13.02.19-.19.27-.8.28-1.03.01a.19.19 0 0 1-.02-.18Zm3.01 10.03c-.83.43-1.66.2-2.49.15v-1c.04-.4.42-.7.76-.56.51.2.9.59 1.52.67.35.04.17.45.21.74Zm.35 18.77c-.08.02-.2-.17-.29-.26l.56-.3.3.3c-.19.09-.37.22-.57.26Zm.39-22.76c-.01-.04.12-.12.2-.18l.21.36-.22.2c-.07-.13-.16-.25-.2-.38Zm.62 21.22-.31-.3.3-.55c.1.1.3.2.28.28-.05.2-.18.38-.27.57Zm1.57-8.67c-.07.01-.18-.17-.28-.27l.56-.3.3.3c-.19.1-.37.22-.58.27Zm8.06 4.23a.26.26 0 0 1-.2.01c-.33-.15-.34-.7-.02-.9.04-.03.13-.02.2-.02.32.16.33.7.02.9Zm0-8.17c.08-.01.2.17.3.27l-.57.3-.3-.3c.19-.1.37-.22.58-.27Zm-1.87-1 .31.54-.3.3c-.1-.19-.23-.37-.28-.57-.01-.07.18-.18.27-.28ZM62.06 155l.3.54c-.1.12-.2.21-.3.3-.1-.18-.23-.36-.27-.56-.02-.07.17-.19.27-.28Zm-2.47-15.2.31.3c-.19.1-.37.22-.58.27-.07.01-.18-.18-.28-.27l.56-.3Zm-.5 5.16.21.35-.22.2c-.07-.12-.16-.24-.2-.37 0-.05.13-.12.2-.18Zm-1.5 1.36c-.06.02-.18-.17-.28-.26l.56-.3.3.3c-.19.1-.37.22-.57.26Zm.42-5.22c.02.07-.17.18-.27.28-.1-.2-.22-.37-.27-.57-.01-.07.18-.19.27-.28.1.19.23.37.27.57Zm3.51-16.51h-4.3l-.97-.85 1.75-1.26.58 1h2.3c.4.26.67.58 1.02.85-.22.16-.3.26-.38.26Zm2.22 4.68c.42-.4.83-.4 1.25 0-.42.4-.83.4-1.25 0Zm3.62-1.63-.55-.3c.1-.1.21-.29.28-.27.2.04.39.17.58.26l-.3.3Zm-.39-6.11a.32.32 0 0 1-.02-.28c.24-.44 1.1-.45 1.42-.02.05.06.02.18.03.28-.26.43-1.1.44-1.43.02Zm2.4 4.86c-.06.18-.31.3-.48.45-.12-.22-.3-.43-.34-.65v-.06l-.14.11c-.07-.12-.17-.24-.2-.36 0-.05.13-.12.2-.19.05.1.12.2.16.3.02-.17.08-.35.14-.52.04-.1.17-.21.29-.26.4-.15.53 0 .4.4 0 .26.06.54-.03.78Zm1.27-2.05c-.08.07-.25.02-.38.02.02.58-.27.87-.86.85-.03-.6.26-.88.86-.85 0-.13-.05-.3.01-.38.13-.16.33-.27.5-.4.1.1.27.23.26.26-.1.19-.23.37-.4.5Zm.79 5.82c-.55-.38-.42-.91-.05-1.4.71.11.97.77 1.46 1.13-.4.49-.93.6-1.41.27Zm3.58-5.8c-.1-.2-.23-.38-.27-.58-.02-.07.17-.18.27-.28.1.2.22.38.27.58.01.07-.18.18-.27.28Zm2.72-10.22.22.2-.22.35c-.07-.06-.2-.14-.2-.18.04-.13.13-.25.2-.37Zm-.93 9.08c.41-.4.83-.4 1.24 0-.41.4-.83.4-1.24 0Zm8-4.26c-.26.43-1.11.44-1.43.01a.32.32 0 0 1-.02-.28c.24-.43 1.1-.45 1.42-.02.05.07.02.19.02.29Zm5.36 7.29c-.07-.13-.16-.24-.2-.37 0-.05.13-.12.2-.18.07.12.16.24.2.36 0 .05-.13.12-.2.19Zm0-15.44c-.1 0-.3-.27-.29-.4.03-.23.14-.49.32-.66.08-.09.47-.1.56 0 .31.28.8.44.87.91-.47.33-.98.13-1.46.15Zm4.04 12.38c-.12.08-.3.26-.36.24-.37-.2-.12-.35.09-.48.06-.04.21-.04.26 0 .05.04.01.16.01.24Zm.27-.25c-.05.04-.21.04-.26 0-.04-.05-.05-.19 0-.24.1-.1.23-.18.35-.26.08.06.2.15.2.17-.08.12-.17.24-.29.33Zm.39-9.65c-.1-.1-.29-.2-.27-.28.04-.2.17-.38.27-.57l.3.3-.3.55Zm3.36-.27c-.08.09-.38.03-.58 0-.08 0-.15-.1-.22-.16l-.75-.67c.57-.42 1.1-.2 1.57-.23.1-.01.3.26.3.39-.04.23-.15.5-.32.67Zm1.36 4.33c-.07 0-.16.02-.2-.01-.32-.21-.3-.76 0-.91a.26.26 0 0 1 .22.01c.3.2.3.75-.02.91Zm.33-6.32c.1-.3.78-.3 1.01-.02.04.04.04.17.02.18-.17.08-.34.13-.5.2-.31.02-.62-.05-.53-.36Zm3.36 3.03c-.07.09-.4.13-.53.06-.49-.24-.98-.52-1.09-1.08-.05.04-.14.04-.28 0-.2 0-.4.04-.57-.02-.14-.04-.22-.2-.33-.3.16-.08.3-.2.48-.22.16-.02.35.04.52.1.08.03.16.1.19.18.05.13.05.21 0 .26.5 0 .99-.03 1.47.01.14.02.38.21.37.32 0 .24-.08.5-.23.69Zm1.5-12.3c-.42.39-.83.39-1.25 0 .42-.4.83-.4 1.25 0Zm-.42 8.98c-.62-.57-.62-1.14 0-1.7.62.56.62 1.13 0 1.7Zm.62-9.91c-.05 0-.13-.12-.2-.18l.4-.2.22.2c-.14.06-.27.15-.42.18Zm1.55-23.75c-.24.27-.92.28-1.01-.02-.1-.3.2-.38.52-.35.16.06.34.11.5.2.02 0 .02.13-.02.17Zm.42-5.32c.07.12.17.24.2.37 0 .04-.13.12-.2.18l-.22-.36c.09-.07.16-.13.22-.2Zm0 30.27c-.06-.12-.16-.24-.19-.37-.01-.04.13-.12.2-.18l.21.35-.22.2Zm1.58-13.58c-.07.02-.2-.17-.29-.27l.56-.3.3.3c-.19.1-.37.23-.57.27Zm0-1.7c-.07.01-.2-.17-.29-.27l.56-.3.3.3c-.19.1-.37.22-.57.27Zm1.95-12.42c.05-.01.13.1.2.17l-.4.2-.22-.2c.14-.06.27-.15.42-.17Zm-.94-2.74.3.3-.3.55c-.1-.1-.29-.21-.27-.28.04-.2.17-.38.27-.57Zm1.34 5.71c.03.27-.53.29-.75.19-.33-.15-.59-.45-.9-.7.01-.5.67-.55.76-.95.55.1 1.06-.14 1.51.19-.06.46-.66.71-.62 1.27Zm9.75-3.34c.07.12.16.24.2.37 0 .04-.13.12-.2.18l-.22-.36.22-.2Zm-.61.95c.12.22.2.46.3.69.04.42-.07.84-.56.7-.46-.11-.45-1.05-.02-1.37.07-.05.26-.06.28-.02Zm-.5-2.47c.05-.01.14.11.2.17l-.4.2-.22-.2c.14-.06.27-.14.42-.17Zm-.79 24.2c-.42.4-.83.4-1.25 0 .42-.4.83-.4 1.25 0Zm-2.79.81c-.4.33-.73.91-1.46.39.06-.12.1-.26.2-.36.4-.38.83-.74 1.25-1.12.42.36.46.73.01 1.1Zm1.23.02c.07.06.21.13.2.18-.03.12-.13.24-.2.36l-.22-.2c.08-.1.15-.23.23-.35Zm.95 6.76c-.23.28-.91.28-1-.01-.1-.31.2-.39.52-.36.16.06.34.12.5.2.02 0 .02.13-.02.17Zm1.11-3.98h-1.99c-.43-.44-.14-.9-.11-1.46.82.88 2.14.04 3 .67l-.9.79Zm1.43-4.23c-.7-.4-.82-.78-1.33-.77-.86.03-.43-.56-.7-.83.96-.46 1.71-.14 2.53-.3-.19.77-1 1.03-.5 1.9Zm.83-16.04-.3-.3c.19-.1.37-.23.58-.27.07-.02.18.17.28.26l-.56.3Zm1 32.46-.31-.55.3-.3c.1.19.23.37.27.57.02.07-.17.18-.27.28Zm.03-40.18c0 .02-.02.03-.03.05l-.13-.1c-.09-.05-.18-.11-.27-.2.13-.12.26-.2.4-.24v-.01h.01c.28-.08.56-.01.84.25-.28.26-.55.33-.82.25Zm2.46-1.6c-.07-.06-.2-.14-.2-.18.04-.13.13-.25.2-.37l.22.2-.22.35Z" style="fill:#e05940;stroke-width:0"/><path d="m175.4 126.28 6.41 29.24c.07.34.08.68.04 1.01.15.06.3.14.46.25-.19.14-.37.22-.56.28-.08.27-.18.53-.32.78l-1.14 1.87c-.61 1.02-1.27 1.7-1.97 2.07s-1.62.54-2.79.54l-7.33.1c-.43 0-.8.3-.89.72l-1.67 7.82a.9.9 0 0 0 .9 1.1l9.02-.1c4 0 7.27-.99 9.83-2.96a15.75 15.75 0 0 0 4.18-4.61l9.03-13.94c-.26.05-.55 0-.66-.19-.03-.04-.02-.14.01-.18.2-.24.69-.25.93-.07l15.18-23.44a.9.9 0 0 0-.77-1.4h-10.9a.9.9 0 0 0-.8.45l-10.25 17.74-2.95-17.43a.9.9 0 0 0-.9-.76h-11.2a.91.91 0 0 0-.89 1.1Zm-7.55 38.63-.3-.3.3-.55c.1.1.3.2.27.28-.04.2-.17.38-.27.57Zm7.51-.89c-.18.28-.8.29-1.03.01-.03-.04-.04-.13-.01-.18.17-.28.79-.29 1.02-.01.04.04.02.12.02.18Zm2.53 3.58.22.2c-.13.06-.27.14-.41.17-.05.01-.14-.11-.2-.17l.4-.2Zm-1.2 0c-.06.02-.18-.17-.28-.26l.56-.3.3.3c-.19.1-.37.22-.57.26Zm1.43 2.68c-.47 0-.71-.25-.62-.68.06-.28.22-.46.6-.43.48.03.7.25.64.68-.05.29-.25.43-.62.43Zm.86-7.82c-.14-.03-.27-.12-.41-.18l.22-.2.4.2c-.07.06-.15.19-.2.18Zm1.67 5.52-.22-.2c.14-.05.27-.13.42-.16.05-.01.13.1.2.17l-.4.2Zm27.82-39.18c-.16.08-.34.13-.5.2-.31.02-.62-.05-.52-.36.09-.3.77-.3 1-.01.04.04.04.16.02.17Zm-1.57-3.02c.55.04.64.57 1.08.7-.33.36-.71.44-1.06.21-.38-.25-.3-.6-.02-.91Zm-3.12 12.03c.2.04.39.17.58.27-.1.1-.2.18-.3.3l-.15-.08c.04.04.08.05.12.1-.57.6-1.15.6-1.73 0 .41-.44.82-.55 1.23-.36.09-.1.19-.24.25-.23Zm-.92-2.94c-.23.28-.92.29-1-.01-.1-.31.2-.38.51-.36.17.06.34.12.5.2.03 0 .03.13-.01.18Zm-.66-9.38c.61 1.38.61 2.52 0 3.9a4.38 4.38 0 0 1 0-3.9Zm-1.19 11.63c.1.2.22.37.27.57.02.07-.17.19-.27.28-.1-.19-.23-.37-.27-.57-.02-.07.17-.18.27-.28Zm.6 7.47c.04.04.02.12.03.18-.19.28-.8.29-1.03.01a.19.19 0 0 1-.02-.18c.18-.28.8-.3 1.03-.01Zm-1.85.03c.07-.02.19.17.29.26-.2.1-.38.23-.58.27-.08.02-.2-.17-.29-.27.2-.1.38-.22.58-.26Zm-.8-5.55c.04.04.02.12.02.19-.18.27-.8.28-1.03 0-.03-.03-.04-.13-.01-.18.17-.28.79-.29 1.02 0Zm-4.54 2.03c.07.06.2.13.2.18-.04.13-.13.24-.2.37l-.22-.2.22-.36Zm-.46-1.1.22.36-.22.2c-.07-.13-.16-.24-.19-.37-.01-.05.13-.12.2-.18Zm-1.34 12.75c.76.02.15.74.62.95.15.07.64.26.17.54a.87.87 0 0 1-.56.06c-.3-.06-.5-.24-.44-.56.08-.33-.2-.72.21-1Zm-4.42 11.46.22.2-.22.35c-.07-.06-.2-.13-.2-.18.04-.13.13-.25.2-.37Zm-6.05-4.94c-.44-.37-.44-.74 0-1.1.45.36.45.73 0 1.1Zm1.19 2.64c-.15-.03-.28-.11-.42-.18l.22-.2.4.2c-.07.07-.15.19-.2.18Zm1.61-13.92c.42-.4.83-.4 1.25 0-.42.39-.83.39-1.25 0Zm1.08-3.32c.13-.06.27-.14.41-.17.05-.01.14.11.2.17l-.4.2-.21-.2Zm-.31 10.18-.23-.2c.08-.1.15-.23.22-.35.07.06.21.14.2.18-.03.13-.13.25-.2.37Zm.79 8.27c-.07-.12-.17-.24-.2-.37-.01-.04.13-.12.2-.18.07.12.16.24.19.37.01.04-.13.12-.2.18Zm.34.44c-.05 0-.13-.11-.2-.18.14-.06.27-.14.41-.17.06 0 .14.11.2.17-.13.07-.26.15-.4.18Zm-.82-3.48c.41-.4.83-.4 1.24 0-.41.4-.83.4-1.24 0Zm.48-33.84.22.2-.22.36c-.07-.06-.21-.14-.2-.18.04-.13.13-.25.2-.37Zm.43 5.17c.01.07-.18.19-.27.28-.1-.19-.23-.37-.27-.57-.02-.07.17-.18.27-.28.1.2.22.37.27.57Zm-.15 1.26.3.3c-.18.1-.37.22-.57.26-.07.02-.19-.17-.28-.26l.55-.3Zm-.97 6.33c.05-.01.14.1.2.17l-.4.2-.22-.2c.14-.06.27-.14.42-.17Zm-.73-2.04c.07-.02.19.17.28.26-.19.1-.37.23-.58.27-.07.02-.18-.17-.28-.27.2-.1.38-.22.58-.26Zm-1.97 14.84c-.55.44-.74.44-1.27.03-.22-.17-.4-.37-.6-.56l.89-.8c.33.52 1.03.46 1.54.78-.19.19-.36.39-.56.55Zm-.14-3.18-.5.19c-.3.02-.61-.05-.52-.36.1-.3.78-.29 1-.01.04.04.05.16.02.18Zm-.16-3.32c-.17.08-.34.14-.5.2-.32.02-.62-.05-.53-.36.1-.3.78-.3 1.01-.01.04.04.04.16.01.17Zm-1.07-18.11c-.01-.07.18-.19.27-.28l.31.55-.3.3c-.1-.19-.23-.37-.28-.57Zm.7-1.56c-.57.61-1.15.61-1.72 0 .57-.6 1.15-.6 1.73 0Zm-4.81 1.7.22.36-.23.2c-.06-.13-.16-.25-.19-.38-.01-.04.13-.12.2-.18Z" class="e"/><path d="m138.07 114.26-.88 4.1c.39-.01.78.01 1.15.14.28.23.28.59.11.73-.4.33-.54.71-.65 1.15-.05.21-.54.27-.38.58.12.23.36.4.48.55.02.87-.96.98-1.16 1.6l.51.52-.5.46c.1.05.22.12.34.23-.36.34-.72.37-1.08.11h-.14l-7.5 34.7a.9.9 0 0 0 .88 1.1l12.18.1c.43 0 .8-.3.9-.72l.47-2.16a12.66 12.66 0 0 0 4.34 2.54c1.57.53 3.53.8 5.89.82 4.76.04 8.84-1 12.23-3.1a14 14 0 0 0 2.04-1.6c-.17.04-.37.01-.56.01-.2 0-.4.02-.6 0-.09-.02-.22-.15-.2-.18.04-.13.13-.34.22-.35.4-.04.81-.03 1.21-.01.08 0 .22.14.2.18l-.06.15a11.6 11.6 0 0 0 2.51-3.47 38.6 38.6 0 0 0 2.48-7.88l.36-1.64.35-1.63c.68-3.14.99-5.77.93-7.9a7.1 7.1 0 0 0-1.76-4.55.4.4 0 0 1-.2.15c-.28.1-.36 0-.28-.25l.08-.34-.31-.34c-2.47-2.16-6.06-3.26-10.76-3.3-2.3-.02-4.35.2-6.17.67-1.8.47-3.5 1.2-5.06 2.19l2.78-12.87a.9.9 0 0 0-.88-1.1l-12.61-.1a.9.9 0 0 0-.9.71Zm-6.9 45.14c-.08.06-.3.06-.36 0-.07-.07-.07-.28 0-.36.13-.16.32-.28.49-.41.1.1.28.24.26.27-.1.18-.23.36-.39.5Zm1.61-4.51c-.07-.12-.16-.24-.2-.37 0-.05.13-.12.2-.18l.22.35-.22.2Zm1.03-19.31c.62.56.62 1.13 0 1.7-.62-.57-.62-1.14 0-1.7Zm1.46 13.8c-.2.02-.4 0-.6 0s-.43.05-.6-.01c-.12-.04-.2-.22-.25-.35-.01-.04.13-.18.2-.18.4-.02.82-.03 1.21 0 .1.02.2.23.24.36.01.04-.12.16-.2.18Zm.89-14.33.22.36-.22.2c-.07-.13-.16-.25-.2-.38 0-.04.13-.12.2-.18Zm.23 17c-.27-.33-.36-.67.03-.92.35-.22.73-.14 1.02.17-.35.24-.54.67-1.05.74Zm36.9-15.36c.06.12.16.24.19.37 0 .05-.13.12-.2.18-.07-.12-.16-.24-.19-.37-.01-.04.13-.12.2-.18Zm-2.32.56c-.07-.06-.21-.13-.2-.18.03-.13.13-.25.2-.37l.22.2-.22.35Zm.06-8.24c.28-.04.58-.01.87-.01 0 .08.03.19 0 .24-.24.35-.6.36-.98.26-.09-.03-.21-.16-.2-.17.09-.12.19-.3.31-.32Zm-.91 20.72c.06-.05.26-.06.28-.02.12.22.2.46.3.68.04.43-.07.84-.56.72-.47-.13-.46-1.07-.02-1.38Zm-2.37-17.88c.15.03.28.11.42.17l-.22.2-.4-.2c.07-.06.15-.18.2-.17Zm-.58 6.05c.06-.01.14.1.2.17-.13.06-.26.14-.4.17-.06 0-.14-.11-.21-.17.14-.06.27-.15.41-.17Zm-25.1 17.8c.4-.4.82-.4 1.24 0-.42.39-.83.39-1.25 0Zm2.25-.19c-.07.06-.3.06-.36 0s-.07-.28 0-.36c.13-.16.32-.27.49-.4.1.09.28.23.26.26-.1.19-.23.37-.39.5Zm.72-.64-.56-.3c.1-.1.21-.28.29-.27.2.05.38.17.57.27l-.3.3Zm.9-3.87c-.08-.12-.17-.24-.2-.37-.01-.04.13-.12.2-.18l.21.36-.22.2Zm.46 5.8c.63-.47 1.26-.47 1.89 0-.63.45-1.26.45-1.89 0Zm3.43 3.57c-.07-.12-.16-.24-.2-.37 0-.04.13-.12.2-.18.07.12.16.24.2.37 0 .04-.13.12-.2.18Zm1.87-7.16c-.07-.12-.16-.24-.2-.37 0-.04.13-.12.2-.18.07.13.16.24.2.37 0 .05-.13.12-.2.18Zm5.73-2.1c-.17.14-.43.42-.5.38-.52-.3-.17-.54.12-.74.08-.06.3-.06.36 0 .07.07.02.24.02.37Zm-.36-3.6.22-.35c.07.06.2.14.2.18-.04.13-.13.25-.2.37l-.22-.2Zm.37 3.22c-.06-.07-.07-.28 0-.36.13-.16.32-.28.49-.41.1.1.28.23.26.27-.1.18-.23.36-.39.5-.07.06-.3.06-.36 0Zm1.1-5.22-.23-.36c.09-.07.16-.13.22-.2.07.13.17.25.2.38.01.04-.13.12-.2.18Zm.3 8.24c.03.27-.05.54-.4.46-.33-.08-.33-.69-.01-.9.04-.02.18-.03.2 0l.22.44Zm-.47-7.7.22.2-.22.35c-.07-.06-.21-.14-.2-.18.03-.13.13-.25.2-.37Zm-.44 9.92c.1-.1.21-.28.28-.26.2.04.4.17.58.26l-.3.3-.56-.3Zm2.47 2.2-.17-.27c-.48.34-.96.28-1.44-.23.58-.6 1.15-.6 1.73 0l-.06.05a1 1 0 0 1 .13.27c.01.04-.12.12-.2.18Zm4.87-4.33.3.3-.3.55c-.1-.1-.29-.2-.27-.28.04-.2.17-.38.27-.57Zm-.77-2.3c-.05.2-.18.39-.27.58l-.3-.3.3-.55c.1.1.28.2.27.28Zm-.3-12.41-.3.55c-.1-.1-.29-.21-.27-.28.04-.2.17-.39.27-.58l.3.3Zm-.55-5.47a.97.97 0 0 1-.5.27c.07.12.13.23.16.36.01.07-.18.18-.27.28-.1-.19-.23-.37-.27-.57 0-.03.03-.06.06-.09a1.05 1.05 0 0 1-.43-.24c.42-.4.83-.4 1.25 0Zm-1.69 24.28c-.2-.05-.39-.17-.58-.27l.3-.3.56.3c-.1.1-.2.29-.28.27Zm-7.69-28.86.22.2c-.13.05-.27.14-.41.16-.05.01-.14-.1-.2-.17l.4-.2Zm-.7 3.22.21.35-.22.2c-.07-.12-.16-.24-.2-.37 0-.04.13-.12.2-.18Zm-1.87-4.4.22.2-.22.35c-.07-.06-.2-.14-.2-.18.04-.13.13-.25.2-.37Zm2.5 6.53c1.65.01 2.82.32 3.55.9l.16-.28c.07.06.2.14.2.18-.03.1-.09.19-.14.28.45.45.75 1.02.9 1.72.53 0 1.05-.05 1.43-.55.48.05 1.02-.15 1.47.2a5.68 5.68 0 0 1-2.8 1.4c0 1.2-.19 2.7-.58 4.52a24 24 0 0 1-1.4 4.6 6.11 6.11 0 0 1-2.28 2.75c-.33.2-.71.37-1.13.5l-.04.09-.05-.05a9.2 9.2 0 0 1-2.89.39c-1.75-.02-2.98-.35-3.69-1s-1.07-1.57-1.08-2.78c-.01-1.2.19-2.74.59-4.6.62-2.9 1.46-5.01 2.5-6.33 1.05-1.32 2.81-1.96 5.28-1.94Zm-3.94-14.61c.23-.28.85-.27 1.03 0 0 .07.01.15-.02.2-.23.27-.85.26-1.02-.02-.03-.05-.03-.14.01-.18Zm-.43 3.12.22.2-.22.35c-.07-.06-.2-.13-.2-.18.04-.13.13-.24.2-.37Zm-.3-8.53c-.42.4-.84.4-1.25 0 .41-.4.83-.4 1.24 0Zm-1.6 22.29c-.19.1-.37.22-.58.26-.07.02-.19-.17-.28-.26.2-.1.37-.22.58-.27.07-.01.19.17.28.27Zm-.96-3.3c-.62-.57-.62-1.14 0-1.7.62.56.62 1.13 0 1.7Zm-.54-7.7c.17.06.34.11.5.19.03.01.02.14-.01.18-.23.27-.92.28-1-.02-.1-.3.2-.38.51-.35Zm.39 8.36c.38.25.3.59.02.9-.5-.08-.7-.5-1.04-.74.3-.31.68-.39 1.02-.16Zm-1.04 5.62.3.3-.3.55c-.1-.1-.3-.21-.27-.28.04-.2.17-.39.27-.57Zm-.6 13.54c.05-.04.2-.04.26 0 .12.09.2.2.3.31-.07.07-.17.18-.2.17a1.25 1.25 0 0 1-.36-.25c-.05-.04-.05-.19 0-.23Zm-.37-21.95c-.2.1-.38.22-.58.26-.07.02-.19-.17-.28-.26l.55-.3c.12.1.21.2.31.3ZM143 125.7c.4-.01.8-.03 1.2.01.1.01.2.22.24.35.01.04-.12.17-.2.18-.2.02-.4 0-.6 0s-.43.05-.6 0c-.12-.05-.2-.23-.25-.36-.01-.04.13-.17.2-.18Zm-1.4 17.76c.27-.07.8-.1.78.18-.06.89.82.8 1.3 1.12-.02.32-.75.4-.22 1 .37.42.83.94.92 1.56.05.06.1.13.15.17l-.13.07c0 .1 0 .19-.03.28-.55-.05-1.32.26-1.27-.68.01-.27-.23-.48-.61-.42-.39.06-.58-.15-.6-.43-.05-.45.06-.92-.04-1.35-.08-.3-.44-.55-.58-.86-.12-.26.03-.57.34-.64Zm-1.4 13.33c-.42.4-.83.4-1.25 0 .42-.4.83-.4 1.25 0Zm-1.33-19.67c-.1-.1-.28-.2-.27-.28.05-.2.18-.38.27-.57l.3.3-.3.55Z" class="e"/><path d="M310.47 148.52a.6.6 0 0 1 0-.93c1.18-.93 3.83-3.06 4.64-3.84a48.13 48.13 0 0 0 5.1-5.59 44.73 44.73 0 0 0 4.31-6.78c.3-.59.58-1.22.86-1.84l-.27-.01c-.48-.08-1.03.19-1.58-.28.69-.46 1.5-.13 2.13-.3l.34-.73a46.1 46.1 0 0 0 3.07-10.8 48.94 48.94 0 0 0 .6-6.06 44.15 44.15 0 0 0-.1-4.33 38.35 38.35 0 0 0-1.88-9.21 34.92 34.92 0 0 0-2.56-5.8 36.62 36.62 0 0 0-8.49-10.28c-.5-.42-1.04-.82-1.56-1.23-.07-.06-.1-.11-.2-.19-2.9-2.43-3.81-4.74-8.12-5.97-1.93-.55-1.15-.82-1.93-2.07s-2.82-.99-3.55-1.33c-.74-.35-2.04-.14-3.38-.14s-2.85-.67-2.85-.67c-.44-.19-.9-.44.13-.81 1.46-.54.29-.82.29-.82s-2.06-.74-2.15-1.57c-.09-.83 2.56.36 2.16-.35-.4-.71 2.25-2.04 1-2.01-1.23.04-1.11-.16-1.96-.36-.85-.2-1.65-1.16-.96-1.12.68.04 2.92-.08 1.06-.67-.83-.26-.73-1.52-.23-1.51.49 0 .02-.47-1.1-1.08-1.1-.6.1-.47.2-1.04.1-.56-1.34-1.33-2.06-3.78 0 0-.58 1.55-1.34 2.78-.63 1.04-.12 1.31.4 1.39-.1.27-.3.55-.77.7-.93.3-1.35.68 0 .74-.21.14-.44.25-.7.3-.87.16-.86.3-.48.78.16.2-2.1-.83-2.14-1.5-.03-.65 2.7.12 2-.48-.7-.61-1.59-1.57-1.03-1.73.57-.17.64-.1-.2-.89-.84-.8-1.53-1.87-.95-1.78.57.08 2.22.04 1.27-.41-.96-.46-2.87-2.25-2.13-2.14.63.08.74-.13.4-.55-.44.03-.86-.08-.73-.55.03-.1.11-.17.2-.23-.48-1.2-.79-3.77-.79-3.77s-.39 3.28-.74 4.1c-.35.82-1.15.81-.49.97s-1.1 1.91-1.47 2.03c-.36.12.49.68 1.17.32.3-.15.18.36-.08.87-.6-.3-1.72-.75-3.13-1.44-2.49-1.22-2.11-2.48-1.37-1.65.75.83 2.58.72 2.23.49-.35-.23-1.13-1.41-.3-1.01s4.3-.57 1.74-.86c-2.57-.3-1-1.4-1.4-1.3-1.04.25-3.15-.68-1.84-.63s2.02-.3 1.64-.38c-.38-.07-1.43-.64-.84-1.12.59-.48-.72-.91-1.81-1.1s-1.01-1.45-.56-1.28c.45.16 1.27.59.56-.55-.72-1.14-1.64-5.22-1.64-5.22s-.79 3.91-1.58 5.18c-.78 1.26.27.84.65.67.38-.17-.15 1.27-1.54 1.96-1.38.69-2.5 1.2-1.54 1.16.97-.05.61.46.05.82s-2.47.86-1.28 1.1c1.2.22 1.07 1.1.48 1.4-.32.16-.11.22.38.17-.11-.2.14-.38.36-.53.08-.06.3-.06.36 0 .06.07.01.24.01.37l-.04.03c.32-.07.68-.17 1.05-.31 1.52-.55 1.24.38-.31.84-1.56.46-2.04 1.84-2.82 1.3-.78-.54-.75-.73 0-.69.75.04-.84-.46-.94-.98-.1-.5.56-.28.18-1.2-.38-.93-1.42-2.1-1.6-2.82-.17-.73-.85 1.37-1.18 2.3-.34.93-1.22 2.05-.42 1.9.8-.15.33.9-.53 1.08s-.5.77 0 .7c.5-.07-1.4 1.3-.52 1.13.88-.17 1.05.7.02.82-1.03.1-.96-.03-1.01.53-.06.56-2.17.5-1 .75 1.19.26-.12-.1 1.52.69 1.33.63-1.97.72-3.06-.07-1.08-.8-2.02-1.2-2.02-1.2-3.18-1.27-.6-1.59.55-1.62 1.15-.03-.42-1.4.7-1.45 1.14-.04-2.17-2.6-1.14-2.2 1.03.4 2.39-.19.53-.8-1.86-.62-3.45-2.93-2.83-2.66.61.27 2.47.12 1.53-.24-.94-.35-2.54-1.94-1.89-1.65.65.3 2.42.62 2.42.62.93-.57-2.95-1.56-.83-1.44.62.03-.72-.86-2.31-1.75s.53-.66 1.28-.8c.75-.13-1.95-1.76-1.22-1.6.72.18 2.77-.38.69-1.1a4.1 4.1 0 0 1-1.6-1.06l-.14.26-.3-.3.15-.27c-.76-.93-1.01-1.88-.54-1.63.75.4 1.68-.22 1.28-.36-.4-.13-2.3-2.3-1.57-2.46.74-.17-.15-.16-.54-1.07-.38-.9-.81-4.52-.81-4.52s-.25 2.07-.65 3.5c.05.04.1.06.16.12-.09.09-.17.13-.25.2a2.4 2.4 0 0 1-.46.91c-.7.67-.64 1 .18.89s-1.28 1.86-2.34 2.36c-1.05.5.77.55 1.4.45.64-.1-.12 1.1-1.04 1.97s-.85.8-.23.97c.62.18-.36 1.24-1.13 1.9-.78.68 2.23-.17 2.2.55-.04.73-2.53 1.87-2.35 1.65.41-.53.43-.69-.54-.87a2.07 2.07 0 0 1-.76-.33c1.48-.06 1.01-.48 0-.8a1.24 1.24 0 0 1-.85-.78c.56-.09 1.13-.38.43-1.53-.83-1.36-1.47-3.06-1.47-3.06-.8 2.7-2.4 3.54-2.28 4.16.11.63 1.44.48.22 1.15-1.23.66-1.75 1.2-1.2 1.18.5 0 .63 1.19-.1 1.59-.7-.84-1.56-1.63-2.61-2.32l-.2.4-.31-.3.18-.32c-.37-.23-.77-.43-1.2-.63-.27.17-.74.14-.89-.1-.03-.04-.02-.14.02-.18.03-.04.08-.06.12-.08-5.8-2.45-5.13-10.1-10.93-10.77-5.84-.66-8.85-6.4-10.77-7.09-1.24-.44-2.25.47-2.81 1.18-.59.73-1.26 1.39-1.94 2.04-3.03 2.93-4.75 5.8-7.92 11.35a25.23 25.23 0 0 1-5.9 7.04c-.14.12-.3.2-.44.3l.1.1c.02.03-.15.3-.25.32-.16.01-.36.05-.52.01-.99.55-2.09.9-3.22 1.1-2.8.53-4.38 2.72-5.16 4.24a5.49 5.49 0 0 1-2.4 2.39c-6.8 3.46-7.27 5.1-9.95 7.78-.26.26-.55.47-.82.7.48.05.96.16 1.49.39-.9.39-1.71.5-2.54.38-.35.23-.7.46-1.04.65-.7.3-5.36 2.34-6.4 2.82-3 1.38-7.85 3.34-9.3 3.84-1.45.5.68.37 3.44-.22 2.77-.59 6.33-1.55 8.6-2.11a39.68 39.68 0 0 0 9.65-4.2c.17-.1.3-.2.41-.28a23 23 0 0 0 2.96-2.06c-.2-.15-.37-.33-.43-.6.43-.13.85-.17 1.3-.15 2.17-1.9 3.68-3.7 4.63-4.03 2.38-.82 3.33-1.23 3.04-2.32s1.81-3.73 4.71-5.27-.46 2.48-2.39 5.51 5.48-.92 7.4-6.76c1.9-5.84 4.22-8.03 6.74-10.37s2.16-5.2 4.83-8.63c2.67-3.41 1.5-1.04 3.5-1.14 2.02-.1.73 1.6.73 1.6-1.92 2.57-1.5 4.3-2.2 7.78.24-.05.48.03.73.27-.28.26-.56.33-.84.24-.14.58-.3 1.22-.52 1.91l.11.05-.17.15-.33.99c-2.2 6.13-7.6 8.81-5.53 9.06 2.07.25 6.57-4.23 7.67-5.49 1.09-1.25 3.98-6.45 6.83 1.23a8.46 8.46 0 0 0 4.62 4.76c-.14-.16-.33-.34-.3-.4.3-.51.55-.16.75.12.06.08.01.25.01.37h-.26l.25.11c0-.03 0-.08.03-.1.06-.06.28-.06.36 0 .13.1.23.25.33.38 3.54 1.27 6.63.93 3.46 2.39-5.18 2.38-9.51-4.06-9.16-2.08.5 2.72 4.85 4.01 4.34 5.96-.41 1.6-2 2.37-4.14 2.53a12 12 0 0 1-4.06-.54c-1.1-.3-2.54-.38-3.5.48a8.12 8.12 0 0 0-2.24 4.06.4.4 0 0 0 .49.5c6.95-1.4 16.33-2.63 9.88 1.5.38.5.33.98-.2 1.47-.38-.35-.5-.7-.41-1.05-3.2 2.25 2.08 2.49 9.86-.44l-.1-.1c.14-.07.27-.15.42-.18.03 0 .09.05.14.11 1-.38 2.22-.5 3.42-.44-.03-.13-.04-.3-.03-.64q.27-.24 2.27-.04c-.03.4-.42.58-.69.83 2.77.42 4.93 1.54 3.49 1.93l-.76.17c-1.06.24-1.85 1.44-2.9 1.68-4.86 1.07-8.98 1.19-14.4 3.65-1.8.82-2.54 2.63-4.53 2.64h-.1c-3.16 0-3.2.6-4.83.04-1.64-.55-2.23.66-3.8.74-1.59.07-2.44.04-4.72-1.85-2.27-1.9-4.2-1.46-5.38-1.96l-.62-.25c.12.37 0 .74-.4 1.11-.48-.43-.58-.87-.32-1.31a3 3 0 0 0-1.52.23c-1.26.46-2.04 2.09-4.78 3.27s-8.33 2.58-9.72 3.87c-.67.62-2 1.63-3.35 2.64-.36-.43-.8-1.1-.67-1.94.15-.97-.06-1.32-.54-2.07-.48-.75-1.2-3.67-1.27-2.86-.06.65-.3 1.45-.49 2.1l.1.1-.27.49c-.17.57-.49.9-.54 1.71-.06.88-.56 2.16-.74 2.63-.19.47-1.38-.13-1.44-1.95-.05-1.83.5-1.64-.37-3.07-.6-.96-.64-1.05-.66-1.37v-.02a6.33 6.33 0 0 0-.05-.73c-.15-1.07-.02-1.5-.4-2.11-.36-.61-.6.06-.64 1.14-.03 1.08-.65 2.02-.82 2.7-.16.67-.06.88.2 1.69s-1.17 2.66-1.26 3.34l-.02.26.2-.16c.1.1.28.24.27.27-.1.19-.23.37-.4.5-.04.04-.1.04-.18.03-.04.12-.1.21-.18.29l-.01.08c-.17.13-.43.4-.5.36-.2-.11-.27-.22-.26-.31-.46-.15-.85-.68-.96-1.61-.14-1.22-.3-1.22-.63-1.96-.33-.75-.67-.89-.64.06s-.23 1.48-.47 2.16c-.15.4-.25.69-.34 1l.22.22-.3.55-.1-.1c-.17.68-1.32 2.84-1.37 3.38l-.09.77a3.47 3.47 0 0 1-2.08 2.78c-.18.07-.25.25-.53.23a1.36 1.36 0 0 1-1.2-1.25c-.03-.64-.73-2.24-.93-2.74-.2-.5-.33.57-.67 1.87s-.7 2.37-.87 2.07-.56-.67-.86-1.1c-.3-.44-.24-.77-.17-1.24.07-.47.03-.6-.3-1.7s-.37-1.1-.47-1.67c-.1-.57-.23.56-.3 1.1s-.54 2.17-1 2.8c-.47.64-.2 1.31-.6 1.91-.4.6-.5 3.69-1.53 3.82l-1.89.97c-1.63.48-2.93.93-1.1.95 2.53.02 8.13-1.26 11.4-2.58l.06-.62c.01-.1.18-.2.28-.3l.55.54c.24-.11.47-.23.67-.34 2.66-1.52 3.11-2.79 5.67-2.72 2.56.07 5.02.9 6.66-.22 1.65-1.13 2.77-2.87 4.25-3.54 1.47-.67 4.9-1.74 6.97-3.55 2.07-1.8 7.41-4.28 5.68-2.04-1.73 2.24-7.1 6.4-3.98 5.3s7.61-4.8 9.18-6.57c1.56-1.77 1.43-3.82 3.12-3.63 1.69.2 1.35 3.14.08 4.43s2.74-.82 3.46-1.02c.71-.2 3.81-.3 2.37 1.36-1.44 1.67 1.34 1.2-1.86 4.11-.1.09-.17.18-.27.26.2 0 .4.04.55-.04.35-.19.62-.54.92-.82.66 1.5.57 1.68-.84 1.69h-.25l.14.06-.23.2-.4-.2.07-.06-.17-.01c-.1-.02-.2-.16-.33-.26v-.03c-2.67 2.69-4.26 5.46-7 6.59-3.01 1.24 2.39.7 4.9-1.52 2-1.77 3.66-2.98 4.63-3.45-.08-.04-.16-.08-.24-.14.56-.38.89-1.31 1.88-.6-.26.2-.48.5-.73.69.02.21-.18.64-.65 1.3-1.97 2.74.66 1.32 4.3-1.97s2.83-4.71 9.72-7.43c5.09-2.02 11.35.05 15.05-1.13 3.7-1.18 3.4-1.84 17.26-3.78 0 0 7.79-1.09 17.54-1.18 2.4.02 4.77.08 7.04.22 2.6.15 5.13.38 7.54.68 2.46.31 4.84.7 7.07 1.16a72.6 72.6 0 0 1 6.59 1.69 58.2 58.2 0 0 1 6.1 2.24c2 .87 3.88 1.84 5.62 2.9a39.18 39.18 0 0 1 5.05 3.63 33.8 33.8 0 0 1 5.98 6.64 31.68 31.68 0 0 1 3.66 7.36 31.53 31.53 0 0 1 1.63 8.07 35.02 35.02 0 0 1-.1 6.72l.12-.1.3.54c-.1.12-.2.21-.3.3l-.17-.32a38.2 38.2 0 0 1-.7 4.33 43.36 43.36 0 0 1-1.24 4.56l-.05.13c.14.1.22.26.22.48.07.33-.17.48-.48.53h-.12c-.22.61-.43 1.23-.68 1.83a39.72 39.72 0 0 1-8.2 12.37 43.38 43.38 0 0 1-3.32 3.1c-.44.36-.92.72-1.37 1.1-2.1 1.8-5.5 3.77-7.49 4.86a.62.62 0 0 0 .17 1.15 13.61 13.61 0 0 1 10.44 13.64c.14.04.27.1.38.17 0 .33-.74.4-.21 1 .37.43.83.95.92 1.57l.15.17-.13.07c0 .09 0 .18-.03.28-.55-.05-1.32.26-1.27-.69 0-.1-.04-.18-.1-.25-.04.23-.08.47-.14.7l-1.72 8.08c.07-.09.15-.18.2-.17.2.05.39.17.58.27l-.3.3-.5-.27-1.94 9.06-.2.6a13.58 13.58 0 0 1-12.89 9.28h-54.82c-.24.16-.54.24-.94.19-.3-.04-.55.12-.82.23-1.22.52-1.3.5-2.29-.42H221.4l-.2.18-.09-.18h-30.56c-4.06 0-7.94-1.8-10.44-5a13.25 13.25 0 0 1-1.98-3.34 1.47 1.47 0 0 0-1.35-.97h-10c-2.52 0-5.03-.64-7.12-2.03-.25.03-.49-.04-.54-.2a.27.27 0 0 1 0-.16 12.2 12.2 0 0 1-4.8-7.91c-.1-.7-.73-1.2-1.43-1.2l-22.1-.08-.29.3-.13-.3-21.58-.08c-.04.06-.08.13-.1.2l-.21-.2-32.09-.13a.73.73 0 0 1-.48 0l-58.07-.22c-4.88 0-9.3-2.62-11.68-7.07a13.51 13.51 0 0 1-.93-9.93 83.93 83.93 0 0 1 6.62-16.62 72.87 72.87 0 0 1 5.74-9.03 64.17 64.17 0 0 1 5.75-6.68c.64-.65 1.26-1.28 1.91-1.86a37.03 37.03 0 0 1 9.65-6.02c1.62-.71 1.13-3.1-.64-3.1-1.16 0-2.3-.17-3.4-.47-.37.13-.73.02-1.1-.34-5-1.8-8.86-6.52-8.89-12.82 0-1.27.26-2.53.65-3.74l.07-.2c.22-.66.44-1.31.68-1.95 0-.03.02-.05.03-.08-.25.08-.5.05-.69-.18-.25-.3-.17-.65.18-.9.2.22.5.37.7.61a60.18 60.18 0 0 1 3.16-7.06 56.8 56.8 0 0 1 6.41-9.56 52.58 52.58 0 0 1 6.93-6.89 55.65 55.65 0 0 1 5.71-4.15c-.17-.11-.3-.34-.47-.5-.32-.27-.32-.77-.02-.87.24-.09.6-.14.79-.04.3.16.54.43.84.7l.99-.6a62.37 62.37 0 0 1 8.4-4.08 67.78 67.78 0 0 1 3.58-1.33l1.15-.38c30.75-8.65 55.38-3.85 55.38-3.85 4.8.97 6.64 2.02 8.03 2.52a.75.75 0 0 0-.21-.43c.52-.27.9.25 1.35.32.37.07.74-.06 1.11-.03.16.02.46.25.44.33-.1.68 1 .66.94 1.28l-.04.01c3.95 1.7 10.11 4.56 12.37 6.78 3.44 3.37-.9-2.4-2.98-4.12-2.07-1.71-1.5-2.62-3.5-3.14-2.01-.52-3.9-2.79-1.43-3.3.91-.2 1.63-.48 2.43-.77 4.2-.42 9.5 2.45 14.12 2.69l1.08.08.01-.02.03.03c3.9.4 6.32 1.65 13.9 1.82 1.5.03-.09-.68-1.98-1.52l-.14.22c-.07-.06-.2-.13-.2-.18l.08-.16c-.8-.35-1.64-.73-2.3-1.08l-.25.43c-.1-.1-.28-.2-.27-.28.03-.12.1-.24.15-.35-.9-.53-1.3-.96-.38-1.15 1.36-.27 7.73 1.28 15.48.84 5.93-.33-.62-1.28-3.19-1.7-.49-.08-1-.26-1.51-.5l.04.1c.01.04-.12.12-.2.18-.06-.12-.15-.24-.19-.37 0-.02.03-.04.05-.06-1.42-.72-2.83-1.82-3.83-2.56a3.12 3.12 0 0 0-2.17-.59l-1.83.2a5.6 5.6 0 0 1-2.54-.34c-.49-.18-.94-.36-1-.39-.1-.06-.45-.16-.68-.4-.22-.25-.5-.77-.64-1.16a2.63 2.63 0 0 1-.01-.36c.02-.6-.2-.51-.4-.04-.22.48-.32.48-.41 1.25-.1.78-.5 1.13-.9 1.05-.4-.09-.35-.43-.4-.86-.06-.43-.97-1.61-.8-2.13.16-.52.22-.65.12-1.08-.1-.43-.5-1.03-.53-1.72-.02-.7-.17-1.12-.4-.73-.24.39-.16.66-.25 1.35-.1.76.1.44-.46 1.35-.56.91-.2.8-.24 1.96s-.8 1.54-.91 1.24a6.8 6.8 0 0 1-.47-1.67c-.04-.56-.28-.75-.38-1.18-.1-.43-.35-1.12-.39-1.63-.04-.52-.5 1.34-.82 1.82-.3.48-.43.7-.34 1.32.1.63-.3 1.1-.53 1.37-.13.14-.7 1.75-1.2 3.17-3.15 1.13-8.02-1.32-9.84-1.8a7.03 7.03 0 0 0-1.54-.18c.05.08.1.17.12.24.01.04-.12.17-.2.18-.2.03-.4 0-.6 0s-.43.05-.6 0c-.12-.05-.2-.23-.25-.36l.03-.03c-.48.02-.97.06-1.48.1 0 .05 0 .1-.02.12-.23.28-.84.27-1.02-.01v-.02c-2.26.2-4.57.4-6 .06-2.22-.54-3.7-.73-5.2-1.19-.88-.27-1.77-.49-2.69-.61-3.13-.41-10.17-1.48-11.17-2.84-.38-.5-.64-.93-.8-1.32-.14-.26.21-.38.28-.4 3.92-.72 5.76 1.81 7.97 1.55 2.58-.3 3.56.35 6.33 1.05 2.78.69-1.7-3.7-6.5-4.7-.71-.16-1.29-.3-1.78-.44-.05.25-.2.43-.53.34-.25-.06-.35-.35-.34-.66-1.42-.66-1.95-1.75-3.64-4.75-2.17-3.87.8-1.66 3.43.84s6.17 2.63 4.73 1.7c-1.43-.92-7.54-6.1-8.16-10.22-.62-4.12 1.5-2.87 2.8-.44s3.8 3.37 5.36 5.85c1.56 2.5 5.32 4.86 9.77 6.34l2.4.79c2.52 1.11 3.07.89 5.2 1.25 1.27.21 1.93.53 2.52.88.28-.11.56-.1.78.16.1.13.14.27.13.4l.33.2c1.2.64 1.81 1.17 3.27 1.84 1.47.68-.25-.8-1.05-1.38-.79-.59-1.49-1.33-2.13-2.1-.63-.78-1.53-1-2.45-1.25-.92-.26-2.23-.87-3.25-1.3-1.02-.43-1.65-.9-1.74-1.26s-1.4-1.05-1.72-1.36c-.32-.3-1.11-.15-2.13-.15-.96 0-2.92-.52-3.14-.58a7.4 7.4 0 0 1-1.92-1.45c-.36 0-.67-.13-.56-.55 0-.02.03-.03.04-.05-1.39-1.66-2.29-3.72-2.87-5-.88-1.95-4.35-2.18-5.04-4.5s-1.57-2.4-3.33-3.19c-1.76-.78-2.54.7-3.05 1.88-.51 1.17-2.36 5.53-5.23 7.53-2.42 1.68-1.6 1.44-4.3 4.3.42.01.84.07 1.31.19-.45.53-1.32.36-1.57.93-.13-.13-.3-.24-.44-.36l-1.2 1.22c-1.26 1.25-1.31-.16-2.35-.35-1.04-.2.42-.7.42-.7 1.66-.55 2.47-1.39.64-1.66-1.84-.27-3.45-2.24-3.97-2.8-.52-.55.24-.04 1.33.33 1.08.37 1.42.12 1.12-.3-.31-.43 1.02.18 2.49.21s-.73-.66-3.38-1.96c-2.64-1.3-2.24-2.64-1.45-1.75.8.88 2.74.76 2.37.52-.37-.25-1.2-1.5-.3-1.08.88.42 5.01-.6 2.28-.92-2.73-.3-1.52-1.52-1.94-1.37-.41.14-3.34-.73-1.95-.67 1.39.06 2.14-.33 1.74-.4-.4-.08-1.52-.69-.9-1.2.63-.51-.75-.97-1.92-1.17s-1.07-1.54-.6-1.36c.49.18 1.36.62.6-.59s-1.74-5.55-1.74-5.55-.84 4.17-1.67 5.5c-.84 1.35.28.9.68.73.4-.18-.16 1.34-1.63 2.08-1.47.73-2.67 1.27-1.64 1.23 1.03-.05.65.49.05.87s-2.62.92-1.36 1.16c1.27.25 1.13 1.2.5 1.5-.62.32.66.3 2.27-.29 1.61-.58 1.32.4-.34.9-1.65.5-2.17 1.96-3 1.38s-.8-.78 0-.73c.8.04-.89-.5-.99-1.04-.1-.55.59-.3.19-1.3-.4-.98-1.5-2.2-1.7-2.98-.18-.77-.9 1.46-1.26 2.45-.36.99-1.3 2.17-.45 2.02s.36.95-.56 1.14c-.91.2-.53.82 0 .75.53-.08-1.48 1.37-.55 1.2.93-.18 1.11.75.02.87-1.1.11-1.02-.03-1.07.56s-2.31.54-1.06.8c1.25.27-.31.97 1.61.73s1.61.99.54 1.61c-.86.5-1.84.73-2.48.86a8.2 8.2 0 0 1-1.13-2.39s-.64 1.7-1.48 3.07c-.7 1.14-.13 1.44.43 1.53-.1.29-.33.6-.84.77-1.02.33-1.48.74 0 .8-.23.16-.49.29-.77.34-.96.18-.95.34-.53.86.18.23-2.32-.92-2.36-1.64-.03-.72 2.98.13 2.2-.54-.77-.67-1.74-1.73-1.12-1.91.62-.18.7-.1-.23-.97s-1.68-2.07-1.05-1.97c.63.1 2.46.05 1.4-.45-1.05-.5-3.16-2.48-2.34-2.36.83.11.89-.22.18-.89-.7-.66-1.2-4.73-1.2-4.73s-.42 3.61-.8 4.52c-.4.9-1.28.9-.55 1.06.31.07.14.5-.17.98.47.05.96.07 1.37.45-.46.37-.88.2-1.23.1-.32-.09-.53.07-.74.22-.33.37-.66.67-.8.72-.4.13.53.75 1.29.36.75-.4-.36 2.3-2.44 3-2.08.71-.03 1.27.7 1.1s-1.98 1.47-1.23 1.6c.75.14 2.88-.08 1.29.8-1.6.89-2.94 1.78-2.32 1.74 2.12-.12-1.76.87-.83 1.45 0 0 1.77-.33 2.42-.62.65-.3-.94 1.3-1.89 1.65s.92.5 1.54.24c.62-.27-.98 2.03-2.83 2.65-1.86.62-.5 1.21.53.81 1.03-.4-2.29 2.15-1.15 2.2 1.13.05-.45 1.42.7 1.45.48 0 .56.3.2.77-.24.06-.5.12-.8.16-1.22.18-1.6-.73-2.76-.38-1.17.34-4.86 1.47-5.29 2.07-.43.6-.18.82-.74 1.56-.57.73-3.67.8-4.09 2.66 0 0-2.2 2.59-3.7 3.43-1.49.85-4.5 4.38-5.86 5.74a59.02 59.02 0 0 0-13.57 19.93 65.5 65.5 0 0 0-1.97 5.26l-.05.13c-.7 2.16-1 4.32-.87 6.43.03.5.1.97.16 1.44l.45-.24 1.13.85c-.18 1.03-.57 1.92 0 2.74l-.29 1.43c1.27 3 3.28 5.56 5.82 7.44 1.09.81 1.05 2.44-.01 3.29-.47.37-.92.75-1.36 1.15a69.38 69.38 0 0 0-8.28 9.22 71 71 0 0 0-6.14 9.63c-.32.6-.64 1.2-.96 1.85l-.68 1.4c.3 0 .6.14.89.46-.43.45-.85.56-1.27.35l-.06.12a81.78 81.78 0 0 0-2.7 6.55 97.47 97.47 0 0 0-2.2 6.8c-.63 2.27-.8 4.57-.6 6.8 1.52 1.6 1.51 1.7.98 2.65l-.69-.58a17.33 17.33 0 0 0 2.3 5.8c.06-.17.16-.33.25-.5l.3.3-.3.54a17.82 17.82 0 0 0 14.9 8.01l33.83.13.05-.04.02.04 47.31.19-.28-.28.3-.55c.1.1.29.2.27.28-.04.19-.16.37-.26.55l17.24.06a.93.93 0 0 1-.47-.4 1.2 1.2 0 0 1 0-.81c.11-.38.39-.45.57-.21.5.68 1.2.63 1.91.52.51-.07.85.28 1.23.55-.07-.1-.14-.2-.18-.31-.01-.05.12-.13.19-.2l.24.35-.2.19c.28.18.58.31 1 .2.8-.23 1.7-.15 2.56-.17.08 0 .17.13.27.25.47-.56 1.2-.62 2.26-.5-.19.18-.33.34-.46.49l.12.05-.03.04 4.18.01c-.25-.01-.47-.1-.53-.29-.16-.47.26-.6.69-.59.23.08.48.16.71.26.04.02.04.21 0 .28-.14.2-.42.31-.69.34l13.34.06c.05-.06.1-.13.14-.12.12.02.23.07.34.12l5.54.02c0-.03 0-.06.02-.1.04-.1.33-.24.37-.2.3.22.57.48.92.78h-.01c.16.16.3.34.38.56 1 2.43 2.57 4.61 4.59 6.36a17.44 17.44 0 0 0 11.46 4.1h6.75c.7 0 1.35.34 1.72.92a18.07 18.07 0 0 0 15.3 8.4h6.77a1.59 1.59 0 0 1-.09-.27c-.09-.33.16-.54.46-.54.47 0 1-.18 1.42.28l-.74.53h66.6c.45-.38.9-.38 1.36 0h11.65c.12-.12.25-.22.38-.27a3.3 3.3 0 0 1 1.92-.15c.64-.42 2.06.03 2.08-1.2 0-.37.49-.3.86.12.97 1.15 2.48-.2 3.32.5.61.53 1.2.68 1.82.7l.08-.17.22.17c.41 0 .83-.05 1.26-.08.23 0 .56.17.76.38h4.02a18.3 18.3 0 0 0 15.37-8.38c-.29.03-.58.07-.85.01-.37-.07-.67-.33-.6-.8.38-.02.79-.1 1.16-.04.25.05.45.19.55.4.7-1.14 1.28-2.37 1.72-3.68l.2-.6.09-.26.05-.26 3.67-17.18a18.25 18.25 0 0 0-5.58-18.2Zm18.37-34.95.22.2-.22.35c-.07-.06-.2-.14-.2-.18.04-.13.13-.25.2-.37Zm-2.23 4.7.3.55-.3.3c-.1-.19-.23-.37-.27-.57-.02-.07.17-.18.27-.28Zm-45.81-66.9c.07 0 .19.18.28.27-.19.1-.37.23-.58.27-.07.02-.19-.17-.28-.27.2-.1.37-.22.58-.26Zm-7.63.18c-.2.14-.47.2-.7.3 0-.29.02-.57-.01-.84-.08-.52.21-.8.65-.85.58-.07 1.14.02 1.08.83-.52-.13-.7.35-1.02.56ZM160.3 69.45c-.05.01-.13-.1-.2-.17l.4-.2.22.2c-.14.06-.27.14-.42.17Zm8.33-4.03c.42-.4.83-.4 1.25 0-.42.4-.83.4-1.25 0Zm18.05-11.18c-.1-.19-.23-.37-.27-.57-.02-.07.17-.18.27-.28.1.2.22.37.27.57.01.07-.18.19-.27.28Zm10.49-2.63c-.17.13-.43.4-.5.37-.52-.3-.17-.55.12-.74.08-.06.3-.06.36 0 .07.06.02.24.02.37Zm.37-.4c-.07.07-.25.02-.37.02 0-.13-.06-.3 0-.37.14-.16.33-.28.5-.41.1.1.28.23.26.27-.1.18-.23.36-.39.5Zm17.48-13.68c-.4-.24-.3-.59-.03-.9.56.02.63.57 1.1.68-.34.37-.72.44-1.07.22Zm1.95-7.05c-.07-.12-.16-.24-.2-.37 0-.04.13-.12.2-.18.07.12.16.24.2.37 0 .04-.13.12-.2.18Zm1.64 2.49c.1.1.29.2.27.28-.04.2-.17.38-.27.57l-.3-.3.3-.55Zm-.36 4.1c-.11-.03-.27-.3-.24-.33.25-.27.55-.5.89-.81.1.27.24.5.23.73 0 .36-.43.55-.88.41Zm2.09-6.66c-.1-.1-.29-.2-.27-.28.04-.2.17-.38.27-.57l.3.3-.3.55Zm4.54 4.46-.22-.2.22-.35c.07.06.21.14.2.18-.04.13-.13.25-.2.37Zm2.32 13.27c-.18.27-.79.28-1.02 0-.04-.03-.04-.13-.02-.17.18-.28.8-.3 1.03-.02.03.05.01.13.01.19Zm.01-13.01c.22-.14.42-.35.66-.41.63-.16.94.36 1.36.69.4.3 1.1 0 1.43.6-.38.37-.73.83-1.2 1.1-.27.16-.9.16-1.07-.02-.5-.58-.36-1.55-1.18-1.96Zm2.56 9.84c.02.07-.17.19-.27.28l-.3-.55.3-.3c.1.19.23.37.27.57Zm.9 3.9c-.07.04-.2 0-.3 0-.56.07-.65-.63-1.26-.56-.36.04-.8.15-1.2-.28.29-.2.6-.24.9-.24a.78.78 0 0 1-.44-.26.32.32 0 0 1-.02-.28c.24-.44 1.1-.45 1.42-.02.05.06.02.18.03.28-.09.15-.25.23-.43.28.24 0 .47 0 .68-.06.34.3.63.54.89.81.02.03-.16.24-.28.33Zm-6.67 12.8c-.23.28-.85.27-1.02 0-.03-.06-.02-.15.02-.2.23-.27.84-.26 1.02.02 0 .06.02.14-.02.18Zm2.76 3.8c-.07.02-.19-.17-.28-.26l.55-.3c.12.1.22.2.31.3-.19.09-.37.22-.58.26Zm1.47-1.99-.56-.3c.1-.1.21-.28.29-.27.2.05.38.18.57.27l-.3.3Zm3.04-9.33c-.07-.06-.2-.14-.2-.18.04-.13.13-.25.2-.37l.22.2-.22.35Zm1.28-1.66c-.1-.1-.3-.27-.27-.31.21-.33.4-.1.54.07.04.06.04.2 0 .24-.05.04-.18 0-.27 0Zm.65.5a1.27 1.27 0 0 1-.37-.26c-.05-.04-.04-.18 0-.23.05-.04.2-.04.26 0 .12.09.2.2.3.31-.07.07-.17.19-.2.17Zm2.94-10.52c-.36-.25-.32-.6.17-1.08l.74 1.05c-.2.2-.58.27-.91.03Zm2.33 21.44c-.07.02-.2-.17-.29-.27.2-.1.38-.22.58-.26.07-.02.19.17.29.26-.2.1-.38.23-.58.27Zm1-1.54c-.09-.2-.22-.37-.26-.57-.02-.07.17-.19.27-.28.1.19.22.37.27.57.01.07-.18.18-.27.28Zm.54 1.17-.3-.3.3-.55c.1.1.29.21.27.28-.04.2-.17.38-.27.57Zm-87.17 27.93c-.05 0-.13-.11-.2-.17l.4-.2.22.2c-.14.06-.27.14-.42.17Zm2.9.1-.56-.3c.1-.1.2-.29.28-.27.2.04.39.17.58.26l-.3.3Zm3.33 1.55c-.03.03-.35-.13-.36-.21-.03-.25-.16-.58.2-.7.24-.08.54-.03.8 0 .08 0 .15.11.22.18-.28.24-.55.5-.86.73Zm1.7-2.74-.22-.2c.14-.06.27-.14.42-.17.05 0 .13.11.2.17l-.4.2Zm10.04-17.09c.1.19.23.37.27.57.02.07-.17.19-.27.28-.1-.19-.22-.37-.27-.57-.01-.07.18-.18.27-.28Zm-.53 4.78c-.1-.1-.29-.2-.27-.28.04-.2.17-.38.27-.57l.3.3-.3.55Zm1.68 5.08c-.38.04-.91.21-1.1-.27-.12-.33-.03-.74 0-1.11.01-.1.18-.2.28-.3.4.4.8.77 1.15 1.18.04.05-.2.5-.33.5Zm.58 4.6c-.1-.09-.29-.2-.27-.27.04-.2.17-.38.27-.57l.3.3-.3.55Zm12.76-8.48c-.33.26-1.3.26-1.64 0-.03-.03-.03-.14 0-.19.2-.29.54-.15.82-.18.28.03.62-.11.82.18.04.05.04.16 0 .19Zm7.8.1-.23-.2c.14-.05.27-.14.42-.16.05-.01.14.1.2.17l-.4.2Zm9.37-2.68c-.1.08-.48.08-.57 0a1.22 1.22 0 0 1-.3-.68c-.02-.13.2-.4.3-.4.48 0 .98-.12 1.46.12-.1.5-.57.69-.9.96Zm1.04-1.82c-.18.28-.8.29-1.03.01-.03-.04-.04-.13-.01-.18.17-.28.79-.29 1.02-.01.04.04.02.12.02.18Zm2.3 9a.33.33 0 0 1-.28.02c-.44-.24-.45-1.08-.02-1.4.07-.05.2-.02.3-.03.42.25.44 1.1 0 1.41Zm4.28-1.12c-.32.02-.46-.35-.7-.56-.32-.28-.32-.77-.02-.88.24-.08.6-.14.8-.04.32.17.57.48.9.77l-.98.71Zm2.33-6.54c-.07.02-.19-.17-.28-.26l.55-.3c.12.1.21.2.31.3-.2.1-.38.22-.58.26Zm20.1 1.33c-.07.02-.19-.17-.28-.27.19-.1.37-.22.58-.26.07-.02.18.17.28.26-.2.1-.38.23-.58.27Zm.27-1.67-.55-.3c.1-.1.21-.28.28-.26.2.04.39.17.58.26l-.3.3Zm.6-1.19c0-.04.13-.12.2-.18l.22.35-.22.2c-.07-.12-.17-.24-.2-.37Zm.53 2.75c-.4-.25-.3-.6-.04-.9.52.07.7.5 1.05.73-.28.31-.67.39-1.01.17Zm7.04-25.58c-.09-.07-.16-.13-.22-.2.13-.05.27-.13.41-.16.05-.01.14.1.2.17l-.4.2Zm2.9 2.66c-.05.01-.13-.1-.2-.17.14-.06.27-.14.42-.17.05-.01.13.11.2.17-.14.06-.27.14-.42.17Zm4.18-6c.1.1.28.2.27.28-.05.2-.18.38-.27.57l-.31-.3.3-.55Zm-.67-5.83c.05-.01.13.11.2.17l-.4.2-.22-.2c.14-.06.27-.14.42-.17Zm-.28 30.29-.3-.55c.1-.12.2-.2.3-.3.1.18.23.37.27.57.02.07-.17.18-.27.28Zm.33-10.26c-.08-.03-.24-.05-.24-.1-.02-.13.02-.28.04-.41l.28.1-.08.4Zm.25-2.26c-.16-.14-.35-.26-.47-.43-.04-.06.1-.23.15-.36l.49.4-.17.4Zm.57-6.48-.4-.2c.07-.05.15-.17.2-.16.15.03.28.1.42.17l-.22.2Zm1.52-8.87.31.3-.3.55c-.1-.09-.3-.2-.28-.28.05-.2.18-.38.27-.57Zm-.67 18.2c-.05-.47.83-.82 1.3-.54.06.04.14.22.11.25-.16.2-.36.36-.53.54-.39.19-.82.24-.88-.25Zm1.07 8.63-.4.38c-.37-.27-.46-.61-.21-.92.28-.35.67-.27 1.1.02l-.49.52Zm1.64-3.11c-.23.27-.84.27-1.02-.01-.03-.05-.02-.15.02-.19.23-.27.84-.26 1.02.01 0 .07.02.15-.01.19Zm.12-6.8-.28-.1c.11-.1.2-.23.33-.32.04-.02.17.06.25.09l-.3.33Zm2.16-16.92.3.3-.3.55c-.1-.09-.29-.2-.27-.28.04-.2.17-.38.27-.57Zm-.77 16.06-.63-.07c.05-.12.09-.34.16-.35.2-.04.42.01.64.03l-.17.4Zm-.92-19.45c.42-.4.83-.4 1.25 0-.42.4-.83.4-1.25 0Zm1.53 12.9c-.07-.05-.21-.13-.2-.17.03-.13.13-.25.2-.37l.22.2c-.08.1-.15.23-.22.35Zm.4-4.2-.23-.2.22-.35c.07.07.2.14.2.19-.04.13-.13.24-.2.36Zm2.08 4.76.22.2-.22.35c-.07-.06-.2-.14-.2-.18.04-.13.13-.25.2-.37Zm-.25 3.19-.31-.3c.19-.1.37-.23.58-.27.07-.02.18.17.28.26l-.56.3Zm.74 10.36c.42-.4.83-.4 1.25 0-.42.4-.83.4-1.25 0Zm5.91 1.38c-.07-.06-.2-.14-.2-.18.04-.13.13-.25.2-.37l.22.2-.22.35Zm2.49 0c-.07-.06-.2-.14-.2-.18.03-.13.13-.25.2-.37l.22.2-.22.35Zm.62-11.56-.22-.2.22-.35c.07.06.2.13.2.18-.04.13-.13.24-.2.37Zm1.86.55.22.2-.22.35c-.07-.06-.2-.14-.2-.18.04-.13.13-.25.2-.37Zm.03 9.62c-.1-.1-.28-.2-.27-.28.05-.2.18-.38.27-.57l.31.3-.3.55Zm3.91-2.47h-3.26c-.08 0-.16-.1-.24-.16 1.38-.94 1.5-.98 2.96-.94q.57.02.54 1.1Zm3.7-8.43c.07-.05.27-.06.29-.02.12.22.2.46.3.68.04.43-.07.84-.56.72-.47-.13-.46-1.06-.02-1.38Zm2 9.65c-.07.28-.23.48-.6.44-.38-.05-.8.11-1.29-.26.32-.28.56-.45.73-.66.24-.28.57-.23.82-.17.3.08.4.38.33.65Zm2.17-3.42c-.07-.12-.16-.24-.2-.37 0-.04.13-.12.2-.18.07.12.16.24.2.37 0 .05-.13.12-.2.18Zm.62-5.5c-.06-.12-.16-.24-.19-.37-.01-.05.13-.12.2-.18l.22.35-.23.2Zm.9-.67a7.76 7.76 0 0 1-2.87-1.72c-.49-.52.23-.04 1.25.31s1.34.11 1.05-.29c-.28-.38.9.15 2.24.2a4.31 4.31 0 0 1-1.67 1.5Zm3.1 10c-.1-.1-.29-.22-.27-.29.05-.2.17-.38.27-.57l.3.3-.3.55Zm.44-11.61-.4-.2c.07-.06.16-.18.2-.17.16.03.29.11.43.17l-.23.2Zm.54 6.13-.22-.2.22-.35c.07.06.2.14.2.18-.04.13-.13.25-.2.37Zm1.56 6.61c-.47-.03-.72-.25-.63-.68.06-.28.23-.46.61-.43.47.03.7.25.63.68-.09.27-.23.46-.61.43Zm24.63 10.92-.4-.2c.07-.05.16-.17.2-.16.15.02.29.1.42.17l-.22.2Zm14.26 27.1c.1.08.19.18.3.3l-.3.54c-.1-.1-.29-.2-.27-.28.04-.2.17-.38.27-.57Zm-1.6-14.63c.41-.4.82-.4 1.24 0-.42.4-.83.4-1.25 0Zm-6.72 45.58c.23-.28.84-.27 1.02.01 0 .06.02.14-.02.19-.23.27-.85.26-1.02-.02-.03-.04-.02-.14.02-.18Zm-1.87 1.1c.23-.27.85-.26 1.03.01 0 .06.02.14-.02.19-.23.27-.85.26-1.02-.02-.03-.04-.02-.14.01-.18Zm-.43 3.13.22.2-.22.35c-.07-.07-.2-.14-.2-.19.04-.12.13-.24.2-.36Zm-3.4 2.75c.17.06.34.12.5.2.03 0 .02.13-.01.17-.23.28-.92.28-1-.01-.1-.31.2-.39.51-.36Zm-2.2.54c-.19.03-.4 0-.6 0s-.42.05-.6 0c-.11-.05-.19-.23-.24-.36-.01-.03.13-.17.2-.17.4-.02.82-.03 1.22 0 .1.01.18.22.23.35.01.04-.12.17-.2.18Zm1.57 7.98c.3-.31.68-.39 1.02-.16.38.25.3.6.02.9-.5-.08-.7-.5-1.04-.74Zm1.55 2.75c-.07.01-.18-.18-.28-.27.2-.1.38-.22.58-.27.07-.01.19.17.28.27-.19.1-.37.22-.58.27ZM28.32 111.1c-.42.4-.83.4-1.25 0 .42-.4.83-.4 1.25 0Zm132-55.24.22.2c-.14.05-.27.13-.42.16-.05.01-.13-.1-.2-.17l.4-.2Zm-1.95-1.18c.07.12.16.24.19.36.01.05-.13.12-.2.19-.06-.13-.16-.25-.19-.37-.01-.05.13-.12.2-.18Zm-1.31.68c.32-.43 1.17-.41 1.42.02 0 .1.02.22-.03.28-.32.43-1.17.41-1.41-.02a.32.32 0 0 1 .02-.28ZM153.72 51c.06-.05.19-.02.29-.03.43.25.45 1.1.01 1.4a.33.33 0 0 1-.28.03c-.44-.24-.46-1.08-.02-1.4Zm-1.4-6.21.22.35-.22.2c-.07-.12-.16-.24-.2-.37 0-.04.13-.12.2-.18Zm-1.04 6.9c.1.1.29.21.27.28-.04.2-.17.38-.27.57l-.3-.3.3-.55Zm-30.34-2.62c.05-.28.22-.46.6-.43.47.03.7.25.63.68-.09.27-.23.46-.61.43-.47-.03-.71-.25-.62-.68Zm-1.92-1.31.3.3-.3.55c-.1-.1-.28-.21-.27-.28.05-.2.18-.38.27-.57Zm-7.95-.03c.24-.29.57-.23.82-.17.3.08.4.37.33.65-.06.28-.22.48-.6.43-.37-.05-.79.12-1.28-.25.32-.28.56-.45.73-.67Zm6.37-15.13c.07-.02.19.17.29.26-.2.1-.38.23-.58.27-.07.01-.2-.17-.29-.27.2-.1.38-.22.58-.26Zm-14.85 7.24.22.2-.22.35c-.07-.06-.2-.14-.2-.18.04-.13.13-.25.2-.37Zm.03 8.77.31.3-.3.55c-.1-.1-.3-.21-.28-.28.05-.2.18-.38.27-.57Zm-.65-5.2.3.3-.3.55c-.1-.1-.29-.2-.27-.28.04-.2.17-.38.27-.57Zm-.72-12.6c.07-.02.19.16.28.26-.19.1-.37.22-.58.27-.07.01-.18-.18-.28-.27.2-.1.38-.22.58-.27Zm-.52 7.93c.07.06.2.13.2.18-.04.12-.13.24-.2.36l-.22-.2.22-.35Zm-.62 11.55.22.2-.22.35c-.07-.06-.21-.13-.2-.18.03-.13.13-.24.2-.37Zm-2.49 0 .22.2-.22.35c-.07-.06-.2-.13-.2-.18.04-.13.13-.24.2-.37Zm-3.55-5c-.07-.06-.2-.13-.2-.18.04-.12.13-.24.2-.36l.22.2-.22.35Zm.1-3.77.21.2c-.13.06-.27.14-.41.17-.05.01-.14-.11-.2-.17l.4-.2Zm-1.34-5.58c.07.12.16.24.2.37 0 .04-.13.12-.2.18-.07-.12-.16-.24-.2-.37 0-.04.13-.12.2-.18Zm.13 13.53c-.42.4-.83.4-1.25 0 .42-.4.83-.4 1.25 0Zm-1.2-5.05c.07-.01.18.17.28.27-.2.1-.37.22-.58.26-.07.02-.19-.17-.28-.26.19-.1.37-.22.58-.27Zm-.8-10.98.31.3-.3.55c-.1-.1-.3-.21-.28-.28.05-.2.18-.39.27-.57Zm-3.94 2.61c.1.1.29.21.27.28-.05.2-.18.39-.27.57l-.3-.3.3-.55Zm-1.4 13.32c.23-.28.84-.27 1.02.01 0 .06.02.14-.01.19-.24.27-.85.26-1.03-.02-.03-.04-.02-.14.02-.18ZM81.99 23.8l-.22-.2c.14-.06.27-.14.42-.17.05-.01.13.1.2.17l-.4.2Zm2.35 16.8c-.07-.05-.2-.13-.2-.17.04-.13.13-.25.2-.37l.22.2-.22.35Zm.58-2.74c.12.09.2.21.3.32-.07.06-.17.18-.2.17a1.25 1.25 0 0 1-.36-.25c-.05-.05-.05-.2 0-.23.05-.05.2-.05.26 0Zm-.28-.24c.05.05.05.19 0 .23-.04.04-.17 0-.27 0-.1-.1-.3-.27-.27-.31.22-.33.4-.1.55.08Zm-.61-4.7.22.2-.22.35c-.07-.06-.2-.14-.2-.18.04-.13.13-.25.2-.37Zm.03 4.77c.1.2.23.37.27.57.02.07-.17.19-.27.28-.1-.19-.23-.37-.27-.57-.02-.07.17-.18.27-.28Zm-2.02-7.36c.24-.44 1.1-.45 1.42-.02.05.06.02.19.03.28-.25.43-1.1.45-1.42.02a.32.32 0 0 1-.02-.28Zm-.72 16.23.3.55-.3.3c-.1-.19-.22-.37-.27-.57-.01-.07.18-.18.27-.28Zm-3.96-2.03c.5.07.7.5 1.05.74-.29.31-.67.39-1.02.17-.4-.25-.3-.6-.03-.9ZM76 45.55c-.08.02-.2-.17-.29-.27.2-.1.38-.22.58-.26.07-.02.19.17.28.26-.19.1-.37.23-.57.27Zm.27-1.67-.56-.3c.1-.1.21-.28.29-.26.2.04.38.17.57.26l-.3.3Zm-.3-11.65c.05 0 .14.12.2.18l-.4.2-.22-.2c.14-.06.27-.15.42-.18Zm-3.55 3.53c.15.03.28.1.42.17l-.22.2-.4-.2c.07-.06.15-.18.2-.17Zm-.07 2 .3.54-.3.3c-.1-.18-.23-.36-.27-.56-.02-.07.17-.19.27-.28Zm-.61 8.48-.23.2c-.07-.12-.16-.24-.19-.37-.01-.04.13-.12.2-.18l.21.36Zm-.45-6.18.22.2-.22.35c-.07-.06-.2-.14-.2-.18.04-.13.13-.25.2-.37Zm-1.53-1.45c.1.19.22.37.27.57.01.07-.18.18-.27.28-.1-.2-.23-.37-.27-.57-.02-.07.17-.19.27-.28Zm-.72 1.86c.07-.02.2.17.29.26-.2.1-.38.23-.58.27-.07.02-.2-.17-.29-.27.2-.1.38-.22.58-.26Zm-1.9 10.41c0 .05-.13.12-.2.18-.07-.12-.17-.24-.2-.36 0-.05.13-.12.2-.19.07.13.16.25.2.37Zm-.5-4.89c.06 0 .14.11.21.18-.14.06-.27.14-.42.17-.05 0-.13-.11-.2-.18.14-.06.27-.14.42-.17Zm-3.87-2.33c.2.05.4.17.58.27l-.3.3-.56-.3c.1-.1.21-.29.28-.27Zm-5.89 2.4c.62.56.62 1.13 0 1.7-.62-.57-.62-1.14 0-1.7Zm-9.37 10.33.31.3c-.2.1-.38.23-.58.27-.07.02-.19-.17-.28-.27l.55-.3Zm-7.18 6.85c.07-.05.2-.02.29-.03.43.25.45 1.1.02 1.4a.33.33 0 0 1-.29.03c-.44-.24-.45-1.08-.02-1.4Zm-2.49 2.37c.35-.19.62-.54.92-.81.66 1.48.57 1.67-.84 1.68-.28 0-.56.03-.83-.01-.12-.01-.21-.16-.34-.26-.01-.88.73-.4 1.1-.6ZM26.67 79.25l.31.55-.3.3c-.1-.19-.23-.37-.27-.57-.02-.07.17-.19.27-.28Zm-6.9 16.17c-.1-.1-.28-.21-.27-.28.05-.2.18-.38.27-.57l.3.3-.3.55Zm.86 6.8-.3-.3.3-.54c.1.1.29.2.27.28-.04.2-.17.38-.27.57Zm.02 17.52c.05 0 .14.12.2.18l-.4.2-.22-.2c.14-.07.28-.15.42-.18Zm-4.03 6.15c.1-.3.78-.3 1.01-.02.04.05.04.17.02.18-.17.08-.34.13-.5.2-.32.02-.62-.05-.53-.36Zm-4.96 9.61.3.3-.3.55c-.1-.1-.29-.2-.27-.28.05-.2.17-.38.27-.57Zm-1.04-2.57c.1.1.29.2.27.28-.04.2-.17.38-.27.57l-.3-.3.3-.55Zm-2.53 6.1.55.3c-.1.1-.21.28-.28.27-.2-.05-.4-.17-.58-.27l.3-.3Zm-.74 3.28.3.3-.3.55c-.1-.1-.29-.2-.27-.28.04-.2.17-.38.27-.57Zm-1.73 8.51c-.1-.1-.29-.2-.27-.28.04-.2.17-.38.27-.57l.3.3-.3.55Zm-.02-5.8.4.2c-.07.06-.15.18-.2.17-.15-.03-.28-.11-.42-.17l.22-.2Zm-.21 1.57c.36 0 .57.14.61.42.07.44-.16.66-.63.69-.38.03-.55-.16-.6-.43-.1-.43.15-.68.62-.68Zm-2.04 13.6c-.18.27-.8.28-1.02 0-.04-.04-.05-.13-.02-.18.17-.28.8-.3 1.02-.01.04.04.02.12.02.18Zm-.52-3.4c.41-.4.83-.4 1.24 0-.41.4-.83.4-1.24 0Zm1.84 9.88c-.23.27-.91.28-1-.02-.1-.3.2-.38.52-.35.16.06.34.11.5.19.02.01.02.14-.02.18Zm2.26 3.59a27.4 27.4 0 0 1-.22-.2c.14-.06.27-.14.42-.17.05-.01.13.11.2.17l-.4.2Zm2.15 1.32-.4-.2c.07-.05.16-.17.2-.16.15.02.29.1.42.17l-.22.2Zm3.32 3.07c-.07-.12-.16-.24-.19-.37-.01-.04.12-.12.2-.18l.21.36-.22.2Zm.21-3.17-.4-.2c.07-.06.15-.18.2-.17.15.03.28.11.42.17l-.22.2Zm.42 2.07c-.07-.12-.17-.24-.2-.37-.01-.04.13-.12.2-.18l.22.36c-.09.07-.16.13-.22.2Zm3.89 1.05-.31-.3.3-.55c.1.1.3.2.28.28-.05.2-.18.38-.27.57Zm1.55 1.33-.4-.2c.07-.06.16-.18.2-.17.15.03.29.11.42.18l-.22.2Zm3.63-1.3c.41-.4.83-.4 1.24 0-.41.39-.83.39-1.24 0Zm19.25-.06c-.1-.1-.29-.21-.27-.28.04-.2.17-.38.27-.57l.3.3-.3.55Zm11.52-1.54-.22-.36.22-.2c.07.13.16.25.2.38 0 .04-.13.12-.2.18Zm3.15.69c-.1-.19-.23-.37-.27-.57-.02-.07.17-.19.27-.28.1.19.22.37.27.57.01.07-.18.18-.27.28Zm13.8.9c-.09-.1-.28-.21-.26-.28.04-.2.17-.39.27-.57l.3.3-.3.55Zm1.6-1.35c-.1-.02-.15-.29-.22-.44h-.27c-.1-.1-.3-.27-.27-.31.22-.34.4-.1.54.07.04.06 0 .16 0 .24h.63c.02.27-.04.51-.42.44Zm.99-.45c-.2-.05-.66.27-.57-.24.02-.12.26-.22.42-.3.07-.03.19 0 .28 0 .16.08.46.17.45.23-.05.26-.3.39-.58.31Zm2.21.01-.22-.35.22-.2c.07.12.16.24.2.37 0 .04-.13.12-.2.18Zm3.74 1.43c-.05.01-.13-.1-.2-.17.14-.06.27-.14.42-.17.05 0 .13.11.2.17-.14.06-.27.15-.42.17Zm2.6 1.2c-.07-.11-.17-.23-.2-.36-.01-.05.13-.12.2-.18l.22.35-.23.2Zm8.9-2.38c-.17.27-.79.28-1.02.01-.03-.04-.04-.14-.01-.18.17-.28.79-.3 1.02-.02.04.05.01.13.02.19Zm15.64 2.04c-.22.12-.47.2-.7.3-.42.04-.85-.07-.72-.55.13-.46 1.08-.45 1.4-.03.05.07.06.26.02.28Zm2.2-.3-.32-.3.31-.56c.1.1.29.21.27.28-.04.2-.17.39-.27.57Zm1.23.65c-.07-.12-.17-.24-.2-.37 0-.05.13-.12.2-.18l.22.35-.22.2Zm.4-2.55c-.06.01-.14-.1-.21-.17.14-.06.27-.14.42-.17.05-.01.13.11.2.17-.14.06-.27.15-.42.17Zm11.29 2.48c-.07-.06-.2-.14-.2-.18.04-.13.13-.25.2-.37l.22.2-.22.35Zm.78.1c-.1-.19-.25-.36-.3-.56-.02-.07.16-.2.25-.3l.34.54-.3.32Zm11.14.76c-.07.02-.2-.16-.3-.25l.54-.33.32.28c-.18.11-.36.25-.56.3Zm2-1.63-.42-.17c.07-.07.15-.2.2-.18.15.02.28.1.42.15l-.2.2Zm8.4-1.54c-.11-.18-.25-.36-.31-.55-.02-.07.16-.2.25-.3.11.19.25.36.3.56.02.07-.16.2-.25.3Zm1.84 1.71c-.09.22-.37.37-.83.8l-.14-2.52c.8-.26.96.44 1.35.7 1.05.71-.25.68-.38 1.02Zm1.34.47c-.37-.07-.68-.33-.6-.8.38-.02.79-.11 1.16-.04.37.07.67.33.6.8-.38.02-.79.11-1.16.04Zm1.47.62a.57.57 0 0 1-.28-.27c-.17-.38-.04-.5.38-.42.36.08.75.1 1.12.18.06 0 .1.17.15.26-.07.37-.77.5-1.37.25Zm9.04 6.04c-.1-.19-.22-.37-.27-.57-.01-.07.18-.19.27-.28.1.19.23.37.27.57.02.07-.17.18-.27.28Zm1.73.85c-.1-.1-.29-.21-.27-.28.05-.2.17-.38.27-.57l.3.3-.3.55Zm3.58 2.43-.56-.3c.1-.1.21-.28.29-.27.2.05.38.17.57.27l-.3.3Zm1.96.42-.3-.3.3-.55c.1.1.28.21.27.28-.05.2-.17.38-.27.57Zm1.3-.42c.57-.61 1.15-.61 1.72 0-.57.6-1.15.6-1.73 0Zm9.22 2.84c-.7-.13-.97-.77-1.44-1.16.4-.47.93-.6 1.4-.24.54.38.43.91.04 1.4Zm1.87-3.03c-.06.01-.14-.1-.2-.17l.4-.2.21.2c-.14.06-.27.14-.41.17Zm10.98 10.29c.41-.4.83-.4 1.24 0-.41.4-.83.4-1.24 0Zm19.25-1.49c-.1-.1-.29-.2-.27-.28.04-.2.17-.38.27-.57l.3.3-.3.55Zm10.35 2.56c-.1-.2-.22-.38-.27-.58-.01-.07.18-.18.27-.28.1.2.23.37.27.57.02.07-.17.19-.27.28Zm19.2.56c-.1-.1-.3-.21-.28-.28.05-.2.18-.38.27-.57l.3.3-.3.55Zm1.58-1.35c-.1-.02-.15-.28-.21-.43h-.28c-.1-.11-.3-.28-.27-.32.22-.33.4-.1.54.07.04.06 0 .16 0 .25h.63c.02.26-.04.5-.41.43Zm1-.45c-.2-.05-.67.27-.57-.24.02-.11.25-.21.41-.29.07-.03.19 0 .29 0 .15.07.45.17.44.22-.04.27-.3.4-.58.31Zm2.2.02-.22-.36.22-.2c.07.13.17.24.2.37.01.05-.13.12-.2.18Zm.3-1.95c1-.72 1.33.2 1.9.59-1 .72-1.33-.2-1.9-.6Zm29.52 1.16c-.22.12-.47.2-.7.3-.43.04-.85-.07-.72-.55.13-.46 1.08-.45 1.4-.02.05.06.06.25.02.27Zm15.12.11c-.07-.06-.2-.13-.2-.18.04-.13.13-.25.2-.37l.22.2-.22.35Zm.78.1c-.1-.18-.24-.36-.3-.56-.02-.07.16-.2.25-.29l.34.53-.3.32Zm8.96.94c-.3.44-1.24.5-1.4.05-.15-.47.27-.6.7-.59.23.08.48.16.7.26.04.02.05.21 0 .28Zm2.18 0c-.07.01-.2-.17-.3-.26l.54-.33.32.29c-.18.1-.36.24-.56.3Zm2-1.64-.42-.17c.07-.07.15-.19.2-.18.15.02.28.1.42.15l-.2.2Zm6.86-3.42c-.11-.19-.25-.36-.3-.56-.02-.07.16-.2.25-.3.1.19.24.36.3.56.02.07-.16.2-.25.3Zm1.3-1.78c-.08.22-.36.36-.82.8l-.14-2.53c.8-.25.95.44 1.34.7 1.06.71-.25.68-.38 1.02Zm2.84-15.72a1.25 1.25 0 0 1-.36-.25c-.05-.05-.05-.2 0-.24.05-.04.2-.04.26 0 .12.09.2.21.3.32-.07.06-.17.18-.2.17Zm1.96-5.52c.1.19.23.37.27.57.02.07-.17.18-.27.28-.1-.19-.22-.37-.27-.57-.01-.07.18-.19.27-.28Zm-1.1 8.6c.64-.46 1.26-.46 1.89 0-.63.46-1.25.46-1.88 0Z" class="e"/><path d="m198.26 28.55-.7-.2a113.33 113.33 0 0 0-8.95-2.08c-5.1-.97-10.29-1.6-15.48-1.92a99.59 99.59 0 0 0-10.67-.1c-4.97.24-9.93.89-14.78 2.06-4.17 1-8.14 2.45-12.04 4.24l-.08.04a2.34 2.34 0 0 0-1.01 3.08 2.2 2.2 0 0 0 3 1.05l.1-.05a62.06 62.06 0 0 1 12.11-4.68 77.46 77.46 0 0 1 15.27-2.43c5.28-.34 10.58-.2 15.85.26a117.52 117.52 0 0 1 16.2 2.5l.67.16h.02a.97.97 0 0 0 1.17-.7 1 1 0 0 0-.68-1.23Z" style="fill:#84c5ec;stroke-width:0"/><path d="M151.56 25.65v-.03l-.14-3.45c-.04-1.12-.17-4.33-.17-5.24 0-.9.02-3.58-.44-3.97-.27-.23-.6-.24-.96-.22a2 2 0 0 0-.97.3.8.8 0 0 0-.41.75c.13 4.03-.18 4.66-.27 5.08-.1.42-.62 2.01-.75 2.3-.13.3-.27.43-.43.37-.15-.05-.26-.4-.31-1.06-.05-.66-.07-1.46-.06-2.4v-3.64c.02-1.08.02-2.1.02-3.03 0-.32-.15-.55-.49-.7-.33-.16-.69-.2-1.07-.15-.39.06-.74.22-1.05.47-.3.26-.46.65-.45 1.18l.14 3.15a87.31 87.31 0 0 0 .29 4.96c.07.73.15 1.3.25 1.74a2.9 2.9 0 0 0 1.49 1.88c.34.17.68.23 1.03.2.34-.05.64-.22.88-.52.43-.56.76-1.25.97-2.04 0 1.02.03 2.16.06 3.29l.01.76a163.36 163.36 0 0 1 .06 5.07V32.52c-.01.56.14.86.47.92.33.06.68-.05 1.07-.32a3.7 3.7 0 0 0 1.04-1.21c.3-.54.43-1.13.4-1.78a42.44 42.44 0 0 1-.08-1.65l-.13-2.83ZM136.98 26.48c.67.46 1.39.6 2.16.38.82-.17 1.47-.73 1.94-1.68s.82-2.09 1.05-3.4c.23-1.32.36-2.76.4-4.32a73.15 73.15 0 0 0-.25-8.08c-.1-1.06-.16-1.75-.17-2.07-.04-.53-.21-.92-.52-1.17-.3-.25-.6-.36-.9-.32-.3.05-.58.23-.82.56-.24.33-.32.76-.24 1.28a53 53 0 0 1 .3 3.21c.12 1.57.22 3.2.3 4.9.08 1.7.08 3.22.01 4.54-.07 1.33-.28 2-.61 2.06-.34.04-.73-.38-1.17-1.29-.45-.9-.86-2.05-1.24-3.44-.38-1.4-.7-2.93-.97-4.6a22.42 22.42 0 0 1-.28-4.79c0-.48-.22-.78-.68-.9a2.6 2.6 0 0 0-1.51.08c-.55.19-1.04.55-1.48 1.1a3.03 3.03 0 0 0-.57 2.17c.2 3.4.72 6.51 1.56 9.34a51.7 51.7 0 0 1-.34 3.9c-.15 1.1-.37 1.67-.67 1.7-.34.06-.72-.57-1.15-1.88-.42-1.3-.82-2.9-1.2-4.78a68.76 68.76 0 0 1-.9-5.9 36.64 36.64 0 0 1-.27-5.26c.05-.5-.16-.8-.63-.96a2.4 2.4 0 0 0-1.52.05 3.4 3.4 0 0 0-1.5 1.1 2.96 2.96 0 0 0-.6 2.17 64.02 64.02 0 0 0 2.28 13.43c.6 2 1.33 3.64 2.17 4.91.84 1.28 1.78 1.82 2.83 1.62.85-.23 1.54-.86 2.08-1.9s.96-2.33 1.27-3.88a6.8 6.8 0 0 0 1.84 2.12ZM160.05 19.88a8.36 8.36 0 0 0 .28-5.56 5.48 5.48 0 0 0-1.3-2.27 3.64 3.64 0 0 0-2.33-1.08c-.82-.09-1.54.14-2.14.68-.61.55-1.1 1.25-1.48 2.1a9.27 9.27 0 0 0-.53 5.72c.23.9.64 1.65 1.24 2.27.6.62 1.4.94 2.42.98a3.3 3.3 0 0 0 2.32-.77c.48-.4.89-.9 1.21-1.46l.04-.07.27-.54Zm-2.02-3.05c.01.7-.03 1.33-.11 1.91a4.24 4.24 0 0 1-.42 1.4c-.2.36-.45.51-.75.47-.35-.04-.64-.27-.85-.69a5.28 5.28 0 0 1-.49-1.5 11.05 11.05 0 0 1 0-3.75c.1-.57.25-1.04.45-1.41.2-.37.43-.55.7-.54.3 0 .56.22.78.64.21.41.38.92.5 1.53.12.6.18 1.25.2 1.94ZM164.07 21.72a3.28 3.28 0 0 0 2.97-.57c1.14-.9 1.97-1.95 2.59-2.95.1.23.2.46.32.68.48.89 1.18 1.83 2.28 2.3.98.43 1.9.5 2.76.23a5.89 5.89 0 0 0 2.3-1.71 7 7 0 0 0 1.43-2.53c.33-1 .46-2 .42-3.03a6.6 6.6 0 0 0-.8-2.87 5.08 5.08 0 0 0-2.26-2.1 3.06 3.06 0 0 0-2.52-.24c-.82.3-1.55.8-2.19 1.5a8.26 8.26 0 0 0-1.75 3.11c-.24.74-.51 1.46-.86 2.14-.82 1.6-1.9 3.34-2.94 3.35-.34 0-.51-.6-.5-1.52 0-3 .58-5.96 1.32-8.84.64-2.47 1.07-4.15 2-6.52.18-.43.09-.83-.26-1.22a2.87 2.87 0 0 0-1.3-.8 2.43 2.43 0 0 0-1.5-.01c-.49.16-.73.6-.88 1.26-.28 1.24-1.34 3.94-2.34 10.1a31.52 31.52 0 0 0-.49 4.42 14.88 14.88 0 0 0 .46 3.91c.33 1.09.82 1.62 1.74 1.9Zm8.56-5.52c.05-.65.17-1.31.36-2 .2-.7.42-1.3.68-1.83.27-.54.55-.95.87-1.24.31-.3.62-.38.91-.25.33.14.55.47.68 1 .12.51.16 1.1.13 1.77a11.26 11.26 0 0 1-.98 3.96c-.25.56-.53.97-.84 1.25-.31.28-.63.33-.94.16-.38-.2-.63-.56-.75-1.08a5.81 5.81 0 0 1-.12-1.75ZM204.56 14.5a5.02 5.02 0 0 0-2.42-2.42 3.54 3.54 0 0 0-2.95-.21c-1 .36-1.92.97-2.76 1.8-.48.49-.91 1.02-1.3 1.61-.32.48-.65.94-1 1.38l-.2.25c-.44.56-.92 1.14-1.44 1.71a22 22 0 0 1-1.45 1.5c-.46.43-.78.62-.96.56-.21-.06-.25-.47-.12-1.22.14-.75.37-1.67.7-2.77.32-1.1.7-2.26 1.12-3.48.43-1.23.89-2.34 1.33-3.5l1.41.42c.5.14.92.16 1.25.04.34-.11.59-.47.65-.72.07-.25 0-.52-.2-.81-.22-.3-.62-.53-1.21-.7l-1.13-.33.53-1.06c.24-.5.22-.97-.05-1.4a2.15 2.15 0 0 0-1.1-.92 1.93 1.93 0 0 0-1.43.04c-.49.2-.84.7-1.05 1.49-.05.16-.1.35-.18.56-.07.21-.1.27-.16.5l-1.26-.37h-.02a3.85 3.85 0 0 0-.3-.1l-1.95-.54.58-1.22c.24-.5.22-.98-.05-1.41a2.15 2.15 0 0 0-1.1-.92 1.93 1.93 0 0 0-1.43.04c-.49.2-.84.7-1.05 1.5-.05.16-.1.35-.18.56a9.3 9.3 0 0 0-.2.66L182 4.65c-.6-.17-1.07-.19-1.4-.06-.33.12-.51.3-.56.54-.05.24.04.5.27.77.23.28.61.49 1.15.64l1.37.33c-.32.95-.68 1.98-1.08 3.1-.4 1.11-.76 2.23-1.1 3.35a47.68 47.68 0 0 0-.85 3.3 16.3 16.3 0 0 0-.4 2.9c-.03.88.08 1.62.32 2.22.24.61.66 1 1.26 1.18.9.26 1.78.12 2.64-.41a15 15 0 0 0 2.66-2.63c.19-.21.37-.43.54-.65l-.04.74c0 .76.12 1.4.37 1.95.25.53.66.89 1.24 1.05.88.26 1.72.17 2.52-.28a9.1 9.1 0 0 0 2.24-1.76l.06-.06c-.02.96.17 1.88.56 2.74a4.66 4.66 0 0 0 2.56 2.34c1.1.48 2.18.54 3.23.2a6.92 6.92 0 0 0 2.8-1.76 10.37 10.37 0 0 0 2.82-6.55 7.1 7.1 0 0 0-.62-3.35Zm-15.76-2.81c-.25.67-.48 1.33-.7 2v.03a6.4 6.4 0 0 1-1.1 2.12c-.48.67-1 1.34-1.55 2.02-.55.68-1.14 1.2-1.63 1.7s-.82.73-1.01.67c-.22-.06-.25-.53-.09-1.4.17-.86.43-1.92.8-3.2a103.9 103.9 0 0 1 2.67-7.88l2.14.66.3.1 1.12.33c-.32.94-.6 1.88-.95 2.84Zm13.03 5.64a14.86 14.86 0 0 1-1.61 4.67 5.21 5.21 0 0 1-1.14 1.48c-.4.34-.78.4-1.13.2-.42-.21-.68-.63-.76-1.23-.09-.61-.06-1.29.07-2.04a13.58 13.58 0 0 1 1.67-4.51c.37-.63.76-1.12 1.16-1.48.4-.35.78-.45 1.12-.31.36.16.59.54.67 1.14.09.6.07 1.3-.05 2.08Z" class="d"/></g></svg>