<svg xmlns="http://www.w3.org/2000/svg" id="b" viewBox="0 0 263.7 170.7"><defs><style>.d{fill:#007ec3}.d,.e,.g,.h,.i{stroke-width:0}.e{fill:#3d361b}.g{fill:#fff}.h{fill:#f8d609}.i{fill:#3d2d1c}</style></defs><g id="c"><path d="m173 34.9-.9-.3a96.4 96.4 0 0 0-10.9-2.5 151.8 151.8 0 0 0-32-2.5 80.4 80.4 0 0 0-32.8 7.7c-1.3.7-1.9 2.4-1.2 3.8.6 1.4 2.3 2 3.6 1.3h.2c4.7-2.5 9.6-4.4 14.8-5.8a94.6 94.6 0 0 1 18.6-3 143.5 143.5 0 0 1 39.1 3.4l.8.2c.7.2 1.3-.2 1.5-.8.2-.7-.2-1.4-.8-1.5Z" style="fill:#84c5ec;stroke-width:0"/><path d="m116 31.3-.2-4.2-.2-6.4c0-1.1 0-4.4-.6-4.9-.3-.3-.7-.3-1.1-.2-.5 0-.9 0-1.2.3a1 1 0 0 0-.5 1c.1 4.9-.2 5.6-.4 6.1 0 .6-.7 2.5-.9 2.9-.1.3-.3.5-.5.4-.2 0-.3-.5-.4-1.3V14c0-.4-.2-.6-.6-.8-.4-.2-.9-.3-1.3-.2-.5 0-1 .3-1.3.6-.4.3-.6.8-.6 1.4a164.5 164.5 0 0 1 .3 7 80.2 80.2 0 0 0 .6 5c.1.6.3 1 .7 1.4l1.1 1 1.2.2c.5 0 .8-.3 1.1-.7a7 7 0 0 0 1.2-2.5 236.8 236.8 0 0 0 .2 11.2v2.2c0 .7.1 1 .5 1.1.4.1.9 0 1.3-.4.5-.3 1-.8 1.3-1.4.4-.7.6-1.4.5-2.2a84 84 0 0 1-.2-5.5ZM98.2 32.3a3 3 0 0 0 2.6.5c1-.2 1.8-.9 2.4-2a15 15 0 0 0 1.2-4.2 88.9 88.9 0 0 0 0-17.7c0-.6-.2-1.1-.6-1.4-.4-.3-.8-.4-1.1-.4-.4 0-.7.3-1 .7a2 2 0 0 0-.3 1.5l.4 4a213.4 213.4 0 0 1 .3 11.5c0 1.6-.3 2.5-.7 2.5-.4 0-1-.5-1.4-1.6-.6-1-1-2.5-1.6-4.2A53.4 53.4 0 0 1 97 10.1c0-.6-.3-1-.8-1.1-.6-.2-1.2-.1-1.9 0a4 4 0 0 0-1.8 1.4c-.5.7-.7 1.6-.7 2.7.3 4.1 1 8 2 11.4a64 64 0 0 1-.5 4.7c-.2 1.4-.4 2-.8 2.1-.4 0-.9-.7-1.4-2.3a52.4 52.4 0 0 1-2.6-13l-.3-6.5c0-.6-.2-1-.8-1.1a3 3 0 0 0-1.8 0c-.7.3-1.3.7-1.9 1.4-.5.6-.8 1.5-.7 2.6a77.8 77.8 0 0 0 2.8 16.4 23 23 0 0 0 2.7 6c1 1.6 2.1 2.2 3.4 2 1-.3 1.9-1 2.6-2.3a18 18 0 0 0 1.5-4.8c.7 1.2 1.4 2 2.2 2.6ZM126.3 24.3a10.2 10.2 0 0 0 .3-6.8c-.3-1.1-.8-2-1.5-2.8a4.4 4.4 0 0 0-2.9-1.3c-1-.1-1.9.2-2.6.8-.7.7-1.3 1.6-1.8 2.6a11.3 11.3 0 0 0-.6 7c.2 1 .7 2 1.5 2.7.7.8 1.7 1.2 3 1.2a4 4 0 0 0 2.8-.9c.6-.5 1-1 1.4-1.8l.4-.7Zm-2.4-3.7c0 .8 0 1.6-.2 2.3 0 .7-.3 1.3-.5 1.7-.2.4-.5.6-1 .6-.3 0-.7-.4-1-.9l-.5-1.8a12.5 12.5 0 0 1 .5-6.3c.2-.5.5-.7.9-.7.3 0 .6.3 1 .8a13 13 0 0 1 .8 4.2ZM131.2 26.5a4 4 0 0 0 3.7-.7 14 14 0 0 0 3.1-3.6l.4.8a6 6 0 0 0 2.8 2.9c1.2.5 2.3.6 3.4.2 1-.3 2-1.2 2.8-2a10.2 10.2 0 0 0 2.2-6.8 8 8 0 0 0-1-3.5c-.5-1.1-1.5-2-2.7-2.6-1-.6-2.1-.7-3-.3-1 .4-2 1-2.8 1.8a10 10 0 0 0-2.1 3.8l-1 2.6c-1 2-2.4 4.1-3.6 4.1-.5 0-.7-.7-.7-1.8 0-3.7.8-7.3 1.7-10.8.7-3 1.3-5 2.4-8 .2-.5.1-1-.3-1.5-.4-.4-1-.8-1.6-1a3 3 0 0 0-1.8 0c-.6.2-1 .8-1.1 1.6-.3 1.5-1.6 4.8-2.9 12.3l-.6 5.4a18.2 18.2 0 0 0 .6 4.8c.4 1.3 1 2 2.1 2.3Zm10.5-6.7A12.3 12.3 0 0 1 143 15c.3-.6.6-1.2 1-1.5.4-.4.8-.5 1.1-.3.4.2.7.6.8 1.2.2.6.2 1.4.2 2.2a13 13 0 0 1-1.2 4.8c-.3.7-.6 1.2-1 1.5-.4.4-.8.4-1.2.2-.4-.2-.7-.7-.9-1.3a7 7 0 0 1-.1-2.1ZM180.7 17.7a6.1 6.1 0 0 0-3-3 4.3 4.3 0 0 0-3.6-.2 9.3 9.3 0 0 0-3.4 2.2l-1.6 2c-.3.5-.7 1.1-1.2 1.6l-.2.3a45.2 45.2 0 0 1-3.5 4c-.6.5-1 .7-1.2.7-.3-.1-.3-.6-.2-1.5l.9-3.4c.4-1.4.8-2.8 1.4-4.3l1.6-4.2 1.7.5c.6.1 1.1.2 1.5 0 .4-.1.7-.6.8-.9.1-.3 0-.6-.2-1-.3-.3-.8-.6-1.5-.8l-1.4-.4.7-1.3c.3-.6.2-1.2 0-1.7-.4-.6-.9-1-1.4-1.1-.6-.2-1.2-.2-1.8 0-.6.3-1 .9-1.3 1.8 0 .2 0 .5-.2.7l-.2.6L162 8l-.4-.1L159 7l.7-1.5c.3-.6.3-1.2 0-1.7-.4-.6-.8-1-1.4-1.1-.5-.2-1.1-.2-1.7 0-.6.3-1 .9-1.3 1.8l-.2.7-.3.8-1.8-.4c-.7-.2-1.3-.3-1.7-.1-.4.2-.6.4-.7.7 0 .3 0 .6.4 1 .2.2.7.5 1.4.7l1.6.4a244.4 244.4 0 0 1-2.6 7.9 57.7 57.7 0 0 0-1.6 7.5c0 1.1.1 2 .4 2.8.3.7.8 1.2 1.6 1.4 1 .3 2.2.1 3.2-.5a18.3 18.3 0 0 0 4-4l-.1.9c0 1 .1 1.7.4 2.4.3.6.8 1 1.5 1.3 1 .3 2.1.2 3.1-.4 1-.5 1.9-1.2 2.7-2.1l.1-.1c0 1.2.2 2.3.7 3.3a5.7 5.7 0 0 0 3.1 2.9c1.4.6 2.7.7 4 .2a8.4 8.4 0 0 0 3.4-2.1 12.7 12.7 0 0 0 3.4-8c0-1.5-.2-2.8-.7-4.1Zm-19.3-3.4-.8 2.4a7.8 7.8 0 0 1-1.4 2.6l-1.9 2.5c-.6.8-1.4 1.5-2 2-.6.7-1 1-1.2.9-.3 0-.3-.6-.1-1.7l1-4a126.4 126.4 0 0 1 3.2-9.5l2.6.8h.4l1.4.5-1.2 3.5Zm16 6.9a16.2 16.2 0 0 1-3.4 7.5c-.5.4-1 .5-1.4.2-.5-.2-.8-.8-1-1.5l.1-2.5a15.5 15.5 0 0 1 3.5-7.3c.5-.4 1-.5 1.4-.4.4.2.7.7.8 1.4a9 9 0 0 1 0 2.6Z" class="d"/><path d="m259.7 52.2-43.5-2.8-1.3 19.7-1.2-20.8-39 2.3.1 1.2-34-2.7-1.8 22.6-.8-25.4L84.4 48l.1 3.1-36.7-1.2-.4 14.3-1.8-19.5-38.9 3.5 6 67.1 38.9-3.5-.2-2.8 35 1.1.1 3.7 53.8-1.7-.1-3.9 34.9 2.7 1.8-22.9 1.4 23.7 39-2.3v-.9l38.6 2.5 3.8-58.8z" class="i"/><path d="m257.4 50.1-43.5-2.8-1.1 17.7-1.1-18.8-39 2.3v1.2l-34-2.6-1.7 22.6-.8-25.5-53.8 1.7.1 3.1-36.7-1.1-.5 14.3-1.8-19.5-38.9 3.5 6.1 67.1 38.9-3.6-.3-2.8 35.1 1.1.1 3.7 53.7-1.7-.1-3.9 35 2.7 1.8-22.8 1.4 23.7 39-2.3-.1-1 38.4 2.5 3.8-58.8z" class="h"/><path d="M41.7 85.6 34.9 84c-1.2-.3-2.1.4-2.3 1.7-.4 2.7-1.3 4.3-4.6 4.3-4.4 0-4.7-2.8-4.7-7.4V74c0-4.6.3-7.4 4.7-7.4 3.3 0 4.3 1.5 4.6 4.2.2 1.2 1.2 2 2.4 1.8l6.7-1.5c.8-.2 1.3-.8 1.3-1.7-.3-4.6-2.2-13.1-15-13.1C14 56.4 13 67 13 70.9v3.6l-3.6 3.7c-.1 0-.1.3 0 .4l3.6 3.6V86c0 4 .9 14.5 15 14.5 12.8 0 14.7-8.6 15-13.1 0-.9-.5-1.6-1.3-1.7ZM82.8 78.3l-3.6-3.6V71c0-4-.8-14.5-15-14.5s-15 10.6-15 14.5v3.8l-3.4 3.5c-.2.1-.2.3 0 .4l3.4 3.5V86c0 4 .8 14.5 15 14.5s15-10.6 15-14.5v-3.7l3.6-3.6c.1 0 .1-.3 0-.4ZM69 82.8c0 4.6-.3 7.4-4.7 7.4s-4.7-2.8-4.7-7.4v-8.6c0-4.6.3-7.4 4.7-7.4s4.7 2.8 4.7 7.4v8.6ZM131.3 57.1l-7 .2c-1.1 0-1.9.6-2 1.6l-2.8 25c0 .6-.5.6-.7 0l-4.6-24.8c-.2-1-1-1.5-2-1.5l-5.2.2c-1 0-1.8.5-2 1.6l-3.3 25c0 .6-.5.6-.7 0l-4-24.8c-.2-1-1-1.6-2-1.5l-7.2.2c-1.2 0-1.8.7-1.5 2l3.6 16.3-2.3 2.4v.4l3.6 3.4 3.4 15.6c.2 1 1 1.5 2 1.5l8.5-.2c1 0 1.7-.6 1.9-1.6l2.9-14.8c.1-.6.6-.6.7 0l3.7 14.6c.3 1 1 1.5 2 1.5l8.4-.2c1.1 0 1.8-.6 2-1.6l2.6-15.7 3.4-3.6v-.5l-2.4-2.3 2.7-16.4c.2-1.3-.4-2-1.7-2ZM167.8 81.6c2.7-2.5 3.6-6.4 3.8-8.4.7-9.8-3.2-14.7-14.4-15.5l-12.5-1c-1.2 0-1.9.5-2 1.7l-1.2 15.2-3.8 3.3c-.2 0-.2.3 0 .4l3.2 4-1.2 15.2c0 1.1.5 1.8 1.7 1.9l14.7 1.2c11.2.8 14.8-2.5 15.4-9.9.2-3.7-1.3-6.8-3.7-8.1Zm-15.6-12.2c0-1.2.8-1.8 2-1.7l3.1.3c2.9.2 4.3.7 4 4.4-.3 3.7-1.7 4-4.6 3.7l-3.2-.3c-1.2 0-1.8-.7-1.7-1.9l.4-4.5ZM156 91l-3.8-.3c-1 0-1.7-.7-1.6-1.9l.2-2.7c.1-1.2.8-1.8 2-1.7l3.8.3c2.9.3 4.2.8 4 3.6-.3 2.8-1.7 3-4.6 2.7ZM213 77.3l-3.8-3.4-.2-3.7c-.2-4-1.6-14.4-15.8-13.7-14.1.8-14.4 11.4-14.2 15.4l.2 3.6-3.4 3.8v.5l3.8 3.4.2 3.6c.2 4 1.7 14.5 15.8 13.7 14.2-.8 14.4-11.4 14.2-15.3l-.2-3.7 3.4-3.8c.1-.1.1-.3 0-.4Zm-13.6 5.3c.2 4.6 0 7.4-4.4 7.6s-4.8-2.5-5-7.1l-.5-8.6c-.3-4.6-.2-7.4 4.3-7.7s4.8 2.6 5 7.2l.6 8.6ZM251.6 58.8l-8.6-.6c-1 0-1.7.3-2 1.2l-5.3 10.8c-.3.5-.6.5-.8 0l-3.7-11.5c-.2-1-.9-1.4-1.9-1.5l-8.6-.6c-1.3-.1-2 .7-1.5 2l6.3 17.3-1.9 1.6v.5l4.7 5.4v.5l-1 13.3c0 1.2.6 1.9 1.7 2l8.4.5c1.1.1 1.8-.5 1.9-1.6l1-13.3v-.6l5.4-4.6v-.5l-1.6-1.9 8.7-16.2c.7-1.2.1-2.1-1.2-2.2Z" class="i"/><path d="M130.4 144.3c-.8 0-1.4-.6-1.4-1.4v-7.3c0-.5-.2-1-.5-1.2l-2.7-2.7c-.7-.7-.7-1.9 0-2.6l2.7-2.6c.3-.4.5-.8.5-1.3v-10.4c0-.5-.2-1-.5-1.3l-5.3-5.3c-.3-.3-.8-.5-1.3-.5H89.7c-1 0-1.8.8-1.8 1.8v4.5c0 1 .8 1.8 1.8 1.8h.3c1 0 1.8.8 1.8 1.8v8.4l-3.6 3.7c-.2.2-.2.5 0 .8l3.6 3.7v8.3c0 1-.8 1.8-1.8 1.8h-.3c-1 0-1.8.8-1.8 1.8v4.6c0 1 .8 1.7 1.8 1.7h17c1 0 1.7-.8 1.7-1.7V146c0-1-.8-1.8-1.8-1.8h-.7c-1 0-1.8-.8-1.8-1.8v-5.6c0-1 .8-1.8 1.8-1.8h8.2c.5 0 1 .2 1.3.5l.8.8c.3.4.5.8.5 1.3v10.1c0 .5.2 1 .5 1.3l2.9 2.8c.3.4.8.5 1.2.5h8.6c1 0 1.8-.8 1.8-1.7v-5c0-.8-.6-1.4-1.4-1.4Zm-13.7-20c0 .4-.2.9-.5 1.2l-.8.8c-.4.4-.8.5-1.3.5h-8.2c-1 0-1.8-.8-1.8-1.8v-7.4c0-1 .8-1.8 1.8-1.8h8.2c.5 0 1 .2 1.3.6l.8.8c.3.4.5.8.5 1.3v5.7Z" class="h"/><path d="M167.6 162.6h-.2c-.6 0-1-.4-1.3-1l-3-11 1.7-1.9c.2-.2.2-.5 0-.7l-3.6-3.8v.1l-2.2-7.9c-.4-1.1.5-2.3 1.7-2.3h.7c1 0 1.8-.8 1.8-1.8v-4.5c0-1-.8-1.8-1.8-1.8h-28.8c-1 0-1.8.8-1.8 1.8v4.5c0 1 .8 1.8 1.8 1.8h.5c1.1 0 2 1.2 1.7 2.3l-2.3 7.9-3.5 3.7c-.2.2-.2.5 0 .7l1.7 1.9-3 11c-.3.6-.8 1-1.4 1h-.2c-.7 0-1.3.6-1.3 1.3v5c0 1 .8 1.8 1.8 1.8h13.7c1 0 1.7-.8 1.7-1.8v-4.8c0-.7-.5-1.3-1.3-1.3-1.2 0-2-1.1-1.7-2.3l.3-1.3c.2-.8 1-1.4 1.8-1.4h10.2c.9 0 1.6.6 1.8 1.4l.5 2c.2.7-.5 1.6-1.3 1.6h-.3c-.7 0-1.3.6-1.3 1.3v4.8c0 1 .8 1.8 1.8 1.8h14.7c1 0 1.7-.8 1.7-1.8v-5c0-.7-.5-1.3-1.3-1.3Zm-19-12.7h-4.7c-1.2 0-2-1.1-1.7-2.3l3.4-13.7h1.2l3.4 13.7c.3 1.2-.5 2.3-1.7 2.3Z" class="h"/><path d="M222.5 114.4H209c-1 0-1.8.8-1.8 1.8v4.5c0 1 .8 1.8 1.8 1.8h.7c1 0 1.9 1 1.7 2l-1.7 13.7c-.2 2-3 2.2-3.5.2l-5-22.6c-.1-.8-.9-1.4-1.7-1.4h-11.2c-.9 0-1.6.6-1.8 1.4l-4.9 22.5c-.4 2-3.2 1.9-3.5-.1l-1.7-13.6c-.2-1.1.7-2 1.8-2h.7c1 0 1.8-.9 1.8-1.9v-4.5c0-1-.8-1.8-1.8-1.8h-15c-1 0-1.8.8-1.8 1.8v5c0 .7.5 1.3 1.3 1.3h.4c.6 0 1.2.5 1.3 1.1l1.8 10.5-2.3 2.3c-.2.2-.2.6 0 .8l3.4 3.5 2.9 17c.1.8.9 1.5 1.7 1.5h12.5c1 0 1.6-.6 1.8-1.5l5-24.4c.3-2 3-2 3.4 0l5 24.4c.1.9.9 1.5 1.7 1.5h11.7c.9 0 1.6-.7 1.8-1.5l2.9-17v.2l3.5-3.7c.2-.2.2-.6 0-.8l-2.4-2.5 1.7-10.3c.2-.6.7-1 1.4-1h.4c.7 0 1.3-.7 1.3-1.4v-5c0-1-.8-1.8-1.8-1.8ZM89 140.2l-3.7-3.8v-10.6c0-.4-.2-.9-.5-1.2l-5.9-5.9c-.3-.3-.8-.5-1.3-.5H46c-1 0-1.8.8-1.8 1.8v4.5c0 1 .8 1.8 1.8 1.8h.4c1 0 1.8.8 1.8 1.8v8.3l-3.6 3.7c-.2.2-.2.6 0 .8l3.6 3.7v8.4c0 1-.9 1.8-1.8 1.8h-.4c-1 0-1.8.8-1.8 1.8v4.5c0 1 .8 1.8 1.8 1.8h31.7c.5 0 1-.1 1.3-.5l5.9-5.8c.3-.3.5-.8.5-1.3v-10.6L89 141c.2-.2.2-.5 0-.7Zm-16 11c0 .5-.2 1-.5 1.2l-1.2 1.2c-.3.3-.8.5-1.2.5h-8c-1 0-1.8-.8-1.8-1.8v-23.5c0-1 .8-1.8 1.8-1.8h8c.4 0 .9.2 1.2.5l1.2 1.1c.3.4.5.8.5 1.3v21.3Z" class="h"/><path d="M128.3 142.2c-.7 0-1.3-.6-1.3-1.3v-7.3c0-.5-.2-1-.6-1.3l-2.6-2.7c-.7-.7-.7-1.8 0-2.5l2.6-2.7c.4-.3.6-.8.6-1.3v-10.4c0-.5-.2-1-.6-1.3l-5.3-5.2c-.3-.3-.7-.5-1.2-.5H87.6c-1 0-1.8.8-1.8 1.8v4.5c0 1 .8 1.8 1.8 1.8h.4c1 0 1.8.8 1.8 1.8v8.3l-3.6 3.8c-.2.2-.2.5 0 .7l3.6 3.8v8.2c0 1-.8 1.8-1.8 1.8h-.4c-1 0-1.8.8-1.8 1.8v4.6c0 1 .8 1.8 1.8 1.8h17c1 0 1.8-.8 1.8-1.8V144c0-1-.8-1.8-1.8-1.8h-.8c-1 0-1.8-.8-1.8-1.8v-5.6c0-1 .8-1.8 1.8-1.8h8.2c.5 0 1 .2 1.3.6l.8.8c.4.3.6.8.6 1.3v10c0 .5.1 1 .5 1.3l2.8 2.9c.4.3.8.5 1.3.5h8.5c1 0 1.8-.8 1.8-1.8v-5c0-.8-.6-1.4-1.3-1.4Zm-13.6-20c0 .4-.2.9-.6 1.2l-.8.9c-.3.3-.8.5-1.3.5h-8.2c-1 0-1.8-.8-1.8-1.8v-7.4c0-1 .8-1.8 1.8-1.8h8.2c.5 0 1 .2 1.3.5l.9.9c.3.3.5.8.5 1.2v5.8Z" class="i"/><path d="M165.6 160.5h-.2c-.6 0-1.1-.4-1.3-1l-3.1-11 1.8-1.8c.2-.2.2-.5 0-.7l-3.6-3.8-2.3-7.9c-.3-1.1.6-2.2 1.7-2.2h.8c1 0 1.8-.8 1.8-1.8v-4.5c0-1-.8-1.8-1.8-1.8h-28.9c-1 0-1.8.8-1.8 1.8v4.5c0 1 .8 1.8 1.8 1.8h.5c1.2 0 2 1.1 1.7 2.2l-2.2 7.9-3.6 3.8c-.2.2-.2.5 0 .7l1.8 1.8-3.1 11c-.2.6-.7 1-1.3 1h-.2c-.7 0-1.3.6-1.3 1.3v5c0 1 .8 1.9 1.8 1.9h13.6c1 0 1.8-.8 1.8-1.8V162c0-.7-.6-1.3-1.3-1.3-1.2 0-2-1-1.8-2.2l.4-1.4c.2-.8.9-1.3 1.7-1.3h10.3c.8 0 1.5.5 1.7 1.3l.5 2c.2.8-.4 1.6-1.3 1.6h-.3c-.7 0-1.3.6-1.3 1.3v4.9c0 1 .8 1.8 1.8 1.8h14.7c1 0 1.8-.8 1.8-1.8v-5c0-.8-.6-1.4-1.3-1.4Zm-19.1-12.7h-4.7c-1.1 0-2-1-1.7-2.2l3.5-13.8h1.2l3.4 13.8c.3 1.1-.6 2.2-1.7 2.2Z" class="i"/><path d="M220.4 112.4H207c-1 0-1.8.8-1.8 1.8v4.5c0 1 .8 1.8 1.8 1.8h.6c1.1 0 2 1 1.8 2l-1.7 13.7c-.3 2-3.1 2.1-3.6.1l-4.9-22.5c-.2-.8-1-1.4-1.8-1.4h-11.2c-.8 0-1.6.6-1.7 1.4l-5 22.5c-.3 2-3.2 1.8-3.4-.2l-1.8-13.6c-.1-1 .7-2 1.8-2h.7c1 0 1.8-.8 1.8-1.8v-4.5c0-1-.8-1.8-1.8-1.8h-15c-1 0-1.8.8-1.8 1.8v5c0 .7.6 1.3 1.3 1.3h.4c.7 0 1.2.4 1.3 1l1.8 10.5-2.2 2.4c-.2.2-.2.5 0 .7l3.3 3.5 3 17c0 .9.8 1.5 1.7 1.5h12.5c.9 0 1.6-.6 1.8-1.4l4.9-24.5c.3-1.9 3-1.9 3.5 0l5 24.5c0 .8.8 1.4 1.7 1.4h11.6c1 0 1.7-.6 1.8-1.5l2.9-17v.3l3.6-3.8c.2-.2.2-.5 0-.7l-2.4-2.6 1.7-10.2c.1-.6.7-1.1 1.3-1.1h.4c.7 0 1.3-.6 1.3-1.3v-5c0-1-.8-1.8-1.8-1.8ZM86.9 138.2l-3.6-3.8v-10.6c0-.5-.2-1-.6-1.3l-5.8-5.8c-.4-.3-.8-.5-1.3-.5H43.8c-1 0-1.8.8-1.8 1.8v4.5c0 1 .9 1.8 1.8 1.8h.4c1 0 1.8.8 1.8 1.8v8.3l-3.5 3.7c-.2.2-.2.5 0 .7l3.5 3.7v8.4c0 1-.8 1.8-1.8 1.8h-.4c-1 0-1.8.8-1.8 1.8v4.6c0 1 .9 1.8 1.8 1.8h31.8c.5 0 1-.2 1.3-.5l5.8-5.9c.4-.3.6-.8.6-1.2v-10.6l3.6-3.8c.2-.2.2-.5 0-.7Zm-16 11c0 .4-.1.9-.5 1.2l-1.1 1.1c-.4.4-.8.6-1.3.6h-8c-1 0-1.8-.8-1.8-1.8v-23.5c0-1 .9-1.8 1.8-1.8h8c.5 0 1 .2 1.3.5l1.1 1c.4.4.6.9.6 1.4V149Z" class="i"/><path d="M5.7 110.3 16.9 127l-4 2.8 6.7 9.9v.2c.7.9 2.6 4.2 1 8.6-1.9 5-6.4 7-6.4 7l-.7.2 7.1 10.6.5-.3c.4-.3 8.3-5.3 9.4-14.5s0-.8.6-1.8c.4-1 1.4-2.5 3.3-4l.6-.4-.5-.5-.7-.8c-1.3-2-2.2-4.9 1.3-7.6l.4-.4-10-14.8-.6.4L9.5 98.8c1-1 1.1-2 1-2.8-.1-1-.6-1.7-.7-1.8l-.3-.5L7 95.3 5.6 93 0 96.9l8 11.8-2.3 1.6Z" class="g"/><path d="m8.3 111.2 11.2 16.6-4 2.7 6.7 10 .1.1c.7 1 2.6 4.3 1 8.6-2 5.1-6.4 7-6.4 7l-.8.3 7.2 10.5.5-.3c.3-.2 8.2-5.3 9.4-14.5s0-.7.5-1.8c.5-1 1.5-2.4 3.4-3.9l.5-.4-.5-.5-.6-.8c-1.3-2-2.2-5 1.2-7.6l.5-.4-10-14.8-.7.4-15.4-22.8c1-.9 1.2-2 1-2.8 0-.9-.5-1.6-.6-1.7l-.4-.6-2.3 1.6L8.3 94l-5.6 3.8 8 11.9-2.4 1.6Z" class="h"/><path d="M14.2 155.3s4.5-1.9 6.4-7a9.5 9.5 0 0 0-1-8.5v-.2l-6.8-10 12.7-8.5 10 14.8-.4.4c-3.5 2.7-2.6 5.6-1.3 7.6l.7.8.5.5-.6.4c-1.9 1.5-2.9 3-3.3 4-.5 1-.6 1.7-.6 1.7-1.1 9.3-9 14.3-9.4 14.6l-.5.3-7.1-10.6.7-.3Zm15.1-4c0-.4.3-3.3 3.9-6.2l-.4-.5c-1-1.5-3-5.4 1-8.9l-8.7-12.9-10.5 7.2 6 8.8.1.3c.7 1 2.9 4.8 1 9.7-1.6 4.4-5 6.6-6.4 7.3l5.7 8.4c1.7-1.3 7.4-6 8.3-13.3Z" class="e"/><path d="m5.6 93 20 29.5-5.7 3.8L0 97 5.6 93Zm18.2 29.2L5.3 94.8l-3.6 2.4 18.6 27.4 3.5-2.4Z" class="e"/><path d="m9 108 12 17.6-3.4 2.3-12-17.6 3.5-2.3Zm10.3 17.3L8.7 109.8l-1.3.9 10.5 15.5 1.4-.9ZM9.5 93.7l.3.5c.1.1.6.8.7 1.8.1.9 0 2.2-1.5 3.2l-.5.3L6 96l3.4-2.3ZM9.3 96a3 3 0 0 0-.2-.7l-1.3.9 1 1.4c.4-.4.6-1 .5-1.6ZM32.5 140.1a4 4 0 0 0 2 1.6c1.2.4 2.5.1 4-.9a.6.6 0 0 0-.7-1c-1.1.8-2.1 1-3 .8-1.2-.5-1.8-2.1-1.8-2.1a.6.6 0 0 0-1.2.3s.2.7.7 1.3ZM24.8 125.2l5 7.4c1 1.5.6 3.6-1 4.7l-2.3 1.6c-1.6 1-3.7.6-4.8-1l-5-7.3 8-5.4Zm-.4 1.7-6 4 4.4 6.4c.6 1 2 1.2 3 .6l2.3-1.6c1-.7 1.3-2 .6-3l-4.3-6.4ZM21.2 147.2l.5.2c2.6 0 3.3-1.6 3.5-2.2l.1-.2c.3-.7.7-1.3 1.8-1.1 1 .2 1 1.5 1 1.6a3.2 3.2 0 0 0 2.7 3.8.6.6 0 0 0 .1-1.2c-.3 0-1.8-.4-1.6-2.5 0-.8-.3-2.5-2-2.9-2.2-.5-2.9 1.3-3.1 1.9v.1c-.3.6-.7 1.5-2.5 1.5a.6.6 0 0 0-.5 1ZM3.5 97.1 21 122.7a.6.6 0 0 0 1-.7L4.5 96.4a.6.6 0 0 0-1 .7Z" class="e"/><path d="m22.7 129.4 4.2 6a.6.6 0 0 0 1-.7l-4.1-6a.6.6 0 0 0-1 .7ZM20.5 131l4 6a.6.6 0 0 0 1-.7l-4-6a.6.6 0 0 0-1 .6ZM15 140.8l.3.2c2.4 1.1 5-.7 5.2-.7.3-.3.4-.7.2-1a.7.7 0 0 0-1-.3s-2.1 1.4-3.8.7a.7.7 0 0 0-.9 1Z" class="e"/><path d="M13 141.7c2.1 3.3 6.7 1.9 8.8.6l-.7-1.3c-.1 0-5 3-7-.2-2.4-3.9-2-5.8 1.5-8l-.8-1.3c-4.2 2.7-4.8 5.6-2 10l.1.2Z" class="e"/><path d="m255.7 103.7 8-11.8-5.6-3.8-1.5 2.2-2.3-1.6-.4.5c0 .1-.5.8-.7 1.8a3 3 0 0 0 1 2.8L239 116.5l-.6-.4-10 14.8.4.4c3.4 2.7 2.5 5.6 1.2 7.6-.3.5-.6.8-.7.8l-.4.5.5.4c2 1.5 2.9 3 3.4 4s.5 1.7.5 1.7c1.2 9.3 9 14.3 9.4 14.6l.5.3 7.1-10.6-.7-.3s-4.5-1.9-6.4-7a9.5 9.5 0 0 1 1-8.5v-.2l6.8-10-4-2.7 11.2-16.6-2.4-1.6Z" class="g"/><path d="m253 104.6 7.7-11.3-5.6-3.8L254 91l-2.4-1.6-.3.6c-.1 0-.6.8-.7 1.7a3 3 0 0 0 1 2.8l-15.4 22.8-.6-.4-10 14.8.4.4c3.5 2.7 2.6 5.6 1.2 7.6l-.6.8-.5.5.6.4c1.9 1.5 2.8 3 3.3 4s.6 1.7.6 1.7c1.1 9.3 9 14.3 9.3 14.5l.5.3 7.2-10.5-.7-.3s-4.6-1.9-6.4-7a9.5 9.5 0 0 1 .9-8.6l.1-.1 6.7-10-4-2.7 11.2-16.6-2.4-1.6Z" class="h"/><path d="m250.2 150.6-7.1 10.6-.5-.3c-.3-.3-8.2-5.3-9.4-14.5s0-.8-.5-1.8-1.5-2.5-3.4-4l-.5-.4.5-.5.6-.8c1.3-2 2.2-4.9-1.2-7.6l-.5-.4 10-14.8 12.7 8.6-6.7 9.9-.1.2c-.7.9-2.6 4.2-1 8.6 2 5 6.4 7 6.4 7l.7.2Zm-7.4 8.9 5.6-8.4c-1.4-.7-4.8-2.9-6.4-7.3a10.7 10.7 0 0 1 1.2-10l6-8.8-10.6-7.2-8.7 12.9c4 3.5 2 7.4 1 8.9l-.3.5c3.5 3 3.8 5.8 3.8 6.1 1 7.4 6.7 12 8.4 13.3Z" class="e"/><path d="m263.7 91.9-19.9 29.4-5.6-3.8 20-29.4 5.5 3.8Zm-20.2 27.7L262 92.2l-3.5-2.4-18.6 27.4 3.6 2.4Z" class="e"/><path d="M258 105.3 246.3 123l-3.4-2.3 11.9-17.6 3.4 2.3Zm-12.2 16 10.6-15.6-1.4-1-10.5 15.6 1.3 1ZM257.7 91l-2.4 3.5-.5-.3c-1.5-1-1.7-2.3-1.6-3.2.2-1 .6-1.7.7-1.8l.4-.5 3.4 2.3Zm-2.7 1.7 1-1.4-1.4-.9-.1.7c-.1.7 0 1.2.5 1.6ZM231.3 135.1a4 4 0 0 1-2 1.6c-1.2.4-2.6.1-4-.9a.6.6 0 0 1 .6-1c1.2.8 2.1 1 3 .8 1.3-.5 1.8-2.1 1.8-2.1a.6.6 0 0 1 1.2.3s-.2.7-.6 1.3ZM247 125.6l-5 7.4c-1 1.5-3.2 2-4.7.9l-2.4-1.6c-1.5-1-2-3.2-.9-4.7l5-7.4 8 5.4Zm-12 2.6c-.6 1-.4 2.4.6 3l2.4 1.6c1 .7 2.3.5 3-.5l4.3-6.4-6-4-4.3 6.3ZM242.6 142.2l-.6.2c-2.5 0-3.2-1.6-3.5-2.2v-.2c-.4-.7-.7-1.3-1.8-1.1-1 .2-1 1.5-1 1.6a3.2 3.2 0 0 1-2.7 3.8.6.6 0 0 1-.2-1.2c.3 0 1.9-.4 1.6-2.5 0-.8.3-2.5 2-2.9 2.2-.5 3 1.3 3.2 1.9v.1c.3.6.7 1.5 2.5 1.5a.6.6 0 0 1 .5 1ZM260.2 92.1 243 117.7a.6.6 0 0 1-1-.7l17.3-25.6a.6.6 0 0 1 1 .7Z" class="e"/><path d="m241 124.4-4.1 6a.6.6 0 0 1-1-.7l4-6a.6.6 0 0 1 1 .7ZM243.3 126l-4.1 6a.6.6 0 0 1-1-.7l4-6a.6.6 0 0 1 1 .6ZM248.7 135.8s-.1.2-.3.2c-2.4 1.1-5-.7-5.1-.7a.7.7 0 0 1 .8-1.2s2 1.3 3.7.6a.7.7 0 0 1 1 1Z" class="e"/><path d="M250.8 136.7c-2.2 3.3-6.7 1.9-8.9.6l.8-1.3s5 3 7-.2c2.4-3.9 2-5.8-1.6-8l.8-1.3c4.3 2.7 4.9 5.6 2 10v.2Z" class="e"/></g></svg>