<svg xmlns="http://www.w3.org/2000/svg" id="b" viewBox="0 0 447.2 251.24"><defs><radialGradient id="e" cx="-77.9" cy="907.15" r="1.67" fx="-77.9" fy="907.15" gradientTransform="translate(1942.669 21511.635) scale(23.606 -23.606)" gradientUnits="userSpaceOnUse"><stop offset="0" stop-color="#fff"/><stop offset=".07" stop-color="#fffdf4"/><stop offset=".2" stop-color="#fff8d9"/><stop offset=".37" stop-color="#fff0ad"/><stop offset=".56" stop-color="#ffe570"/><stop offset=".79" stop-color="#ffd723"/><stop offset=".88" stop-color="#ffd100"/></radialGradient><clipPath id="d"><path d="M65.46 112.69a50.76 50.76 0 1 0 101.52 0 50.76 50.76 0 0 0-101.52 0" style="fill:none"/></clipPath><style>.g{fill:#ffd100}.h{fill:#7b8689}.i{fill:#007ec3}.l{fill:#e31f26}.p{fill:#2c2b7c}</style></defs><g id="c"><path d="M86.22 217.87a305.42 305.42 0 0 1-19.98-7.4c10.75 6.78 24.4 12.85 38.94 17.17a144.74 144.74 0 0 0 19.5 4.68c2.25.37 4.01.63 6 .84l.59-4.2c-13.55-2.02-28.84-5.71-45.05-11.1" class="g"/><path d="m309.83 140.51 16.12.01v-3.56l-16.14-.01.02 3.56zM329.5 136.97l-.02 5.72 2.54-.03v6.98a40.23 40.23 0 0 0 7.23 12.25c6.04 6.9 14.13 10.62 22.95 10.62.65 0 1.3-.02 1.95-.06 7.93-.49 15.6-4.59 21.38-11.23-5.2 4.53-11.43 7.28-17.83 7.67-.65.04-1.3.06-1.94.06-8.83 0-16.92-3.72-22.95-10.62-7.1-8.11-10.86-19.77-10.85-33.71 0-14.36 3.79-26.41 10.73-34.51l-.6.5c-6.41 5.78-10.72 14.43-12.6 24.97l.02 21.39ZM375.63 114.44c-1.29-3.53-3.69-5.66-6.58-5.83a7.2 7.2 0 0 0-5.5 2.1c-.67.63-1.3 1.42-1.85 2.32a6.96 6.96 0 0 1 3.8-.86c2.27.13 4.23 1.48 5.6 3.77l9.64.3 13.29-6.22-.34-2.08c-.03-.13-.09-.25-.12-.39l-17.37 8.46-.57-1.56ZM179.61 209.57c.18-1.01.4-2.02.68-3.02l5.62-19.5-2.58.14-5.27 18.32 1.55 4.06Z" class="h"/><path d="m362.13 119.3-.2 20.18c.33.44.67.84 1.04 1.2a7.9 7.9 0 0 0 1.91 1.41l5.95-.01a7.35 7.35 0 0 0 3.56-3.56l-8.93.02.18-19.11-3.51-.13ZM278.51 172.83l-2.78.16.04 3.34 52.7-3.09v-3.35l-49.15 2.89L278 75.55l-3.61-.37 1.06 77.75 3.06 19.9zM309.63 107.55l18.11 1.07v-3.76l-18.13-1.07.02 3.76zM442.23 182.93v-.03c-1.5-1.24-2.8-1.77-4.12-1.67-.25.02-.66.1-.75.45l.42.1 2.4.52c.67.14 1.37.35 2.05.63ZM434.05 195.79c.01 0 1.18-.17 1.21-.91v-.03l-.52-.08-2.2-.3a9.97 9.97 0 0 1-3.9-1.34l.57.55c1.71 1.56 3.34 2.28 4.84 2.1ZM426.94 191.78c-1.6-1.65-2.66-4.1-2.56-7.53a16.61 16.61 0 0 1 3-9.26 14.97 14.97 0 0 0-3.8 3.91l-.78 25.43 4.14-12.55ZM396.37 145.17l-6.04 24.45 22.4-1.32.59-3.38-19.44 1.15 18.93-76.54-2.6-.27-11.61 46.93a48.38 48.38 0 0 1-2.22 8.98ZM428.06 155.04l-10.17.4-.59 3.43 7.21-.28 1.27 8.95 19.66-1.16-.62-3.31-15.49.92-1.27-8.95zM410.38 185.32a35.7 35.7 0 0 1 0-1.88l.25-9.1-3.47.2-.1 3.73 3.32 7.05ZM225.18 175.96l-20.2 1.18-15.41-47.1c-.56-2.02-1.07-3.97-1.53-5.89-.06 1.69-.13 3.37-.23 5.02l-.47 8.47 14.08 43.05 22.88-1.34.88-3.4ZM368.68 216.87c-1.07.15-2.13.22-3.16.22-4.73 0-9-1.5-12.26-4.37-4.14-3.63-6.3-9.08-6.26-15.75a25.29 25.29 0 0 1 5.46-15.77c-3.38 2.72-6 6.4-7.52 10.7l-.07 17.2a17.5 17.5 0 0 0 4.83 7.17c3.26 2.86 7.53 4.37 12.27 4.37 1.03 0 2.08-.07 3.15-.22a22.92 22.92 0 0 0 14.93-8.36 23.1 23.1 0 0 1-11.37 4.81ZM274.45 173.06l-28.66 1.69-4.99-48.91c-.14.65-.3 1.3-.47 1.94l-2.33 8.96 4.23 41.56 32.73-1.92-.51-3.32ZM294.36 226.21l-.53-45.26-3.59.2.33 27.95 1.99-.22.24 17.54-2.03.27.04 3.07 31.93-4.27v-3.08l-28.38 3.8zM410.33 210.66l-6.57-13.12v.73l-.23 9.45 3.25 6.5 12.33-1.66.1-3.09-8.88 1.2ZM434.84 207.92a19.69 19.69 0 0 1-11.25-1.97l-.82-.43-.1 3.49-2.86.38.23.12a19.68 19.68 0 0 0 11.25 1.96c3.66-.49 7.55-2.56 10.11-6.17a14.94 14.94 0 0 1-6.56 2.62ZM257.18 231.2l-1.17-48.12-3.64.21 1.26 51.46 35.62-4.78-.04-3.07-32.03 4.3zM389.57 213.45l.76-37.95-3.48.2-.14 6.87a22.72 22.72 0 0 1 2.28 10.7 25.55 25.55 0 0 1-2.72 11.12l-.26 12.6 13.88-1.85.07-3.08-10.4 1.39ZM327.47 221.77l-.03-42.72-3.56.19.02 26.21 2.37-.26.03 16.74-2.38.32v3.08l17.35-2.33.01-3.08-13.81 1.85zM181.7 178.5l-39.49 2.32 13.41-117.95-4-.34-13.86 121.82 43.75-2.49.19-3.36zM132.58 247.9l8.19-58.31-3.97-.03-8.67 61.68 29.24-3.59.2-3.1-24.99 3.35zM214.97 118.54c.37-3.04.8-6.07 1.46-8.96l9.14-39.46-2.66-.28-9.74 42.02 1.8 6.68ZM228.54 235.03l-1.72-50.29-3.67.2 1.84 53.64 22.84-3.05-.08-3.07-19.21 2.57zM200.73 238.76l-3.54-23.34-2.79 8.59 2.78 18.3 23.98-3.21-.69-2.98-19.74 2.64zM173.25 242.44l-10.5-23.05-.17-.45v.01l-.66 9.97L169.7 246l15.86-2.13 1.04-3.22-13.35 1.8Z" class="h"/><path d="m157.38 60.64 41.6 4.3 15.96 59.26.91.02c.51-4.73 1.01-9.74 2.04-14.31l9.73-42 33.78 3.5 15.38 100.02-29.65 1.74-5.71-56.1-.6-.02c-.54 3.45-1.05 7.03-1.94 10.34l-12.21 46.98-20.63 1.2-15.05-45.99c-1.3-4.77-2.46-9.28-2.93-14.08l-1.27-.04c-.12 4.5-.22 9.14-.48 13.63l-2.67 47.8-39.74 2.32 13.48-118.57ZM279.46 73.29l50.32 5.22.01 24.96-21.69-1.27.05 8.99 19.83.86.02 23.42-19.7-.02.06 9.08 22.16-.34.01 24.08-49.73 2.92-1.34-97.9zM398.3 118.42c-.38 12.83-.57 23.52-6.93 33.63-5.83 9.33-14.9 14.8-23.76 15.35-9.01.55-17.42-2.91-23.68-10.06-6.42-7.34-10.48-18.46-10.47-32.72 0-29.32 15.8-45.5 35.15-43.45 10.1 1.08 23.25 9.5 27.2 23.62l-18.77 9.14c-1.54-4.25-4.5-6.62-7.9-6.82-7.76-.42-12.2 8.91-12.26 19.23-.07 9.37 4.05 18.06 11.04 17.95a8.95 8.95 0 0 0 8.54-7.27l-9.49.01.2-19.73 31.12 1.12ZM420.12 136.22l3.67-22.75.62.03c.23 3.2.46 6.47.87 9.65l1.63 13.07h-6.8Zm-3.5 17.77 12.74-.5 1.26 8.92 16.58-.98-13.36-72.13-18.94-1.97-19.08 77.12 19.2-1.13 1.6-9.33Z" class="l"/><path d="m228.25 182.81 20.24-1.15 1.36 49.01-19.87 2.65-1.73-50.51zM257.46 181.15l18.5-1.04.59 32.04 14.54-1.6.19 14.56-32.64 4.38-1.18-48.34zM295.31 179.02l16.35-.93.2 30.19 12.91-1.42.02 13.76-28.95 3.88-.53-45.48zM328.94 177.11l14.56-.82-.17 41.84-14.36 1.93-.03-42.95zM391.87 173.56l11.03-.62 9.32 19.83.31-.04c-.35-3-.73-6.12-.65-9.25l.3-11.07 10.1-.57-1.08 35.85-10 1.35-9.13-18.23-.33.03c.3 2.55.57 4.94.52 7.4l-.29 12.03-10.87 1.46.77-38.17ZM427.69 194.3l.49.46c1.72 1.58 3.8 2.77 6.04 2.52.95-.11 2.48-.79 2.54-2.35.05-1.55-1.21-1.55-2.09-1.69l-1.93-.26c-3.83-.48-7.03-3.11-6.86-8.68.27-8.5 6.39-13.59 12.24-13.91 3-.17 5.69.65 8.13 2.55l-2.85 8.98c-1.56-1.34-3.35-2.34-5.4-2.18-.85.06-2.1.57-2.16 2-.03 1.3 1.16 1.4 1.88 1.56l2.14.46c3.95.84 6.69 3.39 6.47 9.14-.31 8.05-6.02 12.77-11.69 13.53a18.2 18.2 0 0 1-10.35-1.8l3.4-10.33ZM142.56 187.64l26.5-1.5 10.77 28.22.62-.05c.31-2.42.62-4.98 1.28-7.35l6.3-21.89 23.17-1.3 11.68 50.5-20.88 2.8-4.31-28.33-.41.04c-.35 1.8-.68 3.66-1.27 5.41l-8.03 24.76-13.83 1.86-10.03-22.04a30.45 30.45 0 0 1-1.96-6.76l-.83.07c-.05 2.24-.1 4.54-.25 6.77l-1.58 23.93-25.16 3.37 8.22-58.5ZM369 174.2c-10.99.61-20.42 9.7-20.5 22.78-.08 13.25 9.08 19.88 19.98 18.4 10.45-1.4 18.78-9.84 19.01-22.13.23-12.14-7.95-19.63-18.5-19.04" class="p"/><path d="m367.44 190.56 3.15-10.78 3.52 10.26 8.99-.74-6.94 6.68 3.1 9.28-8-4.67-9.38 8.96 3.55-12.16-10.36-5.94 12.37-.89z" style="fill:#fff"/><g style="clip-path:url(#d)"><path d="M65.46 61.93h101.5v101.51H65.46z" style="fill:url(#e)"/></g><path d="M114.89 173.16a83.5 83.5 0 0 1-15.43-.74 47.66 47.66 0 0 0 30.91 6.51 41.78 41.78 0 0 0 20.09-7.38l.44-.33a48.17 48.17 0 0 0 16.78-19.62l.73-1.63.12-.27.37-.82a43.24 43.24 0 0 0 1.63-4.76c-9.71 16.19-30.76 27.95-55.64 29.04" class="g"/><path d="m155.87 111.86.86-9.38-5.12 6.48-7.04-5.06 2.74-9 7.65 1.6-5.95-7.16 2.53-8.07-6.35 3.45-6.9-8.33 2.4 10.91-7.3 3.92-5.8-9.57 6.03-7.62-10.29.54-6.95-11.68-.07 12.05-13.6.71 13.7 7.24-.15 12.33-14.07-.05L95.35 81l-4.02 14.1-20.1-.24 17.56 9.17-4.53 15.88L98.66 109l12.97 6.88-5.9 13.3-17.72.75 13.44 8.77-7.32 16.11 14.5-11.43 10.78 7.02-2.88-13.43 10.56-8.24 6.71 8.68-6.25 12.44 10.36-7.08 5.91 7.8-.5-11.5 7.97-5.46-8.39-1.8-.42-10.92 8.11-2.03 3.82 8.95.92-10.12 6.54-1.56-6-4.26Zm-13.6 8.89-5.02 9.77-10.16-2.13-12.25.38-2.81-13-5.86-12.4 10.3-7.93 7.1-8.68 9.7 5.07 8.82 1.98 2.26 10.18 3.84 9.21-5.92 7.55Z" class="p"/><path d="M24.42 82.44c-4.58 11.65-2.21 39.6 8.25 58.94a154.3 154.3 0 0 0 13.97 23.18c-13.76-14.44-29.36-37.64-35.58-66.71 6.63-9.59 9.14-11.26 13.36-15.41Z" class="l"/><path d="M95.5 58.4a45.12 45.12 0 0 1 6.85-2.11c-6-3.37-51.4-27.47-84.84-4.82C-10.72 70.6 2.93 110.28 5.94 118c8.22 22.43 24.63 45.2 46.2 64.13 20.93 18.36 45.63 29.66 68.34 35.19l.24-.68c-13.93-6.67-26.57-17.78-39.08-28.76-36.76-32.26-56.65-75.22-48.33-103.55a171.6 171.6 0 0 1 25.93 15.94c.4-1.75.88-3.47 1.44-5.16A174.38 174.38 0 0 0 32.9 78.58l-2.47-1.17-.94 2.56c-5.42 14.68-3.55 33.88 5.25 54.07 8.81 20.2 24.3 40.66 43.6 57.6a192.49 192.49 0 0 0 17.14 13.42 177.34 177.34 0 0 1-40.04-26.69C34.49 160 18.57 137.93 10.62 116.23c-2.79-7.14-15.39-43.63 9.7-60.62C29.68 49.26 40.27 47 50.61 47c18.69 0 36.55 7.38 44.89 11.4Z" class="g"/><path d="M87.7 62.16c-10.47-4.1-26.47-10-36.92-10-10.77 0-20.12 2.64-27.8 7.84-.54.36-1.1.77-1.75 1.29l-.45.36-.07.06c-.36.3-.72.6-1.1.95l-.19.17c-.11.1-.23.2-.34.32-.4.38-.8.8-1.2 1.22-.24.25-.46.51-.69.78l-.03.04a25.86 25.86 0 0 0-1.28 1.6l-.16.23-.1.13c-5.14 7.24-6.35 16.28-5.84 24.74 1.22-1.9 2.57-3.7 4.07-5.4 4.14-4.73 9.97-11 15.88-13.79l3.96 1.87 1.28.6c6.75 3.2 18.96 9.92 27.48 15.2a59.21 59.21 0 0 1 25.24-28.2Z" class="g"/><path d="M54.32 108.78c0-17.12 7.3-32.52 18.94-43.3a49.51 49.51 0 0 0 0 86.6 58.83 58.83 0 0 1-18.94-43.3Z" class="l"/></g><g id="f"><path d="m344.87 45.97-1.12-.32a183.12 183.12 0 0 0-14.41-3.34 200.21 200.21 0 0 0-24.95-3.1c-5.72-.34-11.45-.42-17.18-.15-8 .37-16 1.42-23.8 3.3A106.07 106.07 0 0 0 244 49.2l-.12.07a3.76 3.76 0 0 0-1.64 4.97 3.56 3.56 0 0 0 4.83 1.68l.16-.08a99.83 99.83 0 0 1 19.52-7.53 124.78 124.78 0 0 1 24.59-3.92c8.5-.54 17.04-.31 25.52.43 7.72.68 15.42 1.7 23 3.32a125.32 125.32 0 0 1 4.16.96l.04.01c.82.2 1.65-.3 1.88-1.13a1.62 1.62 0 0 0-1.08-2Z" style="fill:#84c5ec"/><path d="M269.66 41.32v-.06c-.09-1.73-.18-3.76-.24-5.55-.06-1.8-.27-6.98-.27-8.44 0-1.45.03-5.77-.7-6.4-.43-.37-.98-.38-1.55-.35-.57.02-1.1.18-1.57.47s-.67.7-.66 1.23c.22 6.47-.28 7.49-.43 8.17-.16.67-1 3.24-1.2 3.72-.21.48-.44.67-.7.58-.25-.08-.42-.65-.5-1.7a44.39 44.39 0 0 1-.1-3.88c.02-1.53-.02-4.12 0-5.86.03-1.74.04-3.36.04-4.87.01-.52-.25-.9-.79-1.14a3.33 3.33 0 0 0-3.41.53c-.5.42-.75 1.05-.74 1.9.08 1.3.19 3.63.23 5.07a142.71 142.71 0 0 0 .46 7.99c.11 1.17.25 2.1.42 2.8a4.65 4.65 0 0 0 2.4 3.03 2.9 2.9 0 0 0 1.64.3 2.1 2.1 0 0 0 1.43-.81 9.34 9.34 0 0 0 1.56-3.3c.01 1.65.04 3.48.09 5.3l.03 1.24c.03 1.36.04 2.65.05 3.87a1370.67 1370.67 0 0 0 .05 7.22c-.03.9.22 1.4.75 1.48.52.1 1.1-.08 1.72-.52a5.98 5.98 0 0 0 1.67-1.95c.5-.86.7-1.81.65-2.87l-.04-.64-.09-2-.2-4.56ZM246.17 42.64c1.07.75 2.23.96 3.48.6 1.32-.26 2.36-1.16 3.13-2.7a19.86 19.86 0 0 0 1.69-5.47c.36-2.13.57-4.44.63-6.95a117.57 117.57 0 0 0-.4-13.02 65.8 65.8 0 0 1-.26-3.33c-.07-.85-.35-1.48-.84-1.89-.5-.4-.98-.57-1.47-.5-.48.07-.91.37-1.3.9a2.7 2.7 0 0 0-.39 2.06c.14.93.3 2.65.49 5.17s.35 5.15.48 7.9c.13 2.74.13 5.17.02 7.3-.12 2.13-.45 3.24-1 3.31-.54.08-1.17-.6-1.88-2.06a31.86 31.86 0 0 1-1.98-5.55A70.65 70.65 0 0 1 245 21a36.1 36.1 0 0 1-.45-7.7c0-.78-.36-1.26-1.1-1.46a4.19 4.19 0 0 0-2.43.15 4.88 4.88 0 0 0-3.3 5.25 65.93 65.93 0 0 0 2.5 15.05 83.7 83.7 0 0 1-.54 6.29c-.24 1.76-.6 2.67-1.08 2.74-.55.07-1.16-.94-1.84-3.05a68.98 68.98 0 0 1-1.94-7.68c-.6-3.03-1.09-6.2-1.45-9.5a58.88 58.88 0 0 1-.43-8.49c.07-.79-.27-1.3-1.02-1.54a3.86 3.86 0 0 0-2.44.08c-.89.3-1.7.89-2.43 1.77a4.77 4.77 0 0 0-.97 3.5 102.69 102.69 0 0 0 3.68 21.62 30.27 30.27 0 0 0 3.5 7.92c1.35 2.05 2.87 2.92 4.56 2.6 1.37-.37 2.48-1.39 3.35-3.06a23.85 23.85 0 0 0 2.04-6.24c.9 1.51 1.9 2.65 2.97 3.4ZM283.32 32.01a13.46 13.46 0 0 0 .46-8.96 8.83 8.83 0 0 0-2.1-3.65 5.87 5.87 0 0 0-3.75-1.72 4.24 4.24 0 0 0-3.45 1.09c-.98.88-1.77 2-2.37 3.38-.6 1.37-1 2.9-1.16 4.56-.17 1.67-.06 3.22.3 4.65a7.97 7.97 0 0 0 2 3.65c.96 1 2.25 1.52 3.89 1.58 1.45.05 2.7-.36 3.74-1.24a8.61 8.61 0 0 0 1.95-2.35l.06-.12c.16-.28.3-.56.43-.87Zm-3.24-4.9c.01 1.11-.05 2.14-.19 3.07a6.85 6.85 0 0 1-.68 2.26c-.31.57-.7.82-1.2.76-.57-.08-1.03-.45-1.37-1.12a8.47 8.47 0 0 1-.78-2.42 17.85 17.85 0 0 1 0-6.05c.17-.9.4-1.66.72-2.26.3-.6.69-.88 1.13-.87.48.02.9.36 1.25 1.03.35.68.62 1.5.8 2.47.2.97.3 2.01.32 3.13ZM289.8 34.98c1.52.47 3.25.19 4.6-.78l.2-.14a18.39 18.39 0 0 0 4.15-4.75c.15.37.32.73.51 1.09.78 1.44 1.92 2.96 3.69 3.72 1.57.69 3.05.8 4.43.37 1.38-.44 2.71-1.65 3.72-2.77 1-1.12 1.77-2.48 2.3-4.08.52-1.59.74-3.21.67-4.86-.08-1.65-.51-3.2-1.29-4.63a8.18 8.18 0 0 0-3.63-3.4 4.93 4.93 0 0 0-4.07-.37 8.8 8.8 0 0 0-3.52 2.41 13.31 13.31 0 0 0-2.83 5.02 23.28 23.28 0 0 1-1.38 3.43c-1.31 2.6-3.05 5.39-4.72 5.41-.56 0-.83-.97-.83-2.46 0-4.82.94-9.59 2.14-14.23 1.03-3.97 1.72-6.69 3.23-10.5.27-.7.13-1.34-.43-1.96a4.62 4.62 0 0 0-2.1-1.3 3.9 3.9 0 0 0-2.42-.01c-.77.26-1.16.95-1.4 2.03-.45 2-2.17 6.34-3.77 16.28-.4 2.46-.76 4.88-.8 7.1-.02 1.77.13 3.6.45 5.15.09.4.18.8.3 1.16.53 1.75 1.32 2.6 2.8 3.06Zm13.8-8.9c.07-1.03.26-2.1.57-3.22.3-1.1.67-2.09 1.1-2.94a6.9 6.9 0 0 1 1.4-2c.5-.47 1-.6 1.47-.4.52.23.88.76 1.08 1.6.2.84.27 1.8.21 2.86a18.21 18.21 0 0 1-1.57 6.38c-.4.9-.86 1.57-1.36 2.01-.5.45-1 .54-1.52.26-.6-.32-1-.9-1.2-1.74a9.31 9.31 0 0 1-.18-2.8ZM355.02 23.34a8.08 8.08 0 0 0-3.9-3.89 5.7 5.7 0 0 0-4.77-.34c-1.6.59-3.08 1.56-4.44 2.92-.77.77-1.47 1.63-2.1 2.58a36.05 36.05 0 0 1-1.92 2.62 59.7 59.7 0 0 1-2.32 2.76c-.82.94-1.6 1.74-2.34 2.43-.74.68-1.25.98-1.54.9-.35-.1-.4-.76-.19-1.97.22-1.21.59-2.7 1.11-4.47.53-1.77 1.13-3.64 1.82-5.6.68-1.98 1.42-3.77 2.14-5.63l2.27.66c.8.24 1.48.26 2.01.07.54-.18.94-.75 1.05-1.16.1-.4 0-.83-.34-1.3-.34-.48-.99-.86-1.94-1.14l-1.82-.53.86-1.7c.38-.8.35-1.56-.09-2.27a3.47 3.47 0 0 0-1.76-1.47 3.1 3.1 0 0 0-2.3.06c-.8.32-1.36 1.12-1.7 2.4-.08.27-.17.57-.29.91-.12.34-.15.43-.25.8l-2.04-.6h-.03c-.12-.05-.28-.1-.5-.16l-3.12-.86.94-1.97c.38-.81.35-1.57-.09-2.28a3.47 3.47 0 0 0-1.77-1.46 3.1 3.1 0 0 0-2.3.06c-.79.31-1.35 1.11-1.7 2.4-.07.26-.16.57-.28.9-.12.35-.23.7-.33 1.08l-2.38-.6c-.98-.28-1.73-.3-2.25-.1-.53.2-.83.49-.91.87-.08.38.06.8.43 1.24.37.45 1 .79 1.86 1.03l2.21.54c-.51 1.52-1.1 3.18-1.74 4.98-.64 1.8-1.23 3.6-1.76 5.4-.54 1.8-1 3.57-1.38 5.3-.38 1.74-.6 3.3-.64 4.7-.05 1.4.12 2.59.51 3.56.4.98 1.07 1.61 2.03 1.9 1.46.42 2.88.2 4.25-.67 1.37-.86 3.1-2.84 4.29-4.22.3-.35.59-.7.87-1.06-.03.42-.06.82-.06 1.2a7.26 7.26 0 0 0 .58 3.13c.4.87 1.07 1.44 2 1.71 1.42.42 2.77.26 4.07-.46 1.3-.71 2.5-1.66 3.6-2.83l.1-.1c-.03 1.55.27 3.03.9 4.42a7.5 7.5 0 0 0 4.13 3.77c1.78.76 3.51.87 5.2.32 1.68-.56 3.18-1.5 4.5-2.84A16.72 16.72 0 0 0 356 28.73c.1-1.93-.23-3.73-.99-5.4Zm-25.39-4.52c-.4 1.08-.77 2.15-1.11 3.23l-.02.04c-.48 1.56-1 2.36-1.77 3.43a73.1 73.1 0 0 1-2.5 3.25c-.89 1.09-1.83 1.93-2.62 2.74-.78.8-1.33 1.16-1.63 1.07-.35-.1-.4-.85-.14-2.24.27-1.4.7-3.11 1.3-5.15a165.95 165.95 0 0 1 4.29-12.7l3.44 1.05c.15.06.3.12.47.17l1.82.53c-.52 1.52-.96 3.03-1.53 4.58Zm20.98 9.1a23.8 23.8 0 0 1-2.6 7.52 8.43 8.43 0 0 1-1.83 2.38c-.64.53-1.25.65-1.82.33-.68-.36-1.09-1.03-1.22-2-.14-.98-.1-2.07.1-3.29.21-1.21.56-2.48 1.05-3.78.5-1.3 1.04-2.47 1.64-3.48a9.59 9.59 0 0 1 1.88-2.37c.66-.57 1.25-.74 1.8-.5.59.24.95.86 1.09 1.83.13.98.1 2.1-.09 3.35Z" class="i"/></g></svg>