<svg viewBox="-0.1 -0.2 629.8 188.3" xmlns="http://www.w3.org/2000/svg"><defs><style>.st0{fill:#ee3124}.st1{fill:#0076be}.st2{fill:#009ada}</style></defs><path class="st0" d="M617.4 30.6l2.2-15.1c-45.1-6.6-90.6-6.4-135.5.5 3.7 4.2 6.4 9 7.8 14.3 41.6-5.9 83.7-5.8 125.5.3zM492.7 43.6c-.9 6.2-3.6 11.6-7.9 16.2 44.3-5.2 88.7-3.1 132.2 6.1l3.2-14.9a423.1 423.1 0 00-127.5-7.4zM159.1 102.7c3.6-.6 7.3-1.2 10.9-1.9 12.2-2.1 24.4-4.1 36.6-6l-1.2-27.7c-7 .8-14.1 1.7-21.1 2.6l-2.7-66.1c-8.8.3-17.6.7-26.4 1.1l2.1 53.7c.7 14.8 1.2 29.5 1.8 44.3zM251.1 90.4c23.9-3.7 38.8-22.5 37.5-47.9C287.3 16.9 271-.2 247.4-.2c-24.7 0-39.3 19-38.1 48.6 1.3 29.3 17.7 45.7 41.8 42zM248 27.8c7-.3 11.8 6.3 12.3 16.7.5 10.3-3.8 17.4-10.6 18.2-7 .7-11.7-5.5-12.2-16.3-.5-10.9 3.7-18.3 10.5-18.6zM305.4 24.8c.9 18.7 1.9 37.3 2.8 55.8 8.8-1.1 17.6-2.1 26.4-3.1-.9-17.7-1.9-35.5-2.8-53.4 3.6-.1 7.2-.1 10.8-.2 1.3 0 2.5 0 3.8-.1-.4-7.2-.8-14.3-1.1-21.5-1.2 0-2.5 0-3.7-.1-17.4-.4-34.7-.6-52.1-.6.4 7.9.8 15.7 1.1 23.6 4.9-.1 9.8-.3 14.8-.4zM352.9 23.8c3.7 0 7.4-.1 11.1-.1.9 16.9 1.9 33.8 2.8 50.6 8.8-.9 17.6-1.7 26.4-2.5-.9-16-1.9-32-2.8-48.2H405c-.4-6.4-.8-12.9-1.1-19.4-17.4-.8-34.7-1.3-52.1-1.7-1.3 0-2.5-.1-3.8-.1.4 7.2.8 14.3 1.1 21.5 1.3-.1 2.6-.1 3.8-.1zM450.3 68.7c13.3-1.1 23.8-5.4 30.3-12 3.5-3.6 5.8-7.8 6.8-12.5.5-2.3.6-4.6.4-7.1-.1-2.1-.5-4.1-1.1-6-1.5-5.3-4.6-10.1-8.9-14-7.3-6.7-18.1-11.1-31.2-12-24.7-1.8-39.3 10.9-38.1 32.4 1.3 21 17.8 33.2 41.8 31.2zm9.3-31.7c.5 7.2-3.7 12-10.6 12.2-7 .2-11.7-4.3-12.2-12-.5-7.8 3.7-12.7 10.5-12.6 6.9.2 11.8 5.2 12.3 12.4zM203.7 111.8c-11.4 2.1-22.8 4.3-34.2 6.6-5.4 20.3-10.7 40.2-16.1 59.6 8.9-1.1 17.8-2.1 26.7-3.1.5-3 1.1-6 1.6-9.1 5.4-.7 10.8-1.3 16.2-1.9.9 2.9 1.8 5.9 2.7 8.9 8.3-.8 16.5-1.6 24.8-2.3.7-.1 1.4-.1 2.2-.2-.9-2.2-1.7-4.4-2.6-6.6-7.1-17.9-14.2-35.2-21.3-51.9zm-17.5 26.4c.2-1.8.5-3.7.7-5.5l.6-6 1.2 5.6c.4 1.8.8 3.6 1.2 5.3 1.2 3.9 2.4 7.9 3.7 11.9-3.1.4-6.2.9-9.3 1.3.6-4.2 1.2-8.4 1.9-12.6zM279.6 99.1c-2.1 11.2-4.2 22.3-6.3 33.3-3.5-10.4-7-20.6-10.6-30.7-11.6 1.8-23.2 3.7-34.8 5.8 1.1 18.2 2.3 36.5 3.4 54.9.2 2.6.3 5.1.5 7.6.7-.1 1.4-.1 2.2-.2l22.4-1.8-1.5-24.9c-.2-3.9-.4-6.8-.6-8.8-.1-.4-.4-2.3-.9-5.7-.2-1-.4-2.4-.6-4.2.4 1.4.9 2.7 1.3 4.1.6 1.8 1.1 3.7 1.7 5.6.9 2.9 1.8 5.7 2.8 8.6 2.9 8.1 5.9 16.3 8.8 24.5 5.4-.4 10.8-.7 16.2-1 1.7-8.8 3.4-17.6 5.1-26.5.5-2.8 1.1-5.6 1.6-8.4.2-1.5.5-3.5.9-6.2.2-1.8.5-3.7.7-5.5 0 6.8-.1 9.2 0 12.1 0 2.7.1 5.6.3 8.9.5 8.3 1 16.7 1.4 25.1 8.3-.5 16.6-.9 24.9-1.2l-3.9-70.3c-11.6 1.5-23.3 3.1-35 4.9zM353.3 142.9c-.1-2.5-.3-5.1-.4-7.6l21.3-1.2c-.3-6.2-.6-12.4-1-18.6-7.1.5-14.2 1-21.3 1.6-.1-2.3-.3-4.7-.4-7 7.8-.7 15.5-1.4 23.3-2-.4-7-.7-13.9-1.1-20.9-16.4 1.7-32.7 3.6-49.1 5.7l3.9 71.2c16.6-.6 33.1-1.1 49.7-1.3-.4-7-.7-14-1.1-20.9-7.8.2-15.8.6-23.8 1zM439.1 129.9c3.5-2.4 4.6-3.5 6.5-6.3 3.3-4.5 5-10.7 4.7-16.6-.4-8.4-5-16.7-11.6-20.5-6.1-3.5-11.5-4.3-23-3.3-11 .9-21.9 1.9-32.9 3l3.9 76.4c8.6-.1 17.3-.1 25.9-.1l-1.2-24.7c1.4 0 2.9-.1 4.3-.1 3.9 8.2 7.8 16.5 11.7 24.9 9.2.1 18.3.2 27.5.4h2c-.7-1.4-1.5-2.8-2.2-4.1-5.1-9.8-10.3-19.5-15.6-29zM412.6 104c3.6-.2 4.7-.2 6.2.6 2 1 3.3 3.2 3.5 5.9.1 2.9-1.2 5.7-3.3 6.6-1 .6-3.7 1-6.5 1.1-.7 0-1.3.1-2 .1-.2-4.7-.5-9.4-.7-14.1.9-.1 1.9-.1 2.8-.2zM457.5 80.2c1.2 25.6 2.4 51.3 3.7 77l.3 6c.7 0 1.3 0 2 .1 8.2.2 16.4.5 24.6.8l-3.9-85.4c-9 .4-17.8.9-26.7 1.5zM550.7 129.7c-4.3 7.1-9 10.1-14.9 9.9-8-.3-13.7-7.6-14.2-18-.5-10.5 4.7-17.4 13.1-17.4 5.5 0 10.3 2.4 15.3 8-.5-10.5-.9-21-1.4-31.5-7.3-4.5-13.8-6.2-21.1-6-21.3.9-35 19.9-33.7 46.5 1.2 26.6 16.2 45.7 36.9 47.1 6.3.4 14.1-1.3 18.9-4 .2-.1.4-.2.6-.4.4-.4 1.1-.7 1.9-1.4-.1-3.4-.3-6.8-.4-10.3-.4-7.4-.7-15-1-22.5zM605.8 76c-11.4-.1-22.8-.1-34.2 0-4.5 25.9-9 51.5-13.5 76.8-.9 5-1.8 9.9-2.6 14.9h.6c8.7.6 17.5 1.3 26.2 2 .5-4.7 1.1-9.4 1.6-14.1l16.2 1.2 2.7 14.7c9 .8 17.9 1.7 26.9 2.7-8-33.5-16-66.2-23.9-98.2zm-15.1 28l1.2 8.8c1.2 6.6 2.4 13.3 3.7 19.9-3.1-.2-6.2-.3-9.3-.5.6-6.5 1.3-13 1.9-19.6.2-2.9.5-5.7.7-8.6l.6-9.3 1.2 9.3z"/><g><path class="st1" d="M504.2 38.2c0 .4.1.9.1 1.3-1.6.1-3.2.3-4.8.5 0-.4-.1-.9-.1-1.3.4 0 .8-.1 1.3-.1-.2-.4-.4-.9-.6-1.3l-2.6.3c-.1.5-.3.9-.4 1.4.4 0 .9-.1 1.3-.1 0 .4.1.9.1 1.3-1.4.2-2.9.3-4.3.5 0-.4-.1-.9-.1-1.3.4 0 .8-.1 1.2-.1.5-1.8 1-3.5 1.4-5.3-.4.1-.9.1-1.3.2 0-.4-.1-.9-.1-1.3l6.5-.9c0 .4.1.9.1 1.3-.4.1-.9.1-1.3.2.8 1.6 1.7 3.3 2.5 5 .3-.2.7-.3 1.1-.3zm-4.6-2c-.3-.7-.7-1.5-1-2.2-.2.8-.5 1.6-.7 2.4.5-.1 1.1-.2 1.7-.2zM504.7 39.5c0-.4-.1-.9-.1-1.3.5 0 .9-.1 1.4-.1-.1-1.8-.2-3.5-.4-5.3-.5.1-.9.1-1.4.2 0-.4-.1-.9-.1-1.3l5.5-.6c0 .5.1.9.1 1.4-.5 0-1 .1-1.5.1l.3 5.3c1-.1 1.9-.2 2.9-.2 0-.8-.1-1.7-.1-2.5.6-.1 1.3-.1 1.9-.2.1 1.3.1 2.6.2 3.9-2.8.1-5.8.3-8.7.6zM514 38.8c0-.5 0-.9-.1-1.4.5 0 .9-.1 1.4-.1-.1-1.8-.2-3.6-.2-5.5-.5 0-1 .1-1.4.1 0-.5 0-.9-.1-1.4 1.8-.2 3.7-.3 5.5-.4v1.4c-.5 0-1 .1-1.5.1.1 1.8.1 3.7.2 5.5 1-.1 1.9-.1 2.9-.1 0-.9-.1-1.7-.1-2.6.6 0 1.3-.1 1.9-.1 0 1.3.1 2.7.1 4-2.7.2-5.6.3-8.6.5zM527.3 38.2v-2.9c.6 0 1.1 0 1.7-.1 0 .5.2.9.5 1.2.3.2.6.4 1 .4.3 0 .6-.1.8-.3.2-.2.3-.4.3-.7 0-.3-.1-.5-.3-.7-.2-.2-.6-.4-1.1-.6-1.1-.4-1.9-.8-2.3-1.2-.4-.4-.6-.8-.6-1.5s.3-1.3.8-1.8c.5-.4 1.2-.7 1.9-.7.8 0 1.4.2 1.9.7v-.7c.6 0 1.1 0 1.7-.1v2.7h-1.7c-.1-.4-.2-.7-.5-.9-.3-.2-.6-.3-.9-.3-.3 0-.5.1-.7.2-.2.1-.3.3-.3.5s.1.3.2.5c.2.2.6.4 1.4.6.7.3 1.3.5 1.7.7.4.2.7.5.9.9.2.4.3.8.3 1.3 0 .9-.3 1.5-.8 2-.6.4-1.2.7-2 .7-.9 0-1.5-.3-2-.8v.7c-.8.2-1.4.2-1.9.2zM536.4 38.1v-1.5h1.5c0-2 0-3.9.1-5.9h-1.5v2.1h-1.7v-3.5c3-.1 6-.2 9.1-.2 0 1.2-.1 2.4-.1 3.6h-1.7v-2.1h-1.5c0 2-.1 4-.1 5.9h1.5V38c-2 .2-3.8.1-5.6.1zM553.7 37c0 .5 0 1-.1 1.6-1.6-.1-3.2-.1-4.8-.2 0-.5 0-1 .1-1.6h1.3c-.1-.5-.3-1.1-.4-1.6-.9 0-1.7 0-2.6-.1-.2.5-.4 1-.6 1.6h1.3c0 .5 0 1-.1 1.5-1.4 0-2.9-.1-4.3-.1v-1.5h1.2l2.1-6h-1.3v-1.5h6.5c0 .5 0 1-.1 1.6h-1.3l1.8 6.2c.5.1.9.1 1.3.1zm-4.3-3.1c-.2-.9-.5-1.9-.7-2.8-.3.9-.7 1.8-1 2.7.5.1 1.1.1 1.7.1zM564.2 37.6c0 .5-.1 1.1-.1 1.6-1-.1-2-.2-3-.2-.6-1.4-1.3-2.9-2-4.3-.4 0-.8 0-1.1-.1 0 .8-.1 1.7-.1 2.5.4 0 .8 0 1.2.1 0 .5-.1 1.1-.1 1.6l-5.1-.3c0-.5 0-1 .1-1.6.4 0 .9 0 1.3.1l.3-6.2h-1.4c0-.5.1-1.1.1-1.6 2 0 4 .1 6 .2 1.1 0 1.9.4 2.4.9.5.6.7 1.2.6 1.9-.1 1.1-.7 1.8-1.9 2.3.5 1 .9 2 1.4 3 .6.1 1 .1 1.4.1zm-6.1-4.4h.9c1.1.1 1.7-.3 1.7-1 0-.4-.1-.7-.3-.8-.2-.2-.6-.3-1-.3h-1.1c-.1.6-.1 1.3-.2 2.1zM568.1 39.6c0-.5.1-1.1.1-1.6.4 0 .8.1 1.2.1.2-2.2.4-4.3.5-6.5-.4 0-.8-.1-1.2-.1 0-.5.1-1.1.1-1.6l4.5.3c1 .1 1.7.2 2.2.3.5.2.9.5 1.2 1 .3.5.4 1 .4 1.6-.1 1-.6 1.6-1.6 1.9 1.1.6 1.6 1.4 1.5 2.6a2.64 2.64 0 01-2.2 2.4c-.6.1-1.4.1-2.4 0-1.3-.1-2.8-.3-4.3-.4zm3.9-1.3c.2 0 .5 0 .7.1.6.1 1.1 0 1.4-.1.3-.2.4-.5.5-1 0-.5-.1-.9-.3-1.1-.3-.2-.7-.4-1.3-.4-.2 0-.5 0-.7-.1-.2.8-.2 1.7-.3 2.6zm.4-4.3c.2 0 .5 0 .7.1.5 0 .9 0 1.1-.2.3-.1.4-.4.4-.9 0-.4 0-.7-.3-.9-.2-.2-.6-.3-1.2-.3h-.6c0 .7-.1 1.5-.1 2.2zM584.9 31c1.7.2 3 .8 3.8 2 .8 1.1 1.2 2.5 1 3.9a4.9 4.9 0 01-1.9 3.5c-1.1.9-2.5 1.2-4.1 1-1.7-.2-3-.9-3.8-2.1-.8-1.1-1.2-2.4-1-3.8.2-1.4.8-2.6 1.8-3.5 1.1-.8 2.5-1.1 4.2-1zm-.2 1.9c-.8-.1-1.4.1-2 .7-.6.5-1 1.3-1.1 2.5-.1 1 .1 1.8.5 2.5s1 1 1.8 1.1c.7.1 1.4-.1 2-.6.6-.5 1-1.3 1.1-2.4.1-1 0-1.8-.5-2.5-.4-.8-1-1.2-1.8-1.3zM590.1 42.3c.1-.6.2-1.2.2-1.7.4.1.9.1 1.3.2l.9-6.8c-.4-.1-.9-.1-1.3-.2.1-.6.2-1.2.2-1.7 1.4.2 2.8.4 4.2.5.9 2.3 1.8 4.7 2.6 7.1.2-1.6.5-3.2.7-4.8-.4-.1-.9-.1-1.3-.2l.3-1.8c1.5.2 2.9.4 4.4.7l-.3 1.8c-.5-.1-.9-.1-1.4-.2-.5 2.9-.9 5.9-1.4 8.8-.7-.1-1.4-.3-2.1-.4-1-2.8-2-5.6-3.1-8.4-.3 2-.5 3.9-.8 5.9.4.1.8.1 1.2.2-.1.6-.2 1.2-.2 1.8-1.2-.4-2.7-.6-4.1-.8zM602.6 35.3l.3-1.8c1.6.2 3.1.5 4.7.8l-.3 1.8c-.3-.1-.6-.1-1-.2-.3 1.6-.5 3.2-.8 4.8-.1.6-.2 1.1-.2 1.4 0 .3.1.6.3.8.2.2.4.4.7.4.3.1.6 0 .9-.1.2-.1.4-.3.5-.6.1-.2.2-.8.4-1.6.3-1.6.5-3.1.8-4.7-.3-.1-.6-.1-.9-.2l.3-1.8c1.3.2 2.6.5 3.9.7l-.3 1.8c-.4-.1-.8-.1-1.2-.2-.3 1.8-.6 3.6-1 5.4-.1.7-.3 1.3-.4 1.6a2.36 2.36 0 01-1.8 1.5c-.5.1-1.1.1-1.7 0-.7-.1-1.3-.4-1.7-.7-.5-.3-.8-.7-1-1.1-.2-.4-.3-.8-.3-1.2 0-.4.1-1 .2-1.9.3-1.6.5-3.2.8-4.8-.4.1-.8 0-1.2-.1zM611.1 46.1c.2-1.2.4-2.5.7-3.7l1.6.3c-.1.7 0 1.2.2 1.6.2.4.5.6.9.7.3.1.6 0 .8-.2.2-.2.4-.4.5-.8.1-.3 0-.6-.1-.9-.2-.3-.5-.6-.9-1-1-.8-1.7-1.5-2-2.1-.3-.5-.4-1.2-.3-2 .2-.9.6-1.6 1.2-2 .6-.4 1.3-.6 2-.4.8.2 1.3.6 1.6 1.4.1-.3.1-.6.2-.9.6.1 1.1.2 1.6.3-.2 1.1-.4 2.2-.7 3.3l-1.6-.3c0-.5 0-1-.2-1.3-.2-.3-.5-.5-.8-.6-.3-.1-.5 0-.7.1-.2.1-.4.3-.4.6 0 .2 0 .5.1.7.1.2.5.6 1.2 1.1.6.5 1.1.9 1.5 1.3.3.4.6.8.7 1.3.1.5.1 1.1 0 1.7-.2 1.1-.6 1.8-1.3 2.3-.7.4-1.3.5-2.1.4-.8-.2-1.4-.7-1.7-1.5-.1.3-.1.6-.2.9-.7 0-1.2-.2-1.8-.3z"/></g><path class="st1" d="M168.2 112.1c.5-.1 1-.2 1.4-.3.2-1.9.4-3.9.4-5.8-3.4.6-6.7 1.1-10 1.7-.3.1-.6.1-.9.1a5.04 5.04 0 01-5.1-4.9c-.1-1.7-.1-3.4-.2-5.1-5.6 15.7-19.2 28.7-37 35.6l10.9 33.5L89.2 139c-.9 0-1.8.1-2.7.1-1.8 0-3.6-.1-5.4-.2L42.5 167l11.2-34.5c-20.6-8.9-35.1-26.1-37-46.1l-.6-.4h.5c-.1-1.3-.2-2.7-.2-4 0-31.6 31.4-57.2 70-57.2 30.3 0 56 15.7 65.8 37.6-.2-3.9-.3-7.8-.5-11.8a84.81 84.81 0 00-66.8-32.5 85 85 0 100 170c28 0 52.8-13.6 68.3-34.5 3.3-12.2 6.6-24.5 9.9-36.9.8-2.3 2.7-4.1 5.1-4.6z"/><g><path class="st2" d="M81.1 138.8c1.8.1 3.6.2 5.4.2.9 0 1.8 0 2.7-.1l-4.1-3-4 2.9zM153.3 86.4l-41.9 30.5 5.4 16.6c17.8-7 31.4-19.9 37-35.6-.1-3.9-.3-7.7-.5-11.5zM53.7 132.4l5-15.5-42-30.5c1.9 19.9 16.4 37 37 46zM152.4 62.3c-9.8-21.9-35.6-37.6-65.8-37.6-38.7 0-70 25.6-70 57.2 0 1.4.1 2.7.2 4h52.1l16.3-50.1 16.3 50.1h52c-.5-7.8-.8-15.7-1.1-23.6zM124.6 51C112.4 41.3 97.1 39 97 39l1.4-10.2c.7.1 18.2 2.6 32.6 14.2l-6.4 8z"/></g><path d="M97 39c.2 0 15.4 2.3 27.7 12l6.4-8c-14.5-11.5-31.9-14.1-32.6-14.2L97 39z" fill="#7dcef1"/><path fill="#fff" d="M85.1 35.8l16.2 50.1H154l-42.6 30.9 16.3 50.1L85.1 136l-42.6 30.9 16.2-50.1-42.6-30.9h52.7z"/></svg>