<svg xmlns="http://www.w3.org/2000/svg" id="b" viewBox="0 0 469.64 151.26"><defs><linearGradient id="d" x1="234.82" x2="234.82" y1="51.66" y2="141.81" gradientUnits="userSpaceOnUse"><stop offset="0" stop-color="#004f2e"/><stop offset=".29" stop-color="#008c4f"/><stop offset=".53" stop-color="#008c4f"/><stop offset="1" stop-color="#004f2e"/></linearGradient><linearGradient id="e" x1="234.82" x2="234.82" y1="15.17" y2="74.69" gradientUnits="userSpaceOnUse"><stop offset="0" stop-color="#f58220"/><stop offset=".25" stop-color="#fd0"/><stop offset=".5" stop-color="#fff78f"/><stop offset=".5" stop-color="#fff68a"/><stop offset=".5" stop-color="#fff37b"/><stop offset=".51" stop-color="#ffef64"/><stop offset=".51" stop-color="#ffe943"/><stop offset=".51" stop-color="#ffe119"/><stop offset=".51" stop-color="#fd0"/><stop offset=".6" stop-color="#fed701"/><stop offset=".71" stop-color="#fcc906"/><stop offset=".83" stop-color="#fab00f"/><stop offset=".96" stop-color="#f68f1b"/><stop offset="1" stop-color="#f58220"/></linearGradient><style>.g{fill:#fff}.l{fill:#b2d235}</style></defs><g id="c"><path d="M367.65 135.12c0 .18 6.56 3.28 10.9 2.64h.14a18.6 18.6 0 0 0 12.08-6.21c2.06 4.39 5.74 7 10.17 7.08h.37q2.36-.1 4.48-1.2c4.61 4.28 9.82 6.07 14.8 7.34a7 7 0 0 0 1.82.26h.23a6.4 6.4 0 0 0 4.2-1.72l.24.13c8.78 4.7 11.73 6.3 21.08 7.74a8 8 0 0 0 2.02.06h.09l.38-.02q2.32-.03 4.41-.47c2.8-.6 5.42-1.83 7.57-3.57a16.7 16.7 0 0 0 6.04-11.17 14.4 14.4 0 0 0-6.79-13.72 19.3 19.3 0 0 0 7.69-16.94 16.6 16.6 0 0 0-8.77-13.36 20 20 0 0 0 1.8-8.37c0-3.03.02-6.53.04-9.75l.03-7.33c0-5.5-2.22-10.72-6.13-14.55l.69-.67a20.4 20.4 0 0 0 5.81-15.5c-.14-2.34-.2-4.56-.2-6.8 0-2.32.08-4.75.15-6.9a20.4 20.4 0 0 0-5.85-14.96 20.5 20.5 0 0 0-14.55-6.05h-.35c-3.86.08-8.11.11-13.37.11q-4.4 0-8.85-.02h-2.81c-1.35-.01-5.35-.1-6.33-.15-3.67-.2-7.4.63-10.66 2.35A44 44 0 0 0 385.58.96c-.93 0-2 .02-3.32.05-1.39.03-2.96.07-4.88.07H377c-2.57 0-6.61-.1-7-.12a20 20 0 0 0-3.93.12q-1.71-.22-3.6-.15c-.92.04-4.68.1-7.12.1h-.26a272 272 0 0 1-7.45-.13c-3.72-.16-7.46.7-10.72 2.48A20.4 20.4 0 0 0 325.67 0h-2.7c-4.33 0-8.51 1.38-12 3.93A20 20 0 0 0 299.33.9c-1.31.06-2.38.1-4.15.1-2.16 0-4.23-.06-5.44-.1a20 20 0 0 0-13.38 4.25A20.4 20.4 0 0 0 262.83 0h-1.31c-4.6 0-9.16 1.62-12.75 4.5A45 45 0 0 0 229.67.6a45 45 0 0 0-16.87 3.8 20.4 20.4 0 0 0-12.45-3.6 284 284 0 0 1-15.01.02c-3.62-.16-7.13.63-10.27 2.27A20.3 20.3 0 0 0 164.8.84c-1.03.05-5.08.12-7.48.12h-.23c-2.64 0-6.34-.06-7.16-.1-3.56-.18-7.18.63-10.38 2.3A20.3 20.3 0 0 0 129.22.88c-1 .05-5.1.12-7.45.13h-.24c-2.5 0-6.22-.06-7.19-.1q-1.8-.08-3.56.15c-1.22-.15-2.45-.2-3.59-.14-1 .05-5.08.13-7.4.13h-.32c-2.46 0-6.14-.05-7.11-.1q-2.35-.09-4.63.33a20 20 0 0 0-4.35-.32c-2.08.07-6.06.15-8.86.16h-1.9c-4.96 0-6.92-.06-7.25-.07-2.67-.2-5.3.1-7.8.92a20 20 0 0 0-7.1-.92c-1.5.07-5.74.16-9.18.17h-1.55c-4.42 0-6.75-.06-7.13-.07a20.4 20.4 0 0 0-15.26 5.2 20.4 20.4 0 0 0-6.7 15.07v1.26c0 5.76 2.55 11.34 6.88 15.21-.1 1.4-.27 2.97-.52 4.6-1.26 8.4-1.89 12.63-3.13 21.12a52 52 0 0 1-.69 3.77 20.2 20.2 0 0 0-6.63 15.04v1.28c0 2.97.63 5.87 1.86 8.52q-1.43.8-2.62 1.84a16.6 16.6 0 0 0-5.73 11.28 19.3 19.3 0 0 0 7.69 16.94 14.42 14.42 0 0 0-6.79 13.73c.4 4.25 2.65 8.43 6.04 11.16a18 18 0 0 0 7.57 3.57q1.75.38 3.7.45.36 0 .73.02c.86.06 2.24 0 2.48-.04 9.34-1.45 12.3-3.03 21.07-7.74l.24-.14a6.6 6.6 0 0 0 4.28 1.73h.23q.88-.02 1.72-.25c5-1.28 10.2-3.07 14.81-7.35a11 11 0 0 0 4.51 1.2h.41c4.31-.08 8.05-2.75 10.1-7.09a18.6 18.6 0 0 0 22.84 3.58v9.65a2.76 2.76 0 0 0 3.25 2.72l12.21-2.2a662 662 0 0 1 235.31 0l12.22 2.2c1.67-.1 2.53-.71 3.05-1.75" class="g"/><path d="M458.05 123.53a11 11 0 0 0-3.38-.56 18 18 0 0 0 8.25-5.43 16.5 16.5 0 0 0 3.9-11.95c-.34-3.74-2-7-4.8-9.44a13.5 13.5 0 0 0-5.15-2.76 17.5 17.5 0 0 0 2.96-9.77c0-3.04.02-6.54.05-9.77v-.31l.03-7c0-5.16-2.3-10.05-6.16-13.36l-.05-2.4q.82-.65 1.56-1.4a17.6 17.6 0 0 0 5.03-13.4c-.15-2.4-.22-4.68-.22-6.95 0-2.36.08-4.82.16-7 .16-4.8-1.69-9.5-5.06-12.93a17.7 17.7 0 0 0-12.56-5.23h-.3c-3.9.08-8.17.12-13.44.12L420 3.96h-2.8c-1.42 0-5.45-.1-6.48-.16a17.7 17.7 0 0 0-10.26 2.64 41 41 0 0 0-14.9-2.72c-.9 0-1.94.02-3.25.05-1.4.04-3 .07-4.94.07h-.4c-2.61 0-6.68-.1-7.17-.12q-1.87-.12-3.74.15a18 18 0 0 0-3.47-.18c-.97.05-4.74.1-7.26.1h-.25c-2.43 0-6.52-.08-7.58-.13-3.82-.17-7.6.91-10.73 3.04a17.6 17.6 0 0 0-11.1-3.94h-2.72c-4.45 0-8.67 1.73-11.86 4.63a17.5 17.5 0 0 0-11.64-3.73c-1.35.06-2.45.1-4.28.1-2.2 0-4.32-.05-5.56-.1a17.4 17.4 0 0 0-13.38 5.3l-.39-.44a17.6 17.6 0 0 0-13.02-5.76h-1.31c-4.57 0-9.01 1.82-12.28 5a43 43 0 0 0-19.51-4.39 43 43 0 0 0-17.29 4.23 17.5 17.5 0 0 0-11.97-4.03 286 286 0 0 1-15.25.02 17.4 17.4 0 0 0-10.14 2.7 17.5 17.5 0 0 0-10.15-2.69c-1.08.05-5.11.12-7.61.12h-.23c-2.53 0-6.35-.05-7.3-.1-3.62-.18-7.2.79-10.24 2.72a17.5 17.5 0 0 0-10.2-2.69c-1.06.05-5.16.13-7.58.13h-.24c-2.53 0-6.31-.06-7.3-.1q-1.74-.08-3.44.18c-1.17-.17-2.36-.23-3.46-.17-1.05.05-5.13.13-7.54.14h-.32c-2.5 0-6.23-.06-7.23-.11q-2.29-.1-4.5.38c-1.42-.3-2.87-.42-4.26-.37-2.11.07-6.14.15-8.96.16h-1.9c-4.7 0-6.9-.05-7.4-.07-2.64-.2-5.23.16-7.64 1.08a18 18 0 0 0-6.97-1.08c-1.54.07-5.85.16-9.31.17h-1.56c-4.37 0-6.87-.06-7.28-.07A17.7 17.7 0 0 0 19.2 8.4a17.6 17.6 0 0 0-5.78 13.02v1.26c0 5.48 2.64 10.66 6.94 13.97a52 52 0 0 1-.62 6.26c-1.26 8.38-1.89 12.61-3.13 21.1-.34 2.3-.68 3.87-.94 4.87a17.5 17.5 0 0 0-6.35 13.54v1.28a17.5 17.5 0 0 0 3 9.82 13 13 0 0 0-4.7 2.62 14 14 0 0 0-4.8 9.44 16.5 16.5 0 0 0 3.9 11.95 18 18 0 0 0 8.25 5.43 10 10 0 0 0-3.38.56c-2.11.7-4 2.02-5.34 3.69a11.7 11.7 0 0 0-2.53 8.54c.33 3.53 2.2 7 5.03 9.27a15 15 0 0 0 6.4 3.02c4.91 1.04 10.07 0 14.76-1.6 3.97-1.37 7.65-3.47 11.34-5.45q1.23-.68 2.34-1.44l.02.06a3.8 3.8 0 0 0 3.48 2.65h.17q.55 0 1.04-.16c5.9-1.5 10.7-3.43 14.91-7.95l.26-.27.33.25a8 8 0 0 0 4.66 1.72h.25c3.74-.06 6.83-2.7 8.27-7.05.57-1.72.7-3.15.75-4.42a15.6 15.6 0 0 0 16.5 10.29 17 17 0 0 0 10.23-5.09v15.18l12.21-2.2a665 665 0 0 1 236.3 0l12.2 2.2V129.6a17 17 0 0 0 11.68 5.18h.7a15.6 15.6 0 0 0 14.35-10.38c.05 1.27.19 2.7.76 4.42 1.43 4.35 4.52 6.99 8.28 7.05h.27a8 8 0 0 0 4.62-1.72l.34-.25.25.27c4.22 4.52 9.01 6.45 14.9 7.94q.51.15 1.07.17h.17a3.8 3.8 0 0 0 3.47-2.65l.02-.06q1.1.76 2.34 1.44c8.69 4.67 11.31 6.07 20.18 7.45q.4.06.77.05l.7-.02.58-.02q2.05-.03 3.87-.41a15 15 0 0 0 6.4-3.02 13.9 13.9 0 0 0 5.03-9.27c.29-3.15-.59-6.1-2.53-8.54a11.5 11.5 0 0 0-5.34-3.69" style="fill:#008c4f"/><path d="m364.4 89.92.03-.02c.66-.3 3.29-2.27 8.2-3.83l.06-.02.34-.1.83-.25.06-.01.1-.03 1.13-.3h.01l.38-.09.37-.08.6-.13.05-.01.58-.12.3-.05.72-.13.19-.03.67-.1q.11-.02.22-.03l.67-.09 1.66-.18.44-.04.23-.02.23-.01q.96-.07 1.98-.1l.26-.02h.11l1.18-.02h.01l.4.01q.85 0 1.75.04.34 0 .7.02 1.23.06 2.53.17l.2.02h.08l1.22.14.74.08.16.02.13.01 1.46.21.6.09.16.02.27.05q.35.06.72.13.9.16 1.85.34l.46.09.21.04.82.18 1.04.24.6.13.13.03q.34.1.7.18a89 89 0 0 1 4.8 1.35l.82.25.3.1q.19.05.38.12l1.45.5q.78.25 1.55.53l1.65.61 1.1.41.82.32.03.02q1.01.4 2.04.82h.01l2.8 1.21.36.16.26.12q1.54.68 3.15 1.46l.23.1a34 34 0 0 0 3.06 1.26l.68.22.15.05a27 27 0 0 0 3.4.83l.5.08a22 22 0 0 0 2.08.2l.46.02h.21q.28 0 .56 0h.12q.84 0 1.61-.1l.42-.04.19-.03a19 19 0 0 0 2.25-.44l.2-.04.61-.18.6-.2.56-.19h.03l.34-.14.5-.2.1-.04.23-.1.5-.22.16-.07.1-.05a30 30 0 0 0 1.71-.9l.35-.2.12-.09.45-.28.34-.25.25-.18.26-.18.25-.22.38-.31.14-.12.64-.61.06-.06.35-.39.27-.3.02-.02a13 13 0 0 0 1.1-1.5v-.02a14 14 0 0 0 1.52-3.46q.26-1.14.26-2.34c0-3.05.02-6.57.04-9.82v-.3c.02-2.68.04-5.14.04-6.96 0-3.73-2-7.22-5.24-9.1l-.74-.44-.05-.85a101 101 0 0 1-.14-8.38l.03-.94.84-.43a10.5 10.5 0 0 0 5.69-10c-.16-2.54-.23-4.96-.23-7.37 0-2.48.08-5 .16-7.22.1-2.88-1.01-5.7-3.03-7.75a10.6 10.6 0 0 0-7.5-3.14h-.23c-3.92.08-8.23.12-13.55.12l-8.89-.02-2.8-.01c-1.42 0-5.6-.1-6.83-.16-2.93-.16-5.72.86-7.84 2.87l-1 .98-1.03-.53a33 33 0 0 0-14.9-3.4c-.86 0-1.85.02-3.06.05-1.48.04-3.13.08-5.15.08h-.4c-2.65 0-6.94-.1-7.63-.14q-1.47-.1-2.94.22l-.34.08-.35-.08c-.9-.2-1.8-.28-2.8-.24-1.14.05-5.12.11-7.58.11h-.26a276 276 0 0 1-7.89-.14 10.4 10.4 0 0 0-9.4 4.88l-1.48 2.36-1.3-2.48a10.5 10.5 0 0 0-9.33-5.65h-2.7a10.6 10.6 0 0 0-9.83 6.74l-1.65 4.26-1.54-3.66a10.48 10.48 0 0 0-10.19-6.45c-1.38.06-2.6.11-4.59.11-2.31 0-4.54-.06-5.86-.12-2.92-.13-5.67.91-7.77 2.93a10.6 10.6 0 0 0-2.83 4.75l-.77 2.72-1.94-2.05c-1.9-2-3.65-3.89-5.37-5.78-2-2.2-4.83-3.45-7.8-3.45h-1.31a10.6 10.6 0 0 0-9.38 5.76l-.8 1.59-1.5-.98a35.7 35.7 0 0 0-19.97-5.77 36.7 36.7 0 0 0-17.49 5.2l-.45.26-.84-.09-.81-.02-.43-.66a10.5 10.5 0 0 0-9.08-4.49 292 292 0 0 1-15.84.01 10.4 10.4 0 0 0-8.6 3.86l-1.23 1.53-1.25-1.52a10.48 10.48 0 0 0-8.62-3.85c-1.26.06-5.48.12-7.9.13h-.24c-2.46 0-6.47-.06-7.65-.11a10.4 10.4 0 0 0-8.63 3.86l-1.24 1.53-1.25-1.52a10.48 10.48 0 0 0-8.63-3.84c-1.25.06-5.54.13-7.9.13h-.26c-2.46 0-6.44-.05-7.61-.1q-1.41-.08-2.77.24l-.35.07-.35-.07c-.87-.2-1.9-.28-2.76-.23-1.25.06-5.52.14-7.89.14h-.33c-2.43 0-6.37-.06-7.53-.11q-1.91-.08-3.7.5l-.5.15-.48-.15a11 11 0 0 0-3.54-.5c-2.17.08-6.3.17-9.18.17h-1.92c-4.9 0-7.26-.05-7.83-.08-2.29-.2-4.46.3-6.37 1.45l-.82.49-.82-.49a10.5 10.5 0 0 0-5.85-1.45c-1.6.08-5.96.17-9.62.18h-1.57a234 234 0 0 1-8.7-.12c-2.63 0-5.16.96-7.1 2.71a10.6 10.6 0 0 0-3.47 7.8v1.27c0 3.97 2.34 7.69 5.96 9.47l.8.4.09.87q.11 1.04.1 2.35c0 2.36-.24 5.19-.7 8.18-1.26 8.37-1.89 12.6-3.13 21.1-.63 4.23-1.3 6.53-1.73 7.7l-.2.51-.44.29a10.5 10.5 0 0 0-4.85 8.86v1.13l.07.5.04.24a12 12 0 0 0 .3 1.27q.03.15.1.32l.01.06.13.43.16.4.01.04.28.7.22.49.2.38a16 16 0 0 0 .85 1.48l.14.22.44.6.04.06.11.15q.32.4.66.78l.19.2q.26.29.54.55l.21.2.06.05a13 13 0 0 0 1.44 1.12l.28.2q.45.28.95.53c4.04 2.05 11.47 4.53 21.32-.2 41.2-19.8 59.94-4.51 60.12-4.38V88.4l7.88-1.42a685 685 0 0 1 243.4 0l7.88 1.42z" style="fill:#004f2e"/><path d="M234.82 80.11c-39.98 0-80.48 3.66-120.36 10.88l-4.59.83v47.6l6.58-1.2c39.23-7.1 79.05-10.7 118.37-10.7s79.14 3.6 118.37 10.7l6.58 1.2v-47.6l-4.6-.83a678 678 0 0 0-120.35-10.88" class="l"/><path d="m114.18 95.42 1.05-.19c39.63-7.17 79.86-10.8 119.59-10.8s79.96 3.63 119.59 10.8l1.05.2v38.82l-1.5-.27c-39.48-7.14-79.57-10.77-119.14-10.77s-79.66 3.63-119.14 10.77l-1.5.27z" style="fill:url(#d)"/><path d="m132.84 100.66 1.34.1c2.9.23 3.4 1.05 3.4 3.6v13.43c0 2.55-.5 3.52-3.4 4.74l-1.34.58v.62c6.55-1.15 9.83-1.68 16.4-2.64v-.62l-1.67-.1c-2.93-.18-3.4-1.1-3.4-3.64v-6.46l1.42-.22c2.7-.41 4.18 0 5 2.6l.66 2.13.5-.07v-11.96l-.5.07-.66 2.33c-.82 2.83-2.3 3.66-5 4.08l-1.42.21V99.06c2.57-.4 3.85-.59 6.42-.96 3.59-.52 6.08 2 6.93 5.23l.34 1.33.57-.08v-8.46q-12.84 1.66-25.6 3.92zm42.66-7.05c-7.93.82-14.55 6-14.55 14.01 0 8.08 6.65 11.59 14.55 10.78 7.89-.81 14.56-5.68 14.56-13.76 0-8.01-6.64-11.84-14.56-11.03m0 23.96c-4.3.44-7.55-2.72-7.55-10.8s3.25-11.89 7.55-12.33 7.55 2.7 7.55 10.79-3.26 11.9-7.55 12.34m43.96-6.75-2.88-5.37q-1.22.4-2.4.43a8.2 8.2 0 0 1-4.88-1.41l.54-.02c3-.14 5.86-.87 7.88-2a5.3 5.3 0 0 0 3.01-4.97c0-2.1-1.05-3.72-2.88-4.72-2.02-1.1-5-1.3-8.01-1.17-6.84.3-10.26.51-17.09 1.02v.62l1.36.24c2.91.51 3.42 1.38 3.42 3.93v13.44c0 2.54-.5 3.46-3.42 4.4l-1.36.43v.62c6.48-.48 9.72-.67 16.2-.98v-.61l-1.36-.28c-2.91-.58-3.42-1.44-3.42-3.98v-5.71c1.69-.1 2.53-.14 4.21-.22l5.7 10.59c3.76-.15 5.64-.2 9.4-.3v-.61l-.53-.13c-1.8-.4-2.44-1.28-3.49-3.24m-11.2-7.13-4.09.21V92.7c1.64-.1 2.45-.13 4.09-.21 3.6-.18 5.66 1.3 5.66 5.22s-2.06 5.81-5.66 5.98m52.95 1.94-.76 2.52c-.98 3.36-3.6 5.9-7.44 5.8l-4.78-.1V96.18c0-2.54.47-3.57 3.42-4.08.67-.13 1-.19 1.68-.3v-.63c-6.62-.17-9.92-.21-16.54-.2v.61c.55.14.82.2 1.36.35 2.92.72 3.43 1.63 3.43 4.17v13.44c0 2.55-.51 3.43-3.43 4.15l-1.36.34v.62q12.5-.04 25 .5v-9.5zm14.37 5.1V97.3c0-2.54.51-3.4 3.42-3.93l1.36-.25v-.62c-6.48-.46-9.72-.65-16.2-.93v.62l1.36.4c2.91.86 3.42 1.79 3.42 4.33v13.44c0 2.55-.5 3.4-3.42 4l-1.36.27v.62c6.48.29 9.72.48 16.2.94v-.62l-1.36-.44c-2.91-.92-3.42-1.84-3.42-4.38m7-17.46 1.35.45c2.91.95 3.42 1.89 3.42 4.43v13.44c0 2.55-.5 3.4-3.42 3.89l-1.35.24v.62c6.6.5 9.9.79 16.49 1.46v-.62l-1.67-.51c-2.94-.91-3.42-1.95-3.42-4.49v-6.46l1.43.13c2.71.26 4.2 1.04 5.02 3.84l.66 2.3.5.06v-11.96l-.5-.06-.66 2.17c-.82 2.63-2.3 3.09-5.02 2.83l-1.43-.14V94.51c2.58.24 3.87.37 6.45.64 3.6.38 6.09 3.52 6.94 6.95l.35 1.42.56.07v-8.46a550 550 0 0 0-25.7-2.48zm53.66 20.7-.79 2.07c-1.22 3.13-3.61 5.11-7.35 4.55l-6.08-.89v-11.1l1.6.23c2.72.38 4.26 1.51 5.01 4.1l.66 2.3.5.08v-11.96l-.5-.08-.66 2.14c-.72 2.3-2.3 2.98-5 2.6l-1.6-.24V97.8c2.69.38 4.04.58 6.73 1 3.36.5 5.94 3.33 6.88 6.92l.38 1.44.56.1v-8.12a692 692 0 0 0-25.93-3.73v.62l1.36.51c2.9 1.09 3.4 2.05 3.4 4.6v13.44c0 2.54-.5 3.36-3.4 3.72l-1.36.18v.62a932 932 0 0 1 26.15 3.76v-8.8z" class="g"/><path d="M26.93 84.87a.33.33 0 0 1-.34-.33v-2q.01-.2.19-.3l.21-.1c1.9-.96 4.8-2.39 6.71-15.29 1.25-8.5 1.87-12.73 3.13-21.1.53-3.43.82-6.75.82-9.61 0-7.44-2.08-11.5-6.39-12.4l-.3-.06a.33.33 0 0 1-.27-.32v-2a.33.33 0 0 1 .34-.33l.45.04c.65.06 3.92.13 8.7.13h1.56c3.85-.01 8.3-.1 10.06-.2l.42-.01a.33.33 0 0 1 .33.33v1.93q-.02.27-.29.33l-.32.05c-2.34.35-3.25 1.26-3.25 3.26 0 2.1.68 5.13 1.9 8.28 3.05 8.03 6.14 16.03 9.19 23.79 2.24-6.7 4.56-13.5 6.9-20.2 1.28-3.8 1.96-7.08 1.96-9.46.02-3.8-1.4-5.63-4.45-5.73l-.37-.02a.33.33 0 0 1-.32-.33v-1.95q0-.16.12-.25a.3.3 0 0 1 .22-.09l.45.05q.91.1 8.74.12h1.94c3 0 7.27-.1 9.49-.17l.41-.02a.33.33 0 0 1 .33.34v1.8c0 .16-.12.29-.27.32l-.36.08c-4.12.16-5.29 1.15-5.3 4.4-.01 2 .38 4.86.77 7.4q2.13 14.36 4.3 28.72c.94 6.56 1.82 8.89 3.47 9.22l.31.06c.16.03.27.17.27.33v1.76c-.01.18-.14.32-.32.33l-.35.03a161.03 161.03 0 0 0-15.14 1.98l-.46.09h-.06a.33.33 0 0 1-.34-.33l.01-1.86q.01-.21.2-.3l.24-.1c.77-.33 1.29-.98 1.3-3.11 0-1.57-.3-3.66-.7-6.44q-1.64-11.04-3.24-22.08c-3.42 10.13-6.97 21-11.44 35.02-.23.72-.87 1.2-1.64 1.2-.7 0-1.32-.42-1.58-1.08-4.08-10.11-8.28-20.9-13.56-34.83q-1.77 13.2-3.5 26.42c-.24 2-.4 3.42-.4 4.77-.01 3.34.97 4.72 3.36 4.76l.38.01c.18 0 .32.15.32.33v1.96c0 .17-.13.3-.3.33l-.34.03a119 119 0 0 0-13.35 2.28l-.48.11zm416.04-.1-.46-.1a572 572 0 0 0-24.35-4.19c-2.2-.34-6.36-.88-7.96-1.04l-.35-.04a.33.33 0 0 1-.3-.33V77.2c0-.17.13-.31.3-.33l.35-.03c1.9-.16 2.45-.62 2.42-9.92l-.1-32.94c-.03-9.11-.4-9.93-2.51-10.41l-.3-.07a.3.3 0 0 1-.26-.32V21.3q0-.15.1-.25.1-.08.23-.09l.43.03c1.45.08 5.76.17 7.34.17l3.12.01 8.62.03c5.37 0 9.74-.04 13.75-.12h.42a.33.33 0 0 1 .33.33l-.02.4c-.07 2.21-.16 4.94-.16 7.56 0 2.53.08 5.03.23 7.65a1.33 1.33 0 0 1-1.35 1.42 1.3 1.3 0 0 1-1.25-.88c-4.36-11.9-8.02-11.93-13.56-12h-.21c-.7 0-2.38.09-3.37.2l.04 22.44 2.78.2q.66.06 1.34.07c2.43 0 5.39-.69 6.66-6l.07-.32a.3.3 0 0 1 .32-.26l1.96.12a.33.33 0 0 1 .3.35l-.02.39c-.15 2.47-.32 5.32-.32 7.7 0 3.96.24 7.22.33 8.43l.04.46a.33.33 0 0 1-.33.36l-2.01-.2a.3.3 0 0 1-.3-.28l-.04-.3c-.8-5.12-5-6.05-8.1-6.31l-2.67-.22.05 24.44c.95.27 2.63.64 3.48.77.83.13 1.8.27 2.76.27 3.15 0 7.17-1.3 10.47-11.36l.1-.3a.3.3 0 0 1 .31-.23l1.84.23c.17.03.29.17.29.33v.34c0 1.88-.02 4.43-.04 7.19-.02 3.26-.04 6.81-.04 9.9v.47a.33.33 0 0 1-.4.32m-37.03-5.99q-1.3 0-3.05-.25c-2.18-.3-5.38-1.05-7.96-3.9-3.15-4.24-5.19-9.11-7.16-13.82-1.3-3.13-2.66-6.36-4.3-9.33l.06 12.12c.04 8.57.4 9.25 2.82 10.02l.27.09q.22.08.23.31l.01 1.85a.33.33 0 0 1-.39.32l-.45-.08c-1.35-.24-5.86-.87-8.32-1.17s-6.96-.74-8.31-.82l-.36-.03a.33.33 0 0 1-.31-.33L368.7 72c0-.18.13-.32.3-.34l.36-.03c2.15-.17 2.61-.5 2.56-8.97l-.16-29.9c-.04-8.45-.67-8.95-2.83-9.38l-.31-.06a.33.33 0 0 1-.27-.32l-.01-1.79a.33.33 0 0 1 .33-.33l.43.02c1.11.07 5.79.16 8.25.16h.39q3.28-.01 5.45-.07c1.12-.03 2-.05 2.77-.05 11.36.02 18.74 6.35 18.82 16.12.05 6.88-3 11.21-9.61 13.6l1.64 3.82c3.3 7.72 6.72 15.71 11.57 22.3l.07.1q.07.1.07.2v.98q0 .19-.17.29l-.2.1c-.14.08-.71.34-2.22.34m-20.28-30 .6.02q2.39 0 3.77-1.4c1.65-1.66 2.45-4.91 2.43-9.95-.04-8.88-2.27-12.85-7.23-12.89h-.07c-.98 0-1.56.14-1.82.26l.11 23.81zM91.2 75.28a.33.33 0 0 1-.33-.32v-1.83q.02-.24.24-.32l.28-.08c2.56-.77 2.77-1.5 2.81-9.82l.16-30.1c.05-8.25-.15-8.95-2.63-9.4l-.32-.05a.33.33 0 0 1-.28-.33l.01-1.8a.33.33 0 0 1 .33-.34l.42.02c1.43.07 5.59.13 8 .13h.33c2.56 0 6.93-.1 8.34-.16l.42-.02a.33.33 0 0 1 .33.33l-.01 1.78c0 .16-.12.3-.27.32l-.32.06c-2.5.44-2.7 1.13-2.74 9.21L105.8 62c-.04 8.09.12 8.67 2.56 8.84l.36.02c.18.02.31.16.3.34v1.76c0 .18-.14.32-.31.33l-.36.02c-1.45.09-5.88.5-8.33.78s-6.88.87-8.31 1.12l-.46.07zm273.23-1.7-.45-.06c-1.44-.23-5.88-.76-8.32-1.01s-6.89-.6-8.34-.68l-.36-.02a.33.33 0 0 1-.32-.32v-1.71c0-.16.11-.3.27-.33l.36-.06c2.47-.2 2.64-.75 2.6-8.6l-.17-28.57c-.05-7.91-.22-8.5-2.74-8.93l-.32-.05a.33.33 0 0 1-.27-.33l-.02-1.74q0-.15.1-.24.1-.1.24-.1l.42.02c1.41.07 5.78.15 8.33.15h.3c2.4 0 6.6-.05 8.04-.12l.41-.02a.33.33 0 0 1 .33.33l.01 1.78c0 .16-.11.3-.27.33l-.33.06c-2.5.42-2.67 1.02-2.62 9.08l.16 29.16c.04 8.04.25 8.75 2.81 9.47l.28.08q.22.08.24.32l.01 1.79q0 .15-.11.25a.3.3 0 0 1-.27.08m-251.1-.77a.33.33 0 0 1-.33-.33V70.7q.01-.24.25-.32l.28-.08c2.38-.68 2.6-1.47 2.65-9.3l.16-28.73c.05-7.94-.12-8.53-2.62-8.95l-.33-.06a.33.33 0 0 1-.27-.33v-1.7c0-.16.13-.3.3-.32l.4-.05c1.5.06 5.68.12 8.09.12h.3c2.55 0 6.91-.08 8.33-.15l.42-.02a.33.33 0 0 1 .34.34l-.02 1.73c0 .16-.11.3-.27.32l-.32.06c-2.52.43-2.7 1-2.74 8.8l-.2 35.13c2.5-.06 6.16-.3 7.51-.4 1.78-.15 6.52-.53 8.61-9.62l.07-.28a.3.3 0 0 1 .3-.26l1.9-.1c.17 0 .31.12.33.29l.05.42c-.1 2.38-.3 7.87-.31 11.97v.36c0 .18-.14.32-.32.33l-.36.02c-8.87.5-17.74 1.3-26 2.1-1.5.15-4.17.48-5.7.71l-.45.07zm231.33-1.2-.44-.07a212 212 0 0 0-7.68-.8c-2.46-.21-8.3-.61-9.73-.66l-.38-.01a.33.33 0 0 1-.32-.33v-1.7q.01-.29.3-.34l.34-.03c1.68-.17 2.3-.83 2.3-2.41-.01-1.34-.5-3.03-.98-4.52l-1.94-5.88a250 250 0 0 0-11.22-.58.85.85 0 0 0-.8.56c-1.13 3.02-2.3 6.14-2.29 8.62.01 1.8.65 2.85 2 3.32l.27.09q.2.09.22.31v1.67a.33.33 0 0 1-.33.33l-.46-.05c-1.36-.15-4.76-.43-7.28-.58-2.35-.14-4.2-.17-5.4-.18h-.38a.33.33 0 0 1-.32-.34v-1.58c0-.13.07-.26.2-.3l.27-.12c3.1-.91 5.45-3.16 9.13-12.45 4.36-11 8.72-22.15 12.95-33.15a2.1 2.1 0 0 1 2.02-1.39c.95 0 1.76.58 2.06 1.49 4.5 13.6 8.97 27.3 13.26 40.7 1.77 5.52 3.36 7.14 4.68 8l.17.1q.15.11.15.28l.01 1.67a.33.33 0 0 1-.38.33m-28.83-21.48c.97.07 1.95.11 3.34.17l.54.03q2.5.12 5.04.19c-1.65-5.06-2.65-8.1-4.22-12.84-1.75 4.67-2.86 7.6-4.7 12.45m-18.2 19.83c-.34 0-.67-.16-.89-.43-9.22-11.42-19.83-21.41-30.82-31.46.1 1.67 0 3.75-.13 6.1-.37 7.3-.88 17.27 4.98 20.65l.19.11q.16.1.16.3v1.49q0 .14-.1.24a.3.3 0 0 1-.23.09l-.43-.03a139 139 0 0 0-8.6-.32c-1.05 0-1.94.02-2.76.04-.62 0-1.1-.41-1.16-1-.07-.59.3-1.12.89-1.25 2.96-.69 2.95-3.46 2.94-16.8v-.23c0-8.53-.05-17.61-.47-26.74a1.26 1.26 0 0 1 1.26-1.33c.36 0 .7.15.94.42 9.84 10.87 20.7 21.4 30.36 30.74-.1-1.8.04-4.05.2-6.6.5-7.86 1.1-17.63-5.05-20.88l-.2-.11a.3.3 0 0 1-.18-.3v-1.5q0-.15.1-.24.09-.1.22-.1l.42.02c.69.03 3.18.13 6.29.14h.12c2.05 0 3.45-.06 4.93-.12.63 0 1.1.4 1.19.99.08.58-.27 1.1-.84 1.26-2.86.78-2.95 2.47-2.88 17.63l.06 13.27c.02 4.61.11 9.58.63 14.67a1.16 1.16 0 0 1-1.14 1.28M148.9 69.7a.33.33 0 0 1-.33-.33l.01-1.7c0-.16.1-.3.25-.33l.3-.07c2.36-.58 2.58-1.3 2.62-8.63l.14-27.05c.04-7.43-.13-7.98-2.63-8.38l-.32-.05a.33.33 0 0 1-.28-.33v-1.7a.33.33 0 0 1 .34-.33l.41.02c1.49.06 5.7.11 8.11.11h.23c2.55 0 6.92-.07 8.34-.13l.41-.02a.33.33 0 0 1 .34.33l-.01 1.68c0 .17-.12.3-.28.33l-.32.05c-2.51.4-2.7.94-2.73 8.28l-.16 33.22h.21c2.53 0 6.03-.14 7.34-.2 1.78-.1 6.51-.33 8.59-8.94l.07-.28a.3.3 0 0 1 .3-.26l1.96-.06a.33.33 0 0 1 .33.34l-.02.42c-.07 1.75-.27 7.21-.29 11.39v.37c0 .18-.15.32-.33.33h-.37c-8.84.24-17.74.79-26.04 1.35-1.5.1-4.17.34-5.72.52zm35.45-2.04a.33.33 0 0 1-.33-.33V65.7q.01-.23.24-.31l.31-.1c2.57-.5 2.75-1.03 2.77-8.17l.1-25.96c.02-7.1-.15-7.63-2.65-8.01l-.33-.06a.33.33 0 0 1-.28-.32v-1.64c.01-.18.15-.32.33-.33l.4-.01c1.51.06 5.85.12 8.22.12h.14c2.35 0 6.81-.07 8.34-.13l.42-.02a.33.33 0 0 1 .33.33v1.66c0 .16-.13.3-.29.32l-.32.05c-2.5.39-2.68.91-2.7 7.97l-.08 25.75c-.02 7.04.16 7.55 2.64 7.86l.34.04c.17.03.3.17.3.33l-.01 1.65a.33.33 0 0 1-.33.33h-.96c-1.88 0-5.67.07-7.8.14-2.45.09-6.9.33-8.36.45zm46.3-.6a27.8 27.8 0 0 1-17.16-6.63c-5.25-4.45-8.13-10.24-8.1-16.31.04-13.17 13.3-23.3 25.11-23.54h.5c13.47 0 24.86 10.73 24.88 23.44.01 5.68-2.33 11.15-6.58 15.41a26.4 26.4 0 0 1-18.64 7.63m-.12-43.1c-8.47 0-12.77 6.74-12.78 20.05 0 5.58.8 10.07 2.42 13.33 2.08 4.2 5.54 6.34 10.28 6.34h.2c11.64-.14 12.88-13.84 12.87-19.73-.01-7.43-1.7-19.9-12.85-20z" style="fill:#f58220"/><path d="M170.52 64.84c-1.4.07-5.76.24-8.3.2l.16-33.93c.03-7.13.12-8.47 3.32-8.99v-.95a297 297 0 0 1-16.73.02v.97c3.2.51 3.27 1.87 3.23 9.1l-.14 27.05c-.04 7.23-.21 8.59-3.17 9.32v.97c1.47-.17 4.19-.43 5.75-.53 8.67-.58 17.37-1.11 26.07-1.34.01-3.99.2-9.3.29-11.42l-1.24.05c-2.09 8.68-6.78 9.36-9.24 9.48m-35.59 2.33c-1.4.1-5.75.4-8.29.41l.2-35.86c.05-7.54.14-8.95 3.34-9.5v-1a282 282 0 0 1-16.73.02v1.04c3.2.54 3.27 1.98 3.22 9.66l-.16 28.74c-.05 7.68-.22 9.13-3.17 9.98l-.01 1.03c1.48-.22 4.19-.55 5.74-.7 8.66-.85 17.34-1.63 26.03-2.11.03-4.18.22-9.73.31-11.95l-1.23.07c-2.1 9.13-6.79 9.97-9.25 10.17m-51.7-3.43-4.3-28.73c-.47-3.1-.79-5.64-.78-7.5.02-3.58 1.34-4.94 5.93-5.1v-1.1a366 366 0 0 1-20.26.04v1.16c3.94.13 5.16 2.95 5.14 6.45-.01 3.13-1.09 6.98-2 9.7q-3.84 11-7.53 22.06-5.02-12.8-9.91-25.63c-1.3-3.4-1.95-6.45-1.95-8.54 0-2.26 1.08-3.56 3.86-3.97v-1.2c-1.8.09-6.3.18-10.08.2-5.25.01-9.52-.06-10.34-.14v1.26c5.5 1.15 6.97 6.74 6.96 13.1 0 3.14-.34 6.54-.83 9.72-1.26 8.37-1.88 12.59-3.13 21.1-1.89 12.68-4.74 14.64-7.1 15.81v1.28a120.59 120.59 0 0 1 13.45-2.3V80.2c-3.18-.06-4.07-2.24-4.07-5.48 0-1.41.17-2.85.41-4.87a8483 8483 0 0 1 3.88-29.23c4.74 12.54 9.54 25.05 14.55 37.47a1 1 0 0 0 1.88-.07c4.04-12.65 8.13-25.28 12.4-37.86q1.81 12.52 3.67 25.03c.4 2.67.71 4.9.7 6.55 0 1.96-.42 3.22-1.73 3.77v1.13a161 161 0 0 1 15.22-1.99v-1.1c-2.04-.4-3.01-2.69-4.04-9.8m277.13-2.48-.16-29.15c-.04-7.8.03-9.25 3.23-9.8v-1.05a267 267 0 0 1-16.74-.03v1.01c3.2.56 3.3 2 3.34 9.63l.16 28.58c.05 7.64-.03 9.06-3.23 9.3l.01 1.03c1.48.07 5.9.43 8.37.68 2.46.24 6.89.78 8.37 1.01l-.01-1.05c-3.2-.9-3.3-2.36-3.34-10.16M91.46 21.3v1.08c3.2.57 3.27 2.07 3.23 10.11l-.16 30.09c-.04 8.04-.13 9.55-3.33 10.5v1.1c1.47-.26 5.9-.85 8.36-1.13s6.88-.7 8.36-.78V71.2c-3.2-.22-3.27-1.69-3.22-9.56l.16-29.43c.04-7.87.13-9.35 3.34-9.92v-1.05a271 271 0 0 1-16.73.04m93.04-.14v.94c3.2.49 3.27 1.79 3.24 8.73l-.09 25.95c-.02 6.94-.1 8.24-3.32 8.87v.93c1.48-.12 5.92-.36 8.39-.45 2.47-.08 6.91-.16 8.4-.14v-.92c-3.21-.4-3.29-1.69-3.27-8.57l.07-25.76c.02-6.88.1-8.17 3.31-8.67v-.92a305 305 0 0 1-16.73.01M393.8 49.9c7.53-2.46 9.9-7.13 9.86-13.18-.08-10.3-8.33-15.39-18.02-15.4-1.97-.01-4.67.13-8.7.12-2.37 0-7.13-.09-8.28-.16v1.06c2.96.58 3.38 2.01 3.42 10.08l.16 29.9c.05 8.06-.27 9.45-3.22 9.69v1.06c1.4.09 5.98.54 8.36.83 2.46.3 6.96.92 8.35 1.18v-1.1c-3.03-.97-3.29-2.45-3.33-10.7l-.06-12.34c0-.68.9-.92 1.24-.32 4.2 7.5 6.33 16.25 11.47 23.2 2.47 2.72 5.5 3.38 7.54 3.67 3.84.55 4.82 0 4.82 0v-.62c-5.87-7.97-9.65-17.94-13.6-26.97m-8.6-.74-2.87-.19-.12-24.82c.24-.36 1.14-.65 2.62-.64 5.5.04 7.9 4.48 7.93 13.6.04 8.68-2.32 12.4-7.56 12.05M338.96 61.1a4358 4358 0 0 0-13.26-40.69 1.45 1.45 0 0 0-2.73-.06 3640 3640 0 0 1-12.96 33.15c-3.65 9.23-6.1 11.85-9.55 12.86v.95q2.1 0 5.43.18c2.47.15 5.92.43 7.32.59v-.96c-1.82-.63-2.48-2.14-2.5-4 0-2.6 1.17-5.76 2.34-8.87.23-.63.83-1.04 1.49-1.02q2.22.06 4.43.17 3.59.16 7.3.44l2.1 6.34c.58 1.81 1 3.42 1 4.73.01 1.78-.72 2.9-2.93 3.13v.98c1.48.05 7.31.45 9.78.66 2.21.19 6.4.63 7.71.81v-1c-1.57-1.02-3.22-2.92-4.97-8.39m-20-10.41c-1.98-.1-3.13-.14-4.53-.26 2.3-6.05 3.45-9.1 5.75-15.24 2.07 6.24 3.1 9.38 5.18 15.73q-3.2-.08-6.4-.23m-18.7-29.46c-1.4.06-2.88.12-5.1.12a162 162 0 0 1-6.3-.13v.87c9.34 4.95 4.09 23.48 5.43 29.66q.07.38-.22.12c-10.76-10.4-21.54-20.82-31.58-31.92a.55.55 0 0 0-.96.4c.4 8.91.46 17.85.47 26.76.01 13.96.03 16.91-3.5 17.74-.5.11-.43.84.09.83 1.4-.03 2.96-.06 5.18 0 2.47.05 4.77.18 6.25.28v-.86c-8.79-5.07-4.18-22.95-5.38-28.85q-.06-.34.2-.11c11.23 10.24 22.5 20.75 32.07 32.6.28.34.8.11.76-.33-.51-5-.61-9.83-.64-14.74l-.05-13.27c-.07-15.65 0-17.4 3.4-18.32.5-.14.4-.87-.12-.85M441.5 36.98c.25.67 1.26.46 1.21-.26a133 133 0 0 1-.22-7.7c0-2.54.08-5.1.16-7.57-8.5.17-17 .12-25.5.09-1.57 0-5.92-.1-7.4-.18l.01 1.17c2.8.64 3.04 2.22 3.07 11.1l.1 32.95c.02 8.89-.38 10.4-3.07 10.63v1.17c1.63.17 5.8.71 8 1.05l6.2.98c6.61 1.05 15.33 2.63 18.18 3.22 0-5.7.09-13 .09-17.09l-1.15-.15c-4.16 12.7-9.7 12.25-14.02 11.58a35 35 0 0 1-4.08-.95l-.05-25.75 3.43.28c2.87.24 7.85 1.07 8.76 6.92l1.22.13c-.16-2.03-.33-5.14-.33-8.48 0-2.43.16-5.26.32-7.76l-1.23-.07c-1.55 6.5-5.47 6.74-8.74 6.5l-3.44-.27-.05-23.73a35 35 0 0 1 4.1-.28c5.9.06 9.85-.05 14.43 12.47m-211.4-16.03c-11.96.26-24.38 10.3-24.42 22.83-.04 12.59 12.8 22.04 24.57 22.22 12.3.2 24.52-9.41 24.5-22.32-.02-13-12.1-23-24.65-22.73m.15 43.1c-11.42.15-13.65-11.13-13.64-20.38.01-9.34 2.07-20.87 13.65-20.77 11.2.09 13.55 11.87 13.56 20.71 0 8.77-2.6 20.31-13.57 20.45" style="fill:url(#e)"/><path d="m365.7 10.98.36.08.34-.08a10 10 0 0 1 2.94-.22c.69.04 4.98.13 7.63.14h.4c2.02 0 3.67-.04 5.15-.08q1.8-.05 3.05-.05c5.45.01 10.61 1.19 14.91 3.4l1.04.53.99-.98a10.5 10.5 0 0 1 7.84-2.87c1.22.07 5.41.15 6.83.16h2.8l8.89.03c5.32 0 9.63-.04 13.55-.12h.22c2.8 0 5.54 1.15 7.5 3.14a10.6 10.6 0 0 1 3.04 7.75c-.08 2.22-.16 4.74-.16 7.22 0 2.41.07 4.83.23 7.38a10.6 10.6 0 0 1-5.7 10l-.83.42-.03.94q-.05 1.31-.05 2.34 0 3.03.19 6.04l.05.85.74.44a10.6 10.6 0 0 1 5.24 9.1c0 1.82-.02 4.28-.04 6.95v.31c-.02 3.25-.04 6.77-.04 9.82q-.01 1.2-.26 2.34a14 14 0 0 1-1.53 3.46v.01a14.5 14.5 0 0 1-5.97 5.27 20.4 20.4 0 0 1-15.92 1.42l-.67-.2-.68-.23a30 30 0 0 1-3.06-1.26l-.23-.1q-1.74-.84-3.41-1.58l-1.56-.68-1.6-.69a123 123 0 0 0-9.03-3.34l-.3-.1a93 93 0 0 0-6.32-1.77l-.13-.03q-1.25-.3-2.45-.55l-.22-.04a76 76 0 0 0-3.03-.56l-.27-.05q-1.14-.17-2.22-.32l-.13-.01q-1.08-.14-2.12-.24h-.09a59 59 0 0 0-5.57-.26H386l-1.18.02h-.1q-1.29.04-2.48.13l-.22.02q-1.58.13-3 .34l-.67.1-1.8.33-1 .22-.39.1q-.64.14-1.24.32l-.4.11q-.43.12-.82.25l-.23.07-1.19.4-.13.06q-1.15.42-2.1.84l-.03.02c-2.08.92-3.45 1.79-4.17 2.22l-.15.1-.15.08-.15.08v11.96a25 25 0 0 1 2.94-3.62 28 28 0 0 1 3.77-3.22c8.58-6.11 19.5-5.9 29.17-2.8 10.62 3.39 19.09 11.1 29.57 14.77a37 37 0 0 0 11.27 2.12h1.06l1.3-.07 2.12-.14-.95-2.07a9.9 9.9 0 0 1-.09-8.34 8.7 8.7 0 0 1 6.43-4.68l.5-.07c2.85-2.6 4.5-6.24 4.5-10.14 0-3.05.02-6.56.04-9.8v-.3l.03-6.98c0-4.57-2.3-8.86-6.08-11.4a99 99 0 0 1-.11-6.36 13.8 13.8 0 0 0 6.58-12.56c-.15-2.5-.22-4.84-.22-7.2 0-2.42.08-4.9.15-7.11a13.8 13.8 0 0 0-3.95-10.1 13.8 13.8 0 0 0-9.8-4.1h-.25c-3.92.09-8.22.12-13.51.12q-4.4 0-8.87-.02h-2.81c-1.39-.01-5.48-.1-6.66-.16-3.54-.2-6.9.93-9.59 3.17a36.6 36.6 0 0 0-15.36-3.25c-.88 0-1.9.02-3.16.05-1.44.03-3.06.07-5.05.07h-.39c-2.65 0-6.88-.1-7.43-.13q-1.75-.12-3.49.22a14 14 0 0 0-3.28-.25c-1.12.06-5.02.11-7.44.11h-.26c-2.35 0-6.54-.08-7.75-.13a13.6 13.6 0 0 0-10.78 4.44 13.7 13.7 0 0 0-10.88-5.34h-2.7c-4.77 0-9.19 2.52-11.66 6.48q-.71-.98-1.59-1.8a13.7 13.7 0 0 0-10.09-3.78c-1.35.06-2.55.1-4.45.1-2.27 0-4.45-.06-5.73-.11A13.7 13.7 0 0 0 276.6 15a340 340 0 0 1-3.6-3.89c-2.6-2.86-6.3-4.5-10.17-4.5h-1.31a13.8 13.8 0 0 0-11.36 6.02 39 39 0 0 0-20.35-5.41 40 40 0 0 0-18.08 5.07 13.7 13.7 0 0 0-11.1-4.87 294 294 0 0 1-15.57 0 13.6 13.6 0 0 0-9.97 3.72 13.7 13.7 0 0 0-10-3.7c-1.23.06-5.38.13-7.77.13h-.23c-2.43 0-6.36-.05-7.5-.1a13.7 13.7 0 0 0-10.03 3.7 13.7 13.7 0 0 0-10.02-3.67c-1.22.05-5.42.12-7.76.13h-.25c-2.42 0-6.33-.06-7.47-.1q-1.66-.08-3.27.23c-1.07-.2-2.24-.28-3.27-.23a261 261 0 0 1-7.72.14h-.33c-2.4 0-6.26-.05-7.39-.1q-2.22-.1-4.34.5a14 14 0 0 0-4.13-.5c-2.14.08-6.22.16-9.08.17h-1.92c-5 0-7.23-.06-7.6-.07a13.6 13.6 0 0 0-7.42 1.43 14 14 0 0 0-6.8-1.44c-1.58.08-5.87.17-9.49.18h-1.56c-4.87 0-7.37-.07-7.5-.08a13.8 13.8 0 0 0-10.45 3.5 13.8 13.8 0 0 0-4.52 10.17v1.26c0 4.88 2.69 9.46 6.93 11.92l.02 1.17c0 2.2-.23 4.87-.68 7.7-1.25 8.39-1.88 12.62-3.12 21.11a42 42 0 0 1-1.4 6.6 13.6 13.6 0 0 0-5.85 11.24v1.28c0 3.83 1.58 7.38 4.33 9.97q.58.05 1.15.15a8.7 8.7 0 0 1 6.42 4.68 9.9 9.9 0 0 1-.08 8.34l-.95 2.07 2.13.14a34 34 0 0 0 2.35.07c3.74-.06 7.66-.85 11.27-2.12 10.48-3.67 18.94-11.38 29.56-14.78 9.68-3.1 20.6-3.3 29.18 2.8q2.02 1.45 3.76 3.23a25 25 0 0 1 2.95 3.62V89.94c-.18-.12-18.92-15.4-60.12 4.39-9.85 4.73-17.28 2.25-21.32.2-4.67-2.36-7.06-7.52-7.43-10.97v-1.13c0-3.62 1.81-6.93 4.85-8.86l.45-.29.19-.5c.44-1.18 1.1-3.48 1.73-7.72 1.24-8.5 1.87-12.72 3.12-21.09.47-3 .72-5.82.72-8.18q0-1.31-.11-2.35l-.1-.88-.79-.39a10.7 10.7 0 0 1-5.96-9.47v-1.27A10.56 10.56 0 0 1 32 10.96c.34.02 3.03.09 7.74.09h1.57a295 295 0 0 0 10.12-.2c1.89 0 3.74.5 5.35 1.46l.82.49.82-.5a10.5 10.5 0 0 1 6.37-1.44c.57.03 2.94.09 7.83.09h1.92c2.89-.01 7.01-.1 9.18-.17 1.18-.05 2.4.12 3.54.49l.49.15.48-.16q1.8-.57 3.71-.5c1.16.06 5.1.12 7.53.12h.33c2.37 0 6.64-.08 7.89-.14.86-.05 1.89.03 2.76.23l.35.07.35-.07q1.36-.3 2.77-.25c1.17.06 5.15.12 7.61.12h.26a280 280 0 0 0 8.39-.15 10.5 10.5 0 0 1 8.14 3.85l1.25 1.52 1.24-1.53q.4-.51.89-.96a10.4 10.4 0 0 1 7.74-2.9c1.18.05 5.19.1 7.65.1h.23a286 286 0 0 0 8.38-.13 10.5 10.5 0 0 1 8.15 3.86l1.25 1.52 1.23-1.53a10.5 10.5 0 0 1 8.6-3.86 300 300 0 0 0 16.3-.02 10.5 10.5 0 0 1 8.62 4.5l.43.66.81.02.84.1.45-.28a36.7 36.7 0 0 1 18.2-5.2c6.7 0 13.53 2.06 19.25 5.78l1.5.98.8-1.6a10.5 10.5 0 0 1 9.39-5.75h1.31c2.97 0 5.8 1.25 7.8 3.45 1.72 1.9 3.48 3.78 5.37 5.78l1.94 2.05.77-2.72a10.43 10.43 0 0 1 10.6-7.68c1.32.06 3.55.12 5.86.12a91 91 0 0 0 5.08-.12 10.5 10.5 0 0 1 9.7 6.46l1.54 3.66 1.65-4.26a10.6 10.6 0 0 1 9.82-6.74h2.71c3.94 0 7.52 2.16 9.34 5.65l1.29 2.48 1.49-2.36a10.5 10.5 0 0 1 9.4-4.88c1.23.06 5.5.13 7.88.14h.26c2.46 0 6.44-.06 7.59-.11 1-.04 1.88.04 2.79.24" class="l"/><path d="m415.04 113.45-.03-.04a54 54 0 0 0-9.3-8.58c-1.58-1.16-3.16-2.42-4.86-3.38-1-.56-1.72-1-2.4-1.39-.62-.34-.32-.33.2-.08 2.39 1.13 5.13 2.7 6.04 3.25 1.07.65 9.61 7.33 11.3 9.25l.02.01c4.37 4.57 20.76 15.47 28.17 11.09.19-.12.3-.59.14-1.17-.17-.64-.66-1.4-1.5-1.52q-.11-.01-.21-.02c-.4.03-.67-.34-.67-.73 0-.4.3-.7.67-.69h.08c7.97.32 13.25-1.35 16.61-5.24a11.8 11.8 0 0 0 2.85-8.52 8.8 8.8 0 0 0-3.03-6.03 9 9 0 0 0-7.17-1.95 5.3 5.3 0 0 0-3.9 2.77 6 6 0 0 0 .8 5.98c1.23 1.52 2.86 2.14 4.63 1.3a2.8 2.8 0 0 0 1.56-2.45c.15-.77-.08-2.17-.98-2.92-.3-.24-.45-.24-.74-.4.05-.2.91-.08 1.6.52.9.8 1.24 1.89 1.25 2.98.02 2.08-1.52 3.86-2.43 4.57-2.49 1.97-6.26 2.98-11.52 3.09-7.96.17-15.87-3.5-22.18-6.45-2.72-1.26-21.7-14.8-34.85-12.95-12.26 1.7-21.93 10.05-20.69 23.3.8 8.55 6.74 12.26 11.3 12.75 5.6.62 10.3-2.58 12-8.15a9.25 9.25 0 0 0-4.57-11.13c-3.03-1.6-7.66-1.87-10.78 2.71a6.2 6.2 0 0 0 .2 7.09 6.24 6.24 0 0 0 7.36 2.35c.36-.14.74.06.86.43a.7.7 0 0 1-.42.91 7.46 7.46 0 0 1-8.87-2.84c-1.7-2.43-1.51-5.96-.63-7.89s3.5-6.1 11.6-6.06c5.06.03 10.13 4.34 11.92 8.6 3.07 7.3 2.13 9.99 2.64 11.52.79 2.35 2.2 3.7 3.81 3.6 1.9-.06 3.6-1.9 4.24-4.56a.7.7 0 0 1 .55-.52c.27-.03.54.09.68.34 3.96 6.76 8.66 9.21 15.36 10.97 1.9-5.67 2.15-9.78-1.3-15.9a46 46 0 0 0-5.41-7.82m-35.44-.16a6.5 6.5 0 0 0-2.73-.7q-.52 0-1 .12a4.5 4.5 0 0 1 2.83-1.04c.9 0 1.87.25 2.72.7a6.2 6.2 0 0 1 3.1 7.55 10 10 0 0 1-1.33 2.76c.04-.45 1.9-6.77-3.6-9.39m-3.73-11.32c17.52-7.4 31.96 6.72 36.48 21.52-1.12-.04-9.31-25.3-36.48-21.52m78.94 25.1c-1.07 0-2.56.3-3.6 1.68a5 5 0 0 0-.25 5.01c.77 1.43 2.17 2.08 3.94 1.86.5-.46.97-1.06 1.1-1.8q.19-1.09-.75-2.22a.6.6 0 0 1 .04-.83.53.53 0 0 1 .78.06 3.9 3.9 0 0 1 1.02 3.23c-.3 1.71-1.82 2.93-2.67 3.38-2.33 1.24-5.57 1.5-9.89.8-6.54-1.06-12.45-5.25-17.18-8.6l-.3-.23c.1 2-.12 3.91-.52 5.72q.85.58 1.72 1.13c5.34 3.35 10.6 6.29 17.25 7.43 4.3.73 9.34.8 12.85-2.03a9.8 9.8 0 0 0 3.6-6.54 7.4 7.4 0 0 0-1.57-5.38 7.4 7.4 0 0 0-5.57-2.67M42.6 129.4l-.3.22c-4.73 3.36-10.65 7.55-17.18 8.6-4.32.7-7.56.45-9.89-.79-.85-.45-2.38-1.67-2.67-3.38q-.3-1.67 1.02-3.23c.2-.25.55-.27.78-.06s.24.59.04.83q-.94 1.13-.75 2.23c.12.73.6 1.33 1.1 1.8 1.77.21 3.16-.44 3.94-1.87.83-1.54.73-3.7-.25-5a4.4 4.4 0 0 0-3.6-1.7 7.4 7.4 0 0 0-5.58 2.68 7.4 7.4 0 0 0-1.57 5.38 9.8 9.8 0 0 0 3.61 6.54c3.51 2.83 8.55 2.76 12.85 2.03 6.66-1.14 11.9-4.08 17.25-7.43q.87-.55 1.72-1.13c-.4-1.8-.62-3.71-.52-5.72m41.86-35.66C71.3 91.9 52.32 105.44 49.6 106.7c-6.31 2.94-14.22 6.62-22.18 6.45-5.26-.11-9.03-1.12-11.52-3.09-.91-.71-2.45-2.49-2.43-4.57a3.9 3.9 0 0 1 1.26-2.98c.67-.6 1.53-.71 1.58-.52-.28.16-.44.16-.73.4-.9.75-1.14 2.15-.99 2.92 0 .9.52 1.95 1.57 2.45 1.77.84 3.4.22 4.63-1.3a6 6 0 0 0 .79-5.98 5.3 5.3 0 0 0-3.9-2.77 9 9 0 0 0-7.17 1.95 8.8 8.8 0 0 0-3.02 6.03c-.26 2.97.8 6.15 2.85 8.52 3.36 3.9 8.64 5.56 16.61 5.24h.08c.37 0 .67.3.67.69s-.27.76-.67.73q-.1 0-.2.02c-.85.12-1.34.88-1.51 1.52-.15.58-.05 1.05.14 1.17 7.4 4.38 23.8-6.52 28.17-11.09v-.01c1.7-1.92 10.25-8.6 11.32-9.25.9-.55 3.65-2.12 6.04-3.25.52-.25.82-.26.2.08-.68.38-1.4.83-2.4 1.39-1.7.96-3.28 2.22-4.86 3.38a54 54 0 0 0-9.3 8.58l-.03.04a47 47 0 0 0-5.42 7.82c-3.45 6.12-3.19 10.23-1.29 15.9 6.7-1.76 11.4-4.2 15.35-10.97a.7.7 0 0 1 .68-.34c.27.04.49.25.55.52.64 2.67 2.35 4.5 4.24 4.57 1.62.09 3.03-1.26 3.82-3.6.5-1.54-.43-4.22 2.64-11.52 1.79-4.27 6.86-8.58 11.9-8.6 8.12-.05 10.72 4.13 11.61 6.05.9 1.93 1.08 5.46-.62 7.89a7.46 7.46 0 0 1-8.87 2.84.7.7 0 0 1-.42-.9c.12-.38.5-.58.86-.44a6.24 6.24 0 0 0 7.35-2.35 6.2 6.2 0 0 0 .2-7.09c-3.11-4.58-7.74-4.32-10.77-2.7a9.25 9.25 0 0 0-4.58 11.12c1.7 5.57 6.42 8.77 12 8.15 4.56-.49 10.5-4.2 11.3-12.74 1.25-13.26-8.42-21.6-20.68-23.31m-27.16 29.74c4.52-14.8 18.95-28.91 36.48-21.52-27.17-3.79-35.36 21.48-36.48 21.52m29.16-.8a10 10 0 0 1-1.33-2.77 6.2 6.2 0 0 1 3.1-7.54 6 6 0 0 1 2.72-.7c1.05 0 2 .37 2.83 1.03a5 5 0 0 0-1-.13c-.9 0-1.85.3-2.73.71-5.5 2.62-3.63 8.94-3.59 9.4" class="l"/></g></svg>