<?xml version="1.0" encoding="utf-8"?>
<svg viewBox="0 19.55 339 75.22" xmlns="http://www.w3.org/2000/svg" xmlns:xlink="http://www.w3.org/1999/xlink">
  <defs>
    <radialGradient id="radial-gradient" cx="312.96" cy="48.38" r="26.04" gradientTransform="matrix(1 0 0 -1 0 94.2)" gradientUnits="userSpaceOnUse">
      <stop offset="0" stop-color="#e42f43"/>
      <stop offset="1" stop-color="#da2d3f"/>
    </radialGradient>
    <linearGradient id="linear-gradient" x1="312.96" y1="22.34" x2="312.96" y2="74.42" gradientTransform="matrix(1 0 0 -1 0 94.2)" gradientUnits="userSpaceOnUse">
      <stop offset="0" stop-color="#8f1a26"/>
      <stop offset="0.04" stop-color="#8f1a26" stop-opacity=".83"/>
      <stop offset="0.1" stop-color="#8f1a26" stop-opacity=".61"/>
      <stop offset="0.16" stop-color="#8f1a26" stop-opacity=".42"/>
      <stop offset="0.24" stop-color="#8f1a26" stop-opacity=".26"/>
      <stop offset="0.32" stop-color="#8f1a26" stop-opacity=".14"/>
      <stop offset="0.43" stop-color="#8f1a26" stop-opacity=".06"/>
      <stop offset="0.58" stop-color="#8f1a26" stop-opacity=".01"/>
      <stop offset="1" stop-color="#8f1a26" stop-opacity="0"/>
    </linearGradient>
    <radialGradient id="radial-gradient-2" cx="255.66" cy="48.61" r="26.04" gradientTransform="matrix(1 0 0 -1 0 94.2)" gradientUnits="userSpaceOnUse">
      <stop offset="0" stop-color="#fff"/>
      <stop offset="0.7" stop-color="#fdfdfd"/>
      <stop offset="0.95" stop-color="#f6f6f6"/>
      <stop offset="1" stop-color="#f4f4f4"/>
    </radialGradient>
    <linearGradient id="linear-gradient-2" x1="255.66" y1="22.57" x2="255.66" y2="74.65" gradientTransform="matrix(1 0 0 -1 0 94.2)" gradientUnits="userSpaceOnUse">
      <stop offset="0" stop-color="#939392"/>
      <stop offset="0.04" stop-color="#939392" stop-opacity=".8"/>
      <stop offset="0.1" stop-color="#939392" stop-opacity=".59"/>
      <stop offset="0.17" stop-color="#939392" stop-opacity=".4"/>
      <stop offset="0.24" stop-color="#939392" stop-opacity=".25"/>
      <stop offset="0.33" stop-color="#939392" stop-opacity=".14"/>
      <stop offset="0.43" stop-color="#939392" stop-opacity=".06"/>
      <stop offset="0.58" stop-color="#939392" stop-opacity=".01"/>
      <stop offset="1" stop-color="#939392" stop-opacity="0"/>
    </linearGradient>
    <radialGradient id="radial-gradient-3" cx="198.36" cy="48.61" r="26.04" gradientTransform="matrix(1 0 0 -1 0 94.2)" xlink:href="#radial-gradient-2"/>
    <linearGradient id="linear-gradient-3" x1="198.36" y1="22.57" x2="198.36" y2="74.65" gradientTransform="matrix(1 0 0 -1 0 94.2)" xlink:href="#linear-gradient-2"/>
    <radialGradient id="radial-gradient-4" cx="141" cy="48.61" r="26.04" gradientTransform="matrix(1 0 0 -1 0 94.2)" xlink:href="#radial-gradient-2"/>
    <linearGradient id="linear-gradient-4" x1="141" y1="22.57" x2="141" y2="74.65" gradientTransform="matrix(1 0 0 -1 0 94.2)" xlink:href="#linear-gradient-2"/>
    <radialGradient id="radial-gradient-5" cx="83.4" cy="48.61" r="26.04" gradientTransform="matrix(1 0 0 -1 0 94.2)" xlink:href="#radial-gradient-2"/>
    <linearGradient id="linear-gradient-5" x1="83.4" y1="22.57" x2="83.4" y2="74.65" gradientTransform="matrix(1 0 0 -1 0 94.2)" xlink:href="#linear-gradient-2"/>
    <radialGradient id="radial-gradient-6" cx="26.04" cy="48.61" r="26.04" gradientTransform="matrix(1 0 0 -1 0 94.2)" xlink:href="#radial-gradient-2"/>
    <linearGradient id="linear-gradient-6" x1="26.04" y1="22.57" x2="26.04" y2="74.65" gradientTransform="matrix(1 0 0 -1 0 94.2)" xlink:href="#linear-gradient-2"/>
    <style>.cls-13,.cls-15{fill:#fff}.cls-14,.cls-16{fill:#101820}.cls-15,.cls-16{fill-rule:evenodd}</style>
  </defs>
  <path d="M313 19.78c14.359 0 26 11.641 26 26s-11.641 26-26 26-26-11.641-26-26 11.641-26 26-26Z" style="fill:url(#radial-gradient)"/>
  <path d="M313 19.78c14.359 0 26 11.641 26 26s-11.641 26-26 26-26-11.641-26-26 11.641-26 26-26Z" style="fill:url(#linear-gradient)"/>
  <path d="M255.66 19.55c14.359 0 26 11.641 26 26s-11.641 26-26 26-26-11.641-26-26 11.641-26 26-26Z" style="fill:url(#radial-gradient-2)"/>
  <path d="M255.66 19.55c14.359 0 26 11.641 26 26s-11.641 26-26 26-26-11.641-26-26 11.641-26 26-26Z" style="fill:url(#linear-gradient-2)"/>
  <path d="M198.36 19.55c14.359 0 26 11.641 26 26s-11.641 26-26 26-26-11.641-26-26 11.641-26 26-26Z" style="fill:url(#radial-gradient-3)"/>
  <path d="M198.36 19.55c14.359 0 26 11.641 26 26s-11.641 26-26 26-26-11.641-26-26 11.641-26 26-26Z" style="fill:url(#linear-gradient-3)"/>
  <path d="M141 19.55c14.359 0 26 11.641 26 26s-11.641 26-26 26-26-11.641-26-26 11.641-26 26-26Z" style="fill:url(#radial-gradient-4)"/>
  <path d="M141 19.55c14.359 0 26 11.641 26 26s-11.641 26-26 26-26-11.641-26-26 11.641-26 26-26Z" style="fill:url(#linear-gradient-4)"/>
  <path d="M83.4 19.55c14.359 0 26 11.641 26 26s-11.641 26-26 26-26-11.641-26-26 11.641-26 26-26Z" style="fill:url(#radial-gradient-5)"/>
  <path d="M83.4 19.55c14.359 0 26 11.641 26 26s-11.641 26-26 26-26-11.641-26-26 11.641-26 26-26Z" style="fill:url(#linear-gradient-5)"/>
  <path d="M26 19.55c14.359 0 26 11.641 26 26s-11.641 26-26 26-26-11.641-26-26 11.641-26 26-26Z" style="fill:url(#radial-gradient-6)"/>
  <path d="M26 19.55c14.359 0 26 11.641 26 26s-11.641 26-26 26-26-11.641-26-26 11.641-26 26-26Z" style="fill:url(#linear-gradient-6)"/>
  <path class="cls-13" d="M291.23 54.62c-2.07-6.7-1.62-12.6 0-18.81 1.72-.1 3.44-.18 5.16-.25 2.45-.1 4 .91 3.6 4.88a7.352 7.352 0 0 1-1.76 4.33c1.26.58 1.94 2.46 2.11 4.64.36 4.49-1 6-3.84 5.71-1.75-.12-3.5-.35-5.27-.5Zm2.42-14.52a28.872 28.872 0 0 0-.39 3.21h1.6c.77 0 1.34-.56 1.46-1.71.16-1.52-.54-1.55-1.35-1.54Zm-.41 6.73c.06 1.2.19 2.395.39 3.58l1.65.08c.93 0 1.57-.24 1.43-1.72-.14-1.73-1-1.87-2.25-1.91ZM301.09 54.77c.09-6.34 2.32-12.78 4.91-19.28l4.58-.06c1.23 6.49 3.46 13 4.92 19.53H311c-.23-.86-.46-1.72-.68-2.58h-4.69c-.09.85-.15 1.7-.19 2.55Zm6.73-13.45c-.6 2.33-1.13 4.65-1.53 7h3.07c-.58-2.32-1.12-4.69-1.54-7ZM317 55c.35-6.489.35-12.991 0-19.48h4.17c.653 4.939.807 9.93.46 14.9l6.09-.08a44.506 44.506 0 0 1-.83 4.45c-3.24.15-6.57.21-9.89.21ZM328.09 54.77a44.912 44.912 0 0 0 .08-19c1.07.06 2.36.2 3.43.28a32.844 32.844 0 0 1 .63 14.05h4.38a29.462 29.462 0 0 1-1.5 4.29c-2.53.2-4.46.22-7.02.38Z"/>
  <path class="cls-14" d="M28.72 30c-1.33 0-2.55 0-3.72-.07a61.054 61.054 0 0 0-9.27.23h-.28l-.08.28c-1.67 6.72-2.94 15.14-.86 31.25v.4h.74c1.61 0 3.11.09 4.63.09 1.36 0 2.74 0 4.23-.13h.4v-.4c-.08-3.1-.08-6.21-.08-9.26h4.71c4.8-.06 8.39-1.3 10.69-3.69a10.141 10.141 0 0 0 2.6-7.47c-.27-6.77-5.52-11.05-13.71-11.23Zm3.71 10.61a3.293 3.293 0 0 1-.92 2.38 4.74 4.74 0 0 1-3.36 1.24h-3.79c0-1.19.05-2.48.08-3.74 0-1 0-1.9.07-2.79H27c1.65-.02 5.43.24 5.43 2.92ZM83.52 29a16.33 16.33 0 0 0-15.23 10.1A16.167 16.167 0 0 0 67 45.39c.12 9.63 7 16.7 16.49 16.81 9.208.001 16.641-7.523 16.53-16.73-.06-9.083-7.417-16.426-16.5-16.47Zm-5.6 16.41c0-3.9 1.45-8.06 5.53-8.08h.2a4.599 4.599 0 0 1 3.28 1.3c1.42 1.39 2.28 3.93 2.28 6.78 0 3.13-.74 8.39-5.64 8.41-5.25.02-5.65-6.43-5.65-8.39ZM158.82 31h-.3c-2.53-.08-3-.09-5.65-.15h-1.94v.42a57.018 57.018 0 0 1-1.66 16.35c-.69-3.87-1.61-7.38-2.57-11.06-.46-1.79-.94-3.63-1.42-5.6l-.07-.27h-.28a71.206 71.206 0 0 0-7.45 0h-.29l-.07.27c-.6 2.48-1.26 4.76-1.89 7-.93 3.23-1.81 6.3-2.45 9.69a57.117 57.117 0 0 1-1.35-16.44v-.41h-7.49l-.08.3c-2.15 8.13-.26 17.9 6 30.76l.11.21h.23c2.07 0 3.13.07 4.15.07 1.02 0 1.86 0 3.54-.06h.34v-.34c.55-5.6 1.67-11.37 2.77-17 1.12 5.59 2.25 11.36 2.81 17v.36h.36c1.58-.07 3-.07 4.42-.07h4.23l.1-.22c5.57-11.5 7.65-22.32 5.87-30.45ZM195.94 54v-4.11c4.14 0 8.35 0 12.51-.1h.4v-7.92h-.42c-4.1-.1-8.31-.14-12.5-.11V38.1c3.28 0 6.45 0 9.8.14l5 .11h.5l-.08-.49a36.313 36.313 0 0 0-1.93-6.86l-.09-.24h-.25a78.13 78.13 0 0 0-22.13 0h-.32l-.06.29a67.537 67.537 0 0 0 0 29.94l.07.28h.28c3.93.543 7.892.827 11.86.85a85.57 85.57 0 0 0 11.32-.8h.25l.09-.23a25.213 25.213 0 0 0 1.41-7.09v-.48h-.49c-5.03.37-10.16.48-15.22.48ZM270.43 55.1c.45-5.64-1.77-7.08-4.65-8.2a6.86 6.86 0 0 0 4.45-7.22c-.57-6.6-5.14-9.91-14-10.12h-1.72a47.74 47.74 0 0 0-10.41.76h-.24l-.07.23c-3.48 10.34-3.8 21.51-.86 30.66l.07.24h.25c2.311.41 4.653.611 7 .6h2.07v-.43c-.17-3.56-.23-7.21-.28-10.74v-.1h2.75c2 0 3.29.36 4 1.12.9.93 1 2.54 1 4.68a20.658 20.658 0 0 0 .2 5.15l.1.32h.33c1-.07 2-.1 2.93-.13 2.106-.02 4.21-.16 6.3-.42h.3l.3-1.73-.57.1c.042-.384.109-.765.2-1.14.29-1.185.5-2.387.63-3.6ZM260.22 41c.019.294-.018.59-.11.87a2.234 2.234 0 0 1-.45.75c-.65.66-1.94 1-4 1H252c0-1.77 0-3.6.09-5.57 1.45 0 2.92-.06 4.35-.06 2.34.01 3.74 1.11 3.78 3.01Z"/>
  <g>
    <path class="cls-13" d="M338.37 78.55h-55v15.63h55Z"/>
    <path class="cls-14" d="M203.26 78.18v16.59h135.67V78.18Zm134.39 15.33h-52.11V79.45h52.11Z"/>
    <path class="cls-15" d="M207.14 80.5h6.38a4.321 4.321 0 0 1 3.12 1c.348.375.617.818.79 1.3a4.26 4.26 0 0 1-.92 4.46 4.91 4.91 0 0 1-3.46 1.06H211v4.62h-3.9V80.5Zm3.86 5.3h.94a2.392 2.392 0 0 0 1.56-.39c.146-.122.262-.276.34-.45a1.463 1.463 0 0 0 .01-1.09 1.687 1.687 0 0 0-.29-.46 2.001 2.001 0 0 0-1.46-.41H211v2.8ZM220.43 86.38a5.716 5.716 0 0 1 .31-2.56 5.997 5.997 0 0 1 1.37-2.17 5.71 5.71 0 0 1 2.17-1.38c.82-.291 1.694-.4 2.56-.32.868-.06 1.74.059 2.56.35a5.88 5.88 0 0 1 3.9 6 7.85 7.85 0 0 1-.73 3.57 5.338 5.338 0 0 1-2.12 2.13 6.995 6.995 0 0 1-3.45.78 7.988 7.988 0 0 1-3.48-.67 5.332 5.332 0 0 1-2.24-2.11 7.002 7.002 0 0 1-.85-3.63Zm3.84 0a4.101 4.101 0 0 0 .7 2.7c.231.273.522.489.85.63.331.143.69.208 1.05.19.343.015.684-.046 1-.18.332-.14.629-.352.87-.62.543-.86.786-1.877.69-2.89a3.93 3.93 0 0 0-.71-2.57 2.452 2.452 0 0 0-.87-.62 2.37 2.37 0 0 0-1-.19 2.659 2.659 0 0 0-1 .2 2.246 2.246 0 0 0-.83.63 4.114 4.114 0 0 0-.7 2.72ZM235.82 80.44h3.64l1.31 6.94 1.88-6.94h3.64l1.92 6.94 1.31-6.94h3.63l-2.7 12.42h-3.8L244.47 85l-2.17 7.82h-3.76ZM256.65 80.44h10.29v2.66h-6.44v2h6v2.5h-6v2.5h6.63v2.82h-10.48ZM270.5 92.87V80.44h6.39a9.243 9.243 0 0 1 2.72.31c.622.19 1.159.589 1.52 1.13.394.591.597 1.29.58 2a3.34 3.34 0 0 1-1.65 3 4.642 4.642 0 0 1-1.35.49 4.14 4.14 0 0 1 1 .46c.226.194.431.412.61.65.2.242.381.499.54.77l1.86 3.61h-4.29l-2-3.8a2.915 2.915 0 0 0-.7-1 1.661 1.661 0 0 0-.94-.29h-.34v5Zm3.85-7.4H276a6.761 6.761 0 0 0 1-.16c.246-.052.466-.19.62-.39.157-.211.241-.467.24-.73a1.087 1.087 0 0 0-.09-.5 1.007 1.007 0 0 0-.29-.42A2.305 2.305 0 0 0 276 83h-1.69v2.52Z"/>
    <path class="cls-16" d="M290.65 81.77v4.7h2a4.404 4.404 0 0 0 2.53-.57 2 2 0 0 0 .81-1.77 2 2 0 0 0-.82-1.81 4.725 4.725 0 0 0-2.63-.57Zm-1.39-1.21h3c.688-.009 1.376.028 2.06.11.462.078.91.223 1.33.43.578.298 1.07.739 1.43 1.28.312.519.475 1.114.47 1.72a3.34 3.34 0 0 1-1.7 3 4.3 4.3 0 0 1-1.34.48c-.661.11-1.33.16-2 .15h-1.86v5.16h-1.39ZM306.65 92.69h-6.4V80.35h1.4V91.5h5ZM310.3 92.54h-1.47l5.49-12.34H316l5.44 12.34H320l-1.69-3.88H312l-1.69 3.88Zm7.49-5-2.68-6.19-2.68 6.2ZM329.35 88.38v4.54H328v-4.55l-4.51-7.79h1.59l3.57 6.42 3.65-6.41h1.54Z"/>
  </g>
</svg>