<svg xmlns="http://www.w3.org/2000/svg" id="b" viewBox="0 0 1974.9 582.7"><defs><style>.d{fill:#111d75}.e{fill:#fc7ccf}.f{fill:#fff}.g{fill:#171748}.h{fill:#ff008c}.i{fill:#d6058b}.j{fill:#334ca8}</style></defs><g id="c"><ellipse cx="1715.5" cy="259.4" class="f" rx="206" ry="229"/><ellipse cx="638.5" cy="524.4" class="f" rx="51" ry="48"/><path d="M483.8 198.2a79.1 79.1 0 0 1 68.8-37.4c38 0 67.7 17.3 82.9 48.8 13-27.7 39-48.8 79.6-48.8 52 0 92.7 41.2 92.7 99.2v176h-73.7V281.2c0-30.3-17.3-48.2-43.3-48.2-26.6 0-45 17.9-45 48.2v155H572V281c0-30.3-17.3-48.2-43.4-48.2s-43.3 16.2-45 44.4v158.8h-73.6V166.2h73.7v32ZM257 171.6v213.6c0 89.3-50.7 134.2-135 134.2-34.2 0-65.4-9.3-81.5-18v-68.8c21 13.6 53.2 24.3 82 24.3 39.4 0 68.2-23.4 68.2-62.9v-17a95.3 95.3 0 0 1-76.6 35.6C47.3 412.6 0 359.9 0 290s47.3-123.4 113.7-123.4a92.6 92.6 0 0 1 77 37v-32.1h66.4Zm-128.2 60a57.4 57.4 0 0 0-57.6 58c0 32.2 24.9 58 57.6 58a57 57 0 0 0 58-58c0-31.7-24.4-58-58-58ZM911.8 198.2a79.1 79.1 0 0 1 68.8-37.4c38 0 67.8 17.3 83 48.8 13-27.7 39-48.8 79.6-48.8 52 0 92.6 41.2 92.6 99.2v176h-73.7V281.2c0-30.3-17.3-48.2-43.3-48.2-26.6 0-45 17.9-45 48.2v155h-73.7V281c0-30.3-17.3-48.2-43.3-48.2s-43.4 16.2-45 44.4v158.8H838V166.2h73.7v32ZM1334.6 321.8c6.3 30.2 32.8 49.7 69.7 49.7 32.8 0 65.6-9.5 89.4-24.8v69.2c-23.3 12.2-57.1 20.6-95.2 20.6-78.2 0-135.8-55.5-135.8-137.4 0-77.1 55.5-136.8 131.6-136.8s123.1 57 123.1 125.2c0 11-2 25.9-4.2 34.3h-178.6Zm0-54.4h113.6c-1-27-23.8-45.4-54.4-45.4-31.7 0-55.5 20.6-59.2 45.4ZM376.7 436.3h-95.3V302.1h95.3v134.2Z" class="h"/><path d="M1776 7a257.5 257.5 0 0 0-157.5 12.2 258 258 0 0 0-37.6 318.4l44.2-28.8c11.3 31.6 28.8 60 63.8 68.3 28.6 6.8 53.7-10.8 60.3-38.8 6.5-27.3-12.4-49.3-37.9-55.4-21-5-45.2-2-60.5 13.9l-53.2-47.6 68.6-172.6 137.6 32.7c-5.7-20-3.5-37.8 7.8-47.8 20.3-17.9 62.1-3.6 93.5 31.9 31.3 35.4 40.3 78.7 20 96.6-18.1 16-53.4 6.3-83.1-21.3l-4.6 19.2-136.1-32.4-22 61.3c17.2-4.6 35.3-1.6 52.5 2.4 63.7 15.2 106.3 70.4 90.6 136.5-13.2 55.7-55 87.8-106.1 90.9A258 258 0 0 0 1896 443a258.2 258.2 0 0 1-105 63.4A258.6 258.6 0 0 0 1776 7.1Z" class="d"/><path d="M1842 168.7c29.7 27.6 65 37.3 83.1 21.3 20.3-17.9 11.3-61.2-20-96.6-31.4-35.5-73.2-49.8-93.5-31.9-11.3 10-13.5 27.8-7.8 47.8l49.5 11.8-11.3 47.6Z" class="j"/><path d="m1470.8 349 2.3-1.1c-2-5.7-3.9-11.5-5.6-17.3h-2.7a257 257 0 0 0 6 18.3ZM1656.2 510.6a257.8 257.8 0 0 1-153.8-105.8v4.1a258.5 258.5 0 0 0 288.7 97.5 257.5 257.5 0 0 1-134.9 4.2ZM1618.5 19.2l.5-.5a259.5 259.5 0 0 0-150 156.4c.7.3 1.2.8 1.8 1.2a258.5 258.5 0 0 1 147.7-157.1Z" class="g"/><path d="M1813.2 460.7a258 258 0 0 1-97-14.1c-13.7.8-28.1-.5-42.9-4-52.2-12.4-88-45.8-109.4-93.9l17-11a258 258 0 0 1 37.6-318.4 258.5 258.5 0 0 0-147.7 157c34.2 23.4 55.4 63.2 55.4 111.2 0 12.1-2.3 27.5-4.5 36.5l-1.7 6.6h-52.5c1.7 5.8 3.6 11.6 5.6 17.3a128 128 0 0 0 15.8-8.6l13.5-8.7v74.2c35 51.3 88.6 90.2 153.8 105.8 46.2 11 92.5 8.7 134.9-4.2 40.2-12.5 76-34.5 105-63.4a258.3 258.3 0 0 1-82.9 17.7Z" class="g"/><path d="M638.7 464.2a59.2 59.2 0 1 0 0 118.5 59.2 59.2 0 0 0 0-118.5Zm-3.5 94c-5.3 0-11.6-1.7-15.4-3.6v-17.3a24 24 0 0 0 14.7 5.7c6.2 0 9-3.5 9-8 0-5.6-4.6-7.2-12.7-7.2h-8.6l4-35.6h32.4v13.3h-19.5L638 514c13 .6 21.4 8.5 21.4 21 0 15.6-10.3 23.1-24 23.1Z" class="d"/><path d="m654.3 483.2 9.8 4.2c.6.4 1.2.6 1.9.6a4 4 0 0 0 2 0 5.3 5.3 0 0 0 3.2-2.5c.6-1.2 1-2.7.5-4-.4-1.2-1.2-2.6-2.4-3.1l-9.8-4.2c-.6-.4-1.2-.6-1.9-.6a4 4 0 0 0-2 0 5.3 5.3 0 0 0-3.2 2.5c-.6 1.2-1 2.6-.5 4 .4 1.2 1.2 2.6 2.4 3.1Z" class="j"/><path d="M599.2 513a59 59 0 0 1 17.5-44.6 59.2 59.2 0 1 0 63.4 97.1 59.1 59.1 0 0 1-80.9-52.4Z" class="g"/><path d="M284 494h18.4c10.2 0 17.3 6.2 17.3 16.6 0 10.3-7 16.5-17.3 16.5h-6v18.2h-12.5V494Zm18.2 12h-5.9v9.3h6c2.7 0 4.7-1.6 4.7-4.8 0-3-2-4.6-4.8-4.6ZM357.5 545.3V494h12.4v39.5h17.5v12h-29.9ZM453 535.7h-17.4l-3.2 9.6h-13.8l19-51.4h13.8l18.9 51.4h-13.9l-3.3-9.6Zm-13.2-12h9.3l-4.7-13.6-4.6 13.7ZM512 523.3 495.8 494h14l8.6 17.3 8.6-17.3h14l-16.4 29.6v21.8H512v-22ZM747 494h19.5c15.8 0 25.5 10.6 25.5 25.7 0 15-9.7 25.6-25.5 25.6h-19.4V494Zm12.5 12v27.4h7c8.3 0 12.7-5.9 12.7-13.7 0-7.7-4.4-13.8-12.8-13.8h-7ZM857.5 535.7h-17.4l-3.3 9.6H823l19-51.4h13.8l19 51.4h-14l-3.3-9.6Zm-13.2-12h9.2l-4.6-13.6-4.6 13.7ZM916.5 523.3 900.2 494h14l8.5 17.3 8.7-17.3h14l-16.5 29.6v21.8h-12.4v-22ZM1006.6 508.1a23.3 23.3 0 0 0-11.6-3.5c-3.3 0-4.7 1.8-4.7 3.6 0 1.6.8 2.7 2.4 3.7l7 3.9c7 3.6 9.5 8.7 9.5 14.6 0 8.4-5.4 15.9-17.8 15.9-4.9 0-9.6-1-13-2.4v-13.5c2.7 2.2 8 4.4 12.5 4.4 3.3 0 5-1.6 5-3.7 0-1.4-1-2.8-2.9-3.9l-6.8-4c-7.3-4-9.2-8.6-9.2-14.7 0-7.4 4.6-15.5 18.6-15.5 3.6 0 7.6.8 11 2.2v13ZM1123.6 535.7h-17.4l-3.3 9.6h-13.8l19-51.4h13.8l19 51.4h-14l-3.3-9.6Zm-13.2-12h9.2l-4.6-13.6-4.6 13.7ZM1216.9 494h13.8l7.5 35.9 9.2-29.4-1.7-6.6h12.4l9.2 36 7.4-36h13.8l-13.3 51.4h-13.8l-8-28-9.4 28h-13.8L1217 494ZM1324.9 545.3V494h30v12h-17.6v7.5h16v12h-16v8h17.5v12h-30ZM1394.8 545.3V494h30v12h-17.6v7.5h16v12h-16v8h17.6v12h-30ZM1464.7 494h12.4v19l11-19h14.3l-13 21 13.8 30.3h-14.4l-8.5-19.6-3.2 5v14.6h-12.4V494ZM1104.6 93.2h-8.7v-6.8h24.5v6.8h-8.8v28.7h-7V93.2ZM1140.2 86.4h12c7 0 11.7 3.8 11.7 10.3 0 5-3 8-6.5 9 4.4 2.3 7.2 8.5 8.1 16.2h-7.2c-1.4-7.8-4.6-13.4-9-13.4h-2v13.4h-7V86.4Zm12 6.8h-5v8.6h5c2.5 0 4.5-1.6 4.5-4.3 0-2.8-2-4.3-4.6-4.3ZM1186.1 86.4h7V122h-7V86.4ZM1215.2 106.4v-6.9h17.4v6.9h-17.4ZM1272.4 95c-1.8-1.4-5-2.6-8-2.6-2.8 0-4.3 1.6-4.3 3.4 0 1.4.8 2.4 2.2 3.4l5.4 3.2c4.7 2.6 6.4 5.8 6.4 9.7 0 5.5-3.7 10.5-11.8 10.5-3.6 0-6.8-1-9-1.9V113c1.9 1.5 5.3 3 8.7 3 3 0 4.7-1.6 4.7-3.5 0-1.3-1-2.6-2.7-3.7l-5.3-3.3c-4.7-2.6-6.1-5.5-6.1-9.5 0-4.9 3.1-10.2 12.2-10.2 2.7 0 5.4.7 7.6 1.6V95ZM1300.4 93.2h-8.7v-6.8h24.4v6.8h-8.7v28.7h-7V93.2ZM1353.2 114h-13l-2.7 8h-7.9l13.3-35.6h7.8l13.1 35.5h-7.8l-2.8-7.9Zm-10.6-6.7h8.3l-4.2-11.7-4.1 11.7ZM1386.1 93.2h-8.7v-6.8h24.4v6.8h-8.7v28.7h-7V93.2ZM1421.7 122V86.3h20v6.8h-13v7.5h12v6.7h-12v7.8h13v6.7h-20ZM293.8 216.3c4.4 3.8 10 7.7 15.4 10.4 7.6 3.7 14.2 5 19.7 5 3 0 8-.6 10.8-2.2 2-1.3 3.1-3.3 3.1-5.3 0-1.5-.6-3.1-1.8-4.4-2-2-5.2-2.6-7.2-3l-11.2-1.8c-8-1.3-20.9-4.6-28.4-12.3a33.6 33.6 0 0 1-8.6-23c0-10 3.6-19.5 10.8-26.5 5.7-5.7 14.3-10 23.5-11.7v-20H344v18.9c7.3.3 17.6 2.2 31.2 9.5L363 180.5a43.4 43.4 0 0 0-28-10.3c-2.8 0-6.5.2-9 2.4a6.5 6.5 0 0 0-2.5 5.2 6 6 0 0 0 1.7 4c1.8 1.7 5 2.2 17 3.7 10.1 1.3 21.9 3.6 30.3 12.3 6.8 7 9 15.2 9 23.4 0 10.3-3 19.7-10.5 27.5-5.6 6.1-15 11.6-27 13v22.6H320v-22.2a74.7 74.7 0 0 1-21.3-4.7c-6-2.4-12.1-5.5-17.2-9l12.4-32.1Z" class="d"/><path d="M756.7 269.2c0-30.3-17.3-48.2-43.4-48.2a43.6 43.6 0 0 0-32.8 13.1c3.3-.6 6.7-1 10.3-1 26 0 43.3 18 43.3 48.3v155h73.7v-12.2h-51.1v-155ZM432.6 166.5h-22.5v269.8h73.7v-12.1h-51.2V166.5zM594.7 269.2c0-30.3-17.4-48.2-43.4-48.2a43.4 43.4 0 0 0-33 13.1c3.3-.6 6.8-1 10.4-1 26 0 43.4 18 43.4 48.3v155h73.7v-12.2h-51.1v-155ZM63 489.4v-45c-8.2-3.4-16-7.3-22.5-11.6v68.8c16 8.8 47.3 18 81.4 18 35.2 0 64.4-7.9 86.6-23.4a169.6 169.6 0 0 1-64 11.3c-34.1 0-65.3-9.3-81.4-18ZM22.6 278.2c0-44 18.9-81.6 49.5-103.3C28.4 192 0 236.4 0 290.4 0 360 47.3 412.8 114.1 412.8c23.4 0 43-7.1 58.6-18.4-10.8 4-22.8 6.3-36 6.3C70 400.7 22.6 348 22.6 278.2ZM1184.7 269.2c0-30.3-17.3-48.2-43.3-48.2a43.6 43.6 0 0 0-32.8 13.1c3.2-.6 6.6-1 10.2-1 26 0 43.3 18 43.3 48.3v155h73.7v-12.2h-51v-155ZM1022.7 269.2c0-30.3-17.3-48.2-43.4-48.2a43.4 43.4 0 0 0-33 13.1c3.3-.6 6.8-1 10.5-1 26 0 43.3 18 43.3 48.3v155h73.7v-12.2h-51.1v-155ZM860.7 166.5h-22.6v269.8h73.7v-12.1h-51.1V166.5zM303.9 302.4h-22.6l.1 134.2 95.3-.1v-12.1H304l-.1-122zM1285.3 287.2c0-48.8 22.2-90.6 57.8-114.7-48.5 20-80.4 68.4-80.4 126.9 0 81.9 57.6 137.4 135.8 137.4 38 0 71.9-8.5 95.2-20.7v-2.7a231 231 0 0 1-72.6 11.2c-78.2 0-135.8-55.5-135.8-137.4Z" class="i"/><path d="m1450.2 210 3.3 2.5-1.8-1.4c8.3 6.4 15.9 13.7 22.7 21.7a9.4 9.4 0 0 0 13.2 0 9.4 9.4 0 0 0 2.7-6.6c-.1-2.6-1-4.6-2.7-6.6a162.8 162.8 0 0 0-28-25.7c-1.9-1.4-5.1-1.5-7.2-1a9.5 9.5 0 0 0-5.6 4.3 9.4 9.4 0 0 0-1 7.2c.9 2.5 2.3 4 4.4 5.6ZM346 325.8l5.4 12a7 7 0 0 0 2.4 2.7 7 7 0 0 0 3.2 1.7 7 7 0 0 0 3.7.1 7 7 0 0 0 3.5-1c2-1.3 3.7-3.3 4.3-5.6 0-.9.2-1.7.3-2.5 0-1.7-.4-3.3-1.3-4.7l-5.3-12.1a7 7 0 0 0-2.4-2.6 7 7 0 0 0-3.2-1.7 7 7 0 0 0-3.7-.2 7 7 0 0 0-3.5 1.1 9.4 9.4 0 0 0-4.3 5.6l-.3 2.5c0 1.7.4 3.2 1.2 4.7ZM153.3 208h1.3l-2.5-.3a29.6 29.6 0 0 1 5.4 1.2c2.3 1 4.5 2.3 6.5 3.8l-2-1.5c2 1.6 3.8 3.3 5.4 5.3l-1.5-1.9c.9 1.1 1.6 2.3 2.3 3.5 2.4 4.2 8.6 6 12.7 3.3 4.4-2.8 6-8.2 3.4-12.7a39 39 0 0 0-31-19.4 9.4 9.4 0 0 0-9.4 9.3c.1 2.4 1 5 2.8 6.6 1.9 1.7 4 2.5 6.6 2.7ZM747.2 197.5l1.8 1.3-1.9-1.5c4.4 3.5 8.4 7.4 11.8 11.8l-1.5-1.9c1.4 1.9 2.8 3.8 4 5.8 1.2 2 3.3 3.7 5.6 4.3 2.2.7 5.2.4 7.2-.9s3.7-3.2 4.3-5.6c.5-2.4.4-5-1-7.2a78.1 78.1 0 0 0-20.8-22.3c-1.9-1.3-5.1-1.5-7.2-.9a9.5 9.5 0 0 0-5.6 4.3 9.4 9.4 0 0 0-1 7.2l1 2.2c.8 1.4 2 2.5 3.3 3.4ZM577.2 195.5c1.4.8 2.7 1.7 4 2.7l-1.9-1.5c2 1.5 3.7 3.3 5.2 5.2l-1.4-1.9c1 1.4 2 2.9 2.8 4.4a7 7 0 0 0 2.4 2.7 7 7 0 0 0 3.1 1.6 7 7 0 0 0 3.8.2 7 7 0 0 0 3.4-1.1c2-1.3 3.8-3.2 4.3-5.6l.4-2.5c0-1.7-.5-3.2-1.3-4.7a45.3 45.3 0 0 0-6.6-9 45 45 0 0 0-8.8-6.6 9.8 9.8 0 0 0-7.2-1 7 7 0 0 0-3.2 1.7 7 7 0 0 0-2.4 2.7 9.4 9.4 0 0 0-1 7.2 9.5 9.5 0 0 0 4.4 5.5ZM1176.5 197.5l1.8 1.3-1.9-1.5c4.4 3.5 8.3 7.4 11.7 11.8l-1.4-1.9 4 5.8c1.2 2 3.2 3.7 5.5 4.3 2.3.7 5.3.4 7.2-.9 2-1.3 3.8-3.2 4.3-5.6.6-2.4.4-5-1-7.2a78.1 78.1 0 0 0-20.8-22.3c-1.8-1.3-5-1.5-7.2-.9a9.5 9.5 0 0 0-5.5 4.3 9.4 9.4 0 0 0-1 7.2l1 2.2c.8 1.4 1.9 2.5 3.3 3.4ZM1006.4 195.5c1.5.8 2.8 1.7 4 2.7l-1.8-1.5c2 1.5 3.7 3.3 5.2 5.2l-1.5-1.9c1.1 1.4 2 2.9 2.8 4.4a7 7 0 0 0 2.4 2.7 7 7 0 0 0 3.2 1.6 7 7 0 0 0 3.7.2 7 7 0 0 0 3.5-1.1c2-1.3 3.8-3.2 4.3-5.6l.3-2.5c0-1.7-.4-3.2-1.2-4.7a45.3 45.3 0 0 0-6.6-9 45 45 0 0 0-8.8-6.6 9.8 9.8 0 0 0-7.2-1 7 7 0 0 0-3.2 1.7 7 7 0 0 0-2.4 2.7 9.4 9.4 0 0 0-1 7.2 9.5 9.5 0 0 0 4.3 5.5Z" class="e"/><path d="m354.6 205.9 9 3.8c.6.4 1.2.6 2 .6a4 4 0 0 0 2 0 5.3 5.3 0 0 0 3.1-2.4c.6-1.3 1-2.7.5-4l-.5-1.3c-.5-.8-1-1.4-1.9-1.9l-9-3.8c-.5-.4-1.2-.6-1.9-.6a4 4 0 0 0-2 0 5.3 5.3 0 0 0-3.2 2.5c-.6 1.2-1 2.6-.5 4l.5 1.2c.5.8 1.1 1.4 1.9 1.9Z" class="j"/><circle cx="361.5" cy="152.4" r="5" class="j"/></g></svg>