<svg xmlns="http://www.w3.org/2000/svg" viewBox="95.33 -6.99 335.92 167.95"><path d="M104.4 128.98V70.43l-.06-7.51 16.62-.05c1.66 10.41 3.32 20.82 5 31.23l.3-.01c1.57-10.42 3.15-20.84 4.74-31.25l16.62-.04-.07 7.05-.09 54.97.06 7.05c-4.84.44-7.26.67-12.1 1.15l.08-7.17.03-25.52c-.12 0-.19 0-.31.02a18566.3 18566.3 0 0 0-5.43 33.25c-3.1.32-4.65.49-7.76.83l-5.36-33-.3.02-.02 26.25.06 7.36c-4.83.56-7.25.84-12.07 1.44l.06-7.52ZM168.12 103.38c0 4.07 0 6.1-.02 10.18 4.95-.29 7.42-.42 12.36-.67l-.03 16.37a1146.8 1146.8 0 0 0-25.7 1.97l.07-7 .09-54.46-.06-6.98a43667 43667 0 0 1 25.6-.05l-.03 16.38c-4.9.08-7.34.13-12.23.23l-.02 9.8c4.39-.14 6.58-.2 10.97-.32l-.02 14.07c-4.4.18-6.59.28-10.98.48ZM217.34 85.9l-13.3.23v-1.45c0-4.75.01-7.94-2.68-7.9-2.7.03-2.7 3.32-2.72 8.45l-.03 19.5c-.01 6.22-.02 9.7 3.06 9.57 3.51-.14 3.52-4.42 3.53-7.42v-2.74l-4.08.14.02-12.43c6.48-.15 9.72-.22 16.2-.34l-.06 35.78c-2.76.1-4.14.17-6.9.3l-1.7-4.57h-.06c-2.64 4.76-6.22 6.7-9.93 6.79-13.48.3-13.53-18.97-13.38-28.74l.02-10.37c-.1-11.03.49-30.15 16.11-29.64 13.1.43 15.98 13.11 15.9 23.85v1ZM257.69 126.26c-5.48.06-8.23.1-13.7.21l-.88-6.85c-3.52.07-5.28.1-8.8.2l-.82 6.91c-5.22.15-7.84.24-13.06.43 3.55-21.5 7.11-42.99 10.69-64.48l15.93-.01c3.53 21.2 7.08 42.4 10.64 63.6Zm-21.73-20.36 5.47-.1-2.56-20.69h-.31l-2.6 20.79ZM261.02 126.23l.12-6.5.02-50.58-.06-6.49h18.82c8.47 0 12.99 5.44 13 15.95v.62c0 6.86-1.38 12.19-6.02 14.2v.36c5.02 1.99 6.34 6.28 6.35 14.74v1.43c0 12.1-5.46 16.3-12.88 16.25-7.74-.05-11.61-.04-19.36.02Zm13.44-38.16h2.01c2.14 0 3.27-1.41 3.27-5.5v-.53c0-4.1-1.13-5.25-3.27-5.25h-2v11.28Zm2.4 24c2.07 0 3.2-1.24 3.2-5.5v-1.51c0-4.1-1.2-5.52-3.2-5.52h-2.4v12.52h2.4ZM329.73 62.7l-.06 6.6.06 39.09c.5 9.53-4.47 20.43-15.42 20.05-10.89-.37-16.29-10.85-15.85-20.73l-.03-38.53-.07-6.51h13.43l-.06 6.55.04 36.74c0 3.59.64 5.57 2.52 5.62 1.95.04 2.51-1.92 2.5-5.51 0-12.28-.02-24.56-.04-36.83l-.07-6.56 13.05.01ZM353.62 90.91l-.01-4.6c-.01-5.8-.02-9.03-2.47-9.07-2.5-.03-2.5 3.18-2.49 8.96l.03 18.63c.01 5.87.02 8.99 2.53 9.1 2.45.11 2.44-3.02 2.43-8.92v-5.07l13.36.5v1.5c.25 10.92-.56 28.96-15.76 28.17-15.02-.78-16.04-18.63-15.93-29.9l-.02-10.18c-.14-10.87.7-29.18 15.83-28.97 15.1.22 16.08 17.72 15.86 29.02v1.21c-5.35-.16-8.02-.24-13.36-.38ZM405.44 62.82a9402.95 9402.95 0 0 1-8.86 32.51c3.54 12.48 7.02 24.98 10.46 37.48-5.96-.59-8.95-.86-14.91-1.39-2.4-9.23-3.6-13.8-6-22.9l-.3-.02c0 6.18 0 9.26.02 15.44l.07 6.96c-5.36-.45-8.05-.66-13.42-1.05l.05-6.85-.1-53.4-.07-6.85 13.43.03-.05 6.95.02 14.86.31.01c2.22-8.66 3.33-13.02 5.55-21.8 5.52 0 8.28 0 13.8.02ZM418.78 108.84v2.69c0 5.87 1.58 9.6 4.52 9.86 2.32.2 3.5-1.9 3.5-5.12 0-4.63-2.45-6.95-6.46-10.61l-3.26-3c-5.95-5.42-9.06-10.28-9.3-20.14-.23-9.54 4.34-21.43 15.66-21.46 12.01-.03 16.25 13.39 15.68 23.32v2.26l-11.46-.46v-1.61c0-5.75-1.58-8.51-3.96-8.57-2.07-.04-3.32 1.92-3.32 4.62 0 3.59 2.2 5.05 6.15 8.54a752 752 0 0 1 3.2 2.87c8.4 7.59 10.29 15.9 10.52 24.09.27 9.44-4.4 21.8-16.06 20.3-11.92-1.54-17.58-13.7-17.06-24.74v-3.63c4.66.3 6.99.46 11.65.79Z" class="d" style="fill:#194b7e;stroke-width:0" transform="translate(-9.01 -6.99)"/><path d="M369.27 160.3h-18.31a1.45 1.45 0 1 1 0-2.9h18.3a1.45 1.45 0 1 1 0 2.9ZM181.5 160.3h-18.3a1.45 1.45 0 1 1 0-2.9h18.3a1.45 1.45 0 1 1 0 2.9Z" class="e" style="fill:#fe8f1c;stroke-width:0" transform="translate(-9.01 -6.99)"/><path d="M270.38 23.92h-1.14l-.1-2.25c.02-.42-.49-.64-1.25-.7-.15-.02.6-1.4.44-1.4-.14 0-1.2 1.38-1.35 1.39-.6.04-1.25.13-1.88.26-.17.03.8-1.74.64-1.7-.18.05-1.5 1.9-1.68 1.95-1.32.38-2.4.93-2.57 1.54.16-.46.74-1.47 1.5-2.66.1-.19 1.65-1.47 1.77-1.66.11-.18-1.2.74-1.08.56.45-.69.92-1.4 1.38-2.07.13-.2 1.81-1.51 1.94-1.7.14-.2-1.27.72-1.13.53 1.2-1.7 2.17-2.94 2.13-2.56.04-.38-.53-.42-1.26-.26-.17.04.9-1.22.71-1.16-.15.06-1.57 1.43-1.72 1.5-.75.3-1.44.74-1.6 1.16.14-.36.78-1.57 1.56-2.99.13-.23 1.72-1.68 1.86-1.93.12-.22-1.21.77-1.1.55l1.05-1.84c.1-.17 1.14-1.08 1.23-1.25.1-.18-.73.39-.63.22a8.5 8.5 0 0 1 .97-1.51c0-.13-.25-.1-.6 0-.1.03.45-.8.34-.77-.12.04-.89.97-1.01 1.02-.58.24-1.15.56-1.26.77l.74-1.36c.05-.09.9-.83.94-.92.05-.08-.7.48-.65.4l.65-1.19c.06-.11.9-.92.96-1.04.06-.1-.65.47-.59.36l.58-1.04c.04-.07.63-.72.66-.79.04-.07-.47.45-.43.37l.98-1.75c.03.03.44.77.98 1.75.04.08-.47-.44-.43-.37.03.07.62.72.66.79l.58 1.04c.06.11-.65-.47-.59-.36.07.12.9.93.96 1.04l.65 1.19c.05.08-.7-.48-.65-.4.05.1.89.83.94.92l.74 1.36c-.1-.2-.68-.53-1.26-.77-.12-.05-.89-.98-1-1.02-.12-.04.43.8.33.77-.35-.1-.6-.13-.6 0 0-.11.4.53.97 1.51.1.17-.74-.4-.63-.22.09.17 1.13 1.08 1.23 1.25.33.58.69 1.2 1.04 1.84.12.22-1.21-.77-1.1-.55.15.25 1.74 1.7 1.87 1.93a46.04 46.04 0 0 1 1.57 2.99c-.17-.42-.85-.86-1.6-1.17-.16-.06-1.58-1.43-1.73-1.49-.2-.06.88 1.2.7 1.16-.72-.16-1.3-.12-1.25.26-.04-.38.92.85 2.13 2.56.14.2-1.27-.74-1.13-.53.13.19 1.81 1.5 1.94 1.7l1.38 2.07c.11.18-1.2-.74-1.08-.56.12.19 1.66 1.47 1.78 1.66.75 1.2 1.33 2.2 1.5 2.66-.17-.6-1.26-1.16-2.58-1.54-.17-.05-1.5-1.9-1.68-1.94-.17-.05.81 1.72.64 1.69-.63-.13-1.28-.22-1.88-.26-.15-.01-1.2-1.38-1.35-1.38-.17 0 .59 1.37.44 1.38-.76.07-1.27.29-1.25.71l-.1 2.25h-1.14ZM285.15 19.92h-.73l-.07-1.45c.01-.27-.31-.42-.8-.46-.1 0 .39-.89.28-.89-.1 0-.78.88-.87.89a9 9 0 0 0-1.21.17c-.12.02.52-1.12.4-1.1-.1.03-.96 1.23-1.07 1.26-.86.25-1.56.6-1.67 1 .11-.3.48-.95.97-1.72.07-.12 1.07-.95 1.15-1.08.07-.1-.77.48-.7.36.29-.44.59-.9.89-1.33.08-.12 1.17-.98 1.25-1.1.1-.13-.82.47-.73.35.78-1.1 1.4-1.9 1.38-1.65.03-.25-.35-.28-.81-.17-.12.03.58-.79.46-.75-.1.03-1.02.92-1.12.96-.48.2-.93.48-1.03.75.09-.23.5-1.01 1-1.92.1-.16 1.12-1.09 1.2-1.25.09-.14-.78.5-.7.36l.68-1.19c.06-.11.73-.7.8-.8.06-.12-.48.24-.42.14.37-.64.63-1.05.63-.98 0-.08-.16-.06-.39 0-.06.02.29-.52.22-.5-.08.03-.57.63-.65.66-.37.16-.74.37-.81.5l.48-.88c.03-.06.57-.53.6-.6.03-.04-.45.32-.42.26l.42-.76c.04-.07.58-.6.62-.67.04-.07-.42.3-.38.23l.38-.67c.02-.04.4-.47.42-.5.03-.06-.3.28-.28.23.35-.64.62-1.11.64-1.13l.63 1.13c.02.05-.3-.29-.28-.24.02.04.4.47.43.5l.37.68c.04.07-.42-.3-.38-.23.04.07.58.6.62.67l.42.76c.03.06-.45-.3-.42-.25.03.06.57.53.6.59.26.46.45.8.48.88-.06-.13-.44-.34-.8-.5-.09-.03-.58-.63-.66-.66-.07-.02.28.52.22.5-.23-.07-.4-.08-.39 0 0-.07.26.34.63.98.06.1-.48-.26-.41-.14.06.1.73.69.8.8l.67 1.19c.08.14-.78-.5-.7-.36.08.16 1.11 1.1 1.2 1.25.5.91.91 1.7 1 1.92-.1-.27-.54-.55-1.03-.75-.1-.04-1.01-.92-1.11-.96-.13-.04.57.78.45.75-.46-.1-.84-.08-.8.17-.04-.25.59.54 1.37 1.65.09.12-.82-.48-.73-.35.08.12 1.17.98 1.25 1.1l.89 1.33c.08.12-.77-.47-.7-.36.08.13 1.08.96 1.15 1.08.49.77.86 1.41.97 1.71-.11-.39-.81-.74-1.66-.99-.12-.03-.97-1.23-1.09-1.25-.1-.03.53 1.11.41 1.09a9 9 0 0 0-1.2-.17c-.1 0-.79-.89-.88-.89-.1 0 .38.89.28.9-.49.03-.81.18-.8.45l-.07 1.45h-.73ZM255.75 19.92H255l-.06-1.45c.01-.27-.32-.42-.8-.46-.1 0 .38-.89.27-.89-.09 0-.77.88-.87.89a9 9 0 0 0-1.2.17c-.12.02.51-1.12.4-1.1-.11.03-.97 1.23-1.08 1.26-.85.25-1.55.6-1.66 1 .1-.3.48-.95.96-1.72.08-.12 1.07-.95 1.15-1.08.08-.1-.77.48-.7.36l.9-1.33c.08-.12 1.17-.98 1.25-1.1.1-.13-.82.47-.73.35.78-1.1 1.4-1.9 1.37-1.65.03-.25-.34-.28-.8-.17-.12.03.57-.79.45-.75-.1.03-1.01.92-1.11.96-.49.2-.93.48-1.04.75.1-.23.51-1.01 1.01-1.92.09-.16 1.12-1.09 1.2-1.25.08-.14-.78.5-.7.36l.67-1.19c.07-.11.74-.7.8-.8.07-.12-.47.24-.41.14.37-.64.63-1.05.62-.98.01-.08-.15-.06-.38 0-.06.02.29-.52.22-.5-.08.03-.58.63-.65.66-.38.16-.75.37-.81.5l.47-.88c.03-.06.58-.53.61-.6.03-.04-.45.32-.42.26l.42-.76c.04-.07.57-.6.62-.67.03-.07-.42.3-.38.23l.37-.67c.02-.04.4-.47.43-.5.03-.06-.3.28-.28.23l.63-1.13.63 1.13c.03.05-.3-.29-.27-.24.02.04.4.47.42.5l.38.68c.03.07-.42-.3-.38-.23.04.07.58.6.62.67l.42.76c.03.06-.45-.3-.43-.25.04.06.58.53.61.59l.48.88c-.07-.13-.44-.34-.81-.5-.08-.03-.58-.63-.65-.66-.07-.02.28.52.21.5-.22-.07-.39-.08-.38 0 0-.07.25.34.63.98.06.1-.48-.26-.41-.14.06.1.73.69.8.8l.66 1.19c.08.14-.78-.5-.7-.36.09.16 1.12 1.1 1.2 1.25.5.91.92 1.7 1.01 1.92-.1-.27-.55-.55-1.03-.75-.1-.04-1.02-.92-1.12-.96-.12-.04.57.78.46.75-.47-.1-.84-.08-.81.17-.03-.25.6.54 1.37 1.65.1.12-.82-.48-.72-.35.08.12 1.16.98 1.25 1.1l.89 1.33c.07.12-.77-.47-.7-.36.08.13 1.08.96 1.15 1.08.48.77.86 1.41.96 1.71-.1-.39-.8-.74-1.66-.99-.1-.03-.96-1.23-1.08-1.25-.1-.03.52 1.11.41 1.09a9 9 0 0 0-1.21-.17c-.1 0-.78-.89-.87-.89-.1 0 .38.89.28.9-.49.03-.82.18-.8.45l-.07 1.45h-.73Z" class="d" style="fill:#194b7e;stroke-width:0" transform="translate(-9.01 -6.99)"/><path d="M213.55 165.57c.26.26.4.6.4 1a1.35 1.35 0 0 1-1.4 1.38h-7.39c-.4 0-.73-.13-1-.4s-.39-.59-.39-.99v-12.94a1.35 1.35 0 0 1 1.4-1.38h7.39c.4 0 .73.13.99.39s.4.6.4 1a1.35 1.35 0 0 1-1.4 1.38h-6v3.7h3.23a1.35 1.35 0 0 1 1.39 1.38 1.34 1.34 0 0 1-1.39 1.39h-3.23v3.7h6c.4 0 .74.13 1 .39ZM229.98 159.58a4.03 4.03 0 0 1 1.52 3.28 5.02 5.02 0 0 1-3.1 4.7c-.61.26-1.27.39-1.98.39a5.02 5.02 0 0 1-5.08-5.09c0-.4.13-.73.39-.99s.6-.4 1-.4a1.35 1.35 0 0 1 1.38 1.4c0 .64.22 1.19.67 1.63.45.45 1 .68 1.64.68s1.2-.23 1.64-.68c.45-.44.67-.99.67-1.64 0-.49-.16-.85-.48-1.08a9.07 9.07 0 0 0-1.83-.86c-.46-.15-.92-.32-1.36-.5a5.57 5.57 0 0 1-1.27-.74 4.03 4.03 0 0 1-1.53-3.29c0-1.17.4-2.15 1.2-2.95s1.8-1.2 2.96-1.2 2.16.4 2.96 1.2c.8.8 1.2 1.78 1.2 2.95a1.35 1.35 0 0 1-1.38 1.4 1.35 1.35 0 0 1-1.4-1.4c0-.37-.13-.69-.4-.97s-.6-.41-.98-.41a1.37 1.37 0 0 0-1.39 1.39c0 .49.17.85.49 1.08.32.23.93.52 1.83.86.46.15.91.32 1.36.5.44.19.87.44 1.27.74ZM247.8 152.63c.25.26.39.6.39 1s-.14.72-.4.98c-.27.27-.6.4-1 .4h-2.35v11.55a1.35 1.35 0 0 1-1.38 1.39 1.35 1.35 0 0 1-1.4-1.39l.06-11.55h-2.34c-.41 0-.74-.13-1.01-.4-.27-.26-.4-.59-.4-.99a1.35 1.35 0 0 1 1.4-1.39h7.42c.4 0 .74.14 1 .4ZM258.3 166.56a1.35 1.35 0 0 1-1.38 1.39c-.37 0-.7-.13-.97-.4s-.41-.59-.41-.99.14-.73.41-1 .6-.38.97-.38a1.35 1.35 0 0 1 1.39 1.38ZM275.4 152.24c.4 0 .74.13 1 .39s.4.6.4 1v12.93a1.35 1.35 0 0 1-1.4 1.39c-.4 0-.72-.13-.99-.4s-.39-.59-.39-.99v-7.07l-1.06 2.13c-.25.52-.67.78-1.25.78-.22 0-.42-.04-.6-.14a1.43 1.43 0 0 1-.65-1.85l3.7-7.4c.24-.51.66-.78 1.25-.78ZM289.27 162.4a5.02 5.02 0 0 1-5.08-5.08 5.02 5.02 0 0 1 5.08-5.09 5.05 5.05 0 0 1 5.08 5.09v5.54a5.02 5.02 0 0 1-3.1 4.7 5.25 5.25 0 0 1-4.62-.35 4.37 4.37 0 0 1-1.84-1.9 1.35 1.35 0 0 1-.05-1.04c.12-.35.36-.62.7-.8.18-.1.38-.14.6-.14.58 0 1 .26 1.24.78.13.22.38.45.77.7a2.26 2.26 0 0 0 2.84-.3c.46-.45.7-1 .7-1.65v-1.02c-.72.37-1.49.56-2.32.56Zm0-7.4c-.65 0-1.2.23-1.64.68s-.67 1-.67 1.64.22 1.2.67 1.64 1 .67 1.64.67c.62 0 1.16-.22 1.62-.67.46-.45.7-1 .7-1.64s-.24-1.2-.7-1.64c-.46-.45-1-.67-1.62-.67ZM310.11 158.98a5.03 5.03 0 0 1 1.41 5.87 5.09 5.09 0 1 1-7.97-5.87 4.17 4.17 0 0 1-.88-2.59c0-1.17.4-2.15 1.2-2.95s1.79-1.2 2.96-1.2 2.16.4 2.96 1.2c.8.8 1.2 1.78 1.2 2.95 0 .96-.3 1.82-.88 2.6Zm-3.28 6.2c.62 0 1.16-.23 1.62-.68.46-.44.7-.99.7-1.64 0-.61-.24-1.15-.7-1.61s-1-.7-1.62-.7c-.64 0-1.2.23-1.64.7-.44.46-.67 1-.67 1.61 0 .65.23 1.2.67 1.64.45.45 1 .68 1.64.68Zm-1.38-8.79c0 .4.14.74.41 1s.6.4.97.4c.4 0 .73-.14 1-.4s.39-.6.39-1-.13-.73-.4-.99-.59-.4-.99-.4c-.37 0-.69.14-.97.4s-.41.6-.41 1ZM326.38 157.25a5.06 5.06 0 0 1 3.1 4.69v.92a5.02 5.02 0 0 1-3.1 4.7c-.62.26-1.28.39-1.99.39a5.02 5.02 0 0 1-4.69-3.1 5.02 5.02 0 0 1-.39-1.99c0-.4.13-.73.4-.99s.59-.4.99-.4.73.14 1 .4.38.6.38 1c0 .64.23 1.19.67 1.63.45.45 1 .68 1.65.68.61 0 1.15-.23 1.61-.68.46-.44.7-.99.7-1.64v-.92c0-.62-.24-1.16-.7-1.62-.46-.46-1-.69-1.61-.69h-3.7a1.34 1.34 0 0 1-1.39-1.39v-4.62a1.35 1.35 0 0 1 1.39-1.39h7.4a1.35 1.35 0 0 1 1.39 1.39c-.01.37-.14.7-.4.97-.27.28-.6.42-1 .42h-6v1.85h2.3c.72 0 1.38.13 2 .4ZM171.4 35.34c.26.26.4.6.4 1a1.35 1.35 0 0 1-1.42 1.4h-2.35v11.6a1.35 1.35 0 0 1-1.4 1.4 1.35 1.35 0 0 1-1.39-1.4l.05-11.6h-2.35c-.4 0-.75-.14-1.01-.4-.27-.26-.4-.6-.4-1a1.36 1.36 0 0 1 1.4-1.4h7.46c.4 0 .74.14 1 .4ZM198.46 48.56c.22.34.29.7.21 1.07-.08.37-.27.66-.58.88-.3.15-.57.23-.79.23-.46 0-.85-.2-1.16-.6l-3.3-4.97h-1.58v4.18c0 .4-.13.73-.4 1s-.59.4-1 .4-.73-.14-1-.4c-.26-.27-.39-.6-.39-1V36.34a1.35 1.35 0 0 1 1.4-1.4h3.71a5.07 5.07 0 0 1 5.12 5.12 5.21 5.21 0 0 1-2.88 4.6l2.64 3.9Zm-7.2-6.18h2.33c.65 0 1.2-.23 1.64-.68.45-.44.68-1 .68-1.64s-.23-1.2-.68-1.65c-.44-.45-1-.68-1.64-.68h-2.33v4.65ZM216.81 50.74a1.35 1.35 0 0 1-1.4-1.4v-13a1.35 1.35 0 0 1 1.4-1.4 1.36 1.36 0 0 1 1.4 1.4v13a1.36 1.36 0 0 1-1.4 1.4ZM241.9 44.24h-5.58a1.35 1.35 0 0 1-1.39-1.4c0-.4.13-.73.4-1s.6-.4 1-.4h5.57a1.36 1.36 0 0 1 1.4 1.4 1.36 1.36 0 0 1-1.4 1.4ZM268.7 42.33a4.05 4.05 0 0 1 1.54 3.3 5.06 5.06 0 0 1-5.11 5.11 5.05 5.05 0 0 1-4.72-3.11 5.04 5.04 0 0 1-.4-2 1.35 1.35 0 0 1 1.4-1.4 1.36 1.36 0 0 1 1.4 1.4c0 .65.22 1.2.67 1.65.45.45 1 .67 1.65.67s1.2-.22 1.65-.67.67-1 .67-1.65c0-.5-.16-.86-.49-1.1a9.1 9.1 0 0 0-1.83-.85 20.6 20.6 0 0 1-1.37-.51 5.59 5.59 0 0 1-1.28-.75 4.05 4.05 0 0 1-1.53-3.3c0-1.17.4-2.16 1.2-2.97.8-.8 1.8-1.2 2.98-1.2s2.16.4 2.97 1.2c.8.81 1.2 1.8 1.2 2.98a1.35 1.35 0 0 1-1.39 1.4 1.35 1.35 0 0 1-1.4-1.4c0-.38-.13-.7-.4-.98s-.61-.42-.98-.42c-.4 0-.74.14-1 .42-.27.28-.4.6-.4.98 0 .5.16.86.49 1.09s.94.52 1.83.86c.47.15.93.32 1.37.5.45.2.88.44 1.28.75ZM296.83 35.34c.27.26.4.6.4 1a1.35 1.35 0 0 1-1.41 1.4h-2.35v11.6c0 .41-.14.74-.4 1s-.6.4-1 .4a1.36 1.36 0 0 1-1.4-1.4l.05-11.6h-2.35c-.4 0-.74-.14-1.01-.4s-.4-.6-.4-1 .13-.73.4-1c.26-.26.6-.4 1-.4h7.47c.4 0 .74.14 1 .4ZM324.08 48.98c.1.37.05.72-.14 1.04-.19.33-.46.55-.84.67-.09.04-.21.05-.37.05-.68 0-1.13-.34-1.35-1.02l-.79-2.7h-3.2l-.74 2.7c-.22.68-.67 1.02-1.35 1.02a.96.96 0 0 1-.37-.05 1.46 1.46 0 0 1-.84-.67 1.36 1.36 0 0 1-.14-1.04l3.72-13.01c.12-.37.35-.65.67-.84.33-.18.68-.23 1.05-.14.46.16.79.48.97.98l3.72 13Zm-4.27-4.74-.8-2.84-.78 2.84h1.58ZM350.72 35.34c.27.26.4.6.4 1a1.35 1.35 0 0 1-1.41 1.4h-2.35v11.6c0 .41-.14.74-.4 1s-.6.4-1 .4a1.36 1.36 0 0 1-1.4-1.4l.05-11.6h-2.35c-.4 0-.74-.14-1.01-.4s-.4-.6-.4-1a1.36 1.36 0 0 1 1.4-1.4h7.47c.4 0 .74.14 1 .4ZM377.62 48.35c.26.26.4.6.4 1a1.36 1.36 0 0 1-1.4 1.4h-7.43a1.35 1.35 0 0 1-1.4-1.4V36.34a1.36 1.36 0 0 1 1.4-1.4h7.43a1.36 1.36 0 0 1 1.4 1.4 1.36 1.36 0 0 1-1.4 1.4h-6.04v3.71h3.25a1.36 1.36 0 0 1 1.4 1.4c0 .4-.13.73-.4 1s-.6.39-1 .39h-3.25v3.71h6.04c.4 0 .74.14 1 .4Z" class="e" style="fill:#fe8f1c;stroke-width:0" transform="translate(-9.01 -6.99)"/></svg>